  0
SECTION
  2
HEADER
  9
$ACADVER
  1
AC1032
  9
$ACADMAINTVER
 90
       55
  9
$DWGCODEPAGE
  3
ANSI_1252
  9
$LASTSAVEDBY
  1
LYI-002
  9
$REQUIREDVERSIONS
160
                 0
  9
$INSBASE
 10
0.0
 20
0.0
 30
0.0
  9
$EXTMIN
 10
-1200.15
 20
-590.1117
 30
0.0
  9
$EXTMAX
 10
1200.05
 20
590.0883
 30
0.0
  9
$LIMMIN
 10
0.0
 20
0.0
  9
$LIMMAX
 10
12.0
 20
9.0
  9
$ORTHOMODE
 70
     0
  9
$REGENMODE
 70
     1
  9
$FILLMODE
 70
     1
  9
$QTEXTMODE
 70
     0
  9
$MIRRTEXT
 70
     1
  9
$LTSCALE
 40
1.0
  9
$ATTMODE
 70
     1
  9
$TEXTSIZE
 40
0.2
  9
$TRACEWID
 40
0.05
  9
$TEXTSTYLE
  7
Standard
  9
$CLAYER
  8
0
  9
$CELTYPE
  6
ByLayer
  9
$CECOLOR
 62
   256
  9
$CELTSCALE
 40
1.0
  9
$DISPSILH
 70
     0
  9
$DIMSCALE
 40
1.0
  9
$DIMASZ
 40
0.18
  9
$DIMEXO
 40
0.0625
  9
$DIMDLI
 40
0.38
  9
$DIMRND
 40
0.0
  9
$DIMDLE
 40
0.0
  9
$DIMEXE
 40
0.18
  9
$DIMTP
 40
0.0
  9
$DIMTM
 40
0.0
  9
$DIMTXT
 40
0.18
  9
$DIMCEN
 40
0.09
  9
$DIMTSZ
 40
0.0
  9
$DIMTOL
 70
     0
  9
$DIMLIM
 70
     0
  9
$DIMTIH
 70
     1
  9
$DIMTOH
 70
     1
  9
$DIMSE1
 70
     0
  9
$DIMSE2
 70
     0
  9
$DIMTAD
 70
     0
  9
$DIMZIN
 70
     0
  9
$DIMBLK
  1

  9
$DIMASO
 70
     1
  9
$DIMSHO
 70
     1
  9
$DIMPOST
  1

  9
$DIMAPOST
  1

  9
$DIMALT
 70
     0
  9
$DIMALTD
 70
     2
  9
$DIMALTF
 40
25.4
  9
$DIMLFAC
 40
1.0
  9
$DIMTOFL
 70
     0
  9
$DIMTVP
 40
0.0
  9
$DIMTIX
 70
     0
  9
$DIMSOXD
 70
     0
  9
$DIMSAH
 70
     0
  9
$DIMBLK1
  1

  9
$DIMBLK2
  1

  9
$DIMSTYLE
  2
Standard
  9
$DIMCLRD
 70
     0
  9
$DIMCLRE
 70
     0
  9
$DIMCLRT
 70
     0
  9
$DIMTFAC
 40
1.0
  9
$DIMGAP
 40
0.09
  9
$DIMJUST
 70
     0
  9
$DIMSD1
 70
     0
  9
$DIMSD2
 70
     0
  9
$DIMTOLJ
 70
     1
  9
$DIMTZIN
 70
     0
  9
$DIMALTZ
 70
     0
  9
$DIMALTTZ
 70
     0
  9
$DIMUPT
 70
     0
  9
$DIMDEC
 70
     4
  9
$DIMTDEC
 70
     4
  9
$DIMALTU
 70
     2
  9
$DIMALTTD
 70
     2
  9
$DIMTXSTY
  7
Standard
  9
$DIMAUNIT
 70
     0
  9
$DIMADEC
 70
     0
  9
$DIMALTRND
 40
0.0
  9
$DIMAZIN
 70
     0
  9
$DIMDSEP
 70
    46
  9
$DIMATFIT
 70
     3
  9
$DIMFRAC
 70
     0
  9
$DIMLDRBLK
  1

  9
$DIMLUNIT
 70
     2
  9
$DIMLWD
 70
    -2
  9
$DIMLWE
 70
    -2
  9
$DIMTMOVE
 70
     0
  9
$DIMFXL
 40
1.0
  9
$DIMFXLON
 70
     0
  9
$DIMJOGANG
 40
0.7853981633974483
  9
$DIMTFILL
 70
     0
  9
$DIMTFILLCLR
 70
     0
  9
$DIMARCSYM
 70
     0
  9
$DIMLTYPE
  6

  9
$DIMLTEX1
  6

  9
$DIMLTEX2
  6

  9
$DIMTXTDIRECTION
 70
     0
  9
$LUNITS
 70
     2
  9
$LUPREC
 70
     4
  9
$SKETCHINC
 40
0.1
  9
$FILLETRAD
 40
0.0
  9
$AUNITS
 70
     0
  9
$AUPREC
 70
     0
  9
$MENU
  1
.
  9
$ELEVATION
 40
0.0
  9
$PELEVATION
 40
0.0
  9
$THICKNESS
 40
0.0
  9
$LIMCHECK
 70
     0
  9
$CHAMFERA
 40
0.0
  9
$CHAMFERB
 40
0.0
  9
$CHAMFERC
 40
0.0
  9
$CHAMFERD
 40
0.0
  9
$SKPOLY
 70
     0
  9
$TDCREATE
 40
2460652.668710058
  9
$TDUCREATE
 40
2460652.439543391
  9
$TDUPDATE
 40
2460652.668710116
  9
$TDUUPDATE
 40
2460652.439543449
  9
$TDINDWG
 40
0.0000000116
  9
$TDUSRTIMER
 40
0.0000000116
  9
$USRTIMER
 70
     1
  9
$ANGBASE
 50
0.0
  9
$ANGDIR
 70
     0
  9
$PDMODE
 70
     0
  9
$PDSIZE
 40
0.0
  9
$PLINEWID
 40
0.0
  9
$SPLFRAME
 70
     0
  9
$SPLINETYPE
 70
     6
  9
$SPLINESEGS
 70
     8
  9
$HANDSEED
  5
AD
  9
$SURFTAB1
 70
     6
  9
$SURFTAB2
 70
     6
  9
$SURFTYPE
 70
     6
  9
$SURFU
 70
     6
  9
$SURFV
 70
     6
  9
$UCSBASE
  2

  9
$UCSNAME
  2

  9
$UCSORG
 10
0.0
 20
0.0
 30
0.0
  9
$UCSXDIR
 10
1.0
 20
0.0
 30
0.0
  9
$UCSYDIR
 10
0.0
 20
1.0
 30
0.0
  9
$UCSORTHOREF
  2

  9
$UCSORTHOVIEW
 70
     0
  9
$UCSORGTOP
 10
0.0
 20
0.0
 30
0.0
  9
$UCSORGBOTTOM
 10
0.0
 20
0.0
 30
0.0
  9
$UCSORGLEFT
 10
0.0
 20
0.0
 30
0.0
  9
$UCSORGRIGHT
 10
0.0
 20
0.0
 30
0.0
  9
$UCSORGFRONT
 10
0.0
 20
0.0
 30
0.0
  9
$UCSORGBACK
 10
0.0
 20
0.0
 30
0.0
  9
$PUCSBASE
  2

  9
$PUCSNAME
  2

  9
$PUCSORG
 10
0.0
 20
0.0
 30
0.0
  9
$PUCSXDIR
 10
1.0
 20
0.0
 30
0.0
  9
$PUCSYDIR
 10
0.0
 20
1.0
 30
0.0
  9
$PUCSORTHOREF
  2

  9
$PUCSORTHOVIEW
 70
     0
  9
$PUCSORGTOP
 10
0.0
 20
0.0
 30
0.0
  9
$PUCSORGBOTTOM
 10
0.0
 20
0.0
 30
0.0
  9
$PUCSORGLEFT
 10
0.0
 20
0.0
 30
0.0
  9
$PUCSORGRIGHT
 10
0.0
 20
0.0
 30
0.0
  9
$PUCSORGFRONT
 10
0.0
 20
0.0
 30
0.0
  9
$PUCSORGBACK
 10
0.0
 20
0.0
 30
0.0
  9
$USERI1
 70
     0
  9
$USERI2
 70
     0
  9
$USERI3
 70
     0
  9
$USERI4
 70
     0
  9
$USERI5
 70
     0
  9
$USERR1
 40
0.0
  9
$USERR2
 40
0.0
  9
$USERR3
 40
0.0
  9
$USERR4
 40
0.0
  9
$USERR5
 40
0.0
  9
$WORLDVIEW
 70
     1
  9
$SHADEDGE
 70
     3
  9
$SHADEDIF
 70
    70
  9
$TILEMODE
 70
     1
  9
$MAXACTVP
 70
    64
  9
$PINSBASE
 10
0.0
 20
0.0
 30
0.0
  9
$PLIMCHECK
 70
     0
  9
$PEXTMIN
 10
1.000000000000000E+20
 20
1.000000000000000E+20
 30
1.000000000000000E+20
  9
$PEXTMAX
 10
-1.000000000000000E+20
 20
-1.000000000000000E+20
 30
-1.000000000000000E+20
  9
$PLIMMIN
 10
0.0
 20
0.0
  9
$PLIMMAX
 10
12.0
 20
9.0
  9
$UNITMODE
 70
     0
  9
$VISRETAIN
 70
     1
  9
$PLINEGEN
 70
     0
  9
$PSLTSCALE
 70
     1
  9
$TREEDEPTH
 70
  3020
  9
$CMLSTYLE
  2
Standard
  9
$CMLJUST
 70
     0
  9
$CMLSCALE
 40
1.0
  9
$PROXYGRAPHICS
 70
     1
  9
$MEASUREMENT
 70
     0
  9
$CELWEIGHT
370
    -1
  9
$ENDCAPS
280
     0
  9
$JOINSTYLE
280
     0
  9
$LWDISPLAY
290
     0
  9
$INSUNITS
 70
     4
  9
$HYPERLINKBASE
  1

  9
$STYLESHEET
  1

  9
$XEDIT
290
     1
  9
$CEPSNTYPE
380
     0
  9
$PSTYLEMODE
290
     1
  9
$FINGERPRINTGUID
  2
{828a5140-849a-4854-90de-3cf26cad6476}
  9
$VERSIONGUID
  2
{FAEB1C32-E019-11D5-929B-00C0DF256EC4}
  9
$EXTNAMES
290
     1
  9
$PSVPSCALE
 40
0.0
  9
$OLESTARTUP
290
     0
  9
$SORTENTS
280
   127
  9
$INDEXCTL
280
     0
  9
$HIDETEXT
280
     1
  9
$XCLIPFRAME
280
     2
  9
$HALOGAP
280
     0
  9
$OBSCOLOR
 70
   257
  9
$OBSLTYPE
280
     0
  9
$INTERSECTIONDISPLAY
280
     0
  9
$INTERSECTIONCOLOR
 70
   257
  9
$DIMASSOC
280
     2
  9
$PROJECTNAME
  1

  9
$CAMERADISPLAY
290
     0
  9
$LENSLENGTH
 40
50.0
  9
$CAMERAHEIGHT
 40
0.0
  9
$STEPSPERSEC
 40
2.0
  9
$STEPSIZE
 40
6.0
  9
$3DDWFPREC
 40
2.0
  9
$PSOLWIDTH
 40
0.25
  9
$PSOLHEIGHT
 40
4.0
  9
$LOFTANG1
 40
1.570796326794897
  9
$LOFTANG2
 40
1.570796326794897
  9
$LOFTMAG1
 40
0.0
  9
$LOFTMAG2
 40
0.0
  9
$LOFTPARAM
 70
     7
  9
$LOFTNORMALS
280
     1
  9
$LATITUDE
 40
37.795
  9
$LONGITUDE
 40
-122.394
  9
$NORTHDIRECTION
 40
0.0
  9
$TIMEZONE
 70
 -8000
  9
$LIGHTGLYPHDISPLAY
280
     1
  9
$TILEMODELIGHTSYNCH
280
     1
  9
$CMATERIAL
347
44
  9
$SOLIDHIST
280
     0
  9
$SHOWHIST
280
     1
  9
$DWFFRAME
280
     2
  9
$DGNFRAME
280
     2
  9
$REALWORLDSCALE
290
     1
  9
$INTERFERECOLOR
 62
   256
  9
$CSHADOW
280
     0
  9
$SHADOWPLANELOCATION
 40
0.0
  0
ENDSEC
  0
SECTION
  2
CLASSES
  0
CLASS
  1
ACDBDICTIONARYWDFLT
  2
AcDbDictionaryWithDefault
  3
ObjectDBX Classes
 90
        0
 91
        3
280
     0
281
     0
  0
CLASS
  1
VISUALSTYLE
  2
AcDbVisualStyle
  3
ObjectDBX Classes
 90
     4095
 91
        3
280
     0
281
     0
  0
CLASS
  1
MATERIAL
  2
AcDbMaterial
  3
ObjectDBX Classes
 90
     1153
 91
        3
280
     0
281
     0
  0
CLASS
  1
SCALE
  2
AcDbScale
  3
ObjectDBX Classes
 90
     1153
 91
        3
280
     0
281
     0
  0
CLASS
  1
TABLESTYLE
  2
AcDbTableStyle
  3
ObjectDBX Classes
 90
     4095
 91
        3
280
     0
281
     0
  0
CLASS
  1
MLEADERSTYLE
  2
AcDbMLeaderStyle
  3
ACDB_MLEADERSTYLE_CLASS
 90
     4095
 91
        3
280
     0
281
     0
  0
CLASS
  1
SUN
  2
AcDbSun
  3
SCENEOE
 90
     1153
 91
        3
280
     0
281
     0
  0
CLASS
  1
DICTIONARYVAR
  2
AcDbDictionaryVar
  3
ObjectDBX Classes
 90
        0
 91
        3
280
     0
281
     0
  0
CLASS
  1
CELLSTYLEMAP
  2
AcDbCellStyleMap
  3
ObjectDBX Classes
 90
     1152
 91
        3
280
     0
281
     0
  0
ENDSEC
  0
SECTION
  2
TABLES
  0
TABLE
  2
VPORT
  5
8
330
0
100
AcDbSymbolTable
 70
     1
  0
VPORT
  5
29
330
8
100
AcDbSymbolTableRecord
100
AcDbViewportTableRecord
  2
*Active
 70
     0
 10
0.0
 20
0.0
 11
1.0
 21
1.0
 12
10.42990654205607
 22
4.5
 13
0.0
 23
0.0
 14
0.5
 24
0.5
 15
0.5
 25
0.5
 16
0.0
 26
0.0
 36
1.0
 17
0.0
 27
0.0
 37
0.0
 40
9.0
 41
1.972972972850329
 42
50.0
 43
0.0
 44
0.0
 50
0.0
 51
0.0
 71
     0
 72
   100
 73
     1
 74
     3
 75
     0
 76
     0
 77
     0
 78
     0
281
     0
 65
     1
110
0.0
120
0.0
130
0.0
111
1.0
121
0.0
131
0.0
112
0.0
122
1.0
132
0.0
 79
     0
146
0.0
348
2F
 60
     3
 61
     5
292
     1
282
     1
141
0.0
142
0.0
 63
   250
361
5D
  0
ENDTAB
  0
TABLE
  2
LTYPE
  5
5
330
0
100
AcDbSymbolTable
 70
     1
  0
LTYPE
  5
14
330
5
100
AcDbSymbolTableRecord
100
AcDbLinetypeTableRecord
  2
ByBlock
 70
     0
  3

 72
    65
 73
     0
 40
0.0
  0
LTYPE
  5
15
330
5
100
AcDbSymbolTableRecord
100
AcDbLinetypeTableRecord
  2
ByLayer
 70
     0
  3

 72
    65
 73
     0
 40
0.0
  0
LTYPE
  5
16
330
5
100
AcDbSymbolTableRecord
100
AcDbLinetypeTableRecord
  2
Continuous
 70
     0
  3
Solid line
 72
    65
 73
     0
 40
0.0
  0
ENDTAB
  0
TABLE
  2
LAYER
  5
2
330
0
100
AcDbSymbolTable
 70
     2
  0
LAYER
  5
10
330
2
100
AcDbSymbolTableRecord
100
AcDbLayerTableRecord
  2
0
 70
     0
 62
     7
  6
Continuous
370
    -3
390
F
347
46
348
0
  0
LAYER
  5
5F
330
2
100
AcDbSymbolTableRecord
100
AcDbLayerTableRecord
  2
Layer 1
 70
     0
 62
     7
  6
Continuous
370
    -3
390
F
347
46
348
0
  0
ENDTAB
  0
TABLE
  2
STYLE
  5
3
330
0
100
AcDbSymbolTable
 70
     1
  0
STYLE
  5
11
330
3
100
AcDbSymbolTableRecord
100
AcDbTextStyleTableRecord
  2
Standard
 70
     0
 40
0.0
 41
1.0
 50
0.0
 71
     0
 42
0.2
  3
txt
  4

  0
ENDTAB
  0
TABLE
  2
VIEW
  5
6
330
0
100
AcDbSymbolTable
 70
     0
  0
ENDTAB
  0
TABLE
  2
UCS
  5
7
330
0
100
AcDbSymbolTable
 70
     0
  0
ENDTAB
  0
TABLE
  2
APPID
  5
9
330
0
100
AcDbSymbolTable
 70
     2
  0
APPID
  5
12
330
9
100
AcDbSymbolTableRecord
100
AcDbRegAppTableRecord
  2
ACAD
 70
     0
  0
APPID
  5
5E
330
9
100
AcDbSymbolTableRecord
100
AcDbRegAppTableRecord
  2
ODA
 70
     0
  0
ENDTAB
  0
TABLE
  2
DIMSTYLE
  5
A
330
0
100
AcDbSymbolTable
 70
     1
100
AcDbDimStyleTable
  0
DIMSTYLE
105
27
330
A
100
AcDbSymbolTableRecord
100
AcDbDimStyleTableRecord
  2
Standard
 70
     0
178
     0
340
11
  0
ENDTAB
  0
TABLE
  2
BLOCK_RECORD
  5
1
330
0
100
AcDbSymbolTable
 70
     1
  0
BLOCK_RECORD
  5
1F
330
1
100
AcDbSymbolTableRecord
100
AcDbBlockTableRecord
  2
*Model_Space
340
22
 70
     0
280
     1
281
     0
  0
BLOCK_RECORD
  5
1B
330
1
100
AcDbSymbolTableRecord
100
AcDbBlockTableRecord
  2
*Paper_Space
340
1E
 70
     0
280
     1
281
     0
  0
BLOCK_RECORD
  5
23
330
1
100
AcDbSymbolTableRecord
100
AcDbBlockTableRecord
  2
*Paper_Space0
340
26
 70
     0
280
     1
281
     0
  0
ENDTAB
  0
ENDSEC
  0
SECTION
  2
BLOCKS
  0
BLOCK
  5
20
330
1F
100
AcDbEntity
  8
0
100
AcDbBlockBegin
  2
*Model_Space
 70
     0
 10
0.0
 20
0.0
 30
0.0
  3
*Model_Space
  1

  0
ENDBLK
  5
21
330
1F
100
AcDbEntity
  8
0
100
AcDbBlockEnd
  0
BLOCK
  5
1C
330
1B
100
AcDbEntity
 67
     1
  8
0
100
AcDbBlockBegin
  2
*Paper_Space
 70
     0
 10
0.0
 20
0.0
 30
0.0
  3
*Paper_Space
  1

  0
ENDBLK
  5
1D
330
1B
100
AcDbEntity
 67
     1
  8
0
100
AcDbBlockEnd
  0
BLOCK
  5
24
330
23
100
AcDbEntity
  8
0
100
AcDbBlockBegin
  2
*Paper_Space0
 70
     0
 10
0.0
 20
0.0
 30
0.0
  3
*Paper_Space0
  1

  0
ENDBLK
  5
25
330
23
100
AcDbEntity
  8
0
100
AcDbBlockEnd
  0
ENDSEC
  0
SECTION
  2
ENTITIES
  0
SPLINE
  5
60
330
1F
100
AcDbEntity
  8
Layer 1
 62
   250
370
    20
100
AcDbSpline
210
0.0
220
0.0
230
1.0
 70
    11
 71
     3
 72
    26
 73
    22
 74
     0
 42
0.0000000001
 43
0.0000000001
 40
0.0
 40
0.0
 40
0.0
 40
0.0
 40
0.1428571428571428
 40
0.1428571428571428
 40
0.1428571428571428
 40
0.2857142857142857
 40
0.2857142857142857
 40
0.2857142857142857
 40
0.4285714285714285
 40
0.4285714285714285
 40
0.4285714285714285
 40
0.5714285714285714
 40
0.5714285714285714
 40
0.5714285714285714
 40
0.7142857142857142
 40
0.7142857142857142
 40
0.7142857142857142
 40
0.8571428571428571
 40
0.8571428571428571
 40
0.8571428571428571
 40
1.0
 40
1.0
 40
1.0
 40
1.0
 10
543.401
 20
-172.0094
 30
0.0
 10
543.401
 20
-172.0094
 30
0.0
 10
797.3298
 20
-62.2323
 30
0.0
 10
797.3298
 20
-62.2323
 30
0.0
 10
797.3298
 20
-62.2323
 30
0.0
 10
958.5138
 20
-112.8081
 30
0.0
 10
958.5138
 20
-112.8081
 30
0.0
 10
958.5138
 20
-112.8081
 30
0.0
 10
949.6297
 20
-134.5286
 30
0.0
 10
949.6297
 20
-134.5286
 30
0.0
 10
949.6297
 20
-134.5286
 30
0.0
 10
833.4872
 20
-163.1695
 30
0.0
 10
833.4872
 20
-163.1695
 30
0.0
 10
833.4872
 20
-163.1695
 30
0.0
 10
446.6007
 20
-355.5902
 30
0.0
 10
446.6007
 20
-355.5902
 30
0.0
 10
446.6007
 20
-355.5902
 30
0.0
 10
453.1045
 20
-336.4611
 30
0.0
 10
453.1045
 20
-336.4611
 30
0.0
 10
453.1045
 20
-336.4611
 30
0.0
 10
543.401
 20
-172.0094
 30
0.0
 10
543.401
 20
-172.0094
 30
0.0
  0
SPLINE
  5
61
330
1F
100
AcDbEntity
  8
Layer 1
 62
   250
370
    20
100
AcDbSpline
210
0.0
220
0.0
230
1.0
 70
    11
 71
     3
 72
    23
 73
    19
 74
     0
 42
0.0000000001
 43
0.0000000001
 40
0.0
 40
0.0
 40
0.0
 40
0.0
 40
0.1666666666666667
 40
0.1666666666666667
 40
0.1666666666666667
 40
0.3333333333333333
 40
0.3333333333333333
 40
0.3333333333333333
 40
0.5
 40
0.5
 40
0.5
 40
0.6666666666666666
 40
0.6666666666666666
 40
0.6666666666666666
 40
0.8333333333333333
 40
0.8333333333333333
 40
0.8333333333333333
 40
1.0
 40
1.0
 40
1.0
 40
1.0
 10
-65.4065
 20
-294.7735
 30
0.0
 10
-65.4065
 20
-294.7735
 30
0.0
 10
75.2287
 20
-215.5078
 30
0.0
 10
75.2287
 20
-215.5078
 30
0.0
 10
75.2287
 20
-215.5078
 30
0.0
 10
336.5324
 20
-189.0318
 30
0.0
 10
336.5324
 20
-189.0318
 30
0.0
 10
336.5324
 20
-189.0318
 30
0.0
 10
194.2748
 20
-321.8719
 30
0.0
 10
194.2748
 20
-321.8719
 30
0.0
 10
194.2748
 20
-321.8719
 30
0.0
 10
-27.2448
 20
-376.8395
 30
0.0
 10
-27.2448
 20
-376.8395
 30
0.0
 10
-27.2448
 20
-376.8395
 30
0.0
 10
-71.7594
 20
-417.1323
 30
0.0
 10
-71.7594
 20
-417.1323
 30
0.0
 10
-69.0175
 20
-381.9149
 30
0.0
 10
-66.7671
 20
-341.3236
 30
0.0
 10
-65.4065
 20
-294.7735
 30
0.0
  0
SPLINE
  5
62
330
1F
100
AcDbEntity
  8
Layer 1
 62
   250
370
    20
100
AcDbSpline
210
0.0
220
0.0
230
1.0
 70
    11
 71
     3
 72
    17
 73
    13
 74
     0
 42
0.0000000001
 43
0.0000000001
 40
0.0
 40
0.0
 40
0.0
 40
0.0
 40
0.25
 40
0.25
 40
0.25
 40
0.5
 40
0.5
 40
0.5
 40
0.75
 40
0.75
 40
0.75
 40
1.0
 40
1.0
 40
1.0
 40
1.0
 10
-313.3394
 20
-273.6025
 30
0.0
 10
-313.3394
 20
-273.6025
 30
0.0
 10
-71.4588
 20
-234.2069
 30
0.0
 10
-71.4588
 20
-234.2069
 30
0.0
 10
-71.4588
 20
-234.2069
 30
0.0
 10
-495.9804
 20
-499.3613
 30
0.0
 10
-495.9804
 20
-499.3613
 30
0.0
 10
-495.9804
 20
-499.3613
 30
0.0
 10
-466.55
 20
-424.8393
 30
0.0
 10
-466.55
 20
-424.8393
 30
0.0
 10
-466.55
 20
-424.8393
 30
0.0
 10
-313.3394
 20
-273.6025
 30
0.0
 10
-313.3394
 20
-273.6025
 30
0.0
  0
SPLINE
  5
63
330
1F
100
AcDbEntity
  8
Layer 1
 62
   250
370
    20
100
AcDbSpline
210
0.0
220
0.0
230
1.0
 70
    11
 71
     3
 72
    32
 73
    28
 74
     0
 42
0.0000000001
 43
0.0000000001
 40
0.0
 40
0.0
 40
0.0
 40
0.0
 40
0.1111111111111111
 40
0.1111111111111111
 40
0.1111111111111111
 40
0.2222222222222222
 40
0.2222222222222222
 40
0.2222222222222222
 40
0.3333333333333333
 40
0.3333333333333333
 40
0.3333333333333333
 40
0.4444444444444444
 40
0.4444444444444444
 40
0.4444444444444444
 40
0.5555555555555556
 40
0.5555555555555556
 40
0.5555555555555556
 40
0.6666666666666666
 40
0.6666666666666666
 40
0.6666666666666666
 40
0.7777777777777777
 40
0.7777777777777777
 40
0.7777777777777777
 40
0.8888888888888888
 40
0.8888888888888888
 40
0.8888888888888888
 40
1.0
 40
1.0
 40
1.0
 40
1.0
 10
-721.2638
 20
-462.7253
 30
0.0
 10
-721.2638
 20
-462.7253
 30
0.0
 10
-642.2721
 20
-430.6929
 30
0.0
 10
-642.2721
 20
-430.6929
 30
0.0
 10
-642.2721
 20
-430.6929
 30
0.0
 10
-498.3693
 20
-303.7386
 30
0.0
 10
-498.3693
 20
-303.7386
 30
0.0
 10
-498.3693
 20
-303.7386
 30
0.0
 10
-352.8692
 20
-280.0409
 30
0.0
 10
-352.8692
 20
-280.0409
 30
0.0
 10
-352.8692
 20
-280.0409
 30
0.0
 10
-490.6215
 20
-424.8393
 30
0.0
 10
-490.6215
 20
-424.8393
 30
0.0
 10
-490.6215
 20
-424.8393
 30
0.0
 10
-507.375
 20
-472.564
 30
0.0
 10
-507.375
 20
-472.564
 30
0.0
 10
-507.375
 20
-472.564
 30
0.0
 10
-507.4716
 20
-470.4976
 30
0.0
 10
-507.4716
 20
-470.4976
 30
0.0
 10
-507.4716
 20
-470.4976
 30
0.0
 10
-740.5126
 20
-572.504
 30
0.0
 10
-740.5126
 20
-572.504
 30
0.0
 10
-740.5126
 20
-572.504
 30
0.0
 10
-738.5582
 20
-509.1316
 30
0.0
 10
-738.5582
 20
-509.1316
 30
0.0
 10
-738.5582
 20
-509.1316
 30
0.0
 10
-721.2638
 20
-462.7253
 30
0.0
 10
-721.2638
 20
-462.7253
 30
0.0
  0
SPLINE
  5
64
330
1F
100
AcDbEntity
  8
Layer 1
 62
   250
370
    20
100
AcDbSpline
210
0.0
220
0.0
230
1.0
 70
    11
 71
     3
 72
    17
 73
    13
 74
     0
 42
0.0000000001
 43
0.0000000001
 40
0.0
 40
0.0
 40
0.0
 40
0.0
 40
0.25
 40
0.25
 40
0.25
 40
0.5
 40
0.5
 40
0.5
 40
0.75
 40
0.75
 40
0.75
 40
1.0
 40
1.0
 40
1.0
 40
1.0
 10
-673.5581
 20
-334.7151
 30
0.0
 10
-673.5581
 20
-334.7151
 30
0.0
 10
-577.9145
 20
-317.5458
 30
0.0
 10
-577.9145
 20
-317.5458
 30
0.0
 10
-577.9145
 20
-317.5458
 30
0.0
 10
-656.715
 20
-402.5955
 30
0.0
 10
-656.715
 20
-402.5955
 30
0.0
 10
-656.715
 20
-402.5955
 30
0.0
 10
-707.087
 20
-424.6845
 30
0.0
 10
-707.087
 20
-424.6845
 30
0.0
 10
-707.087
 20
-424.6845
 30
0.0
 10
-673.5581
 20
-334.7151
 30
0.0
 10
-673.5581
 20
-334.7151
 30
0.0
  0
SPLINE
  5
65
330
1F
100
AcDbEntity
  8
Layer 1
 62
   250
370
    20
100
AcDbSpline
210
0.0
220
0.0
230
1.0
 70
    11
 71
     3
 72
    32
 73
    28
 74
     0
 42
0.0000000001
 43
0.0000000001
 40
0.0
 40
0.0
 40
0.0
 40
0.0
 40
0.1111111111111111
 40
0.1111111111111111
 40
0.1111111111111111
 40
0.2222222222222222
 40
0.2222222222222222
 40
0.2222222222222222
 40
0.3333333333333333
 40
0.3333333333333333
 40
0.3333333333333333
 40
0.4444444444444444
 40
0.4444444444444444
 40
0.4444444444444444
 40
0.5555555555555556
 40
0.5555555555555556
 40
0.5555555555555556
 40
0.6666666666666666
 40
0.6666666666666666
 40
0.6666666666666666
 40
0.7777777777777777
 40
0.7777777777777777
 40
0.7777777777777777
 40
0.8888888888888888
 40
0.8888888888888888
 40
0.8888888888888888
 40
1.0
 40
1.0
 40
1.0
 40
1.0
 10
-806.2439
 20
-269.1574
 30
0.0
 10
-806.2439
 20
-269.1574
 30
0.0
 10
-688.0441
 20
-259.1824
 30
0.0
 10
-688.0441
 20
-259.1824
 30
0.0
 10
-688.0441
 20
-259.1824
 30
0.0
 10
-435.2581
 20
-146.7771
 30
0.0
 10
-435.2581
 20
-146.7771
 30
0.0
 10
-435.2581
 20
-146.7771
 30
0.0
 10
-196.9169
 20
-130.3846
 30
0.0
 10
-196.9169
 20
-130.3846
 30
0.0
 10
-196.9169
 20
-130.3846
 30
0.0
 10
273.6128
 20
7.3456
 30
0.0
 10
273.6128
 20
7.3456
 30
0.0
 10
273.6128
 20
7.3456
 30
0.0
 10
613.7822
 20
-35.197
 30
0.0
 10
613.7822
 20
-35.197
 30
0.0
 10
613.7822
 20
-35.197
 30
0.0
 10
421.8071
 20
-137.41
 30
0.0
 10
421.8071
 20
-137.41
 30
0.0
 10
421.8071
 20
-137.41
 30
0.0
 10
36.6092
 20
-177.2202
 30
0.0
 10
36.6092
 20
-177.2202
 30
0.0
 10
36.6092
 20
-177.2202
 30
0.0
 10
-878.5311
 20
-349.9944
 30
0.0
 10
-878.5311
 20
-349.9944
 30
0.0
 10
-878.5311
 20
-349.9944
 30
0.0
 10
-806.2439
 20
-269.1574
 30
0.0
 10
-806.2439
 20
-269.1574
 30
0.0
  0
SPLINE
  5
66
330
1F
100
AcDbEntity
  8
Layer 1
 62
   250
370
    20
100
AcDbSpline
210
0.0
220
0.0
230
1.0
 70
    11
 71
     3
 72
    20
 73
    16
 74
     0
 42
0.0000000001
 43
0.0000000001
 40
0.0
 40
0.0
 40
0.0
 40
0.0
 40
0.2
 40
0.2
 40
0.2
 40
0.4
 40
0.4
 40
0.4
 40
0.6000000000000001
 40
0.6000000000000001
 40
0.6000000000000001
 40
0.8
 40
0.8
 40
0.8
 40
1.0
 40
1.0
 40
1.0
 40
1.0
 10
-331.9484
 20
79.1658
 30
0.0
 10
-331.9484
 20
79.1658
 30
0.0
 10
-120.0321
 20
54.04
 30
0.0
 10
-120.0321
 20
54.04
 30
0.0
 10
-120.0321
 20
54.04
 30
0.0
 10
-290.8088
 20
-8.6121
 30
0.0
 10
-290.8088
 20
-8.6121
 30
0.0
 10
-290.8088
 20
-8.6121
 30
0.0
 10
-683.5658
 20
-42.263
 30
0.0
 10
-683.5658
 20
-42.263
 30
0.0
 10
-683.5658
 20
-42.263
 30
0.0
 10
-459.3329
 20
42.907
 30
0.0
 10
-459.3329
 20
42.907
 30
0.0
 10
-412.8748
 20
63.1235
 30
0.0
 10
-366.4255
 20
73.6741
 30
0.0
 10
-331.9484
 20
79.1658
 30
0.0
  0
SPLINE
  5
67
330
1F
100
AcDbEntity
  8
Layer 1
 62
   250
370
    20
100
AcDbSpline
210
0.0
220
0.0
230
1.0
 70
    11
 71
     3
 72
    17
 73
    13
 74
     0
 42
0.0000000001
 43
0.0000000001
 40
0.0
 40
0.0
 40
0.0
 40
0.0
 40
0.25
 40
0.25
 40
0.25
 40
0.5
 40
0.5
 40
0.5
 40
0.75
 40
0.75
 40
0.75
 40
1.0
 40
1.0
 40
1.0
 40
1.0
 10
-1178.5853
 20
11.5384
 30
0.0
 10
-1178.5853
 20
11.5384
 30
0.0
 10
-584.5005
 20
22.3784
 30
0.0
 10
-584.5005
 20
22.3784
 30
0.0
 10
-584.5005
 20
22.3784
 30
0.0
 10
-764.3498
 20
-48.9495
 30
0.0
 10
-764.3498
 20
-48.9495
 30
0.0
 10
-764.3498
 20
-48.9495
 30
0.0
 10
-1027.0557
 20
-64.5149
 30
0.0
 10
-1027.0557
 20
-64.5149
 30
0.0
 10
-1088.3274
 20
-29.3004
 30
0.0
 10
-1139.3908
 20
-4.9695
 30
0.0
 10
-1178.5853
 20
11.5384
 30
0.0
  0
SPLINE
  5
68
330
1F
100
AcDbEntity
  8
Layer 1
 62
   250
370
    20
100
AcDbSpline
210
0.0
220
0.0
230
1.0
 70
    11
 71
     3
 72
    20
 73
    16
 74
     0
 42
0.0000000001
 43
0.0000000001
 40
0.0
 40
0.0
 40
0.0
 40
0.0
 40
0.2
 40
0.2
 40
0.2
 40
0.4
 40
0.4
 40
0.4
 40
0.6000000000000001
 40
0.6000000000000001
 40
0.6000000000000001
 40
0.8
 40
0.8
 40
0.8
 40
1.0
 40
1.0
 40
1.0
 40
1.0
 10
812.8904
 20
128.256
 30
0.0
 10
812.8904
 20
128.256
 30
0.0
 10
858.5694
 20
67.5213
 30
0.0
 10
858.5694
 20
67.5213
 30
0.0
 10
858.5694
 20
67.5213
 30
0.0
 10
778.115
 20
78.0337
 30
0.0
 10
778.115
 20
78.0337
 30
0.0
 10
778.115
 20
78.0337
 30
0.0
 10
703.3403
 20
81.9944
 30
0.0
 10
703.3403
 20
81.9944
 30
0.0
 10
703.3403
 20
81.9944
 30
0.0
 10
641.6326
 20
151.4686
 30
0.0
 10
641.6326
 20
151.4686
 30
0.0
 10
641.6326
 20
151.4686
 30
0.0
 10
812.8904
 20
128.256
 30
0.0
 10
812.8904
 20
128.256
 30
0.0
  0
SPLINE
  5
69
330
1F
100
AcDbEntity
  8
Layer 1
 62
   250
370
    20
100
AcDbSpline
210
0.0
220
0.0
230
1.0
 70
    11
 71
     3
 72
    23
 73
    19
 74
     0
 42
0.0000000001
 43
0.0000000001
 40
0.0
 40
0.0
 40
0.0
 40
0.0
 40
0.1666666666666667
 40
0.1666666666666667
 40
0.1666666666666667
 40
0.3333333333333333
 40
0.3333333333333333
 40
0.3333333333333333
 40
0.5
 40
0.5
 40
0.5
 40
0.6666666666666666
 40
0.6666666666666666
 40
0.6666666666666666
 40
0.8333333333333333
 40
0.8333333333333333
 40
0.8333333333333333
 40
1.0
 40
1.0
 40
1.0
 40
1.0
 10
176.1105
 20
475.2741
 30
0.0
 10
176.1105
 20
475.2741
 30
0.0
 10
258.098
 20
452.7183
 30
0.0
 10
258.098
 20
452.7183
 30
0.0
 10
258.098
 20
452.7183
 30
0.0
 10
414.5846
 20
356.7054
 30
0.0
 10
414.5846
 20
356.7054
 30
0.0
 10
414.5846
 20
356.7054
 30
0.0
 10
482.4884
 20
245.4623
 30
0.0
 10
482.4884
 20
245.4623
 30
0.0
 10
482.4884
 20
245.4623
 30
0.0
 10
270.1355
 20
260.6925
 30
0.0
 10
270.1355
 20
260.6925
 30
0.0
 10
270.1355
 20
260.6925
 30
0.0
 10
155.8817
 20
306.7119
 30
0.0
 10
155.8817
 20
306.7119
 30
0.0
 10
155.8817
 20
306.7119
 30
0.0
 10
176.1105
 20
475.2741
 30
0.0
 10
176.1105
 20
475.2741
 30
0.0
  0
SPLINE
  5
6A
330
1F
100
AcDbEntity
  8
Layer 1
 62
   250
370
    20
100
AcDbSpline
210
0.0
220
0.0
230
1.0
 70
    11
 71
     3
 72
    14
 73
    10
 74
     0
 42
0.0000000001
 43
0.0000000001
 40
0.0
 40
0.0
 40
0.0
 40
0.0
 40
0.3333333333333333
 40
0.3333333333333333
 40
0.3333333333333333
 40
0.6666666666666666
 40
0.6666666666666666
 40
0.6666666666666666
 40
1.0
 40
1.0
 40
1.0
 40
1.0
 10
220.6598
 20
480.9339
 30
0.0
 10
220.6598
 20
480.9339
 30
0.0
 10
177.9496
 20
490.6002
 30
0.0
 10
177.9496
 20
490.6002
 30
0.0
 10
177.9496
 20
490.6002
 30
0.0
 10
179.9572
 20
507.3285
 30
0.0
 10
179.9572
 20
507.3285
 30
0.0
 10
179.9572
 20
507.3285
 30
0.0
 10
220.6598
 20
480.9339
 30
0.0
 10
220.6598
 20
480.9339
 30
0.0
  0
SPLINE
  5
6B
330
1F
100
AcDbEntity
  8
Layer 1
 62
   250
370
    20
100
AcDbSpline
210
0.0
220
0.0
230
1.0
 70
    11
 71
     3
 72
    20
 73
    16
 74
     0
 42
0.0000000001
 43
0.0000000001
 40
0.0
 40
0.0
 40
0.0
 40
0.0
 40
0.2
 40
0.2
 40
0.2
 40
0.4
 40
0.4
 40
0.4
 40
0.6000000000000001
 40
0.6000000000000001
 40
0.6000000000000001
 40
0.8
 40
0.8
 40
0.8
 40
1.0
 40
1.0
 40
1.0
 40
1.0
 10
-165.3341
 20
533.1216
 30
0.0
 10
-165.3341
 20
533.1216
 30
0.0
 10
-33.2627
 20
445.0108
 30
0.0
 10
-33.2627
 20
445.0108
 30
0.0
 10
-33.2627
 20
445.0108
 30
0.0
 10
-4.914
 20
371.4778
 30
0.0
 10
-4.914
 20
371.4778
 30
0.0
 10
-4.914
 20
371.4778
 30
0.0
 10
-175.3662
 20
440.1327
 30
0.0
 10
-175.3662
 20
440.1327
 30
0.0
 10
-175.3662
 20
440.1327
 30
0.0
 10
-160.8417
 20
504.7179
 30
0.0
 10
-160.8417
 20
504.7179
 30
0.0
 10
-160.8417
 20
504.7179
 30
0.0
 10
-165.3341
 20
533.1216
 30
0.0
 10
-165.3341
 20
533.1216
 30
0.0
  0
SPLINE
  5
6C
330
1F
100
AcDbEntity
  8
Layer 1
 62
   250
370
    20
100
AcDbSpline
210
0.0
220
0.0
230
1.0
 70
    11
 71
     3
 72
    29
 73
    25
 74
     0
 42
0.0000000001
 43
0.0000000001
 40
0.0
 40
0.0
 40
0.0
 40
0.0
 40
0.125
 40
0.125
 40
0.125
 40
0.25
 40
0.25
 40
0.25
 40
0.375
 40
0.375
 40
0.375
 40
0.5
 40
0.5
 40
0.5
 40
0.625
 40
0.625
 40
0.625
 40
0.75
 40
0.75
 40
0.75
 40
0.875
 40
0.875
 40
0.875
 40
1.0
 40
1.0
 40
1.0
 40
1.0
 10
-166.305
 20
238.4818
 30
0.0
 10
-166.305
 20
238.4818
 30
0.0
 10
104.0189
 20
227.9076
 30
0.0
 10
104.0189
 20
227.9076
 30
0.0
 10
104.0189
 20
227.9076
 30
0.0
 10
211.0693
 20
227.4578
 30
0.0
 10
211.0693
 20
227.4578
 30
0.0
 10
211.0693
 20
227.4578
 30
0.0
 10
267.728
 20
202.148
 30
0.0
 10
267.728
 20
202.148
 30
0.0
 10
267.728
 20
202.148
 30
0.0
 10
530.6836
 20
166.5066
 30
0.0
 10
530.6836
 20
166.5066
 30
0.0
 10
530.6836
 20
166.5066
 30
0.0
 10
578.2255
 20
88.6216
 30
0.0
 10
578.2255
 20
88.6216
 30
0.0
 10
578.2255
 20
88.6216
 30
0.0
 10
291.8028
 20
103.7933
 30
0.0
 10
291.8028
 20
103.7933
 30
0.0
 10
291.8028
 20
103.7933
 30
0.0
 10
-50.7881
 20
124.1581
 30
0.0
 10
-50.7881
 20
124.1581
 30
0.0
 10
-50.7881
 20
124.1581
 30
0.0
 10
-166.305
 20
238.4818
 30
0.0
 10
-166.305
 20
238.4818
 30
0.0
  0
SPLINE
  5
6D
330
1F
100
AcDbEntity
  8
Layer 1
 62
   250
370
    20
100
AcDbSpline
210
0.0
220
0.0
230
1.0
 70
    11
 71
     3
 72
    29
 73
    25
 74
     0
 42
0.0000000001
 43
0.0000000001
 40
0.0
 40
0.0
 40
0.0
 40
0.0
 40
0.125
 40
0.125
 40
0.125
 40
0.25
 40
0.25
 40
0.25
 40
0.375
 40
0.375
 40
0.375
 40
0.5
 40
0.5
 40
0.5
 40
0.625
 40
0.625
 40
0.625
 40
0.75
 40
0.75
 40
0.75
 40
0.875
 40
0.875
 40
0.875
 40
1.0
 40
1.0
 40
1.0
 40
1.0
 10
-528.1864
 20
463.9376
 30
0.0
 10
-528.1864
 20
463.9376
 30
0.0
 10
-487.0108
 20
434.4742
 30
0.0
 10
-487.0108
 20
434.4742
 30
0.0
 10
-487.0108
 20
434.4742
 30
0.0
 10
-272.1361
 20
270.991
 30
0.0
 10
-272.1361
 20
270.991
 30
0.0
 10
-272.1361
 20
270.991
 30
0.0
 10
-375.0709
 20
270.0596
 30
0.0
 10
-375.0709
 20
270.0596
 30
0.0
 10
-375.0709
 20
270.0596
 30
0.0
 10
-389.5208
 20
270.3942
 30
0.0
 10
-389.5208
 20
270.3942
 30
0.0
 10
-389.5208
 20
270.3942
 30
0.0
 10
-582.8472
 20
374.385
 30
0.0
 10
-582.8472
 20
374.385
 30
0.0
 10
-582.8472
 20
374.385
 30
0.0
 10
-621.8113
 20
452.0351
 30
0.0
 10
-621.8113
 20
452.0351
 30
0.0
 10
-621.8113
 20
452.0351
 30
0.0
 10
-729.0496
 20
500.6389
 30
0.0
 10
-729.0496
 20
500.6389
 30
0.0
 10
-729.0496
 20
500.6389
 30
0.0
 10
-528.1864
 20
463.9376
 30
0.0
 10
-528.1864
 20
463.9376
 30
0.0
  0
SPLINE
  5
6E
330
1F
100
AcDbEntity
  8
Layer 1
 62
   250
370
    20
100
AcDbSpline
210
0.0
220
0.0
230
1.0
 70
    11
 71
     3
 72
    29
 73
    25
 74
     0
 42
0.0000000001
 43
0.0000000001
 40
0.0
 40
0.0
 40
0.0
 40
0.0
 40
0.125
 40
0.125
 40
0.125
 40
0.25
 40
0.25
 40
0.25
 40
0.375
 40
0.375
 40
0.375
 40
0.5
 40
0.5
 40
0.5
 40
0.625
 40
0.625
 40
0.625
 40
0.75
 40
0.75
 40
0.75
 40
0.875
 40
0.875
 40
0.875
 40
1.0
 40
1.0
 40
1.0
 40
1.0
 10
-902.6788
 20
287.4001
 30
0.0
 10
-902.6788
 20
287.4001
 30
0.0
 10
-793.9735
 20
263.0343
 30
0.0
 10
-793.9735
 20
263.0343
 30
0.0
 10
-793.9735
 20
263.0343
 30
0.0
 10
-236.1581
 20
241.2142
 30
0.0
 10
-236.1581
 20
241.2142
 30
0.0
 10
-236.1581
 20
241.2142
 30
0.0
 10
-131.413
 20
128.9506
 30
0.0
 10
-131.413
 20
128.9506
 30
0.0
 10
-131.413
 20
128.9506
 30
0.0
 10
-141.5447
 20
129.5529
 30
0.0
 10
-141.5447
 20
129.5529
 30
0.0
 10
-141.5447
 20
129.5529
 30
0.0
 10
-677.1758
 20
168.7192
 30
0.0
 10
-677.1758
 20
168.7192
 30
0.0
 10
-677.1758
 20
168.7192
 30
0.0
 10
-1166.054
 20
266.5103
 30
0.0
 10
-1166.054
 20
266.5103
 30
0.0
 10
-1166.054
 20
266.5103
 30
0.0
 10
-1117.6846
 20
277.5968
 30
0.0
 10
-1117.6846
 20
277.5968
 30
0.0
 10
-1117.6846
 20
277.5968
 30
0.0
 10
-902.6788
 20
287.4001
 30
0.0
 10
-902.6788
 20
287.4001
 30
0.0
  0
SPLINE
  5
6F
330
1F
100
AcDbEntity
  8
Layer 1
 62
   250
370
    20
100
AcDbSpline
210
0.0
220
0.0
230
1.0
 70
    11
 71
     3
 72
    14
 73
    10
 74
     0
 42
0.0000000001
 43
0.0000000001
 40
0.0
 40
0.0
 40
0.0
 40
0.0
 40
0.3333333333333333
 40
0.3333333333333333
 40
0.3333333333333333
 40
0.6666666666666666
 40
0.6666666666666666
 40
0.6666666666666666
 40
1.0
 40
1.0
 40
1.0
 40
1.0
 10
-895.8549
 20
-590.0117
 30
0.0
 10
-895.8549
 20
-590.0117
 30
0.0
 10
-1035.1518
 20
-590.0117
 30
0.0
 10
-1035.1518
 20
-590.0117
 30
0.0
 10
-1035.1518
 20
-590.0117
 30
0.0
 10
-867.0135
 20
-521.8292
 30
0.0
 10
-867.0135
 20
-521.8292
 30
0.0
 10
-867.0135
 20
-521.8292
 30
0.0
 10
-895.8549
 20
-590.0117
 30
0.0
 10
-895.8549
 20
-590.0117
 30
0.0
  0
SPLINE
  5
70
330
1F
100
AcDbEntity
  8
Layer 1
 62
   250
370
    20
100
AcDbSpline
210
0.0
220
0.0
230
1.0
 70
    11
 71
     3
 72
    23
 73
    19
 74
     0
 42
0.0000000001
 43
0.0000000001
 40
0.0
 40
0.0
 40
0.0
 40
0.0
 40
0.1666666666666667
 40
0.1666666666666667
 40
0.1666666666666667
 40
0.3333333333333333
 40
0.3333333333333333
 40
0.3333333333333333
 40
0.5
 40
0.5
 40
0.5
 40
0.6666666666666666
 40
0.6666666666666666
 40
0.6666666666666666
 40
0.8333333333333333
 40
0.8333333333333333
 40
0.8333333333333333
 40
1.0
 40
1.0
 40
1.0
 40
1.0
 10
-780.5101
 20
-590.0117
 30
0.0
 10
-780.5101
 20
-590.0117
 30
0.0
 10
-872.7322
 20
-590.0117
 30
0.0
 10
-872.7322
 20
-590.0117
 30
0.0
 10
-872.7322
 20
-590.0117
 30
0.0
 10
-835.434
 20
-509.023
 30
0.0
 10
-835.434
 20
-509.023
 30
0.0
 10
-835.434
 20
-509.023
 30
0.0
 10
-747.0886
 20
-473.1975
 30
0.0
 10
-747.0886
 20
-473.1975
 30
0.0
 10
-747.0886
 20
-473.1975
 30
0.0
 10
-756.6118
 20
-505.6194
 30
0.0
 10
-756.6118
 20
-505.6194
 30
0.0
 10
-756.6118
 20
-505.6194
 30
0.0
 10
-755.8625
 20
-579.2231
 30
0.0
 10
-755.8625
 20
-579.2231
 30
0.0
 10
-755.8625
 20
-579.2231
 30
0.0
 10
-780.5101
 20
-590.0117
 30
0.0
 10
-780.5101
 20
-590.0117
 30
0.0
  0
SPLINE
  5
71
330
1F
100
AcDbEntity
  8
Layer 1
 62
   250
370
    20
100
AcDbSpline
210
0.0
220
0.0
230
1.0
 70
    11
 71
     3
 72
    20
 73
    16
 74
     0
 42
0.0000000001
 43
0.0000000001
 40
0.0
 40
0.0
 40
0.0
 40
0.0
 40
0.2
 40
0.2
 40
0.2
 40
0.4
 40
0.4
 40
0.4
 40
0.6000000000000001
 40
0.6000000000000001
 40
0.6000000000000001
 40
0.8
 40
0.8
 40
0.8
 40
1.0
 40
1.0
 40
1.0
 40
1.0
 10
-641.1154
 20
-590.0117
 30
0.0
 10
-641.1154
 20
-590.0117
 30
0.0
 10
-741.0526
 20
-590.0117
 30
0.0
 10
-741.0526
 20
-590.0117
 30
0.0
 10
-741.0526
 20
-590.0117
 30
0.0
 10
-740.9945
 20
-588.1274
 30
0.0
 10
-740.9945
 20
-588.1274
 30
0.0
 10
-740.9945
 20
-588.1274
 30
0.0
 10
-517.1921
 20
-500.5294
 30
0.0
 10
-517.1921
 20
-500.5294
 30
0.0
 10
-517.1921
 20
-500.5294
 30
0.0
 10
-522.6239
 20
-516.0025
 30
0.0
 10
-522.6239
 20
-516.0025
 30
0.0
 10
-522.6239
 20
-516.0025
 30
0.0
 10
-641.1154
 20
-590.0117
 30
0.0
 10
-641.1154
 20
-590.0117
 30
0.0
  0
SPLINE
  5
72
330
1F
100
AcDbEntity
  8
Layer 1
 62
   250
370
    20
100
AcDbSpline
210
0.0
220
0.0
230
1.0
 70
    11
 71
     3
 72
    14
 73
    10
 74
     0
 42
0.0000000001
 43
0.0000000001
 40
0.0
 40
0.0
 40
0.0
 40
0.0
 40
0.3333333333333333
 40
0.3333333333333333
 40
0.3333333333333333
 40
0.6666666666666666
 40
0.6666666666666666
 40
0.6666666666666666
 40
1.0
 40
1.0
 40
1.0
 40
1.0
 10
-548.6045
 20
-590.0117
 30
0.0
 10
-548.6045
 20
-590.0117
 30
0.0
 10
-589.2271
 20
-590.0117
 30
0.0
 10
-589.2271
 20
-590.0117
 30
0.0
 10
-589.2271
 20
-590.0117
 30
0.0
 10
-538.5843
 20
-561.468
 30
0.0
 10
-538.5843
 20
-561.468
 30
0.0
 10
-538.5843
 20
-561.468
 30
0.0
 10
-548.6045
 20
-590.0117
 30
0.0
 10
-548.6045
 20
-590.0117
 30
0.0
  0
SPLINE
  5
73
330
1F
100
AcDbEntity
  8
Layer 1
 62
   250
370
    20
100
AcDbSpline
210
0.0
220
0.0
230
1.0
 70
    11
 71
     3
 72
    17
 73
    13
 74
     0
 42
0.0000000001
 43
0.0000000001
 40
0.0
 40
0.0
 40
0.0
 40
0.0
 40
0.25
 40
0.25
 40
0.25
 40
0.5
 40
0.5
 40
0.5
 40
0.75
 40
0.75
 40
0.75
 40
1.0
 40
1.0
 40
1.0
 40
1.0
 10
-409.9762
 20
-590.0117
 30
0.0
 10
-409.9762
 20
-590.0117
 30
0.0
 10
-531.7805
 20
-590.0117
 30
0.0
 10
-531.7805
 20
-590.0117
 30
0.0
 10
-531.7805
 20
-590.0117
 30
0.0
 10
-515.3326
 20
-548.3627
 30
0.0
 10
-515.3326
 20
-548.3627
 30
0.0
 10
-515.3326
 20
-548.3627
 30
0.0
 10
-406.9365
 20
-487.268
 30
0.0
 10
-406.9365
 20
-487.268
 30
0.0
 10
-406.9365
 20
-487.268
 30
0.0
 10
-409.9762
 20
-590.0117
 30
0.0
 10
-409.9762
 20
-590.0117
 30
0.0
  0
SPLINE
  5
74
330
1F
100
AcDbEntity
  8
Layer 1
 62
   250
370
    20
100
AcDbSpline
210
0.0
220
0.0
230
1.0
 70
    11
 71
     3
 72
    17
 73
    13
 74
     0
 42
0.0000000001
 43
0.0000000001
 40
0.0
 40
0.0
 40
0.0
 40
0.0
 40
0.25
 40
0.25
 40
0.25
 40
0.5
 40
0.5
 40
0.5
 40
0.75
 40
0.75
 40
0.75
 40
1.0
 40
1.0
 40
1.0
 40
1.0
 10
-341.573
 20
-590.0117
 30
0.0
 10
-341.573
 20
-590.0117
 30
0.0
 10
-394.5842
 20
-590.0117
 30
0.0
 10
-394.5842
 20
-590.0117
 30
0.0
 10
-394.5842
 20
-590.0117
 30
0.0
 10
-385.1231
 20
-474.9734
 30
0.0
 10
-385.1231
 20
-474.9734
 30
0.0
 10
-385.1231
 20
-474.9734
 30
0.0
 10
-221.9479
 20
-383.0037
 30
0.0
 10
-221.9479
 20
-383.0037
 30
0.0
 10
-248.5987
 20
-445.4162
 30
0.0
 10
-312.1476
 20
-545.0873
 30
0.0
 10
-341.573
 20
-590.0117
 30
0.0
  0
SPLINE
  5
75
330
1F
100
AcDbEntity
  8
Layer 1
 62
   250
370
    20
100
AcDbSpline
210
0.0
220
0.0
230
1.0
 70
    11
 71
     3
 72
    20
 73
    16
 74
     0
 42
0.0000000001
 43
0.0000000001
 40
0.0
 40
0.0
 40
0.0
 40
0.0
 40
0.2
 40
0.2
 40
0.2
 40
0.4
 40
0.4
 40
0.4
 40
0.6000000000000001
 40
0.6000000000000001
 40
0.6000000000000001
 40
0.8
 40
0.8
 40
0.8
 40
1.0
 40
1.0
 40
1.0
 40
1.0
 10
-262.7529
 20
-590.0117
 30
0.0
 10
-262.7529
 20
-590.0117
 30
0.0
 10
-323.6564
 20
-590.0117
 30
0.0
 10
-323.6564
 20
-590.0117
 30
0.0
 10
-266.4074
 20
-499.4787
 30
0.0
 10
-205.617
 20
-395.3656
 30
0.0
 10
-187.0285
 20
-363.3225
 30
0.0
 10
-187.0285
 20
-363.3225
 30
0.0
 10
-101.8441
 20
-315.3103
 30
0.0
 10
-101.8441
 20
-315.3103
 30
0.0
 10
-101.826
 20
-337.4595
 30
0.0
 10
-101.922
 20
-389.9959
 30
0.0
 10
-103.0119
 20
-445.4207
 30
0.0
 10
-103.0119
 20
-445.4207
 30
0.0
 10
-262.7529
 20
-590.0117
 30
0.0
 10
-262.7529
 20
-590.0117
 30
0.0
  0
SPLINE
  5
76
330
1F
100
AcDbEntity
  8
Layer 1
 62
   250
370
    20
100
AcDbSpline
210
0.0
220
0.0
230
1.0
 70
    11
 71
     3
 72
    14
 73
    10
 74
     0
 42
0.0000000001
 43
0.0000000001
 40
0.0
 40
0.0
 40
0.0
 40
0.0
 40
0.3333333333333333
 40
0.3333333333333333
 40
0.3333333333333333
 40
0.6666666666666666
 40
0.6666666666666666
 40
0.6666666666666666
 40
1.0
 40
1.0
 40
1.0
 40
1.0
 10
-109.8344
 20
-590.0117
 30
0.0
 10
-109.8344
 20
-590.0117
 30
0.0
 10
-235.2656
 20
-590.0117
 30
0.0
 10
-235.2656
 20
-590.0117
 30
0.0
 10
-235.2656
 20
-590.0117
 30
0.0
 10
-103.7949
 20
-478.8905
 30
0.0
 10
-103.7949
 20
-478.8905
 30
0.0
 10
-104.9727
 20
-521.7459
 30
0.0
 10
-106.8502
 20
-563.0183
 30
0.0
 10
-109.8344
 20
-590.0117
 30
0.0
  0
SPLINE
  5
77
330
1F
100
AcDbEntity
  8
Layer 1
 62
   250
370
    20
100
AcDbSpline
210
0.0
220
0.0
230
1.0
 70
    11
 71
     3
 72
    23
 73
    19
 74
     0
 42
0.0000000001
 43
0.0000000001
 40
0.0
 40
0.0
 40
0.0
 40
0.0
 40
0.1666666666666667
 40
0.1666666666666667
 40
0.1666666666666667
 40
0.3333333333333333
 40
0.3333333333333333
 40
0.3333333333333333
 40
0.5
 40
0.5
 40
0.5
 40
0.6666666666666666
 40
0.6666666666666666
 40
0.6666666666666666
 40
0.8333333333333333
 40
0.8333333333333333
 40
0.8333333333333333
 40
1.0
 40
1.0
 40
1.0
 40
1.0
 10
-59.0128
 20
-590.0117
 30
0.0
 10
-59.0128
 20
-590.0117
 30
0.0
 10
-95.6363
 20
-590.0117
 30
0.0
 10
-95.6363
 20
-590.0117
 30
0.0
 10
-89.8147
 20
-565.2417
 30
0.0
 10
-81.6274
 20
-521.9554
 30
0.0
 10
-75.0381
 20
-454.5849
 30
0.0
 10
-75.0381
 20
-454.5849
 30
0.0
 10
-7.9875
 20
-397.9126
 30
0.0
 10
-7.9875
 20
-397.9126
 30
0.0
 10
-7.9875
 20
-397.9126
 30
0.0
 10
158.4895
 20
-360.3023
 30
0.0
 10
158.4895
 20
-360.3023
 30
0.0
 10
158.4895
 20
-360.3023
 30
0.0
 10
55.8692
 20
-481.6514
 30
0.0
 10
55.8692
 20
-481.6514
 30
0.0
 10
55.8692
 20
-481.6514
 30
0.0
 10
-59.0128
 20
-590.0117
 30
0.0
 10
-59.0128
 20
-590.0117
 30
0.0
  0
SPLINE
  5
78
330
1F
100
AcDbEntity
  8
Layer 1
 62
   250
370
    20
100
AcDbSpline
210
0.0
220
0.0
230
1.0
 70
    11
 71
     3
 72
    14
 73
    10
 74
     0
 42
0.0000000001
 43
0.0000000001
 40
0.0
 40
0.0
 40
0.0
 40
0.0
 40
0.3333333333333333
 40
0.3333333333333333
 40
0.3333333333333333
 40
0.6666666666666666
 40
0.6666666666666666
 40
0.6666666666666666
 40
1.0
 40
1.0
 40
1.0
 40
1.0
 10
76.9297
 20
-590.0117
 30
0.0
 10
76.9297
 20
-590.0117
 30
0.0
 10
-44.485
 20
-590.0117
 30
0.0
 10
-44.485
 20
-590.0117
 30
0.0
 10
-44.485
 20
-590.0117
 30
0.0
 10
74.7577
 20
-487.9421
 30
0.0
 10
74.7577
 20
-487.9421
 30
0.0
 10
72.6216
 20
-503.9512
 30
0.0
 10
69.72
 20
-539.9891
 30
0.0
 10
76.9297
 20
-590.0117
 30
0.0
  0
SPLINE
  5
79
330
1F
100
AcDbEntity
  8
Layer 1
 62
   250
370
    20
100
AcDbSpline
210
0.0
220
0.0
230
1.0
 70
    11
 71
     3
 72
    29
 73
    25
 74
     0
 42
0.0000000001
 43
0.0000000001
 40
0.0
 40
0.0
 40
0.0
 40
0.0
 40
0.125
 40
0.125
 40
0.125
 40
0.25
 40
0.25
 40
0.25
 40
0.375
 40
0.375
 40
0.375
 40
0.5
 40
0.5
 40
0.5
 40
0.625
 40
0.625
 40
0.625
 40
0.75
 40
0.75
 40
0.75
 40
0.875
 40
0.875
 40
0.875
 40
1.0
 40
1.0
 40
1.0
 40
1.0
 10
173.7795
 20
-590.0117
 30
0.0
 10
173.7795
 20
-590.0117
 30
0.0
 10
94.1767
 20
-590.0117
 30
0.0
 10
94.1767
 20
-590.0117
 30
0.0
 10
89.8759
 20
-563.2732
 30
0.0
 10
86.5978
 20
-519.5284
 30
0.0
 10
97.199
 20
-468.2424
 30
0.0
 10
97.199
 20
-468.2424
 30
0.0
 10
259.2063
 20
-320.6446
 30
0.0
 10
259.2063
 20
-320.6446
 30
0.0
 10
259.2063
 20
-320.6446
 30
0.0
 10
349.4745
 20
-242.2059
 30
0.0
 10
349.4745
 20
-242.2059
 30
0.0
 10
349.4745
 20
-242.2059
 30
0.0
 10
457.1722
 20
-191.8809
 30
0.0
 10
457.1722
 20
-191.8809
 30
0.0
 10
457.1722
 20
-191.8809
 30
0.0
 10
406.1455
 20
-375.7111
 30
0.0
 10
406.1455
 20
-375.7111
 30
0.0
 10
406.1455
 20
-375.7111
 30
0.0
 10
301.4328
 20
-427.7905
 30
0.0
 10
301.4328
 20
-427.7905
 30
0.0
 10
301.4328
 20
-427.7905
 30
0.0
 10
173.7795
 20
-590.0117
 30
0.0
 10
173.7795
 20
-590.0117
 30
0.0
  0
SPLINE
  5
7A
330
1F
100
AcDbEntity
  8
Layer 1
 62
   250
370
    20
100
AcDbSpline
210
0.0
220
0.0
230
1.0
 70
    11
 71
     3
 72
    17
 73
    13
 74
     0
 42
0.0000000001
 43
0.0000000001
 40
0.0
 40
0.0
 40
0.0
 40
0.0
 40
0.25
 40
0.25
 40
0.25
 40
0.5
 40
0.5
 40
0.5
 40
0.75
 40
0.75
 40
0.75
 40
1.0
 40
1.0
 40
1.0
 40
1.0
 10
346.6608
 20
-590.0117
 30
0.0
 10
346.6608
 20
-590.0117
 30
0.0
 10
221.4766
 20
-590.0117
 30
0.0
 10
221.4766
 20
-590.0117
 30
0.0
 10
221.4766
 20
-590.0117
 30
0.0
 10
337.545
 20
-469.9425
 30
0.0
 10
337.545
 20
-469.9425
 30
0.0
 10
337.545
 20
-469.9425
 30
0.0
 10
385.22
 20
-451.0974
 30
0.0
 10
385.22
 20
-451.0974
 30
0.0
 10
385.22
 20
-451.0974
 30
0.0
 10
346.6608
 20
-590.0117
 30
0.0
 10
346.6608
 20
-590.0117
 30
0.0
  0
SPLINE
  5
7B
330
1F
100
AcDbEntity
  8
Layer 1
 62
   250
370
    20
100
AcDbSpline
210
0.0
220
0.0
230
1.0
 70
    11
 71
     3
 72
    20
 73
    16
 74
     0
 42
0.0000000001
 43
0.0000000001
 40
0.0
 40
0.0
 40
0.0
 40
0.0
 40
0.2
 40
0.2
 40
0.2
 40
0.4
 40
0.4
 40
0.4
 40
0.6000000000000001
 40
0.6000000000000001
 40
0.6000000000000001
 40
0.8
 40
0.8
 40
0.8
 40
1.0
 40
1.0
 40
1.0
 40
1.0
 10
471.7081
 20
-590.0117
 30
0.0
 10
471.7081
 20
-590.0117
 30
0.0
 10
366.9003
 20
-590.0117
 30
0.0
 10
366.9003
 20
-590.0117
 30
0.0
 10
366.9003
 20
-590.0117
 30
0.0
 10
418.618
 20
-437.8959
 30
0.0
 10
418.618
 20
-437.8959
 30
0.0
 10
418.618
 20
-437.8959
 30
0.0
 10
640.1187
 20
-350.3404
 30
0.0
 10
640.1187
 20
-350.3404
 30
0.0
 10
640.1187
 20
-350.3404
 30
0.0
 10
580.7011
 20
-483.9932
 30
0.0
 10
580.7011
 20
-483.9932
 30
0.0
 10
580.7011
 20
-483.9932
 30
0.0
 10
471.7081
 20
-590.0117
 30
0.0
 10
471.7081
 20
-590.0117
 30
0.0
  0
SPLINE
  5
7C
330
1F
100
AcDbEntity
  8
Layer 1
 62
   250
370
    20
100
AcDbSpline
210
0.0
220
0.0
230
1.0
 70
    11
 71
     3
 72
    29
 73
    25
 74
     0
 42
0.0000000001
 43
0.0000000001
 40
0.0
 40
0.0
 40
0.0
 40
0.0
 40
0.125
 40
0.125
 40
0.125
 40
0.25
 40
0.25
 40
0.25
 40
0.375
 40
0.375
 40
0.375
 40
0.5
 40
0.5
 40
0.5
 40
0.625
 40
0.625
 40
0.625
 40
0.75
 40
0.75
 40
0.75
 40
0.875
 40
0.875
 40
0.875
 40
1.0
 40
1.0
 40
1.0
 40
1.0
 10
581.6914
 20
-590.0117
 30
0.0
 10
581.6914
 20
-590.0117
 30
0.0
 10
496.4392
 20
-590.0117
 30
0.0
 10
496.4392
 20
-590.0117
 30
0.0
 10
496.4392
 20
-590.0117
 30
0.0
 10
622.6863
 20
-471.6684
 30
0.0
 10
622.6863
 20
-471.6684
 30
0.0
 10
622.6863
 20
-471.6684
 30
0.0
 10
672.0329
 20
-370.9858
 30
0.0
 10
672.0329
 20
-370.9858
 30
0.0
 10
672.0329
 20
-370.9858
 30
0.0
 10
717.9223
 20
-319.5861
 30
0.0
 10
717.9223
 20
-319.5861
 30
0.0
 10
717.9223
 20
-319.5861
 30
0.0
 10
904.0279
 20
-246.0215
 30
0.0
 10
904.0279
 20
-246.0215
 30
0.0
 10
904.0279
 20
-246.0215
 30
0.0
 10
813.665
 20
-466.9507
 30
0.0
 10
813.665
 20
-466.9507
 30
0.0
 10
813.665
 20
-466.9507
 30
0.0
 10
715.3616
 20
-504.4487
 30
0.0
 10
715.3616
 20
-504.4487
 30
0.0
 10
715.3616
 20
-504.4487
 30
0.0
 10
581.6914
 20
-590.0117
 30
0.0
 10
581.6914
 20
-590.0117
 30
0.0
  0
SPLINE
  5
7D
330
1F
100
AcDbEntity
  8
Layer 1
 62
   250
370
    20
100
AcDbSpline
210
0.0
220
0.0
230
1.0
 70
    11
 71
     3
 72
    17
 73
    13
 74
     0
 42
0.0000000001
 43
0.0000000001
 40
0.0
 40
0.0
 40
0.0
 40
0.0
 40
0.25
 40
0.25
 40
0.25
 40
0.5
 40
0.5
 40
0.5
 40
0.75
 40
0.75
 40
0.75
 40
1.0
 40
1.0
 40
1.0
 40
1.0
 10
763.3314
 20
-590.0117
 30
0.0
 10
763.3314
 20
-590.0117
 30
0.0
 10
611.0744
 20
-590.0117
 30
0.0
 10
611.0744
 20
-590.0117
 30
0.0
 10
611.0744
 20
-590.0117
 30
0.0
 10
700.9187
 20
-541.912
 30
0.0
 10
700.9187
 20
-541.912
 30
0.0
 10
700.9187
 20
-541.912
 30
0.0
 10
793.7635
 20
-515.608
 30
0.0
 10
793.7635
 20
-515.608
 30
0.0
 10
793.7635
 20
-515.608
 30
0.0
 10
763.3314
 20
-590.0117
 30
0.0
 10
763.3314
 20
-590.0117
 30
0.0
  0
SPLINE
  5
7E
330
1F
100
AcDbEntity
  8
Layer 1
 62
   250
370
    20
100
AcDbSpline
210
0.0
220
0.0
230
1.0
 70
    11
 71
     3
 72
    20
 73
    16
 74
     0
 42
0.0000000001
 43
0.0000000001
 40
0.0
 40
0.0
 40
0.0
 40
0.0
 40
0.2
 40
0.2
 40
0.2
 40
0.4
 40
0.4
 40
0.4
 40
0.6000000000000001
 40
0.6000000000000001
 40
0.6000000000000001
 40
0.8
 40
0.8
 40
0.8
 40
1.0
 40
1.0
 40
1.0
 40
1.0
 10
1199.95
 20
-231.0535
 30
0.0
 10
1199.95
 20
-231.0535
 30
0.0
 10
1199.95
 20
-590.0117
 30
0.0
 10
1199.95
 20
-590.0117
 30
0.0
 10
1199.95
 20
-590.0117
 30
0.0
 10
795.7414
 20
-590.0117
 30
0.0
 10
795.7414
 20
-590.0117
 30
0.0
 10
795.7414
 20
-590.0117
 30
0.0
 10
1006.8262
 20
-214.6886
 30
0.0
 10
1006.8262
 20
-214.6886
 30
0.0
 10
1006.8262
 20
-214.6886
 30
0.0
 10
1158.4979
 20
-193.6126
 30
0.0
 10
1158.4979
 20
-193.6126
 30
0.0
 10
1158.4979
 20
-193.6126
 30
0.0
 10
1199.95
 20
-231.0535
 30
0.0
 10
1199.95
 20
-231.0535
 30
0.0
  0
SPLINE
  5
7F
330
1F
100
AcDbEntity
  8
Layer 1
 62
   250
370
    20
100
AcDbSpline
210
0.0
220
0.0
230
1.0
 70
    11
 71
     3
 72
    23
 73
    19
 74
     0
 42
0.0000000001
 43
0.0000000001
 40
0.0
 40
0.0
 40
0.0
 40
0.0
 40
0.1666666666666667
 40
0.1666666666666667
 40
0.1666666666666667
 40
0.3333333333333333
 40
0.3333333333333333
 40
0.3333333333333333
 40
0.5
 40
0.5
 40
0.5
 40
0.6666666666666666
 40
0.6666666666666666
 40
0.6666666666666666
 40
0.8333333333333333
 40
0.8333333333333333
 40
0.8333333333333333
 40
1.0
 40
1.0
 40
1.0
 40
1.0
 10
890.6595
 20
589.9883
 30
0.0
 10
890.6595
 20
589.9883
 30
0.0
 10
1199.95
 20
589.9883
 30
0.0
 10
1199.95
 20
589.9883
 30
0.0
 10
1199.95
 20
589.9883
 30
0.0
 10
1199.95
 20
54.9581
 30
0.0
 10
1199.95
 20
54.9581
 30
0.0
 10
1199.95
 20
54.9581
 30
0.0
 10
1170.852
 20
51.5616
 30
0.0
 10
1170.852
 20
51.5616
 30
0.0
 10
1170.852
 20
51.5616
 30
0.0
 10
1015.6889
 20
104.1322
 30
0.0
 10
1015.6889
 20
104.1322
 30
0.0
 10
1015.6889
 20
104.1322
 30
0.0
 10
1024.6807
 20
303.3528
 30
0.0
 10
1024.6807
 20
303.3528
 30
0.0
 10
1024.6807
 20
303.3528
 30
0.0
 10
890.6595
 20
589.9883
 30
0.0
 10
890.6595
 20
589.9883
 30
0.0
  0
SPLINE
  5
80
330
1F
100
AcDbEntity
  8
Layer 1
 62
   250
370
    20
100
AcDbSpline
210
0.0
220
0.0
230
1.0
 70
    11
 71
     3
 72
    26
 73
    22
 74
     0
 42
0.0000000001
 43
0.0000000001
 40
0.0
 40
0.0
 40
0.0
 40
0.0
 40
0.1428571428571428
 40
0.1428571428571428
 40
0.1428571428571428
 40
0.2857142857142857
 40
0.2857142857142857
 40
0.2857142857142857
 40
0.4285714285714285
 40
0.4285714285714285
 40
0.4285714285714285
 40
0.5714285714285714
 40
0.5714285714285714
 40
0.5714285714285714
 40
0.7142857142857142
 40
0.7142857142857142
 40
0.7142857142857142
 40
0.8571428571428571
 40
0.8571428571428571
 40
0.8571428571428571
 40
1.0
 40
1.0
 40
1.0
 40
1.0
 10
841.4743
 20
589.9883
 30
0.0
 10
841.4743
 20
589.9883
 30
0.0
 10
852.4616
 20
589.9883
 30
0.0
 10
852.4616
 20
589.9883
 30
0.0
 10
852.4616
 20
589.9883
 30
0.0
 10
971.7233
 20
291.6455
 30
0.0
 10
971.7233
 20
291.6455
 30
0.0
 10
971.7233
 20
291.6455
 30
0.0
 10
932.9191
 20
155.0432
 30
0.0
 10
932.9191
 20
155.0432
 30
0.0
 10
932.9191
 20
155.0432
 30
0.0
 10
716.148
 20
368.5669
 30
0.0
 10
716.148
 20
368.5669
 30
0.0
 10
716.148
 20
368.5669
 30
0.0
 10
719.7477
 20
433.5949
 30
0.0
 10
719.7477
 20
433.5949
 30
0.0
 10
719.7477
 20
433.5949
 30
0.0
 10
780.3547
 20
498.8642
 30
0.0
 10
780.3547
 20
498.8642
 30
0.0
 10
780.3547
 20
498.8642
 30
0.0
 10
841.4743
 20
589.9883
 30
0.0
 10
841.4743
 20
589.9883
 30
0.0
  0
SPLINE
  5
81
330
1F
100
AcDbEntity
  8
Layer 1
 62
   250
370
    20
100
AcDbSpline
210
0.0
220
0.0
230
1.0
 70
    11
 71
     3
 72
    20
 73
    16
 74
     0
 42
0.0000000001
 43
0.0000000001
 40
0.0
 40
0.0
 40
0.0
 40
0.0
 40
0.2
 40
0.2
 40
0.2
 40
0.4
 40
0.4
 40
0.4
 40
0.6000000000000001
 40
0.6000000000000001
 40
0.6000000000000001
 40
0.8
 40
0.8
 40
0.8
 40
1.0
 40
1.0
 40
1.0
 40
1.0
 10
712.2307
 20
589.9883
 30
0.0
 10
712.2307
 20
589.9883
 30
0.0
 10
822.4294
 20
589.9883
 30
0.0
 10
822.4294
 20
589.9883
 30
0.0
 10
822.4294
 20
589.9883
 30
0.0
 10
774.3368
 20
519.9373
 30
0.0
 10
774.3368
 20
519.9373
 30
0.0
 10
774.3368
 20
519.9373
 30
0.0
 10
722.3072
 20
479.8314
 30
0.0
 10
722.3072
 20
479.8314
 30
0.0
 10
722.3072
 20
479.8314
 30
0.0
 10
722.5831
 20
484.8155
 30
0.0
 10
722.5831
 20
484.8155
 30
0.0
 10
722.5831
 20
484.8155
 30
0.0
 10
712.2307
 20
589.9883
 30
0.0
 10
712.2307
 20
589.9883
 30
0.0
  0
SPLINE
  5
82
330
1F
100
AcDbEntity
  8
Layer 1
 62
   250
370
    20
100
AcDbSpline
210
0.0
220
0.0
230
1.0
 70
    11
 71
     3
 72
    20
 73
    16
 74
     0
 42
0.0000000001
 43
0.0000000001
 40
0.0
 40
0.0
 40
0.0
 40
0.0
 40
0.2
 40
0.2
 40
0.2
 40
0.4
 40
0.4
 40
0.4
 40
0.6000000000000001
 40
0.6000000000000001
 40
0.6000000000000001
 40
0.8
 40
0.8
 40
0.8
 40
1.0
 40
1.0
 40
1.0
 40
1.0
 10
596.9779
 20
589.9883
 30
0.0
 10
596.9779
 20
589.9883
 30
0.0
 10
693.9888
 20
589.9883
 30
0.0
 10
693.9888
 20
589.9883
 30
0.0
 10
693.9888
 20
589.9883
 30
0.0
 10
699.7151
 20
494.1813
 30
0.0
 10
699.7151
 20
494.1813
 30
0.0
 10
699.7151
 20
494.1813
 30
0.0
 10
680.8481
 20
403.3381
 30
0.0
 10
680.8481
 20
403.3381
 30
0.0
 10
680.8481
 20
403.3381
 30
0.0
 10
587.9236
 20
494.8704
 30
0.0
 10
587.9236
 20
494.8704
 30
0.0
 10
587.9236
 20
494.8704
 30
0.0
 10
596.9779
 20
589.9883
 30
0.0
 10
596.9779
 20
589.9883
 30
0.0
  0
SPLINE
  5
83
330
1F
100
AcDbEntity
  8
Layer 1
 62
   250
370
    20
100
AcDbSpline
210
0.0
220
0.0
230
1.0
 70
    11
 71
     3
 72
    14
 73
    10
 74
     0
 42
0.0000000001
 43
0.0000000001
 40
0.0
 40
0.0
 40
0.0
 40
0.0
 40
0.3333333333333333
 40
0.3333333333333333
 40
0.3333333333333333
 40
0.6666666666666666
 40
0.6666666666666666
 40
0.6666666666666666
 40
1.0
 40
1.0
 40
1.0
 40
1.0
 10
483.6559
 20
589.9883
 30
0.0
 10
483.6559
 20
589.9883
 30
0.0
 10
578.4094
 20
589.9883
 30
0.0
 10
578.4094
 20
589.9883
 30
0.0
 10
578.4094
 20
589.9883
 30
0.0
 10
563.711
 20
505.8886
 30
0.0
 10
563.711
 20
505.8886
 30
0.0
 10
563.711
 20
505.8886
 30
0.0
 10
483.6559
 20
589.9883
 30
0.0
 10
483.6559
 20
589.9883
 30
0.0
  0
SPLINE
  5
84
330
1F
100
AcDbEntity
  8
Layer 1
 62
   250
370
    20
100
AcDbSpline
210
0.0
220
0.0
230
1.0
 70
    11
 71
     3
 72
    14
 73
    10
 74
     0
 42
0.0000000001
 43
0.0000000001
 40
0.0
 40
0.0
 40
0.0
 40
0.0
 40
0.3333333333333333
 40
0.3333333333333333
 40
0.3333333333333333
 40
0.6666666666666666
 40
0.6666666666666666
 40
0.6666666666666666
 40
1.0
 40
1.0
 40
1.0
 40
1.0
 10
348.0345
 20
589.9883
 30
0.0
 10
348.0345
 20
589.9883
 30
0.0
 10
452.9359
 20
589.9883
 30
0.0
 10
452.9359
 20
589.9883
 30
0.0
 10
452.9359
 20
589.9883
 30
0.0
 10
537.2324
 20
502.3764
 30
0.0
 10
537.2324
 20
502.3764
 30
0.0
 10
537.2324
 20
502.3764
 30
0.0
 10
348.0345
 20
589.9883
 30
0.0
 10
348.0345
 20
589.9883
 30
0.0
  0
SPLINE
  5
85
330
1F
100
AcDbEntity
  8
Layer 1
 62
   250
370
    20
100
AcDbSpline
210
0.0
220
0.0
230
1.0
 70
    11
 71
     3
 72
    32
 73
    28
 74
     0
 42
0.0000000001
 43
0.0000000001
 40
0.0
 40
0.0
 40
0.0
 40
0.0
 40
0.1111111111111111
 40
0.1111111111111111
 40
0.1111111111111111
 40
0.2222222222222222
 40
0.2222222222222222
 40
0.2222222222222222
 40
0.3333333333333333
 40
0.3333333333333333
 40
0.3333333333333333
 40
0.4444444444444444
 40
0.4444444444444444
 40
0.4444444444444444
 40
0.5555555555555556
 40
0.5555555555555556
 40
0.5555555555555556
 40
0.6666666666666666
 40
0.6666666666666666
 40
0.6666666666666666
 40
0.7777777777777777
 40
0.7777777777777777
 40
0.7777777777777777
 40
0.8888888888888888
 40
0.8888888888888888
 40
0.8888888888888888
 40
1.0
 40
1.0
 40
1.0
 40
1.0
 10
246.7146
 20
589.9883
 30
0.0
 10
246.7146
 20
589.9883
 30
0.0
 10
299.4943
 20
589.9883
 30
0.0
 10
299.4943
 20
589.9883
 30
0.0
 10
299.4943
 20
589.9883
 30
0.0
 10
555.286
 20
470.7667
 30
0.0
 10
555.286
 20
470.7667
 30
0.0
 10
555.286
 20
470.7667
 30
0.0
 10
738.5511
 20
227.0975
 30
0.0
 10
738.5511
 20
227.0975
 30
0.0
 10
738.5511
 20
227.0975
 30
0.0
 10
563.2935
 20
239.6672
 30
0.0
 10
563.2935
 20
239.6672
 30
0.0
 10
563.2935
 20
239.6672
 30
0.0
 10
450.5748
 20
366.5721
 30
0.0
 10
450.5748
 20
366.5721
 30
0.0
 10
450.5748
 20
366.5721
 30
0.0
 10
394.6935
 20
397.5345
 30
0.0
 10
394.6935
 20
397.5345
 30
0.0
 10
394.6935
 20
397.5345
 30
0.0
 10
357.8995
 20
485.9862
 30
0.0
 10
357.8995
 20
485.9862
 30
0.0
 10
357.8995
 20
485.9862
 30
0.0
 10
290.4993
 20
560.9127
 30
0.0
 10
290.4993
 20
560.9127
 30
0.0
 10
290.4993
 20
560.9127
 30
0.0
 10
246.7146
 20
589.9883
 30
0.0
 10
246.7146
 20
589.9883
 30
0.0
  0
SPLINE
  5
86
330
1F
100
AcDbEntity
  8
Layer 1
 62
   250
370
    20
100
AcDbSpline
210
0.0
220
0.0
230
1.0
 70
    11
 71
     3
 72
    29
 73
    25
 74
     0
 42
0.0000000001
 43
0.0000000001
 40
0.0
 40
0.0
 40
0.0
 40
0.0
 40
0.125
 40
0.125
 40
0.125
 40
0.25
 40
0.25
 40
0.25
 40
0.375
 40
0.375
 40
0.375
 40
0.5
 40
0.5
 40
0.5
 40
0.625
 40
0.625
 40
0.625
 40
0.75
 40
0.75
 40
0.75
 40
0.875
 40
0.875
 40
0.875
 40
1.0
 40
1.0
 40
1.0
 40
1.0
 10
189.877
 20
589.9883
 30
0.0
 10
189.877
 20
589.9883
 30
0.0
 10
231.4044
 20
589.9883
 30
0.0
 10
231.4044
 20
589.9883
 30
0.0
 10
231.4044
 20
589.9883
 30
0.0
 10
285.685
 20
551.5469
 30
0.0
 10
285.685
 20
551.5469
 30
0.0
 10
285.685
 20
551.5469
 30
0.0
 10
342.2531
 20
489.4984
 30
0.0
 10
342.2531
 20
489.4984
 30
0.0
 10
342.2531
 20
489.4984
 30
0.0
 10
370.5906
 20
410.8893
 30
0.0
 10
370.5906
 20
410.8893
 30
0.0
 10
370.5906
 20
410.8893
 30
0.0
 10
260.4099
 20
471.9375
 30
0.0
 10
260.4099
 20
471.9375
 30
0.0
 10
260.4099
 20
471.9375
 30
0.0
 10
258.0599
 20
472.4695
 30
0.0
 10
258.0599
 20
472.4695
 30
0.0
 10
258.0599
 20
472.4695
 30
0.0
 10
181.3577
 20
518.9994
 30
0.0
 10
181.3577
 20
518.9994
 30
0.0
 10
181.3577
 20
518.9994
 30
0.0
 10
189.877
 20
589.9883
 30
0.0
 10
189.877
 20
589.9883
 30
0.0
  0
SPLINE
  5
87
330
1F
100
AcDbEntity
  8
Layer 1
 62
   250
370
    20
100
AcDbSpline
210
0.0
220
0.0
230
1.0
 70
    11
 71
     3
 72
    17
 73
    13
 74
     0
 42
0.0000000001
 43
0.0000000001
 40
0.0
 40
0.0
 40
0.0
 40
0.0
 40
0.25
 40
0.25
 40
0.25
 40
0.5
 40
0.5
 40
0.5
 40
0.75
 40
0.75
 40
0.75
 40
1.0
 40
1.0
 40
1.0
 40
1.0
 10
79.273
 20
589.9883
 30
0.0
 10
79.273
 20
589.9883
 30
0.0
 10
174.3508
 20
589.9883
 30
0.0
 10
174.3508
 20
589.9883
 30
0.0
 10
174.3508
 20
589.9883
 30
0.0
 10
164.1426
 20
529.4426
 30
0.0
 10
164.1426
 20
529.4426
 30
0.0
 10
164.1426
 20
529.4426
 30
0.0
 10
160.513
 20
531.6446
 30
0.0
 10
160.513
 20
531.6446
 30
0.0
 10
160.513
 20
531.6446
 30
0.0
 10
79.273
 20
589.9883
 30
0.0
 10
79.273
 20
589.9883
 30
0.0
  0
SPLINE
  5
88
330
1F
100
AcDbEntity
  8
Layer 1
 62
   250
370
    20
100
AcDbSpline
210
0.0
220
0.0
230
1.0
 70
    11
 71
     3
 72
    23
 73
    19
 74
     0
 42
0.0000000001
 43
0.0000000001
 40
0.0
 40
0.0
 40
0.0
 40
0.0
 40
0.1666666666666667
 40
0.1666666666666667
 40
0.1666666666666667
 40
0.3333333333333333
 40
0.3333333333333333
 40
0.3333333333333333
 40
0.5
 40
0.5
 40
0.5
 40
0.6666666666666666
 40
0.6666666666666666
 40
0.6666666666666666
 40
0.8333333333333333
 40
0.8333333333333333
 40
0.8333333333333333
 40
1.0
 40
1.0
 40
1.0
 40
1.0
 10
-47.167
 20
589.9883
 30
0.0
 10
-47.167
 20
589.9883
 30
0.0
 10
64.4523
 20
589.9883
 30
0.0
 10
64.4523
 20
589.9883
 30
0.0
 10
64.4523
 20
589.9883
 30
0.0
 10
149.6809
 20
526.9616
 30
0.0
 10
149.6809
 20
526.9616
 30
0.0
 10
149.6809
 20
526.9616
 30
0.0
 10
162.3401
 20
518.7526
 30
0.0
 10
162.3401
 20
518.7526
 30
0.0
 10
162.3401
 20
518.7526
 30
0.0
 10
158.342
 20
495.0378
 30
0.0
 10
158.342
 20
495.0378
 30
0.0
 10
158.342
 20
495.0378
 30
0.0
 10
24.5719
 20
525.3135
 30
0.0
 10
24.5719
 20
525.3135
 30
0.0
 10
24.5719
 20
525.3135
 30
0.0
 10
-47.167
 20
589.9883
 30
0.0
 10
-47.167
 20
589.9883
 30
0.0
  0
SPLINE
  5
89
330
1F
100
AcDbEntity
  8
Layer 1
 62
   250
370
    20
100
AcDbSpline
210
0.0
220
0.0
230
1.0
 70
    11
 71
     3
 72
    29
 73
    25
 74
     0
 42
0.0000000001
 43
0.0000000001
 40
0.0
 40
0.0
 40
0.0
 40
0.0
 40
0.125
 40
0.125
 40
0.125
 40
0.25
 40
0.25
 40
0.25
 40
0.375
 40
0.375
 40
0.375
 40
0.5
 40
0.5
 40
0.5
 40
0.625
 40
0.625
 40
0.625
 40
0.75
 40
0.75
 40
0.75
 40
0.875
 40
0.875
 40
0.875
 40
1.0
 40
1.0
 40
1.0
 40
1.0
 10
-174.3285
 20
589.9883
 30
0.0
 10
-174.3285
 20
589.9883
 30
0.0
 10
-66.2407
 20
589.9883
 30
0.0
 10
-66.2407
 20
589.9883
 30
0.0
 10
-66.2407
 20
589.9883
 30
0.0
 10
19.7569
 20
518.2882
 30
0.0
 10
19.7569
 20
518.2882
 30
0.0
 10
19.7569
 20
518.2882
 30
0.0
 10
155.9448
 20
480.8217
 30
0.0
 10
155.9448
 20
480.8217
 30
0.0
 10
155.9448
 20
480.8217
 30
0.0
 10
128.4525
 20
317.7599
 30
0.0
 10
128.4525
 20
317.7599
 30
0.0
 10
128.4525
 20
317.7599
 30
0.0
 10
33.4381
 20
356.03
 30
0.0
 10
33.4381
 20
356.03
 30
0.0
 10
33.4381
 20
356.03
 30
0.0
 10
-14.0054
 20
456.7181
 30
0.0
 10
-14.0054
 20
456.7181
 30
0.0
 10
-14.0054
 20
456.7181
 30
0.0
 10
-168.1999
 20
551.2406
 30
0.0
 10
-168.1999
 20
551.2406
 30
0.0
 10
-168.1999
 20
551.2406
 30
0.0
 10
-174.3285
 20
589.9883
 30
0.0
 10
-174.3285
 20
589.9883
 30
0.0
  0
SPLINE
  5
8A
330
1F
100
AcDbEntity
  8
Layer 1
 62
   250
370
    20
100
AcDbSpline
210
0.0
220
0.0
230
1.0
 70
    11
 71
     3
 72
    14
 73
    10
 74
     0
 42
0.0000000001
 43
0.0000000001
 40
0.0
 40
0.0
 40
0.0
 40
0.0
 40
0.3333333333333333
 40
0.3333333333333333
 40
0.3333333333333333
 40
0.6666666666666666
 40
0.6666666666666666
 40
0.6666666666666666
 40
1.0
 40
1.0
 40
1.0
 40
1.0
 10
-231.4094
 20
589.9883
 30
0.0
 10
-231.4094
 20
589.9883
 30
0.0
 10
-184.726
 20
589.9883
 30
0.0
 10
-184.726
 20
589.9883
 30
0.0
 10
-184.726
 20
589.9883
 30
0.0
 10
-179.8692
 20
558.3937
 30
0.0
 10
-179.8692
 20
558.3937
 30
0.0
 10
-179.8692
 20
558.3937
 30
0.0
 10
-231.4094
 20
589.9883
 30
0.0
 10
-231.4094
 20
589.9883
 30
0.0
  0
SPLINE
  5
8B
330
1F
100
AcDbEntity
  8
Layer 1
 62
   250
370
    20
100
AcDbSpline
210
0.0
220
0.0
230
1.0
 70
    11
 71
     3
 72
    23
 73
    19
 74
     0
 42
0.0000000001
 43
0.0000000001
 40
0.0
 40
0.0
 40
0.0
 40
0.0
 40
0.1666666666666667
 40
0.1666666666666667
 40
0.1666666666666667
 40
0.3333333333333333
 40
0.3333333333333333
 40
0.3333333333333333
 40
0.5
 40
0.5
 40
0.5
 40
0.6666666666666666
 40
0.6666666666666666
 40
0.6666666666666666
 40
0.8333333333333333
 40
0.8333333333333333
 40
0.8333333333333333
 40
1.0
 40
1.0
 40
1.0
 40
1.0
 10
-364.0294
 20
589.9883
 30
0.0
 10
-364.0294
 20
589.9883
 30
0.0
 10
-250.5733
 20
589.9883
 30
0.0
 10
-250.5733
 20
589.9883
 30
0.0
 10
-250.5733
 20
589.9883
 30
0.0
 10
-177.2013
 20
541.0387
 30
0.0
 10
-177.2013
 20
541.0387
 30
0.0
 10
-177.2013
 20
541.0387
 30
0.0
 10
-172.8775
 20
512.9129
 30
0.0
 10
-172.8775
 20
512.9129
 30
0.0
 10
-172.8775
 20
512.9129
 30
0.0
 10
-197.7139
 20
449.1343
 30
0.0
 10
-197.7139
 20
449.1343
 30
0.0
 10
-197.7139
 20
449.1343
 30
0.0
 10
-314.9801
 20
496.3669
 30
0.0
 10
-314.9801
 20
496.3669
 30
0.0
 10
-314.9801
 20
496.3669
 30
0.0
 10
-364.0294
 20
589.9883
 30
0.0
 10
-364.0294
 20
589.9883
 30
0.0
  0
SPLINE
  5
8C
330
1F
100
AcDbEntity
  8
Layer 1
 62
   250
370
    20
100
AcDbSpline
210
0.0
220
0.0
230
1.0
 70
    11
 71
     3
 72
    14
 73
    10
 74
     0
 42
0.0000000001
 43
0.0000000001
 40
0.0
 40
0.0
 40
0.0
 40
0.0
 40
0.3333333333333333
 40
0.3333333333333333
 40
0.3333333333333333
 40
0.6666666666666666
 40
0.6666666666666666
 40
0.6666666666666666
 40
1.0
 40
1.0
 40
1.0
 40
1.0
 10
-547.4166
 20
589.9883
 30
0.0
 10
-547.4166
 20
589.9883
 30
0.0
 10
-377.3072
 20
589.9883
 30
0.0
 10
-377.3072
 20
589.9883
 30
0.0
 10
-377.3072
 20
589.9883
 30
0.0
 10
-338.0699
 20
505.6671
 30
0.0
 10
-338.0699
 20
505.6671
 30
0.0
 10
-338.0699
 20
505.6671
 30
0.0
 10
-547.4166
 20
589.9883
 30
0.0
 10
-547.4166
 20
589.9883
 30
0.0
  0
SPLINE
  5
8D
330
1F
100
AcDbEntity
  8
Layer 1
 62
   250
370
    20
100
AcDbSpline
210
0.0
220
0.0
230
1.0
 70
    11
 71
     3
 72
    23
 73
    19
 74
     0
 42
0.0000000001
 43
0.0000000001
 40
0.0
 40
0.0
 40
0.0
 40
0.0
 40
0.1666666666666667
 40
0.1666666666666667
 40
0.1666666666666667
 40
0.3333333333333333
 40
0.3333333333333333
 40
0.3333333333333333
 40
0.5
 40
0.5
 40
0.5
 40
0.6666666666666666
 40
0.6666666666666666
 40
0.6666666666666666
 40
0.8333333333333333
 40
0.8333333333333333
 40
0.8333333333333333
 40
1.0
 40
1.0
 40
1.0
 40
1.0
 10
-670.9199
 20
589.9883
 30
0.0
 10
-670.9199
 20
589.9883
 30
0.0
 10
-600.4967
 20
589.9883
 30
0.0
 10
-600.4967
 20
589.9883
 30
0.0
 10
-600.4967
 20
589.9883
 30
0.0
 10
105.9566
 20
274.4122
 30
0.0
 10
105.9566
 20
274.4122
 30
0.0
 10
105.9566
 20
274.4122
 30
0.0
 10
-199.8145
 20
271.6453
 30
0.0
 10
-199.8145
 20
271.6453
 30
0.0
 10
-199.8145
 20
271.6453
 30
0.0
 10
-231.8526
 20
303.3528
 30
0.0
 10
-231.8526
 20
303.3528
 30
0.0
 10
-231.8526
 20
303.3528
 30
0.0
 10
-555.6146
 20
509.4007
 30
0.0
 10
-555.6146
 20
509.4007
 30
0.0
 10
-555.6146
 20
509.4007
 30
0.0
 10
-670.9199
 20
589.9883
 30
0.0
 10
-670.9199
 20
589.9883
 30
0.0
  0
SPLINE
  5
8E
330
1F
100
AcDbEntity
  8
Layer 1
 62
   250
370
    20
100
AcDbSpline
210
0.0
220
0.0
230
1.0
 70
    11
 71
     3
 72
    20
 73
    16
 74
     0
 42
0.0000000001
 43
0.0000000001
 40
0.0
 40
0.0
 40
0.0
 40
0.0
 40
0.2
 40
0.2
 40
0.2
 40
0.4
 40
0.4
 40
0.4
 40
0.6000000000000001
 40
0.6000000000000001
 40
0.6000000000000001
 40
0.8
 40
0.8
 40
0.8
 40
1.0
 40
1.0
 40
1.0
 40
1.0
 10
-839.1822
 20
589.9883
 30
0.0
 10
-839.1822
 20
589.9883
 30
0.0
 10
-703.3793
 20
589.9883
 30
0.0
 10
-703.3793
 20
589.9883
 30
0.0
 10
-703.3793
 20
589.9883
 30
0.0
 10
-696.433
 20
584.3273
 30
0.0
 10
-696.433
 20
584.3273
 30
0.0
 10
-696.433
 20
584.3273
 30
0.0
 10
-566.9887
 20
491.703
 30
0.0
 10
-566.9887
 20
491.703
 30
0.0
 10
-566.9887
 20
491.703
 30
0.0
 10
-731.3367
 20
514.0836
 30
0.0
 10
-731.3367
 20
514.0836
 30
0.0
 10
-731.3367
 20
514.0836
 30
0.0
 10
-839.1822
 20
589.9883
 30
0.0
 10
-839.1822
 20
589.9883
 30
0.0
  0
SPLINE
  5
8F
330
1F
100
AcDbEntity
  8
Layer 1
 62
   250
370
    20
100
AcDbSpline
210
0.0
220
0.0
230
1.0
 70
    11
 71
     3
 72
    14
 73
    10
 74
     0
 42
0.0000000001
 43
0.0000000001
 40
0.0
 40
0.0
 40
0.0
 40
0.0
 40
0.3333333333333333
 40
0.3333333333333333
 40
0.3333333333333333
 40
0.6666666666666666
 40
0.6666666666666666
 40
0.6666666666666666
 40
1.0
 40
1.0
 40
1.0
 40
1.0
 10
-926.1873
 20
589.9883
 30
0.0
 10
-926.1873
 20
589.9883
 30
0.0
 10
-861.812
 20
589.9883
 30
0.0
 10
-861.812
 20
589.9883
 30
0.0
 10
-861.812
 20
589.9883
 30
0.0
 10
-748.5439
 20
509.4745
 30
0.0
 10
-748.5439
 20
509.4745
 30
0.0
 10
-748.5439
 20
509.4745
 30
0.0
 10
-926.1873
 20
589.9883
 30
0.0
 10
-926.1873
 20
589.9883
 30
0.0
  0
SPLINE
  5
90
330
1F
100
AcDbEntity
  8
Layer 1
 62
   250
370
    20
100
AcDbSpline
210
0.0
220
0.0
230
1.0
 70
    11
 71
     3
 72
    26
 73
    22
 74
     0
 42
0.0000000001
 43
0.0000000001
 40
0.0
 40
0.0
 40
0.0
 40
0.0
 40
0.1428571428571428
 40
0.1428571428571428
 40
0.1428571428571428
 40
0.2857142857142857
 40
0.2857142857142857
 40
0.2857142857142857
 40
0.4285714285714285
 40
0.4285714285714285
 40
0.4285714285714285
 40
0.5714285714285714
 40
0.5714285714285714
 40
0.5714285714285714
 40
0.7142857142857142
 40
0.7142857142857142
 40
0.7142857142857142
 40
0.8571428571428571
 40
0.8571428571428571
 40
0.8571428571428571
 40
1.0
 40
1.0
 40
1.0
 40
1.0
 10
-1087.9022
 20
589.9883
 30
0.0
 10
-1087.9022
 20
589.9883
 30
0.0
 10
-963.0589
 20
589.9883
 30
0.0
 10
-963.0589
 20
589.9883
 30
0.0
 10
-963.0589
 20
589.9883
 30
0.0
 10
-652.5025
 20
441.4986
 30
0.0
 10
-652.5025
 20
441.4986
 30
0.0
 10
-652.5025
 20
441.4986
 30
0.0
 10
-637.8259
 20
417.7719
 30
0.0
 10
-625.6758
 20
397.4227
 30
0.0
 10
-625.6758
 20
397.4227
 30
0.0
 10
-631.44
 20
400.5231
 30
0.0
 10
-631.44
 20
400.5231
 30
0.0
 10
-631.44
 20
400.5231
 30
0.0
 10
-1033.0642
 20
509.4915
 30
0.0
 10
-1033.0642
 20
509.4915
 30
0.0
 10
-1033.0642
 20
509.4915
 30
0.0
 10
-1046.6736
 20
549.2055
 30
0.0
 10
-1046.6736
 20
549.2055
 30
0.0
 10
-1046.6736
 20
549.2055
 30
0.0
 10
-1087.9022
 20
589.9883
 30
0.0
 10
-1087.9022
 20
589.9883
 30
0.0
  0
SPLINE
  5
91
330
1F
100
AcDbEntity
  8
Layer 1
 62
   250
370
    20
100
AcDbSpline
210
0.0
220
0.0
230
1.0
 70
    11
 71
     3
 72
    20
 73
    16
 74
     0
 42
0.0000000001
 43
0.0000000001
 40
0.0
 40
0.0
 40
0.0
 40
0.0
 40
0.2
 40
0.2
 40
0.2
 40
0.4
 40
0.4
 40
0.4
 40
0.6000000000000001
 40
0.6000000000000001
 40
0.6000000000000001
 40
0.8
 40
0.8
 40
0.8
 40
1.0
 40
1.0
 40
1.0
 40
1.0
 10
-1200.05
 20
555.4048
 30
0.0
 10
-1200.05
 20
555.4048
 30
0.0
 10
-1200.05
 20
589.9883
 30
0.0
 10
-1200.05
 20
589.9883
 30
0.0
 10
-1200.05
 20
589.9883
 30
0.0
 10
-1104.5118
 20
589.9883
 30
0.0
 10
-1104.5118
 20
589.9883
 30
0.0
 10
-1088.8938
 20
575.0525
 30
0.0
 10
-1073.0015
 20
559.5465
 30
0.0
 10
-1069.5416
 20
555.0591
 30
0.0
 10
-1064.9362
 20
549.0864
 30
0.0
 10
-1059.3533
 20
529.3083
 30
0.0
 10
-1055.9114
 20
515.7604
 30
0.0
 10
-1055.9114
 20
515.7604
 30
0.0
 10
-1200.05
 20
555.4048
 30
0.0
 10
-1200.05
 20
555.4048
 30
0.0
  0
SPLINE
  5
92
330
1F
100
AcDbEntity
  8
Layer 1
 62
   250
370
    20
100
AcDbSpline
210
0.0
220
0.0
230
1.0
 70
    11
 71
     3
 72
    14
 73
    10
 74
     0
 42
0.0000000001
 43
0.0000000001
 40
0.0
 40
0.0
 40
0.0
 40
0.0
 40
0.3333333333333333
 40
0.3333333333333333
 40
0.3333333333333333
 40
0.6666666666666666
 40
0.6666666666666666
 40
0.6666666666666666
 40
1.0
 40
1.0
 40
1.0
 40
1.0
 10
-1200.05
 20
509.299
 30
0.0
 10
-1200.05
 20
509.299
 30
0.0
 10
-1200.05
 20
540.1554
 30
0.0
 10
-1200.05
 20
540.1554
 30
0.0
 10
-1200.05
 20
540.1554
 30
0.0
 10
-1137.008
 20
521.5633
 30
0.0
 10
-1137.008
 20
521.5633
 30
0.0
 10
-1137.008
 20
521.5633
 30
0.0
 10
-1200.05
 20
509.299
 30
0.0
 10
-1200.05
 20
509.299
 30
0.0
  0
SPLINE
  5
93
330
1F
100
AcDbEntity
  8
Layer 1
 62
   250
370
    20
100
AcDbSpline
210
0.0
220
0.0
230
1.0
 70
    11
 71
     3
 72
    29
 73
    25
 74
     0
 42
0.0000000001
 43
0.0000000001
 40
0.0
 40
0.0
 40
0.0
 40
0.0
 40
0.125
 40
0.125
 40
0.125
 40
0.25
 40
0.25
 40
0.25
 40
0.375
 40
0.375
 40
0.375
 40
0.5
 40
0.5
 40
0.5
 40
0.625
 40
0.625
 40
0.625
 40
0.75
 40
0.75
 40
0.75
 40
0.875
 40
0.875
 40
0.875
 40
1.0
 40
1.0
 40
1.0
 40
1.0
 10
-1200.05
 20
488.6617
 30
0.0
 10
-1200.05
 20
488.6617
 30
0.0
 10
-1200.05
 20
493.4138
 30
0.0
 10
-1200.05
 20
493.4138
 30
0.0
 10
-1200.05
 20
493.4138
 30
0.0
 10
-1099.9853
 20
510.645
 30
0.0
 10
-1099.9853
 20
510.645
 30
0.0
 10
-1099.9853
 20
510.645
 30
0.0
 10
-1071.9488
 20
502.3764
 30
0.0
 10
-1071.9488
 20
502.3764
 30
0.0
 10
-1071.9488
 20
502.3764
 30
0.0
 10
-773.7177
 20
413.859
 30
0.0
 10
-773.7177
 20
413.859
 30
0.0
 10
-773.7177
 20
413.859
 30
0.0
 10
-858.9158
 20
400.5231
 30
0.0
 10
-858.9158
 20
400.5231
 30
0.0
 10
-858.9158
 20
400.5231
 30
0.0
 10
-982.3532
 20
403.7684
 30
0.0
 10
-982.3532
 20
403.7684
 30
0.0
 10
-982.3532
 20
403.7684
 30
0.0
 10
-980.4769
 20
404.0353
 30
0.0
 10
-980.4769
 20
404.0353
 30
0.0
 10
-980.4769
 20
404.0353
 30
0.0
 10
-1200.05
 20
488.6617
 30
0.0
 10
-1200.05
 20
488.6617
 30
0.0
  0
SPLINE
  5
94
330
1F
100
AcDbEntity
  8
Layer 1
 62
   250
370
    20
100
AcDbSpline
210
0.0
220
0.0
230
1.0
 70
    11
 71
     3
 72
    17
 73
    13
 74
     0
 42
0.0000000001
 43
0.0000000001
 40
0.0
 40
0.0
 40
0.0
 40
0.0
 40
0.25
 40
0.25
 40
0.25
 40
0.5
 40
0.5
 40
0.5
 40
0.75
 40
0.75
 40
0.75
 40
1.0
 40
1.0
 40
1.0
 40
1.0
 10
-1200.05
 20
417.726
 30
0.0
 10
-1200.05
 20
417.726
 30
0.0
 10
-1200.05
 20
472.3941
 30
0.0
 10
-1200.05
 20
472.3941
 30
0.0
 10
-1141.6448
 20
447.7184
 30
0.0
 10
-1075.4875
 20
419.4151
 30
0.0
 10
-1045.7466
 20
405.4347
 30
0.0
 10
-1045.7466
 20
405.4347
 30
0.0
 10
-1081.5773
 20
406.3768
 30
0.0
 10
-1081.5773
 20
406.3768
 30
0.0
 10
-1081.5773
 20
406.3768
 30
0.0
 10
-1200.05
 20
417.726
 30
0.0
 10
-1200.05
 20
417.726
 30
0.0
  0
SPLINE
  5
95
330
1F
100
AcDbEntity
  8
Layer 1
 62
   250
370
    20
100
AcDbSpline
210
0.0
220
0.0
230
1.0
 70
    11
 71
     3
 72
    14
 73
    10
 74
     0
 42
0.0000000001
 43
0.0000000001
 40
0.0
 40
0.0
 40
0.0
 40
0.0
 40
0.3333333333333333
 40
0.3333333333333333
 40
0.3333333333333333
 40
0.6666666666666666
 40
0.6666666666666666
 40
0.6666666666666666
 40
1.0
 40
1.0
 40
1.0
 40
1.0
 10
-1200.05
 20
391.6721
 30
0.0
 10
-1200.05
 20
391.6721
 30
0.0
 10
-1200.05
 20
402.1586
 30
0.0
 10
-1200.05
 20
402.1586
 30
0.0
 10
-1200.05
 20
402.1586
 30
0.0
 10
-1175.3362
 20
399.7342
 30
0.0
 10
-1175.3362
 20
399.7342
 30
0.0
 10
-1175.3362
 20
399.7342
 30
0.0
 10
-1200.05
 20
391.6721
 30
0.0
 10
-1200.05
 20
391.6721
 30
0.0
  0
SPLINE
  5
96
330
1F
100
AcDbEntity
  8
Layer 1
 62
   250
370
    20
100
AcDbSpline
210
0.0
220
0.0
230
1.0
 70
    11
 71
     3
 72
    32
 73
    28
 74
     0
 42
0.0000000001
 43
0.0000000001
 40
0.0
 40
0.0
 40
0.0
 40
0.0
 40
0.1111111111111111
 40
0.1111111111111111
 40
0.1111111111111111
 40
0.2222222222222222
 40
0.2222222222222222
 40
0.2222222222222222
 40
0.3333333333333333
 40
0.3333333333333333
 40
0.3333333333333333
 40
0.4444444444444444
 40
0.4444444444444444
 40
0.4444444444444444
 40
0.5555555555555556
 40
0.5555555555555556
 40
0.5555555555555556
 40
0.6666666666666666
 40
0.6666666666666666
 40
0.6666666666666666
 40
0.7777777777777777
 40
0.7777777777777777
 40
0.7777777777777777
 40
0.8888888888888888
 40
0.8888888888888888
 40
0.8888888888888888
 40
1.0
 40
1.0
 40
1.0
 40
1.0
 10
-1200.05
 20
371.4618
 30
0.0
 10
-1200.05
 20
371.4618
 30
0.0
 10
-1200.05
 20
377.6868
 30
0.0
 10
-1200.05
 20
377.6868
 30
0.0
 10
-1200.05
 20
377.6868
 30
0.0
 10
-1136.547
 20
395.9294
 30
0.0
 10
-1136.547
 20
395.9294
 30
0.0
 10
-1136.547
 20
395.9294
 30
0.0
 10
-1123.7025
 20
394.6695
 30
0.0
 10
-1123.7025
 20
394.6695
 30
0.0
 10
-1123.7025
 20
394.6695
 30
0.0
 10
-858.9158
 20
381.7915
 30
0.0
 10
-858.9158
 20
381.7915
 30
0.0
 10
-858.9158
 20
381.7915
 30
0.0
 10
-709.5213
 20
394.8051
 30
0.0
 10
-709.5213
 20
394.8051
 30
0.0
 10
-709.5213
 20
394.8051
 30
0.0
 10
-673.565
 20
384.1329
 30
0.0
 10
-673.565
 20
384.1329
 30
0.0
 10
-673.565
 20
384.1329
 30
0.0
 10
-454.4407
 20
271.8977
 30
0.0
 10
-454.4407
 20
271.8977
 30
0.0
 10
-454.4407
 20
271.8977
 30
0.0
 10
-779.5286
 20
279.4268
 30
0.0
 10
-779.5286
 20
279.4268
 30
0.0
 10
-779.5286
 20
279.4268
 30
0.0
 10
-1200.05
 20
371.4618
 30
0.0
 10
-1200.05
 20
371.4618
 30
0.0
  0
SPLINE
  5
97
330
1F
100
AcDbEntity
  8
Layer 1
 62
   250
370
    20
100
AcDbSpline
210
0.0
220
0.0
230
1.0
 70
    11
 71
     3
 72
    20
 73
    16
 74
     0
 42
0.0000000001
 43
0.0000000001
 40
0.0
 40
0.0
 40
0.0
 40
0.0
 40
0.2
 40
0.2
 40
0.2
 40
0.4
 40
0.4
 40
0.4
 40
0.6000000000000001
 40
0.6000000000000001
 40
0.6000000000000001
 40
0.8
 40
0.8
 40
0.8
 40
1.0
 40
1.0
 40
1.0
 40
1.0
 10
-1200.05
 20
276.8212
 30
0.0
 10
-1200.05
 20
276.8212
 30
0.0
 10
-1200.05
 20
354.0547
 30
0.0
 10
-1200.05
 20
354.0547
 30
0.0
 10
-1200.05
 20
354.0547
 30
0.0
 10
-960.5765
 20
300.3776
 30
0.0
 10
-960.5765
 20
300.3776
 30
0.0
 10
-960.5765
 20
300.3776
 30
0.0
 10
-1017.7879
 20
297.4992
 30
0.0
 10
-1017.7879
 20
297.4992
 30
0.0
 10
-1017.7879
 20
297.4992
 30
0.0
 10
-1152.5883
 20
288.1334
 30
0.0
 10
-1152.5883
 20
288.1334
 30
0.0
 10
-1152.5883
 20
288.1334
 30
0.0
 10
-1200.05
 20
276.8212
 30
0.0
 10
-1200.05
 20
276.8212
 30
0.0
  0
SPLINE
  5
98
330
1F
100
AcDbEntity
  8
Layer 1
 62
   250
370
    20
100
AcDbSpline
210
0.0
220
0.0
230
1.0
 70
    11
 71
     3
 72
    23
 73
    19
 74
     0
 42
0.0000000001
 43
0.0000000001
 40
0.0
 40
0.0
 40
0.0
 40
0.0
 40
0.1666666666666667
 40
0.1666666666666667
 40
0.1666666666666667
 40
0.3333333333333333
 40
0.3333333333333333
 40
0.3333333333333333
 40
0.5
 40
0.5
 40
0.5
 40
0.6666666666666666
 40
0.6666666666666666
 40
0.6666666666666666
 40
0.8333333333333333
 40
0.8333333333333333
 40
0.8333333333333333
 40
1.0
 40
1.0
 40
1.0
 40
1.0
 10
-1200.05
 20
152.9355
 30
0.0
 10
-1200.05
 20
152.9355
 30
0.0
 10
-1200.05
 20
248.2867
 30
0.0
 10
-1200.05
 20
248.2867
 30
0.0
 10
-1200.05
 20
248.2867
 30
0.0
 10
-697.674
 20
122.5275
 30
0.0
 10
-697.674
 20
122.5275
 30
0.0
 10
-697.674
 20
122.5275
 30
0.0
 10
-454.0599
 20
93.6438
 30
0.0
 10
-454.0599
 20
93.6438
 30
0.0
 10
-533.2208
 20
42.0879
 30
0.0
 10
-644.7093
 20
35.8817
 30
0.0
 10
-644.7093
 20
35.8817
 30
0.0
 10
-644.7093
 20
35.8817
 30
0.0
 10
-814.0782
 20
31.7971
 30
0.0
 10
-814.0782
 20
31.7971
 30
0.0
 10
-891.0616
 20
55.3509
 30
0.0
 10
-1073.3666
 20
112.8648
 30
0.0
 10
-1200.05
 20
152.9355
 30
0.0
  0
SPLINE
  5
99
330
1F
100
AcDbEntity
  8
Layer 1
 62
   250
370
    20
100
AcDbSpline
210
0.0
220
0.0
230
1.0
 70
    11
 71
     3
 72
    14
 73
    10
 74
     0
 42
0.0000000001
 43
0.0000000001
 40
0.0
 40
0.0
 40
0.0
 40
0.0
 40
0.3333333333333333
 40
0.3333333333333333
 40
0.3333333333333333
 40
0.6666666666666666
 40
0.6666666666666666
 40
0.6666666666666666
 40
1.0
 40
1.0
 40
1.0
 40
1.0
 10
-1200.05
 20
102.309
 30
0.0
 10
-1200.05
 20
102.309
 30
0.0
 10
-1200.05
 20
140.4153
 30
0.0
 10
-1200.05
 20
140.4153
 30
0.0
 10
-1200.05
 20
140.4153
 30
0.0
 10
-1109.2933
 20
109.7276
 30
0.0
 10
-1109.2933
 20
109.7276
 30
0.0
 10
-1109.2933
 20
109.7276
 30
0.0
 10
-1200.05
 20
102.309
 30
0.0
 10
-1200.05
 20
102.309
 30
0.0
  0
SPLINE
  5
9A
330
1F
100
AcDbEntity
  8
Layer 1
 62
   250
370
    20
100
AcDbSpline
210
0.0
220
0.0
230
1.0
 70
    11
 71
     3
 72
    20
 73
    16
 74
     0
 42
0.0000000001
 43
0.0000000001
 40
0.0
 40
0.0
 40
0.0
 40
0.0
 40
0.2
 40
0.2
 40
0.2
 40
0.4
 40
0.4
 40
0.4
 40
0.6000000000000001
 40
0.6000000000000001
 40
0.6000000000000001
 40
0.8
 40
0.8
 40
0.8
 40
1.0
 40
1.0
 40
1.0
 40
1.0
 10
-1200.05
 20
22.4889
 30
0.0
 10
-1200.05
 20
22.4889
 30
0.0
 10
-1200.05
 20
91.7706
 30
0.0
 10
-1200.05
 20
91.7706
 30
0.0
 10
-1200.05
 20
91.7706
 30
0.0
 10
-1115.2775
 20
97.3049
 30
0.0
 10
-1115.2775
 20
97.3049
 30
0.0
 10
-1115.2775
 20
97.3049
 30
0.0
 10
-1098.7909
 20
99.9764
 30
0.0
 10
-1081.6368
 20
100.3757
 30
0.0
 10
-1081.6368
 20
100.3757
 30
0.0
 10
-874.5094
 20
30.3396
 30
0.0
 10
-874.5094
 20
30.3396
 30
0.0
 10
-874.5094
 20
30.3396
 30
0.0
 10
-1200.05
 20
22.4889
 30
0.0
 10
-1200.05
 20
22.4889
 30
0.0
  0
SPLINE
  5
9B
330
1F
100
AcDbEntity
  8
Layer 1
 62
   250
370
    20
100
AcDbSpline
210
0.0
220
0.0
230
1.0
 70
    11
 71
     3
 72
    17
 73
    13
 74
     0
 42
0.0000000001
 43
0.0000000001
 40
0.0
 40
0.0
 40
0.0
 40
0.0
 40
0.25
 40
0.25
 40
0.25
 40
0.5
 40
0.5
 40
0.5
 40
0.75
 40
0.75
 40
0.75
 40
1.0
 40
1.0
 40
1.0
 40
1.0
 10
-1200.05
 20
-74.765
 30
0.0
 10
-1200.05
 20
-74.765
 30
0.0
 10
-1200.05
 20
11.1468
 30
0.0
 10
-1200.05
 20
11.1468
 30
0.0
 10
-1200.05
 20
11.1468
 30
0.0
 10
-1198.5994
 20
11.1732
 30
0.0
 10
-1198.5994
 20
11.1732
 30
0.0
 10
-1132.4749
 20
-16.9223
 30
0.0
 10
-1070.2433
 20
-53.5765
 30
0.0
 10
-1049.9648
 20
-65.8723
 30
0.0
 10
-1049.9648
 20
-65.8723
 30
0.0
 10
-1200.05
 20
-74.765
 30
0.0
 10
-1200.05
 20
-74.765
 30
0.0
  0
SPLINE
  5
9C
330
1F
100
AcDbEntity
  8
Layer 1
 62
   250
370
    20
100
AcDbSpline
210
0.0
220
0.0
230
1.0
 70
    11
 71
     3
 72
    20
 73
    16
 74
     0
 42
0.0000000001
 43
0.0000000001
 40
0.0
 40
0.0
 40
0.0
 40
0.0
 40
0.2
 40
0.2
 40
0.2
 40
0.4
 40
0.4
 40
0.4
 40
0.6000000000000001
 40
0.6000000000000001
 40
0.6000000000000001
 40
0.8
 40
0.8
 40
0.8
 40
1.0
 40
1.0
 40
1.0
 40
1.0
 10
-1200.05
 20
-131.0201
 30
0.0
 10
-1200.05
 20
-131.0201
 30
0.0
 10
-1200.05
 20
-83.766
 30
0.0
 10
-1200.05
 20
-83.766
 30
0.0
 10
-1200.05
 20
-83.766
 30
0.0
 10
-806.8635
 20
-65.8102
 30
0.0
 10
-806.8635
 20
-65.8102
 30
0.0
 10
-806.8635
 20
-65.8102
 30
0.0
 10
-864.9336
 20
-88.8407
 30
0.0
 10
-864.9336
 20
-88.8407
 30
0.0
 10
-864.9336
 20
-88.8407
 30
0.0
 10
-1197.1206
 20
-128.6454
 30
0.0
 10
-1197.1206
 20
-128.6454
 30
0.0
 10
-1197.1206
 20
-128.6454
 30
0.0
 10
-1200.05
 20
-131.0201
 30
0.0
 10
-1200.05
 20
-131.0201
 30
0.0
  0
SPLINE
  5
9D
330
1F
100
AcDbEntity
  8
Layer 1
 62
   250
370
    20
100
AcDbSpline
210
0.0
220
0.0
230
1.0
 70
    11
 71
     3
 72
    41
 73
    37
 74
     0
 42
0.0000000001
 43
0.0000000001
 40
0.0
 40
0.0
 40
0.0
 40
0.0
 40
0.0833333333333333
 40
0.0833333333333333
 40
0.0833333333333333
 40
0.1666666666666667
 40
0.1666666666666667
 40
0.1666666666666667
 40
0.25
 40
0.25
 40
0.25
 40
0.3333333333333333
 40
0.3333333333333333
 40
0.3333333333333333
 40
0.4166666666666666
 40
0.4166666666666666
 40
0.4166666666666666
 40
0.5
 40
0.5
 40
0.5
 40
0.5833333333333333
 40
0.5833333333333333
 40
0.5833333333333333
 40
0.6666666666666666
 40
0.6666666666666666
 40
0.6666666666666666
 40
0.75
 40
0.75
 40
0.75
 40
0.8333333333333333
 40
0.8333333333333333
 40
0.8333333333333333
 40
0.9166666666666666
 40
0.9166666666666666
 40
0.9166666666666666
 40
1.0
 40
1.0
 40
1.0
 40
1.0
 10
-1200.05
 20
-167.9324
 30
0.0
 10
-1200.05
 20
-167.9324
 30
0.0
 10
-1200.05
 20
-139.087
 30
0.0
 10
-1200.05
 20
-139.087
 30
0.0
 10
-1200.05
 20
-139.087
 30
0.0
 10
-860.1193
 20
-101.7187
 30
0.0
 10
-860.1193
 20
-101.7187
 30
0.0
 10
-860.1193
 20
-101.7187
 30
0.0
 10
-821.6049
 20
-94.6943
 30
0.0
 10
-821.6049
 20
-94.6943
 30
0.0
 10
-821.6049
 20
-94.6943
 30
0.0
 10
-737.1821
 20
-62.6281
 30
0.0
 10
-737.1821
 20
-62.6281
 30
0.0
 10
-737.1821
 20
-62.6281
 30
0.0
 10
-733.7864
 20
-62.473
 30
0.0
 10
-733.7864
 20
-62.473
 30
0.0
 10
-733.7864
 20
-62.473
 30
0.0
 10
-273.9564
 20
-34.3716
 30
0.0
 10
-273.9564
 20
-34.3716
 30
0.0
 10
-273.9564
 20
-34.3716
 30
0.0
 10
-25.2257
 20
42.7994
 30
0.0
 10
-25.2257
 20
42.7994
 30
0.0
 10
-25.2257
 20
42.7994
 30
0.0
 10
98.664
 20
28.1107
 30
0.0
 10
98.664
 20
28.1107
 30
0.0
 10
98.664
 20
28.1107
 30
0.0
 10
-225.8348
 20
-82.9871
 30
0.0
 10
-225.8348
 20
-82.9871
 30
0.0
 10
-225.8348
 20
-82.9871
 30
0.0
 10
-449.6999
 20
-109.9137
 30
0.0
 10
-449.6999
 20
-109.9137
 30
0.0
 10
-449.6999
 20
-109.9137
 30
0.0
 10
-789.1585
 20
-153.8024
 30
0.0
 10
-789.1585
 20
-153.8024
 30
0.0
 10
-789.1585
 20
-153.8024
 30
0.0
 10
-1200.05
 20
-167.9324
 30
0.0
 10
-1200.05
 20
-167.9324
 30
0.0
  0
SPLINE
  5
9E
330
1F
100
AcDbEntity
  8
Layer 1
 62
   250
370
    20
100
AcDbSpline
210
0.0
220
0.0
230
1.0
 70
    11
 71
     3
 72
    23
 73
    19
 74
     0
 42
0.0000000001
 43
0.0000000001
 40
0.0
 40
0.0
 40
0.0
 40
0.0
 40
0.1666666666666667
 40
0.1666666666666667
 40
0.1666666666666667
 40
0.3333333333333333
 40
0.3333333333333333
 40
0.3333333333333333
 40
0.5
 40
0.5
 40
0.5
 40
0.6666666666666666
 40
0.6666666666666666
 40
0.6666666666666666
 40
0.8333333333333333
 40
0.8333333333333333
 40
0.8333333333333333
 40
1.0
 40
1.0
 40
1.0
 40
1.0
 10
-1200.05
 20
-224.513
 30
0.0
 10
-1200.05
 20
-224.513
 30
0.0
 10
-1200.05
 20
-185.3824
 30
0.0
 10
-1200.05
 20
-185.3824
 30
0.0
 10
-1070.5141
 20
-182.186
 30
0.0
 10
-830.0858
 20
-174.8784
 30
0.0
 10
-830.0858
 20
-174.8784
 30
0.0
 10
-830.0858
 20
-174.8784
 30
0.0
 10
-532.7467
 20
-150.8893
 30
0.0
 10
-532.7467
 20
-150.8893
 30
0.0
 10
-532.7467
 20
-150.8893
 30
0.0
 10
-702.489
 20
-231.0811
 30
0.0
 10
-702.489
 20
-231.0811
 30
0.0
 10
-702.489
 20
-231.0811
 30
0.0
 10
-982.2893
 20
-262.7896
 30
0.0
 10
-982.2893
 20
-262.7896
 30
0.0
 10
-1022.3621
 20
-253.1279
 30
0.0
 10
-1156.3732
 20
-231.4794
 30
0.0
 10
-1200.05
 20
-224.513
 30
0.0
  0
SPLINE
  5
9F
330
1F
100
AcDbEntity
  8
Layer 1
 62
   250
370
    20
100
AcDbSpline
210
0.0
220
0.0
230
1.0
 70
    11
 71
     3
 72
    17
 73
    13
 74
     0
 42
0.0000000001
 43
0.0000000001
 40
0.0
 40
0.0
 40
0.0
 40
0.0
 40
0.25
 40
0.25
 40
0.25
 40
0.5
 40
0.5
 40
0.5
 40
0.75
 40
0.75
 40
0.75
 40
1.0
 40
1.0
 40
1.0
 40
1.0
 10
-1200.05
 20
-288.8584
 30
0.0
 10
-1200.05
 20
-288.8584
 30
0.0
 10
-1200.05
 20
-234.7815
 30
0.0
 10
-1200.05
 20
-234.7815
 30
0.0
 10
-1200.05
 20
-234.7815
 30
0.0
 10
-1043.8874
 20
-269.7701
 30
0.0
 10
-1043.8874
 20
-269.7701
 30
0.0
 10
-1043.8874
 20
-269.7701
 30
0.0
 10
-1198.4312
 20
-287.2838
 30
0.0
 10
-1198.4312
 20
-287.2838
 30
0.0
 10
-1198.4312
 20
-287.2838
 30
0.0
 10
-1200.05
 20
-288.8584
 30
0.0
 10
-1200.05
 20
-288.8584
 30
0.0
  0
SPLINE
  5
A0
330
1F
100
AcDbEntity
  8
Layer 1
 62
   250
370
    20
100
AcDbSpline
210
0.0
220
0.0
230
1.0
 70
    11
 71
     3
 72
    23
 73
    19
 74
     0
 42
0.0000000001
 43
0.0000000001
 40
0.0
 40
0.0
 40
0.0
 40
0.0
 40
0.1666666666666667
 40
0.1666666666666667
 40
0.1666666666666667
 40
0.3333333333333333
 40
0.3333333333333333
 40
0.3333333333333333
 40
0.5
 40
0.5
 40
0.5
 40
0.6666666666666666
 40
0.6666666666666666
 40
0.6666666666666666
 40
0.8333333333333333
 40
0.8333333333333333
 40
0.8333333333333333
 40
1.0
 40
1.0
 40
1.0
 40
1.0
 10
-1200.05
 20
-553.2531
 30
0.0
 10
-1200.05
 20
-553.2531
 30
0.0
 10
-1200.05
 20
-484.6111
 30
0.0
 10
-1200.05
 20
-484.6111
 30
0.0
 10
-1200.05
 20
-484.6111
 30
0.0
 10
-1133.3311
 20
-462.3025
 30
0.0
 10
-1133.3311
 20
-462.3025
 30
0.0
 10
-1133.3311
 20
-462.3025
 30
0.0
 10
-1011.1514
 20
-395.3172
 30
0.0
 10
-1011.1514
 20
-395.3172
 30
0.0
 10
-1011.1514
 20
-395.3172
 30
0.0
 10
-937.5464
 20
-382.1042
 30
0.0
 10
-937.5464
 20
-382.1042
 30
0.0
 10
-937.5464
 20
-382.1042
 30
0.0
 10
-988.902
 20
-443.571
 30
0.0
 10
-988.902
 20
-443.571
 30
0.0
 10
-988.902
 20
-443.571
 30
0.0
 10
-1200.05
 20
-553.2531
 30
0.0
 10
-1200.05
 20
-553.2531
 30
0.0
  0
SPLINE
  5
A1
330
1F
100
AcDbEntity
  8
Layer 1
 62
   250
370
    20
100
AcDbSpline
210
0.0
220
0.0
230
1.0
 70
    11
 71
     3
 72
    26
 73
    22
 74
     0
 42
0.0000000001
 43
0.0000000001
 40
0.0
 40
0.0
 40
0.0
 40
0.0
 40
0.1428571428571428
 40
0.1428571428571428
 40
0.1428571428571428
 40
0.2857142857142857
 40
0.2857142857142857
 40
0.2857142857142857
 40
0.4285714285714285
 40
0.4285714285714285
 40
0.4285714285714285
 40
0.5714285714285714
 40
0.5714285714285714
 40
0.5714285714285714
 40
0.7142857142857142
 40
0.7142857142857142
 40
0.7142857142857142
 40
0.8571428571428571
 40
0.8571428571428571
 40
0.8571428571428571
 40
1.0
 40
1.0
 40
1.0
 40
1.0
 10
-1200.05
 20
-590.0117
 30
0.0
 10
-1200.05
 20
-590.0117
 30
0.0
 10
-1200.05
 20
-563.9844
 30
0.0
 10
-1200.05
 20
-563.9844
 30
0.0
 10
-1200.05
 20
-563.9844
 30
0.0
 10
-976.8663
 20
-459.9611
 30
0.0
 10
-976.8663
 20
-459.9611
 30
0.0
 10
-976.8663
 20
-459.9611
 30
0.0
 10
-901.4498
 20
-375.6242
 30
0.0
 10
-901.4498
 20
-375.6242
 30
0.0
 10
-901.4498
 20
-375.6242
 30
0.0
 10
-708.2407
 20
-340.9408
 30
0.0
 10
-708.2407
 20
-340.9408
 30
0.0
 10
-708.2407
 20
-340.9408
 30
0.0
 10
-736.6462
 20
-437.6464
 30
0.0
 10
-736.6462
 20
-437.6464
 30
0.0
 10
-736.6462
 20
-437.6464
 30
0.0
 10
-1084.276
 20
-590.0117
 30
0.0
 10
-1084.276
 20
-590.0117
 30
0.0
 10
-1084.276
 20
-590.0117
 30
0.0
 10
-1200.05
 20
-590.0117
 30
0.0
 10
-1200.05
 20
-590.0117
 30
0.0
  0
SPLINE
  5
A2
330
1F
100
AcDbEntity
  8
Layer 1
 62
   250
370
    20
100
AcDbSpline
210
0.0
220
0.0
230
1.0
 70
    11
 71
     3
 72
    20
 73
    16
 74
     0
 42
0.0000000001
 43
0.0000000001
 40
0.0
 40
0.0
 40
0.0
 40
0.0
 40
0.2
 40
0.2
 40
0.2
 40
0.4
 40
0.4
 40
0.4
 40
0.6000000000000001
 40
0.6000000000000001
 40
0.6000000000000001
 40
0.8
 40
0.8
 40
0.8
 40
1.0
 40
1.0
 40
1.0
 40
1.0
 10
-1200.05
 20
-404.4287
 30
0.0
 10
-1200.05
 20
-404.4287
 30
0.0
 10
-1199.7651
 20
-404.3545
 30
0.0
 10
-1199.7651
 20
-404.3545
 30
0.0
 10
-1199.7651
 20
-404.3545
 30
0.0
 10
-916.747
 20
-357.2094
 30
0.0
 10
-916.747
 20
-357.2094
 30
0.0
 10
-916.747
 20
-357.2094
 30
0.0
 10
-845.981
 20
-272.5108
 30
0.0
 10
-845.981
 20
-272.5108
 30
0.0
 10
-845.981
 20
-272.5108
 30
0.0
 10
-1200.05
 20
-302.3907
 30
0.0
 10
-1200.05
 20
-302.3907
 30
0.0
 10
-1200.05
 20
-302.3907
 30
0.0
 10
-1200.05
 20
-404.4287
 30
0.0
 10
-1200.05
 20
-404.4287
 30
0.0
  0
SPLINE
  5
A3
330
1F
100
AcDbEntity
  8
Layer 1
 62
   250
370
    20
100
AcDbSpline
210
0.0
220
0.0
230
1.0
 70
    11
 71
     3
 72
    17
 73
    13
 74
     0
 42
0.0000000001
 43
0.0000000001
 40
0.0
 40
0.0
 40
0.0
 40
0.0
 40
0.25
 40
0.25
 40
0.25
 40
0.5
 40
0.5
 40
0.5
 40
0.75
 40
0.75
 40
0.75
 40
1.0
 40
1.0
 40
1.0
 40
1.0
 10
-1200.05
 20
-423.7665
 30
0.0
 10
-1200.05
 20
-423.7665
 30
0.0
 10
-1200.05
 20
-473.3549
 30
0.0
 10
-1200.05
 20
-473.3549
 30
0.0
 10
-1200.05
 20
-473.3549
 30
0.0
 10
-1146.5705
 20
-454.1075
 30
0.0
 10
-1146.5705
 20
-454.1075
 30
0.0
 10
-1146.5705
 20
-454.1075
 30
0.0
 10
-1068.4911
 20
-405.6104
 30
0.0
 10
-1068.4911
 20
-405.6104
 30
0.0
 10
-1112.1127
 20
-411.6201
 30
0.0
 10
-1156.5357
 20
-419.0621
 30
0.0
 10
-1200.05
 20
-423.7665
 30
0.0
  0
ENDSEC
  0
SECTION
  2
OBJECTS
  0
DICTIONARY
  5
C
330
0
100
AcDbDictionary
281
     1
  3
ACAD_DETAILVIEWSTYLE
350
AB
  3
ACAD_GROUP
350
D
  3
ACAD_LAYOUT
350
1A
  3
ACAD_MATERIAL
350
43
  3
ACAD_MLEADERSTYLE
350
5B
  3
ACAD_MLINESTYLE
350
17
  3
ACAD_PLOTSETTINGS
350
19
  3
ACAD_PLOTSTYLENAME
350
E
  3
ACAD_SCALELIST
350
47
  3
ACAD_SECTIONVIEWSTYLE
350
AC
  3
ACAD_TABLESTYLE
350
59
  3
ACAD_VISUALSTYLE
350
2A
  3
ACDB_RECOMPOSE_DATA
350
A8
  3
AcDbVariableDictionary
350
A4
  0
SUN
  5
5D
330
29
100
AcDbSun
 90
        1
290
     0
 63
     7
421
 16777215
 40
1.0
291
     1
 91
  2455826
 92
 54000000
292
     0
 70
     2
 71
   256
280
     1
  0
DICTIONARY
  5
AB
102
{ACAD_REACTORS
330
C
102
}
330
C
100
AcDbDictionary
281
     1
  0
DICTIONARY
  5
D
102
{ACAD_REACTORS
330
C
102
}
330
C
100
AcDbDictionary
281
     1
  0
DICTIONARY
  5
1A
102
{ACAD_REACTORS
330
C
102
}
330
C
100
AcDbDictionary
281
     1
  3
Layout1
350
1E
  3
Layout2
350
26
  3
Model
350
22
  0
DICTIONARY
  5
43
102
{ACAD_REACTORS
330
C
102
}
330
C
100
AcDbDictionary
281
     1
  3
ByBlock
350
45
  3
ByLayer
350
44
  3
Global
350
46
  0
DICTIONARY
  5
5B
102
{ACAD_REACTORS
330
C
102
}
330
C
100
AcDbDictionary
281
     1
  3
Standard
350
5C
  0
DICTIONARY
  5
17
102
{ACAD_REACTORS
330
C
102
}
330
C
100
AcDbDictionary
281
     1
  3
Standard
350
18
  0
DICTIONARY
  5
19
102
{ACAD_REACTORS
330
C
102
}
330
C
100
AcDbDictionary
281
     1
  0
ACDBDICTIONARYWDFLT
  5
E
102
{ACAD_REACTORS
330
C
102
}
330
C
100
AcDbDictionary
281
     1
  3
Normal
350
F
100
AcDbDictionaryWithDefault
340
F
  0
DICTIONARY
  5
47
102
{ACAD_REACTORS
330
C
102
}
330
C
100
AcDbDictionary
281
     1
  3
A0
350
48
  3
A1
350
49
  3
A2
350
4A
  3
A3
350
4B
  3
A4
350
4C
  3
A5
350
4D
  3
A6
350
4E
  3
A7
350
4F
  3
A8
350
50
  3
A9
350
51
  3
B1
350
52
  3
B2
350
53
  3
B3
350
54
  3
B4
350
55
  3
B5
350
56
  3
B6
350
57
  3
B7
350
58
  0
DICTIONARY
  5
AC
102
{ACAD_REACTORS
330
C
102
}
330
C
100
AcDbDictionary
281
     1
  0
DICTIONARY
  5
59
102
{ACAD_REACTORS
330
C
102
}
330
C
100
AcDbDictionary
281
     1
  3
Standard
350
5A
  0
DICTIONARY
  5
2A
102
{ACAD_REACTORS
330
C
102
}
330
C
100
AcDbDictionary
281
     1
  3
2dWireframe
350
2F
  3
Basic
350
32
  3
Brighten
350
36
  3
ColorChange
350
3A
  3
Conceptual
350
34
  3
Dim
350
35
  3
EdgeColorOff
350
3D
  3
Facepattern
350
39
  3
Flat
350
2B
  3
FlatWithEdges
350
2C
  3
Gouraud
350
2D
  3
GouraudWithEdges
350
2E
  3
Hidden
350
31
  3
JitterOff
350
3B
  3
Linepattern
350
38
  3
OverhangOff
350
3C
  3
Realistic
350
33
  3
Shaded
350
42
  3
Shaded with edges
350
41
  3
Shades of Gray
350
3E
  3
Sketchy
350
3F
  3
Thicken
350
37
  3
Wireframe
350
30
  3
X-Ray
350
40
  0
XRECORD
  5
A8
102
{ACAD_REACTORS
330
C
102
}
330
C
100
AcDbXrecord
280
     1
 90
        1
330
5A
  0
DICTIONARY
  5
A4
102
{ACAD_REACTORS
330
C
102
}
330
C
100
AcDbDictionary
281
     1
  3
CANNOSCALE
350
A5
  3
CMLEADERSTYLE
350
AA
  3
CTABLESTYLE
350
A9
  0
LAYOUT
  5
1E
102
{ACAD_REACTORS
330
1A
102
}
330
1A
100
AcDbPlotSettings
  1

  2
none_device
  4

  6

 40
0.0
 41
0.0
 42
0.0
 43
0.0
 44
0.0
 45
0.0
 46
0.0
 47
0.0
 48
0.0
 49
0.0
140
0.0
141
0.0
142
1.0
143
1.0
 70
   688
 72
     0
 73
     0
 74
     5
  7

 75
    16
 76
     0
 77
     2
 78
   300
147
1.0
148
0.0
149
0.0
100
AcDbLayout
  1
Layout1
 70
     1
 71
     1
 10
0.0
 20
0.0
 11
12.0
 21
9.0
 12
0.0
 22
0.0
 32
0.0
 14
1.000000000000000E+20
 24
1.000000000000000E+20
 34
1.000000000000000E+20
 15
-1.000000000000000E+20
 25
-1.000000000000000E+20
 35
-1.000000000000000E+20
146
0.0
 13
0.0
 23
0.0
 33
0.0
 16
1.0
 26
0.0
 36
0.0
 17
0.0
 27
1.0
 37
0.0
 76
     0
330
1B
  0
LAYOUT
  5
26
102
{ACAD_REACTORS
330
1A
102
}
330
1A
100
AcDbPlotSettings
  1

  2
none_device
  4

  6

 40
0.0
 41
0.0
 42
0.0
 43
0.0
 44
0.0
 45
0.0
 46
0.0
 47
0.0
 48
0.0
 49
0.0
140
0.0
141
0.0
142
1.0
143
1.0
 70
   688
 72
     0
 73
     0
 74
     5
  7

 75
    16
 76
     0
 77
     2
 78
   300
147
1.0
148
0.0
149
0.0
100
AcDbLayout
  1
Layout2
 70
     1
 71
     2
 10
0.0
 20
0.0
 11
0.0
 21
0.0
 12
0.0
 22
0.0
 32
0.0
 14
0.0
 24
0.0
 34
0.0
 15
0.0
 25
0.0
 35
0.0
146
0.0
 13
0.0
 23
0.0
 33
0.0
 16
1.0
 26
0.0
 36
0.0
 17
0.0
 27
1.0
 37
0.0
 76
     0
330
23
  0
LAYOUT
  5
22
102
{ACAD_REACTORS
330
1A
102
}
330
1A
100
AcDbPlotSettings
  1

  2
none_device
  4
Letter_(8.50_x_11.00_Inches)
  6

 40
6.35
 41
6.35
 42
6.35000508
 43
6.35000508
 44
215.9
 45
279.4
 46
0.0
 47
0.0
 48
0.0
 49
0.0
140
0.0
141
0.0
142
1.0
143
1.0
 70
  1712
 72
     0
 73
     0
 74
     0
  7

 75
     0
 76
     0
 77
     2
 78
   300
147
1.0
148
0.0
149
0.0
100
AcDbLayout
  1
Model
 70
     1
 71
     0
 10
0.0
 20
0.0
 11
12.0
 21
9.0
 12
0.0
 22
0.0
 32
0.0
 14
-1200.15
 24
-590.1117
 34
0.0
 15
1200.05
 25
590.0883
 35
0.0
146
0.0
 13
0.0
 23
0.0
 33
0.0
 16
1.0
 26
0.0
 36
0.0
 17
0.0
 27
1.0
 37
0.0
 76
     0
330
1F
331
29
  0
MATERIAL
  5
45
102
{ACAD_REACTORS
330
43
102
}
330
43
100
AcDbMaterial
  1
ByBlock
 72
     1
 94
      127
  0
MATERIAL
  5
44
102
{ACAD_REACTORS
330
43
102
}
330
43
100
AcDbMaterial
  1
ByLayer
 72
     1
 94
      127
  0
MATERIAL
  5
46
102
{ACAD_REACTORS
330
43
102
}
330
43
100
AcDbMaterial
  1
Global
 72
     1
 94
      127
  0
MLEADERSTYLE
  5
5C
102
{ACAD_REACTORS
330
5B
102
}
330
5B
100
AcDbMLeaderStyle
179
     2
170
     2
171
     1
172
     0
 90
        2
 40
0.0
 41
0.0
173
     1
 91
-1056964608
340
14
 92
       -2
290
     1
 42
0.09
291
     1
 43
0.36
  3
Standard
341
0
 44
0.18
300

342
11
174
     1
178
     6
175
     1
176
     0
 93
-1056964608
 45
0.18
292
     0
297
     0
 46
0.18
343
0
 94
-1056964608
 47
1.0
 49
1.0
140
1.0
293
     1
141
0.0
294
     1
177
     0
142
1.0
295
     0
296
     0
143
0.125
271
     0
272
     9
273
     9
298
     0
  0
MLINESTYLE
  5
18
102
{ACAD_REACTORS
330
17
102
}
330
17
100
AcDbMlineStyle
  2
Standard
 70
     0
  3

 62
   256
 51
90.0
 52
90.0
 71
     2
 49
0.5
 62
   256
  6
BYLAYER
 49
-0.5
 62
   256
  6
BYLAYER
  0
ACDBPLACEHOLDER
  5
F
102
{ACAD_REACTORS
330
E
102
}
330
E
  0
SCALE
  5
48
102
{ACAD_REACTORS
330
47
102
}
330
47
100
AcDbScale
 70
     0
300
1:1
140
1.0
141
1.0
290
     1
  0
SCALE
  5
49
102
{ACAD_REACTORS
330
47
102
}
330
47
100
AcDbScale
 70
     0
300
1/128" = 1'-0"
140
0.0078125
141
12.0
290
     0
  0
SCALE
  5
4A
102
{ACAD_REACTORS
330
47
102
}
330
47
100
AcDbScale
 70
     0
300
1/64" = 1'-0"
140
0.015625
141
12.0
290
     0
  0
SCALE
  5
4B
102
{ACAD_REACTORS
330
47
102
}
330
47
100
AcDbScale
 70
     0
300
1/32" = 1'-0"
140
0.03125
141
12.0
290
     0
  0
SCALE
  5
4C
102
{ACAD_REACTORS
330
47
102
}
330
47
100
AcDbScale
 70
     0
300
1/16" = 1'-0"
140
0.0625
141
12.0
290
     0
  0
SCALE
  5
4D
102
{ACAD_REACTORS
330
47
102
}
330
47
100
AcDbScale
 70
     0
300
3/32" = 1'-0"
140
0.09375
141
12.0
290
     0
  0
SCALE
  5
4E
102
{ACAD_REACTORS
330
47
102
}
330
47
100
AcDbScale
 70
     0
300
1/8" = 1'-0"
140
0.125
141
12.0
290
     0
  0
SCALE
  5
4F
102
{ACAD_REACTORS
330
47
102
}
330
47
100
AcDbScale
 70
     0
300
3/16" = 1'-0"
140
0.1875
141
12.0
290
     0
  0
SCALE
  5
50
102
{ACAD_REACTORS
330
47
102
}
330
47
100
AcDbScale
 70
     0
300
1/4" = 1'-0"
140
0.25
141
12.0
290
     0
  0
SCALE
  5
51
102
{ACAD_REACTORS
330
47
102
}
330
47
100
AcDbScale
 70
     0
300
3/8" = 1'-0"
140
0.375
141
12.0
290
     0
  0
SCALE
  5
52
102
{ACAD_REACTORS
330
47
102
}
330
47
100
AcDbScale
 70
     0
300
1/2" = 1'-0"
140
0.5
141
12.0
290
     0
  0
SCALE
  5
53
102
{ACAD_REACTORS
330
47
102
}
330
47
100
AcDbScale
 70
     0
300
3/4" = 1'-0"
140
0.75
141
12.0
290
     0
  0
SCALE
  5
54
102
{ACAD_REACTORS
330
47
102
}
330
47
100
AcDbScale
 70
     0
300
1" = 1'-0"
140
1.0
141
12.0
290
     0
  0
SCALE
  5
55
102
{ACAD_REACTORS
330
47
102
}
330
47
100
AcDbScale
 70
     0
300
1-1/2" = 1'-0"
140
1.5
141
12.0
290
     0
  0
SCALE
  5
56
102
{ACAD_REACTORS
330
47
102
}
330
47
100
AcDbScale
 70
     0
300
3" = 1'-0"
140
3.0
141
12.0
290
     0
  0
SCALE
  5
57
102
{ACAD_REACTORS
330
47
102
}
330
47
100
AcDbScale
 70
     0
300
6" = 1'-0"
140
6.0
141
12.0
290
     0
  0
SCALE
  5
58
102
{ACAD_REACTORS
330
47
102
}
330
47
100
AcDbScale
 70
     0
300
1'-0" = 1'-0"
140
12.0
141
12.0
290
     0
  0
TABLESTYLE
  5
5A
102
{ACAD_REACTORS
330
59
102
}
102
{ACAD_XDICTIONARY
360
A6
102
}
330
59
100
AcDbTableStyle
  3
Standard
 70
     0
 71
     0
 40
0.06
 41
0.06
280
     0
281
     0
  7
Standard
140
0.18
170
     2
 62
     0
 63
   257
283
     0
 90
        4
 91
        0
  1

274
    -2
284
     1
 64
     0
275
    -2
285
     1
 65
     0
276
    -2
286
     1
 66
     0
277
    -2
287
     1
 67
     0
278
    -2
288
     1
 68
     0
279
    -2
289
     1
 69
     0
  7
Standard
140
0.25
170
     5
 62
     0
 63
   257
283
     0
 90
        4
 91
        0
  1

274
    -2
284
     1
 64
     0
275
    -2
285
     1
 65
     0
276
    -2
286
     1
 66
     0
277
    -2
287
     1
 67
     0
278
    -2
288
     1
 68
     0
279
    -2
289
     1
 69
     0
  7
Standard
140
0.18
170
     5
 62
     0
 63
   257
283
     0
 90
        4
 91
        0
  1

274
    -2
284
     1
 64
     0
275
    -2
285
     1
 65
     0
276
    -2
286
     1
 66
     0
277
    -2
287
     1
 67
     0
278
    -2
288
     1
 68
     0
279
    -2
289
     1
 69
     0
  0
VISUALSTYLE
  5
2F
102
{ACAD_REACTORS
330
2A
102
}
330
2A
100
AcDbVisualStyle
  2
2dWireframe
 70
     4
177
     3
291
     0
 70
    58
 90
        0
176
     1
 90
        2
176
     1
 90
        0
176
     1
 90
        0
176
     1
 40
0.6
176
     1
 40
30.0
176
     1
 62
     7
420
 16777215
176
     1
 90
        1
176
     1
 90
        4
176
     1
 62
     7
176
     1
 62
   257
176
     1
 90
        1
176
     1
 90
        1
176
     1
 40
1.0
176
     1
 90
        0
176
     1
 62
   257
176
     1
 40
1.0
176
     1
 90
        1
176
     1
 90
        6
176
     1
 90
        2
176
     1
 62
     7
176
     1
 90
        5
176
     1
 90
        0
176
     1
 90
        0
176
     1
290
     0
176
     1
 90
        1
176
     1
 40
0.0
176
     1
 90
        0
176
     1
290
     1
176
     1
290
     1
176
     1
290
     0
176
     1
290
     0
176
     1
290
     0
176
     1
290
     0
176
     1
290
     0
176
     1
290
     0
176
     1
290
     0
176
     1
 90
       50
176
     1
 40
0.0
176
     1
 40
1.0
176
     1
 90
        0
176
     1
 62
    18
420
        0
176
     1
 90
       50
176
     1
 90
        3
176
     1
 62
     5
420
      255
176
     1
290
     0
176
     1
 90
       50
176
     1
 90
       50
176
     1
 90
       50
176
     1
290
     0
176
     1
 90
       50
176
     1
 62
   256
176
     0
 40
1.0
176
     0
 90
        2
176
     1
  1
strokes_ogs.tif
176
     1
290
     0
176
     1
 40
1.0
176
     1
 40
1.0
176
     1
  0
VISUALSTYLE
  5
32
102
{ACAD_REACTORS
330
2A
102
}
330
2A
100
AcDbVisualStyle
  2
Basic
 70
     7
177
     3
291
     1
 70
    58
 90
        1
176
     1
 90
        0
176
     1
 90
        1
176
     1
 90
        0
176
     1
 40
0.6
176
     1
 40
30.0
176
     1
 62
     7
420
 16777215
176
     1
 90
        0
176
     1
 90
        4
176
     1
 62
     7
176
     1
 62
   257
176
     1
 90
        1
176
     1
 90
        1
176
     1
 40
1.0
176
     1
 90
        8
176
     1
 62
     7
176
     1
 40
1.0
176
     1
 90
        1
176
     1
 90
        6
176
     1
 90
        2
176
     1
 62
     7
176
     1
 90
        5
176
     1
 90
        0
176
     1
 90
        0
176
     1
290
     0
176
     1
 90
        1
176
     1
 40
0.0
176
     1
 90
        0
176
     1
290
     0
176
     1
290
     1
176
     1
290
     1
176
     1
290
     0
176
     1
290
     0
176
     1
290
     0
176
     1
290
     0
176
     1
290
     0
176
     1
290
     0
176
     1
 90
       50
176
     1
 40
0.0
176
     1
 40
1.0
176
     1
 90
        0
176
     1
 62
    18
420
        0
176
     1
 90
       50
176
     1
 90
        3
176
     1
 62
     5
420
      255
176
     1
290
     0
176
     1
 90
       50
176
     1
 90
       50
176
     1
 90
       50
176
     1
290
     0
176
     1
 90
       50
176
     1
 62
   256
176
     0
 40
1.0
176
     0
 90
        2
176
     1
  1
strokes_ogs.tif
176
     1
290
     0
176
     1
 40
1.0
176
     1
 40
1.0
176
     1
  0
VISUALSTYLE
  5
36
102
{ACAD_REACTORS
330
2A
102
}
330
2A
100
AcDbVisualStyle
  2
Brighten
 70
    12
177
     3
291
     1
 70
    58
 90
        2
176
     1
 90
        2
176
     1
 90
        0
176
     1
 90
        0
176
     1
 40
0.6
176
     1
 40
30.0
176
     1
 62
     7
420
 16777215
176
     1
 90
        1
176
     1
 90
        4
176
     1
 62
     7
176
     1
 62
   257
176
     1
 90
        1
176
     1
 90
        1
176
     1
 40
1.0
176
     1
 90
        8
176
     1
 62
     7
176
     1
 40
1.0
176
     1
 90
        1
176
     1
 90
        6
176
     1
 90
        2
176
     1
 62
     7
176
     1
 90
        5
176
     1
 90
        0
176
     1
 90
        0
176
     1
290
     0
176
     1
 90
        1
176
     1
 40
50.0
176
     1
 90
        0
176
     1
290
     0
176
     1
290
     1
176
     1
290
     1
176
     1
290
     0
176
     1
290
     0
176
     1
290
     0
176
     1
290
     0
176
     1
290
     0
176
     1
290
     0
176
     1
 90
       50
176
     1
 40
0.0
176
     1
 40
1.0
176
     1
 90
        0
176
     1
 62
    18
420
        0
176
     1
 90
       50
176
     1
 90
        3
176
     1
 62
     5
420
      255
176
     1
290
     0
176
     1
 90
       50
176
     1
 90
       50
176
     1
 90
       50
176
     1
290
     0
176
     1
 90
       50
176
     1
 62
   256
176
     0
 40
1.0
176
     0
 90
        2
176
     1
  1
strokes_ogs.tif
176
     1
290
     0
176
     1
 40
1.0
176
     1
 40
1.0
176
     1
  0
VISUALSTYLE
  5
3A
102
{ACAD_REACTORS
330
2A
102
}
330
2A
100
AcDbVisualStyle
  2
ColorChange
 70
    16
177
     3
291
     1
 70
    58
 90
        2
176
     1
 90
        2
176
     1
 90
        3
176
     1
 90
        0
176
     1
 40
0.6
176
     1
 40
30.0
176
     1
 62
     8
420
  8421504
176
     1
 90
        1
176
     1
 90
        4
176
     1
 62
     7
176
     1
 62
   257
176
     1
 90
        1
176
     1
 90
        1
176
     1
 40
1.0
176
     1
 90
        8
176
     1
 62
     8
420
  8421504
176
     1
 40
1.0
176
     1
 90
        1
176
     1
 90
        6
176
     1
 90
        2
176
     1
 62
     7
176
     1
 90
        5
176
     1
 90
        0
176
     1
 90
        0
176
     1
290
     0
176
     1
 90
        1
176
     1
 40
0.0
176
     1
 90
        0
176
     1
290
     0
176
     1
290
     1
176
     1
290
     1
176
     1
290
     0
176
     1
290
     0
176
     1
290
     0
176
     1
290
     0
176
     1
290
     0
176
     1
290
     0
176
     1
 90
       50
176
     1
 40
0.0
176
     1
 40
1.0
176
     1
 90
        0
176
     1
 62
    18
420
        0
176
     1
 90
       50
176
     1
 90
        3
176
     1
 62
     5
420
      255
176
     1
290
     0
176
     1
 90
       50
176
     1
 90
       50
176
     1
 90
       50
176
     1
290
     0
176
     1
 90
       50
176
     1
 62
   256
176
     0
 40
1.0
176
     0
 90
        2
176
     1
  1
strokes_ogs.tif
176
     1
290
     0
176
     1
 40
1.0
176
     1
 40
1.0
176
     1
  0
VISUALSTYLE
  5
34
102
{ACAD_REACTORS
330
2A
102
}
330
2A
100
AcDbVisualStyle
  2
Conceptual
 70
     9
177
     3
291
     0
 70
    58
 90
        3
176
     1
 90
        2
176
     1
 90
        0
176
     1
 90
        0
176
     1
 40
0.6
176
     1
 40
30.0
176
     1
 62
     7
420
 16777215
176
     1
 90
        2
176
     1
 90
        2
176
     1
 62
     7
176
     1
 62
   257
176
     1
 90
        1
176
     1
 90
        1
176
     1
 40
179.0
176
     1
 90
        8
176
     1
 62
     7
176
     1
 40
1.0
176
     1
 90
        1
176
     1
 90
        6
176
     1
 90
        2
176
     1
 62
     7
176
     1
 90
        3
176
     1
 90
        0
176
     1
 90
        0
176
     1
290
     0
176
     1
 90
        1
176
     1
 40
0.0
176
     1
 90
        0
176
     1
290
     0
176
     1
290
     1
176
     1
290
     1
176
     1
290
     0
176
     1
290
     0
176
     1
290
     0
176
     1
290
     0
176
     1
290
     0
176
     1
290
     0
176
     1
 90
       50
176
     1
 40
0.0
176
     1
 40
1.0
176
     1
 90
        0
176
     1
 62
    18
420
        0
176
     1
 90
       50
176
     1
 90
        3
176
     1
 62
     5
420
      255
176
     1
290
     0
176
     1
 90
       50
176
     1
 90
       50
176
     1
 90
       50
176
     1
290
     0
176
     1
 90
       50
176
     1
 62
   256
176
     0
 40
1.0
176
     0
 90
        2
176
     1
  1
strokes_ogs.tif
176
     1
290
     0
176
     1
 40
1.0
176
     1
 40
1.0
176
     1
  0
VISUALSTYLE
  5
35
102
{ACAD_REACTORS
330
2A
102
}
330
2A
100
AcDbVisualStyle
  2
Dim
 70
    11
177
     3
291
     1
 70
    58
 90
        2
176
     1
 90
        2
176
     1
 90
        0
176
     1
 90
        0
176
     1
 40
0.6
176
     1
 40
30.0
176
     1
 62
     7
420
 16777215
176
     1
 90
        1
176
     1
 90
        4
176
     1
 62
     7
176
     1
 62
   257
176
     1
 90
        1
176
     1
 90
        1
176
     1
 40
1.0
176
     1
 90
        8
176
     1
 62
     7
176
     1
 40
1.0
176
     1
 90
        1
176
     1
 90
        6
176
     1
 90
        2
176
     1
 62
     7
176
     1
 90
        5
176
     1
 90
        0
176
     1
 90
        0
176
     1
290
     0
176
     1
 90
        1
176
     1
 40
-50.0
176
     1
 90
        0
176
     1
290
     0
176
     1
290
     1
176
     1
290
     1
176
     1
290
     0
176
     1
290
     0
176
     1
290
     0
176
     1
290
     0
176
     1
290
     0
176
     1
290
     0
176
     1
 90
       50
176
     1
 40
0.0
176
     1
 40
1.0
176
     1
 90
        0
176
     1
 62
    18
420
        0
176
     1
 90
       50
176
     1
 90
        3
176
     1
 62
     5
420
      255
176
     1
290
     0
176
     1
 90
       50
176
     1
 90
       50
176
     1
 90
       50
176
     1
290
     0
176
     1
 90
       50
176
     1
 62
   256
176
     0
 40
1.0
176
     0
 90
        2
176
     1
  1
strokes_ogs.tif
176
     1
290
     0
176
     1
 40
1.0
176
     1
 40
1.0
176
     1
  0
VISUALSTYLE
  5
3D
102
{ACAD_REACTORS
330
2A
102
}
330
2A
100
AcDbVisualStyle
  2
EdgeColorOff
 70
    22
177
     3
291
     1
 70
    58
 90
        2
176
     0
 90
        2
176
     0
 90
        0
176
     0
 90
        0
176
     0
 40
0.6
176
     0
 40
30.0
176
     0
 62
     7
420
 16777215
176
     0
 90
        1
176
     0
 90
        4
176
     0
 62
     7
176
     0
 62
   257
176
     0
 90
        1
176
     0
 90
        1
176
     0
 40
1.0
176
     0
 90
        8
176
     2
 62
     7
176
     0
 40
1.0
176
     0
 90
        1
176
     0
 90
        6
176
     0
 90
        2
176
     0
 62
     7
176
     0
 90
        5
176
     0
 90
        0
176
     0
 90
        0
176
     0
290
     0
176
     0
 90
        1
176
     0
 40
0.0
176
     0
 90
        0
176
     0
290
     0
176
     0
290
     1
176
     0
290
     1
176
     0
290
     0
176
     0
290
     0
176
     0
290
     0
176
     0
290
     0
176
     0
290
     0
176
     0
290
     0
176
     0
 90
       50
176
     0
 40
0.0
176
     0
 40
1.0
176
     0
 90
        0
176
     0
 62
    18
420
        0
176
     0
 90
       50
176
     0
 90
        3
176
     0
 62
     5
420
      255
176
     0
290
     0
176
     0
 90
       50
176
     0
 90
       50
176
     0
 90
       50
176
     0
290
     0
176
     0
 90
       50
176
     0
 62
   256
176
     0
 40
1.0
176
     0
 90
        2
176
     0
  1
strokes_ogs.tif
176
     0
290
     0
176
     0
 40
1.0
176
     0
 40
1.0
176
     0
  0
VISUALSTYLE
  5
39
102
{ACAD_REACTORS
330
2A
102
}
330
2A
100
AcDbVisualStyle
  2
Facepattern
 70
    15
177
     3
291
     1
 70
    58
 90
        2
176
     1
 90
        2
176
     1
 90
        0
176
     1
 90
        0
176
     1
 40
0.6
176
     1
 40
30.0
176
     1
 62
     7
420
 16777215
176
     1
 90
        1
176
     1
 90
        4
176
     1
 62
     7
176
     1
 62
   257
176
     1
 90
        1
176
     1
 90
        1
176
     1
 40
1.0
176
     1
 90
        8
176
     1
 62
     7
176
     1
 40
1.0
176
     1
 90
        1
176
     1
 90
        6
176
     1
 90
        2
176
     1
 62
     7
176
     1
 90
        5
176
     1
 90
        0
176
     1
 90
        0
176
     1
290
     0
176
     1
 90
        1
176
     1
 40
0.0
176
     1
 90
        0
176
     1
290
     0
176
     1
290
     1
176
     1
290
     1
176
     1
290
     0
176
     1
290
     0
176
     1
290
     0
176
     1
290
     0
176
     1
290
     0
176
     1
290
     0
176
     1
 90
       50
176
     1
 40
0.0
176
     1
 40
1.0
176
     1
 90
        0
176
     1
 62
    18
420
        0
176
     1
 90
       50
176
     1
 90
        3
176
     1
 62
     5
420
      255
176
     1
290
     0
176
     1
 90
       50
176
     1
 90
       50
176
     1
 90
       50
176
     1
290
     0
176
     1
 90
       50
176
     1
 62
   256
176
     0
 40
1.0
176
     0
 90
        2
176
     1
  1
strokes_ogs.tif
176
     1
290
     0
176
     1
 40
1.0
176
     1
 40
1.0
176
     1
  0
VISUALSTYLE
  5
2B
102
{ACAD_REACTORS
330
2A
102
}
330
2A
100
AcDbVisualStyle
  2
Flat
 70
     0
177
     3
291
     1
 70
    58
 90
        2
176
     1
 90
        1
176
     1
 90
        1
176
     1
 90
        2
176
     1
 40
0.6
176
     1
 40
30.0
176
     1
 62
     7
420
 16777215
176
     1
 90
        0
176
     1
 90
        0
176
     1
 62
     7
176
     1
 62
   257
176
     1
 90
        1
176
     1
 90
        1
176
     1
 40
1.0
176
     1
 90
        8
176
     1
 62
     7
176
     1
 40
1.0
176
     1
 90
        1
176
     1
 90
        6
176
     1
 90
        2
176
     1
 62
     7
176
     1
 90
        5
176
     1
 90
        0
176
     1
 90
        0
176
     1
290
     0
176
     1
 90
       13
176
     1
 40
0.0
176
     1
 90
        0
176
     1
290
     0
176
     1
290
     1
176
     1
290
     1
176
     1
290
     0
176
     1
290
     0
176
     1
290
     0
176
     1
290
     0
176
     1
290
     0
176
     1
290
     0
176
     1
 90
       50
176
     1
 40
0.0
176
     1
 40
1.0
176
     1
 90
        0
176
     1
 62
    18
420
        0
176
     1
 90
       50
176
     1
 90
        3
176
     1
 62
     5
420
      255
176
     1
290
     0
176
     1
 90
       50
176
     1
 90
       50
176
     1
 90
       50
176
     1
290
     0
176
     1
 90
       50
176
     1
 62
   256
176
     0
 40
1.0
176
     0
 90
        2
176
     1
  1
strokes_ogs.tif
176
     1
290
     0
176
     1
 40
1.0
176
     1
 40
1.0
176
     1
  0
VISUALSTYLE
  5
2C
102
{ACAD_REACTORS
330
2A
102
}
330
2A
100
AcDbVisualStyle
  2
FlatWithEdges
 70
     1
177
     3
291
     1
 70
    58
 90
        2
176
     1
 90
        1
176
     1
 90
        1
176
     1
 90
        2
176
     1
 40
0.6
176
     1
 40
30.0
176
     1
 62
     7
420
 16777215
176
     1
 90
        1
176
     1
 90
        0
176
     1
 62
     7
176
     1
 62
   257
176
     1
 90
        1
176
     1
 90
        1
176
     1
 40
1.0
176
     1
 90
        0
176
     1
 62
   257
176
     1
 40
1.0
176
     1
 90
        1
176
     1
 90
        6
176
     1
 90
        2
176
     1
 62
     7
176
     1
 90
        5
176
     1
 90
        0
176
     1
 90
        0
176
     1
290
     0
176
     1
 90
       13
176
     1
 40
0.0
176
     1
 90
        0
176
     1
290
     0
176
     1
290
     1
176
     1
290
     1
176
     1
290
     0
176
     1
290
     0
176
     1
290
     0
176
     1
290
     0
176
     1
290
     0
176
     1
290
     0
176
     1
 90
       50
176
     1
 40
0.0
176
     1
 40
1.0
176
     1
 90
        0
176
     1
 62
    18
420
        0
176
     1
 90
       50
176
     1
 90
        3
176
     1
 62
     5
420
      255
176
     1
290
     0
176
     1
 90
       50
176
     1
 90
       50
176
     1
 90
       50
176
     1
290
     0
176
     1
 90
       50
176
     1
 62
   256
176
     0
 40
1.0
176
     0
 90
        2
176
     1
  1
strokes_ogs.tif
176
     1
290
     0
176
     1
 40
1.0
176
     1
 40
1.0
176
     1
  0
VISUALSTYLE
  5
2D
102
{ACAD_REACTORS
330
2A
102
}
330
2A
100
AcDbVisualStyle
  2
Gouraud
 70
     2
177
     3
291
     1
 70
    58
 90
        2
176
     1
 90
        2
176
     1
 90
        1
176
     1
 90
        2
176
     1
 40
0.6
176
     1
 40
30.0
176
     1
 62
     7
420
 16777215
176
     1
 90
        0
176
     1
 90
        0
176
     1
 62
     7
176
     1
 62
   257
176
     1
 90
        1
176
     1
 90
        1
176
     1
 40
1.0
176
     1
 90
        0
176
     1
 62
     7
176
     1
 40
1.0
176
     1
 90
        1
176
     1
 90
        6
176
     1
 90
        2
176
     1
 62
     7
176
     1
 90
        5
176
     1
 90
        0
176
     1
 90
        0
176
     1
290
     0
176
     1
 90
       13
176
     1
 40
0.0
176
     1
 90
        0
176
     1
290
     0
176
     1
290
     1
176
     1
290
     1
176
     1
290
     0
176
     1
290
     0
176
     1
290
     0
176
     1
290
     0
176
     1
290
     0
176
     1
290
     0
176
     1
 90
       50
176
     1
 40
0.0
176
     1
 40
1.0
176
     1
 90
        0
176
     1
 62
    18
420
        0
176
     1
 90
       50
176
     1
 90
        3
176
     1
 62
     5
420
      255
176
     1
290
     0
176
     1
 90
       50
176
     1
 90
       50
176
     1
 90
       50
176
     1
290
     0
176
     1
 90
       50
176
     1
 62
   256
176
     0
 40
1.0
176
     0
 90
        2
176
     1
  1
strokes_ogs.tif
176
     1
290
     0
176
     1
 40
1.0
176
     1
 40
1.0
176
     1
  0
VISUALSTYLE
  5
2E
102
{ACAD_REACTORS
330
2A
102
}
330
2A
100
AcDbVisualStyle
  2
GouraudWithEdges
 70
     3
177
     3
291
     1
 70
    58
 90
        2
176
     1
 90
        2
176
     1
 90
        1
176
     1
 90
        2
176
     1
 40
0.6
176
     1
 40
30.0
176
     1
 62
     7
420
 16777215
176
     1
 90
        1
176
     1
 90
        0
176
     1
 62
     7
176
     1
 62
   257
176
     1
 90
        1
176
     1
 90
        1
176
     1
 40
1.0
176
     1
 90
        0
176
     1
 62
   257
176
     1
 40
1.0
176
     1
 90
        1
176
     1
 90
        6
176
     1
 90
        2
176
     1
 62
     7
176
     1
 90
        5
176
     1
 90
        0
176
     1
 90
        0
176
     1
290
     0
176
     1
 90
       13
176
     1
 40
0.0
176
     1
 90
        0
176
     1
290
     0
176
     1
290
     1
176
     1
290
     1
176
     1
290
     0
176
     1
290
     0
176
     1
290
     0
176
     1
290
     0
176
     1
290
     0
176
     1
290
     0
176
     1
 90
       50
176
     1
 40
0.0
176
     1
 40
1.0
176
     1
 90
        0
176
     1
 62
    18
420
        0
176
     1
 90
       50
176
     1
 90
        3
176
     1
 62
     5
420
      255
176
     1
290
     0
176
     1
 90
       50
176
     1
 90
       50
176
     1
 90
       50
176
     1
290
     0
176
     1
 90
       50
176
     1
 62
   256
176
     0
 40
1.0
176
     0
 90
        2
176
     1
  1
strokes_ogs.tif
176
     1
290
     0
176
     1
 40
1.0
176
     1
 40
1.0
176
     1
  0
VISUALSTYLE
  5
31
102
{ACAD_REACTORS
330
2A
102
}
330
2A
100
AcDbVisualStyle
  2
Hidden
 70
     6
177
     3
291
     0
 70
    58
 90
        1
176
     1
 90
        2
176
     1
 90
        2
176
     1
 90
        0
176
     1
 40
0.6
176
     1
 40
30.0
176
     1
 62
     7
420
 16777215
176
     1
 90
        2
176
     1
 90
        2
176
     1
 62
     7
176
     1
 62
   257
176
     1
 90
        2
176
     1
 90
        1
176
     1
 40
40.0
176
     1
 90
        0
176
     1
 62
   257
176
     1
 40
1.0
176
     1
 90
        1
176
     1
 90
        6
176
     1
 90
        2
176
     1
 62
     7
176
     1
 90
        3
176
     1
 90
        0
176
     1
 90
        0
176
     1
290
     0
176
     1
 90
        1
176
     1
 40
0.0
176
     1
 90
        0
176
     1
290
     0
176
     1
290
     1
176
     1
290
     1
176
     1
290
     0
176
     1
290
     0
176
     1
290
     0
176
     1
290
     0
176
     1
290
     0
176
     1
290
     0
176
     1
 90
       50
176
     1
 40
0.0
176
     1
 40
1.0
176
     1
 90
        0
176
     1
 62
    18
420
        0
176
     1
 90
       50
176
     1
 90
        3
176
     1
 62
     5
420
      255
176
     1
290
     0
176
     1
 90
       50
176
     1
 90
       50
176
     1
 90
       50
176
     1
290
     0
176
     1
 90
       50
176
     1
 62
   256
176
     0
 40
1.0
176
     0
 90
        2
176
     1
  1
strokes_ogs.tif
176
     1
290
     0
176
     1
 40
1.0
176
     1
 40
1.0
176
     1
  0
VISUALSTYLE
  5
3B
102
{ACAD_REACTORS
330
2A
102
}
330
2A
100
AcDbVisualStyle
  2
JitterOff
 70
    20
177
     3
291
     1
 70
    58
 90
        2
176
     0
 90
        2
176
     0
 90
        0
176
     0
 90
        0
176
     0
 40
0.6
176
     0
 40
30.0
176
     0
 62
     7
420
 16777215
176
     0
 90
        1
176
     0
 90
        4
176
     0
 62
     7
176
     0
 62
   257
176
     0
 90
        1
176
     0
 90
        1
176
     0
 40
1.0
176
     0
 90
       10
176
     2
 62
     7
176
     0
 40
1.0
176
     0
 90
        1
176
     0
 90
        6
176
     0
 90
        2
176
     0
 62
     7
176
     0
 90
        5
176
     0
 90
        0
176
     0
 90
        0
176
     0
290
     0
176
     0
 90
        1
176
     0
 40
0.0
176
     0
 90
        0
176
     0
290
     0
176
     0
290
     1
176
     0
290
     1
176
     0
290
     0
176
     0
290
     0
176
     0
290
     0
176
     0
290
     0
176
     0
290
     0
176
     0
290
     0
176
     0
 90
       50
176
     0
 40
0.0
176
     0
 40
1.0
176
     0
 90
        0
176
     0
 62
    18
420
        0
176
     0
 90
       50
176
     0
 90
        3
176
     0
 62
     5
420
      255
176
     0
290
     0
176
     0
 90
       50
176
     0
 90
       50
176
     0
 90
       50
176
     0
290
     0
176
     0
 90
       50
176
     0
 62
   256
176
     0
 40
1.0
176
     0
 90
        2
176
     0
  1
strokes_ogs.tif
176
     0
290
     0
176
     0
 40
1.0
176
     0
 40
1.0
176
     0
  0
VISUALSTYLE
  5
38
102
{ACAD_REACTORS
330
2A
102
}
330
2A
100
AcDbVisualStyle
  2
Linepattern
 70
    14
177
     3
291
     1
 70
    58
 90
        2
176
     1
 90
        2
176
     1
 90
        0
176
     1
 90
        0
176
     1
 40
0.6
176
     1
 40
30.0
176
     1
 62
     7
420
 16777215
176
     1
 90
        1
176
     1
 90
        4
176
     1
 62
     7
176
     1
 62
   257
176
     1
 90
        7
176
     1
 90
        7
176
     1
 40
1.0
176
     1
 90
        8
176
     1
 62
     7
176
     1
 40
1.0
176
     1
 90
        1
176
     1
 90
        6
176
     1
 90
        2
176
     1
 62
     7
176
     1
 90
        5
176
     1
 90
        0
176
     1
 90
        0
176
     1
290
     0
176
     1
 90
        1
176
     1
 40
0.0
176
     1
 90
        0
176
     1
290
     0
176
     1
290
     1
176
     1
290
     1
176
     1
290
     0
176
     1
290
     0
176
     1
290
     0
176
     1
290
     0
176
     1
290
     0
176
     1
290
     0
176
     1
 90
       50
176
     1
 40
0.0
176
     1
 40
1.0
176
     1
 90
        0
176
     1
 62
    18
420
        0
176
     1
 90
       50
176
     1
 90
        3
176
     1
 62
     5
420
      255
176
     1
290
     0
176
     1
 90
       50
176
     1
 90
       50
176
     1
 90
       50
176
     1
290
     0
176
     1
 90
       50
176
     1
 62
   256
176
     0
 40
1.0
176
     0
 90
        2
176
     1
  1
strokes_ogs.tif
176
     1
290
     0
176
     1
 40
1.0
176
     1
 40
1.0
176
     1
  0
VISUALSTYLE
  5
3C
102
{ACAD_REACTORS
330
2A
102
}
330
2A
100
AcDbVisualStyle
  2
OverhangOff
 70
    21
177
     3
291
     1
 70
    58
 90
        2
176
     0
 90
        2
176
     0
 90
        0
176
     0
 90
        0
176
     0
 40
0.6
176
     0
 40
30.0
176
     0
 62
     7
420
 16777215
176
     0
 90
        1
176
     0
 90
        4
176
     0
 62
     7
176
     0
 62
   257
176
     0
 90
        1
176
     0
 90
        1
176
     0
 40
1.0
176
     0
 90
        9
176
     2
 62
     7
176
     0
 40
1.0
176
     0
 90
        1
176
     0
 90
        6
176
     0
 90
        2
176
     0
 62
     7
176
     0
 90
        5
176
     0
 90
        0
176
     0
 90
        0
176
     0
290
     0
176
     0
 90
        1
176
     0
 40
0.0
176
     0
 90
        0
176
     0
290
     0
176
     0
290
     1
176
     0
290
     1
176
     0
290
     0
176
     0
290
     0
176
     0
290
     0
176
     0
290
     0
176
     0
290
     0
176
     0
290
     0
176
     0
 90
       50
176
     0
 40
0.0
176
     0
 40
1.0
176
     0
 90
        0
176
     0
 62
    18
420
        0
176
     0
 90
       50
176
     0
 90
        3
176
     0
 62
     5
420
      255
176
     0
290
     0
176
     0
 90
       50
176
     0
 90
       50
176
     0
 90
       50
176
     0
290
     0
176
     0
 90
       50
176
     0
 62
   256
176
     0
 40
1.0
176
     0
 90
        2
176
     0
  1
strokes_ogs.tif
176
     0
290
     0
176
     0
 40
1.0
176
     0
 40
1.0
176
     0
  0
VISUALSTYLE
  5
33
102
{ACAD_REACTORS
330
2A
102
}
330
2A
100
AcDbVisualStyle
  2
Realistic
 70
     8
177
     3
291
     0
 70
    58
 90
        2
176
     1
 90
        3
176
     1
 90
        0
176
     1
 90
        2
176
     1
 40
0.6
176
     1
 40
30.0
176
     1
 62
     7
420
 16777215
176
     1
 90
        0
176
     1
 90
        0
176
     1
 62
     7
176
     1
 62
   257
176
     1
 90
        1
176
     1
 90
        1
176
     1
 40
1.0
176
     1
 90
        8
176
     1
 62
   257
176
     1
 40
1.0
176
     1
 90
        1
176
     1
 90
        6
176
     1
 90
        2
176
     1
 62
     7
176
     1
 90
        3
176
     1
 90
        0
176
     1
 90
        0
176
     1
290
     0
176
     1
 90
       13
176
     1
 40
0.0
176
     1
 90
        0
176
     1
290
     0
176
     1
290
     1
176
     1
290
     1
176
     1
290
     0
176
     1
290
     0
176
     1
290
     0
176
     1
290
     0
176
     1
290
     0
176
     1
290
     0
176
     1
 90
       50
176
     1
 40
0.0
176
     1
 40
1.0
176
     1
 90
        0
176
     1
 62
    18
420
        0
176
     1
 90
       50
176
     1
 90
        3
176
     1
 62
     5
420
      255
176
     1
290
     0
176
     1
 90
       50
176
     1
 90
       50
176
     1
 90
       50
176
     1
290
     0
176
     1
 90
       50
176
     1
 62
   256
176
     0
 40
1.0
176
     0
 90
        2
176
     1
  1
strokes_ogs.tif
176
     1
290
     0
176
     1
 40
1.0
176
     1
 40
1.0
176
     1
  0
VISUALSTYLE
  5
42
102
{ACAD_REACTORS
330
2A
102
}
330
2A
100
AcDbVisualStyle
  2
Shaded
 70
    27
177
     3
291
     0
 70
    58
 90
        2
176
     1
 90
        2
176
     1
 90
        1
176
     1
 90
        2
176
     1
 40
0.6
176
     1
 40
30.0
176
     1
 62
     7
420
 16777215
176
     1
 90
        0
176
     1
 90
        4
176
     1
 62
     7
176
     1
 62
   257
176
     1
 90
        1
176
     1
 90
        1
176
     1
 40
1.0
176
     1
 90
        8
176
     1
 62
   257
176
     1
 40
1.0
176
     1
 90
        1
176
     1
 90
        6
176
     1
 90
        2
176
     1
 62
     8
420
  7895160
176
     1
 90
        3
176
     1
 90
        0
176
     1
 90
        0
176
     1
290
     0
176
     1
 90
        5
176
     1
 40
0.0
176
     1
 90
        0
176
     1
290
     0
176
     1
290
     1
176
     1
290
     1
176
     1
290
     0
176
     1
290
     0
176
     1
290
     0
176
     1
290
     0
176
     1
290
     0
176
     1
290
     0
176
     1
 90
       50
176
     1
 40
0.0
176
     1
 40
1.0
176
     1
 90
        0
176
     1
 62
    18
420
        0
176
     1
 90
       50
176
     1
 90
        3
176
     1
 62
     5
420
      255
176
     1
290
     0
176
     1
 90
       50
176
     1
 90
       50
176
     1
 90
       50
176
     1
290
     0
176
     1
 90
       50
176
     1
 62
   256
176
     0
 40
1.0
176
     0
 90
        2
176
     1
  1
strokes_ogs.tif
176
     1
290
     0
176
     1
 40
1.0
176
     1
 40
1.0
176
     1
  0
VISUALSTYLE
  5
41
102
{ACAD_REACTORS
330
2A
102
}
330
2A
100
AcDbVisualStyle
  2
Shaded with edges
 70
    26
177
     3
291
     0
 70
    58
 90
        2
176
     1
 90
        2
176
     1
 90
        1
176
     1
 90
        2
176
     1
 40
0.6
176
     1
 40
30.0
176
     1
 62
     7
420
 16777215
176
     1
 90
        1
176
     1
 90
       10
176
     1
 62
     7
176
     1
 62
   257
176
     1
 90
        2
176
     1
 90
        1
176
     1
 40
1.0
176
     1
 90
        8
176
     1
 62
   257
176
     1
 40
1.0
176
     1
 90
        1
176
     1
 90
        6
176
     1
 90
        2
176
     1
 62
     7
176
     1
 90
        3
176
     1
 90
        0
176
     1
 90
        0
176
     1
290
     0
176
     1
 90
        5
176
     1
 40
0.0
176
     1
 90
        0
176
     1
290
     0
176
     1
290
     1
176
     1
290
     1
176
     1
290
     0
176
     1
290
     0
176
     1
290
     0
176
     1
290
     0
176
     1
290
     0
176
     1
290
     0
176
     1
 90
       50
176
     1
 40
0.0
176
     1
 40
1.0
176
     1
 90
        0
176
     1
 62
    18
420
        0
176
     1
 90
       50
176
     1
 90
        3
176
     1
 62
     5
420
      255
176
     1
290
     0
176
     1
 90
       50
176
     1
 90
       50
176
     1
 90
       50
176
     1
290
     0
176
     1
 90
       50
176
     1
 62
   256
176
     0
 40
1.0
176
     0
 90
        2
176
     1
  1
strokes_ogs.tif
176
     1
290
     0
176
     1
 40
1.0
176
     1
 40
1.0
176
     1
  0
VISUALSTYLE
  5
3E
102
{ACAD_REACTORS
330
2A
102
}
330
2A
100
AcDbVisualStyle
  2
Shades of Gray
 70
    23
177
     3
291
     0
 70
    58
 90
        2
176
     1
 90
        2
176
     1
 90
        3
176
     1
 90
        0
176
     1
 40
0.6
176
     1
 40
30.0
176
     1
 62
     7
420
 16777215
176
     1
 90
        2
176
     1
 90
        2
176
     1
 62
     7
176
     1
 62
     7
176
     1
 90
        1
176
     1
 90
        1
176
     1
 40
40.0
176
     1
 90
        8
176
     1
 62
     7
176
     1
 40
1.0
176
     1
 90
        1
176
     1
 90
        6
176
     1
 90
        2
176
     1
 62
     7
176
     1
 90
        3
176
     1
 90
        0
176
     1
 90
        0
176
     1
290
     0
176
     1
 90
        1
176
     1
 40
0.0
176
     1
 90
        0
176
     1
290
     0
176
     1
290
     1
176
     1
290
     1
176
     1
290
     0
176
     1
290
     0
176
     1
290
     0
176
     1
290
     0
176
     1
290
     0
176
     1
290
     0
176
     1
 90
       50
176
     1
 40
0.0
176
     1
 40
1.0
176
     1
 90
        0
176
     1
 62
    18
420
        0
176
     1
 90
       50
176
     1
 90
        3
176
     1
 62
     5
420
      255
176
     1
290
     0
176
     1
 90
       50
176
     1
 90
       50
176
     1
 90
       50
176
     1
290
     0
176
     1
 90
       50
176
     1
 62
   256
176
     0
 40
1.0
176
     0
 90
        2
176
     1
  1
strokes_ogs.tif
176
     1
290
     0
176
     1
 40
1.0
176
     1
 40
1.0
176
     1
  0
VISUALSTYLE
  5
3F
102
{ACAD_REACTORS
330
2A
102
}
330
2A
100
AcDbVisualStyle
  2
Sketchy
 70
    24
177
     3
291
     0
 70
    58
 90
        1
176
     1
 90
        2
176
     1
 90
        2
176
     1
 90
        0
176
     1
 40
0.6
176
     1
 40
30.0
176
     1
 62
     7
420
 16777215
176
     1
 90
        2
176
     1
 90
        2
176
     1
 62
     7
176
     1
 62
     7
176
     1
 90
        1
176
     1
 90
        1
176
     1
 40
40.0
176
     1
 90
       11
176
     1
 62
     7
176
     1
 40
1.0
176
     1
 90
        1
176
     1
 90
        6
176
     1
 90
        2
176
     1
 62
     7
176
     1
 90
        6
176
     1
 90
        0
176
     1
 90
        0
176
     1
290
     0
176
     1
 90
        1
176
     1
 40
0.0
176
     1
 90
        0
176
     1
290
     0
176
     1
290
     1
176
     1
290
     1
176
     1
290
     0
176
     1
290
     0
176
     1
290
     0
176
     1
290
     0
176
     1
290
     0
176
     1
290
     0
176
     1
 90
       50
176
     1
 40
0.0
176
     1
 40
1.0
176
     1
 90
        0
176
     1
 62
    18
420
        0
176
     1
 90
       50
176
     1
 90
        3
176
     1
 62
     5
420
      255
176
     1
290
     0
176
     1
 90
       50
176
     1
 90
       50
176
     1
 90
       50
176
     1
290
     0
176
     1
 90
       50
176
     1
 62
   256
176
     0
 40
1.0
176
     0
 90
        2
176
     1
  1
strokes_ogs.tif
176
     1
290
     0
176
     1
 40
1.0
176
     1
 40
1.0
176
     1
  0
VISUALSTYLE
  5
37
102
{ACAD_REACTORS
330
2A
102
}
330
2A
100
AcDbVisualStyle
  2
Thicken
 70
    13
177
     3
291
     1
 70
    58
 90
        2
176
     1
 90
        2
176
     1
 90
        0
176
     1
 90
        0
176
     1
 40
0.6
176
     1
 40
30.0
176
     1
 62
     7
420
 16777215
176
     1
 90
        1
176
     1
 90
        4
176
     1
 62
     7
176
     1
 62
   257
176
     1
 90
        1
176
     1
 90
        1
176
     1
 40
1.0
176
     1
 90
       12
176
     1
 62
     7
176
     1
 40
1.0
176
     1
 90
        1
176
     1
 90
        6
176
     1
 90
        2
176
     1
 62
     7
176
     1
 90
        5
176
     1
 90
        0
176
     1
 90
        0
176
     1
290
     0
176
     1
 90
        1
176
     1
 40
0.0
176
     1
 90
        0
176
     1
290
     0
176
     1
290
     1
176
     1
290
     1
176
     1
290
     0
176
     1
290
     0
176
     1
290
     0
176
     1
290
     0
176
     1
290
     0
176
     1
290
     0
176
     1
 90
       50
176
     1
 40
0.0
176
     1
 40
1.0
176
     1
 90
        0
176
     1
 62
    18
420
        0
176
     1
 90
       50
176
     1
 90
        3
176
     1
 62
     5
420
      255
176
     1
290
     0
176
     1
 90
       50
176
     1
 90
       50
176
     1
 90
       50
176
     1
290
     0
176
     1
 90
       50
176
     1
 62
   256
176
     0
 40
1.0
176
     0
 90
        2
176
     1
  1
strokes_ogs.tif
176
     1
290
     0
176
     1
 40
1.0
176
     1
 40
1.0
176
     1
  0
VISUALSTYLE
  5
30
102
{ACAD_REACTORS
330
2A
102
}
330
2A
100
AcDbVisualStyle
  2
Wireframe
 70
     5
177
     3
291
     0
 70
    58
 90
        0
176
     1
 90
        2
176
     1
 90
        0
176
     1
 90
        0
176
     1
 40
0.6
176
     1
 40
30.0
176
     1
 62
     7
420
 16777215
176
     1
 90
        1
176
     1
 90
        4
176
     1
 62
     7
176
     1
 62
   257
176
     1
 90
        1
176
     1
 90
        1
176
     1
 40
1.0
176
     1
 90
        0
176
     1
 62
   257
176
     1
 40
1.0
176
     1
 90
        1
176
     1
 90
        6
176
     1
 90
        2
176
     1
 62
     7
176
     1
 90
        3
176
     1
 90
        0
176
     1
 90
        0
176
     1
290
     0
176
     1
 90
        1
176
     1
 40
0.0
176
     1
 90
        0
176
     1
290
     0
176
     1
290
     1
176
     1
290
     1
176
     1
290
     0
176
     1
290
     0
176
     1
290
     0
176
     1
290
     0
176
     1
290
     0
176
     1
290
     0
176
     1
 90
       50
176
     1
 40
0.0
176
     1
 40
1.0
176
     1
 90
        0
176
     1
 62
    18
420
        0
176
     1
 90
       50
176
     1
 90
        3
176
     1
 62
     5
420
      255
176
     1
290
     0
176
     1
 90
       50
176
     1
 90
       50
176
     1
 90
       50
176
     1
290
     0
176
     1
 90
       50
176
     1
 62
   256
176
     0
 40
1.0
176
     0
 90
        2
176
     1
  1
strokes_ogs.tif
176
     1
290
     0
176
     1
 40
1.0
176
     1
 40
1.0
176
     1
  0
VISUALSTYLE
  5
40
102
{ACAD_REACTORS
330
2A
102
}
330
2A
100
AcDbVisualStyle
  2
X-Ray
 70
    25
177
     3
291
     0
 70
    58
 90
        2
176
     1
 90
        2
176
     1
 90
        1
176
     1
 90
        1
176
     1
 40
0.5
176
     1
 40
30.0
176
     1
 62
     7
420
 16777215
176
     1
 90
        1
176
     1
 90
        0
176
     1
 62
     7
176
     1
 62
   257
176
     1
 90
        1
176
     1
 90
        1
176
     1
 40
1.0
176
     1
 90
        8
176
     1
 62
     7
176
     1
 40
1.0
176
     1
 90
        1
176
     1
 90
        6
176
     1
 90
        2
176
     1
 62
     7
176
     1
 90
        3
176
     1
 90
        0
176
     1
 90
        0
176
     1
290
     0
176
     1
 90
       13
176
     1
 40
0.0
176
     1
 90
        0
176
     1
290
     0
176
     1
290
     1
176
     1
290
     1
176
     1
290
     0
176
     1
290
     0
176
     1
290
     0
176
     1
290
     0
176
     1
290
     0
176
     1
290
     0
176
     1
 90
       50
176
     1
 40
0.0
176
     1
 40
1.0
176
     1
 90
        0
176
     1
 62
    18
420
        0
176
     1
 90
       50
176
     1
 90
        3
176
     1
 62
     5
420
      255
176
     1
290
     0
176
     1
 90
       50
176
     1
 90
       50
176
     1
 90
       50
176
     1
290
     0
176
     1
 90
       50
176
     1
 62
   256
176
     0
 40
1.0
176
     0
 90
        2
176
     1
  1
strokes_ogs.tif
176
     1
290
     0
176
     1
 40
1.0
176
     1
 40
1.0
176
     1
  0
DICTIONARYVAR
  5
A5
102
{ACAD_REACTORS
330
A4
102
}
330
A4
100
DictionaryVariables
280
     0
  1
1:1
  0
DICTIONARYVAR
  5
AA
102
{ACAD_REACTORS
330
A4
102
}
330
A4
100
DictionaryVariables
280
     0
  1
Standard
  0
DICTIONARYVAR
  5
A9
102
{ACAD_REACTORS
330
A4
102
}
330
A4
100
DictionaryVariables
280
     0
  1
Standard
  0
DICTIONARY
  5
A6
330
5A
100
AcDbDictionary
280
     1
281
     1
  3
ACAD_ROUNDTRIP_2008_TABLESTYLE_CELLSTYLEMAP
360
A7
  0
CELLSTYLEMAP
  5
A7
102
{ACAD_REACTORS
330
A6
102
}
330
A6
100
AcDbCellStyleMap
 90
        3
300
CELLSTYLE
  1
TABLEFORMAT_BEGIN
 90
        5
170
     1
 91
        0
 92
    32768
 62
   257
 93
        1
300
CONTENTFORMAT
  1
CONTENTFORMAT_BEGIN
 90
        0
 91
        0
 92
        4
 93
        0
300

 40
0.0
140
1.0
 94
        5
 62
     0
340
11
144
0.25
309
CONTENTFORMAT_END
171
     1
301
MARGIN
  1
CELLMARGIN_BEGIN
 40
0.06
 40
0.06
 40
0.06
 40
0.06
 40
0.06
 40
0.06
309
CELLMARGIN_END
 94
        6
 95
        1
302
GRIDFORMAT
  1
GRIDFORMAT_BEGIN
 90
        0
 91
        1
 62
     0
 92
       -2
340
14
 93
        0
 40
0.045
309
GRIDFORMAT_END
 95
        2
302
GRIDFORMAT
  1
GRIDFORMAT_BEGIN
 90
        0
 91
        1
 62
     0
 92
       -2
340
14
 93
        0
 40
0.045
309
GRIDFORMAT_END
 95
        4
302
GRIDFORMAT
  1
GRIDFORMAT_BEGIN
 90
        0
 91
        1
 62
     0
 92
       -2
340
14
 93
        0
 40
0.045
309
GRIDFORMAT_END
 95
        8
302
GRIDFORMAT
  1
GRIDFORMAT_BEGIN
 90
        0
 91
        1
 62
     0
 92
       -2
340
14
 93
        0
 40
0.045
309
GRIDFORMAT_END
 95
       16
302
GRIDFORMAT
  1
GRIDFORMAT_BEGIN
 90
        0
 91
        1
 62
     0
 92
       -2
340
14
 93
        0
 40
0.045
309
GRIDFORMAT_END
 95
       32
302
GRIDFORMAT
  1
GRIDFORMAT_BEGIN
 90
        0
 91
        1
 62
     0
 92
       -2
340
14
 93
        0
 40
0.045
309
GRIDFORMAT_END
309
TABLEFORMAT_END
  1
CELLSTYLE_BEGIN
 90
        1
 91
        1
300
_TITLE
309
CELLSTYLE_END
300
CELLSTYLE
  1
TABLEFORMAT_BEGIN
 90
        5
170
     1
 91
        0
 92
        0
 62
   257
 93
        1
300
CONTENTFORMAT
  1
CONTENTFORMAT_BEGIN
 90
        0
 91
        0
 92
        4
 93
        0
300

 40
0.0
140
1.0
 94
        5
 62
     0
340
11
144
0.18
309
CONTENTFORMAT_END
171
     1
301
MARGIN
  1
CELLMARGIN_BEGIN
 40
0.06
 40
0.06
 40
0.06
 40
0.06
 40
0.06
 40
0.06
309
CELLMARGIN_END
 94
        6
 95
        1
302
GRIDFORMAT
  1
GRIDFORMAT_BEGIN
 90
        0
 91
        1
 62
     0
 92
       -2
340
14
 93
        0
 40
0.045
309
GRIDFORMAT_END
 95
        2
302
GRIDFORMAT
  1
GRIDFORMAT_BEGIN
 90
        0
 91
        1
 62
     0
 92
       -2
340
14
 93
        0
 40
0.045
309
GRIDFORMAT_END
 95
        4
302
GRIDFORMAT
  1
GRIDFORMAT_BEGIN
 90
        0
 91
        1
 62
     0
 92
       -2
340
14
 93
        0
 40
0.045
309
GRIDFORMAT_END
 95
        8
302
GRIDFORMAT
  1
GRIDFORMAT_BEGIN
 90
        0
 91
        1
 62
     0
 92
       -2
340
14
 93
        0
 40
0.045
309
GRIDFORMAT_END
 95
       16
302
GRIDFORMAT
  1
GRIDFORMAT_BEGIN
 90
        0
 91
        1
 62
     0
 92
       -2
340
14
 93
        0
 40
0.045
309
GRIDFORMAT_END
 95
       32
302
GRIDFORMAT
  1
GRIDFORMAT_BEGIN
 90
        0
 91
        1
 62
     0
 92
       -2
340
14
 93
        0
 40
0.045
309
GRIDFORMAT_END
309
TABLEFORMAT_END
  1
CELLSTYLE_BEGIN
 90
        2
 91
        1
300
_HEADER
309
CELLSTYLE_END
300
CELLSTYLE
  1
TABLEFORMAT_BEGIN
 90
        5
170
     1
 91
        0
 92
        0
 62
   257
 93
        1
300
CONTENTFORMAT
  1
CONTENTFORMAT_BEGIN
 90
        0
 91
        0
 92
        4
 93
        0
300

 40
0.0
140
1.0
 94
        2
 62
     0
340
11
144
0.18
309
CONTENTFORMAT_END
171
     1
301
MARGIN
  1
CELLMARGIN_BEGIN
 40
0.06
 40
0.06
 40
0.06
 40
0.06
 40
0.06
 40
0.06
309
CELLMARGIN_END
 94
        6
 95
        1
302
GRIDFORMAT
  1
GRIDFORMAT_BEGIN
 90
        0
 91
        1
 62
     0
 92
       -2
340
14
 93
        0
 40
0.045
309
GRIDFORMAT_END
 95
        2
302
GRIDFORMAT
  1
GRIDFORMAT_BEGIN
 90
        0
 91
        1
 62
     0
 92
       -2
340
14
 93
        0
 40
0.045
309
GRIDFORMAT_END
 95
        4
302
GRIDFORMAT
  1
GRIDFORMAT_BEGIN
 90
        0
 91
        1
 62
     0
 92
       -2
340
14
 93
        0
 40
0.045
309
GRIDFORMAT_END
 95
        8
302
GRIDFORMAT
  1
GRIDFORMAT_BEGIN
 90
        0
 91
        1
 62
     0
 92
       -2
340
14
 93
        0
 40
0.045
309
GRIDFORMAT_END
 95
       16
302
GRIDFORMAT
  1
GRIDFORMAT_BEGIN
 90
        0
 91
        1
 62
     0
 92
       -2
340
14
 93
        0
 40
0.045
309
GRIDFORMAT_END
 95
       32
302
GRIDFORMAT
  1
GRIDFORMAT_BEGIN
 90
        0
 91
        1
 62
     0
 92
       -2
340
14
 93
        0
 40
0.045
309
GRIDFORMAT_END
309
TABLEFORMAT_END
  1
CELLSTYLE_BEGIN
 90
        3
 91
        2
300
_DATA
309
CELLSTYLE_END
  0
ENDSEC
  0
EOF
