  0
SECTION
  2
HEADER
  9
$ACADVER
  1
AC1032
  9
$ACADMAINTVER
 90
       55
  9
$DWGCODEPAGE
  3
ANSI_1252
  9
$LASTSAVEDBY
  1
LYI-002
  9
$REQUIREDVERSIONS
160
                 0
  9
$INSBASE
 10
0.0
 20
0.0
 30
0.0
  9
$EXTMIN
 10
-1200.0881
 20
-590.0647
 30
0.0
  9
$EXTMAX
 10
1199.9881
 20
590.0115
 30
0.0
  9
$LIMMIN
 10
0.0
 20
0.0
  9
$LIMMAX
 10
12.0
 20
9.0
  9
$ORTHOMODE
 70
     0
  9
$REGENMODE
 70
     1
  9
$FILLMODE
 70
     1
  9
$QTEXTMODE
 70
     0
  9
$MIRRTEXT
 70
     1
  9
$LTSCALE
 40
1.0
  9
$ATTMODE
 70
     1
  9
$TEXTSIZE
 40
0.2
  9
$TRACEWID
 40
0.05
  9
$TEXTSTYLE
  7
Standard
  9
$CLAYER
  8
0
  9
$CELTYPE
  6
ByLayer
  9
$CECOLOR
 62
   256
  9
$CELTSCALE
 40
1.0
  9
$DISPSILH
 70
     0
  9
$DIMSCALE
 40
1.0
  9
$DIMASZ
 40
0.18
  9
$DIMEXO
 40
0.0625
  9
$DIMDLI
 40
0.38
  9
$DIMRND
 40
0.0
  9
$DIMDLE
 40
0.0
  9
$DIMEXE
 40
0.18
  9
$DIMTP
 40
0.0
  9
$DIMTM
 40
0.0
  9
$DIMTXT
 40
0.18
  9
$DIMCEN
 40
0.09
  9
$DIMTSZ
 40
0.0
  9
$DIMTOL
 70
     0
  9
$DIMLIM
 70
     0
  9
$DIMTIH
 70
     1
  9
$DIMTOH
 70
     1
  9
$DIMSE1
 70
     0
  9
$DIMSE2
 70
     0
  9
$DIMTAD
 70
     0
  9
$DIMZIN
 70
     0
  9
$DIMBLK
  1

  9
$DIMASO
 70
     1
  9
$DIMSHO
 70
     1
  9
$DIMPOST
  1

  9
$DIMAPOST
  1

  9
$DIMALT
 70
     0
  9
$DIMALTD
 70
     2
  9
$DIMALTF
 40
25.4
  9
$DIMLFAC
 40
1.0
  9
$DIMTOFL
 70
     0
  9
$DIMTVP
 40
0.0
  9
$DIMTIX
 70
     0
  9
$DIMSOXD
 70
     0
  9
$DIMSAH
 70
     0
  9
$DIMBLK1
  1

  9
$DIMBLK2
  1

  9
$DIMSTYLE
  2
Standard
  9
$DIMCLRD
 70
     0
  9
$DIMCLRE
 70
     0
  9
$DIMCLRT
 70
     0
  9
$DIMTFAC
 40
1.0
  9
$DIMGAP
 40
0.09
  9
$DIMJUST
 70
     0
  9
$DIMSD1
 70
     0
  9
$DIMSD2
 70
     0
  9
$DIMTOLJ
 70
     1
  9
$DIMTZIN
 70
     0
  9
$DIMALTZ
 70
     0
  9
$DIMALTTZ
 70
     0
  9
$DIMUPT
 70
     0
  9
$DIMDEC
 70
     4
  9
$DIMTDEC
 70
     4
  9
$DIMALTU
 70
     2
  9
$DIMALTTD
 70
     2
  9
$DIMTXSTY
  7
Standard
  9
$DIMAUNIT
 70
     0
  9
$DIMADEC
 70
     0
  9
$DIMALTRND
 40
0.0
  9
$DIMAZIN
 70
     0
  9
$DIMDSEP
 70
    46
  9
$DIMATFIT
 70
     3
  9
$DIMFRAC
 70
     0
  9
$DIMLDRBLK
  1

  9
$DIMLUNIT
 70
     2
  9
$DIMLWD
 70
    -2
  9
$DIMLWE
 70
    -2
  9
$DIMTMOVE
 70
     0
  9
$DIMFXL
 40
1.0
  9
$DIMFXLON
 70
     0
  9
$DIMJOGANG
 40
0.7853981633974483
  9
$DIMTFILL
 70
     0
  9
$DIMTFILLCLR
 70
     0
  9
$DIMARCSYM
 70
     0
  9
$DIMLTYPE
  6

  9
$DIMLTEX1
  6

  9
$DIMLTEX2
  6

  9
$DIMTXTDIRECTION
 70
     0
  9
$LUNITS
 70
     2
  9
$LUPREC
 70
     4
  9
$SKETCHINC
 40
0.1
  9
$FILLETRAD
 40
0.0
  9
$AUNITS
 70
     0
  9
$AUPREC
 70
     0
  9
$MENU
  1
.
  9
$ELEVATION
 40
0.0
  9
$PELEVATION
 40
0.0
  9
$THICKNESS
 40
0.0
  9
$LIMCHECK
 70
     0
  9
$CHAMFERA
 40
0.0
  9
$CHAMFERB
 40
0.0
  9
$CHAMFERC
 40
0.0
  9
$CHAMFERD
 40
0.0
  9
$SKPOLY
 70
     0
  9
$TDCREATE
 40
2460652.703037535
  9
$TDUCREATE
 40
2460652.473870868
  9
$TDUPDATE
 40
2460652.703037616
  9
$TDUUPDATE
 40
2460652.473870949
  9
$TDINDWG
 40
0.0000000116
  9
$TDUSRTIMER
 40
0.0000000116
  9
$USRTIMER
 70
     1
  9
$ANGBASE
 50
0.0
  9
$ANGDIR
 70
     0
  9
$PDMODE
 70
     0
  9
$PDSIZE
 40
0.0
  9
$PLINEWID
 40
0.0
  9
$SPLFRAME
 70
     0
  9
$SPLINETYPE
 70
     6
  9
$SPLINESEGS
 70
     8
  9
$HANDSEED
  5
D0
  9
$SURFTAB1
 70
     6
  9
$SURFTAB2
 70
     6
  9
$SURFTYPE
 70
     6
  9
$SURFU
 70
     6
  9
$SURFV
 70
     6
  9
$UCSBASE
  2

  9
$UCSNAME
  2

  9
$UCSORG
 10
0.0
 20
0.0
 30
0.0
  9
$UCSXDIR
 10
1.0
 20
0.0
 30
0.0
  9
$UCSYDIR
 10
0.0
 20
1.0
 30
0.0
  9
$UCSORTHOREF
  2

  9
$UCSORTHOVIEW
 70
     0
  9
$UCSORGTOP
 10
0.0
 20
0.0
 30
0.0
  9
$UCSORGBOTTOM
 10
0.0
 20
0.0
 30
0.0
  9
$UCSORGLEFT
 10
0.0
 20
0.0
 30
0.0
  9
$UCSORGRIGHT
 10
0.0
 20
0.0
 30
0.0
  9
$UCSORGFRONT
 10
0.0
 20
0.0
 30
0.0
  9
$UCSORGBACK
 10
0.0
 20
0.0
 30
0.0
  9
$PUCSBASE
  2

  9
$PUCSNAME
  2

  9
$PUCSORG
 10
0.0
 20
0.0
 30
0.0
  9
$PUCSXDIR
 10
1.0
 20
0.0
 30
0.0
  9
$PUCSYDIR
 10
0.0
 20
1.0
 30
0.0
  9
$PUCSORTHOREF
  2

  9
$PUCSORTHOVIEW
 70
     0
  9
$PUCSORGTOP
 10
0.0
 20
0.0
 30
0.0
  9
$PUCSORGBOTTOM
 10
0.0
 20
0.0
 30
0.0
  9
$PUCSORGLEFT
 10
0.0
 20
0.0
 30
0.0
  9
$PUCSORGRIGHT
 10
0.0
 20
0.0
 30
0.0
  9
$PUCSORGFRONT
 10
0.0
 20
0.0
 30
0.0
  9
$PUCSORGBACK
 10
0.0
 20
0.0
 30
0.0
  9
$USERI1
 70
     0
  9
$USERI2
 70
     0
  9
$USERI3
 70
     0
  9
$USERI4
 70
     0
  9
$USERI5
 70
     0
  9
$USERR1
 40
0.0
  9
$USERR2
 40
0.0
  9
$USERR3
 40
0.0
  9
$USERR4
 40
0.0
  9
$USERR5
 40
0.0
  9
$WORLDVIEW
 70
     1
  9
$SHADEDGE
 70
     3
  9
$SHADEDIF
 70
    70
  9
$TILEMODE
 70
     1
  9
$MAXACTVP
 70
    64
  9
$PINSBASE
 10
0.0
 20
0.0
 30
0.0
  9
$PLIMCHECK
 70
     0
  9
$PEXTMIN
 10
1.000000000000000E+20
 20
1.000000000000000E+20
 30
1.000000000000000E+20
  9
$PEXTMAX
 10
-1.000000000000000E+20
 20
-1.000000000000000E+20
 30
-1.000000000000000E+20
  9
$PLIMMIN
 10
0.0
 20
0.0
  9
$PLIMMAX
 10
12.0
 20
9.0
  9
$UNITMODE
 70
     0
  9
$VISRETAIN
 70
     1
  9
$PLINEGEN
 70
     0
  9
$PSLTSCALE
 70
     1
  9
$TREEDEPTH
 70
  3020
  9
$CMLSTYLE
  2
Standard
  9
$CMLJUST
 70
     0
  9
$CMLSCALE
 40
1.0
  9
$PROXYGRAPHICS
 70
     1
  9
$MEASUREMENT
 70
     0
  9
$CELWEIGHT
370
    -1
  9
$ENDCAPS
280
     0
  9
$JOINSTYLE
280
     0
  9
$LWDISPLAY
290
     0
  9
$INSUNITS
 70
     4
  9
$HYPERLINKBASE
  1

  9
$STYLESHEET
  1

  9
$XEDIT
290
     1
  9
$CEPSNTYPE
380
     0
  9
$PSTYLEMODE
290
     1
  9
$FINGERPRINTGUID
  2
{68227018-1280-4989-8593-957a05b6e909}
  9
$VERSIONGUID
  2
{FAEB1C32-E019-11D5-929B-00C0DF256EC4}
  9
$EXTNAMES
290
     1
  9
$PSVPSCALE
 40
0.0
  9
$OLESTARTUP
290
     0
  9
$SORTENTS
280
   127
  9
$INDEXCTL
280
     0
  9
$HIDETEXT
280
     1
  9
$XCLIPFRAME
280
     2
  9
$HALOGAP
280
     0
  9
$OBSCOLOR
 70
   257
  9
$OBSLTYPE
280
     0
  9
$INTERSECTIONDISPLAY
280
     0
  9
$INTERSECTIONCOLOR
 70
   257
  9
$DIMASSOC
280
     2
  9
$PROJECTNAME
  1

  9
$CAMERADISPLAY
290
     0
  9
$LENSLENGTH
 40
50.0
  9
$CAMERAHEIGHT
 40
0.0
  9
$STEPSPERSEC
 40
2.0
  9
$STEPSIZE
 40
6.0
  9
$3DDWFPREC
 40
2.0
  9
$PSOLWIDTH
 40
0.25
  9
$PSOLHEIGHT
 40
4.0
  9
$LOFTANG1
 40
1.570796326794897
  9
$LOFTANG2
 40
1.570796326794897
  9
$LOFTMAG1
 40
0.0
  9
$LOFTMAG2
 40
0.0
  9
$LOFTPARAM
 70
     7
  9
$LOFTNORMALS
280
     1
  9
$LATITUDE
 40
37.795
  9
$LONGITUDE
 40
-122.394
  9
$NORTHDIRECTION
 40
0.0
  9
$TIMEZONE
 70
 -8000
  9
$LIGHTGLYPHDISPLAY
280
     1
  9
$TILEMODELIGHTSYNCH
280
     1
  9
$CMATERIAL
347
44
  9
$SOLIDHIST
280
     0
  9
$SHOWHIST
280
     1
  9
$DWFFRAME
280
     2
  9
$DGNFRAME
280
     2
  9
$REALWORLDSCALE
290
     1
  9
$INTERFERECOLOR
 62
   256
  9
$CSHADOW
280
     0
  9
$SHADOWPLANELOCATION
 40
0.0
  0
ENDSEC
  0
SECTION
  2
CLASSES
  0
CLASS
  1
ACDBDICTIONARYWDFLT
  2
AcDbDictionaryWithDefault
  3
ObjectDBX Classes
 90
        0
 91
        3
280
     0
281
     0
  0
CLASS
  1
VISUALSTYLE
  2
AcDbVisualStyle
  3
ObjectDBX Classes
 90
     4095
 91
        3
280
     0
281
     0
  0
CLASS
  1
MATERIAL
  2
AcDbMaterial
  3
ObjectDBX Classes
 90
     1153
 91
        3
280
     0
281
     0
  0
CLASS
  1
SCALE
  2
AcDbScale
  3
ObjectDBX Classes
 90
     1153
 91
        3
280
     0
281
     0
  0
CLASS
  1
TABLESTYLE
  2
AcDbTableStyle
  3
ObjectDBX Classes
 90
     4095
 91
        3
280
     0
281
     0
  0
CLASS
  1
MLEADERSTYLE
  2
AcDbMLeaderStyle
  3
ACDB_MLEADERSTYLE_CLASS
 90
     4095
 91
        3
280
     0
281
     0
  0
CLASS
  1
SUN
  2
AcDbSun
  3
SCENEOE
 90
     1153
 91
        3
280
     0
281
     0
  0
CLASS
  1
DICTIONARYVAR
  2
AcDbDictionaryVar
  3
ObjectDBX Classes
 90
        0
 91
        3
280
     0
281
     0
  0
CLASS
  1
CELLSTYLEMAP
  2
AcDbCellStyleMap
  3
ObjectDBX Classes
 90
     1152
 91
        3
280
     0
281
     0
  0
ENDSEC
  0
SECTION
  2
TABLES
  0
TABLE
  2
VPORT
  5
8
330
0
100
AcDbSymbolTable
 70
     1
  0
VPORT
  5
29
330
8
100
AcDbSymbolTableRecord
100
AcDbViewportTableRecord
  2
*Active
 70
     0
 10
0.0
 20
0.0
 11
1.0
 21
1.0
 12
10.42990654205607
 22
4.5
 13
0.0
 23
0.0
 14
0.5
 24
0.5
 15
0.5
 25
0.5
 16
0.0
 26
0.0
 36
1.0
 17
0.0
 27
0.0
 37
0.0
 40
9.0
 41
1.972972972850329
 42
50.0
 43
0.0
 44
0.0
 50
0.0
 51
0.0
 71
     0
 72
   100
 73
     1
 74
     3
 75
     0
 76
     0
 77
     0
 78
     0
281
     0
 65
     1
110
0.0
120
0.0
130
0.0
111
1.0
121
0.0
131
0.0
112
0.0
122
1.0
132
0.0
 79
     0
146
0.0
348
2F
 60
     3
 61
     5
292
     1
282
     1
141
0.0
142
0.0
 63
   250
361
5D
  0
ENDTAB
  0
TABLE
  2
LTYPE
  5
5
330
0
100
AcDbSymbolTable
 70
     1
  0
LTYPE
  5
14
330
5
100
AcDbSymbolTableRecord
100
AcDbLinetypeTableRecord
  2
ByBlock
 70
     0
  3

 72
    65
 73
     0
 40
0.0
  0
LTYPE
  5
15
330
5
100
AcDbSymbolTableRecord
100
AcDbLinetypeTableRecord
  2
ByLayer
 70
     0
  3

 72
    65
 73
     0
 40
0.0
  0
LTYPE
  5
16
330
5
100
AcDbSymbolTableRecord
100
AcDbLinetypeTableRecord
  2
Continuous
 70
     0
  3
Solid line
 72
    65
 73
     0
 40
0.0
  0
ENDTAB
  0
TABLE
  2
LAYER
  5
2
330
0
100
AcDbSymbolTable
 70
     2
  0
LAYER
  5
10
330
2
100
AcDbSymbolTableRecord
100
AcDbLayerTableRecord
  2
0
 70
     0
 62
     7
  6
Continuous
370
    -3
390
F
347
46
348
0
  0
LAYER
  5
5F
330
2
100
AcDbSymbolTableRecord
100
AcDbLayerTableRecord
  2
Layer 1
 70
     0
 62
     7
  6
Continuous
370
    -3
390
F
347
46
348
0
  0
ENDTAB
  0
TABLE
  2
STYLE
  5
3
330
0
100
AcDbSymbolTable
 70
     1
  0
STYLE
  5
11
330
3
100
AcDbSymbolTableRecord
100
AcDbTextStyleTableRecord
  2
Standard
 70
     0
 40
0.0
 41
1.0
 50
0.0
 71
     0
 42
0.2
  3
txt
  4

  0
ENDTAB
  0
TABLE
  2
VIEW
  5
6
330
0
100
AcDbSymbolTable
 70
     0
  0
ENDTAB
  0
TABLE
  2
UCS
  5
7
330
0
100
AcDbSymbolTable
 70
     0
  0
ENDTAB
  0
TABLE
  2
APPID
  5
9
330
0
100
AcDbSymbolTable
 70
     2
  0
APPID
  5
12
330
9
100
AcDbSymbolTableRecord
100
AcDbRegAppTableRecord
  2
ACAD
 70
     0
  0
APPID
  5
5E
330
9
100
AcDbSymbolTableRecord
100
AcDbRegAppTableRecord
  2
ODA
 70
     0
  0
ENDTAB
  0
TABLE
  2
DIMSTYLE
  5
A
330
0
100
AcDbSymbolTable
 70
     1
100
AcDbDimStyleTable
  0
DIMSTYLE
105
27
330
A
100
AcDbSymbolTableRecord
100
AcDbDimStyleTableRecord
  2
Standard
 70
     0
178
     0
340
11
  0
ENDTAB
  0
TABLE
  2
BLOCK_RECORD
  5
1
330
0
100
AcDbSymbolTable
 70
     1
  0
BLOCK_RECORD
  5
1F
330
1
100
AcDbSymbolTableRecord
100
AcDbBlockTableRecord
  2
*Model_Space
340
22
 70
     0
280
     1
281
     0
  0
BLOCK_RECORD
  5
1B
330
1
100
AcDbSymbolTableRecord
100
AcDbBlockTableRecord
  2
*Paper_Space
340
1E
 70
     0
280
     1
281
     0
  0
BLOCK_RECORD
  5
23
330
1
100
AcDbSymbolTableRecord
100
AcDbBlockTableRecord
  2
*Paper_Space0
340
26
 70
     0
280
     1
281
     0
  0
ENDTAB
  0
ENDSEC
  0
SECTION
  2
BLOCKS
  0
BLOCK
  5
20
330
1F
100
AcDbEntity
  8
0
100
AcDbBlockBegin
  2
*Model_Space
 70
     0
 10
0.0
 20
0.0
 30
0.0
  3
*Model_Space
  1

  0
ENDBLK
  5
21
330
1F
100
AcDbEntity
  8
0
100
AcDbBlockEnd
  0
BLOCK
  5
1C
330
1B
100
AcDbEntity
 67
     1
  8
0
100
AcDbBlockBegin
  2
*Paper_Space
 70
     0
 10
0.0
 20
0.0
 30
0.0
  3
*Paper_Space
  1

  0
ENDBLK
  5
1D
330
1B
100
AcDbEntity
 67
     1
  8
0
100
AcDbBlockEnd
  0
BLOCK
  5
24
330
23
100
AcDbEntity
  8
0
100
AcDbBlockBegin
  2
*Paper_Space0
 70
     0
 10
0.0
 20
0.0
 30
0.0
  3
*Paper_Space0
  1

  0
ENDBLK
  5
25
330
23
100
AcDbEntity
  8
0
100
AcDbBlockEnd
  0
ENDSEC
  0
SECTION
  2
ENTITIES
  0
SPLINE
  5
60
330
1F
100
AcDbEntity
  8
Layer 1
 62
   250
370
     9
100
AcDbSpline
210
0.0
220
0.0
230
1.0
 70
    11
 71
     3
 72
    14
 73
    10
 74
     0
 42
0.0000000001
 43
0.0000000001
 40
0.0
 40
0.0
 40
0.0
 40
0.0
 40
0.3333333333333333
 40
0.3333333333333333
 40
0.3333333333333333
 40
0.6666666666666666
 40
0.6666666666666666
 40
0.6666666666666666
 40
1.0
 40
1.0
 40
1.0
 40
1.0
 10
-894.3088
 20
-308.7971
 30
0.0
 10
-894.3088
 20
-308.7971
 30
0.0
 10
-851.2222
 20
-265.3136
 30
0.0
 10
-851.2222
 20
-265.3136
 30
0.0
 10
-851.2222
 20
-265.3136
 30
0.0
 10
-851.2222
 20
-352.2806
 30
0.0
 10
-851.2222
 20
-352.2806
 30
0.0
 10
-851.2222
 20
-352.2806
 30
0.0
 10
-894.3088
 20
-308.7971
 30
0.0
 10
-894.3088
 20
-308.7971
 30
0.0
  0
SPLINE
  5
61
330
1F
100
AcDbEntity
  8
Layer 1
 62
   250
370
     9
100
AcDbSpline
210
0.0
220
0.0
230
1.0
 70
    11
 71
     3
 72
    14
 73
    10
 74
     0
 42
0.0000000001
 43
0.0000000001
 40
0.0
 40
0.0
 40
0.0
 40
0.0
 40
0.3333333333333333
 40
0.3333333333333333
 40
0.3333333333333333
 40
0.6666666666666666
 40
0.6666666666666666
 40
0.6666666666666666
 40
1.0
 40
1.0
 40
1.0
 40
1.0
 10
-865.4145
 20
-250.9906
 30
0.0
 10
-865.4145
 20
-250.9906
 30
0.0
 10
-951.6303
 20
-250.9906
 30
0.0
 10
-951.6303
 20
-250.9906
 30
0.0
 10
-951.6303
 20
-250.9906
 30
0.0
 10
-908.5436
 20
-294.4741
 30
0.0
 10
-908.5436
 20
-294.4741
 30
0.0
 10
-908.5436
 20
-294.4741
 30
0.0
 10
-865.4145
 20
-250.9906
 30
0.0
 10
-865.4145
 20
-250.9906
 30
0.0
  0
SPLINE
  5
62
330
1F
100
AcDbEntity
  8
Layer 1
 62
   250
370
     9
100
AcDbSpline
210
0.0
220
0.0
230
1.0
 70
    11
 71
     3
 72
    17
 73
    13
 74
     0
 42
0.0000000001
 43
0.0000000001
 40
0.0
 40
0.0
 40
0.0
 40
0.0
 40
0.25
 40
0.25
 40
0.25
 40
0.5
 40
0.5
 40
0.5
 40
0.75
 40
0.75
 40
0.75
 40
1.0
 40
1.0
 40
1.0
 40
1.0
 10
-705.197
 20
-250.9906
 30
0.0
 10
-705.197
 20
-250.9906
 30
0.0
 10
-705.197
 20
-352.2806
 30
0.0
 10
-705.197
 20
-352.2806
 30
0.0
 10
-705.197
 20
-352.2806
 30
0.0
 10
-604.8314
 20
-352.2806
 30
0.0
 10
-604.8314
 20
-352.2806
 30
0.0
 10
-604.8314
 20
-352.2806
 30
0.0
 10
-604.8314
 20
-250.9906
 30
0.0
 10
-604.8314
 20
-250.9906
 30
0.0
 10
-604.8314
 20
-250.9906
 30
0.0
 10
-705.197
 20
-250.9906
 30
0.0
 10
-705.197
 20
-250.9906
 30
0.0
  0
SPLINE
  5
63
330
1F
100
AcDbEntity
  8
Layer 1
 62
   250
370
     9
100
AcDbSpline
210
0.0
220
0.0
230
1.0
 70
    11
 71
     3
 72
    17
 73
    13
 74
     0
 42
0.0000000001
 43
0.0000000001
 40
0.0
 40
0.0
 40
0.0
 40
0.0
 40
0.25
 40
0.25
 40
0.25
 40
0.5
 40
0.5
 40
0.5
 40
0.75
 40
0.75
 40
0.75
 40
1.0
 40
1.0
 40
1.0
 40
1.0
 10
-2.5954
 20
-352.2806
 30
0.0
 10
-2.5954
 20
-352.2806
 30
0.0
 10
-102.961
 20
-352.2806
 30
0.0
 10
-102.961
 20
-352.2806
 30
0.0
 10
-102.961
 20
-352.2806
 30
0.0
 10
-102.961
 20
-250.9906
 30
0.0
 10
-102.961
 20
-250.9906
 30
0.0
 10
-102.961
 20
-250.9906
 30
0.0
 10
-2.5954
 20
-250.9906
 30
0.0
 10
-2.5954
 20
-250.9906
 30
0.0
 10
-2.5954
 20
-250.9906
 30
0.0
 10
-2.5954
 20
-352.2806
 30
0.0
 10
-2.5954
 20
-352.2806
 30
0.0
  0
SPLINE
  5
64
330
1F
100
AcDbEntity
  8
Layer 1
 62
   250
370
     9
100
AcDbSpline
210
0.0
220
0.0
230
1.0
 70
    11
 71
     3
 72
    14
 73
    10
 74
     0
 42
0.0000000001
 43
0.0000000001
 40
0.0
 40
0.0
 40
0.0
 40
0.0
 40
0.3333333333333333
 40
0.3333333333333333
 40
0.3333333333333333
 40
0.6666666666666666
 40
0.6666666666666666
 40
0.6666666666666666
 40
1.0
 40
1.0
 40
1.0
 40
1.0
 10
-166.1038
 20
-308.7971
 30
0.0
 10
-166.1038
 20
-308.7971
 30
0.0
 10
-123.0171
 20
-265.3136
 30
0.0
 10
-123.0171
 20
-265.3136
 30
0.0
 10
-123.0171
 20
-265.3136
 30
0.0
 10
-123.0171
 20
-352.2806
 30
0.0
 10
-123.0171
 20
-352.2806
 30
0.0
 10
-123.0171
 20
-352.2806
 30
0.0
 10
-166.1038
 20
-308.7971
 30
0.0
 10
-166.1038
 20
-308.7971
 30
0.0
  0
SPLINE
  5
65
330
1F
100
AcDbEntity
  8
Layer 1
 62
   250
370
     9
100
AcDbSpline
210
0.0
220
0.0
230
1.0
 70
    11
 71
     3
 72
    14
 73
    10
 74
     0
 42
0.0000000001
 43
0.0000000001
 40
0.0
 40
0.0
 40
0.0
 40
0.0
 40
0.3333333333333333
 40
0.3333333333333333
 40
0.3333333333333333
 40
0.6666666666666666
 40
0.6666666666666666
 40
0.6666666666666666
 40
1.0
 40
1.0
 40
1.0
 40
1.0
 10
-137.2094
 20
-250.9906
 30
0.0
 10
-137.2094
 20
-250.9906
 30
0.0
 10
-223.4252
 20
-250.9906
 30
0.0
 10
-223.4252
 20
-250.9906
 30
0.0
 10
-223.4252
 20
-250.9906
 30
0.0
 10
-180.3385
 20
-294.4741
 30
0.0
 10
-180.3385
 20
-294.4741
 30
0.0
 10
-180.3385
 20
-294.4741
 30
0.0
 10
-137.2094
 20
-250.9906
 30
0.0
 10
-137.2094
 20
-250.9906
 30
0.0
  0
SPLINE
  5
66
330
1F
100
AcDbEntity
  8
Layer 1
 62
   250
370
     9
100
AcDbSpline
210
0.0
220
0.0
230
1.0
 70
    11
 71
     3
 72
    14
 73
    10
 74
     0
 42
0.0000000001
 43
0.0000000001
 40
0.0
 40
0.0
 40
0.0
 40
0.0
 40
0.3333333333333333
 40
0.3333333333333333
 40
0.3333333333333333
 40
0.6666666666666666
 40
0.6666666666666666
 40
0.6666666666666666
 40
1.0
 40
1.0
 40
1.0
 40
1.0
 10
-541.6462
 20
-308.7971
 30
0.0
 10
-541.6462
 20
-308.7971
 30
0.0
 10
-584.7753
 20
-265.3136
 30
0.0
 10
-584.7753
 20
-265.3136
 30
0.0
 10
-584.7753
 20
-265.3136
 30
0.0
 10
-584.7753
 20
-352.2806
 30
0.0
 10
-584.7753
 20
-352.2806
 30
0.0
 10
-584.7753
 20
-352.2806
 30
0.0
 10
-541.6462
 20
-308.7971
 30
0.0
 10
-541.6462
 20
-308.7971
 30
0.0
  0
SPLINE
  5
67
330
1F
100
AcDbEntity
  8
Layer 1
 62
   250
370
     9
100
AcDbSpline
210
0.0
220
0.0
230
1.0
 70
    11
 71
     3
 72
    14
 73
    10
 74
     0
 42
0.0000000001
 43
0.0000000001
 40
0.0
 40
0.0
 40
0.0
 40
0.0
 40
0.3333333333333333
 40
0.3333333333333333
 40
0.3333333333333333
 40
0.6666666666666666
 40
0.6666666666666666
 40
0.6666666666666666
 40
1.0
 40
1.0
 40
1.0
 40
1.0
 10
-484.3672
 20
-250.9906
 30
0.0
 10
-484.3672
 20
-250.9906
 30
0.0
 10
-570.5406
 20
-250.9906
 30
0.0
 10
-570.5406
 20
-250.9906
 30
0.0
 10
-570.5406
 20
-250.9906
 30
0.0
 10
-527.4539
 20
-294.4741
 30
0.0
 10
-527.4539
 20
-294.4741
 30
0.0
 10
-527.4539
 20
-294.4741
 30
0.0
 10
-484.3672
 20
-250.9906
 30
0.0
 10
-484.3672
 20
-250.9906
 30
0.0
  0
SPLINE
  5
68
330
1F
100
AcDbEntity
  8
Layer 1
 62
   250
370
     9
100
AcDbSpline
210
0.0
220
0.0
230
1.0
 70
    11
 71
     3
 72
    17
 73
    13
 74
     0
 42
0.0000000001
 43
0.0000000001
 40
0.0
 40
0.0
 40
0.0
 40
0.0
 40
0.25
 40
0.25
 40
0.25
 40
0.5
 40
0.5
 40
0.5
 40
0.75
 40
0.75
 40
0.75
 40
1.0
 40
1.0
 40
1.0
 40
1.0
 10
12.7516
 20
-250.9906
 30
0.0
 10
12.7516
 20
-250.9906
 30
0.0
 10
12.7516
 20
-352.2806
 30
0.0
 10
12.7516
 20
-352.2806
 30
0.0
 10
12.7516
 20
-352.2806
 30
0.0
 10
113.1172
 20
-352.2806
 30
0.0
 10
113.1172
 20
-352.2806
 30
0.0
 10
113.1172
 20
-352.2806
 30
0.0
 10
113.1172
 20
-250.9906
 30
0.0
 10
113.1172
 20
-250.9906
 30
0.0
 10
113.1172
 20
-250.9906
 30
0.0
 10
12.7516
 20
-250.9906
 30
0.0
 10
12.7516
 20
-250.9906
 30
0.0
  0
SPLINE
  5
69
330
1F
100
AcDbEntity
  8
Layer 1
 62
   250
370
     9
100
AcDbSpline
210
0.0
220
0.0
230
1.0
 70
    11
 71
     3
 72
    17
 73
    13
 74
     0
 42
0.0000000001
 43
0.0000000001
 40
0.0
 40
0.0
 40
0.0
 40
0.0
 40
0.25
 40
0.25
 40
0.25
 40
0.5
 40
0.5
 40
0.5
 40
0.75
 40
0.75
 40
0.75
 40
1.0
 40
1.0
 40
1.0
 40
1.0
 10
715.3533
 20
-352.2806
 30
0.0
 10
715.3533
 20
-352.2806
 30
0.0
 10
614.9877
 20
-352.2806
 30
0.0
 10
614.9877
 20
-352.2806
 30
0.0
 10
614.9877
 20
-352.2806
 30
0.0
 10
614.9877
 20
-250.9906
 30
0.0
 10
614.9877
 20
-250.9906
 30
0.0
 10
614.9877
 20
-250.9906
 30
0.0
 10
715.3533
 20
-250.9906
 30
0.0
 10
715.3533
 20
-250.9906
 30
0.0
 10
715.3533
 20
-250.9906
 30
0.0
 10
715.3533
 20
-352.2806
 30
0.0
 10
715.3533
 20
-352.2806
 30
0.0
  0
SPLINE
  5
6A
330
1F
100
AcDbEntity
  8
Layer 1
 62
   250
370
     9
100
AcDbSpline
210
0.0
220
0.0
230
1.0
 70
    11
 71
     3
 72
    14
 73
    10
 74
     0
 42
0.0000000001
 43
0.0000000001
 40
0.0
 40
0.0
 40
0.0
 40
0.0
 40
0.3333333333333333
 40
0.3333333333333333
 40
0.3333333333333333
 40
0.6666666666666666
 40
0.6666666666666666
 40
0.6666666666666666
 40
1.0
 40
1.0
 40
1.0
 40
1.0
 10
551.8449
 20
-308.7971
 30
0.0
 10
551.8449
 20
-308.7971
 30
0.0
 10
594.9316
 20
-265.3136
 30
0.0
 10
594.9316
 20
-265.3136
 30
0.0
 10
594.9316
 20
-265.3136
 30
0.0
 10
594.9316
 20
-352.2806
 30
0.0
 10
594.9316
 20
-352.2806
 30
0.0
 10
594.9316
 20
-352.2806
 30
0.0
 10
551.8449
 20
-308.7971
 30
0.0
 10
551.8449
 20
-308.7971
 30
0.0
  0
SPLINE
  5
6B
330
1F
100
AcDbEntity
  8
Layer 1
 62
   250
370
     9
100
AcDbSpline
210
0.0
220
0.0
230
1.0
 70
    11
 71
     3
 72
    14
 73
    10
 74
     0
 42
0.0000000001
 43
0.0000000001
 40
0.0
 40
0.0
 40
0.0
 40
0.0
 40
0.3333333333333333
 40
0.3333333333333333
 40
0.3333333333333333
 40
0.6666666666666666
 40
0.6666666666666666
 40
0.6666666666666666
 40
1.0
 40
1.0
 40
1.0
 40
1.0
 10
580.7393
 20
-250.9906
 30
0.0
 10
580.7393
 20
-250.9906
 30
0.0
 10
494.5234
 20
-250.9906
 30
0.0
 10
494.5234
 20
-250.9906
 30
0.0
 10
494.5234
 20
-250.9906
 30
0.0
 10
537.6101
 20
-294.4741
 30
0.0
 10
537.6101
 20
-294.4741
 30
0.0
 10
537.6101
 20
-294.4741
 30
0.0
 10
580.7393
 20
-250.9906
 30
0.0
 10
580.7393
 20
-250.9906
 30
0.0
  0
SPLINE
  5
6C
330
1F
100
AcDbEntity
  8
Layer 1
 62
   250
370
     9
100
AcDbSpline
210
0.0
220
0.0
230
1.0
 70
    11
 71
     3
 72
    14
 73
    10
 74
     0
 42
0.0000000001
 43
0.0000000001
 40
0.0
 40
0.0
 40
0.0
 40
0.0
 40
0.3333333333333333
 40
0.3333333333333333
 40
0.3333333333333333
 40
0.6666666666666666
 40
0.6666666666666666
 40
0.6666666666666666
 40
1.0
 40
1.0
 40
1.0
 40
1.0
 10
176.3025
 20
-308.7971
 30
0.0
 10
176.3025
 20
-308.7971
 30
0.0
 10
133.1733
 20
-265.3136
 30
0.0
 10
133.1733
 20
-265.3136
 30
0.0
 10
133.1733
 20
-265.3136
 30
0.0
 10
133.1733
 20
-352.2806
 30
0.0
 10
133.1733
 20
-352.2806
 30
0.0
 10
133.1733
 20
-352.2806
 30
0.0
 10
176.3025
 20
-308.7971
 30
0.0
 10
176.3025
 20
-308.7971
 30
0.0
  0
SPLINE
  5
6D
330
1F
100
AcDbEntity
  8
Layer 1
 62
   250
370
     9
100
AcDbSpline
210
0.0
220
0.0
230
1.0
 70
    11
 71
     3
 72
    14
 73
    10
 74
     0
 42
0.0000000001
 43
0.0000000001
 40
0.0
 40
0.0
 40
0.0
 40
0.0
 40
0.3333333333333333
 40
0.3333333333333333
 40
0.3333333333333333
 40
0.6666666666666666
 40
0.6666666666666666
 40
0.6666666666666666
 40
1.0
 40
1.0
 40
1.0
 40
1.0
 10
233.5815
 20
-250.9906
 30
0.0
 10
233.5815
 20
-250.9906
 30
0.0
 10
147.4081
 20
-250.9906
 30
0.0
 10
147.4081
 20
-250.9906
 30
0.0
 10
147.4081
 20
-250.9906
 30
0.0
 10
190.4948
 20
-294.4741
 30
0.0
 10
190.4948
 20
-294.4741
 30
0.0
 10
190.4948
 20
-294.4741
 30
0.0
 10
233.5815
 20
-250.9906
 30
0.0
 10
233.5815
 20
-250.9906
 30
0.0
  0
SPLINE
  5
6E
330
1F
100
AcDbEntity
  8
Layer 1
 62
   250
370
     9
100
AcDbSpline
210
0.0
220
0.0
230
1.0
 70
    11
 71
     3
 72
    17
 73
    13
 74
     0
 42
0.0000000001
 43
0.0000000001
 40
0.0
 40
0.0
 40
0.0
 40
0.0
 40
0.25
 40
0.25
 40
0.25
 40
0.5
 40
0.5
 40
0.5
 40
0.75
 40
0.75
 40
0.75
 40
1.0
 40
1.0
 40
1.0
 40
1.0
 10
730.7003
 20
-250.9906
 30
0.0
 10
730.7003
 20
-250.9906
 30
0.0
 10
730.7003
 20
-352.2806
 30
0.0
 10
730.7003
 20
-352.2806
 30
0.0
 10
730.7003
 20
-352.2806
 30
0.0
 10
831.0659
 20
-352.2806
 30
0.0
 10
831.0659
 20
-352.2806
 30
0.0
 10
831.0659
 20
-352.2806
 30
0.0
 10
831.0659
 20
-250.9906
 30
0.0
 10
831.0659
 20
-250.9906
 30
0.0
 10
831.0659
 20
-250.9906
 30
0.0
 10
730.7003
 20
-250.9906
 30
0.0
 10
730.7003
 20
-250.9906
 30
0.0
  0
SPLINE
  5
6F
330
1F
100
AcDbEntity
  8
Layer 1
 62
   250
370
     9
100
AcDbSpline
210
0.0
220
0.0
230
1.0
 70
    11
 71
     3
 72
    14
 73
    10
 74
     0
 42
0.0000000001
 43
0.0000000001
 40
0.0
 40
0.0
 40
0.0
 40
0.0
 40
0.3333333333333333
 40
0.3333333333333333
 40
0.3333333333333333
 40
0.6666666666666666
 40
0.6666666666666666
 40
0.6666666666666666
 40
1.0
 40
1.0
 40
1.0
 40
1.0
 10
894.2511
 20
-308.7971
 30
0.0
 10
894.2511
 20
-308.7971
 30
0.0
 10
851.122
 20
-265.3136
 30
0.0
 10
851.122
 20
-265.3136
 30
0.0
 10
851.122
 20
-265.3136
 30
0.0
 10
851.122
 20
-352.2806
 30
0.0
 10
851.122
 20
-352.2806
 30
0.0
 10
851.122
 20
-352.2806
 30
0.0
 10
894.2511
 20
-308.7971
 30
0.0
 10
894.2511
 20
-308.7971
 30
0.0
  0
SPLINE
  5
70
330
1F
100
AcDbEntity
  8
Layer 1
 62
   250
370
     9
100
AcDbSpline
210
0.0
220
0.0
230
1.0
 70
    11
 71
     3
 72
    14
 73
    10
 74
     0
 42
0.0000000001
 43
0.0000000001
 40
0.0
 40
0.0
 40
0.0
 40
0.0
 40
0.3333333333333333
 40
0.3333333333333333
 40
0.3333333333333333
 40
0.6666666666666666
 40
0.6666666666666666
 40
0.6666666666666666
 40
1.0
 40
1.0
 40
1.0
 40
1.0
 10
951.5301
 20
-250.9906
 30
0.0
 10
951.5301
 20
-250.9906
 30
0.0
 10
865.3567
 20
-250.9906
 30
0.0
 10
865.3567
 20
-250.9906
 30
0.0
 10
865.3567
 20
-250.9906
 30
0.0
 10
908.4434
 20
-294.4741
 30
0.0
 10
908.4434
 20
-294.4741
 30
0.0
 10
908.4434
 20
-294.4741
 30
0.0
 10
951.5301
 20
-250.9906
 30
0.0
 10
951.5301
 20
-250.9906
 30
0.0
  0
SPLINE
  5
71
330
1F
100
AcDbEntity
  8
Layer 1
 62
   250
370
     9
100
AcDbSpline
210
0.0
220
0.0
230
1.0
 70
    11
 71
     3
 72
    17
 73
    13
 74
     0
 42
0.0000000001
 43
0.0000000001
 40
0.0
 40
0.0
 40
0.0
 40
0.0
 40
0.25
 40
0.25
 40
0.25
 40
0.5
 40
0.5
 40
0.5
 40
0.75
 40
0.75
 40
0.75
 40
1.0
 40
1.0
 40
1.0
 40
1.0
 10
-880.903
 20
-225.2029
 30
0.0
 10
-880.903
 20
-225.2029
 30
0.0
 10
-881.0054
 20
-225.0996
 30
0.0
 10
-881.0054
 20
-225.0996
 30
0.0
 10
-881.0054
 20
-225.0996
 30
0.0
 10
-908.5436
 20
-197.3351
 30
0.0
 10
-908.5436
 20
-197.3351
 30
0.0
 10
-908.5436
 20
-197.3351
 30
0.0
 10
-936.157
 20
-225.2029
 30
0.0
 10
-936.157
 20
-225.2029
 30
0.0
 10
-936.157
 20
-225.2029
 30
0.0
 10
-880.903
 20
-225.2029
 30
0.0
 10
-880.903
 20
-225.2029
 30
0.0
  0
SPLINE
  5
72
330
1F
100
AcDbEntity
  8
Layer 1
 62
   250
370
     9
100
AcDbSpline
210
0.0
220
0.0
230
1.0
 70
    11
 71
     3
 72
    17
 73
    13
 74
     0
 42
0.0000000001
 43
0.0000000001
 40
0.0
 40
0.0
 40
0.0
 40
0.0
 40
0.25
 40
0.25
 40
0.25
 40
0.5
 40
0.5
 40
0.5
 40
0.75
 40
0.75
 40
0.75
 40
1.0
 40
1.0
 40
1.0
 40
1.0
 10
-852.5031
 20
-225.2029
 30
0.0
 10
-852.5031
 20
-225.2029
 30
0.0
 10
-851.2222
 20
-225.2029
 30
0.0
 10
-851.2222
 20
-225.2029
 30
0.0
 10
-851.2222
 20
-225.2029
 30
0.0
 10
-851.2222
 20
-139.5286
 30
0.0
 10
-851.2222
 20
-139.5286
 30
0.0
 10
-851.2222
 20
-139.5286
 30
0.0
 10
-894.3088
 20
-183.0121
 30
0.0
 10
-894.3088
 20
-183.0121
 30
0.0
 10
-894.3088
 20
-183.0121
 30
0.0
 10
-852.5031
 20
-225.2029
 30
0.0
 10
-852.5031
 20
-225.2029
 30
0.0
  0
SPLINE
  5
73
330
1F
100
AcDbEntity
  8
Layer 1
 62
   250
370
     9
100
AcDbSpline
210
0.0
220
0.0
230
1.0
 70
    11
 71
     3
 72
    17
 73
    13
 74
     0
 42
0.0000000001
 43
0.0000000001
 40
0.0
 40
0.0
 40
0.0
 40
0.0
 40
0.25
 40
0.25
 40
0.25
 40
0.5
 40
0.5
 40
0.5
 40
0.75
 40
0.75
 40
0.75
 40
1.0
 40
1.0
 40
1.0
 40
1.0
 10
-730.8005
 20
123.8597
 30
0.0
 10
-730.8005
 20
123.8597
 30
0.0
 10
-831.1661
 20
123.8597
 30
0.0
 10
-831.1661
 20
123.8597
 30
0.0
 10
-831.1661
 20
123.8597
 30
0.0
 10
-831.1661
 20
225.1498
 30
0.0
 10
-831.1661
 20
225.1498
 30
0.0
 10
-831.1661
 20
225.1498
 30
0.0
 10
-730.8005
 20
225.1498
 30
0.0
 10
-730.8005
 20
225.1498
 30
0.0
 10
-730.8005
 20
225.1498
 30
0.0
 10
-730.8005
 20
123.8597
 30
0.0
 10
-730.8005
 20
123.8597
 30
0.0
  0
SPLINE
  5
74
330
1F
100
AcDbEntity
  8
Layer 1
 62
   250
370
     9
100
AcDbSpline
210
0.0
220
0.0
230
1.0
 70
    11
 71
     3
 72
    17
 73
    13
 74
     0
 42
0.0000000001
 43
0.0000000001
 40
0.0
 40
0.0
 40
0.0
 40
0.0
 40
0.25
 40
0.25
 40
0.25
 40
0.5
 40
0.5
 40
0.5
 40
0.75
 40
0.75
 40
0.75
 40
1.0
 40
1.0
 40
1.0
 40
1.0
 10
-730.8005
 20
-119.2878
 30
0.0
 10
-730.8005
 20
-119.2878
 30
0.0
 10
-831.1661
 20
-119.2878
 30
0.0
 10
-831.1661
 20
-119.2878
 30
0.0
 10
-831.1661
 20
-119.2878
 30
0.0
 10
-831.1661
 20
103.5761
 30
0.0
 10
-831.1661
 20
103.5761
 30
0.0
 10
-831.1661
 20
103.5761
 30
0.0
 10
-730.8005
 20
103.5761
 30
0.0
 10
-730.8005
 20
103.5761
 30
0.0
 10
-730.8005
 20
103.5761
 30
0.0
 10
-730.8005
 20
-119.2878
 30
0.0
 10
-730.8005
 20
-119.2878
 30
0.0
  0
SPLINE
  5
75
330
1F
100
AcDbEntity
  8
Layer 1
 62
   250
370
     9
100
AcDbSpline
210
0.0
220
0.0
230
1.0
 70
    11
 71
     3
 72
    14
 73
    10
 74
     0
 42
0.0000000001
 43
0.0000000001
 40
0.0
 40
0.0
 40
0.0
 40
0.0
 40
0.3333333333333333
 40
0.3333333333333333
 40
0.3333333333333333
 40
0.6666666666666666
 40
0.6666666666666666
 40
0.6666666666666666
 40
1.0
 40
1.0
 40
1.0
 40
1.0
 10
-894.3088
 20
167.3433
 30
0.0
 10
-894.3088
 20
167.3433
 30
0.0
 10
-851.2222
 20
210.8268
 30
0.0
 10
-851.2222
 20
210.8268
 30
0.0
 10
-851.2222
 20
210.8268
 30
0.0
 10
-851.2222
 20
123.8597
 30
0.0
 10
-851.2222
 20
123.8597
 30
0.0
 10
-851.2222
 20
123.8597
 30
0.0
 10
-894.3088
 20
167.3433
 30
0.0
 10
-894.3088
 20
167.3433
 30
0.0
  0
SPLINE
  5
76
330
1F
100
AcDbEntity
  8
Layer 1
 62
   250
370
     9
100
AcDbSpline
210
0.0
220
0.0
230
1.0
 70
    11
 71
     3
 72
    14
 73
    10
 74
     0
 42
0.0000000001
 43
0.0000000001
 40
0.0
 40
0.0
 40
0.0
 40
0.0
 40
0.3333333333333333
 40
0.3333333333333333
 40
0.3333333333333333
 40
0.6666666666666666
 40
0.6666666666666666
 40
0.6666666666666666
 40
1.0
 40
1.0
 40
1.0
 40
1.0
 10
-865.4145
 20
225.1498
 30
0.0
 10
-865.4145
 20
225.1498
 30
0.0
 10
-951.6303
 20
225.1498
 30
0.0
 10
-951.6303
 20
225.1498
 30
0.0
 10
-951.6303
 20
225.1498
 30
0.0
 10
-908.5436
 20
181.6663
 30
0.0
 10
-908.5436
 20
181.6663
 30
0.0
 10
-908.5436
 20
181.6663
 30
0.0
 10
-865.4145
 20
225.1498
 30
0.0
 10
-865.4145
 20
225.1498
 30
0.0
  0
SPLINE
  5
77
330
1F
100
AcDbEntity
  8
Layer 1
 62
   250
370
     9
100
AcDbSpline
210
0.0
220
0.0
230
1.0
 70
    11
 71
     3
 72
    17
 73
    13
 74
     0
 42
0.0000000001
 43
0.0000000001
 40
0.0
 40
0.0
 40
0.0
 40
0.0
 40
0.25
 40
0.25
 40
0.25
 40
0.5
 40
0.5
 40
0.5
 40
0.75
 40
0.75
 40
0.75
 40
1.0
 40
1.0
 40
1.0
 40
1.0
 10
-880.903
 20
250.9375
 30
0.0
 10
-880.903
 20
250.9375
 30
0.0
 10
-881.0054
 20
251.0408
 30
0.0
 10
-881.0054
 20
251.0408
 30
0.0
 10
-881.0054
 20
251.0408
 30
0.0
 10
-908.5436
 20
278.8052
 30
0.0
 10
-908.5436
 20
278.8052
 30
0.0
 10
-908.5436
 20
278.8052
 30
0.0
 10
-936.157
 20
250.9375
 30
0.0
 10
-936.157
 20
250.9375
 30
0.0
 10
-936.157
 20
250.9375
 30
0.0
 10
-880.903
 20
250.9375
 30
0.0
 10
-880.903
 20
250.9375
 30
0.0
  0
SPLINE
  5
78
330
1F
100
AcDbEntity
  8
Layer 1
 62
   250
370
     9
100
AcDbSpline
210
0.0
220
0.0
230
1.0
 70
    11
 71
     3
 72
    17
 73
    13
 74
     0
 42
0.0000000001
 43
0.0000000001
 40
0.0
 40
0.0
 40
0.0
 40
0.0
 40
0.25
 40
0.25
 40
0.25
 40
0.5
 40
0.5
 40
0.5
 40
0.75
 40
0.75
 40
0.75
 40
1.0
 40
1.0
 40
1.0
 40
1.0
 10
-852.5031
 20
250.9375
 30
0.0
 10
-852.5031
 20
250.9375
 30
0.0
 10
-851.2222
 20
250.9375
 30
0.0
 10
-851.2222
 20
250.9375
 30
0.0
 10
-851.2222
 20
250.9375
 30
0.0
 10
-851.2222
 20
336.6118
 30
0.0
 10
-851.2222
 20
336.6118
 30
0.0
 10
-851.2222
 20
336.6118
 30
0.0
 10
-894.3088
 20
293.1283
 30
0.0
 10
-894.3088
 20
293.1283
 30
0.0
 10
-894.3088
 20
293.1283
 30
0.0
 10
-852.5031
 20
250.9375
 30
0.0
 10
-852.5031
 20
250.9375
 30
0.0
  0
SPLINE
  5
79
330
1F
100
AcDbEntity
  8
Layer 1
 62
   250
370
     9
100
AcDbSpline
210
0.0
220
0.0
230
1.0
 70
    11
 71
     3
 72
    17
 73
    13
 74
     0
 42
0.0000000001
 43
0.0000000001
 40
0.0
 40
0.0
 40
0.0
 40
0.0
 40
0.25
 40
0.25
 40
0.25
 40
0.5
 40
0.5
 40
0.5
 40
0.75
 40
0.75
 40
0.75
 40
1.0
 40
1.0
 40
1.0
 40
1.0
 10
-730.8005
 20
356.8526
 30
0.0
 10
-730.8005
 20
356.8526
 30
0.0
 10
-831.1661
 20
356.8526
 30
0.0
 10
-831.1661
 20
356.8526
 30
0.0
 10
-831.1661
 20
356.8526
 30
0.0
 10
-831.1661
 20
579.7164
 30
0.0
 10
-831.1661
 20
579.7164
 30
0.0
 10
-831.1661
 20
579.7164
 30
0.0
 10
-730.8005
 20
579.7164
 30
0.0
 10
-730.8005
 20
579.7164
 30
0.0
 10
-730.8005
 20
579.7164
 30
0.0
 10
-730.8005
 20
356.8526
 30
0.0
 10
-730.8005
 20
356.8526
 30
0.0
  0
SPLINE
  5
7A
330
1F
100
AcDbEntity
  8
Layer 1
 62
   250
370
     9
100
AcDbSpline
210
0.0
220
0.0
230
1.0
 70
    11
 71
     3
 72
    14
 73
    10
 74
     0
 42
0.0000000001
 43
0.0000000001
 40
0.0
 40
0.0
 40
0.0
 40
0.0
 40
0.3333333333333333
 40
0.3333333333333333
 40
0.3333333333333333
 40
0.6666666666666666
 40
0.6666666666666666
 40
0.6666666666666666
 40
1.0
 40
1.0
 40
1.0
 40
1.0
 10
-584.1342
 20
-225.2029
 30
0.0
 10
-584.1342
 20
-225.2029
 30
0.0
 10
-584.7753
 20
-139.5286
 30
0.0
 10
-584.7753
 20
-139.5286
 30
0.0
 10
-584.7753
 20
-139.5286
 30
0.0
 10
-541.6462
 20
-183.0121
 30
0.0
 10
-541.6462
 20
-183.0121
 30
0.0
 10
-541.6462
 20
-183.0121
 30
0.0
 10
-584.1342
 20
-225.2029
 30
0.0
 10
-584.1342
 20
-225.2029
 30
0.0
  0
SPLINE
  5
7B
330
1F
100
AcDbEntity
  8
Layer 1
 62
   250
370
     9
100
AcDbSpline
210
0.0
220
0.0
230
1.0
 70
    11
 71
     3
 72
    14
 73
    10
 74
     0
 42
0.0000000001
 43
0.0000000001
 40
0.0
 40
0.0
 40
0.0
 40
0.0
 40
0.3333333333333333
 40
0.3333333333333333
 40
0.3333333333333333
 40
0.6666666666666666
 40
0.6666666666666666
 40
0.6666666666666666
 40
1.0
 40
1.0
 40
1.0
 40
1.0
 10
-555.0673
 20
-225.2029
 30
0.0
 10
-555.0673
 20
-225.2029
 30
0.0
 10
-499.8405
 20
-225.2029
 30
0.0
 10
-499.8405
 20
-225.2029
 30
0.0
 10
-499.8405
 20
-225.2029
 30
0.0
 10
-527.4539
 20
-197.3351
 30
0.0
 10
-527.4539
 20
-197.3351
 30
0.0
 10
-527.4539
 20
-197.3351
 30
0.0
 10
-555.0673
 20
-225.2029
 30
0.0
 10
-555.0673
 20
-225.2029
 30
0.0
  0
SPLINE
  5
7C
330
1F
100
AcDbEntity
  8
Layer 1
 62
   250
370
     9
100
AcDbSpline
210
0.0
220
0.0
230
1.0
 70
    11
 71
     3
 72
    17
 73
    13
 74
     0
 42
0.0000000001
 43
0.0000000001
 40
0.0
 40
0.0
 40
0.0
 40
0.0
 40
0.25
 40
0.25
 40
0.25
 40
0.5
 40
0.5
 40
0.5
 40
0.75
 40
0.75
 40
0.75
 40
1.0
 40
1.0
 40
1.0
 40
1.0
 10
-705.197
 20
225.1498
 30
0.0
 10
-705.197
 20
225.1498
 30
0.0
 10
-705.197
 20
123.8597
 30
0.0
 10
-705.197
 20
123.8597
 30
0.0
 10
-705.197
 20
123.8597
 30
0.0
 10
-604.8314
 20
123.8597
 30
0.0
 10
-604.8314
 20
123.8597
 30
0.0
 10
-604.8314
 20
123.8597
 30
0.0
 10
-604.8314
 20
225.1498
 30
0.0
 10
-604.8314
 20
225.1498
 30
0.0
 10
-604.8314
 20
225.1498
 30
0.0
 10
-705.197
 20
225.1498
 30
0.0
 10
-705.197
 20
225.1498
 30
0.0
  0
SPLINE
  5
7D
330
1F
100
AcDbEntity
  8
Layer 1
 62
   250
370
     9
100
AcDbSpline
210
0.0
220
0.0
230
1.0
 70
    11
 71
     3
 72
    17
 73
    13
 74
     0
 42
0.0000000001
 43
0.0000000001
 40
0.0
 40
0.0
 40
0.0
 40
0.0
 40
0.25
 40
0.25
 40
0.25
 40
0.5
 40
0.5
 40
0.5
 40
0.75
 40
0.75
 40
0.75
 40
1.0
 40
1.0
 40
1.0
 40
1.0
 10
-604.8314
 20
-119.2878
 30
0.0
 10
-604.8314
 20
-119.2878
 30
0.0
 10
-705.197
 20
-119.2878
 30
0.0
 10
-705.197
 20
-119.2878
 30
0.0
 10
-705.197
 20
-119.2878
 30
0.0
 10
-705.197
 20
103.5761
 30
0.0
 10
-705.197
 20
103.5761
 30
0.0
 10
-705.197
 20
103.5761
 30
0.0
 10
-604.8314
 20
103.5761
 30
0.0
 10
-604.8314
 20
103.5761
 30
0.0
 10
-604.8314
 20
103.5761
 30
0.0
 10
-604.8314
 20
-119.2878
 30
0.0
 10
-604.8314
 20
-119.2878
 30
0.0
  0
SPLINE
  5
7E
330
1F
100
AcDbEntity
  8
Layer 1
 62
   250
370
     9
100
AcDbSpline
210
0.0
220
0.0
230
1.0
 70
    11
 71
     3
 72
    17
 73
    13
 74
     0
 42
0.0000000001
 43
0.0000000001
 40
0.0
 40
0.0
 40
0.0
 40
0.0
 40
0.25
 40
0.25
 40
0.25
 40
0.5
 40
0.5
 40
0.5
 40
0.75
 40
0.75
 40
0.75
 40
1.0
 40
1.0
 40
1.0
 40
1.0
 10
-152.6979
 20
-225.2029
 30
0.0
 10
-152.6979
 20
-225.2029
 30
0.0
 10
-152.8004
 20
-225.0996
 30
0.0
 10
-152.8004
 20
-225.0996
 30
0.0
 10
-152.8004
 20
-225.0996
 30
0.0
 10
-180.3385
 20
-197.3351
 30
0.0
 10
-180.3385
 20
-197.3351
 30
0.0
 10
-180.3385
 20
-197.3351
 30
0.0
 10
-207.9519
 20
-225.2029
 30
0.0
 10
-207.9519
 20
-225.2029
 30
0.0
 10
-207.9519
 20
-225.2029
 30
0.0
 10
-152.6979
 20
-225.2029
 30
0.0
 10
-152.6979
 20
-225.2029
 30
0.0
  0
SPLINE
  5
7F
330
1F
100
AcDbEntity
  8
Layer 1
 62
   250
370
     9
100
AcDbSpline
210
0.0
220
0.0
230
1.0
 70
    11
 71
     3
 72
    17
 73
    13
 74
     0
 42
0.0000000001
 43
0.0000000001
 40
0.0
 40
0.0
 40
0.0
 40
0.0
 40
0.25
 40
0.25
 40
0.25
 40
0.5
 40
0.5
 40
0.5
 40
0.75
 40
0.75
 40
0.75
 40
1.0
 40
1.0
 40
1.0
 40
1.0
 10
-124.298
 20
-225.2029
 30
0.0
 10
-124.298
 20
-225.2029
 30
0.0
 10
-123.0171
 20
-225.2029
 30
0.0
 10
-123.0171
 20
-225.2029
 30
0.0
 10
-123.0171
 20
-225.2029
 30
0.0
 10
-123.0171
 20
-139.5286
 30
0.0
 10
-123.0171
 20
-139.5286
 30
0.0
 10
-123.0171
 20
-139.5286
 30
0.0
 10
-166.1038
 20
-183.0121
 30
0.0
 10
-166.1038
 20
-183.0121
 30
0.0
 10
-166.1038
 20
-183.0121
 30
0.0
 10
-124.298
 20
-225.2029
 30
0.0
 10
-124.298
 20
-225.2029
 30
0.0
  0
SPLINE
  5
80
330
1F
100
AcDbEntity
  8
Layer 1
 62
   250
370
     9
100
AcDbSpline
210
0.0
220
0.0
230
1.0
 70
    11
 71
     3
 72
    17
 73
    13
 74
     0
 42
0.0000000001
 43
0.0000000001
 40
0.0
 40
0.0
 40
0.0
 40
0.0
 40
0.25
 40
0.25
 40
0.25
 40
0.5
 40
0.5
 40
0.5
 40
0.75
 40
0.75
 40
0.75
 40
1.0
 40
1.0
 40
1.0
 40
1.0
 10
-2.5954
 20
123.8597
 30
0.0
 10
-2.5954
 20
123.8597
 30
0.0
 10
-102.961
 20
123.8597
 30
0.0
 10
-102.961
 20
123.8597
 30
0.0
 10
-102.961
 20
123.8597
 30
0.0
 10
-102.961
 20
225.1498
 30
0.0
 10
-102.961
 20
225.1498
 30
0.0
 10
-102.961
 20
225.1498
 30
0.0
 10
-2.5954
 20
225.1498
 30
0.0
 10
-2.5954
 20
225.1498
 30
0.0
 10
-2.5954
 20
225.1498
 30
0.0
 10
-2.5954
 20
123.8597
 30
0.0
 10
-2.5954
 20
123.8597
 30
0.0
  0
SPLINE
  5
81
330
1F
100
AcDbEntity
  8
Layer 1
 62
   250
370
     9
100
AcDbSpline
210
0.0
220
0.0
230
1.0
 70
    11
 71
     3
 72
    17
 73
    13
 74
     0
 42
0.0000000001
 43
0.0000000001
 40
0.0
 40
0.0
 40
0.0
 40
0.0
 40
0.25
 40
0.25
 40
0.25
 40
0.5
 40
0.5
 40
0.5
 40
0.75
 40
0.75
 40
0.75
 40
1.0
 40
1.0
 40
1.0
 40
1.0
 10
-2.5954
 20
-119.2878
 30
0.0
 10
-2.5954
 20
-119.2878
 30
0.0
 10
-102.961
 20
-119.2878
 30
0.0
 10
-102.961
 20
-119.2878
 30
0.0
 10
-102.961
 20
-119.2878
 30
0.0
 10
-102.961
 20
103.5761
 30
0.0
 10
-102.961
 20
103.5761
 30
0.0
 10
-102.961
 20
103.5761
 30
0.0
 10
-2.5954
 20
103.5761
 30
0.0
 10
-2.5954
 20
103.5761
 30
0.0
 10
-2.5954
 20
103.5761
 30
0.0
 10
-2.5954
 20
-119.2878
 30
0.0
 10
-2.5954
 20
-119.2878
 30
0.0
  0
SPLINE
  5
82
330
1F
100
AcDbEntity
  8
Layer 1
 62
   250
370
     9
100
AcDbSpline
210
0.0
220
0.0
230
1.0
 70
    11
 71
     3
 72
    14
 73
    10
 74
     0
 42
0.0000000001
 43
0.0000000001
 40
0.0
 40
0.0
 40
0.0
 40
0.0
 40
0.3333333333333333
 40
0.3333333333333333
 40
0.3333333333333333
 40
0.6666666666666666
 40
0.6666666666666666
 40
0.6666666666666666
 40
1.0
 40
1.0
 40
1.0
 40
1.0
 10
-166.1038
 20
167.3433
 30
0.0
 10
-166.1038
 20
167.3433
 30
0.0
 10
-123.0171
 20
210.8268
 30
0.0
 10
-123.0171
 20
210.8268
 30
0.0
 10
-123.0171
 20
210.8268
 30
0.0
 10
-123.0171
 20
123.8597
 30
0.0
 10
-123.0171
 20
123.8597
 30
0.0
 10
-123.0171
 20
123.8597
 30
0.0
 10
-166.1038
 20
167.3433
 30
0.0
 10
-166.1038
 20
167.3433
 30
0.0
  0
SPLINE
  5
83
330
1F
100
AcDbEntity
  8
Layer 1
 62
   250
370
     9
100
AcDbSpline
210
0.0
220
0.0
230
1.0
 70
    11
 71
     3
 72
    14
 73
    10
 74
     0
 42
0.0000000001
 43
0.0000000001
 40
0.0
 40
0.0
 40
0.0
 40
0.0
 40
0.3333333333333333
 40
0.3333333333333333
 40
0.3333333333333333
 40
0.6666666666666666
 40
0.6666666666666666
 40
0.6666666666666666
 40
1.0
 40
1.0
 40
1.0
 40
1.0
 10
-137.2094
 20
225.1498
 30
0.0
 10
-137.2094
 20
225.1498
 30
0.0
 10
-223.4252
 20
225.1498
 30
0.0
 10
-223.4252
 20
225.1498
 30
0.0
 10
-223.4252
 20
225.1498
 30
0.0
 10
-180.3385
 20
181.6663
 30
0.0
 10
-180.3385
 20
181.6663
 30
0.0
 10
-180.3385
 20
181.6663
 30
0.0
 10
-137.2094
 20
225.1498
 30
0.0
 10
-137.2094
 20
225.1498
 30
0.0
  0
SPLINE
  5
84
330
1F
100
AcDbEntity
  8
Layer 1
 62
   250
370
     9
100
AcDbSpline
210
0.0
220
0.0
230
1.0
 70
    11
 71
     3
 72
    14
 73
    10
 74
     0
 42
0.0000000001
 43
0.0000000001
 40
0.0
 40
0.0
 40
0.0
 40
0.0
 40
0.3333333333333333
 40
0.3333333333333333
 40
0.3333333333333333
 40
0.6666666666666666
 40
0.6666666666666666
 40
0.6666666666666666
 40
1.0
 40
1.0
 40
1.0
 40
1.0
 10
-541.6462
 20
167.3433
 30
0.0
 10
-541.6462
 20
167.3433
 30
0.0
 10
-584.7753
 20
210.8268
 30
0.0
 10
-584.7753
 20
210.8268
 30
0.0
 10
-584.7753
 20
210.8268
 30
0.0
 10
-584.7753
 20
123.8597
 30
0.0
 10
-584.7753
 20
123.8597
 30
0.0
 10
-584.7753
 20
123.8597
 30
0.0
 10
-541.6462
 20
167.3433
 30
0.0
 10
-541.6462
 20
167.3433
 30
0.0
  0
SPLINE
  5
85
330
1F
100
AcDbEntity
  8
Layer 1
 62
   250
370
     9
100
AcDbSpline
210
0.0
220
0.0
230
1.0
 70
    11
 71
     3
 72
    14
 73
    10
 74
     0
 42
0.0000000001
 43
0.0000000001
 40
0.0
 40
0.0
 40
0.0
 40
0.0
 40
0.3333333333333333
 40
0.3333333333333333
 40
0.3333333333333333
 40
0.6666666666666666
 40
0.6666666666666666
 40
0.6666666666666666
 40
1.0
 40
1.0
 40
1.0
 40
1.0
 10
-484.3672
 20
225.1498
 30
0.0
 10
-484.3672
 20
225.1498
 30
0.0
 10
-570.5406
 20
225.1498
 30
0.0
 10
-570.5406
 20
225.1498
 30
0.0
 10
-570.5406
 20
225.1498
 30
0.0
 10
-527.4539
 20
181.6663
 30
0.0
 10
-527.4539
 20
181.6663
 30
0.0
 10
-527.4539
 20
181.6663
 30
0.0
 10
-484.3672
 20
225.1498
 30
0.0
 10
-484.3672
 20
225.1498
 30
0.0
  0
SPLINE
  5
86
330
1F
100
AcDbEntity
  8
Layer 1
 62
   250
370
     9
100
AcDbSpline
210
0.0
220
0.0
230
1.0
 70
    11
 71
     3
 72
    29
 73
    25
 74
     0
 42
0.0000000001
 43
0.0000000001
 40
0.0
 40
0.0
 40
0.0
 40
0.0
 40
0.125
 40
0.125
 40
0.125
 40
0.25
 40
0.25
 40
0.25
 40
0.375
 40
0.375
 40
0.375
 40
0.5
 40
0.5
 40
0.5
 40
0.625
 40
0.625
 40
0.625
 40
0.75
 40
0.75
 40
0.75
 40
0.875
 40
0.875
 40
0.875
 40
1.0
 40
1.0
 40
1.0
 40
1.0
 10
-251.8097
 20
225.1498
 30
0.0
 10
-251.8097
 20
225.1498
 30
0.0
 10
-455.9827
 20
225.1498
 30
0.0
 10
-455.9827
 20
225.1498
 30
0.0
 10
-455.9827
 20
225.1498
 30
0.0
 10
-584.7753
 20
95.2138
 30
0.0
 10
-584.7753
 20
95.2138
 30
0.0
 10
-584.7753
 20
95.2138
 30
0.0
 10
-584.7753
 20
-110.8826
 30
0.0
 10
-584.7753
 20
-110.8826
 30
0.0
 10
-584.7753
 20
-110.8826
 30
0.0
 10
-471.4611
 20
-225.2029
 30
0.0
 10
-471.4611
 20
-225.2029
 30
0.0
 10
-471.4611
 20
-225.2029
 30
0.0
 10
-236.3314
 20
-225.2029
 30
0.0
 10
-236.3314
 20
-225.2029
 30
0.0
 10
-236.3314
 20
-225.2029
 30
0.0
 10
-123.0171
 20
-110.8826
 30
0.0
 10
-123.0171
 20
-110.8826
 30
0.0
 10
-123.0171
 20
-110.8826
 30
0.0
 10
-123.0171
 20
95.2138
 30
0.0
 10
-123.0171
 20
95.2138
 30
0.0
 10
-123.0171
 20
95.2138
 30
0.0
 10
-251.8097
 20
225.1498
 30
0.0
 10
-251.8097
 20
225.1498
 30
0.0
  0
SPLINE
  5
87
330
1F
100
AcDbEntity
  8
Layer 1
 62
   250
370
     9
100
AcDbSpline
210
0.0
220
0.0
230
1.0
 70
    11
 71
     3
 72
    17
 73
    13
 74
     0
 42
0.0000000001
 43
0.0000000001
 40
0.0
 40
0.0
 40
0.0
 40
0.0
 40
0.25
 40
0.25
 40
0.25
 40
0.5
 40
0.5
 40
0.5
 40
0.75
 40
0.75
 40
0.75
 40
1.0
 40
1.0
 40
1.0
 40
1.0
 10
-705.197
 20
-225.2029
 30
0.0
 10
-705.197
 20
-225.2029
 30
0.0
 10
-604.8314
 20
-225.2029
 30
0.0
 10
-604.8314
 20
-225.2029
 30
0.0
 10
-604.8314
 20
-225.2029
 30
0.0
 10
-604.8314
 20
-139.5286
 30
0.0
 10
-604.8314
 20
-139.5286
 30
0.0
 10
-604.8314
 20
-139.5286
 30
0.0
 10
-705.197
 20
-139.5286
 30
0.0
 10
-705.197
 20
-139.5286
 30
0.0
 10
-705.197
 20
-139.5286
 30
0.0
 10
-705.197
 20
-225.2029
 30
0.0
 10
-705.197
 20
-225.2029
 30
0.0
  0
SPLINE
  5
88
330
1F
100
AcDbEntity
  8
Layer 1
 62
   250
370
     9
100
AcDbSpline
210
0.0
220
0.0
230
1.0
 70
    11
 71
     3
 72
    14
 73
    10
 74
     0
 42
0.0000000001
 43
0.0000000001
 40
0.0
 40
0.0
 40
0.0
 40
0.0
 40
0.3333333333333333
 40
0.3333333333333333
 40
0.3333333333333333
 40
0.6666666666666666
 40
0.6666666666666666
 40
0.6666666666666666
 40
1.0
 40
1.0
 40
1.0
 40
1.0
 10
133.8145
 20
-225.2029
 30
0.0
 10
133.8145
 20
-225.2029
 30
0.0
 10
133.1733
 20
-139.5286
 30
0.0
 10
133.1733
 20
-139.5286
 30
0.0
 10
133.1733
 20
-139.5286
 30
0.0
 10
176.3025
 20
-183.0121
 30
0.0
 10
176.3025
 20
-183.0121
 30
0.0
 10
176.3025
 20
-183.0121
 30
0.0
 10
133.8145
 20
-225.2029
 30
0.0
 10
133.8145
 20
-225.2029
 30
0.0
  0
SPLINE
  5
89
330
1F
100
AcDbEntity
  8
Layer 1
 62
   250
370
     9
100
AcDbSpline
210
0.0
220
0.0
230
1.0
 70
    11
 71
     3
 72
    14
 73
    10
 74
     0
 42
0.0000000001
 43
0.0000000001
 40
0.0
 40
0.0
 40
0.0
 40
0.0
 40
0.3333333333333333
 40
0.3333333333333333
 40
0.3333333333333333
 40
0.6666666666666666
 40
0.6666666666666666
 40
0.6666666666666666
 40
1.0
 40
1.0
 40
1.0
 40
1.0
 10
162.8814
 20
-225.2029
 30
0.0
 10
162.8814
 20
-225.2029
 30
0.0
 10
218.1082
 20
-225.2029
 30
0.0
 10
218.1082
 20
-225.2029
 30
0.0
 10
218.1082
 20
-225.2029
 30
0.0
 10
190.4948
 20
-197.3351
 30
0.0
 10
190.4948
 20
-197.3351
 30
0.0
 10
190.4948
 20
-197.3351
 30
0.0
 10
162.8814
 20
-225.2029
 30
0.0
 10
162.8814
 20
-225.2029
 30
0.0
  0
SPLINE
  5
8A
330
1F
100
AcDbEntity
  8
Layer 1
 62
   250
370
     9
100
AcDbSpline
210
0.0
220
0.0
230
1.0
 70
    11
 71
     3
 72
    17
 73
    13
 74
     0
 42
0.0000000001
 43
0.0000000001
 40
0.0
 40
0.0
 40
0.0
 40
0.0
 40
0.25
 40
0.25
 40
0.25
 40
0.5
 40
0.5
 40
0.5
 40
0.75
 40
0.75
 40
0.75
 40
1.0
 40
1.0
 40
1.0
 40
1.0
 10
12.7516
 20
225.1498
 30
0.0
 10
12.7516
 20
225.1498
 30
0.0
 10
12.7516
 20
123.8597
 30
0.0
 10
12.7516
 20
123.8597
 30
0.0
 10
12.7516
 20
123.8597
 30
0.0
 10
113.1172
 20
123.8597
 30
0.0
 10
113.1172
 20
123.8597
 30
0.0
 10
113.1172
 20
123.8597
 30
0.0
 10
113.1172
 20
225.1498
 30
0.0
 10
113.1172
 20
225.1498
 30
0.0
 10
113.1172
 20
225.1498
 30
0.0
 10
12.7516
 20
225.1498
 30
0.0
 10
12.7516
 20
225.1498
 30
0.0
  0
SPLINE
  5
8B
330
1F
100
AcDbEntity
  8
Layer 1
 62
   250
370
     9
100
AcDbSpline
210
0.0
220
0.0
230
1.0
 70
    11
 71
     3
 72
    17
 73
    13
 74
     0
 42
0.0000000001
 43
0.0000000001
 40
0.0
 40
0.0
 40
0.0
 40
0.0
 40
0.25
 40
0.25
 40
0.25
 40
0.5
 40
0.5
 40
0.5
 40
0.75
 40
0.75
 40
0.75
 40
1.0
 40
1.0
 40
1.0
 40
1.0
 10
113.1172
 20
-119.2878
 30
0.0
 10
113.1172
 20
-119.2878
 30
0.0
 10
12.7516
 20
-119.2878
 30
0.0
 10
12.7516
 20
-119.2878
 30
0.0
 10
12.7516
 20
-119.2878
 30
0.0
 10
12.7516
 20
103.5761
 30
0.0
 10
12.7516
 20
103.5761
 30
0.0
 10
12.7516
 20
103.5761
 30
0.0
 10
113.1172
 20
103.5761
 30
0.0
 10
113.1172
 20
103.5761
 30
0.0
 10
113.1172
 20
103.5761
 30
0.0
 10
113.1172
 20
-119.2878
 30
0.0
 10
113.1172
 20
-119.2878
 30
0.0
  0
SPLINE
  5
8C
330
1F
100
AcDbEntity
  8
Layer 1
 62
   250
370
     9
100
AcDbSpline
210
0.0
220
0.0
230
1.0
 70
    11
 71
     3
 72
    17
 73
    13
 74
     0
 42
0.0000000001
 43
0.0000000001
 40
0.0
 40
0.0
 40
0.0
 40
0.0
 40
0.25
 40
0.25
 40
0.25
 40
0.5
 40
0.5
 40
0.5
 40
0.75
 40
0.75
 40
0.75
 40
1.0
 40
1.0
 40
1.0
 40
1.0
 10
565.2507
 20
-225.2029
 30
0.0
 10
565.2507
 20
-225.2029
 30
0.0
 10
565.1483
 20
-225.0996
 30
0.0
 10
565.1483
 20
-225.0996
 30
0.0
 10
565.1483
 20
-225.0996
 30
0.0
 10
537.6101
 20
-197.3351
 30
0.0
 10
537.6101
 20
-197.3351
 30
0.0
 10
537.6101
 20
-197.3351
 30
0.0
 10
509.9967
 20
-225.2029
 30
0.0
 10
509.9967
 20
-225.2029
 30
0.0
 10
509.9967
 20
-225.2029
 30
0.0
 10
565.2507
 20
-225.2029
 30
0.0
 10
565.2507
 20
-225.2029
 30
0.0
  0
SPLINE
  5
8D
330
1F
100
AcDbEntity
  8
Layer 1
 62
   250
370
     9
100
AcDbSpline
210
0.0
220
0.0
230
1.0
 70
    11
 71
     3
 72
    17
 73
    13
 74
     0
 42
0.0000000001
 43
0.0000000001
 40
0.0
 40
0.0
 40
0.0
 40
0.0
 40
0.25
 40
0.25
 40
0.25
 40
0.5
 40
0.5
 40
0.5
 40
0.75
 40
0.75
 40
0.75
 40
1.0
 40
1.0
 40
1.0
 40
1.0
 10
593.6507
 20
-225.2029
 30
0.0
 10
593.6507
 20
-225.2029
 30
0.0
 10
594.9316
 20
-225.2029
 30
0.0
 10
594.9316
 20
-225.2029
 30
0.0
 10
594.9316
 20
-225.2029
 30
0.0
 10
594.9316
 20
-139.5286
 30
0.0
 10
594.9316
 20
-139.5286
 30
0.0
 10
594.9316
 20
-139.5286
 30
0.0
 10
551.8449
 20
-183.0121
 30
0.0
 10
551.8449
 20
-183.0121
 30
0.0
 10
551.8449
 20
-183.0121
 30
0.0
 10
593.6507
 20
-225.2029
 30
0.0
 10
593.6507
 20
-225.2029
 30
0.0
  0
SPLINE
  5
8E
330
1F
100
AcDbEntity
  8
Layer 1
 62
   250
370
     9
100
AcDbSpline
210
0.0
220
0.0
230
1.0
 70
    11
 71
     3
 72
    17
 73
    13
 74
     0
 42
0.0000000001
 43
0.0000000001
 40
0.0
 40
0.0
 40
0.0
 40
0.0
 40
0.25
 40
0.25
 40
0.25
 40
0.5
 40
0.5
 40
0.5
 40
0.75
 40
0.75
 40
0.75
 40
1.0
 40
1.0
 40
1.0
 40
1.0
 10
715.3533
 20
123.8597
 30
0.0
 10
715.3533
 20
123.8597
 30
0.0
 10
614.9877
 20
123.8597
 30
0.0
 10
614.9877
 20
123.8597
 30
0.0
 10
614.9877
 20
123.8597
 30
0.0
 10
614.9877
 20
225.1498
 30
0.0
 10
614.9877
 20
225.1498
 30
0.0
 10
614.9877
 20
225.1498
 30
0.0
 10
715.3533
 20
225.1498
 30
0.0
 10
715.3533
 20
225.1498
 30
0.0
 10
715.3533
 20
225.1498
 30
0.0
 10
715.3533
 20
123.8597
 30
0.0
 10
715.3533
 20
123.8597
 30
0.0
  0
SPLINE
  5
8F
330
1F
100
AcDbEntity
  8
Layer 1
 62
   250
370
     9
100
AcDbSpline
210
0.0
220
0.0
230
1.0
 70
    11
 71
     3
 72
    17
 73
    13
 74
     0
 42
0.0000000001
 43
0.0000000001
 40
0.0
 40
0.0
 40
0.0
 40
0.0
 40
0.25
 40
0.25
 40
0.25
 40
0.5
 40
0.5
 40
0.5
 40
0.75
 40
0.75
 40
0.75
 40
1.0
 40
1.0
 40
1.0
 40
1.0
 10
715.3533
 20
-119.2878
 30
0.0
 10
715.3533
 20
-119.2878
 30
0.0
 10
614.9877
 20
-119.2878
 30
0.0
 10
614.9877
 20
-119.2878
 30
0.0
 10
614.9877
 20
-119.2878
 30
0.0
 10
614.9877
 20
103.5761
 30
0.0
 10
614.9877
 20
103.5761
 30
0.0
 10
614.9877
 20
103.5761
 30
0.0
 10
715.3533
 20
103.5761
 30
0.0
 10
715.3533
 20
103.5761
 30
0.0
 10
715.3533
 20
103.5761
 30
0.0
 10
715.3533
 20
-119.2878
 30
0.0
 10
715.3533
 20
-119.2878
 30
0.0
  0
SPLINE
  5
90
330
1F
100
AcDbEntity
  8
Layer 1
 62
   250
370
     9
100
AcDbSpline
210
0.0
220
0.0
230
1.0
 70
    11
 71
     3
 72
    14
 73
    10
 74
     0
 42
0.0000000001
 43
0.0000000001
 40
0.0
 40
0.0
 40
0.0
 40
0.0
 40
0.3333333333333333
 40
0.3333333333333333
 40
0.3333333333333333
 40
0.6666666666666666
 40
0.6666666666666666
 40
0.6666666666666666
 40
1.0
 40
1.0
 40
1.0
 40
1.0
 10
551.8449
 20
167.3433
 30
0.0
 10
551.8449
 20
167.3433
 30
0.0
 10
594.9316
 20
210.8268
 30
0.0
 10
594.9316
 20
210.8268
 30
0.0
 10
594.9316
 20
210.8268
 30
0.0
 10
594.9316
 20
123.8597
 30
0.0
 10
594.9316
 20
123.8597
 30
0.0
 10
594.9316
 20
123.8597
 30
0.0
 10
551.8449
 20
167.3433
 30
0.0
 10
551.8449
 20
167.3433
 30
0.0
  0
SPLINE
  5
91
330
1F
100
AcDbEntity
  8
Layer 1
 62
   250
370
     9
100
AcDbSpline
210
0.0
220
0.0
230
1.0
 70
    11
 71
     3
 72
    14
 73
    10
 74
     0
 42
0.0000000001
 43
0.0000000001
 40
0.0
 40
0.0
 40
0.0
 40
0.0
 40
0.3333333333333333
 40
0.3333333333333333
 40
0.3333333333333333
 40
0.6666666666666666
 40
0.6666666666666666
 40
0.6666666666666666
 40
1.0
 40
1.0
 40
1.0
 40
1.0
 10
580.7393
 20
225.1498
 30
0.0
 10
580.7393
 20
225.1498
 30
0.0
 10
494.5234
 20
225.1498
 30
0.0
 10
494.5234
 20
225.1498
 30
0.0
 10
494.5234
 20
225.1498
 30
0.0
 10
537.6101
 20
181.6663
 30
0.0
 10
537.6101
 20
181.6663
 30
0.0
 10
537.6101
 20
181.6663
 30
0.0
 10
580.7393
 20
225.1498
 30
0.0
 10
580.7393
 20
225.1498
 30
0.0
  0
SPLINE
  5
92
330
1F
100
AcDbEntity
  8
Layer 1
 62
   250
370
     9
100
AcDbSpline
210
0.0
220
0.0
230
1.0
 70
    11
 71
     3
 72
    14
 73
    10
 74
     0
 42
0.0000000001
 43
0.0000000001
 40
0.0
 40
0.0
 40
0.0
 40
0.0
 40
0.3333333333333333
 40
0.3333333333333333
 40
0.3333333333333333
 40
0.6666666666666666
 40
0.6666666666666666
 40
0.6666666666666666
 40
1.0
 40
1.0
 40
1.0
 40
1.0
 10
176.3025
 20
167.3433
 30
0.0
 10
176.3025
 20
167.3433
 30
0.0
 10
133.1733
 20
210.8268
 30
0.0
 10
133.1733
 20
210.8268
 30
0.0
 10
133.1733
 20
210.8268
 30
0.0
 10
133.1733
 20
123.8597
 30
0.0
 10
133.1733
 20
123.8597
 30
0.0
 10
133.1733
 20
123.8597
 30
0.0
 10
176.3025
 20
167.3433
 30
0.0
 10
176.3025
 20
167.3433
 30
0.0
  0
SPLINE
  5
93
330
1F
100
AcDbEntity
  8
Layer 1
 62
   250
370
     9
100
AcDbSpline
210
0.0
220
0.0
230
1.0
 70
    11
 71
     3
 72
    14
 73
    10
 74
     0
 42
0.0000000001
 43
0.0000000001
 40
0.0
 40
0.0
 40
0.0
 40
0.0
 40
0.3333333333333333
 40
0.3333333333333333
 40
0.3333333333333333
 40
0.6666666666666666
 40
0.6666666666666666
 40
0.6666666666666666
 40
1.0
 40
1.0
 40
1.0
 40
1.0
 10
233.5815
 20
225.1498
 30
0.0
 10
233.5815
 20
225.1498
 30
0.0
 10
147.4081
 20
225.1498
 30
0.0
 10
147.4081
 20
225.1498
 30
0.0
 10
147.4081
 20
225.1498
 30
0.0
 10
190.4948
 20
181.6663
 30
0.0
 10
190.4948
 20
181.6663
 30
0.0
 10
190.4948
 20
181.6663
 30
0.0
 10
233.5815
 20
225.1498
 30
0.0
 10
233.5815
 20
225.1498
 30
0.0
  0
SPLINE
  5
94
330
1F
100
AcDbEntity
  8
Layer 1
 62
   250
370
     9
100
AcDbSpline
210
0.0
220
0.0
230
1.0
 70
    11
 71
     3
 72
    29
 73
    25
 74
     0
 42
0.0000000001
 43
0.0000000001
 40
0.0
 40
0.0
 40
0.0
 40
0.0
 40
0.125
 40
0.125
 40
0.125
 40
0.25
 40
0.25
 40
0.25
 40
0.375
 40
0.375
 40
0.375
 40
0.5
 40
0.5
 40
0.5
 40
0.625
 40
0.625
 40
0.625
 40
0.75
 40
0.75
 40
0.75
 40
0.875
 40
0.875
 40
0.875
 40
1.0
 40
1.0
 40
1.0
 40
1.0
 10
466.139
 20
225.1498
 30
0.0
 10
466.139
 20
225.1498
 30
0.0
 10
261.9659
 20
225.1498
 30
0.0
 10
261.9659
 20
225.1498
 30
0.0
 10
261.9659
 20
225.1498
 30
0.0
 10
133.1733
 20
95.2138
 30
0.0
 10
133.1733
 20
95.2138
 30
0.0
 10
133.1733
 20
95.2138
 30
0.0
 10
133.1733
 20
-110.8826
 30
0.0
 10
133.1733
 20
-110.8826
 30
0.0
 10
133.1733
 20
-110.8826
 30
0.0
 10
246.4876
 20
-225.2029
 30
0.0
 10
246.4876
 20
-225.2029
 30
0.0
 10
246.4876
 20
-225.2029
 30
0.0
 10
481.6173
 20
-225.2029
 30
0.0
 10
481.6173
 20
-225.2029
 30
0.0
 10
481.6173
 20
-225.2029
 30
0.0
 10
594.9316
 20
-110.8826
 30
0.0
 10
594.9316
 20
-110.8826
 30
0.0
 10
594.9316
 20
-110.8826
 30
0.0
 10
594.9316
 20
95.2138
 30
0.0
 10
594.9316
 20
95.2138
 30
0.0
 10
594.9316
 20
95.2138
 30
0.0
 10
466.139
 20
225.1498
 30
0.0
 10
466.139
 20
225.1498
 30
0.0
  0
SPLINE
  5
95
330
1F
100
AcDbEntity
  8
Layer 1
 62
   250
370
     9
100
AcDbSpline
210
0.0
220
0.0
230
1.0
 70
    11
 71
     3
 72
    17
 73
    13
 74
     0
 42
0.0000000001
 43
0.0000000001
 40
0.0
 40
0.0
 40
0.0
 40
0.0
 40
0.25
 40
0.25
 40
0.25
 40
0.5
 40
0.5
 40
0.5
 40
0.75
 40
0.75
 40
0.75
 40
1.0
 40
1.0
 40
1.0
 40
1.0
 10
12.7516
 20
-225.2029
 30
0.0
 10
12.7516
 20
-225.2029
 30
0.0
 10
113.1172
 20
-225.2029
 30
0.0
 10
113.1172
 20
-225.2029
 30
0.0
 10
113.1172
 20
-225.2029
 30
0.0
 10
113.1172
 20
-139.5286
 30
0.0
 10
113.1172
 20
-139.5286
 30
0.0
 10
113.1172
 20
-139.5286
 30
0.0
 10
12.7516
 20
-139.5286
 30
0.0
 10
12.7516
 20
-139.5286
 30
0.0
 10
12.7516
 20
-139.5286
 30
0.0
 10
12.7516
 20
-225.2029
 30
0.0
 10
12.7516
 20
-225.2029
 30
0.0
  0
SPLINE
  5
96
330
1F
100
AcDbEntity
  8
Layer 1
 62
   250
370
     9
100
AcDbSpline
210
0.0
220
0.0
230
1.0
 70
    11
 71
     3
 72
    14
 73
    10
 74
     0
 42
0.0000000001
 43
0.0000000001
 40
0.0
 40
0.0
 40
0.0
 40
0.0
 40
0.3333333333333333
 40
0.3333333333333333
 40
0.3333333333333333
 40
0.6666666666666666
 40
0.6666666666666666
 40
0.6666666666666666
 40
1.0
 40
1.0
 40
1.0
 40
1.0
 10
851.7631
 20
-225.2029
 30
0.0
 10
851.7631
 20
-225.2029
 30
0.0
 10
851.122
 20
-139.5286
 30
0.0
 10
851.122
 20
-139.5286
 30
0.0
 10
851.122
 20
-139.5286
 30
0.0
 10
894.2511
 20
-183.0121
 30
0.0
 10
894.2511
 20
-183.0121
 30
0.0
 10
894.2511
 20
-183.0121
 30
0.0
 10
851.7631
 20
-225.2029
 30
0.0
 10
851.7631
 20
-225.2029
 30
0.0
  0
SPLINE
  5
97
330
1F
100
AcDbEntity
  8
Layer 1
 62
   250
370
     9
100
AcDbSpline
210
0.0
220
0.0
230
1.0
 70
    11
 71
     3
 72
    14
 73
    10
 74
     0
 42
0.0000000001
 43
0.0000000001
 40
0.0
 40
0.0
 40
0.0
 40
0.0
 40
0.3333333333333333
 40
0.3333333333333333
 40
0.3333333333333333
 40
0.6666666666666666
 40
0.6666666666666666
 40
0.6666666666666666
 40
1.0
 40
1.0
 40
1.0
 40
1.0
 10
880.83
 20
-225.2029
 30
0.0
 10
880.83
 20
-225.2029
 30
0.0
 10
936.0568
 20
-225.2029
 30
0.0
 10
936.0568
 20
-225.2029
 30
0.0
 10
936.0568
 20
-225.2029
 30
0.0
 10
908.4434
 20
-197.3351
 30
0.0
 10
908.4434
 20
-197.3351
 30
0.0
 10
908.4434
 20
-197.3351
 30
0.0
 10
880.83
 20
-225.2029
 30
0.0
 10
880.83
 20
-225.2029
 30
0.0
  0
SPLINE
  5
98
330
1F
100
AcDbEntity
  8
Layer 1
 62
   250
370
     9
100
AcDbSpline
210
0.0
220
0.0
230
1.0
 70
    11
 71
     3
 72
    17
 73
    13
 74
     0
 42
0.0000000001
 43
0.0000000001
 40
0.0
 40
0.0
 40
0.0
 40
0.0
 40
0.25
 40
0.25
 40
0.25
 40
0.5
 40
0.5
 40
0.5
 40
0.75
 40
0.75
 40
0.75
 40
1.0
 40
1.0
 40
1.0
 40
1.0
 10
730.7003
 20
225.1498
 30
0.0
 10
730.7003
 20
225.1498
 30
0.0
 10
730.7003
 20
123.8597
 30
0.0
 10
730.7003
 20
123.8597
 30
0.0
 10
730.7003
 20
123.8597
 30
0.0
 10
831.0659
 20
123.8597
 30
0.0
 10
831.0659
 20
123.8597
 30
0.0
 10
831.0659
 20
123.8597
 30
0.0
 10
831.0659
 20
225.1498
 30
0.0
 10
831.0659
 20
225.1498
 30
0.0
 10
831.0659
 20
225.1498
 30
0.0
 10
730.7003
 20
225.1498
 30
0.0
 10
730.7003
 20
225.1498
 30
0.0
  0
SPLINE
  5
99
330
1F
100
AcDbEntity
  8
Layer 1
 62
   250
370
     9
100
AcDbSpline
210
0.0
220
0.0
230
1.0
 70
    11
 71
     3
 72
    17
 73
    13
 74
     0
 42
0.0000000001
 43
0.0000000001
 40
0.0
 40
0.0
 40
0.0
 40
0.0
 40
0.25
 40
0.25
 40
0.25
 40
0.5
 40
0.5
 40
0.5
 40
0.75
 40
0.75
 40
0.75
 40
1.0
 40
1.0
 40
1.0
 40
1.0
 10
831.0659
 20
-119.2878
 30
0.0
 10
831.0659
 20
-119.2878
 30
0.0
 10
730.7003
 20
-119.2878
 30
0.0
 10
730.7003
 20
-119.2878
 30
0.0
 10
730.7003
 20
-119.2878
 30
0.0
 10
730.7003
 20
103.5761
 30
0.0
 10
730.7003
 20
103.5761
 30
0.0
 10
730.7003
 20
103.5761
 30
0.0
 10
831.0659
 20
103.5761
 30
0.0
 10
831.0659
 20
103.5761
 30
0.0
 10
831.0659
 20
103.5761
 30
0.0
 10
831.0659
 20
-119.2878
 30
0.0
 10
831.0659
 20
-119.2878
 30
0.0
  0
SPLINE
  5
9A
330
1F
100
AcDbEntity
  8
Layer 1
 62
   250
370
     9
100
AcDbSpline
210
0.0
220
0.0
230
1.0
 70
    11
 71
     3
 72
    14
 73
    10
 74
     0
 42
0.0000000001
 43
0.0000000001
 40
0.0
 40
0.0
 40
0.0
 40
0.0
 40
0.3333333333333333
 40
0.3333333333333333
 40
0.3333333333333333
 40
0.6666666666666666
 40
0.6666666666666666
 40
0.6666666666666666
 40
1.0
 40
1.0
 40
1.0
 40
1.0
 10
894.2511
 20
167.3433
 30
0.0
 10
894.2511
 20
167.3433
 30
0.0
 10
851.122
 20
210.8268
 30
0.0
 10
851.122
 20
210.8268
 30
0.0
 10
851.122
 20
210.8268
 30
0.0
 10
851.122
 20
123.8597
 30
0.0
 10
851.122
 20
123.8597
 30
0.0
 10
851.122
 20
123.8597
 30
0.0
 10
894.2511
 20
167.3433
 30
0.0
 10
894.2511
 20
167.3433
 30
0.0
  0
SPLINE
  5
9B
330
1F
100
AcDbEntity
  8
Layer 1
 62
   250
370
     9
100
AcDbSpline
210
0.0
220
0.0
230
1.0
 70
    11
 71
     3
 72
    14
 73
    10
 74
     0
 42
0.0000000001
 43
0.0000000001
 40
0.0
 40
0.0
 40
0.0
 40
0.0
 40
0.3333333333333333
 40
0.3333333333333333
 40
0.3333333333333333
 40
0.6666666666666666
 40
0.6666666666666666
 40
0.6666666666666666
 40
1.0
 40
1.0
 40
1.0
 40
1.0
 10
951.5301
 20
225.1498
 30
0.0
 10
951.5301
 20
225.1498
 30
0.0
 10
865.3567
 20
225.1498
 30
0.0
 10
865.3567
 20
225.1498
 30
0.0
 10
865.3567
 20
225.1498
 30
0.0
 10
908.4434
 20
181.6663
 30
0.0
 10
908.4434
 20
181.6663
 30
0.0
 10
908.4434
 20
181.6663
 30
0.0
 10
951.5301
 20
225.1498
 30
0.0
 10
951.5301
 20
225.1498
 30
0.0
  0
SPLINE
  5
9C
330
1F
100
AcDbEntity
  8
Layer 1
 62
   250
370
     9
100
AcDbSpline
210
0.0
220
0.0
230
1.0
 70
    11
 71
     3
 72
    17
 73
    13
 74
     0
 42
0.0000000001
 43
0.0000000001
 40
0.0
 40
0.0
 40
0.0
 40
0.0
 40
0.25
 40
0.25
 40
0.25
 40
0.5
 40
0.5
 40
0.5
 40
0.75
 40
0.75
 40
0.75
 40
1.0
 40
1.0
 40
1.0
 40
1.0
 10
730.7003
 20
-225.2029
 30
0.0
 10
730.7003
 20
-225.2029
 30
0.0
 10
831.0659
 20
-225.2029
 30
0.0
 10
831.0659
 20
-225.2029
 30
0.0
 10
831.0659
 20
-225.2029
 30
0.0
 10
831.0659
 20
-139.5286
 30
0.0
 10
831.0659
 20
-139.5286
 30
0.0
 10
831.0659
 20
-139.5286
 30
0.0
 10
730.7003
 20
-139.5286
 30
0.0
 10
730.7003
 20
-139.5286
 30
0.0
 10
730.7003
 20
-139.5286
 30
0.0
 10
730.7003
 20
-225.2029
 30
0.0
 10
730.7003
 20
-225.2029
 30
0.0
  0
SPLINE
  5
9D
330
1F
100
AcDbEntity
  8
Layer 1
 62
   250
370
     9
100
AcDbSpline
210
0.0
220
0.0
230
1.0
 70
    11
 71
     3
 72
    14
 73
    10
 74
     0
 42
0.0000000001
 43
0.0000000001
 40
0.0
 40
0.0
 40
0.0
 40
0.0
 40
0.3333333333333333
 40
0.3333333333333333
 40
0.3333333333333333
 40
0.6666666666666666
 40
0.6666666666666666
 40
0.6666666666666666
 40
1.0
 40
1.0
 40
1.0
 40
1.0
 10
-584.1342
 20
250.9375
 30
0.0
 10
-584.1342
 20
250.9375
 30
0.0
 10
-584.7753
 20
336.6118
 30
0.0
 10
-584.7753
 20
336.6118
 30
0.0
 10
-584.7753
 20
336.6118
 30
0.0
 10
-541.6462
 20
293.1283
 30
0.0
 10
-541.6462
 20
293.1283
 30
0.0
 10
-541.6462
 20
293.1283
 30
0.0
 10
-584.1342
 20
250.9375
 30
0.0
 10
-584.1342
 20
250.9375
 30
0.0
  0
SPLINE
  5
9E
330
1F
100
AcDbEntity
  8
Layer 1
 62
   250
370
     9
100
AcDbSpline
210
0.0
220
0.0
230
1.0
 70
    11
 71
     3
 72
    14
 73
    10
 74
     0
 42
0.0000000001
 43
0.0000000001
 40
0.0
 40
0.0
 40
0.0
 40
0.0
 40
0.3333333333333333
 40
0.3333333333333333
 40
0.3333333333333333
 40
0.6666666666666666
 40
0.6666666666666666
 40
0.6666666666666666
 40
1.0
 40
1.0
 40
1.0
 40
1.0
 10
-555.0673
 20
250.9375
 30
0.0
 10
-555.0673
 20
250.9375
 30
0.0
 10
-499.8405
 20
250.9375
 30
0.0
 10
-499.8405
 20
250.9375
 30
0.0
 10
-499.8405
 20
250.9375
 30
0.0
 10
-527.4539
 20
278.8052
 30
0.0
 10
-527.4539
 20
278.8052
 30
0.0
 10
-527.4539
 20
278.8052
 30
0.0
 10
-555.0673
 20
250.9375
 30
0.0
 10
-555.0673
 20
250.9375
 30
0.0
  0
SPLINE
  5
9F
330
1F
100
AcDbEntity
  8
Layer 1
 62
   250
370
     9
100
AcDbSpline
210
0.0
220
0.0
230
1.0
 70
    11
 71
     3
 72
    17
 73
    13
 74
     0
 42
0.0000000001
 43
0.0000000001
 40
0.0
 40
0.0
 40
0.0
 40
0.0
 40
0.25
 40
0.25
 40
0.25
 40
0.5
 40
0.5
 40
0.5
 40
0.75
 40
0.75
 40
0.75
 40
1.0
 40
1.0
 40
1.0
 40
1.0
 10
-604.8314
 20
356.8526
 30
0.0
 10
-604.8314
 20
356.8526
 30
0.0
 10
-705.197
 20
356.8526
 30
0.0
 10
-705.197
 20
356.8526
 30
0.0
 10
-705.197
 20
356.8526
 30
0.0
 10
-705.197
 20
579.7164
 30
0.0
 10
-705.197
 20
579.7164
 30
0.0
 10
-705.197
 20
579.7164
 30
0.0
 10
-604.8314
 20
579.7164
 30
0.0
 10
-604.8314
 20
579.7164
 30
0.0
 10
-604.8314
 20
579.7164
 30
0.0
 10
-604.8314
 20
356.8526
 30
0.0
 10
-604.8314
 20
356.8526
 30
0.0
  0
SPLINE
  5
A0
330
1F
100
AcDbEntity
  8
Layer 1
 62
   250
370
     9
100
AcDbSpline
210
0.0
220
0.0
230
1.0
 70
    11
 71
     3
 72
    17
 73
    13
 74
     0
 42
0.0000000001
 43
0.0000000001
 40
0.0
 40
0.0
 40
0.0
 40
0.0
 40
0.25
 40
0.25
 40
0.25
 40
0.5
 40
0.5
 40
0.5
 40
0.75
 40
0.75
 40
0.75
 40
1.0
 40
1.0
 40
1.0
 40
1.0
 10
-152.6979
 20
250.9375
 30
0.0
 10
-152.6979
 20
250.9375
 30
0.0
 10
-152.8004
 20
251.0408
 30
0.0
 10
-152.8004
 20
251.0408
 30
0.0
 10
-152.8004
 20
251.0408
 30
0.0
 10
-180.3385
 20
278.8052
 30
0.0
 10
-180.3385
 20
278.8052
 30
0.0
 10
-180.3385
 20
278.8052
 30
0.0
 10
-207.9519
 20
250.9375
 30
0.0
 10
-207.9519
 20
250.9375
 30
0.0
 10
-207.9519
 20
250.9375
 30
0.0
 10
-152.6979
 20
250.9375
 30
0.0
 10
-152.6979
 20
250.9375
 30
0.0
  0
SPLINE
  5
A1
330
1F
100
AcDbEntity
  8
Layer 1
 62
   250
370
     9
100
AcDbSpline
210
0.0
220
0.0
230
1.0
 70
    11
 71
     3
 72
    17
 73
    13
 74
     0
 42
0.0000000001
 43
0.0000000001
 40
0.0
 40
0.0
 40
0.0
 40
0.0
 40
0.25
 40
0.25
 40
0.25
 40
0.5
 40
0.5
 40
0.5
 40
0.75
 40
0.75
 40
0.75
 40
1.0
 40
1.0
 40
1.0
 40
1.0
 10
-124.298
 20
250.9375
 30
0.0
 10
-124.298
 20
250.9375
 30
0.0
 10
-123.0171
 20
250.9375
 30
0.0
 10
-123.0171
 20
250.9375
 30
0.0
 10
-123.0171
 20
250.9375
 30
0.0
 10
-123.0171
 20
336.6118
 30
0.0
 10
-123.0171
 20
336.6118
 30
0.0
 10
-123.0171
 20
336.6118
 30
0.0
 10
-166.1038
 20
293.1283
 30
0.0
 10
-166.1038
 20
293.1283
 30
0.0
 10
-166.1038
 20
293.1283
 30
0.0
 10
-124.298
 20
250.9375
 30
0.0
 10
-124.298
 20
250.9375
 30
0.0
  0
SPLINE
  5
A2
330
1F
100
AcDbEntity
  8
Layer 1
 62
   250
370
     9
100
AcDbSpline
210
0.0
220
0.0
230
1.0
 70
    11
 71
     3
 72
    17
 73
    13
 74
     0
 42
0.0000000001
 43
0.0000000001
 40
0.0
 40
0.0
 40
0.0
 40
0.0
 40
0.25
 40
0.25
 40
0.25
 40
0.5
 40
0.5
 40
0.5
 40
0.75
 40
0.75
 40
0.75
 40
1.0
 40
1.0
 40
1.0
 40
1.0
 10
-2.5954
 20
356.8526
 30
0.0
 10
-2.5954
 20
356.8526
 30
0.0
 10
-102.961
 20
356.8526
 30
0.0
 10
-102.961
 20
356.8526
 30
0.0
 10
-102.961
 20
356.8526
 30
0.0
 10
-102.961
 20
579.7164
 30
0.0
 10
-102.961
 20
579.7164
 30
0.0
 10
-102.961
 20
579.7164
 30
0.0
 10
-2.5954
 20
579.7164
 30
0.0
 10
-2.5954
 20
579.7164
 30
0.0
 10
-2.5954
 20
579.7164
 30
0.0
 10
-2.5954
 20
356.8526
 30
0.0
 10
-2.5954
 20
356.8526
 30
0.0
  0
SPLINE
  5
A3
330
1F
100
AcDbEntity
  8
Layer 1
 62
   250
370
     9
100
AcDbSpline
210
0.0
220
0.0
230
1.0
 70
    11
 71
     3
 72
    17
 73
    13
 74
     0
 42
0.0000000001
 43
0.0000000001
 40
0.0
 40
0.0
 40
0.0
 40
0.0
 40
0.25
 40
0.25
 40
0.25
 40
0.5
 40
0.5
 40
0.5
 40
0.75
 40
0.75
 40
0.75
 40
1.0
 40
1.0
 40
1.0
 40
1.0
 10
-705.197
 20
250.9375
 30
0.0
 10
-705.197
 20
250.9375
 30
0.0
 10
-604.8314
 20
250.9375
 30
0.0
 10
-604.8314
 20
250.9375
 30
0.0
 10
-604.8314
 20
250.9375
 30
0.0
 10
-604.8314
 20
336.6118
 30
0.0
 10
-604.8314
 20
336.6118
 30
0.0
 10
-604.8314
 20
336.6118
 30
0.0
 10
-705.197
 20
336.6118
 30
0.0
 10
-705.197
 20
336.6118
 30
0.0
 10
-705.197
 20
336.6118
 30
0.0
 10
-705.197
 20
250.9375
 30
0.0
 10
-705.197
 20
250.9375
 30
0.0
  0
SPLINE
  5
A4
330
1F
100
AcDbEntity
  8
Layer 1
 62
   250
370
     9
100
AcDbSpline
210
0.0
220
0.0
230
1.0
 70
    11
 71
     3
 72
    14
 73
    10
 74
     0
 42
0.0000000001
 43
0.0000000001
 40
0.0
 40
0.0
 40
0.0
 40
0.0
 40
0.3333333333333333
 40
0.3333333333333333
 40
0.3333333333333333
 40
0.6666666666666666
 40
0.6666666666666666
 40
0.6666666666666666
 40
1.0
 40
1.0
 40
1.0
 40
1.0
 10
133.8145
 20
250.9375
 30
0.0
 10
133.8145
 20
250.9375
 30
0.0
 10
133.1733
 20
336.6118
 30
0.0
 10
133.1733
 20
336.6118
 30
0.0
 10
133.1733
 20
336.6118
 30
0.0
 10
176.3025
 20
293.1283
 30
0.0
 10
176.3025
 20
293.1283
 30
0.0
 10
176.3025
 20
293.1283
 30
0.0
 10
133.8145
 20
250.9375
 30
0.0
 10
133.8145
 20
250.9375
 30
0.0
  0
SPLINE
  5
A5
330
1F
100
AcDbEntity
  8
Layer 1
 62
   250
370
     9
100
AcDbSpline
210
0.0
220
0.0
230
1.0
 70
    11
 71
     3
 72
    14
 73
    10
 74
     0
 42
0.0000000001
 43
0.0000000001
 40
0.0
 40
0.0
 40
0.0
 40
0.0
 40
0.3333333333333333
 40
0.3333333333333333
 40
0.3333333333333333
 40
0.6666666666666666
 40
0.6666666666666666
 40
0.6666666666666666
 40
1.0
 40
1.0
 40
1.0
 40
1.0
 10
162.8814
 20
250.9375
 30
0.0
 10
162.8814
 20
250.9375
 30
0.0
 10
218.1082
 20
250.9375
 30
0.0
 10
218.1082
 20
250.9375
 30
0.0
 10
218.1082
 20
250.9375
 30
0.0
 10
190.4948
 20
278.8052
 30
0.0
 10
190.4948
 20
278.8052
 30
0.0
 10
190.4948
 20
278.8052
 30
0.0
 10
162.8814
 20
250.9375
 30
0.0
 10
162.8814
 20
250.9375
 30
0.0
  0
SPLINE
  5
A6
330
1F
100
AcDbEntity
  8
Layer 1
 62
   250
370
     9
100
AcDbSpline
210
0.0
220
0.0
230
1.0
 70
    11
 71
     3
 72
    17
 73
    13
 74
     0
 42
0.0000000001
 43
0.0000000001
 40
0.0
 40
0.0
 40
0.0
 40
0.0
 40
0.25
 40
0.25
 40
0.25
 40
0.5
 40
0.5
 40
0.5
 40
0.75
 40
0.75
 40
0.75
 40
1.0
 40
1.0
 40
1.0
 40
1.0
 10
113.1172
 20
356.8526
 30
0.0
 10
113.1172
 20
356.8526
 30
0.0
 10
12.7516
 20
356.8526
 30
0.0
 10
12.7516
 20
356.8526
 30
0.0
 10
12.7516
 20
356.8526
 30
0.0
 10
12.7516
 20
579.7164
 30
0.0
 10
12.7516
 20
579.7164
 30
0.0
 10
12.7516
 20
579.7164
 30
0.0
 10
113.1172
 20
579.7164
 30
0.0
 10
113.1172
 20
579.7164
 30
0.0
 10
113.1172
 20
579.7164
 30
0.0
 10
113.1172
 20
356.8526
 30
0.0
 10
113.1172
 20
356.8526
 30
0.0
  0
SPLINE
  5
A7
330
1F
100
AcDbEntity
  8
Layer 1
 62
   250
370
     9
100
AcDbSpline
210
0.0
220
0.0
230
1.0
 70
    11
 71
     3
 72
    17
 73
    13
 74
     0
 42
0.0000000001
 43
0.0000000001
 40
0.0
 40
0.0
 40
0.0
 40
0.0
 40
0.25
 40
0.25
 40
0.25
 40
0.5
 40
0.5
 40
0.5
 40
0.75
 40
0.75
 40
0.75
 40
1.0
 40
1.0
 40
1.0
 40
1.0
 10
565.2507
 20
250.9375
 30
0.0
 10
565.2507
 20
250.9375
 30
0.0
 10
565.1483
 20
251.0408
 30
0.0
 10
565.1483
 20
251.0408
 30
0.0
 10
565.1483
 20
251.0408
 30
0.0
 10
537.6101
 20
278.8052
 30
0.0
 10
537.6101
 20
278.8052
 30
0.0
 10
537.6101
 20
278.8052
 30
0.0
 10
509.9967
 20
250.9375
 30
0.0
 10
509.9967
 20
250.9375
 30
0.0
 10
509.9967
 20
250.9375
 30
0.0
 10
565.2507
 20
250.9375
 30
0.0
 10
565.2507
 20
250.9375
 30
0.0
  0
SPLINE
  5
A8
330
1F
100
AcDbEntity
  8
Layer 1
 62
   250
370
     9
100
AcDbSpline
210
0.0
220
0.0
230
1.0
 70
    11
 71
     3
 72
    17
 73
    13
 74
     0
 42
0.0000000001
 43
0.0000000001
 40
0.0
 40
0.0
 40
0.0
 40
0.0
 40
0.25
 40
0.25
 40
0.25
 40
0.5
 40
0.5
 40
0.5
 40
0.75
 40
0.75
 40
0.75
 40
1.0
 40
1.0
 40
1.0
 40
1.0
 10
593.6507
 20
250.9375
 30
0.0
 10
593.6507
 20
250.9375
 30
0.0
 10
594.9316
 20
250.9375
 30
0.0
 10
594.9316
 20
250.9375
 30
0.0
 10
594.9316
 20
250.9375
 30
0.0
 10
594.9316
 20
336.6118
 30
0.0
 10
594.9316
 20
336.6118
 30
0.0
 10
594.9316
 20
336.6118
 30
0.0
 10
551.8449
 20
293.1283
 30
0.0
 10
551.8449
 20
293.1283
 30
0.0
 10
551.8449
 20
293.1283
 30
0.0
 10
593.6507
 20
250.9375
 30
0.0
 10
593.6507
 20
250.9375
 30
0.0
  0
SPLINE
  5
A9
330
1F
100
AcDbEntity
  8
Layer 1
 62
   250
370
     9
100
AcDbSpline
210
0.0
220
0.0
230
1.0
 70
    11
 71
     3
 72
    17
 73
    13
 74
     0
 42
0.0000000001
 43
0.0000000001
 40
0.0
 40
0.0
 40
0.0
 40
0.0
 40
0.25
 40
0.25
 40
0.25
 40
0.5
 40
0.5
 40
0.5
 40
0.75
 40
0.75
 40
0.75
 40
1.0
 40
1.0
 40
1.0
 40
1.0
 10
715.3533
 20
356.8526
 30
0.0
 10
715.3533
 20
356.8526
 30
0.0
 10
614.9877
 20
356.8526
 30
0.0
 10
614.9877
 20
356.8526
 30
0.0
 10
614.9877
 20
356.8526
 30
0.0
 10
614.9877
 20
579.7164
 30
0.0
 10
614.9877
 20
579.7164
 30
0.0
 10
614.9877
 20
579.7164
 30
0.0
 10
715.3533
 20
579.7164
 30
0.0
 10
715.3533
 20
579.7164
 30
0.0
 10
715.3533
 20
579.7164
 30
0.0
 10
715.3533
 20
356.8526
 30
0.0
 10
715.3533
 20
356.8526
 30
0.0
  0
SPLINE
  5
AA
330
1F
100
AcDbEntity
  8
Layer 1
 62
   250
370
     9
100
AcDbSpline
210
0.0
220
0.0
230
1.0
 70
    11
 71
     3
 72
    17
 73
    13
 74
     0
 42
0.0000000001
 43
0.0000000001
 40
0.0
 40
0.0
 40
0.0
 40
0.0
 40
0.25
 40
0.25
 40
0.25
 40
0.5
 40
0.5
 40
0.5
 40
0.75
 40
0.75
 40
0.75
 40
1.0
 40
1.0
 40
1.0
 40
1.0
 10
12.7516
 20
250.9375
 30
0.0
 10
12.7516
 20
250.9375
 30
0.0
 10
113.1172
 20
250.9375
 30
0.0
 10
113.1172
 20
250.9375
 30
0.0
 10
113.1172
 20
250.9375
 30
0.0
 10
113.1172
 20
336.6118
 30
0.0
 10
113.1172
 20
336.6118
 30
0.0
 10
113.1172
 20
336.6118
 30
0.0
 10
12.7516
 20
336.6118
 30
0.0
 10
12.7516
 20
336.6118
 30
0.0
 10
12.7516
 20
336.6118
 30
0.0
 10
12.7516
 20
250.9375
 30
0.0
 10
12.7516
 20
250.9375
 30
0.0
  0
SPLINE
  5
AB
330
1F
100
AcDbEntity
  8
Layer 1
 62
   250
370
     9
100
AcDbSpline
210
0.0
220
0.0
230
1.0
 70
    11
 71
     3
 72
    14
 73
    10
 74
     0
 42
0.0000000001
 43
0.0000000001
 40
0.0
 40
0.0
 40
0.0
 40
0.0
 40
0.3333333333333333
 40
0.3333333333333333
 40
0.3333333333333333
 40
0.6666666666666666
 40
0.6666666666666666
 40
0.6666666666666666
 40
1.0
 40
1.0
 40
1.0
 40
1.0
 10
851.7631
 20
250.9375
 30
0.0
 10
851.7631
 20
250.9375
 30
0.0
 10
851.122
 20
336.6118
 30
0.0
 10
851.122
 20
336.6118
 30
0.0
 10
851.122
 20
336.6118
 30
0.0
 10
894.2511
 20
293.1283
 30
0.0
 10
894.2511
 20
293.1283
 30
0.0
 10
894.2511
 20
293.1283
 30
0.0
 10
851.7631
 20
250.9375
 30
0.0
 10
851.7631
 20
250.9375
 30
0.0
  0
SPLINE
  5
AC
330
1F
100
AcDbEntity
  8
Layer 1
 62
   250
370
     9
100
AcDbSpline
210
0.0
220
0.0
230
1.0
 70
    11
 71
     3
 72
    14
 73
    10
 74
     0
 42
0.0000000001
 43
0.0000000001
 40
0.0
 40
0.0
 40
0.0
 40
0.0
 40
0.3333333333333333
 40
0.3333333333333333
 40
0.3333333333333333
 40
0.6666666666666666
 40
0.6666666666666666
 40
0.6666666666666666
 40
1.0
 40
1.0
 40
1.0
 40
1.0
 10
880.83
 20
250.9375
 30
0.0
 10
880.83
 20
250.9375
 30
0.0
 10
936.0568
 20
250.9375
 30
0.0
 10
936.0568
 20
250.9375
 30
0.0
 10
936.0568
 20
250.9375
 30
0.0
 10
908.4434
 20
278.8052
 30
0.0
 10
908.4434
 20
278.8052
 30
0.0
 10
908.4434
 20
278.8052
 30
0.0
 10
880.83
 20
250.9375
 30
0.0
 10
880.83
 20
250.9375
 30
0.0
  0
SPLINE
  5
AD
330
1F
100
AcDbEntity
  8
Layer 1
 62
   250
370
     9
100
AcDbSpline
210
0.0
220
0.0
230
1.0
 70
    11
 71
     3
 72
    17
 73
    13
 74
     0
 42
0.0000000001
 43
0.0000000001
 40
0.0
 40
0.0
 40
0.0
 40
0.0
 40
0.25
 40
0.25
 40
0.25
 40
0.5
 40
0.5
 40
0.5
 40
0.75
 40
0.75
 40
0.75
 40
1.0
 40
1.0
 40
1.0
 40
1.0
 10
831.0659
 20
356.8526
 30
0.0
 10
831.0659
 20
356.8526
 30
0.0
 10
730.7003
 20
356.8526
 30
0.0
 10
730.7003
 20
356.8526
 30
0.0
 10
730.7003
 20
356.8526
 30
0.0
 10
730.7003
 20
579.7164
 30
0.0
 10
730.7003
 20
579.7164
 30
0.0
 10
730.7003
 20
579.7164
 30
0.0
 10
831.0659
 20
579.7164
 30
0.0
 10
831.0659
 20
579.7164
 30
0.0
 10
831.0659
 20
579.7164
 30
0.0
 10
831.0659
 20
356.8526
 30
0.0
 10
831.0659
 20
356.8526
 30
0.0
  0
SPLINE
  5
AE
330
1F
100
AcDbEntity
  8
Layer 1
 62
   250
370
     9
100
AcDbSpline
210
0.0
220
0.0
230
1.0
 70
    11
 71
     3
 72
    17
 73
    13
 74
     0
 42
0.0000000001
 43
0.0000000001
 40
0.0
 40
0.0
 40
0.0
 40
0.0
 40
0.25
 40
0.25
 40
0.25
 40
0.5
 40
0.5
 40
0.5
 40
0.75
 40
0.75
 40
0.75
 40
1.0
 40
1.0
 40
1.0
 40
1.0
 10
730.7003
 20
250.9375
 30
0.0
 10
730.7003
 20
250.9375
 30
0.0
 10
831.0659
 20
250.9375
 30
0.0
 10
831.0659
 20
250.9375
 30
0.0
 10
831.0659
 20
250.9375
 30
0.0
 10
831.0659
 20
336.6118
 30
0.0
 10
831.0659
 20
336.6118
 30
0.0
 10
831.0659
 20
336.6118
 30
0.0
 10
730.7003
 20
336.6118
 30
0.0
 10
730.7003
 20
336.6118
 30
0.0
 10
730.7003
 20
336.6118
 30
0.0
 10
730.7003
 20
250.9375
 30
0.0
 10
730.7003
 20
250.9375
 30
0.0
  0
SPLINE
  5
AF
330
1F
100
AcDbEntity
  8
Layer 1
 62
   250
370
     9
100
AcDbSpline
210
0.0
220
0.0
230
1.0
 70
    11
 71
     3
 72
    17
 73
    13
 74
     0
 42
0.0000000001
 43
0.0000000001
 40
0.0
 40
0.0
 40
0.0
 40
0.0
 40
0.25
 40
0.25
 40
0.25
 40
0.5
 40
0.5
 40
0.5
 40
0.75
 40
0.75
 40
0.75
 40
1.0
 40
1.0
 40
1.0
 40
1.0
 10
-730.8005
 20
-590.0266
 30
0.0
 10
-730.8005
 20
-590.0266
 30
0.0
 10
-831.1661
 20
-590.0266
 30
0.0
 10
-831.1661
 20
-590.0266
 30
0.0
 10
-831.1661
 20
-590.0266
 30
0.0
 10
-831.1661
 20
-372.5643
 30
0.0
 10
-831.1661
 20
-372.5643
 30
0.0
 10
-831.1661
 20
-372.5643
 30
0.0
 10
-730.8005
 20
-372.5643
 30
0.0
 10
-730.8005
 20
-372.5643
 30
0.0
 10
-730.8005
 20
-372.5643
 30
0.0
 10
-730.8005
 20
-590.0266
 30
0.0
 10
-730.8005
 20
-590.0266
 30
0.0
  0
SPLINE
  5
B0
330
1F
100
AcDbEntity
  8
Layer 1
 62
   250
370
     9
100
AcDbSpline
210
0.0
220
0.0
230
1.0
 70
    11
 71
     3
 72
    17
 73
    13
 74
     0
 42
0.0000000001
 43
0.0000000001
 40
0.0
 40
0.0
 40
0.0
 40
0.0
 40
0.25
 40
0.25
 40
0.25
 40
0.5
 40
0.5
 40
0.5
 40
0.75
 40
0.75
 40
0.75
 40
1.0
 40
1.0
 40
1.0
 40
1.0
 10
-604.8314
 20
-590.0266
 30
0.0
 10
-604.8314
 20
-590.0266
 30
0.0
 10
-705.197
 20
-590.0266
 30
0.0
 10
-705.197
 20
-590.0266
 30
0.0
 10
-705.197
 20
-590.0266
 30
0.0
 10
-705.197
 20
-372.5643
 30
0.0
 10
-705.197
 20
-372.5643
 30
0.0
 10
-705.197
 20
-372.5643
 30
0.0
 10
-604.8314
 20
-372.5643
 30
0.0
 10
-604.8314
 20
-372.5643
 30
0.0
 10
-604.8314
 20
-372.5643
 30
0.0
 10
-604.8314
 20
-590.0266
 30
0.0
 10
-604.8314
 20
-590.0266
 30
0.0
  0
SPLINE
  5
B1
330
1F
100
AcDbEntity
  8
Layer 1
 62
   250
370
     9
100
AcDbSpline
210
0.0
220
0.0
230
1.0
 70
    11
 71
     3
 72
    29
 73
    25
 74
     0
 42
0.0000000001
 43
0.0000000001
 40
0.0
 40
0.0
 40
0.0
 40
0.0
 40
0.125
 40
0.125
 40
0.125
 40
0.25
 40
0.25
 40
0.25
 40
0.375
 40
0.375
 40
0.375
 40
0.5
 40
0.5
 40
0.5
 40
0.625
 40
0.625
 40
0.625
 40
0.75
 40
0.75
 40
0.75
 40
0.875
 40
0.875
 40
0.875
 40
1.0
 40
1.0
 40
1.0
 40
1.0
 10
-125.9943
 20
-590.0266
 30
0.0
 10
-125.9943
 20
-590.0266
 30
0.0
 10
-581.7981
 20
-590.0266
 30
0.0
 10
-581.7981
 20
-590.0266
 30
0.0
 10
-581.7981
 20
-590.0266
 30
0.0
 10
-584.7753
 20
-587.023
 30
0.0
 10
-584.7753
 20
-587.023
 30
0.0
 10
-584.7753
 20
-587.023
 30
0.0
 10
-584.7753
 20
-380.9265
 30
0.0
 10
-584.7753
 20
-380.9265
 30
0.0
 10
-584.7753
 20
-380.9265
 30
0.0
 10
-455.9827
 20
-250.9906
 30
0.0
 10
-455.9827
 20
-250.9906
 30
0.0
 10
-455.9827
 20
-250.9906
 30
0.0
 10
-251.8097
 20
-250.9906
 30
0.0
 10
-251.8097
 20
-250.9906
 30
0.0
 10
-251.8097
 20
-250.9906
 30
0.0
 10
-123.0171
 20
-380.9265
 30
0.0
 10
-123.0171
 20
-380.9265
 30
0.0
 10
-123.0171
 20
-380.9265
 30
0.0
 10
-123.0171
 20
-587.023
 30
0.0
 10
-123.0171
 20
-587.023
 30
0.0
 10
-123.0171
 20
-587.023
 30
0.0
 10
-125.9943
 20
-590.0266
 30
0.0
 10
-125.9943
 20
-590.0266
 30
0.0
  0
SPLINE
  5
B2
330
1F
100
AcDbEntity
  8
Layer 1
 62
   250
370
     9
100
AcDbSpline
210
0.0
220
0.0
230
1.0
 70
    11
 71
     3
 72
    17
 73
    13
 74
     0
 42
0.0000000001
 43
0.0000000001
 40
0.0
 40
0.0
 40
0.0
 40
0.0
 40
0.25
 40
0.25
 40
0.25
 40
0.5
 40
0.5
 40
0.5
 40
0.75
 40
0.75
 40
0.75
 40
1.0
 40
1.0
 40
1.0
 40
1.0
 10
-2.5954
 20
-590.0266
 30
0.0
 10
-2.5954
 20
-590.0266
 30
0.0
 10
-102.961
 20
-590.0266
 30
0.0
 10
-102.961
 20
-590.0266
 30
0.0
 10
-102.961
 20
-590.0266
 30
0.0
 10
-102.961
 20
-372.5643
 30
0.0
 10
-102.961
 20
-372.5643
 30
0.0
 10
-102.961
 20
-372.5643
 30
0.0
 10
-2.5954
 20
-372.5643
 30
0.0
 10
-2.5954
 20
-372.5643
 30
0.0
 10
-2.5954
 20
-372.5643
 30
0.0
 10
-2.5954
 20
-590.0266
 30
0.0
 10
-2.5954
 20
-590.0266
 30
0.0
  0
SPLINE
  5
B3
330
1F
100
AcDbEntity
  8
Layer 1
 62
   250
370
     9
100
AcDbSpline
210
0.0
220
0.0
230
1.0
 70
    11
 71
     3
 72
    17
 73
    13
 74
     0
 42
0.0000000001
 43
0.0000000001
 40
0.0
 40
0.0
 40
0.0
 40
0.0
 40
0.25
 40
0.25
 40
0.25
 40
0.5
 40
0.5
 40
0.5
 40
0.75
 40
0.75
 40
0.75
 40
1.0
 40
1.0
 40
1.0
 40
1.0
 10
113.1172
 20
-590.0266
 30
0.0
 10
113.1172
 20
-590.0266
 30
0.0
 10
12.7516
 20
-590.0266
 30
0.0
 10
12.7516
 20
-590.0266
 30
0.0
 10
12.7516
 20
-590.0266
 30
0.0
 10
12.7516
 20
-372.5643
 30
0.0
 10
12.7516
 20
-372.5643
 30
0.0
 10
12.7516
 20
-372.5643
 30
0.0
 10
113.1172
 20
-372.5643
 30
0.0
 10
113.1172
 20
-372.5643
 30
0.0
 10
113.1172
 20
-372.5643
 30
0.0
 10
113.1172
 20
-590.0266
 30
0.0
 10
113.1172
 20
-590.0266
 30
0.0
  0
SPLINE
  5
B4
330
1F
100
AcDbEntity
  8
Layer 1
 62
   250
370
     9
100
AcDbSpline
210
0.0
220
0.0
230
1.0
 70
    11
 71
     3
 72
    29
 73
    25
 74
     0
 42
0.0000000001
 43
0.0000000001
 40
0.0
 40
0.0
 40
0.0
 40
0.0
 40
0.125
 40
0.125
 40
0.125
 40
0.25
 40
0.25
 40
0.25
 40
0.375
 40
0.375
 40
0.375
 40
0.5
 40
0.5
 40
0.5
 40
0.625
 40
0.625
 40
0.625
 40
0.75
 40
0.75
 40
0.75
 40
0.875
 40
0.875
 40
0.875
 40
1.0
 40
1.0
 40
1.0
 40
1.0
 10
591.9543
 20
-590.0266
 30
0.0
 10
591.9543
 20
-590.0266
 30
0.0
 10
136.1506
 20
-590.0266
 30
0.0
 10
136.1506
 20
-590.0266
 30
0.0
 10
136.1506
 20
-590.0266
 30
0.0
 10
133.1733
 20
-587.023
 30
0.0
 10
133.1733
 20
-587.023
 30
0.0
 10
133.1733
 20
-587.023
 30
0.0
 10
133.1733
 20
-380.9265
 30
0.0
 10
133.1733
 20
-380.9265
 30
0.0
 10
133.1733
 20
-380.9265
 30
0.0
 10
261.9659
 20
-250.9906
 30
0.0
 10
261.9659
 20
-250.9906
 30
0.0
 10
261.9659
 20
-250.9906
 30
0.0
 10
466.139
 20
-250.9906
 30
0.0
 10
466.139
 20
-250.9906
 30
0.0
 10
466.139
 20
-250.9906
 30
0.0
 10
594.9316
 20
-380.9265
 30
0.0
 10
594.9316
 20
-380.9265
 30
0.0
 10
594.9316
 20
-380.9265
 30
0.0
 10
594.9316
 20
-587.023
 30
0.0
 10
594.9316
 20
-587.023
 30
0.0
 10
594.9316
 20
-587.023
 30
0.0
 10
591.9543
 20
-590.0266
 30
0.0
 10
591.9543
 20
-590.0266
 30
0.0
  0
SPLINE
  5
B5
330
1F
100
AcDbEntity
  8
Layer 1
 62
   250
370
     9
100
AcDbSpline
210
0.0
220
0.0
230
1.0
 70
    11
 71
     3
 72
    17
 73
    13
 74
     0
 42
0.0000000001
 43
0.0000000001
 40
0.0
 40
0.0
 40
0.0
 40
0.0
 40
0.25
 40
0.25
 40
0.25
 40
0.5
 40
0.5
 40
0.5
 40
0.75
 40
0.75
 40
0.75
 40
1.0
 40
1.0
 40
1.0
 40
1.0
 10
715.3533
 20
-590.0266
 30
0.0
 10
715.3533
 20
-590.0266
 30
0.0
 10
614.9877
 20
-590.0266
 30
0.0
 10
614.9877
 20
-590.0266
 30
0.0
 10
614.9877
 20
-590.0266
 30
0.0
 10
614.9877
 20
-372.5643
 30
0.0
 10
614.9877
 20
-372.5643
 30
0.0
 10
614.9877
 20
-372.5643
 30
0.0
 10
715.3533
 20
-372.5643
 30
0.0
 10
715.3533
 20
-372.5643
 30
0.0
 10
715.3533
 20
-372.5643
 30
0.0
 10
715.3533
 20
-590.0266
 30
0.0
 10
715.3533
 20
-590.0266
 30
0.0
  0
SPLINE
  5
B6
330
1F
100
AcDbEntity
  8
Layer 1
 62
   250
370
     9
100
AcDbSpline
210
0.0
220
0.0
230
1.0
 70
    11
 71
     3
 72
    17
 73
    13
 74
     0
 42
0.0000000001
 43
0.0000000001
 40
0.0
 40
0.0
 40
0.0
 40
0.0
 40
0.25
 40
0.25
 40
0.25
 40
0.5
 40
0.5
 40
0.5
 40
0.75
 40
0.75
 40
0.75
 40
1.0
 40
1.0
 40
1.0
 40
1.0
 10
831.0659
 20
-590.0266
 30
0.0
 10
831.0659
 20
-590.0266
 30
0.0
 10
730.7003
 20
-590.0266
 30
0.0
 10
730.7003
 20
-590.0266
 30
0.0
 10
730.7003
 20
-590.0266
 30
0.0
 10
730.7003
 20
-372.5643
 30
0.0
 10
730.7003
 20
-372.5643
 30
0.0
 10
730.7003
 20
-372.5643
 30
0.0
 10
831.0659
 20
-372.5643
 30
0.0
 10
831.0659
 20
-372.5643
 30
0.0
 10
831.0659
 20
-372.5643
 30
0.0
 10
831.0659
 20
-590.0266
 30
0.0
 10
831.0659
 20
-590.0266
 30
0.0
  0
SPLINE
  5
B7
330
1F
100
AcDbEntity
  8
Layer 1
 62
   250
370
     9
100
AcDbSpline
210
0.0
220
0.0
230
1.0
 70
    11
 71
     3
 72
    26
 73
    22
 74
     0
 42
0.0000000001
 43
0.0000000001
 40
0.0
 40
0.0
 40
0.0
 40
0.0
 40
0.1428571428571428
 40
0.1428571428571428
 40
0.1428571428571428
 40
0.2857142857142857
 40
0.2857142857142857
 40
0.2857142857142857
 40
0.4285714285714285
 40
0.4285714285714285
 40
0.4285714285714285
 40
0.5714285714285714
 40
0.5714285714285714
 40
0.5714285714285714
 40
0.7142857142857142
 40
0.7142857142857142
 40
0.7142857142857142
 40
0.8571428571428571
 40
0.8571428571428571
 40
0.8571428571428571
 40
1.0
 40
1.0
 40
1.0
 40
1.0
 10
1199.95
 20
-266.9937
 30
0.0
 10
1199.95
 20
-266.9937
 30
0.0
 10
1199.95
 20
-590.0266
 30
0.0
 10
1199.95
 20
-590.0266
 30
0.0
 10
1199.95
 20
-590.0266
 30
0.0
 10
854.0992
 20
-590.0266
 30
0.0
 10
854.0992
 20
-590.0266
 30
0.0
 10
854.0992
 20
-590.0266
 30
0.0
 10
851.122
 20
-587.023
 30
0.0
 10
851.122
 20
-587.023
 30
0.0
 10
851.122
 20
-587.023
 30
0.0
 10
851.122
 20
-380.9265
 30
0.0
 10
851.122
 20
-380.9265
 30
0.0
 10
851.122
 20
-380.9265
 30
0.0
 10
979.9146
 20
-250.9906
 30
0.0
 10
979.9146
 20
-250.9906
 30
0.0
 10
979.9146
 20
-250.9906
 30
0.0
 10
1184.0876
 20
-250.9906
 30
0.0
 10
1184.0876
 20
-250.9906
 30
0.0
 10
1184.0876
 20
-250.9906
 30
0.0
 10
1199.95
 20
-266.9937
 30
0.0
 10
1199.95
 20
-266.9937
 30
0.0
  0
SPLINE
  5
B8
330
1F
100
AcDbEntity
  8
Layer 1
 62
   250
370
     9
100
AcDbSpline
210
0.0
220
0.0
230
1.0
 70
    11
 71
     3
 72
    29
 73
    25
 74
     0
 42
0.0000000001
 43
0.0000000001
 40
0.0
 40
0.0
 40
0.0
 40
0.0
 40
0.125
 40
0.125
 40
0.125
 40
0.25
 40
0.25
 40
0.25
 40
0.375
 40
0.375
 40
0.375
 40
0.5
 40
0.5
 40
0.5
 40
0.625
 40
0.625
 40
0.625
 40
0.75
 40
0.75
 40
0.75
 40
0.875
 40
0.875
 40
0.875
 40
1.0
 40
1.0
 40
1.0
 40
1.0
 10
1199.95
 20
209.1466
 30
0.0
 10
1199.95
 20
209.1466
 30
0.0
 10
1199.95
 20
-224.8154
 30
0.0
 10
1199.95
 20
-224.8154
 30
0.0
 10
1199.95
 20
-224.8154
 30
0.0
 10
1199.566
 20
-225.2029
 30
0.0
 10
1199.566
 20
-225.2029
 30
0.0
 10
1199.566
 20
-225.2029
 30
0.0
 10
964.4363
 20
-225.2029
 30
0.0
 10
964.4363
 20
-225.2029
 30
0.0
 10
964.4363
 20
-225.2029
 30
0.0
 10
851.122
 20
-110.8826
 30
0.0
 10
851.122
 20
-110.8826
 30
0.0
 10
851.122
 20
-110.8826
 30
0.0
 10
851.122
 20
95.2138
 30
0.0
 10
851.122
 20
95.2138
 30
0.0
 10
851.122
 20
95.2138
 30
0.0
 10
979.9146
 20
225.1498
 30
0.0
 10
979.9146
 20
225.1498
 30
0.0
 10
979.9146
 20
225.1498
 30
0.0
 10
1184.0876
 20
225.1498
 30
0.0
 10
1184.0876
 20
225.1498
 30
0.0
 10
1184.0876
 20
225.1498
 30
0.0
 10
1199.95
 20
209.1466
 30
0.0
 10
1199.95
 20
209.1466
 30
0.0
  0
SPLINE
  5
B9
330
1F
100
AcDbEntity
  8
Layer 1
 62
   250
370
     9
100
AcDbSpline
210
0.0
220
0.0
230
1.0
 70
    11
 71
     3
 72
    26
 73
    22
 74
     0
 42
0.0000000001
 43
0.0000000001
 40
0.0
 40
0.0
 40
0.0
 40
0.0
 40
0.1428571428571428
 40
0.1428571428571428
 40
0.1428571428571428
 40
0.2857142857142857
 40
0.2857142857142857
 40
0.2857142857142857
 40
0.4285714285714285
 40
0.4285714285714285
 40
0.4285714285714285
 40
0.5714285714285714
 40
0.5714285714285714
 40
0.5714285714285714
 40
0.7142857142857142
 40
0.7142857142857142
 40
0.7142857142857142
 40
0.8571428571428571
 40
0.8571428571428571
 40
0.8571428571428571
 40
1.0
 40
1.0
 40
1.0
 40
1.0
 10
869.5774
 20
589.9734
 30
0.0
 10
869.5774
 20
589.9734
 30
0.0
 10
1199.95
 20
589.9734
 30
0.0
 10
1199.95
 20
589.9734
 30
0.0
 10
1199.95
 20
589.9734
 30
0.0
 10
1199.95
 20
251.3249
 30
0.0
 10
1199.95
 20
251.3249
 30
0.0
 10
1199.95
 20
251.3249
 30
0.0
 10
1199.566
 20
250.9375
 30
0.0
 10
1199.566
 20
250.9375
 30
0.0
 10
1199.566
 20
250.9375
 30
0.0
 10
964.4363
 20
250.9375
 30
0.0
 10
964.4363
 20
250.9375
 30
0.0
 10
964.4363
 20
250.9375
 30
0.0
 10
851.122
 20
365.2577
 30
0.0
 10
851.122
 20
365.2577
 30
0.0
 10
851.122
 20
365.2577
 30
0.0
 10
851.122
 20
571.3541
 30
0.0
 10
851.122
 20
571.3541
 30
0.0
 10
851.122
 20
571.3541
 30
0.0
 10
869.5774
 20
589.9734
 30
0.0
 10
869.5774
 20
589.9734
 30
0.0
  0
SPLINE
  5
BA
330
1F
100
AcDbEntity
  8
Layer 1
 62
   250
370
     9
100
AcDbSpline
210
0.0
220
0.0
230
1.0
 70
    11
 71
     3
 72
    29
 73
    25
 74
     0
 42
0.0000000001
 43
0.0000000001
 40
0.0
 40
0.0
 40
0.0
 40
0.0
 40
0.125
 40
0.125
 40
0.125
 40
0.25
 40
0.25
 40
0.25
 40
0.375
 40
0.375
 40
0.375
 40
0.5
 40
0.5
 40
0.5
 40
0.625
 40
0.625
 40
0.625
 40
0.75
 40
0.75
 40
0.75
 40
0.875
 40
0.875
 40
0.875
 40
1.0
 40
1.0
 40
1.0
 40
1.0
 10
151.6288
 20
589.9734
 30
0.0
 10
151.6288
 20
589.9734
 30
0.0
 10
576.4761
 20
589.9734
 30
0.0
 10
576.4761
 20
589.9734
 30
0.0
 10
576.4761
 20
589.9734
 30
0.0
 10
594.9316
 20
571.3541
 30
0.0
 10
594.9316
 20
571.3541
 30
0.0
 10
594.9316
 20
571.3541
 30
0.0
 10
594.9316
 20
365.2577
 30
0.0
 10
594.9316
 20
365.2577
 30
0.0
 10
594.9316
 20
365.2577
 30
0.0
 10
481.6173
 20
250.9375
 30
0.0
 10
481.6173
 20
250.9375
 30
0.0
 10
481.6173
 20
250.9375
 30
0.0
 10
246.4876
 20
250.9375
 30
0.0
 10
246.4876
 20
250.9375
 30
0.0
 10
246.4876
 20
250.9375
 30
0.0
 10
133.1733
 20
365.2577
 30
0.0
 10
133.1733
 20
365.2577
 30
0.0
 10
133.1733
 20
365.2577
 30
0.0
 10
133.1733
 20
571.3541
 30
0.0
 10
133.1733
 20
571.3541
 30
0.0
 10
133.1733
 20
571.3541
 30
0.0
 10
151.6288
 20
589.9734
 30
0.0
 10
151.6288
 20
589.9734
 30
0.0
  0
SPLINE
  5
BB
330
1F
100
AcDbEntity
  8
Layer 1
 62
   250
370
     9
100
AcDbSpline
210
0.0
220
0.0
230
1.0
 70
    11
 71
     3
 72
    29
 73
    25
 74
     0
 42
0.0000000001
 43
0.0000000001
 40
0.0
 40
0.0
 40
0.0
 40
0.0
 40
0.125
 40
0.125
 40
0.125
 40
0.25
 40
0.25
 40
0.25
 40
0.375
 40
0.375
 40
0.375
 40
0.5
 40
0.5
 40
0.5
 40
0.625
 40
0.625
 40
0.625
 40
0.75
 40
0.75
 40
0.75
 40
0.875
 40
0.875
 40
0.875
 40
1.0
 40
1.0
 40
1.0
 40
1.0
 10
-566.3199
 20
589.9734
 30
0.0
 10
-566.3199
 20
589.9734
 30
0.0
 10
-141.4725
 20
589.9734
 30
0.0
 10
-141.4725
 20
589.9734
 30
0.0
 10
-141.4725
 20
589.9734
 30
0.0
 10
-123.0171
 20
571.3541
 30
0.0
 10
-123.0171
 20
571.3541
 30
0.0
 10
-123.0171
 20
571.3541
 30
0.0
 10
-123.0171
 20
365.2577
 30
0.0
 10
-123.0171
 20
365.2577
 30
0.0
 10
-123.0171
 20
365.2577
 30
0.0
 10
-236.3314
 20
250.9375
 30
0.0
 10
-236.3314
 20
250.9375
 30
0.0
 10
-236.3314
 20
250.9375
 30
0.0
 10
-471.4611
 20
250.9375
 30
0.0
 10
-471.4611
 20
250.9375
 30
0.0
 10
-471.4611
 20
250.9375
 30
0.0
 10
-584.7753
 20
365.2577
 30
0.0
 10
-584.7753
 20
365.2577
 30
0.0
 10
-584.7753
 20
365.2577
 30
0.0
 10
-584.7753
 20
571.3541
 30
0.0
 10
-584.7753
 20
571.3541
 30
0.0
 10
-584.7753
 20
571.3541
 30
0.0
 10
-566.3199
 20
589.9734
 30
0.0
 10
-566.3199
 20
589.9734
 30
0.0
  0
SPLINE
  5
BC
330
1F
100
AcDbEntity
  8
Layer 1
 62
   250
370
     9
100
AcDbSpline
210
0.0
220
0.0
230
1.0
 70
    11
 71
     3
 72
    26
 73
    22
 74
     0
 42
0.0000000001
 43
0.0000000001
 40
0.0
 40
0.0
 40
0.0
 40
0.0
 40
0.1428571428571428
 40
0.1428571428571428
 40
0.1428571428571428
 40
0.2857142857142857
 40
0.2857142857142857
 40
0.2857142857142857
 40
0.4285714285714285
 40
0.4285714285714285
 40
0.4285714285714285
 40
0.5714285714285714
 40
0.5714285714285714
 40
0.5714285714285714
 40
0.7142857142857142
 40
0.7142857142857142
 40
0.7142857142857142
 40
0.8571428571428571
 40
0.8571428571428571
 40
0.8571428571428571
 40
1.0
 40
1.0
 40
1.0
 40
1.0
 10
-1200.05
 20
251.3248
 30
0.0
 10
-1200.05
 20
251.3248
 30
0.0
 10
-1200.05
 20
589.9734
 30
0.0
 10
-1200.05
 20
589.9734
 30
0.0
 10
-1200.05
 20
589.9734
 30
0.0
 10
-869.6776
 20
589.9734
 30
0.0
 10
-869.6776
 20
589.9734
 30
0.0
 10
-869.6776
 20
589.9734
 30
0.0
 10
-851.2222
 20
571.3541
 30
0.0
 10
-851.2222
 20
571.3541
 30
0.0
 10
-851.2222
 20
571.3541
 30
0.0
 10
-851.2222
 20
365.2577
 30
0.0
 10
-851.2222
 20
365.2577
 30
0.0
 10
-851.2222
 20
365.2577
 30
0.0
 10
-964.5364
 20
250.9375
 30
0.0
 10
-964.5364
 20
250.9375
 30
0.0
 10
-964.5364
 20
250.9375
 30
0.0
 10
-1199.6661
 20
250.9375
 30
0.0
 10
-1199.6661
 20
250.9375
 30
0.0
 10
-1199.6661
 20
250.9375
 30
0.0
 10
-1200.05
 20
251.3248
 30
0.0
 10
-1200.05
 20
251.3248
 30
0.0
  0
SPLINE
  5
BD
330
1F
100
AcDbEntity
  8
Layer 1
 62
   250
370
     9
100
AcDbSpline
210
0.0
220
0.0
230
1.0
 70
    11
 71
     3
 72
    29
 73
    25
 74
     0
 42
0.0000000001
 43
0.0000000001
 40
0.0
 40
0.0
 40
0.0
 40
0.0
 40
0.125
 40
0.125
 40
0.125
 40
0.25
 40
0.25
 40
0.25
 40
0.375
 40
0.375
 40
0.375
 40
0.5
 40
0.5
 40
0.5
 40
0.625
 40
0.625
 40
0.625
 40
0.75
 40
0.75
 40
0.75
 40
0.875
 40
0.875
 40
0.875
 40
1.0
 40
1.0
 40
1.0
 40
1.0
 10
-1200.05
 20
-224.8155
 30
0.0
 10
-1200.05
 20
-224.8155
 30
0.0
 10
-1200.05
 20
209.1467
 30
0.0
 10
-1200.05
 20
209.1467
 30
0.0
 10
-1200.05
 20
209.1467
 30
0.0
 10
-1184.1877
 20
225.1498
 30
0.0
 10
-1184.1877
 20
225.1498
 30
0.0
 10
-1184.1877
 20
225.1498
 30
0.0
 10
-980.0147
 20
225.1498
 30
0.0
 10
-980.0147
 20
225.1498
 30
0.0
 10
-980.0147
 20
225.1498
 30
0.0
 10
-851.2222
 20
95.2138
 30
0.0
 10
-851.2222
 20
95.2138
 30
0.0
 10
-851.2222
 20
95.2138
 30
0.0
 10
-851.2222
 20
-110.8826
 30
0.0
 10
-851.2222
 20
-110.8826
 30
0.0
 10
-851.2222
 20
-110.8826
 30
0.0
 10
-964.5364
 20
-225.2029
 30
0.0
 10
-964.5364
 20
-225.2029
 30
0.0
 10
-964.5364
 20
-225.2029
 30
0.0
 10
-1199.6661
 20
-225.2029
 30
0.0
 10
-1199.6661
 20
-225.2029
 30
0.0
 10
-1199.6661
 20
-225.2029
 30
0.0
 10
-1200.05
 20
-224.8155
 30
0.0
 10
-1200.05
 20
-224.8155
 30
0.0
  0
SPLINE
  5
BE
330
1F
100
AcDbEntity
  8
Layer 1
 62
   250
370
     9
100
AcDbSpline
210
0.0
220
0.0
230
1.0
 70
    11
 71
     3
 72
    26
 73
    22
 74
     0
 42
0.0000000001
 43
0.0000000001
 40
0.0
 40
0.0
 40
0.0
 40
0.0
 40
0.1428571428571428
 40
0.1428571428571428
 40
0.1428571428571428
 40
0.2857142857142857
 40
0.2857142857142857
 40
0.2857142857142857
 40
0.4285714285714285
 40
0.4285714285714285
 40
0.4285714285714285
 40
0.5714285714285714
 40
0.5714285714285714
 40
0.5714285714285714
 40
0.7142857142857142
 40
0.7142857142857142
 40
0.7142857142857142
 40
0.8571428571428571
 40
0.8571428571428571
 40
0.8571428571428571
 40
1.0
 40
1.0
 40
1.0
 40
1.0
 10
-1200.05
 20
-590.0266
 30
0.0
 10
-1200.05
 20
-590.0266
 30
0.0
 10
-1200.05
 20
-266.9936
 30
0.0
 10
-1200.05
 20
-266.9936
 30
0.0
 10
-1200.05
 20
-266.9936
 30
0.0
 10
-1184.1877
 20
-250.9906
 30
0.0
 10
-1184.1877
 20
-250.9906
 30
0.0
 10
-1184.1877
 20
-250.9906
 30
0.0
 10
-980.0147
 20
-250.9906
 30
0.0
 10
-980.0147
 20
-250.9906
 30
0.0
 10
-980.0147
 20
-250.9906
 30
0.0
 10
-851.2222
 20
-380.9265
 30
0.0
 10
-851.2222
 20
-380.9265
 30
0.0
 10
-851.2222
 20
-380.9265
 30
0.0
 10
-851.2222
 20
-587.023
 30
0.0
 10
-851.2222
 20
-587.023
 30
0.0
 10
-851.2222
 20
-587.023
 30
0.0
 10
-854.1994
 20
-590.0266
 30
0.0
 10
-854.1994
 20
-590.0266
 30
0.0
 10
-854.1994
 20
-590.0266
 30
0.0
 10
-1200.05
 20
-590.0266
 30
0.0
 10
-1200.05
 20
-590.0266
 30
0.0
  0
SPLINE
  5
BF
330
1F
100
AcDbEntity
  8
Layer 1
 62
   250
370
     9
100
AcDbSpline
210
0.0
220
0.0
230
1.0
 70
    11
 71
     3
 72
    17
 73
    13
 74
     0
 42
0.0000000001
 43
0.0000000001
 40
0.0
 40
0.0
 40
0.0
 40
0.0
 40
0.25
 40
0.25
 40
0.25
 40
0.5
 40
0.5
 40
0.5
 40
0.75
 40
0.75
 40
0.75
 40
1.0
 40
1.0
 40
1.0
 40
1.0
 10
-730.8005
 20
-352.2806
 30
0.0
 10
-730.8005
 20
-352.2806
 30
0.0
 10
-831.1661
 20
-352.2806
 30
0.0
 10
-831.1661
 20
-352.2806
 30
0.0
 10
-831.1661
 20
-352.2806
 30
0.0
 10
-831.1661
 20
-250.9906
 30
0.0
 10
-831.1661
 20
-250.9906
 30
0.0
 10
-831.1661
 20
-250.9906
 30
0.0
 10
-730.8005
 20
-250.9906
 30
0.0
 10
-730.8005
 20
-250.9906
 30
0.0
 10
-730.8005
 20
-250.9906
 30
0.0
 10
-730.8005
 20
-352.2806
 30
0.0
 10
-730.8005
 20
-352.2806
 30
0.0
  0
SPLINE
  5
C0
330
1F
100
AcDbEntity
  8
Layer 1
 62
   250
370
     9
100
AcDbSpline
210
0.0
220
0.0
230
1.0
 70
    11
 71
     3
 72
    17
 73
    13
 74
     0
 42
0.0000000001
 43
0.0000000001
 40
0.0
 40
0.0
 40
0.0
 40
0.0
 40
0.25
 40
0.25
 40
0.25
 40
0.5
 40
0.5
 40
0.5
 40
0.75
 40
0.75
 40
0.75
 40
1.0
 40
1.0
 40
1.0
 40
1.0
 10
-730.8005
 20
250.9892
 30
0.0
 10
-730.8005
 20
250.9892
 30
0.0
 10
-831.1661
 20
250.9375
 30
0.0
 10
-831.1661
 20
250.9375
 30
0.0
 10
-831.1661
 20
250.9375
 30
0.0
 10
-831.1661
 20
336.6118
 30
0.0
 10
-831.1661
 20
336.6118
 30
0.0
 10
-831.1661
 20
336.6118
 30
0.0
 10
-730.8005
 20
336.6118
 30
0.0
 10
-730.8005
 20
336.6118
 30
0.0
 10
-730.8005
 20
336.6118
 30
0.0
 10
-730.8005
 20
250.9892
 30
0.0
 10
-730.8005
 20
250.9892
 30
0.0
  0
SPLINE
  5
C1
330
1F
100
AcDbEntity
  8
Layer 1
 62
   250
370
     9
100
AcDbSpline
210
0.0
220
0.0
230
1.0
 70
    11
 71
     3
 72
    23
 73
    19
 74
     0
 42
0.0000000001
 43
0.0000000001
 40
0.0
 40
0.0
 40
0.0
 40
0.0
 40
0.1666666666666667
 40
0.1666666666666667
 40
0.1666666666666667
 40
0.3333333333333333
 40
0.3333333333333333
 40
0.3333333333333333
 40
0.5
 40
0.5
 40
0.5
 40
0.6666666666666666
 40
0.6666666666666666
 40
0.6666666666666666
 40
0.8333333333333333
 40
0.8333333333333333
 40
0.8333333333333333
 40
1.0
 40
1.0
 40
1.0
 40
1.0
 10
-102.961
 20
-225.2029
 30
0.0
 10
-102.961
 20
-225.2029
 30
0.0
 10
-102.961
 20
-225.2029
 30
0.0
 10
-102.961
 20
-225.2029
 30
0.0
 10
-102.961
 20
-225.2029
 30
0.0
 10
-102.961
 20
-225.2029
 30
0.0
 10
-102.961
 20
-225.2029
 30
0.0
 10
-102.961
 20
-225.2029
 30
0.0
 10
-2.5954
 20
-225.2029
 30
0.0
 10
-2.5954
 20
-225.2029
 30
0.0
 10
-2.5954
 20
-225.2029
 30
0.0
 10
-2.5954
 20
-139.5286
 30
0.0
 10
-2.5954
 20
-139.5286
 30
0.0
 10
-2.5954
 20
-139.5286
 30
0.0
 10
-102.961
 20
-139.5286
 30
0.0
 10
-102.961
 20
-139.5286
 30
0.0
 10
-102.961
 20
-139.5286
 30
0.0
 10
-102.961
 20
-225.2029
 30
0.0
 10
-102.961
 20
-225.2029
 30
0.0
  0
SPLINE
  5
C2
330
1F
100
AcDbEntity
  8
Layer 1
 62
   250
370
     9
100
AcDbSpline
210
0.0
220
0.0
230
1.0
 70
    11
 71
     3
 72
    20
 73
    16
 74
     0
 42
0.0000000001
 43
0.0000000001
 40
0.0
 40
0.0
 40
0.0
 40
0.0
 40
0.2
 40
0.2
 40
0.2
 40
0.4
 40
0.4
 40
0.4
 40
0.6000000000000001
 40
0.6000000000000001
 40
0.6000000000000001
 40
0.8
 40
0.8
 40
0.8
 40
1.0
 40
1.0
 40
1.0
 40
1.0
 10
614.9877
 20
-225.2029
 30
0.0
 10
614.9877
 20
-225.2029
 30
0.0
 10
715.3533
 20
-225.2029
 30
0.0
 10
715.3533
 20
-225.2029
 30
0.0
 10
715.3533
 20
-225.2029
 30
0.0
 10
715.3533
 20
-225.0994
 30
0.0
 10
715.3533
 20
-225.0994
 30
0.0
 10
715.3533
 20
-225.0994
 30
0.0
 10
715.3533
 20
-139.5286
 30
0.0
 10
715.3533
 20
-139.5286
 30
0.0
 10
715.3533
 20
-139.5286
 30
0.0
 10
614.9877
 20
-139.5286
 30
0.0
 10
614.9877
 20
-139.5286
 30
0.0
 10
614.9877
 20
-139.5286
 30
0.0
 10
614.9877
 20
-225.2029
 30
0.0
 10
614.9877
 20
-225.2029
 30
0.0
  0
SPLINE
  5
C3
330
1F
100
AcDbEntity
  8
Layer 1
 62
   250
370
     9
100
AcDbSpline
210
0.0
220
0.0
230
1.0
 70
    11
 71
     3
 72
    26
 73
    22
 74
     0
 42
0.0000000001
 43
0.0000000001
 40
0.0
 40
0.0
 40
0.0
 40
0.0
 40
0.1428571428571428
 40
0.1428571428571428
 40
0.1428571428571428
 40
0.2857142857142857
 40
0.2857142857142857
 40
0.2857142857142857
 40
0.4285714285714285
 40
0.4285714285714285
 40
0.4285714285714285
 40
0.5714285714285714
 40
0.5714285714285714
 40
0.5714285714285714
 40
0.7142857142857142
 40
0.7142857142857142
 40
0.7142857142857142
 40
0.8571428571428571
 40
0.8571428571428571
 40
0.8571428571428571
 40
1.0
 40
1.0
 40
1.0
 40
1.0
 10
-102.961
 20
250.9375
 30
0.0
 10
-102.961
 20
250.9375
 30
0.0
 10
-102.961
 20
250.9375
 30
0.0
 10
-102.961
 20
250.9375
 30
0.0
 10
-102.961
 20
250.9375
 30
0.0
 10
-102.961
 20
250.9375
 30
0.0
 10
-102.961
 20
250.9375
 30
0.0
 10
-102.961
 20
250.9375
 30
0.0
 10
-2.5954
 20
250.9375
 30
0.0
 10
-2.5954
 20
250.9375
 30
0.0
 10
-2.5954
 20
250.9375
 30
0.0
 10
-2.5954
 20
251.041
 30
0.0
 10
-2.5954
 20
251.041
 30
0.0
 10
-2.5954
 20
251.041
 30
0.0
 10
-2.5954
 20
336.6118
 30
0.0
 10
-2.5954
 20
336.6118
 30
0.0
 10
-2.5954
 20
336.6118
 30
0.0
 10
-102.961
 20
336.6118
 30
0.0
 10
-102.961
 20
336.6118
 30
0.0
 10
-102.961
 20
336.6118
 30
0.0
 10
-102.961
 20
250.9375
 30
0.0
 10
-102.961
 20
250.9375
 30
0.0
  0
SPLINE
  5
C4
330
1F
100
AcDbEntity
  8
Layer 1
 62
   250
370
     9
100
AcDbSpline
210
0.0
220
0.0
230
1.0
 70
    11
 71
     3
 72
    20
 73
    16
 74
     0
 42
0.0000000001
 43
0.0000000001
 40
0.0
 40
0.0
 40
0.0
 40
0.0
 40
0.2
 40
0.2
 40
0.2
 40
0.4
 40
0.4
 40
0.4
 40
0.6000000000000001
 40
0.6000000000000001
 40
0.6000000000000001
 40
0.8
 40
0.8
 40
0.8
 40
1.0
 40
1.0
 40
1.0
 40
1.0
 10
715.3533
 20
251.041
 30
0.0
 10
715.3533
 20
251.041
 30
0.0
 10
715.3533
 20
250.9375
 30
0.0
 10
715.3533
 20
250.9375
 30
0.0
 10
715.3533
 20
250.9375
 30
0.0
 10
614.9877
 20
250.9375
 30
0.0
 10
614.9877
 20
250.9375
 30
0.0
 10
614.9877
 20
250.9375
 30
0.0
 10
614.9877
 20
336.6118
 30
0.0
 10
614.9877
 20
336.6118
 30
0.0
 10
614.9877
 20
336.6118
 30
0.0
 10
715.3533
 20
336.6118
 30
0.0
 10
715.3533
 20
336.6118
 30
0.0
 10
715.3533
 20
336.6118
 30
0.0
 10
715.3533
 20
251.041
 30
0.0
 10
715.3533
 20
251.041
 30
0.0
  0
SPLINE
  5
C5
330
1F
100
AcDbEntity
  8
Layer 1
 62
   250
370
     9
100
AcDbSpline
210
0.0
220
0.0
230
1.0
 70
    24
 71
     3
 72
     8
 73
     4
 74
     0
 42
0.0000000001
 43
0.0000000001
 40
0.0
 40
0.0
 40
0.0
 40
0.0
 40
1.0
 40
1.0
 40
1.0
 40
1.0
 10
-831.1661
 20
-225.2029
 30
0.0
 10
-831.1661
 20
-225.2029
 30
0.0
 10
-730.8005
 20
-224.9959
 30
0.0
 10
-730.8005
 20
-224.9959
 30
0.0
  0
SPLINE
  5
C6
330
1F
100
AcDbEntity
  8
Layer 1
 62
   250
370
     9
100
AcDbSpline
210
0.0
220
0.0
230
1.0
 70
     8
 71
     3
 72
    23
 73
    19
 74
     0
 42
0.0000000001
 43
0.0000000001
 40
0.0
 40
0.0
 40
0.0
 40
0.0
 40
0.1666666666666667
 40
0.1666666666666667
 40
0.1666666666666667
 40
0.3333333333333333
 40
0.3333333333333333
 40
0.3333333333333333
 40
0.5
 40
0.5
 40
0.5
 40
0.6666666666666666
 40
0.6666666666666666
 40
0.6666666666666666
 40
0.8333333333333333
 40
0.8333333333333333
 40
0.8333333333333333
 40
1.0
 40
1.0
 40
1.0
 40
1.0
 10
-831.1661
 20
-225.2029
 30
0.0
 10
-831.1661
 20
-225.2029
 30
0.0
 10
-831.1661
 20
-139.5286
 30
0.0
 10
-831.1661
 20
-139.5286
 30
0.0
 10
-831.1661
 20
-139.5286
 30
0.0
 10
-730.8005
 20
-139.5286
 30
0.0
 10
-730.8005
 20
-139.5286
 30
0.0
 10
-730.8005
 20
-139.5286
 30
0.0
 10
-730.8005
 20
-224.9959
 30
0.0
 10
-730.8005
 20
-224.9959
 30
0.0
 10
-730.8005
 20
-224.9959
 30
0.0
 10
-730.8005
 20
-225.0994
 30
0.0
 10
-730.8005
 20
-225.0994
 30
0.0
 10
-730.8005
 20
-225.0994
 30
0.0
 10
-730.8005
 20
-224.9959
 30
0.0
 10
-730.8005
 20
-224.9959
 30
0.0
 10
-730.8005
 20
-224.9959
 30
0.0
 10
-730.8005
 20
-225.0994
 30
0.0
 10
-730.8005
 20
-225.0994
 30
0.0
  0
ENDSEC
  0
SECTION
  2
OBJECTS
  0
DICTIONARY
  5
C
330
0
100
AcDbDictionary
281
     1
  3
ACAD_DETAILVIEWSTYLE
350
CE
  3
ACAD_GROUP
350
D
  3
ACAD_LAYOUT
350
1A
  3
ACAD_MATERIAL
350
43
  3
ACAD_MLEADERSTYLE
350
5B
  3
ACAD_MLINESTYLE
350
17
  3
ACAD_PLOTSETTINGS
350
19
  3
ACAD_PLOTSTYLENAME
350
E
  3
ACAD_SCALELIST
350
47
  3
ACAD_SECTIONVIEWSTYLE
350
CF
  3
ACAD_TABLESTYLE
350
59
  3
ACAD_VISUALSTYLE
350
2A
  3
ACDB_RECOMPOSE_DATA
350
CB
  3
AcDbVariableDictionary
350
C7
  0
SUN
  5
5D
330
29
100
AcDbSun
 90
        1
290
     0
 63
     7
421
 16777215
 40
1.0
291
     1
 91
  2455826
 92
 54000000
292
     0
 70
     2
 71
   256
280
     1
  0
DICTIONARY
  5
CE
102
{ACAD_REACTORS
330
C
102
}
330
C
100
AcDbDictionary
281
     1
  0
DICTIONARY
  5
D
102
{ACAD_REACTORS
330
C
102
}
330
C
100
AcDbDictionary
281
     1
  0
DICTIONARY
  5
1A
102
{ACAD_REACTORS
330
C
102
}
330
C
100
AcDbDictionary
281
     1
  3
Layout1
350
1E
  3
Layout2
350
26
  3
Model
350
22
  0
DICTIONARY
  5
43
102
{ACAD_REACTORS
330
C
102
}
330
C
100
AcDbDictionary
281
     1
  3
ByBlock
350
45
  3
ByLayer
350
44
  3
Global
350
46
  0
DICTIONARY
  5
5B
102
{ACAD_REACTORS
330
C
102
}
330
C
100
AcDbDictionary
281
     1
  3
Standard
350
5C
  0
DICTIONARY
  5
17
102
{ACAD_REACTORS
330
C
102
}
330
C
100
AcDbDictionary
281
     1
  3
Standard
350
18
  0
DICTIONARY
  5
19
102
{ACAD_REACTORS
330
C
102
}
330
C
100
AcDbDictionary
281
     1
  0
ACDBDICTIONARYWDFLT
  5
E
102
{ACAD_REACTORS
330
C
102
}
330
C
100
AcDbDictionary
281
     1
  3
Normal
350
F
100
AcDbDictionaryWithDefault
340
F
  0
DICTIONARY
  5
47
102
{ACAD_REACTORS
330
C
102
}
330
C
100
AcDbDictionary
281
     1
  3
A0
350
48
  3
A1
350
49
  3
A2
350
4A
  3
A3
350
4B
  3
A4
350
4C
  3
A5
350
4D
  3
A6
350
4E
  3
A7
350
4F
  3
A8
350
50
  3
A9
350
51
  3
B1
350
52
  3
B2
350
53
  3
B3
350
54
  3
B4
350
55
  3
B5
350
56
  3
B6
350
57
  3
B7
350
58
  0
DICTIONARY
  5
CF
102
{ACAD_REACTORS
330
C
102
}
330
C
100
AcDbDictionary
281
     1
  0
DICTIONARY
  5
59
102
{ACAD_REACTORS
330
C
102
}
330
C
100
AcDbDictionary
281
     1
  3
Standard
350
5A
  0
DICTIONARY
  5
2A
102
{ACAD_REACTORS
330
C
102
}
330
C
100
AcDbDictionary
281
     1
  3
2dWireframe
350
2F
  3
Basic
350
32
  3
Brighten
350
36
  3
ColorChange
350
3A
  3
Conceptual
350
34
  3
Dim
350
35
  3
EdgeColorOff
350
3D
  3
Facepattern
350
39
  3
Flat
350
2B
  3
FlatWithEdges
350
2C
  3
Gouraud
350
2D
  3
GouraudWithEdges
350
2E
  3
Hidden
350
31
  3
JitterOff
350
3B
  3
Linepattern
350
38
  3
OverhangOff
350
3C
  3
Realistic
350
33
  3
Shaded
350
42
  3
Shaded with edges
350
41
  3
Shades of Gray
350
3E
  3
Sketchy
350
3F
  3
Thicken
350
37
  3
Wireframe
350
30
  3
X-Ray
350
40
  0
XRECORD
  5
CB
102
{ACAD_REACTORS
330
C
102
}
330
C
100
AcDbXrecord
280
     1
 90
        1
330
5A
  0
DICTIONARY
  5
C7
102
{ACAD_REACTORS
330
C
102
}
330
C
100
AcDbDictionary
281
     1
  3
CANNOSCALE
350
C8
  3
CMLEADERSTYLE
350
CD
  3
CTABLESTYLE
350
CC
  0
LAYOUT
  5
1E
102
{ACAD_REACTORS
330
1A
102
}
330
1A
100
AcDbPlotSettings
  1

  2
none_device
  4

  6

 40
0.0
 41
0.0
 42
0.0
 43
0.0
 44
0.0
 45
0.0
 46
0.0
 47
0.0
 48
0.0
 49
0.0
140
0.0
141
0.0
142
1.0
143
1.0
 70
   688
 72
     0
 73
     0
 74
     5
  7

 75
    16
 76
     0
 77
     2
 78
   300
147
1.0
148
0.0
149
0.0
100
AcDbLayout
  1
Layout1
 70
     1
 71
     1
 10
0.0
 20
0.0
 11
12.0
 21
9.0
 12
0.0
 22
0.0
 32
0.0
 14
1.000000000000000E+20
 24
1.000000000000000E+20
 34
1.000000000000000E+20
 15
-1.000000000000000E+20
 25
-1.000000000000000E+20
 35
-1.000000000000000E+20
146
0.0
 13
0.0
 23
0.0
 33
0.0
 16
1.0
 26
0.0
 36
0.0
 17
0.0
 27
1.0
 37
0.0
 76
     0
330
1B
  0
LAYOUT
  5
26
102
{ACAD_REACTORS
330
1A
102
}
330
1A
100
AcDbPlotSettings
  1

  2
none_device
  4

  6

 40
0.0
 41
0.0
 42
0.0
 43
0.0
 44
0.0
 45
0.0
 46
0.0
 47
0.0
 48
0.0
 49
0.0
140
0.0
141
0.0
142
1.0
143
1.0
 70
   688
 72
     0
 73
     0
 74
     5
  7

 75
    16
 76
     0
 77
     2
 78
   300
147
1.0
148
0.0
149
0.0
100
AcDbLayout
  1
Layout2
 70
     1
 71
     2
 10
0.0
 20
0.0
 11
0.0
 21
0.0
 12
0.0
 22
0.0
 32
0.0
 14
0.0
 24
0.0
 34
0.0
 15
0.0
 25
0.0
 35
0.0
146
0.0
 13
0.0
 23
0.0
 33
0.0
 16
1.0
 26
0.0
 36
0.0
 17
0.0
 27
1.0
 37
0.0
 76
     0
330
23
  0
LAYOUT
  5
22
102
{ACAD_REACTORS
330
1A
102
}
330
1A
100
AcDbPlotSettings
  1

  2
none_device
  4
Letter_(8.50_x_11.00_Inches)
  6

 40
6.35
 41
6.35
 42
6.35000508
 43
6.35000508
 44
215.9
 45
279.4
 46
0.0
 47
0.0
 48
0.0
 49
0.0
140
0.0
141
0.0
142
1.0
143
1.0
 70
  1712
 72
     0
 73
     0
 74
     0
  7

 75
     0
 76
     0
 77
     2
 78
   300
147
1.0
148
0.0
149
0.0
100
AcDbLayout
  1
Model
 70
     1
 71
     0
 10
0.0
 20
0.0
 11
12.0
 21
9.0
 12
0.0
 22
0.0
 32
0.0
 14
-1200.0881
 24
-590.0647
 34
0.0
 15
1199.9881
 25
590.0115
 35
0.0
146
0.0
 13
0.0
 23
0.0
 33
0.0
 16
1.0
 26
0.0
 36
0.0
 17
0.0
 27
1.0
 37
0.0
 76
     0
330
1F
331
29
  0
MATERIAL
  5
45
102
{ACAD_REACTORS
330
43
102
}
330
43
100
AcDbMaterial
  1
ByBlock
 72
     1
 94
      127
  0
MATERIAL
  5
44
102
{ACAD_REACTORS
330
43
102
}
330
43
100
AcDbMaterial
  1
ByLayer
 72
     1
 94
      127
  0
MATERIAL
  5
46
102
{ACAD_REACTORS
330
43
102
}
330
43
100
AcDbMaterial
  1
Global
 72
     1
 94
      127
  0
MLEADERSTYLE
  5
5C
102
{ACAD_REACTORS
330
5B
102
}
330
5B
100
AcDbMLeaderStyle
179
     2
170
     2
171
     1
172
     0
 90
        2
 40
0.0
 41
0.0
173
     1
 91
-1056964608
340
14
 92
       -2
290
     1
 42
0.09
291
     1
 43
0.36
  3
Standard
341
0
 44
0.18
300

342
11
174
     1
178
     6
175
     1
176
     0
 93
-1056964608
 45
0.18
292
     0
297
     0
 46
0.18
343
0
 94
-1056964608
 47
1.0
 49
1.0
140
1.0
293
     1
141
0.0
294
     1
177
     0
142
1.0
295
     0
296
     0
143
0.125
271
     0
272
     9
273
     9
298
     0
  0
MLINESTYLE
  5
18
102
{ACAD_REACTORS
330
17
102
}
330
17
100
AcDbMlineStyle
  2
Standard
 70
     0
  3

 62
   256
 51
90.0
 52
90.0
 71
     2
 49
0.5
 62
   256
  6
BYLAYER
 49
-0.5
 62
   256
  6
BYLAYER
  0
ACDBPLACEHOLDER
  5
F
102
{ACAD_REACTORS
330
E
102
}
330
E
  0
SCALE
  5
48
102
{ACAD_REACTORS
330
47
102
}
330
47
100
AcDbScale
 70
     0
300
1:1
140
1.0
141
1.0
290
     1
  0
SCALE
  5
49
102
{ACAD_REACTORS
330
47
102
}
330
47
100
AcDbScale
 70
     0
300
1/128" = 1'-0"
140
0.0078125
141
12.0
290
     0
  0
SCALE
  5
4A
102
{ACAD_REACTORS
330
47
102
}
330
47
100
AcDbScale
 70
     0
300
1/64" = 1'-0"
140
0.015625
141
12.0
290
     0
  0
SCALE
  5
4B
102
{ACAD_REACTORS
330
47
102
}
330
47
100
AcDbScale
 70
     0
300
1/32" = 1'-0"
140
0.03125
141
12.0
290
     0
  0
SCALE
  5
4C
102
{ACAD_REACTORS
330
47
102
}
330
47
100
AcDbScale
 70
     0
300
1/16" = 1'-0"
140
0.0625
141
12.0
290
     0
  0
SCALE
  5
4D
102
{ACAD_REACTORS
330
47
102
}
330
47
100
AcDbScale
 70
     0
300
3/32" = 1'-0"
140
0.09375
141
12.0
290
     0
  0
SCALE
  5
4E
102
{ACAD_REACTORS
330
47
102
}
330
47
100
AcDbScale
 70
     0
300
1/8" = 1'-0"
140
0.125
141
12.0
290
     0
  0
SCALE
  5
4F
102
{ACAD_REACTORS
330
47
102
}
330
47
100
AcDbScale
 70
     0
300
3/16" = 1'-0"
140
0.1875
141
12.0
290
     0
  0
SCALE
  5
50
102
{ACAD_REACTORS
330
47
102
}
330
47
100
AcDbScale
 70
     0
300
1/4" = 1'-0"
140
0.25
141
12.0
290
     0
  0
SCALE
  5
51
102
{ACAD_REACTORS
330
47
102
}
330
47
100
AcDbScale
 70
     0
300
3/8" = 1'-0"
140
0.375
141
12.0
290
     0
  0
SCALE
  5
52
102
{ACAD_REACTORS
330
47
102
}
330
47
100
AcDbScale
 70
     0
300
1/2" = 1'-0"
140
0.5
141
12.0
290
     0
  0
SCALE
  5
53
102
{ACAD_REACTORS
330
47
102
}
330
47
100
AcDbScale
 70
     0
300
3/4" = 1'-0"
140
0.75
141
12.0
290
     0
  0
SCALE
  5
54
102
{ACAD_REACTORS
330
47
102
}
330
47
100
AcDbScale
 70
     0
300
1" = 1'-0"
140
1.0
141
12.0
290
     0
  0
SCALE
  5
55
102
{ACAD_REACTORS
330
47
102
}
330
47
100
AcDbScale
 70
     0
300
1-1/2" = 1'-0"
140
1.5
141
12.0
290
     0
  0
SCALE
  5
56
102
{ACAD_REACTORS
330
47
102
}
330
47
100
AcDbScale
 70
     0
300
3" = 1'-0"
140
3.0
141
12.0
290
     0
  0
SCALE
  5
57
102
{ACAD_REACTORS
330
47
102
}
330
47
100
AcDbScale
 70
     0
300
6" = 1'-0"
140
6.0
141
12.0
290
     0
  0
SCALE
  5
58
102
{ACAD_REACTORS
330
47
102
}
330
47
100
AcDbScale
 70
     0
300
1'-0" = 1'-0"
140
12.0
141
12.0
290
     0
  0
TABLESTYLE
  5
5A
102
{ACAD_REACTORS
330
59
102
}
102
{ACAD_XDICTIONARY
360
C9
102
}
330
59
100
AcDbTableStyle
  3
Standard
 70
     0
 71
     0
 40
0.06
 41
0.06
280
     0
281
     0
  7
Standard
140
0.18
170
     2
 62
     0
 63
   257
283
     0
 90
        4
 91
        0
  1

274
    -2
284
     1
 64
     0
275
    -2
285
     1
 65
     0
276
    -2
286
     1
 66
     0
277
    -2
287
     1
 67
     0
278
    -2
288
     1
 68
     0
279
    -2
289
     1
 69
     0
  7
Standard
140
0.25
170
     5
 62
     0
 63
   257
283
     0
 90
        4
 91
        0
  1

274
    -2
284
     1
 64
     0
275
    -2
285
     1
 65
     0
276
    -2
286
     1
 66
     0
277
    -2
287
     1
 67
     0
278
    -2
288
     1
 68
     0
279
    -2
289
     1
 69
     0
  7
Standard
140
0.18
170
     5
 62
     0
 63
   257
283
     0
 90
        4
 91
        0
  1

274
    -2
284
     1
 64
     0
275
    -2
285
     1
 65
     0
276
    -2
286
     1
 66
     0
277
    -2
287
     1
 67
     0
278
    -2
288
     1
 68
     0
279
    -2
289
     1
 69
     0
  0
VISUALSTYLE
  5
2F
102
{ACAD_REACTORS
330
2A
102
}
330
2A
100
AcDbVisualStyle
  2
2dWireframe
 70
     4
177
     3
291
     0
 70
    58
 90
        0
176
     1
 90
        2
176
     1
 90
        0
176
     1
 90
        0
176
     1
 40
0.6
176
     1
 40
30.0
176
     1
 62
     7
420
 16777215
176
     1
 90
        1
176
     1
 90
        4
176
     1
 62
     7
176
     1
 62
   257
176
     1
 90
        1
176
     1
 90
        1
176
     1
 40
1.0
176
     1
 90
        0
176
     1
 62
   257
176
     1
 40
1.0
176
     1
 90
        1
176
     1
 90
        6
176
     1
 90
        2
176
     1
 62
     7
176
     1
 90
        5
176
     1
 90
        0
176
     1
 90
        0
176
     1
290
     0
176
     1
 90
        1
176
     1
 40
0.0
176
     1
 90
        0
176
     1
290
     1
176
     1
290
     1
176
     1
290
     0
176
     1
290
     0
176
     1
290
     0
176
     1
290
     0
176
     1
290
     0
176
     1
290
     0
176
     1
290
     0
176
     1
 90
       50
176
     1
 40
0.0
176
     1
 40
1.0
176
     1
 90
        0
176
     1
 62
    18
420
        0
176
     1
 90
       50
176
     1
 90
        3
176
     1
 62
     5
420
      255
176
     1
290
     0
176
     1
 90
       50
176
     1
 90
       50
176
     1
 90
       50
176
     1
290
     0
176
     1
 90
       50
176
     1
 62
   256
176
     0
 40
1.0
176
     0
 90
        2
176
     1
  1
strokes_ogs.tif
176
     1
290
     0
176
     1
 40
1.0
176
     1
 40
1.0
176
     1
  0
VISUALSTYLE
  5
32
102
{ACAD_REACTORS
330
2A
102
}
330
2A
100
AcDbVisualStyle
  2
Basic
 70
     7
177
     3
291
     1
 70
    58
 90
        1
176
     1
 90
        0
176
     1
 90
        1
176
     1
 90
        0
176
     1
 40
0.6
176
     1
 40
30.0
176
     1
 62
     7
420
 16777215
176
     1
 90
        0
176
     1
 90
        4
176
     1
 62
     7
176
     1
 62
   257
176
     1
 90
        1
176
     1
 90
        1
176
     1
 40
1.0
176
     1
 90
        8
176
     1
 62
     7
176
     1
 40
1.0
176
     1
 90
        1
176
     1
 90
        6
176
     1
 90
        2
176
     1
 62
     7
176
     1
 90
        5
176
     1
 90
        0
176
     1
 90
        0
176
     1
290
     0
176
     1
 90
        1
176
     1
 40
0.0
176
     1
 90
        0
176
     1
290
     0
176
     1
290
     1
176
     1
290
     1
176
     1
290
     0
176
     1
290
     0
176
     1
290
     0
176
     1
290
     0
176
     1
290
     0
176
     1
290
     0
176
     1
 90
       50
176
     1
 40
0.0
176
     1
 40
1.0
176
     1
 90
        0
176
     1
 62
    18
420
        0
176
     1
 90
       50
176
     1
 90
        3
176
     1
 62
     5
420
      255
176
     1
290
     0
176
     1
 90
       50
176
     1
 90
       50
176
     1
 90
       50
176
     1
290
     0
176
     1
 90
       50
176
     1
 62
   256
176
     0
 40
1.0
176
     0
 90
        2
176
     1
  1
strokes_ogs.tif
176
     1
290
     0
176
     1
 40
1.0
176
     1
 40
1.0
176
     1
  0
VISUALSTYLE
  5
36
102
{ACAD_REACTORS
330
2A
102
}
330
2A
100
AcDbVisualStyle
  2
Brighten
 70
    12
177
     3
291
     1
 70
    58
 90
        2
176
     1
 90
        2
176
     1
 90
        0
176
     1
 90
        0
176
     1
 40
0.6
176
     1
 40
30.0
176
     1
 62
     7
420
 16777215
176
     1
 90
        1
176
     1
 90
        4
176
     1
 62
     7
176
     1
 62
   257
176
     1
 90
        1
176
     1
 90
        1
176
     1
 40
1.0
176
     1
 90
        8
176
     1
 62
     7
176
     1
 40
1.0
176
     1
 90
        1
176
     1
 90
        6
176
     1
 90
        2
176
     1
 62
     7
176
     1
 90
        5
176
     1
 90
        0
176
     1
 90
        0
176
     1
290
     0
176
     1
 90
        1
176
     1
 40
50.0
176
     1
 90
        0
176
     1
290
     0
176
     1
290
     1
176
     1
290
     1
176
     1
290
     0
176
     1
290
     0
176
     1
290
     0
176
     1
290
     0
176
     1
290
     0
176
     1
290
     0
176
     1
 90
       50
176
     1
 40
0.0
176
     1
 40
1.0
176
     1
 90
        0
176
     1
 62
    18
420
        0
176
     1
 90
       50
176
     1
 90
        3
176
     1
 62
     5
420
      255
176
     1
290
     0
176
     1
 90
       50
176
     1
 90
       50
176
     1
 90
       50
176
     1
290
     0
176
     1
 90
       50
176
     1
 62
   256
176
     0
 40
1.0
176
     0
 90
        2
176
     1
  1
strokes_ogs.tif
176
     1
290
     0
176
     1
 40
1.0
176
     1
 40
1.0
176
     1
  0
VISUALSTYLE
  5
3A
102
{ACAD_REACTORS
330
2A
102
}
330
2A
100
AcDbVisualStyle
  2
ColorChange
 70
    16
177
     3
291
     1
 70
    58
 90
        2
176
     1
 90
        2
176
     1
 90
        3
176
     1
 90
        0
176
     1
 40
0.6
176
     1
 40
30.0
176
     1
 62
     8
420
  8421504
176
     1
 90
        1
176
     1
 90
        4
176
     1
 62
     7
176
     1
 62
   257
176
     1
 90
        1
176
     1
 90
        1
176
     1
 40
1.0
176
     1
 90
        8
176
     1
 62
     8
420
  8421504
176
     1
 40
1.0
176
     1
 90
        1
176
     1
 90
        6
176
     1
 90
        2
176
     1
 62
     7
176
     1
 90
        5
176
     1
 90
        0
176
     1
 90
        0
176
     1
290
     0
176
     1
 90
        1
176
     1
 40
0.0
176
     1
 90
        0
176
     1
290
     0
176
     1
290
     1
176
     1
290
     1
176
     1
290
     0
176
     1
290
     0
176
     1
290
     0
176
     1
290
     0
176
     1
290
     0
176
     1
290
     0
176
     1
 90
       50
176
     1
 40
0.0
176
     1
 40
1.0
176
     1
 90
        0
176
     1
 62
    18
420
        0
176
     1
 90
       50
176
     1
 90
        3
176
     1
 62
     5
420
      255
176
     1
290
     0
176
     1
 90
       50
176
     1
 90
       50
176
     1
 90
       50
176
     1
290
     0
176
     1
 90
       50
176
     1
 62
   256
176
     0
 40
1.0
176
     0
 90
        2
176
     1
  1
strokes_ogs.tif
176
     1
290
     0
176
     1
 40
1.0
176
     1
 40
1.0
176
     1
  0
VISUALSTYLE
  5
34
102
{ACAD_REACTORS
330
2A
102
}
330
2A
100
AcDbVisualStyle
  2
Conceptual
 70
     9
177
     3
291
     0
 70
    58
 90
        3
176
     1
 90
        2
176
     1
 90
        0
176
     1
 90
        0
176
     1
 40
0.6
176
     1
 40
30.0
176
     1
 62
     7
420
 16777215
176
     1
 90
        2
176
     1
 90
        2
176
     1
 62
     7
176
     1
 62
   257
176
     1
 90
        1
176
     1
 90
        1
176
     1
 40
179.0
176
     1
 90
        8
176
     1
 62
     7
176
     1
 40
1.0
176
     1
 90
        1
176
     1
 90
        6
176
     1
 90
        2
176
     1
 62
     7
176
     1
 90
        3
176
     1
 90
        0
176
     1
 90
        0
176
     1
290
     0
176
     1
 90
        1
176
     1
 40
0.0
176
     1
 90
        0
176
     1
290
     0
176
     1
290
     1
176
     1
290
     1
176
     1
290
     0
176
     1
290
     0
176
     1
290
     0
176
     1
290
     0
176
     1
290
     0
176
     1
290
     0
176
     1
 90
       50
176
     1
 40
0.0
176
     1
 40
1.0
176
     1
 90
        0
176
     1
 62
    18
420
        0
176
     1
 90
       50
176
     1
 90
        3
176
     1
 62
     5
420
      255
176
     1
290
     0
176
     1
 90
       50
176
     1
 90
       50
176
     1
 90
       50
176
     1
290
     0
176
     1
 90
       50
176
     1
 62
   256
176
     0
 40
1.0
176
     0
 90
        2
176
     1
  1
strokes_ogs.tif
176
     1
290
     0
176
     1
 40
1.0
176
     1
 40
1.0
176
     1
  0
VISUALSTYLE
  5
35
102
{ACAD_REACTORS
330
2A
102
}
330
2A
100
AcDbVisualStyle
  2
Dim
 70
    11
177
     3
291
     1
 70
    58
 90
        2
176
     1
 90
        2
176
     1
 90
        0
176
     1
 90
        0
176
     1
 40
0.6
176
     1
 40
30.0
176
     1
 62
     7
420
 16777215
176
     1
 90
        1
176
     1
 90
        4
176
     1
 62
     7
176
     1
 62
   257
176
     1
 90
        1
176
     1
 90
        1
176
     1
 40
1.0
176
     1
 90
        8
176
     1
 62
     7
176
     1
 40
1.0
176
     1
 90
        1
176
     1
 90
        6
176
     1
 90
        2
176
     1
 62
     7
176
     1
 90
        5
176
     1
 90
        0
176
     1
 90
        0
176
     1
290
     0
176
     1
 90
        1
176
     1
 40
-50.0
176
     1
 90
        0
176
     1
290
     0
176
     1
290
     1
176
     1
290
     1
176
     1
290
     0
176
     1
290
     0
176
     1
290
     0
176
     1
290
     0
176
     1
290
     0
176
     1
290
     0
176
     1
 90
       50
176
     1
 40
0.0
176
     1
 40
1.0
176
     1
 90
        0
176
     1
 62
    18
420
        0
176
     1
 90
       50
176
     1
 90
        3
176
     1
 62
     5
420
      255
176
     1
290
     0
176
     1
 90
       50
176
     1
 90
       50
176
     1
 90
       50
176
     1
290
     0
176
     1
 90
       50
176
     1
 62
   256
176
     0
 40
1.0
176
     0
 90
        2
176
     1
  1
strokes_ogs.tif
176
     1
290
     0
176
     1
 40
1.0
176
     1
 40
1.0
176
     1
  0
VISUALSTYLE
  5
3D
102
{ACAD_REACTORS
330
2A
102
}
330
2A
100
AcDbVisualStyle
  2
EdgeColorOff
 70
    22
177
     3
291
     1
 70
    58
 90
        2
176
     0
 90
        2
176
     0
 90
        0
176
     0
 90
        0
176
     0
 40
0.6
176
     0
 40
30.0
176
     0
 62
     7
420
 16777215
176
     0
 90
        1
176
     0
 90
        4
176
     0
 62
     7
176
     0
 62
   257
176
     0
 90
        1
176
     0
 90
        1
176
     0
 40
1.0
176
     0
 90
        8
176
     2
 62
     7
176
     0
 40
1.0
176
     0
 90
        1
176
     0
 90
        6
176
     0
 90
        2
176
     0
 62
     7
176
     0
 90
        5
176
     0
 90
        0
176
     0
 90
        0
176
     0
290
     0
176
     0
 90
        1
176
     0
 40
0.0
176
     0
 90
        0
176
     0
290
     0
176
     0
290
     1
176
     0
290
     1
176
     0
290
     0
176
     0
290
     0
176
     0
290
     0
176
     0
290
     0
176
     0
290
     0
176
     0
290
     0
176
     0
 90
       50
176
     0
 40
0.0
176
     0
 40
1.0
176
     0
 90
        0
176
     0
 62
    18
420
        0
176
     0
 90
       50
176
     0
 90
        3
176
     0
 62
     5
420
      255
176
     0
290
     0
176
     0
 90
       50
176
     0
 90
       50
176
     0
 90
       50
176
     0
290
     0
176
     0
 90
       50
176
     0
 62
   256
176
     0
 40
1.0
176
     0
 90
        2
176
     0
  1
strokes_ogs.tif
176
     0
290
     0
176
     0
 40
1.0
176
     0
 40
1.0
176
     0
  0
VISUALSTYLE
  5
39
102
{ACAD_REACTORS
330
2A
102
}
330
2A
100
AcDbVisualStyle
  2
Facepattern
 70
    15
177
     3
291
     1
 70
    58
 90
        2
176
     1
 90
        2
176
     1
 90
        0
176
     1
 90
        0
176
     1
 40
0.6
176
     1
 40
30.0
176
     1
 62
     7
420
 16777215
176
     1
 90
        1
176
     1
 90
        4
176
     1
 62
     7
176
     1
 62
   257
176
     1
 90
        1
176
     1
 90
        1
176
     1
 40
1.0
176
     1
 90
        8
176
     1
 62
     7
176
     1
 40
1.0
176
     1
 90
        1
176
     1
 90
        6
176
     1
 90
        2
176
     1
 62
     7
176
     1
 90
        5
176
     1
 90
        0
176
     1
 90
        0
176
     1
290
     0
176
     1
 90
        1
176
     1
 40
0.0
176
     1
 90
        0
176
     1
290
     0
176
     1
290
     1
176
     1
290
     1
176
     1
290
     0
176
     1
290
     0
176
     1
290
     0
176
     1
290
     0
176
     1
290
     0
176
     1
290
     0
176
     1
 90
       50
176
     1
 40
0.0
176
     1
 40
1.0
176
     1
 90
        0
176
     1
 62
    18
420
        0
176
     1
 90
       50
176
     1
 90
        3
176
     1
 62
     5
420
      255
176
     1
290
     0
176
     1
 90
       50
176
     1
 90
       50
176
     1
 90
       50
176
     1
290
     0
176
     1
 90
       50
176
     1
 62
   256
176
     0
 40
1.0
176
     0
 90
        2
176
     1
  1
strokes_ogs.tif
176
     1
290
     0
176
     1
 40
1.0
176
     1
 40
1.0
176
     1
  0
VISUALSTYLE
  5
2B
102
{ACAD_REACTORS
330
2A
102
}
330
2A
100
AcDbVisualStyle
  2
Flat
 70
     0
177
     3
291
     1
 70
    58
 90
        2
176
     1
 90
        1
176
     1
 90
        1
176
     1
 90
        2
176
     1
 40
0.6
176
     1
 40
30.0
176
     1
 62
     7
420
 16777215
176
     1
 90
        0
176
     1
 90
        0
176
     1
 62
     7
176
     1
 62
   257
176
     1
 90
        1
176
     1
 90
        1
176
     1
 40
1.0
176
     1
 90
        8
176
     1
 62
     7
176
     1
 40
1.0
176
     1
 90
        1
176
     1
 90
        6
176
     1
 90
        2
176
     1
 62
     7
176
     1
 90
        5
176
     1
 90
        0
176
     1
 90
        0
176
     1
290
     0
176
     1
 90
       13
176
     1
 40
0.0
176
     1
 90
        0
176
     1
290
     0
176
     1
290
     1
176
     1
290
     1
176
     1
290
     0
176
     1
290
     0
176
     1
290
     0
176
     1
290
     0
176
     1
290
     0
176
     1
290
     0
176
     1
 90
       50
176
     1
 40
0.0
176
     1
 40
1.0
176
     1
 90
        0
176
     1
 62
    18
420
        0
176
     1
 90
       50
176
     1
 90
        3
176
     1
 62
     5
420
      255
176
     1
290
     0
176
     1
 90
       50
176
     1
 90
       50
176
     1
 90
       50
176
     1
290
     0
176
     1
 90
       50
176
     1
 62
   256
176
     0
 40
1.0
176
     0
 90
        2
176
     1
  1
strokes_ogs.tif
176
     1
290
     0
176
     1
 40
1.0
176
     1
 40
1.0
176
     1
  0
VISUALSTYLE
  5
2C
102
{ACAD_REACTORS
330
2A
102
}
330
2A
100
AcDbVisualStyle
  2
FlatWithEdges
 70
     1
177
     3
291
     1
 70
    58
 90
        2
176
     1
 90
        1
176
     1
 90
        1
176
     1
 90
        2
176
     1
 40
0.6
176
     1
 40
30.0
176
     1
 62
     7
420
 16777215
176
     1
 90
        1
176
     1
 90
        0
176
     1
 62
     7
176
     1
 62
   257
176
     1
 90
        1
176
     1
 90
        1
176
     1
 40
1.0
176
     1
 90
        0
176
     1
 62
   257
176
     1
 40
1.0
176
     1
 90
        1
176
     1
 90
        6
176
     1
 90
        2
176
     1
 62
     7
176
     1
 90
        5
176
     1
 90
        0
176
     1
 90
        0
176
     1
290
     0
176
     1
 90
       13
176
     1
 40
0.0
176
     1
 90
        0
176
     1
290
     0
176
     1
290
     1
176
     1
290
     1
176
     1
290
     0
176
     1
290
     0
176
     1
290
     0
176
     1
290
     0
176
     1
290
     0
176
     1
290
     0
176
     1
 90
       50
176
     1
 40
0.0
176
     1
 40
1.0
176
     1
 90
        0
176
     1
 62
    18
420
        0
176
     1
 90
       50
176
     1
 90
        3
176
     1
 62
     5
420
      255
176
     1
290
     0
176
     1
 90
       50
176
     1
 90
       50
176
     1
 90
       50
176
     1
290
     0
176
     1
 90
       50
176
     1
 62
   256
176
     0
 40
1.0
176
     0
 90
        2
176
     1
  1
strokes_ogs.tif
176
     1
290
     0
176
     1
 40
1.0
176
     1
 40
1.0
176
     1
  0
VISUALSTYLE
  5
2D
102
{ACAD_REACTORS
330
2A
102
}
330
2A
100
AcDbVisualStyle
  2
Gouraud
 70
     2
177
     3
291
     1
 70
    58
 90
        2
176
     1
 90
        2
176
     1
 90
        1
176
     1
 90
        2
176
     1
 40
0.6
176
     1
 40
30.0
176
     1
 62
     7
420
 16777215
176
     1
 90
        0
176
     1
 90
        0
176
     1
 62
     7
176
     1
 62
   257
176
     1
 90
        1
176
     1
 90
        1
176
     1
 40
1.0
176
     1
 90
        0
176
     1
 62
     7
176
     1
 40
1.0
176
     1
 90
        1
176
     1
 90
        6
176
     1
 90
        2
176
     1
 62
     7
176
     1
 90
        5
176
     1
 90
        0
176
     1
 90
        0
176
     1
290
     0
176
     1
 90
       13
176
     1
 40
0.0
176
     1
 90
        0
176
     1
290
     0
176
     1
290
     1
176
     1
290
     1
176
     1
290
     0
176
     1
290
     0
176
     1
290
     0
176
     1
290
     0
176
     1
290
     0
176
     1
290
     0
176
     1
 90
       50
176
     1
 40
0.0
176
     1
 40
1.0
176
     1
 90
        0
176
     1
 62
    18
420
        0
176
     1
 90
       50
176
     1
 90
        3
176
     1
 62
     5
420
      255
176
     1
290
     0
176
     1
 90
       50
176
     1
 90
       50
176
     1
 90
       50
176
     1
290
     0
176
     1
 90
       50
176
     1
 62
   256
176
     0
 40
1.0
176
     0
 90
        2
176
     1
  1
strokes_ogs.tif
176
     1
290
     0
176
     1
 40
1.0
176
     1
 40
1.0
176
     1
  0
VISUALSTYLE
  5
2E
102
{ACAD_REACTORS
330
2A
102
}
330
2A
100
AcDbVisualStyle
  2
GouraudWithEdges
 70
     3
177
     3
291
     1
 70
    58
 90
        2
176
     1
 90
        2
176
     1
 90
        1
176
     1
 90
        2
176
     1
 40
0.6
176
     1
 40
30.0
176
     1
 62
     7
420
 16777215
176
     1
 90
        1
176
     1
 90
        0
176
     1
 62
     7
176
     1
 62
   257
176
     1
 90
        1
176
     1
 90
        1
176
     1
 40
1.0
176
     1
 90
        0
176
     1
 62
   257
176
     1
 40
1.0
176
     1
 90
        1
176
     1
 90
        6
176
     1
 90
        2
176
     1
 62
     7
176
     1
 90
        5
176
     1
 90
        0
176
     1
 90
        0
176
     1
290
     0
176
     1
 90
       13
176
     1
 40
0.0
176
     1
 90
        0
176
     1
290
     0
176
     1
290
     1
176
     1
290
     1
176
     1
290
     0
176
     1
290
     0
176
     1
290
     0
176
     1
290
     0
176
     1
290
     0
176
     1
290
     0
176
     1
 90
       50
176
     1
 40
0.0
176
     1
 40
1.0
176
     1
 90
        0
176
     1
 62
    18
420
        0
176
     1
 90
       50
176
     1
 90
        3
176
     1
 62
     5
420
      255
176
     1
290
     0
176
     1
 90
       50
176
     1
 90
       50
176
     1
 90
       50
176
     1
290
     0
176
     1
 90
       50
176
     1
 62
   256
176
     0
 40
1.0
176
     0
 90
        2
176
     1
  1
strokes_ogs.tif
176
     1
290
     0
176
     1
 40
1.0
176
     1
 40
1.0
176
     1
  0
VISUALSTYLE
  5
31
102
{ACAD_REACTORS
330
2A
102
}
330
2A
100
AcDbVisualStyle
  2
Hidden
 70
     6
177
     3
291
     0
 70
    58
 90
        1
176
     1
 90
        2
176
     1
 90
        2
176
     1
 90
        0
176
     1
 40
0.6
176
     1
 40
30.0
176
     1
 62
     7
420
 16777215
176
     1
 90
        2
176
     1
 90
        2
176
     1
 62
     7
176
     1
 62
   257
176
     1
 90
        2
176
     1
 90
        1
176
     1
 40
40.0
176
     1
 90
        0
176
     1
 62
   257
176
     1
 40
1.0
176
     1
 90
        1
176
     1
 90
        6
176
     1
 90
        2
176
     1
 62
     7
176
     1
 90
        3
176
     1
 90
        0
176
     1
 90
        0
176
     1
290
     0
176
     1
 90
        1
176
     1
 40
0.0
176
     1
 90
        0
176
     1
290
     0
176
     1
290
     1
176
     1
290
     1
176
     1
290
     0
176
     1
290
     0
176
     1
290
     0
176
     1
290
     0
176
     1
290
     0
176
     1
290
     0
176
     1
 90
       50
176
     1
 40
0.0
176
     1
 40
1.0
176
     1
 90
        0
176
     1
 62
    18
420
        0
176
     1
 90
       50
176
     1
 90
        3
176
     1
 62
     5
420
      255
176
     1
290
     0
176
     1
 90
       50
176
     1
 90
       50
176
     1
 90
       50
176
     1
290
     0
176
     1
 90
       50
176
     1
 62
   256
176
     0
 40
1.0
176
     0
 90
        2
176
     1
  1
strokes_ogs.tif
176
     1
290
     0
176
     1
 40
1.0
176
     1
 40
1.0
176
     1
  0
VISUALSTYLE
  5
3B
102
{ACAD_REACTORS
330
2A
102
}
330
2A
100
AcDbVisualStyle
  2
JitterOff
 70
    20
177
     3
291
     1
 70
    58
 90
        2
176
     0
 90
        2
176
     0
 90
        0
176
     0
 90
        0
176
     0
 40
0.6
176
     0
 40
30.0
176
     0
 62
     7
420
 16777215
176
     0
 90
        1
176
     0
 90
        4
176
     0
 62
     7
176
     0
 62
   257
176
     0
 90
        1
176
     0
 90
        1
176
     0
 40
1.0
176
     0
 90
       10
176
     2
 62
     7
176
     0
 40
1.0
176
     0
 90
        1
176
     0
 90
        6
176
     0
 90
        2
176
     0
 62
     7
176
     0
 90
        5
176
     0
 90
        0
176
     0
 90
        0
176
     0
290
     0
176
     0
 90
        1
176
     0
 40
0.0
176
     0
 90
        0
176
     0
290
     0
176
     0
290
     1
176
     0
290
     1
176
     0
290
     0
176
     0
290
     0
176
     0
290
     0
176
     0
290
     0
176
     0
290
     0
176
     0
290
     0
176
     0
 90
       50
176
     0
 40
0.0
176
     0
 40
1.0
176
     0
 90
        0
176
     0
 62
    18
420
        0
176
     0
 90
       50
176
     0
 90
        3
176
     0
 62
     5
420
      255
176
     0
290
     0
176
     0
 90
       50
176
     0
 90
       50
176
     0
 90
       50
176
     0
290
     0
176
     0
 90
       50
176
     0
 62
   256
176
     0
 40
1.0
176
     0
 90
        2
176
     0
  1
strokes_ogs.tif
176
     0
290
     0
176
     0
 40
1.0
176
     0
 40
1.0
176
     0
  0
VISUALSTYLE
  5
38
102
{ACAD_REACTORS
330
2A
102
}
330
2A
100
AcDbVisualStyle
  2
Linepattern
 70
    14
177
     3
291
     1
 70
    58
 90
        2
176
     1
 90
        2
176
     1
 90
        0
176
     1
 90
        0
176
     1
 40
0.6
176
     1
 40
30.0
176
     1
 62
     7
420
 16777215
176
     1
 90
        1
176
     1
 90
        4
176
     1
 62
     7
176
     1
 62
   257
176
     1
 90
        7
176
     1
 90
        7
176
     1
 40
1.0
176
     1
 90
        8
176
     1
 62
     7
176
     1
 40
1.0
176
     1
 90
        1
176
     1
 90
        6
176
     1
 90
        2
176
     1
 62
     7
176
     1
 90
        5
176
     1
 90
        0
176
     1
 90
        0
176
     1
290
     0
176
     1
 90
        1
176
     1
 40
0.0
176
     1
 90
        0
176
     1
290
     0
176
     1
290
     1
176
     1
290
     1
176
     1
290
     0
176
     1
290
     0
176
     1
290
     0
176
     1
290
     0
176
     1
290
     0
176
     1
290
     0
176
     1
 90
       50
176
     1
 40
0.0
176
     1
 40
1.0
176
     1
 90
        0
176
     1
 62
    18
420
        0
176
     1
 90
       50
176
     1
 90
        3
176
     1
 62
     5
420
      255
176
     1
290
     0
176
     1
 90
       50
176
     1
 90
       50
176
     1
 90
       50
176
     1
290
     0
176
     1
 90
       50
176
     1
 62
   256
176
     0
 40
1.0
176
     0
 90
        2
176
     1
  1
strokes_ogs.tif
176
     1
290
     0
176
     1
 40
1.0
176
     1
 40
1.0
176
     1
  0
VISUALSTYLE
  5
3C
102
{ACAD_REACTORS
330
2A
102
}
330
2A
100
AcDbVisualStyle
  2
OverhangOff
 70
    21
177
     3
291
     1
 70
    58
 90
        2
176
     0
 90
        2
176
     0
 90
        0
176
     0
 90
        0
176
     0
 40
0.6
176
     0
 40
30.0
176
     0
 62
     7
420
 16777215
176
     0
 90
        1
176
     0
 90
        4
176
     0
 62
     7
176
     0
 62
   257
176
     0
 90
        1
176
     0
 90
        1
176
     0
 40
1.0
176
     0
 90
        9
176
     2
 62
     7
176
     0
 40
1.0
176
     0
 90
        1
176
     0
 90
        6
176
     0
 90
        2
176
     0
 62
     7
176
     0
 90
        5
176
     0
 90
        0
176
     0
 90
        0
176
     0
290
     0
176
     0
 90
        1
176
     0
 40
0.0
176
     0
 90
        0
176
     0
290
     0
176
     0
290
     1
176
     0
290
     1
176
     0
290
     0
176
     0
290
     0
176
     0
290
     0
176
     0
290
     0
176
     0
290
     0
176
     0
290
     0
176
     0
 90
       50
176
     0
 40
0.0
176
     0
 40
1.0
176
     0
 90
        0
176
     0
 62
    18
420
        0
176
     0
 90
       50
176
     0
 90
        3
176
     0
 62
     5
420
      255
176
     0
290
     0
176
     0
 90
       50
176
     0
 90
       50
176
     0
 90
       50
176
     0
290
     0
176
     0
 90
       50
176
     0
 62
   256
176
     0
 40
1.0
176
     0
 90
        2
176
     0
  1
strokes_ogs.tif
176
     0
290
     0
176
     0
 40
1.0
176
     0
 40
1.0
176
     0
  0
VISUALSTYLE
  5
33
102
{ACAD_REACTORS
330
2A
102
}
330
2A
100
AcDbVisualStyle
  2
Realistic
 70
     8
177
     3
291
     0
 70
    58
 90
        2
176
     1
 90
        3
176
     1
 90
        0
176
     1
 90
        2
176
     1
 40
0.6
176
     1
 40
30.0
176
     1
 62
     7
420
 16777215
176
     1
 90
        0
176
     1
 90
        0
176
     1
 62
     7
176
     1
 62
   257
176
     1
 90
        1
176
     1
 90
        1
176
     1
 40
1.0
176
     1
 90
        8
176
     1
 62
   257
176
     1
 40
1.0
176
     1
 90
        1
176
     1
 90
        6
176
     1
 90
        2
176
     1
 62
     7
176
     1
 90
        3
176
     1
 90
        0
176
     1
 90
        0
176
     1
290
     0
176
     1
 90
       13
176
     1
 40
0.0
176
     1
 90
        0
176
     1
290
     0
176
     1
290
     1
176
     1
290
     1
176
     1
290
     0
176
     1
290
     0
176
     1
290
     0
176
     1
290
     0
176
     1
290
     0
176
     1
290
     0
176
     1
 90
       50
176
     1
 40
0.0
176
     1
 40
1.0
176
     1
 90
        0
176
     1
 62
    18
420
        0
176
     1
 90
       50
176
     1
 90
        3
176
     1
 62
     5
420
      255
176
     1
290
     0
176
     1
 90
       50
176
     1
 90
       50
176
     1
 90
       50
176
     1
290
     0
176
     1
 90
       50
176
     1
 62
   256
176
     0
 40
1.0
176
     0
 90
        2
176
     1
  1
strokes_ogs.tif
176
     1
290
     0
176
     1
 40
1.0
176
     1
 40
1.0
176
     1
  0
VISUALSTYLE
  5
42
102
{ACAD_REACTORS
330
2A
102
}
330
2A
100
AcDbVisualStyle
  2
Shaded
 70
    27
177
     3
291
     0
 70
    58
 90
        2
176
     1
 90
        2
176
     1
 90
        1
176
     1
 90
        2
176
     1
 40
0.6
176
     1
 40
30.0
176
     1
 62
     7
420
 16777215
176
     1
 90
        0
176
     1
 90
        4
176
     1
 62
     7
176
     1
 62
   257
176
     1
 90
        1
176
     1
 90
        1
176
     1
 40
1.0
176
     1
 90
        8
176
     1
 62
   257
176
     1
 40
1.0
176
     1
 90
        1
176
     1
 90
        6
176
     1
 90
        2
176
     1
 62
     8
420
  7895160
176
     1
 90
        3
176
     1
 90
        0
176
     1
 90
        0
176
     1
290
     0
176
     1
 90
        5
176
     1
 40
0.0
176
     1
 90
        0
176
     1
290
     0
176
     1
290
     1
176
     1
290
     1
176
     1
290
     0
176
     1
290
     0
176
     1
290
     0
176
     1
290
     0
176
     1
290
     0
176
     1
290
     0
176
     1
 90
       50
176
     1
 40
0.0
176
     1
 40
1.0
176
     1
 90
        0
176
     1
 62
    18
420
        0
176
     1
 90
       50
176
     1
 90
        3
176
     1
 62
     5
420
      255
176
     1
290
     0
176
     1
 90
       50
176
     1
 90
       50
176
     1
 90
       50
176
     1
290
     0
176
     1
 90
       50
176
     1
 62
   256
176
     0
 40
1.0
176
     0
 90
        2
176
     1
  1
strokes_ogs.tif
176
     1
290
     0
176
     1
 40
1.0
176
     1
 40
1.0
176
     1
  0
VISUALSTYLE
  5
41
102
{ACAD_REACTORS
330
2A
102
}
330
2A
100
AcDbVisualStyle
  2
Shaded with edges
 70
    26
177
     3
291
     0
 70
    58
 90
        2
176
     1
 90
        2
176
     1
 90
        1
176
     1
 90
        2
176
     1
 40
0.6
176
     1
 40
30.0
176
     1
 62
     7
420
 16777215
176
     1
 90
        1
176
     1
 90
       10
176
     1
 62
     7
176
     1
 62
   257
176
     1
 90
        2
176
     1
 90
        1
176
     1
 40
1.0
176
     1
 90
        8
176
     1
 62
   257
176
     1
 40
1.0
176
     1
 90
        1
176
     1
 90
        6
176
     1
 90
        2
176
     1
 62
     7
176
     1
 90
        3
176
     1
 90
        0
176
     1
 90
        0
176
     1
290
     0
176
     1
 90
        5
176
     1
 40
0.0
176
     1
 90
        0
176
     1
290
     0
176
     1
290
     1
176
     1
290
     1
176
     1
290
     0
176
     1
290
     0
176
     1
290
     0
176
     1
290
     0
176
     1
290
     0
176
     1
290
     0
176
     1
 90
       50
176
     1
 40
0.0
176
     1
 40
1.0
176
     1
 90
        0
176
     1
 62
    18
420
        0
176
     1
 90
       50
176
     1
 90
        3
176
     1
 62
     5
420
      255
176
     1
290
     0
176
     1
 90
       50
176
     1
 90
       50
176
     1
 90
       50
176
     1
290
     0
176
     1
 90
       50
176
     1
 62
   256
176
     0
 40
1.0
176
     0
 90
        2
176
     1
  1
strokes_ogs.tif
176
     1
290
     0
176
     1
 40
1.0
176
     1
 40
1.0
176
     1
  0
VISUALSTYLE
  5
3E
102
{ACAD_REACTORS
330
2A
102
}
330
2A
100
AcDbVisualStyle
  2
Shades of Gray
 70
    23
177
     3
291
     0
 70
    58
 90
        2
176
     1
 90
        2
176
     1
 90
        3
176
     1
 90
        0
176
     1
 40
0.6
176
     1
 40
30.0
176
     1
 62
     7
420
 16777215
176
     1
 90
        2
176
     1
 90
        2
176
     1
 62
     7
176
     1
 62
     7
176
     1
 90
        1
176
     1
 90
        1
176
     1
 40
40.0
176
     1
 90
        8
176
     1
 62
     7
176
     1
 40
1.0
176
     1
 90
        1
176
     1
 90
        6
176
     1
 90
        2
176
     1
 62
     7
176
     1
 90
        3
176
     1
 90
        0
176
     1
 90
        0
176
     1
290
     0
176
     1
 90
        1
176
     1
 40
0.0
176
     1
 90
        0
176
     1
290
     0
176
     1
290
     1
176
     1
290
     1
176
     1
290
     0
176
     1
290
     0
176
     1
290
     0
176
     1
290
     0
176
     1
290
     0
176
     1
290
     0
176
     1
 90
       50
176
     1
 40
0.0
176
     1
 40
1.0
176
     1
 90
        0
176
     1
 62
    18
420
        0
176
     1
 90
       50
176
     1
 90
        3
176
     1
 62
     5
420
      255
176
     1
290
     0
176
     1
 90
       50
176
     1
 90
       50
176
     1
 90
       50
176
     1
290
     0
176
     1
 90
       50
176
     1
 62
   256
176
     0
 40
1.0
176
     0
 90
        2
176
     1
  1
strokes_ogs.tif
176
     1
290
     0
176
     1
 40
1.0
176
     1
 40
1.0
176
     1
  0
VISUALSTYLE
  5
3F
102
{ACAD_REACTORS
330
2A
102
}
330
2A
100
AcDbVisualStyle
  2
Sketchy
 70
    24
177
     3
291
     0
 70
    58
 90
        1
176
     1
 90
        2
176
     1
 90
        2
176
     1
 90
        0
176
     1
 40
0.6
176
     1
 40
30.0
176
     1
 62
     7
420
 16777215
176
     1
 90
        2
176
     1
 90
        2
176
     1
 62
     7
176
     1
 62
     7
176
     1
 90
        1
176
     1
 90
        1
176
     1
 40
40.0
176
     1
 90
       11
176
     1
 62
     7
176
     1
 40
1.0
176
     1
 90
        1
176
     1
 90
        6
176
     1
 90
        2
176
     1
 62
     7
176
     1
 90
        6
176
     1
 90
        0
176
     1
 90
        0
176
     1
290
     0
176
     1
 90
        1
176
     1
 40
0.0
176
     1
 90
        0
176
     1
290
     0
176
     1
290
     1
176
     1
290
     1
176
     1
290
     0
176
     1
290
     0
176
     1
290
     0
176
     1
290
     0
176
     1
290
     0
176
     1
290
     0
176
     1
 90
       50
176
     1
 40
0.0
176
     1
 40
1.0
176
     1
 90
        0
176
     1
 62
    18
420
        0
176
     1
 90
       50
176
     1
 90
        3
176
     1
 62
     5
420
      255
176
     1
290
     0
176
     1
 90
       50
176
     1
 90
       50
176
     1
 90
       50
176
     1
290
     0
176
     1
 90
       50
176
     1
 62
   256
176
     0
 40
1.0
176
     0
 90
        2
176
     1
  1
strokes_ogs.tif
176
     1
290
     0
176
     1
 40
1.0
176
     1
 40
1.0
176
     1
  0
VISUALSTYLE
  5
37
102
{ACAD_REACTORS
330
2A
102
}
330
2A
100
AcDbVisualStyle
  2
Thicken
 70
    13
177
     3
291
     1
 70
    58
 90
        2
176
     1
 90
        2
176
     1
 90
        0
176
     1
 90
        0
176
     1
 40
0.6
176
     1
 40
30.0
176
     1
 62
     7
420
 16777215
176
     1
 90
        1
176
     1
 90
        4
176
     1
 62
     7
176
     1
 62
   257
176
     1
 90
        1
176
     1
 90
        1
176
     1
 40
1.0
176
     1
 90
       12
176
     1
 62
     7
176
     1
 40
1.0
176
     1
 90
        1
176
     1
 90
        6
176
     1
 90
        2
176
     1
 62
     7
176
     1
 90
        5
176
     1
 90
        0
176
     1
 90
        0
176
     1
290
     0
176
     1
 90
        1
176
     1
 40
0.0
176
     1
 90
        0
176
     1
290
     0
176
     1
290
     1
176
     1
290
     1
176
     1
290
     0
176
     1
290
     0
176
     1
290
     0
176
     1
290
     0
176
     1
290
     0
176
     1
290
     0
176
     1
 90
       50
176
     1
 40
0.0
176
     1
 40
1.0
176
     1
 90
        0
176
     1
 62
    18
420
        0
176
     1
 90
       50
176
     1
 90
        3
176
     1
 62
     5
420
      255
176
     1
290
     0
176
     1
 90
       50
176
     1
 90
       50
176
     1
 90
       50
176
     1
290
     0
176
     1
 90
       50
176
     1
 62
   256
176
     0
 40
1.0
176
     0
 90
        2
176
     1
  1
strokes_ogs.tif
176
     1
290
     0
176
     1
 40
1.0
176
     1
 40
1.0
176
     1
  0
VISUALSTYLE
  5
30
102
{ACAD_REACTORS
330
2A
102
}
330
2A
100
AcDbVisualStyle
  2
Wireframe
 70
     5
177
     3
291
     0
 70
    58
 90
        0
176
     1
 90
        2
176
     1
 90
        0
176
     1
 90
        0
176
     1
 40
0.6
176
     1
 40
30.0
176
     1
 62
     7
420
 16777215
176
     1
 90
        1
176
     1
 90
        4
176
     1
 62
     7
176
     1
 62
   257
176
     1
 90
        1
176
     1
 90
        1
176
     1
 40
1.0
176
     1
 90
        0
176
     1
 62
   257
176
     1
 40
1.0
176
     1
 90
        1
176
     1
 90
        6
176
     1
 90
        2
176
     1
 62
     7
176
     1
 90
        3
176
     1
 90
        0
176
     1
 90
        0
176
     1
290
     0
176
     1
 90
        1
176
     1
 40
0.0
176
     1
 90
        0
176
     1
290
     0
176
     1
290
     1
176
     1
290
     1
176
     1
290
     0
176
     1
290
     0
176
     1
290
     0
176
     1
290
     0
176
     1
290
     0
176
     1
290
     0
176
     1
 90
       50
176
     1
 40
0.0
176
     1
 40
1.0
176
     1
 90
        0
176
     1
 62
    18
420
        0
176
     1
 90
       50
176
     1
 90
        3
176
     1
 62
     5
420
      255
176
     1
290
     0
176
     1
 90
       50
176
     1
 90
       50
176
     1
 90
       50
176
     1
290
     0
176
     1
 90
       50
176
     1
 62
   256
176
     0
 40
1.0
176
     0
 90
        2
176
     1
  1
strokes_ogs.tif
176
     1
290
     0
176
     1
 40
1.0
176
     1
 40
1.0
176
     1
  0
VISUALSTYLE
  5
40
102
{ACAD_REACTORS
330
2A
102
}
330
2A
100
AcDbVisualStyle
  2
X-Ray
 70
    25
177
     3
291
     0
 70
    58
 90
        2
176
     1
 90
        2
176
     1
 90
        1
176
     1
 90
        1
176
     1
 40
0.5
176
     1
 40
30.0
176
     1
 62
     7
420
 16777215
176
     1
 90
        1
176
     1
 90
        0
176
     1
 62
     7
176
     1
 62
   257
176
     1
 90
        1
176
     1
 90
        1
176
     1
 40
1.0
176
     1
 90
        8
176
     1
 62
     7
176
     1
 40
1.0
176
     1
 90
        1
176
     1
 90
        6
176
     1
 90
        2
176
     1
 62
     7
176
     1
 90
        3
176
     1
 90
        0
176
     1
 90
        0
176
     1
290
     0
176
     1
 90
       13
176
     1
 40
0.0
176
     1
 90
        0
176
     1
290
     0
176
     1
290
     1
176
     1
290
     1
176
     1
290
     0
176
     1
290
     0
176
     1
290
     0
176
     1
290
     0
176
     1
290
     0
176
     1
290
     0
176
     1
 90
       50
176
     1
 40
0.0
176
     1
 40
1.0
176
     1
 90
        0
176
     1
 62
    18
420
        0
176
     1
 90
       50
176
     1
 90
        3
176
     1
 62
     5
420
      255
176
     1
290
     0
176
     1
 90
       50
176
     1
 90
       50
176
     1
 90
       50
176
     1
290
     0
176
     1
 90
       50
176
     1
 62
   256
176
     0
 40
1.0
176
     0
 90
        2
176
     1
  1
strokes_ogs.tif
176
     1
290
     0
176
     1
 40
1.0
176
     1
 40
1.0
176
     1
  0
DICTIONARYVAR
  5
C8
102
{ACAD_REACTORS
330
C7
102
}
330
C7
100
DictionaryVariables
280
     0
  1
1:1
  0
DICTIONARYVAR
  5
CD
102
{ACAD_REACTORS
330
C7
102
}
330
C7
100
DictionaryVariables
280
     0
  1
Standard
  0
DICTIONARYVAR
  5
CC
102
{ACAD_REACTORS
330
C7
102
}
330
C7
100
DictionaryVariables
280
     0
  1
Standard
  0
DICTIONARY
  5
C9
330
5A
100
AcDbDictionary
280
     1
281
     1
  3
ACAD_ROUNDTRIP_2008_TABLESTYLE_CELLSTYLEMAP
360
CA
  0
CELLSTYLEMAP
  5
CA
102
{ACAD_REACTORS
330
C9
102
}
330
C9
100
AcDbCellStyleMap
 90
        3
300
CELLSTYLE
  1
TABLEFORMAT_BEGIN
 90
        5
170
     1
 91
        0
 92
    32768
 62
   257
 93
        1
300
CONTENTFORMAT
  1
CONTENTFORMAT_BEGIN
 90
        0
 91
        0
 92
        4
 93
        0
300

 40
0.0
140
1.0
 94
        5
 62
     0
340
11
144
0.25
309
CONTENTFORMAT_END
171
     1
301
MARGIN
  1
CELLMARGIN_BEGIN
 40
0.06
 40
0.06
 40
0.06
 40
0.06
 40
0.06
 40
0.06
309
CELLMARGIN_END
 94
        6
 95
        1
302
GRIDFORMAT
  1
GRIDFORMAT_BEGIN
 90
        0
 91
        1
 62
     0
 92
       -2
340
14
 93
        0
 40
0.045
309
GRIDFORMAT_END
 95
        2
302
GRIDFORMAT
  1
GRIDFORMAT_BEGIN
 90
        0
 91
        1
 62
     0
 92
       -2
340
14
 93
        0
 40
0.045
309
GRIDFORMAT_END
 95
        4
302
GRIDFORMAT
  1
GRIDFORMAT_BEGIN
 90
        0
 91
        1
 62
     0
 92
       -2
340
14
 93
        0
 40
0.045
309
GRIDFORMAT_END
 95
        8
302
GRIDFORMAT
  1
GRIDFORMAT_BEGIN
 90
        0
 91
        1
 62
     0
 92
       -2
340
14
 93
        0
 40
0.045
309
GRIDFORMAT_END
 95
       16
302
GRIDFORMAT
  1
GRIDFORMAT_BEGIN
 90
        0
 91
        1
 62
     0
 92
       -2
340
14
 93
        0
 40
0.045
309
GRIDFORMAT_END
 95
       32
302
GRIDFORMAT
  1
GRIDFORMAT_BEGIN
 90
        0
 91
        1
 62
     0
 92
       -2
340
14
 93
        0
 40
0.045
309
GRIDFORMAT_END
309
TABLEFORMAT_END
  1
CELLSTYLE_BEGIN
 90
        1
 91
        1
300
_TITLE
309
CELLSTYLE_END
300
CELLSTYLE
  1
TABLEFORMAT_BEGIN
 90
        5
170
     1
 91
        0
 92
        0
 62
   257
 93
        1
300
CONTENTFORMAT
  1
CONTENTFORMAT_BEGIN
 90
        0
 91
        0
 92
        4
 93
        0
300

 40
0.0
140
1.0
 94
        5
 62
     0
340
11
144
0.18
309
CONTENTFORMAT_END
171
     1
301
MARGIN
  1
CELLMARGIN_BEGIN
 40
0.06
 40
0.06
 40
0.06
 40
0.06
 40
0.06
 40
0.06
309
CELLMARGIN_END
 94
        6
 95
        1
302
GRIDFORMAT
  1
GRIDFORMAT_BEGIN
 90
        0
 91
        1
 62
     0
 92
       -2
340
14
 93
        0
 40
0.045
309
GRIDFORMAT_END
 95
        2
302
GRIDFORMAT
  1
GRIDFORMAT_BEGIN
 90
        0
 91
        1
 62
     0
 92
       -2
340
14
 93
        0
 40
0.045
309
GRIDFORMAT_END
 95
        4
302
GRIDFORMAT
  1
GRIDFORMAT_BEGIN
 90
        0
 91
        1
 62
     0
 92
       -2
340
14
 93
        0
 40
0.045
309
GRIDFORMAT_END
 95
        8
302
GRIDFORMAT
  1
GRIDFORMAT_BEGIN
 90
        0
 91
        1
 62
     0
 92
       -2
340
14
 93
        0
 40
0.045
309
GRIDFORMAT_END
 95
       16
302
GRIDFORMAT
  1
GRIDFORMAT_BEGIN
 90
        0
 91
        1
 62
     0
 92
       -2
340
14
 93
        0
 40
0.045
309
GRIDFORMAT_END
 95
       32
302
GRIDFORMAT
  1
GRIDFORMAT_BEGIN
 90
        0
 91
        1
 62
     0
 92
       -2
340
14
 93
        0
 40
0.045
309
GRIDFORMAT_END
309
TABLEFORMAT_END
  1
CELLSTYLE_BEGIN
 90
        2
 91
        1
300
_HEADER
309
CELLSTYLE_END
300
CELLSTYLE
  1
TABLEFORMAT_BEGIN
 90
        5
170
     1
 91
        0
 92
        0
 62
   257
 93
        1
300
CONTENTFORMAT
  1
CONTENTFORMAT_BEGIN
 90
        0
 91
        0
 92
        4
 93
        0
300

 40
0.0
140
1.0
 94
        2
 62
     0
340
11
144
0.18
309
CONTENTFORMAT_END
171
     1
301
MARGIN
  1
CELLMARGIN_BEGIN
 40
0.06
 40
0.06
 40
0.06
 40
0.06
 40
0.06
 40
0.06
309
CELLMARGIN_END
 94
        6
 95
        1
302
GRIDFORMAT
  1
GRIDFORMAT_BEGIN
 90
        0
 91
        1
 62
     0
 92
       -2
340
14
 93
        0
 40
0.045
309
GRIDFORMAT_END
 95
        2
302
GRIDFORMAT
  1
GRIDFORMAT_BEGIN
 90
        0
 91
        1
 62
     0
 92
       -2
340
14
 93
        0
 40
0.045
309
GRIDFORMAT_END
 95
        4
302
GRIDFORMAT
  1
GRIDFORMAT_BEGIN
 90
        0
 91
        1
 62
     0
 92
       -2
340
14
 93
        0
 40
0.045
309
GRIDFORMAT_END
 95
        8
302
GRIDFORMAT
  1
GRIDFORMAT_BEGIN
 90
        0
 91
        1
 62
     0
 92
       -2
340
14
 93
        0
 40
0.045
309
GRIDFORMAT_END
 95
       16
302
GRIDFORMAT
  1
GRIDFORMAT_BEGIN
 90
        0
 91
        1
 62
     0
 92
       -2
340
14
 93
        0
 40
0.045
309
GRIDFORMAT_END
 95
       32
302
GRIDFORMAT
  1
GRIDFORMAT_BEGIN
 90
        0
 91
        1
 62
     0
 92
       -2
340
14
 93
        0
 40
0.045
309
GRIDFORMAT_END
309
TABLEFORMAT_END
  1
CELLSTYLE_BEGIN
 90
        3
 91
        2
300
_DATA
309
CELLSTYLE_END
  0
ENDSEC
  0
EOF
