  0
SECTION
  2
HEADER
  9
$ACADVER
  1
AC1032
  9
$ACADMAINTVER
 90
       55
  9
$DWGCODEPAGE
  3
ANSI_1252
  9
$LASTSAVEDBY
  1
LYI-002
  9
$REQUIREDVERSIONS
160
                 0
  9
$INSBASE
 10
0.0
 20
0.0
 30
0.0
  9
$EXTMIN
 10
-1200.1941
 20
-590.1226
 30
0.0
  9
$EXTMAX
 10
1200.094
 20
590.0694
 30
0.0
  9
$LIMMIN
 10
0.0
 20
0.0
  9
$LIMMAX
 10
12.0
 20
9.0
  9
$ORTHOMODE
 70
     0
  9
$REGENMODE
 70
     1
  9
$FILLMODE
 70
     1
  9
$QTEXTMODE
 70
     0
  9
$MIRRTEXT
 70
     1
  9
$LTSCALE
 40
1.0
  9
$ATTMODE
 70
     1
  9
$TEXTSIZE
 40
0.2
  9
$TRACEWID
 40
0.05
  9
$TEXTSTYLE
  7
Standard
  9
$CLAYER
  8
0
  9
$CELTYPE
  6
ByLayer
  9
$CECOLOR
 62
   256
  9
$CELTSCALE
 40
1.0
  9
$DISPSILH
 70
     0
  9
$DIMSCALE
 40
1.0
  9
$DIMASZ
 40
0.18
  9
$DIMEXO
 40
0.0625
  9
$DIMDLI
 40
0.38
  9
$DIMRND
 40
0.0
  9
$DIMDLE
 40
0.0
  9
$DIMEXE
 40
0.18
  9
$DIMTP
 40
0.0
  9
$DIMTM
 40
0.0
  9
$DIMTXT
 40
0.18
  9
$DIMCEN
 40
0.09
  9
$DIMTSZ
 40
0.0
  9
$DIMTOL
 70
     0
  9
$DIMLIM
 70
     0
  9
$DIMTIH
 70
     1
  9
$DIMTOH
 70
     1
  9
$DIMSE1
 70
     0
  9
$DIMSE2
 70
     0
  9
$DIMTAD
 70
     0
  9
$DIMZIN
 70
     0
  9
$DIMBLK
  1

  9
$DIMASO
 70
     1
  9
$DIMSHO
 70
     1
  9
$DIMPOST
  1

  9
$DIMAPOST
  1

  9
$DIMALT
 70
     0
  9
$DIMALTD
 70
     2
  9
$DIMALTF
 40
25.4
  9
$DIMLFAC
 40
1.0
  9
$DIMTOFL
 70
     0
  9
$DIMTVP
 40
0.0
  9
$DIMTIX
 70
     0
  9
$DIMSOXD
 70
     0
  9
$DIMSAH
 70
     0
  9
$DIMBLK1
  1

  9
$DIMBLK2
  1

  9
$DIMSTYLE
  2
Standard
  9
$DIMCLRD
 70
     0
  9
$DIMCLRE
 70
     0
  9
$DIMCLRT
 70
     0
  9
$DIMTFAC
 40
1.0
  9
$DIMGAP
 40
0.09
  9
$DIMJUST
 70
     0
  9
$DIMSD1
 70
     0
  9
$DIMSD2
 70
     0
  9
$DIMTOLJ
 70
     1
  9
$DIMTZIN
 70
     0
  9
$DIMALTZ
 70
     0
  9
$DIMALTTZ
 70
     0
  9
$DIMUPT
 70
     0
  9
$DIMDEC
 70
     4
  9
$DIMTDEC
 70
     4
  9
$DIMALTU
 70
     2
  9
$DIMALTTD
 70
     2
  9
$DIMTXSTY
  7
Standard
  9
$DIMAUNIT
 70
     0
  9
$DIMADEC
 70
     0
  9
$DIMALTRND
 40
0.0
  9
$DIMAZIN
 70
     0
  9
$DIMDSEP
 70
    46
  9
$DIMATFIT
 70
     3
  9
$DIMFRAC
 70
     0
  9
$DIMLDRBLK
  1

  9
$DIMLUNIT
 70
     2
  9
$DIMLWD
 70
    -2
  9
$DIMLWE
 70
    -2
  9
$DIMTMOVE
 70
     0
  9
$DIMFXL
 40
1.0
  9
$DIMFXLON
 70
     0
  9
$DIMJOGANG
 40
0.7853981633974483
  9
$DIMTFILL
 70
     0
  9
$DIMTFILLCLR
 70
     0
  9
$DIMARCSYM
 70
     0
  9
$DIMLTYPE
  6

  9
$DIMLTEX1
  6

  9
$DIMLTEX2
  6

  9
$DIMTXTDIRECTION
 70
     0
  9
$LUNITS
 70
     2
  9
$LUPREC
 70
     4
  9
$SKETCHINC
 40
0.1
  9
$FILLETRAD
 40
0.0
  9
$AUNITS
 70
     0
  9
$AUPREC
 70
     0
  9
$MENU
  1
.
  9
$ELEVATION
 40
0.0
  9
$PELEVATION
 40
0.0
  9
$THICKNESS
 40
0.0
  9
$LIMCHECK
 70
     0
  9
$CHAMFERA
 40
0.0
  9
$CHAMFERB
 40
0.0
  9
$CHAMFERC
 40
0.0
  9
$CHAMFERD
 40
0.0
  9
$SKPOLY
 70
     0
  9
$TDCREATE
 40
2460652.70790353
  9
$TDUCREATE
 40
2460652.478736864
  9
$TDUPDATE
 40
2460652.707903554
  9
$TDUUPDATE
 40
2460652.478736887
  9
$TDINDWG
 40
0.0000000116
  9
$TDUSRTIMER
 40
0.0000000116
  9
$USRTIMER
 70
     1
  9
$ANGBASE
 50
0.0
  9
$ANGDIR
 70
     0
  9
$PDMODE
 70
     0
  9
$PDSIZE
 40
0.0
  9
$PLINEWID
 40
0.0
  9
$SPLFRAME
 70
     0
  9
$SPLINETYPE
 70
     6
  9
$SPLINESEGS
 70
     8
  9
$HANDSEED
  5
8B
  9
$SURFTAB1
 70
     6
  9
$SURFTAB2
 70
     6
  9
$SURFTYPE
 70
     6
  9
$SURFU
 70
     6
  9
$SURFV
 70
     6
  9
$UCSBASE
  2

  9
$UCSNAME
  2

  9
$UCSORG
 10
0.0
 20
0.0
 30
0.0
  9
$UCSXDIR
 10
1.0
 20
0.0
 30
0.0
  9
$UCSYDIR
 10
0.0
 20
1.0
 30
0.0
  9
$UCSORTHOREF
  2

  9
$UCSORTHOVIEW
 70
     0
  9
$UCSORGTOP
 10
0.0
 20
0.0
 30
0.0
  9
$UCSORGBOTTOM
 10
0.0
 20
0.0
 30
0.0
  9
$UCSORGLEFT
 10
0.0
 20
0.0
 30
0.0
  9
$UCSORGRIGHT
 10
0.0
 20
0.0
 30
0.0
  9
$UCSORGFRONT
 10
0.0
 20
0.0
 30
0.0
  9
$UCSORGBACK
 10
0.0
 20
0.0
 30
0.0
  9
$PUCSBASE
  2

  9
$PUCSNAME
  2

  9
$PUCSORG
 10
0.0
 20
0.0
 30
0.0
  9
$PUCSXDIR
 10
1.0
 20
0.0
 30
0.0
  9
$PUCSYDIR
 10
0.0
 20
1.0
 30
0.0
  9
$PUCSORTHOREF
  2

  9
$PUCSORTHOVIEW
 70
     0
  9
$PUCSORGTOP
 10
0.0
 20
0.0
 30
0.0
  9
$PUCSORGBOTTOM
 10
0.0
 20
0.0
 30
0.0
  9
$PUCSORGLEFT
 10
0.0
 20
0.0
 30
0.0
  9
$PUCSORGRIGHT
 10
0.0
 20
0.0
 30
0.0
  9
$PUCSORGFRONT
 10
0.0
 20
0.0
 30
0.0
  9
$PUCSORGBACK
 10
0.0
 20
0.0
 30
0.0
  9
$USERI1
 70
     0
  9
$USERI2
 70
     0
  9
$USERI3
 70
     0
  9
$USERI4
 70
     0
  9
$USERI5
 70
     0
  9
$USERR1
 40
0.0
  9
$USERR2
 40
0.0
  9
$USERR3
 40
0.0
  9
$USERR4
 40
0.0
  9
$USERR5
 40
0.0
  9
$WORLDVIEW
 70
     1
  9
$SHADEDGE
 70
     3
  9
$SHADEDIF
 70
    70
  9
$TILEMODE
 70
     1
  9
$MAXACTVP
 70
    64
  9
$PINSBASE
 10
0.0
 20
0.0
 30
0.0
  9
$PLIMCHECK
 70
     0
  9
$PEXTMIN
 10
1.000000000000000E+20
 20
1.000000000000000E+20
 30
1.000000000000000E+20
  9
$PEXTMAX
 10
-1.000000000000000E+20
 20
-1.000000000000000E+20
 30
-1.000000000000000E+20
  9
$PLIMMIN
 10
0.0
 20
0.0
  9
$PLIMMAX
 10
12.0
 20
9.0
  9
$UNITMODE
 70
     0
  9
$VISRETAIN
 70
     1
  9
$PLINEGEN
 70
     0
  9
$PSLTSCALE
 70
     1
  9
$TREEDEPTH
 70
  3020
  9
$CMLSTYLE
  2
Standard
  9
$CMLJUST
 70
     0
  9
$CMLSCALE
 40
1.0
  9
$PROXYGRAPHICS
 70
     1
  9
$MEASUREMENT
 70
     0
  9
$CELWEIGHT
370
    -1
  9
$ENDCAPS
280
     0
  9
$JOINSTYLE
280
     0
  9
$LWDISPLAY
290
     0
  9
$INSUNITS
 70
     4
  9
$HYPERLINKBASE
  1

  9
$STYLESHEET
  1

  9
$XEDIT
290
     1
  9
$CEPSNTYPE
380
     0
  9
$PSTYLEMODE
290
     1
  9
$FINGERPRINTGUID
  2
{047e9700-7ddc-4f13-9e1c-c60a5290f81e}
  9
$VERSIONGUID
  2
{FAEB1C32-E019-11D5-929B-00C0DF256EC4}
  9
$EXTNAMES
290
     1
  9
$PSVPSCALE
 40
0.0
  9
$OLESTARTUP
290
     0
  9
$SORTENTS
280
   127
  9
$INDEXCTL
280
     0
  9
$HIDETEXT
280
     1
  9
$XCLIPFRAME
280
     2
  9
$HALOGAP
280
     0
  9
$OBSCOLOR
 70
   257
  9
$OBSLTYPE
280
     0
  9
$INTERSECTIONDISPLAY
280
     0
  9
$INTERSECTIONCOLOR
 70
   257
  9
$DIMASSOC
280
     2
  9
$PROJECTNAME
  1

  9
$CAMERADISPLAY
290
     0
  9
$LENSLENGTH
 40
50.0
  9
$CAMERAHEIGHT
 40
0.0
  9
$STEPSPERSEC
 40
2.0
  9
$STEPSIZE
 40
6.0
  9
$3DDWFPREC
 40
2.0
  9
$PSOLWIDTH
 40
0.25
  9
$PSOLHEIGHT
 40
4.0
  9
$LOFTANG1
 40
1.570796326794897
  9
$LOFTANG2
 40
1.570796326794897
  9
$LOFTMAG1
 40
0.0
  9
$LOFTMAG2
 40
0.0
  9
$LOFTPARAM
 70
     7
  9
$LOFTNORMALS
280
     1
  9
$LATITUDE
 40
37.795
  9
$LONGITUDE
 40
-122.394
  9
$NORTHDIRECTION
 40
0.0
  9
$TIMEZONE
 70
 -8000
  9
$LIGHTGLYPHDISPLAY
280
     1
  9
$TILEMODELIGHTSYNCH
280
     1
  9
$CMATERIAL
347
44
  9
$SOLIDHIST
280
     0
  9
$SHOWHIST
280
     1
  9
$DWFFRAME
280
     2
  9
$DGNFRAME
280
     2
  9
$REALWORLDSCALE
290
     1
  9
$INTERFERECOLOR
 62
   256
  9
$CSHADOW
280
     0
  9
$SHADOWPLANELOCATION
 40
0.0
  0
ENDSEC
  0
SECTION
  2
CLASSES
  0
CLASS
  1
ACDBDICTIONARYWDFLT
  2
AcDbDictionaryWithDefault
  3
ObjectDBX Classes
 90
        0
 91
        3
280
     0
281
     0
  0
CLASS
  1
VISUALSTYLE
  2
AcDbVisualStyle
  3
ObjectDBX Classes
 90
     4095
 91
        3
280
     0
281
     0
  0
CLASS
  1
MATERIAL
  2
AcDbMaterial
  3
ObjectDBX Classes
 90
     1153
 91
        3
280
     0
281
     0
  0
CLASS
  1
SCALE
  2
AcDbScale
  3
ObjectDBX Classes
 90
     1153
 91
        3
280
     0
281
     0
  0
CLASS
  1
TABLESTYLE
  2
AcDbTableStyle
  3
ObjectDBX Classes
 90
     4095
 91
        3
280
     0
281
     0
  0
CLASS
  1
MLEADERSTYLE
  2
AcDbMLeaderStyle
  3
ACDB_MLEADERSTYLE_CLASS
 90
     4095
 91
        3
280
     0
281
     0
  0
CLASS
  1
SUN
  2
AcDbSun
  3
SCENEOE
 90
     1153
 91
        3
280
     0
281
     0
  0
CLASS
  1
DICTIONARYVAR
  2
AcDbDictionaryVar
  3
ObjectDBX Classes
 90
        0
 91
        3
280
     0
281
     0
  0
CLASS
  1
CELLSTYLEMAP
  2
AcDbCellStyleMap
  3
ObjectDBX Classes
 90
     1152
 91
        3
280
     0
281
     0
  0
ENDSEC
  0
SECTION
  2
TABLES
  0
TABLE
  2
VPORT
  5
8
330
0
100
AcDbSymbolTable
 70
     1
  0
VPORT
  5
29
330
8
100
AcDbSymbolTableRecord
100
AcDbViewportTableRecord
  2
*Active
 70
     0
 10
0.0
 20
0.0
 11
1.0
 21
1.0
 12
10.42990654205607
 22
4.5
 13
0.0
 23
0.0
 14
0.5
 24
0.5
 15
0.5
 25
0.5
 16
0.0
 26
0.0
 36
1.0
 17
0.0
 27
0.0
 37
0.0
 40
9.0
 41
1.972972972850329
 42
50.0
 43
0.0
 44
0.0
 50
0.0
 51
0.0
 71
     0
 72
   100
 73
     1
 74
     3
 75
     0
 76
     0
 77
     0
 78
     0
281
     0
 65
     1
110
0.0
120
0.0
130
0.0
111
1.0
121
0.0
131
0.0
112
0.0
122
1.0
132
0.0
 79
     0
146
0.0
348
2F
 60
     3
 61
     5
292
     1
282
     1
141
0.0
142
0.0
 63
   250
361
5D
  0
ENDTAB
  0
TABLE
  2
LTYPE
  5
5
330
0
100
AcDbSymbolTable
 70
     1
  0
LTYPE
  5
14
330
5
100
AcDbSymbolTableRecord
100
AcDbLinetypeTableRecord
  2
ByBlock
 70
     0
  3

 72
    65
 73
     0
 40
0.0
  0
LTYPE
  5
15
330
5
100
AcDbSymbolTableRecord
100
AcDbLinetypeTableRecord
  2
ByLayer
 70
     0
  3

 72
    65
 73
     0
 40
0.0
  0
LTYPE
  5
16
330
5
100
AcDbSymbolTableRecord
100
AcDbLinetypeTableRecord
  2
Continuous
 70
     0
  3
Solid line
 72
    65
 73
     0
 40
0.0
  0
ENDTAB
  0
TABLE
  2
LAYER
  5
2
330
0
100
AcDbSymbolTable
 70
     2
  0
LAYER
  5
10
330
2
100
AcDbSymbolTableRecord
100
AcDbLayerTableRecord
  2
0
 70
     0
 62
     7
  6
Continuous
370
    -3
390
F
347
46
348
0
  0
LAYER
  5
5F
330
2
100
AcDbSymbolTableRecord
100
AcDbLayerTableRecord
  2
Layer 1
 70
     0
 62
     7
  6
Continuous
370
    -3
390
F
347
46
348
0
  0
ENDTAB
  0
TABLE
  2
STYLE
  5
3
330
0
100
AcDbSymbolTable
 70
     1
  0
STYLE
  5
11
330
3
100
AcDbSymbolTableRecord
100
AcDbTextStyleTableRecord
  2
Standard
 70
     0
 40
0.0
 41
1.0
 50
0.0
 71
     0
 42
0.2
  3
txt
  4

  0
ENDTAB
  0
TABLE
  2
VIEW
  5
6
330
0
100
AcDbSymbolTable
 70
     0
  0
ENDTAB
  0
TABLE
  2
UCS
  5
7
330
0
100
AcDbSymbolTable
 70
     0
  0
ENDTAB
  0
TABLE
  2
APPID
  5
9
330
0
100
AcDbSymbolTable
 70
     2
  0
APPID
  5
12
330
9
100
AcDbSymbolTableRecord
100
AcDbRegAppTableRecord
  2
ACAD
 70
     0
  0
APPID
  5
5E
330
9
100
AcDbSymbolTableRecord
100
AcDbRegAppTableRecord
  2
ODA
 70
     0
  0
ENDTAB
  0
TABLE
  2
DIMSTYLE
  5
A
330
0
100
AcDbSymbolTable
 70
     1
100
AcDbDimStyleTable
  0
DIMSTYLE
105
27
330
A
100
AcDbSymbolTableRecord
100
AcDbDimStyleTableRecord
  2
Standard
 70
     0
178
     0
340
11
  0
ENDTAB
  0
TABLE
  2
BLOCK_RECORD
  5
1
330
0
100
AcDbSymbolTable
 70
     1
  0
BLOCK_RECORD
  5
1F
330
1
100
AcDbSymbolTableRecord
100
AcDbBlockTableRecord
  2
*Model_Space
340
22
 70
     0
280
     1
281
     0
  0
BLOCK_RECORD
  5
1B
330
1
100
AcDbSymbolTableRecord
100
AcDbBlockTableRecord
  2
*Paper_Space
340
1E
 70
     0
280
     1
281
     0
  0
BLOCK_RECORD
  5
23
330
1
100
AcDbSymbolTableRecord
100
AcDbBlockTableRecord
  2
*Paper_Space0
340
26
 70
     0
280
     1
281
     0
  0
ENDTAB
  0
ENDSEC
  0
SECTION
  2
BLOCKS
  0
BLOCK
  5
20
330
1F
100
AcDbEntity
  8
0
100
AcDbBlockBegin
  2
*Model_Space
 70
     0
 10
0.0
 20
0.0
 30
0.0
  3
*Model_Space
  1

  0
ENDBLK
  5
21
330
1F
100
AcDbEntity
  8
0
100
AcDbBlockEnd
  0
BLOCK
  5
1C
330
1B
100
AcDbEntity
 67
     1
  8
0
100
AcDbBlockBegin
  2
*Paper_Space
 70
     0
 10
0.0
 20
0.0
 30
0.0
  3
*Paper_Space
  1

  0
ENDBLK
  5
1D
330
1B
100
AcDbEntity
 67
     1
  8
0
100
AcDbBlockEnd
  0
BLOCK
  5
24
330
23
100
AcDbEntity
  8
0
100
AcDbBlockBegin
  2
*Paper_Space0
 70
     0
 10
0.0
 20
0.0
 30
0.0
  3
*Paper_Space0
  1

  0
ENDBLK
  5
25
330
23
100
AcDbEntity
  8
0
100
AcDbBlockEnd
  0
ENDSEC
  0
SECTION
  2
ENTITIES
  0
SPLINE
  5
60
330
1F
100
AcDbEntity
  8
Layer 1
 62
   250
370
    20
100
AcDbSpline
210
0.0
220
0.0
230
1.0
 70
    11
 71
     3
 72
    56
 73
    52
 74
     0
 42
0.0000000001
 43
0.0000000001
 40
0.0
 40
0.0
 40
0.0
 40
0.0
 40
0.0588235294117647
 40
0.0588235294117647
 40
0.0588235294117647
 40
0.1176470588235294
 40
0.1176470588235294
 40
0.1176470588235294
 40
0.1764705882352941
 40
0.1764705882352941
 40
0.1764705882352941
 40
0.2352941176470588
 40
0.2352941176470588
 40
0.2352941176470588
 40
0.2941176470588235
 40
0.2941176470588235
 40
0.2941176470588235
 40
0.3529411764705882
 40
0.3529411764705882
 40
0.3529411764705882
 40
0.4117647058823529
 40
0.4117647058823529
 40
0.4117647058823529
 40
0.4705882352941176
 40
0.4705882352941176
 40
0.4705882352941176
 40
0.5294117647058824
 40
0.5294117647058824
 40
0.5294117647058824
 40
0.5882352941176471
 40
0.5882352941176471
 40
0.5882352941176471
 40
0.6470588235294118
 40
0.6470588235294118
 40
0.6470588235294118
 40
0.7058823529411764
 40
0.7058823529411764
 40
0.7058823529411764
 40
0.7647058823529411
 40
0.7647058823529411
 40
0.7647058823529411
 40
0.8235294117647058
 40
0.8235294117647058
 40
0.8235294117647058
 40
0.8823529411764706
 40
0.8823529411764706
 40
0.8823529411764706
 40
0.9411764705882353
 40
0.9411764705882353
 40
0.9411764705882353
 40
1.0
 40
1.0
 40
1.0
 40
1.0
 10
957.38
 20
589.3308
 30
0.0
 10
1014.4377
 20
593.1234
 30
0.0
 10
1070.1931
 20
580.6461
 30
0.0
 10
1114.203
 20
541.1478
 30
0.0
 10
1124.7417
 20
531.6894
 30
0.0
 10
1134.1306
 20
521.1086
 30
0.0
 10
1142.4524
 20
509.6744
 30
0.0
 10
1127.3986
 20
514.1849
 30
0.0
 10
1111.635
 20
515.9553
 30
0.0
 10
1095.775
 20
514.9005
 30
0.0
 10
1070.425
 20
513.2145
 30
0.0
 10
1045.8958
 20
504.402
 30
0.0
 10
1024.7357
 20
489.944
 30
0.0
 10
987.6639
 20
464.614
 30
0.0
 10
964.088
 20
424.5953
 30
0.0
 10
957.0905
 20
379.4854
 30
0.0
 10
957.0905
 20
379.4854
 30
0.0
 10
956.9912
 20
378.8453
 30
0.0
 10
956.9912
 20
378.8453
 30
0.0
 10
956.792
 20
377.5616
 30
0.0
 10
956.7086
 20
376.2942
 30
0.0
 10
956.7379
 20
374.9945
 30
0.0
 10
956.7379
 20
374.9945
 30
0.0
 10
956.7544
 20
374.2643
 30
0.0
 10
956.7544
 20
374.2643
 30
0.0
 10
957.6755
 20
333.3643
 30
0.0
 10
941.6109
 20
294.2317
 30
0.0
 10
908.6594
 20
270.4507
 30
0.0
 10
895.6931
 20
261.0929
 30
0.0
 10
880.7115
 20
254.677
 30
0.0
 10
865.0253
 20
252.351
 30
0.0
 10
850.0075
 20
250.1241
 30
0.0
 10
834.7705
 20
251.7198
 30
0.0
 10
820.6536
 20
257.5464
 30
0.0
 10
789.903
 20
270.2386
 30
0.0
 10
771.4093
 20
299.4518
 30
0.0
 10
760.9448
 20
330.6335
 30
0.0
 10
760.9448
 20
330.6335
 30
0.0
 10
760.9448
 20
389.0743
 30
0.0
 10
760.9448
 20
389.0743
 30
0.0
 10
760.9448
 20
390.3753
 30
0.0
 10
760.8328
 20
391.6413
 30
0.0
 10
760.6045
 20
392.9208
 30
0.0
 10
760.5464
 20
393.2463
 30
0.0
 10
760.4879
 20
393.5717
 30
0.0
 10
760.429
 20
393.897
 30
0.0
 10
767.0405
 20
431.6847
 30
0.0
 10
780.08
 20
467.3457
 30
0.0
 10
803.1511
 20
497.8295
 30
0.0
 10
841.0853
 20
547.9517
 30
0.0
 10
898.9321
 20
574.4753
 30
0.0
 10
957.38
 20
589.3308
 30
0.0
  0
SPLINE
  5
61
330
1F
100
AcDbEntity
  8
Layer 1
 62
   250
370
    20
100
AcDbSpline
210
0.0
220
0.0
230
1.0
 70
    11
 71
     3
 72
    59
 73
    55
 74
     0
 42
0.0000000001
 43
0.0000000001
 40
0.0
 40
0.0
 40
0.0
 40
0.0
 40
0.0555555555555556
 40
0.0555555555555556
 40
0.0555555555555556
 40
0.1111111111111111
 40
0.1111111111111111
 40
0.1111111111111111
 40
0.1666666666666667
 40
0.1666666666666667
 40
0.1666666666666667
 40
0.2222222222222222
 40
0.2222222222222222
 40
0.2222222222222222
 40
0.2777777777777778
 40
0.2777777777777778
 40
0.2777777777777778
 40
0.3333333333333333
 40
0.3333333333333333
 40
0.3333333333333333
 40
0.3888888888888888
 40
0.3888888888888888
 40
0.3888888888888888
 40
0.4444444444444444
 40
0.4444444444444444
 40
0.4444444444444444
 40
0.5
 40
0.5
 40
0.5
 40
0.5555555555555556
 40
0.5555555555555556
 40
0.5555555555555556
 40
0.611111111111111
 40
0.611111111111111
 40
0.611111111111111
 40
0.6666666666666666
 40
0.6666666666666666
 40
0.6666666666666666
 40
0.7222222222222222
 40
0.7222222222222222
 40
0.7222222222222222
 40
0.7777777777777777
 40
0.7777777777777777
 40
0.7777777777777777
 40
0.8333333333333333
 40
0.8333333333333333
 40
0.8333333333333333
 40
0.8888888888888888
 40
0.8888888888888888
 40
0.8888888888888888
 40
0.9444444444444444
 40
0.9444444444444444
 40
0.9444444444444444
 40
1.0
 40
1.0
 40
1.0
 40
1.0
 10
627.7658
 20
541.1477
 30
0.0
 10
638.3046
 20
531.6894
 30
0.0
 10
647.6934
 20
521.1087
 30
0.0
 10
656.0152
 20
509.6745
 30
0.0
 10
640.9615
 20
514.1849
 30
0.0
 10
625.198
 20
515.9553
 30
0.0
 10
609.338
 20
514.9005
 30
0.0
 10
583.9878
 20
513.2145
 30
0.0
 10
559.4586
 20
504.402
 30
0.0
 10
538.2985
 20
489.944
 30
0.0
 10
501.2268
 20
464.614
 30
0.0
 10
477.6509
 20
424.5952
 30
0.0
 10
470.6534
 20
379.4854
 30
0.0
 10
470.6534
 20
379.4854
 30
0.0
 10
470.5541
 20
378.8453
 30
0.0
 10
470.5541
 20
378.8453
 30
0.0
 10
470.3549
 20
377.5616
 30
0.0
 10
470.2715
 20
376.2942
 30
0.0
 10
470.3008
 20
374.9945
 30
0.0
 10
470.3008
 20
374.9945
 30
0.0
 10
470.3173
 20
374.2643
 30
0.0
 10
470.3173
 20
374.2643
 30
0.0
 10
471.2385
 20
333.3644
 30
0.0
 10
455.1737
 20
294.2316
 30
0.0
 10
422.2223
 20
270.4507
 30
0.0
 10
409.256
 20
261.0929
 30
0.0
 10
394.2744
 20
254.677
 30
0.0
 10
378.5883
 20
252.351
 30
0.0
 10
363.5704
 20
250.1241
 30
0.0
 10
348.3334
 20
251.7198
 30
0.0
 10
334.2165
 20
257.5464
 30
0.0
 10
305.0939
 20
269.5665
 30
0.0
 10
286.9619
 20
296.4002
 30
0.0
 10
276.2248
 20
325.7366
 30
0.0
 10
276.2866
 20
326.4102
 30
0.0
 10
276.3176
 20
327.087
 30
0.0
 10
276.3176
 20
327.7648
 30
0.0
 10
276.3176
 20
327.7648
 30
0.0
 10
276.3176
 20
389.0743
 30
0.0
 10
276.3176
 20
389.0743
 30
0.0
 10
276.3176
 20
390.3752
 30
0.0
 10
276.2057
 20
391.6411
 30
0.0
 10
275.9774
 20
392.9206
 30
0.0
 10
275.6271
 20
394.8835
 30
0.0
 10
275.2642
 20
396.8441
 30
0.0
 10
274.8893
 20
398.8023
 30
0.0
 10
281.7616
 20
434.8192
 30
0.0
 10
294.6739
 20
468.7079
 30
0.0
 10
316.714
 20
497.8295
 30
0.0
 10
354.6483
 20
547.9517
 30
0.0
 10
412.495
 20
574.4753
 30
0.0
 10
470.9429
 20
589.3308
 30
0.0
 10
528.0005
 20
593.1234
 30
0.0
 10
583.7559
 20
580.6461
 30
0.0
 10
627.7658
 20
541.1477
 30
0.0
  0
SPLINE
  5
62
330
1F
100
AcDbEntity
  8
Layer 1
 62
   250
370
    20
100
AcDbSpline
210
0.0
220
0.0
230
1.0
 70
    11
 71
     3
 72
    32
 73
    28
 74
     0
 42
0.0000000001
 43
0.0000000001
 40
0.0
 40
0.0
 40
0.0
 40
0.0
 40
0.1111111111111111
 40
0.1111111111111111
 40
0.1111111111111111
 40
0.2222222222222222
 40
0.2222222222222222
 40
0.2222222222222222
 40
0.3333333333333333
 40
0.3333333333333333
 40
0.3333333333333333
 40
0.4444444444444444
 40
0.4444444444444444
 40
0.4444444444444444
 40
0.5555555555555556
 40
0.5555555555555556
 40
0.5555555555555556
 40
0.6666666666666666
 40
0.6666666666666666
 40
0.6666666666666666
 40
0.7777777777777777
 40
0.7777777777777777
 40
0.7777777777777777
 40
0.8888888888888888
 40
0.8888888888888888
 40
0.8888888888888888
 40
1.0
 40
1.0
 40
1.0
 40
1.0
 10
172.6079
 20
447.4527
 30
0.0
 10
194.2046
 20
435.0089
 30
0.0
 10
208.5017
 20
413.4035
 30
0.0
 10
217.4158
 20
390.08
 30
0.0
 10
216.8265
 20
385.8328
 30
0.0
 10
216.3023
 20
381.5762
 30
0.0
 10
215.8391
 20
377.3125
 30
0.0
 10
210.9877
 20
381.4757
 30
0.0
 10
205.8649
 20
385.3046
 30
0.0
 10
200.4882
 20
388.7691
 30
0.0
 10
179.3992
 20
402.358
 30
0.0
 10
155.328
 20
409.7052
 30
0.0
 10
130.5144
 20
410.6371
 30
0.0
 10
106.1328
 20
411.5529
 30
0.0
 10
81.6385
 20
406.2206
 30
0.0
 10
59.5108
 20
395.6677
 30
0.0
 10
54.3909
 20
393.2261
 30
0.0
 10
49.4
 20
390.5099
 30
0.0
 10
44.5591
 20
387.5355
 30
0.0
 10
51.4711
 20
409.6693
 30
0.0
 10
64.8443
 20
428.9322
 30
0.0
 10
84.0599
 20
442.0614
 30
0.0
 10
97.2096
 20
451.0462
 30
0.0
 10
112.4776
 20
456.6169
 30
0.0
 10
128.2399
 20
457.6655
 30
0.0
 10
143.7431
 20
458.6968
 30
0.0
 10
159.0265
 20
455.2781
 30
0.0
 10
172.6079
 20
447.4527
 30
0.0
  0
SPLINE
  5
63
330
1F
100
AcDbEntity
  8
Layer 1
 62
   250
370
    20
100
AcDbSpline
210
0.0
220
0.0
230
1.0
 70
    11
 71
     3
 72
    47
 73
    43
 74
     0
 42
0.0000000001
 43
0.0000000001
 40
0.0
 40
0.0
 40
0.0
 40
0.0
 40
0.0714285714285714
 40
0.0714285714285714
 40
0.0714285714285714
 40
0.1428571428571428
 40
0.1428571428571428
 40
0.1428571428571428
 40
0.2142857142857143
 40
0.2142857142857143
 40
0.2142857142857143
 40
0.2857142857142857
 40
0.2857142857142857
 40
0.2857142857142857
 40
0.3571428571428571
 40
0.3571428571428571
 40
0.3571428571428571
 40
0.4285714285714285
 40
0.4285714285714285
 40
0.4285714285714285
 40
0.5
 40
0.5
 40
0.5
 40
0.5714285714285714
 40
0.5714285714285714
 40
0.5714285714285714
 40
0.6428571428571428
 40
0.6428571428571428
 40
0.6428571428571428
 40
0.7142857142857142
 40
0.7142857142857142
 40
0.7142857142857142
 40
0.7857142857142857
 40
0.7857142857142857
 40
0.7857142857142857
 40
0.8571428571428571
 40
0.8571428571428571
 40
0.8571428571428571
 40
0.9285714285714285
 40
0.9285714285714285
 40
0.9285714285714285
 40
1.0
 40
1.0
 40
1.0
 40
1.0
 10
-14.3099
 20
374.2643
 30
0.0
 10
-13.3887
 20
333.3644
 30
0.0
 10
-29.4535
 20
294.2316
 30
0.0
 10
-62.4049
 20
270.4507
 30
0.0
 10
-75.3712
 20
261.0929
 30
0.0
 10
-90.3527
 20
254.677
 30
0.0
 10
-106.0389
 20
252.351
 30
0.0
 10
-121.0568
 20
250.1241
 30
0.0
 10
-136.2938
 20
251.7198
 30
0.0
 10
-150.4107
 20
257.5464
 30
0.0
 10
-187.4063
 20
272.8161
 30
0.0
 10
-206.7466
 20
312.0713
 30
0.0
 10
-215.5995
 20
350.0401
 30
0.0
 10
-212.5226
 20
403.0015
 30
0.0
 10
-200.099
 20
455.3024
 30
0.0
 10
-167.9131
 20
497.8295
 30
0.0
 10
-129.9789
 20
547.9518
 30
0.0
 10
-72.1321
 20
574.4753
 30
0.0
 10
-13.6841
 20
589.3308
 30
0.0
 10
43.3734
 20
593.1234
 30
0.0
 10
99.1287
 20
580.6461
 30
0.0
 10
143.1386
 20
541.1477
 30
0.0
 10
153.6774
 20
531.6894
 30
0.0
 10
163.0662
 20
521.1087
 30
0.0
 10
171.388
 20
509.6745
 30
0.0
 10
156.3344
 20
514.1849
 30
0.0
 10
140.5709
 20
515.9552
 30
0.0
 10
124.7109
 20
514.9005
 30
0.0
 10
99.3607
 20
513.2145
 30
0.0
 10
74.8315
 20
504.402
 30
0.0
 10
53.6713
 20
489.944
 30
0.0
 10
16.5995
 20
464.614
 30
0.0
 10
-6.9762
 20
424.5953
 30
0.0
 10
-13.9738
 20
379.4854
 30
0.0
 10
-13.9738
 20
379.4854
 30
0.0
 10
-14.0731
 20
378.8453
 30
0.0
 10
-14.0731
 20
378.8453
 30
0.0
 10
-14.2723
 20
377.5616
 30
0.0
 10
-14.3557
 20
376.2942
 30
0.0
 10
-14.3264
 20
374.9945
 30
0.0
 10
-14.3264
 20
374.9945
 30
0.0
 10
-14.3099
 20
374.2643
 30
0.0
 10
-14.3099
 20
374.2643
 30
0.0
  0
SPLINE
  5
64
330
1F
100
AcDbEntity
  8
Layer 1
 62
   250
370
    20
100
AcDbSpline
210
0.0
220
0.0
230
1.0
 70
    11
 71
     3
 72
    47
 73
    43
 74
     0
 42
0.0000000001
 43
0.0000000001
 40
0.0
 40
0.0
 40
0.0
 40
0.0
 40
0.0714285714285714
 40
0.0714285714285714
 40
0.0714285714285714
 40
0.1428571428571428
 40
0.1428571428571428
 40
0.1428571428571428
 40
0.2142857142857143
 40
0.2142857142857143
 40
0.2142857142857143
 40
0.2857142857142857
 40
0.2857142857142857
 40
0.2857142857142857
 40
0.3571428571428571
 40
0.3571428571428571
 40
0.3571428571428571
 40
0.4285714285714285
 40
0.4285714285714285
 40
0.4285714285714285
 40
0.5
 40
0.5
 40
0.5
 40
0.5714285714285714
 40
0.5714285714285714
 40
0.5714285714285714
 40
0.6428571428571428
 40
0.6428571428571428
 40
0.6428571428571428
 40
0.7142857142857142
 40
0.7142857142857142
 40
0.7142857142857142
 40
0.7857142857142857
 40
0.7857142857142857
 40
0.7857142857142857
 40
0.8571428571428571
 40
0.8571428571428571
 40
0.8571428571428571
 40
0.9285714285714285
 40
0.9285714285714285
 40
0.9285714285714285
 40
1.0
 40
1.0
 40
1.0
 40
1.0
 10
-321.8939
 20
328.1754
 30
0.0
 10
-287.9828
 20
306.3251
 30
0.0
 10
-275.3931
 20
264.1189
 30
0.0
 10
-272.9704
 20
224.9786
 30
0.0
 10
-284.7628
 20
173.5147
 30
0.0
 10
-305.6352
 20
124.2817
 30
0.0
 10
-344.3997
 20
88.3131
 30
0.0
 10
-390.0861
 20
45.922
 30
0.0
 10
-451.4741
 20
30.499
 30
0.0
 10
-511.3448
 20
26.6297
 30
0.0
 10
-568.3498
 20
33.4116
 30
0.0
 10
-621.0784
 20
56.0031
 30
0.0
 10
-657.8456
 20
102.9739
 30
0.0
 10
-666.6105
 20
114.1712
 30
0.0
 10
-674.073
 20
126.2557
 30
0.0
 10
-680.3556
 20
138.9832
 30
0.0
 10
-666.3765
 20
131.8568
 30
0.0
 10
-651.2537
 20
127.2621
 30
0.0
 10
-635.5338
 20
125.3924
 30
0.0
 10
-610.3348
 20
122.3954
 30
0.0
 10
-584.6679
 20
126.5524
 30
0.0
 10
-561.3996
 20
136.9118
 30
0.0
 10
-520.6228
 20
155.0664
 30
0.0
 10
-490.7455
 20
190.1945
 30
0.0
 10
-476.3618
 20
233.3364
 30
0.0
 10
-476.3618
 20
233.3364
 30
0.0
 10
-476.1578
 20
233.9484
 30
0.0
 10
-476.1578
 20
233.9484
 30
0.0
 10
-475.7468
 20
235.181
 30
0.0
 10
-475.4534
 20
236.4183
 30
0.0
 10
-475.266
 20
237.7075
 30
0.0
 10
-475.266
 20
237.7075
 30
0.0
 10
-475.161
 20
238.4295
 30
0.0
 10
-475.161
 20
238.4295
 30
0.0
 10
-469.2855
 20
278.8529
 30
0.0
 10
-447.1681
 20
314.2817
 30
0.0
 10
-410.6772
 20
331.6845
 30
0.0
 10
-396.3705
 20
338.5074
 30
0.0
 10
-380.5336
 20
342.0606
 30
0.0
 10
-364.7594
 20
341.4681
 30
0.0
 10
-349.5605
 20
340.8972
 30
0.0
 10
-334.8206
 20
336.5046
 30
0.0
 10
-321.8939
 20
328.1754
 30
0.0
  0
SPLINE
  5
65
330
1F
100
AcDbEntity
  8
Layer 1
 62
   250
370
    20
100
AcDbSpline
210
0.0
220
0.0
230
1.0
 70
    11
 71
     3
 72
    50
 73
    46
 74
     0
 42
0.0000000001
 43
0.0000000001
 40
0.0
 40
0.0
 40
0.0
 40
0.0
 40
0.0666666666666667
 40
0.0666666666666667
 40
0.0666666666666667
 40
0.1333333333333333
 40
0.1333333333333333
 40
0.1333333333333333
 40
0.2
 40
0.2
 40
0.2
 40
0.2666666666666667
 40
0.2666666666666667
 40
0.2666666666666667
 40
0.3333333333333333
 40
0.3333333333333333
 40
0.3333333333333333
 40
0.4
 40
0.4
 40
0.4
 40
0.4666666666666667
 40
0.4666666666666667
 40
0.4666666666666667
 40
0.5333333333333333
 40
0.5333333333333333
 40
0.5333333333333333
 40
0.6
 40
0.6
 40
0.6
 40
0.6666666666666666
 40
0.6666666666666666
 40
0.6666666666666666
 40
0.7333333333333333
 40
0.7333333333333333
 40
0.7333333333333333
 40
0.8
 40
0.8
 40
0.8
 40
0.8666666666666667
 40
0.8666666666666667
 40
0.8666666666666667
 40
0.9333333333333333
 40
0.9333333333333333
 40
0.9333333333333333
 40
1.0
 40
1.0
 40
1.0
 40
1.0
 10
-555.6446
 20
258.5903
 30
0.0
 10
-568.6109
 20
249.2325
 30
0.0
 10
-583.5924
 20
242.8166
 30
0.0
 10
-599.2787
 20
240.4907
 30
0.0
 10
-614.2964
 20
238.2637
 30
0.0
 10
-629.5335
 20
239.8594
 30
0.0
 10
-643.6504
 20
245.686
 30
0.0
 10
-679.7482
 20
260.5851
 30
0.0
 10
-699.0728
 20
298.3932
 30
0.0
 10
-708.1764
 20
335.4173
 30
0.0
 10
-708.1764
 20
335.4173
 30
0.0
 10
-708.1764
 20
347.7489
 30
0.0
 10
-708.1764
 20
347.7489
 30
0.0
 10
-704.1763
 20
397.5398
 30
0.0
 10
-691.3592
 20
446.0576
 30
0.0
 10
-661.153
 20
485.969
 30
0.0
 10
-623.2187
 20
536.0913
 30
0.0
 10
-565.372
 20
562.6149
 30
0.0
 10
-506.924
 20
577.4705
 30
0.0
 10
-449.8664
 20
581.263
 30
0.0
 10
-394.111
 20
568.7858
 30
0.0
 10
-350.1011
 20
529.2875
 30
0.0
 10
-339.5624
 20
519.829
 30
0.0
 10
-330.1735
 20
509.2482
 30
0.0
 10
-321.8518
 20
497.8141
 30
0.0
 10
-336.9054
 20
502.3245
 30
0.0
 10
-352.669
 20
504.0949
 30
0.0
 10
-368.529
 20
503.04
 30
0.0
 10
-393.8793
 20
501.3539
 30
0.0
 10
-418.4084
 20
492.5416
 30
0.0
 10
-439.5686
 20
478.0835
 30
0.0
 10
-476.6392
 20
452.7543
 30
0.0
 10
-500.2089
 20
412.7341
 30
0.0
 10
-507.2131
 20
367.6284
 30
0.0
 10
-507.2131
 20
367.6284
 30
0.0
 10
-507.3125
 20
366.9883
 30
0.0
 10
-507.3125
 20
366.9883
 30
0.0
 10
-507.5121
 20
365.7024
 30
0.0
 10
-507.5957
 20
364.433
 30
0.0
 10
-507.5662
 20
363.1311
 30
0.0
 10
-507.5662
 20
363.1311
 30
0.0
 10
-507.5497
 20
362.4009
 30
0.0
 10
-507.5497
 20
362.4009
 30
0.0
 10
-506.6227
 20
321.4996
 30
0.0
 10
-522.6936
 20
282.3709
 30
0.0
 10
-555.6446
 20
258.5903
 30
0.0
  0
SPLINE
  5
66
330
1F
100
AcDbEntity
  8
Layer 1
 62
   250
370
    20
100
AcDbSpline
210
0.0
220
0.0
230
1.0
 70
    11
 71
     3
 72
    47
 73
    43
 74
     0
 42
0.0000000001
 43
0.0000000001
 40
0.0
 40
0.0
 40
0.0
 40
0.0
 40
0.0714285714285714
 40
0.0714285714285714
 40
0.0714285714285714
 40
0.1428571428571428
 40
0.1428571428571428
 40
0.1428571428571428
 40
0.2142857142857143
 40
0.2142857142857143
 40
0.2142857142857143
 40
0.2857142857142857
 40
0.2857142857142857
 40
0.2857142857142857
 40
0.3571428571428571
 40
0.3571428571428571
 40
0.3571428571428571
 40
0.4285714285714285
 40
0.4285714285714285
 40
0.4285714285714285
 40
0.5
 40
0.5
 40
0.5
 40
0.5714285714285714
 40
0.5714285714285714
 40
0.5714285714285714
 40
0.6428571428571428
 40
0.6428571428571428
 40
0.6428571428571428
 40
0.7142857142857142
 40
0.7142857142857142
 40
0.7142857142857142
 40
0.7857142857142857
 40
0.7857142857142857
 40
0.7857142857142857
 40
0.8571428571428571
 40
0.8571428571428571
 40
0.8571428571428571
 40
0.9285714285714285
 40
0.9285714285714285
 40
0.9285714285714285
 40
1.0
 40
1.0
 40
1.0
 40
1.0
 10
-764.2246
 20
220.678
 30
0.0
 10
-776.0171
 20
169.2144
 30
0.0
 10
-796.8894
 20
119.981
 30
0.0
 10
-835.6538
 20
84.0126
 30
0.0
 10
-881.3403
 20
41.6213
 30
0.0
 10
-942.728
 20
26.1984
 30
0.0
 10
-1002.5989
 20
22.3291
 30
0.0
 10
-1059.6039
 20
29.111
 30
0.0
 10
-1112.3325
 20
51.7024
 30
0.0
 10
-1149.0997
 20
98.6733
 30
0.0
 10
-1157.8646
 20
109.8706
 30
0.0
 10
-1165.3272
 20
121.9551
 30
0.0
 10
-1171.6098
 20
134.6825
 30
0.0
 10
-1157.6307
 20
127.5562
 30
0.0
 10
-1142.5079
 20
122.9615
 30
0.0
 10
-1126.7879
 20
121.0918
 30
0.0
 10
-1101.5889
 20
118.0948
 30
0.0
 10
-1075.9219
 20
122.2519
 30
0.0
 10
-1052.6537
 20
132.6112
 30
0.0
 10
-1011.8771
 20
150.7657
 30
0.0
 10
-981.9997
 20
185.894
 30
0.0
 10
-967.616
 20
229.0358
 30
0.0
 10
-967.616
 20
229.0358
 30
0.0
 10
-967.4119
 20
229.6478
 30
0.0
 10
-967.4119
 20
229.6478
 30
0.0
 10
-967.001
 20
230.8805
 30
0.0
 10
-966.7075
 20
232.1177
 30
0.0
 10
-966.5201
 20
233.4069
 30
0.0
 10
-966.5201
 20
233.4069
 30
0.0
 10
-966.4152
 20
234.1289
 30
0.0
 10
-966.4152
 20
234.1289
 30
0.0
 10
-960.5397
 20
274.5522
 30
0.0
 10
-938.4222
 20
309.9812
 30
0.0
 10
-901.9314
 20
327.384
 30
0.0
 10
-887.6247
 20
334.2069
 30
0.0
 10
-871.7877
 20
337.76
 30
0.0
 10
-856.0136
 20
337.1676
 30
0.0
 10
-840.8148
 20
336.5967
 30
0.0
 10
-826.0747
 20
332.2041
 30
0.0
 10
-813.1481
 20
323.8748
 30
0.0
 10
-779.237
 20
302.0244
 30
0.0
 10
-766.6474
 20
259.8183
 30
0.0
 10
-764.2246
 20
220.678
 30
0.0
  0
SPLINE
  5
67
330
1F
100
AcDbEntity
  8
Layer 1
 62
   250
370
    20
100
AcDbSpline
210
0.0
220
0.0
230
1.0
 70
    11
 71
     3
 72
    32
 73
    28
 74
     0
 42
0.0000000001
 43
0.0000000001
 40
0.0
 40
0.0
 40
0.0
 40
0.0
 40
0.1111111111111111
 40
0.1111111111111111
 40
0.1111111111111111
 40
0.2222222222222222
 40
0.2222222222222222
 40
0.2222222222222222
 40
0.3333333333333333
 40
0.3333333333333333
 40
0.3333333333333333
 40
0.4444444444444444
 40
0.4444444444444444
 40
0.4444444444444444
 40
0.5555555555555556
 40
0.5555555555555556
 40
0.5555555555555556
 40
0.6666666666666666
 40
0.6666666666666666
 40
0.6666666666666666
 40
0.7777777777777777
 40
0.7777777777777777
 40
0.7777777777777777
 40
0.8888888888888888
 40
0.8888888888888888
 40
0.8888888888888888
 40
1.0
 40
1.0
 40
1.0
 40
1.0
 10
657.2352
 20
447.4527
 30
0.0
 10
679.9509
 20
434.3642
 30
0.0
 10
694.5638
 20
411.1755
 30
0.0
 10
703.3706
 20
386.4805
 30
0.0
 10
702.9114
 20
382.9485
 30
0.0
 10
702.4964
 20
379.4106
 30
0.0
 10
702.123
 20
375.868
 30
0.0
 10
696.788
 20
380.5915
 30
0.0
 10
691.1115
 20
384.9057
 30
0.0
 10
685.1154
 20
388.7693
 30
0.0
 10
664.0263
 20
402.3581
 30
0.0
 10
639.9551
 20
409.7052
 30
0.0
 10
615.1415
 20
410.6371
 30
0.0
 10
590.76
 20
411.5529
 30
0.0
 10
566.2657
 20
406.2205
 30
0.0
 10
544.1381
 20
395.6677
 30
0.0
 10
539.0182
 20
393.226
 30
0.0
 10
534.0271
 20
390.5098
 30
0.0
 10
529.186
 20
387.5353
 30
0.0
 10
536.0981
 20
409.6693
 30
0.0
 10
549.4714
 20
428.9322
 30
0.0
 10
568.6871
 20
442.0614
 30
0.0
 10
581.8368
 20
451.0462
 30
0.0
 10
597.1048
 20
456.6169
 30
0.0
 10
612.8671
 20
457.6655
 30
0.0
 10
628.3705
 20
458.6968
 30
0.0
 10
643.6536
 20
455.2782
 30
0.0
 10
657.2352
 20
447.4527
 30
0.0
  0
SPLINE
  5
68
330
1F
100
AcDbEntity
  8
Layer 1
 62
   250
370
    20
100
AcDbSpline
210
0.0
220
0.0
230
1.0
 70
    11
 71
     3
 72
    50
 73
    46
 74
     0
 42
0.0000000001
 43
0.0000000001
 40
0.0
 40
0.0
 40
0.0
 40
0.0
 40
0.0666666666666667
 40
0.0666666666666667
 40
0.0666666666666667
 40
0.1333333333333333
 40
0.1333333333333333
 40
0.1333333333333333
 40
0.2
 40
0.2
 40
0.2
 40
0.2666666666666667
 40
0.2666666666666667
 40
0.2666666666666667
 40
0.3333333333333333
 40
0.3333333333333333
 40
0.3333333333333333
 40
0.4
 40
0.4
 40
0.4
 40
0.4666666666666667
 40
0.4666666666666667
 40
0.4666666666666667
 40
0.5333333333333333
 40
0.5333333333333333
 40
0.5333333333333333
 40
0.6
 40
0.6
 40
0.6
 40
0.6666666666666666
 40
0.6666666666666666
 40
0.6666666666666666
 40
0.7333333333333333
 40
0.7333333333333333
 40
0.7333333333333333
 40
0.8
 40
0.8
 40
0.8
 40
0.8666666666666667
 40
0.8666666666666667
 40
0.8666666666666667
 40
0.9333333333333333
 40
0.9333333333333333
 40
0.9333333333333333
 40
1.0
 40
1.0
 40
1.0
 40
1.0
 10
213.9146
 20
276.7422
 30
0.0
 10
214.3509
 20
260.1377
 30
0.0
 10
215.6322
 20
243.5501
 30
0.0
 10
217.9192
 20
227.1064
 30
0.0
 10
205.7341
 20
179.0974
 30
0.0
 10
185.1152
 20
133.8322
 30
0.0
 10
148.8401
 20
100.1735
 30
0.0
 10
103.1537
 20
57.7824
 30
0.0
 10
41.7658
 20
42.3595
 30
0.0
 10
-18.105
 20
38.4901
 30
0.0
 10
-75.1101
 20
45.272
 30
0.0
 10
-127.8386
 20
67.8636
 30
0.0
 10
-164.6058
 20
114.8343
 30
0.0
 10
-173.3707
 20
126.0317
 30
0.0
 10
-180.8333
 20
138.1162
 30
0.0
 10
-187.1158
 20
150.8436
 30
0.0
 10
-173.1368
 20
143.7173
 30
0.0
 10
-158.014
 20
139.1225
 30
0.0
 10
-142.294
 20
137.2528
 30
0.0
 10
-117.095
 20
134.2558
 30
0.0
 10
-91.428
 20
138.4127
 30
0.0
 10
-68.1597
 20
148.7721
 30
0.0
 10
-27.382
 20
166.9272
 30
0.0
 10
2.5009
 20
202.0531
 30
0.0
 10
16.8791
 20
245.2001
 30
0.0
 10
16.8791
 20
245.2001
 30
0.0
 10
17.083
 20
245.812
 30
0.0
 10
17.083
 20
245.812
 30
0.0
 10
17.4931
 20
247.0427
 30
0.0
 10
17.7862
 20
248.2779
 30
0.0
 10
17.9734
 20
249.565
 30
0.0
 10
17.9734
 20
249.565
 30
0.0
 10
18.0784
 20
250.287
 30
0.0
 10
18.0784
 20
250.287
 30
0.0
 10
23.9594
 20
290.7079
 30
0.0
 10
46.0713
 20
326.1419
 30
0.0
 10
82.5627
 20
343.545
 30
0.0
 10
96.8693
 20
350.3679
 30
0.0
 10
112.7062
 20
353.921
 30
0.0
 10
128.4804
 20
353.3285
 30
0.0
 10
143.6792
 20
352.7576
 30
0.0
 10
158.4191
 20
348.365
 30
0.0
 10
171.3458
 20
340.0358
 30
0.0
 10
193.55
 20
325.7287
 30
0.0
 10
206.8939
 20
302.2385
 30
0.0
 10
213.9146
 20
276.7422
 30
0.0
  0
SPLINE
  5
69
330
1F
100
AcDbEntity
  8
Layer 1
 62
   250
370
    20
100
AcDbSpline
210
0.0
220
0.0
230
1.0
 70
    11
 71
     3
 72
    29
 73
    25
 74
     0
 42
0.0000000001
 43
0.0000000001
 40
0.0
 40
0.0
 40
0.0
 40
0.0
 40
0.125
 40
0.125
 40
0.125
 40
0.25
 40
0.25
 40
0.25
 40
0.375
 40
0.375
 40
0.375
 40
0.5
 40
0.5
 40
0.5
 40
0.625
 40
0.625
 40
0.625
 40
0.75
 40
0.75
 40
0.75
 40
0.875
 40
0.875
 40
0.875
 40
1.0
 40
1.0
 40
1.0
 40
1.0
 10
-207.5131
 20
78.7001
 30
0.0
 10
-180.1303
 20
43.7177
 30
0.0
 10
-145.4804
 20
18.4966
 30
0.0
 10
-105.8918
 20
2.1703
 30
0.0
 10
-144.7096
 20
-17.1465
 30
0.0
 10
-179.311
 20
-43.4543
 30
0.0
 10
-206.2958
 20
-79.1092
 30
0.0
 10
-220.0027
 20
-97.22
 30
0.0
 10
-231.0852
 20
-116.9093
 30
0.0
 10
-239.7974
 20
-137.8124
 30
0.0
 10
-256.0824
 20
-100.5927
 30
0.0
 10
-278.6431
 20
-66.8123
 30
0.0
 10
-308.8412
 20
-39.7096
 30
0.0
 10
-328.1719
 20
-22.3602
 30
0.0
 10
-349.72
 20
-8.6054
 30
0.0
 10
-373.0196
 20
1.5423
 30
0.0
 10
-349.2642
 20
12.801
 30
0.0
 10
-327.2212
 20
27.3153
 30
0.0
 10
-307.5483
 20
45.5691
 30
0.0
 10
-279.2273
 20
71.8473
 30
0.0
 10
-258.2196
 20
103.5922
 30
0.0
 10
-242.7965
 20
138.8053
 30
0.0
 10
-233.5887
 20
117.3254
 30
0.0
 10
-221.9071
 20
97.0887
 30
0.0
 10
-207.5131
 20
78.7001
 30
0.0
  0
SPLINE
  5
6A
330
1F
100
AcDbEntity
  8
Layer 1
 62
   250
370
    20
100
AcDbSpline
210
0.0
220
0.0
230
1.0
 70
    11
 71
     3
 72
    50
 73
    46
 74
     0
 42
0.0000000001
 43
0.0000000001
 40
0.0
 40
0.0
 40
0.0
 40
0.0
 40
0.0666666666666667
 40
0.0666666666666667
 40
0.0666666666666667
 40
0.1333333333333333
 40
0.1333333333333333
 40
0.1333333333333333
 40
0.2
 40
0.2
 40
0.2
 40
0.2666666666666667
 40
0.2666666666666667
 40
0.2666666666666667
 40
0.3333333333333333
 40
0.3333333333333333
 40
0.3333333333333333
 40
0.4
 40
0.4
 40
0.4
 40
0.4666666666666667
 40
0.4666666666666667
 40
0.4666666666666667
 40
0.5333333333333333
 40
0.5333333333333333
 40
0.5333333333333333
 40
0.6
 40
0.6
 40
0.6
 40
0.6666666666666666
 40
0.6666666666666666
 40
0.6666666666666666
 40
0.7333333333333333
 40
0.7333333333333333
 40
0.7333333333333333
 40
0.8
 40
0.8
 40
0.8
 40
0.8666666666666667
 40
0.8666666666666667
 40
0.8666666666666667
 40
0.9333333333333333
 40
0.9333333333333333
 40
0.9333333333333333
 40
1.0
 40
1.0
 40
1.0
 40
1.0
 10
-501.8312
 20
-34.8808
 30
0.0
 10
-444.7737
 20
-31.0883
 30
0.0
 10
-389.0183
 20
-43.5655
 30
0.0
 10
-345.0083
 20
-83.064
 30
0.0
 10
-334.4695
 20
-92.5223
 30
0.0
 10
-325.0808
 20
-103.1031
 30
0.0
 10
-316.759
 20
-114.5373
 30
0.0
 10
-331.8126
 20
-110.0268
 30
0.0
 10
-347.5762
 20
-108.2565
 30
0.0
 10
-363.4362
 20
-109.3113
 30
0.0
 10
-388.7864
 20
-110.9974
 30
0.0
 10
-413.3155
 20
-119.8098
 30
0.0
 10
-434.4757
 20
-134.2678
 30
0.0
 10
-471.5475
 20
-159.5977
 30
0.0
 10
-495.1233
 20
-199.6163
 30
0.0
 10
-502.1209
 20
-244.7263
 30
0.0
 10
-502.1209
 20
-244.7263
 30
0.0
 10
-502.2202
 20
-245.3664
 30
0.0
 10
-502.2202
 20
-245.3664
 30
0.0
 10
-502.4195
 20
-246.6512
 30
0.0
 10
-502.5028
 20
-247.9195
 30
0.0
 10
-502.4734
 20
-249.2202
 30
0.0
 10
-502.4734
 20
-249.2202
 30
0.0
 10
-502.4569
 20
-249.9504
 30
0.0
 10
-502.4569
 20
-249.9504
 30
0.0
 10
-501.5299
 20
-290.8517
 30
0.0
 10
-517.6009
 20
-329.9805
 30
0.0
 10
-550.5519
 20
-353.7611
 30
0.0
 10
-563.5181
 20
-363.1188
 30
0.0
 10
-578.4996
 20
-369.5347
 30
0.0
 10
-594.1859
 20
-371.8607
 30
0.0
 10
-609.2037
 20
-374.0876
 30
0.0
 10
-624.4408
 20
-372.492
 30
0.0
 10
-638.5578
 20
-366.6654
 30
0.0
 10
-674.6554
 20
-351.7663
 30
0.0
 10
-693.98
 20
-313.958
 30
0.0
 10
-703.0836
 20
-276.934
 30
0.0
 10
-703.0836
 20
-276.934
 30
0.0
 10
-703.0836
 20
-264.6024
 30
0.0
 10
-703.0836
 20
-264.6024
 30
0.0
 10
-699.0836
 20
-214.8116
 30
0.0
 10
-686.2664
 20
-166.2937
 30
0.0
 10
-656.0602
 20
-126.3823
 30
0.0
 10
-618.1259
 20
-76.26
 30
0.0
 10
-560.2793
 20
-49.7364
 30
0.0
 10
-501.8312
 20
-34.8808
 30
0.0
  0
SPLINE
  5
6B
330
1F
100
AcDbEntity
  8
Layer 1
 62
   250
370
    20
100
AcDbSpline
210
0.0
220
0.0
230
1.0
 70
    11
 71
     3
 72
    29
 73
    25
 74
     0
 42
0.0000000001
 43
0.0000000001
 40
0.0
 40
0.0
 40
0.0
 40
0.0
 40
0.125
 40
0.125
 40
0.125
 40
0.25
 40
0.25
 40
0.25
 40
0.375
 40
0.375
 40
0.375
 40
0.5
 40
0.5
 40
0.5
 40
0.625
 40
0.625
 40
0.625
 40
0.75
 40
0.75
 40
0.75
 40
0.875
 40
0.875
 40
0.875
 40
1.0
 40
1.0
 40
1.0
 40
1.0
 10
-736.7223
 20
128.5585
 30
0.0
 10
-727.412
 20
106.4806
 30
0.0
 10
-715.509
 20
85.6913
 30
0.0
 10
-700.7529
 20
66.8398
 30
0.0
 10
-673.3701
 20
31.8572
 30
0.0
 10
-638.7202
 20
6.6363
 30
0.0
 10
-599.1317
 20
-9.69
 30
0.0
 10
-637.9493
 20
-29.0069
 30
0.0
 10
-672.5507
 20
-55.3148
 30
0.0
 10
-699.5356
 20
-90.9695
 30
0.0
 10
-711.8825
 20
-107.2834
 30
0.0
 10
-722.1239
 20
-124.9142
 30
0.0
 10
-730.4157
 20
-143.5772
 30
0.0
 10
-746.7461
 20
-105.7829
 30
0.0
 10
-769.5001
 20
-71.4694
 30
0.0
 10
-800.0954
 20
-44.0101
 30
0.0
 10
-819.4261
 20
-26.6608
 30
0.0
 10
-840.9741
 20
-12.906
 30
0.0
 10
-864.2738
 20
-2.7583
 30
0.0
 10
-840.5184
 20
8.5004
 30
0.0
 10
-818.4755
 20
23.0147
 30
0.0
 10
-798.8026
 20
41.2685
 30
0.0
 10
-772.1292
 20
66.018
 30
0.0
 10
-751.8986
 20
95.6652
 30
0.0
 10
-736.7223
 20
128.5585
 30
0.0
  0
SPLINE
  5
6C
330
1F
100
AcDbEntity
  8
Layer 1
 62
   250
370
    20
100
AcDbSpline
210
0.0
220
0.0
230
1.0
 70
    11
 71
     3
 72
    32
 73
    28
 74
     0
 42
0.0000000001
 43
0.0000000001
 40
0.0
 40
0.0
 40
0.0
 40
0.0
 40
0.1111111111111111
 40
0.1111111111111111
 40
0.1111111111111111
 40
0.2222222222222222
 40
0.2222222222222222
 40
0.2222222222222222
 40
0.3333333333333333
 40
0.3333333333333333
 40
0.3333333333333333
 40
0.4444444444444444
 40
0.4444444444444444
 40
0.4444444444444444
 40
0.5555555555555556
 40
0.5555555555555556
 40
0.5555555555555556
 40
0.6666666666666666
 40
0.6666666666666666
 40
0.6666666666666666
 40
0.7777777777777777
 40
0.7777777777777777
 40
0.7777777777777777
 40
0.8888888888888888
 40
0.8888888888888888
 40
0.8888888888888888
 40
1.0
 40
1.0
 40
1.0
 40
1.0
 10
-270.2595
 20
361.097
 30
0.0
 10
-270.3099
 20
360.4107
 30
0.0
 10
-270.3589
 20
359.7243
 30
0.0
 10
-270.4064
 20
359.0378
 30
0.0
 10
-277.2123
 20
365.7088
 30
0.0
 10
-284.6652
 20
371.6983
 30
0.0
 10
-292.7515
 20
376.9087
 30
0.0
 10
-313.8404
 20
390.4975
 30
0.0
 10
-337.912
 20
397.8449
 30
0.0
 10
-362.7254
 20
398.7768
 30
0.0
 10
-387.1069
 20
399.6924
 30
0.0
 10
-411.6012
 20
394.3602
 30
0.0
 10
-433.7288
 20
383.8074
 30
0.0
 10
-438.8487
 20
381.3656
 30
0.0
 10
-443.8398
 20
378.6494
 30
0.0
 10
-448.6809
 20
375.6749
 30
0.0
 10
-441.7689
 20
397.8088
 30
0.0
 10
-428.3955
 20
417.0718
 30
0.0
 10
-409.1799
 20
430.201
 30
0.0
 10
-396.0301
 20
439.1857
 30
0.0
 10
-380.7622
 20
444.7565
 30
0.0
 10
-364.9998
 20
445.8051
 30
0.0
 10
-349.4965
 20
446.8364
 30
0.0
 10
-334.2132
 20
443.4177
 30
0.0
 10
-320.6318
 20
435.5923
 30
0.0
 10
-293.7983
 20
420.1312
 30
0.0
 10
-278.3701
 20
390.7485
 30
0.0
 10
-270.2595
 20
361.097
 30
0.0
  0
SPLINE
  5
6D
330
1F
100
AcDbEntity
  8
Layer 1
 62
   250
370
    20
100
AcDbSpline
210
0.0
220
0.0
230
1.0
 70
    11
 71
     3
 72
    50
 73
    46
 74
     0
 42
0.0000000001
 43
0.0000000001
 40
0.0
 40
0.0
 40
0.0
 40
0.0
 40
0.0666666666666667
 40
0.0666666666666667
 40
0.0666666666666667
 40
0.1333333333333333
 40
0.1333333333333333
 40
0.1333333333333333
 40
0.2
 40
0.2
 40
0.2
 40
0.2666666666666667
 40
0.2666666666666667
 40
0.2666666666666667
 40
0.3333333333333333
 40
0.3333333333333333
 40
0.3333333333333333
 40
0.4
 40
0.4
 40
0.4
 40
0.4666666666666667
 40
0.4666666666666667
 40
0.4666666666666667
 40
0.5333333333333333
 40
0.5333333333333333
 40
0.5333333333333333
 40
0.6
 40
0.6
 40
0.6
 40
0.6666666666666666
 40
0.6666666666666666
 40
0.6666666666666666
 40
0.7333333333333333
 40
0.7333333333333333
 40
0.7333333333333333
 40
0.8
 40
0.8
 40
0.8
 40
0.8666666666666667
 40
0.8666666666666667
 40
0.8666666666666667
 40
0.9333333333333333
 40
0.9333333333333333
 40
0.9333333333333333
 40
1.0
 40
1.0
 40
1.0
 40
1.0
 10
655.973
 20
340.0358
 30
0.0
 10
680.7296
 20
324.084
 30
0.0
 10
694.3598
 20
296.8468
 30
0.0
 10
700.6504
 20
268.1849
 30
0.0
 10
701.1868
 20
256.0413
 30
0.0
 10
702.1907
 20
243.918
 30
0.0
 10
703.7239
 20
231.8649
 30
0.0
 10
691.7184
 20
182.1473
 30
0.0
 10
670.9602
 20
134.9623
 30
0.0
 10
633.4672
 20
100.1735
 30
0.0
 10
587.7808
 20
57.7824
 30
0.0
 10
526.393
 20
42.3595
 30
0.0
 10
466.5222
 20
38.4901
 30
0.0
 10
409.5171
 20
45.272
 30
0.0
 10
356.7886
 20
67.8636
 30
0.0
 10
320.0214
 20
114.8343
 30
0.0
 10
311.2565
 20
126.0317
 30
0.0
 10
303.7939
 20
138.1162
 30
0.0
 10
297.5114
 20
150.8437
 30
0.0
 10
311.4904
 20
143.7173
 30
0.0
 10
326.6132
 20
139.1225
 30
0.0
 10
342.3332
 20
137.2528
 30
0.0
 10
367.5321
 20
134.2558
 30
0.0
 10
393.1992
 20
138.4127
 30
0.0
 10
416.4674
 20
148.7721
 30
0.0
 10
457.2441
 20
166.9267
 30
0.0
 10
487.1214
 20
202.055
 30
0.0
 10
501.5051
 20
245.1969
 30
0.0
 10
501.5051
 20
245.1969
 30
0.0
 10
501.7092
 20
245.8089
 30
0.0
 10
501.7092
 20
245.8089
 30
0.0
 10
502.1201
 20
247.0415
 30
0.0
 10
502.4136
 20
248.2787
 30
0.0
 10
502.601
 20
249.5679
 30
0.0
 10
502.601
 20
249.5679
 30
0.0
 10
502.7059
 20
250.29
 30
0.0
 10
502.7059
 20
250.29
 30
0.0
 10
508.5814
 20
290.7134
 30
0.0
 10
530.6989
 20
326.1422
 30
0.0
 10
567.1897
 20
343.545
 30
0.0
 10
581.4964
 20
350.3679
 30
0.0
 10
597.3334
 20
353.921
 30
0.0
 10
613.1075
 20
353.3285
 30
0.0
 10
628.3064
 20
352.7576
 30
0.0
 10
643.0463
 20
348.365
 30
0.0
 10
655.973
 20
340.0358
 30
0.0
  0
SPLINE
  5
6E
330
1F
100
AcDbEntity
  8
Layer 1
 62
   250
370
    20
100
AcDbSpline
210
0.0
220
0.0
230
1.0
 70
    11
 71
     3
 72
    29
 73
    25
 74
     0
 42
0.0000000001
 43
0.0000000001
 40
0.0
 40
0.0
 40
0.0
 40
0.0
 40
0.125
 40
0.125
 40
0.125
 40
0.25
 40
0.25
 40
0.25
 40
0.375
 40
0.375
 40
0.375
 40
0.5
 40
0.5
 40
0.5
 40
0.625
 40
0.625
 40
0.625
 40
0.75
 40
0.75
 40
0.75
 40
0.875
 40
0.875
 40
0.875
 40
1.0
 40
1.0
 40
1.0
 40
1.0
 10
277.114
 20
78.7001
 30
0.0
 10
304.4969
 20
43.7177
 30
0.0
 10
339.1468
 20
18.4966
 30
0.0
 10
378.7352
 20
2.1703
 30
0.0
 10
339.9176
 20
-17.1465
 30
0.0
 10
305.3163
 20
-43.4543
 30
0.0
 10
278.3314
 20
-79.1092
 30
0.0
 10
268.0998
 20
-92.6281
 30
0.0
 10
259.2839
 20
-107.0944
 30
0.0
 10
251.8298
 20
-122.3226
 30
0.0
 10
235.6621
 20
-86.5131
 30
0.0
 10
213.5675
 20
-54.0282
 30
0.0
 10
184.3986
 20
-27.8492
 30
0.0
 10
165.0678
 20
-10.4998
 30
0.0
 10
143.5198
 20
3.2549
 30
0.0
 10
120.2201
 20
13.4027
 30
0.0
 10
143.9756
 20
24.6614
 30
0.0
 10
166.0185
 20
39.1756
 30
0.0
 10
185.6915
 20
57.4295
 30
0.0
 10
209.7565
 20
79.7588
 30
0.0
 10
228.6515
 20
106.1568
 30
0.0
 10
243.3062
 20
135.4239
 30
0.0
 10
252.2826
 20
115.1888
 30
0.0
 10
263.4912
 20
96.1037
 30
0.0
 10
277.114
 20
78.7001
 30
0.0
  0
SPLINE
  5
6F
330
1F
100
AcDbEntity
  8
Layer 1
 62
   250
370
    20
100
AcDbSpline
210
0.0
220
0.0
230
1.0
 70
    11
 71
     3
 72
    29
 73
    25
 74
     0
 42
0.0000000001
 43
0.0000000001
 40
0.0
 40
0.0
 40
0.0
 40
0.0
 40
0.125
 40
0.125
 40
0.125
 40
0.25
 40
0.25
 40
0.25
 40
0.375
 40
0.375
 40
0.375
 40
0.5
 40
0.5
 40
0.5
 40
0.625
 40
0.625
 40
0.625
 40
0.75
 40
0.75
 40
0.75
 40
0.875
 40
0.875
 40
0.875
 40
1.0
 40
1.0
 40
1.0
 40
1.0
 10
1055.1241
 20
442.0614
 30
0.0
 10
1068.2739
 20
451.0462
 30
0.0
 10
1083.5418
 20
456.6169
 30
0.0
 10
1099.3042
 20
457.6655
 30
0.0
 10
1114.8076
 20
458.6968
 30
0.0
 10
1130.0907
 20
455.2782
 30
0.0
 10
1143.6722
 20
447.4527
 30
0.0
 10
1171.3658
 20
431.496
 30
0.0
 10
1186.9197
 20
400.7069
 30
0.0
 10
1194.8138
 20
370.0624
 30
0.0
 10
1187.868
 20
376.9634
 30
0.0
 10
1180.1328
 20
383.2404
 30
0.0
 10
1171.5525
 20
388.7691
 30
0.0
 10
1150.4635
 20
402.358
 30
0.0
 10
1126.3922
 20
409.7052
 30
0.0
 10
1101.5787
 20
410.6371
 30
0.0
 10
1077.1971
 20
411.5529
 30
0.0
 10
1052.7028
 20
406.2205
 30
0.0
 10
1030.5752
 20
395.6677
 30
0.0
 10
1025.4553
 20
393.2261
 30
0.0
 10
1020.4643
 20
390.5098
 30
0.0
 10
1015.6232
 20
387.5354
 30
0.0
 10
1022.5353
 20
409.6693
 30
0.0
 10
1035.9086
 20
428.9322
 30
0.0
 10
1055.1241
 20
442.0614
 30
0.0
  0
SPLINE
  5
70
330
1F
100
AcDbEntity
  8
Layer 1
 62
   250
370
    20
100
AcDbSpline
210
0.0
220
0.0
230
1.0
 70
    11
 71
     3
 72
    47
 73
    43
 74
     0
 42
0.0000000001
 43
0.0000000001
 40
0.0
 40
0.0
 40
0.0
 40
0.0
 40
0.0714285714285714
 40
0.0714285714285714
 40
0.0714285714285714
 40
0.1428571428571428
 40
0.1428571428571428
 40
0.1428571428571428
 40
0.2142857142857143
 40
0.2142857142857143
 40
0.2142857142857143
 40
0.2857142857142857
 40
0.2857142857142857
 40
0.2857142857142857
 40
0.3571428571428571
 40
0.3571428571428571
 40
0.3571428571428571
 40
0.4285714285714285
 40
0.4285714285714285
 40
0.4285714285714285
 40
0.5
 40
0.5
 40
0.5
 40
0.5714285714285714
 40
0.5714285714285714
 40
0.5714285714285714
 40
0.6428571428571428
 40
0.6428571428571428
 40
0.6428571428571428
 40
0.7142857142857142
 40
0.7142857142857142
 40
0.7142857142857142
 40
0.7857142857142857
 40
0.7857142857142857
 40
0.7857142857142857
 40
0.8571428571428571
 40
0.8571428571428571
 40
0.8571428571428571
 40
0.9285714285714285
 40
0.9285714285714285
 40
0.9285714285714285
 40
1.0
 40
1.0
 40
1.0
 40
1.0
 10
783.9485
 20
150.8436
 30
0.0
 10
797.9276
 20
143.7173
 30
0.0
 10
813.0504
 20
139.1225
 30
0.0
 10
828.7703
 20
137.2528
 30
0.0
 10
853.9693
 20
134.2558
 30
0.0
 10
879.6364
 20
138.4127
 30
0.0
 10
902.9046
 20
148.7723
 30
0.0
 10
943.6823
 20
166.9272
 30
0.0
 10
973.5652
 20
202.0531
 30
0.0
 10
987.9433
 20
245.2001
 30
0.0
 10
987.9433
 20
245.2001
 30
0.0
 10
988.1473
 20
245.812
 30
0.0
 10
988.1473
 20
245.812
 30
0.0
 10
988.5574
 20
247.0427
 30
0.0
 10
988.8505
 20
248.2779
 30
0.0
 10
989.0376
 20
249.565
 30
0.0
 10
989.0376
 20
249.565
 30
0.0
 10
989.1427
 20
250.287
 30
0.0
 10
989.1427
 20
250.287
 30
0.0
 10
995.0236
 20
290.7079
 30
0.0
 10
1017.1356
 20
326.1419
 30
0.0
 10
1053.6269
 20
343.545
 30
0.0
 10
1067.9336
 20
350.3679
 30
0.0
 10
1083.7705
 20
353.921
 30
0.0
 10
1099.5447
 20
353.3285
 30
0.0
 10
1114.7435
 20
352.7576
 30
0.0
 10
1129.4835
 20
348.365
 30
0.0
 10
1142.4101
 20
340.0358
 30
0.0
 10
1176.3212
 20
318.1853
 30
0.0
 10
1188.9109
 20
275.9794
 30
0.0
 10
1191.3337
 20
236.839
 30
0.0
 10
1179.5412
 20
185.3752
 30
0.0
 10
1158.6689
 20
136.1421
 30
0.0
 10
1119.9044
 20
100.1735
 30
0.0
 10
1074.218
 20
57.7824
 30
0.0
 10
1012.8301
 20
42.3595
 30
0.0
 10
952.9593
 20
38.4901
 30
0.0
 10
895.9542
 20
45.272
 30
0.0
 10
843.2258
 20
67.8636
 30
0.0
 10
806.4586
 20
114.8343
 30
0.0
 10
797.6937
 20
126.0317
 30
0.0
 10
790.2311
 20
138.1162
 30
0.0
 10
783.9485
 20
150.8436
 30
0.0
  0
SPLINE
  5
71
330
1F
100
AcDbEntity
  8
Layer 1
 62
   250
370
    20
100
AcDbSpline
210
0.0
220
0.0
230
1.0
 70
    11
 71
     3
 72
    29
 73
    25
 74
     0
 42
0.0000000001
 43
0.0000000001
 40
0.0
 40
0.0
 40
0.0
 40
0.0
 40
0.125
 40
0.125
 40
0.125
 40
0.25
 40
0.25
 40
0.25
 40
0.375
 40
0.375
 40
0.375
 40
0.5
 40
0.5
 40
0.5
 40
0.625
 40
0.625
 40
0.625
 40
0.75
 40
0.75
 40
0.75
 40
0.875
 40
0.875
 40
0.875
 40
1.0
 40
1.0
 40
1.0
 40
1.0
 10
763.5511
 20
78.7001
 30
0.0
 10
790.934
 20
43.7177
 30
0.0
 10
825.5839
 20
18.4966
 30
0.0
 10
865.1724
 20
2.1703
 30
0.0
 10
826.3548
 20
-17.1465
 30
0.0
 10
791.7534
 20
-43.4543
 30
0.0
 10
764.7685
 20
-79.1092
 30
0.0
 10
754.0973
 20
-93.2088
 30
0.0
 10
744.9734
 20
-108.3286
 30
0.0
 10
737.3261
 20
-124.265
 30
0.0
 10
721.0893
 20
-87.6976
 30
0.0
 10
698.734
 20
-54.5122
 30
0.0
 10
669.0258
 20
-27.8492
 30
0.0
 10
649.695
 20
-10.4998
 30
0.0
 10
628.147
 20
3.2549
 30
0.0
 10
604.8473
 20
13.4027
 30
0.0
 10
628.6027
 20
24.6614
 30
0.0
 10
650.6457
 20
39.1756
 30
0.0
 10
670.3186
 20
57.4295
 30
0.0
 10
694.9302
 20
80.2659
 30
0.0
 10
714.1153
 20
107.3379
 30
0.0
 10
728.8928
 20
137.3601
 30
0.0
 10
738.006
 20
116.4106
 30
0.0
 10
749.4889
 20
96.6651
 30
0.0
 10
763.5511
 20
78.7001
 30
0.0
  0
SPLINE
  5
72
330
1F
100
AcDbEntity
  8
Layer 1
 62
   250
370
    20
100
AcDbSpline
210
0.0
220
0.0
230
1.0
 70
    11
 71
     3
 72
    32
 73
    28
 74
     0
 42
0.0000000001
 43
0.0000000001
 40
0.0
 40
0.0
 40
0.0
 40
0.0
 40
0.1111111111111111
 40
0.1111111111111111
 40
0.1111111111111111
 40
0.2222222222222222
 40
0.2222222222222222
 40
0.2222222222222222
 40
0.3333333333333333
 40
0.3333333333333333
 40
0.3333333333333333
 40
0.4444444444444444
 40
0.4444444444444444
 40
0.4444444444444444
 40
0.5555555555555556
 40
0.5555555555555556
 40
0.5555555555555556
 40
0.6666666666666666
 40
0.6666666666666666
 40
0.6666666666666666
 40
0.7777777777777777
 40
0.7777777777777777
 40
0.7777777777777777
 40
0.8888888888888888
 40
0.8888888888888888
 40
0.8888888888888888
 40
1.0
 40
1.0
 40
1.0
 40
1.0
 10
-762.5434
 20
360.4251
 30
0.0
 10
-762.6874
 20
358.9462
 30
0.0
 10
-762.8245
 20
357.4667
 30
0.0
 10
-762.9544
 20
355.9866
 30
0.0
 10
-769.425
 20
362.1729
 30
0.0
 10
-776.4515
 20
367.7405
 30
0.0
 10
-784.0058
 20
372.6081
 30
0.0
 10
-805.0947
 20
386.1969
 30
0.0
 10
-829.1661
 20
393.5443
 30
0.0
 10
-853.9796
 20
394.4762
 30
0.0
 10
-878.3612
 20
395.3918
 30
0.0
 10
-902.8555
 20
390.0596
 30
0.0
 10
-924.9831
 20
379.5067
 30
0.0
 10
-930.103
 20
377.0649
 30
0.0
 10
-935.094
 20
374.3487
 30
0.0
 10
-939.9351
 20
371.3743
 30
0.0
 10
-933.023
 20
393.5082
 30
0.0
 10
-919.6497
 20
412.7711
 30
0.0
 10
-900.4341
 20
425.9004
 30
0.0
 10
-887.2843
 20
434.8851
 30
0.0
 10
-872.0164
 20
440.4559
 30
0.0
 10
-856.254
 20
441.5045
 30
0.0
 10
-840.7507
 20
442.5359
 30
0.0
 10
-825.4675
 20
439.1172
 30
0.0
 10
-811.886
 20
431.2917
 30
0.0
 10
-786.1443
 20
416.4597
 30
0.0
 10
-770.8819
 20
388.7777
 30
0.0
 10
-762.5434
 20
360.4251
 30
0.0
  0
SPLINE
  5
73
330
1F
100
AcDbEntity
  8
Layer 1
 62
   250
370
    20
100
AcDbSpline
210
0.0
220
0.0
230
1.0
 70
    11
 71
     3
 72
    47
 73
    43
 74
     0
 42
0.0000000001
 43
0.0000000001
 40
0.0
 40
0.0
 40
0.0
 40
0.0
 40
0.0714285714285714
 40
0.0714285714285714
 40
0.0714285714285714
 40
0.1428571428571428
 40
0.1428571428571428
 40
0.1428571428571428
 40
0.2142857142857143
 40
0.2142857142857143
 40
0.2142857142857143
 40
0.2857142857142857
 40
0.2857142857142857
 40
0.2857142857142857
 40
0.3571428571428571
 40
0.3571428571428571
 40
0.3571428571428571
 40
0.4285714285714285
 40
0.4285714285714285
 40
0.4285714285714285
 40
0.5
 40
0.5
 40
0.5
 40
0.5714285714285714
 40
0.5714285714285714
 40
0.5714285714285714
 40
0.6428571428571428
 40
0.6428571428571428
 40
0.6428571428571428
 40
0.7142857142857142
 40
0.7142857142857142
 40
0.7142857142857142
 40
0.7857142857142857
 40
0.7857142857142857
 40
0.7857142857142857
 40
0.8571428571428571
 40
0.8571428571428571
 40
0.8571428571428571
 40
0.9285714285714285
 40
0.9285714285714285
 40
0.9285714285714285
 40
1.0
 40
1.0
 40
1.0
 40
1.0
 10
-841.3553
 20
524.9868
 30
0.0
 10
-830.8166
 20
515.5283
 30
0.0
 10
-821.4278
 20
504.9476
 30
0.0
 10
-813.106
 20
493.5135
 30
0.0
 10
-828.1597
 20
498.0239
 30
0.0
 10
-843.9232
 20
499.7943
 30
0.0
 10
-859.783
 20
498.7394
 30
0.0
 10
-885.1334
 20
497.0533
 30
0.0
 10
-909.6625
 20
488.2411
 30
0.0
 10
-930.8228
 20
473.7829
 30
0.0
 10
-967.8955
 20
448.4522
 30
0.0
 10
-991.4775
 20
408.435
 30
0.0
 10
-998.4684
 20
363.321
 30
0.0
 10
-998.4684
 20
363.321
 30
0.0
 10
-998.5676
 20
362.6809
 30
0.0
 10
-998.5676
 20
362.6809
 30
0.0
 10
-998.7662
 20
361.3993
 30
0.0
 10
-998.8494
 20
360.1341
 30
0.0
 10
-998.8203
 20
358.8367
 30
0.0
 10
-998.8203
 20
358.8367
 30
0.0
 10
-998.8039
 20
358.1065
 30
0.0
 10
-998.8039
 20
358.1065
 30
0.0
 10
-997.8886
 20
317.2079
 30
0.0
 10
-1013.9468
 20
278.071
 30
0.0
 10
-1046.8988
 20
254.2897
 30
0.0
 10
-1059.8652
 20
244.9319
 30
0.0
 10
-1074.8466
 20
238.5159
 30
0.0
 10
-1090.5328
 20
236.19
 30
0.0
 10
-1105.5507
 20
233.963
 30
0.0
 10
-1120.7877
 20
235.5588
 30
0.0
 10
-1134.9046
 20
241.3854
 30
0.0
 10
-1171.9002
 20
256.655
 30
0.0
 10
-1191.2407
 20
295.9103
 30
0.0
 10
-1200.0935
 20
333.8792
 30
0.0
 10
-1197.0166
 20
386.8404
 30
0.0
 10
-1184.5929
 20
439.1415
 30
0.0
 10
-1152.4071
 20
481.6684
 30
0.0
 10
-1114.4728
 20
531.7908
 30
0.0
 10
-1056.6262
 20
558.3143
 30
0.0
 10
-998.1782
 20
573.1699
 30
0.0
 10
-941.1204
 20
576.9624
 30
0.0
 10
-885.3653
 20
564.4852
 30
0.0
 10
-841.3553
 20
524.9868
 30
0.0
  0
SPLINE
  5
74
330
1F
100
AcDbEntity
  8
Layer 1
 62
   250
370
    20
100
AcDbSpline
210
0.0
220
0.0
230
1.0
 70
    11
 71
     3
 72
    47
 73
    43
 74
     0
 42
0.0000000001
 43
0.0000000001
 40
0.0
 40
0.0
 40
0.0
 40
0.0
 40
0.0714285714285714
 40
0.0714285714285714
 40
0.0714285714285714
 40
0.1428571428571428
 40
0.1428571428571428
 40
0.1428571428571428
 40
0.2142857142857143
 40
0.2142857142857143
 40
0.2142857142857143
 40
0.2857142857142857
 40
0.2857142857142857
 40
0.2857142857142857
 40
0.3571428571428571
 40
0.3571428571428571
 40
0.3571428571428571
 40
0.4285714285714285
 40
0.4285714285714285
 40
0.4285714285714285
 40
0.5
 40
0.5
 40
0.5
 40
0.5714285714285714
 40
0.5714285714285714
 40
0.5714285714285714
 40
0.6428571428571428
 40
0.6428571428571428
 40
0.6428571428571428
 40
0.7142857142857142
 40
0.7142857142857142
 40
0.7142857142857142
 40
0.7857142857142857
 40
0.7857142857142857
 40
0.7857142857142857
 40
0.8571428571428571
 40
0.8571428571428571
 40
0.8571428571428571
 40
0.9285714285714285
 40
0.9285714285714285
 40
0.9285714285714285
 40
1.0
 40
1.0
 40
1.0
 40
1.0
 10
148.2314
 20
-71.2035
 30
0.0
 10
158.7701
 20
-80.6619
 30
0.0
 10
168.1589
 20
-91.2426
 30
0.0
 10
176.4807
 20
-102.6768
 30
0.0
 10
161.427
 20
-98.1663
 30
0.0
 10
145.6634
 20
-96.396
 30
0.0
 10
129.8036
 20
-97.4509
 30
0.0
 10
104.4533
 20
-99.1369
 30
0.0
 10
79.9242
 20
-107.9492
 30
0.0
 10
58.7639
 20
-122.4073
 30
0.0
 10
21.6923
 20
-147.7373
 30
0.0
 10
-1.8835
 20
-187.756
 30
0.0
 10
-8.881
 20
-232.8659
 30
0.0
 10
-8.881
 20
-232.8659
 30
0.0
 10
-8.9803
 20
-233.506
 30
0.0
 10
-8.9803
 20
-233.506
 30
0.0
 10
-9.1795
 20
-234.7897
 30
0.0
 10
-9.2629
 20
-236.057
 30
0.0
 10
-9.2336
 20
-237.3567
 30
0.0
 10
-9.2336
 20
-237.3567
 30
0.0
 10
-9.2171
 20
-238.0871
 30
0.0
 10
-9.2171
 20
-238.0871
 30
0.0
 10
-8.296
 20
-278.9869
 30
0.0
 10
-24.3607
 20
-318.1196
 30
0.0
 10
-57.3121
 20
-341.9006
 30
0.0
 10
-70.2784
 20
-351.2584
 30
0.0
 10
-85.2599
 20
-357.6744
 30
0.0
 10
-100.9461
 20
-360.0003
 30
0.0
 10
-115.9639
 20
-362.2272
 30
0.0
 10
-131.201
 20
-360.6315
 30
0.0
 10
-145.3179
 20
-354.8049
 30
0.0
 10
-182.3135
 20
-339.5353
 30
0.0
 10
-201.6539
 20
-300.28
 30
0.0
 10
-210.5068
 20
-262.3112
 30
0.0
 10
-207.4299
 20
-209.35
 30
0.0
 10
-195.0062
 20
-157.0488
 30
0.0
 10
-162.8204
 20
-114.5218
 30
0.0
 10
-124.8862
 20
-64.3996
 30
0.0
 10
-67.0393
 20
-37.8761
 30
0.0
 10
-8.5915
 20
-23.0205
 30
0.0
 10
48.4662
 20
-19.228
 30
0.0
 10
104.2215
 20
-31.7052
 30
0.0
 10
148.2314
 20
-71.2035
 30
0.0
  0
SPLINE
  5
75
330
1F
100
AcDbEntity
  8
Layer 1
 62
   250
370
    20
100
AcDbSpline
210
0.0
220
0.0
230
1.0
 70
    11
 71
     3
 72
    59
 73
    55
 74
     0
 42
0.0000000001
 43
0.0000000001
 40
0.0
 40
0.0
 40
0.0
 40
0.0
 40
0.0555555555555556
 40
0.0555555555555556
 40
0.0555555555555556
 40
0.1111111111111111
 40
0.1111111111111111
 40
0.1111111111111111
 40
0.1666666666666667
 40
0.1666666666666667
 40
0.1666666666666667
 40
0.2222222222222222
 40
0.2222222222222222
 40
0.2222222222222222
 40
0.2777777777777778
 40
0.2777777777777778
 40
0.2777777777777778
 40
0.3333333333333333
 40
0.3333333333333333
 40
0.3333333333333333
 40
0.3888888888888888
 40
0.3888888888888888
 40
0.3888888888888888
 40
0.4444444444444444
 40
0.4444444444444444
 40
0.4444444444444444
 40
0.5
 40
0.5
 40
0.5
 40
0.5555555555555556
 40
0.5555555555555556
 40
0.5555555555555556
 40
0.611111111111111
 40
0.611111111111111
 40
0.611111111111111
 40
0.6666666666666666
 40
0.6666666666666666
 40
0.6666666666666666
 40
0.7222222222222222
 40
0.7222222222222222
 40
0.7222222222222222
 40
0.7777777777777777
 40
0.7777777777777777
 40
0.7777777777777777
 40
0.8333333333333333
 40
0.8333333333333333
 40
0.8333333333333333
 40
0.8888888888888888
 40
0.8888888888888888
 40
0.8888888888888888
 40
0.9444444444444444
 40
0.9444444444444444
 40
0.9444444444444444
 40
1.0
 40
1.0
 40
1.0
 40
1.0
 10
476.0357
 20
-23.0205
 30
0.0
 10
533.0933
 20
-19.228
 30
0.0
 10
588.8487
 20
-31.7052
 30
0.0
 10
632.8586
 20
-71.2036
 30
0.0
 10
643.3973
 20
-80.6619
 30
0.0
 10
652.7861
 20
-91.2426
 30
0.0
 10
661.1079
 20
-102.6767
 30
0.0
 10
646.0542
 20
-98.1663
 30
0.0
 10
630.2907
 20
-96.396
 30
0.0
 10
614.4307
 20
-97.4509
 30
0.0
 10
589.0804
 20
-99.1369
 30
0.0
 10
564.5512
 20
-107.9492
 30
0.0
 10
543.391
 20
-122.4073
 30
0.0
 10
506.3195
 20
-147.7373
 30
0.0
 10
482.7437
 20
-187.756
 30
0.0
 10
475.7462
 20
-232.8659
 30
0.0
 10
475.7462
 20
-232.8659
 30
0.0
 10
475.6469
 20
-233.506
 30
0.0
 10
475.6469
 20
-233.506
 30
0.0
 10
475.4477
 20
-234.7897
 30
0.0
 10
475.3643
 20
-236.057
 30
0.0
 10
475.3936
 20
-237.3567
 30
0.0
 10
475.3936
 20
-237.3567
 30
0.0
 10
475.41
 20
-238.0871
 30
0.0
 10
475.41
 20
-238.0871
 30
0.0
 10
476.3311
 20
-278.9868
 30
0.0
 10
460.2665
 20
-318.1197
 30
0.0
 10
427.3151
 20
-341.9006
 30
0.0
 10
414.3488
 20
-351.2584
 30
0.0
 10
399.3673
 20
-357.6744
 30
0.0
 10
383.681
 20
-360.0003
 30
0.0
 10
368.6633
 20
-362.2272
 30
0.0
 10
353.4262
 20
-360.6315
 30
0.0
 10
339.3093
 20
-354.8049
 30
0.0
 10
310.1869
 20
-342.7848
 30
0.0
 10
292.0546
 20
-315.9512
 30
0.0
 10
281.3176
 20
-286.6148
 30
0.0
 10
281.3794
 20
-285.9413
 30
0.0
 10
281.4104
 20
-285.2645
 30
0.0
 10
281.4104
 20
-284.5866
 30
0.0
 10
281.4104
 20
-284.5866
 30
0.0
 10
281.4104
 20
-223.277
 30
0.0
 10
281.4104
 20
-223.277
 30
0.0
 10
281.4104
 20
-221.9761
 30
0.0
 10
281.2985
 20
-220.7102
 30
0.0
 10
281.0702
 20
-219.4309
 30
0.0
 10
280.7199
 20
-217.4678
 30
0.0
 10
280.3569
 20
-215.5072
 30
0.0
 10
279.9821
 20
-213.5489
 30
0.0
 10
286.8544
 20
-177.5321
 30
0.0
 10
299.7665
 20
-143.6433
 30
0.0
 10
321.8067
 20
-114.5218
 30
0.0
 10
359.741
 20
-64.3996
 30
0.0
 10
417.5877
 20
-37.8761
 30
0.0
 10
476.0357
 20
-23.0205
 30
0.0
  0
SPLINE
  5
76
330
1F
100
AcDbEntity
  8
Layer 1
 62
   250
370
    20
100
AcDbSpline
210
0.0
220
0.0
230
1.0
 70
    11
 71
     3
 72
    56
 73
    52
 74
     0
 42
0.0000000001
 43
0.0000000001
 40
0.0
 40
0.0
 40
0.0
 40
0.0
 40
0.0588235294117647
 40
0.0588235294117647
 40
0.0588235294117647
 40
0.1176470588235294
 40
0.1176470588235294
 40
0.1176470588235294
 40
0.1764705882352941
 40
0.1764705882352941
 40
0.1764705882352941
 40
0.2352941176470588
 40
0.2352941176470588
 40
0.2352941176470588
 40
0.2941176470588235
 40
0.2941176470588235
 40
0.2941176470588235
 40
0.3529411764705882
 40
0.3529411764705882
 40
0.3529411764705882
 40
0.4117647058823529
 40
0.4117647058823529
 40
0.4117647058823529
 40
0.4705882352941176
 40
0.4705882352941176
 40
0.4705882352941176
 40
0.5294117647058824
 40
0.5294117647058824
 40
0.5294117647058824
 40
0.5882352941176471
 40
0.5882352941176471
 40
0.5882352941176471
 40
0.6470588235294118
 40
0.6470588235294118
 40
0.6470588235294118
 40
0.7058823529411764
 40
0.7058823529411764
 40
0.7058823529411764
 40
0.7647058823529411
 40
0.7647058823529411
 40
0.7647058823529411
 40
0.8235294117647058
 40
0.8235294117647058
 40
0.8235294117647058
 40
0.8823529411764706
 40
0.8823529411764706
 40
0.8823529411764706
 40
0.9411764705882353
 40
0.9411764705882353
 40
0.9411764705882353
 40
1.0
 40
1.0
 40
1.0
 40
1.0
 10
808.2439
 20
-114.5218
 30
0.0
 10
846.1781
 20
-64.3996
 30
0.0
 10
904.0248
 20
-37.8761
 30
0.0
 10
962.4728
 20
-23.0205
 30
0.0
 10
1019.5304
 20
-19.228
 30
0.0
 10
1075.2857
 20
-31.7052
 30
0.0
 10
1119.2957
 20
-71.2035
 30
0.0
 10
1129.8344
 20
-80.6619
 30
0.0
 10
1139.2231
 20
-91.2426
 30
0.0
 10
1147.5449
 20
-102.6767
 30
0.0
 10
1132.4913
 20
-98.1663
 30
0.0
 10
1116.7277
 20
-96.396
 30
0.0
 10
1100.8678
 20
-97.4509
 30
0.0
 10
1075.5175
 20
-99.1369
 30
0.0
 10
1050.9884
 20
-107.9492
 30
0.0
 10
1029.8281
 20
-122.4073
 30
0.0
 10
992.7565
 20
-147.7373
 30
0.0
 10
969.1808
 20
-187.756
 30
0.0
 10
962.1832
 20
-232.8659
 30
0.0
 10
962.1832
 20
-232.8659
 30
0.0
 10
962.084
 20
-233.506
 30
0.0
 10
962.084
 20
-233.506
 30
0.0
 10
961.8847
 20
-234.7897
 30
0.0
 10
961.8014
 20
-236.057
 30
0.0
 10
961.8307
 20
-237.3567
 30
0.0
 10
961.8307
 20
-237.3567
 30
0.0
 10
961.8471
 20
-238.0871
 30
0.0
 10
961.8471
 20
-238.0871
 30
0.0
 10
962.7682
 20
-278.9869
 30
0.0
 10
946.7036
 20
-318.1196
 30
0.0
 10
913.7522
 20
-341.9006
 30
0.0
 10
900.7859
 20
-351.2584
 30
0.0
 10
885.8043
 20
-357.6744
 30
0.0
 10
870.1181
 20
-360.0003
 30
0.0
 10
855.1003
 20
-362.2272
 30
0.0
 10
839.8633
 20
-360.6315
 30
0.0
 10
825.7464
 20
-354.8049
 30
0.0
 10
794.9956
 20
-342.1128
 30
0.0
 10
776.502
 20
-312.8993
 30
0.0
 10
766.0375
 20
-281.7175
 30
0.0
 10
766.0375
 20
-281.7175
 30
0.0
 10
766.0375
 20
-223.277
 30
0.0
 10
766.0375
 20
-223.277
 30
0.0
 10
766.0375
 20
-221.9764
 30
0.0
 10
765.9256
 20
-220.711
 30
0.0
 10
765.6974
 20
-219.4318
 30
0.0
 10
765.6393
 20
-219.106
 30
0.0
 10
765.5807
 20
-218.7803
 30
0.0
 10
765.5217
 20
-218.4545
 30
0.0
 10
772.1332
 20
-180.6668
 30
0.0
 10
785.1728
 20
-145.0056
 30
0.0
 10
808.2439
 20
-114.5218
 30
0.0
  0
SPLINE
  5
77
330
1F
100
AcDbEntity
  8
Layer 1
 62
   250
370
    20
100
AcDbSpline
210
0.0
220
0.0
230
1.0
 70
    11
 71
     3
 72
    50
 73
    46
 74
     0
 42
0.0000000001
 43
0.0000000001
 40
0.0
 40
0.0
 40
0.0
 40
0.0
 40
0.0666666666666667
 40
0.0666666666666667
 40
0.0666666666666667
 40
0.1333333333333333
 40
0.1333333333333333
 40
0.1333333333333333
 40
0.2
 40
0.2
 40
0.2
 40
0.2666666666666667
 40
0.2666666666666667
 40
0.2666666666666667
 40
0.3333333333333333
 40
0.3333333333333333
 40
0.3333333333333333
 40
0.4
 40
0.4
 40
0.4
 40
0.4666666666666667
 40
0.4666666666666667
 40
0.4666666666666667
 40
0.5333333333333333
 40
0.5333333333333333
 40
0.5333333333333333
 40
0.6
 40
0.6
 40
0.6
 40
0.6666666666666666
 40
0.6666666666666666
 40
0.6666666666666666
 40
0.7333333333333333
 40
0.7333333333333333
 40
0.7333333333333333
 40
0.8
 40
0.8
 40
0.8
 40
0.8666666666666667
 40
0.8666666666666667
 40
0.8666666666666667
 40
0.9333333333333333
 40
0.9333333333333333
 40
0.9333333333333333
 40
1.0
 40
1.0
 40
1.0
 40
1.0
 10
219.0072
 20
-335.6089
 30
0.0
 10
219.4436
 20
-352.2135
 30
0.0
 10
220.725
 20
-368.8011
 30
0.0
 10
223.012
 20
-385.2449
 30
0.0
 10
210.8268
 20
-433.2539
 30
0.0
 10
190.2079
 20
-478.5191
 30
0.0
 10
153.9329
 20
-512.1778
 30
0.0
 10
108.2466
 20
-554.569
 30
0.0
 10
46.8585
 20
-569.9918
 30
0.0
 10
-13.0122
 20
-573.8612
 30
0.0
 10
-70.0172
 20
-567.0793
 30
0.0
 10
-122.7458
 20
-544.4878
 30
0.0
 10
-159.513
 20
-497.517
 30
0.0
 10
-168.2779
 20
-486.3196
 30
0.0
 10
-175.7405
 20
-474.2351
 30
0.0
 10
-182.0231
 20
-461.5077
 30
0.0
 10
-168.044
 20
-468.6341
 30
0.0
 10
-152.9212
 20
-473.2287
 30
0.0
 10
-137.2012
 20
-475.0984
 30
0.0
 10
-112.0022
 20
-478.0955
 30
0.0
 10
-86.3352
 20
-473.9385
 30
0.0
 10
-63.0669
 20
-463.5791
 30
0.0
 10
-22.2892
 20
-445.4241
 30
0.0
 10
7.5937
 20
-410.2982
 30
0.0
 10
21.9719
 20
-367.1513
 30
0.0
 10
21.9719
 20
-367.1513
 30
0.0
 10
22.1758
 20
-366.5393
 30
0.0
 10
22.1758
 20
-366.5393
 30
0.0
 10
22.5862
 20
-365.3076
 30
0.0
 10
22.8794
 20
-364.0715
 30
0.0
 10
23.0666
 20
-362.7834
 30
0.0
 10
23.0666
 20
-362.7834
 30
0.0
 10
23.1715
 20
-362.0613
 30
0.0
 10
23.1715
 20
-362.0613
 30
0.0
 10
29.047
 20
-321.638
 30
0.0
 10
51.1646
 20
-286.2092
 30
0.0
 10
87.6554
 20
-268.8063
 30
0.0
 10
101.9621
 20
-261.9833
 30
0.0
 10
117.799
 20
-258.4304
 30
0.0
 10
133.5731
 20
-259.0228
 30
0.0
 10
148.772
 20
-259.5937
 30
0.0
 10
163.5119
 20
-263.9863
 30
0.0
 10
176.4387
 20
-272.3156
 30
0.0
 10
198.6427
 20
-286.6226
 30
0.0
 10
211.9866
 20
-310.1127
 30
0.0
 10
219.0072
 20
-335.6089
 30
0.0
  0
SPLINE
  5
78
330
1F
100
AcDbEntity
  8
Layer 1
 62
   250
370
    20
100
AcDbSpline
210
0.0
220
0.0
230
1.0
 70
    11
 71
     3
 72
    32
 73
    28
 74
     0
 42
0.0000000001
 43
0.0000000001
 40
0.0
 40
0.0
 40
0.0
 40
0.0
 40
0.1111111111111111
 40
0.1111111111111111
 40
0.1111111111111111
 40
0.2222222222222222
 40
0.2222222222222222
 40
0.2222222222222222
 40
0.3333333333333333
 40
0.3333333333333333
 40
0.3333333333333333
 40
0.4444444444444444
 40
0.4444444444444444
 40
0.4444444444444444
 40
0.5555555555555556
 40
0.5555555555555556
 40
0.5555555555555556
 40
0.6666666666666666
 40
0.6666666666666666
 40
0.6666666666666666
 40
0.7777777777777777
 40
0.7777777777777777
 40
0.7777777777777777
 40
0.8888888888888888
 40
0.8888888888888888
 40
0.8888888888888888
 40
1.0
 40
1.0
 40
1.0
 40
1.0
 10
-359.907
 20
-166.5462
 30
0.0
 10
-344.4037
 20
-165.5149
 30
0.0
 10
-329.1206
 20
-168.9336
 30
0.0
 10
-315.5391
 20
-176.759
 30
0.0
 10
-288.7055
 20
-192.2202
 30
0.0
 10
-273.2773
 20
-221.6027
 30
0.0
 10
-265.1667
 20
-251.2546
 30
0.0
 10
-265.2171
 20
-251.9407
 30
0.0
 10
-265.2661
 20
-252.6271
 30
0.0
 10
-265.3136
 20
-253.3135
 30
0.0
 10
-272.1196
 20
-246.6425
 30
0.0
 10
-279.5725
 20
-240.653
 30
0.0
 10
-287.6589
 20
-235.4425
 30
0.0
 10
-308.7477
 20
-221.8537
 30
0.0
 10
-332.8192
 20
-214.5064
 30
0.0
 10
-357.6326
 20
-213.5746
 30
0.0
 10
-382.0142
 20
-212.6589
 30
0.0
 10
-406.5085
 20
-217.9912
 30
0.0
 10
-428.6361
 20
-228.5439
 30
0.0
 10
-433.7561
 20
-230.9856
 30
0.0
 10
-438.7471
 20
-233.7018
 30
0.0
 10
-443.5881
 20
-236.6763
 30
0.0
 10
-436.676
 20
-214.5424
 30
0.0
 10
-423.3027
 20
-195.2797
 30
0.0
 10
-404.0871
 20
-182.1504
 30
0.0
 10
-390.9372
 20
-173.1656
 30
0.0
 10
-375.6695
 20
-167.5948
 30
0.0
 10
-359.907
 20
-166.5462
 30
0.0
  0
SPLINE
  5
79
330
1F
100
AcDbEntity
  8
Layer 1
 62
   250
370
    20
100
AcDbSpline
210
0.0
220
0.0
230
1.0
 70
    11
 71
     3
 72
    47
 73
    43
 74
     0
 42
0.0000000001
 43
0.0000000001
 40
0.0
 40
0.0
 40
0.0
 40
0.0
 40
0.0714285714285714
 40
0.0714285714285714
 40
0.0714285714285714
 40
0.1428571428571428
 40
0.1428571428571428
 40
0.1428571428571428
 40
0.2142857142857143
 40
0.2142857142857143
 40
0.2142857142857143
 40
0.2857142857142857
 40
0.2857142857142857
 40
0.2857142857142857
 40
0.3571428571428571
 40
0.3571428571428571
 40
0.3571428571428571
 40
0.4285714285714285
 40
0.4285714285714285
 40
0.4285714285714285
 40
0.5
 40
0.5
 40
0.5
 40
0.5714285714285714
 40
0.5714285714285714
 40
0.5714285714285714
 40
0.6428571428571428
 40
0.6428571428571428
 40
0.6428571428571428
 40
0.7142857142857142
 40
0.7142857142857142
 40
0.7142857142857142
 40
0.7857142857142857
 40
0.7857142857142857
 40
0.7857142857142857
 40
0.8571428571428571
 40
0.8571428571428571
 40
0.8571428571428571
 40
0.9285714285714285
 40
0.9285714285714285
 40
0.9285714285714285
 40
1.0
 40
1.0
 40
1.0
 40
1.0
 10
-359.6666
 20
-270.8832
 30
0.0
 10
-344.4678
 20
-271.4541
 30
0.0
 10
-329.7279
 20
-275.8467
 30
0.0
 10
-316.8011
 20
-284.1759
 30
0.0
 10
-282.8901
 20
-306.0262
 30
0.0
 10
-270.3004
 20
-348.2324
 30
0.0
 10
-267.8777
 20
-387.3727
 30
0.0
 10
-279.6701
 20
-438.8366
 30
0.0
 10
-300.5424
 20
-488.0696
 30
0.0
 10
-339.3069
 20
-524.0382
 30
0.0
 10
-384.9934
 20
-566.4293
 30
0.0
 10
-446.3813
 20
-581.8523
 30
0.0
 10
-506.2521
 20
-585.7217
 30
0.0
 10
-563.2571
 20
-578.9398
 30
0.0
 10
-615.9855
 20
-556.3483
 30
0.0
 10
-652.7528
 20
-509.3775
 30
0.0
 10
-661.5177
 20
-498.1801
 30
0.0
 10
-668.9803
 20
-486.0956
 30
0.0
 10
-675.2628
 20
-473.3682
 30
0.0
 10
-661.2837
 20
-480.4945
 30
0.0
 10
-646.1609
 20
-485.0892
 30
0.0
 10
-630.441
 20
-486.9589
 30
0.0
 10
-605.2421
 20
-489.9559
 30
0.0
 10
-579.5751
 20
-485.7989
 30
0.0
 10
-556.3068
 20
-475.4395
 30
0.0
 10
-515.5286
 20
-457.2843
 30
0.0
 10
-485.6439
 20
-422.1593
 30
0.0
 10
-471.2676
 20
-379.0107
 30
0.0
 10
-471.2676
 20
-379.0107
 30
0.0
 10
-471.0637
 20
-378.3986
 30
0.0
 10
-471.0637
 20
-378.3986
 30
0.0
 10
-470.6538
 20
-377.1684
 30
0.0
 10
-470.3609
 20
-375.9337
 30
0.0
 10
-470.1737
 20
-374.6471
 30
0.0
 10
-470.1737
 20
-374.6471
 30
0.0
 10
-470.0687
 20
-373.9252
 30
0.0
 10
-470.0687
 20
-373.9252
 30
0.0
 10
-464.187
 20
-333.5048
 30
0.0
 10
-442.0759
 20
-298.0698
 30
0.0
 10
-405.5844
 20
-280.6668
 30
0.0
 10
-391.2777
 20
-273.8438
 30
0.0
 10
-375.4409
 20
-270.2907
 30
0.0
 10
-359.6666
 20
-270.8832
 30
0.0
  0
SPLINE
  5
7A
330
1F
100
AcDbEntity
  8
Layer 1
 62
   250
370
    20
100
AcDbSpline
210
0.0
220
0.0
230
1.0
 70
    11
 71
     3
 72
    47
 73
    43
 74
     0
 42
0.0000000001
 43
0.0000000001
 40
0.0
 40
0.0
 40
0.0
 40
0.0
 40
0.0714285714285714
 40
0.0714285714285714
 40
0.0714285714285714
 40
0.1428571428571428
 40
0.1428571428571428
 40
0.1428571428571428
 40
0.2142857142857143
 40
0.2142857142857143
 40
0.2142857142857143
 40
0.2857142857142857
 40
0.2857142857142857
 40
0.2857142857142857
 40
0.3571428571428571
 40
0.3571428571428571
 40
0.3571428571428571
 40
0.4285714285714285
 40
0.4285714285714285
 40
0.4285714285714285
 40
0.5
 40
0.5
 40
0.5
 40
0.5714285714285714
 40
0.5714285714285714
 40
0.5714285714285714
 40
0.6428571428571428
 40
0.6428571428571428
 40
0.6428571428571428
 40
0.7142857142857142
 40
0.7142857142857142
 40
0.7142857142857142
 40
0.7857142857142857
 40
0.7857142857142857
 40
0.7857142857142857
 40
0.8571428571428571
 40
0.8571428571428571
 40
0.8571428571428571
 40
0.9285714285714285
 40
0.9285714285714285
 40
0.9285714285714285
 40
1.0
 40
1.0
 40
1.0
 40
1.0
 10
-836.2625
 20
-87.3647
 30
0.0
 10
-825.7238
 20
-96.823
 30
0.0
 10
-816.3351
 20
-107.4037
 30
0.0
 10
-808.0133
 20
-118.8378
 30
0.0
 10
-823.0669
 20
-114.3273
 30
0.0
 10
-838.8304
 20
-112.5569
 30
0.0
 10
-854.6904
 20
-113.6118
 30
0.0
 10
-880.0407
 20
-115.2979
 30
0.0
 10
-904.5698
 20
-124.1103
 30
0.0
 10
-925.7301
 20
-138.5684
 30
0.0
 10
-962.8027
 20
-163.8991
 30
0.0
 10
-986.3847
 20
-203.9163
 30
0.0
 10
-993.3757
 20
-249.0303
 30
0.0
 10
-993.3757
 20
-249.0303
 30
0.0
 10
-993.4749
 20
-249.6704
 30
0.0
 10
-993.4749
 20
-249.6704
 30
0.0
 10
-993.6734
 20
-250.952
 30
0.0
 10
-993.7566
 20
-252.2172
 30
0.0
 10
-993.7275
 20
-253.5146
 30
0.0
 10
-993.7275
 20
-253.5146
 30
0.0
 10
-993.7112
 20
-254.2448
 30
0.0
 10
-993.7112
 20
-254.2448
 30
0.0
 10
-992.7958
 20
-295.1434
 30
0.0
 10
-1008.8541
 20
-334.2803
 30
0.0
 10
-1041.8061
 20
-358.0616
 30
0.0
 10
-1054.7724
 20
-367.4195
 30
0.0
 10
-1069.7538
 20
-373.8353
 30
0.0
 10
-1085.4401
 20
-376.1613
 30
0.0
 10
-1100.4579
 20
-378.3882
 30
0.0
 10
-1115.695
 20
-376.7925
 30
0.0
 10
-1129.8119
 20
-370.966
 30
0.0
 10
-1166.8075
 20
-355.6963
 30
0.0
 10
-1186.1479
 20
-316.4408
 30
0.0
 10
-1195.0008
 20
-278.4721
 30
0.0
 10
-1191.9238
 20
-225.5108
 30
0.0
 10
-1179.5001
 20
-173.21
 30
0.0
 10
-1147.3143
 20
-130.6829
 30
0.0
 10
-1109.3801
 20
-80.5606
 30
0.0
 10
-1051.5333
 20
-54.037
 30
0.0
 10
-993.0854
 20
-39.1814
 30
0.0
 10
-936.0276
 20
-35.3889
 30
0.0
 10
-880.2726
 20
-47.8662
 30
0.0
 10
-836.2625
 20
-87.3647
 30
0.0
  0
SPLINE
  5
7B
330
1F
100
AcDbEntity
  8
Layer 1
 62
   250
370
    20
100
AcDbSpline
210
0.0
220
0.0
230
1.0
 70
    11
 71
     3
 72
    32
 73
    28
 74
     0
 42
0.0000000001
 43
0.0000000001
 40
0.0
 40
0.0
 40
0.0
 40
0.0
 40
0.1111111111111111
 40
0.1111111111111111
 40
0.1111111111111111
 40
0.2222222222222222
 40
0.2222222222222222
 40
0.2222222222222222
 40
0.3333333333333333
 40
0.3333333333333333
 40
0.3333333333333333
 40
0.4444444444444444
 40
0.4444444444444444
 40
0.4444444444444444
 40
0.5555555555555556
 40
0.5555555555555556
 40
0.5555555555555556
 40
0.6666666666666666
 40
0.6666666666666666
 40
0.6666666666666666
 40
0.7777777777777777
 40
0.7777777777777777
 40
0.7777777777777777
 40
0.8888888888888888
 40
0.8888888888888888
 40
0.8888888888888888
 40
1.0
 40
1.0
 40
1.0
 40
1.0
 10
133.3327
 20
-154.6858
 30
0.0
 10
148.836
 20
-153.6545
 30
0.0
 10
164.1192
 20
-157.0732
 30
0.0
 10
177.7007
 20
-164.8987
 30
0.0
 10
199.2973
 20
-177.3423
 30
0.0
 10
213.5945
 20
-198.948
 30
0.0
 10
222.5084
 20
-222.2714
 30
0.0
 10
221.9193
 20
-226.5186
 30
0.0
 10
221.3949
 20
-230.7752
 30
0.0
 10
220.9318
 20
-235.0389
 30
0.0
 10
216.0804
 20
-230.8756
 30
0.0
 10
210.9577
 20
-227.0466
 30
0.0
 10
205.581
 20
-223.5822
 30
0.0
 10
184.492
 20
-209.9934
 30
0.0
 10
160.4207
 20
-202.6462
 30
0.0
 10
135.6072
 20
-201.7142
 30
0.0
 10
111.2256
 20
-200.7985
 30
0.0
 10
86.7313
 20
-206.1307
 30
0.0
 10
64.6036
 20
-216.6836
 30
0.0
 10
59.4837
 20
-219.1253
 30
0.0
 10
54.4927
 20
-221.8415
 30
0.0
 10
49.6517
 20
-224.816
 30
0.0
 10
56.5638
 20
-202.682
 30
0.0
 10
69.9371
 20
-183.4192
 30
0.0
 10
89.1526
 20
-170.2899
 30
0.0
 10
102.3025
 20
-161.305
 30
0.0
 10
117.5703
 20
-155.7344
 30
0.0
 10
133.3327
 20
-154.6858
 30
0.0
  0
SPLINE
  5
7C
330
1F
100
AcDbEntity
  8
Layer 1
 62
   250
370
    20
100
AcDbSpline
210
0.0
220
0.0
230
1.0
 70
    11
 71
     3
 72
    29
 73
    25
 74
     0
 42
0.0000000001
 43
0.0000000001
 40
0.0
 40
0.0
 40
0.0
 40
0.0
 40
0.125
 40
0.125
 40
0.125
 40
0.25
 40
0.25
 40
0.25
 40
0.375
 40
0.375
 40
0.375
 40
0.5
 40
0.5
 40
0.5
 40
0.625
 40
0.625
 40
0.625
 40
0.75
 40
0.75
 40
0.75
 40
0.875
 40
0.875
 40
0.875
 40
1.0
 40
1.0
 40
1.0
 40
1.0
 10
1060.2169
 20
-170.2899
 30
0.0
 10
1073.3668
 20
-161.305
 30
0.0
 10
1088.6346
 20
-155.7344
 30
0.0
 10
1104.397
 20
-154.6858
 30
0.0
 10
1119.9004
 20
-153.6545
 30
0.0
 10
1135.1834
 20
-157.0731
 30
0.0
 10
1148.765
 20
-164.8987
 30
0.0
 10
1176.4587
 20
-180.8553
 30
0.0
 10
1192.0125
 20
-211.6443
 30
0.0
 10
1199.9065
 20
-242.2888
 30
0.0
 10
1192.9608
 20
-235.3879
 30
0.0
 10
1185.2255
 20
-229.1109
 30
0.0
 10
1176.6452
 20
-223.5822
 30
0.0
 10
1155.5563
 20
-209.9934
 30
0.0
 10
1131.485
 20
-202.6462
 30
0.0
 10
1106.6715
 20
-201.7142
 30
0.0
 10
1082.2899
 20
-200.7985
 30
0.0
 10
1057.7956
 20
-206.1307
 30
0.0
 10
1035.668
 20
-216.6836
 30
0.0
 10
1030.548
 20
-219.1253
 30
0.0
 10
1025.5569
 20
-221.8415
 30
0.0
 10
1020.7159
 20
-224.8161
 30
0.0
 10
1027.6279
 20
-202.682
 30
0.0
 10
1041.0013
 20
-183.4192
 30
0.0
 10
1060.2169
 20
-170.2899
 30
0.0
  0
SPLINE
  5
7D
330
1F
100
AcDbEntity
  8
Layer 1
 62
   250
370
    20
100
AcDbSpline
210
0.0
220
0.0
230
1.0
 70
    11
 71
     3
 72
    47
 73
    43
 74
     0
 42
0.0000000001
 43
0.0000000001
 40
0.0
 40
0.0
 40
0.0
 40
0.0
 40
0.0714285714285714
 40
0.0714285714285714
 40
0.0714285714285714
 40
0.1428571428571428
 40
0.1428571428571428
 40
0.1428571428571428
 40
0.2142857142857143
 40
0.2142857142857143
 40
0.2142857142857143
 40
0.2857142857142857
 40
0.2857142857142857
 40
0.2857142857142857
 40
0.3571428571428571
 40
0.3571428571428571
 40
0.3571428571428571
 40
0.4285714285714285
 40
0.4285714285714285
 40
0.4285714285714285
 40
0.5
 40
0.5
 40
0.5
 40
0.5714285714285714
 40
0.5714285714285714
 40
0.5714285714285714
 40
0.6428571428571428
 40
0.6428571428571428
 40
0.6428571428571428
 40
0.7142857142857142
 40
0.7142857142857142
 40
0.7142857142857142
 40
0.7857142857142857
 40
0.7857142857142857
 40
0.7857142857142857
 40
0.8571428571428571
 40
0.8571428571428571
 40
0.8571428571428571
 40
0.9285714285714285
 40
0.9285714285714285
 40
0.9285714285714285
 40
1.0
 40
1.0
 40
1.0
 40
1.0
 10
1058.7197
 20
-268.8063
 30
0.0
 10
1073.0263
 20
-261.9833
 30
0.0
 10
1088.8632
 20
-258.4304
 30
0.0
 10
1104.6374
 20
-259.0228
 30
0.0
 10
1119.8363
 20
-259.5937
 30
0.0
 10
1134.5762
 20
-263.9863
 30
0.0
 10
1147.5029
 20
-272.3156
 30
0.0
 10
1181.414
 20
-294.1659
 30
0.0
 10
1194.0037
 20
-336.3718
 30
0.0
 10
1196.4264
 20
-375.5122
 30
0.0
 10
1184.634
 20
-426.9761
 30
0.0
 10
1163.7617
 20
-476.2092
 30
0.0
 10
1124.9972
 20
-512.1778
 30
0.0
 10
1079.3107
 20
-554.5691
 30
0.0
 10
1017.9227
 20
-569.9918
 30
0.0
 10
958.052
 20
-573.8612
 30
0.0
 10
901.047
 20
-567.0793
 30
0.0
 10
848.3185
 20
-544.4877
 30
0.0
 10
811.5512
 20
-497.517
 30
0.0
 10
802.7863
 20
-486.3196
 30
0.0
 10
795.3238
 20
-474.2351
 30
0.0
 10
789.0412
 20
-461.5076
 30
0.0
 10
803.0203
 20
-468.6341
 30
0.0
 10
818.1431
 20
-473.2287
 30
0.0
 10
833.8631
 20
-475.0984
 30
0.0
 10
859.062
 20
-478.0955
 30
0.0
 10
884.729
 20
-473.9385
 30
0.0
 10
907.9972
 20
-463.5791
 30
0.0
 10
948.7739
 20
-445.4245
 30
0.0
 10
978.6512
 20
-410.2964
 30
0.0
 10
993.035
 20
-367.1544
 30
0.0
 10
993.035
 20
-367.1544
 30
0.0
 10
993.239
 20
-366.5425
 30
0.0
 10
993.239
 20
-366.5425
 30
0.0
 10
993.65
 20
-365.3098
 30
0.0
 10
993.9434
 20
-364.0726
 30
0.0
 10
994.1308
 20
-362.7834
 30
0.0
 10
994.1308
 20
-362.7834
 30
0.0
 10
994.2358
 20
-362.0613
 30
0.0
 10
994.2358
 20
-362.0613
 30
0.0
 10
1000.1113
 20
-321.638
 30
0.0
 10
1022.2289
 20
-286.2092
 30
0.0
 10
1058.7197
 20
-268.8063
 30
0.0
  0
SPLINE
  5
7E
330
1F
100
AcDbEntity
  8
Layer 1
 62
   250
370
    20
100
AcDbSpline
210
0.0
220
0.0
230
1.0
 70
    11
 71
     3
 72
    32
 73
    28
 74
     0
 42
0.0000000001
 43
0.0000000001
 40
0.0
 40
0.0
 40
0.0
 40
0.0
 40
0.1111111111111111
 40
0.1111111111111111
 40
0.1111111111111111
 40
0.2222222222222222
 40
0.2222222222222222
 40
0.2222222222222222
 40
0.3333333333333333
 40
0.3333333333333333
 40
0.3333333333333333
 40
0.4444444444444444
 40
0.4444444444444444
 40
0.4444444444444444
 40
0.5555555555555556
 40
0.5555555555555556
 40
0.5555555555555556
 40
0.6666666666666666
 40
0.6666666666666666
 40
0.6666666666666666
 40
0.7777777777777777
 40
0.7777777777777777
 40
0.7777777777777777
 40
0.8888888888888888
 40
0.8888888888888888
 40
0.8888888888888888
 40
1.0
 40
1.0
 40
1.0
 40
1.0
 10
573.7798
 20
-170.2899
 30
0.0
 10
586.9297
 20
-161.305
 30
0.0
 10
602.1975
 20
-155.7344
 30
0.0
 10
617.9599
 20
-154.6858
 30
0.0
 10
633.4632
 20
-153.6545
 30
0.0
 10
648.7465
 20
-157.0732
 30
0.0
 10
662.3279
 20
-164.8987
 30
0.0
 10
685.0436
 20
-177.9871
 30
0.0
 10
699.6565
 20
-201.1756
 30
0.0
 10
708.4633
 20
-225.8704
 30
0.0
 10
708.0041
 20
-229.4025
 30
0.0
 10
707.5888
 20
-232.9404
 30
0.0
 10
707.2154
 20
-236.4832
 30
0.0
 10
701.8804
 20
-231.7596
 30
0.0
 10
696.204
 20
-227.4457
 30
0.0
 10
690.2081
 20
-223.5821
 30
0.0
 10
669.1192
 20
-209.9934
 30
0.0
 10
645.0477
 20
-202.6462
 30
0.0
 10
620.2343
 20
-201.7142
 30
0.0
 10
595.8527
 20
-200.7985
 30
0.0
 10
571.3584
 20
-206.1308
 30
0.0
 10
549.2308
 20
-216.6836
 30
0.0
 10
544.1109
 20
-219.1252
 30
0.0
 10
539.1199
 20
-221.8415
 30
0.0
 10
534.2788
 20
-224.816
 30
0.0
 10
541.191
 20
-202.682
 30
0.0
 10
554.5643
 20
-183.4192
 30
0.0
 10
573.7798
 20
-170.2899
 30
0.0
  0
SPLINE
  5
7F
330
1F
100
AcDbEntity
  8
Layer 1
 62
   250
370
    20
100
AcDbSpline
210
0.0
220
0.0
230
1.0
 70
    11
 71
     3
 72
    50
 73
    46
 74
     0
 42
0.0000000001
 43
0.0000000001
 40
0.0
 40
0.0
 40
0.0
 40
0.0
 40
0.0666666666666667
 40
0.0666666666666667
 40
0.0666666666666667
 40
0.1333333333333333
 40
0.1333333333333333
 40
0.1333333333333333
 40
0.2
 40
0.2
 40
0.2
 40
0.2666666666666667
 40
0.2666666666666667
 40
0.2666666666666667
 40
0.3333333333333333
 40
0.3333333333333333
 40
0.3333333333333333
 40
0.4
 40
0.4
 40
0.4
 40
0.4666666666666667
 40
0.4666666666666667
 40
0.4666666666666667
 40
0.5333333333333333
 40
0.5333333333333333
 40
0.5333333333333333
 40
0.6
 40
0.6
 40
0.6
 40
0.6666666666666666
 40
0.6666666666666666
 40
0.6666666666666666
 40
0.7333333333333333
 40
0.7333333333333333
 40
0.7333333333333333
 40
0.8
 40
0.8
 40
0.8
 40
0.8666666666666667
 40
0.8666666666666667
 40
0.8666666666666667
 40
0.9333333333333333
 40
0.9333333333333333
 40
0.9333333333333333
 40
1.0
 40
1.0
 40
1.0
 40
1.0
 10
661.0658
 20
-272.3156
 30
0.0
 10
685.8225
 20
-288.2673
 30
0.0
 10
699.4526
 20
-315.5044
 30
0.0
 10
705.7431
 20
-344.1664
 30
0.0
 10
706.2796
 20
-356.3099
 30
0.0
 10
707.2834
 20
-368.4332
 30
0.0
 10
708.8166
 20
-380.4863
 30
0.0
 10
696.8112
 20
-430.204
 30
0.0
 10
676.0531
 20
-477.3888
 30
0.0
 10
638.56
 20
-512.1778
 30
0.0
 10
592.8737
 20
-554.5691
 30
0.0
 10
531.4856
 20
-569.9918
 30
0.0
 10
471.6149
 20
-573.8612
 30
0.0
 10
414.6098
 20
-567.0793
 30
0.0
 10
361.8814
 20
-544.4877
 30
0.0
 10
325.1141
 20
-497.517
 30
0.0
 10
316.3492
 20
-486.3196
 30
0.0
 10
308.8866
 20
-474.235
 30
0.0
 10
302.604
 20
-461.5076
 30
0.0
 10
316.5831
 20
-468.634
 30
0.0
 10
331.706
 20
-473.2287
 30
0.0
 10
347.4259
 20
-475.0984
 30
0.0
 10
372.6249
 20
-478.0955
 30
0.0
 10
398.2918
 20
-473.9385
 30
0.0
 10
421.5601
 20
-463.5791
 30
0.0
 10
462.3369
 20
-445.4245
 30
0.0
 10
492.2142
 20
-410.2964
 30
0.0
 10
506.5979
 20
-367.1544
 30
0.0
 10
506.5979
 20
-367.1544
 30
0.0
 10
506.8019
 20
-366.5425
 30
0.0
 10
506.8019
 20
-366.5425
 30
0.0
 10
507.2129
 20
-365.3098
 30
0.0
 10
507.5064
 20
-364.0726
 30
0.0
 10
507.6937
 20
-362.7834
 30
0.0
 10
507.6937
 20
-362.7834
 30
0.0
 10
507.7987
 20
-362.0613
 30
0.0
 10
507.7987
 20
-362.0613
 30
0.0
 10
513.6742
 20
-321.638
 30
0.0
 10
535.7917
 20
-286.2092
 30
0.0
 10
572.2825
 20
-268.8063
 30
0.0
 10
586.5892
 20
-261.9833
 30
0.0
 10
602.4261
 20
-258.4304
 30
0.0
 10
618.2003
 20
-259.0228
 30
0.0
 10
633.3991
 20
-259.5937
 30
0.0
 10
648.1392
 20
-263.9863
 30
0.0
 10
661.0658
 20
-272.3156
 30
0.0
  0
SPLINE
  5
80
330
1F
100
AcDbEntity
  8
Layer 1
 62
   250
370
    20
100
AcDbSpline
210
0.0
220
0.0
230
1.0
 70
    11
 71
     3
 72
    32
 73
    28
 74
     0
 42
0.0000000001
 43
0.0000000001
 40
0.0
 40
0.0
 40
0.0
 40
0.0
 40
0.1111111111111111
 40
0.1111111111111111
 40
0.1111111111111111
 40
0.2222222222222222
 40
0.2222222222222222
 40
0.2222222222222222
 40
0.3333333333333333
 40
0.3333333333333333
 40
0.3333333333333333
 40
0.4444444444444444
 40
0.4444444444444444
 40
0.4444444444444444
 40
0.5555555555555556
 40
0.5555555555555556
 40
0.5555555555555556
 40
0.6666666666666666
 40
0.6666666666666666
 40
0.6666666666666666
 40
0.7777777777777777
 40
0.7777777777777777
 40
0.7777777777777777
 40
0.8888888888888888
 40
0.8888888888888888
 40
0.8888888888888888
 40
1.0
 40
1.0
 40
1.0
 40
1.0
 10
-806.7933
 20
-181.0596
 30
0.0
 10
-781.0516
 20
-195.8916
 30
0.0
 10
-765.7893
 20
-223.5734
 30
0.0
 10
-757.4509
 20
-251.9261
 30
0.0
 10
-757.595
 20
-253.4049
 30
0.0
 10
-757.7319
 20
-254.8843
 30
0.0
 10
-757.8618
 20
-256.3644
 30
0.0
 10
-764.3325
 20
-250.1781
 30
0.0
 10
-771.3588
 20
-244.6106
 30
0.0
 10
-778.9131
 20
-239.743
 30
0.0
 10
-800.002
 20
-226.1543
 30
0.0
 10
-824.0733
 20
-218.807
 30
0.0
 10
-848.8868
 20
-217.8752
 30
0.0
 10
-873.2684
 20
-216.9595
 30
0.0
 10
-897.7628
 20
-222.2916
 30
0.0
 10
-919.8903
 20
-232.8445
 30
0.0
 10
-925.0102
 20
-235.2863
 30
0.0
 10
-930.0012
 20
-238.0025
 30
0.0
 10
-934.8423
 20
-240.977
 30
0.0
 10
-927.9302
 20
-218.8431
 30
0.0
 10
-914.5569
 20
-199.5803
 30
0.0
 10
-895.3414
 20
-186.4509
 30
0.0
 10
-882.1916
 20
-177.4662
 30
0.0
 10
-866.9237
 20
-171.8954
 30
0.0
 10
-851.1613
 20
-170.8468
 30
0.0
 10
-835.658
 20
-169.8155
 30
0.0
 10
-820.3748
 20
-173.2341
 30
0.0
 10
-806.7933
 20
-181.0596
 30
0.0
  0
SPLINE
  5
81
330
1F
100
AcDbEntity
  8
Layer 1
 62
   250
370
    20
100
AcDbSpline
210
0.0
220
0.0
230
1.0
 70
    11
 71
     3
 72
    47
 73
    43
 74
     0
 42
0.0000000001
 43
0.0000000001
 40
0.0
 40
0.0
 40
0.0
 40
0.0
 40
0.0714285714285714
 40
0.0714285714285714
 40
0.0714285714285714
 40
0.1428571428571428
 40
0.1428571428571428
 40
0.1428571428571428
 40
0.2142857142857143
 40
0.2142857142857143
 40
0.2142857142857143
 40
0.2857142857142857
 40
0.2857142857142857
 40
0.2857142857142857
 40
0.3571428571428571
 40
0.3571428571428571
 40
0.3571428571428571
 40
0.4285714285714285
 40
0.4285714285714285
 40
0.4285714285714285
 40
0.5
 40
0.5
 40
0.5
 40
0.5714285714285714
 40
0.5714285714285714
 40
0.5714285714285714
 40
0.6428571428571428
 40
0.6428571428571428
 40
0.6428571428571428
 40
0.7142857142857142
 40
0.7142857142857142
 40
0.7142857142857142
 40
0.7857142857142857
 40
0.7857142857142857
 40
0.7857142857142857
 40
0.8571428571428571
 40
0.8571428571428571
 40
0.8571428571428571
 40
0.9285714285714285
 40
0.9285714285714285
 40
0.9285714285714285
 40
1.0
 40
1.0
 40
1.0
 40
1.0
 10
-808.0554
 20
-288.4765
 30
0.0
 10
-774.1444
 20
-310.3269
 30
0.0
 10
-761.5546
 20
-352.5329
 30
0.0
 10
-759.1319
 20
-391.6733
 30
0.0
 10
-770.9243
 20
-443.1371
 30
0.0
 10
-791.7966
 20
-492.3702
 30
0.0
 10
-830.5611
 20
-528.3388
 30
0.0
 10
-876.2475
 20
-570.7299
 30
0.0
 10
-937.6355
 20
-586.1528
 30
0.0
 10
-997.5062
 20
-590.0222
 30
0.0
 10
-1054.5112
 20
-583.2402
 30
0.0
 10
-1107.2398
 20
-560.6489
 30
0.0
 10
-1144.0071
 20
-513.678
 30
0.0
 10
-1152.772
 20
-502.4807
 30
0.0
 10
-1160.2345
 20
-490.3962
 30
0.0
 10
-1166.5171
 20
-477.6687
 30
0.0
 10
-1152.538
 20
-484.7951
 30
0.0
 10
-1137.4151
 20
-489.3898
 30
0.0
 10
-1121.6951
 20
-491.2595
 30
0.0
 10
-1096.4962
 20
-494.2565
 30
0.0
 10
-1070.8291
 20
-490.0995
 30
0.0
 10
-1047.561
 20
-479.74
 30
0.0
 10
-1006.7832
 20
-461.585
 30
0.0
 10
-976.9004
 20
-426.4592
 30
0.0
 10
-962.5222
 20
-383.3123
 30
0.0
 10
-962.5222
 20
-383.3123
 30
0.0
 10
-962.3182
 20
-382.7003
 30
0.0
 10
-962.3182
 20
-382.7003
 30
0.0
 10
-961.9078
 20
-381.4685
 30
0.0
 10
-961.6146
 20
-380.2323
 30
0.0
 10
-961.4273
 20
-378.944
 30
0.0
 10
-961.4273
 20
-378.944
 30
0.0
 10
-961.3223
 20
-378.2219
 30
0.0
 10
-961.3223
 20
-378.2219
 30
0.0
 10
-955.4476
 20
-337.7982
 30
0.0
 10
-933.3293
 20
-302.37
 30
0.0
 10
-896.8386
 20
-284.9673
 30
0.0
 10
-882.532
 20
-278.1444
 30
0.0
 10
-866.6951
 20
-274.5913
 30
0.0
 10
-850.9209
 20
-275.1838
 30
0.0
 10
-835.7221
 20
-275.7547
 30
0.0
 10
-820.982
 20
-280.1473
 30
0.0
 10
-808.0554
 20
-288.4765
 30
0.0
  0
ENDSEC
  0
SECTION
  2
OBJECTS
  0
DICTIONARY
  5
C
330
0
100
AcDbDictionary
281
     1
  3
ACAD_DETAILVIEWSTYLE
350
89
  3
ACAD_GROUP
350
D
  3
ACAD_LAYOUT
350
1A
  3
ACAD_MATERIAL
350
43
  3
ACAD_MLEADERSTYLE
350
5B
  3
ACAD_MLINESTYLE
350
17
  3
ACAD_PLOTSETTINGS
350
19
  3
ACAD_PLOTSTYLENAME
350
E
  3
ACAD_SCALELIST
350
47
  3
ACAD_SECTIONVIEWSTYLE
350
8A
  3
ACAD_TABLESTYLE
350
59
  3
ACAD_VISUALSTYLE
350
2A
  3
ACDB_RECOMPOSE_DATA
350
86
  3
AcDbVariableDictionary
350
82
  0
SUN
  5
5D
330
29
100
AcDbSun
 90
        1
290
     0
 63
     7
421
 16777215
 40
1.0
291
     1
 91
  2455826
 92
 54000000
292
     0
 70
     2
 71
   256
280
     1
  0
DICTIONARY
  5
89
102
{ACAD_REACTORS
330
C
102
}
330
C
100
AcDbDictionary
281
     1
  0
DICTIONARY
  5
D
102
{ACAD_REACTORS
330
C
102
}
330
C
100
AcDbDictionary
281
     1
  0
DICTIONARY
  5
1A
102
{ACAD_REACTORS
330
C
102
}
330
C
100
AcDbDictionary
281
     1
  3
Layout1
350
1E
  3
Layout2
350
26
  3
Model
350
22
  0
DICTIONARY
  5
43
102
{ACAD_REACTORS
330
C
102
}
330
C
100
AcDbDictionary
281
     1
  3
ByBlock
350
45
  3
ByLayer
350
44
  3
Global
350
46
  0
DICTIONARY
  5
5B
102
{ACAD_REACTORS
330
C
102
}
330
C
100
AcDbDictionary
281
     1
  3
Standard
350
5C
  0
DICTIONARY
  5
17
102
{ACAD_REACTORS
330
C
102
}
330
C
100
AcDbDictionary
281
     1
  3
Standard
350
18
  0
DICTIONARY
  5
19
102
{ACAD_REACTORS
330
C
102
}
330
C
100
AcDbDictionary
281
     1
  0
ACDBDICTIONARYWDFLT
  5
E
102
{ACAD_REACTORS
330
C
102
}
330
C
100
AcDbDictionary
281
     1
  3
Normal
350
F
100
AcDbDictionaryWithDefault
340
F
  0
DICTIONARY
  5
47
102
{ACAD_REACTORS
330
C
102
}
330
C
100
AcDbDictionary
281
     1
  3
A0
350
48
  3
A1
350
49
  3
A2
350
4A
  3
A3
350
4B
  3
A4
350
4C
  3
A5
350
4D
  3
A6
350
4E
  3
A7
350
4F
  3
A8
350
50
  3
A9
350
51
  3
B1
350
52
  3
B2
350
53
  3
B3
350
54
  3
B4
350
55
  3
B5
350
56
  3
B6
350
57
  3
B7
350
58
  0
DICTIONARY
  5
8A
102
{ACAD_REACTORS
330
C
102
}
330
C
100
AcDbDictionary
281
     1
  0
DICTIONARY
  5
59
102
{ACAD_REACTORS
330
C
102
}
330
C
100
AcDbDictionary
281
     1
  3
Standard
350
5A
  0
DICTIONARY
  5
2A
102
{ACAD_REACTORS
330
C
102
}
330
C
100
AcDbDictionary
281
     1
  3
2dWireframe
350
2F
  3
Basic
350
32
  3
Brighten
350
36
  3
ColorChange
350
3A
  3
Conceptual
350
34
  3
Dim
350
35
  3
EdgeColorOff
350
3D
  3
Facepattern
350
39
  3
Flat
350
2B
  3
FlatWithEdges
350
2C
  3
Gouraud
350
2D
  3
GouraudWithEdges
350
2E
  3
Hidden
350
31
  3
JitterOff
350
3B
  3
Linepattern
350
38
  3
OverhangOff
350
3C
  3
Realistic
350
33
  3
Shaded
350
42
  3
Shaded with edges
350
41
  3
Shades of Gray
350
3E
  3
Sketchy
350
3F
  3
Thicken
350
37
  3
Wireframe
350
30
  3
X-Ray
350
40
  0
XRECORD
  5
86
102
{ACAD_REACTORS
330
C
102
}
330
C
100
AcDbXrecord
280
     1
 90
        1
330
5A
  0
DICTIONARY
  5
82
102
{ACAD_REACTORS
330
C
102
}
330
C
100
AcDbDictionary
281
     1
  3
CANNOSCALE
350
83
  3
CMLEADERSTYLE
350
88
  3
CTABLESTYLE
350
87
  0
LAYOUT
  5
1E
102
{ACAD_REACTORS
330
1A
102
}
330
1A
100
AcDbPlotSettings
  1

  2
none_device
  4

  6

 40
0.0
 41
0.0
 42
0.0
 43
0.0
 44
0.0
 45
0.0
 46
0.0
 47
0.0
 48
0.0
 49
0.0
140
0.0
141
0.0
142
1.0
143
1.0
 70
   688
 72
     0
 73
     0
 74
     5
  7

 75
    16
 76
     0
 77
     2
 78
   300
147
1.0
148
0.0
149
0.0
100
AcDbLayout
  1
Layout1
 70
     1
 71
     1
 10
0.0
 20
0.0
 11
12.0
 21
9.0
 12
0.0
 22
0.0
 32
0.0
 14
1.000000000000000E+20
 24
1.000000000000000E+20
 34
1.000000000000000E+20
 15
-1.000000000000000E+20
 25
-1.000000000000000E+20
 35
-1.000000000000000E+20
146
0.0
 13
0.0
 23
0.0
 33
0.0
 16
1.0
 26
0.0
 36
0.0
 17
0.0
 27
1.0
 37
0.0
 76
     0
330
1B
  0
LAYOUT
  5
26
102
{ACAD_REACTORS
330
1A
102
}
330
1A
100
AcDbPlotSettings
  1

  2
none_device
  4

  6

 40
0.0
 41
0.0
 42
0.0
 43
0.0
 44
0.0
 45
0.0
 46
0.0
 47
0.0
 48
0.0
 49
0.0
140
0.0
141
0.0
142
1.0
143
1.0
 70
   688
 72
     0
 73
     0
 74
     5
  7

 75
    16
 76
     0
 77
     2
 78
   300
147
1.0
148
0.0
149
0.0
100
AcDbLayout
  1
Layout2
 70
     1
 71
     2
 10
0.0
 20
0.0
 11
0.0
 21
0.0
 12
0.0
 22
0.0
 32
0.0
 14
0.0
 24
0.0
 34
0.0
 15
0.0
 25
0.0
 35
0.0
146
0.0
 13
0.0
 23
0.0
 33
0.0
 16
1.0
 26
0.0
 36
0.0
 17
0.0
 27
1.0
 37
0.0
 76
     0
330
23
  0
LAYOUT
  5
22
102
{ACAD_REACTORS
330
1A
102
}
330
1A
100
AcDbPlotSettings
  1

  2
none_device
  4
Letter_(8.50_x_11.00_Inches)
  6

 40
6.35
 41
6.35
 42
6.35000508
 43
6.35000508
 44
215.9
 45
279.4
 46
0.0
 47
0.0
 48
0.0
 49
0.0
140
0.0
141
0.0
142
1.0
143
1.0
 70
  1712
 72
     0
 73
     0
 74
     0
  7

 75
     0
 76
     0
 77
     2
 78
   300
147
1.0
148
0.0
149
0.0
100
AcDbLayout
  1
Model
 70
     1
 71
     0
 10
0.0
 20
0.0
 11
12.0
 21
9.0
 12
0.0
 22
0.0
 32
0.0
 14
-1200.1941
 24
-590.1226
 34
0.0
 15
1200.094
 25
590.0694
 35
0.0
146
0.0
 13
0.0
 23
0.0
 33
0.0
 16
1.0
 26
0.0
 36
0.0
 17
0.0
 27
1.0
 37
0.0
 76
     0
330
1F
331
29
  0
MATERIAL
  5
45
102
{ACAD_REACTORS
330
43
102
}
330
43
100
AcDbMaterial
  1
ByBlock
 72
     1
 94
      127
  0
MATERIAL
  5
44
102
{ACAD_REACTORS
330
43
102
}
330
43
100
AcDbMaterial
  1
ByLayer
 72
     1
 94
      127
  0
MATERIAL
  5
46
102
{ACAD_REACTORS
330
43
102
}
330
43
100
AcDbMaterial
  1
Global
 72
     1
 94
      127
  0
MLEADERSTYLE
  5
5C
102
{ACAD_REACTORS
330
5B
102
}
330
5B
100
AcDbMLeaderStyle
179
     2
170
     2
171
     1
172
     0
 90
        2
 40
0.0
 41
0.0
173
     1
 91
-1056964608
340
14
 92
       -2
290
     1
 42
0.09
291
     1
 43
0.36
  3
Standard
341
0
 44
0.18
300

342
11
174
     1
178
     6
175
     1
176
     0
 93
-1056964608
 45
0.18
292
     0
297
     0
 46
0.18
343
0
 94
-1056964608
 47
1.0
 49
1.0
140
1.0
293
     1
141
0.0
294
     1
177
     0
142
1.0
295
     0
296
     0
143
0.125
271
     0
272
     9
273
     9
298
     0
  0
MLINESTYLE
  5
18
102
{ACAD_REACTORS
330
17
102
}
330
17
100
AcDbMlineStyle
  2
Standard
 70
     0
  3

 62
   256
 51
90.0
 52
90.0
 71
     2
 49
0.5
 62
   256
  6
BYLAYER
 49
-0.5
 62
   256
  6
BYLAYER
  0
ACDBPLACEHOLDER
  5
F
102
{ACAD_REACTORS
330
E
102
}
330
E
  0
SCALE
  5
48
102
{ACAD_REACTORS
330
47
102
}
330
47
100
AcDbScale
 70
     0
300
1:1
140
1.0
141
1.0
290
     1
  0
SCALE
  5
49
102
{ACAD_REACTORS
330
47
102
}
330
47
100
AcDbScale
 70
     0
300
1/128" = 1'-0"
140
0.0078125
141
12.0
290
     0
  0
SCALE
  5
4A
102
{ACAD_REACTORS
330
47
102
}
330
47
100
AcDbScale
 70
     0
300
1/64" = 1'-0"
140
0.015625
141
12.0
290
     0
  0
SCALE
  5
4B
102
{ACAD_REACTORS
330
47
102
}
330
47
100
AcDbScale
 70
     0
300
1/32" = 1'-0"
140
0.03125
141
12.0
290
     0
  0
SCALE
  5
4C
102
{ACAD_REACTORS
330
47
102
}
330
47
100
AcDbScale
 70
     0
300
1/16" = 1'-0"
140
0.0625
141
12.0
290
     0
  0
SCALE
  5
4D
102
{ACAD_REACTORS
330
47
102
}
330
47
100
AcDbScale
 70
     0
300
3/32" = 1'-0"
140
0.09375
141
12.0
290
     0
  0
SCALE
  5
4E
102
{ACAD_REACTORS
330
47
102
}
330
47
100
AcDbScale
 70
     0
300
1/8" = 1'-0"
140
0.125
141
12.0
290
     0
  0
SCALE
  5
4F
102
{ACAD_REACTORS
330
47
102
}
330
47
100
AcDbScale
 70
     0
300
3/16" = 1'-0"
140
0.1875
141
12.0
290
     0
  0
SCALE
  5
50
102
{ACAD_REACTORS
330
47
102
}
330
47
100
AcDbScale
 70
     0
300
1/4" = 1'-0"
140
0.25
141
12.0
290
     0
  0
SCALE
  5
51
102
{ACAD_REACTORS
330
47
102
}
330
47
100
AcDbScale
 70
     0
300
3/8" = 1'-0"
140
0.375
141
12.0
290
     0
  0
SCALE
  5
52
102
{ACAD_REACTORS
330
47
102
}
330
47
100
AcDbScale
 70
     0
300
1/2" = 1'-0"
140
0.5
141
12.0
290
     0
  0
SCALE
  5
53
102
{ACAD_REACTORS
330
47
102
}
330
47
100
AcDbScale
 70
     0
300
3/4" = 1'-0"
140
0.75
141
12.0
290
     0
  0
SCALE
  5
54
102
{ACAD_REACTORS
330
47
102
}
330
47
100
AcDbScale
 70
     0
300
1" = 1'-0"
140
1.0
141
12.0
290
     0
  0
SCALE
  5
55
102
{ACAD_REACTORS
330
47
102
}
330
47
100
AcDbScale
 70
     0
300
1-1/2" = 1'-0"
140
1.5
141
12.0
290
     0
  0
SCALE
  5
56
102
{ACAD_REACTORS
330
47
102
}
330
47
100
AcDbScale
 70
     0
300
3" = 1'-0"
140
3.0
141
12.0
290
     0
  0
SCALE
  5
57
102
{ACAD_REACTORS
330
47
102
}
330
47
100
AcDbScale
 70
     0
300
6" = 1'-0"
140
6.0
141
12.0
290
     0
  0
SCALE
  5
58
102
{ACAD_REACTORS
330
47
102
}
330
47
100
AcDbScale
 70
     0
300
1'-0" = 1'-0"
140
12.0
141
12.0
290
     0
  0
TABLESTYLE
  5
5A
102
{ACAD_REACTORS
330
59
102
}
102
{ACAD_XDICTIONARY
360
84
102
}
330
59
100
AcDbTableStyle
  3
Standard
 70
     0
 71
     0
 40
0.06
 41
0.06
280
     0
281
     0
  7
Standard
140
0.18
170
     2
 62
     0
 63
   257
283
     0
 90
        4
 91
        0
  1

274
    -2
284
     1
 64
     0
275
    -2
285
     1
 65
     0
276
    -2
286
     1
 66
     0
277
    -2
287
     1
 67
     0
278
    -2
288
     1
 68
     0
279
    -2
289
     1
 69
     0
  7
Standard
140
0.25
170
     5
 62
     0
 63
   257
283
     0
 90
        4
 91
        0
  1

274
    -2
284
     1
 64
     0
275
    -2
285
     1
 65
     0
276
    -2
286
     1
 66
     0
277
    -2
287
     1
 67
     0
278
    -2
288
     1
 68
     0
279
    -2
289
     1
 69
     0
  7
Standard
140
0.18
170
     5
 62
     0
 63
   257
283
     0
 90
        4
 91
        0
  1

274
    -2
284
     1
 64
     0
275
    -2
285
     1
 65
     0
276
    -2
286
     1
 66
     0
277
    -2
287
     1
 67
     0
278
    -2
288
     1
 68
     0
279
    -2
289
     1
 69
     0
  0
VISUALSTYLE
  5
2F
102
{ACAD_REACTORS
330
2A
102
}
330
2A
100
AcDbVisualStyle
  2
2dWireframe
 70
     4
177
     3
291
     0
 70
    58
 90
        0
176
     1
 90
        2
176
     1
 90
        0
176
     1
 90
        0
176
     1
 40
0.6
176
     1
 40
30.0
176
     1
 62
     7
420
 16777215
176
     1
 90
        1
176
     1
 90
        4
176
     1
 62
     7
176
     1
 62
   257
176
     1
 90
        1
176
     1
 90
        1
176
     1
 40
1.0
176
     1
 90
        0
176
     1
 62
   257
176
     1
 40
1.0
176
     1
 90
        1
176
     1
 90
        6
176
     1
 90
        2
176
     1
 62
     7
176
     1
 90
        5
176
     1
 90
        0
176
     1
 90
        0
176
     1
290
     0
176
     1
 90
        1
176
     1
 40
0.0
176
     1
 90
        0
176
     1
290
     1
176
     1
290
     1
176
     1
290
     0
176
     1
290
     0
176
     1
290
     0
176
     1
290
     0
176
     1
290
     0
176
     1
290
     0
176
     1
290
     0
176
     1
 90
       50
176
     1
 40
0.0
176
     1
 40
1.0
176
     1
 90
        0
176
     1
 62
    18
420
        0
176
     1
 90
       50
176
     1
 90
        3
176
     1
 62
     5
420
      255
176
     1
290
     0
176
     1
 90
       50
176
     1
 90
       50
176
     1
 90
       50
176
     1
290
     0
176
     1
 90
       50
176
     1
 62
   256
176
     0
 40
1.0
176
     0
 90
        2
176
     1
  1
strokes_ogs.tif
176
     1
290
     0
176
     1
 40
1.0
176
     1
 40
1.0
176
     1
  0
VISUALSTYLE
  5
32
102
{ACAD_REACTORS
330
2A
102
}
330
2A
100
AcDbVisualStyle
  2
Basic
 70
     7
177
     3
291
     1
 70
    58
 90
        1
176
     1
 90
        0
176
     1
 90
        1
176
     1
 90
        0
176
     1
 40
0.6
176
     1
 40
30.0
176
     1
 62
     7
420
 16777215
176
     1
 90
        0
176
     1
 90
        4
176
     1
 62
     7
176
     1
 62
   257
176
     1
 90
        1
176
     1
 90
        1
176
     1
 40
1.0
176
     1
 90
        8
176
     1
 62
     7
176
     1
 40
1.0
176
     1
 90
        1
176
     1
 90
        6
176
     1
 90
        2
176
     1
 62
     7
176
     1
 90
        5
176
     1
 90
        0
176
     1
 90
        0
176
     1
290
     0
176
     1
 90
        1
176
     1
 40
0.0
176
     1
 90
        0
176
     1
290
     0
176
     1
290
     1
176
     1
290
     1
176
     1
290
     0
176
     1
290
     0
176
     1
290
     0
176
     1
290
     0
176
     1
290
     0
176
     1
290
     0
176
     1
 90
       50
176
     1
 40
0.0
176
     1
 40
1.0
176
     1
 90
        0
176
     1
 62
    18
420
        0
176
     1
 90
       50
176
     1
 90
        3
176
     1
 62
     5
420
      255
176
     1
290
     0
176
     1
 90
       50
176
     1
 90
       50
176
     1
 90
       50
176
     1
290
     0
176
     1
 90
       50
176
     1
 62
   256
176
     0
 40
1.0
176
     0
 90
        2
176
     1
  1
strokes_ogs.tif
176
     1
290
     0
176
     1
 40
1.0
176
     1
 40
1.0
176
     1
  0
VISUALSTYLE
  5
36
102
{ACAD_REACTORS
330
2A
102
}
330
2A
100
AcDbVisualStyle
  2
Brighten
 70
    12
177
     3
291
     1
 70
    58
 90
        2
176
     1
 90
        2
176
     1
 90
        0
176
     1
 90
        0
176
     1
 40
0.6
176
     1
 40
30.0
176
     1
 62
     7
420
 16777215
176
     1
 90
        1
176
     1
 90
        4
176
     1
 62
     7
176
     1
 62
   257
176
     1
 90
        1
176
     1
 90
        1
176
     1
 40
1.0
176
     1
 90
        8
176
     1
 62
     7
176
     1
 40
1.0
176
     1
 90
        1
176
     1
 90
        6
176
     1
 90
        2
176
     1
 62
     7
176
     1
 90
        5
176
     1
 90
        0
176
     1
 90
        0
176
     1
290
     0
176
     1
 90
        1
176
     1
 40
50.0
176
     1
 90
        0
176
     1
290
     0
176
     1
290
     1
176
     1
290
     1
176
     1
290
     0
176
     1
290
     0
176
     1
290
     0
176
     1
290
     0
176
     1
290
     0
176
     1
290
     0
176
     1
 90
       50
176
     1
 40
0.0
176
     1
 40
1.0
176
     1
 90
        0
176
     1
 62
    18
420
        0
176
     1
 90
       50
176
     1
 90
        3
176
     1
 62
     5
420
      255
176
     1
290
     0
176
     1
 90
       50
176
     1
 90
       50
176
     1
 90
       50
176
     1
290
     0
176
     1
 90
       50
176
     1
 62
   256
176
     0
 40
1.0
176
     0
 90
        2
176
     1
  1
strokes_ogs.tif
176
     1
290
     0
176
     1
 40
1.0
176
     1
 40
1.0
176
     1
  0
VISUALSTYLE
  5
3A
102
{ACAD_REACTORS
330
2A
102
}
330
2A
100
AcDbVisualStyle
  2
ColorChange
 70
    16
177
     3
291
     1
 70
    58
 90
        2
176
     1
 90
        2
176
     1
 90
        3
176
     1
 90
        0
176
     1
 40
0.6
176
     1
 40
30.0
176
     1
 62
     8
420
  8421504
176
     1
 90
        1
176
     1
 90
        4
176
     1
 62
     7
176
     1
 62
   257
176
     1
 90
        1
176
     1
 90
        1
176
     1
 40
1.0
176
     1
 90
        8
176
     1
 62
     8
420
  8421504
176
     1
 40
1.0
176
     1
 90
        1
176
     1
 90
        6
176
     1
 90
        2
176
     1
 62
     7
176
     1
 90
        5
176
     1
 90
        0
176
     1
 90
        0
176
     1
290
     0
176
     1
 90
        1
176
     1
 40
0.0
176
     1
 90
        0
176
     1
290
     0
176
     1
290
     1
176
     1
290
     1
176
     1
290
     0
176
     1
290
     0
176
     1
290
     0
176
     1
290
     0
176
     1
290
     0
176
     1
290
     0
176
     1
 90
       50
176
     1
 40
0.0
176
     1
 40
1.0
176
     1
 90
        0
176
     1
 62
    18
420
        0
176
     1
 90
       50
176
     1
 90
        3
176
     1
 62
     5
420
      255
176
     1
290
     0
176
     1
 90
       50
176
     1
 90
       50
176
     1
 90
       50
176
     1
290
     0
176
     1
 90
       50
176
     1
 62
   256
176
     0
 40
1.0
176
     0
 90
        2
176
     1
  1
strokes_ogs.tif
176
     1
290
     0
176
     1
 40
1.0
176
     1
 40
1.0
176
     1
  0
VISUALSTYLE
  5
34
102
{ACAD_REACTORS
330
2A
102
}
330
2A
100
AcDbVisualStyle
  2
Conceptual
 70
     9
177
     3
291
     0
 70
    58
 90
        3
176
     1
 90
        2
176
     1
 90
        0
176
     1
 90
        0
176
     1
 40
0.6
176
     1
 40
30.0
176
     1
 62
     7
420
 16777215
176
     1
 90
        2
176
     1
 90
        2
176
     1
 62
     7
176
     1
 62
   257
176
     1
 90
        1
176
     1
 90
        1
176
     1
 40
179.0
176
     1
 90
        8
176
     1
 62
     7
176
     1
 40
1.0
176
     1
 90
        1
176
     1
 90
        6
176
     1
 90
        2
176
     1
 62
     7
176
     1
 90
        3
176
     1
 90
        0
176
     1
 90
        0
176
     1
290
     0
176
     1
 90
        1
176
     1
 40
0.0
176
     1
 90
        0
176
     1
290
     0
176
     1
290
     1
176
     1
290
     1
176
     1
290
     0
176
     1
290
     0
176
     1
290
     0
176
     1
290
     0
176
     1
290
     0
176
     1
290
     0
176
     1
 90
       50
176
     1
 40
0.0
176
     1
 40
1.0
176
     1
 90
        0
176
     1
 62
    18
420
        0
176
     1
 90
       50
176
     1
 90
        3
176
     1
 62
     5
420
      255
176
     1
290
     0
176
     1
 90
       50
176
     1
 90
       50
176
     1
 90
       50
176
     1
290
     0
176
     1
 90
       50
176
     1
 62
   256
176
     0
 40
1.0
176
     0
 90
        2
176
     1
  1
strokes_ogs.tif
176
     1
290
     0
176
     1
 40
1.0
176
     1
 40
1.0
176
     1
  0
VISUALSTYLE
  5
35
102
{ACAD_REACTORS
330
2A
102
}
330
2A
100
AcDbVisualStyle
  2
Dim
 70
    11
177
     3
291
     1
 70
    58
 90
        2
176
     1
 90
        2
176
     1
 90
        0
176
     1
 90
        0
176
     1
 40
0.6
176
     1
 40
30.0
176
     1
 62
     7
420
 16777215
176
     1
 90
        1
176
     1
 90
        4
176
     1
 62
     7
176
     1
 62
   257
176
     1
 90
        1
176
     1
 90
        1
176
     1
 40
1.0
176
     1
 90
        8
176
     1
 62
     7
176
     1
 40
1.0
176
     1
 90
        1
176
     1
 90
        6
176
     1
 90
        2
176
     1
 62
     7
176
     1
 90
        5
176
     1
 90
        0
176
     1
 90
        0
176
     1
290
     0
176
     1
 90
        1
176
     1
 40
-50.0
176
     1
 90
        0
176
     1
290
     0
176
     1
290
     1
176
     1
290
     1
176
     1
290
     0
176
     1
290
     0
176
     1
290
     0
176
     1
290
     0
176
     1
290
     0
176
     1
290
     0
176
     1
 90
       50
176
     1
 40
0.0
176
     1
 40
1.0
176
     1
 90
        0
176
     1
 62
    18
420
        0
176
     1
 90
       50
176
     1
 90
        3
176
     1
 62
     5
420
      255
176
     1
290
     0
176
     1
 90
       50
176
     1
 90
       50
176
     1
 90
       50
176
     1
290
     0
176
     1
 90
       50
176
     1
 62
   256
176
     0
 40
1.0
176
     0
 90
        2
176
     1
  1
strokes_ogs.tif
176
     1
290
     0
176
     1
 40
1.0
176
     1
 40
1.0
176
     1
  0
VISUALSTYLE
  5
3D
102
{ACAD_REACTORS
330
2A
102
}
330
2A
100
AcDbVisualStyle
  2
EdgeColorOff
 70
    22
177
     3
291
     1
 70
    58
 90
        2
176
     0
 90
        2
176
     0
 90
        0
176
     0
 90
        0
176
     0
 40
0.6
176
     0
 40
30.0
176
     0
 62
     7
420
 16777215
176
     0
 90
        1
176
     0
 90
        4
176
     0
 62
     7
176
     0
 62
   257
176
     0
 90
        1
176
     0
 90
        1
176
     0
 40
1.0
176
     0
 90
        8
176
     2
 62
     7
176
     0
 40
1.0
176
     0
 90
        1
176
     0
 90
        6
176
     0
 90
        2
176
     0
 62
     7
176
     0
 90
        5
176
     0
 90
        0
176
     0
 90
        0
176
     0
290
     0
176
     0
 90
        1
176
     0
 40
0.0
176
     0
 90
        0
176
     0
290
     0
176
     0
290
     1
176
     0
290
     1
176
     0
290
     0
176
     0
290
     0
176
     0
290
     0
176
     0
290
     0
176
     0
290
     0
176
     0
290
     0
176
     0
 90
       50
176
     0
 40
0.0
176
     0
 40
1.0
176
     0
 90
        0
176
     0
 62
    18
420
        0
176
     0
 90
       50
176
     0
 90
        3
176
     0
 62
     5
420
      255
176
     0
290
     0
176
     0
 90
       50
176
     0
 90
       50
176
     0
 90
       50
176
     0
290
     0
176
     0
 90
       50
176
     0
 62
   256
176
     0
 40
1.0
176
     0
 90
        2
176
     0
  1
strokes_ogs.tif
176
     0
290
     0
176
     0
 40
1.0
176
     0
 40
1.0
176
     0
  0
VISUALSTYLE
  5
39
102
{ACAD_REACTORS
330
2A
102
}
330
2A
100
AcDbVisualStyle
  2
Facepattern
 70
    15
177
     3
291
     1
 70
    58
 90
        2
176
     1
 90
        2
176
     1
 90
        0
176
     1
 90
        0
176
     1
 40
0.6
176
     1
 40
30.0
176
     1
 62
     7
420
 16777215
176
     1
 90
        1
176
     1
 90
        4
176
     1
 62
     7
176
     1
 62
   257
176
     1
 90
        1
176
     1
 90
        1
176
     1
 40
1.0
176
     1
 90
        8
176
     1
 62
     7
176
     1
 40
1.0
176
     1
 90
        1
176
     1
 90
        6
176
     1
 90
        2
176
     1
 62
     7
176
     1
 90
        5
176
     1
 90
        0
176
     1
 90
        0
176
     1
290
     0
176
     1
 90
        1
176
     1
 40
0.0
176
     1
 90
        0
176
     1
290
     0
176
     1
290
     1
176
     1
290
     1
176
     1
290
     0
176
     1
290
     0
176
     1
290
     0
176
     1
290
     0
176
     1
290
     0
176
     1
290
     0
176
     1
 90
       50
176
     1
 40
0.0
176
     1
 40
1.0
176
     1
 90
        0
176
     1
 62
    18
420
        0
176
     1
 90
       50
176
     1
 90
        3
176
     1
 62
     5
420
      255
176
     1
290
     0
176
     1
 90
       50
176
     1
 90
       50
176
     1
 90
       50
176
     1
290
     0
176
     1
 90
       50
176
     1
 62
   256
176
     0
 40
1.0
176
     0
 90
        2
176
     1
  1
strokes_ogs.tif
176
     1
290
     0
176
     1
 40
1.0
176
     1
 40
1.0
176
     1
  0
VISUALSTYLE
  5
2B
102
{ACAD_REACTORS
330
2A
102
}
330
2A
100
AcDbVisualStyle
  2
Flat
 70
     0
177
     3
291
     1
 70
    58
 90
        2
176
     1
 90
        1
176
     1
 90
        1
176
     1
 90
        2
176
     1
 40
0.6
176
     1
 40
30.0
176
     1
 62
     7
420
 16777215
176
     1
 90
        0
176
     1
 90
        0
176
     1
 62
     7
176
     1
 62
   257
176
     1
 90
        1
176
     1
 90
        1
176
     1
 40
1.0
176
     1
 90
        8
176
     1
 62
     7
176
     1
 40
1.0
176
     1
 90
        1
176
     1
 90
        6
176
     1
 90
        2
176
     1
 62
     7
176
     1
 90
        5
176
     1
 90
        0
176
     1
 90
        0
176
     1
290
     0
176
     1
 90
       13
176
     1
 40
0.0
176
     1
 90
        0
176
     1
290
     0
176
     1
290
     1
176
     1
290
     1
176
     1
290
     0
176
     1
290
     0
176
     1
290
     0
176
     1
290
     0
176
     1
290
     0
176
     1
290
     0
176
     1
 90
       50
176
     1
 40
0.0
176
     1
 40
1.0
176
     1
 90
        0
176
     1
 62
    18
420
        0
176
     1
 90
       50
176
     1
 90
        3
176
     1
 62
     5
420
      255
176
     1
290
     0
176
     1
 90
       50
176
     1
 90
       50
176
     1
 90
       50
176
     1
290
     0
176
     1
 90
       50
176
     1
 62
   256
176
     0
 40
1.0
176
     0
 90
        2
176
     1
  1
strokes_ogs.tif
176
     1
290
     0
176
     1
 40
1.0
176
     1
 40
1.0
176
     1
  0
VISUALSTYLE
  5
2C
102
{ACAD_REACTORS
330
2A
102
}
330
2A
100
AcDbVisualStyle
  2
FlatWithEdges
 70
     1
177
     3
291
     1
 70
    58
 90
        2
176
     1
 90
        1
176
     1
 90
        1
176
     1
 90
        2
176
     1
 40
0.6
176
     1
 40
30.0
176
     1
 62
     7
420
 16777215
176
     1
 90
        1
176
     1
 90
        0
176
     1
 62
     7
176
     1
 62
   257
176
     1
 90
        1
176
     1
 90
        1
176
     1
 40
1.0
176
     1
 90
        0
176
     1
 62
   257
176
     1
 40
1.0
176
     1
 90
        1
176
     1
 90
        6
176
     1
 90
        2
176
     1
 62
     7
176
     1
 90
        5
176
     1
 90
        0
176
     1
 90
        0
176
     1
290
     0
176
     1
 90
       13
176
     1
 40
0.0
176
     1
 90
        0
176
     1
290
     0
176
     1
290
     1
176
     1
290
     1
176
     1
290
     0
176
     1
290
     0
176
     1
290
     0
176
     1
290
     0
176
     1
290
     0
176
     1
290
     0
176
     1
 90
       50
176
     1
 40
0.0
176
     1
 40
1.0
176
     1
 90
        0
176
     1
 62
    18
420
        0
176
     1
 90
       50
176
     1
 90
        3
176
     1
 62
     5
420
      255
176
     1
290
     0
176
     1
 90
       50
176
     1
 90
       50
176
     1
 90
       50
176
     1
290
     0
176
     1
 90
       50
176
     1
 62
   256
176
     0
 40
1.0
176
     0
 90
        2
176
     1
  1
strokes_ogs.tif
176
     1
290
     0
176
     1
 40
1.0
176
     1
 40
1.0
176
     1
  0
VISUALSTYLE
  5
2D
102
{ACAD_REACTORS
330
2A
102
}
330
2A
100
AcDbVisualStyle
  2
Gouraud
 70
     2
177
     3
291
     1
 70
    58
 90
        2
176
     1
 90
        2
176
     1
 90
        1
176
     1
 90
        2
176
     1
 40
0.6
176
     1
 40
30.0
176
     1
 62
     7
420
 16777215
176
     1
 90
        0
176
     1
 90
        0
176
     1
 62
     7
176
     1
 62
   257
176
     1
 90
        1
176
     1
 90
        1
176
     1
 40
1.0
176
     1
 90
        0
176
     1
 62
     7
176
     1
 40
1.0
176
     1
 90
        1
176
     1
 90
        6
176
     1
 90
        2
176
     1
 62
     7
176
     1
 90
        5
176
     1
 90
        0
176
     1
 90
        0
176
     1
290
     0
176
     1
 90
       13
176
     1
 40
0.0
176
     1
 90
        0
176
     1
290
     0
176
     1
290
     1
176
     1
290
     1
176
     1
290
     0
176
     1
290
     0
176
     1
290
     0
176
     1
290
     0
176
     1
290
     0
176
     1
290
     0
176
     1
 90
       50
176
     1
 40
0.0
176
     1
 40
1.0
176
     1
 90
        0
176
     1
 62
    18
420
        0
176
     1
 90
       50
176
     1
 90
        3
176
     1
 62
     5
420
      255
176
     1
290
     0
176
     1
 90
       50
176
     1
 90
       50
176
     1
 90
       50
176
     1
290
     0
176
     1
 90
       50
176
     1
 62
   256
176
     0
 40
1.0
176
     0
 90
        2
176
     1
  1
strokes_ogs.tif
176
     1
290
     0
176
     1
 40
1.0
176
     1
 40
1.0
176
     1
  0
VISUALSTYLE
  5
2E
102
{ACAD_REACTORS
330
2A
102
}
330
2A
100
AcDbVisualStyle
  2
GouraudWithEdges
 70
     3
177
     3
291
     1
 70
    58
 90
        2
176
     1
 90
        2
176
     1
 90
        1
176
     1
 90
        2
176
     1
 40
0.6
176
     1
 40
30.0
176
     1
 62
     7
420
 16777215
176
     1
 90
        1
176
     1
 90
        0
176
     1
 62
     7
176
     1
 62
   257
176
     1
 90
        1
176
     1
 90
        1
176
     1
 40
1.0
176
     1
 90
        0
176
     1
 62
   257
176
     1
 40
1.0
176
     1
 90
        1
176
     1
 90
        6
176
     1
 90
        2
176
     1
 62
     7
176
     1
 90
        5
176
     1
 90
        0
176
     1
 90
        0
176
     1
290
     0
176
     1
 90
       13
176
     1
 40
0.0
176
     1
 90
        0
176
     1
290
     0
176
     1
290
     1
176
     1
290
     1
176
     1
290
     0
176
     1
290
     0
176
     1
290
     0
176
     1
290
     0
176
     1
290
     0
176
     1
290
     0
176
     1
 90
       50
176
     1
 40
0.0
176
     1
 40
1.0
176
     1
 90
        0
176
     1
 62
    18
420
        0
176
     1
 90
       50
176
     1
 90
        3
176
     1
 62
     5
420
      255
176
     1
290
     0
176
     1
 90
       50
176
     1
 90
       50
176
     1
 90
       50
176
     1
290
     0
176
     1
 90
       50
176
     1
 62
   256
176
     0
 40
1.0
176
     0
 90
        2
176
     1
  1
strokes_ogs.tif
176
     1
290
     0
176
     1
 40
1.0
176
     1
 40
1.0
176
     1
  0
VISUALSTYLE
  5
31
102
{ACAD_REACTORS
330
2A
102
}
330
2A
100
AcDbVisualStyle
  2
Hidden
 70
     6
177
     3
291
     0
 70
    58
 90
        1
176
     1
 90
        2
176
     1
 90
        2
176
     1
 90
        0
176
     1
 40
0.6
176
     1
 40
30.0
176
     1
 62
     7
420
 16777215
176
     1
 90
        2
176
     1
 90
        2
176
     1
 62
     7
176
     1
 62
   257
176
     1
 90
        2
176
     1
 90
        1
176
     1
 40
40.0
176
     1
 90
        0
176
     1
 62
   257
176
     1
 40
1.0
176
     1
 90
        1
176
     1
 90
        6
176
     1
 90
        2
176
     1
 62
     7
176
     1
 90
        3
176
     1
 90
        0
176
     1
 90
        0
176
     1
290
     0
176
     1
 90
        1
176
     1
 40
0.0
176
     1
 90
        0
176
     1
290
     0
176
     1
290
     1
176
     1
290
     1
176
     1
290
     0
176
     1
290
     0
176
     1
290
     0
176
     1
290
     0
176
     1
290
     0
176
     1
290
     0
176
     1
 90
       50
176
     1
 40
0.0
176
     1
 40
1.0
176
     1
 90
        0
176
     1
 62
    18
420
        0
176
     1
 90
       50
176
     1
 90
        3
176
     1
 62
     5
420
      255
176
     1
290
     0
176
     1
 90
       50
176
     1
 90
       50
176
     1
 90
       50
176
     1
290
     0
176
     1
 90
       50
176
     1
 62
   256
176
     0
 40
1.0
176
     0
 90
        2
176
     1
  1
strokes_ogs.tif
176
     1
290
     0
176
     1
 40
1.0
176
     1
 40
1.0
176
     1
  0
VISUALSTYLE
  5
3B
102
{ACAD_REACTORS
330
2A
102
}
330
2A
100
AcDbVisualStyle
  2
JitterOff
 70
    20
177
     3
291
     1
 70
    58
 90
        2
176
     0
 90
        2
176
     0
 90
        0
176
     0
 90
        0
176
     0
 40
0.6
176
     0
 40
30.0
176
     0
 62
     7
420
 16777215
176
     0
 90
        1
176
     0
 90
        4
176
     0
 62
     7
176
     0
 62
   257
176
     0
 90
        1
176
     0
 90
        1
176
     0
 40
1.0
176
     0
 90
       10
176
     2
 62
     7
176
     0
 40
1.0
176
     0
 90
        1
176
     0
 90
        6
176
     0
 90
        2
176
     0
 62
     7
176
     0
 90
        5
176
     0
 90
        0
176
     0
 90
        0
176
     0
290
     0
176
     0
 90
        1
176
     0
 40
0.0
176
     0
 90
        0
176
     0
290
     0
176
     0
290
     1
176
     0
290
     1
176
     0
290
     0
176
     0
290
     0
176
     0
290
     0
176
     0
290
     0
176
     0
290
     0
176
     0
290
     0
176
     0
 90
       50
176
     0
 40
0.0
176
     0
 40
1.0
176
     0
 90
        0
176
     0
 62
    18
420
        0
176
     0
 90
       50
176
     0
 90
        3
176
     0
 62
     5
420
      255
176
     0
290
     0
176
     0
 90
       50
176
     0
 90
       50
176
     0
 90
       50
176
     0
290
     0
176
     0
 90
       50
176
     0
 62
   256
176
     0
 40
1.0
176
     0
 90
        2
176
     0
  1
strokes_ogs.tif
176
     0
290
     0
176
     0
 40
1.0
176
     0
 40
1.0
176
     0
  0
VISUALSTYLE
  5
38
102
{ACAD_REACTORS
330
2A
102
}
330
2A
100
AcDbVisualStyle
  2
Linepattern
 70
    14
177
     3
291
     1
 70
    58
 90
        2
176
     1
 90
        2
176
     1
 90
        0
176
     1
 90
        0
176
     1
 40
0.6
176
     1
 40
30.0
176
     1
 62
     7
420
 16777215
176
     1
 90
        1
176
     1
 90
        4
176
     1
 62
     7
176
     1
 62
   257
176
     1
 90
        7
176
     1
 90
        7
176
     1
 40
1.0
176
     1
 90
        8
176
     1
 62
     7
176
     1
 40
1.0
176
     1
 90
        1
176
     1
 90
        6
176
     1
 90
        2
176
     1
 62
     7
176
     1
 90
        5
176
     1
 90
        0
176
     1
 90
        0
176
     1
290
     0
176
     1
 90
        1
176
     1
 40
0.0
176
     1
 90
        0
176
     1
290
     0
176
     1
290
     1
176
     1
290
     1
176
     1
290
     0
176
     1
290
     0
176
     1
290
     0
176
     1
290
     0
176
     1
290
     0
176
     1
290
     0
176
     1
 90
       50
176
     1
 40
0.0
176
     1
 40
1.0
176
     1
 90
        0
176
     1
 62
    18
420
        0
176
     1
 90
       50
176
     1
 90
        3
176
     1
 62
     5
420
      255
176
     1
290
     0
176
     1
 90
       50
176
     1
 90
       50
176
     1
 90
       50
176
     1
290
     0
176
     1
 90
       50
176
     1
 62
   256
176
     0
 40
1.0
176
     0
 90
        2
176
     1
  1
strokes_ogs.tif
176
     1
290
     0
176
     1
 40
1.0
176
     1
 40
1.0
176
     1
  0
VISUALSTYLE
  5
3C
102
{ACAD_REACTORS
330
2A
102
}
330
2A
100
AcDbVisualStyle
  2
OverhangOff
 70
    21
177
     3
291
     1
 70
    58
 90
        2
176
     0
 90
        2
176
     0
 90
        0
176
     0
 90
        0
176
     0
 40
0.6
176
     0
 40
30.0
176
     0
 62
     7
420
 16777215
176
     0
 90
        1
176
     0
 90
        4
176
     0
 62
     7
176
     0
 62
   257
176
     0
 90
        1
176
     0
 90
        1
176
     0
 40
1.0
176
     0
 90
        9
176
     2
 62
     7
176
     0
 40
1.0
176
     0
 90
        1
176
     0
 90
        6
176
     0
 90
        2
176
     0
 62
     7
176
     0
 90
        5
176
     0
 90
        0
176
     0
 90
        0
176
     0
290
     0
176
     0
 90
        1
176
     0
 40
0.0
176
     0
 90
        0
176
     0
290
     0
176
     0
290
     1
176
     0
290
     1
176
     0
290
     0
176
     0
290
     0
176
     0
290
     0
176
     0
290
     0
176
     0
290
     0
176
     0
290
     0
176
     0
 90
       50
176
     0
 40
0.0
176
     0
 40
1.0
176
     0
 90
        0
176
     0
 62
    18
420
        0
176
     0
 90
       50
176
     0
 90
        3
176
     0
 62
     5
420
      255
176
     0
290
     0
176
     0
 90
       50
176
     0
 90
       50
176
     0
 90
       50
176
     0
290
     0
176
     0
 90
       50
176
     0
 62
   256
176
     0
 40
1.0
176
     0
 90
        2
176
     0
  1
strokes_ogs.tif
176
     0
290
     0
176
     0
 40
1.0
176
     0
 40
1.0
176
     0
  0
VISUALSTYLE
  5
33
102
{ACAD_REACTORS
330
2A
102
}
330
2A
100
AcDbVisualStyle
  2
Realistic
 70
     8
177
     3
291
     0
 70
    58
 90
        2
176
     1
 90
        3
176
     1
 90
        0
176
     1
 90
        2
176
     1
 40
0.6
176
     1
 40
30.0
176
     1
 62
     7
420
 16777215
176
     1
 90
        0
176
     1
 90
        0
176
     1
 62
     7
176
     1
 62
   257
176
     1
 90
        1
176
     1
 90
        1
176
     1
 40
1.0
176
     1
 90
        8
176
     1
 62
   257
176
     1
 40
1.0
176
     1
 90
        1
176
     1
 90
        6
176
     1
 90
        2
176
     1
 62
     7
176
     1
 90
        3
176
     1
 90
        0
176
     1
 90
        0
176
     1
290
     0
176
     1
 90
       13
176
     1
 40
0.0
176
     1
 90
        0
176
     1
290
     0
176
     1
290
     1
176
     1
290
     1
176
     1
290
     0
176
     1
290
     0
176
     1
290
     0
176
     1
290
     0
176
     1
290
     0
176
     1
290
     0
176
     1
 90
       50
176
     1
 40
0.0
176
     1
 40
1.0
176
     1
 90
        0
176
     1
 62
    18
420
        0
176
     1
 90
       50
176
     1
 90
        3
176
     1
 62
     5
420
      255
176
     1
290
     0
176
     1
 90
       50
176
     1
 90
       50
176
     1
 90
       50
176
     1
290
     0
176
     1
 90
       50
176
     1
 62
   256
176
     0
 40
1.0
176
     0
 90
        2
176
     1
  1
strokes_ogs.tif
176
     1
290
     0
176
     1
 40
1.0
176
     1
 40
1.0
176
     1
  0
VISUALSTYLE
  5
42
102
{ACAD_REACTORS
330
2A
102
}
330
2A
100
AcDbVisualStyle
  2
Shaded
 70
    27
177
     3
291
     0
 70
    58
 90
        2
176
     1
 90
        2
176
     1
 90
        1
176
     1
 90
        2
176
     1
 40
0.6
176
     1
 40
30.0
176
     1
 62
     7
420
 16777215
176
     1
 90
        0
176
     1
 90
        4
176
     1
 62
     7
176
     1
 62
   257
176
     1
 90
        1
176
     1
 90
        1
176
     1
 40
1.0
176
     1
 90
        8
176
     1
 62
   257
176
     1
 40
1.0
176
     1
 90
        1
176
     1
 90
        6
176
     1
 90
        2
176
     1
 62
     8
420
  7895160
176
     1
 90
        3
176
     1
 90
        0
176
     1
 90
        0
176
     1
290
     0
176
     1
 90
        5
176
     1
 40
0.0
176
     1
 90
        0
176
     1
290
     0
176
     1
290
     1
176
     1
290
     1
176
     1
290
     0
176
     1
290
     0
176
     1
290
     0
176
     1
290
     0
176
     1
290
     0
176
     1
290
     0
176
     1
 90
       50
176
     1
 40
0.0
176
     1
 40
1.0
176
     1
 90
        0
176
     1
 62
    18
420
        0
176
     1
 90
       50
176
     1
 90
        3
176
     1
 62
     5
420
      255
176
     1
290
     0
176
     1
 90
       50
176
     1
 90
       50
176
     1
 90
       50
176
     1
290
     0
176
     1
 90
       50
176
     1
 62
   256
176
     0
 40
1.0
176
     0
 90
        2
176
     1
  1
strokes_ogs.tif
176
     1
290
     0
176
     1
 40
1.0
176
     1
 40
1.0
176
     1
  0
VISUALSTYLE
  5
41
102
{ACAD_REACTORS
330
2A
102
}
330
2A
100
AcDbVisualStyle
  2
Shaded with edges
 70
    26
177
     3
291
     0
 70
    58
 90
        2
176
     1
 90
        2
176
     1
 90
        1
176
     1
 90
        2
176
     1
 40
0.6
176
     1
 40
30.0
176
     1
 62
     7
420
 16777215
176
     1
 90
        1
176
     1
 90
       10
176
     1
 62
     7
176
     1
 62
   257
176
     1
 90
        2
176
     1
 90
        1
176
     1
 40
1.0
176
     1
 90
        8
176
     1
 62
   257
176
     1
 40
1.0
176
     1
 90
        1
176
     1
 90
        6
176
     1
 90
        2
176
     1
 62
     7
176
     1
 90
        3
176
     1
 90
        0
176
     1
 90
        0
176
     1
290
     0
176
     1
 90
        5
176
     1
 40
0.0
176
     1
 90
        0
176
     1
290
     0
176
     1
290
     1
176
     1
290
     1
176
     1
290
     0
176
     1
290
     0
176
     1
290
     0
176
     1
290
     0
176
     1
290
     0
176
     1
290
     0
176
     1
 90
       50
176
     1
 40
0.0
176
     1
 40
1.0
176
     1
 90
        0
176
     1
 62
    18
420
        0
176
     1
 90
       50
176
     1
 90
        3
176
     1
 62
     5
420
      255
176
     1
290
     0
176
     1
 90
       50
176
     1
 90
       50
176
     1
 90
       50
176
     1
290
     0
176
     1
 90
       50
176
     1
 62
   256
176
     0
 40
1.0
176
     0
 90
        2
176
     1
  1
strokes_ogs.tif
176
     1
290
     0
176
     1
 40
1.0
176
     1
 40
1.0
176
     1
  0
VISUALSTYLE
  5
3E
102
{ACAD_REACTORS
330
2A
102
}
330
2A
100
AcDbVisualStyle
  2
Shades of Gray
 70
    23
177
     3
291
     0
 70
    58
 90
        2
176
     1
 90
        2
176
     1
 90
        3
176
     1
 90
        0
176
     1
 40
0.6
176
     1
 40
30.0
176
     1
 62
     7
420
 16777215
176
     1
 90
        2
176
     1
 90
        2
176
     1
 62
     7
176
     1
 62
     7
176
     1
 90
        1
176
     1
 90
        1
176
     1
 40
40.0
176
     1
 90
        8
176
     1
 62
     7
176
     1
 40
1.0
176
     1
 90
        1
176
     1
 90
        6
176
     1
 90
        2
176
     1
 62
     7
176
     1
 90
        3
176
     1
 90
        0
176
     1
 90
        0
176
     1
290
     0
176
     1
 90
        1
176
     1
 40
0.0
176
     1
 90
        0
176
     1
290
     0
176
     1
290
     1
176
     1
290
     1
176
     1
290
     0
176
     1
290
     0
176
     1
290
     0
176
     1
290
     0
176
     1
290
     0
176
     1
290
     0
176
     1
 90
       50
176
     1
 40
0.0
176
     1
 40
1.0
176
     1
 90
        0
176
     1
 62
    18
420
        0
176
     1
 90
       50
176
     1
 90
        3
176
     1
 62
     5
420
      255
176
     1
290
     0
176
     1
 90
       50
176
     1
 90
       50
176
     1
 90
       50
176
     1
290
     0
176
     1
 90
       50
176
     1
 62
   256
176
     0
 40
1.0
176
     0
 90
        2
176
     1
  1
strokes_ogs.tif
176
     1
290
     0
176
     1
 40
1.0
176
     1
 40
1.0
176
     1
  0
VISUALSTYLE
  5
3F
102
{ACAD_REACTORS
330
2A
102
}
330
2A
100
AcDbVisualStyle
  2
Sketchy
 70
    24
177
     3
291
     0
 70
    58
 90
        1
176
     1
 90
        2
176
     1
 90
        2
176
     1
 90
        0
176
     1
 40
0.6
176
     1
 40
30.0
176
     1
 62
     7
420
 16777215
176
     1
 90
        2
176
     1
 90
        2
176
     1
 62
     7
176
     1
 62
     7
176
     1
 90
        1
176
     1
 90
        1
176
     1
 40
40.0
176
     1
 90
       11
176
     1
 62
     7
176
     1
 40
1.0
176
     1
 90
        1
176
     1
 90
        6
176
     1
 90
        2
176
     1
 62
     7
176
     1
 90
        6
176
     1
 90
        0
176
     1
 90
        0
176
     1
290
     0
176
     1
 90
        1
176
     1
 40
0.0
176
     1
 90
        0
176
     1
290
     0
176
     1
290
     1
176
     1
290
     1
176
     1
290
     0
176
     1
290
     0
176
     1
290
     0
176
     1
290
     0
176
     1
290
     0
176
     1
290
     0
176
     1
 90
       50
176
     1
 40
0.0
176
     1
 40
1.0
176
     1
 90
        0
176
     1
 62
    18
420
        0
176
     1
 90
       50
176
     1
 90
        3
176
     1
 62
     5
420
      255
176
     1
290
     0
176
     1
 90
       50
176
     1
 90
       50
176
     1
 90
       50
176
     1
290
     0
176
     1
 90
       50
176
     1
 62
   256
176
     0
 40
1.0
176
     0
 90
        2
176
     1
  1
strokes_ogs.tif
176
     1
290
     0
176
     1
 40
1.0
176
     1
 40
1.0
176
     1
  0
VISUALSTYLE
  5
37
102
{ACAD_REACTORS
330
2A
102
}
330
2A
100
AcDbVisualStyle
  2
Thicken
 70
    13
177
     3
291
     1
 70
    58
 90
        2
176
     1
 90
        2
176
     1
 90
        0
176
     1
 90
        0
176
     1
 40
0.6
176
     1
 40
30.0
176
     1
 62
     7
420
 16777215
176
     1
 90
        1
176
     1
 90
        4
176
     1
 62
     7
176
     1
 62
   257
176
     1
 90
        1
176
     1
 90
        1
176
     1
 40
1.0
176
     1
 90
       12
176
     1
 62
     7
176
     1
 40
1.0
176
     1
 90
        1
176
     1
 90
        6
176
     1
 90
        2
176
     1
 62
     7
176
     1
 90
        5
176
     1
 90
        0
176
     1
 90
        0
176
     1
290
     0
176
     1
 90
        1
176
     1
 40
0.0
176
     1
 90
        0
176
     1
290
     0
176
     1
290
     1
176
     1
290
     1
176
     1
290
     0
176
     1
290
     0
176
     1
290
     0
176
     1
290
     0
176
     1
290
     0
176
     1
290
     0
176
     1
 90
       50
176
     1
 40
0.0
176
     1
 40
1.0
176
     1
 90
        0
176
     1
 62
    18
420
        0
176
     1
 90
       50
176
     1
 90
        3
176
     1
 62
     5
420
      255
176
     1
290
     0
176
     1
 90
       50
176
     1
 90
       50
176
     1
 90
       50
176
     1
290
     0
176
     1
 90
       50
176
     1
 62
   256
176
     0
 40
1.0
176
     0
 90
        2
176
     1
  1
strokes_ogs.tif
176
     1
290
     0
176
     1
 40
1.0
176
     1
 40
1.0
176
     1
  0
VISUALSTYLE
  5
30
102
{ACAD_REACTORS
330
2A
102
}
330
2A
100
AcDbVisualStyle
  2
Wireframe
 70
     5
177
     3
291
     0
 70
    58
 90
        0
176
     1
 90
        2
176
     1
 90
        0
176
     1
 90
        0
176
     1
 40
0.6
176
     1
 40
30.0
176
     1
 62
     7
420
 16777215
176
     1
 90
        1
176
     1
 90
        4
176
     1
 62
     7
176
     1
 62
   257
176
     1
 90
        1
176
     1
 90
        1
176
     1
 40
1.0
176
     1
 90
        0
176
     1
 62
   257
176
     1
 40
1.0
176
     1
 90
        1
176
     1
 90
        6
176
     1
 90
        2
176
     1
 62
     7
176
     1
 90
        3
176
     1
 90
        0
176
     1
 90
        0
176
     1
290
     0
176
     1
 90
        1
176
     1
 40
0.0
176
     1
 90
        0
176
     1
290
     0
176
     1
290
     1
176
     1
290
     1
176
     1
290
     0
176
     1
290
     0
176
     1
290
     0
176
     1
290
     0
176
     1
290
     0
176
     1
290
     0
176
     1
 90
       50
176
     1
 40
0.0
176
     1
 40
1.0
176
     1
 90
        0
176
     1
 62
    18
420
        0
176
     1
 90
       50
176
     1
 90
        3
176
     1
 62
     5
420
      255
176
     1
290
     0
176
     1
 90
       50
176
     1
 90
       50
176
     1
 90
       50
176
     1
290
     0
176
     1
 90
       50
176
     1
 62
   256
176
     0
 40
1.0
176
     0
 90
        2
176
     1
  1
strokes_ogs.tif
176
     1
290
     0
176
     1
 40
1.0
176
     1
 40
1.0
176
     1
  0
VISUALSTYLE
  5
40
102
{ACAD_REACTORS
330
2A
102
}
330
2A
100
AcDbVisualStyle
  2
X-Ray
 70
    25
177
     3
291
     0
 70
    58
 90
        2
176
     1
 90
        2
176
     1
 90
        1
176
     1
 90
        1
176
     1
 40
0.5
176
     1
 40
30.0
176
     1
 62
     7
420
 16777215
176
     1
 90
        1
176
     1
 90
        0
176
     1
 62
     7
176
     1
 62
   257
176
     1
 90
        1
176
     1
 90
        1
176
     1
 40
1.0
176
     1
 90
        8
176
     1
 62
     7
176
     1
 40
1.0
176
     1
 90
        1
176
     1
 90
        6
176
     1
 90
        2
176
     1
 62
     7
176
     1
 90
        3
176
     1
 90
        0
176
     1
 90
        0
176
     1
290
     0
176
     1
 90
       13
176
     1
 40
0.0
176
     1
 90
        0
176
     1
290
     0
176
     1
290
     1
176
     1
290
     1
176
     1
290
     0
176
     1
290
     0
176
     1
290
     0
176
     1
290
     0
176
     1
290
     0
176
     1
290
     0
176
     1
 90
       50
176
     1
 40
0.0
176
     1
 40
1.0
176
     1
 90
        0
176
     1
 62
    18
420
        0
176
     1
 90
       50
176
     1
 90
        3
176
     1
 62
     5
420
      255
176
     1
290
     0
176
     1
 90
       50
176
     1
 90
       50
176
     1
 90
       50
176
     1
290
     0
176
     1
 90
       50
176
     1
 62
   256
176
     0
 40
1.0
176
     0
 90
        2
176
     1
  1
strokes_ogs.tif
176
     1
290
     0
176
     1
 40
1.0
176
     1
 40
1.0
176
     1
  0
DICTIONARYVAR
  5
83
102
{ACAD_REACTORS
330
82
102
}
330
82
100
DictionaryVariables
280
     0
  1
1:1
  0
DICTIONARYVAR
  5
88
102
{ACAD_REACTORS
330
82
102
}
330
82
100
DictionaryVariables
280
     0
  1
Standard
  0
DICTIONARYVAR
  5
87
102
{ACAD_REACTORS
330
82
102
}
330
82
100
DictionaryVariables
280
     0
  1
Standard
  0
DICTIONARY
  5
84
330
5A
100
AcDbDictionary
280
     1
281
     1
  3
ACAD_ROUNDTRIP_2008_TABLESTYLE_CELLSTYLEMAP
360
85
  0
CELLSTYLEMAP
  5
85
102
{ACAD_REACTORS
330
84
102
}
330
84
100
AcDbCellStyleMap
 90
        3
300
CELLSTYLE
  1
TABLEFORMAT_BEGIN
 90
        5
170
     1
 91
        0
 92
    32768
 62
   257
 93
        1
300
CONTENTFORMAT
  1
CONTENTFORMAT_BEGIN
 90
        0
 91
        0
 92
        4
 93
        0
300

 40
0.0
140
1.0
 94
        5
 62
     0
340
11
144
0.25
309
CONTENTFORMAT_END
171
     1
301
MARGIN
  1
CELLMARGIN_BEGIN
 40
0.06
 40
0.06
 40
0.06
 40
0.06
 40
0.06
 40
0.06
309
CELLMARGIN_END
 94
        6
 95
        1
302
GRIDFORMAT
  1
GRIDFORMAT_BEGIN
 90
        0
 91
        1
 62
     0
 92
       -2
340
14
 93
        0
 40
0.045
309
GRIDFORMAT_END
 95
        2
302
GRIDFORMAT
  1
GRIDFORMAT_BEGIN
 90
        0
 91
        1
 62
     0
 92
       -2
340
14
 93
        0
 40
0.045
309
GRIDFORMAT_END
 95
        4
302
GRIDFORMAT
  1
GRIDFORMAT_BEGIN
 90
        0
 91
        1
 62
     0
 92
       -2
340
14
 93
        0
 40
0.045
309
GRIDFORMAT_END
 95
        8
302
GRIDFORMAT
  1
GRIDFORMAT_BEGIN
 90
        0
 91
        1
 62
     0
 92
       -2
340
14
 93
        0
 40
0.045
309
GRIDFORMAT_END
 95
       16
302
GRIDFORMAT
  1
GRIDFORMAT_BEGIN
 90
        0
 91
        1
 62
     0
 92
       -2
340
14
 93
        0
 40
0.045
309
GRIDFORMAT_END
 95
       32
302
GRIDFORMAT
  1
GRIDFORMAT_BEGIN
 90
        0
 91
        1
 62
     0
 92
       -2
340
14
 93
        0
 40
0.045
309
GRIDFORMAT_END
309
TABLEFORMAT_END
  1
CELLSTYLE_BEGIN
 90
        1
 91
        1
300
_TITLE
309
CELLSTYLE_END
300
CELLSTYLE
  1
TABLEFORMAT_BEGIN
 90
        5
170
     1
 91
        0
 92
        0
 62
   257
 93
        1
300
CONTENTFORMAT
  1
CONTENTFORMAT_BEGIN
 90
        0
 91
        0
 92
        4
 93
        0
300

 40
0.0
140
1.0
 94
        5
 62
     0
340
11
144
0.18
309
CONTENTFORMAT_END
171
     1
301
MARGIN
  1
CELLMARGIN_BEGIN
 40
0.06
 40
0.06
 40
0.06
 40
0.06
 40
0.06
 40
0.06
309
CELLMARGIN_END
 94
        6
 95
        1
302
GRIDFORMAT
  1
GRIDFORMAT_BEGIN
 90
        0
 91
        1
 62
     0
 92
       -2
340
14
 93
        0
 40
0.045
309
GRIDFORMAT_END
 95
        2
302
GRIDFORMAT
  1
GRIDFORMAT_BEGIN
 90
        0
 91
        1
 62
     0
 92
       -2
340
14
 93
        0
 40
0.045
309
GRIDFORMAT_END
 95
        4
302
GRIDFORMAT
  1
GRIDFORMAT_BEGIN
 90
        0
 91
        1
 62
     0
 92
       -2
340
14
 93
        0
 40
0.045
309
GRIDFORMAT_END
 95
        8
302
GRIDFORMAT
  1
GRIDFORMAT_BEGIN
 90
        0
 91
        1
 62
     0
 92
       -2
340
14
 93
        0
 40
0.045
309
GRIDFORMAT_END
 95
       16
302
GRIDFORMAT
  1
GRIDFORMAT_BEGIN
 90
        0
 91
        1
 62
     0
 92
       -2
340
14
 93
        0
 40
0.045
309
GRIDFORMAT_END
 95
       32
302
GRIDFORMAT
  1
GRIDFORMAT_BEGIN
 90
        0
 91
        1
 62
     0
 92
       -2
340
14
 93
        0
 40
0.045
309
GRIDFORMAT_END
309
TABLEFORMAT_END
  1
CELLSTYLE_BEGIN
 90
        2
 91
        1
300
_HEADER
309
CELLSTYLE_END
300
CELLSTYLE
  1
TABLEFORMAT_BEGIN
 90
        5
170
     1
 91
        0
 92
        0
 62
   257
 93
        1
300
CONTENTFORMAT
  1
CONTENTFORMAT_BEGIN
 90
        0
 91
        0
 92
        4
 93
        0
300

 40
0.0
140
1.0
 94
        2
 62
     0
340
11
144
0.18
309
CONTENTFORMAT_END
171
     1
301
MARGIN
  1
CELLMARGIN_BEGIN
 40
0.06
 40
0.06
 40
0.06
 40
0.06
 40
0.06
 40
0.06
309
CELLMARGIN_END
 94
        6
 95
        1
302
GRIDFORMAT
  1
GRIDFORMAT_BEGIN
 90
        0
 91
        1
 62
     0
 92
       -2
340
14
 93
        0
 40
0.045
309
GRIDFORMAT_END
 95
        2
302
GRIDFORMAT
  1
GRIDFORMAT_BEGIN
 90
        0
 91
        1
 62
     0
 92
       -2
340
14
 93
        0
 40
0.045
309
GRIDFORMAT_END
 95
        4
302
GRIDFORMAT
  1
GRIDFORMAT_BEGIN
 90
        0
 91
        1
 62
     0
 92
       -2
340
14
 93
        0
 40
0.045
309
GRIDFORMAT_END
 95
        8
302
GRIDFORMAT
  1
GRIDFORMAT_BEGIN
 90
        0
 91
        1
 62
     0
 92
       -2
340
14
 93
        0
 40
0.045
309
GRIDFORMAT_END
 95
       16
302
GRIDFORMAT
  1
GRIDFORMAT_BEGIN
 90
        0
 91
        1
 62
     0
 92
       -2
340
14
 93
        0
 40
0.045
309
GRIDFORMAT_END
 95
       32
302
GRIDFORMAT
  1
GRIDFORMAT_BEGIN
 90
        0
 91
        1
 62
     0
 92
       -2
340
14
 93
        0
 40
0.045
309
GRIDFORMAT_END
309
TABLEFORMAT_END
  1
CELLSTYLE_BEGIN
 90
        3
 91
        2
300
_DATA
309
CELLSTYLE_END
  0
ENDSEC
  0
EOF
