  0
SECTION
  2
HEADER
  9
$ACADVER
  1
AC1032
  9
$ACADMAINTVER
 90
       55
  9
$DWGCODEPAGE
  3
ANSI_1252
  9
$LASTSAVEDBY
  1
LYI-002
  9
$REQUIREDVERSIONS
160
                 0
  9
$INSBASE
 10
0.0
 20
0.0
 30
0.0
  9
$EXTMIN
 10
-1200.15
 20
-590.1266
 30
0.0
  9
$EXTMAX
 10
1200.05
 20
590.0734
 30
0.0
  9
$LIMMIN
 10
0.0
 20
0.0
  9
$LIMMAX
 10
12.0
 20
9.0
  9
$ORTHOMODE
 70
     0
  9
$REGENMODE
 70
     1
  9
$FILLMODE
 70
     1
  9
$QTEXTMODE
 70
     0
  9
$MIRRTEXT
 70
     1
  9
$LTSCALE
 40
1.0
  9
$ATTMODE
 70
     1
  9
$TEXTSIZE
 40
0.2
  9
$TRACEWID
 40
0.05
  9
$TEXTSTYLE
  7
Standard
  9
$CLAYER
  8
0
  9
$CELTYPE
  6
ByLayer
  9
$CECOLOR
 62
   256
  9
$CELTSCALE
 40
1.0
  9
$DISPSILH
 70
     0
  9
$DIMSCALE
 40
1.0
  9
$DIMASZ
 40
0.18
  9
$DIMEXO
 40
0.0625
  9
$DIMDLI
 40
0.38
  9
$DIMRND
 40
0.0
  9
$DIMDLE
 40
0.0
  9
$DIMEXE
 40
0.18
  9
$DIMTP
 40
0.0
  9
$DIMTM
 40
0.0
  9
$DIMTXT
 40
0.18
  9
$DIMCEN
 40
0.09
  9
$DIMTSZ
 40
0.0
  9
$DIMTOL
 70
     0
  9
$DIMLIM
 70
     0
  9
$DIMTIH
 70
     1
  9
$DIMTOH
 70
     1
  9
$DIMSE1
 70
     0
  9
$DIMSE2
 70
     0
  9
$DIMTAD
 70
     0
  9
$DIMZIN
 70
     0
  9
$DIMBLK
  1

  9
$DIMASO
 70
     1
  9
$DIMSHO
 70
     1
  9
$DIMPOST
  1

  9
$DIMAPOST
  1

  9
$DIMALT
 70
     0
  9
$DIMALTD
 70
     2
  9
$DIMALTF
 40
25.4
  9
$DIMLFAC
 40
1.0
  9
$DIMTOFL
 70
     0
  9
$DIMTVP
 40
0.0
  9
$DIMTIX
 70
     0
  9
$DIMSOXD
 70
     0
  9
$DIMSAH
 70
     0
  9
$DIMBLK1
  1

  9
$DIMBLK2
  1

  9
$DIMSTYLE
  2
Standard
  9
$DIMCLRD
 70
     0
  9
$DIMCLRE
 70
     0
  9
$DIMCLRT
 70
     0
  9
$DIMTFAC
 40
1.0
  9
$DIMGAP
 40
0.09
  9
$DIMJUST
 70
     0
  9
$DIMSD1
 70
     0
  9
$DIMSD2
 70
     0
  9
$DIMTOLJ
 70
     1
  9
$DIMTZIN
 70
     0
  9
$DIMALTZ
 70
     0
  9
$DIMALTTZ
 70
     0
  9
$DIMUPT
 70
     0
  9
$DIMDEC
 70
     4
  9
$DIMTDEC
 70
     4
  9
$DIMALTU
 70
     2
  9
$DIMALTTD
 70
     2
  9
$DIMTXSTY
  7
Standard
  9
$DIMAUNIT
 70
     0
  9
$DIMADEC
 70
     0
  9
$DIMALTRND
 40
0.0
  9
$DIMAZIN
 70
     0
  9
$DIMDSEP
 70
    46
  9
$DIMATFIT
 70
     3
  9
$DIMFRAC
 70
     0
  9
$DIMLDRBLK
  1

  9
$DIMLUNIT
 70
     2
  9
$DIMLWD
 70
    -2
  9
$DIMLWE
 70
    -2
  9
$DIMTMOVE
 70
     0
  9
$DIMFXL
 40
1.0
  9
$DIMFXLON
 70
     0
  9
$DIMJOGANG
 40
0.7853981633974483
  9
$DIMTFILL
 70
     0
  9
$DIMTFILLCLR
 70
     0
  9
$DIMARCSYM
 70
     0
  9
$DIMLTYPE
  6

  9
$DIMLTEX1
  6

  9
$DIMLTEX2
  6

  9
$DIMTXTDIRECTION
 70
     0
  9
$LUNITS
 70
     2
  9
$LUPREC
 70
     4
  9
$SKETCHINC
 40
0.1
  9
$FILLETRAD
 40
0.0
  9
$AUNITS
 70
     0
  9
$AUPREC
 70
     0
  9
$MENU
  1
.
  9
$ELEVATION
 40
0.0
  9
$PELEVATION
 40
0.0
  9
$THICKNESS
 40
0.0
  9
$LIMCHECK
 70
     0
  9
$CHAMFERA
 40
0.0
  9
$CHAMFERB
 40
0.0
  9
$CHAMFERC
 40
0.0
  9
$CHAMFERD
 40
0.0
  9
$SKPOLY
 70
     0
  9
$TDCREATE
 40
2460652.711999827
  9
$TDUCREATE
 40
2460652.48283316
  9
$TDUPDATE
 40
2460652.711999827
  9
$TDUUPDATE
 40
2460652.48283316
  9
$TDINDWG
 40
0.0000000116
  9
$TDUSRTIMER
 40
0.0000000116
  9
$USRTIMER
 70
     1
  9
$ANGBASE
 50
0.0
  9
$ANGDIR
 70
     0
  9
$PDMODE
 70
     0
  9
$PDSIZE
 40
0.0
  9
$PLINEWID
 40
0.0
  9
$SPLFRAME
 70
     0
  9
$SPLINETYPE
 70
     6
  9
$SPLINESEGS
 70
     8
  9
$HANDSEED
  5
A4
  9
$SURFTAB1
 70
     6
  9
$SURFTAB2
 70
     6
  9
$SURFTYPE
 70
     6
  9
$SURFU
 70
     6
  9
$SURFV
 70
     6
  9
$UCSBASE
  2

  9
$UCSNAME
  2

  9
$UCSORG
 10
0.0
 20
0.0
 30
0.0
  9
$UCSXDIR
 10
1.0
 20
0.0
 30
0.0
  9
$UCSYDIR
 10
0.0
 20
1.0
 30
0.0
  9
$UCSORTHOREF
  2

  9
$UCSORTHOVIEW
 70
     0
  9
$UCSORGTOP
 10
0.0
 20
0.0
 30
0.0
  9
$UCSORGBOTTOM
 10
0.0
 20
0.0
 30
0.0
  9
$UCSORGLEFT
 10
0.0
 20
0.0
 30
0.0
  9
$UCSORGRIGHT
 10
0.0
 20
0.0
 30
0.0
  9
$UCSORGFRONT
 10
0.0
 20
0.0
 30
0.0
  9
$UCSORGBACK
 10
0.0
 20
0.0
 30
0.0
  9
$PUCSBASE
  2

  9
$PUCSNAME
  2

  9
$PUCSORG
 10
0.0
 20
0.0
 30
0.0
  9
$PUCSXDIR
 10
1.0
 20
0.0
 30
0.0
  9
$PUCSYDIR
 10
0.0
 20
1.0
 30
0.0
  9
$PUCSORTHOREF
  2

  9
$PUCSORTHOVIEW
 70
     0
  9
$PUCSORGTOP
 10
0.0
 20
0.0
 30
0.0
  9
$PUCSORGBOTTOM
 10
0.0
 20
0.0
 30
0.0
  9
$PUCSORGLEFT
 10
0.0
 20
0.0
 30
0.0
  9
$PUCSORGRIGHT
 10
0.0
 20
0.0
 30
0.0
  9
$PUCSORGFRONT
 10
0.0
 20
0.0
 30
0.0
  9
$PUCSORGBACK
 10
0.0
 20
0.0
 30
0.0
  9
$USERI1
 70
     0
  9
$USERI2
 70
     0
  9
$USERI3
 70
     0
  9
$USERI4
 70
     0
  9
$USERI5
 70
     0
  9
$USERR1
 40
0.0
  9
$USERR2
 40
0.0
  9
$USERR3
 40
0.0
  9
$USERR4
 40
0.0
  9
$USERR5
 40
0.0
  9
$WORLDVIEW
 70
     1
  9
$SHADEDGE
 70
     3
  9
$SHADEDIF
 70
    70
  9
$TILEMODE
 70
     1
  9
$MAXACTVP
 70
    64
  9
$PINSBASE
 10
0.0
 20
0.0
 30
0.0
  9
$PLIMCHECK
 70
     0
  9
$PEXTMIN
 10
1.000000000000000E+20
 20
1.000000000000000E+20
 30
1.000000000000000E+20
  9
$PEXTMAX
 10
-1.000000000000000E+20
 20
-1.000000000000000E+20
 30
-1.000000000000000E+20
  9
$PLIMMIN
 10
0.0
 20
0.0
  9
$PLIMMAX
 10
12.0
 20
9.0
  9
$UNITMODE
 70
     0
  9
$VISRETAIN
 70
     1
  9
$PLINEGEN
 70
     0
  9
$PSLTSCALE
 70
     1
  9
$TREEDEPTH
 70
  3020
  9
$CMLSTYLE
  2
Standard
  9
$CMLJUST
 70
     0
  9
$CMLSCALE
 40
1.0
  9
$PROXYGRAPHICS
 70
     1
  9
$MEASUREMENT
 70
     0
  9
$CELWEIGHT
370
    -1
  9
$ENDCAPS
280
     0
  9
$JOINSTYLE
280
     0
  9
$LWDISPLAY
290
     0
  9
$INSUNITS
 70
     4
  9
$HYPERLINKBASE
  1

  9
$STYLESHEET
  1

  9
$XEDIT
290
     1
  9
$CEPSNTYPE
380
     0
  9
$PSTYLEMODE
290
     1
  9
$FINGERPRINTGUID
  2
{2a18677a-1bce-42f9-a349-8bd9c849dc6f}
  9
$VERSIONGUID
  2
{FAEB1C32-E019-11D5-929B-00C0DF256EC4}
  9
$EXTNAMES
290
     1
  9
$PSVPSCALE
 40
0.0
  9
$OLESTARTUP
290
     0
  9
$SORTENTS
280
   127
  9
$INDEXCTL
280
     0
  9
$HIDETEXT
280
     1
  9
$XCLIPFRAME
280
     2
  9
$HALOGAP
280
     0
  9
$OBSCOLOR
 70
   257
  9
$OBSLTYPE
280
     0
  9
$INTERSECTIONDISPLAY
280
     0
  9
$INTERSECTIONCOLOR
 70
   257
  9
$DIMASSOC
280
     2
  9
$PROJECTNAME
  1

  9
$CAMERADISPLAY
290
     0
  9
$LENSLENGTH
 40
50.0
  9
$CAMERAHEIGHT
 40
0.0
  9
$STEPSPERSEC
 40
2.0
  9
$STEPSIZE
 40
6.0
  9
$3DDWFPREC
 40
2.0
  9
$PSOLWIDTH
 40
0.25
  9
$PSOLHEIGHT
 40
4.0
  9
$LOFTANG1
 40
1.570796326794897
  9
$LOFTANG2
 40
1.570796326794897
  9
$LOFTMAG1
 40
0.0
  9
$LOFTMAG2
 40
0.0
  9
$LOFTPARAM
 70
     7
  9
$LOFTNORMALS
280
     1
  9
$LATITUDE
 40
37.795
  9
$LONGITUDE
 40
-122.394
  9
$NORTHDIRECTION
 40
0.0
  9
$TIMEZONE
 70
 -8000
  9
$LIGHTGLYPHDISPLAY
280
     1
  9
$TILEMODELIGHTSYNCH
280
     1
  9
$CMATERIAL
347
44
  9
$SOLIDHIST
280
     0
  9
$SHOWHIST
280
     1
  9
$DWFFRAME
280
     2
  9
$DGNFRAME
280
     2
  9
$REALWORLDSCALE
290
     1
  9
$INTERFERECOLOR
 62
   256
  9
$CSHADOW
280
     0
  9
$SHADOWPLANELOCATION
 40
0.0
  0
ENDSEC
  0
SECTION
  2
CLASSES
  0
CLASS
  1
ACDBDICTIONARYWDFLT
  2
AcDbDictionaryWithDefault
  3
ObjectDBX Classes
 90
        0
 91
        3
280
     0
281
     0
  0
CLASS
  1
VISUALSTYLE
  2
AcDbVisualStyle
  3
ObjectDBX Classes
 90
     4095
 91
        3
280
     0
281
     0
  0
CLASS
  1
MATERIAL
  2
AcDbMaterial
  3
ObjectDBX Classes
 90
     1153
 91
        3
280
     0
281
     0
  0
CLASS
  1
SCALE
  2
AcDbScale
  3
ObjectDBX Classes
 90
     1153
 91
        3
280
     0
281
     0
  0
CLASS
  1
TABLESTYLE
  2
AcDbTableStyle
  3
ObjectDBX Classes
 90
     4095
 91
        3
280
     0
281
     0
  0
CLASS
  1
MLEADERSTYLE
  2
AcDbMLeaderStyle
  3
ACDB_MLEADERSTYLE_CLASS
 90
     4095
 91
        3
280
     0
281
     0
  0
CLASS
  1
SUN
  2
AcDbSun
  3
SCENEOE
 90
     1153
 91
        3
280
     0
281
     0
  0
CLASS
  1
DICTIONARYVAR
  2
AcDbDictionaryVar
  3
ObjectDBX Classes
 90
        0
 91
        3
280
     0
281
     0
  0
CLASS
  1
CELLSTYLEMAP
  2
AcDbCellStyleMap
  3
ObjectDBX Classes
 90
     1152
 91
        3
280
     0
281
     0
  0
ENDSEC
  0
SECTION
  2
TABLES
  0
TABLE
  2
VPORT
  5
8
330
0
100
AcDbSymbolTable
 70
     1
  0
VPORT
  5
29
330
8
100
AcDbSymbolTableRecord
100
AcDbViewportTableRecord
  2
*Active
 70
     0
 10
0.0
 20
0.0
 11
1.0
 21
1.0
 12
10.42990654205607
 22
4.5
 13
0.0
 23
0.0
 14
0.5
 24
0.5
 15
0.5
 25
0.5
 16
0.0
 26
0.0
 36
1.0
 17
0.0
 27
0.0
 37
0.0
 40
9.0
 41
1.972972972850329
 42
50.0
 43
0.0
 44
0.0
 50
0.0
 51
0.0
 71
     0
 72
   100
 73
     1
 74
     3
 75
     0
 76
     0
 77
     0
 78
     0
281
     0
 65
     1
110
0.0
120
0.0
130
0.0
111
1.0
121
0.0
131
0.0
112
0.0
122
1.0
132
0.0
 79
     0
146
0.0
348
2F
 60
     3
 61
     5
292
     1
282
     1
141
0.0
142
0.0
 63
   250
361
5D
  0
ENDTAB
  0
TABLE
  2
LTYPE
  5
5
330
0
100
AcDbSymbolTable
 70
     1
  0
LTYPE
  5
14
330
5
100
AcDbSymbolTableRecord
100
AcDbLinetypeTableRecord
  2
ByBlock
 70
     0
  3

 72
    65
 73
     0
 40
0.0
  0
LTYPE
  5
15
330
5
100
AcDbSymbolTableRecord
100
AcDbLinetypeTableRecord
  2
ByLayer
 70
     0
  3

 72
    65
 73
     0
 40
0.0
  0
LTYPE
  5
16
330
5
100
AcDbSymbolTableRecord
100
AcDbLinetypeTableRecord
  2
Continuous
 70
     0
  3
Solid line
 72
    65
 73
     0
 40
0.0
  0
ENDTAB
  0
TABLE
  2
LAYER
  5
2
330
0
100
AcDbSymbolTable
 70
     2
  0
LAYER
  5
10
330
2
100
AcDbSymbolTableRecord
100
AcDbLayerTableRecord
  2
0
 70
     0
 62
     7
  6
Continuous
370
    -3
390
F
347
46
348
0
  0
LAYER
  5
5F
330
2
100
AcDbSymbolTableRecord
100
AcDbLayerTableRecord
  2
Layer 1
 70
     0
 62
     7
  6
Continuous
370
    -3
390
F
347
46
348
0
  0
ENDTAB
  0
TABLE
  2
STYLE
  5
3
330
0
100
AcDbSymbolTable
 70
     1
  0
STYLE
  5
11
330
3
100
AcDbSymbolTableRecord
100
AcDbTextStyleTableRecord
  2
Standard
 70
     0
 40
0.0
 41
1.0
 50
0.0
 71
     0
 42
0.2
  3
txt
  4

  0
ENDTAB
  0
TABLE
  2
VIEW
  5
6
330
0
100
AcDbSymbolTable
 70
     0
  0
ENDTAB
  0
TABLE
  2
UCS
  5
7
330
0
100
AcDbSymbolTable
 70
     0
  0
ENDTAB
  0
TABLE
  2
APPID
  5
9
330
0
100
AcDbSymbolTable
 70
     2
  0
APPID
  5
12
330
9
100
AcDbSymbolTableRecord
100
AcDbRegAppTableRecord
  2
ACAD
 70
     0
  0
APPID
  5
5E
330
9
100
AcDbSymbolTableRecord
100
AcDbRegAppTableRecord
  2
ODA
 70
     0
  0
ENDTAB
  0
TABLE
  2
DIMSTYLE
  5
A
330
0
100
AcDbSymbolTable
 70
     1
100
AcDbDimStyleTable
  0
DIMSTYLE
105
27
330
A
100
AcDbSymbolTableRecord
100
AcDbDimStyleTableRecord
  2
Standard
 70
     0
178
     0
340
11
  0
ENDTAB
  0
TABLE
  2
BLOCK_RECORD
  5
1
330
0
100
AcDbSymbolTable
 70
     1
  0
BLOCK_RECORD
  5
1F
330
1
100
AcDbSymbolTableRecord
100
AcDbBlockTableRecord
  2
*Model_Space
340
22
 70
     0
280
     1
281
     0
  0
BLOCK_RECORD
  5
1B
330
1
100
AcDbSymbolTableRecord
100
AcDbBlockTableRecord
  2
*Paper_Space
340
1E
 70
     0
280
     1
281
     0
  0
BLOCK_RECORD
  5
23
330
1
100
AcDbSymbolTableRecord
100
AcDbBlockTableRecord
  2
*Paper_Space0
340
26
 70
     0
280
     1
281
     0
  0
ENDTAB
  0
ENDSEC
  0
SECTION
  2
BLOCKS
  0
BLOCK
  5
20
330
1F
100
AcDbEntity
  8
0
100
AcDbBlockBegin
  2
*Model_Space
 70
     0
 10
0.0
 20
0.0
 30
0.0
  3
*Model_Space
  1

  0
ENDBLK
  5
21
330
1F
100
AcDbEntity
  8
0
100
AcDbBlockEnd
  0
BLOCK
  5
1C
330
1B
100
AcDbEntity
 67
     1
  8
0
100
AcDbBlockBegin
  2
*Paper_Space
 70
     0
 10
0.0
 20
0.0
 30
0.0
  3
*Paper_Space
  1

  0
ENDBLK
  5
1D
330
1B
100
AcDbEntity
 67
     1
  8
0
100
AcDbBlockEnd
  0
BLOCK
  5
24
330
23
100
AcDbEntity
  8
0
100
AcDbBlockBegin
  2
*Paper_Space0
 70
     0
 10
0.0
 20
0.0
 30
0.0
  3
*Paper_Space0
  1

  0
ENDBLK
  5
25
330
23
100
AcDbEntity
  8
0
100
AcDbBlockEnd
  0
ENDSEC
  0
SECTION
  2
ENTITIES
  0
SPLINE
  5
60
330
1F
100
AcDbEntity
  8
Layer 1
 62
   250
370
    20
100
AcDbSpline
210
0.0
220
0.0
230
1.0
 70
    11
 71
     3
 72
    29
 73
    25
 74
     0
 42
0.0000000001
 43
0.0000000001
 40
0.0
 40
0.0
 40
0.0
 40
0.0
 40
0.125
 40
0.125
 40
0.125
 40
0.25
 40
0.25
 40
0.25
 40
0.375
 40
0.375
 40
0.375
 40
0.5
 40
0.5
 40
0.5
 40
0.625
 40
0.625
 40
0.625
 40
0.75
 40
0.75
 40
0.75
 40
0.875
 40
0.875
 40
0.875
 40
1.0
 40
1.0
 40
1.0
 40
1.0
 10
-1021.6814
 20
-165.6255
 30
0.0
 10
-1158.149
 20
-173.3827
 30
0.0
 10
-1160.4844
 20
-0.028
 30
0.0
 10
-1020.6986
 20
-6.8913
 30
0.0
 10
-1023.7501
 20
33.1055
 30
0.0
 10
-1012.4401
 20
55.8874
 30
0.0
 10
-997.1139
 20
73.8521
 30
0.0
 10
-968.5378
 20
35.0036
 30
0.0
 10
-911.706
 20
36.2288
 30
0.0
 10
-887.0517
 20
73.8521
 30
0.0
 10
-866.6623
 20
49.9192
 30
0.0
 10
-860.2762
 20
21.6265
 30
0.0
 10
-863.4669
 20
-9.6439
 30
0.0
 10
-723.5629
 20
10.8427
 30
0.0
 10
-727.5011
 20
-186.4268
 30
0.0
 10
-863.4669
 20
-166.5431
 30
0.0
 10
-856.5896
 20
-196.8205
 30
0.0
 10
-862.1592
 20
-222.8164
 30
0.0
 10
-884.1036
 20
-248.204
 30
0.0
 10
-907.6899
 20
-213.641
 30
0.0
 10
-963.7051
 20
-211.806
 30
0.0
 10
-993.1831
 20
-245.4514
 30
0.0
 10
-1018.904
 20
-225.7244
 30
0.0
 10
-1024.7972
 20
-197.5856
 30
0.0
 10
-1021.6814
 20
-165.6255
 30
0.0
  0
SPLINE
  5
61
330
1F
100
AcDbEntity
  8
Layer 1
 62
   250
370
    20
100
AcDbSpline
210
0.0
220
0.0
230
1.0
 70
    11
 71
     3
 72
    17
 73
    13
 74
     0
 42
0.0000000001
 43
0.0000000001
 40
0.0
 40
0.0
 40
0.0
 40
0.0
 40
0.25
 40
0.25
 40
0.25
 40
0.5
 40
0.5
 40
0.5
 40
0.75
 40
0.75
 40
0.75
 40
1.0
 40
1.0
 40
1.0
 40
1.0
 10
-972.5464
 20
-281.2354
 30
0.0
 10
-972.5464
 20
-264.0526
 30
0.0
 10
-958.6419
 20
-250.0391
 30
0.0
 10
-941.5914
 20
-250.0391
 30
0.0
 10
-924.541
 20
-250.0391
 30
0.0
 10
-910.6364
 20
-264.0526
 30
0.0
 10
-910.6364
 20
-281.2354
 30
0.0
 10
-910.6364
 20
-298.4183
 30
0.0
 10
-924.541
 20
-312.4318
 30
0.0
 10
-941.5914
 20
-312.4318
 30
0.0
 10
-958.6419
 20
-312.4318
 30
0.0
 10
-972.5464
 20
-298.4183
 30
0.0
 10
-972.5464
 20
-281.2354
 30
0.0
  0
SPLINE
  5
62
330
1F
100
AcDbEntity
  8
Layer 1
 62
   250
370
    20
100
AcDbSpline
210
0.0
220
0.0
230
1.0
 70
    11
 71
     3
 72
    29
 73
    25
 74
     0
 42
0.0000000001
 43
0.0000000001
 40
0.0
 40
0.0
 40
0.0
 40
0.0
 40
0.125
 40
0.125
 40
0.125
 40
0.25
 40
0.25
 40
0.25
 40
0.375
 40
0.375
 40
0.375
 40
0.5
 40
0.5
 40
0.5
 40
0.625
 40
0.625
 40
0.625
 40
0.75
 40
0.75
 40
0.75
 40
0.875
 40
0.875
 40
0.875
 40
1.0
 40
1.0
 40
1.0
 40
1.0
 10
-1021.6814
 20
224.6083
 30
0.0
 10
-1158.149
 20
216.8511
 30
0.0
 10
-1160.4844
 20
390.2058
 30
0.0
 10
-1020.6986
 20
383.3425
 30
0.0
 10
-1023.7501
 20
423.3394
 30
0.0
 10
-1012.4401
 20
446.1212
 30
0.0
 10
-997.1139
 20
464.0859
 30
0.0
 10
-968.5378
 20
425.2374
 30
0.0
 10
-911.706
 20
426.4627
 30
0.0
 10
-887.0517
 20
464.0859
 30
0.0
 10
-866.6623
 20
440.153
 30
0.0
 10
-860.2762
 20
411.8603
 30
0.0
 10
-863.4669
 20
380.5899
 30
0.0
 10
-723.5629
 20
401.0765
 30
0.0
 10
-727.5011
 20
203.807
 30
0.0
 10
-863.4669
 20
223.6907
 30
0.0
 10
-856.5896
 20
193.4133
 30
0.0
 10
-862.1592
 20
167.4174
 30
0.0
 10
-884.1036
 20
142.0298
 30
0.0
 10
-907.6899
 20
176.5928
 30
0.0
 10
-963.7051
 20
178.4278
 30
0.0
 10
-993.1831
 20
144.7824
 30
0.0
 10
-1018.904
 20
164.5094
 30
0.0
 10
-1024.7972
 20
192.6482
 30
0.0
 10
-1021.6814
 20
224.6083
 30
0.0
  0
SPLINE
  5
63
330
1F
100
AcDbEntity
  8
Layer 1
 62
   250
370
    20
100
AcDbSpline
210
0.0
220
0.0
230
1.0
 70
    11
 71
     3
 72
    17
 73
    13
 74
     0
 42
0.0000000001
 43
0.0000000001
 40
0.0
 40
0.0
 40
0.0
 40
0.0
 40
0.25
 40
0.25
 40
0.25
 40
0.5
 40
0.5
 40
0.5
 40
0.75
 40
0.75
 40
0.75
 40
1.0
 40
1.0
 40
1.0
 40
1.0
 10
-972.5464
 20
108.9983
 30
0.0
 10
-972.5464
 20
126.1812
 30
0.0
 10
-958.6419
 20
140.1947
 30
0.0
 10
-941.5914
 20
140.1947
 30
0.0
 10
-924.541
 20
140.1947
 30
0.0
 10
-910.6364
 20
126.1812
 30
0.0
 10
-910.6364
 20
108.9983
 30
0.0
 10
-910.6364
 20
91.8155
 30
0.0
 10
-924.541
 20
77.802
 30
0.0
 10
-941.5914
 20
77.802
 30
0.0
 10
-958.6419
 20
77.802
 30
0.0
 10
-972.5464
 20
91.8155
 30
0.0
 10
-972.5464
 20
108.9983
 30
0.0
  0
SPLINE
  5
64
330
1F
100
AcDbEntity
  8
Layer 1
 62
   250
370
    20
100
AcDbSpline
210
0.0
220
0.0
230
1.0
 70
    11
 71
     3
 72
    17
 73
    13
 74
     0
 42
0.0000000001
 43
0.0000000001
 40
0.0
 40
0.0
 40
0.0
 40
0.0
 40
0.25
 40
0.25
 40
0.25
 40
0.5
 40
0.5
 40
0.5
 40
0.75
 40
0.75
 40
0.75
 40
1.0
 40
1.0
 40
1.0
 40
1.0
 10
-972.5464
 20
499.2321
 30
0.0
 10
-972.5464
 20
516.415
 30
0.0
 10
-958.6419
 20
530.4285
 30
0.0
 10
-941.5914
 20
530.4285
 30
0.0
 10
-924.541
 20
530.4285
 30
0.0
 10
-910.6364
 20
516.415
 30
0.0
 10
-910.6364
 20
499.2321
 30
0.0
 10
-910.6364
 20
482.0493
 30
0.0
 10
-924.541
 20
468.0359
 30
0.0
 10
-941.5914
 20
468.0359
 30
0.0
 10
-958.6419
 20
468.0359
 30
0.0
 10
-972.5464
 20
482.0493
 30
0.0
 10
-972.5464
 20
499.2321
 30
0.0
  0
SPLINE
  5
65
330
1F
100
AcDbEntity
  8
Layer 1
 62
   250
370
    20
100
AcDbSpline
210
0.0
220
0.0
230
1.0
 70
    11
 71
     3
 72
    35
 73
    31
 74
     0
 42
0.0000000001
 43
0.0000000001
 40
0.0
 40
0.0
 40
0.0
 40
0.0
 40
0.1
 40
0.1
 40
0.1
 40
0.2
 40
0.2
 40
0.2
 40
0.3
 40
0.3
 40
0.3
 40
0.4
 40
0.4
 40
0.4
 40
0.5
 40
0.5
 40
0.5
 40
0.6000000000000001
 40
0.6000000000000001
 40
0.6000000000000001
 40
0.7000000000000001
 40
0.7000000000000001
 40
0.7000000000000001
 40
0.8
 40
0.8
 40
0.8
 40
0.9
 40
0.9
 40
0.9
 40
1.0
 40
1.0
 40
1.0
 40
1.0
 10
-875.0316
 20
-282.8355
 30
0.0
 10
-852.5973
 20
-297.2854
 30
0.0
 10
-833.3793
 20
-319.9973
 30
0.0
 10
-821.235
 20
-360.8823
 30
0.0
 10
-735.2534
 20
-389.9946
 30
0.0
 10
-736.5551
 20
-433.8253
 30
0.0
 10
-720.4964
 20
-463.4453
 30
0.0
 10
-720.4964
 20
-463.4453
 30
0.0
 10
-684.4901
 20
-462.1417
 30
0.0
 10
-684.4901
 20
-462.1417
 30
0.0
 10
-665.1523
 20
-410.5623
 30
0.0
 10
-635.0421
 20
-379.0275
 30
0.0
 10
-579.683
 20
-363.4839
 30
0.0
 10
-577.8509
 20
-342.1217
 30
0.0
 10
-563.6378
 20
-317.0069
 30
0.0
 10
-528.349
 20
-283.6356
 30
0.0
 10
-558.7976
 20
-261.9825
 30
0.0
 10
-579.6815
 20
-235.4508
 30
0.0
 10
-581.8282
 20
-201.7844
 30
0.0
 10
-656.5806
 20
-179.5201
 30
0.0
 10
-673.1906
 20
-145.3487
 30
0.0
 10
-683.4175
 20
-106.131
 30
0.0
 10
-683.4175
 20
-106.131
 30
0.0
 10
-722.5337
 20
-105.6274
 30
0.0
 10
-722.5337
 20
-105.6274
 30
0.0
 10
-735.496
 20
-149.3098
 30
0.0
 10
-765.5866
 20
-192.1587
 30
0.0
 10
-824.8781
 20
-202.1872
 30
0.0
 10
-828.0194
 20
-241.7505
 30
0.0
 10
-848.722
 20
-264.9142
 30
0.0
 10
-875.0316
 20
-282.8355
 30
0.0
  0
SPLINE
  5
66
330
1F
100
AcDbEntity
  8
Layer 1
 62
   250
370
    20
100
AcDbSpline
210
0.0
220
0.0
230
1.0
 70
    11
 71
     3
 72
    35
 73
    31
 74
     0
 42
0.0000000001
 43
0.0000000001
 40
0.0
 40
0.0
 40
0.0
 40
0.0
 40
0.1
 40
0.1
 40
0.1
 40
0.2
 40
0.2
 40
0.2
 40
0.3
 40
0.3
 40
0.3
 40
0.4
 40
0.4
 40
0.4
 40
0.5
 40
0.5
 40
0.5
 40
0.6000000000000001
 40
0.6000000000000001
 40
0.6000000000000001
 40
0.7000000000000001
 40
0.7000000000000001
 40
0.7000000000000001
 40
0.8
 40
0.8
 40
0.8
 40
0.9
 40
0.9
 40
0.9
 40
1.0
 40
1.0
 40
1.0
 40
1.0
 10
-875.0316
 20
108.8166
 30
0.0
 10
-852.5973
 20
94.3667
 30
0.0
 10
-833.3793
 20
71.6548
 30
0.0
 10
-821.235
 20
30.7697
 30
0.0
 10
-735.2534
 20
1.6575
 30
0.0
 10
-736.5551
 20
-42.1732
 30
0.0
 10
-720.4964
 20
-71.7932
 30
0.0
 10
-720.4964
 20
-71.7932
 30
0.0
 10
-684.4901
 20
-70.4896
 30
0.0
 10
-684.4901
 20
-70.4896
 30
0.0
 10
-665.1523
 20
-18.9102
 30
0.0
 10
-635.0421
 20
12.6246
 30
0.0
 10
-579.683
 20
28.1682
 30
0.0
 10
-577.8509
 20
49.5303
 30
0.0
 10
-563.6378
 20
74.6452
 30
0.0
 10
-528.349
 20
108.0165
 30
0.0
 10
-558.7976
 20
129.6695
 30
0.0
 10
-579.6815
 20
156.2012
 30
0.0
 10
-581.8282
 20
189.8677
 30
0.0
 10
-656.5806
 20
212.132
 30
0.0
 10
-673.1906
 20
246.3033
 30
0.0
 10
-683.4175
 20
285.5211
 30
0.0
 10
-683.4175
 20
285.5211
 30
0.0
 10
-722.5337
 20
286.0246
 30
0.0
 10
-722.5337
 20
286.0246
 30
0.0
 10
-735.496
 20
242.3422
 30
0.0
 10
-765.5866
 20
199.4934
 30
0.0
 10
-824.8781
 20
189.4649
 30
0.0
 10
-828.0194
 20
149.9016
 30
0.0
 10
-848.722
 20
126.7379
 30
0.0
 10
-875.0316
 20
108.8166
 30
0.0
  0
SPLINE
  5
67
330
1F
100
AcDbEntity
  8
Layer 1
 62
   250
370
    20
100
AcDbSpline
210
0.0
220
0.0
230
1.0
 70
    11
 71
     3
 72
    29
 73
    25
 74
     0
 42
0.0000000001
 43
0.0000000001
 40
0.0
 40
0.0
 40
0.0
 40
0.0
 40
0.125
 40
0.125
 40
0.125
 40
0.25
 40
0.25
 40
0.25
 40
0.375
 40
0.375
 40
0.375
 40
0.5
 40
0.5
 40
0.5
 40
0.625
 40
0.625
 40
0.625
 40
0.75
 40
0.75
 40
0.75
 40
0.875
 40
0.875
 40
0.875
 40
1.0
 40
1.0
 40
1.0
 40
1.0
 10
-546.5349
 20
-165.6255
 30
0.0
 10
-683.0026
 20
-173.3827
 30
0.0
 10
-685.338
 20
-0.028
 30
0.0
 10
-545.5522
 20
-6.8913
 30
0.0
 10
-548.6037
 20
33.1055
 30
0.0
 10
-537.2936
 20
55.8874
 30
0.0
 10
-521.9674
 20
73.8521
 30
0.0
 10
-493.3913
 20
35.0036
 30
0.0
 10
-436.5597
 20
36.2288
 30
0.0
 10
-411.9053
 20
73.8521
 30
0.0
 10
-391.5158
 20
49.9192
 30
0.0
 10
-385.1298
 20
21.6265
 30
0.0
 10
-388.3205
 20
-9.6439
 30
0.0
 10
-248.4164
 20
10.8427
 30
0.0
 10
-252.3547
 20
-186.4268
 30
0.0
 10
-388.3205
 20
-166.5431
 30
0.0
 10
-381.4432
 20
-196.8205
 30
0.0
 10
-387.0128
 20
-222.8164
 30
0.0
 10
-408.9572
 20
-248.204
 30
0.0
 10
-432.5434
 20
-213.641
 30
0.0
 10
-488.5587
 20
-211.806
 30
0.0
 10
-518.0366
 20
-245.4514
 30
0.0
 10
-543.7576
 20
-225.7244
 30
0.0
 10
-549.6508
 20
-197.5856
 30
0.0
 10
-546.5349
 20
-165.6255
 30
0.0
  0
SPLINE
  5
68
330
1F
100
AcDbEntity
  8
Layer 1
 62
   250
370
    20
100
AcDbSpline
210
0.0
220
0.0
230
1.0
 70
    11
 71
     3
 72
    17
 73
    13
 74
     0
 42
0.0000000001
 43
0.0000000001
 40
0.0
 40
0.0
 40
0.0
 40
0.0
 40
0.25
 40
0.25
 40
0.25
 40
0.5
 40
0.5
 40
0.5
 40
0.75
 40
0.75
 40
0.75
 40
1.0
 40
1.0
 40
1.0
 40
1.0
 10
-497.4
 20
-281.2354
 30
0.0
 10
-497.4
 20
-264.0526
 30
0.0
 10
-483.4954
 20
-250.0391
 30
0.0
 10
-466.4451
 20
-250.0391
 30
0.0
 10
-449.3946
 20
-250.0391
 30
0.0
 10
-435.4901
 20
-264.0526
 30
0.0
 10
-435.4901
 20
-281.2354
 30
0.0
 10
-435.4901
 20
-298.4183
 30
0.0
 10
-449.3946
 20
-312.4318
 30
0.0
 10
-466.4451
 20
-312.4318
 30
0.0
 10
-483.4954
 20
-312.4318
 30
0.0
 10
-497.4
 20
-298.4183
 30
0.0
 10
-497.4
 20
-281.2354
 30
0.0
  0
SPLINE
  5
69
330
1F
100
AcDbEntity
  8
Layer 1
 62
   250
370
    20
100
AcDbSpline
210
0.0
220
0.0
230
1.0
 70
    11
 71
     3
 72
    29
 73
    25
 74
     0
 42
0.0000000001
 43
0.0000000001
 40
0.0
 40
0.0
 40
0.0
 40
0.0
 40
0.125
 40
0.125
 40
0.125
 40
0.25
 40
0.25
 40
0.25
 40
0.375
 40
0.375
 40
0.375
 40
0.5
 40
0.5
 40
0.5
 40
0.625
 40
0.625
 40
0.625
 40
0.75
 40
0.75
 40
0.75
 40
0.875
 40
0.875
 40
0.875
 40
1.0
 40
1.0
 40
1.0
 40
1.0
 10
-546.5349
 20
224.6083
 30
0.0
 10
-683.0026
 20
216.8511
 30
0.0
 10
-685.338
 20
390.2058
 30
0.0
 10
-545.5522
 20
383.3425
 30
0.0
 10
-548.6037
 20
423.3394
 30
0.0
 10
-537.2936
 20
446.1212
 30
0.0
 10
-521.9674
 20
464.0859
 30
0.0
 10
-493.3913
 20
425.2374
 30
0.0
 10
-436.5597
 20
426.4627
 30
0.0
 10
-411.9053
 20
464.0859
 30
0.0
 10
-391.5158
 20
440.153
 30
0.0
 10
-385.1298
 20
411.8603
 30
0.0
 10
-388.3205
 20
380.5899
 30
0.0
 10
-248.4164
 20
401.0765
 30
0.0
 10
-252.3547
 20
203.807
 30
0.0
 10
-388.3205
 20
223.6907
 30
0.0
 10
-381.4432
 20
193.4133
 30
0.0
 10
-387.0128
 20
167.4174
 30
0.0
 10
-408.9572
 20
142.0298
 30
0.0
 10
-432.5434
 20
176.5928
 30
0.0
 10
-488.5587
 20
178.4278
 30
0.0
 10
-518.0366
 20
144.7824
 30
0.0
 10
-543.7576
 20
164.5094
 30
0.0
 10
-549.6508
 20
192.6482
 30
0.0
 10
-546.5349
 20
224.6083
 30
0.0
  0
SPLINE
  5
6A
330
1F
100
AcDbEntity
  8
Layer 1
 62
   250
370
    20
100
AcDbSpline
210
0.0
220
0.0
230
1.0
 70
    11
 71
     3
 72
    17
 73
    13
 74
     0
 42
0.0000000001
 43
0.0000000001
 40
0.0
 40
0.0
 40
0.0
 40
0.0
 40
0.25
 40
0.25
 40
0.25
 40
0.5
 40
0.5
 40
0.5
 40
0.75
 40
0.75
 40
0.75
 40
1.0
 40
1.0
 40
1.0
 40
1.0
 10
-497.4
 20
108.9983
 30
0.0
 10
-497.4
 20
126.1812
 30
0.0
 10
-483.4954
 20
140.1947
 30
0.0
 10
-466.4451
 20
140.1947
 30
0.0
 10
-449.3946
 20
140.1947
 30
0.0
 10
-435.4901
 20
126.1812
 30
0.0
 10
-435.4901
 20
108.9983
 30
0.0
 10
-435.4901
 20
91.8155
 30
0.0
 10
-449.3946
 20
77.802
 30
0.0
 10
-466.4451
 20
77.802
 30
0.0
 10
-483.4954
 20
77.802
 30
0.0
 10
-497.4
 20
91.8155
 30
0.0
 10
-497.4
 20
108.9983
 30
0.0
  0
SPLINE
  5
6B
330
1F
100
AcDbEntity
  8
Layer 1
 62
   250
370
    20
100
AcDbSpline
210
0.0
220
0.0
230
1.0
 70
    11
 71
     3
 72
    17
 73
    13
 74
     0
 42
0.0000000001
 43
0.0000000001
 40
0.0
 40
0.0
 40
0.0
 40
0.0
 40
0.25
 40
0.25
 40
0.25
 40
0.5
 40
0.5
 40
0.5
 40
0.75
 40
0.75
 40
0.75
 40
1.0
 40
1.0
 40
1.0
 40
1.0
 10
-497.4
 20
499.2321
 30
0.0
 10
-497.4
 20
516.415
 30
0.0
 10
-483.4954
 20
530.4285
 30
0.0
 10
-466.4451
 20
530.4285
 30
0.0
 10
-449.3946
 20
530.4285
 30
0.0
 10
-435.4901
 20
516.415
 30
0.0
 10
-435.4901
 20
499.2321
 30
0.0
 10
-435.4901
 20
482.0493
 30
0.0
 10
-449.3946
 20
468.0359
 30
0.0
 10
-466.4451
 20
468.0359
 30
0.0
 10
-483.4954
 20
468.0359
 30
0.0
 10
-497.4
 20
482.0493
 30
0.0
 10
-497.4
 20
499.2321
 30
0.0
  0
SPLINE
  5
6C
330
1F
100
AcDbEntity
  8
Layer 1
 62
   250
370
    20
100
AcDbSpline
210
0.0
220
0.0
230
1.0
 70
    11
 71
     3
 72
    35
 73
    31
 74
     0
 42
0.0000000001
 43
0.0000000001
 40
0.0
 40
0.0
 40
0.0
 40
0.0
 40
0.1
 40
0.1
 40
0.1
 40
0.2
 40
0.2
 40
0.2
 40
0.3
 40
0.3
 40
0.3
 40
0.4
 40
0.4
 40
0.4
 40
0.5
 40
0.5
 40
0.5
 40
0.6000000000000001
 40
0.6000000000000001
 40
0.6000000000000001
 40
0.7000000000000001
 40
0.7000000000000001
 40
0.7000000000000001
 40
0.8
 40
0.8
 40
0.8
 40
0.9
 40
0.9
 40
0.9
 40
1.0
 40
1.0
 40
1.0
 40
1.0
 10
-399.8852
 20
-282.8355
 30
0.0
 10
-377.451
 20
-297.2854
 30
0.0
 10
-358.233
 20
-319.9973
 30
0.0
 10
-346.0885
 20
-360.8823
 30
0.0
 10
-260.1069
 20
-389.9946
 30
0.0
 10
-261.4088
 20
-433.8253
 30
0.0
 10
-245.35
 20
-463.4453
 30
0.0
 10
-245.35
 20
-463.4453
 30
0.0
 10
-209.3437
 20
-462.1417
 30
0.0
 10
-209.3437
 20
-462.1417
 30
0.0
 10
-190.0058
 20
-410.5623
 30
0.0
 10
-159.8957
 20
-379.0275
 30
0.0
 10
-104.5365
 20
-363.4839
 30
0.0
 10
-102.7045
 20
-342.1217
 30
0.0
 10
-88.4913
 20
-317.0069
 30
0.0
 10
-53.2025
 20
-283.6356
 30
0.0
 10
-83.6512
 20
-261.9825
 30
0.0
 10
-104.5351
 20
-235.4508
 30
0.0
 10
-106.6817
 20
-201.7844
 30
0.0
 10
-181.4342
 20
-179.5201
 30
0.0
 10
-198.0441
 20
-145.3487
 30
0.0
 10
-208.2712
 20
-106.131
 30
0.0
 10
-208.2712
 20
-106.131
 30
0.0
 10
-247.3873
 20
-105.6274
 30
0.0
 10
-247.3873
 20
-105.6274
 30
0.0
 10
-260.3496
 20
-149.3098
 30
0.0
 10
-290.4403
 20
-192.1587
 30
0.0
 10
-349.7317
 20
-202.1872
 30
0.0
 10
-352.873
 20
-241.7505
 30
0.0
 10
-373.5756
 20
-264.9142
 30
0.0
 10
-399.8852
 20
-282.8355
 30
0.0
  0
SPLINE
  5
6D
330
1F
100
AcDbEntity
  8
Layer 1
 62
   250
370
    20
100
AcDbSpline
210
0.0
220
0.0
230
1.0
 70
    11
 71
     3
 72
    35
 73
    31
 74
     0
 42
0.0000000001
 43
0.0000000001
 40
0.0
 40
0.0
 40
0.0
 40
0.0
 40
0.1
 40
0.1
 40
0.1
 40
0.2
 40
0.2
 40
0.2
 40
0.3
 40
0.3
 40
0.3
 40
0.4
 40
0.4
 40
0.4
 40
0.5
 40
0.5
 40
0.5
 40
0.6000000000000001
 40
0.6000000000000001
 40
0.6000000000000001
 40
0.7000000000000001
 40
0.7000000000000001
 40
0.7000000000000001
 40
0.8
 40
0.8
 40
0.8
 40
0.9
 40
0.9
 40
0.9
 40
1.0
 40
1.0
 40
1.0
 40
1.0
 10
-399.8852
 20
108.8166
 30
0.0
 10
-377.451
 20
94.3667
 30
0.0
 10
-358.233
 20
71.6548
 30
0.0
 10
-346.0885
 20
30.7697
 30
0.0
 10
-260.1069
 20
1.6575
 30
0.0
 10
-261.4088
 20
-42.1732
 30
0.0
 10
-245.35
 20
-71.7932
 30
0.0
 10
-245.35
 20
-71.7932
 30
0.0
 10
-209.3437
 20
-70.4896
 30
0.0
 10
-209.3437
 20
-70.4896
 30
0.0
 10
-190.0058
 20
-18.9102
 30
0.0
 10
-159.8957
 20
12.6246
 30
0.0
 10
-104.5365
 20
28.1682
 30
0.0
 10
-102.7045
 20
49.5303
 30
0.0
 10
-88.4913
 20
74.6452
 30
0.0
 10
-53.2025
 20
108.0165
 30
0.0
 10
-83.6512
 20
129.6695
 30
0.0
 10
-104.5351
 20
156.2012
 30
0.0
 10
-106.6817
 20
189.8677
 30
0.0
 10
-181.4342
 20
212.132
 30
0.0
 10
-198.0441
 20
246.3033
 30
0.0
 10
-208.2712
 20
285.5211
 30
0.0
 10
-208.2712
 20
285.5211
 30
0.0
 10
-247.3873
 20
286.0246
 30
0.0
 10
-247.3873
 20
286.0246
 30
0.0
 10
-260.3496
 20
242.3422
 30
0.0
 10
-290.4403
 20
199.4934
 30
0.0
 10
-349.7317
 20
189.4649
 30
0.0
 10
-352.873
 20
149.9016
 30
0.0
 10
-373.5756
 20
126.7379
 30
0.0
 10
-399.8852
 20
108.8166
 30
0.0
  0
SPLINE
  5
6E
330
1F
100
AcDbEntity
  8
Layer 1
 62
   250
370
    20
100
AcDbSpline
210
0.0
220
0.0
230
1.0
 70
    11
 71
     3
 72
    29
 73
    25
 74
     0
 42
0.0000000001
 43
0.0000000001
 40
0.0
 40
0.0
 40
0.0
 40
0.0
 40
0.125
 40
0.125
 40
0.125
 40
0.25
 40
0.25
 40
0.25
 40
0.375
 40
0.375
 40
0.375
 40
0.5
 40
0.5
 40
0.5
 40
0.625
 40
0.625
 40
0.625
 40
0.75
 40
0.75
 40
0.75
 40
0.875
 40
0.875
 40
0.875
 40
1.0
 40
1.0
 40
1.0
 40
1.0
 10
-67.6764
 20
-165.6255
 30
0.0
 10
-204.1441
 20
-173.3827
 30
0.0
 10
-206.4794
 20
-0.028
 30
0.0
 10
-66.6938
 20
-6.8913
 30
0.0
 10
-69.7451
 20
33.1055
 30
0.0
 10
-58.4352
 20
55.8874
 30
0.0
 10
-43.109
 20
73.8521
 30
0.0
 10
-14.5329
 20
35.0036
 30
0.0
 10
42.2989
 20
36.2288
 30
0.0
 10
66.9532
 20
73.8521
 30
0.0
 10
87.3427
 20
49.9192
 30
0.0
 10
93.7287
 20
21.6265
 30
0.0
 10
90.538
 20
-9.6439
 30
0.0
 10
230.4421
 20
10.8427
 30
0.0
 10
226.5038
 20
-186.4268
 30
0.0
 10
90.538
 20
-166.5431
 30
0.0
 10
97.4153
 20
-196.8205
 30
0.0
 10
91.8457
 20
-222.8164
 30
0.0
 10
69.9013
 20
-248.204
 30
0.0
 10
46.315
 20
-213.641
 30
0.0
 10
-9.7002
 20
-211.806
 30
0.0
 10
-39.1782
 20
-245.4514
 30
0.0
 10
-64.899
 20
-225.7244
 30
0.0
 10
-70.7923
 20
-197.5856
 30
0.0
 10
-67.6764
 20
-165.6255
 30
0.0
  0
SPLINE
  5
6F
330
1F
100
AcDbEntity
  8
Layer 1
 62
   250
370
    20
100
AcDbSpline
210
0.0
220
0.0
230
1.0
 70
    11
 71
     3
 72
    17
 73
    13
 74
     0
 42
0.0000000001
 43
0.0000000001
 40
0.0
 40
0.0
 40
0.0
 40
0.0
 40
0.25
 40
0.25
 40
0.25
 40
0.5
 40
0.5
 40
0.5
 40
0.75
 40
0.75
 40
0.75
 40
1.0
 40
1.0
 40
1.0
 40
1.0
 10
-18.5415
 20
-281.2354
 30
0.0
 10
-18.5415
 20
-264.0526
 30
0.0
 10
-4.6369
 20
-250.0391
 30
0.0
 10
12.4135
 20
-250.0391
 30
0.0
 10
29.4638
 20
-250.0391
 30
0.0
 10
43.3685
 20
-264.0526
 30
0.0
 10
43.3685
 20
-281.2354
 30
0.0
 10
43.3685
 20
-298.4183
 30
0.0
 10
29.4638
 20
-312.4318
 30
0.0
 10
12.4135
 20
-312.4318
 30
0.0
 10
-4.6369
 20
-312.4318
 30
0.0
 10
-18.5415
 20
-298.4183
 30
0.0
 10
-18.5415
 20
-281.2354
 30
0.0
  0
SPLINE
  5
70
330
1F
100
AcDbEntity
  8
Layer 1
 62
   250
370
    20
100
AcDbSpline
210
0.0
220
0.0
230
1.0
 70
    11
 71
     3
 72
    29
 73
    25
 74
     0
 42
0.0000000001
 43
0.0000000001
 40
0.0
 40
0.0
 40
0.0
 40
0.0
 40
0.125
 40
0.125
 40
0.125
 40
0.25
 40
0.25
 40
0.25
 40
0.375
 40
0.375
 40
0.375
 40
0.5
 40
0.5
 40
0.5
 40
0.625
 40
0.625
 40
0.625
 40
0.75
 40
0.75
 40
0.75
 40
0.875
 40
0.875
 40
0.875
 40
1.0
 40
1.0
 40
1.0
 40
1.0
 10
-67.6764
 20
224.6083
 30
0.0
 10
-204.1441
 20
216.8511
 30
0.0
 10
-206.4794
 20
390.2058
 30
0.0
 10
-66.6938
 20
383.3425
 30
0.0
 10
-69.7451
 20
423.3394
 30
0.0
 10
-58.4352
 20
446.1212
 30
0.0
 10
-43.109
 20
464.0859
 30
0.0
 10
-14.5329
 20
425.2374
 30
0.0
 10
42.2989
 20
426.4627
 30
0.0
 10
66.9532
 20
464.0859
 30
0.0
 10
87.3427
 20
440.153
 30
0.0
 10
93.7287
 20
411.8603
 30
0.0
 10
90.538
 20
380.5899
 30
0.0
 10
230.4421
 20
401.0765
 30
0.0
 10
226.5038
 20
203.807
 30
0.0
 10
90.538
 20
223.6907
 30
0.0
 10
97.4153
 20
193.4133
 30
0.0
 10
91.8457
 20
167.4174
 30
0.0
 10
69.9013
 20
142.0298
 30
0.0
 10
46.315
 20
176.5928
 30
0.0
 10
-9.7002
 20
178.4278
 30
0.0
 10
-39.1782
 20
144.7824
 30
0.0
 10
-64.899
 20
164.5094
 30
0.0
 10
-70.7923
 20
192.6482
 30
0.0
 10
-67.6764
 20
224.6083
 30
0.0
  0
SPLINE
  5
71
330
1F
100
AcDbEntity
  8
Layer 1
 62
   250
370
    20
100
AcDbSpline
210
0.0
220
0.0
230
1.0
 70
    11
 71
     3
 72
    17
 73
    13
 74
     0
 42
0.0000000001
 43
0.0000000001
 40
0.0
 40
0.0
 40
0.0
 40
0.0
 40
0.25
 40
0.25
 40
0.25
 40
0.5
 40
0.5
 40
0.5
 40
0.75
 40
0.75
 40
0.75
 40
1.0
 40
1.0
 40
1.0
 40
1.0
 10
-18.5415
 20
108.9983
 30
0.0
 10
-18.5415
 20
126.1812
 30
0.0
 10
-4.6369
 20
140.1947
 30
0.0
 10
12.4135
 20
140.1947
 30
0.0
 10
29.4638
 20
140.1947
 30
0.0
 10
43.3685
 20
126.1812
 30
0.0
 10
43.3685
 20
108.9983
 30
0.0
 10
43.3685
 20
91.8155
 30
0.0
 10
29.4638
 20
77.802
 30
0.0
 10
12.4135
 20
77.802
 30
0.0
 10
-4.6369
 20
77.802
 30
0.0
 10
-18.5415
 20
91.8155
 30
0.0
 10
-18.5415
 20
108.9983
 30
0.0
  0
SPLINE
  5
72
330
1F
100
AcDbEntity
  8
Layer 1
 62
   250
370
    20
100
AcDbSpline
210
0.0
220
0.0
230
1.0
 70
    11
 71
     3
 72
    17
 73
    13
 74
     0
 42
0.0000000001
 43
0.0000000001
 40
0.0
 40
0.0
 40
0.0
 40
0.0
 40
0.25
 40
0.25
 40
0.25
 40
0.5
 40
0.5
 40
0.5
 40
0.75
 40
0.75
 40
0.75
 40
1.0
 40
1.0
 40
1.0
 40
1.0
 10
-18.5415
 20
499.2321
 30
0.0
 10
-18.5415
 20
516.415
 30
0.0
 10
-4.6369
 20
530.4285
 30
0.0
 10
12.4135
 20
530.4285
 30
0.0
 10
29.4638
 20
530.4285
 30
0.0
 10
43.3685
 20
516.415
 30
0.0
 10
43.3685
 20
499.2321
 30
0.0
 10
43.3685
 20
482.0493
 30
0.0
 10
29.4638
 20
468.0359
 30
0.0
 10
12.4135
 20
468.0359
 30
0.0
 10
-4.6369
 20
468.0359
 30
0.0
 10
-18.5415
 20
482.0493
 30
0.0
 10
-18.5415
 20
499.2321
 30
0.0
  0
SPLINE
  5
73
330
1F
100
AcDbEntity
  8
Layer 1
 62
   250
370
    20
100
AcDbSpline
210
0.0
220
0.0
230
1.0
 70
    11
 71
     3
 72
    35
 73
    31
 74
     0
 42
0.0000000001
 43
0.0000000001
 40
0.0
 40
0.0
 40
0.0
 40
0.0
 40
0.1
 40
0.1
 40
0.1
 40
0.2
 40
0.2
 40
0.2
 40
0.3
 40
0.3
 40
0.3
 40
0.4
 40
0.4
 40
0.4
 40
0.5
 40
0.5
 40
0.5
 40
0.6000000000000001
 40
0.6000000000000001
 40
0.6000000000000001
 40
0.7000000000000001
 40
0.7000000000000001
 40
0.7000000000000001
 40
0.8
 40
0.8
 40
0.8
 40
0.9
 40
0.9
 40
0.9
 40
1.0
 40
1.0
 40
1.0
 40
1.0
 10
78.9732
 20
-282.8355
 30
0.0
 10
101.4076
 20
-297.2854
 30
0.0
 10
120.6256
 20
-319.9973
 30
0.0
 10
132.7699
 20
-360.8823
 30
0.0
 10
218.7515
 20
-389.9946
 30
0.0
 10
217.4498
 20
-433.8253
 30
0.0
 10
233.5085
 20
-463.4453
 30
0.0
 10
233.5085
 20
-463.4453
 30
0.0
 10
269.5148
 20
-462.1417
 30
0.0
 10
269.5148
 20
-462.1417
 30
0.0
 10
288.8526
 20
-410.5623
 30
0.0
 10
318.9628
 20
-379.0275
 30
0.0
 10
374.3219
 20
-363.4839
 30
0.0
 10
376.154
 20
-342.1217
 30
0.0
 10
390.3672
 20
-317.0069
 30
0.0
 10
425.6559
 20
-283.6356
 30
0.0
 10
395.2073
 20
-261.9825
 30
0.0
 10
374.3234
 20
-235.4508
 30
0.0
 10
372.1768
 20
-201.7844
 30
0.0
 10
297.4243
 20
-179.5201
 30
0.0
 10
280.8143
 20
-145.3487
 30
0.0
 10
270.5874
 20
-106.131
 30
0.0
 10
270.5874
 20
-106.131
 30
0.0
 10
231.4712
 20
-105.6274
 30
0.0
 10
231.4712
 20
-105.6274
 30
0.0
 10
218.5088
 20
-149.3098
 30
0.0
 10
188.4183
 20
-192.1587
 30
0.0
 10
129.1268
 20
-202.1872
 30
0.0
 10
125.9855
 20
-241.7505
 30
0.0
 10
105.2829
 20
-264.9142
 30
0.0
 10
78.9732
 20
-282.8355
 30
0.0
  0
SPLINE
  5
74
330
1F
100
AcDbEntity
  8
Layer 1
 62
   250
370
    20
100
AcDbSpline
210
0.0
220
0.0
230
1.0
 70
    11
 71
     3
 72
    35
 73
    31
 74
     0
 42
0.0000000001
 43
0.0000000001
 40
0.0
 40
0.0
 40
0.0
 40
0.0
 40
0.1
 40
0.1
 40
0.1
 40
0.2
 40
0.2
 40
0.2
 40
0.3
 40
0.3
 40
0.3
 40
0.4
 40
0.4
 40
0.4
 40
0.5
 40
0.5
 40
0.5
 40
0.6000000000000001
 40
0.6000000000000001
 40
0.6000000000000001
 40
0.7000000000000001
 40
0.7000000000000001
 40
0.7000000000000001
 40
0.8
 40
0.8
 40
0.8
 40
0.9
 40
0.9
 40
0.9
 40
1.0
 40
1.0
 40
1.0
 40
1.0
 10
78.9732
 20
108.8166
 30
0.0
 10
101.4076
 20
94.3667
 30
0.0
 10
120.6256
 20
71.6548
 30
0.0
 10
132.7699
 20
30.7697
 30
0.0
 10
218.7515
 20
1.6575
 30
0.0
 10
217.4498
 20
-42.1732
 30
0.0
 10
233.5085
 20
-71.7932
 30
0.0
 10
233.5085
 20
-71.7932
 30
0.0
 10
269.5148
 20
-70.4896
 30
0.0
 10
269.5148
 20
-70.4896
 30
0.0
 10
288.8526
 20
-18.9102
 30
0.0
 10
318.9628
 20
12.6246
 30
0.0
 10
374.3219
 20
28.1682
 30
0.0
 10
376.154
 20
49.5303
 30
0.0
 10
390.3672
 20
74.6452
 30
0.0
 10
425.6559
 20
108.0165
 30
0.0
 10
395.2073
 20
129.6695
 30
0.0
 10
374.3234
 20
156.2012
 30
0.0
 10
372.1768
 20
189.8677
 30
0.0
 10
297.4243
 20
212.132
 30
0.0
 10
280.8143
 20
246.3033
 30
0.0
 10
270.5874
 20
285.5211
 30
0.0
 10
270.5874
 20
285.5211
 30
0.0
 10
231.4712
 20
286.0246
 30
0.0
 10
231.4712
 20
286.0246
 30
0.0
 10
218.5088
 20
242.3422
 30
0.0
 10
188.4183
 20
199.4934
 30
0.0
 10
129.1268
 20
189.4649
 30
0.0
 10
125.9855
 20
149.9016
 30
0.0
 10
105.2829
 20
126.7379
 30
0.0
 10
78.9732
 20
108.8166
 30
0.0
  0
SPLINE
  5
75
330
1F
100
AcDbEntity
  8
Layer 1
 62
   250
370
    20
100
AcDbSpline
210
0.0
220
0.0
230
1.0
 70
    11
 71
     3
 72
    29
 73
    25
 74
     0
 42
0.0000000001
 43
0.0000000001
 40
0.0
 40
0.0
 40
0.0
 40
0.0
 40
0.125
 40
0.125
 40
0.125
 40
0.25
 40
0.25
 40
0.25
 40
0.375
 40
0.375
 40
0.375
 40
0.5
 40
0.5
 40
0.5
 40
0.625
 40
0.625
 40
0.625
 40
0.75
 40
0.75
 40
0.75
 40
0.875
 40
0.875
 40
0.875
 40
1.0
 40
1.0
 40
1.0
 40
1.0
 10
411.1821
 20
-165.6255
 30
0.0
 10
274.7145
 20
-173.3827
 30
0.0
 10
272.379
 20
-0.028
 30
0.0
 10
412.1648
 20
-6.8913
 30
0.0
 10
409.1133
 20
33.1055
 30
0.0
 10
420.4233
 20
55.8874
 30
0.0
 10
435.7495
 20
73.8521
 30
0.0
 10
464.3257
 20
35.0036
 30
0.0
 10
521.1574
 20
36.2288
 30
0.0
 10
545.8117
 20
73.8521
 30
0.0
 10
566.2012
 20
49.9192
 30
0.0
 10
572.5873
 20
21.6265
 30
0.0
 10
569.3964
 20
-9.6439
 30
0.0
 10
709.3005
 20
10.8427
 30
0.0
 10
705.3623
 20
-186.4268
 30
0.0
 10
569.3964
 20
-166.5431
 30
0.0
 10
576.2739
 20
-196.8205
 30
0.0
 10
570.7042
 20
-222.8164
 30
0.0
 10
548.7598
 20
-248.204
 30
0.0
 10
525.1736
 20
-213.641
 30
0.0
 10
469.1582
 20
-211.806
 30
0.0
 10
439.6803
 20
-245.4514
 30
0.0
 10
413.9594
 20
-225.7244
 30
0.0
 10
408.0663
 20
-197.5856
 30
0.0
 10
411.1821
 20
-165.6255
 30
0.0
  0
SPLINE
  5
76
330
1F
100
AcDbEntity
  8
Layer 1
 62
   250
370
    20
100
AcDbSpline
210
0.0
220
0.0
230
1.0
 70
    11
 71
     3
 72
    17
 73
    13
 74
     0
 42
0.0000000001
 43
0.0000000001
 40
0.0
 40
0.0
 40
0.0
 40
0.0
 40
0.25
 40
0.25
 40
0.25
 40
0.5
 40
0.5
 40
0.5
 40
0.75
 40
0.75
 40
0.75
 40
1.0
 40
1.0
 40
1.0
 40
1.0
 10
460.317
 20
-281.2354
 30
0.0
 10
460.317
 20
-264.0526
 30
0.0
 10
474.2215
 20
-250.0391
 30
0.0
 10
491.272
 20
-250.0391
 30
0.0
 10
508.3224
 20
-250.0391
 30
0.0
 10
522.227
 20
-264.0526
 30
0.0
 10
522.227
 20
-281.2354
 30
0.0
 10
522.227
 20
-298.4183
 30
0.0
 10
508.3224
 20
-312.4318
 30
0.0
 10
491.272
 20
-312.4318
 30
0.0
 10
474.2215
 20
-312.4318
 30
0.0
 10
460.317
 20
-298.4183
 30
0.0
 10
460.317
 20
-281.2354
 30
0.0
  0
SPLINE
  5
77
330
1F
100
AcDbEntity
  8
Layer 1
 62
   250
370
    20
100
AcDbSpline
210
0.0
220
0.0
230
1.0
 70
    11
 71
     3
 72
    29
 73
    25
 74
     0
 42
0.0000000001
 43
0.0000000001
 40
0.0
 40
0.0
 40
0.0
 40
0.0
 40
0.125
 40
0.125
 40
0.125
 40
0.25
 40
0.25
 40
0.25
 40
0.375
 40
0.375
 40
0.375
 40
0.5
 40
0.5
 40
0.5
 40
0.625
 40
0.625
 40
0.625
 40
0.75
 40
0.75
 40
0.75
 40
0.875
 40
0.875
 40
0.875
 40
1.0
 40
1.0
 40
1.0
 40
1.0
 10
411.1821
 20
224.6083
 30
0.0
 10
274.7145
 20
216.8511
 30
0.0
 10
272.379
 20
390.2058
 30
0.0
 10
412.1648
 20
383.3425
 30
0.0
 10
409.1133
 20
423.3394
 30
0.0
 10
420.4233
 20
446.1212
 30
0.0
 10
435.7495
 20
464.0859
 30
0.0
 10
464.3257
 20
425.2374
 30
0.0
 10
521.1574
 20
426.4627
 30
0.0
 10
545.8117
 20
464.0859
 30
0.0
 10
566.2012
 20
440.153
 30
0.0
 10
572.5873
 20
411.8603
 30
0.0
 10
569.3964
 20
380.5899
 30
0.0
 10
709.3005
 20
401.0765
 30
0.0
 10
705.3623
 20
203.807
 30
0.0
 10
569.3964
 20
223.6907
 30
0.0
 10
576.2739
 20
193.4133
 30
0.0
 10
570.7042
 20
167.4174
 30
0.0
 10
548.7598
 20
142.0298
 30
0.0
 10
525.1736
 20
176.5928
 30
0.0
 10
469.1582
 20
178.4278
 30
0.0
 10
439.6803
 20
144.7824
 30
0.0
 10
413.9594
 20
164.5094
 30
0.0
 10
408.0663
 20
192.6482
 30
0.0
 10
411.1821
 20
224.6083
 30
0.0
  0
SPLINE
  5
78
330
1F
100
AcDbEntity
  8
Layer 1
 62
   250
370
    20
100
AcDbSpline
210
0.0
220
0.0
230
1.0
 70
    11
 71
     3
 72
    17
 73
    13
 74
     0
 42
0.0000000001
 43
0.0000000001
 40
0.0
 40
0.0
 40
0.0
 40
0.0
 40
0.25
 40
0.25
 40
0.25
 40
0.5
 40
0.5
 40
0.5
 40
0.75
 40
0.75
 40
0.75
 40
1.0
 40
1.0
 40
1.0
 40
1.0
 10
460.317
 20
108.9983
 30
0.0
 10
460.317
 20
126.1812
 30
0.0
 10
474.2215
 20
140.1947
 30
0.0
 10
491.272
 20
140.1947
 30
0.0
 10
508.3224
 20
140.1947
 30
0.0
 10
522.227
 20
126.1812
 30
0.0
 10
522.227
 20
108.9983
 30
0.0
 10
522.227
 20
91.8155
 30
0.0
 10
508.3224
 20
77.802
 30
0.0
 10
491.272
 20
77.802
 30
0.0
 10
474.2215
 20
77.802
 30
0.0
 10
460.317
 20
91.8155
 30
0.0
 10
460.317
 20
108.9983
 30
0.0
  0
SPLINE
  5
79
330
1F
100
AcDbEntity
  8
Layer 1
 62
   250
370
    20
100
AcDbSpline
210
0.0
220
0.0
230
1.0
 70
    11
 71
     3
 72
    17
 73
    13
 74
     0
 42
0.0000000001
 43
0.0000000001
 40
0.0
 40
0.0
 40
0.0
 40
0.0
 40
0.25
 40
0.25
 40
0.25
 40
0.5
 40
0.5
 40
0.5
 40
0.75
 40
0.75
 40
0.75
 40
1.0
 40
1.0
 40
1.0
 40
1.0
 10
460.317
 20
499.2321
 30
0.0
 10
460.317
 20
516.415
 30
0.0
 10
474.2215
 20
530.4285
 30
0.0
 10
491.272
 20
530.4285
 30
0.0
 10
508.3224
 20
530.4285
 30
0.0
 10
522.227
 20
516.415
 30
0.0
 10
522.227
 20
499.2321
 30
0.0
 10
522.227
 20
482.0493
 30
0.0
 10
508.3224
 20
468.0359
 30
0.0
 10
491.272
 20
468.0359
 30
0.0
 10
474.2215
 20
468.0359
 30
0.0
 10
460.317
 20
482.0493
 30
0.0
 10
460.317
 20
499.2321
 30
0.0
  0
SPLINE
  5
7A
330
1F
100
AcDbEntity
  8
Layer 1
 62
   250
370
    20
100
AcDbSpline
210
0.0
220
0.0
230
1.0
 70
    11
 71
     3
 72
    35
 73
    31
 74
     0
 42
0.0000000001
 43
0.0000000001
 40
0.0
 40
0.0
 40
0.0
 40
0.0
 40
0.1
 40
0.1
 40
0.1
 40
0.2
 40
0.2
 40
0.2
 40
0.3
 40
0.3
 40
0.3
 40
0.4
 40
0.4
 40
0.4
 40
0.5
 40
0.5
 40
0.5
 40
0.6000000000000001
 40
0.6000000000000001
 40
0.6000000000000001
 40
0.7000000000000001
 40
0.7000000000000001
 40
0.7000000000000001
 40
0.8
 40
0.8
 40
0.8
 40
0.9
 40
0.9
 40
0.9
 40
1.0
 40
1.0
 40
1.0
 40
1.0
 10
557.8318
 20
-282.8355
 30
0.0
 10
580.2661
 20
-297.2854
 30
0.0
 10
599.4841
 20
-319.9973
 30
0.0
 10
611.6285
 20
-360.8823
 30
0.0
 10
697.6101
 20
-389.9946
 30
0.0
 10
696.3083
 20
-433.8253
 30
0.0
 10
712.367
 20
-463.4453
 30
0.0
 10
712.367
 20
-463.4453
 30
0.0
 10
748.3733
 20
-462.1417
 30
0.0
 10
748.3733
 20
-462.1417
 30
0.0
 10
767.7112
 20
-410.5623
 30
0.0
 10
797.8213
 20
-379.0275
 30
0.0
 10
853.1804
 20
-363.4839
 30
0.0
 10
855.0125
 20
-342.1217
 30
0.0
 10
869.2256
 20
-317.0069
 30
0.0
 10
904.5144
 20
-283.6356
 30
0.0
 10
874.0657
 20
-261.9825
 30
0.0
 10
853.1819
 20
-235.4508
 30
0.0
 10
851.0352
 20
-201.7844
 30
0.0
 10
776.2828
 20
-179.5201
 30
0.0
 10
759.6728
 20
-145.3487
 30
0.0
 10
749.4459
 20
-106.131
 30
0.0
 10
749.4459
 20
-106.131
 30
0.0
 10
710.3296
 20
-105.6274
 30
0.0
 10
710.3296
 20
-105.6274
 30
0.0
 10
697.3674
 20
-149.3098
 30
0.0
 10
667.2768
 20
-192.1587
 30
0.0
 10
607.9853
 20
-202.1872
 30
0.0
 10
604.844
 20
-241.7505
 30
0.0
 10
584.1414
 20
-264.9142
 30
0.0
 10
557.8318
 20
-282.8355
 30
0.0
  0
SPLINE
  5
7B
330
1F
100
AcDbEntity
  8
Layer 1
 62
   250
370
    20
100
AcDbSpline
210
0.0
220
0.0
230
1.0
 70
    11
 71
     3
 72
    35
 73
    31
 74
     0
 42
0.0000000001
 43
0.0000000001
 40
0.0
 40
0.0
 40
0.0
 40
0.0
 40
0.1
 40
0.1
 40
0.1
 40
0.2
 40
0.2
 40
0.2
 40
0.3
 40
0.3
 40
0.3
 40
0.4
 40
0.4
 40
0.4
 40
0.5
 40
0.5
 40
0.5
 40
0.6000000000000001
 40
0.6000000000000001
 40
0.6000000000000001
 40
0.7000000000000001
 40
0.7000000000000001
 40
0.7000000000000001
 40
0.8
 40
0.8
 40
0.8
 40
0.9
 40
0.9
 40
0.9
 40
1.0
 40
1.0
 40
1.0
 40
1.0
 10
557.8318
 20
108.8166
 30
0.0
 10
580.2661
 20
94.3667
 30
0.0
 10
599.4841
 20
71.6548
 30
0.0
 10
611.6285
 20
30.7697
 30
0.0
 10
697.6101
 20
1.6575
 30
0.0
 10
696.3083
 20
-42.1732
 30
0.0
 10
712.367
 20
-71.7932
 30
0.0
 10
712.367
 20
-71.7932
 30
0.0
 10
748.3733
 20
-70.4896
 30
0.0
 10
748.3733
 20
-70.4896
 30
0.0
 10
767.7112
 20
-18.9102
 30
0.0
 10
797.8213
 20
12.6246
 30
0.0
 10
853.1804
 20
28.1682
 30
0.0
 10
855.0125
 20
49.5303
 30
0.0
 10
869.2256
 20
74.6452
 30
0.0
 10
904.5144
 20
108.0165
 30
0.0
 10
874.0657
 20
129.6695
 30
0.0
 10
853.1819
 20
156.2012
 30
0.0
 10
851.0352
 20
189.8677
 30
0.0
 10
776.2828
 20
212.132
 30
0.0
 10
759.6728
 20
246.3033
 30
0.0
 10
749.4459
 20
285.5211
 30
0.0
 10
749.4459
 20
285.5211
 30
0.0
 10
710.3296
 20
286.0246
 30
0.0
 10
710.3296
 20
286.0246
 30
0.0
 10
697.3674
 20
242.3422
 30
0.0
 10
667.2768
 20
199.4934
 30
0.0
 10
607.9853
 20
189.4649
 30
0.0
 10
604.844
 20
149.9016
 30
0.0
 10
584.1414
 20
126.7379
 30
0.0
 10
557.8318
 20
108.8166
 30
0.0
  0
SPLINE
  5
7C
330
1F
100
AcDbEntity
  8
Layer 1
 62
   250
370
    20
100
AcDbSpline
210
0.0
220
0.0
230
1.0
 70
    11
 71
     3
 72
    29
 73
    25
 74
     0
 42
0.0000000001
 43
0.0000000001
 40
0.0
 40
0.0
 40
0.0
 40
0.0
 40
0.125
 40
0.125
 40
0.125
 40
0.25
 40
0.25
 40
0.25
 40
0.375
 40
0.375
 40
0.375
 40
0.5
 40
0.5
 40
0.5
 40
0.625
 40
0.625
 40
0.625
 40
0.75
 40
0.75
 40
0.75
 40
0.875
 40
0.875
 40
0.875
 40
1.0
 40
1.0
 40
1.0
 40
1.0
 10
890.0406
 20
-165.6255
 30
0.0
 10
753.5729
 20
-173.3827
 30
0.0
 10
751.2375
 20
-0.028
 30
0.0
 10
891.0233
 20
-6.8913
 30
0.0
 10
887.9718
 20
33.1055
 30
0.0
 10
899.2819
 20
55.8874
 30
0.0
 10
914.6081
 20
73.8521
 30
0.0
 10
943.1842
 20
35.0036
 30
0.0
 10
1000.0158
 20
36.2288
 30
0.0
 10
1024.6702
 20
73.8521
 30
0.0
 10
1045.0597
 20
49.9192
 30
0.0
 10
1051.4457
 20
21.6265
 30
0.0
 10
1048.2549
 20
-9.6439
 30
0.0
 10
1188.1591
 20
10.8427
 30
0.0
 10
1184.2208
 20
-186.4268
 30
0.0
 10
1048.2549
 20
-166.5431
 30
0.0
 10
1055.1323
 20
-196.8205
 30
0.0
 10
1049.5627
 20
-222.8164
 30
0.0
 10
1027.6183
 20
-248.204
 30
0.0
 10
1004.032
 20
-213.641
 30
0.0
 10
948.0168
 20
-211.806
 30
0.0
 10
918.5389
 20
-245.4514
 30
0.0
 10
892.8179
 20
-225.7244
 30
0.0
 10
886.9247
 20
-197.5856
 30
0.0
 10
890.0406
 20
-165.6255
 30
0.0
  0
SPLINE
  5
7D
330
1F
100
AcDbEntity
  8
Layer 1
 62
   250
370
    20
100
AcDbSpline
210
0.0
220
0.0
230
1.0
 70
    11
 71
     3
 72
    17
 73
    13
 74
     0
 42
0.0000000001
 43
0.0000000001
 40
0.0
 40
0.0
 40
0.0
 40
0.0
 40
0.25
 40
0.25
 40
0.25
 40
0.5
 40
0.5
 40
0.5
 40
0.75
 40
0.75
 40
0.75
 40
1.0
 40
1.0
 40
1.0
 40
1.0
 10
939.1755
 20
-281.2354
 30
0.0
 10
939.1755
 20
-264.0526
 30
0.0
 10
953.0801
 20
-250.0391
 30
0.0
 10
970.1304
 20
-250.0391
 30
0.0
 10
987.1809
 20
-250.0391
 30
0.0
 10
1001.0854
 20
-264.0526
 30
0.0
 10
1001.0854
 20
-281.2354
 30
0.0
 10
1001.0854
 20
-298.4183
 30
0.0
 10
987.1809
 20
-312.4318
 30
0.0
 10
970.1304
 20
-312.4318
 30
0.0
 10
953.0801
 20
-312.4318
 30
0.0
 10
939.1755
 20
-298.4183
 30
0.0
 10
939.1755
 20
-281.2354
 30
0.0
  0
SPLINE
  5
7E
330
1F
100
AcDbEntity
  8
Layer 1
 62
   250
370
    20
100
AcDbSpline
210
0.0
220
0.0
230
1.0
 70
    11
 71
     3
 72
    29
 73
    25
 74
     0
 42
0.0000000001
 43
0.0000000001
 40
0.0
 40
0.0
 40
0.0
 40
0.0
 40
0.125
 40
0.125
 40
0.125
 40
0.25
 40
0.25
 40
0.25
 40
0.375
 40
0.375
 40
0.375
 40
0.5
 40
0.5
 40
0.5
 40
0.625
 40
0.625
 40
0.625
 40
0.75
 40
0.75
 40
0.75
 40
0.875
 40
0.875
 40
0.875
 40
1.0
 40
1.0
 40
1.0
 40
1.0
 10
890.0406
 20
224.6083
 30
0.0
 10
753.5729
 20
216.8511
 30
0.0
 10
751.2375
 20
390.2058
 30
0.0
 10
891.0233
 20
383.3425
 30
0.0
 10
887.9718
 20
423.3394
 30
0.0
 10
899.2819
 20
446.1212
 30
0.0
 10
914.6081
 20
464.0859
 30
0.0
 10
943.1842
 20
425.2374
 30
0.0
 10
1000.0158
 20
426.4627
 30
0.0
 10
1024.6702
 20
464.0859
 30
0.0
 10
1045.0597
 20
440.153
 30
0.0
 10
1051.4457
 20
411.8603
 30
0.0
 10
1048.2549
 20
380.5899
 30
0.0
 10
1188.1591
 20
401.0765
 30
0.0
 10
1184.2208
 20
203.807
 30
0.0
 10
1048.2549
 20
223.6907
 30
0.0
 10
1055.1323
 20
193.4133
 30
0.0
 10
1049.5627
 20
167.4174
 30
0.0
 10
1027.6183
 20
142.0298
 30
0.0
 10
1004.032
 20
176.5928
 30
0.0
 10
948.0168
 20
178.4278
 30
0.0
 10
918.5389
 20
144.7824
 30
0.0
 10
892.8179
 20
164.5094
 30
0.0
 10
886.9247
 20
192.6482
 30
0.0
 10
890.0406
 20
224.6083
 30
0.0
  0
SPLINE
  5
7F
330
1F
100
AcDbEntity
  8
Layer 1
 62
   250
370
    20
100
AcDbSpline
210
0.0
220
0.0
230
1.0
 70
    11
 71
     3
 72
    17
 73
    13
 74
     0
 42
0.0000000001
 43
0.0000000001
 40
0.0
 40
0.0
 40
0.0
 40
0.0
 40
0.25
 40
0.25
 40
0.25
 40
0.5
 40
0.5
 40
0.5
 40
0.75
 40
0.75
 40
0.75
 40
1.0
 40
1.0
 40
1.0
 40
1.0
 10
939.1755
 20
108.9983
 30
0.0
 10
939.1755
 20
126.1812
 30
0.0
 10
953.0801
 20
140.1947
 30
0.0
 10
970.1304
 20
140.1947
 30
0.0
 10
987.1809
 20
140.1947
 30
0.0
 10
1001.0854
 20
126.1812
 30
0.0
 10
1001.0854
 20
108.9983
 30
0.0
 10
1001.0854
 20
91.8155
 30
0.0
 10
987.1809
 20
77.802
 30
0.0
 10
970.1304
 20
77.802
 30
0.0
 10
953.0801
 20
77.802
 30
0.0
 10
939.1755
 20
91.8155
 30
0.0
 10
939.1755
 20
108.9983
 30
0.0
  0
SPLINE
  5
80
330
1F
100
AcDbEntity
  8
Layer 1
 62
   250
370
    20
100
AcDbSpline
210
0.0
220
0.0
230
1.0
 70
    11
 71
     3
 72
    17
 73
    13
 74
     0
 42
0.0000000001
 43
0.0000000001
 40
0.0
 40
0.0
 40
0.0
 40
0.0
 40
0.25
 40
0.25
 40
0.25
 40
0.5
 40
0.5
 40
0.5
 40
0.75
 40
0.75
 40
0.75
 40
1.0
 40
1.0
 40
1.0
 40
1.0
 10
939.1755
 20
499.2321
 30
0.0
 10
939.1755
 20
516.415
 30
0.0
 10
953.0801
 20
530.4285
 30
0.0
 10
970.1304
 20
530.4285
 30
0.0
 10
987.1809
 20
530.4285
 30
0.0
 10
1001.0854
 20
516.415
 30
0.0
 10
1001.0854
 20
499.2321
 30
0.0
 10
1001.0854
 20
482.0493
 30
0.0
 10
987.1809
 20
468.0359
 30
0.0
 10
970.1304
 20
468.0359
 30
0.0
 10
953.0801
 20
468.0359
 30
0.0
 10
939.1755
 20
482.0493
 30
0.0
 10
939.1755
 20
499.2321
 30
0.0
  0
SPLINE
  5
81
330
1F
100
AcDbEntity
  8
Layer 1
 62
   250
370
    20
100
AcDbSpline
210
0.0
220
0.0
230
1.0
 70
    11
 71
     3
 72
    29
 73
    25
 74
     0
 42
0.0000000001
 43
0.0000000001
 40
0.0
 40
0.0
 40
0.0
 40
0.0
 40
0.125
 40
0.125
 40
0.125
 40
0.25
 40
0.25
 40
0.25
 40
0.375
 40
0.375
 40
0.375
 40
0.5
 40
0.5
 40
0.5
 40
0.625
 40
0.625
 40
0.625
 40
0.75
 40
0.75
 40
0.75
 40
0.875
 40
0.875
 40
0.875
 40
1.0
 40
1.0
 40
1.0
 40
1.0
 10
-861.0192
 20
-590.0265
 30
0.0
 10
-861.0192
 20
-590.0265
 30
0.0
 10
-1021.2409
 20
-590.0265
 30
0.0
 10
-1021.2409
 20
-590.0265
 30
0.0
 10
-1022.7599
 20
-580.086
 30
0.0
 10
-1022.7584
 20
-569.5021
 30
0.0
 10
-1021.6814
 20
-558.4609
 30
0.0
 10
-1158.149
 20
-566.218
 30
0.0
 10
-1160.4844
 20
-392.8633
 30
0.0
 10
-1020.6986
 20
-399.7267
 30
0.0
 10
-1023.7501
 20
-359.7298
 30
0.0
 10
-1012.4401
 20
-336.948
 30
0.0
 10
-997.1139
 20
-318.9832
 30
0.0
 10
-968.5378
 20
-357.8318
 30
0.0
 10
-911.706
 20
-356.6065
 30
0.0
 10
-887.0517
 20
-318.9832
 30
0.0
 10
-866.6623
 20
-342.9162
 30
0.0
 10
-860.2762
 20
-371.2088
 30
0.0
 10
-863.4669
 20
-402.4793
 30
0.0
 10
-723.5629
 20
-381.9927
 30
0.0
 10
-727.5011
 20
-579.2622
 30
0.0
 10
-863.4669
 20
-559.3784
 30
0.0
 10
-861.0372
 20
-570.0756
 30
0.0
 10
-860.1684
 20
-580.2371
 30
0.0
 10
-861.0192
 20
-590.0265
 30
0.0
  0
SPLINE
  5
82
330
1F
100
AcDbEntity
  8
Layer 1
 62
   250
370
    20
100
AcDbSpline
210
0.0
220
0.0
230
1.0
 70
    11
 71
     3
 72
    17
 73
    13
 74
     0
 42
0.0000000001
 43
0.0000000001
 40
0.0
 40
0.0
 40
0.0
 40
0.0
 40
0.25
 40
0.25
 40
0.25
 40
0.5
 40
0.5
 40
0.5
 40
0.75
 40
0.75
 40
0.75
 40
1.0
 40
1.0
 40
1.0
 40
1.0
 10
-590.3818
 20
-590.0265
 30
0.0
 10
-590.3818
 20
-590.0265
 30
0.0
 10
-810.9855
 20
-590.0265
 30
0.0
 10
-810.9855
 20
-590.0265
 30
0.0
 10
-760.8095
 20
-576.1025
 30
0.0
 10
-734.4414
 20
-536.6834
 30
0.0
 10
-722.5337
 20
-496.555
 30
0.0
 10
-722.5337
 20
-496.555
 30
0.0
 10
-683.4175
 20
-497.0585
 30
0.0
 10
-683.4175
 20
-497.0585
 30
0.0
 10
-673.5936
 20
-534.7322
 30
0.0
 10
-657.8704
 20
-567.7482
 30
0.0
 10
-590.3818
 20
-590.0265
 30
0.0
  0
SPLINE
  5
83
330
1F
100
AcDbEntity
  8
Layer 1
 62
   250
370
    20
100
AcDbSpline
210
0.0
220
0.0
230
1.0
 70
    11
 71
     3
 72
    29
 73
    25
 74
     0
 42
0.0000000001
 43
0.0000000001
 40
0.0
 40
0.0
 40
0.0
 40
0.0
 40
0.125
 40
0.125
 40
0.125
 40
0.25
 40
0.25
 40
0.25
 40
0.375
 40
0.375
 40
0.375
 40
0.5
 40
0.5
 40
0.5
 40
0.625
 40
0.625
 40
0.625
 40
0.75
 40
0.75
 40
0.75
 40
0.875
 40
0.875
 40
0.875
 40
1.0
 40
1.0
 40
1.0
 40
1.0
 10
-385.8728
 20
-590.0265
 30
0.0
 10
-385.8728
 20
-590.0265
 30
0.0
 10
-546.0944
 20
-590.0265
 30
0.0
 10
-546.0944
 20
-590.0265
 30
0.0
 10
-547.6135
 20
-580.086
 30
0.0
 10
-547.612
 20
-569.5021
 30
0.0
 10
-546.5349
 20
-558.4609
 30
0.0
 10
-683.0026
 20
-566.218
 30
0.0
 10
-685.338
 20
-392.8633
 30
0.0
 10
-545.5522
 20
-399.7267
 30
0.0
 10
-548.6037
 20
-359.7298
 30
0.0
 10
-537.2936
 20
-336.948
 30
0.0
 10
-521.9674
 20
-318.9832
 30
0.0
 10
-493.3913
 20
-357.8318
 30
0.0
 10
-436.5597
 20
-356.6065
 30
0.0
 10
-411.9053
 20
-318.9832
 30
0.0
 10
-391.5158
 20
-342.9162
 30
0.0
 10
-385.1298
 20
-371.2088
 30
0.0
 10
-388.3205
 20
-402.4793
 30
0.0
 10
-248.4164
 20
-381.9927
 30
0.0
 10
-252.3547
 20
-579.2622
 30
0.0
 10
-388.3205
 20
-559.3784
 30
0.0
 10
-385.8908
 20
-570.0756
 30
0.0
 10
-385.0219
 20
-580.2371
 30
0.0
 10
-385.8728
 20
-590.0265
 30
0.0
  0
SPLINE
  5
84
330
1F
100
AcDbEntity
  8
Layer 1
 62
   250
370
    20
100
AcDbSpline
210
0.0
220
0.0
230
1.0
 70
    11
 71
     3
 72
    17
 73
    13
 74
     0
 42
0.0000000001
 43
0.0000000001
 40
0.0
 40
0.0
 40
0.0
 40
0.0
 40
0.25
 40
0.25
 40
0.25
 40
0.5
 40
0.5
 40
0.5
 40
0.75
 40
0.75
 40
0.75
 40
1.0
 40
1.0
 40
1.0
 40
1.0
 10
-115.2354
 20
-590.0265
 30
0.0
 10
-115.2354
 20
-590.0265
 30
0.0
 10
-335.8391
 20
-590.0265
 30
0.0
 10
-335.8391
 20
-590.0265
 30
0.0
 10
-285.663
 20
-576.1025
 30
0.0
 10
-259.295
 20
-536.6834
 30
0.0
 10
-247.3873
 20
-496.555
 30
0.0
 10
-247.3873
 20
-496.555
 30
0.0
 10
-208.2712
 20
-497.0585
 30
0.0
 10
-208.2712
 20
-497.0585
 30
0.0
 10
-198.4471
 20
-534.7322
 30
0.0
 10
-182.724
 20
-567.7482
 30
0.0
 10
-115.2354
 20
-590.0265
 30
0.0
  0
SPLINE
  5
85
330
1F
100
AcDbEntity
  8
Layer 1
 62
   250
370
    20
100
AcDbSpline
210
0.0
220
0.0
230
1.0
 70
    11
 71
     3
 72
    29
 73
    25
 74
     0
 42
0.0000000001
 43
0.0000000001
 40
0.0
 40
0.0
 40
0.0
 40
0.0
 40
0.125
 40
0.125
 40
0.125
 40
0.25
 40
0.25
 40
0.25
 40
0.375
 40
0.375
 40
0.375
 40
0.5
 40
0.5
 40
0.5
 40
0.625
 40
0.625
 40
0.625
 40
0.75
 40
0.75
 40
0.75
 40
0.875
 40
0.875
 40
0.875
 40
1.0
 40
1.0
 40
1.0
 40
1.0
 10
92.9857
 20
-590.0265
 30
0.0
 10
92.9857
 20
-590.0265
 30
0.0
 10
-67.236
 20
-590.0265
 30
0.0
 10
-67.236
 20
-590.0265
 30
0.0
 10
-68.755
 20
-580.086
 30
0.0
 10
-68.7535
 20
-569.5021
 30
0.0
 10
-67.6764
 20
-558.4609
 30
0.0
 10
-204.1441
 20
-566.218
 30
0.0
 10
-206.4794
 20
-392.8633
 30
0.0
 10
-66.6938
 20
-399.7267
 30
0.0
 10
-69.7451
 20
-359.7298
 30
0.0
 10
-58.4352
 20
-336.948
 30
0.0
 10
-43.109
 20
-318.9832
 30
0.0
 10
-14.5329
 20
-357.8318
 30
0.0
 10
42.2989
 20
-356.6065
 30
0.0
 10
66.9532
 20
-318.9832
 30
0.0
 10
87.3427
 20
-342.9162
 30
0.0
 10
93.7287
 20
-371.2088
 30
0.0
 10
90.538
 20
-402.4793
 30
0.0
 10
230.4421
 20
-381.9927
 30
0.0
 10
226.5038
 20
-579.2622
 30
0.0
 10
90.538
 20
-559.3784
 30
0.0
 10
92.9677
 20
-570.0756
 30
0.0
 10
93.8365
 20
-580.2371
 30
0.0
 10
92.9857
 20
-590.0265
 30
0.0
  0
SPLINE
  5
86
330
1F
100
AcDbEntity
  8
Layer 1
 62
   250
370
    20
100
AcDbSpline
210
0.0
220
0.0
230
1.0
 70
    11
 71
     3
 72
    17
 73
    13
 74
     0
 42
0.0000000001
 43
0.0000000001
 40
0.0
 40
0.0
 40
0.0
 40
0.0
 40
0.25
 40
0.25
 40
0.25
 40
0.5
 40
0.5
 40
0.5
 40
0.75
 40
0.75
 40
0.75
 40
1.0
 40
1.0
 40
1.0
 40
1.0
 10
363.6231
 20
-590.0265
 30
0.0
 10
363.6231
 20
-590.0265
 30
0.0
 10
143.0194
 20
-590.0265
 30
0.0
 10
143.0194
 20
-590.0265
 30
0.0
 10
193.1954
 20
-576.1025
 30
0.0
 10
219.5635
 20
-536.6834
 30
0.0
 10
231.4712
 20
-496.555
 30
0.0
 10
231.4712
 20
-496.555
 30
0.0
 10
270.5874
 20
-497.0585
 30
0.0
 10
270.5874
 20
-497.0585
 30
0.0
 10
280.4114
 20
-534.7322
 30
0.0
 10
296.1345
 20
-567.7482
 30
0.0
 10
363.6231
 20
-590.0265
 30
0.0
  0
SPLINE
  5
87
330
1F
100
AcDbEntity
  8
Layer 1
 62
   250
370
    20
100
AcDbSpline
210
0.0
220
0.0
230
1.0
 70
    11
 71
     3
 72
    29
 73
    25
 74
     0
 42
0.0000000001
 43
0.0000000001
 40
0.0
 40
0.0
 40
0.0
 40
0.0
 40
0.125
 40
0.125
 40
0.125
 40
0.25
 40
0.25
 40
0.25
 40
0.375
 40
0.375
 40
0.375
 40
0.5
 40
0.5
 40
0.5
 40
0.625
 40
0.625
 40
0.625
 40
0.75
 40
0.75
 40
0.75
 40
0.875
 40
0.875
 40
0.875
 40
1.0
 40
1.0
 40
1.0
 40
1.0
 10
571.8442
 20
-590.0265
 30
0.0
 10
571.8442
 20
-590.0265
 30
0.0
 10
411.6225
 20
-590.0265
 30
0.0
 10
411.6225
 20
-590.0265
 30
0.0
 10
410.1035
 20
-580.086
 30
0.0
 10
410.105
 20
-569.5021
 30
0.0
 10
411.1821
 20
-558.4609
 30
0.0
 10
274.7145
 20
-566.218
 30
0.0
 10
272.379
 20
-392.8633
 30
0.0
 10
412.1648
 20
-399.7267
 30
0.0
 10
409.1133
 20
-359.7298
 30
0.0
 10
420.4233
 20
-336.948
 30
0.0
 10
435.7495
 20
-318.9832
 30
0.0
 10
464.3257
 20
-357.8318
 30
0.0
 10
521.1574
 20
-356.6065
 30
0.0
 10
545.8117
 20
-318.9832
 30
0.0
 10
566.2012
 20
-342.9162
 30
0.0
 10
572.5873
 20
-371.2088
 30
0.0
 10
569.3964
 20
-402.4793
 30
0.0
 10
709.3005
 20
-381.9927
 30
0.0
 10
705.3623
 20
-579.2622
 30
0.0
 10
569.3964
 20
-559.3784
 30
0.0
 10
571.8263
 20
-570.0756
 30
0.0
 10
572.6951
 20
-580.2371
 30
0.0
 10
571.8442
 20
-590.0265
 30
0.0
  0
SPLINE
  5
88
330
1F
100
AcDbEntity
  8
Layer 1
 62
   250
370
    20
100
AcDbSpline
210
0.0
220
0.0
230
1.0
 70
    11
 71
     3
 72
    17
 73
    13
 74
     0
 42
0.0000000001
 43
0.0000000001
 40
0.0
 40
0.0
 40
0.0
 40
0.0
 40
0.25
 40
0.25
 40
0.25
 40
0.5
 40
0.5
 40
0.5
 40
0.75
 40
0.75
 40
0.75
 40
1.0
 40
1.0
 40
1.0
 40
1.0
 10
842.4816
 20
-590.0265
 30
0.0
 10
842.4816
 20
-590.0265
 30
0.0
 10
621.8779
 20
-590.0265
 30
0.0
 10
621.8779
 20
-590.0265
 30
0.0
 10
672.0539
 20
-576.1025
 30
0.0
 10
698.4219
 20
-536.6834
 30
0.0
 10
710.3296
 20
-496.555
 30
0.0
 10
710.3296
 20
-496.555
 30
0.0
 10
749.4459
 20
-497.0585
 30
0.0
 10
749.4459
 20
-497.0585
 30
0.0
 10
759.2698
 20
-534.7322
 30
0.0
 10
774.993
 20
-567.7482
 30
0.0
 10
842.4816
 20
-590.0265
 30
0.0
  0
SPLINE
  5
89
330
1F
100
AcDbEntity
  8
Layer 1
 62
   250
370
    20
100
AcDbSpline
210
0.0
220
0.0
230
1.0
 70
    11
 71
     3
 72
    29
 73
    25
 74
     0
 42
0.0000000001
 43
0.0000000001
 40
0.0
 40
0.0
 40
0.0
 40
0.0
 40
0.125
 40
0.125
 40
0.125
 40
0.25
 40
0.25
 40
0.25
 40
0.375
 40
0.375
 40
0.375
 40
0.5
 40
0.5
 40
0.5
 40
0.625
 40
0.625
 40
0.625
 40
0.75
 40
0.75
 40
0.75
 40
0.875
 40
0.875
 40
0.875
 40
1.0
 40
1.0
 40
1.0
 40
1.0
 10
1050.7027
 20
-590.0265
 30
0.0
 10
1050.7027
 20
-590.0265
 30
0.0
 10
890.4809
 20
-590.0265
 30
0.0
 10
890.4809
 20
-590.0265
 30
0.0
 10
888.962
 20
-580.086
 30
0.0
 10
888.9635
 20
-569.5021
 30
0.0
 10
890.0406
 20
-558.4609
 30
0.0
 10
753.5729
 20
-566.218
 30
0.0
 10
751.2375
 20
-392.8633
 30
0.0
 10
891.0233
 20
-399.7267
 30
0.0
 10
887.9718
 20
-359.7298
 30
0.0
 10
899.2819
 20
-336.948
 30
0.0
 10
914.6081
 20
-318.9832
 30
0.0
 10
943.1842
 20
-357.8318
 30
0.0
 10
1000.0158
 20
-356.6065
 30
0.0
 10
1024.6702
 20
-318.9832
 30
0.0
 10
1045.0597
 20
-342.9162
 30
0.0
 10
1051.4457
 20
-371.2088
 30
0.0
 10
1048.2549
 20
-402.4793
 30
0.0
 10
1188.1591
 20
-381.9927
 30
0.0
 10
1184.2208
 20
-579.2622
 30
0.0
 10
1048.2549
 20
-559.3784
 30
0.0
 10
1050.6847
 20
-570.0756
 30
0.0
 10
1051.5536
 20
-580.2371
 30
0.0
 10
1050.7027
 20
-590.0265
 30
0.0
  0
SPLINE
  5
8A
330
1F
100
AcDbEntity
  8
Layer 1
 62
   250
370
    20
100
AcDbSpline
210
0.0
220
0.0
230
1.0
 70
    11
 71
     3
 72
    17
 73
    13
 74
     0
 42
0.0000000001
 43
0.0000000001
 40
0.0
 40
0.0
 40
0.0
 40
0.0
 40
0.25
 40
0.25
 40
0.25
 40
0.5
 40
0.5
 40
0.5
 40
0.75
 40
0.75
 40
0.75
 40
1.0
 40
1.0
 40
1.0
 40
1.0
 10
1199.9499
 20
-496.6934
 30
0.0
 10
1199.9499
 20
-496.6934
 30
0.0
 10
1199.9499
 20
-590.0265
 30
0.0
 10
1199.9499
 20
-590.0265
 30
0.0
 10
1199.9499
 20
-590.0265
 30
0.0
 10
1100.7364
 20
-590.0265
 30
0.0
 10
1100.7364
 20
-590.0265
 30
0.0
 10
1150.9125
 20
-576.1025
 30
0.0
 10
1177.2805
 20
-536.6834
 30
0.0
 10
1189.1882
 20
-496.555
 30
0.0
 10
1189.1882
 20
-496.555
 30
0.0
 10
1199.9499
 20
-496.6934
 30
0.0
 10
1199.9499
 20
-496.6934
 30
0.0
  0
SPLINE
  5
8B
330
1F
100
AcDbEntity
  8
Layer 1
 62
   250
370
    20
100
AcDbSpline
210
0.0
220
0.0
230
1.0
 70
    11
 71
     3
 72
    26
 73
    22
 74
     0
 42
0.0000000001
 43
0.0000000001
 40
0.0
 40
0.0
 40
0.0
 40
0.0
 40
0.1428571428571428
 40
0.1428571428571428
 40
0.1428571428571428
 40
0.2857142857142857
 40
0.2857142857142857
 40
0.2857142857142857
 40
0.4285714285714285
 40
0.4285714285714285
 40
0.4285714285714285
 40
0.5714285714285714
 40
0.5714285714285714
 40
0.5714285714285714
 40
0.7142857142857142
 40
0.7142857142857142
 40
0.7142857142857142
 40
0.8571428571428571
 40
0.8571428571428571
 40
0.8571428571428571
 40
1.0
 40
1.0
 40
1.0
 40
1.0
 10
1199.9499
 20
-105.7659
 30
0.0
 10
1199.9499
 20
-105.7659
 30
0.0
 10
1199.9499
 20
-463.1292
 30
0.0
 10
1199.9499
 20
-463.1292
 30
0.0
 10
1199.9499
 20
-463.1292
 30
0.0
 10
1191.2255
 20
-463.4453
 30
0.0
 10
1191.2255
 20
-463.4453
 30
0.0
 10
1175.1667
 20
-433.8253
 30
0.0
 10
1176.4686
 20
-389.9946
 30
0.0
 10
1090.487
 20
-360.8823
 30
0.0
 10
1078.3425
 20
-319.9973
 30
0.0
 10
1059.1245
 20
-297.2854
 30
0.0
 10
1036.6903
 20
-282.8355
 30
0.0
 10
1062.9999
 20
-264.9142
 30
0.0
 10
1083.7024
 20
-241.7505
 30
0.0
 10
1086.8438
 20
-202.1872
 30
0.0
 10
1146.1352
 20
-192.1587
 30
0.0
 10
1176.2259
 20
-149.3098
 30
0.0
 10
1189.1882
 20
-105.6274
 30
0.0
 10
1189.1882
 20
-105.6274
 30
0.0
 10
1199.9499
 20
-105.7659
 30
0.0
 10
1199.9499
 20
-105.7659
 30
0.0
  0
SPLINE
  5
8C
330
1F
100
AcDbEntity
  8
Layer 1
 62
   250
370
    20
100
AcDbSpline
210
0.0
220
0.0
230
1.0
 70
    11
 71
     3
 72
    26
 73
    22
 74
     0
 42
0.0000000001
 43
0.0000000001
 40
0.0
 40
0.0
 40
0.0
 40
0.0
 40
0.1428571428571428
 40
0.1428571428571428
 40
0.1428571428571428
 40
0.2857142857142857
 40
0.2857142857142857
 40
0.2857142857142857
 40
0.4285714285714285
 40
0.4285714285714285
 40
0.4285714285714285
 40
0.5714285714285714
 40
0.5714285714285714
 40
0.5714285714285714
 40
0.7142857142857142
 40
0.7142857142857142
 40
0.7142857142857142
 40
0.8571428571428571
 40
0.8571428571428571
 40
0.8571428571428571
 40
1.0
 40
1.0
 40
1.0
 40
1.0
 10
1199.9499
 20
285.8861
 30
0.0
 10
1199.9499
 20
285.8861
 30
0.0
 10
1199.9499
 20
-71.4771
 30
0.0
 10
1199.9499
 20
-71.4771
 30
0.0
 10
1199.9499
 20
-71.4771
 30
0.0
 10
1191.2255
 20
-71.7932
 30
0.0
 10
1191.2255
 20
-71.7932
 30
0.0
 10
1175.1667
 20
-42.1732
 30
0.0
 10
1176.4686
 20
1.6575
 30
0.0
 10
1090.487
 20
30.7697
 30
0.0
 10
1078.3425
 20
71.6548
 30
0.0
 10
1059.1245
 20
94.3667
 30
0.0
 10
1036.6903
 20
108.8166
 30
0.0
 10
1062.9999
 20
126.7379
 30
0.0
 10
1083.7024
 20
149.9016
 30
0.0
 10
1086.8438
 20
189.4649
 30
0.0
 10
1146.1352
 20
199.4934
 30
0.0
 10
1176.2259
 20
242.3422
 30
0.0
 10
1189.1882
 20
286.0246
 30
0.0
 10
1189.1882
 20
286.0246
 30
0.0
 10
1199.9499
 20
285.8861
 30
0.0
 10
1199.9499
 20
285.8861
 30
0.0
  0
SPLINE
  5
8D
330
1F
100
AcDbEntity
  8
Layer 1
 62
   250
370
    20
100
AcDbSpline
210
0.0
220
0.0
230
1.0
 70
    11
 71
     3
 72
    26
 73
    22
 74
     0
 42
0.0000000001
 43
0.0000000001
 40
0.0
 40
0.0
 40
0.0
 40
0.0
 40
0.1428571428571428
 40
0.1428571428571428
 40
0.1428571428571428
 40
0.2857142857142857
 40
0.2857142857142857
 40
0.2857142857142857
 40
0.4285714285714285
 40
0.4285714285714285
 40
0.4285714285714285
 40
0.5714285714285714
 40
0.5714285714285714
 40
0.5714285714285714
 40
0.7142857142857142
 40
0.7142857142857142
 40
0.7142857142857142
 40
0.8571428571428571
 40
0.8571428571428571
 40
0.8571428571428571
 40
1.0
 40
1.0
 40
1.0
 40
1.0
 10
1117.1127
 20
589.9734
 30
0.0
 10
1117.1127
 20
589.9734
 30
0.0
 10
1199.9499
 20
589.9734
 30
0.0
 10
1199.9499
 20
589.9734
 30
0.0
 10
1199.9499
 20
589.9734
 30
0.0
 10
1199.9499
 20
320.175
 30
0.0
 10
1199.9499
 20
320.175
 30
0.0
 10
1199.9499
 20
320.175
 30
0.0
 10
1191.2255
 20
319.8589
 30
0.0
 10
1191.2255
 20
319.8589
 30
0.0
 10
1175.1667
 20
349.4789
 30
0.0
 10
1176.4686
 20
393.3095
 30
0.0
 10
1090.487
 20
422.4218
 30
0.0
 10
1078.3425
 20
463.3069
 30
0.0
 10
1059.1245
 20
486.0188
 30
0.0
 10
1036.6903
 20
500.4686
 30
0.0
 10
1062.9999
 20
518.39
 30
0.0
 10
1083.7024
 20
541.5536
 30
0.0
 10
1086.8438
 20
581.1169
 30
0.0
 10
1097.9292
 20
582.9926
 30
0.0
 10
1107.9913
 20
586.0124
 30
0.0
 10
1117.1127
 20
589.9734
 30
0.0
  0
SPLINE
  5
8E
330
1F
100
AcDbEntity
  8
Layer 1
 62
   250
370
    20
100
AcDbSpline
210
0.0
220
0.0
230
1.0
 70
    11
 71
     3
 72
    17
 73
    13
 74
     0
 42
0.0000000001
 43
0.0000000001
 40
0.0
 40
0.0
 40
0.0
 40
0.0
 40
0.25
 40
0.25
 40
0.25
 40
0.5
 40
0.5
 40
0.5
 40
0.75
 40
0.75
 40
0.75
 40
1.0
 40
1.0
 40
1.0
 40
1.0
 10
889.6886
 20
589.9734
 30
0.0
 10
889.6886
 20
589.9734
 30
0.0
 10
1051.0188
 20
589.9734
 30
0.0
 10
1051.0188
 20
589.9734
 30
0.0
 10
1050.857
 20
569.4757
 30
0.0
 10
1043.5632
 20
550.7094
 30
0.0
 10
1027.6183
 20
532.2636
 30
0.0
 10
1004.032
 20
566.8265
 30
0.0
 10
948.0168
 20
568.6616
 30
0.0
 10
918.5389
 20
535.0162
 30
0.0
 10
899.7343
 20
549.438
 30
0.0
 10
891.5251
 20
568.3525
 30
0.0
 10
889.6886
 20
589.9734
 30
0.0
  0
SPLINE
  5
8F
330
1F
100
AcDbEntity
  8
Layer 1
 62
   250
370
    20
100
AcDbSpline
210
0.0
220
0.0
230
1.0
 70
    11
 71
     3
 72
    35
 73
    31
 74
     0
 42
0.0000000001
 43
0.0000000001
 40
0.0
 40
0.0
 40
0.0
 40
0.0
 40
0.1
 40
0.1
 40
0.1
 40
0.2
 40
0.2
 40
0.2
 40
0.3
 40
0.3
 40
0.3
 40
0.4
 40
0.4
 40
0.4
 40
0.5
 40
0.5
 40
0.5
 40
0.6000000000000001
 40
0.6000000000000001
 40
0.6000000000000001
 40
0.7000000000000001
 40
0.7000000000000001
 40
0.7000000000000001
 40
0.8
 40
0.8
 40
0.8
 40
0.9
 40
0.9
 40
0.9
 40
1.0
 40
1.0
 40
1.0
 40
1.0
 10
638.2542
 20
589.9734
 30
0.0
 10
638.2542
 20
589.9734
 30
0.0
 10
826.7075
 20
589.9734
 30
0.0
 10
826.7075
 20
589.9734
 30
0.0
 10
834.0508
 20
586.9928
 30
0.0
 10
842.1281
 20
584.1731
 30
0.0
 10
851.0352
 20
581.5197
 30
0.0
 10
853.1819
 20
547.8533
 30
0.0
 10
874.0657
 20
521.3216
 30
0.0
 10
904.5144
 20
499.6686
 30
0.0
 10
869.2256
 20
466.2973
 30
0.0
 10
855.0125
 20
441.1824
 30
0.0
 10
853.1804
 20
419.8203
 30
0.0
 10
797.8213
 20
404.2767
 30
0.0
 10
767.7112
 20
372.7418
 30
0.0
 10
748.3733
 20
321.1625
 30
0.0
 10
748.3733
 20
321.1625
 30
0.0
 10
712.367
 20
319.8589
 30
0.0
 10
712.367
 20
319.8589
 30
0.0
 10
696.3083
 20
349.4789
 30
0.0
 10
697.6101
 20
393.3095
 30
0.0
 10
611.6285
 20
422.4218
 30
0.0
 10
599.4841
 20
463.3069
 30
0.0
 10
580.2661
 20
486.0188
 30
0.0
 10
557.8318
 20
500.4686
 30
0.0
 10
584.1414
 20
518.39
 30
0.0
 10
604.844
 20
541.5536
 30
0.0
 10
607.9853
 20
581.1169
 30
0.0
 10
619.0706
 20
582.9926
 30
0.0
 10
629.1328
 20
586.0124
 30
0.0
 10
638.2542
 20
589.9734
 30
0.0
  0
SPLINE
  5
90
330
1F
100
AcDbEntity
  8
Layer 1
 62
   250
370
    20
100
AcDbSpline
210
0.0
220
0.0
230
1.0
 70
    11
 71
     3
 72
    17
 73
    13
 74
     0
 42
0.0000000001
 43
0.0000000001
 40
0.0
 40
0.0
 40
0.0
 40
0.0
 40
0.25
 40
0.25
 40
0.25
 40
0.5
 40
0.5
 40
0.5
 40
0.75
 40
0.75
 40
0.75
 40
1.0
 40
1.0
 40
1.0
 40
1.0
 10
410.8301
 20
589.9734
 30
0.0
 10
410.8301
 20
589.9734
 30
0.0
 10
572.1603
 20
589.9734
 30
0.0
 10
572.1603
 20
589.9734
 30
0.0
 10
571.9985
 20
569.4757
 30
0.0
 10
564.7046
 20
550.7094
 30
0.0
 10
548.7598
 20
532.2636
 30
0.0
 10
525.1736
 20
566.8265
 30
0.0
 10
469.1582
 20
568.6616
 30
0.0
 10
439.6803
 20
535.0162
 30
0.0
 10
420.8757
 20
549.438
 30
0.0
 10
412.6667
 20
568.3525
 30
0.0
 10
410.8301
 20
589.9734
 30
0.0
  0
SPLINE
  5
91
330
1F
100
AcDbEntity
  8
Layer 1
 62
   250
370
    20
100
AcDbSpline
210
0.0
220
0.0
230
1.0
 70
    11
 71
     3
 72
    35
 73
    31
 74
     0
 42
0.0000000001
 43
0.0000000001
 40
0.0
 40
0.0
 40
0.0
 40
0.0
 40
0.1
 40
0.1
 40
0.1
 40
0.2
 40
0.2
 40
0.2
 40
0.3
 40
0.3
 40
0.3
 40
0.4
 40
0.4
 40
0.4
 40
0.5
 40
0.5
 40
0.5
 40
0.6000000000000001
 40
0.6000000000000001
 40
0.6000000000000001
 40
0.7000000000000001
 40
0.7000000000000001
 40
0.7000000000000001
 40
0.8
 40
0.8
 40
0.8
 40
0.9
 40
0.9
 40
0.9
 40
1.0
 40
1.0
 40
1.0
 40
1.0
 10
159.3958
 20
589.9734
 30
0.0
 10
159.3958
 20
589.9734
 30
0.0
 10
347.849
 20
589.9734
 30
0.0
 10
347.849
 20
589.9734
 30
0.0
 10
355.1923
 20
586.9928
 30
0.0
 10
363.2696
 20
584.1731
 30
0.0
 10
372.1768
 20
581.5197
 30
0.0
 10
374.3234
 20
547.8533
 30
0.0
 10
395.2073
 20
521.3216
 30
0.0
 10
425.6559
 20
499.6686
 30
0.0
 10
390.3672
 20
466.2973
 30
0.0
 10
376.154
 20
441.1824
 30
0.0
 10
374.3219
 20
419.8203
 30
0.0
 10
318.9628
 20
404.2767
 30
0.0
 10
288.8526
 20
372.7418
 30
0.0
 10
269.5148
 20
321.1625
 30
0.0
 10
269.5148
 20
321.1625
 30
0.0
 10
233.5085
 20
319.8589
 30
0.0
 10
233.5085
 20
319.8589
 30
0.0
 10
217.4498
 20
349.4789
 30
0.0
 10
218.7515
 20
393.3095
 30
0.0
 10
132.7699
 20
422.4218
 30
0.0
 10
120.6256
 20
463.3069
 30
0.0
 10
101.4076
 20
486.0188
 30
0.0
 10
78.9732
 20
500.4686
 30
0.0
 10
105.2829
 20
518.39
 30
0.0
 10
125.9855
 20
541.5536
 30
0.0
 10
129.1268
 20
581.1169
 30
0.0
 10
140.2121
 20
582.9926
 30
0.0
 10
150.2743
 20
586.0124
 30
0.0
 10
159.3958
 20
589.9734
 30
0.0
  0
SPLINE
  5
92
330
1F
100
AcDbEntity
  8
Layer 1
 62
   250
370
    20
100
AcDbSpline
210
0.0
220
0.0
230
1.0
 70
    11
 71
     3
 72
    17
 73
    13
 74
     0
 42
0.0000000001
 43
0.0000000001
 40
0.0
 40
0.0
 40
0.0
 40
0.0
 40
0.25
 40
0.25
 40
0.25
 40
0.5
 40
0.5
 40
0.5
 40
0.75
 40
0.75
 40
0.75
 40
1.0
 40
1.0
 40
1.0
 40
1.0
 10
-68.0285
 20
589.9734
 30
0.0
 10
-68.0285
 20
589.9734
 30
0.0
 10
93.3018
 20
589.9734
 30
0.0
 10
93.3018
 20
589.9734
 30
0.0
 10
93.14
 20
569.4757
 30
0.0
 10
85.8462
 20
550.7094
 30
0.0
 10
69.9013
 20
532.2636
 30
0.0
 10
46.315
 20
566.8265
 30
0.0
 10
-9.7002
 20
568.6616
 30
0.0
 10
-39.1782
 20
535.0162
 30
0.0
 10
-57.9828
 20
549.438
 30
0.0
 10
-66.1919
 20
568.3525
 30
0.0
 10
-68.0285
 20
589.9734
 30
0.0
  0
SPLINE
  5
93
330
1F
100
AcDbEntity
  8
Layer 1
 62
   250
370
    20
100
AcDbSpline
210
0.0
220
0.0
230
1.0
 70
    11
 71
     3
 72
    35
 73
    31
 74
     0
 42
0.0000000001
 43
0.0000000001
 40
0.0
 40
0.0
 40
0.0
 40
0.0
 40
0.1
 40
0.1
 40
0.1
 40
0.2
 40
0.2
 40
0.2
 40
0.3
 40
0.3
 40
0.3
 40
0.4
 40
0.4
 40
0.4
 40
0.5
 40
0.5
 40
0.5
 40
0.6000000000000001
 40
0.6000000000000001
 40
0.6000000000000001
 40
0.7000000000000001
 40
0.7000000000000001
 40
0.7000000000000001
 40
0.8
 40
0.8
 40
0.8
 40
0.9
 40
0.9
 40
0.9
 40
1.0
 40
1.0
 40
1.0
 40
1.0
 10
-319.4628
 20
589.9734
 30
0.0
 10
-319.4628
 20
589.9734
 30
0.0
 10
-131.0095
 20
589.9734
 30
0.0
 10
-131.0095
 20
589.9734
 30
0.0
 10
-123.6663
 20
586.9928
 30
0.0
 10
-115.589
 20
584.1731
 30
0.0
 10
-106.6817
 20
581.5197
 30
0.0
 10
-104.5351
 20
547.8533
 30
0.0
 10
-83.6512
 20
521.3216
 30
0.0
 10
-53.2025
 20
499.6686
 30
0.0
 10
-88.4913
 20
466.2973
 30
0.0
 10
-102.7045
 20
441.1824
 30
0.0
 10
-104.5365
 20
419.8203
 30
0.0
 10
-159.8957
 20
404.2767
 30
0.0
 10
-190.0058
 20
372.7418
 30
0.0
 10
-209.3437
 20
321.1625
 30
0.0
 10
-209.3437
 20
321.1625
 30
0.0
 10
-245.35
 20
319.8589
 30
0.0
 10
-245.35
 20
319.8589
 30
0.0
 10
-261.4088
 20
349.4789
 30
0.0
 10
-260.1069
 20
393.3095
 30
0.0
 10
-346.0885
 20
422.4218
 30
0.0
 10
-358.233
 20
463.3069
 30
0.0
 10
-377.451
 20
486.0188
 30
0.0
 10
-399.8852
 20
500.4686
 30
0.0
 10
-373.5756
 20
518.39
 30
0.0
 10
-352.873
 20
541.5536
 30
0.0
 10
-349.7317
 20
581.1169
 30
0.0
 10
-338.6463
 20
582.9926
 30
0.0
 10
-328.5842
 20
586.0124
 30
0.0
 10
-319.4628
 20
589.9734
 30
0.0
  0
SPLINE
  5
94
330
1F
100
AcDbEntity
  8
Layer 1
 62
   250
370
    20
100
AcDbSpline
210
0.0
220
0.0
230
1.0
 70
    11
 71
     3
 72
    17
 73
    13
 74
     0
 42
0.0000000001
 43
0.0000000001
 40
0.0
 40
0.0
 40
0.0
 40
0.0
 40
0.25
 40
0.25
 40
0.25
 40
0.5
 40
0.5
 40
0.5
 40
0.75
 40
0.75
 40
0.75
 40
1.0
 40
1.0
 40
1.0
 40
1.0
 10
-546.8869
 20
589.9734
 30
0.0
 10
-546.8869
 20
589.9734
 30
0.0
 10
-385.5567
 20
589.9734
 30
0.0
 10
-385.5567
 20
589.9734
 30
0.0
 10
-385.7185
 20
569.4757
 30
0.0
 10
-393.0123
 20
550.7094
 30
0.0
 10
-408.9572
 20
532.2636
 30
0.0
 10
-432.5434
 20
566.8265
 30
0.0
 10
-488.5587
 20
568.6616
 30
0.0
 10
-518.0366
 20
535.0162
 30
0.0
 10
-536.8412
 20
549.438
 30
0.0
 10
-545.0504
 20
568.3525
 30
0.0
 10
-546.8869
 20
589.9734
 30
0.0
  0
SPLINE
  5
95
330
1F
100
AcDbEntity
  8
Layer 1
 62
   250
370
    20
100
AcDbSpline
210
0.0
220
0.0
230
1.0
 70
    11
 71
     3
 72
    35
 73
    31
 74
     0
 42
0.0000000001
 43
0.0000000001
 40
0.0
 40
0.0
 40
0.0
 40
0.0
 40
0.1
 40
0.1
 40
0.1
 40
0.2
 40
0.2
 40
0.2
 40
0.3
 40
0.3
 40
0.3
 40
0.4
 40
0.4
 40
0.4
 40
0.5
 40
0.5
 40
0.5
 40
0.6000000000000001
 40
0.6000000000000001
 40
0.6000000000000001
 40
0.7000000000000001
 40
0.7000000000000001
 40
0.7000000000000001
 40
0.8
 40
0.8
 40
0.8
 40
0.9
 40
0.9
 40
0.9
 40
1.0
 40
1.0
 40
1.0
 40
1.0
 10
-794.6092
 20
589.9734
 30
0.0
 10
-794.6092
 20
589.9734
 30
0.0
 10
-606.1559
 20
589.9734
 30
0.0
 10
-606.1559
 20
589.9734
 30
0.0
 10
-598.8126
 20
586.9928
 30
0.0
 10
-590.7353
 20
584.1731
 30
0.0
 10
-581.8282
 20
581.5197
 30
0.0
 10
-579.6815
 20
547.8533
 30
0.0
 10
-558.7976
 20
521.3216
 30
0.0
 10
-528.349
 20
499.6686
 30
0.0
 10
-563.6378
 20
466.2973
 30
0.0
 10
-577.8509
 20
441.1824
 30
0.0
 10
-579.683
 20
419.8203
 30
0.0
 10
-635.0421
 20
404.2767
 30
0.0
 10
-665.1523
 20
372.7418
 30
0.0
 10
-684.4901
 20
321.1625
 30
0.0
 10
-684.4901
 20
321.1625
 30
0.0
 10
-720.4964
 20
319.8589
 30
0.0
 10
-720.4964
 20
319.8589
 30
0.0
 10
-736.5551
 20
349.4789
 30
0.0
 10
-735.2534
 20
393.3095
 30
0.0
 10
-821.235
 20
422.4218
 30
0.0
 10
-833.3793
 20
463.3069
 30
0.0
 10
-852.5973
 20
486.0188
 30
0.0
 10
-875.0316
 20
500.4686
 30
0.0
 10
-848.722
 20
518.39
 30
0.0
 10
-828.0194
 20
541.5536
 30
0.0
 10
-824.8781
 20
581.1169
 30
0.0
 10
-813.7928
 20
582.9926
 30
0.0
 10
-803.7306
 20
586.0124
 30
0.0
 10
-794.6092
 20
589.9734
 30
0.0
  0
SPLINE
  5
96
330
1F
100
AcDbEntity
  8
Layer 1
 62
   250
370
    20
100
AcDbSpline
210
0.0
220
0.0
230
1.0
 70
    11
 71
     3
 72
    17
 73
    13
 74
     0
 42
0.0000000001
 43
0.0000000001
 40
0.0
 40
0.0
 40
0.0
 40
0.0
 40
0.25
 40
0.25
 40
0.25
 40
0.5
 40
0.5
 40
0.5
 40
0.75
 40
0.75
 40
0.75
 40
1.0
 40
1.0
 40
1.0
 40
1.0
 10
-1022.0334
 20
589.9734
 30
0.0
 10
-1022.0334
 20
589.9734
 30
0.0
 10
-860.7031
 20
589.9734
 30
0.0
 10
-860.7031
 20
589.9734
 30
0.0
 10
-860.8649
 20
569.4757
 30
0.0
 10
-868.1587
 20
550.7094
 30
0.0
 10
-884.1036
 20
532.2636
 30
0.0
 10
-907.6899
 20
566.8265
 30
0.0
 10
-963.7051
 20
568.6616
 30
0.0
 10
-993.1831
 20
535.0162
 30
0.0
 10
-1011.9877
 20
549.438
 30
0.0
 10
-1020.1968
 20
568.3525
 30
0.0
 10
-1022.0334
 20
589.9734
 30
0.0
  0
SPLINE
  5
97
330
1F
100
AcDbEntity
  8
Layer 1
 62
   250
370
    20
100
AcDbSpline
210
0.0
220
0.0
230
1.0
 70
    11
 71
     3
 72
    26
 73
    22
 74
     0
 42
0.0000000001
 43
0.0000000001
 40
0.0
 40
0.0
 40
0.0
 40
0.0
 40
0.1428571428571428
 40
0.1428571428571428
 40
0.1428571428571428
 40
0.2857142857142857
 40
0.2857142857142857
 40
0.2857142857142857
 40
0.4285714285714285
 40
0.4285714285714285
 40
0.4285714285714285
 40
0.5714285714285714
 40
0.5714285714285714
 40
0.5714285714285714
 40
0.7142857142857142
 40
0.7142857142857142
 40
0.7142857142857142
 40
0.8571428571428571
 40
0.8571428571428571
 40
0.8571428571428571
 40
1.0
 40
1.0
 40
1.0
 40
1.0
 10
-1200.05
 20
320.3568
 30
0.0
 10
-1200.05
 20
320.3568
 30
0.0
 10
-1200.05
 20
589.9734
 30
0.0
 10
-1200.05
 20
589.9734
 30
0.0
 10
-1200.05
 20
589.9734
 30
0.0
 10
-1099.4523
 20
589.9734
 30
0.0
 10
-1099.4523
 20
589.9734
 30
0.0
 10
-1092.109
 20
586.9928
 30
0.0
 10
-1084.0317
 20
584.1731
 30
0.0
 10
-1075.1245
 20
581.5197
 30
0.0
 10
-1072.9779
 20
547.8533
 30
0.0
 10
-1052.094
 20
521.3216
 30
0.0
 10
-1021.6454
 20
499.6686
 30
0.0
 10
-1056.9341
 20
466.2973
 30
0.0
 10
-1071.1473
 20
441.1824
 30
0.0
 10
-1072.9794
 20
419.8203
 30
0.0
 10
-1128.3385
 20
404.2767
 30
0.0
 10
-1158.4486
 20
372.7418
 30
0.0
 10
-1177.7865
 20
321.1625
 30
0.0
 10
-1177.7865
 20
321.1625
 30
0.0
 10
-1200.05
 20
320.3568
 30
0.0
 10
-1200.05
 20
320.3568
 30
0.0
  0
SPLINE
  5
98
330
1F
100
AcDbEntity
  8
Layer 1
 62
   250
370
    20
100
AcDbSpline
210
0.0
220
0.0
230
1.0
 70
    11
 71
     3
 72
    26
 73
    22
 74
     0
 42
0.0000000001
 43
0.0000000001
 40
0.0
 40
0.0
 40
0.0
 40
0.0
 40
0.1428571428571428
 40
0.1428571428571428
 40
0.1428571428571428
 40
0.2857142857142857
 40
0.2857142857142857
 40
0.2857142857142857
 40
0.4285714285714285
 40
0.4285714285714285
 40
0.4285714285714285
 40
0.5714285714285714
 40
0.5714285714285714
 40
0.5714285714285714
 40
0.7142857142857142
 40
0.7142857142857142
 40
0.7142857142857142
 40
0.8571428571428571
 40
0.8571428571428571
 40
0.8571428571428571
 40
1.0
 40
1.0
 40
1.0
 40
1.0
 10
-1200.05
 20
-71.2953
 30
0.0
 10
-1200.05
 20
-71.2953
 30
0.0
 10
-1200.05
 20
285.8218
 30
0.0
 10
-1200.05
 20
285.8218
 30
0.0
 10
-1200.05
 20
285.8218
 30
0.0
 10
-1176.7139
 20
285.5211
 30
0.0
 10
-1176.7139
 20
285.5211
 30
0.0
 10
-1166.487
 20
246.3033
 30
0.0
 10
-1149.877
 20
212.132
 30
0.0
 10
-1075.1245
 20
189.8677
 30
0.0
 10
-1072.9779
 20
156.2012
 30
0.0
 10
-1052.094
 20
129.6695
 30
0.0
 10
-1021.6454
 20
108.0165
 30
0.0
 10
-1056.9341
 20
74.6452
 30
0.0
 10
-1071.1473
 20
49.5303
 30
0.0
 10
-1072.9794
 20
28.1682
 30
0.0
 10
-1128.3385
 20
12.6246
 30
0.0
 10
-1158.4486
 20
-18.9102
 30
0.0
 10
-1177.7865
 20
-70.4896
 30
0.0
 10
-1177.7865
 20
-70.4896
 30
0.0
 10
-1200.05
 20
-71.2953
 30
0.0
 10
-1200.05
 20
-71.2953
 30
0.0
  0
SPLINE
  5
99
330
1F
100
AcDbEntity
  8
Layer 1
 62
   250
370
    20
100
AcDbSpline
210
0.0
220
0.0
230
1.0
 70
    11
 71
     3
 72
    26
 73
    22
 74
     0
 42
0.0000000001
 43
0.0000000001
 40
0.0
 40
0.0
 40
0.0
 40
0.0
 40
0.1428571428571428
 40
0.1428571428571428
 40
0.1428571428571428
 40
0.2857142857142857
 40
0.2857142857142857
 40
0.2857142857142857
 40
0.4285714285714285
 40
0.4285714285714285
 40
0.4285714285714285
 40
0.5714285714285714
 40
0.5714285714285714
 40
0.5714285714285714
 40
0.7142857142857142
 40
0.7142857142857142
 40
0.7142857142857142
 40
0.8571428571428571
 40
0.8571428571428571
 40
0.8571428571428571
 40
1.0
 40
1.0
 40
1.0
 40
1.0
 10
-1200.05
 20
-462.9473
 30
0.0
 10
-1200.05
 20
-462.9473
 30
0.0
 10
-1200.05
 20
-105.8302
 30
0.0
 10
-1200.05
 20
-105.8302
 30
0.0
 10
-1200.05
 20
-105.8302
 30
0.0
 10
-1176.7139
 20
-106.131
 30
0.0
 10
-1176.7139
 20
-106.131
 30
0.0
 10
-1166.487
 20
-145.3487
 30
0.0
 10
-1149.877
 20
-179.5201
 30
0.0
 10
-1075.1245
 20
-201.7844
 30
0.0
 10
-1072.9779
 20
-235.4508
 30
0.0
 10
-1052.094
 20
-261.9825
 30
0.0
 10
-1021.6454
 20
-283.6356
 30
0.0
 10
-1056.9341
 20
-317.0069
 30
0.0
 10
-1071.1473
 20
-342.1217
 30
0.0
 10
-1072.9794
 20
-363.4839
 30
0.0
 10
-1128.3385
 20
-379.0275
 30
0.0
 10
-1158.4486
 20
-410.5623
 30
0.0
 10
-1177.7865
 20
-462.1417
 30
0.0
 10
-1177.7865
 20
-462.1417
 30
0.0
 10
-1200.05
 20
-462.9473
 30
0.0
 10
-1200.05
 20
-462.9473
 30
0.0
  0
SPLINE
  5
9A
330
1F
100
AcDbEntity
  8
Layer 1
 62
   250
370
    20
100
AcDbSpline
210
0.0
220
0.0
230
1.0
 70
    11
 71
     3
 72
    17
 73
    13
 74
     0
 42
0.0000000001
 43
0.0000000001
 40
0.0
 40
0.0
 40
0.0
 40
0.0
 40
0.25
 40
0.25
 40
0.25
 40
0.5
 40
0.5
 40
0.5
 40
0.75
 40
0.75
 40
0.75
 40
1.0
 40
1.0
 40
1.0
 40
1.0
 10
-1200.05
 20
-590.0265
 30
0.0
 10
-1200.05
 20
-590.0265
 30
0.0
 10
-1200.05
 20
-496.7578
 30
0.0
 10
-1200.05
 20
-496.7578
 30
0.0
 10
-1200.05
 20
-496.7578
 30
0.0
 10
-1176.7139
 20
-497.0585
 30
0.0
 10
-1176.7139
 20
-497.0585
 30
0.0
 10
-1166.8899
 20
-534.7322
 30
0.0
 10
-1151.1667
 20
-567.7482
 30
0.0
 10
-1083.6782
 20
-590.0265
 30
0.0
 10
-1083.6782
 20
-590.0265
 30
0.0
 10
-1200.05
 20
-590.0265
 30
0.0
 10
-1200.05
 20
-590.0265
 30
0.0
  0
ENDSEC
  0
SECTION
  2
OBJECTS
  0
DICTIONARY
  5
C
330
0
100
AcDbDictionary
281
     1
  3
ACAD_DETAILVIEWSTYLE
350
A2
  3
ACAD_GROUP
350
D
  3
ACAD_LAYOUT
350
1A
  3
ACAD_MATERIAL
350
43
  3
ACAD_MLEADERSTYLE
350
5B
  3
ACAD_MLINESTYLE
350
17
  3
ACAD_PLOTSETTINGS
350
19
  3
ACAD_PLOTSTYLENAME
350
E
  3
ACAD_SCALELIST
350
47
  3
ACAD_SECTIONVIEWSTYLE
350
A3
  3
ACAD_TABLESTYLE
350
59
  3
ACAD_VISUALSTYLE
350
2A
  3
ACDB_RECOMPOSE_DATA
350
9F
  3
AcDbVariableDictionary
350
9B
  0
SUN
  5
5D
330
29
100
AcDbSun
 90
        1
290
     0
 63
     7
421
 16777215
 40
1.0
291
     1
 91
  2455826
 92
 54000000
292
     0
 70
     2
 71
   256
280
     1
  0
DICTIONARY
  5
A2
102
{ACAD_REACTORS
330
C
102
}
330
C
100
AcDbDictionary
281
     1
  0
DICTIONARY
  5
D
102
{ACAD_REACTORS
330
C
102
}
330
C
100
AcDbDictionary
281
     1
  0
DICTIONARY
  5
1A
102
{ACAD_REACTORS
330
C
102
}
330
C
100
AcDbDictionary
281
     1
  3
Layout1
350
1E
  3
Layout2
350
26
  3
Model
350
22
  0
DICTIONARY
  5
43
102
{ACAD_REACTORS
330
C
102
}
330
C
100
AcDbDictionary
281
     1
  3
ByBlock
350
45
  3
ByLayer
350
44
  3
Global
350
46
  0
DICTIONARY
  5
5B
102
{ACAD_REACTORS
330
C
102
}
330
C
100
AcDbDictionary
281
     1
  3
Standard
350
5C
  0
DICTIONARY
  5
17
102
{ACAD_REACTORS
330
C
102
}
330
C
100
AcDbDictionary
281
     1
  3
Standard
350
18
  0
DICTIONARY
  5
19
102
{ACAD_REACTORS
330
C
102
}
330
C
100
AcDbDictionary
281
     1
  0
ACDBDICTIONARYWDFLT
  5
E
102
{ACAD_REACTORS
330
C
102
}
330
C
100
AcDbDictionary
281
     1
  3
Normal
350
F
100
AcDbDictionaryWithDefault
340
F
  0
DICTIONARY
  5
47
102
{ACAD_REACTORS
330
C
102
}
330
C
100
AcDbDictionary
281
     1
  3
A0
350
48
  3
A1
350
49
  3
A2
350
4A
  3
A3
350
4B
  3
A4
350
4C
  3
A5
350
4D
  3
A6
350
4E
  3
A7
350
4F
  3
A8
350
50
  3
A9
350
51
  3
B1
350
52
  3
B2
350
53
  3
B3
350
54
  3
B4
350
55
  3
B5
350
56
  3
B6
350
57
  3
B7
350
58
  0
DICTIONARY
  5
A3
102
{ACAD_REACTORS
330
C
102
}
330
C
100
AcDbDictionary
281
     1
  0
DICTIONARY
  5
59
102
{ACAD_REACTORS
330
C
102
}
330
C
100
AcDbDictionary
281
     1
  3
Standard
350
5A
  0
DICTIONARY
  5
2A
102
{ACAD_REACTORS
330
C
102
}
330
C
100
AcDbDictionary
281
     1
  3
2dWireframe
350
2F
  3
Basic
350
32
  3
Brighten
350
36
  3
ColorChange
350
3A
  3
Conceptual
350
34
  3
Dim
350
35
  3
EdgeColorOff
350
3D
  3
Facepattern
350
39
  3
Flat
350
2B
  3
FlatWithEdges
350
2C
  3
Gouraud
350
2D
  3
GouraudWithEdges
350
2E
  3
Hidden
350
31
  3
JitterOff
350
3B
  3
Linepattern
350
38
  3
OverhangOff
350
3C
  3
Realistic
350
33
  3
Shaded
350
42
  3
Shaded with edges
350
41
  3
Shades of Gray
350
3E
  3
Sketchy
350
3F
  3
Thicken
350
37
  3
Wireframe
350
30
  3
X-Ray
350
40
  0
XRECORD
  5
9F
102
{ACAD_REACTORS
330
C
102
}
330
C
100
AcDbXrecord
280
     1
 90
        1
330
5A
  0
DICTIONARY
  5
9B
102
{ACAD_REACTORS
330
C
102
}
330
C
100
AcDbDictionary
281
     1
  3
CANNOSCALE
350
9C
  3
CMLEADERSTYLE
350
A1
  3
CTABLESTYLE
350
A0
  0
LAYOUT
  5
1E
102
{ACAD_REACTORS
330
1A
102
}
330
1A
100
AcDbPlotSettings
  1

  2
none_device
  4

  6

 40
0.0
 41
0.0
 42
0.0
 43
0.0
 44
0.0
 45
0.0
 46
0.0
 47
0.0
 48
0.0
 49
0.0
140
0.0
141
0.0
142
1.0
143
1.0
 70
   688
 72
     0
 73
     0
 74
     5
  7

 75
    16
 76
     0
 77
     2
 78
   300
147
1.0
148
0.0
149
0.0
100
AcDbLayout
  1
Layout1
 70
     1
 71
     1
 10
0.0
 20
0.0
 11
12.0
 21
9.0
 12
0.0
 22
0.0
 32
0.0
 14
1.000000000000000E+20
 24
1.000000000000000E+20
 34
1.000000000000000E+20
 15
-1.000000000000000E+20
 25
-1.000000000000000E+20
 35
-1.000000000000000E+20
146
0.0
 13
0.0
 23
0.0
 33
0.0
 16
1.0
 26
0.0
 36
0.0
 17
0.0
 27
1.0
 37
0.0
 76
     0
330
1B
  0
LAYOUT
  5
26
102
{ACAD_REACTORS
330
1A
102
}
330
1A
100
AcDbPlotSettings
  1

  2
none_device
  4

  6

 40
0.0
 41
0.0
 42
0.0
 43
0.0
 44
0.0
 45
0.0
 46
0.0
 47
0.0
 48
0.0
 49
0.0
140
0.0
141
0.0
142
1.0
143
1.0
 70
   688
 72
     0
 73
     0
 74
     5
  7

 75
    16
 76
     0
 77
     2
 78
   300
147
1.0
148
0.0
149
0.0
100
AcDbLayout
  1
Layout2
 70
     1
 71
     2
 10
0.0
 20
0.0
 11
0.0
 21
0.0
 12
0.0
 22
0.0
 32
0.0
 14
0.0
 24
0.0
 34
0.0
 15
0.0
 25
0.0
 35
0.0
146
0.0
 13
0.0
 23
0.0
 33
0.0
 16
1.0
 26
0.0
 36
0.0
 17
0.0
 27
1.0
 37
0.0
 76
     0
330
23
  0
LAYOUT
  5
22
102
{ACAD_REACTORS
330
1A
102
}
330
1A
100
AcDbPlotSettings
  1

  2
none_device
  4
Letter_(8.50_x_11.00_Inches)
  6

 40
6.35
 41
6.35
 42
6.35000508
 43
6.35000508
 44
215.9
 45
279.4
 46
0.0
 47
0.0
 48
0.0
 49
0.0
140
0.0
141
0.0
142
1.0
143
1.0
 70
  1712
 72
     0
 73
     0
 74
     0
  7

 75
     0
 76
     0
 77
     2
 78
   300
147
1.0
148
0.0
149
0.0
100
AcDbLayout
  1
Model
 70
     1
 71
     0
 10
0.0
 20
0.0
 11
12.0
 21
9.0
 12
0.0
 22
0.0
 32
0.0
 14
-1200.15
 24
-590.1266
 34
0.0
 15
1200.05
 25
590.0734
 35
0.0
146
0.0
 13
0.0
 23
0.0
 33
0.0
 16
1.0
 26
0.0
 36
0.0
 17
0.0
 27
1.0
 37
0.0
 76
     0
330
1F
331
29
  0
MATERIAL
  5
45
102
{ACAD_REACTORS
330
43
102
}
330
43
100
AcDbMaterial
  1
ByBlock
 72
     1
 94
      127
  0
MATERIAL
  5
44
102
{ACAD_REACTORS
330
43
102
}
330
43
100
AcDbMaterial
  1
ByLayer
 72
     1
 94
      127
  0
MATERIAL
  5
46
102
{ACAD_REACTORS
330
43
102
}
330
43
100
AcDbMaterial
  1
Global
 72
     1
 94
      127
  0
MLEADERSTYLE
  5
5C
102
{ACAD_REACTORS
330
5B
102
}
330
5B
100
AcDbMLeaderStyle
179
     2
170
     2
171
     1
172
     0
 90
        2
 40
0.0
 41
0.0
173
     1
 91
-1056964608
340
14
 92
       -2
290
     1
 42
0.09
291
     1
 43
0.36
  3
Standard
341
0
 44
0.18
300

342
11
174
     1
178
     6
175
     1
176
     0
 93
-1056964608
 45
0.18
292
     0
297
     0
 46
0.18
343
0
 94
-1056964608
 47
1.0
 49
1.0
140
1.0
293
     1
141
0.0
294
     1
177
     0
142
1.0
295
     0
296
     0
143
0.125
271
     0
272
     9
273
     9
298
     0
  0
MLINESTYLE
  5
18
102
{ACAD_REACTORS
330
17
102
}
330
17
100
AcDbMlineStyle
  2
Standard
 70
     0
  3

 62
   256
 51
90.0
 52
90.0
 71
     2
 49
0.5
 62
   256
  6
BYLAYER
 49
-0.5
 62
   256
  6
BYLAYER
  0
ACDBPLACEHOLDER
  5
F
102
{ACAD_REACTORS
330
E
102
}
330
E
  0
SCALE
  5
48
102
{ACAD_REACTORS
330
47
102
}
330
47
100
AcDbScale
 70
     0
300
1:1
140
1.0
141
1.0
290
     1
  0
SCALE
  5
49
102
{ACAD_REACTORS
330
47
102
}
330
47
100
AcDbScale
 70
     0
300
1/128" = 1'-0"
140
0.0078125
141
12.0
290
     0
  0
SCALE
  5
4A
102
{ACAD_REACTORS
330
47
102
}
330
47
100
AcDbScale
 70
     0
300
1/64" = 1'-0"
140
0.015625
141
12.0
290
     0
  0
SCALE
  5
4B
102
{ACAD_REACTORS
330
47
102
}
330
47
100
AcDbScale
 70
     0
300
1/32" = 1'-0"
140
0.03125
141
12.0
290
     0
  0
SCALE
  5
4C
102
{ACAD_REACTORS
330
47
102
}
330
47
100
AcDbScale
 70
     0
300
1/16" = 1'-0"
140
0.0625
141
12.0
290
     0
  0
SCALE
  5
4D
102
{ACAD_REACTORS
330
47
102
}
330
47
100
AcDbScale
 70
     0
300
3/32" = 1'-0"
140
0.09375
141
12.0
290
     0
  0
SCALE
  5
4E
102
{ACAD_REACTORS
330
47
102
}
330
47
100
AcDbScale
 70
     0
300
1/8" = 1'-0"
140
0.125
141
12.0
290
     0
  0
SCALE
  5
4F
102
{ACAD_REACTORS
330
47
102
}
330
47
100
AcDbScale
 70
     0
300
3/16" = 1'-0"
140
0.1875
141
12.0
290
     0
  0
SCALE
  5
50
102
{ACAD_REACTORS
330
47
102
}
330
47
100
AcDbScale
 70
     0
300
1/4" = 1'-0"
140
0.25
141
12.0
290
     0
  0
SCALE
  5
51
102
{ACAD_REACTORS
330
47
102
}
330
47
100
AcDbScale
 70
     0
300
3/8" = 1'-0"
140
0.375
141
12.0
290
     0
  0
SCALE
  5
52
102
{ACAD_REACTORS
330
47
102
}
330
47
100
AcDbScale
 70
     0
300
1/2" = 1'-0"
140
0.5
141
12.0
290
     0
  0
SCALE
  5
53
102
{ACAD_REACTORS
330
47
102
}
330
47
100
AcDbScale
 70
     0
300
3/4" = 1'-0"
140
0.75
141
12.0
290
     0
  0
SCALE
  5
54
102
{ACAD_REACTORS
330
47
102
}
330
47
100
AcDbScale
 70
     0
300
1" = 1'-0"
140
1.0
141
12.0
290
     0
  0
SCALE
  5
55
102
{ACAD_REACTORS
330
47
102
}
330
47
100
AcDbScale
 70
     0
300
1-1/2" = 1'-0"
140
1.5
141
12.0
290
     0
  0
SCALE
  5
56
102
{ACAD_REACTORS
330
47
102
}
330
47
100
AcDbScale
 70
     0
300
3" = 1'-0"
140
3.0
141
12.0
290
     0
  0
SCALE
  5
57
102
{ACAD_REACTORS
330
47
102
}
330
47
100
AcDbScale
 70
     0
300
6" = 1'-0"
140
6.0
141
12.0
290
     0
  0
SCALE
  5
58
102
{ACAD_REACTORS
330
47
102
}
330
47
100
AcDbScale
 70
     0
300
1'-0" = 1'-0"
140
12.0
141
12.0
290
     0
  0
TABLESTYLE
  5
5A
102
{ACAD_REACTORS
330
59
102
}
102
{ACAD_XDICTIONARY
360
9D
102
}
330
59
100
AcDbTableStyle
  3
Standard
 70
     0
 71
     0
 40
0.06
 41
0.06
280
     0
281
     0
  7
Standard
140
0.18
170
     2
 62
     0
 63
   257
283
     0
 90
        4
 91
        0
  1

274
    -2
284
     1
 64
     0
275
    -2
285
     1
 65
     0
276
    -2
286
     1
 66
     0
277
    -2
287
     1
 67
     0
278
    -2
288
     1
 68
     0
279
    -2
289
     1
 69
     0
  7
Standard
140
0.25
170
     5
 62
     0
 63
   257
283
     0
 90
        4
 91
        0
  1

274
    -2
284
     1
 64
     0
275
    -2
285
     1
 65
     0
276
    -2
286
     1
 66
     0
277
    -2
287
     1
 67
     0
278
    -2
288
     1
 68
     0
279
    -2
289
     1
 69
     0
  7
Standard
140
0.18
170
     5
 62
     0
 63
   257
283
     0
 90
        4
 91
        0
  1

274
    -2
284
     1
 64
     0
275
    -2
285
     1
 65
     0
276
    -2
286
     1
 66
     0
277
    -2
287
     1
 67
     0
278
    -2
288
     1
 68
     0
279
    -2
289
     1
 69
     0
  0
VISUALSTYLE
  5
2F
102
{ACAD_REACTORS
330
2A
102
}
330
2A
100
AcDbVisualStyle
  2
2dWireframe
 70
     4
177
     3
291
     0
 70
    58
 90
        0
176
     1
 90
        2
176
     1
 90
        0
176
     1
 90
        0
176
     1
 40
0.6
176
     1
 40
30.0
176
     1
 62
     7
420
 16777215
176
     1
 90
        1
176
     1
 90
        4
176
     1
 62
     7
176
     1
 62
   257
176
     1
 90
        1
176
     1
 90
        1
176
     1
 40
1.0
176
     1
 90
        0
176
     1
 62
   257
176
     1
 40
1.0
176
     1
 90
        1
176
     1
 90
        6
176
     1
 90
        2
176
     1
 62
     7
176
     1
 90
        5
176
     1
 90
        0
176
     1
 90
        0
176
     1
290
     0
176
     1
 90
        1
176
     1
 40
0.0
176
     1
 90
        0
176
     1
290
     1
176
     1
290
     1
176
     1
290
     0
176
     1
290
     0
176
     1
290
     0
176
     1
290
     0
176
     1
290
     0
176
     1
290
     0
176
     1
290
     0
176
     1
 90
       50
176
     1
 40
0.0
176
     1
 40
1.0
176
     1
 90
        0
176
     1
 62
    18
420
        0
176
     1
 90
       50
176
     1
 90
        3
176
     1
 62
     5
420
      255
176
     1
290
     0
176
     1
 90
       50
176
     1
 90
       50
176
     1
 90
       50
176
     1
290
     0
176
     1
 90
       50
176
     1
 62
   256
176
     0
 40
1.0
176
     0
 90
        2
176
     1
  1
strokes_ogs.tif
176
     1
290
     0
176
     1
 40
1.0
176
     1
 40
1.0
176
     1
  0
VISUALSTYLE
  5
32
102
{ACAD_REACTORS
330
2A
102
}
330
2A
100
AcDbVisualStyle
  2
Basic
 70
     7
177
     3
291
     1
 70
    58
 90
        1
176
     1
 90
        0
176
     1
 90
        1
176
     1
 90
        0
176
     1
 40
0.6
176
     1
 40
30.0
176
     1
 62
     7
420
 16777215
176
     1
 90
        0
176
     1
 90
        4
176
     1
 62
     7
176
     1
 62
   257
176
     1
 90
        1
176
     1
 90
        1
176
     1
 40
1.0
176
     1
 90
        8
176
     1
 62
     7
176
     1
 40
1.0
176
     1
 90
        1
176
     1
 90
        6
176
     1
 90
        2
176
     1
 62
     7
176
     1
 90
        5
176
     1
 90
        0
176
     1
 90
        0
176
     1
290
     0
176
     1
 90
        1
176
     1
 40
0.0
176
     1
 90
        0
176
     1
290
     0
176
     1
290
     1
176
     1
290
     1
176
     1
290
     0
176
     1
290
     0
176
     1
290
     0
176
     1
290
     0
176
     1
290
     0
176
     1
290
     0
176
     1
 90
       50
176
     1
 40
0.0
176
     1
 40
1.0
176
     1
 90
        0
176
     1
 62
    18
420
        0
176
     1
 90
       50
176
     1
 90
        3
176
     1
 62
     5
420
      255
176
     1
290
     0
176
     1
 90
       50
176
     1
 90
       50
176
     1
 90
       50
176
     1
290
     0
176
     1
 90
       50
176
     1
 62
   256
176
     0
 40
1.0
176
     0
 90
        2
176
     1
  1
strokes_ogs.tif
176
     1
290
     0
176
     1
 40
1.0
176
     1
 40
1.0
176
     1
  0
VISUALSTYLE
  5
36
102
{ACAD_REACTORS
330
2A
102
}
330
2A
100
AcDbVisualStyle
  2
Brighten
 70
    12
177
     3
291
     1
 70
    58
 90
        2
176
     1
 90
        2
176
     1
 90
        0
176
     1
 90
        0
176
     1
 40
0.6
176
     1
 40
30.0
176
     1
 62
     7
420
 16777215
176
     1
 90
        1
176
     1
 90
        4
176
     1
 62
     7
176
     1
 62
   257
176
     1
 90
        1
176
     1
 90
        1
176
     1
 40
1.0
176
     1
 90
        8
176
     1
 62
     7
176
     1
 40
1.0
176
     1
 90
        1
176
     1
 90
        6
176
     1
 90
        2
176
     1
 62
     7
176
     1
 90
        5
176
     1
 90
        0
176
     1
 90
        0
176
     1
290
     0
176
     1
 90
        1
176
     1
 40
50.0
176
     1
 90
        0
176
     1
290
     0
176
     1
290
     1
176
     1
290
     1
176
     1
290
     0
176
     1
290
     0
176
     1
290
     0
176
     1
290
     0
176
     1
290
     0
176
     1
290
     0
176
     1
 90
       50
176
     1
 40
0.0
176
     1
 40
1.0
176
     1
 90
        0
176
     1
 62
    18
420
        0
176
     1
 90
       50
176
     1
 90
        3
176
     1
 62
     5
420
      255
176
     1
290
     0
176
     1
 90
       50
176
     1
 90
       50
176
     1
 90
       50
176
     1
290
     0
176
     1
 90
       50
176
     1
 62
   256
176
     0
 40
1.0
176
     0
 90
        2
176
     1
  1
strokes_ogs.tif
176
     1
290
     0
176
     1
 40
1.0
176
     1
 40
1.0
176
     1
  0
VISUALSTYLE
  5
3A
102
{ACAD_REACTORS
330
2A
102
}
330
2A
100
AcDbVisualStyle
  2
ColorChange
 70
    16
177
     3
291
     1
 70
    58
 90
        2
176
     1
 90
        2
176
     1
 90
        3
176
     1
 90
        0
176
     1
 40
0.6
176
     1
 40
30.0
176
     1
 62
     8
420
  8421504
176
     1
 90
        1
176
     1
 90
        4
176
     1
 62
     7
176
     1
 62
   257
176
     1
 90
        1
176
     1
 90
        1
176
     1
 40
1.0
176
     1
 90
        8
176
     1
 62
     8
420
  8421504
176
     1
 40
1.0
176
     1
 90
        1
176
     1
 90
        6
176
     1
 90
        2
176
     1
 62
     7
176
     1
 90
        5
176
     1
 90
        0
176
     1
 90
        0
176
     1
290
     0
176
     1
 90
        1
176
     1
 40
0.0
176
     1
 90
        0
176
     1
290
     0
176
     1
290
     1
176
     1
290
     1
176
     1
290
     0
176
     1
290
     0
176
     1
290
     0
176
     1
290
     0
176
     1
290
     0
176
     1
290
     0
176
     1
 90
       50
176
     1
 40
0.0
176
     1
 40
1.0
176
     1
 90
        0
176
     1
 62
    18
420
        0
176
     1
 90
       50
176
     1
 90
        3
176
     1
 62
     5
420
      255
176
     1
290
     0
176
     1
 90
       50
176
     1
 90
       50
176
     1
 90
       50
176
     1
290
     0
176
     1
 90
       50
176
     1
 62
   256
176
     0
 40
1.0
176
     0
 90
        2
176
     1
  1
strokes_ogs.tif
176
     1
290
     0
176
     1
 40
1.0
176
     1
 40
1.0
176
     1
  0
VISUALSTYLE
  5
34
102
{ACAD_REACTORS
330
2A
102
}
330
2A
100
AcDbVisualStyle
  2
Conceptual
 70
     9
177
     3
291
     0
 70
    58
 90
        3
176
     1
 90
        2
176
     1
 90
        0
176
     1
 90
        0
176
     1
 40
0.6
176
     1
 40
30.0
176
     1
 62
     7
420
 16777215
176
     1
 90
        2
176
     1
 90
        2
176
     1
 62
     7
176
     1
 62
   257
176
     1
 90
        1
176
     1
 90
        1
176
     1
 40
179.0
176
     1
 90
        8
176
     1
 62
     7
176
     1
 40
1.0
176
     1
 90
        1
176
     1
 90
        6
176
     1
 90
        2
176
     1
 62
     7
176
     1
 90
        3
176
     1
 90
        0
176
     1
 90
        0
176
     1
290
     0
176
     1
 90
        1
176
     1
 40
0.0
176
     1
 90
        0
176
     1
290
     0
176
     1
290
     1
176
     1
290
     1
176
     1
290
     0
176
     1
290
     0
176
     1
290
     0
176
     1
290
     0
176
     1
290
     0
176
     1
290
     0
176
     1
 90
       50
176
     1
 40
0.0
176
     1
 40
1.0
176
     1
 90
        0
176
     1
 62
    18
420
        0
176
     1
 90
       50
176
     1
 90
        3
176
     1
 62
     5
420
      255
176
     1
290
     0
176
     1
 90
       50
176
     1
 90
       50
176
     1
 90
       50
176
     1
290
     0
176
     1
 90
       50
176
     1
 62
   256
176
     0
 40
1.0
176
     0
 90
        2
176
     1
  1
strokes_ogs.tif
176
     1
290
     0
176
     1
 40
1.0
176
     1
 40
1.0
176
     1
  0
VISUALSTYLE
  5
35
102
{ACAD_REACTORS
330
2A
102
}
330
2A
100
AcDbVisualStyle
  2
Dim
 70
    11
177
     3
291
     1
 70
    58
 90
        2
176
     1
 90
        2
176
     1
 90
        0
176
     1
 90
        0
176
     1
 40
0.6
176
     1
 40
30.0
176
     1
 62
     7
420
 16777215
176
     1
 90
        1
176
     1
 90
        4
176
     1
 62
     7
176
     1
 62
   257
176
     1
 90
        1
176
     1
 90
        1
176
     1
 40
1.0
176
     1
 90
        8
176
     1
 62
     7
176
     1
 40
1.0
176
     1
 90
        1
176
     1
 90
        6
176
     1
 90
        2
176
     1
 62
     7
176
     1
 90
        5
176
     1
 90
        0
176
     1
 90
        0
176
     1
290
     0
176
     1
 90
        1
176
     1
 40
-50.0
176
     1
 90
        0
176
     1
290
     0
176
     1
290
     1
176
     1
290
     1
176
     1
290
     0
176
     1
290
     0
176
     1
290
     0
176
     1
290
     0
176
     1
290
     0
176
     1
290
     0
176
     1
 90
       50
176
     1
 40
0.0
176
     1
 40
1.0
176
     1
 90
        0
176
     1
 62
    18
420
        0
176
     1
 90
       50
176
     1
 90
        3
176
     1
 62
     5
420
      255
176
     1
290
     0
176
     1
 90
       50
176
     1
 90
       50
176
     1
 90
       50
176
     1
290
     0
176
     1
 90
       50
176
     1
 62
   256
176
     0
 40
1.0
176
     0
 90
        2
176
     1
  1
strokes_ogs.tif
176
     1
290
     0
176
     1
 40
1.0
176
     1
 40
1.0
176
     1
  0
VISUALSTYLE
  5
3D
102
{ACAD_REACTORS
330
2A
102
}
330
2A
100
AcDbVisualStyle
  2
EdgeColorOff
 70
    22
177
     3
291
     1
 70
    58
 90
        2
176
     0
 90
        2
176
     0
 90
        0
176
     0
 90
        0
176
     0
 40
0.6
176
     0
 40
30.0
176
     0
 62
     7
420
 16777215
176
     0
 90
        1
176
     0
 90
        4
176
     0
 62
     7
176
     0
 62
   257
176
     0
 90
        1
176
     0
 90
        1
176
     0
 40
1.0
176
     0
 90
        8
176
     2
 62
     7
176
     0
 40
1.0
176
     0
 90
        1
176
     0
 90
        6
176
     0
 90
        2
176
     0
 62
     7
176
     0
 90
        5
176
     0
 90
        0
176
     0
 90
        0
176
     0
290
     0
176
     0
 90
        1
176
     0
 40
0.0
176
     0
 90
        0
176
     0
290
     0
176
     0
290
     1
176
     0
290
     1
176
     0
290
     0
176
     0
290
     0
176
     0
290
     0
176
     0
290
     0
176
     0
290
     0
176
     0
290
     0
176
     0
 90
       50
176
     0
 40
0.0
176
     0
 40
1.0
176
     0
 90
        0
176
     0
 62
    18
420
        0
176
     0
 90
       50
176
     0
 90
        3
176
     0
 62
     5
420
      255
176
     0
290
     0
176
     0
 90
       50
176
     0
 90
       50
176
     0
 90
       50
176
     0
290
     0
176
     0
 90
       50
176
     0
 62
   256
176
     0
 40
1.0
176
     0
 90
        2
176
     0
  1
strokes_ogs.tif
176
     0
290
     0
176
     0
 40
1.0
176
     0
 40
1.0
176
     0
  0
VISUALSTYLE
  5
39
102
{ACAD_REACTORS
330
2A
102
}
330
2A
100
AcDbVisualStyle
  2
Facepattern
 70
    15
177
     3
291
     1
 70
    58
 90
        2
176
     1
 90
        2
176
     1
 90
        0
176
     1
 90
        0
176
     1
 40
0.6
176
     1
 40
30.0
176
     1
 62
     7
420
 16777215
176
     1
 90
        1
176
     1
 90
        4
176
     1
 62
     7
176
     1
 62
   257
176
     1
 90
        1
176
     1
 90
        1
176
     1
 40
1.0
176
     1
 90
        8
176
     1
 62
     7
176
     1
 40
1.0
176
     1
 90
        1
176
     1
 90
        6
176
     1
 90
        2
176
     1
 62
     7
176
     1
 90
        5
176
     1
 90
        0
176
     1
 90
        0
176
     1
290
     0
176
     1
 90
        1
176
     1
 40
0.0
176
     1
 90
        0
176
     1
290
     0
176
     1
290
     1
176
     1
290
     1
176
     1
290
     0
176
     1
290
     0
176
     1
290
     0
176
     1
290
     0
176
     1
290
     0
176
     1
290
     0
176
     1
 90
       50
176
     1
 40
0.0
176
     1
 40
1.0
176
     1
 90
        0
176
     1
 62
    18
420
        0
176
     1
 90
       50
176
     1
 90
        3
176
     1
 62
     5
420
      255
176
     1
290
     0
176
     1
 90
       50
176
     1
 90
       50
176
     1
 90
       50
176
     1
290
     0
176
     1
 90
       50
176
     1
 62
   256
176
     0
 40
1.0
176
     0
 90
        2
176
     1
  1
strokes_ogs.tif
176
     1
290
     0
176
     1
 40
1.0
176
     1
 40
1.0
176
     1
  0
VISUALSTYLE
  5
2B
102
{ACAD_REACTORS
330
2A
102
}
330
2A
100
AcDbVisualStyle
  2
Flat
 70
     0
177
     3
291
     1
 70
    58
 90
        2
176
     1
 90
        1
176
     1
 90
        1
176
     1
 90
        2
176
     1
 40
0.6
176
     1
 40
30.0
176
     1
 62
     7
420
 16777215
176
     1
 90
        0
176
     1
 90
        0
176
     1
 62
     7
176
     1
 62
   257
176
     1
 90
        1
176
     1
 90
        1
176
     1
 40
1.0
176
     1
 90
        8
176
     1
 62
     7
176
     1
 40
1.0
176
     1
 90
        1
176
     1
 90
        6
176
     1
 90
        2
176
     1
 62
     7
176
     1
 90
        5
176
     1
 90
        0
176
     1
 90
        0
176
     1
290
     0
176
     1
 90
       13
176
     1
 40
0.0
176
     1
 90
        0
176
     1
290
     0
176
     1
290
     1
176
     1
290
     1
176
     1
290
     0
176
     1
290
     0
176
     1
290
     0
176
     1
290
     0
176
     1
290
     0
176
     1
290
     0
176
     1
 90
       50
176
     1
 40
0.0
176
     1
 40
1.0
176
     1
 90
        0
176
     1
 62
    18
420
        0
176
     1
 90
       50
176
     1
 90
        3
176
     1
 62
     5
420
      255
176
     1
290
     0
176
     1
 90
       50
176
     1
 90
       50
176
     1
 90
       50
176
     1
290
     0
176
     1
 90
       50
176
     1
 62
   256
176
     0
 40
1.0
176
     0
 90
        2
176
     1
  1
strokes_ogs.tif
176
     1
290
     0
176
     1
 40
1.0
176
     1
 40
1.0
176
     1
  0
VISUALSTYLE
  5
2C
102
{ACAD_REACTORS
330
2A
102
}
330
2A
100
AcDbVisualStyle
  2
FlatWithEdges
 70
     1
177
     3
291
     1
 70
    58
 90
        2
176
     1
 90
        1
176
     1
 90
        1
176
     1
 90
        2
176
     1
 40
0.6
176
     1
 40
30.0
176
     1
 62
     7
420
 16777215
176
     1
 90
        1
176
     1
 90
        0
176
     1
 62
     7
176
     1
 62
   257
176
     1
 90
        1
176
     1
 90
        1
176
     1
 40
1.0
176
     1
 90
        0
176
     1
 62
   257
176
     1
 40
1.0
176
     1
 90
        1
176
     1
 90
        6
176
     1
 90
        2
176
     1
 62
     7
176
     1
 90
        5
176
     1
 90
        0
176
     1
 90
        0
176
     1
290
     0
176
     1
 90
       13
176
     1
 40
0.0
176
     1
 90
        0
176
     1
290
     0
176
     1
290
     1
176
     1
290
     1
176
     1
290
     0
176
     1
290
     0
176
     1
290
     0
176
     1
290
     0
176
     1
290
     0
176
     1
290
     0
176
     1
 90
       50
176
     1
 40
0.0
176
     1
 40
1.0
176
     1
 90
        0
176
     1
 62
    18
420
        0
176
     1
 90
       50
176
     1
 90
        3
176
     1
 62
     5
420
      255
176
     1
290
     0
176
     1
 90
       50
176
     1
 90
       50
176
     1
 90
       50
176
     1
290
     0
176
     1
 90
       50
176
     1
 62
   256
176
     0
 40
1.0
176
     0
 90
        2
176
     1
  1
strokes_ogs.tif
176
     1
290
     0
176
     1
 40
1.0
176
     1
 40
1.0
176
     1
  0
VISUALSTYLE
  5
2D
102
{ACAD_REACTORS
330
2A
102
}
330
2A
100
AcDbVisualStyle
  2
Gouraud
 70
     2
177
     3
291
     1
 70
    58
 90
        2
176
     1
 90
        2
176
     1
 90
        1
176
     1
 90
        2
176
     1
 40
0.6
176
     1
 40
30.0
176
     1
 62
     7
420
 16777215
176
     1
 90
        0
176
     1
 90
        0
176
     1
 62
     7
176
     1
 62
   257
176
     1
 90
        1
176
     1
 90
        1
176
     1
 40
1.0
176
     1
 90
        0
176
     1
 62
     7
176
     1
 40
1.0
176
     1
 90
        1
176
     1
 90
        6
176
     1
 90
        2
176
     1
 62
     7
176
     1
 90
        5
176
     1
 90
        0
176
     1
 90
        0
176
     1
290
     0
176
     1
 90
       13
176
     1
 40
0.0
176
     1
 90
        0
176
     1
290
     0
176
     1
290
     1
176
     1
290
     1
176
     1
290
     0
176
     1
290
     0
176
     1
290
     0
176
     1
290
     0
176
     1
290
     0
176
     1
290
     0
176
     1
 90
       50
176
     1
 40
0.0
176
     1
 40
1.0
176
     1
 90
        0
176
     1
 62
    18
420
        0
176
     1
 90
       50
176
     1
 90
        3
176
     1
 62
     5
420
      255
176
     1
290
     0
176
     1
 90
       50
176
     1
 90
       50
176
     1
 90
       50
176
     1
290
     0
176
     1
 90
       50
176
     1
 62
   256
176
     0
 40
1.0
176
     0
 90
        2
176
     1
  1
strokes_ogs.tif
176
     1
290
     0
176
     1
 40
1.0
176
     1
 40
1.0
176
     1
  0
VISUALSTYLE
  5
2E
102
{ACAD_REACTORS
330
2A
102
}
330
2A
100
AcDbVisualStyle
  2
GouraudWithEdges
 70
     3
177
     3
291
     1
 70
    58
 90
        2
176
     1
 90
        2
176
     1
 90
        1
176
     1
 90
        2
176
     1
 40
0.6
176
     1
 40
30.0
176
     1
 62
     7
420
 16777215
176
     1
 90
        1
176
     1
 90
        0
176
     1
 62
     7
176
     1
 62
   257
176
     1
 90
        1
176
     1
 90
        1
176
     1
 40
1.0
176
     1
 90
        0
176
     1
 62
   257
176
     1
 40
1.0
176
     1
 90
        1
176
     1
 90
        6
176
     1
 90
        2
176
     1
 62
     7
176
     1
 90
        5
176
     1
 90
        0
176
     1
 90
        0
176
     1
290
     0
176
     1
 90
       13
176
     1
 40
0.0
176
     1
 90
        0
176
     1
290
     0
176
     1
290
     1
176
     1
290
     1
176
     1
290
     0
176
     1
290
     0
176
     1
290
     0
176
     1
290
     0
176
     1
290
     0
176
     1
290
     0
176
     1
 90
       50
176
     1
 40
0.0
176
     1
 40
1.0
176
     1
 90
        0
176
     1
 62
    18
420
        0
176
     1
 90
       50
176
     1
 90
        3
176
     1
 62
     5
420
      255
176
     1
290
     0
176
     1
 90
       50
176
     1
 90
       50
176
     1
 90
       50
176
     1
290
     0
176
     1
 90
       50
176
     1
 62
   256
176
     0
 40
1.0
176
     0
 90
        2
176
     1
  1
strokes_ogs.tif
176
     1
290
     0
176
     1
 40
1.0
176
     1
 40
1.0
176
     1
  0
VISUALSTYLE
  5
31
102
{ACAD_REACTORS
330
2A
102
}
330
2A
100
AcDbVisualStyle
  2
Hidden
 70
     6
177
     3
291
     0
 70
    58
 90
        1
176
     1
 90
        2
176
     1
 90
        2
176
     1
 90
        0
176
     1
 40
0.6
176
     1
 40
30.0
176
     1
 62
     7
420
 16777215
176
     1
 90
        2
176
     1
 90
        2
176
     1
 62
     7
176
     1
 62
   257
176
     1
 90
        2
176
     1
 90
        1
176
     1
 40
40.0
176
     1
 90
        0
176
     1
 62
   257
176
     1
 40
1.0
176
     1
 90
        1
176
     1
 90
        6
176
     1
 90
        2
176
     1
 62
     7
176
     1
 90
        3
176
     1
 90
        0
176
     1
 90
        0
176
     1
290
     0
176
     1
 90
        1
176
     1
 40
0.0
176
     1
 90
        0
176
     1
290
     0
176
     1
290
     1
176
     1
290
     1
176
     1
290
     0
176
     1
290
     0
176
     1
290
     0
176
     1
290
     0
176
     1
290
     0
176
     1
290
     0
176
     1
 90
       50
176
     1
 40
0.0
176
     1
 40
1.0
176
     1
 90
        0
176
     1
 62
    18
420
        0
176
     1
 90
       50
176
     1
 90
        3
176
     1
 62
     5
420
      255
176
     1
290
     0
176
     1
 90
       50
176
     1
 90
       50
176
     1
 90
       50
176
     1
290
     0
176
     1
 90
       50
176
     1
 62
   256
176
     0
 40
1.0
176
     0
 90
        2
176
     1
  1
strokes_ogs.tif
176
     1
290
     0
176
     1
 40
1.0
176
     1
 40
1.0
176
     1
  0
VISUALSTYLE
  5
3B
102
{ACAD_REACTORS
330
2A
102
}
330
2A
100
AcDbVisualStyle
  2
JitterOff
 70
    20
177
     3
291
     1
 70
    58
 90
        2
176
     0
 90
        2
176
     0
 90
        0
176
     0
 90
        0
176
     0
 40
0.6
176
     0
 40
30.0
176
     0
 62
     7
420
 16777215
176
     0
 90
        1
176
     0
 90
        4
176
     0
 62
     7
176
     0
 62
   257
176
     0
 90
        1
176
     0
 90
        1
176
     0
 40
1.0
176
     0
 90
       10
176
     2
 62
     7
176
     0
 40
1.0
176
     0
 90
        1
176
     0
 90
        6
176
     0
 90
        2
176
     0
 62
     7
176
     0
 90
        5
176
     0
 90
        0
176
     0
 90
        0
176
     0
290
     0
176
     0
 90
        1
176
     0
 40
0.0
176
     0
 90
        0
176
     0
290
     0
176
     0
290
     1
176
     0
290
     1
176
     0
290
     0
176
     0
290
     0
176
     0
290
     0
176
     0
290
     0
176
     0
290
     0
176
     0
290
     0
176
     0
 90
       50
176
     0
 40
0.0
176
     0
 40
1.0
176
     0
 90
        0
176
     0
 62
    18
420
        0
176
     0
 90
       50
176
     0
 90
        3
176
     0
 62
     5
420
      255
176
     0
290
     0
176
     0
 90
       50
176
     0
 90
       50
176
     0
 90
       50
176
     0
290
     0
176
     0
 90
       50
176
     0
 62
   256
176
     0
 40
1.0
176
     0
 90
        2
176
     0
  1
strokes_ogs.tif
176
     0
290
     0
176
     0
 40
1.0
176
     0
 40
1.0
176
     0
  0
VISUALSTYLE
  5
38
102
{ACAD_REACTORS
330
2A
102
}
330
2A
100
AcDbVisualStyle
  2
Linepattern
 70
    14
177
     3
291
     1
 70
    58
 90
        2
176
     1
 90
        2
176
     1
 90
        0
176
     1
 90
        0
176
     1
 40
0.6
176
     1
 40
30.0
176
     1
 62
     7
420
 16777215
176
     1
 90
        1
176
     1
 90
        4
176
     1
 62
     7
176
     1
 62
   257
176
     1
 90
        7
176
     1
 90
        7
176
     1
 40
1.0
176
     1
 90
        8
176
     1
 62
     7
176
     1
 40
1.0
176
     1
 90
        1
176
     1
 90
        6
176
     1
 90
        2
176
     1
 62
     7
176
     1
 90
        5
176
     1
 90
        0
176
     1
 90
        0
176
     1
290
     0
176
     1
 90
        1
176
     1
 40
0.0
176
     1
 90
        0
176
     1
290
     0
176
     1
290
     1
176
     1
290
     1
176
     1
290
     0
176
     1
290
     0
176
     1
290
     0
176
     1
290
     0
176
     1
290
     0
176
     1
290
     0
176
     1
 90
       50
176
     1
 40
0.0
176
     1
 40
1.0
176
     1
 90
        0
176
     1
 62
    18
420
        0
176
     1
 90
       50
176
     1
 90
        3
176
     1
 62
     5
420
      255
176
     1
290
     0
176
     1
 90
       50
176
     1
 90
       50
176
     1
 90
       50
176
     1
290
     0
176
     1
 90
       50
176
     1
 62
   256
176
     0
 40
1.0
176
     0
 90
        2
176
     1
  1
strokes_ogs.tif
176
     1
290
     0
176
     1
 40
1.0
176
     1
 40
1.0
176
     1
  0
VISUALSTYLE
  5
3C
102
{ACAD_REACTORS
330
2A
102
}
330
2A
100
AcDbVisualStyle
  2
OverhangOff
 70
    21
177
     3
291
     1
 70
    58
 90
        2
176
     0
 90
        2
176
     0
 90
        0
176
     0
 90
        0
176
     0
 40
0.6
176
     0
 40
30.0
176
     0
 62
     7
420
 16777215
176
     0
 90
        1
176
     0
 90
        4
176
     0
 62
     7
176
     0
 62
   257
176
     0
 90
        1
176
     0
 90
        1
176
     0
 40
1.0
176
     0
 90
        9
176
     2
 62
     7
176
     0
 40
1.0
176
     0
 90
        1
176
     0
 90
        6
176
     0
 90
        2
176
     0
 62
     7
176
     0
 90
        5
176
     0
 90
        0
176
     0
 90
        0
176
     0
290
     0
176
     0
 90
        1
176
     0
 40
0.0
176
     0
 90
        0
176
     0
290
     0
176
     0
290
     1
176
     0
290
     1
176
     0
290
     0
176
     0
290
     0
176
     0
290
     0
176
     0
290
     0
176
     0
290
     0
176
     0
290
     0
176
     0
 90
       50
176
     0
 40
0.0
176
     0
 40
1.0
176
     0
 90
        0
176
     0
 62
    18
420
        0
176
     0
 90
       50
176
     0
 90
        3
176
     0
 62
     5
420
      255
176
     0
290
     0
176
     0
 90
       50
176
     0
 90
       50
176
     0
 90
       50
176
     0
290
     0
176
     0
 90
       50
176
     0
 62
   256
176
     0
 40
1.0
176
     0
 90
        2
176
     0
  1
strokes_ogs.tif
176
     0
290
     0
176
     0
 40
1.0
176
     0
 40
1.0
176
     0
  0
VISUALSTYLE
  5
33
102
{ACAD_REACTORS
330
2A
102
}
330
2A
100
AcDbVisualStyle
  2
Realistic
 70
     8
177
     3
291
     0
 70
    58
 90
        2
176
     1
 90
        3
176
     1
 90
        0
176
     1
 90
        2
176
     1
 40
0.6
176
     1
 40
30.0
176
     1
 62
     7
420
 16777215
176
     1
 90
        0
176
     1
 90
        0
176
     1
 62
     7
176
     1
 62
   257
176
     1
 90
        1
176
     1
 90
        1
176
     1
 40
1.0
176
     1
 90
        8
176
     1
 62
   257
176
     1
 40
1.0
176
     1
 90
        1
176
     1
 90
        6
176
     1
 90
        2
176
     1
 62
     7
176
     1
 90
        3
176
     1
 90
        0
176
     1
 90
        0
176
     1
290
     0
176
     1
 90
       13
176
     1
 40
0.0
176
     1
 90
        0
176
     1
290
     0
176
     1
290
     1
176
     1
290
     1
176
     1
290
     0
176
     1
290
     0
176
     1
290
     0
176
     1
290
     0
176
     1
290
     0
176
     1
290
     0
176
     1
 90
       50
176
     1
 40
0.0
176
     1
 40
1.0
176
     1
 90
        0
176
     1
 62
    18
420
        0
176
     1
 90
       50
176
     1
 90
        3
176
     1
 62
     5
420
      255
176
     1
290
     0
176
     1
 90
       50
176
     1
 90
       50
176
     1
 90
       50
176
     1
290
     0
176
     1
 90
       50
176
     1
 62
   256
176
     0
 40
1.0
176
     0
 90
        2
176
     1
  1
strokes_ogs.tif
176
     1
290
     0
176
     1
 40
1.0
176
     1
 40
1.0
176
     1
  0
VISUALSTYLE
  5
42
102
{ACAD_REACTORS
330
2A
102
}
330
2A
100
AcDbVisualStyle
  2
Shaded
 70
    27
177
     3
291
     0
 70
    58
 90
        2
176
     1
 90
        2
176
     1
 90
        1
176
     1
 90
        2
176
     1
 40
0.6
176
     1
 40
30.0
176
     1
 62
     7
420
 16777215
176
     1
 90
        0
176
     1
 90
        4
176
     1
 62
     7
176
     1
 62
   257
176
     1
 90
        1
176
     1
 90
        1
176
     1
 40
1.0
176
     1
 90
        8
176
     1
 62
   257
176
     1
 40
1.0
176
     1
 90
        1
176
     1
 90
        6
176
     1
 90
        2
176
     1
 62
     8
420
  7895160
176
     1
 90
        3
176
     1
 90
        0
176
     1
 90
        0
176
     1
290
     0
176
     1
 90
        5
176
     1
 40
0.0
176
     1
 90
        0
176
     1
290
     0
176
     1
290
     1
176
     1
290
     1
176
     1
290
     0
176
     1
290
     0
176
     1
290
     0
176
     1
290
     0
176
     1
290
     0
176
     1
290
     0
176
     1
 90
       50
176
     1
 40
0.0
176
     1
 40
1.0
176
     1
 90
        0
176
     1
 62
    18
420
        0
176
     1
 90
       50
176
     1
 90
        3
176
     1
 62
     5
420
      255
176
     1
290
     0
176
     1
 90
       50
176
     1
 90
       50
176
     1
 90
       50
176
     1
290
     0
176
     1
 90
       50
176
     1
 62
   256
176
     0
 40
1.0
176
     0
 90
        2
176
     1
  1
strokes_ogs.tif
176
     1
290
     0
176
     1
 40
1.0
176
     1
 40
1.0
176
     1
  0
VISUALSTYLE
  5
41
102
{ACAD_REACTORS
330
2A
102
}
330
2A
100
AcDbVisualStyle
  2
Shaded with edges
 70
    26
177
     3
291
     0
 70
    58
 90
        2
176
     1
 90
        2
176
     1
 90
        1
176
     1
 90
        2
176
     1
 40
0.6
176
     1
 40
30.0
176
     1
 62
     7
420
 16777215
176
     1
 90
        1
176
     1
 90
       10
176
     1
 62
     7
176
     1
 62
   257
176
     1
 90
        2
176
     1
 90
        1
176
     1
 40
1.0
176
     1
 90
        8
176
     1
 62
   257
176
     1
 40
1.0
176
     1
 90
        1
176
     1
 90
        6
176
     1
 90
        2
176
     1
 62
     7
176
     1
 90
        3
176
     1
 90
        0
176
     1
 90
        0
176
     1
290
     0
176
     1
 90
        5
176
     1
 40
0.0
176
     1
 90
        0
176
     1
290
     0
176
     1
290
     1
176
     1
290
     1
176
     1
290
     0
176
     1
290
     0
176
     1
290
     0
176
     1
290
     0
176
     1
290
     0
176
     1
290
     0
176
     1
 90
       50
176
     1
 40
0.0
176
     1
 40
1.0
176
     1
 90
        0
176
     1
 62
    18
420
        0
176
     1
 90
       50
176
     1
 90
        3
176
     1
 62
     5
420
      255
176
     1
290
     0
176
     1
 90
       50
176
     1
 90
       50
176
     1
 90
       50
176
     1
290
     0
176
     1
 90
       50
176
     1
 62
   256
176
     0
 40
1.0
176
     0
 90
        2
176
     1
  1
strokes_ogs.tif
176
     1
290
     0
176
     1
 40
1.0
176
     1
 40
1.0
176
     1
  0
VISUALSTYLE
  5
3E
102
{ACAD_REACTORS
330
2A
102
}
330
2A
100
AcDbVisualStyle
  2
Shades of Gray
 70
    23
177
     3
291
     0
 70
    58
 90
        2
176
     1
 90
        2
176
     1
 90
        3
176
     1
 90
        0
176
     1
 40
0.6
176
     1
 40
30.0
176
     1
 62
     7
420
 16777215
176
     1
 90
        2
176
     1
 90
        2
176
     1
 62
     7
176
     1
 62
     7
176
     1
 90
        1
176
     1
 90
        1
176
     1
 40
40.0
176
     1
 90
        8
176
     1
 62
     7
176
     1
 40
1.0
176
     1
 90
        1
176
     1
 90
        6
176
     1
 90
        2
176
     1
 62
     7
176
     1
 90
        3
176
     1
 90
        0
176
     1
 90
        0
176
     1
290
     0
176
     1
 90
        1
176
     1
 40
0.0
176
     1
 90
        0
176
     1
290
     0
176
     1
290
     1
176
     1
290
     1
176
     1
290
     0
176
     1
290
     0
176
     1
290
     0
176
     1
290
     0
176
     1
290
     0
176
     1
290
     0
176
     1
 90
       50
176
     1
 40
0.0
176
     1
 40
1.0
176
     1
 90
        0
176
     1
 62
    18
420
        0
176
     1
 90
       50
176
     1
 90
        3
176
     1
 62
     5
420
      255
176
     1
290
     0
176
     1
 90
       50
176
     1
 90
       50
176
     1
 90
       50
176
     1
290
     0
176
     1
 90
       50
176
     1
 62
   256
176
     0
 40
1.0
176
     0
 90
        2
176
     1
  1
strokes_ogs.tif
176
     1
290
     0
176
     1
 40
1.0
176
     1
 40
1.0
176
     1
  0
VISUALSTYLE
  5
3F
102
{ACAD_REACTORS
330
2A
102
}
330
2A
100
AcDbVisualStyle
  2
Sketchy
 70
    24
177
     3
291
     0
 70
    58
 90
        1
176
     1
 90
        2
176
     1
 90
        2
176
     1
 90
        0
176
     1
 40
0.6
176
     1
 40
30.0
176
     1
 62
     7
420
 16777215
176
     1
 90
        2
176
     1
 90
        2
176
     1
 62
     7
176
     1
 62
     7
176
     1
 90
        1
176
     1
 90
        1
176
     1
 40
40.0
176
     1
 90
       11
176
     1
 62
     7
176
     1
 40
1.0
176
     1
 90
        1
176
     1
 90
        6
176
     1
 90
        2
176
     1
 62
     7
176
     1
 90
        6
176
     1
 90
        0
176
     1
 90
        0
176
     1
290
     0
176
     1
 90
        1
176
     1
 40
0.0
176
     1
 90
        0
176
     1
290
     0
176
     1
290
     1
176
     1
290
     1
176
     1
290
     0
176
     1
290
     0
176
     1
290
     0
176
     1
290
     0
176
     1
290
     0
176
     1
290
     0
176
     1
 90
       50
176
     1
 40
0.0
176
     1
 40
1.0
176
     1
 90
        0
176
     1
 62
    18
420
        0
176
     1
 90
       50
176
     1
 90
        3
176
     1
 62
     5
420
      255
176
     1
290
     0
176
     1
 90
       50
176
     1
 90
       50
176
     1
 90
       50
176
     1
290
     0
176
     1
 90
       50
176
     1
 62
   256
176
     0
 40
1.0
176
     0
 90
        2
176
     1
  1
strokes_ogs.tif
176
     1
290
     0
176
     1
 40
1.0
176
     1
 40
1.0
176
     1
  0
VISUALSTYLE
  5
37
102
{ACAD_REACTORS
330
2A
102
}
330
2A
100
AcDbVisualStyle
  2
Thicken
 70
    13
177
     3
291
     1
 70
    58
 90
        2
176
     1
 90
        2
176
     1
 90
        0
176
     1
 90
        0
176
     1
 40
0.6
176
     1
 40
30.0
176
     1
 62
     7
420
 16777215
176
     1
 90
        1
176
     1
 90
        4
176
     1
 62
     7
176
     1
 62
   257
176
     1
 90
        1
176
     1
 90
        1
176
     1
 40
1.0
176
     1
 90
       12
176
     1
 62
     7
176
     1
 40
1.0
176
     1
 90
        1
176
     1
 90
        6
176
     1
 90
        2
176
     1
 62
     7
176
     1
 90
        5
176
     1
 90
        0
176
     1
 90
        0
176
     1
290
     0
176
     1
 90
        1
176
     1
 40
0.0
176
     1
 90
        0
176
     1
290
     0
176
     1
290
     1
176
     1
290
     1
176
     1
290
     0
176
     1
290
     0
176
     1
290
     0
176
     1
290
     0
176
     1
290
     0
176
     1
290
     0
176
     1
 90
       50
176
     1
 40
0.0
176
     1
 40
1.0
176
     1
 90
        0
176
     1
 62
    18
420
        0
176
     1
 90
       50
176
     1
 90
        3
176
     1
 62
     5
420
      255
176
     1
290
     0
176
     1
 90
       50
176
     1
 90
       50
176
     1
 90
       50
176
     1
290
     0
176
     1
 90
       50
176
     1
 62
   256
176
     0
 40
1.0
176
     0
 90
        2
176
     1
  1
strokes_ogs.tif
176
     1
290
     0
176
     1
 40
1.0
176
     1
 40
1.0
176
     1
  0
VISUALSTYLE
  5
30
102
{ACAD_REACTORS
330
2A
102
}
330
2A
100
AcDbVisualStyle
  2
Wireframe
 70
     5
177
     3
291
     0
 70
    58
 90
        0
176
     1
 90
        2
176
     1
 90
        0
176
     1
 90
        0
176
     1
 40
0.6
176
     1
 40
30.0
176
     1
 62
     7
420
 16777215
176
     1
 90
        1
176
     1
 90
        4
176
     1
 62
     7
176
     1
 62
   257
176
     1
 90
        1
176
     1
 90
        1
176
     1
 40
1.0
176
     1
 90
        0
176
     1
 62
   257
176
     1
 40
1.0
176
     1
 90
        1
176
     1
 90
        6
176
     1
 90
        2
176
     1
 62
     7
176
     1
 90
        3
176
     1
 90
        0
176
     1
 90
        0
176
     1
290
     0
176
     1
 90
        1
176
     1
 40
0.0
176
     1
 90
        0
176
     1
290
     0
176
     1
290
     1
176
     1
290
     1
176
     1
290
     0
176
     1
290
     0
176
     1
290
     0
176
     1
290
     0
176
     1
290
     0
176
     1
290
     0
176
     1
 90
       50
176
     1
 40
0.0
176
     1
 40
1.0
176
     1
 90
        0
176
     1
 62
    18
420
        0
176
     1
 90
       50
176
     1
 90
        3
176
     1
 62
     5
420
      255
176
     1
290
     0
176
     1
 90
       50
176
     1
 90
       50
176
     1
 90
       50
176
     1
290
     0
176
     1
 90
       50
176
     1
 62
   256
176
     0
 40
1.0
176
     0
 90
        2
176
     1
  1
strokes_ogs.tif
176
     1
290
     0
176
     1
 40
1.0
176
     1
 40
1.0
176
     1
  0
VISUALSTYLE
  5
40
102
{ACAD_REACTORS
330
2A
102
}
330
2A
100
AcDbVisualStyle
  2
X-Ray
 70
    25
177
     3
291
     0
 70
    58
 90
        2
176
     1
 90
        2
176
     1
 90
        1
176
     1
 90
        1
176
     1
 40
0.5
176
     1
 40
30.0
176
     1
 62
     7
420
 16777215
176
     1
 90
        1
176
     1
 90
        0
176
     1
 62
     7
176
     1
 62
   257
176
     1
 90
        1
176
     1
 90
        1
176
     1
 40
1.0
176
     1
 90
        8
176
     1
 62
     7
176
     1
 40
1.0
176
     1
 90
        1
176
     1
 90
        6
176
     1
 90
        2
176
     1
 62
     7
176
     1
 90
        3
176
     1
 90
        0
176
     1
 90
        0
176
     1
290
     0
176
     1
 90
       13
176
     1
 40
0.0
176
     1
 90
        0
176
     1
290
     0
176
     1
290
     1
176
     1
290
     1
176
     1
290
     0
176
     1
290
     0
176
     1
290
     0
176
     1
290
     0
176
     1
290
     0
176
     1
290
     0
176
     1
 90
       50
176
     1
 40
0.0
176
     1
 40
1.0
176
     1
 90
        0
176
     1
 62
    18
420
        0
176
     1
 90
       50
176
     1
 90
        3
176
     1
 62
     5
420
      255
176
     1
290
     0
176
     1
 90
       50
176
     1
 90
       50
176
     1
 90
       50
176
     1
290
     0
176
     1
 90
       50
176
     1
 62
   256
176
     0
 40
1.0
176
     0
 90
        2
176
     1
  1
strokes_ogs.tif
176
     1
290
     0
176
     1
 40
1.0
176
     1
 40
1.0
176
     1
  0
DICTIONARYVAR
  5
9C
102
{ACAD_REACTORS
330
9B
102
}
330
9B
100
DictionaryVariables
280
     0
  1
1:1
  0
DICTIONARYVAR
  5
A1
102
{ACAD_REACTORS
330
9B
102
}
330
9B
100
DictionaryVariables
280
     0
  1
Standard
  0
DICTIONARYVAR
  5
A0
102
{ACAD_REACTORS
330
9B
102
}
330
9B
100
DictionaryVariables
280
     0
  1
Standard
  0
DICTIONARY
  5
9D
330
5A
100
AcDbDictionary
280
     1
281
     1
  3
ACAD_ROUNDTRIP_2008_TABLESTYLE_CELLSTYLEMAP
360
9E
  0
CELLSTYLEMAP
  5
9E
102
{ACAD_REACTORS
330
9D
102
}
330
9D
100
AcDbCellStyleMap
 90
        3
300
CELLSTYLE
  1
TABLEFORMAT_BEGIN
 90
        5
170
     1
 91
        0
 92
    32768
 62
   257
 93
        1
300
CONTENTFORMAT
  1
CONTENTFORMAT_BEGIN
 90
        0
 91
        0
 92
        4
 93
        0
300

 40
0.0
140
1.0
 94
        5
 62
     0
340
11
144
0.25
309
CONTENTFORMAT_END
171
     1
301
MARGIN
  1
CELLMARGIN_BEGIN
 40
0.06
 40
0.06
 40
0.06
 40
0.06
 40
0.06
 40
0.06
309
CELLMARGIN_END
 94
        6
 95
        1
302
GRIDFORMAT
  1
GRIDFORMAT_BEGIN
 90
        0
 91
        1
 62
     0
 92
       -2
340
14
 93
        0
 40
0.045
309
GRIDFORMAT_END
 95
        2
302
GRIDFORMAT
  1
GRIDFORMAT_BEGIN
 90
        0
 91
        1
 62
     0
 92
       -2
340
14
 93
        0
 40
0.045
309
GRIDFORMAT_END
 95
        4
302
GRIDFORMAT
  1
GRIDFORMAT_BEGIN
 90
        0
 91
        1
 62
     0
 92
       -2
340
14
 93
        0
 40
0.045
309
GRIDFORMAT_END
 95
        8
302
GRIDFORMAT
  1
GRIDFORMAT_BEGIN
 90
        0
 91
        1
 62
     0
 92
       -2
340
14
 93
        0
 40
0.045
309
GRIDFORMAT_END
 95
       16
302
GRIDFORMAT
  1
GRIDFORMAT_BEGIN
 90
        0
 91
        1
 62
     0
 92
       -2
340
14
 93
        0
 40
0.045
309
GRIDFORMAT_END
 95
       32
302
GRIDFORMAT
  1
GRIDFORMAT_BEGIN
 90
        0
 91
        1
 62
     0
 92
       -2
340
14
 93
        0
 40
0.045
309
GRIDFORMAT_END
309
TABLEFORMAT_END
  1
CELLSTYLE_BEGIN
 90
        1
 91
        1
300
_TITLE
309
CELLSTYLE_END
300
CELLSTYLE
  1
TABLEFORMAT_BEGIN
 90
        5
170
     1
 91
        0
 92
        0
 62
   257
 93
        1
300
CONTENTFORMAT
  1
CONTENTFORMAT_BEGIN
 90
        0
 91
        0
 92
        4
 93
        0
300

 40
0.0
140
1.0
 94
        5
 62
     0
340
11
144
0.18
309
CONTENTFORMAT_END
171
     1
301
MARGIN
  1
CELLMARGIN_BEGIN
 40
0.06
 40
0.06
 40
0.06
 40
0.06
 40
0.06
 40
0.06
309
CELLMARGIN_END
 94
        6
 95
        1
302
GRIDFORMAT
  1
GRIDFORMAT_BEGIN
 90
        0
 91
        1
 62
     0
 92
       -2
340
14
 93
        0
 40
0.045
309
GRIDFORMAT_END
 95
        2
302
GRIDFORMAT
  1
GRIDFORMAT_BEGIN
 90
        0
 91
        1
 62
     0
 92
       -2
340
14
 93
        0
 40
0.045
309
GRIDFORMAT_END
 95
        4
302
GRIDFORMAT
  1
GRIDFORMAT_BEGIN
 90
        0
 91
        1
 62
     0
 92
       -2
340
14
 93
        0
 40
0.045
309
GRIDFORMAT_END
 95
        8
302
GRIDFORMAT
  1
GRIDFORMAT_BEGIN
 90
        0
 91
        1
 62
     0
 92
       -2
340
14
 93
        0
 40
0.045
309
GRIDFORMAT_END
 95
       16
302
GRIDFORMAT
  1
GRIDFORMAT_BEGIN
 90
        0
 91
        1
 62
     0
 92
       -2
340
14
 93
        0
 40
0.045
309
GRIDFORMAT_END
 95
       32
302
GRIDFORMAT
  1
GRIDFORMAT_BEGIN
 90
        0
 91
        1
 62
     0
 92
       -2
340
14
 93
        0
 40
0.045
309
GRIDFORMAT_END
309
TABLEFORMAT_END
  1
CELLSTYLE_BEGIN
 90
        2
 91
        1
300
_HEADER
309
CELLSTYLE_END
300
CELLSTYLE
  1
TABLEFORMAT_BEGIN
 90
        5
170
     1
 91
        0
 92
        0
 62
   257
 93
        1
300
CONTENTFORMAT
  1
CONTENTFORMAT_BEGIN
 90
        0
 91
        0
 92
        4
 93
        0
300

 40
0.0
140
1.0
 94
        2
 62
     0
340
11
144
0.18
309
CONTENTFORMAT_END
171
     1
301
MARGIN
  1
CELLMARGIN_BEGIN
 40
0.06
 40
0.06
 40
0.06
 40
0.06
 40
0.06
 40
0.06
309
CELLMARGIN_END
 94
        6
 95
        1
302
GRIDFORMAT
  1
GRIDFORMAT_BEGIN
 90
        0
 91
        1
 62
     0
 92
       -2
340
14
 93
        0
 40
0.045
309
GRIDFORMAT_END
 95
        2
302
GRIDFORMAT
  1
GRIDFORMAT_BEGIN
 90
        0
 91
        1
 62
     0
 92
       -2
340
14
 93
        0
 40
0.045
309
GRIDFORMAT_END
 95
        4
302
GRIDFORMAT
  1
GRIDFORMAT_BEGIN
 90
        0
 91
        1
 62
     0
 92
       -2
340
14
 93
        0
 40
0.045
309
GRIDFORMAT_END
 95
        8
302
GRIDFORMAT
  1
GRIDFORMAT_BEGIN
 90
        0
 91
        1
 62
     0
 92
       -2
340
14
 93
        0
 40
0.045
309
GRIDFORMAT_END
 95
       16
302
GRIDFORMAT
  1
GRIDFORMAT_BEGIN
 90
        0
 91
        1
 62
     0
 92
       -2
340
14
 93
        0
 40
0.045
309
GRIDFORMAT_END
 95
       32
302
GRIDFORMAT
  1
GRIDFORMAT_BEGIN
 90
        0
 91
        1
 62
     0
 92
       -2
340
14
 93
        0
 40
0.045
309
GRIDFORMAT_END
309
TABLEFORMAT_END
  1
CELLSTYLE_BEGIN
 90
        3
 91
        2
300
_DATA
309
CELLSTYLE_END
  0
ENDSEC
  0
EOF
