  0
SECTION
  2
HEADER
  9
$ACADVER
  1
AC1032
  9
$ACADMAINTVER
 90
       55
  9
$DWGCODEPAGE
  3
ANSI_1252
  9
$LASTSAVEDBY
  1
LYI-002
  9
$REQUIREDVERSIONS
160
                 0
  9
$INSBASE
 10
0.0
 20
0.0
 30
0.0
  9
$EXTMIN
 10
-1200.0881
 20
-590.0647
 30
0.0
  9
$EXTMAX
 10
1199.9881
 20
590.0115
 30
0.0
  9
$LIMMIN
 10
0.0
 20
0.0
  9
$LIMMAX
 10
12.0
 20
9.0
  9
$ORTHOMODE
 70
     0
  9
$REGENMODE
 70
     1
  9
$FILLMODE
 70
     1
  9
$QTEXTMODE
 70
     0
  9
$MIRRTEXT
 70
     1
  9
$LTSCALE
 40
1.0
  9
$ATTMODE
 70
     1
  9
$TEXTSIZE
 40
0.2
  9
$TRACEWID
 40
0.05
  9
$TEXTSTYLE
  7
Standard
  9
$CLAYER
  8
0
  9
$CELTYPE
  6
ByLayer
  9
$CECOLOR
 62
   256
  9
$CELTSCALE
 40
1.0
  9
$DISPSILH
 70
     0
  9
$DIMSCALE
 40
1.0
  9
$DIMASZ
 40
0.18
  9
$DIMEXO
 40
0.0625
  9
$DIMDLI
 40
0.38
  9
$DIMRND
 40
0.0
  9
$DIMDLE
 40
0.0
  9
$DIMEXE
 40
0.18
  9
$DIMTP
 40
0.0
  9
$DIMTM
 40
0.0
  9
$DIMTXT
 40
0.18
  9
$DIMCEN
 40
0.09
  9
$DIMTSZ
 40
0.0
  9
$DIMTOL
 70
     0
  9
$DIMLIM
 70
     0
  9
$DIMTIH
 70
     1
  9
$DIMTOH
 70
     1
  9
$DIMSE1
 70
     0
  9
$DIMSE2
 70
     0
  9
$DIMTAD
 70
     0
  9
$DIMZIN
 70
     0
  9
$DIMBLK
  1

  9
$DIMASO
 70
     1
  9
$DIMSHO
 70
     1
  9
$DIMPOST
  1

  9
$DIMAPOST
  1

  9
$DIMALT
 70
     0
  9
$DIMALTD
 70
     2
  9
$DIMALTF
 40
25.4
  9
$DIMLFAC
 40
1.0
  9
$DIMTOFL
 70
     0
  9
$DIMTVP
 40
0.0
  9
$DIMTIX
 70
     0
  9
$DIMSOXD
 70
     0
  9
$DIMSAH
 70
     0
  9
$DIMBLK1
  1

  9
$DIMBLK2
  1

  9
$DIMSTYLE
  2
Standard
  9
$DIMCLRD
 70
     0
  9
$DIMCLRE
 70
     0
  9
$DIMCLRT
 70
     0
  9
$DIMTFAC
 40
1.0
  9
$DIMGAP
 40
0.09
  9
$DIMJUST
 70
     0
  9
$DIMSD1
 70
     0
  9
$DIMSD2
 70
     0
  9
$DIMTOLJ
 70
     1
  9
$DIMTZIN
 70
     0
  9
$DIMALTZ
 70
     0
  9
$DIMALTTZ
 70
     0
  9
$DIMUPT
 70
     0
  9
$DIMDEC
 70
     4
  9
$DIMTDEC
 70
     4
  9
$DIMALTU
 70
     2
  9
$DIMALTTD
 70
     2
  9
$DIMTXSTY
  7
Standard
  9
$DIMAUNIT
 70
     0
  9
$DIMADEC
 70
     0
  9
$DIMALTRND
 40
0.0
  9
$DIMAZIN
 70
     0
  9
$DIMDSEP
 70
    46
  9
$DIMATFIT
 70
     3
  9
$DIMFRAC
 70
     0
  9
$DIMLDRBLK
  1

  9
$DIMLUNIT
 70
     2
  9
$DIMLWD
 70
    -2
  9
$DIMLWE
 70
    -2
  9
$DIMTMOVE
 70
     0
  9
$DIMFXL
 40
1.0
  9
$DIMFXLON
 70
     0
  9
$DIMJOGANG
 40
0.7853981633974483
  9
$DIMTFILL
 70
     0
  9
$DIMTFILLCLR
 70
     0
  9
$DIMARCSYM
 70
     0
  9
$DIMLTYPE
  6

  9
$DIMLTEX1
  6

  9
$DIMLTEX2
  6

  9
$DIMTXTDIRECTION
 70
     0
  9
$LUNITS
 70
     2
  9
$LUPREC
 70
     4
  9
$SKETCHINC
 40
0.1
  9
$FILLETRAD
 40
0.0
  9
$AUNITS
 70
     0
  9
$AUPREC
 70
     0
  9
$MENU
  1
.
  9
$ELEVATION
 40
0.0
  9
$PELEVATION
 40
0.0
  9
$THICKNESS
 40
0.0
  9
$LIMCHECK
 70
     0
  9
$CHAMFERA
 40
0.0
  9
$CHAMFERB
 40
0.0
  9
$CHAMFERC
 40
0.0
  9
$CHAMFERD
 40
0.0
  9
$SKPOLY
 70
     0
  9
$TDCREATE
 40
2460652.712357003
  9
$TDUCREATE
 40
2460652.483190336
  9
$TDUPDATE
 40
2460652.712357003
  9
$TDUUPDATE
 40
2460652.483190336
  9
$TDINDWG
 40
0.0000000116
  9
$TDUSRTIMER
 40
0.0000000116
  9
$USRTIMER
 70
     1
  9
$ANGBASE
 50
0.0
  9
$ANGDIR
 70
     0
  9
$PDMODE
 70
     0
  9
$PDSIZE
 40
0.0
  9
$PLINEWID
 40
0.0
  9
$SPLFRAME
 70
     0
  9
$SPLINETYPE
 70
     6
  9
$SPLINESEGS
 70
     8
  9
$HANDSEED
  5
B6
  9
$SURFTAB1
 70
     6
  9
$SURFTAB2
 70
     6
  9
$SURFTYPE
 70
     6
  9
$SURFU
 70
     6
  9
$SURFV
 70
     6
  9
$UCSBASE
  2

  9
$UCSNAME
  2

  9
$UCSORG
 10
0.0
 20
0.0
 30
0.0
  9
$UCSXDIR
 10
1.0
 20
0.0
 30
0.0
  9
$UCSYDIR
 10
0.0
 20
1.0
 30
0.0
  9
$UCSORTHOREF
  2

  9
$UCSORTHOVIEW
 70
     0
  9
$UCSORGTOP
 10
0.0
 20
0.0
 30
0.0
  9
$UCSORGBOTTOM
 10
0.0
 20
0.0
 30
0.0
  9
$UCSORGLEFT
 10
0.0
 20
0.0
 30
0.0
  9
$UCSORGRIGHT
 10
0.0
 20
0.0
 30
0.0
  9
$UCSORGFRONT
 10
0.0
 20
0.0
 30
0.0
  9
$UCSORGBACK
 10
0.0
 20
0.0
 30
0.0
  9
$PUCSBASE
  2

  9
$PUCSNAME
  2

  9
$PUCSORG
 10
0.0
 20
0.0
 30
0.0
  9
$PUCSXDIR
 10
1.0
 20
0.0
 30
0.0
  9
$PUCSYDIR
 10
0.0
 20
1.0
 30
0.0
  9
$PUCSORTHOREF
  2

  9
$PUCSORTHOVIEW
 70
     0
  9
$PUCSORGTOP
 10
0.0
 20
0.0
 30
0.0
  9
$PUCSORGBOTTOM
 10
0.0
 20
0.0
 30
0.0
  9
$PUCSORGLEFT
 10
0.0
 20
0.0
 30
0.0
  9
$PUCSORGRIGHT
 10
0.0
 20
0.0
 30
0.0
  9
$PUCSORGFRONT
 10
0.0
 20
0.0
 30
0.0
  9
$PUCSORGBACK
 10
0.0
 20
0.0
 30
0.0
  9
$USERI1
 70
     0
  9
$USERI2
 70
     0
  9
$USERI3
 70
     0
  9
$USERI4
 70
     0
  9
$USERI5
 70
     0
  9
$USERR1
 40
0.0
  9
$USERR2
 40
0.0
  9
$USERR3
 40
0.0
  9
$USERR4
 40
0.0
  9
$USERR5
 40
0.0
  9
$WORLDVIEW
 70
     1
  9
$SHADEDGE
 70
     3
  9
$SHADEDIF
 70
    70
  9
$TILEMODE
 70
     1
  9
$MAXACTVP
 70
    64
  9
$PINSBASE
 10
0.0
 20
0.0
 30
0.0
  9
$PLIMCHECK
 70
     0
  9
$PEXTMIN
 10
1.000000000000000E+20
 20
1.000000000000000E+20
 30
1.000000000000000E+20
  9
$PEXTMAX
 10
-1.000000000000000E+20
 20
-1.000000000000000E+20
 30
-1.000000000000000E+20
  9
$PLIMMIN
 10
0.0
 20
0.0
  9
$PLIMMAX
 10
12.0
 20
9.0
  9
$UNITMODE
 70
     0
  9
$VISRETAIN
 70
     1
  9
$PLINEGEN
 70
     0
  9
$PSLTSCALE
 70
     1
  9
$TREEDEPTH
 70
  3020
  9
$CMLSTYLE
  2
Standard
  9
$CMLJUST
 70
     0
  9
$CMLSCALE
 40
1.0
  9
$PROXYGRAPHICS
 70
     1
  9
$MEASUREMENT
 70
     0
  9
$CELWEIGHT
370
    -1
  9
$ENDCAPS
280
     0
  9
$JOINSTYLE
280
     0
  9
$LWDISPLAY
290
     0
  9
$INSUNITS
 70
     4
  9
$HYPERLINKBASE
  1

  9
$STYLESHEET
  1

  9
$XEDIT
290
     1
  9
$CEPSNTYPE
380
     0
  9
$PSTYLEMODE
290
     1
  9
$FINGERPRINTGUID
  2
{29de2046-65eb-4663-b1c8-04b0cee740a0}
  9
$VERSIONGUID
  2
{FAEB1C32-E019-11D5-929B-00C0DF256EC4}
  9
$EXTNAMES
290
     1
  9
$PSVPSCALE
 40
0.0
  9
$OLESTARTUP
290
     0
  9
$SORTENTS
280
   127
  9
$INDEXCTL
280
     0
  9
$HIDETEXT
280
     1
  9
$XCLIPFRAME
280
     2
  9
$HALOGAP
280
     0
  9
$OBSCOLOR
 70
   257
  9
$OBSLTYPE
280
     0
  9
$INTERSECTIONDISPLAY
280
     0
  9
$INTERSECTIONCOLOR
 70
   257
  9
$DIMASSOC
280
     2
  9
$PROJECTNAME
  1

  9
$CAMERADISPLAY
290
     0
  9
$LENSLENGTH
 40
50.0
  9
$CAMERAHEIGHT
 40
0.0
  9
$STEPSPERSEC
 40
2.0
  9
$STEPSIZE
 40
6.0
  9
$3DDWFPREC
 40
2.0
  9
$PSOLWIDTH
 40
0.25
  9
$PSOLHEIGHT
 40
4.0
  9
$LOFTANG1
 40
1.570796326794897
  9
$LOFTANG2
 40
1.570796326794897
  9
$LOFTMAG1
 40
0.0
  9
$LOFTMAG2
 40
0.0
  9
$LOFTPARAM
 70
     7
  9
$LOFTNORMALS
280
     1
  9
$LATITUDE
 40
37.795
  9
$LONGITUDE
 40
-122.394
  9
$NORTHDIRECTION
 40
0.0
  9
$TIMEZONE
 70
 -8000
  9
$LIGHTGLYPHDISPLAY
280
     1
  9
$TILEMODELIGHTSYNCH
280
     1
  9
$CMATERIAL
347
44
  9
$SOLIDHIST
280
     0
  9
$SHOWHIST
280
     1
  9
$DWFFRAME
280
     2
  9
$DGNFRAME
280
     2
  9
$REALWORLDSCALE
290
     1
  9
$INTERFERECOLOR
 62
   256
  9
$CSHADOW
280
     0
  9
$SHADOWPLANELOCATION
 40
0.0
  0
ENDSEC
  0
SECTION
  2
CLASSES
  0
CLASS
  1
ACDBDICTIONARYWDFLT
  2
AcDbDictionaryWithDefault
  3
ObjectDBX Classes
 90
        0
 91
        3
280
     0
281
     0
  0
CLASS
  1
VISUALSTYLE
  2
AcDbVisualStyle
  3
ObjectDBX Classes
 90
     4095
 91
        3
280
     0
281
     0
  0
CLASS
  1
MATERIAL
  2
AcDbMaterial
  3
ObjectDBX Classes
 90
     1153
 91
        3
280
     0
281
     0
  0
CLASS
  1
SCALE
  2
AcDbScale
  3
ObjectDBX Classes
 90
     1153
 91
        3
280
     0
281
     0
  0
CLASS
  1
TABLESTYLE
  2
AcDbTableStyle
  3
ObjectDBX Classes
 90
     4095
 91
        3
280
     0
281
     0
  0
CLASS
  1
MLEADERSTYLE
  2
AcDbMLeaderStyle
  3
ACDB_MLEADERSTYLE_CLASS
 90
     4095
 91
        3
280
     0
281
     0
  0
CLASS
  1
SUN
  2
AcDbSun
  3
SCENEOE
 90
     1153
 91
        3
280
     0
281
     0
  0
CLASS
  1
DICTIONARYVAR
  2
AcDbDictionaryVar
  3
ObjectDBX Classes
 90
        0
 91
        3
280
     0
281
     0
  0
CLASS
  1
CELLSTYLEMAP
  2
AcDbCellStyleMap
  3
ObjectDBX Classes
 90
     1152
 91
        3
280
     0
281
     0
  0
ENDSEC
  0
SECTION
  2
TABLES
  0
TABLE
  2
VPORT
  5
8
330
0
100
AcDbSymbolTable
 70
     1
  0
VPORT
  5
29
330
8
100
AcDbSymbolTableRecord
100
AcDbViewportTableRecord
  2
*Active
 70
     0
 10
0.0
 20
0.0
 11
1.0
 21
1.0
 12
10.42990654205607
 22
4.5
 13
0.0
 23
0.0
 14
0.5
 24
0.5
 15
0.5
 25
0.5
 16
0.0
 26
0.0
 36
1.0
 17
0.0
 27
0.0
 37
0.0
 40
9.0
 41
1.972972972850329
 42
50.0
 43
0.0
 44
0.0
 50
0.0
 51
0.0
 71
     0
 72
   100
 73
     1
 74
     3
 75
     0
 76
     0
 77
     0
 78
     0
281
     0
 65
     1
110
0.0
120
0.0
130
0.0
111
1.0
121
0.0
131
0.0
112
0.0
122
1.0
132
0.0
 79
     0
146
0.0
348
2F
 60
     3
 61
     5
292
     1
282
     1
141
0.0
142
0.0
 63
   250
361
5D
  0
ENDTAB
  0
TABLE
  2
LTYPE
  5
5
330
0
100
AcDbSymbolTable
 70
     1
  0
LTYPE
  5
14
330
5
100
AcDbSymbolTableRecord
100
AcDbLinetypeTableRecord
  2
ByBlock
 70
     0
  3

 72
    65
 73
     0
 40
0.0
  0
LTYPE
  5
15
330
5
100
AcDbSymbolTableRecord
100
AcDbLinetypeTableRecord
  2
ByLayer
 70
     0
  3

 72
    65
 73
     0
 40
0.0
  0
LTYPE
  5
16
330
5
100
AcDbSymbolTableRecord
100
AcDbLinetypeTableRecord
  2
Continuous
 70
     0
  3
Solid line
 72
    65
 73
     0
 40
0.0
  0
ENDTAB
  0
TABLE
  2
LAYER
  5
2
330
0
100
AcDbSymbolTable
 70
     2
  0
LAYER
  5
10
330
2
100
AcDbSymbolTableRecord
100
AcDbLayerTableRecord
  2
0
 70
     0
 62
     7
  6
Continuous
370
    -3
390
F
347
46
348
0
  0
LAYER
  5
5F
330
2
100
AcDbSymbolTableRecord
100
AcDbLayerTableRecord
  2
Layer 1
 70
     0
 62
     7
  6
Continuous
370
    -3
390
F
347
46
348
0
  0
ENDTAB
  0
TABLE
  2
STYLE
  5
3
330
0
100
AcDbSymbolTable
 70
     1
  0
STYLE
  5
11
330
3
100
AcDbSymbolTableRecord
100
AcDbTextStyleTableRecord
  2
Standard
 70
     0
 40
0.0
 41
1.0
 50
0.0
 71
     0
 42
0.2
  3
txt
  4

  0
ENDTAB
  0
TABLE
  2
VIEW
  5
6
330
0
100
AcDbSymbolTable
 70
     0
  0
ENDTAB
  0
TABLE
  2
UCS
  5
7
330
0
100
AcDbSymbolTable
 70
     0
  0
ENDTAB
  0
TABLE
  2
APPID
  5
9
330
0
100
AcDbSymbolTable
 70
     2
  0
APPID
  5
12
330
9
100
AcDbSymbolTableRecord
100
AcDbRegAppTableRecord
  2
ACAD
 70
     0
  0
APPID
  5
5E
330
9
100
AcDbSymbolTableRecord
100
AcDbRegAppTableRecord
  2
ODA
 70
     0
  0
ENDTAB
  0
TABLE
  2
DIMSTYLE
  5
A
330
0
100
AcDbSymbolTable
 70
     1
100
AcDbDimStyleTable
  0
DIMSTYLE
105
27
330
A
100
AcDbSymbolTableRecord
100
AcDbDimStyleTableRecord
  2
Standard
 70
     0
178
     0
340
11
  0
ENDTAB
  0
TABLE
  2
BLOCK_RECORD
  5
1
330
0
100
AcDbSymbolTable
 70
     1
  0
BLOCK_RECORD
  5
1F
330
1
100
AcDbSymbolTableRecord
100
AcDbBlockTableRecord
  2
*Model_Space
340
22
 70
     0
280
     1
281
     0
  0
BLOCK_RECORD
  5
1B
330
1
100
AcDbSymbolTableRecord
100
AcDbBlockTableRecord
  2
*Paper_Space
340
1E
 70
     0
280
     1
281
     0
  0
BLOCK_RECORD
  5
23
330
1
100
AcDbSymbolTableRecord
100
AcDbBlockTableRecord
  2
*Paper_Space0
340
26
 70
     0
280
     1
281
     0
  0
ENDTAB
  0
ENDSEC
  0
SECTION
  2
BLOCKS
  0
BLOCK
  5
20
330
1F
100
AcDbEntity
  8
0
100
AcDbBlockBegin
  2
*Model_Space
 70
     0
 10
0.0
 20
0.0
 30
0.0
  3
*Model_Space
  1

  0
ENDBLK
  5
21
330
1F
100
AcDbEntity
  8
0
100
AcDbBlockEnd
  0
BLOCK
  5
1C
330
1B
100
AcDbEntity
 67
     1
  8
0
100
AcDbBlockBegin
  2
*Paper_Space
 70
     0
 10
0.0
 20
0.0
 30
0.0
  3
*Paper_Space
  1

  0
ENDBLK
  5
1D
330
1B
100
AcDbEntity
 67
     1
  8
0
100
AcDbBlockEnd
  0
BLOCK
  5
24
330
23
100
AcDbEntity
  8
0
100
AcDbBlockBegin
  2
*Paper_Space0
 70
     0
 10
0.0
 20
0.0
 30
0.0
  3
*Paper_Space0
  1

  0
ENDBLK
  5
25
330
23
100
AcDbEntity
  8
0
100
AcDbBlockEnd
  0
ENDSEC
  0
SECTION
  2
ENTITIES
  0
SPLINE
  5
60
330
1F
100
AcDbEntity
  8
Layer 1
 62
   250
370
     9
100
AcDbSpline
210
0.0
220
0.0
230
1.0
 70
    11
 71
     3
 72
    17
 73
    13
 74
     0
 42
0.0000000001
 43
0.0000000001
 40
0.0
 40
0.0
 40
0.0
 40
0.0
 40
0.25
 40
0.25
 40
0.25
 40
0.5
 40
0.5
 40
0.5
 40
0.75
 40
0.75
 40
0.75
 40
1.0
 40
1.0
 40
1.0
 40
1.0
 10
942.9047
 20
-327.869
 30
0.0
 10
942.9047
 20
-327.869
 30
0.0
 10
1027.7403
 20
-469.8322
 30
0.0
 10
1027.7403
 20
-469.8322
 30
0.0
 10
1027.7403
 20
-469.8322
 30
0.0
 10
1086.844
 20
-391.9052
 30
0.0
 10
1086.844
 20
-391.9052
 30
0.0
 10
1086.844
 20
-391.9052
 30
0.0
 10
1018.0925
 20
-137.2205
 30
0.0
 10
1018.0925
 20
-137.2205
 30
0.0
 10
1018.0925
 20
-137.2205
 30
0.0
 10
942.9047
 20
-327.869
 30
0.0
 10
942.9047
 20
-327.869
 30
0.0
  0
SPLINE
  5
61
330
1F
100
AcDbEntity
  8
Layer 1
 62
   250
370
     9
100
AcDbSpline
210
0.0
220
0.0
230
1.0
 70
    11
 71
     3
 72
    17
 73
    13
 74
     0
 42
0.0000000001
 43
0.0000000001
 40
0.0
 40
0.0
 40
0.0
 40
0.0
 40
0.25
 40
0.25
 40
0.25
 40
0.5
 40
0.5
 40
0.5
 40
0.75
 40
0.75
 40
0.75
 40
1.0
 40
1.0
 40
1.0
 40
1.0
 10
1004.2156
 20
-85.8148
 30
0.0
 10
1004.2156
 20
-85.8148
 30
0.0
 10
969.5155
 20
42.7291
 30
0.0
 10
969.5155
 20
42.7291
 30
0.0
 10
969.5155
 20
42.7291
 30
0.0
 10
917.931
 20
19.8749
 30
0.0
 10
917.931
 20
19.8749
 30
0.0
 10
917.931
 20
19.8749
 30
0.0
 10
949.7224
 20
-223.9895
 30
0.0
 10
949.7224
 20
-223.9895
 30
0.0
 10
949.7224
 20
-223.9895
 30
0.0
 10
1004.2156
 20
-85.8148
 30
0.0
 10
1004.2156
 20
-85.8148
 30
0.0
  0
SPLINE
  5
62
330
1F
100
AcDbEntity
  8
Layer 1
 62
   250
370
     9
100
AcDbSpline
210
0.0
220
0.0
230
1.0
 70
    11
 71
     3
 72
    17
 73
    13
 74
     0
 42
0.0000000001
 43
0.0000000001
 40
0.0
 40
0.0
 40
0.0
 40
0.0
 40
0.25
 40
0.25
 40
0.25
 40
0.5
 40
0.5
 40
0.5
 40
0.75
 40
0.75
 40
0.75
 40
1.0
 40
1.0
 40
1.0
 40
1.0
 10
930.9314
 20
-271.6362
 30
0.0
 10
930.9314
 20
-271.6362
 30
0.0
 10
906.7528
 20
-86.1675
 30
0.0
 10
906.7528
 20
-86.1675
 30
0.0
 10
906.7528
 20
-86.1675
 30
0.0
 10
806.4271
 20
-267.0793
 30
0.0
 10
806.4271
 20
-267.0793
 30
0.0
 10
806.4271
 20
-267.0793
 30
0.0
 10
862.8922
 20
-444.1586
 30
0.0
 10
862.8922
 20
-444.1586
 30
0.0
 10
862.8922
 20
-444.1586
 30
0.0
 10
930.9314
 20
-271.6362
 30
0.0
 10
930.9314
 20
-271.6362
 30
0.0
  0
SPLINE
  5
63
330
1F
100
AcDbEntity
  8
Layer 1
 62
   250
370
     9
100
AcDbSpline
210
0.0
220
0.0
230
1.0
 70
    11
 71
     3
 72
    17
 73
    13
 74
     0
 42
0.0000000001
 43
0.0000000001
 40
0.0
 40
0.0
 40
0.0
 40
0.0
 40
0.25
 40
0.25
 40
0.25
 40
0.5
 40
0.5
 40
0.5
 40
0.75
 40
0.75
 40
0.75
 40
1.0
 40
1.0
 40
1.0
 40
1.0
 10
995.4316
 20
54.2108
 30
0.0
 10
995.4316
 20
54.2108
 30
0.0
 10
1060.2601
 20
-185.9422
 30
0.0
 10
1060.2601
 20
-185.9422
 30
0.0
 10
1060.2601
 20
-185.9422
 30
0.0
 10
1100.7302
 20
-95.034
 30
0.0
 10
1100.7302
 20
-95.034
 30
0.0
 10
1100.7302
 20
-95.034
 30
0.0
 10
1089.533
 20
95.9017
 30
0.0
 10
1089.533
 20
95.9017
 30
0.0
 10
1089.533
 20
95.9017
 30
0.0
 10
995.4316
 20
54.2108
 30
0.0
 10
995.4316
 20
54.2108
 30
0.0
  0
SPLINE
  5
64
330
1F
100
AcDbEntity
  8
Layer 1
 62
   250
370
     9
100
AcDbSpline
210
0.0
220
0.0
230
1.0
 70
    11
 71
     3
 72
    17
 73
    13
 74
     0
 42
0.0000000001
 43
0.0000000001
 40
0.0
 40
0.0
 40
0.0
 40
0.0
 40
0.25
 40
0.25
 40
0.25
 40
0.5
 40
0.5
 40
0.5
 40
0.75
 40
0.75
 40
0.75
 40
1.0
 40
1.0
 40
1.0
 40
1.0
 10
1085.9126
 20
157.6368
 30
0.0
 10
1085.9126
 20
157.6368
 30
0.0
 10
1072.9334
 20
378.9585
 30
0.0
 10
1072.9334
 20
378.9585
 30
0.0
 10
1072.9334
 20
378.9585
 30
0.0
 10
1000.7027
 20
230.497
 30
0.0
 10
1000.7027
 20
230.497
 30
0.0
 10
1000.7027
 20
230.497
 30
0.0
 10
1020.9591
 20
128.8595
 30
0.0
 10
1020.9591
 20
128.8595
 30
0.0
 10
1020.9591
 20
128.8595
 30
0.0
 10
1085.9126
 20
157.6368
 30
0.0
 10
1085.9126
 20
157.6368
 30
0.0
  0
SPLINE
  5
65
330
1F
100
AcDbEntity
  8
Layer 1
 62
   250
370
     9
100
AcDbSpline
210
0.0
220
0.0
230
1.0
 70
    11
 71
     3
 72
    17
 73
    13
 74
     0
 42
0.0000000001
 43
0.0000000001
 40
0.0
 40
0.0
 40
0.0
 40
0.0
 40
0.25
 40
0.25
 40
0.25
 40
0.5
 40
0.5
 40
0.5
 40
0.75
 40
0.75
 40
0.75
 40
1.0
 40
1.0
 40
1.0
 40
1.0
 10
996.4163
 20
117.9861
 30
0.0
 10
996.4163
 20
117.9861
 30
0.0
 10
949.3193
 20
354.2975
 30
0.0
 10
949.3193
 20
354.2975
 30
0.0
 10
949.3193
 20
354.2975
 30
0.0
 10
881.8935
 20
296.3109
 30
0.0
 10
881.8935
 20
296.3109
 30
0.0
 10
881.8935
 20
296.3109
 30
0.0
 10
910.1248
 20
79.755
 30
0.0
 10
910.1248
 20
79.755
 30
0.0
 10
910.1248
 20
79.755
 30
0.0
 10
996.4163
 20
117.9861
 30
0.0
 10
996.4163
 20
117.9861
 30
0.0
  0
SPLINE
  5
66
330
1F
100
AcDbEntity
  8
Layer 1
 62
   250
370
     9
100
AcDbSpline
210
0.0
220
0.0
230
1.0
 70
    11
 71
     3
 72
    20
 73
    16
 74
     0
 42
0.0000000001
 43
0.0000000001
 40
0.0
 40
0.0
 40
0.0
 40
0.0
 40
0.2
 40
0.2
 40
0.2
 40
0.4
 40
0.4
 40
0.4
 40
0.6000000000000001
 40
0.6000000000000001
 40
0.6000000000000001
 40
0.8
 40
0.8
 40
0.8
 40
1.0
 40
1.0
 40
1.0
 40
1.0
 10
859.4115
 20
276.976
 30
0.0
 10
859.4115
 20
276.976
 30
0.0
 10
793.28
 20
220.1024
 30
0.0
 10
793.28
 20
220.1024
 30
0.0
 10
793.28
 20
220.1024
 30
0.0
 10
799.9784
 20
-113.3843
 30
0.0
 10
799.9784
 20
-113.3843
 30
0.0
 10
799.9784
 20
-113.3843
 30
0.0
 10
844.1256
 20
-123.4618
 30
0.0
 10
844.1256
 20
-123.4618
 30
0.0
 10
844.1256
 20
-123.4618
 30
0.0
 10
898.7691
 20
-24.9262
 30
0.0
 10
898.7691
 20
-24.9262
 30
0.0
 10
898.7691
 20
-24.9262
 30
0.0
 10
859.4115
 20
276.976
 30
0.0
 10
859.4115
 20
276.976
 30
0.0
  0
SPLINE
  5
67
330
1F
100
AcDbEntity
  8
Layer 1
 62
   250
370
     9
100
AcDbSpline
210
0.0
220
0.0
230
1.0
 70
    11
 71
     3
 72
    14
 73
    10
 74
     0
 42
0.0000000001
 43
0.0000000001
 40
0.0
 40
0.0
 40
0.0
 40
0.0
 40
0.3333333333333333
 40
0.3333333333333333
 40
0.3333333333333333
 40
0.6666666666666666
 40
0.6666666666666666
 40
0.6666666666666666
 40
1.0
 40
1.0
 40
1.0
 40
1.0
 10
813.2662
 20
-179.1089
 30
0.0
 10
813.2662
 20
-179.1089
 30
0.0
 10
679.7384
 20
-148.6288
 30
0.0
 10
679.7384
 20
-148.6288
 30
0.0
 10
679.7384
 20
-148.6288
 30
0.0
 10
674.9856
 20
-428.4623
 30
0.0
 10
674.9856
 20
-428.4623
 30
0.0
 10
674.9856
 20
-428.4623
 30
0.0
 10
813.2662
 20
-179.1089
 30
0.0
 10
813.2662
 20
-179.1089
 30
0.0
  0
SPLINE
  5
68
330
1F
100
AcDbEntity
  8
Layer 1
 62
   250
370
     9
100
AcDbSpline
210
0.0
220
0.0
230
1.0
 70
    11
 71
     3
 72
    17
 73
    13
 74
     0
 42
0.0000000001
 43
0.0000000001
 40
0.0
 40
0.0
 40
0.0
 40
0.0
 40
0.25
 40
0.25
 40
0.25
 40
0.5
 40
0.5
 40
0.5
 40
0.75
 40
0.75
 40
0.75
 40
1.0
 40
1.0
 40
1.0
 40
1.0
 10
776.1795
 20
-107.9518
 30
0.0
 10
776.1795
 20
-107.9518
 30
0.0
 10
771.7657
 20
111.7917
 30
0.0
 10
771.7657
 20
111.7917
 30
0.0
 10
771.7657
 20
111.7917
 30
0.0
 10
719.0199
 20
212.5689
 30
0.0
 10
719.0199
 20
212.5689
 30
0.0
 10
719.0199
 20
212.5689
 30
0.0
 10
622.0281
 20
-72.7639
 30
0.0
 10
622.0281
 20
-72.7639
 30
0.0
 10
622.0281
 20
-72.7639
 30
0.0
 10
776.1795
 20
-107.9518
 30
0.0
 10
776.1795
 20
-107.9518
 30
0.0
  0
SPLINE
  5
69
330
1F
100
AcDbEntity
  8
Layer 1
 62
   250
370
     9
100
AcDbSpline
210
0.0
220
0.0
230
1.0
 70
    11
 71
     3
 72
    14
 73
    10
 74
     0
 42
0.0000000001
 43
0.0000000001
 40
0.0
 40
0.0
 40
0.0
 40
0.0
 40
0.3333333333333333
 40
0.3333333333333333
 40
0.3333333333333333
 40
0.6666666666666666
 40
0.6666666666666666
 40
0.6666666666666666
 40
1.0
 40
1.0
 40
1.0
 40
1.0
 10
-1075.0684
 20
277.2412
 30
0.0
 10
-1075.0684
 20
277.2412
 30
0.0
 10
-946.1819
 20
159.651
 30
0.0
 10
-946.1819
 20
159.651
 30
0.0
 10
-946.1819
 20
159.651
 30
0.0
 10
-1023.5248
 20
474.0803
 30
0.0
 10
-1023.5248
 20
474.0803
 30
0.0
 10
-1023.5248
 20
474.0803
 30
0.0
 10
-1075.0684
 20
277.2412
 30
0.0
 10
-1075.0684
 20
277.2412
 30
0.0
  0
SPLINE
  5
6A
330
1F
100
AcDbEntity
  8
Layer 1
 62
   250
370
     9
100
AcDbSpline
210
0.0
220
0.0
230
1.0
 70
    11
 71
     3
 72
    20
 73
    16
 74
     0
 42
0.0000000001
 43
0.0000000001
 40
0.0
 40
0.0
 40
0.0
 40
0.0
 40
0.2
 40
0.2
 40
0.2
 40
0.4
 40
0.4
 40
0.4
 40
0.6000000000000001
 40
0.6000000000000001
 40
0.6000000000000001
 40
0.8
 40
0.8
 40
0.8
 40
1.0
 40
1.0
 40
1.0
 40
1.0
 10
-1000.1482
 20
-131.3601
 30
0.0
 10
-1000.1482
 20
-131.3601
 30
0.0
 10
-997.6205
 20
140.5004
 30
0.0
 10
-997.6205
 20
140.5004
 30
0.0
 10
-997.6205
 20
140.5004
 30
0.0
 10
-1089.0353
 20
223.9032
 30
0.0
 10
-1089.0353
 20
223.9032
 30
0.0
 10
-1089.0353
 20
223.9032
 30
0.0
 10
-1147.2111
 20
1.7371
 30
0.0
 10
-1147.2111
 20
1.7371
 30
0.0
 10
-1147.2111
 20
1.7371
 30
0.0
 10
-1096.3131
 20
-199.544
 30
0.0
 10
-1096.3131
 20
-199.544
 30
0.0
 10
-1096.3131
 20
-199.544
 30
0.0
 10
-1000.1482
 20
-131.3601
 30
0.0
 10
-1000.1482
 20
-131.3601
 30
0.0
  0
SPLINE
  5
6B
330
1F
100
AcDbEntity
  8
Layer 1
 62
   250
370
     9
100
AcDbSpline
210
0.0
220
0.0
230
1.0
 70
    11
 71
     3
 72
    17
 73
    13
 74
     0
 42
0.0000000001
 43
0.0000000001
 40
0.0
 40
0.0
 40
0.0
 40
0.0
 40
0.25
 40
0.25
 40
0.25
 40
0.5
 40
0.5
 40
0.5
 40
0.75
 40
0.75
 40
0.75
 40
1.0
 40
1.0
 40
1.0
 40
1.0
 10
-1003.0303
 20
-441.3376
 30
0.0
 10
-1003.0303
 20
-441.3376
 30
0.0
 10
-1000.7536
 20
-196.4658
 30
0.0
 10
-1000.7536
 20
-196.4658
 30
0.0
 10
-1000.7536
 20
-196.4658
 30
0.0
 10
-1177.8481
 20
-322.0306
 30
0.0
 10
-1177.8481
 20
-322.0306
 30
0.0
 10
-1177.8481
 20
-322.0306
 30
0.0
 10
-1134.6869
 20
-576.9581
 30
0.0
 10
-1134.6869
 20
-576.9581
 30
0.0
 10
-1134.6869
 20
-576.9581
 30
0.0
 10
-1003.0303
 20
-441.3376
 30
0.0
 10
-1003.0303
 20
-441.3376
 30
0.0
  0
SPLINE
  5
6C
330
1F
100
AcDbEntity
  8
Layer 1
 62
   250
370
     9
100
AcDbSpline
210
0.0
220
0.0
230
1.0
 70
    11
 71
     3
 72
    23
 73
    19
 74
     0
 42
0.0000000001
 43
0.0000000001
 40
0.0
 40
0.0
 40
0.0
 40
0.0
 40
0.1666666666666667
 40
0.1666666666666667
 40
0.1666666666666667
 40
0.3333333333333333
 40
0.3333333333333333
 40
0.3333333333333333
 40
0.5
 40
0.5
 40
0.5
 40
0.6666666666666666
 40
0.6666666666666666
 40
0.6666666666666666
 40
0.8333333333333333
 40
0.8333333333333333
 40
0.8333333333333333
 40
1.0
 40
1.0
 40
1.0
 40
1.0
 10
-858.2081
 20
-292.1545
 30
0.0
 10
-858.2081
 20
-292.1545
 30
0.0
 10
-855.5924
 20
-138.184
 30
0.0
 10
-855.5924
 20
-138.184
 30
0.0
 10
-855.5924
 20
-138.184
 30
0.0
 10
-909.5094
 20
-125.8767
 30
0.0
 10
-909.5094
 20
-125.8767
 30
0.0
 10
-909.5094
 20
-125.8767
 30
0.0
 10
-977.8037
 20
-326.7863
 30
0.0
 10
-977.8037
 20
-326.7863
 30
0.0
 10
-977.8037
 20
-326.7863
 30
0.0
 10
-978.2886
 20
-325.5468
 30
0.0
 10
-978.2886
 20
-325.5468
 30
0.0
 10
-978.2886
 20
-325.5468
 30
0.0
 10
-979.1364
 20
-416.7242
 30
0.0
 10
-979.1364
 20
-416.7242
 30
0.0
 10
-979.1364
 20
-416.7242
 30
0.0
 10
-858.2081
 20
-292.1545
 30
0.0
 10
-858.2081
 20
-292.1545
 30
0.0
  0
SPLINE
  5
6D
330
1F
100
AcDbEntity
  8
Layer 1
 62
   250
370
     9
100
AcDbSpline
210
0.0
220
0.0
230
1.0
 70
    11
 71
     3
 72
    20
 73
    16
 74
     0
 42
0.0000000001
 43
0.0000000001
 40
0.0
 40
0.0
 40
0.0
 40
0.0
 40
0.2
 40
0.2
 40
0.2
 40
0.4
 40
0.4
 40
0.4
 40
0.6000000000000001
 40
0.6000000000000001
 40
0.6000000000000001
 40
0.8
 40
0.8
 40
0.8
 40
1.0
 40
1.0
 40
1.0
 40
1.0
 10
562.067
 20
283.4746
 30
0.0
 10
562.067
 20
283.4746
 30
0.0
 10
601.9282
 20
121.4233
 30
0.0
 10
601.9282
 20
121.4233
 30
0.0
 10
601.9282
 20
121.4233
 30
0.0
 10
643.3829
 20
83.6021
 30
0.0
 10
643.3829
 20
83.6021
 30
0.0
 10
643.3829
 20
83.6021
 30
0.0
 10
699.7424
 20
249.4011
 30
0.0
 10
699.7424
 20
249.4011
 30
0.0
 10
699.7424
 20
249.4011
 30
0.0
 10
613.5648
 20
414.0536
 30
0.0
 10
613.5648
 20
414.0536
 30
0.0
 10
613.5648
 20
414.0536
 30
0.0
 10
562.067
 20
283.4746
 30
0.0
 10
562.067
 20
283.4746
 30
0.0
  0
SPLINE
  5
6E
330
1F
100
AcDbEntity
  8
Layer 1
 62
   250
370
     9
100
AcDbSpline
210
0.0
220
0.0
230
1.0
 70
    11
 71
     3
 72
    17
 73
    13
 74
     0
 42
0.0000000001
 43
0.0000000001
 40
0.0
 40
0.0
 40
0.0
 40
0.0
 40
0.25
 40
0.25
 40
0.25
 40
0.5
 40
0.5
 40
0.5
 40
0.75
 40
0.75
 40
0.75
 40
1.0
 40
1.0
 40
1.0
 40
1.0
 10
213.1224
 20
215.24
 30
0.0
 10
213.1224
 20
215.24
 30
0.0
 10
182.4053
 20
466.1093
 30
0.0
 10
182.4053
 20
466.1093
 30
0.0
 10
182.4053
 20
466.1093
 30
0.0
 10
92.7603
 20
357.9343
 30
0.0
 10
92.7603
 20
357.9343
 30
0.0
 10
92.7603
 20
357.9343
 30
0.0
 10
170.8005
 20
109.4895
 30
0.0
 10
170.8005
 20
109.4895
 30
0.0
 10
170.8005
 20
109.4895
 30
0.0
 10
213.1224
 20
215.24
 30
0.0
 10
213.1224
 20
215.24
 30
0.0
  0
SPLINE
  5
6F
330
1F
100
AcDbEntity
  8
Layer 1
 62
   250
370
     9
100
AcDbSpline
210
0.0
220
0.0
230
1.0
 70
    11
 71
     3
 72
    17
 73
    13
 74
     0
 42
0.0000000001
 43
0.0000000001
 40
0.0
 40
0.0
 40
0.0
 40
0.0
 40
0.25
 40
0.25
 40
0.25
 40
0.5
 40
0.5
 40
0.5
 40
0.75
 40
0.75
 40
0.75
 40
1.0
 40
1.0
 40
1.0
 40
1.0
 10
185.9386
 20
61.2968
 30
0.0
 10
185.9386
 20
61.2968
 30
0.0
 10
221.9912
 20
-53.4785
 30
0.0
 10
221.9912
 20
-53.4785
 30
0.0
 10
221.9912
 20
-53.4785
 30
0.0
 10
303.5888
 20
125.2814
 30
0.0
 10
303.5888
 20
125.2814
 30
0.0
 10
303.5888
 20
125.2814
 30
0.0
 10
267.9498
 20
266.2194
 30
0.0
 10
267.9498
 20
266.2194
 30
0.0
 10
267.9498
 20
266.2194
 30
0.0
 10
185.9386
 20
61.2968
 30
0.0
 10
185.9386
 20
61.2968
 30
0.0
  0
SPLINE
  5
70
330
1F
100
AcDbEntity
  8
Layer 1
 62
   250
370
     9
100
AcDbSpline
210
0.0
220
0.0
230
1.0
 70
    11
 71
     3
 72
    17
 73
    13
 74
     0
 42
0.0000000001
 43
0.0000000001
 40
0.0
 40
0.0
 40
0.0
 40
0.0
 40
0.25
 40
0.25
 40
0.25
 40
0.5
 40
0.5
 40
0.5
 40
0.75
 40
0.75
 40
0.75
 40
1.0
 40
1.0
 40
1.0
 40
1.0
 10
285.3782
 20
309.7675
 30
0.0
 10
285.3782
 20
309.7675
 30
0.0
 10
350.4151
 20
52.5724
 30
0.0
 10
350.4151
 20
52.5724
 30
0.0
 10
350.4151
 20
52.5724
 30
0.0
 10
380.1345
 20
166.0678
 30
0.0
 10
380.1345
 20
166.0678
 30
0.0
 10
380.1345
 20
166.0678
 30
0.0
 10
344.4627
 20
457.4029
 30
0.0
 10
344.4627
 20
457.4029
 30
0.0
 10
344.4627
 20
457.4029
 30
0.0
 10
285.3782
 20
309.7675
 30
0.0
 10
285.3782
 20
309.7675
 30
0.0
  0
SPLINE
  5
71
330
1F
100
AcDbEntity
  8
Layer 1
 62
   250
370
     9
100
AcDbSpline
210
0.0
220
0.0
230
1.0
 70
    11
 71
     3
 72
    23
 73
    19
 74
     0
 42
0.0000000001
 43
0.0000000001
 40
0.0
 40
0.0
 40
0.0
 40
0.0
 40
0.1666666666666667
 40
0.1666666666666667
 40
0.1666666666666667
 40
0.3333333333333333
 40
0.3333333333333333
 40
0.3333333333333333
 40
0.5
 40
0.5
 40
0.5
 40
0.6666666666666666
 40
0.6666666666666666
 40
0.6666666666666666
 40
0.8333333333333333
 40
0.8333333333333333
 40
0.8333333333333333
 40
1.0
 40
1.0
 40
1.0
 40
1.0
 10
656.1691
 20
-143.2485
 30
0.0
 10
656.1691
 20
-143.2485
 30
0.0
 10
602.2522
 20
-130.9411
 30
0.0
 10
602.2522
 20
-130.9411
 30
0.0
 10
602.2522
 20
-130.9411
 30
0.0
 10
533.9579
 20
-331.851
 30
0.0
 10
533.9579
 20
-331.851
 30
0.0
 10
533.9579
 20
-331.851
 30
0.0
 10
533.4729
 20
-330.6116
 30
0.0
 10
533.4729
 20
-330.6116
 30
0.0
 10
533.4729
 20
-330.6116
 30
0.0
 10
532.6252
 20
-421.7887
 30
0.0
 10
532.6252
 20
-421.7887
 30
0.0
 10
532.6252
 20
-421.7887
 30
0.0
 10
653.5535
 20
-297.2191
 30
0.0
 10
653.5535
 20
-297.2191
 30
0.0
 10
653.5535
 20
-297.2191
 30
0.0
 10
656.1691
 20
-143.2485
 30
0.0
 10
656.1691
 20
-143.2485
 30
0.0
  0
SPLINE
  5
72
330
1F
100
AcDbEntity
  8
Layer 1
 62
   250
370
     9
100
AcDbSpline
210
0.0
220
0.0
230
1.0
 70
    11
 71
     3
 72
    14
 73
    10
 74
     0
 42
0.0000000001
 43
0.0000000001
 40
0.0
 40
0.0
 40
0.0
 40
0.0
 40
0.3333333333333333
 40
0.3333333333333333
 40
0.3333333333333333
 40
0.6666666666666666
 40
0.6666666666666666
 40
0.6666666666666666
 40
1.0
 40
1.0
 40
1.0
 40
1.0
 10
626.2377
 20
33.1638
 30
0.0
 10
626.2377
 20
33.1638
 30
0.0
 10
537.6071
 20
114.0265
 30
0.0
 10
537.6071
 20
114.0265
 30
0.0
 10
537.6071
 20
114.0265
 30
0.0
 10
534.3417
 20
-237.178
 30
0.0
 10
534.3417
 20
-237.178
 30
0.0
 10
534.3417
 20
-237.178
 30
0.0
 10
626.2377
 20
33.1638
 30
0.0
 10
626.2377
 20
33.1638
 30
0.0
  0
SPLINE
  5
73
330
1F
100
AcDbEntity
  8
Layer 1
 62
   250
370
     9
100
AcDbSpline
210
0.0
220
0.0
230
1.0
 70
    11
 71
     3
 72
    20
 73
    16
 74
     0
 42
0.0000000001
 43
0.0000000001
 40
0.0
 40
0.0
 40
0.0
 40
0.0
 40
0.2
 40
0.2
 40
0.2
 40
0.4
 40
0.4
 40
0.4
 40
0.6000000000000001
 40
0.6000000000000001
 40
0.6000000000000001
 40
0.8
 40
0.8
 40
0.8
 40
1.0
 40
1.0
 40
1.0
 40
1.0
 10
514.1411
 20
135.4359
 30
0.0
 10
514.1411
 20
135.4359
 30
0.0
 10
422.7263
 20
218.8385
 30
0.0
 10
422.7263
 20
218.8385
 30
0.0
 10
422.7263
 20
218.8385
 30
0.0
 10
364.5505
 20
-3.3274
 30
0.0
 10
364.5505
 20
-3.3274
 30
0.0
 10
364.5505
 20
-3.3274
 30
0.0
 10
415.4485
 20
-204.6085
 30
0.0
 10
415.4485
 20
-204.6085
 30
0.0
 10
415.4485
 20
-204.6085
 30
0.0
 10
511.6133
 20
-136.4246
 30
0.0
 10
511.6133
 20
-136.4246
 30
0.0
 10
511.6133
 20
-136.4246
 30
0.0
 10
514.1411
 20
135.4359
 30
0.0
 10
514.1411
 20
135.4359
 30
0.0
  0
SPLINE
  5
74
330
1F
100
AcDbEntity
  8
Layer 1
 62
   250
370
     9
100
AcDbSpline
210
0.0
220
0.0
230
1.0
 70
    11
 71
     3
 72
    17
 73
    13
 74
     0
 42
0.0000000001
 43
0.0000000001
 40
0.0
 40
0.0
 40
0.0
 40
0.0
 40
0.25
 40
0.25
 40
0.25
 40
0.5
 40
0.5
 40
0.5
 40
0.75
 40
0.75
 40
0.75
 40
1.0
 40
1.0
 40
1.0
 40
1.0
 10
511.008
 20
-201.5303
 30
0.0
 10
511.008
 20
-201.5303
 30
0.0
 10
333.9134
 20
-327.0953
 30
0.0
 10
333.9134
 20
-327.0953
 30
0.0
 10
333.9134
 20
-327.0953
 30
0.0
 10
377.0747
 20
-582.0228
 30
0.0
 10
377.0747
 20
-582.0228
 30
0.0
 10
377.0747
 20
-582.0228
 30
0.0
 10
508.7314
 20
-446.4021
 30
0.0
 10
508.7314
 20
-446.4021
 30
0.0
 10
508.7314
 20
-446.4021
 30
0.0
 10
511.008
 20
-201.5303
 30
0.0
 10
511.008
 20
-201.5303
 30
0.0
  0
SPLINE
  5
75
330
1F
100
AcDbEntity
  8
Layer 1
 62
   250
370
     9
100
AcDbSpline
210
0.0
220
0.0
230
1.0
 70
    11
 71
     3
 72
    14
 73
    10
 74
     0
 42
0.0000000001
 43
0.0000000001
 40
0.0
 40
0.0
 40
0.0
 40
0.0
 40
0.3333333333333333
 40
0.3333333333333333
 40
0.3333333333333333
 40
0.6666666666666666
 40
0.6666666666666666
 40
0.6666666666666666
 40
1.0
 40
1.0
 40
1.0
 40
1.0
 10
565.5796
 20
154.5863
 30
0.0
 10
565.5796
 20
154.5863
 30
0.0
 10
488.2368
 20
469.0156
 30
0.0
 10
488.2368
 20
469.0156
 30
0.0
 10
488.2368
 20
469.0156
 30
0.0
 10
436.6931
 20
272.1767
 30
0.0
 10
436.6931
 20
272.1767
 30
0.0
 10
436.6931
 20
272.1767
 30
0.0
 10
565.5796
 20
154.5863
 30
0.0
 10
565.5796
 20
154.5863
 30
0.0
  0
SPLINE
  5
76
330
1F
100
AcDbEntity
  8
Layer 1
 62
   250
370
     9
100
AcDbSpline
210
0.0
220
0.0
230
1.0
 70
    11
 71
     3
 72
    17
 73
    13
 74
     0
 42
0.0000000001
 43
0.0000000001
 40
0.0
 40
0.0
 40
0.0
 40
0.0
 40
0.25
 40
0.25
 40
0.25
 40
0.5
 40
0.5
 40
0.5
 40
0.75
 40
0.75
 40
0.75
 40
1.0
 40
1.0
 40
1.0
 40
1.0
 10
316.8052
 20
73.0159
 30
0.0
 10
316.8052
 20
73.0159
 30
0.0
 10
279.8708
 20
-7.8978
 30
0.0
 10
279.8708
 20
-7.8978
 30
0.0
 10
279.8708
 20
-7.8978
 30
0.0
 10
324.137
 20
-269.3514
 30
0.0
 10
324.137
 20
-269.3514
 30
0.0
 10
324.137
 20
-269.3514
 30
0.0
 10
391.332
 20
-221.7079
 30
0.0
 10
391.332
 20
-221.7079
 30
0.0
 10
391.332
 20
-221.7079
 30
0.0
 10
316.8052
 20
73.0159
 30
0.0
 10
316.8052
 20
73.0159
 30
0.0
  0
SPLINE
  5
77
330
1F
100
AcDbEntity
  8
Layer 1
 62
   250
370
     9
100
AcDbSpline
210
0.0
220
0.0
230
1.0
 70
    11
 71
     3
 72
    14
 73
    10
 74
     0
 42
0.0000000001
 43
0.0000000001
 40
0.0
 40
0.0
 40
0.0
 40
0.0
 40
0.3333333333333333
 40
0.3333333333333333
 40
0.3333333333333333
 40
0.6666666666666666
 40
0.6666666666666666
 40
0.6666666666666666
 40
1.0
 40
1.0
 40
1.0
 40
1.0
 10
260.9609
 20
-49.3241
 30
0.0
 10
260.9609
 20
-49.3241
 30
0.0
 10
169.8841
 20
-248.8494
 30
0.0
 10
169.8841
 20
-248.8494
 30
0.0
 10
169.8841
 20
-248.8494
 30
0.0
 10
314.7596
 20
-367.0784
 30
0.0
 10
314.7596
 20
-367.0784
 30
0.0
 10
314.7596
 20
-367.0784
 30
0.0
 10
260.9609
 20
-49.3241
 30
0.0
 10
260.9609
 20
-49.3241
 30
0.0
  0
SPLINE
  5
78
330
1F
100
AcDbEntity
  8
Layer 1
 62
   250
370
     9
100
AcDbSpline
210
0.0
220
0.0
230
1.0
 70
    11
 71
     3
 72
    17
 73
    13
 74
     0
 42
0.0000000001
 43
0.0000000001
 40
0.0
 40
0.0
 40
0.0
 40
0.0
 40
0.25
 40
0.25
 40
0.25
 40
0.5
 40
0.5
 40
0.5
 40
0.75
 40
0.75
 40
0.75
 40
1.0
 40
1.0
 40
1.0
 40
1.0
 10
203.7816
 20
-93.3708
 30
0.0
 10
203.7816
 20
-93.3708
 30
0.0
 10
135.0063
 20
125.5794
 30
0.0
 10
135.0063
 20
125.5794
 30
0.0
 10
135.0063
 20
125.5794
 30
0.0
 10
85.4673
 20
-179.9589
 30
0.0
 10
85.4673
 20
-179.9589
 30
0.0
 10
85.4673
 20
-179.9589
 30
0.0
 10
142.873
 20
-226.8061
 30
0.0
 10
142.873
 20
-226.8061
 30
0.0
 10
142.873
 20
-226.8061
 30
0.0
 10
203.7816
 20
-93.3708
 30
0.0
 10
203.7816
 20
-93.3708
 30
0.0
  0
SPLINE
  5
79
330
1F
100
AcDbEntity
  8
Layer 1
 62
   250
370
     9
100
AcDbSpline
210
0.0
220
0.0
230
1.0
 70
    11
 71
     3
 72
    17
 73
    13
 74
     0
 42
0.0000000001
 43
0.0000000001
 40
0.0
 40
0.0
 40
0.0
 40
0.0
 40
0.25
 40
0.25
 40
0.25
 40
0.5
 40
0.5
 40
0.5
 40
0.75
 40
0.75
 40
0.75
 40
1.0
 40
1.0
 40
1.0
 40
1.0
 10
76.0961
 20
-237.7575
 30
0.0
 10
76.0961
 20
-237.7575
 30
0.0
 10
65.1438
 20
-305.3066
 30
0.0
 10
65.1438
 20
-305.3066
 30
0.0
 10
65.1438
 20
-305.3066
 30
0.0
 10
144.6978
 20
-461.8197
 30
0.0
 10
144.6978
 20
-461.8197
 30
0.0
 10
144.6978
 20
-461.8197
 30
0.0
 10
187.3962
 20
-328.5864
 30
0.0
 10
187.3962
 20
-328.5864
 30
0.0
 10
187.3962
 20
-328.5864
 30
0.0
 10
76.0961
 20
-237.7575
 30
0.0
 10
76.0961
 20
-237.7575
 30
0.0
  0
SPLINE
  5
7A
330
1F
100
AcDbEntity
  8
Layer 1
 62
   250
370
     9
100
AcDbSpline
210
0.0
220
0.0
230
1.0
 70
    11
 71
     3
 72
    20
 73
    16
 74
     0
 42
0.0000000001
 43
0.0000000001
 40
0.0
 40
0.0
 40
0.0
 40
0.0
 40
0.2
 40
0.2
 40
0.2
 40
0.4
 40
0.4
 40
0.4
 40
0.6000000000000001
 40
0.6000000000000001
 40
0.6000000000000001
 40
0.8
 40
0.8
 40
0.8
 40
1.0
 40
1.0
 40
1.0
 40
1.0
 10
5.265
 20
252.3533
 30
0.0
 10
5.265
 20
252.3533
 30
0.0
 10
27.1458
 20
73.6507
 30
0.0
 10
27.1458
 20
73.6507
 30
0.0
 10
27.1458
 20
73.6507
 30
0.0
 10
97.1145
 20
50.6269
 30
0.0
 10
97.1145
 20
50.6269
 30
0.0
 10
97.1145
 20
50.6269
 30
0.0
 10
118.0299
 20
179.6248
 30
0.0
 10
118.0299
 20
179.6248
 30
0.0
 10
118.0299
 20
179.6248
 30
0.0
 10
70.4695
 20
331.0355
 30
0.0
 10
70.4695
 20
331.0355
 30
0.0
 10
70.4695
 20
331.0355
 30
0.0
 10
5.265
 20
252.3533
 30
0.0
 10
5.265
 20
252.3533
 30
0.0
  0
SPLINE
  5
7B
330
1F
100
AcDbEntity
  8
Layer 1
 62
   250
370
     9
100
AcDbSpline
210
0.0
220
0.0
230
1.0
 70
    11
 71
     3
 72
    17
 73
    13
 74
     0
 42
0.0000000001
 43
0.0000000001
 40
0.0
 40
0.0
 40
0.0
 40
0.0
 40
0.25
 40
0.25
 40
0.25
 40
0.5
 40
0.5
 40
0.5
 40
0.75
 40
0.75
 40
0.75
 40
1.0
 40
1.0
 40
1.0
 40
1.0
 10
-568.8569
 20
-322.8046
 30
0.0
 10
-568.8569
 20
-322.8046
 30
0.0
 10
-484.0213
 20
-464.7675
 30
0.0
 10
-484.0213
 20
-464.7675
 30
0.0
 10
-484.0213
 20
-464.7675
 30
0.0
 10
-424.9177
 20
-386.8407
 30
0.0
 10
-424.9177
 20
-386.8407
 30
0.0
 10
-424.9177
 20
-386.8407
 30
0.0
 10
-493.6691
 20
-132.1562
 30
0.0
 10
-493.6691
 20
-132.1562
 30
0.0
 10
-493.6691
 20
-132.1562
 30
0.0
 10
-568.8569
 20
-322.8046
 30
0.0
 10
-568.8569
 20
-322.8046
 30
0.0
  0
SPLINE
  5
7C
330
1F
100
AcDbEntity
  8
Layer 1
 62
   250
370
     9
100
AcDbSpline
210
0.0
220
0.0
230
1.0
 70
    11
 71
     3
 72
    17
 73
    13
 74
     0
 42
0.0000000001
 43
0.0000000001
 40
0.0
 40
0.0
 40
0.0
 40
0.0
 40
0.25
 40
0.25
 40
0.25
 40
0.5
 40
0.5
 40
0.5
 40
0.75
 40
0.75
 40
0.75
 40
1.0
 40
1.0
 40
1.0
 40
1.0
 10
-507.546
 20
-80.7505
 30
0.0
 10
-507.546
 20
-80.7505
 30
0.0
 10
-535.4342
 20
22.5594
 30
0.0
 10
-535.4342
 20
22.5594
 30
0.0
 10
-535.4342
 20
22.5594
 30
0.0
 10
-703.8235
 20
-266.7527
 30
0.0
 10
-703.8235
 20
-266.7527
 30
0.0
 10
-703.8235
 20
-266.7527
 30
0.0
 10
-648.8694
 20
-439.0941
 30
0.0
 10
-648.8694
 20
-439.0941
 30
0.0
 10
-648.8694
 20
-439.0941
 30
0.0
 10
-507.546
 20
-80.7505
 30
0.0
 10
-507.546
 20
-80.7505
 30
0.0
  0
SPLINE
  5
7D
330
1F
100
AcDbEntity
  8
Layer 1
 62
   250
370
     9
100
AcDbSpline
210
0.0
220
0.0
230
1.0
 70
    11
 71
     3
 72
    20
 73
    16
 74
     0
 42
0.0000000001
 43
0.0000000001
 40
0.0
 40
0.0
 40
0.0
 40
0.0
 40
0.2
 40
0.2
 40
0.2
 40
0.4
 40
0.4
 40
0.4
 40
0.6000000000000001
 40
0.6000000000000001
 40
0.6000000000000001
 40
0.8
 40
0.8
 40
0.8
 40
1.0
 40
1.0
 40
1.0
 40
1.0
 10
-949.6945
 20
288.5391
 30
0.0
 10
-949.6945
 20
288.5391
 30
0.0
 10
-909.8333
 20
126.488
 30
0.0
 10
-909.8333
 20
126.488
 30
0.0
 10
-909.8333
 20
126.488
 30
0.0
 10
-868.3786
 20
88.6666
 30
0.0
 10
-868.3786
 20
88.6666
 30
0.0
 10
-868.3786
 20
88.6666
 30
0.0
 10
-812.0192
 20
254.4658
 30
0.0
 10
-812.0192
 20
254.4658
 30
0.0
 10
-812.0192
 20
254.4658
 30
0.0
 10
-898.1968
 20
419.1182
 30
0.0
 10
-898.1968
 20
419.1182
 30
0.0
 10
-898.1968
 20
419.1182
 30
0.0
 10
-949.6945
 20
288.5391
 30
0.0
 10
-949.6945
 20
288.5391
 30
0.0
  0
SPLINE
  5
7E
330
1F
100
AcDbEntity
  8
Layer 1
 62
   250
370
     9
100
AcDbSpline
210
0.0
220
0.0
230
1.0
 70
    11
 71
     3
 72
    17
 73
    13
 74
     0
 42
0.0000000001
 43
0.0000000001
 40
0.0
 40
0.0
 40
0.0
 40
0.0
 40
0.25
 40
0.25
 40
0.25
 40
0.5
 40
0.5
 40
0.5
 40
0.75
 40
0.75
 40
0.75
 40
1.0
 40
1.0
 40
1.0
 40
1.0
 10
-422.4181
 20
104.1965
 30
0.0
 10
-422.4181
 20
104.1965
 30
0.0
 10
-522.5795
 20
82.4264
 30
0.0
 10
-522.5795
 20
82.4264
 30
0.0
 10
-522.5795
 20
82.4264
 30
0.0
 10
-451.5014
 20
-180.8776
 30
0.0
 10
-451.5014
 20
-180.8776
 30
0.0
 10
-451.5014
 20
-180.8776
 30
0.0
 10
-411.0314
 20
-89.9695
 30
0.0
 10
-411.0314
 20
-89.9695
 30
0.0
 10
-411.0314
 20
-89.9695
 30
0.0
 10
-422.4181
 20
104.1965
 30
0.0
 10
-422.4181
 20
104.1965
 30
0.0
  0
SPLINE
  5
7F
330
1F
100
AcDbEntity
  8
Layer 1
 62
   250
370
     9
100
AcDbSpline
210
0.0
220
0.0
230
1.0
 70
    11
 71
     3
 72
    17
 73
    13
 74
     0
 42
0.0000000001
 43
0.0000000001
 40
0.0
 40
0.0
 40
0.0
 40
0.0
 40
0.25
 40
0.25
 40
0.25
 40
0.5
 40
0.5
 40
0.5
 40
0.75
 40
0.75
 40
0.75
 40
1.0
 40
1.0
 40
1.0
 40
1.0
 10
-547.1039
 20
77.0961
 30
0.0
 10
-547.1039
 20
77.0961
 30
0.0
 10
-714.7755
 20
40.6524
 30
0.0
 10
-714.7755
 20
40.6524
 30
0.0
 10
-714.7755
 20
40.6524
 30
0.0
 10
-711.7832
 20
-108.3196
 30
0.0
 10
-711.7832
 20
-108.3196
 30
0.0
 10
-711.7832
 20
-108.3196
 30
0.0
 10
-661.6788
 20
-119.7569
 30
0.0
 10
-661.6788
 20
-119.7569
 30
0.0
 10
-661.6788
 20
-119.7569
 30
0.0
 10
-547.1039
 20
77.0961
 30
0.0
 10
-547.1039
 20
77.0961
 30
0.0
  0
SPLINE
  5
80
330
1F
100
AcDbEntity
  8
Layer 1
 62
   250
370
     9
100
AcDbSpline
210
0.0
220
0.0
230
1.0
 70
    11
 71
     3
 72
    17
 73
    13
 74
     0
 42
0.0000000001
 43
0.0000000001
 40
0.0
 40
0.0
 40
0.0
 40
0.0
 40
0.25
 40
0.25
 40
0.25
 40
0.5
 40
0.5
 40
0.5
 40
0.75
 40
0.75
 40
0.75
 40
1.0
 40
1.0
 40
1.0
 40
1.0
 10
-716.0301
 20
103.1166
 30
0.0
 10
-716.0301
 20
103.1166
 30
0.0
 10
-519.8698
 20
145.7525
 30
0.0
 10
-519.8698
 20
145.7525
 30
0.0
 10
-519.8698
 20
145.7525
 30
0.0
 10
-562.4423
 20
359.3618
 30
0.0
 10
-562.4423
 20
359.3618
 30
0.0
 10
-562.4423
 20
359.3618
 30
0.0
 10
-718.4816
 20
225.1669
 30
0.0
 10
-718.4816
 20
225.1669
 30
0.0
 10
-718.4816
 20
225.1669
 30
0.0
 10
-716.0301
 20
103.1166
 30
0.0
 10
-716.0301
 20
103.1166
 30
0.0
  0
SPLINE
  5
81
330
1F
100
AcDbEntity
  8
Layer 1
 62
   250
370
     9
100
AcDbSpline
210
0.0
220
0.0
230
1.0
 70
    11
 71
     3
 72
    17
 73
    13
 74
     0
 42
0.0000000001
 43
0.0000000001
 40
0.0
 40
0.0
 40
0.0
 40
0.0
 40
0.25
 40
0.25
 40
0.25
 40
0.5
 40
0.5
 40
0.5
 40
0.75
 40
0.75
 40
0.75
 40
1.0
 40
1.0
 40
1.0
 40
1.0
 10
-494.2689
 20
151.3168
 30
0.0
 10
-494.2689
 20
151.3168
 30
0.0
 10
-426.0509
 20
166.1445
 30
0.0
 10
-426.0509
 20
166.1445
 30
0.0
 10
-426.0509
 20
166.1445
 30
0.0
 10
-438.8282
 20
384.0229
 30
0.0
 10
-438.8282
 20
384.0229
 30
0.0
 10
-438.8282
 20
384.0229
 30
0.0
 10
-511.0589
 20
235.5615
 30
0.0
 10
-511.0589
 20
235.5615
 30
0.0
 10
-511.0589
 20
235.5615
 30
0.0
 10
-494.2689
 20
151.3168
 30
0.0
 10
-494.2689
 20
151.3168
 30
0.0
  0
SPLINE
  5
82
330
1F
100
AcDbEntity
  8
Layer 1
 62
   250
370
     9
100
AcDbSpline
210
0.0
220
0.0
230
1.0
 70
    11
 71
     3
 72
    17
 73
    13
 74
     0
 42
0.0000000001
 43
0.0000000001
 40
0.0
 40
0.0
 40
0.0
 40
0.0
 40
0.25
 40
0.25
 40
0.25
 40
0.5
 40
0.5
 40
0.5
 40
0.75
 40
0.75
 40
0.75
 40
1.0
 40
1.0
 40
1.0
 40
1.0
 10
-190.9372
 20
-73.6445
 30
0.0
 10
-190.9372
 20
-73.6445
 30
0.0
 10
-265.8585
 20
161.6944
 30
0.0
 10
-265.8585
 20
161.6944
 30
0.0
 10
-265.8585
 20
161.6944
 30
0.0
 10
-437.7633
 20
-231.7695
 30
0.0
 10
-437.7633
 20
-231.7695
 30
0.0
 10
-437.7633
 20
-231.7695
 30
0.0
 10
-403.5186
 20
-358.6267
 30
0.0
 10
-403.5186
 20
-358.6267
 30
0.0
 10
-325.638
 20
-255.9431
 30
0.0
 10
-271.8035
 20
-179.7624
 30
0.0
 10
-190.9372
 20
-73.6445
 30
0.0
  0
SPLINE
  5
83
330
1F
100
AcDbEntity
  8
Layer 1
 62
   250
370
     9
100
AcDbSpline
210
0.0
220
0.0
230
1.0
 70
    11
 71
     3
 72
    14
 73
    10
 74
     0
 42
0.0000000001
 43
0.0000000001
 40
0.0
 40
0.0
 40
0.0
 40
0.0
 40
0.3333333333333333
 40
0.3333333333333333
 40
0.3333333333333333
 40
0.6666666666666666
 40
0.6666666666666666
 40
0.6666666666666666
 40
1.0
 40
1.0
 40
1.0
 40
1.0
 10
-836.727
 20
-420.51
 30
0.0
 10
-836.727
 20
-420.51
 30
0.0
 10
-693.8879
 20
-175.0959
 30
0.0
 10
-693.8879
 20
-175.0959
 30
0.0
 10
-693.8879
 20
-175.0959
 30
0.0
 10
-832.0232
 20
-143.5643
 30
0.0
 10
-832.0232
 20
-143.5643
 30
0.0
 10
-832.0232
 20
-143.5643
 30
0.0
 10
-836.727
 20
-420.51
 30
0.0
 10
-836.727
 20
-420.51
 30
0.0
  0
SPLINE
  5
84
330
1F
100
AcDbEntity
  8
Layer 1
 62
   250
370
     9
100
AcDbSpline
210
0.0
220
0.0
230
1.0
 70
    11
 71
     3
 72
    17
 73
    13
 74
     0
 42
0.0000000001
 43
0.0000000001
 40
0.0
 40
0.0
 40
0.0
 40
0.0
 40
0.25
 40
0.25
 40
0.25
 40
0.5
 40
0.5
 40
0.5
 40
0.75
 40
0.75
 40
0.75
 40
1.0
 40
1.0
 40
1.0
 40
1.0
 10
-889.7335
 20
-67.6994
 30
0.0
 10
-889.7335
 20
-67.6994
 30
0.0
 10
-735.5821
 20
-102.8873
 30
0.0
 10
-735.5821
 20
-102.8873
 30
0.0
 10
-735.5821
 20
-102.8873
 30
0.0
 10
-739.9959
 20
116.8562
 30
0.0
 10
-739.9959
 20
116.8562
 30
0.0
 10
-739.9959
 20
116.8562
 30
0.0
 10
-792.7416
 20
217.6334
 30
0.0
 10
-792.7416
 20
217.6334
 30
0.0
 10
-792.7416
 20
217.6334
 30
0.0
 10
-889.7335
 20
-67.6994
 30
0.0
 10
-889.7335
 20
-67.6994
 30
0.0
  0
SPLINE
  5
85
330
1F
100
AcDbEntity
  8
Layer 1
 62
   250
370
     9
100
AcDbSpline
210
0.0
220
0.0
230
1.0
 70
    11
 71
     3
 72
    14
 73
    10
 74
     0
 42
0.0000000001
 43
0.0000000001
 40
0.0
 40
0.0
 40
0.0
 40
0.0
 40
0.3333333333333333
 40
0.3333333333333333
 40
0.3333333333333333
 40
0.6666666666666666
 40
0.6666666666666666
 40
0.6666666666666666
 40
1.0
 40
1.0
 40
1.0
 40
1.0
 10
-977.42
 20
-232.1135
 30
0.0
 10
-977.42
 20
-232.1135
 30
0.0
 10
-885.5239
 20
38.2283
 30
0.0
 10
-885.5239
 20
38.2283
 30
0.0
 10
-885.5239
 20
38.2283
 30
0.0
 10
-974.1545
 20
119.0912
 30
0.0
 10
-974.1545
 20
119.0912
 30
0.0
 10
-974.1545
 20
119.0912
 30
0.0
 10
-977.42
 20
-232.1135
 30
0.0
 10
-977.42
 20
-232.1135
 30
0.0
  0
SPLINE
  5
86
330
1F
100
AcDbEntity
  8
Layer 1
 62
   250
370
     9
100
AcDbSpline
210
0.0
220
0.0
230
1.0
 70
    11
 71
     3
 72
    20
 73
    16
 74
     0
 42
0.0000000001
 43
0.0000000001
 40
0.0
 40
0.0
 40
0.0
 40
0.0
 40
0.2
 40
0.2
 40
0.2
 40
0.4
 40
0.4
 40
0.4
 40
0.6000000000000001
 40
0.6000000000000001
 40
0.6000000000000001
 40
0.8
 40
0.8
 40
0.8
 40
1.0
 40
1.0
 40
1.0
 40
1.0
 10
-188.2589
 20
220.5449
 30
0.0
 10
-188.2589
 20
220.5449
 30
0.0
 10
-198.5044
 20
50.3647
 30
0.0
 10
-198.5044
 20
50.3647
 30
0.0
 10
-198.5044
 20
50.3647
 30
0.0
 10
-161.5538
 20
-63.4011
 30
0.0
 10
-161.5538
 20
-63.4011
 30
0.0
 10
-161.5538
 20
-63.4011
 30
0.0
 10
-122.7616
 20
-19.7778
 30
0.0
 10
-122.7616
 20
-19.7778
 30
0.0
 10
-122.7616
 20
-19.7778
 30
0.0
 10
-126.8274
 20
288.0323
 30
0.0
 10
-126.8274
 20
288.0323
 30
0.0
 10
-126.8274
 20
288.0323
 30
0.0
 10
-188.2589
 20
220.5449
 30
0.0
 10
-188.2589
 20
220.5449
 30
0.0
  0
SPLINE
  5
87
330
1F
100
AcDbEntity
  8
Layer 1
 62
   250
370
     9
100
AcDbSpline
210
0.0
220
0.0
230
1.0
 70
    11
 71
     3
 72
    17
 73
    13
 74
     0
 42
0.0000000001
 43
0.0000000001
 40
0.0
 40
0.0
 40
0.0
 40
0.0
 40
0.25
 40
0.25
 40
0.25
 40
0.5
 40
0.5
 40
0.5
 40
0.75
 40
0.75
 40
0.75
 40
1.0
 40
1.0
 40
1.0
 40
1.0
 10
-103.4872
 20
313.6733
 30
0.0
 10
-103.4872
 20
313.6733
 30
0.0
 10
-100.8731
 20
115.7763
 30
0.0
 10
-100.8731
 20
115.7763
 30
0.0
 10
-100.8731
 20
115.7763
 30
0.0
 10
1.222
 20
82.181
 30
0.0
 10
1.222
 20
82.181
 30
0.0
 10
1.222
 20
82.181
 30
0.0
 10
-36.1766
 20
387.6192
 30
0.0
 10
-36.1766
 20
387.6192
 30
0.0
 10
-36.1766
 20
387.6192
 30
0.0
 10
-103.4872
 20
313.6733
 30
0.0
 10
-103.4872
 20
313.6733
 30
0.0
  0
SPLINE
  5
88
330
1F
100
AcDbEntity
  8
Layer 1
 62
   250
370
     9
100
AcDbSpline
210
0.0
220
0.0
230
1.0
 70
    11
 71
     3
 72
    17
 73
    13
 74
     0
 42
0.0000000001
 43
0.0000000001
 40
0.0
 40
0.0
 40
0.0
 40
0.0
 40
0.25
 40
0.25
 40
0.25
 40
0.5
 40
0.5
 40
0.5
 40
0.75
 40
0.75
 40
0.75
 40
1.0
 40
1.0
 40
1.0
 40
1.0
 10
45.6293
 20
-266.9144
 30
0.0
 10
45.6293
 20
-266.9144
 30
0.0
 10
87.4147
 20
-9.1982
 30
0.0
 10
87.4147
 20
-9.1982
 30
0.0
 10
87.4147
 20
-9.1982
 30
0.0
 10
-6.5575
 20
21.7239
 30
0.0
 10
-6.5575
 20
21.7239
 30
0.0
 10
-6.5575
 20
21.7239
 30
0.0
 10
-13.2518
 20
-151.0726
 30
0.0
 10
-13.2518
 20
-151.0726
 30
0.0
 10
-13.2518
 20
-151.0726
 30
0.0
 10
45.6293
 20
-266.9144
 30
0.0
 10
45.6293
 20
-266.9144
 30
0.0
  0
SPLINE
  5
89
330
1F
100
AcDbEntity
  8
Layer 1
 62
   250
370
     9
100
AcDbSpline
210
0.0
220
0.0
230
1.0
 70
    11
 71
     3
 72
    17
 73
    13
 74
     0
 42
0.0000000001
 43
0.0000000001
 40
0.0
 40
0.0
 40
0.0
 40
0.0
 40
0.25
 40
0.25
 40
0.25
 40
0.5
 40
0.5
 40
0.5
 40
0.75
 40
0.75
 40
0.75
 40
1.0
 40
1.0
 40
1.0
 40
1.0
 10
-100.0371
 20
52.484
 30
0.0
 10
-100.0371
 20
52.484
 30
0.0
 10
-95.302
 20
-305.9969
 30
0.0
 10
-95.302
 20
-305.9969
 30
0.0
 10
-95.302
 20
-305.9969
 30
0.0
 10
-43.0176
 20
-305.4289
 30
0.0
 10
-43.0176
 20
-305.4289
 30
0.0
 10
-43.0176
 20
-305.4289
 30
0.0
 10
-30.0439
 20
29.4524
 30
0.0
 10
-30.0439
 20
29.4524
 30
0.0
 10
-30.0439
 20
29.4524
 30
0.0
 10
-100.0371
 20
52.484
 30
0.0
 10
-100.0371
 20
52.484
 30
0.0
  0
SPLINE
  5
8A
330
1F
100
AcDbEntity
  8
Layer 1
 62
   250
370
     9
100
AcDbSpline
210
0.0
220
0.0
230
1.0
 70
    11
 71
     3
 72
    17
 73
    13
 74
     0
 42
0.0000000001
 43
0.0000000001
 40
0.0
 40
0.0
 40
0.0
 40
0.0
 40
0.25
 40
0.25
 40
0.25
 40
0.5
 40
0.5
 40
0.5
 40
0.75
 40
0.75
 40
0.75
 40
1.0
 40
1.0
 40
1.0
 40
1.0
 10
-121.8767
 20
-86.761
 30
0.0
 10
-121.8767
 20
-86.761
 30
0.0
 10
-198.475
 20
-172.899
 30
0.0
 10
-198.475
 20
-172.899
 30
0.0
 10
-198.475
 20
-172.899
 30
0.0
 10
-170.1229
 20
-306.8093
 30
0.0
 10
-170.1229
 20
-306.8093
 30
0.0
 10
-170.1229
 20
-306.8093
 30
0.0
 10
-118.9773
 20
-306.2538
 30
0.0
 10
-118.9773
 20
-306.2538
 30
0.0
 10
-118.9773
 20
-306.2538
 30
0.0
 10
-121.8767
 20
-86.761
 30
0.0
 10
-121.8767
 20
-86.761
 30
0.0
  0
SPLINE
  5
8B
330
1F
100
AcDbEntity
  8
Layer 1
 62
   250
370
     9
100
AcDbSpline
210
0.0
220
0.0
230
1.0
 70
    11
 71
     3
 72
    14
 73
    10
 74
     0
 42
0.0000000001
 43
0.0000000001
 40
0.0
 40
0.0
 40
0.0
 40
0.0
 40
0.3333333333333333
 40
0.3333333333333333
 40
0.3333333333333333
 40
0.6666666666666666
 40
0.6666666666666666
 40
0.6666666666666666
 40
1.0
 40
1.0
 40
1.0
 40
1.0
 10
-863.2683
 20
-590.0266
 30
0.0
 10
-863.2683
 20
-590.0266
 30
0.0
 10
-1082.2786
 20
-590.0266
 30
0.0
 10
-1082.2786
 20
-590.0266
 30
0.0
 10
-1082.2786
 20
-590.0266
 30
0.0
 10
-859.3675
 20
-360.4046
 30
0.0
 10
-859.3675
 20
-360.4046
 30
0.0
 10
-859.3675
 20
-360.4046
 30
0.0
 10
-863.2683
 20
-590.0266
 30
0.0
 10
-863.2683
 20
-590.0266
 30
0.0
  0
SPLINE
  5
8C
330
1F
100
AcDbEntity
  8
Layer 1
 62
   250
370
     9
100
AcDbSpline
210
0.0
220
0.0
230
1.0
 70
    11
 71
     3
 72
    17
 73
    13
 74
     0
 42
0.0000000001
 43
0.0000000001
 40
0.0
 40
0.0
 40
0.0
 40
0.0
 40
0.25
 40
0.25
 40
0.25
 40
0.5
 40
0.5
 40
0.5
 40
0.75
 40
0.75
 40
0.75
 40
1.0
 40
1.0
 40
1.0
 40
1.0
 10
-631.6525
 20
-590.0266
 30
0.0
 10
-631.6525
 20
-590.0266
 30
0.0
 10
-839.606
 20
-590.0266
 30
0.0
 10
-839.606
 20
-590.0266
 30
0.0
 10
-839.606
 20
-590.0266
 30
0.0
 10
-838.0317
 20
-497.3378
 30
0.0
 10
-838.0317
 20
-497.3378
 30
0.0
 10
-838.0317
 20
-497.3378
 30
0.0
 10
-723.7936
 20
-301.0632
 30
0.0
 10
-723.7936
 20
-301.0632
 30
0.0
 10
-723.7936
 20
-301.0632
 30
0.0
 10
-631.6525
 20
-590.0266
 30
0.0
 10
-631.6525
 20
-590.0266
 30
0.0
  0
SPLINE
  5
8D
330
1F
100
AcDbEntity
  8
Layer 1
 62
   250
370
     9
100
AcDbSpline
210
0.0
220
0.0
230
1.0
 70
    11
 71
     3
 72
    17
 73
    13
 74
     0
 42
0.0000000001
 43
0.0000000001
 40
0.0
 40
0.0
 40
0.0
 40
0.0
 40
0.25
 40
0.25
 40
0.25
 40
0.5
 40
0.5
 40
0.5
 40
0.75
 40
0.75
 40
0.75
 40
1.0
 40
1.0
 40
1.0
 40
1.0
 10
-453.0226
 20
-590.0266
 30
0.0
 10
-453.0226
 20
-590.0266
 30
0.0
 10
-600.7416
 20
-590.0266
 30
0.0
 10
-600.7416
 20
-590.0266
 30
0.0
 10
-600.7416
 20
-590.0266
 30
0.0
 10
-633.6019
 20
-486.9737
 30
0.0
 10
-633.6019
 20
-486.9737
 30
0.0
 10
-633.6019
 20
-486.9737
 30
0.0
 10
-586.4156
 20
-367.3268
 30
0.0
 10
-586.4156
 20
-367.3268
 30
0.0
 10
-586.4156
 20
-367.3268
 30
0.0
 10
-453.0226
 20
-590.0266
 30
0.0
 10
-453.0226
 20
-590.0266
 30
0.0
  0
SPLINE
  5
8E
330
1F
100
AcDbEntity
  8
Layer 1
 62
   250
370
     9
100
AcDbSpline
210
0.0
220
0.0
230
1.0
 70
    11
 71
     3
 72
    17
 73
    13
 74
     0
 42
0.0000000001
 43
0.0000000001
 40
0.0
 40
0.0
 40
0.0
 40
0.0
 40
0.25
 40
0.25
 40
0.25
 40
0.5
 40
0.5
 40
0.5
 40
0.75
 40
0.75
 40
0.75
 40
1.0
 40
1.0
 40
1.0
 40
1.0
 10
-259.7496
 20
-590.0266
 30
0.0
 10
-259.7496
 20
-590.0266
 30
0.0
 10
-408.825
 20
-590.0266
 30
0.0
 10
-408.825
 20
-590.0266
 30
0.0
 10
-408.825
 20
-590.0266
 30
0.0
 10
-460.6824
 20
-503.823
 30
0.0
 10
-460.6824
 20
-503.823
 30
0.0
 10
-460.6824
 20
-503.823
 30
0.0
 10
-298.9709
 20
-290.6109
 30
0.0
 10
-298.9709
 20
-290.6109
 30
0.0
 10
-298.9709
 20
-290.6109
 30
0.0
 10
-259.7496
 20
-590.0266
 30
0.0
 10
-259.7496
 20
-590.0266
 30
0.0
  0
SPLINE
  5
8F
330
1F
100
AcDbEntity
  8
Layer 1
 62
   250
370
     9
100
AcDbSpline
210
0.0
220
0.0
230
1.0
 70
    11
 71
     3
 72
    17
 73
    13
 74
     0
 42
0.0000000001
 43
0.0000000001
 40
0.0
 40
0.0
 40
0.0
 40
0.0
 40
0.25
 40
0.25
 40
0.25
 40
0.5
 40
0.5
 40
0.5
 40
0.75
 40
0.75
 40
0.75
 40
1.0
 40
1.0
 40
1.0
 40
1.0
 10
-137.2756
 20
-590.0266
 30
0.0
 10
-137.2756
 20
-590.0266
 30
0.0
 10
-234.7363
 20
-590.0266
 30
0.0
 10
-234.7363
 20
-590.0266
 30
0.0
 10
-234.7363
 20
-590.0266
 30
0.0
 10
-277.7056
 20
-261.9972
 30
0.0
 10
-277.7056
 20
-261.9972
 30
0.0
 10
-277.7056
 20
-261.9972
 30
0.0
 10
-220.3774
 20
-197.5292
 30
0.0
 10
-220.3774
 20
-197.5292
 30
0.0
 10
-220.3774
 20
-197.5292
 30
0.0
 10
-137.2756
 20
-590.0266
 30
0.0
 10
-137.2756
 20
-590.0266
 30
0.0
  0
SPLINE
  5
90
330
1F
100
AcDbEntity
  8
Layer 1
 62
   250
370
     9
100
AcDbSpline
210
0.0
220
0.0
230
1.0
 70
    11
 71
     3
 72
    17
 73
    13
 74
     0
 42
0.0000000001
 43
0.0000000001
 40
0.0
 40
0.0
 40
0.0
 40
0.0
 40
0.25
 40
0.25
 40
0.25
 40
0.5
 40
0.5
 40
0.5
 40
0.75
 40
0.75
 40
0.75
 40
1.0
 40
1.0
 40
1.0
 40
1.0
 10
-54.0433
 20
-590.0266
 30
0.0
 10
-54.0433
 20
-590.0266
 30
0.0
 10
-110.159
 20
-590.0266
 30
0.0
 10
-110.159
 20
-590.0266
 30
0.0
 10
-110.159
 20
-590.0266
 30
0.0
 10
-156.9189
 20
-369.1735
 30
0.0
 10
-156.9189
 20
-369.1735
 30
0.0
 10
-156.9189
 20
-369.1735
 30
0.0
 10
-45.4402
 20
-367.9631
 30
0.0
 10
-45.4402
 20
-367.9631
 30
0.0
 10
-45.4402
 20
-367.9631
 30
0.0
 10
-54.0433
 20
-590.0266
 30
0.0
 10
-54.0433
 20
-590.0266
 30
0.0
  0
SPLINE
  5
91
330
1F
100
AcDbEntity
  8
Layer 1
 62
   250
370
     9
100
AcDbSpline
210
0.0
220
0.0
230
1.0
 70
    11
 71
     3
 72
    17
 73
    13
 74
     0
 42
0.0000000001
 43
0.0000000001
 40
0.0
 40
0.0
 40
0.0
 40
0.0
 40
0.25
 40
0.25
 40
0.25
 40
0.5
 40
0.5
 40
0.5
 40
0.75
 40
0.75
 40
0.75
 40
1.0
 40
1.0
 40
1.0
 40
1.0
 10
103.6103
 20
-590.0266
 30
0.0
 10
103.6103
 20
-590.0266
 30
0.0
 10
-30.2573
 20
-590.0266
 30
0.0
 10
-30.2573
 20
-590.0266
 30
0.0
 10
-30.2573
 20
-590.0266
 30
0.0
 10
-16.0588
 20
-223.5287
 30
0.0
 10
-16.0588
 20
-223.5287
 30
0.0
 10
-16.0588
 20
-223.5287
 30
0.0
 10
129.371
 20
-509.6448
 30
0.0
 10
129.371
 20
-509.6448
 30
0.0
 10
129.371
 20
-509.6448
 30
0.0
 10
103.6103
 20
-590.0266
 30
0.0
 10
103.6103
 20
-590.0266
 30
0.0
  0
SPLINE
  5
92
330
1F
100
AcDbEntity
  8
Layer 1
 62
   250
370
     9
100
AcDbSpline
210
0.0
220
0.0
230
1.0
 70
    11
 71
     3
 72
    17
 73
    13
 74
     0
 42
0.0000000001
 43
0.0000000001
 40
0.0
 40
0.0
 40
0.0
 40
0.0
 40
0.25
 40
0.25
 40
0.25
 40
0.5
 40
0.5
 40
0.5
 40
0.75
 40
0.75
 40
0.75
 40
1.0
 40
1.0
 40
1.0
 40
1.0
 10
352.5067
 20
-590.0266
 30
0.0
 10
352.5067
 20
-590.0266
 30
0.0
 10
134.6302
 20
-590.0266
 30
0.0
 10
134.6302
 20
-590.0266
 30
0.0
 10
134.6302
 20
-590.0266
 30
0.0
 10
211.9851
 20
-348.6528
 30
0.0
 10
211.9851
 20
-348.6528
 30
0.0
 10
211.9851
 20
-348.6528
 30
0.0
 10
327.6165
 20
-443.0164
 30
0.0
 10
327.6165
 20
-443.0164
 30
0.0
 10
327.6165
 20
-443.0164
 30
0.0
 10
352.5067
 20
-590.0266
 30
0.0
 10
352.5067
 20
-590.0266
 30
0.0
  0
SPLINE
  5
93
330
1F
100
AcDbEntity
  8
Layer 1
 62
   250
370
     9
100
AcDbSpline
210
0.0
220
0.0
230
1.0
 70
    11
 71
     3
 72
    14
 73
    10
 74
     0
 42
0.0000000001
 43
0.0000000001
 40
0.0
 40
0.0
 40
0.0
 40
0.0
 40
0.3333333333333333
 40
0.3333333333333333
 40
0.3333333333333333
 40
0.6666666666666666
 40
0.6666666666666666
 40
0.6666666666666666
 40
1.0
 40
1.0
 40
1.0
 40
1.0
 10
648.5794
 20
-590.0266
 30
0.0
 10
648.5794
 20
-590.0266
 30
0.0
 10
434.3995
 20
-590.0266
 30
0.0
 10
434.3995
 20
-590.0266
 30
0.0
 10
434.3995
 20
-590.0266
 30
0.0
 10
652.3941
 20
-365.4691
 30
0.0
 10
652.3941
 20
-365.4691
 30
0.0
 10
652.3941
 20
-365.4691
 30
0.0
 10
648.5794
 20
-590.0266
 30
0.0
 10
648.5794
 20
-590.0266
 30
0.0
  0
SPLINE
  5
94
330
1F
100
AcDbEntity
  8
Layer 1
 62
   250
370
     9
100
AcDbSpline
210
0.0
220
0.0
230
1.0
 70
    11
 71
     3
 72
    17
 73
    13
 74
     0
 42
0.0000000001
 43
0.0000000001
 40
0.0
 40
0.0
 40
0.0
 40
0.0
 40
0.25
 40
0.25
 40
0.25
 40
0.5
 40
0.5
 40
0.5
 40
0.75
 40
0.75
 40
0.75
 40
1.0
 40
1.0
 40
1.0
 40
1.0
 10
878.4941
 20
-590.0266
 30
0.0
 10
878.4941
 20
-590.0266
 30
0.0
 10
672.2415
 20
-590.0266
 30
0.0
 10
672.2415
 20
-590.0266
 30
0.0
 10
672.2415
 20
-590.0266
 30
0.0
 10
673.6604
 20
-506.4898
 30
0.0
 10
673.6604
 20
-506.4898
 30
0.0
 10
673.6604
 20
-506.4898
 30
0.0
 10
786.8014
 20
-302.4692
 30
0.0
 10
786.8014
 20
-302.4692
 30
0.0
 10
786.8014
 20
-302.4692
 30
0.0
 10
878.4941
 20
-590.0266
 30
0.0
 10
878.4941
 20
-590.0266
 30
0.0
  0
SPLINE
  5
95
330
1F
100
AcDbEntity
  8
Layer 1
 62
   250
370
     9
100
AcDbSpline
210
0.0
220
0.0
230
1.0
 70
    11
 71
     3
 72
    17
 73
    13
 74
     0
 42
0.0000000001
 43
0.0000000001
 40
0.0
 40
0.0
 40
0.0
 40
0.0
 40
0.25
 40
0.25
 40
0.25
 40
0.5
 40
0.5
 40
0.5
 40
0.75
 40
0.75
 40
0.75
 40
1.0
 40
1.0
 40
1.0
 40
1.0
 10
1055.7054
 20
-590.0266
 30
0.0
 10
1055.7054
 20
-590.0266
 30
0.0
 10
909.405
 20
-590.0266
 30
0.0
 10
909.405
 20
-590.0266
 30
0.0
 10
909.405
 20
-590.0266
 30
0.0
 10
878.1597
 20
-492.0385
 30
0.0
 10
878.1597
 20
-492.0385
 30
0.0
 10
878.1597
 20
-492.0385
 30
0.0
 10
925.346
 20
-372.3913
 30
0.0
 10
925.346
 20
-372.3913
 30
0.0
 10
925.346
 20
-372.3913
 30
0.0
 10
1055.7054
 20
-590.0266
 30
0.0
 10
1055.7054
 20
-590.0266
 30
0.0
  0
SPLINE
  5
96
330
1F
100
AcDbEntity
  8
Layer 1
 62
   250
370
     9
100
AcDbSpline
210
0.0
220
0.0
230
1.0
 70
    11
 71
     3
 72
    17
 73
    13
 74
     0
 42
0.0000000001
 43
0.0000000001
 40
0.0
 40
0.0
 40
0.0
 40
0.0
 40
0.25
 40
0.25
 40
0.25
 40
0.5
 40
0.5
 40
0.5
 40
0.75
 40
0.75
 40
0.75
 40
1.0
 40
1.0
 40
1.0
 40
1.0
 10
1199.95
 20
-312.6053
 30
0.0
 10
1199.95
 20
-312.6053
 30
0.0
 10
1199.95
 20
-590.0266
 30
0.0
 10
1199.95
 20
-590.0266
 30
0.0
 10
1199.95
 20
-590.0266
 30
0.0
 10
1099.8899
 20
-590.0266
 30
0.0
 10
1099.8899
 20
-590.0266
 30
0.0
 10
1099.8899
 20
-590.0266
 30
0.0
 10
1051.0791
 20
-508.8875
 30
0.0
 10
1051.0791
 20
-508.8875
 30
0.0
 10
1051.0791
 20
-508.8875
 30
0.0
 10
1199.95
 20
-312.6053
 30
0.0
 10
1199.95
 20
-312.6053
 30
0.0
  0
SPLINE
  5
97
330
1F
100
AcDbEntity
  8
Layer 1
 62
   250
370
     9
100
AcDbSpline
210
0.0
220
0.0
230
1.0
 70
    11
 71
     3
 72
    17
 73
    13
 74
     0
 42
0.0000000001
 43
0.0000000001
 40
0.0
 40
0.0
 40
0.0
 40
0.0
 40
0.25
 40
0.25
 40
0.25
 40
0.5
 40
0.5
 40
0.5
 40
0.75
 40
0.75
 40
0.75
 40
1.0
 40
1.0
 40
1.0
 40
1.0
 10
1199.95
 20
45.8401
 30
0.0
 10
1199.95
 20
45.8401
 30
0.0
 10
1199.95
 20
-242.7777
 30
0.0
 10
1199.95
 20
-242.7777
 30
0.0
 10
1199.95
 20
-242.7777
 30
0.0
 10
1108.243
 20
-363.6912
 30
0.0
 10
1108.243
 20
-363.6912
 30
0.0
 10
1108.243
 20
-363.6912
 30
0.0
 10
1074.0407
 20
-236.9913
 30
0.0
 10
1074.0407
 20
-236.9913
 30
0.0
 10
1074.0407
 20
-236.9913
 30
0.0
 10
1199.95
 20
45.8401
 30
0.0
 10
1199.95
 20
45.8401
 30
0.0
  0
SPLINE
  5
98
330
1F
100
AcDbEntity
  8
Layer 1
 62
   250
370
     9
100
AcDbSpline
210
0.0
220
0.0
230
1.0
 70
    11
 71
     3
 72
    20
 73
    16
 74
     0
 42
0.0000000001
 43
0.0000000001
 40
0.0
 40
0.0
 40
0.0
 40
0.0
 40
0.2
 40
0.2
 40
0.2
 40
0.4
 40
0.4
 40
0.4
 40
0.6000000000000001
 40
0.6000000000000001
 40
0.6000000000000001
 40
0.8
 40
0.8
 40
0.8
 40
1.0
 40
1.0
 40
1.0
 40
1.0
 10
1175.5982
 20
589.9734
 30
0.0
 10
1175.5982
 20
589.9734
 30
0.0
 10
1199.95
 20
589.9734
 30
0.0
 10
1199.95
 20
589.9734
 30
0.0
 10
1199.95
 20
589.9734
 30
0.0
 10
1199.95
 20
127.8449
 30
0.0
 10
1199.95
 20
127.8449
 30
0.0
 10
1199.95
 20
127.8449
 30
0.0
 10
1121.8655
 20
-47.5573
 30
0.0
 10
1121.8655
 20
-47.5573
 30
0.0
 10
1121.8655
 20
-47.5573
 30
0.0
 10
1094.2799
 20
422.8334
 30
0.0
 10
1094.2799
 20
422.8334
 30
0.0
 10
1094.2799
 20
422.8334
 30
0.0
 10
1175.5982
 20
589.9734
 30
0.0
 10
1175.5982
 20
589.9734
 30
0.0
  0
SPLINE
  5
99
330
1F
100
AcDbEntity
  8
Layer 1
 62
   250
370
     9
100
AcDbSpline
210
0.0
220
0.0
230
1.0
 70
    11
 71
     3
 72
    14
 73
    10
 74
     0
 42
0.0000000001
 43
0.0000000001
 40
0.0
 40
0.0
 40
0.0
 40
0.0
 40
0.3333333333333333
 40
0.3333333333333333
 40
0.3333333333333333
 40
0.6666666666666666
 40
0.6666666666666666
 40
0.6666666666666666
 40
1.0
 40
1.0
 40
1.0
 40
1.0
 10
929.0587
 20
589.9734
 30
0.0
 10
929.0587
 20
589.9734
 30
0.0
 10
1137.0969
 20
589.9734
 30
0.0
 10
1137.0969
 20
589.9734
 30
0.0
 10
1137.0969
 20
589.9734
 30
0.0
 10
989.5145
 20
286.6337
 30
0.0
 10
989.5145
 20
286.6337
 30
0.0
 10
989.5145
 20
286.6337
 30
0.0
 10
929.0587
 20
589.9734
 30
0.0
 10
929.0587
 20
589.9734
 30
0.0
  0
SPLINE
  5
9A
330
1F
100
AcDbEntity
  8
Layer 1
 62
   250
370
     9
100
AcDbSpline
210
0.0
220
0.0
230
1.0
 70
    11
 71
     3
 72
    17
 73
    13
 74
     0
 42
0.0000000001
 43
0.0000000001
 40
0.0
 40
0.0
 40
0.0
 40
0.0
 40
0.25
 40
0.25
 40
0.25
 40
0.5
 40
0.5
 40
0.5
 40
0.75
 40
0.75
 40
0.75
 40
1.0
 40
1.0
 40
1.0
 40
1.0
 10
785.8508
 20
589.9734
 30
0.0
 10
785.8508
 20
589.9734
 30
0.0
 10
902.3488
 20
589.9734
 30
0.0
 10
902.3488
 20
589.9734
 30
0.0
 10
902.3488
 20
589.9734
 30
0.0
 10
938.1465
 20
410.3568
 30
0.0
 10
938.1465
 20
410.3568
 30
0.0
 10
938.1465
 20
410.3568
 30
0.0
 10
791.9833
 20
284.6554
 30
0.0
 10
791.9833
 20
284.6554
 30
0.0
 10
791.9833
 20
284.6554
 30
0.0
 10
785.8508
 20
589.9734
 30
0.0
 10
785.8508
 20
589.9734
 30
0.0
  0
SPLINE
  5
9B
330
1F
100
AcDbEntity
  8
Layer 1
 62
   250
370
     9
100
AcDbSpline
210
0.0
220
0.0
230
1.0
 70
    11
 71
     3
 72
    17
 73
    13
 74
     0
 42
0.0000000001
 43
0.0000000001
 40
0.0
 40
0.0
 40
0.0
 40
0.0
 40
0.25
 40
0.25
 40
0.25
 40
0.5
 40
0.5
 40
0.5
 40
0.75
 40
0.75
 40
0.75
 40
1.0
 40
1.0
 40
1.0
 40
1.0
 10
682.9439
 20
589.9734
 30
0.0
 10
682.9439
 20
589.9734
 30
0.0
 10
762.1609
 20
589.9734
 30
0.0
 10
762.1609
 20
589.9734
 30
0.0
 10
762.1609
 20
589.9734
 30
0.0
 10
770.156
 20
191.9295
 30
0.0
 10
770.156
 20
191.9295
 30
0.0
 10
770.156
 20
191.9295
 30
0.0
 10
630.8968
 20
458.0012
 30
0.0
 10
630.8968
 20
458.0012
 30
0.0
 10
630.8968
 20
458.0012
 30
0.0
 10
682.9439
 20
589.9734
 30
0.0
 10
682.9439
 20
589.9734
 30
0.0
  0
SPLINE
  5
9C
330
1F
100
AcDbEntity
  8
Layer 1
 62
   250
370
     9
100
AcDbSpline
210
0.0
220
0.0
230
1.0
 70
    11
 71
     3
 72
    14
 73
    10
 74
     0
 42
0.0000000001
 43
0.0000000001
 40
0.0
 40
0.0
 40
0.0
 40
0.0
 40
0.3333333333333333
 40
0.3333333333333333
 40
0.3333333333333333
 40
0.6666666666666666
 40
0.6666666666666666
 40
0.6666666666666666
 40
1.0
 40
1.0
 40
1.0
 40
1.0
 10
486.6748
 20
589.9734
 30
0.0
 10
486.6748
 20
589.9734
 30
0.0
 10
648.7938
 20
589.9734
 30
0.0
 10
648.7938
 20
589.9734
 30
0.0
 10
648.7938
 20
589.9734
 30
0.0
 10
548.9491
 20
336.8043
 30
0.0
 10
548.9491
 20
336.8043
 30
0.0
 10
548.9491
 20
336.8043
 30
0.0
 10
486.6748
 20
589.9734
 30
0.0
 10
486.6748
 20
589.9734
 30
0.0
  0
SPLINE
  5
9D
330
1F
100
AcDbEntity
  8
Layer 1
 62
   250
370
     9
100
AcDbSpline
210
0.0
220
0.0
230
1.0
 70
    11
 71
     3
 72
    17
 73
    13
 74
     0
 42
0.0000000001
 43
0.0000000001
 40
0.0
 40
0.0
 40
0.0
 40
0.0
 40
0.25
 40
0.25
 40
0.25
 40
0.5
 40
0.5
 40
0.5
 40
0.75
 40
0.75
 40
0.75
 40
1.0
 40
1.0
 40
1.0
 40
1.0
 10
353.1098
 20
589.9734
 30
0.0
 10
353.1098
 20
589.9734
 30
0.0
 10
458.484
 20
589.9734
 30
0.0
 10
458.484
 20
589.9734
 30
0.0
 10
458.484
 20
589.9734
 30
0.0
 10
474.3001
 20
525.6743
 30
0.0
 10
474.3001
 20
525.6743
 30
0.0
 10
474.3001
 20
525.6743
 30
0.0
 10
397.087
 20
230.807
 30
0.0
 10
397.087
 20
230.807
 30
0.0
 10
397.087
 20
230.807
 30
0.0
 10
353.1098
 20
589.9734
 30
0.0
 10
353.1098
 20
589.9734
 30
0.0
  0
SPLINE
  5
9E
330
1F
100
AcDbEntity
  8
Layer 1
 62
   250
370
     9
100
AcDbSpline
210
0.0
220
0.0
230
1.0
 70
    11
 71
     3
 72
    17
 73
    13
 74
     0
 42
0.0000000001
 43
0.0000000001
 40
0.0
 40
0.0
 40
0.0
 40
0.0
 40
0.25
 40
0.25
 40
0.25
 40
0.5
 40
0.5
 40
0.5
 40
0.75
 40
0.75
 40
0.75
 40
1.0
 40
1.0
 40
1.0
 40
1.0
 10
192.1183
 20
589.9734
 30
0.0
 10
192.1183
 20
589.9734
 30
0.0
 10
328.2305
 20
589.9734
 30
0.0
 10
328.2305
 20
589.9734
 30
0.0
 10
328.2305
 20
589.9734
 30
0.0
 10
336.3979
 20
523.27
 30
0.0
 10
336.3979
 20
523.27
 30
0.0
 10
336.3979
 20
523.27
 30
0.0
 10
232.1731
 20
262.842
 30
0.0
 10
232.1731
 20
262.842
 30
0.0
 10
232.1731
 20
262.842
 30
0.0
 10
192.1183
 20
589.9734
 30
0.0
 10
192.1183
 20
589.9734
 30
0.0
  0
SPLINE
  5
9F
330
1F
100
AcDbEntity
  8
Layer 1
 62
   250
370
     9
100
AcDbSpline
210
0.0
220
0.0
230
1.0
 70
    11
 71
     3
 72
    17
 73
    13
 74
     0
 42
0.0000000001
 43
0.0000000001
 40
0.0
 40
0.0
 40
0.0
 40
0.0
 40
0.25
 40
0.25
 40
0.25
 40
0.5
 40
0.5
 40
0.5
 40
0.75
 40
0.75
 40
0.75
 40
1.0
 40
1.0
 40
1.0
 40
1.0
 10
-36.0742
 20
589.9734
 30
0.0
 10
-36.0742
 20
589.9734
 30
0.0
 10
167.2392
 20
589.9734
 30
0.0
 10
167.2392
 20
589.9734
 30
0.0
 10
167.2392
 20
589.9734
 30
0.0
 10
175.0743
 20
525.9823
 30
0.0
 10
175.0743
 20
525.9823
 30
0.0
 10
175.0743
 20
525.9823
 30
0.0
 10
-2.066
 20
312.2261
 30
0.0
 10
-2.066
 20
312.2261
 30
0.0
 10
-2.066
 20
312.2261
 30
0.0
 10
-36.0742
 20
589.9734
 30
0.0
 10
-36.0742
 20
589.9734
 30
0.0
  0
SPLINE
  5
A0
330
1F
100
AcDbEntity
  8
Layer 1
 62
   250
370
     9
100
AcDbSpline
210
0.0
220
0.0
230
1.0
 70
    11
 71
     3
 72
    17
 73
    13
 74
     0
 42
0.0000000001
 43
0.0000000001
 40
0.0
 40
0.0
 40
0.0
 40
0.0
 40
0.25
 40
0.25
 40
0.25
 40
0.5
 40
0.5
 40
0.5
 40
0.75
 40
0.75
 40
0.75
 40
1.0
 40
1.0
 40
1.0
 40
1.0
 10
-166.018
 20
589.9734
 30
0.0
 10
-166.018
 20
589.9734
 30
0.0
 10
-60.9534
 20
589.9734
 30
0.0
 10
-60.9534
 20
589.9734
 30
0.0
 10
-60.9534
 20
589.9734
 30
0.0
 10
-43.488
 20
447.3317
 30
0.0
 10
-43.488
 20
447.3317
 30
0.0
 10
-43.488
 20
447.3317
 30
0.0
 10
-183.8917
 20
293.0871
 30
0.0
 10
-183.8917
 20
293.0871
 30
0.0
 10
-183.8917
 20
293.0871
 30
0.0
 10
-166.018
 20
589.9734
 30
0.0
 10
-166.018
 20
589.9734
 30
0.0
  0
SPLINE
  5
A1
330
1F
100
AcDbEntity
  8
Layer 1
 62
   250
370
     9
100
AcDbSpline
210
0.0
220
0.0
230
1.0
 70
    11
 71
     3
 72
    17
 73
    13
 74
     0
 42
0.0000000001
 43
0.0000000001
 40
0.0
 40
0.0
 40
0.0
 40
0.0
 40
0.25
 40
0.25
 40
0.25
 40
0.5
 40
0.5
 40
0.5
 40
0.75
 40
0.75
 40
0.75
 40
1.0
 40
1.0
 40
1.0
 40
1.0
 10
-237.9761
 20
589.9734
 30
0.0
 10
-237.9761
 20
589.9734
 30
0.0
 10
-189.9864
 20
589.9734
 30
0.0
 10
-189.9864
 20
589.9734
 30
0.0
 10
-189.9864
 20
589.9734
 30
0.0
 10
-218.7241
 20
112.6179
 30
0.0
 10
-218.7241
 20
112.6179
 30
0.0
 10
-218.7241
 20
112.6179
 30
0.0
 10
-297.3839
 20
354.8006
 30
0.0
 10
-297.3839
 20
354.8006
 30
0.0
 10
-297.3839
 20
354.8006
 30
0.0
 10
-237.9761
 20
589.9734
 30
0.0
 10
-237.9761
 20
589.9734
 30
0.0
  0
SPLINE
  5
A2
330
1F
100
AcDbEntity
  8
Layer 1
 62
   250
370
     9
100
AcDbSpline
210
0.0
220
0.0
230
1.0
 70
    11
 71
     3
 72
    29
 73
    25
 74
     0
 42
0.0000000001
 43
0.0000000001
 40
0.0
 40
0.0
 40
0.0
 40
0.0
 40
0.125
 40
0.125
 40
0.125
 40
0.25
 40
0.25
 40
0.25
 40
0.375
 40
0.375
 40
0.375
 40
0.5
 40
0.5
 40
0.5
 40
0.625
 40
0.625
 40
0.625
 40
0.75
 40
0.75
 40
0.75
 40
0.875
 40
0.875
 40
0.875
 40
1.0
 40
1.0
 40
1.0
 40
1.0
 10
-338.6274
 20
589.9734
 30
0.0
 10
-338.6274
 20
589.9734
 30
0.0
 10
-266.3963
 20
589.9734
 30
0.0
 10
-266.3963
 20
589.9734
 30
0.0
 10
-266.3963
 20
589.9734
 30
0.0
 10
-327.1206
 20
349.5893
 30
0.0
 10
-327.1206
 20
349.5893
 30
0.0
 10
-327.1206
 20
349.5893
 30
0.0
 10
-326.2988
 20
347.9657
 30
0.0
 10
-326.2988
 20
347.9657
 30
0.0
 10
-326.2988
 20
347.9657
 30
0.0
 10
-326.3334
 20
347.8871
 30
0.0
 10
-326.3334
 20
347.8871
 30
0.0
 10
-326.3334
 20
347.8871
 30
0.0
 10
-281.2037
 20
208.9399
 30
0.0
 10
-281.2037
 20
208.9399
 30
0.0
 10
-281.2037
 20
208.9399
 30
0.0
 10
-389.896
 20
-42.4929
 30
0.0
 10
-389.896
 20
-42.4929
 30
0.0
 10
-389.896
 20
-42.4929
 30
0.0
 10
-417.4817
 20
427.8981
 30
0.0
 10
-417.4817
 20
427.8981
 30
0.0
 10
-417.4817
 20
427.8981
 30
0.0
 10
-338.6274
 20
589.9734
 30
0.0
 10
-338.6274
 20
589.9734
 30
0.0
  0
SPLINE
  5
A3
330
1F
100
AcDbEntity
  8
Layer 1
 62
   250
370
     9
100
AcDbSpline
210
0.0
220
0.0
230
1.0
 70
    11
 71
     3
 72
    14
 73
    10
 74
     0
 42
0.0000000001
 43
0.0000000001
 40
0.0
 40
0.0
 40
0.0
 40
0.0
 40
0.3333333333333333
 40
0.3333333333333333
 40
0.3333333333333333
 40
0.6666666666666666
 40
0.6666666666666666
 40
0.6666666666666666
 40
1.0
 40
1.0
 40
1.0
 40
1.0
 10
-581.6936
 20
589.9734
 30
0.0
 10
-581.6936
 20
589.9734
 30
0.0
 10
-377.1288
 20
589.9734
 30
0.0
 10
-377.1288
 20
589.9734
 30
0.0
 10
-377.1288
 20
589.9734
 30
0.0
 10
-522.247
 20
291.6982
 30
0.0
 10
-522.247
 20
291.6982
 30
0.0
 10
-522.247
 20
291.6982
 30
0.0
 10
-581.6936
 20
589.9734
 30
0.0
 10
-581.6936
 20
589.9734
 30
0.0
  0
SPLINE
  5
A4
330
1F
100
AcDbEntity
  8
Layer 1
 62
   250
370
     9
100
AcDbSpline
210
0.0
220
0.0
230
1.0
 70
    11
 71
     3
 72
    17
 73
    13
 74
     0
 42
0.0000000001
 43
0.0000000001
 40
0.0
 40
0.0
 40
0.0
 40
0.0
 40
0.25
 40
0.25
 40
0.25
 40
0.5
 40
0.5
 40
0.5
 40
0.75
 40
0.75
 40
0.75
 40
1.0
 40
1.0
 40
1.0
 40
1.0
 10
-725.8091
 20
589.9734
 30
0.0
 10
-725.8091
 20
589.9734
 30
0.0
 10
-608.4034
 20
589.9734
 30
0.0
 10
-608.4034
 20
589.9734
 30
0.0
 10
-608.4034
 20
589.9734
 30
0.0
 10
-573.6151
 20
415.4212
 30
0.0
 10
-573.6151
 20
415.4212
 30
0.0
 10
-573.6151
 20
415.4212
 30
0.0
 10
-719.7782
 20
289.7199
 30
0.0
 10
-719.7782
 20
289.7199
 30
0.0
 10
-719.7782
 20
289.7199
 30
0.0
 10
-725.8091
 20
589.9734
 30
0.0
 10
-725.8091
 20
589.9734
 30
0.0
  0
SPLINE
  5
A5
330
1F
100
AcDbEntity
  8
Layer 1
 62
   250
370
     9
100
AcDbSpline
210
0.0
220
0.0
230
1.0
 70
    11
 71
     3
 72
    17
 73
    13
 74
     0
 42
0.0000000001
 43
0.0000000001
 40
0.0
 40
0.0
 40
0.0
 40
0.0
 40
0.25
 40
0.25
 40
0.25
 40
0.5
 40
0.5
 40
0.5
 40
0.75
 40
0.75
 40
0.75
 40
1.0
 40
1.0
 40
1.0
 40
1.0
 10
-830.8151
 20
589.9734
 30
0.0
 10
-830.8151
 20
589.9734
 30
0.0
 10
-749.499
 20
589.9734
 30
0.0
 10
-749.499
 20
589.9734
 30
0.0
 10
-749.499
 20
589.9734
 30
0.0
 10
-741.6056
 20
196.9942
 30
0.0
 10
-741.6056
 20
196.9942
 30
0.0
 10
-741.6056
 20
196.9942
 30
0.0
 10
-880.8647
 20
463.0659
 30
0.0
 10
-880.8647
 20
463.0659
 30
0.0
 10
-880.8647
 20
463.0659
 30
0.0
 10
-830.8151
 20
589.9734
 30
0.0
 10
-830.8151
 20
589.9734
 30
0.0
  0
SPLINE
  5
A6
330
1F
100
AcDbEntity
  8
Layer 1
 62
   250
370
     9
100
AcDbSpline
210
0.0
220
0.0
230
1.0
 70
    11
 71
     3
 72
    14
 73
    10
 74
     0
 42
0.0000000001
 43
0.0000000001
 40
0.0
 40
0.0
 40
0.0
 40
0.0
 40
0.3333333333333333
 40
0.3333333333333333
 40
0.3333333333333333
 40
0.6666666666666666
 40
0.6666666666666666
 40
0.6666666666666666
 40
1.0
 40
1.0
 40
1.0
 40
1.0
 10
-1023.8411
 20
589.9734
 30
0.0
 10
-1023.8411
 20
589.9734
 30
0.0
 10
-864.9652
 20
589.9734
 30
0.0
 10
-864.9652
 20
589.9734
 30
0.0
 10
-864.9652
 20
589.9734
 30
0.0
 10
-962.8125
 20
341.869
 30
0.0
 10
-962.8125
 20
341.869
 30
0.0
 10
-962.8125
 20
341.869
 30
0.0
 10
-1023.8411
 20
589.9734
 30
0.0
 10
-1023.8411
 20
589.9734
 30
0.0
  0
SPLINE
  5
A7
330
1F
100
AcDbEntity
  8
Layer 1
 62
   250
370
     9
100
AcDbSpline
210
0.0
220
0.0
230
1.0
 70
    11
 71
     3
 72
    17
 73
    13
 74
     0
 42
0.0000000001
 43
0.0000000001
 40
0.0
 40
0.0
 40
0.0
 40
0.0
 40
0.25
 40
0.25
 40
0.25
 40
0.5
 40
0.5
 40
0.5
 40
0.75
 40
0.75
 40
0.75
 40
1.0
 40
1.0
 40
1.0
 40
1.0
 10
-1158.0316
 20
589.9734
 30
0.0
 10
-1158.0316
 20
589.9734
 30
0.0
 10
-1052.0319
 20
589.9734
 30
0.0
 10
-1052.0319
 20
589.9734
 30
0.0
 10
-1052.0319
 20
589.9734
 30
0.0
 10
-1037.4615
 20
530.7388
 30
0.0
 10
-1037.4615
 20
530.7388
 30
0.0
 10
-1037.4615
 20
530.7388
 30
0.0
 10
-1114.6745
 20
235.8716
 30
0.0
 10
-1114.6745
 20
235.8716
 30
0.0
 10
-1114.6745
 20
235.8716
 30
0.0
 10
-1158.0316
 20
589.9734
 30
0.0
 10
-1158.0316
 20
589.9734
 30
0.0
  0
SPLINE
  5
A8
330
1F
100
AcDbEntity
  8
Layer 1
 62
   250
370
     9
100
AcDbSpline
210
0.0
220
0.0
230
1.0
 70
    11
 71
     3
 72
    17
 73
    13
 74
     0
 42
0.0000000001
 43
0.0000000001
 40
0.0
 40
0.0
 40
0.0
 40
0.0
 40
0.25
 40
0.25
 40
0.25
 40
0.5
 40
0.5
 40
0.5
 40
0.75
 40
0.75
 40
0.75
 40
1.0
 40
1.0
 40
1.0
 40
1.0
 10
-1200.05
 20
466.6508
 30
0.0
 10
-1200.05
 20
466.6508
 30
0.0
 10
-1200.05
 20
589.9734
 30
0.0
 10
-1200.05
 20
589.9734
 30
0.0
 10
-1200.05
 20
589.9734
 30
0.0
 10
-1182.9109
 20
589.9734
 30
0.0
 10
-1182.9109
 20
589.9734
 30
0.0
 10
-1182.9109
 20
589.9734
 30
0.0
 10
-1175.3637
 20
528.3345
 30
0.0
 10
-1175.3637
 20
528.3345
 30
0.0
 10
-1175.3637
 20
528.3345
 30
0.0
 10
-1200.05
 20
466.6508
 30
0.0
 10
-1200.05
 20
466.6508
 30
0.0
  0
SPLINE
  5
A9
330
1F
100
AcDbEntity
  8
Layer 1
 62
   250
370
     9
100
AcDbSpline
210
0.0
220
0.0
230
1.0
 70
    11
 71
     3
 72
    20
 73
    16
 74
     0
 42
0.0000000001
 43
0.0000000001
 40
0.0
 40
0.0
 40
0.0
 40
0.0
 40
0.2
 40
0.2
 40
0.2
 40
0.4
 40
0.4
 40
0.4
 40
0.6000000000000001
 40
0.6000000000000001
 40
0.6000000000000001
 40
0.8
 40
0.8
 40
0.8
 40
1.0
 40
1.0
 40
1.0
 40
1.0
 10
-1200.05
 20
210.6942
 30
0.0
 10
-1200.05
 20
210.6942
 30
0.0
 10
-1200.05
 20
380.6315
 30
0.0
 10
-1200.05
 20
380.6315
 30
0.0
 10
-1200.05
 20
380.6315
 30
0.0
 10
-1167.2988
 20
462.4676
 30
0.0
 10
-1167.2988
 20
462.4676
 30
0.0
 10
-1167.2988
 20
462.4676
 30
0.0
 10
-1131.627
 20
171.1323
 30
0.0
 10
-1131.627
 20
171.1323
 30
0.0
 10
-1131.627
 20
171.1323
 30
0.0
 10
-1161.3465
 20
57.6371
 30
0.0
 10
-1161.3465
 20
57.6371
 30
0.0
 10
-1161.3465
 20
57.6371
 30
0.0
 10
-1200.05
 20
210.6942
 30
0.0
 10
-1200.05
 20
210.6942
 30
0.0
  0
SPLINE
  5
AA
330
1F
100
AcDbEntity
  8
Layer 1
 62
   250
370
     9
100
AcDbSpline
210
0.0
220
0.0
230
1.0
 70
    11
 71
     3
 72
    20
 73
    16
 74
     0
 42
0.0000000001
 43
0.0000000001
 40
0.0
 40
0.0
 40
0.0
 40
0.0
 40
0.2
 40
0.2
 40
0.2
 40
0.4
 40
0.4
 40
0.4
 40
0.6000000000000001
 40
0.6000000000000001
 40
0.6000000000000001
 40
0.8
 40
0.8
 40
0.8
 40
1.0
 40
1.0
 40
1.0
 40
1.0
 10
-1200.05
 20
-190.8973
 30
0.0
 10
-1200.05
 20
-190.8973
 30
0.0
 10
-1200.05
 20
66.9215
 30
0.0
 10
-1200.05
 20
66.9215
 30
0.0
 10
-1200.05
 20
66.9215
 30
0.0
 10
-1194.9563
 20
78.0806
 30
0.0
 10
-1194.9563
 20
78.0806
 30
0.0
 10
-1194.9563
 20
78.0806
 30
0.0
 10
-1120.4295
 20
-216.6434
 30
0.0
 10
-1120.4295
 20
-216.6434
 30
0.0
 10
-1120.4295
 20
-216.6434
 30
0.0
 10
-1187.6246
 20
-264.2867
 30
0.0
 10
-1187.6246
 20
-264.2867
 30
0.0
 10
-1187.6246
 20
-264.2867
 30
0.0
 10
-1200.05
 20
-190.8973
 30
0.0
 10
-1200.05
 20
-190.8973
 30
0.0
  0
SPLINE
  5
AB
330
1F
100
AcDbEntity
  8
Layer 1
 62
   250
370
     9
100
AcDbSpline
210
0.0
220
0.0
230
1.0
 70
    11
 71
     3
 72
    14
 73
    10
 74
     0
 42
0.0000000001
 43
0.0000000001
 40
0.0
 40
0.0
 40
0.0
 40
0.0
 40
0.3333333333333333
 40
0.3333333333333333
 40
0.3333333333333333
 40
0.6666666666666666
 40
0.6666666666666666
 40
0.6666666666666666
 40
1.0
 40
1.0
 40
1.0
 40
1.0
 10
-1200.05
 20
-359.5264
 30
0.0
 10
-1200.05
 20
-359.5264
 30
0.0
 10
-1200.05
 20
-344.0112
 30
0.0
 10
-1200.05
 20
-344.0112
 30
0.0
 10
-1200.05
 20
-344.0112
 30
0.0
 10
-1197.0021
 20
-362.0137
 30
0.0
 10
-1197.0021
 20
-362.0137
 30
0.0
 10
-1197.0021
 20
-362.0137
 30
0.0
 10
-1200.05
 20
-359.5264
 30
0.0
 10
-1200.05
 20
-359.5264
 30
0.0
  0
SPLINE
  5
AC
330
1F
100
AcDbEntity
  8
Layer 1
 62
   250
370
     9
100
AcDbSpline
210
0.0
220
0.0
230
1.0
 70
    11
 71
     3
 72
    17
 73
    13
 74
     0
 42
0.0000000001
 43
0.0000000001
 40
0.0
 40
0.0
 40
0.0
 40
0.0
 40
0.25
 40
0.25
 40
0.25
 40
0.5
 40
0.5
 40
0.5
 40
0.75
 40
0.75
 40
0.75
 40
1.0
 40
1.0
 40
1.0
 40
1.0
 10
-1200.05
 20
-590.0266
 30
0.0
 10
-1200.05
 20
-590.0266
 30
0.0
 10
-1200.05
 20
-424.972
 30
0.0
 10
-1200.05
 20
-424.972
 30
0.0
 10
-1200.05
 20
-424.972
 30
0.0
 10
-1184.145
 20
-437.9519
 30
0.0
 10
-1184.145
 20
-437.9519
 30
0.0
 10
-1184.145
 20
-437.9519
 30
0.0
 10
-1158.3974
 20
-590.0266
 30
0.0
 10
-1158.3974
 20
-590.0266
 30
0.0
 10
-1158.3974
 20
-590.0266
 30
0.0
 10
-1200.05
 20
-590.0266
 30
0.0
 10
-1200.05
 20
-590.0266
 30
0.0
  0
ENDSEC
  0
SECTION
  2
OBJECTS
  0
DICTIONARY
  5
C
330
0
100
AcDbDictionary
281
     1
  3
ACAD_DETAILVIEWSTYLE
350
B4
  3
ACAD_GROUP
350
D
  3
ACAD_LAYOUT
350
1A
  3
ACAD_MATERIAL
350
43
  3
ACAD_MLEADERSTYLE
350
5B
  3
ACAD_MLINESTYLE
350
17
  3
ACAD_PLOTSETTINGS
350
19
  3
ACAD_PLOTSTYLENAME
350
E
  3
ACAD_SCALELIST
350
47
  3
ACAD_SECTIONVIEWSTYLE
350
B5
  3
ACAD_TABLESTYLE
350
59
  3
ACAD_VISUALSTYLE
350
2A
  3
ACDB_RECOMPOSE_DATA
350
B1
  3
AcDbVariableDictionary
350
AD
  0
SUN
  5
5D
330
29
100
AcDbSun
 90
        1
290
     0
 63
     7
421
 16777215
 40
1.0
291
     1
 91
  2455826
 92
 54000000
292
     0
 70
     2
 71
   256
280
     1
  0
DICTIONARY
  5
B4
102
{ACAD_REACTORS
330
C
102
}
330
C
100
AcDbDictionary
281
     1
  0
DICTIONARY
  5
D
102
{ACAD_REACTORS
330
C
102
}
330
C
100
AcDbDictionary
281
     1
  0
DICTIONARY
  5
1A
102
{ACAD_REACTORS
330
C
102
}
330
C
100
AcDbDictionary
281
     1
  3
Layout1
350
1E
  3
Layout2
350
26
  3
Model
350
22
  0
DICTIONARY
  5
43
102
{ACAD_REACTORS
330
C
102
}
330
C
100
AcDbDictionary
281
     1
  3
ByBlock
350
45
  3
ByLayer
350
44
  3
Global
350
46
  0
DICTIONARY
  5
5B
102
{ACAD_REACTORS
330
C
102
}
330
C
100
AcDbDictionary
281
     1
  3
Standard
350
5C
  0
DICTIONARY
  5
17
102
{ACAD_REACTORS
330
C
102
}
330
C
100
AcDbDictionary
281
     1
  3
Standard
350
18
  0
DICTIONARY
  5
19
102
{ACAD_REACTORS
330
C
102
}
330
C
100
AcDbDictionary
281
     1
  0
ACDBDICTIONARYWDFLT
  5
E
102
{ACAD_REACTORS
330
C
102
}
330
C
100
AcDbDictionary
281
     1
  3
Normal
350
F
100
AcDbDictionaryWithDefault
340
F
  0
DICTIONARY
  5
47
102
{ACAD_REACTORS
330
C
102
}
330
C
100
AcDbDictionary
281
     1
  3
A0
350
48
  3
A1
350
49
  3
A2
350
4A
  3
A3
350
4B
  3
A4
350
4C
  3
A5
350
4D
  3
A6
350
4E
  3
A7
350
4F
  3
A8
350
50
  3
A9
350
51
  3
B1
350
52
  3
B2
350
53
  3
B3
350
54
  3
B4
350
55
  3
B5
350
56
  3
B6
350
57
  3
B7
350
58
  0
DICTIONARY
  5
B5
102
{ACAD_REACTORS
330
C
102
}
330
C
100
AcDbDictionary
281
     1
  0
DICTIONARY
  5
59
102
{ACAD_REACTORS
330
C
102
}
330
C
100
AcDbDictionary
281
     1
  3
Standard
350
5A
  0
DICTIONARY
  5
2A
102
{ACAD_REACTORS
330
C
102
}
330
C
100
AcDbDictionary
281
     1
  3
2dWireframe
350
2F
  3
Basic
350
32
  3
Brighten
350
36
  3
ColorChange
350
3A
  3
Conceptual
350
34
  3
Dim
350
35
  3
EdgeColorOff
350
3D
  3
Facepattern
350
39
  3
Flat
350
2B
  3
FlatWithEdges
350
2C
  3
Gouraud
350
2D
  3
GouraudWithEdges
350
2E
  3
Hidden
350
31
  3
JitterOff
350
3B
  3
Linepattern
350
38
  3
OverhangOff
350
3C
  3
Realistic
350
33
  3
Shaded
350
42
  3
Shaded with edges
350
41
  3
Shades of Gray
350
3E
  3
Sketchy
350
3F
  3
Thicken
350
37
  3
Wireframe
350
30
  3
X-Ray
350
40
  0
XRECORD
  5
B1
102
{ACAD_REACTORS
330
C
102
}
330
C
100
AcDbXrecord
280
     1
 90
        1
330
5A
  0
DICTIONARY
  5
AD
102
{ACAD_REACTORS
330
C
102
}
330
C
100
AcDbDictionary
281
     1
  3
CANNOSCALE
350
AE
  3
CMLEADERSTYLE
350
B3
  3
CTABLESTYLE
350
B2
  0
LAYOUT
  5
1E
102
{ACAD_REACTORS
330
1A
102
}
330
1A
100
AcDbPlotSettings
  1

  2
none_device
  4

  6

 40
0.0
 41
0.0
 42
0.0
 43
0.0
 44
0.0
 45
0.0
 46
0.0
 47
0.0
 48
0.0
 49
0.0
140
0.0
141
0.0
142
1.0
143
1.0
 70
   688
 72
     0
 73
     0
 74
     5
  7

 75
    16
 76
     0
 77
     2
 78
   300
147
1.0
148
0.0
149
0.0
100
AcDbLayout
  1
Layout1
 70
     1
 71
     1
 10
0.0
 20
0.0
 11
12.0
 21
9.0
 12
0.0
 22
0.0
 32
0.0
 14
1.000000000000000E+20
 24
1.000000000000000E+20
 34
1.000000000000000E+20
 15
-1.000000000000000E+20
 25
-1.000000000000000E+20
 35
-1.000000000000000E+20
146
0.0
 13
0.0
 23
0.0
 33
0.0
 16
1.0
 26
0.0
 36
0.0
 17
0.0
 27
1.0
 37
0.0
 76
     0
330
1B
  0
LAYOUT
  5
26
102
{ACAD_REACTORS
330
1A
102
}
330
1A
100
AcDbPlotSettings
  1

  2
none_device
  4

  6

 40
0.0
 41
0.0
 42
0.0
 43
0.0
 44
0.0
 45
0.0
 46
0.0
 47
0.0
 48
0.0
 49
0.0
140
0.0
141
0.0
142
1.0
143
1.0
 70
   688
 72
     0
 73
     0
 74
     5
  7

 75
    16
 76
     0
 77
     2
 78
   300
147
1.0
148
0.0
149
0.0
100
AcDbLayout
  1
Layout2
 70
     1
 71
     2
 10
0.0
 20
0.0
 11
0.0
 21
0.0
 12
0.0
 22
0.0
 32
0.0
 14
0.0
 24
0.0
 34
0.0
 15
0.0
 25
0.0
 35
0.0
146
0.0
 13
0.0
 23
0.0
 33
0.0
 16
1.0
 26
0.0
 36
0.0
 17
0.0
 27
1.0
 37
0.0
 76
     0
330
23
  0
LAYOUT
  5
22
102
{ACAD_REACTORS
330
1A
102
}
330
1A
100
AcDbPlotSettings
  1

  2
none_device
  4
Letter_(8.50_x_11.00_Inches)
  6

 40
6.35
 41
6.35
 42
6.35000508
 43
6.35000508
 44
215.9
 45
279.4
 46
0.0
 47
0.0
 48
0.0
 49
0.0
140
0.0
141
0.0
142
1.0
143
1.0
 70
  1712
 72
     0
 73
     0
 74
     0
  7

 75
     0
 76
     0
 77
     2
 78
   300
147
1.0
148
0.0
149
0.0
100
AcDbLayout
  1
Model
 70
     1
 71
     0
 10
0.0
 20
0.0
 11
12.0
 21
9.0
 12
0.0
 22
0.0
 32
0.0
 14
-1200.0881
 24
-590.0647
 34
0.0
 15
1199.9881
 25
590.0115
 35
0.0
146
0.0
 13
0.0
 23
0.0
 33
0.0
 16
1.0
 26
0.0
 36
0.0
 17
0.0
 27
1.0
 37
0.0
 76
     0
330
1F
331
29
  0
MATERIAL
  5
45
102
{ACAD_REACTORS
330
43
102
}
330
43
100
AcDbMaterial
  1
ByBlock
 72
     1
 94
      127
  0
MATERIAL
  5
44
102
{ACAD_REACTORS
330
43
102
}
330
43
100
AcDbMaterial
  1
ByLayer
 72
     1
 94
      127
  0
MATERIAL
  5
46
102
{ACAD_REACTORS
330
43
102
}
330
43
100
AcDbMaterial
  1
Global
 72
     1
 94
      127
  0
MLEADERSTYLE
  5
5C
102
{ACAD_REACTORS
330
5B
102
}
330
5B
100
AcDbMLeaderStyle
179
     2
170
     2
171
     1
172
     0
 90
        2
 40
0.0
 41
0.0
173
     1
 91
-1056964608
340
14
 92
       -2
290
     1
 42
0.09
291
     1
 43
0.36
  3
Standard
341
0
 44
0.18
300

342
11
174
     1
178
     6
175
     1
176
     0
 93
-1056964608
 45
0.18
292
     0
297
     0
 46
0.18
343
0
 94
-1056964608
 47
1.0
 49
1.0
140
1.0
293
     1
141
0.0
294
     1
177
     0
142
1.0
295
     0
296
     0
143
0.125
271
     0
272
     9
273
     9
298
     0
  0
MLINESTYLE
  5
18
102
{ACAD_REACTORS
330
17
102
}
330
17
100
AcDbMlineStyle
  2
Standard
 70
     0
  3

 62
   256
 51
90.0
 52
90.0
 71
     2
 49
0.5
 62
   256
  6
BYLAYER
 49
-0.5
 62
   256
  6
BYLAYER
  0
ACDBPLACEHOLDER
  5
F
102
{ACAD_REACTORS
330
E
102
}
330
E
  0
SCALE
  5
48
102
{ACAD_REACTORS
330
47
102
}
330
47
100
AcDbScale
 70
     0
300
1:1
140
1.0
141
1.0
290
     1
  0
SCALE
  5
49
102
{ACAD_REACTORS
330
47
102
}
330
47
100
AcDbScale
 70
     0
300
1/128" = 1'-0"
140
0.0078125
141
12.0
290
     0
  0
SCALE
  5
4A
102
{ACAD_REACTORS
330
47
102
}
330
47
100
AcDbScale
 70
     0
300
1/64" = 1'-0"
140
0.015625
141
12.0
290
     0
  0
SCALE
  5
4B
102
{ACAD_REACTORS
330
47
102
}
330
47
100
AcDbScale
 70
     0
300
1/32" = 1'-0"
140
0.03125
141
12.0
290
     0
  0
SCALE
  5
4C
102
{ACAD_REACTORS
330
47
102
}
330
47
100
AcDbScale
 70
     0
300
1/16" = 1'-0"
140
0.0625
141
12.0
290
     0
  0
SCALE
  5
4D
102
{ACAD_REACTORS
330
47
102
}
330
47
100
AcDbScale
 70
     0
300
3/32" = 1'-0"
140
0.09375
141
12.0
290
     0
  0
SCALE
  5
4E
102
{ACAD_REACTORS
330
47
102
}
330
47
100
AcDbScale
 70
     0
300
1/8" = 1'-0"
140
0.125
141
12.0
290
     0
  0
SCALE
  5
4F
102
{ACAD_REACTORS
330
47
102
}
330
47
100
AcDbScale
 70
     0
300
3/16" = 1'-0"
140
0.1875
141
12.0
290
     0
  0
SCALE
  5
50
102
{ACAD_REACTORS
330
47
102
}
330
47
100
AcDbScale
 70
     0
300
1/4" = 1'-0"
140
0.25
141
12.0
290
     0
  0
SCALE
  5
51
102
{ACAD_REACTORS
330
47
102
}
330
47
100
AcDbScale
 70
     0
300
3/8" = 1'-0"
140
0.375
141
12.0
290
     0
  0
SCALE
  5
52
102
{ACAD_REACTORS
330
47
102
}
330
47
100
AcDbScale
 70
     0
300
1/2" = 1'-0"
140
0.5
141
12.0
290
     0
  0
SCALE
  5
53
102
{ACAD_REACTORS
330
47
102
}
330
47
100
AcDbScale
 70
     0
300
3/4" = 1'-0"
140
0.75
141
12.0
290
     0
  0
SCALE
  5
54
102
{ACAD_REACTORS
330
47
102
}
330
47
100
AcDbScale
 70
     0
300
1" = 1'-0"
140
1.0
141
12.0
290
     0
  0
SCALE
  5
55
102
{ACAD_REACTORS
330
47
102
}
330
47
100
AcDbScale
 70
     0
300
1-1/2" = 1'-0"
140
1.5
141
12.0
290
     0
  0
SCALE
  5
56
102
{ACAD_REACTORS
330
47
102
}
330
47
100
AcDbScale
 70
     0
300
3" = 1'-0"
140
3.0
141
12.0
290
     0
  0
SCALE
  5
57
102
{ACAD_REACTORS
330
47
102
}
330
47
100
AcDbScale
 70
     0
300
6" = 1'-0"
140
6.0
141
12.0
290
     0
  0
SCALE
  5
58
102
{ACAD_REACTORS
330
47
102
}
330
47
100
AcDbScale
 70
     0
300
1'-0" = 1'-0"
140
12.0
141
12.0
290
     0
  0
TABLESTYLE
  5
5A
102
{ACAD_REACTORS
330
59
102
}
102
{ACAD_XDICTIONARY
360
AF
102
}
330
59
100
AcDbTableStyle
  3
Standard
 70
     0
 71
     0
 40
0.06
 41
0.06
280
     0
281
     0
  7
Standard
140
0.18
170
     2
 62
     0
 63
   257
283
     0
 90
        4
 91
        0
  1

274
    -2
284
     1
 64
     0
275
    -2
285
     1
 65
     0
276
    -2
286
     1
 66
     0
277
    -2
287
     1
 67
     0
278
    -2
288
     1
 68
     0
279
    -2
289
     1
 69
     0
  7
Standard
140
0.25
170
     5
 62
     0
 63
   257
283
     0
 90
        4
 91
        0
  1

274
    -2
284
     1
 64
     0
275
    -2
285
     1
 65
     0
276
    -2
286
     1
 66
     0
277
    -2
287
     1
 67
     0
278
    -2
288
     1
 68
     0
279
    -2
289
     1
 69
     0
  7
Standard
140
0.18
170
     5
 62
     0
 63
   257
283
     0
 90
        4
 91
        0
  1

274
    -2
284
     1
 64
     0
275
    -2
285
     1
 65
     0
276
    -2
286
     1
 66
     0
277
    -2
287
     1
 67
     0
278
    -2
288
     1
 68
     0
279
    -2
289
     1
 69
     0
  0
VISUALSTYLE
  5
2F
102
{ACAD_REACTORS
330
2A
102
}
330
2A
100
AcDbVisualStyle
  2
2dWireframe
 70
     4
177
     3
291
     0
 70
    58
 90
        0
176
     1
 90
        2
176
     1
 90
        0
176
     1
 90
        0
176
     1
 40
0.6
176
     1
 40
30.0
176
     1
 62
     7
420
 16777215
176
     1
 90
        1
176
     1
 90
        4
176
     1
 62
     7
176
     1
 62
   257
176
     1
 90
        1
176
     1
 90
        1
176
     1
 40
1.0
176
     1
 90
        0
176
     1
 62
   257
176
     1
 40
1.0
176
     1
 90
        1
176
     1
 90
        6
176
     1
 90
        2
176
     1
 62
     7
176
     1
 90
        5
176
     1
 90
        0
176
     1
 90
        0
176
     1
290
     0
176
     1
 90
        1
176
     1
 40
0.0
176
     1
 90
        0
176
     1
290
     1
176
     1
290
     1
176
     1
290
     0
176
     1
290
     0
176
     1
290
     0
176
     1
290
     0
176
     1
290
     0
176
     1
290
     0
176
     1
290
     0
176
     1
 90
       50
176
     1
 40
0.0
176
     1
 40
1.0
176
     1
 90
        0
176
     1
 62
    18
420
        0
176
     1
 90
       50
176
     1
 90
        3
176
     1
 62
     5
420
      255
176
     1
290
     0
176
     1
 90
       50
176
     1
 90
       50
176
     1
 90
       50
176
     1
290
     0
176
     1
 90
       50
176
     1
 62
   256
176
     0
 40
1.0
176
     0
 90
        2
176
     1
  1
strokes_ogs.tif
176
     1
290
     0
176
     1
 40
1.0
176
     1
 40
1.0
176
     1
  0
VISUALSTYLE
  5
32
102
{ACAD_REACTORS
330
2A
102
}
330
2A
100
AcDbVisualStyle
  2
Basic
 70
     7
177
     3
291
     1
 70
    58
 90
        1
176
     1
 90
        0
176
     1
 90
        1
176
     1
 90
        0
176
     1
 40
0.6
176
     1
 40
30.0
176
     1
 62
     7
420
 16777215
176
     1
 90
        0
176
     1
 90
        4
176
     1
 62
     7
176
     1
 62
   257
176
     1
 90
        1
176
     1
 90
        1
176
     1
 40
1.0
176
     1
 90
        8
176
     1
 62
     7
176
     1
 40
1.0
176
     1
 90
        1
176
     1
 90
        6
176
     1
 90
        2
176
     1
 62
     7
176
     1
 90
        5
176
     1
 90
        0
176
     1
 90
        0
176
     1
290
     0
176
     1
 90
        1
176
     1
 40
0.0
176
     1
 90
        0
176
     1
290
     0
176
     1
290
     1
176
     1
290
     1
176
     1
290
     0
176
     1
290
     0
176
     1
290
     0
176
     1
290
     0
176
     1
290
     0
176
     1
290
     0
176
     1
 90
       50
176
     1
 40
0.0
176
     1
 40
1.0
176
     1
 90
        0
176
     1
 62
    18
420
        0
176
     1
 90
       50
176
     1
 90
        3
176
     1
 62
     5
420
      255
176
     1
290
     0
176
     1
 90
       50
176
     1
 90
       50
176
     1
 90
       50
176
     1
290
     0
176
     1
 90
       50
176
     1
 62
   256
176
     0
 40
1.0
176
     0
 90
        2
176
     1
  1
strokes_ogs.tif
176
     1
290
     0
176
     1
 40
1.0
176
     1
 40
1.0
176
     1
  0
VISUALSTYLE
  5
36
102
{ACAD_REACTORS
330
2A
102
}
330
2A
100
AcDbVisualStyle
  2
Brighten
 70
    12
177
     3
291
     1
 70
    58
 90
        2
176
     1
 90
        2
176
     1
 90
        0
176
     1
 90
        0
176
     1
 40
0.6
176
     1
 40
30.0
176
     1
 62
     7
420
 16777215
176
     1
 90
        1
176
     1
 90
        4
176
     1
 62
     7
176
     1
 62
   257
176
     1
 90
        1
176
     1
 90
        1
176
     1
 40
1.0
176
     1
 90
        8
176
     1
 62
     7
176
     1
 40
1.0
176
     1
 90
        1
176
     1
 90
        6
176
     1
 90
        2
176
     1
 62
     7
176
     1
 90
        5
176
     1
 90
        0
176
     1
 90
        0
176
     1
290
     0
176
     1
 90
        1
176
     1
 40
50.0
176
     1
 90
        0
176
     1
290
     0
176
     1
290
     1
176
     1
290
     1
176
     1
290
     0
176
     1
290
     0
176
     1
290
     0
176
     1
290
     0
176
     1
290
     0
176
     1
290
     0
176
     1
 90
       50
176
     1
 40
0.0
176
     1
 40
1.0
176
     1
 90
        0
176
     1
 62
    18
420
        0
176
     1
 90
       50
176
     1
 90
        3
176
     1
 62
     5
420
      255
176
     1
290
     0
176
     1
 90
       50
176
     1
 90
       50
176
     1
 90
       50
176
     1
290
     0
176
     1
 90
       50
176
     1
 62
   256
176
     0
 40
1.0
176
     0
 90
        2
176
     1
  1
strokes_ogs.tif
176
     1
290
     0
176
     1
 40
1.0
176
     1
 40
1.0
176
     1
  0
VISUALSTYLE
  5
3A
102
{ACAD_REACTORS
330
2A
102
}
330
2A
100
AcDbVisualStyle
  2
ColorChange
 70
    16
177
     3
291
     1
 70
    58
 90
        2
176
     1
 90
        2
176
     1
 90
        3
176
     1
 90
        0
176
     1
 40
0.6
176
     1
 40
30.0
176
     1
 62
     8
420
  8421504
176
     1
 90
        1
176
     1
 90
        4
176
     1
 62
     7
176
     1
 62
   257
176
     1
 90
        1
176
     1
 90
        1
176
     1
 40
1.0
176
     1
 90
        8
176
     1
 62
     8
420
  8421504
176
     1
 40
1.0
176
     1
 90
        1
176
     1
 90
        6
176
     1
 90
        2
176
     1
 62
     7
176
     1
 90
        5
176
     1
 90
        0
176
     1
 90
        0
176
     1
290
     0
176
     1
 90
        1
176
     1
 40
0.0
176
     1
 90
        0
176
     1
290
     0
176
     1
290
     1
176
     1
290
     1
176
     1
290
     0
176
     1
290
     0
176
     1
290
     0
176
     1
290
     0
176
     1
290
     0
176
     1
290
     0
176
     1
 90
       50
176
     1
 40
0.0
176
     1
 40
1.0
176
     1
 90
        0
176
     1
 62
    18
420
        0
176
     1
 90
       50
176
     1
 90
        3
176
     1
 62
     5
420
      255
176
     1
290
     0
176
     1
 90
       50
176
     1
 90
       50
176
     1
 90
       50
176
     1
290
     0
176
     1
 90
       50
176
     1
 62
   256
176
     0
 40
1.0
176
     0
 90
        2
176
     1
  1
strokes_ogs.tif
176
     1
290
     0
176
     1
 40
1.0
176
     1
 40
1.0
176
     1
  0
VISUALSTYLE
  5
34
102
{ACAD_REACTORS
330
2A
102
}
330
2A
100
AcDbVisualStyle
  2
Conceptual
 70
     9
177
     3
291
     0
 70
    58
 90
        3
176
     1
 90
        2
176
     1
 90
        0
176
     1
 90
        0
176
     1
 40
0.6
176
     1
 40
30.0
176
     1
 62
     7
420
 16777215
176
     1
 90
        2
176
     1
 90
        2
176
     1
 62
     7
176
     1
 62
   257
176
     1
 90
        1
176
     1
 90
        1
176
     1
 40
179.0
176
     1
 90
        8
176
     1
 62
     7
176
     1
 40
1.0
176
     1
 90
        1
176
     1
 90
        6
176
     1
 90
        2
176
     1
 62
     7
176
     1
 90
        3
176
     1
 90
        0
176
     1
 90
        0
176
     1
290
     0
176
     1
 90
        1
176
     1
 40
0.0
176
     1
 90
        0
176
     1
290
     0
176
     1
290
     1
176
     1
290
     1
176
     1
290
     0
176
     1
290
     0
176
     1
290
     0
176
     1
290
     0
176
     1
290
     0
176
     1
290
     0
176
     1
 90
       50
176
     1
 40
0.0
176
     1
 40
1.0
176
     1
 90
        0
176
     1
 62
    18
420
        0
176
     1
 90
       50
176
     1
 90
        3
176
     1
 62
     5
420
      255
176
     1
290
     0
176
     1
 90
       50
176
     1
 90
       50
176
     1
 90
       50
176
     1
290
     0
176
     1
 90
       50
176
     1
 62
   256
176
     0
 40
1.0
176
     0
 90
        2
176
     1
  1
strokes_ogs.tif
176
     1
290
     0
176
     1
 40
1.0
176
     1
 40
1.0
176
     1
  0
VISUALSTYLE
  5
35
102
{ACAD_REACTORS
330
2A
102
}
330
2A
100
AcDbVisualStyle
  2
Dim
 70
    11
177
     3
291
     1
 70
    58
 90
        2
176
     1
 90
        2
176
     1
 90
        0
176
     1
 90
        0
176
     1
 40
0.6
176
     1
 40
30.0
176
     1
 62
     7
420
 16777215
176
     1
 90
        1
176
     1
 90
        4
176
     1
 62
     7
176
     1
 62
   257
176
     1
 90
        1
176
     1
 90
        1
176
     1
 40
1.0
176
     1
 90
        8
176
     1
 62
     7
176
     1
 40
1.0
176
     1
 90
        1
176
     1
 90
        6
176
     1
 90
        2
176
     1
 62
     7
176
     1
 90
        5
176
     1
 90
        0
176
     1
 90
        0
176
     1
290
     0
176
     1
 90
        1
176
     1
 40
-50.0
176
     1
 90
        0
176
     1
290
     0
176
     1
290
     1
176
     1
290
     1
176
     1
290
     0
176
     1
290
     0
176
     1
290
     0
176
     1
290
     0
176
     1
290
     0
176
     1
290
     0
176
     1
 90
       50
176
     1
 40
0.0
176
     1
 40
1.0
176
     1
 90
        0
176
     1
 62
    18
420
        0
176
     1
 90
       50
176
     1
 90
        3
176
     1
 62
     5
420
      255
176
     1
290
     0
176
     1
 90
       50
176
     1
 90
       50
176
     1
 90
       50
176
     1
290
     0
176
     1
 90
       50
176
     1
 62
   256
176
     0
 40
1.0
176
     0
 90
        2
176
     1
  1
strokes_ogs.tif
176
     1
290
     0
176
     1
 40
1.0
176
     1
 40
1.0
176
     1
  0
VISUALSTYLE
  5
3D
102
{ACAD_REACTORS
330
2A
102
}
330
2A
100
AcDbVisualStyle
  2
EdgeColorOff
 70
    22
177
     3
291
     1
 70
    58
 90
        2
176
     0
 90
        2
176
     0
 90
        0
176
     0
 90
        0
176
     0
 40
0.6
176
     0
 40
30.0
176
     0
 62
     7
420
 16777215
176
     0
 90
        1
176
     0
 90
        4
176
     0
 62
     7
176
     0
 62
   257
176
     0
 90
        1
176
     0
 90
        1
176
     0
 40
1.0
176
     0
 90
        8
176
     2
 62
     7
176
     0
 40
1.0
176
     0
 90
        1
176
     0
 90
        6
176
     0
 90
        2
176
     0
 62
     7
176
     0
 90
        5
176
     0
 90
        0
176
     0
 90
        0
176
     0
290
     0
176
     0
 90
        1
176
     0
 40
0.0
176
     0
 90
        0
176
     0
290
     0
176
     0
290
     1
176
     0
290
     1
176
     0
290
     0
176
     0
290
     0
176
     0
290
     0
176
     0
290
     0
176
     0
290
     0
176
     0
290
     0
176
     0
 90
       50
176
     0
 40
0.0
176
     0
 40
1.0
176
     0
 90
        0
176
     0
 62
    18
420
        0
176
     0
 90
       50
176
     0
 90
        3
176
     0
 62
     5
420
      255
176
     0
290
     0
176
     0
 90
       50
176
     0
 90
       50
176
     0
 90
       50
176
     0
290
     0
176
     0
 90
       50
176
     0
 62
   256
176
     0
 40
1.0
176
     0
 90
        2
176
     0
  1
strokes_ogs.tif
176
     0
290
     0
176
     0
 40
1.0
176
     0
 40
1.0
176
     0
  0
VISUALSTYLE
  5
39
102
{ACAD_REACTORS
330
2A
102
}
330
2A
100
AcDbVisualStyle
  2
Facepattern
 70
    15
177
     3
291
     1
 70
    58
 90
        2
176
     1
 90
        2
176
     1
 90
        0
176
     1
 90
        0
176
     1
 40
0.6
176
     1
 40
30.0
176
     1
 62
     7
420
 16777215
176
     1
 90
        1
176
     1
 90
        4
176
     1
 62
     7
176
     1
 62
   257
176
     1
 90
        1
176
     1
 90
        1
176
     1
 40
1.0
176
     1
 90
        8
176
     1
 62
     7
176
     1
 40
1.0
176
     1
 90
        1
176
     1
 90
        6
176
     1
 90
        2
176
     1
 62
     7
176
     1
 90
        5
176
     1
 90
        0
176
     1
 90
        0
176
     1
290
     0
176
     1
 90
        1
176
     1
 40
0.0
176
     1
 90
        0
176
     1
290
     0
176
     1
290
     1
176
     1
290
     1
176
     1
290
     0
176
     1
290
     0
176
     1
290
     0
176
     1
290
     0
176
     1
290
     0
176
     1
290
     0
176
     1
 90
       50
176
     1
 40
0.0
176
     1
 40
1.0
176
     1
 90
        0
176
     1
 62
    18
420
        0
176
     1
 90
       50
176
     1
 90
        3
176
     1
 62
     5
420
      255
176
     1
290
     0
176
     1
 90
       50
176
     1
 90
       50
176
     1
 90
       50
176
     1
290
     0
176
     1
 90
       50
176
     1
 62
   256
176
     0
 40
1.0
176
     0
 90
        2
176
     1
  1
strokes_ogs.tif
176
     1
290
     0
176
     1
 40
1.0
176
     1
 40
1.0
176
     1
  0
VISUALSTYLE
  5
2B
102
{ACAD_REACTORS
330
2A
102
}
330
2A
100
AcDbVisualStyle
  2
Flat
 70
     0
177
     3
291
     1
 70
    58
 90
        2
176
     1
 90
        1
176
     1
 90
        1
176
     1
 90
        2
176
     1
 40
0.6
176
     1
 40
30.0
176
     1
 62
     7
420
 16777215
176
     1
 90
        0
176
     1
 90
        0
176
     1
 62
     7
176
     1
 62
   257
176
     1
 90
        1
176
     1
 90
        1
176
     1
 40
1.0
176
     1
 90
        8
176
     1
 62
     7
176
     1
 40
1.0
176
     1
 90
        1
176
     1
 90
        6
176
     1
 90
        2
176
     1
 62
     7
176
     1
 90
        5
176
     1
 90
        0
176
     1
 90
        0
176
     1
290
     0
176
     1
 90
       13
176
     1
 40
0.0
176
     1
 90
        0
176
     1
290
     0
176
     1
290
     1
176
     1
290
     1
176
     1
290
     0
176
     1
290
     0
176
     1
290
     0
176
     1
290
     0
176
     1
290
     0
176
     1
290
     0
176
     1
 90
       50
176
     1
 40
0.0
176
     1
 40
1.0
176
     1
 90
        0
176
     1
 62
    18
420
        0
176
     1
 90
       50
176
     1
 90
        3
176
     1
 62
     5
420
      255
176
     1
290
     0
176
     1
 90
       50
176
     1
 90
       50
176
     1
 90
       50
176
     1
290
     0
176
     1
 90
       50
176
     1
 62
   256
176
     0
 40
1.0
176
     0
 90
        2
176
     1
  1
strokes_ogs.tif
176
     1
290
     0
176
     1
 40
1.0
176
     1
 40
1.0
176
     1
  0
VISUALSTYLE
  5
2C
102
{ACAD_REACTORS
330
2A
102
}
330
2A
100
AcDbVisualStyle
  2
FlatWithEdges
 70
     1
177
     3
291
     1
 70
    58
 90
        2
176
     1
 90
        1
176
     1
 90
        1
176
     1
 90
        2
176
     1
 40
0.6
176
     1
 40
30.0
176
     1
 62
     7
420
 16777215
176
     1
 90
        1
176
     1
 90
        0
176
     1
 62
     7
176
     1
 62
   257
176
     1
 90
        1
176
     1
 90
        1
176
     1
 40
1.0
176
     1
 90
        0
176
     1
 62
   257
176
     1
 40
1.0
176
     1
 90
        1
176
     1
 90
        6
176
     1
 90
        2
176
     1
 62
     7
176
     1
 90
        5
176
     1
 90
        0
176
     1
 90
        0
176
     1
290
     0
176
     1
 90
       13
176
     1
 40
0.0
176
     1
 90
        0
176
     1
290
     0
176
     1
290
     1
176
     1
290
     1
176
     1
290
     0
176
     1
290
     0
176
     1
290
     0
176
     1
290
     0
176
     1
290
     0
176
     1
290
     0
176
     1
 90
       50
176
     1
 40
0.0
176
     1
 40
1.0
176
     1
 90
        0
176
     1
 62
    18
420
        0
176
     1
 90
       50
176
     1
 90
        3
176
     1
 62
     5
420
      255
176
     1
290
     0
176
     1
 90
       50
176
     1
 90
       50
176
     1
 90
       50
176
     1
290
     0
176
     1
 90
       50
176
     1
 62
   256
176
     0
 40
1.0
176
     0
 90
        2
176
     1
  1
strokes_ogs.tif
176
     1
290
     0
176
     1
 40
1.0
176
     1
 40
1.0
176
     1
  0
VISUALSTYLE
  5
2D
102
{ACAD_REACTORS
330
2A
102
}
330
2A
100
AcDbVisualStyle
  2
Gouraud
 70
     2
177
     3
291
     1
 70
    58
 90
        2
176
     1
 90
        2
176
     1
 90
        1
176
     1
 90
        2
176
     1
 40
0.6
176
     1
 40
30.0
176
     1
 62
     7
420
 16777215
176
     1
 90
        0
176
     1
 90
        0
176
     1
 62
     7
176
     1
 62
   257
176
     1
 90
        1
176
     1
 90
        1
176
     1
 40
1.0
176
     1
 90
        0
176
     1
 62
     7
176
     1
 40
1.0
176
     1
 90
        1
176
     1
 90
        6
176
     1
 90
        2
176
     1
 62
     7
176
     1
 90
        5
176
     1
 90
        0
176
     1
 90
        0
176
     1
290
     0
176
     1
 90
       13
176
     1
 40
0.0
176
     1
 90
        0
176
     1
290
     0
176
     1
290
     1
176
     1
290
     1
176
     1
290
     0
176
     1
290
     0
176
     1
290
     0
176
     1
290
     0
176
     1
290
     0
176
     1
290
     0
176
     1
 90
       50
176
     1
 40
0.0
176
     1
 40
1.0
176
     1
 90
        0
176
     1
 62
    18
420
        0
176
     1
 90
       50
176
     1
 90
        3
176
     1
 62
     5
420
      255
176
     1
290
     0
176
     1
 90
       50
176
     1
 90
       50
176
     1
 90
       50
176
     1
290
     0
176
     1
 90
       50
176
     1
 62
   256
176
     0
 40
1.0
176
     0
 90
        2
176
     1
  1
strokes_ogs.tif
176
     1
290
     0
176
     1
 40
1.0
176
     1
 40
1.0
176
     1
  0
VISUALSTYLE
  5
2E
102
{ACAD_REACTORS
330
2A
102
}
330
2A
100
AcDbVisualStyle
  2
GouraudWithEdges
 70
     3
177
     3
291
     1
 70
    58
 90
        2
176
     1
 90
        2
176
     1
 90
        1
176
     1
 90
        2
176
     1
 40
0.6
176
     1
 40
30.0
176
     1
 62
     7
420
 16777215
176
     1
 90
        1
176
     1
 90
        0
176
     1
 62
     7
176
     1
 62
   257
176
     1
 90
        1
176
     1
 90
        1
176
     1
 40
1.0
176
     1
 90
        0
176
     1
 62
   257
176
     1
 40
1.0
176
     1
 90
        1
176
     1
 90
        6
176
     1
 90
        2
176
     1
 62
     7
176
     1
 90
        5
176
     1
 90
        0
176
     1
 90
        0
176
     1
290
     0
176
     1
 90
       13
176
     1
 40
0.0
176
     1
 90
        0
176
     1
290
     0
176
     1
290
     1
176
     1
290
     1
176
     1
290
     0
176
     1
290
     0
176
     1
290
     0
176
     1
290
     0
176
     1
290
     0
176
     1
290
     0
176
     1
 90
       50
176
     1
 40
0.0
176
     1
 40
1.0
176
     1
 90
        0
176
     1
 62
    18
420
        0
176
     1
 90
       50
176
     1
 90
        3
176
     1
 62
     5
420
      255
176
     1
290
     0
176
     1
 90
       50
176
     1
 90
       50
176
     1
 90
       50
176
     1
290
     0
176
     1
 90
       50
176
     1
 62
   256
176
     0
 40
1.0
176
     0
 90
        2
176
     1
  1
strokes_ogs.tif
176
     1
290
     0
176
     1
 40
1.0
176
     1
 40
1.0
176
     1
  0
VISUALSTYLE
  5
31
102
{ACAD_REACTORS
330
2A
102
}
330
2A
100
AcDbVisualStyle
  2
Hidden
 70
     6
177
     3
291
     0
 70
    58
 90
        1
176
     1
 90
        2
176
     1
 90
        2
176
     1
 90
        0
176
     1
 40
0.6
176
     1
 40
30.0
176
     1
 62
     7
420
 16777215
176
     1
 90
        2
176
     1
 90
        2
176
     1
 62
     7
176
     1
 62
   257
176
     1
 90
        2
176
     1
 90
        1
176
     1
 40
40.0
176
     1
 90
        0
176
     1
 62
   257
176
     1
 40
1.0
176
     1
 90
        1
176
     1
 90
        6
176
     1
 90
        2
176
     1
 62
     7
176
     1
 90
        3
176
     1
 90
        0
176
     1
 90
        0
176
     1
290
     0
176
     1
 90
        1
176
     1
 40
0.0
176
     1
 90
        0
176
     1
290
     0
176
     1
290
     1
176
     1
290
     1
176
     1
290
     0
176
     1
290
     0
176
     1
290
     0
176
     1
290
     0
176
     1
290
     0
176
     1
290
     0
176
     1
 90
       50
176
     1
 40
0.0
176
     1
 40
1.0
176
     1
 90
        0
176
     1
 62
    18
420
        0
176
     1
 90
       50
176
     1
 90
        3
176
     1
 62
     5
420
      255
176
     1
290
     0
176
     1
 90
       50
176
     1
 90
       50
176
     1
 90
       50
176
     1
290
     0
176
     1
 90
       50
176
     1
 62
   256
176
     0
 40
1.0
176
     0
 90
        2
176
     1
  1
strokes_ogs.tif
176
     1
290
     0
176
     1
 40
1.0
176
     1
 40
1.0
176
     1
  0
VISUALSTYLE
  5
3B
102
{ACAD_REACTORS
330
2A
102
}
330
2A
100
AcDbVisualStyle
  2
JitterOff
 70
    20
177
     3
291
     1
 70
    58
 90
        2
176
     0
 90
        2
176
     0
 90
        0
176
     0
 90
        0
176
     0
 40
0.6
176
     0
 40
30.0
176
     0
 62
     7
420
 16777215
176
     0
 90
        1
176
     0
 90
        4
176
     0
 62
     7
176
     0
 62
   257
176
     0
 90
        1
176
     0
 90
        1
176
     0
 40
1.0
176
     0
 90
       10
176
     2
 62
     7
176
     0
 40
1.0
176
     0
 90
        1
176
     0
 90
        6
176
     0
 90
        2
176
     0
 62
     7
176
     0
 90
        5
176
     0
 90
        0
176
     0
 90
        0
176
     0
290
     0
176
     0
 90
        1
176
     0
 40
0.0
176
     0
 90
        0
176
     0
290
     0
176
     0
290
     1
176
     0
290
     1
176
     0
290
     0
176
     0
290
     0
176
     0
290
     0
176
     0
290
     0
176
     0
290
     0
176
     0
290
     0
176
     0
 90
       50
176
     0
 40
0.0
176
     0
 40
1.0
176
     0
 90
        0
176
     0
 62
    18
420
        0
176
     0
 90
       50
176
     0
 90
        3
176
     0
 62
     5
420
      255
176
     0
290
     0
176
     0
 90
       50
176
     0
 90
       50
176
     0
 90
       50
176
     0
290
     0
176
     0
 90
       50
176
     0
 62
   256
176
     0
 40
1.0
176
     0
 90
        2
176
     0
  1
strokes_ogs.tif
176
     0
290
     0
176
     0
 40
1.0
176
     0
 40
1.0
176
     0
  0
VISUALSTYLE
  5
38
102
{ACAD_REACTORS
330
2A
102
}
330
2A
100
AcDbVisualStyle
  2
Linepattern
 70
    14
177
     3
291
     1
 70
    58
 90
        2
176
     1
 90
        2
176
     1
 90
        0
176
     1
 90
        0
176
     1
 40
0.6
176
     1
 40
30.0
176
     1
 62
     7
420
 16777215
176
     1
 90
        1
176
     1
 90
        4
176
     1
 62
     7
176
     1
 62
   257
176
     1
 90
        7
176
     1
 90
        7
176
     1
 40
1.0
176
     1
 90
        8
176
     1
 62
     7
176
     1
 40
1.0
176
     1
 90
        1
176
     1
 90
        6
176
     1
 90
        2
176
     1
 62
     7
176
     1
 90
        5
176
     1
 90
        0
176
     1
 90
        0
176
     1
290
     0
176
     1
 90
        1
176
     1
 40
0.0
176
     1
 90
        0
176
     1
290
     0
176
     1
290
     1
176
     1
290
     1
176
     1
290
     0
176
     1
290
     0
176
     1
290
     0
176
     1
290
     0
176
     1
290
     0
176
     1
290
     0
176
     1
 90
       50
176
     1
 40
0.0
176
     1
 40
1.0
176
     1
 90
        0
176
     1
 62
    18
420
        0
176
     1
 90
       50
176
     1
 90
        3
176
     1
 62
     5
420
      255
176
     1
290
     0
176
     1
 90
       50
176
     1
 90
       50
176
     1
 90
       50
176
     1
290
     0
176
     1
 90
       50
176
     1
 62
   256
176
     0
 40
1.0
176
     0
 90
        2
176
     1
  1
strokes_ogs.tif
176
     1
290
     0
176
     1
 40
1.0
176
     1
 40
1.0
176
     1
  0
VISUALSTYLE
  5
3C
102
{ACAD_REACTORS
330
2A
102
}
330
2A
100
AcDbVisualStyle
  2
OverhangOff
 70
    21
177
     3
291
     1
 70
    58
 90
        2
176
     0
 90
        2
176
     0
 90
        0
176
     0
 90
        0
176
     0
 40
0.6
176
     0
 40
30.0
176
     0
 62
     7
420
 16777215
176
     0
 90
        1
176
     0
 90
        4
176
     0
 62
     7
176
     0
 62
   257
176
     0
 90
        1
176
     0
 90
        1
176
     0
 40
1.0
176
     0
 90
        9
176
     2
 62
     7
176
     0
 40
1.0
176
     0
 90
        1
176
     0
 90
        6
176
     0
 90
        2
176
     0
 62
     7
176
     0
 90
        5
176
     0
 90
        0
176
     0
 90
        0
176
     0
290
     0
176
     0
 90
        1
176
     0
 40
0.0
176
     0
 90
        0
176
     0
290
     0
176
     0
290
     1
176
     0
290
     1
176
     0
290
     0
176
     0
290
     0
176
     0
290
     0
176
     0
290
     0
176
     0
290
     0
176
     0
290
     0
176
     0
 90
       50
176
     0
 40
0.0
176
     0
 40
1.0
176
     0
 90
        0
176
     0
 62
    18
420
        0
176
     0
 90
       50
176
     0
 90
        3
176
     0
 62
     5
420
      255
176
     0
290
     0
176
     0
 90
       50
176
     0
 90
       50
176
     0
 90
       50
176
     0
290
     0
176
     0
 90
       50
176
     0
 62
   256
176
     0
 40
1.0
176
     0
 90
        2
176
     0
  1
strokes_ogs.tif
176
     0
290
     0
176
     0
 40
1.0
176
     0
 40
1.0
176
     0
  0
VISUALSTYLE
  5
33
102
{ACAD_REACTORS
330
2A
102
}
330
2A
100
AcDbVisualStyle
  2
Realistic
 70
     8
177
     3
291
     0
 70
    58
 90
        2
176
     1
 90
        3
176
     1
 90
        0
176
     1
 90
        2
176
     1
 40
0.6
176
     1
 40
30.0
176
     1
 62
     7
420
 16777215
176
     1
 90
        0
176
     1
 90
        0
176
     1
 62
     7
176
     1
 62
   257
176
     1
 90
        1
176
     1
 90
        1
176
     1
 40
1.0
176
     1
 90
        8
176
     1
 62
   257
176
     1
 40
1.0
176
     1
 90
        1
176
     1
 90
        6
176
     1
 90
        2
176
     1
 62
     7
176
     1
 90
        3
176
     1
 90
        0
176
     1
 90
        0
176
     1
290
     0
176
     1
 90
       13
176
     1
 40
0.0
176
     1
 90
        0
176
     1
290
     0
176
     1
290
     1
176
     1
290
     1
176
     1
290
     0
176
     1
290
     0
176
     1
290
     0
176
     1
290
     0
176
     1
290
     0
176
     1
290
     0
176
     1
 90
       50
176
     1
 40
0.0
176
     1
 40
1.0
176
     1
 90
        0
176
     1
 62
    18
420
        0
176
     1
 90
       50
176
     1
 90
        3
176
     1
 62
     5
420
      255
176
     1
290
     0
176
     1
 90
       50
176
     1
 90
       50
176
     1
 90
       50
176
     1
290
     0
176
     1
 90
       50
176
     1
 62
   256
176
     0
 40
1.0
176
     0
 90
        2
176
     1
  1
strokes_ogs.tif
176
     1
290
     0
176
     1
 40
1.0
176
     1
 40
1.0
176
     1
  0
VISUALSTYLE
  5
42
102
{ACAD_REACTORS
330
2A
102
}
330
2A
100
AcDbVisualStyle
  2
Shaded
 70
    27
177
     3
291
     0
 70
    58
 90
        2
176
     1
 90
        2
176
     1
 90
        1
176
     1
 90
        2
176
     1
 40
0.6
176
     1
 40
30.0
176
     1
 62
     7
420
 16777215
176
     1
 90
        0
176
     1
 90
        4
176
     1
 62
     7
176
     1
 62
   257
176
     1
 90
        1
176
     1
 90
        1
176
     1
 40
1.0
176
     1
 90
        8
176
     1
 62
   257
176
     1
 40
1.0
176
     1
 90
        1
176
     1
 90
        6
176
     1
 90
        2
176
     1
 62
     8
420
  7895160
176
     1
 90
        3
176
     1
 90
        0
176
     1
 90
        0
176
     1
290
     0
176
     1
 90
        5
176
     1
 40
0.0
176
     1
 90
        0
176
     1
290
     0
176
     1
290
     1
176
     1
290
     1
176
     1
290
     0
176
     1
290
     0
176
     1
290
     0
176
     1
290
     0
176
     1
290
     0
176
     1
290
     0
176
     1
 90
       50
176
     1
 40
0.0
176
     1
 40
1.0
176
     1
 90
        0
176
     1
 62
    18
420
        0
176
     1
 90
       50
176
     1
 90
        3
176
     1
 62
     5
420
      255
176
     1
290
     0
176
     1
 90
       50
176
     1
 90
       50
176
     1
 90
       50
176
     1
290
     0
176
     1
 90
       50
176
     1
 62
   256
176
     0
 40
1.0
176
     0
 90
        2
176
     1
  1
strokes_ogs.tif
176
     1
290
     0
176
     1
 40
1.0
176
     1
 40
1.0
176
     1
  0
VISUALSTYLE
  5
41
102
{ACAD_REACTORS
330
2A
102
}
330
2A
100
AcDbVisualStyle
  2
Shaded with edges
 70
    26
177
     3
291
     0
 70
    58
 90
        2
176
     1
 90
        2
176
     1
 90
        1
176
     1
 90
        2
176
     1
 40
0.6
176
     1
 40
30.0
176
     1
 62
     7
420
 16777215
176
     1
 90
        1
176
     1
 90
       10
176
     1
 62
     7
176
     1
 62
   257
176
     1
 90
        2
176
     1
 90
        1
176
     1
 40
1.0
176
     1
 90
        8
176
     1
 62
   257
176
     1
 40
1.0
176
     1
 90
        1
176
     1
 90
        6
176
     1
 90
        2
176
     1
 62
     7
176
     1
 90
        3
176
     1
 90
        0
176
     1
 90
        0
176
     1
290
     0
176
     1
 90
        5
176
     1
 40
0.0
176
     1
 90
        0
176
     1
290
     0
176
     1
290
     1
176
     1
290
     1
176
     1
290
     0
176
     1
290
     0
176
     1
290
     0
176
     1
290
     0
176
     1
290
     0
176
     1
290
     0
176
     1
 90
       50
176
     1
 40
0.0
176
     1
 40
1.0
176
     1
 90
        0
176
     1
 62
    18
420
        0
176
     1
 90
       50
176
     1
 90
        3
176
     1
 62
     5
420
      255
176
     1
290
     0
176
     1
 90
       50
176
     1
 90
       50
176
     1
 90
       50
176
     1
290
     0
176
     1
 90
       50
176
     1
 62
   256
176
     0
 40
1.0
176
     0
 90
        2
176
     1
  1
strokes_ogs.tif
176
     1
290
     0
176
     1
 40
1.0
176
     1
 40
1.0
176
     1
  0
VISUALSTYLE
  5
3E
102
{ACAD_REACTORS
330
2A
102
}
330
2A
100
AcDbVisualStyle
  2
Shades of Gray
 70
    23
177
     3
291
     0
 70
    58
 90
        2
176
     1
 90
        2
176
     1
 90
        3
176
     1
 90
        0
176
     1
 40
0.6
176
     1
 40
30.0
176
     1
 62
     7
420
 16777215
176
     1
 90
        2
176
     1
 90
        2
176
     1
 62
     7
176
     1
 62
     7
176
     1
 90
        1
176
     1
 90
        1
176
     1
 40
40.0
176
     1
 90
        8
176
     1
 62
     7
176
     1
 40
1.0
176
     1
 90
        1
176
     1
 90
        6
176
     1
 90
        2
176
     1
 62
     7
176
     1
 90
        3
176
     1
 90
        0
176
     1
 90
        0
176
     1
290
     0
176
     1
 90
        1
176
     1
 40
0.0
176
     1
 90
        0
176
     1
290
     0
176
     1
290
     1
176
     1
290
     1
176
     1
290
     0
176
     1
290
     0
176
     1
290
     0
176
     1
290
     0
176
     1
290
     0
176
     1
290
     0
176
     1
 90
       50
176
     1
 40
0.0
176
     1
 40
1.0
176
     1
 90
        0
176
     1
 62
    18
420
        0
176
     1
 90
       50
176
     1
 90
        3
176
     1
 62
     5
420
      255
176
     1
290
     0
176
     1
 90
       50
176
     1
 90
       50
176
     1
 90
       50
176
     1
290
     0
176
     1
 90
       50
176
     1
 62
   256
176
     0
 40
1.0
176
     0
 90
        2
176
     1
  1
strokes_ogs.tif
176
     1
290
     0
176
     1
 40
1.0
176
     1
 40
1.0
176
     1
  0
VISUALSTYLE
  5
3F
102
{ACAD_REACTORS
330
2A
102
}
330
2A
100
AcDbVisualStyle
  2
Sketchy
 70
    24
177
     3
291
     0
 70
    58
 90
        1
176
     1
 90
        2
176
     1
 90
        2
176
     1
 90
        0
176
     1
 40
0.6
176
     1
 40
30.0
176
     1
 62
     7
420
 16777215
176
     1
 90
        2
176
     1
 90
        2
176
     1
 62
     7
176
     1
 62
     7
176
     1
 90
        1
176
     1
 90
        1
176
     1
 40
40.0
176
     1
 90
       11
176
     1
 62
     7
176
     1
 40
1.0
176
     1
 90
        1
176
     1
 90
        6
176
     1
 90
        2
176
     1
 62
     7
176
     1
 90
        6
176
     1
 90
        0
176
     1
 90
        0
176
     1
290
     0
176
     1
 90
        1
176
     1
 40
0.0
176
     1
 90
        0
176
     1
290
     0
176
     1
290
     1
176
     1
290
     1
176
     1
290
     0
176
     1
290
     0
176
     1
290
     0
176
     1
290
     0
176
     1
290
     0
176
     1
290
     0
176
     1
 90
       50
176
     1
 40
0.0
176
     1
 40
1.0
176
     1
 90
        0
176
     1
 62
    18
420
        0
176
     1
 90
       50
176
     1
 90
        3
176
     1
 62
     5
420
      255
176
     1
290
     0
176
     1
 90
       50
176
     1
 90
       50
176
     1
 90
       50
176
     1
290
     0
176
     1
 90
       50
176
     1
 62
   256
176
     0
 40
1.0
176
     0
 90
        2
176
     1
  1
strokes_ogs.tif
176
     1
290
     0
176
     1
 40
1.0
176
     1
 40
1.0
176
     1
  0
VISUALSTYLE
  5
37
102
{ACAD_REACTORS
330
2A
102
}
330
2A
100
AcDbVisualStyle
  2
Thicken
 70
    13
177
     3
291
     1
 70
    58
 90
        2
176
     1
 90
        2
176
     1
 90
        0
176
     1
 90
        0
176
     1
 40
0.6
176
     1
 40
30.0
176
     1
 62
     7
420
 16777215
176
     1
 90
        1
176
     1
 90
        4
176
     1
 62
     7
176
     1
 62
   257
176
     1
 90
        1
176
     1
 90
        1
176
     1
 40
1.0
176
     1
 90
       12
176
     1
 62
     7
176
     1
 40
1.0
176
     1
 90
        1
176
     1
 90
        6
176
     1
 90
        2
176
     1
 62
     7
176
     1
 90
        5
176
     1
 90
        0
176
     1
 90
        0
176
     1
290
     0
176
     1
 90
        1
176
     1
 40
0.0
176
     1
 90
        0
176
     1
290
     0
176
     1
290
     1
176
     1
290
     1
176
     1
290
     0
176
     1
290
     0
176
     1
290
     0
176
     1
290
     0
176
     1
290
     0
176
     1
290
     0
176
     1
 90
       50
176
     1
 40
0.0
176
     1
 40
1.0
176
     1
 90
        0
176
     1
 62
    18
420
        0
176
     1
 90
       50
176
     1
 90
        3
176
     1
 62
     5
420
      255
176
     1
290
     0
176
     1
 90
       50
176
     1
 90
       50
176
     1
 90
       50
176
     1
290
     0
176
     1
 90
       50
176
     1
 62
   256
176
     0
 40
1.0
176
     0
 90
        2
176
     1
  1
strokes_ogs.tif
176
     1
290
     0
176
     1
 40
1.0
176
     1
 40
1.0
176
     1
  0
VISUALSTYLE
  5
30
102
{ACAD_REACTORS
330
2A
102
}
330
2A
100
AcDbVisualStyle
  2
Wireframe
 70
     5
177
     3
291
     0
 70
    58
 90
        0
176
     1
 90
        2
176
     1
 90
        0
176
     1
 90
        0
176
     1
 40
0.6
176
     1
 40
30.0
176
     1
 62
     7
420
 16777215
176
     1
 90
        1
176
     1
 90
        4
176
     1
 62
     7
176
     1
 62
   257
176
     1
 90
        1
176
     1
 90
        1
176
     1
 40
1.0
176
     1
 90
        0
176
     1
 62
   257
176
     1
 40
1.0
176
     1
 90
        1
176
     1
 90
        6
176
     1
 90
        2
176
     1
 62
     7
176
     1
 90
        3
176
     1
 90
        0
176
     1
 90
        0
176
     1
290
     0
176
     1
 90
        1
176
     1
 40
0.0
176
     1
 90
        0
176
     1
290
     0
176
     1
290
     1
176
     1
290
     1
176
     1
290
     0
176
     1
290
     0
176
     1
290
     0
176
     1
290
     0
176
     1
290
     0
176
     1
290
     0
176
     1
 90
       50
176
     1
 40
0.0
176
     1
 40
1.0
176
     1
 90
        0
176
     1
 62
    18
420
        0
176
     1
 90
       50
176
     1
 90
        3
176
     1
 62
     5
420
      255
176
     1
290
     0
176
     1
 90
       50
176
     1
 90
       50
176
     1
 90
       50
176
     1
290
     0
176
     1
 90
       50
176
     1
 62
   256
176
     0
 40
1.0
176
     0
 90
        2
176
     1
  1
strokes_ogs.tif
176
     1
290
     0
176
     1
 40
1.0
176
     1
 40
1.0
176
     1
  0
VISUALSTYLE
  5
40
102
{ACAD_REACTORS
330
2A
102
}
330
2A
100
AcDbVisualStyle
  2
X-Ray
 70
    25
177
     3
291
     0
 70
    58
 90
        2
176
     1
 90
        2
176
     1
 90
        1
176
     1
 90
        1
176
     1
 40
0.5
176
     1
 40
30.0
176
     1
 62
     7
420
 16777215
176
     1
 90
        1
176
     1
 90
        0
176
     1
 62
     7
176
     1
 62
   257
176
     1
 90
        1
176
     1
 90
        1
176
     1
 40
1.0
176
     1
 90
        8
176
     1
 62
     7
176
     1
 40
1.0
176
     1
 90
        1
176
     1
 90
        6
176
     1
 90
        2
176
     1
 62
     7
176
     1
 90
        3
176
     1
 90
        0
176
     1
 90
        0
176
     1
290
     0
176
     1
 90
       13
176
     1
 40
0.0
176
     1
 90
        0
176
     1
290
     0
176
     1
290
     1
176
     1
290
     1
176
     1
290
     0
176
     1
290
     0
176
     1
290
     0
176
     1
290
     0
176
     1
290
     0
176
     1
290
     0
176
     1
 90
       50
176
     1
 40
0.0
176
     1
 40
1.0
176
     1
 90
        0
176
     1
 62
    18
420
        0
176
     1
 90
       50
176
     1
 90
        3
176
     1
 62
     5
420
      255
176
     1
290
     0
176
     1
 90
       50
176
     1
 90
       50
176
     1
 90
       50
176
     1
290
     0
176
     1
 90
       50
176
     1
 62
   256
176
     0
 40
1.0
176
     0
 90
        2
176
     1
  1
strokes_ogs.tif
176
     1
290
     0
176
     1
 40
1.0
176
     1
 40
1.0
176
     1
  0
DICTIONARYVAR
  5
AE
102
{ACAD_REACTORS
330
AD
102
}
330
AD
100
DictionaryVariables
280
     0
  1
1:1
  0
DICTIONARYVAR
  5
B3
102
{ACAD_REACTORS
330
AD
102
}
330
AD
100
DictionaryVariables
280
     0
  1
Standard
  0
DICTIONARYVAR
  5
B2
102
{ACAD_REACTORS
330
AD
102
}
330
AD
100
DictionaryVariables
280
     0
  1
Standard
  0
DICTIONARY
  5
AF
330
5A
100
AcDbDictionary
280
     1
281
     1
  3
ACAD_ROUNDTRIP_2008_TABLESTYLE_CELLSTYLEMAP
360
B0
  0
CELLSTYLEMAP
  5
B0
102
{ACAD_REACTORS
330
AF
102
}
330
AF
100
AcDbCellStyleMap
 90
        3
300
CELLSTYLE
  1
TABLEFORMAT_BEGIN
 90
        5
170
     1
 91
        0
 92
    32768
 62
   257
 93
        1
300
CONTENTFORMAT
  1
CONTENTFORMAT_BEGIN
 90
        0
 91
        0
 92
        4
 93
        0
300

 40
0.0
140
1.0
 94
        5
 62
     0
340
11
144
0.25
309
CONTENTFORMAT_END
171
     1
301
MARGIN
  1
CELLMARGIN_BEGIN
 40
0.06
 40
0.06
 40
0.06
 40
0.06
 40
0.06
 40
0.06
309
CELLMARGIN_END
 94
        6
 95
        1
302
GRIDFORMAT
  1
GRIDFORMAT_BEGIN
 90
        0
 91
        1
 62
     0
 92
       -2
340
14
 93
        0
 40
0.045
309
GRIDFORMAT_END
 95
        2
302
GRIDFORMAT
  1
GRIDFORMAT_BEGIN
 90
        0
 91
        1
 62
     0
 92
       -2
340
14
 93
        0
 40
0.045
309
GRIDFORMAT_END
 95
        4
302
GRIDFORMAT
  1
GRIDFORMAT_BEGIN
 90
        0
 91
        1
 62
     0
 92
       -2
340
14
 93
        0
 40
0.045
309
GRIDFORMAT_END
 95
        8
302
GRIDFORMAT
  1
GRIDFORMAT_BEGIN
 90
        0
 91
        1
 62
     0
 92
       -2
340
14
 93
        0
 40
0.045
309
GRIDFORMAT_END
 95
       16
302
GRIDFORMAT
  1
GRIDFORMAT_BEGIN
 90
        0
 91
        1
 62
     0
 92
       -2
340
14
 93
        0
 40
0.045
309
GRIDFORMAT_END
 95
       32
302
GRIDFORMAT
  1
GRIDFORMAT_BEGIN
 90
        0
 91
        1
 62
     0
 92
       -2
340
14
 93
        0
 40
0.045
309
GRIDFORMAT_END
309
TABLEFORMAT_END
  1
CELLSTYLE_BEGIN
 90
        1
 91
        1
300
_TITLE
309
CELLSTYLE_END
300
CELLSTYLE
  1
TABLEFORMAT_BEGIN
 90
        5
170
     1
 91
        0
 92
        0
 62
   257
 93
        1
300
CONTENTFORMAT
  1
CONTENTFORMAT_BEGIN
 90
        0
 91
        0
 92
        4
 93
        0
300

 40
0.0
140
1.0
 94
        5
 62
     0
340
11
144
0.18
309
CONTENTFORMAT_END
171
     1
301
MARGIN
  1
CELLMARGIN_BEGIN
 40
0.06
 40
0.06
 40
0.06
 40
0.06
 40
0.06
 40
0.06
309
CELLMARGIN_END
 94
        6
 95
        1
302
GRIDFORMAT
  1
GRIDFORMAT_BEGIN
 90
        0
 91
        1
 62
     0
 92
       -2
340
14
 93
        0
 40
0.045
309
GRIDFORMAT_END
 95
        2
302
GRIDFORMAT
  1
GRIDFORMAT_BEGIN
 90
        0
 91
        1
 62
     0
 92
       -2
340
14
 93
        0
 40
0.045
309
GRIDFORMAT_END
 95
        4
302
GRIDFORMAT
  1
GRIDFORMAT_BEGIN
 90
        0
 91
        1
 62
     0
 92
       -2
340
14
 93
        0
 40
0.045
309
GRIDFORMAT_END
 95
        8
302
GRIDFORMAT
  1
GRIDFORMAT_BEGIN
 90
        0
 91
        1
 62
     0
 92
       -2
340
14
 93
        0
 40
0.045
309
GRIDFORMAT_END
 95
       16
302
GRIDFORMAT
  1
GRIDFORMAT_BEGIN
 90
        0
 91
        1
 62
     0
 92
       -2
340
14
 93
        0
 40
0.045
309
GRIDFORMAT_END
 95
       32
302
GRIDFORMAT
  1
GRIDFORMAT_BEGIN
 90
        0
 91
        1
 62
     0
 92
       -2
340
14
 93
        0
 40
0.045
309
GRIDFORMAT_END
309
TABLEFORMAT_END
  1
CELLSTYLE_BEGIN
 90
        2
 91
        1
300
_HEADER
309
CELLSTYLE_END
300
CELLSTYLE
  1
TABLEFORMAT_BEGIN
 90
        5
170
     1
 91
        0
 92
        0
 62
   257
 93
        1
300
CONTENTFORMAT
  1
CONTENTFORMAT_BEGIN
 90
        0
 91
        0
 92
        4
 93
        0
300

 40
0.0
140
1.0
 94
        2
 62
     0
340
11
144
0.18
309
CONTENTFORMAT_END
171
     1
301
MARGIN
  1
CELLMARGIN_BEGIN
 40
0.06
 40
0.06
 40
0.06
 40
0.06
 40
0.06
 40
0.06
309
CELLMARGIN_END
 94
        6
 95
        1
302
GRIDFORMAT
  1
GRIDFORMAT_BEGIN
 90
        0
 91
        1
 62
     0
 92
       -2
340
14
 93
        0
 40
0.045
309
GRIDFORMAT_END
 95
        2
302
GRIDFORMAT
  1
GRIDFORMAT_BEGIN
 90
        0
 91
        1
 62
     0
 92
       -2
340
14
 93
        0
 40
0.045
309
GRIDFORMAT_END
 95
        4
302
GRIDFORMAT
  1
GRIDFORMAT_BEGIN
 90
        0
 91
        1
 62
     0
 92
       -2
340
14
 93
        0
 40
0.045
309
GRIDFORMAT_END
 95
        8
302
GRIDFORMAT
  1
GRIDFORMAT_BEGIN
 90
        0
 91
        1
 62
     0
 92
       -2
340
14
 93
        0
 40
0.045
309
GRIDFORMAT_END
 95
       16
302
GRIDFORMAT
  1
GRIDFORMAT_BEGIN
 90
        0
 91
        1
 62
     0
 92
       -2
340
14
 93
        0
 40
0.045
309
GRIDFORMAT_END
 95
       32
302
GRIDFORMAT
  1
GRIDFORMAT_BEGIN
 90
        0
 91
        1
 62
     0
 92
       -2
340
14
 93
        0
 40
0.045
309
GRIDFORMAT_END
309
TABLEFORMAT_END
  1
CELLSTYLE_BEGIN
 90
        3
 91
        2
300
_DATA
309
CELLSTYLE_END
  0
ENDSEC
  0
EOF
