  0
SECTION
  2
HEADER
  9
$ACADVER
  1
AC1032
  9
$ACADMAINTVER
 90
       55
  9
$DWGCODEPAGE
  3
ANSI_1252
  9
$LASTSAVEDBY
  1
LYI-002
  9
$REQUIREDVERSIONS
160
                 0
  9
$INSBASE
 10
0.0
 20
0.0
 30
0.0
  9
$EXTMIN
 10
-1200.1489
 20
-590.1266
 30
0.0
  9
$EXTMAX
 10
1200.0511
 20
590.0734
 30
0.0
  9
$LIMMIN
 10
0.0
 20
0.0
  9
$LIMMAX
 10
12.0
 20
9.0
  9
$ORTHOMODE
 70
     0
  9
$REGENMODE
 70
     1
  9
$FILLMODE
 70
     1
  9
$QTEXTMODE
 70
     0
  9
$MIRRTEXT
 70
     1
  9
$LTSCALE
 40
1.0
  9
$ATTMODE
 70
     1
  9
$TEXTSIZE
 40
0.2
  9
$TRACEWID
 40
0.05
  9
$TEXTSTYLE
  7
Standard
  9
$CLAYER
  8
0
  9
$CELTYPE
  6
ByLayer
  9
$CECOLOR
 62
   256
  9
$CELTSCALE
 40
1.0
  9
$DISPSILH
 70
     0
  9
$DIMSCALE
 40
1.0
  9
$DIMASZ
 40
0.18
  9
$DIMEXO
 40
0.0625
  9
$DIMDLI
 40
0.38
  9
$DIMRND
 40
0.0
  9
$DIMDLE
 40
0.0
  9
$DIMEXE
 40
0.18
  9
$DIMTP
 40
0.0
  9
$DIMTM
 40
0.0
  9
$DIMTXT
 40
0.18
  9
$DIMCEN
 40
0.09
  9
$DIMTSZ
 40
0.0
  9
$DIMTOL
 70
     0
  9
$DIMLIM
 70
     0
  9
$DIMTIH
 70
     1
  9
$DIMTOH
 70
     1
  9
$DIMSE1
 70
     0
  9
$DIMSE2
 70
     0
  9
$DIMTAD
 70
     0
  9
$DIMZIN
 70
     0
  9
$DIMBLK
  1

  9
$DIMASO
 70
     1
  9
$DIMSHO
 70
     1
  9
$DIMPOST
  1

  9
$DIMAPOST
  1

  9
$DIMALT
 70
     0
  9
$DIMALTD
 70
     2
  9
$DIMALTF
 40
25.4
  9
$DIMLFAC
 40
1.0
  9
$DIMTOFL
 70
     0
  9
$DIMTVP
 40
0.0
  9
$DIMTIX
 70
     0
  9
$DIMSOXD
 70
     0
  9
$DIMSAH
 70
     0
  9
$DIMBLK1
  1

  9
$DIMBLK2
  1

  9
$DIMSTYLE
  2
Standard
  9
$DIMCLRD
 70
     0
  9
$DIMCLRE
 70
     0
  9
$DIMCLRT
 70
     0
  9
$DIMTFAC
 40
1.0
  9
$DIMGAP
 40
0.09
  9
$DIMJUST
 70
     0
  9
$DIMSD1
 70
     0
  9
$DIMSD2
 70
     0
  9
$DIMTOLJ
 70
     1
  9
$DIMTZIN
 70
     0
  9
$DIMALTZ
 70
     0
  9
$DIMALTTZ
 70
     0
  9
$DIMUPT
 70
     0
  9
$DIMDEC
 70
     4
  9
$DIMTDEC
 70
     4
  9
$DIMALTU
 70
     2
  9
$DIMALTTD
 70
     2
  9
$DIMTXSTY
  7
Standard
  9
$DIMAUNIT
 70
     0
  9
$DIMADEC
 70
     0
  9
$DIMALTRND
 40
0.0
  9
$DIMAZIN
 70
     0
  9
$DIMDSEP
 70
    46
  9
$DIMATFIT
 70
     3
  9
$DIMFRAC
 70
     0
  9
$DIMLDRBLK
  1

  9
$DIMLUNIT
 70
     2
  9
$DIMLWD
 70
    -2
  9
$DIMLWE
 70
    -2
  9
$DIMTMOVE
 70
     0
  9
$DIMFXL
 40
1.0
  9
$DIMFXLON
 70
     0
  9
$DIMJOGANG
 40
0.7853981633974483
  9
$DIMTFILL
 70
     0
  9
$DIMTFILLCLR
 70
     0
  9
$DIMARCSYM
 70
     0
  9
$DIMLTYPE
  6

  9
$DIMLTEX1
  6

  9
$DIMLTEX2
  6

  9
$DIMTXTDIRECTION
 70
     0
  9
$LUNITS
 70
     2
  9
$LUPREC
 70
     4
  9
$SKETCHINC
 40
0.1
  9
$FILLETRAD
 40
0.0
  9
$AUNITS
 70
     0
  9
$AUPREC
 70
     0
  9
$MENU
  1
.
  9
$ELEVATION
 40
0.0
  9
$PELEVATION
 40
0.0
  9
$THICKNESS
 40
0.0
  9
$LIMCHECK
 70
     0
  9
$CHAMFERA
 40
0.0
  9
$CHAMFERB
 40
0.0
  9
$CHAMFERC
 40
0.0
  9
$CHAMFERD
 40
0.0
  9
$SKPOLY
 70
     0
  9
$TDCREATE
 40
2460652.717143912
  9
$TDUCREATE
 40
2460652.487977246
  9
$TDUPDATE
 40
2460652.717144086
  9
$TDUUPDATE
 40
2460652.487977419
  9
$TDINDWG
 40
0.0000000116
  9
$TDUSRTIMER
 40
0.0000000116
  9
$USRTIMER
 70
     1
  9
$ANGBASE
 50
0.0
  9
$ANGDIR
 70
     0
  9
$PDMODE
 70
     0
  9
$PDSIZE
 40
0.0
  9
$PLINEWID
 40
0.0
  9
$SPLFRAME
 70
     0
  9
$SPLINETYPE
 70
     6
  9
$SPLINESEGS
 70
     8
  9
$HANDSEED
  5
B9
  9
$SURFTAB1
 70
     6
  9
$SURFTAB2
 70
     6
  9
$SURFTYPE
 70
     6
  9
$SURFU
 70
     6
  9
$SURFV
 70
     6
  9
$UCSBASE
  2

  9
$UCSNAME
  2

  9
$UCSORG
 10
0.0
 20
0.0
 30
0.0
  9
$UCSXDIR
 10
1.0
 20
0.0
 30
0.0
  9
$UCSYDIR
 10
0.0
 20
1.0
 30
0.0
  9
$UCSORTHOREF
  2

  9
$UCSORTHOVIEW
 70
     0
  9
$UCSORGTOP
 10
0.0
 20
0.0
 30
0.0
  9
$UCSORGBOTTOM
 10
0.0
 20
0.0
 30
0.0
  9
$UCSORGLEFT
 10
0.0
 20
0.0
 30
0.0
  9
$UCSORGRIGHT
 10
0.0
 20
0.0
 30
0.0
  9
$UCSORGFRONT
 10
0.0
 20
0.0
 30
0.0
  9
$UCSORGBACK
 10
0.0
 20
0.0
 30
0.0
  9
$PUCSBASE
  2

  9
$PUCSNAME
  2

  9
$PUCSORG
 10
0.0
 20
0.0
 30
0.0
  9
$PUCSXDIR
 10
1.0
 20
0.0
 30
0.0
  9
$PUCSYDIR
 10
0.0
 20
1.0
 30
0.0
  9
$PUCSORTHOREF
  2

  9
$PUCSORTHOVIEW
 70
     0
  9
$PUCSORGTOP
 10
0.0
 20
0.0
 30
0.0
  9
$PUCSORGBOTTOM
 10
0.0
 20
0.0
 30
0.0
  9
$PUCSORGLEFT
 10
0.0
 20
0.0
 30
0.0
  9
$PUCSORGRIGHT
 10
0.0
 20
0.0
 30
0.0
  9
$PUCSORGFRONT
 10
0.0
 20
0.0
 30
0.0
  9
$PUCSORGBACK
 10
0.0
 20
0.0
 30
0.0
  9
$USERI1
 70
     0
  9
$USERI2
 70
     0
  9
$USERI3
 70
     0
  9
$USERI4
 70
     0
  9
$USERI5
 70
     0
  9
$USERR1
 40
0.0
  9
$USERR2
 40
0.0
  9
$USERR3
 40
0.0
  9
$USERR4
 40
0.0
  9
$USERR5
 40
0.0
  9
$WORLDVIEW
 70
     1
  9
$SHADEDGE
 70
     3
  9
$SHADEDIF
 70
    70
  9
$TILEMODE
 70
     1
  9
$MAXACTVP
 70
    64
  9
$PINSBASE
 10
0.0
 20
0.0
 30
0.0
  9
$PLIMCHECK
 70
     0
  9
$PEXTMIN
 10
1.000000000000000E+20
 20
1.000000000000000E+20
 30
1.000000000000000E+20
  9
$PEXTMAX
 10
-1.000000000000000E+20
 20
-1.000000000000000E+20
 30
-1.000000000000000E+20
  9
$PLIMMIN
 10
0.0
 20
0.0
  9
$PLIMMAX
 10
12.0
 20
9.0
  9
$UNITMODE
 70
     0
  9
$VISRETAIN
 70
     1
  9
$PLINEGEN
 70
     0
  9
$PSLTSCALE
 70
     1
  9
$TREEDEPTH
 70
  3020
  9
$CMLSTYLE
  2
Standard
  9
$CMLJUST
 70
     0
  9
$CMLSCALE
 40
1.0
  9
$PROXYGRAPHICS
 70
     1
  9
$MEASUREMENT
 70
     0
  9
$CELWEIGHT
370
    -1
  9
$ENDCAPS
280
     0
  9
$JOINSTYLE
280
     0
  9
$LWDISPLAY
290
     0
  9
$INSUNITS
 70
     4
  9
$HYPERLINKBASE
  1

  9
$STYLESHEET
  1

  9
$XEDIT
290
     1
  9
$CEPSNTYPE
380
     0
  9
$PSTYLEMODE
290
     1
  9
$FINGERPRINTGUID
  2
{0ee55a77-1e67-4a02-a6eb-4e7e6613ad41}
  9
$VERSIONGUID
  2
{FAEB1C32-E019-11D5-929B-00C0DF256EC4}
  9
$EXTNAMES
290
     1
  9
$PSVPSCALE
 40
0.0
  9
$OLESTARTUP
290
     0
  9
$SORTENTS
280
   127
  9
$INDEXCTL
280
     0
  9
$HIDETEXT
280
     1
  9
$XCLIPFRAME
280
     2
  9
$HALOGAP
280
     0
  9
$OBSCOLOR
 70
   257
  9
$OBSLTYPE
280
     0
  9
$INTERSECTIONDISPLAY
280
     0
  9
$INTERSECTIONCOLOR
 70
   257
  9
$DIMASSOC
280
     2
  9
$PROJECTNAME
  1

  9
$CAMERADISPLAY
290
     0
  9
$LENSLENGTH
 40
50.0
  9
$CAMERAHEIGHT
 40
0.0
  9
$STEPSPERSEC
 40
2.0
  9
$STEPSIZE
 40
6.0
  9
$3DDWFPREC
 40
2.0
  9
$PSOLWIDTH
 40
0.25
  9
$PSOLHEIGHT
 40
4.0
  9
$LOFTANG1
 40
1.570796326794897
  9
$LOFTANG2
 40
1.570796326794897
  9
$LOFTMAG1
 40
0.0
  9
$LOFTMAG2
 40
0.0
  9
$LOFTPARAM
 70
     7
  9
$LOFTNORMALS
280
     1
  9
$LATITUDE
 40
37.795
  9
$LONGITUDE
 40
-122.394
  9
$NORTHDIRECTION
 40
0.0
  9
$TIMEZONE
 70
 -8000
  9
$LIGHTGLYPHDISPLAY
280
     1
  9
$TILEMODELIGHTSYNCH
280
     1
  9
$CMATERIAL
347
44
  9
$SOLIDHIST
280
     0
  9
$SHOWHIST
280
     1
  9
$DWFFRAME
280
     2
  9
$DGNFRAME
280
     2
  9
$REALWORLDSCALE
290
     1
  9
$INTERFERECOLOR
 62
   256
  9
$CSHADOW
280
     0
  9
$SHADOWPLANELOCATION
 40
0.0
  0
ENDSEC
  0
SECTION
  2
CLASSES
  0
CLASS
  1
ACDBDICTIONARYWDFLT
  2
AcDbDictionaryWithDefault
  3
ObjectDBX Classes
 90
        0
 91
        3
280
     0
281
     0
  0
CLASS
  1
VISUALSTYLE
  2
AcDbVisualStyle
  3
ObjectDBX Classes
 90
     4095
 91
        3
280
     0
281
     0
  0
CLASS
  1
MATERIAL
  2
AcDbMaterial
  3
ObjectDBX Classes
 90
     1153
 91
        3
280
     0
281
     0
  0
CLASS
  1
SCALE
  2
AcDbScale
  3
ObjectDBX Classes
 90
     1153
 91
        3
280
     0
281
     0
  0
CLASS
  1
TABLESTYLE
  2
AcDbTableStyle
  3
ObjectDBX Classes
 90
     4095
 91
        3
280
     0
281
     0
  0
CLASS
  1
MLEADERSTYLE
  2
AcDbMLeaderStyle
  3
ACDB_MLEADERSTYLE_CLASS
 90
     4095
 91
        3
280
     0
281
     0
  0
CLASS
  1
SUN
  2
AcDbSun
  3
SCENEOE
 90
     1153
 91
        3
280
     0
281
     0
  0
CLASS
  1
DICTIONARYVAR
  2
AcDbDictionaryVar
  3
ObjectDBX Classes
 90
        0
 91
        3
280
     0
281
     0
  0
CLASS
  1
CELLSTYLEMAP
  2
AcDbCellStyleMap
  3
ObjectDBX Classes
 90
     1152
 91
        3
280
     0
281
     0
  0
ENDSEC
  0
SECTION
  2
TABLES
  0
TABLE
  2
VPORT
  5
8
330
0
100
AcDbSymbolTable
 70
     1
  0
VPORT
  5
29
330
8
100
AcDbSymbolTableRecord
100
AcDbViewportTableRecord
  2
*Active
 70
     0
 10
0.0
 20
0.0
 11
1.0
 21
1.0
 12
10.42990654205607
 22
4.5
 13
0.0
 23
0.0
 14
0.5
 24
0.5
 15
0.5
 25
0.5
 16
0.0
 26
0.0
 36
1.0
 17
0.0
 27
0.0
 37
0.0
 40
9.0
 41
1.972972972850329
 42
50.0
 43
0.0
 44
0.0
 50
0.0
 51
0.0
 71
     0
 72
   100
 73
     1
 74
     3
 75
     0
 76
     0
 77
     0
 78
     0
281
     0
 65
     1
110
0.0
120
0.0
130
0.0
111
1.0
121
0.0
131
0.0
112
0.0
122
1.0
132
0.0
 79
     0
146
0.0
348
2F
 60
     3
 61
     5
292
     1
282
     1
141
0.0
142
0.0
 63
   250
361
5D
  0
ENDTAB
  0
TABLE
  2
LTYPE
  5
5
330
0
100
AcDbSymbolTable
 70
     1
  0
LTYPE
  5
14
330
5
100
AcDbSymbolTableRecord
100
AcDbLinetypeTableRecord
  2
ByBlock
 70
     0
  3

 72
    65
 73
     0
 40
0.0
  0
LTYPE
  5
15
330
5
100
AcDbSymbolTableRecord
100
AcDbLinetypeTableRecord
  2
ByLayer
 70
     0
  3

 72
    65
 73
     0
 40
0.0
  0
LTYPE
  5
16
330
5
100
AcDbSymbolTableRecord
100
AcDbLinetypeTableRecord
  2
Continuous
 70
     0
  3
Solid line
 72
    65
 73
     0
 40
0.0
  0
ENDTAB
  0
TABLE
  2
LAYER
  5
2
330
0
100
AcDbSymbolTable
 70
     2
  0
LAYER
  5
10
330
2
100
AcDbSymbolTableRecord
100
AcDbLayerTableRecord
  2
0
 70
     0
 62
     7
  6
Continuous
370
    -3
390
F
347
46
348
0
  0
LAYER
  5
5F
330
2
100
AcDbSymbolTableRecord
100
AcDbLayerTableRecord
  2
Layer 1
 70
     0
 62
     7
  6
Continuous
370
    -3
390
F
347
46
348
0
  0
ENDTAB
  0
TABLE
  2
STYLE
  5
3
330
0
100
AcDbSymbolTable
 70
     1
  0
STYLE
  5
11
330
3
100
AcDbSymbolTableRecord
100
AcDbTextStyleTableRecord
  2
Standard
 70
     0
 40
0.0
 41
1.0
 50
0.0
 71
     0
 42
0.2
  3
txt
  4

  0
ENDTAB
  0
TABLE
  2
VIEW
  5
6
330
0
100
AcDbSymbolTable
 70
     0
  0
ENDTAB
  0
TABLE
  2
UCS
  5
7
330
0
100
AcDbSymbolTable
 70
     0
  0
ENDTAB
  0
TABLE
  2
APPID
  5
9
330
0
100
AcDbSymbolTable
 70
     2
  0
APPID
  5
12
330
9
100
AcDbSymbolTableRecord
100
AcDbRegAppTableRecord
  2
ACAD
 70
     0
  0
APPID
  5
5E
330
9
100
AcDbSymbolTableRecord
100
AcDbRegAppTableRecord
  2
ODA
 70
     0
  0
ENDTAB
  0
TABLE
  2
DIMSTYLE
  5
A
330
0
100
AcDbSymbolTable
 70
     1
100
AcDbDimStyleTable
  0
DIMSTYLE
105
27
330
A
100
AcDbSymbolTableRecord
100
AcDbDimStyleTableRecord
  2
Standard
 70
     0
178
     0
340
11
  0
ENDTAB
  0
TABLE
  2
BLOCK_RECORD
  5
1
330
0
100
AcDbSymbolTable
 70
     1
  0
BLOCK_RECORD
  5
1F
330
1
100
AcDbSymbolTableRecord
100
AcDbBlockTableRecord
  2
*Model_Space
340
22
 70
     0
280
     1
281
     0
  0
BLOCK_RECORD
  5
1B
330
1
100
AcDbSymbolTableRecord
100
AcDbBlockTableRecord
  2
*Paper_Space
340
1E
 70
     0
280
     1
281
     0
  0
BLOCK_RECORD
  5
23
330
1
100
AcDbSymbolTableRecord
100
AcDbBlockTableRecord
  2
*Paper_Space0
340
26
 70
     0
280
     1
281
     0
  0
ENDTAB
  0
ENDSEC
  0
SECTION
  2
BLOCKS
  0
BLOCK
  5
20
330
1F
100
AcDbEntity
  8
0
100
AcDbBlockBegin
  2
*Model_Space
 70
     0
 10
0.0
 20
0.0
 30
0.0
  3
*Model_Space
  1

  0
ENDBLK
  5
21
330
1F
100
AcDbEntity
  8
0
100
AcDbBlockEnd
  0
BLOCK
  5
1C
330
1B
100
AcDbEntity
 67
     1
  8
0
100
AcDbBlockBegin
  2
*Paper_Space
 70
     0
 10
0.0
 20
0.0
 30
0.0
  3
*Paper_Space
  1

  0
ENDBLK
  5
1D
330
1B
100
AcDbEntity
 67
     1
  8
0
100
AcDbBlockEnd
  0
BLOCK
  5
24
330
23
100
AcDbEntity
  8
0
100
AcDbBlockBegin
  2
*Paper_Space0
 70
     0
 10
0.0
 20
0.0
 30
0.0
  3
*Paper_Space0
  1

  0
ENDBLK
  5
25
330
23
100
AcDbEntity
  8
0
100
AcDbBlockEnd
  0
ENDSEC
  0
SECTION
  2
ENTITIES
  0
SPLINE
  5
60
330
1F
100
AcDbEntity
  8
Layer 1
 62
   250
370
    20
100
AcDbSpline
210
0.0
220
0.0
230
1.0
 70
    11
 71
     3
 72
    29
 73
    25
 74
     0
 42
0.0000000001
 43
0.0000000001
 40
0.0
 40
0.0
 40
0.0
 40
0.0
 40
0.125
 40
0.125
 40
0.125
 40
0.25
 40
0.25
 40
0.25
 40
0.375
 40
0.375
 40
0.375
 40
0.5
 40
0.5
 40
0.5
 40
0.625
 40
0.625
 40
0.625
 40
0.75
 40
0.75
 40
0.75
 40
0.875
 40
0.875
 40
0.875
 40
1.0
 40
1.0
 40
1.0
 40
1.0
 10
-1052.1979
 20
-328.3447
 30
0.0
 10
-979.9915
 20
-215.2626
 30
0.0
 10
-818.387
 20
-245.8254
 30
0.0
 10
-784.0031
 20
-332.9292
 30
0.0
 10
-746.1807
 20
-331.401
 30
0.0
 10
-728.7234
 20
-278.8257
 30
0.0
 10
-749.6191
 20
-253.4661
 30
0.0
 10
-682.5704
 20
-258.0504
 30
0.0
 10
-673.9743
 20
-180.1155
 30
0.0
 10
-747.8999
 20
-177.0592
 30
0.0
 10
-730.9353
 20
-149.8651
 30
0.0
 10
-744.4615
 20
-105.2368
 30
0.0
 10
-780.5646
 20
-94.5398
 30
0.0
 10
-837.2982
 20
-177.0592
 30
0.0
 10
-969.6764
 20
-225.9596
 30
0.0
 10
-1055.6362
 20
-94.5398
 30
0.0
 10
-1068.6767
 20
-91.8327
 30
0.0
 10
-1102.0546
 20
-141.9121
 30
0.0
 10
-1088.301
 20
-174.003
 30
0.0
 10
-1133.0001
 20
-167.8904
 30
0.0
 10
-1170.8225
 20
-244.2972
 30
0.0
 10
-1090.0202
 20
-248.8816
 30
0.0
 10
-1090.0202
 20
-248.8816
 30
0.0
 10
-1102.6748
 20
-318.3429
 30
0.0
 10
-1052.1979
 20
-328.3447
 30
0.0
  0
SPLINE
  5
61
330
1F
100
AcDbEntity
  8
Layer 1
 62
   250
370
    20
100
AcDbSpline
210
0.0
220
0.0
230
1.0
 70
    11
 71
     3
 72
    17
 73
    13
 74
     0
 42
0.0000000001
 43
0.0000000001
 40
0.0
 40
0.0
 40
0.0
 40
0.0
 40
0.25
 40
0.25
 40
0.25
 40
0.5
 40
0.5
 40
0.5
 40
0.75
 40
0.75
 40
0.75
 40
1.0
 40
1.0
 40
1.0
 40
1.0
 10
-1006.6718
 20
-22.8399
 30
0.0
 10
-1006.6718
 20
-22.8399
 30
0.0
 10
-826.9829
 20
-24.2456
 30
0.0
 10
-826.9829
 20
-24.2456
 30
0.0
 10
-826.9829
 20
-24.2456
 30
0.0
 10
-826.9829
 20
-91.4836
 30
0.0
 10
-826.9829
 20
-91.4836
 30
0.0
 10
-849.3325
 20
-131.2151
 30
0.0
 10
-949.232
 20
-164.2768
 30
0.0
 10
-1005.7795
 20
-88.4273
 30
0.0
 10
-1005.7795
 20
-88.4273
 30
0.0
 10
-1006.6718
 20
-22.8399
 30
0.0
 10
-1006.6718
 20
-22.8399
 30
0.0
  0
SPLINE
  5
62
330
1F
100
AcDbEntity
  8
Layer 1
 62
   250
370
    20
100
AcDbSpline
210
0.0
220
0.0
230
1.0
 70
    11
 71
     3
 72
    17
 73
    13
 74
     0
 42
0.0000000001
 43
0.0000000001
 40
0.0
 40
0.0
 40
0.0
 40
0.0
 40
0.25
 40
0.25
 40
0.25
 40
0.5
 40
0.5
 40
0.5
 40
0.75
 40
0.75
 40
0.75
 40
1.0
 40
1.0
 40
1.0
 40
1.0
 10
-1005.7795
 20
17.0141
 30
0.0
 10
-1005.7795
 20
17.0141
 30
0.0
 10
-826.9829
 20
17.0141
 30
0.0
 10
-826.9829
 20
17.0141
 30
0.0
 10
-826.9829
 20
17.0141
 30
0.0
 10
-826.9829
 20
86.2947
 30
0.0
 10
-826.9829
 20
86.2886
 30
0.0
 10
-849.3325
 20
127.2267
 30
0.0
 10
-949.232
 20
161.2898
 30
0.0
 10
-1005.7795
 20
83.1405
 30
0.0
 10
-1005.7795
 20
83.1374
 30
0.0
 10
-1005.7795
 20
17.0141
 30
0.0
 10
-1005.7795
 20
17.0141
 30
0.0
  0
SPLINE
  5
63
330
1F
100
AcDbEntity
  8
Layer 1
 62
   250
370
    20
100
AcDbSpline
210
0.0
220
0.0
230
1.0
 70
    11
 71
     3
 72
    23
 73
    19
 74
     0
 42
0.0000000001
 43
0.0000000001
 40
0.0
 40
0.0
 40
0.0
 40
0.0
 40
0.1666666666666667
 40
0.1666666666666667
 40
0.1666666666666667
 40
0.3333333333333333
 40
0.3333333333333333
 40
0.3333333333333333
 40
0.5
 40
0.5
 40
0.5
 40
0.6666666666666666
 40
0.6666666666666666
 40
0.6666666666666666
 40
0.8333333333333333
 40
0.8333333333333333
 40
0.8333333333333333
 40
1.0
 40
1.0
 40
1.0
 40
1.0
 10
-782.2838
 20
-54.8083
 30
0.0
 10
-782.2838
 20
-54.8083
 30
0.0
 10
-780.5646
 20
-24.2456
 30
0.0
 10
-780.5646
 20
-24.2456
 30
0.0
 10
-780.5646
 20
-24.2456
 30
0.0
 10
-636.152
 20
-24.2456
 30
0.0
 10
-636.152
 20
-24.2456
 30
0.0
 10
-636.152
 20
-24.2456
 30
0.0
 10
-636.152
 20
-198.4531
 30
0.0
 10
-636.152
 20
-198.4531
 30
0.0
 10
-636.152
 20
-198.4531
 30
0.0
 10
-658.5016
 20
-198.4531
 30
0.0
 10
-658.5016
 20
-198.4531
 30
0.0
 10
-658.5016
 20
-198.4531
 30
0.0
 10
-649.9401
 20
-168.2303
 30
0.0
 10
-696.3239
 20
-149.5528
 30
0.0
 10
-691.1319
 20
-112.5375
 30
0.0
 10
-727.2695
 20
-59.3927
 30
0.0
 10
-782.2838
 20
-54.8083
 30
0.0
  0
SPLINE
  5
64
330
1F
100
AcDbEntity
  8
Layer 1
 62
   250
370
    20
100
AcDbSpline
210
0.0
220
0.0
230
1.0
 70
    11
 71
     3
 72
    23
 73
    19
 74
     0
 42
0.0000000001
 43
0.0000000001
 40
0.0
 40
0.0
 40
0.0
 40
0.0
 40
0.1666666666666667
 40
0.1666666666666667
 40
0.1666666666666667
 40
0.3333333333333333
 40
0.3333333333333333
 40
0.3333333333333333
 40
0.5
 40
0.5
 40
0.5
 40
0.6666666666666666
 40
0.6666666666666666
 40
0.6666666666666666
 40
0.8333333333333333
 40
0.8333333333333333
 40
0.8333333333333333
 40
1.0
 40
1.0
 40
1.0
 40
1.0
 10
-778.8454
 20
51.4355
 30
0.0
 10
-778.8454
 20
51.4355
 30
0.0
 10
-778.8454
 20
17.0141
 30
0.0
 10
-778.8454
 20
17.0141
 30
0.0
 10
-778.8454
 20
17.0141
 30
0.0
 10
-634.4329
 20
17.0141
 30
0.0
 10
-634.4329
 20
17.0141
 30
0.0
 10
-634.4329
 20
17.0141
 30
0.0
 10
-634.4329
 20
195.8061
 30
0.0
 10
-634.4329
 20
195.8061
 30
0.0
 10
-634.4329
 20
195.8061
 30
0.0
 10
-656.7824
 20
195.8061
 30
0.0
 10
-656.7824
 20
195.8061
 30
0.0
 10
-656.7824
 20
195.8061
 30
0.0
 10
-649.9401
 20
166.3152
 30
0.0
 10
-694.6048
 20
145.6195
 30
0.0
 10
-689.4127
 20
107.6304
 30
0.0
 10
-725.5503
 20
65.3082
 30
0.0
 10
-778.8454
 20
51.4355
 30
0.0
  0
SPLINE
  5
65
330
1F
100
AcDbEntity
  8
Layer 1
 62
   250
370
    20
100
AcDbSpline
210
0.0
220
0.0
230
1.0
 70
    11
 71
     3
 72
    23
 73
    19
 74
     0
 42
0.0000000001
 43
0.0000000001
 40
0.0
 40
0.0
 40
0.0
 40
0.0
 40
0.1666666666666667
 40
0.1666666666666667
 40
0.1666666666666667
 40
0.3333333333333333
 40
0.3333333333333333
 40
0.3333333333333333
 40
0.5
 40
0.5
 40
0.5
 40
0.6666666666666666
 40
0.6666666666666666
 40
0.6666666666666666
 40
0.8333333333333333
 40
0.8333333333333333
 40
0.8333333333333333
 40
1.0
 40
1.0
 40
1.0
 40
1.0
 10
-443.6019
 20
-54.8083
 30
0.0
 10
-443.6019
 20
-54.8083
 30
0.0
 10
-445.3211
 20
-24.2456
 30
0.0
 10
-445.3211
 20
-24.2456
 30
0.0
 10
-445.3211
 20
-24.2456
 30
0.0
 10
-589.7337
 20
-24.2456
 30
0.0
 10
-589.7337
 20
-24.2456
 30
0.0
 10
-589.7337
 20
-24.2456
 30
0.0
 10
-589.7337
 20
-198.4531
 30
0.0
 10
-589.7337
 20
-198.4531
 30
0.0
 10
-589.7337
 20
-198.4531
 30
0.0
 10
-567.3841
 20
-198.4531
 30
0.0
 10
-567.3841
 20
-198.4531
 30
0.0
 10
-567.3841
 20
-198.4531
 30
0.0
 10
-575.9456
 20
-168.2303
 30
0.0
 10
-529.5618
 20
-149.5528
 30
0.0
 10
-534.7538
 20
-112.5375
 30
0.0
 10
-495.5155
 20
-64.2588
 30
0.0
 10
-443.6019
 20
-54.8083
 30
0.0
  0
SPLINE
  5
66
330
1F
100
AcDbEntity
  8
Layer 1
 62
   250
370
    20
100
AcDbSpline
210
0.0
220
0.0
230
1.0
 70
    11
 71
     3
 72
    23
 73
    19
 74
     0
 42
0.0000000001
 43
0.0000000001
 40
0.0
 40
0.0
 40
0.0
 40
0.0
 40
0.1666666666666667
 40
0.1666666666666667
 40
0.1666666666666667
 40
0.3333333333333333
 40
0.3333333333333333
 40
0.3333333333333333
 40
0.5
 40
0.5
 40
0.5
 40
0.6666666666666666
 40
0.6666666666666666
 40
0.6666666666666666
 40
0.8333333333333333
 40
0.8333333333333333
 40
0.8333333333333333
 40
1.0
 40
1.0
 40
1.0
 40
1.0
 10
-447.0403
 20
51.4355
 30
0.0
 10
-447.0403
 20
51.4355
 30
0.0
 10
-447.0403
 20
17.0141
 30
0.0
 10
-447.0403
 20
17.0141
 30
0.0
 10
-447.0403
 20
17.0141
 30
0.0
 10
-591.4529
 20
17.0141
 30
0.0
 10
-591.4529
 20
17.0141
 30
0.0
 10
-591.4529
 20
17.0141
 30
0.0
 10
-591.4529
 20
195.8061
 30
0.0
 10
-591.4529
 20
195.8061
 30
0.0
 10
-591.4529
 20
195.8061
 30
0.0
 10
-569.1033
 20
195.8061
 30
0.0
 10
-569.1033
 20
195.8061
 30
0.0
 10
-569.1033
 20
195.8061
 30
0.0
 10
-575.9456
 20
166.3152
 30
0.0
 10
-531.281
 20
145.6195
 30
0.0
 10
-528.9968
 20
92.6921
 30
0.0
 10
-500.3354
 20
65.3082
 30
0.0
 10
-447.0403
 20
51.4355
 30
0.0
  0
SPLINE
  5
67
330
1F
100
AcDbEntity
  8
Layer 1
 62
   250
370
    20
100
AcDbSpline
210
0.0
220
0.0
230
1.0
 70
    11
 71
     3
 72
    23
 73
    19
 74
     0
 42
0.0000000001
 43
0.0000000001
 40
0.0
 40
0.0
 40
0.0
 40
0.0
 40
0.1666666666666667
 40
0.1666666666666667
 40
0.1666666666666667
 40
0.3333333333333333
 40
0.3333333333333333
 40
0.3333333333333333
 40
0.5
 40
0.5
 40
0.5
 40
0.6666666666666666
 40
0.6666666666666666
 40
0.6666666666666666
 40
0.8333333333333333
 40
0.8333333333333333
 40
0.8333333333333333
 40
1.0
 40
1.0
 40
1.0
 40
1.0
 10
-780.5646
 20
-478.1021
 30
0.0
 10
-780.5646
 20
-478.1021
 30
0.0
 10
-778.8454
 20
-447.5394
 30
0.0
 10
-778.8454
 20
-447.5394
 30
0.0
 10
-778.8454
 20
-447.5394
 30
0.0
 10
-634.4329
 20
-447.5394
 30
0.0
 10
-634.4329
 20
-447.5394
 30
0.0
 10
-634.4329
 20
-447.5394
 30
0.0
 10
-634.4329
 20
-590.0266
 30
0.0
 10
-634.4329
 20
-590.0266
 30
0.0
 10
-634.4329
 20
-590.0266
 30
0.0
 10
-671.1561
 20
-590.0266
 30
0.0
 10
-671.1561
 20
-590.0266
 30
0.0
 10
-676.6927
 20
-583.1852
 30
0.0
 10
-684.2689
 20
-576.8277
 30
0.0
 10
-694.6048
 20
-572.8466
 30
0.0
 10
-698.3291
 20
-542.4369
 30
0.0
 10
-725.5503
 20
-487.2709
 30
0.0
 10
-780.5646
 20
-478.1021
 30
0.0
  0
SPLINE
  5
68
330
1F
100
AcDbEntity
  8
Layer 1
 62
   250
370
    20
100
AcDbSpline
210
0.0
220
0.0
230
1.0
 70
    11
 71
     3
 72
    23
 73
    19
 74
     0
 42
0.0000000001
 43
0.0000000001
 40
0.0
 40
0.0
 40
0.0
 40
0.0
 40
0.1666666666666667
 40
0.1666666666666667
 40
0.1666666666666667
 40
0.3333333333333333
 40
0.3333333333333333
 40
0.3333333333333333
 40
0.5
 40
0.5
 40
0.5
 40
0.6666666666666666
 40
0.6666666666666666
 40
0.6666666666666666
 40
0.8333333333333333
 40
0.8333333333333333
 40
0.8333333333333333
 40
1.0
 40
1.0
 40
1.0
 40
1.0
 10
-777.1262
 20
-371.8584
 30
0.0
 10
-777.1262
 20
-371.8584
 30
0.0
 10
-777.1262
 20
-406.2797
 30
0.0
 10
-777.1262
 20
-406.2797
 30
0.0
 10
-777.1262
 20
-406.2797
 30
0.0
 10
-632.7136
 20
-406.2797
 30
0.0
 10
-632.7136
 20
-406.2797
 30
0.0
 10
-632.7136
 20
-406.2797
 30
0.0
 10
-632.7136
 20
-227.4877
 30
0.0
 10
-632.7136
 20
-227.4877
 30
0.0
 10
-632.7136
 20
-227.4877
 30
0.0
 10
-655.0632
 20
-227.4877
 30
0.0
 10
-655.0632
 20
-227.4877
 30
0.0
 10
-655.0632
 20
-227.4877
 30
0.0
 10
-648.2208
 20
-256.9786
 30
0.0
 10
-692.8855
 20
-277.6743
 30
0.0
 10
-694.5703
 20
-329.4166
 30
0.0
 10
-732.968
 20
-353.4319
 30
0.0
 10
-777.1262
 20
-371.8584
 30
0.0
  0
SPLINE
  5
69
330
1F
100
AcDbEntity
  8
Layer 1
 62
   250
370
    20
100
AcDbSpline
210
0.0
220
0.0
230
1.0
 70
    11
 71
     3
 72
    23
 73
    19
 74
     0
 42
0.0000000001
 43
0.0000000001
 40
0.0
 40
0.0
 40
0.0
 40
0.0
 40
0.1666666666666667
 40
0.1666666666666667
 40
0.1666666666666667
 40
0.3333333333333333
 40
0.3333333333333333
 40
0.3333333333333333
 40
0.5
 40
0.5
 40
0.5
 40
0.6666666666666666
 40
0.6666666666666666
 40
0.6666666666666666
 40
0.8333333333333333
 40
0.8333333333333333
 40
0.8333333333333333
 40
1.0
 40
1.0
 40
1.0
 40
1.0
 10
-441.8827
 20
-478.1021
 30
0.0
 10
-441.8827
 20
-478.1021
 30
0.0
 10
-443.6019
 20
-447.5394
 30
0.0
 10
-443.6019
 20
-447.5394
 30
0.0
 10
-443.6019
 20
-447.5394
 30
0.0
 10
-588.0145
 20
-447.5394
 30
0.0
 10
-588.0145
 20
-447.5394
 30
0.0
 10
-588.0145
 20
-447.5394
 30
0.0
 10
-588.0145
 20
-590.0266
 30
0.0
 10
-588.0145
 20
-590.0266
 30
0.0
 10
-588.0145
 20
-590.0266
 30
0.0
 10
-554.9776
 20
-590.0266
 30
0.0
 10
-554.9776
 20
-590.0266
 30
0.0
 10
-549.2102
 20
-584.0059
 30
0.0
 10
-540.6177
 20
-577.9914
 30
0.0
 10
-527.8426
 20
-572.8466
 30
0.0
 10
-533.0346
 20
-535.8314
 30
0.0
 10
-493.7963
 20
-487.5526
 30
0.0
 10
-441.8827
 20
-478.1021
 30
0.0
  0
SPLINE
  5
6A
330
1F
100
AcDbEntity
  8
Layer 1
 62
   250
370
    20
100
AcDbSpline
210
0.0
220
0.0
230
1.0
 70
    11
 71
     3
 72
    23
 73
    19
 74
     0
 42
0.0000000001
 43
0.0000000001
 40
0.0
 40
0.0
 40
0.0
 40
0.0
 40
0.1666666666666667
 40
0.1666666666666667
 40
0.1666666666666667
 40
0.3333333333333333
 40
0.3333333333333333
 40
0.3333333333333333
 40
0.5
 40
0.5
 40
0.5
 40
0.6666666666666666
 40
0.6666666666666666
 40
0.6666666666666666
 40
0.8333333333333333
 40
0.8333333333333333
 40
0.8333333333333333
 40
1.0
 40
1.0
 40
1.0
 40
1.0
 10
-445.3211
 20
-371.8584
 30
0.0
 10
-445.3211
 20
-371.8584
 30
0.0
 10
-445.3211
 20
-406.2797
 30
0.0
 10
-445.3211
 20
-406.2797
 30
0.0
 10
-445.3211
 20
-406.2797
 30
0.0
 10
-589.7337
 20
-406.2797
 30
0.0
 10
-589.7337
 20
-406.2797
 30
0.0
 10
-589.7337
 20
-406.2797
 30
0.0
 10
-589.7337
 20
-227.4877
 30
0.0
 10
-589.7337
 20
-227.4877
 30
0.0
 10
-589.7337
 20
-227.4877
 30
0.0
 10
-567.3841
 20
-227.4877
 30
0.0
 10
-567.3841
 20
-227.4877
 30
0.0
 10
-567.3841
 20
-227.4877
 30
0.0
 10
-574.2265
 20
-256.9786
 30
0.0
 10
-529.5618
 20
-277.6743
 30
0.0
 10
-527.2775
 20
-330.6017
 30
0.0
 10
-498.6162
 20
-357.9857
 30
0.0
 10
-445.3211
 20
-371.8584
 30
0.0
  0
SPLINE
  5
6B
330
1F
100
AcDbEntity
  8
Layer 1
 62
   250
370
    20
100
AcDbSpline
210
0.0
220
0.0
230
1.0
 70
    11
 71
     3
 72
    23
 73
    19
 74
     0
 42
0.0000000001
 43
0.0000000001
 40
0.0
 40
0.0
 40
0.0
 40
0.0
 40
0.1666666666666667
 40
0.1666666666666667
 40
0.1666666666666667
 40
0.3333333333333333
 40
0.3333333333333333
 40
0.3333333333333333
 40
0.5
 40
0.5
 40
0.5
 40
0.6666666666666666
 40
0.6666666666666666
 40
0.6666666666666666
 40
0.8333333333333333
 40
0.8333333333333333
 40
0.8333333333333333
 40
1.0
 40
1.0
 40
1.0
 40
1.0
 10
-782.2838
 20
366.9574
 30
0.0
 10
-782.2838
 20
366.9574
 30
0.0
 10
-780.5646
 20
397.5201
 30
0.0
 10
-780.5646
 20
397.5201
 30
0.0
 10
-780.5646
 20
397.5201
 30
0.0
 10
-636.152
 20
397.5201
 30
0.0
 10
-636.152
 20
397.5201
 30
0.0
 10
-636.152
 20
397.5201
 30
0.0
 10
-636.152
 20
223.3126
 30
0.0
 10
-636.152
 20
223.3126
 30
0.0
 10
-636.152
 20
223.3126
 30
0.0
 10
-647.3251
 20
223.3126
 30
0.0
 10
-647.3251
 20
223.3126
 30
0.0
 10
-647.3251
 20
223.3126
 30
0.0
 10
-658.536
 20
270.3448
 30
0.0
 10
-694.6048
 20
273.741
 30
0.0
 10
-696.6099
 20
328.6008
 30
0.0
 10
-727.2695
 20
357.7885
 30
0.0
 10
-782.2838
 20
366.9574
 30
0.0
  0
SPLINE
  5
6C
330
1F
100
AcDbEntity
  8
Layer 1
 62
   250
370
    20
100
AcDbSpline
210
0.0
220
0.0
230
1.0
 70
    11
 71
     3
 72
    23
 73
    19
 74
     0
 42
0.0000000001
 43
0.0000000001
 40
0.0
 40
0.0
 40
0.0
 40
0.0
 40
0.1666666666666667
 40
0.1666666666666667
 40
0.1666666666666667
 40
0.3333333333333333
 40
0.3333333333333333
 40
0.3333333333333333
 40
0.5
 40
0.5
 40
0.5
 40
0.6666666666666666
 40
0.6666666666666666
 40
0.6666666666666666
 40
0.8333333333333333
 40
0.8333333333333333
 40
0.8333333333333333
 40
1.0
 40
1.0
 40
1.0
 40
1.0
 10
-778.8454
 20
473.2012
 30
0.0
 10
-778.8454
 20
473.2012
 30
0.0
 10
-778.8454
 20
438.7798
 30
0.0
 10
-778.8454
 20
438.7798
 30
0.0
 10
-778.8454
 20
438.7798
 30
0.0
 10
-634.4329
 20
438.7798
 30
0.0
 10
-634.4329
 20
438.7798
 30
0.0
 10
-634.4329
 20
438.7798
 30
0.0
 10
-634.4329
 20
589.9734
 30
0.0
 10
-634.4329
 20
589.9734
 30
0.0
 10
-634.4329
 20
589.9734
 30
0.0
 10
-664.6721
 20
589.9734
 30
0.0
 10
-664.6721
 20
589.9734
 30
0.0
 10
-670.2501
 20
582.4246
 30
0.0
 10
-679.4593
 20
574.4042
 30
0.0
 10
-694.6048
 20
567.3852
 30
0.0
 10
-696.2895
 20
515.6429
 30
0.0
 10
-734.6872
 20
491.6276
 30
0.0
 10
-778.8454
 20
473.2012
 30
0.0
  0
SPLINE
  5
6D
330
1F
100
AcDbEntity
  8
Layer 1
 62
   250
370
    20
100
AcDbSpline
210
0.0
220
0.0
230
1.0
 70
    11
 71
     3
 72
    23
 73
    19
 74
     0
 42
0.0000000001
 43
0.0000000001
 40
0.0
 40
0.0
 40
0.0
 40
0.0
 40
0.1666666666666667
 40
0.1666666666666667
 40
0.1666666666666667
 40
0.3333333333333333
 40
0.3333333333333333
 40
0.3333333333333333
 40
0.5
 40
0.5
 40
0.5
 40
0.6666666666666666
 40
0.6666666666666666
 40
0.6666666666666666
 40
0.8333333333333333
 40
0.8333333333333333
 40
0.8333333333333333
 40
1.0
 40
1.0
 40
1.0
 40
1.0
 10
-443.6019
 20
366.9574
 30
0.0
 10
-443.6019
 20
366.9574
 30
0.0
 10
-445.3211
 20
397.5201
 30
0.0
 10
-445.3211
 20
397.5201
 30
0.0
 10
-445.3211
 20
397.5201
 30
0.0
 10
-589.7337
 20
397.5201
 30
0.0
 10
-589.7337
 20
397.5201
 30
0.0
 10
-589.7337
 20
397.5201
 30
0.0
 10
-589.7337
 20
223.3126
 30
0.0
 10
-589.7337
 20
223.3126
 30
0.0
 10
-589.7337
 20
223.3126
 30
0.0
 10
-567.3841
 20
223.3126
 30
0.0
 10
-567.3841
 20
223.3126
 30
0.0
 10
-567.3841
 20
223.3126
 30
0.0
 10
-575.9456
 20
253.5353
 30
0.0
 10
-529.5618
 20
272.2129
 30
0.0
 10
-536.473
 20
307.7
 30
0.0
 10
-495.5155
 20
357.5068
 30
0.0
 10
-443.6019
 20
366.9574
 30
0.0
  0
SPLINE
  5
6E
330
1F
100
AcDbEntity
  8
Layer 1
 62
   250
370
    20
100
AcDbSpline
210
0.0
220
0.0
230
1.0
 70
    11
 71
     3
 72
    23
 73
    19
 74
     0
 42
0.0000000001
 43
0.0000000001
 40
0.0
 40
0.0
 40
0.0
 40
0.0
 40
0.1666666666666667
 40
0.1666666666666667
 40
0.1666666666666667
 40
0.3333333333333333
 40
0.3333333333333333
 40
0.3333333333333333
 40
0.5
 40
0.5
 40
0.5
 40
0.6666666666666666
 40
0.6666666666666666
 40
0.6666666666666666
 40
0.8333333333333333
 40
0.8333333333333333
 40
0.8333333333333333
 40
1.0
 40
1.0
 40
1.0
 40
1.0
 10
-447.0403
 20
473.2012
 30
0.0
 10
-447.0403
 20
473.2012
 30
0.0
 10
-447.0403
 20
438.7798
 30
0.0
 10
-447.0403
 20
438.7798
 30
0.0
 10
-447.0403
 20
438.7798
 30
0.0
 10
-591.4529
 20
438.7798
 30
0.0
 10
-591.4529
 20
438.7798
 30
0.0
 10
-591.4529
 20
438.7798
 30
0.0
 10
-591.4529
 20
589.9734
 30
0.0
 10
-591.4529
 20
589.9734
 30
0.0
 10
-591.4529
 20
589.9734
 30
0.0
 10
-561.2136
 20
589.9734
 30
0.0
 10
-561.2136
 20
589.9734
 30
0.0
 10
-555.6357
 20
582.4246
 30
0.0
 10
-546.4264
 20
574.4042
 30
0.0
 10
-531.281
 20
567.3852
 30
0.0
 10
-509.0658
 20
505.9719
 30
0.0
 10
-500.3354
 20
487.0738
 30
0.0
 10
-447.0403
 20
473.2012
 30
0.0
  0
SPLINE
  5
6F
330
1F
100
AcDbEntity
  8
Layer 1
 62
   250
370
    20
100
AcDbSpline
210
0.0
220
0.0
230
1.0
 70
    11
 71
     3
 72
    29
 73
    25
 74
     0
 42
0.0000000001
 43
0.0000000001
 40
0.0
 40
0.0
 40
0.0
 40
0.0
 40
0.125
 40
0.125
 40
0.125
 40
0.25
 40
0.25
 40
0.25
 40
0.375
 40
0.375
 40
0.375
 40
0.5
 40
0.5
 40
0.5
 40
0.625
 40
0.625
 40
0.625
 40
0.75
 40
0.75
 40
0.75
 40
0.875
 40
0.875
 40
0.875
 40
1.0
 40
1.0
 40
1.0
 40
1.0
 10
-1051.9946
 20
94.9001
 30
0.0
 10
-979.7883
 20
207.9822
 30
0.0
 10
-818.1837
 20
177.4195
 30
0.0
 10
-783.7998
 20
90.3157
 30
0.0
 10
-745.9774
 20
91.8438
 30
0.0
 10
-728.5201
 20
144.419
 30
0.0
 10
-749.4158
 20
169.7788
 30
0.0
 10
-682.3671
 20
165.1943
 30
0.0
 10
-673.7711
 20
243.1293
 30
0.0
 10
-747.6966
 20
246.1856
 30
0.0
 10
-730.732
 20
273.3797
 30
0.0
 10
-744.2582
 20
318.008
 30
0.0
 10
-780.3614
 20
328.7049
 30
0.0
 10
-837.0949
 20
246.1856
 30
0.0
 10
-969.4731
 20
197.2852
 30
0.0
 10
-1055.433
 20
328.7049
 30
0.0
 10
-1068.4734
 20
331.4121
 30
0.0
 10
-1101.8514
 20
281.3327
 30
0.0
 10
-1088.0977
 20
249.2419
 30
0.0
 10
-1132.7969
 20
255.3544
 30
0.0
 10
-1170.6192
 20
178.9476
 30
0.0
 10
-1089.8169
 20
174.3632
 30
0.0
 10
-1089.8169
 20
174.3632
 30
0.0
 10
-1102.4715
 20
104.9019
 30
0.0
 10
-1051.9946
 20
94.9001
 30
0.0
  0
SPLINE
  5
70
330
1F
100
AcDbEntity
  8
Layer 1
 62
   250
370
    20
100
AcDbSpline
210
0.0
220
0.0
230
1.0
 70
    11
 71
     3
 72
    17
 73
    13
 74
     0
 42
0.0000000001
 43
0.0000000001
 40
0.0
 40
0.0
 40
0.0
 40
0.0
 40
0.25
 40
0.25
 40
0.25
 40
0.5
 40
0.5
 40
0.5
 40
0.75
 40
0.75
 40
0.75
 40
1.0
 40
1.0
 40
1.0
 40
1.0
 10
-1010.9371
 20
-449.0675
 30
0.0
 10
-1010.9371
 20
-449.0675
 30
0.0
 10
-828.7022
 20
-449.0675
 30
0.0
 10
-828.7022
 20
-449.0675
 30
0.0
 10
-828.7022
 20
-449.0675
 30
0.0
 10
-828.7022
 20
-516.3055
 30
0.0
 10
-828.7022
 20
-516.3055
 30
0.0
 10
-851.0518
 20
-556.0371
 30
0.0
 10
-954.3897
 20
-587.5706
 30
0.0
 10
-1010.9371
 20
-511.7211
 30
0.0
 10
-1010.9371
 20
-511.7211
 30
0.0
 10
-1010.9371
 20
-449.0675
 30
0.0
 10
-1010.9371
 20
-449.0675
 30
0.0
  0
SPLINE
  5
71
330
1F
100
AcDbEntity
  8
Layer 1
 62
   250
370
    20
100
AcDbSpline
210
0.0
220
0.0
230
1.0
 70
    11
 71
     3
 72
    17
 73
    13
 74
     0
 42
0.0000000001
 43
0.0000000001
 40
0.0
 40
0.0
 40
0.0
 40
0.0
 40
0.25
 40
0.25
 40
0.25
 40
0.5
 40
0.5
 40
0.5
 40
0.75
 40
0.75
 40
0.75
 40
1.0
 40
1.0
 40
1.0
 40
1.0
 10
-1010.9371
 20
-407.8078
 30
0.0
 10
-1010.9371
 20
-407.8078
 30
0.0
 10
-828.7022
 20
-407.8078
 30
0.0
 10
-828.7022
 20
-407.8078
 30
0.0
 10
-828.7022
 20
-407.8078
 30
0.0
 10
-828.7022
 20
-338.5272
 30
0.0
 10
-828.7022
 20
-338.5333
 30
0.0
 10
-851.0518
 20
-297.5952
 30
0.0
 10
-956.1088
 20
-262.004
 30
0.0
 10
-1012.6563
 20
-340.1533
 30
0.0
 10
-1012.6563
 20
-340.1564
 30
0.0
 10
-1010.9371
 20
-407.8078
 30
0.0
 10
-1010.9371
 20
-407.8078
 30
0.0
  0
SPLINE
  5
72
330
1F
100
AcDbEntity
  8
Layer 1
 62
   250
370
    20
100
AcDbSpline
210
0.0
220
0.0
230
1.0
 70
    11
 71
     3
 72
    17
 73
    13
 74
     0
 42
0.0000000001
 43
0.0000000001
 40
0.0
 40
0.0
 40
0.0
 40
0.0
 40
0.25
 40
0.25
 40
0.25
 40
0.5
 40
0.5
 40
0.5
 40
0.75
 40
0.75
 40
0.75
 40
1.0
 40
1.0
 40
1.0
 40
1.0
 10
-1005.7795
 20
400.5886
 30
0.0
 10
-1005.7795
 20
400.5886
 30
0.0
 10
-826.9829
 20
400.5764
 30
0.0
 10
-826.9829
 20
400.5764
 30
0.0
 10
-826.9829
 20
400.5764
 30
0.0
 10
-826.9829
 20
333.3384
 30
0.0
 10
-826.9829
 20
333.3384
 30
0.0
 10
-849.3325
 20
293.6068
 30
0.0
 10
-949.232
 20
260.5452
 30
0.0
 10
-1005.7795
 20
336.3946
 30
0.0
 10
-1005.7795
 20
336.3946
 30
0.0
 10
-1005.7795
 20
400.5886
 30
0.0
 10
-1005.7795
 20
400.5886
 30
0.0
  0
SPLINE
  5
73
330
1F
100
AcDbEntity
  8
Layer 1
 62
   250
370
    20
100
AcDbSpline
210
0.0
220
0.0
230
1.0
 70
    11
 71
     3
 72
    17
 73
    13
 74
     0
 42
0.0000000001
 43
0.0000000001
 40
0.0
 40
0.0
 40
0.0
 40
0.0
 40
0.25
 40
0.25
 40
0.25
 40
0.5
 40
0.5
 40
0.5
 40
0.75
 40
0.75
 40
0.75
 40
1.0
 40
1.0
 40
1.0
 40
1.0
 10
-1005.7795
 20
441.836
 30
0.0
 10
-1005.7795
 20
441.836
 30
0.0
 10
-826.9829
 20
441.836
 30
0.0
 10
-826.9829
 20
441.836
 30
0.0
 10
-826.9829
 20
441.836
 30
0.0
 10
-826.9829
 20
511.1167
 30
0.0
 10
-826.9829
 20
511.1106
 30
0.0
 10
-849.3325
 20
552.0487
 30
0.0
 10
-949.232
 20
586.1117
 30
0.0
 10
-1005.7795
 20
507.9624
 30
0.0
 10
-1005.7795
 20
507.9593
 30
0.0
 10
-1005.7795
 20
441.836
 30
0.0
 10
-1005.7795
 20
441.836
 30
0.0
  0
SPLINE
  5
74
330
1F
100
AcDbEntity
  8
Layer 1
 62
   250
370
    20
100
AcDbSpline
210
0.0
220
0.0
230
1.0
 70
    11
 71
     3
 72
    23
 73
    19
 74
     0
 42
0.0000000001
 43
0.0000000001
 40
0.0
 40
0.0
 40
0.0
 40
0.0
 40
0.1666666666666667
 40
0.1666666666666667
 40
0.1666666666666667
 40
0.3333333333333333
 40
0.3333333333333333
 40
0.3333333333333333
 40
0.5
 40
0.5
 40
0.5
 40
0.6666666666666666
 40
0.6666666666666666
 40
0.6666666666666666
 40
0.8333333333333333
 40
0.8333333333333333
 40
0.8333333333333333
 40
1.0
 40
1.0
 40
1.0
 40
1.0
 10
-1052.1979
 20
-478.1021
 30
0.0
 10
-1052.1979
 20
-478.1021
 30
0.0
 10
-1053.9171
 20
-447.5394
 30
0.0
 10
-1053.9171
 20
-447.5394
 30
0.0
 10
-1053.9171
 20
-447.5394
 30
0.0
 10
-1198.3297
 20
-447.5394
 30
0.0
 10
-1198.3297
 20
-447.5394
 30
0.0
 10
-1198.3297
 20
-447.5394
 30
0.0
 10
-1198.3297
 20
-590.0266
 30
0.0
 10
-1198.3297
 20
-590.0266
 30
0.0
 10
-1198.3297
 20
-590.0266
 30
0.0
 10
-1165.2928
 20
-590.0266
 30
0.0
 10
-1165.2928
 20
-590.0266
 30
0.0
 10
-1159.5254
 20
-584.0059
 30
0.0
 10
-1150.9329
 20
-577.9914
 30
0.0
 10
-1138.1578
 20
-572.8466
 30
0.0
 10
-1143.3498
 20
-535.8314
 30
0.0
 10
-1104.1114
 20
-487.5526
 30
0.0
 10
-1052.1979
 20
-478.1021
 30
0.0
  0
SPLINE
  5
75
330
1F
100
AcDbEntity
  8
Layer 1
 62
   250
370
    20
100
AcDbSpline
210
0.0
220
0.0
230
1.0
 70
    11
 71
     3
 72
    23
 73
    19
 74
     0
 42
0.0000000001
 43
0.0000000001
 40
0.0
 40
0.0
 40
0.0
 40
0.0
 40
0.1666666666666667
 40
0.1666666666666667
 40
0.1666666666666667
 40
0.3333333333333333
 40
0.3333333333333333
 40
0.3333333333333333
 40
0.5
 40
0.5
 40
0.5
 40
0.6666666666666666
 40
0.6666666666666666
 40
0.6666666666666666
 40
0.8333333333333333
 40
0.8333333333333333
 40
0.8333333333333333
 40
1.0
 40
1.0
 40
1.0
 40
1.0
 10
-1055.6362
 20
-371.8584
 30
0.0
 10
-1055.6362
 20
-371.8584
 30
0.0
 10
-1055.6362
 20
-406.2797
 30
0.0
 10
-1055.6362
 20
-406.2797
 30
0.0
 10
-1055.6362
 20
-406.2797
 30
0.0
 10
-1200.0489
 20
-406.2797
 30
0.0
 10
-1200.0489
 20
-406.2797
 30
0.0
 10
-1200.0489
 20
-406.2797
 30
0.0
 10
-1200.0489
 20
-227.4877
 30
0.0
 10
-1200.0489
 20
-227.4877
 30
0.0
 10
-1200.0489
 20
-227.4877
 30
0.0
 10
-1177.6993
 20
-227.4877
 30
0.0
 10
-1177.6993
 20
-227.4877
 30
0.0
 10
-1177.6993
 20
-227.4877
 30
0.0
 10
-1184.5416
 20
-256.9786
 30
0.0
 10
-1139.8769
 20
-277.6743
 30
0.0
 10
-1137.5927
 20
-330.6017
 30
0.0
 10
-1108.9314
 20
-357.9857
 30
0.0
 10
-1055.6362
 20
-371.8584
 30
0.0
  0
SPLINE
  5
76
330
1F
100
AcDbEntity
  8
Layer 1
 62
   250
370
    20
100
AcDbSpline
210
0.0
220
0.0
230
1.0
 70
    11
 71
     3
 72
    23
 73
    19
 74
     0
 42
0.0000000001
 43
0.0000000001
 40
0.0
 40
0.0
 40
0.0
 40
0.0
 40
0.1666666666666667
 40
0.1666666666666667
 40
0.1666666666666667
 40
0.3333333333333333
 40
0.3333333333333333
 40
0.3333333333333333
 40
0.5
 40
0.5
 40
0.5
 40
0.6666666666666666
 40
0.6666666666666666
 40
0.6666666666666666
 40
0.8333333333333333
 40
0.8333333333333333
 40
0.8333333333333333
 40
1.0
 40
1.0
 40
1.0
 40
1.0
 10
-1050.9059
 20
-53.3751
 30
0.0
 10
-1050.9059
 20
-53.3751
 30
0.0
 10
-1052.6251
 20
-22.8124
 30
0.0
 10
-1052.6251
 20
-22.8124
 30
0.0
 10
-1052.6251
 20
-22.8124
 30
0.0
 10
-1197.0377
 20
-22.8124
 30
0.0
 10
-1197.0377
 20
-22.8124
 30
0.0
 10
-1197.0377
 20
-22.8124
 30
0.0
 10
-1197.0377
 20
-197.0199
 30
0.0
 10
-1197.0377
 20
-197.0199
 30
0.0
 10
-1197.0377
 20
-197.0199
 30
0.0
 10
-1174.6881
 20
-197.0199
 30
0.0
 10
-1174.6881
 20
-197.0199
 30
0.0
 10
-1174.6881
 20
-197.0199
 30
0.0
 10
-1183.2496
 20
-166.7971
 30
0.0
 10
-1136.8658
 20
-148.1196
 30
0.0
 10
-1142.0578
 20
-111.1044
 30
0.0
 10
-1102.8195
 20
-62.8257
 30
0.0
 10
-1050.9059
 20
-53.3751
 30
0.0
  0
SPLINE
  5
77
330
1F
100
AcDbEntity
  8
Layer 1
 62
   250
370
    20
100
AcDbSpline
210
0.0
220
0.0
230
1.0
 70
    11
 71
     3
 72
    23
 73
    19
 74
     0
 42
0.0000000001
 43
0.0000000001
 40
0.0
 40
0.0
 40
0.0
 40
0.0
 40
0.1666666666666667
 40
0.1666666666666667
 40
0.1666666666666667
 40
0.3333333333333333
 40
0.3333333333333333
 40
0.3333333333333333
 40
0.5
 40
0.5
 40
0.5
 40
0.6666666666666666
 40
0.6666666666666666
 40
0.6666666666666666
 40
0.8333333333333333
 40
0.8333333333333333
 40
0.8333333333333333
 40
1.0
 40
1.0
 40
1.0
 40
1.0
 10
-1054.3443
 20
52.8687
 30
0.0
 10
-1054.3443
 20
52.8687
 30
0.0
 10
-1054.3443
 20
18.4473
 30
0.0
 10
-1054.3443
 20
18.4473
 30
0.0
 10
-1054.3443
 20
18.4473
 30
0.0
 10
-1198.7569
 20
18.4473
 30
0.0
 10
-1198.7569
 20
18.4473
 30
0.0
 10
-1198.7569
 20
18.4473
 30
0.0
 10
-1198.7569
 20
197.2393
 30
0.0
 10
-1198.7569
 20
197.2393
 30
0.0
 10
-1198.7569
 20
197.2393
 30
0.0
 10
-1176.4073
 20
197.2393
 30
0.0
 10
-1176.4073
 20
197.2393
 30
0.0
 10
-1176.4073
 20
197.2393
 30
0.0
 10
-1183.2496
 20
167.7484
 30
0.0
 10
-1138.585
 20
147.0527
 30
0.0
 10
-1136.3007
 20
94.1253
 30
0.0
 10
-1107.6394
 20
66.7413
 30
0.0
 10
-1054.3443
 20
52.8687
 30
0.0
  0
SPLINE
  5
78
330
1F
100
AcDbEntity
  8
Layer 1
 62
   250
370
    20
100
AcDbSpline
210
0.0
220
0.0
230
1.0
 70
    11
 71
     3
 72
    23
 73
    19
 74
     0
 42
0.0000000001
 43
0.0000000001
 40
0.0
 40
0.0
 40
0.0
 40
0.0
 40
0.1666666666666667
 40
0.1666666666666667
 40
0.1666666666666667
 40
0.3333333333333333
 40
0.3333333333333333
 40
0.3333333333333333
 40
0.5
 40
0.5
 40
0.5
 40
0.6666666666666666
 40
0.6666666666666666
 40
0.6666666666666666
 40
0.8333333333333333
 40
0.8333333333333333
 40
0.8333333333333333
 40
1.0
 40
1.0
 40
1.0
 40
1.0
 10
-1052.1979
 20
366.9574
 30
0.0
 10
-1052.1979
 20
366.9574
 30
0.0
 10
-1053.9171
 20
397.5201
 30
0.0
 10
-1053.9171
 20
397.5201
 30
0.0
 10
-1053.9171
 20
397.5201
 30
0.0
 10
-1198.3297
 20
397.5201
 30
0.0
 10
-1198.3297
 20
397.5201
 30
0.0
 10
-1198.3297
 20
397.5201
 30
0.0
 10
-1198.3297
 20
223.3126
 30
0.0
 10
-1198.3297
 20
223.3126
 30
0.0
 10
-1198.3297
 20
223.3126
 30
0.0
 10
-1175.9801
 20
223.3126
 30
0.0
 10
-1175.9801
 20
223.3126
 30
0.0
 10
-1175.9801
 20
223.3126
 30
0.0
 10
-1184.5416
 20
253.5353
 30
0.0
 10
-1138.1578
 20
272.2129
 30
0.0
 10
-1143.3498
 20
309.2281
 30
0.0
 10
-1104.1114
 20
357.5068
 30
0.0
 10
-1052.1979
 20
366.9574
 30
0.0
  0
SPLINE
  5
79
330
1F
100
AcDbEntity
  8
Layer 1
 62
   250
370
    20
100
AcDbSpline
210
0.0
220
0.0
230
1.0
 70
    11
 71
     3
 72
    23
 73
    19
 74
     0
 42
0.0000000001
 43
0.0000000001
 40
0.0
 40
0.0
 40
0.0
 40
0.0
 40
0.1666666666666667
 40
0.1666666666666667
 40
0.1666666666666667
 40
0.3333333333333333
 40
0.3333333333333333
 40
0.3333333333333333
 40
0.5
 40
0.5
 40
0.5
 40
0.6666666666666666
 40
0.6666666666666666
 40
0.6666666666666666
 40
0.8333333333333333
 40
0.8333333333333333
 40
0.8333333333333333
 40
1.0
 40
1.0
 40
1.0
 40
1.0
 10
-1055.6362
 20
473.2012
 30
0.0
 10
-1055.6362
 20
473.2012
 30
0.0
 10
-1055.6362
 20
438.7798
 30
0.0
 10
-1055.6362
 20
438.7798
 30
0.0
 10
-1055.6362
 20
438.7798
 30
0.0
 10
-1200.0489
 20
438.7798
 30
0.0
 10
-1200.0489
 20
438.7798
 30
0.0
 10
-1200.0489
 20
438.7798
 30
0.0
 10
-1200.0489
 20
589.9734
 30
0.0
 10
-1200.0489
 20
589.9734
 30
0.0
 10
-1200.0489
 20
589.9734
 30
0.0
 10
-1169.8096
 20
589.9734
 30
0.0
 10
-1169.8096
 20
589.9734
 30
0.0
 10
-1164.2317
 20
582.4246
 30
0.0
 10
-1155.0224
 20
574.4042
 30
0.0
 10
-1139.8769
 20
567.3852
 30
0.0
 10
-1137.5927
 20
514.4577
 30
0.0
 10
-1108.9314
 20
487.0738
 30
0.0
 10
-1055.6362
 20
473.2012
 30
0.0
  0
SPLINE
  5
7A
330
1F
100
AcDbEntity
  8
Layer 1
 62
   250
370
    20
100
AcDbSpline
210
0.0
220
0.0
230
1.0
 70
    11
 71
     3
 72
    29
 73
    25
 74
     0
 42
0.0000000001
 43
0.0000000001
 40
0.0
 40
0.0
 40
0.0
 40
0.0
 40
0.125
 40
0.125
 40
0.125
 40
0.25
 40
0.25
 40
0.25
 40
0.375
 40
0.375
 40
0.375
 40
0.5
 40
0.5
 40
0.5
 40
0.625
 40
0.625
 40
0.625
 40
0.75
 40
0.75
 40
0.75
 40
0.875
 40
0.875
 40
0.875
 40
1.0
 40
1.0
 40
1.0
 40
1.0
 10
-443.6019
 20
-328.3447
 30
0.0
 10
-371.3956
 20
-215.2626
 30
0.0
 10
-209.791
 20
-245.8254
 30
0.0
 10
-175.4071
 20
-332.9292
 30
0.0
 10
-137.5847
 20
-331.401
 30
0.0
 10
-120.1275
 20
-278.8257
 30
0.0
 10
-141.0231
 20
-253.4661
 30
0.0
 10
-73.9744
 20
-258.0504
 30
0.0
 10
-65.3784
 20
-180.1155
 30
0.0
 10
-139.3039
 20
-177.0592
 30
0.0
 10
-122.3393
 20
-149.8651
 30
0.0
 10
-135.8655
 20
-105.2368
 30
0.0
 10
-171.9687
 20
-94.5398
 30
0.0
 10
-228.7022
 20
-177.0592
 30
0.0
 10
-361.0804
 20
-225.9596
 30
0.0
 10
-447.0403
 20
-94.5398
 30
0.0
 10
-460.0807
 20
-91.8327
 30
0.0
 10
-493.4586
 20
-141.9121
 30
0.0
 10
-479.705
 20
-174.003
 30
0.0
 10
-524.4042
 20
-167.8904
 30
0.0
 10
-562.2265
 20
-244.2972
 30
0.0
 10
-481.4243
 20
-248.8816
 30
0.0
 10
-481.4243
 20
-248.8816
 30
0.0
 10
-494.0788
 20
-318.3429
 30
0.0
 10
-443.6019
 20
-328.3447
 30
0.0
  0
SPLINE
  5
7B
330
1F
100
AcDbEntity
  8
Layer 1
 62
   250
370
    20
100
AcDbSpline
210
0.0
220
0.0
230
1.0
 70
    11
 71
     3
 72
    29
 73
    25
 74
     0
 42
0.0000000001
 43
0.0000000001
 40
0.0
 40
0.0
 40
0.0
 40
0.0
 40
0.125
 40
0.125
 40
0.125
 40
0.25
 40
0.25
 40
0.25
 40
0.375
 40
0.375
 40
0.375
 40
0.5
 40
0.5
 40
0.5
 40
0.625
 40
0.625
 40
0.625
 40
0.75
 40
0.75
 40
0.75
 40
0.875
 40
0.875
 40
0.875
 40
1.0
 40
1.0
 40
1.0
 40
1.0
 10
-441.6794
 20
96.4282
 30
0.0
 10
-369.4731
 20
209.5103
 30
0.0
 10
-207.8685
 20
178.9476
 30
0.0
 10
-173.4846
 20
91.8438
 30
0.0
 10
-135.6622
 20
93.372
 30
0.0
 10
-118.205
 20
145.9472
 30
0.0
 10
-139.1006
 20
171.3069
 30
0.0
 10
-72.0519
 20
166.7225
 30
0.0
 10
-63.456
 20
244.6574
 30
0.0
 10
-137.3815
 20
247.7137
 30
0.0
 10
-120.4169
 20
274.9078
 30
0.0
 10
-133.9431
 20
319.5361
 30
0.0
 10
-170.0462
 20
330.2331
 30
0.0
 10
-226.7797
 20
247.7137
 30
0.0
 10
-359.1579
 20
198.8134
 30
0.0
 10
-445.1178
 20
330.2331
 30
0.0
 10
-458.1582
 20
332.9403
 30
0.0
 10
-491.5361
 20
282.8609
 30
0.0
 10
-477.7826
 20
250.77
 30
0.0
 10
-522.4817
 20
256.8826
 30
0.0
 10
-560.3041
 20
180.4757
 30
0.0
 10
-479.5018
 20
175.8913
 30
0.0
 10
-479.5018
 20
175.8913
 30
0.0
 10
-492.1563
 20
106.43
 30
0.0
 10
-441.6794
 20
96.4282
 30
0.0
  0
SPLINE
  5
7C
330
1F
100
AcDbEntity
  8
Layer 1
 62
   250
370
    20
100
AcDbSpline
210
0.0
220
0.0
230
1.0
 70
    11
 71
     3
 72
    17
 73
    13
 74
     0
 42
0.0000000001
 43
0.0000000001
 40
0.0
 40
0.0
 40
0.0
 40
0.0
 40
0.25
 40
0.25
 40
0.25
 40
0.5
 40
0.5
 40
0.5
 40
0.75
 40
0.75
 40
0.75
 40
1.0
 40
1.0
 40
1.0
 40
1.0
 10
-400.6219
 20
-449.0675
 30
0.0
 10
-400.6219
 20
-449.0675
 30
0.0
 10
-218.387
 20
-449.0675
 30
0.0
 10
-218.387
 20
-449.0675
 30
0.0
 10
-218.387
 20
-449.0675
 30
0.0
 10
-218.387
 20
-516.3055
 30
0.0
 10
-218.387
 20
-516.3055
 30
0.0
 10
-240.7365
 20
-556.0371
 30
0.0
 10
-344.0744
 20
-587.5706
 30
0.0
 10
-400.6219
 20
-511.7211
 30
0.0
 10
-400.6219
 20
-511.7211
 30
0.0
 10
-400.6219
 20
-449.0675
 30
0.0
 10
-400.6219
 20
-449.0675
 30
0.0
  0
SPLINE
  5
7D
330
1F
100
AcDbEntity
  8
Layer 1
 62
   250
370
    20
100
AcDbSpline
210
0.0
220
0.0
230
1.0
 70
    11
 71
     3
 72
    17
 73
    13
 74
     0
 42
0.0000000001
 43
0.0000000001
 40
0.0
 40
0.0
 40
0.0
 40
0.0
 40
0.25
 40
0.25
 40
0.25
 40
0.5
 40
0.5
 40
0.5
 40
0.75
 40
0.75
 40
0.75
 40
1.0
 40
1.0
 40
1.0
 40
1.0
 10
-400.6219
 20
-407.8078
 30
0.0
 10
-400.6219
 20
-407.8078
 30
0.0
 10
-218.387
 20
-407.8078
 30
0.0
 10
-218.387
 20
-407.8078
 30
0.0
 10
-218.387
 20
-407.8078
 30
0.0
 10
-218.387
 20
-338.5272
 30
0.0
 10
-218.387
 20
-338.5333
 30
0.0
 10
-240.7365
 20
-297.5952
 30
0.0
 10
-345.7937
 20
-262.004
 30
0.0
 10
-402.3412
 20
-340.1533
 30
0.0
 10
-402.3412
 20
-340.1564
 30
0.0
 10
-400.6219
 20
-407.8078
 30
0.0
 10
-400.6219
 20
-407.8078
 30
0.0
  0
SPLINE
  5
7E
330
1F
100
AcDbEntity
  8
Layer 1
 62
   250
370
    20
100
AcDbSpline
210
0.0
220
0.0
230
1.0
 70
    11
 71
     3
 72
    17
 73
    13
 74
     0
 42
0.0000000001
 43
0.0000000001
 40
0.0
 40
0.0
 40
0.0
 40
0.0
 40
0.25
 40
0.25
 40
0.25
 40
0.5
 40
0.5
 40
0.5
 40
0.75
 40
0.75
 40
0.75
 40
1.0
 40
1.0
 40
1.0
 40
1.0
 10
-398.9028
 20
-24.2456
 30
0.0
 10
-398.9028
 20
-24.2456
 30
0.0
 10
-216.6678
 20
-24.2456
 30
0.0
 10
-216.6678
 20
-24.2456
 30
0.0
 10
-216.6678
 20
-24.2456
 30
0.0
 10
-216.6678
 20
-91.4836
 30
0.0
 10
-216.6678
 20
-91.4836
 30
0.0
 10
-239.0174
 20
-131.2151
 30
0.0
 10
-342.3553
 20
-162.7487
 30
0.0
 10
-398.9028
 20
-86.8992
 30
0.0
 10
-398.9028
 20
-86.8992
 30
0.0
 10
-398.9028
 20
-24.2456
 30
0.0
 10
-398.9028
 20
-24.2456
 30
0.0
  0
SPLINE
  5
7F
330
1F
100
AcDbEntity
  8
Layer 1
 62
   250
370
    20
100
AcDbSpline
210
0.0
220
0.0
230
1.0
 70
    11
 71
     3
 72
    17
 73
    13
 74
     0
 42
0.0000000001
 43
0.0000000001
 40
0.0
 40
0.0
 40
0.0
 40
0.0
 40
0.25
 40
0.25
 40
0.25
 40
0.5
 40
0.5
 40
0.5
 40
0.75
 40
0.75
 40
0.75
 40
1.0
 40
1.0
 40
1.0
 40
1.0
 10
-398.9028
 20
17.0141
 30
0.0
 10
-398.9028
 20
17.0141
 30
0.0
 10
-216.6678
 20
17.0141
 30
0.0
 10
-216.6678
 20
17.0141
 30
0.0
 10
-216.6678
 20
17.0141
 30
0.0
 10
-216.6678
 20
86.2947
 30
0.0
 10
-216.6678
 20
86.2886
 30
0.0
 10
-239.0174
 20
127.2267
 30
0.0
 10
-344.0744
 20
162.8179
 30
0.0
 10
-400.6219
 20
84.6686
 30
0.0
 10
-400.6219
 20
84.6656
 30
0.0
 10
-398.9028
 20
17.0141
 30
0.0
 10
-398.9028
 20
17.0141
 30
0.0
  0
SPLINE
  5
80
330
1F
100
AcDbEntity
  8
Layer 1
 62
   250
370
    20
100
AcDbSpline
210
0.0
220
0.0
230
1.0
 70
    11
 71
     3
 72
    17
 73
    13
 74
     0
 42
0.0000000001
 43
0.0000000001
 40
0.0
 40
0.0
 40
0.0
 40
0.0
 40
0.25
 40
0.25
 40
0.25
 40
0.5
 40
0.5
 40
0.5
 40
0.75
 40
0.75
 40
0.75
 40
1.0
 40
1.0
 40
1.0
 40
1.0
 10
-397.1835
 20
398.8247
 30
0.0
 10
-397.1835
 20
398.8247
 30
0.0
 10
-214.9486
 20
398.8247
 30
0.0
 10
-214.9486
 20
398.8247
 30
0.0
 10
-214.9486
 20
398.8247
 30
0.0
 10
-214.9486
 20
331.5867
 30
0.0
 10
-214.9486
 20
331.5867
 30
0.0
 10
-237.2982
 20
291.8551
 30
0.0
 10
-340.636
 20
260.3216
 30
0.0
 10
-397.1835
 20
336.1711
 30
0.0
 10
-397.1835
 20
336.1711
 30
0.0
 10
-397.1835
 20
398.8247
 30
0.0
 10
-397.1835
 20
398.8247
 30
0.0
  0
SPLINE
  5
81
330
1F
100
AcDbEntity
  8
Layer 1
 62
   250
370
    20
100
AcDbSpline
210
0.0
220
0.0
230
1.0
 70
    11
 71
     3
 72
    17
 73
    13
 74
     0
 42
0.0000000001
 43
0.0000000001
 40
0.0
 40
0.0
 40
0.0
 40
0.0
 40
0.25
 40
0.25
 40
0.25
 40
0.5
 40
0.5
 40
0.5
 40
0.75
 40
0.75
 40
0.75
 40
1.0
 40
1.0
 40
1.0
 40
1.0
 10
-397.1835
 20
440.0844
 30
0.0
 10
-397.1835
 20
440.0844
 30
0.0
 10
-214.9486
 20
440.0844
 30
0.0
 10
-214.9486
 20
440.0844
 30
0.0
 10
-214.9486
 20
440.0844
 30
0.0
 10
-214.9486
 20
509.365
 30
0.0
 10
-214.9486
 20
509.3589
 30
0.0
 10
-237.2982
 20
550.297
 30
0.0
 10
-342.3553
 20
585.8882
 30
0.0
 10
-398.9028
 20
507.7389
 30
0.0
 10
-398.9028
 20
507.7358
 30
0.0
 10
-397.1835
 20
440.0844
 30
0.0
 10
-397.1835
 20
440.0844
 30
0.0
  0
SPLINE
  5
82
330
1F
100
AcDbEntity
  8
Layer 1
 62
   250
370
    20
100
AcDbSpline
210
0.0
220
0.0
230
1.0
 70
    11
 71
     3
 72
    23
 73
    19
 74
     0
 42
0.0000000001
 43
0.0000000001
 40
0.0
 40
0.0
 40
0.0
 40
0.0
 40
0.1666666666666667
 40
0.1666666666666667
 40
0.1666666666666667
 40
0.3333333333333333
 40
0.3333333333333333
 40
0.3333333333333333
 40
0.5
 40
0.5
 40
0.5
 40
0.6666666666666666
 40
0.6666666666666666
 40
0.6666666666666666
 40
0.8333333333333333
 40
0.8333333333333333
 40
0.8333333333333333
 40
1.0
 40
1.0
 40
1.0
 40
1.0
 10
-173.6879
 20
-478.1021
 30
0.0
 10
-173.6879
 20
-478.1021
 30
0.0
 10
-171.9687
 20
-447.5394
 30
0.0
 10
-171.9687
 20
-447.5394
 30
0.0
 10
-171.9687
 20
-447.5394
 30
0.0
 10
-27.556
 20
-447.5394
 30
0.0
 10
-27.556
 20
-447.5394
 30
0.0
 10
-27.556
 20
-447.5394
 30
0.0
 10
-27.556
 20
-590.0266
 30
0.0
 10
-27.556
 20
-590.0266
 30
0.0
 10
-27.556
 20
-590.0266
 30
0.0
 10
-64.2794
 20
-590.0266
 30
0.0
 10
-64.2794
 20
-590.0266
 30
0.0
 10
-69.8159
 20
-583.1852
 30
0.0
 10
-77.3921
 20
-576.8277
 30
0.0
 10
-87.728
 20
-572.8466
 30
0.0
 10
-91.4523
 20
-542.4369
 30
0.0
 10
-118.6736
 20
-487.2709
 30
0.0
 10
-173.6879
 20
-478.1021
 30
0.0
  0
SPLINE
  5
83
330
1F
100
AcDbEntity
  8
Layer 1
 62
   250
370
    20
100
AcDbSpline
210
0.0
220
0.0
230
1.0
 70
    11
 71
     3
 72
    23
 73
    19
 74
     0
 42
0.0000000001
 43
0.0000000001
 40
0.0
 40
0.0
 40
0.0
 40
0.0
 40
0.1666666666666667
 40
0.1666666666666667
 40
0.1666666666666667
 40
0.3333333333333333
 40
0.3333333333333333
 40
0.3333333333333333
 40
0.5
 40
0.5
 40
0.5
 40
0.6666666666666666
 40
0.6666666666666666
 40
0.6666666666666666
 40
0.8333333333333333
 40
0.8333333333333333
 40
0.8333333333333333
 40
1.0
 40
1.0
 40
1.0
 40
1.0
 10
-170.2495
 20
-371.8584
 30
0.0
 10
-170.2495
 20
-371.8584
 30
0.0
 10
-170.2495
 20
-406.2797
 30
0.0
 10
-170.2495
 20
-406.2797
 30
0.0
 10
-170.2495
 20
-406.2797
 30
0.0
 10
-25.8369
 20
-406.2797
 30
0.0
 10
-25.8369
 20
-406.2797
 30
0.0
 10
-25.8369
 20
-406.2797
 30
0.0
 10
-25.8369
 20
-227.4877
 30
0.0
 10
-25.8369
 20
-227.4877
 30
0.0
 10
-25.8369
 20
-227.4877
 30
0.0
 10
-48.1864
 20
-227.4877
 30
0.0
 10
-48.1864
 20
-227.4877
 30
0.0
 10
-48.1864
 20
-227.4877
 30
0.0
 10
-41.3441
 20
-256.9786
 30
0.0
 10
-86.0088
 20
-277.6743
 30
0.0
 10
-87.6936
 20
-329.4166
 30
0.0
 10
-126.0912
 20
-353.4319
 30
0.0
 10
-170.2495
 20
-371.8584
 30
0.0
  0
SPLINE
  5
84
330
1F
100
AcDbEntity
  8
Layer 1
 62
   250
370
    20
100
AcDbSpline
210
0.0
220
0.0
230
1.0
 70
    11
 71
     3
 72
    23
 73
    19
 74
     0
 42
0.0000000001
 43
0.0000000001
 40
0.0
 40
0.0
 40
0.0
 40
0.0
 40
0.1666666666666667
 40
0.1666666666666667
 40
0.1666666666666667
 40
0.3333333333333333
 40
0.3333333333333333
 40
0.3333333333333333
 40
0.5
 40
0.5
 40
0.5
 40
0.6666666666666666
 40
0.6666666666666666
 40
0.6666666666666666
 40
0.8333333333333333
 40
0.8333333333333333
 40
0.8333333333333333
 40
1.0
 40
1.0
 40
1.0
 40
1.0
 10
164.9941
 20
-478.1021
 30
0.0
 10
164.9941
 20
-478.1021
 30
0.0
 10
163.2749
 20
-447.5394
 30
0.0
 10
163.2749
 20
-447.5394
 30
0.0
 10
163.2749
 20
-447.5394
 30
0.0
 10
18.8623
 20
-447.5394
 30
0.0
 10
18.8623
 20
-447.5394
 30
0.0
 10
18.8623
 20
-447.5394
 30
0.0
 10
18.8623
 20
-590.0266
 30
0.0
 10
18.8623
 20
-590.0266
 30
0.0
 10
18.8623
 20
-590.0266
 30
0.0
 10
51.8991
 20
-590.0266
 30
0.0
 10
51.8991
 20
-590.0266
 30
0.0
 10
57.6665
 20
-584.0059
 30
0.0
 10
66.2591
 20
-577.9914
 30
0.0
 10
79.0342
 20
-572.8466
 30
0.0
 10
73.8422
 20
-535.8314
 30
0.0
 10
113.0805
 20
-487.5526
 30
0.0
 10
164.9941
 20
-478.1021
 30
0.0
  0
SPLINE
  5
85
330
1F
100
AcDbEntity
  8
Layer 1
 62
   250
370
    20
100
AcDbSpline
210
0.0
220
0.0
230
1.0
 70
    11
 71
     3
 72
    23
 73
    19
 74
     0
 42
0.0000000001
 43
0.0000000001
 40
0.0
 40
0.0
 40
0.0
 40
0.0
 40
0.1666666666666667
 40
0.1666666666666667
 40
0.1666666666666667
 40
0.3333333333333333
 40
0.3333333333333333
 40
0.3333333333333333
 40
0.5
 40
0.5
 40
0.5
 40
0.6666666666666666
 40
0.6666666666666666
 40
0.6666666666666666
 40
0.8333333333333333
 40
0.8333333333333333
 40
0.8333333333333333
 40
1.0
 40
1.0
 40
1.0
 40
1.0
 10
161.5557
 20
-371.8584
 30
0.0
 10
161.5557
 20
-371.8584
 30
0.0
 10
161.5557
 20
-406.2797
 30
0.0
 10
161.5557
 20
-406.2797
 30
0.0
 10
161.5557
 20
-406.2797
 30
0.0
 10
17.1431
 20
-406.2797
 30
0.0
 10
17.1431
 20
-406.2797
 30
0.0
 10
17.1431
 20
-406.2797
 30
0.0
 10
17.1431
 20
-227.4877
 30
0.0
 10
17.1431
 20
-227.4877
 30
0.0
 10
17.1431
 20
-227.4877
 30
0.0
 10
39.4927
 20
-227.4877
 30
0.0
 10
39.4927
 20
-227.4877
 30
0.0
 10
39.4927
 20
-227.4877
 30
0.0
 10
32.6503
 20
-256.9786
 30
0.0
 10
77.315
 20
-277.6743
 30
0.0
 10
79.5992
 20
-330.6017
 30
0.0
 10
108.2606
 20
-357.9857
 30
0.0
 10
161.5557
 20
-371.8584
 30
0.0
  0
SPLINE
  5
86
330
1F
100
AcDbEntity
  8
Layer 1
 62
   250
370
    20
100
AcDbSpline
210
0.0
220
0.0
230
1.0
 70
    11
 71
     3
 72
    23
 73
    19
 74
     0
 42
0.0000000001
 43
0.0000000001
 40
0.0
 40
0.0
 40
0.0
 40
0.0
 40
0.1666666666666667
 40
0.1666666666666667
 40
0.1666666666666667
 40
0.3333333333333333
 40
0.3333333333333333
 40
0.3333333333333333
 40
0.5
 40
0.5
 40
0.5
 40
0.6666666666666666
 40
0.6666666666666666
 40
0.6666666666666666
 40
0.8333333333333333
 40
0.8333333333333333
 40
0.8333333333333333
 40
1.0
 40
1.0
 40
1.0
 40
1.0
 10
-170.2495
 20
-56.3364
 30
0.0
 10
-170.2495
 20
-56.3364
 30
0.0
 10
-168.5303
 20
-25.7737
 30
0.0
 10
-168.5303
 20
-25.7737
 30
0.0
 10
-168.5303
 20
-25.7737
 30
0.0
 10
-24.1176
 20
-25.7737
 30
0.0
 10
-24.1176
 20
-25.7737
 30
0.0
 10
-24.1176
 20
-25.7737
 30
0.0
 10
-24.1176
 20
-199.9812
 30
0.0
 10
-24.1176
 20
-199.9812
 30
0.0
 10
-24.1176
 20
-199.9812
 30
0.0
 10
-46.4672
 20
-199.9812
 30
0.0
 10
-46.4672
 20
-199.9812
 30
0.0
 10
-46.4672
 20
-199.9812
 30
0.0
 10
-51.6593
 20
-163.6459
 30
0.0
 10
-84.2896
 20
-151.0809
 30
0.0
 10
-88.0139
 20
-120.6713
 30
0.0
 10
-115.2352
 20
-65.5053
 30
0.0
 10
-170.2495
 20
-56.3364
 30
0.0
  0
SPLINE
  5
87
330
1F
100
AcDbEntity
  8
Layer 1
 62
   250
370
    20
100
AcDbSpline
210
0.0
220
0.0
230
1.0
 70
    11
 71
     3
 72
    23
 73
    19
 74
     0
 42
0.0000000001
 43
0.0000000001
 40
0.0
 40
0.0
 40
0.0
 40
0.0
 40
0.1666666666666667
 40
0.1666666666666667
 40
0.1666666666666667
 40
0.3333333333333333
 40
0.3333333333333333
 40
0.3333333333333333
 40
0.5
 40
0.5
 40
0.5
 40
0.6666666666666666
 40
0.6666666666666666
 40
0.6666666666666666
 40
0.8333333333333333
 40
0.8333333333333333
 40
0.8333333333333333
 40
1.0
 40
1.0
 40
1.0
 40
1.0
 10
-166.8111
 20
49.9073
 30
0.0
 10
-166.8111
 20
49.9073
 30
0.0
 10
-166.8111
 20
15.486
 30
0.0
 10
-166.8111
 20
15.486
 30
0.0
 10
-166.8111
 20
15.486
 30
0.0
 10
-22.3985
 20
15.486
 30
0.0
 10
-22.3985
 20
15.486
 30
0.0
 10
-22.3985
 20
15.486
 30
0.0
 10
-22.3985
 20
194.2779
 30
0.0
 10
-22.3985
 20
194.2779
 30
0.0
 10
-22.3985
 20
194.2779
 30
0.0
 10
-44.748
 20
194.2779
 30
0.0
 10
-44.748
 20
194.2779
 30
0.0
 10
-44.748
 20
194.2779
 30
0.0
 10
-37.9057
 20
164.7871
 30
0.0
 10
-82.5704
 20
144.0914
 30
0.0
 10
-84.2552
 20
92.3491
 30
0.0
 10
-122.6528
 20
68.3338
 30
0.0
 10
-166.8111
 20
49.9073
 30
0.0
  0
SPLINE
  5
88
330
1F
100
AcDbEntity
  8
Layer 1
 62
   250
370
    20
100
AcDbSpline
210
0.0
220
0.0
230
1.0
 70
    11
 71
     3
 72
    23
 73
    19
 74
     0
 42
0.0000000001
 43
0.0000000001
 40
0.0
 40
0.0
 40
0.0
 40
0.0
 40
0.1666666666666667
 40
0.1666666666666667
 40
0.1666666666666667
 40
0.3333333333333333
 40
0.3333333333333333
 40
0.3333333333333333
 40
0.5
 40
0.5
 40
0.5
 40
0.6666666666666666
 40
0.6666666666666666
 40
0.6666666666666666
 40
0.8333333333333333
 40
0.8333333333333333
 40
0.8333333333333333
 40
1.0
 40
1.0
 40
1.0
 40
1.0
 10
168.4325
 20
-56.3364
 30
0.0
 10
168.4325
 20
-56.3364
 30
0.0
 10
166.7133
 20
-25.7737
 30
0.0
 10
166.7133
 20
-25.7737
 30
0.0
 10
166.7133
 20
-25.7737
 30
0.0
 10
22.3007
 20
-25.7737
 30
0.0
 10
22.3007
 20
-25.7737
 30
0.0
 10
22.3007
 20
-25.7737
 30
0.0
 10
22.3007
 20
-199.9812
 30
0.0
 10
22.3007
 20
-199.9812
 30
0.0
 10
22.3007
 20
-199.9812
 30
0.0
 10
44.6502
 20
-199.9812
 30
0.0
 10
44.6502
 20
-199.9812
 30
0.0
 10
44.6502
 20
-199.9812
 30
0.0
 10
36.0887
 20
-169.7584
 30
0.0
 10
82.4726
 20
-151.0809
 30
0.0
 10
77.2806
 20
-114.0657
 30
0.0
 10
116.5189
 20
-65.787
 30
0.0
 10
168.4325
 20
-56.3364
 30
0.0
  0
SPLINE
  5
89
330
1F
100
AcDbEntity
  8
Layer 1
 62
   250
370
    20
100
AcDbSpline
210
0.0
220
0.0
230
1.0
 70
    11
 71
     3
 72
    23
 73
    19
 74
     0
 42
0.0000000001
 43
0.0000000001
 40
0.0
 40
0.0
 40
0.0
 40
0.0
 40
0.1666666666666667
 40
0.1666666666666667
 40
0.1666666666666667
 40
0.3333333333333333
 40
0.3333333333333333
 40
0.3333333333333333
 40
0.5
 40
0.5
 40
0.5
 40
0.6666666666666666
 40
0.6666666666666666
 40
0.6666666666666666
 40
0.8333333333333333
 40
0.8333333333333333
 40
0.8333333333333333
 40
1.0
 40
1.0
 40
1.0
 40
1.0
 10
164.9941
 20
49.9073
 30
0.0
 10
164.9941
 20
49.9073
 30
0.0
 10
164.9941
 20
15.486
 30
0.0
 10
164.9941
 20
15.486
 30
0.0
 10
164.9941
 20
15.486
 30
0.0
 10
20.5815
 20
15.486
 30
0.0
 10
20.5815
 20
15.486
 30
0.0
 10
20.5815
 20
15.486
 30
0.0
 10
20.5815
 20
194.2779
 30
0.0
 10
20.5815
 20
194.2779
 30
0.0
 10
20.5815
 20
194.2779
 30
0.0
 10
42.931
 20
194.2779
 30
0.0
 10
42.931
 20
194.2779
 30
0.0
 10
42.931
 20
194.2779
 30
0.0
 10
36.0887
 20
164.7871
 30
0.0
 10
80.7534
 20
144.0914
 30
0.0
 10
83.0376
 20
91.1639
 30
0.0
 10
111.699
 20
63.78
 30
0.0
 10
164.9941
 20
49.9073
 30
0.0
  0
SPLINE
  5
8A
330
1F
100
AcDbEntity
  8
Layer 1
 62
   250
370
    20
100
AcDbSpline
210
0.0
220
0.0
230
1.0
 70
    11
 71
     3
 72
    23
 73
    19
 74
     0
 42
0.0000000001
 43
0.0000000001
 40
0.0
 40
0.0
 40
0.0
 40
0.0
 40
0.1666666666666667
 40
0.1666666666666667
 40
0.1666666666666667
 40
0.3333333333333333
 40
0.3333333333333333
 40
0.3333333333333333
 40
0.5
 40
0.5
 40
0.5
 40
0.6666666666666666
 40
0.6666666666666666
 40
0.6666666666666666
 40
0.8333333333333333
 40
0.8333333333333333
 40
0.8333333333333333
 40
1.0
 40
1.0
 40
1.0
 40
1.0
 10
-170.2495
 20
366.9574
 30
0.0
 10
-170.2495
 20
366.9574
 30
0.0
 10
-168.5303
 20
397.5201
 30
0.0
 10
-168.5303
 20
397.5201
 30
0.0
 10
-168.5303
 20
397.5201
 30
0.0
 10
-24.1176
 20
397.5201
 30
0.0
 10
-24.1176
 20
397.5201
 30
0.0
 10
-24.1176
 20
397.5201
 30
0.0
 10
-24.1176
 20
223.3126
 30
0.0
 10
-24.1176
 20
223.3126
 30
0.0
 10
-24.1176
 20
223.3126
 30
0.0
 10
-46.4672
 20
223.3126
 30
0.0
 10
-46.4672
 20
223.3126
 30
0.0
 10
-46.4672
 20
223.3126
 30
0.0
 10
-51.6593
 20
259.6479
 30
0.0
 10
-84.2896
 20
272.2129
 30
0.0
 10
-88.0139
 20
302.6225
 30
0.0
 10
-115.2352
 20
357.7885
 30
0.0
 10
-170.2495
 20
366.9574
 30
0.0
  0
SPLINE
  5
8B
330
1F
100
AcDbEntity
  8
Layer 1
 62
   250
370
    20
100
AcDbSpline
210
0.0
220
0.0
230
1.0
 70
    11
 71
     3
 72
    23
 73
    19
 74
     0
 42
0.0000000001
 43
0.0000000001
 40
0.0
 40
0.0
 40
0.0
 40
0.0
 40
0.1666666666666667
 40
0.1666666666666667
 40
0.1666666666666667
 40
0.3333333333333333
 40
0.3333333333333333
 40
0.3333333333333333
 40
0.5
 40
0.5
 40
0.5
 40
0.6666666666666666
 40
0.6666666666666666
 40
0.6666666666666666
 40
0.8333333333333333
 40
0.8333333333333333
 40
0.8333333333333333
 40
1.0
 40
1.0
 40
1.0
 40
1.0
 10
-166.8111
 20
473.2012
 30
0.0
 10
-166.8111
 20
473.2012
 30
0.0
 10
-166.8111
 20
438.7798
 30
0.0
 10
-166.8111
 20
438.7798
 30
0.0
 10
-166.8111
 20
438.7798
 30
0.0
 10
-22.3985
 20
438.7798
 30
0.0
 10
-22.3985
 20
438.7798
 30
0.0
 10
-22.3985
 20
438.7798
 30
0.0
 10
-22.3985
 20
589.9734
 30
0.0
 10
-22.3985
 20
589.9734
 30
0.0
 10
-22.3985
 20
589.9734
 30
0.0
 10
-52.6377
 20
589.9734
 30
0.0
 10
-52.6377
 20
589.9734
 30
0.0
 10
-58.2157
 20
582.4246
 30
0.0
 10
-67.4249
 20
574.4042
 30
0.0
 10
-82.5704
 20
567.3852
 30
0.0
 10
-84.2552
 20
515.6429
 30
0.0
 10
-122.6528
 20
491.6276
 30
0.0
 10
-166.8111
 20
473.2012
 30
0.0
  0
SPLINE
  5
8C
330
1F
100
AcDbEntity
  8
Layer 1
 62
   250
370
    20
100
AcDbSpline
210
0.0
220
0.0
230
1.0
 70
    11
 71
     3
 72
    23
 73
    19
 74
     0
 42
0.0000000001
 43
0.0000000001
 40
0.0
 40
0.0
 40
0.0
 40
0.0
 40
0.1666666666666667
 40
0.1666666666666667
 40
0.1666666666666667
 40
0.3333333333333333
 40
0.3333333333333333
 40
0.3333333333333333
 40
0.5
 40
0.5
 40
0.5
 40
0.6666666666666666
 40
0.6666666666666666
 40
0.6666666666666666
 40
0.8333333333333333
 40
0.8333333333333333
 40
0.8333333333333333
 40
1.0
 40
1.0
 40
1.0
 40
1.0
 10
168.4325
 20
366.9574
 30
0.0
 10
168.4325
 20
366.9574
 30
0.0
 10
166.7133
 20
397.5201
 30
0.0
 10
166.7133
 20
397.5201
 30
0.0
 10
166.7133
 20
397.5201
 30
0.0
 10
22.3007
 20
397.5201
 30
0.0
 10
22.3007
 20
397.5201
 30
0.0
 10
22.3007
 20
397.5201
 30
0.0
 10
22.3007
 20
223.3126
 30
0.0
 10
22.3007
 20
223.3126
 30
0.0
 10
22.3007
 20
223.3126
 30
0.0
 10
44.6502
 20
223.3126
 30
0.0
 10
44.6502
 20
223.3126
 30
0.0
 10
44.6502
 20
223.3126
 30
0.0
 10
36.0887
 20
253.5353
 30
0.0
 10
82.4726
 20
272.2129
 30
0.0
 10
77.2806
 20
309.2281
 30
0.0
 10
116.5189
 20
357.5068
 30
0.0
 10
168.4325
 20
366.9574
 30
0.0
  0
SPLINE
  5
8D
330
1F
100
AcDbEntity
  8
Layer 1
 62
   250
370
    20
100
AcDbSpline
210
0.0
220
0.0
230
1.0
 70
    11
 71
     3
 72
    23
 73
    19
 74
     0
 42
0.0000000001
 43
0.0000000001
 40
0.0
 40
0.0
 40
0.0
 40
0.0
 40
0.1666666666666667
 40
0.1666666666666667
 40
0.1666666666666667
 40
0.3333333333333333
 40
0.3333333333333333
 40
0.3333333333333333
 40
0.5
 40
0.5
 40
0.5
 40
0.6666666666666666
 40
0.6666666666666666
 40
0.6666666666666666
 40
0.8333333333333333
 40
0.8333333333333333
 40
0.8333333333333333
 40
1.0
 40
1.0
 40
1.0
 40
1.0
 10
164.9941
 20
473.2012
 30
0.0
 10
164.9941
 20
473.2012
 30
0.0
 10
164.9941
 20
438.7798
 30
0.0
 10
164.9941
 20
438.7798
 30
0.0
 10
164.9941
 20
438.7798
 30
0.0
 10
20.5815
 20
438.7798
 30
0.0
 10
20.5815
 20
438.7798
 30
0.0
 10
20.5815
 20
438.7798
 30
0.0
 10
20.5815
 20
589.9734
 30
0.0
 10
20.5815
 20
589.9734
 30
0.0
 10
20.5815
 20
589.9734
 30
0.0
 10
50.8208
 20
589.9734
 30
0.0
 10
50.8208
 20
589.9734
 30
0.0
 10
56.3987
 20
582.4246
 30
0.0
 10
65.6079
 20
574.4042
 30
0.0
 10
80.7534
 20
567.3852
 30
0.0
 10
83.0376
 20
514.4577
 30
0.0
 10
111.699
 20
487.0738
 30
0.0
 10
164.9941
 20
473.2012
 30
0.0
  0
SPLINE
  5
8E
330
1F
100
AcDbEntity
  8
Layer 1
 62
   250
370
    20
100
AcDbSpline
210
0.0
220
0.0
230
1.0
 70
    11
 71
     3
 72
    23
 73
    19
 74
     0
 42
0.0000000001
 43
0.0000000001
 40
0.0
 40
0.0
 40
0.0
 40
0.0
 40
0.1666666666666667
 40
0.1666666666666667
 40
0.1666666666666667
 40
0.3333333333333333
 40
0.3333333333333333
 40
0.3333333333333333
 40
0.5
 40
0.5
 40
0.5
 40
0.6666666666666666
 40
0.6666666666666666
 40
0.6666666666666666
 40
0.8333333333333333
 40
0.8333333333333333
 40
0.8333333333333333
 40
1.0
 40
1.0
 40
1.0
 40
1.0
 10
441.7849
 20
366.9574
 30
0.0
 10
441.7849
 20
366.9574
 30
0.0
 10
443.5041
 20
397.5201
 30
0.0
 10
443.5041
 20
397.5201
 30
0.0
 10
443.5041
 20
397.5201
 30
0.0
 10
587.9167
 20
397.5201
 30
0.0
 10
587.9167
 20
397.5201
 30
0.0
 10
587.9167
 20
397.5201
 30
0.0
 10
587.9167
 20
223.3126
 30
0.0
 10
587.9167
 20
223.3126
 30
0.0
 10
587.9167
 20
223.3126
 30
0.0
 10
565.5671
 20
223.3126
 30
0.0
 10
565.5671
 20
223.3126
 30
0.0
 10
565.5671
 20
223.3126
 30
0.0
 10
560.3751
 20
259.6479
 30
0.0
 10
527.7448
 20
272.2129
 30
0.0
 10
524.0205
 20
302.6225
 30
0.0
 10
496.7992
 20
357.7885
 30
0.0
 10
441.7849
 20
366.9574
 30
0.0
  0
SPLINE
  5
8F
330
1F
100
AcDbEntity
  8
Layer 1
 62
   250
370
    20
100
AcDbSpline
210
0.0
220
0.0
230
1.0
 70
    11
 71
     3
 72
    23
 73
    19
 74
     0
 42
0.0000000001
 43
0.0000000001
 40
0.0
 40
0.0
 40
0.0
 40
0.0
 40
0.1666666666666667
 40
0.1666666666666667
 40
0.1666666666666667
 40
0.3333333333333333
 40
0.3333333333333333
 40
0.3333333333333333
 40
0.5
 40
0.5
 40
0.5
 40
0.6666666666666666
 40
0.6666666666666666
 40
0.6666666666666666
 40
0.8333333333333333
 40
0.8333333333333333
 40
0.8333333333333333
 40
1.0
 40
1.0
 40
1.0
 40
1.0
 10
445.2233
 20
473.2012
 30
0.0
 10
445.2233
 20
473.2012
 30
0.0
 10
445.2233
 20
438.7798
 30
0.0
 10
445.2233
 20
438.7798
 30
0.0
 10
445.2233
 20
438.7798
 30
0.0
 10
589.6359
 20
438.7798
 30
0.0
 10
589.6359
 20
438.7798
 30
0.0
 10
589.6359
 20
438.7798
 30
0.0
 10
589.6359
 20
589.9734
 30
0.0
 10
589.6359
 20
589.9734
 30
0.0
 10
589.6359
 20
589.9734
 30
0.0
 10
559.3966
 20
589.9734
 30
0.0
 10
559.3966
 20
589.9734
 30
0.0
 10
553.8187
 20
582.4246
 30
0.0
 10
544.6095
 20
574.4042
 30
0.0
 10
529.464
 20
567.3852
 30
0.0
 10
527.7792
 20
515.6429
 30
0.0
 10
489.3815
 20
491.6276
 30
0.0
 10
445.2233
 20
473.2012
 30
0.0
  0
SPLINE
  5
90
330
1F
100
AcDbEntity
  8
Layer 1
 62
   250
370
    20
100
AcDbSpline
210
0.0
220
0.0
230
1.0
 70
    11
 71
     3
 72
    23
 73
    19
 74
     0
 42
0.0000000001
 43
0.0000000001
 40
0.0
 40
0.0
 40
0.0
 40
0.0
 40
0.1666666666666667
 40
0.1666666666666667
 40
0.1666666666666667
 40
0.3333333333333333
 40
0.3333333333333333
 40
0.3333333333333333
 40
0.5
 40
0.5
 40
0.5
 40
0.6666666666666666
 40
0.6666666666666666
 40
0.6666666666666666
 40
0.8333333333333333
 40
0.8333333333333333
 40
0.8333333333333333
 40
1.0
 40
1.0
 40
1.0
 40
1.0
 10
780.4669
 20
366.9574
 30
0.0
 10
780.4669
 20
366.9574
 30
0.0
 10
778.7476
 20
397.5201
 30
0.0
 10
778.7476
 20
397.5201
 30
0.0
 10
778.7476
 20
397.5201
 30
0.0
 10
634.3351
 20
397.5201
 30
0.0
 10
634.3351
 20
397.5201
 30
0.0
 10
634.3351
 20
397.5201
 30
0.0
 10
634.3351
 20
223.3126
 30
0.0
 10
634.3351
 20
223.3126
 30
0.0
 10
634.3351
 20
223.3126
 30
0.0
 10
656.6846
 20
223.3126
 30
0.0
 10
656.6846
 20
223.3126
 30
0.0
 10
656.6846
 20
223.3126
 30
0.0
 10
648.123
 20
253.5353
 30
0.0
 10
694.507
 20
272.2129
 30
0.0
 10
689.3149
 20
309.2281
 30
0.0
 10
728.5533
 20
357.5068
 30
0.0
 10
780.4669
 20
366.9574
 30
0.0
  0
SPLINE
  5
91
330
1F
100
AcDbEntity
  8
Layer 1
 62
   250
370
    20
100
AcDbSpline
210
0.0
220
0.0
230
1.0
 70
    11
 71
     3
 72
    23
 73
    19
 74
     0
 42
0.0000000001
 43
0.0000000001
 40
0.0
 40
0.0
 40
0.0
 40
0.0
 40
0.1666666666666667
 40
0.1666666666666667
 40
0.1666666666666667
 40
0.3333333333333333
 40
0.3333333333333333
 40
0.3333333333333333
 40
0.5
 40
0.5
 40
0.5
 40
0.6666666666666666
 40
0.6666666666666666
 40
0.6666666666666666
 40
0.8333333333333333
 40
0.8333333333333333
 40
0.8333333333333333
 40
1.0
 40
1.0
 40
1.0
 40
1.0
 10
777.0285
 20
473.2012
 30
0.0
 10
777.0285
 20
473.2012
 30
0.0
 10
777.0285
 20
438.7798
 30
0.0
 10
777.0285
 20
438.7798
 30
0.0
 10
777.0285
 20
438.7798
 30
0.0
 10
632.6158
 20
438.7798
 30
0.0
 10
632.6158
 20
438.7798
 30
0.0
 10
632.6158
 20
438.7798
 30
0.0
 10
632.6158
 20
589.9734
 30
0.0
 10
632.6158
 20
589.9734
 30
0.0
 10
632.6158
 20
589.9734
 30
0.0
 10
662.8551
 20
589.9734
 30
0.0
 10
662.8551
 20
589.9734
 30
0.0
 10
668.433
 20
582.4246
 30
0.0
 10
677.6423
 20
574.4042
 30
0.0
 10
692.7877
 20
567.3852
 30
0.0
 10
695.072
 20
514.4577
 30
0.0
 10
723.7334
 20
487.0738
 30
0.0
 10
777.0285
 20
473.2012
 30
0.0
  0
SPLINE
  5
92
330
1F
100
AcDbEntity
  8
Layer 1
 62
   250
370
    20
100
AcDbSpline
210
0.0
220
0.0
230
1.0
 70
    11
 71
     3
 72
    23
 73
    19
 74
     0
 42
0.0000000001
 43
0.0000000001
 40
0.0
 40
0.0
 40
0.0
 40
0.0
 40
0.1666666666666667
 40
0.1666666666666667
 40
0.1666666666666667
 40
0.3333333333333333
 40
0.3333333333333333
 40
0.3333333333333333
 40
0.5
 40
0.5
 40
0.5
 40
0.6666666666666666
 40
0.6666666666666666
 40
0.6666666666666666
 40
0.8333333333333333
 40
0.8333333333333333
 40
0.8333333333333333
 40
1.0
 40
1.0
 40
1.0
 40
1.0
 10
441.7849
 20
-54.8083
 30
0.0
 10
441.7849
 20
-54.8083
 30
0.0
 10
443.5041
 20
-24.2456
 30
0.0
 10
443.5041
 20
-24.2456
 30
0.0
 10
443.5041
 20
-24.2456
 30
0.0
 10
587.9167
 20
-24.2456
 30
0.0
 10
587.9167
 20
-24.2456
 30
0.0
 10
587.9167
 20
-24.2456
 30
0.0
 10
587.9167
 20
-198.4531
 30
0.0
 10
587.9167
 20
-198.4531
 30
0.0
 10
587.9167
 20
-198.4531
 30
0.0
 10
565.5671
 20
-198.4531
 30
0.0
 10
565.5671
 20
-198.4531
 30
0.0
 10
565.5671
 20
-198.4531
 30
0.0
 10
560.3751
 20
-162.1178
 30
0.0
 10
527.7448
 20
-149.5528
 30
0.0
 10
524.0205
 20
-119.1432
 30
0.0
 10
496.7992
 20
-63.9771
 30
0.0
 10
441.7849
 20
-54.8083
 30
0.0
  0
SPLINE
  5
93
330
1F
100
AcDbEntity
  8
Layer 1
 62
   250
370
    20
100
AcDbSpline
210
0.0
220
0.0
230
1.0
 70
    11
 71
     3
 72
    23
 73
    19
 74
     0
 42
0.0000000001
 43
0.0000000001
 40
0.0
 40
0.0
 40
0.0
 40
0.0
 40
0.1666666666666667
 40
0.1666666666666667
 40
0.1666666666666667
 40
0.3333333333333333
 40
0.3333333333333333
 40
0.3333333333333333
 40
0.5
 40
0.5
 40
0.5
 40
0.6666666666666666
 40
0.6666666666666666
 40
0.6666666666666666
 40
0.8333333333333333
 40
0.8333333333333333
 40
0.8333333333333333
 40
1.0
 40
1.0
 40
1.0
 40
1.0
 10
445.2233
 20
51.4355
 30
0.0
 10
445.2233
 20
51.4355
 30
0.0
 10
445.2233
 20
17.0141
 30
0.0
 10
445.2233
 20
17.0141
 30
0.0
 10
445.2233
 20
17.0141
 30
0.0
 10
589.6359
 20
17.0141
 30
0.0
 10
589.6359
 20
17.0141
 30
0.0
 10
589.6359
 20
17.0141
 30
0.0
 10
589.6359
 20
195.8061
 30
0.0
 10
589.6359
 20
195.8061
 30
0.0
 10
589.6359
 20
195.8061
 30
0.0
 10
567.2864
 20
195.8061
 30
0.0
 10
567.2864
 20
195.8061
 30
0.0
 10
567.2864
 20
195.8061
 30
0.0
 10
574.1287
 20
166.3152
 30
0.0
 10
529.464
 20
145.6195
 30
0.0
 10
527.7792
 20
93.8772
 30
0.0
 10
489.3815
 20
69.8619
 30
0.0
 10
445.2233
 20
51.4355
 30
0.0
  0
SPLINE
  5
94
330
1F
100
AcDbEntity
  8
Layer 1
 62
   250
370
    20
100
AcDbSpline
210
0.0
220
0.0
230
1.0
 70
    11
 71
     3
 72
    23
 73
    19
 74
     0
 42
0.0000000001
 43
0.0000000001
 40
0.0
 40
0.0
 40
0.0
 40
0.0
 40
0.1666666666666667
 40
0.1666666666666667
 40
0.1666666666666667
 40
0.3333333333333333
 40
0.3333333333333333
 40
0.3333333333333333
 40
0.5
 40
0.5
 40
0.5
 40
0.6666666666666666
 40
0.6666666666666666
 40
0.6666666666666666
 40
0.8333333333333333
 40
0.8333333333333333
 40
0.8333333333333333
 40
1.0
 40
1.0
 40
1.0
 40
1.0
 10
780.4669
 20
-54.8083
 30
0.0
 10
780.4669
 20
-54.8083
 30
0.0
 10
778.7476
 20
-24.2456
 30
0.0
 10
778.7476
 20
-24.2456
 30
0.0
 10
778.7476
 20
-24.2456
 30
0.0
 10
634.3351
 20
-24.2456
 30
0.0
 10
634.3351
 20
-24.2456
 30
0.0
 10
634.3351
 20
-24.2456
 30
0.0
 10
634.3351
 20
-198.4531
 30
0.0
 10
634.3351
 20
-198.4531
 30
0.0
 10
634.3351
 20
-198.4531
 30
0.0
 10
656.6846
 20
-198.4531
 30
0.0
 10
656.6846
 20
-198.4531
 30
0.0
 10
656.6846
 20
-198.4531
 30
0.0
 10
648.123
 20
-168.2303
 30
0.0
 10
694.507
 20
-149.5528
 30
0.0
 10
689.3149
 20
-112.5375
 30
0.0
 10
728.5533
 20
-64.2588
 30
0.0
 10
780.4669
 20
-54.8083
 30
0.0
  0
SPLINE
  5
95
330
1F
100
AcDbEntity
  8
Layer 1
 62
   250
370
    20
100
AcDbSpline
210
0.0
220
0.0
230
1.0
 70
    11
 71
     3
 72
    23
 73
    19
 74
     0
 42
0.0000000001
 43
0.0000000001
 40
0.0
 40
0.0
 40
0.0
 40
0.0
 40
0.1666666666666667
 40
0.1666666666666667
 40
0.1666666666666667
 40
0.3333333333333333
 40
0.3333333333333333
 40
0.3333333333333333
 40
0.5
 40
0.5
 40
0.5
 40
0.6666666666666666
 40
0.6666666666666666
 40
0.6666666666666666
 40
0.8333333333333333
 40
0.8333333333333333
 40
0.8333333333333333
 40
1.0
 40
1.0
 40
1.0
 40
1.0
 10
777.0285
 20
51.4355
 30
0.0
 10
777.0285
 20
51.4355
 30
0.0
 10
777.0285
 20
17.0141
 30
0.0
 10
777.0285
 20
17.0141
 30
0.0
 10
777.0285
 20
17.0141
 30
0.0
 10
632.6158
 20
17.0141
 30
0.0
 10
632.6158
 20
17.0141
 30
0.0
 10
632.6158
 20
17.0141
 30
0.0
 10
632.6158
 20
195.8061
 30
0.0
 10
632.6158
 20
195.8061
 30
0.0
 10
632.6158
 20
195.8061
 30
0.0
 10
654.9654
 20
195.8061
 30
0.0
 10
654.9654
 20
195.8061
 30
0.0
 10
654.9654
 20
195.8061
 30
0.0
 10
648.123
 20
166.3152
 30
0.0
 10
692.7877
 20
145.6195
 30
0.0
 10
695.072
 20
92.6921
 30
0.0
 10
723.7334
 20
65.3082
 30
0.0
 10
777.0285
 20
51.4355
 30
0.0
  0
SPLINE
  5
96
330
1F
100
AcDbEntity
  8
Layer 1
 62
   250
370
    20
100
AcDbSpline
210
0.0
220
0.0
230
1.0
 70
    11
 71
     3
 72
    23
 73
    19
 74
     0
 42
0.0000000001
 43
0.0000000001
 40
0.0
 40
0.0
 40
0.0
 40
0.0
 40
0.1666666666666667
 40
0.1666666666666667
 40
0.1666666666666667
 40
0.3333333333333333
 40
0.3333333333333333
 40
0.3333333333333333
 40
0.5
 40
0.5
 40
0.5
 40
0.6666666666666666
 40
0.6666666666666666
 40
0.6666666666666666
 40
0.8333333333333333
 40
0.8333333333333333
 40
0.8333333333333333
 40
1.0
 40
1.0
 40
1.0
 40
1.0
 10
438.3465
 20
-481.1584
 30
0.0
 10
438.3465
 20
-481.1584
 30
0.0
 10
440.0657
 20
-450.5957
 30
0.0
 10
440.0657
 20
-450.5957
 30
0.0
 10
440.0657
 20
-450.5957
 30
0.0
 10
584.4783
 20
-450.5957
 30
0.0
 10
584.4783
 20
-450.5957
 30
0.0
 10
584.4783
 20
-450.5957
 30
0.0
 10
584.4783
 20
-590.0266
 30
0.0
 10
584.4783
 20
-590.0266
 30
0.0
 10
584.4783
 20
-590.0266
 30
0.0
 10
545.1056
 20
-590.0266
 30
0.0
 10
545.1056
 20
-590.0266
 30
0.0
 10
539.8653
 20
-584.3765
 30
0.0
 10
533.085
 20
-579.2837
 30
0.0
 10
524.3064
 20
-575.9029
 30
0.0
 10
520.5821
 20
-545.4932
 30
0.0
 10
493.3608
 20
-490.3272
 30
0.0
 10
438.3465
 20
-481.1584
 30
0.0
  0
SPLINE
  5
97
330
1F
100
AcDbEntity
  8
Layer 1
 62
   250
370
    20
100
AcDbSpline
210
0.0
220
0.0
230
1.0
 70
    11
 71
     3
 72
    23
 73
    19
 74
     0
 42
0.0000000001
 43
0.0000000001
 40
0.0
 40
0.0
 40
0.0
 40
0.0
 40
0.1666666666666667
 40
0.1666666666666667
 40
0.1666666666666667
 40
0.3333333333333333
 40
0.3333333333333333
 40
0.3333333333333333
 40
0.5
 40
0.5
 40
0.5
 40
0.6666666666666666
 40
0.6666666666666666
 40
0.6666666666666666
 40
0.8333333333333333
 40
0.8333333333333333
 40
0.8333333333333333
 40
1.0
 40
1.0
 40
1.0
 40
1.0
 10
441.7849
 20
-374.9146
 30
0.0
 10
441.7849
 20
-374.9146
 30
0.0
 10
441.7849
 20
-409.336
 30
0.0
 10
441.7849
 20
-409.336
 30
0.0
 10
441.7849
 20
-409.336
 30
0.0
 10
586.1975
 20
-409.336
 30
0.0
 10
586.1975
 20
-409.336
 30
0.0
 10
586.1975
 20
-409.336
 30
0.0
 10
586.1975
 20
-230.544
 30
0.0
 10
586.1975
 20
-230.544
 30
0.0
 10
586.1975
 20
-230.544
 30
0.0
 10
563.8479
 20
-230.544
 30
0.0
 10
563.8479
 20
-230.544
 30
0.0
 10
563.8479
 20
-230.544
 30
0.0
 10
570.6903
 20
-260.0349
 30
0.0
 10
526.0256
 20
-280.7306
 30
0.0
 10
524.3408
 20
-332.4728
 30
0.0
 10
485.9431
 20
-356.4882
 30
0.0
 10
441.7849
 20
-374.9146
 30
0.0
  0
SPLINE
  5
98
330
1F
100
AcDbEntity
  8
Layer 1
 62
   250
370
    20
100
AcDbSpline
210
0.0
220
0.0
230
1.0
 70
    11
 71
     3
 72
    23
 73
    19
 74
     0
 42
0.0000000001
 43
0.0000000001
 40
0.0
 40
0.0
 40
0.0
 40
0.0
 40
0.1666666666666667
 40
0.1666666666666667
 40
0.1666666666666667
 40
0.3333333333333333
 40
0.3333333333333333
 40
0.3333333333333333
 40
0.5
 40
0.5
 40
0.5
 40
0.6666666666666666
 40
0.6666666666666666
 40
0.6666666666666666
 40
0.8333333333333333
 40
0.8333333333333333
 40
0.8333333333333333
 40
1.0
 40
1.0
 40
1.0
 40
1.0
 10
777.0285
 20
-481.1584
 30
0.0
 10
777.0285
 20
-481.1584
 30
0.0
 10
775.3092
 20
-450.5957
 30
0.0
 10
775.3092
 20
-450.5957
 30
0.0
 10
775.3092
 20
-450.5957
 30
0.0
 10
630.8967
 20
-450.5957
 30
0.0
 10
630.8967
 20
-450.5957
 30
0.0
 10
630.8967
 20
-450.5957
 30
0.0
 10
630.8967
 20
-590.0266
 30
0.0
 10
630.8967
 20
-590.0266
 30
0.0
 10
630.8967
 20
-590.0266
 30
0.0
 10
667.1169
 20
-590.0266
 30
0.0
 10
667.1169
 20
-590.0266
 30
0.0
 10
672.7362
 20
-585.0441
 30
0.0
 10
680.4571
 20
-580.1749
 30
0.0
 10
691.0686
 20
-575.9029
 30
0.0
 10
685.8766
 20
-538.8876
 30
0.0
 10
725.1149
 20
-490.6089
 30
0.0
 10
777.0285
 20
-481.1584
 30
0.0
  0
SPLINE
  5
99
330
1F
100
AcDbEntity
  8
Layer 1
 62
   250
370
    20
100
AcDbSpline
210
0.0
220
0.0
230
1.0
 70
    11
 71
     3
 72
    23
 73
    19
 74
     0
 42
0.0000000001
 43
0.0000000001
 40
0.0
 40
0.0
 40
0.0
 40
0.0
 40
0.1666666666666667
 40
0.1666666666666667
 40
0.1666666666666667
 40
0.3333333333333333
 40
0.3333333333333333
 40
0.3333333333333333
 40
0.5
 40
0.5
 40
0.5
 40
0.6666666666666666
 40
0.6666666666666666
 40
0.6666666666666666
 40
0.8333333333333333
 40
0.8333333333333333
 40
0.8333333333333333
 40
1.0
 40
1.0
 40
1.0
 40
1.0
 10
773.59
 20
-374.9146
 30
0.0
 10
773.59
 20
-374.9146
 30
0.0
 10
773.59
 20
-409.336
 30
0.0
 10
773.59
 20
-409.336
 30
0.0
 10
773.59
 20
-409.336
 30
0.0
 10
629.1774
 20
-409.336
 30
0.0
 10
629.1774
 20
-409.336
 30
0.0
 10
629.1774
 20
-409.336
 30
0.0
 10
629.1774
 20
-230.544
 30
0.0
 10
629.1774
 20
-230.544
 30
0.0
 10
629.1774
 20
-230.544
 30
0.0
 10
651.527
 20
-230.544
 30
0.0
 10
651.527
 20
-230.544
 30
0.0
 10
651.527
 20
-230.544
 30
0.0
 10
644.6846
 20
-260.0349
 30
0.0
 10
689.3494
 20
-280.7306
 30
0.0
 10
691.6336
 20
-333.658
 30
0.0
 10
720.2949
 20
-361.0419
 30
0.0
 10
773.59
 20
-374.9146
 30
0.0
  0
SPLINE
  5
9A
330
1F
100
AcDbEntity
  8
Layer 1
 62
   250
370
    20
100
AcDbSpline
210
0.0
220
0.0
230
1.0
 70
    11
 71
     3
 72
    23
 73
    19
 74
     0
 42
0.0000000001
 43
0.0000000001
 40
0.0
 40
0.0
 40
0.0
 40
0.0
 40
0.1666666666666667
 40
0.1666666666666667
 40
0.1666666666666667
 40
0.3333333333333333
 40
0.3333333333333333
 40
0.3333333333333333
 40
0.5
 40
0.5
 40
0.5
 40
0.6666666666666666
 40
0.6666666666666666
 40
0.6666666666666666
 40
0.8333333333333333
 40
0.8333333333333333
 40
0.8333333333333333
 40
1.0
 40
1.0
 40
1.0
 40
1.0
 10
1048.6617
 20
-481.1584
 30
0.0
 10
1048.6617
 20
-481.1584
 30
0.0
 10
1050.3809
 20
-450.5957
 30
0.0
 10
1050.3809
 20
-450.5957
 30
0.0
 10
1050.3809
 20
-450.5957
 30
0.0
 10
1194.7935
 20
-450.5957
 30
0.0
 10
1194.7935
 20
-450.5957
 30
0.0
 10
1194.7935
 20
-450.5957
 30
0.0
 10
1194.7935
 20
-590.0266
 30
0.0
 10
1194.7935
 20
-590.0266
 30
0.0
 10
1194.7935
 20
-590.0266
 30
0.0
 10
1155.4207
 20
-590.0266
 30
0.0
 10
1155.4207
 20
-590.0266
 30
0.0
 10
1150.1805
 20
-584.3765
 30
0.0
 10
1143.4002
 20
-579.2837
 30
0.0
 10
1134.6216
 20
-575.9029
 30
0.0
 10
1130.8972
 20
-545.4932
 30
0.0
 10
1103.676
 20
-490.3272
 30
0.0
 10
1048.6617
 20
-481.1584
 30
0.0
  0
SPLINE
  5
9B
330
1F
100
AcDbEntity
  8
Layer 1
 62
   250
370
    20
100
AcDbSpline
210
0.0
220
0.0
230
1.0
 70
    11
 71
     3
 72
    23
 73
    19
 74
     0
 42
0.0000000001
 43
0.0000000001
 40
0.0
 40
0.0
 40
0.0
 40
0.0
 40
0.1666666666666667
 40
0.1666666666666667
 40
0.1666666666666667
 40
0.3333333333333333
 40
0.3333333333333333
 40
0.3333333333333333
 40
0.5
 40
0.5
 40
0.5
 40
0.6666666666666666
 40
0.6666666666666666
 40
0.6666666666666666
 40
0.8333333333333333
 40
0.8333333333333333
 40
0.8333333333333333
 40
1.0
 40
1.0
 40
1.0
 40
1.0
 10
1052.1001
 20
-374.9146
 30
0.0
 10
1052.1001
 20
-374.9146
 30
0.0
 10
1052.1001
 20
-409.336
 30
0.0
 10
1052.1001
 20
-409.336
 30
0.0
 10
1052.1001
 20
-409.336
 30
0.0
 10
1196.5127
 20
-409.336
 30
0.0
 10
1196.5127
 20
-409.336
 30
0.0
 10
1196.5127
 20
-409.336
 30
0.0
 10
1196.5127
 20
-230.544
 30
0.0
 10
1196.5127
 20
-230.544
 30
0.0
 10
1196.5127
 20
-230.544
 30
0.0
 10
1174.1631
 20
-230.544
 30
0.0
 10
1174.1631
 20
-230.544
 30
0.0
 10
1174.1631
 20
-230.544
 30
0.0
 10
1181.0054
 20
-260.0349
 30
0.0
 10
1136.3407
 20
-280.7306
 30
0.0
 10
1134.656
 20
-332.4728
 30
0.0
 10
1096.2583
 20
-356.4882
 30
0.0
 10
1052.1001
 20
-374.9146
 30
0.0
  0
SPLINE
  5
9C
330
1F
100
AcDbEntity
  8
Layer 1
 62
   250
370
    20
100
AcDbSpline
210
0.0
220
0.0
230
1.0
 70
    11
 71
     3
 72
    23
 73
    19
 74
     0
 42
0.0000000001
 43
0.0000000001
 40
0.0
 40
0.0
 40
0.0
 40
0.0
 40
0.1666666666666667
 40
0.1666666666666667
 40
0.1666666666666667
 40
0.3333333333333333
 40
0.3333333333333333
 40
0.3333333333333333
 40
0.5
 40
0.5
 40
0.5
 40
0.6666666666666666
 40
0.6666666666666666
 40
0.6666666666666666
 40
0.8333333333333333
 40
0.8333333333333333
 40
0.8333333333333333
 40
1.0
 40
1.0
 40
1.0
 40
1.0
 10
1048.6617
 20
-57.8645
 30
0.0
 10
1048.6617
 20
-57.8645
 30
0.0
 10
1050.3809
 20
-27.3019
 30
0.0
 10
1050.3809
 20
-27.3019
 30
0.0
 10
1050.3809
 20
-27.3019
 30
0.0
 10
1194.7935
 20
-27.3019
 30
0.0
 10
1194.7935
 20
-27.3019
 30
0.0
 10
1194.7935
 20
-27.3019
 30
0.0
 10
1194.7935
 20
-201.5094
 30
0.0
 10
1194.7935
 20
-201.5094
 30
0.0
 10
1194.7935
 20
-201.5094
 30
0.0
 10
1172.4439
 20
-201.5094
 30
0.0
 10
1172.4439
 20
-201.5094
 30
0.0
 10
1172.4439
 20
-201.5094
 30
0.0
 10
1167.2518
 20
-165.174
 30
0.0
 10
1134.6216
 20
-152.609
 30
0.0
 10
1130.8972
 20
-122.1994
 30
0.0
 10
1103.676
 20
-67.0334
 30
0.0
 10
1048.6617
 20
-57.8645
 30
0.0
  0
SPLINE
  5
9D
330
1F
100
AcDbEntity
  8
Layer 1
 62
   250
370
    20
100
AcDbSpline
210
0.0
220
0.0
230
1.0
 70
    11
 71
     3
 72
    23
 73
    19
 74
     0
 42
0.0000000001
 43
0.0000000001
 40
0.0
 40
0.0
 40
0.0
 40
0.0
 40
0.1666666666666667
 40
0.1666666666666667
 40
0.1666666666666667
 40
0.3333333333333333
 40
0.3333333333333333
 40
0.3333333333333333
 40
0.5
 40
0.5
 40
0.5
 40
0.6666666666666666
 40
0.6666666666666666
 40
0.6666666666666666
 40
0.8333333333333333
 40
0.8333333333333333
 40
0.8333333333333333
 40
1.0
 40
1.0
 40
1.0
 40
1.0
 10
1052.1001
 20
48.3792
 30
0.0
 10
1052.1001
 20
48.3792
 30
0.0
 10
1052.1001
 20
13.9578
 30
0.0
 10
1052.1001
 20
13.9578
 30
0.0
 10
1052.1001
 20
13.9578
 30
0.0
 10
1196.5127
 20
13.9578
 30
0.0
 10
1196.5127
 20
13.9578
 30
0.0
 10
1196.5127
 20
13.9578
 30
0.0
 10
1196.5127
 20
192.7498
 30
0.0
 10
1196.5127
 20
192.7498
 30
0.0
 10
1196.5127
 20
192.7498
 30
0.0
 10
1174.1631
 20
192.7498
 30
0.0
 10
1174.1631
 20
192.7498
 30
0.0
 10
1174.1631
 20
192.7498
 30
0.0
 10
1181.0054
 20
163.2589
 30
0.0
 10
1136.3407
 20
142.5632
 30
0.0
 10
1134.656
 20
90.821
 30
0.0
 10
1096.2583
 20
66.8056
 30
0.0
 10
1052.1001
 20
48.3792
 30
0.0
  0
SPLINE
  5
9E
330
1F
100
AcDbEntity
  8
Layer 1
 62
   250
370
    20
100
AcDbSpline
210
0.0
220
0.0
230
1.0
 70
    11
 71
     3
 72
    23
 73
    19
 74
     0
 42
0.0000000001
 43
0.0000000001
 40
0.0
 40
0.0
 40
0.0
 40
0.0
 40
0.1666666666666667
 40
0.1666666666666667
 40
0.1666666666666667
 40
0.3333333333333333
 40
0.3333333333333333
 40
0.3333333333333333
 40
0.5
 40
0.5
 40
0.5
 40
0.6666666666666666
 40
0.6666666666666666
 40
0.6666666666666666
 40
0.8333333333333333
 40
0.8333333333333333
 40
0.8333333333333333
 40
1.0
 40
1.0
 40
1.0
 40
1.0
 10
1052.1001
 20
365.4292
 30
0.0
 10
1052.1001
 20
365.4292
 30
0.0
 10
1053.8193
 20
395.9919
 30
0.0
 10
1053.8193
 20
395.9919
 30
0.0
 10
1053.8193
 20
395.9919
 30
0.0
 10
1198.2319
 20
395.9919
 30
0.0
 10
1198.2319
 20
395.9919
 30
0.0
 10
1198.2319
 20
395.9919
 30
0.0
 10
1198.2319
 20
221.7844
 30
0.0
 10
1198.2319
 20
221.7844
 30
0.0
 10
1198.2319
 20
221.7844
 30
0.0
 10
1175.8823
 20
221.7844
 30
0.0
 10
1175.8823
 20
221.7844
 30
0.0
 10
1175.8823
 20
221.7844
 30
0.0
 10
1170.6902
 20
258.1198
 30
0.0
 10
1138.06
 20
270.6848
 30
0.0
 10
1134.3356
 20
301.0944
 30
0.0
 10
1107.1144
 20
356.2604
 30
0.0
 10
1052.1001
 20
365.4292
 30
0.0
  0
SPLINE
  5
9F
330
1F
100
AcDbEntity
  8
Layer 1
 62
   250
370
    20
100
AcDbSpline
210
0.0
220
0.0
230
1.0
 70
    11
 71
     3
 72
    23
 73
    19
 74
     0
 42
0.0000000001
 43
0.0000000001
 40
0.0
 40
0.0
 40
0.0
 40
0.0
 40
0.1666666666666667
 40
0.1666666666666667
 40
0.1666666666666667
 40
0.3333333333333333
 40
0.3333333333333333
 40
0.3333333333333333
 40
0.5
 40
0.5
 40
0.5
 40
0.6666666666666666
 40
0.6666666666666666
 40
0.6666666666666666
 40
0.8333333333333333
 40
0.8333333333333333
 40
0.8333333333333333
 40
1.0
 40
1.0
 40
1.0
 40
1.0
 10
1055.5384
 20
471.673
 30
0.0
 10
1055.5384
 20
471.673
 30
0.0
 10
1055.5384
 20
437.2516
 30
0.0
 10
1055.5384
 20
437.2516
 30
0.0
 10
1055.5384
 20
437.2516
 30
0.0
 10
1199.9511
 20
437.2516
 30
0.0
 10
1199.9511
 20
437.2516
 30
0.0
 10
1199.9511
 20
437.2516
 30
0.0
 10
1199.9511
 20
589.9734
 30
0.0
 10
1199.9511
 20
589.9734
 30
0.0
 10
1199.9511
 20
589.9734
 30
0.0
 10
1170.797
 20
589.9734
 30
0.0
 10
1170.797
 20
589.9734
 30
0.0
 10
1165.3604
 20
581.9928
 30
0.0
 10
1155.9513
 20
573.3507
 30
0.0
 10
1139.7792
 20
565.857
 30
0.0
 10
1138.0944
 20
514.1147
 30
0.0
 10
1099.6967
 20
490.0994
 30
0.0
 10
1055.5384
 20
471.673
 30
0.0
  0
SPLINE
  5
A0
330
1F
100
AcDbEntity
  8
Layer 1
 62
   250
370
    20
100
AcDbSpline
210
0.0
220
0.0
230
1.0
 70
    11
 71
     3
 72
    17
 73
    13
 74
     0
 42
0.0000000001
 43
0.0000000001
 40
0.0
 40
0.0
 40
0.0
 40
0.0
 40
0.25
 40
0.25
 40
0.25
 40
0.5
 40
0.5
 40
0.5
 40
0.75
 40
0.75
 40
0.75
 40
1.0
 40
1.0
 40
1.0
 40
1.0
 10
211.4124
 20
-449.0675
 30
0.0
 10
211.4124
 20
-449.0675
 30
0.0
 10
393.6473
 20
-449.0675
 30
0.0
 10
393.6473
 20
-449.0675
 30
0.0
 10
393.6473
 20
-449.0675
 30
0.0
 10
393.6473
 20
-516.3055
 30
0.0
 10
393.6473
 20
-516.3055
 30
0.0
 10
371.2978
 20
-556.0371
 30
0.0
 10
267.9599
 20
-587.5706
 30
0.0
 10
211.4124
 20
-511.7211
 30
0.0
 10
211.4124
 20
-511.7211
 30
0.0
 10
211.4124
 20
-449.0675
 30
0.0
 10
211.4124
 20
-449.0675
 30
0.0
  0
SPLINE
  5
A1
330
1F
100
AcDbEntity
  8
Layer 1
 62
   250
370
    20
100
AcDbSpline
210
0.0
220
0.0
230
1.0
 70
    11
 71
     3
 72
    17
 73
    13
 74
     0
 42
0.0000000001
 43
0.0000000001
 40
0.0
 40
0.0
 40
0.0
 40
0.0
 40
0.25
 40
0.25
 40
0.25
 40
0.5
 40
0.5
 40
0.5
 40
0.75
 40
0.75
 40
0.75
 40
1.0
 40
1.0
 40
1.0
 40
1.0
 10
211.4124
 20
-407.8078
 30
0.0
 10
211.4124
 20
-407.8078
 30
0.0
 10
393.6473
 20
-407.8078
 30
0.0
 10
393.6473
 20
-407.8078
 30
0.0
 10
393.6473
 20
-407.8078
 30
0.0
 10
393.6473
 20
-338.5272
 30
0.0
 10
393.6473
 20
-338.5333
 30
0.0
 10
371.2978
 20
-297.5952
 30
0.0
 10
266.2407
 20
-262.004
 30
0.0
 10
209.6932
 20
-340.1533
 30
0.0
 10
209.6932
 20
-340.1564
 30
0.0
 10
211.4124
 20
-407.8078
 30
0.0
 10
211.4124
 20
-407.8078
 30
0.0
  0
SPLINE
  5
A2
330
1F
100
AcDbEntity
  8
Layer 1
 62
   250
370
    20
100
AcDbSpline
210
0.0
220
0.0
230
1.0
 70
    11
 71
     3
 72
    17
 73
    13
 74
     0
 42
0.0000000001
 43
0.0000000001
 40
0.0
 40
0.0
 40
0.0
 40
0.0
 40
0.25
 40
0.25
 40
0.25
 40
0.5
 40
0.5
 40
0.5
 40
0.75
 40
0.75
 40
0.75
 40
1.0
 40
1.0
 40
1.0
 40
1.0
 10
213.1316
 20
-25.7737
 30
0.0
 10
213.1316
 20
-25.7737
 30
0.0
 10
395.3666
 20
-25.7737
 30
0.0
 10
395.3666
 20
-25.7737
 30
0.0
 10
395.3666
 20
-25.7737
 30
0.0
 10
395.3666
 20
-93.0117
 30
0.0
 10
395.3666
 20
-93.0117
 30
0.0
 10
373.017
 20
-132.7433
 30
0.0
 10
269.6791
 20
-164.2768
 30
0.0
 10
213.1316
 20
-88.4273
 30
0.0
 10
213.1316
 20
-88.4273
 30
0.0
 10
213.1316
 20
-25.7737
 30
0.0
 10
213.1316
 20
-25.7737
 30
0.0
  0
SPLINE
  5
A3
330
1F
100
AcDbEntity
  8
Layer 1
 62
   250
370
    20
100
AcDbSpline
210
0.0
220
0.0
230
1.0
 70
    11
 71
     3
 72
    17
 73
    13
 74
     0
 42
0.0000000001
 43
0.0000000001
 40
0.0
 40
0.0
 40
0.0
 40
0.0
 40
0.25
 40
0.25
 40
0.25
 40
0.5
 40
0.5
 40
0.5
 40
0.75
 40
0.75
 40
0.75
 40
1.0
 40
1.0
 40
1.0
 40
1.0
 10
213.1316
 20
15.486
 30
0.0
 10
213.1316
 20
15.486
 30
0.0
 10
395.3666
 20
15.486
 30
0.0
 10
395.3666
 20
15.486
 30
0.0
 10
395.3666
 20
15.486
 30
0.0
 10
395.3666
 20
84.7666
 30
0.0
 10
395.3666
 20
84.7605
 30
0.0
 10
373.017
 20
125.6986
 30
0.0
 10
267.9599
 20
161.2898
 30
0.0
 10
211.4124
 20
83.1405
 30
0.0
 10
211.4124
 20
83.1374
 30
0.0
 10
213.1316
 20
15.486
 30
0.0
 10
213.1316
 20
15.486
 30
0.0
  0
SPLINE
  5
A4
330
1F
100
AcDbEntity
  8
Layer 1
 62
   250
370
    20
100
AcDbSpline
210
0.0
220
0.0
230
1.0
 70
    11
 71
     3
 72
    17
 73
    13
 74
     0
 42
0.0000000001
 43
0.0000000001
 40
0.0
 40
0.0
 40
0.0
 40
0.0
 40
0.25
 40
0.25
 40
0.25
 40
0.5
 40
0.5
 40
0.5
 40
0.75
 40
0.75
 40
0.75
 40
1.0
 40
1.0
 40
1.0
 40
1.0
 10
214.8508
 20
399.0482
 30
0.0
 10
214.8508
 20
399.0482
 30
0.0
 10
397.0857
 20
399.0482
 30
0.0
 10
397.0857
 20
399.0482
 30
0.0
 10
397.0857
 20
399.0482
 30
0.0
 10
397.0857
 20
331.8102
 30
0.0
 10
397.0857
 20
331.8102
 30
0.0
 10
374.7362
 20
292.0787
 30
0.0
 10
271.3983
 20
260.5452
 30
0.0
 10
214.8508
 20
336.3946
 30
0.0
 10
214.8508
 20
336.3946
 30
0.0
 10
214.8508
 20
399.0482
 30
0.0
 10
214.8508
 20
399.0482
 30
0.0
  0
SPLINE
  5
A5
330
1F
100
AcDbEntity
  8
Layer 1
 62
   250
370
    20
100
AcDbSpline
210
0.0
220
0.0
230
1.0
 70
    11
 71
     3
 72
    17
 73
    13
 74
     0
 42
0.0000000001
 43
0.0000000001
 40
0.0
 40
0.0
 40
0.0
 40
0.0
 40
0.25
 40
0.25
 40
0.25
 40
0.5
 40
0.5
 40
0.5
 40
0.75
 40
0.75
 40
0.75
 40
1.0
 40
1.0
 40
1.0
 40
1.0
 10
214.8508
 20
440.3079
 30
0.0
 10
214.8508
 20
440.3079
 30
0.0
 10
397.0857
 20
440.3079
 30
0.0
 10
397.0857
 20
440.3079
 30
0.0
 10
397.0857
 20
440.3079
 30
0.0
 10
397.0857
 20
509.5886
 30
0.0
 10
397.0857
 20
509.5824
 30
0.0
 10
374.7362
 20
550.5205
 30
0.0
 10
269.6791
 20
586.1117
 30
0.0
 10
213.1316
 20
507.9624
 30
0.0
 10
213.1316
 20
507.9593
 30
0.0
 10
214.8508
 20
440.3079
 30
0.0
 10
214.8508
 20
440.3079
 30
0.0
  0
SPLINE
  5
A6
330
1F
100
AcDbEntity
  8
Layer 1
 62
   250
370
    20
100
AcDbSpline
210
0.0
220
0.0
230
1.0
 70
    11
 71
     3
 72
    29
 73
    25
 74
     0
 42
0.0000000001
 43
0.0000000001
 40
0.0
 40
0.0
 40
0.0
 40
0.0
 40
0.125
 40
0.125
 40
0.125
 40
0.25
 40
0.25
 40
0.25
 40
0.375
 40
0.375
 40
0.375
 40
0.5
 40
0.5
 40
0.5
 40
0.625
 40
0.625
 40
0.625
 40
0.75
 40
0.75
 40
0.75
 40
0.875
 40
0.875
 40
0.875
 40
1.0
 40
1.0
 40
1.0
 40
1.0
 10
168.6357
 20
94.9001
 30
0.0
 10
240.8421
 20
207.9822
 30
0.0
 10
402.4466
 20
177.4195
 30
0.0
 10
436.8306
 20
90.3157
 30
0.0
 10
474.6529
 20
91.8438
 30
0.0
 10
492.1102
 20
144.419
 30
0.0
 10
471.2145
 20
169.7788
 30
0.0
 10
538.2632
 20
165.1943
 30
0.0
 10
546.8592
 20
243.1293
 30
0.0
 10
472.9338
 20
246.1856
 30
0.0
 10
489.8983
 20
273.3797
 30
0.0
 10
476.3722
 20
318.008
 30
0.0
 10
440.269
 20
328.7049
 30
0.0
 10
383.5355
 20
246.1856
 30
0.0
 10
251.1572
 20
197.2852
 30
0.0
 10
165.1973
 20
328.7049
 30
0.0
 10
152.157
 20
331.4121
 30
0.0
 10
118.779
 20
281.3327
 30
0.0
 10
132.5326
 20
249.2419
 30
0.0
 10
87.8335
 20
255.3544
 30
0.0
 10
50.0111
 20
178.9476
 30
0.0
 10
130.8134
 20
174.3632
 30
0.0
 10
130.8134
 20
174.3632
 30
0.0
 10
118.1589
 20
104.9019
 30
0.0
 10
168.6357
 20
94.9001
 30
0.0
  0
SPLINE
  5
A7
330
1F
100
AcDbEntity
  8
Layer 1
 62
   250
370
    20
100
AcDbSpline
210
0.0
220
0.0
230
1.0
 70
    11
 71
     3
 72
    29
 73
    25
 74
     0
 42
0.0000000001
 43
0.0000000001
 40
0.0
 40
0.0
 40
0.0
 40
0.0
 40
0.125
 40
0.125
 40
0.125
 40
0.25
 40
0.25
 40
0.25
 40
0.375
 40
0.375
 40
0.375
 40
0.5
 40
0.5
 40
0.5
 40
0.625
 40
0.625
 40
0.625
 40
0.75
 40
0.75
 40
0.75
 40
0.875
 40
0.875
 40
0.875
 40
1.0
 40
1.0
 40
1.0
 40
1.0
 10
166.7133
 20
-329.8729
 30
0.0
 10
238.9196
 20
-216.7908
 30
0.0
 10
400.5241
 20
-247.3535
 30
0.0
 10
434.9081
 20
-334.4573
 30
0.0
 10
472.7305
 20
-332.9292
 30
0.0
 10
490.1878
 20
-280.3539
 30
0.0
 10
469.2921
 20
-254.9942
 30
0.0
 10
536.3408
 20
-259.5786
 30
0.0
 10
544.9368
 20
-181.6436
 30
0.0
 10
471.0113
 20
-178.5873
 30
0.0
 10
487.9758
 20
-151.3932
 30
0.0
 10
474.4497
 20
-106.765
 30
0.0
 10
438.3465
 20
-96.068
 30
0.0
 10
381.613
 20
-178.5873
 30
0.0
 10
249.2348
 20
-227.4877
 30
0.0
 10
163.2749
 20
-96.068
 30
0.0
 10
150.2345
 20
-93.3608
 30
0.0
 10
116.8565
 20
-143.4402
 30
0.0
 10
130.6101
 20
-175.5311
 30
0.0
 10
85.911
 20
-169.4186
 30
0.0
 10
48.0887
 20
-245.8254
 30
0.0
 10
128.8909
 20
-250.4098
 30
0.0
 10
128.8909
 20
-250.4098
 30
0.0
 10
116.2364
 20
-319.8711
 30
0.0
 10
166.7133
 20
-329.8729
 30
0.0
  0
SPLINE
  5
A8
330
1F
100
AcDbEntity
  8
Layer 1
 62
   250
370
    20
100
AcDbSpline
210
0.0
220
0.0
230
1.0
 70
    11
 71
     3
 72
    29
 73
    25
 74
     0
 42
0.0000000001
 43
0.0000000001
 40
0.0
 40
0.0
 40
0.0
 40
0.0
 40
0.125
 40
0.125
 40
0.125
 40
0.25
 40
0.25
 40
0.25
 40
0.375
 40
0.375
 40
0.375
 40
0.5
 40
0.5
 40
0.5
 40
0.625
 40
0.625
 40
0.625
 40
0.75
 40
0.75
 40
0.75
 40
0.875
 40
0.875
 40
0.875
 40
1.0
 40
1.0
 40
1.0
 40
1.0
 10
778.7476
 20
-331.401
 30
0.0
 10
850.954
 20
-218.3189
 30
0.0
 10
1012.5585
 20
-248.8816
 30
0.0
 10
1046.9425
 20
-335.9854
 30
0.0
 10
1084.7648
 20
-334.4573
 30
0.0
 10
1102.2221
 20
-281.882
 30
0.0
 10
1081.3264
 20
-256.5223
 30
0.0
 10
1148.3751
 20
-261.1067
 30
0.0
 10
1156.9712
 20
-183.1718
 30
0.0
 10
1083.0456
 20
-180.1155
 30
0.0
 10
1100.0102
 20
-152.9214
 30
0.0
 10
1086.4841
 20
-108.2931
 30
0.0
 10
1050.3809
 20
-97.5961
 30
0.0
 10
993.6474
 20
-180.1155
 30
0.0
 10
861.2691
 20
-229.0159
 30
0.0
 10
775.3092
 20
-97.5961
 30
0.0
 10
762.2688
 20
-94.889
 30
0.0
 10
728.8909
 20
-144.9684
 30
0.0
 10
742.6445
 20
-177.0592
 30
0.0
 10
697.9454
 20
-170.9467
 30
0.0
 10
660.123
 20
-247.3535
 30
0.0
 10
740.9253
 20
-251.9379
 30
0.0
 10
740.9253
 20
-251.9379
 30
0.0
 10
728.2708
 20
-321.3992
 30
0.0
 10
778.7476
 20
-331.401
 30
0.0
  0
SPLINE
  5
A9
330
1F
100
AcDbEntity
  8
Layer 1
 62
   250
370
    20
100
AcDbSpline
210
0.0
220
0.0
230
1.0
 70
    11
 71
     3
 72
    29
 73
    25
 74
     0
 42
0.0000000001
 43
0.0000000001
 40
0.0
 40
0.0
 40
0.0
 40
0.0
 40
0.125
 40
0.125
 40
0.125
 40
0.25
 40
0.25
 40
0.25
 40
0.375
 40
0.375
 40
0.375
 40
0.5
 40
0.5
 40
0.5
 40
0.625
 40
0.625
 40
0.625
 40
0.75
 40
0.75
 40
0.75
 40
0.875
 40
0.875
 40
0.875
 40
1.0
 40
1.0
 40
1.0
 40
1.0
 10
778.7476
 20
91.8928
 30
0.0
 10
850.954
 20
204.9749
 30
0.0
 10
1012.5585
 20
174.4121
 30
0.0
 10
1046.9425
 20
87.3084
 30
0.0
 10
1084.7648
 20
88.8365
 30
0.0
 10
1102.2221
 20
141.4118
 30
0.0
 10
1081.3264
 20
166.7715
 30
0.0
 10
1148.3751
 20
162.1871
 30
0.0
 10
1156.9712
 20
240.122
 30
0.0
 10
1083.0456
 20
243.1783
 30
0.0
 10
1100.0102
 20
270.3724
 30
0.0
 10
1086.4841
 20
315.0007
 30
0.0
 10
1050.3809
 20
325.6977
 30
0.0
 10
993.6474
 20
243.1783
 30
0.0
 10
861.2691
 20
194.2779
 30
0.0
 10
775.3092
 20
325.6977
 30
0.0
 10
762.2688
 20
328.4049
 30
0.0
 10
728.8909
 20
278.3254
 30
0.0
 10
742.6445
 20
246.2346
 30
0.0
 10
697.9454
 20
252.3471
 30
0.0
 10
660.123
 20
175.9403
 30
0.0
 10
740.9253
 20
171.3559
 30
0.0
 10
740.9253
 20
171.3559
 30
0.0
 10
728.2708
 20
101.8946
 30
0.0
 10
778.7476
 20
91.8928
 30
0.0
  0
SPLINE
  5
AA
330
1F
100
AcDbEntity
  8
Layer 1
 62
   250
370
    20
100
AcDbSpline
210
0.0
220
0.0
230
1.0
 70
    11
 71
     3
 72
    17
 73
    13
 74
     0
 42
0.0000000001
 43
0.0000000001
 40
0.0
 40
0.0
 40
0.0
 40
0.0
 40
0.25
 40
0.25
 40
0.25
 40
0.5
 40
0.5
 40
0.5
 40
0.75
 40
0.75
 40
0.75
 40
1.0
 40
1.0
 40
1.0
 40
1.0
 10
825.166
 20
397.5201
 30
0.0
 10
825.166
 20
397.5201
 30
0.0
 10
1007.401
 20
397.5201
 30
0.0
 10
1007.401
 20
397.5201
 30
0.0
 10
1007.401
 20
397.5201
 30
0.0
 10
1007.401
 20
330.2821
 30
0.0
 10
1007.401
 20
330.2821
 30
0.0
 10
985.0514
 20
290.5506
 30
0.0
 10
881.7135
 20
259.017
 30
0.0
 10
825.166
 20
334.8665
 30
0.0
 10
825.166
 20
334.8665
 30
0.0
 10
825.166
 20
397.5201
 30
0.0
 10
825.166
 20
397.5201
 30
0.0
  0
SPLINE
  5
AB
330
1F
100
AcDbEntity
  8
Layer 1
 62
   250
370
    20
100
AcDbSpline
210
0.0
220
0.0
230
1.0
 70
    11
 71
     3
 72
    17
 73
    13
 74
     0
 42
0.0000000001
 43
0.0000000001
 40
0.0
 40
0.0
 40
0.0
 40
0.0
 40
0.25
 40
0.25
 40
0.25
 40
0.5
 40
0.5
 40
0.5
 40
0.75
 40
0.75
 40
0.75
 40
1.0
 40
1.0
 40
1.0
 40
1.0
 10
825.166
 20
438.7798
 30
0.0
 10
825.166
 20
438.7798
 30
0.0
 10
1007.401
 20
438.7798
 30
0.0
 10
1007.401
 20
438.7798
 30
0.0
 10
1007.401
 20
438.7798
 30
0.0
 10
1007.401
 20
508.0604
 30
0.0
 10
1007.401
 20
508.0543
 30
0.0
 10
985.0514
 20
548.9924
 30
0.0
 10
879.9942
 20
584.5836
 30
0.0
 10
823.4467
 20
506.4343
 30
0.0
 10
823.4467
 20
506.4312
 30
0.0
 10
825.166
 20
438.7798
 30
0.0
 10
825.166
 20
438.7798
 30
0.0
  0
SPLINE
  5
AC
330
1F
100
AcDbEntity
  8
Layer 1
 62
   250
370
    20
100
AcDbSpline
210
0.0
220
0.0
230
1.0
 70
    11
 71
     3
 72
    17
 73
    13
 74
     0
 42
0.0000000001
 43
0.0000000001
 40
0.0
 40
0.0
 40
0.0
 40
0.0
 40
0.25
 40
0.25
 40
0.25
 40
0.5
 40
0.5
 40
0.5
 40
0.75
 40
0.75
 40
0.75
 40
1.0
 40
1.0
 40
1.0
 40
1.0
 10
823.4467
 20
-24.2456
 30
0.0
 10
823.4467
 20
-24.2456
 30
0.0
 10
1005.6817
 20
-24.2456
 30
0.0
 10
1005.6817
 20
-24.2456
 30
0.0
 10
1005.6817
 20
-24.2456
 30
0.0
 10
1005.6817
 20
-91.4836
 30
0.0
 10
1005.6817
 20
-91.4836
 30
0.0
 10
983.3322
 20
-131.2151
 30
0.0
 10
879.9942
 20
-162.7487
 30
0.0
 10
823.4467
 20
-86.8992
 30
0.0
 10
823.4467
 20
-86.8992
 30
0.0
 10
823.4467
 20
-24.2456
 30
0.0
 10
823.4467
 20
-24.2456
 30
0.0
  0
SPLINE
  5
AD
330
1F
100
AcDbEntity
  8
Layer 1
 62
   250
370
    20
100
AcDbSpline
210
0.0
220
0.0
230
1.0
 70
    11
 71
     3
 72
    17
 73
    13
 74
     0
 42
0.0000000001
 43
0.0000000001
 40
0.0
 40
0.0
 40
0.0
 40
0.0
 40
0.25
 40
0.25
 40
0.25
 40
0.5
 40
0.5
 40
0.5
 40
0.75
 40
0.75
 40
0.75
 40
1.0
 40
1.0
 40
1.0
 40
1.0
 10
823.4467
 20
17.0141
 30
0.0
 10
823.4467
 20
17.0141
 30
0.0
 10
1005.6817
 20
17.0141
 30
0.0
 10
1005.6817
 20
17.0141
 30
0.0
 10
1005.6817
 20
17.0141
 30
0.0
 10
1005.6817
 20
86.2947
 30
0.0
 10
1005.6817
 20
86.2886
 30
0.0
 10
983.3322
 20
127.2267
 30
0.0
 10
878.2751
 20
162.8179
 30
0.0
 10
821.7276
 20
84.6686
 30
0.0
 10
821.7276
 20
84.6656
 30
0.0
 10
823.4467
 20
17.0141
 30
0.0
 10
823.4467
 20
17.0141
 30
0.0
  0
SPLINE
  5
AE
330
1F
100
AcDbEntity
  8
Layer 1
 62
   250
370
    20
100
AcDbSpline
210
0.0
220
0.0
230
1.0
 70
    11
 71
     3
 72
    17
 73
    13
 74
     0
 42
0.0000000001
 43
0.0000000001
 40
0.0
 40
0.0
 40
0.0
 40
0.0
 40
0.25
 40
0.25
 40
0.25
 40
0.5
 40
0.5
 40
0.5
 40
0.75
 40
0.75
 40
0.75
 40
1.0
 40
1.0
 40
1.0
 40
1.0
 10
821.7276
 20
-450.5957
 30
0.0
 10
821.7276
 20
-450.5957
 30
0.0
 10
1003.9626
 20
-450.5957
 30
0.0
 10
1003.9626
 20
-450.5957
 30
0.0
 10
1003.9626
 20
-450.5957
 30
0.0
 10
1003.9626
 20
-517.8337
 30
0.0
 10
1003.9626
 20
-517.8337
 30
0.0
 10
981.613
 20
-557.5652
 30
0.0
 10
878.2751
 20
-589.0987
 30
0.0
 10
821.7276
 20
-513.2493
 30
0.0
 10
821.7276
 20
-513.2493
 30
0.0
 10
821.7276
 20
-450.5957
 30
0.0
 10
821.7276
 20
-450.5957
 30
0.0
  0
SPLINE
  5
AF
330
1F
100
AcDbEntity
  8
Layer 1
 62
   250
370
    20
100
AcDbSpline
210
0.0
220
0.0
230
1.0
 70
    11
 71
     3
 72
    17
 73
    13
 74
     0
 42
0.0000000001
 43
0.0000000001
 40
0.0
 40
0.0
 40
0.0
 40
0.0
 40
0.25
 40
0.25
 40
0.25
 40
0.5
 40
0.5
 40
0.5
 40
0.75
 40
0.75
 40
0.75
 40
1.0
 40
1.0
 40
1.0
 40
1.0
 10
821.7276
 20
-409.336
 30
0.0
 10
821.7276
 20
-409.336
 30
0.0
 10
1003.9626
 20
-409.336
 30
0.0
 10
1003.9626
 20
-409.336
 30
0.0
 10
1003.9626
 20
-409.336
 30
0.0
 10
1003.9626
 20
-340.0553
 30
0.0
 10
1003.9626
 20
-340.0615
 30
0.0
 10
981.613
 20
-299.1234
 30
0.0
 10
876.5558
 20
-263.5322
 30
0.0
 10
820.0084
 20
-341.6815
 30
0.0
 10
820.0084
 20
-341.6845
 30
0.0
 10
821.7276
 20
-409.336
 30
0.0
 10
821.7276
 20
-409.336
 30
0.0
  0
ENDSEC
  0
SECTION
  2
OBJECTS
  0
DICTIONARY
  5
C
330
0
100
AcDbDictionary
281
     1
  3
ACAD_DETAILVIEWSTYLE
350
B7
  3
ACAD_GROUP
350
D
  3
ACAD_LAYOUT
350
1A
  3
ACAD_MATERIAL
350
43
  3
ACAD_MLEADERSTYLE
350
5B
  3
ACAD_MLINESTYLE
350
17
  3
ACAD_PLOTSETTINGS
350
19
  3
ACAD_PLOTSTYLENAME
350
E
  3
ACAD_SCALELIST
350
47
  3
ACAD_SECTIONVIEWSTYLE
350
B8
  3
ACAD_TABLESTYLE
350
59
  3
ACAD_VISUALSTYLE
350
2A
  3
ACDB_RECOMPOSE_DATA
350
B4
  3
AcDbVariableDictionary
350
B0
  0
SUN
  5
5D
330
29
100
AcDbSun
 90
        1
290
     0
 63
     7
421
 16777215
 40
1.0
291
     1
 91
  2455826
 92
 54000000
292
     0
 70
     2
 71
   256
280
     1
  0
DICTIONARY
  5
B7
102
{ACAD_REACTORS
330
C
102
}
330
C
100
AcDbDictionary
281
     1
  0
DICTIONARY
  5
D
102
{ACAD_REACTORS
330
C
102
}
330
C
100
AcDbDictionary
281
     1
  0
DICTIONARY
  5
1A
102
{ACAD_REACTORS
330
C
102
}
330
C
100
AcDbDictionary
281
     1
  3
Layout1
350
1E
  3
Layout2
350
26
  3
Model
350
22
  0
DICTIONARY
  5
43
102
{ACAD_REACTORS
330
C
102
}
330
C
100
AcDbDictionary
281
     1
  3
ByBlock
350
45
  3
ByLayer
350
44
  3
Global
350
46
  0
DICTIONARY
  5
5B
102
{ACAD_REACTORS
330
C
102
}
330
C
100
AcDbDictionary
281
     1
  3
Standard
350
5C
  0
DICTIONARY
  5
17
102
{ACAD_REACTORS
330
C
102
}
330
C
100
AcDbDictionary
281
     1
  3
Standard
350
18
  0
DICTIONARY
  5
19
102
{ACAD_REACTORS
330
C
102
}
330
C
100
AcDbDictionary
281
     1
  0
ACDBDICTIONARYWDFLT
  5
E
102
{ACAD_REACTORS
330
C
102
}
330
C
100
AcDbDictionary
281
     1
  3
Normal
350
F
100
AcDbDictionaryWithDefault
340
F
  0
DICTIONARY
  5
47
102
{ACAD_REACTORS
330
C
102
}
330
C
100
AcDbDictionary
281
     1
  3
A0
350
48
  3
A1
350
49
  3
A2
350
4A
  3
A3
350
4B
  3
A4
350
4C
  3
A5
350
4D
  3
A6
350
4E
  3
A7
350
4F
  3
A8
350
50
  3
A9
350
51
  3
B1
350
52
  3
B2
350
53
  3
B3
350
54
  3
B4
350
55
  3
B5
350
56
  3
B6
350
57
  3
B7
350
58
  0
DICTIONARY
  5
B8
102
{ACAD_REACTORS
330
C
102
}
330
C
100
AcDbDictionary
281
     1
  0
DICTIONARY
  5
59
102
{ACAD_REACTORS
330
C
102
}
330
C
100
AcDbDictionary
281
     1
  3
Standard
350
5A
  0
DICTIONARY
  5
2A
102
{ACAD_REACTORS
330
C
102
}
330
C
100
AcDbDictionary
281
     1
  3
2dWireframe
350
2F
  3
Basic
350
32
  3
Brighten
350
36
  3
ColorChange
350
3A
  3
Conceptual
350
34
  3
Dim
350
35
  3
EdgeColorOff
350
3D
  3
Facepattern
350
39
  3
Flat
350
2B
  3
FlatWithEdges
350
2C
  3
Gouraud
350
2D
  3
GouraudWithEdges
350
2E
  3
Hidden
350
31
  3
JitterOff
350
3B
  3
Linepattern
350
38
  3
OverhangOff
350
3C
  3
Realistic
350
33
  3
Shaded
350
42
  3
Shaded with edges
350
41
  3
Shades of Gray
350
3E
  3
Sketchy
350
3F
  3
Thicken
350
37
  3
Wireframe
350
30
  3
X-Ray
350
40
  0
XRECORD
  5
B4
102
{ACAD_REACTORS
330
C
102
}
330
C
100
AcDbXrecord
280
     1
 90
        1
330
5A
  0
DICTIONARY
  5
B0
102
{ACAD_REACTORS
330
C
102
}
330
C
100
AcDbDictionary
281
     1
  3
CANNOSCALE
350
B1
  3
CMLEADERSTYLE
350
B6
  3
CTABLESTYLE
350
B5
  0
LAYOUT
  5
1E
102
{ACAD_REACTORS
330
1A
102
}
330
1A
100
AcDbPlotSettings
  1

  2
none_device
  4

  6

 40
0.0
 41
0.0
 42
0.0
 43
0.0
 44
0.0
 45
0.0
 46
0.0
 47
0.0
 48
0.0
 49
0.0
140
0.0
141
0.0
142
1.0
143
1.0
 70
   688
 72
     0
 73
     0
 74
     5
  7

 75
    16
 76
     0
 77
     2
 78
   300
147
1.0
148
0.0
149
0.0
100
AcDbLayout
  1
Layout1
 70
     1
 71
     1
 10
0.0
 20
0.0
 11
12.0
 21
9.0
 12
0.0
 22
0.0
 32
0.0
 14
1.000000000000000E+20
 24
1.000000000000000E+20
 34
1.000000000000000E+20
 15
-1.000000000000000E+20
 25
-1.000000000000000E+20
 35
-1.000000000000000E+20
146
0.0
 13
0.0
 23
0.0
 33
0.0
 16
1.0
 26
0.0
 36
0.0
 17
0.0
 27
1.0
 37
0.0
 76
     0
330
1B
  0
LAYOUT
  5
26
102
{ACAD_REACTORS
330
1A
102
}
330
1A
100
AcDbPlotSettings
  1

  2
none_device
  4

  6

 40
0.0
 41
0.0
 42
0.0
 43
0.0
 44
0.0
 45
0.0
 46
0.0
 47
0.0
 48
0.0
 49
0.0
140
0.0
141
0.0
142
1.0
143
1.0
 70
   688
 72
     0
 73
     0
 74
     5
  7

 75
    16
 76
     0
 77
     2
 78
   300
147
1.0
148
0.0
149
0.0
100
AcDbLayout
  1
Layout2
 70
     1
 71
     2
 10
0.0
 20
0.0
 11
0.0
 21
0.0
 12
0.0
 22
0.0
 32
0.0
 14
0.0
 24
0.0
 34
0.0
 15
0.0
 25
0.0
 35
0.0
146
0.0
 13
0.0
 23
0.0
 33
0.0
 16
1.0
 26
0.0
 36
0.0
 17
0.0
 27
1.0
 37
0.0
 76
     0
330
23
  0
LAYOUT
  5
22
102
{ACAD_REACTORS
330
1A
102
}
330
1A
100
AcDbPlotSettings
  1

  2
none_device
  4
Letter_(8.50_x_11.00_Inches)
  6

 40
6.35
 41
6.35
 42
6.35000508
 43
6.35000508
 44
215.9
 45
279.4
 46
0.0
 47
0.0
 48
0.0
 49
0.0
140
0.0
141
0.0
142
1.0
143
1.0
 70
  1712
 72
     0
 73
     0
 74
     0
  7

 75
     0
 76
     0
 77
     2
 78
   300
147
1.0
148
0.0
149
0.0
100
AcDbLayout
  1
Model
 70
     1
 71
     0
 10
0.0
 20
0.0
 11
12.0
 21
9.0
 12
0.0
 22
0.0
 32
0.0
 14
-1200.1489
 24
-590.1266
 34
0.0
 15
1200.0511
 25
590.0734
 35
0.0
146
0.0
 13
0.0
 23
0.0
 33
0.0
 16
1.0
 26
0.0
 36
0.0
 17
0.0
 27
1.0
 37
0.0
 76
     0
330
1F
331
29
  0
MATERIAL
  5
45
102
{ACAD_REACTORS
330
43
102
}
330
43
100
AcDbMaterial
  1
ByBlock
 72
     1
 94
      127
  0
MATERIAL
  5
44
102
{ACAD_REACTORS
330
43
102
}
330
43
100
AcDbMaterial
  1
ByLayer
 72
     1
 94
      127
  0
MATERIAL
  5
46
102
{ACAD_REACTORS
330
43
102
}
330
43
100
AcDbMaterial
  1
Global
 72
     1
 94
      127
  0
MLEADERSTYLE
  5
5C
102
{ACAD_REACTORS
330
5B
102
}
330
5B
100
AcDbMLeaderStyle
179
     2
170
     2
171
     1
172
     0
 90
        2
 40
0.0
 41
0.0
173
     1
 91
-1056964608
340
14
 92
       -2
290
     1
 42
0.09
291
     1
 43
0.36
  3
Standard
341
0
 44
0.18
300

342
11
174
     1
178
     6
175
     1
176
     0
 93
-1056964608
 45
0.18
292
     0
297
     0
 46
0.18
343
0
 94
-1056964608
 47
1.0
 49
1.0
140
1.0
293
     1
141
0.0
294
     1
177
     0
142
1.0
295
     0
296
     0
143
0.125
271
     0
272
     9
273
     9
298
     0
  0
MLINESTYLE
  5
18
102
{ACAD_REACTORS
330
17
102
}
330
17
100
AcDbMlineStyle
  2
Standard
 70
     0
  3

 62
   256
 51
90.0
 52
90.0
 71
     2
 49
0.5
 62
   256
  6
BYLAYER
 49
-0.5
 62
   256
  6
BYLAYER
  0
ACDBPLACEHOLDER
  5
F
102
{ACAD_REACTORS
330
E
102
}
330
E
  0
SCALE
  5
48
102
{ACAD_REACTORS
330
47
102
}
330
47
100
AcDbScale
 70
     0
300
1:1
140
1.0
141
1.0
290
     1
  0
SCALE
  5
49
102
{ACAD_REACTORS
330
47
102
}
330
47
100
AcDbScale
 70
     0
300
1/128" = 1'-0"
140
0.0078125
141
12.0
290
     0
  0
SCALE
  5
4A
102
{ACAD_REACTORS
330
47
102
}
330
47
100
AcDbScale
 70
     0
300
1/64" = 1'-0"
140
0.015625
141
12.0
290
     0
  0
SCALE
  5
4B
102
{ACAD_REACTORS
330
47
102
}
330
47
100
AcDbScale
 70
     0
300
1/32" = 1'-0"
140
0.03125
141
12.0
290
     0
  0
SCALE
  5
4C
102
{ACAD_REACTORS
330
47
102
}
330
47
100
AcDbScale
 70
     0
300
1/16" = 1'-0"
140
0.0625
141
12.0
290
     0
  0
SCALE
  5
4D
102
{ACAD_REACTORS
330
47
102
}
330
47
100
AcDbScale
 70
     0
300
3/32" = 1'-0"
140
0.09375
141
12.0
290
     0
  0
SCALE
  5
4E
102
{ACAD_REACTORS
330
47
102
}
330
47
100
AcDbScale
 70
     0
300
1/8" = 1'-0"
140
0.125
141
12.0
290
     0
  0
SCALE
  5
4F
102
{ACAD_REACTORS
330
47
102
}
330
47
100
AcDbScale
 70
     0
300
3/16" = 1'-0"
140
0.1875
141
12.0
290
     0
  0
SCALE
  5
50
102
{ACAD_REACTORS
330
47
102
}
330
47
100
AcDbScale
 70
     0
300
1/4" = 1'-0"
140
0.25
141
12.0
290
     0
  0
SCALE
  5
51
102
{ACAD_REACTORS
330
47
102
}
330
47
100
AcDbScale
 70
     0
300
3/8" = 1'-0"
140
0.375
141
12.0
290
     0
  0
SCALE
  5
52
102
{ACAD_REACTORS
330
47
102
}
330
47
100
AcDbScale
 70
     0
300
1/2" = 1'-0"
140
0.5
141
12.0
290
     0
  0
SCALE
  5
53
102
{ACAD_REACTORS
330
47
102
}
330
47
100
AcDbScale
 70
     0
300
3/4" = 1'-0"
140
0.75
141
12.0
290
     0
  0
SCALE
  5
54
102
{ACAD_REACTORS
330
47
102
}
330
47
100
AcDbScale
 70
     0
300
1" = 1'-0"
140
1.0
141
12.0
290
     0
  0
SCALE
  5
55
102
{ACAD_REACTORS
330
47
102
}
330
47
100
AcDbScale
 70
     0
300
1-1/2" = 1'-0"
140
1.5
141
12.0
290
     0
  0
SCALE
  5
56
102
{ACAD_REACTORS
330
47
102
}
330
47
100
AcDbScale
 70
     0
300
3" = 1'-0"
140
3.0
141
12.0
290
     0
  0
SCALE
  5
57
102
{ACAD_REACTORS
330
47
102
}
330
47
100
AcDbScale
 70
     0
300
6" = 1'-0"
140
6.0
141
12.0
290
     0
  0
SCALE
  5
58
102
{ACAD_REACTORS
330
47
102
}
330
47
100
AcDbScale
 70
     0
300
1'-0" = 1'-0"
140
12.0
141
12.0
290
     0
  0
TABLESTYLE
  5
5A
102
{ACAD_REACTORS
330
59
102
}
102
{ACAD_XDICTIONARY
360
B2
102
}
330
59
100
AcDbTableStyle
  3
Standard
 70
     0
 71
     0
 40
0.06
 41
0.06
280
     0
281
     0
  7
Standard
140
0.18
170
     2
 62
     0
 63
   257
283
     0
 90
        4
 91
        0
  1

274
    -2
284
     1
 64
     0
275
    -2
285
     1
 65
     0
276
    -2
286
     1
 66
     0
277
    -2
287
     1
 67
     0
278
    -2
288
     1
 68
     0
279
    -2
289
     1
 69
     0
  7
Standard
140
0.25
170
     5
 62
     0
 63
   257
283
     0
 90
        4
 91
        0
  1

274
    -2
284
     1
 64
     0
275
    -2
285
     1
 65
     0
276
    -2
286
     1
 66
     0
277
    -2
287
     1
 67
     0
278
    -2
288
     1
 68
     0
279
    -2
289
     1
 69
     0
  7
Standard
140
0.18
170
     5
 62
     0
 63
   257
283
     0
 90
        4
 91
        0
  1

274
    -2
284
     1
 64
     0
275
    -2
285
     1
 65
     0
276
    -2
286
     1
 66
     0
277
    -2
287
     1
 67
     0
278
    -2
288
     1
 68
     0
279
    -2
289
     1
 69
     0
  0
VISUALSTYLE
  5
2F
102
{ACAD_REACTORS
330
2A
102
}
330
2A
100
AcDbVisualStyle
  2
2dWireframe
 70
     4
177
     3
291
     0
 70
    58
 90
        0
176
     1
 90
        2
176
     1
 90
        0
176
     1
 90
        0
176
     1
 40
0.6
176
     1
 40
30.0
176
     1
 62
     7
420
 16777215
176
     1
 90
        1
176
     1
 90
        4
176
     1
 62
     7
176
     1
 62
   257
176
     1
 90
        1
176
     1
 90
        1
176
     1
 40
1.0
176
     1
 90
        0
176
     1
 62
   257
176
     1
 40
1.0
176
     1
 90
        1
176
     1
 90
        6
176
     1
 90
        2
176
     1
 62
     7
176
     1
 90
        5
176
     1
 90
        0
176
     1
 90
        0
176
     1
290
     0
176
     1
 90
        1
176
     1
 40
0.0
176
     1
 90
        0
176
     1
290
     1
176
     1
290
     1
176
     1
290
     0
176
     1
290
     0
176
     1
290
     0
176
     1
290
     0
176
     1
290
     0
176
     1
290
     0
176
     1
290
     0
176
     1
 90
       50
176
     1
 40
0.0
176
     1
 40
1.0
176
     1
 90
        0
176
     1
 62
    18
420
        0
176
     1
 90
       50
176
     1
 90
        3
176
     1
 62
     5
420
      255
176
     1
290
     0
176
     1
 90
       50
176
     1
 90
       50
176
     1
 90
       50
176
     1
290
     0
176
     1
 90
       50
176
     1
 62
   256
176
     0
 40
1.0
176
     0
 90
        2
176
     1
  1
strokes_ogs.tif
176
     1
290
     0
176
     1
 40
1.0
176
     1
 40
1.0
176
     1
  0
VISUALSTYLE
  5
32
102
{ACAD_REACTORS
330
2A
102
}
330
2A
100
AcDbVisualStyle
  2
Basic
 70
     7
177
     3
291
     1
 70
    58
 90
        1
176
     1
 90
        0
176
     1
 90
        1
176
     1
 90
        0
176
     1
 40
0.6
176
     1
 40
30.0
176
     1
 62
     7
420
 16777215
176
     1
 90
        0
176
     1
 90
        4
176
     1
 62
     7
176
     1
 62
   257
176
     1
 90
        1
176
     1
 90
        1
176
     1
 40
1.0
176
     1
 90
        8
176
     1
 62
     7
176
     1
 40
1.0
176
     1
 90
        1
176
     1
 90
        6
176
     1
 90
        2
176
     1
 62
     7
176
     1
 90
        5
176
     1
 90
        0
176
     1
 90
        0
176
     1
290
     0
176
     1
 90
        1
176
     1
 40
0.0
176
     1
 90
        0
176
     1
290
     0
176
     1
290
     1
176
     1
290
     1
176
     1
290
     0
176
     1
290
     0
176
     1
290
     0
176
     1
290
     0
176
     1
290
     0
176
     1
290
     0
176
     1
 90
       50
176
     1
 40
0.0
176
     1
 40
1.0
176
     1
 90
        0
176
     1
 62
    18
420
        0
176
     1
 90
       50
176
     1
 90
        3
176
     1
 62
     5
420
      255
176
     1
290
     0
176
     1
 90
       50
176
     1
 90
       50
176
     1
 90
       50
176
     1
290
     0
176
     1
 90
       50
176
     1
 62
   256
176
     0
 40
1.0
176
     0
 90
        2
176
     1
  1
strokes_ogs.tif
176
     1
290
     0
176
     1
 40
1.0
176
     1
 40
1.0
176
     1
  0
VISUALSTYLE
  5
36
102
{ACAD_REACTORS
330
2A
102
}
330
2A
100
AcDbVisualStyle
  2
Brighten
 70
    12
177
     3
291
     1
 70
    58
 90
        2
176
     1
 90
        2
176
     1
 90
        0
176
     1
 90
        0
176
     1
 40
0.6
176
     1
 40
30.0
176
     1
 62
     7
420
 16777215
176
     1
 90
        1
176
     1
 90
        4
176
     1
 62
     7
176
     1
 62
   257
176
     1
 90
        1
176
     1
 90
        1
176
     1
 40
1.0
176
     1
 90
        8
176
     1
 62
     7
176
     1
 40
1.0
176
     1
 90
        1
176
     1
 90
        6
176
     1
 90
        2
176
     1
 62
     7
176
     1
 90
        5
176
     1
 90
        0
176
     1
 90
        0
176
     1
290
     0
176
     1
 90
        1
176
     1
 40
50.0
176
     1
 90
        0
176
     1
290
     0
176
     1
290
     1
176
     1
290
     1
176
     1
290
     0
176
     1
290
     0
176
     1
290
     0
176
     1
290
     0
176
     1
290
     0
176
     1
290
     0
176
     1
 90
       50
176
     1
 40
0.0
176
     1
 40
1.0
176
     1
 90
        0
176
     1
 62
    18
420
        0
176
     1
 90
       50
176
     1
 90
        3
176
     1
 62
     5
420
      255
176
     1
290
     0
176
     1
 90
       50
176
     1
 90
       50
176
     1
 90
       50
176
     1
290
     0
176
     1
 90
       50
176
     1
 62
   256
176
     0
 40
1.0
176
     0
 90
        2
176
     1
  1
strokes_ogs.tif
176
     1
290
     0
176
     1
 40
1.0
176
     1
 40
1.0
176
     1
  0
VISUALSTYLE
  5
3A
102
{ACAD_REACTORS
330
2A
102
}
330
2A
100
AcDbVisualStyle
  2
ColorChange
 70
    16
177
     3
291
     1
 70
    58
 90
        2
176
     1
 90
        2
176
     1
 90
        3
176
     1
 90
        0
176
     1
 40
0.6
176
     1
 40
30.0
176
     1
 62
     8
420
  8421504
176
     1
 90
        1
176
     1
 90
        4
176
     1
 62
     7
176
     1
 62
   257
176
     1
 90
        1
176
     1
 90
        1
176
     1
 40
1.0
176
     1
 90
        8
176
     1
 62
     8
420
  8421504
176
     1
 40
1.0
176
     1
 90
        1
176
     1
 90
        6
176
     1
 90
        2
176
     1
 62
     7
176
     1
 90
        5
176
     1
 90
        0
176
     1
 90
        0
176
     1
290
     0
176
     1
 90
        1
176
     1
 40
0.0
176
     1
 90
        0
176
     1
290
     0
176
     1
290
     1
176
     1
290
     1
176
     1
290
     0
176
     1
290
     0
176
     1
290
     0
176
     1
290
     0
176
     1
290
     0
176
     1
290
     0
176
     1
 90
       50
176
     1
 40
0.0
176
     1
 40
1.0
176
     1
 90
        0
176
     1
 62
    18
420
        0
176
     1
 90
       50
176
     1
 90
        3
176
     1
 62
     5
420
      255
176
     1
290
     0
176
     1
 90
       50
176
     1
 90
       50
176
     1
 90
       50
176
     1
290
     0
176
     1
 90
       50
176
     1
 62
   256
176
     0
 40
1.0
176
     0
 90
        2
176
     1
  1
strokes_ogs.tif
176
     1
290
     0
176
     1
 40
1.0
176
     1
 40
1.0
176
     1
  0
VISUALSTYLE
  5
34
102
{ACAD_REACTORS
330
2A
102
}
330
2A
100
AcDbVisualStyle
  2
Conceptual
 70
     9
177
     3
291
     0
 70
    58
 90
        3
176
     1
 90
        2
176
     1
 90
        0
176
     1
 90
        0
176
     1
 40
0.6
176
     1
 40
30.0
176
     1
 62
     7
420
 16777215
176
     1
 90
        2
176
     1
 90
        2
176
     1
 62
     7
176
     1
 62
   257
176
     1
 90
        1
176
     1
 90
        1
176
     1
 40
179.0
176
     1
 90
        8
176
     1
 62
     7
176
     1
 40
1.0
176
     1
 90
        1
176
     1
 90
        6
176
     1
 90
        2
176
     1
 62
     7
176
     1
 90
        3
176
     1
 90
        0
176
     1
 90
        0
176
     1
290
     0
176
     1
 90
        1
176
     1
 40
0.0
176
     1
 90
        0
176
     1
290
     0
176
     1
290
     1
176
     1
290
     1
176
     1
290
     0
176
     1
290
     0
176
     1
290
     0
176
     1
290
     0
176
     1
290
     0
176
     1
290
     0
176
     1
 90
       50
176
     1
 40
0.0
176
     1
 40
1.0
176
     1
 90
        0
176
     1
 62
    18
420
        0
176
     1
 90
       50
176
     1
 90
        3
176
     1
 62
     5
420
      255
176
     1
290
     0
176
     1
 90
       50
176
     1
 90
       50
176
     1
 90
       50
176
     1
290
     0
176
     1
 90
       50
176
     1
 62
   256
176
     0
 40
1.0
176
     0
 90
        2
176
     1
  1
strokes_ogs.tif
176
     1
290
     0
176
     1
 40
1.0
176
     1
 40
1.0
176
     1
  0
VISUALSTYLE
  5
35
102
{ACAD_REACTORS
330
2A
102
}
330
2A
100
AcDbVisualStyle
  2
Dim
 70
    11
177
     3
291
     1
 70
    58
 90
        2
176
     1
 90
        2
176
     1
 90
        0
176
     1
 90
        0
176
     1
 40
0.6
176
     1
 40
30.0
176
     1
 62
     7
420
 16777215
176
     1
 90
        1
176
     1
 90
        4
176
     1
 62
     7
176
     1
 62
   257
176
     1
 90
        1
176
     1
 90
        1
176
     1
 40
1.0
176
     1
 90
        8
176
     1
 62
     7
176
     1
 40
1.0
176
     1
 90
        1
176
     1
 90
        6
176
     1
 90
        2
176
     1
 62
     7
176
     1
 90
        5
176
     1
 90
        0
176
     1
 90
        0
176
     1
290
     0
176
     1
 90
        1
176
     1
 40
-50.0
176
     1
 90
        0
176
     1
290
     0
176
     1
290
     1
176
     1
290
     1
176
     1
290
     0
176
     1
290
     0
176
     1
290
     0
176
     1
290
     0
176
     1
290
     0
176
     1
290
     0
176
     1
 90
       50
176
     1
 40
0.0
176
     1
 40
1.0
176
     1
 90
        0
176
     1
 62
    18
420
        0
176
     1
 90
       50
176
     1
 90
        3
176
     1
 62
     5
420
      255
176
     1
290
     0
176
     1
 90
       50
176
     1
 90
       50
176
     1
 90
       50
176
     1
290
     0
176
     1
 90
       50
176
     1
 62
   256
176
     0
 40
1.0
176
     0
 90
        2
176
     1
  1
strokes_ogs.tif
176
     1
290
     0
176
     1
 40
1.0
176
     1
 40
1.0
176
     1
  0
VISUALSTYLE
  5
3D
102
{ACAD_REACTORS
330
2A
102
}
330
2A
100
AcDbVisualStyle
  2
EdgeColorOff
 70
    22
177
     3
291
     1
 70
    58
 90
        2
176
     0
 90
        2
176
     0
 90
        0
176
     0
 90
        0
176
     0
 40
0.6
176
     0
 40
30.0
176
     0
 62
     7
420
 16777215
176
     0
 90
        1
176
     0
 90
        4
176
     0
 62
     7
176
     0
 62
   257
176
     0
 90
        1
176
     0
 90
        1
176
     0
 40
1.0
176
     0
 90
        8
176
     2
 62
     7
176
     0
 40
1.0
176
     0
 90
        1
176
     0
 90
        6
176
     0
 90
        2
176
     0
 62
     7
176
     0
 90
        5
176
     0
 90
        0
176
     0
 90
        0
176
     0
290
     0
176
     0
 90
        1
176
     0
 40
0.0
176
     0
 90
        0
176
     0
290
     0
176
     0
290
     1
176
     0
290
     1
176
     0
290
     0
176
     0
290
     0
176
     0
290
     0
176
     0
290
     0
176
     0
290
     0
176
     0
290
     0
176
     0
 90
       50
176
     0
 40
0.0
176
     0
 40
1.0
176
     0
 90
        0
176
     0
 62
    18
420
        0
176
     0
 90
       50
176
     0
 90
        3
176
     0
 62
     5
420
      255
176
     0
290
     0
176
     0
 90
       50
176
     0
 90
       50
176
     0
 90
       50
176
     0
290
     0
176
     0
 90
       50
176
     0
 62
   256
176
     0
 40
1.0
176
     0
 90
        2
176
     0
  1
strokes_ogs.tif
176
     0
290
     0
176
     0
 40
1.0
176
     0
 40
1.0
176
     0
  0
VISUALSTYLE
  5
39
102
{ACAD_REACTORS
330
2A
102
}
330
2A
100
AcDbVisualStyle
  2
Facepattern
 70
    15
177
     3
291
     1
 70
    58
 90
        2
176
     1
 90
        2
176
     1
 90
        0
176
     1
 90
        0
176
     1
 40
0.6
176
     1
 40
30.0
176
     1
 62
     7
420
 16777215
176
     1
 90
        1
176
     1
 90
        4
176
     1
 62
     7
176
     1
 62
   257
176
     1
 90
        1
176
     1
 90
        1
176
     1
 40
1.0
176
     1
 90
        8
176
     1
 62
     7
176
     1
 40
1.0
176
     1
 90
        1
176
     1
 90
        6
176
     1
 90
        2
176
     1
 62
     7
176
     1
 90
        5
176
     1
 90
        0
176
     1
 90
        0
176
     1
290
     0
176
     1
 90
        1
176
     1
 40
0.0
176
     1
 90
        0
176
     1
290
     0
176
     1
290
     1
176
     1
290
     1
176
     1
290
     0
176
     1
290
     0
176
     1
290
     0
176
     1
290
     0
176
     1
290
     0
176
     1
290
     0
176
     1
 90
       50
176
     1
 40
0.0
176
     1
 40
1.0
176
     1
 90
        0
176
     1
 62
    18
420
        0
176
     1
 90
       50
176
     1
 90
        3
176
     1
 62
     5
420
      255
176
     1
290
     0
176
     1
 90
       50
176
     1
 90
       50
176
     1
 90
       50
176
     1
290
     0
176
     1
 90
       50
176
     1
 62
   256
176
     0
 40
1.0
176
     0
 90
        2
176
     1
  1
strokes_ogs.tif
176
     1
290
     0
176
     1
 40
1.0
176
     1
 40
1.0
176
     1
  0
VISUALSTYLE
  5
2B
102
{ACAD_REACTORS
330
2A
102
}
330
2A
100
AcDbVisualStyle
  2
Flat
 70
     0
177
     3
291
     1
 70
    58
 90
        2
176
     1
 90
        1
176
     1
 90
        1
176
     1
 90
        2
176
     1
 40
0.6
176
     1
 40
30.0
176
     1
 62
     7
420
 16777215
176
     1
 90
        0
176
     1
 90
        0
176
     1
 62
     7
176
     1
 62
   257
176
     1
 90
        1
176
     1
 90
        1
176
     1
 40
1.0
176
     1
 90
        8
176
     1
 62
     7
176
     1
 40
1.0
176
     1
 90
        1
176
     1
 90
        6
176
     1
 90
        2
176
     1
 62
     7
176
     1
 90
        5
176
     1
 90
        0
176
     1
 90
        0
176
     1
290
     0
176
     1
 90
       13
176
     1
 40
0.0
176
     1
 90
        0
176
     1
290
     0
176
     1
290
     1
176
     1
290
     1
176
     1
290
     0
176
     1
290
     0
176
     1
290
     0
176
     1
290
     0
176
     1
290
     0
176
     1
290
     0
176
     1
 90
       50
176
     1
 40
0.0
176
     1
 40
1.0
176
     1
 90
        0
176
     1
 62
    18
420
        0
176
     1
 90
       50
176
     1
 90
        3
176
     1
 62
     5
420
      255
176
     1
290
     0
176
     1
 90
       50
176
     1
 90
       50
176
     1
 90
       50
176
     1
290
     0
176
     1
 90
       50
176
     1
 62
   256
176
     0
 40
1.0
176
     0
 90
        2
176
     1
  1
strokes_ogs.tif
176
     1
290
     0
176
     1
 40
1.0
176
     1
 40
1.0
176
     1
  0
VISUALSTYLE
  5
2C
102
{ACAD_REACTORS
330
2A
102
}
330
2A
100
AcDbVisualStyle
  2
FlatWithEdges
 70
     1
177
     3
291
     1
 70
    58
 90
        2
176
     1
 90
        1
176
     1
 90
        1
176
     1
 90
        2
176
     1
 40
0.6
176
     1
 40
30.0
176
     1
 62
     7
420
 16777215
176
     1
 90
        1
176
     1
 90
        0
176
     1
 62
     7
176
     1
 62
   257
176
     1
 90
        1
176
     1
 90
        1
176
     1
 40
1.0
176
     1
 90
        0
176
     1
 62
   257
176
     1
 40
1.0
176
     1
 90
        1
176
     1
 90
        6
176
     1
 90
        2
176
     1
 62
     7
176
     1
 90
        5
176
     1
 90
        0
176
     1
 90
        0
176
     1
290
     0
176
     1
 90
       13
176
     1
 40
0.0
176
     1
 90
        0
176
     1
290
     0
176
     1
290
     1
176
     1
290
     1
176
     1
290
     0
176
     1
290
     0
176
     1
290
     0
176
     1
290
     0
176
     1
290
     0
176
     1
290
     0
176
     1
 90
       50
176
     1
 40
0.0
176
     1
 40
1.0
176
     1
 90
        0
176
     1
 62
    18
420
        0
176
     1
 90
       50
176
     1
 90
        3
176
     1
 62
     5
420
      255
176
     1
290
     0
176
     1
 90
       50
176
     1
 90
       50
176
     1
 90
       50
176
     1
290
     0
176
     1
 90
       50
176
     1
 62
   256
176
     0
 40
1.0
176
     0
 90
        2
176
     1
  1
strokes_ogs.tif
176
     1
290
     0
176
     1
 40
1.0
176
     1
 40
1.0
176
     1
  0
VISUALSTYLE
  5
2D
102
{ACAD_REACTORS
330
2A
102
}
330
2A
100
AcDbVisualStyle
  2
Gouraud
 70
     2
177
     3
291
     1
 70
    58
 90
        2
176
     1
 90
        2
176
     1
 90
        1
176
     1
 90
        2
176
     1
 40
0.6
176
     1
 40
30.0
176
     1
 62
     7
420
 16777215
176
     1
 90
        0
176
     1
 90
        0
176
     1
 62
     7
176
     1
 62
   257
176
     1
 90
        1
176
     1
 90
        1
176
     1
 40
1.0
176
     1
 90
        0
176
     1
 62
     7
176
     1
 40
1.0
176
     1
 90
        1
176
     1
 90
        6
176
     1
 90
        2
176
     1
 62
     7
176
     1
 90
        5
176
     1
 90
        0
176
     1
 90
        0
176
     1
290
     0
176
     1
 90
       13
176
     1
 40
0.0
176
     1
 90
        0
176
     1
290
     0
176
     1
290
     1
176
     1
290
     1
176
     1
290
     0
176
     1
290
     0
176
     1
290
     0
176
     1
290
     0
176
     1
290
     0
176
     1
290
     0
176
     1
 90
       50
176
     1
 40
0.0
176
     1
 40
1.0
176
     1
 90
        0
176
     1
 62
    18
420
        0
176
     1
 90
       50
176
     1
 90
        3
176
     1
 62
     5
420
      255
176
     1
290
     0
176
     1
 90
       50
176
     1
 90
       50
176
     1
 90
       50
176
     1
290
     0
176
     1
 90
       50
176
     1
 62
   256
176
     0
 40
1.0
176
     0
 90
        2
176
     1
  1
strokes_ogs.tif
176
     1
290
     0
176
     1
 40
1.0
176
     1
 40
1.0
176
     1
  0
VISUALSTYLE
  5
2E
102
{ACAD_REACTORS
330
2A
102
}
330
2A
100
AcDbVisualStyle
  2
GouraudWithEdges
 70
     3
177
     3
291
     1
 70
    58
 90
        2
176
     1
 90
        2
176
     1
 90
        1
176
     1
 90
        2
176
     1
 40
0.6
176
     1
 40
30.0
176
     1
 62
     7
420
 16777215
176
     1
 90
        1
176
     1
 90
        0
176
     1
 62
     7
176
     1
 62
   257
176
     1
 90
        1
176
     1
 90
        1
176
     1
 40
1.0
176
     1
 90
        0
176
     1
 62
   257
176
     1
 40
1.0
176
     1
 90
        1
176
     1
 90
        6
176
     1
 90
        2
176
     1
 62
     7
176
     1
 90
        5
176
     1
 90
        0
176
     1
 90
        0
176
     1
290
     0
176
     1
 90
       13
176
     1
 40
0.0
176
     1
 90
        0
176
     1
290
     0
176
     1
290
     1
176
     1
290
     1
176
     1
290
     0
176
     1
290
     0
176
     1
290
     0
176
     1
290
     0
176
     1
290
     0
176
     1
290
     0
176
     1
 90
       50
176
     1
 40
0.0
176
     1
 40
1.0
176
     1
 90
        0
176
     1
 62
    18
420
        0
176
     1
 90
       50
176
     1
 90
        3
176
     1
 62
     5
420
      255
176
     1
290
     0
176
     1
 90
       50
176
     1
 90
       50
176
     1
 90
       50
176
     1
290
     0
176
     1
 90
       50
176
     1
 62
   256
176
     0
 40
1.0
176
     0
 90
        2
176
     1
  1
strokes_ogs.tif
176
     1
290
     0
176
     1
 40
1.0
176
     1
 40
1.0
176
     1
  0
VISUALSTYLE
  5
31
102
{ACAD_REACTORS
330
2A
102
}
330
2A
100
AcDbVisualStyle
  2
Hidden
 70
     6
177
     3
291
     0
 70
    58
 90
        1
176
     1
 90
        2
176
     1
 90
        2
176
     1
 90
        0
176
     1
 40
0.6
176
     1
 40
30.0
176
     1
 62
     7
420
 16777215
176
     1
 90
        2
176
     1
 90
        2
176
     1
 62
     7
176
     1
 62
   257
176
     1
 90
        2
176
     1
 90
        1
176
     1
 40
40.0
176
     1
 90
        0
176
     1
 62
   257
176
     1
 40
1.0
176
     1
 90
        1
176
     1
 90
        6
176
     1
 90
        2
176
     1
 62
     7
176
     1
 90
        3
176
     1
 90
        0
176
     1
 90
        0
176
     1
290
     0
176
     1
 90
        1
176
     1
 40
0.0
176
     1
 90
        0
176
     1
290
     0
176
     1
290
     1
176
     1
290
     1
176
     1
290
     0
176
     1
290
     0
176
     1
290
     0
176
     1
290
     0
176
     1
290
     0
176
     1
290
     0
176
     1
 90
       50
176
     1
 40
0.0
176
     1
 40
1.0
176
     1
 90
        0
176
     1
 62
    18
420
        0
176
     1
 90
       50
176
     1
 90
        3
176
     1
 62
     5
420
      255
176
     1
290
     0
176
     1
 90
       50
176
     1
 90
       50
176
     1
 90
       50
176
     1
290
     0
176
     1
 90
       50
176
     1
 62
   256
176
     0
 40
1.0
176
     0
 90
        2
176
     1
  1
strokes_ogs.tif
176
     1
290
     0
176
     1
 40
1.0
176
     1
 40
1.0
176
     1
  0
VISUALSTYLE
  5
3B
102
{ACAD_REACTORS
330
2A
102
}
330
2A
100
AcDbVisualStyle
  2
JitterOff
 70
    20
177
     3
291
     1
 70
    58
 90
        2
176
     0
 90
        2
176
     0
 90
        0
176
     0
 90
        0
176
     0
 40
0.6
176
     0
 40
30.0
176
     0
 62
     7
420
 16777215
176
     0
 90
        1
176
     0
 90
        4
176
     0
 62
     7
176
     0
 62
   257
176
     0
 90
        1
176
     0
 90
        1
176
     0
 40
1.0
176
     0
 90
       10
176
     2
 62
     7
176
     0
 40
1.0
176
     0
 90
        1
176
     0
 90
        6
176
     0
 90
        2
176
     0
 62
     7
176
     0
 90
        5
176
     0
 90
        0
176
     0
 90
        0
176
     0
290
     0
176
     0
 90
        1
176
     0
 40
0.0
176
     0
 90
        0
176
     0
290
     0
176
     0
290
     1
176
     0
290
     1
176
     0
290
     0
176
     0
290
     0
176
     0
290
     0
176
     0
290
     0
176
     0
290
     0
176
     0
290
     0
176
     0
 90
       50
176
     0
 40
0.0
176
     0
 40
1.0
176
     0
 90
        0
176
     0
 62
    18
420
        0
176
     0
 90
       50
176
     0
 90
        3
176
     0
 62
     5
420
      255
176
     0
290
     0
176
     0
 90
       50
176
     0
 90
       50
176
     0
 90
       50
176
     0
290
     0
176
     0
 90
       50
176
     0
 62
   256
176
     0
 40
1.0
176
     0
 90
        2
176
     0
  1
strokes_ogs.tif
176
     0
290
     0
176
     0
 40
1.0
176
     0
 40
1.0
176
     0
  0
VISUALSTYLE
  5
38
102
{ACAD_REACTORS
330
2A
102
}
330
2A
100
AcDbVisualStyle
  2
Linepattern
 70
    14
177
     3
291
     1
 70
    58
 90
        2
176
     1
 90
        2
176
     1
 90
        0
176
     1
 90
        0
176
     1
 40
0.6
176
     1
 40
30.0
176
     1
 62
     7
420
 16777215
176
     1
 90
        1
176
     1
 90
        4
176
     1
 62
     7
176
     1
 62
   257
176
     1
 90
        7
176
     1
 90
        7
176
     1
 40
1.0
176
     1
 90
        8
176
     1
 62
     7
176
     1
 40
1.0
176
     1
 90
        1
176
     1
 90
        6
176
     1
 90
        2
176
     1
 62
     7
176
     1
 90
        5
176
     1
 90
        0
176
     1
 90
        0
176
     1
290
     0
176
     1
 90
        1
176
     1
 40
0.0
176
     1
 90
        0
176
     1
290
     0
176
     1
290
     1
176
     1
290
     1
176
     1
290
     0
176
     1
290
     0
176
     1
290
     0
176
     1
290
     0
176
     1
290
     0
176
     1
290
     0
176
     1
 90
       50
176
     1
 40
0.0
176
     1
 40
1.0
176
     1
 90
        0
176
     1
 62
    18
420
        0
176
     1
 90
       50
176
     1
 90
        3
176
     1
 62
     5
420
      255
176
     1
290
     0
176
     1
 90
       50
176
     1
 90
       50
176
     1
 90
       50
176
     1
290
     0
176
     1
 90
       50
176
     1
 62
   256
176
     0
 40
1.0
176
     0
 90
        2
176
     1
  1
strokes_ogs.tif
176
     1
290
     0
176
     1
 40
1.0
176
     1
 40
1.0
176
     1
  0
VISUALSTYLE
  5
3C
102
{ACAD_REACTORS
330
2A
102
}
330
2A
100
AcDbVisualStyle
  2
OverhangOff
 70
    21
177
     3
291
     1
 70
    58
 90
        2
176
     0
 90
        2
176
     0
 90
        0
176
     0
 90
        0
176
     0
 40
0.6
176
     0
 40
30.0
176
     0
 62
     7
420
 16777215
176
     0
 90
        1
176
     0
 90
        4
176
     0
 62
     7
176
     0
 62
   257
176
     0
 90
        1
176
     0
 90
        1
176
     0
 40
1.0
176
     0
 90
        9
176
     2
 62
     7
176
     0
 40
1.0
176
     0
 90
        1
176
     0
 90
        6
176
     0
 90
        2
176
     0
 62
     7
176
     0
 90
        5
176
     0
 90
        0
176
     0
 90
        0
176
     0
290
     0
176
     0
 90
        1
176
     0
 40
0.0
176
     0
 90
        0
176
     0
290
     0
176
     0
290
     1
176
     0
290
     1
176
     0
290
     0
176
     0
290
     0
176
     0
290
     0
176
     0
290
     0
176
     0
290
     0
176
     0
290
     0
176
     0
 90
       50
176
     0
 40
0.0
176
     0
 40
1.0
176
     0
 90
        0
176
     0
 62
    18
420
        0
176
     0
 90
       50
176
     0
 90
        3
176
     0
 62
     5
420
      255
176
     0
290
     0
176
     0
 90
       50
176
     0
 90
       50
176
     0
 90
       50
176
     0
290
     0
176
     0
 90
       50
176
     0
 62
   256
176
     0
 40
1.0
176
     0
 90
        2
176
     0
  1
strokes_ogs.tif
176
     0
290
     0
176
     0
 40
1.0
176
     0
 40
1.0
176
     0
  0
VISUALSTYLE
  5
33
102
{ACAD_REACTORS
330
2A
102
}
330
2A
100
AcDbVisualStyle
  2
Realistic
 70
     8
177
     3
291
     0
 70
    58
 90
        2
176
     1
 90
        3
176
     1
 90
        0
176
     1
 90
        2
176
     1
 40
0.6
176
     1
 40
30.0
176
     1
 62
     7
420
 16777215
176
     1
 90
        0
176
     1
 90
        0
176
     1
 62
     7
176
     1
 62
   257
176
     1
 90
        1
176
     1
 90
        1
176
     1
 40
1.0
176
     1
 90
        8
176
     1
 62
   257
176
     1
 40
1.0
176
     1
 90
        1
176
     1
 90
        6
176
     1
 90
        2
176
     1
 62
     7
176
     1
 90
        3
176
     1
 90
        0
176
     1
 90
        0
176
     1
290
     0
176
     1
 90
       13
176
     1
 40
0.0
176
     1
 90
        0
176
     1
290
     0
176
     1
290
     1
176
     1
290
     1
176
     1
290
     0
176
     1
290
     0
176
     1
290
     0
176
     1
290
     0
176
     1
290
     0
176
     1
290
     0
176
     1
 90
       50
176
     1
 40
0.0
176
     1
 40
1.0
176
     1
 90
        0
176
     1
 62
    18
420
        0
176
     1
 90
       50
176
     1
 90
        3
176
     1
 62
     5
420
      255
176
     1
290
     0
176
     1
 90
       50
176
     1
 90
       50
176
     1
 90
       50
176
     1
290
     0
176
     1
 90
       50
176
     1
 62
   256
176
     0
 40
1.0
176
     0
 90
        2
176
     1
  1
strokes_ogs.tif
176
     1
290
     0
176
     1
 40
1.0
176
     1
 40
1.0
176
     1
  0
VISUALSTYLE
  5
42
102
{ACAD_REACTORS
330
2A
102
}
330
2A
100
AcDbVisualStyle
  2
Shaded
 70
    27
177
     3
291
     0
 70
    58
 90
        2
176
     1
 90
        2
176
     1
 90
        1
176
     1
 90
        2
176
     1
 40
0.6
176
     1
 40
30.0
176
     1
 62
     7
420
 16777215
176
     1
 90
        0
176
     1
 90
        4
176
     1
 62
     7
176
     1
 62
   257
176
     1
 90
        1
176
     1
 90
        1
176
     1
 40
1.0
176
     1
 90
        8
176
     1
 62
   257
176
     1
 40
1.0
176
     1
 90
        1
176
     1
 90
        6
176
     1
 90
        2
176
     1
 62
     8
420
  7895160
176
     1
 90
        3
176
     1
 90
        0
176
     1
 90
        0
176
     1
290
     0
176
     1
 90
        5
176
     1
 40
0.0
176
     1
 90
        0
176
     1
290
     0
176
     1
290
     1
176
     1
290
     1
176
     1
290
     0
176
     1
290
     0
176
     1
290
     0
176
     1
290
     0
176
     1
290
     0
176
     1
290
     0
176
     1
 90
       50
176
     1
 40
0.0
176
     1
 40
1.0
176
     1
 90
        0
176
     1
 62
    18
420
        0
176
     1
 90
       50
176
     1
 90
        3
176
     1
 62
     5
420
      255
176
     1
290
     0
176
     1
 90
       50
176
     1
 90
       50
176
     1
 90
       50
176
     1
290
     0
176
     1
 90
       50
176
     1
 62
   256
176
     0
 40
1.0
176
     0
 90
        2
176
     1
  1
strokes_ogs.tif
176
     1
290
     0
176
     1
 40
1.0
176
     1
 40
1.0
176
     1
  0
VISUALSTYLE
  5
41
102
{ACAD_REACTORS
330
2A
102
}
330
2A
100
AcDbVisualStyle
  2
Shaded with edges
 70
    26
177
     3
291
     0
 70
    58
 90
        2
176
     1
 90
        2
176
     1
 90
        1
176
     1
 90
        2
176
     1
 40
0.6
176
     1
 40
30.0
176
     1
 62
     7
420
 16777215
176
     1
 90
        1
176
     1
 90
       10
176
     1
 62
     7
176
     1
 62
   257
176
     1
 90
        2
176
     1
 90
        1
176
     1
 40
1.0
176
     1
 90
        8
176
     1
 62
   257
176
     1
 40
1.0
176
     1
 90
        1
176
     1
 90
        6
176
     1
 90
        2
176
     1
 62
     7
176
     1
 90
        3
176
     1
 90
        0
176
     1
 90
        0
176
     1
290
     0
176
     1
 90
        5
176
     1
 40
0.0
176
     1
 90
        0
176
     1
290
     0
176
     1
290
     1
176
     1
290
     1
176
     1
290
     0
176
     1
290
     0
176
     1
290
     0
176
     1
290
     0
176
     1
290
     0
176
     1
290
     0
176
     1
 90
       50
176
     1
 40
0.0
176
     1
 40
1.0
176
     1
 90
        0
176
     1
 62
    18
420
        0
176
     1
 90
       50
176
     1
 90
        3
176
     1
 62
     5
420
      255
176
     1
290
     0
176
     1
 90
       50
176
     1
 90
       50
176
     1
 90
       50
176
     1
290
     0
176
     1
 90
       50
176
     1
 62
   256
176
     0
 40
1.0
176
     0
 90
        2
176
     1
  1
strokes_ogs.tif
176
     1
290
     0
176
     1
 40
1.0
176
     1
 40
1.0
176
     1
  0
VISUALSTYLE
  5
3E
102
{ACAD_REACTORS
330
2A
102
}
330
2A
100
AcDbVisualStyle
  2
Shades of Gray
 70
    23
177
     3
291
     0
 70
    58
 90
        2
176
     1
 90
        2
176
     1
 90
        3
176
     1
 90
        0
176
     1
 40
0.6
176
     1
 40
30.0
176
     1
 62
     7
420
 16777215
176
     1
 90
        2
176
     1
 90
        2
176
     1
 62
     7
176
     1
 62
     7
176
     1
 90
        1
176
     1
 90
        1
176
     1
 40
40.0
176
     1
 90
        8
176
     1
 62
     7
176
     1
 40
1.0
176
     1
 90
        1
176
     1
 90
        6
176
     1
 90
        2
176
     1
 62
     7
176
     1
 90
        3
176
     1
 90
        0
176
     1
 90
        0
176
     1
290
     0
176
     1
 90
        1
176
     1
 40
0.0
176
     1
 90
        0
176
     1
290
     0
176
     1
290
     1
176
     1
290
     1
176
     1
290
     0
176
     1
290
     0
176
     1
290
     0
176
     1
290
     0
176
     1
290
     0
176
     1
290
     0
176
     1
 90
       50
176
     1
 40
0.0
176
     1
 40
1.0
176
     1
 90
        0
176
     1
 62
    18
420
        0
176
     1
 90
       50
176
     1
 90
        3
176
     1
 62
     5
420
      255
176
     1
290
     0
176
     1
 90
       50
176
     1
 90
       50
176
     1
 90
       50
176
     1
290
     0
176
     1
 90
       50
176
     1
 62
   256
176
     0
 40
1.0
176
     0
 90
        2
176
     1
  1
strokes_ogs.tif
176
     1
290
     0
176
     1
 40
1.0
176
     1
 40
1.0
176
     1
  0
VISUALSTYLE
  5
3F
102
{ACAD_REACTORS
330
2A
102
}
330
2A
100
AcDbVisualStyle
  2
Sketchy
 70
    24
177
     3
291
     0
 70
    58
 90
        1
176
     1
 90
        2
176
     1
 90
        2
176
     1
 90
        0
176
     1
 40
0.6
176
     1
 40
30.0
176
     1
 62
     7
420
 16777215
176
     1
 90
        2
176
     1
 90
        2
176
     1
 62
     7
176
     1
 62
     7
176
     1
 90
        1
176
     1
 90
        1
176
     1
 40
40.0
176
     1
 90
       11
176
     1
 62
     7
176
     1
 40
1.0
176
     1
 90
        1
176
     1
 90
        6
176
     1
 90
        2
176
     1
 62
     7
176
     1
 90
        6
176
     1
 90
        0
176
     1
 90
        0
176
     1
290
     0
176
     1
 90
        1
176
     1
 40
0.0
176
     1
 90
        0
176
     1
290
     0
176
     1
290
     1
176
     1
290
     1
176
     1
290
     0
176
     1
290
     0
176
     1
290
     0
176
     1
290
     0
176
     1
290
     0
176
     1
290
     0
176
     1
 90
       50
176
     1
 40
0.0
176
     1
 40
1.0
176
     1
 90
        0
176
     1
 62
    18
420
        0
176
     1
 90
       50
176
     1
 90
        3
176
     1
 62
     5
420
      255
176
     1
290
     0
176
     1
 90
       50
176
     1
 90
       50
176
     1
 90
       50
176
     1
290
     0
176
     1
 90
       50
176
     1
 62
   256
176
     0
 40
1.0
176
     0
 90
        2
176
     1
  1
strokes_ogs.tif
176
     1
290
     0
176
     1
 40
1.0
176
     1
 40
1.0
176
     1
  0
VISUALSTYLE
  5
37
102
{ACAD_REACTORS
330
2A
102
}
330
2A
100
AcDbVisualStyle
  2
Thicken
 70
    13
177
     3
291
     1
 70
    58
 90
        2
176
     1
 90
        2
176
     1
 90
        0
176
     1
 90
        0
176
     1
 40
0.6
176
     1
 40
30.0
176
     1
 62
     7
420
 16777215
176
     1
 90
        1
176
     1
 90
        4
176
     1
 62
     7
176
     1
 62
   257
176
     1
 90
        1
176
     1
 90
        1
176
     1
 40
1.0
176
     1
 90
       12
176
     1
 62
     7
176
     1
 40
1.0
176
     1
 90
        1
176
     1
 90
        6
176
     1
 90
        2
176
     1
 62
     7
176
     1
 90
        5
176
     1
 90
        0
176
     1
 90
        0
176
     1
290
     0
176
     1
 90
        1
176
     1
 40
0.0
176
     1
 90
        0
176
     1
290
     0
176
     1
290
     1
176
     1
290
     1
176
     1
290
     0
176
     1
290
     0
176
     1
290
     0
176
     1
290
     0
176
     1
290
     0
176
     1
290
     0
176
     1
 90
       50
176
     1
 40
0.0
176
     1
 40
1.0
176
     1
 90
        0
176
     1
 62
    18
420
        0
176
     1
 90
       50
176
     1
 90
        3
176
     1
 62
     5
420
      255
176
     1
290
     0
176
     1
 90
       50
176
     1
 90
       50
176
     1
 90
       50
176
     1
290
     0
176
     1
 90
       50
176
     1
 62
   256
176
     0
 40
1.0
176
     0
 90
        2
176
     1
  1
strokes_ogs.tif
176
     1
290
     0
176
     1
 40
1.0
176
     1
 40
1.0
176
     1
  0
VISUALSTYLE
  5
30
102
{ACAD_REACTORS
330
2A
102
}
330
2A
100
AcDbVisualStyle
  2
Wireframe
 70
     5
177
     3
291
     0
 70
    58
 90
        0
176
     1
 90
        2
176
     1
 90
        0
176
     1
 90
        0
176
     1
 40
0.6
176
     1
 40
30.0
176
     1
 62
     7
420
 16777215
176
     1
 90
        1
176
     1
 90
        4
176
     1
 62
     7
176
     1
 62
   257
176
     1
 90
        1
176
     1
 90
        1
176
     1
 40
1.0
176
     1
 90
        0
176
     1
 62
   257
176
     1
 40
1.0
176
     1
 90
        1
176
     1
 90
        6
176
     1
 90
        2
176
     1
 62
     7
176
     1
 90
        3
176
     1
 90
        0
176
     1
 90
        0
176
     1
290
     0
176
     1
 90
        1
176
     1
 40
0.0
176
     1
 90
        0
176
     1
290
     0
176
     1
290
     1
176
     1
290
     1
176
     1
290
     0
176
     1
290
     0
176
     1
290
     0
176
     1
290
     0
176
     1
290
     0
176
     1
290
     0
176
     1
 90
       50
176
     1
 40
0.0
176
     1
 40
1.0
176
     1
 90
        0
176
     1
 62
    18
420
        0
176
     1
 90
       50
176
     1
 90
        3
176
     1
 62
     5
420
      255
176
     1
290
     0
176
     1
 90
       50
176
     1
 90
       50
176
     1
 90
       50
176
     1
290
     0
176
     1
 90
       50
176
     1
 62
   256
176
     0
 40
1.0
176
     0
 90
        2
176
     1
  1
strokes_ogs.tif
176
     1
290
     0
176
     1
 40
1.0
176
     1
 40
1.0
176
     1
  0
VISUALSTYLE
  5
40
102
{ACAD_REACTORS
330
2A
102
}
330
2A
100
AcDbVisualStyle
  2
X-Ray
 70
    25
177
     3
291
     0
 70
    58
 90
        2
176
     1
 90
        2
176
     1
 90
        1
176
     1
 90
        1
176
     1
 40
0.5
176
     1
 40
30.0
176
     1
 62
     7
420
 16777215
176
     1
 90
        1
176
     1
 90
        0
176
     1
 62
     7
176
     1
 62
   257
176
     1
 90
        1
176
     1
 90
        1
176
     1
 40
1.0
176
     1
 90
        8
176
     1
 62
     7
176
     1
 40
1.0
176
     1
 90
        1
176
     1
 90
        6
176
     1
 90
        2
176
     1
 62
     7
176
     1
 90
        3
176
     1
 90
        0
176
     1
 90
        0
176
     1
290
     0
176
     1
 90
       13
176
     1
 40
0.0
176
     1
 90
        0
176
     1
290
     0
176
     1
290
     1
176
     1
290
     1
176
     1
290
     0
176
     1
290
     0
176
     1
290
     0
176
     1
290
     0
176
     1
290
     0
176
     1
290
     0
176
     1
 90
       50
176
     1
 40
0.0
176
     1
 40
1.0
176
     1
 90
        0
176
     1
 62
    18
420
        0
176
     1
 90
       50
176
     1
 90
        3
176
     1
 62
     5
420
      255
176
     1
290
     0
176
     1
 90
       50
176
     1
 90
       50
176
     1
 90
       50
176
     1
290
     0
176
     1
 90
       50
176
     1
 62
   256
176
     0
 40
1.0
176
     0
 90
        2
176
     1
  1
strokes_ogs.tif
176
     1
290
     0
176
     1
 40
1.0
176
     1
 40
1.0
176
     1
  0
DICTIONARYVAR
  5
B1
102
{ACAD_REACTORS
330
B0
102
}
330
B0
100
DictionaryVariables
280
     0
  1
1:1
  0
DICTIONARYVAR
  5
B6
102
{ACAD_REACTORS
330
B0
102
}
330
B0
100
DictionaryVariables
280
     0
  1
Standard
  0
DICTIONARYVAR
  5
B5
102
{ACAD_REACTORS
330
B0
102
}
330
B0
100
DictionaryVariables
280
     0
  1
Standard
  0
DICTIONARY
  5
B2
330
5A
100
AcDbDictionary
280
     1
281
     1
  3
ACAD_ROUNDTRIP_2008_TABLESTYLE_CELLSTYLEMAP
360
B3
  0
CELLSTYLEMAP
  5
B3
102
{ACAD_REACTORS
330
B2
102
}
330
B2
100
AcDbCellStyleMap
 90
        3
300
CELLSTYLE
  1
TABLEFORMAT_BEGIN
 90
        5
170
     1
 91
        0
 92
    32768
 62
   257
 93
        1
300
CONTENTFORMAT
  1
CONTENTFORMAT_BEGIN
 90
        0
 91
        0
 92
        4
 93
        0
300

 40
0.0
140
1.0
 94
        5
 62
     0
340
11
144
0.25
309
CONTENTFORMAT_END
171
     1
301
MARGIN
  1
CELLMARGIN_BEGIN
 40
0.06
 40
0.06
 40
0.06
 40
0.06
 40
0.06
 40
0.06
309
CELLMARGIN_END
 94
        6
 95
        1
302
GRIDFORMAT
  1
GRIDFORMAT_BEGIN
 90
        0
 91
        1
 62
     0
 92
       -2
340
14
 93
        0
 40
0.045
309
GRIDFORMAT_END
 95
        2
302
GRIDFORMAT
  1
GRIDFORMAT_BEGIN
 90
        0
 91
        1
 62
     0
 92
       -2
340
14
 93
        0
 40
0.045
309
GRIDFORMAT_END
 95
        4
302
GRIDFORMAT
  1
GRIDFORMAT_BEGIN
 90
        0
 91
        1
 62
     0
 92
       -2
340
14
 93
        0
 40
0.045
309
GRIDFORMAT_END
 95
        8
302
GRIDFORMAT
  1
GRIDFORMAT_BEGIN
 90
        0
 91
        1
 62
     0
 92
       -2
340
14
 93
        0
 40
0.045
309
GRIDFORMAT_END
 95
       16
302
GRIDFORMAT
  1
GRIDFORMAT_BEGIN
 90
        0
 91
        1
 62
     0
 92
       -2
340
14
 93
        0
 40
0.045
309
GRIDFORMAT_END
 95
       32
302
GRIDFORMAT
  1
GRIDFORMAT_BEGIN
 90
        0
 91
        1
 62
     0
 92
       -2
340
14
 93
        0
 40
0.045
309
GRIDFORMAT_END
309
TABLEFORMAT_END
  1
CELLSTYLE_BEGIN
 90
        1
 91
        1
300
_TITLE
309
CELLSTYLE_END
300
CELLSTYLE
  1
TABLEFORMAT_BEGIN
 90
        5
170
     1
 91
        0
 92
        0
 62
   257
 93
        1
300
CONTENTFORMAT
  1
CONTENTFORMAT_BEGIN
 90
        0
 91
        0
 92
        4
 93
        0
300

 40
0.0
140
1.0
 94
        5
 62
     0
340
11
144
0.18
309
CONTENTFORMAT_END
171
     1
301
MARGIN
  1
CELLMARGIN_BEGIN
 40
0.06
 40
0.06
 40
0.06
 40
0.06
 40
0.06
 40
0.06
309
CELLMARGIN_END
 94
        6
 95
        1
302
GRIDFORMAT
  1
GRIDFORMAT_BEGIN
 90
        0
 91
        1
 62
     0
 92
       -2
340
14
 93
        0
 40
0.045
309
GRIDFORMAT_END
 95
        2
302
GRIDFORMAT
  1
GRIDFORMAT_BEGIN
 90
        0
 91
        1
 62
     0
 92
       -2
340
14
 93
        0
 40
0.045
309
GRIDFORMAT_END
 95
        4
302
GRIDFORMAT
  1
GRIDFORMAT_BEGIN
 90
        0
 91
        1
 62
     0
 92
       -2
340
14
 93
        0
 40
0.045
309
GRIDFORMAT_END
 95
        8
302
GRIDFORMAT
  1
GRIDFORMAT_BEGIN
 90
        0
 91
        1
 62
     0
 92
       -2
340
14
 93
        0
 40
0.045
309
GRIDFORMAT_END
 95
       16
302
GRIDFORMAT
  1
GRIDFORMAT_BEGIN
 90
        0
 91
        1
 62
     0
 92
       -2
340
14
 93
        0
 40
0.045
309
GRIDFORMAT_END
 95
       32
302
GRIDFORMAT
  1
GRIDFORMAT_BEGIN
 90
        0
 91
        1
 62
     0
 92
       -2
340
14
 93
        0
 40
0.045
309
GRIDFORMAT_END
309
TABLEFORMAT_END
  1
CELLSTYLE_BEGIN
 90
        2
 91
        1
300
_HEADER
309
CELLSTYLE_END
300
CELLSTYLE
  1
TABLEFORMAT_BEGIN
 90
        5
170
     1
 91
        0
 92
        0
 62
   257
 93
        1
300
CONTENTFORMAT
  1
CONTENTFORMAT_BEGIN
 90
        0
 91
        0
 92
        4
 93
        0
300

 40
0.0
140
1.0
 94
        2
 62
     0
340
11
144
0.18
309
CONTENTFORMAT_END
171
     1
301
MARGIN
  1
CELLMARGIN_BEGIN
 40
0.06
 40
0.06
 40
0.06
 40
0.06
 40
0.06
 40
0.06
309
CELLMARGIN_END
 94
        6
 95
        1
302
GRIDFORMAT
  1
GRIDFORMAT_BEGIN
 90
        0
 91
        1
 62
     0
 92
       -2
340
14
 93
        0
 40
0.045
309
GRIDFORMAT_END
 95
        2
302
GRIDFORMAT
  1
GRIDFORMAT_BEGIN
 90
        0
 91
        1
 62
     0
 92
       -2
340
14
 93
        0
 40
0.045
309
GRIDFORMAT_END
 95
        4
302
GRIDFORMAT
  1
GRIDFORMAT_BEGIN
 90
        0
 91
        1
 62
     0
 92
       -2
340
14
 93
        0
 40
0.045
309
GRIDFORMAT_END
 95
        8
302
GRIDFORMAT
  1
GRIDFORMAT_BEGIN
 90
        0
 91
        1
 62
     0
 92
       -2
340
14
 93
        0
 40
0.045
309
GRIDFORMAT_END
 95
       16
302
GRIDFORMAT
  1
GRIDFORMAT_BEGIN
 90
        0
 91
        1
 62
     0
 92
       -2
340
14
 93
        0
 40
0.045
309
GRIDFORMAT_END
 95
       32
302
GRIDFORMAT
  1
GRIDFORMAT_BEGIN
 90
        0
 91
        1
 62
     0
 92
       -2
340
14
 93
        0
 40
0.045
309
GRIDFORMAT_END
309
TABLEFORMAT_END
  1
CELLSTYLE_BEGIN
 90
        3
 91
        2
300
_DATA
309
CELLSTYLE_END
  0
ENDSEC
  0
EOF
