  0
SECTION
  2
HEADER
  9
$ACADVER
  1
AC1032
  9
$ACADMAINTVER
 90
       55
  9
$DWGCODEPAGE
  3
ANSI_1252
  9
$LASTSAVEDBY
  1
LYI-002
  9
$REQUIREDVERSIONS
160
                 0
  9
$INSBASE
 10
0.0
 20
0.0
 30
0.0
  9
$EXTMIN
 10
-1200.15
 20
-590.1265
 30
0.0
  9
$EXTMAX
 10
1200.05
 20
590.0734
 30
0.0
  9
$LIMMIN
 10
0.0
 20
0.0
  9
$LIMMAX
 10
12.0
 20
9.0
  9
$ORTHOMODE
 70
     0
  9
$REGENMODE
 70
     1
  9
$FILLMODE
 70
     1
  9
$QTEXTMODE
 70
     0
  9
$MIRRTEXT
 70
     1
  9
$LTSCALE
 40
1.0
  9
$ATTMODE
 70
     1
  9
$TEXTSIZE
 40
0.2
  9
$TRACEWID
 40
0.05
  9
$TEXTSTYLE
  7
Standard
  9
$CLAYER
  8
0
  9
$CELTYPE
  6
ByLayer
  9
$CECOLOR
 62
   256
  9
$CELTSCALE
 40
1.0
  9
$DISPSILH
 70
     0
  9
$DIMSCALE
 40
1.0
  9
$DIMASZ
 40
0.18
  9
$DIMEXO
 40
0.0625
  9
$DIMDLI
 40
0.38
  9
$DIMRND
 40
0.0
  9
$DIMDLE
 40
0.0
  9
$DIMEXE
 40
0.18
  9
$DIMTP
 40
0.0
  9
$DIMTM
 40
0.0
  9
$DIMTXT
 40
0.18
  9
$DIMCEN
 40
0.09
  9
$DIMTSZ
 40
0.0
  9
$DIMTOL
 70
     0
  9
$DIMLIM
 70
     0
  9
$DIMTIH
 70
     1
  9
$DIMTOH
 70
     1
  9
$DIMSE1
 70
     0
  9
$DIMSE2
 70
     0
  9
$DIMTAD
 70
     0
  9
$DIMZIN
 70
     0
  9
$DIMBLK
  1

  9
$DIMASO
 70
     1
  9
$DIMSHO
 70
     1
  9
$DIMPOST
  1

  9
$DIMAPOST
  1

  9
$DIMALT
 70
     0
  9
$DIMALTD
 70
     2
  9
$DIMALTF
 40
25.4
  9
$DIMLFAC
 40
1.0
  9
$DIMTOFL
 70
     0
  9
$DIMTVP
 40
0.0
  9
$DIMTIX
 70
     0
  9
$DIMSOXD
 70
     0
  9
$DIMSAH
 70
     0
  9
$DIMBLK1
  1

  9
$DIMBLK2
  1

  9
$DIMSTYLE
  2
Standard
  9
$DIMCLRD
 70
     0
  9
$DIMCLRE
 70
     0
  9
$DIMCLRT
 70
     0
  9
$DIMTFAC
 40
1.0
  9
$DIMGAP
 40
0.09
  9
$DIMJUST
 70
     0
  9
$DIMSD1
 70
     0
  9
$DIMSD2
 70
     0
  9
$DIMTOLJ
 70
     1
  9
$DIMTZIN
 70
     0
  9
$DIMALTZ
 70
     0
  9
$DIMALTTZ
 70
     0
  9
$DIMUPT
 70
     0
  9
$DIMDEC
 70
     4
  9
$DIMTDEC
 70
     4
  9
$DIMALTU
 70
     2
  9
$DIMALTTD
 70
     2
  9
$DIMTXSTY
  7
Standard
  9
$DIMAUNIT
 70
     0
  9
$DIMADEC
 70
     0
  9
$DIMALTRND
 40
0.0
  9
$DIMAZIN
 70
     0
  9
$DIMDSEP
 70
    46
  9
$DIMATFIT
 70
     3
  9
$DIMFRAC
 70
     0
  9
$DIMLDRBLK
  1

  9
$DIMLUNIT
 70
     2
  9
$DIMLWD
 70
    -2
  9
$DIMLWE
 70
    -2
  9
$DIMTMOVE
 70
     0
  9
$DIMFXL
 40
1.0
  9
$DIMFXLON
 70
     0
  9
$DIMJOGANG
 40
0.7853981633974483
  9
$DIMTFILL
 70
     0
  9
$DIMTFILLCLR
 70
     0
  9
$DIMARCSYM
 70
     0
  9
$DIMLTYPE
  6

  9
$DIMLTEX1
  6

  9
$DIMLTEX2
  6

  9
$DIMTXTDIRECTION
 70
     0
  9
$LUNITS
 70
     2
  9
$LUPREC
 70
     4
  9
$SKETCHINC
 40
0.1
  9
$FILLETRAD
 40
0.0
  9
$AUNITS
 70
     0
  9
$AUPREC
 70
     0
  9
$MENU
  1
.
  9
$ELEVATION
 40
0.0
  9
$PELEVATION
 40
0.0
  9
$THICKNESS
 40
0.0
  9
$LIMCHECK
 70
     0
  9
$CHAMFERA
 40
0.0
  9
$CHAMFERB
 40
0.0
  9
$CHAMFERC
 40
0.0
  9
$CHAMFERD
 40
0.0
  9
$SKPOLY
 70
     0
  9
$TDCREATE
 40
2460652.606157523
  9
$TDUCREATE
 40
2460652.376990857
  9
$TDUPDATE
 40
2460652.606157697
  9
$TDUUPDATE
 40
2460652.376991031
  9
$TDINDWG
 40
0.0000000116
  9
$TDUSRTIMER
 40
0.0000000116
  9
$USRTIMER
 70
     1
  9
$ANGBASE
 50
0.0
  9
$ANGDIR
 70
     0
  9
$PDMODE
 70
     0
  9
$PDSIZE
 40
0.0
  9
$PLINEWID
 40
0.0
  9
$SPLFRAME
 70
     0
  9
$SPLINETYPE
 70
     6
  9
$SPLINESEGS
 70
     8
  9
$HANDSEED
  5
95
  9
$SURFTAB1
 70
     6
  9
$SURFTAB2
 70
     6
  9
$SURFTYPE
 70
     6
  9
$SURFU
 70
     6
  9
$SURFV
 70
     6
  9
$UCSBASE
  2

  9
$UCSNAME
  2

  9
$UCSORG
 10
0.0
 20
0.0
 30
0.0
  9
$UCSXDIR
 10
1.0
 20
0.0
 30
0.0
  9
$UCSYDIR
 10
0.0
 20
1.0
 30
0.0
  9
$UCSORTHOREF
  2

  9
$UCSORTHOVIEW
 70
     0
  9
$UCSORGTOP
 10
0.0
 20
0.0
 30
0.0
  9
$UCSORGBOTTOM
 10
0.0
 20
0.0
 30
0.0
  9
$UCSORGLEFT
 10
0.0
 20
0.0
 30
0.0
  9
$UCSORGRIGHT
 10
0.0
 20
0.0
 30
0.0
  9
$UCSORGFRONT
 10
0.0
 20
0.0
 30
0.0
  9
$UCSORGBACK
 10
0.0
 20
0.0
 30
0.0
  9
$PUCSBASE
  2

  9
$PUCSNAME
  2

  9
$PUCSORG
 10
0.0
 20
0.0
 30
0.0
  9
$PUCSXDIR
 10
1.0
 20
0.0
 30
0.0
  9
$PUCSYDIR
 10
0.0
 20
1.0
 30
0.0
  9
$PUCSORTHOREF
  2

  9
$PUCSORTHOVIEW
 70
     0
  9
$PUCSORGTOP
 10
0.0
 20
0.0
 30
0.0
  9
$PUCSORGBOTTOM
 10
0.0
 20
0.0
 30
0.0
  9
$PUCSORGLEFT
 10
0.0
 20
0.0
 30
0.0
  9
$PUCSORGRIGHT
 10
0.0
 20
0.0
 30
0.0
  9
$PUCSORGFRONT
 10
0.0
 20
0.0
 30
0.0
  9
$PUCSORGBACK
 10
0.0
 20
0.0
 30
0.0
  9
$USERI1
 70
     0
  9
$USERI2
 70
     0
  9
$USERI3
 70
     0
  9
$USERI4
 70
     0
  9
$USERI5
 70
     0
  9
$USERR1
 40
0.0
  9
$USERR2
 40
0.0
  9
$USERR3
 40
0.0
  9
$USERR4
 40
0.0
  9
$USERR5
 40
0.0
  9
$WORLDVIEW
 70
     1
  9
$SHADEDGE
 70
     3
  9
$SHADEDIF
 70
    70
  9
$TILEMODE
 70
     1
  9
$MAXACTVP
 70
    64
  9
$PINSBASE
 10
0.0
 20
0.0
 30
0.0
  9
$PLIMCHECK
 70
     0
  9
$PEXTMIN
 10
1.000000000000000E+20
 20
1.000000000000000E+20
 30
1.000000000000000E+20
  9
$PEXTMAX
 10
-1.000000000000000E+20
 20
-1.000000000000000E+20
 30
-1.000000000000000E+20
  9
$PLIMMIN
 10
0.0
 20
0.0
  9
$PLIMMAX
 10
12.0
 20
9.0
  9
$UNITMODE
 70
     0
  9
$VISRETAIN
 70
     1
  9
$PLINEGEN
 70
     0
  9
$PSLTSCALE
 70
     1
  9
$TREEDEPTH
 70
  3020
  9
$CMLSTYLE
  2
Standard
  9
$CMLJUST
 70
     0
  9
$CMLSCALE
 40
1.0
  9
$PROXYGRAPHICS
 70
     1
  9
$MEASUREMENT
 70
     0
  9
$CELWEIGHT
370
    -1
  9
$ENDCAPS
280
     0
  9
$JOINSTYLE
280
     0
  9
$LWDISPLAY
290
     0
  9
$INSUNITS
 70
     4
  9
$HYPERLINKBASE
  1

  9
$STYLESHEET
  1

  9
$XEDIT
290
     1
  9
$CEPSNTYPE
380
     0
  9
$PSTYLEMODE
290
     1
  9
$FINGERPRINTGUID
  2
{f0f0a473-9fbf-48c1-b18b-18577b7f652a}
  9
$VERSIONGUID
  2
{FAEB1C32-E019-11D5-929B-00C0DF256EC4}
  9
$EXTNAMES
290
     1
  9
$PSVPSCALE
 40
0.0
  9
$OLESTARTUP
290
     0
  9
$SORTENTS
280
   127
  9
$INDEXCTL
280
     0
  9
$HIDETEXT
280
     1
  9
$XCLIPFRAME
280
     2
  9
$HALOGAP
280
     0
  9
$OBSCOLOR
 70
   257
  9
$OBSLTYPE
280
     0
  9
$INTERSECTIONDISPLAY
280
     0
  9
$INTERSECTIONCOLOR
 70
   257
  9
$DIMASSOC
280
     2
  9
$PROJECTNAME
  1

  9
$CAMERADISPLAY
290
     0
  9
$LENSLENGTH
 40
50.0
  9
$CAMERAHEIGHT
 40
0.0
  9
$STEPSPERSEC
 40
2.0
  9
$STEPSIZE
 40
6.0
  9
$3DDWFPREC
 40
2.0
  9
$PSOLWIDTH
 40
0.25
  9
$PSOLHEIGHT
 40
4.0
  9
$LOFTANG1
 40
1.570796326794897
  9
$LOFTANG2
 40
1.570796326794897
  9
$LOFTMAG1
 40
0.0
  9
$LOFTMAG2
 40
0.0
  9
$LOFTPARAM
 70
     7
  9
$LOFTNORMALS
280
     1
  9
$LATITUDE
 40
37.795
  9
$LONGITUDE
 40
-122.394
  9
$NORTHDIRECTION
 40
0.0
  9
$TIMEZONE
 70
 -8000
  9
$LIGHTGLYPHDISPLAY
280
     1
  9
$TILEMODELIGHTSYNCH
280
     1
  9
$CMATERIAL
347
44
  9
$SOLIDHIST
280
     0
  9
$SHOWHIST
280
     1
  9
$DWFFRAME
280
     2
  9
$DGNFRAME
280
     2
  9
$REALWORLDSCALE
290
     1
  9
$INTERFERECOLOR
 62
   256
  9
$CSHADOW
280
     0
  9
$SHADOWPLANELOCATION
 40
0.0
  0
ENDSEC
  0
SECTION
  2
CLASSES
  0
CLASS
  1
ACDBDICTIONARYWDFLT
  2
AcDbDictionaryWithDefault
  3
ObjectDBX Classes
 90
        0
 91
        3
280
     0
281
     0
  0
CLASS
  1
VISUALSTYLE
  2
AcDbVisualStyle
  3
ObjectDBX Classes
 90
     4095
 91
        3
280
     0
281
     0
  0
CLASS
  1
MATERIAL
  2
AcDbMaterial
  3
ObjectDBX Classes
 90
     1153
 91
        3
280
     0
281
     0
  0
CLASS
  1
SCALE
  2
AcDbScale
  3
ObjectDBX Classes
 90
     1153
 91
        3
280
     0
281
     0
  0
CLASS
  1
TABLESTYLE
  2
AcDbTableStyle
  3
ObjectDBX Classes
 90
     4095
 91
        3
280
     0
281
     0
  0
CLASS
  1
MLEADERSTYLE
  2
AcDbMLeaderStyle
  3
ACDB_MLEADERSTYLE_CLASS
 90
     4095
 91
        3
280
     0
281
     0
  0
CLASS
  1
SUN
  2
AcDbSun
  3
SCENEOE
 90
     1153
 91
        3
280
     0
281
     0
  0
CLASS
  1
DICTIONARYVAR
  2
AcDbDictionaryVar
  3
ObjectDBX Classes
 90
        0
 91
        3
280
     0
281
     0
  0
CLASS
  1
CELLSTYLEMAP
  2
AcDbCellStyleMap
  3
ObjectDBX Classes
 90
     1152
 91
        3
280
     0
281
     0
  0
ENDSEC
  0
SECTION
  2
TABLES
  0
TABLE
  2
VPORT
  5
8
330
0
100
AcDbSymbolTable
 70
     1
  0
VPORT
  5
29
330
8
100
AcDbSymbolTableRecord
100
AcDbViewportTableRecord
  2
*Active
 70
     0
 10
0.0
 20
0.0
 11
1.0
 21
1.0
 12
10.42990654205607
 22
4.5
 13
0.0
 23
0.0
 14
0.5
 24
0.5
 15
0.5
 25
0.5
 16
0.0
 26
0.0
 36
1.0
 17
0.0
 27
0.0
 37
0.0
 40
9.0
 41
1.972972972850329
 42
50.0
 43
0.0
 44
0.0
 50
0.0
 51
0.0
 71
     0
 72
   100
 73
     1
 74
     3
 75
     0
 76
     0
 77
     0
 78
     0
281
     0
 65
     1
110
0.0
120
0.0
130
0.0
111
1.0
121
0.0
131
0.0
112
0.0
122
1.0
132
0.0
 79
     0
146
0.0
348
2F
 60
     3
 61
     5
292
     1
282
     1
141
0.0
142
0.0
 63
   250
361
5D
  0
ENDTAB
  0
TABLE
  2
LTYPE
  5
5
330
0
100
AcDbSymbolTable
 70
     1
  0
LTYPE
  5
14
330
5
100
AcDbSymbolTableRecord
100
AcDbLinetypeTableRecord
  2
ByBlock
 70
     0
  3

 72
    65
 73
     0
 40
0.0
  0
LTYPE
  5
15
330
5
100
AcDbSymbolTableRecord
100
AcDbLinetypeTableRecord
  2
ByLayer
 70
     0
  3

 72
    65
 73
     0
 40
0.0
  0
LTYPE
  5
16
330
5
100
AcDbSymbolTableRecord
100
AcDbLinetypeTableRecord
  2
Continuous
 70
     0
  3
Solid line
 72
    65
 73
     0
 40
0.0
  0
ENDTAB
  0
TABLE
  2
LAYER
  5
2
330
0
100
AcDbSymbolTable
 70
     2
  0
LAYER
  5
10
330
2
100
AcDbSymbolTableRecord
100
AcDbLayerTableRecord
  2
0
 70
     0
 62
     7
  6
Continuous
370
    -3
390
F
347
46
348
0
  0
LAYER
  5
5F
330
2
100
AcDbSymbolTableRecord
100
AcDbLayerTableRecord
  2
Layer 1
 70
     0
 62
     7
  6
Continuous
370
    -3
390
F
347
46
348
0
  0
ENDTAB
  0
TABLE
  2
STYLE
  5
3
330
0
100
AcDbSymbolTable
 70
     1
  0
STYLE
  5
11
330
3
100
AcDbSymbolTableRecord
100
AcDbTextStyleTableRecord
  2
Standard
 70
     0
 40
0.0
 41
1.0
 50
0.0
 71
     0
 42
0.2
  3
txt
  4

  0
ENDTAB
  0
TABLE
  2
VIEW
  5
6
330
0
100
AcDbSymbolTable
 70
     0
  0
ENDTAB
  0
TABLE
  2
UCS
  5
7
330
0
100
AcDbSymbolTable
 70
     0
  0
ENDTAB
  0
TABLE
  2
APPID
  5
9
330
0
100
AcDbSymbolTable
 70
     2
  0
APPID
  5
12
330
9
100
AcDbSymbolTableRecord
100
AcDbRegAppTableRecord
  2
ACAD
 70
     0
  0
APPID
  5
5E
330
9
100
AcDbSymbolTableRecord
100
AcDbRegAppTableRecord
  2
ODA
 70
     0
  0
ENDTAB
  0
TABLE
  2
DIMSTYLE
  5
A
330
0
100
AcDbSymbolTable
 70
     1
100
AcDbDimStyleTable
  0
DIMSTYLE
105
27
330
A
100
AcDbSymbolTableRecord
100
AcDbDimStyleTableRecord
  2
Standard
 70
     0
178
     0
340
11
  0
ENDTAB
  0
TABLE
  2
BLOCK_RECORD
  5
1
330
0
100
AcDbSymbolTable
 70
     1
  0
BLOCK_RECORD
  5
1F
330
1
100
AcDbSymbolTableRecord
100
AcDbBlockTableRecord
  2
*Model_Space
340
22
 70
     0
280
     1
281
     0
  0
BLOCK_RECORD
  5
1B
330
1
100
AcDbSymbolTableRecord
100
AcDbBlockTableRecord
  2
*Paper_Space
340
1E
 70
     0
280
     1
281
     0
  0
BLOCK_RECORD
  5
23
330
1
100
AcDbSymbolTableRecord
100
AcDbBlockTableRecord
  2
*Paper_Space0
340
26
 70
     0
280
     1
281
     0
  0
ENDTAB
  0
ENDSEC
  0
SECTION
  2
BLOCKS
  0
BLOCK
  5
20
330
1F
100
AcDbEntity
  8
0
100
AcDbBlockBegin
  2
*Model_Space
 70
     0
 10
0.0
 20
0.0
 30
0.0
  3
*Model_Space
  1

  0
ENDBLK
  5
21
330
1F
100
AcDbEntity
  8
0
100
AcDbBlockEnd
  0
BLOCK
  5
1C
330
1B
100
AcDbEntity
 67
     1
  8
0
100
AcDbBlockBegin
  2
*Paper_Space
 70
     0
 10
0.0
 20
0.0
 30
0.0
  3
*Paper_Space
  1

  0
ENDBLK
  5
1D
330
1B
100
AcDbEntity
 67
     1
  8
0
100
AcDbBlockEnd
  0
BLOCK
  5
24
330
23
100
AcDbEntity
  8
0
100
AcDbBlockBegin
  2
*Paper_Space0
 70
     0
 10
0.0
 20
0.0
 30
0.0
  3
*Paper_Space0
  1

  0
ENDBLK
  5
25
330
23
100
AcDbEntity
  8
0
100
AcDbBlockEnd
  0
ENDSEC
  0
SECTION
  2
ENTITIES
  0
SPLINE
  5
60
330
1F
100
AcDbEntity
  8
Layer 1
 62
   250
370
    20
100
AcDbSpline
210
0.0
220
0.0
230
1.0
 70
     8
 71
     3
 72
    59
 73
    55
 74
     0
 42
0.0000000001
 43
0.0000000001
 40
0.0
 40
0.0
 40
0.0
 40
0.0
 40
0.0555555555555556
 40
0.0555555555555556
 40
0.0555555555555556
 40
0.1111111111111111
 40
0.1111111111111111
 40
0.1111111111111111
 40
0.1666666666666667
 40
0.1666666666666667
 40
0.1666666666666667
 40
0.2222222222222222
 40
0.2222222222222222
 40
0.2222222222222222
 40
0.2777777777777778
 40
0.2777777777777778
 40
0.2777777777777778
 40
0.3333333333333333
 40
0.3333333333333333
 40
0.3333333333333333
 40
0.3888888888888888
 40
0.3888888888888888
 40
0.3888888888888888
 40
0.4444444444444444
 40
0.4444444444444444
 40
0.4444444444444444
 40
0.5
 40
0.5
 40
0.5
 40
0.5555555555555556
 40
0.5555555555555556
 40
0.5555555555555556
 40
0.611111111111111
 40
0.611111111111111
 40
0.611111111111111
 40
0.6666666666666666
 40
0.6666666666666666
 40
0.6666666666666666
 40
0.7222222222222222
 40
0.7222222222222222
 40
0.7222222222222222
 40
0.7777777777777777
 40
0.7777777777777777
 40
0.7777777777777777
 40
0.8333333333333333
 40
0.8333333333333333
 40
0.8333333333333333
 40
0.8888888888888888
 40
0.8888888888888888
 40
0.8888888888888888
 40
0.9444444444444444
 40
0.9444444444444444
 40
0.9444444444444444
 40
1.0
 40
1.0
 40
1.0
 40
1.0
 10
902.495
 20
589.9734
 30
0.0
 10
902.495
 20
589.9734
 30
0.0
 10
1199.95
 20
589.9734
 30
0.0
 10
1199.95
 20
589.9734
 30
0.0
 10
1199.95
 20
589.9734
 30
0.0
 10
1199.95
 20
245.18
 30
0.0
 10
1199.95
 20
245.18
 30
0.0
 10
1192.4222
 20
241.6376
 30
0.0
 10
1184.2584
 20
241.5238
 30
0.0
 10
1176.6816
 20
244.8541
 30
0.0
 10
1168.9393
 20
248.2517
 30
0.0
 10
1162.6642
 20
256.1535
 30
0.0
 10
1159.5229
 20
266.46
 30
0.0
 10
1157.0625
 20
274.5221
 30
0.0
 10
1154.6623
 20
282.6152
 30
0.0
 10
1152.3223
 20
290.7394
 30
0.0
 10
1149.9672
 20
298.9101
 30
0.0
 10
1148.4774
 20
307.4997
 30
0.0
 10
1147.8943
 20
316.2444
 30
0.0
 10
1158.5409
 20
346.1916
 30
0.0
 10
1161.8591
 20
380.0431
 30
0.0
 10
1157.3484
 20
412.788
 30
0.0
 10
1152.9017
 20
445.052
 30
0.0
 10
1143.5717
 20
475.6559
 30
0.0
 10
1129.9493
 20
502.6296
 30
0.0
 10
1123.0121
 20
516.3647
 30
0.0
 10
1114.0658
 20
527.9536
 30
0.0
 10
1103.6751
 20
536.657
 30
0.0
 10
1093.0585
 20
545.5464
 30
0.0
 10
1080.4706
 20
548.8613
 30
0.0
 10
1068.2138
 20
545.986
 30
0.0
 10
1063.4925
 20
537.717
 30
0.0
 10
1059.4859
 20
528.719
 30
0.0
 10
1056.2806
 20
519.1675
 30
0.0
 10
1053.0339
 20
509.5023
 30
0.0
 10
1051.6006
 20
498.8804
 30
0.0
 10
1052.1047
 20
488.2584
 30
0.0
 10
1052.575
 20
478.3709
 30
0.0
 10
1052.9737
 20
468.4781
 30
0.0
 10
1053.2935
 20
458.5853
 30
0.0
 10
1053.6208
 20
448.5478
 30
0.0
 10
1052.2176
 20
438.5516
 30
0.0
 10
1049.208
 20
429.3983
 30
0.0
 10
1040.2993
 20
402.3367
 30
0.0
 10
1033.9715
 20
373.8117
 30
0.0
 10
1030.3788
 20
344.5213
 30
0.0
 10
1026.786
 20
315.1895
 30
0.0
 10
1026.3722
 20
285.294
 30
0.0
 10
1029.1599
 20
255.8019
 30
0.0
 10
1001.7759
 20
306.4034
 30
0.0
 10
977.9921
 20
360.5213
 30
0.0
 10
958.1548
 20
417.3905
 30
0.0
 10
938.3588
 20
474.1407
 30
0.0
 10
919.7968
 20
531.6976
 30
0.0
 10
902.4988
 20
589.9734
 30
0.0
  0
SPLINE
  5
61
330
1F
100
AcDbEntity
  8
Layer 1
 62
   250
370
    20
100
AcDbSpline
210
0.0
220
0.0
230
1.0
 70
    11
 71
     3
 72
    26
 73
    22
 74
     0
 42
0.0000000001
 43
0.0000000001
 40
0.0
 40
0.0
 40
0.0
 40
0.0
 40
0.1428571428571428
 40
0.1428571428571428
 40
0.1428571428571428
 40
0.2857142857142857
 40
0.2857142857142857
 40
0.2857142857142857
 40
0.4285714285714285
 40
0.4285714285714285
 40
0.4285714285714285
 40
0.5714285714285714
 40
0.5714285714285714
 40
0.5714285714285714
 40
0.7142857142857142
 40
0.7142857142857142
 40
0.7142857142857142
 40
0.8571428571428571
 40
0.8571428571428571
 40
0.8571428571428571
 40
1.0
 40
1.0
 40
1.0
 40
1.0
 10
876.3713
 20
589.9734
 30
0.0
 10
880.6788
 20
552.8743
 30
0.0
 10
886.8787
 20
516.2457
 30
0.0
 10
894.9333
 20
480.3463
 30
0.0
 10
903.1045
 20
444.0952
 30
0.0
 10
913.1229
 20
408.682
 30
0.0
 10
924.9132
 20
374.3702
 30
0.0
 10
910.354
 20
368.6404
 30
0.0
 10
894.6624
 20
374.0754
 30
0.0
 10
883.8013
 20
388.581
 30
0.0
 10
873.6626
 20
402.1299
 30
0.0
 10
864.0355
 20
416.3872
 30
0.0
 10
854.9539
 20
431.2859
 30
0.0
 10
844.7248
 20
448.0668
 30
0.0
 10
834.4769
 20
464.822
 30
0.0
 10
824.2027
 20
481.5564
 30
0.0
 10
805.4112
 20
512.1604
 30
0.0
 10
794.0085
 20
550.0662
 30
0.0
 10
791.5743
 20
589.9734
 30
0.0
 10
791.5743
 20
589.9734
 30
0.0
 10
876.3713
 20
589.9734
 30
0.0
 10
876.3713
 20
589.9734
 30
0.0
  0
SPLINE
  5
62
330
1F
100
AcDbEntity
  8
Layer 1
 62
   250
370
    20
100
AcDbSpline
210
0.0
220
0.0
230
1.0
 70
    11
 71
     3
 72
    32
 73
    28
 74
     0
 42
0.0000000001
 43
0.0000000001
 40
0.0
 40
0.0
 40
0.0
 40
0.0
 40
0.1111111111111111
 40
0.1111111111111111
 40
0.1111111111111111
 40
0.2222222222222222
 40
0.2222222222222222
 40
0.2222222222222222
 40
0.3333333333333333
 40
0.3333333333333333
 40
0.3333333333333333
 40
0.4444444444444444
 40
0.4444444444444444
 40
0.4444444444444444
 40
0.5555555555555556
 40
0.5555555555555556
 40
0.5555555555555556
 40
0.6666666666666666
 40
0.6666666666666666
 40
0.6666666666666666
 40
0.7777777777777777
 40
0.7777777777777777
 40
0.7777777777777777
 40
0.8888888888888888
 40
0.8888888888888888
 40
0.8888888888888888
 40
1.0
 40
1.0
 40
1.0
 40
1.0
 10
549.0907
 20
589.9734
 30
0.0
 10
549.0907
 20
589.9734
 30
0.0
 10
705.0394
 20
589.9734
 30
0.0
 10
705.0394
 20
589.9734
 30
0.0
 10
668.3894
 20
557.7249
 30
0.0
 10
634.6513
 20
519.6433
 30
0.0
 10
604.5059
 20
476.504
 30
0.0
 10
595.7478
 20
463.9635
 30
0.0
 10
589.4915
 20
448.5426
 30
0.0
 10
586.3388
 20
431.7047
 30
0.0
 10
574.6087
 20
421.1915
 30
0.0
 10
559.9706
 20
418.8023
 30
0.0
 10
546.7695
 20
425.2199
 30
0.0
 10
533.9596
 20
431.4514
 30
0.0
 10
522.8277
 20
442.9059
 30
0.0
 10
514.8672
 20
458.0424
 30
0.0
 10
513.6069
 20
460.4418
 30
0.0
 10
512.5874
 20
463.0637
 30
0.0
 10
511.8425
 20
465.8355
 30
0.0
 10
522.4364
 20
473.8511
 30
0.0
 10
531.5407
 20
485.1091
 30
0.0
 10
538.4478
 20
498.7511
 30
0.0
 10
544.975
 20
511.969
 30
0.0
 10
549.3578
 20
526.9556
 30
0.0
 10
551.3028
 20
542.7022
 30
0.0
 10
553.2477
 20
558.4851
 30
0.0
 10
552.4916
 20
574.6611
 30
0.0
 10
549.0907
 20
589.9734
 30
0.0
  0
SPLINE
  5
63
330
1F
100
AcDbEntity
  8
Layer 1
 62
   250
370
    20
100
AcDbSpline
210
0.0
220
0.0
230
1.0
 70
     8
 71
     3
 72
    53
 73
    49
 74
     0
 42
0.0000000001
 43
0.0000000001
 40
0.0
 40
0.0
 40
0.0
 40
0.0
 40
0.0625
 40
0.0625
 40
0.0625
 40
0.125
 40
0.125
 40
0.125
 40
0.1875
 40
0.1875
 40
0.1875
 40
0.25
 40
0.25
 40
0.25
 40
0.3125
 40
0.3125
 40
0.3125
 40
0.375
 40
0.375
 40
0.375
 40
0.4375
 40
0.4375
 40
0.4375
 40
0.5
 40
0.5
 40
0.5
 40
0.5625
 40
0.5625
 40
0.5625
 40
0.625
 40
0.625
 40
0.625
 40
0.6875
 40
0.6875
 40
0.6875
 40
0.75
 40
0.75
 40
0.75
 40
0.8125
 40
0.8125
 40
0.8125
 40
0.875
 40
0.875
 40
0.875
 40
0.9375
 40
0.9375
 40
0.9375
 40
1.0
 40
1.0
 40
1.0
 40
1.0
 10
517.858
 20
589.9734
 30
0.0
 10
512.9936
 20
584.8744
 30
0.0
 10
508.8366
 20
578.6223
 30
0.0
 10
505.5862
 20
571.5066
 30
0.0
 10
502.2981
 20
564.3184
 30
0.0
 10
500.4735
 20
556.0598
 30
0.0
 10
500.293
 20
547.5736
 30
0.0
 10
500.071
 20
537.0241
 30
0.0
 10
500.0033
 20
526.4746
 30
0.0
 10
500.0898
 20
515.9251
 30
0.0
 10
500.1764
 20
505.3704
 30
0.0
 10
500.6053
 20
494.8261
 30
0.0
 10
501.3802
 20
484.3282
 30
0.0
 10
492.2986
 20
495.6379
 30
0.0
 10
485.2221
 20
509.6678
 30
0.0
 10
480.7077
 20
525.3265
 30
0.0
 10
476.2383
 20
540.8251
 30
0.0
 10
472.9126
 20
556.9027
 30
0.0
 10
470.7796
 20
573.3114
 30
0.0
 10
463.9251
 20
534.0454
 30
0.0
 10
465.3697
 20
492.9282
 30
0.0
 10
474.9517
 20
454.7585
 30
0.0
 10
479.5678
 20
436.3797
 30
0.0
 10
487.5358
 20
419.9399
 30
0.0
 10
498.0996
 20
407.0117
 30
0.0
 10
506.3235
 20
396.9431
 30
0.0
 10
514.8785
 20
387.4019
 30
0.0
 10
523.7419
 20
378.409
 30
0.0
 10
532.6166
 20
369.4006
 30
0.0
 10
542.0706
 20
361.5298
 30
0.0
 10
551.9913
 20
354.8949
 30
0.0
 10
536.3373
 20
317.951
 30
0.0
 10
527.1014
 20
276.5544
 30
0.0
 10
524.9947
 20
233.9013
 30
0.0
 10
522.064
 20
174.5085
 30
0.0
 10
522.4327
 20
114.9038
 30
0.0
 10
526.0969
 20
55.5937
 30
0.0
 10
509.969
 20
84.4291
 30
0.0
 10
494.6536
 20
114.1126
 30
0.0
 10
480.196
 20
144.5768
 30
0.0
 10
456.6455
 20
194.1854
 30
0.0
 10
435.0363
 20
245.4954
 30
0.0
 10
415.4623
 20
298.2741
 30
0.0
 10
381.9497
 20
392.6509
 30
0.0
 10
353.2377
 20
490.1304
 30
0.0
 10
329.5443
 20
589.9734
 30
0.0
 10
329.5443
 20
589.9734
 30
0.0
 10
517.8618
 20
589.9734
 30
0.0
 10
517.8618
 20
589.9734
 30
0.0
  0
SPLINE
  5
64
330
1F
100
AcDbEntity
  8
Layer 1
 62
   250
370
    20
100
AcDbSpline
210
0.0
220
0.0
230
1.0
 70
    11
 71
     3
 72
    56
 73
    52
 74
     0
 42
0.0000000001
 43
0.0000000001
 40
0.0
 40
0.0
 40
0.0
 40
0.0
 40
0.0588235294117647
 40
0.0588235294117647
 40
0.0588235294117647
 40
0.1176470588235294
 40
0.1176470588235294
 40
0.1176470588235294
 40
0.1764705882352941
 40
0.1764705882352941
 40
0.1764705882352941
 40
0.2352941176470588
 40
0.2352941176470588
 40
0.2352941176470588
 40
0.2941176470588235
 40
0.2941176470588235
 40
0.2941176470588235
 40
0.3529411764705882
 40
0.3529411764705882
 40
0.3529411764705882
 40
0.4117647058823529
 40
0.4117647058823529
 40
0.4117647058823529
 40
0.4705882352941176
 40
0.4705882352941176
 40
0.4705882352941176
 40
0.5294117647058824
 40
0.5294117647058824
 40
0.5294117647058824
 40
0.5882352941176471
 40
0.5882352941176471
 40
0.5882352941176471
 40
0.6470588235294118
 40
0.6470588235294118
 40
0.6470588235294118
 40
0.7058823529411764
 40
0.7058823529411764
 40
0.7058823529411764
 40
0.7647058823529411
 40
0.7647058823529411
 40
0.7647058823529411
 40
0.8235294117647058
 40
0.8235294117647058
 40
0.8235294117647058
 40
0.8823529411764706
 40
0.8823529411764706
 40
0.8823529411764706
 40
0.9411764705882353
 40
0.9411764705882353
 40
0.9411764705882353
 40
1.0
 40
1.0
 40
1.0
 40
1.0
 10
336.5154
 20
-590.0265
 30
0.0
 10
341.6017
 20
-570.8098
 30
0.0
 10
348.6405
 20
-552.6791
 30
0.0
 10
357.4173
 20
-536.1722
 30
0.0
 10
382.3899
 20
-489.2061
 30
0.0
 10
413.3216
 20
-448.7974
 30
0.0
 10
448.7076
 20
-416.8903
 30
0.0
 10
462.6837
 20
-404.2877
 30
0.0
 10
479.342
 20
-398.4855
 30
0.0
 10
496.0005
 20
-400.4144
 30
0.0
 10
536.943
 20
-405.1565
 30
0.0
 10
578.1526
 20
-402.364
 30
0.0
 10
618.5572
 20
-392.1093
 30
0.0
 10
625.9496
 20
-390.232
 30
0.0
 10
633.327
 20
-388.2101
 30
0.0
 10
640.6818
 20
-386.0433
 30
0.0
 10
648.0367
 20
-383.8765
 30
0.0
 10
655.3276
 20
-381.3167
 30
0.0
 10
662.5394
 20
-378.3638
 30
0.0
 10
656.3847
 20
-390.5113
 30
0.0
 10
651.0312
 20
-403.3827
 30
0.0
 10
646.5469
 20
-416.8437
 30
0.0
 10
641.043
 20
-433.6557
 30
0.0
 10
636.6941
 20
-451.1348
 30
0.0
 10
633.5489
 20
-469.0587
 30
0.0
 10
613.4445
 20
-453.5395
 30
0.0
 10
591.0527
 20
-444.4741
 30
0.0
 10
568.0402
 20
-442.5401
 30
0.0
 10
557.8412
 20
-441.6816
 30
0.0
 10
547.7025
 20
-445.0844
 30
0.0
 10
538.9444
 20
-452.3087
 30
0.0
 10
532.8649
 20
-457.3249
 30
0.0
 10
526.9999
 20
-462.8065
 30
0.0
 10
521.3756
 20
-468.738
 30
0.0
 10
515.7437
 20
-474.6696
 30
0.0
 10
510.4694
 20
-481.2062
 30
0.0
 10
505.5937
 20
-488.296
 30
0.0
 10
510.6688
 20
-497.7285
 30
0.0
 10
517.5947
 20
-504.9787
 30
0.0
 10
525.5628
 20
-509.1882
 30
0.0
 10
562.0209
 20
-528.4566
 30
0.0
 10
602.0455
 20
-530.7785
 30
0.0
 10
639.5495
 20
-515.7765
 30
0.0
 10
637.5819
 20
-528.9271
 30
0.0
 10
637.7813
 20
-542.5123
 30
0.0
 10
640.1326
 20
-555.5389
 30
0.0
 10
642.4989
 20
-568.6637
 30
0.0
 10
647.4874
 20
-580.6095
 30
0.0
 10
654.5451
 20
-590.0265
 30
0.0
 10
654.5451
 20
-590.0265
 30
0.0
 10
336.5154
 20
-590.0265
 30
0.0
 10
336.5154
 20
-590.0265
 30
0.0
  0
SPLINE
  5
65
330
1F
100
AcDbEntity
  8
Layer 1
 62
   250
370
    20
100
AcDbSpline
210
0.0
220
0.0
230
1.0
 70
    11
 71
     3
 72
    74
 73
    70
 74
     0
 42
0.0000000001
 43
0.0000000001
 40
0.0
 40
0.0
 40
0.0
 40
0.0
 40
0.0434782608695652
 40
0.0434782608695652
 40
0.0434782608695652
 40
0.0869565217391304
 40
0.0869565217391304
 40
0.0869565217391304
 40
0.1304347826086956
 40
0.1304347826086956
 40
0.1304347826086956
 40
0.1739130434782609
 40
0.1739130434782609
 40
0.1739130434782609
 40
0.2173913043478261
 40
0.2173913043478261
 40
0.2173913043478261
 40
0.2608695652173913
 40
0.2608695652173913
 40
0.2608695652173913
 40
0.3043478260869565
 40
0.3043478260869565
 40
0.3043478260869565
 40
0.3478260869565217
 40
0.3478260869565217
 40
0.3478260869565217
 40
0.3913043478260869
 40
0.3913043478260869
 40
0.3913043478260869
 40
0.4347826086956522
 40
0.4347826086956522
 40
0.4347826086956522
 40
0.4782608695652174
 40
0.4782608695652174
 40
0.4782608695652174
 40
0.5217391304347826
 40
0.5217391304347826
 40
0.5217391304347826
 40
0.5652173913043478
 40
0.5652173913043478
 40
0.5652173913043478
 40
0.6086956521739131
 40
0.6086956521739131
 40
0.6086956521739131
 40
0.6521739130434783
 40
0.6521739130434783
 40
0.6521739130434783
 40
0.6956521739130435
 40
0.6956521739130435
 40
0.6956521739130435
 40
0.7391304347826086
 40
0.7391304347826086
 40
0.7391304347826086
 40
0.7826086956521738
 40
0.7826086956521738
 40
0.7826086956521738
 40
0.8260869565217391
 40
0.8260869565217391
 40
0.8260869565217391
 40
0.8695652173913043
 40
0.8695652173913043
 40
0.8695652173913043
 40
0.9130434782608695
 40
0.9130434782608695
 40
0.9130434782608695
 40
0.9565217391304348
 40
0.9565217391304348
 40
0.9565217391304348
 40
1.0
 40
1.0
 40
1.0
 40
1.0
 10
258.5053
 20
-590.0265
 30
0.0
 10
262.2259
 20
-561.067
 30
0.0
 10
267.3499
 20
-532.4799
 30
0.0
 10
273.8394
 20
-504.4564
 30
0.0
 10
298.575
 20
-397.6167
 30
0.0
 10
335.255
 20
-296.6826
 30
0.0
 10
382.5404
 20
-205.3207
 30
0.0
 10
414.4616
 20
-144.3559
 30
0.0
 10
451.4689
 20
-88.7175
 30
0.0
 10
492.7876
 20
-39.564
 30
0.0
 10
496.3353
 20
-51.1271
 30
0.0
 10
500.9889
 20
-61.9817
 30
0.0
 10
506.6321
 20
-71.8486
 30
0.0
 10
512.3015
 20
-81.7621
 30
0.0
 10
519.2952
 20
-90.093
 30
0.0
 10
527.2407
 20
-96.3918
 30
0.0
 10
519.9986
 20
-102.2767
 30
0.0
 10
513.2156
 20
-109.1701
 30
0.0
 10
506.997
 20
-116.9581
 30
0.0
 10
500.7632
 20
-124.772
 30
0.0
 10
495.3948
 20
-133.796
 30
0.0
 10
491.0646
 20
-143.7508
 30
0.0
 10
484.086
 20
-160.4128
 30
0.0
 10
479.9627
 20
-179.0348
 30
0.0
 10
479.0072
 20
-198.2153
 30
0.0
 10
476.4754
 20
-190.0756
 30
0.0
 10
473.3716
 20
-182.2979
 30
0.0
 10
469.7338
 20
-174.9909
 30
0.0
 10
466.0845
 20
-167.6682
 30
0.0
 10
461.6641
 20
-161.1265
 30
0.0
 10
456.6117
 20
-155.5931
 30
0.0
 10
455.9759
 20
-175.8854
 30
0.0
 10
457.6237
 20
-196.183
 30
0.0
 10
461.5023
 20
-215.7823
 30
0.0
 10
465.3622
 20
-235.2989
 30
0.0
 10
470.4297
 20
-254.319
 30
0.0
 10
476.6447
 20
-272.6515
 30
0.0
 10
482.9725
 20
-291.2993
 30
0.0
 10
491.3167
 20
-308.5146
 30
0.0
 10
501.3991
 20
-323.7184
 30
0.0
 10
512.5723
 20
-340.5614
 30
0.0
 10
526.0292
 20
-354.2344
 30
0.0
 10
541.0211
 20
-363.972
 30
0.0
 10
511.5303
 20
-360.2383
 30
0.0
 10
481.8288
 20
-361.0295
 30
0.0
 10
452.4659
 20
-366.3457
 30
0.0
 10
426.613
 20
-371.0309
 30
0.0
 10
400.3275
 20
-364.3909
 30
0.0
 10
377.3714
 20
-347.3979
 30
0.0
 10
383.1649
 20
-358.2629
 30
0.0
 10
390.1361
 20
-367.8453
 30
0.0
 10
398.0439
 20
-375.8143
 30
0.0
 10
406.4709
 20
-384.0264
 30
0.0
 10
415.7669
 20
-390.413
 30
0.0
 10
425.6048
 20
-394.7569
 30
0.0
 10
414.4954
 20
-400.1558
 30
0.0
 10
404.0481
 20
-407.8249
 30
0.0
 10
394.6091
 20
-417.516
 30
0.0
 10
385.1851
 20
-427.1864
 30
0.0
 10
376.6754
 20
-438.4289
 30
0.0
 10
369.2753
 20
-450.9849
 30
0.0
 10
359.1969
 20
-468.495
 30
0.0
 10
350.1303
 20
-487.0497
 30
0.0
 10
342.1584
 20
-506.4991
 30
0.0
 10
331.3049
 20
-533.2711
 30
0.0
 10
322.0427
 20
-561.2015
 30
0.0
 10
314.4659
 20
-590.0265
 30
0.0
 10
314.4659
 20
-590.0265
 30
0.0
 10
258.5053
 20
-590.0265
 30
0.0
 10
258.5053
 20
-590.0265
 30
0.0
  0
SPLINE
  5
66
330
1F
100
AcDbEntity
  8
Layer 1
 62
   250
370
    20
100
AcDbSpline
210
0.0
220
0.0
230
1.0
 70
    11
 71
     3
 72
    47
 73
    43
 74
     0
 42
0.0000000001
 43
0.0000000001
 40
0.0
 40
0.0
 40
0.0
 40
0.0
 40
0.0714285714285714
 40
0.0714285714285714
 40
0.0714285714285714
 40
0.1428571428571428
 40
0.1428571428571428
 40
0.1428571428571428
 40
0.2142857142857143
 40
0.2142857142857143
 40
0.2142857142857143
 40
0.2857142857142857
 40
0.2857142857142857
 40
0.2857142857142857
 40
0.3571428571428571
 40
0.3571428571428571
 40
0.3571428571428571
 40
0.4285714285714285
 40
0.4285714285714285
 40
0.4285714285714285
 40
0.5
 40
0.5
 40
0.5
 40
0.5714285714285714
 40
0.5714285714285714
 40
0.5714285714285714
 40
0.6428571428571428
 40
0.6428571428571428
 40
0.6428571428571428
 40
0.7142857142857142
 40
0.7142857142857142
 40
0.7142857142857142
 40
0.7857142857142857
 40
0.7857142857142857
 40
0.7857142857142857
 40
0.8571428571428571
 40
0.8571428571428571
 40
0.8571428571428571
 40
0.9285714285714285
 40
0.9285714285714285
 40
0.9285714285714285
 40
1.0
 40
1.0
 40
1.0
 40
1.0
 10
40.7872
 20
-590.0265
 30
0.0
 10
-29.6311
 20
-529.3616
 30
0.0
 10
-86.6753
 20
-443.3623
 30
0.0
 10
-124.1604
 20
-341.4095
 30
0.0
 10
-141.5337
 20
-294.1539
 30
0.0
 10
-148.6553
 20
-241.0029
 30
0.0
 10
-144.6863
 20
-188.338
 30
0.0
 10
-138.8664
 20
-225.9543
 30
0.0
 10
-128.2235
 20
-261.8382
 30
0.0
 10
-113.243
 20
-294.3245
 30
0.0
 10
-98.3414
 20
-326.6453
 30
0.0
 10
-80.9644
 20
-356.6753
 30
0.0
 10
-61.4055
 20
-383.9023
 30
0.0
 10
-42.3582
 20
-410.4209
 30
0.0
 10
-19.7067
 20
-431.5148
 30
0.0
 10
5.2695
 20
-445.9997
 30
0.0
 10
32.0516
 20
-461.524
 30
0.0
 10
61.1324
 20
-468.0347
 30
0.0
 10
90.1116
 20
-464.9836
 30
0.0
 10
84.3255
 20
-473.4905
 30
0.0
 10
80.1308
 20
-483.8021
 30
0.0
 10
77.8812
 20
-495.0291
 30
0.0
 10
76.2672
 20
-503.3136
 30
0.0
 10
75.7067
 20
-511.9135
 30
0.0
 10
76.2258
 20
-520.4565
 30
0.0
 10
76.7412
 20
-528.9634
 30
0.0
 10
77.8961
 20
-537.3668
 30
0.0
 10
79.6757
 20
-545.5427
 30
0.0
 10
81.6281
 20
-533.9951
 30
0.0
 10
85.6949
 20
-523.3215
 30
0.0
 10
91.4884
 20
-514.5353
 30
0.0
 10
97.3422
 20
-505.6613
 30
0.0
 10
105.1598
 20
-499.673
 30
0.0
 10
113.7298
 20
-497.4958
 30
0.0
 10
114.5386
 20
-513.8528
 30
0.0
 10
119.4819
 20
-529.2943
 30
0.0
 10
127.7096
 20
-541.1574
 30
0.0
 10
141.5201
 20
-561.0825
 30
0.0
 10
157.7045
 20
-577.6101
 30
0.0
 10
175.5706
 20
-590.0265
 30
0.0
 10
175.5706
 20
-590.0265
 30
0.0
 10
40.7872
 20
-590.0265
 30
0.0
 10
40.7872
 20
-590.0265
 30
0.0
  0
SPLINE
  5
67
330
1F
100
AcDbEntity
  8
Layer 1
 62
   250
370
    20
100
AcDbSpline
210
0.0
220
0.0
230
1.0
 70
    11
 71
     3
 72
    50
 73
    46
 74
     0
 42
0.0000000001
 43
0.0000000001
 40
0.0
 40
0.0
 40
0.0
 40
0.0
 40
0.0666666666666667
 40
0.0666666666666667
 40
0.0666666666666667
 40
0.1333333333333333
 40
0.1333333333333333
 40
0.1333333333333333
 40
0.2
 40
0.2
 40
0.2
 40
0.2666666666666667
 40
0.2666666666666667
 40
0.2666666666666667
 40
0.3333333333333333
 40
0.3333333333333333
 40
0.3333333333333333
 40
0.4
 40
0.4
 40
0.4
 40
0.4666666666666667
 40
0.4666666666666667
 40
0.4666666666666667
 40
0.5333333333333333
 40
0.5333333333333333
 40
0.5333333333333333
 40
0.6
 40
0.6
 40
0.6
 40
0.6666666666666666
 40
0.6666666666666666
 40
0.6666666666666666
 40
0.7333333333333333
 40
0.7333333333333333
 40
0.7333333333333333
 40
0.8
 40
0.8
 40
0.8
 40
0.8666666666666667
 40
0.8666666666666667
 40
0.8666666666666667
 40
0.9333333333333333
 40
0.9333333333333333
 40
0.9333333333333333
 40
1.0
 40
1.0
 40
1.0
 40
1.0
 10
113.3084
 20
589.9734
 30
0.0
 10
113.3084
 20
589.9734
 30
0.0
 10
307.1712
 20
589.9734
 30
0.0
 10
307.1712
 20
589.9734
 30
0.0
 10
314.861
 20
529.2826
 30
0.0
 10
324.9019
 20
469.2021
 30
0.0
 10
337.2564
 20
409.98
 30
0.0
 10
349.6412
 20
350.6389
 30
0.0
 10
366.5254
 20
293.263
 30
0.0
 10
387.6455
 20
238.7778
 30
0.0
 10
369.2076
 20
226.0202
 30
0.0
 10
348.4449
 20
220.9471
 30
0.0
 10
327.9379
 20
224.174
 30
0.0
 10
307.7996
 20
227.344
 30
0.0
 10
287.9546
 20
233.4255
 30
0.0
 10
268.7455
 20
242.3047
 30
0.0
 10
259.2802
 20
246.6796
 30
0.0
 10
252.0082
 20
257.2343
 30
0.0
 10
249.3333
 20
270.4574
 30
0.0
 10
243.8821
 20
297.4156
 30
0.0
 10
242.1214
 20
325.5476
 30
0.0
 10
244.1417
 20
353.3901
 30
0.0
 10
245.8083
 20
376.3663
 30
0.0
 10
247.742
 20
399.3116
 30
0.0
 10
249.9353
 20
422.1999
 30
0.0
 10
252.1323
 20
445.114
 30
0.0
 10
255.3676
 20
467.8213
 30
0.0
 10
259.6188
 20
490.1822
 30
0.0
 10
247.7947
 20
477.3986
 30
0.0
 10
237.0201
 20
462.8879
 30
0.0
 10
227.4871
 20
446.8982
 30
0.0
 10
217.8787
 20
430.7843
 30
0.0
 10
210.7684
 20
412.1571
 30
0.0
 10
206.5812
 20
392.1337
 30
0.0
 10
201.3783
 20
365.7858
 30
0.0
 10
201.3783
 20
338.0261
 30
0.0
 10
206.5812
 20
311.6833
 30
0.0
 10
179.2536
 20
343.8179
 30
0.0
 10
156.8656
 20
383.1459
 30
0.0
 10
140.7414
 20
427.3298
 30
0.0
 10
131.7877
 20
452.5711
 30
0.0
 10
125.0611
 20
479.2035
 30
0.0
 10
120.7159
 20
506.6425
 30
0.0
 10
116.3746
 20
534.0403
 30
0.0
 10
113.8953
 20
561.9396
 30
0.0
 10
113.3084
 20
589.9734
 30
0.0
  0
SPLINE
  5
68
330
1F
100
AcDbEntity
  8
Layer 1
 62
   250
370
    20
100
AcDbSpline
210
0.0
220
0.0
230
1.0
 70
    11
 71
     3
 72
    53
 73
    49
 74
     0
 42
0.0000000001
 43
0.0000000001
 40
0.0
 40
0.0
 40
0.0
 40
0.0
 40
0.0625
 40
0.0625
 40
0.0625
 40
0.125
 40
0.125
 40
0.125
 40
0.1875
 40
0.1875
 40
0.1875
 40
0.25
 40
0.25
 40
0.25
 40
0.3125
 40
0.3125
 40
0.3125
 40
0.375
 40
0.375
 40
0.375
 40
0.4375
 40
0.4375
 40
0.4375
 40
0.5
 40
0.5
 40
0.5
 40
0.5625
 40
0.5625
 40
0.5625
 40
0.625
 40
0.625
 40
0.625
 40
0.6875
 40
0.6875
 40
0.6875
 40
0.75
 40
0.75
 40
0.75
 40
0.8125
 40
0.8125
 40
0.8125
 40
0.875
 40
0.875
 40
0.875
 40
0.9375
 40
0.9375
 40
0.9375
 40
1.0
 40
1.0
 40
1.0
 40
1.0
 10
-18.6685
 20
589.9734
 30
0.0
 10
-22.2311
 20
580.8977
 30
0.0
 10
-25.5117
 20
571.6255
 30
0.0
 10
-28.5025
 20
562.1671
 30
0.0
 10
-34.4089
 20
543.0177
 30
0.0
 10
-39.6043
 20
523.4752
 30
0.0
 10
-44.0699
 20
503.5966
 30
0.0
 10
-65.2051
 20
520.9774
 30
0.0
 10
-90.0348
 20
527.8192
 30
0.0
 10
-114.4092
 20
522.9581
 30
0.0
 10
-138.919
 20
518.0763
 30
0.0
 10
-161.1829
 20
500.7266
 30
0.0
 10
-176.8105
 20
474.3165
 30
0.0
 10
-164.2377
 20
467.2163
 30
0.0
 10
-152.0674
 20
458.8388
 30
0.0
 10
-140.3975
 20
449.2614
 30
0.0
 10
-122.3171
 20
434.4249
 30
0.0
 10
-100.546
 20
430.7377
 30
0.0
 10
-80.3888
 20
439.1204
 30
0.0
 10
-68.4142
 20
444.0952
 30
0.0
 10
-56.8045
 20
450.6008
 30
0.0
 10
-45.7064
 20
458.544
 30
0.0
 10
-46.9667
 20
443.1127
 30
0.0
 10
-45.3227
 20
427.5004
 30
0.0
 10
-40.9211
 20
413.2017
 30
0.0
 10
-36.5721
 20
399.053
 30
0.0
 10
-30.7334
 20
385.8712
 30
0.0
 10
-23.5855
 20
374.0702
 30
0.0
 10
-50.0741
 20
387.9346
 30
0.0
 10
-77.9548
 20
396.0949
 30
0.0
 10
-106.2568
 20
398.2669
 30
0.0
 10
-134.4233
 20
400.4285
 30
0.0
 10
-162.6651
 20
399.8287
 30
0.0
 10
-190.7715
 20
396.4724
 30
0.0
 10
-194.8759
 20
395.9812
 30
0.0
 10
-198.9653
 20
395.2727
 30
0.0
 10
-203.0321
 20
394.3419
 30
0.0
 10
-213.7239
 20
411.1021
 30
0.0
 10
-223.4638
 20
428.9743
 30
0.0
 10
-232.1617
 20
447.7876
 30
0.0
 10
-240.8633
 20
466.6061
 30
0.0
 10
-248.3875
 20
486.4071
 30
0.0
 10
-254.6551
 20
506.9735
 30
0.0
 10
-262.5366
 20
533.549
 30
0.0
 10
-267.7734
 20
561.4742
 30
0.0
 10
-270.2225
 20
589.9734
 30
0.0
 10
-270.2225
 20
589.9734
 30
0.0
 10
-18.6685
 20
589.9734
 30
0.0
 10
-18.6685
 20
589.9734
 30
0.0
  0
SPLINE
  5
69
330
1F
100
AcDbEntity
  8
Layer 1
 62
   250
370
    20
100
AcDbSpline
210
0.0
220
0.0
230
1.0
 70
    11
 71
     3
 72
   116
 73
   112
 74
     0
 42
0.0000000001
 43
0.0000000001
 40
0.0
 40
0.0
 40
0.0
 40
0.0
 40
0.027027027027027
 40
0.027027027027027
 40
0.027027027027027
 40
0.0540540540540541
 40
0.0540540540540541
 40
0.0540540540540541
 40
0.0810810810810811
 40
0.0810810810810811
 40
0.0810810810810811
 40
0.1081081081081081
 40
0.1081081081081081
 40
0.1081081081081081
 40
0.1351351351351351
 40
0.1351351351351351
 40
0.1351351351351351
 40
0.1621621621621622
 40
0.1621621621621622
 40
0.1621621621621622
 40
0.1891891891891892
 40
0.1891891891891892
 40
0.1891891891891892
 40
0.2162162162162162
 40
0.2162162162162162
 40
0.2162162162162162
 40
0.2432432432432433
 40
0.2432432432432433
 40
0.2432432432432433
 40
0.2702702702702703
 40
0.2702702702702703
 40
0.2702702702702703
 40
0.2972972972972973
 40
0.2972972972972973
 40
0.2972972972972973
 40
0.3243243243243243
 40
0.3243243243243243
 40
0.3243243243243243
 40
0.3513513513513514
 40
0.3513513513513514
 40
0.3513513513513514
 40
0.3783783783783784
 40
0.3783783783783784
 40
0.3783783783783784
 40
0.4054054054054054
 40
0.4054054054054054
 40
0.4054054054054054
 40
0.4324324324324325
 40
0.4324324324324325
 40
0.4324324324324325
 40
0.4594594594594595
 40
0.4594594594594595
 40
0.4594594594594595
 40
0.4864864864864865
 40
0.4864864864864865
 40
0.4864864864864865
 40
0.5135135135135136
 40
0.5135135135135136
 40
0.5135135135135136
 40
0.5405405405405406
 40
0.5405405405405406
 40
0.5405405405405406
 40
0.5675675675675675
 40
0.5675675675675675
 40
0.5675675675675675
 40
0.5945945945945946
 40
0.5945945945945946
 40
0.5945945945945946
 40
0.6216216216216217
 40
0.6216216216216217
 40
0.6216216216216217
 40
0.6486486486486487
 40
0.6486486486486487
 40
0.6486486486486487
 40
0.6756756756756757
 40
0.6756756756756757
 40
0.6756756756756757
 40
0.7027027027027027
 40
0.7027027027027027
 40
0.7027027027027027
 40
0.7297297297297298
 40
0.7297297297297298
 40
0.7297297297297298
 40
0.7567567567567568
 40
0.7567567567567568
 40
0.7567567567567568
 40
0.7837837837837838
 40
0.7837837837837838
 40
0.7837837837837838
 40
0.8108108108108109
 40
0.8108108108108109
 40
0.8108108108108109
 40
0.8378378378378379
 40
0.8378378378378379
 40
0.8378378378378379
 40
0.8648648648648649
 40
0.8648648648648649
 40
0.8648648648648649
 40
0.8918918918918919
 40
0.8918918918918919
 40
0.8918918918918919
 40
0.918918918918919
 40
0.918918918918919
 40
0.918918918918919
 40
0.945945945945946
 40
0.945945945945946
 40
0.945945945945946
 40
0.972972972972973
 40
0.972972972972973
 40
0.972972972972973
 40
1.0
 40
1.0
 40
1.0
 40
1.0
 10
-291.685
 20
589.9734
 30
0.0
 10
-297.0197
 20
529.7946
 30
0.0
 10
-287.1819
 20
468.959
 30
0.0
 10
-263.7894
 20
417.5715
 30
0.0
 10
-259.7527
 20
408.7078
 30
0.0
 10
-254.9034
 20
400.6044
 30
0.0
 10
-249.3543
 20
393.4576
 30
0.0
 10
-247.7705
 20
391.4149
 30
0.0
 10
-246.0212
 20
389.6256
 30
0.0
 10
-244.1439
 20
388.1207
 30
0.0
 10
-266.2197
 20
384.3974
 30
0.0
 10
-287.5431
 20
374.7839
 30
0.0
 10
-306.9327
 20
359.8077
 30
0.0
 10
-317.064
 20
351.9835
 30
0.0
 10
-325.3179
 20
340.2859
 30
0.0
 10
-330.6901
 20
326.1217
 30
0.0
 10
-325.4345
 20
329.152
 30
0.0
 10
-320.0472
 20
331.7429
 30
0.0
 10
-314.5621
 20
333.8683
 30
0.0
 10
-276.5766
 20
348.6014
 30
0.0
 10
-237.2932
 20
356.136
 30
0.0
 10
-197.8253
 20
356.2809
 30
0.0
 10
-178.9812
 20
355.9809
 30
0.0
 10
-160.201
 20
353.1781
 30
0.0
 10
-141.7519
 20
347.9033
 30
0.0
 10
-154.9191
 20
336.6039
 30
0.0
 10
-167.0028
 20
323.0913
 30
0.0
 10
-177.7322
 20
307.6704
 30
0.0
 10
-188.4315
 20
292.2959
 30
0.0
 10
-198.3747
 20
275.9649
 30
0.0
 10
-207.4976
 20
258.7754
 30
0.0
 10
-215.7328
 20
243.2665
 30
0.0
 10
-222.4593
 20
226.346
 30
0.0
 10
-227.5005
 20
208.4325
 30
0.0
 10
-232.5756
 20
190.4156
 30
0.0
 10
-234.9231
 20
171.1678
 30
0.0
 10
-234.3926
 20
151.8581
 30
0.0
 10
-229.6788
 20
161.8853
 30
0.0
 10
-223.9304
 20
170.9145
 30
0.0
 10
-217.3279
 20
178.6663
 30
0.0
 10
-210.6992
 20
186.2371
 30
0.0
 10
-203.3104
 20
192.4479
 30
0.0
 10
-195.3875
 20
197.1021
 30
0.0
 10
-201.0269
 20
189.102
 30
0.0
 10
-204.6385
 20
178.8214
 30
0.0
 10
-205.6805
 20
167.7755
 30
0.0
 10
-206.7114
 20
156.9208
 30
0.0
 10
-206.2561
 20
145.8956
 30
0.0
 10
-204.3413
 20
135.2685
 30
0.0
 10
-202.1932
 20
123.333
 30
0.0
 10
-196.2077
 20
113.4041
 30
0.0
 10
-188.0741
 20
108.2948
 30
0.0
 10
-180.9037
 20
103.7854
 30
0.0
 10
-172.7625
 20
103.1855
 30
0.0
 10
-165.2836
 20
106.6141
 30
0.0
 10
-158.019
 20
109.9444
 30
0.0
 10
-151.1908
 20
114.8417
 30
0.0
 10
-145.0437
 20
121.1197
 30
0.0
 10
-131.6507
 20
134.803
 30
0.0
 10
-125.0219
 20
157.6862
 30
0.0
 10
-127.9225
 20
180.2797
 30
0.0
 10
-130.7253
 20
202.0924
 30
0.0
 10
-140.0025
 20
221.3091
 30
0.0
 10
-153.5459
 20
233.3169
 30
0.0
 10
-157.5261
 20
236.8489
 30
0.0
 10
-161.5441
 20
240.3086
 30
0.0
 10
-165.5958
 20
243.6855
 30
0.0
 10
-169.6551
 20
247.0727
 30
0.0
 10
-173.91
 20
249.9841
 30
0.0
 10
-178.3228
 20
252.394
 30
0.0
 10
-175.1289
 20
256.6138
 30
0.0
 10
-171.8935
 20
260.7767
 30
0.0
 10
-168.6129
 20
264.8724
 30
0.0
 10
-165.2948
 20
269.0147
 30
0.0
 10
-162.0294
 20
273.2344
 30
0.0
 10
-158.8165
 20
277.5266
 30
0.0
 10
-149.2045
 20
290.7497
 30
0.0
 10
-139.8144
 20
304.2727
 30
0.0
 10
-130.6575
 20
318.0906
 30
0.0
 10
-121.053
 20
332.591
 30
0.0
 10
-107.2424
 20
340.4721
 30
0.0
 10
-92.9917
 20
339.6033
 30
0.0
 10
-71.5104
 20
338.2949
 30
0.0
 10
-50.3713
 20
331.6343
 30
0.0
 10
-30.6168
 20
319.9523
 30
0.0
 10
-10.9261
 20
308.3064
 30
0.0
 10
7.4741
 20
292.8907
 30
0.0
 10
24.0272
 20
274.1756
 30
0.0
 10
5.7285
 20
265.0275
 30
0.0
 10
-11.1443
 20
251.2149
 30
0.0
 10
-25.7073
 20
233.4462
 30
0.0
 10
-73.4704
 20
175.1912
 30
0.0
 10
-117.9605
 20
112.0751
 30
0.0
 10
-158.8165
 20
44.6202
 30
0.0
 10
-175.8135
 20
16.2141
 30
0.0
 10
-191.6819
 20
-13.4281
 30
0.0
 10
-206.3577
 20
-44.1871
 30
0.0
 10
-224.0281
 20
-19.1786
 30
0.0
 10
-240.7128
 20
7.1073
 30
0.0
 10
-256.3367
 20
34.5671
 30
0.0
 10
-287.4979
 20
89.3263
 30
0.0
 10
-315.228
 20
147.6279
 30
0.0
 10
-339.2263
 20
208.8306
 30
0.0
 10
-369.1384
 20
286.4472
 30
0.0
 10
-390.3489
 20
369.8608
 30
0.0
 10
-402.1317
 20
456.191
 30
0.0
 10
-408.1548
 20
500.3387
 30
0.0
 10
-408.6777
 20
545.5879
 30
0.0
 10
-403.6779
 20
589.9734
 30
0.0
 10
-403.6779
 20
589.9734
 30
0.0
 10
-291.685
 20
589.9734
 30
0.0
 10
-291.685
 20
589.9734
 30
0.0
  0
SPLINE
  5
6A
330
1F
100
AcDbEntity
  8
Layer 1
 62
   250
370
    20
100
AcDbSpline
210
0.0
220
0.0
230
1.0
 70
    11
 71
     3
 72
    29
 73
    25
 74
     0
 42
0.0000000001
 43
0.0000000001
 40
0.0
 40
0.0
 40
0.0
 40
0.0
 40
0.125
 40
0.125
 40
0.125
 40
0.25
 40
0.25
 40
0.25
 40
0.375
 40
0.375
 40
0.375
 40
0.5
 40
0.5
 40
0.5
 40
0.625
 40
0.625
 40
0.625
 40
0.75
 40
0.75
 40
0.75
 40
0.875
 40
0.875
 40
0.875
 40
1.0
 40
1.0
 40
1.0
 40
1.0
 10
-577.203
 20
589.9734
 30
0.0
 10
-563.8251
 20
514.0789
 30
0.0
 10
-533.0891
 20
446.138
 30
0.0
 10
-489.4755
 20
396.1053
 30
0.0
 10
-477.2901
 20
382.1324
 30
0.0
 10
-462.5466
 20
373.0515
 30
0.0
 10
-446.8513
 20
369.8659
 30
0.0
 10
-441.8854
 20
368.8575
 30
0.0
 10
-436.8216
 20
369.8039
 30
0.0
 10
-432.2357
 20
372.5964
 30
0.0
 10
-427.7175
 20
375.3476
 30
0.0
 10
-423.504
 20
378.9572
 30
0.0
 10
-419.7155
 20
383.3218
 30
0.0
 10
-425.148
 20
404.8449
 30
0.0
 10
-428.8311
 20
427.1281
 30
0.0
 10
-430.7008
 20
449.7631
 30
0.0
 10
-432.563
 20
472.3463
 30
0.0
 10
-433.3982
 20
495.0794
 30
0.0
 10
-433.195
 20
517.8075
 30
0.0
 10
-432.8452
 20
542.0662
 30
0.0
 10
-430.84
 20
566.2318
 30
0.0
 10
-427.2058
 20
589.9734
 30
0.0
 10
-427.2058
 20
589.9734
 30
0.0
 10
-577.203
 20
589.9734
 30
0.0
 10
-577.203
 20
589.9734
 30
0.0
  0
SPLINE
  5
6B
330
1F
100
AcDbEntity
  8
Layer 1
 62
   250
370
    20
100
AcDbSpline
210
0.0
220
0.0
230
1.0
 70
     8
 71
     3
 72
    35
 73
    31
 74
     0
 42
0.0000000001
 43
0.0000000001
 40
0.0
 40
0.0
 40
0.0
 40
0.0
 40
0.1
 40
0.1
 40
0.1
 40
0.2
 40
0.2
 40
0.2
 40
0.3
 40
0.3
 40
0.3
 40
0.4
 40
0.4
 40
0.4
 40
0.5
 40
0.5
 40
0.5
 40
0.6000000000000001
 40
0.6000000000000001
 40
0.6000000000000001
 40
0.7000000000000001
 40
0.7000000000000001
 40
0.7000000000000001
 40
0.8
 40
0.8
 40
0.8
 40
0.9
 40
0.9
 40
0.9
 40
1.0
 40
1.0
 40
1.0
 40
1.0
 10
-656.8421
 20
589.9734
 30
0.0
 10
-677.8909
 20
574.3715
 30
0.0
 10
-697.7056
 20
555.8219
 30
0.0
 10
-715.9705
 20
534.6039
 30
0.0
 10
-729.2543
 20
518.2883
 30
0.0
 10
-741.5562
 20
500.5352
 30
0.0
 10
-752.7634
 20
481.4995
 30
0.0
 10
-764.2828
 20
461.9363
 30
0.0
 10
-774.7338
 20
441.2303
 30
0.0
 10
-784.0374
 20
419.547
 30
0.0
 10
-808.3253
 20
419.6297
 30
0.0
 10
-831.9135
 20
430.8515
 30
0.0
 10
-851.0548
 20
451.4075
 30
0.0
 10
-854.6551
 20
455.2705
 30
0.0
 10
-857.8002
 20
459.8782
 30
0.0
 10
-860.381
 20
465.065
 30
0.0
 10
-852.8117
 20
470.4949
 30
0.0
 10
-845.9347
 20
477.5745
 30
0.0
 10
-840.0131
 20
486.0348
 30
0.0
 10
-834.1255
 20
494.4433
 30
0.0
 10
-828.6706
 20
503.4053
 30
0.0
 10
-823.682
 20
512.8533
 30
0.0
 10
-817.7794
 20
524.0389
 30
0.0
 10
-814.7358
 20
537.5826
 30
0.0
 10
-815.0217
 20
551.3953
 30
0.0
 10
-815.3039
 20
565.0838
 30
0.0
 10
-818.2609
 20
578.4051
 30
0.0
 10
-823.588
 20
589.9734
 30
0.0
 10
-823.588
 20
589.9734
 30
0.0
 10
-656.8383
 20
589.9734
 30
0.0
 10
-656.8383
 20
589.9734
 30
0.0
  0
SPLINE
  5
6C
330
1F
100
AcDbEntity
  8
Layer 1
 62
   250
370
    20
100
AcDbSpline
210
0.0
220
0.0
230
1.0
 70
     8
 71
     3
 72
    56
 73
    52
 74
     0
 42
0.0000000001
 43
0.0000000001
 40
0.0
 40
0.0
 40
0.0
 40
0.0
 40
0.0588235294117647
 40
0.0588235294117647
 40
0.0588235294117647
 40
0.1176470588235294
 40
0.1176470588235294
 40
0.1176470588235294
 40
0.1764705882352941
 40
0.1764705882352941
 40
0.1764705882352941
 40
0.2352941176470588
 40
0.2352941176470588
 40
0.2352941176470588
 40
0.2941176470588235
 40
0.2941176470588235
 40
0.2941176470588235
 40
0.3529411764705882
 40
0.3529411764705882
 40
0.3529411764705882
 40
0.4117647058823529
 40
0.4117647058823529
 40
0.4117647058823529
 40
0.4705882352941176
 40
0.4705882352941176
 40
0.4705882352941176
 40
0.5294117647058824
 40
0.5294117647058824
 40
0.5294117647058824
 40
0.5882352941176471
 40
0.5882352941176471
 40
0.5882352941176471
 40
0.6470588235294118
 40
0.6470588235294118
 40
0.6470588235294118
 40
0.7058823529411764
 40
0.7058823529411764
 40
0.7058823529411764
 40
0.7647058823529411
 40
0.7647058823529411
 40
0.7647058823529411
 40
0.8235294117647058
 40
0.8235294117647058
 40
0.8235294117647058
 40
0.8823529411764706
 40
0.8823529411764706
 40
0.8823529411764706
 40
0.9411764705882353
 40
0.9411764705882353
 40
0.9411764705882353
 40
1.0
 40
1.0
 40
1.0
 40
1.0
 10
-1011.2697
 20
589.9734
 30
0.0
 10
-1011.2697
 20
589.9734
 30
0.0
 10
-837.8387
 20
589.9734
 30
0.0
 10
-837.8387
 20
589.9734
 30
0.0
 10
-846.6494
 20
584.3676
 30
0.0
 10
-854.4332
 20
576.1246
 30
0.0
 10
-860.6255
 20
565.844
 30
0.0
 10
-866.8517
 20
555.5013
 30
0.0
 10
-870.9222
 20
543.0384
 30
0.0
 10
-872.397
 20
529.7687
 30
0.0
 10
-873.5444
 20
519.4364
 30
0.0
 10
-873.5482
 20
508.9231
 30
0.0
 10
-872.397
 20
498.5908
 30
0.0
 10
-878.958
 20
503.5449
 30
0.0
 10
-884.6651
 20
510.3814
 30
0.0
 10
-889.1381
 20
518.6348
 30
0.0
 10
-891.907
 20
523.8528
 30
0.0
 10
-894.1492
 20
529.567
 30
0.0
 10
-895.7895
 20
535.6175
 30
0.0
 10
-897.4297
 20
541.6577
 30
0.0
 10
-898.6373
 20
547.9046
 30
0.0
 10
-899.3973
 20
554.2653
 30
0.0
 10
-903.0578
 20
534.8884
 30
0.0
 10
-903.9719
 20
514.7305
 30
0.0
 10
-902.0984
 20
494.8829
 30
0.0
 10
-900.0857
 20
475.387
 30
0.0
 10
-895.4847
 20
456.5737
 30
0.0
 10
-888.5249
 20
439.3686
 30
0.0
 10
-881.5914
 20
422.2361
 30
0.0
 10
-873.1005
 20
406.3911
 30
0.0
 10
-863.2476
 20
392.2216
 30
0.0
 10
-856.4082
 20
382.3858
 30
0.0
 10
-848.5718
 20
373.972
 30
0.0
 10
-839.9756
 20
367.2338
 30
0.0
 10
-831.2551
 20
360.4024
 30
0.0
 10
-821.3382
 20
357.0255
 30
0.0
 10
-811.3086
 20
357.4806
 30
0.0
 10
-819.8673
 20
341.5116
 30
0.0
 10
-826.0785
 20
323.4067
 30
0.0
 10
-829.5923
 20
304.1642
 30
0.0
 10
-841.785
 20
237.4437
 30
0.0
 10
-847.2363
 20
168.7477
 30
0.0
 10
-845.7842
 20
99.9793
 30
0.0
 10
-860.9001
 20
129.2697
 30
0.0
 10
-875.1771
 20
159.3617
 30
0.0
 10
-888.5814
 20
190.1828
 30
0.0
 10
-918.1888
 20
258.2531
 30
0.0
 10
-944.4066
 20
329.0176
 30
0.0
 10
-967.0429
 20
401.9644
 30
0.0
 10
-985.3077
 20
462.9603
 30
0.0
 10
-1000.0965
 20
525.823
 30
0.0
 10
-1011.2659
 20
589.9734
 30
0.0
  0
SPLINE
  5
6D
330
1F
100
AcDbEntity
  8
Layer 1
 62
   250
370
    20
100
AcDbSpline
210
0.0
220
0.0
230
1.0
 70
    11
 71
     3
 72
    44
 73
    40
 74
     0
 42
0.0000000001
 43
0.0000000001
 40
0.0
 40
0.0
 40
0.0
 40
0.0
 40
0.0769230769230769
 40
0.0769230769230769
 40
0.0769230769230769
 40
0.1538461538461539
 40
0.1538461538461539
 40
0.1538461538461539
 40
0.2307692307692308
 40
0.2307692307692308
 40
0.2307692307692308
 40
0.3076923076923077
 40
0.3076923076923077
 40
0.3076923076923077
 40
0.3846153846153846
 40
0.3846153846153846
 40
0.3846153846153846
 40
0.4615384615384616
 40
0.4615384615384616
 40
0.4615384615384616
 40
0.5384615384615385
 40
0.5384615384615385
 40
0.5384615384615385
 40
0.6153846153846154
 40
0.6153846153846154
 40
0.6153846153846154
 40
0.6923076923076923
 40
0.6923076923076923
 40
0.6923076923076923
 40
0.7692307692307693
 40
0.7692307692307693
 40
0.7692307692307693
 40
0.8461538461538463
 40
0.8461538461538463
 40
0.8461538461538463
 40
0.9230769230769231
 40
0.9230769230769231
 40
0.9230769230769231
 40
1.0
 40
1.0
 40
1.0
 40
1.0
 10
1054.4372
 20
262.9487
 30
0.0
 10
1052.7368
 20
285.0147
 30
0.0
 10
1052.6013
 20
307.2566
 30
0.0
 10
1054.0309
 20
329.3537
 30
0.0
 10
1055.4718
 20
351.6525
 30
0.0
 10
1060.3587
 20
373.279
 30
0.0
 10
1068.3568
 20
392.7801
 30
0.0
 10
1071.8141
 20
376.506
 30
0.0
 10
1078.8191
 20
362.0934
 30
0.0
 10
1088.4312
 20
351.4767
 30
0.0
 10
1097.8777
 20
341.0461
 30
0.0
 10
1108.4228
 20
332.6531
 30
0.0
 10
1119.7052
 20
326.5819
 30
0.0
 10
1123.6817
 20
324.4461
 30
0.0
 10
1127.7899
 20
322.8172
 30
0.0
 10
1131.9845
 20
321.7157
 30
0.0
 10
1132.3307
 20
317.62
 30
0.0
 10
1132.6806
 20
313.5295
 30
0.0
 10
1133.0418
 20
309.4389
 30
0.0
 10
1133.3991
 20
305.3381
 30
0.0
 10
1133.7113
 20
301.2269
 30
0.0
 10
1133.9747
 20
297.1157
 30
0.0
 10
1134.5277
 20
287.497
 30
0.0
 10
1135.3704
 20
277.9197
 30
0.0
 10
1136.4991
 20
268.3993
 30
0.0
 10
1137.6427
 20
258.7289
 30
0.0
 10
1140.5658
 20
249.6273
 30
0.0
 10
1144.9938
 20
241.9427
 30
0.0
 10
1148.5753
 20
235.7319
 30
0.0
 10
1152.5367
 20
229.9556
 30
0.0
 10
1156.8405
 20
224.6808
 30
0.0
 10
1152.1944
 20
222.7001
 30
0.0
 10
1147.3451
 20
221.7435
 30
0.0
 10
1142.4808
 20
221.8572
 30
0.0
 10
1113.3887
 20
222.514
 30
0.0
 10
1085.0115
 20
234.4391
 30
0.0
 10
1060.6183
 20
256.2414
 30
0.0
 10
1058.4137
 20
258.2117
 30
0.0
 10
1056.3445
 20
260.4561
 30
0.0
 10
1054.4372
 20
262.9487
 30
0.0
  0
SPLINE
  5
6E
330
1F
100
AcDbEntity
  8
Layer 1
 62
   250
370
    20
100
AcDbSpline
210
0.0
220
0.0
230
1.0
 70
    11
 71
     3
 72
    29
 73
    25
 74
     0
 42
0.0000000001
 43
0.0000000001
 40
0.0
 40
0.0
 40
0.0
 40
0.0
 40
0.125
 40
0.125
 40
0.125
 40
0.25
 40
0.25
 40
0.25
 40
0.375
 40
0.375
 40
0.375
 40
0.5
 40
0.5
 40
0.5
 40
0.625
 40
0.625
 40
0.625
 40
0.75
 40
0.75
 40
0.75
 40
0.875
 40
0.875
 40
0.875
 40
1.0
 40
1.0
 40
1.0
 40
1.0
 10
1061.397
 20
176.8512
 30
0.0
 10
1070.2717
 20
150.3222
 30
0.0
 10
1080.5723
 20
124.7396
 30
0.0
 10
1092.2158
 20
100.3154
 30
0.0
 10
1107.1775
 20
70.001
 30
0.0
 10
1123.8962
 20
41.4088
 30
0.0
 10
1142.2098
 20
14.7971
 30
0.0
 10
1160.5085
 20
-11.7836
 30
0.0
 10
1179.7778
 20
-37.061
 30
0.0
 10
1199.95
 20
-60.9422
 30
0.0
 10
1199.95
 20
-60.9422
 30
0.0
 10
1199.95
 20
31.9866
 30
0.0
 10
1199.95
 20
31.9866
 30
0.0
 10
1199.95
 20
31.9866
 30
0.0
 10
1199.95
 20
124.9155
 30
0.0
 10
1199.95
 20
124.9155
 30
0.0
 10
1173.7849
 20
128.3027
 30
0.0
 10
1148.4774
 20
139.5968
 30
0.0
 10
1125.8562
 20
157.9758
 30
0.0
 10
1103.4381
 20
176.1892
 30
0.0
 10
1082.4947
 20
197.6347
 30
0.0
 10
1063.3872
 20
221.9503
 30
0.0
 10
1059.99
 20
207.3775
 30
0.0
 10
1059.3053
 20
191.879
 30
0.0
 10
1061.397
 20
176.8512
 30
0.0
  0
SPLINE
  5
6F
330
1F
100
AcDbEntity
  8
Layer 1
 62
   250
370
    20
100
AcDbSpline
210
0.0
220
0.0
230
1.0
 70
     8
 71
     3
 72
    98
 73
    94
 74
     0
 42
0.0000000001
 43
0.0000000001
 40
0.0
 40
0.0
 40
0.0
 40
0.0
 40
0.032258064516129
 40
0.032258064516129
 40
0.032258064516129
 40
0.0645161290322581
 40
0.0645161290322581
 40
0.0645161290322581
 40
0.0967741935483871
 40
0.0967741935483871
 40
0.0967741935483871
 40
0.1290322580645161
 40
0.1290322580645161
 40
0.1290322580645161
 40
0.1612903225806452
 40
0.1612903225806452
 40
0.1612903225806452
 40
0.1935483870967742
 40
0.1935483870967742
 40
0.1935483870967742
 40
0.2258064516129032
 40
0.2258064516129032
 40
0.2258064516129032
 40
0.2580645161290323
 40
0.2580645161290323
 40
0.2580645161290323
 40
0.2903225806451613
 40
0.2903225806451613
 40
0.2903225806451613
 40
0.3225806451612903
 40
0.3225806451612903
 40
0.3225806451612903
 40
0.3548387096774194
 40
0.3548387096774194
 40
0.3548387096774194
 40
0.3870967741935484
 40
0.3870967741935484
 40
0.3870967741935484
 40
0.4193548387096774
 40
0.4193548387096774
 40
0.4193548387096774
 40
0.4516129032258064
 40
0.4516129032258064
 40
0.4516129032258064
 40
0.4838709677419355
 40
0.4838709677419355
 40
0.4838709677419355
 40
0.5161290322580645
 40
0.5161290322580645
 40
0.5161290322580645
 40
0.5483870967741935
 40
0.5483870967741935
 40
0.5483870967741935
 40
0.5806451612903225
 40
0.5806451612903225
 40
0.5806451612903225
 40
0.6129032258064516
 40
0.6129032258064516
 40
0.6129032258064516
 40
0.6451612903225806
 40
0.6451612903225806
 40
0.6451612903225806
 40
0.6774193548387096
 40
0.6774193548387096
 40
0.6774193548387096
 40
0.7096774193548387
 40
0.7096774193548387
 40
0.7096774193548387
 40
0.7419354838709677
 40
0.7419354838709677
 40
0.7419354838709677
 40
0.7741935483870968
 40
0.7741935483870968
 40
0.7741935483870968
 40
0.8064516129032258
 40
0.8064516129032258
 40
0.8064516129032258
 40
0.8387096774193548
 40
0.8387096774193548
 40
0.8387096774193548
 40
0.8709677419354839
 40
0.8709677419354839
 40
0.8709677419354839
 40
0.9032258064516129
 40
0.9032258064516129
 40
0.9032258064516129
 40
0.9354838709677419
 40
0.9354838709677419
 40
0.9354838709677419
 40
0.967741935483871
 40
0.967741935483871
 40
0.967741935483871
 40
1.0
 40
1.0
 40
1.0
 40
1.0
 10
726.8632
 20
144.5148
 30
0.0
 10
712.9737
 20
156.5174
 30
0.0
 10
701.2698
 20
172.7503
 30
0.0
 10
692.666
 20
191.9514
 30
0.0
 10
684.16
 20
210.9302
 30
0.0
 10
676.6772
 20
230.7468
 30
0.0
 10
670.2855
 20
251.2304
 30
0.0
 10
678.3401
 20
269.7024
 30
0.0
 10
687.8806
 20
286.8816
 30
0.0
 10
698.7154
 20
302.4369
 30
0.0
 10
709.5276
 20
317.9561
 30
0.0
 10
720.8063
 20
332.8392
 30
0.0
 10
732.5251
 20
347.05
 30
0.0
 10
742.0243
 20
358.5718
 30
0.0
 10
752.5016
 20
368.48
 30
0.0
 10
763.7238
 20
376.5525
 30
0.0
 10
775.0778
 20
384.7232
 30
0.0
 10
787.7333
 20
388.8913
 30
0.0
 10
800.5507
 20
388.6896
 30
0.0
 10
812.6269
 20
382.0651
 30
0.0
 10
823.9545
 20
373.0877
 30
0.0
 10
834.176
 20
362.0314
 30
0.0
 10
844.3674
 20
351.0113
 30
0.0
 10
853.8102
 20
338.7449
 30
0.0
 10
862.3914
 20
325.3873
 30
0.0
 10
857.3992
 20
309.863
 30
0.0
 10
853.844
 20
293.5422
 30
0.0
 10
851.8163
 20
276.7975
 30
0.0
 10
849.796
 20
260.1199
 30
0.0
 10
848.2423
 20
243.339
 30
0.0
 10
847.1664
 20
226.4907
 30
0.0
 10
846.3011
 20
212.9315
 30
0.0
 10
847.9038
 20
199.2947
 30
0.0
 10
851.8351
 20
186.8059
 30
0.0
 10
855.8154
 20
174.1517
 30
0.0
 10
862.7752
 20
163.7159
 30
0.0
 10
871.6009
 20
157.1794
 30
0.0
 10
871.6988
 20
171.7367
 30
0.0
 10
873.5046
 20
186.1905
 30
0.0
 10
876.9431
 20
199.9618
 30
0.0
 10
880.3628
 20
213.6555
 30
0.0
 10
884.2678
 20
227.1113
 30
0.0
 10
888.6469
 20
240.2827
 30
0.0
 10
894.1282
 20
256.7638
 30
0.0
 10
903.5371
 20
270.1937
 30
0.0
 10
915.3086
 20
278.3489
 30
0.0
 10
927.0011
 20
286.4524
 30
0.0
 10
940.1871
 20
289.6017
 30
0.0
 10
953.1813
 20
287.4039
 30
0.0
 10
957.1578
 20
249.1929
 30
0.0
 10
965.7014
 20
212.161
 30
0.0
 10
978.4774
 20
177.7872
 30
0.0
 10
991.276
 20
143.3564
 30
0.0
 10
1008.5626
 20
112.468
 30
0.0
 10
1029.4947
 20
86.6424
 30
0.0
 10
1025.0592
 20
53.3804
 30
0.0
 10
1012.1479
 20
23.3556
 30
0.0
 10
993.0892
 20
1.9722
 30
0.0
 10
978.8913
 20
-13.9607
 30
0.0
 10
959.7461
 20
-18.8218
 30
0.0
 10
942.3391
 20
-10.9406
 30
0.0
 10
917.9872
 20
0.0898
 30
0.0
 10
893.5301
 20
10.6652
 30
0.0
 10
868.9675
 20
20.7803
 30
0.0
 10
844.262
 20
30.9575
 30
0.0
 10
820.8433
 20
46.3215
 30
0.0
 10
799.55
 20
66.3191
 30
0.0
 10
784.4303
 20
80.5247
 30
0.0
 10
769.8297
 20
95.7595
 30
0.0
 10
755.8122
 20
111.9612
 30
0.0
 10
757.7196
 20
114.2884
 30
0.0
 10
759.484
 20
116.8275
 30
0.0
 10
761.0904
 20
119.5476
 30
0.0
 10
784.9795
 20
160.0598
 30
0.0
 10
798.8088
 20
209.989
 30
0.0
 10
800.5507
 20
262.0799
 30
0.0
 10
800.9381
 20
273.6947
 30
0.0
 10
800.6297
 20
285.3302
 30
0.0
 10
799.6328
 20
296.8778
 30
0.0
 10
798.6357
 20
308.4357
 30
0.0
 10
796.736
 20
319.8126
 30
0.0
 10
793.9708
 20
330.812
 30
0.0
 10
790.743
 20
329.7985
 30
0.0
 10
787.6393
 20
328.1488
 30
0.0
 10
784.7537
 20
325.92
 30
0.0
 10
771.4211
 20
315.629
 30
0.0
 10
759.0815
 20
303.0937
 30
0.0
 10
748.0097
 20
288.6036
 30
0.0
 10
734.2556
 20
270.6023
 30
0.0
 10
726.9534
 20
245.2316
 30
0.0
 10
728.0331
 20
219.1681
 30
0.0
 10
729.0602
 20
194.2837
 30
0.0
 10
728.669
 20
169.3217
 30
0.0
 10
726.867
 20
144.52
 30
0.0
  0
SPLINE
  5
70
330
1F
100
AcDbEntity
  8
Layer 1
 62
   250
370
    20
100
AcDbSpline
210
0.0
220
0.0
230
1.0
 70
    11
 71
     3
 72
    17
 73
    13
 74
     0
 42
0.0000000001
 43
0.0000000001
 40
0.0
 40
0.0
 40
0.0
 40
0.0
 40
0.25
 40
0.25
 40
0.25
 40
0.5
 40
0.5
 40
0.5
 40
0.75
 40
0.75
 40
0.75
 40
1.0
 40
1.0
 40
1.0
 40
1.0
 10
1199.95
 20
-302.7176
 30
0.0
 10
1199.95
 20
-302.7176
 30
0.0
 10
1199.95
 20
-590.0265
 30
0.0
 10
1199.95
 20
-590.0265
 30
0.0
 10
1199.95
 20
-590.0265
 30
0.0
 10
1121.763
 20
-590.0265
 30
0.0
 10
1121.763
 20
-590.0265
 30
0.0
 10
1117.4442
 20
-537.1392
 30
0.0
 10
1122.7412
 20
-483.5797
 30
0.0
 10
1137.1574
 20
-434.1884
 30
0.0
 10
1151.5021
 20
-385.0555
 30
0.0
 10
1172.8556
 20
-340.3442
 30
0.0
 10
1199.95
 20
-302.7176
 30
0.0
  0
SPLINE
  5
71
330
1F
100
AcDbEntity
  8
Layer 1
 62
   250
370
    20
100
AcDbSpline
210
0.0
220
0.0
230
1.0
 70
    11
 71
     3
 72
    29
 73
    25
 74
     0
 42
0.0000000001
 43
0.0000000001
 40
0.0
 40
0.0
 40
0.0
 40
0.0
 40
0.125
 40
0.125
 40
0.125
 40
0.25
 40
0.25
 40
0.25
 40
0.375
 40
0.375
 40
0.375
 40
0.5
 40
0.5
 40
0.5
 40
0.625
 40
0.625
 40
0.625
 40
0.75
 40
0.75
 40
0.75
 40
0.875
 40
0.875
 40
0.875
 40
1.0
 40
1.0
 40
1.0
 40
1.0
 10
1102.3057
 20
-590.0265
 30
0.0
 10
1102.3057
 20
-590.0265
 30
0.0
 10
968.0715
 20
-590.0265
 30
0.0
 10
968.0715
 20
-590.0265
 30
0.0
 10
953.1362
 20
-559.4691
 30
0.0
 10
947.6059
 20
-521.9976
 30
0.0
 10
952.6847
 20
-485.85
 30
0.0
 10
957.6318
 20
-450.628
 30
0.0
 10
968.2671
 20
-417.366
 30
0.0
 10
983.7932
 20
-388.5307
 30
0.0
 10
984.5268
 20
-388.298
 30
0.0
 10
985.2604
 20
-388.0963
 30
0.0
 10
985.9978
 20
-387.9153
 30
0.0
 10
1024.2466
 20
-378.6224
 30
0.0
 10
1063.6731
 20
-388.5255
 30
0.0
 10
1097.0689
 20
-415.7888
 30
0.0
 10
1102.7721
 20
-420.443
 30
0.0
 10
1108.1669
 20
-425.7849
 30
0.0
 10
1113.1894
 20
-431.7526
 30
0.0
 10
1104.4425
 20
-456.0579
 30
0.0
 10
1099.582
 20
-482.6437
 30
0.0
 10
1098.9311
 20
-509.7416
 30
0.0
 10
1098.2878
 20
-536.5911
 30
0.0
 10
1099.4164
 20
-563.4613
 30
0.0
 10
1102.3057
 20
-590.0265
 30
0.0
  0
SPLINE
  5
72
330
1F
100
AcDbEntity
  8
Layer 1
 62
   250
370
    20
100
AcDbSpline
210
0.0
220
0.0
230
1.0
 70
    11
 71
     3
 72
    26
 73
    22
 74
     0
 42
0.0000000001
 43
0.0000000001
 40
0.0
 40
0.0
 40
0.0
 40
0.0
 40
0.1428571428571428
 40
0.1428571428571428
 40
0.1428571428571428
 40
0.2857142857142857
 40
0.2857142857142857
 40
0.2857142857142857
 40
0.4285714285714285
 40
0.4285714285714285
 40
0.4285714285714285
 40
0.5714285714285714
 40
0.5714285714285714
 40
0.5714285714285714
 40
0.7142857142857142
 40
0.7142857142857142
 40
0.7142857142857142
 40
0.8571428571428571
 40
0.8571428571428571
 40
0.8571428571428571
 40
1.0
 40
1.0
 40
1.0
 40
1.0
 10
942.6776
 20
-590.0265
 30
0.0
 10
942.6776
 20
-590.0265
 30
0.0
 10
757.6557
 20
-590.0265
 30
0.0
 10
757.6557
 20
-590.0265
 30
0.0
 10
768.528
 20
-535.9964
 30
0.0
 10
792.4096
 20
-488.596
 30
0.0
 10
825.369
 20
-455.5873
 30
0.0
 10
857.8807
 20
-423.0287
 30
0.0
 10
895.6443
 20
-401.7331
 30
0.0
 10
935.4206
 20
-393.5158
 30
0.0
 10
931.0416
 20
-399.7059
 30
0.0
 10
927.6331
 20
-407.0544
 30
0.0
 10
925.3985
 20
-415.1216
 30
0.0
 10
914.1762
 20
-455.6701
 30
0.0
 10
913.4426
 20
-500.2625
 30
0.0
 10
923.3294
 20
-541.4625
 30
0.0
 10
925.4473
 20
-550.29
 30
0.0
 10
928.0771
 20
-558.864
 30
0.0
 10
931.1883
 20
-567.1123
 30
0.0
 10
934.3108
 20
-575.3761
 30
0.0
 10
938.1706
 20
-583.0762
 30
0.0
 10
942.6776
 20
-590.0265
 30
0.0
  0
SPLINE
  5
73
330
1F
100
AcDbEntity
  8
Layer 1
 62
   250
370
    20
100
AcDbSpline
210
0.0
220
0.0
230
1.0
 70
    11
 71
     3
 72
    38
 73
    34
 74
     0
 42
0.0000000001
 43
0.0000000001
 40
0.0
 40
0.0
 40
0.0
 40
0.0
 40
0.0909090909090909
 40
0.0909090909090909
 40
0.0909090909090909
 40
0.1818181818181818
 40
0.1818181818181818
 40
0.1818181818181818
 40
0.2727272727272727
 40
0.2727272727272727
 40
0.2727272727272727
 40
0.3636363636363636
 40
0.3636363636363636
 40
0.3636363636363636
 40
0.4545454545454546
 40
0.4545454545454546
 40
0.4545454545454546
 40
0.5454545454545454
 40
0.5454545454545454
 40
0.5454545454545454
 40
0.6363636363636364
 40
0.6363636363636364
 40
0.6363636363636364
 40
0.7272727272727273
 40
0.7272727272727273
 40
0.7272727272727273
 40
0.8181818181818182
 40
0.8181818181818182
 40
0.8181818181818182
 40
0.9090909090909092
 40
0.9090909090909092
 40
0.9090909090909092
 40
1.0
 40
1.0
 40
1.0
 40
1.0
 10
732.3257
 20
-590.0265
 30
0.0
 10
732.3257
 20
-590.0265
 30
0.0
 10
677.772
 20
-590.0265
 30
0.0
 10
677.772
 20
-590.0265
 30
0.0
 10
675.511
 20
-579.1046
 30
0.0
 10
674.1491
 20
-567.8725
 30
0.0
 10
673.709
 20
-556.5317
 30
0.0
 10
672.2456
 20
-518.8586
 30
0.0
 10
673.8745
 20
-481.0717
 30
0.0
 10
678.5583
 20
-443.8949
 30
0.0
 10
682.704
 20
-410.9742
 30
0.0
 10
694.5922
 20
-380.8099
 30
0.0
 10
712.383
 20
-358.0405
 30
0.0
 10
717.0856
 20
-352.0211
 30
0.0
 10
722.597
 20
-347.3255
 30
0.0
 10
728.6087
 20
-344.2175
 30
0.0
 10
738.5594
 20
-354.7153
 30
0.0
 10
748.8411
 20
-364.6081
 30
0.0
 10
759.4238
 20
-373.8596
 30
0.0
 10
775.3975
 20
-387.6671
 30
0.0
 10
791.8491
 20
-400.3885
 30
0.0
 10
808.7256
 20
-411.9826
 30
0.0
 10
790.5398
 20
-424.1094
 30
0.0
 10
776.1236
 20
-444.7793
 30
0.0
 10
768.0879
 20
-470.2739
 30
0.0
 10
762.4523
 20
-488.1564
 30
0.0
 10
756.9973
 20
-506.1371
 30
0.0
 10
751.7228
 20
-524.2264
 30
0.0
 10
748.416
 20
-535.1897
 30
0.0
 10
745.0941
 20
-546.1425
 30
0.0
 10
741.7572
 20
-557.0903
 30
0.0
 10
738.439
 20
-567.9707
 30
0.0
 10
735.294
 20
-578.9546
 30
0.0
 10
732.3257
 20
-590.0265
 30
0.0
  0
SPLINE
  5
74
330
1F
100
AcDbEntity
  8
Layer 1
 62
   250
370
    20
100
AcDbSpline
210
0.0
220
0.0
230
1.0
 70
    11
 71
     3
 72
   116
 73
   112
 74
     0
 42
0.0000000001
 43
0.0000000001
 40
0.0
 40
0.0
 40
0.0
 40
0.0
 40
0.027027027027027
 40
0.027027027027027
 40
0.027027027027027
 40
0.0540540540540541
 40
0.0540540540540541
 40
0.0540540540540541
 40
0.0810810810810811
 40
0.0810810810810811
 40
0.0810810810810811
 40
0.1081081081081081
 40
0.1081081081081081
 40
0.1081081081081081
 40
0.1351351351351351
 40
0.1351351351351351
 40
0.1351351351351351
 40
0.1621621621621622
 40
0.1621621621621622
 40
0.1621621621621622
 40
0.1891891891891892
 40
0.1891891891891892
 40
0.1891891891891892
 40
0.2162162162162162
 40
0.2162162162162162
 40
0.2162162162162162
 40
0.2432432432432433
 40
0.2432432432432433
 40
0.2432432432432433
 40
0.2702702702702703
 40
0.2702702702702703
 40
0.2702702702702703
 40
0.2972972972972973
 40
0.2972972972972973
 40
0.2972972972972973
 40
0.3243243243243243
 40
0.3243243243243243
 40
0.3243243243243243
 40
0.3513513513513514
 40
0.3513513513513514
 40
0.3513513513513514
 40
0.3783783783783784
 40
0.3783783783783784
 40
0.3783783783783784
 40
0.4054054054054054
 40
0.4054054054054054
 40
0.4054054054054054
 40
0.4324324324324325
 40
0.4324324324324325
 40
0.4324324324324325
 40
0.4594594594594595
 40
0.4594594594594595
 40
0.4594594594594595
 40
0.4864864864864865
 40
0.4864864864864865
 40
0.4864864864864865
 40
0.5135135135135136
 40
0.5135135135135136
 40
0.5135135135135136
 40
0.5405405405405406
 40
0.5405405405405406
 40
0.5405405405405406
 40
0.5675675675675675
 40
0.5675675675675675
 40
0.5675675675675675
 40
0.5945945945945946
 40
0.5945945945945946
 40
0.5945945945945946
 40
0.6216216216216217
 40
0.6216216216216217
 40
0.6216216216216217
 40
0.6486486486486487
 40
0.6486486486486487
 40
0.6486486486486487
 40
0.6756756756756757
 40
0.6756756756756757
 40
0.6756756756756757
 40
0.7027027027027027
 40
0.7027027027027027
 40
0.7027027027027027
 40
0.7297297297297298
 40
0.7297297297297298
 40
0.7297297297297298
 40
0.7567567567567568
 40
0.7567567567567568
 40
0.7567567567567568
 40
0.7837837837837838
 40
0.7837837837837838
 40
0.7837837837837838
 40
0.8108108108108109
 40
0.8108108108108109
 40
0.8108108108108109
 40
0.8378378378378379
 40
0.8378378378378379
 40
0.8378378378378379
 40
0.8648648648648649
 40
0.8648648648648649
 40
0.8648648648648649
 40
0.8918918918918919
 40
0.8918918918918919
 40
0.8918918918918919
 40
0.918918918918919
 40
0.918918918918919
 40
0.918918918918919
 40
0.945945945945946
 40
0.945945945945946
 40
0.945945945945946
 40
0.972972972972973
 40
0.972972972972973
 40
0.972972972972973
 40
1.0
 40
1.0
 40
1.0
 40
1.0
 10
779.3138
 20
-250.001
 30
0.0
 10
781.0857
 20
-243.3455
 30
0.0
 10
783.422
 20
-236.9951
 30
0.0
 10
786.2661
 20
-231.0843
 30
0.0
 10
804.1058
 20
-194.0317
 30
0.0
 10
824.9213
 20
-159.8388
 30
0.0
 10
848.31
 20
-129.1624
 30
0.0
 10
870.0661
 20
-100.6271
 30
0.0
 10
899.0226
 20
-84.751
 30
0.0
 10
929.0928
 20
-84.8493
 30
0.0
 10
962.8009
 20
-84.9579
 30
0.0
 10
995.6737
 20
-70.6023
 30
0.0
 10
1023.1519
 20
-43.7579
 30
0.0
 10
1036.9323
 20
-30.2969
 30
0.0
 10
1049.9867
 20
-15.4811
 30
0.0
 10
1062.2096
 20
0.5811
 30
0.0
 10
1074.4137
 20
-28.4559
 30
0.0
 10
1087.8857
 20
-56.4484
 30
0.0
 10
1102.5615
 20
-83.2411
 30
0.0
 10
1113.9831
 20
-103.9109
 30
0.0
 10
1126.2587
 20
-123.6602
 30
0.0
 10
1139.3243
 20
-142.4011
 30
0.0
 10
1093.7808
 20
-117.8528
 30
0.0
 10
1045.3857
 20
-104.8882
 30
0.0
 10
996.4675
 20
-104.1488
 30
0.0
 10
995.9634
 20
-104.1384
 30
0.0
 10
995.4593
 20
-104.1539
 30
0.0
 10
994.9552
 20
-104.1901
 30
0.0
 10
969.2077
 20
-106.5586
 30
0.0
 10
943.9981
 20
-115.324
 30
0.0
 10
920.5304
 20
-130.0778
 30
0.0
 10
922.3474
 20
-134.5044
 30
0.0
 10
924.4843
 20
-138.6622
 30
0.0
 10
926.9146
 20
-142.489
 30
0.0
 10
952.8164
 20
-183.2753
 30
0.0
 10
989.6884
 20
-207.7305
 30
0.0
 10
1029.032
 20
-210.1973
 30
0.0
 10
1048.4442
 20
-211.4125
 30
0.0
 10
1067.8452
 20
-207.6478
 30
0.0
 10
1086.253
 20
-199.0789
 30
0.0
 10
1104.5517
 20
-190.5669
 30
0.0
 10
1122.1619
 20
-179.5054
 30
0.0
 10
1138.8202
 20
-166.0651
 30
0.0
 10
1142.4808
 20
-163.1123
 30
0.0
 10
1145.9493
 20
-159.7302
 30
0.0
 10
1149.1885
 20
-155.9603
 30
0.0
 10
1151.1711
 20
-168.3922
 30
0.0
 10
1155.2341
 20
-180.0173
 30
0.0
 10
1161.054
 20
-189.9153
 30
0.0
 10
1166.9153
 20
-199.8856
 30
0.0
 10
1174.7442
 20
-207.322
 30
0.0
 10
1183.6038
 20
-211.3246
 30
0.0
 10
1166.6256
 20
-234.3888
 30
0.0
 10
1153.0409
 20
-261.7193
 30
0.0
 10
1143.583
 20
-291.8423
 30
0.0
 10
1134.1741
 20
-321.7998
 30
0.0
 10
1127.519
 20
-353.2518
 30
0.0
 10
1123.7757
 20
-385.4744
 30
0.0
 10
1120.2695
 20
-379.636
 30
0.0
 10
1116.2215
 20
-374.4543
 30
0.0
 10
1111.7372
 20
-370.0587
 30
0.0
 10
1084.94
 20
-343.8142
 30
0.0
 10
1052.8609
 20
-329.7533
 30
0.0
 10
1019.9617
 20
-329.8464
 30
0.0
 10
1007.3249
 20
-330.0222
 30
0.0
 10
994.6881
 20
-329.8412
 30
0.0
 10
982.0551
 20
-329.293
 30
0.0
 10
973.0601
 20
-328.9104
 30
0.0
 10
964.806
 20
-322.2859
 30
0.0
 10
960.1336
 20
-311.7053
 30
0.0
 10
958.1058
 20
-307.1184
 30
0.0
 10
957.1803
 20
-301.7609
 30
0.0
 10
957.4851
 20
-296.4085
 30
0.0
 10
958.9448
 20
-270.676
 30
0.0
 10
953.7982
 20
-245.0727
 30
0.0
 10
942.9259
 20
-224.0306
 30
0.0
 10
927.3359
 20
-193.8662
 30
0.0
 10
904.0901
 20
-172.8654
 30
0.0
 10
877.7595
 20
-165.1756
 30
0.0
 10
864.4644
 20
-161.2972
 30
0.0
 10
850.62
 20
-163.4587
 30
0.0
 10
838.3029
 20
-171.3502
 30
0.0
 10
834.872
 20
-187.9502
 30
0.0
 10
835.1015
 20
-205.5638
 30
0.0
 10
838.9613
 20
-221.9827
 30
0.0
 10
842.761
 20
-238.1535
 30
0.0
 10
848.4718
 20
-253.352
 30
0.0
 10
855.868
 20
-266.9733
 30
0.0
 10
868.7757
 20
-290.7408
 30
0.0
 10
888.7109
 20
-305.3446
 30
0.0
 10
910.2599
 20
-306.7874
 30
0.0
 10
921.6778
 20
-307.5579
 30
0.0
 10
933.0016
 20
-310.0557
 30
0.0
 10
944.0244
 20
-314.2341
 30
0.0
 10
947.7488
 20
-315.6459
 30
0.0
 10
950.5516
 20
-319.8916
 30
0.0
 10
951.2137
 20
-325.1249
 30
0.0
 10
951.5786
 20
-328.0519
 30
0.0
 10
951.2137
 20
-331.0669
 30
0.0
 10
950.1754
 20
-333.668
 30
0.0
 10
925.6242
 20
-345.5052
 30
0.0
 10
898.417
 20
-340.4683
 30
0.0
 10
877.0033
 20
-320.1553
 30
0.0
 10
861.1387
 20
-305.1016
 30
0.0
 10
844.7699
 20
-291.0821
 30
0.0
 10
827.946
 20
-278.1383
 30
0.0
 10
820.2526
 20
-272.2222
 30
0.0
 10
812.2959
 20
-266.9992
 30
0.0
 10
804.1133
 20
-262.4898
 30
0.0
 10
795.9384
 20
-257.9856
 30
0.0
 10
787.6694
 20
-253.8226
 30
0.0
 10
779.3138
 20
-250.001
 30
0.0
  0
SPLINE
  5
75
330
1F
100
AcDbEntity
  8
Layer 1
 62
   250
370
    20
100
AcDbSpline
210
0.0
220
0.0
230
1.0
 70
    11
 71
     3
 72
    65
 73
    61
 74
     0
 42
0.0000000001
 43
0.0000000001
 40
0.0
 40
0.0
 40
0.0
 40
0.0
 40
0.05
 40
0.05
 40
0.05
 40
0.1
 40
0.1
 40
0.1
 40
0.15
 40
0.15
 40
0.15
 40
0.2
 40
0.2
 40
0.2
 40
0.25
 40
0.25
 40
0.25
 40
0.3
 40
0.3
 40
0.3
 40
0.35
 40
0.35
 40
0.35
 40
0.4
 40
0.4
 40
0.4
 40
0.45
 40
0.45
 40
0.45
 40
0.5
 40
0.5
 40
0.5
 40
0.55
 40
0.55
 40
0.55
 40
0.6000000000000001
 40
0.6000000000000001
 40
0.6000000000000001
 40
0.65
 40
0.65
 40
0.65
 40
0.7000000000000001
 40
0.7000000000000001
 40
0.7000000000000001
 40
0.75
 40
0.75
 40
0.75
 40
0.8
 40
0.8
 40
0.8
 40
0.8500000000000001
 40
0.8500000000000001
 40
0.8500000000000001
 40
0.9
 40
0.9
 40
0.9
 40
0.9500000000000001
 40
0.9500000000000001
 40
0.9500000000000001
 40
1.0
 40
1.0
 40
1.0
 40
1.0
 10
764.2994
 20
-242.4509
 30
0.0
 10
739.6353
 20
-220.54
 30
0.0
 10
715.7274
 20
-197.0672
 30
0.0
 10
692.651
 20
-172.1001
 30
0.0
 10
645.3468
 20
-119.8231
 30
0.0
 10
600.2096
 20
-63.9261
 30
0.0
 10
557.4687
 20
-4.6885
 30
0.0
 10
564.6016
 20
39.7902
 30
0.0
 10
576.723
 20
82.4847
 30
0.0
 10
593.3889
 20
121.8489
 30
0.0
 10
610.0023
 20
161.0889
 30
0.0
 10
629.5913
 20
197.8157
 30
0.0
 10
651.8138
 20
231.4035
 30
0.0
 10
664.0405
 20
196.0058
 30
0.0
 10
680.0518
 20
163.3333
 30
0.0
 10
699.3286
 20
134.4617
 30
0.0
 10
718.5114
 20
105.7194
 30
0.0
 10
738.9996
 20
78.6837
 30
0.0
 10
760.6728
 20
53.5045
 30
0.0
 10
734.2105
 20
30.4455
 30
0.0
 10
714.9299
 20
-5.2728
 30
0.0
 10
706.5669
 20
-46.7728
 30
0.0
 10
698.1962
 20
-88.3193
 30
0.0
 10
701.5295
 20
-132.6532
 30
0.0
 10
715.9193
 20
-170.9572
 30
0.0
 10
731.6184
 20
-149.2686
 30
0.0
 10
746.2377
 20
-126.1527
 30
0.0
 10
759.6721
 20
-101.7596
 30
0.0
 10
773.4225
 20
-76.7976
 30
0.0
 10
781.161
 20
-46.5763
 30
0.0
 10
781.8118
 20
-15.2742
 30
0.0
 10
782.2107
 20
3.8597
 30
0.0
 10
781.2062
 20
22.9988
 30
0.0
 10
778.8135
 20
41.8638
 30
0.0
 10
787.6468
 20
24.1468
 30
0.0
 10
799.9224
 20
10.2101
 30
0.0
 10
814.2483
 20
1.6412
 30
0.0
 10
845.2026
 20
-16.8721
 30
0.0
 10
877.5224
 20
-30.7055
 30
0.0
 10
910.655
 20
-39.6053
 30
0.0
 10
895.3396
 20
-49.5188
 30
0.0
 10
878.1921
 20
-52.8388
 30
0.0
 10
861.481
 20
-49.1309
 30
0.0
 10
845.0709
 20
-45.4852
 30
0.0
 10
829.0746
 20
-38.9279
 30
0.0
 10
813.8909
 20
-29.6298
 30
0.0
 10
818.7929
 20
-46.5298
 30
0.0
 10
827.9911
 20
-60.3889
 30
0.0
 10
839.7853
 20
-68.6372
 30
0.0
 10
851.3121
 20
-76.6993
 30
0.0
 10
863.8888
 20
-81.5242
 30
0.0
 10
876.7888
 20
-82.8325
 30
0.0
 10
852.1474
 20
-82.274
 30
0.0
 10
828.9279
 20
-98.5275
 30
0.0
 10
814.7863
 20
-126.2666
 30
0.0
 10
801.4611
 20
-152.3869
 30
0.0
 10
788.9296
 20
-179.2468
 30
0.0
 10
777.2221
 20
-206.7894
 30
0.0
 10
772.3428
 20
-218.2697
 30
0.0
 10
768.0239
 20
-230.1793
 30
0.0
 10
764.2994
 20
-242.4509
 30
0.0
  0
SPLINE
  5
76
330
1F
100
AcDbEntity
  8
Layer 1
 62
   250
370
    20
100
AcDbSpline
210
0.0
220
0.0
230
1.0
 70
    11
 71
     3
 72
    41
 73
    37
 74
     0
 42
0.0000000001
 43
0.0000000001
 40
0.0
 40
0.0
 40
0.0
 40
0.0
 40
0.0833333333333333
 40
0.0833333333333333
 40
0.0833333333333333
 40
0.1666666666666667
 40
0.1666666666666667
 40
0.1666666666666667
 40
0.25
 40
0.25
 40
0.25
 40
0.3333333333333333
 40
0.3333333333333333
 40
0.3333333333333333
 40
0.4166666666666666
 40
0.4166666666666666
 40
0.4166666666666666
 40
0.5
 40
0.5
 40
0.5
 40
0.5833333333333333
 40
0.5833333333333333
 40
0.5833333333333333
 40
0.6666666666666666
 40
0.6666666666666666
 40
0.6666666666666666
 40
0.75
 40
0.75
 40
0.75
 40
0.8333333333333333
 40
0.8333333333333333
 40
0.8333333333333333
 40
0.9166666666666666
 40
0.9166666666666666
 40
0.9166666666666666
 40
1.0
 40
1.0
 40
1.0
 40
1.0
 10
574.24
 20
173.3243
 30
0.0
 10
575.9255
 20
199.4705
 30
0.0
 10
579.3226
 20
225.3582
 30
0.0
 10
584.3938
 20
250.6616
 30
0.0
 10
589.4614
 20
275.9287
 30
0.0
 10
595.3414
 20
300.8752
 30
0.0
 10
602.0266
 20
325.4183
 30
0.0
 10
615.4648
 20
374.7891
 30
0.0
 10
637.6948
 20
418.7609
 30
0.0
 10
666.6626
 20
453.3002
 30
0.0
 10
695.3258
 20
487.4724
 30
0.0
 10
727.3183
 20
515.9923
 30
0.0
 10
761.7037
 20
538.0377
 30
0.0
 10
763.4944
 20
531.5942
 30
0.0
 10
765.2099
 20
525.1094
 30
0.0
 10
766.8501
 20
518.5883
 30
0.0
 10
772.1208
 20
497.2204
 30
0.0
 10
777.0566
 20
475.6921
 30
0.0
 10
781.6463
 20
454.0294
 30
0.0
 10
778.3094
 20
451.8626
 30
0.0
 10
774.9837
 20
449.6648
 30
0.0
 10
771.6655
 20
447.4359
 30
0.0
 10
768.3474
 20
445.2071
 30
0.0
 10
765.0255
 20
442.9834
 30
0.0
 10
761.7037
 20
440.7649
 30
0.0
 10
744.1122
 20
429.1501
 30
0.0
 10
726.6675
 20
417.1112
 30
0.0
 10
709.3847
 20
404.6535
 30
0.0
 10
691.9851
 20
392.1079
 30
0.0
 10
676.2182
 20
375.6992
 30
0.0
 10
662.7125
 20
356.0792
 30
0.0
 10
653.4916
 20
342.6855
 30
0.0
 10
644.7524
 20
328.6815
 30
0.0
 10
636.521
 20
314.119
 30
0.0
 10
611.9322
 20
270.5919
 30
0.0
 10
591.0414
 20
223.3621
 30
0.0
 10
574.24
 20
173.3243
 30
0.0
  0
SPLINE
  5
77
330
1F
100
AcDbEntity
  8
Layer 1
 62
   250
370
    20
100
AcDbSpline
210
0.0
220
0.0
230
1.0
 70
    11
 71
     3
 72
    35
 73
    31
 74
     0
 42
0.0000000001
 43
0.0000000001
 40
0.0
 40
0.0
 40
0.0
 40
0.0
 40
0.1
 40
0.1
 40
0.1
 40
0.2
 40
0.2
 40
0.2
 40
0.3
 40
0.3
 40
0.3
 40
0.4
 40
0.4
 40
0.4
 40
0.5
 40
0.5
 40
0.5
 40
0.6000000000000001
 40
0.6000000000000001
 40
0.6000000000000001
 40
0.7000000000000001
 40
0.7000000000000001
 40
0.7000000000000001
 40
0.8
 40
0.8
 40
0.8
 40
0.9
 40
0.9
 40
0.9
 40
1.0
 40
1.0
 40
1.0
 40
1.0
 10
510.5935
 20
-256.067
 30
0.0
 10
516.5075
 20
-257.4218
 30
0.0
 10
522.5756
 20
-256.6668
 30
0.0
 10
528.215
 20
-253.864
 30
0.0
 10
533.7829
 20
-251.0973
 30
0.0
 10
539.0949
 20
-247.4619
 30
0.0
 10
544.0571
 20
-243.0197
 30
0.0
 10
553.2177
 20
-234.8128
 30
0.0
 10
559.7449
 20
-222.1068
 30
0.0
 10
562.2917
 20
-207.4875
 30
0.0
 10
564.7823
 20
-193.2042
 30
0.0
 10
564.88
 20
-178.3419
 30
0.0
 10
562.574
 20
-164.0017
 30
0.0
 10
569.086
 20
-175.0167
 30
0.0
 10
576.2264
 20
-185.2973
 30
0.0
 10
583.9274
 20
-194.7556
 30
0.0
 10
615.145
 20
-233.1063
 30
0.0
 10
648.0742
 20
-268.7264
 30
0.0
 10
682.5348
 20
-301.4144
 30
0.0
 10
671.9258
 20
-310.0195
 30
0.0
 10
660.7976
 20
-317.3421
 30
0.0
 10
649.2669
 20
-323.2994
 30
0.0
 10
638.4058
 20
-328.9104
 30
0.0
 10
627.5523
 20
-334.5523
 30
0.0
 10
616.7024
 20
-340.2149
 30
0.0
 10
599.8747
 20
-349.0114
 30
0.0
 10
580.9553
 20
-345.7327
 30
0.0
 10
566.2344
 20
-331.4909
 30
0.0
 10
544.7907
 20
-310.7435
 30
0.0
 10
525.9879
 20
-285.2488
 30
0.0
 10
510.5935
 20
-256.067
 30
0.0
  0
SPLINE
  5
78
330
1F
100
AcDbEntity
  8
Layer 1
 62
   250
370
    20
100
AcDbSpline
210
0.0
220
0.0
230
1.0
 70
    11
 71
     3
 72
   116
 73
   112
 74
     0
 42
0.0000000001
 43
0.0000000001
 40
0.0
 40
0.0
 40
0.0
 40
0.0
 40
0.027027027027027
 40
0.027027027027027
 40
0.027027027027027
 40
0.0540540540540541
 40
0.0540540540540541
 40
0.0540540540540541
 40
0.0810810810810811
 40
0.0810810810810811
 40
0.0810810810810811
 40
0.1081081081081081
 40
0.1081081081081081
 40
0.1081081081081081
 40
0.1351351351351351
 40
0.1351351351351351
 40
0.1351351351351351
 40
0.1621621621621622
 40
0.1621621621621622
 40
0.1621621621621622
 40
0.1891891891891892
 40
0.1891891891891892
 40
0.1891891891891892
 40
0.2162162162162162
 40
0.2162162162162162
 40
0.2162162162162162
 40
0.2432432432432433
 40
0.2432432432432433
 40
0.2432432432432433
 40
0.2702702702702703
 40
0.2702702702702703
 40
0.2702702702702703
 40
0.2972972972972973
 40
0.2972972972972973
 40
0.2972972972972973
 40
0.3243243243243243
 40
0.3243243243243243
 40
0.3243243243243243
 40
0.3513513513513514
 40
0.3513513513513514
 40
0.3513513513513514
 40
0.3783783783783784
 40
0.3783783783783784
 40
0.3783783783783784
 40
0.4054054054054054
 40
0.4054054054054054
 40
0.4054054054054054
 40
0.4324324324324325
 40
0.4324324324324325
 40
0.4324324324324325
 40
0.4594594594594595
 40
0.4594594594594595
 40
0.4594594594594595
 40
0.4864864864864865
 40
0.4864864864864865
 40
0.4864864864864865
 40
0.5135135135135136
 40
0.5135135135135136
 40
0.5135135135135136
 40
0.5405405405405406
 40
0.5405405405405406
 40
0.5405405405405406
 40
0.5675675675675675
 40
0.5675675675675675
 40
0.5675675675675675
 40
0.5945945945945946
 40
0.5945945945945946
 40
0.5945945945945946
 40
0.6216216216216217
 40
0.6216216216216217
 40
0.6216216216216217
 40
0.6486486486486487
 40
0.6486486486486487
 40
0.6486486486486487
 40
0.6756756756756757
 40
0.6756756756756757
 40
0.6756756756756757
 40
0.7027027027027027
 40
0.7027027027027027
 40
0.7027027027027027
 40
0.7297297297297298
 40
0.7297297297297298
 40
0.7297297297297298
 40
0.7567567567567568
 40
0.7567567567567568
 40
0.7567567567567568
 40
0.7837837837837838
 40
0.7837837837837838
 40
0.7837837837837838
 40
0.8108108108108109
 40
0.8108108108108109
 40
0.8108108108108109
 40
0.8378378378378379
 40
0.8378378378378379
 40
0.8378378378378379
 40
0.8648648648648649
 40
0.8648648648648649
 40
0.8648648648648649
 40
0.8918918918918919
 40
0.8918918918918919
 40
0.8918918918918919
 40
0.918918918918919
 40
0.918918918918919
 40
0.918918918918919
 40
0.945945945945946
 40
0.945945945945946
 40
0.945945945945946
 40
0.972972972972973
 40
0.972972972972973
 40
0.972972972972973
 40
1.0
 40
1.0
 40
1.0
 40
1.0
 10
-153.2374
 20
-82.8739
 30
0.0
 10
-140.9242
 20
-50.1238
 30
0.0
 10
-126.0
 20
-19.3544
 30
0.0
 10
-108.7473
 20
8.8656
 30
0.0
 10
-97.4761
 20
26.7687
 30
0.0
 10
-85.2908
 20
43.5549
 30
0.0
 10
-72.2854
 20
59.0792
 30
0.0
 10
-37.2229
 20
100.936
 30
0.0
 10
-2.913
 20
143.9615
 30
0.0
 10
30.6221
 20
188.1194
 30
0.0
 10
48.1044
 20
211.1474
 30
0.0
 10
67.1178
 20
231.8845
 30
0.0
 10
87.4029
 20
250.0617
 30
0.0
 10
107.7782
 20
268.3217
 30
0.0
 10
130.1964
 20
281.8757
 30
0.0
 10
153.7544
 20
290.1912
 30
0.0
 10
162.7457
 20
255.1762
 30
0.0
 10
179.058
 20
224.6084
 30
0.0
 10
200.6597
 20
202.3096
 30
0.0
 10
243.2124
 20
158.3947
 30
0.0
 10
295.2042
 20
135.3305
 30
0.0
 10
348.4035
 20
136.8043
 30
0.0
 10
372.7666
 20
137.4766
 30
0.0
 10
397.0018
 20
141.7429
 30
0.0
 10
420.7028
 20
149.5258
 30
0.0
 10
420.7028
 20
149.5258
 30
0.0
 10
439.8103
 20
96.1008
 30
0.0
 10
439.8103
 20
96.1008
 30
0.0
 10
433.5013
 20
79.9403
 30
0.0
 10
427.0456
 20
63.8937
 30
0.0
 10
420.4395
 20
47.966
 30
0.0
 10
404.7366
 20
10.4014
 30
0.0
 10
388.5936
 20
-26.8114
 30
0.0
 10
372.0104
 20
-63.6572
 30
0.0
 10
365.9986
 20
-56.2312
 30
0.0
 10
360.0358
 20
-48.7224
 30
0.0
 10
354.1331
 20
-41.1309
 30
0.0
 10
350.7472
 20
-36.637
 30
0.0
 10
347.4592
 20
-32.0138
 30
0.0
 10
344.2614
 20
-27.2717
 30
0.0
 10
326.5083
 20
-0.9186
 30
0.0
 10
305.0269
 20
20.1546
 30
0.0
 10
281.1227
 20
34.655
 30
0.0
 10
286.0812
 20
49.7656
 30
0.0
 10
287.3753
 20
66.6656
 30
0.0
 10
284.802
 20
82.8673
 30
0.0
 10
282.1987
 20
99.276
 30
0.0
 10
274.9906
 20
113.6006
 30
0.0
 10
264.7314
 20
122.7228
 30
0.0
 10
255.5294
 20
116.3362
 30
0.0
 10
248.6975
 20
104.9592
 30
0.0
 10
245.8797
 20
91.3276
 30
0.0
 10
243.1673
 20
78.2183
 30
0.0
 10
241.7415
 20
64.6694
 30
0.0
 10
241.6361
 20
51.0378
 30
0.0
 10
231.0723
 20
47.7488
 30
0.0
 10
220.1284
 20
47.3817
 30
0.0
 10
209.4592
 20
49.9622
 30
0.0
 10
198.3573
 20
52.646
 30
0.0
 10
188.7152
 20
62.0424
 30
0.0
 10
183.1925
 20
75.5447
 30
0.0
 10
172.9485
 20
100.5998
 30
0.0
 10
163.5696
 20
126.3065
 30
0.0
 10
155.0862
 20
152.5769
 30
0.0
 10
151.7906
 20
162.7799
 30
0.0
 10
150.8162
 20
174.1259
 30
0.0
 10
152.2834
 20
185.1097
 30
0.0
 10
145.9293
 20
182.1569
 30
0.0
 10
140.8129
 20
175.579
 30
0.0
 10
138.2472
 20
167.0618
 30
0.0
 10
135.7717
 20
158.8394
 30
0.0
 10
134.5302
 20
150.0171
 30
0.0
 10
134.5979
 20
141.1224
 30
0.0
 10
103.67
 20
133.1275
 30
0.0
 10
74.3786
 20
116.0208
 30
0.0
 10
48.7289
 20
90.9501
 30
0.0
 10
32.7853
 20
75.0431
 30
0.0
 10
18.527
 20
56.1781
 30
0.0
 10
6.3567
 20
34.8826
 30
0.0
 10
-5.7872
 20
13.6387
 30
0.0
 10
-16.3812
 20
-9.1824
 30
0.0
 10
-25.2859
 20
-33.2653
 30
0.0
 10
-28.9765
 20
-26.0927
 30
0.0
 10
-33.7205
 20
-20.0629
 30
0.0
 10
-39.2056
 20
-15.5586
 30
0.0
 10
-44.6455
 20
-11.0958
 30
0.0
 10
-50.3713
 20
-7.3259
 30
0.0
 10
-56.3117
 20
-4.2903
 30
0.0
 10
-69.1704
 20
2.2721
 30
0.0
 10
-83.5189
 20
0.095
 30
0.0
 10
-95.0195
 20
-10.1857
 30
0.0
 10
-107.0092
 20
-20.9058
 30
0.0
 10
-112.7802
 20
-40.8257
 30
0.0
 10
-109.4132
 20
-59.9338
 30
0.0
 10
-105.5834
 20
-81.6897
 30
0.0
 10
-92.9316
 20
-98.4034
 30
0.0
 10
-76.9616
 20
-102.7783
 30
0.0
 10
-68.5007
 20
-105.0951
 30
0.0
 10
-59.8743
 20
-106.0776
 30
0.0
 10
-51.2479
 20
-105.7053
 30
0.0
 10
-58.2077
 20
-117.5632
 30
0.0
 10
-63.6703
 20
-130.9414
 30
0.0
 10
-67.406
 20
-145.2867
 30
0.0
 10
-77.65
 20
-184.6354
 30
0.0
 10
-84.1396
 20
-225.6337
 30
0.0
 10
-86.7128
 20
-267.2733
 30
0.0
 10
-97.8749
 20
-254.4432
 30
0.0
 10
-107.2086
 20
-238.8672
 30
0.0
 10
-114.2324
 20
-221.3518
 30
0.0
 10
-131.6883
 20
-177.8092
 30
0.0
 10
-144.8104
 20
-131.2258
 30
0.0
 10
-153.2374
 20
-82.8739
 30
0.0
  0
SPLINE
  5
79
330
1F
100
AcDbEntity
  8
Layer 1
 62
   250
370
    20
100
AcDbSpline
210
0.0
220
0.0
230
1.0
 70
    11
 71
     3
 72
   170
 73
   166
 74
     0
 42
0.0000000001
 43
0.0000000001
 40
0.0
 40
0.0
 40
0.0
 40
0.0
 40
0.0181818181818182
 40
0.0181818181818182
 40
0.0181818181818182
 40
0.0363636363636364
 40
0.0363636363636364
 40
0.0363636363636364
 40
0.0545454545454545
 40
0.0545454545454545
 40
0.0545454545454545
 40
0.0727272727272727
 40
0.0727272727272727
 40
0.0727272727272727
 40
0.0909090909090909
 40
0.0909090909090909
 40
0.0909090909090909
 40
0.1090909090909091
 40
0.1090909090909091
 40
0.1090909090909091
 40
0.1272727272727273
 40
0.1272727272727273
 40
0.1272727272727273
 40
0.1454545454545454
 40
0.1454545454545454
 40
0.1454545454545454
 40
0.1636363636363636
 40
0.1636363636363636
 40
0.1636363636363636
 40
0.1818181818181818
 40
0.1818181818181818
 40
0.1818181818181818
 40
0.2
 40
0.2
 40
0.2
 40
0.2181818181818182
 40
0.2181818181818182
 40
0.2181818181818182
 40
0.2363636363636364
 40
0.2363636363636364
 40
0.2363636363636364
 40
0.2545454545454545
 40
0.2545454545454545
 40
0.2545454545454545
 40
0.2727272727272727
 40
0.2727272727272727
 40
0.2727272727272727
 40
0.2909090909090909
 40
0.2909090909090909
 40
0.2909090909090909
 40
0.3090909090909091
 40
0.3090909090909091
 40
0.3090909090909091
 40
0.3272727272727273
 40
0.3272727272727273
 40
0.3272727272727273
 40
0.3454545454545455
 40
0.3454545454545455
 40
0.3454545454545455
 40
0.3636363636363636
 40
0.3636363636363636
 40
0.3636363636363636
 40
0.3818181818181818
 40
0.3818181818181818
 40
0.3818181818181818
 40
0.4
 40
0.4
 40
0.4
 40
0.4181818181818182
 40
0.4181818181818182
 40
0.4181818181818182
 40
0.4363636363636363
 40
0.4363636363636363
 40
0.4363636363636363
 40
0.4545454545454545
 40
0.4545454545454545
 40
0.4545454545454545
 40
0.4727272727272727
 40
0.4727272727272727
 40
0.4727272727272727
 40
0.4909090909090909
 40
0.4909090909090909
 40
0.4909090909090909
 40
0.509090909090909
 40
0.509090909090909
 40
0.509090909090909
 40
0.5272727272727272
 40
0.5272727272727272
 40
0.5272727272727272
 40
0.5454545454545454
 40
0.5454545454545454
 40
0.5454545454545454
 40
0.5636363636363636
 40
0.5636363636363636
 40
0.5636363636363636
 40
0.5818181818181818
 40
0.5818181818181818
 40
0.5818181818181818
 40
0.6
 40
0.6
 40
0.6
 40
0.6181818181818182
 40
0.6181818181818182
 40
0.6181818181818182
 40
0.6363636363636364
 40
0.6363636363636364
 40
0.6363636363636364
 40
0.6545454545454545
 40
0.6545454545454545
 40
0.6545454545454545
 40
0.6727272727272727
 40
0.6727272727272727
 40
0.6727272727272727
 40
0.6909090909090909
 40
0.6909090909090909
 40
0.6909090909090909
 40
0.7090909090909091
 40
0.7090909090909091
 40
0.7090909090909091
 40
0.7272727272727273
 40
0.7272727272727273
 40
0.7272727272727273
 40
0.7454545454545454
 40
0.7454545454545454
 40
0.7454545454545454
 40
0.7636363636363636
 40
0.7636363636363636
 40
0.7636363636363636
 40
0.7818181818181817
 40
0.7818181818181817
 40
0.7818181818181817
 40
0.7999999999999999
 40
0.7999999999999999
 40
0.7999999999999999
 40
0.8181818181818181
 40
0.8181818181818181
 40
0.8181818181818181
 40
0.8363636363636363
 40
0.8363636363636363
 40
0.8363636363636363
 40
0.8545454545454545
 40
0.8545454545454545
 40
0.8545454545454545
 40
0.8727272727272727
 40
0.8727272727272727
 40
0.8727272727272727
 40
0.8909090909090909
 40
0.8909090909090909
 40
0.8909090909090909
 40
0.9090909090909091
 40
0.9090909090909091
 40
0.9090909090909091
 40
0.9272727272727272
 40
0.9272727272727272
 40
0.9272727272727272
 40
0.9454545454545454
 40
0.9454545454545454
 40
0.9454545454545454
 40
0.9636363636363636
 40
0.9636363636363636
 40
0.9636363636363636
 40
0.9818181818181818
 40
0.9818181818181818
 40
0.9818181818181818
 40
1.0
 40
1.0
 40
1.0
 40
1.0
 10
118.4361
 20
-403.9206
 30
0.0
 10
84.1713
 20
-406.5476
 30
0.0
 10
49.85
 20
-399.9852
 30
0.0
 10
17.4022
 20
-384.6159
 30
0.0
 10
-15.3052
 20
-369.1226
 30
0.0
 10
-44.4424
 20
-341.937
 30
0.0
 10
-67.0034
 20
-305.8824
 30
0.0
 10
-68.5271
 20
-303.4105
 30
0.0
 10
-69.9868
 20
-300.8714
 30
0.0
 10
-71.3862
 20
-298.2651
 30
0.0
 10
-72.7895
 20
-295.6587
 30
0.0
 10
-74.0084
 20
-292.8714
 30
0.0
 10
-75.0279
 20
-289.9496
 30
0.0
 10
-68.7566
 20
-257.0547
 30
0.0
 10
-61.0142
 20
-224.7184
 30
0.0
 10
-51.8461
 20
-193.1318
 30
0.0
 10
-39.04
 20
-149.7495
 30
0.0
 10
-24.146
 20
-107.5773
 30
0.0
 10
-7.2731
 20
-66.9048
 30
0.0
 10
-21.5427
 20
-118.4164
 30
0.0
 10
-22.3628
 20
-175.1046
 30
0.0
 10
-9.5793
 20
-227.3506
 30
0.0
 10
-9.1655
 20
-229.0468
 30
0.0
 10
-8.6915
 20
-230.7119
 30
0.0
 10
-8.1648
 20
-232.3513
 30
0.0
 10
-8.62
 20
-215.4048
 30
0.0
 10
-7.5027
 20
-198.448
 30
0.0
 10
-4.8316
 20
-181.8946
 30
0.0
 10
-2.0928
 20
-164.8912
 30
0.0
 10
4.946
 20
-149.7651
 30
0.0
 10
15.017
 20
-139.2104
 30
0.0
 10
17.7709
 20
-149.2842
 30
0.0
 10
24.5464
 20
-156.2085
 30
0.0
 10
32.3564
 20
-156.917
 30
0.0
 10
47.8184
 20
-158.3237
 30
0.0
 10
63.2505
 20
-153.716
 30
0.0
 10
76.8917
 20
-143.6112
 30
0.0
 10
84.2277
 20
-138.1813
 30
0.0
 10
89.8219
 20
-129.1832
 30
0.0
 10
92.5832
 20
-118.3751
 30
0.0
 10
95.4876
 20
-106.9878
 30
0.0
 10
95.7358
 20
-94.6387
 30
0.0
 10
93.283
 20
-83.0497
 30
0.0
 10
90.6495
 20
-70.6075
 30
0.0
 10
82.6551
 20
-61.7593
 30
0.0
 10
73.25
 20
-60.8957
 30
0.0
 10
69.5971
 20
-60.5596
 30
0.0
 10
65.9291
 20
-60.5182
 30
0.0
 10
62.2723
 20
-60.7768
 30
0.0
 10
49.4399
 20
-61.6766
 30
0.0
 10
36.7994
 20
-65.4
 30
0.0
 10
24.8248
 20
-71.8072
 30
0.0
 10
23.4441
 20
-61.3301
 30
0.0
 10
23.6246
 20
-50.5789
 30
0.0
 10
25.3589
 20
-40.2
 30
0.0
 10
30.8327
 20
-7.4293
 30
0.0
 10
44.1768
 20
21.8767
 30
0.0
 10
63.2241
 20
42.9757
 30
0.0
 10
83.4414
 20
65.3727
 30
0.0
 10
106.3824
 20
82.707
 30
0.0
 10
130.9751
 20
94.1667
 30
0.0
 10
139.0823
 20
97.9418
 30
0.0
 10
147.5507
 20
100.0413
 30
0.0
 10
156.1057
 20
100.3827
 30
0.0
 10
157.0161
 20
90.8105
 30
0.0
 10
159.0814
 20
81.5228
 30
0.0
 10
162.2153
 20
72.8815
 30
0.0
 10
165.3792
 20
64.1575
 30
0.0
 10
170.1456
 20
56.7263
 30
0.0
 10
176.0483
 20
51.3222
 30
0.0
 10
163.5771
 20
50.0242
 30
0.0
 10
151.4331
 20
45.2562
 30
0.0
 10
140.3464
 20
37.2976
 30
0.0
 10
129.3273
 20
29.3854
 30
0.0
 10
119.102
 20
19.5547
 30
0.0
 10
109.9188
 20
8.0329
 30
0.0
 10
132.9916
 20
11.8132
 30
0.0
 10
156.1169
 20
14.9574
 30
0.0
 10
179.28
 20
17.4603
 30
0.0
 10
202.887
 20
20.0098
 30
0.0
 10
226.5541
 20
13.4681
 30
0.0
 10
247.6141
 20
-1.415
 30
0.0
 10
267.1655
 20
-15.238
 30
0.0
 10
285.1181
 20
-32.9964
 30
0.0
 10
300.866
 20
-54.0902
 30
0.0
 10
316.5651
 20
-75.122
 30
0.0
 10
330.6691
 20
-98.3051
 30
0.0
 10
342.9485
 20
-123.2672
 30
0.0
 10
338.9607
 20
-133.2685
 30
0.0
 10
335.1121
 20
-143.3681
 30
0.0
 10
331.4027
 20
-153.5712
 30
0.0
 10
323.6943
 20
-174.9805
 30
0.0
 10
316.3432
 20
-196.6277
 30
0.0
 10
309.3608
 20
-218.4972
 30
0.0
 10
291.8973
 20
-187.7847
 30
0.0
 10
278.0529
 20
-153.4781
 30
0.0
 10
268.3468
 20
-116.8496
 30
0.0
 10
265.2167
 20
-105.0537
 30
0.0
 10
264.517
 20
-92.2909
 30
0.0
 10
266.3228
 20
-79.9831
 30
0.0
 10
258.2532
 20
-86.3904
 30
0.0
 10
251.4927
 20
-95.4816
 30
0.0
 10
246.6509
 20
-106.4293
 30
0.0
 10
241.8732
 20
-117.2322
 30
0.0
 10
237.9155
 20
-128.6763
 30
0.0
 10
234.8306
 20
-140.5859
 30
0.0
 10
231.3356
 20
-130.8277
 30
0.0
 10
225.5759
 20
-122.9621
 30
0.0
 10
218.4581
 20
-118.2199
 30
0.0
 10
211.4757
 20
-113.5761
 30
0.0
 10
203.9516
 20
-110.6698
 30
0.0
 10
196.2318
 20
-109.6459
 30
0.0
 10
183.7681
 20
-107.9859
 30
0.0
 10
171.2291
 20
-111.4248
 30
0.0
 10
160.1838
 20
-119.5387
 30
0.0
 10
149.206
 20
-127.5956
 30
0.0
 10
139.8686
 20
-139.2931
 30
0.0
 10
133.0103
 20
-153.5712
 30
0.0
 10
135.6965
 20
-159.5492
 30
0.0
 10
139.0635
 20
-164.8964
 30
0.0
 10
142.9836
 20
-169.4058
 30
0.0
 10
146.8773
 20
-173.8894
 30
0.0
 10
150.8313
 20
-178.2746
 30
0.0
 10
154.8454
 20
-182.5513
 30
0.0
 10
166.0827
 20
-194.5178
 30
0.0
 10
180.608
 20
-198.9651
 30
0.0
 10
194.4787
 20
-194.6626
 30
0.0
 10
207.8001
 20
-190.5359
 30
0.0
 10
220.4257
 20
-182.9547
 30
0.0
 10
231.6817
 20
-172.3276
 30
0.0
 10
229.338
 20
-185.3024
 30
0.0
 10
228.7925
 20
-198.7634
 30
0.0
 10
230.0678
 20
-212.0124
 30
0.0
 10
231.3394
 20
-225.22
 30
0.0
 10
234.0029
 20
-238.0966
 30
0.0
 10
237.9794
 20
-250.244
 30
0.0
 10
224.3871
 20
-252.3798
 30
0.0
 10
211.3891
 20
-259.0456
 30
0.0
 10
200.103
 20
-269.678
 30
0.0
 10
188.9146
 20
-280.2119
 30
0.0
 10
179.0241
 20
-293.1351
 30
0.0
 10
170.8002
 20
-307.9613
 30
0.0
 10
152.8101
 20
-299.5993
 30
0.0
 10
137.4609
 20
-282.9579
 30
0.0
 10
127.3447
 20
-260.8608
 30
0.0
 10
117.3527
 20
-239.0326
 30
0.0
 10
111.7059
 20
-213.9672
 30
0.0
 10
110.9685
 20
-188.1984
 30
0.0
 10
104.7347
 20
-198.9289
 30
0.0
 10
100.7658
 20
-211.7952
 30
0.0
 10
99.4941
 20
-225.4113
 30
0.0
 10
98.2377
 20
-238.8206
 30
0.0
 10
98.1511
 20
-252.385
 30
0.0
 10
99.2384
 20
-265.8253
 30
0.0
 10
100.6717
 20
-283.5526
 30
0.0
 10
106.1755
 20
-300.1837
 30
0.0
 10
114.96
 20
-313.3188
 30
0.0
 10
123.7181
 20
-326.4126
 30
0.0
 10
135.1171
 20
-335.6021
 30
0.0
 10
147.7087
 20
-339.703
 30
0.0
 10
140.1846
 20
-347.46
 30
0.0
 10
134.0186
 20
-357.4199
 30
0.0
 10
129.6584
 20
-368.8693
 30
0.0
 10
125.347
 20
-380.1945
 30
0.0
 10
121.5963
 20
-391.9024
 30
0.0
 10
118.4361
 20
-403.9206
 30
0.0
  0
SPLINE
  5
7A
330
1F
100
AcDbEntity
  8
Layer 1
 62
   250
370
    20
100
AcDbSpline
210
0.0
220
0.0
230
1.0
 70
    11
 71
     3
 72
    32
 73
    28
 74
     0
 42
0.0000000001
 43
0.0000000001
 40
0.0
 40
0.0
 40
0.0
 40
0.0
 40
0.1111111111111111
 40
0.1111111111111111
 40
0.1111111111111111
 40
0.2222222222222222
 40
0.2222222222222222
 40
0.2222222222222222
 40
0.3333333333333333
 40
0.3333333333333333
 40
0.3333333333333333
 40
0.4444444444444444
 40
0.4444444444444444
 40
0.4444444444444444
 40
0.5555555555555556
 40
0.5555555555555556
 40
0.5555555555555556
 40
0.6666666666666666
 40
0.6666666666666666
 40
0.6666666666666666
 40
0.7777777777777777
 40
0.7777777777777777
 40
0.7777777777777777
 40
0.8888888888888888
 40
0.8888888888888888
 40
0.8888888888888888
 40
1.0
 40
1.0
 40
1.0
 40
1.0
 10
87.5835
 20
589.9734
 30
0.0
 10
84.2465
 20
550.3351
 30
0.0
 10
86.1764
 20
510.2107
 30
0.0
 10
93.2867
 20
471.5292
 30
0.0
 10
100.3707
 20
432.9666
 30
0.0
 10
111.4462
 20
396.0071
 30
0.0
 10
126.1747
 20
361.7728
 30
0.0
 10
116.1451
 20
358.4838
 30
0.0
 10
106.4314
 20
353.5918
 30
0.0
 10
97.2332
 20
347.1845
 30
0.0
 10
84.7018
 20
338.1502
 30
0.0
 10
73.0394
 20
327.0163
 30
0.0
 10
62.5018
 20
314.0311
 30
0.0
 10
45.2377
 20
320.578
 30
0.0
 10
30.6334
 20
336.4902
 30
0.0
 10
22.0521
 20
358.1012
 30
0.0
 10
5.2244
 20
400.4699
 30
0.0
 10
-5.1777
 20
447.1102
 30
0.0
 10
-8.5222
 20
495.1622
 30
0.0
 10
-10.3693
 20
521.6498
 30
0.0
 10
-8.9774
 20
548.3804
 30
0.0
 10
-4.4102
 20
574.2319
 30
0.0
 10
-3.4433
 20
579.7083
 30
0.0
 10
-1.98
 20
584.9986
 30
0.0
 10
-0.05
 20
589.9734
 30
0.0
 10
-0.05
 20
589.9734
 30
0.0
 10
87.5835
 20
589.9734
 30
0.0
 10
87.5835
 20
589.9734
 30
0.0
  0
SPLINE
  5
7B
330
1F
100
AcDbEntity
  8
Layer 1
 62
   250
370
    20
100
AcDbSpline
210
0.0
220
0.0
230
1.0
 70
    11
 71
     3
 72
    26
 73
    22
 74
     0
 42
0.0000000001
 43
0.0000000001
 40
0.0
 40
0.0
 40
0.0
 40
0.0
 40
0.1428571428571428
 40
0.1428571428571428
 40
0.1428571428571428
 40
0.2857142857142857
 40
0.2857142857142857
 40
0.2857142857142857
 40
0.4285714285714285
 40
0.4285714285714285
 40
0.4285714285714285
 40
0.5714285714285714
 40
0.5714285714285714
 40
0.5714285714285714
 40
0.7142857142857142
 40
0.7142857142857142
 40
0.7142857142857142
 40
0.8571428571428571
 40
0.8571428571428571
 40
0.8571428571428571
 40
1.0
 40
1.0
 40
1.0
 40
1.0
 10
-496.8943
 20
269.9041
 30
0.0
 10
-489.5394
 20
291.5565
 30
0.0
 10
-478.1178
 20
310.1319
 30
0.0
 10
-463.8106
 20
323.7067
 30
0.0
 10
-449.6917
 20
337.1056
 30
0.0
 10
-434.3387
 20
347.8671
 30
0.0
 10
-418.1581
 20
355.712
 30
0.0
 10
-417.6464
 20
347.4792
 30
0.0
 10
-416.4238
 20
339.3603
 30
0.0
 10
-414.5201
 20
331.5205
 30
0.0
 10
-412.5902
 20
323.5825
 30
0.0
 10
-409.2043
 20
316.4668
 30
0.0
 10
-404.6824
 20
310.8559
 30
0.0
 10
-412.8723
 20
306.9205
 30
0.0
 10
-421.1527
 20
303.3419
 30
0.0
 10
-429.5082
 20
300.1305
 30
0.0
 10
-434.9444
 20
298.1706
 30
0.0
 10
-440.4219
 20
296.4279
 30
0.0
 10
-445.9296
 20
294.8972
 30
0.0
 10
-463.7016
 20
289.9637
 30
0.0
 10
-480.8604
 20
281.5499
 30
0.0
 10
-496.8943
 20
269.9041
 30
0.0
  0
SPLINE
  5
7C
330
1F
100
AcDbEntity
  8
Layer 1
 62
   250
370
    20
100
AcDbSpline
210
0.0
220
0.0
230
1.0
 70
    11
 71
     3
 72
    83
 73
    79
 74
     0
 42
0.0000000001
 43
0.0000000001
 40
0.0
 40
0.0
 40
0.0
 40
0.0
 40
0.0384615384615385
 40
0.0384615384615385
 40
0.0384615384615385
 40
0.0769230769230769
 40
0.0769230769230769
 40
0.0769230769230769
 40
0.1153846153846154
 40
0.1153846153846154
 40
0.1153846153846154
 40
0.1538461538461539
 40
0.1538461538461539
 40
0.1538461538461539
 40
0.1923076923076923
 40
0.1923076923076923
 40
0.1923076923076923
 40
0.2307692307692308
 40
0.2307692307692308
 40
0.2307692307692308
 40
0.2692307692307693
 40
0.2692307692307693
 40
0.2692307692307693
 40
0.3076923076923077
 40
0.3076923076923077
 40
0.3076923076923077
 40
0.3461538461538461
 40
0.3461538461538461
 40
0.3461538461538461
 40
0.3846153846153846
 40
0.3846153846153846
 40
0.3846153846153846
 40
0.4230769230769231
 40
0.4230769230769231
 40
0.4230769230769231
 40
0.4615384615384616
 40
0.4615384615384616
 40
0.4615384615384616
 40
0.5
 40
0.5
 40
0.5
 40
0.5384615384615385
 40
0.5384615384615385
 40
0.5384615384615385
 40
0.576923076923077
 40
0.576923076923077
 40
0.576923076923077
 40
0.6153846153846154
 40
0.6153846153846154
 40
0.6153846153846154
 40
0.6538461538461539
 40
0.6538461538461539
 40
0.6538461538461539
 40
0.6923076923076923
 40
0.6923076923076923
 40
0.6923076923076923
 40
0.7307692307692308
 40
0.7307692307692308
 40
0.7307692307692308
 40
0.7692307692307693
 40
0.7692307692307693
 40
0.7692307692307693
 40
0.8076923076923077
 40
0.8076923076923077
 40
0.8076923076923077
 40
0.8461538461538463
 40
0.8461538461538463
 40
0.8461538461538463
 40
0.8846153846153847
 40
0.8846153846153847
 40
0.8846153846153847
 40
0.9230769230769231
 40
0.9230769230769231
 40
0.9230769230769231
 40
0.9615384615384616
 40
0.9615384615384616
 40
0.9615384615384616
 40
1.0
 40
1.0
 40
1.0
 40
1.0
 10
-699.1691
 20
251.6131
 30
0.0
 10
-682.4354
 20
282.517
 30
0.0
 10
-662.5077
 20
309.9044
 30
0.0
 10
-640.0257
 20
332.9064
 30
0.0
 10
-616.2269
 20
356.5808
 30
0.0
 10
-590.0391
 20
375.3631
 30
0.0
 10
-562.3015
 20
388.6534
 30
0.0
 10
-556.9706
 20
380.5034
 30
0.0
 10
-551.3313
 20
372.7516
 30
0.0
 10
-545.4023
 20
365.429
 30
0.0
 10
-533.627
 20
351.2026
 30
0.0
 10
-521.2123
 20
338.0105
 30
0.0
 10
-508.2256
 20
325.9406
 30
0.0
 10
-524.2294
 20
299.0446
 30
0.0
 10
-530.3766
 20
263.5795
 30
0.0
 10
-524.8991
 20
229.6556
 30
0.0
 10
-519.666
 20
197.2313
 30
0.0
 10
-510.6107
 20
166.2085
 30
0.0
 10
-498.0906
 20
137.7972
 30
0.0
 10
-497.3006
 20
159.2324
 30
0.0
 10
-492.519
 20
180.0367
 30
0.0
 10
-484.2048
 20
198.2036
 30
0.0
 10
-475.9734
 20
216.1998
 30
0.0
 10
-465.6277
 20
232.1999
 30
0.0
 10
-453.6004
 20
245.5626
 30
0.0
 10
-439.7786
 20
260.9163
 30
0.0
 10
-423.0601
 20
270.5764
 30
0.0
 10
-405.4084
 20
273.4154
 30
0.0
 10
-402.4928
 20
273.886
 30
0.0
 10
-399.5359
 20
273.5809
 30
0.0
 10
-396.703
 20
272.5208
 30
0.0
 10
-395.4465
 20
240.1482
 30
0.0
 10
-389.8862
 20
208.3807
 30
0.0
 10
-380.2891
 20
178.7748
 30
0.0
 10
-370.7373
 20
149.3086
 30
0.0
 10
-358.6648
 20
121.523
 30
0.0
 10
-344.3201
 20
95.9921
 30
0.0
 10
-344.5721
 20
74.3088
 30
0.0
 10
-349.1882
 20
53.1374
 30
0.0
 10
-357.6453
 20
34.8308
 30
0.0
 10
-365.9933
 20
16.7622
 30
0.0
 10
-376.3202
 20
0.5656
 30
0.0
 10
-388.2572
 20
-13.1798
 30
0.0
 10
-394.7882
 20
-12.7971
 30
0.0
 10
-401.2927
 20
-11.7008
 30
0.0
 10
-407.6995
 20
-9.9012
 30
0.0
 10
-439.5642
 20
-0.9341
 30
0.0
 10
-470.8834
 20
11.415
 30
0.0
 10
-501.3636
 20
27.0273
 30
0.0
 10
-533.2658
 20
43.3687
 30
0.0
 10
-562.9899
 20
66.8672
 30
0.0
 10
-589.3094
 20
96.5455
 30
0.0
 10
-598.2066
 20
106.5779
 30
0.0
 10
-606.1633
 20
118.0996
 30
0.0
 10
-612.9915
 20
130.8314
 30
0.0
 10
-593.9217
 20
154.5265
 30
0.0
 10
-580.6302
 20
185.6993
 30
0.0
 10
-574.9157
 20
220.1507
 30
0.0
 10
-569.2876
 20
254.1109
 30
0.0
 10
-568.445
 20
289.2242
 30
0.0
 10
-572.4365
 20
323.6187
 30
0.0
 10
-581.6686
 20
327.6472
 30
0.0
 10
-591.6982
 20
326.1061
 30
0.0
 10
-600.05
 20
319.3731
 30
0.0
 10
-620.5043
 20
302.8817
 30
0.0
 10
-635.4547
 20
276.0838
 30
0.0
 10
-641.7186
 20
244.6473
 30
0.0
 10
-644.7659
 20
229.3453
 30
0.0
 10
-645.7779
 20
213.4176
 30
0.0
 10
-644.6944
 20
197.6244
 30
0.0
 10
-643.6185
 20
181.8776
 30
0.0
 10
-640.9098
 20
166.4258
 30
0.0
 10
-636.6474
 20
151.7391
 30
0.0
 10
-651.8009
 20
160.9028
 30
0.0
 10
-665.1262
 20
174.9636
 30
0.0
 10
-675.4869
 20
192.7116
 30
0.0
 10
-685.7761
 20
210.3355
 30
0.0
 10
-693.7893
 20
230.2607
 30
0.0
 10
-699.1691
 20
251.6131
 30
0.0
  0
SPLINE
  5
7D
330
1F
100
AcDbEntity
  8
Layer 1
 62
   250
370
    20
100
AcDbSpline
210
0.0
220
0.0
230
1.0
 70
    11
 71
     3
 72
    71
 73
    67
 74
     0
 42
0.0000000001
 43
0.0000000001
 40
0.0
 40
0.0
 40
0.0
 40
0.0
 40
0.0454545454545455
 40
0.0454545454545455
 40
0.0454545454545455
 40
0.0909090909090909
 40
0.0909090909090909
 40
0.0909090909090909
 40
0.1363636363636364
 40
0.1363636363636364
 40
0.1363636363636364
 40
0.1818181818181818
 40
0.1818181818181818
 40
0.1818181818181818
 40
0.2272727272727273
 40
0.2272727272727273
 40
0.2272727272727273
 40
0.2727272727272727
 40
0.2727272727272727
 40
0.2727272727272727
 40
0.3181818181818182
 40
0.3181818181818182
 40
0.3181818181818182
 40
0.3636363636363636
 40
0.3636363636363636
 40
0.3636363636363636
 40
0.4090909090909091
 40
0.4090909090909091
 40
0.4090909090909091
 40
0.4545454545454546
 40
0.4545454545454546
 40
0.4545454545454546
 40
0.5
 40
0.5
 40
0.5
 40
0.5454545454545454
 40
0.5454545454545454
 40
0.5454545454545454
 40
0.5909090909090909
 40
0.5909090909090909
 40
0.5909090909090909
 40
0.6363636363636364
 40
0.6363636363636364
 40
0.6363636363636364
 40
0.6818181818181819
 40
0.6818181818181819
 40
0.6818181818181819
 40
0.7272727272727273
 40
0.7272727272727273
 40
0.7272727272727273
 40
0.7727272727272727
 40
0.7727272727272727
 40
0.7727272727272727
 40
0.8181818181818182
 40
0.8181818181818182
 40
0.8181818181818182
 40
0.8636363636363636
 40
0.8636363636363636
 40
0.8636363636363636
 40
0.9090909090909092
 40
0.9090909090909092
 40
0.9090909090909092
 40
0.9545454545454546
 40
0.9545454545454546
 40
0.9545454545454546
 40
1.0
 40
1.0
 40
1.0
 40
1.0
 10
242.697
 20
-590.0265
 30
0.0
 10
242.697
 20
-590.0265
 30
0.0
 10
209.5684
 20
-590.0265
 30
0.0
 10
209.5684
 20
-590.0265
 30
0.0
 10
191.4879
 20
-577.5791
 30
0.0
 10
175.3976
 20
-560.2706
 30
0.0
 10
162.2604
 20
-539.1405
 30
0.0
 10
149.1383
 20
-518.0312
 30
0.0
 10
139.0334
 20
-493.6949
 30
0.0
 10
132.4875
 20
-467.4245
 30
0.0
 10
127.3522
 20
-446.8375
 30
0.0
 10
130.7117
 20
-424.0215
 30
0.0
 10
141.253
 20
-407.7732
 30
0.0
 10
157.0951
 20
-383.3697
 30
0.0
 10
173.2493
 20
-359.3488
 30
0.0
 10
189.7047
 20
-335.721
 30
0.0
 10
204.3128
 20
-314.7513
 30
0.0
 10
222.3518
 20
-298.8443
 30
0.0
 10
242.3096
 20
-289.3342
 30
0.0
 10
248.1031
 20
-286.5778
 30
0.0
 10
254.1713
 20
-285.0782
 30
0.0
 10
260.2998
 20
-284.892
 30
0.0
 10
261.5901
 20
-289.9806
 30
0.0
 10
263.2492
 20
-294.8727
 30
0.0
 10
265.2582
 20
-299.501
 30
0.0
 10
267.2709
 20
-304.1397
 30
0.0
 10
269.7877
 20
-308.3337
 30
0.0
 10
272.7221
 20
-311.9277
 30
0.0
 10
277.1989
 20
-317.3059
 30
0.0
 10
282.5109
 20
-321.1999
 30
0.0
 10
288.2518
 20
-323.315
 30
0.0
 10
283.9142
 20
-335.3228
 30
0.0
 10
280.1107
 20
-347.6771
 30
0.0
 10
276.8641
 20
-360.321
 30
0.0
 10
275.2389
 20
-366.8576
 30
0.0
 10
273.8544
 20
-373.5079
 30
0.0
 10
272.7221
 20
-380.2411
 30
0.0
 10
265.0851
 20
-374.6922
 30
0.0
 10
256.7785
 20
-371.1085
 30
0.0
 10
248.2047
 20
-369.6708
 30
0.0
 10
239.6836
 20
-368.2435
 30
0.0
 10
231.0836
 20
-367.9229
 30
0.0
 10
222.5174
 20
-368.7193
 30
0.0
 10
210.031
 20
-369.8777
 30
0.0
 10
198.1279
 20
-376.3935
 30
0.0
 10
188.482
 20
-387.3568
 30
0.0
 10
178.9527
 20
-398.1856
 30
0.0
 10
171.3044
 20
-411.7965
 30
0.0
 10
166.0827
 20
-427.2071
 30
0.0
 10
168.5544
 20
-429.7875
 30
0.0
 10
171.2179
 20
-432.0112
 30
0.0
 10
174.0244
 20
-433.8367
 30
0.0
 10
176.8271
 20
-435.6518
 30
0.0
 10
179.7089
 20
-437.2447
 30
0.0
 10
182.6508
 20
-438.5892
 30
0.0
 10
199.0346
 20
-445.8497
 30
0.0
 10
216.4755
 20
-447.3184
 30
0.0
 10
233.3784
 20
-442.8607
 30
0.0
 10
244.7399
 20
-439.8665
 30
0.0
 10
255.6085
 20
-434.0798
 30
0.0
 10
265.4764
 20
-425.7798
 30
0.0
 10
255.2737
 20
-440.2336
 30
0.0
 10
248.611
 20
-458.6953
 30
0.0
 10
246.414
 20
-478.6049
 30
0.0
 10
242.3472
 20
-515.4662
 30
0.0
 10
241.102
 20
-552.8084
 30
0.0
 10
242.697
 20
-590.0265
 30
0.0
  0
SPLINE
  5
7E
330
1F
100
AcDbEntity
  8
Layer 1
 62
   250
370
    20
100
AcDbSpline
210
0.0
220
0.0
230
1.0
 70
    11
 71
     3
 72
    35
 73
    31
 74
     0
 42
0.0000000001
 43
0.0000000001
 40
0.0
 40
0.0
 40
0.0
 40
0.0
 40
0.1
 40
0.1
 40
0.1
 40
0.2
 40
0.2
 40
0.2
 40
0.3
 40
0.3
 40
0.3
 40
0.4
 40
0.4
 40
0.4
 40
0.5
 40
0.5
 40
0.5
 40
0.6000000000000001
 40
0.6000000000000001
 40
0.6000000000000001
 40
0.7000000000000001
 40
0.7000000000000001
 40
0.7000000000000001
 40
0.8
 40
0.8
 40
0.8
 40
0.9
 40
0.9
 40
0.9
 40
1.0
 40
1.0
 40
1.0
 40
1.0
 10
-17.6339
 20
-590.0265
 30
0.0
 10
-17.6339
 20
-590.0265
 30
0.0
 10
-202.5053
 20
-590.0265
 30
0.0
 10
-202.5053
 20
-590.0265
 30
0.0
 10
-188.2472
 20
-569.1033
 30
0.0
 10
-179.8804
 20
-541.9021
 30
0.0
 10
-178.9059
 20
-513.2632
 30
0.0
 10
-177.9467
 20
-484.9605
 30
0.0
 10
-182.7734
 20
-456.875
 30
0.0
 10
-192.8556
 20
-432.1612
 30
0.0
 10
-195.8352
 20
-424.8645
 30
0.0
 10
-199.4092
 20
-418.0642
 30
0.0
 10
-203.5136
 20
-411.8896
 30
0.0
 10
-191.396
 20
-407.6853
 30
0.0
 10
-178.8082
 20
-406.62
 30
0.0
 10
-166.4046
 20
-408.7454
 30
0.0
 10
-154.1027
 20
-410.8605
 30
0.0
 10
-141.876
 20
-413.7616
 30
0.0
 10
-129.7659
 20
-417.4436
 30
0.0
 10
-121.9672
 20
-437.3222
 30
0.0
 10
-113.1038
 20
-456.3734
 30
0.0
 10
-103.2509
 20
-474.4524
 30
0.0
 10
-93.4131
 20
-492.5003
 30
0.0
 10
-83.4512
 20
-510.4241
 30
0.0
 10
-73.3613
 20
-528.2136
 30
0.0
 10
-60.4499
 20
-550.9778
 30
0.0
 10
-44.5439
 20
-570.1944
 30
0.0
 10
-26.456
 20
-584.8707
 30
0.0
 10
-23.6946
 20
-587.1099
 30
0.0
 10
-20.7263
 20
-588.8474
 30
0.0
 10
-17.6339
 20
-590.0265
 30
0.0
  0
SPLINE
  5
7F
330
1F
100
AcDbEntity
  8
Layer 1
 62
   250
370
    20
100
AcDbSpline
210
0.0
220
0.0
230
1.0
 70
    11
 71
     3
 72
    74
 73
    70
 74
     0
 42
0.0000000001
 43
0.0000000001
 40
0.0
 40
0.0
 40
0.0
 40
0.0
 40
0.0434782608695652
 40
0.0434782608695652
 40
0.0434782608695652
 40
0.0869565217391304
 40
0.0869565217391304
 40
0.0869565217391304
 40
0.1304347826086956
 40
0.1304347826086956
 40
0.1304347826086956
 40
0.1739130434782609
 40
0.1739130434782609
 40
0.1739130434782609
 40
0.2173913043478261
 40
0.2173913043478261
 40
0.2173913043478261
 40
0.2608695652173913
 40
0.2608695652173913
 40
0.2608695652173913
 40
0.3043478260869565
 40
0.3043478260869565
 40
0.3043478260869565
 40
0.3478260869565217
 40
0.3478260869565217
 40
0.3478260869565217
 40
0.3913043478260869
 40
0.3913043478260869
 40
0.3913043478260869
 40
0.4347826086956522
 40
0.4347826086956522
 40
0.4347826086956522
 40
0.4782608695652174
 40
0.4782608695652174
 40
0.4782608695652174
 40
0.5217391304347826
 40
0.5217391304347826
 40
0.5217391304347826
 40
0.5652173913043478
 40
0.5652173913043478
 40
0.5652173913043478
 40
0.6086956521739131
 40
0.6086956521739131
 40
0.6086956521739131
 40
0.6521739130434783
 40
0.6521739130434783
 40
0.6521739130434783
 40
0.6956521739130435
 40
0.6956521739130435
 40
0.6956521739130435
 40
0.7391304347826086
 40
0.7391304347826086
 40
0.7391304347826086
 40
0.7826086956521738
 40
0.7826086956521738
 40
0.7826086956521738
 40
0.8260869565217391
 40
0.8260869565217391
 40
0.8260869565217391
 40
0.8695652173913043
 40
0.8695652173913043
 40
0.8695652173913043
 40
0.9130434782608695
 40
0.9130434782608695
 40
0.9130434782608695
 40
0.9565217391304348
 40
0.9565217391304348
 40
0.9565217391304348
 40
1.0
 40
1.0
 40
1.0
 40
1.0
 10
-219.145
 20
-590.0265
 30
0.0
 10
-219.145
 20
-590.0265
 30
0.0
 10
-526.3775
 20
-590.0265
 30
0.0
 10
-526.3775
 20
-590.0265
 30
0.0
 10
-499.5465
 20
-507.5903
 30
0.0
 10
-457.814
 20
-435.9156
 30
0.0
 10
-405.1902
 20
-381.8441
 30
0.0
 10
-384.6042
 20
-360.6882
 30
0.0
 10
-359.0448
 20
-350.723
 30
0.0
 10
-333.4402
 20
-353.8517
 30
0.0
 10
-326.7701
 20
-354.6636
 30
0.0
 10
-320.2166
 20
-356.7683
 30
0.0
 10
-313.9716
 20
-360.0935
 30
0.0
 10
-322.7973
 20
-384.1247
 30
0.0
 10
-328.1206
 20
-410.2813
 30
0.0
 10
-329.6518
 20
-437.1205
 30
0.0
 10
-331.1754
 20
-463.7942
 30
0.0
 10
-330.423
 20
-490.6128
 30
0.0
 10
-327.4059
 20
-517.0435
 30
0.0
 10
-315.0362
 20
-475.8745
 30
0.0
 10
-302.7944
 20
-434.6331
 30
0.0
 10
-290.6768
 20
-393.3245
 30
0.0
 10
-278.5517
 20
-351.9797
 30
0.0
 10
-264.745
 20
-311.6019
 30
0.0
 10
-249.328
 20
-272.3877
 30
0.0
 10
-227.5005
 20
-218.6162
 30
0.0
 10
-202.2082
 20
-167.632
 30
0.0
 10
-173.7708
 20
-120.0558
 30
0.0
 10
-179.1881
 20
-160.2008
 30
0.0
 10
-179.5154
 20
-201.3129
 30
0.0
 10
-174.7338
 20
-241.6079
 30
0.0
 10
-171.9235
 20
-264.5583
 30
0.0
 10
-167.4542
 20
-287.0536
 30
0.0
 10
-161.3861
 20
-308.7784
 30
0.0
 10
-155.3254
 20
-330.4825
 30
0.0
 10
-147.9818
 20
-351.4626
 30
0.0
 10
-139.4344
 20
-371.5222
 30
0.0
 10
-167.9809
 20
-365.4251
 30
0.0
 10
-197.0315
 20
-365.4613
 30
0.0
 10
-225.5706
 20
-371.6256
 30
0.0
 10
-240.9123
 20
-374.9456
 30
0.0
 10
-254.9561
 20
-385.3865
 30
0.0
 10
-265.3619
 20
-401.2366
 30
0.0
 10
-270.7341
 20
-409.4125
 30
0.0
 10
-275.4706
 20
-418.3434
 30
0.0
 10
-279.496
 20
-427.8742
 30
0.0
 10
-287.2195
 20
-446.1755
 30
0.0
 10
-292.2493
 20
-466.3799
 30
0.0
 10
-294.2959
 20
-487.3549
 30
0.0
 10
-287.5693
 20
-473.8473
 30
0.0
 10
-279.0708
 20
-462.1705
 30
0.0
 10
-269.2481
 20
-452.9189
 30
0.0
 10
-263.763
 20
-447.8562
 30
0.0
 10
-257.898
 20
-443.626
 30
0.0
 10
-251.7508
 20
-440.2906
 30
0.0
 10
-245.6148
 20
-436.9653
 30
0.0
 10
-239.2721
 20
-434.3797
 30
0.0
 10
-232.8088
 20
-432.5697
 30
0.0
 10
-236.3113
 20
-437.3015
 30
0.0
 10
-239.3134
 20
-442.6797
 30
0.0
 10
-241.7324
 20
-448.5491
 30
0.0
 10
-244.1439
 20
-454.4083
 30
0.0
 10
-246.1152
 20
-460.5932
 30
0.0
 10
-247.6125
 20
-467.0056
 30
0.0
 10
-252.7026
 20
-489.108
 30
0.0
 10
-252.981
 20
-512.7668
 30
0.0
 10
-248.3988
 20
-535.0811
 30
0.0
 10
-243.7639
 20
-557.6385
 30
0.0
 10
-233.3881
 20
-577.1395
 30
0.0
 10
-219.145
 20
-590.0265
 30
0.0
  0
SPLINE
  5
80
330
1F
100
AcDbEntity
  8
Layer 1
 62
   250
370
    20
100
AcDbSpline
210
0.0
220
0.0
230
1.0
 70
    11
 71
     3
 72
   176
 73
   172
 74
     0
 42
0.0000000001
 43
0.0000000001
 40
0.0
 40
0.0
 40
0.0
 40
0.0
 40
0.0175438596491228
 40
0.0175438596491228
 40
0.0175438596491228
 40
0.0350877192982456
 40
0.0350877192982456
 40
0.0350877192982456
 40
0.0526315789473684
 40
0.0526315789473684
 40
0.0526315789473684
 40
0.0701754385964912
 40
0.0701754385964912
 40
0.0701754385964912
 40
0.087719298245614
 40
0.087719298245614
 40
0.087719298245614
 40
0.1052631578947368
 40
0.1052631578947368
 40
0.1052631578947368
 40
0.1228070175438596
 40
0.1228070175438596
 40
0.1228070175438596
 40
0.1403508771929824
 40
0.1403508771929824
 40
0.1403508771929824
 40
0.1578947368421053
 40
0.1578947368421053
 40
0.1578947368421053
 40
0.1754385964912281
 40
0.1754385964912281
 40
0.1754385964912281
 40
0.1929824561403509
 40
0.1929824561403509
 40
0.1929824561403509
 40
0.2105263157894737
 40
0.2105263157894737
 40
0.2105263157894737
 40
0.2280701754385965
 40
0.2280701754385965
 40
0.2280701754385965
 40
0.2456140350877193
 40
0.2456140350877193
 40
0.2456140350877193
 40
0.2631578947368421
 40
0.2631578947368421
 40
0.2631578947368421
 40
0.2807017543859649
 40
0.2807017543859649
 40
0.2807017543859649
 40
0.2982456140350877
 40
0.2982456140350877
 40
0.2982456140350877
 40
0.3157894736842105
 40
0.3157894736842105
 40
0.3157894736842105
 40
0.3333333333333333
 40
0.3333333333333333
 40
0.3333333333333333
 40
0.3508771929824561
 40
0.3508771929824561
 40
0.3508771929824561
 40
0.3684210526315789
 40
0.3684210526315789
 40
0.3684210526315789
 40
0.3859649122807017
 40
0.3859649122807017
 40
0.3859649122807017
 40
0.4035087719298245
 40
0.4035087719298245
 40
0.4035087719298245
 40
0.4210526315789473
 40
0.4210526315789473
 40
0.4210526315789473
 40
0.4385964912280702
 40
0.4385964912280702
 40
0.4385964912280702
 40
0.456140350877193
 40
0.456140350877193
 40
0.456140350877193
 40
0.4736842105263158
 40
0.4736842105263158
 40
0.4736842105263158
 40
0.4912280701754386
 40
0.4912280701754386
 40
0.4912280701754386
 40
0.5087719298245614
 40
0.5087719298245614
 40
0.5087719298245614
 40
0.5263157894736842
 40
0.5263157894736842
 40
0.5263157894736842
 40
0.5438596491228069
 40
0.5438596491228069
 40
0.5438596491228069
 40
0.5614035087719298
 40
0.5614035087719298
 40
0.5614035087719298
 40
0.5789473684210527
 40
0.5789473684210527
 40
0.5789473684210527
 40
0.5964912280701754
 40
0.5964912280701754
 40
0.5964912280701754
 40
0.6140350877192982
 40
0.6140350877192982
 40
0.6140350877192982
 40
0.631578947368421
 40
0.631578947368421
 40
0.631578947368421
 40
0.6491228070175439
 40
0.6491228070175439
 40
0.6491228070175439
 40
0.6666666666666666
 40
0.6666666666666666
 40
0.6666666666666666
 40
0.6842105263157894
 40
0.6842105263157894
 40
0.6842105263157894
 40
0.7017543859649122
 40
0.7017543859649122
 40
0.7017543859649122
 40
0.7192982456140351
 40
0.7192982456140351
 40
0.7192982456140351
 40
0.7368421052631579
 40
0.7368421052631579
 40
0.7368421052631579
 40
0.7543859649122806
 40
0.7543859649122806
 40
0.7543859649122806
 40
0.7719298245614035
 40
0.7719298245614035
 40
0.7719298245614035
 40
0.7894736842105263
 40
0.7894736842105263
 40
0.7894736842105263
 40
0.8070175438596491
 40
0.8070175438596491
 40
0.8070175438596491
 40
0.8245614035087718
 40
0.8245614035087718
 40
0.8245614035087718
 40
0.8421052631578947
 40
0.8421052631578947
 40
0.8421052631578947
 40
0.8596491228070176
 40
0.8596491228070176
 40
0.8596491228070176
 40
0.8771929824561403
 40
0.8771929824561403
 40
0.8771929824561403
 40
0.894736842105263
 40
0.894736842105263
 40
0.894736842105263
 40
0.9122807017543859
 40
0.9122807017543859
 40
0.9122807017543859
 40
0.9298245614035088
 40
0.9298245614035088
 40
0.9298245614035088
 40
0.9473684210526315
 40
0.9473684210526315
 40
0.9473684210526315
 40
0.9649122807017543
 40
0.9649122807017543
 40
0.9649122807017543
 40
0.9824561403508771
 40
0.9824561403508771
 40
0.9824561403508771
 40
1.0
 40
1.0
 40
1.0
 40
1.0
 10
-525.0157
 20
-335.2297
 30
0.0
 10
-576.191
 20
-295.3174
 30
0.0
 10
-624.1686
 20
-248.0876
 30
0.0
 10
-668.1358
 20
-194.3419
 30
0.0
 10
-720.53
 20
-129.2814
 30
0.0
 10
-767.6611
 20
-56.6139
 30
0.0
 10
-808.7015
 20
22.3628
 30
0.0
 10
-800.7146
 20
47.1748
 30
0.0
 10
-791.6368
 20
71.2991
 30
0.0
 10
-781.5244
 20
94.5908
 30
0.0
 10
-762.5071
 20
137.2749
 30
0.0
 10
-741.3116
 20
178.0664
 30
0.0
 10
-718.1073
 20
216.6342
 30
0.0
 10
-707.0431
 20
187.7057
 30
0.0
 10
-693.6764
 20
160.5615
 30
0.0
 10
-678.2445
 20
135.6873
 30
0.0
 10
-657.7901
 20
103.4802
 30
0.0
 10
-634.6873
 20
74.6449
 30
0.0
 10
-609.395
 20
49.7605
 30
0.0
 10
-618.6421
 20
44.3305
 30
0.0
 10
-627.0315
 20
36.4857
 30
0.0
 10
-634.1042
 20
26.6601
 30
0.0
 10
-641.128
 20
16.9018
 30
0.0
 10
-647.3955
 20
6.1661
 30
0.0
 10
-652.8054
 20
-5.3763
 30
0.0
 10
-663.2075
 20
-27.5665
 30
0.0
 10
-668.5045
 20
-53.5369
 30
0.0
 10
-668.0041
 20
-79.9262
 30
0.0
 10
-667.5113
 20
-105.9328
 30
0.0
 10
-663.6176
 20
-131.6033
 30
0.0
 10
-656.5035
 20
-155.7121
 30
0.0
 10
-652.8806
 20
-153.7987
 30
0.0
 10
-649.4872
 20
-151.1613
 30
0.0
 10
-646.425
 20
-147.8879
 30
0.0
 10
-618.3374
 20
-117.8528
 30
0.0
 10
-598.8235
 20
-75.2462
 30
0.0
 10
-591.2731
 20
-27.4476
 30
0.0
 10
-589.5276
 20
-15.9723
 30
0.0
 10
-588.587
 20
-4.3007
 30
0.0
 10
-588.4628
 20
7.4228
 30
0.0
 10
-588.3387
 20
19.1617
 30
0.0
 10
-589.283
 20
30.8747
 30
0.0
 10
-591.2731
 20
42.2879
 30
0.0
 10
-573.0121
 20
16.2606
 30
0.0
 10
-551.3915
 20
-4.8643
 30
0.0
 10
-527.5061
 20
-20.0215
 30
0.0
 10
-514.6173
 20
-27.9698
 30
0.0
 10
-501.1492
 20
-33.9996
 30
0.0
 10
-487.3274
 20
-38.0022
 30
0.0
 10
-473.5169
 20
-42.01
 30
0.0
 10
-459.4806
 20
-44.3319
 30
0.0
 10
-445.3766
 20
-44.9473
 30
0.0
 10
-457.2497
 20
-61.0612
 30
0.0
 10
-473.942
 20
-68.5958
 30
0.0
 10
-490.4574
 20
-65.3223
 30
0.0
 10
-506.401
 20
-62.1575
 30
0.0
 10
-521.4229
 20
-53.0819
 30
0.0
 10
-533.9054
 20
-39.083
 30
0.0
 10
-533.0853
 20
-48.7017
 30
0.0
 10
-530.0004
 20
-57.6843
 30
0.0
 10
-525.1098
 20
-64.6553
 30
0.0
 10
-520.2529
 20
-71.5849
 30
0.0
 10
-514.053
 20
-76.4511
 30
0.0
 10
-507.2399
 20
-78.6747
 30
0.0
 10
-540.1166
 20
-90.2016
 30
0.0
 10
-565.9846
 20
-124.9634
 30
0.0
 10
-575.0849
 20
-169.8919
 30
0.0
 10
-578.3617
 20
-186.0523
 30
0.0
 10
-580.2917
 20
-202.6678
 30
0.0
 10
-580.8371
 20
-219.4281
 30
0.0
 10
-578.7041
 20
-213.4759
 30
0.0
 10
-576.1496
 20
-207.8236
 30
0.0
 10
-573.2114
 20
-202.5592
 30
0.0
 10
-560.1609
 20
-179.1486
 30
0.0
 10
-545.6506
 20
-157.3359
 30
0.0
 10
-529.8499
 20
-137.3798
 30
0.0
 10
-508.2482
 20
-110.0958
 30
0.0
 10
-480.6008
 20
-93.5372
 30
0.0
 10
-451.3508
 20
-90.3568
 30
0.0
 10
-429.6625
 20
-87.9987
 30
0.0
 10
-408.1923
 20
-82.8118
 30
0.0
 10
-387.2189
 20
-74.8635
 30
0.0
 10
-373.6868
 20
-69.7335
 30
0.0
 10
-360.7753
 20
-61.9197
 30
0.0
 10
-348.8834
 20
-51.6649
 30
0.0
 10
-334.1061
 20
-38.9124
 30
0.0
 10
-321.3527
 20
-22.1987
 30
0.0
 10
-311.3832
 20
-2.5114
 30
0.0
 10
-298.3702
 20
-12.5644
 30
0.0
 10
-287.8327
 20
-27.7423
 30
0.0
 10
-281.1363
 20
-46.0799
 30
0.0
 10
-274.5301
 20
-64.1537
 30
0.0
 10
-265.7231
 20
-80.5261
 30
0.0
 10
-255.084
 20
-94.499
 30
0.0
 10
-248.5003
 20
-103.1455
 30
0.0
 10
-241.7361
 20
-111.523
 30
0.0
 10
-234.8027
 20
-119.6369
 30
0.0
 10
-236.1608
 20
-130.7449
 30
0.0
 10
-239.0764
 20
-141.3875
 30
0.0
 10
-243.3877
 20
-150.97
 30
0.0
 10
-244.9452
 20
-154.4348
 30
0.0
 10
-247.4846
 20
-156.8446
 30
0.0
 10
-250.3927
 20
-157.6152
 30
0.0
 10
-253.3008
 20
-158.3857
 30
0.0
 10
-256.3255
 20
-157.4342
 30
0.0
 10
-258.7068
 20
-155.014
 30
0.0
 10
-264.1392
 20
-149.4806
 30
0.0
 10
-269.5754
 20
-143.9628
 30
0.0
 10
-275.0191
 20
-138.4554
 30
0.0
 10
-289.1645
 20
-124.1463
 30
0.0
 10
-305.7965
 20
-115.2205
 30
0.0
 10
-323.2563
 20
-112.5677
 30
0.0
 10
-347.8075
 20
-108.8391
 30
0.0
 10
-372.4904
 20
-106.9981
 30
0.0
 10
-397.1921
 20
-107.0447
 30
0.0
 10
-405.9803
 20
-107.0654
 30
0.0
 10
-414.7383
 20
-108.4099
 30
0.0
 10
-423.3121
 20
-111.068
 30
0.0
 10
-431.9686
 20
-113.7468
 30
0.0
 10
-440.0683
 20
-119.0888
 30
0.0
 10
-447.0093
 20
-126.6906
 30
0.0
 10
-445.5421
 20
-132.5652
 30
0.0
 10
-443.409
 20
-138.083
 30
0.0
 10
-440.6929
 20
-143.0475
 30
0.0
 10
-421.0059
 20
-178.9469
 30
0.0
 10
-392.0155
 20
-203.0091
 30
0.0
 10
-359.7295
 20
-210.2024
 30
0.0
 10
-358.962
 20
-210.3628
 30
0.0
 10
-358.187
 20
-210.4868
 30
0.0
 10
-357.4121
 20
-210.5799
 30
0.0
 10
-323.7379
 20
-214.5102
 30
0.0
 10
-289.8905
 20
-207.1203
 30
0.0
 10
-258.7595
 20
-189.031
 30
0.0
 10
-262.4238
 20
-196.2657
 30
0.0
 10
-265.851
 20
-203.7227
 30
0.0
 10
-269.0299
 20
-211.3815
 30
0.0
 10
-275.6775
 20
-227.7798
 30
0.0
 10
-281.678
 20
-244.6642
 30
0.0
 10
-286.9975
 20
-261.9571
 30
0.0
 10
-303.0502
 20
-257.5408
 30
0.0
 10
-319.4039
 20
-255.5706
 30
0.0
 10
-335.7727
 20
-256.0773
 30
0.0
 10
-360.9785
 20
-257.4477
 30
0.0
 10
-385.9661
 20
-262.9759
 30
0.0
 10
-410.2126
 20
-272.5429
 30
0.0
 10
-412.8761
 20
-257.4374
 30
0.0
 10
-417.733
 20
-243.2317
 30
0.0
 10
-424.5047
 20
-230.7843
 30
0.0
 10
-431.2124
 20
-218.4455
 30
0.0
 10
-438.5898
 20
-206.8204
 30
0.0
 10
-446.5767
 20
-196.0123
 30
0.0
 10
-457.5769
 20
-181.1292
 30
0.0
 10
-471.8502
 20
-171.6864
 30
0.0
 10
-487.1769
 20
-169.1575
 30
0.0
 10
-502.3643
 20
-166.6495
 30
0.0
 10
-517.7549
 20
-169.8609
 30
0.0
 10
-531.7197
 20
-178.4453
 30
0.0
 10
-533.2509
 20
-190.4221
 30
0.0
 10
-532.6903
 20
-202.7195
 30
0.0
 10
-530.0832
 20
-214.3395
 30
0.0
 10
-523.1271
 20
-245.352
 30
0.0
 10
-509.2075
 20
-272.5222
 30
0.0
 10
-490.3069
 20
-291.9663
 30
0.0
 10
-485.6156
 20
-296.7964
 30
0.0
 10
-480.567
 20
-300.9283
 30
0.0
 10
-475.2436
 20
-304.3
 30
0.0
 10
-482.5797
 20
-305.9135
 30
0.0
 10
-489.7576
 20
-308.675
 30
0.0
 10
-496.6384
 20
-312.5327
 30
0.0
 10
-506.7396
 20
-318.4695
 30
0.0
 10
-516.2689
 20
-326.092
 30
0.0
 10
-525.0157
 20
-335.2297
 30
0.0
  0
SPLINE
  5
81
330
1F
100
AcDbEntity
  8
Layer 1
 62
   250
370
    20
100
AcDbSpline
210
0.0
220
0.0
230
1.0
 70
    11
 71
     3
 72
    26
 73
    22
 74
     0
 42
0.0000000001
 43
0.0000000001
 40
0.0
 40
0.0
 40
0.0
 40
0.0
 40
0.1428571428571428
 40
0.1428571428571428
 40
0.1428571428571428
 40
0.2857142857142857
 40
0.2857142857142857
 40
0.2857142857142857
 40
0.4285714285714285
 40
0.4285714285714285
 40
0.4285714285714285
 40
0.5714285714285714
 40
0.5714285714285714
 40
0.5714285714285714
 40
0.7142857142857142
 40
0.7142857142857142
 40
0.7142857142857142
 40
0.8571428571428571
 40
0.8571428571428571
 40
0.8571428571428571
 40
1.0
 40
1.0
 40
1.0
 40
1.0
 10
-569.1485
 20
-590.0265
 30
0.0
 10
-569.1485
 20
-590.0265
 30
0.0
 10
-627.8441
 20
-590.0265
 30
0.0
 10
-627.8441
 20
-590.0265
 30
0.0
 10
-622.7992
 20
-561.5893
 30
0.0
 10
-612.2804
 20
-535.5207
 30
0.0
 10
-597.409
 20
-514.5715
 30
0.0
 10
-563.2571
 20
-466.4678
 30
0.0
 10
-523.304
 20
-426.8244
 30
0.0
 10
-479.3368
 20
-397.4098
 30
0.0
 10
-485.909
 20
-409.428
 30
0.0
 10
-492.5115
 20
-421.4203
 30
0.0
 10
-499.1403
 20
-433.3817
 30
0.0
 10
-507.4205
 20
-447.8148
 30
0.0
 10
-515.9078
 20
-462.0308
 30
0.0
 10
-524.5868
 20
-476.0141
 30
0.0
 10
-533.2847
 20
-490.0284
 30
0.0
 10
-541.0948
 20
-505.0305
 30
0.0
 10
-547.9342
 20
-520.8702
 30
0.0
 10
-557.0534
 20
-542.6312
 30
0.0
 10
-564.1788
 20
-565.8557
 30
0.0
 10
-569.1485
 20
-590.0265
 30
0.0
  0
SPLINE
  5
82
330
1F
100
AcDbEntity
  8
Layer 1
 62
   250
370
    20
100
AcDbSpline
210
0.0
220
0.0
230
1.0
 70
    11
 71
     3
 72
    32
 73
    28
 74
     0
 42
0.0000000001
 43
0.0000000001
 40
0.0
 40
0.0
 40
0.0
 40
0.0
 40
0.1111111111111111
 40
0.1111111111111111
 40
0.1111111111111111
 40
0.2222222222222222
 40
0.2222222222222222
 40
0.2222222222222222
 40
0.3333333333333333
 40
0.3333333333333333
 40
0.3333333333333333
 40
0.4444444444444444
 40
0.4444444444444444
 40
0.4444444444444444
 40
0.5555555555555556
 40
0.5555555555555556
 40
0.5555555555555556
 40
0.6666666666666666
 40
0.6666666666666666
 40
0.6666666666666666
 40
0.7777777777777777
 40
0.7777777777777777
 40
0.7777777777777777
 40
0.8888888888888888
 40
0.8888888888888888
 40
0.8888888888888888
 40
1.0
 40
1.0
 40
1.0
 40
1.0
 10
-659.4793
 20
-590.0265
 30
0.0
 10
-659.4793
 20
-590.0265
 30
0.0
 10
-749.1555
 20
-590.0265
 30
0.0
 10
-749.1555
 20
-590.0265
 30
0.0
 10
-753.0455
 20
-565.8298
 30
0.0
 10
-755.0282
 20
-541.1264
 30
0.0
 10
-755.0695
 20
-516.3505
 30
0.0
 10
-755.1072
 20
-491.4867
 30
0.0
 10
-752.2705
 20
-466.7678
 30
0.0
 10
-746.6651
 20
-443.1296
 30
0.0
 10
-735.883
 20
-399.861
 30
0.0
 10
-716.294
 20
-361.7276
 30
0.0
 10
-690.2492
 20
-333.275
 30
0.0
 10
-685.3811
 20
-327.9537
 30
0.0
 10
-680.069
 20
-323.4546
 30
0.0
 10
-674.426
 20
-319.8606
 30
0.0
 10
-662.8915
 20
-339.4444
 30
0.0
 10
-649.9087
 20
-357.3165
 30
0.0
 10
-635.6767
 20
-373.1925
 30
0.0
 10
-621.4825
 20
-389.0323
 30
0.0
 10
-606.9948
 20
-404.3601
 30
0.0
 10
-592.2211
 20
-419.1604
 30
0.0
 10
-609.7336
 20
-431.1941
 30
0.0
 10
-623.9843
 20
-450.5866
 30
0.0
 10
-632.9079
 20
-474.5402
 30
0.0
 10
-646.3873
 20
-510.7344
 30
0.0
 10
-655.3712
 20
-549.7573
 30
0.0
 10
-659.4793
 20
-590.0265
 30
0.0
  0
SPLINE
  5
83
330
1F
100
AcDbEntity
  8
Layer 1
 62
   250
370
    20
100
AcDbSpline
210
0.0
220
0.0
230
1.0
 70
    11
 71
     3
 72
    29
 73
    25
 74
     0
 42
0.0000000001
 43
0.0000000001
 40
0.0
 40
0.0
 40
0.0
 40
0.0
 40
0.125
 40
0.125
 40
0.125
 40
0.25
 40
0.25
 40
0.25
 40
0.375
 40
0.375
 40
0.375
 40
0.5
 40
0.5
 40
0.5
 40
0.625
 40
0.625
 40
0.625
 40
0.75
 40
0.75
 40
0.75
 40
0.875
 40
0.875
 40
0.875
 40
1.0
 40
1.0
 40
1.0
 40
1.0
 10
-797.9044
 20
154.4903
 30
0.0
 10
-801.0607
 20
208.6755
 30
0.0
 10
-794.7744
 20
263.14
 30
0.0
 10
-779.5756
 20
313.3226
 30
0.0
 10
-764.4408
 20
363.2932
 30
0.0
 10
-742.2484
 20
408.6613
 30
0.0
 10
-714.2963
 20
446.7843
 30
0.0
 10
-684.561
 20
485.4091
 30
0.0
 10
-648.9418
 20
514.4926
 30
0.0
 10
-610.0421
 20
531.9148
 30
0.0
 10
-609.331
 20
516.3647
 30
0.0
 10
-607.1415
 20
501.011
 30
0.0
 10
-603.5299
 20
486.2416
 30
0.0
 10
-599.9033
 20
471.4206
 30
0.0
 10
-594.4258
 20
457.5925
 30
0.0
 10
-587.3342
 20
445.3622
 30
0.0
 10
-625.1919
 20
431.441
 30
0.0
 10
-660.766
 20
407.7615
 30
0.0
 10
-692.1829
 20
375.57
 30
0.0
 10
-723.7203
 20
343.2543
 30
0.0
 10
-749.528
 20
301.5837
 30
0.0
 10
-767.6913
 20
253.6195
 30
0.0
 10
-779.7486
 20
221.7849
 30
0.0
 10
-789.8536
 20
188.6314
 30
0.0
 10
-797.9044
 20
154.4903
 30
0.0
  0
SPLINE
  5
84
330
1F
100
AcDbEntity
  8
Layer 1
 62
   250
370
    20
100
AcDbSpline
210
0.0
220
0.0
230
1.0
 70
    11
 71
     3
 72
    92
 73
    88
 74
     0
 42
0.0000000001
 43
0.0000000001
 40
0.0
 40
0.0
 40
0.0
 40
0.0
 40
0.0344827586206897
 40
0.0344827586206897
 40
0.0344827586206897
 40
0.0689655172413793
 40
0.0689655172413793
 40
0.0689655172413793
 40
0.103448275862069
 40
0.103448275862069
 40
0.103448275862069
 40
0.1379310344827586
 40
0.1379310344827586
 40
0.1379310344827586
 40
0.1724137931034483
 40
0.1724137931034483
 40
0.1724137931034483
 40
0.2068965517241379
 40
0.2068965517241379
 40
0.2068965517241379
 40
0.2413793103448276
 40
0.2413793103448276
 40
0.2413793103448276
 40
0.2758620689655172
 40
0.2758620689655172
 40
0.2758620689655172
 40
0.3103448275862069
 40
0.3103448275862069
 40
0.3103448275862069
 40
0.3448275862068966
 40
0.3448275862068966
 40
0.3448275862068966
 40
0.3793103448275862
 40
0.3793103448275862
 40
0.3793103448275862
 40
0.4137931034482759
 40
0.4137931034482759
 40
0.4137931034482759
 40
0.4482758620689655
 40
0.4482758620689655
 40
0.4482758620689655
 40
0.4827586206896551
 40
0.4827586206896551
 40
0.4827586206896551
 40
0.5172413793103449
 40
0.5172413793103449
 40
0.5172413793103449
 40
0.5517241379310345
 40
0.5517241379310345
 40
0.5517241379310345
 40
0.5862068965517241
 40
0.5862068965517241
 40
0.5862068965517241
 40
0.6206896551724138
 40
0.6206896551724138
 40
0.6206896551724138
 40
0.6551724137931034
 40
0.6551724137931034
 40
0.6551724137931034
 40
0.6896551724137931
 40
0.6896551724137931
 40
0.6896551724137931
 40
0.7241379310344828
 40
0.7241379310344828
 40
0.7241379310344828
 40
0.7586206896551724
 40
0.7586206896551724
 40
0.7586206896551724
 40
0.7931034482758621
 40
0.7931034482758621
 40
0.7931034482758621
 40
0.8275862068965517
 40
0.8275862068965517
 40
0.8275862068965517
 40
0.8620689655172413
 40
0.8620689655172413
 40
0.8620689655172413
 40
0.896551724137931
 40
0.896551724137931
 40
0.896551724137931
 40
0.9310344827586207
 40
0.9310344827586207
 40
0.9310344827586207
 40
0.9655172413793103
 40
0.9655172413793103
 40
0.9655172413793103
 40
1.0
 40
1.0
 40
1.0
 40
1.0
 10
-1077.2713
 20
-300.3905
 30
0.0
 10
-1056.7455
 20
-268.4264
 30
0.0
 10
-1035.8586
 20
-236.902
 30
0.0
 10
-1014.6218
 20
-205.8275
 30
0.0
 10
-995.3073
 20
-178.6056
 30
0.0
 10
-975.9139
 20
-151.4923
 30
0.0
 10
-956.4414
 20
-124.4928
 30
0.0
 10
-936.9728
 20
-97.4933
 30
0.0
 10
-917.869
 20
-70.0024
 30
0.0
 10
-899.1452
 20
-42.0307
 30
0.0
 10
-889.4316
 20
-27.1838
 30
0.0
 10
-880.0114
 20
-11.9801
 30
0.0
 10
-870.8922
 20
3.565
 30
0.0
 10
-840.3781
 20
-68.1097
 30
0.0
 10
-806.2712
 20
-136.7592
 30
0.0
 10
-768.8048
 20
-201.9076
 30
0.0
 10
-751.5897
 20
-231.8393
 30
0.0
 10
-730.9284
 20
-257.6908
 30
0.0
 10
-707.6337
 20
-278.4381
 30
0.0
 10
-715.3234
 20
-283.5474
 30
0.0
 10
-723.0393
 20
-288.574
 30
0.0
 10
-730.7855
 20
-293.523
 30
0.0
 10
-738.5541
 20
-298.4874
 30
0.0
 10
-746.2664
 20
-303.6225
 30
0.0
 10
-753.9183
 20
-308.9232
 30
0.0
 10
-767.0593
 20
-318.2884
 30
0.0
 10
-780.1701
 20
-327.7262
 30
0.0
 10
-793.2507
 20
-337.2414
 30
0.0
 10
-806.6475
 20
-346.9842
 30
0.0
 10
-821.9251
 20
-350.7541
 30
0.0
 10
-836.9509
 20
-348.0288
 30
0.0
 10
-844.0724
 20
-345.9344
 30
0.0
 10
-850.7839
 20
-341.7353
 30
0.0
 10
-856.6113
 20
-335.7314
 30
0.0
 10
-880.9632
 20
-310.6556
 30
0.0
 10
-902.7606
 20
-281.1945
 30
0.0
 10
-921.4129
 20
-248.1549
 30
0.0
 10
-918.5085
 20
-246.1018
 30
0.0
 10
-915.4651
 20
-244.4263
 30
0.0
 10
-912.3313
 20
-243.1645
 30
0.0
 10
-905.9094
 20
-240.6357
 30
0.0
 10
-899.2919
 20
-239.1826
 30
0.0
 10
-892.6181
 20
-238.831
 30
0.0
 10
-879.0069
 20
-238.1121
 30
0.0
 10
-866.6184
 20
-227.8677
 30
0.0
 10
-859.7941
 20
-211.6607
 30
0.0
 10
-848.9669
 20
-185.954
 30
0.0
 10
-846.3183
 20
-155.2777
 30
0.0
 10
-852.4731
 20
-126.8043
 30
0.0
 10
-855.2683
 20
-113.8864
 30
0.0
 10
-862.8414
 20
-103.9988
 30
0.0
 10
-872.3706
 20
-100.8391
 30
0.0
 10
-876.3058
 20
-99.5359
 30
0.0
 10
-880.4327
 20
-99.8462
 30
0.0
 10
-884.2437
 20
-101.7389
 30
0.0
 10
-894.4652
 20
-106.8172
 30
0.0
 10
-903.7537
 20
-114.8948
 30
0.0
 10
-911.4697
 20
-125.4133
 30
0.0
 10
-919.6184
 20
-136.5265
 30
0.0
 10
-924.9568
 20
-150.9338
 30
0.0
 10
-926.6985
 20
-166.5305
 30
0.0
 10
-928.399
 20
-181.7291
 30
0.0
 10
-930.4306
 20
-196.8604
 30
0.0
 10
-932.7931
 20
-211.8935
 30
0.0
 10
-935.5846
 20
-204.1726
 30
0.0
 10
-938.3873
 20
-196.4571
 30
0.0
 10
-941.2089
 20
-188.7569
 30
0.0
 10
-945.7986
 20
-176.2578
 30
0.0
 10
-950.4184
 20
-163.7846
 30
0.0
 10
-955.072
 20
-151.332
 30
0.0
 10
-958.3187
 20
-173.3722
 30
0.0
 10
-957.9839
 20
-196.1209
 30
0.0
 10
-954.0939
 20
-217.9594
 30
0.0
 10
-950.2453
 20
-239.5756
 30
0.0
 10
-945.1666
 20
-260.7315
 30
0.0
 10
-938.8952
 20
-281.2462
 30
0.0
 10
-933.6245
 20
-298.4874
 30
0.0
 10
-925.4721
 20
-313.7739
 30
0.0
 10
-915.0889
 20
-325.8645
 30
0.0
 10
-904.8259
 20
-337.8154
 30
0.0
 10
-893.7768
 20
-348.4166
 30
0.0
 10
-882.0805
 20
-357.5389
 30
0.0
 10
-884.9735
 20
-358.0456
 30
0.0
 10
-887.8892
 20
-358.3404
 30
0.0
 10
-890.8047
 20
-358.4128
 30
0.0
 10
-955.4483
 20
-360.0935
 30
0.0
 10
-1019.4523
 20
-340.1683
 30
0.0
 10
-1077.2713
 20
-300.3905
 30
0.0
  0
SPLINE
  5
85
330
1F
100
AcDbEntity
  8
Layer 1
 62
   250
370
    20
100
AcDbSpline
210
0.0
220
0.0
230
1.0
 70
    11
 71
     3
 72
    59
 73
    55
 74
     0
 42
0.0000000001
 43
0.0000000001
 40
0.0
 40
0.0
 40
0.0
 40
0.0
 40
0.0555555555555556
 40
0.0555555555555556
 40
0.0555555555555556
 40
0.1111111111111111
 40
0.1111111111111111
 40
0.1111111111111111
 40
0.1666666666666667
 40
0.1666666666666667
 40
0.1666666666666667
 40
0.2222222222222222
 40
0.2222222222222222
 40
0.2222222222222222
 40
0.2777777777777778
 40
0.2777777777777778
 40
0.2777777777777778
 40
0.3333333333333333
 40
0.3333333333333333
 40
0.3333333333333333
 40
0.3888888888888888
 40
0.3888888888888888
 40
0.3888888888888888
 40
0.4444444444444444
 40
0.4444444444444444
 40
0.4444444444444444
 40
0.5
 40
0.5
 40
0.5
 40
0.5555555555555556
 40
0.5555555555555556
 40
0.5555555555555556
 40
0.611111111111111
 40
0.611111111111111
 40
0.611111111111111
 40
0.6666666666666666
 40
0.6666666666666666
 40
0.6666666666666666
 40
0.7222222222222222
 40
0.7222222222222222
 40
0.7222222222222222
 40
0.7777777777777777
 40
0.7777777777777777
 40
0.7777777777777777
 40
0.8333333333333333
 40
0.8333333333333333
 40
0.8333333333333333
 40
0.8888888888888888
 40
0.8888888888888888
 40
0.8888888888888888
 40
0.9444444444444444
 40
0.9444444444444444
 40
0.9444444444444444
 40
1.0
 40
1.0
 40
1.0
 40
1.0
 10
-777.4087
 20
-590.0265
 30
0.0
 10
-777.4087
 20
-590.0265
 30
0.0
 10
-1092.4701
 20
-590.0265
 30
0.0
 10
-1092.4701
 20
-590.0265
 30
0.0
 10
-1088.3431
 20
-575.7122
 30
0.0
 10
-1082.9445
 20
-562.1478
 30
0.0
 10
-1076.3948
 20
-549.6539
 30
0.0
 10
-1045.3766
 20
-490.4577
 30
0.0
 10
-1004.2798
 20
-442.5711
 30
0.0
 10
-956.7236
 20
-410.183
 30
0.0
 10
-949.35
 20
-405.1617
 30
0.0
 10
-941.1449
 20
-402.8811
 30
0.0
 10
-932.9323
 20
-403.5689
 30
0.0
 10
-924.8514
 20
-404.2412
 30
0.0
 10
-916.7968
 20
-405.4254
 30
0.0
 10
-908.7949
 20
-407.1061
 30
0.0
 10
-867.4875
 20
-414.92
 30
0.0
 10
-825.4389
 20
-409.4487
 30
0.0
 10
-785.9335
 20
-391.0956
 30
0.0
 10
-777.5028
 20
-387.181
 30
0.0
 10
-769.3541
 20
-382.2113
 30
0.0
 10
-761.5855
 20
-376.2488
 30
0.0
 10
-765.7463
 20
-393.2832
 30
0.0
 10
-769.7905
 20
-410.3641
 30
0.0
 10
-773.7218
 20
-427.5018
 30
0.0
 10
-776.9949
 20
-441.7644
 30
0.0
 10
-780.1737
 20
-456.0683
 30
0.0
 10
-783.2625
 20
-470.4084
 30
0.0
 10
-783.6123
 20
-470.1084
 30
0.0
 10
-783.966
 20
-469.8136
 30
0.0
 10
-784.3271
 20
-469.5344
 30
0.0
 10
-813.8518
 20
-446.7495
 30
0.0
 10
-848.8276
 20
-441.4644
 30
0.0
 10
-881.2453
 20
-454.9151
 30
0.0
 10
-894.6421
 20
-460.4743
 30
0.0
 10
-907.0418
 20
-469.8033
 30
0.0
 10
-917.6621
 20
-482.3283
 30
0.0
 10
-910.5217
 20
-491.2695
 30
0.0
 10
-902.644
 20
-499.0214
 30
0.0
 10
-894.1793
 20
-505.4287
 30
0.0
 10
-885.7485
 20
-511.81
 30
0.0
 10
-877.2501
 20
-518.0208
 30
0.0
 10
-868.6839
 20
-524.0558
 30
0.0
 10
-855.0614
 20
-533.659
 30
0.0
 10
-839.8928
 20
-538.3338
 30
0.0
 10
-824.5887
 20
-537.646
 30
0.0
 10
-809.3335
 20
-536.9582
 30
0.0
 10
-794.4019
 20
-531.4353
 30
0.0
 10
-780.9563
 20
-521.4908
 30
0.0
 10
-782.0398
 20
-532.9246
 30
0.0
 10
-782.0925
 20
-544.4981
 30
0.0
 10
-781.118
 20
-555.9474
 30
0.0
 10
-780.1437
 20
-567.3605
 30
0.0
 10
-778.906
 20
-578.722
 30
0.0
 10
-777.4087
 20
-590.0265
 30
0.0
  0
SPLINE
  5
86
330
1F
100
AcDbEntity
  8
Layer 1
 62
   250
370
    20
100
AcDbSpline
210
0.0
220
0.0
230
1.0
 70
    11
 71
     3
 72
    29
 73
    25
 74
     0
 42
0.0000000001
 43
0.0000000001
 40
0.0
 40
0.0
 40
0.0
 40
0.0
 40
0.125
 40
0.125
 40
0.125
 40
0.25
 40
0.25
 40
0.25
 40
0.375
 40
0.375
 40
0.375
 40
0.5
 40
0.5
 40
0.5
 40
0.625
 40
0.625
 40
0.625
 40
0.75
 40
0.75
 40
0.75
 40
0.875
 40
0.875
 40
0.875
 40
1.0
 40
1.0
 40
1.0
 40
1.0
 10
-1109.5461
 20
-590.0265
 30
0.0
 10
-1109.5461
 20
-590.0265
 30
0.0
 10
-1161.1992
 20
-590.0265
 30
0.0
 10
-1161.1992
 20
-590.0265
 30
0.0
 10
-1155.0294
 20
-511.2877
 30
0.0
 10
-1137.5245
 20
-434.9951
 30
0.0
 10
-1109.7153
 20
-365.6372
 30
0.0
 10
-1104.1136
 20
-351.659
 30
0.0
 10
-1097.2366
 20
-338.7204
 30
0.0
 10
-1089.2536
 20
-327.1315
 30
0.0
 10
-1076.4061
 20
-338.2653
 30
0.0
 10
-1062.8288
 20
-347.7133
 30
0.0
 10
-1048.6985
 20
-355.3618
 30
0.0
 10
-1034.5945
 20
-362.9998
 30
0.0
 10
-1020.2799
 20
-369.8622
 30
0.0
 10
-1005.7809
 20
-375.9488
 30
0.0
 10
-1021.3859
 20
-397.9632
 30
0.0
 10
-1036.0165
 20
-421.2497
 30
0.0
 10
-1049.5939
 20
-445.6791
 30
0.0
 10
-1064.2358
 20
-472.027
 30
0.0
 10
-1077.4858
 20
-499.7764
 30
0.0
 10
-1089.2536
 20
-528.7204
 30
0.0
 10
-1097.0522
 20
-548.48
 30
0.0
 10
-1103.8353
 20
-568.9637
 30
0.0
 10
-1109.5461
 20
-590.0265
 30
0.0
  0
SPLINE
  5
87
330
1F
100
AcDbEntity
  8
Layer 1
 62
   250
370
    20
100
AcDbSpline
210
0.0
220
0.0
230
1.0
 70
    11
 71
     3
 72
   122
 73
   118
 74
     0
 42
0.0000000001
 43
0.0000000001
 40
0.0
 40
0.0
 40
0.0
 40
0.0
 40
0.0256410256410256
 40
0.0256410256410256
 40
0.0256410256410256
 40
0.0512820512820513
 40
0.0512820512820513
 40
0.0512820512820513
 40
0.0769230769230769
 40
0.0769230769230769
 40
0.0769230769230769
 40
0.1025641025641026
 40
0.1025641025641026
 40
0.1025641025641026
 40
0.1282051282051282
 40
0.1282051282051282
 40
0.1282051282051282
 40
0.1538461538461539
 40
0.1538461538461539
 40
0.1538461538461539
 40
0.1794871794871795
 40
0.1794871794871795
 40
0.1794871794871795
 40
0.2051282051282051
 40
0.2051282051282051
 40
0.2051282051282051
 40
0.2307692307692308
 40
0.2307692307692308
 40
0.2307692307692308
 40
0.2564102564102564
 40
0.2564102564102564
 40
0.2564102564102564
 40
0.282051282051282
 40
0.282051282051282
 40
0.282051282051282
 40
0.3076923076923077
 40
0.3076923076923077
 40
0.3076923076923077
 40
0.3333333333333333
 40
0.3333333333333333
 40
0.3333333333333333
 40
0.358974358974359
 40
0.358974358974359
 40
0.358974358974359
 40
0.3846153846153846
 40
0.3846153846153846
 40
0.3846153846153846
 40
0.4102564102564102
 40
0.4102564102564102
 40
0.4102564102564102
 40
0.4358974358974359
 40
0.4358974358974359
 40
0.4358974358974359
 40
0.4615384615384615
 40
0.4615384615384615
 40
0.4615384615384615
 40
0.4871794871794872
 40
0.4871794871794872
 40
0.4871794871794872
 40
0.5128205128205128
 40
0.5128205128205128
 40
0.5128205128205128
 40
0.5384615384615384
 40
0.5384615384615384
 40
0.5384615384615384
 40
0.5641025641025641
 40
0.5641025641025641
 40
0.5641025641025641
 40
0.5897435897435898
 40
0.5897435897435898
 40
0.5897435897435898
 40
0.6153846153846154
 40
0.6153846153846154
 40
0.6153846153846154
 40
0.641025641025641
 40
0.641025641025641
 40
0.641025641025641
 40
0.6666666666666666
 40
0.6666666666666666
 40
0.6666666666666666
 40
0.6923076923076923
 40
0.6923076923076923
 40
0.6923076923076923
 40
0.717948717948718
 40
0.717948717948718
 40
0.717948717948718
 40
0.7435897435897436
 40
0.7435897435897436
 40
0.7435897435897436
 40
0.7692307692307692
 40
0.7692307692307692
 40
0.7692307692307692
 40
0.7948717948717948
 40
0.7948717948717948
 40
0.7948717948717948
 40
0.8205128205128205
 40
0.8205128205128205
 40
0.8205128205128205
 40
0.8461538461538461
 40
0.8461538461538461
 40
0.8461538461538461
 40
0.8717948717948718
 40
0.8717948717948718
 40
0.8717948717948718
 40
0.8974358974358974
 40
0.8974358974358974
 40
0.8974358974358974
 40
0.923076923076923
 40
0.923076923076923
 40
0.923076923076923
 40
0.9487179487179487
 40
0.9487179487179487
 40
0.9487179487179487
 40
0.9743589743589743
 40
0.9743589743589743
 40
0.9743589743589743
 40
1.0
 40
1.0
 40
1.0
 40
1.0
 10
-1026.6565
 20
589.9734
 30
0.0
 10
-1026.6565
 20
589.9734
 30
0.0
 10
-1200.05
 20
589.9734
 30
0.0
 10
-1200.05
 20
589.9734
 30
0.0
 10
-1200.05
 20
589.9734
 30
0.0
 10
-1200.05
 20
119.4649
 30
0.0
 10
-1200.05
 20
119.4649
 30
0.0
 10
-1191.7509
 20
121.1817
 30
0.0
 10
-1183.3954
 20
122.3142
 30
0.0
 10
-1175.0135
 20
122.8676
 30
0.0
 10
-1166.5225
 20
123.4313
 30
0.0
 10
-1158.0504
 20
121.2542
 30
0.0
 10
-1150.2817
 20
116.5172
 30
0.0
 10
-1156.9217
 20
145.9524
 30
0.0
 10
-1156.3461
 20
177.5906
 30
0.0
 10
-1148.6527
 20
206.5397
 30
0.0
 10
-1140.6734
 20
236.5593
 30
0.0
 10
-1122.1001
 20
258.9461
 30
0.0
 10
-1099.4074
 20
265.917
 30
0.0
 10
-1089.4867
 20
268.9681
 30
0.0
 10
-1079.3292
 20
270.3333
 30
0.0
 10
-1069.1641
 20
269.992
 30
0.0
 10
-1065.2177
 20
245.4333
 30
0.0
 10
-1064.6497
 20
220.068
 30
0.0
 10
-1067.49
 20
195.2249
 30
0.0
 10
-1069.3297
 20
179.9125
 30
0.0
 10
-1073.0879
 20
165.1432
 30
0.0
 10
-1078.5919
 20
151.5944
 30
0.0
 10
-1084.1484
 20
137.9161
 30
0.0
 10
-1092.1955
 20
126.4462
 30
0.0
 10
-1101.9354
 20
118.3168
 30
0.0
 10
-1109.3881
 20
112.0957
 30
0.0
 10
-1117.3185
 20
107.0175
 30
0.0
 10
-1125.5762
 20
103.17
 30
0.0
 10
-1111.1337
 20
95.0407
 30
0.0
 10
-1098.1772
 20
82.5932
 30
0.0
 10
-1087.6547
 20
66.7483
 30
0.0
 10
-1077.2074
 20
51.0171
 30
0.0
 10
-1068.3854
 20
33.3828
 30
0.0
 10
-1061.4368
 20
14.3471
 30
0.0
 10
-1054.8682
 20
-4.3834
 30
0.0
 10
-1050.2485
 20
-24.293
 30
0.0
 10
-1047.7091
 20
-44.787
 30
0.0
 10
-1045.181
 20
-65.1879
 30
0.0
 10
-1043.2059
 20
-85.7181
 30
0.0
 10
-1041.78
 20
-106.3207
 30
0.0
 10
-1041.6221
 20
-108.6219
 30
0.0
 10
-1041.5393
 20
-110.9335
 30
0.0
 10
-1041.5355
 20
-113.2451
 30
0.0
 10
-1025.6634
 20
-70.3696
 30
0.0
 10
-1007.5942
 20
-29.0972
 30
0.0
 10
-987.4672
 20
10.2567
 30
0.0
 10
-967.2838
 20
49.7191
 30
0.0
 10
-943.5226
 20
85.4944
 30
0.0
 10
-916.7705
 20
116.7137
 30
0.0
 10
-920.9238
 20
126.5703
 30
0.0
 10
-924.8702
 20
136.5871
 30
0.0
 10
-928.6097
 20
146.7488
 30
0.0
 10
-931.1679
 20
153.7559
 30
0.0
 10
-933.5945
 20
160.851
 30
0.0
 10
-935.8931
 20
168.0237
 30
0.0
 10
-941.7055
 20
168.727
 30
0.0
 10
-947.5593
 20
167.8582
 30
0.0
 10
-953.1308
 20
165.4742
 30
0.0
 10
-987.9524
 20
150.5498
 30
0.0
 10
-1017.2401
 20
117.7945
 30
0.0
 10
-1034.9368
 20
73.952
 30
0.0
 10
-1037.4725
 20
67.6688
 30
0.0
 10
-1039.6507
 20
61.127
 30
0.0
 10
-1041.4565
 20
54.3837
 30
0.0
 10
-1043.2623
 20
47.6247
 30
0.0
 10
-1044.4586
 20
40.5917
 30
0.0
 10
-1045.0229
 20
33.4294
 30
0.0
 10
-1049.2177
 20
45.7113
 30
0.0
 10
-1051.5087
 20
59.0585
 30
0.0
 10
-1051.7533
 20
72.6177
 30
0.0
 10
-1051.9978
 20
86.0632
 30
0.0
 10
-1051.3432
 20
99.5139
 30
0.0
 10
-1049.8008
 20
112.7938
 30
0.0
 10
-1046.46
 20
141.5775
 30
0.0
 10
-1036.69
 20
168.2409
 30
0.0
 10
-1021.8562
 20
189.0762
 30
0.0
 10
-1007.2857
 20
209.534
 30
0.0
 10
-990.5558
 20
226.8631
 30
0.0
 10
-972.2384
 20
240.4792
 30
0.0
 10
-967.3928
 20
244.0836
 30
0.0
 10
-962.3366
 20
247.114
 30
0.0
 10
-957.1224
 20
249.5498
 30
0.0
 10
-961.3434
 20
261.0818
 30
0.0
 10
-965.1581
 20
272.8828
 30
0.0
 10
-968.5591
 20
284.9164
 30
0.0
 10
-970.4288
 20
291.6961
 30
0.0
 10
-972.0992
 20
298.5791
 30
0.0
 10
-973.5588
 20
305.5449
 30
0.0
 10
-988.2497
 20
303.1092
 30
0.0
 10
-1003.1324
 20
303.7866
 30
0.0
 10
-1017.6765
 20
307.5514
 30
0.0
 10
-1032.1454
 20
311.3006
 30
0.0
 10
-1046.4563
 20
316.1048
 30
0.0
 10
-1060.5527
 20
321.9536
 30
0.0
 10
-1078.2758
 20
329.302
 30
0.0
 10
-1095.175
 20
339.9808
 30
0.0
 10
-1110.7725
 20
353.6797
 30
0.0
 10
-1130.6926
 20
371.1846
 30
0.0
 10
-1147.9341
 20
393.8816
 30
0.0
 10
-1161.5153
 20
420.483
 30
0.0
 10
-1151.9972
 20
414.055
 30
0.0
 10
-1142.4528
 20
407.6942
 30
0.0
 10
-1132.8859
 20
401.4111
 30
0.0
 10
-1087.7788
 20
371.7897
 30
0.0
 10
-1037.3747
 20
361.0023
 30
0.0
 10
-987.8547
 20
370.3831
 30
0.0
 10
-996.5526
 20
391.0064
 30
0.0
 10
-1003.3055
 20
413.0673
 30
0.0
 10
-1007.9516
 20
436.0332
 30
0.0
 10
-1018.1204
 20
486.2933
 30
0.0
 10
-1024.3918
 20
537.9032
 30
0.0
 10
-1026.6565
 20
589.9734
 30
0.0
  0
SPLINE
  5
88
330
1F
100
AcDbEntity
  8
Layer 1
 62
   250
370
    20
100
AcDbSpline
210
0.0
220
0.0
230
1.0
 70
    11
 71
     3
 72
    47
 73
    43
 74
     0
 42
0.0000000001
 43
0.0000000001
 40
0.0
 40
0.0
 40
0.0
 40
0.0
 40
0.0714285714285714
 40
0.0714285714285714
 40
0.0714285714285714
 40
0.1428571428571428
 40
0.1428571428571428
 40
0.1428571428571428
 40
0.2142857142857143
 40
0.2142857142857143
 40
0.2142857142857143
 40
0.2857142857142857
 40
0.2857142857142857
 40
0.2857142857142857
 40
0.3571428571428571
 40
0.3571428571428571
 40
0.3571428571428571
 40
0.4285714285714285
 40
0.4285714285714285
 40
0.4285714285714285
 40
0.5
 40
0.5
 40
0.5
 40
0.5714285714285714
 40
0.5714285714285714
 40
0.5714285714285714
 40
0.6428571428571428
 40
0.6428571428571428
 40
0.6428571428571428
 40
0.7142857142857142
 40
0.7142857142857142
 40
0.7142857142857142
 40
0.7857142857142857
 40
0.7857142857142857
 40
0.7857142857142857
 40
0.8571428571428571
 40
0.8571428571428571
 40
0.8571428571428571
 40
0.9285714285714285
 40
0.9285714285714285
 40
0.9285714285714285
 40
1.0
 40
1.0
 40
1.0
 40
1.0
 10
-1200.05
 20
87.9714
 30
0.0
 10
-1200.05
 20
87.9714
 30
0.0
 10
-1200.05
 20
-120.8004
 30
0.0
 10
-1200.05
 20
-120.8004
 30
0.0
 10
-1182.3533
 20
-162.016
 30
0.0
 10
-1155.0294
 20
-193.7524
 30
0.0
 10
-1122.5102
 20
-210.854
 30
0.0
 10
-1113.1727
 20
-215.7616
 30
0.0
 10
-1102.9549
 20
-216.527
 30
0.0
 10
-1093.2865
 20
-213.0312
 30
0.0
 10
-1089.9382
 20
-200.2476
 30
0.0
 10
-1085.0814
 20
-188.3018
 30
0.0
 10
-1078.9153
 20
-177.6799
 30
0.0
 10
-1072.7757
 20
-167.1045
 30
0.0
 10
-1065.8723
 20
-157.4031
 30
0.0
 10
-1058.3181
 20
-148.7308
 30
0.0
 10
-1060.1013
 20
-120.7487
 30
0.0
 10
-1063.9725
 20
-93.0976
 30
0.0
 10
-1069.8751
 20
-66.2067
 30
0.0
 10
-1075.8267
 20
-39.083
 30
0.0
 10
-1085.879
 20
-14.0072
 30
0.0
 10
-1099.381
 20
7.3969
 30
0.0
 10
-1109.3693
 20
3.7615
 30
0.0
 10
-1118.7029
 20
-2.6458
 30
0.0
 10
-1126.8177
 20
-11.4423
 30
0.0
 10
-1144.2699
 20
-30.3487
 30
0.0
 10
-1160.5785
 20
-51.1529
 30
0.0
 10
-1175.5966
 20
-73.6637
 30
0.0
 10
-1175.623
 20
-57.2706
 30
0.0
 10
-1172.5042
 20
-41.1464
 30
0.0
 10
-1166.5676
 20
-26.9253
 30
0.0
 10
-1154.5291
 20
1.8894
 30
0.0
 10
-1137.5772
 20
26.2671
 30
0.0
 10
-1117.1793
 20
44.103
 30
0.0
 10
-1124.0188
 20
54.7921
 30
0.0
 10
-1132.1034
 20
63.8316
 30
0.0
 10
-1141.106
 20
70.8647
 30
0.0
 10
-1150.0372
 20
77.7064
 30
0.0
 10
-1159.6041
 20
82.8467
 30
0.0
 10
-1169.5434
 20
86.146
 30
0.0
 10
-1179.5317
 20
89.4659
 30
0.0
 10
-1189.8924
 20
90.0865
 30
0.0
 10
-1200.05
 20
87.9714
 30
0.0
  0
SPLINE
  5
89
330
1F
100
AcDbEntity
  8
Layer 1
 62
   250
370
    20
100
AcDbSpline
210
0.0
220
0.0
230
1.0
 70
    11
 71
     3
 72
    20
 73
    16
 74
     0
 42
0.0000000001
 43
0.0000000001
 40
0.0
 40
0.0
 40
0.0
 40
0.0
 40
0.2
 40
0.2
 40
0.2
 40
0.4
 40
0.4
 40
0.4
 40
0.6000000000000001
 40
0.6000000000000001
 40
0.6000000000000001
 40
0.8
 40
0.8
 40
0.8
 40
1.0
 40
1.0
 40
1.0
 40
1.0
 10
-1200.05
 20
-151.3268
 30
0.0
 10
-1200.05
 20
-151.3268
 30
0.0
 10
-1200.05
 20
-264.9927
 30
0.0
 10
-1200.05
 20
-264.9927
 30
0.0
 10
-1194.7078
 20
-255.7412
 30
0.0
 10
-1188.6999
 20
-247.2499
 30
0.0
 10
-1182.1162
 20
-239.6584
 30
0.0
 10
-1175.3822
 20
-231.9582
 30
0.0
 10
-1168.0988
 20
-225.2148
 30
0.0
 10
-1160.3828
 20
-219.5263
 30
0.0
 10
-1160.5559
 20
-219.4023
 30
0.0
 10
-1160.7252
 20
-219.2574
 30
0.0
 10
-1160.8869
 20
-219.1023
 30
0.0
 10
-1178.4708
 20
-202.2489
 30
0.0
 10
-1192.0857
 20
-178.6832
 30
0.0
 10
-1200.05
 20
-151.3268
 30
0.0
  0
SPLINE
  5
8A
330
1F
100
AcDbEntity
  8
Layer 1
 62
   250
370
    20
100
AcDbSpline
210
0.0
220
0.0
230
1.0
 70
    11
 71
     3
 72
    32
 73
    28
 74
     0
 42
0.0000000001
 43
0.0000000001
 40
0.0
 40
0.0
 40
0.0
 40
0.0
 40
0.1111111111111111
 40
0.1111111111111111
 40
0.1111111111111111
 40
0.2222222222222222
 40
0.2222222222222222
 40
0.2222222222222222
 40
0.3333333333333333
 40
0.3333333333333333
 40
0.3333333333333333
 40
0.4444444444444444
 40
0.4444444444444444
 40
0.4444444444444444
 40
0.5555555555555556
 40
0.5555555555555556
 40
0.5555555555555556
 40
0.6666666666666666
 40
0.6666666666666666
 40
0.6666666666666666
 40
0.7777777777777777
 40
0.7777777777777777
 40
0.7777777777777777
 40
0.8888888888888888
 40
0.8888888888888888
 40
0.8888888888888888
 40
1.0
 40
1.0
 40
1.0
 40
1.0
 10
-1200.05
 20
-377.3554
 30
0.0
 10
-1192.6087
 20
-365.3735
 30
0.0
 10
-1181.9657
 20
-357.9991
 30
0.0
 10
-1170.5291
 20
-356.8976
 30
0.0
 10
-1158.7088
 20
-355.7599
 30
0.0
 10
-1147.3774
 20
-363.6204
 30
0.0
 10
-1141.0083
 20
-377.3554
 30
0.0
 10
-1133.4841
 20
-338.9841
 30
0.0
 10
-1123.1647
 20
-301.7454
 30
0.0
 10
-1110.2119
 20
-266.2183
 30
0.0
 10
-1106.7057
 20
-256.6048
 30
0.0
 10
-1102.2853
 20
-247.6688
 30
0.0
 10
-1097.0635
 20
-239.6584
 30
0.0
 10
-1103.8466
 20
-240.4496
 30
0.0
 10
-1110.6596
 20
-240.553
 30
0.0
 10
-1117.454
 20
-239.9738
 30
0.0
 10
-1139.8119
 20
-238.0759
 30
0.0
 10
-1161.6017
 20
-250.0217
 30
0.0
 10
-1176.8606
 20
-272.5687
 30
0.0
 10
-1181.345
 20
-279.188
 30
0.0
 10
-1185.5924
 20
-286.1073
 30
0.0
 10
-1189.5878
 20
-293.3006
 30
0.0
 10
-1193.5906
 20
-300.5043
 30
0.0
 10
-1197.093
 20
-308.2044
 30
0.0
 10
-1200.05
 20
-316.3027
 30
0.0
 10
-1200.05
 20
-316.3027
 30
0.0
 10
-1200.05
 20
-377.3554
 30
0.0
 10
-1200.05
 20
-377.3554
 30
0.0
  0
SPLINE
  5
8B
330
1F
100
AcDbEntity
  8
Layer 1
 62
   250
370
    20
100
AcDbSpline
210
0.0
220
0.0
230
1.0
 70
    11
 71
     3
 72
    23
 73
    19
 74
     0
 42
0.0000000001
 43
0.0000000001
 40
0.0
 40
0.0
 40
0.0
 40
0.0
 40
0.1666666666666667
 40
0.1666666666666667
 40
0.1666666666666667
 40
0.3333333333333333
 40
0.3333333333333333
 40
0.3333333333333333
 40
0.5
 40
0.5
 40
0.5
 40
0.6666666666666666
 40
0.6666666666666666
 40
0.6666666666666666
 40
0.8333333333333333
 40
0.8333333333333333
 40
0.8333333333333333
 40
1.0
 40
1.0
 40
1.0
 40
1.0
 10
-1182.1313
 20
-590.0265
 30
0.0
 10
-1182.0636
 20
-554.2512
 30
0.0
 10
-1178.501
 20
-518.6414
 30
0.0
 10
-1171.5524
 20
-484.1641
 30
0.0
 10
-1165.5594
 20
-455.7839
 30
0.0
 10
-1156.8577
 20
-428.6033
 30
0.0
 10
-1145.6845
 20
-403.3569
 30
0.0
 10
-1154.7548
 20
-407.6335
 30
0.0
 10
-1164.3556
 20
-409.4228
 30
0.0
 10
-1173.93
 20
-408.6265
 30
0.0
 10
-1183.7114
 20
-407.8146
 30
0.0
 10
-1192.9699
 20
-402.2554
 30
0.0
 10
-1200.05
 20
-392.947
 30
0.0
 10
-1200.05
 20
-392.947
 30
0.0
 10
-1200.05
 20
-590.0265
 30
0.0
 10
-1200.05
 20
-590.0265
 30
0.0
 10
-1200.05
 20
-590.0265
 30
0.0
 10
-1182.1313
 20
-590.0265
 30
0.0
 10
-1182.1313
 20
-590.0265
 30
0.0
  0
ENDSEC
  0
SECTION
  2
OBJECTS
  0
DICTIONARY
  5
C
330
0
100
AcDbDictionary
281
     1
  3
ACAD_DETAILVIEWSTYLE
350
93
  3
ACAD_GROUP
350
D
  3
ACAD_LAYOUT
350
1A
  3
ACAD_MATERIAL
350
43
  3
ACAD_MLEADERSTYLE
350
5B
  3
ACAD_MLINESTYLE
350
17
  3
ACAD_PLOTSETTINGS
350
19
  3
ACAD_PLOTSTYLENAME
350
E
  3
ACAD_SCALELIST
350
47
  3
ACAD_SECTIONVIEWSTYLE
350
94
  3
ACAD_TABLESTYLE
350
59
  3
ACAD_VISUALSTYLE
350
2A
  3
ACDB_RECOMPOSE_DATA
350
90
  3
AcDbVariableDictionary
350
8C
  0
SUN
  5
5D
330
29
100
AcDbSun
 90
        1
290
     0
 63
     7
421
 16777215
 40
1.0
291
     1
 91
  2455826
 92
 54000000
292
     0
 70
     2
 71
   256
280
     1
  0
DICTIONARY
  5
93
102
{ACAD_REACTORS
330
C
102
}
330
C
100
AcDbDictionary
281
     1
  0
DICTIONARY
  5
D
102
{ACAD_REACTORS
330
C
102
}
330
C
100
AcDbDictionary
281
     1
  0
DICTIONARY
  5
1A
102
{ACAD_REACTORS
330
C
102
}
330
C
100
AcDbDictionary
281
     1
  3
Layout1
350
1E
  3
Layout2
350
26
  3
Model
350
22
  0
DICTIONARY
  5
43
102
{ACAD_REACTORS
330
C
102
}
330
C
100
AcDbDictionary
281
     1
  3
ByBlock
350
45
  3
ByLayer
350
44
  3
Global
350
46
  0
DICTIONARY
  5
5B
102
{ACAD_REACTORS
330
C
102
}
330
C
100
AcDbDictionary
281
     1
  3
Standard
350
5C
  0
DICTIONARY
  5
17
102
{ACAD_REACTORS
330
C
102
}
330
C
100
AcDbDictionary
281
     1
  3
Standard
350
18
  0
DICTIONARY
  5
19
102
{ACAD_REACTORS
330
C
102
}
330
C
100
AcDbDictionary
281
     1
  0
ACDBDICTIONARYWDFLT
  5
E
102
{ACAD_REACTORS
330
C
102
}
330
C
100
AcDbDictionary
281
     1
  3
Normal
350
F
100
AcDbDictionaryWithDefault
340
F
  0
DICTIONARY
  5
47
102
{ACAD_REACTORS
330
C
102
}
330
C
100
AcDbDictionary
281
     1
  3
A0
350
48
  3
A1
350
49
  3
A2
350
4A
  3
A3
350
4B
  3
A4
350
4C
  3
A5
350
4D
  3
A6
350
4E
  3
A7
350
4F
  3
A8
350
50
  3
A9
350
51
  3
B1
350
52
  3
B2
350
53
  3
B3
350
54
  3
B4
350
55
  3
B5
350
56
  3
B6
350
57
  3
B7
350
58
  0
DICTIONARY
  5
94
102
{ACAD_REACTORS
330
C
102
}
330
C
100
AcDbDictionary
281
     1
  0
DICTIONARY
  5
59
102
{ACAD_REACTORS
330
C
102
}
330
C
100
AcDbDictionary
281
     1
  3
Standard
350
5A
  0
DICTIONARY
  5
2A
102
{ACAD_REACTORS
330
C
102
}
330
C
100
AcDbDictionary
281
     1
  3
2dWireframe
350
2F
  3
Basic
350
32
  3
Brighten
350
36
  3
ColorChange
350
3A
  3
Conceptual
350
34
  3
Dim
350
35
  3
EdgeColorOff
350
3D
  3
Facepattern
350
39
  3
Flat
350
2B
  3
FlatWithEdges
350
2C
  3
Gouraud
350
2D
  3
GouraudWithEdges
350
2E
  3
Hidden
350
31
  3
JitterOff
350
3B
  3
Linepattern
350
38
  3
OverhangOff
350
3C
  3
Realistic
350
33
  3
Shaded
350
42
  3
Shaded with edges
350
41
  3
Shades of Gray
350
3E
  3
Sketchy
350
3F
  3
Thicken
350
37
  3
Wireframe
350
30
  3
X-Ray
350
40
  0
XRECORD
  5
90
102
{ACAD_REACTORS
330
C
102
}
330
C
100
AcDbXrecord
280
     1
 90
        1
330
5A
  0
DICTIONARY
  5
8C
102
{ACAD_REACTORS
330
C
102
}
330
C
100
AcDbDictionary
281
     1
  3
CANNOSCALE
350
8D
  3
CMLEADERSTYLE
350
92
  3
CTABLESTYLE
350
91
  0
LAYOUT
  5
1E
102
{ACAD_REACTORS
330
1A
102
}
330
1A
100
AcDbPlotSettings
  1

  2
none_device
  4

  6

 40
0.0
 41
0.0
 42
0.0
 43
0.0
 44
0.0
 45
0.0
 46
0.0
 47
0.0
 48
0.0
 49
0.0
140
0.0
141
0.0
142
1.0
143
1.0
 70
   688
 72
     0
 73
     0
 74
     5
  7

 75
    16
 76
     0
 77
     2
 78
   300
147
1.0
148
0.0
149
0.0
100
AcDbLayout
  1
Layout1
 70
     1
 71
     1
 10
0.0
 20
0.0
 11
12.0
 21
9.0
 12
0.0
 22
0.0
 32
0.0
 14
1.000000000000000E+20
 24
1.000000000000000E+20
 34
1.000000000000000E+20
 15
-1.000000000000000E+20
 25
-1.000000000000000E+20
 35
-1.000000000000000E+20
146
0.0
 13
0.0
 23
0.0
 33
0.0
 16
1.0
 26
0.0
 36
0.0
 17
0.0
 27
1.0
 37
0.0
 76
     0
330
1B
  0
LAYOUT
  5
26
102
{ACAD_REACTORS
330
1A
102
}
330
1A
100
AcDbPlotSettings
  1

  2
none_device
  4

  6

 40
0.0
 41
0.0
 42
0.0
 43
0.0
 44
0.0
 45
0.0
 46
0.0
 47
0.0
 48
0.0
 49
0.0
140
0.0
141
0.0
142
1.0
143
1.0
 70
   688
 72
     0
 73
     0
 74
     5
  7

 75
    16
 76
     0
 77
     2
 78
   300
147
1.0
148
0.0
149
0.0
100
AcDbLayout
  1
Layout2
 70
     1
 71
     2
 10
0.0
 20
0.0
 11
0.0
 21
0.0
 12
0.0
 22
0.0
 32
0.0
 14
0.0
 24
0.0
 34
0.0
 15
0.0
 25
0.0
 35
0.0
146
0.0
 13
0.0
 23
0.0
 33
0.0
 16
1.0
 26
0.0
 36
0.0
 17
0.0
 27
1.0
 37
0.0
 76
     0
330
23
  0
LAYOUT
  5
22
102
{ACAD_REACTORS
330
1A
102
}
330
1A
100
AcDbPlotSettings
  1

  2
none_device
  4
Letter_(8.50_x_11.00_Inches)
  6

 40
6.35
 41
6.35
 42
6.35000508
 43
6.35000508
 44
215.9
 45
279.4
 46
0.0
 47
0.0
 48
0.0
 49
0.0
140
0.0
141
0.0
142
1.0
143
1.0
 70
  1712
 72
     0
 73
     0
 74
     0
  7

 75
     0
 76
     0
 77
     2
 78
   300
147
1.0
148
0.0
149
0.0
100
AcDbLayout
  1
Model
 70
     1
 71
     0
 10
0.0
 20
0.0
 11
12.0
 21
9.0
 12
0.0
 22
0.0
 32
0.0
 14
-1200.15
 24
-590.1265
 34
0.0
 15
1200.05
 25
590.0734
 35
0.0
146
0.0
 13
0.0
 23
0.0
 33
0.0
 16
1.0
 26
0.0
 36
0.0
 17
0.0
 27
1.0
 37
0.0
 76
     0
330
1F
331
29
  0
MATERIAL
  5
45
102
{ACAD_REACTORS
330
43
102
}
330
43
100
AcDbMaterial
  1
ByBlock
 72
     1
 94
      127
  0
MATERIAL
  5
44
102
{ACAD_REACTORS
330
43
102
}
330
43
100
AcDbMaterial
  1
ByLayer
 72
     1
 94
      127
  0
MATERIAL
  5
46
102
{ACAD_REACTORS
330
43
102
}
330
43
100
AcDbMaterial
  1
Global
 72
     1
 94
      127
  0
MLEADERSTYLE
  5
5C
102
{ACAD_REACTORS
330
5B
102
}
330
5B
100
AcDbMLeaderStyle
179
     2
170
     2
171
     1
172
     0
 90
        2
 40
0.0
 41
0.0
173
     1
 91
-1056964608
340
14
 92
       -2
290
     1
 42
0.09
291
     1
 43
0.36
  3
Standard
341
0
 44
0.18
300

342
11
174
     1
178
     6
175
     1
176
     0
 93
-1056964608
 45
0.18
292
     0
297
     0
 46
0.18
343
0
 94
-1056964608
 47
1.0
 49
1.0
140
1.0
293
     1
141
0.0
294
     1
177
     0
142
1.0
295
     0
296
     0
143
0.125
271
     0
272
     9
273
     9
298
     0
  0
MLINESTYLE
  5
18
102
{ACAD_REACTORS
330
17
102
}
330
17
100
AcDbMlineStyle
  2
Standard
 70
     0
  3

 62
   256
 51
90.0
 52
90.0
 71
     2
 49
0.5
 62
   256
  6
BYLAYER
 49
-0.5
 62
   256
  6
BYLAYER
  0
ACDBPLACEHOLDER
  5
F
102
{ACAD_REACTORS
330
E
102
}
330
E
  0
SCALE
  5
48
102
{ACAD_REACTORS
330
47
102
}
330
47
100
AcDbScale
 70
     0
300
1:1
140
1.0
141
1.0
290
     1
  0
SCALE
  5
49
102
{ACAD_REACTORS
330
47
102
}
330
47
100
AcDbScale
 70
     0
300
1/128" = 1'-0"
140
0.0078125
141
12.0
290
     0
  0
SCALE
  5
4A
102
{ACAD_REACTORS
330
47
102
}
330
47
100
AcDbScale
 70
     0
300
1/64" = 1'-0"
140
0.015625
141
12.0
290
     0
  0
SCALE
  5
4B
102
{ACAD_REACTORS
330
47
102
}
330
47
100
AcDbScale
 70
     0
300
1/32" = 1'-0"
140
0.03125
141
12.0
290
     0
  0
SCALE
  5
4C
102
{ACAD_REACTORS
330
47
102
}
330
47
100
AcDbScale
 70
     0
300
1/16" = 1'-0"
140
0.0625
141
12.0
290
     0
  0
SCALE
  5
4D
102
{ACAD_REACTORS
330
47
102
}
330
47
100
AcDbScale
 70
     0
300
3/32" = 1'-0"
140
0.09375
141
12.0
290
     0
  0
SCALE
  5
4E
102
{ACAD_REACTORS
330
47
102
}
330
47
100
AcDbScale
 70
     0
300
1/8" = 1'-0"
140
0.125
141
12.0
290
     0
  0
SCALE
  5
4F
102
{ACAD_REACTORS
330
47
102
}
330
47
100
AcDbScale
 70
     0
300
3/16" = 1'-0"
140
0.1875
141
12.0
290
     0
  0
SCALE
  5
50
102
{ACAD_REACTORS
330
47
102
}
330
47
100
AcDbScale
 70
     0
300
1/4" = 1'-0"
140
0.25
141
12.0
290
     0
  0
SCALE
  5
51
102
{ACAD_REACTORS
330
47
102
}
330
47
100
AcDbScale
 70
     0
300
3/8" = 1'-0"
140
0.375
141
12.0
290
     0
  0
SCALE
  5
52
102
{ACAD_REACTORS
330
47
102
}
330
47
100
AcDbScale
 70
     0
300
1/2" = 1'-0"
140
0.5
141
12.0
290
     0
  0
SCALE
  5
53
102
{ACAD_REACTORS
330
47
102
}
330
47
100
AcDbScale
 70
     0
300
3/4" = 1'-0"
140
0.75
141
12.0
290
     0
  0
SCALE
  5
54
102
{ACAD_REACTORS
330
47
102
}
330
47
100
AcDbScale
 70
     0
300
1" = 1'-0"
140
1.0
141
12.0
290
     0
  0
SCALE
  5
55
102
{ACAD_REACTORS
330
47
102
}
330
47
100
AcDbScale
 70
     0
300
1-1/2" = 1'-0"
140
1.5
141
12.0
290
     0
  0
SCALE
  5
56
102
{ACAD_REACTORS
330
47
102
}
330
47
100
AcDbScale
 70
     0
300
3" = 1'-0"
140
3.0
141
12.0
290
     0
  0
SCALE
  5
57
102
{ACAD_REACTORS
330
47
102
}
330
47
100
AcDbScale
 70
     0
300
6" = 1'-0"
140
6.0
141
12.0
290
     0
  0
SCALE
  5
58
102
{ACAD_REACTORS
330
47
102
}
330
47
100
AcDbScale
 70
     0
300
1'-0" = 1'-0"
140
12.0
141
12.0
290
     0
  0
TABLESTYLE
  5
5A
102
{ACAD_REACTORS
330
59
102
}
102
{ACAD_XDICTIONARY
360
8E
102
}
330
59
100
AcDbTableStyle
  3
Standard
 70
     0
 71
     0
 40
0.06
 41
0.06
280
     0
281
     0
  7
Standard
140
0.18
170
     2
 62
     0
 63
   257
283
     0
 90
        4
 91
        0
  1

274
    -2
284
     1
 64
     0
275
    -2
285
     1
 65
     0
276
    -2
286
     1
 66
     0
277
    -2
287
     1
 67
     0
278
    -2
288
     1
 68
     0
279
    -2
289
     1
 69
     0
  7
Standard
140
0.25
170
     5
 62
     0
 63
   257
283
     0
 90
        4
 91
        0
  1

274
    -2
284
     1
 64
     0
275
    -2
285
     1
 65
     0
276
    -2
286
     1
 66
     0
277
    -2
287
     1
 67
     0
278
    -2
288
     1
 68
     0
279
    -2
289
     1
 69
     0
  7
Standard
140
0.18
170
     5
 62
     0
 63
   257
283
     0
 90
        4
 91
        0
  1

274
    -2
284
     1
 64
     0
275
    -2
285
     1
 65
     0
276
    -2
286
     1
 66
     0
277
    -2
287
     1
 67
     0
278
    -2
288
     1
 68
     0
279
    -2
289
     1
 69
     0
  0
VISUALSTYLE
  5
2F
102
{ACAD_REACTORS
330
2A
102
}
330
2A
100
AcDbVisualStyle
  2
2dWireframe
 70
     4
177
     3
291
     0
 70
    58
 90
        0
176
     1
 90
        2
176
     1
 90
        0
176
     1
 90
        0
176
     1
 40
0.6
176
     1
 40
30.0
176
     1
 62
     7
420
 16777215
176
     1
 90
        1
176
     1
 90
        4
176
     1
 62
     7
176
     1
 62
   257
176
     1
 90
        1
176
     1
 90
        1
176
     1
 40
1.0
176
     1
 90
        0
176
     1
 62
   257
176
     1
 40
1.0
176
     1
 90
        1
176
     1
 90
        6
176
     1
 90
        2
176
     1
 62
     7
176
     1
 90
        5
176
     1
 90
        0
176
     1
 90
        0
176
     1
290
     0
176
     1
 90
        1
176
     1
 40
0.0
176
     1
 90
        0
176
     1
290
     1
176
     1
290
     1
176
     1
290
     0
176
     1
290
     0
176
     1
290
     0
176
     1
290
     0
176
     1
290
     0
176
     1
290
     0
176
     1
290
     0
176
     1
 90
       50
176
     1
 40
0.0
176
     1
 40
1.0
176
     1
 90
        0
176
     1
 62
    18
420
        0
176
     1
 90
       50
176
     1
 90
        3
176
     1
 62
     5
420
      255
176
     1
290
     0
176
     1
 90
       50
176
     1
 90
       50
176
     1
 90
       50
176
     1
290
     0
176
     1
 90
       50
176
     1
 62
   256
176
     0
 40
1.0
176
     0
 90
        2
176
     1
  1
strokes_ogs.tif
176
     1
290
     0
176
     1
 40
1.0
176
     1
 40
1.0
176
     1
  0
VISUALSTYLE
  5
32
102
{ACAD_REACTORS
330
2A
102
}
330
2A
100
AcDbVisualStyle
  2
Basic
 70
     7
177
     3
291
     1
 70
    58
 90
        1
176
     1
 90
        0
176
     1
 90
        1
176
     1
 90
        0
176
     1
 40
0.6
176
     1
 40
30.0
176
     1
 62
     7
420
 16777215
176
     1
 90
        0
176
     1
 90
        4
176
     1
 62
     7
176
     1
 62
   257
176
     1
 90
        1
176
     1
 90
        1
176
     1
 40
1.0
176
     1
 90
        8
176
     1
 62
     7
176
     1
 40
1.0
176
     1
 90
        1
176
     1
 90
        6
176
     1
 90
        2
176
     1
 62
     7
176
     1
 90
        5
176
     1
 90
        0
176
     1
 90
        0
176
     1
290
     0
176
     1
 90
        1
176
     1
 40
0.0
176
     1
 90
        0
176
     1
290
     0
176
     1
290
     1
176
     1
290
     1
176
     1
290
     0
176
     1
290
     0
176
     1
290
     0
176
     1
290
     0
176
     1
290
     0
176
     1
290
     0
176
     1
 90
       50
176
     1
 40
0.0
176
     1
 40
1.0
176
     1
 90
        0
176
     1
 62
    18
420
        0
176
     1
 90
       50
176
     1
 90
        3
176
     1
 62
     5
420
      255
176
     1
290
     0
176
     1
 90
       50
176
     1
 90
       50
176
     1
 90
       50
176
     1
290
     0
176
     1
 90
       50
176
     1
 62
   256
176
     0
 40
1.0
176
     0
 90
        2
176
     1
  1
strokes_ogs.tif
176
     1
290
     0
176
     1
 40
1.0
176
     1
 40
1.0
176
     1
  0
VISUALSTYLE
  5
36
102
{ACAD_REACTORS
330
2A
102
}
330
2A
100
AcDbVisualStyle
  2
Brighten
 70
    12
177
     3
291
     1
 70
    58
 90
        2
176
     1
 90
        2
176
     1
 90
        0
176
     1
 90
        0
176
     1
 40
0.6
176
     1
 40
30.0
176
     1
 62
     7
420
 16777215
176
     1
 90
        1
176
     1
 90
        4
176
     1
 62
     7
176
     1
 62
   257
176
     1
 90
        1
176
     1
 90
        1
176
     1
 40
1.0
176
     1
 90
        8
176
     1
 62
     7
176
     1
 40
1.0
176
     1
 90
        1
176
     1
 90
        6
176
     1
 90
        2
176
     1
 62
     7
176
     1
 90
        5
176
     1
 90
        0
176
     1
 90
        0
176
     1
290
     0
176
     1
 90
        1
176
     1
 40
50.0
176
     1
 90
        0
176
     1
290
     0
176
     1
290
     1
176
     1
290
     1
176
     1
290
     0
176
     1
290
     0
176
     1
290
     0
176
     1
290
     0
176
     1
290
     0
176
     1
290
     0
176
     1
 90
       50
176
     1
 40
0.0
176
     1
 40
1.0
176
     1
 90
        0
176
     1
 62
    18
420
        0
176
     1
 90
       50
176
     1
 90
        3
176
     1
 62
     5
420
      255
176
     1
290
     0
176
     1
 90
       50
176
     1
 90
       50
176
     1
 90
       50
176
     1
290
     0
176
     1
 90
       50
176
     1
 62
   256
176
     0
 40
1.0
176
     0
 90
        2
176
     1
  1
strokes_ogs.tif
176
     1
290
     0
176
     1
 40
1.0
176
     1
 40
1.0
176
     1
  0
VISUALSTYLE
  5
3A
102
{ACAD_REACTORS
330
2A
102
}
330
2A
100
AcDbVisualStyle
  2
ColorChange
 70
    16
177
     3
291
     1
 70
    58
 90
        2
176
     1
 90
        2
176
     1
 90
        3
176
     1
 90
        0
176
     1
 40
0.6
176
     1
 40
30.0
176
     1
 62
     8
420
  8421504
176
     1
 90
        1
176
     1
 90
        4
176
     1
 62
     7
176
     1
 62
   257
176
     1
 90
        1
176
     1
 90
        1
176
     1
 40
1.0
176
     1
 90
        8
176
     1
 62
     8
420
  8421504
176
     1
 40
1.0
176
     1
 90
        1
176
     1
 90
        6
176
     1
 90
        2
176
     1
 62
     7
176
     1
 90
        5
176
     1
 90
        0
176
     1
 90
        0
176
     1
290
     0
176
     1
 90
        1
176
     1
 40
0.0
176
     1
 90
        0
176
     1
290
     0
176
     1
290
     1
176
     1
290
     1
176
     1
290
     0
176
     1
290
     0
176
     1
290
     0
176
     1
290
     0
176
     1
290
     0
176
     1
290
     0
176
     1
 90
       50
176
     1
 40
0.0
176
     1
 40
1.0
176
     1
 90
        0
176
     1
 62
    18
420
        0
176
     1
 90
       50
176
     1
 90
        3
176
     1
 62
     5
420
      255
176
     1
290
     0
176
     1
 90
       50
176
     1
 90
       50
176
     1
 90
       50
176
     1
290
     0
176
     1
 90
       50
176
     1
 62
   256
176
     0
 40
1.0
176
     0
 90
        2
176
     1
  1
strokes_ogs.tif
176
     1
290
     0
176
     1
 40
1.0
176
     1
 40
1.0
176
     1
  0
VISUALSTYLE
  5
34
102
{ACAD_REACTORS
330
2A
102
}
330
2A
100
AcDbVisualStyle
  2
Conceptual
 70
     9
177
     3
291
     0
 70
    58
 90
        3
176
     1
 90
        2
176
     1
 90
        0
176
     1
 90
        0
176
     1
 40
0.6
176
     1
 40
30.0
176
     1
 62
     7
420
 16777215
176
     1
 90
        2
176
     1
 90
        2
176
     1
 62
     7
176
     1
 62
   257
176
     1
 90
        1
176
     1
 90
        1
176
     1
 40
179.0
176
     1
 90
        8
176
     1
 62
     7
176
     1
 40
1.0
176
     1
 90
        1
176
     1
 90
        6
176
     1
 90
        2
176
     1
 62
     7
176
     1
 90
        3
176
     1
 90
        0
176
     1
 90
        0
176
     1
290
     0
176
     1
 90
        1
176
     1
 40
0.0
176
     1
 90
        0
176
     1
290
     0
176
     1
290
     1
176
     1
290
     1
176
     1
290
     0
176
     1
290
     0
176
     1
290
     0
176
     1
290
     0
176
     1
290
     0
176
     1
290
     0
176
     1
 90
       50
176
     1
 40
0.0
176
     1
 40
1.0
176
     1
 90
        0
176
     1
 62
    18
420
        0
176
     1
 90
       50
176
     1
 90
        3
176
     1
 62
     5
420
      255
176
     1
290
     0
176
     1
 90
       50
176
     1
 90
       50
176
     1
 90
       50
176
     1
290
     0
176
     1
 90
       50
176
     1
 62
   256
176
     0
 40
1.0
176
     0
 90
        2
176
     1
  1
strokes_ogs.tif
176
     1
290
     0
176
     1
 40
1.0
176
     1
 40
1.0
176
     1
  0
VISUALSTYLE
  5
35
102
{ACAD_REACTORS
330
2A
102
}
330
2A
100
AcDbVisualStyle
  2
Dim
 70
    11
177
     3
291
     1
 70
    58
 90
        2
176
     1
 90
        2
176
     1
 90
        0
176
     1
 90
        0
176
     1
 40
0.6
176
     1
 40
30.0
176
     1
 62
     7
420
 16777215
176
     1
 90
        1
176
     1
 90
        4
176
     1
 62
     7
176
     1
 62
   257
176
     1
 90
        1
176
     1
 90
        1
176
     1
 40
1.0
176
     1
 90
        8
176
     1
 62
     7
176
     1
 40
1.0
176
     1
 90
        1
176
     1
 90
        6
176
     1
 90
        2
176
     1
 62
     7
176
     1
 90
        5
176
     1
 90
        0
176
     1
 90
        0
176
     1
290
     0
176
     1
 90
        1
176
     1
 40
-50.0
176
     1
 90
        0
176
     1
290
     0
176
     1
290
     1
176
     1
290
     1
176
     1
290
     0
176
     1
290
     0
176
     1
290
     0
176
     1
290
     0
176
     1
290
     0
176
     1
290
     0
176
     1
 90
       50
176
     1
 40
0.0
176
     1
 40
1.0
176
     1
 90
        0
176
     1
 62
    18
420
        0
176
     1
 90
       50
176
     1
 90
        3
176
     1
 62
     5
420
      255
176
     1
290
     0
176
     1
 90
       50
176
     1
 90
       50
176
     1
 90
       50
176
     1
290
     0
176
     1
 90
       50
176
     1
 62
   256
176
     0
 40
1.0
176
     0
 90
        2
176
     1
  1
strokes_ogs.tif
176
     1
290
     0
176
     1
 40
1.0
176
     1
 40
1.0
176
     1
  0
VISUALSTYLE
  5
3D
102
{ACAD_REACTORS
330
2A
102
}
330
2A
100
AcDbVisualStyle
  2
EdgeColorOff
 70
    22
177
     3
291
     1
 70
    58
 90
        2
176
     0
 90
        2
176
     0
 90
        0
176
     0
 90
        0
176
     0
 40
0.6
176
     0
 40
30.0
176
     0
 62
     7
420
 16777215
176
     0
 90
        1
176
     0
 90
        4
176
     0
 62
     7
176
     0
 62
   257
176
     0
 90
        1
176
     0
 90
        1
176
     0
 40
1.0
176
     0
 90
        8
176
     2
 62
     7
176
     0
 40
1.0
176
     0
 90
        1
176
     0
 90
        6
176
     0
 90
        2
176
     0
 62
     7
176
     0
 90
        5
176
     0
 90
        0
176
     0
 90
        0
176
     0
290
     0
176
     0
 90
        1
176
     0
 40
0.0
176
     0
 90
        0
176
     0
290
     0
176
     0
290
     1
176
     0
290
     1
176
     0
290
     0
176
     0
290
     0
176
     0
290
     0
176
     0
290
     0
176
     0
290
     0
176
     0
290
     0
176
     0
 90
       50
176
     0
 40
0.0
176
     0
 40
1.0
176
     0
 90
        0
176
     0
 62
    18
420
        0
176
     0
 90
       50
176
     0
 90
        3
176
     0
 62
     5
420
      255
176
     0
290
     0
176
     0
 90
       50
176
     0
 90
       50
176
     0
 90
       50
176
     0
290
     0
176
     0
 90
       50
176
     0
 62
   256
176
     0
 40
1.0
176
     0
 90
        2
176
     0
  1
strokes_ogs.tif
176
     0
290
     0
176
     0
 40
1.0
176
     0
 40
1.0
176
     0
  0
VISUALSTYLE
  5
39
102
{ACAD_REACTORS
330
2A
102
}
330
2A
100
AcDbVisualStyle
  2
Facepattern
 70
    15
177
     3
291
     1
 70
    58
 90
        2
176
     1
 90
        2
176
     1
 90
        0
176
     1
 90
        0
176
     1
 40
0.6
176
     1
 40
30.0
176
     1
 62
     7
420
 16777215
176
     1
 90
        1
176
     1
 90
        4
176
     1
 62
     7
176
     1
 62
   257
176
     1
 90
        1
176
     1
 90
        1
176
     1
 40
1.0
176
     1
 90
        8
176
     1
 62
     7
176
     1
 40
1.0
176
     1
 90
        1
176
     1
 90
        6
176
     1
 90
        2
176
     1
 62
     7
176
     1
 90
        5
176
     1
 90
        0
176
     1
 90
        0
176
     1
290
     0
176
     1
 90
        1
176
     1
 40
0.0
176
     1
 90
        0
176
     1
290
     0
176
     1
290
     1
176
     1
290
     1
176
     1
290
     0
176
     1
290
     0
176
     1
290
     0
176
     1
290
     0
176
     1
290
     0
176
     1
290
     0
176
     1
 90
       50
176
     1
 40
0.0
176
     1
 40
1.0
176
     1
 90
        0
176
     1
 62
    18
420
        0
176
     1
 90
       50
176
     1
 90
        3
176
     1
 62
     5
420
      255
176
     1
290
     0
176
     1
 90
       50
176
     1
 90
       50
176
     1
 90
       50
176
     1
290
     0
176
     1
 90
       50
176
     1
 62
   256
176
     0
 40
1.0
176
     0
 90
        2
176
     1
  1
strokes_ogs.tif
176
     1
290
     0
176
     1
 40
1.0
176
     1
 40
1.0
176
     1
  0
VISUALSTYLE
  5
2B
102
{ACAD_REACTORS
330
2A
102
}
330
2A
100
AcDbVisualStyle
  2
Flat
 70
     0
177
     3
291
     1
 70
    58
 90
        2
176
     1
 90
        1
176
     1
 90
        1
176
     1
 90
        2
176
     1
 40
0.6
176
     1
 40
30.0
176
     1
 62
     7
420
 16777215
176
     1
 90
        0
176
     1
 90
        0
176
     1
 62
     7
176
     1
 62
   257
176
     1
 90
        1
176
     1
 90
        1
176
     1
 40
1.0
176
     1
 90
        8
176
     1
 62
     7
176
     1
 40
1.0
176
     1
 90
        1
176
     1
 90
        6
176
     1
 90
        2
176
     1
 62
     7
176
     1
 90
        5
176
     1
 90
        0
176
     1
 90
        0
176
     1
290
     0
176
     1
 90
       13
176
     1
 40
0.0
176
     1
 90
        0
176
     1
290
     0
176
     1
290
     1
176
     1
290
     1
176
     1
290
     0
176
     1
290
     0
176
     1
290
     0
176
     1
290
     0
176
     1
290
     0
176
     1
290
     0
176
     1
 90
       50
176
     1
 40
0.0
176
     1
 40
1.0
176
     1
 90
        0
176
     1
 62
    18
420
        0
176
     1
 90
       50
176
     1
 90
        3
176
     1
 62
     5
420
      255
176
     1
290
     0
176
     1
 90
       50
176
     1
 90
       50
176
     1
 90
       50
176
     1
290
     0
176
     1
 90
       50
176
     1
 62
   256
176
     0
 40
1.0
176
     0
 90
        2
176
     1
  1
strokes_ogs.tif
176
     1
290
     0
176
     1
 40
1.0
176
     1
 40
1.0
176
     1
  0
VISUALSTYLE
  5
2C
102
{ACAD_REACTORS
330
2A
102
}
330
2A
100
AcDbVisualStyle
  2
FlatWithEdges
 70
     1
177
     3
291
     1
 70
    58
 90
        2
176
     1
 90
        1
176
     1
 90
        1
176
     1
 90
        2
176
     1
 40
0.6
176
     1
 40
30.0
176
     1
 62
     7
420
 16777215
176
     1
 90
        1
176
     1
 90
        0
176
     1
 62
     7
176
     1
 62
   257
176
     1
 90
        1
176
     1
 90
        1
176
     1
 40
1.0
176
     1
 90
        0
176
     1
 62
   257
176
     1
 40
1.0
176
     1
 90
        1
176
     1
 90
        6
176
     1
 90
        2
176
     1
 62
     7
176
     1
 90
        5
176
     1
 90
        0
176
     1
 90
        0
176
     1
290
     0
176
     1
 90
       13
176
     1
 40
0.0
176
     1
 90
        0
176
     1
290
     0
176
     1
290
     1
176
     1
290
     1
176
     1
290
     0
176
     1
290
     0
176
     1
290
     0
176
     1
290
     0
176
     1
290
     0
176
     1
290
     0
176
     1
 90
       50
176
     1
 40
0.0
176
     1
 40
1.0
176
     1
 90
        0
176
     1
 62
    18
420
        0
176
     1
 90
       50
176
     1
 90
        3
176
     1
 62
     5
420
      255
176
     1
290
     0
176
     1
 90
       50
176
     1
 90
       50
176
     1
 90
       50
176
     1
290
     0
176
     1
 90
       50
176
     1
 62
   256
176
     0
 40
1.0
176
     0
 90
        2
176
     1
  1
strokes_ogs.tif
176
     1
290
     0
176
     1
 40
1.0
176
     1
 40
1.0
176
     1
  0
VISUALSTYLE
  5
2D
102
{ACAD_REACTORS
330
2A
102
}
330
2A
100
AcDbVisualStyle
  2
Gouraud
 70
     2
177
     3
291
     1
 70
    58
 90
        2
176
     1
 90
        2
176
     1
 90
        1
176
     1
 90
        2
176
     1
 40
0.6
176
     1
 40
30.0
176
     1
 62
     7
420
 16777215
176
     1
 90
        0
176
     1
 90
        0
176
     1
 62
     7
176
     1
 62
   257
176
     1
 90
        1
176
     1
 90
        1
176
     1
 40
1.0
176
     1
 90
        0
176
     1
 62
     7
176
     1
 40
1.0
176
     1
 90
        1
176
     1
 90
        6
176
     1
 90
        2
176
     1
 62
     7
176
     1
 90
        5
176
     1
 90
        0
176
     1
 90
        0
176
     1
290
     0
176
     1
 90
       13
176
     1
 40
0.0
176
     1
 90
        0
176
     1
290
     0
176
     1
290
     1
176
     1
290
     1
176
     1
290
     0
176
     1
290
     0
176
     1
290
     0
176
     1
290
     0
176
     1
290
     0
176
     1
290
     0
176
     1
 90
       50
176
     1
 40
0.0
176
     1
 40
1.0
176
     1
 90
        0
176
     1
 62
    18
420
        0
176
     1
 90
       50
176
     1
 90
        3
176
     1
 62
     5
420
      255
176
     1
290
     0
176
     1
 90
       50
176
     1
 90
       50
176
     1
 90
       50
176
     1
290
     0
176
     1
 90
       50
176
     1
 62
   256
176
     0
 40
1.0
176
     0
 90
        2
176
     1
  1
strokes_ogs.tif
176
     1
290
     0
176
     1
 40
1.0
176
     1
 40
1.0
176
     1
  0
VISUALSTYLE
  5
2E
102
{ACAD_REACTORS
330
2A
102
}
330
2A
100
AcDbVisualStyle
  2
GouraudWithEdges
 70
     3
177
     3
291
     1
 70
    58
 90
        2
176
     1
 90
        2
176
     1
 90
        1
176
     1
 90
        2
176
     1
 40
0.6
176
     1
 40
30.0
176
     1
 62
     7
420
 16777215
176
     1
 90
        1
176
     1
 90
        0
176
     1
 62
     7
176
     1
 62
   257
176
     1
 90
        1
176
     1
 90
        1
176
     1
 40
1.0
176
     1
 90
        0
176
     1
 62
   257
176
     1
 40
1.0
176
     1
 90
        1
176
     1
 90
        6
176
     1
 90
        2
176
     1
 62
     7
176
     1
 90
        5
176
     1
 90
        0
176
     1
 90
        0
176
     1
290
     0
176
     1
 90
       13
176
     1
 40
0.0
176
     1
 90
        0
176
     1
290
     0
176
     1
290
     1
176
     1
290
     1
176
     1
290
     0
176
     1
290
     0
176
     1
290
     0
176
     1
290
     0
176
     1
290
     0
176
     1
290
     0
176
     1
 90
       50
176
     1
 40
0.0
176
     1
 40
1.0
176
     1
 90
        0
176
     1
 62
    18
420
        0
176
     1
 90
       50
176
     1
 90
        3
176
     1
 62
     5
420
      255
176
     1
290
     0
176
     1
 90
       50
176
     1
 90
       50
176
     1
 90
       50
176
     1
290
     0
176
     1
 90
       50
176
     1
 62
   256
176
     0
 40
1.0
176
     0
 90
        2
176
     1
  1
strokes_ogs.tif
176
     1
290
     0
176
     1
 40
1.0
176
     1
 40
1.0
176
     1
  0
VISUALSTYLE
  5
31
102
{ACAD_REACTORS
330
2A
102
}
330
2A
100
AcDbVisualStyle
  2
Hidden
 70
     6
177
     3
291
     0
 70
    58
 90
        1
176
     1
 90
        2
176
     1
 90
        2
176
     1
 90
        0
176
     1
 40
0.6
176
     1
 40
30.0
176
     1
 62
     7
420
 16777215
176
     1
 90
        2
176
     1
 90
        2
176
     1
 62
     7
176
     1
 62
   257
176
     1
 90
        2
176
     1
 90
        1
176
     1
 40
40.0
176
     1
 90
        0
176
     1
 62
   257
176
     1
 40
1.0
176
     1
 90
        1
176
     1
 90
        6
176
     1
 90
        2
176
     1
 62
     7
176
     1
 90
        3
176
     1
 90
        0
176
     1
 90
        0
176
     1
290
     0
176
     1
 90
        1
176
     1
 40
0.0
176
     1
 90
        0
176
     1
290
     0
176
     1
290
     1
176
     1
290
     1
176
     1
290
     0
176
     1
290
     0
176
     1
290
     0
176
     1
290
     0
176
     1
290
     0
176
     1
290
     0
176
     1
 90
       50
176
     1
 40
0.0
176
     1
 40
1.0
176
     1
 90
        0
176
     1
 62
    18
420
        0
176
     1
 90
       50
176
     1
 90
        3
176
     1
 62
     5
420
      255
176
     1
290
     0
176
     1
 90
       50
176
     1
 90
       50
176
     1
 90
       50
176
     1
290
     0
176
     1
 90
       50
176
     1
 62
   256
176
     0
 40
1.0
176
     0
 90
        2
176
     1
  1
strokes_ogs.tif
176
     1
290
     0
176
     1
 40
1.0
176
     1
 40
1.0
176
     1
  0
VISUALSTYLE
  5
3B
102
{ACAD_REACTORS
330
2A
102
}
330
2A
100
AcDbVisualStyle
  2
JitterOff
 70
    20
177
     3
291
     1
 70
    58
 90
        2
176
     0
 90
        2
176
     0
 90
        0
176
     0
 90
        0
176
     0
 40
0.6
176
     0
 40
30.0
176
     0
 62
     7
420
 16777215
176
     0
 90
        1
176
     0
 90
        4
176
     0
 62
     7
176
     0
 62
   257
176
     0
 90
        1
176
     0
 90
        1
176
     0
 40
1.0
176
     0
 90
       10
176
     2
 62
     7
176
     0
 40
1.0
176
     0
 90
        1
176
     0
 90
        6
176
     0
 90
        2
176
     0
 62
     7
176
     0
 90
        5
176
     0
 90
        0
176
     0
 90
        0
176
     0
290
     0
176
     0
 90
        1
176
     0
 40
0.0
176
     0
 90
        0
176
     0
290
     0
176
     0
290
     1
176
     0
290
     1
176
     0
290
     0
176
     0
290
     0
176
     0
290
     0
176
     0
290
     0
176
     0
290
     0
176
     0
290
     0
176
     0
 90
       50
176
     0
 40
0.0
176
     0
 40
1.0
176
     0
 90
        0
176
     0
 62
    18
420
        0
176
     0
 90
       50
176
     0
 90
        3
176
     0
 62
     5
420
      255
176
     0
290
     0
176
     0
 90
       50
176
     0
 90
       50
176
     0
 90
       50
176
     0
290
     0
176
     0
 90
       50
176
     0
 62
   256
176
     0
 40
1.0
176
     0
 90
        2
176
     0
  1
strokes_ogs.tif
176
     0
290
     0
176
     0
 40
1.0
176
     0
 40
1.0
176
     0
  0
VISUALSTYLE
  5
38
102
{ACAD_REACTORS
330
2A
102
}
330
2A
100
AcDbVisualStyle
  2
Linepattern
 70
    14
177
     3
291
     1
 70
    58
 90
        2
176
     1
 90
        2
176
     1
 90
        0
176
     1
 90
        0
176
     1
 40
0.6
176
     1
 40
30.0
176
     1
 62
     7
420
 16777215
176
     1
 90
        1
176
     1
 90
        4
176
     1
 62
     7
176
     1
 62
   257
176
     1
 90
        7
176
     1
 90
        7
176
     1
 40
1.0
176
     1
 90
        8
176
     1
 62
     7
176
     1
 40
1.0
176
     1
 90
        1
176
     1
 90
        6
176
     1
 90
        2
176
     1
 62
     7
176
     1
 90
        5
176
     1
 90
        0
176
     1
 90
        0
176
     1
290
     0
176
     1
 90
        1
176
     1
 40
0.0
176
     1
 90
        0
176
     1
290
     0
176
     1
290
     1
176
     1
290
     1
176
     1
290
     0
176
     1
290
     0
176
     1
290
     0
176
     1
290
     0
176
     1
290
     0
176
     1
290
     0
176
     1
 90
       50
176
     1
 40
0.0
176
     1
 40
1.0
176
     1
 90
        0
176
     1
 62
    18
420
        0
176
     1
 90
       50
176
     1
 90
        3
176
     1
 62
     5
420
      255
176
     1
290
     0
176
     1
 90
       50
176
     1
 90
       50
176
     1
 90
       50
176
     1
290
     0
176
     1
 90
       50
176
     1
 62
   256
176
     0
 40
1.0
176
     0
 90
        2
176
     1
  1
strokes_ogs.tif
176
     1
290
     0
176
     1
 40
1.0
176
     1
 40
1.0
176
     1
  0
VISUALSTYLE
  5
3C
102
{ACAD_REACTORS
330
2A
102
}
330
2A
100
AcDbVisualStyle
  2
OverhangOff
 70
    21
177
     3
291
     1
 70
    58
 90
        2
176
     0
 90
        2
176
     0
 90
        0
176
     0
 90
        0
176
     0
 40
0.6
176
     0
 40
30.0
176
     0
 62
     7
420
 16777215
176
     0
 90
        1
176
     0
 90
        4
176
     0
 62
     7
176
     0
 62
   257
176
     0
 90
        1
176
     0
 90
        1
176
     0
 40
1.0
176
     0
 90
        9
176
     2
 62
     7
176
     0
 40
1.0
176
     0
 90
        1
176
     0
 90
        6
176
     0
 90
        2
176
     0
 62
     7
176
     0
 90
        5
176
     0
 90
        0
176
     0
 90
        0
176
     0
290
     0
176
     0
 90
        1
176
     0
 40
0.0
176
     0
 90
        0
176
     0
290
     0
176
     0
290
     1
176
     0
290
     1
176
     0
290
     0
176
     0
290
     0
176
     0
290
     0
176
     0
290
     0
176
     0
290
     0
176
     0
290
     0
176
     0
 90
       50
176
     0
 40
0.0
176
     0
 40
1.0
176
     0
 90
        0
176
     0
 62
    18
420
        0
176
     0
 90
       50
176
     0
 90
        3
176
     0
 62
     5
420
      255
176
     0
290
     0
176
     0
 90
       50
176
     0
 90
       50
176
     0
 90
       50
176
     0
290
     0
176
     0
 90
       50
176
     0
 62
   256
176
     0
 40
1.0
176
     0
 90
        2
176
     0
  1
strokes_ogs.tif
176
     0
290
     0
176
     0
 40
1.0
176
     0
 40
1.0
176
     0
  0
VISUALSTYLE
  5
33
102
{ACAD_REACTORS
330
2A
102
}
330
2A
100
AcDbVisualStyle
  2
Realistic
 70
     8
177
     3
291
     0
 70
    58
 90
        2
176
     1
 90
        3
176
     1
 90
        0
176
     1
 90
        2
176
     1
 40
0.6
176
     1
 40
30.0
176
     1
 62
     7
420
 16777215
176
     1
 90
        0
176
     1
 90
        0
176
     1
 62
     7
176
     1
 62
   257
176
     1
 90
        1
176
     1
 90
        1
176
     1
 40
1.0
176
     1
 90
        8
176
     1
 62
   257
176
     1
 40
1.0
176
     1
 90
        1
176
     1
 90
        6
176
     1
 90
        2
176
     1
 62
     7
176
     1
 90
        3
176
     1
 90
        0
176
     1
 90
        0
176
     1
290
     0
176
     1
 90
       13
176
     1
 40
0.0
176
     1
 90
        0
176
     1
290
     0
176
     1
290
     1
176
     1
290
     1
176
     1
290
     0
176
     1
290
     0
176
     1
290
     0
176
     1
290
     0
176
     1
290
     0
176
     1
290
     0
176
     1
 90
       50
176
     1
 40
0.0
176
     1
 40
1.0
176
     1
 90
        0
176
     1
 62
    18
420
        0
176
     1
 90
       50
176
     1
 90
        3
176
     1
 62
     5
420
      255
176
     1
290
     0
176
     1
 90
       50
176
     1
 90
       50
176
     1
 90
       50
176
     1
290
     0
176
     1
 90
       50
176
     1
 62
   256
176
     0
 40
1.0
176
     0
 90
        2
176
     1
  1
strokes_ogs.tif
176
     1
290
     0
176
     1
 40
1.0
176
     1
 40
1.0
176
     1
  0
VISUALSTYLE
  5
42
102
{ACAD_REACTORS
330
2A
102
}
330
2A
100
AcDbVisualStyle
  2
Shaded
 70
    27
177
     3
291
     0
 70
    58
 90
        2
176
     1
 90
        2
176
     1
 90
        1
176
     1
 90
        2
176
     1
 40
0.6
176
     1
 40
30.0
176
     1
 62
     7
420
 16777215
176
     1
 90
        0
176
     1
 90
        4
176
     1
 62
     7
176
     1
 62
   257
176
     1
 90
        1
176
     1
 90
        1
176
     1
 40
1.0
176
     1
 90
        8
176
     1
 62
   257
176
     1
 40
1.0
176
     1
 90
        1
176
     1
 90
        6
176
     1
 90
        2
176
     1
 62
     8
420
  7895160
176
     1
 90
        3
176
     1
 90
        0
176
     1
 90
        0
176
     1
290
     0
176
     1
 90
        5
176
     1
 40
0.0
176
     1
 90
        0
176
     1
290
     0
176
     1
290
     1
176
     1
290
     1
176
     1
290
     0
176
     1
290
     0
176
     1
290
     0
176
     1
290
     0
176
     1
290
     0
176
     1
290
     0
176
     1
 90
       50
176
     1
 40
0.0
176
     1
 40
1.0
176
     1
 90
        0
176
     1
 62
    18
420
        0
176
     1
 90
       50
176
     1
 90
        3
176
     1
 62
     5
420
      255
176
     1
290
     0
176
     1
 90
       50
176
     1
 90
       50
176
     1
 90
       50
176
     1
290
     0
176
     1
 90
       50
176
     1
 62
   256
176
     0
 40
1.0
176
     0
 90
        2
176
     1
  1
strokes_ogs.tif
176
     1
290
     0
176
     1
 40
1.0
176
     1
 40
1.0
176
     1
  0
VISUALSTYLE
  5
41
102
{ACAD_REACTORS
330
2A
102
}
330
2A
100
AcDbVisualStyle
  2
Shaded with edges
 70
    26
177
     3
291
     0
 70
    58
 90
        2
176
     1
 90
        2
176
     1
 90
        1
176
     1
 90
        2
176
     1
 40
0.6
176
     1
 40
30.0
176
     1
 62
     7
420
 16777215
176
     1
 90
        1
176
     1
 90
       10
176
     1
 62
     7
176
     1
 62
   257
176
     1
 90
        2
176
     1
 90
        1
176
     1
 40
1.0
176
     1
 90
        8
176
     1
 62
   257
176
     1
 40
1.0
176
     1
 90
        1
176
     1
 90
        6
176
     1
 90
        2
176
     1
 62
     7
176
     1
 90
        3
176
     1
 90
        0
176
     1
 90
        0
176
     1
290
     0
176
     1
 90
        5
176
     1
 40
0.0
176
     1
 90
        0
176
     1
290
     0
176
     1
290
     1
176
     1
290
     1
176
     1
290
     0
176
     1
290
     0
176
     1
290
     0
176
     1
290
     0
176
     1
290
     0
176
     1
290
     0
176
     1
 90
       50
176
     1
 40
0.0
176
     1
 40
1.0
176
     1
 90
        0
176
     1
 62
    18
420
        0
176
     1
 90
       50
176
     1
 90
        3
176
     1
 62
     5
420
      255
176
     1
290
     0
176
     1
 90
       50
176
     1
 90
       50
176
     1
 90
       50
176
     1
290
     0
176
     1
 90
       50
176
     1
 62
   256
176
     0
 40
1.0
176
     0
 90
        2
176
     1
  1
strokes_ogs.tif
176
     1
290
     0
176
     1
 40
1.0
176
     1
 40
1.0
176
     1
  0
VISUALSTYLE
  5
3E
102
{ACAD_REACTORS
330
2A
102
}
330
2A
100
AcDbVisualStyle
  2
Shades of Gray
 70
    23
177
     3
291
     0
 70
    58
 90
        2
176
     1
 90
        2
176
     1
 90
        3
176
     1
 90
        0
176
     1
 40
0.6
176
     1
 40
30.0
176
     1
 62
     7
420
 16777215
176
     1
 90
        2
176
     1
 90
        2
176
     1
 62
     7
176
     1
 62
     7
176
     1
 90
        1
176
     1
 90
        1
176
     1
 40
40.0
176
     1
 90
        8
176
     1
 62
     7
176
     1
 40
1.0
176
     1
 90
        1
176
     1
 90
        6
176
     1
 90
        2
176
     1
 62
     7
176
     1
 90
        3
176
     1
 90
        0
176
     1
 90
        0
176
     1
290
     0
176
     1
 90
        1
176
     1
 40
0.0
176
     1
 90
        0
176
     1
290
     0
176
     1
290
     1
176
     1
290
     1
176
     1
290
     0
176
     1
290
     0
176
     1
290
     0
176
     1
290
     0
176
     1
290
     0
176
     1
290
     0
176
     1
 90
       50
176
     1
 40
0.0
176
     1
 40
1.0
176
     1
 90
        0
176
     1
 62
    18
420
        0
176
     1
 90
       50
176
     1
 90
        3
176
     1
 62
     5
420
      255
176
     1
290
     0
176
     1
 90
       50
176
     1
 90
       50
176
     1
 90
       50
176
     1
290
     0
176
     1
 90
       50
176
     1
 62
   256
176
     0
 40
1.0
176
     0
 90
        2
176
     1
  1
strokes_ogs.tif
176
     1
290
     0
176
     1
 40
1.0
176
     1
 40
1.0
176
     1
  0
VISUALSTYLE
  5
3F
102
{ACAD_REACTORS
330
2A
102
}
330
2A
100
AcDbVisualStyle
  2
Sketchy
 70
    24
177
     3
291
     0
 70
    58
 90
        1
176
     1
 90
        2
176
     1
 90
        2
176
     1
 90
        0
176
     1
 40
0.6
176
     1
 40
30.0
176
     1
 62
     7
420
 16777215
176
     1
 90
        2
176
     1
 90
        2
176
     1
 62
     7
176
     1
 62
     7
176
     1
 90
        1
176
     1
 90
        1
176
     1
 40
40.0
176
     1
 90
       11
176
     1
 62
     7
176
     1
 40
1.0
176
     1
 90
        1
176
     1
 90
        6
176
     1
 90
        2
176
     1
 62
     7
176
     1
 90
        6
176
     1
 90
        0
176
     1
 90
        0
176
     1
290
     0
176
     1
 90
        1
176
     1
 40
0.0
176
     1
 90
        0
176
     1
290
     0
176
     1
290
     1
176
     1
290
     1
176
     1
290
     0
176
     1
290
     0
176
     1
290
     0
176
     1
290
     0
176
     1
290
     0
176
     1
290
     0
176
     1
 90
       50
176
     1
 40
0.0
176
     1
 40
1.0
176
     1
 90
        0
176
     1
 62
    18
420
        0
176
     1
 90
       50
176
     1
 90
        3
176
     1
 62
     5
420
      255
176
     1
290
     0
176
     1
 90
       50
176
     1
 90
       50
176
     1
 90
       50
176
     1
290
     0
176
     1
 90
       50
176
     1
 62
   256
176
     0
 40
1.0
176
     0
 90
        2
176
     1
  1
strokes_ogs.tif
176
     1
290
     0
176
     1
 40
1.0
176
     1
 40
1.0
176
     1
  0
VISUALSTYLE
  5
37
102
{ACAD_REACTORS
330
2A
102
}
330
2A
100
AcDbVisualStyle
  2
Thicken
 70
    13
177
     3
291
     1
 70
    58
 90
        2
176
     1
 90
        2
176
     1
 90
        0
176
     1
 90
        0
176
     1
 40
0.6
176
     1
 40
30.0
176
     1
 62
     7
420
 16777215
176
     1
 90
        1
176
     1
 90
        4
176
     1
 62
     7
176
     1
 62
   257
176
     1
 90
        1
176
     1
 90
        1
176
     1
 40
1.0
176
     1
 90
       12
176
     1
 62
     7
176
     1
 40
1.0
176
     1
 90
        1
176
     1
 90
        6
176
     1
 90
        2
176
     1
 62
     7
176
     1
 90
        5
176
     1
 90
        0
176
     1
 90
        0
176
     1
290
     0
176
     1
 90
        1
176
     1
 40
0.0
176
     1
 90
        0
176
     1
290
     0
176
     1
290
     1
176
     1
290
     1
176
     1
290
     0
176
     1
290
     0
176
     1
290
     0
176
     1
290
     0
176
     1
290
     0
176
     1
290
     0
176
     1
 90
       50
176
     1
 40
0.0
176
     1
 40
1.0
176
     1
 90
        0
176
     1
 62
    18
420
        0
176
     1
 90
       50
176
     1
 90
        3
176
     1
 62
     5
420
      255
176
     1
290
     0
176
     1
 90
       50
176
     1
 90
       50
176
     1
 90
       50
176
     1
290
     0
176
     1
 90
       50
176
     1
 62
   256
176
     0
 40
1.0
176
     0
 90
        2
176
     1
  1
strokes_ogs.tif
176
     1
290
     0
176
     1
 40
1.0
176
     1
 40
1.0
176
     1
  0
VISUALSTYLE
  5
30
102
{ACAD_REACTORS
330
2A
102
}
330
2A
100
AcDbVisualStyle
  2
Wireframe
 70
     5
177
     3
291
     0
 70
    58
 90
        0
176
     1
 90
        2
176
     1
 90
        0
176
     1
 90
        0
176
     1
 40
0.6
176
     1
 40
30.0
176
     1
 62
     7
420
 16777215
176
     1
 90
        1
176
     1
 90
        4
176
     1
 62
     7
176
     1
 62
   257
176
     1
 90
        1
176
     1
 90
        1
176
     1
 40
1.0
176
     1
 90
        0
176
     1
 62
   257
176
     1
 40
1.0
176
     1
 90
        1
176
     1
 90
        6
176
     1
 90
        2
176
     1
 62
     7
176
     1
 90
        3
176
     1
 90
        0
176
     1
 90
        0
176
     1
290
     0
176
     1
 90
        1
176
     1
 40
0.0
176
     1
 90
        0
176
     1
290
     0
176
     1
290
     1
176
     1
290
     1
176
     1
290
     0
176
     1
290
     0
176
     1
290
     0
176
     1
290
     0
176
     1
290
     0
176
     1
290
     0
176
     1
 90
       50
176
     1
 40
0.0
176
     1
 40
1.0
176
     1
 90
        0
176
     1
 62
    18
420
        0
176
     1
 90
       50
176
     1
 90
        3
176
     1
 62
     5
420
      255
176
     1
290
     0
176
     1
 90
       50
176
     1
 90
       50
176
     1
 90
       50
176
     1
290
     0
176
     1
 90
       50
176
     1
 62
   256
176
     0
 40
1.0
176
     0
 90
        2
176
     1
  1
strokes_ogs.tif
176
     1
290
     0
176
     1
 40
1.0
176
     1
 40
1.0
176
     1
  0
VISUALSTYLE
  5
40
102
{ACAD_REACTORS
330
2A
102
}
330
2A
100
AcDbVisualStyle
  2
X-Ray
 70
    25
177
     3
291
     0
 70
    58
 90
        2
176
     1
 90
        2
176
     1
 90
        1
176
     1
 90
        1
176
     1
 40
0.5
176
     1
 40
30.0
176
     1
 62
     7
420
 16777215
176
     1
 90
        1
176
     1
 90
        0
176
     1
 62
     7
176
     1
 62
   257
176
     1
 90
        1
176
     1
 90
        1
176
     1
 40
1.0
176
     1
 90
        8
176
     1
 62
     7
176
     1
 40
1.0
176
     1
 90
        1
176
     1
 90
        6
176
     1
 90
        2
176
     1
 62
     7
176
     1
 90
        3
176
     1
 90
        0
176
     1
 90
        0
176
     1
290
     0
176
     1
 90
       13
176
     1
 40
0.0
176
     1
 90
        0
176
     1
290
     0
176
     1
290
     1
176
     1
290
     1
176
     1
290
     0
176
     1
290
     0
176
     1
290
     0
176
     1
290
     0
176
     1
290
     0
176
     1
290
     0
176
     1
 90
       50
176
     1
 40
0.0
176
     1
 40
1.0
176
     1
 90
        0
176
     1
 62
    18
420
        0
176
     1
 90
       50
176
     1
 90
        3
176
     1
 62
     5
420
      255
176
     1
290
     0
176
     1
 90
       50
176
     1
 90
       50
176
     1
 90
       50
176
     1
290
     0
176
     1
 90
       50
176
     1
 62
   256
176
     0
 40
1.0
176
     0
 90
        2
176
     1
  1
strokes_ogs.tif
176
     1
290
     0
176
     1
 40
1.0
176
     1
 40
1.0
176
     1
  0
DICTIONARYVAR
  5
8D
102
{ACAD_REACTORS
330
8C
102
}
330
8C
100
DictionaryVariables
280
     0
  1
1:1
  0
DICTIONARYVAR
  5
92
102
{ACAD_REACTORS
330
8C
102
}
330
8C
100
DictionaryVariables
280
     0
  1
Standard
  0
DICTIONARYVAR
  5
91
102
{ACAD_REACTORS
330
8C
102
}
330
8C
100
DictionaryVariables
280
     0
  1
Standard
  0
DICTIONARY
  5
8E
330
5A
100
AcDbDictionary
280
     1
281
     1
  3
ACAD_ROUNDTRIP_2008_TABLESTYLE_CELLSTYLEMAP
360
8F
  0
CELLSTYLEMAP
  5
8F
102
{ACAD_REACTORS
330
8E
102
}
330
8E
100
AcDbCellStyleMap
 90
        3
300
CELLSTYLE
  1
TABLEFORMAT_BEGIN
 90
        5
170
     1
 91
        0
 92
    32768
 62
   257
 93
        1
300
CONTENTFORMAT
  1
CONTENTFORMAT_BEGIN
 90
        0
 91
        0
 92
        4
 93
        0
300

 40
0.0
140
1.0
 94
        5
 62
     0
340
11
144
0.25
309
CONTENTFORMAT_END
171
     1
301
MARGIN
  1
CELLMARGIN_BEGIN
 40
0.06
 40
0.06
 40
0.06
 40
0.06
 40
0.06
 40
0.06
309
CELLMARGIN_END
 94
        6
 95
        1
302
GRIDFORMAT
  1
GRIDFORMAT_BEGIN
 90
        0
 91
        1
 62
     0
 92
       -2
340
14
 93
        0
 40
0.045
309
GRIDFORMAT_END
 95
        2
302
GRIDFORMAT
  1
GRIDFORMAT_BEGIN
 90
        0
 91
        1
 62
     0
 92
       -2
340
14
 93
        0
 40
0.045
309
GRIDFORMAT_END
 95
        4
302
GRIDFORMAT
  1
GRIDFORMAT_BEGIN
 90
        0
 91
        1
 62
     0
 92
       -2
340
14
 93
        0
 40
0.045
309
GRIDFORMAT_END
 95
        8
302
GRIDFORMAT
  1
GRIDFORMAT_BEGIN
 90
        0
 91
        1
 62
     0
 92
       -2
340
14
 93
        0
 40
0.045
309
GRIDFORMAT_END
 95
       16
302
GRIDFORMAT
  1
GRIDFORMAT_BEGIN
 90
        0
 91
        1
 62
     0
 92
       -2
340
14
 93
        0
 40
0.045
309
GRIDFORMAT_END
 95
       32
302
GRIDFORMAT
  1
GRIDFORMAT_BEGIN
 90
        0
 91
        1
 62
     0
 92
       -2
340
14
 93
        0
 40
0.045
309
GRIDFORMAT_END
309
TABLEFORMAT_END
  1
CELLSTYLE_BEGIN
 90
        1
 91
        1
300
_TITLE
309
CELLSTYLE_END
300
CELLSTYLE
  1
TABLEFORMAT_BEGIN
 90
        5
170
     1
 91
        0
 92
        0
 62
   257
 93
        1
300
CONTENTFORMAT
  1
CONTENTFORMAT_BEGIN
 90
        0
 91
        0
 92
        4
 93
        0
300

 40
0.0
140
1.0
 94
        5
 62
     0
340
11
144
0.18
309
CONTENTFORMAT_END
171
     1
301
MARGIN
  1
CELLMARGIN_BEGIN
 40
0.06
 40
0.06
 40
0.06
 40
0.06
 40
0.06
 40
0.06
309
CELLMARGIN_END
 94
        6
 95
        1
302
GRIDFORMAT
  1
GRIDFORMAT_BEGIN
 90
        0
 91
        1
 62
     0
 92
       -2
340
14
 93
        0
 40
0.045
309
GRIDFORMAT_END
 95
        2
302
GRIDFORMAT
  1
GRIDFORMAT_BEGIN
 90
        0
 91
        1
 62
     0
 92
       -2
340
14
 93
        0
 40
0.045
309
GRIDFORMAT_END
 95
        4
302
GRIDFORMAT
  1
GRIDFORMAT_BEGIN
 90
        0
 91
        1
 62
     0
 92
       -2
340
14
 93
        0
 40
0.045
309
GRIDFORMAT_END
 95
        8
302
GRIDFORMAT
  1
GRIDFORMAT_BEGIN
 90
        0
 91
        1
 62
     0
 92
       -2
340
14
 93
        0
 40
0.045
309
GRIDFORMAT_END
 95
       16
302
GRIDFORMAT
  1
GRIDFORMAT_BEGIN
 90
        0
 91
        1
 62
     0
 92
       -2
340
14
 93
        0
 40
0.045
309
GRIDFORMAT_END
 95
       32
302
GRIDFORMAT
  1
GRIDFORMAT_BEGIN
 90
        0
 91
        1
 62
     0
 92
       -2
340
14
 93
        0
 40
0.045
309
GRIDFORMAT_END
309
TABLEFORMAT_END
  1
CELLSTYLE_BEGIN
 90
        2
 91
        1
300
_HEADER
309
CELLSTYLE_END
300
CELLSTYLE
  1
TABLEFORMAT_BEGIN
 90
        5
170
     1
 91
        0
 92
        0
 62
   257
 93
        1
300
CONTENTFORMAT
  1
CONTENTFORMAT_BEGIN
 90
        0
 91
        0
 92
        4
 93
        0
300

 40
0.0
140
1.0
 94
        2
 62
     0
340
11
144
0.18
309
CONTENTFORMAT_END
171
     1
301
MARGIN
  1
CELLMARGIN_BEGIN
 40
0.06
 40
0.06
 40
0.06
 40
0.06
 40
0.06
 40
0.06
309
CELLMARGIN_END
 94
        6
 95
        1
302
GRIDFORMAT
  1
GRIDFORMAT_BEGIN
 90
        0
 91
        1
 62
     0
 92
       -2
340
14
 93
        0
 40
0.045
309
GRIDFORMAT_END
 95
        2
302
GRIDFORMAT
  1
GRIDFORMAT_BEGIN
 90
        0
 91
        1
 62
     0
 92
       -2
340
14
 93
        0
 40
0.045
309
GRIDFORMAT_END
 95
        4
302
GRIDFORMAT
  1
GRIDFORMAT_BEGIN
 90
        0
 91
        1
 62
     0
 92
       -2
340
14
 93
        0
 40
0.045
309
GRIDFORMAT_END
 95
        8
302
GRIDFORMAT
  1
GRIDFORMAT_BEGIN
 90
        0
 91
        1
 62
     0
 92
       -2
340
14
 93
        0
 40
0.045
309
GRIDFORMAT_END
 95
       16
302
GRIDFORMAT
  1
GRIDFORMAT_BEGIN
 90
        0
 91
        1
 62
     0
 92
       -2
340
14
 93
        0
 40
0.045
309
GRIDFORMAT_END
 95
       32
302
GRIDFORMAT
  1
GRIDFORMAT_BEGIN
 90
        0
 91
        1
 62
     0
 92
       -2
340
14
 93
        0
 40
0.045
309
GRIDFORMAT_END
309
TABLEFORMAT_END
  1
CELLSTYLE_BEGIN
 90
        3
 91
        2
300
_DATA
309
CELLSTYLE_END
  0
ENDSEC
  0
EOF
