  0
SECTION
  2
HEADER
  9
$ACADVER
  1
AC1032
  9
$ACADMAINTVER
 90
       55
  9
$DWGCODEPAGE
  3
ANSI_1252
  9
$LASTSAVEDBY
  1
LYI-002
  9
$REQUIREDVERSIONS
160
                 0
  9
$INSBASE
 10
0.0
 20
0.0
 30
0.0
  9
$EXTMIN
 10
-1200.15
 20
-590.1266
 30
0.0
  9
$EXTMAX
 10
1200.05
 20
590.0734
 30
0.0
  9
$LIMMIN
 10
0.0
 20
0.0
  9
$LIMMAX
 10
12.0
 20
9.0
  9
$ORTHOMODE
 70
     0
  9
$REGENMODE
 70
     1
  9
$FILLMODE
 70
     1
  9
$QTEXTMODE
 70
     0
  9
$MIRRTEXT
 70
     1
  9
$LTSCALE
 40
1.0
  9
$ATTMODE
 70
     1
  9
$TEXTSIZE
 40
0.2
  9
$TRACEWID
 40
0.05
  9
$TEXTSTYLE
  7
Standard
  9
$CLAYER
  8
0
  9
$CELTYPE
  6
ByLayer
  9
$CECOLOR
 62
   256
  9
$CELTSCALE
 40
1.0
  9
$DISPSILH
 70
     0
  9
$DIMSCALE
 40
1.0
  9
$DIMASZ
 40
0.18
  9
$DIMEXO
 40
0.0625
  9
$DIMDLI
 40
0.38
  9
$DIMRND
 40
0.0
  9
$DIMDLE
 40
0.0
  9
$DIMEXE
 40
0.18
  9
$DIMTP
 40
0.0
  9
$DIMTM
 40
0.0
  9
$DIMTXT
 40
0.18
  9
$DIMCEN
 40
0.09
  9
$DIMTSZ
 40
0.0
  9
$DIMTOL
 70
     0
  9
$DIMLIM
 70
     0
  9
$DIMTIH
 70
     1
  9
$DIMTOH
 70
     1
  9
$DIMSE1
 70
     0
  9
$DIMSE2
 70
     0
  9
$DIMTAD
 70
     0
  9
$DIMZIN
 70
     0
  9
$DIMBLK
  1

  9
$DIMASO
 70
     1
  9
$DIMSHO
 70
     1
  9
$DIMPOST
  1

  9
$DIMAPOST
  1

  9
$DIMALT
 70
     0
  9
$DIMALTD
 70
     2
  9
$DIMALTF
 40
25.4
  9
$DIMLFAC
 40
1.0
  9
$DIMTOFL
 70
     0
  9
$DIMTVP
 40
0.0
  9
$DIMTIX
 70
     0
  9
$DIMSOXD
 70
     0
  9
$DIMSAH
 70
     0
  9
$DIMBLK1
  1

  9
$DIMBLK2
  1

  9
$DIMSTYLE
  2
Standard
  9
$DIMCLRD
 70
     0
  9
$DIMCLRE
 70
     0
  9
$DIMCLRT
 70
     0
  9
$DIMTFAC
 40
1.0
  9
$DIMGAP
 40
0.09
  9
$DIMJUST
 70
     0
  9
$DIMSD1
 70
     0
  9
$DIMSD2
 70
     0
  9
$DIMTOLJ
 70
     1
  9
$DIMTZIN
 70
     0
  9
$DIMALTZ
 70
     0
  9
$DIMALTTZ
 70
     0
  9
$DIMUPT
 70
     0
  9
$DIMDEC
 70
     4
  9
$DIMTDEC
 70
     4
  9
$DIMALTU
 70
     2
  9
$DIMALTTD
 70
     2
  9
$DIMTXSTY
  7
Standard
  9
$DIMAUNIT
 70
     0
  9
$DIMADEC
 70
     0
  9
$DIMALTRND
 40
0.0
  9
$DIMAZIN
 70
     0
  9
$DIMDSEP
 70
    46
  9
$DIMATFIT
 70
     3
  9
$DIMFRAC
 70
     0
  9
$DIMLDRBLK
  1

  9
$DIMLUNIT
 70
     2
  9
$DIMLWD
 70
    -2
  9
$DIMLWE
 70
    -2
  9
$DIMTMOVE
 70
     0
  9
$DIMFXL
 40
1.0
  9
$DIMFXLON
 70
     0
  9
$DIMJOGANG
 40
0.7853981633974483
  9
$DIMTFILL
 70
     0
  9
$DIMTFILLCLR
 70
     0
  9
$DIMARCSYM
 70
     0
  9
$DIMLTYPE
  6

  9
$DIMLTEX1
  6

  9
$DIMLTEX2
  6

  9
$DIMTXTDIRECTION
 70
     0
  9
$LUNITS
 70
     2
  9
$LUPREC
 70
     4
  9
$SKETCHINC
 40
0.1
  9
$FILLETRAD
 40
0.0
  9
$AUNITS
 70
     0
  9
$AUPREC
 70
     0
  9
$MENU
  1
.
  9
$ELEVATION
 40
0.0
  9
$PELEVATION
 40
0.0
  9
$THICKNESS
 40
0.0
  9
$LIMCHECK
 70
     0
  9
$CHAMFERA
 40
0.0
  9
$CHAMFERB
 40
0.0
  9
$CHAMFERC
 40
0.0
  9
$CHAMFERD
 40
0.0
  9
$SKPOLY
 70
     0
  9
$TDCREATE
 40
2460652.611498067
  9
$TDUCREATE
 40
2460652.382331401
  9
$TDUPDATE
 40
2460652.611498091
  9
$TDUUPDATE
 40
2460652.382331424
  9
$TDINDWG
 40
0.0000000116
  9
$TDUSRTIMER
 40
0.0000000116
  9
$USRTIMER
 70
     1
  9
$ANGBASE
 50
0.0
  9
$ANGDIR
 70
     0
  9
$PDMODE
 70
     0
  9
$PDSIZE
 40
0.0
  9
$PLINEWID
 40
0.0
  9
$SPLFRAME
 70
     0
  9
$SPLINETYPE
 70
     6
  9
$SPLINESEGS
 70
     8
  9
$HANDSEED
  5
7A
  9
$SURFTAB1
 70
     6
  9
$SURFTAB2
 70
     6
  9
$SURFTYPE
 70
     6
  9
$SURFU
 70
     6
  9
$SURFV
 70
     6
  9
$UCSBASE
  2

  9
$UCSNAME
  2

  9
$UCSORG
 10
0.0
 20
0.0
 30
0.0
  9
$UCSXDIR
 10
1.0
 20
0.0
 30
0.0
  9
$UCSYDIR
 10
0.0
 20
1.0
 30
0.0
  9
$UCSORTHOREF
  2

  9
$UCSORTHOVIEW
 70
     0
  9
$UCSORGTOP
 10
0.0
 20
0.0
 30
0.0
  9
$UCSORGBOTTOM
 10
0.0
 20
0.0
 30
0.0
  9
$UCSORGLEFT
 10
0.0
 20
0.0
 30
0.0
  9
$UCSORGRIGHT
 10
0.0
 20
0.0
 30
0.0
  9
$UCSORGFRONT
 10
0.0
 20
0.0
 30
0.0
  9
$UCSORGBACK
 10
0.0
 20
0.0
 30
0.0
  9
$PUCSBASE
  2

  9
$PUCSNAME
  2

  9
$PUCSORG
 10
0.0
 20
0.0
 30
0.0
  9
$PUCSXDIR
 10
1.0
 20
0.0
 30
0.0
  9
$PUCSYDIR
 10
0.0
 20
1.0
 30
0.0
  9
$PUCSORTHOREF
  2

  9
$PUCSORTHOVIEW
 70
     0
  9
$PUCSORGTOP
 10
0.0
 20
0.0
 30
0.0
  9
$PUCSORGBOTTOM
 10
0.0
 20
0.0
 30
0.0
  9
$PUCSORGLEFT
 10
0.0
 20
0.0
 30
0.0
  9
$PUCSORGRIGHT
 10
0.0
 20
0.0
 30
0.0
  9
$PUCSORGFRONT
 10
0.0
 20
0.0
 30
0.0
  9
$PUCSORGBACK
 10
0.0
 20
0.0
 30
0.0
  9
$USERI1
 70
     0
  9
$USERI2
 70
     0
  9
$USERI3
 70
     0
  9
$USERI4
 70
     0
  9
$USERI5
 70
     0
  9
$USERR1
 40
0.0
  9
$USERR2
 40
0.0
  9
$USERR3
 40
0.0
  9
$USERR4
 40
0.0
  9
$USERR5
 40
0.0
  9
$WORLDVIEW
 70
     1
  9
$SHADEDGE
 70
     3
  9
$SHADEDIF
 70
    70
  9
$TILEMODE
 70
     1
  9
$MAXACTVP
 70
    64
  9
$PINSBASE
 10
0.0
 20
0.0
 30
0.0
  9
$PLIMCHECK
 70
     0
  9
$PEXTMIN
 10
1.000000000000000E+20
 20
1.000000000000000E+20
 30
1.000000000000000E+20
  9
$PEXTMAX
 10
-1.000000000000000E+20
 20
-1.000000000000000E+20
 30
-1.000000000000000E+20
  9
$PLIMMIN
 10
0.0
 20
0.0
  9
$PLIMMAX
 10
12.0
 20
9.0
  9
$UNITMODE
 70
     0
  9
$VISRETAIN
 70
     1
  9
$PLINEGEN
 70
     0
  9
$PSLTSCALE
 70
     1
  9
$TREEDEPTH
 70
  3020
  9
$CMLSTYLE
  2
Standard
  9
$CMLJUST
 70
     0
  9
$CMLSCALE
 40
1.0
  9
$PROXYGRAPHICS
 70
     1
  9
$MEASUREMENT
 70
     0
  9
$CELWEIGHT
370
    -1
  9
$ENDCAPS
280
     0
  9
$JOINSTYLE
280
     0
  9
$LWDISPLAY
290
     0
  9
$INSUNITS
 70
     4
  9
$HYPERLINKBASE
  1

  9
$STYLESHEET
  1

  9
$XEDIT
290
     1
  9
$CEPSNTYPE
380
     0
  9
$PSTYLEMODE
290
     1
  9
$FINGERPRINTGUID
  2
{a1bd0317-0085-4fc9-aa67-12506271b4b0}
  9
$VERSIONGUID
  2
{FAEB1C32-E019-11D5-929B-00C0DF256EC4}
  9
$EXTNAMES
290
     1
  9
$PSVPSCALE
 40
0.0
  9
$OLESTARTUP
290
     0
  9
$SORTENTS
280
   127
  9
$INDEXCTL
280
     0
  9
$HIDETEXT
280
     1
  9
$XCLIPFRAME
280
     2
  9
$HALOGAP
280
     0
  9
$OBSCOLOR
 70
   257
  9
$OBSLTYPE
280
     0
  9
$INTERSECTIONDISPLAY
280
     0
  9
$INTERSECTIONCOLOR
 70
   257
  9
$DIMASSOC
280
     2
  9
$PROJECTNAME
  1

  9
$CAMERADISPLAY
290
     0
  9
$LENSLENGTH
 40
50.0
  9
$CAMERAHEIGHT
 40
0.0
  9
$STEPSPERSEC
 40
2.0
  9
$STEPSIZE
 40
6.0
  9
$3DDWFPREC
 40
2.0
  9
$PSOLWIDTH
 40
0.25
  9
$PSOLHEIGHT
 40
4.0
  9
$LOFTANG1
 40
1.570796326794897
  9
$LOFTANG2
 40
1.570796326794897
  9
$LOFTMAG1
 40
0.0
  9
$LOFTMAG2
 40
0.0
  9
$LOFTPARAM
 70
     7
  9
$LOFTNORMALS
280
     1
  9
$LATITUDE
 40
37.795
  9
$LONGITUDE
 40
-122.394
  9
$NORTHDIRECTION
 40
0.0
  9
$TIMEZONE
 70
 -8000
  9
$LIGHTGLYPHDISPLAY
280
     1
  9
$TILEMODELIGHTSYNCH
280
     1
  9
$CMATERIAL
347
44
  9
$SOLIDHIST
280
     0
  9
$SHOWHIST
280
     1
  9
$DWFFRAME
280
     2
  9
$DGNFRAME
280
     2
  9
$REALWORLDSCALE
290
     1
  9
$INTERFERECOLOR
 62
   256
  9
$CSHADOW
280
     0
  9
$SHADOWPLANELOCATION
 40
0.0
  0
ENDSEC
  0
SECTION
  2
CLASSES
  0
CLASS
  1
ACDBDICTIONARYWDFLT
  2
AcDbDictionaryWithDefault
  3
ObjectDBX Classes
 90
        0
 91
        3
280
     0
281
     0
  0
CLASS
  1
VISUALSTYLE
  2
AcDbVisualStyle
  3
ObjectDBX Classes
 90
     4095
 91
        3
280
     0
281
     0
  0
CLASS
  1
MATERIAL
  2
AcDbMaterial
  3
ObjectDBX Classes
 90
     1153
 91
        3
280
     0
281
     0
  0
CLASS
  1
SCALE
  2
AcDbScale
  3
ObjectDBX Classes
 90
     1153
 91
        3
280
     0
281
     0
  0
CLASS
  1
TABLESTYLE
  2
AcDbTableStyle
  3
ObjectDBX Classes
 90
     4095
 91
        3
280
     0
281
     0
  0
CLASS
  1
MLEADERSTYLE
  2
AcDbMLeaderStyle
  3
ACDB_MLEADERSTYLE_CLASS
 90
     4095
 91
        3
280
     0
281
     0
  0
CLASS
  1
SUN
  2
AcDbSun
  3
SCENEOE
 90
     1153
 91
        3
280
     0
281
     0
  0
CLASS
  1
DICTIONARYVAR
  2
AcDbDictionaryVar
  3
ObjectDBX Classes
 90
        0
 91
        3
280
     0
281
     0
  0
CLASS
  1
CELLSTYLEMAP
  2
AcDbCellStyleMap
  3
ObjectDBX Classes
 90
     1152
 91
        3
280
     0
281
     0
  0
ENDSEC
  0
SECTION
  2
TABLES
  0
TABLE
  2
VPORT
  5
8
330
0
100
AcDbSymbolTable
 70
     1
  0
VPORT
  5
29
330
8
100
AcDbSymbolTableRecord
100
AcDbViewportTableRecord
  2
*Active
 70
     0
 10
0.0
 20
0.0
 11
1.0
 21
1.0
 12
10.42990654205607
 22
4.5
 13
0.0
 23
0.0
 14
0.5
 24
0.5
 15
0.5
 25
0.5
 16
0.0
 26
0.0
 36
1.0
 17
0.0
 27
0.0
 37
0.0
 40
9.0
 41
1.972972972850329
 42
50.0
 43
0.0
 44
0.0
 50
0.0
 51
0.0
 71
     0
 72
   100
 73
     1
 74
     3
 75
     0
 76
     0
 77
     0
 78
     0
281
     0
 65
     1
110
0.0
120
0.0
130
0.0
111
1.0
121
0.0
131
0.0
112
0.0
122
1.0
132
0.0
 79
     0
146
0.0
348
2F
 60
     3
 61
     5
292
     1
282
     1
141
0.0
142
0.0
 63
   250
361
5D
  0
ENDTAB
  0
TABLE
  2
LTYPE
  5
5
330
0
100
AcDbSymbolTable
 70
     1
  0
LTYPE
  5
14
330
5
100
AcDbSymbolTableRecord
100
AcDbLinetypeTableRecord
  2
ByBlock
 70
     0
  3

 72
    65
 73
     0
 40
0.0
  0
LTYPE
  5
15
330
5
100
AcDbSymbolTableRecord
100
AcDbLinetypeTableRecord
  2
ByLayer
 70
     0
  3

 72
    65
 73
     0
 40
0.0
  0
LTYPE
  5
16
330
5
100
AcDbSymbolTableRecord
100
AcDbLinetypeTableRecord
  2
Continuous
 70
     0
  3
Solid line
 72
    65
 73
     0
 40
0.0
  0
ENDTAB
  0
TABLE
  2
LAYER
  5
2
330
0
100
AcDbSymbolTable
 70
     2
  0
LAYER
  5
10
330
2
100
AcDbSymbolTableRecord
100
AcDbLayerTableRecord
  2
0
 70
     0
 62
     7
  6
Continuous
370
    -3
390
F
347
46
348
0
  0
LAYER
  5
5F
330
2
100
AcDbSymbolTableRecord
100
AcDbLayerTableRecord
  2
Layer 1
 70
     0
 62
     7
  6
Continuous
370
    -3
390
F
347
46
348
0
  0
ENDTAB
  0
TABLE
  2
STYLE
  5
3
330
0
100
AcDbSymbolTable
 70
     1
  0
STYLE
  5
11
330
3
100
AcDbSymbolTableRecord
100
AcDbTextStyleTableRecord
  2
Standard
 70
     0
 40
0.0
 41
1.0
 50
0.0
 71
     0
 42
0.2
  3
txt
  4

  0
ENDTAB
  0
TABLE
  2
VIEW
  5
6
330
0
100
AcDbSymbolTable
 70
     0
  0
ENDTAB
  0
TABLE
  2
UCS
  5
7
330
0
100
AcDbSymbolTable
 70
     0
  0
ENDTAB
  0
TABLE
  2
APPID
  5
9
330
0
100
AcDbSymbolTable
 70
     2
  0
APPID
  5
12
330
9
100
AcDbSymbolTableRecord
100
AcDbRegAppTableRecord
  2
ACAD
 70
     0
  0
APPID
  5
5E
330
9
100
AcDbSymbolTableRecord
100
AcDbRegAppTableRecord
  2
ODA
 70
     0
  0
ENDTAB
  0
TABLE
  2
DIMSTYLE
  5
A
330
0
100
AcDbSymbolTable
 70
     1
100
AcDbDimStyleTable
  0
DIMSTYLE
105
27
330
A
100
AcDbSymbolTableRecord
100
AcDbDimStyleTableRecord
  2
Standard
 70
     0
178
     0
340
11
  0
ENDTAB
  0
TABLE
  2
BLOCK_RECORD
  5
1
330
0
100
AcDbSymbolTable
 70
     1
  0
BLOCK_RECORD
  5
1F
330
1
100
AcDbSymbolTableRecord
100
AcDbBlockTableRecord
  2
*Model_Space
340
22
 70
     0
280
     1
281
     0
  0
BLOCK_RECORD
  5
1B
330
1
100
AcDbSymbolTableRecord
100
AcDbBlockTableRecord
  2
*Paper_Space
340
1E
 70
     0
280
     1
281
     0
  0
BLOCK_RECORD
  5
23
330
1
100
AcDbSymbolTableRecord
100
AcDbBlockTableRecord
  2
*Paper_Space0
340
26
 70
     0
280
     1
281
     0
  0
ENDTAB
  0
ENDSEC
  0
SECTION
  2
BLOCKS
  0
BLOCK
  5
20
330
1F
100
AcDbEntity
  8
0
100
AcDbBlockBegin
  2
*Model_Space
 70
     0
 10
0.0
 20
0.0
 30
0.0
  3
*Model_Space
  1

  0
ENDBLK
  5
21
330
1F
100
AcDbEntity
  8
0
100
AcDbBlockEnd
  0
BLOCK
  5
1C
330
1B
100
AcDbEntity
 67
     1
  8
0
100
AcDbBlockBegin
  2
*Paper_Space
 70
     0
 10
0.0
 20
0.0
 30
0.0
  3
*Paper_Space
  1

  0
ENDBLK
  5
1D
330
1B
100
AcDbEntity
 67
     1
  8
0
100
AcDbBlockEnd
  0
BLOCK
  5
24
330
23
100
AcDbEntity
  8
0
100
AcDbBlockBegin
  2
*Paper_Space0
 70
     0
 10
0.0
 20
0.0
 30
0.0
  3
*Paper_Space0
  1

  0
ENDBLK
  5
25
330
23
100
AcDbEntity
  8
0
100
AcDbBlockEnd
  0
ENDSEC
  0
SECTION
  2
ENTITIES
  0
SPLINE
  5
60
330
1F
100
AcDbEntity
  8
Layer 1
 62
   250
370
    20
100
AcDbSpline
210
0.0
220
0.0
230
1.0
 70
    11
 71
     3
 72
    20
 73
    16
 74
     0
 42
0.0000000001
 43
0.0000000001
 40
0.0
 40
0.0
 40
0.0
 40
0.0
 40
0.2
 40
0.2
 40
0.2
 40
0.4
 40
0.4
 40
0.4
 40
0.6000000000000001
 40
0.6000000000000001
 40
0.6000000000000001
 40
0.8
 40
0.8
 40
0.8
 40
1.0
 40
1.0
 40
1.0
 40
1.0
 10
533.8854
 20
589.9734
 30
0.0
 10
533.8854
 20
589.9734
 30
0.0
 10
570.094
 20
589.9734
 30
0.0
 10
570.094
 20
589.9734
 30
0.0
 10
595.7377
 20
562.6047
 30
0.0
 10
577.8444
 20
511.3753
 30
0.0
 10
554.5858
 20
498.3999
 30
0.0
 10
540.2778
 20
496.1685
 30
0.0
 10
530.7211
 20
514.0261
 30
0.0
 10
523.5786
 20
530.7649
 30
0.0
 10
522.9174
 20
543.4041
 30
0.0
 10
521.3797
 20
558.8838
 30
0.0
 10
525.6084
 20
571.4584
 30
0.0
 10
527.1392
 20
579.4561
 30
0.0
 10
530.1925
 20
585.2256
 30
0.0
 10
533.8854
 20
589.9734
 30
0.0
  0
SPLINE
  5
61
330
1F
100
AcDbEntity
  8
Layer 1
 62
   250
370
    20
100
AcDbSpline
210
0.0
220
0.0
230
1.0
 70
    11
 71
     3
 72
  1337
 73
  1333
 74
     0
 42
0.0000000001
 43
0.0000000001
 40
0.0
 40
0.0
 40
0.0
 40
0.0
 40
0.0022522522522523
 40
0.0022522522522523
 40
0.0022522522522523
 40
0.0045045045045045
 40
0.0045045045045045
 40
0.0045045045045045
 40
0.0067567567567568
 40
0.0067567567567568
 40
0.0067567567567568
 40
0.009009009009009
 40
0.009009009009009
 40
0.009009009009009
 40
0.0112612612612613
 40
0.0112612612612613
 40
0.0112612612612613
 40
0.0135135135135135
 40
0.0135135135135135
 40
0.0135135135135135
 40
0.0157657657657658
 40
0.0157657657657658
 40
0.0157657657657658
 40
0.018018018018018
 40
0.018018018018018
 40
0.018018018018018
 40
0.0202702702702703
 40
0.0202702702702703
 40
0.0202702702702703
 40
0.0225225225225225
 40
0.0225225225225225
 40
0.0225225225225225
 40
0.0247747747747748
 40
0.0247747747747748
 40
0.0247747747747748
 40
0.027027027027027
 40
0.027027027027027
 40
0.027027027027027
 40
0.0292792792792793
 40
0.0292792792792793
 40
0.0292792792792793
 40
0.0315315315315315
 40
0.0315315315315315
 40
0.0315315315315315
 40
0.0337837837837838
 40
0.0337837837837838
 40
0.0337837837837838
 40
0.036036036036036
 40
0.036036036036036
 40
0.036036036036036
 40
0.0382882882882883
 40
0.0382882882882883
 40
0.0382882882882883
 40
0.0405405405405405
 40
0.0405405405405405
 40
0.0405405405405405
 40
0.0427927927927928
 40
0.0427927927927928
 40
0.0427927927927928
 40
0.045045045045045
 40
0.045045045045045
 40
0.045045045045045
 40
0.0472972972972973
 40
0.0472972972972973
 40
0.0472972972972973
 40
0.0495495495495495
 40
0.0495495495495495
 40
0.0495495495495495
 40
0.0518018018018018
 40
0.0518018018018018
 40
0.0518018018018018
 40
0.0540540540540541
 40
0.0540540540540541
 40
0.0540540540540541
 40
0.0563063063063063
 40
0.0563063063063063
 40
0.0563063063063063
 40
0.0585585585585586
 40
0.0585585585585586
 40
0.0585585585585586
 40
0.0608108108108108
 40
0.0608108108108108
 40
0.0608108108108108
 40
0.0630630630630631
 40
0.0630630630630631
 40
0.0630630630630631
 40
0.0653153153153153
 40
0.0653153153153153
 40
0.0653153153153153
 40
0.0675675675675676
 40
0.0675675675675676
 40
0.0675675675675676
 40
0.0698198198198198
 40
0.0698198198198198
 40
0.0698198198198198
 40
0.0720720720720721
 40
0.0720720720720721
 40
0.0720720720720721
 40
0.0743243243243243
 40
0.0743243243243243
 40
0.0743243243243243
 40
0.0765765765765766
 40
0.0765765765765766
 40
0.0765765765765766
 40
0.0788288288288288
 40
0.0788288288288288
 40
0.0788288288288288
 40
0.0810810810810811
 40
0.0810810810810811
 40
0.0810810810810811
 40
0.0833333333333333
 40
0.0833333333333333
 40
0.0833333333333333
 40
0.0855855855855856
 40
0.0855855855855856
 40
0.0855855855855856
 40
0.0878378378378378
 40
0.0878378378378378
 40
0.0878378378378378
 40
0.0900900900900901
 40
0.0900900900900901
 40
0.0900900900900901
 40
0.0923423423423423
 40
0.0923423423423423
 40
0.0923423423423423
 40
0.0945945945945946
 40
0.0945945945945946
 40
0.0945945945945946
 40
0.0968468468468468
 40
0.0968468468468468
 40
0.0968468468468468
 40
0.0990990990990991
 40
0.0990990990990991
 40
0.0990990990990991
 40
0.1013513513513514
 40
0.1013513513513514
 40
0.1013513513513514
 40
0.1036036036036036
 40
0.1036036036036036
 40
0.1036036036036036
 40
0.1058558558558559
 40
0.1058558558558559
 40
0.1058558558558559
 40
0.1081081081081081
 40
0.1081081081081081
 40
0.1081081081081081
 40
0.1103603603603604
 40
0.1103603603603604
 40
0.1103603603603604
 40
0.1126126126126126
 40
0.1126126126126126
 40
0.1126126126126126
 40
0.1148648648648649
 40
0.1148648648648649
 40
0.1148648648648649
 40
0.1171171171171171
 40
0.1171171171171171
 40
0.1171171171171171
 40
0.1193693693693694
 40
0.1193693693693694
 40
0.1193693693693694
 40
0.1216216216216216
 40
0.1216216216216216
 40
0.1216216216216216
 40
0.1238738738738739
 40
0.1238738738738739
 40
0.1238738738738739
 40
0.1261261261261261
 40
0.1261261261261261
 40
0.1261261261261261
 40
0.1283783783783784
 40
0.1283783783783784
 40
0.1283783783783784
 40
0.1306306306306306
 40
0.1306306306306306
 40
0.1306306306306306
 40
0.1328828828828829
 40
0.1328828828828829
 40
0.1328828828828829
 40
0.1351351351351351
 40
0.1351351351351351
 40
0.1351351351351351
 40
0.1373873873873874
 40
0.1373873873873874
 40
0.1373873873873874
 40
0.1396396396396396
 40
0.1396396396396396
 40
0.1396396396396396
 40
0.1418918918918919
 40
0.1418918918918919
 40
0.1418918918918919
 40
0.1441441441441441
 40
0.1441441441441441
 40
0.1441441441441441
 40
0.1463963963963964
 40
0.1463963963963964
 40
0.1463963963963964
 40
0.1486486486486487
 40
0.1486486486486487
 40
0.1486486486486487
 40
0.1509009009009009
 40
0.1509009009009009
 40
0.1509009009009009
 40
0.1531531531531531
 40
0.1531531531531531
 40
0.1531531531531531
 40
0.1554054054054054
 40
0.1554054054054054
 40
0.1554054054054054
 40
0.1576576576576577
 40
0.1576576576576577
 40
0.1576576576576577
 40
0.1599099099099099
 40
0.1599099099099099
 40
0.1599099099099099
 40
0.1621621621621622
 40
0.1621621621621622
 40
0.1621621621621622
 40
0.1644144144144144
 40
0.1644144144144144
 40
0.1644144144144144
 40
0.1666666666666667
 40
0.1666666666666667
 40
0.1666666666666667
 40
0.1689189189189189
 40
0.1689189189189189
 40
0.1689189189189189
 40
0.1711711711711712
 40
0.1711711711711712
 40
0.1711711711711712
 40
0.1734234234234234
 40
0.1734234234234234
 40
0.1734234234234234
 40
0.1756756756756757
 40
0.1756756756756757
 40
0.1756756756756757
 40
0.1779279279279279
 40
0.1779279279279279
 40
0.1779279279279279
 40
0.1801801801801802
 40
0.1801801801801802
 40
0.1801801801801802
 40
0.1824324324324324
 40
0.1824324324324324
 40
0.1824324324324324
 40
0.1846846846846847
 40
0.1846846846846847
 40
0.1846846846846847
 40
0.1869369369369369
 40
0.1869369369369369
 40
0.1869369369369369
 40
0.1891891891891892
 40
0.1891891891891892
 40
0.1891891891891892
 40
0.1914414414414414
 40
0.1914414414414414
 40
0.1914414414414414
 40
0.1936936936936937
 40
0.1936936936936937
 40
0.1936936936936937
 40
0.1959459459459459
 40
0.1959459459459459
 40
0.1959459459459459
 40
0.1981981981981982
 40
0.1981981981981982
 40
0.1981981981981982
 40
0.2004504504504505
 40
0.2004504504504505
 40
0.2004504504504505
 40
0.2027027027027027
 40
0.2027027027027027
 40
0.2027027027027027
 40
0.2049549549549549
 40
0.2049549549549549
 40
0.2049549549549549
 40
0.2072072072072072
 40
0.2072072072072072
 40
0.2072072072072072
 40
0.2094594594594595
 40
0.2094594594594595
 40
0.2094594594594595
 40
0.2117117117117117
 40
0.2117117117117117
 40
0.2117117117117117
 40
0.213963963963964
 40
0.213963963963964
 40
0.213963963963964
 40
0.2162162162162162
 40
0.2162162162162162
 40
0.2162162162162162
 40
0.2184684684684685
 40
0.2184684684684685
 40
0.2184684684684685
 40
0.2207207207207207
 40
0.2207207207207207
 40
0.2207207207207207
 40
0.222972972972973
 40
0.222972972972973
 40
0.222972972972973
 40
0.2252252252252252
 40
0.2252252252252252
 40
0.2252252252252252
 40
0.2274774774774775
 40
0.2274774774774775
 40
0.2274774774774775
 40
0.2297297297297297
 40
0.2297297297297297
 40
0.2297297297297297
 40
0.231981981981982
 40
0.231981981981982
 40
0.231981981981982
 40
0.2342342342342342
 40
0.2342342342342342
 40
0.2342342342342342
 40
0.2364864864864865
 40
0.2364864864864865
 40
0.2364864864864865
 40
0.2387387387387387
 40
0.2387387387387387
 40
0.2387387387387387
 40
0.240990990990991
 40
0.240990990990991
 40
0.240990990990991
 40
0.2432432432432432
 40
0.2432432432432432
 40
0.2432432432432432
 40
0.2454954954954955
 40
0.2454954954954955
 40
0.2454954954954955
 40
0.2477477477477477
 40
0.2477477477477477
 40
0.2477477477477477
 40
0.25
 40
0.25
 40
0.25
 40
0.2522522522522522
 40
0.2522522522522522
 40
0.2522522522522522
 40
0.2545045045045045
 40
0.2545045045045045
 40
0.2545045045045045
 40
0.2567567567567567
 40
0.2567567567567567
 40
0.2567567567567567
 40
0.259009009009009
 40
0.259009009009009
 40
0.259009009009009
 40
0.2612612612612613
 40
0.2612612612612613
 40
0.2612612612612613
 40
0.2635135135135135
 40
0.2635135135135135
 40
0.2635135135135135
 40
0.2657657657657658
 40
0.2657657657657658
 40
0.2657657657657658
 40
0.268018018018018
 40
0.268018018018018
 40
0.268018018018018
 40
0.2702702702702703
 40
0.2702702702702703
 40
0.2702702702702703
 40
0.2725225225225225
 40
0.2725225225225225
 40
0.2725225225225225
 40
0.2747747747747748
 40
0.2747747747747748
 40
0.2747747747747748
 40
0.277027027027027
 40
0.277027027027027
 40
0.277027027027027
 40
0.2792792792792793
 40
0.2792792792792793
 40
0.2792792792792793
 40
0.2815315315315315
 40
0.2815315315315315
 40
0.2815315315315315
 40
0.2837837837837838
 40
0.2837837837837838
 40
0.2837837837837838
 40
0.2860360360360361
 40
0.2860360360360361
 40
0.2860360360360361
 40
0.2882882882882883
 40
0.2882882882882883
 40
0.2882882882882883
 40
0.2905405405405405
 40
0.2905405405405405
 40
0.2905405405405405
 40
0.2927927927927928
 40
0.2927927927927928
 40
0.2927927927927928
 40
0.295045045045045
 40
0.295045045045045
 40
0.295045045045045
 40
0.2972972972972973
 40
0.2972972972972973
 40
0.2972972972972973
 40
0.2995495495495495
 40
0.2995495495495495
 40
0.2995495495495495
 40
0.3018018018018018
 40
0.3018018018018018
 40
0.3018018018018018
 40
0.3040540540540541
 40
0.3040540540540541
 40
0.3040540540540541
 40
0.3063063063063063
 40
0.3063063063063063
 40
0.3063063063063063
 40
0.3085585585585586
 40
0.3085585585585586
 40
0.3085585585585586
 40
0.3108108108108108
 40
0.3108108108108108
 40
0.3108108108108108
 40
0.3130630630630631
 40
0.3130630630630631
 40
0.3130630630630631
 40
0.3153153153153153
 40
0.3153153153153153
 40
0.3153153153153153
 40
0.3175675675675675
 40
0.3175675675675675
 40
0.3175675675675675
 40
0.3198198198198198
 40
0.3198198198198198
 40
0.3198198198198198
 40
0.3220720720720721
 40
0.3220720720720721
 40
0.3220720720720721
 40
0.3243243243243243
 40
0.3243243243243243
 40
0.3243243243243243
 40
0.3265765765765766
 40
0.3265765765765766
 40
0.3265765765765766
 40
0.3288288288288288
 40
0.3288288288288288
 40
0.3288288288288288
 40
0.3310810810810811
 40
0.3310810810810811
 40
0.3310810810810811
 40
0.3333333333333333
 40
0.3333333333333333
 40
0.3333333333333333
 40
0.3355855855855856
 40
0.3355855855855856
 40
0.3355855855855856
 40
0.3378378378378378
 40
0.3378378378378378
 40
0.3378378378378378
 40
0.3400900900900901
 40
0.3400900900900901
 40
0.3400900900900901
 40
0.3423423423423423
 40
0.3423423423423423
 40
0.3423423423423423
 40
0.3445945945945946
 40
0.3445945945945946
 40
0.3445945945945946
 40
0.3468468468468469
 40
0.3468468468468469
 40
0.3468468468468469
 40
0.3490990990990991
 40
0.3490990990990991
 40
0.3490990990990991
 40
0.3513513513513514
 40
0.3513513513513514
 40
0.3513513513513514
 40
0.3536036036036036
 40
0.3536036036036036
 40
0.3536036036036036
 40
0.3558558558558558
 40
0.3558558558558558
 40
0.3558558558558558
 40
0.3581081081081081
 40
0.3581081081081081
 40
0.3581081081081081
 40
0.3603603603603603
 40
0.3603603603603603
 40
0.3603603603603603
 40
0.3626126126126126
 40
0.3626126126126126
 40
0.3626126126126126
 40
0.3648648648648649
 40
0.3648648648648649
 40
0.3648648648648649
 40
0.3671171171171171
 40
0.3671171171171171
 40
0.3671171171171171
 40
0.3693693693693694
 40
0.3693693693693694
 40
0.3693693693693694
 40
0.3716216216216216
 40
0.3716216216216216
 40
0.3716216216216216
 40
0.3738738738738739
 40
0.3738738738738739
 40
0.3738738738738739
 40
0.3761261261261261
 40
0.3761261261261261
 40
0.3761261261261261
 40
0.3783783783783784
 40
0.3783783783783784
 40
0.3783783783783784
 40
0.3806306306306306
 40
0.3806306306306306
 40
0.3806306306306306
 40
0.3828828828828829
 40
0.3828828828828829
 40
0.3828828828828829
 40
0.3851351351351351
 40
0.3851351351351351
 40
0.3851351351351351
 40
0.3873873873873874
 40
0.3873873873873874
 40
0.3873873873873874
 40
0.3896396396396397
 40
0.3896396396396397
 40
0.3896396396396397
 40
0.3918918918918919
 40
0.3918918918918919
 40
0.3918918918918919
 40
0.3941441441441441
 40
0.3941441441441441
 40
0.3941441441441441
 40
0.3963963963963964
 40
0.3963963963963964
 40
0.3963963963963964
 40
0.3986486486486486
 40
0.3986486486486486
 40
0.3986486486486486
 40
0.4009009009009009
 40
0.4009009009009009
 40
0.4009009009009009
 40
0.4031531531531531
 40
0.4031531531531531
 40
0.4031531531531531
 40
0.4054054054054054
 40
0.4054054054054054
 40
0.4054054054054054
 40
0.4076576576576577
 40
0.4076576576576577
 40
0.4076576576576577
 40
0.4099099099099099
 40
0.4099099099099099
 40
0.4099099099099099
 40
0.4121621621621622
 40
0.4121621621621622
 40
0.4121621621621622
 40
0.4144144144144144
 40
0.4144144144144144
 40
0.4144144144144144
 40
0.4166666666666667
 40
0.4166666666666667
 40
0.4166666666666667
 40
0.4189189189189189
 40
0.4189189189189189
 40
0.4189189189189189
 40
0.4211711711711711
 40
0.4211711711711711
 40
0.4211711711711711
 40
0.4234234234234234
 40
0.4234234234234234
 40
0.4234234234234234
 40
0.4256756756756757
 40
0.4256756756756757
 40
0.4256756756756757
 40
0.4279279279279279
 40
0.4279279279279279
 40
0.4279279279279279
 40
0.4301801801801802
 40
0.4301801801801802
 40
0.4301801801801802
 40
0.4324324324324325
 40
0.4324324324324325
 40
0.4324324324324325
 40
0.4346846846846847
 40
0.4346846846846847
 40
0.4346846846846847
 40
0.4369369369369369
 40
0.4369369369369369
 40
0.4369369369369369
 40
0.4391891891891892
 40
0.4391891891891892
 40
0.4391891891891892
 40
0.4414414414414414
 40
0.4414414414414414
 40
0.4414414414414414
 40
0.4436936936936937
 40
0.4436936936936937
 40
0.4436936936936937
 40
0.4459459459459459
 40
0.4459459459459459
 40
0.4459459459459459
 40
0.4481981981981982
 40
0.4481981981981982
 40
0.4481981981981982
 40
0.4504504504504505
 40
0.4504504504504505
 40
0.4504504504504505
 40
0.4527027027027027
 40
0.4527027027027027
 40
0.4527027027027027
 40
0.454954954954955
 40
0.454954954954955
 40
0.454954954954955
 40
0.4572072072072072
 40
0.4572072072072072
 40
0.4572072072072072
 40
0.4594594594594594
 40
0.4594594594594594
 40
0.4594594594594594
 40
0.4617117117117117
 40
0.4617117117117117
 40
0.4617117117117117
 40
0.4639639639639639
 40
0.4639639639639639
 40
0.4639639639639639
 40
0.4662162162162162
 40
0.4662162162162162
 40
0.4662162162162162
 40
0.4684684684684685
 40
0.4684684684684685
 40
0.4684684684684685
 40
0.4707207207207207
 40
0.4707207207207207
 40
0.4707207207207207
 40
0.472972972972973
 40
0.472972972972973
 40
0.472972972972973
 40
0.4752252252252252
 40
0.4752252252252252
 40
0.4752252252252252
 40
0.4774774774774775
 40
0.4774774774774775
 40
0.4774774774774775
 40
0.4797297297297297
 40
0.4797297297297297
 40
0.4797297297297297
 40
0.481981981981982
 40
0.481981981981982
 40
0.481981981981982
 40
0.4842342342342342
 40
0.4842342342342342
 40
0.4842342342342342
 40
0.4864864864864865
 40
0.4864864864864865
 40
0.4864864864864865
 40
0.4887387387387387
 40
0.4887387387387387
 40
0.4887387387387387
 40
0.490990990990991
 40
0.490990990990991
 40
0.490990990990991
 40
0.4932432432432433
 40
0.4932432432432433
 40
0.4932432432432433
 40
0.4954954954954955
 40
0.4954954954954955
 40
0.4954954954954955
 40
0.4977477477477478
 40
0.4977477477477478
 40
0.4977477477477478
 40
0.5
 40
0.5
 40
0.5
 40
0.5022522522522522
 40
0.5022522522522522
 40
0.5022522522522522
 40
0.5045045045045045
 40
0.5045045045045045
 40
0.5045045045045045
 40
0.5067567567567568
 40
0.5067567567567568
 40
0.5067567567567568
 40
0.509009009009009
 40
0.509009009009009
 40
0.509009009009009
 40
0.5112612612612613
 40
0.5112612612612613
 40
0.5112612612612613
 40
0.5135135135135135
 40
0.5135135135135135
 40
0.5135135135135135
 40
0.5157657657657657
 40
0.5157657657657657
 40
0.5157657657657657
 40
0.5180180180180181
 40
0.5180180180180181
 40
0.5180180180180181
 40
0.5202702702702703
 40
0.5202702702702703
 40
0.5202702702702703
 40
0.5225225225225225
 40
0.5225225225225225
 40
0.5225225225225225
 40
0.5247747747747747
 40
0.5247747747747747
 40
0.5247747747747747
 40
0.527027027027027
 40
0.527027027027027
 40
0.527027027027027
 40
0.5292792792792793
 40
0.5292792792792793
 40
0.5292792792792793
 40
0.5315315315315315
 40
0.5315315315315315
 40
0.5315315315315315
 40
0.5337837837837838
 40
0.5337837837837838
 40
0.5337837837837838
 40
0.536036036036036
 40
0.536036036036036
 40
0.536036036036036
 40
0.5382882882882882
 40
0.5382882882882882
 40
0.5382882882882882
 40
0.5405405405405406
 40
0.5405405405405406
 40
0.5405405405405406
 40
0.5427927927927928
 40
0.5427927927927928
 40
0.5427927927927928
 40
0.545045045045045
 40
0.545045045045045
 40
0.545045045045045
 40
0.5472972972972973
 40
0.5472972972972973
 40
0.5472972972972973
 40
0.5495495495495496
 40
0.5495495495495496
 40
0.5495495495495496
 40
0.5518018018018018
 40
0.5518018018018018
 40
0.5518018018018018
 40
0.5540540540540541
 40
0.5540540540540541
 40
0.5540540540540541
 40
0.5563063063063063
 40
0.5563063063063063
 40
0.5563063063063063
 40
0.5585585585585585
 40
0.5585585585585585
 40
0.5585585585585585
 40
0.5608108108108109
 40
0.5608108108108109
 40
0.5608108108108109
 40
0.5630630630630631
 40
0.5630630630630631
 40
0.5630630630630631
 40
0.5653153153153153
 40
0.5653153153153153
 40
0.5653153153153153
 40
0.5675675675675675
 40
0.5675675675675675
 40
0.5675675675675675
 40
0.5698198198198198
 40
0.5698198198198198
 40
0.5698198198198198
 40
0.5720720720720721
 40
0.5720720720720721
 40
0.5720720720720721
 40
0.5743243243243243
 40
0.5743243243243243
 40
0.5743243243243243
 40
0.5765765765765766
 40
0.5765765765765766
 40
0.5765765765765766
 40
0.5788288288288288
 40
0.5788288288288288
 40
0.5788288288288288
 40
0.581081081081081
 40
0.581081081081081
 40
0.581081081081081
 40
0.5833333333333334
 40
0.5833333333333334
 40
0.5833333333333334
 40
0.5855855855855856
 40
0.5855855855855856
 40
0.5855855855855856
 40
0.5878378378378378
 40
0.5878378378378378
 40
0.5878378378378378
 40
0.5900900900900901
 40
0.5900900900900901
 40
0.5900900900900901
 40
0.5923423423423423
 40
0.5923423423423423
 40
0.5923423423423423
 40
0.5945945945945946
 40
0.5945945945945946
 40
0.5945945945945946
 40
0.5968468468468469
 40
0.5968468468468469
 40
0.5968468468468469
 40
0.5990990990990991
 40
0.5990990990990991
 40
0.5990990990990991
 40
0.6013513513513513
 40
0.6013513513513513
 40
0.6013513513513513
 40
0.6036036036036035
 40
0.6036036036036035
 40
0.6036036036036035
 40
0.6058558558558559
 40
0.6058558558558559
 40
0.6058558558558559
 40
0.6081081081081081
 40
0.6081081081081081
 40
0.6081081081081081
 40
0.6103603603603603
 40
0.6103603603603603
 40
0.6103603603603603
 40
0.6126126126126126
 40
0.6126126126126126
 40
0.6126126126126126
 40
0.6148648648648649
 40
0.6148648648648649
 40
0.6148648648648649
 40
0.6171171171171171
 40
0.6171171171171171
 40
0.6171171171171171
 40
0.6193693693693694
 40
0.6193693693693694
 40
0.6193693693693694
 40
0.6216216216216216
 40
0.6216216216216216
 40
0.6216216216216216
 40
0.6238738738738738
 40
0.6238738738738738
 40
0.6238738738738738
 40
0.6261261261261262
 40
0.6261261261261262
 40
0.6261261261261262
 40
0.6283783783783784
 40
0.6283783783783784
 40
0.6283783783783784
 40
0.6306306306306306
 40
0.6306306306306306
 40
0.6306306306306306
 40
0.6328828828828829
 40
0.6328828828828829
 40
0.6328828828828829
 40
0.6351351351351351
 40
0.6351351351351351
 40
0.6351351351351351
 40
0.6373873873873874
 40
0.6373873873873874
 40
0.6373873873873874
 40
0.6396396396396397
 40
0.6396396396396397
 40
0.6396396396396397
 40
0.6418918918918919
 40
0.6418918918918919
 40
0.6418918918918919
 40
0.6441441441441441
 40
0.6441441441441441
 40
0.6441441441441441
 40
0.6463963963963963
 40
0.6463963963963963
 40
0.6463963963963963
 40
0.6486486486486487
 40
0.6486486486486487
 40
0.6486486486486487
 40
0.6509009009009009
 40
0.6509009009009009
 40
0.6509009009009009
 40
0.6531531531531531
 40
0.6531531531531531
 40
0.6531531531531531
 40
0.6554054054054054
 40
0.6554054054054054
 40
0.6554054054054054
 40
0.6576576576576576
 40
0.6576576576576576
 40
0.6576576576576576
 40
0.6599099099099099
 40
0.6599099099099099
 40
0.6599099099099099
 40
0.6621621621621622
 40
0.6621621621621622
 40
0.6621621621621622
 40
0.6644144144144144
 40
0.6644144144144144
 40
0.6644144144144144
 40
0.6666666666666666
 40
0.6666666666666666
 40
0.6666666666666666
 40
0.6689189189189189
 40
0.6689189189189189
 40
0.6689189189189189
 40
0.6711711711711712
 40
0.6711711711711712
 40
0.6711711711711712
 40
0.6734234234234234
 40
0.6734234234234234
 40
0.6734234234234234
 40
0.6756756756756757
 40
0.6756756756756757
 40
0.6756756756756757
 40
0.6779279279279279
 40
0.6779279279279279
 40
0.6779279279279279
 40
0.6801801801801802
 40
0.6801801801801802
 40
0.6801801801801802
 40
0.6824324324324325
 40
0.6824324324324325
 40
0.6824324324324325
 40
0.6846846846846847
 40
0.6846846846846847
 40
0.6846846846846847
 40
0.6869369369369369
 40
0.6869369369369369
 40
0.6869369369369369
 40
0.6891891891891891
 40
0.6891891891891891
 40
0.6891891891891891
 40
0.6914414414414415
 40
0.6914414414414415
 40
0.6914414414414415
 40
0.6936936936936937
 40
0.6936936936936937
 40
0.6936936936936937
 40
0.6959459459459459
 40
0.6959459459459459
 40
0.6959459459459459
 40
0.6981981981981982
 40
0.6981981981981982
 40
0.6981981981981982
 40
0.7004504504504504
 40
0.7004504504504504
 40
0.7004504504504504
 40
0.7027027027027027
 40
0.7027027027027027
 40
0.7027027027027027
 40
0.704954954954955
 40
0.704954954954955
 40
0.704954954954955
 40
0.7072072072072072
 40
0.7072072072072072
 40
0.7072072072072072
 40
0.7094594594594594
 40
0.7094594594594594
 40
0.7094594594594594
 40
0.7117117117117117
 40
0.7117117117117117
 40
0.7117117117117117
 40
0.713963963963964
 40
0.713963963963964
 40
0.713963963963964
 40
0.7162162162162162
 40
0.7162162162162162
 40
0.7162162162162162
 40
0.7184684684684685
 40
0.7184684684684685
 40
0.7184684684684685
 40
0.7207207207207207
 40
0.7207207207207207
 40
0.7207207207207207
 40
0.7229729729729729
 40
0.7229729729729729
 40
0.7229729729729729
 40
0.7252252252252253
 40
0.7252252252252253
 40
0.7252252252252253
 40
0.7274774774774775
 40
0.7274774774774775
 40
0.7274774774774775
 40
0.7297297297297297
 40
0.7297297297297297
 40
0.7297297297297297
 40
0.7319819819819819
 40
0.7319819819819819
 40
0.7319819819819819
 40
0.7342342342342342
 40
0.7342342342342342
 40
0.7342342342342342
 40
0.7364864864864865
 40
0.7364864864864865
 40
0.7364864864864865
 40
0.7387387387387387
 40
0.7387387387387387
 40
0.7387387387387387
 40
0.740990990990991
 40
0.740990990990991
 40
0.740990990990991
 40
0.7432432432432432
 40
0.7432432432432432
 40
0.7432432432432432
 40
0.7454954954954955
 40
0.7454954954954955
 40
0.7454954954954955
 40
0.7477477477477478
 40
0.7477477477477478
 40
0.7477477477477478
 40
0.75
 40
0.75
 40
0.75
 40
0.7522522522522522
 40
0.7522522522522522
 40
0.7522522522522522
 40
0.7545045045045045
 40
0.7545045045045045
 40
0.7545045045045045
 40
0.7567567567567568
 40
0.7567567567567568
 40
0.7567567567567568
 40
0.759009009009009
 40
0.759009009009009
 40
0.759009009009009
 40
0.7612612612612613
 40
0.7612612612612613
 40
0.7612612612612613
 40
0.7635135135135135
 40
0.7635135135135135
 40
0.7635135135135135
 40
0.7657657657657657
 40
0.7657657657657657
 40
0.7657657657657657
 40
0.7680180180180181
 40
0.7680180180180181
 40
0.7680180180180181
 40
0.7702702702702703
 40
0.7702702702702703
 40
0.7702702702702703
 40
0.7725225225225225
 40
0.7725225225225225
 40
0.7725225225225225
 40
0.7747747747747747
 40
0.7747747747747747
 40
0.7747747747747747
 40
0.777027027027027
 40
0.777027027027027
 40
0.777027027027027
 40
0.7792792792792793
 40
0.7792792792792793
 40
0.7792792792792793
 40
0.7815315315315315
 40
0.7815315315315315
 40
0.7815315315315315
 40
0.7837837837837838
 40
0.7837837837837838
 40
0.7837837837837838
 40
0.786036036036036
 40
0.786036036036036
 40
0.786036036036036
 40
0.7882882882882882
 40
0.7882882882882882
 40
0.7882882882882882
 40
0.7905405405405406
 40
0.7905405405405406
 40
0.7905405405405406
 40
0.7927927927927928
 40
0.7927927927927928
 40
0.7927927927927928
 40
0.795045045045045
 40
0.795045045045045
 40
0.795045045045045
 40
0.7972972972972973
 40
0.7972972972972973
 40
0.7972972972972973
 40
0.7995495495495495
 40
0.7995495495495495
 40
0.7995495495495495
 40
0.8018018018018018
 40
0.8018018018018018
 40
0.8018018018018018
 40
0.8040540540540541
 40
0.8040540540540541
 40
0.8040540540540541
 40
0.8063063063063063
 40
0.8063063063063063
 40
0.8063063063063063
 40
0.8085585585585585
 40
0.8085585585585585
 40
0.8085585585585585
 40
0.8108108108108109
 40
0.8108108108108109
 40
0.8108108108108109
 40
0.8130630630630631
 40
0.8130630630630631
 40
0.8130630630630631
 40
0.8153153153153153
 40
0.8153153153153153
 40
0.8153153153153153
 40
0.8175675675675675
 40
0.8175675675675675
 40
0.8175675675675675
 40
0.8198198198198198
 40
0.8198198198198198
 40
0.8198198198198198
 40
0.8220720720720721
 40
0.8220720720720721
 40
0.8220720720720721
 40
0.8243243243243243
 40
0.8243243243243243
 40
0.8243243243243243
 40
0.8265765765765766
 40
0.8265765765765766
 40
0.8265765765765766
 40
0.8288288288288288
 40
0.8288288288288288
 40
0.8288288288288288
 40
0.831081081081081
 40
0.831081081081081
 40
0.831081081081081
 40
0.8333333333333334
 40
0.8333333333333334
 40
0.8333333333333334
 40
0.8355855855855856
 40
0.8355855855855856
 40
0.8355855855855856
 40
0.8378378378378378
 40
0.8378378378378378
 40
0.8378378378378378
 40
0.8400900900900901
 40
0.8400900900900901
 40
0.8400900900900901
 40
0.8423423423423423
 40
0.8423423423423423
 40
0.8423423423423423
 40
0.8445945945945946
 40
0.8445945945945946
 40
0.8445945945945946
 40
0.8468468468468469
 40
0.8468468468468469
 40
0.8468468468468469
 40
0.8490990990990991
 40
0.8490990990990991
 40
0.8490990990990991
 40
0.8513513513513513
 40
0.8513513513513513
 40
0.8513513513513513
 40
0.8536036036036035
 40
0.8536036036036035
 40
0.8536036036036035
 40
0.8558558558558559
 40
0.8558558558558559
 40
0.8558558558558559
 40
0.8581081081081081
 40
0.8581081081081081
 40
0.8581081081081081
 40
0.8603603603603603
 40
0.8603603603603603
 40
0.8603603603603603
 40
0.8626126126126126
 40
0.8626126126126126
 40
0.8626126126126126
 40
0.8648648648648649
 40
0.8648648648648649
 40
0.8648648648648649
 40
0.8671171171171171
 40
0.8671171171171171
 40
0.8671171171171171
 40
0.8693693693693694
 40
0.8693693693693694
 40
0.8693693693693694
 40
0.8716216216216216
 40
0.8716216216216216
 40
0.8716216216216216
 40
0.8738738738738738
 40
0.8738738738738738
 40
0.8738738738738738
 40
0.8761261261261262
 40
0.8761261261261262
 40
0.8761261261261262
 40
0.8783783783783784
 40
0.8783783783783784
 40
0.8783783783783784
 40
0.8806306306306306
 40
0.8806306306306306
 40
0.8806306306306306
 40
0.8828828828828829
 40
0.8828828828828829
 40
0.8828828828828829
 40
0.8851351351351351
 40
0.8851351351351351
 40
0.8851351351351351
 40
0.8873873873873874
 40
0.8873873873873874
 40
0.8873873873873874
 40
0.8896396396396397
 40
0.8896396396396397
 40
0.8896396396396397
 40
0.8918918918918919
 40
0.8918918918918919
 40
0.8918918918918919
 40
0.8941441441441441
 40
0.8941441441441441
 40
0.8941441441441441
 40
0.8963963963963963
 40
0.8963963963963963
 40
0.8963963963963963
 40
0.8986486486486487
 40
0.8986486486486487
 40
0.8986486486486487
 40
0.9009009009009009
 40
0.9009009009009009
 40
0.9009009009009009
 40
0.9031531531531531
 40
0.9031531531531531
 40
0.9031531531531531
 40
0.9054054054054054
 40
0.9054054054054054
 40
0.9054054054054054
 40
0.9076576576576576
 40
0.9076576576576576
 40
0.9076576576576576
 40
0.9099099099099099
 40
0.9099099099099099
 40
0.9099099099099099
 40
0.9121621621621622
 40
0.9121621621621622
 40
0.9121621621621622
 40
0.9144144144144144
 40
0.9144144144144144
 40
0.9144144144144144
 40
0.9166666666666666
 40
0.9166666666666666
 40
0.9166666666666666
 40
0.9189189189189189
 40
0.9189189189189189
 40
0.9189189189189189
 40
0.9211711711711712
 40
0.9211711711711712
 40
0.9211711711711712
 40
0.9234234234234234
 40
0.9234234234234234
 40
0.9234234234234234
 40
0.9256756756756757
 40
0.9256756756756757
 40
0.9256756756756757
 40
0.9279279279279279
 40
0.9279279279279279
 40
0.9279279279279279
 40
0.9301801801801802
 40
0.9301801801801802
 40
0.9301801801801802
 40
0.9324324324324325
 40
0.9324324324324325
 40
0.9324324324324325
 40
0.9346846846846847
 40
0.9346846846846847
 40
0.9346846846846847
 40
0.9369369369369369
 40
0.9369369369369369
 40
0.9369369369369369
 40
0.9391891891891891
 40
0.9391891891891891
 40
0.9391891891891891
 40
0.9414414414414415
 40
0.9414414414414415
 40
0.9414414414414415
 40
0.9436936936936937
 40
0.9436936936936937
 40
0.9436936936936937
 40
0.9459459459459459
 40
0.9459459459459459
 40
0.9459459459459459
 40
0.9481981981981982
 40
0.9481981981981982
 40
0.9481981981981982
 40
0.9504504504504504
 40
0.9504504504504504
 40
0.9504504504504504
 40
0.9527027027027027
 40
0.9527027027027027
 40
0.9527027027027027
 40
0.954954954954955
 40
0.954954954954955
 40
0.954954954954955
 40
0.9572072072072072
 40
0.9572072072072072
 40
0.9572072072072072
 40
0.9594594594594594
 40
0.9594594594594594
 40
0.9594594594594594
 40
0.9617117117117117
 40
0.9617117117117117
 40
0.9617117117117117
 40
0.963963963963964
 40
0.963963963963964
 40
0.963963963963964
 40
0.9662162162162162
 40
0.9662162162162162
 40
0.9662162162162162
 40
0.9684684684684685
 40
0.9684684684684685
 40
0.9684684684684685
 40
0.9707207207207207
 40
0.9707207207207207
 40
0.9707207207207207
 40
0.9729729729729729
 40
0.9729729729729729
 40
0.9729729729729729
 40
0.9752252252252253
 40
0.9752252252252253
 40
0.9752252252252253
 40
0.9774774774774775
 40
0.9774774774774775
 40
0.9774774774774775
 40
0.9797297297297297
 40
0.9797297297297297
 40
0.9797297297297297
 40
0.9819819819819819
 40
0.9819819819819819
 40
0.9819819819819819
 40
0.9842342342342342
 40
0.9842342342342342
 40
0.9842342342342342
 40
0.9864864864864865
 40
0.9864864864864865
 40
0.9864864864864865
 40
0.9887387387387387
 40
0.9887387387387387
 40
0.9887387387387387
 40
0.990990990990991
 40
0.990990990990991
 40
0.990990990990991
 40
0.9932432432432432
 40
0.9932432432432432
 40
0.9932432432432432
 40
0.9954954954954955
 40
0.9954954954954955
 40
0.9954954954954955
 40
0.9977477477477478
 40
0.9977477477477478
 40
0.9977477477477478
 40
1.0
 40
1.0
 40
1.0
 40
1.0
 10
-778.9183
 20
-590.0266
 30
0.0
 10
-778.9183
 20
-590.0266
 30
0.0
 10
-791.8559
 20
-590.0266
 30
0.0
 10
-791.8559
 20
-590.0266
 30
0.0
 10
-803.2367
 20
-564.934
 30
0.0
 10
-812.0424
 20
-536.09
 30
0.0
 10
-823.024
 20
-509.4793
 30
0.0
 10
-829.0053
 20
-530.4086
 30
0.0
 10
-834.2105
 20
-559.6376
 30
0.0
 10
-838.2754
 20
-590.0266
 30
0.0
 10
-838.2754
 20
-590.0266
 30
0.0
 10
-846.1431
 20
-590.0266
 30
0.0
 10
-846.1431
 20
-590.0266
 30
0.0
 10
-842.9029
 20
-569.4647
 30
0.0
 10
-839.5906
 20
-549.3544
 30
0.0
 10
-836.9707
 20
-527.9108
 30
0.0
 10
-847.892
 20
-548.0566
 30
0.0
 10
-858.7607
 20
-568.6819
 30
0.0
 10
-869.141
 20
-590.0266
 30
0.0
 10
-869.141
 20
-590.0266
 30
0.0
 10
-882.6025
 20
-590.0266
 30
0.0
 10
-882.6025
 20
-590.0266
 30
0.0
 10
-871.9618
 20
-564.8405
 30
0.0
 10
-860.5963
 20
-542.262
 30
0.0
 10
-848.1265
 20
-530.8335
 30
0.0
 10
-874.7129
 20
-548.7632
 30
0.0
 10
-899.2905
 20
-577.3178
 30
0.0
 10
-926.8965
 20
-590.0266
 30
0.0
 10
-926.8965
 20
-590.0266
 30
0.0
 10
-989.995
 20
-590.0266
 30
0.0
 10
-989.995
 20
-590.0266
 30
0.0
 10
-989.4237
 20
-585.4602
 30
0.0
 10
-988.5067
 20
-580.833
 30
0.0
 10
-987.1938
 20
-576.2124
 30
0.0
 10
-983.6725
 20
-565.7521
 30
0.0
 10
-976.8452
 20
-558.882
 30
0.0
 10
-969.2645
 20
-554.6182
 30
0.0
 10
-955.3409
 20
-557.1718
 30
0.0
 10
-943.2624
 20
-550.1962
 30
0.0
 10
-936.2968
 20
-575.9254
 30
0.0
 10
-889.7283
 20
-536.8191
 30
0.0
 10
-825.3228
 20
-467.8136
 30
0.0
 10
-834.0338
 20
-499.5577
 30
0.0
 10
-853.8775
 20
-483.7559
 30
0.0
 10
-881.1404
 20
-471.8372
 30
0.0
 10
-894.2721
 20
-448.0876
 30
0.0
 10
-897.2552
 20
-453.4525
 30
0.0
 10
-904.8744
 20
-475.0292
 30
0.0
 10
-915.9457
 20
-476.7628
 30
0.0
 10
-932.229
 20
-479.3106
 30
0.0
 10
-950.1381
 20
-466.6176
 30
0.0
 10
-954.9305
 20
-441.0413
 30
0.0
 10
-979.1355
 20
-458.2175
 30
0.0
 10
-1003.8159
 20
-473.0558
 30
0.0
 10
-1028.7956
 20
-485.6126
 30
0.0
 10
-1028.7956
 20
-485.6126
 30
0.0
 10
-1028.7956
 20
-486.3037
 30
0.0
 10
-1028.7956
 20
-486.3037
 30
0.0
 10
-1040.1153
 20
-527.4844
 30
0.0
 10
-1052.684
 20
-562.7342
 30
0.0
 10
-1068.6728
 20
-590.0266
 30
0.0
 10
-1068.6728
 20
-590.0266
 30
0.0
 10
-1122.4061
 20
-590.0266
 30
0.0
 10
-1122.4061
 20
-590.0266
 30
0.0
 10
-1114.5263
 20
-570.604
 30
0.0
 10
-1106.4055
 20
-551.359
 30
0.0
 10
-1095.7228
 20
-536.948
 30
0.0
 10
-1086.1969
 20
-524.3089
 30
0.0
 10
-1076.0483
 20
-514.8032
 30
0.0
 10
-1065.9227
 20
-505.3092
 30
0.0
 10
-1108.2376
 20
-525.7335
 30
0.0
 10
-1153.2512
 20
-539.9205
 30
0.0
 10
-1200.05
 20
-544.0489
 30
0.0
 10
-1200.05
 20
-544.0489
 30
0.0
 10
-1200.05
 20
-515.8437
 30
0.0
 10
-1200.05
 20
-515.8437
 30
0.0
 10
-1159.2811
 20
-510.4362
 30
0.0
 10
-1118.7238
 20
-497.3073
 30
0.0
 10
-1080.5146
 20
-479.0968
 30
0.0
 10
-1097.5212
 20
-455.6417
 30
0.0
 10
-1112.639
 20
-434.4752
 30
0.0
 10
-1120.2103
 20
-423.3248
 30
0.0
 10
-1145.3512
 20
-408.9754
 30
0.0
 10
-1174.1365
 20
-401.7363
 30
0.0
 10
-1199.9541
 20
-405.2504
 30
0.0
 10
-1199.4508
 20
-408.9734
 30
0.0
 10
-1199.5266
 20
-412.3037
 30
0.0
 10
-1200.05
 20
-415.2188
 30
0.0
 10
-1200.05
 20
-415.2188
 30
0.0
 10
-1200.05
 20
-389.092
 30
0.0
 10
-1200.05
 20
-389.092
 30
0.0
 10
-1200.0307
 20
-389.1829
 30
0.0
 10
-1200.0115
 20
-389.2741
 30
0.0
 10
-1199.9925
 20
-389.3667
 30
0.0
 10
-1178.5189
 20
-390.825
 30
0.0
 10
-1156.6455
 20
-390.4853
 30
0.0
 10
-1135.5716
 20
-398.8314
 30
0.0
 10
-1162.2481
 20
-368.2614
 30
0.0
 10
-1181.6242
 20
-339.2227
 30
0.0
 10
-1200.05
 20
-306.8995
 30
0.0
 10
-1200.05
 20
-306.8995
 30
0.0
 10
-1200.05
 20
-267.7482
 30
0.0
 10
-1200.05
 20
-267.7482
 30
0.0
 10
-1178.7797
 20
-307.076
 30
0.0
 10
-1163.1056
 20
-345.9093
 30
0.0
 10
-1133.8725
 20
-379.4978
 30
0.0
 10
-1143.3676
 20
-353.4523
 30
0.0
 10
-1136.6557
 20
-324.3437
 30
0.0
 10
-1146.7198
 20
-307.8039
 30
0.0
 10
-1151.6019
 20
-298.673
 30
0.0
 10
-1152.8474
 20
-283.7849
 30
0.0
 10
-1152.686
 20
-269.2481
 30
0.0
 10
-1133.7852
 20
-221.5196
 30
0.0
 10
-1107.6366
 20
-268.4879
 30
0.0
 10
-1112.5184
 20
-299.05
 30
0.0
 10
-1090.2064
 20
-317.3707
 30
0.0
 10
-1062.5696
 20
-305.2884
 30
0.0
 10
-1039.9744
 20
-321.386
 30
0.0
 10
-1017.3245
 20
-337.1819
 30
0.0
 10
-999.4644
 20
-368.8618
 30
0.0
 10
-984.9565
 20
-402.2459
 30
0.0
 10
-984.9565
 20
-402.2459
 30
0.0
 10
-970.6561
 20
-408.2434
 30
0.0
 10
-970.6561
 20
-408.2434
 30
0.0
 10
-963.3888
 20
-402.1758
 30
0.0
 10
-956.2615
 20
-396.0123
 30
0.0
 10
-949.271
 20
-389.7893
 30
0.0
 10
-948.2286
 20
-386.7614
 30
0.0
 10
-947.0611
 20
-383.6638
 30
0.0
 10
-945.7535
 20
-380.4935
 30
0.0
 10
-939.0958
 20
-364.001
 30
0.0
 10
-929.1679
 20
-359.0962
 30
0.0
 10
-919.5933
 20
-362.2353
 30
0.0
 10
-823.2431
 20
-269.0688
 30
0.0
 10
-760.4528
 20
-172.2051
 30
0.0
 10
-758.7339
 20
-169.7868
 30
0.0
 10
-758.7339
 20
-169.7868
 30
0.0
 10
-757.9343
 20
-168.3812
 30
0.0
 10
-757.9343
 20
-168.3812
 30
0.0
 10
-845.4509
 20
-219.6527
 30
0.0
 10
-1028.4922
 20
-252.559
 30
0.0
 10
-1125.7911
 20
-137.648
 30
0.0
 10
-1128.4935
 20
-141.8416
 30
0.0
 10
-1131.9591
 20
-145.197
 30
0.0
 10
-1136.2943
 20
-147.355
 30
0.0
 10
-1149.626
 20
-153.9791
 30
0.0
 10
-1165.2334
 20
-155.9704
 30
0.0
 10
-1173.4522
 20
-145.3051
 30
0.0
 10
-1182.4637
 20
-161.7251
 30
0.0
 10
-1191.157
 20
-178.2495
 30
0.0
 10
-1200.05
 20
-194.651
 30
0.0
 10
-1200.05
 20
-194.651
 30
0.0
 10
-1200.05
 20
-166.7819
 30
0.0
 10
-1200.05
 20
-166.7819
 30
0.0
 10
-1194.0205
 20
-155.3512
 30
0.0
 10
-1187.7268
 20
-144.5057
 30
0.0
 10
-1180.687
 20
-135.0672
 30
0.0
 10
-1178.788
 20
-102.9541
 30
0.0
 10
-1188.137
 20
-85.3484
 30
0.0
 10
-1172.5988
 20
-52.1106
 30
0.0
 10
-1172.4001
 20
-51.8499
 30
0.0
 10
-1172.2022
 20
-51.6218
 30
0.0
 10
-1172.0038
 20
-51.3697
 30
0.0
 10
-1180.2235
 20
-25.3746
 30
0.0
 10
-1185.8683
 20
4.2944
 30
0.0
 10
-1188.36
 20
38.0618
 30
0.0
 10
-1189.8131
 20
323.3849
 30
0.0
 10
-952.3808
 20
370.7729
 30
0.0
 10
-953.0651
 20
128.0876
 30
0.0
 10
-947.6141
 20
-32.8708
 30
0.0
 10
-1071.22
 20
-85.0028
 30
0.0
 10
-1089.3107
 20
60.3764
 30
0.0
 10
-1098.3753
 20
133.2183
 30
0.0
 10
-1051.4763
 20
226.5651
 30
0.0
 10
-1004.6925
 20
167.0124
 30
0.0
 10
-979.3209
 20
134.7119
 30
0.0
 10
-979.6131
 20
56.2298
 30
0.0
 10
-1024.2287
 20
52.1534
 30
0.0
 10
-1028.7956
 20
51.7785
 30
0.0
 10
-1032.5629
 20
57.7701
 30
0.0
 10
-1032.7628
 20
65.1381
 30
0.0
 10
-1032.7781
 20
65.3606
 30
0.0
 10
-1032.7781
 20
65.589
 30
0.0
 10
-1032.7781
 20
65.7823
 30
0.0
 10
-1032.7781
 20
73.5661
 30
0.0
 10
-1029.2722
 20
79.5928
 30
0.0
 10
-1025.0206
 20
79.9384
 30
0.0
 10
-1002.7474
 20
81.0335
 30
0.0
 10
-1000.3563
 20
117.8616
 30
0.0
 10
-1015.8868
 20
139.6961
 30
0.0
 10
-1024.8284
 20
152.3703
 30
0.0
 10
-1036.7453
 20
152.3703
 30
0.0
 10
-1049.2389
 20
140.0825
 30
0.0
 10
-1065.0385
 20
124.6672
 30
0.0
 10
-1070.528
 20
100.0098
 30
0.0
 10
-1070.528
 20
79.8681
 30
0.0
 10
-1070.528
 20
77.4961
 30
0.0
 10
-1070.4511
 20
75.1299
 30
0.0
 10
-1070.2897
 20
72.8808
 30
0.0
 10
-1068.7213
 20
47.9247
 30
0.0
 10
-1059.3722
 20
28.5736
 30
0.0
 10
-1045.2794
 20
21.1705
 30
0.0
 10
-1024.0365
 20
9.9488
 30
0.0
 10
-1004.385
 20
18.0371
 30
0.0
 10
-990.2691
 20
43.3506
 30
0.0
 10
-958.4547
 20
106.5344
 30
0.0
 10
-981.4352
 20
225.5109
 30
0.0
 10
-1032.1784
 20
240.5747
 30
0.0
 10
-1085.8048
 20
249.7465
 30
0.0
 10
-1133.2421
 20
203.1786
 30
0.0
 10
-1151.3866
 20
130.284
 30
0.0
 10
-1165.2533
 20
74.5419
 30
0.0
 10
-1160.9999
 20
9.5714
 30
0.0
 10
-1143.4295
 20
-41.7421
 30
0.0
 10
-1131.3514
 20
-48.903
 30
0.0
 10
-1122.1607
 20
-69.7332
 30
0.0
 10
-1119.1902
 20
-91.2382
 30
0.0
 10
-1078.4212
 20
-150.2542
 30
0.0
 10
-1008.5731
 20
-168.3908
 30
0.0
 10
-960.9995
 20
-169.1308
 30
0.0
 10
-898.6437
 20
-169.6839
 30
0.0
 10
-825.5683
 20
-158.2285
 30
0.0
 10
-761.3684
 20
-125.3474
 30
0.0
 10
-798.6916
 20
-104.7689
 30
0.0
 10
-833.2537
 20
-59.4801
 30
0.0
 10
-837.3705
 20
3.3773
 30
0.0
 10
-815.2434
 20
-12.1141
 30
0.0
 10
-790.8482
 20
-17.5843
 30
0.0
 10
-771.8272
 20
-41.7967
 30
0.0
 10
-757.7063
 20
-59.9505
 30
0.0
 10
-745.5649
 20
-86.1202
 30
0.0
 10
-733.4415
 20
-109.2641
 30
0.0
 10
-727.9147
 20
-105.699
 30
0.0
 10
-722.4822
 20
-101.9511
 30
0.0
 10
-717.1629
 20
-98.005
 30
0.0
 10
-686.6323
 20
-54.6291
 30
0.0
 10
-656.5436
 20
-17.1592
 30
0.0
 10
-626.9869
 20
15.1317
 30
0.0
 10
-650.6254
 20
18.611
 30
0.0
 10
-674.7639
 20
31.1539
 30
0.0
 10
-697.0347
 20
49.4592
 30
0.0
 10
-724.6513
 20
72.1546
 30
0.0
 10
-749.3848
 20
103.729
 30
0.0
 10
-766.7759
 20
137.81
 30
0.0
 10
-733.6928
 20
145.9335
 30
0.0
 10
-682.8881
 20
136.4454
 30
0.0
 10
-643.6543
 20
104.2033
 30
0.0
 10
-625.4242
 20
89.2209
 30
0.0
 10
-609.6777
 20
69.3298
 30
0.0
 10
-599.3446
 20
44.0059
 30
0.0
 10
-445.5938
 20
197.1951
 30
0.0
 10
-307.4374
 20
212.4167
 30
0.0
 10
-198.6059
 20
189.3901
 30
0.0
 10
-199.5743
 20
191.6063
 30
0.0
 10
-200.5614
 20
193.8689
 30
0.0
 10
-201.5659
 20
196.1742
 30
0.0
 10
-282.6535
 20
251.4651
 30
0.0
 10
-410.5521
 20
316.0349
 30
0.0
 10
-557.1909
 20
305.3634
 30
0.0
 10
-573.2827
 20
302.1949
 30
0.0
 10
-949.2363
 20
218.9629
 30
0.0
 10
-1050.4998
 20
572.0676
 30
0.0
 10
-1052.8114
 20
578.0776
 30
0.0
 10
-1054.788
 20
584.0168
 30
0.0
 10
-1056.5472
 20
589.9734
 30
0.0
 10
-1056.5472
 20
589.9734
 30
0.0
 10
-1036.1661
 20
589.9734
 30
0.0
 10
-1036.1661
 20
589.9734
 30
0.0
 10
-998.0376
 20
480.3012
 30
0.0
 10
-931.4819
 20
417.1969
 30
0.0
 10
-859.8052
 20
380.9522
 30
0.0
 10
-895.0173
 20
442.4198
 30
0.0
 10
-905.9174
 20
504.9324
 30
0.0
 10
-908.8332
 20
589.9734
 30
0.0
 10
-908.8332
 20
589.9734
 30
0.0
 10
-894.0806
 20
589.9734
 30
0.0
 10
-894.0806
 20
589.9734
 30
0.0
 10
-882.5632
 20
567.4397
 30
0.0
 10
-869.0469
 20
548.1085
 30
0.0
 10
-860.2204
 20
520.9371
 30
0.0
 10
-845.2203
 20
481.1221
 30
0.0
 10
-843.0368
 20
420.5093
 30
0.0
 10
-845.5279
 20
374.451
 30
0.0
 10
-834.8795
 20
369.5534
 30
0.0
 10
-824.1702
 20
365.2482
 30
0.0
 10
-813.4744
 20
361.4759
 30
0.0
 10
-825.7252
 20
412.257
 30
0.0
 10
-799.419
 20
439.1854
 30
0.0
 10
-776.371
 20
435.5791
 30
0.0
 10
-765.2997
 20
433.8455
 30
0.0
 10
-757.6806
 20
412.2688
 30
0.0
 10
-754.6975
 20
406.904
 30
0.0
 10
-741.5657
 20
430.6535
 30
0.0
 10
-714.3105
 20
442.5722
 30
0.0
 10
-694.4591
 20
458.3741
 30
0.0
 10
-730.3253
 20
489.8254
 30
0.0
 10
-765.0306
 20
516.7085
 30
0.0
 10
-796.7221
 20
534.7418
 30
0.0
 10
-803.6878
 20
509.0126
 30
0.0
 10
-815.7662
 20
515.9881
 30
0.0
 10
-829.6898
 20
513.4344
 30
0.0
 10
-837.2706
 20
517.6984
 30
0.0
 10
-844.0978
 20
524.5684
 30
0.0
 10
-847.6191
 20
535.0288
 30
0.0
 10
-853.3227
 20
555.1015
 30
0.0
 10
-851.6681
 20
575.3144
 30
0.0
 10
-845.7724
 20
589.9734
 30
0.0
 10
-845.7724
 20
589.9734
 30
0.0
 10
-799.7446
 20
589.9734
 30
0.0
 10
-799.7446
 20
589.9734
 30
0.0
 10
-797.3764
 20
584.3615
 30
0.0
 10
-795.4393
 20
577.7598
 30
0.0
 10
-794.1388
 20
569.063
 30
0.0
 10
-794.3541
 20
560.799
 30
0.0
 10
-793.1009
 20
559.6862
 30
0.0
 10
-793.2854
 20
551.3167
 30
0.0
 10
-763.2162
 20
540.2707
 30
0.0
 10
-737.0373
 20
508.8603
 30
0.0
 10
-708.5519
 20
489.6498
 30
0.0
 10
-727.6567
 20
507.1595
 30
0.0
 10
-744.1692
 20
550.8398
 30
0.0
 10
-759.4543
 20
589.9734
 30
0.0
 10
-759.4543
 20
589.9734
 30
0.0
 10
-748.4388
 20
589.9734
 30
0.0
 10
-748.4388
 20
589.9734
 30
0.0
 10
-732.8179
 20
553.5959
 30
0.0
 10
-715.1767
 20
519.5261
 30
0.0
 10
-697.3961
 20
486.7272
 30
0.0
 10
-701.7177
 20
522.0996
 30
0.0
 10
-707.9232
 20
553.8449
 30
0.0
 10
-712.5854
 20
589.9734
 30
0.0
 10
-712.5854
 20
589.9734
 30
0.0
 10
-703.4671
 20
589.9734
 30
0.0
 10
-703.4671
 20
589.9734
 30
0.0
 10
-699.169
 20
546.477
 30
0.0
 10
-692.1256
 20
498.6547
 30
0.0
 10
-683.4494
 20
468.2956
 30
0.0
 10
-670.0255
 20
500.8246
 30
0.0
 10
-659.8537
 20
536.6921
 30
0.0
 10
-644.254
 20
564.9632
 30
0.0
 10
-644.4946
 20
574.4603
 30
0.0
 10
-645.5877
 20
582.4665
 30
0.0
 10
-646.6969
 20
589.9734
 30
0.0
 10
-646.6969
 20
589.9734
 30
0.0
 10
-598.5517
 20
589.9734
 30
0.0
 10
-598.5517
 20
589.9734
 30
0.0
 10
-598.5517
 20
589.9734
 30
0.0
 10
-585.2945
 20
589.9734
 30
0.0
 10
-585.2945
 20
589.9734
 30
0.0
 10
-585.2945
 20
589.9734
 30
0.0
 10
-568.9061
 20
589.9734
 30
0.0
 10
-568.9061
 20
589.9734
 30
0.0
 10
-566.2597
 20
581.1899
 30
0.0
 10
-563.6586
 20
573.0368
 30
0.0
 10
-561.1581
 20
565.6192
 30
0.0
 10
-513.4514
 20
447.8934
 30
0.0
 10
-372.5387
 20
356.5035
 30
0.0
 10
-229.9721
 20
262.0382
 30
0.0
 10
-245.8587
 20
299.2046
 30
0.0
 10
-260.7882
 20
334.6841
 30
0.0
 10
-267.5162
 20
351.6209
 30
0.0
 10
-289.6818
 20
377.0749
 30
0.0
 10
-316.4066
 20
397.3513
 30
0.0
 10
-341.8551
 20
405.8731
 30
0.0
 10
-342.2856
 20
378.6914
 30
0.0
 10
-368.0186
 20
384.109
 30
0.0
 10
-372.4394
 20
408.3447
 30
0.0
 10
-376.3682
 20
441.9105
 30
0.0
 10
-364.036
 20
460.6465
 30
0.0
 10
-345.2687
 20
437.6408
 30
0.0
 10
-341.7628
 20
431.9947
 30
0.0
 10
-339.9253
 20
429.0078
 30
0.0
 10
-339.5486
 20
421.2181
 30
0.0
 10
-319.036
 20
409.9026
 30
0.0
 10
-297.8699
 20
400.1451
 30
0.0
 10
-278.7412
 20
382.3519
 30
0.0
 10
-310.0637
 20
443.9779
 30
0.0
 10
-326.5783
 20
495.0732
 30
0.0
 10
-345.6147
 20
559.897
 30
0.0
 10
-359.2769
 20
570.6678
 30
0.0
 10
-404.9612
 20
592.3616
 30
0.0
 10
-420.461
 20
580.1032
 30
0.0
 10
-424.828
 20
520.8728
 30
0.0
 10
-475.0561
 20
511.5661
 30
0.0
 10
-481.6296
 20
566.6851
 30
0.0
 10
-482.702
 20
575.2418
 30
0.0
 10
-483.2286
 20
582.9891
 30
0.0
 10
-483.2867
 20
589.9734
 30
0.0
 10
-483.2867
 20
589.9734
 30
0.0
 10
-329.5233
 20
589.9734
 30
0.0
 10
-329.5233
 20
589.9734
 30
0.0
 10
-331.9819
 20
587.5111
 30
0.0
 10
-334.4609
 20
585.0706
 30
0.0
 10
-336.9653
 20
582.6568
 30
0.0
 10
-311.363
 20
517.6338
 30
0.0
 10
-304.5357
 20
459.9496
 30
0.0
 10
-274.2666
 20
400.2388
 30
0.0
 10
-279.5946
 20
429.7692
 30
0.0
 10
-268.8309
 20
454.7721
 30
0.0
 10
-276.1195
 20
475.3882
 30
0.0
 10
-279.487
 20
486.4519
 30
0.0
 10
-278.5029
 20
501.4045
 30
0.0
 10
-276.2041
 20
515.3673
 30
0.0
 10
-242.2215
 20
565.6016
 30
0.0
 10
-220.7632
 20
444.4289
 30
0.0
 10
-262.0037
 20
455.7327
 30
0.0
 10
-273.6362
 20
432.8968
 30
0.0
 10
-261.0195
 20
399.8464
 30
0.0
 10
-265.2558
 20
377.5142
 30
0.0
 10
-245.5671
 20
333.422
 30
0.0
 10
-225.6148
 20
288.5222
 30
0.0
 10
-204.7606
 20
245.2908
 30
0.0
 10
-190.2102
 20
235.5939
 30
0.0
 10
-175.7001
 20
225.8461
 30
0.0
 10
-161.3254
 20
216.0175
 30
0.0
 10
-169.4155
 20
244.7491
 30
0.0
 10
-174.3288
 20
277.9917
 30
0.0
 10
-177.6545
 20
314.4122
 30
0.0
 10
-184.6279
 20
388.2439
 30
0.0
 10
-202.7109
 20
431.2626
 30
0.0
 10
-216.1272
 20
499.7528
 30
0.0
 10
-185.7504
 20
459.9496
 30
0.0
 10
-150.5684
 20
424.9723
 30
0.0
 10
-128.9487
 20
369.5019
 30
0.0
 10
-106.3711
 20
311.3612
 30
0.0
 10
-111.8692
 20
247.7715
 30
0.0
 10
-108.5298
 20
178.918
 30
0.0
 10
-37.2673
 20
127.1828
 30
0.0
 10
27.2022
 20
72.274
 30
0.0
 10
71.6793
 20
9.9488
 30
0.0
 10
-24.6406
 20
186.0999
 30
0.0
 10
-60.3608
 20
301.0469
 30
0.0
 10
-85.0866
 20
523.9828
 30
0.0
 10
-87.2613
 20
545.7651
 30
0.0
 10
-88.9965
 20
567.8121
 30
0.0
 10
-90.2994
 20
589.9734
 30
0.0
 10
-90.2994
 20
589.9734
 30
0.0
 10
-62.4847
 20
589.9734
 30
0.0
 10
-62.4847
 20
589.9734
 30
0.0
 10
-61.1748
 20
567.6311
 30
0.0
 10
-59.4101
 20
545.3902
 30
0.0
 10
-57.1855
 20
523.4145
 30
0.0
 10
-40.3505
 20
383.4298
 30
0.0
 10
7.1049
 20
248.8765
 30
0.0
 10
73.3335
 20
124.3403
 30
0.0
 10
73.7124
 20
128.9119
 30
0.0
 10
74.4804
 20
133.3731
 30
0.0
 10
75.8771
 20
137.5172
 30
0.0
 10
78.8525
 20
153.0673
 30
0.0
 10
87.5712
 20
160.1892
 30
0.0
 10
95.5747
 20
167.7563
 30
0.0
 10
104.5548
 20
172.8166
 30
0.0
 10
107.584
 20
187.8922
 30
0.0
 10
114.1422
 20
206.312
 30
0.0
 10
130.9182
 20
253.4305
 30
0.0
 10
147.3098
 20
328.2696
 30
0.0
 10
171.3821
 20
356.8453
 30
0.0
 10
144.3036
 20
332.0824
 30
0.0
 10
120.2775
 20
295.6527
 30
0.0
 10
91.1001
 20
278.6854
 30
0.0
 10
91.8151
 20
270.4038
 30
0.0
 10
90.6465
 20
269.0508
 30
0.0
 10
91.3846
 20
260.8804
 30
0.0
 10
89.77
 20
241.4122
 30
0.0
 10
84.4881
 20
231.2975
 30
0.0
 10
78.4143
 20
219.4724
 30
0.0
 10
53.4886
 20
195.676
 30
0.0
 10
26.1718
 20
236.5041
 30
0.0
 10
36.0821
 20
284.0503
 30
0.0
 10
38.9191
 20
295.1432
 30
0.0
 10
45.2621
 20
303.331
 30
0.0
 10
52.5276
 20
309.0708
 30
0.0
 10
66.5281
 20
309.311
 30
0.0
 10
78.0837
 20
318.6526
 30
0.0
 10
86.6332
 20
294.4696
 30
0.0
 10
116.9792
 20
318.6995
 30
0.0
 10
149.7624
 20
352.3296
 30
0.0
 10
183.399
 20
390.7273
 30
0.0
 10
162.6788
 20
402.4762
 30
0.0
 10
134.8316
 20
408.8835
 30
0.0
 10
120.2775
 20
429.8746
 30
0.0
 10
117.6557
 20
423.9415
 30
0.0
 10
111.4512
 20
400.9885
 30
0.0
 10
100.5645
 20
397.0585
 30
0.0
 10
74.7854
 20
387.7637
 30
0.0
 10
42.3174
 20
416.8371
 30
0.0
 10
64.829
 20
486.7799
 30
0.0
 10
80.4056
 20
536.3232
 30
0.0
 10
127.1432
 20
500.9243
 30
0.0
 10
121.4
 20
441.6703
 30
0.0
 10
134.2472
 20
421.7218
 30
0.0
 10
181.8152
 20
418.5298
 30
0.0
 10
196.7614
 20
421.6925
 30
0.0
 10
200.4465
 20
428.3113
 30
0.0
 10
205.1761
 20
442.2834
 30
0.0
 10
210.8928
 20
454.9531
 30
0.0
 10
207.6338
 20
513.649
 30
0.0
 10
225.9141
 20
573.119
 30
0.0
 10
251.9524
 20
589.9734
 30
0.0
 10
251.9524
 20
589.9734
 30
0.0
 10
281.848
 20
589.9734
 30
0.0
 10
281.848
 20
589.9734
 30
0.0
 10
285.8719
 20
587.4495
 30
0.0
 10
289.9475
 20
583.882
 30
0.0
 10
294.0423
 20
579.1369
 30
0.0
 10
338.4657
 20
534.6656
 30
0.0
 10
314.6779
 20
415.7712
 30
0.0
 10
270.539
 20
444.9619
 30
0.0
 10
248.4272
 20
459.5922
 30
0.0
 10
237.9019
 20
527.1044
 30
0.0
 10
267.9788
 20
547.9666
 30
0.0
 10
284.2858
 20
559.2762
 30
0.0
 10
305.0444
 20
535.1342
 30
0.0
 10
292.5431
 20
496.7015
 30
0.0
 10
291.2515
 20
492.7832
 30
0.0
 10
288.5144
 20
491.4654
 30
0.0
 10
286.4924
 20
493.5446
 30
0.0
 10
286.4308
 20
493.5973
 30
0.0
 10
286.3693
 20
493.6676
 30
0.0
 10
286.3155
 20
493.7261
 30
0.0
 10
284.2473
 20
496.0982
 30
0.0
 10
283.7169
 20
500.8598
 30
0.0
 10
284.9162
 20
504.5028
 30
0.0
 10
291.4129
 20
523.4028
 30
0.0
 10
282.356
 20
536.6101
 30
0.0
 10
271.8229
 20
530.3199
 30
0.0
 10
265.7338
 20
526.7237
 30
0.0
 10
262.1048
 20
516.7905
 30
0.0
 10
261.5667
 20
502.6344
 30
0.0
 10
260.8516
 20
484.7709
 30
0.0
 10
265.7261
 20
472.6882
 30
0.0
 10
271.0772
 20
466.5561
 30
0.0
 10
271.7076
 20
465.8299
 30
0.0
 10
272.3611
 20
465.1798
 30
0.0
 10
273.007
 20
464.6233
 30
0.0
 10
280.1187
 20
458.333
 30
0.0
 10
288.1069
 20
460.2307
 30
0.0
 10
294.3652
 20
469.7247
 30
0.0
 10
303.8143
 20
484.0154
 30
0.0
 10
307.6507
 20
502.8511
 30
0.0
 10
305.2212
 20
522.3252
 30
0.0
 10
298.1249
 20
568.085
 30
0.0
 10
259.5216
 20
580.9994
 30
0.0
 10
240.0623
 20
543.2928
 30
0.0
 10
205.603
 20
464.8635
 30
0.0
 10
237.5559
 20
356.488
 30
0.0
 10
295.357
 20
380.9171
 30
0.0
 10
324.642
 20
393.2867
 30
0.0
 10
352.3509
 20
445.612
 30
0.0
 10
367.4586
 20
486.1767
 30
0.0
 10
382.1301
 20
525.8936
 30
0.0
 10
392.6863
 20
559.0708
 30
0.0
 10
400.3408
 20
589.9734
 30
0.0
 10
400.3408
 20
589.9734
 30
0.0
 10
420.262
 20
589.9734
 30
0.0
 10
420.262
 20
589.9734
 30
0.0
 10
390.6606
 20
463.6839
 30
0.0
 10
322.4064
 20
291.4284
 30
0.0
 10
246.3052
 20
355.6153
 30
0.0
 10
232.6487
 20
370.96
 30
0.0
 10
223.3562
 20
390.3676
 30
0.0
 10
217.6697
 20
411.4595
 30
0.0
 10
212.0459
 20
406.4336
 30
0.0
 10
205.8222
 20
401.5318
 30
0.0
 10
201.2668
 20
395.2487
 30
0.0
 10
217.6353
 20
365.5076
 30
0.0
 10
232.0818
 20
334.9463
 30
0.0
 10
247.5508
 20
304.643
 30
0.0
 10
256.031
 20
314.8457
 30
0.0
 10
271.6922
 20
311.8351
 30
0.0
 10
284.9624
 20
304.3092
 30
0.0
 10
326.1182
 20
280.9461
 30
0.0
 10
286.5077
 20
154.2561
 30
0.0
 10
246.4898
 20
210.8511
 30
0.0
 10
231.5436
 20
245.2895
 30
0.0
 10
241.3078
 20
262.3915
 30
0.0
 10
240.0623
 20
294.8152
 30
0.0
 10
222.7635
 20
319.8006
 30
0.0
 10
210.3775
 20
353.4132
 30
0.0
 10
194.97
 20
383.0606
 30
0.0
 10
183.7527
 20
329.6166
 30
0.0
 10
180.2083
 20
228.3572
 30
0.0
 10
183.03
 20
182.211
 30
0.0
 10
204.9879
 20
168.3068
 30
0.0
 10
215.9516
 20
148.042
 30
0.0
 10
213.2683
 20
124.1108
 30
0.0
 10
209.0397
 20
86.6445
 30
0.0
 10
180.3698
 20
61.6005
 30
0.0
 10
165.4082
 20
95.2951
 30
0.0
 10
157.4431
 20
106.8449
 30
0.0
 10
154.014
 20
126.231
 30
0.0
 10
155.7209
 20
143.4854
 30
0.0
 10
160.357
 20
157.0968
 30
0.0
 10
165.7157
 20
168.2306
 30
0.0
 10
172.7814
 20
177.1624
 30
0.0
 10
172.7814
 20
177.1624
 30
0.0
 10
172.52
 20
231.5376
 30
0.0
 10
172.52
 20
231.5376
 30
0.0
 10
174.173
 20
279.0016
 30
0.0
 10
179.7855
 20
318.0845
 30
0.0
 10
182.2842
 20
361.9641
 30
0.0
 10
155.5517
 20
299.9868
 30
0.0
 10
129.4574
 20
234.3723
 30
0.0
 10
113.7885
 20
161.8174
 30
0.0
 10
147.9285
 20
137.1852
 30
0.0
 10
130.6627
 20
80.9406
 30
0.0
 10
106.466
 20
65.4371
 30
0.0
 10
127.2934
 20
30.3355
 30
0.0
 10
149.5321
 20
-3.8673
 30
0.0
 10
172.9034
 20
-37.0545
 30
0.0
 10
184.6149
 20
-33.9808
 30
0.0
 10
196.6932
 20
-26.0095
 30
0.0
 10
208.4631
 20
-27.7518
 30
0.0
 10
225.2391
 20
-30.0654
 30
0.0
 10
248.4042
 20
-44.6666
 30
0.0
 10
267.0254
 20
-38.3059
 30
0.0
 10
303.2684
 20
-5.8882
 30
0.0
 10
329.1936
 20
36.9665
 30
0.0
 10
351.9358
 20
81.8008
 30
0.0
 10
333.4606
 20
60.2534
 30
0.0
 10
310.1879
 20
58.0454
 30
0.0
 10
293.7579
 20
71.4693
 30
0.0
 10
321.8819
 20
78.4448
 30
0.0
 10
336.7974
 20
115.841
 30
0.0
 10
366.0362
 20
111.6826
 30
0.0
 10
401.9102
 20
194.6627
 30
0.0
 10
423.1224
 20
303.8874
 30
0.0
 10
430.534
 20
393.1988
 30
0.0
 10
415.0496
 20
342.8474
 30
0.0
 10
386.8025
 20
318.8635
 30
0.0
 10
356.3643
 20
313.5923
 30
0.0
 10
369.9189
 20
325.2943
 30
0.0
 10
375.0393
 20
354.8948
 30
0.0
 10
386.9947
 20
369.8299
 30
0.0
 10
408.1454
 20
396.6426
 30
0.0
 10
419.109
 20
378.9959
 30
0.0
 10
432.3638
 20
420.6032
 30
0.0
 10
437.7175
 20
491.0301
 30
0.0
 10
437.5479
 20
549.5865
 30
0.0
 10
436.1288
 20
589.9734
 30
0.0
 10
436.1288
 20
589.9734
 30
0.0
 10
459.9814
 20
589.9734
 30
0.0
 10
459.9814
 20
589.9734
 30
0.0
 10
459.6939
 20
502.7997
 30
0.0
 10
456.6594
 20
414.7612
 30
0.0
 10
443.4274
 20
327.2681
 30
0.0
 10
471.3208
 20
302.2534
 30
0.0
 10
451.6385
 20
167.9378
 30
0.0
 10
439.3064
 20
128.9428
 30
0.0
 10
438.5068
 20
156.8684
 30
0.0
 10
427.5047
 20
182.6327
 30
0.0
 10
426.2515
 20
211.5246
 30
0.0
 10
425.7902
 20
223.3145
 30
0.0
 10
426.3592
 20
234.671
 30
0.0
 10
426.9204
 20
245.9982
 30
0.0
 10
423.0109
 20
211.323
 30
0.0
 10
409.875
 20
165.2863
 30
0.0
 10
390.9276
 20
118.6591
 30
0.0
 10
391.1683
 20
118.6446
 30
0.0
 10
391.4101
 20
118.6259
 30
0.0
 10
391.6539
 20
118.5995
 30
0.0
 10
415.6032
 20
106.4641
 30
0.0
 10
440.9825
 20
42.5598
 30
0.0
 10
408.2069
 20
17.1001
 30
0.0
 10
424.1219
 20
-51.0798
 30
0.0
 10
441.1285
 20
-90.889
 30
0.0
 10
467.392
 20
-148.5322
 30
0.0
 10
464.4012
 20
-106.9894
 30
0.0
 10
460.5186
 20
-81.9748
 30
0.0
 10
458.2736
 20
-36.994
 30
0.0
 10
458.2736
 20
-36.994
 30
0.0
 10
457.7508
 20
14.6401
 30
0.0
 10
457.7508
 20
14.6401
 30
0.0
 10
450.9158
 20
22.8046
 30
0.0
 10
445.6647
 20
33.1362
 30
0.0
 10
441.0747
 20
45.8514
 30
0.0
 10
439.2064
 20
62.151
 30
0.0
 10
442.1818
 20
80.7115
 30
0.0
 10
449.5781
 20
92.0328
 30
0.0
 10
463.3095
 20
124.6848
 30
0.0
 10
490.88
 20
102.1886
 30
0.0
 10
495.4238
 20
66.8131
 30
0.0
 10
498.3146
 20
44.2115
 30
0.0
 10
488.1967
 20
24.4855
 30
0.0
 10
467.5458
 20
10.3061
 30
0.0
 10
465.5314
 20
-33.6264
 30
0.0
 10
472.3433
 20
-114.211
 30
0.0
 10
483.7529
 20
-164.4453
 30
0.0
 10
497.9533
 20
-135.612
 30
0.0
 10
505.288
 20
-110.5211
 30
0.0
 10
521.3567
 20
-86.0277
 30
0.0
 10
522.0717
 20
-55.1855
 30
0.0
 10
514.5063
 20
-47.4075
 30
0.0
 10
528.207
 20
-14.0468
 30
0.0
 10
530.3275
 20
-10.8806
 30
0.0
 10
532.4548
 20
-8.307
 30
0.0
 10
534.5748
 20
-6.223
 30
0.0
 10
533.7283
 20
8.2221
 30
0.0
 10
533.2198
 20
23.3925
 30
0.0
 10
533.2198
 20
39.0282
 30
0.0
 10
533.2198
 20
124.2456
 30
0.0
 10
548.266
 20
223.1153
 30
0.0
 10
605.2291
 20
292.0039
 30
0.0
 10
607.6279
 20
294.1007
 30
0.0
 10
664.0067
 20
340.8911
 30
0.0
 10
717.4255
 20
306.769
 30
0.0
 10
748.0175
 20
287.0782
 30
0.0
 10
771.2518
 20
245.5589
 30
0.0
 10
786.7362
 20
181.5667
 30
0.0
 10
795.1188
 20
142.8649
 30
0.0
 10
797.8701
 20
105.5271
 30
0.0
 10
795.2053
 20
72.8361
 30
0.0
 10
819.8625
 20
82.2496
 30
0.0
 10
852.7105
 20
85.6519
 30
0.0
 10
878.8505
 20
94.4868
 30
0.0
 10
871.6004
 20
136.1409
 30
0.0
 10
869.2785
 20
174.357
 30
0.0
 10
863.0202
 20
215.7767
 30
0.0
 10
852.341
 20
213.4399
 30
0.0
 10
838.525
 20
229.5228
 30
0.0
 10
828.1688
 20
247.802
 30
0.0
 10
810.783
 20
278.4929
 30
0.0
 10
823.6679
 20
317.3778
 30
0.0
 10
842.6497
 20
332.8653
 30
0.0
 10
787.5744
 20
338.9244
 30
0.0
 10
729.4156
 20
368.8297
 30
0.0
 10
671.549
 20
432.8732
 30
0.0
 10
669.6423
 20
434.8997
 30
0.0
 10
665.4444
 20
441.436
 30
0.0
 10
662.123
 20
447.9723
 30
0.0
 10
646.1418
 20
468.3091
 30
0.0
 10
633.5245
 20
489.6525
 30
0.0
 10
625.9322
 20
515.4107
 30
0.0
 10
621.9706
 20
517.7504
 30
0.0
 10
618.2574
 20
522.2121
 30
0.0
 10
615.1394
 20
529.2305
 30
0.0
 10
607.182
 20
540.7802
 30
0.0
 10
603.7529
 20
560.1722
 30
0.0
 10
605.4598
 20
577.4267
 30
0.0
 10
606.9711
 20
581.8693
 30
0.0
 10
608.5612
 20
586.0482
 30
0.0
 10
610.2631
 20
589.9734
 30
0.0
 10
610.2631
 20
589.9734
 30
0.0
 10
618.3324
 20
589.9734
 30
0.0
 10
618.3324
 20
589.9734
 30
0.0
 10
618.3324
 20
589.9734
 30
0.0
 10
621.3557
 20
589.9734
 30
0.0
 10
621.3557
 20
589.9734
 30
0.0
 10
621.3557
 20
589.9734
 30
0.0
 10
657.583
 20
589.9734
 30
0.0
 10
657.583
 20
589.9734
 30
0.0
 10
662.398
 20
580.4004
 30
0.0
 10
664.3045
 20
569.6574
 30
0.0
 10
662.9995
 20
558.0521
 30
0.0
 10
661.6334
 20
545.9481
 30
0.0
 10
657.7149
 20
535.1428
 30
0.0
 10
652.5343
 20
527.1942
 30
0.0
 10
653.0874
 20
525.627
 30
0.0
 10
653.6121
 20
524.0306
 30
0.0
 10
654.1041
 20
522.4014
 30
0.0
 10
685.4726
 20
408.8543
 30
0.0
 10
732.7715
 20
401.8786
 30
0.0
 10
797.9458
 20
386.5513
 30
0.0
 10
774.773
 20
404.5905
 30
0.0
 10
759.1118
 20
442.8124
 30
0.0
 10
756.1749
 20
479.1133
 30
0.0
 10
777.4486
 20
435.5967
 30
0.0
 10
807.0027
 20
433.4707
 30
0.0
 10
822.9253
 20
381.1395
 30
0.0
 10
890.2293
 20
371.6924
 30
0.0
 10
952.013
 20
390.3407
 30
0.0
 10
1005.0628
 20
433.2423
 30
0.0
 10
968.1202
 20
428.2991
 30
0.0
 10
937.5589
 20
461.4431
 30
0.0
 10
915.7778
 20
509.9555
 30
0.0
 10
930.5471
 20
494.1654
 30
0.0
 10
949.7834
 20
503.8585
 30
0.0
 10
965.3216
 20
492.7949
 30
0.0
 10
979.8449
 20
482.6683
 30
0.0
 10
991.3006
 20
462.3451
 30
0.0
 10
1000.6035
 20
440.9323
 30
0.0
 10
1000.6035
 20
440.9323
 30
0.0
 10
1009.7758
 20
437.0902
 30
0.0
 10
1009.7758
 20
437.0902
 30
0.0
 10
1089.7502
 20
503.8585
 30
0.0
 10
1153.7405
 20
577.8952
 30
0.0
 10
1155.0245
 20
579.7108
 30
0.0
 10
1112.7206
 20
549.5409
 30
0.0
 10
996.3686
 20
501.2079
 30
0.0
 10
924.7382
 20
589.9734
 30
0.0
 10
924.7382
 20
589.9734
 30
0.0
 10
1010.6328
 20
589.9734
 30
0.0
 10
1010.6328
 20
589.9734
 30
0.0
 10
1016.4516
 20
589.0259
 30
0.0
 10
1022.501
 20
588.4814
 30
0.0
 10
1028.7891
 20
588.3907
 30
0.0
 10
1043.0293
 20
588.2644
 30
0.0
 10
1057.6602
 20
588.6044
 30
0.0
 10
1072.3908
 20
589.9734
 30
0.0
 10
1072.3908
 20
589.9734
 30
0.0
 10
1199.95
 20
589.9734
 30
0.0
 10
1199.95
 20
589.9734
 30
0.0
 10
1199.95
 20
589.9734
 30
0.0
 10
1199.95
 20
588.1333
 30
0.0
 10
1199.95
 20
588.1333
 30
0.0
 10
1131.3483
 20
497.159
 30
0.0
 10
1059.5473
 20
411.3684
 30
0.0
 10
986.167
 20
369.2763
 30
0.0
 10
991.1575
 20
363.4697
 30
0.0
 10
994.9265
 20
354.3607
 30
0.0
 10
996.3288
 20
341.676
 30
0.0
 10
1000.642
 20
324.1405
 30
0.0
 10
998.6046
 20
303.1201
 30
0.0
 10
992.3462
 20
288.4546
 30
0.0
 10
984.3426
 20
279.6693
 30
0.0
 10
976.3237
 20
273.8183
 30
0.0
 10
967.3129
 20
271.458
 30
0.0
 10
967.3129
 20
271.458
 30
0.0
 10
952.8588
 20
220.4505
 30
0.0
 10
952.8588
 20
220.4505
 30
0.0
 10
938.4892
 20
177.5197
 30
0.0
 10
922.6819
 20
145.7696
 30
0.0
 10
908.4969
 20
106.8976
 30
0.0
 10
950.214
 20
142.1266
 30
0.0
 10
992.3155
 20
181.2915
 30
0.0
 10
1026.5595
 20
235.7838
 30
0.0
 10
1000.765
 20
288.888
 30
0.0
 10
1034.0787
 20
327.3149
 30
0.0
 10
1061.2187
 20
319.1387
 30
0.0
 10
1075.1884
 20
309.0942
 30
0.0
 10
1079.2863
 20
284.308
 30
0.0
 10
1081.4391
 20
262.62
 30
0.0
 10
1078.6328
 20
250.262
 30
0.0
 10
1075.8881
 20
234.4894
 30
0.0
 10
1068.538
 20
226.3367
 30
0.0
 10
1061.5569
 20
214.3359
 30
0.0
 10
1051.4852
 20
215.0739
 30
0.0
 10
1041.967
 20
214.7928
 30
0.0
 10
1032.2104
 20
217.6802
 30
0.0
 10
1025.3063
 20
206.1656
 30
0.0
 10
1014.2043
 20
194.5222
 30
0.0
 10
985.8034
 20
164.7341
 30
0.0
 10
950.2678
 20
108.7249
 30
0.0
 10
920.0525
 20
102.4463
 30
0.0
 10
952.0438
 20
102.6161
 30
0.0
 10
983.5969
 20
118.8572
 30
0.0
 10
1015.4344
 20
109.9724
 30
0.0
 10
1020.0705
 20
134.5947
 30
0.0
 10
1030.7496
 20
143.1106
 30
0.0
 10
1044.0198
 20
151.9369
 30
0.0
 10
1073.7353
 20
153.0321
 30
0.0
 10
1088.2125
 20
91.7458
 30
0.0
 10
1066.1085
 20
55.7378
 30
0.0
 10
1051.7081
 20
28.1051
 30
0.0
 10
1017.7409
 20
40.3635
 30
0.0
 10
1016.0725
 20
81.1156
 30
0.0
 10
981.1827
 20
84.2138
 30
0.0
 10
944.3862
 20
79.3
 30
0.0
 10
902.5922
 20
71.9555
 30
0.0
 10
918.7685
 20
43.4091
 30
0.0
 10
940.1345
 20
22.8515
 30
0.0
 10
948.0535
 20
-9.0919
 30
0.0
 10
952.113
 20
-5.7769
 30
0.0
 10
964.1068
 20
10.4056
 30
0.0
 10
975.3396
 20
4.8474
 30
0.0
 10
1001.9259
 20
-8.3305
 30
0.0
 10
1024.399
 20
-63.0102
 30
0.0
 10
984.4657
 20
-109.2561
 30
0.0
 10
973.6483
 20
-122.0649
 30
0.0
 10
961.2531
 20
-119.7769
 30
0.0
 10
951.3641
 20
-109.2409
 30
0.0
 10
953.1379
 20
-125.0323
 30
0.0
 10
952.5479
 20
-142.7467
 30
0.0
 10
948.8608
 20
-162.0265
 30
0.0
 10
928.8864
 20
-249.6628
 30
0.0
 10
870.4625
 20
-234.8273
 30
0.0
 10
870.4625
 20
-152.4856
 30
0.0
 10
870.4625
 20
-142.8159
 30
0.0
 10
871.6234
 20
-132.3439
 30
0.0
 10
875.2062
 20
-123.1837
 30
0.0
 10
881.0648
 20
-108.3072
 30
0.0
 10
891.7593
 20
-100.8398
 30
0.0
 10
907.1668
 20
-100.8398
 30
0.0
 10
910.096
 20
-100.8398
 30
0.0
 10
912.3949
 20
-104.6818
 30
0.0
 10
912.3949
 20
-109.6484
 30
0.0
 10
912.3949
 20
-114.6209
 30
0.0
 10
910.096
 20
-118.4397
 30
0.0
 10
907.1668
 20
-118.4397
 30
0.0
 10
888.7224
 20
-114.0235
 30
0.0
 10
873.6609
 20
-162.6765
 30
0.0
 10
891.0058
 20
-184.1829
 30
0.0
 10
904.3528
 20
-200.7345
 30
0.0
 10
923.6506
 20
-190.608
 30
0.0
 10
931.8464
 20
-153.3583
 30
0.0
 10
950.4446
 20
-73.7575
 30
0.0
 10
898.9018
 20
-38.4114
 30
0.0
 10
861.1903
 20
-72.3988
 30
0.0
 10
833.2585
 20
-98.2159
 30
0.0
 10
830.3446
 20
-189.665
 30
0.0
 10
852.8484
 20
-225.4563
 30
0.0
 10
948.3611
 20
-336.766
 30
0.0
 10
1052.6846
 20
-115.8744
 30
0.0
 10
1110.3089
 20
79.0071
 30
0.0
 10
1131.1521
 20
149.4945
 30
0.0
 10
1143.415
 20
222.682
 30
0.0
 10
1149.0045
 20
263.5394
 30
0.0
 10
1150.5476
 20
380.9598
 30
0.0
 10
1170.9412
 20
476.389
 30
0.0
 10
1199.95
 20
552.2348
 30
0.0
 10
1199.95
 20
552.2348
 30
0.0
 10
1199.95
 20
411.7121
 30
0.0
 10
1199.95
 20
411.7121
 30
0.0
 10
1182.8421
 20
310.6357
 30
0.0
 10
1182.39
 20
203.8123
 30
0.0
 10
1199.95
 20
113.0644
 30
0.0
 10
1199.95
 20
113.0644
 30
0.0
 10
1199.95
 20
-16.4637
 30
0.0
 10
1199.95
 20
-16.4637
 30
0.0
 10
1183.2987
 20
21.0636
 30
0.0
 10
1170.3107
 20
65.837
 30
0.0
 10
1162.7235
 20
117.3724
 30
0.0
 10
1157.5394
 20
60.1041
 30
0.0
 10
1151.3035
 20
-2.8202
 30
0.0
 10
1150.1731
 20
-29.3449
 30
0.0
 10
1158.1536
 20
-73.945
 30
0.0
 10
1171.516
 20
-119.6754
 30
0.0
 10
1188.1075
 20
-154.8987
 30
0.0
 10
1191.3261
 20
-148.351
 30
0.0
 10
1195.7351
 20
-146.8187
 30
0.0
 10
1199.95
 20
-148.6767
 30
0.0
 10
1199.95
 20
-148.6767
 30
0.0
 10
1199.95
 20
-212.6347
 30
0.0
 10
1199.95
 20
-212.6347
 30
0.0
 10
1192.2578
 20
-217.1144
 30
0.0
 10
1183.2911
 20
-207.8651
 30
0.0
 10
1179.3428
 20
-183.2693
 30
0.0
 10
1178.6662
 20
-174.9701
 30
0.0
 10
1178.3202
 20
-170.595
 30
0.0
 10
1180.8189
 20
-164.1525
 30
0.0
 10
1169.0404
 20
-132.3322
 30
0.0
 10
1156.2008
 20
-100.9686
 30
0.0
 10
1147.8128
 20
-65.7103
 30
0.0
 10
1149.8886
 20
-148.5439
 30
0.0
 10
1144.3069
 20
-206.5796
 30
0.0
 10
1135.7574
 20
-278.0686
 30
0.0
 10
1142.4386
 20
-301.7596
 30
0.0
 10
1169.9322
 20
-369.916
 30
0.0
 10
1186.2931
 20
-377.8989
 30
0.0
 10
1190.4637
 20
-370.9853
 30
0.0
 10
1195.1366
 20
-366.6654
 30
0.0
 10
1199.95
 20
-364.4891
 30
0.0
 10
1199.95
 20
-364.4891
 30
0.0
 10
1199.95
 20
-475.6461
 30
0.0
 10
1199.95
 20
-475.6461
 30
0.0
 10
1189.838
 20
-469.1331
 30
0.0
 10
1181.1408
 20
-452.1368
 30
0.0
 10
1176.7825
 20
-432.9008
 30
0.0
 10
1172.677
 20
-414.7503
 30
0.0
 10
1180.0424
 20
-393.0916
 30
0.0
 10
1181.3802
 20
-385.9931
 30
0.0
 10
1163.597
 20
-376.0774
 30
0.0
 10
1145.3756
 20
-338.6579
 30
0.0
 10
1128.5457
 20
-314.6271
 30
0.0
 10
1128.9455
 20
-385.0443
 30
0.0
 10
1131.1059
 20
-451.5959
 30
0.0
 10
1136.3417
 20
-509.4325
 30
0.0
 10
1152.3412
 20
-508.7824
 30
0.0
 10
1154.2787
 20
-530.8745
 30
0.0
 10
1161.821
 20
-551.5727
 30
0.0
 10
1163.0972
 20
-565.3831
 30
0.0
 10
1162.7282
 20
-579.1878
 30
0.0
 10
1159.0839
 20
-589.408
 30
0.0
 10
1158.9962
 20
-589.6189
 30
0.0
 10
1158.9053
 20
-589.8188
 30
0.0
 10
1158.8167
 20
-590.0266
 30
0.0
 10
1158.8167
 20
-590.0266
 30
0.0
 10
1111.2644
 20
-590.0266
 30
0.0
 10
1111.2644
 20
-590.0266
 30
0.0
 10
1108.2556
 20
-582.5265
 30
0.0
 10
1106.2327
 20
-573.263
 30
0.0
 10
1105.6959
 20
-562.5015
 30
0.0
 10
1107.9178
 20
-547.1155
 30
0.0
 10
1109.7707
 20
-533.8204
 30
0.0
 10
1118.005
 20
-520.8065
 30
0.0
 10
1122.2336
 20
-517.4271
 30
0.0
 10
1122.2336
 20
-514.9672
 30
0.0
 10
1126.5006
 20
-511.4882
 30
0.0
 10
1118.5047
 20
-459.3445
 30
0.0
 10
1122.4411
 20
-404.1318
 30
0.0
 10
1119.2428
 20
-350.7992
 30
0.0
 10
1123.8404
 20
-416.8295
 30
0.0
 10
1075.765
 20
-523.202
 30
0.0
 10
1072.0977
 20
-565.5413
 30
0.0
 10
1072.5199
 20
-573.6962
 30
0.0
 10
1073.1018
 20
-582.0684
 30
0.0
 10
1072.8036
 20
-590.0266
 30
0.0
 10
1072.8036
 20
-590.0266
 30
0.0
 10
1017.0447
 20
-590.0266
 30
0.0
 10
1017.0447
 20
-590.0266
 30
0.0
 10
1016.2896
 20
-549.8029
 30
0.0
 10
1032.6131
 20
-509.5089
 30
0.0
 10
1059.3581
 20
-542.0259
 30
0.0
 10
1084.7835
 20
-479.3398
 30
0.0
 10
1101.2597
 20
-405.1451
 30
0.0
 10
1115.6908
 20
-331.9869
 30
0.0
 10
1089.0352
 20
-380.4759
 30
0.0
 10
1066.8927
 20
-428.2095
 30
0.0
 10
1034.3094
 20
-446.9397
 30
0.0
 10
1033.9788
 20
-462.2027
 30
0.0
 10
1031.6953
 20
-476.1654
 30
0.0
 10
1027.8511
 20
-490.4152
 30
0.0
 10
1020.7009
 20
-502.3515
 30
0.0
 10
1009.745
 20
-507.9096
 30
0.0
 10
999.9885
 20
-502.5214
 30
0.0
 10
976.0238
 20
-498.9369
 30
0.0
 10
972.0874
 20
-443.1268
 30
0.0
 10
987.3334
 20
-416.4371
 30
0.0
 10
997.0746
 20
-399.4111
 30
0.0
 10
1012.559
 20
-404.4539
 30
0.0
 10
1031.0726
 20
-429.1289
 30
0.0
 10
1054.2299
 20
-408.0501
 30
0.0
 10
1099.7297
 20
-347.5017
 30
0.0
 10
1118.6354
 20
-301.8123
 30
0.0
 10
1096.3314
 20
-295.3756
 30
0.0
 10
1073.8122
 20
-295.5396
 30
0.0
 10
1052.6538
 20
-283.779
 30
0.0
 10
1036.785
 20
-299.6687
 30
0.0
 10
1034.1095
 20
-323.3597
 30
0.0
 10
1009.8065
 20
-320.2087
 30
0.0
 10
988.9591
 20
-308.1969
 30
0.0
 10
984.1052
 20
-277.6967
 30
0.0
 10
987.9984
 20
-250.6891
 30
0.0
 10
966.1976
 20
-271.2992
 30
0.0
 10
942.1587
 20
-284.5044
 30
0.0
 10
915.7239
 20
-287.176
 30
0.0
 10
913.9402
 20
-287.6152
 30
0.0
 10
869.7321
 20
-290.3387
 30
0.0
 10
842.2154
 20
-246.7929
 30
0.0
 10
828.015
 20
-224.4196
 30
0.0
 10
818.0355
 20
-191.9375
 30
0.0
 10
818.0355
 20
-149.9906
 30
0.0
 10
818.0355
 20
-129.5845
 30
0.0
 10
821.6929
 20
-108.1524
 30
0.0
 10
827.9035
 20
-89.1825
 30
0.0
 10
815.5972
 20
-88.1207
 30
0.0
 10
802.8403
 20
-65.3232
 30
0.0
 10
811.8002
 20
-48.1162
 30
0.0
 10
806.7106
 20
-42.1269
 30
0.0
 10
777.2887
 20
-27.0345
 30
0.0
 10
763.1987
 20
-18.4499
 30
0.0
 10
747.4797
 20
-36.0716
 30
0.0
 10
726.2556
 20
-44.5864
 30
0.0
 10
699.7499
 20
-40.35
 30
0.0
 10
697.774
 20
-39.6531
 30
0.0
 10
651.5131
 20
-16.0674
 30
0.0
 10
642.1794
 20
40.9023
 30
0.0
 10
641.1492
 20
47.3449
 30
0.0
 10
640.6341
 20
53.8695
 30
0.0
 10
640.6341
 20
60.5521
 30
0.0
 10
640.6341
 20
85.8186
 30
0.0
 10
648.0841
 20
112.4909
 30
0.0
 10
663.0226
 20
140.0825
 30
0.0
 10
666.2056
 20
146.0332
 30
0.0
 10
671.3568
 20
146.3787
 30
0.0
 10
674.7397
 20
141.1133
 30
0.0
 10
676.5311
 20
138.3255
 30
0.0
 10
677.4306
 20
134.5126
 30
0.0
 10
677.4306
 20
130.735
 30
0.0
 10
677.4306
 20
127.4141
 30
0.0
 10
676.7233
 20
124.0581
 30
0.0
 10
675.3394
 20
121.4167
 30
0.0
 10
612.756
 20
-1.9465
 30
0.0
 10
810.7777
 20
-96.6111
 30
0.0
 10
759.4809
 20
172.0611
 30
0.0
 10
703.9093
 20
353.6825
 30
0.0
 10
559.3834
 20
249.7583
 30
0.0
 10
561.1901
 20
30.524
 30
0.0
 10
561.8088
 20
17.7349
 30
0.0
 10
562.6776
 20
5.1696
 30
0.0
 10
563.7349
 20
-7.2213
 30
0.0
 10
580.4524
 20
-25.2743
 30
0.0
 10
589.0577
 20
-70.0802
 30
0.0
 10
574.7806
 20
-92.2855
 30
0.0
 10
607.6671
 20
-277.7888
 30
0.0
 10
691.5645
 20
-411.9088
 30
0.0
 10
789.9647
 20
-499.2522
 30
0.0
 10
778.5668
 20
-469.2325
 30
0.0
 10
769.0881
 20
-436.0738
 30
0.0
 10
761.6874
 20
-401.8593
 30
0.0
 10
748.2635
 20
-339.8176
 30
0.0
 10
741.6977
 20
-274.3142
 30
0.0
 10
742.8279
 20
-217.7487
 30
0.0
 10
776.0109
 20
-260.8494
 30
0.0
 10
816.3364
 20
-346.4475
 30
0.0
 10
835.3958
 20
-434.5817
 30
0.0
 10
843.3378
 20
-471.2816
 30
0.0
 10
847.5987
 20
-508.429
 30
0.0
 10
846.1434
 20
-543.1605
 30
0.0
 10
873.8496
 20
-562.104
 30
0.0
 10
902.1184
 20
-577.7
 30
0.0
 10
930.2311
 20
-590.0266
 30
0.0
 10
930.2311
 20
-590.0266
 30
0.0
 10
840.1396
 20
-590.0266
 30
0.0
 10
840.1396
 20
-590.0266
 30
0.0
 10
840.1396
 20
-590.0266
 30
0.0
 10
838.9145
 20
-590.0266
 30
0.0
 10
838.9145
 20
-590.0266
 30
0.0
 10
838.9145
 20
-590.0266
 30
0.0
 10
836.0057
 20
-590.0266
 30
0.0
 10
836.0057
 20
-590.0266
 30
0.0
 10
749.5313
 20
-539.7295
 30
0.0
 10
659.005
 20
-443.8086
 30
0.0
 10
589.8944
 20
-255.7396
 30
0.0
 10
587.2476
 20
-260.1946
 30
0.0
 10
583.2861
 20
-263.6343
 30
0.0
 10
577.7278
 20
-265.3533
 30
0.0
 10
577.6125
 20
-292.3476
 30
0.0
 10
596.695
 20
-313.1336
 30
0.0
 10
594.1425
 20
-345.9555
 30
0.0
 10
631.1085
 20
-388.4158
 30
0.0
 10
655.1509
 20
-467.891
 30
0.0
 10
687.5717
 20
-522.1141
 30
0.0
 10
735.8195
 20
-550.9534
 30
0.0
 10
781.5859
 20
-573.8308
 30
0.0
 10
823.0299
 20
-590.0266
 30
0.0
 10
823.0299
 20
-590.0266
 30
0.0
 10
594.4358
 20
-590.0266
 30
0.0
 10
594.4358
 20
-590.0266
 30
0.0
 10
534.5097
 20
-570.6203
 30
0.0
 10
466.4364
 20
-550.9604
 30
0.0
 10
394.872
 20
-534.9602
 30
0.0
 10
388.1469
 20
-555.3179
 30
0.0
 10
378.392
 20
-573.7473
 30
0.0
 10
366.8261
 20
-590.0266
 30
0.0
 10
366.8261
 20
-590.0266
 30
0.0
 10
284.8683
 20
-590.0266
 30
0.0
 10
284.8683
 20
-590.0266
 30
0.0
 10
290.9922
 20
-580.0868
 30
0.0
 10
297.4926
 20
-570.5719
 30
0.0
 10
304.2909
 20
-561.6523
 30
0.0
 10
315.3747
 20
-547.112
 30
0.0
 10
327.2481
 20
-534.1524
 30
0.0
 10
339.5613
 20
-523.5043
 30
0.0
 10
291.4812
 20
-514.3681
 30
0.0
 10
242.4011
 20
-507.2511
 30
0.0
 10
193.6476
 20
-503.2711
 30
0.0
 10
131.4815
 20
-498.1968
 30
0.0
 10
74.3764
 20
-533.2904
 30
0.0
 10
27.686
 20
-590.0266
 30
0.0
 10
27.686
 20
-590.0266
 30
0.0
 10
-26.1701
 20
-590.0266
 30
0.0
 10
-26.1701
 20
-590.0266
 30
0.0
 10
-23.309
 20
-585.7542
 30
0.0
 10
-20.4023
 20
-581.6151
 30
0.0
 10
-17.473
 20
-577.5438
 30
0.0
 10
-25.6196
 20
-579.562
 30
0.0
 10
-34.6226
 20
-575.6978
 30
0.0
 10
-43.6463
 20
-562.9349
 30
0.0
 10
-59.3382
 20
-526.7863
 30
0.0
 10
-49.0896
 20
-508.841
 30
0.0
 10
-50.3966
 20
-474.8066
 30
0.0
 10
-68.5566
 20
-448.5796
 30
0.0
 10
-81.5576
 20
-413.3037
 30
0.0
 10
-97.7263
 20
-382.1861
 30
0.0
 10
-109.263
 20
-437.1617
 30
0.0
 10
-113.0662
 20
-540.3456
 30
0.0
 10
-110.4261
 20
-590.0266
 30
0.0
 10
-110.4261
 20
-590.0266
 30
0.0
 10
-121.0544
 20
-590.0266
 30
0.0
 10
-121.0544
 20
-590.0266
 30
0.0
 10
-121.0544
 20
-590.0266
 30
0.0
 10
-121.2911
 20
-541.2177
 30
0.0
 10
-121.2911
 20
-541.2177
 30
0.0
 10
-119.5535
 20
-491.3991
 30
0.0
 10
-113.6566
 20
-450.3835
 30
0.0
 10
-111.0425
 20
-404.3251
 30
0.0
 10
-136.0744
 20
-462.3677
 30
0.0
 10
-160.573
 20
-523.4462
 30
0.0
 10
-177.2437
 20
-590.0266
 30
0.0
 10
-177.2437
 20
-590.0266
 30
0.0
 10
-190.1382
 20
-590.0266
 30
0.0
 10
-190.1382
 20
-590.0266
 30
0.0
 10
-187.7701
 20
-583.5896
 30
0.0
 10
-185.5031
 20
-575.9641
 30
0.0
 10
-182.5597
 20
-567.6966
 30
0.0
 10
-164.9457
 20
-518.2412
 30
0.0
 10
-147.7468
 20
-439.6888
 30
0.0
 10
-122.4751
 20
-409.7017
 30
0.0
 10
-150.9067
 20
-435.6945
 30
0.0
 10
-176.1169
 20
-473.9282
 30
0.0
 10
-206.7397
 20
-491.733
 30
0.0
 10
-205.9862
 20
-500.4305
 30
0.0
 10
-207.2163
 20
-501.8478
 30
0.0
 10
-206.4398
 20
-510.4223
 30
0.0
 10
-208.1389
 20
-530.851
 30
0.0
 10
-213.6823
 20
-541.4695
 30
0.0
 10
-220.0559
 20
-553.8802
 30
0.0
 10
-246.2194
 20
-578.8539
 30
0.0
 10
-274.8894
 20
-536.0109
 30
0.0
 10
-264.4793
 20
-486.1045
 30
0.0
 10
-261.5116
 20
-474.4611
 30
0.0
 10
-254.8458
 20
-465.8691
 30
0.0
 10
-247.2266
 20
-459.8423
 30
0.0
 10
-232.5341
 20
-459.5904
 30
0.0
 10
-220.4019
 20
-449.7861
 30
0.0
 10
-211.4296
 20
-475.1698
 30
0.0
 10
-179.5766
 20
-449.7393
 30
0.0
 10
-145.1789
 20
-414.4399
 30
0.0
 10
-109.8662
 20
-374.1447
 30
0.0
 10
-131.6166
 20
-361.8101
 30
0.0
 10
-160.8401
 20
-355.0806
 30
0.0
 10
-176.1169
 20
-333.0528
 30
0.0
 10
-178.8693
 20
-339.2787
 30
0.0
 10
-185.3814
 20
-363.3739
 30
0.0
 10
-196.814
 20
-367.497
 30
0.0
 10
-216.0349
 20
-374.427
 30
0.0
 10
-238.8042
 20
-361.0203
 30
0.0
 10
-241.893
 20
-326.3358
 30
0.0
 10
-261.484
 20
-395.099
 30
0.0
 10
-313.7569
 20
-411.7358
 30
0.0
 10
-316.322
 20
-412.8058
 30
0.0
 10
-354.8484
 20
-421.9543
 30
0.0
 10
-385.6173
 20
-410.3577
 30
0.0
 10
-407.4676
 20
-377.9985
 30
0.0
 10
-440.4277
 20
-329.8023
 30
0.0
 10
-440.8351
 20
-253.4697
 30
0.0
 10
-440.8351
 20
-249.9732
 30
0.0
 10
-440.8351
 20
-160.6266
 30
0.0
 10
-426.3426
 20
-91.7147
 30
0.0
 10
-397.7495
 20
-45.6563
 30
0.0
 10
-330.6377
 20
90.1059
 30
0.0
 10
-91.0066
 20
46.32
 30
0.0
 10
5.9437
 20
19.4134
 30
0.0
 10
-173.6136
 20
161.4461
 30
0.0
 10
-352.166
 20
176.1508
 30
0.0
 10
-488.3401
 20
50.2356
 30
0.0
 10
-479.6986
 20
-1.0639
 30
0.0
 10
-487.5583
 20
-52.4738
 30
0.0
 10
-502.4036
 20
-106.8607
 30
0.0
 10
-518.6722
 20
-167.3093
 30
0.0
 10
-517.8726
 20
-215.2595
 30
0.0
 10
-527.8752
 20
-277.6468
 30
0.0
 10
-538.6081
 20
-220.8821
 30
0.0
 10
-554.2617
 20
-163.2916
 30
0.0
 10
-554.0541
 20
-102.9951
 30
0.0
 10
-553.8648
 20
-61.8834
 30
0.0
 10
-544.2755
 20
-29.8975
 30
0.0
 10
-532.7794
 20
2.1917
 30
0.0
 10
-544.0701
 20
-11.9431
 30
0.0
 10
-554.9795
 20
-27.229
 30
0.0
 10
-565.4857
 20
-43.6538
 30
0.0
 10
-574.1697
 20
-137.3759
 30
0.0
 10
-576.5487
 20
-234.9978
 30
0.0
 10
-579.0644
 20
-329.9546
 30
0.0
 10
-568.2776
 20
-343.7299
 30
0.0
 10
-567.6548
 20
-383.6152
 30
0.0
 10
-550.6866
 20
-390.1573
 30
0.0
 10
-520.8941
 20
-338.4178
 30
0.0
 10
-498.4672
 20
-459.0341
 30
0.0
 10
-542.6138
 20
-453.2827
 30
0.0
 10
-549.072
 20
-444.3099
 30
0.0
 10
-554.7922
 20
-433.1761
 30
0.0
 10
-555.6994
 20
-420.7068
 30
0.0
 10
-556.5605
 20
-396.4301
 30
0.0
 10
-573.5364
 20
-387.223
 30
0.0
 10
-578.9106
 20
-357.7161
 30
0.0
 10
-583.8696
 20
-437.4925
 30
0.0
 10
-570.438
 20
-491.4166
 30
0.0
 10
-569.846
 20
-570.6777
 30
0.0
 10
-546.7271
 20
-565.5881
 30
0.0
 10
-524.3924
 20
-563.6788
 30
0.0
 10
-501.5656
 20
-560.1822
 30
0.0
 10
-501.0274
 20
-542.1665
 30
0.0
 10
-490.2867
 20
-522.0247
 30
0.0
 10
-478.9541
 20
-507.9331
 30
0.0
 10
-451.6363
 20
-473.9958
 30
0.0
 10
-425.7252
 20
-545.9034
 30
0.0
 10
-438.6755
 20
-590.0266
 30
0.0
 10
-438.6755
 20
-590.0266
 30
0.0
 10
-492.5082
 20
-590.0266
 30
0.0
 10
-492.5082
 20
-590.0266
 30
0.0
 10
-495.1171
 20
-585.4688
 30
0.0
 10
-498.002
 20
-580.8481
 30
0.0
 10
-501.6655
 20
-576.5873
 30
0.0
 10
-523.2237
 20
-585.8353
 30
0.0
 10
-545.6814
 20
-583.0239
 30
0.0
 10
-568.1776
 20
-586.8193
 30
0.0
 10
-567.7973
 20
-587.8795
 30
0.0
 10
-567.4027
 20
-588.9495
 30
0.0
 10
-566.9974
 20
-590.0266
 30
0.0
 10
-566.9974
 20
-590.0266
 30
0.0
 10
-596.145
 20
-590.0266
 30
0.0
 10
-596.145
 20
-590.0266
 30
0.0
 10
-590.8608
 20
-578.4435
 30
0.0
 10
-586.62
 20
-567.9193
 30
0.0
 10
-584.3693
 20
-561.1135
 30
0.0
 10
-590.2279
 20
-488.7811
 30
0.0
 10
-593.6184
 20
-430.2124
 30
0.0
 10
-588.4365
 20
-347.8121
 30
0.0
 10
-598.1238
 20
-382.0046
 30
0.0
 10
-612.1167
 20
-411.7809
 30
0.0
 10
-625.0639
 20
-442.1488
 30
0.0
 10
-622.8112
 20
-448.8724
 30
0.0
 10
-623.3186
 20
-453.1948
 30
0.0
 10
-624.3104
 20
-461.3944
 30
0.0
 10
-631.9911
 20
-499.4699
 30
0.0
 10
-648.1751
 20
-496.9632
 30
0.0
 10
-656.0326
 20
-465.6347
 30
0.0
 10
-660.4073
 20
-441.3698
 30
0.0
 10
-641.2786
 20
-410.4163
 30
0.0
 10
-631.9834
 20
-432.0573
 30
0.0
 10
-614.1079
 20
-398.8665
 30
0.0
 10
-603.4365
 20
-345.5163
 30
0.0
 10
-593.803
 20
-301.9529
 30
0.0
 10
-594.001
 20
-261.7252
 30
0.0
 10
-588.855
 20
-139.5597
 30
0.0
 10
-586.3929
 20
-78.8283
 30
0.0
 10
-652.0681
 20
-197.763
 30
0.0
 10
-699.0723
 20
-367.2109
 30
0.0
 10
-718.796
 20
-590.0266
 30
0.0
 10
-718.796
 20
-590.0266
 30
0.0
 10
-748.5283
 20
-590.0266
 30
0.0
 10
-748.5283
 20
-590.0266
 30
0.0
 10
-743.6999
 20
-533.1205
 30
0.0
 10
-736.5405
 20
-480.0523
 30
0.0
 10
-727.6379
 20
-430.6677
 30
0.0
 10
-767.2863
 20
-460.5871
 30
0.0
 10
-811.6248
 20
-493.887
 30
0.0
 10
-815.9969
 20
-498.6206
 30
0.0
 10
-802.753
 20
-528.8497
 30
0.0
 10
-791.1727
 20
-559.4466
 30
0.0
 10
-778.9183
 20
-590.0266
 30
0.0
  0
SPLINE
  5
62
330
1F
100
AcDbEntity
  8
Layer 1
 62
   250
370
    20
100
AcDbSpline
210
0.0
220
0.0
230
1.0
 70
    11
 71
     3
 72
    23
 73
    19
 74
     0
 42
0.0000000001
 43
0.0000000001
 40
0.0
 40
0.0
 40
0.0
 40
0.0
 40
0.1666666666666667
 40
0.1666666666666667
 40
0.1666666666666667
 40
0.3333333333333333
 40
0.3333333333333333
 40
0.3333333333333333
 40
0.5
 40
0.5
 40
0.5
 40
0.6666666666666666
 40
0.6666666666666666
 40
0.6666666666666666
 40
0.8333333333333333
 40
0.8333333333333333
 40
0.8333333333333333
 40
1.0
 40
1.0
 40
1.0
 40
1.0
 10
-895.3049
 20
-392.9957
 30
0.0
 10
-891.3025
 20
-405.3688
 30
0.0
 10
-889.7581
 20
-420.4588
 30
0.0
 10
-892.4039
 20
-436.5847
 30
0.0
 10
-880.9098
 20
-458.9638
 30
0.0
 10
-833.8416
 20
-471.6205
 30
0.0
 10
-818.7877
 20
-471.4506
 30
0.0
 10
-813.8859
 20
-464.4337
 30
0.0
 10
-744.6666
 20
-392.4024
 30
0.0
 10
-712.9963
 20
-359.0995
 30
0.0
 10
-672.0743
 20
-180.9776
 30
0.0
 10
-609.12
 20
-57.6696
 30
0.0
 10
-558.5902
 20
19.4134
 30
0.0
 10
-627.2781
 20
-36.4962
 30
0.0
 10
-667.2115
 20
-83.6147
 30
0.0
 10
-742.25
 20
-200.7345
 30
0.0
 10
-788.1448
 20
-278.9551
 30
0.0
 10
-839.9594
 20
-342.7477
 30
0.0
 10
-895.3049
 20
-392.9957
 30
0.0
  0
SPLINE
  5
63
330
1F
100
AcDbEntity
  8
Layer 1
 62
   250
370
    20
100
AcDbSpline
210
0.0
220
0.0
230
1.0
 70
    11
 71
     3
 72
    26
 73
    22
 74
     0
 42
0.0000000001
 43
0.0000000001
 40
0.0
 40
0.0
 40
0.0
 40
0.0
 40
0.1428571428571428
 40
0.1428571428571428
 40
0.1428571428571428
 40
0.2857142857142857
 40
0.2857142857142857
 40
0.2857142857142857
 40
0.4285714285714285
 40
0.4285714285714285
 40
0.4285714285714285
 40
0.5714285714285714
 40
0.5714285714285714
 40
0.5714285714285714
 40
0.7142857142857142
 40
0.7142857142857142
 40
0.7142857142857142
 40
0.8571428571428571
 40
0.8571428571428571
 40
0.8571428571428571
 40
1.0
 40
1.0
 40
1.0
 40
1.0
 10
-592.7044
 20
571.2224
 30
0.0
 10
-594.4975
 20
568.6861
 30
0.0
 10
-596.5983
 20
566.4163
 30
0.0
 10
-599.031
 20
564.4771
 30
0.0
 10
-611.7399
 20
554.3564
 30
0.0
 10
-627.109
 20
548.2477
 30
0.0
 10
-636.1813
 20
556.6933
 30
0.0
 10
-649.6282
 20
523.5024
 30
0.0
 10
-662.0449
 20
490.253
 30
0.0
 10
-676.4222
 20
457.4369
 30
0.0
 10
-669.6451
 20
450.0971
 30
0.0
 10
-567.0453
 20
374.2614
 30
0.0
 10
-534.4114
 20
348.5784
 30
0.0
 10
-509.9146
 20
349.9863
 30
0.0
 10
-494.2294
 20
349.3634
 30
0.0
 10
-465.4456
 20
344.745
 30
0.0
 10
-521.8552
 20
391.8634
 30
0.0
 10
-553.8081
 20
455.8673
 30
0.0
 10
-591.5349
 20
567.7159
 30
0.0
 10
-591.9254
 20
568.8736
 30
0.0
 10
-592.3152
 20
570.0425
 30
0.0
 10
-592.7044
 20
571.2224
 30
0.0
  0
SPLINE
  5
64
330
1F
100
AcDbEntity
  8
Layer 1
 62
   250
370
    20
100
AcDbSpline
210
0.0
220
0.0
230
1.0
 70
    11
 71
     3
 72
    17
 73
    13
 74
     0
 42
0.0000000001
 43
0.0000000001
 40
0.0
 40
0.0
 40
0.0
 40
0.0
 40
0.25
 40
0.25
 40
0.25
 40
0.5
 40
0.5
 40
0.5
 40
0.75
 40
0.75
 40
0.75
 40
1.0
 40
1.0
 40
1.0
 40
1.0
 10
-598.9937
 20
340.4481
 30
0.0
 10
-626.9158
 20
371.1669
 30
0.0
 10
-674.6669
 20
423.7592
 30
0.0
 10
-679.2131
 20
430.267
 30
0.0
 10
-694.2669
 20
430.4309
 30
0.0
 10
-741.3351
 20
417.7801
 30
0.0
 10
-752.8292
 20
395.401
 30
0.0
 10
-749.7687
 20
376.7475
 30
0.0
 10
-752.3161
 20
359.4826
 30
0.0
 10
-757.789
 20
346.2042
 30
0.0
 10
-694.192
 20
333.3542
 30
0.0
 10
-635.776
 20
336.1496
 30
0.0
 10
-598.9937
 20
340.4481
 30
0.0
  0
SPLINE
  5
65
330
1F
100
AcDbEntity
  8
Layer 1
 62
   250
370
    20
100
AcDbSpline
210
0.0
220
0.0
230
1.0
 70
    11
 71
     3
 72
    26
 73
    22
 74
     0
 42
0.0000000001
 43
0.0000000001
 40
0.0
 40
0.0
 40
0.0
 40
0.0
 40
0.1428571428571428
 40
0.1428571428571428
 40
0.1428571428571428
 40
0.2857142857142857
 40
0.2857142857142857
 40
0.2857142857142857
 40
0.4285714285714285
 40
0.4285714285714285
 40
0.4285714285714285
 40
0.5714285714285714
 40
0.5714285714285714
 40
0.5714285714285714
 40
0.7142857142857142
 40
0.7142857142857142
 40
0.7142857142857142
 40
0.8571428571428571
 40
0.8571428571428571
 40
0.8571428571428571
 40
1.0
 40
1.0
 40
1.0
 40
1.0
 10
-1200.05
 20
393.6369
 30
0.0
 10
-1200.05
 20
393.6369
 30
0.0
 10
-1200.05
 20
473.8745
 30
0.0
 10
-1200.05
 20
473.8745
 30
0.0
 10
-1198.0965
 20
469.8271
 30
0.0
 10
-1196.2141
 20
465.6608
 30
0.0
 10
-1194.4184
 20
461.3494
 30
0.0
 10
-1190.1975
 20
465.1504
 30
0.0
 10
-1189.1058
 20
463.6043
 30
0.0
 10
-1184.9617
 20
467.3995
 30
0.0
 10
-1174.0135
 20
470.773
 30
0.0
 10
-1166.9325
 20
465.0568
 30
0.0
 10
-1158.6906
 20
458.5439
 30
0.0
 10
-1138.1319
 20
424.0646
 30
0.0
 10
-1151.4712
 20
365.3377
 30
0.0
 10
-1180.0642
 20
367.1299
 30
0.0
 10
-1186.8992
 20
368.4184
 30
0.0
 10
-1193.2805
 20
376.5302
 30
0.0
 10
-1198.6317
 20
386.9496
 30
0.0
 10
-1199.0723
 20
389.2414
 30
0.0
 10
-1199.5524
 20
391.4662
 30
0.0
 10
-1200.05
 20
393.6369
 30
0.0
  0
SPLINE
  5
66
330
1F
100
AcDbEntity
  8
Layer 1
 62
   250
370
    20
100
AcDbSpline
210
0.0
220
0.0
230
1.0
 70
    11
 71
     3
 72
    29
 73
    25
 74
     0
 42
0.0000000001
 43
0.0000000001
 40
0.0
 40
0.0
 40
0.0
 40
0.0
 40
0.125
 40
0.125
 40
0.125
 40
0.25
 40
0.25
 40
0.25
 40
0.375
 40
0.375
 40
0.375
 40
0.5
 40
0.5
 40
0.5
 40
0.625
 40
0.625
 40
0.625
 40
0.75
 40
0.75
 40
0.75
 40
0.875
 40
0.875
 40
0.875
 40
1.0
 40
1.0
 40
1.0
 40
1.0
 10
-1200.05
 20
535.4849
 30
0.0
 10
-1200.05
 20
535.4849
 30
0.0
 10
-1200.05
 20
552.4217
 30
0.0
 10
-1200.05
 20
552.4217
 30
0.0
 10
-1179.8393
 20
543.8501
 30
0.0
 10
-1159.3947
 20
537.8059
 30
0.0
 10
-1138.8469
 20
536.0947
 30
0.0
 10
-1136.2713
 20
602.6873
 30
0.0
 10
-1099.1672
 20
589.2575
 30
0.0
 10
-1083.8443
 20
551.5393
 30
0.0
 10
-1078.1703
 20
528.1703
 30
0.0
 10
-1084.7515
 20
506.5058
 30
0.0
 10
-1091.4942
 20
489.2456
 30
0.0
 10
-1098.0678
 20
484.1853
 30
0.0
 10
-1105.8868
 20
476.7471
 30
0.0
 10
-1113.9519
 20
479.9274
 30
0.0
 10
-1123.2164
 20
480.0679
 30
0.0
 10
-1129.7746
 20
492.508
 30
0.0
 10
-1136.3328
 20
503.595
 30
0.0
 10
-1141.853
 20
517.1243
 30
0.0
 10
-1150.8869
 20
517.4933
 30
0.0
 10
-1162.8192
 20
522.7645
 30
0.0
 10
-1173.8808
 20
527.6476
 30
0.0
 10
-1186.8813
 20
531.3044
 30
0.0
 10
-1200.05
 20
535.4849
 30
0.0
  0
SPLINE
  5
67
330
1F
100
AcDbEntity
  8
Layer 1
 62
   250
370
    20
100
AcDbSpline
210
0.0
220
0.0
230
1.0
 70
    11
 71
     3
 72
    20
 73
    16
 74
     0
 42
0.0000000001
 43
0.0000000001
 40
0.0
 40
0.0
 40
0.0
 40
0.0
 40
0.2
 40
0.2
 40
0.2
 40
0.4
 40
0.4
 40
0.4
 40
0.6000000000000001
 40
0.6000000000000001
 40
0.6000000000000001
 40
0.8
 40
0.8
 40
0.8
 40
1.0
 40
1.0
 40
1.0
 40
1.0
 10
-1113.3531
 20
-303.0075
 30
0.0
 10
-1115.6692
 20
-311.6878
 30
0.0
 10
-1120.9316
 20
-318.4477
 30
0.0
 10
-1130.1975
 20
-320.2614
 30
0.0
 10
-1138.0704
 20
-347.6775
 30
0.0
 10
-1121.0329
 20
-373.7698
 30
0.0
 10
-1121.8325
 20
-397.2793
 30
0.0
 10
-1103.0651
 20
-421.9401
 30
0.0
 10
-1084.0811
 20
-446.9645
 30
0.0
 10
-1064.8002
 20
-471.2599
 30
0.0
 10
-1033.6345
 20
-455.0062
 30
0.0
 10
-1004.2943
 20
-435.4949
 30
0.0
 10
-978.0062
 20
-414.2349
 30
0.0
 10
-1033.4481
 20
-421.6546
 30
0.0
 10
-1079.6756
 20
-374.0412
 30
0.0
 10
-1113.3531
 20
-303.0075
 30
0.0
  0
SPLINE
  5
68
330
1F
100
AcDbEntity
  8
Layer 1
 62
   250
370
    20
100
AcDbSpline
210
0.0
220
0.0
230
1.0
 70
    11
 71
     3
 72
    29
 73
    25
 74
     0
 42
0.0000000001
 43
0.0000000001
 40
0.0
 40
0.0
 40
0.0
 40
0.0
 40
0.125
 40
0.125
 40
0.125
 40
0.25
 40
0.25
 40
0.25
 40
0.375
 40
0.375
 40
0.375
 40
0.5
 40
0.5
 40
0.5
 40
0.625
 40
0.625
 40
0.625
 40
0.75
 40
0.75
 40
0.75
 40
0.875
 40
0.875
 40
0.875
 40
1.0
 40
1.0
 40
1.0
 40
1.0
 10
788.7962
 20
33.5696
 30
0.0
 10
785.5899
 20
21.1771
 30
0.0
 10
781.3519
 20
9.9594
 30
0.0
 10
776.0948
 20
0.201
 30
0.0
 10
790.0719
 20
-9.4636
 30
0.0
 10
811.6413
 20
-23.3406
 30
0.0
 10
817.1821
 20
-28.3434
 30
0.0
 10
826.254
 20
-15.2555
 30
0.0
 10
844.8539
 20
-28.2934
 30
0.0
 10
847.8235
 20
-49.2733
 30
0.0
 10
850.2256
 20
-46.1541
 30
0.0
 10
852.7282
 20
-43.3604
 30
0.0
 10
855.3164
 20
-40.9532
 30
0.0
 10
881.3233
 20
-19.4947
 30
0.0
 10
913.299
 20
-27.9627
 30
0.0
 10
933.2517
 20
-57.1218
 30
0.0
 10
933.135
 20
-46.1593
 30
0.0
 10
934.9823
 20
-34.8671
 30
0.0
 10
939.4502
 20
-24.3198
 30
0.0
 10
929.9244
 20
5.1988
 30
0.0
 10
893.6352
 20
53.6762
 30
0.0
 10
878.8274
 20
63.3869
 30
0.0
 10
854.4987
 20
49.2175
 30
0.0
 10
816.3498
 20
41.1384
 30
0.0
 10
788.7962
 20
33.5696
 30
0.0
  0
SPLINE
  5
69
330
1F
100
AcDbEntity
  8
Layer 1
 62
   250
370
    20
100
AcDbSpline
210
0.0
220
0.0
230
1.0
 70
    11
 71
     3
 72
    35
 73
    31
 74
     0
 42
0.0000000001
 43
0.0000000001
 40
0.0
 40
0.0
 40
0.0
 40
0.0
 40
0.1
 40
0.1
 40
0.1
 40
0.2
 40
0.2
 40
0.2
 40
0.3
 40
0.3
 40
0.3
 40
0.4
 40
0.4
 40
0.4
 40
0.5
 40
0.5
 40
0.5
 40
0.6000000000000001
 40
0.6000000000000001
 40
0.6000000000000001
 40
0.7000000000000001
 40
0.7000000000000001
 40
0.7000000000000001
 40
0.8
 40
0.8
 40
0.8
 40
0.9
 40
0.9
 40
0.9
 40
1.0
 40
1.0
 40
1.0
 40
1.0
 10
875.3716
 20
332.0163
 30
0.0
 10
880.8929
 20
326.1175
 30
0.0
 10
885.7766
 20
316.5729
 30
0.0
 10
889.3605
 20
302.4877
 30
0.0
 10
894.012
 20
257.6474
 30
0.0
 10
880.2729
 20
249.9457
 30
0.0
 10
872.6691
 20
218.6056
 30
0.0
 10
882.0719
 20
180.6003
 30
0.0
 10
883.8326
 20
142.5776
 30
0.0
 10
890.2139
 20
101.8255
 30
0.0
 10
915.1319
 20
142.232
 30
0.0
 10
946.5389
 20
229.9445
 30
0.0
 10
956.38
 20
275.4348
 30
0.0
 10
953.8241
 20
280.2542
 30
0.0
 10
951.5487
 20
284.9943
 30
0.0
 10
949.5568
 20
289.6394
 30
0.0
 10
937.3241
 20
272.9317
 30
0.0
 10
922.1446
 20
262.6039
 30
0.0
 10
902.2078
 20
260.3533
 30
0.0
 10
916.8541
 20
279.0719
 30
0.0
 10
923.9889
 20
313.809
 30
0.0
 10
938.8813
 20
333.898
 30
0.0
 10
939.0529
 20
334.1256
 30
0.0
 10
939.225
 20
334.3514
 30
0.0
 10
939.3972
 20
334.5759
 30
0.0
 10
939.5126
 20
338.8372
 30
0.0
 10
940.0238
 20
342.8984
 30
0.0
 10
940.9375
 20
346.7363
 30
0.0
 10
919.9161
 20
338.4806
 30
0.0
 10
897.9778
 20
333.316
 30
0.0
 10
875.3716
 20
332.0163
 30
0.0
  0
SPLINE
  5
6A
330
1F
100
AcDbEntity
  8
Layer 1
 62
   250
370
    20
100
AcDbSpline
210
0.0
220
0.0
230
1.0
 70
    11
 71
     3
 72
    53
 73
    49
 74
     0
 42
0.0000000001
 43
0.0000000001
 40
0.0
 40
0.0
 40
0.0
 40
0.0
 40
0.0625
 40
0.0625
 40
0.0625
 40
0.125
 40
0.125
 40
0.125
 40
0.1875
 40
0.1875
 40
0.1875
 40
0.25
 40
0.25
 40
0.25
 40
0.3125
 40
0.3125
 40
0.3125
 40
0.375
 40
0.375
 40
0.375
 40
0.4375
 40
0.4375
 40
0.4375
 40
0.5
 40
0.5
 40
0.5
 40
0.5625
 40
0.5625
 40
0.5625
 40
0.625
 40
0.625
 40
0.625
 40
0.6875
 40
0.6875
 40
0.6875
 40
0.75
 40
0.75
 40
0.75
 40
0.8125
 40
0.8125
 40
0.8125
 40
0.875
 40
0.875
 40
0.875
 40
0.9375
 40
0.9375
 40
0.9375
 40
1.0
 40
1.0
 40
1.0
 40
1.0
 10
362.881
 20
57.802
 30
0.0
 10
363.3448
 20
54.3751
 30
0.0
 10
364.0735
 20
51.0527
 30
0.0
 10
365.1828
 20
47.9423
 30
0.0
 10
368.2351
 20
33.3177
 30
0.0
 10
376.6154
 20
26.9454
 30
0.0
 10
384.3192
 20
20.1163
 30
0.0
 10
392.9148
 20
15.7177
 30
0.0
 10
396.0055
 20
1.5383
 30
0.0
 10
402.4945
 20
-15.6516
 30
0.0
 10
419.0937
 20
-59.6308
 30
0.0
 10
435.7159
 20
-129.9484
 30
0.0
 10
458.9809
 20
-155.9998
 30
0.0
 10
432.9174
 20
-133.7027
 30
0.0
 10
409.5985
 20
-100.1896
 30
0.0
 10
381.6513
 20
-85.3893
 30
0.0
 10
382.2126
 20
-77.4943
 30
0.0
 10
381.0901
 20
-76.2584
 30
0.0
 10
381.6667
 20
-68.4747
 30
0.0
 10
379.8522
 20
-50.0665
 30
0.0
 10
374.6933
 20
-40.6956
 30
0.0
 10
368.7656
 20
-29.7432
 30
0.0
 10
344.7625
 20
-8.266
 30
0.0
 10
319.414
 20
-48.2451
 30
0.0
 10
329.5011
 20
-92.9389
 30
0.0
 10
332.3458
 20
-103.3406
 30
0.0
 10
338.4888
 20
-110.8316
 30
0.0
 10
345.4622
 20
-115.9622
 30
0.0
 10
358.763
 20
-115.5581
 30
0.0
 10
369.865
 20
-123.9099
 30
0.0
 10
377.638
 20
-100.5703
 30
0.0
 10
406.7923
 20
-122.2173
 30
0.0
 10
433.7093
 20
-153.8737
 30
0.0
 10
466.1926
 20
-188.8158
 30
0.0
 10
446.6872
 20
-200.8985
 30
0.0
 10
422.3535
 20
-203.4873
 30
0.0
 10
408.8374
 20
-224.0624
 30
0.0
 10
406.2541
 20
-218.5511
 30
0.0
 10
402.7174
 20
-200.5705
 30
0.0
 10
392.3228
 20
-197.3375
 30
0.0
 10
372.1229
 20
-191.0361
 30
0.0
 10
347.9997
 20
-209.5118
 30
0.0
 10
352.4147
 20
-252.5437
 30
0.0
 10
300.5326
 20
-199.255
 30
0.0
 10
250.3102
 20
-141.3023
 30
0.0
 10
203.7775
 20
-79.4425
 30
0.0
 10
256.5104
 20
-100.7661
 30
0.0
 10
317.7251
 20
-29.1911
 30
0.0
 10
362.881
 20
57.802
 30
0.0
  0
SPLINE
  5
6B
330
1F
100
AcDbEntity
  8
Layer 1
 62
   250
370
    20
100
AcDbSpline
210
0.0
220
0.0
230
1.0
 70
    11
 71
     3
 72
    32
 73
    28
 74
     0
 42
0.0000000001
 43
0.0000000001
 40
0.0
 40
0.0
 40
0.0
 40
0.0
 40
0.1111111111111111
 40
0.1111111111111111
 40
0.1111111111111111
 40
0.2222222222222222
 40
0.2222222222222222
 40
0.2222222222222222
 40
0.3333333333333333
 40
0.3333333333333333
 40
0.3333333333333333
 40
0.4444444444444444
 40
0.4444444444444444
 40
0.4444444444444444
 40
0.5555555555555556
 40
0.5555555555555556
 40
0.5555555555555556
 40
0.6666666666666666
 40
0.6666666666666666
 40
0.6666666666666666
 40
0.7777777777777777
 40
0.7777777777777777
 40
0.7777777777777777
 40
0.8888888888888888
 40
0.8888888888888888
 40
0.8888888888888888
 40
1.0
 40
1.0
 40
1.0
 40
1.0
 10
397.2669
 20
-297.0906
 30
0.0
 10
407.9363
 20
-285.921
 30
0.0
 10
415.6363
 20
-264.4862
 30
0.0
 10
412.7431
 20
-238.7573
 30
0.0
 10
424.6524
 20
-219.2481
 30
0.0
 10
469.7677
 20
-214.0881
 30
0.0
 10
483.9989
 20
-216.4309
 30
0.0
 10
512.4535
 20
-264.7852
 30
0.0
 10
528.7298
 20
-302.0876
 30
0.0
 10
567.7483
 20
-340.8835
 30
0.0
 10
547.3511
 20
-335.1554
 30
0.0
 10
534.0194
 20
-333.0646
 30
0.0
 10
513.4915
 20
-333.9548
 30
0.0
 10
508.5863
 20
-314.1117
 30
0.0
 10
469.3449
 20
-318.112
 30
0.0
 10
485.9364
 20
-368.1999
 30
0.0
 10
494.1399
 20
-387.7443
 30
0.0
 10
518.3736
 20
-378.6837
 30
0.0
 10
514.0604
 20
-353.8388
 30
0.0
 10
543.776
 20
-346.4416
 30
0.0
 10
565.2419
 20
-360.1116
 30
0.0
 10
584.1015
 20
-384.1248
 30
0.0
 10
606.1315
 20
-412.1572
 30
0.0
 10
623.6107
 20
-454.3053
 30
0.0
 10
642.0171
 20
-493.5796
 30
0.0
 10
562.815
 20
-441.7466
 30
0.0
 10
478.7419
 20
-375.2896
 30
0.0
 10
397.2669
 20
-297.0906
 30
0.0
  0
SPLINE
  5
6C
330
1F
100
AcDbEntity
  8
Layer 1
 62
   250
370
    20
100
AcDbSpline
210
0.0
220
0.0
230
1.0
 70
    11
 71
     3
 72
    29
 73
    25
 74
     0
 42
0.0000000001
 43
0.0000000001
 40
0.0
 40
0.0
 40
0.0
 40
0.0
 40
0.125
 40
0.125
 40
0.125
 40
0.25
 40
0.25
 40
0.25
 40
0.375
 40
0.375
 40
0.375
 40
0.5
 40
0.5
 40
0.5
 40
0.625
 40
0.625
 40
0.625
 40
0.75
 40
0.75
 40
0.75
 40
0.875
 40
0.875
 40
0.875
 40
1.0
 40
1.0
 40
1.0
 40
1.0
 10
570.255
 20
-197.879
 30
0.0
 10
564.8205
 20
-199.1653
 30
0.0
 10
559.2659
 20
-205.4116
 30
0.0
 10
554.5474
 20
-219.0723
 30
0.0
 10
554.8857
 20
-232.959
 30
0.0
 10
556.5848
 20
-247.0272
 30
0.0
 10
561.5438
 20
-255.221
 30
0.0
 10
571.7078
 20
-269.9334
 30
0.0
 10
566.2875
 20
-298.4153
 30
0.0
 10
576.2286
 20
-322.2528
 30
0.0
 10
538.4864
 20
-284.6225
 30
0.0
 10
522.3254
 20
-236.0982
 30
0.0
 10
487.8969
 20
-191.1234
 30
0.0
 10
503.0122
 20
-162.1553
 30
0.0
 10
516.29
 20
-132.4961
 30
0.0
 10
530.5443
 20
-103.0419
 30
0.0
 10
534.6555
 20
-107.703
 30
0.0
 10
540.4274
 20
-109.1348
 30
0.0
 10
546.7354
 20
-108.4301
 30
0.0
 10
549.6531
 20
-124.5631
 30
0.0
 10
551.9121
 20
-134.0947
 30
0.0
 10
552.0179
 20
-134.6046
 30
0.0
 10
557.8518
 20
-156.6525
 30
0.0
 10
563.9403
 20
-177.7237
 30
0.0
 10
570.255
 20
-197.879
 30
0.0
  0
SPLINE
  5
6D
330
1F
100
AcDbEntity
  8
Layer 1
 62
   250
370
    20
100
AcDbSpline
210
0.0
220
0.0
230
1.0
 70
    11
 71
     3
 72
    56
 73
    52
 74
     0
 42
0.0000000001
 43
0.0000000001
 40
0.0
 40
0.0
 40
0.0
 40
0.0
 40
0.0588235294117647
 40
0.0588235294117647
 40
0.0588235294117647
 40
0.1176470588235294
 40
0.1176470588235294
 40
0.1176470588235294
 40
0.1764705882352941
 40
0.1764705882352941
 40
0.1764705882352941
 40
0.2352941176470588
 40
0.2352941176470588
 40
0.2352941176470588
 40
0.2941176470588235
 40
0.2941176470588235
 40
0.2941176470588235
 40
0.3529411764705882
 40
0.3529411764705882
 40
0.3529411764705882
 40
0.4117647058823529
 40
0.4117647058823529
 40
0.4117647058823529
 40
0.4705882352941176
 40
0.4705882352941176
 40
0.4705882352941176
 40
0.5294117647058824
 40
0.5294117647058824
 40
0.5294117647058824
 40
0.5882352941176471
 40
0.5882352941176471
 40
0.5882352941176471
 40
0.6470588235294118
 40
0.6470588235294118
 40
0.6470588235294118
 40
0.7058823529411764
 40
0.7058823529411764
 40
0.7058823529411764
 40
0.7647058823529411
 40
0.7647058823529411
 40
0.7647058823529411
 40
0.8235294117647058
 40
0.8235294117647058
 40
0.8235294117647058
 40
0.8823529411764706
 40
0.8823529411764706
 40
0.8823529411764706
 40
0.9411764705882353
 40
0.9411764705882353
 40
0.9411764705882353
 40
1.0
 40
1.0
 40
1.0
 40
1.0
 10
114.0422
 20
-204.2487
 30
0.0
 10
85.7183
 20
-223.1135
 30
0.0
 10
59.893
 20
-251.1504
 30
0.0
 10
41.2257
 20
-282.6369
 30
0.0
 10
73.6706
 20
-295.0359
 30
0.0
 10
124.4138
 20
-292.3066
 30
0.0
 10
164.6394
 20
-265.5114
 30
0.0
 10
183.9527
 20
-252.6466
 30
0.0
 10
200.8535
 20
-234.2408
 30
0.0
 10
212.1752
 20
-209.2999
 30
0.0
 10
289.961
 20
-306.0461
 30
0.0
 10
381.2068
 20
-363.5449
 30
0.0
 10
460.4879
 20
-440.585
 30
0.0
 10
468.6298
 20
-447.6074
 30
0.0
 10
476.5565
 20
-454.3193
 30
0.0
 10
484.5063
 20
-461.002
 30
0.0
 10
368.7169
 20
-419.5543
 30
0.0
 10
156.3615
 20
-377.37
 30
0.0
 10
8.7448
 20
-544.5897
 30
0.0
 10
18.7124
 20
-515.781
 30
0.0
 10
18.133
 20
-476.9953
 30
0.0
 10
-3.2746
 20
-464.8441
 30
0.0
 10
-17.206
 20
-456.9432
 30
0.0
 10
-33.636
 20
-453.7805
 30
0.0
 10
-42.5391
 20
-464.4868
 30
0.0
 10
-58.7693
 20
-432.69
 30
0.0
 10
-73.9384
 20
-400.6119
 30
0.0
 10
-91.1143
 20
-369.3947
 30
0.0
 10
-53.8257
 20
-317.9129
 30
0.0
 10
-36.7729
 20
-263.4674
 30
0.0
 10
4.2984
 20
-219.9274
 30
0.0
 10
-6.2885
 20
-246.7812
 30
0.0
 10
0.1775
 20
-277.969
 30
0.0
 10
-10.8092
 20
-294.7489
 30
0.0
 10
-16.1603
 20
-304.0614
 30
0.0
 10
-17.798
 20
-319.6875
 30
0.0
 10
-17.944
 20
-335.05
 30
0.0
 10
7.5122
 20
-404.53
 30
0.0
 10
50.5132
 20
-294.093
 30
0.0
 10
6.9048
 20
-282.7131
 30
0.0
 10
-0.822
 20
-253.2413
 30
0.0
 10
17.7377
 20
-226.8503
 30
0.0
 10
17.3994
 20
-201.9762
 30
0.0
 10
45.7445
 20
-167.4803
 30
0.0
 10
88.7301
 20
-143.5936
 30
0.0
 10
123.3532
 20
-114.9134
 30
0.0
 10
147.6255
 20
-133.8195
 30
0.0
 10
169.104
 20
-157.16
 30
0.0
 10
187.8266
 20
-179.4407
 30
0.0
 10
163.3564
 20
-179.0201
 30
0.0
 10
137.8257
 20
-188.4071
 30
0.0
 10
114.0422
 20
-204.2487
 30
0.0
  0
SPLINE
  5
6E
330
1F
100
AcDbEntity
  8
Layer 1
 62
   250
370
    20
100
AcDbSpline
210
0.0
220
0.0
230
1.0
 70
    11
 71
     3
 72
   119
 73
   115
 74
     0
 42
0.0000000001
 43
0.0000000001
 40
0.0
 40
0.0
 40
0.0
 40
0.0
 40
0.0263157894736842
 40
0.0263157894736842
 40
0.0263157894736842
 40
0.0526315789473684
 40
0.0526315789473684
 40
0.0526315789473684
 40
0.0789473684210526
 40
0.0789473684210526
 40
0.0789473684210526
 40
0.1052631578947368
 40
0.1052631578947368
 40
0.1052631578947368
 40
0.131578947368421
 40
0.131578947368421
 40
0.131578947368421
 40
0.1578947368421053
 40
0.1578947368421053
 40
0.1578947368421053
 40
0.1842105263157895
 40
0.1842105263157895
 40
0.1842105263157895
 40
0.2105263157894737
 40
0.2105263157894737
 40
0.2105263157894737
 40
0.2368421052631579
 40
0.2368421052631579
 40
0.2368421052631579
 40
0.2631578947368421
 40
0.2631578947368421
 40
0.2631578947368421
 40
0.2894736842105263
 40
0.2894736842105263
 40
0.2894736842105263
 40
0.3157894736842105
 40
0.3157894736842105
 40
0.3157894736842105
 40
0.3421052631578947
 40
0.3421052631578947
 40
0.3421052631578947
 40
0.3684210526315789
 40
0.3684210526315789
 40
0.3684210526315789
 40
0.3947368421052632
 40
0.3947368421052632
 40
0.3947368421052632
 40
0.4210526315789473
 40
0.4210526315789473
 40
0.4210526315789473
 40
0.4473684210526315
 40
0.4473684210526315
 40
0.4473684210526315
 40
0.4736842105263158
 40
0.4736842105263158
 40
0.4736842105263158
 40
0.5
 40
0.5
 40
0.5
 40
0.5263157894736842
 40
0.5263157894736842
 40
0.5263157894736842
 40
0.5526315789473684
 40
0.5526315789473684
 40
0.5526315789473684
 40
0.5789473684210527
 40
0.5789473684210527
 40
0.5789473684210527
 40
0.6052631578947368
 40
0.6052631578947368
 40
0.6052631578947368
 40
0.631578947368421
 40
0.631578947368421
 40
0.631578947368421
 40
0.6578947368421052
 40
0.6578947368421052
 40
0.6578947368421052
 40
0.6842105263157894
 40
0.6842105263157894
 40
0.6842105263157894
 40
0.7105263157894737
 40
0.7105263157894737
 40
0.7105263157894737
 40
0.7368421052631579
 40
0.7368421052631579
 40
0.7368421052631579
 40
0.763157894736842
 40
0.763157894736842
 40
0.763157894736842
 40
0.7894736842105263
 40
0.7894736842105263
 40
0.7894736842105263
 40
0.8157894736842105
 40
0.8157894736842105
 40
0.8157894736842105
 40
0.8421052631578947
 40
0.8421052631578947
 40
0.8421052631578947
 40
0.8684210526315789
 40
0.8684210526315789
 40
0.8684210526315789
 40
0.894736842105263
 40
0.894736842105263
 40
0.894736842105263
 40
0.9210526315789473
 40
0.9210526315789473
 40
0.9210526315789473
 40
0.9473684210526315
 40
0.9473684210526315
 40
0.9473684210526315
 40
0.9736842105263157
 40
0.9736842105263157
 40
0.9736842105263157
 40
1.0
 40
1.0
 40
1.0
 40
1.0
 10
-110.8964
 20
-77.4063
 30
0.0
 10
-134.8303
 20
-110.2927
 30
0.0
 10
-154.8432
 20
-150.6524
 30
0.0
 10
-167.4367
 20
-190.5552
 30
0.0
 10
-134.3306
 20
-185.3954
 30
0.0
 10
-86.2552
 20
-156.1812
 30
0.0
 10
-52.2649
 20
-109.461
 30
0.0
 10
-40.1099
 20
-92.7498
 30
0.0
 10
-29.7465
 20
-73.8045
 30
0.0
 10
-22.4988
 20
-52.9154
 30
0.0
 10
8.59
 20
-62.7676
 30
0.0
 10
39.0135
 20
-73.3674
 30
0.0
 10
67.666
 20
-83.3979
 30
0.0
 10
75.3034
 20
-86.0713
 30
0.0
 10
82.734
 20
-89.3544
 30
0.0
 10
89.9598
 20
-93.1363
 30
0.0
 10
60.8535
 20
-124.0684
 30
0.0
 10
28.7576
 20
-150.6145
 30
0.0
 10
15.9924
 20
-168.0825
 30
0.0
 10
-10.863
 20
-181.5298
 30
0.0
 10
-37.7262
 20
-193.7297
 30
0.0
 10
-64.9123
 20
-188.2652
 30
0.0
 10
-60.5607
 20
-160.5915
 30
0.0
 10
-87.4777
 20
-151.8413
 30
0.0
 10
-96.2193
 20
-173.8573
 30
0.0
 10
-106.0912
 20
-205.5665
 30
0.0
 10
-96.9497
 20
-231.2898
 30
0.0
 10
-73.9461
 20
-218.4457
 30
0.0
 10
-69.4254
 20
-214.6797
 30
0.0
 10
-67.042
 20
-212.6766
 30
0.0
 10
-65.289
 20
-205.0276
 30
0.0
 10
-42.593
 20
-204.9456
 30
0.0
 10
-19.5048
 20
-206.7904
 30
0.0
 10
2.9299
 20
-199.405
 30
0.0
 10
-39.533
 20
-244.292
 30
0.0
 10
-65.2044
 20
-286.7368
 30
0.0
 10
-95.8426
 20
-341.6391
 30
0.0
 10
-111.5269
 20
-344.9599
 30
0.0
 10
-161.4552
 20
-341.6097
 30
0.0
 10
-174.9406
 20
-320.6714
 30
0.0
 10
-168.9129
 20
-258.4832
 30
0.0
 10
-217.9724
 20
-221.3273
 30
0.0
 10
-234.3178
 20
-273.3245
 30
0.0
 10
-234.4901
 20
-273.8598
 30
0.0
 10
-234.6489
 20
-274.3851
 30
0.0
 10
-234.8151
 20
-274.9159
 30
0.0
 10
-234.8016
 20
-273.8795
 30
0.0
 10
-234.7945
 20
-272.8396
 30
0.0
 10
-234.7945
 20
-271.7958
 30
0.0
 10
-234.7945
 20
-238.2067
 30
0.0
 10
-241.7294
 20
-200.6993
 30
0.0
 10
-255.5608
 20
-159.6075
 30
0.0
 10
-257.7366
 20
-155.0216
 30
0.0
 10
-286.3373
 20
-101.9057
 30
0.0
 10
-315.9376
 20
-110.7085
 30
0.0
 10
-331.6218
 20
-115.2535
 30
0.0
 10
-343.9232
 20
-135.3367
 30
0.0
 10
-352.4573
 20
-170.472
 30
0.0
 10
-353.5798
 20
-175.7023
 30
0.0
 10
-359.2615
 20
-204.2134
 30
0.0
 10
-359.2615
 20
-232.7891
 30
0.0
 10
-359.2615
 20
-250.348
 30
0.0
 10
-357.1319
 20
-267.9069
 30
0.0
 10
-350.4737
 20
-280.2356
 30
0.0
 10
-341.7474
 20
-296.4065
 30
0.0
 10
-328.0468
 20
-299.9206
 30
0.0
 10
-309.7715
 20
-291.4866
 30
0.0
 10
-306.1349
 20
-289.9931
 30
0.0
 10
-303.7208
 20
-284.1246
 30
0.0
 10
-303.7208
 20
-278.1272
 30
0.0
 10
-303.7208
 20
-276.944
 30
0.0
 10
-303.8284
 20
-275.761
 30
0.0
 10
-304.0206
 20
-274.5837
 30
0.0
 10
-305.2123
 20
-266.8292
 30
0.0
 10
-309.7715
 20
-262.6357
 30
0.0
 10
-314.1462
 20
-264.7384
 30
0.0
 10
-322.2882
 20
-268.2466
 30
0.0
 10
-333.198
 20
-271.0755
 30
0.0
 10
-338.3645
 20
-261.5698
 30
0.0
 10
-341.6859
 20
-255.42
 30
0.0
 10
-342.9161
 20
-245.0886
 30
0.0
 10
-342.9161
 20
-233.3689
 30
0.0
 10
-342.9161
 20
-215.5876
 30
0.0
 10
-340.0483
 20
-194.6668
 30
0.0
 10
-337.1805
 20
-180.7099
 30
0.0
 10
-331.0222
 20
-155.3613
 30
0.0
 10
-322.8802
 20
-140.9417
 30
0.0
 10
-313.1621
 20
-138.1187
 30
0.0
 10
-296.0708
 20
-133.199
 30
0.0
 10
-275.2123
 20
-163.801
 30
0.0
 10
-268.6695
 20
-176.1239
 30
0.0
 10
-257.0677
 20
-210.8142
 30
0.0
 10
-251.1477
 20
-242.7165
 30
0.0
 10
-251.1477
 20
-270.8411
 30
0.0
 10
-251.1477
 20
-286.0281
 30
0.0
 10
-252.8699
 20
-300.108
 30
0.0
 10
-256.3604
 20
-312.9346
 30
0.0
 10
-272.0524
 20
-369.9043
 30
0.0
 10
-318.4978
 20
-385.0208
 30
0.0
 10
-318.913
 20
-385.0208
 30
0.0
 10
-352.2651
 20
-393.1092
 30
0.0
 10
-378.4825
 20
-383.949
 30
0.0
 10
-396.7577
 20
-357.2417
 30
0.0
 10
-410.3508
 20
-337.3577
 30
0.0
 10
-415.379
 20
-308.4951
 30
0.0
 10
-416.9935
 20
-284.5111
 30
0.0
 10
-418.6004
 20
-260.5272
 30
0.0
 10
-416.8244
 20
-241.4222
 30
0.0
 10
-416.8244
 20
-241.0766
 30
0.0
 10
-418.5732
 20
11.8835
 30
0.0
 10
-246.2758
 20
9.3446
 30
0.0
 10
-75.4368
 20
-37.2357
 30
0.0
 10
-87.8563
 20
-48.4971
 30
0.0
 10
-99.7957
 20
-62.1485
 30
0.0
 10
-110.8964
 20
-77.4063
 30
0.0
  0
SPLINE
  5
6F
330
1F
100
AcDbEntity
  8
Layer 1
 62
   250
370
    20
100
AcDbSpline
210
0.0
220
0.0
230
1.0
 70
    11
 71
     3
 72
    32
 73
    28
 74
     0
 42
0.0000000001
 43
0.0000000001
 40
0.0
 40
0.0
 40
0.0
 40
0.0
 40
0.1111111111111111
 40
0.1111111111111111
 40
0.1111111111111111
 40
0.2222222222222222
 40
0.2222222222222222
 40
0.2222222222222222
 40
0.3333333333333333
 40
0.3333333333333333
 40
0.3333333333333333
 40
0.4444444444444444
 40
0.4444444444444444
 40
0.4444444444444444
 40
0.5555555555555556
 40
0.5555555555555556
 40
0.5555555555555556
 40
0.6666666666666666
 40
0.6666666666666666
 40
0.6666666666666666
 40
0.7777777777777777
 40
0.7777777777777777
 40
0.7777777777777777
 40
0.8888888888888888
 40
0.8888888888888888
 40
0.8888888888888888
 40
1.0
 40
1.0
 40
1.0
 40
1.0
 10
1025.5865
 20
-205.151
 30
0.0
 10
1027.9127
 20
-206.8662
 30
0.0
 10
1030.2485
 20
-209.3023
 30
0.0
 10
1032.5641
 20
-212.6063
 30
0.0
 10
1043.3432
 20
-227.9923
 30
0.0
 10
1053.3073
 20
-249.3582
 30
0.0
 10
1053.1689
 20
-267.3974
 30
0.0
 10
1075.8112
 20
-273.5705
 30
0.0
 10
1098.0306
 20
-278.1037
 30
0.0
 10
1120.9035
 20
-285.8992
 30
0.0
 10
1124.4709
 20
-206.8842
 30
0.0
 10
1137.3335
 20
-156.9193
 30
0.0
 10
1135.3807
 20
-76.7388
 30
0.0
 10
1128.9071
 20
-105.5487
 30
0.0
 10
1117.3591
 20
-119.529
 30
0.0
 10
1113.6841
 20
-135.7291
 30
0.0
 10
1112.3079
 20
-148.0637
 30
0.0
 10
1104.9193
 20
-157.3644
 30
0.0
 10
1098.1305
 20
-165.564
 30
0.0
 10
1053.8686
 20
-166.1028
 30
0.0
 10
1080.7702
 20
-48.3915
 30
0.0
 10
1108.5559
 20
-103.5281
 30
0.0
 10
1132.5763
 20
-90.1312
 30
0.0
 10
1142.4812
 20
48.4393
 30
0.0
 10
1146.8458
 20
134.8657
 30
0.0
 10
1125.0053
 20
31.3768
 30
0.0
 10
1086.1249
 20
-114.6706
 30
0.0
 10
1025.5865
 20
-205.151
 30
0.0
  0
SPLINE
  5
70
330
1F
100
AcDbEntity
  8
Layer 1
 62
   250
370
    20
100
AcDbSpline
210
0.0
220
0.0
230
1.0
 70
    11
 71
     3
 72
    14
 73
    10
 74
     0
 42
0.0000000001
 43
0.0000000001
 40
0.0
 40
0.0
 40
0.0
 40
0.0
 40
0.3333333333333333
 40
0.3333333333333333
 40
0.3333333333333333
 40
0.6666666666666666
 40
0.6666666666666666
 40
0.6666666666666666
 40
1.0
 40
1.0
 40
1.0
 40
1.0
 10
1199.95
 20
-589.1363
 30
0.0
 10
1199.95
 20
-589.1363
 30
0.0
 10
1199.95
 20
-590.0266
 30
0.0
 10
1199.95
 20
-590.0266
 30
0.0
 10
1199.95
 20
-590.0266
 30
0.0
 10
1196.7785
 20
-590.0266
 30
0.0
 10
1196.7785
 20
-590.0266
 30
0.0
 10
1197.8365
 20
-589.7329
 30
0.0
 10
1198.8938
 20
-589.4363
 30
0.0
 10
1199.95
 20
-589.1363
 30
0.0
  0
ENDSEC
  0
SECTION
  2
OBJECTS
  0
DICTIONARY
  5
C
330
0
100
AcDbDictionary
281
     1
  3
ACAD_DETAILVIEWSTYLE
350
78
  3
ACAD_GROUP
350
D
  3
ACAD_LAYOUT
350
1A
  3
ACAD_MATERIAL
350
43
  3
ACAD_MLEADERSTYLE
350
5B
  3
ACAD_MLINESTYLE
350
17
  3
ACAD_PLOTSETTINGS
350
19
  3
ACAD_PLOTSTYLENAME
350
E
  3
ACAD_SCALELIST
350
47
  3
ACAD_SECTIONVIEWSTYLE
350
79
  3
ACAD_TABLESTYLE
350
59
  3
ACAD_VISUALSTYLE
350
2A
  3
ACDB_RECOMPOSE_DATA
350
75
  3
AcDbVariableDictionary
350
71
  0
SUN
  5
5D
330
29
100
AcDbSun
 90
        1
290
     0
 63
     7
421
 16777215
 40
1.0
291
     1
 91
  2455826
 92
 54000000
292
     0
 70
     2
 71
   256
280
     1
  0
DICTIONARY
  5
78
102
{ACAD_REACTORS
330
C
102
}
330
C
100
AcDbDictionary
281
     1
  0
DICTIONARY
  5
D
102
{ACAD_REACTORS
330
C
102
}
330
C
100
AcDbDictionary
281
     1
  0
DICTIONARY
  5
1A
102
{ACAD_REACTORS
330
C
102
}
330
C
100
AcDbDictionary
281
     1
  3
Layout1
350
1E
  3
Layout2
350
26
  3
Model
350
22
  0
DICTIONARY
  5
43
102
{ACAD_REACTORS
330
C
102
}
330
C
100
AcDbDictionary
281
     1
  3
ByBlock
350
45
  3
ByLayer
350
44
  3
Global
350
46
  0
DICTIONARY
  5
5B
102
{ACAD_REACTORS
330
C
102
}
330
C
100
AcDbDictionary
281
     1
  3
Standard
350
5C
  0
DICTIONARY
  5
17
102
{ACAD_REACTORS
330
C
102
}
330
C
100
AcDbDictionary
281
     1
  3
Standard
350
18
  0
DICTIONARY
  5
19
102
{ACAD_REACTORS
330
C
102
}
330
C
100
AcDbDictionary
281
     1
  0
ACDBDICTIONARYWDFLT
  5
E
102
{ACAD_REACTORS
330
C
102
}
330
C
100
AcDbDictionary
281
     1
  3
Normal
350
F
100
AcDbDictionaryWithDefault
340
F
  0
DICTIONARY
  5
47
102
{ACAD_REACTORS
330
C
102
}
330
C
100
AcDbDictionary
281
     1
  3
A0
350
48
  3
A1
350
49
  3
A2
350
4A
  3
A3
350
4B
  3
A4
350
4C
  3
A5
350
4D
  3
A6
350
4E
  3
A7
350
4F
  3
A8
350
50
  3
A9
350
51
  3
B1
350
52
  3
B2
350
53
  3
B3
350
54
  3
B4
350
55
  3
B5
350
56
  3
B6
350
57
  3
B7
350
58
  0
DICTIONARY
  5
79
102
{ACAD_REACTORS
330
C
102
}
330
C
100
AcDbDictionary
281
     1
  0
DICTIONARY
  5
59
102
{ACAD_REACTORS
330
C
102
}
330
C
100
AcDbDictionary
281
     1
  3
Standard
350
5A
  0
DICTIONARY
  5
2A
102
{ACAD_REACTORS
330
C
102
}
330
C
100
AcDbDictionary
281
     1
  3
2dWireframe
350
2F
  3
Basic
350
32
  3
Brighten
350
36
  3
ColorChange
350
3A
  3
Conceptual
350
34
  3
Dim
350
35
  3
EdgeColorOff
350
3D
  3
Facepattern
350
39
  3
Flat
350
2B
  3
FlatWithEdges
350
2C
  3
Gouraud
350
2D
  3
GouraudWithEdges
350
2E
  3
Hidden
350
31
  3
JitterOff
350
3B
  3
Linepattern
350
38
  3
OverhangOff
350
3C
  3
Realistic
350
33
  3
Shaded
350
42
  3
Shaded with edges
350
41
  3
Shades of Gray
350
3E
  3
Sketchy
350
3F
  3
Thicken
350
37
  3
Wireframe
350
30
  3
X-Ray
350
40
  0
XRECORD
  5
75
102
{ACAD_REACTORS
330
C
102
}
330
C
100
AcDbXrecord
280
     1
 90
        1
330
5A
  0
DICTIONARY
  5
71
102
{ACAD_REACTORS
330
C
102
}
330
C
100
AcDbDictionary
281
     1
  3
CANNOSCALE
350
72
  3
CMLEADERSTYLE
350
77
  3
CTABLESTYLE
350
76
  0
LAYOUT
  5
1E
102
{ACAD_REACTORS
330
1A
102
}
330
1A
100
AcDbPlotSettings
  1

  2
none_device
  4

  6

 40
0.0
 41
0.0
 42
0.0
 43
0.0
 44
0.0
 45
0.0
 46
0.0
 47
0.0
 48
0.0
 49
0.0
140
0.0
141
0.0
142
1.0
143
1.0
 70
   688
 72
     0
 73
     0
 74
     5
  7

 75
    16
 76
     0
 77
     2
 78
   300
147
1.0
148
0.0
149
0.0
100
AcDbLayout
  1
Layout1
 70
     1
 71
     1
 10
0.0
 20
0.0
 11
12.0
 21
9.0
 12
0.0
 22
0.0
 32
0.0
 14
1.000000000000000E+20
 24
1.000000000000000E+20
 34
1.000000000000000E+20
 15
-1.000000000000000E+20
 25
-1.000000000000000E+20
 35
-1.000000000000000E+20
146
0.0
 13
0.0
 23
0.0
 33
0.0
 16
1.0
 26
0.0
 36
0.0
 17
0.0
 27
1.0
 37
0.0
 76
     0
330
1B
  0
LAYOUT
  5
26
102
{ACAD_REACTORS
330
1A
102
}
330
1A
100
AcDbPlotSettings
  1

  2
none_device
  4

  6

 40
0.0
 41
0.0
 42
0.0
 43
0.0
 44
0.0
 45
0.0
 46
0.0
 47
0.0
 48
0.0
 49
0.0
140
0.0
141
0.0
142
1.0
143
1.0
 70
   688
 72
     0
 73
     0
 74
     5
  7

 75
    16
 76
     0
 77
     2
 78
   300
147
1.0
148
0.0
149
0.0
100
AcDbLayout
  1
Layout2
 70
     1
 71
     2
 10
0.0
 20
0.0
 11
0.0
 21
0.0
 12
0.0
 22
0.0
 32
0.0
 14
0.0
 24
0.0
 34
0.0
 15
0.0
 25
0.0
 35
0.0
146
0.0
 13
0.0
 23
0.0
 33
0.0
 16
1.0
 26
0.0
 36
0.0
 17
0.0
 27
1.0
 37
0.0
 76
     0
330
23
  0
LAYOUT
  5
22
102
{ACAD_REACTORS
330
1A
102
}
330
1A
100
AcDbPlotSettings
  1

  2
none_device
  4
Letter_(8.50_x_11.00_Inches)
  6

 40
6.35
 41
6.35
 42
6.35000508
 43
6.35000508
 44
215.9
 45
279.4
 46
0.0
 47
0.0
 48
0.0
 49
0.0
140
0.0
141
0.0
142
1.0
143
1.0
 70
  1712
 72
     0
 73
     0
 74
     0
  7

 75
     0
 76
     0
 77
     2
 78
   300
147
1.0
148
0.0
149
0.0
100
AcDbLayout
  1
Model
 70
     1
 71
     0
 10
0.0
 20
0.0
 11
12.0
 21
9.0
 12
0.0
 22
0.0
 32
0.0
 14
-1200.15
 24
-590.1266
 34
0.0
 15
1200.05
 25
590.0734
 35
0.0
146
0.0
 13
0.0
 23
0.0
 33
0.0
 16
1.0
 26
0.0
 36
0.0
 17
0.0
 27
1.0
 37
0.0
 76
     0
330
1F
331
29
  0
MATERIAL
  5
45
102
{ACAD_REACTORS
330
43
102
}
330
43
100
AcDbMaterial
  1
ByBlock
 72
     1
 94
      127
  0
MATERIAL
  5
44
102
{ACAD_REACTORS
330
43
102
}
330
43
100
AcDbMaterial
  1
ByLayer
 72
     1
 94
      127
  0
MATERIAL
  5
46
102
{ACAD_REACTORS
330
43
102
}
330
43
100
AcDbMaterial
  1
Global
 72
     1
 94
      127
  0
MLEADERSTYLE
  5
5C
102
{ACAD_REACTORS
330
5B
102
}
330
5B
100
AcDbMLeaderStyle
179
     2
170
     2
171
     1
172
     0
 90
        2
 40
0.0
 41
0.0
173
     1
 91
-1056964608
340
14
 92
       -2
290
     1
 42
0.09
291
     1
 43
0.36
  3
Standard
341
0
 44
0.18
300

342
11
174
     1
178
     6
175
     1
176
     0
 93
-1056964608
 45
0.18
292
     0
297
     0
 46
0.18
343
0
 94
-1056964608
 47
1.0
 49
1.0
140
1.0
293
     1
141
0.0
294
     1
177
     0
142
1.0
295
     0
296
     0
143
0.125
271
     0
272
     9
273
     9
298
     0
  0
MLINESTYLE
  5
18
102
{ACAD_REACTORS
330
17
102
}
330
17
100
AcDbMlineStyle
  2
Standard
 70
     0
  3

 62
   256
 51
90.0
 52
90.0
 71
     2
 49
0.5
 62
   256
  6
BYLAYER
 49
-0.5
 62
   256
  6
BYLAYER
  0
ACDBPLACEHOLDER
  5
F
102
{ACAD_REACTORS
330
E
102
}
330
E
  0
SCALE
  5
48
102
{ACAD_REACTORS
330
47
102
}
330
47
100
AcDbScale
 70
     0
300
1:1
140
1.0
141
1.0
290
     1
  0
SCALE
  5
49
102
{ACAD_REACTORS
330
47
102
}
330
47
100
AcDbScale
 70
     0
300
1/128" = 1'-0"
140
0.0078125
141
12.0
290
     0
  0
SCALE
  5
4A
102
{ACAD_REACTORS
330
47
102
}
330
47
100
AcDbScale
 70
     0
300
1/64" = 1'-0"
140
0.015625
141
12.0
290
     0
  0
SCALE
  5
4B
102
{ACAD_REACTORS
330
47
102
}
330
47
100
AcDbScale
 70
     0
300
1/32" = 1'-0"
140
0.03125
141
12.0
290
     0
  0
SCALE
  5
4C
102
{ACAD_REACTORS
330
47
102
}
330
47
100
AcDbScale
 70
     0
300
1/16" = 1'-0"
140
0.0625
141
12.0
290
     0
  0
SCALE
  5
4D
102
{ACAD_REACTORS
330
47
102
}
330
47
100
AcDbScale
 70
     0
300
3/32" = 1'-0"
140
0.09375
141
12.0
290
     0
  0
SCALE
  5
4E
102
{ACAD_REACTORS
330
47
102
}
330
47
100
AcDbScale
 70
     0
300
1/8" = 1'-0"
140
0.125
141
12.0
290
     0
  0
SCALE
  5
4F
102
{ACAD_REACTORS
330
47
102
}
330
47
100
AcDbScale
 70
     0
300
3/16" = 1'-0"
140
0.1875
141
12.0
290
     0
  0
SCALE
  5
50
102
{ACAD_REACTORS
330
47
102
}
330
47
100
AcDbScale
 70
     0
300
1/4" = 1'-0"
140
0.25
141
12.0
290
     0
  0
SCALE
  5
51
102
{ACAD_REACTORS
330
47
102
}
330
47
100
AcDbScale
 70
     0
300
3/8" = 1'-0"
140
0.375
141
12.0
290
     0
  0
SCALE
  5
52
102
{ACAD_REACTORS
330
47
102
}
330
47
100
AcDbScale
 70
     0
300
1/2" = 1'-0"
140
0.5
141
12.0
290
     0
  0
SCALE
  5
53
102
{ACAD_REACTORS
330
47
102
}
330
47
100
AcDbScale
 70
     0
300
3/4" = 1'-0"
140
0.75
141
12.0
290
     0
  0
SCALE
  5
54
102
{ACAD_REACTORS
330
47
102
}
330
47
100
AcDbScale
 70
     0
300
1" = 1'-0"
140
1.0
141
12.0
290
     0
  0
SCALE
  5
55
102
{ACAD_REACTORS
330
47
102
}
330
47
100
AcDbScale
 70
     0
300
1-1/2" = 1'-0"
140
1.5
141
12.0
290
     0
  0
SCALE
  5
56
102
{ACAD_REACTORS
330
47
102
}
330
47
100
AcDbScale
 70
     0
300
3" = 1'-0"
140
3.0
141
12.0
290
     0
  0
SCALE
  5
57
102
{ACAD_REACTORS
330
47
102
}
330
47
100
AcDbScale
 70
     0
300
6" = 1'-0"
140
6.0
141
12.0
290
     0
  0
SCALE
  5
58
102
{ACAD_REACTORS
330
47
102
}
330
47
100
AcDbScale
 70
     0
300
1'-0" = 1'-0"
140
12.0
141
12.0
290
     0
  0
TABLESTYLE
  5
5A
102
{ACAD_REACTORS
330
59
102
}
102
{ACAD_XDICTIONARY
360
73
102
}
330
59
100
AcDbTableStyle
  3
Standard
 70
     0
 71
     0
 40
0.06
 41
0.06
280
     0
281
     0
  7
Standard
140
0.18
170
     2
 62
     0
 63
   257
283
     0
 90
        4
 91
        0
  1

274
    -2
284
     1
 64
     0
275
    -2
285
     1
 65
     0
276
    -2
286
     1
 66
     0
277
    -2
287
     1
 67
     0
278
    -2
288
     1
 68
     0
279
    -2
289
     1
 69
     0
  7
Standard
140
0.25
170
     5
 62
     0
 63
   257
283
     0
 90
        4
 91
        0
  1

274
    -2
284
     1
 64
     0
275
    -2
285
     1
 65
     0
276
    -2
286
     1
 66
     0
277
    -2
287
     1
 67
     0
278
    -2
288
     1
 68
     0
279
    -2
289
     1
 69
     0
  7
Standard
140
0.18
170
     5
 62
     0
 63
   257
283
     0
 90
        4
 91
        0
  1

274
    -2
284
     1
 64
     0
275
    -2
285
     1
 65
     0
276
    -2
286
     1
 66
     0
277
    -2
287
     1
 67
     0
278
    -2
288
     1
 68
     0
279
    -2
289
     1
 69
     0
  0
VISUALSTYLE
  5
2F
102
{ACAD_REACTORS
330
2A
102
}
330
2A
100
AcDbVisualStyle
  2
2dWireframe
 70
     4
177
     3
291
     0
 70
    58
 90
        0
176
     1
 90
        2
176
     1
 90
        0
176
     1
 90
        0
176
     1
 40
0.6
176
     1
 40
30.0
176
     1
 62
     7
420
 16777215
176
     1
 90
        1
176
     1
 90
        4
176
     1
 62
     7
176
     1
 62
   257
176
     1
 90
        1
176
     1
 90
        1
176
     1
 40
1.0
176
     1
 90
        0
176
     1
 62
   257
176
     1
 40
1.0
176
     1
 90
        1
176
     1
 90
        6
176
     1
 90
        2
176
     1
 62
     7
176
     1
 90
        5
176
     1
 90
        0
176
     1
 90
        0
176
     1
290
     0
176
     1
 90
        1
176
     1
 40
0.0
176
     1
 90
        0
176
     1
290
     1
176
     1
290
     1
176
     1
290
     0
176
     1
290
     0
176
     1
290
     0
176
     1
290
     0
176
     1
290
     0
176
     1
290
     0
176
     1
290
     0
176
     1
 90
       50
176
     1
 40
0.0
176
     1
 40
1.0
176
     1
 90
        0
176
     1
 62
    18
420
        0
176
     1
 90
       50
176
     1
 90
        3
176
     1
 62
     5
420
      255
176
     1
290
     0
176
     1
 90
       50
176
     1
 90
       50
176
     1
 90
       50
176
     1
290
     0
176
     1
 90
       50
176
     1
 62
   256
176
     0
 40
1.0
176
     0
 90
        2
176
     1
  1
strokes_ogs.tif
176
     1
290
     0
176
     1
 40
1.0
176
     1
 40
1.0
176
     1
  0
VISUALSTYLE
  5
32
102
{ACAD_REACTORS
330
2A
102
}
330
2A
100
AcDbVisualStyle
  2
Basic
 70
     7
177
     3
291
     1
 70
    58
 90
        1
176
     1
 90
        0
176
     1
 90
        1
176
     1
 90
        0
176
     1
 40
0.6
176
     1
 40
30.0
176
     1
 62
     7
420
 16777215
176
     1
 90
        0
176
     1
 90
        4
176
     1
 62
     7
176
     1
 62
   257
176
     1
 90
        1
176
     1
 90
        1
176
     1
 40
1.0
176
     1
 90
        8
176
     1
 62
     7
176
     1
 40
1.0
176
     1
 90
        1
176
     1
 90
        6
176
     1
 90
        2
176
     1
 62
     7
176
     1
 90
        5
176
     1
 90
        0
176
     1
 90
        0
176
     1
290
     0
176
     1
 90
        1
176
     1
 40
0.0
176
     1
 90
        0
176
     1
290
     0
176
     1
290
     1
176
     1
290
     1
176
     1
290
     0
176
     1
290
     0
176
     1
290
     0
176
     1
290
     0
176
     1
290
     0
176
     1
290
     0
176
     1
 90
       50
176
     1
 40
0.0
176
     1
 40
1.0
176
     1
 90
        0
176
     1
 62
    18
420
        0
176
     1
 90
       50
176
     1
 90
        3
176
     1
 62
     5
420
      255
176
     1
290
     0
176
     1
 90
       50
176
     1
 90
       50
176
     1
 90
       50
176
     1
290
     0
176
     1
 90
       50
176
     1
 62
   256
176
     0
 40
1.0
176
     0
 90
        2
176
     1
  1
strokes_ogs.tif
176
     1
290
     0
176
     1
 40
1.0
176
     1
 40
1.0
176
     1
  0
VISUALSTYLE
  5
36
102
{ACAD_REACTORS
330
2A
102
}
330
2A
100
AcDbVisualStyle
  2
Brighten
 70
    12
177
     3
291
     1
 70
    58
 90
        2
176
     1
 90
        2
176
     1
 90
        0
176
     1
 90
        0
176
     1
 40
0.6
176
     1
 40
30.0
176
     1
 62
     7
420
 16777215
176
     1
 90
        1
176
     1
 90
        4
176
     1
 62
     7
176
     1
 62
   257
176
     1
 90
        1
176
     1
 90
        1
176
     1
 40
1.0
176
     1
 90
        8
176
     1
 62
     7
176
     1
 40
1.0
176
     1
 90
        1
176
     1
 90
        6
176
     1
 90
        2
176
     1
 62
     7
176
     1
 90
        5
176
     1
 90
        0
176
     1
 90
        0
176
     1
290
     0
176
     1
 90
        1
176
     1
 40
50.0
176
     1
 90
        0
176
     1
290
     0
176
     1
290
     1
176
     1
290
     1
176
     1
290
     0
176
     1
290
     0
176
     1
290
     0
176
     1
290
     0
176
     1
290
     0
176
     1
290
     0
176
     1
 90
       50
176
     1
 40
0.0
176
     1
 40
1.0
176
     1
 90
        0
176
     1
 62
    18
420
        0
176
     1
 90
       50
176
     1
 90
        3
176
     1
 62
     5
420
      255
176
     1
290
     0
176
     1
 90
       50
176
     1
 90
       50
176
     1
 90
       50
176
     1
290
     0
176
     1
 90
       50
176
     1
 62
   256
176
     0
 40
1.0
176
     0
 90
        2
176
     1
  1
strokes_ogs.tif
176
     1
290
     0
176
     1
 40
1.0
176
     1
 40
1.0
176
     1
  0
VISUALSTYLE
  5
3A
102
{ACAD_REACTORS
330
2A
102
}
330
2A
100
AcDbVisualStyle
  2
ColorChange
 70
    16
177
     3
291
     1
 70
    58
 90
        2
176
     1
 90
        2
176
     1
 90
        3
176
     1
 90
        0
176
     1
 40
0.6
176
     1
 40
30.0
176
     1
 62
     8
420
  8421504
176
     1
 90
        1
176
     1
 90
        4
176
     1
 62
     7
176
     1
 62
   257
176
     1
 90
        1
176
     1
 90
        1
176
     1
 40
1.0
176
     1
 90
        8
176
     1
 62
     8
420
  8421504
176
     1
 40
1.0
176
     1
 90
        1
176
     1
 90
        6
176
     1
 90
        2
176
     1
 62
     7
176
     1
 90
        5
176
     1
 90
        0
176
     1
 90
        0
176
     1
290
     0
176
     1
 90
        1
176
     1
 40
0.0
176
     1
 90
        0
176
     1
290
     0
176
     1
290
     1
176
     1
290
     1
176
     1
290
     0
176
     1
290
     0
176
     1
290
     0
176
     1
290
     0
176
     1
290
     0
176
     1
290
     0
176
     1
 90
       50
176
     1
 40
0.0
176
     1
 40
1.0
176
     1
 90
        0
176
     1
 62
    18
420
        0
176
     1
 90
       50
176
     1
 90
        3
176
     1
 62
     5
420
      255
176
     1
290
     0
176
     1
 90
       50
176
     1
 90
       50
176
     1
 90
       50
176
     1
290
     0
176
     1
 90
       50
176
     1
 62
   256
176
     0
 40
1.0
176
     0
 90
        2
176
     1
  1
strokes_ogs.tif
176
     1
290
     0
176
     1
 40
1.0
176
     1
 40
1.0
176
     1
  0
VISUALSTYLE
  5
34
102
{ACAD_REACTORS
330
2A
102
}
330
2A
100
AcDbVisualStyle
  2
Conceptual
 70
     9
177
     3
291
     0
 70
    58
 90
        3
176
     1
 90
        2
176
     1
 90
        0
176
     1
 90
        0
176
     1
 40
0.6
176
     1
 40
30.0
176
     1
 62
     7
420
 16777215
176
     1
 90
        2
176
     1
 90
        2
176
     1
 62
     7
176
     1
 62
   257
176
     1
 90
        1
176
     1
 90
        1
176
     1
 40
179.0
176
     1
 90
        8
176
     1
 62
     7
176
     1
 40
1.0
176
     1
 90
        1
176
     1
 90
        6
176
     1
 90
        2
176
     1
 62
     7
176
     1
 90
        3
176
     1
 90
        0
176
     1
 90
        0
176
     1
290
     0
176
     1
 90
        1
176
     1
 40
0.0
176
     1
 90
        0
176
     1
290
     0
176
     1
290
     1
176
     1
290
     1
176
     1
290
     0
176
     1
290
     0
176
     1
290
     0
176
     1
290
     0
176
     1
290
     0
176
     1
290
     0
176
     1
 90
       50
176
     1
 40
0.0
176
     1
 40
1.0
176
     1
 90
        0
176
     1
 62
    18
420
        0
176
     1
 90
       50
176
     1
 90
        3
176
     1
 62
     5
420
      255
176
     1
290
     0
176
     1
 90
       50
176
     1
 90
       50
176
     1
 90
       50
176
     1
290
     0
176
     1
 90
       50
176
     1
 62
   256
176
     0
 40
1.0
176
     0
 90
        2
176
     1
  1
strokes_ogs.tif
176
     1
290
     0
176
     1
 40
1.0
176
     1
 40
1.0
176
     1
  0
VISUALSTYLE
  5
35
102
{ACAD_REACTORS
330
2A
102
}
330
2A
100
AcDbVisualStyle
  2
Dim
 70
    11
177
     3
291
     1
 70
    58
 90
        2
176
     1
 90
        2
176
     1
 90
        0
176
     1
 90
        0
176
     1
 40
0.6
176
     1
 40
30.0
176
     1
 62
     7
420
 16777215
176
     1
 90
        1
176
     1
 90
        4
176
     1
 62
     7
176
     1
 62
   257
176
     1
 90
        1
176
     1
 90
        1
176
     1
 40
1.0
176
     1
 90
        8
176
     1
 62
     7
176
     1
 40
1.0
176
     1
 90
        1
176
     1
 90
        6
176
     1
 90
        2
176
     1
 62
     7
176
     1
 90
        5
176
     1
 90
        0
176
     1
 90
        0
176
     1
290
     0
176
     1
 90
        1
176
     1
 40
-50.0
176
     1
 90
        0
176
     1
290
     0
176
     1
290
     1
176
     1
290
     1
176
     1
290
     0
176
     1
290
     0
176
     1
290
     0
176
     1
290
     0
176
     1
290
     0
176
     1
290
     0
176
     1
 90
       50
176
     1
 40
0.0
176
     1
 40
1.0
176
     1
 90
        0
176
     1
 62
    18
420
        0
176
     1
 90
       50
176
     1
 90
        3
176
     1
 62
     5
420
      255
176
     1
290
     0
176
     1
 90
       50
176
     1
 90
       50
176
     1
 90
       50
176
     1
290
     0
176
     1
 90
       50
176
     1
 62
   256
176
     0
 40
1.0
176
     0
 90
        2
176
     1
  1
strokes_ogs.tif
176
     1
290
     0
176
     1
 40
1.0
176
     1
 40
1.0
176
     1
  0
VISUALSTYLE
  5
3D
102
{ACAD_REACTORS
330
2A
102
}
330
2A
100
AcDbVisualStyle
  2
EdgeColorOff
 70
    22
177
     3
291
     1
 70
    58
 90
        2
176
     0
 90
        2
176
     0
 90
        0
176
     0
 90
        0
176
     0
 40
0.6
176
     0
 40
30.0
176
     0
 62
     7
420
 16777215
176
     0
 90
        1
176
     0
 90
        4
176
     0
 62
     7
176
     0
 62
   257
176
     0
 90
        1
176
     0
 90
        1
176
     0
 40
1.0
176
     0
 90
        8
176
     2
 62
     7
176
     0
 40
1.0
176
     0
 90
        1
176
     0
 90
        6
176
     0
 90
        2
176
     0
 62
     7
176
     0
 90
        5
176
     0
 90
        0
176
     0
 90
        0
176
     0
290
     0
176
     0
 90
        1
176
     0
 40
0.0
176
     0
 90
        0
176
     0
290
     0
176
     0
290
     1
176
     0
290
     1
176
     0
290
     0
176
     0
290
     0
176
     0
290
     0
176
     0
290
     0
176
     0
290
     0
176
     0
290
     0
176
     0
 90
       50
176
     0
 40
0.0
176
     0
 40
1.0
176
     0
 90
        0
176
     0
 62
    18
420
        0
176
     0
 90
       50
176
     0
 90
        3
176
     0
 62
     5
420
      255
176
     0
290
     0
176
     0
 90
       50
176
     0
 90
       50
176
     0
 90
       50
176
     0
290
     0
176
     0
 90
       50
176
     0
 62
   256
176
     0
 40
1.0
176
     0
 90
        2
176
     0
  1
strokes_ogs.tif
176
     0
290
     0
176
     0
 40
1.0
176
     0
 40
1.0
176
     0
  0
VISUALSTYLE
  5
39
102
{ACAD_REACTORS
330
2A
102
}
330
2A
100
AcDbVisualStyle
  2
Facepattern
 70
    15
177
     3
291
     1
 70
    58
 90
        2
176
     1
 90
        2
176
     1
 90
        0
176
     1
 90
        0
176
     1
 40
0.6
176
     1
 40
30.0
176
     1
 62
     7
420
 16777215
176
     1
 90
        1
176
     1
 90
        4
176
     1
 62
     7
176
     1
 62
   257
176
     1
 90
        1
176
     1
 90
        1
176
     1
 40
1.0
176
     1
 90
        8
176
     1
 62
     7
176
     1
 40
1.0
176
     1
 90
        1
176
     1
 90
        6
176
     1
 90
        2
176
     1
 62
     7
176
     1
 90
        5
176
     1
 90
        0
176
     1
 90
        0
176
     1
290
     0
176
     1
 90
        1
176
     1
 40
0.0
176
     1
 90
        0
176
     1
290
     0
176
     1
290
     1
176
     1
290
     1
176
     1
290
     0
176
     1
290
     0
176
     1
290
     0
176
     1
290
     0
176
     1
290
     0
176
     1
290
     0
176
     1
 90
       50
176
     1
 40
0.0
176
     1
 40
1.0
176
     1
 90
        0
176
     1
 62
    18
420
        0
176
     1
 90
       50
176
     1
 90
        3
176
     1
 62
     5
420
      255
176
     1
290
     0
176
     1
 90
       50
176
     1
 90
       50
176
     1
 90
       50
176
     1
290
     0
176
     1
 90
       50
176
     1
 62
   256
176
     0
 40
1.0
176
     0
 90
        2
176
     1
  1
strokes_ogs.tif
176
     1
290
     0
176
     1
 40
1.0
176
     1
 40
1.0
176
     1
  0
VISUALSTYLE
  5
2B
102
{ACAD_REACTORS
330
2A
102
}
330
2A
100
AcDbVisualStyle
  2
Flat
 70
     0
177
     3
291
     1
 70
    58
 90
        2
176
     1
 90
        1
176
     1
 90
        1
176
     1
 90
        2
176
     1
 40
0.6
176
     1
 40
30.0
176
     1
 62
     7
420
 16777215
176
     1
 90
        0
176
     1
 90
        0
176
     1
 62
     7
176
     1
 62
   257
176
     1
 90
        1
176
     1
 90
        1
176
     1
 40
1.0
176
     1
 90
        8
176
     1
 62
     7
176
     1
 40
1.0
176
     1
 90
        1
176
     1
 90
        6
176
     1
 90
        2
176
     1
 62
     7
176
     1
 90
        5
176
     1
 90
        0
176
     1
 90
        0
176
     1
290
     0
176
     1
 90
       13
176
     1
 40
0.0
176
     1
 90
        0
176
     1
290
     0
176
     1
290
     1
176
     1
290
     1
176
     1
290
     0
176
     1
290
     0
176
     1
290
     0
176
     1
290
     0
176
     1
290
     0
176
     1
290
     0
176
     1
 90
       50
176
     1
 40
0.0
176
     1
 40
1.0
176
     1
 90
        0
176
     1
 62
    18
420
        0
176
     1
 90
       50
176
     1
 90
        3
176
     1
 62
     5
420
      255
176
     1
290
     0
176
     1
 90
       50
176
     1
 90
       50
176
     1
 90
       50
176
     1
290
     0
176
     1
 90
       50
176
     1
 62
   256
176
     0
 40
1.0
176
     0
 90
        2
176
     1
  1
strokes_ogs.tif
176
     1
290
     0
176
     1
 40
1.0
176
     1
 40
1.0
176
     1
  0
VISUALSTYLE
  5
2C
102
{ACAD_REACTORS
330
2A
102
}
330
2A
100
AcDbVisualStyle
  2
FlatWithEdges
 70
     1
177
     3
291
     1
 70
    58
 90
        2
176
     1
 90
        1
176
     1
 90
        1
176
     1
 90
        2
176
     1
 40
0.6
176
     1
 40
30.0
176
     1
 62
     7
420
 16777215
176
     1
 90
        1
176
     1
 90
        0
176
     1
 62
     7
176
     1
 62
   257
176
     1
 90
        1
176
     1
 90
        1
176
     1
 40
1.0
176
     1
 90
        0
176
     1
 62
   257
176
     1
 40
1.0
176
     1
 90
        1
176
     1
 90
        6
176
     1
 90
        2
176
     1
 62
     7
176
     1
 90
        5
176
     1
 90
        0
176
     1
 90
        0
176
     1
290
     0
176
     1
 90
       13
176
     1
 40
0.0
176
     1
 90
        0
176
     1
290
     0
176
     1
290
     1
176
     1
290
     1
176
     1
290
     0
176
     1
290
     0
176
     1
290
     0
176
     1
290
     0
176
     1
290
     0
176
     1
290
     0
176
     1
 90
       50
176
     1
 40
0.0
176
     1
 40
1.0
176
     1
 90
        0
176
     1
 62
    18
420
        0
176
     1
 90
       50
176
     1
 90
        3
176
     1
 62
     5
420
      255
176
     1
290
     0
176
     1
 90
       50
176
     1
 90
       50
176
     1
 90
       50
176
     1
290
     0
176
     1
 90
       50
176
     1
 62
   256
176
     0
 40
1.0
176
     0
 90
        2
176
     1
  1
strokes_ogs.tif
176
     1
290
     0
176
     1
 40
1.0
176
     1
 40
1.0
176
     1
  0
VISUALSTYLE
  5
2D
102
{ACAD_REACTORS
330
2A
102
}
330
2A
100
AcDbVisualStyle
  2
Gouraud
 70
     2
177
     3
291
     1
 70
    58
 90
        2
176
     1
 90
        2
176
     1
 90
        1
176
     1
 90
        2
176
     1
 40
0.6
176
     1
 40
30.0
176
     1
 62
     7
420
 16777215
176
     1
 90
        0
176
     1
 90
        0
176
     1
 62
     7
176
     1
 62
   257
176
     1
 90
        1
176
     1
 90
        1
176
     1
 40
1.0
176
     1
 90
        0
176
     1
 62
     7
176
     1
 40
1.0
176
     1
 90
        1
176
     1
 90
        6
176
     1
 90
        2
176
     1
 62
     7
176
     1
 90
        5
176
     1
 90
        0
176
     1
 90
        0
176
     1
290
     0
176
     1
 90
       13
176
     1
 40
0.0
176
     1
 90
        0
176
     1
290
     0
176
     1
290
     1
176
     1
290
     1
176
     1
290
     0
176
     1
290
     0
176
     1
290
     0
176
     1
290
     0
176
     1
290
     0
176
     1
290
     0
176
     1
 90
       50
176
     1
 40
0.0
176
     1
 40
1.0
176
     1
 90
        0
176
     1
 62
    18
420
        0
176
     1
 90
       50
176
     1
 90
        3
176
     1
 62
     5
420
      255
176
     1
290
     0
176
     1
 90
       50
176
     1
 90
       50
176
     1
 90
       50
176
     1
290
     0
176
     1
 90
       50
176
     1
 62
   256
176
     0
 40
1.0
176
     0
 90
        2
176
     1
  1
strokes_ogs.tif
176
     1
290
     0
176
     1
 40
1.0
176
     1
 40
1.0
176
     1
  0
VISUALSTYLE
  5
2E
102
{ACAD_REACTORS
330
2A
102
}
330
2A
100
AcDbVisualStyle
  2
GouraudWithEdges
 70
     3
177
     3
291
     1
 70
    58
 90
        2
176
     1
 90
        2
176
     1
 90
        1
176
     1
 90
        2
176
     1
 40
0.6
176
     1
 40
30.0
176
     1
 62
     7
420
 16777215
176
     1
 90
        1
176
     1
 90
        0
176
     1
 62
     7
176
     1
 62
   257
176
     1
 90
        1
176
     1
 90
        1
176
     1
 40
1.0
176
     1
 90
        0
176
     1
 62
   257
176
     1
 40
1.0
176
     1
 90
        1
176
     1
 90
        6
176
     1
 90
        2
176
     1
 62
     7
176
     1
 90
        5
176
     1
 90
        0
176
     1
 90
        0
176
     1
290
     0
176
     1
 90
       13
176
     1
 40
0.0
176
     1
 90
        0
176
     1
290
     0
176
     1
290
     1
176
     1
290
     1
176
     1
290
     0
176
     1
290
     0
176
     1
290
     0
176
     1
290
     0
176
     1
290
     0
176
     1
290
     0
176
     1
 90
       50
176
     1
 40
0.0
176
     1
 40
1.0
176
     1
 90
        0
176
     1
 62
    18
420
        0
176
     1
 90
       50
176
     1
 90
        3
176
     1
 62
     5
420
      255
176
     1
290
     0
176
     1
 90
       50
176
     1
 90
       50
176
     1
 90
       50
176
     1
290
     0
176
     1
 90
       50
176
     1
 62
   256
176
     0
 40
1.0
176
     0
 90
        2
176
     1
  1
strokes_ogs.tif
176
     1
290
     0
176
     1
 40
1.0
176
     1
 40
1.0
176
     1
  0
VISUALSTYLE
  5
31
102
{ACAD_REACTORS
330
2A
102
}
330
2A
100
AcDbVisualStyle
  2
Hidden
 70
     6
177
     3
291
     0
 70
    58
 90
        1
176
     1
 90
        2
176
     1
 90
        2
176
     1
 90
        0
176
     1
 40
0.6
176
     1
 40
30.0
176
     1
 62
     7
420
 16777215
176
     1
 90
        2
176
     1
 90
        2
176
     1
 62
     7
176
     1
 62
   257
176
     1
 90
        2
176
     1
 90
        1
176
     1
 40
40.0
176
     1
 90
        0
176
     1
 62
   257
176
     1
 40
1.0
176
     1
 90
        1
176
     1
 90
        6
176
     1
 90
        2
176
     1
 62
     7
176
     1
 90
        3
176
     1
 90
        0
176
     1
 90
        0
176
     1
290
     0
176
     1
 90
        1
176
     1
 40
0.0
176
     1
 90
        0
176
     1
290
     0
176
     1
290
     1
176
     1
290
     1
176
     1
290
     0
176
     1
290
     0
176
     1
290
     0
176
     1
290
     0
176
     1
290
     0
176
     1
290
     0
176
     1
 90
       50
176
     1
 40
0.0
176
     1
 40
1.0
176
     1
 90
        0
176
     1
 62
    18
420
        0
176
     1
 90
       50
176
     1
 90
        3
176
     1
 62
     5
420
      255
176
     1
290
     0
176
     1
 90
       50
176
     1
 90
       50
176
     1
 90
       50
176
     1
290
     0
176
     1
 90
       50
176
     1
 62
   256
176
     0
 40
1.0
176
     0
 90
        2
176
     1
  1
strokes_ogs.tif
176
     1
290
     0
176
     1
 40
1.0
176
     1
 40
1.0
176
     1
  0
VISUALSTYLE
  5
3B
102
{ACAD_REACTORS
330
2A
102
}
330
2A
100
AcDbVisualStyle
  2
JitterOff
 70
    20
177
     3
291
     1
 70
    58
 90
        2
176
     0
 90
        2
176
     0
 90
        0
176
     0
 90
        0
176
     0
 40
0.6
176
     0
 40
30.0
176
     0
 62
     7
420
 16777215
176
     0
 90
        1
176
     0
 90
        4
176
     0
 62
     7
176
     0
 62
   257
176
     0
 90
        1
176
     0
 90
        1
176
     0
 40
1.0
176
     0
 90
       10
176
     2
 62
     7
176
     0
 40
1.0
176
     0
 90
        1
176
     0
 90
        6
176
     0
 90
        2
176
     0
 62
     7
176
     0
 90
        5
176
     0
 90
        0
176
     0
 90
        0
176
     0
290
     0
176
     0
 90
        1
176
     0
 40
0.0
176
     0
 90
        0
176
     0
290
     0
176
     0
290
     1
176
     0
290
     1
176
     0
290
     0
176
     0
290
     0
176
     0
290
     0
176
     0
290
     0
176
     0
290
     0
176
     0
290
     0
176
     0
 90
       50
176
     0
 40
0.0
176
     0
 40
1.0
176
     0
 90
        0
176
     0
 62
    18
420
        0
176
     0
 90
       50
176
     0
 90
        3
176
     0
 62
     5
420
      255
176
     0
290
     0
176
     0
 90
       50
176
     0
 90
       50
176
     0
 90
       50
176
     0
290
     0
176
     0
 90
       50
176
     0
 62
   256
176
     0
 40
1.0
176
     0
 90
        2
176
     0
  1
strokes_ogs.tif
176
     0
290
     0
176
     0
 40
1.0
176
     0
 40
1.0
176
     0
  0
VISUALSTYLE
  5
38
102
{ACAD_REACTORS
330
2A
102
}
330
2A
100
AcDbVisualStyle
  2
Linepattern
 70
    14
177
     3
291
     1
 70
    58
 90
        2
176
     1
 90
        2
176
     1
 90
        0
176
     1
 90
        0
176
     1
 40
0.6
176
     1
 40
30.0
176
     1
 62
     7
420
 16777215
176
     1
 90
        1
176
     1
 90
        4
176
     1
 62
     7
176
     1
 62
   257
176
     1
 90
        7
176
     1
 90
        7
176
     1
 40
1.0
176
     1
 90
        8
176
     1
 62
     7
176
     1
 40
1.0
176
     1
 90
        1
176
     1
 90
        6
176
     1
 90
        2
176
     1
 62
     7
176
     1
 90
        5
176
     1
 90
        0
176
     1
 90
        0
176
     1
290
     0
176
     1
 90
        1
176
     1
 40
0.0
176
     1
 90
        0
176
     1
290
     0
176
     1
290
     1
176
     1
290
     1
176
     1
290
     0
176
     1
290
     0
176
     1
290
     0
176
     1
290
     0
176
     1
290
     0
176
     1
290
     0
176
     1
 90
       50
176
     1
 40
0.0
176
     1
 40
1.0
176
     1
 90
        0
176
     1
 62
    18
420
        0
176
     1
 90
       50
176
     1
 90
        3
176
     1
 62
     5
420
      255
176
     1
290
     0
176
     1
 90
       50
176
     1
 90
       50
176
     1
 90
       50
176
     1
290
     0
176
     1
 90
       50
176
     1
 62
   256
176
     0
 40
1.0
176
     0
 90
        2
176
     1
  1
strokes_ogs.tif
176
     1
290
     0
176
     1
 40
1.0
176
     1
 40
1.0
176
     1
  0
VISUALSTYLE
  5
3C
102
{ACAD_REACTORS
330
2A
102
}
330
2A
100
AcDbVisualStyle
  2
OverhangOff
 70
    21
177
     3
291
     1
 70
    58
 90
        2
176
     0
 90
        2
176
     0
 90
        0
176
     0
 90
        0
176
     0
 40
0.6
176
     0
 40
30.0
176
     0
 62
     7
420
 16777215
176
     0
 90
        1
176
     0
 90
        4
176
     0
 62
     7
176
     0
 62
   257
176
     0
 90
        1
176
     0
 90
        1
176
     0
 40
1.0
176
     0
 90
        9
176
     2
 62
     7
176
     0
 40
1.0
176
     0
 90
        1
176
     0
 90
        6
176
     0
 90
        2
176
     0
 62
     7
176
     0
 90
        5
176
     0
 90
        0
176
     0
 90
        0
176
     0
290
     0
176
     0
 90
        1
176
     0
 40
0.0
176
     0
 90
        0
176
     0
290
     0
176
     0
290
     1
176
     0
290
     1
176
     0
290
     0
176
     0
290
     0
176
     0
290
     0
176
     0
290
     0
176
     0
290
     0
176
     0
290
     0
176
     0
 90
       50
176
     0
 40
0.0
176
     0
 40
1.0
176
     0
 90
        0
176
     0
 62
    18
420
        0
176
     0
 90
       50
176
     0
 90
        3
176
     0
 62
     5
420
      255
176
     0
290
     0
176
     0
 90
       50
176
     0
 90
       50
176
     0
 90
       50
176
     0
290
     0
176
     0
 90
       50
176
     0
 62
   256
176
     0
 40
1.0
176
     0
 90
        2
176
     0
  1
strokes_ogs.tif
176
     0
290
     0
176
     0
 40
1.0
176
     0
 40
1.0
176
     0
  0
VISUALSTYLE
  5
33
102
{ACAD_REACTORS
330
2A
102
}
330
2A
100
AcDbVisualStyle
  2
Realistic
 70
     8
177
     3
291
     0
 70
    58
 90
        2
176
     1
 90
        3
176
     1
 90
        0
176
     1
 90
        2
176
     1
 40
0.6
176
     1
 40
30.0
176
     1
 62
     7
420
 16777215
176
     1
 90
        0
176
     1
 90
        0
176
     1
 62
     7
176
     1
 62
   257
176
     1
 90
        1
176
     1
 90
        1
176
     1
 40
1.0
176
     1
 90
        8
176
     1
 62
   257
176
     1
 40
1.0
176
     1
 90
        1
176
     1
 90
        6
176
     1
 90
        2
176
     1
 62
     7
176
     1
 90
        3
176
     1
 90
        0
176
     1
 90
        0
176
     1
290
     0
176
     1
 90
       13
176
     1
 40
0.0
176
     1
 90
        0
176
     1
290
     0
176
     1
290
     1
176
     1
290
     1
176
     1
290
     0
176
     1
290
     0
176
     1
290
     0
176
     1
290
     0
176
     1
290
     0
176
     1
290
     0
176
     1
 90
       50
176
     1
 40
0.0
176
     1
 40
1.0
176
     1
 90
        0
176
     1
 62
    18
420
        0
176
     1
 90
       50
176
     1
 90
        3
176
     1
 62
     5
420
      255
176
     1
290
     0
176
     1
 90
       50
176
     1
 90
       50
176
     1
 90
       50
176
     1
290
     0
176
     1
 90
       50
176
     1
 62
   256
176
     0
 40
1.0
176
     0
 90
        2
176
     1
  1
strokes_ogs.tif
176
     1
290
     0
176
     1
 40
1.0
176
     1
 40
1.0
176
     1
  0
VISUALSTYLE
  5
42
102
{ACAD_REACTORS
330
2A
102
}
330
2A
100
AcDbVisualStyle
  2
Shaded
 70
    27
177
     3
291
     0
 70
    58
 90
        2
176
     1
 90
        2
176
     1
 90
        1
176
     1
 90
        2
176
     1
 40
0.6
176
     1
 40
30.0
176
     1
 62
     7
420
 16777215
176
     1
 90
        0
176
     1
 90
        4
176
     1
 62
     7
176
     1
 62
   257
176
     1
 90
        1
176
     1
 90
        1
176
     1
 40
1.0
176
     1
 90
        8
176
     1
 62
   257
176
     1
 40
1.0
176
     1
 90
        1
176
     1
 90
        6
176
     1
 90
        2
176
     1
 62
     8
420
  7895160
176
     1
 90
        3
176
     1
 90
        0
176
     1
 90
        0
176
     1
290
     0
176
     1
 90
        5
176
     1
 40
0.0
176
     1
 90
        0
176
     1
290
     0
176
     1
290
     1
176
     1
290
     1
176
     1
290
     0
176
     1
290
     0
176
     1
290
     0
176
     1
290
     0
176
     1
290
     0
176
     1
290
     0
176
     1
 90
       50
176
     1
 40
0.0
176
     1
 40
1.0
176
     1
 90
        0
176
     1
 62
    18
420
        0
176
     1
 90
       50
176
     1
 90
        3
176
     1
 62
     5
420
      255
176
     1
290
     0
176
     1
 90
       50
176
     1
 90
       50
176
     1
 90
       50
176
     1
290
     0
176
     1
 90
       50
176
     1
 62
   256
176
     0
 40
1.0
176
     0
 90
        2
176
     1
  1
strokes_ogs.tif
176
     1
290
     0
176
     1
 40
1.0
176
     1
 40
1.0
176
     1
  0
VISUALSTYLE
  5
41
102
{ACAD_REACTORS
330
2A
102
}
330
2A
100
AcDbVisualStyle
  2
Shaded with edges
 70
    26
177
     3
291
     0
 70
    58
 90
        2
176
     1
 90
        2
176
     1
 90
        1
176
     1
 90
        2
176
     1
 40
0.6
176
     1
 40
30.0
176
     1
 62
     7
420
 16777215
176
     1
 90
        1
176
     1
 90
       10
176
     1
 62
     7
176
     1
 62
   257
176
     1
 90
        2
176
     1
 90
        1
176
     1
 40
1.0
176
     1
 90
        8
176
     1
 62
   257
176
     1
 40
1.0
176
     1
 90
        1
176
     1
 90
        6
176
     1
 90
        2
176
     1
 62
     7
176
     1
 90
        3
176
     1
 90
        0
176
     1
 90
        0
176
     1
290
     0
176
     1
 90
        5
176
     1
 40
0.0
176
     1
 90
        0
176
     1
290
     0
176
     1
290
     1
176
     1
290
     1
176
     1
290
     0
176
     1
290
     0
176
     1
290
     0
176
     1
290
     0
176
     1
290
     0
176
     1
290
     0
176
     1
 90
       50
176
     1
 40
0.0
176
     1
 40
1.0
176
     1
 90
        0
176
     1
 62
    18
420
        0
176
     1
 90
       50
176
     1
 90
        3
176
     1
 62
     5
420
      255
176
     1
290
     0
176
     1
 90
       50
176
     1
 90
       50
176
     1
 90
       50
176
     1
290
     0
176
     1
 90
       50
176
     1
 62
   256
176
     0
 40
1.0
176
     0
 90
        2
176
     1
  1
strokes_ogs.tif
176
     1
290
     0
176
     1
 40
1.0
176
     1
 40
1.0
176
     1
  0
VISUALSTYLE
  5
3E
102
{ACAD_REACTORS
330
2A
102
}
330
2A
100
AcDbVisualStyle
  2
Shades of Gray
 70
    23
177
     3
291
     0
 70
    58
 90
        2
176
     1
 90
        2
176
     1
 90
        3
176
     1
 90
        0
176
     1
 40
0.6
176
     1
 40
30.0
176
     1
 62
     7
420
 16777215
176
     1
 90
        2
176
     1
 90
        2
176
     1
 62
     7
176
     1
 62
     7
176
     1
 90
        1
176
     1
 90
        1
176
     1
 40
40.0
176
     1
 90
        8
176
     1
 62
     7
176
     1
 40
1.0
176
     1
 90
        1
176
     1
 90
        6
176
     1
 90
        2
176
     1
 62
     7
176
     1
 90
        3
176
     1
 90
        0
176
     1
 90
        0
176
     1
290
     0
176
     1
 90
        1
176
     1
 40
0.0
176
     1
 90
        0
176
     1
290
     0
176
     1
290
     1
176
     1
290
     1
176
     1
290
     0
176
     1
290
     0
176
     1
290
     0
176
     1
290
     0
176
     1
290
     0
176
     1
290
     0
176
     1
 90
       50
176
     1
 40
0.0
176
     1
 40
1.0
176
     1
 90
        0
176
     1
 62
    18
420
        0
176
     1
 90
       50
176
     1
 90
        3
176
     1
 62
     5
420
      255
176
     1
290
     0
176
     1
 90
       50
176
     1
 90
       50
176
     1
 90
       50
176
     1
290
     0
176
     1
 90
       50
176
     1
 62
   256
176
     0
 40
1.0
176
     0
 90
        2
176
     1
  1
strokes_ogs.tif
176
     1
290
     0
176
     1
 40
1.0
176
     1
 40
1.0
176
     1
  0
VISUALSTYLE
  5
3F
102
{ACAD_REACTORS
330
2A
102
}
330
2A
100
AcDbVisualStyle
  2
Sketchy
 70
    24
177
     3
291
     0
 70
    58
 90
        1
176
     1
 90
        2
176
     1
 90
        2
176
     1
 90
        0
176
     1
 40
0.6
176
     1
 40
30.0
176
     1
 62
     7
420
 16777215
176
     1
 90
        2
176
     1
 90
        2
176
     1
 62
     7
176
     1
 62
     7
176
     1
 90
        1
176
     1
 90
        1
176
     1
 40
40.0
176
     1
 90
       11
176
     1
 62
     7
176
     1
 40
1.0
176
     1
 90
        1
176
     1
 90
        6
176
     1
 90
        2
176
     1
 62
     7
176
     1
 90
        6
176
     1
 90
        0
176
     1
 90
        0
176
     1
290
     0
176
     1
 90
        1
176
     1
 40
0.0
176
     1
 90
        0
176
     1
290
     0
176
     1
290
     1
176
     1
290
     1
176
     1
290
     0
176
     1
290
     0
176
     1
290
     0
176
     1
290
     0
176
     1
290
     0
176
     1
290
     0
176
     1
 90
       50
176
     1
 40
0.0
176
     1
 40
1.0
176
     1
 90
        0
176
     1
 62
    18
420
        0
176
     1
 90
       50
176
     1
 90
        3
176
     1
 62
     5
420
      255
176
     1
290
     0
176
     1
 90
       50
176
     1
 90
       50
176
     1
 90
       50
176
     1
290
     0
176
     1
 90
       50
176
     1
 62
   256
176
     0
 40
1.0
176
     0
 90
        2
176
     1
  1
strokes_ogs.tif
176
     1
290
     0
176
     1
 40
1.0
176
     1
 40
1.0
176
     1
  0
VISUALSTYLE
  5
37
102
{ACAD_REACTORS
330
2A
102
}
330
2A
100
AcDbVisualStyle
  2
Thicken
 70
    13
177
     3
291
     1
 70
    58
 90
        2
176
     1
 90
        2
176
     1
 90
        0
176
     1
 90
        0
176
     1
 40
0.6
176
     1
 40
30.0
176
     1
 62
     7
420
 16777215
176
     1
 90
        1
176
     1
 90
        4
176
     1
 62
     7
176
     1
 62
   257
176
     1
 90
        1
176
     1
 90
        1
176
     1
 40
1.0
176
     1
 90
       12
176
     1
 62
     7
176
     1
 40
1.0
176
     1
 90
        1
176
     1
 90
        6
176
     1
 90
        2
176
     1
 62
     7
176
     1
 90
        5
176
     1
 90
        0
176
     1
 90
        0
176
     1
290
     0
176
     1
 90
        1
176
     1
 40
0.0
176
     1
 90
        0
176
     1
290
     0
176
     1
290
     1
176
     1
290
     1
176
     1
290
     0
176
     1
290
     0
176
     1
290
     0
176
     1
290
     0
176
     1
290
     0
176
     1
290
     0
176
     1
 90
       50
176
     1
 40
0.0
176
     1
 40
1.0
176
     1
 90
        0
176
     1
 62
    18
420
        0
176
     1
 90
       50
176
     1
 90
        3
176
     1
 62
     5
420
      255
176
     1
290
     0
176
     1
 90
       50
176
     1
 90
       50
176
     1
 90
       50
176
     1
290
     0
176
     1
 90
       50
176
     1
 62
   256
176
     0
 40
1.0
176
     0
 90
        2
176
     1
  1
strokes_ogs.tif
176
     1
290
     0
176
     1
 40
1.0
176
     1
 40
1.0
176
     1
  0
VISUALSTYLE
  5
30
102
{ACAD_REACTORS
330
2A
102
}
330
2A
100
AcDbVisualStyle
  2
Wireframe
 70
     5
177
     3
291
     0
 70
    58
 90
        0
176
     1
 90
        2
176
     1
 90
        0
176
     1
 90
        0
176
     1
 40
0.6
176
     1
 40
30.0
176
     1
 62
     7
420
 16777215
176
     1
 90
        1
176
     1
 90
        4
176
     1
 62
     7
176
     1
 62
   257
176
     1
 90
        1
176
     1
 90
        1
176
     1
 40
1.0
176
     1
 90
        0
176
     1
 62
   257
176
     1
 40
1.0
176
     1
 90
        1
176
     1
 90
        6
176
     1
 90
        2
176
     1
 62
     7
176
     1
 90
        3
176
     1
 90
        0
176
     1
 90
        0
176
     1
290
     0
176
     1
 90
        1
176
     1
 40
0.0
176
     1
 90
        0
176
     1
290
     0
176
     1
290
     1
176
     1
290
     1
176
     1
290
     0
176
     1
290
     0
176
     1
290
     0
176
     1
290
     0
176
     1
290
     0
176
     1
290
     0
176
     1
 90
       50
176
     1
 40
0.0
176
     1
 40
1.0
176
     1
 90
        0
176
     1
 62
    18
420
        0
176
     1
 90
       50
176
     1
 90
        3
176
     1
 62
     5
420
      255
176
     1
290
     0
176
     1
 90
       50
176
     1
 90
       50
176
     1
 90
       50
176
     1
290
     0
176
     1
 90
       50
176
     1
 62
   256
176
     0
 40
1.0
176
     0
 90
        2
176
     1
  1
strokes_ogs.tif
176
     1
290
     0
176
     1
 40
1.0
176
     1
 40
1.0
176
     1
  0
VISUALSTYLE
  5
40
102
{ACAD_REACTORS
330
2A
102
}
330
2A
100
AcDbVisualStyle
  2
X-Ray
 70
    25
177
     3
291
     0
 70
    58
 90
        2
176
     1
 90
        2
176
     1
 90
        1
176
     1
 90
        1
176
     1
 40
0.5
176
     1
 40
30.0
176
     1
 62
     7
420
 16777215
176
     1
 90
        1
176
     1
 90
        0
176
     1
 62
     7
176
     1
 62
   257
176
     1
 90
        1
176
     1
 90
        1
176
     1
 40
1.0
176
     1
 90
        8
176
     1
 62
     7
176
     1
 40
1.0
176
     1
 90
        1
176
     1
 90
        6
176
     1
 90
        2
176
     1
 62
     7
176
     1
 90
        3
176
     1
 90
        0
176
     1
 90
        0
176
     1
290
     0
176
     1
 90
       13
176
     1
 40
0.0
176
     1
 90
        0
176
     1
290
     0
176
     1
290
     1
176
     1
290
     1
176
     1
290
     0
176
     1
290
     0
176
     1
290
     0
176
     1
290
     0
176
     1
290
     0
176
     1
290
     0
176
     1
 90
       50
176
     1
 40
0.0
176
     1
 40
1.0
176
     1
 90
        0
176
     1
 62
    18
420
        0
176
     1
 90
       50
176
     1
 90
        3
176
     1
 62
     5
420
      255
176
     1
290
     0
176
     1
 90
       50
176
     1
 90
       50
176
     1
 90
       50
176
     1
290
     0
176
     1
 90
       50
176
     1
 62
   256
176
     0
 40
1.0
176
     0
 90
        2
176
     1
  1
strokes_ogs.tif
176
     1
290
     0
176
     1
 40
1.0
176
     1
 40
1.0
176
     1
  0
DICTIONARYVAR
  5
72
102
{ACAD_REACTORS
330
71
102
}
330
71
100
DictionaryVariables
280
     0
  1
1:1
  0
DICTIONARYVAR
  5
77
102
{ACAD_REACTORS
330
71
102
}
330
71
100
DictionaryVariables
280
     0
  1
Standard
  0
DICTIONARYVAR
  5
76
102
{ACAD_REACTORS
330
71
102
}
330
71
100
DictionaryVariables
280
     0
  1
Standard
  0
DICTIONARY
  5
73
330
5A
100
AcDbDictionary
280
     1
281
     1
  3
ACAD_ROUNDTRIP_2008_TABLESTYLE_CELLSTYLEMAP
360
74
  0
CELLSTYLEMAP
  5
74
102
{ACAD_REACTORS
330
73
102
}
330
73
100
AcDbCellStyleMap
 90
        3
300
CELLSTYLE
  1
TABLEFORMAT_BEGIN
 90
        5
170
     1
 91
        0
 92
    32768
 62
   257
 93
        1
300
CONTENTFORMAT
  1
CONTENTFORMAT_BEGIN
 90
        0
 91
        0
 92
        4
 93
        0
300

 40
0.0
140
1.0
 94
        5
 62
     0
340
11
144
0.25
309
CONTENTFORMAT_END
171
     1
301
MARGIN
  1
CELLMARGIN_BEGIN
 40
0.06
 40
0.06
 40
0.06
 40
0.06
 40
0.06
 40
0.06
309
CELLMARGIN_END
 94
        6
 95
        1
302
GRIDFORMAT
  1
GRIDFORMAT_BEGIN
 90
        0
 91
        1
 62
     0
 92
       -2
340
14
 93
        0
 40
0.045
309
GRIDFORMAT_END
 95
        2
302
GRIDFORMAT
  1
GRIDFORMAT_BEGIN
 90
        0
 91
        1
 62
     0
 92
       -2
340
14
 93
        0
 40
0.045
309
GRIDFORMAT_END
 95
        4
302
GRIDFORMAT
  1
GRIDFORMAT_BEGIN
 90
        0
 91
        1
 62
     0
 92
       -2
340
14
 93
        0
 40
0.045
309
GRIDFORMAT_END
 95
        8
302
GRIDFORMAT
  1
GRIDFORMAT_BEGIN
 90
        0
 91
        1
 62
     0
 92
       -2
340
14
 93
        0
 40
0.045
309
GRIDFORMAT_END
 95
       16
302
GRIDFORMAT
  1
GRIDFORMAT_BEGIN
 90
        0
 91
        1
 62
     0
 92
       -2
340
14
 93
        0
 40
0.045
309
GRIDFORMAT_END
 95
       32
302
GRIDFORMAT
  1
GRIDFORMAT_BEGIN
 90
        0
 91
        1
 62
     0
 92
       -2
340
14
 93
        0
 40
0.045
309
GRIDFORMAT_END
309
TABLEFORMAT_END
  1
CELLSTYLE_BEGIN
 90
        1
 91
        1
300
_TITLE
309
CELLSTYLE_END
300
CELLSTYLE
  1
TABLEFORMAT_BEGIN
 90
        5
170
     1
 91
        0
 92
        0
 62
   257
 93
        1
300
CONTENTFORMAT
  1
CONTENTFORMAT_BEGIN
 90
        0
 91
        0
 92
        4
 93
        0
300

 40
0.0
140
1.0
 94
        5
 62
     0
340
11
144
0.18
309
CONTENTFORMAT_END
171
     1
301
MARGIN
  1
CELLMARGIN_BEGIN
 40
0.06
 40
0.06
 40
0.06
 40
0.06
 40
0.06
 40
0.06
309
CELLMARGIN_END
 94
        6
 95
        1
302
GRIDFORMAT
  1
GRIDFORMAT_BEGIN
 90
        0
 91
        1
 62
     0
 92
       -2
340
14
 93
        0
 40
0.045
309
GRIDFORMAT_END
 95
        2
302
GRIDFORMAT
  1
GRIDFORMAT_BEGIN
 90
        0
 91
        1
 62
     0
 92
       -2
340
14
 93
        0
 40
0.045
309
GRIDFORMAT_END
 95
        4
302
GRIDFORMAT
  1
GRIDFORMAT_BEGIN
 90
        0
 91
        1
 62
     0
 92
       -2
340
14
 93
        0
 40
0.045
309
GRIDFORMAT_END
 95
        8
302
GRIDFORMAT
  1
GRIDFORMAT_BEGIN
 90
        0
 91
        1
 62
     0
 92
       -2
340
14
 93
        0
 40
0.045
309
GRIDFORMAT_END
 95
       16
302
GRIDFORMAT
  1
GRIDFORMAT_BEGIN
 90
        0
 91
        1
 62
     0
 92
       -2
340
14
 93
        0
 40
0.045
309
GRIDFORMAT_END
 95
       32
302
GRIDFORMAT
  1
GRIDFORMAT_BEGIN
 90
        0
 91
        1
 62
     0
 92
       -2
340
14
 93
        0
 40
0.045
309
GRIDFORMAT_END
309
TABLEFORMAT_END
  1
CELLSTYLE_BEGIN
 90
        2
 91
        1
300
_HEADER
309
CELLSTYLE_END
300
CELLSTYLE
  1
TABLEFORMAT_BEGIN
 90
        5
170
     1
 91
        0
 92
        0
 62
   257
 93
        1
300
CONTENTFORMAT
  1
CONTENTFORMAT_BEGIN
 90
        0
 91
        0
 92
        4
 93
        0
300

 40
0.0
140
1.0
 94
        2
 62
     0
340
11
144
0.18
309
CONTENTFORMAT_END
171
     1
301
MARGIN
  1
CELLMARGIN_BEGIN
 40
0.06
 40
0.06
 40
0.06
 40
0.06
 40
0.06
 40
0.06
309
CELLMARGIN_END
 94
        6
 95
        1
302
GRIDFORMAT
  1
GRIDFORMAT_BEGIN
 90
        0
 91
        1
 62
     0
 92
       -2
340
14
 93
        0
 40
0.045
309
GRIDFORMAT_END
 95
        2
302
GRIDFORMAT
  1
GRIDFORMAT_BEGIN
 90
        0
 91
        1
 62
     0
 92
       -2
340
14
 93
        0
 40
0.045
309
GRIDFORMAT_END
 95
        4
302
GRIDFORMAT
  1
GRIDFORMAT_BEGIN
 90
        0
 91
        1
 62
     0
 92
       -2
340
14
 93
        0
 40
0.045
309
GRIDFORMAT_END
 95
        8
302
GRIDFORMAT
  1
GRIDFORMAT_BEGIN
 90
        0
 91
        1
 62
     0
 92
       -2
340
14
 93
        0
 40
0.045
309
GRIDFORMAT_END
 95
       16
302
GRIDFORMAT
  1
GRIDFORMAT_BEGIN
 90
        0
 91
        1
 62
     0
 92
       -2
340
14
 93
        0
 40
0.045
309
GRIDFORMAT_END
 95
       32
302
GRIDFORMAT
  1
GRIDFORMAT_BEGIN
 90
        0
 91
        1
 62
     0
 92
       -2
340
14
 93
        0
 40
0.045
309
GRIDFORMAT_END
309
TABLEFORMAT_END
  1
CELLSTYLE_BEGIN
 90
        3
 91
        2
300
_DATA
309
CELLSTYLE_END
  0
ENDSEC
  0
EOF
