  0
SECTION
  2
HEADER
  9
$ACADVER
  1
AC1032
  9
$ACADMAINTVER
 90
       55
  9
$DWGCODEPAGE
  3
ANSI_1252
  9
$LASTSAVEDBY
  1
LYI-002
  9
$REQUIREDVERSIONS
160
                 0
  9
$INSBASE
 10
0.0
 20
0.0
 30
0.0
  9
$EXTMIN
 10
-1200.15
 20
-590.1266
 30
0.0
  9
$EXTMAX
 10
1200.05
 20
590.0734
 30
0.0
  9
$LIMMIN
 10
0.0
 20
0.0
  9
$LIMMAX
 10
12.0
 20
9.0
  9
$ORTHOMODE
 70
     0
  9
$REGENMODE
 70
     1
  9
$FILLMODE
 70
     1
  9
$QTEXTMODE
 70
     0
  9
$MIRRTEXT
 70
     1
  9
$LTSCALE
 40
1.0
  9
$ATTMODE
 70
     1
  9
$TEXTSIZE
 40
0.2
  9
$TRACEWID
 40
0.05
  9
$TEXTSTYLE
  7
Standard
  9
$CLAYER
  8
0
  9
$CELTYPE
  6
ByLayer
  9
$CECOLOR
 62
   256
  9
$CELTSCALE
 40
1.0
  9
$DISPSILH
 70
     0
  9
$DIMSCALE
 40
1.0
  9
$DIMASZ
 40
0.18
  9
$DIMEXO
 40
0.0625
  9
$DIMDLI
 40
0.38
  9
$DIMRND
 40
0.0
  9
$DIMDLE
 40
0.0
  9
$DIMEXE
 40
0.18
  9
$DIMTP
 40
0.0
  9
$DIMTM
 40
0.0
  9
$DIMTXT
 40
0.18
  9
$DIMCEN
 40
0.09
  9
$DIMTSZ
 40
0.0
  9
$DIMTOL
 70
     0
  9
$DIMLIM
 70
     0
  9
$DIMTIH
 70
     1
  9
$DIMTOH
 70
     1
  9
$DIMSE1
 70
     0
  9
$DIMSE2
 70
     0
  9
$DIMTAD
 70
     0
  9
$DIMZIN
 70
     0
  9
$DIMBLK
  1

  9
$DIMASO
 70
     1
  9
$DIMSHO
 70
     1
  9
$DIMPOST
  1

  9
$DIMAPOST
  1

  9
$DIMALT
 70
     0
  9
$DIMALTD
 70
     2
  9
$DIMALTF
 40
25.4
  9
$DIMLFAC
 40
1.0
  9
$DIMTOFL
 70
     0
  9
$DIMTVP
 40
0.0
  9
$DIMTIX
 70
     0
  9
$DIMSOXD
 70
     0
  9
$DIMSAH
 70
     0
  9
$DIMBLK1
  1

  9
$DIMBLK2
  1

  9
$DIMSTYLE
  2
Standard
  9
$DIMCLRD
 70
     0
  9
$DIMCLRE
 70
     0
  9
$DIMCLRT
 70
     0
  9
$DIMTFAC
 40
1.0
  9
$DIMGAP
 40
0.09
  9
$DIMJUST
 70
     0
  9
$DIMSD1
 70
     0
  9
$DIMSD2
 70
     0
  9
$DIMTOLJ
 70
     1
  9
$DIMTZIN
 70
     0
  9
$DIMALTZ
 70
     0
  9
$DIMALTTZ
 70
     0
  9
$DIMUPT
 70
     0
  9
$DIMDEC
 70
     4
  9
$DIMTDEC
 70
     4
  9
$DIMALTU
 70
     2
  9
$DIMALTTD
 70
     2
  9
$DIMTXSTY
  7
Standard
  9
$DIMAUNIT
 70
     0
  9
$DIMADEC
 70
     0
  9
$DIMALTRND
 40
0.0
  9
$DIMAZIN
 70
     0
  9
$DIMDSEP
 70
    46
  9
$DIMATFIT
 70
     3
  9
$DIMFRAC
 70
     0
  9
$DIMLDRBLK
  1

  9
$DIMLUNIT
 70
     2
  9
$DIMLWD
 70
    -2
  9
$DIMLWE
 70
    -2
  9
$DIMTMOVE
 70
     0
  9
$DIMFXL
 40
1.0
  9
$DIMFXLON
 70
     0
  9
$DIMJOGANG
 40
0.7853981633974483
  9
$DIMTFILL
 70
     0
  9
$DIMTFILLCLR
 70
     0
  9
$DIMARCSYM
 70
     0
  9
$DIMLTYPE
  6

  9
$DIMLTEX1
  6

  9
$DIMLTEX2
  6

  9
$DIMTXTDIRECTION
 70
     0
  9
$LUNITS
 70
     2
  9
$LUPREC
 70
     4
  9
$SKETCHINC
 40
0.1
  9
$FILLETRAD
 40
0.0
  9
$AUNITS
 70
     0
  9
$AUPREC
 70
     0
  9
$MENU
  1
.
  9
$ELEVATION
 40
0.0
  9
$PELEVATION
 40
0.0
  9
$THICKNESS
 40
0.0
  9
$LIMCHECK
 70
     0
  9
$CHAMFERA
 40
0.0
  9
$CHAMFERB
 40
0.0
  9
$CHAMFERC
 40
0.0
  9
$CHAMFERD
 40
0.0
  9
$SKPOLY
 70
     0
  9
$TDCREATE
 40
2460652.613811042
  9
$TDUCREATE
 40
2460652.384644375
  9
$TDUPDATE
 40
2460652.613811111
  9
$TDUUPDATE
 40
2460652.384644445
  9
$TDINDWG
 40
0.0000000116
  9
$TDUSRTIMER
 40
0.0000000116
  9
$USRTIMER
 70
     1
  9
$ANGBASE
 50
0.0
  9
$ANGDIR
 70
     0
  9
$PDMODE
 70
     0
  9
$PDSIZE
 40
0.0
  9
$PLINEWID
 40
0.0
  9
$SPLFRAME
 70
     0
  9
$SPLINETYPE
 70
     6
  9
$SPLINESEGS
 70
     8
  9
$HANDSEED
  5
AE
  9
$SURFTAB1
 70
     6
  9
$SURFTAB2
 70
     6
  9
$SURFTYPE
 70
     6
  9
$SURFU
 70
     6
  9
$SURFV
 70
     6
  9
$UCSBASE
  2

  9
$UCSNAME
  2

  9
$UCSORG
 10
0.0
 20
0.0
 30
0.0
  9
$UCSXDIR
 10
1.0
 20
0.0
 30
0.0
  9
$UCSYDIR
 10
0.0
 20
1.0
 30
0.0
  9
$UCSORTHOREF
  2

  9
$UCSORTHOVIEW
 70
     0
  9
$UCSORGTOP
 10
0.0
 20
0.0
 30
0.0
  9
$UCSORGBOTTOM
 10
0.0
 20
0.0
 30
0.0
  9
$UCSORGLEFT
 10
0.0
 20
0.0
 30
0.0
  9
$UCSORGRIGHT
 10
0.0
 20
0.0
 30
0.0
  9
$UCSORGFRONT
 10
0.0
 20
0.0
 30
0.0
  9
$UCSORGBACK
 10
0.0
 20
0.0
 30
0.0
  9
$PUCSBASE
  2

  9
$PUCSNAME
  2

  9
$PUCSORG
 10
0.0
 20
0.0
 30
0.0
  9
$PUCSXDIR
 10
1.0
 20
0.0
 30
0.0
  9
$PUCSYDIR
 10
0.0
 20
1.0
 30
0.0
  9
$PUCSORTHOREF
  2

  9
$PUCSORTHOVIEW
 70
     0
  9
$PUCSORGTOP
 10
0.0
 20
0.0
 30
0.0
  9
$PUCSORGBOTTOM
 10
0.0
 20
0.0
 30
0.0
  9
$PUCSORGLEFT
 10
0.0
 20
0.0
 30
0.0
  9
$PUCSORGRIGHT
 10
0.0
 20
0.0
 30
0.0
  9
$PUCSORGFRONT
 10
0.0
 20
0.0
 30
0.0
  9
$PUCSORGBACK
 10
0.0
 20
0.0
 30
0.0
  9
$USERI1
 70
     0
  9
$USERI2
 70
     0
  9
$USERI3
 70
     0
  9
$USERI4
 70
     0
  9
$USERI5
 70
     0
  9
$USERR1
 40
0.0
  9
$USERR2
 40
0.0
  9
$USERR3
 40
0.0
  9
$USERR4
 40
0.0
  9
$USERR5
 40
0.0
  9
$WORLDVIEW
 70
     1
  9
$SHADEDGE
 70
     3
  9
$SHADEDIF
 70
    70
  9
$TILEMODE
 70
     1
  9
$MAXACTVP
 70
    64
  9
$PINSBASE
 10
0.0
 20
0.0
 30
0.0
  9
$PLIMCHECK
 70
     0
  9
$PEXTMIN
 10
1.000000000000000E+20
 20
1.000000000000000E+20
 30
1.000000000000000E+20
  9
$PEXTMAX
 10
-1.000000000000000E+20
 20
-1.000000000000000E+20
 30
-1.000000000000000E+20
  9
$PLIMMIN
 10
0.0
 20
0.0
  9
$PLIMMAX
 10
12.0
 20
9.0
  9
$UNITMODE
 70
     0
  9
$VISRETAIN
 70
     1
  9
$PLINEGEN
 70
     0
  9
$PSLTSCALE
 70
     1
  9
$TREEDEPTH
 70
  3020
  9
$CMLSTYLE
  2
Standard
  9
$CMLJUST
 70
     0
  9
$CMLSCALE
 40
1.0
  9
$PROXYGRAPHICS
 70
     1
  9
$MEASUREMENT
 70
     0
  9
$CELWEIGHT
370
    -1
  9
$ENDCAPS
280
     0
  9
$JOINSTYLE
280
     0
  9
$LWDISPLAY
290
     0
  9
$INSUNITS
 70
     4
  9
$HYPERLINKBASE
  1

  9
$STYLESHEET
  1

  9
$XEDIT
290
     1
  9
$CEPSNTYPE
380
     0
  9
$PSTYLEMODE
290
     1
  9
$FINGERPRINTGUID
  2
{05148f83-ac93-4216-89a8-66770699428d}
  9
$VERSIONGUID
  2
{FAEB1C32-E019-11D5-929B-00C0DF256EC4}
  9
$EXTNAMES
290
     1
  9
$PSVPSCALE
 40
0.0
  9
$OLESTARTUP
290
     0
  9
$SORTENTS
280
   127
  9
$INDEXCTL
280
     0
  9
$HIDETEXT
280
     1
  9
$XCLIPFRAME
280
     2
  9
$HALOGAP
280
     0
  9
$OBSCOLOR
 70
   257
  9
$OBSLTYPE
280
     0
  9
$INTERSECTIONDISPLAY
280
     0
  9
$INTERSECTIONCOLOR
 70
   257
  9
$DIMASSOC
280
     2
  9
$PROJECTNAME
  1

  9
$CAMERADISPLAY
290
     0
  9
$LENSLENGTH
 40
50.0
  9
$CAMERAHEIGHT
 40
0.0
  9
$STEPSPERSEC
 40
2.0
  9
$STEPSIZE
 40
6.0
  9
$3DDWFPREC
 40
2.0
  9
$PSOLWIDTH
 40
0.25
  9
$PSOLHEIGHT
 40
4.0
  9
$LOFTANG1
 40
1.570796326794897
  9
$LOFTANG2
 40
1.570796326794897
  9
$LOFTMAG1
 40
0.0
  9
$LOFTMAG2
 40
0.0
  9
$LOFTPARAM
 70
     7
  9
$LOFTNORMALS
280
     1
  9
$LATITUDE
 40
37.795
  9
$LONGITUDE
 40
-122.394
  9
$NORTHDIRECTION
 40
0.0
  9
$TIMEZONE
 70
 -8000
  9
$LIGHTGLYPHDISPLAY
280
     1
  9
$TILEMODELIGHTSYNCH
280
     1
  9
$CMATERIAL
347
44
  9
$SOLIDHIST
280
     0
  9
$SHOWHIST
280
     1
  9
$DWFFRAME
280
     2
  9
$DGNFRAME
280
     2
  9
$REALWORLDSCALE
290
     1
  9
$INTERFERECOLOR
 62
   256
  9
$CSHADOW
280
     0
  9
$SHADOWPLANELOCATION
 40
0.0
  0
ENDSEC
  0
SECTION
  2
CLASSES
  0
CLASS
  1
ACDBDICTIONARYWDFLT
  2
AcDbDictionaryWithDefault
  3
ObjectDBX Classes
 90
        0
 91
        3
280
     0
281
     0
  0
CLASS
  1
VISUALSTYLE
  2
AcDbVisualStyle
  3
ObjectDBX Classes
 90
     4095
 91
        3
280
     0
281
     0
  0
CLASS
  1
MATERIAL
  2
AcDbMaterial
  3
ObjectDBX Classes
 90
     1153
 91
        3
280
     0
281
     0
  0
CLASS
  1
SCALE
  2
AcDbScale
  3
ObjectDBX Classes
 90
     1153
 91
        3
280
     0
281
     0
  0
CLASS
  1
TABLESTYLE
  2
AcDbTableStyle
  3
ObjectDBX Classes
 90
     4095
 91
        3
280
     0
281
     0
  0
CLASS
  1
MLEADERSTYLE
  2
AcDbMLeaderStyle
  3
ACDB_MLEADERSTYLE_CLASS
 90
     4095
 91
        3
280
     0
281
     0
  0
CLASS
  1
SUN
  2
AcDbSun
  3
SCENEOE
 90
     1153
 91
        3
280
     0
281
     0
  0
CLASS
  1
DICTIONARYVAR
  2
AcDbDictionaryVar
  3
ObjectDBX Classes
 90
        0
 91
        3
280
     0
281
     0
  0
CLASS
  1
CELLSTYLEMAP
  2
AcDbCellStyleMap
  3
ObjectDBX Classes
 90
     1152
 91
        3
280
     0
281
     0
  0
ENDSEC
  0
SECTION
  2
TABLES
  0
TABLE
  2
VPORT
  5
8
330
0
100
AcDbSymbolTable
 70
     1
  0
VPORT
  5
29
330
8
100
AcDbSymbolTableRecord
100
AcDbViewportTableRecord
  2
*Active
 70
     0
 10
0.0
 20
0.0
 11
1.0
 21
1.0
 12
10.42990654205607
 22
4.5
 13
0.0
 23
0.0
 14
0.5
 24
0.5
 15
0.5
 25
0.5
 16
0.0
 26
0.0
 36
1.0
 17
0.0
 27
0.0
 37
0.0
 40
9.0
 41
1.972972972850329
 42
50.0
 43
0.0
 44
0.0
 50
0.0
 51
0.0
 71
     0
 72
   100
 73
     1
 74
     3
 75
     0
 76
     0
 77
     0
 78
     0
281
     0
 65
     1
110
0.0
120
0.0
130
0.0
111
1.0
121
0.0
131
0.0
112
0.0
122
1.0
132
0.0
 79
     0
146
0.0
348
2F
 60
     3
 61
     5
292
     1
282
     1
141
0.0
142
0.0
 63
   250
361
5D
  0
ENDTAB
  0
TABLE
  2
LTYPE
  5
5
330
0
100
AcDbSymbolTable
 70
     1
  0
LTYPE
  5
14
330
5
100
AcDbSymbolTableRecord
100
AcDbLinetypeTableRecord
  2
ByBlock
 70
     0
  3

 72
    65
 73
     0
 40
0.0
  0
LTYPE
  5
15
330
5
100
AcDbSymbolTableRecord
100
AcDbLinetypeTableRecord
  2
ByLayer
 70
     0
  3

 72
    65
 73
     0
 40
0.0
  0
LTYPE
  5
16
330
5
100
AcDbSymbolTableRecord
100
AcDbLinetypeTableRecord
  2
Continuous
 70
     0
  3
Solid line
 72
    65
 73
     0
 40
0.0
  0
ENDTAB
  0
TABLE
  2
LAYER
  5
2
330
0
100
AcDbSymbolTable
 70
     2
  0
LAYER
  5
10
330
2
100
AcDbSymbolTableRecord
100
AcDbLayerTableRecord
  2
0
 70
     0
 62
     7
  6
Continuous
370
    -3
390
F
347
46
348
0
  0
LAYER
  5
5F
330
2
100
AcDbSymbolTableRecord
100
AcDbLayerTableRecord
  2
Layer 1
 70
     0
 62
     7
  6
Continuous
370
    -3
390
F
347
46
348
0
  0
ENDTAB
  0
TABLE
  2
STYLE
  5
3
330
0
100
AcDbSymbolTable
 70
     1
  0
STYLE
  5
11
330
3
100
AcDbSymbolTableRecord
100
AcDbTextStyleTableRecord
  2
Standard
 70
     0
 40
0.0
 41
1.0
 50
0.0
 71
     0
 42
0.2
  3
txt
  4

  0
ENDTAB
  0
TABLE
  2
VIEW
  5
6
330
0
100
AcDbSymbolTable
 70
     0
  0
ENDTAB
  0
TABLE
  2
UCS
  5
7
330
0
100
AcDbSymbolTable
 70
     0
  0
ENDTAB
  0
TABLE
  2
APPID
  5
9
330
0
100
AcDbSymbolTable
 70
     2
  0
APPID
  5
12
330
9
100
AcDbSymbolTableRecord
100
AcDbRegAppTableRecord
  2
ACAD
 70
     0
  0
APPID
  5
5E
330
9
100
AcDbSymbolTableRecord
100
AcDbRegAppTableRecord
  2
ODA
 70
     0
  0
ENDTAB
  0
TABLE
  2
DIMSTYLE
  5
A
330
0
100
AcDbSymbolTable
 70
     1
100
AcDbDimStyleTable
  0
DIMSTYLE
105
27
330
A
100
AcDbSymbolTableRecord
100
AcDbDimStyleTableRecord
  2
Standard
 70
     0
178
     0
340
11
  0
ENDTAB
  0
TABLE
  2
BLOCK_RECORD
  5
1
330
0
100
AcDbSymbolTable
 70
     1
  0
BLOCK_RECORD
  5
1F
330
1
100
AcDbSymbolTableRecord
100
AcDbBlockTableRecord
  2
*Model_Space
340
22
 70
     0
280
     1
281
     0
  0
BLOCK_RECORD
  5
1B
330
1
100
AcDbSymbolTableRecord
100
AcDbBlockTableRecord
  2
*Paper_Space
340
1E
 70
     0
280
     1
281
     0
  0
BLOCK_RECORD
  5
23
330
1
100
AcDbSymbolTableRecord
100
AcDbBlockTableRecord
  2
*Paper_Space0
340
26
 70
     0
280
     1
281
     0
  0
ENDTAB
  0
ENDSEC
  0
SECTION
  2
BLOCKS
  0
BLOCK
  5
20
330
1F
100
AcDbEntity
  8
0
100
AcDbBlockBegin
  2
*Model_Space
 70
     0
 10
0.0
 20
0.0
 30
0.0
  3
*Model_Space
  1

  0
ENDBLK
  5
21
330
1F
100
AcDbEntity
  8
0
100
AcDbBlockEnd
  0
BLOCK
  5
1C
330
1B
100
AcDbEntity
 67
     1
  8
0
100
AcDbBlockBegin
  2
*Paper_Space
 70
     0
 10
0.0
 20
0.0
 30
0.0
  3
*Paper_Space
  1

  0
ENDBLK
  5
1D
330
1B
100
AcDbEntity
 67
     1
  8
0
100
AcDbBlockEnd
  0
BLOCK
  5
24
330
23
100
AcDbEntity
  8
0
100
AcDbBlockBegin
  2
*Paper_Space0
 70
     0
 10
0.0
 20
0.0
 30
0.0
  3
*Paper_Space0
  1

  0
ENDBLK
  5
25
330
23
100
AcDbEntity
  8
0
100
AcDbBlockEnd
  0
ENDSEC
  0
SECTION
  2
ENTITIES
  0
SPLINE
  5
60
330
1F
100
AcDbEntity
  8
Layer 1
 62
   250
370
    20
100
AcDbSpline
210
0.0
220
0.0
230
1.0
 70
    11
 71
     3
 72
    32
 73
    28
 74
     0
 42
0.0000000001
 43
0.0000000001
 40
0.0
 40
0.0
 40
0.0
 40
0.0
 40
0.1111111111111111
 40
0.1111111111111111
 40
0.1111111111111111
 40
0.2222222222222222
 40
0.2222222222222222
 40
0.2222222222222222
 40
0.3333333333333333
 40
0.3333333333333333
 40
0.3333333333333333
 40
0.4444444444444444
 40
0.4444444444444444
 40
0.4444444444444444
 40
0.5555555555555556
 40
0.5555555555555556
 40
0.5555555555555556
 40
0.6666666666666666
 40
0.6666666666666666
 40
0.6666666666666666
 40
0.7777777777777777
 40
0.7777777777777777
 40
0.7777777777777777
 40
0.8888888888888888
 40
0.8888888888888888
 40
0.8888888888888888
 40
1.0
 40
1.0
 40
1.0
 40
1.0
 10
-715.3023
 20
-590.0266
 30
0.0
 10
-713.5286
 20
-573.757
 30
0.0
 10
-705.7141
 20
-557.499
 30
0.0
 10
-689.7881
 20
-543.376
 30
0.0
 10
-670.4144
 20
-534.7051
 30
0.0
 10
-648.4431
 20
-540.3669
 30
0.0
 10
-642.9091
 20
-560.5011
 30
0.0
 10
-639.8745
 20
-571.5403
 30
0.0
 10
-646.7135
 20
-579.7933
 30
0.0
 10
-642.4143
 20
-590.0266
 30
0.0
 10
-642.4143
 20
-590.0266
 30
0.0
 10
-628.6674
 20
-590.0266
 30
0.0
 10
-628.6674
 20
-590.0266
 30
0.0
 10
-616.1639
 20
-584.8366
 30
0.0
 10
-608.6153
 20
-572.7422
 30
0.0
 10
-606.4286
 20
-560.5011
 30
0.0
 10
-604.5845
 20
-456.9862
 30
0.0
 10
-712.3625
 20
-460.5966
 30
0.0
 10
-738.0598
 20
-548.4931
 30
0.0
 10
-738.246
 20
-548.5872
 30
0.0
 10
-738.4321
 20
-548.6824
 30
0.0
 10
-738.6113
 20
-548.7847
 30
0.0
 10
-743.9702
 20
-562.2913
 30
0.0
 10
-747.6796
 20
-576.1224
 30
0.0
 10
-749.8479
 20
-590.0266
 30
0.0
 10
-749.8479
 20
-590.0266
 30
0.0
 10
-715.3023
 20
-590.0266
 30
0.0
 10
-715.3023
 20
-590.0266
 30
0.0
  0
SPLINE
  5
61
330
1F
100
AcDbEntity
  8
Layer 1
 62
   250
370
    20
100
AcDbSpline
210
0.0
220
0.0
230
1.0
 70
    11
 71
     3
 72
    23
 73
    19
 74
     0
 42
0.0000000001
 43
0.0000000001
 40
0.0
 40
0.0
 40
0.0
 40
0.0
 40
0.1666666666666667
 40
0.1666666666666667
 40
0.1666666666666667
 40
0.3333333333333333
 40
0.3333333333333333
 40
0.3333333333333333
 40
0.5
 40
0.5
 40
0.5
 40
0.6666666666666666
 40
0.6666666666666666
 40
0.6666666666666666
 40
0.8333333333333333
 40
0.8333333333333333
 40
0.8333333333333333
 40
1.0
 40
1.0
 40
1.0
 40
1.0
 10
-1190.1192
 20
-123.3122
 30
0.0
 10
-1193.7196
 20
-122.6405
 30
0.0
 10
-1196.9581
 20
-121.5074
 30
0.0
 10
-1200.05
 20
-120.2816
 30
0.0
 10
-1200.05
 20
-120.2816
 30
0.0
 10
-1200.05
 20
-246.8152
 30
0.0
 10
-1200.05
 20
-246.8152
 30
0.0
 10
-1199.4887
 20
-245.3612
 30
0.0
 10
-1198.6644
 20
-244.1322
 30
0.0
 10
-1197.4155
 20
-243.3255
 30
0.0
 10
-1202.0389
 20
-214.6187
 30
0.0
 10
-1198.952
 20
-173.4968
 30
0.0
 10
-1184.648
 20
-151.1716
 30
0.0
 10
-1178.5847
 20
-141.709
 30
0.0
 10
-1166.5874
 20
-141.1501
 30
0.0
 10
-1168.2308
 20
-127.5971
 30
0.0
 10
-1173.2419
 20
-117.4885
 30
0.0
 10
-1193.3336
 20
-122.7118
 30
0.0
 10
-1190.1192
 20
-123.3122
 30
0.0
  0
SPLINE
  5
62
330
1F
100
AcDbEntity
  8
Layer 1
 62
   250
370
    20
100
AcDbSpline
210
0.0
220
0.0
230
1.0
 70
    11
 71
     3
 72
    17
 73
    13
 74
     0
 42
0.0000000001
 43
0.0000000001
 40
0.0
 40
0.0
 40
0.0
 40
0.0
 40
0.25
 40
0.25
 40
0.25
 40
0.5
 40
0.5
 40
0.5
 40
0.75
 40
0.75
 40
0.75
 40
1.0
 40
1.0
 40
1.0
 40
1.0
 10
-1200.05
 20
-318.0155
 30
0.0
 10
-1184.6211
 20
-318.2691
 30
0.0
 10
-1168.3219
 20
-321.354
 30
0.0
 10
-1151.8146
 20
-326.9048
 30
0.0
 10
-1147.8694
 20
-308.5172
 30
0.0
 10
-1171.0082
 20
-305.8127
 30
0.0
 10
-1180.9994
 20
-296.9018
 30
0.0
 10
-1181.0138
 20
-292.133
 30
0.0
 10
-1193.0284
 20
-284.4656
 30
0.0
 10
-1200.05
 20
-273.8159
 30
0.0
 10
-1200.05
 20
-273.8159
 30
0.0
 10
-1200.05
 20
-318.0155
 30
0.0
 10
-1200.05
 20
-318.0155
 30
0.0
  0
SPLINE
  5
63
330
1F
100
AcDbEntity
  8
Layer 1
 62
   250
370
    20
100
AcDbSpline
210
0.0
220
0.0
230
1.0
 70
    11
 71
     3
 72
    23
 73
    19
 74
     0
 42
0.0000000001
 43
0.0000000001
 40
0.0
 40
0.0
 40
0.0
 40
0.0
 40
0.1666666666666667
 40
0.1666666666666667
 40
0.1666666666666667
 40
0.3333333333333333
 40
0.3333333333333333
 40
0.3333333333333333
 40
0.5
 40
0.5
 40
0.5
 40
0.6666666666666666
 40
0.6666666666666666
 40
0.6666666666666666
 40
0.8333333333333333
 40
0.8333333333333333
 40
0.8333333333333333
 40
1.0
 40
1.0
 40
1.0
 40
1.0
 10
-1200.05
 20
402.7843
 30
0.0
 10
-1175.3184
 20
408.781
 30
0.0
 10
-1154.5346
 20
418.7365
 30
0.0
 10
-1149.9902
 20
444.6049
 30
0.0
 10
-1147.7178
 20
457.5424
 30
0.0
 10
-1147.7548
 20
477.0095
 30
0.0
 10
-1159.11
 20
478.8936
 30
0.0
 10
-1159.3824
 20
471.2262
 30
0.0
 10
-1160.6319
 20
456.0815
 30
0.0
 10
-1170.0551
 20
453.1756
 30
0.0
 10
-1175.9744
 20
461.3625
 30
0.0
 10
-1183.1804
 20
452.1914
 30
0.0
 10
-1191.9435
 20
453.1756
 30
0.0
 10
-1194.8105
 20
453.4977
 30
0.0
 10
-1197.512
 20
454.1506
 30
0.0
 10
-1200.05
 20
455.081
 30
0.0
 10
-1200.05
 20
455.081
 30
0.0
 10
-1200.05
 20
402.7843
 30
0.0
 10
-1200.05
 20
402.7843
 30
0.0
  0
SPLINE
  5
64
330
1F
100
AcDbEntity
  8
Layer 1
 62
   250
370
    20
100
AcDbSpline
210
0.0
220
0.0
230
1.0
 70
    11
 71
     3
 72
   131
 73
   127
 74
     0
 42
0.0000000001
 43
0.0000000001
 40
0.0
 40
0.0
 40
0.0
 40
0.0
 40
0.0238095238095238
 40
0.0238095238095238
 40
0.0238095238095238
 40
0.0476190476190476
 40
0.0476190476190476
 40
0.0476190476190476
 40
0.0714285714285714
 40
0.0714285714285714
 40
0.0714285714285714
 40
0.0952380952380952
 40
0.0952380952380952
 40
0.0952380952380952
 40
0.119047619047619
 40
0.119047619047619
 40
0.119047619047619
 40
0.1428571428571428
 40
0.1428571428571428
 40
0.1428571428571428
 40
0.1666666666666667
 40
0.1666666666666667
 40
0.1666666666666667
 40
0.1904761904761905
 40
0.1904761904761905
 40
0.1904761904761905
 40
0.2142857142857143
 40
0.2142857142857143
 40
0.2142857142857143
 40
0.2380952380952381
 40
0.2380952380952381
 40
0.2380952380952381
 40
0.2619047619047619
 40
0.2619047619047619
 40
0.2619047619047619
 40
0.2857142857142857
 40
0.2857142857142857
 40
0.2857142857142857
 40
0.3095238095238095
 40
0.3095238095238095
 40
0.3095238095238095
 40
0.3333333333333333
 40
0.3333333333333333
 40
0.3333333333333333
 40
0.3571428571428571
 40
0.3571428571428571
 40
0.3571428571428571
 40
0.3809523809523809
 40
0.3809523809523809
 40
0.3809523809523809
 40
0.4047619047619048
 40
0.4047619047619048
 40
0.4047619047619048
 40
0.4285714285714285
 40
0.4285714285714285
 40
0.4285714285714285
 40
0.4523809523809523
 40
0.4523809523809523
 40
0.4523809523809523
 40
0.4761904761904762
 40
0.4761904761904762
 40
0.4761904761904762
 40
0.5
 40
0.5
 40
0.5
 40
0.5238095238095237
 40
0.5238095238095237
 40
0.5238095238095237
 40
0.5476190476190476
 40
0.5476190476190476
 40
0.5476190476190476
 40
0.5714285714285714
 40
0.5714285714285714
 40
0.5714285714285714
 40
0.5952380952380952
 40
0.5952380952380952
 40
0.5952380952380952
 40
0.6190476190476191
 40
0.6190476190476191
 40
0.6190476190476191
 40
0.6428571428571428
 40
0.6428571428571428
 40
0.6428571428571428
 40
0.6666666666666666
 40
0.6666666666666666
 40
0.6666666666666666
 40
0.6904761904761905
 40
0.6904761904761905
 40
0.6904761904761905
 40
0.7142857142857142
 40
0.7142857142857142
 40
0.7142857142857142
 40
0.738095238095238
 40
0.738095238095238
 40
0.738095238095238
 40
0.7619047619047619
 40
0.7619047619047619
 40
0.7619047619047619
 40
0.7857142857142857
 40
0.7857142857142857
 40
0.7857142857142857
 40
0.8095238095238095
 40
0.8095238095238095
 40
0.8095238095238095
 40
0.8333333333333333
 40
0.8333333333333333
 40
0.8333333333333333
 40
0.8571428571428571
 40
0.8571428571428571
 40
0.8571428571428571
 40
0.8809523809523809
 40
0.8809523809523809
 40
0.8809523809523809
 40
0.9047619047619047
 40
0.9047619047619047
 40
0.9047619047619047
 40
0.9285714285714285
 40
0.9285714285714285
 40
0.9285714285714285
 40
0.9523809523809523
 40
0.9523809523809523
 40
0.9523809523809523
 40
0.9761904761904762
 40
0.9761904761904762
 40
0.9761904761904762
 40
1.0
 40
1.0
 40
1.0
 40
1.0
 10
-1200.05
 20
547.7223
 30
0.0
 10
-1190.9583
 20
552.2865
 30
0.0
 10
-1180.4163
 20
554.3542
 30
0.0
 10
-1170.0551
 20
553.9011
 30
0.0
 10
-1120.0142
 20
551.7172
 30
0.0
 10
-1092.2815
 20
494.8402
 30
0.0
 10
-1093.4465
 20
427.4576
 30
0.0
 10
-1097.4839
 20
413.3517
 30
0.0
 10
-1110.7056
 20
399.5395
 30
0.0
 10
-1109.862
 20
386.7417
 30
0.0
 10
-1087.4169
 20
395.3184
 30
0.0
 10
-1069.8742
 20
381.3351
 30
0.0
 10
-1055.1409
 20
373.8812
 30
0.0
 10
-1051.8164
 20
441.9158
 30
0.0
 10
-963.4303
 20
454.8289
 30
0.0
 10
-1002.2443
 20
532.47
 30
0.0
 10
-964.7797
 20
527.043
 30
0.0
 10
-942.9723
 20
475.1677
 30
0.0
 10
-962.1152
 20
429.603
 30
0.0
 10
-945.0475
 20
439.5931
 30
0.0
 10
-939.4039
 20
479.169
 30
0.0
 10
-914.6898
 20
468.1775
 30
0.0
 10
-906.9521
 20
464.7351
 30
0.0
 10
-907.1675
 20
456.7892
 30
0.0
 10
-900.0987
 20
448.8887
 30
0.0
 10
-888.4797
 20
472.1232
 30
0.0
 10
-856.7596
 20
480.707
 30
0.0
 10
-869.0894
 20
519.6135
 30
0.0
 10
-832.361
 20
510.1711
 30
0.0
 10
-829.9946
 20
453.612
 30
0.0
 10
-849.0246
 20
421.0293
 30
0.0
 10
-890.0283
 20
382.1725
 30
0.0
 10
-931.8576
 20
316.2853
 30
0.0
 10
-1011.365
 20
326.7361
 30
0.0
 10
-1050.5056
 20
331.8775
 30
0.0
 10
-1093.2345
 20
358.8053
 30
0.0
 10
-1140.8702
 20
346.0218
 30
0.0
 10
-1139.7673
 20
340.8906
 30
0.0
 10
-1138.2488
 20
336.2443
 30
0.0
 10
-1139.0469
 20
328.8775
 30
0.0
 10
-1052.3282
 20
301.4646
 30
0.0
 10
-958.0271
 20
282.9605
 30
0.0
 10
-883.6824
 20
241.0125
 30
0.0
 10
-875.0131
 20
252.3067
 30
0.0
 10
-877.7821
 20
275.7749
 30
0.0
 10
-876.3851
 20
290.3031
 30
0.0
 10
-859.5939
 20
290.8437
 30
0.0
 10
-860.616
 20
272.133
 30
0.0
 10
-847.202
 20
271.0133
 30
0.0
 10
-829.6844
 20
269.5523
 30
0.0
 10
-809.9434
 20
301.4402
 30
0.0
 10
-785.1837
 20
290.3031
 30
0.0
 10
-775.0727
 20
273.03
 30
0.0
 10
-780.8447
 20
235.0865
 30
0.0
 10
-781.5358
 20
211.0076
 30
0.0
 10
-766.519
 20
203.4809
 30
0.0
 10
-746.9823
 20
190.4007
 30
0.0
 10
-754.1753
 20
163.8594
 30
0.0
 10
-768.0978
 20
170.8011
 30
0.0
 10
-792.3517
 20
182.1054
 30
0.0
 10
-805.2477
 20
166.0049
 30
0.0
 10
-797.5333
 20
161.3131
 30
0.0
 10
-806.2147
 20
157.7167
 30
0.0
 10
-805.2477
 20
151.002
 30
0.0
 10
-801.2475
 20
123.2023
 30
0.0
 10
-766.1027
 20
102.727
 30
0.0
 10
-761.4717
 20
71.7076
 30
0.0
 10
-750.705
 20
82.6323
 30
0.0
 10
-738.1159
 20
91.4155
 30
0.0
 10
-721.3419
 20
95.2801
 30
0.0
 10
-723.1653
 20
128.4308
 30
0.0
 10
-717.0582
 20
149.8963
 30
0.0
 10
-704.9265
 20
168.1462
 30
0.0
 10
-682.7804
 20
201.4639
 30
0.0
 10
-635.4428
 20
237.9953
 30
0.0
 10
-593.66
 20
245.2963
 30
0.0
 10
-537.8137
 20
255.0556
 30
0.0
 10
-488.8697
 20
214.4055
 30
0.0
 10
-440.4411
 20
228.152
 30
0.0
 10
-438.9925
 20
243.0081
 30
0.0
 10
-456.5456
 20
242.5889
 30
0.0
 10
-464.1548
 20
245.2963
 30
0.0
 10
-540.236
 20
272.3943
 30
0.0
 10
-604.7973
 20
315.7102
 30
0.0
 10
-662.974
 20
358.8823
 30
0.0
 10
-667.3972
 20
335.5952
 30
0.0
 10
-657.6156
 20
311.0537
 30
0.0
 10
-648.3811
 20
296.7313
 30
0.0
 10
-668.8286
 20
290.1076
 30
0.0
 10
-691.023
 20
300.6171
 30
0.0
 10
-699.4543
 20
320.3039
 30
0.0
 10
-719.5623
 20
313.2124
 30
0.0
 10
-736.3776
 20
302.2533
 30
0.0
 10
-763.2962
 20
303.1595
 30
0.0
 10
-771.6964
 20
327.622
 30
0.0
 10
-761.9121
 20
357.4375
 30
0.0
 10
-759.6475
 20
382.4549
 30
0.0
 10
-775.3459
 20
387.6834
 30
0.0
 10
-796.2779
 20
406.8708
 30
0.0
 10
-783.3602
 20
431.7444
 30
0.0
 10
-770.5848
 20
419.3972
 30
0.0
 10
-733.6926
 20
413.5785
 30
0.0
 10
-728.6391
 20
438.1736
 30
0.0
 10
-748.6404
 20
461.1073
 30
0.0
 10
-756.402
 20
498.4233
 30
0.0
 10
-776.0629
 20
521.7549
 30
0.0
 10
-783.6816
 20
515.3085
 30
0.0
 10
-789.0952
 20
510.813
 30
0.0
 10
-796.1278
 20
508.8974
 30
0.0
 10
-844.4023
 20
495.7354
 30
0.0
 10
-863.8308
 20
546.7499
 30
0.0
 10
-887.4155
 20
589.9734
 30
0.0
 10
-887.4155
 20
589.9734
 30
0.0
 10
-934.4342
 20
589.9734
 30
0.0
 10
-934.4342
 20
589.9734
 30
0.0
 10
-934.392
 20
585.7684
 30
0.0
 10
-935.4464
 20
581.0829
 30
0.0
 10
-937.9535
 20
575.8608
 30
0.0
 10
-951.5328
 20
547.5762
 30
0.0
 10
-989.1104
 20
560.0554
 30
0.0
 10
-1003.6714
 20
589.9734
 30
0.0
 10
-1003.6714
 20
589.9734
 30
0.0
 10
-1200.05
 20
589.9734
 30
0.0
 10
-1200.05
 20
589.9734
 30
0.0
 10
-1200.05
 20
589.9734
 30
0.0
 10
-1200.05
 20
547.7223
 30
0.0
 10
-1200.05
 20
547.7223
 30
0.0
  0
SPLINE
  5
65
330
1F
100
AcDbEntity
  8
Layer 1
 62
   250
370
    20
100
AcDbSpline
210
0.0
220
0.0
230
1.0
 70
    11
 71
     3
 72
    14
 73
    10
 74
     0
 42
0.0000000001
 43
0.0000000001
 40
0.0
 40
0.0
 40
0.0
 40
0.0
 40
0.3333333333333333
 40
0.3333333333333333
 40
0.3333333333333333
 40
0.6666666666666666
 40
0.6666666666666666
 40
0.6666666666666666
 40
1.0
 40
1.0
 40
1.0
 40
1.0
 10
-1200.05
 20
29.25
 30
0.0
 10
-1197.1561
 20
32.4611
 30
0.0
 10
-1194.843
 20
36.3546
 30
0.0
 10
-1193.7679
 20
41.7027
 30
0.0
 10
-1196.1184
 20
43.8785
 30
0.0
 10
-1198.21
 20
46.4638
 30
0.0
 10
-1200.05
 20
49.3614
 30
0.0
 10
-1200.05
 20
49.3614
 30
0.0
 10
-1200.05
 20
29.25
 30
0.0
 10
-1200.05
 20
29.25
 30
0.0
  0
SPLINE
  5
66
330
1F
100
AcDbEntity
  8
Layer 1
 62
   250
370
    20
100
AcDbSpline
210
0.0
220
0.0
230
1.0
 70
    11
 71
     3
 72
    26
 73
    22
 74
     0
 42
0.0000000001
 43
0.0000000001
 40
0.0
 40
0.0
 40
0.0
 40
0.0
 40
0.1428571428571428
 40
0.1428571428571428
 40
0.1428571428571428
 40
0.2857142857142857
 40
0.2857142857142857
 40
0.2857142857142857
 40
0.4285714285714285
 40
0.4285714285714285
 40
0.4285714285714285
 40
0.5714285714285714
 40
0.5714285714285714
 40
0.5714285714285714
 40
0.7142857142857142
 40
0.7142857142857142
 40
0.7142857142857142
 40
0.8571428571428571
 40
0.8571428571428571
 40
0.8571428571428571
 40
1.0
 40
1.0
 40
1.0
 40
1.0
 10
-1200.05
 20
128.3913
 30
0.0
 10
-1195.0012
 20
136.1702
 30
0.0
 10
-1188.0399
 20
141.4698
 30
0.0
 10
-1179.175
 20
142.4283
 30
0.0
 10
-1142.2965
 20
146.4155
 30
0.0
 10
-1124.1524
 20
93.3301
 30
0.0
 10
-1162.7587
 20
84.565
 30
0.0
 10
-1155.7674
 20
45.3305
 30
0.0
 10
-1119.2335
 20
78.2483
 30
0.0
 10
-1115.3341
 20
99.567
 30
0.0
 10
-1111.9449
 20
135.672
 30
0.0
 10
-1130.5085
 20
168.7599
 30
0.0
 10
-1157.2875
 20
174.5745
 30
0.0
 10
-1168.0259
 20
176.9084
 30
0.0
 10
-1180.6582
 20
171.7528
 30
0.0
 10
-1191.9435
 20
172.4331
 30
0.0
 10
-1194.7247
 20
172.6005
 30
0.0
 10
-1197.4209
 20
172.966
 30
0.0
 10
-1200.05
 20
173.4842
 30
0.0
 10
-1200.05
 20
173.4842
 30
0.0
 10
-1200.05
 20
128.3913
 30
0.0
 10
-1200.05
 20
128.3913
 30
0.0
  0
SPLINE
  5
67
330
1F
100
AcDbEntity
  8
Layer 1
 62
   250
370
    20
100
AcDbSpline
210
0.0
220
0.0
230
1.0
 70
    11
 71
     3
 72
    26
 73
    22
 74
     0
 42
0.0000000001
 43
0.0000000001
 40
0.0
 40
0.0
 40
0.0
 40
0.0
 40
0.1428571428571428
 40
0.1428571428571428
 40
0.1428571428571428
 40
0.2857142857142857
 40
0.2857142857142857
 40
0.2857142857142857
 40
0.4285714285714285
 40
0.4285714285714285
 40
0.4285714285714285
 40
0.5714285714285714
 40
0.5714285714285714
 40
0.5714285714285714
 40
0.7142857142857142
 40
0.7142857142857142
 40
0.7142857142857142
 40
0.8571428571428571
 40
0.8571428571428571
 40
0.8571428571428571
 40
1.0
 40
1.0
 40
1.0
 40
1.0
 10
-1087.6483
 20
-590.0266
 30
0.0
 10
-1111.881
 20
-569.19
 30
0.0
 10
-1134.534
 20
-547.4522
 30
0.0
 10
-1135.3981
 20
-511.2105
 30
0.0
 10
-1136.0083
 20
-485.619
 30
0.0
 10
-1123.7767
 20
-474.4059
 30
0.0
 10
-1120.8071
 20
-449.0594
 30
0.0
 10
-1122.2212
 20
-448.5806
 30
0.0
 10
-1124.4032
 20
-449.0027
 30
0.0
 10
-1124.454
 20
-446.918
 30
0.0
 10
-1130.0071
 20
-446.8219
 30
0.0
 10
-1131.5462
 20
-451.4418
 30
0.0
 10
-1135.3981
 20
-453.3462
 30
0.0
 10
-1156.9233
 20
-461.7586
 30
0.0
 10
-1178.9409
 20
-453.6192
 30
0.0
 10
-1200.05
 20
-452.6745
 30
0.0
 10
-1200.05
 20
-452.6745
 30
0.0
 10
-1200.05
 20
-590.0266
 30
0.0
 10
-1200.05
 20
-590.0266
 30
0.0
 10
-1200.05
 20
-590.0266
 30
0.0
 10
-1087.6483
 20
-590.0266
 30
0.0
 10
-1087.6483
 20
-590.0266
 30
0.0
  0
SPLINE
  5
68
330
1F
100
AcDbEntity
  8
Layer 1
 62
   250
370
    20
100
AcDbSpline
210
0.0
220
0.0
230
1.0
 70
    11
 71
     3
 72
    29
 73
    25
 74
     0
 42
0.0000000001
 43
0.0000000001
 40
0.0
 40
0.0
 40
0.0
 40
0.0
 40
0.125
 40
0.125
 40
0.125
 40
0.25
 40
0.25
 40
0.25
 40
0.375
 40
0.375
 40
0.375
 40
0.5
 40
0.5
 40
0.5
 40
0.625
 40
0.625
 40
0.625
 40
0.75
 40
0.75
 40
0.75
 40
0.875
 40
0.875
 40
0.875
 40
1.0
 40
1.0
 40
1.0
 40
1.0
 10
-1106.2133
 20
-93.3094
 30
0.0
 10
-1098.7265
 20
-98.1856
 30
0.0
 10
-1093.6939
 20
-108.1109
 30
0.0
 10
-1086.1493
 20
-108.3103
 30
0.0
 10
-1076.8458
 20
-106.0748
 30
0.0
 10
-1036.5652
 20
-74.1442
 30
0.0
 10
-1020.4849
 20
-37.5885
 30
0.0
 10
-999.2601
 20
15.7863
 30
0.0
 10
-1056.5103
 20
37.4827
 30
0.0
 10
-1055.1409
 20
80.2812
 30
0.0
 10
-1054.4378
 20
102.2632
 30
0.0
 10
-1042.4931
 20
106.4802
 30
0.0
 10
-1036.9012
 20
118.8557
 30
0.0
 10
-1048.7252
 20
136.4051
 30
0.0
 10
-1064.9339
 20
160.2003
 30
0.0
 10
-1086.1493
 20
159.5726
 30
0.0
 10
-1045.5256
 20
97.537
 30
0.0
 10
-1087.5445
 20
-10.7902
 30
0.0
 10
-1164.583
 20
20.2726
 30
0.0
 10
-1155.5347
 20
-17.7682
 30
0.0
 10
-1190.1786
 20
-37.0135
 30
0.0
 10
-1199.2399
 20
-67.5914
 30
0.0
 10
-1168.1904
 20
-69.4129
 30
0.0
 10
-1130.7077
 20
-77.3587
 30
0.0
 10
-1106.2133
 20
-93.3094
 30
0.0
  0
SPLINE
  5
69
330
1F
100
AcDbEntity
  8
Layer 1
 62
   250
370
    20
100
AcDbSpline
210
0.0
220
0.0
230
1.0
 70
    11
 71
     3
 72
    17
 73
    13
 74
     0
 42
0.0000000001
 43
0.0000000001
 40
0.0
 40
0.0
 40
0.0
 40
0.0
 40
0.25
 40
0.25
 40
0.25
 40
0.5
 40
0.5
 40
0.5
 40
0.75
 40
0.75
 40
0.75
 40
1.0
 40
1.0
 40
1.0
 40
1.0
 10
-1149.9902
 20
-230.466
 30
0.0
 10
-1136.5323
 20
-263.8697
 30
0.0
 10
-1096.3187
 20
-262.995
 30
0.0
 10
-1069.733
 20
-284.0434
 30
0.0
 10
-1066.6574
 20
-289.7174
 30
0.0
 10
-1071.222
 20
-304.3669
 30
0.0
 10
-1064.2617
 20
-305.4746
 30
0.0
 10
-1036.4289
 20
-231.0036
 30
0.0
 10
-1084.1199
 20
-168.7745
 30
0.0
 10
-1129.927
 20
-146.8868
 30
0.0
 10
-1139.8414
 20
-177.4789
 30
0.0
 10
-1161.822
 20
-201.0981
 30
0.0
 10
-1149.9902
 20
-230.466
 30
0.0
  0
SPLINE
  5
6A
330
1F
100
AcDbEntity
  8
Layer 1
 62
   250
370
    20
100
AcDbSpline
210
0.0
220
0.0
230
1.0
 70
    11
 71
     3
 72
    23
 73
    19
 74
     0
 42
0.0000000001
 43
0.0000000001
 40
0.0
 40
0.0
 40
0.0
 40
0.0
 40
0.1666666666666667
 40
0.1666666666666667
 40
0.1666666666666667
 40
0.3333333333333333
 40
0.3333333333333333
 40
0.3333333333333333
 40
0.5
 40
0.5
 40
0.5
 40
0.6666666666666666
 40
0.6666666666666666
 40
0.6666666666666666
 40
0.8333333333333333
 40
0.8333333333333333
 40
0.8333333333333333
 40
1.0
 40
1.0
 40
1.0
 40
1.0
 10
-1098.9179
 20
215.2945
 30
0.0
 10
-1037.2054
 20
188.5063
 30
0.0
 10
-984.9843
 20
150.5626
 30
0.0
 10
-965.7638
 20
73.849
 30
0.0
 10
-950.5885
 20
89.5981
 30
0.0
 10
-943.8841
 20
115.2949
 30
0.0
 10
-932.9304
 20
136.0001
 30
0.0
 10
-951.8802
 20
149.9135
 30
0.0
 10
-967.6228
 20
159.6141
 30
0.0
 10
-987.6513
 20
183.1482
 30
0.0
 10
-996.4258
 20
193.4552
 30
0.0
 10
-1020.3694
 20
239.6142
 30
0.0
 10
-1031.4283
 20
243.1538
 30
0.0
 10
-1050.8839
 20
249.3836
 30
0.0
 10
-1081.0141
 20
229.9207
 30
0.0
 10
-1104.389
 20
228.152
 30
0.0
 10
-1100.4604
 20
226.3416
 30
0.0
 10
-1101.447
 20
218.7521
 30
0.0
 10
-1098.9179
 20
215.2945
 30
0.0
  0
SPLINE
  5
6B
330
1F
100
AcDbEntity
  8
Layer 1
 62
   250
370
    20
100
AcDbSpline
210
0.0
220
0.0
230
1.0
 70
    11
 71
     3
 72
    38
 73
    34
 74
     0
 42
0.0000000001
 43
0.0000000001
 40
0.0
 40
0.0
 40
0.0
 40
0.0
 40
0.0909090909090909
 40
0.0909090909090909
 40
0.0909090909090909
 40
0.1818181818181818
 40
0.1818181818181818
 40
0.1818181818181818
 40
0.2727272727272727
 40
0.2727272727272727
 40
0.2727272727272727
 40
0.3636363636363636
 40
0.3636363636363636
 40
0.3636363636363636
 40
0.4545454545454546
 40
0.4545454545454546
 40
0.4545454545454546
 40
0.5454545454545454
 40
0.5454545454545454
 40
0.5454545454545454
 40
0.6363636363636364
 40
0.6363636363636364
 40
0.6363636363636364
 40
0.7272727272727273
 40
0.7272727272727273
 40
0.7272727272727273
 40
0.8181818181818182
 40
0.8181818181818182
 40
0.8181818181818182
 40
0.9090909090909092
 40
0.9090909090909092
 40
0.9090909090909092
 40
1.0
 40
1.0
 40
1.0
 40
1.0
 10
-1064.8459
 20
-142.0593
 30
0.0
 10
-1045.959
 20
-184.548
 30
0.0
 10
-1031.1714
 20
-206.4105
 30
0.0
 10
-1025.9563
 20
-202.6056
 30
0.0
 10
-1011.0635
 20
-195.8473
 30
0.0
 10
-1017.8454
 20
-175.2433
 30
0.0
 10
-1004.0677
 20
-168.317
 30
0.0
 10
-975.6438
 20
-154.0288
 30
0.0
 10
-933.438
 20
-186.6874
 30
0.0
 10
-949.3466
 20
-226.1792
 30
0.0
 10
-957.5713
 20
-237.0694
 30
0.0
 10
-977.7429
 20
-236.8335
 30
0.0
 10
-985.8271
 20
-226.1792
 30
0.0
 10
-984.6086
 20
-245.4629
 30
0.0
 10
-977.0873
 20
-257.3423
 30
0.0
 10
-969.4108
 20
-269.0415
 30
0.0
 10
-895.3763
 20
-277.1131
 30
0.0
 10
-882.98
 20
-163.363
 30
0.0
 10
-808.8964
 20
-185.4614
 30
0.0
 10
-810.1467
 20
-163.6849
 30
0.0
 10
-797.0094
 20
-127.9686
 30
0.0
 10
-808.8964
 20
-114.7407
 30
0.0
 10
-827.1189
 20
-145.6061
 30
0.0
 10
-858.01
 20
-171.887
 30
0.0
 10
-898.2742
 20
-176.8897
 30
0.0
 10
-941.6961
 20
-182.2821
 30
0.0
 10
-971.2981
 20
-153.233
 30
0.0
 10
-996.7714
 20
-129.7404
 30
0.0
 10
-997.7649
 20
-118.8998
 30
0.0
 10
-1005.038
 20
-107.5631
 30
0.0
 10
-1004.0677
 20
-95.4509
 30
0.0
 10
-1014.9637
 20
-87.9848
 30
0.0
 10
-1043.2161
 20
-123.1563
 30
0.0
 10
-1064.8459
 20
-142.0593
 30
0.0
  0
SPLINE
  5
6C
330
1F
100
AcDbEntity
  8
Layer 1
 62
   250
370
    20
100
AcDbSpline
210
0.0
220
0.0
230
1.0
 70
    11
 71
     3
 72
    29
 73
    25
 74
     0
 42
0.0000000001
 43
0.0000000001
 40
0.0
 40
0.0
 40
0.0
 40
0.0
 40
0.125
 40
0.125
 40
0.125
 40
0.25
 40
0.25
 40
0.25
 40
0.375
 40
0.375
 40
0.375
 40
0.5
 40
0.5
 40
0.5
 40
0.625
 40
0.625
 40
0.625
 40
0.75
 40
0.75
 40
0.75
 40
0.875
 40
0.875
 40
0.875
 40
1.0
 40
1.0
 40
1.0
 40
1.0
 10
-1046.0935
 20
-354.7641
 30
0.0
 10
-1030.5941
 20
-369.0796
 30
0.0
 10
-1021.488
 20
-386.8618
 30
0.0
 10
-1019.8687
 20
-414.2463
 30
0.0
 10
-1003.4067
 20
-433.9391
 30
0.0
 10
-977.6991
 20
-444.0324
 30
0.0
 10
-963.9395
 20
-442.6311
 30
0.0
 10
-946.8217
 20
-430.5958
 30
0.0
 10
-928.5752
 20
-419.8889
 30
0.0
 10
-916.5141
 20
-401.9133
 30
0.0
 10
-922.5412
 20
-385.9151
 30
0.0
 10
-937.8441
 20
-384.4967
 30
0.0
 10
-938.4033
 20
-367.6236
 30
0.0
 10
-939.1411
 20
-345.3188
 30
0.0
 10
-914.5846
 20
-339.3491
 30
0.0
 10
-909.2185
 20
-318.3331
 30
0.0
 10
-923.2926
 20
-311.5282
 30
0.0
 10
-941.5427
 20
-320.2568
 30
0.0
 10
-956.6439
 20
-318.3331
 30
0.0
 10
-984.8714
 20
-314.7357
 30
0.0
 10
-1005.1259
 20
-288.9418
 30
0.0
 10
-1023.4804
 20
-276.5207
 30
0.0
 10
-1023.5545
 20
-323.2365
 30
0.0
 10
-1040.4602
 20
-329.9522
 30
0.0
 10
-1046.0935
 20
-354.7641
 30
0.0
  0
SPLINE
  5
6D
330
1F
100
AcDbEntity
  8
Layer 1
 62
   250
370
    20
100
AcDbSpline
210
0.0
220
0.0
230
1.0
 70
    11
 71
     3
 72
    11
 73
     7
 74
     0
 42
0.0000000001
 43
0.0000000001
 40
0.0
 40
0.0
 40
0.0
 40
0.0
 40
0.5
 40
0.5
 40
0.5
 40
1.0
 40
1.0
 40
1.0
 40
1.0
 10
-898.2742
 20
200.2925
 30
0.0
 10
-919.5414
 20
216.7423
 30
0.0
 10
-947.9507
 20
236.2163
 30
0.0
 10
-978.5315
 20
234.5802
 30
0.0
 10
-967.1478
 20
208.9118
 30
0.0
 10
-921.2374
 20
158.4913
 30
0.0
 10
-898.2742
 20
200.2925
 30
0.0
  0
SPLINE
  5
6E
330
1F
100
AcDbEntity
  8
Layer 1
 62
   250
370
    20
100
AcDbSpline
210
0.0
220
0.0
230
1.0
 70
    11
 71
     3
 72
    32
 73
    28
 74
     0
 42
0.0000000001
 43
0.0000000001
 40
0.0
 40
0.0
 40
0.0
 40
0.0
 40
0.1111111111111111
 40
0.1111111111111111
 40
0.1111111111111111
 40
0.2222222222222222
 40
0.2222222222222222
 40
0.2222222222222222
 40
0.3333333333333333
 40
0.3333333333333333
 40
0.3333333333333333
 40
0.4444444444444444
 40
0.4444444444444444
 40
0.4444444444444444
 40
0.5555555555555556
 40
0.5555555555555556
 40
0.5555555555555556
 40
0.6666666666666666
 40
0.6666666666666666
 40
0.6666666666666666
 40
0.7777777777777777
 40
0.7777777777777777
 40
0.7777777777777777
 40
0.8888888888888888
 40
0.8888888888888888
 40
0.8888888888888888
 40
1.0
 40
1.0
 40
1.0
 40
1.0
 10
-960.5209
 20
-132.1542
 30
0.0
 10
-906.324
 20
-153.8699
 30
0.0
 10
-843.4136
 20
-131.4303
 30
0.0
 10
-836.2569
 20
-74.0207
 30
0.0
 10
-832.4246
 20
-43.2747
 30
0.0
 10
-847.5148
 20
8.0216
 30
0.0
 10
-832.6082
 20
35.2745
 30
0.0
 10
-849.6063
 20
43.8796
 30
0.0
 10
-859.4241
 20
60.9186
 30
0.0
 10
-867.2652
 20
80.2812
 30
0.0
 10
-896.3233
 20
62.2722
 30
0.0
 10
-937.4562
 20
46.3845
 30
0.0
 10
-968.7386
 20
30.9876
 30
0.0
 10
-954.7369
 20
14.623
 30
0.0
 10
-990.1082
 20
-7.8855
 30
0.0
 10
-965.9939
 20
-29.2872
 30
0.0
 10
-941.0292
 20
-29.8006
 30
0.0
 10
-928.8138
 20
-34.1655
 30
0.0
 10
-928.3804
 20
-53.526
 30
0.0
 10
-928.0797
 20
-66.9576
 30
0.0
 10
-940.2751
 20
-81.2042
 30
0.0
 10
-952.9954
 20
-76.164
 30
0.0
 10
-962.4745
 20
-72.4068
 30
0.0
 10
-956.4079
 20
-59.7457
 30
0.0
 10
-967.5865
 20
-54.7329
 30
0.0
 10
-1000.8569
 20
-73.1479
 30
0.0
 10
-981.209
 20
-118.7661
 30
0.0
 10
-960.5209
 20
-132.1542
 30
0.0
  0
SPLINE
  5
6F
330
1F
100
AcDbEntity
  8
Layer 1
 62
   250
370
    20
100
AcDbSpline
210
0.0
220
0.0
230
1.0
 70
    11
 71
     3
 72
    32
 73
    28
 74
     0
 42
0.0000000001
 43
0.0000000001
 40
0.0
 40
0.0
 40
0.0
 40
0.0
 40
0.1111111111111111
 40
0.1111111111111111
 40
0.1111111111111111
 40
0.2222222222222222
 40
0.2222222222222222
 40
0.2222222222222222
 40
0.3333333333333333
 40
0.3333333333333333
 40
0.3333333333333333
 40
0.4444444444444444
 40
0.4444444444444444
 40
0.4444444444444444
 40
0.5555555555555556
 40
0.5555555555555556
 40
0.5555555555555556
 40
0.6666666666666666
 40
0.6666666666666666
 40
0.6666666666666666
 40
0.7777777777777777
 40
0.7777777777777777
 40
0.7777777777777777
 40
0.8888888888888888
 40
0.8888888888888888
 40
0.8888888888888888
 40
1.0
 40
1.0
 40
1.0
 40
1.0
 10
-807.072
 20
-382.6256
 30
0.0
 10
-819.3037
 20
-398.8556
 30
0.0
 10
-846.8322
 20
-430.7214
 30
0.0
 10
-859.9687
 20
-451.2029
 30
0.0
 10
-964.5497
 20
-552.1623
 30
0.0
 10
-1001.4394
 20
-457.6979
 30
0.0
 10
-1029.129
 20
-458.7448
 30
0.0
 10
-1035.6257
 20
-479.8013
 30
0.0
 10
-1073.5152
 20
-516.3518
 30
0.0
 10
-1059.3634
 20
-549.2858
 30
0.0
 10
-1053.7984
 20
-563.0369
 30
0.0
 10
-1042.5978
 20
-576.3006
 30
0.0
 10
-1028.7029
 20
-590.0266
 30
0.0
 10
-1028.7029
 20
-590.0266
 30
0.0
 10
-874.3209
 20
-590.0266
 30
0.0
 10
-874.3209
 20
-590.0266
 30
0.0
 10
-818.1831
 20
-540.7583
 30
0.0
 10
-776.5177
 20
-475.1973
 30
0.0
 10
-750.5267
 20
-399.7698
 30
0.0
 10
-750.5267
 20
-399.7698
 30
0.0
 10
-745.0555
 20
-380.4821
 30
0.0
 10
-745.0555
 20
-380.4821
 30
0.0
 10
-735.3694
 20
-343.5944
 30
0.0
 10
-722.5319
 20
-207.3076
 30
0.0
 10
-776.0629
 20
-159.7433
 30
0.0
 10
-760.3152
 20
-244.339
 30
0.0
 10
-767.2929
 20
-335.7669
 30
0.0
 10
-807.072
 20
-382.6256
 30
0.0
  0
SPLINE
  5
70
330
1F
100
AcDbEntity
  8
Layer 1
 62
   250
370
    20
100
AcDbSpline
210
0.0
220
0.0
230
1.0
 70
    11
 71
     3
 72
    14
 73
    10
 74
     0
 42
0.0000000001
 43
0.0000000001
 40
0.0
 40
0.0
 40
0.0
 40
0.0
 40
0.3333333333333333
 40
0.3333333333333333
 40
0.3333333333333333
 40
0.6666666666666666
 40
0.6666666666666666
 40
0.6666666666666666
 40
1.0
 40
1.0
 40
1.0
 40
1.0
 10
-892.8022
 20
-322.6179
 30
0.0
 10
-878.4808
 20
-315.1549
 30
0.0
 10
-859.4327
 20
-313.2474
 30
0.0
 10
-856.3219
 20
-292.615
 30
0.0
 10
-870.6682
 20
-288.2573
 30
0.0
 10
-880.3293
 20
-307.0075
 30
0.0
 10
-894.6257
 20
-309.7593
 30
0.0
 10
-894.8662
 20
-315.0435
 30
0.0
 10
-894.9014
 20
-320.0856
 30
0.0
 10
-892.8022
 20
-322.6179
 30
0.0
  0
SPLINE
  5
71
330
1F
100
AcDbEntity
  8
Layer 1
 62
   250
370
    20
100
AcDbSpline
210
0.0
220
0.0
230
1.0
 70
    11
 71
     3
 72
    14
 73
    10
 74
     0
 42
0.0000000001
 43
0.0000000001
 40
0.0
 40
0.0
 40
0.0
 40
0.0
 40
0.3333333333333333
 40
0.3333333333333333
 40
0.3333333333333333
 40
0.6666666666666666
 40
0.6666666666666666
 40
0.6666666666666666
 40
1.0
 40
1.0
 40
1.0
 40
1.0
 10
-790.2535
 20
-590.0266
 30
0.0
 10
-789.3145
 20
-584.9818
 30
0.0
 10
-788.2326
 20
-580.1208
 30
0.0
 10
-787.008
 20
-575.503
 30
0.0
 10
-789.605
 20
-575.8642
 30
0.0
 10
-797.3287
 20
-581.9042
 30
0.0
 10
-806.9127
 20
-590.0266
 30
0.0
 10
-806.9127
 20
-590.0266
 30
0.0
 10
-790.2535
 20
-590.0266
 30
0.0
 10
-790.2535
 20
-590.0266
 30
0.0
  0
SPLINE
  5
72
330
1F
100
AcDbEntity
  8
Layer 1
 62
   250
370
    20
100
AcDbSpline
210
0.0
220
0.0
230
1.0
 70
    11
 71
     3
 72
    11
 73
     7
 74
     0
 42
0.0000000001
 43
0.0000000001
 40
0.0
 40
0.0
 40
0.0
 40
0.0
 40
0.5
 40
0.5
 40
0.5
 40
1.0
 40
1.0
 40
1.0
 40
1.0
 10
-794.3036
 20
56.7057
 30
0.0
 10
-794.8189
 20
85.7122
 30
0.0
 10
-809.8737
 20
115.3293
 30
0.0
 10
-828.9613
 20
129.5718
 30
0.0
 10
-831.3199
 20
105.0394
 30
0.0
 10
-825.7316
 20
48.0996
 30
0.0
 10
-794.3036
 20
56.7057
 30
0.0
  0
SPLINE
  5
73
330
1F
100
AcDbEntity
  8
Layer 1
 62
   250
370
    20
100
AcDbSpline
210
0.0
220
0.0
230
1.0
 70
    11
 71
     3
 72
    11
 73
     7
 74
     0
 42
0.0000000001
 43
0.0000000001
 40
0.0
 40
0.0
 40
0.0
 40
0.0
 40
0.5
 40
0.5
 40
0.5
 40
1.0
 40
1.0
 40
1.0
 40
1.0
 10
-734.1113
 20
532.47
 30
0.0
 10
-734.7465
 20
506.7104
 30
0.0
 10
-717.6561
 20
483.232
 30
0.0
 10
-704.9265
 20
466.0361
 30
0.0
 10
-680.3485
 20
485.3805
 30
0.0
 10
-700.5816
 20
554.7172
 30
0.0
 10
-734.1113
 20
532.47
 30
0.0
  0
SPLINE
  5
74
330
1F
100
AcDbEntity
  8
Layer 1
 62
   250
370
    20
100
AcDbSpline
210
0.0
220
0.0
230
1.0
 70
    11
 71
     3
 72
    35
 73
    31
 74
     0
 42
0.0000000001
 43
0.0000000001
 40
0.0
 40
0.0
 40
0.0
 40
0.0
 40
0.1
 40
0.1
 40
0.1
 40
0.2
 40
0.2
 40
0.2
 40
0.3
 40
0.3
 40
0.3
 40
0.4
 40
0.4
 40
0.4
 40
0.5
 40
0.5
 40
0.5
 40
0.6000000000000001
 40
0.6000000000000001
 40
0.6000000000000001
 40
0.7000000000000001
 40
0.7000000000000001
 40
0.7000000000000001
 40
0.8
 40
0.8
 40
0.8
 40
0.9
 40
0.9
 40
0.9
 40
1.0
 40
1.0
 40
1.0
 40
1.0
 10
-695.8057
 20
82.4227
 30
0.0
 10
-655.1441
 20
68.2297
 30
0.0
 10
-633.0859
 20
-45.7704
 30
0.0
 10
-568.1239
 20
-39.7321
 30
0.0
 10
-539.0158
 20
-37.0257
 30
0.0
 10
-520.5156
 20
15.0158
 30
0.0
 10
-564.4761
 20
15.9888
 30
0.0
 10
-568.2066
 20
11.4781
 30
0.0
 10
-560.5637
 20
-1.761
 30
0.0
 10
-568.1239
 20
-5.4424
 30
0.0
 10
-584.6659
 20
-4.8764
 30
0.0
 10
-595.113
 20
2.8489
 30
0.0
 10
-599.133
 20
18.1301
 30
0.0
 10
-596.7536
 20
26.7636
 30
0.0
 10
-591.7358
 20
32.2989
 30
0.0
 10
-586.3637
 20
37.4199
 30
0.0
 10
-594.246
 20
60.389
 30
0.0
 10
-602.2163
 20
77.2296
 30
0.0
 10
-599.133
 20
103.8538
 30
0.0
 10
-595.2974
 20
136.966
 30
0.0
 10
-566.9148
 20
157.6509
 30
0.0
 10
-566.2995
 20
183.1482
 30
0.0
 10
-599.3649
 20
171.4146
 30
0.0
 10
-601.6174
 20
108.092
 30
0.0
 10
-644.7333
 20
105.9952
 30
0.0
 10
-654.1566
 20
110.6415
 30
0.0
 10
-654.3824
 20
126.0939
 30
0.0
 10
-664.7982
 20
129.5718
 30
0.0
 10
-680.9293
 20
111.8525
 30
0.0
 10
-690.0157
 20
109.3759
 30
0.0
 10
-695.8057
 20
82.4227
 30
0.0
  0
SPLINE
  5
75
330
1F
100
AcDbEntity
  8
Layer 1
 62
   250
370
    20
100
AcDbSpline
210
0.0
220
0.0
230
1.0
 70
    11
 71
     3
 72
    20
 73
    16
 74
     0
 42
0.0000000001
 43
0.0000000001
 40
0.0
 40
0.0
 40
0.0
 40
0.0
 40
0.2
 40
0.2
 40
0.2
 40
0.4
 40
0.4
 40
0.4
 40
0.6000000000000001
 40
0.6000000000000001
 40
0.6000000000000001
 40
0.8
 40
0.8
 40
0.8
 40
1.0
 40
1.0
 40
1.0
 40
1.0
 10
-671.9887
 20
-126.9329
 30
0.0
 10
-664.6027
 20
-126.3244
 30
0.0
 10
-652.1185
 20
-119.6338
 30
0.0
 10
-644.7333
 20
-119.0254
 30
0.0
 10
-645.0918
 20
-89.0701
 30
0.0
 10
-611.9507
 20
-103.1893
 30
0.0
 10
-608.2529
 20
-82.5944
 30
0.0
 10
-625.5429
 20
-70.553
 30
0.0
 10
-644.4084
 20
-71.9977
 30
0.0
 10
-659.3253
 20
-59.0197
 30
0.0
 10
-669.755
 20
-49.9459
 30
0.0
 10
-679.3308
 20
-29.6396
 30
0.0
 10
-693.6461
 20
-26.6032
 30
0.0
 10
-688.4256
 20
-61.1875
 30
0.0
 10
-675.4995
 20
-90.3398
 30
0.0
 10
-671.9887
 20
-126.9329
 30
0.0
  0
SPLINE
  5
76
330
1F
100
AcDbEntity
  8
Layer 1
 62
   250
370
    20
100
AcDbSpline
210
0.0
220
0.0
230
1.0
 70
    11
 71
     3
 72
    20
 73
    16
 74
     0
 42
0.0000000001
 43
0.0000000001
 40
0.0
 40
0.0
 40
0.0
 40
0.0
 40
0.2
 40
0.2
 40
0.2
 40
0.4
 40
0.4
 40
0.4
 40
0.6000000000000001
 40
0.6000000000000001
 40
0.6000000000000001
 40
0.8
 40
0.8
 40
0.8
 40
1.0
 40
1.0
 40
1.0
 40
1.0
 10
-680.186
 20
589.9734
 30
0.0
 10
-680.5154
 20
574.3173
 30
0.0
 10
-682.7108
 20
558.0846
 30
0.0
 10
-688.51
 20
547.4729
 30
0.0
 10
-671.3441
 20
542.6383
 30
0.0
 10
-665.5317
 20
524.4653
 30
0.0
 10
-655.6784
 20
511.0398
 30
0.0
 10
-630.6333
 20
525.1903
 30
0.0
 10
-602.7266
 20
535.9792
 30
0.0
 10
-573.5969
 20
545.3275
 30
0.0
 10
-576.872
 20
564.7804
 30
0.0
 10
-571.1135
 20
574.8677
 30
0.0
 10
-567.6199
 20
589.9734
 30
0.0
 10
-567.6199
 20
589.9734
 30
0.0
 10
-680.186
 20
589.9734
 30
0.0
 10
-680.186
 20
589.9734
 30
0.0
  0
SPLINE
  5
77
330
1F
100
AcDbEntity
  8
Layer 1
 62
   250
370
    20
100
AcDbSpline
210
0.0
220
0.0
230
1.0
 70
    11
 71
     3
 72
   179
 73
   175
 74
     0
 42
0.0000000001
 43
0.0000000001
 40
0.0
 40
0.0
 40
0.0
 40
0.0
 40
0.0172413793103448
 40
0.0172413793103448
 40
0.0172413793103448
 40
0.0344827586206897
 40
0.0344827586206897
 40
0.0344827586206897
 40
0.0517241379310345
 40
0.0517241379310345
 40
0.0517241379310345
 40
0.0689655172413793
 40
0.0689655172413793
 40
0.0689655172413793
 40
0.0862068965517241
 40
0.0862068965517241
 40
0.0862068965517241
 40
0.103448275862069
 40
0.103448275862069
 40
0.103448275862069
 40
0.1206896551724138
 40
0.1206896551724138
 40
0.1206896551724138
 40
0.1379310344827586
 40
0.1379310344827586
 40
0.1379310344827586
 40
0.1551724137931035
 40
0.1551724137931035
 40
0.1551724137931035
 40
0.1724137931034483
 40
0.1724137931034483
 40
0.1724137931034483
 40
0.1896551724137931
 40
0.1896551724137931
 40
0.1896551724137931
 40
0.2068965517241379
 40
0.2068965517241379
 40
0.2068965517241379
 40
0.2241379310344828
 40
0.2241379310344828
 40
0.2241379310344828
 40
0.2413793103448276
 40
0.2413793103448276
 40
0.2413793103448276
 40
0.2586206896551724
 40
0.2586206896551724
 40
0.2586206896551724
 40
0.2758620689655172
 40
0.2758620689655172
 40
0.2758620689655172
 40
0.293103448275862
 40
0.293103448275862
 40
0.293103448275862
 40
0.3103448275862069
 40
0.3103448275862069
 40
0.3103448275862069
 40
0.3275862068965517
 40
0.3275862068965517
 40
0.3275862068965517
 40
0.3448275862068966
 40
0.3448275862068966
 40
0.3448275862068966
 40
0.3620689655172414
 40
0.3620689655172414
 40
0.3620689655172414
 40
0.3793103448275862
 40
0.3793103448275862
 40
0.3793103448275862
 40
0.396551724137931
 40
0.396551724137931
 40
0.396551724137931
 40
0.4137931034482759
 40
0.4137931034482759
 40
0.4137931034482759
 40
0.4310344827586207
 40
0.4310344827586207
 40
0.4310344827586207
 40
0.4482758620689655
 40
0.4482758620689655
 40
0.4482758620689655
 40
0.4655172413793103
 40
0.4655172413793103
 40
0.4655172413793103
 40
0.4827586206896551
 40
0.4827586206896551
 40
0.4827586206896551
 40
0.5
 40
0.5
 40
0.5
 40
0.5172413793103449
 40
0.5172413793103449
 40
0.5172413793103449
 40
0.5344827586206896
 40
0.5344827586206896
 40
0.5344827586206896
 40
0.5517241379310345
 40
0.5517241379310345
 40
0.5517241379310345
 40
0.5689655172413793
 40
0.5689655172413793
 40
0.5689655172413793
 40
0.5862068965517241
 40
0.5862068965517241
 40
0.5862068965517241
 40
0.603448275862069
 40
0.603448275862069
 40
0.603448275862069
 40
0.6206896551724138
 40
0.6206896551724138
 40
0.6206896551724138
 40
0.6379310344827586
 40
0.6379310344827586
 40
0.6379310344827586
 40
0.6551724137931034
 40
0.6551724137931034
 40
0.6551724137931034
 40
0.6724137931034483
 40
0.6724137931034483
 40
0.6724137931034483
 40
0.6896551724137931
 40
0.6896551724137931
 40
0.6896551724137931
 40
0.7068965517241379
 40
0.7068965517241379
 40
0.7068965517241379
 40
0.7241379310344828
 40
0.7241379310344828
 40
0.7241379310344828
 40
0.7413793103448276
 40
0.7413793103448276
 40
0.7413793103448276
 40
0.7586206896551724
 40
0.7586206896551724
 40
0.7586206896551724
 40
0.7758620689655172
 40
0.7758620689655172
 40
0.7758620689655172
 40
0.7931034482758621
 40
0.7931034482758621
 40
0.7931034482758621
 40
0.8103448275862069
 40
0.8103448275862069
 40
0.8103448275862069
 40
0.8275862068965517
 40
0.8275862068965517
 40
0.8275862068965517
 40
0.8448275862068966
 40
0.8448275862068966
 40
0.8448275862068966
 40
0.8620689655172413
 40
0.8620689655172413
 40
0.8620689655172413
 40
0.8793103448275862
 40
0.8793103448275862
 40
0.8793103448275862
 40
0.896551724137931
 40
0.896551724137931
 40
0.896551724137931
 40
0.9137931034482758
 40
0.9137931034482758
 40
0.9137931034482758
 40
0.9310344827586207
 40
0.9310344827586207
 40
0.9310344827586207
 40
0.9482758620689655
 40
0.9482758620689655
 40
0.9482758620689655
 40
0.9655172413793103
 40
0.9655172413793103
 40
0.9655172413793103
 40
0.9827586206896551
 40
0.9827586206896551
 40
0.9827586206896551
 40
1.0
 40
1.0
 40
1.0
 40
1.0
 10
-369.3039
 20
-470.4906
 30
0.0
 10
-366.0904
 20
-442.8752
 30
0.0
 10
-383.9777
 20
-416.7846
 30
0.0
 10
-387.5445
 20
-382.6256
 30
0.0
 10
-388.8716
 20
-369.9129
 30
0.0
 10
-385.821
 20
-353.4054
 30
0.0
 10
-387.5445
 20
-341.9056
 30
0.0
 10
-391.2182
 20
-317.3946
 30
0.0
 10
-410.0345
 20
-299.4786
 30
0.0
 10
-433.1457
 20
-303.3312
 30
0.0
 10
-438.1817
 20
-308.1293
 30
0.0
 10
-442.699
 20
-313.537
 30
0.0
 10
-442.2655
 20
-324.7613
 30
0.0
 10
-403.6282
 20
-331.9409
 30
0.0
 10
-428.207
 20
-405.297
 30
0.0
 10
-467.8017
 20
-395.483
 30
0.0
 10
-511.6295
 20
-385.1963
 30
0.0
 10
-509.5724
 20
-309.8779
 30
0.0
 10
-478.7458
 20
-288.3282
 30
0.0
 10
-465.7119
 20
-276.5632
 30
0.0
 10
-447.48
 20
-278.0637
 30
0.0
 10
-434.97
 20
-262.6123
 30
0.0
 10
-438.6945
 20
-256.2731
 30
0.0
 10
-444.6129
 20
-252.5118
 30
0.0
 10
-451.3854
 20
-249.7537
 30
0.0
 10
-452.7659
 20
-228.9565
 30
0.0
 10
-433.6739
 20
-221.2717
 30
0.0
 10
-427.6736
 20
-221.8943
 30
0.0
 10
-426.9342
 20
-207.0453
 30
0.0
 10
-428.5913
 20
-189.3837
 30
0.0
 10
-422.2006
 20
-181.1745
 30
0.0
 10
-406.8925
 20
-182.4775
 30
0.0
 10
-397.1814
 20
-190.3545
 30
0.0
 10
-387.5445
 20
-198.3198
 30
0.0
 10
-379.1398
 20
-190.3354
 30
0.0
 10
-376.1591
 20
-175.9774
 30
0.0
 10
-358.3596
 20
-179.033
 30
0.0
 10
-360.6976
 20
-201.2307
 30
0.0
 10
-353.0246
 20
-205.7028
 30
0.0
 10
-345.592
 20
-219.751
 30
0.0
 10
-350.0395
 20
-283.5553
 30
0.0
 10
-310.0071
 20
-295.0967
 30
0.0
 10
-305.463
 20
-348.3359
 30
0.0
 10
-298.0605
 20
-342.746
 30
0.0
 10
-283.2255
 20
-345.8887
 30
0.0
 10
-274.4538
 20
-341.9056
 30
0.0
 10
-293.7114
 20
-254.566
 30
0.0
 10
-231.7507
 20
-243.7417
 30
0.0
 10
-227.0301
 20
-172.6028
 30
0.0
 10
-218.8703
 20
-172.3041
 30
0.0
 10
-218.6065
 20
-181.2787
 30
0.0
 10
-210.6129
 20
-181.1745
 30
0.0
 10
-199.7437
 20
-170.1961
 30
0.0
 10
-200.01
 20
-138.0378
 30
0.0
 10
-208.7894
 20
-125.4557
 30
0.0
 10
-214.6622
 20
-124.9829
 30
0.0
 10
-216.5073
 20
-129.2454
 30
0.0
 10
-223.3815
 20
-127.5971
 30
0.0
 10
-235.7958
 20
-106.5314
 30
0.0
 10
-263.5949
 20
-99.4066
 30
0.0
 10
-283.5738
 20
-104.0245
 30
0.0
 10
-287.1706
 20
-72.5222
 30
0.0
 10
-252.9481
 20
-67.24
 30
0.0
 10
-228.8526
 20
-61.1632
 30
0.0
 10
-237.9778
 20
-24.402
 30
0.0
 10
-230.3272
 20
17.3495
 30
0.0
 10
-212.4372
 20
35.2745
 30
0.0
 10
-214.6416
 20
44.8324
 30
0.0
 10
-217.0622
 20
54.131
 30
0.0
 10
-225.2058
 20
56.7057
 30
0.0
 10
-238.9636
 20
45.0096
 30
0.0
 10
-246.6005
 20
26.1258
 30
0.0
 10
-258.0375
 20
11.7019
 30
0.0
 10
-275.6508
 20
43.9453
 30
0.0
 10
-263.6905
 20
100.1279
 30
0.0
 10
-243.4463
 20
118.8557
 30
0.0
 10
-249.4579
 20
151.6824
 30
0.0
 10
-219.9112
 20
159.2304
 30
0.0
 10
-196.021
 20
163.8594
 30
0.0
 10
-198.2494
 20
188.3148
 30
0.0
 10
-192.0948
 20
210.5439
 30
0.0
 10
-194.1967
 20
228.152
 30
0.0
 10
-195.6124
 20
228.6328
 30
0.0
 10
-197.7952
 20
228.2107
 30
0.0
 10
-197.8453
 20
230.2973
 30
0.0
 10
-215.2681
 20
223.861
 30
0.0
 10
-235.0642
 20
201.3809
 30
0.0
 10
-237.9734
 20
191.7189
 30
0.0
 10
-256.208
 20
180.8712
 30
0.0
 10
-282.4414
 20
161.4416
 30
0.0
 10
-320.055
 20
153.1444
 30
0.0
 10
-357.5237
 20
144.8775
 30
0.0
 10
-393.4914
 20
146.4995
 30
0.0
 10
-409.4338
 20
120.9981
 30
0.0
 10
-427.9322
 20
91.4043
 30
0.0
 10
-418.1322
 20
47.9224
 30
0.0
 10
-387.5445
 20
41.7027
 30
0.0
 10
-387.0679
 20
44.7169
 30
0.0
 10
-383.5443
 20
44.1479
 30
0.0
 10
-382.0733
 20
45.9896
 30
0.0
 10
-381.6458
 20
56.4921
 30
0.0
 10
-385.2867
 20
62.2166
 30
0.0
 10
-383.8959
 20
73.849
 30
0.0
 10
-363.8534
 20
119.0724
 30
0.0
 10
-321.8095
 20
75.5408
 30
0.0
 10
-329.1748
 20
35.2745
 30
0.0
 10
-331.6049
 20
21.9918
 30
0.0
 10
-344.1899
 20
10.659
 30
0.0
 10
-351.064
 20
5.2737
 30
0.0
 10
-396.2413
 20
-30.1226
 30
0.0
 10
-462.9043
 20
-0.9774
 30
0.0
 10
-464.1548
 20
75.9944
 30
0.0
 10
-464.2971
 20
84.7919
 30
0.0
 10
-463.175
 20
98.0948
 30
0.0
 10
-462.3305
 20
108.1407
 30
0.0
 10
-459.9719
 20
136.1742
 30
0.0
 10
-442.7403
 20
155.945
 30
0.0
 10
-447.7367
 20
181.0038
 30
0.0
 10
-464.092
 20
175.0737
 30
0.0
 10
-480.2799
 20
182.884
 30
0.0
 10
-496.9866
 20
183.1482
 30
0.0
 10
-501.4728
 20
177.9097
 30
0.0
 10
-495.6388
 20
173.8557
 30
0.0
 10
-496.9866
 20
166.0049
 30
0.0
 10
-527.3934
 20
142.4253
 30
0.0
 10
-579.1336
 20
110.4917
 30
0.0
 10
-553.532
 20
48.135
 30
0.0
 10
-483.2235
 20
51.4762
 30
0.0
 10
-500.8731
 20
-58.7828
 30
0.0
 10
-548.0589
 20
-69.7348
 30
0.0
 10
-548.6768
 20
-85.4618
 30
0.0
 10
-542.1405
 20
-92.785
 30
0.0
 10
-544.412
 20
-110.4538
 30
0.0
 10
-535.1371
 20
-112.4159
 30
0.0
 10
-528.8212
 20
-117.8519
 30
0.0
 10
-526.1714
 20
-127.5971
 30
0.0
 10
-520.4148
 20
-128.6471
 30
0.0
 10
-519.7307
 20
-123.7354
 30
0.0
 10
-513.4029
 20
-125.4557
 30
0.0
 10
-510.3075
 20
-150.4113
 30
0.0
 10
-532.3837
 20
-155.4949
 30
0.0
 10
-555.3562
 20
-159.7433
 30
0.0
 10
-544.5248
 20
-179.2193
 30
0.0
 10
-549.4007
 20
-213.912
 30
0.0
 10
-555.3562
 20
-236.8953
 30
0.0
 10
-568.4548
 20
-236.2058
 30
0.0
 10
-580.3064
 20
-223.8464
 30
0.0
 10
-591.8366
 20
-228.3227
 30
0.0
 10
-594.6338
 20
-218.0368
 30
0.0
 10
-598.4125
 20
-208.9053
 30
0.0
 10
-608.2529
 20
-206.8924
 30
0.0
 10
-611.1044
 20
-211.807
 30
0.0
 10
-611.1044
 20
-227.6928
 30
0.0
 10
-608.2529
 20
-232.6095
 30
0.0
 10
-615.4373
 20
-236.4366
 30
0.0
 10
-619.1653
 20
-234.1353
 30
0.0
 10
-619.1971
 20
-241.1821
 30
0.0
 10
-626.9667
 20
-241.339
 30
0.0
 10
-631.9544
 20
-244.7664
 30
0.0
 10
-641.0847
 20
-243.3255
 30
0.0
 10
-647.8166
 20
-230.5177
 30
0.0
 10
-651.6557
 20
-204.656
 30
0.0
 10
-663.4341
 20
-197.7781
 30
0.0
 10
-668.639
 20
-269.4667
 30
0.0
 10
-686.2515
 20
-391.7712
 30
0.0
 10
-705.4737
 20
-429.3728
 30
0.0
 10
-658.4567
 20
-413.5771
 30
0.0
 10
-620.9921
 20
-428.0313
 30
0.0
 10
-596.3685
 20
-450.5316
 30
0.0
 10
-575.2462
 20
-443.3298
 30
0.0
 10
-554.1256
 20
-442.4014
 30
0.0
 10
-533.0059
 20
-447.7482
 30
0.0
 10
-458.8679
 20
-542.0364
 30
0.0
 10
-383.3668
 20
-540.7597
 30
0.0
 10
-369.3039
 20
-470.4906
 30
0.0
  0
SPLINE
  5
78
330
1F
100
AcDbEntity
  8
Layer 1
 62
   250
370
    20
100
AcDbSpline
210
0.0
220
0.0
230
1.0
 70
    11
 71
     3
 72
    14
 73
    10
 74
     0
 42
0.0000000001
 43
0.0000000001
 40
0.0
 40
0.0
 40
0.0
 40
0.0
 40
0.3333333333333333
 40
0.3333333333333333
 40
0.3333333333333333
 40
0.6666666666666666
 40
0.6666666666666666
 40
0.6666666666666666
 40
1.0
 40
1.0
 40
1.0
 40
1.0
 10
-637.4376
 20
388.8831
 30
0.0
 10
-616.7481
 20
373.4863
 30
0.0
 10
-592.8035
 20
340.4512
 30
0.0
 10
-560.8275
 20
352.4501
 30
0.0
 10
-574.9818
 20
382.9702
 30
0.0
 10
-591.4972
 20
410.7152
 30
0.0
 10
-630.1404
 20
412.4587
 30
0.0
 10
-631.147
 20
402.9261
 30
0.0
 10
-637.1007
 20
399.2043
 30
0.0
 10
-637.4376
 20
388.8831
 30
0.0
  0
SPLINE
  5
79
330
1F
100
AcDbEntity
  8
Layer 1
 62
   250
370
    20
100
AcDbSpline
210
0.0
220
0.0
230
1.0
 70
    11
 71
     3
 72
    23
 73
    19
 74
     0
 42
0.0000000001
 43
0.0000000001
 40
0.0
 40
0.0
 40
0.0
 40
0.0
 40
0.1666666666666667
 40
0.1666666666666667
 40
0.1666666666666667
 40
0.3333333333333333
 40
0.3333333333333333
 40
0.3333333333333333
 40
0.5
 40
0.5
 40
0.5
 40
0.6666666666666666
 40
0.6666666666666666
 40
0.6666666666666666
 40
0.8333333333333333
 40
0.8333333333333333
 40
0.8333333333333333
 40
1.0
 40
1.0
 40
1.0
 40
1.0
 10
-599.133
 20
455.321
 30
0.0
 10
-561.8357
 20
423.4147
 30
0.0
 10
-537.6516
 20
376.1097
 30
0.0
 10
-515.2272
 20
326.7361
 30
0.0
 10
-488.7776
 20
329.2329
 30
0.0
 10
-453.6269
 20
321.5107
 30
0.0
 10
-433.1457
 20
331.0189
 30
0.0
 10
-442.4137
 20
351.1004
 30
0.0
 10
-462.9267
 20
353.7582
 30
0.0
 10
-476.9216
 20
363.1652
 30
0.0
 10
-512.0242
 20
386.766
 30
0.0
 10
-546.5527
 20
428.3162
 30
0.0
 10
-562.6518
 20
470.3199
 30
0.0
 10
-565.6997
 20
478.2719
 30
0.0
 10
-567.3665
 20
492.2978
 30
0.0
 10
-577.2438
 20
496.0369
 30
0.0
 10
-581.4474
 20
478.8309
 30
0.0
 10
-593.9825
 20
471.4113
 30
0.0
 10
-599.133
 20
455.321
 30
0.0
  0
SPLINE
  5
7A
330
1F
100
AcDbEntity
  8
Layer 1
 62
   250
370
    20
100
AcDbSpline
210
0.0
220
0.0
230
1.0
 70
    11
 71
     3
 72
    17
 73
    13
 74
     0
 42
0.0000000001
 43
0.0000000001
 40
0.0
 40
0.0
 40
0.0
 40
0.0
 40
0.25
 40
0.25
 40
0.25
 40
0.5
 40
0.5
 40
0.5
 40
0.75
 40
0.75
 40
0.75
 40
1.0
 40
1.0
 40
1.0
 40
1.0
 10
-477.5591
 20
-590.0266
 30
0.0
 10
-477.16
 20
-588.2199
 30
0.0
 10
-476.9358
 20
-586.2467
 30
0.0
 10
-476.9216
 20
-584.0745
 30
0.0
 10
-494.3652
 20
-577.4216
 30
0.0
 10
-508.62
 20
-563.4048
 30
0.0
 10
-525.6043
 20
-556.2143
 30
0.0
 10
-525.982
 20
-556.7632
 30
0.0
 10
-520.8343
 20
-572.1177
 30
0.0
 10
-517.7623
 20
-590.0266
 30
0.0
 10
-517.7623
 20
-590.0266
 30
0.0
 10
-477.5591
 20
-590.0266
 30
0.0
 10
-477.5591
 20
-590.0266
 30
0.0
  0
SPLINE
  5
7B
330
1F
100
AcDbEntity
  8
Layer 1
 62
   250
370
    20
100
AcDbSpline
210
0.0
220
0.0
230
1.0
 70
    11
 71
     3
 72
    29
 73
    25
 74
     0
 42
0.0000000001
 43
0.0000000001
 40
0.0
 40
0.0
 40
0.0
 40
0.0
 40
0.125
 40
0.125
 40
0.125
 40
0.25
 40
0.25
 40
0.25
 40
0.375
 40
0.375
 40
0.375
 40
0.5
 40
0.5
 40
0.5
 40
0.625
 40
0.625
 40
0.625
 40
0.75
 40
0.75
 40
0.75
 40
0.875
 40
0.875
 40
0.875
 40
1.0
 40
1.0
 40
1.0
 40
1.0
 10
-489.6909
 20
472.4643
 30
0.0
 10
-503.186
 20
469.2204
 30
0.0
 10
-507.6774
 20
465.6311
 30
0.0
 10
-504.2821
 20
451.0342
 30
0.0
 10
-500.7068
 20
435.6586
 30
0.0
 10
-470.998
 20
412.3444
 30
0.0
 10
-460.5062
 20
412.4587
 30
0.0
 10
-464.3134
 20
486.5115
 30
0.0
 10
-426.1
 20
537.2246
 30
0.0
 10
-365.6553
 20
515.3267
 30
0.0
 10
-356.4536
 20
534.7754
 30
0.0
 10
-353.5788
 20
554.1381
 30
0.0
 10
-343.7678
 20
571.0455
 30
0.0
 10
-339.5609
 20
578.2953
 30
0.0
 10
-333.5858
 20
583.981
 30
0.0
 10
-327.9482
 20
589.9734
 30
0.0
 10
-327.9482
 20
589.9734
 30
0.0
 10
-515.3422
 20
589.9734
 30
0.0
 10
-515.3422
 20
589.9734
 30
0.0
 10
-514.9871
 20
536.0964
 30
0.0
 10
-453.7286
 20
490.8666
 30
0.0
 10
-493.3379
 20
468.1775
 30
0.0
 10
-491.293
 20
468.631
 30
0.0
 10
-490.4984
 20
470.5568
 30
0.0
 10
-489.6909
 20
472.4643
 30
0.0
  0
SPLINE
  5
7C
330
1F
100
AcDbEntity
  8
Layer 1
 62
   250
370
    20
100
AcDbSpline
210
0.0
220
0.0
230
1.0
 70
    11
 71
     3
 72
    44
 73
    40
 74
     0
 42
0.0000000001
 43
0.0000000001
 40
0.0
 40
0.0
 40
0.0
 40
0.0
 40
0.0769230769230769
 40
0.0769230769230769
 40
0.0769230769230769
 40
0.1538461538461539
 40
0.1538461538461539
 40
0.1538461538461539
 40
0.2307692307692308
 40
0.2307692307692308
 40
0.2307692307692308
 40
0.3076923076923077
 40
0.3076923076923077
 40
0.3076923076923077
 40
0.3846153846153846
 40
0.3846153846153846
 40
0.3846153846153846
 40
0.4615384615384616
 40
0.4615384615384616
 40
0.4615384615384616
 40
0.5384615384615385
 40
0.5384615384615385
 40
0.5384615384615385
 40
0.6153846153846154
 40
0.6153846153846154
 40
0.6153846153846154
 40
0.6923076923076923
 40
0.6923076923076923
 40
0.6923076923076923
 40
0.7692307692307693
 40
0.7692307692307693
 40
0.7692307692307693
 40
0.8461538461538463
 40
0.8461538461538463
 40
0.8461538461538463
 40
0.9230769230769231
 40
0.9230769230769231
 40
0.9230769230769231
 40
1.0
 40
1.0
 40
1.0
 40
1.0
 10
-414.905
 20
470.3199
 30
0.0
 10
-414.519
 20
472.7265
 30
0.0
 10
-412.8808
 20
473.6581
 30
0.0
 10
-411.2564
 20
474.6067
 30
0.0
 10
-441.2296
 20
437.6958
 30
0.0
 10
-417.2775
 20
373.0156
 30
0.0
 10
-374.776
 20
365.3106
 30
0.0
 10
-364.7841
 20
363.4972
 30
0.0
 10
-354.9144
 20
366.9599
 30
0.0
 10
-345.592
 20
365.3106
 30
0.0
 10
-313.3807
 20
359.6043
 30
0.0
 10
-298.1838
 20
322.9828
 30
0.0
 10
-270.8069
 20
318.1624
 30
0.0
 10
-252.8006
 20
314.9914
 30
0.0
 10
-226.2631
 20
317.2066
 30
0.0
 10
-210.6129
 20
324.5907
 30
0.0
 10
-211.8753
 20
336.6806
 30
0.0
 10
-217.3578
 20
343.8136
 30
0.0
 10
-221.5571
 20
352.4501
 30
0.0
 10
-263.6966
 20
339.6382
 30
0.0
 10
-308.6695
 20
372.6561
 30
0.0
 10
-281.751
 20
414.6011
 30
0.0
 10
-302.1082
 20
434.2453
 30
0.0
 10
-306.6358
 20
474.0518
 30
0.0
 10
-305.463
 20
513.1812
 30
0.0
 10
-313.0541
 20
517.0004
 30
0.0
 10
-323.663
 20
508.0116
 30
0.0
 10
-332.8234
 20
506.753
 30
0.0
 10
-333.7765
 20
501.4121
 30
0.0
 10
-333.0286
 20
496.2394
 30
0.0
 10
-336.4721
 20
489.6086
 30
0.0
 10
-297.56
 20
422.4904
 30
0.0
 10
-392.5824
 20
371.5575
 30
0.0
 10
-394.8402
 20
453.1756
 30
0.0
 10
-392.5306
 20
464.7492
 30
0.0
 10
-375.1568
 20
458.6238
 30
0.0
 10
-372.9526
 20
470.3199
 30
0.0
 10
-374.7018
 20
497.6275
 30
0.0
 10
-416.2631
 20
486.4619
 30
0.0
 10
-414.905
 20
470.3199
 30
0.0
  0
SPLINE
  5
7D
330
1F
100
AcDbEntity
  8
Layer 1
 62
   250
370
    20
100
AcDbSpline
210
0.0
220
0.0
230
1.0
 70
    11
 71
     3
 72
    29
 73
    25
 74
     0
 42
0.0000000001
 43
0.0000000001
 40
0.0
 40
0.0
 40
0.0
 40
0.0
 40
0.125
 40
0.125
 40
0.125
 40
0.25
 40
0.25
 40
0.25
 40
0.375
 40
0.375
 40
0.375
 40
0.5
 40
0.5
 40
0.5
 40
0.625
 40
0.625
 40
0.625
 40
0.75
 40
0.75
 40
0.75
 40
0.875
 40
0.875
 40
0.875
 40
1.0
 40
1.0
 40
1.0
 40
1.0
 10
-279.6258
 20
-590.0266
 30
0.0
 10
-276.2078
 20
-571.5775
 30
0.0
 10
-273.8532
 20
-552.3699
 30
0.0
 10
-272.6312
 20
-532.6417
 30
0.0
 10
-270.6
 20
-499.8778
 30
0.0
 10
-268.2459
 20
-444.9963
 30
0.0
 10
-292.6944
 20
-431.9161
 30
0.0
 10
-293.0805
 20
-434.3208
 30
0.0
 10
-294.7187
 20
-435.2522
 30
0.0
 10
-296.3431
 20
-436.2029
 30
0.0
 10
-294.86
 20
-449.2255
 30
0.0
 10
-290.4169
 20
-473.201
 30
0.0
 10
-303.6386
 20
-474.7774
 30
0.0
 10
-319.4406
 20
-472.6259
 30
0.0
 10
-321.226
 20
-454.0074
 30
0.0
 10
-338.2947
 20
-453.3462
 30
0.0
 10
-350.6806
 20
-554.4678
 30
0.0
 10
-395.1477
 20
-573.0476
 30
0.0
 10
-430.4855
 20
-586.1745
 30
0.0
 10
-432.3288
 20
-584.1302
 30
0.0
 10
-430.8633
 20
-585.6386
 30
0.0
 10
-429.7461
 20
-590.0266
 30
0.0
 10
-429.7461
 20
-590.0266
 30
0.0
 10
-279.6258
 20
-590.0266
 30
0.0
 10
-279.6258
 20
-590.0266
 30
0.0
  0
SPLINE
  5
7E
330
1F
100
AcDbEntity
  8
Layer 1
 62
   250
370
    20
100
AcDbSpline
210
0.0
220
0.0
230
1.0
 70
    11
 71
     3
 72
    38
 73
    34
 74
     0
 42
0.0000000001
 43
0.0000000001
 40
0.0
 40
0.0
 40
0.0
 40
0.0
 40
0.0909090909090909
 40
0.0909090909090909
 40
0.0909090909090909
 40
0.1818181818181818
 40
0.1818181818181818
 40
0.1818181818181818
 40
0.2727272727272727
 40
0.2727272727272727
 40
0.2727272727272727
 40
0.3636363636363636
 40
0.3636363636363636
 40
0.3636363636363636
 40
0.4545454545454546
 40
0.4545454545454546
 40
0.4545454545454546
 40
0.5454545454545454
 40
0.5454545454545454
 40
0.5454545454545454
 40
0.6363636363636364
 40
0.6363636363636364
 40
0.6363636363636364
 40
0.7272727272727273
 40
0.7272727272727273
 40
0.7272727272727273
 40
0.8181818181818182
 40
0.8181818181818182
 40
0.8181818181818182
 40
0.9090909090909092
 40
0.9090909090909092
 40
0.9090909090909092
 40
1.0
 40
1.0
 40
1.0
 40
1.0
 10
-268.9826
 20
483.1804
 30
0.0
 10
-249.476
 20
470.7866
 30
0.0
 10
-245.9515
 20
496.5462
 30
0.0
 10
-230.677
 20
498.1824
 30
0.0
 10
-212.8035
 20
500.0938
 30
0.0
 10
-205.7553
 20
474.062
 30
0.0
 10
-194.1967
 20
474.6067
 30
0.0
 10
-186.0549
 20
474.9894
 30
0.0
 10
-180.2983
 20
491.2519
 30
0.0
 10
-174.1316
 20
493.8955
 30
0.0
 10
-126.6889
 20
514.2413
 30
0.0
 10
-110.5536
 20
437.0712
 30
0.0
 10
-59.2183
 20
442.4605
 30
0.0
 10
-63.3953
 20
468.0418
 30
0.0
 10
-75.2288
 20
491.5617
 30
0.0
 10
-55.5697
 20
506.753
 30
0.0
 10
-66.8775
 20
523.4711
 30
0.0
 10
-74.6187
 20
544.3787
 30
0.0
 10
-84.7545
 20
562.4748
 30
0.0
 10
-95.4524
 20
546.4087
 30
0.0
 10
-121.6209
 20
521.7376
 30
0.0
 10
-144.9485
 20
541.0437
 30
0.0
 10
-124.6037
 20
546.8348
 30
0.0
 10
-120.4546
 20
566.1097
 30
0.0
 10
-117.0223
 20
589.9734
 30
0.0
 10
-117.0223
 20
589.9734
 30
0.0
 10
-192.6727
 20
589.9734
 30
0.0
 10
-192.6727
 20
589.9734
 30
0.0
 10
-214.5821
 20
566.6613
 30
0.0
 10
-239.563
 20
546.958
 30
0.0
 10
-268.9826
 20
532.47
 30
0.0
 10
-263.4131
 20
525.5183
 30
0.0
 10
-276.2928
 20
500.1284
 30
0.0
 10
-268.9826
 20
483.1804
 30
0.0
  0
SPLINE
  5
7F
330
1F
100
AcDbEntity
  8
Layer 1
 62
   250
370
    20
100
AcDbSpline
210
0.0
220
0.0
230
1.0
 70
    11
 71
     3
 72
    26
 73
    22
 74
     0
 42
0.0000000001
 43
0.0000000001
 40
0.0
 40
0.0
 40
0.0
 40
0.0
 40
0.1428571428571428
 40
0.1428571428571428
 40
0.1428571428571428
 40
0.2857142857142857
 40
0.2857142857142857
 40
0.2857142857142857
 40
0.4285714285714285
 40
0.4285714285714285
 40
0.4285714285714285
 40
0.5714285714285714
 40
0.5714285714285714
 40
0.5714285714285714
 40
0.7142857142857142
 40
0.7142857142857142
 40
0.7142857142857142
 40
0.8571428571428571
 40
0.8571428571428571
 40
0.8571428571428571
 40
1.0
 40
1.0
 40
1.0
 40
1.0
 10
-95.6989
 20
-204.749
 30
0.0
 10
-161.1529
 20
-203.1341
 30
0.0
 10
-225.7789
 20
-268.8927
 30
0.0
 10
-227.0301
 20
-341.9056
 30
0.0
 10
-215.5214
 20
-355.5316
 30
0.0
 10
-194.9903
 20
-358.5559
 30
0.0
 10
-199.6695
 20
-391.1972
 30
0.0
 10
-171.2655
 20
-417.0894
 30
0.0
 10
-136.4207
 20
-383.5448
 30
0.0
 10
-119.4107
 20
-363.3367
 30
0.0
 10
-155.4421
 20
-341.7782
 30
0.0
 10
-163.8673
 20
-259.0291
 30
0.0
 10
-121.2349
 20
-241.1821
 30
0.0
 10
-114.1411
 20
-238.2116
 30
0.0
 10
-93.5969
 20
-231.5129
 30
0.0
 10
-81.1076
 20
-234.7518
 30
0.0
 10
-68.6235
 20
-237.9898
 30
0.0
 10
-71.4974
 20
-251.5134
 30
0.0
 10
-57.3941
 20
-256.1819
 30
0.0
 10
-45.3099
 20
-222.4755
 30
0.0
 10
-71.8429
 20
-205.3383
 30
0.0
 10
-95.6989
 20
-204.749
 30
0.0
  0
SPLINE
  5
80
330
1F
100
AcDbEntity
  8
Layer 1
 62
   250
370
    20
100
AcDbSpline
210
0.0
220
0.0
230
1.0
 70
    11
 71
     3
 72
    65
 73
    61
 74
     0
 42
0.0000000001
 43
0.0000000001
 40
0.0
 40
0.0
 40
0.0
 40
0.0
 40
0.05
 40
0.05
 40
0.05
 40
0.1
 40
0.1
 40
0.1
 40
0.15
 40
0.15
 40
0.15
 40
0.2
 40
0.2
 40
0.2
 40
0.25
 40
0.25
 40
0.25
 40
0.3
 40
0.3
 40
0.3
 40
0.35
 40
0.35
 40
0.35
 40
0.4
 40
0.4
 40
0.4
 40
0.45
 40
0.45
 40
0.45
 40
0.5
 40
0.5
 40
0.5
 40
0.55
 40
0.55
 40
0.55
 40
0.6000000000000001
 40
0.6000000000000001
 40
0.6000000000000001
 40
0.65
 40
0.65
 40
0.65
 40
0.7000000000000001
 40
0.7000000000000001
 40
0.7000000000000001
 40
0.75
 40
0.75
 40
0.75
 40
0.8
 40
0.8
 40
0.8
 40
0.8500000000000001
 40
0.8500000000000001
 40
0.8500000000000001
 40
0.9
 40
0.9
 40
0.9
 40
0.9500000000000001
 40
0.9500000000000001
 40
0.9500000000000001
 40
1.0
 40
1.0
 40
1.0
 40
1.0
 10
-128.5314
 20
-286.1868
 30
0.0
 10
-133.1892
 20
-344.2374
 30
0.0
 10
-45.464
 20
-315.3523
 30
0.0
 10
-50.0985
 20
-376.1953
 30
0.0
 10
-28.9942
 20
-399.5582
 30
0.0
 10
-7.4316
 20
-415.1433
 30
0.0
 10
-8.1459
 20
-451.2029
 30
0.0
 10
-8.8422
 20
-486.428
 30
0.0
 10
-38.0479
 20
-524.2198
 30
0.0
 10
-61.0427
 20
-536.9264
 30
0.0
 10
-117.3985
 20
-568.0694
 30
0.0
 10
-178.9755
 20
-515.9894
 30
0.0
 10
-219.7328
 20
-491.9218
 30
0.0
 10
-220.2136
 20
-520.7606
 30
0.0
 10
-219.3538
 20
-568.0115
 30
0.0
 10
-221.5105
 20
-590.0266
 30
0.0
 10
-221.5105
 20
-590.0266
 30
0.0
 10
-191.4163
 20
-590.0266
 30
0.0
 10
-191.4163
 20
-590.0266
 30
0.0
 10
-172.7791
 20
-587.2697
 30
0.0
 10
-152.3689
 20
-581.5932
 30
0.0
 10
-134.0044
 20
-579.7877
 30
0.0
 10
-133.9564
 20
-583.2256
 30
0.0
 10
-98.7736
 20
-575.5118
 30
0.0
 10
-70.2692
 20
-590.0266
 30
0.0
 10
-70.2692
 20
-590.0266
 30
0.0
 10
12.8355
 20
-590.0266
 30
0.0
 10
12.8355
 20
-590.0266
 30
0.0
 10
26.4133
 20
-545.761
 30
0.0
 10
43.115
 20
-513.5524
 30
0.0
 10
99.4726
 20
-526.2114
 30
0.0
 10
102.0846
 20
-516.4238
 30
0.0
 10
106.4191
 20
-508.6561
 30
0.0
 10
106.7664
 20
-496.2086
 30
0.0
 10
105.5135
 20
-486.9666
 30
0.0
 10
92.1451
 20
-491.9562
 30
0.0
 10
90.3519
 20
-483.349
 30
0.0
 10
146.4801
 20
-479.8581
 30
0.0
 10
123.6653
 20
-365.3233
 30
0.0
 10
101.2952
 20
-329.0481
 30
0.0
 10
95.8325
 20
-324.167
 30
0.0
 10
94.2082
 20
-342.0697
 30
0.0
 10
84.8806
 20
-339.7643
 30
0.0
 10
80.8166
 20
-319.8072
 30
0.0
 10
64.1909
 20
-327.7269
 30
0.0
 10
50.2228
 20
-320.4745
 30
0.0
 10
49.8756
 20
-307.2059
 30
0.0
 10
55.2959
 20
-300.72
 30
0.0
 10
57.5201
 20
-290.4717
 30
0.0
 10
46.924
 20
-284.4049
 30
0.0
 10
50.2797
 20
-271.3368
 30
0.0
 10
48.4002
 20
-258.3254
 30
0.0
 10
27.271
 20
-256.7197
 30
0.0
 10
17.0404
 20
-242.307
 30
0.0
 10
-2.6729
 20
-239.0386
 30
0.0
 10
6.4245
 20
-314.3388
 30
0.0
 10
-96.0598
 20
-331.9975
 30
0.0
 10
-104.8196
 20
-262.6123
 30
0.0
 10
-119.9157
 20
-263.6571
 30
0.0
 10
-127.48
 20
-273.0731
 30
0.0
 10
-128.5314
 20
-286.1868
 30
0.0
  0
SPLINE
  5
81
330
1F
100
AcDbEntity
  8
Layer 1
 62
   250
370
    20
100
AcDbSpline
210
0.0
220
0.0
230
1.0
 70
    11
 71
     3
 72
    32
 73
    28
 74
     0
 42
0.0000000001
 43
0.0000000001
 40
0.0
 40
0.0
 40
0.0
 40
0.0
 40
0.1111111111111111
 40
0.1111111111111111
 40
0.1111111111111111
 40
0.2222222222222222
 40
0.2222222222222222
 40
0.2222222222222222
 40
0.3333333333333333
 40
0.3333333333333333
 40
0.3333333333333333
 40
0.4444444444444444
 40
0.4444444444444444
 40
0.4444444444444444
 40
0.5555555555555556
 40
0.5555555555555556
 40
0.5555555555555556
 40
0.6666666666666666
 40
0.6666666666666666
 40
0.6666666666666666
 40
0.7777777777777777
 40
0.7777777777777777
 40
0.7777777777777777
 40
0.8888888888888888
 40
0.8888888888888888
 40
0.8888888888888888
 40
1.0
 40
1.0
 40
1.0
 40
1.0
 10
-219.7328
 20
-421.2
 30
0.0
 10
-203.7724
 20
-454.8973
 30
0.0
 10
-155.7342
 20
-503.298
 30
0.0
 10
-110.2907
 20
-509.067
 30
0.0
 10
-81.0464
 20
-512.7797
 30
0.0
 10
-49.3565
 20
-489.1253
 30
0.0
 10
-44.6265
 20
-459.7755
 30
0.0
 10
-38.5434
 20
-422.0364
 30
0.0
 10
-63.44
 20
-393.7406
 30
0.0
 10
-92.0501
 20
-406.1981
 30
0.0
 10
-86.9469
 20
-418.6262
 30
0.0
 10
-76.2026
 20
-417.5794
 30
0.0
 10
-73.8104
 20
-431.9161
 30
0.0
 10
-70.6392
 20
-450.9153
 30
0.0
 10
-83.7808
 20
-473.535
 30
0.0
 10
-101.1709
 20
-472.634
 30
0.0
 10
-121.7476
 20
-471.5669
 30
0.0
 10
-121.0782
 20
-446.025
 30
0.0
 10
-134.0044
 20
-431.9161
 30
0.0
 10
-141.7884
 20
-431.1031
 30
0.0
 10
-146.6109
 20
-439.0824
 30
0.0
 10
-155.8919
 20
-440.4877
 30
0.0
 10
-181.2729
 20
-444.3322
 30
0.0
 10
-196.8267
 20
-422.5415
 30
0.0
 10
-212.4372
 20
-410.485
 30
0.0
 10
-215.5645
 20
-413.2408
 30
0.0
 10
-219.6095
 20
-414.9166
 30
0.0
 10
-219.7328
 20
-421.2
 30
0.0
  0
SPLINE
  5
82
330
1F
100
AcDbEntity
  8
Layer 1
 62
   250
370
    20
100
AcDbSpline
210
0.0
220
0.0
230
1.0
 70
    11
 71
     3
 72
    77
 73
    73
 74
     0
 42
0.0000000001
 43
0.0000000001
 40
0.0
 40
0.0
 40
0.0
 40
0.0
 40
0.0416666666666667
 40
0.0416666666666667
 40
0.0416666666666667
 40
0.0833333333333333
 40
0.0833333333333333
 40
0.0833333333333333
 40
0.125
 40
0.125
 40
0.125
 40
0.1666666666666667
 40
0.1666666666666667
 40
0.1666666666666667
 40
0.2083333333333333
 40
0.2083333333333333
 40
0.2083333333333333
 40
0.25
 40
0.25
 40
0.25
 40
0.2916666666666666
 40
0.2916666666666666
 40
0.2916666666666666
 40
0.3333333333333333
 40
0.3333333333333333
 40
0.3333333333333333
 40
0.375
 40
0.375
 40
0.375
 40
0.4166666666666666
 40
0.4166666666666666
 40
0.4166666666666666
 40
0.4583333333333333
 40
0.4583333333333333
 40
0.4583333333333333
 40
0.5
 40
0.5
 40
0.5
 40
0.5416666666666666
 40
0.5416666666666666
 40
0.5416666666666666
 40
0.5833333333333333
 40
0.5833333333333333
 40
0.5833333333333333
 40
0.625
 40
0.625
 40
0.625
 40
0.6666666666666666
 40
0.6666666666666666
 40
0.6666666666666666
 40
0.7083333333333333
 40
0.7083333333333333
 40
0.7083333333333333
 40
0.75
 40
0.75
 40
0.75
 40
0.7916666666666666
 40
0.7916666666666666
 40
0.7916666666666666
 40
0.8333333333333333
 40
0.8333333333333333
 40
0.8333333333333333
 40
0.875
 40
0.875
 40
0.875
 40
0.9166666666666666
 40
0.9166666666666666
 40
0.9166666666666666
 40
0.9583333333333333
 40
0.9583333333333333
 40
0.9583333333333333
 40
1.0
 40
1.0
 40
1.0
 40
1.0
 10
-170.4847
 20
30.9876
 30
0.0
 10
-227.8521
 20
13.9415
 30
0.0
 10
-183.7832
 20
-86.461
 30
0.0
 10
-172.3091
 20
-125.4557
 30
0.0
 10
-159.0933
 20
-126.6939
 30
0.0
 10
-163.3521
 20
-107.4032
 30
0.0
 10
-152.2441
 20
-106.1669
 30
0.0
 10
-147.358
 20
-111.1402
 30
0.0
 10
-147.9742
 20
-122.5803
 30
0.0
 10
-139.4756
 20
-123.3122
 30
0.0
 10
-132.9427
 20
-122.1348
 30
0.0
 10
-121.627
 20
-118.5201
 30
0.0
 10
-115.7638
 20
-123.3122
 30
0.0
 10
-123.285
 20
-148.2172
 30
0.0
 10
-113.8369
 20
-159.7787
 30
0.0
 10
-108.4682
 20
-179.033
 30
0.0
 10
-79.4625
 20
-175.2889
 30
0.0
 10
-54.3305
 20
-186.41
 30
0.0
 10
-33.6821
 20
-185.4614
 30
0.0
 10
-32.1172
 20
-158.7248
 30
0.0
 10
-27.1648
 20
-135.9703
 30
0.0
 10
-13.6172
 20
-123.3122
 30
0.0
 10
-8.0245
 20
-119.883
 30
0.0
 10
2.3164
 20
-122.0325
 30
0.0
 10
2.7973
 20
-112.5971
 30
0.0
 10
-1.2425
 20
-102.522
 30
0.0
 10
-14.9435
 20
-80.3841
 30
0.0
 10
-2.6729
 20
-61.1632
 30
0.0
 10
-55.9825
 20
-4.3124
 30
0.0
 10
-10.5641
 20
110.0381
 30
0.0
 10
53.8715
 20
116.7113
 30
0.0
 10
113.5742
 20
122.8954
 30
0.0
 10
142.7547
 20
71.7703
 30
0.0
 10
177.9055
 20
37.4199
 30
0.0
 10
182.2125
 20
68.3209
 30
0.0
 10
185.8111
 20
110.6628
 30
0.0
 10
188.8479
 20
136.0001
 30
0.0
 10
160.1337
 20
133.6451
 30
0.0
 10
130.7368
 20
133.9842
 30
0.0
 10
112.2411
 20
148.8576
 30
0.0
 10
139.2604
 20
177.8427
 30
0.0
 10
162.2269
 20
207.5409
 30
0.0
 10
185.2028
 20
243.1538
 30
0.0
 10
222.7396
 20
301.3422
 30
0.0
 10
252.7191
 20
362.8897
 30
0.0
 10
323.8279
 20
378.1681
 30
0.0
 10
317.7595
 20
420.6629
 30
0.0
 10
295.672
 20
404.1746
 30
0.0
 10
267.2842
 20
395.3115
 30
0.0
 10
171.7328
 20
365.4919
 30
0.0
 10
72.1026
 20
331.3156
 30
0.0
 10
24.6849
 20
260.2982
 30
0.0
 10
37.7835
 20
242.2295
 30
0.0
 10
39.9266
 20
196.7732
 30
0.0
 10
19.2136
 20
189.5775
 30
0.0
 10
9.8947
 20
186.3406
 30
0.0
 10
-4.3431
 20
188.5164
 30
0.0
 10
-6.3217
 20
200.2925
 30
0.0
 10
-9.2413
 20
217.6667
 30
0.0
 10
15.2737
 20
215.0818
 30
0.0
 10
10.0937
 20
232.4388
 30
0.0
 10
-11.961
 20
245.9968
 30
0.0
 10
-21.6531
 20
221.4898
 30
0.0
 10
-28.2092
 20
208.8662
 30
0.0
 10
-37.9177
 20
190.1769
 30
0.0
 10
-37.4256
 20
166.3462
 30
0.0
 10
-44.6265
 20
146.7151
 30
0.0
 10
-58.1188
 20
109.9266
 30
0.0
 10
-90.9367
 20
92.0361
 30
0.0
 10
-135.8287
 20
101.7124
 30
0.0
 10
-143.8722
 20
74.017
 30
0.0
 10
-158.1849
 20
53.6845
 30
0.0
 10
-170.4847
 20
30.9876
 30
0.0
  0
SPLINE
  5
83
330
1F
100
AcDbEntity
  8
Layer 1
 62
   250
370
    20
100
AcDbSpline
210
0.0
220
0.0
230
1.0
 70
    11
 71
     3
 72
    14
 73
    10
 74
     0
 42
0.0000000001
 43
0.0000000001
 40
0.0
 40
0.0
 40
0.0
 40
0.0
 40
0.3333333333333333
 40
0.3333333333333333
 40
0.3333333333333333
 40
0.6666666666666666
 40
0.6666666666666666
 40
0.6666666666666666
 40
1.0
 40
1.0
 40
1.0
 40
1.0
 10
-155.8919
 20
-179.033
 30
0.0
 10
-162.055
 20
-174.8433
 30
0.0
 10
-164.8721
 20
-166.7233
 30
0.0
 10
-172.3091
 20
-164.0302
 30
0.0
 10
-179.2771
 20
-168.7027
 30
0.0
 10
-179.4607
 20
-181.3434
 30
0.0
 10
-181.4289
 20
-191.8896
 30
0.0
 10
-174.6142
 20
-198.0373
 30
0.0
 10
-157.3491
 20
-191.9959
 30
0.0
 10
-155.8919
 20
-179.033
 30
0.0
  0
SPLINE
  5
84
330
1F
100
AcDbEntity
  8
Layer 1
 62
   250
370
    20
100
AcDbSpline
210
0.0
220
0.0
230
1.0
 70
    11
 71
     3
 72
    14
 73
    10
 74
     0
 42
0.0000000001
 43
0.0000000001
 40
0.0
 40
0.0
 40
0.0
 40
0.0
 40
0.3333333333333333
 40
0.3333333333333333
 40
0.3333333333333333
 40
0.6666666666666666
 40
0.6666666666666666
 40
0.6666666666666666
 40
1.0
 40
1.0
 40
1.0
 40
1.0
 10
-148.5954
 20
423.1748
 30
0.0
 10
-174.8813
 20
416.5258
 30
0.0
 10
-178.7334
 20
370.5461
 30
0.0
 10
-159.5405
 20
352.4501
 30
0.0
 10
-127.0543
 20
321.8245
 30
0.0
 10
-60.8144
 20
345.5682
 30
0.0
 10
-59.2183
 20
395.3115
 30
0.0
 10
-91.9951
 20
395.9117
 30
0.0
 10
-113.4818
 20
432.0513
 30
0.0
 10
-148.5954
 20
423.1748
 30
0.0
  0
SPLINE
  5
85
330
1F
100
AcDbEntity
  8
Layer 1
 62
   250
370
    20
100
AcDbSpline
210
0.0
220
0.0
230
1.0
 70
    11
 71
     3
 72
    17
 73
    13
 74
     0
 42
0.0000000001
 43
0.0000000001
 40
0.0
 40
0.0
 40
0.0
 40
0.0
 40
0.25
 40
0.25
 40
0.25
 40
0.5
 40
0.5
 40
0.5
 40
0.75
 40
0.75
 40
0.75
 40
1.0
 40
1.0
 40
1.0
 40
1.0
 10
-128.5314
 20
198.1512
 30
0.0
 10
-124.6897
 20
184.8401
 30
0.0
 10
-107.3134
 20
166.8037
 30
0.0
 10
-92.0501
 20
170.2877
 30
0.0
 10
-69.7085
 20
175.3947
 30
0.0
 10
-62.8403
 20
236.8684
 30
0.0
 10
-44.6265
 20
258.1568
 30
0.0
 10
-37.7333
 20
266.21
 30
0.0
 10
-32.1826
 20
263.1858
 30
0.0
 10
-26.3867
 20
275.3001
 30
0.0
 10
-61.203
 20
346.52
 30
0.0
 10
-145.8233
 20
258.0444
 30
0.0
 10
-128.5314
 20
198.1512
 30
0.0
  0
SPLINE
  5
86
330
1F
100
AcDbEntity
  8
Layer 1
 62
   250
370
    20
100
AcDbSpline
210
0.0
220
0.0
230
1.0
 70
    11
 71
     3
 72
    14
 73
    10
 74
     0
 42
0.0000000001
 43
0.0000000001
 40
0.0
 40
0.0
 40
0.0
 40
0.0
 40
0.3333333333333333
 40
0.3333333333333333
 40
0.3333333333333333
 40
0.6666666666666666
 40
0.6666666666666666
 40
0.6666666666666666
 40
1.0
 40
1.0
 40
1.0
 40
1.0
 10
-51.8996
 20
589.9734
 30
0.0
 10
-49.8198
 20
567.1946
 30
0.0
 10
-39.3799
 20
552.5284
 30
0.0
 10
-24.5623
 20
545.3275
 30
0.0
 10
-0.0773
 20
533.4293
 30
0.0
 10
43.7814
 20
559.165
 30
0.0
 10
49.4678
 20
589.9734
 30
0.0
 10
49.4678
 20
589.9734
 30
0.0
 10
-51.8996
 20
589.9734
 30
0.0
 10
-51.8996
 20
589.9734
 30
0.0
  0
SPLINE
  5
87
330
1F
100
AcDbEntity
  8
Layer 1
 62
   250
370
    20
100
AcDbSpline
210
0.0
220
0.0
230
1.0
 70
    11
 71
     3
 72
    32
 73
    28
 74
     0
 42
0.0000000001
 43
0.0000000001
 40
0.0
 40
0.0
 40
0.0
 40
0.0
 40
0.1111111111111111
 40
0.1111111111111111
 40
0.1111111111111111
 40
0.2222222222222222
 40
0.2222222222222222
 40
0.2222222222222222
 40
0.3333333333333333
 40
0.3333333333333333
 40
0.3333333333333333
 40
0.4444444444444444
 40
0.4444444444444444
 40
0.4444444444444444
 40
0.5555555555555556
 40
0.5555555555555556
 40
0.5555555555555556
 40
0.6666666666666666
 40
0.6666666666666666
 40
0.6666666666666666
 40
0.7777777777777777
 40
0.7777777777777777
 40
0.7777777777777777
 40
0.8888888888888888
 40
0.8888888888888888
 40
0.8888888888888888
 40
1.0
 40
1.0
 40
1.0
 40
1.0
 10
-24.5623
 20
427.4576
 30
0.0
 10
-5.2927
 20
413.4286
 30
0.0
 10
16.5535
 20
391.795
 30
0.0
 10
42.9255
 20
393.1699
 30
0.0
 10
45.553
 20
407.7294
 30
0.0
 10
37.0441
 20
414.0118
 30
0.0
 10
35.6308
 20
427.4576
 30
0.0
 10
28.393
 20
496.3335
 30
0.0
 10
73.1237
 20
530.1262
 30
0.0
 10
125.007
 20
530.3286
 30
0.0
 10
135.7565
 20
530.3701
 30
0.0
 10
151.5127
 20
519.8504
 30
0.0
 10
159.6648
 20
536.7568
 30
0.0
 10
147.0578
 20
555.3776
 30
0.0
 10
124.0901
 20
573.9114
 30
0.0
 10
102.1364
 20
589.9734
 30
0.0
 10
102.1364
 20
589.9734
 30
0.0
 10
83.1999
 20
589.9734
 30
0.0
 10
83.1999
 20
589.9734
 30
0.0
 10
68.4864
 20
548.05
 30
0.0
 10
41.2655
 20
520.0045
 30
0.0
 10
4.6216
 20
504.6106
 30
0.0
 10
-2.5421
 20
501.6005
 30
0.0
 10
-12.2892
 20
503.91
 30
0.0
 10
-17.2659
 20
493.8955
 30
0.0
 10
-13.2579
 20
474.3587
 30
0.0
 10
-13.7439
 20
445.5476
 30
0.0
 10
-24.5623
 20
427.4576
 30
0.0
  0
SPLINE
  5
88
330
1F
100
AcDbEntity
  8
Layer 1
 62
   250
370
    20
100
AcDbSpline
210
0.0
220
0.0
230
1.0
 70
    11
 71
     3
 72
    32
 73
    28
 74
     0
 42
0.0000000001
 43
0.0000000001
 40
0.0
 40
0.0
 40
0.0
 40
0.0
 40
0.1111111111111111
 40
0.1111111111111111
 40
0.1111111111111111
 40
0.2222222222222222
 40
0.2222222222222222
 40
0.2222222222222222
 40
0.3333333333333333
 40
0.3333333333333333
 40
0.3333333333333333
 40
0.4444444444444444
 40
0.4444444444444444
 40
0.4444444444444444
 40
0.5555555555555556
 40
0.5555555555555556
 40
0.5555555555555556
 40
0.6666666666666666
 40
0.6666666666666666
 40
0.6666666666666666
 40
0.7777777777777777
 40
0.7777777777777777
 40
0.7777777777777777
 40
0.8888888888888888
 40
0.8888888888888888
 40
0.8888888888888888
 40
1.0
 40
1.0
 40
1.0
 40
1.0
 10
137.7756
 20
43.8482
 30
0.0
 10
128.7713
 20
53.7057
 30
0.0
 10
112.0309
 20
68.5264
 30
0.0
 10
99.4726
 20
73.849
 30
0.0
 10
60.5568
 20
90.3484
 30
0.0
 10
12.4471
 20
62.6945
 30
0.0
 10
0.9739
 20
33.1331
 30
0.0
 10
-7.0818
 20
12.3713
 30
0.0
 10
-6.5147
 20
-19.4348
 30
0.0
 10
10.0937
 20
-33.3017
 30
0.0
 10
20.7484
 20
-42.1963
 30
0.0
 10
41.5597
 20
-39.2298
 30
0.0
 10
42.9255
 20
-22.5866
 30
0.0
 10
38.2583
 20
-9.555
 30
0.0
 10
32.2079
 20
-14.498
 30
0.0
 10
30.1597
 20
-1.1565
 30
0.0
 10
21.7523
 20
53.5417
 30
0.0
 10
96.809
 20
40.2175
 30
0.0
 10
90.3519
 20
-11.8716
 30
0.0
 10
102.1233
 20
-13.6647
 30
0.0
 10
107.8471
 20
-3.0783
 30
0.0
 10
119.5358
 20
-3.299
 30
0.0
 10
143.1081
 20
-3.7445
 30
0.0
 10
152.2634
 20
-32.8837
 30
0.0
 10
170.6082
 20
-41.8745
 30
0.0
 10
176.2483
 20
-7.6404
 30
0.0
 10
155.9481
 20
23.9591
 30
0.0
 10
137.7756
 20
43.8482
 30
0.0
  0
SPLINE
  5
89
330
1F
100
AcDbEntity
  8
Layer 1
 62
   250
370
    20
100
AcDbSpline
210
0.0
220
0.0
230
1.0
 70
    11
 71
     3
 72
    26
 73
    22
 74
     0
 42
0.0000000001
 43
0.0000000001
 40
0.0
 40
0.0
 40
0.0
 40
0.0
 40
0.1428571428571428
 40
0.1428571428571428
 40
0.1428571428571428
 40
0.2857142857142857
 40
0.2857142857142857
 40
0.2857142857142857
 40
0.4285714285714285
 40
0.4285714285714285
 40
0.4285714285714285
 40
0.5714285714285714
 40
0.5714285714285714
 40
0.5714285714285714
 40
0.7142857142857142
 40
0.7142857142857142
 40
0.7142857142857142
 40
0.8571428571428571
 40
0.8571428571428571
 40
0.8571428571428571
 40
1.0
 40
1.0
 40
1.0
 40
1.0
 10
81.2319
 20
-236.8953
 30
0.0
 10
117.4452
 20
-231.9452
 30
0.0
 10
182.2841
 20
-166.6433
 30
0.0
 10
168.7848
 20
-123.3122
 30
0.0
 10
164.9966
 20
-111.1473
 30
0.0
 10
145.913
 20
-106.3026
 30
0.0
 10
143.2477
 20
-86.8791
 30
0.0
 10
141.7724
 20
-76.1185
 30
0.0
 10
147.8847
 20
-73.6329
 30
0.0
 10
145.0728
 20
-59.0197
 30
0.0
 10
118.4103
 20
-35.8714
 30
0.0
 10
88.1105
 20
-66.4635
 30
0.0
 10
70.2861
 20
-80.4509
 30
0.0
 10
81.9593
 20
-96.4107
 30
0.0
 10
124.7425
 20
-158.9779
 30
0.0
 10
88.5267
 20
-176.8897
 30
0.0
 10
56.4722
 20
-192.7451
 30
0.0
 10
30.6284
 20
-144.7747
 30
0.0
 10
6.4451
 20
-161.8867
 30
0.0
 10
-12.559
 20
-218.0298
 30
0.0
 10
41.3227
 20
-242.3505
 30
0.0
 10
81.2319
 20
-236.8953
 30
0.0
  0
SPLINE
  5
8A
330
1F
100
AcDbEntity
  8
Layer 1
 62
   250
370
    20
100
AcDbSpline
210
0.0
220
0.0
230
1.0
 70
    11
 71
     3
 72
    32
 73
    28
 74
     0
 42
0.0000000001
 43
0.0000000001
 40
0.0
 40
0.0
 40
0.0
 40
0.0
 40
0.1111111111111111
 40
0.1111111111111111
 40
0.1111111111111111
 40
0.2222222222222222
 40
0.2222222222222222
 40
0.2222222222222222
 40
0.3333333333333333
 40
0.3333333333333333
 40
0.3333333333333333
 40
0.4444444444444444
 40
0.4444444444444444
 40
0.4444444444444444
 40
0.5555555555555556
 40
0.5555555555555556
 40
0.5555555555555556
 40
0.6666666666666666
 40
0.6666666666666666
 40
0.6666666666666666
 40
0.7777777777777777
 40
0.7777777777777777
 40
0.7777777777777777
 40
0.8888888888888888
 40
0.8888888888888888
 40
0.8888888888888888
 40
1.0
 40
1.0
 40
1.0
 40
1.0
 10
68.4634
 20
423.1748
 30
0.0
 10
78.9725
 20
423.0767
 30
0.0
 10
94.3357
 20
427.6945
 30
0.0
 10
97.6466
 20
410.3142
 30
0.0
 10
97.8361
 20
397.9489
 30
0.0
 10
89.2565
 20
395.8834
 30
0.0
 10
90.3519
 20
382.4549
 30
0.0
 10
166.0711
 20
385.6604
 30
0.0
 10
231.2072
 20
419.8255
 30
0.0
 10
298.2899
 20
440.3181
 30
0.0
 10
297.3042
 20
454.1628
 30
0.0
 10
297.3162
 20
469.1758
 30
0.0
 10
294.6447
 20
481.0349
 30
0.0
 10
265.6125
 20
470.3887
 30
0.0
 10
242.9011
 20
446.3738
 30
0.0
 10
201.6174
 20
453.1756
 30
0.0
 10
180.758
 20
456.615
 30
0.0
 10
161.1074
 20
471.3698
 30
0.0
 10
141.4243
 20
468.1775
 30
0.0
 10
134.1002
 20
466.9919
 30
0.0
 10
127.9732
 20
458.4071
 30
0.0
 10
121.3611
 20
459.6038
 30
0.0
 10
121.3611
 20
469.6081
 30
0.0
 10
121.3611
 20
479.6084
 30
0.0
 10
121.3611
 20
489.6086
 30
0.0
 10
86.5343
 20
497.3591
 30
0.0
 10
60.251
 20
465.9449
 30
0.0
 10
68.4634
 20
423.1748
 30
0.0
  0
SPLINE
  5
8B
330
1F
100
AcDbEntity
  8
Layer 1
 62
   250
370
    20
100
AcDbSpline
210
0.0
220
0.0
230
1.0
 70
    11
 71
     3
 72
   221
 73
   217
 74
     0
 42
0.0000000001
 43
0.0000000001
 40
0.0
 40
0.0
 40
0.0
 40
0.0
 40
0.0138888888888889
 40
0.0138888888888889
 40
0.0138888888888889
 40
0.0277777777777778
 40
0.0277777777777778
 40
0.0277777777777778
 40
0.0416666666666667
 40
0.0416666666666667
 40
0.0416666666666667
 40
0.0555555555555556
 40
0.0555555555555556
 40
0.0555555555555556
 40
0.0694444444444444
 40
0.0694444444444444
 40
0.0694444444444444
 40
0.0833333333333333
 40
0.0833333333333333
 40
0.0833333333333333
 40
0.0972222222222222
 40
0.0972222222222222
 40
0.0972222222222222
 40
0.1111111111111111
 40
0.1111111111111111
 40
0.1111111111111111
 40
0.125
 40
0.125
 40
0.125
 40
0.1388888888888889
 40
0.1388888888888889
 40
0.1388888888888889
 40
0.1527777777777778
 40
0.1527777777777778
 40
0.1527777777777778
 40
0.1666666666666667
 40
0.1666666666666667
 40
0.1666666666666667
 40
0.1805555555555556
 40
0.1805555555555556
 40
0.1805555555555556
 40
0.1944444444444444
 40
0.1944444444444444
 40
0.1944444444444444
 40
0.2083333333333333
 40
0.2083333333333333
 40
0.2083333333333333
 40
0.2222222222222222
 40
0.2222222222222222
 40
0.2222222222222222
 40
0.2361111111111111
 40
0.2361111111111111
 40
0.2361111111111111
 40
0.25
 40
0.25
 40
0.25
 40
0.2638888888888889
 40
0.2638888888888889
 40
0.2638888888888889
 40
0.2777777777777778
 40
0.2777777777777778
 40
0.2777777777777778
 40
0.2916666666666666
 40
0.2916666666666666
 40
0.2916666666666666
 40
0.3055555555555555
 40
0.3055555555555555
 40
0.3055555555555555
 40
0.3194444444444444
 40
0.3194444444444444
 40
0.3194444444444444
 40
0.3333333333333333
 40
0.3333333333333333
 40
0.3333333333333333
 40
0.3472222222222222
 40
0.3472222222222222
 40
0.3472222222222222
 40
0.3611111111111111
 40
0.3611111111111111
 40
0.3611111111111111
 40
0.375
 40
0.375
 40
0.375
 40
0.3888888888888888
 40
0.3888888888888888
 40
0.3888888888888888
 40
0.4027777777777777
 40
0.4027777777777777
 40
0.4027777777777777
 40
0.4166666666666666
 40
0.4166666666666666
 40
0.4166666666666666
 40
0.4305555555555555
 40
0.4305555555555555
 40
0.4305555555555555
 40
0.4444444444444444
 40
0.4444444444444444
 40
0.4444444444444444
 40
0.4583333333333333
 40
0.4583333333333333
 40
0.4583333333333333
 40
0.4722222222222222
 40
0.4722222222222222
 40
0.4722222222222222
 40
0.4861111111111111
 40
0.4861111111111111
 40
0.4861111111111111
 40
0.5
 40
0.5
 40
0.5
 40
0.5138888888888888
 40
0.5138888888888888
 40
0.5138888888888888
 40
0.5277777777777778
 40
0.5277777777777778
 40
0.5277777777777778
 40
0.5416666666666666
 40
0.5416666666666666
 40
0.5416666666666666
 40
0.5555555555555556
 40
0.5555555555555556
 40
0.5555555555555556
 40
0.5694444444444444
 40
0.5694444444444444
 40
0.5694444444444444
 40
0.5833333333333333
 40
0.5833333333333333
 40
0.5833333333333333
 40
0.5972222222222222
 40
0.5972222222222222
 40
0.5972222222222222
 40
0.611111111111111
 40
0.611111111111111
 40
0.611111111111111
 40
0.625
 40
0.625
 40
0.625
 40
0.6388888888888888
 40
0.6388888888888888
 40
0.6388888888888888
 40
0.6527777777777778
 40
0.6527777777777778
 40
0.6527777777777778
 40
0.6666666666666666
 40
0.6666666666666666
 40
0.6666666666666666
 40
0.6805555555555555
 40
0.6805555555555555
 40
0.6805555555555555
 40
0.6944444444444444
 40
0.6944444444444444
 40
0.6944444444444444
 40
0.7083333333333333
 40
0.7083333333333333
 40
0.7083333333333333
 40
0.7222222222222222
 40
0.7222222222222222
 40
0.7222222222222222
 40
0.736111111111111
 40
0.736111111111111
 40
0.736111111111111
 40
0.75
 40
0.75
 40
0.75
 40
0.7638888888888888
 40
0.7638888888888888
 40
0.7638888888888888
 40
0.7777777777777777
 40
0.7777777777777777
 40
0.7777777777777777
 40
0.7916666666666666
 40
0.7916666666666666
 40
0.7916666666666666
 40
0.8055555555555555
 40
0.8055555555555555
 40
0.8055555555555555
 40
0.8194444444444444
 40
0.8194444444444444
 40
0.8194444444444444
 40
0.8333333333333333
 40
0.8333333333333333
 40
0.8333333333333333
 40
0.8472222222222222
 40
0.8472222222222222
 40
0.8472222222222222
 40
0.861111111111111
 40
0.861111111111111
 40
0.861111111111111
 40
0.875
 40
0.875
 40
0.875
 40
0.8888888888888888
 40
0.8888888888888888
 40
0.8888888888888888
 40
0.9027777777777777
 40
0.9027777777777777
 40
0.9027777777777777
 40
0.9166666666666666
 40
0.9166666666666666
 40
0.9166666666666666
 40
0.9305555555555555
 40
0.9305555555555555
 40
0.9305555555555555
 40
0.9444444444444444
 40
0.9444444444444444
 40
0.9444444444444444
 40
0.9583333333333333
 40
0.9583333333333333
 40
0.9583333333333333
 40
0.9722222222222222
 40
0.9722222222222222
 40
0.9722222222222222
 40
0.986111111111111
 40
0.986111111111111
 40
0.986111111111111
 40
1.0
 40
1.0
 40
1.0
 40
1.0
 10
132.3044
 20
-326.9048
 30
0.0
 10
170.7202
 20
-308.6375
 30
0.0
 10
175.1652
 20
-371.5074
 30
0.0
 10
214.3859
 20
-359.051
 30
0.0
 10
211.5421
 20
-388.2378
 30
0.0
 10
179.0034
 20
-391.7226
 30
0.0
 10
157.8423
 20
-386.9104
 30
0.0
 10
157.0615
 20
-406.1546
 30
0.0
 10
157.1917
 20
-435.0214
 30
0.0
 10
146.8964
 20
-449.0594
 30
0.0
 10
151.8712
 20
-458.2183
 30
0.0
 10
158.5368
 20
-465.3877
 30
0.0
 10
166.9622
 20
-470.4906
 30
0.0
 10
184.3298
 20
-458.0361
 30
0.0
 10
202.6497
 20
-446.7004
 30
0.0
 10
218.0345
 20
-431.9161
 30
0.0
 10
229.9603
 20
-456.9639
 30
0.0
 10
224.6251
 20
-499.4657
 30
0.0
 10
212.5633
 20
-519.7821
 30
0.0
 10
226.1901
 20
-530.4193
 30
0.0
 10
219.5011
 20
-561.8264
 30
0.0
 10
219.8572
 20
-577.6444
 30
0.0
 10
233.3659
 20
-577.7892
 30
0.0
 10
238.757
 20
-566.3745
 30
0.0
 10
252.6898
 20
-560.5011
 30
0.0
 10
283.4223
 20
-547.5474
 30
0.0
 10
325.9624
 20
-555.947
 30
0.0
 10
349.3659
 20
-539.0699
 30
0.0
 10
364.0698
 20
-528.4642
 30
0.0
 10
384.57
 20
-492.5545
 30
0.0
 10
363.957
 20
-468.3492
 30
0.0
 10
352.1381
 20
-478.6907
 30
0.0
 10
350.9273
 20
-492.4027
 30
0.0
 10
334.7713
 20
-494.0652
 30
0.0
 10
311.3972
 20
-496.4698
 30
0.0
 10
289.0874
 20
-472.8892
 30
0.0
 10
294.6447
 20
-436.2029
 30
0.0
 10
298.9845
 20
-407.5306
 30
0.0
 10
326.5743
 20
-385.2974
 30
0.0
 10
360.3083
 20
-391.1972
 30
0.0
 10
393.1676
 20
-396.9441
 30
0.0
 10
416.5287
 20
-441.7361
 30
0.0
 10
420.5014
 20
-485.4925
 30
0.0
 10
424.3638
 20
-528.0339
 30
0.0
 10
407.7889
 20
-526.3997
 30
0.0
 10
402.2609
 20
-560.5011
 30
0.0
 10
429.4516
 20
-558.5855
 30
0.0
 10
449.0874
 20
-565.1969
 30
0.0
 10
469.7504
 20
-575.503
 30
0.0
 10
467.2539
 20
-517.6792
 30
0.0
 10
526.0424
 20
-506.6311
 30
0.0
 10
529.9434
 20
-459.7755
 30
0.0
 10
531.6144
 20
-439.7132
 30
0.0
 10
521.9664
 20
-428.5293
 30
0.0
 10
520.8228
 20
-414.7718
 30
0.0
 10
548.9735
 20
-420.0094
 30
0.0
 10
564.4461
 20
-446.5657
 30
0.0
 10
560.9527
 20
-479.0642
 30
0.0
 10
558.2002
 20
-504.6698
 30
0.0
 10
533.4845
 20
-518.9408
 30
0.0
 10
531.7686
 20
-541.2133
 30
0.0
 10
563.2587
 20
-536.7118
 30
0.0
 10
583.0996
 20
-500.134
 30
0.0
 10
612.025
 20
-485.4925
 30
0.0
 10
616.0296
 20
-490.074
 30
0.0
 10
614.8447
 20
-500.7516
 30
0.0
 10
622.9709
 20
-500.4954
 30
0.0
 10
635.5732
 20
-478.5215
 30
0.0
 10
662.6485
 20
-461.7134
 30
0.0
 10
652.1541
 20
-425.4868
 30
0.0
 10
663.9342
 20
-430.8541
 30
0.0
 10
670.5137
 20
-439.3578
 30
0.0
 10
674.0433
 20
-449.0594
 30
0.0
 10
692.1907
 20
-498.9419
 30
0.0
 10
654.6104
 20
-555.2647
 30
0.0
 10
612.09
 20
-590.0266
 30
0.0
 10
612.09
 20
-590.0266
 30
0.0
 10
758.9107
 20
-590.0266
 30
0.0
 10
758.9107
 20
-590.0266
 30
0.0
 10
760.0636
 20
-581.9713
 30
0.0
 10
761.1922
 20
-574.1408
 30
0.0
 10
761.5961
 20
-566.9293
 30
0.0
 10
748.0494
 20
-558.7322
 30
0.0
 10
726.822
 20
-540.9673
 30
0.0
 10
739.7068
 20
-515.4953
 30
0.0
 10
751.2318
 20
-527.0062
 30
0.0
 10
784.6048
 20
-533.0213
 30
0.0
 10
792.6052
 20
-513.3519
 30
0.0
 10
777.4764
 20
-482.5523
 30
0.0
 10
763.9625
 20
-449.8532
 30
0.0
 10
745.179
 20
-423.3435
 30
0.0
 10
669.9139
 20
-477.7531
 30
0.0
 10
638.1618
 20
-317.3196
 30
0.0
 10
586.4897
 20
-296.9018
 30
0.0
 10
566.5902
 20
-293.7714
 30
0.0
 10
545.666
 20
-300.0376
 30
0.0
 10
550.0093
 20
-318.3331
 30
0.0
 10
595.5063
 20
-321.6885
 30
0.0
 10
581.3269
 20
-385.0099
 30
0.0
 10
542.7121
 20
-378.3387
 30
0.0
 10
519.5998
 20
-374.3445
 30
0.0
 10
504.2186
 20
-331.3677
 30
0.0
 10
517.1741
 20
-299.0443
 30
0.0
 10
526.4903
 20
-275.8059
 30
0.0
 10
549.0889
 20
-276.0783
 30
0.0
 10
562.7752
 20
-258.3254
 30
0.0
 10
559.6463
 20
-243.4298
 30
0.0
 10
544.8673
 20
-242.2199
 30
0.0
 10
550.0093
 20
-217.6074
 30
0.0
 10
539.9182
 20
-210.8877
 30
0.0
 10
531.4929
 20
-202.2168
 30
0.0
 10
520.8228
 20
-196.1764
 30
0.0
 10
527.5978
 20
-175.7607
 30
0.0
 10
544.7724
 20
-173.3368
 30
0.0
 10
564.6013
 20
-172.6028
 30
0.0
 10
562.49
 20
-150.7413
 30
0.0
 10
563.7577
 20
-117.0075
 30
0.0
 10
568.2499
 20
-91.166
 30
0.0
 10
585.5935
 20
-107.9337
 30
0.0
 10
612.785
 20
-113.1307
 30
0.0
 10
622.9709
 20
-138.3131
 30
0.0
 10
637.3277
 20
-133.0371
 30
0.0
 10
637.7706
 20
-111.4115
 30
0.0
 10
653.9766
 20
-108.3103
 30
0.0
 10
664.2014
 20
-118.4443
 30
0.0
 10
660.1373
 20
-145.362
 30
0.0
 10
675.866
 20
-149.0283
 30
0.0
 10
688.2165
 20
-111.8956
 30
0.0
 10
692.4883
 20
-69.9615
 30
0.0
 10
703.2265
 20
-35.4452
 30
0.0
 10
738.4306
 20
77.6893
 30
0.0
 10
807.6686
 20
156.7995
 30
0.0
 10
871.0382
 20
236.7256
 30
0.0
 10
806.2114
 20
261.9971
 30
0.0
 10
772.293
 20
323.5863
 30
0.0
 10
706.8751
 20
348.1663
 30
0.0
 10
725.9877
 20
402.6154
 30
0.0
 10
648.0453
 20
461.1631
 30
0.0
 10
644.8568
 20
391.0285
 30
0.0
 10
673.8674
 20
377.6304
 30
0.0
 10
657.9192
 20
357.1794
 30
0.0
 10
648.5054
 20
335.3057
 30
0.0
 10
667.8414
 20
311.3049
 30
0.0
 10
689.2109
 20
302.2807
 30
0.0
 10
706.8751
 20
277.4425
 30
0.0
 10
777.0576
 20
178.7601
 30
0.0
 10
712.442
 20
-48.0738
 30
0.0
 10
606.5528
 20
-35.4452
 30
0.0
 10
591.3559
 20
-33.6338
 30
0.0
 10
573.1722
 20
-14.9212
 30
0.0
 10
562.7752
 20
-16.1585
 30
0.0
 10
551.7759
 20
-17.4666
 30
0.0
 10
545.4041
 20
-39.2996
 30
0.0
 10
533.5923
 20
-44.0179
 30
0.0
 10
476.8494
 20
-66.6782
 30
0.0
 10
459.7661
 20
5.4722
 30
0.0
 10
429.6213
 20
33.1331
 30
0.0
 10
417.3155
 20
44.4233
 30
0.0
 10
397.5435
 20
56.6703
 30
0.0
 10
380.3715
 20
58.8501
 30
0.0
 10
334.0551
 20
64.7316
 30
0.0
 10
312.3323
 20
15.5908
 30
0.0
 10
305.5872
 20
-31.1583
 30
0.0
 10
332.1705
 20
-60.6468
 30
0.0
 10
318.1007
 20
-137.898
 30
0.0
 10
347.5398
 20
-164.0302
 30
0.0
 10
369.791
 20
-171.2177
 30
0.0
 10
391.3089
 20
-154.4682
 30
0.0
 10
384.0202
 20
-127.5971
 30
0.0
 10
374.8736
 20
-119.5083
 30
0.0
 10
373.3534
 20
-135.6098
 30
0.0
 10
362.1317
 20
-131.884
 30
0.0
 10
328.9104
 20
-57.1852
 30
0.0
 10
436.2593
 20
-74.6413
 30
0.0
 10
424.1501
 20
-146.8868
 30
0.0
 10
418.9718
 20
-177.7786
 30
0.0
 10
390.4179
 20
-185.7802
 30
0.0
 10
374.9003
 20
-209.0359
 30
0.0
 10
373.8076
 20
-220.323
 30
0.0
 10
388.4376
 20
-213.1324
 30
0.0
 10
387.6688
 20
-224.0358
 30
0.0
 10
385.6411
 20
-237.3692
 30
0.0
 10
371.1802
 20
-236.0985
 30
0.0
 10
363.957
 20
-243.3255
 30
0.0
 10
362.6626
 20
-259.6639
 30
0.0
 10
364.9609
 20
-280.2243
 30
0.0
 10
358.4858
 20
-290.4717
 30
0.0
 10
340.9785
 20
-288.1804
 30
0.0
 10
339.1205
 20
-267.5046
 30
0.0
 10
323.8279
 20
-262.6123
 30
0.0
 10
315.5896
 20
-267.9339
 30
0.0
 10
315.9904
 20
-283.4056
 30
0.0
 10
303.7647
 20
-284.0434
 30
0.0
 10
297.3283
 20
-265.8481
 30
0.0
 10
286.1601
 20
-251.8901
 30
0.0
 10
285.524
 20
-232.6095
 30
0.0
 10
285.2871
 20
-225.4543
 30
0.0
 10
290.0458
 20
-216.8826
 30
0.0
 10
289.1701
 20
-209.0359
 30
0.0
 10
285.6525
 20
-177.4819
 30
0.0
 10
248.2302
 20
-155.5252
 30
0.0
 10
258.1635
 20
-110.4538
 30
0.0
 10
248.6904
 20
-110.886
 30
0.0
 10
235.7882
 20
-113.1328
 30
0.0
 10
223.5058
 20
-114.7407
 30
0.0
 10
219.3763
 20
-183.4656
 30
0.0
 10
192.8353
 20
-225.8602
 30
0.0
 10
157.8423
 20
-258.3254
 30
0.0
 10
154.5375
 20
-262.3045
 30
0.0
 10
157.5363
 20
-273.6818
 30
0.0
 10
152.3675
 20
-275.4717
 30
0.0
 10
146.5128
 20
-272.3493
 30
0.0
 10
148.1131
 20
-260.4688
 30
0.0
 10
137.7756
 20
-262.6123
 30
0.0
 10
128.6143
 20
-275.0334
 30
0.0
 10
125.2621
 20
-308.6953
 30
0.0
 10
132.3044
 20
-326.9048
 30
0.0
  0
SPLINE
  5
8C
330
1F
100
AcDbEntity
  8
Layer 1
 62
   250
370
    20
100
AcDbSpline
210
0.0
220
0.0
230
1.0
 70
    11
 71
     3
 72
    50
 73
    46
 74
     0
 42
0.0000000001
 43
0.0000000001
 40
0.0
 40
0.0
 40
0.0
 40
0.0
 40
0.0666666666666667
 40
0.0666666666666667
 40
0.0666666666666667
 40
0.1333333333333333
 40
0.1333333333333333
 40
0.1333333333333333
 40
0.2
 40
0.2
 40
0.2
 40
0.2666666666666667
 40
0.2666666666666667
 40
0.2666666666666667
 40
0.3333333333333333
 40
0.3333333333333333
 40
0.3333333333333333
 40
0.4
 40
0.4
 40
0.4
 40
0.4666666666666667
 40
0.4666666666666667
 40
0.4666666666666667
 40
0.5333333333333333
 40
0.5333333333333333
 40
0.5333333333333333
 40
0.6
 40
0.6
 40
0.6
 40
0.6666666666666666
 40
0.6666666666666666
 40
0.6666666666666666
 40
0.7333333333333333
 40
0.7333333333333333
 40
0.7333333333333333
 40
0.8
 40
0.8
 40
0.8
 40
0.8666666666666667
 40
0.8666666666666667
 40
0.8666666666666667
 40
0.9333333333333333
 40
0.9333333333333333
 40
0.9333333333333333
 40
1.0
 40
1.0
 40
1.0
 40
1.0
 10
218.0345
 20
35.2745
 30
0.0
 10
216.3395
 20
0.2639
 30
0.0
 10
216.9685
 20
-71.3882
 30
0.0
 10
243.569
 20
-74.0207
 30
0.0
 10
257.9559
 20
-75.4452
 30
0.0
 10
264.9325
 20
-61.4497
 30
0.0
 10
269.1068
 20
-46.1613
 30
0.0
 10
254.9337
 20
-42.6379
 30
0.0
 10
240.1281
 20
-5.5213
 30
0.0
 10
259.987
 20
5.2737
 30
0.0
 10
270.5443
 20
6.9615
 30
0.0
 10
271.3156
 20
-2.8454
 30
0.0
 10
281.8755
 20
-1.1565
 30
0.0
 10
295.161
 20
66.8142
 30
0.0
 10
336.986
 20
101.2517
 30
0.0
 10
398.6122
 20
112.4275
 30
0.0
 10
400.515
 20
138.2325
 30
0.0
 10
384.1985
 20
142.6378
 30
0.0
 10
374.9003
 20
155.2888
 30
0.0
 10
376.7616
 20
170.2462
 30
0.0
 10
389.1923
 20
172.7854
 30
0.0
 10
400.4382
 20
176.72
 30
0.0
 10
398.1226
 20
196.0856
 30
0.0
 10
393.9096
 20
218.5912
 30
0.0
 10
404.0868
 20
232.4388
 30
0.0
 10
422.7187
 20
232.1837
 30
0.0
 10
434.161
 20
223.4854
 30
0.0
 10
446.0385
 20
215.2945
 30
0.0
 10
454.6628
 20
223.0206
 30
0.0
 10
452.5879
 20
243.3148
 30
0.0
 10
471.5738
 20
238.867
 30
0.0
 10
474.1626
 20
223.3346
 30
0.0
 10
470.8576
 20
200.8788
 30
0.0
 10
487.991
 20
202.4339
 30
0.0
 10
496.0276
 20
238.1421
 30
0.0
 10
477.0718
 20
277.7836
 30
0.0
 10
451.5106
 20
288.1576
 30
0.0
 10
440.4458
 20
281.3902
 30
0.0
 10
438.4474
 20
271.8749
 30
0.0
 10
427.7987
 20
266.7264
 30
0.0
 10
399.4317
 20
253.0184
 30
0.0
 10
372.9881
 20
277.8819
 30
0.0
 10
354.8371
 20
294.5899
 30
0.0
 10
290.0491
 20
249.8787
 30
0.0
 10
223.9694
 20
157.8849
 30
0.0
 10
218.0345
 20
35.2745
 30
0.0
  0
SPLINE
  5
8D
330
1F
100
AcDbEntity
  8
Layer 1
 62
   250
370
    20
100
AcDbSpline
210
0.0
220
0.0
230
1.0
 70
    11
 71
     3
 72
    20
 73
    16
 74
     0
 42
0.0000000001
 43
0.0000000001
 40
0.0
 40
0.0
 40
0.0
 40
0.0
 40
0.2
 40
0.2
 40
0.2
 40
0.4
 40
0.4
 40
0.4
 40
0.6000000000000001
 40
0.6000000000000001
 40
0.6000000000000001
 40
0.8
 40
0.8
 40
0.8
 40
1.0
 40
1.0
 40
1.0
 40
1.0
 10
360.3083
 20
506.753
 30
0.0
 10
356.8588
 20
463.0605
 30
0.0
 10
411.3394
 20
420.9422
 30
0.0
 10
451.5106
 20
451.0342
 30
0.0
 10
448.1523
 20
464.9447
 30
0.0
 10
442.7467
 20
476.4555
 30
0.0
 10
433.27
 20
483.1804
 30
0.0
 10
416.5262
 20
461.8262
 30
0.0
 10
384.8457
 20
475.5372
 30
0.0
 10
382.1977
 20
502.4661
 30
0.0
 10
380.7368
 20
517.3283
 30
0.0
 10
390.0231
 20
521.9817
 30
0.0
 10
387.6688
 20
536.7568
 30
0.0
 10
373.5707
 20
540.3258
 30
0.0
 10
361.3596
 20
520.0631
 30
0.0
 10
360.3083
 20
506.753
 30
0.0
  0
SPLINE
  5
8E
330
1F
100
AcDbEntity
  8
Layer 1
 62
   250
370
    20
100
AcDbSpline
210
0.0
220
0.0
230
1.0
 70
    11
 71
     3
 72
    14
 73
    10
 74
     0
 42
0.0000000001
 43
0.0000000001
 40
0.0
 40
0.0
 40
0.0
 40
0.0
 40
0.3333333333333333
 40
0.3333333333333333
 40
0.3333333333333333
 40
0.6666666666666666
 40
0.6666666666666666
 40
0.6666666666666666
 40
1.0
 40
1.0
 40
1.0
 40
1.0
 10
482.5197
 20
71.7076
 30
0.0
 10
488.9053
 20
87.1671
 30
0.0
 10
480.6402
 20
118.3991
 30
0.0
 10
480.6937
 20
140.2869
 30
0.0
 10
463.3795
 20
141.344
 30
0.0
 10
467.6907
 20
116.9898
 30
0.0
 10
446.0385
 20
123.1426
 30
0.0
 10
426.8216
 20
94.868
 30
0.0
 10
468.7921
 20
87.1985
 30
0.0
 10
482.5197
 20
71.7076
 30
0.0
  0
SPLINE
  5
8F
330
1F
100
AcDbEntity
  8
Layer 1
 62
   250
370
    20
100
AcDbSpline
210
0.0
220
0.0
230
1.0
 70
    11
 71
     3
 72
    26
 73
    22
 74
     0
 42
0.0000000001
 43
0.0000000001
 40
0.0
 40
0.0
 40
0.0
 40
0.0
 40
0.1428571428571428
 40
0.1428571428571428
 40
0.1428571428571428
 40
0.2857142857142857
 40
0.2857142857142857
 40
0.2857142857142857
 40
0.4285714285714285
 40
0.4285714285714285
 40
0.4285714285714285
 40
0.5714285714285714
 40
0.5714285714285714
 40
0.5714285714285714
 40
0.7142857142857142
 40
0.7142857142857142
 40
0.7142857142857142
 40
0.8571428571428571
 40
0.8571428571428571
 40
0.8571428571428571
 40
1.0
 40
1.0
 40
1.0
 40
1.0
 10
566.4239
 20
453.1756
 30
0.0
 10
554.3293
 20
492.8557
 30
0.0
 10
530.1124
 20
544.7625
 30
0.0
 10
486.1685
 20
541.0437
 30
0.0
 10
460.3901
 20
538.8608
 30
0.0
 10
431.3551
 20
488.2064
 30
0.0
 10
466.1017
 20
463.8906
 30
0.0
 10
476.9623
 20
483.6128
 30
0.0
 10
471.4636
 20
513.2026
 30
0.0
 10
497.1109
 20
511.0398
 30
0.0
 10
508.5919
 20
510.0698
 30
0.0
 10
524.0208
 20
493.7598
 30
0.0
 10
524.4714
 20
474.6067
 30
0.0
 10
524.9969
 20
452.3353
 30
0.0
 10
509.764
 20
450.9745
 30
0.0
 10
506.2316
 20
429.603
 30
0.0
 10
529.7832
 20
413.6342
 30
0.0
 10
557.3953
 20
391.2168
 30
0.0
 10
584.6646
 20
386.7417
 30
0.0
 10
583.8149
 20
405.7267
 30
0.0
 10
573.7513
 20
429.1393
 30
0.0
 10
566.4239
 20
453.1756
 30
0.0
  0
SPLINE
  5
90
330
1F
100
AcDbEntity
  8
Layer 1
 62
   250
370
    20
100
AcDbSpline
210
0.0
220
0.0
230
1.0
 70
    11
 71
     3
 72
    35
 73
    31
 74
     0
 42
0.0000000001
 43
0.0000000001
 40
0.0
 40
0.0
 40
0.0
 40
0.0
 40
0.1
 40
0.1
 40
0.1
 40
0.2
 40
0.2
 40
0.2
 40
0.3
 40
0.3
 40
0.3
 40
0.4
 40
0.4
 40
0.4
 40
0.5
 40
0.5
 40
0.5
 40
0.6000000000000001
 40
0.6000000000000001
 40
0.6000000000000001
 40
0.7000000000000001
 40
0.7000000000000001
 40
0.7000000000000001
 40
0.8
 40
0.8
 40
0.8
 40
0.9
 40
0.9
 40
0.9
 40
1.0
 40
1.0
 40
1.0
 40
1.0
 10
467.9277
 20
313.8756
 30
0.0
 10
531.6446
 20
305.9398
 30
0.0
 10
575.511
 20
248.4006
 30
0.0
 10
555.4804
 20
168.1462
 30
0.0
 10
586.3208
 20
169.744
 30
0.0
 10
613.9958
 20
185.8515
 30
0.0
 10
641.2107
 20
161.7181
 30
0.0
 10
666.6651
 20
139.1398
 30
0.0
 10
666.5883
 20
57.0965
 30
0.0
 10
630.2648
 20
54.5632
 30
0.0
 10
614.45
 20
53.4617
 30
0.0
 10
599.2116
 20
70.7174
 30
0.0
 10
599.2555
 20
86.7095
 30
0.0
 10
599.3031
 20
102.5285
 30
0.0
 10
613.464
 20
104.1717
 30
0.0
 10
610.2015
 20
118.8557
 30
0.0
 10
543.7427
 20
141.2811
 30
0.0
 10
555.6176
 20
14.4154
 30
0.0
 10
606.5528
 20
7.4151
 30
0.0
 10
635.7127
 20
3.4066
 30
0.0
 10
661.0542
 20
29.1945
 30
0.0
 10
672.2172
 20
45.9896
 30
0.0
 10
709.176
 20
101.5899
 30
0.0
 10
692.0107
 20
210.7353
 30
0.0
 10
653.9766
 20
262.4436
 30
0.0
 10
613.6606
 20
317.2583
 30
0.0
 10
543.9563
 20
360.0153
 30
0.0
 10
466.1017
 20
343.8794
 30
0.0
 10
464.211
 20
337.6426
 30
0.0
 10
457.0232
 20
315.2496
 30
0.0
 10
467.9277
 20
313.8756
 30
0.0
  0
SPLINE
  5
91
330
1F
100
AcDbEntity
  8
Layer 1
 62
   250
370
    20
100
AcDbSpline
210
0.0
220
0.0
230
1.0
 70
    11
 71
     3
 72
    17
 73
    13
 74
     0
 42
0.0000000001
 43
0.0000000001
 40
0.0
 40
0.0
 40
0.0
 40
0.0
 40
0.25
 40
0.25
 40
0.25
 40
0.5
 40
0.5
 40
0.5
 40
0.75
 40
0.75
 40
0.75
 40
1.0
 40
1.0
 40
1.0
 40
1.0
 10
526.2948
 20
579.6191
 30
0.0
 10
536.323
 20
563.1623
 30
0.0
 10
561.68
 20
554.5573
 30
0.0
 10
577.3699
 20
551.7598
 30
0.0
 10
580.0285
 20
566.4674
 30
0.0
 10
582.2188
 20
581.7252
 30
0.0
 10
590.3788
 20
589.9734
 30
0.0
 10
590.3788
 20
589.9734
 30
0.0
 10
540.1904
 20
589.9734
 30
0.0
 10
540.1904
 20
589.9734
 30
0.0
 10
535.8533
 20
586.1762
 30
0.0
 10
531.0276
 20
582.9527
 30
0.0
 10
526.2948
 20
579.6191
 30
0.0
  0
SPLINE
  5
92
330
1F
100
AcDbEntity
  8
Layer 1
 62
   250
370
    20
100
AcDbSpline
210
0.0
220
0.0
230
1.0
 70
    11
 71
     3
 72
    17
 73
    13
 74
     0
 42
0.0000000001
 43
0.0000000001
 40
0.0
 40
0.0
 40
0.0
 40
0.0
 40
0.25
 40
0.25
 40
0.25
 40
0.5
 40
0.5
 40
0.5
 40
0.75
 40
0.75
 40
0.75
 40
1.0
 40
1.0
 40
1.0
 40
1.0
 10
599.7251
 20
589.9734
 30
0.0
 10
618.3184
 20
554.479
 30
0.0
 10
655.2322
 20
532.4197
 30
0.0
 10
648.5054
 20
474.6067
 30
0.0
 10
660.2649
 20
474.7141
 30
0.0
 10
680.5177
 20
484.3975
 30
0.0
 10
695.9317
 20
481.0349
 30
0.0
 10
694.1595
 20
514.8832
 30
0.0
 10
691.8338
 20
557.5172
 30
0.0
 10
702.683
 20
589.9734
 30
0.0
 10
702.683
 20
589.9734
 30
0.0
 10
599.7251
 20
589.9734
 30
0.0
 10
599.7251
 20
589.9734
 30
0.0
  0
SPLINE
  5
93
330
1F
100
AcDbEntity
  8
Layer 1
 62
   250
370
    20
100
AcDbSpline
210
0.0
220
0.0
230
1.0
 70
    11
 71
     3
 72
    20
 73
    16
 74
     0
 42
0.0000000001
 43
0.0000000001
 40
0.0
 40
0.0
 40
0.0
 40
0.0
 40
0.2
 40
0.2
 40
0.2
 40
0.4
 40
0.4
 40
0.4
 40
0.6000000000000001
 40
0.6000000000000001
 40
0.6000000000000001
 40
0.8
 40
0.8
 40
0.8
 40
1.0
 40
1.0
 40
1.0
 40
1.0
 10
604.7303
 20
-256.1819
 30
0.0
 10
622.1333
 20
-267.8791
 30
0.0
 10
645.3703
 20
-272.7249
 30
0.0
 10
659.4514
 20
-288.3282
 30
0.0
 10
666.1135
 20
-299.7885
 30
0.0
 10
668.2335
 20
-316.5856
 30
0.0
 10
683.1633
 20
-318.3331
 30
0.0
 10
682.5513
 20
-288.226
 30
0.0
 10
676.2546
 20
-246.5219
 30
0.0
 10
670.3946
 20
-215.4642
 30
0.0
 10
640.3412
 20
-212.4884
 30
0.0
 10
640.392
 20
-253.2508
 30
0.0
 10
610.2015
 20
-243.3255
 30
0.0
 10
608.5807
 20
-247.8493
 30
0.0
 10
604.6468
 20
-249.6576
 30
0.0
 10
604.7303
 20
-256.1819
 30
0.0
  0
SPLINE
  5
94
330
1F
100
AcDbEntity
  8
Layer 1
 62
   250
370
    20
100
AcDbSpline
210
0.0
220
0.0
230
1.0
 70
    11
 71
     3
 72
    32
 73
    28
 74
     0
 42
0.0000000001
 43
0.0000000001
 40
0.0
 40
0.0
 40
0.0
 40
0.0
 40
0.1111111111111111
 40
0.1111111111111111
 40
0.1111111111111111
 40
0.2222222222222222
 40
0.2222222222222222
 40
0.2222222222222222
 40
0.3333333333333333
 40
0.3333333333333333
 40
0.3333333333333333
 40
0.4444444444444444
 40
0.4444444444444444
 40
0.4444444444444444
 40
0.5555555555555556
 40
0.5555555555555556
 40
0.5555555555555556
 40
0.6666666666666666
 40
0.6666666666666666
 40
0.6666666666666666
 40
0.7777777777777777
 40
0.7777777777777777
 40
0.7777777777777777
 40
0.8888888888888888
 40
0.8888888888888888
 40
0.8888888888888888
 40
1.0
 40
1.0
 40
1.0
 40
1.0
 10
1075.3303
 20
157.4312
 30
0.0
 10
1072.6321
 20
184.101
 30
0.0
 10
1049.0978
 20
197.9516
 30
0.0
 10
1031.5527
 20
215.2945
 30
0.0
 10
1018.6203
 20
228.075
 30
0.0
 10
996.607
 20
263.8075
 30
0.0
 10
978.6577
 20
264.585
 30
0.0
 10
960.0016
 20
265.394
 30
0.0
 10
911.9962
 20
217.7153
 30
0.0
 10
900.2212
 20
206.7208
 30
0.0
 10
833.2065
 20
144.1374
 30
0.0
 10
729.1676
 20
36.3002
 30
0.0
 10
743.3554
 20
-89.0226
 30
0.0
 10
746.5292
 20
-117.0531
 30
0.0
 10
750.0177
 20
-157.778
 30
0.0
 10
765.2448
 20
-168.317
 30
0.0
 10
778.0667
 20
-127.8957
 30
0.0
 10
776.3983
 20
-83.0864
 30
0.0
 10
790.7792
 20
-41.8745
 30
0.0
 10
816.6524
 20
32.2674
 30
0.0
 10
887.9337
 20
112.1207
 30
0.0
 10
960.417
 20
110.282
 30
0.0
 10
993.4779
 20
109.4448
 30
0.0
 10
1017.388
 20
87.9235
 30
0.0
 10
1037.0238
 20
69.5662
 30
0.0
 10
1045.6396
 20
102.5741
 30
0.0
 10
1079.6649
 20
114.5972
 30
0.0
 10
1075.3303
 20
157.4312
 30
0.0
  0
SPLINE
  5
95
330
1F
100
AcDbEntity
  8
Layer 1
 62
   250
370
    20
100
AcDbSpline
210
0.0
220
0.0
230
1.0
 70
    11
 71
     3
 72
    59
 73
    55
 74
     0
 42
0.0000000001
 43
0.0000000001
 40
0.0
 40
0.0
 40
0.0
 40
0.0
 40
0.0555555555555556
 40
0.0555555555555556
 40
0.0555555555555556
 40
0.1111111111111111
 40
0.1111111111111111
 40
0.1111111111111111
 40
0.1666666666666667
 40
0.1666666666666667
 40
0.1666666666666667
 40
0.2222222222222222
 40
0.2222222222222222
 40
0.2222222222222222
 40
0.2777777777777778
 40
0.2777777777777778
 40
0.2777777777777778
 40
0.3333333333333333
 40
0.3333333333333333
 40
0.3333333333333333
 40
0.3888888888888888
 40
0.3888888888888888
 40
0.3888888888888888
 40
0.4444444444444444
 40
0.4444444444444444
 40
0.4444444444444444
 40
0.5
 40
0.5
 40
0.5
 40
0.5555555555555556
 40
0.5555555555555556
 40
0.5555555555555556
 40
0.611111111111111
 40
0.611111111111111
 40
0.611111111111111
 40
0.6666666666666666
 40
0.6666666666666666
 40
0.6666666666666666
 40
0.7222222222222222
 40
0.7222222222222222
 40
0.7222222222222222
 40
0.7777777777777777
 40
0.7777777777777777
 40
0.7777777777777777
 40
0.8333333333333333
 40
0.8333333333333333
 40
0.8333333333333333
 40
0.8888888888888888
 40
0.8888888888888888
 40
0.8888888888888888
 40
0.9444444444444444
 40
0.9444444444444444
 40
0.9444444444444444
 40
1.0
 40
1.0
 40
1.0
 40
1.0
 10
756.1249
 20
481.0349
 30
0.0
 10
776.9093
 20
471.6169
 30
0.0
 10
796.1289
 20
457.5738
 30
0.0
 10
790.7792
 20
427.4576
 30
0.0
 10
787.6588
 20
409.8809
 30
0.0
 10
769.2166
 20
403.7767
 30
0.0
 10
765.2448
 20
386.7417
 30
0.0
 10
796.2746
 20
325.3298
 30
0.0
 10
840.1979
 20
279.0716
 30
0.0
 10
920.2879
 20
275.3001
 30
0.0
 10
941.4077
 20
297.6314
 30
0.0
 10
966.3423
 20
315.4834
 30
0.0
 10
987.7776
 20
337.4512
 30
0.0
 10
989.5259
 20
378.2126
 30
0.0
 10
963.9321
 20
417.6427
 30
0.0
 10
931.2304
 20
410.3142
 30
0.0
 10
923.3635
 20
408.5525
 30
0.0
 10
914.9322
 20
399.1486
 30
0.0
 10
914.8159
 20
391.0285
 30
0.0
 10
914.6469
 20
379.3922
 30
0.0
 10
927.8911
 20
375.4222
 30
0.0
 10
927.5817
 20
365.3106
 30
0.0
 10
927.1482
 20
351.0194
 30
0.0
 10
912.1711
 20
341.8636
 30
0.0
 10
898.3987
 20
346.0218
 30
0.0
 10
885.6888
 20
349.8581
 30
0.0
 10
887.2803
 20
368.6376
 30
0.0
 10
876.5093
 20
376.0257
 30
0.0
 10
864.6103
 20
373.4276
 30
0.0
 10
853.917
 20
353.5415
 30
0.0
 10
834.5578
 20
354.5954
 30
0.0
 10
817.8812
 20
355.5016
 30
0.0
 10
801.5623
 20
370.5744
 30
0.0
 10
799.9
 20
386.7417
 30
0.0
 10
806.8465
 20
384.9
 30
0.0
 10
811.986
 20
380.9372
 30
0.0
 10
821.7883
 20
382.4549
 30
0.0
 10
845.2124
 20
392.2456
 30
0.0
 10
853.1957
 20
422.0024
 30
0.0
 10
871.0382
 20
438.1736
 30
0.0
 10
879.5583
 20
445.8959
 30
0.0
 10
890.3086
 20
444.9057
 30
0.0
 10
896.5761
 20
457.4624
 30
0.0
 10
888.7203
 20
473.0162
 30
0.0
 10
876.3465
 20
474.6513
 30
0.0
 10
867.3894
 20
487.4673
 30
0.0
 10
845.8902
 20
518.2319
 30
0.0
 10
843.6391
 20
558.7103
 30
0.0
 10
857.3382
 20
589.9734
 30
0.0
 10
857.3382
 20
589.9734
 30
0.0
 10
783.1429
 20
589.9734
 30
0.0
 10
783.1429
 20
589.9734
 30
0.0
 10
768.2284
 20
560.6025
 30
0.0
 10
759.6267
 20
523.8146
 30
0.0
 10
756.1249
 20
481.0349
 30
0.0
  0
SPLINE
  5
96
330
1F
100
AcDbEntity
  8
Layer 1
 62
   250
370
    20
100
AcDbSpline
210
0.0
220
0.0
230
1.0
 70
    11
 71
     3
 72
    47
 73
    43
 74
     0
 42
0.0000000001
 43
0.0000000001
 40
0.0
 40
0.0
 40
0.0
 40
0.0
 40
0.0714285714285714
 40
0.0714285714285714
 40
0.0714285714285714
 40
0.1428571428571428
 40
0.1428571428571428
 40
0.1428571428571428
 40
0.2142857142857143
 40
0.2142857142857143
 40
0.2142857142857143
 40
0.2857142857142857
 40
0.2857142857142857
 40
0.2857142857142857
 40
0.3571428571428571
 40
0.3571428571428571
 40
0.3571428571428571
 40
0.4285714285714285
 40
0.4285714285714285
 40
0.4285714285714285
 40
0.5
 40
0.5
 40
0.5
 40
0.5714285714285714
 40
0.5714285714285714
 40
0.5714285714285714
 40
0.6428571428571428
 40
0.6428571428571428
 40
0.6428571428571428
 40
0.7142857142857142
 40
0.7142857142857142
 40
0.7142857142857142
 40
0.7857142857142857
 40
0.7857142857142857
 40
0.7857142857142857
 40
0.8571428571428571
 40
0.8571428571428571
 40
0.8571428571428571
 40
0.9285714285714285
 40
0.9285714285714285
 40
0.9285714285714285
 40
1.0
 40
1.0
 40
1.0
 40
1.0
 10
761.5961
 20
-318.3331
 30
0.0
 10
761.59
 20
-320.4815
 30
0.0
 10
763.0749
 20
-320.8835
 30
0.0
 10
763.4188
 20
-322.6179
 30
0.0
 10
765.7523
 20
-322.7363
 30
0.0
 10
765.9454
 20
-325.3647
 30
0.0
 10
768.8933
 20
-324.7613
 30
0.0
 10
793.9711
 20
-270.8154
 30
0.0
 10
839.0674
 20
-184.3871
 30
0.0
 10
920.2879
 20
-196.1764
 30
0.0
 10
956.6348
 20
-201.4523
 30
0.0
 10
985.5033
 20
-232.6763
 30
0.0
 10
987.7776
 20
-279.7566
 30
0.0
 10
998.3882
 20
-281.4991
 30
0.0
 10
1005.9078
 20
-267.4782
 30
0.0
 10
1016.9607
 20
-258.3254
 30
0.0
 10
1025.0654
 20
-251.6147
 30
0.0
 10
1042.9939
 20
-244.5598
 30
0.0
 10
1044.3211
 20
-234.7518
 30
0.0
 10
1046.2807
 20
-220.2572
 30
0.0
 10
1026.034
 20
-202.555
 30
0.0
 10
1018.784
 20
-189.7482
 30
0.0
 10
1006.0654
 20
-195.9607
 30
0.0
 10
1005.4631
 20
-208.0497
 30
0.0
 10
991.4234
 20
-209.0359
 30
0.0
 10
952.0329
 20
-211.7979
 30
0.0
 10
942.3754
 20
-141.6827
 30
0.0
 10
980.4803
 20
-146.8868
 30
0.0
 10
991.1409
 20
-148.3407
 30
0.0
 10
988.5996
 20
-155.7451
 30
0.0
 10
1000.5434
 20
-161.8867
 30
0.0
 10
1015.6784
 20
-141.063
 30
0.0
 10
998.8241
 20
-114.2728
 30
0.0
 10
985.9514
 20
-108.3103
 30
0.0
 10
938.5725
 20
-86.3648
 30
0.0
 10
888.5153
 20
-151.7699
 30
0.0
 10
861.9183
 20
-166.1735
 30
0.0
 10
831.6123
 20
-182.5869
 30
0.0
 10
816.1447
 20
-159.7088
 30
0.0
 10
796.2539
 20
-155.4584
 30
0.0
 10
791.6762
 20
-217.9437
 30
0.0
 10
783.295
 20
-275.9638
 30
0.0
 10
761.5961
 20
-318.3331
 30
0.0
  0
SPLINE
  5
97
330
1F
100
AcDbEntity
  8
Layer 1
 62
   250
370
    20
100
AcDbSpline
210
0.0
220
0.0
230
1.0
 70
    11
 71
     3
 72
    11
 73
     7
 74
     0
 42
0.0000000001
 43
0.0000000001
 40
0.0
 40
0.0
 40
0.0
 40
0.0
 40
0.5
 40
0.5
 40
0.5
 40
1.0
 40
1.0
 40
1.0
 40
1.0
 10
816.317
 20
-481.2057
 30
0.0
 10
841.0295
 20
-455.8278
 30
0.0
 10
812.6479
 20
-383.8466
 30
0.0
 10
781.6593
 20
-416.9131
 30
0.0
 10
787.6175
 20
-436.3579
 30
0.0
 10
799.6414
 20
-467.2172
 30
0.0
 10
816.317
 20
-481.2057
 30
0.0
  0
SPLINE
  5
98
330
1F
100
AcDbEntity
  8
Layer 1
 62
   250
370
    20
100
AcDbSpline
210
0.0
220
0.0
230
1.0
 70
    11
 71
     3
 72
    32
 73
    28
 74
     0
 42
0.0000000001
 43
0.0000000001
 40
0.0
 40
0.0
 40
0.0
 40
0.0
 40
0.1111111111111111
 40
0.1111111111111111
 40
0.1111111111111111
 40
0.2222222222222222
 40
0.2222222222222222
 40
0.2222222222222222
 40
0.3333333333333333
 40
0.3333333333333333
 40
0.3333333333333333
 40
0.4444444444444444
 40
0.4444444444444444
 40
0.4444444444444444
 40
0.5555555555555556
 40
0.5555555555555556
 40
0.5555555555555556
 40
0.6666666666666666
 40
0.6666666666666666
 40
0.6666666666666666
 40
0.7777777777777777
 40
0.7777777777777777
 40
0.7777777777777777
 40
0.8888888888888888
 40
0.8888888888888888
 40
0.8888888888888888
 40
1.0
 40
1.0
 40
1.0
 40
1.0
 10
896.5761
 20
-234.7518
 30
0.0
 10
864.7706
 20
-231.8389
 30
0.0
 10
837.66
 20
-256.3066
 30
0.0
 10
832.7343
 20
-288.3282
 30
0.0
 10
829.626
 20
-308.5241
 30
0.0
 10
835.3531
 20
-330.3563
 30
0.0
 10
834.5578
 20
-350.4793
 30
0.0
 10
833.9218
 20
-366.5504
 30
0.0
 10
827.5543
 20
-380.0812
 30
0.0
 10
825.4371
 20
-391.1972
 30
0.0
 10
844.9755
 20
-398.2471
 30
0.0
 10
850.8681
 20
-421.3266
 30
0.0
 10
865.5669
 20
-434.0595
 30
0.0
 10
887.9155
 20
-420.3131
 30
0.0
 10
910.2175
 20
-406.5099
 30
0.0
 10
940.3512
 20
-401.9133
 30
0.0
 10
941.5947
 20
-380.5115
 30
0.0
 10
946.1309
 20
-362.9844
 30
0.0
 10
949.4711
 20
-344.0491
 30
0.0
 10
923.8564
 20
-348.51
 30
0.0
 10
897.5766
 20
-299.2428
 30
0.0
 10
929.4078
 20
-288.3282
 30
0.0
 10
939.1869
 20
-288.9824
 30
0.0
 10
934.0535
 20
-307.1593
 30
0.0
 10
945.8224
 20
-305.4746
 30
0.0
 10
971.1553
 20
-262.7155
 30
0.0
 10
920.2372
 20
-236.9196
 30
0.0
 10
896.5761
 20
-234.7518
 30
0.0
  0
SPLINE
  5
99
330
1F
100
AcDbEntity
  8
Layer 1
 62
   250
370
    20
100
AcDbSpline
210
0.0
220
0.0
230
1.0
 70
    11
 71
     3
 72
    14
 73
    10
 74
     0
 42
0.0000000001
 43
0.0000000001
 40
0.0
 40
0.0
 40
0.0
 40
0.0
 40
0.3333333333333333
 40
0.3333333333333333
 40
0.3333333333333333
 40
0.6666666666666666
 40
0.6666666666666666
 40
0.6666666666666666
 40
1.0
 40
1.0
 40
1.0
 40
1.0
 10
869.2156
 20
-74.0207
 30
0.0
 10
881.2214
 20
-62.4116
 30
0.0
 10
907.6849
 20
-67.7888
 30
0.0
 10
911.1671
 20
-46.1613
 30
0.0
 10
896.0616
 20
-38.3105
 30
0.0
 10
869.9842
 20
-51.1072
 30
0.0
 10
861.9183
 20
-65.448
 30
0.0
 10
862.1406
 20
-70.9022
 30
0.0
 10
864.5717
 20
-73.7584
 30
0.0
 10
869.2156
 20
-74.0207
 30
0.0
  0
SPLINE
  5
9A
330
1F
100
AcDbEntity
  8
Layer 1
 62
   250
370
    20
100
AcDbSpline
210
0.0
220
0.0
230
1.0
 70
    11
 71
     3
 72
    35
 73
    31
 74
     0
 42
0.0000000001
 43
0.0000000001
 40
0.0
 40
0.0
 40
0.0
 40
0.0
 40
0.1
 40
0.1
 40
0.1
 40
0.2
 40
0.2
 40
0.2
 40
0.3
 40
0.3
 40
0.3
 40
0.4
 40
0.4
 40
0.4
 40
0.5
 40
0.5
 40
0.5
 40
0.6000000000000001
 40
0.6000000000000001
 40
0.6000000000000001
 40
0.7000000000000001
 40
0.7000000000000001
 40
0.7000000000000001
 40
0.8
 40
0.8
 40
0.8
 40
0.9
 40
0.9
 40
0.9
 40
1.0
 40
1.0
 40
1.0
 40
1.0
 10
879.9305
 20
589.9734
 30
0.0
 10
876.151
 20
583.904
 30
0.0
 10
873.5772
 20
575.5254
 30
0.0
 10
872.8609
 20
571.0455
 30
0.0
 10
862.0277
 20
503.181
 30
0.0
 10
923.1076
 20
510.3838
 30
0.0
 10
947.6484
 20
489.6086
 30
0.0
 10
961.0616
 20
478.2547
 30
0.0
 10
967.2928
 20
444.9988
 30
0.0
 10
967.7116
 20
425.3162
 30
0.0
 10
992.9729
 20
414.2761
 30
0.0
 10
1003.9456
 20
386.4522
 30
0.0
 10
1020.6092
 20
365.3106
 30
0.0
 10
1054.3346
 20
402.5667
 30
0.0
 10
1006.6885
 20
444.0299
 30
0.0
 10
991.4234
 20
470.3199
 30
0.0
 10
992.78
 20
476.5841
 30
0.0
 10
1001.2708
 20
474.467
 30
0.0
 10
1000.5434
 20
483.1804
 30
0.0
 10
1003.6422
 20
522.5781
 30
0.0
 10
1025.4015
 20
550.888
 30
0.0
 10
1026.0813
 20
586.0474
 30
0.0
 10
1014.6512
 20
587.3343
 30
0.0
 10
1012.8931
 20
577.254
 30
0.0
 10
1002.3694
 20
577.4737
 30
0.0
 10
1001.8581
 20
581.7986
 30
0.0
 10
1001.7602
 20
585.9542
 30
0.0
 10
1001.9094
 20
589.9734
 30
0.0
 10
1001.9094
 20
589.9734
 30
0.0
 10
879.9305
 20
589.9734
 30
0.0
 10
879.9305
 20
589.9734
 30
0.0
  0
SPLINE
  5
9B
330
1F
100
AcDbEntity
  8
Layer 1
 62
   250
370
    20
100
AcDbSpline
210
0.0
220
0.0
230
1.0
 70
    11
 71
     3
 72
    17
 73
    13
 74
     0
 42
0.0000000001
 43
0.0000000001
 40
0.0
 40
0.0
 40
0.0
 40
0.0
 40
0.25
 40
0.25
 40
0.25
 40
0.5
 40
0.5
 40
0.5
 40
0.75
 40
0.75
 40
0.75
 40
1.0
 40
1.0
 40
1.0
 40
1.0
 10
892.9274
 20
-532.6417
 30
0.0
 10
886.1015
 20
-533.5721
 30
0.0
 10
869.7232
 20
-546.2099
 30
0.0
 10
876.5093
 20
-554.0718
 30
0.0
 10
887.1355
 20
-566.3805
 30
0.0
 10
903.0484
 20
-581.3564
 30
0.0
 10
921.1509
 20
-590.0266
 30
0.0
 10
921.1509
 20
-590.0266
 30
0.0
 10
953.0287
 20
-590.0266
 30
0.0
 10
953.0287
 20
-590.0266
 30
0.0
 10
944.0333
 20
-563.3606
 30
0.0
 10
915.2661
 20
-529.5879
 30
0.0
 10
892.9274
 20
-532.6417
 30
0.0
  0
SPLINE
  5
9C
330
1F
100
AcDbEntity
  8
Layer 1
 62
   250
370
    20
100
AcDbSpline
210
0.0
220
0.0
230
1.0
 70
    11
 71
     3
 72
    23
 73
    19
 74
     0
 42
0.0000000001
 43
0.0000000001
 40
0.0
 40
0.0
 40
0.0
 40
0.0
 40
0.1666666666666667
 40
0.1666666666666667
 40
0.1666666666666667
 40
0.3333333333333333
 40
0.3333333333333333
 40
0.3333333333333333
 40
0.5
 40
0.5
 40
0.5
 40
0.6666666666666666
 40
0.6666666666666666
 40
0.6666666666666666
 40
0.8333333333333333
 40
0.8333333333333333
 40
0.8333333333333333
 40
1.0
 40
1.0
 40
1.0
 40
1.0
 10
912.9907
 20
-483.349
 30
0.0
 10
944.6562
 20
-509.7655
 30
0.0
 10
963.818
 20
-550.8708
 30
0.0
 10
984.6397
 20
-590.0266
 30
0.0
 10
984.6397
 20
-590.0266
 30
0.0
 10
1048.3658
 20
-590.0266
 30
0.0
 10
1048.3658
 20
-590.0266
 30
0.0
 10
1044.3662
 20
-588.2888
 30
0.0
 10
1040.4665
 20
-586.4533
 30
0.0
 10
1037.0238
 20
-584.0745
 30
0.0
 10
1009.6012
 20
-565.126
 30
0.0
 10
982.6682
 20
-531.6697
 30
0.0
 10
965.8881
 20
-502.6369
 30
0.0
 10
956.1126
 20
-485.7234
 30
0.0
 10
952.3983
 20
-466.8072
 30
0.0
 10
940.3512
 20
-449.0594
 30
0.0
 10
930.4351
 20
-459.5558
 30
0.0
 10
919.0142
 20
-468.2823
 30
0.0
 10
912.9907
 20
-483.349
 30
0.0
  0
SPLINE
  5
9D
330
1F
100
AcDbEntity
  8
Layer 1
 62
   250
370
    20
100
AcDbSpline
210
0.0
220
0.0
230
1.0
 70
    11
 71
     3
 72
    29
 73
    25
 74
     0
 42
0.0000000001
 43
0.0000000001
 40
0.0
 40
0.0
 40
0.0
 40
0.0
 40
0.125
 40
0.125
 40
0.125
 40
0.25
 40
0.25
 40
0.25
 40
0.375
 40
0.375
 40
0.375
 40
0.5
 40
0.5
 40
0.5
 40
0.625
 40
0.625
 40
0.625
 40
0.75
 40
0.75
 40
0.75
 40
0.875
 40
0.875
 40
0.875
 40
1.0
 40
1.0
 40
1.0
 40
1.0
 10
947.6484
 20
-1.1565
 30
0.0
 10
947.776
 20
-25.9856
 30
0.0
 10
909.8288
 20
-31.0156
 30
0.0
 10
918.4618
 20
-54.7329
 30
0.0
 10
940.4339
 20
-53.9827
 30
0.0
 10
962.305
 20
-51.7998
 30
0.0
 10
980.4803
 20
-61.1632
 30
0.0
 10
999.2672
 20
-70.8394
 30
0.0
 10
1007.8494
 20
-93.2416
 30
0.0
 10
1024.2579
 20
-101.881
 30
0.0
 10
1032.0481
 20
-75.3176
 30
0.0
 10
1038.0778
 20
-46.6847
 30
0.0
 10
1049.7932
 20
-24.7301
 30
0.0
 10
1036.3827
 20
-12.6249
 30
0.0
 10
1024.5672
 20
1.3493
 30
0.0
 10
1027.9039
 20
33.1331
 30
0.0
 10
1014.8561
 20
49.2305
 30
0.0
 10
998.9493
 20
61.9757
 30
0.0
 10
980.4803
 20
71.7076
 30
0.0
 10
961.5838
 20
61.0482
 30
0.0
 10
947.2236
 20
45.0622
 30
0.0
 10
931.2304
 20
30.9876
 30
0.0
 10
934.0156
 20
13.2055
 30
0.0
 10
947.5623
 20
15.2527
 30
0.0
 10
947.6484
 20
-1.1565
 30
0.0
  0
SPLINE
  5
9E
330
1F
100
AcDbEntity
  8
Layer 1
 62
   250
370
    20
100
AcDbSpline
210
0.0
220
0.0
230
1.0
 70
    11
 71
     3
 72
    29
 73
    25
 74
     0
 42
0.0000000001
 43
0.0000000001
 40
0.0
 40
0.0
 40
0.0
 40
0.0
 40
0.125
 40
0.125
 40
0.125
 40
0.25
 40
0.25
 40
0.25
 40
0.375
 40
0.375
 40
0.375
 40
0.5
 40
0.5
 40
0.5
 40
0.625
 40
0.625
 40
0.625
 40
0.75
 40
0.75
 40
0.75
 40
0.875
 40
0.875
 40
0.875
 40
1.0
 40
1.0
 40
1.0
 40
1.0
 10
998.7208
 20
-371.9104
 30
0.0
 10
1004.7592
 20
-405.1745
 30
0.0
 10
1034.0611
 20
-421.0157
 30
0.0
 10
1029.7299
 20
-459.7755
 30
0.0
 10
1025.3419
 20
-473.196
 30
0.0
 10
1008.6628
 20
-472.1723
 30
0.0
 10
1004.1921
 20
-485.4925
 30
0.0
 10
1015.7378
 20
-505.7776
 30
0.0
 10
1032.3833
 20
-530.5782
 30
0.0
 10
1053.4418
 20
-532.6417
 30
0.0
 10
1044.2021
 20
-462.1943
 30
0.0
 10
1085.8314
 20
-406.6639
 30
0.0
 10
1142.8206
 20
-427.6293
 30
0.0
 10
1152.205
 20
-407.731
 30
0.0
 10
1154.0337
 20
-388.6842
 30
0.0
 10
1162.8839
 20
-371.9104
 30
0.0
 10
1171.6979
 20
-355.2035
 30
0.0
 10
1191.6309
 20
-345.1729
 30
0.0
 10
1190.2445
 20
-324.7613
 30
0.0
 10
1136.9685
 20
-315.2065
 30
0.0
 10
1095.714
 20
-291.5236
 30
0.0
 10
1060.7391
 20
-260.4688
 30
0.0
 10
1022.5396
 20
-285.463
 30
0.0
 10
988.0093
 20
-312.9072
 30
0.0
 10
998.7208
 20
-371.9104
 30
0.0
  0
SPLINE
  5
9F
330
1F
100
AcDbEntity
  8
Layer 1
 62
   250
370
    20
100
AcDbSpline
210
0.0
220
0.0
230
1.0
 70
    11
 71
     3
 72
    35
 73
    31
 74
     0
 42
0.0000000001
 43
0.0000000001
 40
0.0
 40
0.0
 40
0.0
 40
0.0
 40
0.1
 40
0.1
 40
0.1
 40
0.2
 40
0.2
 40
0.2
 40
0.3
 40
0.3
 40
0.3
 40
0.4
 40
0.4
 40
0.4
 40
0.5
 40
0.5
 40
0.5
 40
0.6000000000000001
 40
0.6000000000000001
 40
0.6000000000000001
 40
0.7000000000000001
 40
0.7000000000000001
 40
0.7000000000000001
 40
0.8
 40
0.8
 40
0.8
 40
0.9
 40
0.9
 40
0.9
 40
1.0
 40
1.0
 40
1.0
 40
1.0
 10
1076.748
 20
589.9734
 30
0.0
 10
1071.5801
 20
541.1555
 30
0.0
 10
1039.014
 20
506.4549
 30
0.0
 10
1027.9039
 20
466.0361
 30
0.0
 10
1039.8942
 20
454.1313
 30
0.0
 10
1053.896
 20
447.1868
 30
0.0
 10
1062.5617
 20
431.7444
 30
0.0
 10
1067.8726
 20
422.2818
 30
0.0
 10
1067.166
 20
409.3585
 30
0.0
 10
1077.1538
 20
403.8851
 30
0.0
 10
1090.3644
 20
413.3487
 30
0.0
 10
1094.2535
 20
424.3189
 30
0.0
 10
1108.1629
 20
431.7444
 30
0.0
 10
1123.0186
 20
439.6802
 30
0.0
 10
1140.4751
 20
434.8801
 30
0.0
 10
1155.5866
 20
442.4605
 30
0.0
 10
1176.6014
 20
452.998
 30
0.0
 10
1188.6133
 20
475.6286
 30
0.0
 10
1199.95
 20
498.2389
 30
0.0
 10
1199.95
 20
498.2389
 30
0.0
 10
1199.95
 20
539.8109
 30
0.0
 10
1199.95
 20
539.8109
 30
0.0
 10
1196.6293
 20
544.5714
 30
0.0
 10
1193.667
 20
549.6747
 30
0.0
 10
1192.067
 20
556.0425
 30
0.0
 10
1189.523
 20
566.1708
 30
0.0
 10
1189.6537
 20
578.0356
 30
0.0
 10
1191.7615
 20
589.9734
 30
0.0
 10
1191.7615
 20
589.9734
 30
0.0
 10
1076.748
 20
589.9734
 30
0.0
 10
1076.748
 20
589.9734
 30
0.0
  0
SPLINE
  5
A0
330
1F
100
AcDbEntity
  8
Layer 1
 62
   250
370
    20
100
AcDbSpline
210
0.0
220
0.0
230
1.0
 70
    11
 71
     3
 72
    17
 73
    13
 74
     0
 42
0.0000000001
 43
0.0000000001
 40
0.0
 40
0.0
 40
0.0
 40
0.0
 40
0.25
 40
0.25
 40
0.25
 40
0.5
 40
0.5
 40
0.5
 40
0.75
 40
0.75
 40
0.75
 40
1.0
 40
1.0
 40
1.0
 40
1.0
 10
1038.8499
 20
-116.882
 30
0.0
 10
1033.9569
 20
-173.9747
 30
0.0
 10
1068.781
 20
-225.2103
 30
0.0
 10
1100.8656
 20
-243.3255
 30
0.0
 10
1120.1446
 20
-221.9228
 30
0.0
 10
1154.9481
 20
-205.7048
 30
0.0
 10
1153.7631
 20
-168.317
 30
0.0
 10
1151.9673
 20
-111.6667
 30
0.0
 10
1065.9906
 20
-127.0695
 30
0.0
 10
1060.7391
 20
-67.5914
 30
0.0
 10
1045.2087
 20
-74.4914
 30
0.0
 10
1040.444
 20
-98.2624
 30
0.0
 10
1038.8499
 20
-116.882
 30
0.0
  0
SPLINE
  5
A1
330
1F
100
AcDbEntity
  8
Layer 1
 62
   250
370
    20
100
AcDbSpline
210
0.0
220
0.0
230
1.0
 70
    11
 71
     3
 72
    26
 73
    22
 74
     0
 42
0.0000000001
 43
0.0000000001
 40
0.0
 40
0.0
 40
0.0
 40
0.0
 40
0.1428571428571428
 40
0.1428571428571428
 40
0.1428571428571428
 40
0.2857142857142857
 40
0.2857142857142857
 40
0.2857142857142857
 40
0.4285714285714285
 40
0.4285714285714285
 40
0.4285714285714285
 40
0.5714285714285714
 40
0.5714285714285714
 40
0.5714285714285714
 40
0.7142857142857142
 40
0.7142857142857142
 40
0.7142857142857142
 40
0.8571428571428571
 40
0.8571428571428571
 40
0.8571428571428571
 40
1.0
 40
1.0
 40
1.0
 40
1.0
 10
1146.4658
 20
129.5718
 30
0.0
 10
1147.4223
 20
99.6825
 30
0.0
 10
1127.7176
 20
86.6609
 30
0.0
 10
1126.4027
 20
56.7057
 30
0.0
 10
1138.7919
 20
53.248
 30
0.0
 10
1152.0206
 20
65.9031
 30
0.0
 10
1166.5326
 20
65.2794
 30
0.0
 10
1177.5625
 20
64.8015
 30
0.0
 10
1189.1791
 20
56.6111
 30
0.0
 10
1199.95
 20
54.75
 30
0.0
 10
1199.95
 20
54.75
 30
0.0
 10
1199.95
 20
251.1972
 30
0.0
 10
1199.95
 20
251.1972
 30
0.0
 10
1181.4187
 20
260.9934
 30
0.0
 10
1161.7345
 20
269.1243
 30
0.0
 10
1140.9946
 20
275.3001
 30
0.0
 10
1112.1795
 20
283.8809
 30
0.0
 10
1072.7777
 20
295.2733
 30
0.0
 10
1049.7932
 20
275.3001
 30
0.0
 10
1061.8197
 20
223.8682
 30
0.0
 10
1144.6873
 20
185.2794
 30
0.0
 10
1146.4658
 20
129.5718
 30
0.0
  0
SPLINE
  5
A2
330
1F
100
AcDbEntity
  8
Layer 1
 62
   250
370
    20
100
AcDbSpline
210
0.0
220
0.0
230
1.0
 70
    11
 71
     3
 72
    38
 73
    34
 74
     0
 42
0.0000000001
 43
0.0000000001
 40
0.0
 40
0.0
 40
0.0
 40
0.0
 40
0.0909090909090909
 40
0.0909090909090909
 40
0.0909090909090909
 40
0.1818181818181818
 40
0.1818181818181818
 40
0.1818181818181818
 40
0.2727272727272727
 40
0.2727272727272727
 40
0.2727272727272727
 40
0.3636363636363636
 40
0.3636363636363636
 40
0.3636363636363636
 40
0.4545454545454546
 40
0.4545454545454546
 40
0.4545454545454546
 40
0.5454545454545454
 40
0.5454545454545454
 40
0.5454545454545454
 40
0.6363636363636364
 40
0.6363636363636364
 40
0.6363636363636364
 40
0.7272727272727273
 40
0.7272727272727273
 40
0.7272727272727273
 40
0.8181818181818182
 40
0.8181818181818182
 40
0.8181818181818182
 40
0.9090909090909092
 40
0.9090909090909092
 40
0.9090909090909092
 40
1.0
 40
1.0
 40
1.0
 40
1.0
 10
1082.6248
 20
-491.9218
 30
0.0
 10
1075.12
 20
-534.8145
 30
0.0
 10
1106.1292
 20
-577.9015
 30
0.0
 10
1139.1721
 20
-581.9313
 30
0.0
 10
1145.5662
 20
-582.7119
 30
0.0
 10
1152.7307
 20
-579.483
 30
0.0
 10
1157.4118
 20
-579.7877
 30
0.0
 10
1167.8354
 20
-580.4692
 30
0.0
 10
1175.9551
 20
-584.5446
 30
0.0
 10
1182.9566
 20
-590.0266
 30
0.0
 10
1182.9566
 20
-590.0266
 30
0.0
 10
1199.95
 20
-590.0266
 30
0.0
 10
1199.95
 20
-590.0266
 30
0.0
 10
1199.95
 20
-590.0266
 30
0.0
 10
1199.95
 20
-441.5602
 30
0.0
 10
1199.95
 20
-441.5602
 30
0.0
 10
1199.7999
 20
-437.4972
 30
0.0
 10
1199.6228
 20
-433.547
 30
0.0
 10
1199.3643
 20
-429.7726
 30
0.0
 10
1184.8318
 20
-431.2722
 30
0.0
 10
1171.3799
 20
-434.0403
 30
0.0
 10
1166.5326
 20
-446.918
 30
0.0
 10
1182.9799
 20
-475.9813
 30
0.0
 10
1173.4231
 20
-536.0092
 30
0.0
 10
1142.8206
 20
-534.783
 30
0.0
 10
1128.7777
 20
-534.2211
 30
0.0
 10
1107.9637
 20
-512.0802
 30
0.0
 10
1115.4602
 20
-491.9218
 30
0.0
 10
1119.5776
 20
-480.8452
 30
0.0
 10
1130.8587
 20
-486.3784
 30
0.0
 10
1135.5233
 20
-472.634
 30
0.0
 10
1122.267
 20
-438.076
 30
0.0
 10
1087.1017
 20
-466.3466
 30
0.0
 10
1082.6248
 20
-491.9218
 30
0.0
  0
SPLINE
  5
A3
330
1F
100
AcDbEntity
  8
Layer 1
 62
   250
370
    20
100
AcDbSpline
210
0.0
220
0.0
230
1.0
 70
    11
 71
     3
 72
    26
 73
    22
 74
     0
 42
0.0000000001
 43
0.0000000001
 40
0.0
 40
0.0
 40
0.0
 40
0.0
 40
0.1428571428571428
 40
0.1428571428571428
 40
0.1428571428571428
 40
0.2857142857142857
 40
0.2857142857142857
 40
0.2857142857142857
 40
0.4285714285714285
 40
0.4285714285714285
 40
0.4285714285714285
 40
0.5714285714285714
 40
0.5714285714285714
 40
0.5714285714285714
 40
0.7142857142857142
 40
0.7142857142857142
 40
0.7142857142857142
 40
0.8571428571428571
 40
0.8571428571428571
 40
0.8571428571428571
 40
1.0
 40
1.0
 40
1.0
 40
1.0
 10
1177.4751
 20
-104.0245
 30
0.0
 10
1197.0781
 20
-146.1264
 30
0.0
 10
1185.939
 20
-209.9947
 30
0.0
 10
1168.3551
 20
-234.7518
 30
0.0
 10
1161.5981
 20
-244.2692
 30
0.0
 10
1145.4473
 20
-248.397
 30
0.0
 10
1144.6432
 20
-262.6123
 30
0.0
 10
1151.1211
 20
-272.5001
 30
0.0
 10
1171.8676
 20
-274.7337
 30
0.0
 10
1182.9472
 20
-275.4717
 30
0.0
 10
1188.8631
 20
-275.8651
 30
0.0
 10
1194.5192
 20
-275.9491
 30
0.0
 10
1199.95
 20
-275.7371
 30
0.0
 10
1199.95
 20
-275.7371
 30
0.0
 10
1199.95
 20
-73.8005
 30
0.0
 10
1199.95
 20
-73.8005
 30
0.0
 10
1182.8673
 20
-71.9023
 30
0.0
 10
1165.1308
 20
-67.1312
 30
0.0
 10
1146.4658
 20
-65.448
 30
0.0
 10
1154.5146
 20
-88.4172
 30
0.0
 10
1168.5214
 20
-84.7884
 30
0.0
 10
1177.4751
 20
-104.0245
 30
0.0
  0
SPLINE
  5
A4
330
1F
100
AcDbEntity
  8
Layer 1
 62
   250
370
    20
100
AcDbSpline
210
0.0
220
0.0
230
1.0
 70
    11
 71
     3
 72
    20
 73
    16
 74
     0
 42
0.0000000001
 43
0.0000000001
 40
0.0
 40
0.0
 40
0.0
 40
0.0
 40
0.2
 40
0.2
 40
0.2
 40
0.4
 40
0.4
 40
0.4
 40
0.6000000000000001
 40
0.6000000000000001
 40
0.6000000000000001
 40
0.8
 40
0.8
 40
0.8
 40
1.0
 40
1.0
 40
1.0
 40
1.0
 10
1148.2919
 20
361.0238
 30
0.0
 10
1148.2919
 20
358.8823
 30
0.0
 10
1148.2919
 20
356.7369
 30
0.0
 10
1148.2919
 20
354.5954
 30
0.0
 10
1150.8952
 20
354.0822
 30
0.0
 10
1151.3675
 20
351.065
 30
0.0
 10
1153.7631
 20
350.3086
 30
0.0
 10
1169.1302
 20
354.1582
 30
0.0
 10
1184.8491
 20
355.6181
 30
0.0
 10
1199.95
 20
354.8447
 30
0.0
 10
1199.95
 20
354.8447
 30
0.0
 10
1199.95
 20
414.2493
 30
0.0
 10
1199.95
 20
414.2493
 30
0.0
 10
1183.2243
 20
395.9278
 30
0.0
 10
1165.3299
 20
378.979
 30
0.0
 10
1148.2919
 20
361.0238
 30
0.0
  0
ENDSEC
  0
SECTION
  2
OBJECTS
  0
DICTIONARY
  5
C
330
0
100
AcDbDictionary
281
     1
  3
ACAD_DETAILVIEWSTYLE
350
AC
  3
ACAD_GROUP
350
D
  3
ACAD_LAYOUT
350
1A
  3
ACAD_MATERIAL
350
43
  3
ACAD_MLEADERSTYLE
350
5B
  3
ACAD_MLINESTYLE
350
17
  3
ACAD_PLOTSETTINGS
350
19
  3
ACAD_PLOTSTYLENAME
350
E
  3
ACAD_SCALELIST
350
47
  3
ACAD_SECTIONVIEWSTYLE
350
AD
  3
ACAD_TABLESTYLE
350
59
  3
ACAD_VISUALSTYLE
350
2A
  3
ACDB_RECOMPOSE_DATA
350
A9
  3
AcDbVariableDictionary
350
A5
  0
SUN
  5
5D
330
29
100
AcDbSun
 90
        1
290
     0
 63
     7
421
 16777215
 40
1.0
291
     1
 91
  2455826
 92
 54000000
292
     0
 70
     2
 71
   256
280
     1
  0
DICTIONARY
  5
AC
102
{ACAD_REACTORS
330
C
102
}
330
C
100
AcDbDictionary
281
     1
  0
DICTIONARY
  5
D
102
{ACAD_REACTORS
330
C
102
}
330
C
100
AcDbDictionary
281
     1
  0
DICTIONARY
  5
1A
102
{ACAD_REACTORS
330
C
102
}
330
C
100
AcDbDictionary
281
     1
  3
Layout1
350
1E
  3
Layout2
350
26
  3
Model
350
22
  0
DICTIONARY
  5
43
102
{ACAD_REACTORS
330
C
102
}
330
C
100
AcDbDictionary
281
     1
  3
ByBlock
350
45
  3
ByLayer
350
44
  3
Global
350
46
  0
DICTIONARY
  5
5B
102
{ACAD_REACTORS
330
C
102
}
330
C
100
AcDbDictionary
281
     1
  3
Standard
350
5C
  0
DICTIONARY
  5
17
102
{ACAD_REACTORS
330
C
102
}
330
C
100
AcDbDictionary
281
     1
  3
Standard
350
18
  0
DICTIONARY
  5
19
102
{ACAD_REACTORS
330
C
102
}
330
C
100
AcDbDictionary
281
     1
  0
ACDBDICTIONARYWDFLT
  5
E
102
{ACAD_REACTORS
330
C
102
}
330
C
100
AcDbDictionary
281
     1
  3
Normal
350
F
100
AcDbDictionaryWithDefault
340
F
  0
DICTIONARY
  5
47
102
{ACAD_REACTORS
330
C
102
}
330
C
100
AcDbDictionary
281
     1
  3
A0
350
48
  3
A1
350
49
  3
A2
350
4A
  3
A3
350
4B
  3
A4
350
4C
  3
A5
350
4D
  3
A6
350
4E
  3
A7
350
4F
  3
A8
350
50
  3
A9
350
51
  3
B1
350
52
  3
B2
350
53
  3
B3
350
54
  3
B4
350
55
  3
B5
350
56
  3
B6
350
57
  3
B7
350
58
  0
DICTIONARY
  5
AD
102
{ACAD_REACTORS
330
C
102
}
330
C
100
AcDbDictionary
281
     1
  0
DICTIONARY
  5
59
102
{ACAD_REACTORS
330
C
102
}
330
C
100
AcDbDictionary
281
     1
  3
Standard
350
5A
  0
DICTIONARY
  5
2A
102
{ACAD_REACTORS
330
C
102
}
330
C
100
AcDbDictionary
281
     1
  3
2dWireframe
350
2F
  3
Basic
350
32
  3
Brighten
350
36
  3
ColorChange
350
3A
  3
Conceptual
350
34
  3
Dim
350
35
  3
EdgeColorOff
350
3D
  3
Facepattern
350
39
  3
Flat
350
2B
  3
FlatWithEdges
350
2C
  3
Gouraud
350
2D
  3
GouraudWithEdges
350
2E
  3
Hidden
350
31
  3
JitterOff
350
3B
  3
Linepattern
350
38
  3
OverhangOff
350
3C
  3
Realistic
350
33
  3
Shaded
350
42
  3
Shaded with edges
350
41
  3
Shades of Gray
350
3E
  3
Sketchy
350
3F
  3
Thicken
350
37
  3
Wireframe
350
30
  3
X-Ray
350
40
  0
XRECORD
  5
A9
102
{ACAD_REACTORS
330
C
102
}
330
C
100
AcDbXrecord
280
     1
 90
        1
330
5A
  0
DICTIONARY
  5
A5
102
{ACAD_REACTORS
330
C
102
}
330
C
100
AcDbDictionary
281
     1
  3
CANNOSCALE
350
A6
  3
CMLEADERSTYLE
350
AB
  3
CTABLESTYLE
350
AA
  0
LAYOUT
  5
1E
102
{ACAD_REACTORS
330
1A
102
}
330
1A
100
AcDbPlotSettings
  1

  2
none_device
  4

  6

 40
0.0
 41
0.0
 42
0.0
 43
0.0
 44
0.0
 45
0.0
 46
0.0
 47
0.0
 48
0.0
 49
0.0
140
0.0
141
0.0
142
1.0
143
1.0
 70
   688
 72
     0
 73
     0
 74
     5
  7

 75
    16
 76
     0
 77
     2
 78
   300
147
1.0
148
0.0
149
0.0
100
AcDbLayout
  1
Layout1
 70
     1
 71
     1
 10
0.0
 20
0.0
 11
12.0
 21
9.0
 12
0.0
 22
0.0
 32
0.0
 14
1.000000000000000E+20
 24
1.000000000000000E+20
 34
1.000000000000000E+20
 15
-1.000000000000000E+20
 25
-1.000000000000000E+20
 35
-1.000000000000000E+20
146
0.0
 13
0.0
 23
0.0
 33
0.0
 16
1.0
 26
0.0
 36
0.0
 17
0.0
 27
1.0
 37
0.0
 76
     0
330
1B
  0
LAYOUT
  5
26
102
{ACAD_REACTORS
330
1A
102
}
330
1A
100
AcDbPlotSettings
  1

  2
none_device
  4

  6

 40
0.0
 41
0.0
 42
0.0
 43
0.0
 44
0.0
 45
0.0
 46
0.0
 47
0.0
 48
0.0
 49
0.0
140
0.0
141
0.0
142
1.0
143
1.0
 70
   688
 72
     0
 73
     0
 74
     5
  7

 75
    16
 76
     0
 77
     2
 78
   300
147
1.0
148
0.0
149
0.0
100
AcDbLayout
  1
Layout2
 70
     1
 71
     2
 10
0.0
 20
0.0
 11
0.0
 21
0.0
 12
0.0
 22
0.0
 32
0.0
 14
0.0
 24
0.0
 34
0.0
 15
0.0
 25
0.0
 35
0.0
146
0.0
 13
0.0
 23
0.0
 33
0.0
 16
1.0
 26
0.0
 36
0.0
 17
0.0
 27
1.0
 37
0.0
 76
     0
330
23
  0
LAYOUT
  5
22
102
{ACAD_REACTORS
330
1A
102
}
330
1A
100
AcDbPlotSettings
  1

  2
none_device
  4
Letter_(8.50_x_11.00_Inches)
  6

 40
6.35
 41
6.35
 42
6.35000508
 43
6.35000508
 44
215.9
 45
279.4
 46
0.0
 47
0.0
 48
0.0
 49
0.0
140
0.0
141
0.0
142
1.0
143
1.0
 70
  1712
 72
     0
 73
     0
 74
     0
  7

 75
     0
 76
     0
 77
     2
 78
   300
147
1.0
148
0.0
149
0.0
100
AcDbLayout
  1
Model
 70
     1
 71
     0
 10
0.0
 20
0.0
 11
12.0
 21
9.0
 12
0.0
 22
0.0
 32
0.0
 14
-1200.15
 24
-590.1266
 34
0.0
 15
1200.05
 25
590.0734
 35
0.0
146
0.0
 13
0.0
 23
0.0
 33
0.0
 16
1.0
 26
0.0
 36
0.0
 17
0.0
 27
1.0
 37
0.0
 76
     0
330
1F
331
29
  0
MATERIAL
  5
45
102
{ACAD_REACTORS
330
43
102
}
330
43
100
AcDbMaterial
  1
ByBlock
 72
     1
 94
      127
  0
MATERIAL
  5
44
102
{ACAD_REACTORS
330
43
102
}
330
43
100
AcDbMaterial
  1
ByLayer
 72
     1
 94
      127
  0
MATERIAL
  5
46
102
{ACAD_REACTORS
330
43
102
}
330
43
100
AcDbMaterial
  1
Global
 72
     1
 94
      127
  0
MLEADERSTYLE
  5
5C
102
{ACAD_REACTORS
330
5B
102
}
330
5B
100
AcDbMLeaderStyle
179
     2
170
     2
171
     1
172
     0
 90
        2
 40
0.0
 41
0.0
173
     1
 91
-1056964608
340
14
 92
       -2
290
     1
 42
0.09
291
     1
 43
0.36
  3
Standard
341
0
 44
0.18
300

342
11
174
     1
178
     6
175
     1
176
     0
 93
-1056964608
 45
0.18
292
     0
297
     0
 46
0.18
343
0
 94
-1056964608
 47
1.0
 49
1.0
140
1.0
293
     1
141
0.0
294
     1
177
     0
142
1.0
295
     0
296
     0
143
0.125
271
     0
272
     9
273
     9
298
     0
  0
MLINESTYLE
  5
18
102
{ACAD_REACTORS
330
17
102
}
330
17
100
AcDbMlineStyle
  2
Standard
 70
     0
  3

 62
   256
 51
90.0
 52
90.0
 71
     2
 49
0.5
 62
   256
  6
BYLAYER
 49
-0.5
 62
   256
  6
BYLAYER
  0
ACDBPLACEHOLDER
  5
F
102
{ACAD_REACTORS
330
E
102
}
330
E
  0
SCALE
  5
48
102
{ACAD_REACTORS
330
47
102
}
330
47
100
AcDbScale
 70
     0
300
1:1
140
1.0
141
1.0
290
     1
  0
SCALE
  5
49
102
{ACAD_REACTORS
330
47
102
}
330
47
100
AcDbScale
 70
     0
300
1/128" = 1'-0"
140
0.0078125
141
12.0
290
     0
  0
SCALE
  5
4A
102
{ACAD_REACTORS
330
47
102
}
330
47
100
AcDbScale
 70
     0
300
1/64" = 1'-0"
140
0.015625
141
12.0
290
     0
  0
SCALE
  5
4B
102
{ACAD_REACTORS
330
47
102
}
330
47
100
AcDbScale
 70
     0
300
1/32" = 1'-0"
140
0.03125
141
12.0
290
     0
  0
SCALE
  5
4C
102
{ACAD_REACTORS
330
47
102
}
330
47
100
AcDbScale
 70
     0
300
1/16" = 1'-0"
140
0.0625
141
12.0
290
     0
  0
SCALE
  5
4D
102
{ACAD_REACTORS
330
47
102
}
330
47
100
AcDbScale
 70
     0
300
3/32" = 1'-0"
140
0.09375
141
12.0
290
     0
  0
SCALE
  5
4E
102
{ACAD_REACTORS
330
47
102
}
330
47
100
AcDbScale
 70
     0
300
1/8" = 1'-0"
140
0.125
141
12.0
290
     0
  0
SCALE
  5
4F
102
{ACAD_REACTORS
330
47
102
}
330
47
100
AcDbScale
 70
     0
300
3/16" = 1'-0"
140
0.1875
141
12.0
290
     0
  0
SCALE
  5
50
102
{ACAD_REACTORS
330
47
102
}
330
47
100
AcDbScale
 70
     0
300
1/4" = 1'-0"
140
0.25
141
12.0
290
     0
  0
SCALE
  5
51
102
{ACAD_REACTORS
330
47
102
}
330
47
100
AcDbScale
 70
     0
300
3/8" = 1'-0"
140
0.375
141
12.0
290
     0
  0
SCALE
  5
52
102
{ACAD_REACTORS
330
47
102
}
330
47
100
AcDbScale
 70
     0
300
1/2" = 1'-0"
140
0.5
141
12.0
290
     0
  0
SCALE
  5
53
102
{ACAD_REACTORS
330
47
102
}
330
47
100
AcDbScale
 70
     0
300
3/4" = 1'-0"
140
0.75
141
12.0
290
     0
  0
SCALE
  5
54
102
{ACAD_REACTORS
330
47
102
}
330
47
100
AcDbScale
 70
     0
300
1" = 1'-0"
140
1.0
141
12.0
290
     0
  0
SCALE
  5
55
102
{ACAD_REACTORS
330
47
102
}
330
47
100
AcDbScale
 70
     0
300
1-1/2" = 1'-0"
140
1.5
141
12.0
290
     0
  0
SCALE
  5
56
102
{ACAD_REACTORS
330
47
102
}
330
47
100
AcDbScale
 70
     0
300
3" = 1'-0"
140
3.0
141
12.0
290
     0
  0
SCALE
  5
57
102
{ACAD_REACTORS
330
47
102
}
330
47
100
AcDbScale
 70
     0
300
6" = 1'-0"
140
6.0
141
12.0
290
     0
  0
SCALE
  5
58
102
{ACAD_REACTORS
330
47
102
}
330
47
100
AcDbScale
 70
     0
300
1'-0" = 1'-0"
140
12.0
141
12.0
290
     0
  0
TABLESTYLE
  5
5A
102
{ACAD_REACTORS
330
59
102
}
102
{ACAD_XDICTIONARY
360
A7
102
}
330
59
100
AcDbTableStyle
  3
Standard
 70
     0
 71
     0
 40
0.06
 41
0.06
280
     0
281
     0
  7
Standard
140
0.18
170
     2
 62
     0
 63
   257
283
     0
 90
        4
 91
        0
  1

274
    -2
284
     1
 64
     0
275
    -2
285
     1
 65
     0
276
    -2
286
     1
 66
     0
277
    -2
287
     1
 67
     0
278
    -2
288
     1
 68
     0
279
    -2
289
     1
 69
     0
  7
Standard
140
0.25
170
     5
 62
     0
 63
   257
283
     0
 90
        4
 91
        0
  1

274
    -2
284
     1
 64
     0
275
    -2
285
     1
 65
     0
276
    -2
286
     1
 66
     0
277
    -2
287
     1
 67
     0
278
    -2
288
     1
 68
     0
279
    -2
289
     1
 69
     0
  7
Standard
140
0.18
170
     5
 62
     0
 63
   257
283
     0
 90
        4
 91
        0
  1

274
    -2
284
     1
 64
     0
275
    -2
285
     1
 65
     0
276
    -2
286
     1
 66
     0
277
    -2
287
     1
 67
     0
278
    -2
288
     1
 68
     0
279
    -2
289
     1
 69
     0
  0
VISUALSTYLE
  5
2F
102
{ACAD_REACTORS
330
2A
102
}
330
2A
100
AcDbVisualStyle
  2
2dWireframe
 70
     4
177
     3
291
     0
 70
    58
 90
        0
176
     1
 90
        2
176
     1
 90
        0
176
     1
 90
        0
176
     1
 40
0.6
176
     1
 40
30.0
176
     1
 62
     7
420
 16777215
176
     1
 90
        1
176
     1
 90
        4
176
     1
 62
     7
176
     1
 62
   257
176
     1
 90
        1
176
     1
 90
        1
176
     1
 40
1.0
176
     1
 90
        0
176
     1
 62
   257
176
     1
 40
1.0
176
     1
 90
        1
176
     1
 90
        6
176
     1
 90
        2
176
     1
 62
     7
176
     1
 90
        5
176
     1
 90
        0
176
     1
 90
        0
176
     1
290
     0
176
     1
 90
        1
176
     1
 40
0.0
176
     1
 90
        0
176
     1
290
     1
176
     1
290
     1
176
     1
290
     0
176
     1
290
     0
176
     1
290
     0
176
     1
290
     0
176
     1
290
     0
176
     1
290
     0
176
     1
290
     0
176
     1
 90
       50
176
     1
 40
0.0
176
     1
 40
1.0
176
     1
 90
        0
176
     1
 62
    18
420
        0
176
     1
 90
       50
176
     1
 90
        3
176
     1
 62
     5
420
      255
176
     1
290
     0
176
     1
 90
       50
176
     1
 90
       50
176
     1
 90
       50
176
     1
290
     0
176
     1
 90
       50
176
     1
 62
   256
176
     0
 40
1.0
176
     0
 90
        2
176
     1
  1
strokes_ogs.tif
176
     1
290
     0
176
     1
 40
1.0
176
     1
 40
1.0
176
     1
  0
VISUALSTYLE
  5
32
102
{ACAD_REACTORS
330
2A
102
}
330
2A
100
AcDbVisualStyle
  2
Basic
 70
     7
177
     3
291
     1
 70
    58
 90
        1
176
     1
 90
        0
176
     1
 90
        1
176
     1
 90
        0
176
     1
 40
0.6
176
     1
 40
30.0
176
     1
 62
     7
420
 16777215
176
     1
 90
        0
176
     1
 90
        4
176
     1
 62
     7
176
     1
 62
   257
176
     1
 90
        1
176
     1
 90
        1
176
     1
 40
1.0
176
     1
 90
        8
176
     1
 62
     7
176
     1
 40
1.0
176
     1
 90
        1
176
     1
 90
        6
176
     1
 90
        2
176
     1
 62
     7
176
     1
 90
        5
176
     1
 90
        0
176
     1
 90
        0
176
     1
290
     0
176
     1
 90
        1
176
     1
 40
0.0
176
     1
 90
        0
176
     1
290
     0
176
     1
290
     1
176
     1
290
     1
176
     1
290
     0
176
     1
290
     0
176
     1
290
     0
176
     1
290
     0
176
     1
290
     0
176
     1
290
     0
176
     1
 90
       50
176
     1
 40
0.0
176
     1
 40
1.0
176
     1
 90
        0
176
     1
 62
    18
420
        0
176
     1
 90
       50
176
     1
 90
        3
176
     1
 62
     5
420
      255
176
     1
290
     0
176
     1
 90
       50
176
     1
 90
       50
176
     1
 90
       50
176
     1
290
     0
176
     1
 90
       50
176
     1
 62
   256
176
     0
 40
1.0
176
     0
 90
        2
176
     1
  1
strokes_ogs.tif
176
     1
290
     0
176
     1
 40
1.0
176
     1
 40
1.0
176
     1
  0
VISUALSTYLE
  5
36
102
{ACAD_REACTORS
330
2A
102
}
330
2A
100
AcDbVisualStyle
  2
Brighten
 70
    12
177
     3
291
     1
 70
    58
 90
        2
176
     1
 90
        2
176
     1
 90
        0
176
     1
 90
        0
176
     1
 40
0.6
176
     1
 40
30.0
176
     1
 62
     7
420
 16777215
176
     1
 90
        1
176
     1
 90
        4
176
     1
 62
     7
176
     1
 62
   257
176
     1
 90
        1
176
     1
 90
        1
176
     1
 40
1.0
176
     1
 90
        8
176
     1
 62
     7
176
     1
 40
1.0
176
     1
 90
        1
176
     1
 90
        6
176
     1
 90
        2
176
     1
 62
     7
176
     1
 90
        5
176
     1
 90
        0
176
     1
 90
        0
176
     1
290
     0
176
     1
 90
        1
176
     1
 40
50.0
176
     1
 90
        0
176
     1
290
     0
176
     1
290
     1
176
     1
290
     1
176
     1
290
     0
176
     1
290
     0
176
     1
290
     0
176
     1
290
     0
176
     1
290
     0
176
     1
290
     0
176
     1
 90
       50
176
     1
 40
0.0
176
     1
 40
1.0
176
     1
 90
        0
176
     1
 62
    18
420
        0
176
     1
 90
       50
176
     1
 90
        3
176
     1
 62
     5
420
      255
176
     1
290
     0
176
     1
 90
       50
176
     1
 90
       50
176
     1
 90
       50
176
     1
290
     0
176
     1
 90
       50
176
     1
 62
   256
176
     0
 40
1.0
176
     0
 90
        2
176
     1
  1
strokes_ogs.tif
176
     1
290
     0
176
     1
 40
1.0
176
     1
 40
1.0
176
     1
  0
VISUALSTYLE
  5
3A
102
{ACAD_REACTORS
330
2A
102
}
330
2A
100
AcDbVisualStyle
  2
ColorChange
 70
    16
177
     3
291
     1
 70
    58
 90
        2
176
     1
 90
        2
176
     1
 90
        3
176
     1
 90
        0
176
     1
 40
0.6
176
     1
 40
30.0
176
     1
 62
     8
420
  8421504
176
     1
 90
        1
176
     1
 90
        4
176
     1
 62
     7
176
     1
 62
   257
176
     1
 90
        1
176
     1
 90
        1
176
     1
 40
1.0
176
     1
 90
        8
176
     1
 62
     8
420
  8421504
176
     1
 40
1.0
176
     1
 90
        1
176
     1
 90
        6
176
     1
 90
        2
176
     1
 62
     7
176
     1
 90
        5
176
     1
 90
        0
176
     1
 90
        0
176
     1
290
     0
176
     1
 90
        1
176
     1
 40
0.0
176
     1
 90
        0
176
     1
290
     0
176
     1
290
     1
176
     1
290
     1
176
     1
290
     0
176
     1
290
     0
176
     1
290
     0
176
     1
290
     0
176
     1
290
     0
176
     1
290
     0
176
     1
 90
       50
176
     1
 40
0.0
176
     1
 40
1.0
176
     1
 90
        0
176
     1
 62
    18
420
        0
176
     1
 90
       50
176
     1
 90
        3
176
     1
 62
     5
420
      255
176
     1
290
     0
176
     1
 90
       50
176
     1
 90
       50
176
     1
 90
       50
176
     1
290
     0
176
     1
 90
       50
176
     1
 62
   256
176
     0
 40
1.0
176
     0
 90
        2
176
     1
  1
strokes_ogs.tif
176
     1
290
     0
176
     1
 40
1.0
176
     1
 40
1.0
176
     1
  0
VISUALSTYLE
  5
34
102
{ACAD_REACTORS
330
2A
102
}
330
2A
100
AcDbVisualStyle
  2
Conceptual
 70
     9
177
     3
291
     0
 70
    58
 90
        3
176
     1
 90
        2
176
     1
 90
        0
176
     1
 90
        0
176
     1
 40
0.6
176
     1
 40
30.0
176
     1
 62
     7
420
 16777215
176
     1
 90
        2
176
     1
 90
        2
176
     1
 62
     7
176
     1
 62
   257
176
     1
 90
        1
176
     1
 90
        1
176
     1
 40
179.0
176
     1
 90
        8
176
     1
 62
     7
176
     1
 40
1.0
176
     1
 90
        1
176
     1
 90
        6
176
     1
 90
        2
176
     1
 62
     7
176
     1
 90
        3
176
     1
 90
        0
176
     1
 90
        0
176
     1
290
     0
176
     1
 90
        1
176
     1
 40
0.0
176
     1
 90
        0
176
     1
290
     0
176
     1
290
     1
176
     1
290
     1
176
     1
290
     0
176
     1
290
     0
176
     1
290
     0
176
     1
290
     0
176
     1
290
     0
176
     1
290
     0
176
     1
 90
       50
176
     1
 40
0.0
176
     1
 40
1.0
176
     1
 90
        0
176
     1
 62
    18
420
        0
176
     1
 90
       50
176
     1
 90
        3
176
     1
 62
     5
420
      255
176
     1
290
     0
176
     1
 90
       50
176
     1
 90
       50
176
     1
 90
       50
176
     1
290
     0
176
     1
 90
       50
176
     1
 62
   256
176
     0
 40
1.0
176
     0
 90
        2
176
     1
  1
strokes_ogs.tif
176
     1
290
     0
176
     1
 40
1.0
176
     1
 40
1.0
176
     1
  0
VISUALSTYLE
  5
35
102
{ACAD_REACTORS
330
2A
102
}
330
2A
100
AcDbVisualStyle
  2
Dim
 70
    11
177
     3
291
     1
 70
    58
 90
        2
176
     1
 90
        2
176
     1
 90
        0
176
     1
 90
        0
176
     1
 40
0.6
176
     1
 40
30.0
176
     1
 62
     7
420
 16777215
176
     1
 90
        1
176
     1
 90
        4
176
     1
 62
     7
176
     1
 62
   257
176
     1
 90
        1
176
     1
 90
        1
176
     1
 40
1.0
176
     1
 90
        8
176
     1
 62
     7
176
     1
 40
1.0
176
     1
 90
        1
176
     1
 90
        6
176
     1
 90
        2
176
     1
 62
     7
176
     1
 90
        5
176
     1
 90
        0
176
     1
 90
        0
176
     1
290
     0
176
     1
 90
        1
176
     1
 40
-50.0
176
     1
 90
        0
176
     1
290
     0
176
     1
290
     1
176
     1
290
     1
176
     1
290
     0
176
     1
290
     0
176
     1
290
     0
176
     1
290
     0
176
     1
290
     0
176
     1
290
     0
176
     1
 90
       50
176
     1
 40
0.0
176
     1
 40
1.0
176
     1
 90
        0
176
     1
 62
    18
420
        0
176
     1
 90
       50
176
     1
 90
        3
176
     1
 62
     5
420
      255
176
     1
290
     0
176
     1
 90
       50
176
     1
 90
       50
176
     1
 90
       50
176
     1
290
     0
176
     1
 90
       50
176
     1
 62
   256
176
     0
 40
1.0
176
     0
 90
        2
176
     1
  1
strokes_ogs.tif
176
     1
290
     0
176
     1
 40
1.0
176
     1
 40
1.0
176
     1
  0
VISUALSTYLE
  5
3D
102
{ACAD_REACTORS
330
2A
102
}
330
2A
100
AcDbVisualStyle
  2
EdgeColorOff
 70
    22
177
     3
291
     1
 70
    58
 90
        2
176
     0
 90
        2
176
     0
 90
        0
176
     0
 90
        0
176
     0
 40
0.6
176
     0
 40
30.0
176
     0
 62
     7
420
 16777215
176
     0
 90
        1
176
     0
 90
        4
176
     0
 62
     7
176
     0
 62
   257
176
     0
 90
        1
176
     0
 90
        1
176
     0
 40
1.0
176
     0
 90
        8
176
     2
 62
     7
176
     0
 40
1.0
176
     0
 90
        1
176
     0
 90
        6
176
     0
 90
        2
176
     0
 62
     7
176
     0
 90
        5
176
     0
 90
        0
176
     0
 90
        0
176
     0
290
     0
176
     0
 90
        1
176
     0
 40
0.0
176
     0
 90
        0
176
     0
290
     0
176
     0
290
     1
176
     0
290
     1
176
     0
290
     0
176
     0
290
     0
176
     0
290
     0
176
     0
290
     0
176
     0
290
     0
176
     0
290
     0
176
     0
 90
       50
176
     0
 40
0.0
176
     0
 40
1.0
176
     0
 90
        0
176
     0
 62
    18
420
        0
176
     0
 90
       50
176
     0
 90
        3
176
     0
 62
     5
420
      255
176
     0
290
     0
176
     0
 90
       50
176
     0
 90
       50
176
     0
 90
       50
176
     0
290
     0
176
     0
 90
       50
176
     0
 62
   256
176
     0
 40
1.0
176
     0
 90
        2
176
     0
  1
strokes_ogs.tif
176
     0
290
     0
176
     0
 40
1.0
176
     0
 40
1.0
176
     0
  0
VISUALSTYLE
  5
39
102
{ACAD_REACTORS
330
2A
102
}
330
2A
100
AcDbVisualStyle
  2
Facepattern
 70
    15
177
     3
291
     1
 70
    58
 90
        2
176
     1
 90
        2
176
     1
 90
        0
176
     1
 90
        0
176
     1
 40
0.6
176
     1
 40
30.0
176
     1
 62
     7
420
 16777215
176
     1
 90
        1
176
     1
 90
        4
176
     1
 62
     7
176
     1
 62
   257
176
     1
 90
        1
176
     1
 90
        1
176
     1
 40
1.0
176
     1
 90
        8
176
     1
 62
     7
176
     1
 40
1.0
176
     1
 90
        1
176
     1
 90
        6
176
     1
 90
        2
176
     1
 62
     7
176
     1
 90
        5
176
     1
 90
        0
176
     1
 90
        0
176
     1
290
     0
176
     1
 90
        1
176
     1
 40
0.0
176
     1
 90
        0
176
     1
290
     0
176
     1
290
     1
176
     1
290
     1
176
     1
290
     0
176
     1
290
     0
176
     1
290
     0
176
     1
290
     0
176
     1
290
     0
176
     1
290
     0
176
     1
 90
       50
176
     1
 40
0.0
176
     1
 40
1.0
176
     1
 90
        0
176
     1
 62
    18
420
        0
176
     1
 90
       50
176
     1
 90
        3
176
     1
 62
     5
420
      255
176
     1
290
     0
176
     1
 90
       50
176
     1
 90
       50
176
     1
 90
       50
176
     1
290
     0
176
     1
 90
       50
176
     1
 62
   256
176
     0
 40
1.0
176
     0
 90
        2
176
     1
  1
strokes_ogs.tif
176
     1
290
     0
176
     1
 40
1.0
176
     1
 40
1.0
176
     1
  0
VISUALSTYLE
  5
2B
102
{ACAD_REACTORS
330
2A
102
}
330
2A
100
AcDbVisualStyle
  2
Flat
 70
     0
177
     3
291
     1
 70
    58
 90
        2
176
     1
 90
        1
176
     1
 90
        1
176
     1
 90
        2
176
     1
 40
0.6
176
     1
 40
30.0
176
     1
 62
     7
420
 16777215
176
     1
 90
        0
176
     1
 90
        0
176
     1
 62
     7
176
     1
 62
   257
176
     1
 90
        1
176
     1
 90
        1
176
     1
 40
1.0
176
     1
 90
        8
176
     1
 62
     7
176
     1
 40
1.0
176
     1
 90
        1
176
     1
 90
        6
176
     1
 90
        2
176
     1
 62
     7
176
     1
 90
        5
176
     1
 90
        0
176
     1
 90
        0
176
     1
290
     0
176
     1
 90
       13
176
     1
 40
0.0
176
     1
 90
        0
176
     1
290
     0
176
     1
290
     1
176
     1
290
     1
176
     1
290
     0
176
     1
290
     0
176
     1
290
     0
176
     1
290
     0
176
     1
290
     0
176
     1
290
     0
176
     1
 90
       50
176
     1
 40
0.0
176
     1
 40
1.0
176
     1
 90
        0
176
     1
 62
    18
420
        0
176
     1
 90
       50
176
     1
 90
        3
176
     1
 62
     5
420
      255
176
     1
290
     0
176
     1
 90
       50
176
     1
 90
       50
176
     1
 90
       50
176
     1
290
     0
176
     1
 90
       50
176
     1
 62
   256
176
     0
 40
1.0
176
     0
 90
        2
176
     1
  1
strokes_ogs.tif
176
     1
290
     0
176
     1
 40
1.0
176
     1
 40
1.0
176
     1
  0
VISUALSTYLE
  5
2C
102
{ACAD_REACTORS
330
2A
102
}
330
2A
100
AcDbVisualStyle
  2
FlatWithEdges
 70
     1
177
     3
291
     1
 70
    58
 90
        2
176
     1
 90
        1
176
     1
 90
        1
176
     1
 90
        2
176
     1
 40
0.6
176
     1
 40
30.0
176
     1
 62
     7
420
 16777215
176
     1
 90
        1
176
     1
 90
        0
176
     1
 62
     7
176
     1
 62
   257
176
     1
 90
        1
176
     1
 90
        1
176
     1
 40
1.0
176
     1
 90
        0
176
     1
 62
   257
176
     1
 40
1.0
176
     1
 90
        1
176
     1
 90
        6
176
     1
 90
        2
176
     1
 62
     7
176
     1
 90
        5
176
     1
 90
        0
176
     1
 90
        0
176
     1
290
     0
176
     1
 90
       13
176
     1
 40
0.0
176
     1
 90
        0
176
     1
290
     0
176
     1
290
     1
176
     1
290
     1
176
     1
290
     0
176
     1
290
     0
176
     1
290
     0
176
     1
290
     0
176
     1
290
     0
176
     1
290
     0
176
     1
 90
       50
176
     1
 40
0.0
176
     1
 40
1.0
176
     1
 90
        0
176
     1
 62
    18
420
        0
176
     1
 90
       50
176
     1
 90
        3
176
     1
 62
     5
420
      255
176
     1
290
     0
176
     1
 90
       50
176
     1
 90
       50
176
     1
 90
       50
176
     1
290
     0
176
     1
 90
       50
176
     1
 62
   256
176
     0
 40
1.0
176
     0
 90
        2
176
     1
  1
strokes_ogs.tif
176
     1
290
     0
176
     1
 40
1.0
176
     1
 40
1.0
176
     1
  0
VISUALSTYLE
  5
2D
102
{ACAD_REACTORS
330
2A
102
}
330
2A
100
AcDbVisualStyle
  2
Gouraud
 70
     2
177
     3
291
     1
 70
    58
 90
        2
176
     1
 90
        2
176
     1
 90
        1
176
     1
 90
        2
176
     1
 40
0.6
176
     1
 40
30.0
176
     1
 62
     7
420
 16777215
176
     1
 90
        0
176
     1
 90
        0
176
     1
 62
     7
176
     1
 62
   257
176
     1
 90
        1
176
     1
 90
        1
176
     1
 40
1.0
176
     1
 90
        0
176
     1
 62
     7
176
     1
 40
1.0
176
     1
 90
        1
176
     1
 90
        6
176
     1
 90
        2
176
     1
 62
     7
176
     1
 90
        5
176
     1
 90
        0
176
     1
 90
        0
176
     1
290
     0
176
     1
 90
       13
176
     1
 40
0.0
176
     1
 90
        0
176
     1
290
     0
176
     1
290
     1
176
     1
290
     1
176
     1
290
     0
176
     1
290
     0
176
     1
290
     0
176
     1
290
     0
176
     1
290
     0
176
     1
290
     0
176
     1
 90
       50
176
     1
 40
0.0
176
     1
 40
1.0
176
     1
 90
        0
176
     1
 62
    18
420
        0
176
     1
 90
       50
176
     1
 90
        3
176
     1
 62
     5
420
      255
176
     1
290
     0
176
     1
 90
       50
176
     1
 90
       50
176
     1
 90
       50
176
     1
290
     0
176
     1
 90
       50
176
     1
 62
   256
176
     0
 40
1.0
176
     0
 90
        2
176
     1
  1
strokes_ogs.tif
176
     1
290
     0
176
     1
 40
1.0
176
     1
 40
1.0
176
     1
  0
VISUALSTYLE
  5
2E
102
{ACAD_REACTORS
330
2A
102
}
330
2A
100
AcDbVisualStyle
  2
GouraudWithEdges
 70
     3
177
     3
291
     1
 70
    58
 90
        2
176
     1
 90
        2
176
     1
 90
        1
176
     1
 90
        2
176
     1
 40
0.6
176
     1
 40
30.0
176
     1
 62
     7
420
 16777215
176
     1
 90
        1
176
     1
 90
        0
176
     1
 62
     7
176
     1
 62
   257
176
     1
 90
        1
176
     1
 90
        1
176
     1
 40
1.0
176
     1
 90
        0
176
     1
 62
   257
176
     1
 40
1.0
176
     1
 90
        1
176
     1
 90
        6
176
     1
 90
        2
176
     1
 62
     7
176
     1
 90
        5
176
     1
 90
        0
176
     1
 90
        0
176
     1
290
     0
176
     1
 90
       13
176
     1
 40
0.0
176
     1
 90
        0
176
     1
290
     0
176
     1
290
     1
176
     1
290
     1
176
     1
290
     0
176
     1
290
     0
176
     1
290
     0
176
     1
290
     0
176
     1
290
     0
176
     1
290
     0
176
     1
 90
       50
176
     1
 40
0.0
176
     1
 40
1.0
176
     1
 90
        0
176
     1
 62
    18
420
        0
176
     1
 90
       50
176
     1
 90
        3
176
     1
 62
     5
420
      255
176
     1
290
     0
176
     1
 90
       50
176
     1
 90
       50
176
     1
 90
       50
176
     1
290
     0
176
     1
 90
       50
176
     1
 62
   256
176
     0
 40
1.0
176
     0
 90
        2
176
     1
  1
strokes_ogs.tif
176
     1
290
     0
176
     1
 40
1.0
176
     1
 40
1.0
176
     1
  0
VISUALSTYLE
  5
31
102
{ACAD_REACTORS
330
2A
102
}
330
2A
100
AcDbVisualStyle
  2
Hidden
 70
     6
177
     3
291
     0
 70
    58
 90
        1
176
     1
 90
        2
176
     1
 90
        2
176
     1
 90
        0
176
     1
 40
0.6
176
     1
 40
30.0
176
     1
 62
     7
420
 16777215
176
     1
 90
        2
176
     1
 90
        2
176
     1
 62
     7
176
     1
 62
   257
176
     1
 90
        2
176
     1
 90
        1
176
     1
 40
40.0
176
     1
 90
        0
176
     1
 62
   257
176
     1
 40
1.0
176
     1
 90
        1
176
     1
 90
        6
176
     1
 90
        2
176
     1
 62
     7
176
     1
 90
        3
176
     1
 90
        0
176
     1
 90
        0
176
     1
290
     0
176
     1
 90
        1
176
     1
 40
0.0
176
     1
 90
        0
176
     1
290
     0
176
     1
290
     1
176
     1
290
     1
176
     1
290
     0
176
     1
290
     0
176
     1
290
     0
176
     1
290
     0
176
     1
290
     0
176
     1
290
     0
176
     1
 90
       50
176
     1
 40
0.0
176
     1
 40
1.0
176
     1
 90
        0
176
     1
 62
    18
420
        0
176
     1
 90
       50
176
     1
 90
        3
176
     1
 62
     5
420
      255
176
     1
290
     0
176
     1
 90
       50
176
     1
 90
       50
176
     1
 90
       50
176
     1
290
     0
176
     1
 90
       50
176
     1
 62
   256
176
     0
 40
1.0
176
     0
 90
        2
176
     1
  1
strokes_ogs.tif
176
     1
290
     0
176
     1
 40
1.0
176
     1
 40
1.0
176
     1
  0
VISUALSTYLE
  5
3B
102
{ACAD_REACTORS
330
2A
102
}
330
2A
100
AcDbVisualStyle
  2
JitterOff
 70
    20
177
     3
291
     1
 70
    58
 90
        2
176
     0
 90
        2
176
     0
 90
        0
176
     0
 90
        0
176
     0
 40
0.6
176
     0
 40
30.0
176
     0
 62
     7
420
 16777215
176
     0
 90
        1
176
     0
 90
        4
176
     0
 62
     7
176
     0
 62
   257
176
     0
 90
        1
176
     0
 90
        1
176
     0
 40
1.0
176
     0
 90
       10
176
     2
 62
     7
176
     0
 40
1.0
176
     0
 90
        1
176
     0
 90
        6
176
     0
 90
        2
176
     0
 62
     7
176
     0
 90
        5
176
     0
 90
        0
176
     0
 90
        0
176
     0
290
     0
176
     0
 90
        1
176
     0
 40
0.0
176
     0
 90
        0
176
     0
290
     0
176
     0
290
     1
176
     0
290
     1
176
     0
290
     0
176
     0
290
     0
176
     0
290
     0
176
     0
290
     0
176
     0
290
     0
176
     0
290
     0
176
     0
 90
       50
176
     0
 40
0.0
176
     0
 40
1.0
176
     0
 90
        0
176
     0
 62
    18
420
        0
176
     0
 90
       50
176
     0
 90
        3
176
     0
 62
     5
420
      255
176
     0
290
     0
176
     0
 90
       50
176
     0
 90
       50
176
     0
 90
       50
176
     0
290
     0
176
     0
 90
       50
176
     0
 62
   256
176
     0
 40
1.0
176
     0
 90
        2
176
     0
  1
strokes_ogs.tif
176
     0
290
     0
176
     0
 40
1.0
176
     0
 40
1.0
176
     0
  0
VISUALSTYLE
  5
38
102
{ACAD_REACTORS
330
2A
102
}
330
2A
100
AcDbVisualStyle
  2
Linepattern
 70
    14
177
     3
291
     1
 70
    58
 90
        2
176
     1
 90
        2
176
     1
 90
        0
176
     1
 90
        0
176
     1
 40
0.6
176
     1
 40
30.0
176
     1
 62
     7
420
 16777215
176
     1
 90
        1
176
     1
 90
        4
176
     1
 62
     7
176
     1
 62
   257
176
     1
 90
        7
176
     1
 90
        7
176
     1
 40
1.0
176
     1
 90
        8
176
     1
 62
     7
176
     1
 40
1.0
176
     1
 90
        1
176
     1
 90
        6
176
     1
 90
        2
176
     1
 62
     7
176
     1
 90
        5
176
     1
 90
        0
176
     1
 90
        0
176
     1
290
     0
176
     1
 90
        1
176
     1
 40
0.0
176
     1
 90
        0
176
     1
290
     0
176
     1
290
     1
176
     1
290
     1
176
     1
290
     0
176
     1
290
     0
176
     1
290
     0
176
     1
290
     0
176
     1
290
     0
176
     1
290
     0
176
     1
 90
       50
176
     1
 40
0.0
176
     1
 40
1.0
176
     1
 90
        0
176
     1
 62
    18
420
        0
176
     1
 90
       50
176
     1
 90
        3
176
     1
 62
     5
420
      255
176
     1
290
     0
176
     1
 90
       50
176
     1
 90
       50
176
     1
 90
       50
176
     1
290
     0
176
     1
 90
       50
176
     1
 62
   256
176
     0
 40
1.0
176
     0
 90
        2
176
     1
  1
strokes_ogs.tif
176
     1
290
     0
176
     1
 40
1.0
176
     1
 40
1.0
176
     1
  0
VISUALSTYLE
  5
3C
102
{ACAD_REACTORS
330
2A
102
}
330
2A
100
AcDbVisualStyle
  2
OverhangOff
 70
    21
177
     3
291
     1
 70
    58
 90
        2
176
     0
 90
        2
176
     0
 90
        0
176
     0
 90
        0
176
     0
 40
0.6
176
     0
 40
30.0
176
     0
 62
     7
420
 16777215
176
     0
 90
        1
176
     0
 90
        4
176
     0
 62
     7
176
     0
 62
   257
176
     0
 90
        1
176
     0
 90
        1
176
     0
 40
1.0
176
     0
 90
        9
176
     2
 62
     7
176
     0
 40
1.0
176
     0
 90
        1
176
     0
 90
        6
176
     0
 90
        2
176
     0
 62
     7
176
     0
 90
        5
176
     0
 90
        0
176
     0
 90
        0
176
     0
290
     0
176
     0
 90
        1
176
     0
 40
0.0
176
     0
 90
        0
176
     0
290
     0
176
     0
290
     1
176
     0
290
     1
176
     0
290
     0
176
     0
290
     0
176
     0
290
     0
176
     0
290
     0
176
     0
290
     0
176
     0
290
     0
176
     0
 90
       50
176
     0
 40
0.0
176
     0
 40
1.0
176
     0
 90
        0
176
     0
 62
    18
420
        0
176
     0
 90
       50
176
     0
 90
        3
176
     0
 62
     5
420
      255
176
     0
290
     0
176
     0
 90
       50
176
     0
 90
       50
176
     0
 90
       50
176
     0
290
     0
176
     0
 90
       50
176
     0
 62
   256
176
     0
 40
1.0
176
     0
 90
        2
176
     0
  1
strokes_ogs.tif
176
     0
290
     0
176
     0
 40
1.0
176
     0
 40
1.0
176
     0
  0
VISUALSTYLE
  5
33
102
{ACAD_REACTORS
330
2A
102
}
330
2A
100
AcDbVisualStyle
  2
Realistic
 70
     8
177
     3
291
     0
 70
    58
 90
        2
176
     1
 90
        3
176
     1
 90
        0
176
     1
 90
        2
176
     1
 40
0.6
176
     1
 40
30.0
176
     1
 62
     7
420
 16777215
176
     1
 90
        0
176
     1
 90
        0
176
     1
 62
     7
176
     1
 62
   257
176
     1
 90
        1
176
     1
 90
        1
176
     1
 40
1.0
176
     1
 90
        8
176
     1
 62
   257
176
     1
 40
1.0
176
     1
 90
        1
176
     1
 90
        6
176
     1
 90
        2
176
     1
 62
     7
176
     1
 90
        3
176
     1
 90
        0
176
     1
 90
        0
176
     1
290
     0
176
     1
 90
       13
176
     1
 40
0.0
176
     1
 90
        0
176
     1
290
     0
176
     1
290
     1
176
     1
290
     1
176
     1
290
     0
176
     1
290
     0
176
     1
290
     0
176
     1
290
     0
176
     1
290
     0
176
     1
290
     0
176
     1
 90
       50
176
     1
 40
0.0
176
     1
 40
1.0
176
     1
 90
        0
176
     1
 62
    18
420
        0
176
     1
 90
       50
176
     1
 90
        3
176
     1
 62
     5
420
      255
176
     1
290
     0
176
     1
 90
       50
176
     1
 90
       50
176
     1
 90
       50
176
     1
290
     0
176
     1
 90
       50
176
     1
 62
   256
176
     0
 40
1.0
176
     0
 90
        2
176
     1
  1
strokes_ogs.tif
176
     1
290
     0
176
     1
 40
1.0
176
     1
 40
1.0
176
     1
  0
VISUALSTYLE
  5
42
102
{ACAD_REACTORS
330
2A
102
}
330
2A
100
AcDbVisualStyle
  2
Shaded
 70
    27
177
     3
291
     0
 70
    58
 90
        2
176
     1
 90
        2
176
     1
 90
        1
176
     1
 90
        2
176
     1
 40
0.6
176
     1
 40
30.0
176
     1
 62
     7
420
 16777215
176
     1
 90
        0
176
     1
 90
        4
176
     1
 62
     7
176
     1
 62
   257
176
     1
 90
        1
176
     1
 90
        1
176
     1
 40
1.0
176
     1
 90
        8
176
     1
 62
   257
176
     1
 40
1.0
176
     1
 90
        1
176
     1
 90
        6
176
     1
 90
        2
176
     1
 62
     8
420
  7895160
176
     1
 90
        3
176
     1
 90
        0
176
     1
 90
        0
176
     1
290
     0
176
     1
 90
        5
176
     1
 40
0.0
176
     1
 90
        0
176
     1
290
     0
176
     1
290
     1
176
     1
290
     1
176
     1
290
     0
176
     1
290
     0
176
     1
290
     0
176
     1
290
     0
176
     1
290
     0
176
     1
290
     0
176
     1
 90
       50
176
     1
 40
0.0
176
     1
 40
1.0
176
     1
 90
        0
176
     1
 62
    18
420
        0
176
     1
 90
       50
176
     1
 90
        3
176
     1
 62
     5
420
      255
176
     1
290
     0
176
     1
 90
       50
176
     1
 90
       50
176
     1
 90
       50
176
     1
290
     0
176
     1
 90
       50
176
     1
 62
   256
176
     0
 40
1.0
176
     0
 90
        2
176
     1
  1
strokes_ogs.tif
176
     1
290
     0
176
     1
 40
1.0
176
     1
 40
1.0
176
     1
  0
VISUALSTYLE
  5
41
102
{ACAD_REACTORS
330
2A
102
}
330
2A
100
AcDbVisualStyle
  2
Shaded with edges
 70
    26
177
     3
291
     0
 70
    58
 90
        2
176
     1
 90
        2
176
     1
 90
        1
176
     1
 90
        2
176
     1
 40
0.6
176
     1
 40
30.0
176
     1
 62
     7
420
 16777215
176
     1
 90
        1
176
     1
 90
       10
176
     1
 62
     7
176
     1
 62
   257
176
     1
 90
        2
176
     1
 90
        1
176
     1
 40
1.0
176
     1
 90
        8
176
     1
 62
   257
176
     1
 40
1.0
176
     1
 90
        1
176
     1
 90
        6
176
     1
 90
        2
176
     1
 62
     7
176
     1
 90
        3
176
     1
 90
        0
176
     1
 90
        0
176
     1
290
     0
176
     1
 90
        5
176
     1
 40
0.0
176
     1
 90
        0
176
     1
290
     0
176
     1
290
     1
176
     1
290
     1
176
     1
290
     0
176
     1
290
     0
176
     1
290
     0
176
     1
290
     0
176
     1
290
     0
176
     1
290
     0
176
     1
 90
       50
176
     1
 40
0.0
176
     1
 40
1.0
176
     1
 90
        0
176
     1
 62
    18
420
        0
176
     1
 90
       50
176
     1
 90
        3
176
     1
 62
     5
420
      255
176
     1
290
     0
176
     1
 90
       50
176
     1
 90
       50
176
     1
 90
       50
176
     1
290
     0
176
     1
 90
       50
176
     1
 62
   256
176
     0
 40
1.0
176
     0
 90
        2
176
     1
  1
strokes_ogs.tif
176
     1
290
     0
176
     1
 40
1.0
176
     1
 40
1.0
176
     1
  0
VISUALSTYLE
  5
3E
102
{ACAD_REACTORS
330
2A
102
}
330
2A
100
AcDbVisualStyle
  2
Shades of Gray
 70
    23
177
     3
291
     0
 70
    58
 90
        2
176
     1
 90
        2
176
     1
 90
        3
176
     1
 90
        0
176
     1
 40
0.6
176
     1
 40
30.0
176
     1
 62
     7
420
 16777215
176
     1
 90
        2
176
     1
 90
        2
176
     1
 62
     7
176
     1
 62
     7
176
     1
 90
        1
176
     1
 90
        1
176
     1
 40
40.0
176
     1
 90
        8
176
     1
 62
     7
176
     1
 40
1.0
176
     1
 90
        1
176
     1
 90
        6
176
     1
 90
        2
176
     1
 62
     7
176
     1
 90
        3
176
     1
 90
        0
176
     1
 90
        0
176
     1
290
     0
176
     1
 90
        1
176
     1
 40
0.0
176
     1
 90
        0
176
     1
290
     0
176
     1
290
     1
176
     1
290
     1
176
     1
290
     0
176
     1
290
     0
176
     1
290
     0
176
     1
290
     0
176
     1
290
     0
176
     1
290
     0
176
     1
 90
       50
176
     1
 40
0.0
176
     1
 40
1.0
176
     1
 90
        0
176
     1
 62
    18
420
        0
176
     1
 90
       50
176
     1
 90
        3
176
     1
 62
     5
420
      255
176
     1
290
     0
176
     1
 90
       50
176
     1
 90
       50
176
     1
 90
       50
176
     1
290
     0
176
     1
 90
       50
176
     1
 62
   256
176
     0
 40
1.0
176
     0
 90
        2
176
     1
  1
strokes_ogs.tif
176
     1
290
     0
176
     1
 40
1.0
176
     1
 40
1.0
176
     1
  0
VISUALSTYLE
  5
3F
102
{ACAD_REACTORS
330
2A
102
}
330
2A
100
AcDbVisualStyle
  2
Sketchy
 70
    24
177
     3
291
     0
 70
    58
 90
        1
176
     1
 90
        2
176
     1
 90
        2
176
     1
 90
        0
176
     1
 40
0.6
176
     1
 40
30.0
176
     1
 62
     7
420
 16777215
176
     1
 90
        2
176
     1
 90
        2
176
     1
 62
     7
176
     1
 62
     7
176
     1
 90
        1
176
     1
 90
        1
176
     1
 40
40.0
176
     1
 90
       11
176
     1
 62
     7
176
     1
 40
1.0
176
     1
 90
        1
176
     1
 90
        6
176
     1
 90
        2
176
     1
 62
     7
176
     1
 90
        6
176
     1
 90
        0
176
     1
 90
        0
176
     1
290
     0
176
     1
 90
        1
176
     1
 40
0.0
176
     1
 90
        0
176
     1
290
     0
176
     1
290
     1
176
     1
290
     1
176
     1
290
     0
176
     1
290
     0
176
     1
290
     0
176
     1
290
     0
176
     1
290
     0
176
     1
290
     0
176
     1
 90
       50
176
     1
 40
0.0
176
     1
 40
1.0
176
     1
 90
        0
176
     1
 62
    18
420
        0
176
     1
 90
       50
176
     1
 90
        3
176
     1
 62
     5
420
      255
176
     1
290
     0
176
     1
 90
       50
176
     1
 90
       50
176
     1
 90
       50
176
     1
290
     0
176
     1
 90
       50
176
     1
 62
   256
176
     0
 40
1.0
176
     0
 90
        2
176
     1
  1
strokes_ogs.tif
176
     1
290
     0
176
     1
 40
1.0
176
     1
 40
1.0
176
     1
  0
VISUALSTYLE
  5
37
102
{ACAD_REACTORS
330
2A
102
}
330
2A
100
AcDbVisualStyle
  2
Thicken
 70
    13
177
     3
291
     1
 70
    58
 90
        2
176
     1
 90
        2
176
     1
 90
        0
176
     1
 90
        0
176
     1
 40
0.6
176
     1
 40
30.0
176
     1
 62
     7
420
 16777215
176
     1
 90
        1
176
     1
 90
        4
176
     1
 62
     7
176
     1
 62
   257
176
     1
 90
        1
176
     1
 90
        1
176
     1
 40
1.0
176
     1
 90
       12
176
     1
 62
     7
176
     1
 40
1.0
176
     1
 90
        1
176
     1
 90
        6
176
     1
 90
        2
176
     1
 62
     7
176
     1
 90
        5
176
     1
 90
        0
176
     1
 90
        0
176
     1
290
     0
176
     1
 90
        1
176
     1
 40
0.0
176
     1
 90
        0
176
     1
290
     0
176
     1
290
     1
176
     1
290
     1
176
     1
290
     0
176
     1
290
     0
176
     1
290
     0
176
     1
290
     0
176
     1
290
     0
176
     1
290
     0
176
     1
 90
       50
176
     1
 40
0.0
176
     1
 40
1.0
176
     1
 90
        0
176
     1
 62
    18
420
        0
176
     1
 90
       50
176
     1
 90
        3
176
     1
 62
     5
420
      255
176
     1
290
     0
176
     1
 90
       50
176
     1
 90
       50
176
     1
 90
       50
176
     1
290
     0
176
     1
 90
       50
176
     1
 62
   256
176
     0
 40
1.0
176
     0
 90
        2
176
     1
  1
strokes_ogs.tif
176
     1
290
     0
176
     1
 40
1.0
176
     1
 40
1.0
176
     1
  0
VISUALSTYLE
  5
30
102
{ACAD_REACTORS
330
2A
102
}
330
2A
100
AcDbVisualStyle
  2
Wireframe
 70
     5
177
     3
291
     0
 70
    58
 90
        0
176
     1
 90
        2
176
     1
 90
        0
176
     1
 90
        0
176
     1
 40
0.6
176
     1
 40
30.0
176
     1
 62
     7
420
 16777215
176
     1
 90
        1
176
     1
 90
        4
176
     1
 62
     7
176
     1
 62
   257
176
     1
 90
        1
176
     1
 90
        1
176
     1
 40
1.0
176
     1
 90
        0
176
     1
 62
   257
176
     1
 40
1.0
176
     1
 90
        1
176
     1
 90
        6
176
     1
 90
        2
176
     1
 62
     7
176
     1
 90
        3
176
     1
 90
        0
176
     1
 90
        0
176
     1
290
     0
176
     1
 90
        1
176
     1
 40
0.0
176
     1
 90
        0
176
     1
290
     0
176
     1
290
     1
176
     1
290
     1
176
     1
290
     0
176
     1
290
     0
176
     1
290
     0
176
     1
290
     0
176
     1
290
     0
176
     1
290
     0
176
     1
 90
       50
176
     1
 40
0.0
176
     1
 40
1.0
176
     1
 90
        0
176
     1
 62
    18
420
        0
176
     1
 90
       50
176
     1
 90
        3
176
     1
 62
     5
420
      255
176
     1
290
     0
176
     1
 90
       50
176
     1
 90
       50
176
     1
 90
       50
176
     1
290
     0
176
     1
 90
       50
176
     1
 62
   256
176
     0
 40
1.0
176
     0
 90
        2
176
     1
  1
strokes_ogs.tif
176
     1
290
     0
176
     1
 40
1.0
176
     1
 40
1.0
176
     1
  0
VISUALSTYLE
  5
40
102
{ACAD_REACTORS
330
2A
102
}
330
2A
100
AcDbVisualStyle
  2
X-Ray
 70
    25
177
     3
291
     0
 70
    58
 90
        2
176
     1
 90
        2
176
     1
 90
        1
176
     1
 90
        1
176
     1
 40
0.5
176
     1
 40
30.0
176
     1
 62
     7
420
 16777215
176
     1
 90
        1
176
     1
 90
        0
176
     1
 62
     7
176
     1
 62
   257
176
     1
 90
        1
176
     1
 90
        1
176
     1
 40
1.0
176
     1
 90
        8
176
     1
 62
     7
176
     1
 40
1.0
176
     1
 90
        1
176
     1
 90
        6
176
     1
 90
        2
176
     1
 62
     7
176
     1
 90
        3
176
     1
 90
        0
176
     1
 90
        0
176
     1
290
     0
176
     1
 90
       13
176
     1
 40
0.0
176
     1
 90
        0
176
     1
290
     0
176
     1
290
     1
176
     1
290
     1
176
     1
290
     0
176
     1
290
     0
176
     1
290
     0
176
     1
290
     0
176
     1
290
     0
176
     1
290
     0
176
     1
 90
       50
176
     1
 40
0.0
176
     1
 40
1.0
176
     1
 90
        0
176
     1
 62
    18
420
        0
176
     1
 90
       50
176
     1
 90
        3
176
     1
 62
     5
420
      255
176
     1
290
     0
176
     1
 90
       50
176
     1
 90
       50
176
     1
 90
       50
176
     1
290
     0
176
     1
 90
       50
176
     1
 62
   256
176
     0
 40
1.0
176
     0
 90
        2
176
     1
  1
strokes_ogs.tif
176
     1
290
     0
176
     1
 40
1.0
176
     1
 40
1.0
176
     1
  0
DICTIONARYVAR
  5
A6
102
{ACAD_REACTORS
330
A5
102
}
330
A5
100
DictionaryVariables
280
     0
  1
1:1
  0
DICTIONARYVAR
  5
AB
102
{ACAD_REACTORS
330
A5
102
}
330
A5
100
DictionaryVariables
280
     0
  1
Standard
  0
DICTIONARYVAR
  5
AA
102
{ACAD_REACTORS
330
A5
102
}
330
A5
100
DictionaryVariables
280
     0
  1
Standard
  0
DICTIONARY
  5
A7
330
5A
100
AcDbDictionary
280
     1
281
     1
  3
ACAD_ROUNDTRIP_2008_TABLESTYLE_CELLSTYLEMAP
360
A8
  0
CELLSTYLEMAP
  5
A8
102
{ACAD_REACTORS
330
A7
102
}
330
A7
100
AcDbCellStyleMap
 90
        3
300
CELLSTYLE
  1
TABLEFORMAT_BEGIN
 90
        5
170
     1
 91
        0
 92
    32768
 62
   257
 93
        1
300
CONTENTFORMAT
  1
CONTENTFORMAT_BEGIN
 90
        0
 91
        0
 92
        4
 93
        0
300

 40
0.0
140
1.0
 94
        5
 62
     0
340
11
144
0.25
309
CONTENTFORMAT_END
171
     1
301
MARGIN
  1
CELLMARGIN_BEGIN
 40
0.06
 40
0.06
 40
0.06
 40
0.06
 40
0.06
 40
0.06
309
CELLMARGIN_END
 94
        6
 95
        1
302
GRIDFORMAT
  1
GRIDFORMAT_BEGIN
 90
        0
 91
        1
 62
     0
 92
       -2
340
14
 93
        0
 40
0.045
309
GRIDFORMAT_END
 95
        2
302
GRIDFORMAT
  1
GRIDFORMAT_BEGIN
 90
        0
 91
        1
 62
     0
 92
       -2
340
14
 93
        0
 40
0.045
309
GRIDFORMAT_END
 95
        4
302
GRIDFORMAT
  1
GRIDFORMAT_BEGIN
 90
        0
 91
        1
 62
     0
 92
       -2
340
14
 93
        0
 40
0.045
309
GRIDFORMAT_END
 95
        8
302
GRIDFORMAT
  1
GRIDFORMAT_BEGIN
 90
        0
 91
        1
 62
     0
 92
       -2
340
14
 93
        0
 40
0.045
309
GRIDFORMAT_END
 95
       16
302
GRIDFORMAT
  1
GRIDFORMAT_BEGIN
 90
        0
 91
        1
 62
     0
 92
       -2
340
14
 93
        0
 40
0.045
309
GRIDFORMAT_END
 95
       32
302
GRIDFORMAT
  1
GRIDFORMAT_BEGIN
 90
        0
 91
        1
 62
     0
 92
       -2
340
14
 93
        0
 40
0.045
309
GRIDFORMAT_END
309
TABLEFORMAT_END
  1
CELLSTYLE_BEGIN
 90
        1
 91
        1
300
_TITLE
309
CELLSTYLE_END
300
CELLSTYLE
  1
TABLEFORMAT_BEGIN
 90
        5
170
     1
 91
        0
 92
        0
 62
   257
 93
        1
300
CONTENTFORMAT
  1
CONTENTFORMAT_BEGIN
 90
        0
 91
        0
 92
        4
 93
        0
300

 40
0.0
140
1.0
 94
        5
 62
     0
340
11
144
0.18
309
CONTENTFORMAT_END
171
     1
301
MARGIN
  1
CELLMARGIN_BEGIN
 40
0.06
 40
0.06
 40
0.06
 40
0.06
 40
0.06
 40
0.06
309
CELLMARGIN_END
 94
        6
 95
        1
302
GRIDFORMAT
  1
GRIDFORMAT_BEGIN
 90
        0
 91
        1
 62
     0
 92
       -2
340
14
 93
        0
 40
0.045
309
GRIDFORMAT_END
 95
        2
302
GRIDFORMAT
  1
GRIDFORMAT_BEGIN
 90
        0
 91
        1
 62
     0
 92
       -2
340
14
 93
        0
 40
0.045
309
GRIDFORMAT_END
 95
        4
302
GRIDFORMAT
  1
GRIDFORMAT_BEGIN
 90
        0
 91
        1
 62
     0
 92
       -2
340
14
 93
        0
 40
0.045
309
GRIDFORMAT_END
 95
        8
302
GRIDFORMAT
  1
GRIDFORMAT_BEGIN
 90
        0
 91
        1
 62
     0
 92
       -2
340
14
 93
        0
 40
0.045
309
GRIDFORMAT_END
 95
       16
302
GRIDFORMAT
  1
GRIDFORMAT_BEGIN
 90
        0
 91
        1
 62
     0
 92
       -2
340
14
 93
        0
 40
0.045
309
GRIDFORMAT_END
 95
       32
302
GRIDFORMAT
  1
GRIDFORMAT_BEGIN
 90
        0
 91
        1
 62
     0
 92
       -2
340
14
 93
        0
 40
0.045
309
GRIDFORMAT_END
309
TABLEFORMAT_END
  1
CELLSTYLE_BEGIN
 90
        2
 91
        1
300
_HEADER
309
CELLSTYLE_END
300
CELLSTYLE
  1
TABLEFORMAT_BEGIN
 90
        5
170
     1
 91
        0
 92
        0
 62
   257
 93
        1
300
CONTENTFORMAT
  1
CONTENTFORMAT_BEGIN
 90
        0
 91
        0
 92
        4
 93
        0
300

 40
0.0
140
1.0
 94
        2
 62
     0
340
11
144
0.18
309
CONTENTFORMAT_END
171
     1
301
MARGIN
  1
CELLMARGIN_BEGIN
 40
0.06
 40
0.06
 40
0.06
 40
0.06
 40
0.06
 40
0.06
309
CELLMARGIN_END
 94
        6
 95
        1
302
GRIDFORMAT
  1
GRIDFORMAT_BEGIN
 90
        0
 91
        1
 62
     0
 92
       -2
340
14
 93
        0
 40
0.045
309
GRIDFORMAT_END
 95
        2
302
GRIDFORMAT
  1
GRIDFORMAT_BEGIN
 90
        0
 91
        1
 62
     0
 92
       -2
340
14
 93
        0
 40
0.045
309
GRIDFORMAT_END
 95
        4
302
GRIDFORMAT
  1
GRIDFORMAT_BEGIN
 90
        0
 91
        1
 62
     0
 92
       -2
340
14
 93
        0
 40
0.045
309
GRIDFORMAT_END
 95
        8
302
GRIDFORMAT
  1
GRIDFORMAT_BEGIN
 90
        0
 91
        1
 62
     0
 92
       -2
340
14
 93
        0
 40
0.045
309
GRIDFORMAT_END
 95
       16
302
GRIDFORMAT
  1
GRIDFORMAT_BEGIN
 90
        0
 91
        1
 62
     0
 92
       -2
340
14
 93
        0
 40
0.045
309
GRIDFORMAT_END
 95
       32
302
GRIDFORMAT
  1
GRIDFORMAT_BEGIN
 90
        0
 91
        1
 62
     0
 92
       -2
340
14
 93
        0
 40
0.045
309
GRIDFORMAT_END
309
TABLEFORMAT_END
  1
CELLSTYLE_BEGIN
 90
        3
 91
        2
300
_DATA
309
CELLSTYLE_END
  0
ENDSEC
  0
EOF
