  0
SECTION
  2
HEADER
  9
$ACADVER
  1
AC1032
  9
$ACADMAINTVER
 90
       55
  9
$DWGCODEPAGE
  3
ANSI_1252
  9
$LASTSAVEDBY
  1
LYI-002
  9
$REQUIREDVERSIONS
160
                 0
  9
$INSBASE
 10
0.0
 20
0.0
 30
0.0
  9
$EXTMIN
 10
-1200.0984
 20
-590.0751
 30
0.0
  9
$EXTMAX
 10
1199.9778
 20
590.0011
 30
0.0
  9
$LIMMIN
 10
0.0
 20
0.0
  9
$LIMMAX
 10
12.0
 20
9.0
  9
$ORTHOMODE
 70
     0
  9
$REGENMODE
 70
     1
  9
$FILLMODE
 70
     1
  9
$QTEXTMODE
 70
     0
  9
$MIRRTEXT
 70
     1
  9
$LTSCALE
 40
1.0
  9
$ATTMODE
 70
     1
  9
$TEXTSIZE
 40
0.2
  9
$TRACEWID
 40
0.05
  9
$TEXTSTYLE
  7
Standard
  9
$CLAYER
  8
0
  9
$CELTYPE
  6
ByLayer
  9
$CECOLOR
 62
   256
  9
$CELTSCALE
 40
1.0
  9
$DISPSILH
 70
     0
  9
$DIMSCALE
 40
1.0
  9
$DIMASZ
 40
0.18
  9
$DIMEXO
 40
0.0625
  9
$DIMDLI
 40
0.38
  9
$DIMRND
 40
0.0
  9
$DIMDLE
 40
0.0
  9
$DIMEXE
 40
0.18
  9
$DIMTP
 40
0.0
  9
$DIMTM
 40
0.0
  9
$DIMTXT
 40
0.18
  9
$DIMCEN
 40
0.09
  9
$DIMTSZ
 40
0.0
  9
$DIMTOL
 70
     0
  9
$DIMLIM
 70
     0
  9
$DIMTIH
 70
     1
  9
$DIMTOH
 70
     1
  9
$DIMSE1
 70
     0
  9
$DIMSE2
 70
     0
  9
$DIMTAD
 70
     0
  9
$DIMZIN
 70
     0
  9
$DIMBLK
  1

  9
$DIMASO
 70
     1
  9
$DIMSHO
 70
     1
  9
$DIMPOST
  1

  9
$DIMAPOST
  1

  9
$DIMALT
 70
     0
  9
$DIMALTD
 70
     2
  9
$DIMALTF
 40
25.4
  9
$DIMLFAC
 40
1.0
  9
$DIMTOFL
 70
     0
  9
$DIMTVP
 40
0.0
  9
$DIMTIX
 70
     0
  9
$DIMSOXD
 70
     0
  9
$DIMSAH
 70
     0
  9
$DIMBLK1
  1

  9
$DIMBLK2
  1

  9
$DIMSTYLE
  2
Standard
  9
$DIMCLRD
 70
     0
  9
$DIMCLRE
 70
     0
  9
$DIMCLRT
 70
     0
  9
$DIMTFAC
 40
1.0
  9
$DIMGAP
 40
0.09
  9
$DIMJUST
 70
     0
  9
$DIMSD1
 70
     0
  9
$DIMSD2
 70
     0
  9
$DIMTOLJ
 70
     1
  9
$DIMTZIN
 70
     0
  9
$DIMALTZ
 70
     0
  9
$DIMALTTZ
 70
     0
  9
$DIMUPT
 70
     0
  9
$DIMDEC
 70
     4
  9
$DIMTDEC
 70
     4
  9
$DIMALTU
 70
     2
  9
$DIMALTTD
 70
     2
  9
$DIMTXSTY
  7
Standard
  9
$DIMAUNIT
 70
     0
  9
$DIMADEC
 70
     0
  9
$DIMALTRND
 40
0.0
  9
$DIMAZIN
 70
     0
  9
$DIMDSEP
 70
    46
  9
$DIMATFIT
 70
     3
  9
$DIMFRAC
 70
     0
  9
$DIMLDRBLK
  1

  9
$DIMLUNIT
 70
     2
  9
$DIMLWD
 70
    -2
  9
$DIMLWE
 70
    -2
  9
$DIMTMOVE
 70
     0
  9
$DIMFXL
 40
1.0
  9
$DIMFXLON
 70
     0
  9
$DIMJOGANG
 40
0.7853981633974483
  9
$DIMTFILL
 70
     0
  9
$DIMTFILLCLR
 70
     0
  9
$DIMARCSYM
 70
     0
  9
$DIMLTYPE
  6

  9
$DIMLTEX1
  6

  9
$DIMLTEX2
  6

  9
$DIMTXTDIRECTION
 70
     0
  9
$LUNITS
 70
     2
  9
$LUPREC
 70
     4
  9
$SKETCHINC
 40
0.1
  9
$FILLETRAD
 40
0.0
  9
$AUNITS
 70
     0
  9
$AUPREC
 70
     0
  9
$MENU
  1
.
  9
$ELEVATION
 40
0.0
  9
$PELEVATION
 40
0.0
  9
$THICKNESS
 40
0.0
  9
$LIMCHECK
 70
     0
  9
$CHAMFERA
 40
0.0
  9
$CHAMFERB
 40
0.0
  9
$CHAMFERC
 40
0.0
  9
$CHAMFERD
 40
0.0
  9
$SKPOLY
 70
     0
  9
$TDCREATE
 40
2460652.633661077
  9
$TDUCREATE
 40
2460652.40449441
  9
$TDUPDATE
 40
2460652.633661308
  9
$TDUUPDATE
 40
2460652.404494642
  9
$TDINDWG
 40
0.0000000116
  9
$TDUSRTIMER
 40
0.0000000116
  9
$USRTIMER
 70
     1
  9
$ANGBASE
 50
0.0
  9
$ANGDIR
 70
     0
  9
$PDMODE
 70
     0
  9
$PDSIZE
 40
0.0
  9
$PLINEWID
 40
0.0
  9
$SPLFRAME
 70
     0
  9
$SPLINETYPE
 70
     6
  9
$SPLINESEGS
 70
     8
  9
$HANDSEED
  5
A8
  9
$SURFTAB1
 70
     6
  9
$SURFTAB2
 70
     6
  9
$SURFTYPE
 70
     6
  9
$SURFU
 70
     6
  9
$SURFV
 70
     6
  9
$UCSBASE
  2

  9
$UCSNAME
  2

  9
$UCSORG
 10
0.0
 20
0.0
 30
0.0
  9
$UCSXDIR
 10
1.0
 20
0.0
 30
0.0
  9
$UCSYDIR
 10
0.0
 20
1.0
 30
0.0
  9
$UCSORTHOREF
  2

  9
$UCSORTHOVIEW
 70
     0
  9
$UCSORGTOP
 10
0.0
 20
0.0
 30
0.0
  9
$UCSORGBOTTOM
 10
0.0
 20
0.0
 30
0.0
  9
$UCSORGLEFT
 10
0.0
 20
0.0
 30
0.0
  9
$UCSORGRIGHT
 10
0.0
 20
0.0
 30
0.0
  9
$UCSORGFRONT
 10
0.0
 20
0.0
 30
0.0
  9
$UCSORGBACK
 10
0.0
 20
0.0
 30
0.0
  9
$PUCSBASE
  2

  9
$PUCSNAME
  2

  9
$PUCSORG
 10
0.0
 20
0.0
 30
0.0
  9
$PUCSXDIR
 10
1.0
 20
0.0
 30
0.0
  9
$PUCSYDIR
 10
0.0
 20
1.0
 30
0.0
  9
$PUCSORTHOREF
  2

  9
$PUCSORTHOVIEW
 70
     0
  9
$PUCSORGTOP
 10
0.0
 20
0.0
 30
0.0
  9
$PUCSORGBOTTOM
 10
0.0
 20
0.0
 30
0.0
  9
$PUCSORGLEFT
 10
0.0
 20
0.0
 30
0.0
  9
$PUCSORGRIGHT
 10
0.0
 20
0.0
 30
0.0
  9
$PUCSORGFRONT
 10
0.0
 20
0.0
 30
0.0
  9
$PUCSORGBACK
 10
0.0
 20
0.0
 30
0.0
  9
$USERI1
 70
     0
  9
$USERI2
 70
     0
  9
$USERI3
 70
     0
  9
$USERI4
 70
     0
  9
$USERI5
 70
     0
  9
$USERR1
 40
0.0
  9
$USERR2
 40
0.0
  9
$USERR3
 40
0.0
  9
$USERR4
 40
0.0
  9
$USERR5
 40
0.0
  9
$WORLDVIEW
 70
     1
  9
$SHADEDGE
 70
     3
  9
$SHADEDIF
 70
    70
  9
$TILEMODE
 70
     1
  9
$MAXACTVP
 70
    64
  9
$PINSBASE
 10
0.0
 20
0.0
 30
0.0
  9
$PLIMCHECK
 70
     0
  9
$PEXTMIN
 10
1.000000000000000E+20
 20
1.000000000000000E+20
 30
1.000000000000000E+20
  9
$PEXTMAX
 10
-1.000000000000000E+20
 20
-1.000000000000000E+20
 30
-1.000000000000000E+20
  9
$PLIMMIN
 10
0.0
 20
0.0
  9
$PLIMMAX
 10
12.0
 20
9.0
  9
$UNITMODE
 70
     0
  9
$VISRETAIN
 70
     1
  9
$PLINEGEN
 70
     0
  9
$PSLTSCALE
 70
     1
  9
$TREEDEPTH
 70
  3020
  9
$CMLSTYLE
  2
Standard
  9
$CMLJUST
 70
     0
  9
$CMLSCALE
 40
1.0
  9
$PROXYGRAPHICS
 70
     1
  9
$MEASUREMENT
 70
     0
  9
$CELWEIGHT
370
    -1
  9
$ENDCAPS
280
     0
  9
$JOINSTYLE
280
     0
  9
$LWDISPLAY
290
     0
  9
$INSUNITS
 70
     4
  9
$HYPERLINKBASE
  1

  9
$STYLESHEET
  1

  9
$XEDIT
290
     1
  9
$CEPSNTYPE
380
     0
  9
$PSTYLEMODE
290
     1
  9
$FINGERPRINTGUID
  2
{4679241f-7cca-4ba8-b5ab-2cff81ae09a7}
  9
$VERSIONGUID
  2
{FAEB1C32-E019-11D5-929B-00C0DF256EC4}
  9
$EXTNAMES
290
     1
  9
$PSVPSCALE
 40
0.0
  9
$OLESTARTUP
290
     0
  9
$SORTENTS
280
   127
  9
$INDEXCTL
280
     0
  9
$HIDETEXT
280
     1
  9
$XCLIPFRAME
280
     2
  9
$HALOGAP
280
     0
  9
$OBSCOLOR
 70
   257
  9
$OBSLTYPE
280
     0
  9
$INTERSECTIONDISPLAY
280
     0
  9
$INTERSECTIONCOLOR
 70
   257
  9
$DIMASSOC
280
     2
  9
$PROJECTNAME
  1

  9
$CAMERADISPLAY
290
     0
  9
$LENSLENGTH
 40
50.0
  9
$CAMERAHEIGHT
 40
0.0
  9
$STEPSPERSEC
 40
2.0
  9
$STEPSIZE
 40
6.0
  9
$3DDWFPREC
 40
2.0
  9
$PSOLWIDTH
 40
0.25
  9
$PSOLHEIGHT
 40
4.0
  9
$LOFTANG1
 40
1.570796326794897
  9
$LOFTANG2
 40
1.570796326794897
  9
$LOFTMAG1
 40
0.0
  9
$LOFTMAG2
 40
0.0
  9
$LOFTPARAM
 70
     7
  9
$LOFTNORMALS
280
     1
  9
$LATITUDE
 40
37.795
  9
$LONGITUDE
 40
-122.394
  9
$NORTHDIRECTION
 40
0.0
  9
$TIMEZONE
 70
 -8000
  9
$LIGHTGLYPHDISPLAY
280
     1
  9
$TILEMODELIGHTSYNCH
280
     1
  9
$CMATERIAL
347
44
  9
$SOLIDHIST
280
     0
  9
$SHOWHIST
280
     1
  9
$DWFFRAME
280
     2
  9
$DGNFRAME
280
     2
  9
$REALWORLDSCALE
290
     1
  9
$INTERFERECOLOR
 62
   256
  9
$CSHADOW
280
     0
  9
$SHADOWPLANELOCATION
 40
0.0
  0
ENDSEC
  0
SECTION
  2
CLASSES
  0
CLASS
  1
ACDBDICTIONARYWDFLT
  2
AcDbDictionaryWithDefault
  3
ObjectDBX Classes
 90
        0
 91
        3
280
     0
281
     0
  0
CLASS
  1
VISUALSTYLE
  2
AcDbVisualStyle
  3
ObjectDBX Classes
 90
     4095
 91
        3
280
     0
281
     0
  0
CLASS
  1
MATERIAL
  2
AcDbMaterial
  3
ObjectDBX Classes
 90
     1153
 91
        3
280
     0
281
     0
  0
CLASS
  1
SCALE
  2
AcDbScale
  3
ObjectDBX Classes
 90
     1153
 91
        3
280
     0
281
     0
  0
CLASS
  1
TABLESTYLE
  2
AcDbTableStyle
  3
ObjectDBX Classes
 90
     4095
 91
        3
280
     0
281
     0
  0
CLASS
  1
MLEADERSTYLE
  2
AcDbMLeaderStyle
  3
ACDB_MLEADERSTYLE_CLASS
 90
     4095
 91
        3
280
     0
281
     0
  0
CLASS
  1
SUN
  2
AcDbSun
  3
SCENEOE
 90
     1153
 91
        3
280
     0
281
     0
  0
CLASS
  1
DICTIONARYVAR
  2
AcDbDictionaryVar
  3
ObjectDBX Classes
 90
        0
 91
        3
280
     0
281
     0
  0
CLASS
  1
CELLSTYLEMAP
  2
AcDbCellStyleMap
  3
ObjectDBX Classes
 90
     1152
 91
        3
280
     0
281
     0
  0
ENDSEC
  0
SECTION
  2
TABLES
  0
TABLE
  2
VPORT
  5
8
330
0
100
AcDbSymbolTable
 70
     1
  0
VPORT
  5
29
330
8
100
AcDbSymbolTableRecord
100
AcDbViewportTableRecord
  2
*Active
 70
     0
 10
0.0
 20
0.0
 11
1.0
 21
1.0
 12
10.42990654205607
 22
4.5
 13
0.0
 23
0.0
 14
0.5
 24
0.5
 15
0.5
 25
0.5
 16
0.0
 26
0.0
 36
1.0
 17
0.0
 27
0.0
 37
0.0
 40
9.0
 41
1.972972972850329
 42
50.0
 43
0.0
 44
0.0
 50
0.0
 51
0.0
 71
     0
 72
   100
 73
     1
 74
     3
 75
     0
 76
     0
 77
     0
 78
     0
281
     0
 65
     1
110
0.0
120
0.0
130
0.0
111
1.0
121
0.0
131
0.0
112
0.0
122
1.0
132
0.0
 79
     0
146
0.0
348
2F
 60
     3
 61
     5
292
     1
282
     1
141
0.0
142
0.0
 63
   250
361
5D
  0
ENDTAB
  0
TABLE
  2
LTYPE
  5
5
330
0
100
AcDbSymbolTable
 70
     1
  0
LTYPE
  5
14
330
5
100
AcDbSymbolTableRecord
100
AcDbLinetypeTableRecord
  2
ByBlock
 70
     0
  3

 72
    65
 73
     0
 40
0.0
  0
LTYPE
  5
15
330
5
100
AcDbSymbolTableRecord
100
AcDbLinetypeTableRecord
  2
ByLayer
 70
     0
  3

 72
    65
 73
     0
 40
0.0
  0
LTYPE
  5
16
330
5
100
AcDbSymbolTableRecord
100
AcDbLinetypeTableRecord
  2
Continuous
 70
     0
  3
Solid line
 72
    65
 73
     0
 40
0.0
  0
ENDTAB
  0
TABLE
  2
LAYER
  5
2
330
0
100
AcDbSymbolTable
 70
     2
  0
LAYER
  5
10
330
2
100
AcDbSymbolTableRecord
100
AcDbLayerTableRecord
  2
0
 70
     0
 62
     7
  6
Continuous
370
    -3
390
F
347
46
348
0
  0
LAYER
  5
5F
330
2
100
AcDbSymbolTableRecord
100
AcDbLayerTableRecord
  2
Layer 1
 70
     0
 62
     7
  6
Continuous
370
    -3
390
F
347
46
348
0
  0
ENDTAB
  0
TABLE
  2
STYLE
  5
3
330
0
100
AcDbSymbolTable
 70
     1
  0
STYLE
  5
11
330
3
100
AcDbSymbolTableRecord
100
AcDbTextStyleTableRecord
  2
Standard
 70
     0
 40
0.0
 41
1.0
 50
0.0
 71
     0
 42
0.2
  3
txt
  4

  0
ENDTAB
  0
TABLE
  2
VIEW
  5
6
330
0
100
AcDbSymbolTable
 70
     0
  0
ENDTAB
  0
TABLE
  2
UCS
  5
7
330
0
100
AcDbSymbolTable
 70
     0
  0
ENDTAB
  0
TABLE
  2
APPID
  5
9
330
0
100
AcDbSymbolTable
 70
     2
  0
APPID
  5
12
330
9
100
AcDbSymbolTableRecord
100
AcDbRegAppTableRecord
  2
ACAD
 70
     0
  0
APPID
  5
5E
330
9
100
AcDbSymbolTableRecord
100
AcDbRegAppTableRecord
  2
ODA
 70
     0
  0
ENDTAB
  0
TABLE
  2
DIMSTYLE
  5
A
330
0
100
AcDbSymbolTable
 70
     1
100
AcDbDimStyleTable
  0
DIMSTYLE
105
27
330
A
100
AcDbSymbolTableRecord
100
AcDbDimStyleTableRecord
  2
Standard
 70
     0
178
     0
340
11
  0
ENDTAB
  0
TABLE
  2
BLOCK_RECORD
  5
1
330
0
100
AcDbSymbolTable
 70
     1
  0
BLOCK_RECORD
  5
1F
330
1
100
AcDbSymbolTableRecord
100
AcDbBlockTableRecord
  2
*Model_Space
340
22
 70
     0
280
     1
281
     0
  0
BLOCK_RECORD
  5
1B
330
1
100
AcDbSymbolTableRecord
100
AcDbBlockTableRecord
  2
*Paper_Space
340
1E
 70
     0
280
     1
281
     0
  0
BLOCK_RECORD
  5
23
330
1
100
AcDbSymbolTableRecord
100
AcDbBlockTableRecord
  2
*Paper_Space0
340
26
 70
     0
280
     1
281
     0
  0
ENDTAB
  0
ENDSEC
  0
SECTION
  2
BLOCKS
  0
BLOCK
  5
20
330
1F
100
AcDbEntity
  8
0
100
AcDbBlockBegin
  2
*Model_Space
 70
     0
 10
0.0
 20
0.0
 30
0.0
  3
*Model_Space
  1

  0
ENDBLK
  5
21
330
1F
100
AcDbEntity
  8
0
100
AcDbBlockEnd
  0
BLOCK
  5
1C
330
1B
100
AcDbEntity
 67
     1
  8
0
100
AcDbBlockBegin
  2
*Paper_Space
 70
     0
 10
0.0
 20
0.0
 30
0.0
  3
*Paper_Space
  1

  0
ENDBLK
  5
1D
330
1B
100
AcDbEntity
 67
     1
  8
0
100
AcDbBlockEnd
  0
BLOCK
  5
24
330
23
100
AcDbEntity
  8
0
100
AcDbBlockBegin
  2
*Paper_Space0
 70
     0
 10
0.0
 20
0.0
 30
0.0
  3
*Paper_Space0
  1

  0
ENDBLK
  5
25
330
23
100
AcDbEntity
  8
0
100
AcDbBlockEnd
  0
ENDSEC
  0
SECTION
  2
ENTITIES
  0
SPLINE
  5
60
330
1F
100
AcDbEntity
  8
Layer 1
 62
   250
370
     9
100
AcDbSpline
210
0.0
220
0.0
230
1.0
 70
    11
 71
     3
 72
    35
 73
    31
 74
     0
 42
0.0000000001
 43
0.0000000001
 40
0.0
 40
0.0
 40
0.0
 40
0.0
 40
0.1
 40
0.1
 40
0.1
 40
0.2
 40
0.2
 40
0.2
 40
0.3
 40
0.3
 40
0.3
 40
0.4
 40
0.4
 40
0.4
 40
0.5
 40
0.5
 40
0.5
 40
0.6000000000000001
 40
0.6000000000000001
 40
0.6000000000000001
 40
0.7000000000000001
 40
0.7000000000000001
 40
0.7000000000000001
 40
0.8
 40
0.8
 40
0.8
 40
0.9
 40
0.9
 40
0.9
 40
1.0
 40
1.0
 40
1.0
 40
1.0
 10
-96.4143
 20
-590.037
 30
0.0
 10
-96.4143
 20
-590.037
 30
0.0
 10
-126.6669
 20
-590.037
 30
0.0
 10
-126.6669
 20
-590.037
 30
0.0
 10
-128.7138
 20
-585.8697
 30
0.0
 10
-130.0205
 20
-580.1106
 30
0.0
 10
-130.104
 20
-572.2733
 30
0.0
 10
-129.5101
 20
-538.4223
 30
0.0
 10
-171.4369
 20
-572.8485
 30
0.0
 10
-178.4429
 20
-581.783
 30
0.0
 10
-178.4508
 20
-581.7789
 30
0.0
 10
-178.4638
 20
-581.7721
 30
0.0
 10
-178.4665
 20
-581.7584
 30
0.0
 10
-178.4704
 20
-581.7721
 30
0.0
 10
-178.482
 20
-581.7789
 30
0.0
 10
-178.4886
 20
-581.783
 30
0.0
 10
-185.496
 20
-572.8485
 30
0.0
 10
-227.4228
 20
-538.4223
 30
0.0
 10
-226.8275
 20
-572.2733
 30
0.0
 10
-226.911
 20
-580.1106
 30
0.0
 10
-228.2217
 20
-585.8697
 30
0.0
 10
-230.2698
 20
-590.037
 30
0.0
 10
-230.2698
 20
-590.037
 30
0.0
 10
-260.5211
 20
-590.037
 30
0.0
 10
-260.5211
 20
-590.037
 30
0.0
 10
-271.3885
 20
-541.7958
 30
0.0
 10
-192.3676
 20
-491.2182
 30
0.0
 10
-178.4651
 20
-466.8223
 30
0.0
 10
-164.5665
 20
-491.2237
 30
0.0
 10
-85.5469
 20
-541.7958
 30
0.0
 10
-96.4143
 20
-590.037
 30
0.0
  0
SPLINE
  5
61
330
1F
100
AcDbEntity
  8
Layer 1
 62
   250
370
     9
100
AcDbSpline
210
0.0
220
0.0
230
1.0
 70
    11
 71
     3
 72
    44
 73
    40
 74
     0
 42
0.0000000001
 43
0.0000000001
 40
0.0
 40
0.0
 40
0.0
 40
0.0
 40
0.0769230769230769
 40
0.0769230769230769
 40
0.0769230769230769
 40
0.1538461538461539
 40
0.1538461538461539
 40
0.1538461538461539
 40
0.2307692307692308
 40
0.2307692307692308
 40
0.2307692307692308
 40
0.3076923076923077
 40
0.3076923076923077
 40
0.3076923076923077
 40
0.3846153846153846
 40
0.3846153846153846
 40
0.3846153846153846
 40
0.4615384615384616
 40
0.4615384615384616
 40
0.4615384615384616
 40
0.5384615384615385
 40
0.5384615384615385
 40
0.5384615384615385
 40
0.6153846153846154
 40
0.6153846153846154
 40
0.6153846153846154
 40
0.6923076923076923
 40
0.6923076923076923
 40
0.6923076923076923
 40
0.7692307692307693
 40
0.7692307692307693
 40
0.7692307692307693
 40
0.8461538461538463
 40
0.8461538461538463
 40
0.8461538461538463
 40
0.9230769230769231
 40
0.9230769230769231
 40
0.9230769230769231
 40
1.0
 40
1.0
 40
1.0
 40
1.0
 10
-562.8043
 20
-590.037
 30
0.0
 10
-562.8043
 20
-590.037
 30
0.0
 10
-689.8886
 20
-590.037
 30
0.0
 10
-689.8886
 20
-590.037
 30
0.0
 10
-702.1895
 20
-584.558
 30
0.0
 10
-714.0255
 20
-580.0846
 30
0.0
 10
-722.4439
 20
-577.9654
 30
0.0
 10
-722.4714
 20
-577.9586
 30
0.0
 10
-722.4897
 20
-577.9518
 30
0.0
 10
-722.5158
 20
-577.9422
 30
0.0
 10
-722.923
 20
-577.8111
 30
0.0
 10
-723.1463
 20
-577.7372
 30
0.0
 10
-723.1437
 20
-577.7345
 30
0.0
 10
-731.5165
 20
-522.4048
 30
0.0
 10
-760.824
 20
-490.8028
 30
0.0
 10
-760.824
 20
-490.8028
 30
0.0
 10
-818.7418
 20
-446.6388
 30
0.0
 10
-833.4315
 20
-410.2109
 30
0.0
 10
-836.5893
 20
-400.0003
 30
0.0
 10
-836.5893
 20
-400.0003
 30
0.0
 10
-712.2723
 20
-400.0003
 30
0.0
 10
-712.2723
 20
-400.0003
 30
0.0
 10
-681.5719
 20
-455.1852
 30
0.0
 10
-638.0578
 20
-465.0501
 30
0.0
 10
-627.7073
 20
-466.6473
 30
0.0
 10
-627.7073
 20
-466.6473
 30
0.0
 10
-627.4215
 20
-466.9576
 30
0.0
 10
-627.4215
 20
-466.9576
 30
0.0
 10
-627.4215
 20
-466.9576
 30
0.0
 10
-627.069
 20
-467.3373
 30
0.0
 10
-627.069
 20
-467.3373
 30
0.0
 10
-627.069
 20
-467.3373
 30
0.0
 10
-626.411
 20
-468.0451
 30
0.0
 10
-626.411
 20
-468.0451
 30
0.0
 10
-624.4791
 20
-479.2163
 30
0.0
 10
-613.5895
 20
-525.8015
 30
0.0
 10
-562.8043
 20
-556.8228
 30
0.0
 10
-562.8043
 20
-556.8228
 30
0.0
 10
-562.8043
 20
-590.037
 30
0.0
 10
-562.8043
 20
-590.037
 30
0.0
  0
SPLINE
  5
62
330
1F
100
AcDbEntity
  8
Layer 1
 62
   250
370
     9
100
AcDbSpline
210
0.0
220
0.0
230
1.0
 70
    11
 71
     3
 72
    35
 73
    31
 74
     0
 42
0.0000000001
 43
0.0000000001
 40
0.0
 40
0.0
 40
0.0
 40
0.0
 40
0.1
 40
0.1
 40
0.1
 40
0.2
 40
0.2
 40
0.2
 40
0.3
 40
0.3
 40
0.3
 40
0.4
 40
0.4
 40
0.4
 40
0.5
 40
0.5
 40
0.5
 40
0.6000000000000001
 40
0.6000000000000001
 40
0.6000000000000001
 40
0.7000000000000001
 40
0.7000000000000001
 40
0.7000000000000001
 40
0.8
 40
0.8
 40
0.8
 40
0.9
 40
0.9
 40
0.9
 40
1.0
 40
1.0
 40
1.0
 40
1.0
 10
-799.3815
 20
-590.037
 30
0.0
 10
-799.3815
 20
-590.037
 30
0.0
 10
-829.6328
 20
-590.037
 30
0.0
 10
-829.6328
 20
-590.037
 30
0.0
 10
-831.6823
 20
-585.8697
 30
0.0
 10
-832.9864
 20
-580.1106
 30
0.0
 10
-833.0712
 20
-572.2733
 30
0.0
 10
-832.4772
 20
-538.4223
 30
0.0
 10
-874.4041
 20
-572.8485
 30
0.0
 10
-881.4114
 20
-581.783
 30
0.0
 10
-881.4179
 20
-581.7789
 30
0.0
 10
-881.431
 20
-581.7721
 30
0.0
 10
-881.4323
 20
-581.7584
 30
0.0
 10
-881.4375
 20
-581.7721
 30
0.0
 10
-881.4506
 20
-581.7789
 30
0.0
 10
-881.4558
 20
-581.783
 30
0.0
 10
-888.4618
 20
-572.8485
 30
0.0
 10
-930.3912
 20
-538.4223
 30
0.0
 10
-929.7947
 20
-572.2733
 30
0.0
 10
-929.8795
 20
-580.1106
 30
0.0
 10
-931.1889
 20
-585.8697
 30
0.0
 10
-933.2357
 20
-590.037
 30
0.0
 10
-933.2357
 20
-590.037
 30
0.0
 10
-963.4882
 20
-590.037
 30
0.0
 10
-963.4882
 20
-590.037
 30
0.0
 10
-974.3557
 20
-541.7958
 30
0.0
 10
-895.3335
 20
-491.2182
 30
0.0
 10
-881.4323
 20
-466.8223
 30
0.0
 10
-867.5337
 20
-491.2237
 30
0.0
 10
-788.5127
 20
-541.7958
 30
0.0
 10
-799.3815
 20
-590.037
 30
0.0
  0
SPLINE
  5
63
330
1F
100
AcDbEntity
  8
Layer 1
 62
   250
370
     9
100
AcDbSpline
210
0.0
220
0.0
230
1.0
 70
    11
 71
     3
 72
    44
 73
    40
 74
     0
 42
0.0000000001
 43
0.0000000001
 40
0.0
 40
0.0
 40
0.0
 40
0.0
 40
0.0769230769230769
 40
0.0769230769230769
 40
0.0769230769230769
 40
0.1538461538461539
 40
0.1538461538461539
 40
0.1538461538461539
 40
0.2307692307692308
 40
0.2307692307692308
 40
0.2307692307692308
 40
0.3076923076923077
 40
0.3076923076923077
 40
0.3076923076923077
 40
0.3846153846153846
 40
0.3846153846153846
 40
0.3846153846153846
 40
0.4615384615384616
 40
0.4615384615384616
 40
0.4615384615384616
 40
0.5384615384615385
 40
0.5384615384615385
 40
0.5384615384615385
 40
0.6153846153846154
 40
0.6153846153846154
 40
0.6153846153846154
 40
0.6923076923076923
 40
0.6923076923076923
 40
0.6923076923076923
 40
0.7692307692307693
 40
0.7692307692307693
 40
0.7692307692307693
 40
0.8461538461538463
 40
0.8461538461538463
 40
0.8461538461538463
 40
0.9230769230769231
 40
0.9230769230769231
 40
0.9230769230769231
 40
1.0
 40
1.0
 40
1.0
 40
1.0
 10
-1072.9812
 20
-590.037
 30
0.0
 10
-1072.9812
 20
-590.037
 30
0.0
 10
-1200.0603
 20
-590.037
 30
0.0
 10
-1200.0603
 20
-590.037
 30
0.0
 10
-1200.0603
 20
-590.037
 30
0.0
 10
-1200.0603
 20
-556.8228
 30
0.0
 10
-1200.0603
 20
-556.8228
 30
0.0
 10
-1149.2751
 20
-525.8015
 30
0.0
 10
-1138.3842
 20
-479.2163
 30
0.0
 10
-1136.4548
 20
-468.0451
 30
0.0
 10
-1136.4548
 20
-468.0451
 30
0.0
 10
-1135.7956
 20
-467.3373
 30
0.0
 10
-1135.7956
 20
-467.3373
 30
0.0
 10
-1135.7956
 20
-467.3373
 30
0.0
 10
-1135.4444
 20
-466.9576
 30
0.0
 10
-1135.4444
 20
-466.9576
 30
0.0
 10
-1135.4444
 20
-466.9576
 30
0.0
 10
-1135.1572
 20
-466.6473
 30
0.0
 10
-1135.1572
 20
-466.6473
 30
0.0
 10
-1124.8093
 20
-465.0501
 30
0.0
 10
-1081.2913
 20
-455.1852
 30
0.0
 10
-1050.5922
 20
-400.0003
 30
0.0
 10
-1050.5922
 20
-400.0003
 30
0.0
 10
-926.2766
 20
-400.0003
 30
0.0
 10
-926.2766
 20
-400.0003
 30
0.0
 10
-929.4344
 20
-410.2109
 30
0.0
 10
-944.124
 20
-446.6388
 30
0.0
 10
-1002.0419
 20
-490.8028
 30
0.0
 10
-1002.0419
 20
-490.8028
 30
0.0
 10
-1031.3481
 20
-522.4048
 30
0.0
 10
-1039.7222
 20
-577.7345
 30
0.0
 10
-1039.7196
 20
-577.7372
 30
0.0
 10
-1039.9428
 20
-577.8111
 30
0.0
 10
-1040.3501
 20
-577.9422
 30
0.0
 10
-1040.3762
 20
-577.9518
 30
0.0
 10
-1040.3945
 20
-577.9586
 30
0.0
 10
-1040.4219
 20
-577.9654
 30
0.0
 10
-1048.8391
 20
-580.0846
 30
0.0
 10
-1060.6817
 20
-584.558
 30
0.0
 10
-1072.9812
 20
-590.037
 30
0.0
  0
SPLINE
  5
64
330
1F
100
AcDbEntity
  8
Layer 1
 62
   250
370
     9
100
AcDbSpline
210
0.0
220
0.0
230
1.0
 70
    11
 71
     3
 72
    44
 73
    40
 74
     0
 42
0.0000000001
 43
0.0000000001
 40
0.0
 40
0.0
 40
0.0
 40
0.0
 40
0.0769230769230769
 40
0.0769230769230769
 40
0.0769230769230769
 40
0.1538461538461539
 40
0.1538461538461539
 40
0.1538461538461539
 40
0.2307692307692308
 40
0.2307692307692308
 40
0.2307692307692308
 40
0.3076923076923077
 40
0.3076923076923077
 40
0.3076923076923077
 40
0.3846153846153846
 40
0.3846153846153846
 40
0.3846153846153846
 40
0.4615384615384616
 40
0.4615384615384616
 40
0.4615384615384616
 40
0.5384615384615385
 40
0.5384615384615385
 40
0.5384615384615385
 40
0.6153846153846154
 40
0.6153846153846154
 40
0.6153846153846154
 40
0.6923076923076923
 40
0.6923076923076923
 40
0.6923076923076923
 40
0.7692307692307693
 40
0.7692307692307693
 40
0.7692307692307693
 40
0.8461538461538463
 40
0.8461538461538463
 40
0.8461538461538463
 40
0.9230769230769231
 40
0.9230769230769231
 40
0.9230769230769231
 40
1.0
 40
1.0
 40
1.0
 40
1.0
 10
-370.014
 20
-590.037
 30
0.0
 10
-370.014
 20
-590.037
 30
0.0
 10
-497.0931
 20
-590.037
 30
0.0
 10
-497.0931
 20
-590.037
 30
0.0
 10
-497.0931
 20
-590.037
 30
0.0
 10
-497.0931
 20
-556.8228
 30
0.0
 10
-497.0931
 20
-556.8228
 30
0.0
 10
-446.3092
 20
-525.8015
 30
0.0
 10
-435.4184
 20
-479.2163
 30
0.0
 10
-433.4889
 20
-468.0451
 30
0.0
 10
-433.4889
 20
-468.0451
 30
0.0
 10
-432.8297
 20
-467.3373
 30
0.0
 10
-432.8297
 20
-467.3373
 30
0.0
 10
-432.8297
 20
-467.3373
 30
0.0
 10
-432.4786
 20
-466.9576
 30
0.0
 10
-432.4786
 20
-466.9576
 30
0.0
 10
-432.4786
 20
-466.9576
 30
0.0
 10
-432.19
 20
-466.6473
 30
0.0
 10
-432.19
 20
-466.6473
 30
0.0
 10
-421.8422
 20
-465.0501
 30
0.0
 10
-378.3254
 20
-455.1852
 30
0.0
 10
-347.6238
 20
-400.0003
 30
0.0
 10
-347.6238
 20
-400.0003
 30
0.0
 10
-223.3107
 20
-400.0003
 30
0.0
 10
-223.3107
 20
-400.0003
 30
0.0
 10
-226.4672
 20
-410.2109
 30
0.0
 10
-241.1569
 20
-446.6388
 30
0.0
 10
-299.0761
 20
-490.8028
 30
0.0
 10
-299.0761
 20
-490.8028
 30
0.0
 10
-328.3822
 20
-522.4048
 30
0.0
 10
-336.7551
 20
-577.7345
 30
0.0
 10
-336.7524
 20
-577.7372
 30
0.0
 10
-336.9743
 20
-577.8111
 30
0.0
 10
-337.3829
 20
-577.9422
 30
0.0
 10
-337.409
 20
-577.9518
 30
0.0
 10
-337.4273
 20
-577.9586
 30
0.0
 10
-337.4548
 20
-577.9654
 30
0.0
 10
-345.8719
 20
-580.0846
 30
0.0
 10
-357.7132
 20
-584.558
 30
0.0
 10
-370.014
 20
-590.037
 30
0.0
  0
SPLINE
  5
65
330
1F
100
AcDbEntity
  8
Layer 1
 62
   250
370
     9
100
AcDbSpline
210
0.0
220
0.0
230
1.0
 70
    11
 71
     3
 72
    44
 73
    40
 74
     0
 42
0.0000000001
 43
0.0000000001
 40
0.0
 40
0.0
 40
0.0
 40
0.0
 40
0.0769230769230769
 40
0.0769230769230769
 40
0.0769230769230769
 40
0.1538461538461539
 40
0.1538461538461539
 40
0.1538461538461539
 40
0.2307692307692308
 40
0.2307692307692308
 40
0.2307692307692308
 40
0.3076923076923077
 40
0.3076923076923077
 40
0.3076923076923077
 40
0.3846153846153846
 40
0.3846153846153846
 40
0.3846153846153846
 40
0.4615384615384616
 40
0.4615384615384616
 40
0.4615384615384616
 40
0.5384615384615385
 40
0.5384615384615385
 40
0.5384615384615385
 40
0.6153846153846154
 40
0.6153846153846154
 40
0.6153846153846154
 40
0.6923076923076923
 40
0.6923076923076923
 40
0.6923076923076923
 40
0.7692307692307693
 40
0.7692307692307693
 40
0.7692307692307693
 40
0.8461538461538463
 40
0.8461538461538463
 40
0.8461538461538463
 40
0.9230769230769231
 40
0.9230769230769231
 40
0.9230769230769231
 40
1.0
 40
1.0
 40
1.0
 40
1.0
 10
-562.8043
 20
589.963
 30
0.0
 10
-562.8043
 20
589.963
 30
0.0
 10
-562.8043
 20
559.3175
 30
0.0
 10
-562.8043
 20
559.3175
 30
0.0
 10
-613.5895
 20
528.2948
 30
0.0
 10
-624.4791
 20
481.7096
 30
0.0
 10
-626.411
 20
470.5384
 30
0.0
 10
-626.411
 20
470.5384
 30
0.0
 10
-627.069
 20
469.8307
 30
0.0
 10
-627.069
 20
469.8307
 30
0.0
 10
-627.069
 20
469.8307
 30
0.0
 10
-627.4215
 20
469.4509
 30
0.0
 10
-627.4215
 20
469.4509
 30
0.0
 10
-627.4215
 20
469.4509
 30
0.0
 10
-627.7073
 20
469.142
 30
0.0
 10
-627.7073
 20
469.142
 30
0.0
 10
-638.0578
 20
467.5434
 30
0.0
 10
-681.5719
 20
457.6772
 30
0.0
 10
-712.2723
 20
402.4922
 30
0.0
 10
-712.2723
 20
402.4922
 30
0.0
 10
-836.5893
 20
402.4922
 30
0.0
 10
-836.5893
 20
402.4922
 30
0.0
 10
-833.4315
 20
412.7042
 30
0.0
 10
-818.7418
 20
449.1335
 30
0.0
 10
-760.824
 20
493.2975
 30
0.0
 10
-760.824
 20
493.2975
 30
0.0
 10
-731.5165
 20
524.8968
 30
0.0
 10
-723.1437
 20
580.2292
 30
0.0
 10
-723.1463
 20
580.2319
 30
0.0
 10
-722.923
 20
580.3044
 30
0.0
 10
-722.5158
 20
580.4369
 30
0.0
 10
-722.4897
 20
580.4451
 30
0.0
 10
-722.4714
 20
580.4519
 30
0.0
 10
-722.4439
 20
580.4601
 30
0.0
 10
-715.3831
 20
582.2364
 30
0.0
 10
-705.9111
 20
585.6686
 30
0.0
 10
-695.7825
 20
589.963
 30
0.0
 10
-695.7825
 20
589.963
 30
0.0
 10
-562.8043
 20
589.963
 30
0.0
 10
-562.8043
 20
589.963
 30
0.0
  0
SPLINE
  5
66
330
1F
100
AcDbEntity
  8
Layer 1
 62
   250
370
     9
100
AcDbSpline
210
0.0
220
0.0
230
1.0
 70
    11
 71
     3
 72
    44
 73
    40
 74
     0
 42
0.0000000001
 43
0.0000000001
 40
0.0
 40
0.0
 40
0.0
 40
0.0
 40
0.0769230769230769
 40
0.0769230769230769
 40
0.0769230769230769
 40
0.1538461538461539
 40
0.1538461538461539
 40
0.1538461538461539
 40
0.2307692307692308
 40
0.2307692307692308
 40
0.2307692307692308
 40
0.3076923076923077
 40
0.3076923076923077
 40
0.3076923076923077
 40
0.3846153846153846
 40
0.3846153846153846
 40
0.3846153846153846
 40
0.4615384615384616
 40
0.4615384615384616
 40
0.4615384615384616
 40
0.5384615384615385
 40
0.5384615384615385
 40
0.5384615384615385
 40
0.6153846153846154
 40
0.6153846153846154
 40
0.6153846153846154
 40
0.6923076923076923
 40
0.6923076923076923
 40
0.6923076923076923
 40
0.7692307692307693
 40
0.7692307692307693
 40
0.7692307692307693
 40
0.8461538461538463
 40
0.8461538461538463
 40
0.8461538461538463
 40
0.9230769230769231
 40
0.9230769230769231
 40
0.9230769230769231
 40
1.0
 40
1.0
 40
1.0
 40
1.0
 10
-1135.4444
 20
469.4509
 30
0.0
 10
-1135.4444
 20
469.4509
 30
0.0
 10
-1135.1572
 20
469.142
 30
0.0
 10
-1135.1572
 20
469.142
 30
0.0
 10
-1124.8093
 20
467.5434
 30
0.0
 10
-1081.2913
 20
457.6772
 30
0.0
 10
-1050.5922
 20
402.4922
 30
0.0
 10
-1050.5922
 20
402.4922
 30
0.0
 10
-926.2766
 20
402.4922
 30
0.0
 10
-926.2766
 20
402.4922
 30
0.0
 10
-929.4344
 20
412.7042
 30
0.0
 10
-944.124
 20
449.1335
 30
0.0
 10
-1002.0419
 20
493.2975
 30
0.0
 10
-1002.0419
 20
493.2975
 30
0.0
 10
-1031.3481
 20
524.8968
 30
0.0
 10
-1039.7222
 20
580.2292
 30
0.0
 10
-1039.7196
 20
580.2319
 30
0.0
 10
-1039.9428
 20
580.3044
 30
0.0
 10
-1040.3501
 20
580.4369
 30
0.0
 10
-1040.3762
 20
580.4451
 30
0.0
 10
-1040.3945
 20
580.4519
 30
0.0
 10
-1040.4219
 20
580.4601
 30
0.0
 10
-1047.4815
 20
582.2364
 30
0.0
 10
-1056.9521
 20
585.6686
 30
0.0
 10
-1067.0834
 20
589.963
 30
0.0
 10
-1067.0834
 20
589.963
 30
0.0
 10
-1200.0603
 20
589.963
 30
0.0
 10
-1200.0603
 20
589.963
 30
0.0
 10
-1200.0603
 20
589.963
 30
0.0
 10
-1200.0603
 20
559.3161
 30
0.0
 10
-1200.0603
 20
559.3161
 30
0.0
 10
-1149.2751
 20
528.2948
 30
0.0
 10
-1138.3842
 20
481.7096
 30
0.0
 10
-1136.4548
 20
470.5384
 30
0.0
 10
-1136.4548
 20
470.5384
 30
0.0
 10
-1135.7956
 20
469.8307
 30
0.0
 10
-1135.7956
 20
469.8307
 30
0.0
 10
-1135.7956
 20
469.8307
 30
0.0
 10
-1135.4444
 20
469.4509
 30
0.0
 10
-1135.4444
 20
469.4509
 30
0.0
  0
SPLINE
  5
67
330
1F
100
AcDbEntity
  8
Layer 1
 62
   250
370
     9
100
AcDbSpline
210
0.0
220
0.0
230
1.0
 70
    11
 71
     3
 72
    35
 73
    31
 74
     0
 42
0.0000000001
 43
0.0000000001
 40
0.0
 40
0.0
 40
0.0
 40
0.0
 40
0.1
 40
0.1
 40
0.1
 40
0.2
 40
0.2
 40
0.2
 40
0.3
 40
0.3
 40
0.3
 40
0.4
 40
0.4
 40
0.4
 40
0.5
 40
0.5
 40
0.5
 40
0.6000000000000001
 40
0.6000000000000001
 40
0.6000000000000001
 40
0.7000000000000001
 40
0.7000000000000001
 40
0.7000000000000001
 40
0.8
 40
0.8
 40
0.8
 40
0.9
 40
0.9
 40
0.9
 40
1.0
 40
1.0
 40
1.0
 40
1.0
 10
-932.1457
 20
589.963
 30
0.0
 10
-930.7319
 20
586.0853
 30
0.0
 10
-929.8625
 20
581.1064
 30
0.0
 10
-929.7947
 20
574.7666
 30
0.0
 10
-930.3912
 20
540.9156
 30
0.0
 10
-888.4618
 20
575.3418
 30
0.0
 10
-881.4558
 20
584.2763
 30
0.0
 10
-881.4506
 20
584.2722
 30
0.0
 10
-881.4375
 20
584.264
 30
0.0
 10
-881.4323
 20
584.2517
 30
0.0
 10
-881.431
 20
584.264
 30
0.0
 10
-881.4179
 20
584.2722
 30
0.0
 10
-881.4114
 20
584.2763
 30
0.0
 10
-874.4041
 20
575.3418
 30
0.0
 10
-832.4772
 20
540.9156
 30
0.0
 10
-833.0712
 20
574.7666
 30
0.0
 10
-833.0034
 20
581.1064
 30
0.0
 10
-832.1352
 20
586.0853
 30
0.0
 10
-830.7202
 20
589.963
 30
0.0
 10
-830.7202
 20
589.963
 30
0.0
 10
-798.8959
 20
589.963
 30
0.0
 10
-798.8959
 20
589.963
 30
0.0
 10
-791.2998
 20
542.5034
 30
0.0
 10
-867.7805
 20
493.2866
 30
0.0
 10
-881.4323
 20
469.3156
 30
0.0
 10
-895.0868
 20
493.2811
 30
0.0
 10
-971.5661
 20
542.5034
 30
0.0
 10
-963.9713
 20
589.963
 30
0.0
 10
-963.9713
 20
589.963
 30
0.0
 10
-932.1457
 20
589.963
 30
0.0
 10
-932.1457
 20
589.963
 30
0.0
  0
SPLINE
  5
68
330
1F
100
AcDbEntity
  8
Layer 1
 62
   250
370
     9
100
AcDbSpline
210
0.0
220
0.0
230
1.0
 70
    11
 71
     3
 72
    20
 73
    16
 74
     0
 42
0.0000000001
 43
0.0000000001
 40
0.0
 40
0.0
 40
0.0
 40
0.0
 40
0.2
 40
0.2
 40
0.2
 40
0.4
 40
0.4
 40
0.4
 40
0.6000000000000001
 40
0.6000000000000001
 40
0.6000000000000001
 40
0.8
 40
0.8
 40
0.8
 40
1.0
 40
1.0
 40
1.0
 40
1.0
 10
1199.9397
 20
-561.8686
 30
0.0
 10
1188.007
 20
-555.5575
 30
0.0
 10
1176.5796
 20
-554.4864
 30
0.0
 10
1176.8928
 20
-572.2733
 30
0.0
 10
1176.8093
 20
-580.112
 30
0.0
 10
1175.4974
 20
-585.8697
 30
0.0
 10
1173.4505
 20
-590.037
 30
0.0
 10
1173.4505
 20
-590.037
 30
0.0
 10
1143.2006
 20
-590.037
 30
0.0
 10
1143.2006
 20
-590.037
 30
0.0
 10
1135.5365
 20
-556.0207
 30
0.0
 10
1172.5615
 20
-520.8486
 30
0.0
 10
1199.9397
 20
-494.5083
 30
0.0
 10
1199.9397
 20
-494.5083
 30
0.0
 10
1199.9397
 20
-561.8686
 30
0.0
 10
1199.9397
 20
-561.8686
 30
0.0
  0
SPLINE
  5
69
330
1F
100
AcDbEntity
  8
Layer 1
 62
   250
370
     9
100
AcDbSpline
210
0.0
220
0.0
230
1.0
 70
    11
 71
     3
 72
    44
 73
    40
 74
     0
 42
0.0000000001
 43
0.0000000001
 40
0.0
 40
0.0
 40
0.0
 40
0.0
 40
0.0769230769230769
 40
0.0769230769230769
 40
0.0769230769230769
 40
0.1538461538461539
 40
0.1538461538461539
 40
0.1538461538461539
 40
0.2307692307692308
 40
0.2307692307692308
 40
0.2307692307692308
 40
0.3076923076923077
 40
0.3076923076923077
 40
0.3076923076923077
 40
0.3846153846153846
 40
0.3846153846153846
 40
0.3846153846153846
 40
0.4615384615384616
 40
0.4615384615384616
 40
0.4615384615384616
 40
0.5384615384615385
 40
0.5384615384615385
 40
0.5384615384615385
 40
0.6153846153846154
 40
0.6153846153846154
 40
0.6153846153846154
 40
0.6923076923076923
 40
0.6923076923076923
 40
0.6923076923076923
 40
0.7692307692307693
 40
0.7692307692307693
 40
0.7692307692307693
 40
0.8461538461538463
 40
0.8461538461538463
 40
0.8461538461538463
 40
0.9230769230769231
 40
0.9230769230769231
 40
0.9230769230769231
 40
1.0
 40
1.0
 40
1.0
 40
1.0
 10
971.2457
 20
-466.9576
 30
0.0
 10
971.2457
 20
-466.9576
 30
0.0
 10
971.5316
 20
-466.6473
 30
0.0
 10
971.5316
 20
-466.6473
 30
0.0
 10
981.8808
 20
-465.0501
 30
0.0
 10
1025.3949
 20
-455.1852
 30
0.0
 10
1056.0953
 20
-400.0003
 30
0.0
 10
1056.0953
 20
-400.0003
 30
0.0
 10
1180.4123
 20
-400.0003
 30
0.0
 10
1180.4123
 20
-400.0003
 30
0.0
 10
1177.2545
 20
-410.2109
 30
0.0
 10
1162.5649
 20
-446.6388
 30
0.0
 10
1104.6456
 20
-490.8028
 30
0.0
 10
1104.6456
 20
-490.8028
 30
0.0
 10
1075.3382
 20
-522.4048
 30
0.0
 10
1066.9667
 20
-577.7345
 30
0.0
 10
1066.9692
 20
-577.7372
 30
0.0
 10
1066.7447
 20
-577.8111
 30
0.0
 10
1066.3374
 20
-577.9422
 30
0.0
 10
1066.3113
 20
-577.9518
 30
0.0
 10
1066.293
 20
-577.9586
 30
0.0
 10
1066.2669
 20
-577.9654
 30
0.0
 10
1057.8497
 20
-580.0846
 30
0.0
 10
1046.0045
 20
-584.5567
 30
0.0
 10
1033.7025
 20
-590.037
 30
0.0
 10
1033.7025
 20
-590.037
 30
0.0
 10
906.6285
 20
-590.037
 30
0.0
 10
906.6285
 20
-590.037
 30
0.0
 10
906.6285
 20
-590.037
 30
0.0
 10
906.6285
 20
-556.8228
 30
0.0
 10
906.6285
 20
-556.8228
 30
0.0
 10
957.4124
 20
-525.8015
 30
0.0
 10
968.3021
 20
-479.2163
 30
0.0
 10
970.2341
 20
-468.0451
 30
0.0
 10
970.2341
 20
-468.0451
 30
0.0
 10
970.8919
 20
-467.3373
 30
0.0
 10
970.8919
 20
-467.3373
 30
0.0
 10
970.8919
 20
-467.3373
 30
0.0
 10
971.2457
 20
-466.9576
 30
0.0
 10
971.2457
 20
-466.9576
 30
0.0
  0
SPLINE
  5
6A
330
1F
100
AcDbEntity
  8
Layer 1
 62
   250
370
     9
100
AcDbSpline
210
0.0
220
0.0
230
1.0
 70
    11
 71
     3
 72
    44
 73
    40
 74
     0
 42
0.0000000001
 43
0.0000000001
 40
0.0
 40
0.0
 40
0.0
 40
0.0
 40
0.0769230769230769
 40
0.0769230769230769
 40
0.0769230769230769
 40
0.1538461538461539
 40
0.1538461538461539
 40
0.1538461538461539
 40
0.2307692307692308
 40
0.2307692307692308
 40
0.2307692307692308
 40
0.3076923076923077
 40
0.3076923076923077
 40
0.3076923076923077
 40
0.3846153846153846
 40
0.3846153846153846
 40
0.3846153846153846
 40
0.4615384615384616
 40
0.4615384615384616
 40
0.4615384615384616
 40
0.5384615384615385
 40
0.5384615384615385
 40
0.5384615384615385
 40
0.6153846153846154
 40
0.6153846153846154
 40
0.6153846153846154
 40
0.6923076923076923
 40
0.6923076923076923
 40
0.6923076923076923
 40
0.7692307692307693
 40
0.7692307692307693
 40
0.7692307692307693
 40
0.8461538461538463
 40
0.8461538461538463
 40
0.8461538461538463
 40
0.9230769230769231
 40
0.9230769230769231
 40
0.9230769230769231
 40
1.0
 40
1.0
 40
1.0
 40
1.0
 10
971.2457
 20
-268.373
 30
0.0
 10
971.2457
 20
-268.373
 30
0.0
 10
971.5316
 20
-268.6818
 30
0.0
 10
971.5316
 20
-268.6818
 30
0.0
 10
981.8808
 20
-270.2804
 30
0.0
 10
1025.3949
 20
-280.1453
 30
0.0
 10
1056.0953
 20
-335.3303
 30
0.0
 10
1056.0953
 20
-335.3303
 30
0.0
 10
1180.4123
 20
-335.3303
 30
0.0
 10
1180.4123
 20
-335.3303
 30
0.0
 10
1177.2545
 20
-325.1182
 30
0.0
 10
1162.5649
 20
-288.6904
 30
0.0
 10
1104.6456
 20
-244.5264
 30
0.0
 10
1104.6456
 20
-244.5264
 30
0.0
 10
1075.3382
 20
-212.9258
 30
0.0
 10
1066.9667
 20
-157.5933
 30
0.0
 10
1066.9692
 20
-157.5905
 30
0.0
 10
1066.7447
 20
-157.5181
 30
0.0
 10
1066.3374
 20
-157.3869
 30
0.0
 10
1066.3113
 20
-157.3788
 30
0.0
 10
1066.293
 20
-157.3719
 30
0.0
 10
1066.2669
 20
-157.3637
 30
0.0
 10
1040.937
 20
-150.987
 30
0.0
 10
984.6104
 20
-123.2983
 30
0.0
 10
977.9881
 20
-110.9602
 30
0.0
 10
957.4202
 20
-73.1387
 30
0.0
 10
924.7905
 20
-52.1422
 30
0.0
 10
906.6285
 20
-44.3158
 30
0.0
 10
906.6285
 20
-44.3158
 30
0.0
 10
906.6285
 20
-178.5077
 30
0.0
 10
906.6285
 20
-178.5077
 30
0.0
 10
957.4124
 20
-209.5277
 30
0.0
 10
968.3021
 20
-256.1129
 30
0.0
 10
970.2341
 20
-267.284
 30
0.0
 10
970.2341
 20
-267.284
 30
0.0
 10
970.8919
 20
-267.9932
 30
0.0
 10
970.8919
 20
-267.9932
 30
0.0
 10
970.8919
 20
-267.9932
 30
0.0
 10
971.2457
 20
-268.373
 30
0.0
 10
971.2457
 20
-268.373
 30
0.0
  0
SPLINE
  5
6B
330
1F
100
AcDbEntity
  8
Layer 1
 62
   250
370
     9
100
AcDbSpline
210
0.0
220
0.0
230
1.0
 70
    11
 71
     3
 72
    44
 73
    40
 74
     0
 42
0.0000000001
 43
0.0000000001
 40
0.0
 40
0.0
 40
0.0
 40
0.0
 40
0.0769230769230769
 40
0.0769230769230769
 40
0.0769230769230769
 40
0.1538461538461539
 40
0.1538461538461539
 40
0.1538461538461539
 40
0.2307692307692308
 40
0.2307692307692308
 40
0.2307692307692308
 40
0.3076923076923077
 40
0.3076923076923077
 40
0.3076923076923077
 40
0.3846153846153846
 40
0.3846153846153846
 40
0.3846153846153846
 40
0.4615384615384616
 40
0.4615384615384616
 40
0.4615384615384616
 40
0.5384615384615385
 40
0.5384615384615385
 40
0.5384615384615385
 40
0.6153846153846154
 40
0.6153846153846154
 40
0.6153846153846154
 40
0.6923076923076923
 40
0.6923076923076923
 40
0.6923076923076923
 40
0.7692307692307693
 40
0.7692307692307693
 40
0.7692307692307693
 40
0.8461538461538463
 40
0.8461538461538463
 40
0.8461538461538463
 40
0.9230769230769231
 40
0.9230769230769231
 40
0.9230769230769231
 40
1.0
 40
1.0
 40
1.0
 40
1.0
 10
776.3002
 20
-466.9576
 30
0.0
 10
776.3002
 20
-466.9576
 30
0.0
 10
776.0143
 20
-466.6473
 30
0.0
 10
776.0143
 20
-466.6473
 30
0.0
 10
765.6652
 20
-465.0501
 30
0.0
 10
722.1484
 20
-455.1852
 30
0.0
 10
691.4481
 20
-400.0003
 30
0.0
 10
691.4481
 20
-400.0003
 30
0.0
 10
567.1324
 20
-400.0003
 30
0.0
 10
567.1324
 20
-400.0003
 30
0.0
 10
570.2901
 20
-410.2109
 30
0.0
 10
584.9798
 20
-446.6388
 30
0.0
 10
642.899
 20
-490.8028
 30
0.0
 10
642.899
 20
-490.8028
 30
0.0
 10
672.2052
 20
-522.4048
 30
0.0
 10
680.578
 20
-577.7345
 30
0.0
 10
680.5754
 20
-577.7372
 30
0.0
 10
680.7986
 20
-577.8111
 30
0.0
 10
681.206
 20
-577.9422
 30
0.0
 10
681.2308
 20
-577.9518
 30
0.0
 10
681.2516
 20
-577.9586
 30
0.0
 10
681.2777
 20
-577.9654
 30
0.0
 10
689.6949
 20
-580.0846
 30
0.0
 10
701.5336
 20
-584.5567
 30
0.0
 10
713.8357
 20
-590.037
 30
0.0
 10
713.8357
 20
-590.037
 30
0.0
 10
840.9187
 20
-590.037
 30
0.0
 10
840.9187
 20
-590.037
 30
0.0
 10
840.9187
 20
-590.037
 30
0.0
 10
840.9187
 20
-556.8228
 30
0.0
 10
840.9187
 20
-556.8228
 30
0.0
 10
790.1309
 20
-525.8015
 30
0.0
 10
779.24
 20
-479.2163
 30
0.0
 10
777.3106
 20
-468.0451
 30
0.0
 10
777.3106
 20
-468.0451
 30
0.0
 10
776.6527
 20
-467.3373
 30
0.0
 10
776.6527
 20
-467.3373
 30
0.0
 10
776.6527
 20
-467.3373
 30
0.0
 10
776.3002
 20
-466.9576
 30
0.0
 10
776.3002
 20
-466.9576
 30
0.0
  0
SPLINE
  5
6C
330
1F
100
AcDbEntity
  8
Layer 1
 62
   250
370
     9
100
AcDbSpline
210
0.0
220
0.0
230
1.0
 70
    11
 71
     3
 72
    44
 73
    40
 74
     0
 42
0.0000000001
 43
0.0000000001
 40
0.0
 40
0.0
 40
0.0
 40
0.0
 40
0.0769230769230769
 40
0.0769230769230769
 40
0.0769230769230769
 40
0.1538461538461539
 40
0.1538461538461539
 40
0.1538461538461539
 40
0.2307692307692308
 40
0.2307692307692308
 40
0.2307692307692308
 40
0.3076923076923077
 40
0.3076923076923077
 40
0.3076923076923077
 40
0.3846153846153846
 40
0.3846153846153846
 40
0.3846153846153846
 40
0.4615384615384616
 40
0.4615384615384616
 40
0.4615384615384616
 40
0.5384615384615385
 40
0.5384615384615385
 40
0.5384615384615385
 40
0.6153846153846154
 40
0.6153846153846154
 40
0.6153846153846154
 40
0.6923076923076923
 40
0.6923076923076923
 40
0.6923076923076923
 40
0.7692307692307693
 40
0.7692307692307693
 40
0.7692307692307693
 40
0.8461538461538463
 40
0.8461538461538463
 40
0.8461538461538463
 40
0.9230769230769231
 40
0.9230769230769231
 40
0.9230769230769231
 40
1.0
 40
1.0
 40
1.0
 40
1.0
 10
776.3002
 20
-268.373
 30
0.0
 10
776.3002
 20
-268.373
 30
0.0
 10
776.0143
 20
-268.6818
 30
0.0
 10
776.0143
 20
-268.6818
 30
0.0
 10
765.6652
 20
-270.2804
 30
0.0
 10
722.1484
 20
-280.1453
 30
0.0
 10
691.4481
 20
-335.3303
 30
0.0
 10
691.4481
 20
-335.3303
 30
0.0
 10
567.1324
 20
-335.3303
 30
0.0
 10
567.1324
 20
-335.3303
 30
0.0
 10
570.2901
 20
-325.1182
 30
0.0
 10
584.9798
 20
-288.6904
 30
0.0
 10
642.899
 20
-244.5264
 30
0.0
 10
642.899
 20
-244.5264
 30
0.0
 10
672.2052
 20
-212.9258
 30
0.0
 10
680.578
 20
-157.5933
 30
0.0
 10
680.5754
 20
-157.5905
 30
0.0
 10
680.7986
 20
-157.5181
 30
0.0
 10
681.206
 20
-157.3869
 30
0.0
 10
681.2308
 20
-157.3788
 30
0.0
 10
681.2516
 20
-157.3719
 30
0.0
 10
681.2777
 20
-157.3637
 30
0.0
 10
706.6063
 20
-150.987
 30
0.0
 10
762.9343
 20
-123.2983
 30
0.0
 10
769.5552
 20
-110.9602
 30
0.0
 10
790.1244
 20
-73.1373
 30
0.0
 10
822.7541
 20
-52.1408
 30
0.0
 10
840.9187
 20
-44.3158
 30
0.0
 10
840.9187
 20
-44.3158
 30
0.0
 10
840.9187
 20
-178.5064
 30
0.0
 10
840.9187
 20
-178.5064
 30
0.0
 10
790.1309
 20
-209.5277
 30
0.0
 10
779.24
 20
-256.1129
 30
0.0
 10
777.3106
 20
-267.284
 30
0.0
 10
777.3106
 20
-267.284
 30
0.0
 10
776.6527
 20
-267.9932
 30
0.0
 10
776.6527
 20
-267.9932
 30
0.0
 10
776.6527
 20
-267.9932
 30
0.0
 10
776.3002
 20
-268.373
 30
0.0
 10
776.3002
 20
-268.373
 30
0.0
  0
SPLINE
  5
6D
330
1F
100
AcDbEntity
  8
Layer 1
 62
   250
370
     9
100
AcDbSpline
210
0.0
220
0.0
230
1.0
 70
    11
 71
     3
 72
    20
 73
    16
 74
     0
 42
0.0000000001
 43
0.0000000001
 40
0.0
 40
0.0
 40
0.0
 40
0.0
 40
0.2
 40
0.2
 40
0.2
 40
0.4
 40
0.4
 40
0.4
 40
0.6000000000000001
 40
0.6000000000000001
 40
0.6000000000000001
 40
0.8
 40
0.8
 40
0.8
 40
1.0
 40
1.0
 40
1.0
 40
1.0
 10
1199.9397
 20
564.3551
 30
0.0
 10
1188.007
 20
558.044
 30
0.0
 10
1176.5796
 20
556.9797
 30
0.0
 10
1176.8928
 20
574.7666
 30
0.0
 10
1176.825
 20
581.1064
 30
0.0
 10
1175.953
 20
586.0853
 30
0.0
 10
1174.5392
 20
589.963
 30
0.0
 10
1174.5392
 20
589.963
 30
0.0
 10
1142.7136
 20
589.963
 30
0.0
 10
1142.7136
 20
589.963
 30
0.0
 10
1137.3993
 20
556.7515
 30
0.0
 10
1173.2508
 20
522.6751
 30
0.0
 10
1199.9397
 20
496.9962
 30
0.0
 10
1199.9397
 20
496.9962
 30
0.0
 10
1199.9397
 20
564.3551
 30
0.0
 10
1199.9397
 20
564.3551
 30
0.0
  0
SPLINE
  5
6E
330
1F
100
AcDbEntity
  8
Layer 1
 62
   250
370
     9
100
AcDbSpline
210
0.0
220
0.0
230
1.0
 70
    11
 71
     3
 72
    44
 73
    40
 74
     0
 42
0.0000000001
 43
0.0000000001
 40
0.0
 40
0.0
 40
0.0
 40
0.0
 40
0.0769230769230769
 40
0.0769230769230769
 40
0.0769230769230769
 40
0.1538461538461539
 40
0.1538461538461539
 40
0.1538461538461539
 40
0.2307692307692308
 40
0.2307692307692308
 40
0.2307692307692308
 40
0.3076923076923077
 40
0.3076923076923077
 40
0.3076923076923077
 40
0.3846153846153846
 40
0.3846153846153846
 40
0.3846153846153846
 40
0.4615384615384616
 40
0.4615384615384616
 40
0.4615384615384616
 40
0.5384615384615385
 40
0.5384615384615385
 40
0.5384615384615385
 40
0.6153846153846154
 40
0.6153846153846154
 40
0.6153846153846154
 40
0.6923076923076923
 40
0.6923076923076923
 40
0.6923076923076923
 40
0.7692307692307693
 40
0.7692307692307693
 40
0.7692307692307693
 40
0.8461538461538463
 40
0.8461538461538463
 40
0.8461538461538463
 40
0.9230769230769231
 40
0.9230769230769231
 40
0.9230769230769231
 40
1.0
 40
1.0
 40
1.0
 40
1.0
 10
971.2457
 20
469.4509
 30
0.0
 10
971.2457
 20
469.4509
 30
0.0
 10
971.5316
 20
469.142
 30
0.0
 10
971.5316
 20
469.142
 30
0.0
 10
981.8808
 20
467.5434
 30
0.0
 10
1025.3949
 20
457.6772
 30
0.0
 10
1056.0953
 20
402.4922
 30
0.0
 10
1056.0953
 20
402.4922
 30
0.0
 10
1180.4123
 20
402.4922
 30
0.0
 10
1180.4123
 20
402.4922
 30
0.0
 10
1177.2545
 20
412.7042
 30
0.0
 10
1162.5649
 20
449.1335
 30
0.0
 10
1104.6456
 20
493.2975
 30
0.0
 10
1104.6456
 20
493.2975
 30
0.0
 10
1075.3382
 20
524.8968
 30
0.0
 10
1066.9667
 20
580.2292
 30
0.0
 10
1066.9692
 20
580.2319
 30
0.0
 10
1066.7447
 20
580.3044
 30
0.0
 10
1066.3374
 20
580.4369
 30
0.0
 10
1066.3113
 20
580.4451
 30
0.0
 10
1066.293
 20
580.4519
 30
0.0
 10
1066.2669
 20
580.4601
 30
0.0
 10
1059.206
 20
582.2364
 30
0.0
 10
1049.7315
 20
585.6686
 30
0.0
 10
1039.6003
 20
589.963
 30
0.0
 10
1039.6003
 20
589.963
 30
0.0
 10
906.6285
 20
589.963
 30
0.0
 10
906.6285
 20
589.963
 30
0.0
 10
906.6285
 20
589.963
 30
0.0
 10
906.6285
 20
559.3161
 30
0.0
 10
906.6285
 20
559.3161
 30
0.0
 10
957.4124
 20
528.2948
 30
0.0
 10
968.3021
 20
481.7096
 30
0.0
 10
970.2341
 20
470.5384
 30
0.0
 10
970.2341
 20
470.5384
 30
0.0
 10
970.8919
 20
469.8307
 30
0.0
 10
970.8919
 20
469.8307
 30
0.0
 10
970.8919
 20
469.8307
 30
0.0
 10
971.2457
 20
469.4509
 30
0.0
 10
971.2457
 20
469.4509
 30
0.0
  0
SPLINE
  5
6F
330
1F
100
AcDbEntity
  8
Layer 1
 62
   250
370
     9
100
AcDbSpline
210
0.0
220
0.0
230
1.0
 70
    11
 71
     3
 72
    44
 73
    40
 74
     0
 42
0.0000000001
 43
0.0000000001
 40
0.0
 40
0.0
 40
0.0
 40
0.0
 40
0.0769230769230769
 40
0.0769230769230769
 40
0.0769230769230769
 40
0.1538461538461539
 40
0.1538461538461539
 40
0.1538461538461539
 40
0.2307692307692308
 40
0.2307692307692308
 40
0.2307692307692308
 40
0.3076923076923077
 40
0.3076923076923077
 40
0.3076923076923077
 40
0.3846153846153846
 40
0.3846153846153846
 40
0.3846153846153846
 40
0.4615384615384616
 40
0.4615384615384616
 40
0.4615384615384616
 40
0.5384615384615385
 40
0.5384615384615385
 40
0.5384615384615385
 40
0.6153846153846154
 40
0.6153846153846154
 40
0.6153846153846154
 40
0.6923076923076923
 40
0.6923076923076923
 40
0.6923076923076923
 40
0.7692307692307693
 40
0.7692307692307693
 40
0.7692307692307693
 40
0.8461538461538463
 40
0.8461538461538463
 40
0.8461538461538463
 40
0.9230769230769231
 40
0.9230769230769231
 40
0.9230769230769231
 40
1.0
 40
1.0
 40
1.0
 40
1.0
 10
971.2457
 20
267.8904
 30
0.0
 10
971.2457
 20
267.8904
 30
0.0
 10
971.5316
 20
268.1978
 30
0.0
 10
971.5316
 20
268.1978
 30
0.0
 10
981.8808
 20
269.7965
 30
0.0
 10
1025.3949
 20
279.6628
 30
0.0
 10
1056.0953
 20
334.849
 30
0.0
 10
1056.0953
 20
334.849
 30
0.0
 10
1180.4135
 20
334.849
 30
0.0
 10
1180.4135
 20
334.849
 30
0.0
 10
1177.2558
 20
324.6371
 30
0.0
 10
1162.5674
 20
288.2092
 30
0.0
 10
1104.6456
 20
244.0437
 30
0.0
 10
1104.6456
 20
244.0437
 30
0.0
 10
1075.3382
 20
212.4432
 30
0.0
 10
1066.9667
 20
157.1093
 30
0.0
 10
1066.9692
 20
157.1079
 30
0.0
 10
1066.7447
 20
157.0355
 30
0.0
 10
1066.3374
 20
156.903
 30
0.0
 10
1066.3113
 20
156.8962
 30
0.0
 10
1066.293
 20
156.8893
 30
0.0
 10
1066.2669
 20
156.8811
 30
0.0
 10
1040.937
 20
150.5045
 30
0.0
 10
984.6104
 20
122.8156
 30
0.0
 10
977.9881
 20
110.4777
 30
0.0
 10
957.4202
 20
72.6561
 30
0.0
 10
924.7905
 20
51.6597
 30
0.0
 10
906.6285
 20
43.8319
 30
0.0
 10
906.6285
 20
43.8319
 30
0.0
 10
906.6285
 20
178.0252
 30
0.0
 10
906.6285
 20
178.0252
 30
0.0
 10
957.4124
 20
209.0451
 30
0.0
 10
968.3021
 20
255.6303
 30
0.0
 10
970.2341
 20
266.8001
 30
0.0
 10
970.2341
 20
266.8001
 30
0.0
 10
970.8919
 20
267.5106
 30
0.0
 10
970.8919
 20
267.5106
 30
0.0
 10
970.8919
 20
267.5106
 30
0.0
 10
971.2457
 20
267.8904
 30
0.0
 10
971.2457
 20
267.8904
 30
0.0
  0
SPLINE
  5
70
330
1F
100
AcDbEntity
  8
Layer 1
 62
   250
370
     9
100
AcDbSpline
210
0.0
220
0.0
230
1.0
 70
    11
 71
     3
 72
    44
 73
    40
 74
     0
 42
0.0000000001
 43
0.0000000001
 40
0.0
 40
0.0
 40
0.0
 40
0.0
 40
0.0769230769230769
 40
0.0769230769230769
 40
0.0769230769230769
 40
0.1538461538461539
 40
0.1538461538461539
 40
0.1538461538461539
 40
0.2307692307692308
 40
0.2307692307692308
 40
0.2307692307692308
 40
0.3076923076923077
 40
0.3076923076923077
 40
0.3076923076923077
 40
0.3846153846153846
 40
0.3846153846153846
 40
0.3846153846153846
 40
0.4615384615384616
 40
0.4615384615384616
 40
0.4615384615384616
 40
0.5384615384615385
 40
0.5384615384615385
 40
0.5384615384615385
 40
0.6153846153846154
 40
0.6153846153846154
 40
0.6153846153846154
 40
0.6923076923076923
 40
0.6923076923076923
 40
0.6923076923076923
 40
0.7692307692307693
 40
0.7692307692307693
 40
0.7692307692307693
 40
0.8461538461538463
 40
0.8461538461538463
 40
0.8461538461538463
 40
0.9230769230769231
 40
0.9230769230769231
 40
0.9230769230769231
 40
1.0
 40
1.0
 40
1.0
 40
1.0
 10
776.3002
 20
469.4509
 30
0.0
 10
776.3002
 20
469.4509
 30
0.0
 10
776.0143
 20
469.142
 30
0.0
 10
776.0143
 20
469.142
 30
0.0
 10
765.6652
 20
467.5434
 30
0.0
 10
722.1484
 20
457.6772
 30
0.0
 10
691.4481
 20
402.4922
 30
0.0
 10
691.4481
 20
402.4922
 30
0.0
 10
567.1324
 20
402.4922
 30
0.0
 10
567.1324
 20
402.4922
 30
0.0
 10
570.2901
 20
412.7042
 30
0.0
 10
584.9798
 20
449.1335
 30
0.0
 10
642.899
 20
493.2975
 30
0.0
 10
642.899
 20
493.2975
 30
0.0
 10
672.2052
 20
524.8968
 30
0.0
 10
680.578
 20
580.2292
 30
0.0
 10
680.5754
 20
580.2319
 30
0.0
 10
680.7986
 20
580.3044
 30
0.0
 10
681.206
 20
580.4369
 30
0.0
 10
681.2308
 20
580.4451
 30
0.0
 10
681.2516
 20
580.4519
 30
0.0
 10
681.2777
 20
580.4601
 30
0.0
 10
688.3373
 20
582.2364
 30
0.0
 10
697.8041
 20
585.6686
 30
0.0
 10
707.934
 20
589.963
 30
0.0
 10
707.934
 20
589.963
 30
0.0
 10
840.9187
 20
589.963
 30
0.0
 10
840.9187
 20
589.963
 30
0.0
 10
840.9187
 20
589.963
 30
0.0
 10
840.9187
 20
559.3175
 30
0.0
 10
840.9187
 20
559.3175
 30
0.0
 10
790.1309
 20
528.2948
 30
0.0
 10
779.24
 20
481.7096
 30
0.0
 10
777.3106
 20
470.5384
 30
0.0
 10
777.3106
 20
470.5384
 30
0.0
 10
776.6527
 20
469.8307
 30
0.0
 10
776.6527
 20
469.8307
 30
0.0
 10
776.6527
 20
469.8307
 30
0.0
 10
776.3002
 20
469.4509
 30
0.0
 10
776.3002
 20
469.4509
 30
0.0
  0
SPLINE
  5
71
330
1F
100
AcDbEntity
  8
Layer 1
 62
   250
370
     9
100
AcDbSpline
210
0.0
220
0.0
230
1.0
 70
    11
 71
     3
 72
    44
 73
    40
 74
     0
 42
0.0000000001
 43
0.0000000001
 40
0.0
 40
0.0
 40
0.0
 40
0.0
 40
0.0769230769230769
 40
0.0769230769230769
 40
0.0769230769230769
 40
0.1538461538461539
 40
0.1538461538461539
 40
0.1538461538461539
 40
0.2307692307692308
 40
0.2307692307692308
 40
0.2307692307692308
 40
0.3076923076923077
 40
0.3076923076923077
 40
0.3076923076923077
 40
0.3846153846153846
 40
0.3846153846153846
 40
0.3846153846153846
 40
0.4615384615384616
 40
0.4615384615384616
 40
0.4615384615384616
 40
0.5384615384615385
 40
0.5384615384615385
 40
0.5384615384615385
 40
0.6153846153846154
 40
0.6153846153846154
 40
0.6153846153846154
 40
0.6923076923076923
 40
0.6923076923076923
 40
0.6923076923076923
 40
0.7692307692307693
 40
0.7692307692307693
 40
0.7692307692307693
 40
0.8461538461538463
 40
0.8461538461538463
 40
0.8461538461538463
 40
0.9230769230769231
 40
0.9230769230769231
 40
0.9230769230769231
 40
1.0
 40
1.0
 40
1.0
 40
1.0
 10
776.3002
 20
267.8904
 30
0.0
 10
776.3002
 20
267.8904
 30
0.0
 10
776.0143
 20
268.1978
 30
0.0
 10
776.0143
 20
268.1978
 30
0.0
 10
765.6652
 20
269.7965
 30
0.0
 10
722.1471
 20
279.6628
 30
0.0
 10
691.4481
 20
334.849
 30
0.0
 10
691.4481
 20
334.849
 30
0.0
 10
567.1324
 20
334.849
 30
0.0
 10
567.1324
 20
334.849
 30
0.0
 10
570.2889
 20
324.6371
 30
0.0
 10
584.9785
 20
288.2092
 30
0.0
 10
642.899
 20
244.0437
 30
0.0
 10
642.899
 20
244.0437
 30
0.0
 10
672.2052
 20
212.4432
 30
0.0
 10
680.578
 20
157.1093
 30
0.0
 10
680.5754
 20
157.1079
 30
0.0
 10
680.7986
 20
157.0355
 30
0.0
 10
681.206
 20
156.903
 30
0.0
 10
681.2308
 20
156.8962
 30
0.0
 10
681.2516
 20
156.8893
 30
0.0
 10
681.2777
 20
156.8811
 30
0.0
 10
706.6063
 20
150.5045
 30
0.0
 10
762.9343
 20
122.8156
 30
0.0
 10
769.5552
 20
110.4777
 30
0.0
 10
790.1244
 20
72.6548
 30
0.0
 10
822.7541
 20
51.6583
 30
0.0
 10
840.9187
 20
43.8319
 30
0.0
 10
840.9187
 20
43.8319
 30
0.0
 10
840.9187
 20
178.0238
 30
0.0
 10
840.9187
 20
178.0238
 30
0.0
 10
790.1309
 20
209.0451
 30
0.0
 10
779.24
 20
255.6303
 30
0.0
 10
777.3106
 20
266.8001
 30
0.0
 10
777.3106
 20
266.8001
 30
0.0
 10
776.6527
 20
267.5106
 30
0.0
 10
776.6527
 20
267.5106
 30
0.0
 10
776.6527
 20
267.5106
 30
0.0
 10
776.3002
 20
267.8904
 30
0.0
 10
776.3002
 20
267.8904
 30
0.0
  0
SPLINE
  5
72
330
1F
100
AcDbEntity
  8
Layer 1
 62
   250
370
     9
100
AcDbSpline
210
0.0
220
0.0
230
1.0
 70
    11
 71
     3
 72
    35
 73
    31
 74
     0
 42
0.0000000001
 43
0.0000000001
 40
0.0
 40
0.0
 40
0.0
 40
0.0
 40
0.1
 40
0.1
 40
0.1
 40
0.2
 40
0.2
 40
0.2
 40
0.3
 40
0.3
 40
0.3
 40
0.4
 40
0.4
 40
0.4
 40
0.5
 40
0.5
 40
0.5
 40
0.6000000000000001
 40
0.6000000000000001
 40
0.6000000000000001
 40
0.7000000000000001
 40
0.7000000000000001
 40
0.7000000000000001
 40
0.8
 40
0.8
 40
0.8
 40
0.9
 40
0.9
 40
0.9
 40
1.0
 40
1.0
 40
1.0
 40
1.0
 10
967.6872
 20
-0.2419
 30
0.0
 10
991.4755
 20
-14.941
 30
0.0
 10
1041.1641
 20
-99.5636
 30
0.0
 10
1088.1193
 20
-85.1174
 30
0.0
 10
1088.9508
 20
-84.8618
 30
0.0
 10
1089.768
 20
-84.6897
 30
0.0
 10
1090.4494
 20
-84.0817
 30
0.0
 10
1095.8211
 20
-79.2858
 30
0.0
 10
1104.1169
 20
-51.0136
 30
0.0
 10
1068.9326
 20
-50.6119
 30
0.0
 10
1036.4321
 20
-51.2308
 30
0.0
 10
1069.4848
 20
-7.5601
 30
0.0
 10
1078.0664
 20
-0.2638
 30
0.0
 10
1078.0586
 20
-0.257
 30
0.0
 10
1078.0507
 20
-0.2501
 30
0.0
 10
1078.0416
 20
-0.2419
 30
0.0
 10
1078.0507
 20
-0.2351
 30
0.0
 10
1078.0586
 20
-0.2269
 30
0.0
 10
1078.0664
 20
-0.2187
 30
0.0
 10
1069.4848
 20
7.0775
 30
0.0
 10
1036.4321
 20
50.7483
 30
0.0
 10
1068.9326
 20
50.1293
 30
0.0
 10
1104.1169
 20
50.5297
 30
0.0
 10
1095.8211
 20
78.8019
 30
0.0
 10
1090.4494
 20
83.5977
 30
0.0
 10
1089.768
 20
84.2057
 30
0.0
 10
1088.9508
 20
84.378
 30
0.0
 10
1088.1193
 20
84.6334
 30
0.0
 10
1041.1641
 20
99.0797
 30
0.0
 10
991.4755
 20
14.4571
 30
0.0
 10
967.6872
 20
-0.2419
 30
0.0
  0
SPLINE
  5
73
330
1F
100
AcDbEntity
  8
Layer 1
 62
   250
370
     9
100
AcDbSpline
210
0.0
220
0.0
230
1.0
 70
    11
 71
     3
 72
    20
 73
    16
 74
     0
 42
0.0000000001
 43
0.0000000001
 40
0.0
 40
0.0
 40
0.0
 40
0.0
 40
0.2
 40
0.2
 40
0.2
 40
0.4
 40
0.4
 40
0.4
 40
0.6000000000000001
 40
0.6000000000000001
 40
0.6000000000000001
 40
0.8
 40
0.8
 40
0.8
 40
1.0
 40
1.0
 40
1.0
 40
1.0
 10
1199.9397
 20
172.9779
 30
0.0
 10
1188.0057
 20
179.2904
 30
0.0
 10
1176.5809
 20
180.3602
 30
0.0
 10
1176.8928
 20
162.5747
 30
0.0
 10
1176.5077
 20
125.9296
 30
0.0
 10
1149.3646
 20
134.5689
 30
0.0
 10
1144.7579
 20
140.164
 30
0.0
 10
1144.177
 20
140.8732
 30
0.0
 10
1144.0099
 20
141.7244
 30
0.0
 10
1143.7645
 20
142.5907
 30
0.0
 10
1133.9231
 20
177.2942
 30
0.0
 10
1171.9663
 20
213.4242
 30
0.0
 10
1199.9397
 20
240.3383
 30
0.0
 10
1199.9397
 20
240.3383
 30
0.0
 10
1199.9397
 20
172.9779
 30
0.0
 10
1199.9397
 20
172.9779
 30
0.0
  0
SPLINE
  5
74
330
1F
100
AcDbEntity
  8
Layer 1
 62
   250
370
     9
100
AcDbSpline
210
0.0
220
0.0
230
1.0
 70
    11
 71
     3
 72
    20
 73
    16
 74
     0
 42
0.0000000001
 43
0.0000000001
 40
0.0
 40
0.0
 40
0.0
 40
0.0
 40
0.2
 40
0.2
 40
0.2
 40
0.4
 40
0.4
 40
0.4
 40
0.6000000000000001
 40
0.6000000000000001
 40
0.6000000000000001
 40
0.8
 40
0.8
 40
0.8
 40
1.0
 40
1.0
 40
1.0
 40
1.0
 10
1199.9397
 20
-173.4674
 30
0.0
 10
1188.0057
 20
-179.7798
 30
0.0
 10
1176.5809
 20
-180.8428
 30
0.0
 10
1176.8928
 20
-163.0572
 30
0.0
 10
1176.5077
 20
-126.4121
 30
0.0
 10
1149.3646
 20
-135.0528
 30
0.0
 10
1144.7579
 20
-140.648
 30
0.0
 10
1144.177
 20
-141.3557
 30
0.0
 10
1144.0099
 20
-142.2083
 30
0.0
 10
1143.7645
 20
-143.0745
 30
0.0
 10
1133.9231
 20
-177.7768
 30
0.0
 10
1171.9663
 20
-213.9136
 30
0.0
 10
1199.9397
 20
-240.8277
 30
0.0
 10
1199.9397
 20
-240.8277
 30
0.0
 10
1199.9397
 20
-173.4674
 30
0.0
 10
1199.9397
 20
-173.4674
 30
0.0
  0
SPLINE
  5
75
330
1F
100
AcDbEntity
  8
Layer 1
 62
   250
370
     9
100
AcDbSpline
210
0.0
220
0.0
230
1.0
 70
    11
 71
     3
 72
    32
 73
    28
 74
     0
 42
0.0000000001
 43
0.0000000001
 40
0.0
 40
0.0
 40
0.0
 40
0.0
 40
0.1111111111111111
 40
0.1111111111111111
 40
0.1111111111111111
 40
0.2222222222222222
 40
0.2222222222222222
 40
0.2222222222222222
 40
0.3333333333333333
 40
0.3333333333333333
 40
0.3333333333333333
 40
0.4444444444444444
 40
0.4444444444444444
 40
0.4444444444444444
 40
0.5555555555555556
 40
0.5555555555555556
 40
0.5555555555555556
 40
0.6666666666666666
 40
0.6666666666666666
 40
0.6666666666666666
 40
0.7777777777777777
 40
0.7777777777777777
 40
0.7777777777777777
 40
0.8888888888888888
 40
0.8888888888888888
 40
0.8888888888888888
 40
1.0
 40
1.0
 40
1.0
 40
1.0
 10
1199.9397
 20
73.9952
 30
0.0
 10
1191.8005
 20
69.6256
 30
0.0
 10
1182.5831
 20
67.158
 30
0.0
 10
1172.8266
 20
67.158
 30
0.0
 10
1168.0253
 20
67.158
 30
0.0
 10
1163.3585
 20
67.7619
 30
0.0
 10
1158.8836
 20
68.8877
 30
0.0
 10
1159.9645
 20
64.2272
 30
0.0
 10
1160.5414
 20
59.3644
 30
0.0
 10
1160.5414
 20
54.3664
 30
0.0
 10
1160.5414
 20
30.7916
 30
0.0
 10
1147.7903
 20
10.2255
 30
0.0
 10
1129.1022
 20
-0.2406
 30
0.0
 10
1147.7903
 20
-10.7054
 30
0.0
 10
1160.5414
 20
-31.2755
 30
0.0
 10
1160.5414
 20
-54.8489
 30
0.0
 10
1160.5414
 20
-59.847
 30
0.0
 10
1159.9658
 20
-64.7139
 30
0.0
 10
1158.8836
 20
-69.3731
 30
0.0
 10
1163.3599
 20
-68.2458
 30
0.0
 10
1168.0253
 20
-67.6433
 30
0.0
 10
1172.8266
 20
-67.6433
 30
0.0
 10
1182.5844
 20
-67.6433
 30
0.0
 10
1191.8005
 20
-70.1177
 30
0.0
 10
1199.9397
 20
-74.4873
 30
0.0
 10
1199.9397
 20
-74.4873
 30
0.0
 10
1199.9397
 20
73.9952
 30
0.0
 10
1199.9397
 20
73.9952
 30
0.0
  0
SPLINE
  5
76
330
1F
100
AcDbEntity
  8
Layer 1
 62
   250
370
     9
100
AcDbSpline
210
0.0
220
0.0
230
1.0
 70
    11
 71
     3
 72
    44
 73
    40
 74
     0
 42
0.0000000001
 43
0.0000000001
 40
0.0
 40
0.0
 40
0.0
 40
0.0
 40
0.0769230769230769
 40
0.0769230769230769
 40
0.0769230769230769
 40
0.1538461538461539
 40
0.1538461538461539
 40
0.1538461538461539
 40
0.2307692307692308
 40
0.2307692307692308
 40
0.2307692307692308
 40
0.3076923076923077
 40
0.3076923076923077
 40
0.3076923076923077
 40
0.3846153846153846
 40
0.3846153846153846
 40
0.3846153846153846
 40
0.4615384615384616
 40
0.4615384615384616
 40
0.4615384615384616
 40
0.5384615384615385
 40
0.5384615384615385
 40
0.5384615384615385
 40
0.6153846153846154
 40
0.6153846153846154
 40
0.6153846153846154
 40
0.6923076923076923
 40
0.6923076923076923
 40
0.6923076923076923
 40
0.7692307692307693
 40
0.7692307692307693
 40
0.7692307692307693
 40
0.8461538461538463
 40
0.8461538461538463
 40
0.8461538461538463
 40
0.9230769230769231
 40
0.9230769230769231
 40
0.9230769230769231
 40
1.0
 40
1.0
 40
1.0
 40
1.0
 10
268.2772
 20
267.8904
 30
0.0
 10
268.2772
 20
267.8904
 30
0.0
 10
268.5644
 20
268.1978
 30
0.0
 10
268.5644
 20
268.1978
 30
0.0
 10
278.9137
 20
269.7965
 30
0.0
 10
322.4291
 20
279.6628
 30
0.0
 10
353.1294
 20
334.849
 30
0.0
 10
353.1294
 20
334.849
 30
0.0
 10
477.4464
 20
334.849
 30
0.0
 10
477.4464
 20
334.849
 30
0.0
 10
474.2886
 20
324.6371
 30
0.0
 10
459.599
 20
288.2092
 30
0.0
 10
401.6797
 20
244.0437
 30
0.0
 10
401.6797
 20
244.0437
 30
0.0
 10
372.371
 20
212.4432
 30
0.0
 10
363.9995
 20
157.1093
 30
0.0
 10
364.0021
 20
157.1079
 30
0.0
 10
363.7789
 20
157.0355
 30
0.0
 10
363.3715
 20
156.903
 30
0.0
 10
363.3455
 20
156.8962
 30
0.0
 10
363.3272
 20
156.8893
 30
0.0
 10
363.2998
 20
156.8811
 30
0.0
 10
337.9699
 20
150.5045
 30
0.0
 10
281.6432
 20
122.8156
 30
0.0
 10
275.0209
 20
110.4777
 30
0.0
 10
254.4544
 20
72.6561
 30
0.0
 10
221.8221
 20
51.6597
 30
0.0
 10
203.6613
 20
43.8319
 30
0.0
 10
203.6613
 20
43.8319
 30
0.0
 10
203.6613
 20
178.0252
 30
0.0
 10
203.6613
 20
178.0252
 30
0.0
 10
254.4452
 20
209.0451
 30
0.0
 10
265.3362
 20
255.6303
 30
0.0
 10
267.2669
 20
266.8001
 30
0.0
 10
267.2669
 20
266.8001
 30
0.0
 10
267.9248
 20
267.5106
 30
0.0
 10
267.9248
 20
267.5106
 30
0.0
 10
267.9248
 20
267.5106
 30
0.0
 10
268.2772
 20
267.8904
 30
0.0
 10
268.2772
 20
267.8904
 30
0.0
  0
SPLINE
  5
77
330
1F
100
AcDbEntity
  8
Layer 1
 62
   250
370
     9
100
AcDbSpline
210
0.0
220
0.0
230
1.0
 70
    11
 71
     3
 72
    35
 73
    31
 74
     0
 42
0.0000000001
 43
0.0000000001
 40
0.0
 40
0.0
 40
0.0
 40
0.0
 40
0.1
 40
0.1
 40
0.1
 40
0.2
 40
0.2
 40
0.2
 40
0.3
 40
0.3
 40
0.3
 40
0.4
 40
0.4
 40
0.4
 40
0.5
 40
0.5
 40
0.5
 40
0.6000000000000001
 40
0.6000000000000001
 40
0.6000000000000001
 40
0.7000000000000001
 40
0.7000000000000001
 40
0.7000000000000001
 40
0.8
 40
0.8
 40
0.8
 40
0.9
 40
0.9
 40
0.9
 40
1.0
 40
1.0
 40
1.0
 40
1.0
 10
522.2894
 20
-466.8223
 30
0.0
 10
536.188
 20
-491.2237
 30
0.0
 10
615.2089
 20
-541.7958
 30
0.0
 10
604.3389
 20
-590.037
 30
0.0
 10
604.3389
 20
-590.037
 30
0.0
 10
574.0889
 20
-590.037
 30
0.0
 10
574.0889
 20
-590.037
 30
0.0
 10
572.0394
 20
-585.8697
 30
0.0
 10
570.7314
 20
-580.112
 30
0.0
 10
570.6504
 20
-572.2733
 30
0.0
 10
571.2444
 20
-538.4223
 30
0.0
 10
529.3177
 20
-572.8485
 30
0.0
 10
522.3103
 20
-581.783
 30
0.0
 10
522.3038
 20
-581.7789
 30
0.0
 10
522.2907
 20
-581.7721
 30
0.0
 10
522.2881
 20
-581.7584
 30
0.0
 10
522.2829
 20
-581.7721
 30
0.0
 10
522.2712
 20
-581.7789
 30
0.0
 10
522.2659
 20
-581.783
 30
0.0
 10
515.2598
 20
-572.8485
 30
0.0
 10
473.3318
 20
-538.4223
 30
0.0
 10
473.927
 20
-572.2733
 30
0.0
 10
473.8434
 20
-580.112
 30
0.0
 10
472.5329
 20
-585.8697
 30
0.0
 10
470.4834
 20
-590.037
 30
0.0
 10
470.4834
 20
-590.037
 30
0.0
 10
440.2334
 20
-590.037
 30
0.0
 10
440.2334
 20
-590.037
 30
0.0
 10
429.3647
 20
-541.7958
 30
0.0
 10
508.3883
 20
-491.2182
 30
0.0
 10
522.2894
 20
-466.8223
 30
0.0
  0
SPLINE
  5
78
330
1F
100
AcDbEntity
  8
Layer 1
 62
   250
370
     9
100
AcDbSpline
210
0.0
220
0.0
230
1.0
 70
    11
 71
     3
 72
    44
 73
    40
 74
     0
 42
0.0000000001
 43
0.0000000001
 40
0.0
 40
0.0
 40
0.0
 40
0.0
 40
0.0769230769230769
 40
0.0769230769230769
 40
0.0769230769230769
 40
0.1538461538461539
 40
0.1538461538461539
 40
0.1538461538461539
 40
0.2307692307692308
 40
0.2307692307692308
 40
0.2307692307692308
 40
0.3076923076923077
 40
0.3076923076923077
 40
0.3076923076923077
 40
0.3846153846153846
 40
0.3846153846153846
 40
0.3846153846153846
 40
0.4615384615384616
 40
0.4615384615384616
 40
0.4615384615384616
 40
0.5384615384615385
 40
0.5384615384615385
 40
0.5384615384615385
 40
0.6153846153846154
 40
0.6153846153846154
 40
0.6153846153846154
 40
0.6923076923076923
 40
0.6923076923076923
 40
0.6923076923076923
 40
0.7692307692307693
 40
0.7692307692307693
 40
0.7692307692307693
 40
0.8461538461538463
 40
0.8461538461538463
 40
0.8461538461538463
 40
0.9230769230769231
 40
0.9230769230769231
 40
0.9230769230769231
 40
1.0
 40
1.0
 40
1.0
 40
1.0
 10
268.2772
 20
-466.9576
 30
0.0
 10
268.2772
 20
-466.9576
 30
0.0
 10
268.5644
 20
-466.6473
 30
0.0
 10
268.5644
 20
-466.6473
 30
0.0
 10
278.9137
 20
-465.0501
 30
0.0
 10
322.4291
 20
-455.1852
 30
0.0
 10
353.1294
 20
-400.0003
 30
0.0
 10
353.1294
 20
-400.0003
 30
0.0
 10
477.4464
 20
-400.0003
 30
0.0
 10
477.4464
 20
-400.0003
 30
0.0
 10
474.2874
 20
-410.2109
 30
0.0
 10
459.5977
 20
-446.6388
 30
0.0
 10
401.6797
 20
-490.8028
 30
0.0
 10
401.6797
 20
-490.8028
 30
0.0
 10
372.371
 20
-522.4048
 30
0.0
 10
363.9995
 20
-577.7345
 30
0.0
 10
364.0021
 20
-577.7372
 30
0.0
 10
363.7789
 20
-577.8111
 30
0.0
 10
363.3715
 20
-577.9422
 30
0.0
 10
363.3455
 20
-577.9518
 30
0.0
 10
363.3272
 20
-577.9586
 30
0.0
 10
363.2998
 20
-577.9654
 30
0.0
 10
354.8825
 20
-580.0846
 30
0.0
 10
343.0374
 20
-584.5567
 30
0.0
 10
330.7354
 20
-590.037
 30
0.0
 10
330.7354
 20
-590.037
 30
0.0
 10
203.6613
 20
-590.037
 30
0.0
 10
203.6613
 20
-590.037
 30
0.0
 10
203.6613
 20
-590.037
 30
0.0
 10
203.6613
 20
-556.8228
 30
0.0
 10
203.6613
 20
-556.8228
 30
0.0
 10
254.4452
 20
-525.8015
 30
0.0
 10
265.3362
 20
-479.2163
 30
0.0
 10
267.2669
 20
-468.0451
 30
0.0
 10
267.2669
 20
-468.0451
 30
0.0
 10
267.9248
 20
-467.3373
 30
0.0
 10
267.9248
 20
-467.3373
 30
0.0
 10
267.9248
 20
-467.3373
 30
0.0
 10
268.2772
 20
-466.9576
 30
0.0
 10
268.2772
 20
-466.9576
 30
0.0
  0
SPLINE
  5
79
330
1F
100
AcDbEntity
  8
Layer 1
 62
   250
370
     9
100
AcDbSpline
210
0.0
220
0.0
230
1.0
 70
    11
 71
     3
 72
    35
 73
    31
 74
     0
 42
0.0000000001
 43
0.0000000001
 40
0.0
 40
0.0
 40
0.0
 40
0.0
 40
0.1
 40
0.1
 40
0.1
 40
0.2
 40
0.2
 40
0.2
 40
0.3
 40
0.3
 40
0.3
 40
0.4
 40
0.4
 40
0.4
 40
0.5
 40
0.5
 40
0.5
 40
0.6000000000000001
 40
0.6000000000000001
 40
0.6000000000000001
 40
0.7000000000000001
 40
0.7000000000000001
 40
0.7000000000000001
 40
0.8
 40
0.8
 40
0.8
 40
0.9
 40
0.9
 40
0.9
 40
1.0
 40
1.0
 40
1.0
 40
1.0
 10
522.2894
 20
469.3156
 30
0.0
 10
535.9425
 20
493.2866
 30
0.0
 10
612.4193
 20
542.5034
 30
0.0
 10
604.8232
 20
589.963
 30
0.0
 10
604.8232
 20
589.963
 30
0.0
 10
572.9989
 20
589.963
 30
0.0
 10
572.9989
 20
589.963
 30
0.0
 10
571.5851
 20
586.0853
 30
0.0
 10
570.717
 20
581.1064
 30
0.0
 10
570.6504
 20
574.7666
 30
0.0
 10
571.2444
 20
540.9156
 30
0.0
 10
529.3177
 20
575.3418
 30
0.0
 10
522.3103
 20
584.2763
 30
0.0
 10
522.3038
 20
584.2722
 30
0.0
 10
522.2907
 20
584.264
 30
0.0
 10
522.2881
 20
584.2517
 30
0.0
 10
522.2829
 20
584.264
 30
0.0
 10
522.2712
 20
584.2722
 30
0.0
 10
522.2659
 20
584.2763
 30
0.0
 10
515.2598
 20
575.3418
 30
0.0
 10
473.3318
 20
540.9156
 30
0.0
 10
473.927
 20
574.7666
 30
0.0
 10
473.8591
 20
581.1064
 30
0.0
 10
472.9872
 20
586.0853
 30
0.0
 10
471.572
 20
589.963
 30
0.0
 10
471.572
 20
589.963
 30
0.0
 10
439.7465
 20
589.963
 30
0.0
 10
439.7465
 20
589.963
 30
0.0
 10
432.1516
 20
542.5034
 30
0.0
 10
508.635
 20
493.2811
 30
0.0
 10
522.2894
 20
469.3156
 30
0.0
  0
SPLINE
  5
7A
330
1F
100
AcDbEntity
  8
Layer 1
 62
   250
370
     9
100
AcDbSpline
210
0.0
220
0.0
230
1.0
 70
    11
 71
     3
 72
    44
 73
    40
 74
     0
 42
0.0000000001
 43
0.0000000001
 40
0.0
 40
0.0
 40
0.0
 40
0.0
 40
0.0769230769230769
 40
0.0769230769230769
 40
0.0769230769230769
 40
0.1538461538461539
 40
0.1538461538461539
 40
0.1538461538461539
 40
0.2307692307692308
 40
0.2307692307692308
 40
0.2307692307692308
 40
0.3076923076923077
 40
0.3076923076923077
 40
0.3076923076923077
 40
0.3846153846153846
 40
0.3846153846153846
 40
0.3846153846153846
 40
0.4615384615384616
 40
0.4615384615384616
 40
0.4615384615384616
 40
0.5384615384615385
 40
0.5384615384615385
 40
0.5384615384615385
 40
0.6153846153846154
 40
0.6153846153846154
 40
0.6153846153846154
 40
0.6923076923076923
 40
0.6923076923076923
 40
0.6923076923076923
 40
0.7692307692307693
 40
0.7692307692307693
 40
0.7692307692307693
 40
0.8461538461538463
 40
0.8461538461538463
 40
0.8461538461538463
 40
0.9230769230769231
 40
0.9230769230769231
 40
0.9230769230769231
 40
1.0
 40
1.0
 40
1.0
 40
1.0
 10
268.2772
 20
469.4509
 30
0.0
 10
268.2772
 20
469.4509
 30
0.0
 10
268.5644
 20
469.142
 30
0.0
 10
268.5644
 20
469.142
 30
0.0
 10
278.9137
 20
467.5434
 30
0.0
 10
322.4291
 20
457.6772
 30
0.0
 10
353.1294
 20
402.4922
 30
0.0
 10
353.1294
 20
402.4922
 30
0.0
 10
477.4464
 20
402.4922
 30
0.0
 10
477.4464
 20
402.4922
 30
0.0
 10
474.2874
 20
412.7042
 30
0.0
 10
459.5977
 20
449.1335
 30
0.0
 10
401.6797
 20
493.2975
 30
0.0
 10
401.6797
 20
493.2975
 30
0.0
 10
372.371
 20
524.8968
 30
0.0
 10
363.9995
 20
580.2292
 30
0.0
 10
364.0021
 20
580.2319
 30
0.0
 10
363.7789
 20
580.3044
 30
0.0
 10
363.3715
 20
580.4369
 30
0.0
 10
363.3455
 20
580.4451
 30
0.0
 10
363.3272
 20
580.4519
 30
0.0
 10
363.2998
 20
580.4601
 30
0.0
 10
356.2402
 20
582.2364
 30
0.0
 10
346.7643
 20
585.6686
 30
0.0
 10
336.6344
 20
589.963
 30
0.0
 10
336.6344
 20
589.963
 30
0.0
 10
203.6613
 20
589.963
 30
0.0
 10
203.6613
 20
589.963
 30
0.0
 10
203.6613
 20
589.963
 30
0.0
 10
203.6613
 20
559.3161
 30
0.0
 10
203.6613
 20
559.3161
 30
0.0
 10
254.4452
 20
528.2948
 30
0.0
 10
265.3362
 20
481.7096
 30
0.0
 10
267.2669
 20
470.5384
 30
0.0
 10
267.2669
 20
470.5384
 30
0.0
 10
267.9248
 20
469.8307
 30
0.0
 10
267.9248
 20
469.8307
 30
0.0
 10
267.9248
 20
469.8307
 30
0.0
 10
268.2772
 20
469.4509
 30
0.0
 10
268.2772
 20
469.4509
 30
0.0
  0
SPLINE
  5
7B
330
1F
100
AcDbEntity
  8
Layer 1
 62
   250
370
     9
100
AcDbSpline
210
0.0
220
0.0
230
1.0
 70
    11
 71
     3
 72
    44
 73
    40
 74
     0
 42
0.0000000001
 43
0.0000000001
 40
0.0
 40
0.0
 40
0.0
 40
0.0
 40
0.0769230769230769
 40
0.0769230769230769
 40
0.0769230769230769
 40
0.1538461538461539
 40
0.1538461538461539
 40
0.1538461538461539
 40
0.2307692307692308
 40
0.2307692307692308
 40
0.2307692307692308
 40
0.3076923076923077
 40
0.3076923076923077
 40
0.3076923076923077
 40
0.3846153846153846
 40
0.3846153846153846
 40
0.3846153846153846
 40
0.4615384615384616
 40
0.4615384615384616
 40
0.4615384615384616
 40
0.5384615384615385
 40
0.5384615384615385
 40
0.5384615384615385
 40
0.6153846153846154
 40
0.6153846153846154
 40
0.6153846153846154
 40
0.6923076923076923
 40
0.6923076923076923
 40
0.6923076923076923
 40
0.7692307692307693
 40
0.7692307692307693
 40
0.7692307692307693
 40
0.8461538461538463
 40
0.8461538461538463
 40
0.8461538461538463
 40
0.9230769230769231
 40
0.9230769230769231
 40
0.9230769230769231
 40
1.0
 40
1.0
 40
1.0
 40
1.0
 10
268.2772
 20
-268.373
 30
0.0
 10
268.2772
 20
-268.373
 30
0.0
 10
268.5644
 20
-268.6818
 30
0.0
 10
268.5644
 20
-268.6818
 30
0.0
 10
278.9137
 20
-270.2804
 30
0.0
 10
322.4291
 20
-280.1453
 30
0.0
 10
353.1294
 20
-335.3303
 30
0.0
 10
353.1294
 20
-335.3303
 30
0.0
 10
477.4464
 20
-335.3303
 30
0.0
 10
477.4464
 20
-335.3303
 30
0.0
 10
474.2874
 20
-325.1182
 30
0.0
 10
459.5977
 20
-288.6904
 30
0.0
 10
401.6797
 20
-244.5264
 30
0.0
 10
401.6797
 20
-244.5264
 30
0.0
 10
372.371
 20
-212.9258
 30
0.0
 10
363.9995
 20
-157.5933
 30
0.0
 10
364.0021
 20
-157.5905
 30
0.0
 10
363.7789
 20
-157.5181
 30
0.0
 10
363.3715
 20
-157.3869
 30
0.0
 10
363.3455
 20
-157.3788
 30
0.0
 10
363.3272
 20
-157.3719
 30
0.0
 10
363.2998
 20
-157.3637
 30
0.0
 10
337.9699
 20
-150.987
 30
0.0
 10
281.6432
 20
-123.2983
 30
0.0
 10
275.0209
 20
-110.9602
 30
0.0
 10
254.4544
 20
-73.1387
 30
0.0
 10
221.8221
 20
-52.1422
 30
0.0
 10
203.6613
 20
-44.3158
 30
0.0
 10
203.6613
 20
-44.3158
 30
0.0
 10
203.6613
 20
-178.5077
 30
0.0
 10
203.6613
 20
-178.5077
 30
0.0
 10
254.4452
 20
-209.5277
 30
0.0
 10
265.3362
 20
-256.1129
 30
0.0
 10
267.2669
 20
-267.284
 30
0.0
 10
267.2669
 20
-267.284
 30
0.0
 10
267.9248
 20
-267.9932
 30
0.0
 10
267.9248
 20
-267.9932
 30
0.0
 10
267.9248
 20
-267.9932
 30
0.0
 10
268.2772
 20
-268.373
 30
0.0
 10
268.2772
 20
-268.373
 30
0.0
  0
SPLINE
  5
7C
330
1F
100
AcDbEntity
  8
Layer 1
 62
   250
370
     9
100
AcDbSpline
210
0.0
220
0.0
230
1.0
 70
    11
 71
     3
 72
    35
 73
    31
 74
     0
 42
0.0000000001
 43
0.0000000001
 40
0.0
 40
0.0
 40
0.0
 40
0.0
 40
0.1
 40
0.1
 40
0.1
 40
0.2
 40
0.2
 40
0.2
 40
0.3
 40
0.3
 40
0.3
 40
0.4
 40
0.4
 40
0.4
 40
0.5
 40
0.5
 40
0.5
 40
0.6000000000000001
 40
0.6000000000000001
 40
0.6000000000000001
 40
0.7000000000000001
 40
0.7000000000000001
 40
0.7000000000000001
 40
0.8
 40
0.8
 40
0.8
 40
0.9
 40
0.9
 40
0.9
 40
1.0
 40
1.0
 40
1.0
 40
1.0
 10
779.8535
 20
-0.2419
 30
0.0
 10
756.0679
 20
-14.941
 30
0.0
 10
706.3792
 20
-99.5636
 30
0.0
 10
659.424
 20
-85.1174
 30
0.0
 10
658.5912
 20
-84.8618
 30
0.0
 10
657.774
 20
-84.6897
 30
0.0
 10
657.0939
 20
-84.0817
 30
0.0
 10
651.7222
 20
-79.2858
 30
0.0
 10
643.4264
 20
-51.0136
 30
0.0
 10
678.6094
 20
-50.6119
 30
0.0
 10
711.1087
 20
-51.2308
 30
0.0
 10
678.0573
 20
-7.5601
 30
0.0
 10
669.4756
 20
-0.2638
 30
0.0
 10
669.4834
 20
-0.257
 30
0.0
 10
669.4925
 20
-0.2501
 30
0.0
 10
669.4991
 20
-0.2419
 30
0.0
 10
669.4925
 20
-0.2351
 30
0.0
 10
669.4834
 20
-0.2269
 30
0.0
 10
669.4756
 20
-0.2187
 30
0.0
 10
678.0573
 20
7.0775
 30
0.0
 10
711.1087
 20
50.7483
 30
0.0
 10
678.6094
 20
50.1293
 30
0.0
 10
643.4264
 20
50.5297
 30
0.0
 10
651.7222
 20
78.8019
 30
0.0
 10
657.0939
 20
83.5977
 30
0.0
 10
657.774
 20
84.2057
 30
0.0
 10
658.5912
 20
84.378
 30
0.0
 10
659.424
 20
84.6334
 30
0.0
 10
706.3792
 20
99.0797
 30
0.0
 10
756.0679
 20
14.4571
 30
0.0
 10
779.8535
 20
-0.2419
 30
0.0
  0
SPLINE
  5
7D
330
1F
100
AcDbEntity
  8
Layer 1
 62
   250
370
     9
100
AcDbSpline
210
0.0
220
0.0
230
1.0
 70
    11
 71
     3
 72
    35
 73
    31
 74
     0
 42
0.0000000001
 43
0.0000000001
 40
0.0
 40
0.0
 40
0.0
 40
0.0
 40
0.1
 40
0.1
 40
0.1
 40
0.2
 40
0.2
 40
0.2
 40
0.3
 40
0.3
 40
0.3
 40
0.4
 40
0.4
 40
0.4
 40
0.5
 40
0.5
 40
0.5
 40
0.6000000000000001
 40
0.6000000000000001
 40
0.6000000000000001
 40
0.7000000000000001
 40
0.7000000000000001
 40
0.7000000000000001
 40
0.8
 40
0.8
 40
0.8
 40
0.9
 40
0.9
 40
0.9
 40
1.0
 40
1.0
 40
1.0
 40
1.0
 10
264.7213
 20
-0.2419
 30
0.0
 10
288.5096
 20
-14.941
 30
0.0
 10
338.197
 20
-99.5636
 30
0.0
 10
385.1535
 20
-85.1174
 30
0.0
 10
385.9849
 20
-84.8618
 30
0.0
 10
386.8022
 20
-84.6897
 30
0.0
 10
387.4822
 20
-84.0817
 30
0.0
 10
392.8553
 20
-79.2858
 30
0.0
 10
401.1498
 20
-51.0136
 30
0.0
 10
365.9654
 20
-50.6119
 30
0.0
 10
333.4662
 20
-51.2308
 30
0.0
 10
366.5176
 20
-7.5601
 30
0.0
 10
375.0993
 20
-0.2638
 30
0.0
 10
375.0914
 20
-0.257
 30
0.0
 10
375.0836
 20
-0.2501
 30
0.0
 10
375.0757
 20
-0.2419
 30
0.0
 10
375.0836
 20
-0.2351
 30
0.0
 10
375.0914
 20
-0.2269
 30
0.0
 10
375.0993
 20
-0.2187
 30
0.0
 10
366.5176
 20
7.0775
 30
0.0
 10
333.4662
 20
50.7483
 30
0.0
 10
365.9654
 20
50.1293
 30
0.0
 10
401.1498
 20
50.5297
 30
0.0
 10
392.8553
 20
78.8019
 30
0.0
 10
387.4822
 20
83.5977
 30
0.0
 10
386.8022
 20
84.2057
 30
0.0
 10
385.9849
 20
84.378
 30
0.0
 10
385.1535
 20
84.6334
 30
0.0
 10
338.197
 20
99.0797
 30
0.0
 10
288.5096
 20
14.4571
 30
0.0
 10
264.7213
 20
-0.2419
 30
0.0
  0
SPLINE
  5
7E
330
1F
100
AcDbEntity
  8
Layer 1
 62
   250
370
     9
100
AcDbSpline
210
0.0
220
0.0
230
1.0
 70
    11
 71
     3
 72
    35
 73
    31
 74
     0
 42
0.0000000001
 43
0.0000000001
 40
0.0
 40
0.0
 40
0.0
 40
0.0
 40
0.1
 40
0.1
 40
0.1
 40
0.2
 40
0.2
 40
0.2
 40
0.3
 40
0.3
 40
0.3
 40
0.4
 40
0.4
 40
0.4
 40
0.5
 40
0.5
 40
0.5
 40
0.6000000000000001
 40
0.6000000000000001
 40
0.6000000000000001
 40
0.7000000000000001
 40
0.7000000000000001
 40
0.7000000000000001
 40
0.8
 40
0.8
 40
0.8
 40
0.9
 40
0.9
 40
0.9
 40
1.0
 40
1.0
 40
1.0
 40
1.0
 10
522.2881
 20
268.0243
 30
0.0
 10
536.4007
 20
243.2499
 30
0.0
 10
617.6487
 20
191.4973
 30
0.0
 10
603.7788
 20
142.5907
 30
0.0
 10
603.5334
 20
141.7244
 30
0.0
 10
603.3677
 20
140.8732
 30
0.0
 10
602.7842
 20
140.164
 30
0.0
 10
598.1787
 20
134.5689
 30
0.0
 10
571.033
 20
125.9296
 30
0.0
 10
570.6492
 20
162.5747
 30
0.0
 10
571.2444
 20
196.4242
 30
0.0
 10
529.315
 20
161.9994
 30
0.0
 10
522.309
 20
153.0609
 30
0.0
 10
522.3011
 20
153.0704
 30
0.0
 10
522.2946
 20
153.0786
 30
0.0
 10
522.2881
 20
153.0855
 30
0.0
 10
522.2803
 20
153.0786
 30
0.0
 10
522.2737
 20
153.0704
 30
0.0
 10
522.2672
 20
153.0609
 30
0.0
 10
515.2611
 20
161.9994
 30
0.0
 10
473.3318
 20
196.4242
 30
0.0
 10
473.927
 20
162.5747
 30
0.0
 10
473.5419
 20
125.9296
 30
0.0
 10
446.3975
 20
134.5689
 30
0.0
 10
441.792
 20
140.164
 30
0.0
 10
441.2098
 20
140.8732
 30
0.0
 10
441.0427
 20
141.7244
 30
0.0
 10
440.7974
 20
142.5907
 30
0.0
 10
426.9288
 20
191.4973
 30
0.0
 10
508.1755
 20
243.2499
 30
0.0
 10
522.2881
 20
268.0243
 30
0.0
  0
SPLINE
  5
7F
330
1F
100
AcDbEntity
  8
Layer 1
 62
   250
370
     9
100
AcDbSpline
210
0.0
220
0.0
230
1.0
 70
    11
 71
     3
 72
    35
 73
    31
 74
     0
 42
0.0000000001
 43
0.0000000001
 40
0.0
 40
0.0
 40
0.0
 40
0.0
 40
0.1
 40
0.1
 40
0.1
 40
0.2
 40
0.2
 40
0.2
 40
0.3
 40
0.3
 40
0.3
 40
0.4
 40
0.4
 40
0.4
 40
0.5
 40
0.5
 40
0.5
 40
0.6000000000000001
 40
0.6000000000000001
 40
0.6000000000000001
 40
0.7000000000000001
 40
0.7000000000000001
 40
0.7000000000000001
 40
0.8
 40
0.8
 40
0.8
 40
0.9
 40
0.9
 40
0.9
 40
1.0
 40
1.0
 40
1.0
 40
1.0
 10
522.2881
 20
-268.5082
 30
0.0
 10
536.4007
 20
-243.7339
 30
0.0
 10
617.6487
 20
-191.9798
 30
0.0
 10
603.7788
 20
-143.0745
 30
0.0
 10
603.5334
 20
-142.2083
 30
0.0
 10
603.3677
 20
-141.3557
 30
0.0
 10
602.7842
 20
-140.648
 30
0.0
 10
598.1787
 20
-135.0528
 30
0.0
 10
571.033
 20
-126.4121
 30
0.0
 10
570.6492
 20
-163.0572
 30
0.0
 10
571.2444
 20
-196.9068
 30
0.0
 10
529.315
 20
-162.4834
 30
0.0
 10
522.309
 20
-153.5448
 30
0.0
 10
522.3011
 20
-153.553
 30
0.0
 10
522.2946
 20
-153.5612
 30
0.0
 10
522.2881
 20
-153.5694
 30
0.0
 10
522.2803
 20
-153.5612
 30
0.0
 10
522.2737
 20
-153.553
 30
0.0
 10
522.2672
 20
-153.5448
 30
0.0
 10
515.2611
 20
-162.4834
 30
0.0
 10
473.3318
 20
-196.9068
 30
0.0
 10
473.927
 20
-163.0572
 30
0.0
 10
473.5419
 20
-126.4121
 30
0.0
 10
446.3975
 20
-135.0528
 30
0.0
 10
441.792
 20
-140.648
 30
0.0
 10
441.2098
 20
-141.3557
 30
0.0
 10
441.0427
 20
-142.2083
 30
0.0
 10
440.7974
 20
-143.0745
 30
0.0
 10
426.9288
 20
-191.9798
 30
0.0
 10
508.1755
 20
-243.7339
 30
0.0
 10
522.2881
 20
-268.5082
 30
0.0
  0
SPLINE
  5
80
330
1F
100
AcDbEntity
  8
Layer 1
 62
   250
370
     9
100
AcDbSpline
210
0.0
220
0.0
230
1.0
 70
    11
 71
     3
 72
    53
 73
    49
 74
     0
 42
0.0000000001
 43
0.0000000001
 40
0.0
 40
0.0
 40
0.0
 40
0.0
 40
0.0625
 40
0.0625
 40
0.0625
 40
0.125
 40
0.125
 40
0.125
 40
0.1875
 40
0.1875
 40
0.1875
 40
0.25
 40
0.25
 40
0.25
 40
0.3125
 40
0.3125
 40
0.3125
 40
0.375
 40
0.375
 40
0.375
 40
0.4375
 40
0.4375
 40
0.4375
 40
0.5
 40
0.5
 40
0.5
 40
0.5625
 40
0.5625
 40
0.5625
 40
0.625
 40
0.625
 40
0.625
 40
0.6875
 40
0.6875
 40
0.6875
 40
0.75
 40
0.75
 40
0.75
 40
0.8125
 40
0.8125
 40
0.8125
 40
0.875
 40
0.875
 40
0.875
 40
0.9375
 40
0.9375
 40
0.9375
 40
1.0
 40
1.0
 40
1.0
 40
1.0
 10
522.2881
 20
99.9091
 30
0.0
 10
512.2417
 20
80.4442
 30
0.0
 10
492.4924
 20
67.158
 30
0.0
 10
469.8581
 20
67.158
 30
0.0
 10
465.0608
 20
67.158
 30
0.0
 10
460.3913
 20
67.7619
 30
0.0
 10
455.9177
 20
68.8877
 30
0.0
 10
456.9986
 20
64.2272
 30
0.0
 10
457.5756
 20
59.3644
 30
0.0
 10
457.5756
 20
54.3664
 30
0.0
 10
457.5756
 20
30.7916
 30
0.0
 10
444.8232
 20
10.2255
 30
0.0
 10
426.1364
 20
-0.2406
 30
0.0
 10
444.8232
 20
-10.7054
 30
0.0
 10
457.5756
 20
-31.2755
 30
0.0
 10
457.5756
 20
-54.8489
 30
0.0
 10
457.5756
 20
-59.847
 30
0.0
 10
456.9986
 20
-64.7139
 30
0.0
 10
455.9177
 20
-69.3731
 30
0.0
 10
460.3913
 20
-68.2458
 30
0.0
 10
465.0608
 20
-67.6433
 30
0.0
 10
469.8581
 20
-67.6433
 30
0.0
 10
492.4924
 20
-67.6433
 30
0.0
 10
512.2405
 20
-80.9282
 30
0.0
 10
522.2881
 20
-100.3916
 30
0.0
 10
532.337
 20
-80.9282
 30
0.0
 10
552.0838
 20
-67.6433
 30
0.0
 10
574.7168
 20
-67.6433
 30
0.0
 10
579.5154
 20
-67.6433
 30
0.0
 10
584.1835
 20
-68.2431
 30
0.0
 10
588.6571
 20
-69.369
 30
0.0
 10
587.5762
 20
-64.7084
 30
0.0
 10
586.9993
 20
-59.847
 30
0.0
 10
586.9993
 20
-54.8475
 30
0.0
 10
586.9993
 20
-31.2755
 30
0.0
 10
599.753
 20
-10.7054
 30
0.0
 10
618.4398
 20
-0.2406
 30
0.0
 10
599.753
 20
10.2255
 30
0.0
 10
586.9993
 20
30.7916
 30
0.0
 10
586.9993
 20
54.3664
 30
0.0
 10
586.9993
 20
59.3644
 30
0.0
 10
587.5762
 20
64.2272
 30
0.0
 10
588.6571
 20
68.8877
 30
0.0
 10
584.1822
 20
67.7633
 30
0.0
 10
579.5142
 20
67.1593
 30
0.0
 10
574.7168
 20
67.1593
 30
0.0
 10
552.0838
 20
67.1593
 30
0.0
 10
532.337
 20
80.4442
 30
0.0
 10
522.2881
 20
99.9091
 30
0.0
  0
SPLINE
  5
81
330
1F
100
AcDbEntity
  8
Layer 1
 62
   250
370
     9
100
AcDbSpline
210
0.0
220
0.0
230
1.0
 70
    11
 71
     3
 72
    53
 73
    49
 74
     0
 42
0.0000000001
 43
0.0000000001
 40
0.0
 40
0.0
 40
0.0
 40
0.0
 40
0.0625
 40
0.0625
 40
0.0625
 40
0.125
 40
0.125
 40
0.125
 40
0.1875
 40
0.1875
 40
0.1875
 40
0.25
 40
0.25
 40
0.25
 40
0.3125
 40
0.3125
 40
0.3125
 40
0.375
 40
0.375
 40
0.375
 40
0.4375
 40
0.4375
 40
0.4375
 40
0.5
 40
0.5
 40
0.5
 40
0.5625
 40
0.5625
 40
0.5625
 40
0.625
 40
0.625
 40
0.625
 40
0.6875
 40
0.6875
 40
0.6875
 40
0.75
 40
0.75
 40
0.75
 40
0.8125
 40
0.8125
 40
0.8125
 40
0.875
 40
0.875
 40
0.875
 40
0.9375
 40
0.9375
 40
0.9375
 40
1.0
 40
1.0
 40
1.0
 40
1.0
 10
873.773
 20
500.8424
 30
0.0
 10
906.1076
 20
500.8424
 30
0.0
 10
932.4845
 20
473.3709
 30
0.0
 10
932.4845
 20
439.6894
 30
0.0
 10
932.4845
 20
435.9934
 30
0.0
 10
932.166
 20
432.374
 30
0.0
 10
931.5577
 20
428.8557
 30
0.0
 10
934.9361
 20
429.4883
 30
0.0
 10
938.4123
 20
429.8189
 30
0.0
 10
941.9605
 20
429.8189
 30
0.0
 10
974.2991
 20
429.8189
 30
0.0
 10
1000.6733
 20
402.3488
 30
0.0
 10
1000.6746
 20
368.6699
 30
0.0
 10
1000.6733
 20
334.9871
 30
0.0
 10
974.2991
 20
307.5169
 30
0.0
 10
941.9617
 20
307.5169
 30
0.0
 10
938.4123
 20
307.5169
 30
0.0
 10
934.9348
 20
307.8489
 30
0.0
 10
931.5564
 20
308.4829
 30
0.0
 10
932.166
 20
304.9645
 30
0.0
 10
932.4833
 20
301.341
 30
0.0
 10
932.4833
 20
297.6465
 30
0.0
 10
932.4845
 20
263.965
 30
0.0
 10
906.109
 20
236.4948
 30
0.0
 10
873.773
 20
236.4934
 30
0.0
 10
841.4344
 20
236.4948
 30
0.0
 10
815.0601
 20
263.965
 30
0.0
 10
815.0601
 20
297.6451
 30
0.0
 10
815.0601
 20
301.341
 30
0.0
 10
815.3787
 20
304.9645
 30
0.0
 10
815.9869
 20
308.4829
 30
0.0
 10
812.6086
 20
307.8489
 30
0.0
 10
809.131
 20
307.5169
 30
0.0
 10
805.5842
 20
307.5169
 30
0.0
 10
773.2456
 20
307.5169
 30
0.0
 10
746.8701
 20
334.9871
 30
0.0
 10
746.8701
 20
368.6699
 30
0.0
 10
746.8701
 20
402.3488
 30
0.0
 10
773.2456
 20
429.8203
 30
0.0
 10
805.5829
 20
429.8203
 30
0.0
 10
809.131
 20
429.8203
 30
0.0
 10
812.6086
 20
429.4883
 30
0.0
 10
815.9869
 20
428.8557
 30
0.0
 10
815.3787
 20
432.374
 30
0.0
 10
815.0601
 20
435.9934
 30
0.0
 10
815.0601
 20
439.688
 30
0.0
 10
815.0614
 20
473.3709
 30
0.0
 10
841.4344
 20
500.8424
 30
0.0
 10
873.773
 20
500.8424
 30
0.0
  0
SPLINE
  5
82
330
1F
100
AcDbEntity
  8
Layer 1
 62
   250
370
     9
100
AcDbSpline
210
0.0
220
0.0
230
1.0
 70
    11
 71
     3
 72
    53
 73
    49
 74
     0
 42
0.0000000001
 43
0.0000000001
 40
0.0
 40
0.0
 40
0.0
 40
0.0
 40
0.0625
 40
0.0625
 40
0.0625
 40
0.125
 40
0.125
 40
0.125
 40
0.1875
 40
0.1875
 40
0.1875
 40
0.25
 40
0.25
 40
0.25
 40
0.3125
 40
0.3125
 40
0.3125
 40
0.375
 40
0.375
 40
0.375
 40
0.4375
 40
0.4375
 40
0.4375
 40
0.5
 40
0.5
 40
0.5
 40
0.5625
 40
0.5625
 40
0.5625
 40
0.625
 40
0.625
 40
0.625
 40
0.6875
 40
0.6875
 40
0.6875
 40
0.75
 40
0.75
 40
0.75
 40
0.8125
 40
0.8125
 40
0.8125
 40
0.875
 40
0.875
 40
0.875
 40
0.9375
 40
0.9375
 40
0.9375
 40
1.0
 40
1.0
 40
1.0
 40
1.0
 10
873.773
 20
-235.4921
 30
0.0
 10
906.1076
 20
-235.4921
 30
0.0
 10
932.4845
 20
-262.9623
 30
0.0
 10
932.4845
 20
-296.6424
 30
0.0
 10
932.4845
 20
-300.3384
 30
0.0
 10
932.166
 20
-303.9592
 30
0.0
 10
931.5577
 20
-307.4775
 30
0.0
 10
934.9361
 20
-306.8435
 30
0.0
 10
938.4123
 20
-306.5143
 30
0.0
 10
941.9605
 20
-306.5143
 30
0.0
 10
974.2991
 20
-306.5129
 30
0.0
 10
1000.6733
 20
-333.9844
 30
0.0
 10
1000.6746
 20
-367.6646
 30
0.0
 10
1000.6733
 20
-401.3447
 30
0.0
 10
974.2991
 20
-428.8149
 30
0.0
 10
941.9617
 20
-428.8149
 30
0.0
 10
938.4123
 20
-428.8149
 30
0.0
 10
934.9348
 20
-428.4842
 30
0.0
 10
931.5564
 20
-427.8517
 30
0.0
 10
932.166
 20
-431.3686
 30
0.0
 10
932.4833
 20
-434.9894
 30
0.0
 10
932.4833
 20
-438.6867
 30
0.0
 10
932.4845
 20
-472.3682
 30
0.0
 10
906.109
 20
-499.8384
 30
0.0
 10
873.773
 20
-499.8384
 30
0.0
 10
841.4344
 20
-499.8384
 30
0.0
 10
815.0601
 20
-472.3682
 30
0.0
 10
815.0601
 20
-438.6881
 30
0.0
 10
815.0601
 20
-434.9894
 30
0.0
 10
815.3787
 20
-431.3686
 30
0.0
 10
815.9869
 20
-427.8517
 30
0.0
 10
812.6086
 20
-428.4842
 30
0.0
 10
809.131
 20
-428.8149
 30
0.0
 10
805.5842
 20
-428.8149
 30
0.0
 10
773.2456
 20
-428.8149
 30
0.0
 10
746.8701
 20
-401.3447
 30
0.0
 10
746.8701
 20
-367.6646
 30
0.0
 10
746.8701
 20
-333.9844
 30
0.0
 10
773.2456
 20
-306.5129
 30
0.0
 10
805.5829
 20
-306.5129
 30
0.0
 10
809.131
 20
-306.5129
 30
0.0
 10
812.6086
 20
-306.8435
 30
0.0
 10
815.9869
 20
-307.4775
 30
0.0
 10
815.3787
 20
-303.9592
 30
0.0
 10
815.0601
 20
-300.3398
 30
0.0
 10
815.0601
 20
-296.6438
 30
0.0
 10
815.0614
 20
-262.9623
 30
0.0
 10
841.4344
 20
-235.4921
 30
0.0
 10
873.773
 20
-235.4921
 30
0.0
  0
SPLINE
  5
83
330
1F
100
AcDbEntity
  8
Layer 1
 62
   250
370
     9
100
AcDbSpline
210
0.0
220
0.0
230
1.0
 70
    11
 71
     3
 72
    44
 73
    40
 74
     0
 42
0.0000000001
 43
0.0000000001
 40
0.0
 40
0.0
 40
0.0
 40
0.0
 40
0.0769230769230769
 40
0.0769230769230769
 40
0.0769230769230769
 40
0.1538461538461539
 40
0.1538461538461539
 40
0.1538461538461539
 40
0.2307692307692308
 40
0.2307692307692308
 40
0.2307692307692308
 40
0.3076923076923077
 40
0.3076923076923077
 40
0.3076923076923077
 40
0.3846153846153846
 40
0.3846153846153846
 40
0.3846153846153846
 40
0.4615384615384616
 40
0.4615384615384616
 40
0.4615384615384616
 40
0.5384615384615385
 40
0.5384615384615385
 40
0.5384615384615385
 40
0.6153846153846154
 40
0.6153846153846154
 40
0.6153846153846154
 40
0.6923076923076923
 40
0.6923076923076923
 40
0.6923076923076923
 40
0.7692307692307693
 40
0.7692307692307693
 40
0.7692307692307693
 40
0.8461538461538463
 40
0.8461538461538463
 40
0.8461538461538463
 40
0.9230769230769231
 40
0.9230769230769231
 40
0.9230769230769231
 40
1.0
 40
1.0
 40
1.0
 40
1.0
 10
75.5444
 20
-466.9576
 30
0.0
 10
75.5444
 20
-466.9576
 30
0.0
 10
75.2585
 20
-466.6473
 30
0.0
 10
75.2585
 20
-466.6473
 30
0.0
 10
64.9093
 20
-465.0501
 30
0.0
 10
21.3952
 20
-455.1852
 30
0.0
 10
-9.3065
 20
-400.0003
 30
0.0
 10
-9.3065
 20
-400.0003
 30
0.0
 10
-133.6234
 20
-400.0003
 30
0.0
 10
-133.6234
 20
-400.0003
 30
0.0
 10
-130.4631
 20
-410.2109
 30
0.0
 10
-115.776
 20
-446.6388
 30
0.0
 10
-57.8556
 20
-490.8028
 30
0.0
 10
-57.8556
 20
-490.8028
 30
0.0
 10
-28.5494
 20
-522.4048
 30
0.0
 10
-20.1765
 20
-577.7345
 30
0.0
 10
-20.1791
 20
-577.7372
 30
0.0
 10
-19.9559
 20
-577.8111
 30
0.0
 10
-19.5486
 20
-577.9422
 30
0.0
 10
-19.5212
 20
-577.9518
 30
0.0
 10
-19.5029
 20
-577.9586
 30
0.0
 10
-19.4755
 20
-577.9654
 30
0.0
 10
-11.0583
 20
-580.0846
 30
0.0
 10
0.7791
 20
-584.5567
 30
0.0
 10
13.0811
 20
-590.037
 30
0.0
 10
13.0811
 20
-590.037
 30
0.0
 10
140.1629
 20
-590.037
 30
0.0
 10
140.1629
 20
-590.037
 30
0.0
 10
140.1629
 20
-590.037
 30
0.0
 10
140.1629
 20
-556.8228
 30
0.0
 10
140.1629
 20
-556.8228
 30
0.0
 10
89.3764
 20
-525.8015
 30
0.0
 10
78.4881
 20
-479.2163
 30
0.0
 10
76.5547
 20
-468.0451
 30
0.0
 10
76.5547
 20
-468.0451
 30
0.0
 10
75.8981
 20
-467.3373
 30
0.0
 10
75.8981
 20
-467.3373
 30
0.0
 10
75.8981
 20
-467.3373
 30
0.0
 10
75.5444
 20
-466.9576
 30
0.0
 10
75.5444
 20
-466.9576
 30
0.0
  0
SPLINE
  5
84
330
1F
100
AcDbEntity
  8
Layer 1
 62
   250
370
     9
100
AcDbSpline
210
0.0
220
0.0
230
1.0
 70
    11
 71
     3
 72
    44
 73
    40
 74
     0
 42
0.0000000001
 43
0.0000000001
 40
0.0
 40
0.0
 40
0.0
 40
0.0
 40
0.0769230769230769
 40
0.0769230769230769
 40
0.0769230769230769
 40
0.1538461538461539
 40
0.1538461538461539
 40
0.1538461538461539
 40
0.2307692307692308
 40
0.2307692307692308
 40
0.2307692307692308
 40
0.3076923076923077
 40
0.3076923076923077
 40
0.3076923076923077
 40
0.3846153846153846
 40
0.3846153846153846
 40
0.3846153846153846
 40
0.4615384615384616
 40
0.4615384615384616
 40
0.4615384615384616
 40
0.5384615384615385
 40
0.5384615384615385
 40
0.5384615384615385
 40
0.6153846153846154
 40
0.6153846153846154
 40
0.6153846153846154
 40
0.6923076923076923
 40
0.6923076923076923
 40
0.6923076923076923
 40
0.7692307692307693
 40
0.7692307692307693
 40
0.7692307692307693
 40
0.8461538461538463
 40
0.8461538461538463
 40
0.8461538461538463
 40
0.9230769230769231
 40
0.9230769230769231
 40
0.9230769230769231
 40
1.0
 40
1.0
 40
1.0
 40
1.0
 10
75.5444
 20
-268.373
 30
0.0
 10
75.5444
 20
-268.373
 30
0.0
 10
75.2585
 20
-268.6818
 30
0.0
 10
75.2585
 20
-268.6818
 30
0.0
 10
64.9093
 20
-270.2804
 30
0.0
 10
21.3952
 20
-280.1453
 30
0.0
 10
-9.3065
 20
-335.3303
 30
0.0
 10
-9.3065
 20
-335.3303
 30
0.0
 10
-133.6234
 20
-335.3303
 30
0.0
 10
-133.6234
 20
-335.3303
 30
0.0
 10
-130.4631
 20
-325.1182
 30
0.0
 10
-115.776
 20
-288.6904
 30
0.0
 10
-57.8556
 20
-244.5264
 30
0.0
 10
-57.8556
 20
-244.5264
 30
0.0
 10
-28.5494
 20
-212.9258
 30
0.0
 10
-20.1765
 20
-157.5933
 30
0.0
 10
-20.1791
 20
-157.5905
 30
0.0
 10
-19.9559
 20
-157.5181
 30
0.0
 10
-19.5486
 20
-157.3869
 30
0.0
 10
-19.5212
 20
-157.3788
 30
0.0
 10
-19.5029
 20
-157.3719
 30
0.0
 10
-19.4755
 20
-157.3637
 30
0.0
 10
5.8531
 20
-150.987
 30
0.0
 10
62.1784
 20
-123.2983
 30
0.0
 10
68.8033
 20
-110.9602
 30
0.0
 10
89.3712
 20
-73.1373
 30
0.0
 10
121.9996
 20
-52.1408
 30
0.0
 10
140.1629
 20
-44.3158
 30
0.0
 10
140.1629
 20
-44.3158
 30
0.0
 10
140.1629
 20
-178.5064
 30
0.0
 10
140.1629
 20
-178.5064
 30
0.0
 10
89.3764
 20
-209.5277
 30
0.0
 10
78.4881
 20
-256.1129
 30
0.0
 10
76.5547
 20
-267.284
 30
0.0
 10
76.5547
 20
-267.284
 30
0.0
 10
75.8981
 20
-267.9932
 30
0.0
 10
75.8981
 20
-267.9932
 30
0.0
 10
75.8981
 20
-267.9932
 30
0.0
 10
75.5444
 20
-268.373
 30
0.0
 10
75.5444
 20
-268.373
 30
0.0
  0
SPLINE
  5
85
330
1F
100
AcDbEntity
  8
Layer 1
 62
   250
370
     9
100
AcDbSpline
210
0.0
220
0.0
230
1.0
 70
    11
 71
     3
 72
    53
 73
    49
 74
     0
 42
0.0000000001
 43
0.0000000001
 40
0.0
 40
0.0
 40
0.0
 40
0.0
 40
0.0625
 40
0.0625
 40
0.0625
 40
0.125
 40
0.125
 40
0.125
 40
0.1875
 40
0.1875
 40
0.1875
 40
0.25
 40
0.25
 40
0.25
 40
0.3125
 40
0.3125
 40
0.3125
 40
0.375
 40
0.375
 40
0.375
 40
0.4375
 40
0.4375
 40
0.4375
 40
0.5
 40
0.5
 40
0.5
 40
0.5625
 40
0.5625
 40
0.5625
 40
0.625
 40
0.625
 40
0.625
 40
0.6875
 40
0.6875
 40
0.6875
 40
0.75
 40
0.75
 40
0.75
 40
0.8125
 40
0.8125
 40
0.8125
 40
0.875
 40
0.875
 40
0.875
 40
0.9375
 40
0.9375
 40
0.9375
 40
1.0
 40
1.0
 40
1.0
 40
1.0
 10
172.3749
 20
-235.4921
 30
0.0
 10
204.7122
 20
-235.4921
 30
0.0
 10
231.0878
 20
-262.9623
 30
0.0
 10
231.0878
 20
-296.6424
 30
0.0
 10
231.0878
 20
-300.3384
 30
0.0
 10
230.768
 20
-303.9592
 30
0.0
 10
230.1609
 20
-307.4775
 30
0.0
 10
233.538
 20
-306.8435
 30
0.0
 10
237.0155
 20
-306.5143
 30
0.0
 10
240.5623
 20
-306.5143
 30
0.0
 10
272.9023
 20
-306.5129
 30
0.0
 10
299.2766
 20
-333.9844
 30
0.0
 10
299.2778
 20
-367.6646
 30
0.0
 10
299.2778
 20
-401.3447
 30
0.0
 10
272.9023
 20
-428.8149
 30
0.0
 10
240.5637
 20
-428.8149
 30
0.0
 10
237.0155
 20
-428.8149
 30
0.0
 10
233.538
 20
-428.4842
 30
0.0
 10
230.1597
 20
-427.8517
 30
0.0
 10
230.768
 20
-431.3686
 30
0.0
 10
231.0865
 20
-434.9894
 30
0.0
 10
231.0865
 20
-438.6867
 30
0.0
 10
231.0865
 20
-472.3682
 30
0.0
 10
204.7135
 20
-499.8384
 30
0.0
 10
172.3749
 20
-499.8384
 30
0.0
 10
140.0376
 20
-499.8384
 30
0.0
 10
113.662
 20
-472.3682
 30
0.0
 10
113.662
 20
-438.6881
 30
0.0
 10
113.662
 20
-434.9894
 30
0.0
 10
113.9805
 20
-431.3686
 30
0.0
 10
114.5902
 20
-427.8517
 30
0.0
 10
111.2131
 20
-428.4842
 30
0.0
 10
107.7355
 20
-428.8149
 30
0.0
 10
104.1874
 20
-428.8149
 30
0.0
 10
71.8476
 20
-428.8149
 30
0.0
 10
45.4733
 20
-401.3447
 30
0.0
 10
45.4733
 20
-367.6646
 30
0.0
 10
45.4733
 20
-333.9844
 30
0.0
 10
71.8488
 20
-306.5129
 30
0.0
 10
104.1861
 20
-306.5129
 30
0.0
 10
107.7342
 20
-306.5129
 30
0.0
 10
111.2131
 20
-306.8435
 30
0.0
 10
114.5902
 20
-307.4775
 30
0.0
 10
113.9805
 20
-303.9592
 30
0.0
 10
113.662
 20
-300.3398
 30
0.0
 10
113.662
 20
-296.6438
 30
0.0
 10
113.6633
 20
-262.9623
 30
0.0
 10
140.0376
 20
-235.4921
 30
0.0
 10
172.3749
 20
-235.4921
 30
0.0
  0
SPLINE
  5
86
330
1F
100
AcDbEntity
  8
Layer 1
 62
   250
370
     9
100
AcDbSpline
210
0.0
220
0.0
230
1.0
 70
    11
 71
     3
 72
    53
 73
    49
 74
     0
 42
0.0000000001
 43
0.0000000001
 40
0.0
 40
0.0
 40
0.0
 40
0.0
 40
0.0625
 40
0.0625
 40
0.0625
 40
0.125
 40
0.125
 40
0.125
 40
0.1875
 40
0.1875
 40
0.1875
 40
0.25
 40
0.25
 40
0.25
 40
0.3125
 40
0.3125
 40
0.3125
 40
0.375
 40
0.375
 40
0.375
 40
0.4375
 40
0.4375
 40
0.4375
 40
0.5
 40
0.5
 40
0.5
 40
0.5625
 40
0.5625
 40
0.5625
 40
0.625
 40
0.625
 40
0.625
 40
0.6875
 40
0.6875
 40
0.6875
 40
0.75
 40
0.75
 40
0.75
 40
0.8125
 40
0.8125
 40
0.8125
 40
0.875
 40
0.875
 40
0.875
 40
0.9375
 40
0.9375
 40
0.9375
 40
1.0
 40
1.0
 40
1.0
 40
1.0
 10
172.3749
 20
500.8424
 30
0.0
 10
204.7122
 20
500.8424
 30
0.0
 10
231.0878
 20
473.3709
 30
0.0
 10
231.0878
 20
439.6894
 30
0.0
 10
231.0878
 20
435.9934
 30
0.0
 10
230.768
 20
432.374
 30
0.0
 10
230.1609
 20
428.8557
 30
0.0
 10
233.538
 20
429.4883
 30
0.0
 10
237.0155
 20
429.8189
 30
0.0
 10
240.5623
 20
429.8189
 30
0.0
 10
272.9023
 20
429.8189
 30
0.0
 10
299.2766
 20
402.3488
 30
0.0
 10
299.2778
 20
368.6699
 30
0.0
 10
299.2778
 20
334.9871
 30
0.0
 10
272.9023
 20
307.5169
 30
0.0
 10
240.5637
 20
307.5169
 30
0.0
 10
237.0155
 20
307.5169
 30
0.0
 10
233.538
 20
307.8489
 30
0.0
 10
230.1597
 20
308.4829
 30
0.0
 10
230.768
 20
304.9645
 30
0.0
 10
231.0865
 20
301.341
 30
0.0
 10
231.0865
 20
297.6465
 30
0.0
 10
231.0865
 20
263.965
 30
0.0
 10
204.7135
 20
236.4948
 30
0.0
 10
172.3749
 20
236.4934
 30
0.0
 10
140.0376
 20
236.4948
 30
0.0
 10
113.662
 20
263.965
 30
0.0
 10
113.662
 20
297.6451
 30
0.0
 10
113.662
 20
301.341
 30
0.0
 10
113.9805
 20
304.9645
 30
0.0
 10
114.5902
 20
308.4829
 30
0.0
 10
111.2131
 20
307.8489
 30
0.0
 10
107.7355
 20
307.5169
 30
0.0
 10
104.1874
 20
307.5169
 30
0.0
 10
71.8476
 20
307.5169
 30
0.0
 10
45.4733
 20
334.9871
 30
0.0
 10
45.4733
 20
368.6699
 30
0.0
 10
45.4733
 20
402.3488
 30
0.0
 10
71.8488
 20
429.8203
 30
0.0
 10
104.1861
 20
429.8203
 30
0.0
 10
107.7342
 20
429.8203
 30
0.0
 10
111.2131
 20
429.4883
 30
0.0
 10
114.5902
 20
428.8557
 30
0.0
 10
113.9805
 20
432.374
 30
0.0
 10
113.662
 20
435.9934
 30
0.0
 10
113.662
 20
439.688
 30
0.0
 10
113.6633
 20
473.3709
 30
0.0
 10
140.0376
 20
500.8424
 30
0.0
 10
172.3749
 20
500.8424
 30
0.0
  0
SPLINE
  5
87
330
1F
100
AcDbEntity
  8
Layer 1
 62
   250
370
     9
100
AcDbSpline
210
0.0
220
0.0
230
1.0
 70
    11
 71
     3
 72
    44
 73
    40
 74
     0
 42
0.0000000001
 43
0.0000000001
 40
0.0
 40
0.0
 40
0.0
 40
0.0
 40
0.0769230769230769
 40
0.0769230769230769
 40
0.0769230769230769
 40
0.1538461538461539
 40
0.1538461538461539
 40
0.1538461538461539
 40
0.2307692307692308
 40
0.2307692307692308
 40
0.2307692307692308
 40
0.3076923076923077
 40
0.3076923076923077
 40
0.3076923076923077
 40
0.3846153846153846
 40
0.3846153846153846
 40
0.3846153846153846
 40
0.4615384615384616
 40
0.4615384615384616
 40
0.4615384615384616
 40
0.5384615384615385
 40
0.5384615384615385
 40
0.5384615384615385
 40
0.6153846153846154
 40
0.6153846153846154
 40
0.6153846153846154
 40
0.6923076923076923
 40
0.6923076923076923
 40
0.6923076923076923
 40
0.7692307692307693
 40
0.7692307692307693
 40
0.7692307692307693
 40
0.8461538461538463
 40
0.8461538461538463
 40
0.8461538461538463
 40
0.9230769230769231
 40
0.9230769230769231
 40
0.9230769230769231
 40
1.0
 40
1.0
 40
1.0
 40
1.0
 10
-432.4786
 20
-268.373
 30
0.0
 10
-432.4786
 20
-268.373
 30
0.0
 10
-432.19
 20
-268.6818
 30
0.0
 10
-432.19
 20
-268.6818
 30
0.0
 10
-421.8422
 20
-270.2804
 30
0.0
 10
-378.3254
 20
-280.1453
 30
0.0
 10
-347.6238
 20
-335.3303
 30
0.0
 10
-347.6238
 20
-335.3303
 30
0.0
 10
-223.3107
 20
-335.3303
 30
0.0
 10
-223.3107
 20
-335.3303
 30
0.0
 10
-226.4672
 20
-325.1182
 30
0.0
 10
-241.1569
 20
-288.6904
 30
0.0
 10
-299.0761
 20
-244.5264
 30
0.0
 10
-299.0761
 20
-244.5264
 30
0.0
 10
-328.3822
 20
-212.9258
 30
0.0
 10
-336.7551
 20
-157.5933
 30
0.0
 10
-336.7524
 20
-157.5905
 30
0.0
 10
-336.9743
 20
-157.5181
 30
0.0
 10
-337.3829
 20
-157.3869
 30
0.0
 10
-337.409
 20
-157.3788
 30
0.0
 10
-337.4273
 20
-157.3719
 30
0.0
 10
-337.4548
 20
-157.3637
 30
0.0
 10
-362.7847
 20
-150.987
 30
0.0
 10
-419.1113
 20
-123.2983
 30
0.0
 10
-425.7336
 20
-110.9602
 30
0.0
 10
-446.3014
 20
-73.1387
 30
0.0
 10
-478.9325
 20
-52.1422
 30
0.0
 10
-497.0931
 20
-44.3158
 30
0.0
 10
-497.0931
 20
-44.3158
 30
0.0
 10
-497.0931
 20
-178.5077
 30
0.0
 10
-497.0931
 20
-178.5077
 30
0.0
 10
-446.3092
 20
-209.5277
 30
0.0
 10
-435.4184
 20
-256.1129
 30
0.0
 10
-433.4889
 20
-267.284
 30
0.0
 10
-433.4889
 20
-267.284
 30
0.0
 10
-432.8297
 20
-267.9932
 30
0.0
 10
-432.8297
 20
-267.9932
 30
0.0
 10
-432.8297
 20
-267.9932
 30
0.0
 10
-432.4786
 20
-268.373
 30
0.0
 10
-432.4786
 20
-268.373
 30
0.0
  0
SPLINE
  5
88
330
1F
100
AcDbEntity
  8
Layer 1
 62
   250
370
     9
100
AcDbSpline
210
0.0
220
0.0
230
1.0
 70
    11
 71
     3
 72
    44
 73
    40
 74
     0
 42
0.0000000001
 43
0.0000000001
 40
0.0
 40
0.0
 40
0.0
 40
0.0
 40
0.0769230769230769
 40
0.0769230769230769
 40
0.0769230769230769
 40
0.1538461538461539
 40
0.1538461538461539
 40
0.1538461538461539
 40
0.2307692307692308
 40
0.2307692307692308
 40
0.2307692307692308
 40
0.3076923076923077
 40
0.3076923076923077
 40
0.3076923076923077
 40
0.3846153846153846
 40
0.3846153846153846
 40
0.3846153846153846
 40
0.4615384615384616
 40
0.4615384615384616
 40
0.4615384615384616
 40
0.5384615384615385
 40
0.5384615384615385
 40
0.5384615384615385
 40
0.6153846153846154
 40
0.6153846153846154
 40
0.6153846153846154
 40
0.6923076923076923
 40
0.6923076923076923
 40
0.6923076923076923
 40
0.7692307692307693
 40
0.7692307692307693
 40
0.7692307692307693
 40
0.8461538461538463
 40
0.8461538461538463
 40
0.8461538461538463
 40
0.9230769230769231
 40
0.9230769230769231
 40
0.9230769230769231
 40
1.0
 40
1.0
 40
1.0
 40
1.0
 10
-627.4215
 20
-268.373
 30
0.0
 10
-627.4215
 20
-268.373
 30
0.0
 10
-627.7073
 20
-268.6818
 30
0.0
 10
-627.7073
 20
-268.6818
 30
0.0
 10
-638.0578
 20
-270.2804
 30
0.0
 10
-681.5719
 20
-280.1453
 30
0.0
 10
-712.2723
 20
-335.3303
 30
0.0
 10
-712.2723
 20
-335.3303
 30
0.0
 10
-836.5893
 20
-335.3303
 30
0.0
 10
-836.5893
 20
-335.3303
 30
0.0
 10
-833.4315
 20
-325.1182
 30
0.0
 10
-818.7418
 20
-288.6904
 30
0.0
 10
-760.824
 20
-244.5264
 30
0.0
 10
-760.824
 20
-244.5264
 30
0.0
 10
-731.5165
 20
-212.9258
 30
0.0
 10
-723.1437
 20
-157.5933
 30
0.0
 10
-723.1463
 20
-157.5905
 30
0.0
 10
-722.923
 20
-157.5181
 30
0.0
 10
-722.5158
 20
-157.3869
 30
0.0
 10
-722.4897
 20
-157.3788
 30
0.0
 10
-722.4714
 20
-157.3719
 30
0.0
 10
-722.4439
 20
-157.3637
 30
0.0
 10
-697.114
 20
-150.987
 30
0.0
 10
-640.7875
 20
-123.2983
 30
0.0
 10
-634.1651
 20
-110.9602
 30
0.0
 10
-613.5959
 20
-73.1373
 30
0.0
 10
-580.9662
 20
-52.1408
 30
0.0
 10
-562.8043
 20
-44.3158
 30
0.0
 10
-562.8043
 20
-44.3158
 30
0.0
 10
-562.8043
 20
-178.5064
 30
0.0
 10
-562.8043
 20
-178.5064
 30
0.0
 10
-613.5895
 20
-209.5277
 30
0.0
 10
-624.4791
 20
-256.1129
 30
0.0
 10
-626.411
 20
-267.284
 30
0.0
 10
-626.411
 20
-267.284
 30
0.0
 10
-627.069
 20
-267.9932
 30
0.0
 10
-627.069
 20
-267.9932
 30
0.0
 10
-627.069
 20
-267.9932
 30
0.0
 10
-627.4215
 20
-268.373
 30
0.0
 10
-627.4215
 20
-268.373
 30
0.0
  0
SPLINE
  5
89
330
1F
100
AcDbEntity
  8
Layer 1
 62
   250
370
     9
100
AcDbSpline
210
0.0
220
0.0
230
1.0
 70
    11
 71
     3
 72
    44
 73
    40
 74
     0
 42
0.0000000001
 43
0.0000000001
 40
0.0
 40
0.0
 40
0.0
 40
0.0
 40
0.0769230769230769
 40
0.0769230769230769
 40
0.0769230769230769
 40
0.1538461538461539
 40
0.1538461538461539
 40
0.1538461538461539
 40
0.2307692307692308
 40
0.2307692307692308
 40
0.2307692307692308
 40
0.3076923076923077
 40
0.3076923076923077
 40
0.3076923076923077
 40
0.3846153846153846
 40
0.3846153846153846
 40
0.3846153846153846
 40
0.4615384615384616
 40
0.4615384615384616
 40
0.4615384615384616
 40
0.5384615384615385
 40
0.5384615384615385
 40
0.5384615384615385
 40
0.6153846153846154
 40
0.6153846153846154
 40
0.6153846153846154
 40
0.6923076923076923
 40
0.6923076923076923
 40
0.6923076923076923
 40
0.7692307692307693
 40
0.7692307692307693
 40
0.7692307692307693
 40
0.8461538461538463
 40
0.8461538461538463
 40
0.8461538461538463
 40
0.9230769230769231
 40
0.9230769230769231
 40
0.9230769230769231
 40
1.0
 40
1.0
 40
1.0
 40
1.0
 10
75.5444
 20
469.4509
 30
0.0
 10
75.5444
 20
469.4509
 30
0.0
 10
75.2585
 20
469.142
 30
0.0
 10
75.2585
 20
469.142
 30
0.0
 10
64.9093
 20
467.5434
 30
0.0
 10
21.3952
 20
457.6772
 30
0.0
 10
-9.3065
 20
402.4922
 30
0.0
 10
-9.3065
 20
402.4922
 30
0.0
 10
-133.6234
 20
402.4922
 30
0.0
 10
-133.6234
 20
402.4922
 30
0.0
 10
-130.4631
 20
412.7042
 30
0.0
 10
-115.776
 20
449.1335
 30
0.0
 10
-57.8556
 20
493.2975
 30
0.0
 10
-57.8556
 20
493.2975
 30
0.0
 10
-28.5494
 20
524.8968
 30
0.0
 10
-20.1765
 20
580.2292
 30
0.0
 10
-20.1791
 20
580.2319
 30
0.0
 10
-19.9559
 20
580.3044
 30
0.0
 10
-19.5486
 20
580.4369
 30
0.0
 10
-19.5212
 20
580.4451
 30
0.0
 10
-19.5029
 20
580.4519
 30
0.0
 10
-19.4755
 20
580.4601
 30
0.0
 10
-12.4159
 20
582.2364
 30
0.0
 10
-2.9491
 20
585.6686
 30
0.0
 10
7.1808
 20
589.963
 30
0.0
 10
7.1808
 20
589.963
 30
0.0
 10
140.1629
 20
589.963
 30
0.0
 10
140.1629
 20
589.963
 30
0.0
 10
140.1629
 20
589.963
 30
0.0
 10
140.1629
 20
559.3175
 30
0.0
 10
140.1629
 20
559.3175
 30
0.0
 10
89.3764
 20
528.2948
 30
0.0
 10
78.4881
 20
481.7096
 30
0.0
 10
76.5547
 20
470.5384
 30
0.0
 10
76.5547
 20
470.5384
 30
0.0
 10
75.8981
 20
469.8307
 30
0.0
 10
75.8981
 20
469.8307
 30
0.0
 10
75.8981
 20
469.8307
 30
0.0
 10
75.5444
 20
469.4509
 30
0.0
 10
75.5444
 20
469.4509
 30
0.0
  0
SPLINE
  5
8A
330
1F
100
AcDbEntity
  8
Layer 1
 62
   250
370
     9
100
AcDbSpline
210
0.0
220
0.0
230
1.0
 70
    11
 71
     3
 72
    35
 73
    31
 74
     0
 42
0.0000000001
 43
0.0000000001
 40
0.0
 40
0.0
 40
0.0
 40
0.0
 40
0.1
 40
0.1
 40
0.1
 40
0.2
 40
0.2
 40
0.2
 40
0.3
 40
0.3
 40
0.3
 40
0.4
 40
0.4
 40
0.4
 40
0.5
 40
0.5
 40
0.5
 40
0.6000000000000001
 40
0.6000000000000001
 40
0.6000000000000001
 40
0.7000000000000001
 40
0.7000000000000001
 40
0.7000000000000001
 40
0.8
 40
0.8
 40
0.8
 40
0.9
 40
0.9
 40
0.9
 40
1.0
 40
1.0
 40
1.0
 40
1.0
 10
-178.4651
 20
469.3156
 30
0.0
 10
-164.8133
 20
493.2866
 30
0.0
 10
-88.3353
 20
542.5034
 30
0.0
 10
-95.93
 20
589.963
 30
0.0
 10
-95.93
 20
589.963
 30
0.0
 10
-127.757
 20
589.963
 30
0.0
 10
-127.757
 20
589.963
 30
0.0
 10
-129.172
 20
586.0853
 30
0.0
 10
-130.0362
 20
581.1064
 30
0.0
 10
-130.104
 20
574.7666
 30
0.0
 10
-129.5101
 20
540.9156
 30
0.0
 10
-171.4369
 20
575.3418
 30
0.0
 10
-178.4429
 20
584.2763
 30
0.0
 10
-178.4508
 20
584.2722
 30
0.0
 10
-178.4638
 20
584.264
 30
0.0
 10
-178.4665
 20
584.2517
 30
0.0
 10
-178.4704
 20
584.264
 30
0.0
 10
-178.482
 20
584.2722
 30
0.0
 10
-178.4886
 20
584.2763
 30
0.0
 10
-185.496
 20
575.3418
 30
0.0
 10
-227.4228
 20
540.9156
 30
0.0
 10
-226.8275
 20
574.7666
 30
0.0
 10
-226.8953
 20
581.1064
 30
0.0
 10
-227.7674
 20
586.0853
 30
0.0
 10
-229.1812
 20
589.963
 30
0.0
 10
-229.1812
 20
589.963
 30
0.0
 10
-261.0067
 20
589.963
 30
0.0
 10
-261.0067
 20
589.963
 30
0.0
 10
-268.6016
 20
542.5034
 30
0.0
 10
-192.1209
 20
493.2811
 30
0.0
 10
-178.4651
 20
469.3156
 30
0.0
  0
SPLINE
  5
8B
330
1F
100
AcDbEntity
  8
Layer 1
 62
   250
370
     9
100
AcDbSpline
210
0.0
220
0.0
230
1.0
 70
    11
 71
     3
 72
    44
 73
    40
 74
     0
 42
0.0000000001
 43
0.0000000001
 40
0.0
 40
0.0
 40
0.0
 40
0.0
 40
0.0769230769230769
 40
0.0769230769230769
 40
0.0769230769230769
 40
0.1538461538461539
 40
0.1538461538461539
 40
0.1538461538461539
 40
0.2307692307692308
 40
0.2307692307692308
 40
0.2307692307692308
 40
0.3076923076923077
 40
0.3076923076923077
 40
0.3076923076923077
 40
0.3846153846153846
 40
0.3846153846153846
 40
0.3846153846153846
 40
0.4615384615384616
 40
0.4615384615384616
 40
0.4615384615384616
 40
0.5384615384615385
 40
0.5384615384615385
 40
0.5384615384615385
 40
0.6153846153846154
 40
0.6153846153846154
 40
0.6153846153846154
 40
0.6923076923076923
 40
0.6923076923076923
 40
0.6923076923076923
 40
0.7692307692307693
 40
0.7692307692307693
 40
0.7692307692307693
 40
0.8461538461538463
 40
0.8461538461538463
 40
0.8461538461538463
 40
0.9230769230769231
 40
0.9230769230769231
 40
0.9230769230769231
 40
1.0
 40
1.0
 40
1.0
 40
1.0
 10
-432.4786
 20
469.4509
 30
0.0
 10
-432.4786
 20
469.4509
 30
0.0
 10
-432.19
 20
469.142
 30
0.0
 10
-432.19
 20
469.142
 30
0.0
 10
-421.8422
 20
467.5434
 30
0.0
 10
-378.3254
 20
457.6772
 30
0.0
 10
-347.6238
 20
402.4922
 30
0.0
 10
-347.6238
 20
402.4922
 30
0.0
 10
-223.3107
 20
402.4922
 30
0.0
 10
-223.3107
 20
402.4922
 30
0.0
 10
-226.4672
 20
412.7042
 30
0.0
 10
-241.1569
 20
449.1335
 30
0.0
 10
-299.0761
 20
493.2975
 30
0.0
 10
-299.0761
 20
493.2975
 30
0.0
 10
-328.3822
 20
524.8968
 30
0.0
 10
-336.7551
 20
580.2292
 30
0.0
 10
-336.7524
 20
580.2319
 30
0.0
 10
-336.9743
 20
580.3044
 30
0.0
 10
-337.3829
 20
580.4369
 30
0.0
 10
-337.409
 20
580.4451
 30
0.0
 10
-337.4273
 20
580.4519
 30
0.0
 10
-337.4548
 20
580.4601
 30
0.0
 10
-344.5156
 20
582.2364
 30
0.0
 10
-353.9889
 20
585.6686
 30
0.0
 10
-364.1202
 20
589.963
 30
0.0
 10
-364.1202
 20
589.963
 30
0.0
 10
-497.0931
 20
589.963
 30
0.0
 10
-497.0931
 20
589.963
 30
0.0
 10
-497.0931
 20
589.963
 30
0.0
 10
-497.0931
 20
559.3161
 30
0.0
 10
-497.0931
 20
559.3161
 30
0.0
 10
-446.3092
 20
528.2948
 30
0.0
 10
-435.4184
 20
481.7096
 30
0.0
 10
-433.4889
 20
470.5384
 30
0.0
 10
-433.4889
 20
470.5384
 30
0.0
 10
-432.8297
 20
469.8307
 30
0.0
 10
-432.8297
 20
469.8307
 30
0.0
 10
-432.8297
 20
469.8307
 30
0.0
 10
-432.4786
 20
469.4509
 30
0.0
 10
-432.4786
 20
469.4509
 30
0.0
  0
SPLINE
  5
8C
330
1F
100
AcDbEntity
  8
Layer 1
 62
   250
370
     9
100
AcDbSpline
210
0.0
220
0.0
230
1.0
 70
    11
 71
     3
 72
    44
 73
    40
 74
     0
 42
0.0000000001
 43
0.0000000001
 40
0.0
 40
0.0
 40
0.0
 40
0.0
 40
0.0769230769230769
 40
0.0769230769230769
 40
0.0769230769230769
 40
0.1538461538461539
 40
0.1538461538461539
 40
0.1538461538461539
 40
0.2307692307692308
 40
0.2307692307692308
 40
0.2307692307692308
 40
0.3076923076923077
 40
0.3076923076923077
 40
0.3076923076923077
 40
0.3846153846153846
 40
0.3846153846153846
 40
0.3846153846153846
 40
0.4615384615384616
 40
0.4615384615384616
 40
0.4615384615384616
 40
0.5384615384615385
 40
0.5384615384615385
 40
0.5384615384615385
 40
0.6153846153846154
 40
0.6153846153846154
 40
0.6153846153846154
 40
0.6923076923076923
 40
0.6923076923076923
 40
0.6923076923076923
 40
0.7692307692307693
 40
0.7692307692307693
 40
0.7692307692307693
 40
0.8461538461538463
 40
0.8461538461538463
 40
0.8461538461538463
 40
0.9230769230769231
 40
0.9230769230769231
 40
0.9230769230769231
 40
1.0
 40
1.0
 40
1.0
 40
1.0
 10
-432.4786
 20
267.8904
 30
0.0
 10
-432.4786
 20
267.8904
 30
0.0
 10
-432.19
 20
268.1978
 30
0.0
 10
-432.19
 20
268.1978
 30
0.0
 10
-421.8422
 20
269.7965
 30
0.0
 10
-378.3254
 20
279.6628
 30
0.0
 10
-347.6238
 20
334.849
 30
0.0
 10
-347.6238
 20
334.849
 30
0.0
 10
-223.3095
 20
334.849
 30
0.0
 10
-223.3095
 20
334.849
 30
0.0
 10
-226.4659
 20
324.6371
 30
0.0
 10
-241.1555
 20
288.2092
 30
0.0
 10
-299.0761
 20
244.0437
 30
0.0
 10
-299.0761
 20
244.0437
 30
0.0
 10
-328.3822
 20
212.4432
 30
0.0
 10
-336.7551
 20
157.1093
 30
0.0
 10
-336.7524
 20
157.1079
 30
0.0
 10
-336.9743
 20
157.0355
 30
0.0
 10
-337.3829
 20
156.903
 30
0.0
 10
-337.409
 20
156.8962
 30
0.0
 10
-337.4273
 20
156.8893
 30
0.0
 10
-337.4548
 20
156.8811
 30
0.0
 10
-362.7847
 20
150.5045
 30
0.0
 10
-419.1113
 20
122.8156
 30
0.0
 10
-425.7336
 20
110.4777
 30
0.0
 10
-446.3014
 20
72.6561
 30
0.0
 10
-478.9325
 20
51.6597
 30
0.0
 10
-497.0931
 20
43.8319
 30
0.0
 10
-497.0931
 20
43.8319
 30
0.0
 10
-497.0931
 20
178.0252
 30
0.0
 10
-497.0931
 20
178.0252
 30
0.0
 10
-446.3092
 20
209.0451
 30
0.0
 10
-435.4184
 20
255.6303
 30
0.0
 10
-433.4889
 20
266.8001
 30
0.0
 10
-433.4889
 20
266.8001
 30
0.0
 10
-432.8297
 20
267.5106
 30
0.0
 10
-432.8297
 20
267.5106
 30
0.0
 10
-432.8297
 20
267.5106
 30
0.0
 10
-432.4786
 20
267.8904
 30
0.0
 10
-432.4786
 20
267.8904
 30
0.0
  0
SPLINE
  5
8D
330
1F
100
AcDbEntity
  8
Layer 1
 62
   250
370
     9
100
AcDbSpline
210
0.0
220
0.0
230
1.0
 70
    11
 71
     3
 72
    44
 73
    40
 74
     0
 42
0.0000000001
 43
0.0000000001
 40
0.0
 40
0.0
 40
0.0
 40
0.0
 40
0.0769230769230769
 40
0.0769230769230769
 40
0.0769230769230769
 40
0.1538461538461539
 40
0.1538461538461539
 40
0.1538461538461539
 40
0.2307692307692308
 40
0.2307692307692308
 40
0.2307692307692308
 40
0.3076923076923077
 40
0.3076923076923077
 40
0.3076923076923077
 40
0.3846153846153846
 40
0.3846153846153846
 40
0.3846153846153846
 40
0.4615384615384616
 40
0.4615384615384616
 40
0.4615384615384616
 40
0.5384615384615385
 40
0.5384615384615385
 40
0.5384615384615385
 40
0.6153846153846154
 40
0.6153846153846154
 40
0.6153846153846154
 40
0.6923076923076923
 40
0.6923076923076923
 40
0.6923076923076923
 40
0.7692307692307693
 40
0.7692307692307693
 40
0.7692307692307693
 40
0.8461538461538463
 40
0.8461538461538463
 40
0.8461538461538463
 40
0.9230769230769231
 40
0.9230769230769231
 40
0.9230769230769231
 40
1.0
 40
1.0
 40
1.0
 40
1.0
 10
-627.4215
 20
267.8904
 30
0.0
 10
-627.4215
 20
267.8904
 30
0.0
 10
-627.7073
 20
268.1978
 30
0.0
 10
-627.7073
 20
268.1978
 30
0.0
 10
-638.0578
 20
269.7965
 30
0.0
 10
-681.5733
 20
279.6628
 30
0.0
 10
-712.2723
 20
334.849
 30
0.0
 10
-712.2723
 20
334.849
 30
0.0
 10
-836.5905
 20
334.849
 30
0.0
 10
-836.5905
 20
334.849
 30
0.0
 10
-833.4341
 20
324.6371
 30
0.0
 10
-818.7432
 20
288.2092
 30
0.0
 10
-760.824
 20
244.0437
 30
0.0
 10
-760.824
 20
244.0437
 30
0.0
 10
-731.5165
 20
212.4432
 30
0.0
 10
-723.1437
 20
157.1093
 30
0.0
 10
-723.1463
 20
157.1079
 30
0.0
 10
-722.923
 20
157.0355
 30
0.0
 10
-722.5158
 20
156.903
 30
0.0
 10
-722.4897
 20
156.8962
 30
0.0
 10
-722.4714
 20
156.8893
 30
0.0
 10
-722.4439
 20
156.8811
 30
0.0
 10
-697.114
 20
150.5045
 30
0.0
 10
-640.7875
 20
122.8156
 30
0.0
 10
-634.1651
 20
110.4777
 30
0.0
 10
-613.5959
 20
72.6548
 30
0.0
 10
-580.9662
 20
51.6583
 30
0.0
 10
-562.8043
 20
43.8319
 30
0.0
 10
-562.8043
 20
43.8319
 30
0.0
 10
-562.8043
 20
178.0238
 30
0.0
 10
-562.8043
 20
178.0238
 30
0.0
 10
-613.5895
 20
209.0451
 30
0.0
 10
-624.4791
 20
255.6303
 30
0.0
 10
-626.411
 20
266.8001
 30
0.0
 10
-626.411
 20
266.8001
 30
0.0
 10
-627.069
 20
267.5106
 30
0.0
 10
-627.069
 20
267.5106
 30
0.0
 10
-627.069
 20
267.5106
 30
0.0
 10
-627.4215
 20
267.8904
 30
0.0
 10
-627.4215
 20
267.8904
 30
0.0
  0
SPLINE
  5
8E
330
1F
100
AcDbEntity
  8
Layer 1
 62
   250
370
     9
100
AcDbSpline
210
0.0
220
0.0
230
1.0
 70
    11
 71
     3
 72
    44
 73
    40
 74
     0
 42
0.0000000001
 43
0.0000000001
 40
0.0
 40
0.0
 40
0.0
 40
0.0
 40
0.0769230769230769
 40
0.0769230769230769
 40
0.0769230769230769
 40
0.1538461538461539
 40
0.1538461538461539
 40
0.1538461538461539
 40
0.2307692307692308
 40
0.2307692307692308
 40
0.2307692307692308
 40
0.3076923076923077
 40
0.3076923076923077
 40
0.3076923076923077
 40
0.3846153846153846
 40
0.3846153846153846
 40
0.3846153846153846
 40
0.4615384615384616
 40
0.4615384615384616
 40
0.4615384615384616
 40
0.5384615384615385
 40
0.5384615384615385
 40
0.5384615384615385
 40
0.6153846153846154
 40
0.6153846153846154
 40
0.6153846153846154
 40
0.6923076923076923
 40
0.6923076923076923
 40
0.6923076923076923
 40
0.7692307692307693
 40
0.7692307692307693
 40
0.7692307692307693
 40
0.8461538461538463
 40
0.8461538461538463
 40
0.8461538461538463
 40
0.9230769230769231
 40
0.9230769230769231
 40
0.9230769230769231
 40
1.0
 40
1.0
 40
1.0
 40
1.0
 10
75.5444
 20
267.8904
 30
0.0
 10
75.5444
 20
267.8904
 30
0.0
 10
75.2585
 20
268.1978
 30
0.0
 10
75.2585
 20
268.1978
 30
0.0
 10
64.9093
 20
269.7965
 30
0.0
 10
21.3939
 20
279.6628
 30
0.0
 10
-9.3065
 20
334.849
 30
0.0
 10
-9.3065
 20
334.849
 30
0.0
 10
-133.6247
 20
334.849
 30
0.0
 10
-133.6247
 20
334.849
 30
0.0
 10
-130.4656
 20
324.6371
 30
0.0
 10
-115.7773
 20
288.2092
 30
0.0
 10
-57.8556
 20
244.0437
 30
0.0
 10
-57.8556
 20
244.0437
 30
0.0
 10
-28.5494
 20
212.4432
 30
0.0
 10
-20.1765
 20
157.1093
 30
0.0
 10
-20.1791
 20
157.1079
 30
0.0
 10
-19.9559
 20
157.0355
 30
0.0
 10
-19.5486
 20
156.903
 30
0.0
 10
-19.5212
 20
156.8962
 30
0.0
 10
-19.5029
 20
156.8893
 30
0.0
 10
-19.4755
 20
156.8811
 30
0.0
 10
5.8531
 20
150.5045
 30
0.0
 10
62.1784
 20
122.8156
 30
0.0
 10
68.8033
 20
110.4777
 30
0.0
 10
89.3712
 20
72.6548
 30
0.0
 10
121.9996
 20
51.6583
 30
0.0
 10
140.1629
 20
43.8319
 30
0.0
 10
140.1629
 20
43.8319
 30
0.0
 10
140.1629
 20
178.0238
 30
0.0
 10
140.1629
 20
178.0238
 30
0.0
 10
89.3764
 20
209.0451
 30
0.0
 10
78.4881
 20
255.6303
 30
0.0
 10
76.5547
 20
266.8001
 30
0.0
 10
76.5547
 20
266.8001
 30
0.0
 10
75.8981
 20
267.5106
 30
0.0
 10
75.8981
 20
267.5106
 30
0.0
 10
75.8981
 20
267.5106
 30
0.0
 10
75.5444
 20
267.8904
 30
0.0
 10
75.5444
 20
267.8904
 30
0.0
  0
SPLINE
  5
8F
330
1F
100
AcDbEntity
  8
Layer 1
 62
   250
370
     9
100
AcDbSpline
210
0.0
220
0.0
230
1.0
 70
    11
 71
     3
 72
    35
 73
    31
 74
     0
 42
0.0000000001
 43
0.0000000001
 40
0.0
 40
0.0
 40
0.0
 40
0.0
 40
0.1
 40
0.1
 40
0.1
 40
0.2
 40
0.2
 40
0.2
 40
0.3
 40
0.3
 40
0.3
 40
0.4
 40
0.4
 40
0.4
 40
0.5
 40
0.5
 40
0.5
 40
0.6000000000000001
 40
0.6000000000000001
 40
0.6000000000000001
 40
0.7000000000000001
 40
0.7000000000000001
 40
0.7000000000000001
 40
0.8
 40
0.8
 40
0.8
 40
0.9
 40
0.9
 40
0.9
 40
1.0
 40
1.0
 40
1.0
 40
1.0
 10
79.1003
 20
-0.2419
 30
0.0
 10
55.3121
 20
-14.941
 30
0.0
 10
5.6247
 20
-99.5636
 30
0.0
 10
-41.3317
 20
-85.1174
 30
0.0
 10
-42.1633
 20
-84.8618
 30
0.0
 10
-42.9792
 20
-84.6897
 30
0.0
 10
-43.6606
 20
-84.0817
 30
0.0
 10
-49.0336
 20
-79.2858
 30
0.0
 10
-57.3294
 20
-51.0136
 30
0.0
 10
-22.145
 20
-50.6119
 30
0.0
 10
10.3555
 20
-51.2308
 30
0.0
 10
-22.6959
 20
-7.5601
 30
0.0
 10
-31.2789
 20
-0.2638
 30
0.0
 10
-31.2698
 20
-0.257
 30
0.0
 10
-31.2619
 20
-0.2501
 30
0.0
 10
-31.2541
 20
-0.2419
 30
0.0
 10
-31.2619
 20
-0.2351
 30
0.0
 10
-31.2698
 20
-0.2269
 30
0.0
 10
-31.2789
 20
-0.2187
 30
0.0
 10
-22.6959
 20
7.0775
 30
0.0
 10
10.3555
 20
50.7483
 30
0.0
 10
-22.145
 20
50.1293
 30
0.0
 10
-57.3294
 20
50.5297
 30
0.0
 10
-49.0336
 20
78.8019
 30
0.0
 10
-43.6606
 20
83.5977
 30
0.0
 10
-42.9792
 20
84.2057
 30
0.0
 10
-42.1633
 20
84.378
 30
0.0
 10
-41.3317
 20
84.6334
 30
0.0
 10
5.6247
 20
99.0797
 30
0.0
 10
55.3121
 20
14.4571
 30
0.0
 10
79.1003
 20
-0.2419
 30
0.0
  0
SPLINE
  5
90
330
1F
100
AcDbEntity
  8
Layer 1
 62
   250
370
     9
100
AcDbSpline
210
0.0
220
0.0
230
1.0
 70
    11
 71
     3
 72
    35
 73
    31
 74
     0
 42
0.0000000001
 43
0.0000000001
 40
0.0
 40
0.0
 40
0.0
 40
0.0
 40
0.1
 40
0.1
 40
0.1
 40
0.2
 40
0.2
 40
0.2
 40
0.3
 40
0.3
 40
0.3
 40
0.4
 40
0.4
 40
0.4
 40
0.5
 40
0.5
 40
0.5
 40
0.6000000000000001
 40
0.6000000000000001
 40
0.6000000000000001
 40
0.7000000000000001
 40
0.7000000000000001
 40
0.7000000000000001
 40
0.8
 40
0.8
 40
0.8
 40
0.9
 40
0.9
 40
0.9
 40
1.0
 40
1.0
 40
1.0
 40
1.0
 10
-436.0318
 20
-0.2419
 30
0.0
 10
-412.2462
 20
-14.941
 30
0.0
 10
-362.5576
 20
-99.5636
 30
0.0
 10
-315.6024
 20
-85.1174
 30
0.0
 10
-314.7708
 20
-84.8618
 30
0.0
 10
-313.9524
 20
-84.6897
 30
0.0
 10
-313.2722
 20
-84.0817
 30
0.0
 10
-307.9005
 20
-79.2858
 30
0.0
 10
-299.6034
 20
-51.0136
 30
0.0
 10
-334.7892
 20
-50.6119
 30
0.0
 10
-367.287
 20
-51.2308
 30
0.0
 10
-334.2357
 20
-7.5601
 30
0.0
 10
-325.6539
 20
-0.2638
 30
0.0
 10
-325.6618
 20
-0.257
 30
0.0
 10
-325.6696
 20
-0.2501
 30
0.0
 10
-325.6775
 20
-0.2419
 30
0.0
 10
-325.6696
 20
-0.2351
 30
0.0
 10
-325.6618
 20
-0.2269
 30
0.0
 10
-325.6539
 20
-0.2187
 30
0.0
 10
-334.2357
 20
7.0775
 30
0.0
 10
-367.287
 20
50.7483
 30
0.0
 10
-334.7892
 20
50.1293
 30
0.0
 10
-299.6034
 20
50.5297
 30
0.0
 10
-307.9005
 20
78.8019
 30
0.0
 10
-313.2722
 20
83.5977
 30
0.0
 10
-313.9524
 20
84.2057
 30
0.0
 10
-314.7708
 20
84.378
 30
0.0
 10
-315.6024
 20
84.6334
 30
0.0
 10
-362.5576
 20
99.0797
 30
0.0
 10
-412.2462
 20
14.4571
 30
0.0
 10
-436.0318
 20
-0.2419
 30
0.0
  0
SPLINE
  5
91
330
1F
100
AcDbEntity
  8
Layer 1
 62
   250
370
     9
100
AcDbSpline
210
0.0
220
0.0
230
1.0
 70
    11
 71
     3
 72
    35
 73
    31
 74
     0
 42
0.0000000001
 43
0.0000000001
 40
0.0
 40
0.0
 40
0.0
 40
0.0
 40
0.1
 40
0.1
 40
0.1
 40
0.2
 40
0.2
 40
0.2
 40
0.3
 40
0.3
 40
0.3
 40
0.4
 40
0.4
 40
0.4
 40
0.5
 40
0.5
 40
0.5
 40
0.6000000000000001
 40
0.6000000000000001
 40
0.6000000000000001
 40
0.7000000000000001
 40
0.7000000000000001
 40
0.7000000000000001
 40
0.8
 40
0.8
 40
0.8
 40
0.9
 40
0.9
 40
0.9
 40
1.0
 40
1.0
 40
1.0
 40
1.0
 10
-178.4665
 20
268.0243
 30
0.0
 10
-164.3537
 20
243.2499
 30
0.0
 10
-83.1071
 20
191.4973
 30
0.0
 10
-96.9756
 20
142.5907
 30
0.0
 10
-97.2211
 20
141.7244
 30
0.0
 10
-97.3882
 20
140.8732
 30
0.0
 10
-97.9704
 20
140.164
 30
0.0
 10
-102.5758
 20
134.5689
 30
0.0
 10
-129.7189
 20
125.9296
 30
0.0
 10
-130.104
 20
162.5747
 30
0.0
 10
-129.5101
 20
196.4242
 30
0.0
 10
-171.4382
 20
161.9994
 30
0.0
 10
-178.4456
 20
153.0609
 30
0.0
 10
-178.4521
 20
153.0704
 30
0.0
 10
-178.4586
 20
153.0786
 30
0.0
 10
-178.4665
 20
153.0855
 30
0.0
 10
-178.4729
 20
153.0786
 30
0.0
 10
-178.4795
 20
153.0704
 30
0.0
 10
-178.4873
 20
153.0609
 30
0.0
 10
-185.4946
 20
161.9994
 30
0.0
 10
-227.4228
 20
196.4242
 30
0.0
 10
-226.8275
 20
162.5747
 30
0.0
 10
-227.2126
 20
125.9296
 30
0.0
 10
-254.3584
 20
134.5689
 30
0.0
 10
-258.9624
 20
140.164
 30
0.0
 10
-259.546
 20
140.8732
 30
0.0
 10
-259.7105
 20
141.7244
 30
0.0
 10
-259.9572
 20
142.5907
 30
0.0
 10
-273.8271
 20
191.4973
 30
0.0
 10
-192.5791
 20
243.2499
 30
0.0
 10
-178.4665
 20
268.0243
 30
0.0
  0
SPLINE
  5
92
330
1F
100
AcDbEntity
  8
Layer 1
 62
   250
370
     9
100
AcDbSpline
210
0.0
220
0.0
230
1.0
 70
    11
 71
     3
 72
    35
 73
    31
 74
     0
 42
0.0000000001
 43
0.0000000001
 40
0.0
 40
0.0
 40
0.0
 40
0.0
 40
0.1
 40
0.1
 40
0.1
 40
0.2
 40
0.2
 40
0.2
 40
0.3
 40
0.3
 40
0.3
 40
0.4
 40
0.4
 40
0.4
 40
0.5
 40
0.5
 40
0.5
 40
0.6000000000000001
 40
0.6000000000000001
 40
0.6000000000000001
 40
0.7000000000000001
 40
0.7000000000000001
 40
0.7000000000000001
 40
0.8
 40
0.8
 40
0.8
 40
0.9
 40
0.9
 40
0.9
 40
1.0
 40
1.0
 40
1.0
 40
1.0
 10
-178.4665
 20
-268.5082
 30
0.0
 10
-164.3537
 20
-243.7339
 30
0.0
 10
-83.1071
 20
-191.9798
 30
0.0
 10
-96.9756
 20
-143.0745
 30
0.0
 10
-97.2211
 20
-142.2083
 30
0.0
 10
-97.3882
 20
-141.3557
 30
0.0
 10
-97.9704
 20
-140.648
 30
0.0
 10
-102.5758
 20
-135.0528
 30
0.0
 10
-129.7189
 20
-126.4121
 30
0.0
 10
-130.104
 20
-163.0572
 30
0.0
 10
-129.5101
 20
-196.9068
 30
0.0
 10
-171.4382
 20
-162.4834
 30
0.0
 10
-178.4456
 20
-153.5448
 30
0.0
 10
-178.4521
 20
-153.553
 30
0.0
 10
-178.4586
 20
-153.5612
 30
0.0
 10
-178.4665
 20
-153.5694
 30
0.0
 10
-178.4729
 20
-153.5612
 30
0.0
 10
-178.4795
 20
-153.553
 30
0.0
 10
-178.4873
 20
-153.5448
 30
0.0
 10
-185.4946
 20
-162.4834
 30
0.0
 10
-227.4228
 20
-196.9068
 30
0.0
 10
-226.8275
 20
-163.0572
 30
0.0
 10
-227.2126
 20
-126.4121
 30
0.0
 10
-254.3584
 20
-135.0528
 30
0.0
 10
-258.9624
 20
-140.648
 30
0.0
 10
-259.546
 20
-141.3557
 30
0.0
 10
-259.7105
 20
-142.2083
 30
0.0
 10
-259.9572
 20
-143.0745
 30
0.0
 10
-273.8271
 20
-191.9798
 30
0.0
 10
-192.5791
 20
-243.7339
 30
0.0
 10
-178.4665
 20
-268.5082
 30
0.0
  0
SPLINE
  5
93
330
1F
100
AcDbEntity
  8
Layer 1
 62
   250
370
     9
100
AcDbSpline
210
0.0
220
0.0
230
1.0
 70
    11
 71
     3
 72
    53
 73
    49
 74
     0
 42
0.0000000001
 43
0.0000000001
 40
0.0
 40
0.0
 40
0.0
 40
0.0
 40
0.0625
 40
0.0625
 40
0.0625
 40
0.125
 40
0.125
 40
0.125
 40
0.1875
 40
0.1875
 40
0.1875
 40
0.25
 40
0.25
 40
0.25
 40
0.3125
 40
0.3125
 40
0.3125
 40
0.375
 40
0.375
 40
0.375
 40
0.4375
 40
0.4375
 40
0.4375
 40
0.5
 40
0.5
 40
0.5
 40
0.5625
 40
0.5625
 40
0.5625
 40
0.625
 40
0.625
 40
0.625
 40
0.6875
 40
0.6875
 40
0.6875
 40
0.75
 40
0.75
 40
0.75
 40
0.8125
 40
0.8125
 40
0.8125
 40
0.875
 40
0.875
 40
0.875
 40
0.9375
 40
0.9375
 40
0.9375
 40
1.0
 40
1.0
 40
1.0
 40
1.0
 10
-178.4651
 20
99.9091
 30
0.0
 10
-188.5127
 20
80.4442
 30
0.0
 10
-208.2634
 20
67.158
 30
0.0
 10
-230.8964
 20
67.158
 30
0.0
 10
-235.6963
 20
67.158
 30
0.0
 10
-240.3619
 20
67.7619
 30
0.0
 10
-244.8368
 20
68.8877
 30
0.0
 10
-243.7559
 20
64.2272
 30
0.0
 10
-243.1789
 20
59.3644
 30
0.0
 10
-243.1789
 20
54.3664
 30
0.0
 10
-243.1789
 20
30.7916
 30
0.0
 10
-255.934
 20
10.2255
 30
0.0
 10
-274.6194
 20
-0.2406
 30
0.0
 10
-255.934
 20
-10.7054
 30
0.0
 10
-243.1789
 20
-31.2755
 30
0.0
 10
-243.1789
 20
-54.8489
 30
0.0
 10
-243.1789
 20
-59.847
 30
0.0
 10
-243.7559
 20
-64.7139
 30
0.0
 10
-244.8368
 20
-69.3731
 30
0.0
 10
-240.3619
 20
-68.2458
 30
0.0
 10
-235.6963
 20
-67.6433
 30
0.0
 10
-230.8964
 20
-67.6433
 30
0.0
 10
-208.2634
 20
-67.6433
 30
0.0
 10
-188.5141
 20
-80.9282
 30
0.0
 10
-178.4651
 20
-100.3916
 30
0.0
 10
-168.4174
 20
-80.9282
 30
0.0
 10
-148.6707
 20
-67.6433
 30
0.0
 10
-126.0378
 20
-67.6433
 30
0.0
 10
-121.2378
 20
-67.6433
 30
0.0
 10
-116.571
 20
-68.2431
 30
0.0
 10
-112.0961
 20
-69.369
 30
0.0
 10
-113.1782
 20
-64.7084
 30
0.0
 10
-113.7539
 20
-59.847
 30
0.0
 10
-113.7539
 20
-54.8475
 30
0.0
 10
-113.7539
 20
-31.2755
 30
0.0
 10
-101.0015
 20
-10.7054
 30
0.0
 10
-82.3161
 20
-0.2406
 30
0.0
 10
-101.0028
 20
10.2255
 30
0.0
 10
-113.7539
 20
30.7916
 30
0.0
 10
-113.7553
 20
54.3664
 30
0.0
 10
-113.7553
 20
59.3644
 30
0.0
 10
-113.1795
 20
64.2272
 30
0.0
 10
-112.0974
 20
68.8877
 30
0.0
 10
-116.5723
 20
67.7633
 30
0.0
 10
-121.2391
 20
67.1593
 30
0.0
 10
-126.0378
 20
67.1593
 30
0.0
 10
-148.6721
 20
67.1593
 30
0.0
 10
-168.4174
 20
80.4442
 30
0.0
 10
-178.4651
 20
99.9091
 30
0.0
  0
SPLINE
  5
94
330
1F
100
AcDbEntity
  8
Layer 1
 62
   250
370
     9
100
AcDbSpline
210
0.0
220
0.0
230
1.0
 70
    11
 71
     3
 72
    44
 73
    40
 74
     0
 42
0.0000000001
 43
0.0000000001
 40
0.0
 40
0.0
 40
0.0
 40
0.0
 40
0.0769230769230769
 40
0.0769230769230769
 40
0.0769230769230769
 40
0.1538461538461539
 40
0.1538461538461539
 40
0.1538461538461539
 40
0.2307692307692308
 40
0.2307692307692308
 40
0.2307692307692308
 40
0.3076923076923077
 40
0.3076923076923077
 40
0.3076923076923077
 40
0.3846153846153846
 40
0.3846153846153846
 40
0.3846153846153846
 40
0.4615384615384616
 40
0.4615384615384616
 40
0.4615384615384616
 40
0.5384615384615385
 40
0.5384615384615385
 40
0.5384615384615385
 40
0.6153846153846154
 40
0.6153846153846154
 40
0.6153846153846154
 40
0.6923076923076923
 40
0.6923076923076923
 40
0.6923076923076923
 40
0.7692307692307693
 40
0.7692307692307693
 40
0.7692307692307693
 40
0.8461538461538463
 40
0.8461538461538463
 40
0.8461538461538463
 40
0.9230769230769231
 40
0.9230769230769231
 40
0.9230769230769231
 40
1.0
 40
1.0
 40
1.0
 40
1.0
 10
-1135.4444
 20
267.8904
 30
0.0
 10
-1135.4444
 20
267.8904
 30
0.0
 10
-1135.1572
 20
268.1978
 30
0.0
 10
-1135.1572
 20
268.1978
 30
0.0
 10
-1124.8093
 20
269.7965
 30
0.0
 10
-1081.2913
 20
279.6628
 30
0.0
 10
-1050.5922
 20
334.849
 30
0.0
 10
-1050.5922
 20
334.849
 30
0.0
 10
-926.2753
 20
334.849
 30
0.0
 10
-926.2753
 20
334.849
 30
0.0
 10
-929.4317
 20
324.6371
 30
0.0
 10
-944.1227
 20
288.2092
 30
0.0
 10
-1002.0419
 20
244.0437
 30
0.0
 10
-1002.0419
 20
244.0437
 30
0.0
 10
-1031.3481
 20
212.4432
 30
0.0
 10
-1039.7222
 20
157.1093
 30
0.0
 10
-1039.7196
 20
157.1079
 30
0.0
 10
-1039.9428
 20
157.0355
 30
0.0
 10
-1040.3501
 20
156.903
 30
0.0
 10
-1040.3762
 20
156.8962
 30
0.0
 10
-1040.3945
 20
156.8893
 30
0.0
 10
-1040.4219
 20
156.8811
 30
0.0
 10
-1065.7506
 20
150.5045
 30
0.0
 10
-1122.0784
 20
122.8156
 30
0.0
 10
-1128.6995
 20
110.4777
 30
0.0
 10
-1149.2686
 20
72.6561
 30
0.0
 10
-1181.8983
 20
51.6597
 30
0.0
 10
-1200.0603
 20
43.8319
 30
0.0
 10
-1200.0603
 20
43.8319
 30
0.0
 10
-1200.0603
 20
178.0252
 30
0.0
 10
-1200.0603
 20
178.0252
 30
0.0
 10
-1149.2751
 20
209.0451
 30
0.0
 10
-1138.3842
 20
255.6303
 30
0.0
 10
-1136.4548
 20
266.8001
 30
0.0
 10
-1136.4548
 20
266.8001
 30
0.0
 10
-1135.7956
 20
267.5106
 30
0.0
 10
-1135.7956
 20
267.5106
 30
0.0
 10
-1135.7956
 20
267.5106
 30
0.0
 10
-1135.4444
 20
267.8904
 30
0.0
 10
-1135.4444
 20
267.8904
 30
0.0
  0
SPLINE
  5
95
330
1F
100
AcDbEntity
  8
Layer 1
 62
   250
370
     9
100
AcDbSpline
210
0.0
220
0.0
230
1.0
 70
    11
 71
     3
 72
    44
 73
    40
 74
     0
 42
0.0000000001
 43
0.0000000001
 40
0.0
 40
0.0
 40
0.0
 40
0.0
 40
0.0769230769230769
 40
0.0769230769230769
 40
0.0769230769230769
 40
0.1538461538461539
 40
0.1538461538461539
 40
0.1538461538461539
 40
0.2307692307692308
 40
0.2307692307692308
 40
0.2307692307692308
 40
0.3076923076923077
 40
0.3076923076923077
 40
0.3076923076923077
 40
0.3846153846153846
 40
0.3846153846153846
 40
0.3846153846153846
 40
0.4615384615384616
 40
0.4615384615384616
 40
0.4615384615384616
 40
0.5384615384615385
 40
0.5384615384615385
 40
0.5384615384615385
 40
0.6153846153846154
 40
0.6153846153846154
 40
0.6153846153846154
 40
0.6923076923076923
 40
0.6923076923076923
 40
0.6923076923076923
 40
0.7692307692307693
 40
0.7692307692307693
 40
0.7692307692307693
 40
0.8461538461538463
 40
0.8461538461538463
 40
0.8461538461538463
 40
0.9230769230769231
 40
0.9230769230769231
 40
0.9230769230769231
 40
1.0
 40
1.0
 40
1.0
 40
1.0
 10
-1135.4444
 20
-268.373
 30
0.0
 10
-1135.4444
 20
-268.373
 30
0.0
 10
-1135.1572
 20
-268.6818
 30
0.0
 10
-1135.1572
 20
-268.6818
 30
0.0
 10
-1124.8093
 20
-270.2804
 30
0.0
 10
-1081.2913
 20
-280.1453
 30
0.0
 10
-1050.5922
 20
-335.3303
 30
0.0
 10
-1050.5922
 20
-335.3303
 30
0.0
 10
-926.2766
 20
-335.3303
 30
0.0
 10
-926.2766
 20
-335.3303
 30
0.0
 10
-929.4344
 20
-325.1182
 30
0.0
 10
-944.124
 20
-288.6904
 30
0.0
 10
-1002.0419
 20
-244.5264
 30
0.0
 10
-1002.0419
 20
-244.5264
 30
0.0
 10
-1031.3481
 20
-212.9258
 30
0.0
 10
-1039.7222
 20
-157.5933
 30
0.0
 10
-1039.7196
 20
-157.5905
 30
0.0
 10
-1039.9428
 20
-157.5181
 30
0.0
 10
-1040.3501
 20
-157.3869
 30
0.0
 10
-1040.3762
 20
-157.3788
 30
0.0
 10
-1040.3945
 20
-157.3719
 30
0.0
 10
-1040.4219
 20
-157.3637
 30
0.0
 10
-1065.7506
 20
-150.987
 30
0.0
 10
-1122.0784
 20
-123.2983
 30
0.0
 10
-1128.6995
 20
-110.9602
 30
0.0
 10
-1149.2686
 20
-73.1387
 30
0.0
 10
-1181.8983
 20
-52.1422
 30
0.0
 10
-1200.0603
 20
-44.3158
 30
0.0
 10
-1200.0603
 20
-44.3158
 30
0.0
 10
-1200.0603
 20
-178.5077
 30
0.0
 10
-1200.0603
 20
-178.5077
 30
0.0
 10
-1149.2751
 20
-209.5277
 30
0.0
 10
-1138.3842
 20
-256.1129
 30
0.0
 10
-1136.4548
 20
-267.284
 30
0.0
 10
-1136.4548
 20
-267.284
 30
0.0
 10
-1135.7956
 20
-267.9932
 30
0.0
 10
-1135.7956
 20
-267.9932
 30
0.0
 10
-1135.7956
 20
-267.9932
 30
0.0
 10
-1135.4444
 20
-268.373
 30
0.0
 10
-1135.4444
 20
-268.373
 30
0.0
  0
SPLINE
  5
96
330
1F
100
AcDbEntity
  8
Layer 1
 62
   250
370
     9
100
AcDbSpline
210
0.0
220
0.0
230
1.0
 70
    11
 71
     3
 72
    35
 73
    31
 74
     0
 42
0.0000000001
 43
0.0000000001
 40
0.0
 40
0.0
 40
0.0
 40
0.0
 40
0.1
 40
0.1
 40
0.1
 40
0.2
 40
0.2
 40
0.2
 40
0.3
 40
0.3
 40
0.3
 40
0.4
 40
0.4
 40
0.4
 40
0.5
 40
0.5
 40
0.5
 40
0.6000000000000001
 40
0.6000000000000001
 40
0.6000000000000001
 40
0.7000000000000001
 40
0.7000000000000001
 40
0.7000000000000001
 40
0.8
 40
0.8
 40
0.8
 40
0.9
 40
0.9
 40
0.9
 40
1.0
 40
1.0
 40
1.0
 40
1.0
 10
-623.8669
 20
-0.2419
 30
0.0
 10
-647.6551
 20
-14.941
 30
0.0
 10
-697.3425
 20
-99.5636
 30
0.0
 10
-744.2976
 20
-85.1174
 30
0.0
 10
-745.1292
 20
-84.8618
 30
0.0
 10
-745.9463
 20
-84.6897
 30
0.0
 10
-746.6277
 20
-84.0817
 30
0.0
 10
-752.0007
 20
-79.2858
 30
0.0
 10
-760.2953
 20
-51.0136
 30
0.0
 10
-725.1122
 20
-50.6119
 30
0.0
 10
-692.6117
 20
-51.2308
 30
0.0
 10
-725.663
 20
-7.5601
 30
0.0
 10
-734.2448
 20
-0.2638
 30
0.0
 10
-734.2357
 20
-0.257
 30
0.0
 10
-734.2278
 20
-0.2501
 30
0.0
 10
-734.2213
 20
-0.2419
 30
0.0
 10
-734.2278
 20
-0.2351
 30
0.0
 10
-734.2357
 20
-0.2269
 30
0.0
 10
-734.2448
 20
-0.2187
 30
0.0
 10
-725.663
 20
7.0775
 30
0.0
 10
-692.6117
 20
50.7483
 30
0.0
 10
-725.1122
 20
50.1293
 30
0.0
 10
-760.2953
 20
50.5297
 30
0.0
 10
-752.0007
 20
78.8019
 30
0.0
 10
-746.6277
 20
83.5977
 30
0.0
 10
-745.9463
 20
84.2057
 30
0.0
 10
-745.1292
 20
84.378
 30
0.0
 10
-744.2976
 20
84.6334
 30
0.0
 10
-697.3425
 20
99.0797
 30
0.0
 10
-647.6551
 20
14.4571
 30
0.0
 10
-623.8669
 20
-0.2419
 30
0.0
  0
SPLINE
  5
97
330
1F
100
AcDbEntity
  8
Layer 1
 62
   250
370
     9
100
AcDbSpline
210
0.0
220
0.0
230
1.0
 70
    11
 71
     3
 72
    35
 73
    31
 74
     0
 42
0.0000000001
 43
0.0000000001
 40
0.0
 40
0.0
 40
0.0
 40
0.0
 40
0.1
 40
0.1
 40
0.1
 40
0.2
 40
0.2
 40
0.2
 40
0.3
 40
0.3
 40
0.3
 40
0.4
 40
0.4
 40
0.4
 40
0.5
 40
0.5
 40
0.5
 40
0.6000000000000001
 40
0.6000000000000001
 40
0.6000000000000001
 40
0.7000000000000001
 40
0.7000000000000001
 40
0.7000000000000001
 40
0.8
 40
0.8
 40
0.8
 40
0.9
 40
0.9
 40
0.9
 40
1.0
 40
1.0
 40
1.0
 40
1.0
 10
-1138.999
 20
-0.2419
 30
0.0
 10
-1115.2133
 20
-14.941
 30
0.0
 10
-1065.526
 20
-99.5636
 30
0.0
 10
-1018.5695
 20
-85.1174
 30
0.0
 10
-1017.7367
 20
-84.8618
 30
0.0
 10
-1016.9195
 20
-84.6897
 30
0.0
 10
-1016.2381
 20
-84.0817
 30
0.0
 10
-1010.8677
 20
-79.2858
 30
0.0
 10
-1002.5706
 20
-51.0136
 30
0.0
 10
-1037.7563
 20
-50.6119
 30
0.0
 10
-1070.2542
 20
-51.2308
 30
0.0
 10
-1037.2028
 20
-7.5601
 30
0.0
 10
-1028.6211
 20
-0.2638
 30
0.0
 10
-1028.6302
 20
-0.257
 30
0.0
 10
-1028.6381
 20
-0.2501
 30
0.0
 10
-1028.6446
 20
-0.2419
 30
0.0
 10
-1028.6381
 20
-0.2351
 30
0.0
 10
-1028.6302
 20
-0.2269
 30
0.0
 10
-1028.6211
 20
-0.2187
 30
0.0
 10
-1037.2028
 20
7.0775
 30
0.0
 10
-1070.2542
 20
50.7483
 30
0.0
 10
-1037.7563
 20
50.1293
 30
0.0
 10
-1002.5706
 20
50.5297
 30
0.0
 10
-1010.8677
 20
78.8019
 30
0.0
 10
-1016.2381
 20
83.5977
 30
0.0
 10
-1016.9195
 20
84.2057
 30
0.0
 10
-1017.7367
 20
84.378
 30
0.0
 10
-1018.5695
 20
84.6334
 30
0.0
 10
-1065.526
 20
99.0797
 30
0.0
 10
-1115.2133
 20
14.4571
 30
0.0
 10
-1138.999
 20
-0.2419
 30
0.0
  0
SPLINE
  5
98
330
1F
100
AcDbEntity
  8
Layer 1
 62
   250
370
     9
100
AcDbSpline
210
0.0
220
0.0
230
1.0
 70
    11
 71
     3
 72
    35
 73
    31
 74
     0
 42
0.0000000001
 43
0.0000000001
 40
0.0
 40
0.0
 40
0.0
 40
0.0
 40
0.1
 40
0.1
 40
0.1
 40
0.2
 40
0.2
 40
0.2
 40
0.3
 40
0.3
 40
0.3
 40
0.4
 40
0.4
 40
0.4
 40
0.5
 40
0.5
 40
0.5
 40
0.6000000000000001
 40
0.6000000000000001
 40
0.6000000000000001
 40
0.7000000000000001
 40
0.7000000000000001
 40
0.7000000000000001
 40
0.8
 40
0.8
 40
0.8
 40
0.9
 40
0.9
 40
0.9
 40
1.0
 40
1.0
 40
1.0
 40
1.0
 10
-881.4336
 20
268.0243
 30
0.0
 10
-867.321
 20
243.2499
 30
0.0
 10
-786.0729
 20
191.4973
 30
0.0
 10
-799.9428
 20
142.5907
 30
0.0
 10
-800.1869
 20
141.7244
 30
0.0
 10
-800.3553
 20
140.8732
 30
0.0
 10
-800.9363
 20
140.164
 30
0.0
 10
-805.543
 20
134.5689
 30
0.0
 10
-832.6861
 20
125.9296
 30
0.0
 10
-833.0712
 20
162.5747
 30
0.0
 10
-832.4772
 20
196.4242
 30
0.0
 10
-874.4053
 20
161.9994
 30
0.0
 10
-881.4114
 20
153.0609
 30
0.0
 10
-881.4192
 20
153.0704
 30
0.0
 10
-881.4271
 20
153.0786
 30
0.0
 10
-881.4336
 20
153.0855
 30
0.0
 10
-881.4401
 20
153.0786
 30
0.0
 10
-881.4479
 20
153.0704
 30
0.0
 10
-881.4545
 20
153.0609
 30
0.0
 10
-888.4605
 20
161.9994
 30
0.0
 10
-930.3912
 20
196.4242
 30
0.0
 10
-929.7947
 20
162.5747
 30
0.0
 10
-930.1798
 20
125.9296
 30
0.0
 10
-957.3242
 20
134.5689
 30
0.0
 10
-961.9283
 20
140.164
 30
0.0
 10
-962.5118
 20
140.8732
 30
0.0
 10
-962.6777
 20
141.7244
 30
0.0
 10
-962.9231
 20
142.5907
 30
0.0
 10
-976.7942
 20
191.4973
 30
0.0
 10
-895.5463
 20
243.2499
 30
0.0
 10
-881.4336
 20
268.0243
 30
0.0
  0
SPLINE
  5
99
330
1F
100
AcDbEntity
  8
Layer 1
 62
   250
370
     9
100
AcDbSpline
210
0.0
220
0.0
230
1.0
 70
    11
 71
     3
 72
    35
 73
    31
 74
     0
 42
0.0000000001
 43
0.0000000001
 40
0.0
 40
0.0
 40
0.0
 40
0.0
 40
0.1
 40
0.1
 40
0.1
 40
0.2
 40
0.2
 40
0.2
 40
0.3
 40
0.3
 40
0.3
 40
0.4
 40
0.4
 40
0.4
 40
0.5
 40
0.5
 40
0.5
 40
0.6000000000000001
 40
0.6000000000000001
 40
0.6000000000000001
 40
0.7000000000000001
 40
0.7000000000000001
 40
0.7000000000000001
 40
0.8
 40
0.8
 40
0.8
 40
0.9
 40
0.9
 40
0.9
 40
1.0
 40
1.0
 40
1.0
 40
1.0
 10
-881.4336
 20
-268.5082
 30
0.0
 10
-867.321
 20
-243.7339
 30
0.0
 10
-786.0729
 20
-191.9798
 30
0.0
 10
-799.9428
 20
-143.0745
 30
0.0
 10
-800.1869
 20
-142.2083
 30
0.0
 10
-800.3553
 20
-141.3557
 30
0.0
 10
-800.9363
 20
-140.648
 30
0.0
 10
-805.543
 20
-135.0528
 30
0.0
 10
-832.6861
 20
-126.4121
 30
0.0
 10
-833.0712
 20
-163.0572
 30
0.0
 10
-832.4772
 20
-196.9068
 30
0.0
 10
-874.4053
 20
-162.4834
 30
0.0
 10
-881.4114
 20
-153.5448
 30
0.0
 10
-881.4192
 20
-153.553
 30
0.0
 10
-881.4271
 20
-153.5612
 30
0.0
 10
-881.4336
 20
-153.5694
 30
0.0
 10
-881.4401
 20
-153.5612
 30
0.0
 10
-881.4479
 20
-153.553
 30
0.0
 10
-881.4545
 20
-153.5448
 30
0.0
 10
-888.4605
 20
-162.4834
 30
0.0
 10
-930.3912
 20
-196.9068
 30
0.0
 10
-929.7947
 20
-163.0572
 30
0.0
 10
-930.1798
 20
-126.4121
 30
0.0
 10
-957.3242
 20
-135.0528
 30
0.0
 10
-961.9283
 20
-140.648
 30
0.0
 10
-962.5118
 20
-141.3557
 30
0.0
 10
-962.6777
 20
-142.2083
 30
0.0
 10
-962.9231
 20
-143.0745
 30
0.0
 10
-976.7942
 20
-191.9798
 30
0.0
 10
-895.5463
 20
-243.7339
 30
0.0
 10
-881.4336
 20
-268.5082
 30
0.0
  0
SPLINE
  5
9A
330
1F
100
AcDbEntity
  8
Layer 1
 62
   250
370
     9
100
AcDbSpline
210
0.0
220
0.0
230
1.0
 70
    11
 71
     3
 72
    53
 73
    49
 74
     0
 42
0.0000000001
 43
0.0000000001
 40
0.0
 40
0.0
 40
0.0
 40
0.0
 40
0.0625
 40
0.0625
 40
0.0625
 40
0.125
 40
0.125
 40
0.125
 40
0.1875
 40
0.1875
 40
0.1875
 40
0.25
 40
0.25
 40
0.25
 40
0.3125
 40
0.3125
 40
0.3125
 40
0.375
 40
0.375
 40
0.375
 40
0.4375
 40
0.4375
 40
0.4375
 40
0.5
 40
0.5
 40
0.5
 40
0.5625
 40
0.5625
 40
0.5625
 40
0.625
 40
0.625
 40
0.625
 40
0.6875
 40
0.6875
 40
0.6875
 40
0.75
 40
0.75
 40
0.75
 40
0.8125
 40
0.8125
 40
0.8125
 40
0.875
 40
0.875
 40
0.875
 40
0.9375
 40
0.9375
 40
0.9375
 40
1.0
 40
1.0
 40
1.0
 40
1.0
 10
-881.4323
 20
99.9091
 30
0.0
 10
-891.4799
 20
80.4442
 30
0.0
 10
-911.2293
 20
67.158
 30
0.0
 10
-933.8636
 20
67.158
 30
0.0
 10
-938.6635
 20
67.158
 30
0.0
 10
-943.329
 20
67.7619
 30
0.0
 10
-947.8039
 20
68.8877
 30
0.0
 10
-946.7217
 20
64.2272
 30
0.0
 10
-946.1461
 20
59.3644
 30
0.0
 10
-946.1461
 20
54.3664
 30
0.0
 10
-946.1461
 20
30.7916
 30
0.0
 10
-958.8998
 20
10.2255
 30
0.0
 10
-977.5866
 20
-0.2406
 30
0.0
 10
-958.8998
 20
-10.7054
 30
0.0
 10
-946.1461
 20
-31.2755
 30
0.0
 10
-946.1461
 20
-54.8489
 30
0.0
 10
-946.1461
 20
-59.847
 30
0.0
 10
-946.7217
 20
-64.7139
 30
0.0
 10
-947.8039
 20
-69.3731
 30
0.0
 10
-943.329
 20
-68.2458
 30
0.0
 10
-938.6635
 20
-67.6433
 30
0.0
 10
-933.8636
 20
-67.6433
 30
0.0
 10
-911.2293
 20
-67.6433
 30
0.0
 10
-891.4813
 20
-80.9282
 30
0.0
 10
-881.4323
 20
-100.3916
 30
0.0
 10
-871.3846
 20
-80.9282
 30
0.0
 10
-851.6378
 20
-67.6433
 30
0.0
 10
-829.0049
 20
-67.6433
 30
0.0
 10
-824.2049
 20
-67.6433
 30
0.0
 10
-819.5368
 20
-68.2431
 30
0.0
 10
-815.062
 20
-69.369
 30
0.0
 10
-816.1454
 20
-64.7084
 30
0.0
 10
-816.7211
 20
-59.847
 30
0.0
 10
-816.7211
 20
-54.8475
 30
0.0
 10
-816.7211
 20
-31.2755
 30
0.0
 10
-803.9674
 20
-10.7054
 30
0.0
 10
-785.2806
 20
-0.2406
 30
0.0
 10
-803.9687
 20
10.2255
 30
0.0
 10
-816.7211
 20
30.7916
 30
0.0
 10
-816.7224
 20
54.3664
 30
0.0
 10
-816.7224
 20
59.3644
 30
0.0
 10
-816.1454
 20
64.2272
 30
0.0
 10
-815.0632
 20
68.8877
 30
0.0
 10
-819.5381
 20
67.7633
 30
0.0
 10
-824.2049
 20
67.1593
 30
0.0
 10
-829.0049
 20
67.1593
 30
0.0
 10
-851.6392
 20
67.1593
 30
0.0
 10
-871.3846
 20
80.4442
 30
0.0
 10
-881.4323
 20
99.9091
 30
0.0
  0
SPLINE
  5
9B
330
1F
100
AcDbEntity
  8
Layer 1
 62
   250
370
     9
100
AcDbSpline
210
0.0
220
0.0
230
1.0
 70
    11
 71
     3
 72
    53
 73
    49
 74
     0
 42
0.0000000001
 43
0.0000000001
 40
0.0
 40
0.0
 40
0.0
 40
0.0
 40
0.0625
 40
0.0625
 40
0.0625
 40
0.125
 40
0.125
 40
0.125
 40
0.1875
 40
0.1875
 40
0.1875
 40
0.25
 40
0.25
 40
0.25
 40
0.3125
 40
0.3125
 40
0.3125
 40
0.375
 40
0.375
 40
0.375
 40
0.4375
 40
0.4375
 40
0.4375
 40
0.5
 40
0.5
 40
0.5
 40
0.5625
 40
0.5625
 40
0.5625
 40
0.625
 40
0.625
 40
0.625
 40
0.6875
 40
0.6875
 40
0.6875
 40
0.75
 40
0.75
 40
0.75
 40
0.8125
 40
0.8125
 40
0.8125
 40
0.875
 40
0.875
 40
0.875
 40
0.9375
 40
0.9375
 40
0.9375
 40
1.0
 40
1.0
 40
1.0
 40
1.0
 10
-529.9487
 20
500.8424
 30
0.0
 10
-497.6127
 20
500.8424
 30
0.0
 10
-471.2371
 20
473.3709
 30
0.0
 10
-471.2371
 20
439.6894
 30
0.0
 10
-471.2371
 20
435.9934
 30
0.0
 10
-471.5556
 20
432.374
 30
0.0
 10
-472.1653
 20
428.8557
 30
0.0
 10
-468.7856
 20
429.4883
 30
0.0
 10
-465.308
 20
429.8189
 30
0.0
 10
-461.7613
 20
429.8189
 30
0.0
 10
-429.4227
 20
429.8189
 30
0.0
 10
-403.0484
 20
402.3488
 30
0.0
 10
-403.047
 20
368.6699
 30
0.0
 10
-403.0484
 20
334.9871
 30
0.0
 10
-429.4227
 20
307.5169
 30
0.0
 10
-461.76
 20
307.5169
 30
0.0
 10
-465.3067
 20
307.5169
 30
0.0
 10
-468.7856
 20
307.8489
 30
0.0
 10
-472.1653
 20
308.4829
 30
0.0
 10
-471.5569
 20
304.9645
 30
0.0
 10
-471.2385
 20
301.341
 30
0.0
 10
-471.2385
 20
297.6465
 30
0.0
 10
-471.2371
 20
263.965
 30
0.0
 10
-497.6127
 20
236.4948
 30
0.0
 10
-529.9487
 20
236.4934
 30
0.0
 10
-562.286
 20
236.4948
 30
0.0
 10
-588.6616
 20
263.965
 30
0.0
 10
-588.6616
 20
297.6451
 30
0.0
 10
-588.6616
 20
301.341
 30
0.0
 10
-588.3431
 20
304.9645
 30
0.0
 10
-587.7348
 20
308.4829
 30
0.0
 10
-591.1131
 20
307.8489
 30
0.0
 10
-594.5881
 20
307.5169
 30
0.0
 10
-598.1387
 20
307.5169
 30
0.0
 10
-630.4774
 20
307.5169
 30
0.0
 10
-656.8517
 20
334.9871
 30
0.0
 10
-656.8517
 20
368.6699
 30
0.0
 10
-656.8517
 20
402.3488
 30
0.0
 10
-630.476
 20
429.8203
 30
0.0
 10
-598.1401
 20
429.8203
 30
0.0
 10
-594.5881
 20
429.8203
 30
0.0
 10
-591.1131
 20
429.4883
 30
0.0
 10
-587.7348
 20
428.8557
 30
0.0
 10
-588.3431
 20
432.374
 30
0.0
 10
-588.6616
 20
435.9934
 30
0.0
 10
-588.6616
 20
439.688
 30
0.0
 10
-588.6616
 20
473.3709
 30
0.0
 10
-562.286
 20
500.8424
 30
0.0
 10
-529.9487
 20
500.8424
 30
0.0
  0
SPLINE
  5
9C
330
1F
100
AcDbEntity
  8
Layer 1
 62
   250
370
     9
100
AcDbSpline
210
0.0
220
0.0
230
1.0
 70
    11
 71
     3
 72
    53
 73
    49
 74
     0
 42
0.0000000001
 43
0.0000000001
 40
0.0
 40
0.0
 40
0.0
 40
0.0
 40
0.0625
 40
0.0625
 40
0.0625
 40
0.125
 40
0.125
 40
0.125
 40
0.1875
 40
0.1875
 40
0.1875
 40
0.25
 40
0.25
 40
0.25
 40
0.3125
 40
0.3125
 40
0.3125
 40
0.375
 40
0.375
 40
0.375
 40
0.4375
 40
0.4375
 40
0.4375
 40
0.5
 40
0.5
 40
0.5
 40
0.5625
 40
0.5625
 40
0.5625
 40
0.625
 40
0.625
 40
0.625
 40
0.6875
 40
0.6875
 40
0.6875
 40
0.75
 40
0.75
 40
0.75
 40
0.8125
 40
0.8125
 40
0.8125
 40
0.875
 40
0.875
 40
0.875
 40
0.9375
 40
0.9375
 40
0.9375
 40
1.0
 40
1.0
 40
1.0
 40
1.0
 10
-529.9487
 20
-235.4921
 30
0.0
 10
-497.6127
 20
-235.4921
 30
0.0
 10
-471.2371
 20
-262.9623
 30
0.0
 10
-471.2371
 20
-296.6424
 30
0.0
 10
-471.2371
 20
-300.3384
 30
0.0
 10
-471.5556
 20
-303.9592
 30
0.0
 10
-472.1653
 20
-307.4775
 30
0.0
 10
-468.7856
 20
-306.8435
 30
0.0
 10
-465.308
 20
-306.5143
 30
0.0
 10
-461.7613
 20
-306.5143
 30
0.0
 10
-429.4227
 20
-306.5129
 30
0.0
 10
-403.0484
 20
-333.9844
 30
0.0
 10
-403.047
 20
-367.6646
 30
0.0
 10
-403.0484
 20
-401.3447
 30
0.0
 10
-429.4227
 20
-428.8149
 30
0.0
 10
-461.76
 20
-428.8149
 30
0.0
 10
-465.3067
 20
-428.8149
 30
0.0
 10
-468.7856
 20
-428.4842
 30
0.0
 10
-472.1653
 20
-427.8517
 30
0.0
 10
-471.5569
 20
-431.3686
 30
0.0
 10
-471.2385
 20
-434.9894
 30
0.0
 10
-471.2385
 20
-438.6867
 30
0.0
 10
-471.2371
 20
-472.3682
 30
0.0
 10
-497.6127
 20
-499.8384
 30
0.0
 10
-529.9487
 20
-499.8384
 30
0.0
 10
-562.286
 20
-499.8384
 30
0.0
 10
-588.6616
 20
-472.3682
 30
0.0
 10
-588.6616
 20
-438.6881
 30
0.0
 10
-588.6616
 20
-434.9894
 30
0.0
 10
-588.3431
 20
-431.3686
 30
0.0
 10
-587.7348
 20
-427.8517
 30
0.0
 10
-591.1131
 20
-428.4842
 30
0.0
 10
-594.5881
 20
-428.8149
 30
0.0
 10
-598.1387
 20
-428.8149
 30
0.0
 10
-630.4774
 20
-428.8149
 30
0.0
 10
-656.8517
 20
-401.3447
 30
0.0
 10
-656.8517
 20
-367.6646
 30
0.0
 10
-656.8517
 20
-333.9844
 30
0.0
 10
-630.476
 20
-306.5129
 30
0.0
 10
-598.1401
 20
-306.5129
 30
0.0
 10
-594.5881
 20
-306.5129
 30
0.0
 10
-591.1131
 20
-306.8435
 30
0.0
 10
-587.7348
 20
-307.4775
 30
0.0
 10
-588.3431
 20
-303.9592
 30
0.0
 10
-588.6616
 20
-300.3398
 30
0.0
 10
-588.6616
 20
-296.6438
 30
0.0
 10
-588.6616
 20
-262.9623
 30
0.0
 10
-562.286
 20
-235.4921
 30
0.0
 10
-529.9487
 20
-235.4921
 30
0.0
  0
SPLINE
  5
9D
330
1F
100
AcDbEntity
  8
Layer 1
 62
   250
370
     9
100
AcDbSpline
210
0.0
220
0.0
230
1.0
 70
    11
 71
     3
 72
    32
 73
    28
 74
     0
 42
0.0000000001
 43
0.0000000001
 40
0.0
 40
0.0
 40
0.0
 40
0.0
 40
0.1111111111111111
 40
0.1111111111111111
 40
0.1111111111111111
 40
0.2222222222222222
 40
0.2222222222222222
 40
0.2222222222222222
 40
0.3333333333333333
 40
0.3333333333333333
 40
0.3333333333333333
 40
0.4444444444444444
 40
0.4444444444444444
 40
0.4444444444444444
 40
0.5555555555555556
 40
0.5555555555555556
 40
0.5555555555555556
 40
0.6666666666666666
 40
0.6666666666666666
 40
0.6666666666666666
 40
0.7777777777777777
 40
0.7777777777777777
 40
0.7777777777777777
 40
0.8888888888888888
 40
0.8888888888888888
 40
0.8888888888888888
 40
1.0
 40
1.0
 40
1.0
 40
1.0
 10
-1198.9207
 20
246.6712
 30
0.0
 10
-1198.9207
 20
246.6712
 30
0.0
 10
-1198.9207
 20
490.6618
 30
0.0
 10
-1198.9207
 20
490.6618
 30
0.0
 10
-1183.0641
 20
479.6929
 30
0.0
 10
-1172.5751
 20
460.9277
 30
0.0
 10
-1172.5751
 20
439.6894
 30
0.0
 10
-1172.5751
 20
435.9934
 30
0.0
 10
-1172.8937
 20
432.374
 30
0.0
 10
-1173.502
 20
428.8557
 30
0.0
 10
-1170.1236
 20
429.4883
 30
0.0
 10
-1166.6486
 20
429.8189
 30
0.0
 10
-1163.0979
 20
429.8189
 30
0.0
 10
-1130.7606
 20
429.8189
 30
0.0
 10
-1104.3864
 20
402.3488
 30
0.0
 10
-1104.3864
 20
368.6699
 30
0.0
 10
-1104.3864
 20
334.9871
 30
0.0
 10
-1130.7606
 20
307.5169
 30
0.0
 10
-1163.0979
 20
307.5169
 30
0.0
 10
-1166.6474
 20
307.5169
 30
0.0
 10
-1170.125
 20
307.8489
 30
0.0
 10
-1173.5032
 20
308.4829
 30
0.0
 10
-1172.895
 20
304.9645
 30
0.0
 10
-1172.5778
 20
301.341
 30
0.0
 10
-1172.5778
 20
297.6465
 30
0.0
 10
-1172.5764
 20
276.4082
 30
0.0
 10
-1183.0653
 20
257.6416
 30
0.0
 10
-1198.9207
 20
246.6712
 30
0.0
  0
SPLINE
  5
9E
330
1F
100
AcDbEntity
  8
Layer 1
 62
   250
370
     9
100
AcDbSpline
210
0.0
220
0.0
230
1.0
 70
    11
 71
     3
 72
    32
 73
    28
 74
     0
 42
0.0000000001
 43
0.0000000001
 40
0.0
 40
0.0
 40
0.0
 40
0.0
 40
0.1111111111111111
 40
0.1111111111111111
 40
0.1111111111111111
 40
0.2222222222222222
 40
0.2222222222222222
 40
0.2222222222222222
 40
0.3333333333333333
 40
0.3333333333333333
 40
0.3333333333333333
 40
0.4444444444444444
 40
0.4444444444444444
 40
0.4444444444444444
 40
0.5555555555555556
 40
0.5555555555555556
 40
0.5555555555555556
 40
0.6666666666666666
 40
0.6666666666666666
 40
0.6666666666666666
 40
0.7777777777777777
 40
0.7777777777777777
 40
0.7777777777777777
 40
0.8888888888888888
 40
0.8888888888888888
 40
0.8888888888888888
 40
1.0
 40
1.0
 40
1.0
 40
1.0
 10
-1198.9207
 20
-489.6606
 30
0.0
 10
-1198.9207
 20
-489.6606
 30
0.0
 10
-1198.9207
 20
-245.6727
 30
0.0
 10
-1198.9207
 20
-245.6727
 30
0.0
 10
-1183.0641
 20
-256.643
 30
0.0
 10
-1172.5751
 20
-275.4055
 30
0.0
 10
-1172.5751
 20
-296.6424
 30
0.0
 10
-1172.5751
 20
-300.3384
 30
0.0
 10
-1172.8937
 20
-303.9592
 30
0.0
 10
-1173.502
 20
-307.4775
 30
0.0
 10
-1170.1236
 20
-306.8435
 30
0.0
 10
-1166.6486
 20
-306.5143
 30
0.0
 10
-1163.0979
 20
-306.5143
 30
0.0
 10
-1130.7606
 20
-306.5129
 30
0.0
 10
-1104.3864
 20
-333.9844
 30
0.0
 10
-1104.3864
 20
-367.6646
 30
0.0
 10
-1104.3864
 20
-401.3447
 30
0.0
 10
-1130.7606
 20
-428.8149
 30
0.0
 10
-1163.0979
 20
-428.8149
 30
0.0
 10
-1166.6474
 20
-428.8149
 30
0.0
 10
-1170.125
 20
-428.4842
 30
0.0
 10
-1173.5032
 20
-427.8517
 30
0.0
 10
-1172.895
 20
-431.3686
 30
0.0
 10
-1172.5778
 20
-434.9894
 30
0.0
 10
-1172.5778
 20
-438.6867
 30
0.0
 10
-1172.5764
 20
-459.925
 30
0.0
 10
-1183.0653
 20
-478.6916
 30
0.0
 10
-1198.9207
 20
-489.6606
 30
0.0
  0
ENDSEC
  0
SECTION
  2
OBJECTS
  0
DICTIONARY
  5
C
330
0
100
AcDbDictionary
281
     1
  3
ACAD_DETAILVIEWSTYLE
350
A6
  3
ACAD_GROUP
350
D
  3
ACAD_LAYOUT
350
1A
  3
ACAD_MATERIAL
350
43
  3
ACAD_MLEADERSTYLE
350
5B
  3
ACAD_MLINESTYLE
350
17
  3
ACAD_PLOTSETTINGS
350
19
  3
ACAD_PLOTSTYLENAME
350
E
  3
ACAD_SCALELIST
350
47
  3
ACAD_SECTIONVIEWSTYLE
350
A7
  3
ACAD_TABLESTYLE
350
59
  3
ACAD_VISUALSTYLE
350
2A
  3
ACDB_RECOMPOSE_DATA
350
A3
  3
AcDbVariableDictionary
350
9F
  0
SUN
  5
5D
330
29
100
AcDbSun
 90
        1
290
     0
 63
     7
421
 16777215
 40
1.0
291
     1
 91
  2455826
 92
 54000000
292
     0
 70
     2
 71
   256
280
     1
  0
DICTIONARY
  5
A6
102
{ACAD_REACTORS
330
C
102
}
330
C
100
AcDbDictionary
281
     1
  0
DICTIONARY
  5
D
102
{ACAD_REACTORS
330
C
102
}
330
C
100
AcDbDictionary
281
     1
  0
DICTIONARY
  5
1A
102
{ACAD_REACTORS
330
C
102
}
330
C
100
AcDbDictionary
281
     1
  3
Layout1
350
1E
  3
Layout2
350
26
  3
Model
350
22
  0
DICTIONARY
  5
43
102
{ACAD_REACTORS
330
C
102
}
330
C
100
AcDbDictionary
281
     1
  3
ByBlock
350
45
  3
ByLayer
350
44
  3
Global
350
46
  0
DICTIONARY
  5
5B
102
{ACAD_REACTORS
330
C
102
}
330
C
100
AcDbDictionary
281
     1
  3
Standard
350
5C
  0
DICTIONARY
  5
17
102
{ACAD_REACTORS
330
C
102
}
330
C
100
AcDbDictionary
281
     1
  3
Standard
350
18
  0
DICTIONARY
  5
19
102
{ACAD_REACTORS
330
C
102
}
330
C
100
AcDbDictionary
281
     1
  0
ACDBDICTIONARYWDFLT
  5
E
102
{ACAD_REACTORS
330
C
102
}
330
C
100
AcDbDictionary
281
     1
  3
Normal
350
F
100
AcDbDictionaryWithDefault
340
F
  0
DICTIONARY
  5
47
102
{ACAD_REACTORS
330
C
102
}
330
C
100
AcDbDictionary
281
     1
  3
A0
350
48
  3
A1
350
49
  3
A2
350
4A
  3
A3
350
4B
  3
A4
350
4C
  3
A5
350
4D
  3
A6
350
4E
  3
A7
350
4F
  3
A8
350
50
  3
A9
350
51
  3
B1
350
52
  3
B2
350
53
  3
B3
350
54
  3
B4
350
55
  3
B5
350
56
  3
B6
350
57
  3
B7
350
58
  0
DICTIONARY
  5
A7
102
{ACAD_REACTORS
330
C
102
}
330
C
100
AcDbDictionary
281
     1
  0
DICTIONARY
  5
59
102
{ACAD_REACTORS
330
C
102
}
330
C
100
AcDbDictionary
281
     1
  3
Standard
350
5A
  0
DICTIONARY
  5
2A
102
{ACAD_REACTORS
330
C
102
}
330
C
100
AcDbDictionary
281
     1
  3
2dWireframe
350
2F
  3
Basic
350
32
  3
Brighten
350
36
  3
ColorChange
350
3A
  3
Conceptual
350
34
  3
Dim
350
35
  3
EdgeColorOff
350
3D
  3
Facepattern
350
39
  3
Flat
350
2B
  3
FlatWithEdges
350
2C
  3
Gouraud
350
2D
  3
GouraudWithEdges
350
2E
  3
Hidden
350
31
  3
JitterOff
350
3B
  3
Linepattern
350
38
  3
OverhangOff
350
3C
  3
Realistic
350
33
  3
Shaded
350
42
  3
Shaded with edges
350
41
  3
Shades of Gray
350
3E
  3
Sketchy
350
3F
  3
Thicken
350
37
  3
Wireframe
350
30
  3
X-Ray
350
40
  0
XRECORD
  5
A3
102
{ACAD_REACTORS
330
C
102
}
330
C
100
AcDbXrecord
280
     1
 90
        1
330
5A
  0
DICTIONARY
  5
9F
102
{ACAD_REACTORS
330
C
102
}
330
C
100
AcDbDictionary
281
     1
  3
CANNOSCALE
350
A0
  3
CMLEADERSTYLE
350
A5
  3
CTABLESTYLE
350
A4
  0
LAYOUT
  5
1E
102
{ACAD_REACTORS
330
1A
102
}
330
1A
100
AcDbPlotSettings
  1

  2
none_device
  4

  6

 40
0.0
 41
0.0
 42
0.0
 43
0.0
 44
0.0
 45
0.0
 46
0.0
 47
0.0
 48
0.0
 49
0.0
140
0.0
141
0.0
142
1.0
143
1.0
 70
   688
 72
     0
 73
     0
 74
     5
  7

 75
    16
 76
     0
 77
     2
 78
   300
147
1.0
148
0.0
149
0.0
100
AcDbLayout
  1
Layout1
 70
     1
 71
     1
 10
0.0
 20
0.0
 11
12.0
 21
9.0
 12
0.0
 22
0.0
 32
0.0
 14
1.000000000000000E+20
 24
1.000000000000000E+20
 34
1.000000000000000E+20
 15
-1.000000000000000E+20
 25
-1.000000000000000E+20
 35
-1.000000000000000E+20
146
0.0
 13
0.0
 23
0.0
 33
0.0
 16
1.0
 26
0.0
 36
0.0
 17
0.0
 27
1.0
 37
0.0
 76
     0
330
1B
  0
LAYOUT
  5
26
102
{ACAD_REACTORS
330
1A
102
}
330
1A
100
AcDbPlotSettings
  1

  2
none_device
  4

  6

 40
0.0
 41
0.0
 42
0.0
 43
0.0
 44
0.0
 45
0.0
 46
0.0
 47
0.0
 48
0.0
 49
0.0
140
0.0
141
0.0
142
1.0
143
1.0
 70
   688
 72
     0
 73
     0
 74
     5
  7

 75
    16
 76
     0
 77
     2
 78
   300
147
1.0
148
0.0
149
0.0
100
AcDbLayout
  1
Layout2
 70
     1
 71
     2
 10
0.0
 20
0.0
 11
0.0
 21
0.0
 12
0.0
 22
0.0
 32
0.0
 14
0.0
 24
0.0
 34
0.0
 15
0.0
 25
0.0
 35
0.0
146
0.0
 13
0.0
 23
0.0
 33
0.0
 16
1.0
 26
0.0
 36
0.0
 17
0.0
 27
1.0
 37
0.0
 76
     0
330
23
  0
LAYOUT
  5
22
102
{ACAD_REACTORS
330
1A
102
}
330
1A
100
AcDbPlotSettings
  1

  2
none_device
  4
Letter_(8.50_x_11.00_Inches)
  6

 40
6.35
 41
6.35
 42
6.35000508
 43
6.35000508
 44
215.9
 45
279.4
 46
0.0
 47
0.0
 48
0.0
 49
0.0
140
0.0
141
0.0
142
1.0
143
1.0
 70
  1712
 72
     0
 73
     0
 74
     0
  7

 75
     0
 76
     0
 77
     2
 78
   300
147
1.0
148
0.0
149
0.0
100
AcDbLayout
  1
Model
 70
     1
 71
     0
 10
0.0
 20
0.0
 11
12.0
 21
9.0
 12
0.0
 22
0.0
 32
0.0
 14
-1200.0984
 24
-590.0751
 34
0.0
 15
1199.9778
 25
590.0011
 35
0.0
146
0.0
 13
0.0
 23
0.0
 33
0.0
 16
1.0
 26
0.0
 36
0.0
 17
0.0
 27
1.0
 37
0.0
 76
     0
330
1F
331
29
  0
MATERIAL
  5
45
102
{ACAD_REACTORS
330
43
102
}
330
43
100
AcDbMaterial
  1
ByBlock
 72
     1
 94
      127
  0
MATERIAL
  5
44
102
{ACAD_REACTORS
330
43
102
}
330
43
100
AcDbMaterial
  1
ByLayer
 72
     1
 94
      127
  0
MATERIAL
  5
46
102
{ACAD_REACTORS
330
43
102
}
330
43
100
AcDbMaterial
  1
Global
 72
     1
 94
      127
  0
MLEADERSTYLE
  5
5C
102
{ACAD_REACTORS
330
5B
102
}
330
5B
100
AcDbMLeaderStyle
179
     2
170
     2
171
     1
172
     0
 90
        2
 40
0.0
 41
0.0
173
     1
 91
-1056964608
340
14
 92
       -2
290
     1
 42
0.09
291
     1
 43
0.36
  3
Standard
341
0
 44
0.18
300

342
11
174
     1
178
     6
175
     1
176
     0
 93
-1056964608
 45
0.18
292
     0
297
     0
 46
0.18
343
0
 94
-1056964608
 47
1.0
 49
1.0
140
1.0
293
     1
141
0.0
294
     1
177
     0
142
1.0
295
     0
296
     0
143
0.125
271
     0
272
     9
273
     9
298
     0
  0
MLINESTYLE
  5
18
102
{ACAD_REACTORS
330
17
102
}
330
17
100
AcDbMlineStyle
  2
Standard
 70
     0
  3

 62
   256
 51
90.0
 52
90.0
 71
     2
 49
0.5
 62
   256
  6
BYLAYER
 49
-0.5
 62
   256
  6
BYLAYER
  0
ACDBPLACEHOLDER
  5
F
102
{ACAD_REACTORS
330
E
102
}
330
E
  0
SCALE
  5
48
102
{ACAD_REACTORS
330
47
102
}
330
47
100
AcDbScale
 70
     0
300
1:1
140
1.0
141
1.0
290
     1
  0
SCALE
  5
49
102
{ACAD_REACTORS
330
47
102
}
330
47
100
AcDbScale
 70
     0
300
1/128" = 1'-0"
140
0.0078125
141
12.0
290
     0
  0
SCALE
  5
4A
102
{ACAD_REACTORS
330
47
102
}
330
47
100
AcDbScale
 70
     0
300
1/64" = 1'-0"
140
0.015625
141
12.0
290
     0
  0
SCALE
  5
4B
102
{ACAD_REACTORS
330
47
102
}
330
47
100
AcDbScale
 70
     0
300
1/32" = 1'-0"
140
0.03125
141
12.0
290
     0
  0
SCALE
  5
4C
102
{ACAD_REACTORS
330
47
102
}
330
47
100
AcDbScale
 70
     0
300
1/16" = 1'-0"
140
0.0625
141
12.0
290
     0
  0
SCALE
  5
4D
102
{ACAD_REACTORS
330
47
102
}
330
47
100
AcDbScale
 70
     0
300
3/32" = 1'-0"
140
0.09375
141
12.0
290
     0
  0
SCALE
  5
4E
102
{ACAD_REACTORS
330
47
102
}
330
47
100
AcDbScale
 70
     0
300
1/8" = 1'-0"
140
0.125
141
12.0
290
     0
  0
SCALE
  5
4F
102
{ACAD_REACTORS
330
47
102
}
330
47
100
AcDbScale
 70
     0
300
3/16" = 1'-0"
140
0.1875
141
12.0
290
     0
  0
SCALE
  5
50
102
{ACAD_REACTORS
330
47
102
}
330
47
100
AcDbScale
 70
     0
300
1/4" = 1'-0"
140
0.25
141
12.0
290
     0
  0
SCALE
  5
51
102
{ACAD_REACTORS
330
47
102
}
330
47
100
AcDbScale
 70
     0
300
3/8" = 1'-0"
140
0.375
141
12.0
290
     0
  0
SCALE
  5
52
102
{ACAD_REACTORS
330
47
102
}
330
47
100
AcDbScale
 70
     0
300
1/2" = 1'-0"
140
0.5
141
12.0
290
     0
  0
SCALE
  5
53
102
{ACAD_REACTORS
330
47
102
}
330
47
100
AcDbScale
 70
     0
300
3/4" = 1'-0"
140
0.75
141
12.0
290
     0
  0
SCALE
  5
54
102
{ACAD_REACTORS
330
47
102
}
330
47
100
AcDbScale
 70
     0
300
1" = 1'-0"
140
1.0
141
12.0
290
     0
  0
SCALE
  5
55
102
{ACAD_REACTORS
330
47
102
}
330
47
100
AcDbScale
 70
     0
300
1-1/2" = 1'-0"
140
1.5
141
12.0
290
     0
  0
SCALE
  5
56
102
{ACAD_REACTORS
330
47
102
}
330
47
100
AcDbScale
 70
     0
300
3" = 1'-0"
140
3.0
141
12.0
290
     0
  0
SCALE
  5
57
102
{ACAD_REACTORS
330
47
102
}
330
47
100
AcDbScale
 70
     0
300
6" = 1'-0"
140
6.0
141
12.0
290
     0
  0
SCALE
  5
58
102
{ACAD_REACTORS
330
47
102
}
330
47
100
AcDbScale
 70
     0
300
1'-0" = 1'-0"
140
12.0
141
12.0
290
     0
  0
TABLESTYLE
  5
5A
102
{ACAD_REACTORS
330
59
102
}
102
{ACAD_XDICTIONARY
360
A1
102
}
330
59
100
AcDbTableStyle
  3
Standard
 70
     0
 71
     0
 40
0.06
 41
0.06
280
     0
281
     0
  7
Standard
140
0.18
170
     2
 62
     0
 63
   257
283
     0
 90
        4
 91
        0
  1

274
    -2
284
     1
 64
     0
275
    -2
285
     1
 65
     0
276
    -2
286
     1
 66
     0
277
    -2
287
     1
 67
     0
278
    -2
288
     1
 68
     0
279
    -2
289
     1
 69
     0
  7
Standard
140
0.25
170
     5
 62
     0
 63
   257
283
     0
 90
        4
 91
        0
  1

274
    -2
284
     1
 64
     0
275
    -2
285
     1
 65
     0
276
    -2
286
     1
 66
     0
277
    -2
287
     1
 67
     0
278
    -2
288
     1
 68
     0
279
    -2
289
     1
 69
     0
  7
Standard
140
0.18
170
     5
 62
     0
 63
   257
283
     0
 90
        4
 91
        0
  1

274
    -2
284
     1
 64
     0
275
    -2
285
     1
 65
     0
276
    -2
286
     1
 66
     0
277
    -2
287
     1
 67
     0
278
    -2
288
     1
 68
     0
279
    -2
289
     1
 69
     0
  0
VISUALSTYLE
  5
2F
102
{ACAD_REACTORS
330
2A
102
}
330
2A
100
AcDbVisualStyle
  2
2dWireframe
 70
     4
177
     3
291
     0
 70
    58
 90
        0
176
     1
 90
        2
176
     1
 90
        0
176
     1
 90
        0
176
     1
 40
0.6
176
     1
 40
30.0
176
     1
 62
     7
420
 16777215
176
     1
 90
        1
176
     1
 90
        4
176
     1
 62
     7
176
     1
 62
   257
176
     1
 90
        1
176
     1
 90
        1
176
     1
 40
1.0
176
     1
 90
        0
176
     1
 62
   257
176
     1
 40
1.0
176
     1
 90
        1
176
     1
 90
        6
176
     1
 90
        2
176
     1
 62
     7
176
     1
 90
        5
176
     1
 90
        0
176
     1
 90
        0
176
     1
290
     0
176
     1
 90
        1
176
     1
 40
0.0
176
     1
 90
        0
176
     1
290
     1
176
     1
290
     1
176
     1
290
     0
176
     1
290
     0
176
     1
290
     0
176
     1
290
     0
176
     1
290
     0
176
     1
290
     0
176
     1
290
     0
176
     1
 90
       50
176
     1
 40
0.0
176
     1
 40
1.0
176
     1
 90
        0
176
     1
 62
    18
420
        0
176
     1
 90
       50
176
     1
 90
        3
176
     1
 62
     5
420
      255
176
     1
290
     0
176
     1
 90
       50
176
     1
 90
       50
176
     1
 90
       50
176
     1
290
     0
176
     1
 90
       50
176
     1
 62
   256
176
     0
 40
1.0
176
     0
 90
        2
176
     1
  1
strokes_ogs.tif
176
     1
290
     0
176
     1
 40
1.0
176
     1
 40
1.0
176
     1
  0
VISUALSTYLE
  5
32
102
{ACAD_REACTORS
330
2A
102
}
330
2A
100
AcDbVisualStyle
  2
Basic
 70
     7
177
     3
291
     1
 70
    58
 90
        1
176
     1
 90
        0
176
     1
 90
        1
176
     1
 90
        0
176
     1
 40
0.6
176
     1
 40
30.0
176
     1
 62
     7
420
 16777215
176
     1
 90
        0
176
     1
 90
        4
176
     1
 62
     7
176
     1
 62
   257
176
     1
 90
        1
176
     1
 90
        1
176
     1
 40
1.0
176
     1
 90
        8
176
     1
 62
     7
176
     1
 40
1.0
176
     1
 90
        1
176
     1
 90
        6
176
     1
 90
        2
176
     1
 62
     7
176
     1
 90
        5
176
     1
 90
        0
176
     1
 90
        0
176
     1
290
     0
176
     1
 90
        1
176
     1
 40
0.0
176
     1
 90
        0
176
     1
290
     0
176
     1
290
     1
176
     1
290
     1
176
     1
290
     0
176
     1
290
     0
176
     1
290
     0
176
     1
290
     0
176
     1
290
     0
176
     1
290
     0
176
     1
 90
       50
176
     1
 40
0.0
176
     1
 40
1.0
176
     1
 90
        0
176
     1
 62
    18
420
        0
176
     1
 90
       50
176
     1
 90
        3
176
     1
 62
     5
420
      255
176
     1
290
     0
176
     1
 90
       50
176
     1
 90
       50
176
     1
 90
       50
176
     1
290
     0
176
     1
 90
       50
176
     1
 62
   256
176
     0
 40
1.0
176
     0
 90
        2
176
     1
  1
strokes_ogs.tif
176
     1
290
     0
176
     1
 40
1.0
176
     1
 40
1.0
176
     1
  0
VISUALSTYLE
  5
36
102
{ACAD_REACTORS
330
2A
102
}
330
2A
100
AcDbVisualStyle
  2
Brighten
 70
    12
177
     3
291
     1
 70
    58
 90
        2
176
     1
 90
        2
176
     1
 90
        0
176
     1
 90
        0
176
     1
 40
0.6
176
     1
 40
30.0
176
     1
 62
     7
420
 16777215
176
     1
 90
        1
176
     1
 90
        4
176
     1
 62
     7
176
     1
 62
   257
176
     1
 90
        1
176
     1
 90
        1
176
     1
 40
1.0
176
     1
 90
        8
176
     1
 62
     7
176
     1
 40
1.0
176
     1
 90
        1
176
     1
 90
        6
176
     1
 90
        2
176
     1
 62
     7
176
     1
 90
        5
176
     1
 90
        0
176
     1
 90
        0
176
     1
290
     0
176
     1
 90
        1
176
     1
 40
50.0
176
     1
 90
        0
176
     1
290
     0
176
     1
290
     1
176
     1
290
     1
176
     1
290
     0
176
     1
290
     0
176
     1
290
     0
176
     1
290
     0
176
     1
290
     0
176
     1
290
     0
176
     1
 90
       50
176
     1
 40
0.0
176
     1
 40
1.0
176
     1
 90
        0
176
     1
 62
    18
420
        0
176
     1
 90
       50
176
     1
 90
        3
176
     1
 62
     5
420
      255
176
     1
290
     0
176
     1
 90
       50
176
     1
 90
       50
176
     1
 90
       50
176
     1
290
     0
176
     1
 90
       50
176
     1
 62
   256
176
     0
 40
1.0
176
     0
 90
        2
176
     1
  1
strokes_ogs.tif
176
     1
290
     0
176
     1
 40
1.0
176
     1
 40
1.0
176
     1
  0
VISUALSTYLE
  5
3A
102
{ACAD_REACTORS
330
2A
102
}
330
2A
100
AcDbVisualStyle
  2
ColorChange
 70
    16
177
     3
291
     1
 70
    58
 90
        2
176
     1
 90
        2
176
     1
 90
        3
176
     1
 90
        0
176
     1
 40
0.6
176
     1
 40
30.0
176
     1
 62
     8
420
  8421504
176
     1
 90
        1
176
     1
 90
        4
176
     1
 62
     7
176
     1
 62
   257
176
     1
 90
        1
176
     1
 90
        1
176
     1
 40
1.0
176
     1
 90
        8
176
     1
 62
     8
420
  8421504
176
     1
 40
1.0
176
     1
 90
        1
176
     1
 90
        6
176
     1
 90
        2
176
     1
 62
     7
176
     1
 90
        5
176
     1
 90
        0
176
     1
 90
        0
176
     1
290
     0
176
     1
 90
        1
176
     1
 40
0.0
176
     1
 90
        0
176
     1
290
     0
176
     1
290
     1
176
     1
290
     1
176
     1
290
     0
176
     1
290
     0
176
     1
290
     0
176
     1
290
     0
176
     1
290
     0
176
     1
290
     0
176
     1
 90
       50
176
     1
 40
0.0
176
     1
 40
1.0
176
     1
 90
        0
176
     1
 62
    18
420
        0
176
     1
 90
       50
176
     1
 90
        3
176
     1
 62
     5
420
      255
176
     1
290
     0
176
     1
 90
       50
176
     1
 90
       50
176
     1
 90
       50
176
     1
290
     0
176
     1
 90
       50
176
     1
 62
   256
176
     0
 40
1.0
176
     0
 90
        2
176
     1
  1
strokes_ogs.tif
176
     1
290
     0
176
     1
 40
1.0
176
     1
 40
1.0
176
     1
  0
VISUALSTYLE
  5
34
102
{ACAD_REACTORS
330
2A
102
}
330
2A
100
AcDbVisualStyle
  2
Conceptual
 70
     9
177
     3
291
     0
 70
    58
 90
        3
176
     1
 90
        2
176
     1
 90
        0
176
     1
 90
        0
176
     1
 40
0.6
176
     1
 40
30.0
176
     1
 62
     7
420
 16777215
176
     1
 90
        2
176
     1
 90
        2
176
     1
 62
     7
176
     1
 62
   257
176
     1
 90
        1
176
     1
 90
        1
176
     1
 40
179.0
176
     1
 90
        8
176
     1
 62
     7
176
     1
 40
1.0
176
     1
 90
        1
176
     1
 90
        6
176
     1
 90
        2
176
     1
 62
     7
176
     1
 90
        3
176
     1
 90
        0
176
     1
 90
        0
176
     1
290
     0
176
     1
 90
        1
176
     1
 40
0.0
176
     1
 90
        0
176
     1
290
     0
176
     1
290
     1
176
     1
290
     1
176
     1
290
     0
176
     1
290
     0
176
     1
290
     0
176
     1
290
     0
176
     1
290
     0
176
     1
290
     0
176
     1
 90
       50
176
     1
 40
0.0
176
     1
 40
1.0
176
     1
 90
        0
176
     1
 62
    18
420
        0
176
     1
 90
       50
176
     1
 90
        3
176
     1
 62
     5
420
      255
176
     1
290
     0
176
     1
 90
       50
176
     1
 90
       50
176
     1
 90
       50
176
     1
290
     0
176
     1
 90
       50
176
     1
 62
   256
176
     0
 40
1.0
176
     0
 90
        2
176
     1
  1
strokes_ogs.tif
176
     1
290
     0
176
     1
 40
1.0
176
     1
 40
1.0
176
     1
  0
VISUALSTYLE
  5
35
102
{ACAD_REACTORS
330
2A
102
}
330
2A
100
AcDbVisualStyle
  2
Dim
 70
    11
177
     3
291
     1
 70
    58
 90
        2
176
     1
 90
        2
176
     1
 90
        0
176
     1
 90
        0
176
     1
 40
0.6
176
     1
 40
30.0
176
     1
 62
     7
420
 16777215
176
     1
 90
        1
176
     1
 90
        4
176
     1
 62
     7
176
     1
 62
   257
176
     1
 90
        1
176
     1
 90
        1
176
     1
 40
1.0
176
     1
 90
        8
176
     1
 62
     7
176
     1
 40
1.0
176
     1
 90
        1
176
     1
 90
        6
176
     1
 90
        2
176
     1
 62
     7
176
     1
 90
        5
176
     1
 90
        0
176
     1
 90
        0
176
     1
290
     0
176
     1
 90
        1
176
     1
 40
-50.0
176
     1
 90
        0
176
     1
290
     0
176
     1
290
     1
176
     1
290
     1
176
     1
290
     0
176
     1
290
     0
176
     1
290
     0
176
     1
290
     0
176
     1
290
     0
176
     1
290
     0
176
     1
 90
       50
176
     1
 40
0.0
176
     1
 40
1.0
176
     1
 90
        0
176
     1
 62
    18
420
        0
176
     1
 90
       50
176
     1
 90
        3
176
     1
 62
     5
420
      255
176
     1
290
     0
176
     1
 90
       50
176
     1
 90
       50
176
     1
 90
       50
176
     1
290
     0
176
     1
 90
       50
176
     1
 62
   256
176
     0
 40
1.0
176
     0
 90
        2
176
     1
  1
strokes_ogs.tif
176
     1
290
     0
176
     1
 40
1.0
176
     1
 40
1.0
176
     1
  0
VISUALSTYLE
  5
3D
102
{ACAD_REACTORS
330
2A
102
}
330
2A
100
AcDbVisualStyle
  2
EdgeColorOff
 70
    22
177
     3
291
     1
 70
    58
 90
        2
176
     0
 90
        2
176
     0
 90
        0
176
     0
 90
        0
176
     0
 40
0.6
176
     0
 40
30.0
176
     0
 62
     7
420
 16777215
176
     0
 90
        1
176
     0
 90
        4
176
     0
 62
     7
176
     0
 62
   257
176
     0
 90
        1
176
     0
 90
        1
176
     0
 40
1.0
176
     0
 90
        8
176
     2
 62
     7
176
     0
 40
1.0
176
     0
 90
        1
176
     0
 90
        6
176
     0
 90
        2
176
     0
 62
     7
176
     0
 90
        5
176
     0
 90
        0
176
     0
 90
        0
176
     0
290
     0
176
     0
 90
        1
176
     0
 40
0.0
176
     0
 90
        0
176
     0
290
     0
176
     0
290
     1
176
     0
290
     1
176
     0
290
     0
176
     0
290
     0
176
     0
290
     0
176
     0
290
     0
176
     0
290
     0
176
     0
290
     0
176
     0
 90
       50
176
     0
 40
0.0
176
     0
 40
1.0
176
     0
 90
        0
176
     0
 62
    18
420
        0
176
     0
 90
       50
176
     0
 90
        3
176
     0
 62
     5
420
      255
176
     0
290
     0
176
     0
 90
       50
176
     0
 90
       50
176
     0
 90
       50
176
     0
290
     0
176
     0
 90
       50
176
     0
 62
   256
176
     0
 40
1.0
176
     0
 90
        2
176
     0
  1
strokes_ogs.tif
176
     0
290
     0
176
     0
 40
1.0
176
     0
 40
1.0
176
     0
  0
VISUALSTYLE
  5
39
102
{ACAD_REACTORS
330
2A
102
}
330
2A
100
AcDbVisualStyle
  2
Facepattern
 70
    15
177
     3
291
     1
 70
    58
 90
        2
176
     1
 90
        2
176
     1
 90
        0
176
     1
 90
        0
176
     1
 40
0.6
176
     1
 40
30.0
176
     1
 62
     7
420
 16777215
176
     1
 90
        1
176
     1
 90
        4
176
     1
 62
     7
176
     1
 62
   257
176
     1
 90
        1
176
     1
 90
        1
176
     1
 40
1.0
176
     1
 90
        8
176
     1
 62
     7
176
     1
 40
1.0
176
     1
 90
        1
176
     1
 90
        6
176
     1
 90
        2
176
     1
 62
     7
176
     1
 90
        5
176
     1
 90
        0
176
     1
 90
        0
176
     1
290
     0
176
     1
 90
        1
176
     1
 40
0.0
176
     1
 90
        0
176
     1
290
     0
176
     1
290
     1
176
     1
290
     1
176
     1
290
     0
176
     1
290
     0
176
     1
290
     0
176
     1
290
     0
176
     1
290
     0
176
     1
290
     0
176
     1
 90
       50
176
     1
 40
0.0
176
     1
 40
1.0
176
     1
 90
        0
176
     1
 62
    18
420
        0
176
     1
 90
       50
176
     1
 90
        3
176
     1
 62
     5
420
      255
176
     1
290
     0
176
     1
 90
       50
176
     1
 90
       50
176
     1
 90
       50
176
     1
290
     0
176
     1
 90
       50
176
     1
 62
   256
176
     0
 40
1.0
176
     0
 90
        2
176
     1
  1
strokes_ogs.tif
176
     1
290
     0
176
     1
 40
1.0
176
     1
 40
1.0
176
     1
  0
VISUALSTYLE
  5
2B
102
{ACAD_REACTORS
330
2A
102
}
330
2A
100
AcDbVisualStyle
  2
Flat
 70
     0
177
     3
291
     1
 70
    58
 90
        2
176
     1
 90
        1
176
     1
 90
        1
176
     1
 90
        2
176
     1
 40
0.6
176
     1
 40
30.0
176
     1
 62
     7
420
 16777215
176
     1
 90
        0
176
     1
 90
        0
176
     1
 62
     7
176
     1
 62
   257
176
     1
 90
        1
176
     1
 90
        1
176
     1
 40
1.0
176
     1
 90
        8
176
     1
 62
     7
176
     1
 40
1.0
176
     1
 90
        1
176
     1
 90
        6
176
     1
 90
        2
176
     1
 62
     7
176
     1
 90
        5
176
     1
 90
        0
176
     1
 90
        0
176
     1
290
     0
176
     1
 90
       13
176
     1
 40
0.0
176
     1
 90
        0
176
     1
290
     0
176
     1
290
     1
176
     1
290
     1
176
     1
290
     0
176
     1
290
     0
176
     1
290
     0
176
     1
290
     0
176
     1
290
     0
176
     1
290
     0
176
     1
 90
       50
176
     1
 40
0.0
176
     1
 40
1.0
176
     1
 90
        0
176
     1
 62
    18
420
        0
176
     1
 90
       50
176
     1
 90
        3
176
     1
 62
     5
420
      255
176
     1
290
     0
176
     1
 90
       50
176
     1
 90
       50
176
     1
 90
       50
176
     1
290
     0
176
     1
 90
       50
176
     1
 62
   256
176
     0
 40
1.0
176
     0
 90
        2
176
     1
  1
strokes_ogs.tif
176
     1
290
     0
176
     1
 40
1.0
176
     1
 40
1.0
176
     1
  0
VISUALSTYLE
  5
2C
102
{ACAD_REACTORS
330
2A
102
}
330
2A
100
AcDbVisualStyle
  2
FlatWithEdges
 70
     1
177
     3
291
     1
 70
    58
 90
        2
176
     1
 90
        1
176
     1
 90
        1
176
     1
 90
        2
176
     1
 40
0.6
176
     1
 40
30.0
176
     1
 62
     7
420
 16777215
176
     1
 90
        1
176
     1
 90
        0
176
     1
 62
     7
176
     1
 62
   257
176
     1
 90
        1
176
     1
 90
        1
176
     1
 40
1.0
176
     1
 90
        0
176
     1
 62
   257
176
     1
 40
1.0
176
     1
 90
        1
176
     1
 90
        6
176
     1
 90
        2
176
     1
 62
     7
176
     1
 90
        5
176
     1
 90
        0
176
     1
 90
        0
176
     1
290
     0
176
     1
 90
       13
176
     1
 40
0.0
176
     1
 90
        0
176
     1
290
     0
176
     1
290
     1
176
     1
290
     1
176
     1
290
     0
176
     1
290
     0
176
     1
290
     0
176
     1
290
     0
176
     1
290
     0
176
     1
290
     0
176
     1
 90
       50
176
     1
 40
0.0
176
     1
 40
1.0
176
     1
 90
        0
176
     1
 62
    18
420
        0
176
     1
 90
       50
176
     1
 90
        3
176
     1
 62
     5
420
      255
176
     1
290
     0
176
     1
 90
       50
176
     1
 90
       50
176
     1
 90
       50
176
     1
290
     0
176
     1
 90
       50
176
     1
 62
   256
176
     0
 40
1.0
176
     0
 90
        2
176
     1
  1
strokes_ogs.tif
176
     1
290
     0
176
     1
 40
1.0
176
     1
 40
1.0
176
     1
  0
VISUALSTYLE
  5
2D
102
{ACAD_REACTORS
330
2A
102
}
330
2A
100
AcDbVisualStyle
  2
Gouraud
 70
     2
177
     3
291
     1
 70
    58
 90
        2
176
     1
 90
        2
176
     1
 90
        1
176
     1
 90
        2
176
     1
 40
0.6
176
     1
 40
30.0
176
     1
 62
     7
420
 16777215
176
     1
 90
        0
176
     1
 90
        0
176
     1
 62
     7
176
     1
 62
   257
176
     1
 90
        1
176
     1
 90
        1
176
     1
 40
1.0
176
     1
 90
        0
176
     1
 62
     7
176
     1
 40
1.0
176
     1
 90
        1
176
     1
 90
        6
176
     1
 90
        2
176
     1
 62
     7
176
     1
 90
        5
176
     1
 90
        0
176
     1
 90
        0
176
     1
290
     0
176
     1
 90
       13
176
     1
 40
0.0
176
     1
 90
        0
176
     1
290
     0
176
     1
290
     1
176
     1
290
     1
176
     1
290
     0
176
     1
290
     0
176
     1
290
     0
176
     1
290
     0
176
     1
290
     0
176
     1
290
     0
176
     1
 90
       50
176
     1
 40
0.0
176
     1
 40
1.0
176
     1
 90
        0
176
     1
 62
    18
420
        0
176
     1
 90
       50
176
     1
 90
        3
176
     1
 62
     5
420
      255
176
     1
290
     0
176
     1
 90
       50
176
     1
 90
       50
176
     1
 90
       50
176
     1
290
     0
176
     1
 90
       50
176
     1
 62
   256
176
     0
 40
1.0
176
     0
 90
        2
176
     1
  1
strokes_ogs.tif
176
     1
290
     0
176
     1
 40
1.0
176
     1
 40
1.0
176
     1
  0
VISUALSTYLE
  5
2E
102
{ACAD_REACTORS
330
2A
102
}
330
2A
100
AcDbVisualStyle
  2
GouraudWithEdges
 70
     3
177
     3
291
     1
 70
    58
 90
        2
176
     1
 90
        2
176
     1
 90
        1
176
     1
 90
        2
176
     1
 40
0.6
176
     1
 40
30.0
176
     1
 62
     7
420
 16777215
176
     1
 90
        1
176
     1
 90
        0
176
     1
 62
     7
176
     1
 62
   257
176
     1
 90
        1
176
     1
 90
        1
176
     1
 40
1.0
176
     1
 90
        0
176
     1
 62
   257
176
     1
 40
1.0
176
     1
 90
        1
176
     1
 90
        6
176
     1
 90
        2
176
     1
 62
     7
176
     1
 90
        5
176
     1
 90
        0
176
     1
 90
        0
176
     1
290
     0
176
     1
 90
       13
176
     1
 40
0.0
176
     1
 90
        0
176
     1
290
     0
176
     1
290
     1
176
     1
290
     1
176
     1
290
     0
176
     1
290
     0
176
     1
290
     0
176
     1
290
     0
176
     1
290
     0
176
     1
290
     0
176
     1
 90
       50
176
     1
 40
0.0
176
     1
 40
1.0
176
     1
 90
        0
176
     1
 62
    18
420
        0
176
     1
 90
       50
176
     1
 90
        3
176
     1
 62
     5
420
      255
176
     1
290
     0
176
     1
 90
       50
176
     1
 90
       50
176
     1
 90
       50
176
     1
290
     0
176
     1
 90
       50
176
     1
 62
   256
176
     0
 40
1.0
176
     0
 90
        2
176
     1
  1
strokes_ogs.tif
176
     1
290
     0
176
     1
 40
1.0
176
     1
 40
1.0
176
     1
  0
VISUALSTYLE
  5
31
102
{ACAD_REACTORS
330
2A
102
}
330
2A
100
AcDbVisualStyle
  2
Hidden
 70
     6
177
     3
291
     0
 70
    58
 90
        1
176
     1
 90
        2
176
     1
 90
        2
176
     1
 90
        0
176
     1
 40
0.6
176
     1
 40
30.0
176
     1
 62
     7
420
 16777215
176
     1
 90
        2
176
     1
 90
        2
176
     1
 62
     7
176
     1
 62
   257
176
     1
 90
        2
176
     1
 90
        1
176
     1
 40
40.0
176
     1
 90
        0
176
     1
 62
   257
176
     1
 40
1.0
176
     1
 90
        1
176
     1
 90
        6
176
     1
 90
        2
176
     1
 62
     7
176
     1
 90
        3
176
     1
 90
        0
176
     1
 90
        0
176
     1
290
     0
176
     1
 90
        1
176
     1
 40
0.0
176
     1
 90
        0
176
     1
290
     0
176
     1
290
     1
176
     1
290
     1
176
     1
290
     0
176
     1
290
     0
176
     1
290
     0
176
     1
290
     0
176
     1
290
     0
176
     1
290
     0
176
     1
 90
       50
176
     1
 40
0.0
176
     1
 40
1.0
176
     1
 90
        0
176
     1
 62
    18
420
        0
176
     1
 90
       50
176
     1
 90
        3
176
     1
 62
     5
420
      255
176
     1
290
     0
176
     1
 90
       50
176
     1
 90
       50
176
     1
 90
       50
176
     1
290
     0
176
     1
 90
       50
176
     1
 62
   256
176
     0
 40
1.0
176
     0
 90
        2
176
     1
  1
strokes_ogs.tif
176
     1
290
     0
176
     1
 40
1.0
176
     1
 40
1.0
176
     1
  0
VISUALSTYLE
  5
3B
102
{ACAD_REACTORS
330
2A
102
}
330
2A
100
AcDbVisualStyle
  2
JitterOff
 70
    20
177
     3
291
     1
 70
    58
 90
        2
176
     0
 90
        2
176
     0
 90
        0
176
     0
 90
        0
176
     0
 40
0.6
176
     0
 40
30.0
176
     0
 62
     7
420
 16777215
176
     0
 90
        1
176
     0
 90
        4
176
     0
 62
     7
176
     0
 62
   257
176
     0
 90
        1
176
     0
 90
        1
176
     0
 40
1.0
176
     0
 90
       10
176
     2
 62
     7
176
     0
 40
1.0
176
     0
 90
        1
176
     0
 90
        6
176
     0
 90
        2
176
     0
 62
     7
176
     0
 90
        5
176
     0
 90
        0
176
     0
 90
        0
176
     0
290
     0
176
     0
 90
        1
176
     0
 40
0.0
176
     0
 90
        0
176
     0
290
     0
176
     0
290
     1
176
     0
290
     1
176
     0
290
     0
176
     0
290
     0
176
     0
290
     0
176
     0
290
     0
176
     0
290
     0
176
     0
290
     0
176
     0
 90
       50
176
     0
 40
0.0
176
     0
 40
1.0
176
     0
 90
        0
176
     0
 62
    18
420
        0
176
     0
 90
       50
176
     0
 90
        3
176
     0
 62
     5
420
      255
176
     0
290
     0
176
     0
 90
       50
176
     0
 90
       50
176
     0
 90
       50
176
     0
290
     0
176
     0
 90
       50
176
     0
 62
   256
176
     0
 40
1.0
176
     0
 90
        2
176
     0
  1
strokes_ogs.tif
176
     0
290
     0
176
     0
 40
1.0
176
     0
 40
1.0
176
     0
  0
VISUALSTYLE
  5
38
102
{ACAD_REACTORS
330
2A
102
}
330
2A
100
AcDbVisualStyle
  2
Linepattern
 70
    14
177
     3
291
     1
 70
    58
 90
        2
176
     1
 90
        2
176
     1
 90
        0
176
     1
 90
        0
176
     1
 40
0.6
176
     1
 40
30.0
176
     1
 62
     7
420
 16777215
176
     1
 90
        1
176
     1
 90
        4
176
     1
 62
     7
176
     1
 62
   257
176
     1
 90
        7
176
     1
 90
        7
176
     1
 40
1.0
176
     1
 90
        8
176
     1
 62
     7
176
     1
 40
1.0
176
     1
 90
        1
176
     1
 90
        6
176
     1
 90
        2
176
     1
 62
     7
176
     1
 90
        5
176
     1
 90
        0
176
     1
 90
        0
176
     1
290
     0
176
     1
 90
        1
176
     1
 40
0.0
176
     1
 90
        0
176
     1
290
     0
176
     1
290
     1
176
     1
290
     1
176
     1
290
     0
176
     1
290
     0
176
     1
290
     0
176
     1
290
     0
176
     1
290
     0
176
     1
290
     0
176
     1
 90
       50
176
     1
 40
0.0
176
     1
 40
1.0
176
     1
 90
        0
176
     1
 62
    18
420
        0
176
     1
 90
       50
176
     1
 90
        3
176
     1
 62
     5
420
      255
176
     1
290
     0
176
     1
 90
       50
176
     1
 90
       50
176
     1
 90
       50
176
     1
290
     0
176
     1
 90
       50
176
     1
 62
   256
176
     0
 40
1.0
176
     0
 90
        2
176
     1
  1
strokes_ogs.tif
176
     1
290
     0
176
     1
 40
1.0
176
     1
 40
1.0
176
     1
  0
VISUALSTYLE
  5
3C
102
{ACAD_REACTORS
330
2A
102
}
330
2A
100
AcDbVisualStyle
  2
OverhangOff
 70
    21
177
     3
291
     1
 70
    58
 90
        2
176
     0
 90
        2
176
     0
 90
        0
176
     0
 90
        0
176
     0
 40
0.6
176
     0
 40
30.0
176
     0
 62
     7
420
 16777215
176
     0
 90
        1
176
     0
 90
        4
176
     0
 62
     7
176
     0
 62
   257
176
     0
 90
        1
176
     0
 90
        1
176
     0
 40
1.0
176
     0
 90
        9
176
     2
 62
     7
176
     0
 40
1.0
176
     0
 90
        1
176
     0
 90
        6
176
     0
 90
        2
176
     0
 62
     7
176
     0
 90
        5
176
     0
 90
        0
176
     0
 90
        0
176
     0
290
     0
176
     0
 90
        1
176
     0
 40
0.0
176
     0
 90
        0
176
     0
290
     0
176
     0
290
     1
176
     0
290
     1
176
     0
290
     0
176
     0
290
     0
176
     0
290
     0
176
     0
290
     0
176
     0
290
     0
176
     0
290
     0
176
     0
 90
       50
176
     0
 40
0.0
176
     0
 40
1.0
176
     0
 90
        0
176
     0
 62
    18
420
        0
176
     0
 90
       50
176
     0
 90
        3
176
     0
 62
     5
420
      255
176
     0
290
     0
176
     0
 90
       50
176
     0
 90
       50
176
     0
 90
       50
176
     0
290
     0
176
     0
 90
       50
176
     0
 62
   256
176
     0
 40
1.0
176
     0
 90
        2
176
     0
  1
strokes_ogs.tif
176
     0
290
     0
176
     0
 40
1.0
176
     0
 40
1.0
176
     0
  0
VISUALSTYLE
  5
33
102
{ACAD_REACTORS
330
2A
102
}
330
2A
100
AcDbVisualStyle
  2
Realistic
 70
     8
177
     3
291
     0
 70
    58
 90
        2
176
     1
 90
        3
176
     1
 90
        0
176
     1
 90
        2
176
     1
 40
0.6
176
     1
 40
30.0
176
     1
 62
     7
420
 16777215
176
     1
 90
        0
176
     1
 90
        0
176
     1
 62
     7
176
     1
 62
   257
176
     1
 90
        1
176
     1
 90
        1
176
     1
 40
1.0
176
     1
 90
        8
176
     1
 62
   257
176
     1
 40
1.0
176
     1
 90
        1
176
     1
 90
        6
176
     1
 90
        2
176
     1
 62
     7
176
     1
 90
        3
176
     1
 90
        0
176
     1
 90
        0
176
     1
290
     0
176
     1
 90
       13
176
     1
 40
0.0
176
     1
 90
        0
176
     1
290
     0
176
     1
290
     1
176
     1
290
     1
176
     1
290
     0
176
     1
290
     0
176
     1
290
     0
176
     1
290
     0
176
     1
290
     0
176
     1
290
     0
176
     1
 90
       50
176
     1
 40
0.0
176
     1
 40
1.0
176
     1
 90
        0
176
     1
 62
    18
420
        0
176
     1
 90
       50
176
     1
 90
        3
176
     1
 62
     5
420
      255
176
     1
290
     0
176
     1
 90
       50
176
     1
 90
       50
176
     1
 90
       50
176
     1
290
     0
176
     1
 90
       50
176
     1
 62
   256
176
     0
 40
1.0
176
     0
 90
        2
176
     1
  1
strokes_ogs.tif
176
     1
290
     0
176
     1
 40
1.0
176
     1
 40
1.0
176
     1
  0
VISUALSTYLE
  5
42
102
{ACAD_REACTORS
330
2A
102
}
330
2A
100
AcDbVisualStyle
  2
Shaded
 70
    27
177
     3
291
     0
 70
    58
 90
        2
176
     1
 90
        2
176
     1
 90
        1
176
     1
 90
        2
176
     1
 40
0.6
176
     1
 40
30.0
176
     1
 62
     7
420
 16777215
176
     1
 90
        0
176
     1
 90
        4
176
     1
 62
     7
176
     1
 62
   257
176
     1
 90
        1
176
     1
 90
        1
176
     1
 40
1.0
176
     1
 90
        8
176
     1
 62
   257
176
     1
 40
1.0
176
     1
 90
        1
176
     1
 90
        6
176
     1
 90
        2
176
     1
 62
     8
420
  7895160
176
     1
 90
        3
176
     1
 90
        0
176
     1
 90
        0
176
     1
290
     0
176
     1
 90
        5
176
     1
 40
0.0
176
     1
 90
        0
176
     1
290
     0
176
     1
290
     1
176
     1
290
     1
176
     1
290
     0
176
     1
290
     0
176
     1
290
     0
176
     1
290
     0
176
     1
290
     0
176
     1
290
     0
176
     1
 90
       50
176
     1
 40
0.0
176
     1
 40
1.0
176
     1
 90
        0
176
     1
 62
    18
420
        0
176
     1
 90
       50
176
     1
 90
        3
176
     1
 62
     5
420
      255
176
     1
290
     0
176
     1
 90
       50
176
     1
 90
       50
176
     1
 90
       50
176
     1
290
     0
176
     1
 90
       50
176
     1
 62
   256
176
     0
 40
1.0
176
     0
 90
        2
176
     1
  1
strokes_ogs.tif
176
     1
290
     0
176
     1
 40
1.0
176
     1
 40
1.0
176
     1
  0
VISUALSTYLE
  5
41
102
{ACAD_REACTORS
330
2A
102
}
330
2A
100
AcDbVisualStyle
  2
Shaded with edges
 70
    26
177
     3
291
     0
 70
    58
 90
        2
176
     1
 90
        2
176
     1
 90
        1
176
     1
 90
        2
176
     1
 40
0.6
176
     1
 40
30.0
176
     1
 62
     7
420
 16777215
176
     1
 90
        1
176
     1
 90
       10
176
     1
 62
     7
176
     1
 62
   257
176
     1
 90
        2
176
     1
 90
        1
176
     1
 40
1.0
176
     1
 90
        8
176
     1
 62
   257
176
     1
 40
1.0
176
     1
 90
        1
176
     1
 90
        6
176
     1
 90
        2
176
     1
 62
     7
176
     1
 90
        3
176
     1
 90
        0
176
     1
 90
        0
176
     1
290
     0
176
     1
 90
        5
176
     1
 40
0.0
176
     1
 90
        0
176
     1
290
     0
176
     1
290
     1
176
     1
290
     1
176
     1
290
     0
176
     1
290
     0
176
     1
290
     0
176
     1
290
     0
176
     1
290
     0
176
     1
290
     0
176
     1
 90
       50
176
     1
 40
0.0
176
     1
 40
1.0
176
     1
 90
        0
176
     1
 62
    18
420
        0
176
     1
 90
       50
176
     1
 90
        3
176
     1
 62
     5
420
      255
176
     1
290
     0
176
     1
 90
       50
176
     1
 90
       50
176
     1
 90
       50
176
     1
290
     0
176
     1
 90
       50
176
     1
 62
   256
176
     0
 40
1.0
176
     0
 90
        2
176
     1
  1
strokes_ogs.tif
176
     1
290
     0
176
     1
 40
1.0
176
     1
 40
1.0
176
     1
  0
VISUALSTYLE
  5
3E
102
{ACAD_REACTORS
330
2A
102
}
330
2A
100
AcDbVisualStyle
  2
Shades of Gray
 70
    23
177
     3
291
     0
 70
    58
 90
        2
176
     1
 90
        2
176
     1
 90
        3
176
     1
 90
        0
176
     1
 40
0.6
176
     1
 40
30.0
176
     1
 62
     7
420
 16777215
176
     1
 90
        2
176
     1
 90
        2
176
     1
 62
     7
176
     1
 62
     7
176
     1
 90
        1
176
     1
 90
        1
176
     1
 40
40.0
176
     1
 90
        8
176
     1
 62
     7
176
     1
 40
1.0
176
     1
 90
        1
176
     1
 90
        6
176
     1
 90
        2
176
     1
 62
     7
176
     1
 90
        3
176
     1
 90
        0
176
     1
 90
        0
176
     1
290
     0
176
     1
 90
        1
176
     1
 40
0.0
176
     1
 90
        0
176
     1
290
     0
176
     1
290
     1
176
     1
290
     1
176
     1
290
     0
176
     1
290
     0
176
     1
290
     0
176
     1
290
     0
176
     1
290
     0
176
     1
290
     0
176
     1
 90
       50
176
     1
 40
0.0
176
     1
 40
1.0
176
     1
 90
        0
176
     1
 62
    18
420
        0
176
     1
 90
       50
176
     1
 90
        3
176
     1
 62
     5
420
      255
176
     1
290
     0
176
     1
 90
       50
176
     1
 90
       50
176
     1
 90
       50
176
     1
290
     0
176
     1
 90
       50
176
     1
 62
   256
176
     0
 40
1.0
176
     0
 90
        2
176
     1
  1
strokes_ogs.tif
176
     1
290
     0
176
     1
 40
1.0
176
     1
 40
1.0
176
     1
  0
VISUALSTYLE
  5
3F
102
{ACAD_REACTORS
330
2A
102
}
330
2A
100
AcDbVisualStyle
  2
Sketchy
 70
    24
177
     3
291
     0
 70
    58
 90
        1
176
     1
 90
        2
176
     1
 90
        2
176
     1
 90
        0
176
     1
 40
0.6
176
     1
 40
30.0
176
     1
 62
     7
420
 16777215
176
     1
 90
        2
176
     1
 90
        2
176
     1
 62
     7
176
     1
 62
     7
176
     1
 90
        1
176
     1
 90
        1
176
     1
 40
40.0
176
     1
 90
       11
176
     1
 62
     7
176
     1
 40
1.0
176
     1
 90
        1
176
     1
 90
        6
176
     1
 90
        2
176
     1
 62
     7
176
     1
 90
        6
176
     1
 90
        0
176
     1
 90
        0
176
     1
290
     0
176
     1
 90
        1
176
     1
 40
0.0
176
     1
 90
        0
176
     1
290
     0
176
     1
290
     1
176
     1
290
     1
176
     1
290
     0
176
     1
290
     0
176
     1
290
     0
176
     1
290
     0
176
     1
290
     0
176
     1
290
     0
176
     1
 90
       50
176
     1
 40
0.0
176
     1
 40
1.0
176
     1
 90
        0
176
     1
 62
    18
420
        0
176
     1
 90
       50
176
     1
 90
        3
176
     1
 62
     5
420
      255
176
     1
290
     0
176
     1
 90
       50
176
     1
 90
       50
176
     1
 90
       50
176
     1
290
     0
176
     1
 90
       50
176
     1
 62
   256
176
     0
 40
1.0
176
     0
 90
        2
176
     1
  1
strokes_ogs.tif
176
     1
290
     0
176
     1
 40
1.0
176
     1
 40
1.0
176
     1
  0
VISUALSTYLE
  5
37
102
{ACAD_REACTORS
330
2A
102
}
330
2A
100
AcDbVisualStyle
  2
Thicken
 70
    13
177
     3
291
     1
 70
    58
 90
        2
176
     1
 90
        2
176
     1
 90
        0
176
     1
 90
        0
176
     1
 40
0.6
176
     1
 40
30.0
176
     1
 62
     7
420
 16777215
176
     1
 90
        1
176
     1
 90
        4
176
     1
 62
     7
176
     1
 62
   257
176
     1
 90
        1
176
     1
 90
        1
176
     1
 40
1.0
176
     1
 90
       12
176
     1
 62
     7
176
     1
 40
1.0
176
     1
 90
        1
176
     1
 90
        6
176
     1
 90
        2
176
     1
 62
     7
176
     1
 90
        5
176
     1
 90
        0
176
     1
 90
        0
176
     1
290
     0
176
     1
 90
        1
176
     1
 40
0.0
176
     1
 90
        0
176
     1
290
     0
176
     1
290
     1
176
     1
290
     1
176
     1
290
     0
176
     1
290
     0
176
     1
290
     0
176
     1
290
     0
176
     1
290
     0
176
     1
290
     0
176
     1
 90
       50
176
     1
 40
0.0
176
     1
 40
1.0
176
     1
 90
        0
176
     1
 62
    18
420
        0
176
     1
 90
       50
176
     1
 90
        3
176
     1
 62
     5
420
      255
176
     1
290
     0
176
     1
 90
       50
176
     1
 90
       50
176
     1
 90
       50
176
     1
290
     0
176
     1
 90
       50
176
     1
 62
   256
176
     0
 40
1.0
176
     0
 90
        2
176
     1
  1
strokes_ogs.tif
176
     1
290
     0
176
     1
 40
1.0
176
     1
 40
1.0
176
     1
  0
VISUALSTYLE
  5
30
102
{ACAD_REACTORS
330
2A
102
}
330
2A
100
AcDbVisualStyle
  2
Wireframe
 70
     5
177
     3
291
     0
 70
    58
 90
        0
176
     1
 90
        2
176
     1
 90
        0
176
     1
 90
        0
176
     1
 40
0.6
176
     1
 40
30.0
176
     1
 62
     7
420
 16777215
176
     1
 90
        1
176
     1
 90
        4
176
     1
 62
     7
176
     1
 62
   257
176
     1
 90
        1
176
     1
 90
        1
176
     1
 40
1.0
176
     1
 90
        0
176
     1
 62
   257
176
     1
 40
1.0
176
     1
 90
        1
176
     1
 90
        6
176
     1
 90
        2
176
     1
 62
     7
176
     1
 90
        3
176
     1
 90
        0
176
     1
 90
        0
176
     1
290
     0
176
     1
 90
        1
176
     1
 40
0.0
176
     1
 90
        0
176
     1
290
     0
176
     1
290
     1
176
     1
290
     1
176
     1
290
     0
176
     1
290
     0
176
     1
290
     0
176
     1
290
     0
176
     1
290
     0
176
     1
290
     0
176
     1
 90
       50
176
     1
 40
0.0
176
     1
 40
1.0
176
     1
 90
        0
176
     1
 62
    18
420
        0
176
     1
 90
       50
176
     1
 90
        3
176
     1
 62
     5
420
      255
176
     1
290
     0
176
     1
 90
       50
176
     1
 90
       50
176
     1
 90
       50
176
     1
290
     0
176
     1
 90
       50
176
     1
 62
   256
176
     0
 40
1.0
176
     0
 90
        2
176
     1
  1
strokes_ogs.tif
176
     1
290
     0
176
     1
 40
1.0
176
     1
 40
1.0
176
     1
  0
VISUALSTYLE
  5
40
102
{ACAD_REACTORS
330
2A
102
}
330
2A
100
AcDbVisualStyle
  2
X-Ray
 70
    25
177
     3
291
     0
 70
    58
 90
        2
176
     1
 90
        2
176
     1
 90
        1
176
     1
 90
        1
176
     1
 40
0.5
176
     1
 40
30.0
176
     1
 62
     7
420
 16777215
176
     1
 90
        1
176
     1
 90
        0
176
     1
 62
     7
176
     1
 62
   257
176
     1
 90
        1
176
     1
 90
        1
176
     1
 40
1.0
176
     1
 90
        8
176
     1
 62
     7
176
     1
 40
1.0
176
     1
 90
        1
176
     1
 90
        6
176
     1
 90
        2
176
     1
 62
     7
176
     1
 90
        3
176
     1
 90
        0
176
     1
 90
        0
176
     1
290
     0
176
     1
 90
       13
176
     1
 40
0.0
176
     1
 90
        0
176
     1
290
     0
176
     1
290
     1
176
     1
290
     1
176
     1
290
     0
176
     1
290
     0
176
     1
290
     0
176
     1
290
     0
176
     1
290
     0
176
     1
290
     0
176
     1
 90
       50
176
     1
 40
0.0
176
     1
 40
1.0
176
     1
 90
        0
176
     1
 62
    18
420
        0
176
     1
 90
       50
176
     1
 90
        3
176
     1
 62
     5
420
      255
176
     1
290
     0
176
     1
 90
       50
176
     1
 90
       50
176
     1
 90
       50
176
     1
290
     0
176
     1
 90
       50
176
     1
 62
   256
176
     0
 40
1.0
176
     0
 90
        2
176
     1
  1
strokes_ogs.tif
176
     1
290
     0
176
     1
 40
1.0
176
     1
 40
1.0
176
     1
  0
DICTIONARYVAR
  5
A0
102
{ACAD_REACTORS
330
9F
102
}
330
9F
100
DictionaryVariables
280
     0
  1
1:1
  0
DICTIONARYVAR
  5
A5
102
{ACAD_REACTORS
330
9F
102
}
330
9F
100
DictionaryVariables
280
     0
  1
Standard
  0
DICTIONARYVAR
  5
A4
102
{ACAD_REACTORS
330
9F
102
}
330
9F
100
DictionaryVariables
280
     0
  1
Standard
  0
DICTIONARY
  5
A1
330
5A
100
AcDbDictionary
280
     1
281
     1
  3
ACAD_ROUNDTRIP_2008_TABLESTYLE_CELLSTYLEMAP
360
A2
  0
CELLSTYLEMAP
  5
A2
102
{ACAD_REACTORS
330
A1
102
}
330
A1
100
AcDbCellStyleMap
 90
        3
300
CELLSTYLE
  1
TABLEFORMAT_BEGIN
 90
        5
170
     1
 91
        0
 92
    32768
 62
   257
 93
        1
300
CONTENTFORMAT
  1
CONTENTFORMAT_BEGIN
 90
        0
 91
        0
 92
        4
 93
        0
300

 40
0.0
140
1.0
 94
        5
 62
     0
340
11
144
0.25
309
CONTENTFORMAT_END
171
     1
301
MARGIN
  1
CELLMARGIN_BEGIN
 40
0.06
 40
0.06
 40
0.06
 40
0.06
 40
0.06
 40
0.06
309
CELLMARGIN_END
 94
        6
 95
        1
302
GRIDFORMAT
  1
GRIDFORMAT_BEGIN
 90
        0
 91
        1
 62
     0
 92
       -2
340
14
 93
        0
 40
0.045
309
GRIDFORMAT_END
 95
        2
302
GRIDFORMAT
  1
GRIDFORMAT_BEGIN
 90
        0
 91
        1
 62
     0
 92
       -2
340
14
 93
        0
 40
0.045
309
GRIDFORMAT_END
 95
        4
302
GRIDFORMAT
  1
GRIDFORMAT_BEGIN
 90
        0
 91
        1
 62
     0
 92
       -2
340
14
 93
        0
 40
0.045
309
GRIDFORMAT_END
 95
        8
302
GRIDFORMAT
  1
GRIDFORMAT_BEGIN
 90
        0
 91
        1
 62
     0
 92
       -2
340
14
 93
        0
 40
0.045
309
GRIDFORMAT_END
 95
       16
302
GRIDFORMAT
  1
GRIDFORMAT_BEGIN
 90
        0
 91
        1
 62
     0
 92
       -2
340
14
 93
        0
 40
0.045
309
GRIDFORMAT_END
 95
       32
302
GRIDFORMAT
  1
GRIDFORMAT_BEGIN
 90
        0
 91
        1
 62
     0
 92
       -2
340
14
 93
        0
 40
0.045
309
GRIDFORMAT_END
309
TABLEFORMAT_END
  1
CELLSTYLE_BEGIN
 90
        1
 91
        1
300
_TITLE
309
CELLSTYLE_END
300
CELLSTYLE
  1
TABLEFORMAT_BEGIN
 90
        5
170
     1
 91
        0
 92
        0
 62
   257
 93
        1
300
CONTENTFORMAT
  1
CONTENTFORMAT_BEGIN
 90
        0
 91
        0
 92
        4
 93
        0
300

 40
0.0
140
1.0
 94
        5
 62
     0
340
11
144
0.18
309
CONTENTFORMAT_END
171
     1
301
MARGIN
  1
CELLMARGIN_BEGIN
 40
0.06
 40
0.06
 40
0.06
 40
0.06
 40
0.06
 40
0.06
309
CELLMARGIN_END
 94
        6
 95
        1
302
GRIDFORMAT
  1
GRIDFORMAT_BEGIN
 90
        0
 91
        1
 62
     0
 92
       -2
340
14
 93
        0
 40
0.045
309
GRIDFORMAT_END
 95
        2
302
GRIDFORMAT
  1
GRIDFORMAT_BEGIN
 90
        0
 91
        1
 62
     0
 92
       -2
340
14
 93
        0
 40
0.045
309
GRIDFORMAT_END
 95
        4
302
GRIDFORMAT
  1
GRIDFORMAT_BEGIN
 90
        0
 91
        1
 62
     0
 92
       -2
340
14
 93
        0
 40
0.045
309
GRIDFORMAT_END
 95
        8
302
GRIDFORMAT
  1
GRIDFORMAT_BEGIN
 90
        0
 91
        1
 62
     0
 92
       -2
340
14
 93
        0
 40
0.045
309
GRIDFORMAT_END
 95
       16
302
GRIDFORMAT
  1
GRIDFORMAT_BEGIN
 90
        0
 91
        1
 62
     0
 92
       -2
340
14
 93
        0
 40
0.045
309
GRIDFORMAT_END
 95
       32
302
GRIDFORMAT
  1
GRIDFORMAT_BEGIN
 90
        0
 91
        1
 62
     0
 92
       -2
340
14
 93
        0
 40
0.045
309
GRIDFORMAT_END
309
TABLEFORMAT_END
  1
CELLSTYLE_BEGIN
 90
        2
 91
        1
300
_HEADER
309
CELLSTYLE_END
300
CELLSTYLE
  1
TABLEFORMAT_BEGIN
 90
        5
170
     1
 91
        0
 92
        0
 62
   257
 93
        1
300
CONTENTFORMAT
  1
CONTENTFORMAT_BEGIN
 90
        0
 91
        0
 92
        4
 93
        0
300

 40
0.0
140
1.0
 94
        2
 62
     0
340
11
144
0.18
309
CONTENTFORMAT_END
171
     1
301
MARGIN
  1
CELLMARGIN_BEGIN
 40
0.06
 40
0.06
 40
0.06
 40
0.06
 40
0.06
 40
0.06
309
CELLMARGIN_END
 94
        6
 95
        1
302
GRIDFORMAT
  1
GRIDFORMAT_BEGIN
 90
        0
 91
        1
 62
     0
 92
       -2
340
14
 93
        0
 40
0.045
309
GRIDFORMAT_END
 95
        2
302
GRIDFORMAT
  1
GRIDFORMAT_BEGIN
 90
        0
 91
        1
 62
     0
 92
       -2
340
14
 93
        0
 40
0.045
309
GRIDFORMAT_END
 95
        4
302
GRIDFORMAT
  1
GRIDFORMAT_BEGIN
 90
        0
 91
        1
 62
     0
 92
       -2
340
14
 93
        0
 40
0.045
309
GRIDFORMAT_END
 95
        8
302
GRIDFORMAT
  1
GRIDFORMAT_BEGIN
 90
        0
 91
        1
 62
     0
 92
       -2
340
14
 93
        0
 40
0.045
309
GRIDFORMAT_END
 95
       16
302
GRIDFORMAT
  1
GRIDFORMAT_BEGIN
 90
        0
 91
        1
 62
     0
 92
       -2
340
14
 93
        0
 40
0.045
309
GRIDFORMAT_END
 95
       32
302
GRIDFORMAT
  1
GRIDFORMAT_BEGIN
 90
        0
 91
        1
 62
     0
 92
       -2
340
14
 93
        0
 40
0.045
309
GRIDFORMAT_END
309
TABLEFORMAT_END
  1
CELLSTYLE_BEGIN
 90
        3
 91
        2
300
_DATA
309
CELLSTYLE_END
  0
ENDSEC
  0
EOF
