  0
SECTION
  2
HEADER
  9
$ACADVER
  1
AC1032
  9
$ACADMAINTVER
 90
       55
  9
$DWGCODEPAGE
  3
ANSI_1252
  9
$LASTSAVEDBY
  1
LYI-002
  9
$REQUIREDVERSIONS
160
                 0
  9
$INSBASE
 10
0.0
 20
0.0
 30
0.0
  9
$EXTMIN
 10
-1200.15
 20
-590.1266
 30
0.0
  9
$EXTMAX
 10
1200.05
 20
590.0734
 30
0.0
  9
$LIMMIN
 10
0.0
 20
0.0
  9
$LIMMAX
 10
12.0
 20
9.0
  9
$ORTHOMODE
 70
     0
  9
$REGENMODE
 70
     1
  9
$FILLMODE
 70
     1
  9
$QTEXTMODE
 70
     0
  9
$MIRRTEXT
 70
     1
  9
$LTSCALE
 40
1.0
  9
$ATTMODE
 70
     1
  9
$TEXTSIZE
 40
0.2
  9
$TRACEWID
 40
0.05
  9
$TEXTSTYLE
  7
Standard
  9
$CLAYER
  8
0
  9
$CELTYPE
  6
ByLayer
  9
$CECOLOR
 62
   256
  9
$CELTSCALE
 40
1.0
  9
$DISPSILH
 70
     0
  9
$DIMSCALE
 40
1.0
  9
$DIMASZ
 40
0.18
  9
$DIMEXO
 40
0.0625
  9
$DIMDLI
 40
0.38
  9
$DIMRND
 40
0.0
  9
$DIMDLE
 40
0.0
  9
$DIMEXE
 40
0.18
  9
$DIMTP
 40
0.0
  9
$DIMTM
 40
0.0
  9
$DIMTXT
 40
0.18
  9
$DIMCEN
 40
0.09
  9
$DIMTSZ
 40
0.0
  9
$DIMTOL
 70
     0
  9
$DIMLIM
 70
     0
  9
$DIMTIH
 70
     1
  9
$DIMTOH
 70
     1
  9
$DIMSE1
 70
     0
  9
$DIMSE2
 70
     0
  9
$DIMTAD
 70
     0
  9
$DIMZIN
 70
     0
  9
$DIMBLK
  1

  9
$DIMASO
 70
     1
  9
$DIMSHO
 70
     1
  9
$DIMPOST
  1

  9
$DIMAPOST
  1

  9
$DIMALT
 70
     0
  9
$DIMALTD
 70
     2
  9
$DIMALTF
 40
25.4
  9
$DIMLFAC
 40
1.0
  9
$DIMTOFL
 70
     0
  9
$DIMTVP
 40
0.0
  9
$DIMTIX
 70
     0
  9
$DIMSOXD
 70
     0
  9
$DIMSAH
 70
     0
  9
$DIMBLK1
  1

  9
$DIMBLK2
  1

  9
$DIMSTYLE
  2
Standard
  9
$DIMCLRD
 70
     0
  9
$DIMCLRE
 70
     0
  9
$DIMCLRT
 70
     0
  9
$DIMTFAC
 40
1.0
  9
$DIMGAP
 40
0.09
  9
$DIMJUST
 70
     0
  9
$DIMSD1
 70
     0
  9
$DIMSD2
 70
     0
  9
$DIMTOLJ
 70
     1
  9
$DIMTZIN
 70
     0
  9
$DIMALTZ
 70
     0
  9
$DIMALTTZ
 70
     0
  9
$DIMUPT
 70
     0
  9
$DIMDEC
 70
     4
  9
$DIMTDEC
 70
     4
  9
$DIMALTU
 70
     2
  9
$DIMALTTD
 70
     2
  9
$DIMTXSTY
  7
Standard
  9
$DIMAUNIT
 70
     0
  9
$DIMADEC
 70
     0
  9
$DIMALTRND
 40
0.0
  9
$DIMAZIN
 70
     0
  9
$DIMDSEP
 70
    46
  9
$DIMATFIT
 70
     3
  9
$DIMFRAC
 70
     0
  9
$DIMLDRBLK
  1

  9
$DIMLUNIT
 70
     2
  9
$DIMLWD
 70
    -2
  9
$DIMLWE
 70
    -2
  9
$DIMTMOVE
 70
     0
  9
$DIMFXL
 40
1.0
  9
$DIMFXLON
 70
     0
  9
$DIMJOGANG
 40
0.7853981633974483
  9
$DIMTFILL
 70
     0
  9
$DIMTFILLCLR
 70
     0
  9
$DIMARCSYM
 70
     0
  9
$DIMLTYPE
  6

  9
$DIMLTEX1
  6

  9
$DIMLTEX2
  6

  9
$DIMTXTDIRECTION
 70
     0
  9
$LUNITS
 70
     2
  9
$LUPREC
 70
     4
  9
$SKETCHINC
 40
0.1
  9
$FILLETRAD
 40
0.0
  9
$AUNITS
 70
     0
  9
$AUPREC
 70
     0
  9
$MENU
  1
.
  9
$ELEVATION
 40
0.0
  9
$PELEVATION
 40
0.0
  9
$THICKNESS
 40
0.0
  9
$LIMCHECK
 70
     0
  9
$CHAMFERA
 40
0.0
  9
$CHAMFERB
 40
0.0
  9
$CHAMFERC
 40
0.0
  9
$CHAMFERD
 40
0.0
  9
$SKPOLY
 70
     0
  9
$TDCREATE
 40
2460652.635558588
  9
$TDUCREATE
 40
2460652.406391922
  9
$TDUPDATE
 40
2460652.635558611
  9
$TDUUPDATE
 40
2460652.406391945
  9
$TDINDWG
 40
0.0000000116
  9
$TDUSRTIMER
 40
0.0000000116
  9
$USRTIMER
 70
     1
  9
$ANGBASE
 50
0.0
  9
$ANGDIR
 70
     0
  9
$PDMODE
 70
     0
  9
$PDSIZE
 40
0.0
  9
$PLINEWID
 40
0.0
  9
$SPLFRAME
 70
     0
  9
$SPLINETYPE
 70
     6
  9
$SPLINESEGS
 70
     8
  9
$HANDSEED
  5
7F
  9
$SURFTAB1
 70
     6
  9
$SURFTAB2
 70
     6
  9
$SURFTYPE
 70
     6
  9
$SURFU
 70
     6
  9
$SURFV
 70
     6
  9
$UCSBASE
  2

  9
$UCSNAME
  2

  9
$UCSORG
 10
0.0
 20
0.0
 30
0.0
  9
$UCSXDIR
 10
1.0
 20
0.0
 30
0.0
  9
$UCSYDIR
 10
0.0
 20
1.0
 30
0.0
  9
$UCSORTHOREF
  2

  9
$UCSORTHOVIEW
 70
     0
  9
$UCSORGTOP
 10
0.0
 20
0.0
 30
0.0
  9
$UCSORGBOTTOM
 10
0.0
 20
0.0
 30
0.0
  9
$UCSORGLEFT
 10
0.0
 20
0.0
 30
0.0
  9
$UCSORGRIGHT
 10
0.0
 20
0.0
 30
0.0
  9
$UCSORGFRONT
 10
0.0
 20
0.0
 30
0.0
  9
$UCSORGBACK
 10
0.0
 20
0.0
 30
0.0
  9
$PUCSBASE
  2

  9
$PUCSNAME
  2

  9
$PUCSORG
 10
0.0
 20
0.0
 30
0.0
  9
$PUCSXDIR
 10
1.0
 20
0.0
 30
0.0
  9
$PUCSYDIR
 10
0.0
 20
1.0
 30
0.0
  9
$PUCSORTHOREF
  2

  9
$PUCSORTHOVIEW
 70
     0
  9
$PUCSORGTOP
 10
0.0
 20
0.0
 30
0.0
  9
$PUCSORGBOTTOM
 10
0.0
 20
0.0
 30
0.0
  9
$PUCSORGLEFT
 10
0.0
 20
0.0
 30
0.0
  9
$PUCSORGRIGHT
 10
0.0
 20
0.0
 30
0.0
  9
$PUCSORGFRONT
 10
0.0
 20
0.0
 30
0.0
  9
$PUCSORGBACK
 10
0.0
 20
0.0
 30
0.0
  9
$USERI1
 70
     0
  9
$USERI2
 70
     0
  9
$USERI3
 70
     0
  9
$USERI4
 70
     0
  9
$USERI5
 70
     0
  9
$USERR1
 40
0.0
  9
$USERR2
 40
0.0
  9
$USERR3
 40
0.0
  9
$USERR4
 40
0.0
  9
$USERR5
 40
0.0
  9
$WORLDVIEW
 70
     1
  9
$SHADEDGE
 70
     3
  9
$SHADEDIF
 70
    70
  9
$TILEMODE
 70
     1
  9
$MAXACTVP
 70
    64
  9
$PINSBASE
 10
0.0
 20
0.0
 30
0.0
  9
$PLIMCHECK
 70
     0
  9
$PEXTMIN
 10
1.000000000000000E+20
 20
1.000000000000000E+20
 30
1.000000000000000E+20
  9
$PEXTMAX
 10
-1.000000000000000E+20
 20
-1.000000000000000E+20
 30
-1.000000000000000E+20
  9
$PLIMMIN
 10
0.0
 20
0.0
  9
$PLIMMAX
 10
12.0
 20
9.0
  9
$UNITMODE
 70
     0
  9
$VISRETAIN
 70
     1
  9
$PLINEGEN
 70
     0
  9
$PSLTSCALE
 70
     1
  9
$TREEDEPTH
 70
  3020
  9
$CMLSTYLE
  2
Standard
  9
$CMLJUST
 70
     0
  9
$CMLSCALE
 40
1.0
  9
$PROXYGRAPHICS
 70
     1
  9
$MEASUREMENT
 70
     0
  9
$CELWEIGHT
370
    -1
  9
$ENDCAPS
280
     0
  9
$JOINSTYLE
280
     0
  9
$LWDISPLAY
290
     0
  9
$INSUNITS
 70
     4
  9
$HYPERLINKBASE
  1

  9
$STYLESHEET
  1

  9
$XEDIT
290
     1
  9
$CEPSNTYPE
380
     0
  9
$PSTYLEMODE
290
     1
  9
$FINGERPRINTGUID
  2
{cb1b9fc0-ef40-4dbb-9f1b-9270379901ba}
  9
$VERSIONGUID
  2
{FAEB1C32-E019-11D5-929B-00C0DF256EC4}
  9
$EXTNAMES
290
     1
  9
$PSVPSCALE
 40
0.0
  9
$OLESTARTUP
290
     0
  9
$SORTENTS
280
   127
  9
$INDEXCTL
280
     0
  9
$HIDETEXT
280
     1
  9
$XCLIPFRAME
280
     2
  9
$HALOGAP
280
     0
  9
$OBSCOLOR
 70
   257
  9
$OBSLTYPE
280
     0
  9
$INTERSECTIONDISPLAY
280
     0
  9
$INTERSECTIONCOLOR
 70
   257
  9
$DIMASSOC
280
     2
  9
$PROJECTNAME
  1

  9
$CAMERADISPLAY
290
     0
  9
$LENSLENGTH
 40
50.0
  9
$CAMERAHEIGHT
 40
0.0
  9
$STEPSPERSEC
 40
2.0
  9
$STEPSIZE
 40
6.0
  9
$3DDWFPREC
 40
2.0
  9
$PSOLWIDTH
 40
0.25
  9
$PSOLHEIGHT
 40
4.0
  9
$LOFTANG1
 40
1.570796326794897
  9
$LOFTANG2
 40
1.570796326794897
  9
$LOFTMAG1
 40
0.0
  9
$LOFTMAG2
 40
0.0
  9
$LOFTPARAM
 70
     7
  9
$LOFTNORMALS
280
     1
  9
$LATITUDE
 40
37.795
  9
$LONGITUDE
 40
-122.394
  9
$NORTHDIRECTION
 40
0.0
  9
$TIMEZONE
 70
 -8000
  9
$LIGHTGLYPHDISPLAY
280
     1
  9
$TILEMODELIGHTSYNCH
280
     1
  9
$CMATERIAL
347
44
  9
$SOLIDHIST
280
     0
  9
$SHOWHIST
280
     1
  9
$DWFFRAME
280
     2
  9
$DGNFRAME
280
     2
  9
$REALWORLDSCALE
290
     1
  9
$INTERFERECOLOR
 62
   256
  9
$CSHADOW
280
     0
  9
$SHADOWPLANELOCATION
 40
0.0
  0
ENDSEC
  0
SECTION
  2
CLASSES
  0
CLASS
  1
ACDBDICTIONARYWDFLT
  2
AcDbDictionaryWithDefault
  3
ObjectDBX Classes
 90
        0
 91
        3
280
     0
281
     0
  0
CLASS
  1
VISUALSTYLE
  2
AcDbVisualStyle
  3
ObjectDBX Classes
 90
     4095
 91
        3
280
     0
281
     0
  0
CLASS
  1
MATERIAL
  2
AcDbMaterial
  3
ObjectDBX Classes
 90
     1153
 91
        3
280
     0
281
     0
  0
CLASS
  1
SCALE
  2
AcDbScale
  3
ObjectDBX Classes
 90
     1153
 91
        3
280
     0
281
     0
  0
CLASS
  1
TABLESTYLE
  2
AcDbTableStyle
  3
ObjectDBX Classes
 90
     4095
 91
        3
280
     0
281
     0
  0
CLASS
  1
MLEADERSTYLE
  2
AcDbMLeaderStyle
  3
ACDB_MLEADERSTYLE_CLASS
 90
     4095
 91
        3
280
     0
281
     0
  0
CLASS
  1
SUN
  2
AcDbSun
  3
SCENEOE
 90
     1153
 91
        3
280
     0
281
     0
  0
CLASS
  1
DICTIONARYVAR
  2
AcDbDictionaryVar
  3
ObjectDBX Classes
 90
        0
 91
        3
280
     0
281
     0
  0
CLASS
  1
CELLSTYLEMAP
  2
AcDbCellStyleMap
  3
ObjectDBX Classes
 90
     1152
 91
        3
280
     0
281
     0
  0
ENDSEC
  0
SECTION
  2
TABLES
  0
TABLE
  2
VPORT
  5
8
330
0
100
AcDbSymbolTable
 70
     1
  0
VPORT
  5
29
330
8
100
AcDbSymbolTableRecord
100
AcDbViewportTableRecord
  2
*Active
 70
     0
 10
0.0
 20
0.0
 11
1.0
 21
1.0
 12
10.42990654205607
 22
4.5
 13
0.0
 23
0.0
 14
0.5
 24
0.5
 15
0.5
 25
0.5
 16
0.0
 26
0.0
 36
1.0
 17
0.0
 27
0.0
 37
0.0
 40
9.0
 41
1.972972972850329
 42
50.0
 43
0.0
 44
0.0
 50
0.0
 51
0.0
 71
     0
 72
   100
 73
     1
 74
     3
 75
     0
 76
     0
 77
     0
 78
     0
281
     0
 65
     1
110
0.0
120
0.0
130
0.0
111
1.0
121
0.0
131
0.0
112
0.0
122
1.0
132
0.0
 79
     0
146
0.0
348
2F
 60
     3
 61
     5
292
     1
282
     1
141
0.0
142
0.0
 63
   250
361
5D
  0
ENDTAB
  0
TABLE
  2
LTYPE
  5
5
330
0
100
AcDbSymbolTable
 70
     1
  0
LTYPE
  5
14
330
5
100
AcDbSymbolTableRecord
100
AcDbLinetypeTableRecord
  2
ByBlock
 70
     0
  3

 72
    65
 73
     0
 40
0.0
  0
LTYPE
  5
15
330
5
100
AcDbSymbolTableRecord
100
AcDbLinetypeTableRecord
  2
ByLayer
 70
     0
  3

 72
    65
 73
     0
 40
0.0
  0
LTYPE
  5
16
330
5
100
AcDbSymbolTableRecord
100
AcDbLinetypeTableRecord
  2
Continuous
 70
     0
  3
Solid line
 72
    65
 73
     0
 40
0.0
  0
ENDTAB
  0
TABLE
  2
LAYER
  5
2
330
0
100
AcDbSymbolTable
 70
     2
  0
LAYER
  5
10
330
2
100
AcDbSymbolTableRecord
100
AcDbLayerTableRecord
  2
0
 70
     0
 62
     7
  6
Continuous
370
    -3
390
F
347
46
348
0
  0
LAYER
  5
5F
330
2
100
AcDbSymbolTableRecord
100
AcDbLayerTableRecord
  2
Layer 1
 70
     0
 62
     7
  6
Continuous
370
    -3
390
F
347
46
348
0
  0
ENDTAB
  0
TABLE
  2
STYLE
  5
3
330
0
100
AcDbSymbolTable
 70
     1
  0
STYLE
  5
11
330
3
100
AcDbSymbolTableRecord
100
AcDbTextStyleTableRecord
  2
Standard
 70
     0
 40
0.0
 41
1.0
 50
0.0
 71
     0
 42
0.2
  3
txt
  4

  0
ENDTAB
  0
TABLE
  2
VIEW
  5
6
330
0
100
AcDbSymbolTable
 70
     0
  0
ENDTAB
  0
TABLE
  2
UCS
  5
7
330
0
100
AcDbSymbolTable
 70
     0
  0
ENDTAB
  0
TABLE
  2
APPID
  5
9
330
0
100
AcDbSymbolTable
 70
     2
  0
APPID
  5
12
330
9
100
AcDbSymbolTableRecord
100
AcDbRegAppTableRecord
  2
ACAD
 70
     0
  0
APPID
  5
5E
330
9
100
AcDbSymbolTableRecord
100
AcDbRegAppTableRecord
  2
ODA
 70
     0
  0
ENDTAB
  0
TABLE
  2
DIMSTYLE
  5
A
330
0
100
AcDbSymbolTable
 70
     1
100
AcDbDimStyleTable
  0
DIMSTYLE
105
27
330
A
100
AcDbSymbolTableRecord
100
AcDbDimStyleTableRecord
  2
Standard
 70
     0
178
     0
340
11
  0
ENDTAB
  0
TABLE
  2
BLOCK_RECORD
  5
1
330
0
100
AcDbSymbolTable
 70
     1
  0
BLOCK_RECORD
  5
1F
330
1
100
AcDbSymbolTableRecord
100
AcDbBlockTableRecord
  2
*Model_Space
340
22
 70
     0
280
     1
281
     0
  0
BLOCK_RECORD
  5
1B
330
1
100
AcDbSymbolTableRecord
100
AcDbBlockTableRecord
  2
*Paper_Space
340
1E
 70
     0
280
     1
281
     0
  0
BLOCK_RECORD
  5
23
330
1
100
AcDbSymbolTableRecord
100
AcDbBlockTableRecord
  2
*Paper_Space0
340
26
 70
     0
280
     1
281
     0
  0
ENDTAB
  0
ENDSEC
  0
SECTION
  2
BLOCKS
  0
BLOCK
  5
20
330
1F
100
AcDbEntity
  8
0
100
AcDbBlockBegin
  2
*Model_Space
 70
     0
 10
0.0
 20
0.0
 30
0.0
  3
*Model_Space
  1

  0
ENDBLK
  5
21
330
1F
100
AcDbEntity
  8
0
100
AcDbBlockEnd
  0
BLOCK
  5
1C
330
1B
100
AcDbEntity
 67
     1
  8
0
100
AcDbBlockBegin
  2
*Paper_Space
 70
     0
 10
0.0
 20
0.0
 30
0.0
  3
*Paper_Space
  1

  0
ENDBLK
  5
1D
330
1B
100
AcDbEntity
 67
     1
  8
0
100
AcDbBlockEnd
  0
BLOCK
  5
24
330
23
100
AcDbEntity
  8
0
100
AcDbBlockBegin
  2
*Paper_Space0
 70
     0
 10
0.0
 20
0.0
 30
0.0
  3
*Paper_Space0
  1

  0
ENDBLK
  5
25
330
23
100
AcDbEntity
  8
0
100
AcDbBlockEnd
  0
ENDSEC
  0
SECTION
  2
ENTITIES
  0
SPLINE
  5
60
330
1F
100
AcDbEntity
  8
Layer 1
 62
   250
370
    20
100
AcDbSpline
210
0.0
220
0.0
230
1.0
 70
    11
 71
     3
 72
    68
 73
    64
 74
     0
 42
0.0000000001
 43
0.0000000001
 40
0.0
 40
0.0
 40
0.0
 40
0.0
 40
0.0476190476190476
 40
0.0476190476190476
 40
0.0476190476190476
 40
0.0952380952380952
 40
0.0952380952380952
 40
0.0952380952380952
 40
0.1428571428571428
 40
0.1428571428571428
 40
0.1428571428571428
 40
0.1904761904761905
 40
0.1904761904761905
 40
0.1904761904761905
 40
0.2380952380952381
 40
0.2380952380952381
 40
0.2380952380952381
 40
0.2857142857142857
 40
0.2857142857142857
 40
0.2857142857142857
 40
0.3333333333333333
 40
0.3333333333333333
 40
0.3333333333333333
 40
0.3809523809523809
 40
0.3809523809523809
 40
0.3809523809523809
 40
0.4285714285714285
 40
0.4285714285714285
 40
0.4285714285714285
 40
0.4761904761904762
 40
0.4761904761904762
 40
0.4761904761904762
 40
0.5238095238095237
 40
0.5238095238095237
 40
0.5238095238095237
 40
0.5714285714285714
 40
0.5714285714285714
 40
0.5714285714285714
 40
0.6190476190476191
 40
0.6190476190476191
 40
0.6190476190476191
 40
0.6666666666666666
 40
0.6666666666666666
 40
0.6666666666666666
 40
0.7142857142857142
 40
0.7142857142857142
 40
0.7142857142857142
 40
0.7619047619047619
 40
0.7619047619047619
 40
0.7619047619047619
 40
0.8095238095238095
 40
0.8095238095238095
 40
0.8095238095238095
 40
0.8571428571428571
 40
0.8571428571428571
 40
0.8571428571428571
 40
0.9047619047619047
 40
0.9047619047619047
 40
0.9047619047619047
 40
0.9523809523809523
 40
0.9523809523809523
 40
0.9523809523809523
 40
1.0
 40
1.0
 40
1.0
 40
1.0
 10
849.643
 20
-403.4747
 30
0.0
 10
849.643
 20
-403.4747
 30
0.0
 10
835.3734
 20
-364.5469
 30
0.0
 10
831.4094
 20
-307.926
 30
0.0
 10
827.4458
 20
-251.3053
 30
0.0
 10
791.7714
 20
-151.0389
 30
0.0
 10
779.087
 20
-123.9075
 30
0.0
 10
766.4031
 20
-96.7769
 30
0.0
 10
771.9523
 20
-67.286
 30
0.0
 10
781.4656
 20
-9.4854
 30
0.0
 10
790.9787
 20
48.3148
 30
0.0
 10
832.8107
 20
127.7079
 30
0.0
 10
854.9086
 20
162.0176
 30
0.0
 10
877.0056
 20
196.3286
 30
0.0
 10
942.3384
 20
253.5135
 30
0.0
 10
942.3384
 20
253.5135
 30
0.0
 10
942.3384
 20
253.5135
 30
0.0
 10
948.3507
 20
261.5923
 30
0.0
 10
958.1482
 20
247.0816
 30
0.0
 10
967.9444
 20
232.571
 30
0.0
 10
992.3634
 20
199.7183
 30
0.0
 10
1004.8465
 20
172.9494
 30
0.0
 10
1017.3284
 20
146.1812
 30
0.0
 10
1037.4303
 20
116.6046
 30
0.0
 10
1073.4071
 20
102.8156
 30
0.0
 10
1109.3835
 20
89.0273
 30
0.0
 10
1146.7687
 20
96.7882
 30
0.0
 10
1163.142
 20
75.2368
 30
0.0
 10
1179.5152
 20
53.6861
 30
0.0
 10
1176.996
 20
33.5395
 30
0.0
 10
1147.3988
 20
26.9804
 30
0.0
 10
1117.8012
 20
20.421
 30
0.0
 10
1099.5392
 20
-10.0319
 30
0.0
 10
1078.7583
 20
-36.2684
 30
0.0
 10
1057.9771
 20
-62.5044
 30
0.0
 10
1004.7241
 20
-110.5024
 30
0.0
 10
985.1003
 20
-136.4575
 30
0.0
 10
965.4763
 20
-162.4129
 30
0.0
 10
946.7867
 20
-192.2343
 30
0.0
 10
930.6877
 20
-182.4347
 30
0.0
 10
914.5888
 20
-172.6349
 30
0.0
 10
971.7049
 20
-147.672
 30
0.0
 10
993.1699
 20
-76.6212
 30
0.0
 10
1014.6355
 20
-5.5714
 30
0.0
 10
1021.8241
 20
40.9464
 30
0.0
 10
995.8981
 20
102.4868
 30
0.0
 10
969.9722
 20
164.0255
 30
0.0
 10
941.5774
 20
175.048
 30
0.0
 10
941.5774
 20
175.048
 30
0.0
 10
941.5774
 20
175.048
 30
0.0
 10
943.4291
 20
116.2636
 30
0.0
 10
932.3179
 20
83.1983
 30
0.0
 10
921.2068
 20
50.1316
 30
0.0
 10
897.75
 20
66.6645
 30
0.0
 10
886.6388
 20
-18.7553
 30
0.0
 10
875.5281
 20
-104.1768
 30
0.0
 10
905.1573
 20
-175.8194
 30
0.0
 10
900.8364
 20
-210.7227
 30
0.0
 10
896.5159
 20
-245.6256
 30
0.0
 10
878.6338
 20
-252.0831
 30
0.0
 10
864.9547
 20
-311.8759
 30
0.0
 10
851.2745
 20
-371.6693
 30
0.0
 10
849.643
 20
-403.4747
 30
0.0
 10
849.643
 20
-403.4747
 30
0.0
  0
SPLINE
  5
61
330
1F
100
AcDbEntity
  8
Layer 1
 62
   250
370
    20
100
AcDbSpline
210
0.0
220
0.0
230
1.0
 70
    11
 71
     3
 72
    44
 73
    40
 74
     0
 42
0.0000000001
 43
0.0000000001
 40
0.0
 40
0.0
 40
0.0
 40
0.0
 40
0.0769230769230769
 40
0.0769230769230769
 40
0.0769230769230769
 40
0.1538461538461539
 40
0.1538461538461539
 40
0.1538461538461539
 40
0.2307692307692308
 40
0.2307692307692308
 40
0.2307692307692308
 40
0.3076923076923077
 40
0.3076923076923077
 40
0.3076923076923077
 40
0.3846153846153846
 40
0.3846153846153846
 40
0.3846153846153846
 40
0.4615384615384616
 40
0.4615384615384616
 40
0.4615384615384616
 40
0.5384615384615385
 40
0.5384615384615385
 40
0.5384615384615385
 40
0.6153846153846154
 40
0.6153846153846154
 40
0.6153846153846154
 40
0.6923076923076923
 40
0.6923076923076923
 40
0.6923076923076923
 40
0.7692307692307693
 40
0.7692307692307693
 40
0.7692307692307693
 40
0.8461538461538463
 40
0.8461538461538463
 40
0.8461538461538463
 40
0.9230769230769231
 40
0.9230769230769231
 40
0.9230769230769231
 40
1.0
 40
1.0
 40
1.0
 40
1.0
 10
357.6977
 20
268.2217
 30
0.0
 10
357.6977
 20
268.2217
 30
0.0
 10
358.2368
 20
249.7793
 30
0.0
 10
372.2472
 20
222.5173
 30
0.0
 10
408.4981
 20
151.9817
 30
0.0
 10
436.5969
 20
137.7445
 30
0.0
 10
488.1065
 20
103.0435
 30
0.0
 10
504.5702
 20
91.9529
 30
0.0
 10
520.6081
 20
59.1567
 30
0.0
 10
526.3309
 20
29.1488
 30
0.0
 10
532.0529
 20
-0.8601
 30
0.0
 10
519.4919
 20
-36.9736
 30
0.0
 10
524.2112
 20
-78.1712
 30
0.0
 10
528.9305
 20
-119.3683
 30
0.0
 10
566.8862
 20
-145.7389
 30
0.0
 10
615.4975
 20
-181.3305
 30
0.0
 10
664.108
 20
-216.9228
 30
0.0
 10
696.0555
 20
-228.9217
 30
0.0
 10
732.4574
 20
-269.1991
 30
0.0
 10
768.8598
 20
-309.4763
 30
0.0
 10
809.9289
 20
-383.0859
 30
0.0
 10
799.6617
 20
-303.9211
 30
0.0
 10
789.3939
 20
-224.7555
 30
0.0
 10
702.589
 20
-34.4817
 30
0.0
 10
674.5868
 20
30.795
 30
0.0
 10
646.5853
 20
96.0711
 30
0.0
 10
595.5847
 20
206.2915
 30
0.0
 10
582.4178
 20
222.4765
 30
0.0
 10
569.2506
 20
238.6609
 30
0.0
 10
543.4888
 20
244.624
 30
0.0
 10
526.8871
 20
232.6982
 30
0.0
 10
510.2852
 20
220.7731
 30
0.0
 10
476.3719
 20
184.2739
 30
0.0
 10
443.3918
 20
198.0138
 30
0.0
 10
410.4122
 20
211.754
 30
0.0
 10
396.6972
 20
239.6426
 30
0.0
 10
380.376
 20
254.892
 30
0.0
 10
364.0536
 20
270.1422
 30
0.0
 10
357.6977
 20
268.2217
 30
0.0
 10
357.6977
 20
268.2217
 30
0.0
  0
SPLINE
  5
62
330
1F
100
AcDbEntity
  8
Layer 1
 62
   250
370
    20
100
AcDbSpline
210
0.0
220
0.0
230
1.0
 70
    11
 71
     3
 72
    74
 73
    70
 74
     0
 42
0.0000000001
 43
0.0000000001
 40
0.0
 40
0.0
 40
0.0
 40
0.0
 40
0.0434782608695652
 40
0.0434782608695652
 40
0.0434782608695652
 40
0.0869565217391304
 40
0.0869565217391304
 40
0.0869565217391304
 40
0.1304347826086956
 40
0.1304347826086956
 40
0.1304347826086956
 40
0.1739130434782609
 40
0.1739130434782609
 40
0.1739130434782609
 40
0.2173913043478261
 40
0.2173913043478261
 40
0.2173913043478261
 40
0.2608695652173913
 40
0.2608695652173913
 40
0.2608695652173913
 40
0.3043478260869565
 40
0.3043478260869565
 40
0.3043478260869565
 40
0.3478260869565217
 40
0.3478260869565217
 40
0.3478260869565217
 40
0.3913043478260869
 40
0.3913043478260869
 40
0.3913043478260869
 40
0.4347826086956522
 40
0.4347826086956522
 40
0.4347826086956522
 40
0.4782608695652174
 40
0.4782608695652174
 40
0.4782608695652174
 40
0.5217391304347826
 40
0.5217391304347826
 40
0.5217391304347826
 40
0.5652173913043478
 40
0.5652173913043478
 40
0.5652173913043478
 40
0.6086956521739131
 40
0.6086956521739131
 40
0.6086956521739131
 40
0.6521739130434783
 40
0.6521739130434783
 40
0.6521739130434783
 40
0.6956521739130435
 40
0.6956521739130435
 40
0.6956521739130435
 40
0.7391304347826086
 40
0.7391304347826086
 40
0.7391304347826086
 40
0.7826086956521738
 40
0.7826086956521738
 40
0.7826086956521738
 40
0.8260869565217391
 40
0.8260869565217391
 40
0.8260869565217391
 40
0.8695652173913043
 40
0.8695652173913043
 40
0.8695652173913043
 40
0.9130434782608695
 40
0.9130434782608695
 40
0.9130434782608695
 40
0.9565217391304348
 40
0.9565217391304348
 40
0.9565217391304348
 40
1.0
 40
1.0
 40
1.0
 40
1.0
 10
18.1298
 20
115.4137
 30
0.0
 10
18.1298
 20
115.4137
 30
0.0
 10
53.433
 20
93.9381
 30
0.0
 10
75.1965
 20
108.0825
 30
0.0
 10
96.9594
 20
122.227
 30
0.0
 10
126.7482
 20
121.8762
 30
0.0
 10
155.3656
 20
105.6553
 30
0.0
 10
183.9835
 20
89.4325
 30
0.0
 10
207.027
 20
9.4136
 30
0.0
 10
205.5115
 20
-12.3901
 30
0.0
 10
203.9953
 20
-34.193
 30
0.0
 10
214.4145
 20
-44.1923
 30
0.0
 10
243.3277
 20
-36.5743
 30
0.0
 10
272.2402
 20
-28.9563
 30
0.0
 10
312.4558
 20
-45.5094
 30
0.0
 10
326.1767
 20
-51.8606
 30
0.0
 10
339.8975
 20
-58.2125
 30
0.0
 10
381.1221
 20
-79.0734
 30
0.0
 10
405.0047
 20
-89.3601
 30
0.0
 10
428.887
 20
-99.6474
 30
0.0
 10
460.3111
 20
-104.3236
 30
0.0
 10
467.2245
 20
-99.6474
 30
0.0
 10
474.1379
 20
-94.9716
 30
0.0
 10
465.3395
 20
-94.9716
 30
0.0
 10
410.0325
 20
-52.8886
 30
0.0
 10
354.726
 20
-10.8061
 30
0.0
 10
341.5277
 20
49.0443
 30
0.0
 10
330.8437
 20
94.8681
 30
0.0
 10
320.1596
 20
140.6912
 30
0.0
 10
327.7009
 20
222.9858
 30
0.0
 10
332.7289
 20
243.5595
 30
0.0
 10
337.7571
 20
264.1335
 30
0.0
 10
350.3267
 20
284.7067
 30
0.0
 10
326.4439
 20
285.6424
 30
0.0
 10
302.5618
 20
286.5777
 30
0.0
 10
306.3327
 20
293.1231
 30
0.0
 10
324.5585
 20
315.5673
 30
0.0
 10
342.7849
 20
338.0113
 30
0.0
 10
372.3236
 20
350.1685
 30
0.0
 10
407.5189
 20
341.7518
 30
0.0
 10
442.7136
 20
333.3347
 30
0.0
 10
476.0233
 20
293.1231
 30
0.0
 10
486.7076
 20
282.8368
 30
0.0
 10
497.3919
 20
272.5495
 30
0.0
 10
514.1115
 20
270.827
 30
0.0
 10
527.3847
 20
269.3643
 30
0.0
 10
540.6577
 20
267.902
 30
0.0
 10
551.9639
 20
283.2621
 30
0.0
 10
516.5698
 20
311.7892
 30
0.0
 10
481.1759
 20
340.3167
 30
0.0
 10
444.7981
 20
376.1591
 30
0.0
 10
433.4916
 20
382.0105
 30
0.0
 10
422.1854
 20
387.8623
 30
0.0
 10
386.6868
 20
379.299
 30
0.0
 10
336.3083
 20
388.6694
 30
0.0
 10
285.9302
 20
398.0397
 30
0.0
 10
232.4029
 20
407.41
 30
0.0
 10
232.4029
 20
407.41
 30
0.0
 10
232.4029
 20
407.41
 30
0.0
 10
213.0695
 20
417.1705
 30
0.0
 10
202.2568
 20
342.7612
 30
0.0
 10
191.4447
 20
268.352
 30
0.0
 10
167.038
 20
228.5538
 30
0.0
 10
114.7532
 20
193.9772
 30
0.0
 10
62.4682
 20
159.4003
 30
0.0
 10
74.0424
 20
169.5369
 30
0.0
 10
50.8721
 20
149.3261
 30
0.0
 10
27.7017
 20
129.1152
 30
0.0
 10
18.1298
 20
115.4137
 30
0.0
 10
18.1298
 20
115.4137
 30
0.0
  0
SPLINE
  5
63
330
1F
100
AcDbEntity
  8
Layer 1
 62
   250
370
    20
100
AcDbSpline
210
0.0
220
0.0
230
1.0
 70
    11
 71
     3
 72
    98
 73
    94
 74
     0
 42
0.0000000001
 43
0.0000000001
 40
0.0
 40
0.0
 40
0.0
 40
0.0
 40
0.032258064516129
 40
0.032258064516129
 40
0.032258064516129
 40
0.0645161290322581
 40
0.0645161290322581
 40
0.0645161290322581
 40
0.0967741935483871
 40
0.0967741935483871
 40
0.0967741935483871
 40
0.1290322580645161
 40
0.1290322580645161
 40
0.1290322580645161
 40
0.1612903225806452
 40
0.1612903225806452
 40
0.1612903225806452
 40
0.1935483870967742
 40
0.1935483870967742
 40
0.1935483870967742
 40
0.2258064516129032
 40
0.2258064516129032
 40
0.2258064516129032
 40
0.2580645161290323
 40
0.2580645161290323
 40
0.2580645161290323
 40
0.2903225806451613
 40
0.2903225806451613
 40
0.2903225806451613
 40
0.3225806451612903
 40
0.3225806451612903
 40
0.3225806451612903
 40
0.3548387096774194
 40
0.3548387096774194
 40
0.3548387096774194
 40
0.3870967741935484
 40
0.3870967741935484
 40
0.3870967741935484
 40
0.4193548387096774
 40
0.4193548387096774
 40
0.4193548387096774
 40
0.4516129032258064
 40
0.4516129032258064
 40
0.4516129032258064
 40
0.4838709677419355
 40
0.4838709677419355
 40
0.4838709677419355
 40
0.5161290322580645
 40
0.5161290322580645
 40
0.5161290322580645
 40
0.5483870967741935
 40
0.5483870967741935
 40
0.5483870967741935
 40
0.5806451612903225
 40
0.5806451612903225
 40
0.5806451612903225
 40
0.6129032258064516
 40
0.6129032258064516
 40
0.6129032258064516
 40
0.6451612903225806
 40
0.6451612903225806
 40
0.6451612903225806
 40
0.6774193548387096
 40
0.6774193548387096
 40
0.6774193548387096
 40
0.7096774193548387
 40
0.7096774193548387
 40
0.7096774193548387
 40
0.7419354838709677
 40
0.7419354838709677
 40
0.7419354838709677
 40
0.7741935483870968
 40
0.7741935483870968
 40
0.7741935483870968
 40
0.8064516129032258
 40
0.8064516129032258
 40
0.8064516129032258
 40
0.8387096774193548
 40
0.8387096774193548
 40
0.8387096774193548
 40
0.8709677419354839
 40
0.8709677419354839
 40
0.8709677419354839
 40
0.9032258064516129
 40
0.9032258064516129
 40
0.9032258064516129
 40
0.9354838709677419
 40
0.9354838709677419
 40
0.9354838709677419
 40
0.967741935483871
 40
0.967741935483871
 40
0.967741935483871
 40
1.0
 40
1.0
 40
1.0
 40
1.0
 10
-1066.2669
 20
515.0113
 30
0.0
 10
-1066.2669
 20
515.0113
 30
0.0
 10
-1032.3859
 20
478.5673
 30
0.0
 10
-1012.3838
 20
474.9233
 30
0.0
 10
-992.382
 20
471.2797
 30
0.0
 10
-947.5392
 20
422.7019
 30
0.0
 10
-928.274
 20
361.5482
 30
0.0
 10
-909.0089
 20
300.3935
 30
0.0
 10
-897.0892
 20
226.9132
 30
0.0
 10
-909.1557
 20
185.3922
 30
0.0
 10
-921.2228
 20
143.8701
 30
0.0
 10
-966.8508
 20
104.0329
 30
0.0
 10
-923.1081
 20
75.4162
 30
0.0
 10
-879.3657
 20
46.8003
 30
0.0
 10
-859.7753
 20
80.9161
 30
0.0
 10
-812.1052
 20
24.3398
 30
0.0
 10
-764.4351
 20
-32.2377
 30
0.0
 10
-763.8003
 20
-110.0693
 30
0.0
 10
-727.6594
 20
-171.2406
 30
0.0
 10
-691.5184
 20
-232.4115
 30
0.0
 10
-643.18
 20
-226.3616
 30
0.0
 10
-589.8722
 20
-235.7724
 30
0.0
 10
-536.5641
 20
-245.183
 30
0.0
 10
-497.1412
 20
-239.9667
 30
0.0
 10
-454.5785
 20
-234.0552
 30
0.0
 10
-412.0158
 20
-228.1448
 30
0.0
 10
-399.5308
 20
-209.5675
 30
0.0
 10
-399.5308
 20
-209.5675
 30
0.0
 10
-399.5308
 20
-209.5675
 30
0.0
 10
-429.6086
 20
-199.4344
 30
0.0
 10
-477.2786
 20
-178.3234
 30
0.0
 10
-524.9488
 20
-157.2131
 30
0.0
 10
-553.6368
 20
-135.3869
 30
0.0
 10
-577.1591
 20
-71.081
 30
0.0
 10
-595.6403
 20
-20.5588
 30
0.0
 10
-609.3645
 20
109.4263
 30
0.0
 10
-579.9969
 20
77.5387
 30
0.0
 10
-558.9992
 20
54.7386
 30
0.0
 10
-538.5689
 20
45.4505
 30
0.0
 10
-514.7339
 20
43.7615
 30
0.0
 10
-490.8994
 20
42.0725
 30
0.0
 10
-459.6864
 20
32.7837
 30
0.0
 10
-436.9865
 20
-19.5705
 30
0.0
 10
-414.2861
 20
-71.9253
 30
0.0
 10
-427.6898
 20
-77.1308
 30
0.0
 10
-403.7461
 20
-143.0071
 30
0.0
 10
-379.8027
 20
-208.8841
 30
0.0
 10
-330.0371
 20
-194.101
 30
0.0
 10
-329.0857
 20
-171.4639
 30
0.0
 10
-328.1353
 20
-148.8276
 30
0.0
 10
-318.826
 20
-93.5101
 30
0.0
 10
-345.658
 20
-15.1117
 30
0.0
 10
-372.4901
 20
63.2871
 30
0.0
 10
-382.562
 20
78.6271
 30
0.0
 10
-414.3605
 20
106.4606
 30
0.0
 10
-446.1594
 20
134.2926
 30
0.0
 10
-499.1575
 20
115.7374
 30
0.0
 10
-528.4624
 20
145.4261
 30
0.0
 10
-557.7666
 20
175.1147
 30
0.0
 10
-569.3134
 20
230.3282
 30
0.0
 10
-596.6932
 20
243.2908
 30
0.0
 10
-624.0727
 20
256.2537
 30
0.0
 10
-663.2753
 20
256.2537
 30
0.0
 10
-670.7427
 20
254.4021
 30
0.0
 10
-678.2097
 20
252.55
 30
0.0
 10
-669.4117
 20
202.8255
 30
0.0
 10
-677.8016
 20
163.5924
 30
0.0
 10
-686.1907
 20
124.36
 30
0.0
 10
-688.9877
 20
117.2263
 30
0.0
 10
-688.9877
 20
117.2263
 30
0.0
 10
-688.9877
 20
117.2263
 30
0.0
 10
-686.1907
 20
134.4654
 30
0.0
 10
-700.173
 20
162.4035
 30
0.0
 10
-714.1549
 20
190.3417
 30
0.0
 10
-722.9963
 20
209.4419
 30
0.0
 10
-751.6773
 20
220.5746
 30
0.0
 10
-780.3587
 20
231.7077
 30
0.0
 10
-795.9461
 20
245.6239
 30
0.0
 10
-812.7816
 20
281.8067
 30
0.0
 10
-829.6159
 20
317.9901
 30
0.0
 10
-829.6343
 20
346.9724
 30
0.0
 10
-830.8939
 20
371.8032
 30
0.0
 10
-832.1535
 20
396.6341
 30
0.0
 10
-827.3607
 20
416.7097
 30
0.0
 10
-844.8037
 20
459.6977
 30
0.0
 10
-862.2472
 20
502.6858
 30
0.0
 10
-874.2392
 20
485.6528
 30
0.0
 10
-902.0395
 20
496.1973
 30
0.0
 10
-929.839
 20
506.741
 30
0.0
 10
-950.0754
 20
524.5744
 30
0.0
 10
-996.1129
 20
530.9966
 30
0.0
 10
-1042.1503
 20
537.4179
 30
0.0
 10
-1066.2669
 20
515.0113
 30
0.0
 10
-1066.2669
 20
515.0113
 30
0.0
  0
SPLINE
  5
64
330
1F
100
AcDbEntity
  8
Layer 1
 62
   250
370
    20
100
AcDbSpline
210
0.0
220
0.0
230
1.0
 70
    11
 71
     3
 72
    50
 73
    46
 74
     0
 42
0.0000000001
 43
0.0000000001
 40
0.0
 40
0.0
 40
0.0
 40
0.0
 40
0.0666666666666667
 40
0.0666666666666667
 40
0.0666666666666667
 40
0.1333333333333333
 40
0.1333333333333333
 40
0.1333333333333333
 40
0.2
 40
0.2
 40
0.2
 40
0.2666666666666667
 40
0.2666666666666667
 40
0.2666666666666667
 40
0.3333333333333333
 40
0.3333333333333333
 40
0.3333333333333333
 40
0.4
 40
0.4
 40
0.4
 40
0.4666666666666667
 40
0.4666666666666667
 40
0.4666666666666667
 40
0.5333333333333333
 40
0.5333333333333333
 40
0.5333333333333333
 40
0.6
 40
0.6
 40
0.6
 40
0.6666666666666666
 40
0.6666666666666666
 40
0.6666666666666666
 40
0.7333333333333333
 40
0.7333333333333333
 40
0.7333333333333333
 40
0.8
 40
0.8
 40
0.8
 40
0.8666666666666667
 40
0.8666666666666667
 40
0.8666666666666667
 40
0.9333333333333333
 40
0.9333333333333333
 40
0.9333333333333333
 40
1.0
 40
1.0
 40
1.0
 40
1.0
 10
-752.2383
 20
-590.0266
 30
0.0
 10
-752.2383
 20
-590.0266
 30
0.0
 10
-857.3243
 20
-590.0266
 30
0.0
 10
-857.3243
 20
-590.0266
 30
0.0
 10
-854.4492
 20
-582.9906
 30
0.0
 10
-839.1071
 20
-547.7035
 30
0.0
 10
-812.673
 20
-526.9313
 30
0.0
 10
-783.21
 20
-503.7794
 30
0.0
 10
-764.6712
 20
-490.9727
 30
0.0
 10
-749.7745
 20
-459.4475
 30
0.0
 10
-734.8775
 20
-427.9216
 30
0.0
 10
-735.9551
 20
-416.3717
 30
0.0
 10
-734.5862
 20
-361.8828
 30
0.0
 10
-733.2173
 20
-307.3929
 30
0.0
 10
-741.5061
 20
-253.2626
 30
0.0
 10
-712.282
 20
-259.1593
 30
0.0
 10
-683.0586
 20
-265.0549
 30
0.0
 10
-615.8277
 20
-289.5693
 30
0.0
 10
-573.7315
 20
-288.0418
 30
0.0
 10
-531.6357
 20
-286.514
 30
0.0
 10
-424.8557
 20
-277.3474
 30
0.0
 10
-388.2356
 20
-262.5792
 30
0.0
 10
-351.6156
 20
-247.8109
 30
0.0
 10
-281.4556
 20
-211.1448
 30
0.0
 10
-267.4232
 20
-202.4872
 30
0.0
 10
-253.3915
 20
-193.8309
 30
0.0
 10
-284.8782
 20
-229.987
 30
0.0
 10
-320.4713
 20
-270.2183
 30
0.0
 10
-356.0649
 20
-310.4485
 30
0.0
 10
-383.8647
 20
-346.429
 30
0.0
 10
-416.968
 20
-394.2151
 30
0.0
 10
-450.071
 20
-442.0016
 30
0.0
 10
-478.0925
 20
-483.3065
 30
0.0
 10
-491.4142
 20
-516.3427
 30
0.0
 10
-504.7354
 20
-549.3788
 30
0.0
 10
-502.7926
 20
-571.2663
 30
0.0
 10
-521.9422
 20
-560.1164
 30
0.0
 10
-541.0919
 20
-548.9664
 30
0.0
 10
-562.7303
 20
-534.1757
 30
0.0
 10
-595.4239
 20
-534.1757
 30
0.0
 10
-628.1175
 20
-534.1757
 30
0.0
 10
-652.5961
 20
-534.927
 30
0.0
 10
-693.6803
 20
-553.8495
 30
0.0
 10
-721.1747
 20
-566.5125
 30
0.0
 10
-738.5928
 20
-575.5913
 30
0.0
 10
-752.2383
 20
-590.0266
 30
0.0
  0
SPLINE
  5
65
330
1F
100
AcDbEntity
  8
Layer 1
 62
   250
370
    20
100
AcDbSpline
210
0.0
220
0.0
230
1.0
 70
    11
 71
     3
 72
    68
 73
    64
 74
     0
 42
0.0000000001
 43
0.0000000001
 40
0.0
 40
0.0
 40
0.0
 40
0.0
 40
0.0476190476190476
 40
0.0476190476190476
 40
0.0476190476190476
 40
0.0952380952380952
 40
0.0952380952380952
 40
0.0952380952380952
 40
0.1428571428571428
 40
0.1428571428571428
 40
0.1428571428571428
 40
0.1904761904761905
 40
0.1904761904761905
 40
0.1904761904761905
 40
0.2380952380952381
 40
0.2380952380952381
 40
0.2380952380952381
 40
0.2857142857142857
 40
0.2857142857142857
 40
0.2857142857142857
 40
0.3333333333333333
 40
0.3333333333333333
 40
0.3333333333333333
 40
0.3809523809523809
 40
0.3809523809523809
 40
0.3809523809523809
 40
0.4285714285714285
 40
0.4285714285714285
 40
0.4285714285714285
 40
0.4761904761904762
 40
0.4761904761904762
 40
0.4761904761904762
 40
0.5238095238095237
 40
0.5238095238095237
 40
0.5238095238095237
 40
0.5714285714285714
 40
0.5714285714285714
 40
0.5714285714285714
 40
0.6190476190476191
 40
0.6190476190476191
 40
0.6190476190476191
 40
0.6666666666666666
 40
0.6666666666666666
 40
0.6666666666666666
 40
0.7142857142857142
 40
0.7142857142857142
 40
0.7142857142857142
 40
0.7619047619047619
 40
0.7619047619047619
 40
0.7619047619047619
 40
0.8095238095238095
 40
0.8095238095238095
 40
0.8095238095238095
 40
0.8571428571428571
 40
0.8571428571428571
 40
0.8571428571428571
 40
0.9047619047619047
 40
0.9047619047619047
 40
0.9047619047619047
 40
0.9523809523809523
 40
0.9523809523809523
 40
0.9523809523809523
 40
1.0
 40
1.0
 40
1.0
 40
1.0
 10
-160.3714
 20
-590.0266
 30
0.0
 10
-160.3714
 20
-590.0266
 30
0.0
 10
-463.4034
 20
-590.0266
 30
0.0
 10
-463.4034
 20
-590.0266
 30
0.0
 10
-458.1259
 20
-576.11
 30
0.0
 10
-450.7227
 20
-556.928
 30
0.0
 10
-442.1339
 20
-535.6273
 30
0.0
 10
-424.8395
 20
-492.7401
 30
0.0
 10
-377.7618
 20
-416.9702
 30
0.0
 10
-347.0174
 20
-366.9344
 30
0.0
 10
-316.2726
 20
-316.8984
 30
0.0
 10
-246.9163
 20
-243.8797
 30
0.0
 10
-222.6781
 20
-215.8284
 30
0.0
 10
-198.4396
 20
-187.7772
 30
0.0
 10
-135.824
 20
-151.7114
 30
0.0
 10
-116.9719
 20
-144.6982
 30
0.0
 10
-98.12
 20
-137.6853
 30
0.0
 10
-77.2475
 20
-139.6887
 30
0.0
 10
-77.2475
 20
-139.6887
 30
0.0
 10
-77.2475
 20
-139.6887
 30
0.0
 10
-76.5745
 20
-161.7294
 30
0.0
 10
-80.6148
 20
-178.76
 30
0.0
 10
-84.6545
 20
-195.7915
 30
0.0
 10
-86.0006
 20
-194.7898
 30
0.0
 10
-114.952
 20
-212.8227
 30
0.0
 10
-143.9033
 20
-230.8552
 30
0.0
 10
-199.6765
 20
-263.8386
 30
0.0
 10
-226.6408
 20
-282.1546
 30
0.0
 10
-253.6043
 20
-300.4706
 30
0.0
 10
-282.3268
 20
-378.9695
 30
0.0
 10
-284.6716
 20
-426.069
 30
0.0
 10
-287.0161
 20
-473.1674
 30
0.0
 10
-323.945
 20
-498.4615
 30
0.0
 10
-323.945
 20
-498.4615
 30
0.0
 10
-323.945
 20
-498.4615
 30
0.0
 10
-305.1872
 20
-501.0788
 30
0.0
 10
-282.3268
 20
-497.5898
 30
0.0
 10
-259.4659
 20
-494.1007
 30
0.0
 10
-212.5725
 20
-477.5289
 30
0.0
 10
-189.1252
 20
-457.4684
 30
0.0
 10
-165.6793
 20
-437.4072
 30
0.0
 10
-141.0595
 20
-399.0307
 30
0.0
 10
-128.7504
 20
-350.1871
 30
0.0
 10
-116.4405
 20
-301.3427
 30
0.0
 10
-115.8545
 20
-283.0271
 30
0.0
 10
-100.6138
 20
-255.9888
 30
0.0
 10
-85.3735
 20
-228.9502
 30
0.0
 10
-81.8564
 20
-238.5446
 30
0.0
 10
-81.8564
 20
-242.9054
 30
0.0
 10
-81.8564
 20
-247.2665
 30
0.0
 10
-92.4076
 20
-307.4484
 30
0.0
 10
-95.9246
 20
-344.081
 30
0.0
 10
-99.4411
 20
-380.714
 30
0.0
 10
-92.9938
 20
-421.7078
 30
0.0
 10
-93.5798
 20
-427.8125
 30
0.0
 10
-94.166
 20
-433.9188
 30
0.0
 10
-108.8202
 20
-436.5354
 30
0.0
 10
-118.199
 20
-448.7454
 30
0.0
 10
-127.5779
 20
-460.9571
 30
0.0
 10
-132.2669
 20
-467.9345
 30
0.0
 10
-147.5078
 20
-512.4167
 30
0.0
 10
-157.1864
 20
-540.6663
 30
0.0
 10
-159.7726
 20
-571.3731
 30
0.0
 10
-160.3714
 20
-590.0266
 30
0.0
  0
SPLINE
  5
66
330
1F
100
AcDbEntity
  8
Layer 1
 62
   250
370
    20
100
AcDbSpline
210
0.0
220
0.0
230
1.0
 70
    11
 71
     3
 72
    20
 73
    16
 74
     0
 42
0.0000000001
 43
0.0000000001
 40
0.0
 40
0.0
 40
0.0
 40
0.0
 40
0.2
 40
0.2
 40
0.2
 40
0.4
 40
0.4
 40
0.4
 40
0.6000000000000001
 40
0.6000000000000001
 40
0.6000000000000001
 40
0.8
 40
0.8
 40
0.8
 40
1.0
 40
1.0
 40
1.0
 40
1.0
 10
-61.0831
 20
-590.0266
 30
0.0
 10
-61.0831
 20
-590.0266
 30
0.0
 10
-131.8744
 20
-590.0266
 30
0.0
 10
-131.8744
 20
-590.0266
 30
0.0
 10
-132.0259
 20
-574.203
 30
0.0
 10
-130.6611
 20
-554.3932
 30
0.0
 10
-125.5468
 20
-532.9053
 30
0.0
 10
-113.2333
 20
-481.1739
 30
0.0
 10
-86.4338
 20
-455.307
 30
0.0
 10
-83.5364
 20
-468.2397
 30
0.0
 10
-80.6393
 20
-481.1739
 30
0.0
 10
-89.331
 20
-507.0394
 30
0.0
 10
-81.3639
 20
-542.6047
 30
0.0
 10
-73.3958
 20
-578.1714
 30
0.0
 10
-61.0831
 20
-590.0266
 30
0.0
 10
-61.0831
 20
-590.0266
 30
0.0
  0
SPLINE
  5
67
330
1F
100
AcDbEntity
  8
Layer 1
 62
   250
370
    20
100
AcDbSpline
210
0.0
220
0.0
230
1.0
 70
    11
 71
     3
 72
    92
 73
    88
 74
     0
 42
0.0000000001
 43
0.0000000001
 40
0.0
 40
0.0
 40
0.0
 40
0.0
 40
0.0344827586206897
 40
0.0344827586206897
 40
0.0344827586206897
 40
0.0689655172413793
 40
0.0689655172413793
 40
0.0689655172413793
 40
0.103448275862069
 40
0.103448275862069
 40
0.103448275862069
 40
0.1379310344827586
 40
0.1379310344827586
 40
0.1379310344827586
 40
0.1724137931034483
 40
0.1724137931034483
 40
0.1724137931034483
 40
0.2068965517241379
 40
0.2068965517241379
 40
0.2068965517241379
 40
0.2413793103448276
 40
0.2413793103448276
 40
0.2413793103448276
 40
0.2758620689655172
 40
0.2758620689655172
 40
0.2758620689655172
 40
0.3103448275862069
 40
0.3103448275862069
 40
0.3103448275862069
 40
0.3448275862068966
 40
0.3448275862068966
 40
0.3448275862068966
 40
0.3793103448275862
 40
0.3793103448275862
 40
0.3793103448275862
 40
0.4137931034482759
 40
0.4137931034482759
 40
0.4137931034482759
 40
0.4482758620689655
 40
0.4482758620689655
 40
0.4482758620689655
 40
0.4827586206896551
 40
0.4827586206896551
 40
0.4827586206896551
 40
0.5172413793103449
 40
0.5172413793103449
 40
0.5172413793103449
 40
0.5517241379310345
 40
0.5517241379310345
 40
0.5517241379310345
 40
0.5862068965517241
 40
0.5862068965517241
 40
0.5862068965517241
 40
0.6206896551724138
 40
0.6206896551724138
 40
0.6206896551724138
 40
0.6551724137931034
 40
0.6551724137931034
 40
0.6551724137931034
 40
0.6896551724137931
 40
0.6896551724137931
 40
0.6896551724137931
 40
0.7241379310344828
 40
0.7241379310344828
 40
0.7241379310344828
 40
0.7586206896551724
 40
0.7586206896551724
 40
0.7586206896551724
 40
0.7931034482758621
 40
0.7931034482758621
 40
0.7931034482758621
 40
0.8275862068965517
 40
0.8275862068965517
 40
0.8275862068965517
 40
0.8620689655172413
 40
0.8620689655172413
 40
0.8620689655172413
 40
0.896551724137931
 40
0.896551724137931
 40
0.896551724137931
 40
0.9310344827586207
 40
0.9310344827586207
 40
0.9310344827586207
 40
0.9655172413793103
 40
0.9655172413793103
 40
0.9655172413793103
 40
1.0
 40
1.0
 40
1.0
 40
1.0
 10
292.176
 20
-590.0266
 30
0.0
 10
292.176
 20
-590.0266
 30
0.0
 10
84.9976
 20
-590.0266
 30
0.0
 10
84.9976
 20
-590.0266
 30
0.0
 10
77.1021
 20
-570.0529
 30
0.0
 10
62.1677
 20
-537.088
 30
0.0
 10
39.8416
 20
-507.1897
 30
0.0
 10
4.8212
 20
-460.2898
 30
0.0
 10
-27.6651
 20
-435.1551
 30
0.0
 10
-39.9134
 20
-430.3588
 30
0.0
 10
-52.1621
 20
-425.5636
 30
0.0
 10
-54.7407
 20
-430.3588
 30
0.0
 10
-52.8066
 20
-392.9489
 30
0.0
 10
-50.8729
 20
-355.5383
 30
0.0
 10
-42.9715
 20
-145.7558
 30
0.0
 10
-42.2784
 20
-132.3468
 30
0.0
 10
-41.5848
 20
-118.9377
 30
0.0
 10
-22.8687
 20
-109.6538
 30
0.0
 10
11.7916
 20
-99.3394
 30
0.0
 10
46.4514
 20
-89.025
 30
0.0
 10
75.8718
 20
-76.8418
 30
0.0
 10
108.578
 20
-70.7585
 30
0.0
 10
141.2839
 20
-64.6754
 30
0.0
 10
159.2721
 20
-62.2428
 30
0.0
 10
167.4489
 20
-67.1087
 30
0.0
 10
175.6252
 20
-71.9748
 30
0.0
 10
176.443
 20
-91.4418
 30
0.0
 10
168.2662
 20
-93.8744
 30
0.0
 10
160.0899
 20
-96.3087
 30
0.0
 10
120.8427
 20
-92.6581
 30
0.0
 10
78.3249
 20
-148.6242
 30
0.0
 10
35.8071
 20
-204.5893
 30
0.0
 10
34.1717
 20
-275.1547
 30
0.0
 10
31.7184
 20
-320.1704
 30
0.0
 10
29.2656
 20
-365.1864
 30
0.0
 10
30.9012
 20
-408.9858
 30
0.0
 10
38.2599
 20
-413.8527
 30
0.0
 10
45.6187
 20
-418.7189
 30
0.0
 10
51.3421
 20
-381.0027
 30
0.0
 10
66.0602
 20
-362.7532
 30
0.0
 10
80.7777
 20
-344.5032
 30
0.0
 10
100.4012
 20
-323.821
 30
0.0
 10
128.202
 20
-306.7877
 30
0.0
 10
156.0017
 20
-289.7548
 30
0.0
 10
173.9896
 20
-259.3384
 30
0.0
 10
187.8902
 20
-221.6222
 30
0.0
 10
201.7904
 20
-183.9061
 30
0.0
 10
205.3945
 20
-81.2995
 30
0.0
 10
205.3945
 20
-81.2995
 30
0.0
 10
205.3945
 20
-81.2995
 30
0.0
 10
201.2576
 20
-66.9362
 30
0.0
 10
227.4571
 20
-76.1695
 30
0.0
 10
253.657
 20
-85.4028
 30
0.0
 10
294.2457
 20
-86.3434
 30
0.0
 10
337.0039
 20
-105.5789
 30
0.0
 10
379.7623
 20
-124.8133
 30
0.0
 10
422.3642
 20
-141.6089
 30
0.0
 10
449.134
 20
-146.9201
 30
0.0
 10
475.9039
 20
-152.2313
 30
0.0
 10
495.5348
 20
-157.5428
 30
0.0
 10
499.6994
 20
-163.7384
 30
0.0
 10
503.8633
 20
-169.9347
 30
0.0
 10
505.0532
 20
-183.2121
 30
0.0
 10
484.8271
 20
-179.671
 30
0.0
 10
464.601
 20
-176.1307
 30
0.0
 10
409.8719
 20
-176.1307
 30
0.0
 10
374.7737
 20
-184.0971
 30
0.0
 10
339.676
 20
-192.0636
 30
0.0
 10
285.2999
 20
-247.8109
 30
0.0
 10
255.867
 20
-301.7908
 30
0.0
 10
226.434
 20
-355.7722
 30
0.0
 10
215.4826
 20
-411.7893
 30
0.0
 10
217.5362
 20
-422.9923
 30
0.0
 10
219.5899
 20
-434.1959
 30
0.0
 10
229.8566
 20
-410.7707
 30
0.0
 10
248.3376
 20
-398.5491
 30
0.0
 10
266.8188
 20
-386.3266
 30
0.0
 10
281.878
 20
-374.1051
 30
0.0
 10
281.1934
 20
-403.6416
 30
0.0
 10
280.5089
 20
-433.1774
 30
0.0
 10
276.402
 20
-455.5844
 30
0.0
 10
283.2469
 20
-489.1948
 30
0.0
 10
290.0916
 20
-522.8052
 30
0.0
 10
308.573
 20
-544.1933
 30
0.0
 10
305.8347
 20
-566.6014
 30
0.0
 10
304.626
 20
-576.4943
 30
0.0
 10
299.6788
 20
-583.8057
 30
0.0
 10
292.176
 20
-590.0266
 30
0.0
  0
SPLINE
  5
68
330
1F
100
AcDbEntity
  8
Layer 1
 62
   250
370
    20
100
AcDbSpline
210
0.0
220
0.0
230
1.0
 70
    11
 71
     3
 72
    65
 73
    61
 74
     0
 42
0.0000000001
 43
0.0000000001
 40
0.0
 40
0.0
 40
0.0
 40
0.0
 40
0.05
 40
0.05
 40
0.05
 40
0.1
 40
0.1
 40
0.1
 40
0.15
 40
0.15
 40
0.15
 40
0.2
 40
0.2
 40
0.2
 40
0.25
 40
0.25
 40
0.25
 40
0.3
 40
0.3
 40
0.3
 40
0.35
 40
0.35
 40
0.35
 40
0.4
 40
0.4
 40
0.4
 40
0.45
 40
0.45
 40
0.45
 40
0.5
 40
0.5
 40
0.5
 40
0.55
 40
0.55
 40
0.55
 40
0.6000000000000001
 40
0.6000000000000001
 40
0.6000000000000001
 40
0.65
 40
0.65
 40
0.65
 40
0.7000000000000001
 40
0.7000000000000001
 40
0.7000000000000001
 40
0.75
 40
0.75
 40
0.75
 40
0.8
 40
0.8
 40
0.8
 40
0.8500000000000001
 40
0.8500000000000001
 40
0.8500000000000001
 40
0.9
 40
0.9
 40
0.9
 40
0.9500000000000001
 40
0.9500000000000001
 40
0.9500000000000001
 40
1.0
 40
1.0
 40
1.0
 40
1.0
 10
865.3664
 20
-590.0266
 30
0.0
 10
865.3664
 20
-590.0266
 30
0.0
 10
763.4831
 20
-590.0266
 30
0.0
 10
763.4831
 20
-590.0266
 30
0.0
 10
762.8315
 20
-566.4265
 30
0.0
 10
758.8064
 20
-537.0224
 30
0.0
 10
746.3464
 20
-507.9389
 30
0.0
 10
718.5458
 20
-443.0514
 30
0.0
 10
691.9094
 20
-419.2633
 30
0.0
 10
658.5091
 20
-396.2543
 30
0.0
 10
625.1083
 20
-373.2449
 30
0.0
 10
595.4194
 20
-375.086
 30
0.0
 10
595.4194
 20
-375.086
 30
0.0
 10
595.4194
 20
-375.086
 30
0.0
 10
606.5526
 20
-405.4574
 30
0.0
 10
604.6976
 20
-432.1476
 30
0.0
 10
602.8416
 20
-458.8381
 30
0.0
 10
599.1305
 20
-505.7761
 30
0.0
 10
602.223
 20
-530.6259
 30
0.0
 10
605.3157
 20
-555.4757
 30
0.0
 10
610.8825
 20
-572.0415
 30
0.0
 10
618.9231
 20
-588.608
 30
0.0
 10
619.1505
 20
-589.0766
 30
0.0
 10
619.3712
 20
-589.55
 30
0.0
 10
619.5878
 20
-590.0266
 30
0.0
 10
619.5878
 20
-590.0266
 30
0.0
 10
491.0498
 20
-590.0266
 30
0.0
 10
491.0498
 20
-590.0266
 30
0.0
 10
489.4546
 20
-574.2317
 30
0.0
 10
483.871
 20
-551.6786
 30
0.0
 10
467.2151
 20
-527.7497
 30
0.0
 10
436.1041
 20
-483.0547
 30
0.0
 10
400.5592
 20
-467.1734
 30
0.0
 10
372.4427
 20
-457.3679
 30
0.0
 10
344.3265
 20
-447.5628
 30
0.0
 10
329.8103
 20
-430.1151
 30
0.0
 10
309.8598
 20
-401.1521
 30
0.0
 10
289.9088
 20
-372.1895
 30
0.0
 10
296.7211
 20
-376.5344
 30
0.0
 10
327.3774
 20
-372.9137
 30
0.0
 10
358.0338
 20
-369.2936
 30
0.0
 10
408.6414
 20
-367.1213
 30
0.0
 10
429.5652
 20
-351.1919
 30
0.0
 10
450.4895
 20
-335.2625
 30
0.0
 10
469.2405
 20
-305.773
 30
0.0
 10
477.3301
 20
-264.1066
 30
0.0
 10
485.4193
 20
-222.4406
 30
0.0
 10
527.5256
 20
-192.523
 30
0.0
 10
551.3045
 20
-200.0287
 30
0.0
 10
575.0836
 20
-207.5343
 30
0.0
 10
652.6858
 20
-249.6112
 30
0.0
 10
689.8411
 20
-289.1004
 30
0.0
 10
726.996
 20
-328.5903
 30
0.0
 10
788.319
 20
-357.8863
 30
0.0
 10
822.6605
 20
-448.7292
 30
0.0
 10
857.0015
 20
-539.5722
 30
0.0
 10
865.7229
 20
-589.8598
 30
0.0
 10
865.7229
 20
-589.8598
 30
0.0
 10
865.7229
 20
-589.8598
 30
0.0
 10
865.3664
 20
-590.0266
 30
0.0
 10
865.3664
 20
-590.0266
 30
0.0
  0
SPLINE
  5
69
330
1F
100
AcDbEntity
  8
Layer 1
 62
   250
370
    20
100
AcDbSpline
210
0.0
220
0.0
230
1.0
 70
    11
 71
     3
 72
    71
 73
    67
 74
     0
 42
0.0000000001
 43
0.0000000001
 40
0.0
 40
0.0
 40
0.0
 40
0.0
 40
0.0454545454545455
 40
0.0454545454545455
 40
0.0454545454545455
 40
0.0909090909090909
 40
0.0909090909090909
 40
0.0909090909090909
 40
0.1363636363636364
 40
0.1363636363636364
 40
0.1363636363636364
 40
0.1818181818181818
 40
0.1818181818181818
 40
0.1818181818181818
 40
0.2272727272727273
 40
0.2272727272727273
 40
0.2272727272727273
 40
0.2727272727272727
 40
0.2727272727272727
 40
0.2727272727272727
 40
0.3181818181818182
 40
0.3181818181818182
 40
0.3181818181818182
 40
0.3636363636363636
 40
0.3636363636363636
 40
0.3636363636363636
 40
0.4090909090909091
 40
0.4090909090909091
 40
0.4090909090909091
 40
0.4545454545454546
 40
0.4545454545454546
 40
0.4545454545454546
 40
0.5
 40
0.5
 40
0.5
 40
0.5454545454545454
 40
0.5454545454545454
 40
0.5454545454545454
 40
0.5909090909090909
 40
0.5909090909090909
 40
0.5909090909090909
 40
0.6363636363636364
 40
0.6363636363636364
 40
0.6363636363636364
 40
0.6818181818181819
 40
0.6818181818181819
 40
0.6818181818181819
 40
0.7272727272727273
 40
0.7272727272727273
 40
0.7272727272727273
 40
0.7727272727272727
 40
0.7727272727272727
 40
0.7727272727272727
 40
0.8181818181818182
 40
0.8181818181818182
 40
0.8181818181818182
 40
0.8636363636363636
 40
0.8636363636363636
 40
0.8636363636363636
 40
0.9090909090909092
 40
0.9090909090909092
 40
0.9090909090909092
 40
0.9545454545454546
 40
0.9545454545454546
 40
0.9545454545454546
 40
1.0
 40
1.0
 40
1.0
 40
1.0
 10
1199.95
 20
-157.1463
 30
0.0
 10
1199.95
 20
-157.1463
 30
0.0
 10
1199.95
 20
-202.6435
 30
0.0
 10
1199.95
 20
-202.6435
 30
0.0
 10
1192.7123
 20
-205.0968
 30
0.0
 10
1184.3559
 20
-207.26
 30
0.0
 10
1176.3529
 20
-207.789
 30
0.0
 10
1155.6873
 20
-209.1566
 30
0.0
 10
1141.9104
 20
-205.0564
 30
0.0
 10
1135.4812
 20
-179.0901
 30
0.0
 10
1129.0518
 20
-153.1237
 30
0.0
 10
1124.919
 20
-156.5408
 30
0.0
 10
1118.4897
 20
-203.0056
 30
0.0
 10
1112.0606
 20
-249.4725
 30
0.0
 10
1142.8712
 20
-308.2917
 30
0.0
 10
1157.3074
 20
-333.2092
 30
0.0
 10
1167.5642
 20
-350.913
 30
0.0
 10
1184.8143
 20
-375.1183
 30
0.0
 10
1199.95
 20
-388.8856
 30
0.0
 10
1199.95
 20
-388.8856
 30
0.0
 10
1199.95
 20
-460.4383
 30
0.0
 10
1199.95
 20
-460.4383
 30
0.0
 10
1191.3171
 20
-450.8418
 30
0.0
 10
1177.2294
 20
-437.7872
 30
0.0
 10
1155.5754
 20
-424.2893
 30
0.0
 10
1112.8438
 20
-397.6525
 30
0.0
 10
1082.8154
 20
-389.9199
 30
0.0
 10
1052.7878
 20
-387.3416
 30
0.0
 10
1022.76
 20
-384.764
 30
0.0
 10
980.4932
 20
-392.7023
 30
0.0
 10
950.8415
 20
-399.6689
 30
0.0
 10
921.1895
 20
-406.6358
 30
0.0
 10
908.7046
 20
-406.6358
 30
0.0
 10
903.2422
 20
-406.6358
 30
0.0
 10
897.7798
 20
-406.6358
 30
0.0
 10
923.5302
 20
-449.5964
 30
0.0
 10
954.7428
 20
-479.7848
 30
0.0
 10
985.9554
 20
-509.9729
 30
0.0
 10
1025.7516
 20
-541.3213
 30
0.0
 10
1056.1839
 20
-548.289
 30
0.0
 10
1086.6158
 20
-555.2551
 30
0.0
 10
1126.4124
 20
-556.4166
 30
0.0
 10
1157.6249
 20
-550.6102
 30
0.0
 10
1172.4972
 20
-547.8443
 30
0.0
 10
1187.8976
 20
-540.5975
 30
0.0
 10
1199.95
 20
-533.7672
 30
0.0
 10
1199.95
 20
-533.7672
 30
0.0
 10
1199.95
 20
-590.0266
 30
0.0
 10
1199.95
 20
-590.0266
 30
0.0
 10
1199.95
 20
-590.0266
 30
0.0
 10
915.5028
 20
-590.0266
 30
0.0
 10
915.5028
 20
-590.0266
 30
0.0
 10
912.8423
 20
-574.4804
 30
0.0
 10
907.5481
 20
-551.0829
 30
0.0
 10
897.1751
 20
-524.3688
 30
0.0
 10
878.4721
 20
-476.2023
 30
0.0
 10
872.7177
 20
-441.9517
 30
0.0
 10
879.1918
 20
-386.2932
 30
0.0
 10
885.6657
 20
-330.6355
 30
0.0
 10
900.9013
 20
-281.2379
 30
0.0
 10
956.3036
 20
-220.8612
 30
0.0
 10
1011.7058
 20
-160.4851
 30
0.0
 10
1068.6691
 20
-76.8871
 30
0.0
 10
1115.4878
 20
-130.2959
 30
0.0
 10
1153.2208
 20
-173.3409
 30
0.0
 10
1187.9061
 20
-162.8431
 30
0.0
 10
1199.95
 20
-157.1463
 30
0.0
  0
SPLINE
  5
6A
330
1F
100
AcDbEntity
  8
Layer 1
 62
   250
370
    20
100
AcDbSpline
210
0.0
220
0.0
230
1.0
 70
    11
 71
     3
 72
    32
 73
    28
 74
     0
 42
0.0000000001
 43
0.0000000001
 40
0.0
 40
0.0
 40
0.0
 40
0.0
 40
0.1111111111111111
 40
0.1111111111111111
 40
0.1111111111111111
 40
0.2222222222222222
 40
0.2222222222222222
 40
0.2222222222222222
 40
0.3333333333333333
 40
0.3333333333333333
 40
0.3333333333333333
 40
0.4444444444444444
 40
0.4444444444444444
 40
0.4444444444444444
 40
0.5555555555555556
 40
0.5555555555555556
 40
0.5555555555555556
 40
0.6666666666666666
 40
0.6666666666666666
 40
0.6666666666666666
 40
0.7777777777777777
 40
0.7777777777777777
 40
0.7777777777777777
 40
0.8888888888888888
 40
0.8888888888888888
 40
0.8888888888888888
 40
1.0
 40
1.0
 40
1.0
 40
1.0
 10
1199.95
 20
420.6097
 30
0.0
 10
1199.95
 20
420.6097
 30
0.0
 10
1199.95
 20
45.6356
 30
0.0
 10
1199.95
 20
45.6356
 30
0.0
 10
1193.4026
 20
47.4725
 30
0.0
 10
1187.5592
 20
51.8109
 30
0.0
 10
1184.9357
 20
54.7386
 30
0.0
 10
1180.3961
 20
59.8054
 30
0.0
 10
1187.7734
 20
91.0493
 30
0.0
 10
1177.5585
 20
140.8707
 30
0.0
 10
1167.3437
 20
190.6922
 30
0.0
 10
1145.0352
 20
210.4858
 30
0.0
 10
1115.8015
 20
222.4857
 30
0.0
 10
1086.5673
 20
234.4856
 30
0.0
 10
1027.5961
 20
232.2356
 30
0.0
 10
1019.5314
 20
231.4855
 30
0.0
 10
1011.467
 20
230.7355
 30
0.0
 10
979.7131
 20
276.4849
 30
0.0
 10
984.2492
 20
269.7344
 30
0.0
 10
988.7858
 20
262.9853
 30
0.0
 10
1042.2133
 20
298.984
 30
0.0
 10
1069.4307
 20
322.9842
 30
0.0
 10
1096.6485
 20
346.9833
 30
0.0
 10
1136.3995
 20
379.8652
 30
0.0
 10
1159.3614
 20
398.9989
 30
0.0
 10
1171.528
 20
409.1373
 30
0.0
 10
1187.5621
 20
416.2043
 30
0.0
 10
1199.95
 20
420.6097
 30
0.0
  0
SPLINE
  5
6B
330
1F
100
AcDbEntity
  8
Layer 1
 62
   250
370
    20
100
AcDbSpline
210
0.0
220
0.0
230
1.0
 70
    11
 71
     3
 72
    29
 73
    25
 74
     0
 42
0.0000000001
 43
0.0000000001
 40
0.0
 40
0.0
 40
0.0
 40
0.0
 40
0.125
 40
0.125
 40
0.125
 40
0.25
 40
0.25
 40
0.25
 40
0.375
 40
0.375
 40
0.375
 40
0.5
 40
0.5
 40
0.5
 40
0.625
 40
0.625
 40
0.625
 40
0.75
 40
0.75
 40
0.75
 40
0.875
 40
0.875
 40
0.875
 40
1.0
 40
1.0
 40
1.0
 40
1.0
 10
1015.2926
 20
589.9734
 30
0.0
 10
1015.2926
 20
589.9734
 30
0.0
 10
1199.95
 20
589.9734
 30
0.0
 10
1199.95
 20
589.9734
 30
0.0
 10
1199.95
 20
589.9734
 30
0.0
 10
1199.95
 20
472.855
 30
0.0
 10
1199.95
 20
472.855
 30
0.0
 10
1198.2382
 20
472.2161
 30
0.0
 10
1196.4458
 20
471.5203
 30
0.0
 10
1194.5733
 20
470.7602
 30
0.0
 10
1174.5317
 20
462.6273
 30
0.0
 10
1145.6267
 20
440.3793
 30
0.0
 10
1094.2528
 20
400.566
 30
0.0
 10
1042.8788
 20
360.7517
 30
0.0
 10
950.8338
 20
275.5486
 30
0.0
 10
948.1579
 20
298.6416
 30
0.0
 10
945.4823
 20
321.7342
 30
0.0
 10
948.1579
 20
322.53
 30
0.0
 10
982.9427
 20
356.7701
 30
0.0
 10
1017.7272
 20
391.0099
 30
0.0
 10
1025.7541
 20
429.2322
 30
0.0
 10
1032.1758
 20
478.6013
 30
0.0
 10
1036.7604
 20
513.8463
 30
0.0
 10
1023.3445
 20
564.0994
 30
0.0
 10
1015.2926
 20
589.9734
 30
0.0
  0
SPLINE
  5
6C
330
1F
100
AcDbEntity
  8
Layer 1
 62
   250
370
    20
100
AcDbSpline
210
0.0
220
0.0
230
1.0
 70
    11
 71
     3
 72
    35
 73
    31
 74
     0
 42
0.0000000001
 43
0.0000000001
 40
0.0
 40
0.0
 40
0.0
 40
0.0
 40
0.1
 40
0.1
 40
0.1
 40
0.2
 40
0.2
 40
0.2
 40
0.3
 40
0.3
 40
0.3
 40
0.4
 40
0.4
 40
0.4
 40
0.5
 40
0.5
 40
0.5
 40
0.6000000000000001
 40
0.6000000000000001
 40
0.6000000000000001
 40
0.7000000000000001
 40
0.7000000000000001
 40
0.7000000000000001
 40
0.8
 40
0.8
 40
0.8
 40
0.9
 40
0.9
 40
0.9
 40
1.0
 40
1.0
 40
1.0
 40
1.0
 10
806.1218
 20
589.9734
 30
0.0
 10
806.1218
 20
589.9734
 30
0.0
 10
922.05
 20
589.9734
 30
0.0
 10
922.05
 20
589.9734
 30
0.0
 10
932.6015
 20
579.8658
 30
0.0
 10
931.1369
 20
578.7398
 30
0.0
 10
917.6548
 20
550.2675
 30
0.0
 10
901.0656
 20
515.2298
 30
0.0
 10
893.3955
 20
471.4641
 30
0.0
 10
894.2328
 20
421.6131
 30
0.0
 10
895.0705
 20
371.7625
 30
0.0
 10
924.3852
 20
329.3894
 30
0.0
 10
921.0353
 20
303.2173
 30
0.0
 10
917.6846
 20
277.0455
 30
0.0
 10
855.2617
 20
228.9503
 30
0.0
 10
818.394
 20
178.8626
 30
0.0
 10
781.5267
 20
128.7742
 30
0.0
 10
753.4746
 20
27.4064
 30
0.0
 10
753.4746
 20
27.4064
 30
0.0
 10
753.4746
 20
27.4064
 30
0.0
 10
738.2468
 20
166.9368
 30
0.0
 10
736.6438
 20
212.2545
 30
0.0
 10
735.0411
 20
257.5719
 30
0.0
 10
745.4603
 20
341.0522
 30
0.0
 10
766.2984
 20
364.9031
 30
0.0
 10
787.137
 20
388.7551
 30
0.0
 10
817.5927
 20
431.6873
 30
0.0
 10
818.394
 20
493.7008
 30
0.0
 10
818.9087
 20
533.5103
 30
0.0
 10
811.4957
 20
569.3846
 30
0.0
 10
806.1218
 20
589.9734
 30
0.0
  0
SPLINE
  5
6D
330
1F
100
AcDbEntity
  8
Layer 1
 62
   250
370
    20
100
AcDbSpline
210
0.0
220
0.0
230
1.0
 70
    11
 71
     3
 72
    32
 73
    28
 74
     0
 42
0.0000000001
 43
0.0000000001
 40
0.0
 40
0.0
 40
0.0
 40
0.0
 40
0.1111111111111111
 40
0.1111111111111111
 40
0.1111111111111111
 40
0.2222222222222222
 40
0.2222222222222222
 40
0.2222222222222222
 40
0.3333333333333333
 40
0.3333333333333333
 40
0.3333333333333333
 40
0.4444444444444444
 40
0.4444444444444444
 40
0.4444444444444444
 40
0.5555555555555556
 40
0.5555555555555556
 40
0.5555555555555556
 40
0.6666666666666666
 40
0.6666666666666666
 40
0.6666666666666666
 40
0.7777777777777777
 40
0.7777777777777777
 40
0.7777777777777777
 40
0.8888888888888888
 40
0.8888888888888888
 40
0.8888888888888888
 40
1.0
 40
1.0
 40
1.0
 40
1.0
 10
540.1862
 20
589.9734
 30
0.0
 10
540.1862
 20
589.9734
 30
0.0
 10
684.4517
 20
589.9734
 30
0.0
 10
684.4517
 20
589.9734
 30
0.0
 10
670.8942
 20
546.6228
 30
0.0
 10
657.6592
 20
446.1686
 30
0.0
 10
668.3097
 20
401.9618
 30
0.0
 10
680.3218
 20
352.1031
 30
0.0
 10
696.7596
 20
319.1783
 30
0.0
 10
699.2884
 20
301.3042
 30
0.0
 10
701.8175
 20
283.4307
 30
0.0
 10
693.598
 20
247.6831
 30
0.0
 10
703.0816
 20
200.6469
 30
0.0
 10
712.5649
 20
153.611
 30
0.0
 10
715.726
 20
127.271
 30
0.0
 10
726.4739
 20
55.7761
 30
0.0
 10
737.2216
 20
-15.719
 30
0.0
 10
713.8294
 20
44.4872
 30
0.0
 10
699.2884
 20
77.4122
 30
0.0
 10
684.7475
 20
110.3381
 30
0.0
 10
626.5835
 20
232.6318
 30
0.0
 10
610.1457
 20
271.2018
 30
0.0
 10
593.7079
 20
309.7708
 30
0.0
 10
559.5684
 20
371.8591
 30
0.0
 10
546.924
 20
453.7013
 30
0.0
 10
536.4003
 20
521.818
 30
0.0
 10
539.0134
 20
574.2867
 30
0.0
 10
540.1862
 20
589.9734
 30
0.0
  0
SPLINE
  5
6E
330
1F
100
AcDbEntity
  8
Layer 1
 62
   250
370
    20
100
AcDbSpline
210
0.0
220
0.0
230
1.0
 70
    11
 71
     3
 72
    23
 73
    19
 74
     0
 42
0.0000000001
 43
0.0000000001
 40
0.0
 40
0.0
 40
0.0
 40
0.0
 40
0.1666666666666667
 40
0.1666666666666667
 40
0.1666666666666667
 40
0.3333333333333333
 40
0.3333333333333333
 40
0.3333333333333333
 40
0.5
 40
0.5
 40
0.5
 40
0.6666666666666666
 40
0.6666666666666666
 40
0.6666666666666666
 40
0.8333333333333333
 40
0.8333333333333333
 40
0.8333333333333333
 40
1.0
 40
1.0
 40
1.0
 40
1.0
 10
418.6542
 20
589.9734
 30
0.0
 10
418.6542
 20
589.9734
 30
0.0
 10
510.0424
 20
589.9734
 30
0.0
 10
510.0424
 20
589.9734
 30
0.0
 10
508.4613
 20
562.2625
 30
0.0
 10
506.577
 20
502.6489
 30
0.0
 10
516.2874
 20
463.1542
 30
0.0
 10
529.2991
 20
410.2359
 30
0.0
 10
524.0944
 20
354.7355
 30
0.0
 10
524.0944
 20
354.7355
 30
0.0
 10
524.0944
 20
354.7355
 30
0.0
 10
491.9993
 20
361.1889
 30
0.0
 10
465.1087
 20
402.4914
 30
0.0
 10
438.2187
 20
443.7947
 30
0.0
 10
432.0842
 20
456.4591
 30
0.0
 10
421.2123
 20
519.6524
 30
0.0
 10
415.4696
 20
553.0306
 30
0.0
 10
416.4504
 20
575.8587
 30
0.0
 10
418.6542
 20
589.9734
 30
0.0
  0
SPLINE
  5
6F
330
1F
100
AcDbEntity
  8
Layer 1
 62
   250
370
    20
100
AcDbSpline
210
0.0
220
0.0
230
1.0
 70
    11
 71
     3
 72
    23
 73
    19
 74
     0
 42
0.0000000001
 43
0.0000000001
 40
0.0
 40
0.0
 40
0.0
 40
0.0
 40
0.1666666666666667
 40
0.1666666666666667
 40
0.1666666666666667
 40
0.3333333333333333
 40
0.3333333333333333
 40
0.3333333333333333
 40
0.5
 40
0.5
 40
0.5
 40
0.6666666666666666
 40
0.6666666666666666
 40
0.6666666666666666
 40
0.8333333333333333
 40
0.8333333333333333
 40
0.8333333333333333
 40
1.0
 40
1.0
 40
1.0
 40
1.0
 10
178.1381
 20
589.9734
 30
0.0
 10
178.1381
 20
589.9734
 30
0.0
 10
309.3751
 20
589.9734
 30
0.0
 10
309.3751
 20
589.9734
 30
0.0
 10
338.1151
 20
569.5286
 30
0.0
 10
343.7821
 20
563.6583
 30
0.0
 10
365.2162
 20
523.9686
 30
0.0
 10
387.2252
 20
483.2139
 30
0.0
 10
409.5932
 20
427.015
 30
0.0
 10
409.5932
 20
427.015
 30
0.0
 10
409.5932
 20
427.015
 30
0.0
 10
397.4496
 20
421.8526
 30
0.0
 10
343.6678
 20
423.1423
 30
0.0
 10
289.8875
 20
424.4338
 30
0.0
 10
256.8065
 20
430.4629
 30
0.0
 10
228.4005
 20
466.5828
 30
0.0
 10
207.0772
 20
493.6958
 30
0.0
 10
186.8829
 20
559.0615
 30
0.0
 10
178.1381
 20
589.9734
 30
0.0
  0
SPLINE
  5
70
330
1F
100
AcDbEntity
  8
Layer 1
 62
   250
370
    20
100
AcDbSpline
210
0.0
220
0.0
230
1.0
 70
    11
 71
     3
 72
   182
 73
   178
 74
     0
 42
0.0000000001
 43
0.0000000001
 40
0.0
 40
0.0
 40
0.0
 40
0.0
 40
0.0169491525423729
 40
0.0169491525423729
 40
0.0169491525423729
 40
0.0338983050847458
 40
0.0338983050847458
 40
0.0338983050847458
 40
0.0508474576271186
 40
0.0508474576271186
 40
0.0508474576271186
 40
0.0677966101694915
 40
0.0677966101694915
 40
0.0677966101694915
 40
0.0847457627118644
 40
0.0847457627118644
 40
0.0847457627118644
 40
0.1016949152542373
 40
0.1016949152542373
 40
0.1016949152542373
 40
0.1186440677966102
 40
0.1186440677966102
 40
0.1186440677966102
 40
0.1355932203389831
 40
0.1355932203389831
 40
0.1355932203389831
 40
0.1525423728813559
 40
0.1525423728813559
 40
0.1525423728813559
 40
0.1694915254237288
 40
0.1694915254237288
 40
0.1694915254237288
 40
0.1864406779661017
 40
0.1864406779661017
 40
0.1864406779661017
 40
0.2033898305084746
 40
0.2033898305084746
 40
0.2033898305084746
 40
0.2203389830508475
 40
0.2203389830508475
 40
0.2203389830508475
 40
0.2372881355932203
 40
0.2372881355932203
 40
0.2372881355932203
 40
0.2542372881355932
 40
0.2542372881355932
 40
0.2542372881355932
 40
0.2711864406779661
 40
0.2711864406779661
 40
0.2711864406779661
 40
0.288135593220339
 40
0.288135593220339
 40
0.288135593220339
 40
0.3050847457627119
 40
0.3050847457627119
 40
0.3050847457627119
 40
0.3220338983050847
 40
0.3220338983050847
 40
0.3220338983050847
 40
0.3389830508474576
 40
0.3389830508474576
 40
0.3389830508474576
 40
0.3559322033898305
 40
0.3559322033898305
 40
0.3559322033898305
 40
0.3728813559322034
 40
0.3728813559322034
 40
0.3728813559322034
 40
0.3898305084745763
 40
0.3898305084745763
 40
0.3898305084745763
 40
0.4067796610169492
 40
0.4067796610169492
 40
0.4067796610169492
 40
0.423728813559322
 40
0.423728813559322
 40
0.423728813559322
 40
0.4406779661016949
 40
0.4406779661016949
 40
0.4406779661016949
 40
0.4576271186440678
 40
0.4576271186440678
 40
0.4576271186440678
 40
0.4745762711864407
 40
0.4745762711864407
 40
0.4745762711864407
 40
0.4915254237288136
 40
0.4915254237288136
 40
0.4915254237288136
 40
0.5084745762711864
 40
0.5084745762711864
 40
0.5084745762711864
 40
0.5254237288135594
 40
0.5254237288135594
 40
0.5254237288135594
 40
0.5423728813559322
 40
0.5423728813559322
 40
0.5423728813559322
 40
0.559322033898305
 40
0.559322033898305
 40
0.559322033898305
 40
0.576271186440678
 40
0.576271186440678
 40
0.576271186440678
 40
0.5932203389830508
 40
0.5932203389830508
 40
0.5932203389830508
 40
0.6101694915254238
 40
0.6101694915254238
 40
0.6101694915254238
 40
0.6271186440677966
 40
0.6271186440677966
 40
0.6271186440677966
 40
0.6440677966101694
 40
0.6440677966101694
 40
0.6440677966101694
 40
0.6610169491525424
 40
0.6610169491525424
 40
0.6610169491525424
 40
0.6779661016949152
 40
0.6779661016949152
 40
0.6779661016949152
 40
0.6949152542372882
 40
0.6949152542372882
 40
0.6949152542372882
 40
0.711864406779661
 40
0.711864406779661
 40
0.711864406779661
 40
0.7288135593220338
 40
0.7288135593220338
 40
0.7288135593220338
 40
0.7457627118644068
 40
0.7457627118644068
 40
0.7457627118644068
 40
0.7627118644067796
 40
0.7627118644067796
 40
0.7627118644067796
 40
0.7796610169491526
 40
0.7796610169491526
 40
0.7796610169491526
 40
0.7966101694915254
 40
0.7966101694915254
 40
0.7966101694915254
 40
0.8135593220338984
 40
0.8135593220338984
 40
0.8135593220338984
 40
0.8305084745762712
 40
0.8305084745762712
 40
0.8305084745762712
 40
0.847457627118644
 40
0.847457627118644
 40
0.847457627118644
 40
0.864406779661017
 40
0.864406779661017
 40
0.864406779661017
 40
0.8813559322033898
 40
0.8813559322033898
 40
0.8813559322033898
 40
0.8983050847457628
 40
0.8983050847457628
 40
0.8983050847457628
 40
0.9152542372881356
 40
0.9152542372881356
 40
0.9152542372881356
 40
0.9322033898305084
 40
0.9322033898305084
 40
0.9322033898305084
 40
0.9491525423728814
 40
0.9491525423728814
 40
0.9491525423728814
 40
0.9661016949152542
 40
0.9661016949152542
 40
0.9661016949152542
 40
0.9830508474576272
 40
0.9830508474576272
 40
0.9830508474576272
 40
1.0
 40
1.0
 40
1.0
 40
1.0
 10
-60.8589
 20
589.9734
 30
0.0
 10
-60.8589
 20
589.9734
 30
0.0
 10
141.7937
 20
589.9734
 30
0.0
 10
141.7937
 20
589.9734
 30
0.0
 10
143.8985
 20
580.3319
 30
0.0
 10
146.1122
 20
570.3308
 30
0.0
 10
147.7657
 20
563.1964
 30
0.0
 10
152.0966
 20
544.5071
 30
0.0
 10
170.2863
 20
512.2851
 30
0.0
 10
181.5471
 20
495.5303
 30
0.0
 10
192.8074
 20
478.7755
 30
0.0
 10
202.7682
 20
452.3537
 30
0.0
 10
194.9728
 20
435.5985
 30
0.0
 10
187.1768
 20
418.8434
 30
0.0
 10
164.2232
 20
419.4872
 30
0.0
 10
130.4415
 20
404.6659
 30
0.0
 10
96.6603
 20
389.8439
 30
0.0
 10
66.0602
 20
372.3701
 30
0.0
 10
53.3409
 20
342.0893
 30
0.0
 10
40.6219
 20
311.8082
 30
0.0
 10
27.4973
 20
258.6944
 30
0.0
 10
20.1534
 20
230.0746
 30
0.0
 10
12.8095
 20
201.4541
 30
0.0
 10
6.5147
 20
156.7032
 30
0.0
 10
6.5147
 20
136.4098
 30
0.0
 10
6.5147
 20
116.1154
 30
0.0
 10
6.4863
 20
117.6232
 30
0.0
 10
1.4122
 20
121.258
 30
0.0
 10
-3.6618
 20
124.8932
 30
0.0
 10
-12.3061
 20
175.5042
 30
0.0
 10
-16.8163
 20
158.1682
 30
0.0
 10
-21.3263
 20
140.832
 30
0.0
 10
-22.6942
 20
96.2881
 30
0.0
 10
-11.6731
 20
53.2389
 30
0.0
 10
-0.6515
 20
10.1898
 30
0.0
 10
16.2021
 20
-5.2918
 30
0.0
 10
41.3227
 20
-9.3685
 30
0.0
 10
66.4434
 20
-13.4469
 30
0.0
 10
110.7472
 20
2.1847
 30
0.0
 10
139.0654
 20
-0.5338
 30
0.0
 10
167.3829
 20
-3.2527
 30
0.0
 10
178.8016
 20
-27.7185
 30
0.0
 10
178.8016
 20
-27.7185
 30
0.0
 10
178.8016
 20
-27.7185
 30
0.0
 10
125.6775
 20
-30.3818
 30
0.0
 10
87.7297
 20
-37.2254
 30
0.0
 10
49.7818
 20
-44.0701
 30
0.0
 10
-2.9999
 20
-54.0561
 30
0.0
 10
-43.6146
 20
-67.6106
 30
0.0
 10
-84.2294
 20
-81.1654
 30
0.0
 10
-130.8583
 20
-94.9772
 30
0.0
 10
-157.4164
 20
-107.1917
 30
0.0
 10
-183.9746
 20
-119.4066
 30
0.0
 10
-235.9919
 20
-144.2297
 30
0.0
 10
-273.3102
 20
-149.5461
 30
0.0
 10
-310.6287
 20
-154.8623
 30
0.0
 10
-299.1152
 20
-120.0096
 30
0.0
 10
-293.9542
 20
-81.612
 30
0.0
 10
-288.7931
 20
-43.2149
 30
0.0
 10
-269.4431
 20
6.3327
 30
0.0
 10
-254.957
 20
30.0427
 30
0.0
 10
-240.4707
 20
53.7539
 30
0.0
 10
-225.5019
 20
55.909
 30
0.0
 10
-210.5326
 20
104.0484
 30
0.0
 10
-195.5638
 20
152.1889
 30
0.0
 10
-197.495
 20
174.4625
 30
0.0
 10
-197.9781
 20
215.417
 30
0.0
 10
-198.4607
 20
256.3724
 30
0.0
 10
-191.6568
 20
268.0352
 30
0.0
 10
-179.4255
 20
295.3344
 30
0.0
 10
-167.1946
 20
322.634
 30
0.0
 10
-155.5933
 20
337.1055
 30
0.0
 10
-157.765
 20
344.2146
 30
0.0
 10
-159.9365
 20
351.3237
 30
0.0
 10
-193.815
 20
337.7517
 30
0.0
 10
-217.2694
 20
323.5339
 30
0.0
 10
-240.7236
 20
309.3152
 30
0.0
 10
-256.6745
 20
301.8156
 30
0.0
 10
-288.4897
 20
264.3126
 30
0.0
 10
-320.3047
 20
226.8096
 30
0.0
 10
-337.9258
 20
142.7838
 30
0.0
 10
-327.6587
 20
110.7009
 30
0.0
 10
-317.3912
 20
78.618
 30
0.0
 10
-314.6532
 20
62.8312
 30
0.0
 10
-310.5463
 20
22.0914
 30
0.0
 10
-306.4394
 20
-18.6485
 30
0.0
 10
-321.8404
 20
-3.3714
 30
0.0
 10
-322.1826
 20
2.7399
 30
0.0
 10
-322.5247
 20
8.8506
 30
0.0
 10
-330.6045
 20
38.3397
 30
0.0
 10
-350.3573
 20
109.4488
 30
0.0
 10
-370.1099
 20
180.5586
 30
0.0
 10
-368.7439
 20
191.0093
 30
0.0
 10
-420.8831
 20
265.6349
 30
0.0
 10
-473.0226
 20
340.2616
 30
0.0
 10
-526.6516
 20
338.0443
 30
0.0
 10
-559.425
 20
329.1776
 30
0.0
 10
-592.1979
 20
320.3117
 30
0.0
 10
-647.4784
 20
291.8921
 30
0.0
 10
-661.538
 20
282.8881
 30
0.0
 10
-675.5972
 20
273.8845
 30
0.0
 10
-675.3023
 20
292.9342
 30
0.0
 10
-674.897
 20
309.8371
 30
0.0
 10
-674.4909
 20
326.7412
 30
0.0
 10
-690.779
 20
391.8212
 30
0.0
 10
-723.7543
 20
420.9536
 30
0.0
 10
-756.7285
 20
450.0872
 30
0.0
 10
-771.8423
 20
449.0644
 30
0.0
 10
-800.3521
 20
457.2423
 30
0.0
 10
-828.8615
 20
465.4199
 30
0.0
 10
-823.7089
 20
486.3753
 30
0.0
 10
-823.7089
 20
486.3753
 30
0.0
 10
-823.7089
 20
486.3753
 30
0.0
 10
-800.4593
 20
487.5824
 30
0.0
 10
-753.503
 20
485.7681
 30
0.0
 10
-706.5473
 20
483.9526
 30
0.0
 10
-647.1401
 20
477.7679
 30
0.0
 10
-632.1746
 20
476.0553
 30
0.0
 10
-617.2094
 20
474.342
 30
0.0
 10
-609.1904
 20
454.794
 30
0.0
 10
-576.052
 20
427.2042
 30
0.0
 10
-542.9127
 20
399.6138
 30
0.0
 10
-529.6165
 20
400.1986
 30
0.0
 10
-496.1262
 20
399.7656
 30
0.0
 10
-462.636
 20
399.3322
 30
0.0
 10
-432.5906
 20
399.9545
 30
0.0
 10
-418.3527
 20
392.2142
 30
0.0
 10
-404.1158
 20
384.4736
 30
0.0
 10
-391.521
 20
375.9185
 30
0.0
 10
-394.2592
 20
367.3627
 30
0.0
 10
-396.9972
 20
358.8069
 30
0.0
 10
-431.2217
 20
360.0298
 30
0.0
 10
-407.4015
 20
344.1408
 30
0.0
 10
-383.5808
 20
328.2511
 30
0.0
 10
-371.8081
 20
302.9935
 30
0.0
 10
-347.9885
 20
296.0674
 30
0.0
 10
-324.1683
 20
289.1413
 30
0.0
 10
-283.1521
 20
319.2619
 30
0.0
 10
-258.4542
 20
344.3048
 30
0.0
 10
-233.7565
 20
369.3493
 30
0.0
 10
-213.9998
 20
360.5718
 30
0.0
 10
-179.6709
 20
376.5349
 30
0.0
 10
-145.3422
 20
392.497
 30
0.0
 10
-139.157
 20
428.317
 30
0.0
 10
-122.3957
 20
468.7611
 30
0.0
 10
-105.6345
 20
509.2038
 30
0.0
 10
-96.5742
 20
539.5372
 30
0.0
 10
-86.1553
 20
525.3818
 30
0.0
 10
-75.7359
 20
511.2268
 30
0.0
 10
-88.8731
 20
481.5678
 30
0.0
 10
-99.7453
 20
451.909
 30
0.0
 10
-110.6172
 20
422.2502
 30
0.0
 10
-128.0481
 20
402.0324
 30
0.0
 10
-126.5699
 20
351.4333
 30
0.0
 10
-125.0911
 20
300.8349
 30
0.0
 10
-114.0026
 20
286.5345
 30
0.0
 10
-105.8706
 20
240.3355
 30
0.0
 10
-97.7388
 20
194.1363
 30
0.0
 10
-119.7525
 20
128.8374
 30
0.0
 10
-129.1682
 20
97.0436
 30
0.0
 10
-138.5844
 20
65.2497
 30
0.0
 10
-125.9087
 20
69.5614
 30
0.0
 10
-104.9032
 20
83.0333
 30
0.0
 10
-83.8989
 20
96.5048
 30
0.0
 10
-49.688
 20
145.4314
 30
0.0
 10
-24.2931
 20
202.4677
 30
0.0
 10
1.1009
 20
259.5032
 30
0.0
 10
11.1319
 20
292.2348
 30
0.0
 10
12.8121
 20
348.7331
 30
0.0
 10
14.4921
 20
405.2321
 30
0.0
 10
-14.07
 20
444.7321
 30
0.0
 10
-27.5106
 20
462.7302
 30
0.0
 10
-40.9511
 20
480.7308
 30
0.0
 10
-58.7603
 20
515.7299
 30
0.0
 10
-56.7447
 20
535.73
 30
0.0
 10
-55.5893
 20
547.189
 30
0.0
 10
-58.3181
 20
571.3904
 30
0.0
 10
-60.8589
 20
589.9734
 30
0.0
  0
SPLINE
  5
71
330
1F
100
AcDbEntity
  8
Layer 1
 62
   250
370
    20
100
AcDbSpline
210
0.0
220
0.0
230
1.0
 70
    11
 71
     3
 72
    35
 73
    31
 74
     0
 42
0.0000000001
 43
0.0000000001
 40
0.0
 40
0.0
 40
0.0
 40
0.0
 40
0.1
 40
0.1
 40
0.1
 40
0.2
 40
0.2
 40
0.2
 40
0.3
 40
0.3
 40
0.3
 40
0.4
 40
0.4
 40
0.4
 40
0.5
 40
0.5
 40
0.5
 40
0.6000000000000001
 40
0.6000000000000001
 40
0.6000000000000001
 40
0.7000000000000001
 40
0.7000000000000001
 40
0.7000000000000001
 40
0.8
 40
0.8
 40
0.8
 40
0.9
 40
0.9
 40
0.9
 40
1.0
 40
1.0
 40
1.0
 40
1.0
 10
-444.3878
 20
589.9734
 30
0.0
 10
-444.3878
 20
589.9734
 30
0.0
 10
-98.6115
 20
589.9734
 30
0.0
 10
-98.6115
 20
589.9734
 30
0.0
 10
-103.8858
 20
563.2712
 30
0.0
 10
-117.3581
 20
529.8603
 30
0.0
 10
-152.5665
 20
512.3971
 30
0.0
 10
-195.9357
 20
490.8864
 30
0.0
 10
-191.7312
 20
504.9006
 30
0.0
 10
-234.602
 20
502.9822
 30
0.0
 10
-277.472
 20
501.0638
 30
0.0
 10
-293.4378
 20
494.1177
 30
0.0
 10
-311.6374
 20
464.4975
 30
0.0
 10
-329.8376
 20
434.8782
 30
0.0
 10
-336.1898
 20
412.5097
 30
0.0
 10
-350.1037
 20
386.2329
 30
0.0
 10
-364.0176
 20
359.9547
 30
0.0
 10
-374.7202
 20
374.2885
 30
0.0
 10
-373.6496
 20
379.8624
 30
0.0
 10
-372.5794
 20
385.4367
 30
0.0
 10
-380.0717
 20
430.0281
 30
0.0
 10
-388.6338
 20
460.2868
 30
0.0
 10
-397.1964
 20
490.5446
 30
0.0
 10
-418.0668
 20
527.9704
 30
0.0
 10
-454.4569
 20
548.674
 30
0.0
 10
-490.847
 20
569.3769
 30
0.0
 10
-526.5022
 20
580.2294
 30
0.0
 10
-526.5022
 20
580.2294
 30
0.0
 10
-526.5022
 20
580.2294
 30
0.0
 10
-492.8504
 20
584.4634
 30
0.0
 10
-444.3878
 20
589.9734
 30
0.0
  0
SPLINE
  5
72
330
1F
100
AcDbEntity
  8
Layer 1
 62
   250
370
    20
100
AcDbSpline
210
0.0
220
0.0
230
1.0
 70
    11
 71
     3
 72
    23
 73
    19
 74
     0
 42
0.0000000001
 43
0.0000000001
 40
0.0
 40
0.0
 40
0.0
 40
0.0
 40
0.1666666666666667
 40
0.1666666666666667
 40
0.1666666666666667
 40
0.3333333333333333
 40
0.3333333333333333
 40
0.3333333333333333
 40
0.5
 40
0.5
 40
0.5
 40
0.6666666666666666
 40
0.6666666666666666
 40
0.6666666666666666
 40
0.8333333333333333
 40
0.8333333333333333
 40
0.8333333333333333
 40
1.0
 40
1.0
 40
1.0
 40
1.0
 10
-743.734
 20
589.9734
 30
0.0
 10
-743.734
 20
589.9734
 30
0.0
 10
-556.4955
 20
589.9734
 30
0.0
 10
-556.4955
 20
589.9734
 30
0.0
 10
-565.9098
 20
583.1733
 30
0.0
 10
-576.5309
 20
576.5243
 30
0.0
 10
-585.2461
 20
573.7454
 30
0.0
 10
-606.1021
 20
567.0957
 30
0.0
 10
-625.9642
 20
539.7571
 30
0.0
 10
-645.3305
 20
534.5853
 30
0.0
 10
-664.6968
 20
529.4129
 30
0.0
 10
-774.4369
 20
537.5412
 30
0.0
 10
-797.7758
 20
537.5412
 30
0.0
 10
-821.1144
 20
537.5412
 30
0.0
 10
-803.2379
 20
547.1458
 30
0.0
 10
-783.3752
 20
557.4901
 30
0.0
 10
-773.4035
 20
562.6836
 30
0.0
 10
-757.3003
 20
577.0013
 30
0.0
 10
-743.734
 20
589.9734
 30
0.0
  0
SPLINE
  5
73
330
1F
100
AcDbEntity
  8
Layer 1
 62
   250
370
    20
100
AcDbSpline
210
0.0
220
0.0
230
1.0
 70
    11
 71
     3
 72
    26
 73
    22
 74
     0
 42
0.0000000001
 43
0.0000000001
 40
0.0
 40
0.0
 40
0.0
 40
0.0
 40
0.1428571428571428
 40
0.1428571428571428
 40
0.1428571428571428
 40
0.2857142857142857
 40
0.2857142857142857
 40
0.2857142857142857
 40
0.4285714285714285
 40
0.4285714285714285
 40
0.4285714285714285
 40
0.5714285714285714
 40
0.5714285714285714
 40
0.5714285714285714
 40
0.7142857142857142
 40
0.7142857142857142
 40
0.7142857142857142
 40
0.8571428571428571
 40
0.8571428571428571
 40
0.8571428571428571
 40
1.0
 40
1.0
 40
1.0
 40
1.0
 10
-1098.2996
 20
589.9734
 30
0.0
 10
-1098.2996
 20
589.9734
 30
0.0
 10
-815.0293
 20
589.9734
 30
0.0
 10
-815.0293
 20
589.9734
 30
0.0
 10
-823.3909
 20
564.0734
 30
0.0
 10
-855.7658
 20
539.3072
 30
0.0
 10
-876.8302
 20
539.3072
 30
0.0
 10
-900.1878
 20
539.3072
 30
0.0
 10
-918.9748
 20
540.063
 30
0.0
 10
-944.363
 20
558.9515
 30
0.0
 10
-969.7516
 20
577.8407
 30
0.0
 10
-1024.2617
 20
570.8032
 30
0.0
 10
-1047.9574
 20
564.0625
 30
0.0
 10
-1071.6531
 20
557.3222
 30
0.0
 10
-1077.9253
 20
534.5071
 30
0.0
 10
-1094.3034
 20
542.804
 30
0.0
 10
-1110.6813
 20
551.0992
 30
0.0
 10
-1099.879
 20
569.766
 30
0.0
 10
-1097.788
 20
575.4699
 30
0.0
 10
-1097.0475
 20
577.4901
 30
0.0
 10
-1097.4598
 20
583.3051
 30
0.0
 10
-1098.2996
 20
589.9734
 30
0.0
  0
SPLINE
  5
74
330
1F
100
AcDbEntity
  8
Layer 1
 62
   250
370
    20
100
AcDbSpline
210
0.0
220
0.0
230
1.0
 70
    11
 71
     3
 72
    95
 73
    91
 74
     0
 42
0.0000000001
 43
0.0000000001
 40
0.0
 40
0.0
 40
0.0
 40
0.0
 40
0.0333333333333333
 40
0.0333333333333333
 40
0.0333333333333333
 40
0.0666666666666667
 40
0.0666666666666667
 40
0.0666666666666667
 40
0.1
 40
0.1
 40
0.1
 40
0.1333333333333333
 40
0.1333333333333333
 40
0.1333333333333333
 40
0.1666666666666667
 40
0.1666666666666667
 40
0.1666666666666667
 40
0.2
 40
0.2
 40
0.2
 40
0.2333333333333333
 40
0.2333333333333333
 40
0.2333333333333333
 40
0.2666666666666667
 40
0.2666666666666667
 40
0.2666666666666667
 40
0.3
 40
0.3
 40
0.3
 40
0.3333333333333333
 40
0.3333333333333333
 40
0.3333333333333333
 40
0.3666666666666666
 40
0.3666666666666666
 40
0.3666666666666666
 40
0.4
 40
0.4
 40
0.4
 40
0.4333333333333333
 40
0.4333333333333333
 40
0.4333333333333333
 40
0.4666666666666667
 40
0.4666666666666667
 40
0.4666666666666667
 40
0.5
 40
0.5
 40
0.5
 40
0.5333333333333333
 40
0.5333333333333333
 40
0.5333333333333333
 40
0.5666666666666667
 40
0.5666666666666667
 40
0.5666666666666667
 40
0.6
 40
0.6
 40
0.6
 40
0.6333333333333333
 40
0.6333333333333333
 40
0.6333333333333333
 40
0.6666666666666666
 40
0.6666666666666666
 40
0.6666666666666666
 40
0.7
 40
0.7
 40
0.7
 40
0.7333333333333333
 40
0.7333333333333333
 40
0.7333333333333333
 40
0.7666666666666666
 40
0.7666666666666666
 40
0.7666666666666666
 40
0.8
 40
0.8
 40
0.8
 40
0.8333333333333334
 40
0.8333333333333334
 40
0.8333333333333334
 40
0.8666666666666667
 40
0.8666666666666667
 40
0.8666666666666667
 40
0.9
 40
0.9
 40
0.9
 40
0.9333333333333333
 40
0.9333333333333333
 40
0.9333333333333333
 40
0.9666666666666667
 40
0.9666666666666667
 40
0.9666666666666667
 40
1.0
 40
1.0
 40
1.0
 40
1.0
 10
-1200.05
 20
-115.9021
 30
0.0
 10
-1200.05
 20
-115.9021
 30
0.0
 10
-1200.05
 20
92.1774
 30
0.0
 10
-1200.05
 20
92.1774
 30
0.0
 10
-1199.5379
 20
92.8478
 30
0.0
 10
-1199.0435
 20
93.2616
 30
0.0
 10
-1198.5743
 20
93.3526
 30
0.0
 10
-1190.216
 20
94.9749
 30
0.0
 10
-1187.6726
 20
85.7826
 30
0.0
 10
-1161.5074
 20
66.8566
 30
0.0
 10
-1135.3427
 20
47.932
 30
0.0
 10
-1123.9389
 20
50.826
 30
0.0
 10
-1098.8912
 20
52.1111
 30
0.0
 10
-1073.8443
 20
53.3963
 30
0.0
 10
-1065.2561
 20
44.6835
 30
0.0
 10
-1049.6998
 20
26.6284
 30
0.0
 10
-1034.1432
 20
8.5728
 30
0.0
 10
-1027.6093
 20
-35.8704
 30
0.0
 10
-1021.0753
 20
-30.7781
 30
0.0
 10
-1014.5417
 20
-25.686
 30
0.0
 10
-1011.1192
 20
5.3327
 30
0.0
 10
-1015.4756
 20
61.813
 30
0.0
 10
-1019.8311
 20
118.2937
 30
0.0
 10
-1030.4099
 20
133.5701
 30
0.0
 10
-1052.1885
 20
175.2365
 30
0.0
 10
-1073.9678
 20
216.9023
 30
0.0
 10
-1098.8581
 20
235.8834
 30
0.0
 10
-1130.2822
 20
256.2537
 30
0.0
 10
-1161.7066
 20
276.624
 30
0.0
 10
-1199.1567
 20
281.5791
 30
0.0
 10
-1199.1567
 20
281.5791
 30
0.0
 10
-1199.1567
 20
281.5791
 30
0.0
 10
-1200.05
 20
294.8905
 30
0.0
 10
-1200.05
 20
294.8905
 30
0.0
 10
-1200.05
 20
294.8905
 30
0.0
 10
-1200.05
 20
589.9734
 30
0.0
 10
-1200.05
 20
589.9734
 30
0.0
 10
-1200.05
 20
589.9734
 30
0.0
 10
-1185.0834
 20
589.9734
 30
0.0
 10
-1185.0834
 20
589.9734
 30
0.0
 10
-1179.0735
 20
586.4935
 30
0.0
 10
-1173.5944
 20
583.7363
 30
0.0
 10
-1169.8657
 20
582.7146
 30
0.0
 10
-1156.0563
 20
578.9288
 30
0.0
 10
-1157.0522
 20
567.8027
 30
0.0
 10
-1142.2677
 20
544.9897
 30
0.0
 10
-1127.4826
 20
522.1749
 30
0.0
 10
-1102.6776
 20
498.7468
 30
0.0
 10
-1077.1512
 20
467.2143
 30
0.0
 10
-1051.6246
 20
435.6818
 30
0.0
 10
-1072.3348
 20
394.833
 30
0.0
 10
-1053.5513
 20
326.751
 30
0.0
 10
-1034.7674
 20
258.6674
 30
0.0
 10
-996.1853
 20
209.9582
 30
0.0
 10
-968.8051
 20
177.5511
 30
0.0
 10
-941.4261
 20
145.1444
 30
0.0
 10
-948.7489
 20
124.1851
 30
0.0
 10
-953.3486
 20
97.0935
 30
0.0
 10
-957.9478
 20
70.0018
 30
0.0
 10
-960.1884
 20
29.6634
 30
0.0
 10
-946.0769
 20
-5.0913
 30
0.0
 10
-931.9653
 20
-39.847
 30
0.0
 10
-912.9875
 20
-76.774
 30
0.0
 10
-874.5455
 20
-120.9411
 30
0.0
 10
-836.1035
 20
-165.1092
 30
0.0
 10
-812.2594
 20
-173.0729
 30
0.0
 10
-778.1969
 20
-181.7619
 30
0.0
 10
-744.1344
 20
-190.4511
 30
0.0
 10
-746.567
 20
-207.8283
 30
0.0
 10
-758.7326
 20
-207.8283
 30
0.0
 10
-770.898
 20
-207.8283
 30
0.0
 10
-826.3712
 20
-218.6891
 30
0.0
 10
-857.0276
 20
-201.3117
 30
0.0
 10
-887.684
 20
-183.9345
 30
0.0
 10
-895.956
 20
-169.4532
 30
0.0
 10
-926.6126
 20
-147.0079
 30
0.0
 10
-957.2687
 20
-124.5615
 30
0.0
 10
-988.6095
 20
-109.7083
 30
0.0
 10
-1019.1615
 20
-101.3582
 30
0.0
 10
-1049.7134
 20
-93.0082
 30
0.0
 10
-1088.4787
 20
-91.4197
 30
0.0
 10
-1128.4282
 20
-94.3917
 30
0.0
 10
-1168.3775
 20
-97.3638
 30
0.0
 10
-1180.6796
 20
-111.4247
 30
0.0
 10
-1187.344
 20
-116.6751
 30
0.0
 10
-1194.0083
 20
-121.9241
 30
0.0
 10
-1199.8885
 20
-116.6751
 30
0.0
 10
-1199.8885
 20
-116.6751
 30
0.0
 10
-1199.8885
 20
-116.6751
 30
0.0
 10
-1200.05
 20
-115.9021
 30
0.0
 10
-1200.05
 20
-115.9021
 30
0.0
  0
SPLINE
  5
75
330
1F
100
AcDbEntity
  8
Layer 1
 62
   250
370
    20
100
AcDbSpline
210
0.0
220
0.0
230
1.0
 70
    11
 71
     3
 72
    62
 73
    58
 74
     0
 42
0.0000000001
 43
0.0000000001
 40
0.0
 40
0.0
 40
0.0
 40
0.0
 40
0.0526315789473684
 40
0.0526315789473684
 40
0.0526315789473684
 40
0.1052631578947368
 40
0.1052631578947368
 40
0.1052631578947368
 40
0.1578947368421053
 40
0.1578947368421053
 40
0.1578947368421053
 40
0.2105263157894737
 40
0.2105263157894737
 40
0.2105263157894737
 40
0.2631578947368421
 40
0.2631578947368421
 40
0.2631578947368421
 40
0.3157894736842105
 40
0.3157894736842105
 40
0.3157894736842105
 40
0.3684210526315789
 40
0.3684210526315789
 40
0.3684210526315789
 40
0.4210526315789473
 40
0.4210526315789473
 40
0.4210526315789473
 40
0.4736842105263158
 40
0.4736842105263158
 40
0.4736842105263158
 40
0.5263157894736842
 40
0.5263157894736842
 40
0.5263157894736842
 40
0.5789473684210527
 40
0.5789473684210527
 40
0.5789473684210527
 40
0.631578947368421
 40
0.631578947368421
 40
0.631578947368421
 40
0.6842105263157894
 40
0.6842105263157894
 40
0.6842105263157894
 40
0.7368421052631579
 40
0.7368421052631579
 40
0.7368421052631579
 40
0.7894736842105263
 40
0.7894736842105263
 40
0.7894736842105263
 40
0.8421052631578947
 40
0.8421052631578947
 40
0.8421052631578947
 40
0.894736842105263
 40
0.894736842105263
 40
0.894736842105263
 40
0.9473684210526315
 40
0.9473684210526315
 40
0.9473684210526315
 40
1.0
 40
1.0
 40
1.0
 40
1.0
 10
-1174.0786
 20
-590.0266
 30
0.0
 10
-1173.5374
 20
-583.8795
 30
0.0
 10
-1168.9634
 20
-537.1766
 30
0.0
 10
-1150.1447
 20
-476.2733
 30
0.0
 10
-1129.9342
 20
-410.8631
 30
0.0
 10
-1104.165
 20
-391.3154
 30
0.0
 10
-1078.3958
 20
-370.263
 30
0.0
 10
-1052.6272
 20
-349.2128
 30
0.0
 10
-1023.8263
 20
-335.1427
 30
0.0
 10
-1020.9387
 20
-343.735
 30
0.0
 10
-1018.0513
 20
-352.3274
 30
0.0
 10
-1023.8263
 20
-375.9567
 30
0.0
 10
-1038.6237
 20
-411.9371
 30
0.0
 10
-1053.4203
 20
-447.9186
 30
0.0
 10
-1046.2022
 20
-486.5841
 30
0.0
 10
-1038.6237
 20
-503.7692
 30
0.0
 10
-1031.116
 20
-520.7913
 30
0.0
 10
-1029.2752
 20
-564.1551
 30
0.0
 10
-1030.2932
 20
-590.0266
 30
0.0
 10
-1030.2932
 20
-590.0266
 30
0.0
 10
-875.2395
 20
-590.0266
 30
0.0
 10
-875.2395
 20
-590.0266
 30
0.0
 10
-877.6313
 20
-580.9397
 30
0.0
 10
-880.0446
 20
-570.2829
 30
0.0
 10
-881.9879
 20
-558.5464
 30
0.0
 10
-888.1231
 20
-521.4913
 30
0.0
 10
-893.0788
 20
-472.1544
 30
0.0
 10
-884.6061
 20
-423.3701
 30
0.0
 10
-876.1333
 20
-374.5862
 30
0.0
 10
-847.0664
 20
-344.1383
 30
0.0
 10
-830.8849
 20
-331.0057
 30
0.0
 10
-814.7038
 20
-317.8727
 30
0.0
 10
-776.9474
 20
-307.6577
 30
0.0
 10
-764.6889
 20
-286.4993
 30
0.0
 10
-752.4306
 20
-265.3405
 30
0.0
 10
-739.6815
 20
-243.4518
 30
0.0
 10
-768.1217
 20
-244.1814
 30
0.0
 10
-796.5614
 20
-244.9105
 30
0.0
 10
-836.2789
 20
-243.4518
 30
0.0
 10
-866.1898
 20
-263.1513
 30
0.0
 10
-896.1005
 20
-282.8511
 30
0.0
 10
-969.1099
 20
-294.6153
 30
0.0
 10
-1001.5281
 20
-293.7693
 30
0.0
 10
-1033.9465
 20
-292.9231
 30
0.0
 10
-1084.2525
 20
-273.6543
 30
0.0
 10
-1129.1903
 20
-235.1222
 30
0.0
 10
-1174.1269
 20
-196.5898
 30
0.0
 10
-1178.468
 20
-146.7613
 30
0.0
 10
-1198.8136
 20
-145.7687
 30
0.0
 10
-1199.2322
 20
-145.7483
 30
0.0
 10
-1199.6432
 20
-145.8481
 30
0.0
 10
-1200.05
 20
-145.9999
 30
0.0
 10
-1200.05
 20
-145.9999
 30
0.0
 10
-1200.05
 20
-590.0266
 30
0.0
 10
-1200.05
 20
-590.0266
 30
0.0
 10
-1200.05
 20
-590.0266
 30
0.0
 10
-1174.0786
 20
-590.0266
 30
0.0
 10
-1174.0786
 20
-590.0266
 30
0.0
  0
ENDSEC
  0
SECTION
  2
OBJECTS
  0
DICTIONARY
  5
C
330
0
100
AcDbDictionary
281
     1
  3
ACAD_DETAILVIEWSTYLE
350
7D
  3
ACAD_GROUP
350
D
  3
ACAD_LAYOUT
350
1A
  3
ACAD_MATERIAL
350
43
  3
ACAD_MLEADERSTYLE
350
5B
  3
ACAD_MLINESTYLE
350
17
  3
ACAD_PLOTSETTINGS
350
19
  3
ACAD_PLOTSTYLENAME
350
E
  3
ACAD_SCALELIST
350
47
  3
ACAD_SECTIONVIEWSTYLE
350
7E
  3
ACAD_TABLESTYLE
350
59
  3
ACAD_VISUALSTYLE
350
2A
  3
ACDB_RECOMPOSE_DATA
350
7A
  3
AcDbVariableDictionary
350
76
  0
SUN
  5
5D
330
29
100
AcDbSun
 90
        1
290
     0
 63
     7
421
 16777215
 40
1.0
291
     1
 91
  2455826
 92
 54000000
292
     0
 70
     2
 71
   256
280
     1
  0
DICTIONARY
  5
7D
102
{ACAD_REACTORS
330
C
102
}
330
C
100
AcDbDictionary
281
     1
  0
DICTIONARY
  5
D
102
{ACAD_REACTORS
330
C
102
}
330
C
100
AcDbDictionary
281
     1
  0
DICTIONARY
  5
1A
102
{ACAD_REACTORS
330
C
102
}
330
C
100
AcDbDictionary
281
     1
  3
Layout1
350
1E
  3
Layout2
350
26
  3
Model
350
22
  0
DICTIONARY
  5
43
102
{ACAD_REACTORS
330
C
102
}
330
C
100
AcDbDictionary
281
     1
  3
ByBlock
350
45
  3
ByLayer
350
44
  3
Global
350
46
  0
DICTIONARY
  5
5B
102
{ACAD_REACTORS
330
C
102
}
330
C
100
AcDbDictionary
281
     1
  3
Standard
350
5C
  0
DICTIONARY
  5
17
102
{ACAD_REACTORS
330
C
102
}
330
C
100
AcDbDictionary
281
     1
  3
Standard
350
18
  0
DICTIONARY
  5
19
102
{ACAD_REACTORS
330
C
102
}
330
C
100
AcDbDictionary
281
     1
  0
ACDBDICTIONARYWDFLT
  5
E
102
{ACAD_REACTORS
330
C
102
}
330
C
100
AcDbDictionary
281
     1
  3
Normal
350
F
100
AcDbDictionaryWithDefault
340
F
  0
DICTIONARY
  5
47
102
{ACAD_REACTORS
330
C
102
}
330
C
100
AcDbDictionary
281
     1
  3
A0
350
48
  3
A1
350
49
  3
A2
350
4A
  3
A3
350
4B
  3
A4
350
4C
  3
A5
350
4D
  3
A6
350
4E
  3
A7
350
4F
  3
A8
350
50
  3
A9
350
51
  3
B1
350
52
  3
B2
350
53
  3
B3
350
54
  3
B4
350
55
  3
B5
350
56
  3
B6
350
57
  3
B7
350
58
  0
DICTIONARY
  5
7E
102
{ACAD_REACTORS
330
C
102
}
330
C
100
AcDbDictionary
281
     1
  0
DICTIONARY
  5
59
102
{ACAD_REACTORS
330
C
102
}
330
C
100
AcDbDictionary
281
     1
  3
Standard
350
5A
  0
DICTIONARY
  5
2A
102
{ACAD_REACTORS
330
C
102
}
330
C
100
AcDbDictionary
281
     1
  3
2dWireframe
350
2F
  3
Basic
350
32
  3
Brighten
350
36
  3
ColorChange
350
3A
  3
Conceptual
350
34
  3
Dim
350
35
  3
EdgeColorOff
350
3D
  3
Facepattern
350
39
  3
Flat
350
2B
  3
FlatWithEdges
350
2C
  3
Gouraud
350
2D
  3
GouraudWithEdges
350
2E
  3
Hidden
350
31
  3
JitterOff
350
3B
  3
Linepattern
350
38
  3
OverhangOff
350
3C
  3
Realistic
350
33
  3
Shaded
350
42
  3
Shaded with edges
350
41
  3
Shades of Gray
350
3E
  3
Sketchy
350
3F
  3
Thicken
350
37
  3
Wireframe
350
30
  3
X-Ray
350
40
  0
XRECORD
  5
7A
102
{ACAD_REACTORS
330
C
102
}
330
C
100
AcDbXrecord
280
     1
 90
        1
330
5A
  0
DICTIONARY
  5
76
102
{ACAD_REACTORS
330
C
102
}
330
C
100
AcDbDictionary
281
     1
  3
CANNOSCALE
350
77
  3
CMLEADERSTYLE
350
7C
  3
CTABLESTYLE
350
7B
  0
LAYOUT
  5
1E
102
{ACAD_REACTORS
330
1A
102
}
330
1A
100
AcDbPlotSettings
  1

  2
none_device
  4

  6

 40
0.0
 41
0.0
 42
0.0
 43
0.0
 44
0.0
 45
0.0
 46
0.0
 47
0.0
 48
0.0
 49
0.0
140
0.0
141
0.0
142
1.0
143
1.0
 70
   688
 72
     0
 73
     0
 74
     5
  7

 75
    16
 76
     0
 77
     2
 78
   300
147
1.0
148
0.0
149
0.0
100
AcDbLayout
  1
Layout1
 70
     1
 71
     1
 10
0.0
 20
0.0
 11
12.0
 21
9.0
 12
0.0
 22
0.0
 32
0.0
 14
1.000000000000000E+20
 24
1.000000000000000E+20
 34
1.000000000000000E+20
 15
-1.000000000000000E+20
 25
-1.000000000000000E+20
 35
-1.000000000000000E+20
146
0.0
 13
0.0
 23
0.0
 33
0.0
 16
1.0
 26
0.0
 36
0.0
 17
0.0
 27
1.0
 37
0.0
 76
     0
330
1B
  0
LAYOUT
  5
26
102
{ACAD_REACTORS
330
1A
102
}
330
1A
100
AcDbPlotSettings
  1

  2
none_device
  4

  6

 40
0.0
 41
0.0
 42
0.0
 43
0.0
 44
0.0
 45
0.0
 46
0.0
 47
0.0
 48
0.0
 49
0.0
140
0.0
141
0.0
142
1.0
143
1.0
 70
   688
 72
     0
 73
     0
 74
     5
  7

 75
    16
 76
     0
 77
     2
 78
   300
147
1.0
148
0.0
149
0.0
100
AcDbLayout
  1
Layout2
 70
     1
 71
     2
 10
0.0
 20
0.0
 11
0.0
 21
0.0
 12
0.0
 22
0.0
 32
0.0
 14
0.0
 24
0.0
 34
0.0
 15
0.0
 25
0.0
 35
0.0
146
0.0
 13
0.0
 23
0.0
 33
0.0
 16
1.0
 26
0.0
 36
0.0
 17
0.0
 27
1.0
 37
0.0
 76
     0
330
23
  0
LAYOUT
  5
22
102
{ACAD_REACTORS
330
1A
102
}
330
1A
100
AcDbPlotSettings
  1

  2
none_device
  4
Letter_(8.50_x_11.00_Inches)
  6

 40
6.35
 41
6.35
 42
6.35000508
 43
6.35000508
 44
215.9
 45
279.4
 46
0.0
 47
0.0
 48
0.0
 49
0.0
140
0.0
141
0.0
142
1.0
143
1.0
 70
  1712
 72
     0
 73
     0
 74
     0
  7

 75
     0
 76
     0
 77
     2
 78
   300
147
1.0
148
0.0
149
0.0
100
AcDbLayout
  1
Model
 70
     1
 71
     0
 10
0.0
 20
0.0
 11
12.0
 21
9.0
 12
0.0
 22
0.0
 32
0.0
 14
-1200.15
 24
-590.1266
 34
0.0
 15
1200.05
 25
590.0734
 35
0.0
146
0.0
 13
0.0
 23
0.0
 33
0.0
 16
1.0
 26
0.0
 36
0.0
 17
0.0
 27
1.0
 37
0.0
 76
     0
330
1F
331
29
  0
MATERIAL
  5
45
102
{ACAD_REACTORS
330
43
102
}
330
43
100
AcDbMaterial
  1
ByBlock
 72
     1
 94
      127
  0
MATERIAL
  5
44
102
{ACAD_REACTORS
330
43
102
}
330
43
100
AcDbMaterial
  1
ByLayer
 72
     1
 94
      127
  0
MATERIAL
  5
46
102
{ACAD_REACTORS
330
43
102
}
330
43
100
AcDbMaterial
  1
Global
 72
     1
 94
      127
  0
MLEADERSTYLE
  5
5C
102
{ACAD_REACTORS
330
5B
102
}
330
5B
100
AcDbMLeaderStyle
179
     2
170
     2
171
     1
172
     0
 90
        2
 40
0.0
 41
0.0
173
     1
 91
-1056964608
340
14
 92
       -2
290
     1
 42
0.09
291
     1
 43
0.36
  3
Standard
341
0
 44
0.18
300

342
11
174
     1
178
     6
175
     1
176
     0
 93
-1056964608
 45
0.18
292
     0
297
     0
 46
0.18
343
0
 94
-1056964608
 47
1.0
 49
1.0
140
1.0
293
     1
141
0.0
294
     1
177
     0
142
1.0
295
     0
296
     0
143
0.125
271
     0
272
     9
273
     9
298
     0
  0
MLINESTYLE
  5
18
102
{ACAD_REACTORS
330
17
102
}
330
17
100
AcDbMlineStyle
  2
Standard
 70
     0
  3

 62
   256
 51
90.0
 52
90.0
 71
     2
 49
0.5
 62
   256
  6
BYLAYER
 49
-0.5
 62
   256
  6
BYLAYER
  0
ACDBPLACEHOLDER
  5
F
102
{ACAD_REACTORS
330
E
102
}
330
E
  0
SCALE
  5
48
102
{ACAD_REACTORS
330
47
102
}
330
47
100
AcDbScale
 70
     0
300
1:1
140
1.0
141
1.0
290
     1
  0
SCALE
  5
49
102
{ACAD_REACTORS
330
47
102
}
330
47
100
AcDbScale
 70
     0
300
1/128" = 1'-0"
140
0.0078125
141
12.0
290
     0
  0
SCALE
  5
4A
102
{ACAD_REACTORS
330
47
102
}
330
47
100
AcDbScale
 70
     0
300
1/64" = 1'-0"
140
0.015625
141
12.0
290
     0
  0
SCALE
  5
4B
102
{ACAD_REACTORS
330
47
102
}
330
47
100
AcDbScale
 70
     0
300
1/32" = 1'-0"
140
0.03125
141
12.0
290
     0
  0
SCALE
  5
4C
102
{ACAD_REACTORS
330
47
102
}
330
47
100
AcDbScale
 70
     0
300
1/16" = 1'-0"
140
0.0625
141
12.0
290
     0
  0
SCALE
  5
4D
102
{ACAD_REACTORS
330
47
102
}
330
47
100
AcDbScale
 70
     0
300
3/32" = 1'-0"
140
0.09375
141
12.0
290
     0
  0
SCALE
  5
4E
102
{ACAD_REACTORS
330
47
102
}
330
47
100
AcDbScale
 70
     0
300
1/8" = 1'-0"
140
0.125
141
12.0
290
     0
  0
SCALE
  5
4F
102
{ACAD_REACTORS
330
47
102
}
330
47
100
AcDbScale
 70
     0
300
3/16" = 1'-0"
140
0.1875
141
12.0
290
     0
  0
SCALE
  5
50
102
{ACAD_REACTORS
330
47
102
}
330
47
100
AcDbScale
 70
     0
300
1/4" = 1'-0"
140
0.25
141
12.0
290
     0
  0
SCALE
  5
51
102
{ACAD_REACTORS
330
47
102
}
330
47
100
AcDbScale
 70
     0
300
3/8" = 1'-0"
140
0.375
141
12.0
290
     0
  0
SCALE
  5
52
102
{ACAD_REACTORS
330
47
102
}
330
47
100
AcDbScale
 70
     0
300
1/2" = 1'-0"
140
0.5
141
12.0
290
     0
  0
SCALE
  5
53
102
{ACAD_REACTORS
330
47
102
}
330
47
100
AcDbScale
 70
     0
300
3/4" = 1'-0"
140
0.75
141
12.0
290
     0
  0
SCALE
  5
54
102
{ACAD_REACTORS
330
47
102
}
330
47
100
AcDbScale
 70
     0
300
1" = 1'-0"
140
1.0
141
12.0
290
     0
  0
SCALE
  5
55
102
{ACAD_REACTORS
330
47
102
}
330
47
100
AcDbScale
 70
     0
300
1-1/2" = 1'-0"
140
1.5
141
12.0
290
     0
  0
SCALE
  5
56
102
{ACAD_REACTORS
330
47
102
}
330
47
100
AcDbScale
 70
     0
300
3" = 1'-0"
140
3.0
141
12.0
290
     0
  0
SCALE
  5
57
102
{ACAD_REACTORS
330
47
102
}
330
47
100
AcDbScale
 70
     0
300
6" = 1'-0"
140
6.0
141
12.0
290
     0
  0
SCALE
  5
58
102
{ACAD_REACTORS
330
47
102
}
330
47
100
AcDbScale
 70
     0
300
1'-0" = 1'-0"
140
12.0
141
12.0
290
     0
  0
TABLESTYLE
  5
5A
102
{ACAD_REACTORS
330
59
102
}
102
{ACAD_XDICTIONARY
360
78
102
}
330
59
100
AcDbTableStyle
  3
Standard
 70
     0
 71
     0
 40
0.06
 41
0.06
280
     0
281
     0
  7
Standard
140
0.18
170
     2
 62
     0
 63
   257
283
     0
 90
        4
 91
        0
  1

274
    -2
284
     1
 64
     0
275
    -2
285
     1
 65
     0
276
    -2
286
     1
 66
     0
277
    -2
287
     1
 67
     0
278
    -2
288
     1
 68
     0
279
    -2
289
     1
 69
     0
  7
Standard
140
0.25
170
     5
 62
     0
 63
   257
283
     0
 90
        4
 91
        0
  1

274
    -2
284
     1
 64
     0
275
    -2
285
     1
 65
     0
276
    -2
286
     1
 66
     0
277
    -2
287
     1
 67
     0
278
    -2
288
     1
 68
     0
279
    -2
289
     1
 69
     0
  7
Standard
140
0.18
170
     5
 62
     0
 63
   257
283
     0
 90
        4
 91
        0
  1

274
    -2
284
     1
 64
     0
275
    -2
285
     1
 65
     0
276
    -2
286
     1
 66
     0
277
    -2
287
     1
 67
     0
278
    -2
288
     1
 68
     0
279
    -2
289
     1
 69
     0
  0
VISUALSTYLE
  5
2F
102
{ACAD_REACTORS
330
2A
102
}
330
2A
100
AcDbVisualStyle
  2
2dWireframe
 70
     4
177
     3
291
     0
 70
    58
 90
        0
176
     1
 90
        2
176
     1
 90
        0
176
     1
 90
        0
176
     1
 40
0.6
176
     1
 40
30.0
176
     1
 62
     7
420
 16777215
176
     1
 90
        1
176
     1
 90
        4
176
     1
 62
     7
176
     1
 62
   257
176
     1
 90
        1
176
     1
 90
        1
176
     1
 40
1.0
176
     1
 90
        0
176
     1
 62
   257
176
     1
 40
1.0
176
     1
 90
        1
176
     1
 90
        6
176
     1
 90
        2
176
     1
 62
     7
176
     1
 90
        5
176
     1
 90
        0
176
     1
 90
        0
176
     1
290
     0
176
     1
 90
        1
176
     1
 40
0.0
176
     1
 90
        0
176
     1
290
     1
176
     1
290
     1
176
     1
290
     0
176
     1
290
     0
176
     1
290
     0
176
     1
290
     0
176
     1
290
     0
176
     1
290
     0
176
     1
290
     0
176
     1
 90
       50
176
     1
 40
0.0
176
     1
 40
1.0
176
     1
 90
        0
176
     1
 62
    18
420
        0
176
     1
 90
       50
176
     1
 90
        3
176
     1
 62
     5
420
      255
176
     1
290
     0
176
     1
 90
       50
176
     1
 90
       50
176
     1
 90
       50
176
     1
290
     0
176
     1
 90
       50
176
     1
 62
   256
176
     0
 40
1.0
176
     0
 90
        2
176
     1
  1
strokes_ogs.tif
176
     1
290
     0
176
     1
 40
1.0
176
     1
 40
1.0
176
     1
  0
VISUALSTYLE
  5
32
102
{ACAD_REACTORS
330
2A
102
}
330
2A
100
AcDbVisualStyle
  2
Basic
 70
     7
177
     3
291
     1
 70
    58
 90
        1
176
     1
 90
        0
176
     1
 90
        1
176
     1
 90
        0
176
     1
 40
0.6
176
     1
 40
30.0
176
     1
 62
     7
420
 16777215
176
     1
 90
        0
176
     1
 90
        4
176
     1
 62
     7
176
     1
 62
   257
176
     1
 90
        1
176
     1
 90
        1
176
     1
 40
1.0
176
     1
 90
        8
176
     1
 62
     7
176
     1
 40
1.0
176
     1
 90
        1
176
     1
 90
        6
176
     1
 90
        2
176
     1
 62
     7
176
     1
 90
        5
176
     1
 90
        0
176
     1
 90
        0
176
     1
290
     0
176
     1
 90
        1
176
     1
 40
0.0
176
     1
 90
        0
176
     1
290
     0
176
     1
290
     1
176
     1
290
     1
176
     1
290
     0
176
     1
290
     0
176
     1
290
     0
176
     1
290
     0
176
     1
290
     0
176
     1
290
     0
176
     1
 90
       50
176
     1
 40
0.0
176
     1
 40
1.0
176
     1
 90
        0
176
     1
 62
    18
420
        0
176
     1
 90
       50
176
     1
 90
        3
176
     1
 62
     5
420
      255
176
     1
290
     0
176
     1
 90
       50
176
     1
 90
       50
176
     1
 90
       50
176
     1
290
     0
176
     1
 90
       50
176
     1
 62
   256
176
     0
 40
1.0
176
     0
 90
        2
176
     1
  1
strokes_ogs.tif
176
     1
290
     0
176
     1
 40
1.0
176
     1
 40
1.0
176
     1
  0
VISUALSTYLE
  5
36
102
{ACAD_REACTORS
330
2A
102
}
330
2A
100
AcDbVisualStyle
  2
Brighten
 70
    12
177
     3
291
     1
 70
    58
 90
        2
176
     1
 90
        2
176
     1
 90
        0
176
     1
 90
        0
176
     1
 40
0.6
176
     1
 40
30.0
176
     1
 62
     7
420
 16777215
176
     1
 90
        1
176
     1
 90
        4
176
     1
 62
     7
176
     1
 62
   257
176
     1
 90
        1
176
     1
 90
        1
176
     1
 40
1.0
176
     1
 90
        8
176
     1
 62
     7
176
     1
 40
1.0
176
     1
 90
        1
176
     1
 90
        6
176
     1
 90
        2
176
     1
 62
     7
176
     1
 90
        5
176
     1
 90
        0
176
     1
 90
        0
176
     1
290
     0
176
     1
 90
        1
176
     1
 40
50.0
176
     1
 90
        0
176
     1
290
     0
176
     1
290
     1
176
     1
290
     1
176
     1
290
     0
176
     1
290
     0
176
     1
290
     0
176
     1
290
     0
176
     1
290
     0
176
     1
290
     0
176
     1
 90
       50
176
     1
 40
0.0
176
     1
 40
1.0
176
     1
 90
        0
176
     1
 62
    18
420
        0
176
     1
 90
       50
176
     1
 90
        3
176
     1
 62
     5
420
      255
176
     1
290
     0
176
     1
 90
       50
176
     1
 90
       50
176
     1
 90
       50
176
     1
290
     0
176
     1
 90
       50
176
     1
 62
   256
176
     0
 40
1.0
176
     0
 90
        2
176
     1
  1
strokes_ogs.tif
176
     1
290
     0
176
     1
 40
1.0
176
     1
 40
1.0
176
     1
  0
VISUALSTYLE
  5
3A
102
{ACAD_REACTORS
330
2A
102
}
330
2A
100
AcDbVisualStyle
  2
ColorChange
 70
    16
177
     3
291
     1
 70
    58
 90
        2
176
     1
 90
        2
176
     1
 90
        3
176
     1
 90
        0
176
     1
 40
0.6
176
     1
 40
30.0
176
     1
 62
     8
420
  8421504
176
     1
 90
        1
176
     1
 90
        4
176
     1
 62
     7
176
     1
 62
   257
176
     1
 90
        1
176
     1
 90
        1
176
     1
 40
1.0
176
     1
 90
        8
176
     1
 62
     8
420
  8421504
176
     1
 40
1.0
176
     1
 90
        1
176
     1
 90
        6
176
     1
 90
        2
176
     1
 62
     7
176
     1
 90
        5
176
     1
 90
        0
176
     1
 90
        0
176
     1
290
     0
176
     1
 90
        1
176
     1
 40
0.0
176
     1
 90
        0
176
     1
290
     0
176
     1
290
     1
176
     1
290
     1
176
     1
290
     0
176
     1
290
     0
176
     1
290
     0
176
     1
290
     0
176
     1
290
     0
176
     1
290
     0
176
     1
 90
       50
176
     1
 40
0.0
176
     1
 40
1.0
176
     1
 90
        0
176
     1
 62
    18
420
        0
176
     1
 90
       50
176
     1
 90
        3
176
     1
 62
     5
420
      255
176
     1
290
     0
176
     1
 90
       50
176
     1
 90
       50
176
     1
 90
       50
176
     1
290
     0
176
     1
 90
       50
176
     1
 62
   256
176
     0
 40
1.0
176
     0
 90
        2
176
     1
  1
strokes_ogs.tif
176
     1
290
     0
176
     1
 40
1.0
176
     1
 40
1.0
176
     1
  0
VISUALSTYLE
  5
34
102
{ACAD_REACTORS
330
2A
102
}
330
2A
100
AcDbVisualStyle
  2
Conceptual
 70
     9
177
     3
291
     0
 70
    58
 90
        3
176
     1
 90
        2
176
     1
 90
        0
176
     1
 90
        0
176
     1
 40
0.6
176
     1
 40
30.0
176
     1
 62
     7
420
 16777215
176
     1
 90
        2
176
     1
 90
        2
176
     1
 62
     7
176
     1
 62
   257
176
     1
 90
        1
176
     1
 90
        1
176
     1
 40
179.0
176
     1
 90
        8
176
     1
 62
     7
176
     1
 40
1.0
176
     1
 90
        1
176
     1
 90
        6
176
     1
 90
        2
176
     1
 62
     7
176
     1
 90
        3
176
     1
 90
        0
176
     1
 90
        0
176
     1
290
     0
176
     1
 90
        1
176
     1
 40
0.0
176
     1
 90
        0
176
     1
290
     0
176
     1
290
     1
176
     1
290
     1
176
     1
290
     0
176
     1
290
     0
176
     1
290
     0
176
     1
290
     0
176
     1
290
     0
176
     1
290
     0
176
     1
 90
       50
176
     1
 40
0.0
176
     1
 40
1.0
176
     1
 90
        0
176
     1
 62
    18
420
        0
176
     1
 90
       50
176
     1
 90
        3
176
     1
 62
     5
420
      255
176
     1
290
     0
176
     1
 90
       50
176
     1
 90
       50
176
     1
 90
       50
176
     1
290
     0
176
     1
 90
       50
176
     1
 62
   256
176
     0
 40
1.0
176
     0
 90
        2
176
     1
  1
strokes_ogs.tif
176
     1
290
     0
176
     1
 40
1.0
176
     1
 40
1.0
176
     1
  0
VISUALSTYLE
  5
35
102
{ACAD_REACTORS
330
2A
102
}
330
2A
100
AcDbVisualStyle
  2
Dim
 70
    11
177
     3
291
     1
 70
    58
 90
        2
176
     1
 90
        2
176
     1
 90
        0
176
     1
 90
        0
176
     1
 40
0.6
176
     1
 40
30.0
176
     1
 62
     7
420
 16777215
176
     1
 90
        1
176
     1
 90
        4
176
     1
 62
     7
176
     1
 62
   257
176
     1
 90
        1
176
     1
 90
        1
176
     1
 40
1.0
176
     1
 90
        8
176
     1
 62
     7
176
     1
 40
1.0
176
     1
 90
        1
176
     1
 90
        6
176
     1
 90
        2
176
     1
 62
     7
176
     1
 90
        5
176
     1
 90
        0
176
     1
 90
        0
176
     1
290
     0
176
     1
 90
        1
176
     1
 40
-50.0
176
     1
 90
        0
176
     1
290
     0
176
     1
290
     1
176
     1
290
     1
176
     1
290
     0
176
     1
290
     0
176
     1
290
     0
176
     1
290
     0
176
     1
290
     0
176
     1
290
     0
176
     1
 90
       50
176
     1
 40
0.0
176
     1
 40
1.0
176
     1
 90
        0
176
     1
 62
    18
420
        0
176
     1
 90
       50
176
     1
 90
        3
176
     1
 62
     5
420
      255
176
     1
290
     0
176
     1
 90
       50
176
     1
 90
       50
176
     1
 90
       50
176
     1
290
     0
176
     1
 90
       50
176
     1
 62
   256
176
     0
 40
1.0
176
     0
 90
        2
176
     1
  1
strokes_ogs.tif
176
     1
290
     0
176
     1
 40
1.0
176
     1
 40
1.0
176
     1
  0
VISUALSTYLE
  5
3D
102
{ACAD_REACTORS
330
2A
102
}
330
2A
100
AcDbVisualStyle
  2
EdgeColorOff
 70
    22
177
     3
291
     1
 70
    58
 90
        2
176
     0
 90
        2
176
     0
 90
        0
176
     0
 90
        0
176
     0
 40
0.6
176
     0
 40
30.0
176
     0
 62
     7
420
 16777215
176
     0
 90
        1
176
     0
 90
        4
176
     0
 62
     7
176
     0
 62
   257
176
     0
 90
        1
176
     0
 90
        1
176
     0
 40
1.0
176
     0
 90
        8
176
     2
 62
     7
176
     0
 40
1.0
176
     0
 90
        1
176
     0
 90
        6
176
     0
 90
        2
176
     0
 62
     7
176
     0
 90
        5
176
     0
 90
        0
176
     0
 90
        0
176
     0
290
     0
176
     0
 90
        1
176
     0
 40
0.0
176
     0
 90
        0
176
     0
290
     0
176
     0
290
     1
176
     0
290
     1
176
     0
290
     0
176
     0
290
     0
176
     0
290
     0
176
     0
290
     0
176
     0
290
     0
176
     0
290
     0
176
     0
 90
       50
176
     0
 40
0.0
176
     0
 40
1.0
176
     0
 90
        0
176
     0
 62
    18
420
        0
176
     0
 90
       50
176
     0
 90
        3
176
     0
 62
     5
420
      255
176
     0
290
     0
176
     0
 90
       50
176
     0
 90
       50
176
     0
 90
       50
176
     0
290
     0
176
     0
 90
       50
176
     0
 62
   256
176
     0
 40
1.0
176
     0
 90
        2
176
     0
  1
strokes_ogs.tif
176
     0
290
     0
176
     0
 40
1.0
176
     0
 40
1.0
176
     0
  0
VISUALSTYLE
  5
39
102
{ACAD_REACTORS
330
2A
102
}
330
2A
100
AcDbVisualStyle
  2
Facepattern
 70
    15
177
     3
291
     1
 70
    58
 90
        2
176
     1
 90
        2
176
     1
 90
        0
176
     1
 90
        0
176
     1
 40
0.6
176
     1
 40
30.0
176
     1
 62
     7
420
 16777215
176
     1
 90
        1
176
     1
 90
        4
176
     1
 62
     7
176
     1
 62
   257
176
     1
 90
        1
176
     1
 90
        1
176
     1
 40
1.0
176
     1
 90
        8
176
     1
 62
     7
176
     1
 40
1.0
176
     1
 90
        1
176
     1
 90
        6
176
     1
 90
        2
176
     1
 62
     7
176
     1
 90
        5
176
     1
 90
        0
176
     1
 90
        0
176
     1
290
     0
176
     1
 90
        1
176
     1
 40
0.0
176
     1
 90
        0
176
     1
290
     0
176
     1
290
     1
176
     1
290
     1
176
     1
290
     0
176
     1
290
     0
176
     1
290
     0
176
     1
290
     0
176
     1
290
     0
176
     1
290
     0
176
     1
 90
       50
176
     1
 40
0.0
176
     1
 40
1.0
176
     1
 90
        0
176
     1
 62
    18
420
        0
176
     1
 90
       50
176
     1
 90
        3
176
     1
 62
     5
420
      255
176
     1
290
     0
176
     1
 90
       50
176
     1
 90
       50
176
     1
 90
       50
176
     1
290
     0
176
     1
 90
       50
176
     1
 62
   256
176
     0
 40
1.0
176
     0
 90
        2
176
     1
  1
strokes_ogs.tif
176
     1
290
     0
176
     1
 40
1.0
176
     1
 40
1.0
176
     1
  0
VISUALSTYLE
  5
2B
102
{ACAD_REACTORS
330
2A
102
}
330
2A
100
AcDbVisualStyle
  2
Flat
 70
     0
177
     3
291
     1
 70
    58
 90
        2
176
     1
 90
        1
176
     1
 90
        1
176
     1
 90
        2
176
     1
 40
0.6
176
     1
 40
30.0
176
     1
 62
     7
420
 16777215
176
     1
 90
        0
176
     1
 90
        0
176
     1
 62
     7
176
     1
 62
   257
176
     1
 90
        1
176
     1
 90
        1
176
     1
 40
1.0
176
     1
 90
        8
176
     1
 62
     7
176
     1
 40
1.0
176
     1
 90
        1
176
     1
 90
        6
176
     1
 90
        2
176
     1
 62
     7
176
     1
 90
        5
176
     1
 90
        0
176
     1
 90
        0
176
     1
290
     0
176
     1
 90
       13
176
     1
 40
0.0
176
     1
 90
        0
176
     1
290
     0
176
     1
290
     1
176
     1
290
     1
176
     1
290
     0
176
     1
290
     0
176
     1
290
     0
176
     1
290
     0
176
     1
290
     0
176
     1
290
     0
176
     1
 90
       50
176
     1
 40
0.0
176
     1
 40
1.0
176
     1
 90
        0
176
     1
 62
    18
420
        0
176
     1
 90
       50
176
     1
 90
        3
176
     1
 62
     5
420
      255
176
     1
290
     0
176
     1
 90
       50
176
     1
 90
       50
176
     1
 90
       50
176
     1
290
     0
176
     1
 90
       50
176
     1
 62
   256
176
     0
 40
1.0
176
     0
 90
        2
176
     1
  1
strokes_ogs.tif
176
     1
290
     0
176
     1
 40
1.0
176
     1
 40
1.0
176
     1
  0
VISUALSTYLE
  5
2C
102
{ACAD_REACTORS
330
2A
102
}
330
2A
100
AcDbVisualStyle
  2
FlatWithEdges
 70
     1
177
     3
291
     1
 70
    58
 90
        2
176
     1
 90
        1
176
     1
 90
        1
176
     1
 90
        2
176
     1
 40
0.6
176
     1
 40
30.0
176
     1
 62
     7
420
 16777215
176
     1
 90
        1
176
     1
 90
        0
176
     1
 62
     7
176
     1
 62
   257
176
     1
 90
        1
176
     1
 90
        1
176
     1
 40
1.0
176
     1
 90
        0
176
     1
 62
   257
176
     1
 40
1.0
176
     1
 90
        1
176
     1
 90
        6
176
     1
 90
        2
176
     1
 62
     7
176
     1
 90
        5
176
     1
 90
        0
176
     1
 90
        0
176
     1
290
     0
176
     1
 90
       13
176
     1
 40
0.0
176
     1
 90
        0
176
     1
290
     0
176
     1
290
     1
176
     1
290
     1
176
     1
290
     0
176
     1
290
     0
176
     1
290
     0
176
     1
290
     0
176
     1
290
     0
176
     1
290
     0
176
     1
 90
       50
176
     1
 40
0.0
176
     1
 40
1.0
176
     1
 90
        0
176
     1
 62
    18
420
        0
176
     1
 90
       50
176
     1
 90
        3
176
     1
 62
     5
420
      255
176
     1
290
     0
176
     1
 90
       50
176
     1
 90
       50
176
     1
 90
       50
176
     1
290
     0
176
     1
 90
       50
176
     1
 62
   256
176
     0
 40
1.0
176
     0
 90
        2
176
     1
  1
strokes_ogs.tif
176
     1
290
     0
176
     1
 40
1.0
176
     1
 40
1.0
176
     1
  0
VISUALSTYLE
  5
2D
102
{ACAD_REACTORS
330
2A
102
}
330
2A
100
AcDbVisualStyle
  2
Gouraud
 70
     2
177
     3
291
     1
 70
    58
 90
        2
176
     1
 90
        2
176
     1
 90
        1
176
     1
 90
        2
176
     1
 40
0.6
176
     1
 40
30.0
176
     1
 62
     7
420
 16777215
176
     1
 90
        0
176
     1
 90
        0
176
     1
 62
     7
176
     1
 62
   257
176
     1
 90
        1
176
     1
 90
        1
176
     1
 40
1.0
176
     1
 90
        0
176
     1
 62
     7
176
     1
 40
1.0
176
     1
 90
        1
176
     1
 90
        6
176
     1
 90
        2
176
     1
 62
     7
176
     1
 90
        5
176
     1
 90
        0
176
     1
 90
        0
176
     1
290
     0
176
     1
 90
       13
176
     1
 40
0.0
176
     1
 90
        0
176
     1
290
     0
176
     1
290
     1
176
     1
290
     1
176
     1
290
     0
176
     1
290
     0
176
     1
290
     0
176
     1
290
     0
176
     1
290
     0
176
     1
290
     0
176
     1
 90
       50
176
     1
 40
0.0
176
     1
 40
1.0
176
     1
 90
        0
176
     1
 62
    18
420
        0
176
     1
 90
       50
176
     1
 90
        3
176
     1
 62
     5
420
      255
176
     1
290
     0
176
     1
 90
       50
176
     1
 90
       50
176
     1
 90
       50
176
     1
290
     0
176
     1
 90
       50
176
     1
 62
   256
176
     0
 40
1.0
176
     0
 90
        2
176
     1
  1
strokes_ogs.tif
176
     1
290
     0
176
     1
 40
1.0
176
     1
 40
1.0
176
     1
  0
VISUALSTYLE
  5
2E
102
{ACAD_REACTORS
330
2A
102
}
330
2A
100
AcDbVisualStyle
  2
GouraudWithEdges
 70
     3
177
     3
291
     1
 70
    58
 90
        2
176
     1
 90
        2
176
     1
 90
        1
176
     1
 90
        2
176
     1
 40
0.6
176
     1
 40
30.0
176
     1
 62
     7
420
 16777215
176
     1
 90
        1
176
     1
 90
        0
176
     1
 62
     7
176
     1
 62
   257
176
     1
 90
        1
176
     1
 90
        1
176
     1
 40
1.0
176
     1
 90
        0
176
     1
 62
   257
176
     1
 40
1.0
176
     1
 90
        1
176
     1
 90
        6
176
     1
 90
        2
176
     1
 62
     7
176
     1
 90
        5
176
     1
 90
        0
176
     1
 90
        0
176
     1
290
     0
176
     1
 90
       13
176
     1
 40
0.0
176
     1
 90
        0
176
     1
290
     0
176
     1
290
     1
176
     1
290
     1
176
     1
290
     0
176
     1
290
     0
176
     1
290
     0
176
     1
290
     0
176
     1
290
     0
176
     1
290
     0
176
     1
 90
       50
176
     1
 40
0.0
176
     1
 40
1.0
176
     1
 90
        0
176
     1
 62
    18
420
        0
176
     1
 90
       50
176
     1
 90
        3
176
     1
 62
     5
420
      255
176
     1
290
     0
176
     1
 90
       50
176
     1
 90
       50
176
     1
 90
       50
176
     1
290
     0
176
     1
 90
       50
176
     1
 62
   256
176
     0
 40
1.0
176
     0
 90
        2
176
     1
  1
strokes_ogs.tif
176
     1
290
     0
176
     1
 40
1.0
176
     1
 40
1.0
176
     1
  0
VISUALSTYLE
  5
31
102
{ACAD_REACTORS
330
2A
102
}
330
2A
100
AcDbVisualStyle
  2
Hidden
 70
     6
177
     3
291
     0
 70
    58
 90
        1
176
     1
 90
        2
176
     1
 90
        2
176
     1
 90
        0
176
     1
 40
0.6
176
     1
 40
30.0
176
     1
 62
     7
420
 16777215
176
     1
 90
        2
176
     1
 90
        2
176
     1
 62
     7
176
     1
 62
   257
176
     1
 90
        2
176
     1
 90
        1
176
     1
 40
40.0
176
     1
 90
        0
176
     1
 62
   257
176
     1
 40
1.0
176
     1
 90
        1
176
     1
 90
        6
176
     1
 90
        2
176
     1
 62
     7
176
     1
 90
        3
176
     1
 90
        0
176
     1
 90
        0
176
     1
290
     0
176
     1
 90
        1
176
     1
 40
0.0
176
     1
 90
        0
176
     1
290
     0
176
     1
290
     1
176
     1
290
     1
176
     1
290
     0
176
     1
290
     0
176
     1
290
     0
176
     1
290
     0
176
     1
290
     0
176
     1
290
     0
176
     1
 90
       50
176
     1
 40
0.0
176
     1
 40
1.0
176
     1
 90
        0
176
     1
 62
    18
420
        0
176
     1
 90
       50
176
     1
 90
        3
176
     1
 62
     5
420
      255
176
     1
290
     0
176
     1
 90
       50
176
     1
 90
       50
176
     1
 90
       50
176
     1
290
     0
176
     1
 90
       50
176
     1
 62
   256
176
     0
 40
1.0
176
     0
 90
        2
176
     1
  1
strokes_ogs.tif
176
     1
290
     0
176
     1
 40
1.0
176
     1
 40
1.0
176
     1
  0
VISUALSTYLE
  5
3B
102
{ACAD_REACTORS
330
2A
102
}
330
2A
100
AcDbVisualStyle
  2
JitterOff
 70
    20
177
     3
291
     1
 70
    58
 90
        2
176
     0
 90
        2
176
     0
 90
        0
176
     0
 90
        0
176
     0
 40
0.6
176
     0
 40
30.0
176
     0
 62
     7
420
 16777215
176
     0
 90
        1
176
     0
 90
        4
176
     0
 62
     7
176
     0
 62
   257
176
     0
 90
        1
176
     0
 90
        1
176
     0
 40
1.0
176
     0
 90
       10
176
     2
 62
     7
176
     0
 40
1.0
176
     0
 90
        1
176
     0
 90
        6
176
     0
 90
        2
176
     0
 62
     7
176
     0
 90
        5
176
     0
 90
        0
176
     0
 90
        0
176
     0
290
     0
176
     0
 90
        1
176
     0
 40
0.0
176
     0
 90
        0
176
     0
290
     0
176
     0
290
     1
176
     0
290
     1
176
     0
290
     0
176
     0
290
     0
176
     0
290
     0
176
     0
290
     0
176
     0
290
     0
176
     0
290
     0
176
     0
 90
       50
176
     0
 40
0.0
176
     0
 40
1.0
176
     0
 90
        0
176
     0
 62
    18
420
        0
176
     0
 90
       50
176
     0
 90
        3
176
     0
 62
     5
420
      255
176
     0
290
     0
176
     0
 90
       50
176
     0
 90
       50
176
     0
 90
       50
176
     0
290
     0
176
     0
 90
       50
176
     0
 62
   256
176
     0
 40
1.0
176
     0
 90
        2
176
     0
  1
strokes_ogs.tif
176
     0
290
     0
176
     0
 40
1.0
176
     0
 40
1.0
176
     0
  0
VISUALSTYLE
  5
38
102
{ACAD_REACTORS
330
2A
102
}
330
2A
100
AcDbVisualStyle
  2
Linepattern
 70
    14
177
     3
291
     1
 70
    58
 90
        2
176
     1
 90
        2
176
     1
 90
        0
176
     1
 90
        0
176
     1
 40
0.6
176
     1
 40
30.0
176
     1
 62
     7
420
 16777215
176
     1
 90
        1
176
     1
 90
        4
176
     1
 62
     7
176
     1
 62
   257
176
     1
 90
        7
176
     1
 90
        7
176
     1
 40
1.0
176
     1
 90
        8
176
     1
 62
     7
176
     1
 40
1.0
176
     1
 90
        1
176
     1
 90
        6
176
     1
 90
        2
176
     1
 62
     7
176
     1
 90
        5
176
     1
 90
        0
176
     1
 90
        0
176
     1
290
     0
176
     1
 90
        1
176
     1
 40
0.0
176
     1
 90
        0
176
     1
290
     0
176
     1
290
     1
176
     1
290
     1
176
     1
290
     0
176
     1
290
     0
176
     1
290
     0
176
     1
290
     0
176
     1
290
     0
176
     1
290
     0
176
     1
 90
       50
176
     1
 40
0.0
176
     1
 40
1.0
176
     1
 90
        0
176
     1
 62
    18
420
        0
176
     1
 90
       50
176
     1
 90
        3
176
     1
 62
     5
420
      255
176
     1
290
     0
176
     1
 90
       50
176
     1
 90
       50
176
     1
 90
       50
176
     1
290
     0
176
     1
 90
       50
176
     1
 62
   256
176
     0
 40
1.0
176
     0
 90
        2
176
     1
  1
strokes_ogs.tif
176
     1
290
     0
176
     1
 40
1.0
176
     1
 40
1.0
176
     1
  0
VISUALSTYLE
  5
3C
102
{ACAD_REACTORS
330
2A
102
}
330
2A
100
AcDbVisualStyle
  2
OverhangOff
 70
    21
177
     3
291
     1
 70
    58
 90
        2
176
     0
 90
        2
176
     0
 90
        0
176
     0
 90
        0
176
     0
 40
0.6
176
     0
 40
30.0
176
     0
 62
     7
420
 16777215
176
     0
 90
        1
176
     0
 90
        4
176
     0
 62
     7
176
     0
 62
   257
176
     0
 90
        1
176
     0
 90
        1
176
     0
 40
1.0
176
     0
 90
        9
176
     2
 62
     7
176
     0
 40
1.0
176
     0
 90
        1
176
     0
 90
        6
176
     0
 90
        2
176
     0
 62
     7
176
     0
 90
        5
176
     0
 90
        0
176
     0
 90
        0
176
     0
290
     0
176
     0
 90
        1
176
     0
 40
0.0
176
     0
 90
        0
176
     0
290
     0
176
     0
290
     1
176
     0
290
     1
176
     0
290
     0
176
     0
290
     0
176
     0
290
     0
176
     0
290
     0
176
     0
290
     0
176
     0
290
     0
176
     0
 90
       50
176
     0
 40
0.0
176
     0
 40
1.0
176
     0
 90
        0
176
     0
 62
    18
420
        0
176
     0
 90
       50
176
     0
 90
        3
176
     0
 62
     5
420
      255
176
     0
290
     0
176
     0
 90
       50
176
     0
 90
       50
176
     0
 90
       50
176
     0
290
     0
176
     0
 90
       50
176
     0
 62
   256
176
     0
 40
1.0
176
     0
 90
        2
176
     0
  1
strokes_ogs.tif
176
     0
290
     0
176
     0
 40
1.0
176
     0
 40
1.0
176
     0
  0
VISUALSTYLE
  5
33
102
{ACAD_REACTORS
330
2A
102
}
330
2A
100
AcDbVisualStyle
  2
Realistic
 70
     8
177
     3
291
     0
 70
    58
 90
        2
176
     1
 90
        3
176
     1
 90
        0
176
     1
 90
        2
176
     1
 40
0.6
176
     1
 40
30.0
176
     1
 62
     7
420
 16777215
176
     1
 90
        0
176
     1
 90
        0
176
     1
 62
     7
176
     1
 62
   257
176
     1
 90
        1
176
     1
 90
        1
176
     1
 40
1.0
176
     1
 90
        8
176
     1
 62
   257
176
     1
 40
1.0
176
     1
 90
        1
176
     1
 90
        6
176
     1
 90
        2
176
     1
 62
     7
176
     1
 90
        3
176
     1
 90
        0
176
     1
 90
        0
176
     1
290
     0
176
     1
 90
       13
176
     1
 40
0.0
176
     1
 90
        0
176
     1
290
     0
176
     1
290
     1
176
     1
290
     1
176
     1
290
     0
176
     1
290
     0
176
     1
290
     0
176
     1
290
     0
176
     1
290
     0
176
     1
290
     0
176
     1
 90
       50
176
     1
 40
0.0
176
     1
 40
1.0
176
     1
 90
        0
176
     1
 62
    18
420
        0
176
     1
 90
       50
176
     1
 90
        3
176
     1
 62
     5
420
      255
176
     1
290
     0
176
     1
 90
       50
176
     1
 90
       50
176
     1
 90
       50
176
     1
290
     0
176
     1
 90
       50
176
     1
 62
   256
176
     0
 40
1.0
176
     0
 90
        2
176
     1
  1
strokes_ogs.tif
176
     1
290
     0
176
     1
 40
1.0
176
     1
 40
1.0
176
     1
  0
VISUALSTYLE
  5
42
102
{ACAD_REACTORS
330
2A
102
}
330
2A
100
AcDbVisualStyle
  2
Shaded
 70
    27
177
     3
291
     0
 70
    58
 90
        2
176
     1
 90
        2
176
     1
 90
        1
176
     1
 90
        2
176
     1
 40
0.6
176
     1
 40
30.0
176
     1
 62
     7
420
 16777215
176
     1
 90
        0
176
     1
 90
        4
176
     1
 62
     7
176
     1
 62
   257
176
     1
 90
        1
176
     1
 90
        1
176
     1
 40
1.0
176
     1
 90
        8
176
     1
 62
   257
176
     1
 40
1.0
176
     1
 90
        1
176
     1
 90
        6
176
     1
 90
        2
176
     1
 62
     8
420
  7895160
176
     1
 90
        3
176
     1
 90
        0
176
     1
 90
        0
176
     1
290
     0
176
     1
 90
        5
176
     1
 40
0.0
176
     1
 90
        0
176
     1
290
     0
176
     1
290
     1
176
     1
290
     1
176
     1
290
     0
176
     1
290
     0
176
     1
290
     0
176
     1
290
     0
176
     1
290
     0
176
     1
290
     0
176
     1
 90
       50
176
     1
 40
0.0
176
     1
 40
1.0
176
     1
 90
        0
176
     1
 62
    18
420
        0
176
     1
 90
       50
176
     1
 90
        3
176
     1
 62
     5
420
      255
176
     1
290
     0
176
     1
 90
       50
176
     1
 90
       50
176
     1
 90
       50
176
     1
290
     0
176
     1
 90
       50
176
     1
 62
   256
176
     0
 40
1.0
176
     0
 90
        2
176
     1
  1
strokes_ogs.tif
176
     1
290
     0
176
     1
 40
1.0
176
     1
 40
1.0
176
     1
  0
VISUALSTYLE
  5
41
102
{ACAD_REACTORS
330
2A
102
}
330
2A
100
AcDbVisualStyle
  2
Shaded with edges
 70
    26
177
     3
291
     0
 70
    58
 90
        2
176
     1
 90
        2
176
     1
 90
        1
176
     1
 90
        2
176
     1
 40
0.6
176
     1
 40
30.0
176
     1
 62
     7
420
 16777215
176
     1
 90
        1
176
     1
 90
       10
176
     1
 62
     7
176
     1
 62
   257
176
     1
 90
        2
176
     1
 90
        1
176
     1
 40
1.0
176
     1
 90
        8
176
     1
 62
   257
176
     1
 40
1.0
176
     1
 90
        1
176
     1
 90
        6
176
     1
 90
        2
176
     1
 62
     7
176
     1
 90
        3
176
     1
 90
        0
176
     1
 90
        0
176
     1
290
     0
176
     1
 90
        5
176
     1
 40
0.0
176
     1
 90
        0
176
     1
290
     0
176
     1
290
     1
176
     1
290
     1
176
     1
290
     0
176
     1
290
     0
176
     1
290
     0
176
     1
290
     0
176
     1
290
     0
176
     1
290
     0
176
     1
 90
       50
176
     1
 40
0.0
176
     1
 40
1.0
176
     1
 90
        0
176
     1
 62
    18
420
        0
176
     1
 90
       50
176
     1
 90
        3
176
     1
 62
     5
420
      255
176
     1
290
     0
176
     1
 90
       50
176
     1
 90
       50
176
     1
 90
       50
176
     1
290
     0
176
     1
 90
       50
176
     1
 62
   256
176
     0
 40
1.0
176
     0
 90
        2
176
     1
  1
strokes_ogs.tif
176
     1
290
     0
176
     1
 40
1.0
176
     1
 40
1.0
176
     1
  0
VISUALSTYLE
  5
3E
102
{ACAD_REACTORS
330
2A
102
}
330
2A
100
AcDbVisualStyle
  2
Shades of Gray
 70
    23
177
     3
291
     0
 70
    58
 90
        2
176
     1
 90
        2
176
     1
 90
        3
176
     1
 90
        0
176
     1
 40
0.6
176
     1
 40
30.0
176
     1
 62
     7
420
 16777215
176
     1
 90
        2
176
     1
 90
        2
176
     1
 62
     7
176
     1
 62
     7
176
     1
 90
        1
176
     1
 90
        1
176
     1
 40
40.0
176
     1
 90
        8
176
     1
 62
     7
176
     1
 40
1.0
176
     1
 90
        1
176
     1
 90
        6
176
     1
 90
        2
176
     1
 62
     7
176
     1
 90
        3
176
     1
 90
        0
176
     1
 90
        0
176
     1
290
     0
176
     1
 90
        1
176
     1
 40
0.0
176
     1
 90
        0
176
     1
290
     0
176
     1
290
     1
176
     1
290
     1
176
     1
290
     0
176
     1
290
     0
176
     1
290
     0
176
     1
290
     0
176
     1
290
     0
176
     1
290
     0
176
     1
 90
       50
176
     1
 40
0.0
176
     1
 40
1.0
176
     1
 90
        0
176
     1
 62
    18
420
        0
176
     1
 90
       50
176
     1
 90
        3
176
     1
 62
     5
420
      255
176
     1
290
     0
176
     1
 90
       50
176
     1
 90
       50
176
     1
 90
       50
176
     1
290
     0
176
     1
 90
       50
176
     1
 62
   256
176
     0
 40
1.0
176
     0
 90
        2
176
     1
  1
strokes_ogs.tif
176
     1
290
     0
176
     1
 40
1.0
176
     1
 40
1.0
176
     1
  0
VISUALSTYLE
  5
3F
102
{ACAD_REACTORS
330
2A
102
}
330
2A
100
AcDbVisualStyle
  2
Sketchy
 70
    24
177
     3
291
     0
 70
    58
 90
        1
176
     1
 90
        2
176
     1
 90
        2
176
     1
 90
        0
176
     1
 40
0.6
176
     1
 40
30.0
176
     1
 62
     7
420
 16777215
176
     1
 90
        2
176
     1
 90
        2
176
     1
 62
     7
176
     1
 62
     7
176
     1
 90
        1
176
     1
 90
        1
176
     1
 40
40.0
176
     1
 90
       11
176
     1
 62
     7
176
     1
 40
1.0
176
     1
 90
        1
176
     1
 90
        6
176
     1
 90
        2
176
     1
 62
     7
176
     1
 90
        6
176
     1
 90
        0
176
     1
 90
        0
176
     1
290
     0
176
     1
 90
        1
176
     1
 40
0.0
176
     1
 90
        0
176
     1
290
     0
176
     1
290
     1
176
     1
290
     1
176
     1
290
     0
176
     1
290
     0
176
     1
290
     0
176
     1
290
     0
176
     1
290
     0
176
     1
290
     0
176
     1
 90
       50
176
     1
 40
0.0
176
     1
 40
1.0
176
     1
 90
        0
176
     1
 62
    18
420
        0
176
     1
 90
       50
176
     1
 90
        3
176
     1
 62
     5
420
      255
176
     1
290
     0
176
     1
 90
       50
176
     1
 90
       50
176
     1
 90
       50
176
     1
290
     0
176
     1
 90
       50
176
     1
 62
   256
176
     0
 40
1.0
176
     0
 90
        2
176
     1
  1
strokes_ogs.tif
176
     1
290
     0
176
     1
 40
1.0
176
     1
 40
1.0
176
     1
  0
VISUALSTYLE
  5
37
102
{ACAD_REACTORS
330
2A
102
}
330
2A
100
AcDbVisualStyle
  2
Thicken
 70
    13
177
     3
291
     1
 70
    58
 90
        2
176
     1
 90
        2
176
     1
 90
        0
176
     1
 90
        0
176
     1
 40
0.6
176
     1
 40
30.0
176
     1
 62
     7
420
 16777215
176
     1
 90
        1
176
     1
 90
        4
176
     1
 62
     7
176
     1
 62
   257
176
     1
 90
        1
176
     1
 90
        1
176
     1
 40
1.0
176
     1
 90
       12
176
     1
 62
     7
176
     1
 40
1.0
176
     1
 90
        1
176
     1
 90
        6
176
     1
 90
        2
176
     1
 62
     7
176
     1
 90
        5
176
     1
 90
        0
176
     1
 90
        0
176
     1
290
     0
176
     1
 90
        1
176
     1
 40
0.0
176
     1
 90
        0
176
     1
290
     0
176
     1
290
     1
176
     1
290
     1
176
     1
290
     0
176
     1
290
     0
176
     1
290
     0
176
     1
290
     0
176
     1
290
     0
176
     1
290
     0
176
     1
 90
       50
176
     1
 40
0.0
176
     1
 40
1.0
176
     1
 90
        0
176
     1
 62
    18
420
        0
176
     1
 90
       50
176
     1
 90
        3
176
     1
 62
     5
420
      255
176
     1
290
     0
176
     1
 90
       50
176
     1
 90
       50
176
     1
 90
       50
176
     1
290
     0
176
     1
 90
       50
176
     1
 62
   256
176
     0
 40
1.0
176
     0
 90
        2
176
     1
  1
strokes_ogs.tif
176
     1
290
     0
176
     1
 40
1.0
176
     1
 40
1.0
176
     1
  0
VISUALSTYLE
  5
30
102
{ACAD_REACTORS
330
2A
102
}
330
2A
100
AcDbVisualStyle
  2
Wireframe
 70
     5
177
     3
291
     0
 70
    58
 90
        0
176
     1
 90
        2
176
     1
 90
        0
176
     1
 90
        0
176
     1
 40
0.6
176
     1
 40
30.0
176
     1
 62
     7
420
 16777215
176
     1
 90
        1
176
     1
 90
        4
176
     1
 62
     7
176
     1
 62
   257
176
     1
 90
        1
176
     1
 90
        1
176
     1
 40
1.0
176
     1
 90
        0
176
     1
 62
   257
176
     1
 40
1.0
176
     1
 90
        1
176
     1
 90
        6
176
     1
 90
        2
176
     1
 62
     7
176
     1
 90
        3
176
     1
 90
        0
176
     1
 90
        0
176
     1
290
     0
176
     1
 90
        1
176
     1
 40
0.0
176
     1
 90
        0
176
     1
290
     0
176
     1
290
     1
176
     1
290
     1
176
     1
290
     0
176
     1
290
     0
176
     1
290
     0
176
     1
290
     0
176
     1
290
     0
176
     1
290
     0
176
     1
 90
       50
176
     1
 40
0.0
176
     1
 40
1.0
176
     1
 90
        0
176
     1
 62
    18
420
        0
176
     1
 90
       50
176
     1
 90
        3
176
     1
 62
     5
420
      255
176
     1
290
     0
176
     1
 90
       50
176
     1
 90
       50
176
     1
 90
       50
176
     1
290
     0
176
     1
 90
       50
176
     1
 62
   256
176
     0
 40
1.0
176
     0
 90
        2
176
     1
  1
strokes_ogs.tif
176
     1
290
     0
176
     1
 40
1.0
176
     1
 40
1.0
176
     1
  0
VISUALSTYLE
  5
40
102
{ACAD_REACTORS
330
2A
102
}
330
2A
100
AcDbVisualStyle
  2
X-Ray
 70
    25
177
     3
291
     0
 70
    58
 90
        2
176
     1
 90
        2
176
     1
 90
        1
176
     1
 90
        1
176
     1
 40
0.5
176
     1
 40
30.0
176
     1
 62
     7
420
 16777215
176
     1
 90
        1
176
     1
 90
        0
176
     1
 62
     7
176
     1
 62
   257
176
     1
 90
        1
176
     1
 90
        1
176
     1
 40
1.0
176
     1
 90
        8
176
     1
 62
     7
176
     1
 40
1.0
176
     1
 90
        1
176
     1
 90
        6
176
     1
 90
        2
176
     1
 62
     7
176
     1
 90
        3
176
     1
 90
        0
176
     1
 90
        0
176
     1
290
     0
176
     1
 90
       13
176
     1
 40
0.0
176
     1
 90
        0
176
     1
290
     0
176
     1
290
     1
176
     1
290
     1
176
     1
290
     0
176
     1
290
     0
176
     1
290
     0
176
     1
290
     0
176
     1
290
     0
176
     1
290
     0
176
     1
 90
       50
176
     1
 40
0.0
176
     1
 40
1.0
176
     1
 90
        0
176
     1
 62
    18
420
        0
176
     1
 90
       50
176
     1
 90
        3
176
     1
 62
     5
420
      255
176
     1
290
     0
176
     1
 90
       50
176
     1
 90
       50
176
     1
 90
       50
176
     1
290
     0
176
     1
 90
       50
176
     1
 62
   256
176
     0
 40
1.0
176
     0
 90
        2
176
     1
  1
strokes_ogs.tif
176
     1
290
     0
176
     1
 40
1.0
176
     1
 40
1.0
176
     1
  0
DICTIONARYVAR
  5
77
102
{ACAD_REACTORS
330
76
102
}
330
76
100
DictionaryVariables
280
     0
  1
1:1
  0
DICTIONARYVAR
  5
7C
102
{ACAD_REACTORS
330
76
102
}
330
76
100
DictionaryVariables
280
     0
  1
Standard
  0
DICTIONARYVAR
  5
7B
102
{ACAD_REACTORS
330
76
102
}
330
76
100
DictionaryVariables
280
     0
  1
Standard
  0
DICTIONARY
  5
78
330
5A
100
AcDbDictionary
280
     1
281
     1
  3
ACAD_ROUNDTRIP_2008_TABLESTYLE_CELLSTYLEMAP
360
79
  0
CELLSTYLEMAP
  5
79
102
{ACAD_REACTORS
330
78
102
}
330
78
100
AcDbCellStyleMap
 90
        3
300
CELLSTYLE
  1
TABLEFORMAT_BEGIN
 90
        5
170
     1
 91
        0
 92
    32768
 62
   257
 93
        1
300
CONTENTFORMAT
  1
CONTENTFORMAT_BEGIN
 90
        0
 91
        0
 92
        4
 93
        0
300

 40
0.0
140
1.0
 94
        5
 62
     0
340
11
144
0.25
309
CONTENTFORMAT_END
171
     1
301
MARGIN
  1
CELLMARGIN_BEGIN
 40
0.06
 40
0.06
 40
0.06
 40
0.06
 40
0.06
 40
0.06
309
CELLMARGIN_END
 94
        6
 95
        1
302
GRIDFORMAT
  1
GRIDFORMAT_BEGIN
 90
        0
 91
        1
 62
     0
 92
       -2
340
14
 93
        0
 40
0.045
309
GRIDFORMAT_END
 95
        2
302
GRIDFORMAT
  1
GRIDFORMAT_BEGIN
 90
        0
 91
        1
 62
     0
 92
       -2
340
14
 93
        0
 40
0.045
309
GRIDFORMAT_END
 95
        4
302
GRIDFORMAT
  1
GRIDFORMAT_BEGIN
 90
        0
 91
        1
 62
     0
 92
       -2
340
14
 93
        0
 40
0.045
309
GRIDFORMAT_END
 95
        8
302
GRIDFORMAT
  1
GRIDFORMAT_BEGIN
 90
        0
 91
        1
 62
     0
 92
       -2
340
14
 93
        0
 40
0.045
309
GRIDFORMAT_END
 95
       16
302
GRIDFORMAT
  1
GRIDFORMAT_BEGIN
 90
        0
 91
        1
 62
     0
 92
       -2
340
14
 93
        0
 40
0.045
309
GRIDFORMAT_END
 95
       32
302
GRIDFORMAT
  1
GRIDFORMAT_BEGIN
 90
        0
 91
        1
 62
     0
 92
       -2
340
14
 93
        0
 40
0.045
309
GRIDFORMAT_END
309
TABLEFORMAT_END
  1
CELLSTYLE_BEGIN
 90
        1
 91
        1
300
_TITLE
309
CELLSTYLE_END
300
CELLSTYLE
  1
TABLEFORMAT_BEGIN
 90
        5
170
     1
 91
        0
 92
        0
 62
   257
 93
        1
300
CONTENTFORMAT
  1
CONTENTFORMAT_BEGIN
 90
        0
 91
        0
 92
        4
 93
        0
300

 40
0.0
140
1.0
 94
        5
 62
     0
340
11
144
0.18
309
CONTENTFORMAT_END
171
     1
301
MARGIN
  1
CELLMARGIN_BEGIN
 40
0.06
 40
0.06
 40
0.06
 40
0.06
 40
0.06
 40
0.06
309
CELLMARGIN_END
 94
        6
 95
        1
302
GRIDFORMAT
  1
GRIDFORMAT_BEGIN
 90
        0
 91
        1
 62
     0
 92
       -2
340
14
 93
        0
 40
0.045
309
GRIDFORMAT_END
 95
        2
302
GRIDFORMAT
  1
GRIDFORMAT_BEGIN
 90
        0
 91
        1
 62
     0
 92
       -2
340
14
 93
        0
 40
0.045
309
GRIDFORMAT_END
 95
        4
302
GRIDFORMAT
  1
GRIDFORMAT_BEGIN
 90
        0
 91
        1
 62
     0
 92
       -2
340
14
 93
        0
 40
0.045
309
GRIDFORMAT_END
 95
        8
302
GRIDFORMAT
  1
GRIDFORMAT_BEGIN
 90
        0
 91
        1
 62
     0
 92
       -2
340
14
 93
        0
 40
0.045
309
GRIDFORMAT_END
 95
       16
302
GRIDFORMAT
  1
GRIDFORMAT_BEGIN
 90
        0
 91
        1
 62
     0
 92
       -2
340
14
 93
        0
 40
0.045
309
GRIDFORMAT_END
 95
       32
302
GRIDFORMAT
  1
GRIDFORMAT_BEGIN
 90
        0
 91
        1
 62
     0
 92
       -2
340
14
 93
        0
 40
0.045
309
GRIDFORMAT_END
309
TABLEFORMAT_END
  1
CELLSTYLE_BEGIN
 90
        2
 91
        1
300
_HEADER
309
CELLSTYLE_END
300
CELLSTYLE
  1
TABLEFORMAT_BEGIN
 90
        5
170
     1
 91
        0
 92
        0
 62
   257
 93
        1
300
CONTENTFORMAT
  1
CONTENTFORMAT_BEGIN
 90
        0
 91
        0
 92
        4
 93
        0
300

 40
0.0
140
1.0
 94
        2
 62
     0
340
11
144
0.18
309
CONTENTFORMAT_END
171
     1
301
MARGIN
  1
CELLMARGIN_BEGIN
 40
0.06
 40
0.06
 40
0.06
 40
0.06
 40
0.06
 40
0.06
309
CELLMARGIN_END
 94
        6
 95
        1
302
GRIDFORMAT
  1
GRIDFORMAT_BEGIN
 90
        0
 91
        1
 62
     0
 92
       -2
340
14
 93
        0
 40
0.045
309
GRIDFORMAT_END
 95
        2
302
GRIDFORMAT
  1
GRIDFORMAT_BEGIN
 90
        0
 91
        1
 62
     0
 92
       -2
340
14
 93
        0
 40
0.045
309
GRIDFORMAT_END
 95
        4
302
GRIDFORMAT
  1
GRIDFORMAT_BEGIN
 90
        0
 91
        1
 62
     0
 92
       -2
340
14
 93
        0
 40
0.045
309
GRIDFORMAT_END
 95
        8
302
GRIDFORMAT
  1
GRIDFORMAT_BEGIN
 90
        0
 91
        1
 62
     0
 92
       -2
340
14
 93
        0
 40
0.045
309
GRIDFORMAT_END
 95
       16
302
GRIDFORMAT
  1
GRIDFORMAT_BEGIN
 90
        0
 91
        1
 62
     0
 92
       -2
340
14
 93
        0
 40
0.045
309
GRIDFORMAT_END
 95
       32
302
GRIDFORMAT
  1
GRIDFORMAT_BEGIN
 90
        0
 91
        1
 62
     0
 92
       -2
340
14
 93
        0
 40
0.045
309
GRIDFORMAT_END
309
TABLEFORMAT_END
  1
CELLSTYLE_BEGIN
 90
        3
 91
        2
300
_DATA
309
CELLSTYLE_END
  0
ENDSEC
  0
EOF
