  0
SECTION
  2
HEADER
  9
$ACADVER
  1
AC1032
  9
$ACADMAINTVER
 90
       55
  9
$DWGCODEPAGE
  3
ANSI_1252
  9
$LASTSAVEDBY
  1
LYI-002
  9
$REQUIREDVERSIONS
160
                 0
  9
$INSBASE
 10
0.0
 20
0.0
 30
0.0
  9
$EXTMIN
 10
-1200.0881
 20
-590.0647
 30
0.0
  9
$EXTMAX
 10
1199.9881
 20
590.0115
 30
0.0
  9
$LIMMIN
 10
0.0
 20
0.0
  9
$LIMMAX
 10
12.0
 20
9.0
  9
$ORTHOMODE
 70
     0
  9
$REGENMODE
 70
     1
  9
$FILLMODE
 70
     1
  9
$QTEXTMODE
 70
     0
  9
$MIRRTEXT
 70
     1
  9
$LTSCALE
 40
1.0
  9
$ATTMODE
 70
     1
  9
$TEXTSIZE
 40
0.2
  9
$TRACEWID
 40
0.05
  9
$TEXTSTYLE
  7
Standard
  9
$CLAYER
  8
0
  9
$CELTYPE
  6
ByLayer
  9
$CECOLOR
 62
   256
  9
$CELTSCALE
 40
1.0
  9
$DISPSILH
 70
     0
  9
$DIMSCALE
 40
1.0
  9
$DIMASZ
 40
0.18
  9
$DIMEXO
 40
0.0625
  9
$DIMDLI
 40
0.38
  9
$DIMRND
 40
0.0
  9
$DIMDLE
 40
0.0
  9
$DIMEXE
 40
0.18
  9
$DIMTP
 40
0.0
  9
$DIMTM
 40
0.0
  9
$DIMTXT
 40
0.18
  9
$DIMCEN
 40
0.09
  9
$DIMTSZ
 40
0.0
  9
$DIMTOL
 70
     0
  9
$DIMLIM
 70
     0
  9
$DIMTIH
 70
     1
  9
$DIMTOH
 70
     1
  9
$DIMSE1
 70
     0
  9
$DIMSE2
 70
     0
  9
$DIMTAD
 70
     0
  9
$DIMZIN
 70
     0
  9
$DIMBLK
  1

  9
$DIMASO
 70
     1
  9
$DIMSHO
 70
     1
  9
$DIMPOST
  1

  9
$DIMAPOST
  1

  9
$DIMALT
 70
     0
  9
$DIMALTD
 70
     2
  9
$DIMALTF
 40
25.4
  9
$DIMLFAC
 40
1.0
  9
$DIMTOFL
 70
     0
  9
$DIMTVP
 40
0.0
  9
$DIMTIX
 70
     0
  9
$DIMSOXD
 70
     0
  9
$DIMSAH
 70
     0
  9
$DIMBLK1
  1

  9
$DIMBLK2
  1

  9
$DIMSTYLE
  2
Standard
  9
$DIMCLRD
 70
     0
  9
$DIMCLRE
 70
     0
  9
$DIMCLRT
 70
     0
  9
$DIMTFAC
 40
1.0
  9
$DIMGAP
 40
0.09
  9
$DIMJUST
 70
     0
  9
$DIMSD1
 70
     0
  9
$DIMSD2
 70
     0
  9
$DIMTOLJ
 70
     1
  9
$DIMTZIN
 70
     0
  9
$DIMALTZ
 70
     0
  9
$DIMALTTZ
 70
     0
  9
$DIMUPT
 70
     0
  9
$DIMDEC
 70
     4
  9
$DIMTDEC
 70
     4
  9
$DIMALTU
 70
     2
  9
$DIMALTTD
 70
     2
  9
$DIMTXSTY
  7
Standard
  9
$DIMAUNIT
 70
     0
  9
$DIMADEC
 70
     0
  9
$DIMALTRND
 40
0.0
  9
$DIMAZIN
 70
     0
  9
$DIMDSEP
 70
    46
  9
$DIMATFIT
 70
     3
  9
$DIMFRAC
 70
     0
  9
$DIMLDRBLK
  1

  9
$DIMLUNIT
 70
     2
  9
$DIMLWD
 70
    -2
  9
$DIMLWE
 70
    -2
  9
$DIMTMOVE
 70
     0
  9
$DIMFXL
 40
1.0
  9
$DIMFXLON
 70
     0
  9
$DIMJOGANG
 40
0.7853981633974483
  9
$DIMTFILL
 70
     0
  9
$DIMTFILLCLR
 70
     0
  9
$DIMARCSYM
 70
     0
  9
$DIMLTYPE
  6

  9
$DIMLTEX1
  6

  9
$DIMLTEX2
  6

  9
$DIMTXTDIRECTION
 70
     0
  9
$LUNITS
 70
     2
  9
$LUPREC
 70
     4
  9
$SKETCHINC
 40
0.1
  9
$FILLETRAD
 40
0.0
  9
$AUNITS
 70
     0
  9
$AUPREC
 70
     0
  9
$MENU
  1
.
  9
$ELEVATION
 40
0.0
  9
$PELEVATION
 40
0.0
  9
$THICKNESS
 40
0.0
  9
$LIMCHECK
 70
     0
  9
$CHAMFERA
 40
0.0
  9
$CHAMFERB
 40
0.0
  9
$CHAMFERC
 40
0.0
  9
$CHAMFERD
 40
0.0
  9
$SKPOLY
 70
     0
  9
$TDCREATE
 40
2460652.597920995
  9
$TDUCREATE
 40
2460652.368754329
  9
$TDUPDATE
 40
2460652.597921285
  9
$TDUUPDATE
 40
2460652.368754618
  9
$TDINDWG
 40
0.0000000116
  9
$TDUSRTIMER
 40
0.0000000116
  9
$USRTIMER
 70
     1
  9
$ANGBASE
 50
0.0
  9
$ANGDIR
 70
     0
  9
$PDMODE
 70
     0
  9
$PDSIZE
 40
0.0
  9
$PLINEWID
 40
0.0
  9
$SPLFRAME
 70
     0
  9
$SPLINETYPE
 70
     6
  9
$SPLINESEGS
 70
     8
  9
$HANDSEED
  5
B7
  9
$SURFTAB1
 70
     6
  9
$SURFTAB2
 70
     6
  9
$SURFTYPE
 70
     6
  9
$SURFU
 70
     6
  9
$SURFV
 70
     6
  9
$UCSBASE
  2

  9
$UCSNAME
  2

  9
$UCSORG
 10
0.0
 20
0.0
 30
0.0
  9
$UCSXDIR
 10
1.0
 20
0.0
 30
0.0
  9
$UCSYDIR
 10
0.0
 20
1.0
 30
0.0
  9
$UCSORTHOREF
  2

  9
$UCSORTHOVIEW
 70
     0
  9
$UCSORGTOP
 10
0.0
 20
0.0
 30
0.0
  9
$UCSORGBOTTOM
 10
0.0
 20
0.0
 30
0.0
  9
$UCSORGLEFT
 10
0.0
 20
0.0
 30
0.0
  9
$UCSORGRIGHT
 10
0.0
 20
0.0
 30
0.0
  9
$UCSORGFRONT
 10
0.0
 20
0.0
 30
0.0
  9
$UCSORGBACK
 10
0.0
 20
0.0
 30
0.0
  9
$PUCSBASE
  2

  9
$PUCSNAME
  2

  9
$PUCSORG
 10
0.0
 20
0.0
 30
0.0
  9
$PUCSXDIR
 10
1.0
 20
0.0
 30
0.0
  9
$PUCSYDIR
 10
0.0
 20
1.0
 30
0.0
  9
$PUCSORTHOREF
  2

  9
$PUCSORTHOVIEW
 70
     0
  9
$PUCSORGTOP
 10
0.0
 20
0.0
 30
0.0
  9
$PUCSORGBOTTOM
 10
0.0
 20
0.0
 30
0.0
  9
$PUCSORGLEFT
 10
0.0
 20
0.0
 30
0.0
  9
$PUCSORGRIGHT
 10
0.0
 20
0.0
 30
0.0
  9
$PUCSORGFRONT
 10
0.0
 20
0.0
 30
0.0
  9
$PUCSORGBACK
 10
0.0
 20
0.0
 30
0.0
  9
$USERI1
 70
     0
  9
$USERI2
 70
     0
  9
$USERI3
 70
     0
  9
$USERI4
 70
     0
  9
$USERI5
 70
     0
  9
$USERR1
 40
0.0
  9
$USERR2
 40
0.0
  9
$USERR3
 40
0.0
  9
$USERR4
 40
0.0
  9
$USERR5
 40
0.0
  9
$WORLDVIEW
 70
     1
  9
$SHADEDGE
 70
     3
  9
$SHADEDIF
 70
    70
  9
$TILEMODE
 70
     1
  9
$MAXACTVP
 70
    64
  9
$PINSBASE
 10
0.0
 20
0.0
 30
0.0
  9
$PLIMCHECK
 70
     0
  9
$PEXTMIN
 10
1.000000000000000E+20
 20
1.000000000000000E+20
 30
1.000000000000000E+20
  9
$PEXTMAX
 10
-1.000000000000000E+20
 20
-1.000000000000000E+20
 30
-1.000000000000000E+20
  9
$PLIMMIN
 10
0.0
 20
0.0
  9
$PLIMMAX
 10
12.0
 20
9.0
  9
$UNITMODE
 70
     0
  9
$VISRETAIN
 70
     1
  9
$PLINEGEN
 70
     0
  9
$PSLTSCALE
 70
     1
  9
$TREEDEPTH
 70
  3020
  9
$CMLSTYLE
  2
Standard
  9
$CMLJUST
 70
     0
  9
$CMLSCALE
 40
1.0
  9
$PROXYGRAPHICS
 70
     1
  9
$MEASUREMENT
 70
     0
  9
$CELWEIGHT
370
    -1
  9
$ENDCAPS
280
     0
  9
$JOINSTYLE
280
     0
  9
$LWDISPLAY
290
     0
  9
$INSUNITS
 70
     4
  9
$HYPERLINKBASE
  1

  9
$STYLESHEET
  1

  9
$XEDIT
290
     1
  9
$CEPSNTYPE
380
     0
  9
$PSTYLEMODE
290
     1
  9
$FINGERPRINTGUID
  2
{8d88bec8-b5f1-4edf-b6a0-68197449e593}
  9
$VERSIONGUID
  2
{FAEB1C32-E019-11D5-929B-00C0DF256EC4}
  9
$EXTNAMES
290
     1
  9
$PSVPSCALE
 40
0.0
  9
$OLESTARTUP
290
     0
  9
$SORTENTS
280
   127
  9
$INDEXCTL
280
     0
  9
$HIDETEXT
280
     1
  9
$XCLIPFRAME
280
     2
  9
$HALOGAP
280
     0
  9
$OBSCOLOR
 70
   257
  9
$OBSLTYPE
280
     0
  9
$INTERSECTIONDISPLAY
280
     0
  9
$INTERSECTIONCOLOR
 70
   257
  9
$DIMASSOC
280
     2
  9
$PROJECTNAME
  1

  9
$CAMERADISPLAY
290
     0
  9
$LENSLENGTH
 40
50.0
  9
$CAMERAHEIGHT
 40
0.0
  9
$STEPSPERSEC
 40
2.0
  9
$STEPSIZE
 40
6.0
  9
$3DDWFPREC
 40
2.0
  9
$PSOLWIDTH
 40
0.25
  9
$PSOLHEIGHT
 40
4.0
  9
$LOFTANG1
 40
1.570796326794897
  9
$LOFTANG2
 40
1.570796326794897
  9
$LOFTMAG1
 40
0.0
  9
$LOFTMAG2
 40
0.0
  9
$LOFTPARAM
 70
     7
  9
$LOFTNORMALS
280
     1
  9
$LATITUDE
 40
37.795
  9
$LONGITUDE
 40
-122.394
  9
$NORTHDIRECTION
 40
0.0
  9
$TIMEZONE
 70
 -8000
  9
$LIGHTGLYPHDISPLAY
280
     1
  9
$TILEMODELIGHTSYNCH
280
     1
  9
$CMATERIAL
347
44
  9
$SOLIDHIST
280
     0
  9
$SHOWHIST
280
     1
  9
$DWFFRAME
280
     2
  9
$DGNFRAME
280
     2
  9
$REALWORLDSCALE
290
     1
  9
$INTERFERECOLOR
 62
   256
  9
$CSHADOW
280
     0
  9
$SHADOWPLANELOCATION
 40
0.0
  0
ENDSEC
  0
SECTION
  2
CLASSES
  0
CLASS
  1
ACDBDICTIONARYWDFLT
  2
AcDbDictionaryWithDefault
  3
ObjectDBX Classes
 90
        0
 91
        3
280
     0
281
     0
  0
CLASS
  1
VISUALSTYLE
  2
AcDbVisualStyle
  3
ObjectDBX Classes
 90
     4095
 91
        3
280
     0
281
     0
  0
CLASS
  1
MATERIAL
  2
AcDbMaterial
  3
ObjectDBX Classes
 90
     1153
 91
        3
280
     0
281
     0
  0
CLASS
  1
SCALE
  2
AcDbScale
  3
ObjectDBX Classes
 90
     1153
 91
        3
280
     0
281
     0
  0
CLASS
  1
TABLESTYLE
  2
AcDbTableStyle
  3
ObjectDBX Classes
 90
     4095
 91
        3
280
     0
281
     0
  0
CLASS
  1
MLEADERSTYLE
  2
AcDbMLeaderStyle
  3
ACDB_MLEADERSTYLE_CLASS
 90
     4095
 91
        3
280
     0
281
     0
  0
CLASS
  1
SUN
  2
AcDbSun
  3
SCENEOE
 90
     1153
 91
        3
280
     0
281
     0
  0
CLASS
  1
DICTIONARYVAR
  2
AcDbDictionaryVar
  3
ObjectDBX Classes
 90
        0
 91
        3
280
     0
281
     0
  0
CLASS
  1
CELLSTYLEMAP
  2
AcDbCellStyleMap
  3
ObjectDBX Classes
 90
     1152
 91
        3
280
     0
281
     0
  0
ENDSEC
  0
SECTION
  2
TABLES
  0
TABLE
  2
VPORT
  5
8
330
0
100
AcDbSymbolTable
 70
     1
  0
VPORT
  5
29
330
8
100
AcDbSymbolTableRecord
100
AcDbViewportTableRecord
  2
*Active
 70
     0
 10
0.0
 20
0.0
 11
1.0
 21
1.0
 12
10.42990654205607
 22
4.5
 13
0.0
 23
0.0
 14
0.5
 24
0.5
 15
0.5
 25
0.5
 16
0.0
 26
0.0
 36
1.0
 17
0.0
 27
0.0
 37
0.0
 40
9.0
 41
1.972972972850329
 42
50.0
 43
0.0
 44
0.0
 50
0.0
 51
0.0
 71
     0
 72
   100
 73
     1
 74
     3
 75
     0
 76
     0
 77
     0
 78
     0
281
     0
 65
     1
110
0.0
120
0.0
130
0.0
111
1.0
121
0.0
131
0.0
112
0.0
122
1.0
132
0.0
 79
     0
146
0.0
348
2F
 60
     3
 61
     5
292
     1
282
     1
141
0.0
142
0.0
 63
   250
361
5D
  0
ENDTAB
  0
TABLE
  2
LTYPE
  5
5
330
0
100
AcDbSymbolTable
 70
     1
  0
LTYPE
  5
14
330
5
100
AcDbSymbolTableRecord
100
AcDbLinetypeTableRecord
  2
ByBlock
 70
     0
  3

 72
    65
 73
     0
 40
0.0
  0
LTYPE
  5
15
330
5
100
AcDbSymbolTableRecord
100
AcDbLinetypeTableRecord
  2
ByLayer
 70
     0
  3

 72
    65
 73
     0
 40
0.0
  0
LTYPE
  5
16
330
5
100
AcDbSymbolTableRecord
100
AcDbLinetypeTableRecord
  2
Continuous
 70
     0
  3
Solid line
 72
    65
 73
     0
 40
0.0
  0
ENDTAB
  0
TABLE
  2
LAYER
  5
2
330
0
100
AcDbSymbolTable
 70
     2
  0
LAYER
  5
10
330
2
100
AcDbSymbolTableRecord
100
AcDbLayerTableRecord
  2
0
 70
     0
 62
     7
  6
Continuous
370
    -3
390
F
347
46
348
0
  0
LAYER
  5
5F
330
2
100
AcDbSymbolTableRecord
100
AcDbLayerTableRecord
  2
Layer 1
 70
     0
 62
     7
  6
Continuous
370
    -3
390
F
347
46
348
0
  0
ENDTAB
  0
TABLE
  2
STYLE
  5
3
330
0
100
AcDbSymbolTable
 70
     1
  0
STYLE
  5
11
330
3
100
AcDbSymbolTableRecord
100
AcDbTextStyleTableRecord
  2
Standard
 70
     0
 40
0.0
 41
1.0
 50
0.0
 71
     0
 42
0.2
  3
txt
  4

  0
ENDTAB
  0
TABLE
  2
VIEW
  5
6
330
0
100
AcDbSymbolTable
 70
     0
  0
ENDTAB
  0
TABLE
  2
UCS
  5
7
330
0
100
AcDbSymbolTable
 70
     0
  0
ENDTAB
  0
TABLE
  2
APPID
  5
9
330
0
100
AcDbSymbolTable
 70
     2
  0
APPID
  5
12
330
9
100
AcDbSymbolTableRecord
100
AcDbRegAppTableRecord
  2
ACAD
 70
     0
  0
APPID
  5
5E
330
9
100
AcDbSymbolTableRecord
100
AcDbRegAppTableRecord
  2
ODA
 70
     0
  0
ENDTAB
  0
TABLE
  2
DIMSTYLE
  5
A
330
0
100
AcDbSymbolTable
 70
     1
100
AcDbDimStyleTable
  0
DIMSTYLE
105
27
330
A
100
AcDbSymbolTableRecord
100
AcDbDimStyleTableRecord
  2
Standard
 70
     0
178
     0
340
11
  0
ENDTAB
  0
TABLE
  2
BLOCK_RECORD
  5
1
330
0
100
AcDbSymbolTable
 70
     1
  0
BLOCK_RECORD
  5
1F
330
1
100
AcDbSymbolTableRecord
100
AcDbBlockTableRecord
  2
*Model_Space
340
22
 70
     0
280
     1
281
     0
  0
BLOCK_RECORD
  5
1B
330
1
100
AcDbSymbolTableRecord
100
AcDbBlockTableRecord
  2
*Paper_Space
340
1E
 70
     0
280
     1
281
     0
  0
BLOCK_RECORD
  5
23
330
1
100
AcDbSymbolTableRecord
100
AcDbBlockTableRecord
  2
*Paper_Space0
340
26
 70
     0
280
     1
281
     0
  0
ENDTAB
  0
ENDSEC
  0
SECTION
  2
BLOCKS
  0
BLOCK
  5
20
330
1F
100
AcDbEntity
  8
0
100
AcDbBlockBegin
  2
*Model_Space
 70
     0
 10
0.0
 20
0.0
 30
0.0
  3
*Model_Space
  1

  0
ENDBLK
  5
21
330
1F
100
AcDbEntity
  8
0
100
AcDbBlockEnd
  0
BLOCK
  5
1C
330
1B
100
AcDbEntity
 67
     1
  8
0
100
AcDbBlockBegin
  2
*Paper_Space
 70
     0
 10
0.0
 20
0.0
 30
0.0
  3
*Paper_Space
  1

  0
ENDBLK
  5
1D
330
1B
100
AcDbEntity
 67
     1
  8
0
100
AcDbBlockEnd
  0
BLOCK
  5
24
330
23
100
AcDbEntity
  8
0
100
AcDbBlockBegin
  2
*Paper_Space0
 70
     0
 10
0.0
 20
0.0
 30
0.0
  3
*Paper_Space0
  1

  0
ENDBLK
  5
25
330
23
100
AcDbEntity
  8
0
100
AcDbBlockEnd
  0
ENDSEC
  0
SECTION
  2
ENTITIES
  0
SPLINE
  5
60
330
1F
100
AcDbEntity
  8
Layer 1
 62
   250
370
     9
100
AcDbSpline
210
0.0
220
0.0
230
1.0
 70
    11
 71
     3
 72
    41
 73
    37
 74
     0
 42
0.0000000001
 43
0.0000000001
 40
0.0
 40
0.0
 40
0.0
 40
0.0
 40
0.0833333333333333
 40
0.0833333333333333
 40
0.0833333333333333
 40
0.1666666666666667
 40
0.1666666666666667
 40
0.1666666666666667
 40
0.25
 40
0.25
 40
0.25
 40
0.3333333333333333
 40
0.3333333333333333
 40
0.3333333333333333
 40
0.4166666666666666
 40
0.4166666666666666
 40
0.4166666666666666
 40
0.5
 40
0.5
 40
0.5
 40
0.5833333333333333
 40
0.5833333333333333
 40
0.5833333333333333
 40
0.6666666666666666
 40
0.6666666666666666
 40
0.6666666666666666
 40
0.75
 40
0.75
 40
0.75
 40
0.8333333333333333
 40
0.8333333333333333
 40
0.8333333333333333
 40
0.9166666666666666
 40
0.9166666666666666
 40
0.9166666666666666
 40
1.0
 40
1.0
 40
1.0
 40
1.0
 10
-176.2027
 20
367.6208
 30
0.0
 10
-176.2027
 20
367.6208
 30
0.0
 10
-178.522
 20
376.7504
 30
0.0
 10
-178.522
 20
376.7504
 30
0.0
 10
-178.522
 20
376.7504
 30
0.0
 10
-193.52
 20
493.5739
 30
0.0
 10
-79.6696
 20
503.0147
 30
0.0
 10
10.3414
 20
512.9771
 30
0.0
 10
29.9858
 20
439.5985
 30
0.0
 10
96.5698
 20
447.6461
 30
0.0
 10
96.5698
 20
447.6461
 30
0.0
 10
102.1736
 20
408.007
 30
0.0
 10
114.7744
 20
369.0295
 30
0.0
 10
114.7899
 20
368.9829
 30
0.0
 10
114.8055
 20
368.9439
 30
0.0
 10
114.8211
 20
368.8894
 30
0.0
 10
124.0596
 20
340.3646
 30
0.0
 10
137.0495
 20
312.2288
 30
0.0
 10
154.3434
 20
300.2741
 30
0.0
 10
154.3434
 20
300.2741
 30
0.0
 10
191.6397
 20
277.8278
 30
0.0
 10
124.3631
 20
258.3079
 30
0.0
 10
124.3631
 20
258.3079
 30
0.0
 10
120.6583
 20
258.5959
 30
0.0
 10
114.8211
 20
258.3857
 30
0.0
 10
114.8055
 20
258.3857
 30
0.0
 10
114.7822
 20
258.3857
 30
0.0
 10
114.7744
 20
258.3857
 30
0.0
 10
110.8517
 20
258.2378
 30
0.0
 10
105.9795
 20
257.8642
 30
0.0
 10
100.6326
 20
257.0237
 30
0.0
 10
37.7845
 20
331.0094
 30
0.0
 10
-62.866
 20
411.3071
 30
0.0
 10
-171.6964
 20
347.8051
 30
0.0
 10
-175.1987
 20
358.7248
 30
0.0
 10
-176.2027
 20
364.601
 30
0.0
 10
-176.2027
 20
367.6208
 30
0.0
  0
SPLINE
  5
61
330
1F
100
AcDbEntity
  8
Layer 1
 62
   250
370
     9
100
AcDbSpline
210
0.0
220
0.0
230
1.0
 70
    11
 71
     3
 72
    26
 73
    22
 74
     0
 42
0.0000000001
 43
0.0000000001
 40
0.0
 40
0.0
 40
0.0
 40
0.0
 40
0.1428571428571428
 40
0.1428571428571428
 40
0.1428571428571428
 40
0.2857142857142857
 40
0.2857142857142857
 40
0.2857142857142857
 40
0.4285714285714285
 40
0.4285714285714285
 40
0.4285714285714285
 40
0.5714285714285714
 40
0.5714285714285714
 40
0.5714285714285714
 40
0.7142857142857142
 40
0.7142857142857142
 40
0.7142857142857142
 40
0.8571428571428571
 40
0.8571428571428571
 40
0.8571428571428571
 40
1.0
 40
1.0
 40
1.0
 40
1.0
 10
98.1965
 20
192.938
 30
0.0
 10
86.234
 20
191.0623
 30
0.0
 10
71.8975
 20
186.8439
 30
0.0
 10
60.4954
 20
177.6288
 30
0.0
 10
60.4954
 20
177.6288
 30
0.0
 10
24.4598
 20
162.9265
 30
0.0
 10
-14.3542
 20
156.3343
 30
0.0
 10
-26.5269
 20
154.2641
 30
0.0
 10
-38.972
 20
152.9955
 30
0.0
 10
-50.6621
 20
153.2211
 30
0.0
 10
-94.5118
 20
154.1006
 30
0.0
 10
-113.7671
 20
152.6374
 30
0.0
 10
-137.2486
 20
196.4015
 30
0.0
 10
-140.0037
 20
201.5305
 30
0.0
 10
-142.8213
 20
207.2822
 30
0.0
 10
-145.7399
 20
213.7421
 30
0.0
 10
-161.2515
 20
248.0654
 30
0.0
 10
-169.6961
 20
269.9279
 30
0.0
 10
-174.1325
 20
283.7195
 30
0.0
 10
-65.2942
 20
347.2214
 30
0.0
 10
35.3406
 20
266.9237
 30
0.0
 10
98.1965
 20
192.938
 30
0.0
  0
SPLINE
  5
62
330
1F
100
AcDbEntity
  8
Layer 1
 62
   250
370
     9
100
AcDbSpline
210
0.0
220
0.0
230
1.0
 70
    11
 71
     3
 72
    32
 73
    28
 74
     0
 42
0.0000000001
 43
0.0000000001
 40
0.0
 40
0.0
 40
0.0
 40
0.0
 40
0.1111111111111111
 40
0.1111111111111111
 40
0.1111111111111111
 40
0.2222222222222222
 40
0.2222222222222222
 40
0.2222222222222222
 40
0.3333333333333333
 40
0.3333333333333333
 40
0.3333333333333333
 40
0.4444444444444444
 40
0.4444444444444444
 40
0.4444444444444444
 40
0.5555555555555556
 40
0.5555555555555556
 40
0.5555555555555556
 40
0.6666666666666666
 40
0.6666666666666666
 40
0.6666666666666666
 40
0.7777777777777777
 40
0.7777777777777777
 40
0.7777777777777777
 40
0.8888888888888888
 40
0.8888888888888888
 40
0.8888888888888888
 40
1.0
 40
1.0
 40
1.0
 40
1.0
 10
886.0141
 20
-590.0266
 30
0.0
 10
883.3122
 20
-580.4331
 30
0.0
 10
882.2437
 20
-565.2127
 30
0.0
 10
880.9067
 20
-541.1281
 30
0.0
 10
880.9067
 20
-541.1281
 30
0.0
 10
888.4406
 20
-480.8639
 30
0.0
 10
912.895
 20
-449.685
 30
0.0
 10
919.8686
 20
-440.7968
 30
0.0
 10
928.2042
 20
-434.259
 30
0.0
 10
938.1509
 20
-432.1731
 30
0.0
 10
938.1509
 20
-432.1731
 30
0.0
 10
937.4428
 20
-430.6632
 30
0.0
 10
937.4428
 20
-430.6632
 30
0.0
 10
977.7123
 20
-423.8687
 30
0.0
 10
1040.3657
 20
-423.7909
 30
0.0
 10
1120.251
 20
-456.7754
 30
0.0
 10
1123.1619
 20
-463.5
 30
0.0
 10
1125.9638
 20
-470.1
 30
0.0
 10
1128.6256
 20
-476.5365
 30
0.0
 10
1140.9227
 20
-506.1588
 30
0.0
 10
1150.3091
 20
-532.0686
 30
0.0
 10
1153.8505
 20
-548.4675
 30
0.0
 10
1158.6677
 20
-570.773
 30
0.0
 10
1159.2562
 20
-583.1851
 30
0.0
 10
1158.1697
 20
-590.0266
 30
0.0
 10
1158.1697
 20
-590.0266
 30
0.0
 10
886.0141
 20
-590.0266
 30
0.0
 10
886.0141
 20
-590.0266
 30
0.0
  0
SPLINE
  5
63
330
1F
100
AcDbEntity
  8
Layer 1
 62
   250
370
     9
100
AcDbSpline
210
0.0
220
0.0
230
1.0
 70
    11
 71
     3
 72
    26
 73
    22
 74
     0
 42
0.0000000001
 43
0.0000000001
 40
0.0
 40
0.0
 40
0.0
 40
0.0
 40
0.1428571428571428
 40
0.1428571428571428
 40
0.1428571428571428
 40
0.2857142857142857
 40
0.2857142857142857
 40
0.2857142857142857
 40
0.4285714285714285
 40
0.4285714285714285
 40
0.4285714285714285
 40
0.5714285714285714
 40
0.5714285714285714
 40
0.5714285714285714
 40
0.7142857142857142
 40
0.7142857142857142
 40
0.7142857142857142
 40
0.8571428571428571
 40
0.8571428571428571
 40
0.8571428571428571
 40
1.0
 40
1.0
 40
1.0
 40
1.0
 10
926.5854
 20
-371.8234
 30
0.0
 10
926.5854
 20
-371.8234
 30
0.0
 10
910.7546
 20
-343.4698
 30
0.0
 10
910.7546
 20
-343.4698
 30
0.0
 10
910.7546
 20
-343.4698
 30
0.0
 10
880.2373
 20
-349.0346
 30
0.0
 10
868.0335
 20
-297.075
 30
0.0
 10
868.0335
 20
-297.075
 30
0.0
 10
859.3087
 20
-263.6857
 30
0.0
 10
885.4753
 20
-245.1231
 30
0.0
 10
885.4753
 20
-245.1231
 30
0.0
 10
909.883
 20
-215.4308
 30
0.0
 10
949.989
 20
-208.9398
 30
0.0
 10
990.1106
 20
-202.4486
 30
0.0
 10
990.9745
 20
-195.9576
 30
0.0
 10
1021.4996
 20
-233.0594
 30
0.0
 10
1041.4398
 20
-257.3269
 30
0.0
 10
1086.348
 20
-331.9275
 30
0.0
 10
1118.7256
 20
-394.9546
 30
0.0
 10
1034.762
 20
-365.7449
 30
0.0
 10
968.9096
 20
-365.8071
 30
0.0
 10
926.5854
 20
-371.8234
 30
0.0
  0
SPLINE
  5
64
330
1F
100
AcDbEntity
  8
Layer 1
 62
   250
370
     9
100
AcDbSpline
210
0.0
220
0.0
230
1.0
 70
    11
 71
     3
 72
    47
 73
    43
 74
     0
 42
0.0000000001
 43
0.0000000001
 40
0.0
 40
0.0
 40
0.0
 40
0.0
 40
0.0714285714285714
 40
0.0714285714285714
 40
0.0714285714285714
 40
0.1428571428571428
 40
0.1428571428571428
 40
0.1428571428571428
 40
0.2142857142857143
 40
0.2142857142857143
 40
0.2142857142857143
 40
0.2857142857142857
 40
0.2857142857142857
 40
0.2857142857142857
 40
0.3571428571428571
 40
0.3571428571428571
 40
0.3571428571428571
 40
0.4285714285714285
 40
0.4285714285714285
 40
0.4285714285714285
 40
0.5
 40
0.5
 40
0.5
 40
0.5714285714285714
 40
0.5714285714285714
 40
0.5714285714285714
 40
0.6428571428571428
 40
0.6428571428571428
 40
0.6428571428571428
 40
0.7142857142857142
 40
0.7142857142857142
 40
0.7142857142857142
 40
0.7857142857142857
 40
0.7857142857142857
 40
0.7857142857142857
 40
0.8571428571428571
 40
0.8571428571428571
 40
0.8571428571428571
 40
0.9285714285714285
 40
0.9285714285714285
 40
0.9285714285714285
 40
1.0
 40
1.0
 40
1.0
 40
1.0
 10
-365.0662
 20
446.6499
 30
0.0
 10
-365.0662
 20
446.6499
 30
0.0
 10
-362.6768
 20
456.9312
 30
0.0
 10
-362.6768
 20
456.9312
 30
0.0
 10
-362.6768
 20
456.9312
 30
0.0
 10
-392.7817
 20
470.8396
 30
0.0
 10
-441.0444
 20
435.1699
 30
0.0
 10
-441.0444
 20
435.1699
 30
0.0
 10
-501.2384
 20
431.5352
 30
0.0
 10
-506.0172
 20
421.8609
 30
0.0
 10
-510.8038
 20
412.1865
 30
0.0
 10
-509.364
 20
417.0276
 30
0.0
 10
-495.0354
 20
373.5047
 30
0.0
 10
-495.0354
 20
373.5047
 30
0.0
 10
-463.4985
 20
313.0461
 30
0.0
 10
-455.373
 20
299.1455
 30
0.0
 10
-447.2474
 20
285.2372
 30
0.0
 10
-425.7507
 20
152.8397
 30
0.0
 10
-425.7507
 20
134.7052
 30
0.0
 10
-425.7507
 20
116.5707
 30
0.0
 10
-425.2759
 20
79.0953
 30
0.0
 10
-406.6355
 20
82.7145
 30
0.0
 10
-403.421
 20
83.3449
 30
0.0
 10
-398.9925
 20
83.376
 30
0.0
 10
-393.7546
 20
82.9713
 30
0.0
 10
-388.8045
 20
91.4004
 30
0.0
 10
-367.2377
 20
119.0457
 30
0.0
 10
-369.845
 20
126.8444
 30
0.0
 10
-378.9278
 20
154.0462
 30
0.0
 10
-379.4026
 20
160.7007
 30
0.0
 10
-382.7493
 20
170.3749
 30
0.0
 10
-386.0883
 20
180.0415
 30
0.0
 10
-390.3922
 20
207.2511
 30
0.0
 10
-388.4776
 20
218.1317
 30
0.0
 10
-386.5708
 20
229.0203
 30
0.0
 10
-384.6561
 20
270.1225
 30
0.0
 10
-384.6561
 20
282.2174
 30
0.0
 10
-384.6561
 20
294.3045
 30
0.0
 10
-399.4672
 20
328.1608
 30
0.0
 10
-389.435
 20
356.5766
 30
0.0
 10
-384.1814
 20
384.9847
 30
0.0
 10
-371.2771
 20
433.9557
 30
0.0
 10
-365.0662
 20
446.6499
 30
0.0
  0
SPLINE
  5
65
330
1F
100
AcDbEntity
  8
Layer 1
 62
   250
370
     9
100
AcDbSpline
210
0.0
220
0.0
230
1.0
 70
    11
 71
     3
 72
    41
 73
    37
 74
     0
 42
0.0000000001
 43
0.0000000001
 40
0.0
 40
0.0
 40
0.0
 40
0.0
 40
0.0833333333333333
 40
0.0833333333333333
 40
0.0833333333333333
 40
0.1666666666666667
 40
0.1666666666666667
 40
0.1666666666666667
 40
0.25
 40
0.25
 40
0.25
 40
0.3333333333333333
 40
0.3333333333333333
 40
0.3333333333333333
 40
0.4166666666666666
 40
0.4166666666666666
 40
0.4166666666666666
 40
0.5
 40
0.5
 40
0.5
 40
0.5833333333333333
 40
0.5833333333333333
 40
0.5833333333333333
 40
0.6666666666666666
 40
0.6666666666666666
 40
0.6666666666666666
 40
0.75
 40
0.75
 40
0.75
 40
0.8333333333333333
 40
0.8333333333333333
 40
0.8333333333333333
 40
0.9166666666666666
 40
0.9166666666666666
 40
0.9166666666666666
 40
1.0
 40
1.0
 40
1.0
 40
1.0
 10
-375.6434
 20
45.9318
 30
0.0
 10
-373.612
 20
45.7761
 30
0.0
 10
-371.4561
 20
45.5504
 30
0.0
 10
-369.199
 20
45.2702
 30
0.0
 10
-343.8963
 20
42.1336
 30
0.0
 10
-305.8606
 20
31.8601
 30
0.0
 10
-287.944
 20
27.7895
 30
0.0
 10
-264.3847
 20
22.4191
 30
0.0
 10
-211.1175
 20
72.5109
 30
0.0
 10
-190.8504
 20
96.3659
 30
0.0
 10
-170.5834
 20
120.221
 30
0.0
 10
-188.0252
 20
132.1446
 30
0.0
 10
-190.8504
 20
139.8966
 30
0.0
 10
-193.6757
 20
147.6562
 30
0.0
 10
-193.6757
 20
176.2745
 30
0.0
 10
-214.4175
 20
163.7516
 30
0.0
 10
-235.1515
 20
151.2365
 30
0.0
 10
-244.5846
 20
155.4082
 30
0.0
 10
-244.5846
 20
155.4082
 30
0.0
 10
-244.5846
 20
155.4082
 30
0.0
 10
-257.3099
 20
140.5036
 30
0.0
 10
-268.1517
 20
135.1333
 30
0.0
 10
-278.9935
 20
129.763
 30
0.0
 10
-294.077
 20
119.0224
 30
0.0
 10
-295.4936
 20
116.0493
 30
0.0
 10
-296.9023
 20
113.0684
 30
0.0
 10
-321.8781
 20
76.0911
 30
0.0
 10
-326.5946
 20
71.9194
 30
0.0
 10
-330.6651
 20
68.3159
 30
0.0
 10
-339.9892
 20
63.8328
 30
0.0
 10
-348.2159
 20
79.897
 30
0.0
 10
-349.0331
 20
81.4769
 30
0.0
 10
-349.8347
 20
83.2593
 30
0.0
 10
-350.6131
 20
85.2595
 30
0.0
 10
-359.8438
 20
71.9116
 30
0.0
 10
-368.2183
 20
58.5481
 30
0.0
 10
-375.6434
 20
45.9318
 30
0.0
  0
SPLINE
  5
66
330
1F
100
AcDbEntity
  8
Layer 1
 62
   250
370
     9
100
AcDbSpline
210
0.0
220
0.0
230
1.0
 70
    11
 71
     3
 72
    56
 73
    52
 74
     0
 42
0.0000000001
 43
0.0000000001
 40
0.0
 40
0.0
 40
0.0
 40
0.0
 40
0.0588235294117647
 40
0.0588235294117647
 40
0.0588235294117647
 40
0.1176470588235294
 40
0.1176470588235294
 40
0.1176470588235294
 40
0.1764705882352941
 40
0.1764705882352941
 40
0.1764705882352941
 40
0.2352941176470588
 40
0.2352941176470588
 40
0.2352941176470588
 40
0.2941176470588235
 40
0.2941176470588235
 40
0.2941176470588235
 40
0.3529411764705882
 40
0.3529411764705882
 40
0.3529411764705882
 40
0.4117647058823529
 40
0.4117647058823529
 40
0.4117647058823529
 40
0.4705882352941176
 40
0.4705882352941176
 40
0.4705882352941176
 40
0.5294117647058824
 40
0.5294117647058824
 40
0.5294117647058824
 40
0.5882352941176471
 40
0.5882352941176471
 40
0.5882352941176471
 40
0.6470588235294118
 40
0.6470588235294118
 40
0.6470588235294118
 40
0.7058823529411764
 40
0.7058823529411764
 40
0.7058823529411764
 40
0.7647058823529411
 40
0.7647058823529411
 40
0.7647058823529411
 40
0.8235294117647058
 40
0.8235294117647058
 40
0.8235294117647058
 40
0.8823529411764706
 40
0.8823529411764706
 40
0.8823529411764706
 40
0.9411764705882353
 40
0.9411764705882353
 40
0.9411764705882353
 40
1.0
 40
1.0
 40
1.0
 40
1.0
 10
886.2925
 20
536.2406
 30
0.0
 10
886.2925
 20
536.2406
 30
0.0
 10
882.0274
 20
523.6476
 30
0.0
 10
882.0274
 20
523.6476
 30
0.0
 10
882.0274
 20
523.6476
 30
0.0
 10
961.7025
 20
476.8325
 30
0.0
 10
1022.169
 20
466.0297
 30
0.0
 10
1082.6433
 20
455.2346
 30
0.0
 10
1099.7115
 20
445.3345
 30
0.0
 10
1099.7115
 20
445.3345
 30
0.0
 10
1099.7115
 20
445.3345
 30
0.0
 10
1142.3937
 20
450.7282
 30
0.0
 10
1172.9889
 20
437.2324
 30
0.0
 10
1183.5038
 20
432.5903
 30
0.0
 10
1192.674
 20
428.1616
 30
0.0
 10
1199.95
 20
426.7613
 30
0.0
 10
1199.95
 20
426.7613
 30
0.0
 10
1199.95
 20
484.5032
 30
0.0
 10
1199.95
 20
484.5032
 30
0.0
 10
1191.1379
 20
486.9269
 30
0.0
 10
1181.5877
 20
483.4036
 30
0.0
 10
1165.8753
 20
479.5411
 30
0.0
 10
1165.8753
 20
479.5411
 30
0.0
 10
1147.375
 20
481.339
 30
0.0
 10
1140.2612
 20
494.8348
 30
0.0
 10
1121.7687
 20
490.3362
 30
0.0
 10
1121.0526
 20
494.8348
 30
0.0
 10
1113.939
 20
484.9347
 30
0.0
 10
1106.8252
 20
475.0346
 30
0.0
 10
1089.041
 20
457.0247
 30
0.0
 10
1079.7947
 20
500.2362
 30
0.0
 10
1064.859
 20
500.2362
 30
0.0
 10
1042.8019
 20
480.4362
 30
0.0
 10
1042.8019
 20
480.4362
 30
0.0
 10
1042.8019
 20
480.4362
 30
0.0
 10
1030.707
 20
486.7325
 30
0.0
 10
1030.707
 20
506.5327
 30
0.0
 10
1030.707
 20
526.3405
 30
0.0
 10
1008.6576
 20
515.5377
 30
0.0
 10
1001.5439
 20
506.5327
 30
0.0
 10
994.4224
 20
497.5355
 30
0.0
 10
992.2977
 20
503.832
 30
0.0
 10
987.3087
 20
515.5377
 30
0.0
 10
982.3354
 20
527.2434
 30
0.0
 10
960.9865
 20
511.0313
 30
0.0
 10
960.9865
 20
511.0313
 30
0.0
 10
960.9865
 20
511.0313
 30
0.0
 10
931.8234
 20
531.7342
 30
0.0
 10
928.2743
 20
542.5448
 30
0.0
 10
924.7097
 20
553.3477
 30
0.0
 10
886.2925
 20
536.2406
 30
0.0
 10
886.2925
 20
536.2406
 30
0.0
  0
SPLINE
  5
67
330
1F
100
AcDbEntity
  8
Layer 1
 62
   250
370
     9
100
AcDbSpline
210
0.0
220
0.0
230
1.0
 70
    11
 71
     3
 72
    29
 73
    25
 74
     0
 42
0.0000000001
 43
0.0000000001
 40
0.0
 40
0.0
 40
0.0
 40
0.0
 40
0.125
 40
0.125
 40
0.125
 40
0.25
 40
0.25
 40
0.25
 40
0.375
 40
0.375
 40
0.375
 40
0.5
 40
0.5
 40
0.5
 40
0.625
 40
0.625
 40
0.625
 40
0.75
 40
0.75
 40
0.75
 40
0.875
 40
0.875
 40
0.875
 40
1.0
 40
1.0
 40
1.0
 40
1.0
 10
1104.9651
 20
264.8144
 30
0.0
 10
1104.9651
 20
264.8144
 30
0.0
 10
1090.7377
 20
276.5124
 30
0.0
 10
1090.7377
 20
276.5124
 30
0.0
 10
1090.7377
 20
276.5124
 30
0.0
 10
1116.3439
 20
379.1242
 30
0.0
 10
1125.598
 20
390.8299
 30
0.0
 10
1134.8442
 20
402.52
 30
0.0
 10
1164.7234
 20
389.9192
 30
0.0
 10
1188.197
 20
383.6228
 30
0.0
 10
1188.197
 20
383.6228
 30
0.0
 10
1193.2583
 20
384.3441
 30
0.0
 10
1199.95
 20
382.5192
 30
0.0
 10
1199.95
 20
382.5192
 30
0.0
 10
1199.95
 20
158.8988
 30
0.0
 10
1199.95
 20
158.8988
 30
0.0
 10
1197.7515
 20
159.0841
 30
0.0
 10
1195.0637
 20
160.1177
 30
0.0
 10
1191.7539
 20
162.2106
 30
0.0
 10
1166.1398
 20
178.4071
 30
0.0
 10
1183.9319
 20
180.205
 30
0.0
 10
1146.9313
 20
209.01
 30
0.0
 10
1146.9313
 20
209.01
 30
0.0
 10
1120.6168
 20
259.413
 30
0.0
 10
1104.9651
 20
264.8144
 30
0.0
  0
SPLINE
  5
68
330
1F
100
AcDbEntity
  8
Layer 1
 62
   250
370
     9
100
AcDbSpline
210
0.0
220
0.0
230
1.0
 70
    11
 71
     3
 72
    17
 73
    13
 74
     0
 42
0.0000000001
 43
0.0000000001
 40
0.0
 40
0.0
 40
0.0
 40
0.0
 40
0.25
 40
0.25
 40
0.25
 40
0.5
 40
0.5
 40
0.5
 40
0.75
 40
0.75
 40
0.75
 40
1.0
 40
1.0
 40
1.0
 40
1.0
 10
1056.8425
 20
38.9036
 30
0.0
 10
1056.8425
 20
38.9036
 30
0.0
 10
1043.3234
 20
30.8015
 30
0.0
 10
1043.3234
 20
30.8015
 30
0.0
 10
1043.3234
 20
30.8015
 30
0.0
 10
992.0953
 20
20.8937
 30
0.0
 10
1021.9744
 20
51.4966
 30
0.0
 10
1021.9744
 20
51.4966
 30
0.0
 10
1055.4182
 20
64.1052
 30
0.0
 10
1066.797
 20
66.806
 30
0.0
 10
1078.1758
 20
69.4989
 30
0.0
 10
1077.4675
 20
46.1108
 30
0.0
 10
1056.8425
 20
38.9036
 30
0.0
  0
SPLINE
  5
69
330
1F
100
AcDbEntity
  8
Layer 1
 62
   250
370
     9
100
AcDbSpline
210
0.0
220
0.0
230
1.0
 70
    11
 71
     3
 72
    26
 73
    22
 74
     0
 42
0.0000000001
 43
0.0000000001
 40
0.0
 40
0.0
 40
0.0
 40
0.0
 40
0.1428571428571428
 40
0.1428571428571428
 40
0.1428571428571428
 40
0.2857142857142857
 40
0.2857142857142857
 40
0.2857142857142857
 40
0.4285714285714285
 40
0.4285714285714285
 40
0.4285714285714285
 40
0.5714285714285714
 40
0.5714285714285714
 40
0.5714285714285714
 40
0.7142857142857142
 40
0.7142857142857142
 40
0.7142857142857142
 40
0.8571428571428571
 40
0.8571428571428571
 40
0.8571428571428571
 40
1.0
 40
1.0
 40
1.0
 40
1.0
 10
810.6958
 20
-65.506
 30
0.0
 10
810.6958
 20
-65.506
 30
0.0
 10
798.6087
 20
-47.5037
 30
0.0
 10
798.6087
 20
-47.5037
 30
0.0
 10
798.6087
 20
-47.5037
 30
0.0
 10
773.7029
 20
-9.7015
 30
0.0
 10
813.5443
 20
-13.305
 30
0.0
 10
853.3702
 20
-16.9008
 30
0.0
 10
878.276
 20
-8.8064
 30
0.0
 10
884.6815
 20
11.8965
 30
0.0
 10
884.6815
 20
11.8965
 30
0.0
 10
903.1818
 20
-10.5965
 30
0.0
 10
972.1785
 20
49.6987
 30
0.0
 10
972.1785
 20
49.6987
 30
0.0
 10
1009.1713
 20
37.1059
 30
0.0
 10
971.4702
 20
11.8965
 30
0.0
 10
971.4702
 20
11.8965
 30
0.0
 10
934.4774
 20
-35.8058
 30
0.0
 10
906.0226
 20
-48.4065
 30
0.0
 10
877.5677
 20
-60.9995
 30
0.0
 10
841.2832
 20
-92.5053
 30
0.0
 10
810.6958
 20
-65.506
 30
0.0
  0
SPLINE
  5
6A
330
1F
100
AcDbEntity
  8
Layer 1
 62
   250
370
     9
100
AcDbSpline
210
0.0
220
0.0
230
1.0
 70
    11
 71
     3
 72
    26
 73
    22
 74
     0
 42
0.0000000001
 43
0.0000000001
 40
0.0
 40
0.0
 40
0.0
 40
0.0
 40
0.1428571428571428
 40
0.1428571428571428
 40
0.1428571428571428
 40
0.2857142857142857
 40
0.2857142857142857
 40
0.2857142857142857
 40
0.4285714285714285
 40
0.4285714285714285
 40
0.4285714285714285
 40
0.5714285714285714
 40
0.5714285714285714
 40
0.5714285714285714
 40
0.7142857142857142
 40
0.7142857142857142
 40
0.7142857142857142
 40
0.8571428571428571
 40
0.8571428571428571
 40
0.8571428571428571
 40
1.0
 40
1.0
 40
1.0
 40
1.0
 10
979.2921
 20
-30.4043
 30
0.0
 10
1017.001
 20
-5.1951
 30
0.0
 10
1050.437
 20
10.0986
 30
0.0
 10
1058.9672
 20
10.0986
 30
0.0
 10
1067.5052
 20
10.0986
 30
0.0
 10
1060.3993
 20
-12.4022
 30
0.0
 10
1034.0771
 20
-17.8036
 30
0.0
 10
1007.0387
 20
-34.9029
 30
0.0
 10
990.6788
 20
-69.1016
 30
0.0
 10
967.2051
 20
-78.1067
 30
0.0
 10
967.2051
 20
-78.1067
 30
0.0
 10
923.8068
 20
-113.2005
 30
0.0
 10
908.1551
 20
-118.6097
 30
0.0
 10
908.1551
 20
-118.6097
 30
0.0
 10
869.0297
 20
-145.609
 30
0.0
 10
859.0674
 20
-142.9083
 30
0.0
 10
849.1051
 20
-140.2076
 30
0.0
 10
864.0485
 20
-109.6047
 30
0.0
 10
880.4163
 20
-101.5103
 30
0.0
 10
912.0855
 20
-85.8274
 30
0.0
 10
954.4721
 20
-55.3802
 30
0.0
 10
979.2921
 20
-30.4043
 30
0.0
  0
SPLINE
  5
6B
330
1F
100
AcDbEntity
  8
Layer 1
 62
   250
370
     9
100
AcDbSpline
210
0.0
220
0.0
230
1.0
 70
    11
 71
     3
 72
    29
 73
    25
 74
     0
 42
0.0000000001
 43
0.0000000001
 40
0.0
 40
0.0
 40
0.0
 40
0.0
 40
0.125
 40
0.125
 40
0.125
 40
0.25
 40
0.25
 40
0.25
 40
0.375
 40
0.375
 40
0.375
 40
0.5
 40
0.5
 40
0.5
 40
0.625
 40
0.625
 40
0.625
 40
0.75
 40
0.75
 40
0.75
 40
0.875
 40
0.875
 40
0.875
 40
1.0
 40
1.0
 40
1.0
 40
1.0
 10
1140.7749
 20
80.3018
 30
0.0
 10
1140.7749
 20
80.3018
 30
0.0
 10
1132.2446
 20
77.601
 30
0.0
 10
1132.2446
 20
77.601
 30
0.0
 10
1132.2446
 20
77.601
 30
0.0
 10
1086.0055
 20
-51.1072
 30
0.0
 10
980.0082
 20
-113.2005
 30
0.0
 10
884.6815
 20
-161.8133
 30
0.0
 10
835.5938
 20
-186.1121
 30
0.0
 10
835.5938
 20
-186.1121
 30
0.0
 10
835.5938
 20
-186.1121
 30
0.0
 10
819.2337
 20
-214.0143
 30
0.0
 10
849.8289
 20
-205.0093
 30
0.0
 10
880.4163
 20
-196.0121
 30
0.0
 10
989.6748
 20
-128.5253
 30
0.0
 10
1029.8042
 20
-163.6112
 30
0.0
 10
1086.0912
 20
-212.8235
 30
0.0
 10
1106.6929
 20
-254.1437
 30
0.0
 10
1093.8198
 20
-157.307
 30
0.0
 10
1086.6282
 20
-103.1681
 30
0.0
 10
1107.3389
 20
-34.9029
 30
0.0
 10
1125.131
 20
1.9965
 30
0.0
 10
1142.9075
 20
38.9036
 30
0.0
 10
1146.4643
 20
77.601
 30
0.0
 10
1140.7749
 20
80.3018
 30
0.0
  0
SPLINE
  5
6C
330
1F
100
AcDbEntity
  8
Layer 1
 62
   250
370
     9
100
AcDbSpline
210
0.0
220
0.0
230
1.0
 70
    11
 71
     3
 72
    20
 73
    16
 74
     0
 42
0.0000000001
 43
0.0000000001
 40
0.0
 40
0.0
 40
0.0
 40
0.0
 40
0.2
 40
0.2
 40
0.2
 40
0.4
 40
0.4
 40
0.4
 40
0.6000000000000001
 40
0.6000000000000001
 40
0.6000000000000001
 40
0.8
 40
0.8
 40
0.8
 40
1.0
 40
1.0
 40
1.0
 40
1.0
 10
1199.95
 20
-534.5617
 30
0.0
 10
1187.4098
 20
-500.3998
 30
0.0
 10
1165.0761
 20
-434.2895
 30
0.0
 10
1163.8205
 20
-393.6237
 30
0.0
 10
1162.0537
 20
-336.9086
 30
0.0
 10
1125.4579
 20
-338.6054
 30
0.0
 10
1156.5822
 20
-121.4427
 30
0.0
 10
1156.5822
 20
-121.4427
 30
0.0
 10
1189.3022
 20
-12.2854
 30
0.0
 10
1189.3022
 20
-12.2854
 30
0.0
 10
1189.3022
 20
-12.2854
 30
0.0
 10
1194.1261
 20
-40.2431
 30
0.0
 10
1199.95
 20
-71.3193
 30
0.0
 10
1199.95
 20
-71.3193
 30
0.0
 10
1199.95
 20
-534.5617
 30
0.0
 10
1199.95
 20
-534.5617
 30
0.0
  0
SPLINE
  5
6D
330
1F
100
AcDbEntity
  8
Layer 1
 62
   250
370
     9
100
AcDbSpline
210
0.0
220
0.0
230
1.0
 70
    11
 71
     3
 72
    29
 73
    25
 74
     0
 42
0.0000000001
 43
0.0000000001
 40
0.0
 40
0.0
 40
0.0
 40
0.0
 40
0.125
 40
0.125
 40
0.125
 40
0.25
 40
0.25
 40
0.25
 40
0.375
 40
0.375
 40
0.375
 40
0.5
 40
0.5
 40
0.5
 40
0.625
 40
0.625
 40
0.625
 40
0.75
 40
0.75
 40
0.75
 40
0.875
 40
0.875
 40
0.875
 40
1.0
 40
1.0
 40
1.0
 40
1.0
 10
922.9429
 20
379.9647
 30
0.0
 10
922.9429
 20
379.9647
 30
0.0
 10
913.6032
 20
360.2659
 30
0.0
 10
913.6032
 20
360.2659
 30
0.0
 10
913.6032
 20
360.2659
 30
0.0
 10
884.5414
 20
372.7265
 30
0.0
 10
863.2625
 20
378.6416
 30
0.0
 10
841.9836
 20
384.5567
 30
0.0
 10
840.9407
 20
374.0496
 30
0.0
 10
831.0795
 20
378.6416
 30
0.0
 10
821.2263
 20
383.2414
 30
0.0
 10
815.5212
 20
394.41
 30
0.0
 10
833.1576
 20
407.5323
 30
0.0
 10
850.8018
 20
420.6701
 30
0.0
 10
847.175
 20
413.4474
 30
0.0
 10
853.9228
 20
423.293
 30
0.0
 10
860.6629
 20
433.1463
 30
0.0
 10
865.3328
 20
436.423
 30
0.0
 10
894.3947
 20
429.8618
 30
0.0
 10
923.4566
 20
423.293
 30
0.0
 10
935.925
 20
419.3547
 30
0.0
 10
935.925
 20
419.3547
 30
0.0
 10
935.925
 20
419.3547
 30
0.0
 10
937.9953
 20
404.9172
 30
0.0
 10
922.9429
 20
379.9647
 30
0.0
  0
SPLINE
  5
6E
330
1F
100
AcDbEntity
  8
Layer 1
 62
   250
370
     9
100
AcDbSpline
210
0.0
220
0.0
230
1.0
 70
    11
 71
     3
 72
    20
 73
    16
 74
     0
 42
0.0000000001
 43
0.0000000001
 40
0.0
 40
0.0
 40
0.0
 40
0.0
 40
0.2
 40
0.2
 40
0.2
 40
0.4
 40
0.4
 40
0.4
 40
0.6000000000000001
 40
0.6000000000000001
 40
0.6000000000000001
 40
0.8
 40
0.8
 40
0.8
 40
1.0
 40
1.0
 40
1.0
 40
1.0
 10
731.9157
 20
403.1349
 30
0.0
 10
731.9157
 20
403.1349
 30
0.0
 10
780.7855
 20
444.0971
 30
0.0
 10
790.1174
 20
463.7336
 30
0.0
 10
790.1174
 20
463.7336
 30
0.0
 10
817.6694
 20
455.8806
 30
0.0
 10
827.8885
 20
458.122
 30
0.0
 10
838.1077
 20
460.3714
 30
0.0
 10
821.6699
 20
432.8739
 30
0.0
 10
800.788
 20
425.5734
 30
0.0
 10
800.788
 20
425.5734
 30
0.0
 10
778.5673
 20
399.2044
 30
0.0
 10
763.4605
 20
394.1532
 30
0.0
 10
746.2599
 20
388.4015
 30
0.0
 10
736.6945
 20
377.7388
 30
0.0
 10
731.9157
 20
403.1349
 30
0.0
  0
SPLINE
  5
6F
330
1F
100
AcDbEntity
  8
Layer 1
 62
   250
370
     9
100
AcDbSpline
210
0.0
220
0.0
230
1.0
 70
    11
 71
     3
 72
    26
 73
    22
 74
     0
 42
0.0000000001
 43
0.0000000001
 40
0.0
 40
0.0
 40
0.0
 40
0.0
 40
0.1428571428571428
 40
0.1428571428571428
 40
0.1428571428571428
 40
0.2857142857142857
 40
0.2857142857142857
 40
0.2857142857142857
 40
0.4285714285714285
 40
0.4285714285714285
 40
0.4285714285714285
 40
0.5714285714285714
 40
0.5714285714285714
 40
0.5714285714285714
 40
0.7142857142857142
 40
0.7142857142857142
 40
0.7142857142857142
 40
0.8571428571428571
 40
0.8571428571428571
 40
0.8571428571428571
 40
1.0
 40
1.0
 40
1.0
 40
1.0
 10
643.7338
 20
408.2716
 30
0.0
 10
643.7338
 20
408.2716
 30
0.0
 10
697.1255
 20
452.0436
 30
0.0
 10
719.6107
 20
467.4306
 30
0.0
 10
744.0857
 20
498.3463
 30
0.0
 10
773.5418
 20
543.6253
 30
0.0
 10
783.827
 20
589.9734
 30
0.0
 10
783.827
 20
589.9734
 30
0.0
 10
820.589
 20
589.9734
 30
0.0
 10
820.589
 20
589.9734
 30
0.0
 10
820.2885
 20
580.2701
 30
0.0
 10
818.0419
 20
570.6228
 30
0.0
 10
802.0411
 20
553.7914
 30
0.0
 10
802.0411
 20
553.7914
 30
0.0
 10
800.1731
 20
520.6667
 30
0.0
 10
778.6218
 20
500.5552
 30
0.0
 10
757.0783
 20
480.4362
 30
0.0
 10
713.0496
 20
429.5661
 30
0.0
 10
686.8207
 20
416.5528
 30
0.0
 10
660.8409
 20
403.6719
 30
0.0
 10
653.6416
 20
370.6951
 30
0.0
 10
643.7338
 20
408.2716
 30
0.0
  0
SPLINE
  5
70
330
1F
100
AcDbEntity
  8
Layer 1
 62
   250
370
     9
100
AcDbSpline
210
0.0
220
0.0
230
1.0
 70
    11
 71
     3
 72
    35
 73
    31
 74
     0
 42
0.0000000001
 43
0.0000000001
 40
0.0
 40
0.0
 40
0.0
 40
0.0
 40
0.1
 40
0.1
 40
0.1
 40
0.2
 40
0.2
 40
0.2
 40
0.3
 40
0.3
 40
0.3
 40
0.4
 40
0.4
 40
0.4
 40
0.5
 40
0.5
 40
0.5
 40
0.6000000000000001
 40
0.6000000000000001
 40
0.6000000000000001
 40
0.7000000000000001
 40
0.7000000000000001
 40
0.7000000000000001
 40
0.8
 40
0.8
 40
0.8
 40
0.9
 40
0.9
 40
0.9
 40
1.0
 40
1.0
 40
1.0
 40
1.0
 10
746.7813
 20
327.826
 30
0.0
 10
746.7813
 20
327.826
 30
0.0
 10
736.4766
 20
340.8393
 30
0.0
 10
736.4766
 20
340.8393
 30
0.0
 10
736.4766
 20
340.8393
 30
0.0
 10
747.7076
 20
382.2451
 30
0.0
 10
887.2887
 20
320.7279
 30
0.0
 10
887.2887
 20
320.7279
 30
0.0
 10
924.7641
 20
318.3618
 30
0.0
 10
957.5541
 20
282.8712
 30
0.0
 10
957.5541
 20
282.8712
 30
0.0
 10
992.212
 20
265.118
 30
0.0
 10
1000.6411
 20
261.5689
 30
0.0
 10
1009.0701
 20
258.0277
 30
0.0
 10
1015.6312
 20
230.8104
 30
0.0
 10
1025.9359
 20
221.354
 30
0.0
 10
1036.233
 20
211.882
 30
0.0
 10
1059.6599
 20
202.4178
 30
0.0
 10
1037.1825
 20
182.3142
 30
0.0
 10
1014.6895
 20
162.195
 30
0.0
 10
988.4684
 20
157.4629
 30
0.0
 10
982.849
 20
150.3726
 30
0.0
 10
977.2219
 20
143.2666
 30
0.0
 10
971.6025
 20
150.3726
 30
0.0
 10
944.4397
 20
190.5875
 30
0.0
 10
917.269
 20
230.8104
 30
0.0
 10
843.2601
 20
295.8766
 30
0.0
 10
820.7826
 20
301.7918
 30
0.0
 10
798.2973
 20
307.7146
 30
0.0
 10
756.1443
 20
313.6298
 30
0.0
 10
746.7813
 20
327.826
 30
0.0
  0
SPLINE
  5
71
330
1F
100
AcDbEntity
  8
Layer 1
 62
   250
370
     9
100
AcDbSpline
210
0.0
220
0.0
230
1.0
 70
    11
 71
     3
 72
    26
 73
    22
 74
     0
 42
0.0000000001
 43
0.0000000001
 40
0.0
 40
0.0
 40
0.0
 40
0.0
 40
0.1428571428571428
 40
0.1428571428571428
 40
0.1428571428571428
 40
0.2857142857142857
 40
0.2857142857142857
 40
0.2857142857142857
 40
0.4285714285714285
 40
0.4285714285714285
 40
0.4285714285714285
 40
0.5714285714285714
 40
0.5714285714285714
 40
0.5714285714285714
 40
0.7142857142857142
 40
0.7142857142857142
 40
0.7142857142857142
 40
0.8571428571428571
 40
0.8571428571428571
 40
0.8571428571428571
 40
1.0
 40
1.0
 40
1.0
 40
1.0
 10
587.8671
 20
181.3724
 30
0.0
 10
587.8671
 20
181.3724
 30
0.0
 10
589.556
 20
193.0937
 30
0.0
 10
589.556
 20
193.0937
 30
0.0
 10
589.556
 20
193.0937
 30
0.0
 10
535.5883
 20
258.0588
 30
0.0
 10
580.2786
 20
281.4936
 30
0.0
 10
624.9766
 20
304.9206
 30
0.0
 10
711.8354
 20
310.2442
 30
0.0
 10
738.8193
 20
271.897
 30
0.0
 10
738.8193
 20
271.897
 30
0.0
 10
914.2259
 20
161.1443
 30
0.0
 10
905.789
 20
96.1792
 30
0.0
 10
886.3937
 20
71.6781
 30
0.0
 10
840.8628
 20
61.0386
 30
0.0
 10
791.9464
 20
59.9647
 30
0.0
 10
743.0377
 20
58.8983
 30
0.0
 10
674.7336
 20
72.7522
 30
0.0
 10
619.9176
 20
132.3859
 30
0.0
 10
619.9176
 20
132.3859
 30
0.0
 10
580.2786
 20
164.3354
 30
0.0
 10
587.8671
 20
181.3724
 30
0.0
  0
SPLINE
  5
72
330
1F
100
AcDbEntity
  8
Layer 1
 62
   250
370
     9
100
AcDbSpline
210
0.0
220
0.0
230
1.0
 70
    11
 71
     3
 72
    29
 73
    25
 74
     0
 42
0.0000000001
 43
0.0000000001
 40
0.0
 40
0.0
 40
0.0
 40
0.0
 40
0.125
 40
0.125
 40
0.125
 40
0.25
 40
0.25
 40
0.25
 40
0.375
 40
0.375
 40
0.375
 40
0.5
 40
0.5
 40
0.5
 40
0.625
 40
0.625
 40
0.625
 40
0.75
 40
0.75
 40
0.75
 40
0.875
 40
0.875
 40
0.875
 40
1.0
 40
1.0
 40
1.0
 40
1.0
 10
791.744
 20
-165.5103
 30
0.0
 10
777.1042
 20
-183.9873
 30
0.0
 10
669.3089
 20
-113.2471
 30
0.0
 10
636.2387
 20
-108.7252
 30
0.0
 10
603.4487
 20
-102.8101
 30
0.0
 10
560.3617
 20
-99.261
 30
0.0
 10
581.9052
 20
-15.2664
 30
0.0
 10
588.4663
 20
36.7945
 30
0.0
 10
581.9052
 20
69.9191
 30
0.0
 10
585.6489
 20
78.2003
 30
0.0
 10
589.4003
 20
86.4737
 30
0.0
 10
596.8876
 20
86.4737
 30
0.0
 10
633.4212
 20
34.4207
 30
0.0
 10
633.4212
 20
34.4207
 30
0.0
 10
703.6866
 20
-19.9984
 30
0.0
 10
703.6866
 20
-19.9984
 30
0.0
 10
703.6866
 20
-19.9984
 30
0.0
 10
732.7252
 20
-47.208
 30
0.0
 10
746.7813
 20
-87.4308
 30
0.0
 10
746.7813
 20
-87.4308
 30
0.0
 10
775.8199
 20
-107.5422
 30
0.0
 10
775.8199
 20
-107.5422
 30
0.0
 10
775.8199
 20
-107.5422
 30
0.0
 10
803.9168
 20
-151.3218
 30
0.0
 10
791.744
 20
-165.5103
 30
0.0
  0
SPLINE
  5
73
330
1F
100
AcDbEntity
  8
Layer 1
 62
   250
370
     9
100
AcDbSpline
210
0.0
220
0.0
230
1.0
 70
    11
 71
     3
 72
    23
 73
    19
 74
     0
 42
0.0000000001
 43
0.0000000001
 40
0.0
 40
0.0
 40
0.0
 40
0.0
 40
0.1666666666666667
 40
0.1666666666666667
 40
0.1666666666666667
 40
0.3333333333333333
 40
0.3333333333333333
 40
0.3333333333333333
 40
0.5
 40
0.5
 40
0.5
 40
0.6666666666666666
 40
0.6666666666666666
 40
0.6666666666666666
 40
0.8333333333333333
 40
0.8333333333333333
 40
0.8333333333333333
 40
1.0
 40
1.0
 40
1.0
 40
1.0
 10
815.1555
 20
-275.5393
 30
0.0
 10
815.1555
 20
-275.5393
 30
0.0
 10
804.8585
 20
-282.6375
 30
0.0
 10
804.8585
 20
-282.6375
 30
0.0
 10
804.8585
 20
-282.6375
 30
0.0
 10
683.0771
 20
-172.6084
 30
0.0
 10
624.0582
 20
-158.4199
 30
0.0
 10
621.2563
 20
-137.1177
 30
0.0
 10
634.363
 20
-134.7518
 30
0.0
 10
680.2596
 20
-159.603
 30
0.0
 10
726.164
 20
-184.4465
 30
0.0
 10
737.4106
 20
-199.8258
 30
0.0
 10
755.2026
 20
-209.2822
 30
0.0
 10
773.0025
 20
-218.7542
 30
0.0
 10
775.8199
 20
-214.0143
 30
0.0
 10
802.9828
 20
-237.6747
 30
0.0
 10
830.1534
 20
-261.343
 30
0.0
 10
820.7826
 20
-270.8072
 30
0.0
 10
815.1555
 20
-275.5393
 30
0.0
  0
SPLINE
  5
74
330
1F
100
AcDbEntity
  8
Layer 1
 62
   250
370
     9
100
AcDbSpline
210
0.0
220
0.0
230
1.0
 70
    11
 71
     3
 72
    20
 73
    16
 74
     0
 42
0.0000000001
 43
0.0000000001
 40
0.0
 40
0.0
 40
0.0
 40
0.0
 40
0.2
 40
0.2
 40
0.2
 40
0.4
 40
0.4
 40
0.4
 40
0.6000000000000001
 40
0.6000000000000001
 40
0.6000000000000001
 40
0.8
 40
0.8
 40
0.8
 40
1.0
 40
1.0
 40
1.0
 40
1.0
 10
835.7728
 20
-406.8627
 30
0.0
 10
835.7728
 20
-406.8627
 30
0.0
 10
828.2776
 20
-418.6852
 30
0.0
 10
828.2776
 20
-418.6852
 30
0.0
 10
828.2776
 20
-418.6852
 30
0.0
 10
715.8671
 20
-270.8072
 30
0.0
 10
705.5546
 20
-266.0751
 30
0.0
 10
705.5546
 20
-266.0751
 30
0.0
 10
711.1817
 20
-238.8578
 30
0.0
 10
711.1817
 20
-238.8578
 30
0.0
 10
711.1817
 20
-238.8578
 30
0.0
 10
824.534
 20
-351.2528
 30
0.0
 10
844.194
 20
-378.4623
 30
0.0
 10
844.194
 20
-378.4623
 30
0.0
 10
842.3261
 20
-396.2154
 30
0.0
 10
835.7728
 20
-406.8627
 30
0.0
  0
SPLINE
  5
75
330
1F
100
AcDbEntity
  8
Layer 1
 62
   250
370
     9
100
AcDbSpline
210
0.0
220
0.0
230
1.0
 70
    11
 71
     3
 72
    23
 73
    19
 74
     0
 42
0.0000000001
 43
0.0000000001
 40
0.0
 40
0.0
 40
0.0
 40
0.0
 40
0.1666666666666667
 40
0.1666666666666667
 40
0.1666666666666667
 40
0.3333333333333333
 40
0.3333333333333333
 40
0.3333333333333333
 40
0.5
 40
0.5
 40
0.5
 40
0.6666666666666666
 40
0.6666666666666666
 40
0.6666666666666666
 40
0.8333333333333333
 40
0.8333333333333333
 40
0.8333333333333333
 40
1.0
 40
1.0
 40
1.0
 40
1.0
 10
540.6628
 20
13.671
 30
0.0
 10
540.6628
 20
13.671
 30
0.0
 10
535.7751
 20
9.8106
 30
0.0
 10
535.7751
 20
9.8106
 30
0.0
 10
535.7751
 20
9.8106
 30
0.0
 10
531.4944
 20
29.1126
 30
0.0
 10
524.762
 20
82.3798
 30
0.0
 10
512.5427
 20
116.345
 30
0.0
 10
500.3155
 20
139.5074
 30
0.0
 10
500.9304
 20
159.5798
 30
0.0
 10
501.5452
 20
179.6523
 30
0.0
 10
503.9891
 20
201.2659
 30
0.0
 10
503.9891
 20
201.2659
 30
0.0
 10
503.9891
 20
201.2659
 30
0.0
 10
524.762
 20
170.3905
 30
0.0
 10
535.168
 20
113.2551
 30
0.0
 10
545.5584
 20
56.1353
 30
0.0
 10
548.6094
 20
21.3918
 30
0.0
 10
540.6628
 20
13.671
 30
0.0
  0
SPLINE
  5
76
330
1F
100
AcDbEntity
  8
Layer 1
 62
   250
370
     9
100
AcDbSpline
210
0.0
220
0.0
230
1.0
 70
    11
 71
     3
 72
    35
 73
    31
 74
     0
 42
0.0000000001
 43
0.0000000001
 40
0.0
 40
0.0
 40
0.0
 40
0.0
 40
0.1
 40
0.1
 40
0.1
 40
0.2
 40
0.2
 40
0.2
 40
0.3
 40
0.3
 40
0.3
 40
0.4
 40
0.4
 40
0.4
 40
0.5
 40
0.5
 40
0.5
 40
0.6000000000000001
 40
0.6000000000000001
 40
0.6000000000000001
 40
0.7000000000000001
 40
0.7000000000000001
 40
0.7000000000000001
 40
0.8
 40
0.8
 40
0.8
 40
0.9
 40
0.9
 40
0.9
 40
1.0
 40
1.0
 40
1.0
 40
1.0
 10
487.6836
 20
359.8767
 30
0.0
 10
487.6836
 20
359.8767
 30
0.0
 10
494.9919
 20
365.0057
 30
0.0
 10
494.9919
 20
365.0057
 30
0.0
 10
494.9919
 20
365.0057
 30
0.0
 10
580.2786
 20
458.3478
 30
0.0
 10
591.6496
 20
482.9734
 30
0.0
 10
603.0207
 20
507.5912
 30
0.0
 10
598.9579
 20
527.0799
 30
0.0
 10
598.9579
 20
527.0799
 30
0.0
 10
598.9579
 20
527.0799
 30
0.0
 10
624.8489
 20
567.7279
 30
0.0
 10
635.0667
 20
589.9734
 30
0.0
 10
635.0667
 20
589.9734
 30
0.0
 10
727.8401
 20
589.9734
 30
0.0
 10
727.8401
 20
589.9734
 30
0.0
 10
731.7101
 20
579.7419
 30
0.0
 10
732.1422
 20
561.3683
 30
0.0
 10
704.5583
 20
538.3576
 30
0.0
 10
704.5583
 20
538.3576
 30
0.0
 10
659.8836
 20
483.9929
 30
0.0
 10
629.8254
 20
461.4299
 30
0.0
 10
599.7752
 20
438.859
 30
0.0
 10
566.4714
 20
396.8072
 30
0.0
 10
559.1631
 20
373.2168
 30
0.0
 10
551.8549
 20
349.6186
 30
0.0
 10
516.9246
 20
306.5317
 30
0.0
 10
485.2475
 20
332.1768
 30
0.0
 10
485.2475
 20
332.1768
 30
0.0
 10
477.9392
 20
348.5912
 30
0.0
 10
487.6836
 20
359.8767
 30
0.0
  0
SPLINE
  5
77
330
1F
100
AcDbEntity
  8
Layer 1
 62
   250
370
     9
100
AcDbSpline
210
0.0
220
0.0
230
1.0
 70
    11
 71
     3
 72
    47
 73
    43
 74
     0
 42
0.0000000001
 43
0.0000000001
 40
0.0
 40
0.0
 40
0.0
 40
0.0
 40
0.0714285714285714
 40
0.0714285714285714
 40
0.0714285714285714
 40
0.1428571428571428
 40
0.1428571428571428
 40
0.1428571428571428
 40
0.2142857142857143
 40
0.2142857142857143
 40
0.2142857142857143
 40
0.2857142857142857
 40
0.2857142857142857
 40
0.2857142857142857
 40
0.3571428571428571
 40
0.3571428571428571
 40
0.3571428571428571
 40
0.4285714285714285
 40
0.4285714285714285
 40
0.4285714285714285
 40
0.5
 40
0.5
 40
0.5
 40
0.5714285714285714
 40
0.5714285714285714
 40
0.5714285714285714
 40
0.6428571428571428
 40
0.6428571428571428
 40
0.6428571428571428
 40
0.7142857142857142
 40
0.7142857142857142
 40
0.7142857142857142
 40
0.7857142857142857
 40
0.7857142857142857
 40
0.7857142857142857
 40
0.8571428571428571
 40
0.8571428571428571
 40
0.8571428571428571
 40
0.9285714285714285
 40
0.9285714285714285
 40
0.9285714285714285
 40
1.0
 40
1.0
 40
1.0
 40
1.0
 10
393.462
 20
471.3299
 30
0.0
 10
393.462
 20
471.3299
 30
0.0
 10
390.2165
 20
481.5879
 30
0.0
 10
390.2165
 20
481.5879
 30
0.0
 10
390.2165
 20
481.5879
 30
0.0
 10
436.5178
 20
526.7219
 30
0.0
 10
438.1367
 20
537.9995
 30
0.0
 10
439.7634
 20
549.2849
 30
0.0
 10
443.0167
 20
588.2624
 30
0.0
 10
460.0694
 20
589.2898
 30
0.0
 10
477.9392
 20
582.1139
 30
0.0
 10
488.5009
 20
563.6446
 30
0.0
 10
503.9347
 20
569.7933
 30
0.0
 10
513.6273
 20
573.6645
 30
0.0
 10
521.7181
 20
585.2171
 30
0.0
 10
531.6259
 20
589.9734
 30
0.0
 10
531.6259
 20
589.9734
 30
0.0
 10
548.7616
 20
589.9734
 30
0.0
 10
548.7616
 20
589.9734
 30
0.0
 10
549.7698
 20
589.4942
 30
0.0
 10
550.7997
 20
588.929
 30
0.0
 10
551.8549
 20
588.2624
 30
0.0
 10
561.5993
 20
567.7463
 30
0.0
 10
567.2887
 20
532.8705
 30
0.0
 10
545.3638
 20
501.0767
 30
0.0
 10
542.1105
 20
479.5332
 30
0.0
 10
536.4211
 20
466.1931
 30
0.0
 10
528.2955
 20
465.1657
 30
0.0
 10
520.1701
 20
464.1462
 30
0.0
 10
511.243
 20
450.8138
 30
0.0
 10
503.1174
 20
430.2899
 30
0.0
 10
494.9919
 20
409.7738
 30
0.0
 10
490.1197
 20
434.3993
 30
0.0
 10
473.0671
 20
416.9576
 30
0.0
 10
473.0671
 20
416.9576
 30
0.0
 10
445.445
 20
421.067
 30
0.0
 10
436.5178
 20
429.2703
 30
0.0
 10
427.5829
 20
437.4737
 30
0.0
 10
422.703
 20
451.8412
 30
0.0
 10
413.7758
 20
453.8881
 30
0.0
 10
404.8331
 20
455.9351
 30
0.0
 10
393.462
 20
471.3299
 30
0.0
 10
393.462
 20
471.3299
 30
0.0
  0
SPLINE
  5
78
330
1F
100
AcDbEntity
  8
Layer 1
 62
   250
370
     9
100
AcDbSpline
210
0.0
220
0.0
230
1.0
 70
    11
 71
     3
 72
    53
 73
    49
 74
     0
 42
0.0000000001
 43
0.0000000001
 40
0.0
 40
0.0
 40
0.0
 40
0.0
 40
0.0625
 40
0.0625
 40
0.0625
 40
0.125
 40
0.125
 40
0.125
 40
0.1875
 40
0.1875
 40
0.1875
 40
0.25
 40
0.25
 40
0.25
 40
0.3125
 40
0.3125
 40
0.3125
 40
0.375
 40
0.375
 40
0.375
 40
0.4375
 40
0.4375
 40
0.4375
 40
0.5
 40
0.5
 40
0.5
 40
0.5625
 40
0.5625
 40
0.5625
 40
0.625
 40
0.625
 40
0.625
 40
0.6875
 40
0.6875
 40
0.6875
 40
0.75
 40
0.75
 40
0.75
 40
0.8125
 40
0.8125
 40
0.8125
 40
0.875
 40
0.875
 40
0.875
 40
0.9375
 40
0.9375
 40
0.9375
 40
1.0
 40
1.0
 40
1.0
 40
1.0
 10
743.1467
 20
-544.397
 30
0.0
 10
743.1467
 20
-544.397
 30
0.0
 10
735.8773
 20
-527.103
 30
0.0
 10
735.8773
 20
-527.103
 30
0.0
 10
735.8773
 20
-527.103
 30
0.0
 10
645.2281
 20
-349.9764
 30
0.0
 10
609.3249
 20
-319.3112
 30
0.0
 10
574.3245
 20
-278.4269
 30
0.0
 10
513.2977
 20
-198.9385
 30
0.0
 10
479.1923
 20
-197.81
 30
0.0
 10
457.6489
 20
-186.4545
 30
0.0
 10
439.7089
 20
-197.8178
 30
0.0
 10
472.0164
 20
-155.797
 30
0.0
 10
504.3237
 20
-113.7842
 30
0.0
 10
512.4026
 20
-89.9369
 30
0.0
 10
520.4736
 20
-72.9076
 30
0.0
 10
520.4736
 20
-72.9076
 30
0.0
 10
519.9366
 20
-48.2354
 30
0.0
 10
525.4703
 20
-46.4919
 30
0.0
 10
531.0041
 20
-44.7329
 30
0.0
 10
530.3036
 20
-72.7442
 30
0.0
 10
530.3036
 20
-78.8694
 30
0.0
 10
530.3036
 20
-85.0024
 30
0.0
 10
549.6834
 20
-70.993
 30
0.0
 10
551.061
 20
-87.6331
 30
0.0
 10
552.4463
 20
-104.2656
 30
0.0
 10
544.1574
 20
-111.2702
 30
0.0
 10
535.1602
 20
-116.516
 30
0.0
 10
526.163
 20
-121.7696
 30
0.0
 10
537.2305
 20
-142.7761
 30
0.0
 10
556.6025
 20
-163.7825
 30
0.0
 10
575.9745
 20
-184.7967
 30
0.0
 10
743.1467
 20
-332.7603
 30
0.0
 10
806.1037
 20
-474.2405
 30
0.0
 10
820.9227
 20
-525.6865
 30
0.0
 10
810.7347
 20
-537.3767
 30
0.0
 10
807.9639
 20
-545.5644
 30
0.0
 10
805.6556
 20
-552.3666
 30
0.0
 10
812.2955
 20
-580.1486
 30
0.0
 10
810.8917
 20
-590.0266
 30
0.0
 10
810.8917
 20
-590.0266
 30
0.0
 10
769.1407
 20
-590.0266
 30
0.0
 10
769.1407
 20
-590.0266
 30
0.0
 10
769.1407
 20
-590.0266
 30
0.0
 10
769.0798
 20
-589.9979
 30
0.0
 10
769.0798
 20
-589.9979
 30
0.0
 10
769.0798
 20
-589.9979
 30
0.0
 10
749.6377
 20
-560.7647
 30
0.0
 10
743.1467
 20
-544.397
 30
0.0
  0
SPLINE
  5
79
330
1F
100
AcDbEntity
  8
Layer 1
 62
   250
370
     9
100
AcDbSpline
210
0.0
220
0.0
230
1.0
 70
    11
 71
     3
 72
    32
 73
    28
 74
     0
 42
0.0000000001
 43
0.0000000001
 40
0.0
 40
0.0
 40
0.0
 40
0.0
 40
0.1111111111111111
 40
0.1111111111111111
 40
0.1111111111111111
 40
0.2222222222222222
 40
0.2222222222222222
 40
0.2222222222222222
 40
0.3333333333333333
 40
0.3333333333333333
 40
0.3333333333333333
 40
0.4444444444444444
 40
0.4444444444444444
 40
0.4444444444444444
 40
0.5555555555555556
 40
0.5555555555555556
 40
0.5555555555555556
 40
0.6666666666666666
 40
0.6666666666666666
 40
0.6666666666666666
 40
0.7777777777777777
 40
0.7777777777777777
 40
0.7777777777777777
 40
0.8888888888888888
 40
0.8888888888888888
 40
0.8888888888888888
 40
1.0
 40
1.0
 40
1.0
 40
1.0
 10
662.1982
 20
-590.0266
 30
0.0
 10
662.4867
 20
-586.0374
 30
0.0
 10
661.6992
 20
-581.2043
 30
0.0
 10
659.4711
 20
-575.3423
 30
0.0
 10
642.831
 20
-531.555
 30
0.0
 10
633.1255
 20
-497.4029
 30
0.0
 10
626.1907
 20
-483.3935
 30
0.0
 10
619.2561
 20
-469.3839
 30
0.0
 10
600.5301
 20
-401.0798
 30
0.0
 10
599.1369
 20
-392.3239
 30
0.0
 10
597.7515
 20
-383.568
 30
0.0
 10
567.2498
 20
-339.7806
 30
0.0
 10
559.6224
 20
-313.5128
 30
0.0
 10
539.5109
 20
-286.3655
 30
0.0
 10
502.0745
 20
-248.7111
 30
0.0
 10
502.0745
 20
-248.7111
 30
0.0
 10
502.0745
 20
-248.7111
 30
0.0
 10
479.1845
 20
-241.7064
 30
0.0
 10
506.9234
 20
-285.4938
 30
0.0
 10
534.6621
 20
-329.2734
 30
0.0
 10
571.4059
 20
-376.5555
 30
0.0
 10
585.968
 20
-443.1083
 30
0.0
 10
598.7061
 20
-506.6407
 30
0.0
 10
603.0262
 20
-569.3401
 30
0.0
 10
609.5713
 20
-590.0266
 30
0.0
 10
609.5713
 20
-590.0266
 30
0.0
 10
662.1982
 20
-590.0266
 30
0.0
 10
662.1982
 20
-590.0266
 30
0.0
  0
SPLINE
  5
7A
330
1F
100
AcDbEntity
  8
Layer 1
 62
   250
370
     9
100
AcDbSpline
210
0.0
220
0.0
230
1.0
 70
    11
 71
     3
 72
    32
 73
    28
 74
     0
 42
0.0000000001
 43
0.0000000001
 40
0.0
 40
0.0
 40
0.0
 40
0.0
 40
0.1111111111111111
 40
0.1111111111111111
 40
0.1111111111111111
 40
0.2222222222222222
 40
0.2222222222222222
 40
0.2222222222222222
 40
0.3333333333333333
 40
0.3333333333333333
 40
0.3333333333333333
 40
0.4444444444444444
 40
0.4444444444444444
 40
0.4444444444444444
 40
0.5555555555555556
 40
0.5555555555555556
 40
0.5555555555555556
 40
0.6666666666666666
 40
0.6666666666666666
 40
0.6666666666666666
 40
0.7777777777777777
 40
0.7777777777777777
 40
0.7777777777777777
 40
0.8888888888888888
 40
0.8888888888888888
 40
0.8888888888888888
 40
1.0
 40
1.0
 40
1.0
 40
1.0
 10
314.3997
 20
-590.0266
 30
0.0
 10
316.3033
 20
-582.5145
 30
0.0
 10
319.8099
 20
-572.4739
 30
0.0
 10
325.8196
 20
-559.0368
 30
0.0
 10
353.3249
 20
-511.9572
 30
0.0
 10
380.2931
 20
-471.6799
 30
0.0
 10
399.1748
 20
-413.6807
 30
0.0
 10
418.0487
 20
-355.6736
 30
0.0
 10
423.4423
 20
-315.4118
 30
0.0
 10
427.2171
 20
-306.547
 30
0.0
 10
430.9919
 20
-297.6743
 30
0.0
 10
432.6108
 20
-287.4318
 30
0.0
 10
432.6108
 20
-287.4318
 30
0.0
 10
432.6108
 20
-287.4318
 30
0.0
 10
443.3981
 20
-279.244
 30
0.0
 10
469.2923
 20
-331.7951
 30
0.0
 10
495.1787
 20
-384.3385
 30
0.0
 10
519.4463
 20
-434.8272
 30
0.0
 10
528.6147
 20
-449.1714
 30
0.0
 10
537.7831
 20
-463.4922
 30
0.0
 10
542.6475
 20
-490.1102
 30
0.0
 10
540.4838
 20
-506.4857
 30
0.0
 10
538.7559
 20
-519.6162
 30
0.0
 10
548.1099
 20
-567.3659
 30
0.0
 10
550.2262
 20
-590.0266
 30
0.0
 10
550.2262
 20
-590.0266
 30
0.0
 10
314.3997
 20
-590.0266
 30
0.0
 10
314.3997
 20
-590.0266
 30
0.0
  0
SPLINE
  5
7B
330
1F
100
AcDbEntity
  8
Layer 1
 62
   250
370
     9
100
AcDbSpline
210
0.0
220
0.0
230
1.0
 70
    11
 71
     3
 72
    26
 73
    22
 74
     0
 42
0.0000000001
 43
0.0000000001
 40
0.0
 40
0.0
 40
0.0
 40
0.0
 40
0.1428571428571428
 40
0.1428571428571428
 40
0.1428571428571428
 40
0.2857142857142857
 40
0.2857142857142857
 40
0.2857142857142857
 40
0.4285714285714285
 40
0.4285714285714285
 40
0.4285714285714285
 40
0.5714285714285714
 40
0.5714285714285714
 40
0.5714285714285714
 40
0.7142857142857142
 40
0.7142857142857142
 40
0.7142857142857142
 40
0.8571428571428571
 40
0.8571428571428571
 40
0.8571428571428571
 40
1.0
 40
1.0
 40
1.0
 40
1.0
 10
162.8451
 20
-590.0266
 30
0.0
 10
170.1525
 20
-578.1303
 30
0.0
 10
184.5251
 20
-561.0031
 30
0.0
 10
212.5061
 20
-537.5556
 30
0.0
 10
270.412
 20
-468.3644
 30
0.0
 10
315.2424
 20
-410.1705
 30
0.0
 10
338.8951
 20
-361.4174
 30
0.0
 10
362.5555
 20
-312.6722
 30
0.0
 10
376.8842
 20
-269.4218
 30
0.0
 10
389.3292
 20
-259.9887
 30
0.0
 10
401.7821
 20
-250.5479
 30
0.0
 10
401.7821
 20
-267.0558
 30
0.0
 10
376.8842
 20
-316.6026
 30
0.0
 10
356.3369
 20
-380.2914
 30
0.0
 10
327.6953
 20
-444.774
 30
0.0
 10
309.016
 20
-472.2948
 30
0.0
 10
290.5898
 20
-499.4427
 30
0.0
 10
258.2309
 20
-546.4935
 30
0.0
 10
254.3687
 20
-590.0266
 30
0.0
 10
254.3687
 20
-590.0266
 30
0.0
 10
162.8451
 20
-590.0266
 30
0.0
 10
162.8451
 20
-590.0266
 30
0.0
  0
SPLINE
  5
7C
330
1F
100
AcDbEntity
  8
Layer 1
 62
   250
370
     9
100
AcDbSpline
210
0.0
220
0.0
230
1.0
 70
    11
 71
     3
 72
    32
 73
    28
 74
     0
 42
0.0000000001
 43
0.0000000001
 40
0.0
 40
0.0
 40
0.0
 40
0.0
 40
0.1111111111111111
 40
0.1111111111111111
 40
0.1111111111111111
 40
0.2222222222222222
 40
0.2222222222222222
 40
0.2222222222222222
 40
0.3333333333333333
 40
0.3333333333333333
 40
0.3333333333333333
 40
0.4444444444444444
 40
0.4444444444444444
 40
0.4444444444444444
 40
0.5555555555555556
 40
0.5555555555555556
 40
0.5555555555555556
 40
0.6666666666666666
 40
0.6666666666666666
 40
0.6666666666666666
 40
0.7777777777777777
 40
0.7777777777777777
 40
0.7777777777777777
 40
0.8888888888888888
 40
0.8888888888888888
 40
0.8888888888888888
 40
1.0
 40
1.0
 40
1.0
 40
1.0
 10
134.2164
 20
-298.1335
 30
0.0
 10
126.7369
 20
-288.6849
 30
0.0
 10
144.2877
 20
-252.3536
 30
0.0
 10
227.5274
 20
-235.6356
 30
0.0
 10
262.5123
 20
-226.0858
 30
0.0
 10
285.1531
 20
-201.7871
 30
0.0
 10
291.3328
 20
-190.5017
 30
0.0
 10
297.5048
 20
-179.2085
 30
0.0
 10
338.6772
 20
-141.881
 30
0.0
 10
368.175
 20
-128.0038
 30
0.0
 10
397.6804
 20
-114.1033
 30
0.0
 10
399.7351
 20
-81.9905
 30
0.0
 10
425.1313
 20
-74.1762
 30
0.0
 10
446.3946
 20
-52.4771
 30
0.0
 10
442.9622
 20
-36.8487
 30
0.0
 10
455.3061
 20
-34.2414
 30
0.0
 10
467.6656
 20
-31.6419
 30
0.0
 10
466.2881
 20
-54.2127
 30
0.0
 10
450.5118
 20
-70.705
 30
0.0
 10
434.7278
 20
-87.1895
 30
0.0
 10
372.2921
 20
-169.6586
 30
0.0
 10
311.2263
 20
-212.193
 30
0.0
 10
243.9886
 20
-251.264
 30
0.0
 10
228.8973
 20
-263.4133
 30
0.0
 10
179.4982
 20
-277.306
 30
0.0
 10
139.0185
 20
-301.6125
 30
0.0
 10
146.5604
 20
-299.0052
 30
0.0
 10
134.2164
 20
-298.1335
 30
0.0
  0
SPLINE
  5
7D
330
1F
100
AcDbEntity
  8
Layer 1
 62
   250
370
     9
100
AcDbSpline
210
0.0
220
0.0
230
1.0
 70
    11
 71
     3
 72
    47
 73
    43
 74
     0
 42
0.0000000001
 43
0.0000000001
 40
0.0
 40
0.0
 40
0.0
 40
0.0
 40
0.0714285714285714
 40
0.0714285714285714
 40
0.0714285714285714
 40
0.1428571428571428
 40
0.1428571428571428
 40
0.1428571428571428
 40
0.2142857142857143
 40
0.2142857142857143
 40
0.2142857142857143
 40
0.2857142857142857
 40
0.2857142857142857
 40
0.2857142857142857
 40
0.3571428571428571
 40
0.3571428571428571
 40
0.3571428571428571
 40
0.4285714285714285
 40
0.4285714285714285
 40
0.4285714285714285
 40
0.5
 40
0.5
 40
0.5
 40
0.5714285714285714
 40
0.5714285714285714
 40
0.5714285714285714
 40
0.6428571428571428
 40
0.6428571428571428
 40
0.6428571428571428
 40
0.7142857142857142
 40
0.7142857142857142
 40
0.7142857142857142
 40
0.7857142857142857
 40
0.7857142857142857
 40
0.7857142857142857
 40
0.8571428571428571
 40
0.8571428571428571
 40
0.8571428571428571
 40
0.9285714285714285
 40
0.9285714285714285
 40
0.9285714285714285
 40
1.0
 40
1.0
 40
1.0
 40
1.0
 10
1.064
 20
-548.3507
 30
0.0
 10
-7.5673
 20
-544.2958
 30
0.0
 10
-8.3068
 20
-547.409
 30
0.0
 10
-7.4895
 20
-535.0339
 30
0.0
 10
-7.4895
 20
-535.0339
 30
0.0
 10
3.3366
 20
-522.5655
 30
0.0
 10
9.2284
 20
-499.59
 30
0.0
 10
9.2284
 20
-499.59
 30
0.0
 10
27.8688
 20
-425.6821
 30
0.0
 10
30.8186
 20
-417.6033
 30
0.0
 10
33.7606
 20
-409.5245
 30
0.0
 10
58.7986
 20
-371.0217
 30
0.0
 10
93.1608
 20
-364.1882
 30
0.0
 10
93.1608
 20
-364.1882
 30
0.0
 10
101.8934
 20
-360.0788
 30
0.0
 10
114.7355
 20
-353.8601
 30
0.0
 10
114.7666
 20
-353.8523
 30
0.0
 10
114.7899
 20
-353.829
 30
0.0
 10
114.8211
 20
-353.8212
 30
0.0
 10
137.9678
 20
-342.5981
 30
0.0
 10
174.3614
 20
-324.5336
 30
0.0
 10
197.0413
 20
-311.1701
 30
0.0
 10
232.3373
 20
-290.3894
 30
0.0
 10
304.7664
 20
-249.5673
 30
0.0
 10
343.7128
 20
-228.016
 30
0.0
 10
382.6669
 20
-206.457
 30
0.0
 10
386.9321
 20
-227.2377
 30
0.0
 10
349.1998
 20
-269.593
 30
0.0
 10
311.4599
 20
-330.4332
 30
0.0
 10
282.2423
 20
-402.0372
 30
0.0
 10
248.168
 20
-431.3014
 30
0.0
 10
219.8689
 20
-455.6001
 30
0.0
 10
192.8306
 20
-501.1154
 30
0.0
 10
114.8211
 20
-528.6518
 30
0.0
 10
114.7899
 20
-528.6596
 30
0.0
 10
114.7588
 20
-528.6675
 30
0.0
 10
114.7355
 20
-528.683
 30
0.0
 10
98.788
 20
-534.3023
 30
0.0
 10
80.7391
 20
-539.1745
 30
0.0
 10
60.0985
 20
-542.9571
 30
0.0
 10
60.0985
 20
-542.9571
 30
0.0
 10
24.7946
 20
-549.1213
 30
0.0
 10
1.064
 20
-548.3507
 30
0.0
  0
SPLINE
  5
7E
330
1F
100
AcDbEntity
  8
Layer 1
 62
   250
370
     9
100
AcDbSpline
210
0.0
220
0.0
230
1.0
 70
    11
 71
     3
 72
    26
 73
    22
 74
     0
 42
0.0000000001
 43
0.0000000001
 40
0.0
 40
0.0
 40
0.0
 40
0.0
 40
0.1428571428571428
 40
0.1428571428571428
 40
0.1428571428571428
 40
0.2857142857142857
 40
0.2857142857142857
 40
0.2857142857142857
 40
0.4285714285714285
 40
0.4285714285714285
 40
0.4285714285714285
 40
0.5714285714285714
 40
0.5714285714285714
 40
0.5714285714285714
 40
0.7142857142857142
 40
0.7142857142857142
 40
0.7142857142857142
 40
0.8571428571428571
 40
0.8571428571428571
 40
0.8571428571428571
 40
1.0
 40
1.0
 40
1.0
 40
1.0
 10
298.8824
 20
544.9109
 30
0.0
 10
298.8824
 20
544.9109
 30
0.0
 10
284.6472
 20
564.7266
 30
0.0
 10
284.6472
 20
564.7266
 30
0.0
 10
284.6472
 20
564.7266
 30
0.0
 10
371.4749
 20
561.7223
 30
0.0
 10
383.8111
 20
565.318
 30
0.0
 10
396.1472
 20
568.9216
 30
0.0
 10
405.6347
 20
552.7173
 30
0.0
 10
391.8743
 20
530.5045
 30
0.0
 10
378.1139
 20
508.2916
 30
0.0
 10
373.8487
 20
495.6908
 30
0.0
 10
362.4622
 20
495.6908
 30
0.0
 10
351.0755
 20
495.6908
 30
0.0
 10
351.0755
 20
499.2944
 30
0.0
 10
349.6435
 20
508.8987
 30
0.0
 10
348.2269
 20
518.503
 30
0.0
 10
348.6939
 20
531.7031
 30
0.0
 10
330.1936
 20
526.3016
 30
0.0
 10
330.1936
 20
526.3016
 30
0.0
 10
317.3827
 20
525.7101
 30
0.0
 10
298.8824
 20
544.9109
 30
0.0
  0
SPLINE
  5
7F
330
1F
100
AcDbEntity
  8
Layer 1
 62
   250
370
     9
100
AcDbSpline
210
0.0
220
0.0
230
1.0
 70
    11
 71
     3
 72
    44
 73
    40
 74
     0
 42
0.0000000001
 43
0.0000000001
 40
0.0
 40
0.0
 40
0.0
 40
0.0
 40
0.0769230769230769
 40
0.0769230769230769
 40
0.0769230769230769
 40
0.1538461538461539
 40
0.1538461538461539
 40
0.1538461538461539
 40
0.2307692307692308
 40
0.2307692307692308
 40
0.2307692307692308
 40
0.3076923076923077
 40
0.3076923076923077
 40
0.3076923076923077
 40
0.3846153846153846
 40
0.3846153846153846
 40
0.3846153846153846
 40
0.4615384615384616
 40
0.4615384615384616
 40
0.4615384615384616
 40
0.5384615384615385
 40
0.5384615384615385
 40
0.5384615384615385
 40
0.6153846153846154
 40
0.6153846153846154
 40
0.6153846153846154
 40
0.6923076923076923
 40
0.6923076923076923
 40
0.6923076923076923
 40
0.7692307692307693
 40
0.7692307692307693
 40
0.7692307692307693
 40
0.8461538461538463
 40
0.8461538461538463
 40
0.8461538461538463
 40
0.9230769230769231
 40
0.9230769230769231
 40
0.9230769230769231
 40
1.0
 40
1.0
 40
1.0
 40
1.0
 10
345.892
 20
174.0485
 30
0.0
 10
345.892
 20
174.0485
 30
0.0
 10
374.0978
 20
264.2697
 30
0.0
 10
380.4799
 20
288.5061
 30
0.0
 10
386.862
 20
312.7503
 30
0.0
 10
390.0609
 20
297.262
 30
0.0
 10
396.98
 20
314.0968
 30
0.0
 10
403.8991
 20
330.9237
 30
0.0
 10
392.7227
 20
335.6402
 30
0.0
 10
390.0609
 20
349.1049
 30
0.0
 10
387.3991
 20
362.5696
 30
0.0
 10
378.8844
 20
352.475
 30
0.0
 10
381.5462
 20
374.6955
 30
0.0
 10
381.5462
 20
374.6955
 30
0.0
 10
369.3035
 20
397.5855
 30
0.0
 10
370.3698
 20
406.3337
 30
0.0
 10
371.436
 20
415.0819
 30
0.0
 10
375.1719
 20
422.4912
 30
0.0
 10
391.1193
 20
395.5697
 30
0.0
 10
407.0824
 20
368.6326
 30
0.0
 10
416.6633
 20
363.9161
 30
0.0
 10
421.9869
 20
342.3648
 30
0.0
 10
427.3183
 20
320.8214
 30
0.0
 10
423.5902
 20
327.5537
 30
0.0
 10
434.2297
 20
320.8214
 30
0.0
 10
444.869
 20
314.0968
 30
0.0
 10
442.2072
 20
312.7503
 30
0.0
 10
445.9276
 20
306.6873
 30
0.0
 10
449.6635
 20
300.6243
 30
0.0
 10
465.0894
 20
297.262
 30
0.0
 10
463.5017
 20
289.8526
 30
0.0
 10
461.8984
 20
282.4431
 30
0.0
 10
440.6117
 20
261.5689
 30
0.0
 10
434.7589
 20
250.1278
 30
0.0
 10
428.906
 20
238.6867
 30
0.0
 10
379.9507
 20
187.5133
 30
0.0
 10
371.973
 20
173.3792
 30
0.0
 10
362.361
 20
156.3655
 30
0.0
 10
351.7683
 20
155.4704
 30
0.0
 10
345.892
 20
174.0485
 30
0.0
  0
SPLINE
  5
80
330
1F
100
AcDbEntity
  8
Layer 1
 62
   250
370
     9
100
AcDbSpline
210
0.0
220
0.0
230
1.0
 70
    11
 71
     3
 72
    50
 73
    46
 74
     0
 42
0.0000000001
 43
0.0000000001
 40
0.0
 40
0.0
 40
0.0
 40
0.0
 40
0.0666666666666667
 40
0.0666666666666667
 40
0.0666666666666667
 40
0.1333333333333333
 40
0.1333333333333333
 40
0.1333333333333333
 40
0.2
 40
0.2
 40
0.2
 40
0.2666666666666667
 40
0.2666666666666667
 40
0.2666666666666667
 40
0.3333333333333333
 40
0.3333333333333333
 40
0.3333333333333333
 40
0.4
 40
0.4
 40
0.4
 40
0.4666666666666667
 40
0.4666666666666667
 40
0.4666666666666667
 40
0.5333333333333333
 40
0.5333333333333333
 40
0.5333333333333333
 40
0.6
 40
0.6
 40
0.6
 40
0.6666666666666666
 40
0.6666666666666666
 40
0.6666666666666666
 40
0.7333333333333333
 40
0.7333333333333333
 40
0.7333333333333333
 40
0.8
 40
0.8
 40
0.8
 40
0.8666666666666667
 40
0.8666666666666667
 40
0.8666666666666667
 40
0.9333333333333333
 40
0.9333333333333333
 40
0.9333333333333333
 40
1.0
 40
1.0
 40
1.0
 40
1.0
 10
463.4472
 20
73.0479
 30
0.0
 10
463.4472
 20
73.0479
 30
0.0
 10
464.8715
 20
70.355
 30
0.0
 10
464.8715
 20
70.355
 30
0.0
 10
464.8715
 20
70.355
 30
0.0
 10
471.2614
 20
26.4041
 30
0.0
 10
471.2614
 20
26.4041
 30
0.0
 10
471.2614
 20
26.4041
 30
0.0
 10
450.6596
 20
-1.4048
 30
0.0
 10
441.429
 20
-7.6934
 30
0.0
 10
432.1905
 20
-13.9666
 30
0.0
 10
422.9521
 20
-34.6072
 30
0.0
 10
422.9521
 20
-34.6072
 30
0.0
 10
376.783
 20
-67.7941
 30
0.0
 10
324.9323
 20
-135.0786
 30
0.0
 10
287.9861
 20
-158.4122
 30
0.0
 10
251.0478
 20
-181.7302
 30
0.0
 10
187.826
 20
-224.8016
 30
0.0
 10
149.4635
 20
-240.0408
 30
0.0
 10
135.8353
 20
-245.4656
 30
0.0
 10
124.1918
 20
-257.0
 30
0.0
 10
114.8211
 20
-269.6242
 30
0.0
 10
114.7899
 20
-269.6553
 30
0.0
 10
114.7666
 20
-269.6865
 30
0.0
 10
114.7432
 20
-269.7176
 30
0.0
 10
97.7918
 20
-292.5997
 30
0.0
 10
88.382
 20
-318.9921
 30
0.0
 10
88.382
 20
-318.9921
 30
0.0
 10
42.7344
 20
-343.9679
 30
0.0
 10
52.6112
 20
-331.4371
 30
0.0
 10
64.2157
 20
-282.2172
 30
0.0
 10
73.3608
 20
-243.4731
 30
0.0
 10
86.1639
 20
-234.5927
 30
0.0
 10
114.751
 20
-224.2567
 30
0.0
 10
114.7744
 20
-224.2412
 30
0.0
 10
114.7899
 20
-224.2335
 30
0.0
 10
114.8211
 20
-224.2257
 30
0.0
 10
122.5419
 20
-221.4393
 30
0.0
 10
131.399
 20
-218.5441
 30
0.0
 10
141.6492
 20
-214.9249
 30
0.0
 10
188.5421
 20
-199.678
 30
0.0
 10
226.897
 20
-171.8613
 30
0.0
 10
226.897
 20
-171.8613
 30
0.0
 10
349.0831
 20
-98.3037
 30
0.0
 10
463.4472
 20
73.0479
 30
0.0
 10
463.4472
 20
73.0479
 30
0.0
  0
SPLINE
  5
81
330
1F
100
AcDbEntity
  8
Layer 1
 62
   250
370
     9
100
AcDbSpline
210
0.0
220
0.0
230
1.0
 70
    11
 71
     3
 72
    59
 73
    55
 74
     0
 42
0.0000000001
 43
0.0000000001
 40
0.0
 40
0.0
 40
0.0
 40
0.0
 40
0.0555555555555556
 40
0.0555555555555556
 40
0.0555555555555556
 40
0.1111111111111111
 40
0.1111111111111111
 40
0.1111111111111111
 40
0.1666666666666667
 40
0.1666666666666667
 40
0.1666666666666667
 40
0.2222222222222222
 40
0.2222222222222222
 40
0.2222222222222222
 40
0.2777777777777778
 40
0.2777777777777778
 40
0.2777777777777778
 40
0.3333333333333333
 40
0.3333333333333333
 40
0.3333333333333333
 40
0.3888888888888888
 40
0.3888888888888888
 40
0.3888888888888888
 40
0.4444444444444444
 40
0.4444444444444444
 40
0.4444444444444444
 40
0.5
 40
0.5
 40
0.5
 40
0.5555555555555556
 40
0.5555555555555556
 40
0.5555555555555556
 40
0.611111111111111
 40
0.611111111111111
 40
0.611111111111111
 40
0.6666666666666666
 40
0.6666666666666666
 40
0.6666666666666666
 40
0.7222222222222222
 40
0.7222222222222222
 40
0.7222222222222222
 40
0.7777777777777777
 40
0.7777777777777777
 40
0.7777777777777777
 40
0.8333333333333333
 40
0.8333333333333333
 40
0.8333333333333333
 40
0.8888888888888888
 40
0.8888888888888888
 40
0.8888888888888888
 40
0.9444444444444444
 40
0.9444444444444444
 40
0.9444444444444444
 40
1.0
 40
1.0
 40
1.0
 40
1.0
 10
80.5601
 20
-198.775
 30
0.0
 10
80.5601
 20
-198.775
 30
0.0
 10
77.7193
 20
-195.1871
 30
0.0
 10
77.7193
 20
-195.1871
 30
0.0
 10
77.7193
 20
-195.1871
 30
0.0
 10
85.5334
 20
-155.7192
 30
0.0
 10
93.3476
 20
-144.9475
 30
0.0
 10
96.1028
 20
-141.1493
 30
0.0
 10
104.3606
 20
-131.4206
 30
0.0
 10
114.751
 20
-117.6991
 30
0.0
 10
114.7744
 20
-117.6679
 30
0.0
 10
114.7977
 20
-117.6368
 30
0.0
 10
114.8211
 20
-117.6056
 30
0.0
 10
133.8662
 20
-92.4586
 30
0.0
 10
160.0562
 20
-53.9714
 30
0.0
 10
172.906
 20
-13.9666
 30
0.0
 10
216.242
 20
-3.2104
 30
0.0
 10
322.792
 20
27.2992
 30
0.0
 10
370.3853
 20
65.872
 30
0.0
 10
370.3853
 20
65.872
 30
0.0
 10
388.8545
 20
77.5388
 30
0.0
 10
393.1196
 20
84.7147
 30
0.0
 10
397.3847
 20
91.8907
 30
0.0
 10
355.473
 20
95.4709
 30
0.0
 10
344.1097
 20
114.3137
 30
0.0
 10
332.7464
 20
133.1564
 30
0.0
 10
341.2689
 20
131.3664
 30
0.0
 10
366.8362
 20
136.7444
 30
0.0
 10
366.8362
 20
136.7444
 30
0.0
 10
398.809
 20
166.3512
 30
0.0
 10
417.2704
 20
169.044
 30
0.0
 10
435.7396
 20
171.7292
 30
0.0
 10
435.0313
 20
193.2649
 30
0.0
 10
447.1106
 20
200.4487
 30
0.0
 10
457.0573
 20
178.0102
 30
0.0
 10
454.2165
 20
132.2613
 30
0.0
 10
450.6596
 20
113.4186
 30
0.0
 10
437.8799
 20
87.4076
 30
0.0
 10
393.8278
 20
27.2992
 30
0.0
 10
373.9344
 20
2.1755
 30
0.0
 10
354.0487
 20
-22.9404
 30
0.0
 10
254.6046
 20
-114.4457
 30
0.0
 10
200.6136
 20
-149.4384
 30
0.0
 10
160.7488
 20
-175.2781
 30
0.0
 10
134.4421
 20
-189.8557
 30
0.0
 10
114.8211
 20
-196.4402
 30
0.0
 10
114.7899
 20
-196.448
 30
0.0
 10
114.7744
 20
-196.4635
 30
0.0
 10
114.751
 20
-196.4713
 30
0.0
 10
107.8241
 20
-198.7829
 30
0.0
 10
101.7378
 20
-200.1059
 30
0.0
 10
96.1884
 20
-200.5729
 30
0.0
 10
74.8784
 20
-202.3708
 30
0.0
 10
80.5601
 20
-198.775
 30
0.0
 10
80.5601
 20
-198.775
 30
0.0
  0
SPLINE
  5
82
330
1F
100
AcDbEntity
  8
Layer 1
 62
   250
370
     9
100
AcDbSpline
210
0.0
220
0.0
230
1.0
 70
    11
 71
     3
 72
    35
 73
    31
 74
     0
 42
0.0000000001
 43
0.0000000001
 40
0.0
 40
0.0
 40
0.0
 40
0.0
 40
0.1
 40
0.1
 40
0.1
 40
0.2
 40
0.2
 40
0.2
 40
0.3
 40
0.3
 40
0.3
 40
0.4
 40
0.4
 40
0.4
 40
0.5
 40
0.5
 40
0.5
 40
0.6000000000000001
 40
0.6000000000000001
 40
0.6000000000000001
 40
0.7000000000000001
 40
0.7000000000000001
 40
0.7000000000000001
 40
0.8
 40
0.8
 40
0.8
 40
0.9
 40
0.9
 40
0.9
 40
1.0
 40
1.0
 40
1.0
 40
1.0
 10
231.8703
 20
141.2353
 30
0.0
 10
231.8703
 20
141.2353
 30
0.0
 10
224.0562
 20
142.1303
 30
0.0
 10
224.0562
 20
142.1303
 30
0.0
 10
224.0562
 20
142.1303
 30
0.0
 10
204.1705
 20
132.2613
 30
0.0
 10
191.3751
 20
96.3816
 30
0.0
 10
178.5954
 20
60.4861
 30
0.0
 10
191.3751
 20
33.5801
 30
0.0
 10
191.3751
 20
33.5801
 30
0.0
 10
191.3751
 20
33.5801
 30
0.0
 10
194.2237
 20
15.6324
 30
0.0
 10
221.9236
 20
38.0553
 30
0.0
 10
221.9236
 20
38.0553
 30
0.0
 10
241.1011
 20
42.554
 30
0.0
 10
250.3317
 20
39.861
 30
0.0
 10
259.578
 20
37.1603
 30
0.0
 10
268.0927
 20
56.0031
 30
0.0
 10
277.3311
 20
62.284
 30
0.0
 10
286.5696
 20
68.5649
 30
0.0
 10
290.8269
 20
73.9507
 30
0.0
 10
300.0654
 20
67.6699
 30
0.0
 10
309.3039
 20
61.3889
 30
0.0
 10
317.1103
 20
83.8196
 30
0.0
 10
297.2246
 20
90.9957
 30
0.0
 10
277.3311
 20
98.1716
 30
0.0
 10
264.5436
 20
109.8306
 30
0.0
 10
253.8886
 20
120.5946
 30
0.0
 10
243.2414
 20
131.3664
 30
0.0
 10
231.8703
 20
141.2353
 30
0.0
 10
231.8703
 20
141.2353
 30
0.0
  0
SPLINE
  5
83
330
1F
100
AcDbEntity
  8
Layer 1
 62
   250
370
     9
100
AcDbSpline
210
0.0
220
0.0
230
1.0
 70
    11
 71
     3
 72
    44
 73
    40
 74
     0
 42
0.0000000001
 43
0.0000000001
 40
0.0
 40
0.0
 40
0.0
 40
0.0
 40
0.0769230769230769
 40
0.0769230769230769
 40
0.0769230769230769
 40
0.1538461538461539
 40
0.1538461538461539
 40
0.1538461538461539
 40
0.2307692307692308
 40
0.2307692307692308
 40
0.2307692307692308
 40
0.3076923076923077
 40
0.3076923076923077
 40
0.3076923076923077
 40
0.3846153846153846
 40
0.3846153846153846
 40
0.3846153846153846
 40
0.4615384615384616
 40
0.4615384615384616
 40
0.4615384615384616
 40
0.5384615384615385
 40
0.5384615384615385
 40
0.5384615384615385
 40
0.6153846153846154
 40
0.6153846153846154
 40
0.6153846153846154
 40
0.6923076923076923
 40
0.6923076923076923
 40
0.6923076923076923
 40
0.7692307692307693
 40
0.7692307692307693
 40
0.7692307692307693
 40
0.8461538461538463
 40
0.8461538461538463
 40
0.8461538461538463
 40
0.9230769230769231
 40
0.9230769230769231
 40
0.9230769230769231
 40
1.0
 40
1.0
 40
1.0
 40
1.0
 10
242.5176
 20
250.6805
 30
0.0
 10
242.5176
 20
250.6805
 30
0.0
 10
232.6798
 20
259.2885
 30
0.0
 10
232.6798
 20
259.2885
 30
0.0
 10
232.6798
 20
259.2885
 30
0.0
 10
214.1095
 20
274.0141
 30
0.0
 10
208.4278
 20
306.3059
 30
0.0
 10
194.2237
 20
329.6317
 30
0.0
 10
189.2504
 20
336.8
 30
0.0
 10
189.2504
 20
342.1858
 30
0.0
 10
189.2504
 20
347.5717
 30
0.0
 10
177.1789
 20
363.7215
 30
0.0
 10
170.7812
 20
378.0656
 30
0.0
 10
164.3835
 20
392.4254
 30
0.0
 10
186.4018
 20
396.9084
 30
0.0
 10
196.3563
 20
387.9424
 30
0.0
 10
196.3563
 20
387.9424
 30
0.0
 10
206.2953
 20
393.3204
 30
0.0
 10
229.7378
 20
388.8373
 30
0.0
 10
253.1803
 20
384.3621
 30
0.0
 10
246.7905
 20
395.1183
 30
0.0
 10
302.198
 20
350.2646
 30
0.0
 10
302.198
 20
350.2646
 30
0.0
 10
375.3664
 20
331.4218
 30
0.0
 10
335.5795
 20
248.8904
 30
0.0
 10
335.5795
 20
248.8904
 30
0.0
 10
312.8529
 20
190.572
 30
0.0
 10
304.3227
 20
186.984
 30
0.0
 10
295.8004
 20
183.396
 30
0.0
 10
275.9146
 20
178.0102
 30
0.0
 10
258.8619
 20
178.0102
 30
0.0
 10
241.8093
 20
178.0102
 30
0.0
 10
223.3401
 20
189.677
 30
0.0
 10
241.1011
 20
207.6168
 30
0.0
 10
241.1011
 20
207.6168
 30
0.0
 10
255.3129
 20
218.3808
 30
0.0
 10
260.2863
 20
225.5568
 30
0.0
 10
265.2519
 20
232.7405
 30
0.0
 10
253.1803
 20
244.3995
 30
0.0
 10
242.5176
 20
250.6805
 30
0.0
  0
SPLINE
  5
84
330
1F
100
AcDbEntity
  8
Layer 1
 62
   250
370
     9
100
AcDbSpline
210
0.0
220
0.0
230
1.0
 70
    11
 71
     3
 72
    44
 73
    40
 74
     0
 42
0.0000000001
 43
0.0000000001
 40
0.0
 40
0.0
 40
0.0
 40
0.0
 40
0.0769230769230769
 40
0.0769230769230769
 40
0.0769230769230769
 40
0.1538461538461539
 40
0.1538461538461539
 40
0.1538461538461539
 40
0.2307692307692308
 40
0.2307692307692308
 40
0.2307692307692308
 40
0.3076923076923077
 40
0.3076923076923077
 40
0.3076923076923077
 40
0.3846153846153846
 40
0.3846153846153846
 40
0.3846153846153846
 40
0.4615384615384616
 40
0.4615384615384616
 40
0.4615384615384616
 40
0.5384615384615385
 40
0.5384615384615385
 40
0.5384615384615385
 40
0.6153846153846154
 40
0.6153846153846154
 40
0.6153846153846154
 40
0.6923076923076923
 40
0.6923076923076923
 40
0.6923076923076923
 40
0.7692307692307693
 40
0.7692307692307693
 40
0.7692307692307693
 40
0.8461538461538463
 40
0.8461538461538463
 40
0.8461538461538463
 40
0.9230769230769231
 40
0.9230769230769231
 40
0.9230769230769231
 40
1.0
 40
1.0
 40
1.0
 40
1.0
 10
98.473
 20
589.9734
 30
0.0
 10
103.5113
 20
588.2007
 30
0.0
 10
108.9412
 20
586.0623
 30
0.0
 10
114.7822
 20
583.4837
 30
0.0
 10
114.7977
 20
583.4758
 30
0.0
 10
114.8055
 20
583.4681
 30
0.0
 10
114.8211
 20
583.4681
 30
0.0
 10
122.4173
 20
580.1136
 30
0.0
 10
130.6985
 20
576.0276
 30
0.0
 10
139.6957
 20
571.0464
 30
0.0
 10
139.6957
 20
571.0464
 30
0.0
 10
201.2363
 20
566.361
 30
0.0
 10
248.6973
 20
521.4139
 30
0.0
 10
248.6973
 20
521.4139
 30
0.0
 10
324.3252
 20
488.6394
 30
0.0
 10
330.9952
 20
411.8441
 30
0.0
 10
330.9952
 20
411.8441
 30
0.0
 10
314.682
 20
414.6616
 30
0.0
 10
268.7153
 20
467.1037
 30
0.0
 10
268.7153
 20
467.1037
 30
0.0
 10
181.2105
 20
512.0431
 30
0.0
 10
147.1129
 20
500.8122
 30
0.0
 10
133.119
 20
500.3841
 30
0.0
 10
123.0555
 20
501.139
 30
0.0
 10
114.8211
 20
504.2834
 30
0.0
 10
114.8055
 20
504.2834
 30
0.0
 10
114.7899
 20
504.2911
 30
0.0
 10
114.7822
 20
504.2911
 30
0.0
 10
105.139
 20
507.9726
 30
0.0
 10
98.0019
 20
514.915
 30
0.0
 10
90.0087
 20
527.0332
 30
0.0
 10
56.6506
 20
549.5107
 30
0.0
 10
26.25
 20
559.8077
 30
0.0
 10
6.2242
 20
559.8077
 30
0.0
 10
3.5826
 20
579.8838
 30
0.0
 10
20.4484
 20
579.0373
 30
0.0
 10
29.3674
 20
589.9734
 30
0.0
 10
29.3674
 20
589.9734
 30
0.0
 10
98.473
 20
589.9734
 30
0.0
 10
98.473
 20
589.9734
 30
0.0
  0
SPLINE
  5
85
330
1F
100
AcDbEntity
  8
Layer 1
 62
   250
370
     9
100
AcDbSpline
210
0.0
220
0.0
230
1.0
 70
    11
 71
     3
 72
    41
 73
    37
 74
     0
 42
0.0000000001
 43
0.0000000001
 40
0.0
 40
0.0
 40
0.0
 40
0.0
 40
0.0833333333333333
 40
0.0833333333333333
 40
0.0833333333333333
 40
0.1666666666666667
 40
0.1666666666666667
 40
0.1666666666666667
 40
0.25
 40
0.25
 40
0.25
 40
0.3333333333333333
 40
0.3333333333333333
 40
0.3333333333333333
 40
0.4166666666666666
 40
0.4166666666666666
 40
0.4166666666666666
 40
0.5
 40
0.5
 40
0.5
 40
0.5833333333333333
 40
0.5833333333333333
 40
0.5833333333333333
 40
0.6666666666666666
 40
0.6666666666666666
 40
0.6666666666666666
 40
0.75
 40
0.75
 40
0.75
 40
0.8333333333333333
 40
0.8333333333333333
 40
0.8333333333333333
 40
0.9166666666666666
 40
0.9166666666666666
 40
0.9166666666666666
 40
1.0
 40
1.0
 40
1.0
 40
1.0
 10
-14.0817
 20
-118.9288
 30
0.0
 10
-14.0817
 20
-118.9288
 30
0.0
 10
11.4232
 20
-96.3423
 30
0.0
 10
11.4232
 20
-96.3423
 30
0.0
 10
11.4232
 20
-96.3423
 30
0.0
 10
44.5712
 20
-55.2168
 30
0.0
 10
56.6817
 20
-6.8217
 30
0.0
 10
87.2769
 20
35.9383
 30
0.0
 10
96.8423
 20
60.9375
 30
0.0
 10
105.7694
 20
74.6513
 30
0.0
 10
105.7694
 20
74.6513
 30
0.0
 10
109.3885
 20
80.8154
 30
0.0
 10
114.7588
 20
87.6956
 30
0.0
 10
114.7822
 20
87.719
 30
0.0
 10
114.7977
 20
87.7423
 30
0.0
 10
114.8211
 20
87.7657
 30
0.0
 10
121.569
 20
96.3971
 30
0.0
 10
131.0565
 20
106.1026
 30
0.0
 10
139.5556
 20
106.1026
 30
0.0
 10
154.857
 20
106.1026
 30
0.0
 10
163.7843
 20
85.9366
 30
0.0
 10
133.8117
 20
49.6365
 30
0.0
 10
133.8117
 20
49.6365
 30
0.0
 10
129.2975
 20
32.5061
 30
0.0
 10
114.8211
 20
7.0087
 30
0.0
 10
114.7977
 20
6.9776
 30
0.0
 10
114.7822
 20
6.9387
 30
0.0
 10
114.7588
 20
6.8998
 30
0.0
 10
107.4816
 20
-5.8955
 30
0.0
 10
97.7062
 20
-20.7768
 30
0.0
 10
84.724
 20
-36.6619
 30
0.0
 10
47.7467
 20
-90.6997
 30
0.0
 10
20.3426
 20
-134.2536
 30
0.0
 10
3.1343
 20
-151.1972
 30
0.0
 10
-14.0817
 20
-168.1332
 30
0.0
 10
-44.0465
 20
-142.3169
 30
0.0
 10
-14.0817
 20
-118.9288
 30
0.0
  0
SPLINE
  5
86
330
1F
100
AcDbEntity
  8
Layer 1
 62
   250
370
     9
100
AcDbSpline
210
0.0
220
0.0
230
1.0
 70
    11
 71
     3
 72
    38
 73
    34
 74
     0
 42
0.0000000001
 43
0.0000000001
 40
0.0
 40
0.0
 40
0.0
 40
0.0
 40
0.0909090909090909
 40
0.0909090909090909
 40
0.0909090909090909
 40
0.1818181818181818
 40
0.1818181818181818
 40
0.1818181818181818
 40
0.2727272727272727
 40
0.2727272727272727
 40
0.2727272727272727
 40
0.3636363636363636
 40
0.3636363636363636
 40
0.3636363636363636
 40
0.4545454545454546
 40
0.4545454545454546
 40
0.4545454545454546
 40
0.5454545454545454
 40
0.5454545454545454
 40
0.5454545454545454
 40
0.6363636363636364
 40
0.6363636363636364
 40
0.6363636363636364
 40
0.7272727272727273
 40
0.7272727272727273
 40
0.7272727272727273
 40
0.8181818181818182
 40
0.8181818181818182
 40
0.8181818181818182
 40
0.9090909090909092
 40
0.9090909090909092
 40
0.9090909090909092
 40
1.0
 40
1.0
 40
1.0
 40
1.0
 10
-105.8207
 20
585.8419
 30
0.0
 10
-105.8207
 20
585.8419
 30
0.0
 10
-124.1263
 20
587.7722
 30
0.0
 10
-124.1263
 20
587.7722
 30
0.0
 10
-124.1263
 20
587.7722
 30
0.0
 10
-175.9614
 20
584.8847
 30
0.0
 10
-227.0494
 20
581.0242
 30
0.0
 10
-278.1452
 20
577.1638
 30
0.0
 10
-282.706
 20
581.9816
 30
0.0
 10
-295.6726
 20
582.9467
 30
0.0
 10
-308.6314
 20
583.9196
 30
0.0
 10
-330.743
 20
576.191
 30
0.0
 10
-337.6076
 20
565.5905
 30
0.0
 10
-337.6076
 20
565.5905
 30
0.0
 10
-301.004
 20
485.5185
 30
0.0
 10
-274.3236
 20
475.8753
 30
0.0
 10
-247.6356
 20
466.2321
 30
0.0
 10
-238.4905
 20
466.2321
 30
0.0
 10
-197.3182
 20
501.9251
 30
0.0
 10
-156.1381
 20
537.6104
 30
0.0
 10
-163.7654
 20
550.1567
 30
0.0
 10
-118.7794
 20
559.8077
 30
0.0
 10
-73.8012
 20
569.4431
 30
0.0
 10
-68.4619
 20
562.7029
 30
0.0
 10
-68.4619
 20
562.7029
 30
0.0
 10
-68.4619
 20
562.7029
 30
0.0
 10
-56.6035
 20
579.3348
 30
0.0
 10
-58.6623
 20
589.9734
 30
0.0
 10
-58.6623
 20
589.9734
 30
0.0
 10
-90.452
 20
589.9734
 30
0.0
 10
-90.452
 20
589.9734
 30
0.0
 10
-94.9188
 20
587.6934
 30
0.0
 10
-100.2573
 20
585.8419
 30
0.0
 10
-105.8207
 20
585.8419
 30
0.0
  0
SPLINE
  5
87
330
1F
100
AcDbEntity
  8
Layer 1
 62
   250
370
     9
100
AcDbSpline
210
0.0
220
0.0
230
1.0
 70
    11
 71
     3
 72
    32
 73
    28
 74
     0
 42
0.0000000001
 43
0.0000000001
 40
0.0
 40
0.0
 40
0.0
 40
0.0
 40
0.1111111111111111
 40
0.1111111111111111
 40
0.1111111111111111
 40
0.2222222222222222
 40
0.2222222222222222
 40
0.2222222222222222
 40
0.3333333333333333
 40
0.3333333333333333
 40
0.3333333333333333
 40
0.4444444444444444
 40
0.4444444444444444
 40
0.4444444444444444
 40
0.5555555555555556
 40
0.5555555555555556
 40
0.5555555555555556
 40
0.6666666666666666
 40
0.6666666666666666
 40
0.6666666666666666
 40
0.7777777777777777
 40
0.7777777777777777
 40
0.7777777777777777
 40
0.8888888888888888
 40
0.8888888888888888
 40
0.8888888888888888
 40
1.0
 40
1.0
 40
1.0
 40
1.0
 10
6.7768
 20
-5.8333
 30
0.0
 10
6.7768
 20
-5.8333
 30
0.0
 10
-6.9681
 20
2.2378
 30
0.0
 10
-6.9681
 20
2.2378
 30
0.0
 10
-6.9681
 20
2.2378
 30
0.0
 10
-23.6628
 20
25.2289
 30
0.0
 10
-51.1525
 20
9.0791
 30
0.0
 10
-75.2099
 20
15.9047
 30
0.0
 10
-94.8465
 20
22.7383
 30
0.0
 10
-94.8465
 20
22.7383
 30
0.0
 10
-94.8465
 20
22.7383
 30
0.0
 10
-111.0431
 20
40.1256
 30
0.0
 10
-97.7963
 20
50.695
 30
0.0
 10
-84.5417
 20
61.2488
 30
0.0
 10
-78.1519
 20
83.6173
 30
0.0
 10
-78.1519
 20
83.6173
 30
0.0
 10
-78.1519
 20
83.6173
 30
0.0
 10
-42.3109
 20
72.4331
 30
0.0
 10
-16.2922
 20
70.5651
 30
0.0
 10
9.7265
 20
63.7316
 30
0.0
 10
54.8916
 20
79.2666
 30
0.0
 10
66.6751
 20
79.2666
 30
0.0
 10
66.6751
 20
79.2666
 30
0.0
 10
99.574
 20
78.644
 30
0.0
 10
55.8722
 20
35.7827
 30
0.0
 10
37.5976
 20
16.9244
 30
0.0
 10
39.0764
 20
-19.1812
 30
0.0
 10
6.7768
 20
-5.8333
 30
0.0
  0
SPLINE
  5
88
330
1F
100
AcDbEntity
  8
Layer 1
 62
   250
370
     9
100
AcDbSpline
210
0.0
220
0.0
230
1.0
 70
    11
 71
     3
 72
    38
 73
    34
 74
     0
 42
0.0000000001
 43
0.0000000001
 40
0.0
 40
0.0
 40
0.0
 40
0.0
 40
0.0909090909090909
 40
0.0909090909090909
 40
0.0909090909090909
 40
0.1818181818181818
 40
0.1818181818181818
 40
0.1818181818181818
 40
0.2727272727272727
 40
0.2727272727272727
 40
0.2727272727272727
 40
0.3636363636363636
 40
0.3636363636363636
 40
0.3636363636363636
 40
0.4545454545454546
 40
0.4545454545454546
 40
0.4545454545454546
 40
0.5454545454545454
 40
0.5454545454545454
 40
0.5454545454545454
 40
0.6363636363636364
 40
0.6363636363636364
 40
0.6363636363636364
 40
0.7272727272727273
 40
0.7272727272727273
 40
0.7272727272727273
 40
0.8181818181818182
 40
0.8181818181818182
 40
0.8181818181818182
 40
0.9090909090909092
 40
0.9090909090909092
 40
0.9090909090909092
 40
1.0
 40
1.0
 40
1.0
 40
1.0
 10
-24.8379
 20
-79.6788
 30
0.0
 10
-24.8379
 20
-79.6788
 30
0.0
 10
-26.6981
 20
-84.3721
 30
0.0
 10
-26.6981
 20
-84.3721
 30
0.0
 10
-26.6981
 20
-84.3721
 30
0.0
 10
-44.3345
 20
-119.5359
 30
0.0
 10
-83.3198
 20
-105.4719
 30
0.0
 10
-102.3494
 20
-96.6771
 30
0.0
 10
-103.2833
 20
-98.4282
 30
0.0
 10
-112.1015
 20
-99.6035
 30
0.0
 10
-120.9197
 20
-100.7787
 30
0.0
 10
-120.9197
 20
-94.9181
 30
0.0
 10
-129.2709
 20
-93.1513
 30
0.0
 10
-137.6221
 20
-91.4001
 30
0.0
 10
-143.6618
 20
-85.5395
 30
0.0
 10
-153.4062
 20
-90.8164
 30
0.0
 10
-161.7574
 20
-85.5395
 30
0.0
 10
-180.3355
 20
-81.43
 30
0.0
 10
-182.1879
 20
-77.9198
 30
0.0
 10
-184.0403
 20
-74.402
 30
0.0
 10
-195.6448
 20
-76.1531
 30
0.0
 10
-158.9788
 20
-34.5372
 30
0.0
 10
-158.9788
 20
-34.5372
 30
0.0
 10
-143.1948
 20
-11.6784
 30
0.0
 10
-139.0153
 20
-8.7441
 30
0.0
 10
-134.8436
 20
-5.8177
 30
0.0
 10
-84.7207
 20
-25.7423
 30
0.0
 10
-56.4061
 20
-28.0928
 30
0.0
 10
-26.2311
 20
-36.3039
 30
0.0
 10
-6.7346
 20
-26.9175
 30
0.0
 10
-15.5528
 20
-61.5054
 30
0.0
 10
-23.9196
 20
-76.1531
 30
0.0
 10
-24.8379
 20
-79.6788
 30
0.0
 10
-24.8379
 20
-79.6788
 30
0.0
  0
SPLINE
  5
89
330
1F
100
AcDbEntity
  8
Layer 1
 62
   250
370
     9
100
AcDbSpline
210
0.0
220
0.0
230
1.0
 70
    11
 71
     3
 72
    38
 73
    34
 74
     0
 42
0.0000000001
 43
0.0000000001
 40
0.0
 40
0.0
 40
0.0
 40
0.0
 40
0.0909090909090909
 40
0.0909090909090909
 40
0.0909090909090909
 40
0.1818181818181818
 40
0.1818181818181818
 40
0.1818181818181818
 40
0.2727272727272727
 40
0.2727272727272727
 40
0.2727272727272727
 40
0.3636363636363636
 40
0.3636363636363636
 40
0.3636363636363636
 40
0.4545454545454546
 40
0.4545454545454546
 40
0.4545454545454546
 40
0.5454545454545454
 40
0.5454545454545454
 40
0.5454545454545454
 40
0.6363636363636364
 40
0.6363636363636364
 40
0.6363636363636364
 40
0.7272727272727273
 40
0.7272727272727273
 40
0.7272727272727273
 40
0.8181818181818182
 40
0.8181818181818182
 40
0.8181818181818182
 40
0.9090909090909092
 40
0.9090909090909092
 40
0.9090909090909092
 40
1.0
 40
1.0
 40
1.0
 40
1.0
 10
-199.5491
 20
-590.0266
 30
0.0
 10
-201.3853
 20
-581.1857
 30
0.0
 10
-201.28
 20
-567.2548
 30
0.0
 10
-201.8557
 20
-545.3699
 30
0.0
 10
-201.8557
 20
-545.3699
 30
0.0
 10
-202.2604
 20
-492.6396
 30
0.0
 10
-244.9581
 20
-447.5914
 30
0.0
 10
-255.2785
 20
-434.8117
 30
0.0
 10
-253.8775
 20
-423.3861
 30
0.0
 10
-218.6826
 20
-414.6457
 30
0.0
 10
-218.6826
 20
-414.6457
 30
0.0
 10
-154.6748
 20
-385.4515
 30
0.0
 10
-88.3554
 20
-307.2319
 30
0.0
 10
-41.8595
 20
-263.1953
 30
0.0
 10
-39.4312
 20
-262.0357
 30
0.0
 10
-39.4312
 20
-262.0357
 30
0.0
 10
-39.4312
 20
-262.0357
 30
0.0
 10
-15.1714
 20
-274.2084
 30
0.0
 10
1.0018
 20
-247.5515
 30
0.0
 10
9.9056
 20
-235.3787
 30
0.0
 10
22.8332
 20
-232.4835
 30
0.0
 10
10.3025
 20
-282.8943
 30
0.0
 10
3.8348
 20
-341.9988
 30
0.0
 10
-6.6801
 20
-427.7524
 30
0.0
 10
-18.0045
 20
-450.3466
 30
0.0
 10
-19.2031
 20
-449.4826
 30
0.0
 10
-39.5245
 20
-527.9358
 30
0.0
 10
-45.0895
 20
-558.1185
 30
0.0
 10
-43.965
 20
-574.003
 30
0.0
 10
-42.8414
 20
-583.6296
 30
0.0
 10
-43.0537
 20
-590.0266
 30
0.0
 10
-43.0537
 20
-590.0266
 30
0.0
 10
-199.5491
 20
-590.0266
 30
0.0
 10
-199.5491
 20
-590.0266
 30
0.0
  0
SPLINE
  5
8A
330
1F
100
AcDbEntity
  8
Layer 1
 62
   250
370
     9
100
AcDbSpline
210
0.0
220
0.0
230
1.0
 70
    11
 71
     3
 72
    41
 73
    37
 74
     0
 42
0.0000000001
 43
0.0000000001
 40
0.0
 40
0.0
 40
0.0
 40
0.0
 40
0.0833333333333333
 40
0.0833333333333333
 40
0.0833333333333333
 40
0.1666666666666667
 40
0.1666666666666667
 40
0.1666666666666667
 40
0.25
 40
0.25
 40
0.25
 40
0.3333333333333333
 40
0.3333333333333333
 40
0.3333333333333333
 40
0.4166666666666666
 40
0.4166666666666666
 40
0.4166666666666666
 40
0.5
 40
0.5
 40
0.5
 40
0.5833333333333333
 40
0.5833333333333333
 40
0.5833333333333333
 40
0.6666666666666666
 40
0.6666666666666666
 40
0.6666666666666666
 40
0.75
 40
0.75
 40
0.75
 40
0.8333333333333333
 40
0.8333333333333333
 40
0.8333333333333333
 40
0.9166666666666666
 40
0.9166666666666666
 40
0.9166666666666666
 40
1.0
 40
1.0
 40
1.0
 40
1.0
 10
-331.5213
 20
141.1496
 30
0.0
 10
-331.5213
 20
141.1496
 30
0.0
 10
-338.3937
 20
138.5423
 30
0.0
 10
-338.3937
 20
138.5423
 30
0.0
 10
-338.3937
 20
138.5423
 30
0.0
 10
-376.2194
 20
157.6575
 30
0.0
 10
-359.7192
 20
306.1658
 30
0.0
 10
-359.7192
 20
306.1658
 30
0.0
 10
-352.1464
 20
350.4669
 30
0.0
 10
-346.6515
 20
364.3674
 30
0.0
 10
-341.1489
 20
378.2603
 30
0.0
 10
-332.8989
 20
417.3467
 30
0.0
 10
-332.8989
 20
417.3467
 30
0.0
 10
-332.8989
 20
417.3467
 30
0.0
 10
-323.9483
 20
426.8965
 30
0.0
 10
-316.391
 20
432.9828
 30
0.0
 10
-308.8181
 20
424.297
 30
0.0
 10
-313.6436
 20
426.0326
 30
0.0
 10
-306.0706
 20
415.611
 30
0.0
 10
-306.0706
 20
415.611
 30
0.0
 10
-297.128
 20
396.5037
 30
0.0
 10
-277.8805
 20
386.9461
 30
0.0
 10
-277.8805
 20
386.9461
 30
0.0
 10
-264.1201
 20
349.603
 30
0.0
 10
-241.4247
 20
337.4381
 30
0.0
 10
-244.8726
 20
302.7024
 30
0.0
 10
-248.3049
 20
267.0872
 30
0.0
 10
-224.232
 20
233.2231
 30
0.0
 10
-232.4897
 20
218.4508
 30
0.0
 10
-233.1746
 20
222.7938
 30
0.0
 10
-251.745
 20
222.7938
 30
0.0
 10
-270.3076
 20
222.7938
 30
0.0
 10
-300.5759
 20
206.2937
 30
0.0
 10
-311.5733
 20
177.6288
 30
0.0
 10
-322.5785
 20
148.9637
 30
0.0
 10
-326.7113
 20
146.3642
 30
0.0
 10
-331.5213
 20
141.1496
 30
0.0
  0
SPLINE
  5
8B
330
1F
100
AcDbEntity
  8
Layer 1
 62
   250
370
     9
100
AcDbSpline
210
0.0
220
0.0
230
1.0
 70
    11
 71
     3
 72
    32
 73
    28
 74
     0
 42
0.0000000001
 43
0.0000000001
 40
0.0
 40
0.0
 40
0.0
 40
0.0
 40
0.1111111111111111
 40
0.1111111111111111
 40
0.1111111111111111
 40
0.2222222222222222
 40
0.2222222222222222
 40
0.2222222222222222
 40
0.3333333333333333
 40
0.3333333333333333
 40
0.3333333333333333
 40
0.4444444444444444
 40
0.4444444444444444
 40
0.4444444444444444
 40
0.5555555555555556
 40
0.5555555555555556
 40
0.5555555555555556
 40
0.6666666666666666
 40
0.6666666666666666
 40
0.6666666666666666
 40
0.7777777777777777
 40
0.7777777777777777
 40
0.7777777777777777
 40
0.8888888888888888
 40
0.8888888888888888
 40
0.8888888888888888
 40
1.0
 40
1.0
 40
1.0
 40
1.0
 10
-381.4339
 20
-482.763
 30
0.0
 10
-381.4339
 20
-482.763
 30
0.0
 10
-342.0829
 20
-498.6249
 30
0.0
 10
-320.9908
 20
-514.51
 30
0.0
 10
-299.891
 20
-530.3719
 30
0.0
 10
-286.2005
 20
-578.7202
 30
0.0
 10
-282.2157
 20
-587.375
 30
0.0
 10
-281.8576
 20
-588.1511
 30
0.0
 10
-281.3786
 20
-589.0561
 30
0.0
 10
-280.8051
 20
-590.0266
 30
0.0
 10
-280.8051
 20
-590.0266
 30
0.0
 10
-259.0777
 20
-590.0266
 30
0.0
 10
-259.0777
 20
-590.0266
 30
0.0
 10
-258.389
 20
-586.4987
 30
0.0
 10
-257.9057
 20
-582.062
 30
0.0
 10
-257.6912
 20
-576.5488
 30
0.0
 10
-257.6912
 20
-576.5488
 30
0.0
 10
-258.2672
 20
-515.9499
 30
0.0
 10
-319.2785
 20
-474.1083
 30
0.0
 10
-346.6515
 20
-454.6195
 30
0.0
 10
-363.1827
 20
-448.8445
 30
0.0
 10
-376.8731
 20
-453.1719
 30
0.0
 10
-390.439
 20
-463.6323
 30
0.0
 10
-392.0345
 20
-467.3837
 30
0.0
 10
-387.6293
 20
-474.3495
 30
0.0
 10
-386.1661
 20
-476.6689
 30
0.0
 10
-384.0179
 20
-479.354
 30
0.0
 10
-381.4339
 20
-482.763
 30
0.0
  0
SPLINE
  5
8C
330
1F
100
AcDbEntity
  8
Layer 1
 62
   250
370
     9
100
AcDbSpline
210
0.0
220
0.0
230
1.0
 70
    11
 71
     3
 72
    23
 73
    19
 74
     0
 42
0.0000000001
 43
0.0000000001
 40
0.0
 40
0.0
 40
0.0
 40
0.0
 40
0.1666666666666667
 40
0.1666666666666667
 40
0.1666666666666667
 40
0.3333333333333333
 40
0.3333333333333333
 40
0.3333333333333333
 40
0.5
 40
0.5
 40
0.5
 40
0.6666666666666666
 40
0.6666666666666666
 40
0.6666666666666666
 40
0.8333333333333333
 40
0.8333333333333333
 40
0.8333333333333333
 40
1.0
 40
1.0
 40
1.0
 40
1.0
 10
-329.9125
 20
-590.0266
 30
0.0
 10
-335.4954
 20
-584.4034
 30
0.0
 10
-345.7891
 20
-574.1514
 30
0.0
 10
-350.6442
 20
-570.0577
 30
0.0
 10
-357.4855
 20
-564.2904
 30
0.0
 10
-356.3414
 20
-567.8939
 30
0.0
 10
-366.0391
 20
-567.1701
 30
0.0
 10
-375.729
 20
-566.4463
 30
0.0
 10
-384.2904
 20
-562.119
 30
0.0
 10
-388.8434
 20
-545.5255
 30
0.0
 10
-393.4043
 20
-528.9321
 30
0.0
 10
-380.5233
 20
-527.1808
 30
0.0
 10
-357.4855
 20
-539.7504
 30
0.0
 10
-335.9008
 20
-551.5346
 30
0.0
 10
-318.4973
 20
-569.9269
 30
0.0
 10
-324.6623
 20
-590.0266
 30
0.0
 10
-324.6623
 20
-590.0266
 30
0.0
 10
-329.9125
 20
-590.0266
 30
0.0
 10
-329.9125
 20
-590.0266
 30
0.0
  0
SPLINE
  5
8D
330
1F
100
AcDbEntity
  8
Layer 1
 62
   250
370
     9
100
AcDbSpline
210
0.0
220
0.0
230
1.0
 70
    11
 71
     3
 72
    23
 73
    19
 74
     0
 42
0.0000000001
 43
0.0000000001
 40
0.0
 40
0.0
 40
0.0
 40
0.0
 40
0.1666666666666667
 40
0.1666666666666667
 40
0.1666666666666667
 40
0.3333333333333333
 40
0.3333333333333333
 40
0.3333333333333333
 40
0.5
 40
0.5
 40
0.5
 40
0.6666666666666666
 40
0.6666666666666666
 40
0.6666666666666666
 40
0.8333333333333333
 40
0.8333333333333333
 40
0.8333333333333333
 40
1.0
 40
1.0
 40
1.0
 40
1.0
 10
-346.2623
 20
-65.3113
 30
0.0
 10
-346.2623
 20
-65.3113
 30
0.0
 10
-388.034
 20
-53.0063
 30
0.0
 10
-401.9579
 20
-53.0063
 30
0.0
 10
-415.8818
 20
-53.0063
 30
0.0
 10
-433.9384
 20
-49.0837
 30
0.0
 10
-420.3336
 20
-22.7225
 30
0.0
 10
-417.7808
 20
-8.1915
 30
0.0
 10
-423.7349
 20
3.1017
 30
0.0
 10
-402.8919
 20
6.3238
 30
0.0
 10
-402.8919
 20
6.3238
 30
0.0
 10
-328.4858
 20
-3.3583
 30
0.0
 10
-314.453
 20
-1.7394
 30
0.0
 10
-314.453
 20
-1.7394
 30
0.0
 10
-298.2954
 20
-14.6515
 30
0.0
 10
-316.5778
 20
-30.7935
 30
0.0
 10
-325.7385
 20
-42.7794
 30
0.0
 10
-334.2921
 20
-53.7146
 30
0.0
 10
-346.2623
 20
-65.3113
 30
0.0
  0
SPLINE
  5
8E
330
1F
100
AcDbEntity
  8
Layer 1
 62
   250
370
     9
100
AcDbSpline
210
0.0
220
0.0
230
1.0
 70
    11
 71
     3
 72
    23
 73
    19
 74
     0
 42
0.0000000001
 43
0.0000000001
 40
0.0
 40
0.0
 40
0.0
 40
0.0
 40
0.1666666666666667
 40
0.1666666666666667
 40
0.1666666666666667
 40
0.3333333333333333
 40
0.3333333333333333
 40
0.3333333333333333
 40
0.5
 40
0.5
 40
0.5
 40
0.6666666666666666
 40
0.6666666666666666
 40
0.6666666666666666
 40
0.8333333333333333
 40
0.8333333333333333
 40
0.8333333333333333
 40
1.0
 40
1.0
 40
1.0
 40
1.0
 10
-449.1777
 20
-197.5142
 30
0.0
 10
-449.1777
 20
-197.5142
 30
0.0
 10
-429.6266
 20
-187.8399
 30
0.0
 10
-387.5359
 20
-132.4401
 30
0.0
 10
-387.5359
 20
-132.4401
 30
0.0
 10
-369.6816
 20
-114.6792
 30
0.0
 10
-372.2344
 20
-102.8567
 30
0.0
 10
-374.7795
 20
-91.0187
 30
0.0
 10
-381.5896
 20
-93.7117
 30
0.0
 10
-397.3114
 20
-96.3891
 30
0.0
 10
-413.0487
 20
-99.0819
 30
0.0
 10
-410.9162
 20
-86.7147
 30
0.0
 10
-433.0278
 20
-87.2518
 30
0.0
 10
-442.383
 20
-122.2054
 30
0.0
 10
-449.2243
 20
-154.4661
 30
0.0
 10
-452.1507
 20
-166.8568
 30
0.0
 10
-454.6647
 20
-177.4495
 30
0.0
 10
-460.6498
 20
-190.9765
 30
0.0
 10
-449.1777
 20
-197.5142
 30
0.0
  0
SPLINE
  5
8F
330
1F
100
AcDbEntity
  8
Layer 1
 62
   250
370
     9
100
AcDbSpline
210
0.0
220
0.0
230
1.0
 70
    11
 71
     3
 72
    35
 73
    31
 74
     0
 42
0.0000000001
 43
0.0000000001
 40
0.0
 40
0.0
 40
0.0
 40
0.0
 40
0.1
 40
0.1
 40
0.1
 40
0.2
 40
0.2
 40
0.2
 40
0.3
 40
0.3
 40
0.3
 40
0.4
 40
0.4
 40
0.4
 40
0.5
 40
0.5
 40
0.5
 40
0.6000000000000001
 40
0.6000000000000001
 40
0.6000000000000001
 40
0.7000000000000001
 40
0.7000000000000001
 40
0.7000000000000001
 40
0.8
 40
0.8
 40
0.8
 40
0.9
 40
0.9
 40
0.9
 40
1.0
 40
1.0
 40
1.0
 40
1.0
 10
-503.0597
 20
-347.3068
 30
0.0
 10
-503.0597
 20
-347.3068
 30
0.0
 10
-500.7871
 20
-354.0236
 30
0.0
 10
-500.7871
 20
-354.0236
 30
0.0
 10
-500.7871
 20
-354.0236
 30
0.0
 10
-483.3374
 20
-322.3388
 30
0.0
 10
-407.4449
 20
-253.2175
 30
0.0
 10
-331.5602
 20
-184.0884
 30
0.0
 10
-314.8656
 20
-172.5618
 30
0.0
 10
-255.6754
 20
-103.4327
 30
0.0
 10
-196.4932
 20
-34.3115
 30
0.0
 10
-145.6465
 20
45.3792
 30
0.0
 10
-128.1969
 20
63.6226
 30
0.0
 10
-110.7395
 20
81.8661
 30
0.0
 10
-100.8706
 20
114.5005
 30
0.0
 10
-131.9873
 20
111.6207
 30
0.0
 10
-131.9873
 20
111.6207
 30
0.0
 10
-139.6068
 20
110.4688
 30
0.0
 10
-152.9236
 20
110.4688
 30
0.0
 10
-152.9236
 20
110.4688
 30
0.0
 10
-240.4984
 20
20.419
 30
0.0
 10
-298.1787
 20
-68.8682
 30
0.0
 10
-355.8433
 20
-158.1554
 30
0.0
 10
-361.1513
 20
-127.4356
 30
0.0
 10
-424.1396
 20
-228.2494
 30
0.0
 10
-424.1396
 20
-228.2494
 30
0.0
 10
-460.572
 20
-270.4959
 30
0.0
 10
-497.7516
 20
-292.5842
 30
0.0
 10
-497.7516
 20
-292.5842
 30
0.0
 10
-515.2012
 20
-327.1409
 30
0.0
 10
-503.0597
 20
-347.3068
 30
0.0
  0
SPLINE
  5
90
330
1F
100
AcDbEntity
  8
Layer 1
 62
   250
370
     9
100
AcDbSpline
210
0.0
220
0.0
230
1.0
 70
    11
 71
     3
 72
    41
 73
    37
 74
     0
 42
0.0000000001
 43
0.0000000001
 40
0.0
 40
0.0
 40
0.0
 40
0.0
 40
0.0833333333333333
 40
0.0833333333333333
 40
0.0833333333333333
 40
0.1666666666666667
 40
0.1666666666666667
 40
0.1666666666666667
 40
0.25
 40
0.25
 40
0.25
 40
0.3333333333333333
 40
0.3333333333333333
 40
0.3333333333333333
 40
0.4166666666666666
 40
0.4166666666666666
 40
0.4166666666666666
 40
0.5
 40
0.5
 40
0.5
 40
0.5833333333333333
 40
0.5833333333333333
 40
0.5833333333333333
 40
0.6666666666666666
 40
0.6666666666666666
 40
0.6666666666666666
 40
0.75
 40
0.75
 40
0.75
 40
0.8333333333333333
 40
0.8333333333333333
 40
0.8333333333333333
 40
0.9166666666666666
 40
0.9166666666666666
 40
0.9166666666666666
 40
1.0
 40
1.0
 40
1.0
 40
1.0
 10
-433.7439
 20
-356.7243
 30
0.0
 10
-433.7439
 20
-356.7243
 30
0.0
 10
-427.7431
 20
-361.4953
 30
0.0
 10
-427.7431
 20
-361.4953
 30
0.0
 10
-427.7431
 20
-361.4953
 30
0.0
 10
-333.0467
 20
-279.4698
 30
0.0
 10
-262.3922
 20
-252.7428
 30
0.0
 10
-262.3922
 20
-252.7428
 30
0.0
 10
-134.9214
 20
-185.4661
 30
0.0
 10
-106.5133
 20
-154.1315
 30
0.0
 10
-78.113
 20
-122.8048
 30
0.0
 10
-139.2955
 20
-124.6493
 30
0.0
 10
-143.6618
 20
-124.6493
 30
0.0
 10
-148.0281
 20
-124.6493
 30
0.0
 10
-150.9546
 20
-129.2569
 30
0.0
 10
-185.9082
 20
-110.8189
 30
0.0
 10
-185.9082
 20
-110.8189
 30
0.0
 10
-200.626
 20
-100.8566
 30
0.0
 10
-202.704
 20
-100.8566
 30
0.0
 10
-202.704
 20
-100.8566
 30
0.0
 10
-229.61
 20
-140.2854
 30
0.0
 10
-252.7024
 20
-155.5558
 30
0.0
 10
-275.7868
 20
-170.8262
 30
0.0
 10
-297.2992
 20
-192.7355
 30
0.0
 10
-297.2992
 20
-192.7355
 30
0.0
 10
-297.2992
 20
-192.7355
 30
0.0
 10
-323.0221
 20
-239.208
 30
0.0
 10
-355.0261
 20
-247.1778
 30
0.0
 10
-371.2927
 20
-263.1098
 30
0.0
 10
-379.1613
 20
-266.4331
 30
0.0
 10
-381.7842
 20
-279.0495
 30
0.0
 10
-384.4071
 20
-291.658
 30
0.0
 10
-431.1132
 20
-328.1761
 30
0.0
 10
-436.8804
 20
-333.4919
 30
0.0
 10
-442.6554
 20
-338.7999
 30
0.0
 10
-440.0403
 20
-351.4163
 30
0.0
 10
-433.7439
 20
-356.7243
 30
0.0
  0
SPLINE
  5
91
330
1F
100
AcDbEntity
  8
Layer 1
 62
   250
370
     9
100
AcDbSpline
210
0.0
220
0.0
230
1.0
 70
    11
 71
     3
 72
   101
 73
    97
 74
     0
 42
0.0000000001
 43
0.0000000001
 40
0.0
 40
0.0
 40
0.0
 40
0.0
 40
0.03125
 40
0.03125
 40
0.03125
 40
0.0625
 40
0.0625
 40
0.0625
 40
0.09375
 40
0.09375
 40
0.09375
 40
0.125
 40
0.125
 40
0.125
 40
0.15625
 40
0.15625
 40
0.15625
 40
0.1875
 40
0.1875
 40
0.1875
 40
0.21875
 40
0.21875
 40
0.21875
 40
0.25
 40
0.25
 40
0.25
 40
0.28125
 40
0.28125
 40
0.28125
 40
0.3125
 40
0.3125
 40
0.3125
 40
0.34375
 40
0.34375
 40
0.34375
 40
0.375
 40
0.375
 40
0.375
 40
0.40625
 40
0.40625
 40
0.40625
 40
0.4375
 40
0.4375
 40
0.4375
 40
0.46875
 40
0.46875
 40
0.46875
 40
0.5
 40
0.5
 40
0.5
 40
0.53125
 40
0.53125
 40
0.53125
 40
0.5625
 40
0.5625
 40
0.5625
 40
0.59375
 40
0.59375
 40
0.59375
 40
0.625
 40
0.625
 40
0.625
 40
0.65625
 40
0.65625
 40
0.65625
 40
0.6875
 40
0.6875
 40
0.6875
 40
0.71875
 40
0.71875
 40
0.71875
 40
0.75
 40
0.75
 40
0.75
 40
0.78125
 40
0.78125
 40
0.78125
 40
0.8125
 40
0.8125
 40
0.8125
 40
0.84375
 40
0.84375
 40
0.84375
 40
0.875
 40
0.875
 40
0.875
 40
0.90625
 40
0.90625
 40
0.90625
 40
0.9375
 40
0.9375
 40
0.9375
 40
0.96875
 40
0.96875
 40
0.96875
 40
1.0
 40
1.0
 40
1.0
 40
1.0
 10
-628.4913
 20
-494.422
 30
0.0
 10
-628.4913
 20
-494.422
 30
0.0
 10
-634.9512
 20
-495.1458
 30
0.0
 10
-634.9512
 20
-495.1458
 30
0.0
 10
-634.9512
 20
-495.1458
 30
0.0
 10
-663.1181
 20
-535.1896
 30
0.0
 10
-569.6281
 20
-507.4897
 30
0.0
 10
-569.6281
 20
-507.4897
 30
0.0
 10
-541.469
 20
-490.3203
 30
0.0
 10
-499.0747
 20
-479.4941
 30
0.0
 10
-456.6805
 20
-468.6678
 30
0.0
 10
-430.9965
 20
-451.6386
 30
0.0
 10
-405.7248
 20
-438.2284
 30
0.0
 10
-380.4533
 20
-424.8182
 30
0.0
 10
-332.751
 20
-404.2009
 30
0.0
 10
-310.7405
 20
-396.4568
 30
0.0
 10
-288.7301
 20
-388.7204
 30
0.0
 10
-203.4978
 20
-335.8035
 30
0.0
 10
-169.6728
 20
-302.8578
 30
0.0
 10
-135.8554
 20
-269.9199
 30
0.0
 10
-125.3638
 20
-278.5669
 30
0.0
 10
-73.8401
 20
-222.8559
 30
0.0
 10
-73.8401
 20
-222.8559
 30
0.0
 10
-38.2326
 20
-182.5552
 30
0.0
 10
-38.2326
 20
-182.5552
 30
0.0
 10
-31.9283
 20
-175.4181
 30
0.0
 10
-70.9837
 20
-129.8795
 30
0.0
 10
-77.5837
 20
-193.2257
 30
0.0
 10
-77.5837
 20
-193.2257
 30
0.0
 10
-78.004
 20
-211.1112
 30
0.0
 10
-109.1051
 20
-197.9968
 30
0.0
 10
-109.1051
 20
-197.9968
 30
0.0
 10
-125.356
 20
-193.1713
 30
0.0
 10
-133.3025
 20
-240.8347
 30
0.0
 10
-133.3025
 20
-240.8347
 30
0.0
 10
-138.8207
 20
-247.8316
 30
0.0
 10
-159.905
 20
-230.779
 30
0.0
 10
-159.905
 20
-230.779
 30
0.0
 10
-172.6926
 20
-220.731
 30
0.0
 10
-170.6145
 20
-247.8316
 30
0.0
 10
-168.5364
 20
-274.94
 30
0.0
 10
-173.035
 20
-291.5568
 30
0.0
 10
-185.8148
 20
-282.8086
 30
0.0
 10
-198.6023
 20
-274.0683
 30
0.0
 10
-200.6726
 20
-274.94
 30
0.0
 10
-200.6726
 20
-281.937
 30
0.0
 10
-200.6726
 20
-288.9261
 30
0.0
 10
-201.3731
 20
-307.2863
 30
0.0
 10
-220.714
 20
-304.2276
 30
0.0
 10
-240.0705
 20
-301.1688
 30
0.0
 10
-247.3242
 20
-296.8026
 30
0.0
 10
-253.8932
 20
-285.4315
 30
0.0
 10
-260.4542
 20
-274.0683
 30
0.0
 10
-271.8642
 20
-309.9171
 30
0.0
 10
-273.9345
 20
-319.1011
 30
0.0
 10
-276.0125
 20
-328.2773
 30
0.0
 10
-277.7404
 20
-340.9636
 30
0.0
 10
-296.3964
 20
-324.3468
 30
0.0
 10
-304.0004
 20
-319.9727
 30
0.0
 10
-311.262
 20
-317.3576
 30
0.0
 10
-315.4026
 20
-339.2046
 30
0.0
 10
-319.5432
 20
-361.0673
 30
0.0
 10
-331.3034
 20
-373.7536
 30
0.0
 10
-340.6352
 20
-354.5139
 30
0.0
 10
-349.9516
 20
-335.2742
 30
0.0
 10
-366.8874
 20
-357.1368
 30
0.0
 10
-370.0084
 20
-379.8711
 30
0.0
 10
-373.1139
 20
-402.6054
 30
0.0
 10
-399.7242
 20
-387.3039
 30
0.0
 10
-412.5039
 20
-381.1787
 30
0.0
 10
-425.2914
 20
-375.0612
 30
0.0
 10
-428.7471
 20
-414.4045
 30
0.0
 10
-430.1326
 20
-417.9068
 30
0.0
 10
-431.5179
 20
-421.4014
 30
0.0
 10
-440.4996
 20
-432.7725
 30
0.0
 10
-453.2871
 20
-415.7198
 30
0.0
 10
-466.0668
 20
-398.6671
 30
0.0
 10
-478.5042
 20
-421.4014
 30
0.0
 10
-482.6525
 20
-436.7029
 30
0.0
 10
-482.6525
 20
-436.7029
 30
0.0
 10
-495.7826
 20
-459.0091
 30
0.0
 10
-508.2198
 20
-434.08
 30
0.0
 10
-508.2198
 20
-434.08
 30
0.0
 10
-517.2093
 20
-426.655
 30
0.0
 10
-524.8133
 20
-443.7077
 30
0.0
 10
-532.4174
 20
-460.7526
 30
0.0
 10
-545.5473
 20
-461.1962
 30
0.0
 10
-556.2646
 20
-452.0122
 30
0.0
 10
-566.9741
 20
-442.836
 30
0.0
 10
-575.9557
 20
-437.1466
 30
0.0
 10
-577.6913
 20
-447.6381
 30
0.0
 10
-579.4114
 20
-458.1297
 30
0.0
 10
-592.8917
 20
-473.4389
 30
0.0
 10
-602.9084
 20
-480.4281
 30
0.0
 10
-612.933
 20
-487.4251
 30
0.0
 10
-620.1945
 20
-495.7295
 30
0.0
 10
-628.4913
 20
-494.422
 30
0.0
  0
SPLINE
  5
92
330
1F
100
AcDbEntity
  8
Layer 1
 62
   250
370
     9
100
AcDbSpline
210
0.0
220
0.0
230
1.0
 70
    11
 71
     3
 72
    32
 73
    28
 74
     0
 42
0.0000000001
 43
0.0000000001
 40
0.0
 40
0.0
 40
0.0
 40
0.0
 40
0.1111111111111111
 40
0.1111111111111111
 40
0.1111111111111111
 40
0.2222222222222222
 40
0.2222222222222222
 40
0.2222222222222222
 40
0.3333333333333333
 40
0.3333333333333333
 40
0.3333333333333333
 40
0.4444444444444444
 40
0.4444444444444444
 40
0.4444444444444444
 40
0.5555555555555556
 40
0.5555555555555556
 40
0.5555555555555556
 40
0.6666666666666666
 40
0.6666666666666666
 40
0.6666666666666666
 40
0.7777777777777777
 40
0.7777777777777777
 40
0.7777777777777777
 40
0.8888888888888888
 40
0.8888888888888888
 40
0.8888888888888888
 40
1.0
 40
1.0
 40
1.0
 40
1.0
 10
-418.9171
 20
-522.6822
 30
0.0
 10
-417.1582
 20
-485.635
 30
0.0
 10
-447.3252
 20
-498.9051
 30
0.0
 10
-447.3252
 20
-498.9051
 30
0.0
 10
-452.1352
 20
-508.307
 30
0.0
 10
-463.0548
 20
-512.1751
 30
0.0
 10
-463.0548
 20
-512.1751
 30
0.0
 10
-470.4876
 20
-508.307
 30
0.0
 10
-473.99
 20
-510.5173
 30
0.0
 10
-473.99
 20
-510.5173
 30
0.0
 10
-473.99
 20
-510.5173
 30
0.0
 10
-473.99
 20
-517.1563
 30
0.0
 10
-470.4876
 20
-527.1108
 30
0.0
 10
-474.8695
 20
-536.5128
 30
0.0
 10
-471.3593
 20
-560.2899
 30
0.0
 10
-471.3593
 20
-560.2899
 30
0.0
 10
-471.3593
 20
-560.2899
 30
0.0
 10
-466.7829
 20
-571.3107
 30
0.0
 10
-455.334
 20
-562.3758
 30
0.0
 10
-443.8852
 20
-553.4486
 30
0.0
 10
-442.204
 20
-558.9747
 30
0.0
 10
-436.8104
 20
-560.6713
 30
0.0
 10
-431.4167
 20
-562.3758
 30
0.0
 10
-425.3537
 20
-558.5543
 30
0.0
 10
-424.3497
 20
-545.362
 30
0.0
 10
-423.6259
 20
-536.0147
 30
0.0
 10
-419.0416
 20
-529.9672
 30
0.0
 10
-418.9171
 20
-522.6822
 30
0.0
  0
SPLINE
  5
93
330
1F
100
AcDbEntity
  8
Layer 1
 62
   250
370
     9
100
AcDbSpline
210
0.0
220
0.0
230
1.0
 70
    11
 71
     3
 72
    35
 73
    31
 74
     0
 42
0.0000000001
 43
0.0000000001
 40
0.0
 40
0.0
 40
0.0
 40
0.0
 40
0.1
 40
0.1
 40
0.1
 40
0.2
 40
0.2
 40
0.2
 40
0.3
 40
0.3
 40
0.3
 40
0.4
 40
0.4
 40
0.4
 40
0.5
 40
0.5
 40
0.5
 40
0.6000000000000001
 40
0.6000000000000001
 40
0.6000000000000001
 40
0.7000000000000001
 40
0.7000000000000001
 40
0.7000000000000001
 40
0.8
 40
0.8
 40
0.8
 40
0.9
 40
0.9
 40
0.9
 40
1.0
 40
1.0
 40
1.0
 40
1.0
 10
-533.9936
 20
-590.0266
 30
0.0
 10
-517.5703
 20
-584.7101
 30
0.0
 10
-502.3889
 20
-578.3178
 30
0.0
 10
-500.6547
 20
-572.4626
 30
0.0
 10
-496.7243
 20
-559.1847
 30
0.0
 10
-500.6547
 20
-536.5049
 30
0.0
 10
-503.7135
 20
-532.6368
 30
0.0
 10
-506.7722
 20
-528.7686
 30
0.0
 10
-515.0767
 20
-525.453
 30
0.0
 10
-515.0767
 20
-525.453
 30
0.0
 10
-515.0767
 20
-525.453
 30
0.0
 10
-530.3782
 20
-540.3809
 30
0.0
 10
-531.6935
 20
-544.8095
 30
0.0
 10
-532.9932
 20
-549.2303
 30
0.0
 10
-540.8697
 20
-549.2303
 30
0.0
 10
-548.2948
 20
-547.5725
 30
0.0
 10
-555.7276
 20
-545.9147
 30
0.0
 10
-554.4123
 20
-550.8958
 30
0.0
 10
-561.845
 20
-556.4218
 30
0.0
 10
-569.2779
 20
-561.9477
 30
0.0
 10
-575.839
 20
-573.5601
 30
0.0
 10
-575.839
 20
-573.5601
 30
0.0
 10
-575.839
 20
-573.5601
 30
0.0
 10
-585.023
 20
-574.1204
 30
0.0
 10
-585.023
 20
-580.199
 30
0.0
 10
-585.023
 20
-583.0894
 30
0.0
 10
-585.3174
 20
-586.6011
 30
0.0
 10
-585.0644
 20
-590.0266
 30
0.0
 10
-585.0644
 20
-590.0266
 30
0.0
 10
-533.9936
 20
-590.0266
 30
0.0
 10
-533.9936
 20
-590.0266
 30
0.0
  0
SPLINE
  5
94
330
1F
100
AcDbEntity
  8
Layer 1
 62
   250
370
     9
100
AcDbSpline
210
0.0
220
0.0
230
1.0
 70
    11
 71
     3
 72
    35
 73
    31
 74
     0
 42
0.0000000001
 43
0.0000000001
 40
0.0
 40
0.0
 40
0.0
 40
0.0
 40
0.1
 40
0.1
 40
0.1
 40
0.2
 40
0.2
 40
0.2
 40
0.3
 40
0.3
 40
0.3
 40
0.4
 40
0.4
 40
0.4
 40
0.5
 40
0.5
 40
0.5
 40
0.6000000000000001
 40
0.6000000000000001
 40
0.6000000000000001
 40
0.7000000000000001
 40
0.7000000000000001
 40
0.7000000000000001
 40
0.8
 40
0.8
 40
0.8
 40
0.9
 40
0.9
 40
0.9
 40
1.0
 40
1.0
 40
1.0
 40
1.0
 10
-625.7672
 20
-463.2275
 30
0.0
 10
-625.7672
 20
-463.2275
 30
0.0
 10
-620.5993
 20
-457.4681
 30
0.0
 10
-620.5993
 20
-457.4681
 30
0.0
 10
-620.5993
 20
-457.4681
 30
0.0
 10
-567.0675
 20
-352.9183
 30
0.0
 10
-551.0656
 20
-327.8258
 30
0.0
 10
-535.0558
 20
-302.741
 30
0.0
 10
-475.6555
 20
-173.0833
 30
0.0
 10
-457.5132
 20
-21.3527
 30
0.0
 10
-439.3787
 20
130.3856
 30
0.0
 10
-465.5687
 20
201.1491
 30
0.0
 10
-472.3477
 20
204.8072
 30
0.0
 10
-479.1268
 20
208.4808
 30
0.0
 10
-476.7063
 20
62.4085
 30
0.0
 10
-477.6792
 20
55.0691
 30
0.0
 10
-478.6364
 20
47.7375
 30
0.0
 10
-468.4718
 20
-7.8802
 30
0.0
 10
-484.9329
 20
-54.9443
 30
0.0
 10
-484.9329
 20
-54.9443
 30
0.0
 10
-492.6771
 20
-121.5672
 30
0.0
 10
-503.799
 20
-144.1848
 30
0.0
 10
-515.4191
 20
-182.0726
 30
0.0
 10
-539.6167
 20
-269.4763
 30
0.0
 10
-564.3044
 20
-315.3106
 30
0.0
 10
-569.1378
 20
-333.6476
 30
0.0
 10
-617.5327
 20
-418.6074
 30
0.0
 10
-630.118
 20
-439.9952
 30
0.0
 10
-642.6954
 20
-461.3907
 30
0.0
 10
-637.8621
 20
-468.7224
 30
0.0
 10
-625.7672
 20
-463.2275
 30
0.0
  0
SPLINE
  5
95
330
1F
100
AcDbEntity
  8
Layer 1
 62
   250
370
     9
100
AcDbSpline
210
0.0
220
0.0
230
1.0
 70
    11
 71
     3
 72
    41
 73
    37
 74
     0
 42
0.0000000001
 43
0.0000000001
 40
0.0
 40
0.0
 40
0.0
 40
0.0
 40
0.0833333333333333
 40
0.0833333333333333
 40
0.0833333333333333
 40
0.1666666666666667
 40
0.1666666666666667
 40
0.1666666666666667
 40
0.25
 40
0.25
 40
0.25
 40
0.3333333333333333
 40
0.3333333333333333
 40
0.3333333333333333
 40
0.4166666666666666
 40
0.4166666666666666
 40
0.4166666666666666
 40
0.5
 40
0.5
 40
0.5
 40
0.5833333333333333
 40
0.5833333333333333
 40
0.5833333333333333
 40
0.6666666666666666
 40
0.6666666666666666
 40
0.6666666666666666
 40
0.75
 40
0.75
 40
0.75
 40
0.8333333333333333
 40
0.8333333333333333
 40
0.8333333333333333
 40
0.9166666666666666
 40
0.9166666666666666
 40
0.9166666666666666
 40
1.0
 40
1.0
 40
1.0
 40
1.0
 10
-580.0029
 20
-47.6906
 30
0.0
 10
-580.0029
 20
-47.6906
 30
0.0
 10
-584.3926
 20
-63.8248
 30
0.0
 10
-604.1849
 20
-88.3025
 30
0.0
 10
-623.9693
 20
-112.7802
 30
0.0
 10
-628.3667
 20
-122.2443
 30
0.0
 10
-641.9949
 20
-123.9021
 30
0.0
 10
-655.6386
 20
-125.5677
 30
0.0
 10
-720.269
 20
-143.3753
 30
0.0
 10
-720.269
 20
-143.3753
 30
0.0
 10
-720.269
 20
-143.3753
 30
0.0
 10
-730.8151
 20
-177.3094
 30
0.0
 10
-712.3614
 20
-171.1919
 30
0.0
 10
-693.8923
 20
-165.0745
 30
0.0
 10
-673.6564
 20
-169.5264
 30
0.0
 10
-682.4512
 20
-198.4482
 30
0.0
 10
-691.6897
 20
-217.9213
 30
0.0
 10
-701.364
 20
-217.9213
 30
0.0
 10
-707.964
 20
-225.7122
 30
0.0
 10
-714.5485
 20
-233.503
 30
0.0
 10
-697.8461
 20
-259.6463
 30
0.0
 10
-685.5333
 20
-270.7683
 30
0.0
 10
-673.2128
 20
-281.898
 30
0.0
 10
-672.341
 20
-307.4965
 30
0.0
 10
-672.341
 20
-307.4965
 30
0.0
 10
-672.341
 20
-307.4965
 30
0.0
 10
-665.741
 20
-311.9484
 30
0.0
 10
-664.8615
 20
-308.0491
 30
0.0
 10
-663.9898
 20
-304.1575
 30
0.0
 10
-625.2925
 20
-221.2681
 30
0.0
 10
-605.5002
 20
-181.2087
 30
0.0
 10
-588.7977
 20
-132.2533
 30
0.0
 10
-575.6054
 20
-83.8505
 30
0.0
 10
-574.7182
 20
-68.2689
 30
0.0
 10
-574.3368
 20
-61.4353
 30
0.0
 10
-571.8697
 20
-43.8301
 30
0.0
 10
-580.0029
 20
-47.6906
 30
0.0
  0
SPLINE
  5
96
330
1F
100
AcDbEntity
  8
Layer 1
 62
   250
370
     9
100
AcDbSpline
210
0.0
220
0.0
230
1.0
 70
    11
 71
     3
 72
    35
 73
    31
 74
     0
 42
0.0000000001
 43
0.0000000001
 40
0.0
 40
0.0
 40
0.0
 40
0.0
 40
0.1
 40
0.1
 40
0.1
 40
0.2
 40
0.2
 40
0.2
 40
0.3
 40
0.3
 40
0.3
 40
0.4
 40
0.4
 40
0.4
 40
0.5
 40
0.5
 40
0.5
 40
0.6000000000000001
 40
0.6000000000000001
 40
0.6000000000000001
 40
0.7000000000000001
 40
0.7000000000000001
 40
0.7000000000000001
 40
0.8
 40
0.8
 40
0.8
 40
0.9
 40
0.9
 40
0.9
 40
1.0
 40
1.0
 40
1.0
 40
1.0
 10
-644.6255
 20
73.1725
 30
0.0
 10
-644.6255
 20
73.1725
 30
0.0
 10
-654.8447
 20
77.6711
 30
0.0
 10
-654.8447
 20
77.6711
 30
0.0
 10
-654.8447
 20
77.6711
 30
0.0
 10
-677.5012
 20
98.9888
 30
0.0
 10
-649.0697
 20
108.5231
 30
0.0
 10
-627.2928
 20
102.3589
 30
0.0
 10
-613.9603
 20
90.0072
 30
0.0
 10
-582.4157
 20
18.1775
 30
0.0
 10
-582.4157
 20
18.1775
 30
0.0
 10
-583.3107
 20
0.222
 30
0.0
 10
-614.4118
 20
-18.8543
 30
0.0
 10
-614.4118
 20
-18.8543
 30
0.0
 10
-646.4002
 20
-47.4725
 30
0.0
 10
-663.2893
 20
-77.7798
 30
0.0
 10
-680.1708
 20
-80.0213
 30
0.0
 10
-687.7204
 20
-76.0909
 30
0.0
 10
-695.7213
 20
-85.0725
 30
0.0
 10
-703.7222
 20
-94.0464
 30
0.0
 10
-713.9414
 20
-97.4086
 30
0.0
 10
-713.9414
 20
-97.4086
 30
0.0
 10
-713.9414
 20
-97.4086
 30
0.0
 10
-715.7159
 20
-44.1103
 30
0.0
 10
-706.8278
 20
-28.3885
 30
0.0
 10
-688.6153
 20
-7.6311
 30
0.0
 10
-669.0643
 20
9.7717
 30
0.0
 10
-657.5143
 20
31.0895
 30
0.0
 10
-657.5143
 20
31.0895
 30
0.0
 10
-632.6241
 20
44.562
 30
0.0
 10
-644.6255
 20
73.1725
 30
0.0
  0
SPLINE
  5
97
330
1F
100
AcDbEntity
  8
Layer 1
 62
   250
370
     9
100
AcDbSpline
210
0.0
220
0.0
230
1.0
 70
    11
 71
     3
 72
    41
 73
    37
 74
     0
 42
0.0000000001
 43
0.0000000001
 40
0.0
 40
0.0
 40
0.0
 40
0.0
 40
0.0833333333333333
 40
0.0833333333333333
 40
0.0833333333333333
 40
0.1666666666666667
 40
0.1666666666666667
 40
0.1666666666666667
 40
0.25
 40
0.25
 40
0.25
 40
0.3333333333333333
 40
0.3333333333333333
 40
0.3333333333333333
 40
0.4166666666666666
 40
0.4166666666666666
 40
0.4166666666666666
 40
0.5
 40
0.5
 40
0.5
 40
0.5833333333333333
 40
0.5833333333333333
 40
0.5833333333333333
 40
0.6666666666666666
 40
0.6666666666666666
 40
0.6666666666666666
 40
0.75
 40
0.75
 40
0.75
 40
0.8333333333333333
 40
0.8333333333333333
 40
0.8333333333333333
 40
0.9166666666666666
 40
0.9166666666666666
 40
0.9166666666666666
 40
1.0
 40
1.0
 40
1.0
 40
1.0
 10
-713.6379
 20
317.8171
 30
0.0
 10
-713.6379
 20
317.8171
 30
0.0
 10
-711.1551
 20
300.0717
 30
0.0
 10
-688.8411
 20
269.8112
 30
0.0
 10
-666.5349
 20
239.5507
 30
0.0
 10
-671.4538
 20
207.1109
 30
0.0
 10
-657.1719
 20
194.9538
 30
0.0
 10
-642.8822
 20
182.8123
 30
0.0
 10
-585.7312
 20
138.4878
 30
0.0
 10
-573.6675
 20
121.9022
 30
0.0
 10
-573.6675
 20
121.9022
 30
0.0
 10
-569.2779
 20
139.6864
 30
0.0
 10
-571.784
 20
179.489
 30
0.0
 10
-571.784
 20
179.489
 30
0.0
 10
-559.7903
 20
259.7399
 30
0.0
 10
-562.2965
 20
289.4479
 30
0.0
 10
-564.7948
 20
319.1402
 30
0.0
 10
-573.2861
 20
331.1416
 30
0.0
 10
-573.7765
 20
339.9909
 30
0.0
 10
-574.2745
 20
348.8325
 30
0.0
 10
-577.2711
 20
360.2113
 30
0.0
 10
-575.2708
 20
365.9007
 30
0.0
 10
-573.2861
 20
371.5824
 30
0.0
 10
-585.2643
 20
391.1723
 30
0.0
 10
-605.7492
 20
367.1616
 30
0.0
 10
-626.2187
 20
343.1509
 30
0.0
 10
-631.2154
 20
332.4103
 30
0.0
 10
-652.6888
 20
332.4103
 30
0.0
 10
-674.17
 20
332.4103
 30
0.0
 10
-689.1524
 20
333.6712
 30
0.0
 10
-689.1524
 20
333.6712
 30
0.0
 10
-689.1524
 20
333.6712
 30
0.0
 10
-706.6331
 20
333.6712
 30
0.0
 10
-706.6331
 20
333.6712
 30
0.0
 10
-714.2605
 20
333.6712
 30
0.0
 10
-717.1402
 20
325.0398
 30
0.0
 10
-713.6379
 20
317.8171
 30
0.0
  0
SPLINE
  5
98
330
1F
100
AcDbEntity
  8
Layer 1
 62
   250
370
     9
100
AcDbSpline
210
0.0
220
0.0
230
1.0
 70
    11
 71
     3
 72
    35
 73
    31
 74
     0
 42
0.0000000001
 43
0.0000000001
 40
0.0
 40
0.0
 40
0.0
 40
0.0
 40
0.1
 40
0.1
 40
0.1
 40
0.2
 40
0.2
 40
0.2
 40
0.3
 40
0.3
 40
0.3
 40
0.4
 40
0.4
 40
0.4
 40
0.5
 40
0.5
 40
0.5
 40
0.6000000000000001
 40
0.6000000000000001
 40
0.6000000000000001
 40
0.7000000000000001
 40
0.7000000000000001
 40
0.7000000000000001
 40
0.8
 40
0.8
 40
0.8
 40
0.9
 40
0.9
 40
0.9
 40
1.0
 40
1.0
 40
1.0
 40
1.0
 10
-611.1818
 20
412.7469
 30
0.0
 10
-627.7052
 20
408.186
 30
0.0
 10
-644.2442
 20
404.816
 30
0.0
 10
-660.7754
 20
403.1893
 30
0.0
 10
-660.7754
 20
403.1893
 30
0.0
 10
-661.9662
 20
456.3942
 30
0.0
 10
-614.3729
 20
448.8603
 30
0.0
 10
-614.3729
 20
448.8603
 30
0.0
 10
-599.2971
 20
451.3664
 30
0.0
 10
-583.8244
 20
468.9405
 30
0.0
 10
-574.7026
 20
477.4707
 30
0.0
 10
-555.6653
 20
477.463
 30
0.0
 10
-546.9327
 20
473.9528
 30
0.0
 10
-546.9327
 20
473.9528
 30
0.0
 10
-539.3987
 20
471.9448
 30
0.0
 10
-533.0555
 20
487.005
 30
0.0
 10
-526.7046
 20
502.0652
 30
0.0
 10
-505.6747
 20
500.5631
 30
0.0
 10
-499.7285
 20
490.0248
 30
0.0
 10
-493.7745
 20
479.4788
 30
0.0
 10
-485.6801
 20
495.2161
 30
0.0
 10
-471.9353
 20
503.7074
 30
0.0
 10
-458.1826
 20
512.191
 30
0.0
 10
-439.0597
 20
503.6996
 30
0.0
 10
-460.1907
 20
479.5177
 30
0.0
 10
-460.1907
 20
479.5177
 30
0.0
 10
-523.677
 20
462.0603
 30
0.0
 10
-542.7454
 20
451.1096
 30
0.0
 10
-561.7984
 20
440.1433
 30
0.0
 10
-581.4349
 20
453.2888
 30
0.0
 10
-611.1818
 20
412.7469
 30
0.0
  0
SPLINE
  5
99
330
1F
100
AcDbEntity
  8
Layer 1
 62
   250
370
     9
100
AcDbSpline
210
0.0
220
0.0
230
1.0
 70
    11
 71
     3
 72
    35
 73
    31
 74
     0
 42
0.0000000001
 43
0.0000000001
 40
0.0
 40
0.0
 40
0.0
 40
0.0
 40
0.1
 40
0.1
 40
0.1
 40
0.2
 40
0.2
 40
0.2
 40
0.3
 40
0.3
 40
0.3
 40
0.4
 40
0.4
 40
0.4
 40
0.5
 40
0.5
 40
0.5
 40
0.6000000000000001
 40
0.6000000000000001
 40
0.6000000000000001
 40
0.7000000000000001
 40
0.7000000000000001
 40
0.7000000000000001
 40
0.8
 40
0.8
 40
0.8
 40
0.9
 40
0.9
 40
0.9
 40
1.0
 40
1.0
 40
1.0
 40
1.0
 10
-467.5222
 20
575.5916
 30
0.0
 10
-467.5222
 20
575.5916
 30
0.0
 10
-456.3188
 20
589.9734
 30
0.0
 10
-456.3188
 20
589.9734
 30
0.0
 10
-456.3188
 20
589.9734
 30
0.0
 10
-622.3278
 20
589.9734
 30
0.0
 10
-622.3278
 20
589.9734
 30
0.0
 10
-624.6688
 20
589.021
 30
0.0
 10
-626.8943
 20
587.7893
 30
0.0
 10
-628.9817
 20
586.2077
 30
0.0
 10
-642.3295
 20
576.0898
 30
0.0
 10
-679.0733
 20
544.8797
 30
0.0
 10
-699.7684
 20
498.0569
 30
0.0
 10
-699.7684
 20
498.0569
 30
0.0
 10
-737.1816
 20
461.3677
 30
0.0
 10
-737.1816
 20
461.3677
 30
0.0
 10
-737.1816
 20
461.3677
 30
0.0
 10
-713.4666
 20
463.8971
 30
0.0
 10
-684.4125
 20
474.8556
 30
0.0
 10
-684.4125
 20
474.8556
 30
0.0
 10
-652.6888
 20
496.7961
 30
0.0
 10
-616.9568
 20
508.6029
 30
0.0
 10
-581.217
 20
520.4176
 30
0.0
 10
-558.7785
 20
534.7306
 30
0.0
 10
-555.6964
 20
535.4389
 30
0.0
 10
-552.6065
 20
536.155
 30
0.0
 10
-526.7747
 20
539.346
 30
0.0
 10
-510.7649
 20
543.6111
 30
0.0
 10
-494.7629
 20
547.8762
 30
0.0
 10
-476.7841
 20
563.5046
 30
0.0
 10
-467.5222
 20
575.5916
 30
0.0
  0
SPLINE
  5
9A
330
1F
100
AcDbEntity
  8
Layer 1
 62
   250
370
     9
100
AcDbSpline
210
0.0
220
0.0
230
1.0
 70
    11
 71
     3
 72
    26
 73
    22
 74
     0
 42
0.0000000001
 43
0.0000000001
 40
0.0
 40
0.0
 40
0.0
 40
0.0
 40
0.1428571428571428
 40
0.1428571428571428
 40
0.1428571428571428
 40
0.2857142857142857
 40
0.2857142857142857
 40
0.2857142857142857
 40
0.4285714285714285
 40
0.4285714285714285
 40
0.4285714285714285
 40
0.5714285714285714
 40
0.5714285714285714
 40
0.5714285714285714
 40
0.7142857142857142
 40
0.7142857142857142
 40
0.7142857142857142
 40
0.8571428571428571
 40
0.8571428571428571
 40
0.8571428571428571
 40
1.0
 40
1.0
 40
1.0
 40
1.0
 10
-701.5581
 20
-590.0266
 30
0.0
 10
-699.5173
 20
-570.6665
 30
0.0
 10
-689.658
 20
-468.9212
 30
0.0
 10
-702.2746
 20
-419.9226
 30
0.0
 10
-716.2686
 20
-365.6359
 30
0.0
 10
-727.5462
 20
-363.6668
 30
0.0
 10
-734.2863
 20
-330.3164
 30
0.0
 10
-734.2863
 20
-330.3164
 30
0.0
 10
-750.1326
 20
-277.9599
 30
0.0
 10
-746.5913
 20
-268.5112
 30
0.0
 10
-743.0423
 20
-259.0704
 30
0.0
 10
-720.2301
 20
-291.8681
 30
0.0
 10
-697.0211
 20
-350.4901
 30
0.0
 10
-673.812
 20
-409.112
 30
0.0
 10
-674.0767
 20
-463.7646
 30
0.0
 10
-675.9913
 20
-500.1348
 30
0.0
 10
-677.6751
 20
-531.9912
 30
0.0
 10
-683.7595
 20
-572.6777
 30
0.0
 10
-689.7521
 20
-590.0266
 30
0.0
 10
-689.7521
 20
-590.0266
 30
0.0
 10
-701.5581
 20
-590.0266
 30
0.0
 10
-701.5581
 20
-590.0266
 30
0.0
  0
SPLINE
  5
9B
330
1F
100
AcDbEntity
  8
Layer 1
 62
   250
370
     9
100
AcDbSpline
210
0.0
220
0.0
230
1.0
 70
    11
 71
     3
 72
    26
 73
    22
 74
     0
 42
0.0000000001
 43
0.0000000001
 40
0.0
 40
0.0
 40
0.0
 40
0.0
 40
0.1428571428571428
 40
0.1428571428571428
 40
0.1428571428571428
 40
0.2857142857142857
 40
0.2857142857142857
 40
0.2857142857142857
 40
0.4285714285714285
 40
0.4285714285714285
 40
0.4285714285714285
 40
0.5714285714285714
 40
0.5714285714285714
 40
0.5714285714285714
 40
0.7142857142857142
 40
0.7142857142857142
 40
0.7142857142857142
 40
0.8571428571428571
 40
0.8571428571428571
 40
0.8571428571428571
 40
1.0
 40
1.0
 40
1.0
 40
1.0
 10
-779.2256
 20
372.7966
 30
0.0
 10
-779.2256
 20
372.7966
 30
0.0
 10
-777.0153
 20
367.2939
 30
0.0
 10
-777.0153
 20
367.2939
 30
0.0
 10
-777.0153
 20
367.2939
 30
0.0
 10
-744.8012
 20
363.7293
 30
0.0
 10
-730.2157
 20
372.3529
 30
0.0
 10
-715.6303
 20
380.9843
 30
0.0
 10
-711.1551
 20
369.372
 30
0.0
 10
-705.5124
 20
373.8472
 30
0.0
 10
-699.8696
 20
378.3069
 30
0.0
 10
-684.2258
 20
410.3031
 30
0.0
 10
-701.294
 20
408.8165
 30
0.0
 10
-701.294
 20
408.8165
 30
0.0
 10
-710.5246
 20
412.7936
 30
0.0
 10
-722.6895
 20
395.1495
 30
0.0
 10
-722.6895
 20
395.1495
 30
0.0
 10
-730.9395
 20
387.9501
 30
0.0
 10
-750.7708
 20
398.6284
 30
0.0
 10
-766.8583
 20
394.6591
 30
0.0
 10
-783.1483
 20
393.9119
 30
0.0
 10
-779.2256
 20
372.7966
 30
0.0
  0
SPLINE
  5
9C
330
1F
100
AcDbEntity
  8
Layer 1
 62
   250
370
     9
100
AcDbSpline
210
0.0
220
0.0
230
1.0
 70
    11
 71
     3
 72
    23
 73
    19
 74
     0
 42
0.0000000001
 43
0.0000000001
 40
0.0
 40
0.0
 40
0.0
 40
0.0
 40
0.1666666666666667
 40
0.1666666666666667
 40
0.1666666666666667
 40
0.3333333333333333
 40
0.3333333333333333
 40
0.3333333333333333
 40
0.5
 40
0.5
 40
0.5
 40
0.6666666666666666
 40
0.6666666666666666
 40
0.6666666666666666
 40
0.8333333333333333
 40
0.8333333333333333
 40
0.8333333333333333
 40
1.0
 40
1.0
 40
1.0
 40
1.0
 10
-816.0083
 20
29.4628
 30
0.0
 10
-816.0083
 20
29.4628
 30
0.0
 10
-822.515
 20
4.0668
 30
0.0
 10
-795.4066
 20
-27.5013
 30
0.0
 10
-795.4066
 20
-27.5013
 30
0.0
 10
-786.1759
 20
-66.6111
 30
0.0
 10
-767.1931
 20
-76.9003
 30
0.0
 10
-767.1931
 20
-76.9003
 30
0.0
 10
-755.8064
 20
-72.7831
 30
0.0
 10
-757.9779
 20
-22.0065
 30
0.0
 10
-757.9779
 20
-22.0065
 30
0.0
 10
-775.8789
 20
3.374
 30
0.0
 10
-785.6388
 20
18.4732
 30
0.0
 10
-795.4066
 20
33.5723
 30
0.0
 10
-795.9437
 20
43.1766
 30
0.0
 10
-800.2788
 20
43.1766
 30
0.0
 10
-809.4784
 20
48.5079
 30
0.0
 10
-815.448
 20
40.1801
 30
0.0
 10
-816.0083
 20
29.4628
 30
0.0
  0
SPLINE
  5
9D
330
1F
100
AcDbEntity
  8
Layer 1
 62
   250
370
     9
100
AcDbSpline
210
0.0
220
0.0
230
1.0
 70
    11
 71
     3
 72
    29
 73
    25
 74
     0
 42
0.0000000001
 43
0.0000000001
 40
0.0
 40
0.0
 40
0.0
 40
0.0
 40
0.125
 40
0.125
 40
0.125
 40
0.25
 40
0.25
 40
0.25
 40
0.375
 40
0.375
 40
0.375
 40
0.5
 40
0.5
 40
0.5
 40
0.625
 40
0.625
 40
0.625
 40
0.75
 40
0.75
 40
0.75
 40
0.875
 40
0.875
 40
0.875
 40
1.0
 40
1.0
 40
1.0
 40
1.0
 10
-903.032
 20
-590.0266
 30
0.0
 10
-903.0121
 20
-586.9073
 30
0.0
 10
-901.782
 20
-583.9482
 30
0.0
 10
-897.9249
 20
-582.4094
 30
0.0
 10
-887.4956
 20
-578.2532
 30
0.0
 10
-887.4956
 20
-563.6833
 30
0.0
 10
-882.5534
 20
-559.5272
 30
0.0
 10
-877.6112
 20
-555.3633
 30
0.0
 10
-862.2397
 20
-533.8743
 30
0.0
 10
-843.5681
 20
-532.4811
 30
0.0
 10
-824.8966
 20
-531.0957
 30
0.0
 10
-816.6698
 20
-530.4031
 30
0.0
 10
-816.6698
 20
-530.4031
 30
0.0
 10
-816.6698
 20
-530.4031
 30
0.0
 10
-801.8354
 20
-524.161
 30
0.0
 10
-782.0742
 20
-504.0574
 30
0.0
 10
-762.313
 20
-483.946
 30
0.0
 10
-717.8408
 20
-480.4826
 30
0.0
 10
-729.92
 20
-541.5017
 30
0.0
 10
-729.92
 20
-541.5017
 30
0.0
 10
-731.9499
 20
-568.7337
 30
0.0
 10
-732.515
 20
-590.0266
 30
0.0
 10
-732.515
 20
-590.0266
 30
0.0
 10
-903.032
 20
-590.0266
 30
0.0
 10
-903.032
 20
-590.0266
 30
0.0
  0
SPLINE
  5
9E
330
1F
100
AcDbEntity
  8
Layer 1
 62
   250
370
     9
100
AcDbSpline
210
0.0
220
0.0
230
1.0
 70
    11
 71
     3
 72
    29
 73
    25
 74
     0
 42
0.0000000001
 43
0.0000000001
 40
0.0
 40
0.0
 40
0.0
 40
0.0
 40
0.125
 40
0.125
 40
0.125
 40
0.25
 40
0.25
 40
0.25
 40
0.375
 40
0.375
 40
0.375
 40
0.5
 40
0.5
 40
0.5
 40
0.625
 40
0.625
 40
0.625
 40
0.75
 40
0.75
 40
0.75
 40
0.875
 40
0.875
 40
0.875
 40
1.0
 40
1.0
 40
1.0
 40
1.0
 10
-941.0041
 20
-456.6353
 30
0.0
 10
-941.0041
 20
-456.6353
 30
0.0
 10
-936.8091
 20
-487.6974
 30
0.0
 10
-932.0225
 20
-526.3247
 30
0.0
 10
-937.4161
 20
-565.707
 30
0.0
 10
-900.291
 20
-521.0167
 30
0.0
 10
-900.291
 20
-521.0167
 30
0.0
 10
-889.527
 20
-505.8709
 30
0.0
 10
-826.0641
 20
-477.0891
 30
0.0
 10
-826.0641
 20
-477.0891
 30
0.0
 10
-763.2003
 20
-456.6353
 30
0.0
 10
-766.1968
 20
-430.8812
 30
0.0
 10
-766.1968
 20
-430.8812
 30
0.0
 10
-763.2081
 20
-348.3264
 30
0.0
 10
-796.7297
 20
-328.6274
 30
0.0
 10
-796.7297
 20
-328.6274
 30
0.0
 10
-815.2923
 20
-334.6905
 30
0.0
 10
-853.6005
 20
-349.0814
 30
0.0
 10
-873.3616
 20
-380.8985
 30
0.0
 10
-893.1149
 20
-412.7078
 30
0.0
 10
-943.8294
 20
-442.8826
 30
0.0
 10
-943.8294
 20
-442.8826
 30
0.0
 10
-943.8294
 20
-442.8826
 30
0.0
 10
-941.0041
 20
-456.6353
 30
0.0
 10
-941.0041
 20
-456.6353
 30
0.0
  0
SPLINE
  5
9F
330
1F
100
AcDbEntity
  8
Layer 1
 62
   250
370
     9
100
AcDbSpline
210
0.0
220
0.0
230
1.0
 70
    11
 71
     3
 72
    41
 73
    37
 74
     0
 42
0.0000000001
 43
0.0000000001
 40
0.0
 40
0.0
 40
0.0
 40
0.0
 40
0.0833333333333333
 40
0.0833333333333333
 40
0.0833333333333333
 40
0.1666666666666667
 40
0.1666666666666667
 40
0.1666666666666667
 40
0.25
 40
0.25
 40
0.25
 40
0.3333333333333333
 40
0.3333333333333333
 40
0.3333333333333333
 40
0.4166666666666666
 40
0.4166666666666666
 40
0.4166666666666666
 40
0.5
 40
0.5
 40
0.5
 40
0.5833333333333333
 40
0.5833333333333333
 40
0.5833333333333333
 40
0.6666666666666666
 40
0.6666666666666666
 40
0.6666666666666666
 40
0.75
 40
0.75
 40
0.75
 40
0.8333333333333333
 40
0.8333333333333333
 40
0.8333333333333333
 40
0.9166666666666666
 40
0.9166666666666666
 40
0.9166666666666666
 40
1.0
 40
1.0
 40
1.0
 40
1.0
 10
-845.9497
 20
173.5271
 30
0.0
 10
-845.9497
 20
173.5271
 30
0.0
 10
-850.3004
 20
177.8233
 30
0.0
 10
-850.3004
 20
177.8233
 30
0.0
 10
-850.3004
 20
177.8233
 30
0.0
 10
-876.0156
 20
211.1037
 30
0.0
 10
-838.1822
 20
225.3778
 30
0.0
 10
-838.1822
 20
225.3778
 30
0.0
 10
-823.6512
 20
219.3459
 30
0.0
 10
-795.9437
 20
174.9047
 30
0.0
 10
-768.2282
 20
130.4557
 30
0.0
 10
-779.9883
 20
127.6538
 30
0.0
 10
-737.6097
 20
75.1494
 30
0.0
 10
-737.6097
 20
75.1494
 30
0.0
 10
-721.4521
 20
29.8209
 30
0.0
 10
-727.1337
 20
13.7878
 30
0.0
 10
-727.1337
 20
13.7878
 30
0.0
 10
-735.8662
 20
45.8461
 30
0.0
 10
-741.112
 20
52.4774
 30
0.0
 10
-746.3578
 20
59.1085
 30
0.0
 10
-764.2588
 20
59.6767
 30
0.0
 10
-767.3175
 20
60.2215
 30
0.0
 10
-770.3763
 20
60.7663
 30
0.0
 10
-775.1785
 20
70.1604
 30
0.0
 10
-775.1785
 20
70.1604
 30
0.0
 10
-775.1785
 20
70.1604
 30
0.0
 10
-783.0471
 20
64.0896
 30
0.0
 10
-784.7983
 20
68.5104
 30
0.0
 10
-786.5417
 20
72.939
 30
0.0
 10
-796.5974
 20
93.3773
 30
0.0
 10
-810.1321
 20
108.3052
 30
0.0
 10
-823.6746
 20
123.2331
 30
0.0
 10
-826.2898
 20
117.6993
 30
0.0
 10
-831.9714
 20
137.0479
 30
0.0
 10
-837.6529
 20
156.3888
 30
0.0
 10
-845.9497
 20
173.5271
 30
0.0
 10
-845.9497
 20
173.5271
 30
0.0
  0
SPLINE
  5
A0
330
1F
100
AcDbEntity
  8
Layer 1
 62
   250
370
     9
100
AcDbSpline
210
0.0
220
0.0
230
1.0
 70
    11
 71
     3
 72
    56
 73
    52
 74
     0
 42
0.0000000001
 43
0.0000000001
 40
0.0
 40
0.0
 40
0.0
 40
0.0
 40
0.0588235294117647
 40
0.0588235294117647
 40
0.0588235294117647
 40
0.1176470588235294
 40
0.1176470588235294
 40
0.1176470588235294
 40
0.1764705882352941
 40
0.1764705882352941
 40
0.1764705882352941
 40
0.2352941176470588
 40
0.2352941176470588
 40
0.2352941176470588
 40
0.2941176470588235
 40
0.2941176470588235
 40
0.2941176470588235
 40
0.3529411764705882
 40
0.3529411764705882
 40
0.3529411764705882
 40
0.4117647058823529
 40
0.4117647058823529
 40
0.4117647058823529
 40
0.4705882352941176
 40
0.4705882352941176
 40
0.4705882352941176
 40
0.5294117647058824
 40
0.5294117647058824
 40
0.5294117647058824
 40
0.5882352941176471
 40
0.5882352941176471
 40
0.5882352941176471
 40
0.6470588235294118
 40
0.6470588235294118
 40
0.6470588235294118
 40
0.7058823529411764
 40
0.7058823529411764
 40
0.7058823529411764
 40
0.7647058823529411
 40
0.7647058823529411
 40
0.7647058823529411
 40
0.8235294117647058
 40
0.8235294117647058
 40
0.8235294117647058
 40
0.8823529411764706
 40
0.8823529411764706
 40
0.8823529411764706
 40
0.9411764705882353
 40
0.9411764705882353
 40
0.9411764705882353
 40
1.0
 40
1.0
 40
1.0
 40
1.0
 10
-827.2237
 20
454.3084
 30
0.0
 10
-827.2237
 20
454.3084
 30
0.0
 10
-863.3993
 20
443.3032
 30
0.0
 10
-863.3993
 20
443.3032
 30
0.0
 10
-863.3993
 20
443.3032
 30
0.0
 10
-876.0312
 20
404.777
 30
0.0
 10
-892.6013
 20
408.0771
 30
0.0
 10
-909.1558
 20
411.3771
 30
0.0
 10
-916.1295
 20
415.7823
 30
0.0
 10
-923.9826
 20
415.7823
 30
0.0
 10
-931.8279
 20
415.7823
 30
0.0
 10
-974.0977
 20
424.585
 30
0.0
 10
-989.7883
 20
394.8615
 30
0.0
 10
-989.7883
 20
394.8615
 30
0.0
 10
-991.9675
 20
383.864
 30
0.0
 10
-970.175
 20
377.2562
 30
0.0
 10
-948.3824
 20
370.6484
 30
0.0
 10
-928.3333
 20
366.7958
 30
0.0
 10
-917.0089
 20
354.1405
 30
0.0
 10
-905.6769
 20
341.4776
 30
0.0
 10
-854.6823
 20
308.9989
 30
0.0
 10
-845.0936
 20
298.5384
 30
0.0
 10
-835.5049
 20
288.0858
 30
0.0
 10
-783.2028
 20
252.3071
 30
0.0
 10
-767.5122
 20
212.6759
 30
0.0
 10
-767.5122
 20
212.6759
 30
0.0
 10
-764.0254
 20
189.5524
 30
0.0
 10
-753.1291
 20
176.3445
 30
0.0
 10
-742.225
 20
163.1367
 30
0.0
 10
-716.0818
 20
120.2054
 30
0.0
 10
-716.0818
 20
120.2054
 30
0.0
 10
-716.0818
 20
120.2054
 30
0.0
 10
-706.493
 20
118.5476
 30
0.0
 10
-715.21
 20
154.8789
 30
0.0
 10
-723.9349
 20
191.2024
 30
0.0
 10
-728.7214
 20
222.0311
 30
0.0
 10
-734.3875
 20
227.5337
 30
0.0
 10
-740.0536
 20
233.0363
 30
0.0
 10
-759.2388
 20
242.3993
 30
0.0
 10
-766.2046
 20
250.6494
 30
0.0
 10
-773.1782
 20
258.915
 30
0.0
 10
-805.4311
 20
304.0489
 30
0.0
 10
-821.1218
 20
324.417
 30
0.0
 10
-836.8046
 20
344.7775
 30
0.0
 10
-846.8292
 20
358.538
 30
0.0
 10
-846.8292
 20
358.538
 30
0.0
 10
-846.8292
 20
358.538
 30
0.0
 10
-846.2065
 20
416.5373
 30
0.0
 10
-846.2065
 20
416.5373
 30
0.0
 10
-846.121
 20
424.6161
 30
0.0
 10
-825.3635
 20
431.3406
 30
0.0
 10
-827.2237
 20
454.3084
 30
0.0
  0
SPLINE
  5
A1
330
1F
100
AcDbEntity
  8
Layer 1
 62
   250
370
     9
100
AcDbSpline
210
0.0
220
0.0
230
1.0
 70
    11
 71
     3
 72
    20
 73
    16
 74
     0
 42
0.0000000001
 43
0.0000000001
 40
0.0
 40
0.0
 40
0.0
 40
0.0
 40
0.2
 40
0.2
 40
0.2
 40
0.4
 40
0.4
 40
0.4
 40
0.6000000000000001
 40
0.6000000000000001
 40
0.6000000000000001
 40
0.8
 40
0.8
 40
0.8
 40
1.0
 40
1.0
 40
1.0
 40
1.0
 10
-973.9419
 20
477.6498
 30
0.0
 10
-973.9419
 20
477.6498
 30
0.0
 10
-969.5211
 20
559.8699
 30
0.0
 10
-858.605
 20
571.5522
 30
0.0
 10
-858.605
 20
571.5522
 30
0.0
 10
-774.6103
 20
574.0817
 30
0.0
 10
-752.9034
 20
563.9326
 30
0.0
 10
-752.9034
 20
563.9326
 30
0.0
 10
-730.4026
 20
552.2581
 30
0.0
 10
-804.3493
 20
525.3599
 30
0.0
 10
-871.0579
 20
506.0735
 30
0.0
 10
-949.83
 20
481.7125
 30
0.0
 10
-949.83
 20
481.7125
 30
0.0
 10
-949.83
 20
481.7125
 30
0.0
 10
-973.9419
 20
477.6498
 30
0.0
 10
-973.9419
 20
477.6498
 30
0.0
  0
SPLINE
  5
A2
330
1F
100
AcDbEntity
  8
Layer 1
 62
   250
370
     9
100
AcDbSpline
210
0.0
220
0.0
230
1.0
 70
    11
 71
     3
 72
    32
 73
    28
 74
     0
 42
0.0000000001
 43
0.0000000001
 40
0.0
 40
0.0
 40
0.0
 40
0.0
 40
0.1111111111111111
 40
0.1111111111111111
 40
0.1111111111111111
 40
0.2222222222222222
 40
0.2222222222222222
 40
0.2222222222222222
 40
0.3333333333333333
 40
0.3333333333333333
 40
0.3333333333333333
 40
0.4444444444444444
 40
0.4444444444444444
 40
0.4444444444444444
 40
0.5555555555555556
 40
0.5555555555555556
 40
0.5555555555555556
 40
0.6666666666666666
 40
0.6666666666666666
 40
0.6666666666666666
 40
0.7777777777777777
 40
0.7777777777777777
 40
0.7777777777777777
 40
0.8888888888888888
 40
0.8888888888888888
 40
0.8888888888888888
 40
1.0
 40
1.0
 40
1.0
 40
1.0
 10
-1119.2827
 20
331.6631
 30
0.0
 10
-1119.2827
 20
331.6631
 30
0.0
 10
-1122.248
 20
337.2902
 30
0.0
 10
-1122.248
 20
337.2902
 30
0.0
 10
-1122.248
 20
337.2902
 30
0.0
 10
-1106.8998
 20
372.9444
 30
0.0
 10
-1054.3954
 20
354.1794
 30
0.0
 10
-1054.3954
 20
354.1794
 30
0.0
 10
-1036.5721
 20
352.9264
 30
0.0
 10
-1019.2393
 20
348.5523
 30
0.0
 10
-1001.9064
 20
344.1704
 30
0.0
 10
-990.014
 20
338.5433
 30
0.0
 10
-990.014
 20
338.5433
 30
0.0
 10
-990.014
 20
338.5433
 30
0.0
 10
-965.2483
 20
327.2812
 30
0.0
 10
-986.5427
 20
311.6451
 30
0.0
 10
-986.5427
 20
311.6451
 30
0.0
 10
-991.0024
 20
301.0134
 30
0.0
 10
-1021.2162
 20
323.5298
 30
0.0
 10
-1021.2162
 20
323.5298
 30
0.0
 10
-1050.4338
 20
329.1569
 30
0.0
 10
-1059.3531
 20
332.2857
 30
0.0
 10
-1059.3531
 20
332.2857
 30
0.0
 10
-1089.0688
 20
339.7887
 30
0.0
 10
-1102.4402
 20
334.1614
 30
0.0
 10
-1102.4402
 20
334.1614
 30
0.0
 10
-1111.3517
 20
326.6586
 30
0.0
 10
-1119.2827
 20
331.6631
 30
0.0
  0
SPLINE
  5
A3
330
1F
100
AcDbEntity
  8
Layer 1
 62
   250
370
     9
100
AcDbSpline
210
0.0
220
0.0
230
1.0
 70
    11
 71
     3
 72
    23
 73
    19
 74
     0
 42
0.0000000001
 43
0.0000000001
 40
0.0
 40
0.0
 40
0.0
 40
0.0
 40
0.1666666666666667
 40
0.1666666666666667
 40
0.1666666666666667
 40
0.3333333333333333
 40
0.3333333333333333
 40
0.3333333333333333
 40
0.5
 40
0.5
 40
0.5
 40
0.6666666666666666
 40
0.6666666666666666
 40
0.6666666666666666
 40
0.8333333333333333
 40
0.8333333333333333
 40
0.8333333333333333
 40
1.0
 40
1.0
 40
1.0
 40
1.0
 10
-1030.2659
 20
589.9734
 30
0.0
 10
-1029.013
 20
578.9778
 30
0.0
 10
-1026.6953
 20
563.0243
 30
0.0
 10
-1023.162
 20
555.0755
 30
0.0
 10
-1023.162
 20
555.0755
 30
0.0
 10
-1057.4074
 20
472.4196
 30
0.0
 10
-1057.4074
 20
472.4196
 30
0.0
 10
-1057.4074
 20
472.4196
 30
0.0
 10
-1145.5738
 20
352.0469
 30
0.0
 10
-1167.1406
 20
334.395
 30
0.0
 10
-1167.1406
 20
334.395
 30
0.0
 10
-1180.0884
 20
307.2501
 30
0.0
 10
-1200.05
 20
291.9183
 30
0.0
 10
-1200.05
 20
291.9183
 30
0.0
 10
-1200.05
 20
589.9734
 30
0.0
 10
-1200.05
 20
589.9734
 30
0.0
 10
-1200.05
 20
589.9734
 30
0.0
 10
-1030.2659
 20
589.9734
 30
0.0
 10
-1030.2659
 20
589.9734
 30
0.0
  0
SPLINE
  5
A4
330
1F
100
AcDbEntity
  8
Layer 1
 62
   250
370
     9
100
AcDbSpline
210
0.0
220
0.0
230
1.0
 70
    11
 71
     3
 72
    35
 73
    31
 74
     0
 42
0.0000000001
 43
0.0000000001
 40
0.0
 40
0.0
 40
0.0
 40
0.0
 40
0.1
 40
0.1
 40
0.1
 40
0.2
 40
0.2
 40
0.2
 40
0.3
 40
0.3
 40
0.3
 40
0.4
 40
0.4
 40
0.4
 40
0.5
 40
0.5
 40
0.5
 40
0.6000000000000001
 40
0.6000000000000001
 40
0.6000000000000001
 40
0.7000000000000001
 40
0.7000000000000001
 40
0.7000000000000001
 40
0.8
 40
0.8
 40
0.8
 40
0.9
 40
0.9
 40
0.9
 40
1.0
 40
1.0
 40
1.0
 40
1.0
 10
-1200.05
 20
-162.1878
 30
0.0
 10
-1166.2209
 20
-173.312
 30
0.0
 10
-1082.7596
 20
-196.6701
 30
0.0
 10
-967.2797
 20
-169.1606
 30
0.0
 10
-967.2797
 20
-169.1606
 30
0.0
 10
-942.9109
 20
-171.7056
 30
0.0
 10
-917.0478
 20
-147.7494
 30
0.0
 10
-917.0478
 20
-147.7494
 30
0.0
 10
-900.6334
 20
-138.5732
 30
0.0
 10
-883.2383
 20
-145.7102
 30
0.0
 10
-865.8276
 20
-152.8473
 30
0.0
 10
-834.0027
 20
-147.7494
 30
0.0
 10
-825.5426
 20
-164.0549
 30
0.0
 10
-817.0824
 20
-180.3682
 30
0.0
 10
-810.9182
 20
-175.5661
 30
0.0
 10
-810.9182
 20
-220.5442
 30
0.0
 10
-796.9554
 20
-249.793
 30
0.0
 10
-800.1309
 20
-250.1665
 30
0.0
 10
-807.3068
 20
-281.9136
 30
0.0
 10
-807.3068
 20
-281.9136
 30
0.0
 10
-886.8029
 20
-326.3548
 30
0.0
 10
-918.2854
 20
-367.6206
 30
0.0
 10
-950.297
 20
-380.3148
 30
0.0
 10
-991.5939
 20
-403.0646
 30
0.0
 10
-1049.9123
 20
-369.2083
 30
0.0
 10
-1102.4411
 20
-338.7253
 30
0.0
 10
-1162.9021
 20
-306.5144
 30
0.0
 10
-1200.05
 20
-249.0343
 30
0.0
 10
-1200.05
 20
-249.0343
 30
0.0
 10
-1200.05
 20
-162.1878
 30
0.0
 10
-1200.05
 20
-162.1878
 30
0.0
  0
SPLINE
  5
A5
330
1F
100
AcDbEntity
  8
Layer 1
 62
   250
370
     9
100
AcDbSpline
210
0.0
220
0.0
230
1.0
 70
    11
 71
     3
 72
    20
 73
    16
 74
     0
 42
0.0000000001
 43
0.0000000001
 40
0.0
 40
0.0
 40
0.0
 40
0.0
 40
0.2
 40
0.2
 40
0.2
 40
0.4
 40
0.4
 40
0.4
 40
0.6000000000000001
 40
0.6000000000000001
 40
0.6000000000000001
 40
0.8
 40
0.8
 40
0.8
 40
1.0
 40
1.0
 40
1.0
 40
1.0
 10
1199.95
 20
537.7805
 30
0.0
 10
1177.8023
 20
527.8157
 30
0.0
 10
1140.3136
 20
525.0493
 30
0.0
 10
1084.2077
 20
563.8393
 30
0.0
 10
1084.2077
 20
563.8393
 30
0.0
 10
1003.7388
 20
552.0402
 30
0.0
 10
985.0827
 20
572.6964
 30
0.0
 10
979.662
 20
578.696
 30
0.0
 10
977.3965
 20
584.6955
 30
0.0
 10
977.5323
 20
589.9734
 30
0.0
 10
977.5323
 20
589.9734
 30
0.0
 10
1199.95
 20
589.9734
 30
0.0
 10
1199.95
 20
589.9734
 30
0.0
 10
1199.95
 20
589.9734
 30
0.0
 10
1199.95
 20
537.7805
 30
0.0
 10
1199.95
 20
537.7805
 30
0.0
  0
SPLINE
  5
A6
330
1F
100
AcDbEntity
  8
Layer 1
 62
   250
370
     9
100
AcDbSpline
210
0.0
220
0.0
230
1.0
 70
    11
 71
     3
 72
    29
 73
    25
 74
     0
 42
0.0000000001
 43
0.0000000001
 40
0.0
 40
0.0
 40
0.0
 40
0.0
 40
0.125
 40
0.125
 40
0.125
 40
0.25
 40
0.25
 40
0.25
 40
0.375
 40
0.375
 40
0.375
 40
0.5
 40
0.5
 40
0.5
 40
0.625
 40
0.625
 40
0.625
 40
0.75
 40
0.75
 40
0.75
 40
0.875
 40
0.875
 40
0.875
 40
1.0
 40
1.0
 40
1.0
 40
1.0
 10
1018.4176
 20
100.1096
 30
0.0
 10
1018.4176
 20
100.1096
 30
0.0
 10
1046.8801
 20
101.0047
 30
0.0
 10
1052.5618
 20
98.3039
 30
0.0
 10
1058.259
 20
95.6032
 30
0.0
 10
1060.3993
 20
93.8131
 30
0.0
 10
1069.6378
 20
101.8997
 30
0.0
 10
1078.8841
 20
110.0096
 30
0.0
 10
1095.2518
 20
108.1962
 30
0.0
 10
1105.9302
 20
104.6004
 30
0.0
 10
1116.5852
 20
101.0047
 30
0.0
 10
1111.6118
 20
151.4155
 30
0.0
 10
1085.9978
 20
153.2055
 30
0.0
 10
1085.9978
 20
153.2055
 30
0.0
 10
1075.3428
 20
150.5048
 30
0.0
 10
1072.4942
 20
137.9041
 30
0.0
 10
1072.4942
 20
137.9041
 30
0.0
 10
1059.6833
 20
150.5048
 30
0.0
 10
1044.7399
 20
137.9041
 30
0.0
 10
1029.8042
 20
125.3033
 30
0.0
 10
1027.6716
 20
131.6076
 30
0.0
 10
1024.1148
 20
122.6026
 30
0.0
 10
1020.5579
 20
113.6054
 30
0.0
 10
1018.4176
 20
100.1096
 30
0.0
 10
1018.4176
 20
100.1096
 30
0.0
  0
SPLINE
  5
A7
330
1F
100
AcDbEntity
  8
Layer 1
 62
   250
370
     9
100
AcDbSpline
210
0.0
220
0.0
230
1.0
 70
    11
 71
     3
 72
    20
 73
    16
 74
     0
 42
0.0000000001
 43
0.0000000001
 40
0.0
 40
0.0
 40
0.0
 40
0.0
 40
0.2
 40
0.2
 40
0.2
 40
0.4
 40
0.4
 40
0.4
 40
0.6000000000000001
 40
0.6000000000000001
 40
0.6000000000000001
 40
0.8
 40
0.8
 40
0.8
 40
1.0
 40
1.0
 40
1.0
 40
1.0
 10
965.991
 20
337.2747
 30
0.0
 10
965.991
 20
337.2747
 30
0.0
 10
987.262
 20
404.9172
 30
0.0
 10
999.7149
 20
406.8785
 30
0.0
 10
1012.1756
 20
408.8476
 30
0.0
 10
1032.4193
 20
401.6171
 30
0.0
 10
1025.1499
 20
374.0496
 30
0.0
 10
1017.8806
 20
346.4665
 30
0.0
 10
1017.8806
 20
345.1589
 30
0.0
 10
1017.8806
 20
345.1589
 30
0.0
 10
1017.8806
 20
345.1589
 30
0.0
 10
1026.185
 20
318.2296
 30
0.0
 10
1003.871
 20
323.4909
 30
0.0
 10
1026.185
 20
318.2296
 30
0.0
 10
965.991
 20
337.2747
 30
0.0
 10
965.991
 20
337.2747
 30
0.0
  0
SPLINE
  5
A8
330
1F
100
AcDbEntity
  8
Layer 1
 62
   250
370
     9
100
AcDbSpline
210
0.0
220
0.0
230
1.0
 70
    11
 71
     3
 72
    23
 73
    19
 74
     0
 42
0.0000000001
 43
0.0000000001
 40
0.0
 40
0.0
 40
0.0
 40
0.0
 40
0.1666666666666667
 40
0.1666666666666667
 40
0.1666666666666667
 40
0.3333333333333333
 40
0.3333333333333333
 40
0.3333333333333333
 40
0.5
 40
0.5
 40
0.5
 40
0.6666666666666666
 40
0.6666666666666666
 40
0.6666666666666666
 40
0.8333333333333333
 40
0.8333333333333333
 40
0.8333333333333333
 40
1.0
 40
1.0
 40
1.0
 40
1.0
 10
-619.1651
 20
-590.0266
 30
0.0
 10
-619.0332
 20
-589.7306
 30
0.0
 10
-618.9014
 20
-589.4334
 30
0.0
 10
-618.7703
 20
-589.1261
 30
0.0
 10
-608.232
 20
-564.4072
 30
0.0
 10
-613.8825
 20
-555.8459
 30
0.0
 10
-628.9349
 20
-563.4576
 30
0.0
 10
-628.9349
 20
-563.4576
 30
0.0
 10
-635.7062
 20
-564.882
 30
0.0
 10
-640.2281
 20
-564.4072
 30
0.0
 10
-640.2281
 20
-564.4072
 30
0.0
 10
-639.4732
 20
-575.3423
 30
0.0
 10
-643.9873
 20
-581.0396
 30
0.0
 10
-647.5393
 20
-585.5269
 30
0.0
 10
-650.6246
 20
-587.3684
 30
0.0
 10
-649.5935
 20
-590.0266
 30
0.0
 10
-649.5935
 20
-590.0266
 30
0.0
 10
-619.1651
 20
-590.0266
 30
0.0
 10
-619.1651
 20
-590.0266
 30
0.0
  0
SPLINE
  5
A9
330
1F
100
AcDbEntity
  8
Layer 1
 62
   250
370
     9
100
AcDbSpline
210
0.0
220
0.0
230
1.0
 70
    11
 71
     3
 72
    32
 73
    28
 74
     0
 42
0.0000000001
 43
0.0000000001
 40
0.0
 40
0.0
 40
0.0
 40
0.0
 40
0.1111111111111111
 40
0.1111111111111111
 40
0.1111111111111111
 40
0.2222222222222222
 40
0.2222222222222222
 40
0.2222222222222222
 40
0.3333333333333333
 40
0.3333333333333333
 40
0.3333333333333333
 40
0.4444444444444444
 40
0.4444444444444444
 40
0.4444444444444444
 40
0.5555555555555556
 40
0.5555555555555556
 40
0.5555555555555556
 40
0.6666666666666666
 40
0.6666666666666666
 40
0.6666666666666666
 40
0.7777777777777777
 40
0.7777777777777777
 40
0.7777777777777777
 40
0.8888888888888888
 40
0.8888888888888888
 40
0.8888888888888888
 40
1.0
 40
1.0
 40
1.0
 40
1.0
 10
-635.3015
 20
-370.2046
 30
0.0
 10
-635.3015
 20
-370.2046
 30
0.0
 10
-548.8707
 20
-242.2823
 30
0.0
 10
-518.6958
 20
-87.532
 30
0.0
 10
-488.521
 20
67.2184
 30
0.0
 10
-514.6175
 20
291.0823
 30
0.0
 10
-514.6175
 20
291.0823
 30
0.0
 10
-514.6175
 20
291.0823
 30
0.0
 10
-528.4791
 20
309.6604
 30
0.0
 10
-526.8525
 20
202.371
 30
0.0
 10
-525.2258
 20
95.0739
 30
0.0
 10
-536.6435
 20
47.6207
 30
0.0
 10
-536.6435
 20
47.6207
 30
0.0
 10
-536.6435
 20
47.6207
 30
0.0
 10
-539.8968
 20
-40.0787
 30
0.0
 10
-539.8968
 20
-64.8366
 30
0.0
 10
-539.8968
 20
-89.5867
 30
0.0
 10
-548.8707
 20
-160.7783
 30
0.0
 10
-592.8994
 20
-244.3449
 30
0.0
 10
-636.9281
 20
-327.9115
 30
0.0
 10
-642.6409
 20
-347.5092
 30
0.0
 10
-642.6409
 20
-347.5092
 30
0.0
 10
-642.6409
 20
-347.5092
 30
0.0
 10
-647.015
 20
-357.4014
 30
0.0
 10
-641.7926
 20
-363.6434
 30
0.0
 10
-636.5779
 20
-369.8854
 30
0.0
 10
-635.3015
 20
-370.2046
 30
0.0
 10
-635.3015
 20
-370.2046
 30
0.0
  0
SPLINE
  5
AA
330
1F
100
AcDbEntity
  8
Layer 1
 62
   250
370
     9
100
AcDbSpline
210
0.0
220
0.0
230
1.0
 70
    11
 71
     3
 72
    14
 73
    10
 74
     0
 42
0.0000000001
 43
0.0000000001
 40
0.0
 40
0.0
 40
0.0
 40
0.0
 40
0.3333333333333333
 40
0.3333333333333333
 40
0.3333333333333333
 40
0.6666666666666666
 40
0.6666666666666666
 40
0.6666666666666666
 40
1.0
 40
1.0
 40
1.0
 40
1.0
 10
-411.8423
 20
513.0315
 30
0.0
 10
-411.8423
 20
513.0315
 30
0.0
 10
-392.2835
 20
513.483
 30
0.0
 10
-380.6868
 20
527.6637
 30
0.0
 10
-378.8811
 20
506.6183
 30
0.0
 10
-376.7019
 20
493.3559
 30
0.0
 10
-399.5218
 20
490.6085
 30
0.0
 10
-411.4843
 20
493.8151
 30
0.0
 10
-411.8423
 20
513.0315
 30
0.0
 10
-411.8423
 20
513.0315
 30
0.0
  0
SPLINE
  5
AB
330
1F
100
AcDbEntity
  8
Layer 1
 62
   250
370
     9
100
AcDbSpline
210
0.0
220
0.0
230
1.0
 70
    11
 71
     3
 72
    29
 73
    25
 74
     0
 42
0.0000000001
 43
0.0000000001
 40
0.0
 40
0.0
 40
0.0
 40
0.0
 40
0.125
 40
0.125
 40
0.125
 40
0.25
 40
0.25
 40
0.25
 40
0.375
 40
0.375
 40
0.375
 40
0.5
 40
0.5
 40
0.5
 40
0.625
 40
0.625
 40
0.625
 40
0.75
 40
0.75
 40
0.75
 40
0.875
 40
0.875
 40
0.875
 40
1.0
 40
1.0
 40
1.0
 40
1.0
 10
-986.2275
 20
-590.0266
 30
0.0
 10
-980.2095
 20
-577.345
 30
0.0
 10
-972.9127
 20
-560.8797
 30
0.0
 10
-972.183
 20
-554.1725
 30
0.0
 10
-971.7627
 20
-542.5835
 30
0.0
 10
-978.892
 20
-482.8876
 30
0.0
 10
-978.0514
 20
-462.029
 30
0.0
 10
-979.2967
 20
-450.5023
 30
0.0
 10
-983.087
 20
-428.8498
 30
0.0
 10
-1016.2195
 20
-445.8013
 30
0.0
 10
-1031.7311
 20
-447.5369
 30
0.0
 10
-1090.4464
 20
-428.9977
 30
0.0
 10
-1105.958
 20
-426.0947
 30
0.0
 10
-1121.4775
 20
-423.1993
 30
0.0
 10
-1130.7004
 20
-418.5684
 30
0.0
 10
-1158.7971
 20
-401.757
 30
0.0
 10
-1174.1594
 20
-392.572
 30
0.0
 10
-1189.3937
 20
-377.327
 30
0.0
 10
-1200.05
 20
-365.3911
 30
0.0
 10
-1200.05
 20
-365.3911
 30
0.0
 10
-1200.05
 20
-590.0266
 30
0.0
 10
-1200.05
 20
-590.0266
 30
0.0
 10
-1200.05
 20
-590.0266
 30
0.0
 10
-986.2275
 20
-590.0266
 30
0.0
 10
-986.2275
 20
-590.0266
 30
0.0
  0
SPLINE
  5
AC
330
1F
100
AcDbEntity
  8
Layer 1
 62
   250
370
     9
100
AcDbSpline
210
0.0
220
0.0
230
1.0
 70
    11
 71
     3
 72
    29
 73
    25
 74
     0
 42
0.0000000001
 43
0.0000000001
 40
0.0
 40
0.0
 40
0.0
 40
0.0
 40
0.125
 40
0.125
 40
0.125
 40
0.25
 40
0.25
 40
0.25
 40
0.375
 40
0.375
 40
0.375
 40
0.5
 40
0.5
 40
0.5
 40
0.625
 40
0.625
 40
0.625
 40
0.75
 40
0.75
 40
0.75
 40
0.875
 40
0.875
 40
0.875
 40
1.0
 40
1.0
 40
1.0
 40
1.0
 10
-874.0777
 20
74.0442
 30
0.0
 10
-868.8942
 20
52.3995
 30
0.0
 10
-867.5866
 20
36.8256
 30
0.0
 10
-868.3026
 20
25.6259
 30
0.0
 10
-959.3334
 20
73.978
 30
0.0
 10
-1096.8099
 20
136.1094
 30
0.0
 10
-1200.05
 20
134.8791
 30
0.0
 10
-1200.05
 20
134.8791
 30
0.0
 10
-1200.05
 20
217.9525
 30
0.0
 10
-1200.05
 20
217.9525
 30
0.0
 10
-1157.6383
 20
250.349
 30
0.0
 10
-1070.3384
 20
300.543
 30
0.0
 10
-980.5575
 20
253.1633
 30
0.0
 10
-980.5575
 20
253.1633
 30
0.0
 10
-917.9196
 20
203.1105
 30
0.0
 10
-908.0662
 20
187.3186
 30
0.0
 10
-898.2129
 20
171.5191
 30
0.0
 10
-887.3244
 20
132.3782
 30
0.0
 10
-887.3244
 20
120.0186
 30
0.0
 10
-887.3244
 20
107.6514
 30
0.0
 10
-878.5063
 20
85.672
 30
0.0
 10
-878.5063
 20
85.672
 30
0.0
 10
-878.5063
 20
85.672
 30
0.0
 10
-874.0777
 20
74.0442
 30
0.0
 10
-874.0777
 20
74.0442
 30
0.0
  0
SPLINE
  5
AD
330
1F
100
AcDbEntity
  8
Layer 1
 62
   250
370
     9
100
AcDbSpline
210
0.0
220
0.0
230
1.0
 70
    11
 71
     3
 72
    26
 73
    22
 74
     0
 42
0.0000000001
 43
0.0000000001
 40
0.0
 40
0.0
 40
0.0
 40
0.0
 40
0.1428571428571428
 40
0.1428571428571428
 40
0.1428571428571428
 40
0.2857142857142857
 40
0.2857142857142857
 40
0.2857142857142857
 40
0.4285714285714285
 40
0.4285714285714285
 40
0.4285714285714285
 40
0.5714285714285714
 40
0.5714285714285714
 40
0.5714285714285714
 40
0.7142857142857142
 40
0.7142857142857142
 40
0.7142857142857142
 40
0.8571428571428571
 40
0.8571428571428571
 40
0.8571428571428571
 40
1.0
 40
1.0
 40
1.0
 40
1.0
 10
-868.1781
 20
-15.4142
 30
0.0
 10
-869.8671
 20
-41.8766
 30
0.0
 10
-882.8959
 20
-43.9313
 30
0.0
 10
-882.8959
 20
-43.9313
 30
0.0
 10
-882.8959
 20
-43.9313
 30
0.0
 10
-888.8888
 20
-43.3009
 30
0.0
 10
-896.9365
 20
-44.4606
 30
0.0
 10
-908.0506
 20
-46.0638
 30
0.0
 10
-923.0486
 20
-51.0762
 30
0.0
 10
-931.6022
 20
-65.8172
 30
0.0
 10
-946.3432
 20
-91.2678
 30
0.0
 10
-989.7026
 20
-120.2674
 30
0.0
 10
-1041.5377
 20
-120.2674
 30
0.0
 10
-1089.4047
 20
-120.2674
 30
0.0
 10
-1158.5475
 20
-94.0821
 30
0.0
 10
-1200.05
 20
-38.8662
 30
0.0
 10
-1200.05
 20
-38.8662
 30
0.0
 10
-1200.05
 20
93.8381
 30
0.0
 10
-1200.05
 20
93.8381
 30
0.0
 10
-1096.7925
 20
95.1216
 30
0.0
 10
-959.2529
 20
32.9646
 30
0.0
 10
-868.1781
 20
-15.4142
 30
0.0
  0
ENDSEC
  0
SECTION
  2
OBJECTS
  0
DICTIONARY
  5
C
330
0
100
AcDbDictionary
281
     1
  3
ACAD_DETAILVIEWSTYLE
350
B5
  3
ACAD_GROUP
350
D
  3
ACAD_LAYOUT
350
1A
  3
ACAD_MATERIAL
350
43
  3
ACAD_MLEADERSTYLE
350
5B
  3
ACAD_MLINESTYLE
350
17
  3
ACAD_PLOTSETTINGS
350
19
  3
ACAD_PLOTSTYLENAME
350
E
  3
ACAD_SCALELIST
350
47
  3
ACAD_SECTIONVIEWSTYLE
350
B6
  3
ACAD_TABLESTYLE
350
59
  3
ACAD_VISUALSTYLE
350
2A
  3
ACDB_RECOMPOSE_DATA
350
B2
  3
AcDbVariableDictionary
350
AE
  0
SUN
  5
5D
330
29
100
AcDbSun
 90
        1
290
     0
 63
     7
421
 16777215
 40
1.0
291
     1
 91
  2455826
 92
 54000000
292
     0
 70
     2
 71
   256
280
     1
  0
DICTIONARY
  5
B5
102
{ACAD_REACTORS
330
C
102
}
330
C
100
AcDbDictionary
281
     1
  0
DICTIONARY
  5
D
102
{ACAD_REACTORS
330
C
102
}
330
C
100
AcDbDictionary
281
     1
  0
DICTIONARY
  5
1A
102
{ACAD_REACTORS
330
C
102
}
330
C
100
AcDbDictionary
281
     1
  3
Layout1
350
1E
  3
Layout2
350
26
  3
Model
350
22
  0
DICTIONARY
  5
43
102
{ACAD_REACTORS
330
C
102
}
330
C
100
AcDbDictionary
281
     1
  3
ByBlock
350
45
  3
ByLayer
350
44
  3
Global
350
46
  0
DICTIONARY
  5
5B
102
{ACAD_REACTORS
330
C
102
}
330
C
100
AcDbDictionary
281
     1
  3
Standard
350
5C
  0
DICTIONARY
  5
17
102
{ACAD_REACTORS
330
C
102
}
330
C
100
AcDbDictionary
281
     1
  3
Standard
350
18
  0
DICTIONARY
  5
19
102
{ACAD_REACTORS
330
C
102
}
330
C
100
AcDbDictionary
281
     1
  0
ACDBDICTIONARYWDFLT
  5
E
102
{ACAD_REACTORS
330
C
102
}
330
C
100
AcDbDictionary
281
     1
  3
Normal
350
F
100
AcDbDictionaryWithDefault
340
F
  0
DICTIONARY
  5
47
102
{ACAD_REACTORS
330
C
102
}
330
C
100
AcDbDictionary
281
     1
  3
A0
350
48
  3
A1
350
49
  3
A2
350
4A
  3
A3
350
4B
  3
A4
350
4C
  3
A5
350
4D
  3
A6
350
4E
  3
A7
350
4F
  3
A8
350
50
  3
A9
350
51
  3
B1
350
52
  3
B2
350
53
  3
B3
350
54
  3
B4
350
55
  3
B5
350
56
  3
B6
350
57
  3
B7
350
58
  0
DICTIONARY
  5
B6
102
{ACAD_REACTORS
330
C
102
}
330
C
100
AcDbDictionary
281
     1
  0
DICTIONARY
  5
59
102
{ACAD_REACTORS
330
C
102
}
330
C
100
AcDbDictionary
281
     1
  3
Standard
350
5A
  0
DICTIONARY
  5
2A
102
{ACAD_REACTORS
330
C
102
}
330
C
100
AcDbDictionary
281
     1
  3
2dWireframe
350
2F
  3
Basic
350
32
  3
Brighten
350
36
  3
ColorChange
350
3A
  3
Conceptual
350
34
  3
Dim
350
35
  3
EdgeColorOff
350
3D
  3
Facepattern
350
39
  3
Flat
350
2B
  3
FlatWithEdges
350
2C
  3
Gouraud
350
2D
  3
GouraudWithEdges
350
2E
  3
Hidden
350
31
  3
JitterOff
350
3B
  3
Linepattern
350
38
  3
OverhangOff
350
3C
  3
Realistic
350
33
  3
Shaded
350
42
  3
Shaded with edges
350
41
  3
Shades of Gray
350
3E
  3
Sketchy
350
3F
  3
Thicken
350
37
  3
Wireframe
350
30
  3
X-Ray
350
40
  0
XRECORD
  5
B2
102
{ACAD_REACTORS
330
C
102
}
330
C
100
AcDbXrecord
280
     1
 90
        1
330
5A
  0
DICTIONARY
  5
AE
102
{ACAD_REACTORS
330
C
102
}
330
C
100
AcDbDictionary
281
     1
  3
CANNOSCALE
350
AF
  3
CMLEADERSTYLE
350
B4
  3
CTABLESTYLE
350
B3
  0
LAYOUT
  5
1E
102
{ACAD_REACTORS
330
1A
102
}
330
1A
100
AcDbPlotSettings
  1

  2
none_device
  4

  6

 40
0.0
 41
0.0
 42
0.0
 43
0.0
 44
0.0
 45
0.0
 46
0.0
 47
0.0
 48
0.0
 49
0.0
140
0.0
141
0.0
142
1.0
143
1.0
 70
   688
 72
     0
 73
     0
 74
     5
  7

 75
    16
 76
     0
 77
     2
 78
   300
147
1.0
148
0.0
149
0.0
100
AcDbLayout
  1
Layout1
 70
     1
 71
     1
 10
0.0
 20
0.0
 11
12.0
 21
9.0
 12
0.0
 22
0.0
 32
0.0
 14
1.000000000000000E+20
 24
1.000000000000000E+20
 34
1.000000000000000E+20
 15
-1.000000000000000E+20
 25
-1.000000000000000E+20
 35
-1.000000000000000E+20
146
0.0
 13
0.0
 23
0.0
 33
0.0
 16
1.0
 26
0.0
 36
0.0
 17
0.0
 27
1.0
 37
0.0
 76
     0
330
1B
  0
LAYOUT
  5
26
102
{ACAD_REACTORS
330
1A
102
}
330
1A
100
AcDbPlotSettings
  1

  2
none_device
  4

  6

 40
0.0
 41
0.0
 42
0.0
 43
0.0
 44
0.0
 45
0.0
 46
0.0
 47
0.0
 48
0.0
 49
0.0
140
0.0
141
0.0
142
1.0
143
1.0
 70
   688
 72
     0
 73
     0
 74
     5
  7

 75
    16
 76
     0
 77
     2
 78
   300
147
1.0
148
0.0
149
0.0
100
AcDbLayout
  1
Layout2
 70
     1
 71
     2
 10
0.0
 20
0.0
 11
0.0
 21
0.0
 12
0.0
 22
0.0
 32
0.0
 14
0.0
 24
0.0
 34
0.0
 15
0.0
 25
0.0
 35
0.0
146
0.0
 13
0.0
 23
0.0
 33
0.0
 16
1.0
 26
0.0
 36
0.0
 17
0.0
 27
1.0
 37
0.0
 76
     0
330
23
  0
LAYOUT
  5
22
102
{ACAD_REACTORS
330
1A
102
}
330
1A
100
AcDbPlotSettings
  1

  2
none_device
  4
Letter_(8.50_x_11.00_Inches)
  6

 40
6.35
 41
6.35
 42
6.35000508
 43
6.35000508
 44
215.9
 45
279.4
 46
0.0
 47
0.0
 48
0.0
 49
0.0
140
0.0
141
0.0
142
1.0
143
1.0
 70
  1712
 72
     0
 73
     0
 74
     0
  7

 75
     0
 76
     0
 77
     2
 78
   300
147
1.0
148
0.0
149
0.0
100
AcDbLayout
  1
Model
 70
     1
 71
     0
 10
0.0
 20
0.0
 11
12.0
 21
9.0
 12
0.0
 22
0.0
 32
0.0
 14
-1200.0881
 24
-590.0647
 34
0.0
 15
1199.9881
 25
590.0115
 35
0.0
146
0.0
 13
0.0
 23
0.0
 33
0.0
 16
1.0
 26
0.0
 36
0.0
 17
0.0
 27
1.0
 37
0.0
 76
     0
330
1F
331
29
  0
MATERIAL
  5
45
102
{ACAD_REACTORS
330
43
102
}
330
43
100
AcDbMaterial
  1
ByBlock
 72
     1
 94
      127
  0
MATERIAL
  5
44
102
{ACAD_REACTORS
330
43
102
}
330
43
100
AcDbMaterial
  1
ByLayer
 72
     1
 94
      127
  0
MATERIAL
  5
46
102
{ACAD_REACTORS
330
43
102
}
330
43
100
AcDbMaterial
  1
Global
 72
     1
 94
      127
  0
MLEADERSTYLE
  5
5C
102
{ACAD_REACTORS
330
5B
102
}
330
5B
100
AcDbMLeaderStyle
179
     2
170
     2
171
     1
172
     0
 90
        2
 40
0.0
 41
0.0
173
     1
 91
-1056964608
340
14
 92
       -2
290
     1
 42
0.09
291
     1
 43
0.36
  3
Standard
341
0
 44
0.18
300

342
11
174
     1
178
     6
175
     1
176
     0
 93
-1056964608
 45
0.18
292
     0
297
     0
 46
0.18
343
0
 94
-1056964608
 47
1.0
 49
1.0
140
1.0
293
     1
141
0.0
294
     1
177
     0
142
1.0
295
     0
296
     0
143
0.125
271
     0
272
     9
273
     9
298
     0
  0
MLINESTYLE
  5
18
102
{ACAD_REACTORS
330
17
102
}
330
17
100
AcDbMlineStyle
  2
Standard
 70
     0
  3

 62
   256
 51
90.0
 52
90.0
 71
     2
 49
0.5
 62
   256
  6
BYLAYER
 49
-0.5
 62
   256
  6
BYLAYER
  0
ACDBPLACEHOLDER
  5
F
102
{ACAD_REACTORS
330
E
102
}
330
E
  0
SCALE
  5
48
102
{ACAD_REACTORS
330
47
102
}
330
47
100
AcDbScale
 70
     0
300
1:1
140
1.0
141
1.0
290
     1
  0
SCALE
  5
49
102
{ACAD_REACTORS
330
47
102
}
330
47
100
AcDbScale
 70
     0
300
1/128" = 1'-0"
140
0.0078125
141
12.0
290
     0
  0
SCALE
  5
4A
102
{ACAD_REACTORS
330
47
102
}
330
47
100
AcDbScale
 70
     0
300
1/64" = 1'-0"
140
0.015625
141
12.0
290
     0
  0
SCALE
  5
4B
102
{ACAD_REACTORS
330
47
102
}
330
47
100
AcDbScale
 70
     0
300
1/32" = 1'-0"
140
0.03125
141
12.0
290
     0
  0
SCALE
  5
4C
102
{ACAD_REACTORS
330
47
102
}
330
47
100
AcDbScale
 70
     0
300
1/16" = 1'-0"
140
0.0625
141
12.0
290
     0
  0
SCALE
  5
4D
102
{ACAD_REACTORS
330
47
102
}
330
47
100
AcDbScale
 70
     0
300
3/32" = 1'-0"
140
0.09375
141
12.0
290
     0
  0
SCALE
  5
4E
102
{ACAD_REACTORS
330
47
102
}
330
47
100
AcDbScale
 70
     0
300
1/8" = 1'-0"
140
0.125
141
12.0
290
     0
  0
SCALE
  5
4F
102
{ACAD_REACTORS
330
47
102
}
330
47
100
AcDbScale
 70
     0
300
3/16" = 1'-0"
140
0.1875
141
12.0
290
     0
  0
SCALE
  5
50
102
{ACAD_REACTORS
330
47
102
}
330
47
100
AcDbScale
 70
     0
300
1/4" = 1'-0"
140
0.25
141
12.0
290
     0
  0
SCALE
  5
51
102
{ACAD_REACTORS
330
47
102
}
330
47
100
AcDbScale
 70
     0
300
3/8" = 1'-0"
140
0.375
141
12.0
290
     0
  0
SCALE
  5
52
102
{ACAD_REACTORS
330
47
102
}
330
47
100
AcDbScale
 70
     0
300
1/2" = 1'-0"
140
0.5
141
12.0
290
     0
  0
SCALE
  5
53
102
{ACAD_REACTORS
330
47
102
}
330
47
100
AcDbScale
 70
     0
300
3/4" = 1'-0"
140
0.75
141
12.0
290
     0
  0
SCALE
  5
54
102
{ACAD_REACTORS
330
47
102
}
330
47
100
AcDbScale
 70
     0
300
1" = 1'-0"
140
1.0
141
12.0
290
     0
  0
SCALE
  5
55
102
{ACAD_REACTORS
330
47
102
}
330
47
100
AcDbScale
 70
     0
300
1-1/2" = 1'-0"
140
1.5
141
12.0
290
     0
  0
SCALE
  5
56
102
{ACAD_REACTORS
330
47
102
}
330
47
100
AcDbScale
 70
     0
300
3" = 1'-0"
140
3.0
141
12.0
290
     0
  0
SCALE
  5
57
102
{ACAD_REACTORS
330
47
102
}
330
47
100
AcDbScale
 70
     0
300
6" = 1'-0"
140
6.0
141
12.0
290
     0
  0
SCALE
  5
58
102
{ACAD_REACTORS
330
47
102
}
330
47
100
AcDbScale
 70
     0
300
1'-0" = 1'-0"
140
12.0
141
12.0
290
     0
  0
TABLESTYLE
  5
5A
102
{ACAD_REACTORS
330
59
102
}
102
{ACAD_XDICTIONARY
360
B0
102
}
330
59
100
AcDbTableStyle
  3
Standard
 70
     0
 71
     0
 40
0.06
 41
0.06
280
     0
281
     0
  7
Standard
140
0.18
170
     2
 62
     0
 63
   257
283
     0
 90
        4
 91
        0
  1

274
    -2
284
     1
 64
     0
275
    -2
285
     1
 65
     0
276
    -2
286
     1
 66
     0
277
    -2
287
     1
 67
     0
278
    -2
288
     1
 68
     0
279
    -2
289
     1
 69
     0
  7
Standard
140
0.25
170
     5
 62
     0
 63
   257
283
     0
 90
        4
 91
        0
  1

274
    -2
284
     1
 64
     0
275
    -2
285
     1
 65
     0
276
    -2
286
     1
 66
     0
277
    -2
287
     1
 67
     0
278
    -2
288
     1
 68
     0
279
    -2
289
     1
 69
     0
  7
Standard
140
0.18
170
     5
 62
     0
 63
   257
283
     0
 90
        4
 91
        0
  1

274
    -2
284
     1
 64
     0
275
    -2
285
     1
 65
     0
276
    -2
286
     1
 66
     0
277
    -2
287
     1
 67
     0
278
    -2
288
     1
 68
     0
279
    -2
289
     1
 69
     0
  0
VISUALSTYLE
  5
2F
102
{ACAD_REACTORS
330
2A
102
}
330
2A
100
AcDbVisualStyle
  2
2dWireframe
 70
     4
177
     3
291
     0
 70
    58
 90
        0
176
     1
 90
        2
176
     1
 90
        0
176
     1
 90
        0
176
     1
 40
0.6
176
     1
 40
30.0
176
     1
 62
     7
420
 16777215
176
     1
 90
        1
176
     1
 90
        4
176
     1
 62
     7
176
     1
 62
   257
176
     1
 90
        1
176
     1
 90
        1
176
     1
 40
1.0
176
     1
 90
        0
176
     1
 62
   257
176
     1
 40
1.0
176
     1
 90
        1
176
     1
 90
        6
176
     1
 90
        2
176
     1
 62
     7
176
     1
 90
        5
176
     1
 90
        0
176
     1
 90
        0
176
     1
290
     0
176
     1
 90
        1
176
     1
 40
0.0
176
     1
 90
        0
176
     1
290
     1
176
     1
290
     1
176
     1
290
     0
176
     1
290
     0
176
     1
290
     0
176
     1
290
     0
176
     1
290
     0
176
     1
290
     0
176
     1
290
     0
176
     1
 90
       50
176
     1
 40
0.0
176
     1
 40
1.0
176
     1
 90
        0
176
     1
 62
    18
420
        0
176
     1
 90
       50
176
     1
 90
        3
176
     1
 62
     5
420
      255
176
     1
290
     0
176
     1
 90
       50
176
     1
 90
       50
176
     1
 90
       50
176
     1
290
     0
176
     1
 90
       50
176
     1
 62
   256
176
     0
 40
1.0
176
     0
 90
        2
176
     1
  1
strokes_ogs.tif
176
     1
290
     0
176
     1
 40
1.0
176
     1
 40
1.0
176
     1
  0
VISUALSTYLE
  5
32
102
{ACAD_REACTORS
330
2A
102
}
330
2A
100
AcDbVisualStyle
  2
Basic
 70
     7
177
     3
291
     1
 70
    58
 90
        1
176
     1
 90
        0
176
     1
 90
        1
176
     1
 90
        0
176
     1
 40
0.6
176
     1
 40
30.0
176
     1
 62
     7
420
 16777215
176
     1
 90
        0
176
     1
 90
        4
176
     1
 62
     7
176
     1
 62
   257
176
     1
 90
        1
176
     1
 90
        1
176
     1
 40
1.0
176
     1
 90
        8
176
     1
 62
     7
176
     1
 40
1.0
176
     1
 90
        1
176
     1
 90
        6
176
     1
 90
        2
176
     1
 62
     7
176
     1
 90
        5
176
     1
 90
        0
176
     1
 90
        0
176
     1
290
     0
176
     1
 90
        1
176
     1
 40
0.0
176
     1
 90
        0
176
     1
290
     0
176
     1
290
     1
176
     1
290
     1
176
     1
290
     0
176
     1
290
     0
176
     1
290
     0
176
     1
290
     0
176
     1
290
     0
176
     1
290
     0
176
     1
 90
       50
176
     1
 40
0.0
176
     1
 40
1.0
176
     1
 90
        0
176
     1
 62
    18
420
        0
176
     1
 90
       50
176
     1
 90
        3
176
     1
 62
     5
420
      255
176
     1
290
     0
176
     1
 90
       50
176
     1
 90
       50
176
     1
 90
       50
176
     1
290
     0
176
     1
 90
       50
176
     1
 62
   256
176
     0
 40
1.0
176
     0
 90
        2
176
     1
  1
strokes_ogs.tif
176
     1
290
     0
176
     1
 40
1.0
176
     1
 40
1.0
176
     1
  0
VISUALSTYLE
  5
36
102
{ACAD_REACTORS
330
2A
102
}
330
2A
100
AcDbVisualStyle
  2
Brighten
 70
    12
177
     3
291
     1
 70
    58
 90
        2
176
     1
 90
        2
176
     1
 90
        0
176
     1
 90
        0
176
     1
 40
0.6
176
     1
 40
30.0
176
     1
 62
     7
420
 16777215
176
     1
 90
        1
176
     1
 90
        4
176
     1
 62
     7
176
     1
 62
   257
176
     1
 90
        1
176
     1
 90
        1
176
     1
 40
1.0
176
     1
 90
        8
176
     1
 62
     7
176
     1
 40
1.0
176
     1
 90
        1
176
     1
 90
        6
176
     1
 90
        2
176
     1
 62
     7
176
     1
 90
        5
176
     1
 90
        0
176
     1
 90
        0
176
     1
290
     0
176
     1
 90
        1
176
     1
 40
50.0
176
     1
 90
        0
176
     1
290
     0
176
     1
290
     1
176
     1
290
     1
176
     1
290
     0
176
     1
290
     0
176
     1
290
     0
176
     1
290
     0
176
     1
290
     0
176
     1
290
     0
176
     1
 90
       50
176
     1
 40
0.0
176
     1
 40
1.0
176
     1
 90
        0
176
     1
 62
    18
420
        0
176
     1
 90
       50
176
     1
 90
        3
176
     1
 62
     5
420
      255
176
     1
290
     0
176
     1
 90
       50
176
     1
 90
       50
176
     1
 90
       50
176
     1
290
     0
176
     1
 90
       50
176
     1
 62
   256
176
     0
 40
1.0
176
     0
 90
        2
176
     1
  1
strokes_ogs.tif
176
     1
290
     0
176
     1
 40
1.0
176
     1
 40
1.0
176
     1
  0
VISUALSTYLE
  5
3A
102
{ACAD_REACTORS
330
2A
102
}
330
2A
100
AcDbVisualStyle
  2
ColorChange
 70
    16
177
     3
291
     1
 70
    58
 90
        2
176
     1
 90
        2
176
     1
 90
        3
176
     1
 90
        0
176
     1
 40
0.6
176
     1
 40
30.0
176
     1
 62
     8
420
  8421504
176
     1
 90
        1
176
     1
 90
        4
176
     1
 62
     7
176
     1
 62
   257
176
     1
 90
        1
176
     1
 90
        1
176
     1
 40
1.0
176
     1
 90
        8
176
     1
 62
     8
420
  8421504
176
     1
 40
1.0
176
     1
 90
        1
176
     1
 90
        6
176
     1
 90
        2
176
     1
 62
     7
176
     1
 90
        5
176
     1
 90
        0
176
     1
 90
        0
176
     1
290
     0
176
     1
 90
        1
176
     1
 40
0.0
176
     1
 90
        0
176
     1
290
     0
176
     1
290
     1
176
     1
290
     1
176
     1
290
     0
176
     1
290
     0
176
     1
290
     0
176
     1
290
     0
176
     1
290
     0
176
     1
290
     0
176
     1
 90
       50
176
     1
 40
0.0
176
     1
 40
1.0
176
     1
 90
        0
176
     1
 62
    18
420
        0
176
     1
 90
       50
176
     1
 90
        3
176
     1
 62
     5
420
      255
176
     1
290
     0
176
     1
 90
       50
176
     1
 90
       50
176
     1
 90
       50
176
     1
290
     0
176
     1
 90
       50
176
     1
 62
   256
176
     0
 40
1.0
176
     0
 90
        2
176
     1
  1
strokes_ogs.tif
176
     1
290
     0
176
     1
 40
1.0
176
     1
 40
1.0
176
     1
  0
VISUALSTYLE
  5
34
102
{ACAD_REACTORS
330
2A
102
}
330
2A
100
AcDbVisualStyle
  2
Conceptual
 70
     9
177
     3
291
     0
 70
    58
 90
        3
176
     1
 90
        2
176
     1
 90
        0
176
     1
 90
        0
176
     1
 40
0.6
176
     1
 40
30.0
176
     1
 62
     7
420
 16777215
176
     1
 90
        2
176
     1
 90
        2
176
     1
 62
     7
176
     1
 62
   257
176
     1
 90
        1
176
     1
 90
        1
176
     1
 40
179.0
176
     1
 90
        8
176
     1
 62
     7
176
     1
 40
1.0
176
     1
 90
        1
176
     1
 90
        6
176
     1
 90
        2
176
     1
 62
     7
176
     1
 90
        3
176
     1
 90
        0
176
     1
 90
        0
176
     1
290
     0
176
     1
 90
        1
176
     1
 40
0.0
176
     1
 90
        0
176
     1
290
     0
176
     1
290
     1
176
     1
290
     1
176
     1
290
     0
176
     1
290
     0
176
     1
290
     0
176
     1
290
     0
176
     1
290
     0
176
     1
290
     0
176
     1
 90
       50
176
     1
 40
0.0
176
     1
 40
1.0
176
     1
 90
        0
176
     1
 62
    18
420
        0
176
     1
 90
       50
176
     1
 90
        3
176
     1
 62
     5
420
      255
176
     1
290
     0
176
     1
 90
       50
176
     1
 90
       50
176
     1
 90
       50
176
     1
290
     0
176
     1
 90
       50
176
     1
 62
   256
176
     0
 40
1.0
176
     0
 90
        2
176
     1
  1
strokes_ogs.tif
176
     1
290
     0
176
     1
 40
1.0
176
     1
 40
1.0
176
     1
  0
VISUALSTYLE
  5
35
102
{ACAD_REACTORS
330
2A
102
}
330
2A
100
AcDbVisualStyle
  2
Dim
 70
    11
177
     3
291
     1
 70
    58
 90
        2
176
     1
 90
        2
176
     1
 90
        0
176
     1
 90
        0
176
     1
 40
0.6
176
     1
 40
30.0
176
     1
 62
     7
420
 16777215
176
     1
 90
        1
176
     1
 90
        4
176
     1
 62
     7
176
     1
 62
   257
176
     1
 90
        1
176
     1
 90
        1
176
     1
 40
1.0
176
     1
 90
        8
176
     1
 62
     7
176
     1
 40
1.0
176
     1
 90
        1
176
     1
 90
        6
176
     1
 90
        2
176
     1
 62
     7
176
     1
 90
        5
176
     1
 90
        0
176
     1
 90
        0
176
     1
290
     0
176
     1
 90
        1
176
     1
 40
-50.0
176
     1
 90
        0
176
     1
290
     0
176
     1
290
     1
176
     1
290
     1
176
     1
290
     0
176
     1
290
     0
176
     1
290
     0
176
     1
290
     0
176
     1
290
     0
176
     1
290
     0
176
     1
 90
       50
176
     1
 40
0.0
176
     1
 40
1.0
176
     1
 90
        0
176
     1
 62
    18
420
        0
176
     1
 90
       50
176
     1
 90
        3
176
     1
 62
     5
420
      255
176
     1
290
     0
176
     1
 90
       50
176
     1
 90
       50
176
     1
 90
       50
176
     1
290
     0
176
     1
 90
       50
176
     1
 62
   256
176
     0
 40
1.0
176
     0
 90
        2
176
     1
  1
strokes_ogs.tif
176
     1
290
     0
176
     1
 40
1.0
176
     1
 40
1.0
176
     1
  0
VISUALSTYLE
  5
3D
102
{ACAD_REACTORS
330
2A
102
}
330
2A
100
AcDbVisualStyle
  2
EdgeColorOff
 70
    22
177
     3
291
     1
 70
    58
 90
        2
176
     0
 90
        2
176
     0
 90
        0
176
     0
 90
        0
176
     0
 40
0.6
176
     0
 40
30.0
176
     0
 62
     7
420
 16777215
176
     0
 90
        1
176
     0
 90
        4
176
     0
 62
     7
176
     0
 62
   257
176
     0
 90
        1
176
     0
 90
        1
176
     0
 40
1.0
176
     0
 90
        8
176
     2
 62
     7
176
     0
 40
1.0
176
     0
 90
        1
176
     0
 90
        6
176
     0
 90
        2
176
     0
 62
     7
176
     0
 90
        5
176
     0
 90
        0
176
     0
 90
        0
176
     0
290
     0
176
     0
 90
        1
176
     0
 40
0.0
176
     0
 90
        0
176
     0
290
     0
176
     0
290
     1
176
     0
290
     1
176
     0
290
     0
176
     0
290
     0
176
     0
290
     0
176
     0
290
     0
176
     0
290
     0
176
     0
290
     0
176
     0
 90
       50
176
     0
 40
0.0
176
     0
 40
1.0
176
     0
 90
        0
176
     0
 62
    18
420
        0
176
     0
 90
       50
176
     0
 90
        3
176
     0
 62
     5
420
      255
176
     0
290
     0
176
     0
 90
       50
176
     0
 90
       50
176
     0
 90
       50
176
     0
290
     0
176
     0
 90
       50
176
     0
 62
   256
176
     0
 40
1.0
176
     0
 90
        2
176
     0
  1
strokes_ogs.tif
176
     0
290
     0
176
     0
 40
1.0
176
     0
 40
1.0
176
     0
  0
VISUALSTYLE
  5
39
102
{ACAD_REACTORS
330
2A
102
}
330
2A
100
AcDbVisualStyle
  2
Facepattern
 70
    15
177
     3
291
     1
 70
    58
 90
        2
176
     1
 90
        2
176
     1
 90
        0
176
     1
 90
        0
176
     1
 40
0.6
176
     1
 40
30.0
176
     1
 62
     7
420
 16777215
176
     1
 90
        1
176
     1
 90
        4
176
     1
 62
     7
176
     1
 62
   257
176
     1
 90
        1
176
     1
 90
        1
176
     1
 40
1.0
176
     1
 90
        8
176
     1
 62
     7
176
     1
 40
1.0
176
     1
 90
        1
176
     1
 90
        6
176
     1
 90
        2
176
     1
 62
     7
176
     1
 90
        5
176
     1
 90
        0
176
     1
 90
        0
176
     1
290
     0
176
     1
 90
        1
176
     1
 40
0.0
176
     1
 90
        0
176
     1
290
     0
176
     1
290
     1
176
     1
290
     1
176
     1
290
     0
176
     1
290
     0
176
     1
290
     0
176
     1
290
     0
176
     1
290
     0
176
     1
290
     0
176
     1
 90
       50
176
     1
 40
0.0
176
     1
 40
1.0
176
     1
 90
        0
176
     1
 62
    18
420
        0
176
     1
 90
       50
176
     1
 90
        3
176
     1
 62
     5
420
      255
176
     1
290
     0
176
     1
 90
       50
176
     1
 90
       50
176
     1
 90
       50
176
     1
290
     0
176
     1
 90
       50
176
     1
 62
   256
176
     0
 40
1.0
176
     0
 90
        2
176
     1
  1
strokes_ogs.tif
176
     1
290
     0
176
     1
 40
1.0
176
     1
 40
1.0
176
     1
  0
VISUALSTYLE
  5
2B
102
{ACAD_REACTORS
330
2A
102
}
330
2A
100
AcDbVisualStyle
  2
Flat
 70
     0
177
     3
291
     1
 70
    58
 90
        2
176
     1
 90
        1
176
     1
 90
        1
176
     1
 90
        2
176
     1
 40
0.6
176
     1
 40
30.0
176
     1
 62
     7
420
 16777215
176
     1
 90
        0
176
     1
 90
        0
176
     1
 62
     7
176
     1
 62
   257
176
     1
 90
        1
176
     1
 90
        1
176
     1
 40
1.0
176
     1
 90
        8
176
     1
 62
     7
176
     1
 40
1.0
176
     1
 90
        1
176
     1
 90
        6
176
     1
 90
        2
176
     1
 62
     7
176
     1
 90
        5
176
     1
 90
        0
176
     1
 90
        0
176
     1
290
     0
176
     1
 90
       13
176
     1
 40
0.0
176
     1
 90
        0
176
     1
290
     0
176
     1
290
     1
176
     1
290
     1
176
     1
290
     0
176
     1
290
     0
176
     1
290
     0
176
     1
290
     0
176
     1
290
     0
176
     1
290
     0
176
     1
 90
       50
176
     1
 40
0.0
176
     1
 40
1.0
176
     1
 90
        0
176
     1
 62
    18
420
        0
176
     1
 90
       50
176
     1
 90
        3
176
     1
 62
     5
420
      255
176
     1
290
     0
176
     1
 90
       50
176
     1
 90
       50
176
     1
 90
       50
176
     1
290
     0
176
     1
 90
       50
176
     1
 62
   256
176
     0
 40
1.0
176
     0
 90
        2
176
     1
  1
strokes_ogs.tif
176
     1
290
     0
176
     1
 40
1.0
176
     1
 40
1.0
176
     1
  0
VISUALSTYLE
  5
2C
102
{ACAD_REACTORS
330
2A
102
}
330
2A
100
AcDbVisualStyle
  2
FlatWithEdges
 70
     1
177
     3
291
     1
 70
    58
 90
        2
176
     1
 90
        1
176
     1
 90
        1
176
     1
 90
        2
176
     1
 40
0.6
176
     1
 40
30.0
176
     1
 62
     7
420
 16777215
176
     1
 90
        1
176
     1
 90
        0
176
     1
 62
     7
176
     1
 62
   257
176
     1
 90
        1
176
     1
 90
        1
176
     1
 40
1.0
176
     1
 90
        0
176
     1
 62
   257
176
     1
 40
1.0
176
     1
 90
        1
176
     1
 90
        6
176
     1
 90
        2
176
     1
 62
     7
176
     1
 90
        5
176
     1
 90
        0
176
     1
 90
        0
176
     1
290
     0
176
     1
 90
       13
176
     1
 40
0.0
176
     1
 90
        0
176
     1
290
     0
176
     1
290
     1
176
     1
290
     1
176
     1
290
     0
176
     1
290
     0
176
     1
290
     0
176
     1
290
     0
176
     1
290
     0
176
     1
290
     0
176
     1
 90
       50
176
     1
 40
0.0
176
     1
 40
1.0
176
     1
 90
        0
176
     1
 62
    18
420
        0
176
     1
 90
       50
176
     1
 90
        3
176
     1
 62
     5
420
      255
176
     1
290
     0
176
     1
 90
       50
176
     1
 90
       50
176
     1
 90
       50
176
     1
290
     0
176
     1
 90
       50
176
     1
 62
   256
176
     0
 40
1.0
176
     0
 90
        2
176
     1
  1
strokes_ogs.tif
176
     1
290
     0
176
     1
 40
1.0
176
     1
 40
1.0
176
     1
  0
VISUALSTYLE
  5
2D
102
{ACAD_REACTORS
330
2A
102
}
330
2A
100
AcDbVisualStyle
  2
Gouraud
 70
     2
177
     3
291
     1
 70
    58
 90
        2
176
     1
 90
        2
176
     1
 90
        1
176
     1
 90
        2
176
     1
 40
0.6
176
     1
 40
30.0
176
     1
 62
     7
420
 16777215
176
     1
 90
        0
176
     1
 90
        0
176
     1
 62
     7
176
     1
 62
   257
176
     1
 90
        1
176
     1
 90
        1
176
     1
 40
1.0
176
     1
 90
        0
176
     1
 62
     7
176
     1
 40
1.0
176
     1
 90
        1
176
     1
 90
        6
176
     1
 90
        2
176
     1
 62
     7
176
     1
 90
        5
176
     1
 90
        0
176
     1
 90
        0
176
     1
290
     0
176
     1
 90
       13
176
     1
 40
0.0
176
     1
 90
        0
176
     1
290
     0
176
     1
290
     1
176
     1
290
     1
176
     1
290
     0
176
     1
290
     0
176
     1
290
     0
176
     1
290
     0
176
     1
290
     0
176
     1
290
     0
176
     1
 90
       50
176
     1
 40
0.0
176
     1
 40
1.0
176
     1
 90
        0
176
     1
 62
    18
420
        0
176
     1
 90
       50
176
     1
 90
        3
176
     1
 62
     5
420
      255
176
     1
290
     0
176
     1
 90
       50
176
     1
 90
       50
176
     1
 90
       50
176
     1
290
     0
176
     1
 90
       50
176
     1
 62
   256
176
     0
 40
1.0
176
     0
 90
        2
176
     1
  1
strokes_ogs.tif
176
     1
290
     0
176
     1
 40
1.0
176
     1
 40
1.0
176
     1
  0
VISUALSTYLE
  5
2E
102
{ACAD_REACTORS
330
2A
102
}
330
2A
100
AcDbVisualStyle
  2
GouraudWithEdges
 70
     3
177
     3
291
     1
 70
    58
 90
        2
176
     1
 90
        2
176
     1
 90
        1
176
     1
 90
        2
176
     1
 40
0.6
176
     1
 40
30.0
176
     1
 62
     7
420
 16777215
176
     1
 90
        1
176
     1
 90
        0
176
     1
 62
     7
176
     1
 62
   257
176
     1
 90
        1
176
     1
 90
        1
176
     1
 40
1.0
176
     1
 90
        0
176
     1
 62
   257
176
     1
 40
1.0
176
     1
 90
        1
176
     1
 90
        6
176
     1
 90
        2
176
     1
 62
     7
176
     1
 90
        5
176
     1
 90
        0
176
     1
 90
        0
176
     1
290
     0
176
     1
 90
       13
176
     1
 40
0.0
176
     1
 90
        0
176
     1
290
     0
176
     1
290
     1
176
     1
290
     1
176
     1
290
     0
176
     1
290
     0
176
     1
290
     0
176
     1
290
     0
176
     1
290
     0
176
     1
290
     0
176
     1
 90
       50
176
     1
 40
0.0
176
     1
 40
1.0
176
     1
 90
        0
176
     1
 62
    18
420
        0
176
     1
 90
       50
176
     1
 90
        3
176
     1
 62
     5
420
      255
176
     1
290
     0
176
     1
 90
       50
176
     1
 90
       50
176
     1
 90
       50
176
     1
290
     0
176
     1
 90
       50
176
     1
 62
   256
176
     0
 40
1.0
176
     0
 90
        2
176
     1
  1
strokes_ogs.tif
176
     1
290
     0
176
     1
 40
1.0
176
     1
 40
1.0
176
     1
  0
VISUALSTYLE
  5
31
102
{ACAD_REACTORS
330
2A
102
}
330
2A
100
AcDbVisualStyle
  2
Hidden
 70
     6
177
     3
291
     0
 70
    58
 90
        1
176
     1
 90
        2
176
     1
 90
        2
176
     1
 90
        0
176
     1
 40
0.6
176
     1
 40
30.0
176
     1
 62
     7
420
 16777215
176
     1
 90
        2
176
     1
 90
        2
176
     1
 62
     7
176
     1
 62
   257
176
     1
 90
        2
176
     1
 90
        1
176
     1
 40
40.0
176
     1
 90
        0
176
     1
 62
   257
176
     1
 40
1.0
176
     1
 90
        1
176
     1
 90
        6
176
     1
 90
        2
176
     1
 62
     7
176
     1
 90
        3
176
     1
 90
        0
176
     1
 90
        0
176
     1
290
     0
176
     1
 90
        1
176
     1
 40
0.0
176
     1
 90
        0
176
     1
290
     0
176
     1
290
     1
176
     1
290
     1
176
     1
290
     0
176
     1
290
     0
176
     1
290
     0
176
     1
290
     0
176
     1
290
     0
176
     1
290
     0
176
     1
 90
       50
176
     1
 40
0.0
176
     1
 40
1.0
176
     1
 90
        0
176
     1
 62
    18
420
        0
176
     1
 90
       50
176
     1
 90
        3
176
     1
 62
     5
420
      255
176
     1
290
     0
176
     1
 90
       50
176
     1
 90
       50
176
     1
 90
       50
176
     1
290
     0
176
     1
 90
       50
176
     1
 62
   256
176
     0
 40
1.0
176
     0
 90
        2
176
     1
  1
strokes_ogs.tif
176
     1
290
     0
176
     1
 40
1.0
176
     1
 40
1.0
176
     1
  0
VISUALSTYLE
  5
3B
102
{ACAD_REACTORS
330
2A
102
}
330
2A
100
AcDbVisualStyle
  2
JitterOff
 70
    20
177
     3
291
     1
 70
    58
 90
        2
176
     0
 90
        2
176
     0
 90
        0
176
     0
 90
        0
176
     0
 40
0.6
176
     0
 40
30.0
176
     0
 62
     7
420
 16777215
176
     0
 90
        1
176
     0
 90
        4
176
     0
 62
     7
176
     0
 62
   257
176
     0
 90
        1
176
     0
 90
        1
176
     0
 40
1.0
176
     0
 90
       10
176
     2
 62
     7
176
     0
 40
1.0
176
     0
 90
        1
176
     0
 90
        6
176
     0
 90
        2
176
     0
 62
     7
176
     0
 90
        5
176
     0
 90
        0
176
     0
 90
        0
176
     0
290
     0
176
     0
 90
        1
176
     0
 40
0.0
176
     0
 90
        0
176
     0
290
     0
176
     0
290
     1
176
     0
290
     1
176
     0
290
     0
176
     0
290
     0
176
     0
290
     0
176
     0
290
     0
176
     0
290
     0
176
     0
290
     0
176
     0
 90
       50
176
     0
 40
0.0
176
     0
 40
1.0
176
     0
 90
        0
176
     0
 62
    18
420
        0
176
     0
 90
       50
176
     0
 90
        3
176
     0
 62
     5
420
      255
176
     0
290
     0
176
     0
 90
       50
176
     0
 90
       50
176
     0
 90
       50
176
     0
290
     0
176
     0
 90
       50
176
     0
 62
   256
176
     0
 40
1.0
176
     0
 90
        2
176
     0
  1
strokes_ogs.tif
176
     0
290
     0
176
     0
 40
1.0
176
     0
 40
1.0
176
     0
  0
VISUALSTYLE
  5
38
102
{ACAD_REACTORS
330
2A
102
}
330
2A
100
AcDbVisualStyle
  2
Linepattern
 70
    14
177
     3
291
     1
 70
    58
 90
        2
176
     1
 90
        2
176
     1
 90
        0
176
     1
 90
        0
176
     1
 40
0.6
176
     1
 40
30.0
176
     1
 62
     7
420
 16777215
176
     1
 90
        1
176
     1
 90
        4
176
     1
 62
     7
176
     1
 62
   257
176
     1
 90
        7
176
     1
 90
        7
176
     1
 40
1.0
176
     1
 90
        8
176
     1
 62
     7
176
     1
 40
1.0
176
     1
 90
        1
176
     1
 90
        6
176
     1
 90
        2
176
     1
 62
     7
176
     1
 90
        5
176
     1
 90
        0
176
     1
 90
        0
176
     1
290
     0
176
     1
 90
        1
176
     1
 40
0.0
176
     1
 90
        0
176
     1
290
     0
176
     1
290
     1
176
     1
290
     1
176
     1
290
     0
176
     1
290
     0
176
     1
290
     0
176
     1
290
     0
176
     1
290
     0
176
     1
290
     0
176
     1
 90
       50
176
     1
 40
0.0
176
     1
 40
1.0
176
     1
 90
        0
176
     1
 62
    18
420
        0
176
     1
 90
       50
176
     1
 90
        3
176
     1
 62
     5
420
      255
176
     1
290
     0
176
     1
 90
       50
176
     1
 90
       50
176
     1
 90
       50
176
     1
290
     0
176
     1
 90
       50
176
     1
 62
   256
176
     0
 40
1.0
176
     0
 90
        2
176
     1
  1
strokes_ogs.tif
176
     1
290
     0
176
     1
 40
1.0
176
     1
 40
1.0
176
     1
  0
VISUALSTYLE
  5
3C
102
{ACAD_REACTORS
330
2A
102
}
330
2A
100
AcDbVisualStyle
  2
OverhangOff
 70
    21
177
     3
291
     1
 70
    58
 90
        2
176
     0
 90
        2
176
     0
 90
        0
176
     0
 90
        0
176
     0
 40
0.6
176
     0
 40
30.0
176
     0
 62
     7
420
 16777215
176
     0
 90
        1
176
     0
 90
        4
176
     0
 62
     7
176
     0
 62
   257
176
     0
 90
        1
176
     0
 90
        1
176
     0
 40
1.0
176
     0
 90
        9
176
     2
 62
     7
176
     0
 40
1.0
176
     0
 90
        1
176
     0
 90
        6
176
     0
 90
        2
176
     0
 62
     7
176
     0
 90
        5
176
     0
 90
        0
176
     0
 90
        0
176
     0
290
     0
176
     0
 90
        1
176
     0
 40
0.0
176
     0
 90
        0
176
     0
290
     0
176
     0
290
     1
176
     0
290
     1
176
     0
290
     0
176
     0
290
     0
176
     0
290
     0
176
     0
290
     0
176
     0
290
     0
176
     0
290
     0
176
     0
 90
       50
176
     0
 40
0.0
176
     0
 40
1.0
176
     0
 90
        0
176
     0
 62
    18
420
        0
176
     0
 90
       50
176
     0
 90
        3
176
     0
 62
     5
420
      255
176
     0
290
     0
176
     0
 90
       50
176
     0
 90
       50
176
     0
 90
       50
176
     0
290
     0
176
     0
 90
       50
176
     0
 62
   256
176
     0
 40
1.0
176
     0
 90
        2
176
     0
  1
strokes_ogs.tif
176
     0
290
     0
176
     0
 40
1.0
176
     0
 40
1.0
176
     0
  0
VISUALSTYLE
  5
33
102
{ACAD_REACTORS
330
2A
102
}
330
2A
100
AcDbVisualStyle
  2
Realistic
 70
     8
177
     3
291
     0
 70
    58
 90
        2
176
     1
 90
        3
176
     1
 90
        0
176
     1
 90
        2
176
     1
 40
0.6
176
     1
 40
30.0
176
     1
 62
     7
420
 16777215
176
     1
 90
        0
176
     1
 90
        0
176
     1
 62
     7
176
     1
 62
   257
176
     1
 90
        1
176
     1
 90
        1
176
     1
 40
1.0
176
     1
 90
        8
176
     1
 62
   257
176
     1
 40
1.0
176
     1
 90
        1
176
     1
 90
        6
176
     1
 90
        2
176
     1
 62
     7
176
     1
 90
        3
176
     1
 90
        0
176
     1
 90
        0
176
     1
290
     0
176
     1
 90
       13
176
     1
 40
0.0
176
     1
 90
        0
176
     1
290
     0
176
     1
290
     1
176
     1
290
     1
176
     1
290
     0
176
     1
290
     0
176
     1
290
     0
176
     1
290
     0
176
     1
290
     0
176
     1
290
     0
176
     1
 90
       50
176
     1
 40
0.0
176
     1
 40
1.0
176
     1
 90
        0
176
     1
 62
    18
420
        0
176
     1
 90
       50
176
     1
 90
        3
176
     1
 62
     5
420
      255
176
     1
290
     0
176
     1
 90
       50
176
     1
 90
       50
176
     1
 90
       50
176
     1
290
     0
176
     1
 90
       50
176
     1
 62
   256
176
     0
 40
1.0
176
     0
 90
        2
176
     1
  1
strokes_ogs.tif
176
     1
290
     0
176
     1
 40
1.0
176
     1
 40
1.0
176
     1
  0
VISUALSTYLE
  5
42
102
{ACAD_REACTORS
330
2A
102
}
330
2A
100
AcDbVisualStyle
  2
Shaded
 70
    27
177
     3
291
     0
 70
    58
 90
        2
176
     1
 90
        2
176
     1
 90
        1
176
     1
 90
        2
176
     1
 40
0.6
176
     1
 40
30.0
176
     1
 62
     7
420
 16777215
176
     1
 90
        0
176
     1
 90
        4
176
     1
 62
     7
176
     1
 62
   257
176
     1
 90
        1
176
     1
 90
        1
176
     1
 40
1.0
176
     1
 90
        8
176
     1
 62
   257
176
     1
 40
1.0
176
     1
 90
        1
176
     1
 90
        6
176
     1
 90
        2
176
     1
 62
     8
420
  7895160
176
     1
 90
        3
176
     1
 90
        0
176
     1
 90
        0
176
     1
290
     0
176
     1
 90
        5
176
     1
 40
0.0
176
     1
 90
        0
176
     1
290
     0
176
     1
290
     1
176
     1
290
     1
176
     1
290
     0
176
     1
290
     0
176
     1
290
     0
176
     1
290
     0
176
     1
290
     0
176
     1
290
     0
176
     1
 90
       50
176
     1
 40
0.0
176
     1
 40
1.0
176
     1
 90
        0
176
     1
 62
    18
420
        0
176
     1
 90
       50
176
     1
 90
        3
176
     1
 62
     5
420
      255
176
     1
290
     0
176
     1
 90
       50
176
     1
 90
       50
176
     1
 90
       50
176
     1
290
     0
176
     1
 90
       50
176
     1
 62
   256
176
     0
 40
1.0
176
     0
 90
        2
176
     1
  1
strokes_ogs.tif
176
     1
290
     0
176
     1
 40
1.0
176
     1
 40
1.0
176
     1
  0
VISUALSTYLE
  5
41
102
{ACAD_REACTORS
330
2A
102
}
330
2A
100
AcDbVisualStyle
  2
Shaded with edges
 70
    26
177
     3
291
     0
 70
    58
 90
        2
176
     1
 90
        2
176
     1
 90
        1
176
     1
 90
        2
176
     1
 40
0.6
176
     1
 40
30.0
176
     1
 62
     7
420
 16777215
176
     1
 90
        1
176
     1
 90
       10
176
     1
 62
     7
176
     1
 62
   257
176
     1
 90
        2
176
     1
 90
        1
176
     1
 40
1.0
176
     1
 90
        8
176
     1
 62
   257
176
     1
 40
1.0
176
     1
 90
        1
176
     1
 90
        6
176
     1
 90
        2
176
     1
 62
     7
176
     1
 90
        3
176
     1
 90
        0
176
     1
 90
        0
176
     1
290
     0
176
     1
 90
        5
176
     1
 40
0.0
176
     1
 90
        0
176
     1
290
     0
176
     1
290
     1
176
     1
290
     1
176
     1
290
     0
176
     1
290
     0
176
     1
290
     0
176
     1
290
     0
176
     1
290
     0
176
     1
290
     0
176
     1
 90
       50
176
     1
 40
0.0
176
     1
 40
1.0
176
     1
 90
        0
176
     1
 62
    18
420
        0
176
     1
 90
       50
176
     1
 90
        3
176
     1
 62
     5
420
      255
176
     1
290
     0
176
     1
 90
       50
176
     1
 90
       50
176
     1
 90
       50
176
     1
290
     0
176
     1
 90
       50
176
     1
 62
   256
176
     0
 40
1.0
176
     0
 90
        2
176
     1
  1
strokes_ogs.tif
176
     1
290
     0
176
     1
 40
1.0
176
     1
 40
1.0
176
     1
  0
VISUALSTYLE
  5
3E
102
{ACAD_REACTORS
330
2A
102
}
330
2A
100
AcDbVisualStyle
  2
Shades of Gray
 70
    23
177
     3
291
     0
 70
    58
 90
        2
176
     1
 90
        2
176
     1
 90
        3
176
     1
 90
        0
176
     1
 40
0.6
176
     1
 40
30.0
176
     1
 62
     7
420
 16777215
176
     1
 90
        2
176
     1
 90
        2
176
     1
 62
     7
176
     1
 62
     7
176
     1
 90
        1
176
     1
 90
        1
176
     1
 40
40.0
176
     1
 90
        8
176
     1
 62
     7
176
     1
 40
1.0
176
     1
 90
        1
176
     1
 90
        6
176
     1
 90
        2
176
     1
 62
     7
176
     1
 90
        3
176
     1
 90
        0
176
     1
 90
        0
176
     1
290
     0
176
     1
 90
        1
176
     1
 40
0.0
176
     1
 90
        0
176
     1
290
     0
176
     1
290
     1
176
     1
290
     1
176
     1
290
     0
176
     1
290
     0
176
     1
290
     0
176
     1
290
     0
176
     1
290
     0
176
     1
290
     0
176
     1
 90
       50
176
     1
 40
0.0
176
     1
 40
1.0
176
     1
 90
        0
176
     1
 62
    18
420
        0
176
     1
 90
       50
176
     1
 90
        3
176
     1
 62
     5
420
      255
176
     1
290
     0
176
     1
 90
       50
176
     1
 90
       50
176
     1
 90
       50
176
     1
290
     0
176
     1
 90
       50
176
     1
 62
   256
176
     0
 40
1.0
176
     0
 90
        2
176
     1
  1
strokes_ogs.tif
176
     1
290
     0
176
     1
 40
1.0
176
     1
 40
1.0
176
     1
  0
VISUALSTYLE
  5
3F
102
{ACAD_REACTORS
330
2A
102
}
330
2A
100
AcDbVisualStyle
  2
Sketchy
 70
    24
177
     3
291
     0
 70
    58
 90
        1
176
     1
 90
        2
176
     1
 90
        2
176
     1
 90
        0
176
     1
 40
0.6
176
     1
 40
30.0
176
     1
 62
     7
420
 16777215
176
     1
 90
        2
176
     1
 90
        2
176
     1
 62
     7
176
     1
 62
     7
176
     1
 90
        1
176
     1
 90
        1
176
     1
 40
40.0
176
     1
 90
       11
176
     1
 62
     7
176
     1
 40
1.0
176
     1
 90
        1
176
     1
 90
        6
176
     1
 90
        2
176
     1
 62
     7
176
     1
 90
        6
176
     1
 90
        0
176
     1
 90
        0
176
     1
290
     0
176
     1
 90
        1
176
     1
 40
0.0
176
     1
 90
        0
176
     1
290
     0
176
     1
290
     1
176
     1
290
     1
176
     1
290
     0
176
     1
290
     0
176
     1
290
     0
176
     1
290
     0
176
     1
290
     0
176
     1
290
     0
176
     1
 90
       50
176
     1
 40
0.0
176
     1
 40
1.0
176
     1
 90
        0
176
     1
 62
    18
420
        0
176
     1
 90
       50
176
     1
 90
        3
176
     1
 62
     5
420
      255
176
     1
290
     0
176
     1
 90
       50
176
     1
 90
       50
176
     1
 90
       50
176
     1
290
     0
176
     1
 90
       50
176
     1
 62
   256
176
     0
 40
1.0
176
     0
 90
        2
176
     1
  1
strokes_ogs.tif
176
     1
290
     0
176
     1
 40
1.0
176
     1
 40
1.0
176
     1
  0
VISUALSTYLE
  5
37
102
{ACAD_REACTORS
330
2A
102
}
330
2A
100
AcDbVisualStyle
  2
Thicken
 70
    13
177
     3
291
     1
 70
    58
 90
        2
176
     1
 90
        2
176
     1
 90
        0
176
     1
 90
        0
176
     1
 40
0.6
176
     1
 40
30.0
176
     1
 62
     7
420
 16777215
176
     1
 90
        1
176
     1
 90
        4
176
     1
 62
     7
176
     1
 62
   257
176
     1
 90
        1
176
     1
 90
        1
176
     1
 40
1.0
176
     1
 90
       12
176
     1
 62
     7
176
     1
 40
1.0
176
     1
 90
        1
176
     1
 90
        6
176
     1
 90
        2
176
     1
 62
     7
176
     1
 90
        5
176
     1
 90
        0
176
     1
 90
        0
176
     1
290
     0
176
     1
 90
        1
176
     1
 40
0.0
176
     1
 90
        0
176
     1
290
     0
176
     1
290
     1
176
     1
290
     1
176
     1
290
     0
176
     1
290
     0
176
     1
290
     0
176
     1
290
     0
176
     1
290
     0
176
     1
290
     0
176
     1
 90
       50
176
     1
 40
0.0
176
     1
 40
1.0
176
     1
 90
        0
176
     1
 62
    18
420
        0
176
     1
 90
       50
176
     1
 90
        3
176
     1
 62
     5
420
      255
176
     1
290
     0
176
     1
 90
       50
176
     1
 90
       50
176
     1
 90
       50
176
     1
290
     0
176
     1
 90
       50
176
     1
 62
   256
176
     0
 40
1.0
176
     0
 90
        2
176
     1
  1
strokes_ogs.tif
176
     1
290
     0
176
     1
 40
1.0
176
     1
 40
1.0
176
     1
  0
VISUALSTYLE
  5
30
102
{ACAD_REACTORS
330
2A
102
}
330
2A
100
AcDbVisualStyle
  2
Wireframe
 70
     5
177
     3
291
     0
 70
    58
 90
        0
176
     1
 90
        2
176
     1
 90
        0
176
     1
 90
        0
176
     1
 40
0.6
176
     1
 40
30.0
176
     1
 62
     7
420
 16777215
176
     1
 90
        1
176
     1
 90
        4
176
     1
 62
     7
176
     1
 62
   257
176
     1
 90
        1
176
     1
 90
        1
176
     1
 40
1.0
176
     1
 90
        0
176
     1
 62
   257
176
     1
 40
1.0
176
     1
 90
        1
176
     1
 90
        6
176
     1
 90
        2
176
     1
 62
     7
176
     1
 90
        3
176
     1
 90
        0
176
     1
 90
        0
176
     1
290
     0
176
     1
 90
        1
176
     1
 40
0.0
176
     1
 90
        0
176
     1
290
     0
176
     1
290
     1
176
     1
290
     1
176
     1
290
     0
176
     1
290
     0
176
     1
290
     0
176
     1
290
     0
176
     1
290
     0
176
     1
290
     0
176
     1
 90
       50
176
     1
 40
0.0
176
     1
 40
1.0
176
     1
 90
        0
176
     1
 62
    18
420
        0
176
     1
 90
       50
176
     1
 90
        3
176
     1
 62
     5
420
      255
176
     1
290
     0
176
     1
 90
       50
176
     1
 90
       50
176
     1
 90
       50
176
     1
290
     0
176
     1
 90
       50
176
     1
 62
   256
176
     0
 40
1.0
176
     0
 90
        2
176
     1
  1
strokes_ogs.tif
176
     1
290
     0
176
     1
 40
1.0
176
     1
 40
1.0
176
     1
  0
VISUALSTYLE
  5
40
102
{ACAD_REACTORS
330
2A
102
}
330
2A
100
AcDbVisualStyle
  2
X-Ray
 70
    25
177
     3
291
     0
 70
    58
 90
        2
176
     1
 90
        2
176
     1
 90
        1
176
     1
 90
        1
176
     1
 40
0.5
176
     1
 40
30.0
176
     1
 62
     7
420
 16777215
176
     1
 90
        1
176
     1
 90
        0
176
     1
 62
     7
176
     1
 62
   257
176
     1
 90
        1
176
     1
 90
        1
176
     1
 40
1.0
176
     1
 90
        8
176
     1
 62
     7
176
     1
 40
1.0
176
     1
 90
        1
176
     1
 90
        6
176
     1
 90
        2
176
     1
 62
     7
176
     1
 90
        3
176
     1
 90
        0
176
     1
 90
        0
176
     1
290
     0
176
     1
 90
       13
176
     1
 40
0.0
176
     1
 90
        0
176
     1
290
     0
176
     1
290
     1
176
     1
290
     1
176
     1
290
     0
176
     1
290
     0
176
     1
290
     0
176
     1
290
     0
176
     1
290
     0
176
     1
290
     0
176
     1
 90
       50
176
     1
 40
0.0
176
     1
 40
1.0
176
     1
 90
        0
176
     1
 62
    18
420
        0
176
     1
 90
       50
176
     1
 90
        3
176
     1
 62
     5
420
      255
176
     1
290
     0
176
     1
 90
       50
176
     1
 90
       50
176
     1
 90
       50
176
     1
290
     0
176
     1
 90
       50
176
     1
 62
   256
176
     0
 40
1.0
176
     0
 90
        2
176
     1
  1
strokes_ogs.tif
176
     1
290
     0
176
     1
 40
1.0
176
     1
 40
1.0
176
     1
  0
DICTIONARYVAR
  5
AF
102
{ACAD_REACTORS
330
AE
102
}
330
AE
100
DictionaryVariables
280
     0
  1
1:1
  0
DICTIONARYVAR
  5
B4
102
{ACAD_REACTORS
330
AE
102
}
330
AE
100
DictionaryVariables
280
     0
  1
Standard
  0
DICTIONARYVAR
  5
B3
102
{ACAD_REACTORS
330
AE
102
}
330
AE
100
DictionaryVariables
280
     0
  1
Standard
  0
DICTIONARY
  5
B0
330
5A
100
AcDbDictionary
280
     1
281
     1
  3
ACAD_ROUNDTRIP_2008_TABLESTYLE_CELLSTYLEMAP
360
B1
  0
CELLSTYLEMAP
  5
B1
102
{ACAD_REACTORS
330
B0
102
}
330
B0
100
AcDbCellStyleMap
 90
        3
300
CELLSTYLE
  1
TABLEFORMAT_BEGIN
 90
        5
170
     1
 91
        0
 92
    32768
 62
   257
 93
        1
300
CONTENTFORMAT
  1
CONTENTFORMAT_BEGIN
 90
        0
 91
        0
 92
        4
 93
        0
300

 40
0.0
140
1.0
 94
        5
 62
     0
340
11
144
0.25
309
CONTENTFORMAT_END
171
     1
301
MARGIN
  1
CELLMARGIN_BEGIN
 40
0.06
 40
0.06
 40
0.06
 40
0.06
 40
0.06
 40
0.06
309
CELLMARGIN_END
 94
        6
 95
        1
302
GRIDFORMAT
  1
GRIDFORMAT_BEGIN
 90
        0
 91
        1
 62
     0
 92
       -2
340
14
 93
        0
 40
0.045
309
GRIDFORMAT_END
 95
        2
302
GRIDFORMAT
  1
GRIDFORMAT_BEGIN
 90
        0
 91
        1
 62
     0
 92
       -2
340
14
 93
        0
 40
0.045
309
GRIDFORMAT_END
 95
        4
302
GRIDFORMAT
  1
GRIDFORMAT_BEGIN
 90
        0
 91
        1
 62
     0
 92
       -2
340
14
 93
        0
 40
0.045
309
GRIDFORMAT_END
 95
        8
302
GRIDFORMAT
  1
GRIDFORMAT_BEGIN
 90
        0
 91
        1
 62
     0
 92
       -2
340
14
 93
        0
 40
0.045
309
GRIDFORMAT_END
 95
       16
302
GRIDFORMAT
  1
GRIDFORMAT_BEGIN
 90
        0
 91
        1
 62
     0
 92
       -2
340
14
 93
        0
 40
0.045
309
GRIDFORMAT_END
 95
       32
302
GRIDFORMAT
  1
GRIDFORMAT_BEGIN
 90
        0
 91
        1
 62
     0
 92
       -2
340
14
 93
        0
 40
0.045
309
GRIDFORMAT_END
309
TABLEFORMAT_END
  1
CELLSTYLE_BEGIN
 90
        1
 91
        1
300
_TITLE
309
CELLSTYLE_END
300
CELLSTYLE
  1
TABLEFORMAT_BEGIN
 90
        5
170
     1
 91
        0
 92
        0
 62
   257
 93
        1
300
CONTENTFORMAT
  1
CONTENTFORMAT_BEGIN
 90
        0
 91
        0
 92
        4
 93
        0
300

 40
0.0
140
1.0
 94
        5
 62
     0
340
11
144
0.18
309
CONTENTFORMAT_END
171
     1
301
MARGIN
  1
CELLMARGIN_BEGIN
 40
0.06
 40
0.06
 40
0.06
 40
0.06
 40
0.06
 40
0.06
309
CELLMARGIN_END
 94
        6
 95
        1
302
GRIDFORMAT
  1
GRIDFORMAT_BEGIN
 90
        0
 91
        1
 62
     0
 92
       -2
340
14
 93
        0
 40
0.045
309
GRIDFORMAT_END
 95
        2
302
GRIDFORMAT
  1
GRIDFORMAT_BEGIN
 90
        0
 91
        1
 62
     0
 92
       -2
340
14
 93
        0
 40
0.045
309
GRIDFORMAT_END
 95
        4
302
GRIDFORMAT
  1
GRIDFORMAT_BEGIN
 90
        0
 91
        1
 62
     0
 92
       -2
340
14
 93
        0
 40
0.045
309
GRIDFORMAT_END
 95
        8
302
GRIDFORMAT
  1
GRIDFORMAT_BEGIN
 90
        0
 91
        1
 62
     0
 92
       -2
340
14
 93
        0
 40
0.045
309
GRIDFORMAT_END
 95
       16
302
GRIDFORMAT
  1
GRIDFORMAT_BEGIN
 90
        0
 91
        1
 62
     0
 92
       -2
340
14
 93
        0
 40
0.045
309
GRIDFORMAT_END
 95
       32
302
GRIDFORMAT
  1
GRIDFORMAT_BEGIN
 90
        0
 91
        1
 62
     0
 92
       -2
340
14
 93
        0
 40
0.045
309
GRIDFORMAT_END
309
TABLEFORMAT_END
  1
CELLSTYLE_BEGIN
 90
        2
 91
        1
300
_HEADER
309
CELLSTYLE_END
300
CELLSTYLE
  1
TABLEFORMAT_BEGIN
 90
        5
170
     1
 91
        0
 92
        0
 62
   257
 93
        1
300
CONTENTFORMAT
  1
CONTENTFORMAT_BEGIN
 90
        0
 91
        0
 92
        4
 93
        0
300

 40
0.0
140
1.0
 94
        2
 62
     0
340
11
144
0.18
309
CONTENTFORMAT_END
171
     1
301
MARGIN
  1
CELLMARGIN_BEGIN
 40
0.06
 40
0.06
 40
0.06
 40
0.06
 40
0.06
 40
0.06
309
CELLMARGIN_END
 94
        6
 95
        1
302
GRIDFORMAT
  1
GRIDFORMAT_BEGIN
 90
        0
 91
        1
 62
     0
 92
       -2
340
14
 93
        0
 40
0.045
309
GRIDFORMAT_END
 95
        2
302
GRIDFORMAT
  1
GRIDFORMAT_BEGIN
 90
        0
 91
        1
 62
     0
 92
       -2
340
14
 93
        0
 40
0.045
309
GRIDFORMAT_END
 95
        4
302
GRIDFORMAT
  1
GRIDFORMAT_BEGIN
 90
        0
 91
        1
 62
     0
 92
       -2
340
14
 93
        0
 40
0.045
309
GRIDFORMAT_END
 95
        8
302
GRIDFORMAT
  1
GRIDFORMAT_BEGIN
 90
        0
 91
        1
 62
     0
 92
       -2
340
14
 93
        0
 40
0.045
309
GRIDFORMAT_END
 95
       16
302
GRIDFORMAT
  1
GRIDFORMAT_BEGIN
 90
        0
 91
        1
 62
     0
 92
       -2
340
14
 93
        0
 40
0.045
309
GRIDFORMAT_END
 95
       32
302
GRIDFORMAT
  1
GRIDFORMAT_BEGIN
 90
        0
 91
        1
 62
     0
 92
       -2
340
14
 93
        0
 40
0.045
309
GRIDFORMAT_END
309
TABLEFORMAT_END
  1
CELLSTYLE_BEGIN
 90
        3
 91
        2
300
_DATA
309
CELLSTYLE_END
  0
ENDSEC
  0
EOF
