  0
SECTION
  2
HEADER
  9
$ACADVER
  1
AC1032
  9
$ACADMAINTVER
 90
       55
  9
$DWGCODEPAGE
  3
ANSI_1252
  9
$LASTSAVEDBY
  1
LYI-002
  9
$REQUIREDVERSIONS
160
                 0
  9
$INSBASE
 10
0.0
 20
0.0
 30
0.0
  9
$EXTMIN
 10
-1200.146
 20
-590.1248
 30
0.0
  9
$EXTMAX
 10
1200.0462
 20
590.0716
 30
0.0
  9
$LIMMIN
 10
0.0
 20
0.0
  9
$LIMMAX
 10
12.0
 20
9.0
  9
$ORTHOMODE
 70
     0
  9
$REGENMODE
 70
     1
  9
$FILLMODE
 70
     1
  9
$QTEXTMODE
 70
     0
  9
$MIRRTEXT
 70
     1
  9
$LTSCALE
 40
1.0
  9
$ATTMODE
 70
     1
  9
$TEXTSIZE
 40
0.2
  9
$TRACEWID
 40
0.05
  9
$TEXTSTYLE
  7
Standard
  9
$CLAYER
  8
0
  9
$CELTYPE
  6
ByLayer
  9
$CECOLOR
 62
   256
  9
$CELTSCALE
 40
1.0
  9
$DISPSILH
 70
     0
  9
$DIMSCALE
 40
1.0
  9
$DIMASZ
 40
0.18
  9
$DIMEXO
 40
0.0625
  9
$DIMDLI
 40
0.38
  9
$DIMRND
 40
0.0
  9
$DIMDLE
 40
0.0
  9
$DIMEXE
 40
0.18
  9
$DIMTP
 40
0.0
  9
$DIMTM
 40
0.0
  9
$DIMTXT
 40
0.18
  9
$DIMCEN
 40
0.09
  9
$DIMTSZ
 40
0.0
  9
$DIMTOL
 70
     0
  9
$DIMLIM
 70
     0
  9
$DIMTIH
 70
     1
  9
$DIMTOH
 70
     1
  9
$DIMSE1
 70
     0
  9
$DIMSE2
 70
     0
  9
$DIMTAD
 70
     0
  9
$DIMZIN
 70
     0
  9
$DIMBLK
  1

  9
$DIMASO
 70
     1
  9
$DIMSHO
 70
     1
  9
$DIMPOST
  1

  9
$DIMAPOST
  1

  9
$DIMALT
 70
     0
  9
$DIMALTD
 70
     2
  9
$DIMALTF
 40
25.4
  9
$DIMLFAC
 40
1.0
  9
$DIMTOFL
 70
     0
  9
$DIMTVP
 40
0.0
  9
$DIMTIX
 70
     0
  9
$DIMSOXD
 70
     0
  9
$DIMSAH
 70
     0
  9
$DIMBLK1
  1

  9
$DIMBLK2
  1

  9
$DIMSTYLE
  2
Standard
  9
$DIMCLRD
 70
     0
  9
$DIMCLRE
 70
     0
  9
$DIMCLRT
 70
     0
  9
$DIMTFAC
 40
1.0
  9
$DIMGAP
 40
0.09
  9
$DIMJUST
 70
     0
  9
$DIMSD1
 70
     0
  9
$DIMSD2
 70
     0
  9
$DIMTOLJ
 70
     1
  9
$DIMTZIN
 70
     0
  9
$DIMALTZ
 70
     0
  9
$DIMALTTZ
 70
     0
  9
$DIMUPT
 70
     0
  9
$DIMDEC
 70
     4
  9
$DIMTDEC
 70
     4
  9
$DIMALTU
 70
     2
  9
$DIMALTTD
 70
     2
  9
$DIMTXSTY
  7
Standard
  9
$DIMAUNIT
 70
     0
  9
$DIMADEC
 70
     0
  9
$DIMALTRND
 40
0.0
  9
$DIMAZIN
 70
     0
  9
$DIMDSEP
 70
    46
  9
$DIMATFIT
 70
     3
  9
$DIMFRAC
 70
     0
  9
$DIMLDRBLK
  1

  9
$DIMLUNIT
 70
     2
  9
$DIMLWD
 70
    -2
  9
$DIMLWE
 70
    -2
  9
$DIMTMOVE
 70
     0
  9
$DIMFXL
 40
1.0
  9
$DIMFXLON
 70
     0
  9
$DIMJOGANG
 40
0.7853981633974483
  9
$DIMTFILL
 70
     0
  9
$DIMTFILLCLR
 70
     0
  9
$DIMARCSYM
 70
     0
  9
$DIMLTYPE
  6

  9
$DIMLTEX1
  6

  9
$DIMLTEX2
  6

  9
$DIMTXTDIRECTION
 70
     0
  9
$LUNITS
 70
     2
  9
$LUPREC
 70
     4
  9
$SKETCHINC
 40
0.1
  9
$FILLETRAD
 40
0.0
  9
$AUNITS
 70
     0
  9
$AUPREC
 70
     0
  9
$MENU
  1
.
  9
$ELEVATION
 40
0.0
  9
$PELEVATION
 40
0.0
  9
$THICKNESS
 40
0.0
  9
$LIMCHECK
 70
     0
  9
$CHAMFERA
 40
0.0
  9
$CHAMFERB
 40
0.0
  9
$CHAMFERC
 40
0.0
  9
$CHAMFERD
 40
0.0
  9
$SKPOLY
 70
     0
  9
$TDCREATE
 40
2460652.649726297
  9
$TDUCREATE
 40
2460652.42055963
  9
$TDUPDATE
 40
2460652.649726389
  9
$TDUUPDATE
 40
2460652.420559722
  9
$TDINDWG
 40
0.0000000116
  9
$TDUSRTIMER
 40
0.0000000116
  9
$USRTIMER
 70
     1
  9
$ANGBASE
 50
0.0
  9
$ANGDIR
 70
     0
  9
$PDMODE
 70
     0
  9
$PDSIZE
 40
0.0
  9
$PLINEWID
 40
0.0
  9
$SPLFRAME
 70
     0
  9
$SPLINETYPE
 70
     6
  9
$SPLINESEGS
 70
     8
  9
$HANDSEED
  5
BA
  9
$SURFTAB1
 70
     6
  9
$SURFTAB2
 70
     6
  9
$SURFTYPE
 70
     6
  9
$SURFU
 70
     6
  9
$SURFV
 70
     6
  9
$UCSBASE
  2

  9
$UCSNAME
  2

  9
$UCSORG
 10
0.0
 20
0.0
 30
0.0
  9
$UCSXDIR
 10
1.0
 20
0.0
 30
0.0
  9
$UCSYDIR
 10
0.0
 20
1.0
 30
0.0
  9
$UCSORTHOREF
  2

  9
$UCSORTHOVIEW
 70
     0
  9
$UCSORGTOP
 10
0.0
 20
0.0
 30
0.0
  9
$UCSORGBOTTOM
 10
0.0
 20
0.0
 30
0.0
  9
$UCSORGLEFT
 10
0.0
 20
0.0
 30
0.0
  9
$UCSORGRIGHT
 10
0.0
 20
0.0
 30
0.0
  9
$UCSORGFRONT
 10
0.0
 20
0.0
 30
0.0
  9
$UCSORGBACK
 10
0.0
 20
0.0
 30
0.0
  9
$PUCSBASE
  2

  9
$PUCSNAME
  2

  9
$PUCSORG
 10
0.0
 20
0.0
 30
0.0
  9
$PUCSXDIR
 10
1.0
 20
0.0
 30
0.0
  9
$PUCSYDIR
 10
0.0
 20
1.0
 30
0.0
  9
$PUCSORTHOREF
  2

  9
$PUCSORTHOVIEW
 70
     0
  9
$PUCSORGTOP
 10
0.0
 20
0.0
 30
0.0
  9
$PUCSORGBOTTOM
 10
0.0
 20
0.0
 30
0.0
  9
$PUCSORGLEFT
 10
0.0
 20
0.0
 30
0.0
  9
$PUCSORGRIGHT
 10
0.0
 20
0.0
 30
0.0
  9
$PUCSORGFRONT
 10
0.0
 20
0.0
 30
0.0
  9
$PUCSORGBACK
 10
0.0
 20
0.0
 30
0.0
  9
$USERI1
 70
     0
  9
$USERI2
 70
     0
  9
$USERI3
 70
     0
  9
$USERI4
 70
     0
  9
$USERI5
 70
     0
  9
$USERR1
 40
0.0
  9
$USERR2
 40
0.0
  9
$USERR3
 40
0.0
  9
$USERR4
 40
0.0
  9
$USERR5
 40
0.0
  9
$WORLDVIEW
 70
     1
  9
$SHADEDGE
 70
     3
  9
$SHADEDIF
 70
    70
  9
$TILEMODE
 70
     1
  9
$MAXACTVP
 70
    64
  9
$PINSBASE
 10
0.0
 20
0.0
 30
0.0
  9
$PLIMCHECK
 70
     0
  9
$PEXTMIN
 10
1.000000000000000E+20
 20
1.000000000000000E+20
 30
1.000000000000000E+20
  9
$PEXTMAX
 10
-1.000000000000000E+20
 20
-1.000000000000000E+20
 30
-1.000000000000000E+20
  9
$PLIMMIN
 10
0.0
 20
0.0
  9
$PLIMMAX
 10
12.0
 20
9.0
  9
$UNITMODE
 70
     0
  9
$VISRETAIN
 70
     1
  9
$PLINEGEN
 70
     0
  9
$PSLTSCALE
 70
     1
  9
$TREEDEPTH
 70
  3020
  9
$CMLSTYLE
  2
Standard
  9
$CMLJUST
 70
     0
  9
$CMLSCALE
 40
1.0
  9
$PROXYGRAPHICS
 70
     1
  9
$MEASUREMENT
 70
     0
  9
$CELWEIGHT
370
    -1
  9
$ENDCAPS
280
     0
  9
$JOINSTYLE
280
     0
  9
$LWDISPLAY
290
     0
  9
$INSUNITS
 70
     4
  9
$HYPERLINKBASE
  1

  9
$STYLESHEET
  1

  9
$XEDIT
290
     1
  9
$CEPSNTYPE
380
     0
  9
$PSTYLEMODE
290
     1
  9
$FINGERPRINTGUID
  2
{2f6e8db9-1727-4762-a6c3-95143f28c898}
  9
$VERSIONGUID
  2
{FAEB1C32-E019-11D5-929B-00C0DF256EC4}
  9
$EXTNAMES
290
     1
  9
$PSVPSCALE
 40
0.0
  9
$OLESTARTUP
290
     0
  9
$SORTENTS
280
   127
  9
$INDEXCTL
280
     0
  9
$HIDETEXT
280
     1
  9
$XCLIPFRAME
280
     2
  9
$HALOGAP
280
     0
  9
$OBSCOLOR
 70
   257
  9
$OBSLTYPE
280
     0
  9
$INTERSECTIONDISPLAY
280
     0
  9
$INTERSECTIONCOLOR
 70
   257
  9
$DIMASSOC
280
     2
  9
$PROJECTNAME
  1

  9
$CAMERADISPLAY
290
     0
  9
$LENSLENGTH
 40
50.0
  9
$CAMERAHEIGHT
 40
0.0
  9
$STEPSPERSEC
 40
2.0
  9
$STEPSIZE
 40
6.0
  9
$3DDWFPREC
 40
2.0
  9
$PSOLWIDTH
 40
0.25
  9
$PSOLHEIGHT
 40
4.0
  9
$LOFTANG1
 40
1.570796326794897
  9
$LOFTANG2
 40
1.570796326794897
  9
$LOFTMAG1
 40
0.0
  9
$LOFTMAG2
 40
0.0
  9
$LOFTPARAM
 70
     7
  9
$LOFTNORMALS
280
     1
  9
$LATITUDE
 40
37.795
  9
$LONGITUDE
 40
-122.394
  9
$NORTHDIRECTION
 40
0.0
  9
$TIMEZONE
 70
 -8000
  9
$LIGHTGLYPHDISPLAY
280
     1
  9
$TILEMODELIGHTSYNCH
280
     1
  9
$CMATERIAL
347
44
  9
$SOLIDHIST
280
     0
  9
$SHOWHIST
280
     1
  9
$DWFFRAME
280
     2
  9
$DGNFRAME
280
     2
  9
$REALWORLDSCALE
290
     1
  9
$INTERFERECOLOR
 62
   256
  9
$CSHADOW
280
     0
  9
$SHADOWPLANELOCATION
 40
0.0
  0
ENDSEC
  0
SECTION
  2
CLASSES
  0
CLASS
  1
ACDBDICTIONARYWDFLT
  2
AcDbDictionaryWithDefault
  3
ObjectDBX Classes
 90
        0
 91
        3
280
     0
281
     0
  0
CLASS
  1
VISUALSTYLE
  2
AcDbVisualStyle
  3
ObjectDBX Classes
 90
     4095
 91
        3
280
     0
281
     0
  0
CLASS
  1
MATERIAL
  2
AcDbMaterial
  3
ObjectDBX Classes
 90
     1153
 91
        3
280
     0
281
     0
  0
CLASS
  1
SCALE
  2
AcDbScale
  3
ObjectDBX Classes
 90
     1153
 91
        3
280
     0
281
     0
  0
CLASS
  1
TABLESTYLE
  2
AcDbTableStyle
  3
ObjectDBX Classes
 90
     4095
 91
        3
280
     0
281
     0
  0
CLASS
  1
MLEADERSTYLE
  2
AcDbMLeaderStyle
  3
ACDB_MLEADERSTYLE_CLASS
 90
     4095
 91
        3
280
     0
281
     0
  0
CLASS
  1
SUN
  2
AcDbSun
  3
SCENEOE
 90
     1153
 91
        3
280
     0
281
     0
  0
CLASS
  1
DICTIONARYVAR
  2
AcDbDictionaryVar
  3
ObjectDBX Classes
 90
        0
 91
        3
280
     0
281
     0
  0
CLASS
  1
CELLSTYLEMAP
  2
AcDbCellStyleMap
  3
ObjectDBX Classes
 90
     1152
 91
        3
280
     0
281
     0
  0
ENDSEC
  0
SECTION
  2
TABLES
  0
TABLE
  2
VPORT
  5
8
330
0
100
AcDbSymbolTable
 70
     1
  0
VPORT
  5
29
330
8
100
AcDbSymbolTableRecord
100
AcDbViewportTableRecord
  2
*Active
 70
     0
 10
0.0
 20
0.0
 11
1.0
 21
1.0
 12
10.42990654205607
 22
4.5
 13
0.0
 23
0.0
 14
0.5
 24
0.5
 15
0.5
 25
0.5
 16
0.0
 26
0.0
 36
1.0
 17
0.0
 27
0.0
 37
0.0
 40
9.0
 41
1.972972972850329
 42
50.0
 43
0.0
 44
0.0
 50
0.0
 51
0.0
 71
     0
 72
   100
 73
     1
 74
     3
 75
     0
 76
     0
 77
     0
 78
     0
281
     0
 65
     1
110
0.0
120
0.0
130
0.0
111
1.0
121
0.0
131
0.0
112
0.0
122
1.0
132
0.0
 79
     0
146
0.0
348
2F
 60
     3
 61
     5
292
     1
282
     1
141
0.0
142
0.0
 63
   250
361
5D
  0
ENDTAB
  0
TABLE
  2
LTYPE
  5
5
330
0
100
AcDbSymbolTable
 70
     1
  0
LTYPE
  5
14
330
5
100
AcDbSymbolTableRecord
100
AcDbLinetypeTableRecord
  2
ByBlock
 70
     0
  3

 72
    65
 73
     0
 40
0.0
  0
LTYPE
  5
15
330
5
100
AcDbSymbolTableRecord
100
AcDbLinetypeTableRecord
  2
ByLayer
 70
     0
  3

 72
    65
 73
     0
 40
0.0
  0
LTYPE
  5
16
330
5
100
AcDbSymbolTableRecord
100
AcDbLinetypeTableRecord
  2
Continuous
 70
     0
  3
Solid line
 72
    65
 73
     0
 40
0.0
  0
ENDTAB
  0
TABLE
  2
LAYER
  5
2
330
0
100
AcDbSymbolTable
 70
     2
  0
LAYER
  5
10
330
2
100
AcDbSymbolTableRecord
100
AcDbLayerTableRecord
  2
0
 70
     0
 62
     7
  6
Continuous
370
    -3
390
F
347
46
348
0
  0
LAYER
  5
5F
330
2
100
AcDbSymbolTableRecord
100
AcDbLayerTableRecord
  2
Layer 1
 70
     0
 62
     7
  6
Continuous
370
    -3
390
F
347
46
348
0
  0
ENDTAB
  0
TABLE
  2
STYLE
  5
3
330
0
100
AcDbSymbolTable
 70
     1
  0
STYLE
  5
11
330
3
100
AcDbSymbolTableRecord
100
AcDbTextStyleTableRecord
  2
Standard
 70
     0
 40
0.0
 41
1.0
 50
0.0
 71
     0
 42
0.2
  3
txt
  4

  0
ENDTAB
  0
TABLE
  2
VIEW
  5
6
330
0
100
AcDbSymbolTable
 70
     0
  0
ENDTAB
  0
TABLE
  2
UCS
  5
7
330
0
100
AcDbSymbolTable
 70
     0
  0
ENDTAB
  0
TABLE
  2
APPID
  5
9
330
0
100
AcDbSymbolTable
 70
     2
  0
APPID
  5
12
330
9
100
AcDbSymbolTableRecord
100
AcDbRegAppTableRecord
  2
ACAD
 70
     0
  0
APPID
  5
5E
330
9
100
AcDbSymbolTableRecord
100
AcDbRegAppTableRecord
  2
ODA
 70
     0
  0
ENDTAB
  0
TABLE
  2
DIMSTYLE
  5
A
330
0
100
AcDbSymbolTable
 70
     1
100
AcDbDimStyleTable
  0
DIMSTYLE
105
27
330
A
100
AcDbSymbolTableRecord
100
AcDbDimStyleTableRecord
  2
Standard
 70
     0
178
     0
340
11
  0
ENDTAB
  0
TABLE
  2
BLOCK_RECORD
  5
1
330
0
100
AcDbSymbolTable
 70
     1
  0
BLOCK_RECORD
  5
1F
330
1
100
AcDbSymbolTableRecord
100
AcDbBlockTableRecord
  2
*Model_Space
340
22
 70
     0
280
     1
281
     0
  0
BLOCK_RECORD
  5
1B
330
1
100
AcDbSymbolTableRecord
100
AcDbBlockTableRecord
  2
*Paper_Space
340
1E
 70
     0
280
     1
281
     0
  0
BLOCK_RECORD
  5
23
330
1
100
AcDbSymbolTableRecord
100
AcDbBlockTableRecord
  2
*Paper_Space0
340
26
 70
     0
280
     1
281
     0
  0
ENDTAB
  0
ENDSEC
  0
SECTION
  2
BLOCKS
  0
BLOCK
  5
20
330
1F
100
AcDbEntity
  8
0
100
AcDbBlockBegin
  2
*Model_Space
 70
     0
 10
0.0
 20
0.0
 30
0.0
  3
*Model_Space
  1

  0
ENDBLK
  5
21
330
1F
100
AcDbEntity
  8
0
100
AcDbBlockEnd
  0
BLOCK
  5
1C
330
1B
100
AcDbEntity
 67
     1
  8
0
100
AcDbBlockBegin
  2
*Paper_Space
 70
     0
 10
0.0
 20
0.0
 30
0.0
  3
*Paper_Space
  1

  0
ENDBLK
  5
1D
330
1B
100
AcDbEntity
 67
     1
  8
0
100
AcDbBlockEnd
  0
BLOCK
  5
24
330
23
100
AcDbEntity
  8
0
100
AcDbBlockBegin
  2
*Paper_Space0
 70
     0
 10
0.0
 20
0.0
 30
0.0
  3
*Paper_Space0
  1

  0
ENDBLK
  5
25
330
23
100
AcDbEntity
  8
0
100
AcDbBlockEnd
  0
ENDSEC
  0
SECTION
  2
ENTITIES
  0
SPLINE
  5
60
330
1F
100
AcDbEntity
  8
Layer 1
 62
   250
370
    20
100
AcDbSpline
210
0.0
220
0.0
230
1.0
 70
    11
 71
     3
 72
    20
 73
    16
 74
     0
 42
0.0000000001
 43
0.0000000001
 40
0.0
 40
0.0
 40
0.0
 40
0.0
 40
0.2
 40
0.2
 40
0.2
 40
0.4
 40
0.4
 40
0.4
 40
0.6000000000000001
 40
0.6000000000000001
 40
0.6000000000000001
 40
0.8
 40
0.8
 40
0.8
 40
1.0
 40
1.0
 40
1.0
 40
1.0
 10
1174.3525
 20
580.295
 30
0.0
 10
1179.2413
 20
576.3422
 30
0.0
 10
1184.138
 20
572.3894
 30
0.0
 10
1189.0347
 20
568.4366
 30
0.0
 10
1191.2084
 20
569.9161
 30
0.0
 10
1193.3899
 20
571.4012
 30
0.0
 10
1195.5636
 20
572.8863
 30
0.0
 10
1194.4728
 20
577.3248
 30
0.0
 10
1193.3899
 20
581.7801
 30
0.0
 10
1192.2991
 20
586.2298
 30
0.0
 10
1187.9517
 20
586.2298
 30
0.0
 10
1183.5965
 20
586.2298
 30
0.0
 10
1179.2413
 20
586.2298
 30
0.0
 10
1175.3177
 20
583.6267
 30
0.0
 10
1176.5184
 20
584.6996
 30
0.0
 10
1174.3525
 20
580.295
 30
0.0
  0
SPLINE
  5
61
330
1F
100
AcDbEntity
  8
Layer 1
 62
   250
370
    20
100
AcDbSpline
210
0.0
220
0.0
230
1.0
 70
    11
 71
     3
 72
    20
 73
    16
 74
     0
 42
0.0000000001
 43
0.0000000001
 40
0.0
 40
0.0
 40
0.0
 40
0.0
 40
0.2
 40
0.2
 40
0.2
 40
0.4
 40
0.4
 40
0.4
 40
0.6000000000000001
 40
0.6000000000000001
 40
0.6000000000000001
 40
0.8
 40
0.8
 40
0.8
 40
1.0
 40
1.0
 40
1.0
 40
1.0
 10
1172.7203
 20
470.5992
 30
0.0
 10
1178.1584
 20
462.6879
 30
0.0
 10
1183.5965
 20
454.7823
 30
0.0
 10
1189.0347
 20
446.8824
 30
0.0
 10
1190.1255
 20
447.3793
 30
0.0
 10
1191.2084
 20
447.8649
 30
0.0
 10
1192.2991
 20
448.3619
 30
0.0
 10
1196.4581
 20
462.2249
 30
0.0
 10
1197.1958
 20
485.4786
 30
0.0
 10
1190.6669
 20
497.2862
 30
0.0
 10
1188.4932
 20
495.8011
 30
0.0
 10
1186.3117
 20
494.316
 30
0.0
 10
1184.138
 20
492.8365
 30
0.0
 10
1179.4532
 20
484.2985
 30
0.0
 10
1174.4074
 20
483.2312
 30
0.0
 10
1172.7203
 20
470.5992
 30
0.0
  0
SPLINE
  5
62
330
1F
100
AcDbEntity
  8
Layer 1
 62
   250
370
    20
100
AcDbSpline
210
0.0
220
0.0
230
1.0
 70
    11
 71
     3
 72
    17
 73
    13
 74
     0
 42
0.0000000001
 43
0.0000000001
 40
0.0
 40
0.0
 40
0.0
 40
0.0
 40
0.25
 40
0.25
 40
0.25
 40
0.5
 40
0.5
 40
0.5
 40
0.75
 40
0.75
 40
0.75
 40
1.0
 40
1.0
 40
1.0
 40
1.0
 10
1172.7203
 20
375.7264
 30
0.0
 10
1178.0957
 20
370.3675
 30
0.0
 10
1177.9701
 20
369.8424
 30
0.0
 10
1187.4024
 20
371.2823
 30
0.0
 10
1190.1255
 20
373.75
 30
0.0
 10
1192.8406
 20
376.2176
 30
0.0
 10
1195.5636
 20
378.691
 30
0.0
 10
1196.3012
 20
392.5371
 30
0.0
 10
1195.901
 20
405.8524
 30
0.0
 10
1189.0347
 20
412.7811
 30
0.0
 10
1183.5965
 20
400.437
 30
0.0
 10
1178.1584
 20
388.0761
 30
0.0
 10
1172.7203
 20
375.7264
 30
0.0
  0
SPLINE
  5
63
330
1F
100
AcDbEntity
  8
Layer 1
 62
   250
370
    20
100
AcDbSpline
210
0.0
220
0.0
230
1.0
 70
    11
 71
     3
 72
    26
 73
    22
 74
     0
 42
0.0000000001
 43
0.0000000001
 40
0.0
 40
0.0
 40
0.0
 40
0.0
 40
0.1428571428571428
 40
0.1428571428571428
 40
0.1428571428571428
 40
0.2857142857142857
 40
0.2857142857142857
 40
0.2857142857142857
 40
0.4285714285714285
 40
0.4285714285714285
 40
0.4285714285714285
 40
0.5714285714285714
 40
0.5714285714285714
 40
0.5714285714285714
 40
0.7142857142857142
 40
0.7142857142857142
 40
0.7142857142857142
 40
0.8571428571428571
 40
0.8571428571428571
 40
0.8571428571428571
 40
1.0
 40
1.0
 40
1.0
 40
1.0
 10
1166.1914
 20
-380.2915
 30
0.0
 10
1188.5167
 20
-399.5699
 30
0.0
 10
1176.5575
 20
-427.8776
 30
0.0
 10
1175.9848
 20
-457.3768
 30
0.0
 10
1180.3321
 20
-461.8265
 30
0.0
 10
1184.6873
 20
-466.2705
 30
0.0
 10
1189.0347
 20
-470.7203
 30
0.0
 10
1190.1255
 20
-470.229
 30
0.0
 10
1191.2084
 20
-469.732
 30
0.0
 10
1192.2991
 20
-469.2408
 30
0.0
 10
1198.3022
 20
-448.161
 30
0.0
 10
1201.653
 20
-391.0036
 30
0.0
 10
1190.6669
 20
-372.8828
 30
0.0
 10
1184.138
 20
-371.3977
 30
0.0
 10
1177.6091
 20
-369.9182
 30
0.0
 10
1171.088
 20
-368.4388
 30
0.0
 10
1169.9973
 20
-368.9357
 30
0.0
 10
1168.9065
 20
-369.4213
 30
0.0
 10
1167.8236
 20
-369.9182
 30
0.0
 10
1167.2743
 20
-373.3741
 30
0.0
 10
1166.7328
 20
-376.8356
 30
0.0
 10
1166.1914
 20
-380.2915
 30
0.0
  0
SPLINE
  5
64
330
1F
100
AcDbEntity
  8
Layer 1
 62
   250
370
    20
100
AcDbSpline
210
0.0
220
0.0
230
1.0
 70
    11
 71
     3
 72
    20
 73
    16
 74
     0
 42
0.0000000001
 43
0.0000000001
 40
0.0
 40
0.0
 40
0.0
 40
0.0
 40
0.2
 40
0.2
 40
0.2
 40
0.4
 40
0.4
 40
0.4
 40
0.6000000000000001
 40
0.6000000000000001
 40
0.6000000000000001
 40
0.8
 40
0.8
 40
0.8
 40
1.0
 40
1.0
 40
1.0
 40
1.0
 10
1164.5592
 20
-581.9012
 30
0.0
 10
1172.2102
 20
-585.357
 30
0.0
 10
1178.6527
 20
-586.8026
 30
0.0
 10
1189.0347
 20
-584.8601
 30
0.0
 10
1190.6669
 20
-582.895
 30
0.0
 10
1192.2991
 20
-580.9074
 30
0.0
 10
1193.9313
 20
-578.9366
 30
0.0
 10
1193.9313
 20
-573.99
 30
0.0
 10
1193.9313
 20
-569.0546
 30
0.0
 10
1193.9313
 20
-564.1136
 30
0.0
 10
1192.8406
 20
-562.1372
 30
0.0
 10
1191.7577
 20
-560.1608
 30
0.0
 10
1190.6669
 20
-558.1844
 30
0.0
 10
1180.4969
 20
-564.7065
 30
0.0
 10
1171.8414
 20
-572.7759
 30
0.0
 10
1164.5592
 20
-581.9012
 30
0.0
  0
SPLINE
  5
65
330
1F
100
AcDbEntity
  8
Layer 1
 62
   250
370
    20
100
AcDbSpline
210
0.0
220
0.0
230
1.0
 70
    11
 71
     3
 72
    29
 73
    25
 74
     0
 42
0.0000000001
 43
0.0000000001
 40
0.0
 40
0.0
 40
0.0
 40
0.0
 40
0.125
 40
0.125
 40
0.125
 40
0.25
 40
0.25
 40
0.25
 40
0.375
 40
0.375
 40
0.375
 40
0.5
 40
0.5
 40
0.5
 40
0.625
 40
0.625
 40
0.625
 40
0.75
 40
0.75
 40
0.75
 40
0.875
 40
0.875
 40
0.875
 40
1.0
 40
1.0
 40
1.0
 40
1.0
 10
1096.0137
 20
150.3999
 30
0.0
 10
1139.8718
 20
122.8094
 30
0.0
 10
1145.0274
 20
79.0971
 30
0.0
 10
1190.6669
 20
55.5271
 30
0.0
 10
1191.2084
 20
55.5271
 30
0.0
 10
1191.7577
 20
55.5271
 30
0.0
 10
1192.2991
 20
55.5271
 30
0.0
 10
1193.3899
 20
57.0066
 30
0.0
 10
1194.4728
 20
58.4973
 30
0.0
 10
1195.5636
 20
59.9769
 30
0.0
 10
1195.5636
 20
124.6955
 30
0.0
 10
1195.5636
 20
189.4479
 30
0.0
 10
1195.5636
 20
254.1665
 30
0.0
 10
1195.5636
 20
278.3012
 30
0.0
 10
1201.0488
 20
317.8292
 30
0.0
 10
1190.6669
 20
334.2164
 30
0.0
 10
1190.1255
 20
334.2164
 30
0.0
 10
1189.5762
 20
334.2164
 30
0.0
 10
1189.0347
 20
334.2164
 30
0.0
 10
1162.9427
 20
310.5334
 30
0.0
 10
1170.6722
 20
260.9145
 30
0.0
 10
1154.7658
 20
227.4852
 30
0.0
 10
1141.7865
 20
200.2052
 30
0.0
 10
1103.1311
 20
174.5854
 30
0.0
 10
1096.0137
 20
150.3999
 30
0.0
  0
SPLINE
  5
66
330
1F
100
AcDbEntity
  8
Layer 1
 62
   250
370
    20
100
AcDbSpline
210
0.0
220
0.0
230
1.0
 70
    11
 71
     3
 72
    29
 73
    25
 74
     0
 42
0.0000000001
 43
0.0000000001
 40
0.0
 40
0.0
 40
0.0
 40
0.0
 40
0.125
 40
0.125
 40
0.125
 40
0.25
 40
0.25
 40
0.25
 40
0.375
 40
0.375
 40
0.375
 40
0.5
 40
0.5
 40
0.5
 40
0.625
 40
0.625
 40
0.625
 40
0.75
 40
0.75
 40
0.75
 40
0.875
 40
0.875
 40
0.875
 40
1.0
 40
1.0
 40
1.0
 40
1.0
 10
1096.0137
 20
-153.4913
 30
0.0
 10
1124.2794
 20
-182.7307
 30
0.0
 10
1153.1257
 20
-209.4007
 30
0.0
 10
1164.5592
 20
-254.2876
 30
0.0
 10
1171.449
 20
-281.3473
 30
0.0
 10
1165.1791
 20
-323.3486
 30
0.0
 10
1192.2991
 20
-331.3728
 30
0.0
 10
1207.3501
 20
-275.5988
 30
0.0
 10
1195.5636
 20
-194.5778
 30
0.0
 10
1195.5636
 20
-132.7391
 30
0.0
 10
1195.5636
 20
-106.8313
 30
0.0
 10
1199.9109
 20
-69.8161
 30
0.0
 10
1190.6669
 20
-51.1985
 30
0.0
 10
1189.0347
 20
-52.1923
 30
0.0
 10
1187.4024
 20
-53.1805
 30
0.0
 10
1185.7702
 20
-54.1687
 30
0.0
 10
1173.8111
 20
-63.0625
 30
0.0
 10
1161.8362
 20
-71.9563
 30
0.0
 10
1149.8691
 20
-80.8557
 30
0.0
 10
1139.0321
 20
-96.6387
 30
0.0
 10
1140.2171
 20
-113.2687
 30
0.0
 10
1128.6581
 20
-126.8042
 30
0.0
 10
1119.3984
 20
-137.6405
 30
0.0
 10
1101.5381
 20
-138.815
 30
0.0
 10
1096.0137
 20
-153.4913
 30
0.0
  0
SPLINE
  5
67
330
1F
100
AcDbEntity
  8
Layer 1
 62
   250
370
    20
100
AcDbSpline
210
0.0
220
0.0
230
1.0
 70
    11
 71
     3
 72
    11
 73
     7
 74
     0
 42
0.0000000001
 43
0.0000000001
 40
0.0
 40
0.0
 40
0.0
 40
0.0
 40
0.5
 40
0.5
 40
0.5
 40
1.0
 40
1.0
 40
1.0
 40
1.0
 10
985.0459
 20
-355.0953
 30
0.0
 10
986.1367
 20
-354.5983
 30
0.0
 10
987.2275
 20
-354.107
 30
0.0
 10
988.3104
 20
-353.6101
 30
0.0
 10
986.7959
 20
-354.2425
 30
0.0
 10
987.2119
 20
-352.4243
 30
0.0
 10
985.0459
 20
-355.0953
 30
0.0
  0
SPLINE
  5
68
330
1F
100
AcDbEntity
  8
Layer 1
 62
   250
370
    20
100
AcDbSpline
210
0.0
220
0.0
230
1.0
 70
    11
 71
     3
 72
    32
 73
    28
 74
     0
 42
0.0000000001
 43
0.0000000001
 40
0.0
 40
0.0
 40
0.0
 40
0.0
 40
0.1111111111111111
 40
0.1111111111111111
 40
0.1111111111111111
 40
0.2222222222222222
 40
0.2222222222222222
 40
0.2222222222222222
 40
0.3333333333333333
 40
0.3333333333333333
 40
0.3333333333333333
 40
0.4444444444444444
 40
0.4444444444444444
 40
0.4444444444444444
 40
0.5555555555555556
 40
0.5555555555555556
 40
0.5555555555555556
 40
0.6666666666666666
 40
0.6666666666666666
 40
0.6666666666666666
 40
0.7777777777777777
 40
0.7777777777777777
 40
0.7777777777777777
 40
0.8888888888888888
 40
0.8888888888888888
 40
0.8888888888888888
 40
1.0
 40
1.0
 40
1.0
 40
1.0
 10
963.8349
 20
368.3121
 30
0.0
 10
965.4671
 20
367.3239
 30
0.0
 10
967.0994
 20
366.3356
 30
0.0
 10
968.7316
 20
365.3475
 30
0.0
 10
994.8393
 20
373.253
 30
0.0
 10
1020.9549
 20
381.1643
 30
0.0
 10
1047.0626
 20
389.0699
 30
0.0
 10
1116.3223
 20
404.1413
 30
0.0
 10
1180.6146
 20
373.5693
 30
0.0
 10
1135.1791
 20
472.0787
 30
0.0
 10
1148.8098
 20
494.2595
 30
0.0
 10
1166.1992
 20
504.2545
 30
0.0
 10
1166.1914
 20
540.2701
 30
0.0
 10
1151.3209
 20
552.3882
 30
0.0
 10
1134.1747
 20
575.5347
 30
0.0
 10
1104.1747
 20
561.0223
 30
0.0
 10
1096.563
 20
555.0987
 30
0.0
 10
1088.9433
 20
549.1639
 30
0.0
 10
1081.3315
 20
543.2347
 30
0.0
 10
1059.1787
 20
538.3163
 30
0.0
 10
1037.0103
 20
549.9093
 30
0.0
 10
1014.426
 20
537.3055
 30
0.0
 10
975.8961
 20
515.8079
 30
0.0
 10
994.753
 20
438.8695
 30
0.0
 10
978.525
 20
396.4842
 30
0.0
 10
973.6283
 20
387.0935
 30
0.0
 10
968.7316
 20
377.7028
 30
0.0
 10
963.8349
 20
368.3121
 30
0.0
  0
SPLINE
  5
69
330
1F
100
AcDbEntity
  8
Layer 1
 62
   250
370
    20
100
AcDbSpline
210
0.0
220
0.0
230
1.0
 70
    11
 71
     3
 72
    32
 73
    28
 74
     0
 42
0.0000000001
 43
0.0000000001
 40
0.0
 40
0.0
 40
0.0
 40
0.0
 40
0.1111111111111111
 40
0.1111111111111111
 40
0.1111111111111111
 40
0.2222222222222222
 40
0.2222222222222222
 40
0.2222222222222222
 40
0.3333333333333333
 40
0.3333333333333333
 40
0.3333333333333333
 40
0.4444444444444444
 40
0.4444444444444444
 40
0.4444444444444444
 40
0.5555555555555556
 40
0.5555555555555556
 40
0.5555555555555556
 40
0.6666666666666666
 40
0.6666666666666666
 40
0.6666666666666666
 40
0.7777777777777777
 40
0.7777777777777777
 40
0.7777777777777777
 40
0.8888888888888888
 40
0.8888888888888888
 40
0.8888888888888888
 40
1.0
 40
1.0
 40
1.0
 40
1.0
 10
963.8349
 20
-371.3977
 30
0.0
 10
996.0949
 20
-406.4026
 30
0.0
 10
973.7695
 20
-486.9437
 30
0.0
 10
1003.0004
 20
-525.5682
 30
0.0
 10
1021.0804
 20
-549.4544
 30
0.0
 10
1050.3506
 20
-534.0779
 30
0.0
 10
1079.6992
 20
-541.8762
 30
0.0
 10
1104.4494
 20
-548.4492
 30
0.0
 10
1134.8417
 20
-563.0124
 30
0.0
 10
1156.398
 20
-538.906
 30
0.0
 10
1180.1516
 20
-512.3545
 30
0.0
 10
1152.9767
 20
-484.9051
 30
0.0
 10
1143.3481
 20
-464.7911
 30
0.0
 10
1134.2531
 20
-445.8007
 30
0.0
 10
1153.1179
 20
-421.5813
 30
0.0
 10
1138.4436
 20
-402.5289
 30
0.0
 10
1117.8525
 20
-375.791
 30
0.0
 10
1069.4978
 20
-388.7109
 30
0.0
 10
1027.4759
 20
-380.2915
 30
0.0
 10
1007.3557
 20
-374.3623
 30
0.0
 10
987.2196
 20
-368.4388
 30
0.0
 10
967.0994
 20
-362.5039
 30
0.0
 10
966.5579
 20
-363.989
 30
0.0
 10
966.0086
 20
-365.4685
 30
0.0
 10
965.4671
 20
-366.948
 30
0.0
 10
964.9257
 20
-368.4388
 30
0.0
 10
964.3764
 20
-369.9182
 30
0.0
 10
963.8349
 20
-371.3977
 30
0.0
  0
SPLINE
  5
6A
330
1F
100
AcDbEntity
  8
Layer 1
 62
   250
370
    20
100
AcDbSpline
210
0.0
220
0.0
230
1.0
 70
    11
 71
     3
 72
    17
 73
    13
 74
     0
 42
0.0000000001
 43
0.0000000001
 40
0.0
 40
0.0
 40
0.0
 40
0.0
 40
0.25
 40
0.25
 40
0.25
 40
0.5
 40
0.5
 40
0.5
 40
0.75
 40
0.75
 40
0.75
 40
1.0
 40
1.0
 40
1.0
 40
1.0
 10
944.2483
 20
-260.2224
 30
0.0
 10
979.1606
 20
-323.9302
 30
0.0
 10
990.7588
 20
-340.1198
 30
0.0
 10
1086.2281
 20
-344.7164
 30
0.0
 10
1103.2174
 20
-345.5352
 30
0.0
 10
1119.265
 20
-350.5439
 30
0.0
 10
1136.8113
 20
-346.2014
 30
0.0
 10
1137.0625
 20
-260.0587
 30
0.0
 10
1104.112
 20
-199.8237
 30
0.0
 10
1051.9593
 20
-160.8999
 30
0.0
 10
1008.9408
 20
-174.3056
 30
0.0
 10
943.7381
 20
-207.0291
 30
0.0
 10
944.2483
 20
-260.2224
 30
0.0
  0
SPLINE
  5
6B
330
1F
100
AcDbEntity
  8
Layer 1
 62
   250
370
    20
100
AcDbSpline
210
0.0
220
0.0
230
1.0
 70
    11
 71
     3
 72
    20
 73
    16
 74
     0
 42
0.0000000001
 43
0.0000000001
 40
0.0
 40
0.0
 40
0.0
 40
0.0
 40
0.2
 40
0.2
 40
0.2
 40
0.4
 40
0.4
 40
0.4
 40
0.6000000000000001
 40
0.6000000000000001
 40
0.6000000000000001
 40
0.8
 40
0.8
 40
0.8
 40
1.0
 40
1.0
 40
1.0
 40
1.0
 10
940.9916
 20
240.8287
 30
0.0
 10
951.193
 20
225.4861
 30
0.0
 10
1031.478
 20
158.0006
 30
0.0
 10
1053.5915
 20
163.7434
 30
0.0
 10
1065.6527
 20
166.8718
 30
0.0
 10
1106.2542
 20
218.2356
 30
0.0
 10
1112.3359
 20
230.4497
 30
0.0
 10
1117.8289
 20
241.4724
 30
0.0
 10
1147.3659
 20
338.0619
 30
0.0
 10
1131.9226
 20
349.0393
 30
0.0
 10
1117.2325
 20
348.5481
 30
0.0
 10
1102.5425
 20
348.0568
 30
0.0
 10
1087.8604
 20
347.5599
 30
0.0
 10
1004.4914
 20
343.0085
 30
0.0
 10
939.022
 20
320.9349
 30
0.0
 10
940.9916
 20
240.8287
 30
0.0
  0
SPLINE
  5
6C
330
1F
100
AcDbEntity
  8
Layer 1
 62
   250
370
    20
100
AcDbSpline
210
0.0
220
0.0
230
1.0
 70
    11
 71
     3
 72
    17
 73
    13
 74
     0
 42
0.0000000001
 43
0.0000000001
 40
0.0
 40
0.0
 40
0.0
 40
0.0
 40
0.25
 40
0.25
 40
0.25
 40
0.5
 40
0.5
 40
0.5
 40
0.75
 40
0.75
 40
0.75
 40
1.0
 40
1.0
 40
1.0
 40
1.0
 10
812.0695
 20
-132.7391
 30
0.0
 10
815.334
 20
-133.7216
 30
0.0
 10
818.5984
 20
-134.7154
 30
0.0
 10
821.8629
 20
-135.698
 30
0.0
 10
821.8629
 20
-135.2011
 30
0.0
 10
821.8629
 20
-134.7154
 30
0.0
 10
821.8629
 20
-134.2185
 30
0.0
 10
820.7721
 20
-134.2185
 30
0.0
 10
819.6814
 20
-134.2185
 30
0.0
 10
818.5984
 20
-134.2185
 30
0.0
 10
814.9024
 20
-132.4172
 30
0.0
 10
815.389
 20
-132.3042
 30
0.0
 10
812.0695
 20
-132.7391
 30
0.0
  0
SPLINE
  5
6D
330
1F
100
AcDbEntity
  8
Layer 1
 62
   250
370
    20
100
AcDbSpline
210
0.0
220
0.0
230
1.0
 70
    11
 71
     3
 72
    44
 73
    40
 74
     0
 42
0.0000000001
 43
0.0000000001
 40
0.0
 40
0.0
 40
0.0
 40
0.0
 40
0.0769230769230769
 40
0.0769230769230769
 40
0.0769230769230769
 40
0.1538461538461539
 40
0.1538461538461539
 40
0.1538461538461539
 40
0.2307692307692308
 40
0.2307692307692308
 40
0.2307692307692308
 40
0.3076923076923077
 40
0.3076923076923077
 40
0.3076923076923077
 40
0.3846153846153846
 40
0.3846153846153846
 40
0.3846153846153846
 40
0.4615384615384616
 40
0.4615384615384616
 40
0.4615384615384616
 40
0.5384615384615385
 40
0.5384615384615385
 40
0.5384615384615385
 40
0.6153846153846154
 40
0.6153846153846154
 40
0.6153846153846154
 40
0.6923076923076923
 40
0.6923076923076923
 40
0.6923076923076923
 40
0.7692307692307693
 40
0.7692307692307693
 40
0.7692307692307693
 40
0.8461538461538463
 40
0.8461538461538463
 40
0.8461538461538463
 40
0.9230769230769231
 40
0.9230769230769231
 40
0.9230769230769231
 40
1.0
 40
1.0
 40
1.0
 40
1.0
 10
751.693
 20
-2.2854
 30
0.0
 10
786.1109
 20
-25.4262
 30
0.0
 10
813.1446
 20
-45.7775
 30
0.0
 10
865.9172
 20
-54.1687
 30
0.0
 10
911.3056
 20
-61.3854
 30
0.0
 10
957.1648
 20
-35.9576
 30
0.0
 10
998.1038
 20
-49.719
 30
0.0
 10
1039.1762
 20
-63.5312
 30
0.0
 10
1039.4037
 20
-97.5027
 30
0.0
 10
1066.6415
 20
-122.3601
 30
0.0
 10
1068.823
 20
-121.3719
 30
0.0
 10
1070.9967
 20
-120.3781
 30
0.0
 10
1073.1703
 20
-119.3955
 30
0.0
 10
1112.7203
 20
-101.0771
 30
0.0
 10
1100.7612
 20
-67.004
 30
0.0
 10
1118.8648
 20
-54.1687
 30
0.0
 10
1132.2835
 20
-47.5619
 30
0.0
 10
1148.9118
 20
-46.6753
 30
0.0
 10
1158.0303
 20
-36.3755
 30
0.0
 10
1195.7283
 20
6.1623
 30
0.0
 10
1155.5976
 20
47.4803
 30
0.0
 10
1113.9681
 20
57.0066
 30
0.0
 10
1111.1195
 20
94.3662
 30
0.0
 10
1094.3814
 20
105.4905
 30
0.0
 10
1071.5381
 20
123.7185
 30
0.0
 10
1067.1908
 20
122.736
 30
0.0
 10
1062.8355
 20
121.7422
 30
0.0
 10
1058.4882
 20
120.7596
 30
0.0
 10
1045.4461
 20
88.1829
 30
0.0
 10
1032.5374
 20
62.0605
 30
0.0
 10
996.4715
 20
51.083
 30
0.0
 10
973.3771
 20
44.0471
 30
0.0
 10
941.4782
 20
52.4552
 30
0.0
 10
919.7727
 20
55.5271
 30
0.0
 10
845.4202
 20
66.0755
 30
0.0
 10
778.4991
 20
36.8417
 30
0.0
 10
751.693
 20
2.1644
 30
0.0
 10
751.693
 20
0.6792
 30
0.0
 10
751.693
 20
-0.8002
 30
0.0
 10
751.693
 20
-2.2854
 30
0.0
  0
SPLINE
  5
6E
330
1F
100
AcDbEntity
  8
Layer 1
 62
   250
370
    20
100
AcDbSpline
210
0.0
220
0.0
230
1.0
 70
    11
 71
     3
 72
    32
 73
    28
 74
     0
 42
0.0000000001
 43
0.0000000001
 40
0.0
 40
0.0
 40
0.0
 40
0.0
 40
0.1111111111111111
 40
0.1111111111111111
 40
0.1111111111111111
 40
0.2222222222222222
 40
0.2222222222222222
 40
0.2222222222222222
 40
0.3333333333333333
 40
0.3333333333333333
 40
0.3333333333333333
 40
0.4444444444444444
 40
0.4444444444444444
 40
0.4444444444444444
 40
0.5555555555555556
 40
0.5555555555555556
 40
0.5555555555555556
 40
0.6666666666666666
 40
0.6666666666666666
 40
0.6666666666666666
 40
0.7777777777777777
 40
0.7777777777777777
 40
0.7777777777777777
 40
0.8888888888888888
 40
0.8888888888888888
 40
0.8888888888888888
 40
1.0
 40
1.0
 40
1.0
 40
1.0
 10
746.7963
 20
-442.5537
 30
0.0
 10
769.8515
 20
-465.6833
 30
0.0
 10
796.0298
 20
-497.0798
 30
0.0
 10
830.024
 20
-509.2657
 30
0.0
 10
859.6551
 20
-519.8931
 30
0.0
 10
894.3163
 20
-517.2447
 30
0.0
 10
921.4049
 20
-528.5328
 30
0.0
 10
949.0193
 20
-540.0411
 30
0.0
 10
951.4127
 20
-569.3143
 30
0.0
 10
973.6283
 20
-583.3807
 30
0.0
 10
991.3316
 20
-591.7606
 30
0.0
 10
1062.8512
 20
-590.1569
 30
0.0
 10
1078.067
 20
-581.9012
 30
0.0
 10
1061.0621
 20
-555.1972
 30
0.0
 10
995.9771
 20
-577.3159
 30
0.0
 10
970.3638
 20
-547.8055
 30
0.0
 10
933.8977
 20
-505.7985
 30
0.0
 10
953.1706
 20
-413.3595
 30
0.0
 10
918.1405
 20
-369.9182
 30
0.0
 10
907.3427
 20
-356.5239
 30
0.0
 10
896.8039
 20
-354.0449
 30
0.0
 10
878.975
 20
-346.2014
 30
0.0
 10
812.9327
 20
-317.154
 30
0.0
 10
785.9854
 20
-373.8654
 30
0.0
 10
764.7429
 20
-409.9432
 30
0.0
 10
758.0492
 20
-421.3103
 30
0.0
 10
748.0283
 20
-425.76
 30
0.0
 10
746.7963
 20
-442.5537
 30
0.0
  0
SPLINE
  5
6F
330
1F
100
AcDbEntity
  8
Layer 1
 62
   250
370
    20
100
AcDbSpline
210
0.0
220
0.0
230
1.0
 70
    11
 71
     3
 72
    38
 73
    34
 74
     0
 42
0.0000000001
 43
0.0000000001
 40
0.0
 40
0.0
 40
0.0
 40
0.0
 40
0.0909090909090909
 40
0.0909090909090909
 40
0.0909090909090909
 40
0.1818181818181818
 40
0.1818181818181818
 40
0.1818181818181818
 40
0.2727272727272727
 40
0.2727272727272727
 40
0.2727272727272727
 40
0.3636363636363636
 40
0.3636363636363636
 40
0.3636363636363636
 40
0.4545454545454546
 40
0.4545454545454546
 40
0.4545454545454546
 40
0.5454545454545454
 40
0.5454545454545454
 40
0.5454545454545454
 40
0.6363636363636364
 40
0.6363636363636364
 40
0.6363636363636364
 40
0.7272727272727273
 40
0.7272727272727273
 40
0.7272727272727273
 40
0.8181818181818182
 40
0.8181818181818182
 40
0.8181818181818182
 40
0.9090909090909092
 40
0.9090909090909092
 40
0.9090909090909092
 40
1.0
 40
1.0
 40
1.0
 40
1.0
 10
743.5318
 20
436.5092
 30
0.0
 10
774.3322
 20
412.0187
 30
0.0
 10
780.8454
 20
364.2915
 30
0.0
 10
816.9662
 20
344.5953
 30
0.0
 10
833.5945
 20
335.5264
 30
0.0
 10
864.8578
 20
341.5686
 30
0.0
 10
878.975
 20
347.5599
 30
0.0
 10
929.4562
 20
368.9614
 30
0.0
 10
935.0905
 20
406.2025
 30
0.0
 10
945.8883
 20
463.1849
 30
0.0
 10
950.8792
 20
489.567
 30
0.0
 10
944.8918
 20
512.5045
 30
0.0
 10
957.306
 20
531.3763
 30
0.0
 10
987.8553
 20
577.8047
 30
0.0
 10
1021.2139
 20
566.7595
 30
0.0
 10
1082.9637
 20
578.8155
 30
0.0
 10
1083.5052
 20
579.7981
 30
0.0
 10
1084.0545
 20
580.7919
 30
0.0
 10
1084.5959
 20
581.7801
 30
0.0
 10
1083.5052
 20
583.2596
 30
0.0
 10
1082.4223
 20
584.7447
 30
0.0
 10
1081.3315
 20
586.2298
 30
0.0
 10
1048.1612
 20
588.9742
 30
0.0
 10
1006.0923
 20
591.9614
 30
0.0
 10
971.996
 20
586.2298
 30
0.0
 10
962.0693
 20
569.3401
 30
0.0
 10
952.4643
 20
549.8133
 30
0.0
 10
936.095
 20
538.7906
 30
0.0
 10
907.7194
 20
519.6704
 30
0.0
 10
865.2188
 20
523.4763
 30
0.0
 10
828.3918
 20
510.6241
 30
0.0
 10
799.8043
 20
500.6461
 30
0.0
 10
753.4899
 20
463.4672
 30
0.0
 10
743.5318
 20
436.5092
 30
0.0
  0
SPLINE
  5
70
330
1F
100
AcDbEntity
  8
Layer 1
 62
   250
370
    20
100
AcDbSpline
210
0.0
220
0.0
230
1.0
 70
    11
 71
     3
 72
    35
 73
    31
 74
     0
 42
0.0000000001
 43
0.0000000001
 40
0.0
 40
0.0
 40
0.0
 40
0.0
 40
0.1
 40
0.1
 40
0.1
 40
0.2
 40
0.2
 40
0.2
 40
0.3
 40
0.3
 40
0.3
 40
0.4
 40
0.4
 40
0.4
 40
0.5
 40
0.5
 40
0.5
 40
0.6000000000000001
 40
0.6000000000000001
 40
0.6000000000000001
 40
0.7000000000000001
 40
0.7000000000000001
 40
0.7000000000000001
 40
0.8
 40
0.8
 40
0.8
 40
0.9
 40
0.9
 40
0.9
 40
1.0
 40
1.0
 40
1.0
 40
1.0
 10
704.3663
 20
59.9769
 30
0.0
 10
711.9938
 20
48.3048
 30
0.0
 10
713.6889
 20
39.5013
 30
0.0
 10
725.5774
 20
31.8103
 30
0.0
 10
759.3048
 20
42.2739
 30
0.0
 10
777.9498
 20
76.2624
 30
0.0
 10
816.9662
 20
86.6582
 30
0.0
 10
885.0566
 20
104.7959
 30
0.0
 10
1024.1095
 20
49.8181
 30
0.0
 10
1019.3149
 20
138.5472
 30
0.0
 10
997.0366
 20
154.3132
 30
0.0
 10
969.2417
 20
165.5391
 30
0.0
 10
945.8883
 20
181.531
 30
0.0
 10
937.7272
 20
190.9218
 30
0.0
 10
929.5661
 20
200.3125
 30
0.0
 10
921.4049
 20
209.6975
 30
0.0
 10
918.6898
 20
209.2006
 30
0.0
 10
915.9669
 20
208.7093
 30
0.0
 10
913.2517
 20
208.2181
 30
0.0
 10
906.1735
 20
197.8448
 30
0.0
 10
899.1032
 20
187.4602
 30
0.0
 10
892.0328
 20
177.0813
 30
0.0
 10
873.2858
 20
153.8445
 30
0.0
 10
844.149
 20
131.8105
 30
0.0
 10
816.9662
 20
116.3099
 30
0.0
 10
785.3733
 20
98.2907
 30
0.0
 10
741.4523
 20
100.301
 30
0.0
 10
705.9986
 20
83.688
 30
0.0
 10
705.4571
 20
75.788
 30
0.0
 10
704.9078
 20
67.8768
 30
0.0
 10
704.3663
 20
59.9769
 30
0.0
  0
SPLINE
  5
71
330
1F
100
AcDbEntity
  8
Layer 1
 62
   250
370
    20
100
AcDbSpline
210
0.0
220
0.0
230
1.0
 70
    11
 71
     3
 72
    32
 73
    28
 74
     0
 42
0.0000000001
 43
0.0000000001
 40
0.0
 40
0.0
 40
0.0
 40
0.0
 40
0.1111111111111111
 40
0.1111111111111111
 40
0.1111111111111111
 40
0.2222222222222222
 40
0.2222222222222222
 40
0.2222222222222222
 40
0.3333333333333333
 40
0.3333333333333333
 40
0.3333333333333333
 40
0.4444444444444444
 40
0.4444444444444444
 40
0.4444444444444444
 40
0.5555555555555556
 40
0.5555555555555556
 40
0.5555555555555556
 40
0.6666666666666666
 40
0.6666666666666666
 40
0.6666666666666666
 40
0.7777777777777777
 40
0.7777777777777777
 40
0.7777777777777777
 40
0.8888888888888888
 40
0.8888888888888888
 40
0.8888888888888888
 40
1.0
 40
1.0
 40
1.0
 40
1.0
 10
704.3663
 20
-77.8855
 30
0.0
 10
705.9986
 20
-79.8675
 30
0.0
 10
707.6308
 20
-81.844
 30
0.0
 10
709.263
 20
-83.8203
 30
0.0
 10
764.4211
 20
-97.5027
 30
0.0
 10
811.7164
 20
-106.0746
 30
0.0
 10
849.6028
 20
-134.2185
 30
0.0
 10
871.6927
 20
-150.6226
 30
0.0
 10
899.6603
 20
-198.7056
 30
0.0
 10
918.1405
 20
-208.3335
 30
0.0
 10
919.7727
 20
-208.3335
 30
0.0
 10
921.4049
 20
-208.3335
 30
0.0
 10
923.0372
 20
-208.3335
 30
0.0
 10
938.0881
 20
-168.6304
 30
0.0
 10
1008.3914
 20
-164.7624
 30
0.0
 10
1019.3149
 20
-135.698
 30
0.0
 10
1027.4445
 20
-114.1044
 30
0.0
 10
1010.9889
 20
-94.284
 30
0.0
 10
996.4715
 20
-88.2644
 30
0.0
 10
956.2388
 20
-71.5723
 30
0.0
 10
895.0618
 20
-97.8246
 30
0.0
 10
844.7061
 20
-89.7439
 30
0.0
 10
791.5098
 20
-81.2115
 30
0.0
 10
760.168
 20
-55.5973
 30
0.0
 10
727.2096
 20
-28.9611
 30
0.0
 10
711.0522
 20
-39.2779
 30
0.0
 10
703.6836
 20
-51.9269
 30
0.0
 10
704.3663
 20
-77.8855
 30
0.0
  0
SPLINE
  5
72
330
1F
100
AcDbEntity
  8
Layer 1
 62
   250
370
    20
100
AcDbSpline
210
0.0
220
0.0
230
1.0
 70
    11
 71
     3
 72
    20
 73
    16
 74
     0
 42
0.0000000001
 43
0.0000000001
 40
0.0
 40
0.0
 40
0.0
 40
0.0
 40
0.2
 40
0.2
 40
0.2
 40
0.4
 40
0.4
 40
0.4
 40
0.6000000000000001
 40
0.6000000000000001
 40
0.6000000000000001
 40
0.8
 40
0.8
 40
0.8
 40
1.0
 40
1.0
 40
1.0
 40
1.0
 10
694.573
 20
125.2037
 30
0.0
 10
699.4697
 20
122.736
 30
0.0
 10
704.3663
 20
120.2626
 30
0.0
 10
709.263
 20
117.7893
 30
0.0
 10
732.1533
 20
123.0974
 30
0.0
 10
757.6412
 20
120.737
 30
0.0
 10
776.1685
 20
129.6421
 30
0.0
 10
825.6531
 20
153.4436
 30
0.0
 10
931.6926
 20
236.7008
 30
0.0
 10
909.9794
 20
313.4642
 30
0.0
 10
885.4176
 20
315.3784
 30
0.0
 10
855.5431
 20
301.8938
 30
0.0
 10
834.9128
 20
294.1914
 30
0.0
 10
753.2781
 20
263.7097
 30
0.0
 10
702.8832
 20
220.3193
 30
0.0
 10
694.573
 20
125.2037
 30
0.0
  0
SPLINE
  5
73
330
1F
100
AcDbEntity
  8
Layer 1
 62
   250
370
    20
100
AcDbSpline
210
0.0
220
0.0
230
1.0
 70
    11
 71
     3
 72
    26
 73
    22
 74
     0
 42
0.0000000001
 43
0.0000000001
 40
0.0
 40
0.0
 40
0.0
 40
0.0
 40
0.1428571428571428
 40
0.1428571428571428
 40
0.1428571428571428
 40
0.2857142857142857
 40
0.2857142857142857
 40
0.2857142857142857
 40
0.4285714285714285
 40
0.4285714285714285
 40
0.4285714285714285
 40
0.5714285714285714
 40
0.5714285714285714
 40
0.5714285714285714
 40
0.7142857142857142
 40
0.7142857142857142
 40
0.7142857142857142
 40
0.8571428571428571
 40
0.8571428571428571
 40
0.8571428571428571
 40
1.0
 40
1.0
 40
1.0
 40
1.0
 10
694.573
 20
-128.2837
 30
0.0
 10
697.2959
 20
-140.1421
 30
0.0
 10
700.0112
 20
-152.0061
 30
0.0
 10
702.7341
 20
-163.8645
 30
0.0
 10
710.5499
 20
-189.5069
 30
0.0
 10
722.7759
 20
-215.4033
 30
0.0
 10
737.0029
 20
-236.5
 30
0.0
 10
770.1967
 20
-285.7124
 30
0.0
 10
844.4236
 20
-286.8756
 30
0.0
 10
903.4584
 20
-313.5909
 30
0.0
 10
906.1735
 20
-311.6088
 30
0.0
 10
908.8965
 20
-309.6324
 30
0.0
 10
911.6116
 20
-307.656
 30
0.0
 10
909.846
 20
-214.0199
 30
0.0
 10
809.1582
 20
-105.6737
 30
0.0
 10
702.7341
 20
-116.4309
 30
0.0
 10
700.5605
 20
-117.9104
 30
0.0
 10
698.3789
 20
-119.3955
 30
0.0
 10
696.2052
 20
-120.875
 30
0.0
 10
695.6637
 20
-123.3483
 30
0.0
 10
695.1144
 20
-125.816
 30
0.0
 10
694.573
 20
-128.2837
 30
0.0
  0
SPLINE
  5
74
330
1F
100
AcDbEntity
  8
Layer 1
 62
   250
370
    20
100
AcDbSpline
210
0.0
220
0.0
230
1.0
 70
    11
 71
     3
 72
    29
 73
    25
 74
     0
 42
0.0000000001
 43
0.0000000001
 40
0.0
 40
0.0
 40
0.0
 40
0.0
 40
0.125
 40
0.125
 40
0.125
 40
0.25
 40
0.25
 40
0.25
 40
0.375
 40
0.375
 40
0.375
 40
0.5
 40
0.5
 40
0.5
 40
0.625
 40
0.625
 40
0.625
 40
0.75
 40
0.75
 40
0.75
 40
0.875
 40
0.875
 40
0.875
 40
1.0
 40
1.0
 40
1.0
 40
1.0
 10
604.8164
 20
580.295
 30
0.0
 10
617.576
 20
569.1594
 30
0.0
 10
624.7719
 20
542.879
 30
0.0
 10
639.0853
 20
534.3409
 30
0.0
 10
657.2202
 20
523.5328
 30
0.0
 10
681.8527
 20
526.232
 30
0.0
 10
697.8374
 20
515.0739
 30
0.0
 10
710.903
 20
505.9429
 30
0.0
 10
711.5937
 20
486.5346
 30
0.0
 10
730.4741
 20
482.4632
 30
0.0
 10
767.2618
 20
511.1098
 30
0.0
 10
797.0656
 20
532.7372
 30
0.0
 10
849.6028
 20
549.1639
 30
0.0
 10
886.7516
 20
560.7851
 30
0.0
 10
916.265
 20
550.8862
 30
0.0
 10
929.5661
 20
583.2596
 30
0.0
 10
926.8431
 20
584.7447
 30
0.0
 10
924.1279
 20
586.2298
 30
0.0
 10
921.4049
 20
587.7093
 30
0.0
 10
816.4326
 20
587.2124
 30
0.0
 10
711.4288
 20
586.7155
 30
0.0
 10
606.4487
 20
586.2298
 30
0.0
 10
605.9072
 20
584.2535
 30
0.0
 10
605.3657
 20
582.2714
 30
0.0
 10
604.8164
 20
580.295
 30
0.0
  0
SPLINE
  5
75
330
1F
100
AcDbEntity
  8
Layer 1
 62
   250
370
    20
100
AcDbSpline
210
0.0
220
0.0
230
1.0
 70
    11
 71
     3
 72
    32
 73
    28
 74
     0
 42
0.0000000001
 43
0.0000000001
 40
0.0
 40
0.0
 40
0.0
 40
0.0
 40
0.1111111111111111
 40
0.1111111111111111
 40
0.1111111111111111
 40
0.2222222222222222
 40
0.2222222222222222
 40
0.2222222222222222
 40
0.3333333333333333
 40
0.3333333333333333
 40
0.3333333333333333
 40
0.4444444444444444
 40
0.4444444444444444
 40
0.4444444444444444
 40
0.5555555555555556
 40
0.5555555555555556
 40
0.5555555555555556
 40
0.6666666666666666
 40
0.6666666666666666
 40
0.6666666666666666
 40
0.7777777777777777
 40
0.7777777777777777
 40
0.7777777777777777
 40
0.8888888888888888
 40
0.8888888888888888
 40
0.8888888888888888
 40
1.0
 40
1.0
 40
1.0
 40
1.0
 10
598.2954
 20
142.9856
 30
0.0
 10
608.0652
 20
136.6216
 30
0.0
 10
634.2906
 20
121.776
 30
0.0
 10
647.2463
 20
125.2037
 30
0.0
 10
659.0565
 20
131.5677
 30
0.0
 10
678.3292
 20
209.3588
 30
0.0
 10
686.4119
 20
226.0057
 30
0.0
 10
707.3483
 20
269.0968
 30
0.0
 10
750.5316
 20
285.5743
 30
0.0
 10
779.4329
 20
319.399
 30
0.0
 10
770.181
 20
330.2579
 30
0.0
 10
760.937
 20
341.1394
 30
0.0
 10
751.693
 20
352.0096
 30
0.0
 10
736.2339
 20
376.1894
 30
0.0
 10
734.1779
 20
419.0434
 30
0.0
 10
686.4119
 20
408.337
 30
0.0
 10
673.613
 20
405.4684
 30
0.0
 10
659.488
 20
399.5335
 30
0.0
 10
653.7753
 20
390.5493
 30
0.0
 10
632.266
 20
356.7077
 30
0.0
 10
666.0326
 20
306.0837
 30
0.0
 10
653.7753
 20
258.6163
 30
0.0
 10
644.5312
 20
233.42
 30
0.0
 10
635.2793
 20
208.2124
 30
0.0
 10
626.0353
 20
183.0105
 30
0.0
 10
616.7913
 20
169.6727
 30
0.0
 10
607.5394
 20
156.3291
 30
0.0
 10
598.2954
 20
142.9856
 30
0.0
  0
SPLINE
  5
76
330
1F
100
AcDbEntity
  8
Layer 1
 62
   250
370
    20
100
AcDbSpline
210
0.0
220
0.0
230
1.0
 70
    11
 71
     3
 72
    32
 73
    28
 74
     0
 42
0.0000000001
 43
0.0000000001
 40
0.0
 40
0.0
 40
0.0
 40
0.0
 40
0.1111111111111111
 40
0.1111111111111111
 40
0.1111111111111111
 40
0.2222222222222222
 40
0.2222222222222222
 40
0.2222222222222222
 40
0.3333333333333333
 40
0.3333333333333333
 40
0.3333333333333333
 40
0.4444444444444444
 40
0.4444444444444444
 40
0.4444444444444444
 40
0.5555555555555556
 40
0.5555555555555556
 40
0.5555555555555556
 40
0.6666666666666666
 40
0.6666666666666666
 40
0.6666666666666666
 40
0.7777777777777777
 40
0.7777777777777777
 40
0.7777777777777777
 40
0.8888888888888888
 40
0.8888888888888888
 40
0.8888888888888888
 40
1.0
 40
1.0
 40
1.0
 40
1.0
 10
598.2954
 20
-144.5918
 30
0.0
 10
633.0664
 20
-179.2296
 30
0.0
 10
647.113
 20
-229.3906
 30
0.0
 10
657.0397
 20
-286.9038
 30
0.0
 10
663.2155
 20
-322.7049
 30
0.0
 10
636.6683
 20
-347.7882
 30
0.0
 10
647.2463
 20
-377.3325
 30
0.0
 10
654.0421
 20
-396.2891
 30
0.0
 10
690.4767
 20
-420.2656
 30
0.0
 10
719.0485
 20
-404.0083
 30
0.0
 10
738.3448
 20
-393.0365
 30
0.0
 10
758.1434
 20
-340.8765
 30
0.0
 10
779.4329
 20
-320.9996
 30
0.0
 10
774.1046
 20
-302.8788
 30
0.0
 10
727.7433
 20
-280.6132
 30
0.0
 10
714.1519
 20
-263.1814
 30
0.0
 10
683.7987
 20
-224.2294
 30
0.0
 10
668.889
 20
-179.591
 30
0.0
 10
653.7753
 20
-125.3247
 30
0.0
 10
651.0601
 20
-124.3365
 30
0.0
 10
648.3371
 20
-123.3483
 30
0.0
 10
645.6141
 20
-122.3601
 30
0.0
 10
630.3905
 20
-127.7924
 30
0.0
 10
615.1512
 20
-133.2303
 30
0.0
 10
599.9276
 20
-138.6682
 30
0.0
 10
599.3783
 20
-140.639
 30
0.0
 10
598.8368
 20
-142.6154
 30
0.0
 10
598.2954
 20
-144.5918
 30
0.0
  0
SPLINE
  5
77
330
1F
100
AcDbEntity
  8
Layer 1
 62
   250
370
    20
100
AcDbSpline
210
0.0
220
0.0
230
1.0
 70
    11
 71
     3
 72
    32
 73
    28
 74
     0
 42
0.0000000001
 43
0.0000000001
 40
0.0
 40
0.0
 40
0.0
 40
0.0
 40
0.1111111111111111
 40
0.1111111111111111
 40
0.1111111111111111
 40
0.2222222222222222
 40
0.2222222222222222
 40
0.2222222222222222
 40
0.3333333333333333
 40
0.3333333333333333
 40
0.3333333333333333
 40
0.4444444444444444
 40
0.4444444444444444
 40
0.4444444444444444
 40
0.5555555555555556
 40
0.5555555555555556
 40
0.5555555555555556
 40
0.6666666666666666
 40
0.6666666666666666
 40
0.6666666666666666
 40
0.7777777777777777
 40
0.7777777777777777
 40
0.7777777777777777
 40
0.8888888888888888
 40
0.8888888888888888
 40
0.8888888888888888
 40
1.0
 40
1.0
 40
1.0
 40
1.0
 10
593.3987
 20
-583.3807
 30
0.0
 10
640.1525
 20
-593.6523
 30
0.0
 10
708.6038
 20
-586.3452
 30
0.0
 10
761.4863
 20
-586.3452
 30
0.0
 10
816.4169
 20
-585.854
 30
0.0
 10
871.3632
 20
-585.357
 30
0.0
 10
926.3016
 20
-584.8601
 30
0.0
 10
926.3016
 20
-582.3924
 30
0.0
 10
926.3016
 20
-579.9248
 30
0.0
 10
926.3016
 20
-577.4515
 30
0.0
 10
917.8973
 20
-544.5529
 30
0.0
 10
855.6138
 20
-550.5894
 30
0.0
 10
823.4951
 20
-538.906
 30
0.0
 10
802.8255
 20
-528.5328
 30
0.0
 10
782.148
 20
-518.1595
 30
0.0
 10
761.4863
 20
-507.7862
 30
0.0
 10
747.581
 20
-498.8642
 30
0.0
 10
743.6574
 20
-483.4426
 30
0.0
 10
723.9451
 20
-479.614
 30
0.0
 10
713.6104
 20
-491.4725
 30
0.0
 10
703.2756
 20
-503.3365
 30
0.0
 10
692.9407
 20
-515.1949
 30
0.0
 10
677.7877
 20
-524.8567
 30
0.0
 10
657.4243
 20
-523.4675
 30
0.0
 10
639.0853
 20
-531.4973
 30
0.0
 10
623.8617
 20
-548.7937
 30
0.0
 10
608.6223
 20
-566.09
 30
0.0
 10
593.3987
 20
-583.3807
 30
0.0
  0
SPLINE
  5
78
330
1F
100
AcDbEntity
  8
Layer 1
 62
   250
370
    20
100
AcDbSpline
210
0.0
220
0.0
230
1.0
 70
    11
 71
     3
 72
    47
 73
    43
 74
     0
 42
0.0000000001
 43
0.0000000001
 40
0.0
 40
0.0
 40
0.0
 40
0.0
 40
0.0714285714285714
 40
0.0714285714285714
 40
0.0714285714285714
 40
0.1428571428571428
 40
0.1428571428571428
 40
0.1428571428571428
 40
0.2142857142857143
 40
0.2142857142857143
 40
0.2142857142857143
 40
0.2857142857142857
 40
0.2857142857142857
 40
0.2857142857142857
 40
0.3571428571428571
 40
0.3571428571428571
 40
0.3571428571428571
 40
0.4285714285714285
 40
0.4285714285714285
 40
0.4285714285714285
 40
0.5
 40
0.5
 40
0.5
 40
0.5714285714285714
 40
0.5714285714285714
 40
0.5714285714285714
 40
0.6428571428571428
 40
0.6428571428571428
 40
0.6428571428571428
 40
0.7142857142857142
 40
0.7142857142857142
 40
0.7142857142857142
 40
0.7857142857142857
 40
0.7857142857142857
 40
0.7857142857142857
 40
0.8571428571428571
 40
0.8571428571428571
 40
0.8571428571428571
 40
0.9285714285714285
 40
0.9285714285714285
 40
0.9285714285714285
 40
1.0
 40
1.0
 40
1.0
 40
1.0
 10
433.4722
 20
454.2911
 30
0.0
 10
472.1354
 20
434.4198
 30
0.0
 10
506.6554
 20
430.3428
 30
0.0
 10
523.2288
 20
390.5493
 30
0.0
 10
531.9627
 20
369.5657
 30
0.0
 10
521.9418
 20
334.4648
 30
0.0
 10
518.3243
 20
317.9139
 30
0.0
 10
505.6353
 20
259.7851
 30
0.0
 10
526.5638
 20
197.6472
 30
0.0
 10
559.1298
 20
174.1167
 30
0.0
 10
561.3036
 20
175.1105
 30
0.0
 10
563.4772
 20
176.0931
 30
0.0
 10
565.6587
 20
177.0813
 30
0.0
 10
576.7077
 20
182.2369
 30
0.0
 10
579.3522
 20
190.6902
 30
0.0
 10
585.2375
 20
200.8038
 30
0.0
 10
606.3388
 20
237.0791
 30
0.0
 10
612.1614
 20
289.386
 30
0.0
 10
601.5519
 20
343.1158
 30
0.0
 10
598.6563
 20
357.8146
 30
0.0
 10
595.4625
 20
371.2541
 30
0.0
 10
599.9276
 20
387.5848
 30
0.0
 10
612.3026
 20
432.9008
 30
0.0
 10
656.0431
 20
431.7375
 30
0.0
 10
691.3085
 20
455.7762
 30
0.0
 10
690.7671
 20
458.2495
 30
0.0
 10
690.2256
 20
460.7116
 30
0.0
 10
689.6763
 20
463.1849
 30
0.0
 10
676.2811
 20
491.453
 30
0.0
 10
647.1993
 20
492.9382
 30
0.0
 10
611.3453
 20
497.2862
 30
0.0
 10
599.2135
 20
520.2802
 30
0.0
 10
592.5512
 20
544.1156
 30
0.0
 10
557.4976
 20
546.205
 30
0.0
 10
534.8584
 20
533.7875
 30
0.0
 10
521.3376
 20
526.3562
 30
0.0
 10
515.0677
 20
498.7601
 30
0.0
 10
471.1624
 20
488.9232
 30
0.0
 10
458.034
 20
489.1661
 30
0.0
 10
433.4722
 20
464.67
 30
0.0
 10
433.4722
 20
461.2085
 30
0.0
 10
433.4722
 20
457.7526
 30
0.0
 10
433.4722
 20
454.2911
 30
0.0
  0
SPLINE
  5
79
330
1F
100
AcDbEntity
  8
Layer 1
 62
   250
370
    20
100
AcDbSpline
210
0.0
220
0.0
230
1.0
 70
    11
 71
     3
 72
    47
 73
    43
 74
     0
 42
0.0000000001
 43
0.0000000001
 40
0.0
 40
0.0
 40
0.0
 40
0.0
 40
0.0714285714285714
 40
0.0714285714285714
 40
0.0714285714285714
 40
0.1428571428571428
 40
0.1428571428571428
 40
0.1428571428571428
 40
0.2142857142857143
 40
0.2142857142857143
 40
0.2142857142857143
 40
0.2857142857142857
 40
0.2857142857142857
 40
0.2857142857142857
 40
0.3571428571428571
 40
0.3571428571428571
 40
0.3571428571428571
 40
0.4285714285714285
 40
0.4285714285714285
 40
0.4285714285714285
 40
0.5
 40
0.5
 40
0.5
 40
0.5714285714285714
 40
0.5714285714285714
 40
0.5714285714285714
 40
0.6428571428571428
 40
0.6428571428571428
 40
0.6428571428571428
 40
0.7142857142857142
 40
0.7142857142857142
 40
0.7142857142857142
 40
0.7857142857142857
 40
0.7857142857142857
 40
0.7857142857142857
 40
0.8571428571428571
 40
0.8571428571428571
 40
0.8571428571428571
 40
0.9285714285714285
 40
0.9285714285714285
 40
0.9285714285714285
 40
1.0
 40
1.0
 40
1.0
 40
1.0
 10
431.8399
 20
-458.8619
 30
0.0
 10
444.27
 20
-475.554
 30
0.0
 10
457.5317
 20
-492.3082
 30
0.0
 10
485.6877
 20
-494.4427
 30
0.0
 10
495.4809
 20
-494.934
 30
0.0
 10
505.2743
 20
-495.4253
 30
0.0
 10
515.0677
 20
-495.9222
 30
0.0
 10
516.1506
 20
-501.3545
 30
0.0
 10
517.2414
 20
-506.7924
 30
0.0
 10
518.3243
 20
-512.2247
 30
0.0
 10
526.4932
 20
-529.3798
 30
0.0
 10
541.3088
 20
-537.6016
 30
0.0
 10
560.7621
 20
-544.8409
 30
0.0
 10
607.3275
 20
-529.7355
 30
0.0
 10
589.483
 20
-510.4515
 30
0.0
 10
612.9775
 20
-495.9222
 30
0.0
 10
651.8291
 20
-483.4257
 30
0.0
 10
682.9983
 20
-492.0315
 30
0.0
 10
691.3085
 20
-452.9326
 30
0.0
 10
656.9141
 20
-439.2447
 30
0.0
 10
621.5388
 20
-428.894
 30
0.0
 10
604.8164
 20
-399.5699
 30
0.0
 10
595.3369
 20
-382.9286
 30
0.0
 10
597.7539
 20
-361.9844
 30
0.0
 10
601.5519
 20
-343.2368
 30
0.0
 10
615.6613
 20
-273.6055
 30
0.0
 10
604.0788
 20
-203.9346
 30
0.0
 10
560.7621
 20
-171.2788
 30
0.0
 10
527.4192
 20
-195.0972
 30
0.0
 10
505.5411
 20
-255.8179
 30
0.0
 10
518.3243
 20
-315.0703
 30
0.0
 10
521.9575
 20
-331.8867
 30
0.0
 10
531.8921
 20
-366.9254
 30
0.0
 10
523.2288
 20
-387.7058
 30
0.0
 10
513.9534
 20
-409.9375
 30
0.0
 10
491.573
 20
-432.2256
 30
0.0
 10
467.741
 20
-441.0743
 30
0.0
 10
455.1776
 20
-445.7386
 30
0.0
 10
440.8485
 20
-446.7098
 30
0.0
 10
431.8399
 20
-454.4178
 30
0.0
 10
431.8399
 20
-455.8972
 30
0.0
 10
431.8399
 20
-457.3768
 30
0.0
 10
431.8399
 20
-458.8619
 30
0.0
  0
SPLINE
  5
7A
330
1F
100
AcDbEntity
  8
Layer 1
 62
   250
370
    20
100
AcDbSpline
210
0.0
220
0.0
230
1.0
 70
    11
 71
     3
 72
    38
 73
    34
 74
     0
 42
0.0000000001
 43
0.0000000001
 40
0.0
 40
0.0
 40
0.0
 40
0.0
 40
0.0909090909090909
 40
0.0909090909090909
 40
0.0909090909090909
 40
0.1818181818181818
 40
0.1818181818181818
 40
0.1818181818181818
 40
0.2727272727272727
 40
0.2727272727272727
 40
0.2727272727272727
 40
0.3636363636363636
 40
0.3636363636363636
 40
0.3636363636363636
 40
0.4545454545454546
 40
0.4545454545454546
 40
0.4545454545454546
 40
0.5454545454545454
 40
0.5454545454545454
 40
0.5454545454545454
 40
0.6363636363636364
 40
0.6363636363636364
 40
0.6363636363636364
 40
0.7272727272727273
 40
0.7272727272727273
 40
0.7272727272727273
 40
0.8181818181818182
 40
0.8181818181818182
 40
0.8181818181818182
 40
0.9090909090909092
 40
0.9090909090909092
 40
0.9090909090909092
 40
1.0
 40
1.0
 40
1.0
 40
1.0
 10
426.9433
 20
-2.2854
 30
0.0
 10
453.1059
 20
-25.8102
 30
0.0
 10
455.9545
 20
-56.2072
 30
0.0
 10
474.2699
 20
-88.2644
 30
0.0
 10
508.5545
 20
-92.748
 30
0.0
 10
539.8335
 20
-113.4493
 30
0.0
 10
567.2831
 20
-113.4607
 30
0.0
 10
580.7254
 20
-106.4417
 30
0.0
 10
644.288
 20
-91.7598
 30
0.0
 10
650.5108
 20
-83.8203
 30
0.0
 10
653.7753
 20
-72.9501
 30
0.0
 10
657.0397
 20
-62.0799
 30
0.0
 10
660.3041
 20
-51.1985
 30
0.0
 10
671.7219
 20
-34.9016
 30
0.0
 10
683.1475
 20
-18.5878
 30
0.0
 10
694.573
 20
-2.2854
 30
0.0
 10
695.1144
 20
-0.3033
 30
0.0
 10
695.6637
 20
1.6731
 30
0.0
 10
696.2052
 20
3.6494
 30
0.0
 10
686.4198
 20
15.9992
 30
0.0
 10
676.6185
 20
28.3488
 30
0.0
 10
666.833
 20
40.7041
 30
0.0
 10
660.8456
 20
57.0066
 30
0.0
 10
654.866
 20
73.3147
 30
0.0
 10
648.8785
 20
89.6284
 30
0.0
 10
614.8295
 20
96.704
 30
0.0
 10
587.6153
 20
110.7421
 30
0.0
 10
557.4976
 20
116.3099
 30
0.0
 10
534.4267
 20
100.5326
 30
0.0
 10
497.3643
 20
100.2333
 30
0.0
 10
471.0055
 20
86.6582
 30
0.0
 10
466.8857
 20
45.7524
 30
0.0
 10
435.7871
 20
29.9469
 30
0.0
 10
426.9433
 20
-2.2854
 30
0.0
  0
SPLINE
  5
7B
330
1F
100
AcDbEntity
  8
Layer 1
 62
   250
370
    20
100
AcDbSpline
210
0.0
220
0.0
230
1.0
 70
    11
 71
     3
 72
    29
 73
    25
 74
     0
 42
0.0000000001
 43
0.0000000001
 40
0.0
 40
0.0
 40
0.0
 40
0.0
 40
0.125
 40
0.125
 40
0.125
 40
0.25
 40
0.25
 40
0.25
 40
0.375
 40
0.375
 40
0.375
 40
0.5
 40
0.5
 40
0.5
 40
0.625
 40
0.625
 40
0.625
 40
0.75
 40
0.75
 40
0.75
 40
0.875
 40
0.875
 40
0.875
 40
1.0
 40
1.0
 40
1.0
 40
1.0
 10
343.7155
 20
317.9139
 30
0.0
 10
383.3205
 20
291.368
 30
0.0
 10
422.5724
 20
260.3781
 30
0.0
 10
441.6333
 20
215.6211
 30
0.0
 10
450.3987
 20
195.0496
 30
0.0
 10
460.5686
 20
135.3793
 30
0.0
 10
475.9021
 20
123.7185
 30
0.0
 10
494.5315
 20
125.7966
 30
0.0
 10
513.459
 20
134.8937
 30
0.0
 10
526.4932
 20
142.9856
 30
0.0
 10
515.6091
 20
158.7968
 30
0.0
 10
504.725
 20
174.6136
 30
0.0
 10
493.8487
 20
190.4249
 30
0.0
 10
478.4368
 20
217.5636
 30
0.0
 10
473.548
 20
254.8555
 30
0.0
 10
466.1088
 20
288.2679
 30
0.0
 10
458.5597
 20
322.1659
 30
0.0
 10
488.5754
 20
351.2416
 30
0.0
 10
474.2699
 20
383.1407
 30
0.0
 10
465.4967
 20
402.6844
 30
0.0
 10
442.3395
 20
414.029
 30
0.0
 10
410.6289
 20
408.337
 30
0.0
 10
399.1092
 20
401.0243
 30
0.0
 10
348.0551
 20
330.1111
 30
0.0
 10
343.7155
 20
317.9139
 30
0.0
  0
SPLINE
  5
7C
330
1F
100
AcDbEntity
  8
Layer 1
 62
   250
370
    20
100
AcDbSpline
210
0.0
220
0.0
230
1.0
 70
    11
 71
     3
 72
    29
 73
    25
 74
     0
 42
0.0000000001
 43
0.0000000001
 40
0.0
 40
0.0
 40
0.0
 40
0.0
 40
0.125
 40
0.125
 40
0.125
 40
0.25
 40
0.25
 40
0.25
 40
0.375
 40
0.375
 40
0.375
 40
0.5
 40
0.5
 40
0.5
 40
0.625
 40
0.625
 40
0.625
 40
0.75
 40
0.75
 40
0.75
 40
0.875
 40
0.875
 40
0.875
 40
1.0
 40
1.0
 40
1.0
 40
1.0
 10
343.7155
 20
-320.9996
 30
0.0
 10
373.6057
 20
-343.0731
 30
0.0
 10
378.8947
 20
-386.9944
 30
0.0
 10
410.6289
 20
-406.9786
 30
0.0
 10
520.4901
 20
-409.6551
 30
0.0
 10
453.6317
 20
-346.0716
 30
0.0
 10
466.1088
 20
-283.9392
 30
0.0
 10
477.3539
 20
-227.945
 30
0.0
 10
491.8241
 20
-177.5977
 30
0.0
 10
526.4932
 20
-143.1123
 30
0.0
 10
524.861
 20
-141.1415
 30
0.0
 10
523.2288
 20
-139.1595
 30
0.0
 10
521.5965
 20
-137.1775
 30
0.0
 10
505.6902
 20
-132.5358
 30
0.0
 10
493.6682
 20
-123.8226
 30
0.0
 10
474.2699
 20
-122.3601
 30
0.0
 10
472.6377
 20
-123.3483
 30
0.0
 10
471.0055
 20
-124.3365
 30
0.0
 10
469.3733
 20
-125.3247
 30
0.0
 10
458.9679
 20
-181.9457
 30
0.0
 10
435.4732
 20
-231.175
 30
0.0
 10
404.1
 20
-269.1162
 30
0.0
 10
388.4212
 20
-288.067
 30
0.0
 10
354.4035
 20
-298.9429
 30
0.0
 10
343.7155
 20
-320.9996
 30
0.0
  0
SPLINE
  5
7D
330
1F
100
AcDbEntity
  8
Layer 1
 62
   250
370
    20
100
AcDbSpline
210
0.0
220
0.0
230
1.0
 70
    11
 71
     3
 72
    23
 73
    19
 74
     0
 42
0.0000000001
 43
0.0000000001
 40
0.0
 40
0.0
 40
0.0
 40
0.0
 40
0.1666666666666667
 40
0.1666666666666667
 40
0.1666666666666667
 40
0.3333333333333333
 40
0.3333333333333333
 40
0.3333333333333333
 40
0.5
 40
0.5
 40
0.5
 40
0.6666666666666666
 40
0.6666666666666666
 40
0.6666666666666666
 40
0.8333333333333333
 40
0.8333333333333333
 40
0.8333333333333333
 40
1.0
 40
1.0
 40
1.0
 40
1.0
 10
209.9047
 20
303.0909
 30
0.0
 10
216.4257
 20
280.3566
 30
0.0
 10
222.9546
 20
257.6224
 30
0.0
 10
229.4835
 20
234.8995
 30
0.0
 10
248.4738
 20
186.0994
 30
0.0
 10
347.1762
 20
104.7621
 30
0.0
 10
425.3111
 20
120.7596
 30
0.0
 10
425.8525
 20
121.7422
 30
0.0
 10
426.4018
 20
122.736
 30
0.0
 10
426.9433
 20
123.7185
 30
0.0
 10
427.0453
 20
216.7844
 30
0.0
 10
368.6227
 20
267.0131
 30
0.0
 10
291.5001
 20
292.712
 30
0.0
 10
278.4345
 20
297.0601
 30
0.0
 10
226.3132
 20
323.956
 30
0.0
 10
213.1691
 20
309.0144
 30
0.0
 10
212.0784
 20
307.0437
 30
0.0
 10
210.9876
 20
305.0616
 30
0.0
 10
209.9047
 20
303.0909
 30
0.0
  0
SPLINE
  5
7E
330
1F
100
AcDbEntity
  8
Layer 1
 62
   250
370
    20
100
AcDbSpline
210
0.0
220
0.0
230
1.0
 70
    11
 71
     3
 72
    20
 73
    16
 74
     0
 42
0.0000000001
 43
0.0000000001
 40
0.0
 40
0.0
 40
0.0
 40
0.0
 40
0.2
 40
0.2
 40
0.2
 40
0.4
 40
0.4
 40
0.4
 40
0.6000000000000001
 40
0.6000000000000001
 40
0.6000000000000001
 40
0.8
 40
0.8
 40
0.8
 40
1.0
 40
1.0
 40
1.0
 40
1.0
 10
209.9047
 20
-304.6971
 30
0.0
 10
212.0784
 20
-307.1591
 30
0.0
 10
214.252
 20
-309.6324
 30
0.0
 10
216.4257
 20
-312.1001
 30
0.0
 10
243.3653
 20
-311.078
 30
0.0
 10
264.3801
 20
-300.0441
 30
0.0
 10
284.9713
 20
-292.833
 30
0.0
 10
348.9811
 20
-270.415
 30
0.0
 10
385.8709
 20
-251.3343
 30
0.0
 10
408.9967
 20
-192.0367
 30
0.0
 10
416.891
 20
-171.7701
 30
0.0
 10
434.3197
 20
-135.9577
 30
0.0
 10
422.0466
 20
-116.4309
 30
0.0
 10
304.2127
 20
-106.9216
 30
0.0
 10
226.4702
 20
-211.8232
 30
0.0
 10
209.9047
 20
-304.6971
 30
0.0
  0
SPLINE
  5
7F
330
1F
100
AcDbEntity
  8
Layer 1
 62
   250
370
    20
100
AcDbSpline
210
0.0
220
0.0
230
1.0
 70
    11
 71
     3
 72
    32
 73
    28
 74
     0
 42
0.0000000001
 43
0.0000000001
 40
0.0
 40
0.0
 40
0.0
 40
0.0
 40
0.1111111111111111
 40
0.1111111111111111
 40
0.1111111111111111
 40
0.2222222222222222
 40
0.2222222222222222
 40
0.2222222222222222
 40
0.3333333333333333
 40
0.3333333333333333
 40
0.3333333333333333
 40
0.4444444444444444
 40
0.4444444444444444
 40
0.4444444444444444
 40
0.5555555555555556
 40
0.5555555555555556
 40
0.5555555555555556
 40
0.6666666666666666
 40
0.6666666666666666
 40
0.6666666666666666
 40
0.7777777777777777
 40
0.7777777777777777
 40
0.7777777777777777
 40
0.8888888888888888
 40
0.8888888888888888
 40
0.8888888888888888
 40
1.0
 40
1.0
 40
1.0
 40
1.0
 10
195.2147
 20
580.295
 30
0.0
 10
233.7288
 20
545.1433
 30
0.0
 10
241.2229
 20
560.2487
 30
0.0
 10
294.7646
 20
543.2347
 30
0.0
 10
333.1689
 20
531.0375
 30
0.0
 10
367.6653
 20
508.8114
 30
0.0
 10
391.0422
 20
482.4632
 30
0.0
 10
393.2159
 20
482.4632
 30
0.0
 10
395.3896
 20
482.4632
 30
0.0
 10
397.5711
 20
482.4632
 30
0.0
 10
407.906
 20
493.8191
 30
0.0
 10
418.2407
 20
505.1862
 30
0.0
 10
428.5755
 20
516.5533
 30
0.0
 10
442.7476
 20
526.8758
 30
0.0
 10
463.9665
 20
523.7643
 30
0.0
 10
480.7988
 20
532.8614
 30
0.0
 10
483.0039
 20
534.0473
 30
0.0
 10
508.9939
 20
577.1271
 30
0.0
 10
511.8032
 20
581.7801
 30
0.0
 10
510.171
 20
583.7566
 30
0.0
 10
508.5387
 20
585.7329
 30
0.0
 10
506.9065
 20
587.7093
 30
0.0
 10
429.6741
 20
587.7093
 30
0.0
 10
352.4103
 20
587.7093
 30
0.0
 10
275.1779
 20
587.7093
 30
0.0
 10
250.773
 20
587.7093
 30
0.0
 10
206.342
 20
593.328
 30
0.0
 10
195.2147
 20
580.295
 30
0.0
  0
SPLINE
  5
80
330
1F
100
AcDbEntity
  8
Layer 1
 62
   250
370
    20
100
AcDbSpline
210
0.0
220
0.0
230
1.0
 70
    11
 71
     3
 72
    35
 73
    31
 74
     0
 42
0.0000000001
 43
0.0000000001
 40
0.0
 40
0.0
 40
0.0
 40
0.0
 40
0.1
 40
0.1
 40
0.1
 40
0.2
 40
0.2
 40
0.2
 40
0.3
 40
0.3
 40
0.3
 40
0.4
 40
0.4
 40
0.4
 40
0.5
 40
0.5
 40
0.5
 40
0.6000000000000001
 40
0.6000000000000001
 40
0.6000000000000001
 40
0.7000000000000001
 40
0.7000000000000001
 40
0.7000000000000001
 40
0.8
 40
0.8
 40
0.8
 40
0.9
 40
0.9
 40
0.9
 40
1.0
 40
1.0
 40
1.0
 40
1.0
 10
195.2147
 20
-581.9012
 30
0.0
 10
234.027
 20
-597.0743
 30
0.0
 10
388.8685
 20
-586.3452
 30
0.0
 10
448.1622
 20
-586.3452
 30
0.0
 10
471.5077
 20
-586.3509
 30
0.0
 10
517.7592
 20
-592.0147
 30
0.0
 10
529.7499
 20
-580.4217
 30
0.0
 10
529.7499
 20
-579.9248
 30
0.0
 10
529.7499
 20
-579.4278
 30
0.0
 10
529.7499
 20
-578.9366
 30
0.0
 10
507.087
 20
-570.1557
 30
0.0
 10
505.188
 20
-544.5359
 30
0.0
 10
487.3199
 20
-532.9825
 30
0.0
 10
479.1666
 20
-531.4973
 30
0.0
 10
471.0055
 20
-530.0122
 30
0.0
 10
462.8443
 20
-528.5328
 30
0.0
 10
431.2985
 20
-519.0799
 30
0.0
 10
418.0367
 20
-505.0249
 30
0.0
 10
402.4678
 20
-481.0992
 30
0.0
 10
398.6619
 20
-481.5905
 30
0.0
 10
394.8481
 20
-482.0874
 30
0.0
 10
391.0422
 20
-482.5786
 30
0.0
 10
382.8811
 20
-490.4842
 30
0.0
 10
374.7199
 20
-498.3955
 30
0.0
 10
366.5589
 20
-506.2954
 30
0.0
 10
343.7155
 20
-517.6625
 30
0.0
 10
320.8645
 20
-529.0297
 30
0.0
 10
298.0211
 20
-540.3968
 30
0.0
 10
259.1539
 20
-554.0735
 30
0.0
 10
208.4764
 20
-544.9086
 30
0.0
 10
195.2147
 20
-581.9012
 30
0.0
  0
SPLINE
  5
81
330
1F
100
AcDbEntity
  8
Layer 1
 62
   250
370
    20
100
AcDbSpline
210
0.0
220
0.0
230
1.0
 70
    11
 71
     3
 72
    29
 73
    25
 74
     0
 42
0.0000000001
 43
0.0000000001
 40
0.0
 40
0.0
 40
0.0
 40
0.0
 40
0.125
 40
0.125
 40
0.125
 40
0.25
 40
0.25
 40
0.25
 40
0.375
 40
0.375
 40
0.375
 40
0.5
 40
0.5
 40
0.5
 40
0.625
 40
0.625
 40
0.625
 40
0.75
 40
0.75
 40
0.75
 40
0.875
 40
0.875
 40
0.875
 40
1.0
 40
1.0
 40
1.0
 40
1.0
 10
102.1936
 20
120.7596
 30
0.0
 10
147.1661
 20
52.5399
 30
0.0
 10
192.0836
 20
105.3098
 30
0.0
 10
273.5457
 20
92.5874
 30
0.0
 10
329.7789
 20
83.8066
 30
0.0
 10
356.3339
 20
58.3449
 30
0.0
 10
392.6745
 20
33.2898
 30
0.0
 10
402.6797
 20
33.1486
 30
0.0
 10
401.3221
 20
32.1491
 30
0.0
 10
407.3645
 20
36.2601
 30
0.0
 10
413.9326
 20
52.5399
 30
0.0
 10
424.597
 20
69.5087
 30
0.0
 10
412.2533
 20
88.1377
 30
0.0
 10
313.7156
 20
91.0797
 30
0.0
 10
246.4962
 20
149.0334
 30
0.0
 10
209.9047
 20
209.6975
 30
0.0
 10
208.2724
 20
209.2006
 30
0.0
 10
206.6402
 20
208.7093
 30
0.0
 10
205.008
 20
208.2181
 30
0.0
 10
193.0174
 20
202.8592
 30
0.0
 10
190.2003
 20
190.1312
 30
0.0
 10
180.5247
 20
183.0105
 30
0.0
 10
154.6523
 20
163.9806
 30
0.0
 10
103.6454
 20
161.4226
 30
0.0
 10
102.1936
 20
120.7596
 30
0.0
  0
SPLINE
  5
82
330
1F
100
AcDbEntity
  8
Layer 1
 62
   250
370
    20
100
AcDbSpline
210
0.0
220
0.0
230
1.0
 70
    11
 71
     3
 72
    32
 73
    28
 74
     0
 42
0.0000000001
 43
0.0000000001
 40
0.0
 40
0.0
 40
0.0
 40
0.0
 40
0.1111111111111111
 40
0.1111111111111111
 40
0.1111111111111111
 40
0.2222222222222222
 40
0.2222222222222222
 40
0.2222222222222222
 40
0.3333333333333333
 40
0.3333333333333333
 40
0.3333333333333333
 40
0.4444444444444444
 40
0.4444444444444444
 40
0.4444444444444444
 40
0.5555555555555556
 40
0.5555555555555556
 40
0.5555555555555556
 40
0.6666666666666666
 40
0.6666666666666666
 40
0.6666666666666666
 40
0.7777777777777777
 40
0.7777777777777777
 40
0.7777777777777777
 40
0.8888888888888888
 40
0.8888888888888888
 40
0.8888888888888888
 40
1.0
 40
1.0
 40
1.0
 40
1.0
 10
102.1936
 20
-129.7688
 30
0.0
 10
124.1344
 20
-155.5072
 30
0.0
 10
152.1961
 20
-161.8599
 30
0.0
 10
180.5247
 20
-181.6521
 30
0.0
 10
191.0634
 20
-189.0099
 30
0.0
 10
194.6889
 20
-201.6928
 30
0.0
 10
206.6402
 20
-208.3335
 30
0.0
 10
236.6401
 20
-187.2989
 30
0.0
 10
251.4322
 20
-145.0943
 30
0.0
 10
289.8679
 20
-123.8452
 30
0.0
 10
313.8176
 20
-110.5977
 30
0.0
 10
341.0083
 20
-98.9991
 30
0.0
 10
369.8312
 20
-91.229
 30
0.0
 10
388.2564
 20
-86.2598
 30
0.0
 10
404.2883
 20
-88.6936
 30
0.0
 10
417.1499
 20
-80.8557
 30
0.0
 10
417.6992
 20
-79.8675
 30
0.0
 10
418.2407
 20
-78.8737
 30
0.0
 10
418.7821
 20
-77.8855
 30
0.0
 10
419.8023
 20
-55.0214
 30
0.0
 10
414.2857
 20
-38.5551
 30
0.0
 10
400.8355
 20
-28.9611
 30
0.0
 10
363.1061
 20
-41.7852
 30
0.0
 10
342.1383
 20
-75.2145
 30
0.0
 10
298.0211
 20
-86.7793
 30
0.0
 10
234.3252
 20
-103.4827
 30
0.0
 10
105.2304
 20
-49.2108
 30
0.0
 10
102.1936
 20
-129.7688
 30
0.0
  0
SPLINE
  5
83
330
1F
100
AcDbEntity
  8
Layer 1
 62
   250
370
    20
100
AcDbSpline
210
0.0
220
0.0
230
1.0
 70
    11
 71
     3
 72
    32
 73
    28
 74
     0
 42
0.0000000001
 43
0.0000000001
 40
0.0
 40
0.0
 40
0.0
 40
0.0
 40
0.1111111111111111
 40
0.1111111111111111
 40
0.1111111111111111
 40
0.2222222222222222
 40
0.2222222222222222
 40
0.2222222222222222
 40
0.3333333333333333
 40
0.3333333333333333
 40
0.3333333333333333
 40
0.4444444444444444
 40
0.4444444444444444
 40
0.4444444444444444
 40
0.5555555555555556
 40
0.5555555555555556
 40
0.5555555555555556
 40
0.6666666666666666
 40
0.6666666666666666
 40
0.6666666666666666
 40
0.7777777777777777
 40
0.7777777777777777
 40
0.7777777777777777
 40
0.8888888888888888
 40
0.8888888888888888
 40
0.8888888888888888
 40
1.0
 40
1.0
 40
1.0
 40
1.0
 10
80.9825
 20
-581.9012
 30
0.0
 10
101.8718
 20
-583.4936
 30
0.0
 10
127.2734
 20
-588.892
 30
0.0
 10
151.1525
 20
-584.8601
 30
0.0
 10
166.486
 20
-571.5449
 30
0.0
 10
168.8244
 20
-546.7834
 30
0.0
 10
187.0535
 20
-535.9471
 30
0.0
 10
209.2925
 20
-522.7278
 30
0.0
 10
232.0103
 20
-524.5461
 30
0.0
 10
262.128
 20
-516.68
 30
0.0
 10
315.0497
 20
-502.8396
 30
0.0
 10
350.8017
 20
-476.4066
 30
0.0
 10
377.9845
 20
-439.5891
 30
0.0
 10
373.7626
 20
-424.913
 30
0.0
 10
360.5793
 20
-415.7255
 30
0.0
 10
353.5089
 20
-404.0083
 30
0.0
 10
329.826
 20
-364.774
 30
0.0
 10
313.1035
 20
-319.825
 30
0.0
 10
242.5413
 20
-346.2014
 30
0.0
 10
233.8387
 20
-350.1542
 30
0.0
 10
225.1362
 20
-354.107
 30
0.0
 10
216.4257
 20
-358.0542
 30
0.0
 10
170.6607
 20
-405.2619
 30
0.0
 10
196.125
 20
-458.715
 30
0.0
 10
170.7391
 20
-518.1595
 30
0.0
 10
153.9775
 20
-557.3939
 30
0.0
 10
121.8195
 20
-563.9837
 30
0.0
 10
80.9825
 20
-581.9012
 30
0.0
  0
SPLINE
  5
84
330
1F
100
AcDbEntity
  8
Layer 1
 62
   250
370
    20
100
AcDbSpline
210
0.0
220
0.0
230
1.0
 70
    11
 71
     3
 72
    32
 73
    28
 74
     0
 42
0.0000000001
 43
0.0000000001
 40
0.0
 40
0.0
 40
0.0
 40
0.0
 40
0.1111111111111111
 40
0.1111111111111111
 40
0.1111111111111111
 40
0.2222222222222222
 40
0.2222222222222222
 40
0.2222222222222222
 40
0.3333333333333333
 40
0.3333333333333333
 40
0.3333333333333333
 40
0.4444444444444444
 40
0.4444444444444444
 40
0.4444444444444444
 40
0.5555555555555556
 40
0.5555555555555556
 40
0.5555555555555556
 40
0.6666666666666666
 40
0.6666666666666666
 40
0.6666666666666666
 40
0.7777777777777777
 40
0.7777777777777777
 40
0.7777777777777777
 40
0.8888888888888888
 40
0.8888888888888888
 40
0.8888888888888888
 40
1.0
 40
1.0
 40
1.0
 40
1.0
 10
41.8171
 20
580.295
 30
0.0
 10
43.9907
 20
578.8155
 30
0.0
 10
46.1723
 20
577.3248
 30
0.0
 10
48.3459
 20
575.8453
 30
0.0
 10
234.4037
 20
578.2904
 30
0.0
 10
137.7573
 20
447.6221
 30
0.0
 10
213.1691
 20
362.3829
 30
0.0
 10
242.9101
 20
328.7671
 30
0.0
 10
310.6159
 20
338.8129
 30
0.0
 10
333.9223
 20
368.3121
 30
0.0
 10
351.2175
 20
390.1993
 30
0.0
 10
359.512
 20
417.547
 30
0.0
 10
377.9845
 20
437.9886
 30
0.0
 10
356.1299
 20
478.533
 30
0.0
 10
314.9634
 20
505.1297
 30
0.0
 10
262.128
 20
518.0328
 30
0.0
 10
234.8431
 20
524.6961
 30
0.0
 10
207.7466
 20
523.7248
 30
0.0
 10
188.6857
 20
537.3055
 30
0.0
 10
171.9868
 20
549.2091
 30
0.0
 10
163.708
 20
568.9505
 30
0.0
 10
152.7847
 20
586.2298
 30
0.0
 10
121.9765
 20
588.946
 30
0.0
 10
77.1139
 20
591.8993
 30
0.0
 10
43.4493
 20
586.2298
 30
0.0
 10
42.9078
 20
584.2535
 30
0.0
 10
42.3585
 20
582.2714
 30
0.0
 10
41.8171
 20
580.295
 30
0.0
  0
SPLINE
  5
85
330
1F
100
AcDbEntity
  8
Layer 1
 62
   250
370
    20
100
AcDbSpline
210
0.0
220
0.0
230
1.0
 70
    11
 71
     3
 72
    23
 73
    19
 74
     0
 42
0.0000000001
 43
0.0000000001
 40
0.0
 40
0.0
 40
0.0
 40
0.0
 40
0.1666666666666667
 40
0.1666666666666667
 40
0.1666666666666667
 40
0.3333333333333333
 40
0.3333333333333333
 40
0.3333333333333333
 40
0.5
 40
0.5
 40
0.5
 40
0.6666666666666666
 40
0.6666666666666666
 40
0.6666666666666666
 40
0.8333333333333333
 40
0.8333333333333333
 40
0.8333333333333333
 40
1.0
 40
1.0
 40
1.0
 40
1.0
 10
-10.3984
 20
-335.8282
 30
0.0
 10
-0.7542
 20
-342.8755
 30
0.0
 10
25.6988
 20
-341.6162
 30
0.0
 10
40.1849
 20
-340.2666
 30
0.0
 10
57.59
 20
-340.2666
 30
0.0
 10
75.003
 20
-340.2666
 30
0.0
 10
92.4081
 20
-340.2666
 30
0.0
 10
135.3089
 20
-331.6608
 30
0.0
 10
172.6696
 20
-301.4445
 30
0.0
 10
183.7891
 20
-264.6721
 30
0.0
 10
196.8469
 20
-221.5245
 30
0.0
 10
87.2368
 20
-155.3152
 30
0.0
 10
63.0281
 20
-165.3496
 30
0.0
 10
51.0689
 20
-178.6875
 30
0.0
 10
39.0941
 20
-192.0367
 30
0.0
 10
27.1349
 20
-205.3745
 30
0.0
 10
2.7614
 20
-238.5385
 30
0.0
 10
-8.0678
 20
-281.7652
 30
0.0
 10
-10.3984
 20
-335.8282
 30
0.0
  0
SPLINE
  5
86
330
1F
100
AcDbEntity
  8
Layer 1
 62
   250
370
    20
100
AcDbSpline
210
0.0
220
0.0
230
1.0
 70
    11
 71
     3
 72
    26
 73
    22
 74
     0
 42
0.0000000001
 43
0.0000000001
 40
0.0
 40
0.0
 40
0.0
 40
0.0
 40
0.1428571428571428
 40
0.1428571428571428
 40
0.1428571428571428
 40
0.2857142857142857
 40
0.2857142857142857
 40
0.2857142857142857
 40
0.4285714285714285
 40
0.4285714285714285
 40
0.4285714285714285
 40
0.5714285714285714
 40
0.5714285714285714
 40
0.5714285714285714
 40
0.7142857142857142
 40
0.7142857142857142
 40
0.7142857142857142
 40
0.8571428571428571
 40
0.8571428571428571
 40
0.8571428571428571
 40
1.0
 40
1.0
 40
1.0
 40
1.0
 10
-20.1917
 20
341.625
 30
0.0
 10
-12.1091
 20
326.7681
 30
0.0
 10
-15.2794
 20
308.766
 30
0.0
 10
-10.3984
 20
289.7474
 30
0.0
 10
1.1449
 20
244.6741
 30
0.0
 10
28.4375
 20
184.9474
 30
0.0
 10
67.9247
 20
165.2229
 30
0.0
 10
70.6478
 20
164.7316
 30
0.0
 10
73.3708
 20
164.2404
 30
0.0
 10
76.0859
 20
163.7434
 30
0.0
 10
110.0879
 20
180.588
 30
0.0
 10
171.673
 20
206.3715
 30
0.0
 10
183.7891
 20
242.3081
 30
0.0
 10
208.2959
 20
314.9832
 30
0.0
 10
63.1537
 20
365.5846
 30
0.0
 10
-13.6707
 20
354.9686
 30
0.0
 10
-15.2951
 20
353.9804
 30
0.0
 10
-16.9273
 20
352.9921
 30
0.0
 10
-18.5595
 20
352.0096
 30
0.0
 10
-19.1088
 20
348.5481
 30
0.0
 10
-19.6503
 20
345.0922
 30
0.0
 10
-20.1917
 20
341.625
 30
0.0
  0
SPLINE
  5
87
330
1F
100
AcDbEntity
  8
Layer 1
 62
   250
370
    20
100
AcDbSpline
210
0.0
220
0.0
230
1.0
 70
    11
 71
     3
 72
    35
 73
    31
 74
     0
 42
0.0000000001
 43
0.0000000001
 40
0.0
 40
0.0
 40
0.0
 40
0.0
 40
0.1
 40
0.1
 40
0.1
 40
0.2
 40
0.2
 40
0.2
 40
0.3
 40
0.3
 40
0.3
 40
0.4
 40
0.4
 40
0.4
 40
0.5
 40
0.5
 40
0.5
 40
0.6000000000000001
 40
0.6000000000000001
 40
0.6000000000000001
 40
0.7000000000000001
 40
0.7000000000000001
 40
0.7000000000000001
 40
0.8
 40
0.8
 40
0.8
 40
0.9
 40
0.9
 40
0.9
 40
1.0
 40
1.0
 40
1.0
 40
1.0
 10
-43.0429
 20
515.0739
 30
0.0
 10
-37.6911
 20
503.5881
 30
0.0
 10
-27.4975
 20
485.2189
 30
0.0
 10
-26.7207
 20
475.0433
 30
0.0
 10
-25.4573
 20
458.5884
 30
0.0
 10
-37.746
 20
432.6354
 30
0.0
 10
-26.7207
 20
415.7513
 30
0.0
 10
-4.4424
 20
381.6217
 30
0.0
 10
45.568
 20
395.3774
 30
0.0
 10
90.7759
 20
386.0997
 30
0.0
 10
111.9869
 20
379.1823
 30
0.0
 10
133.2059
 20
372.2705
 30
0.0
 10
154.4169
 20
365.3475
 30
0.0
 10
155.5077
 20
366.8326
 30
0.0
 10
156.5984
 20
368.3121
 30
0.0
 10
157.6813
 20
369.7972
 30
0.0
 10
152.2432
 20
383.1407
 30
0.0
 10
146.8051
 20
396.4842
 30
0.0
 10
141.367
 20
409.8164
 30
0.0
 10
127.03
 20
453.7207
 30
0.0
 10
146.0204
 20
512.6005
 30
0.0
 10
110.3626
 20
535.8317
 30
0.0
 10
84.4903
 20
552.6706
 30
0.0
 10
66.8654
 20
537.2377
 30
0.0
 10
35.2881
 20
546.205
 30
0.0
 10
27.1349
 20
551.1403
 30
0.0
 10
18.9659
 20
556.0813
 30
0.0
 10
10.8127
 20
561.0223
 30
0.0
 10
-23.5582
 20
571.9828
 30
0.0
 10
-43.498
 20
543.6187
 30
0.0
 10
-43.0429
 20
515.0739
 30
0.0
  0
SPLINE
  5
88
330
1F
100
AcDbEntity
  8
Layer 1
 62
   250
370
    20
100
AcDbSpline
210
0.0
220
0.0
230
1.0
 70
    11
 71
     3
 72
    44
 73
    40
 74
     0
 42
0.0000000001
 43
0.0000000001
 40
0.0
 40
0.0
 40
0.0
 40
0.0
 40
0.0769230769230769
 40
0.0769230769230769
 40
0.0769230769230769
 40
0.1538461538461539
 40
0.1538461538461539
 40
0.1538461538461539
 40
0.2307692307692308
 40
0.2307692307692308
 40
0.2307692307692308
 40
0.3076923076923077
 40
0.3076923076923077
 40
0.3076923076923077
 40
0.3846153846153846
 40
0.3846153846153846
 40
0.3846153846153846
 40
0.4615384615384616
 40
0.4615384615384616
 40
0.4615384615384616
 40
0.5384615384615385
 40
0.5384615384615385
 40
0.5384615384615385
 40
0.6153846153846154
 40
0.6153846153846154
 40
0.6153846153846154
 40
0.6923076923076923
 40
0.6923076923076923
 40
0.6923076923076923
 40
0.7692307692307693
 40
0.7692307692307693
 40
0.7692307692307693
 40
0.8461538461538463
 40
0.8461538461538463
 40
0.8461538461538463
 40
0.9230769230769231
 40
0.9230769230769231
 40
0.9230769230769231
 40
1.0
 40
1.0
 40
1.0
 40
1.0
 10
-46.3073
 20
-9.6941
 30
0.0
 10
-26.4146
 20
-46.8673
 30
0.0
 10
-23.9977
 20
-37.8098
 30
0.0
 10
10.8127
 20
-58.6128
 30
0.0
 10
11.307
 20
-91.2177
 30
0.0
 10
29.8186
 20
-104.8266
 30
0.0
 10
48.3459
 20
-120.875
 30
0.0
 10
58.6729
 20
-120.8863
 30
0.0
 10
60.721
 20
-119.6044
 30
0.0
 10
66.3004
 20
-116.4309
 30
0.0
 10
73.6533
 20
-77.1909
 30
0.0
 10
107.6788
 20
-39.6732
 30
0.0
 10
167.4747
 20
-48.2395
 30
0.0
 10
191.4087
 20
-50.7072
 30
0.0
 10
215.3428
 20
-53.1805
 30
0.0
 10
239.2769
 20
-55.6481
 30
0.0
 10
280.6317
 20
-50.9161
 30
0.0
 10
314.8378
 20
-42.9597
 30
0.0
 10
340.459
 20
-24.5227
 30
0.0
 10
352.1121
 20
-16.1315
 30
0.0
 10
366.4883
 20
-12.4892
 30
0.0
 10
369.8312
 20
3.6494
 30
0.0
 10
340.8357
 20
33.6399
 30
0.0
 10
302.9728
 20
49.0445
 30
0.0
 10
249.0702
 20
57.0066
 30
0.0
 10
198.3143
 20
64.5113
 30
0.0
 10
147.4093
 20
37.7621
 30
0.0
 10
107.0903
 20
58.4973
 30
0.0
 10
82.5284
 20
71.1293
 30
0.0
 10
76.4704
 20
99.2677
 30
0.0
 10
63.0281
 20
122.2391
 30
0.0
 10
59.7715
 20
122.2391
 30
0.0
 10
56.5071
 20
122.2391
 30
0.0
 10
53.2426
 20
122.2391
 30
0.0
 10
17.8202
 20
115.2991
 30
0.0
 10
20.7864
 20
78.363
 30
0.0
 10
4.2837
 20
54.0476
 30
0.0
 10
-33.3751
 20
53.3531
 30
0.0
 10
-47.8689
 20
27.5074
 30
0.0
 10
-46.3073
 20
-9.6941
 30
0.0
  0
SPLINE
  5
89
330
1F
100
AcDbEntity
  8
Layer 1
 62
   250
370
    20
100
AcDbSpline
210
0.0
220
0.0
230
1.0
 70
    11
 71
     3
 72
    32
 73
    28
 74
     0
 42
0.0000000001
 43
0.0000000001
 40
0.0
 40
0.0
 40
0.0
 40
0.0
 40
0.1111111111111111
 40
0.1111111111111111
 40
0.1111111111111111
 40
0.2222222222222222
 40
0.2222222222222222
 40
0.2222222222222222
 40
0.3333333333333333
 40
0.3333333333333333
 40
0.3333333333333333
 40
0.4444444444444444
 40
0.4444444444444444
 40
0.4444444444444444
 40
0.5555555555555556
 40
0.5555555555555556
 40
0.5555555555555556
 40
0.6666666666666666
 40
0.6666666666666666
 40
0.6666666666666666
 40
0.7777777777777777
 40
0.7777777777777777
 40
0.7777777777777777
 40
0.8888888888888888
 40
0.8888888888888888
 40
0.8888888888888888
 40
1.0
 40
1.0
 40
1.0
 40
1.0
 10
-46.3073
 20
-516.68
 30
0.0
 10
-32.9749
 20
-537.4322
 30
0.0
 10
-27.9056
 20
-560.6916
 30
0.0
 10
7.5481
 20
-561.149
 30
0.0
 10
33.6716
 20
-551.3969
 30
0.0
 10
89.5988
 20
-551.2613
 30
0.0
 10
111.9948
 20
-532.9825
 30
0.0
 10
145.1964
 20
-505.8776
 30
0.0
 10
126.0413
 20
-452.2155
 30
0.0
 10
141.367
 20
-406.9786
 30
0.0
 10
146.0988
 20
-392.9913
 30
0.0
 10
157.6421
 20
-382.4994
 30
0.0
 10
159.3135
 20
-365.4685
 30
0.0
 10
157.1399
 20
-364.4803
 30
0.0
 10
154.9584
 20
-363.4978
 30
0.0
 10
152.7847
 20
-362.5039
 30
0.0
 10
127.5402
 20
-372.9901
 30
0.0
 10
100.8595
 20
-381.7597
 30
0.0
 10
69.557
 20
-387.7058
 30
0.0
 10
44.54
 20
-388.6997
 30
0.0
 10
19.5152
 20
-389.6822
 30
0.0
 10
-5.5096
 20
-390.6761
 30
0.0
 10
-47.3824
 20
-405.0642
 30
0.0
 10
-27.678
 20
-430.2097
 30
0.0
 10
-33.2495
 20
-466.2705
 30
0.0
 10
-35.7842
 20
-482.6521
 30
0.0
 10
-46.6291
 20
-492.0315
 30
0.0
 10
-46.3073
 20
-516.68
 30
0.0
  0
SPLINE
  5
8A
330
1F
100
AcDbEntity
  8
Layer 1
 62
   250
370
    20
100
AcDbSpline
210
0.0
220
0.0
230
1.0
 70
    11
 71
     3
 72
    20
 73
    16
 74
     0
 42
0.0000000001
 43
0.0000000001
 40
0.0
 40
0.0
 40
0.0
 40
0.0
 40
0.2
 40
0.2
 40
0.2
 40
0.4
 40
0.4
 40
0.4
 40
0.6000000000000001
 40
0.6000000000000001
 40
0.6000000000000001
 40
0.8
 40
0.8
 40
0.8
 40
1.0
 40
1.0
 40
1.0
 40
1.0
 10
-103.4195
 20
580.295
 30
0.0
 10
-95.8076
 20
570.413
 30
0.0
 10
-88.188
 20
560.531
 30
0.0
 10
-80.5762
 20
550.649
 30
0.0
 10
-65.6586
 20
553.1958
 30
0.0
 10
-57.4111
 20
572.508
 30
0.0
 10
-49.5718
 20
581.7801
 30
0.0
 10
-50.6547
 20
583.2596
 30
0.0
 10
-51.7454
 20
584.7447
 30
0.0
 10
-52.8284
 20
586.2298
 30
0.0
 10
-69.3154
 20
588.1159
 30
0.0
 10
-88.9727
 20
591.0579
 30
0.0
 10
-103.4195
 20
584.7447
 30
0.0
 10
-103.4195
 20
583.2596
 30
0.0
 10
-103.4195
 20
581.7801
 30
0.0
 10
-103.4195
 20
580.295
 30
0.0
  0
SPLINE
  5
8B
330
1F
100
AcDbEntity
  8
Layer 1
 62
   250
370
    20
100
AcDbSpline
210
0.0
220
0.0
230
1.0
 70
    11
 71
     3
 72
    20
 73
    16
 74
     0
 42
0.0000000001
 43
0.0000000001
 40
0.0
 40
0.0
 40
0.0
 40
0.0
 40
0.2
 40
0.2
 40
0.2
 40
0.4
 40
0.4
 40
0.4
 40
0.6000000000000001
 40
0.6000000000000001
 40
0.6000000000000001
 40
0.8
 40
0.8
 40
0.8
 40
1.0
 40
1.0
 40
1.0
 40
1.0
 10
-106.6839
 20
472.0787
 30
0.0
 10
-69.9353
 20
432.6523
 30
0.0
 10
-107.1939
 20
410.3303
 30
0.0
 10
-103.4195
 20
374.2469
 30
0.0
 10
-90.4637
 20
370.8023
 30
0.0
 10
-62.5432
 20
373.6145
 30
0.0
 10
-52.8284
 20
378.691
 30
0.0
 10
-59.114
 20
392.5088
 30
0.0
 10
-64.4815
 20
406.2137
 30
0.0
 10
-67.5184
 20
423.16
 30
0.0
 10
-74.5966
 20
462.6202
 30
0.0
 10
-52.3733
 20
485.0269
 30
0.0
 10
-80.5762
 20
506.1744
 30
0.0
 10
-93.4613
 20
499.2852
 30
0.0
 10
-101.2771
 20
485.7667
 30
0.0
 10
-106.6839
 20
472.0787
 30
0.0
  0
SPLINE
  5
8C
330
1F
100
AcDbEntity
  8
Layer 1
 62
   250
370
    20
100
AcDbSpline
210
0.0
220
0.0
230
1.0
 70
    11
 71
     3
 72
    26
 73
    22
 74
     0
 42
0.0000000001
 43
0.0000000001
 40
0.0
 40
0.0
 40
0.0
 40
0.0
 40
0.1428571428571428
 40
0.1428571428571428
 40
0.1428571428571428
 40
0.2857142857142857
 40
0.2857142857142857
 40
0.2857142857142857
 40
0.4285714285714285
 40
0.4285714285714285
 40
0.4285714285714285
 40
0.5714285714285714
 40
0.5714285714285714
 40
0.5714285714285714
 40
0.7142857142857142
 40
0.7142857142857142
 40
0.7142857142857142
 40
0.8571428571428571
 40
0.8571428571428571
 40
0.8571428571428571
 40
1.0
 40
1.0
 40
1.0
 40
1.0
 10
-111.5805
 20
-381.7766
 30
0.0
 10
-82.7263
 20
-410.0278
 30
0.0
 10
-118.5411
 20
-458.4609
 30
0.0
 10
-82.2084
 20
-478.1289
 30
0.0
 10
-79.4854
 20
-478.1289
 30
0.0
 10
-76.7703
 20
-478.1289
 30
0.0
 10
-74.0473
 20
-478.1289
 30
0.0
 10
-69.3703
 20
-463.9327
 30
0.0
 10
-80.7253
 20
-443.7961
 30
0.0
 10
-75.6795
 20
-421.8072
 30
0.0
 10
-69.1507
 20
-407.9667
 30
0.0
 10
-62.6217
 20
-394.1263
 30
0.0
 10
-56.0929
 20
-380.2915
 30
0.0
 10
-57.7251
 20
-377.3325
 30
0.0
 10
-59.3573
 20
-374.3623
 30
0.0
 10
-60.9895
 20
-371.3977
 30
0.0
 10
-73.859
 20
-371.3412
 30
0.0
 10
-103.9688
 20
-368.1
 30
0.0
 10
-109.9483
 20
-372.8828
 30
0.0
 10
-110.4898
 20
-375.8475
 30
0.0
 10
-111.0391
 20
-378.8121
 30
0.0
 10
-111.5805
 20
-381.7766
 30
0.0
  0
SPLINE
  5
8D
330
1F
100
AcDbEntity
  8
Layer 1
 62
   250
370
    20
100
AcDbSpline
210
0.0
220
0.0
230
1.0
 70
    11
 71
     3
 72
    20
 73
    16
 74
     0
 42
0.0000000001
 43
0.0000000001
 40
0.0
 40
0.0
 40
0.0
 40
0.0
 40
0.2
 40
0.2
 40
0.2
 40
0.4
 40
0.4
 40
0.4
 40
0.6000000000000001
 40
0.6000000000000001
 40
0.6000000000000001
 40
0.8
 40
0.8
 40
0.8
 40
1.0
 40
1.0
 40
1.0
 40
1.0
 10
-113.2128
 20
-581.9012
 30
0.0
 10
-102.3444
 20
-587.2036
 30
0.0
 10
-60.5579
 20
-590.8232
 30
0.0
 10
-47.9395
 20
-583.3807
 30
0.0
 10
-46.8488
 20
-583.3807
 30
0.0
 10
-45.758
 20
-583.3807
 30
0.0
 10
-44.6751
 20
-583.3807
 30
0.0
 10
-53.3777
 20
-571.5279
 30
0.0
 10
-62.0803
 20
-559.6639
 30
0.0
 10
-70.7829
 20
-547.8055
 30
0.0
 10
-74.0473
 20
-546.8173
 30
0.0
 10
-77.3117
 20
-545.8291
 30
0.0
 10
-80.5762
 20
-544.8409
 30
0.0
 10
-91.4524
 20
-557.1906
 30
0.0
 10
-102.3366
 20
-569.5515
 30
0.0
 10
-113.2128
 20
-581.9012
 30
0.0
  0
SPLINE
  5
8E
330
1F
100
AcDbEntity
  8
Layer 1
 62
   250
370
    20
100
AcDbSpline
210
0.0
220
0.0
230
1.0
 70
    11
 71
     3
 72
    50
 73
    46
 74
     0
 42
0.0000000001
 43
0.0000000001
 40
0.0
 40
0.0
 40
0.0
 40
0.0
 40
0.0666666666666667
 40
0.0666666666666667
 40
0.0666666666666667
 40
0.1333333333333333
 40
0.1333333333333333
 40
0.1333333333333333
 40
0.2
 40
0.2
 40
0.2
 40
0.2666666666666667
 40
0.2666666666666667
 40
0.2666666666666667
 40
0.3333333333333333
 40
0.3333333333333333
 40
0.3333333333333333
 40
0.4
 40
0.4
 40
0.4
 40
0.4666666666666667
 40
0.4666666666666667
 40
0.4666666666666667
 40
0.5333333333333333
 40
0.5333333333333333
 40
0.5333333333333333
 40
0.6
 40
0.6
 40
0.6
 40
0.6666666666666666
 40
0.6666666666666666
 40
0.6666666666666666
 40
0.7333333333333333
 40
0.7333333333333333
 40
0.7333333333333333
 40
0.8
 40
0.8
 40
0.8
 40
0.8666666666666667
 40
0.8666666666666667
 40
0.8666666666666667
 40
0.9333333333333333
 40
0.9333333333333333
 40
0.9333333333333333
 40
1.0
 40
1.0
 40
1.0
 40
1.0
 10
-181.7505
 20
150.3999
 30
0.0
 10
-162.305
 20
139.462
 30
0.0
 10
-140.6546
 20
123.967
 30
0.0
 10
-132.7995
 20
102.9663
 30
0.0
 10
-131.7009
 20
96.0489
 30
0.0
 10
-130.618
 20
89.1315
 30
0.0
 10
-129.5272
 20
82.2141
 30
0.0
 10
-128.9857
 20
81.7172
 30
0.0
 10
-128.4442
 20
81.2203
 30
0.0
 10
-127.8949
 20
80.7291
 30
0.0
 10
-122.755
 20
74.4045
 30
0.0
 10
-114.1309
 20
74.8393
 30
0.0
 10
-106.6839
 20
70.3501
 30
0.0
 10
-97.4398
 20
60.4738
 30
0.0
 10
-88.188
 20
50.5861
 30
0.0
 10
-78.9439
 20
40.7041
 30
0.0
 10
-76.7703
 20
41.201
 30
0.0
 10
-74.5888
 20
41.6923
 30
0.0
 10
-72.4151
 20
42.1836
 30
0.0
 10
-66.4276
 20
50.0949
 30
0.0
 10
-60.448
 20
58.0004
 30
0.0
 10
-54.4606
 20
65.9004
 30
0.0
 10
-46.3073
 20
70.3501
 30
0.0
 10
-38.1384
 20
74.7998
 30
0.0
 10
-29.9851
 20
79.2439
 30
0.0
 10
-26.1792
 20
89.1315
 30
0.0
 10
-22.3655
 20
99.0192
 30
0.0
 10
-18.5595
 20
108.8955
 30
0.0
 10
-8.5779
 20
127.773
 30
0.0
 10
10.2947
 20
140.5123
 30
0.0
 10
28.7593
 20
151.8907
 30
0.0
 10
8.3172
 20
181.3955
 30
0.0
 10
-20.8509
 20
200.7247
 30
0.0
 10
-34.8817
 20
237.8584
 30
0.0
 10
-48.8263
 20
274.7945
 30
0.0
 10
-42.3994
 20
315.7963
 30
0.0
 10
-70.7829
 20
338.6661
 30
0.0
 10
-81.5493
 20
337.8981
 30
0.0
 10
-88.3057
 20
335.0803
 30
0.0
 10
-95.2583
 20
331.2518
 30
0.0
 10
-110.3486
 20
295.6878
 30
0.0
 10
-113.4011
 20
243.0422
 30
0.0
 10
-132.7995
 20
209.6975
 30
0.0
 10
-144.845
 20
188.9793
 30
0.0
 10
-175.2451
 20
173.3939
 30
0.0
 10
-181.7505
 20
150.3999
 30
0.0
  0
SPLINE
  5
8F
330
1F
100
AcDbEntity
  8
Layer 1
 62
   250
370
    20
100
AcDbSpline
210
0.0
220
0.0
230
1.0
 70
    11
 71
     3
 72
    47
 73
    43
 74
     0
 42
0.0000000001
 43
0.0000000001
 40
0.0
 40
0.0
 40
0.0
 40
0.0
 40
0.0714285714285714
 40
0.0714285714285714
 40
0.0714285714285714
 40
0.1428571428571428
 40
0.1428571428571428
 40
0.1428571428571428
 40
0.2142857142857143
 40
0.2142857142857143
 40
0.2142857142857143
 40
0.2857142857142857
 40
0.2857142857142857
 40
0.2857142857142857
 40
0.3571428571428571
 40
0.3571428571428571
 40
0.3571428571428571
 40
0.4285714285714285
 40
0.4285714285714285
 40
0.4285714285714285
 40
0.5
 40
0.5
 40
0.5
 40
0.5714285714285714
 40
0.5714285714285714
 40
0.5714285714285714
 40
0.6428571428571428
 40
0.6428571428571428
 40
0.6428571428571428
 40
0.7142857142857142
 40
0.7142857142857142
 40
0.7142857142857142
 40
0.7857142857142857
 40
0.7857142857142857
 40
0.7857142857142857
 40
0.8571428571428571
 40
0.8571428571428571
 40
0.8571428571428571
 40
0.9285714285714285
 40
0.9285714285714285
 40
0.9285714285714285
 40
1.0
 40
1.0
 40
1.0
 40
1.0
 10
-181.7505
 20
-153.4913
 30
0.0
 10
-151.7427
 20
-177.7275
 30
0.0
 10
-125.2661
 20
-212.8849
 30
0.0
 10
-114.8451
 20
-254.2876
 30
0.0
 10
-106.6996
 20
-286.6723
 30
0.0
 10
-106.8958
 20
-312.021
 30
0.0
 10
-90.3617
 20
-334.3431
 30
0.0
 10
-83.8406
 20
-333.3548
 30
0.0
 10
-77.3117
 20
-332.3667
 30
0.0
 10
-70.7829
 20
-331.3728
 30
0.0
 10
-41.2145
 20
-313.7716
 30
0.0
 10
-47.4844
 20
-268.5911
 30
0.0
 10
-34.8817
 20
-235.0205
 30
0.0
 10
-22.5852
 20
-202.28
 30
0.0
 10
3.1459
 20
-174.8138
 30
0.0
 10
27.1349
 20
-152.0061
 30
0.0
 10
26.5856
 20
-150.521
 30
0.0
 10
26.0441
 20
-149.0415
 30
0.0
 10
25.5027
 20
-147.5564
 30
0.0
 10
3.2793
 20
-134.4839
 30
0.0
 10
-13.7806
 20
-116.9843
 30
0.0
 10
-25.0885
 20
-94.1936
 30
0.0
 10
-26.7207
 20
-88.2644
 30
0.0
 10
-28.3529
 20
-82.3296
 30
0.0
 10
-29.9851
 20
-76.406
 30
0.0
 10
-37.597
 20
-72.4532
 30
0.0
 10
-45.2166
 20
-68.5004
 30
0.0
 10
-52.8284
 20
-64.542
 30
0.0
 10
-63.4457
 20
-57.0712
 30
0.0
 10
-67.6125
 20
-45.3483
 30
0.0
 10
-78.9439
 20
-37.8662
 30
0.0
 10
-80.5762
 20
-38.8487
 30
0.0
 10
-82.2084
 20
-39.8426
 30
0.0
 10
-83.8406
 20
-40.8252
 30
0.0
 10
-92.8178
 20
-61.8597
 30
0.0
 10
-113.9034
 20
-62.2889
 30
0.0
 10
-126.2627
 20
-77.8855
 30
0.0
 10
-130.618
 20
-89.7439
 30
0.0
 10
-134.9732
 20
-101.6079
 30
0.0
 10
-139.3205
 20
-113.4607
 30
0.0
 10
-149.4827
 20
-128.6055
 30
0.0
 10
-175.4413
 20
-136.9403
 30
0.0
 10
-181.7505
 20
-153.4913
 30
0.0
  0
SPLINE
  5
90
330
1F
100
AcDbEntity
  8
Layer 1
 62
   250
370
    20
100
AcDbSpline
210
0.0
220
0.0
230
1.0
 70
    11
 71
     3
 72
    32
 73
    28
 74
     0
 42
0.0000000001
 43
0.0000000001
 40
0.0
 40
0.0
 40
0.0
 40
0.0
 40
0.1111111111111111
 40
0.1111111111111111
 40
0.1111111111111111
 40
0.2222222222222222
 40
0.2222222222222222
 40
0.2222222222222222
 40
0.3333333333333333
 40
0.3333333333333333
 40
0.3333333333333333
 40
0.4444444444444444
 40
0.4444444444444444
 40
0.4444444444444444
 40
0.5555555555555556
 40
0.5555555555555556
 40
0.5555555555555556
 40
0.6666666666666666
 40
0.6666666666666666
 40
0.6666666666666666
 40
0.7777777777777777
 40
0.7777777777777777
 40
0.7777777777777777
 40
0.8888888888888888
 40
0.8888888888888888
 40
0.8888888888888888
 40
1.0
 40
1.0
 40
1.0
 40
1.0
 10
-313.9371
 20
369.7972
 30
0.0
 10
-310.6726
 20
368.3121
 30
0.0
 10
-307.4081
 20
366.8326
 30
0.0
 10
-304.1437
 20
365.3475
 30
0.0
 10
-283.8586
 20
373.846
 30
0.0
 10
-261.4705
 20
381.7572
 30
0.0
 10
-237.2304
 20
387.5848
 30
0.0
 10
-194.9966
 20
397.7378
 30
0.0
 10
-147.8661
 20
381.7742
 30
0.0
 10
-131.1594
 20
414.2718
 30
0.0
 10
-118.2743
 20
437.6498
 30
0.0
 10
-145.7474
 20
457.5606
 30
0.0
 10
-142.5849
 20
473.5638
 30
0.0
 10
-135.8363
 20
488.8724
 30
0.0
 10
-95.3525
 20
518.9702
 30
0.0
 10
-116.4773
 20
543.2347
 30
0.0
 10
-135.8363
 20
586.0887
 30
0.0
 10
-170.0267
 20
553.2522
 30
0.0
 10
-191.5439
 20
544.7142
 30
0.0
 10
-215.6426
 20
535.1597
 30
0.0
 10
-239.4511
 20
554.551
 30
0.0
 10
-266.6104
 20
534.3409
 30
0.0
 10
-296.0611
 20
512.4255
 30
0.0
 10
-282.454
 20
473.1855
 30
0.0
 10
-292.7181
 20
432.0538
 30
0.0
 10
-298.3132
 20
409.6301
 30
0.0
 10
-305.1482
 20
388.4036
 30
0.0
 10
-313.9371
 20
369.7972
 30
0.0
  0
SPLINE
  5
91
330
1F
100
AcDbEntity
  8
Layer 1
 62
   250
370
    20
100
AcDbSpline
210
0.0
220
0.0
230
1.0
 70
    11
 71
     3
 72
    29
 73
    25
 74
     0
 42
0.0000000001
 43
0.0000000001
 40
0.0
 40
0.0
 40
0.0
 40
0.0
 40
0.125
 40
0.125
 40
0.125
 40
0.25
 40
0.25
 40
0.25
 40
0.375
 40
0.375
 40
0.375
 40
0.5
 40
0.5
 40
0.5
 40
0.625
 40
0.625
 40
0.625
 40
0.75
 40
0.75
 40
0.75
 40
0.875
 40
0.875
 40
0.875
 40
1.0
 40
1.0
 40
1.0
 40
1.0
 10
-320.4581
 20
-362.5039
 30
0.0
 10
-288.2688
 20
-401.1962
 30
0.0
 10
-304.3321
 20
-512.5974
 30
0.0
 10
-264.9782
 20
-535.9471
 30
0.0
 10
-246.0664
 20
-547.1674
 30
0.0
 10
-219.7154
 20
-536.8393
 30
0.0
 10
-196.4405
 20
-543.3558
 30
0.0
 10
-173.4481
 20
-549.7932
 30
0.0
 10
-149.5769
 20
-559.2178
 30
0.0
 10
-126.2627
 20
-543.3558
 30
0.0
 10
-92.3863
 20
-520.3109
 30
0.0
 10
-129.6606
 20
-480.8676
 30
0.0
 10
-136.0561
 20
-461.8265
 30
0.0
 10
-143.9818
 20
-438.2734
 30
0.0
 10
-124.4814
 20
-421.7902
 30
0.0
 10
-140.9527
 20
-402.5289
 30
0.0
 10
-164.5964
 20
-374.8875
 30
0.0
 10
-223.7567
 20
-388.1858
 30
0.0
 10
-266.6104
 20
-377.3325
 30
0.0
 10
-284.5178
 20
-372.7868
 30
0.0
 10
-295.5039
 20
-359.4321
 30
0.0
 10
-317.2015
 20
-358.0542
 30
0.0
 10
-318.2844
 20
-359.5393
 30
0.0
 10
-319.3752
 20
-361.0244
 30
0.0
 10
-320.4581
 20
-362.5039
 30
0.0
  0
SPLINE
  5
92
330
1F
100
AcDbEntity
  8
Layer 1
 62
   250
370
    20
100
AcDbSpline
210
0.0
220
0.0
230
1.0
 70
    11
 71
     3
 72
    20
 73
    16
 74
     0
 42
0.0000000001
 43
0.0000000001
 40
0.0
 40
0.0
 40
0.0
 40
0.0
 40
0.2
 40
0.2
 40
0.2
 40
0.4
 40
0.4
 40
0.4
 40
0.6000000000000001
 40
0.6000000000000001
 40
0.6000000000000001
 40
0.8
 40
0.8
 40
0.8
 40
1.0
 40
1.0
 40
1.0
 40
1.0
 10
-335.1481
 20
-267.6311
 30
0.0
 10
-303.9868
 20
-314.6525
 30
0.0
 10
-277.4631
 20
-356.3997
 30
0.0
 10
-188.2793
 20
-344.7164
 30
0.0
 10
-170.0581
 20
-342.3277
 30
0.0
 10
-156.9924
 20
-350.6512
 30
0.0
 10
-142.5849
 20
-344.7164
 30
0.0
 10
-142.5928
 20
-267.9135
 30
0.0
 10
-171.502
 20
-190.3031
 30
0.0
 10
-225.8127
 20
-162.3794
 30
0.0
 10
-247.526
 20
-164.7341
 30
0.0
 10
-258.6062
 20
-177.671
 30
0.0
 10
-273.1393
 20
-186.1018
 30
0.0
 10
-307.0629
 20
-205.7755
 30
0.0
 10
-336.5371
 20
-214.9347
 30
0.0
 10
-335.1481
 20
-267.6311
 30
0.0
  0
SPLINE
  5
93
330
1F
100
AcDbEntity
  8
Layer 1
 62
   250
370
    20
100
AcDbSpline
210
0.0
220
0.0
230
1.0
 70
    11
 71
     3
 72
    20
 73
    16
 74
     0
 42
0.0000000001
 43
0.0000000001
 40
0.0
 40
0.0
 40
0.0
 40
0.0
 40
0.2
 40
0.2
 40
0.2
 40
0.4
 40
0.4
 40
0.4
 40
0.6000000000000001
 40
0.6000000000000001
 40
0.6000000000000001
 40
0.8
 40
0.8
 40
0.8
 40
1.0
 40
1.0
 40
1.0
 40
1.0
 10
-338.4125
 20
248.2374
 30
0.0
 10
-315.02
 20
201.6734
 30
0.0
 10
-273.2649
 20
191.701
 30
0.0
 10
-230.7093
 20
163.7434
 30
0.0
 10
-197.2252
 20
171.0053
 30
0.0
 10
-153.524
 20
246.323
 30
0.0
 10
-149.1139
 20
283.8182
 30
0.0
 10
-147.3718
 20
298.6186
 30
0.0
 10
-137.4686
 20
343.5111
 30
0.0
 10
-147.4817
 20
349.0393
 30
0.0
 10
-164.3454
 20
348.5481
 30
0.0
 10
-181.209
 20
348.0568
 30
0.0
 10
-198.0727
 20
347.5599
 30
0.0
 10
-267.5835
 20
356.5327
 30
0.0
 10
-339.4954
 20
309.5452
 30
0.0
 10
-338.4125
 20
248.2374
 30
0.0
  0
SPLINE
  5
94
330
1F
100
AcDbEntity
  8
Layer 1
 62
   250
370
    20
100
AcDbSpline
210
0.0
220
0.0
230
1.0
 70
    11
 71
     3
 72
    41
 73
    37
 74
     0
 42
0.0000000001
 43
0.0000000001
 40
0.0
 40
0.0
 40
0.0
 40
0.0
 40
0.0833333333333333
 40
0.0833333333333333
 40
0.0833333333333333
 40
0.1666666666666667
 40
0.1666666666666667
 40
0.1666666666666667
 40
0.25
 40
0.25
 40
0.25
 40
0.3333333333333333
 40
0.3333333333333333
 40
0.3333333333333333
 40
0.4166666666666666
 40
0.4166666666666666
 40
0.4166666666666666
 40
0.5
 40
0.5
 40
0.5
 40
0.5833333333333333
 40
0.5833333333333333
 40
0.5833333333333333
 40
0.6666666666666666
 40
0.6666666666666666
 40
0.6666666666666666
 40
0.75
 40
0.75
 40
0.75
 40
0.8333333333333333
 40
0.8333333333333333
 40
0.8333333333333333
 40
0.9166666666666666
 40
0.9166666666666666
 40
0.9166666666666666
 40
1.0
 40
1.0
 40
1.0
 40
1.0
 10
-529.3435
 20
-0.8002
 30
0.0
 10
-493.4581
 20
-27.1428
 30
0.0
 10
-466.9266
 20
-45.7718
 30
0.0
 10
-408.5825
 20
-54.1687
 30
0.0
 10
-366.6861
 20
-60.1995
 30
0.0
 10
-320.309
 20
-38.6511
 30
0.0
 10
-286.1893
 20
-49.719
 30
0.0
 10
-228.4101
 20
-68.4722
 30
0.0
 10
-245.5328
 20
-94.8938
 30
0.0
 10
-212.7549
 20
-122.3601
 30
0.0
 10
-180.8245
 20
-116.0469
 30
0.0
 10
-171.1646
 20
-86.48
 30
0.0
 10
-165.4361
 20
-55.6481
 30
0.0
 10
-154.0105
 20
-52.1923
 30
0.0
 10
-142.5849
 20
-48.7364
 30
0.0
 10
-131.1594
 20
-45.2749
 30
0.0
 10
-108.2062
 20
-31.2143
 30
0.0
 10
-98.6169
 20
27.8406
 30
0.0
 10
-126.2627
 20
45.1538
 30
0.0
 10
-139.3205
 20
49.1066
 30
0.0
 10
-152.3783
 20
53.0595
 30
0.0
 10
-165.4361
 20
57.0066
 30
0.0
 10
-166.0639
 20
89.6906
 30
0.0
 10
-184.034
 20
111.9957
 30
0.0
 10
-207.8582
 20
123.7185
 30
0.0
 10
-215.9487
 20
122.9054
 30
0.0
 10
-217.3141
 20
122.4254
 30
0.0
 10
-220.916
 20
117.7893
 30
0.0
 10
-235.5589
 20
93.8353
 30
0.0
 10
-238.6664
 20
69.6273
 30
0.0
 10
-264.9782
 20
57.0066
 30
0.0
 10
-297.6148
 20
41.3592
 30
0.0
 10
-365.2265
 20
57.6391
 30
0.0
 10
-405.318
 20
58.4973
 30
0.0
 10
-454.0728
 20
59.5308
 30
0.0
 10
-511.5851
 20
28.9587
 30
0.0
 10
-529.3435
 20
-0.8002
 30
0.0
  0
SPLINE
  5
95
330
1F
100
AcDbEntity
  8
Layer 1
 62
   250
370
    20
100
AcDbSpline
210
0.0
220
0.0
230
1.0
 70
    11
 71
     3
 72
    35
 73
    31
 74
     0
 42
0.0000000001
 43
0.0000000001
 40
0.0
 40
0.0
 40
0.0
 40
0.0
 40
0.1
 40
0.1
 40
0.1
 40
0.2
 40
0.2
 40
0.2
 40
0.3
 40
0.3
 40
0.3
 40
0.4
 40
0.4
 40
0.4
 40
0.5
 40
0.5
 40
0.5
 40
0.6000000000000001
 40
0.6000000000000001
 40
0.6000000000000001
 40
0.7000000000000001
 40
0.7000000000000001
 40
0.7000000000000001
 40
0.8
 40
0.8
 40
0.8
 40
0.9
 40
0.9
 40
0.9
 40
1.0
 40
1.0
 40
1.0
 40
1.0
 10
-530.9757
 20
-442.5537
 30
0.0
 10
-507.999
 20
-466.5698
 30
0.0
 10
-486.4348
 20
-495.6794
 30
0.0
 10
-452.6447
 20
-509.2657
 30
0.0
 10
-430.0368
 20
-518.3514
 30
0.0
 10
-411.0778
 20
-514.5512
 30
0.0
 10
-384.1069
 20
-519.639
 30
0.0
 10
-341.0179
 20
-527.7648
 30
0.0
 10
-329.506
 20
-555.903
 30
0.0
 10
-309.0404
 20
-584.8601
 30
0.0
 10
-290.1992
 20
-588.8807
 30
0.0
 10
-208.9647
 20
-591.0435
 30
0.0
 10
-198.0727
 20
-580.4217
 30
0.0
 10
-199.1556
 20
-578.9366
 30
0.0
 10
-200.2464
 20
-577.4515
 30
0.0
 10
-201.3372
 20
-575.972
 30
0.0
 10
-241.2953
 20
-559.5114
 30
0.0
 10
-285.4752
 20
-573.1147
 30
0.0
 10
-313.9371
 20
-540.3968
 30
0.0
 10
-344.4785
 20
-505.2846
 30
0.0
 10
-326.9713
 20
-409.2486
 30
0.0
 10
-364.5203
 20
-363.989
 30
0.0
 10
-381.9333
 20
-342.994
 30
0.0
 10
-442.867
 20
-324.4328
 30
0.0
 10
-473.8557
 20
-347.6809
 30
0.0
 10
-490.3192
 20
-360.0306
 30
0.0
 10
-495.6553
 20
-378.637
 30
0.0
 10
-506.4923
 20
-396.6053
 30
0.0
 10
-514.9987
 20
-410.6885
 30
0.0
 10
-530.2851
 20
-422.2476
 30
0.0
 10
-530.9757
 20
-442.5537
 30
0.0
  0
SPLINE
  5
96
330
1F
100
AcDbEntity
  8
Layer 1
 62
   250
370
    20
100
AcDbSpline
210
0.0
220
0.0
230
1.0
 70
    11
 71
     3
 72
    35
 73
    31
 74
     0
 42
0.0000000001
 43
0.0000000001
 40
0.0
 40
0.0
 40
0.0
 40
0.0
 40
0.1
 40
0.1
 40
0.1
 40
0.2
 40
0.2
 40
0.2
 40
0.3
 40
0.3
 40
0.3
 40
0.4
 40
0.4
 40
0.4
 40
0.5
 40
0.5
 40
0.5
 40
0.6000000000000001
 40
0.6000000000000001
 40
0.6000000000000001
 40
0.7000000000000001
 40
0.7000000000000001
 40
0.7000000000000001
 40
0.8
 40
0.8
 40
0.8
 40
0.9
 40
0.9
 40
0.9
 40
1.0
 40
1.0
 40
1.0
 40
1.0
 10
-534.2401
 20
437.9886
 30
0.0
 10
-510.8553
 20
411.8662
 30
0.0
 10
-499.0689
 20
368.8428
 30
0.0
 10
-468.9669
 20
349.0393
 30
0.0
 10
-429.7308
 20
323.2388
 30
0.0
 10
-366.0662
 20
354.4095
 30
0.0
 10
-353.1025
 20
381.6556
 30
0.0
 10
-332.0327
 20
425.9213
 30
0.0
 10
-341.7162
 20
502.2046
 30
0.0
 10
-313.9371
 20
541.7552
 30
0.0
 10
-297.8502
 20
564.6476
 30
0.0
 10
-260.9604
 20
576.1897
 30
0.0
 10
-222.5483
 20
578.8155
 30
0.0
 10
-214.3401
 20
579.3746
 30
0.0
 10
-208.431
 20
574.3941
 30
0.0
 10
-199.7049
 20
577.3248
 30
0.0
 10
-196.982
 20
578.8155
 30
0.0
 10
-194.2668
 20
580.295
 30
0.0
 10
-191.5439
 20
581.7801
 30
0.0
 10
-192.0853
 20
582.7627
 30
0.0
 10
-192.6268
 20
583.7566
 30
0.0
 10
-193.1761
 20
584.7447
 30
0.0
 10
-209.8357
 20
589.6292
 30
0.0
 10
-293.2204
 20
591.8936
 30
0.0
 10
-309.0404
 20
583.2596
 30
0.0
 10
-340.9864
 20
512.0528
 30
0.0
 10
-377.4996
 20
536.9611
 30
0.0
 10
-449.3802
 20
510.6241
 30
0.0
 10
-481.5695
 20
498.8278
 30
0.0
 10
-519.4559
 20
466.1043
 30
0.0
 10
-534.2401
 20
437.9886
 30
0.0
  0
SPLINE
  5
97
330
1F
100
AcDbEntity
  8
Layer 1
 62
   250
370
    20
100
AcDbSpline
210
0.0
220
0.0
230
1.0
 70
    11
 71
     3
 72
    35
 73
    31
 74
     0
 42
0.0000000001
 43
0.0000000001
 40
0.0
 40
0.0
 40
0.0
 40
0.0
 40
0.1
 40
0.1
 40
0.1
 40
0.2
 40
0.2
 40
0.2
 40
0.3
 40
0.3
 40
0.3
 40
0.4
 40
0.4
 40
0.4
 40
0.5
 40
0.5
 40
0.5
 40
0.6000000000000001
 40
0.6000000000000001
 40
0.6000000000000001
 40
0.7000000000000001
 40
0.7000000000000001
 40
0.7000000000000001
 40
0.8
 40
0.8
 40
0.8
 40
0.9
 40
0.9
 40
0.9
 40
1.0
 40
1.0
 40
1.0
 40
1.0
 10
-575.0379
 20
65.9004
 30
0.0
 10
-567.3868
 20
51.3145
 30
0.0
 10
-563.3455
 20
41.585
 30
0.0
 10
-553.8189
 20
30.3309
 30
0.0
 10
-521.9435
 20
49.9254
 30
0.0
 10
-497.672
 20
76.8158
 30
0.0
 10
-454.2769
 20
86.6582
 30
0.0
 10
-403.6466
 20
98.1496
 30
0.0
 10
-334.6067
 20
77.8435
 30
0.0
 10
-279.6682
 20
88.1377
 30
0.0
 10
-269.1764
 20
100.7076
 30
0.0
 10
-257.9
 20
109.5506
 30
0.0
 10
-255.1849
 20
129.6421
 30
0.0
 10
-283.4819
 20
164.1161
 30
0.0
 10
-336.2074
 20
172.8461
 30
0.0
 10
-357.9914
 20
212.6621
 30
0.0
 10
-358.5407
 20
212.6621
 30
0.0
 10
-359.0822
 20
212.6621
 30
0.0
 10
-359.6314
 20
212.6621
 30
0.0
 10
-374.0154
 20
200.7698
 30
0.0
 10
-380.2305
 20
183.7616
 30
0.0
 10
-392.2681
 20
169.6727
 30
0.0
 10
-409.3044
 20
149.728
 30
0.0
 10
-438.2136
 20
130.89
 30
0.0
 10
-462.438
 20
117.7893
 30
0.0
 10
-494.0467
 20
100.6906
 30
0.0
 10
-539.176
 20
102.2774
 30
0.0
 10
-573.4056
 20
85.1788
 30
0.0
 10
-573.9471
 20
78.7583
 30
0.0
 10
-574.4964
 20
72.3321
 30
0.0
 10
-575.0379
 20
65.9004
 30
0.0
  0
SPLINE
  5
98
330
1F
100
AcDbEntity
  8
Layer 1
 62
   250
370
    20
100
AcDbSpline
210
0.0
220
0.0
230
1.0
 70
    11
 71
     3
 72
    32
 73
    28
 74
     0
 42
0.0000000001
 43
0.0000000001
 40
0.0
 40
0.0
 40
0.0
 40
0.0
 40
0.1111111111111111
 40
0.1111111111111111
 40
0.1111111111111111
 40
0.2222222222222222
 40
0.2222222222222222
 40
0.2222222222222222
 40
0.3333333333333333
 40
0.3333333333333333
 40
0.3333333333333333
 40
0.4444444444444444
 40
0.4444444444444444
 40
0.4444444444444444
 40
0.5555555555555556
 40
0.5555555555555556
 40
0.5555555555555556
 40
0.6666666666666666
 40
0.6666666666666666
 40
0.6666666666666666
 40
0.7777777777777777
 40
0.7777777777777777
 40
0.7777777777777777
 40
0.8888888888888888
 40
0.8888888888888888
 40
0.8888888888888888
 40
1.0
 40
1.0
 40
1.0
 40
1.0
 10
-576.6701
 20
-70.4768
 30
0.0
 10
-572.3698
 20
-77.6371
 30
0.0
 10
-571.1143
 20
-82.578
 30
0.0
 10
-563.6123
 20
-86.7793
 30
0.0
 10
-534.7737
 20
-101.1449
 30
0.0
 10
-487.2117
 20
-100.2978
 30
0.0
 10
-457.5413
 20
-116.4309
 30
0.0
 10
-410.0656
 20
-142.2371
 30
0.0
 10
-396.1367
 20
-180.6356
 30
0.0
 10
-359.6314
 20
-209.8129
 30
0.0
 10
-357.4499
 20
-208.3335
 30
0.0
 10
-355.2762
 20
-206.854
 30
0.0
 10
-353.1025
 20
-205.3745
 30
0.0
 10
-336.6077
 20
-155.7556
 30
0.0
 10
-241.7268
 20
-172.9955
 30
0.0
 10
-260.0815
 20
-103.0874
 30
0.0
 10
-319.3595
 20
-63.8361
 30
0.0
 10
-373.0189
 20
-103.8836
 30
0.0
 10
-446.1157
 20
-88.2644
 30
0.0
 10
-490.845
 20
-78.7043
 30
0.0
 10
-517.7688
 20
-47.5111
 30
0.0
 10
-548.9223
 20
-27.4873
 30
0.0
 10
-559.0922
 20
-29.2378
 30
0.0
 10
-560.4028
 20
-33.2527
 30
0.0
 10
-566.8767
 20
-37.8662
 30
0.0
 10
-570.8553
 20
-49.4592
 30
0.0
 10
-576.1365
 20
-54.8746
 30
0.0
 10
-576.6701
 20
-70.4768
 30
0.0
  0
SPLINE
  5
99
330
1F
100
AcDbEntity
  8
Layer 1
 62
   250
370
    20
100
AcDbSpline
210
0.0
220
0.0
230
1.0
 70
    11
 71
     3
 72
    23
 73
    19
 74
     0
 42
0.0000000001
 43
0.0000000001
 40
0.0
 40
0.0
 40
0.0
 40
0.0
 40
0.1666666666666667
 40
0.1666666666666667
 40
0.1666666666666667
 40
0.3333333333333333
 40
0.3333333333333333
 40
0.3333333333333333
 40
0.5
 40
0.5
 40
0.5
 40
0.6666666666666666
 40
0.6666666666666666
 40
0.6666666666666666
 40
0.8333333333333333
 40
0.8333333333333333
 40
0.8333333333333333
 40
1.0
 40
1.0
 40
1.0
 40
1.0
 10
-586.4555
 20
123.7185
 30
0.0
 10
-584.8233
 20
121.7422
 30
0.0
 10
-583.1911
 20
119.7657
 30
0.0
 10
-581.5667
 20
117.7893
 30
0.0
 10
-491.5748
 20
101.8878
 30
0.0
 10
-414.9073
 20
183.6712
 30
0.0
 10
-387.3635
 20
237.8584
 30
0.0
 10
-378.6217
 20
255.0757
 30
0.0
 10
-359.3411
 20
295.0893
 30
0.0
 10
-369.4169
 20
313.4642
 30
0.0
 10
-397.408
 20
312.7018
 30
0.0
 10
-420.8712
 20
301.9954
 30
0.0
 10
-441.2191
 20
294.1914
 30
0.0
 10
-521.8885
 20
263.2862
 30
0.0
 10
-542.6837
 20
252.6588
 30
0.0
 10
-570.1412
 20
172.6373
 30
0.0
 10
-575.5793
 20
156.3291
 30
0.0
 10
-581.0174
 20
140.0267
 30
0.0
 10
-586.4555
 20
123.7185
 30
0.0
  0
SPLINE
  5
9A
330
1F
100
AcDbEntity
  8
Layer 1
 62
   250
370
    20
100
AcDbSpline
210
0.0
220
0.0
230
1.0
 70
    11
 71
     3
 72
    23
 73
    19
 74
     0
 42
0.0000000001
 43
0.0000000001
 40
0.0
 40
0.0
 40
0.0
 40
0.0
 40
0.1666666666666667
 40
0.1666666666666667
 40
0.1666666666666667
 40
0.3333333333333333
 40
0.3333333333333333
 40
0.3333333333333333
 40
0.5
 40
0.5
 40
0.5
 40
0.6666666666666666
 40
0.6666666666666666
 40
0.6666666666666666
 40
0.8333333333333333
 40
0.8333333333333333
 40
0.8333333333333333
 40
1.0
 40
1.0
 40
1.0
 40
1.0
 10
-586.4555
 20
-129.7688
 30
0.0
 10
-579.9345
 20
-149.5328
 30
0.0
 10
-573.4056
 20
-169.3024
 30
0.0
 10
-566.8767
 20
-189.0664
 30
0.0
 10
-542.9898
 20
-248.8327
 30
0.0
 10
-509.7333
 20
-271.3411
 30
0.0
 10
-442.8513
 20
-292.833
 30
0.0
 10
-417.85
 20
-300.8685
 30
0.0
 10
-380.6385
 20
-321.2028
 30
0.0
 10
-364.5203
 20
-303.212
 30
0.0
 10
-375.7497
 20
-274.3735
 30
0.0
 10
-377.3269
 20
-243.6658
 30
0.0
 10
-392.2681
 20
-218.7181
 30
0.0
 10
-418.9172
 20
-174.1983
 30
0.0
 10
-504.915
 20
-102.6413
 30
0.0
 10
-583.1911
 20
-116.4309
 30
0.0
 10
-584.2819
 20
-120.875
 30
0.0
 10
-585.3726
 20
-125.3247
 30
0.0
 10
-586.4555
 20
-129.7688
 30
0.0
  0
SPLINE
  5
9B
330
1F
100
AcDbEntity
  8
Layer 1
 62
   250
370
    20
100
AcDbSpline
210
0.0
220
0.0
230
1.0
 70
    11
 71
     3
 72
    32
 73
    28
 74
     0
 42
0.0000000001
 43
0.0000000001
 40
0.0
 40
0.0
 40
0.0
 40
0.0
 40
0.1111111111111111
 40
0.1111111111111111
 40
0.1111111111111111
 40
0.2222222222222222
 40
0.2222222222222222
 40
0.2222222222222222
 40
0.3333333333333333
 40
0.3333333333333333
 40
0.3333333333333333
 40
0.4444444444444444
 40
0.4444444444444444
 40
0.4444444444444444
 40
0.5555555555555556
 40
0.5555555555555556
 40
0.5555555555555556
 40
0.6666666666666666
 40
0.6666666666666666
 40
0.6666666666666666
 40
0.7777777777777777
 40
0.7777777777777777
 40
0.7777777777777777
 40
0.8888888888888888
 40
0.8888888888888888
 40
0.8888888888888888
 40
1.0
 40
1.0
 40
1.0
 40
1.0
 10
-674.5799
 20
580.295
 30
0.0
 10
-660.2902
 20
568.414
 30
0.0
 10
-655.88
 20
547.7296
 30
0.0
 10
-641.9433
 20
535.8317
 30
0.0
 10
-626.7119
 20
531.8676
 30
0.0
 10
-611.4804
 20
527.9204
 30
0.0
 10
-596.2489
 20
523.9676
 30
0.0
 10
-575.2418
 20
514.0687
 30
0.0
 10
-569.9685
 20
492.5937
 30
0.0
 10
-552.1867
 20
480.9725
 30
0.0
 10
-534.0204
 20
488.1214
 30
0.0
 10
-523.6071
 20
506.2365
 30
0.0
 10
-508.1245
 20
516.5533
 30
0.0
 10
-489.095
 20
525.4471
 30
0.0
 10
-470.0498
 20
534.3409
 30
0.0
 10
-451.0124
 20
543.2347
 30
0.0
 10
-417.3478
 20
553.2579
 30
0.0
 10
-356.8064
 20
547.8595
 30
0.0
 10
-351.4703
 20
583.2596
 30
0.0
 10
-353.0947
 20
584.7447
 30
0.0
 10
-354.7269
 20
586.2298
 30
0.0
 10
-356.3591
 20
587.7093
 30
0.0
 10
-460.79
 20
587.2124
 30
0.0
 10
-565.2602
 20
586.7155
 30
0.0
 10
-669.6833
 20
586.2298
 30
0.0
 10
-671.3155
 20
584.2535
 30
0.0
 10
-672.9477
 20
582.2714
 30
0.0
 10
-674.5799
 20
580.295
 30
0.0
  0
SPLINE
  5
9C
330
1F
100
AcDbEntity
  8
Layer 1
 62
   250
370
    20
100
AcDbSpline
210
0.0
220
0.0
230
1.0
 70
    11
 71
     3
 72
    32
 73
    28
 74
     0
 42
0.0000000001
 43
0.0000000001
 40
0.0
 40
0.0
 40
0.0
 40
0.0
 40
0.1111111111111111
 40
0.1111111111111111
 40
0.1111111111111111
 40
0.2222222222222222
 40
0.2222222222222222
 40
0.2222222222222222
 40
0.3333333333333333
 40
0.3333333333333333
 40
0.3333333333333333
 40
0.4444444444444444
 40
0.4444444444444444
 40
0.4444444444444444
 40
0.5555555555555556
 40
0.5555555555555556
 40
0.5555555555555556
 40
0.6666666666666666
 40
0.6666666666666666
 40
0.6666666666666666
 40
0.7777777777777777
 40
0.7777777777777777
 40
0.7777777777777777
 40
0.8888888888888888
 40
0.8888888888888888
 40
0.8888888888888888
 40
1.0
 40
1.0
 40
1.0
 40
1.0
 10
-679.4766
 20
-146.0826
 30
0.0
 10
-647.0048
 20
-185.2661
 30
0.0
 10
-634.3865
 20
-228.9501
 30
0.0
 10
-622.3645
 20
-288.3889
 30
0.0
 10
-615.3726
 20
-322.9308
 30
0.0
 10
-646.6438
 20
-350.1825
 30
0.0
 10
-632.1578
 20
-378.8121
 30
0.0
 10
-625.4642
 20
-392.0201
 30
0.0
 10
-614.3054
 20
-400.0499
 30
0.0
 10
-597.8811
 20
-405.4934
 30
0.0
 10
-549.809
 20
-421.4288
 30
0.0
 10
-543.7745
 20
-379.1734
 30
0.0
 10
-526.079
 20
-353.6101
 30
0.0
 10
-516.835
 20
-342.2487
 30
0.0
 10
-507.5831
 20
-330.8816
 30
0.0
 10
-498.3391
 20
-319.52
 30
0.0
 10
-514.4887
 20
-293.33
 30
0.0
 10
-561.729
 20
-268.2749
 30
0.0
 10
-583.1911
 20
-236.5
 30
0.0
 10
-604.8259
 20
-204.4993
 30
0.0
 10
-603.9863
 20
-154.6658
 30
0.0
 10
-625.6211
 20
-123.8452
 30
0.0
 10
-644.2975
 20
-122.2528
 30
0.0
 10
-669.6676
 20
-130.2262
 30
0.0
 10
-679.4766
 20
-141.6328
 30
0.0
 10
-679.4766
 20
-143.1123
 30
0.0
 10
-679.4766
 20
-144.5918
 30
0.0
 10
-679.4766
 20
-146.0826
 30
0.0
  0
SPLINE
  5
9D
330
1F
100
AcDbEntity
  8
Layer 1
 62
   250
370
    20
100
AcDbSpline
210
0.0
220
0.0
230
1.0
 70
    11
 71
     3
 72
    32
 73
    28
 74
     0
 42
0.0000000001
 43
0.0000000001
 40
0.0
 40
0.0
 40
0.0
 40
0.0
 40
0.1111111111111111
 40
0.1111111111111111
 40
0.1111111111111111
 40
0.2222222222222222
 40
0.2222222222222222
 40
0.2222222222222222
 40
0.3333333333333333
 40
0.3333333333333333
 40
0.3333333333333333
 40
0.4444444444444444
 40
0.4444444444444444
 40
0.4444444444444444
 40
0.5555555555555556
 40
0.5555555555555556
 40
0.5555555555555556
 40
0.6666666666666666
 40
0.6666666666666666
 40
0.6666666666666666
 40
0.7777777777777777
 40
0.7777777777777777
 40
0.7777777777777777
 40
0.8888888888888888
 40
0.8888888888888888
 40
0.8888888888888888
 40
1.0
 40
1.0
 40
1.0
 40
1.0
 10
-681.1089
 20
142.9856
 30
0.0
 10
-671.8805
 20
135.7181
 30
0.0
 10
-646.1573
 20
120.0085
 30
0.0
 10
-632.1578
 20
123.7185
 30
0.0
 10
-628.8855
 20
124.7067
 30
0.0
 10
-625.6211
 20
125.6949
 30
0.0
 10
-622.3645
 20
126.6831
 30
0.0
 10
-608.7653
 20
181.2656
 30
0.0
 10
-595.527
 20
226.3897
 30
0.0
 10
-565.2445
 20
264.5454
 30
0.0
 10
-547.863
 20
286.4496
 30
0.0
 10
-513.7981
 20
298.6468
 30
0.0
 10
-498.3391
 20
320.8785
 30
0.0
 10
-507.5831
 20
330.7548
 30
0.0
 10
-516.835
 20
340.6425
 30
0.0
 10
-526.079
 20
350.5245
 30
0.0
 10
-536.7512
 20
365.5846
 30
0.0
 10
-538.3442
 20
391.8086
 30
0.0
 10
-553.8189
 20
402.4078
 30
0.0
 10
-578.4985
 20
419.2975
 30
0.0
 10
-613.913
 20
406.3211
 30
0.0
 10
-625.6211
 20
389.0699
 30
0.0
 10
-645.9925
 20
359.0569
 30
0.0
 10
-615.1764
 20
307.7552
 30
0.0
 10
-623.9889
 20
264.5454
 30
0.0
 10
-634.3237
 20
213.9101
 30
0.0
 10
-658.7834
 20
180.3226
 30
0.0
 10
-681.1089
 20
142.9856
 30
0.0
  0
SPLINE
  5
9E
330
1F
100
AcDbEntity
  8
Layer 1
 62
   250
370
    20
100
AcDbSpline
210
0.0
220
0.0
230
1.0
 70
    11
 71
     3
 72
    32
 73
    28
 74
     0
 42
0.0000000001
 43
0.0000000001
 40
0.0
 40
0.0
 40
0.0
 40
0.0
 40
0.1111111111111111
 40
0.1111111111111111
 40
0.1111111111111111
 40
0.2222222222222222
 40
0.2222222222222222
 40
0.2222222222222222
 40
0.3333333333333333
 40
0.3333333333333333
 40
0.3333333333333333
 40
0.4444444444444444
 40
0.4444444444444444
 40
0.4444444444444444
 40
0.5555555555555556
 40
0.5555555555555556
 40
0.5555555555555556
 40
0.6666666666666666
 40
0.6666666666666666
 40
0.6666666666666666
 40
0.7777777777777777
 40
0.7777777777777777
 40
0.7777777777777777
 40
0.8888888888888888
 40
0.8888888888888888
 40
0.8888888888888888
 40
1.0
 40
1.0
 40
1.0
 40
1.0
 10
-687.6377
 20
-581.9012
 30
0.0
 10
-671.9668
 20
-589.8294
 30
0.0
 10
-646.5418
 20
-582.8272
 30
0.0
 10
-620.7323
 20
-586.3452
 30
0.0
 10
-561.9879
 20
-586.3452
 30
0.0
 10
-503.2279
 20
-586.3452
 30
0.0
 10
-444.4835
 20
-586.3452
 30
0.0
 10
-414.8367
 20
-586.1476
 30
0.0
 10
-377.4368
 20
-591.7775
 30
0.0
 10
-351.4703
 20
-583.3807
 30
0.0
 10
-351.4703
 20
-580.913
 30
0.0
 10
-351.4703
 20
-578.4453
 30
0.0
 10
-351.4703
 20
-575.972
 30
0.0
 10
-381.4232
 20
-541.8481
 30
0.0
 10
-411.7213
 20
-559.9857
 30
0.0
 10
-452.6447
 20
-540.3968
 30
0.0
 10
-488.6163
 20
-523.1739
 30
0.0
 10
-519.8405
 20
-505.6743
 30
0.0
 10
-547.2979
 20
-481.0992
 30
0.0
 10
-554.6586
 20
-481.4154
 30
0.0
 10
-556.0946
 20
-482.1495
 30
0.0
 10
-560.3479
 20
-484.0638
 30
0.0
 10
-578.7339
 20
-524.083
 30
0.0
 10
-608.0668
 20
-511.8237
 30
0.0
 10
-641.9433
 20
-532.9825
 30
0.0
 10
-645.7649
 20
-535.3655
 30
0.0
 10
-682.1761
 20
-575.8139
 30
0.0
 10
-687.6377
 20
-581.9012
 30
0.0
  0
SPLINE
  5
9F
330
1F
100
AcDbEntity
  8
Layer 1
 62
   250
370
    20
100
AcDbSpline
210
0.0
220
0.0
230
1.0
 70
    11
 71
     3
 72
    38
 73
    34
 74
     0
 42
0.0000000001
 43
0.0000000001
 40
0.0
 40
0.0
 40
0.0
 40
0.0
 40
0.0909090909090909
 40
0.0909090909090909
 40
0.0909090909090909
 40
0.1818181818181818
 40
0.1818181818181818
 40
0.1818181818181818
 40
0.2727272727272727
 40
0.2727272727272727
 40
0.2727272727272727
 40
0.3636363636363636
 40
0.3636363636363636
 40
0.3636363636363636
 40
0.4545454545454546
 40
0.4545454545454546
 40
0.4545454545454546
 40
0.5454545454545454
 40
0.5454545454545454
 40
0.5454545454545454
 40
0.6363636363636364
 40
0.6363636363636364
 40
0.6363636363636364
 40
0.7272727272727273
 40
0.7272727272727273
 40
0.7272727272727273
 40
0.8181818181818182
 40
0.8181818181818182
 40
0.8181818181818182
 40
0.9090909090909092
 40
0.9090909090909092
 40
0.9090909090909092
 40
1.0
 40
1.0
 40
1.0
 40
1.0
 10
-847.5642
 20
454.2911
 30
0.0
 10
-809.0344
 20
435.2894
 30
0.0
 10
-774.0357
 20
430.9018
 30
0.0
 10
-756.1754
 20
393.514
 30
0.0
 10
-737.3264
 20
354.0538
 30
0.0
 10
-769.9787
 20
309.229
 30
0.0
 10
-762.7043
 20
266.0306
 30
0.0
 10
-755.7202
 20
224.5883
 30
0.0
 10
-741.713
 20
200.5779
 30
0.0
 10
-720.2743
 20
174.1167
 30
0.0
 10
-702.6181
 20
181.0906
 30
0.0
 10
-699.8166
 20
190.4926
 30
0.0
 10
-690.9022
 20
205.2478
 30
0.0
 10
-674.1875
 20
232.9287
 30
0.0
 10
-666.356
 20
280.1986
 30
0.0
 10
-674.5799
 20
322.3579
 30
0.0
 10
-678.5428
 20
342.6528
 30
0.0
 10
-683.8632
 20
370.3618
 30
0.0
 10
-677.8444
 20
390.5493
 30
0.0
 10
-664.8886
 20
434.0245
 30
0.0
 10
-619.8298
 20
431.3648
 30
0.0
 10
-586.4555
 20
455.7762
 30
0.0
 10
-602.9034
 20
501.2278
 30
0.0
 10
-629.5604
 20
483.7394
 30
0.0
 10
-669.6833
 20
498.7601
 30
0.0
 10
-676.22
 20
522.635
 30
0.0
 10
-689.0189
 20
545.1885
 30
0.0
 10
-720.2743
 20
546.205
 30
0.0
 10
-747.9437
 20
535.0806
 30
0.0
 10
-755.1317
 20
522.2849
 30
0.0
 10
-765.9688
 20
495.8011
 30
0.0
 10
-805.8641
 20
498.6132
 30
0.0
 10
-842.3693
 20
486.8791
 30
0.0
 10
-847.5642
 20
454.2911
 30
0.0
  0
SPLINE
  5
A0
330
1F
100
AcDbEntity
  8
Layer 1
 62
   250
370
    20
100
AcDbSpline
210
0.0
220
0.0
230
1.0
 70
    11
 71
     3
 72
    41
 73
    37
 74
     0
 42
0.0000000001
 43
0.0000000001
 40
0.0
 40
0.0
 40
0.0
 40
0.0
 40
0.0833333333333333
 40
0.0833333333333333
 40
0.0833333333333333
 40
0.1666666666666667
 40
0.1666666666666667
 40
0.1666666666666667
 40
0.25
 40
0.25
 40
0.25
 40
0.3333333333333333
 40
0.3333333333333333
 40
0.3333333333333333
 40
0.4166666666666666
 40
0.4166666666666666
 40
0.4166666666666666
 40
0.5
 40
0.5
 40
0.5
 40
0.5833333333333333
 40
0.5833333333333333
 40
0.5833333333333333
 40
0.6666666666666666
 40
0.6666666666666666
 40
0.6666666666666666
 40
0.75
 40
0.75
 40
0.75
 40
0.8333333333333333
 40
0.8333333333333333
 40
0.8333333333333333
 40
0.9166666666666666
 40
0.9166666666666666
 40
0.9166666666666666
 40
1.0
 40
1.0
 40
1.0
 40
1.0
 10
-847.5642
 20
-460.347
 30
0.0
 10
-827.0202
 20
-487.8641
 30
0.0
 10
-805.2128
 20
-489.9817
 30
0.0
 10
-764.3365
 20
-495.9222
 30
0.0
 10
-762.3825
 20
-523.7047
 30
0.0
 10
-741.4462
 20
-543.8244
 30
0.0
 10
-708.8487
 20
-543.3558
 30
0.0
 10
-681.2501
 20
-531.5086
 30
0.0
 10
-679.7669
 20
-519.1421
 30
0.0
 10
-666.4189
 20
-494.4427
 30
0.0
 10
-623.3768
 20
-496.9951
 30
0.0
 10
-597.3318
 20
-484.7922
 30
0.0
 10
-584.8233
 20
-455.8972
 30
0.0
 10
-605.4851
 20
-431.7908
 30
0.0
 10
-656.0134
 20
-440.0465
 30
0.0
 10
-674.5799
 20
-395.1201
 30
0.0
 10
-686.5705
 20
-366.1179
 30
0.0
 10
-675.0194
 20
-314.7485
 30
0.0
 10
-669.6833
 20
-288.3889
 30
0.0
 10
-663.9313
 20
-259.9288
 30
0.0
 10
-675.9296
 20
-235.5683
 30
0.0
 10
-684.3733
 20
-215.7478
 30
0.0
 10
-692.2362
 20
-197.2826
 30
0.0
 10
-695.4614
 20
-182.6064
 30
0.0
 10
-712.1133
 20
-172.7583
 30
0.0
 10
-750.6902
 20
-186.6496
 30
0.0
 10
-773.9337
 20
-250.3122
 30
0.0
 10
-762.7043
 20
-307.656
 30
0.0
 10
-758.8749
 20
-327.2111
 30
0.0
 10
-747.5199
 20
-358.4326
 30
0.0
 10
-756.1754
 20
-384.7412
 30
0.0
 10
-771.2186
 20
-430.4469
 30
0.0
 10
-807.2844
 20
-430.6558
 30
0.0
 10
-847.5642
 20
-452.9326
 30
0.0
 10
-847.5642
 20
-455.4003
 30
0.0
 10
-847.5642
 20
-457.8737
 30
0.0
 10
-847.5642
 20
-460.347
 30
0.0
  0
SPLINE
  5
A1
330
1F
100
AcDbEntity
  8
Layer 1
 62
   250
370
    20
100
AcDbSpline
210
0.0
220
0.0
230
1.0
 70
    11
 71
     3
 72
    38
 73
    34
 74
     0
 42
0.0000000001
 43
0.0000000001
 40
0.0
 40
0.0
 40
0.0
 40
0.0
 40
0.0909090909090909
 40
0.0909090909090909
 40
0.0909090909090909
 40
0.1818181818181818
 40
0.1818181818181818
 40
0.1818181818181818
 40
0.2727272727272727
 40
0.2727272727272727
 40
0.2727272727272727
 40
0.3636363636363636
 40
0.3636363636363636
 40
0.3636363636363636
 40
0.4545454545454546
 40
0.4545454545454546
 40
0.4545454545454546
 40
0.5454545454545454
 40
0.5454545454545454
 40
0.5454545454545454
 40
0.6363636363636364
 40
0.6363636363636364
 40
0.6363636363636364
 40
0.7272727272727273
 40
0.7272727272727273
 40
0.7272727272727273
 40
0.8181818181818182
 40
0.8181818181818182
 40
0.8181818181818182
 40
0.9090909090909092
 40
0.9090909090909092
 40
0.9090909090909092
 40
1.0
 40
1.0
 40
1.0
 40
1.0
 10
-852.4609
 20
-0.8002
 30
0.0
 10
-841.0353
 20
-15.6289
 30
0.0
 10
-829.6098
 20
-30.4519
 30
0.0
 10
-818.192
 20
-45.2749
 30
0.0
 10
-814.9197
 20
-58.6128
 30
0.0
 10
-811.6632
 20
-71.9563
 30
0.0
 10
-808.3987
 20
-85.2998
 30
0.0
 10
-807.2844
 20
-87.1181
 30
0.0
 10
-709.1391
 20
-113.5341
 30
0.0
 10
-708.8487
 20
-113.4607
 30
0.0
 10
-691.9851
 20
-109.2143
 30
0.0
 10
-640.7662
 20
-93.3127
 30
0.0
 10
-625.6211
 20
-85.2998
 30
0.0
 10
-617.4678
 20
-65.0389
 30
0.0
 10
-609.3067
 20
-44.778
 30
0.0
 10
-601.1456
 20
-24.5227
 30
0.0
 10
-593.8163
 20
-14.1381
 30
0.0
 10
-584.3603
 20
-12.7433
 30
0.0
 10
-581.5667
 20
3.6494
 30
0.0
 10
-595.5191
 20
18.7718
 30
0.0
 10
-610.5622
 20
39.1569
 30
0.0
 10
-619.1
 20
58.4973
 30
0.0
 10
-623.879
 20
69.3167
 30
0.0
 10
-621.8465
 20
81.2373
 30
0.0
 10
-627.2533
 20
89.6284
 30
0.0
 10
-653.8868
 20
96.3595
 30
0.0
 10
-687.5436
 20
111.5947
 30
0.0
 10
-708.8487
 20
116.3099
 30
0.0
 10
-715.9427
 20
117.8797
 30
0.0
 10
-800.0728
 20
91.283
 30
0.0
 10
-808.3987
 20
86.6582
 30
0.0
 10
-812.6127
 20
43.9793
 30
0.0
 10
-842.1575
 20
30.952
 30
0.0
 10
-852.4609
 20
-0.8002
 30
0.0
  0
SPLINE
  5
A2
330
1F
100
AcDbEntity
  8
Layer 1
 62
   250
370
    20
100
AcDbSpline
210
0.0
220
0.0
230
1.0
 70
    11
 71
     3
 72
    29
 73
    25
 74
     0
 42
0.0000000001
 43
0.0000000001
 40
0.0
 40
0.0
 40
0.0
 40
0.0
 40
0.125
 40
0.125
 40
0.125
 40
0.25
 40
0.25
 40
0.25
 40
0.375
 40
0.375
 40
0.375
 40
0.5
 40
0.5
 40
0.5
 40
0.625
 40
0.625
 40
0.625
 40
0.75
 40
0.75
 40
0.75
 40
0.875
 40
0.875
 40
0.875
 40
1.0
 40
1.0
 40
1.0
 40
1.0
 10
-934.0485
 20
319.399
 30
0.0
 10
-900.2819
 20
283.2365
 30
0.0
 10
-864.8438
 20
268.0691
 30
0.0
 10
-839.4031
 20
220.0765
 30
0.0
 10
-826.3689
 20
195.49
 30
0.0
 10
-820.8288
 20
141.4496
 30
0.0
 10
-803.5021
 20
122.2391
 30
0.0
 10
-787.3525
 20
126.6888
 30
0.0
 10
-762.72
 20
132.2057
 30
0.0
 10
-752.9109
 20
142.9856
 30
0.0
 10
-764.3365
 20
160.2876
 30
0.0
 10
-775.7621
 20
177.5782
 30
0.0
 10
-787.1798
 20
194.8746
 30
0.0
 10
-800.4573
 20
222.7757
 30
0.0
 10
-804.3182
 20
255.646
 30
0.0
 10
-811.6632
 20
288.2679
 30
0.0
 10
-820.2088
 20
326.2204
 30
0.0
 10
-790.4364
 20
353.8956
 30
0.0
 10
-805.1343
 20
386.0997
 30
0.0
 10
-812.8324
 20
402.9781
 30
0.0
 10
-856.1962
 20
423.0244
 30
0.0
 10
-875.3042
 20
402.4078
 30
0.0
 10
-884.1401
 20
398.3703
 30
0.0
 10
-929.2303
 20
329.9134
 30
0.0
 10
-934.0485
 20
319.399
 30
0.0
  0
SPLINE
  5
A3
330
1F
100
AcDbEntity
  8
Layer 1
 62
   250
370
    20
100
AcDbSpline
210
0.0
220
0.0
230
1.0
 70
    11
 71
     3
 72
    26
 73
    22
 74
     0
 42
0.0000000001
 43
0.0000000001
 40
0.0
 40
0.0
 40
0.0
 40
0.0
 40
0.1428571428571428
 40
0.1428571428571428
 40
0.1428571428571428
 40
0.2857142857142857
 40
0.2857142857142857
 40
0.2857142857142857
 40
0.4285714285714285
 40
0.4285714285714285
 40
0.4285714285714285
 40
0.5714285714285714
 40
0.5714285714285714
 40
0.5714285714285714
 40
0.7142857142857142
 40
0.7142857142857142
 40
0.7142857142857142
 40
0.8571428571428571
 40
0.8571428571428571
 40
0.8571428571428571
 40
1.0
 40
1.0
 40
1.0
 40
1.0
 10
-934.0485
 20
-320.9996
 30
0.0
 10
-911.5976
 20
-340.2045
 30
0.0
 10
-892.8898
 20
-398.48
 30
0.0
 10
-867.1431
 20
-406.9786
 30
0.0
 10
-837.3707
 20
-416.8097
 30
0.0
 10
-808.8067
 20
-395.3742
 30
0.0
 10
-801.8698
 20
-378.8121
 30
0.0
 10
-789.6988
 20
-349.7759
 30
0.0
 10
-816.2695
 20
-311.5918
 30
0.0
 10
-811.6632
 20
-285.4187
 30
0.0
 10
-799.9865
 20
-219.2093
 30
0.0
 10
-779.5916
 20
-189.3262
 30
0.0
 10
-751.2787
 20
-143.1123
 30
0.0
 10
-758.5609
 20
-131.7508
 30
0.0
 10
-792.8063
 20
-118.6389
 30
0.0
 10
-808.3987
 20
-125.3247
 30
0.0
 10
-822.0372
 20
-177.4903
 30
0.0
 10
-838.1554
 20
-223.6139
 30
0.0
 10
-867.1431
 20
-261.7019
 30
0.0
 10
-882.8532
 20
-282.3468
 30
0.0
 10
-926.1543
 20
-296.5204
 30
0.0
 10
-934.0485
 20
-320.9996
 30
0.0
  0
SPLINE
  5
A4
330
1F
100
AcDbEntity
  8
Layer 1
 62
   250
370
    20
100
AcDbSpline
210
0.0
220
0.0
230
1.0
 70
    11
 71
     3
 72
    26
 73
    22
 74
     0
 42
0.0000000001
 43
0.0000000001
 40
0.0
 40
0.0
 40
0.0
 40
0.0
 40
0.1428571428571428
 40
0.1428571428571428
 40
0.1428571428571428
 40
0.2857142857142857
 40
0.2857142857142857
 40
0.2857142857142857
 40
0.4285714285714285
 40
0.4285714285714285
 40
0.4285714285714285
 40
0.5714285714285714
 40
0.5714285714285714
 40
0.5714285714285714
 40
0.7142857142857142
 40
0.7142857142857142
 40
0.7142857142857142
 40
0.8571428571428571
 40
0.8571428571428571
 40
0.8571428571428571
 40
1.0
 40
1.0
 40
1.0
 40
1.0
 10
-1069.4995
 20
301.6001
 30
0.0
 10
-1059.7062
 20
273.9362
 30
0.0
 10
-1049.9129
 20
246.2553
 30
0.0
 10
-1040.1195
 20
218.5913
 30
0.0
 10
-1013.8156
 20
176.4715
 30
0.0
 10
-932.432
 20
106.9248
 30
0.0
 10
-854.0853
 20
119.2688
 30
0.0
 10
-853.5438
 20
120.7596
 30
0.0
 10
-853.0024
 20
122.2391
 30
0.0
 10
-852.4609
 20
123.7185
 30
0.0
 10
-843.5229
 20
145.7526
 30
0.0
 10
-864.7889
 20
182.203
 30
0.0
 10
-872.0397
 20
197.8392
 30
0.0
 10
-904.1192
 20
267.0414
 30
0.0
 10
-971.7545
 20
303.0118
 30
0.0
 10
-1064.6029
 20
314.9436
 30
0.0
 10
-1065.6937
 20
313.9611
 30
0.0
 10
-1066.7766
 20
312.9673
 30
0.0
 10
-1067.8673
 20
311.9847
 30
0.0
 10
-1068.4088
 20
308.5288
 30
0.0
 10
-1068.9502
 20
305.0616
 30
0.0
 10
-1069.4995
 20
301.6001
 30
0.0
  0
SPLINE
  5
A5
330
1F
100
AcDbEntity
  8
Layer 1
 62
   250
370
    20
100
AcDbSpline
210
0.0
220
0.0
230
1.0
 70
    11
 71
     3
 72
    23
 73
    19
 74
     0
 42
0.0000000001
 43
0.0000000001
 40
0.0
 40
0.0
 40
0.0
 40
0.0
 40
0.1666666666666667
 40
0.1666666666666667
 40
0.1666666666666667
 40
0.3333333333333333
 40
0.3333333333333333
 40
0.3333333333333333
 40
0.5
 40
0.5
 40
0.5
 40
0.6666666666666666
 40
0.6666666666666666
 40
0.6666666666666666
 40
0.8333333333333333
 40
0.8333333333333333
 40
0.8333333333333333
 40
1.0
 40
1.0
 40
1.0
 40
1.0
 10
-1069.4995
 20
-304.6971
 30
0.0
 10
-1068.4088
 20
-307.1591
 30
0.0
 10
-1067.318
 20
-309.6324
 30
0.0
 10
-1066.2351
 20
-312.1001
 30
0.0
 10
-1062.4291
 20
-312.1001
 30
0.0
 10
-1058.6233
 20
-312.1001
 30
0.0
 10
-1054.8095
 20
-312.1001
 30
0.0
 10
-954.0903
 20
-279.6363
 30
0.0
 10
-898.8144
 20
-271.4032
 30
0.0
 10
-862.2542
 20
-178.6931
 30
0.0
 10
-857.899
 20
-160.9056
 30
0.0
 10
-853.5438
 20
-143.1123
 30
0.0
 10
-849.1965
 20
-125.3247
 30
0.0
 10
-852.4531
 20
-121.8688
 30
0.0
 10
-855.7175
 20
-118.4073
 30
0.0
 10
-858.9819
 20
-114.9514
 30
0.0
 10
-988.83
 20
-130.0794
 30
0.0
 10
-1042.4737
 20
-195.8144
 30
0.0
 10
-1069.4995
 20
-304.6971
 30
0.0
  0
SPLINE
  5
A6
330
1F
100
AcDbEntity
  8
Layer 1
 62
   250
370
    20
100
AcDbSpline
210
0.0
220
0.0
230
1.0
 70
    11
 71
     3
 72
    35
 73
    31
 74
     0
 42
0.0000000001
 43
0.0000000001
 40
0.0
 40
0.0
 40
0.0
 40
0.0
 40
0.1
 40
0.1
 40
0.1
 40
0.2
 40
0.2
 40
0.2
 40
0.3
 40
0.3
 40
0.3
 40
0.4
 40
0.4
 40
0.4
 40
0.5
 40
0.5
 40
0.5
 40
0.6000000000000001
 40
0.6000000000000001
 40
0.6000000000000001
 40
0.7000000000000001
 40
0.7000000000000001
 40
0.7000000000000001
 40
0.8
 40
0.8
 40
0.8
 40
0.9
 40
0.9
 40
0.9
 40
1.0
 40
1.0
 40
1.0
 40
1.0
 10
-1082.5495
 20
-581.9012
 30
0.0
 10
-1080.3758
 20
-583.3807
 30
0.0
 10
-1078.2021
 20
-584.8601
 30
0.0
 10
-1076.0284
 20
-586.3452
 30
0.0
 10
-991.1764
 20
-586.3452
 30
0.0
 10
-906.3007
 20
-586.3452
 30
0.0
 10
-821.4487
 20
-586.3452
 30
0.0
 10
-800.5358
 20
-589.9479
 30
0.0
 10
-756.3951
 20
-588.4346
 30
0.0
 10
-748.0143
 20
-581.9012
 30
0.0
 10
-748.5636
 20
-580.4217
 30
0.0
 10
-749.1051
 20
-578.9366
 30
0.0
 10
-749.6465
 20
-577.4515
 30
0.0
 10
-765.49
 20
-564.7404
 30
0.0
 10
-774.9931
 20
-545.2926
 30
0.0
 10
-790.4443
 20
-532.9825
 30
0.0
 10
-802.4113
 20
-530.5092
 30
0.0
 10
-814.3861
 20
-528.0415
 30
0.0
 10
-826.3453
 20
-525.5682
 30
0.0
 10
-849.8321
 20
-518.6451
 30
0.0
 10
-865.1028
 20
-499.0562
 30
0.0
 10
-876.9364
 20
-481.0992
 30
0.0
 10
-880.2009
 20
-480.6022
 30
0.0
 10
-883.4653
 20
-480.1109
 30
0.0
 10
-886.7219
 20
-479.614
 30
0.0
 10
-916.047
 20
-500.6316
 30
0.0
 10
-938.7569
 20
-527.5954
 30
0.0
 10
-978.1107
 20
-540.3968
 30
0.0
 10
-1016.8054
 20
-552.9724
 30
0.0
 10
-1071.3671
 20
-544.2536
 30
0.0
 10
-1082.5495
 20
-581.9012
 30
0.0
  0
SPLINE
  5
A7
330
1F
100
AcDbEntity
  8
Layer 1
 62
   250
370
    20
100
AcDbSpline
210
0.0
220
0.0
230
1.0
 70
    11
 71
     3
 72
    35
 73
    31
 74
     0
 42
0.0000000001
 43
0.0000000001
 40
0.0
 40
0.0
 40
0.0
 40
0.0
 40
0.1
 40
0.1
 40
0.1
 40
0.2
 40
0.2
 40
0.2
 40
0.3
 40
0.3
 40
0.3
 40
0.4
 40
0.4
 40
0.4
 40
0.5
 40
0.5
 40
0.5
 40
0.6000000000000001
 40
0.6000000000000001
 40
0.6000000000000001
 40
0.7000000000000001
 40
0.7000000000000001
 40
0.7000000000000001
 40
0.8
 40
0.8
 40
0.8
 40
0.9
 40
0.9
 40
0.9
 40
1.0
 40
1.0
 40
1.0
 40
1.0
 10
-1084.1817
 20
580.295
 30
0.0
 10
-1078.2021
 20
573.8745
 30
0.0
 10
-1072.2147
 20
567.4484
 30
0.0
 10
-1066.2351
 20
561.0223
 30
0.0
 10
-1036.8629
 20
554.6018
 30
0.0
 10
-1007.4829
 20
548.1757
 30
0.0
 10
-978.1107
 20
541.7552
 30
0.0
 10
-939.1492
 20
528.4795
 30
0.0
 10
-915.9685
 20
503.5656
 30
0.0
 10
-886.7219
 20
482.4632
 30
0.0
 10
-882.3746
 20
483.9371
 30
0.0
 10
-878.0271
 20
485.4222
 30
0.0
 10
-873.6719
 20
486.9073
 30
0.0
 10
-867.3942
 20
503.3171
 30
0.0
 10
-846.8658
 20
521.0256
 30
0.0
 10
-829.6098
 20
526.9266
 30
0.0
 10
-818.192
 20
529.3999
 30
0.0
 10
-806.7665
 20
531.8676
 30
0.0
 10
-795.3409
 20
534.3409
 30
0.0
 10
-792.0529
 20
536.6109
 30
0.0
 10
-771.0773
 20
576.2462
 30
0.0
 10
-767.601
 20
581.7801
 30
0.0
 10
-769.2253
 20
583.7566
 30
0.0
 10
-770.8654
 20
585.7329
 30
0.0
 10
-772.4976
 20
587.7093
 30
0.0
 10
-874.2055
 20
587.7093
 30
0.0
 10
-975.9528
 20
587.7093
 30
0.0
 10
-1077.6606
 20
587.7093
 30
0.0
 10
-1079.8344
 20
585.236
 30
0.0
 10
-1082.008
 20
582.7627
 30
0.0
 10
-1084.1817
 20
580.295
 30
0.0
  0
SPLINE
  5
A8
330
1F
100
AcDbEntity
  8
Layer 1
 62
   250
370
    20
100
AcDbSpline
210
0.0
220
0.0
230
1.0
 70
    11
 71
     3
 72
    35
 73
    31
 74
     0
 42
0.0000000001
 43
0.0000000001
 40
0.0
 40
0.0
 40
0.0
 40
0.0
 40
0.1
 40
0.1
 40
0.1
 40
0.2
 40
0.2
 40
0.2
 40
0.3
 40
0.3
 40
0.3
 40
0.4
 40
0.4
 40
0.4
 40
0.5
 40
0.5
 40
0.5
 40
0.6000000000000001
 40
0.6000000000000001
 40
0.6000000000000001
 40
0.7000000000000001
 40
0.7000000000000001
 40
0.7000000000000001
 40
0.8
 40
0.8
 40
0.8
 40
0.9
 40
0.9
 40
0.9
 40
1.0
 40
1.0
 40
1.0
 40
1.0
 10
-1177.2027
 20
123.7185
 30
0.0
 10
-1168.4767
 20
110.4484
 30
0.0
 10
-1165.7223
 20
97.2348
 30
0.0
 10
-1151.095
 20
89.6284
 30
0.0
 10
-1119.6119
 20
73.2526
 30
0.0
 10
-1031.8643
 20
97.7938
 30
0.0
 10
-987.9041
 20
89.6284
 30
0.0
 10
-942.6648
 20
81.2147
 30
0.0
 10
-916.816
 20
55.081
 30
0.0
 10
-886.7219
 20
33.2898
 30
0.0
 10
-882.3746
 20
33.7867
 30
0.0
 10
-878.0271
 20
34.2836
 30
0.0
 10
-873.6719
 20
34.7692
 30
0.0
 10
-867.7316
 20
46.2945
 30
0.0
 10
-847.0227
 20
74.0205
 30
0.0
 10
-867.1431
 20
86.6582
 30
0.0
 10
-919.7745
 20
106.4561
 30
0.0
 10
-959.9052
 20
101.8483
 30
0.0
 10
-1000.9618
 20
134.0918
 30
0.0
 10
-1016.1933
 20
147.9266
 30
0.0
 10
-1031.4247
 20
161.767
 30
0.0
 10
-1046.6562
 20
175.6018
 30
0.0
 10
-1056.1357
 20
187.6917
 30
0.0
 10
-1060.3496
 20
203.294
 30
0.0
 10
-1072.764
 20
212.6621
 30
0.0
 10
-1074.3962
 20
211.6683
 30
0.0
 10
-1076.0284
 20
210.6858
 30
0.0
 10
-1077.6606
 20
209.6975
 30
0.0
 10
-1096.392
 20
170.2543
 30
0.0
 10
-1170.4384
 20
168.7409
 30
0.0
 10
-1177.2027
 20
123.7185
 30
0.0
  0
SPLINE
  5
A9
330
1F
100
AcDbEntity
  8
Layer 1
 62
   250
370
    20
100
AcDbSpline
210
0.0
220
0.0
230
1.0
 70
    11
 71
     3
 72
    32
 73
    28
 74
     0
 42
0.0000000001
 43
0.0000000001
 40
0.0
 40
0.0
 40
0.0
 40
0.0
 40
0.1111111111111111
 40
0.1111111111111111
 40
0.1111111111111111
 40
0.2222222222222222
 40
0.2222222222222222
 40
0.2222222222222222
 40
0.3333333333333333
 40
0.3333333333333333
 40
0.3333333333333333
 40
0.4444444444444444
 40
0.4444444444444444
 40
0.4444444444444444
 40
0.5555555555555556
 40
0.5555555555555556
 40
0.5555555555555556
 40
0.6666666666666666
 40
0.6666666666666666
 40
0.6666666666666666
 40
0.7777777777777777
 40
0.7777777777777777
 40
0.7777777777777777
 40
0.8888888888888888
 40
0.8888888888888888
 40
0.8888888888888888
 40
1.0
 40
1.0
 40
1.0
 40
1.0
 10
-1177.2027
 20
-126.8042
 30
0.0
 10
-1155.1049
 20
-154.5698
 30
0.0
 10
-1127.6946
 20
-160.4877
 30
0.0
 10
-1098.8717
 20
-181.6521
 30
0.0
 10
-1090.1691
 20
-191.0428
 30
0.0
 10
-1081.4666
 20
-200.4335
 30
0.0
 10
-1072.764
 20
-209.8129
 30
0.0
 10
-1059.8082
 20
-203.3586
 30
0.0
 10
-1056.6379
 20
-186.4632
 30
0.0
 10
-1048.2807
 20
-175.7229
 30
0.0
 10
-1027.25
 20
-148.6801
 30
0.0
 10
-987.9747
 20
-120.5362
 30
0.0
 10
-953.6352
 20
-106.052
 30
0.0
 10
-935.2256
 20
-98.2875
 30
0.0
 10
-868.9165
 20
-90.365
 30
0.0
 10
-860.622
 20
-77.8855
 30
0.0
 10
-851.4329
 20
-58.8274
 30
0.0
 10
-869.1127
 20
-40.0007
 30
0.0
 10
-876.9364
 20
-30.4519
 30
0.0
 10
-880.2009
 20
-30.4519
 30
0.0
 10
-883.4653
 20
-30.4519
 30
0.0
 10
-886.7219
 20
-30.4519
 30
0.0
 10
-907.6112
 20
-55.0891
 30
0.0
 10
-948.8327
 20
-81.4317
 30
0.0
 10
-987.9041
 20
-88.2644
 30
0.0
 10
-1072.5207
 20
-103.0592
 30
0.0
 10
-1148.4662
 20
-49.3915
 30
0.0
 10
-1177.2027
 20
-126.8042
 30
0.0
  0
SPLINE
  5
AA
330
1F
100
AcDbEntity
  8
Layer 1
 62
   250
370
    20
100
AcDbSpline
210
0.0
220
0.0
230
1.0
 70
    11
 71
     3
 72
    32
 73
    28
 74
     0
 42
0.0000000001
 43
0.0000000001
 40
0.0
 40
0.0
 40
0.0
 40
0.0
 40
0.1111111111111111
 40
0.1111111111111111
 40
0.1111111111111111
 40
0.2222222222222222
 40
0.2222222222222222
 40
0.2222222222222222
 40
0.3333333333333333
 40
0.3333333333333333
 40
0.3333333333333333
 40
0.4444444444444444
 40
0.4444444444444444
 40
0.4444444444444444
 40
0.5555555555555556
 40
0.5555555555555556
 40
0.5555555555555556
 40
0.6666666666666666
 40
0.6666666666666666
 40
0.6666666666666666
 40
0.7777777777777777
 40
0.7777777777777777
 40
0.7777777777777777
 40
0.8888888888888888
 40
0.8888888888888888
 40
0.8888888888888888
 40
1.0
 40
1.0
 40
1.0
 40
1.0
 10
-1195.1572
 20
-581.9012
 30
0.0
 10
-1175.8373
 20
-584.6681
 30
0.0
 10
-1150.1534
 20
-588.6209
 30
0.0
 10
-1128.2439
 20
-584.8601
 30
0.0
 10
-1112.4867
 20
-572.0926
 30
0.0
 10
-1108.8926
 20
-546.4784
 30
0.0
 10
-1090.7106
 20
-535.9471
 30
0.0
 10
-1062.696
 20
-519.718
 30
0.0
 10
-1027.2187
 20
-521.7791
 30
0.0
 10
-991.1685
 20
-510.7451
 30
0.0
 10
-954.1688
 20
-499.4288
 30
0.0
 10
-920.0098
 20
-467.0837
 30
0.0
 10
-899.7797
 20
-439.5891
 30
0.0
 10
-902.5105
 20
-424.2015
 30
0.0
 10
-918.1265
 20
-411.8236
 30
0.0
 10
-925.8953
 20
-399.5699
 30
0.0
 10
-955.2282
 20
-353.2544
 30
0.0
 10
-995.6415
 20
-308.4409
 30
0.0
 10
-1062.9706
 20
-358.0542
 30
0.0
 10
-1109.3635
 20
-392.2459
 30
0.0
 10
-1084.0561
 20
-469.9861
 30
0.0
 10
-1108.665
 20
-519.639
 30
0.0
 10
-1118.1837
 20
-538.8496
 30
0.0
 10
-1136.4834
 20
-559.8107
 30
0.0
 10
-1157.6161
 20
-568.5576
 30
0.0
 10
-1170.1324
 20
-573.0074
 30
0.0
 10
-1182.6408
 20
-577.4515
 30
0.0
 10
-1195.1572
 20
-581.9012
 30
0.0
  0
SPLINE
  5
AB
330
1F
100
AcDbEntity
  8
Layer 1
 62
   250
370
    20
100
AcDbSpline
210
0.0
220
0.0
230
1.0
 70
    11
 71
     3
 72
    32
 73
    28
 74
     0
 42
0.0000000001
 43
0.0000000001
 40
0.0
 40
0.0
 40
0.0
 40
0.0
 40
0.1111111111111111
 40
0.1111111111111111
 40
0.1111111111111111
 40
0.2222222222222222
 40
0.2222222222222222
 40
0.2222222222222222
 40
0.3333333333333333
 40
0.3333333333333333
 40
0.3333333333333333
 40
0.4444444444444444
 40
0.4444444444444444
 40
0.4444444444444444
 40
0.5555555555555556
 40
0.5555555555555556
 40
0.5555555555555556
 40
0.6666666666666666
 40
0.6666666666666666
 40
0.6666666666666666
 40
0.7777777777777777
 40
0.7777777777777777
 40
0.7777777777777777
 40
0.8888888888888888
 40
0.8888888888888888
 40
0.8888888888888888
 40
1.0
 40
1.0
 40
1.0
 40
1.0
 10
-1200.046
 20
577.3248
 30
0.0
 10
-1162.7089
 20
575.1959
 30
0.0
 10
-1132.6618
 20
560.5592
 30
0.0
 10
-1116.8262
 20
538.7906
 30
0.0
 10
-1078.1315
 20
485.5972
 30
0.0
 10
-1119.2745
 20
389.3579
 30
0.0
 10
-1049.9129
 20
352.0096
 30
0.0
 10
-982.921
 20
315.9318
 30
0.0
 10
-948.6601
 20
360.9486
 30
0.0
 10
-925.8953
 20
402.4078
 30
0.0
 10
-919.9235
 20
413.2836
 30
0.0
 10
-898.7438
 20
428.5697
 30
0.0
 10
-903.0441
 20
442.4327
 30
0.0
 10
-919.4291
 20
476.2574
 30
0.0
 10
-964.8881
 20
506.5584
 30
0.0
 10
-1007.4829
 20
516.5533
 30
0.0
 10
-1038.911
 20
523.9225
 30
0.0
 10
-1066.2194
 20
523.2843
 30
0.0
 10
-1089.0783
 20
537.3055
 30
0.0
 10
-1108.1079
 20
548.9832
 30
0.0
 10
-1112.5259
 20
573.0671
 30
0.0
 10
-1128.2439
 20
587.7093
 30
0.0
 10
-1148.3328
 20
588.0142
 30
0.0
 10
-1176.3317
 20
590.4989
 30
0.0
 10
-1200.046
 20
589.8721
 30
0.0
 10
-1200.046
 20
589.8721
 30
0.0
 10
-1200.046
 20
577.3248
 30
0.0
 10
-1200.046
 20
577.3248
 30
0.0
  0
SPLINE
  5
AC
330
1F
100
AcDbEntity
  8
Layer 1
 62
   250
370
    20
100
AcDbSpline
210
0.0
220
0.0
230
1.0
 70
    11
 71
     3
 72
    14
 73
    10
 74
     0
 42
0.0000000001
 43
0.0000000001
 40
0.0
 40
0.0
 40
0.0
 40
0.0
 40
0.3333333333333333
 40
0.3333333333333333
 40
0.3333333333333333
 40
0.6666666666666666
 40
0.6666666666666666
 40
0.6666666666666666
 40
1.0
 40
1.0
 40
1.0
 40
1.0
 10
-1200.046
 20
-339.1881
 30
0.0
 10
-1143.5695
 20
-333.225
 30
0.0
 10
-1101.1945
 20
-306.0862
 30
0.0
 10
-1093.9751
 20
-257.2578
 30
0.0
 10
-1089.3609
 20
-226.0251
 30
0.0
 10
-1162.4107
 20
-174.4919
 30
0.0
 10
-1200.046
 20
-165.6094
 30
0.0
 10
-1200.046
 20
-165.6094
 30
0.0
 10
-1200.046
 20
-339.1881
 30
0.0
 10
-1200.046
 20
-339.1881
 30
0.0
  0
SPLINE
  5
AD
330
1F
100
AcDbEntity
  8
Layer 1
 62
   250
370
    20
100
AcDbSpline
210
0.0
220
0.0
230
1.0
 70
    11
 71
     3
 72
    23
 73
    19
 74
     0
 42
0.0000000001
 43
0.0000000001
 40
0.0
 40
0.0
 40
0.0
 40
0.0
 40
0.1666666666666667
 40
0.1666666666666667
 40
0.1666666666666667
 40
0.3333333333333333
 40
0.3333333333333333
 40
0.3333333333333333
 40
0.5
 40
0.5
 40
0.5
 40
0.6666666666666666
 40
0.6666666666666666
 40
0.6666666666666666
 40
0.8333333333333333
 40
0.8333333333333333
 40
0.8333333333333333
 40
1.0
 40
1.0
 40
1.0
 40
1.0
 10
-1200.046
 20
-547.4441
 30
0.0
 10
-1184.3672
 20
-542.2321
 30
0.0
 10
-1167.0014
 20
-533.886
 30
0.0
 10
-1159.2483
 20
-524.083
 30
0.0
 10
-1135.5025
 20
-494.0474
 30
0.0
 10
-1150.7183
 20
-453.5143
 30
0.0
 10
-1138.0372
 20
-411.4226
 30
0.0
 10
-1132.0498
 20
-396.6053
 30
0.0
 10
-1126.0702
 20
-381.7766
 30
0.0
 10
-1120.0906
 20
-366.948
 30
0.0
 10
-1122.8057
 20
-365.4685
 30
0.0
 10
-1125.5288
 20
-363.989
 30
0.0
 10
-1128.2439
 20
-362.5039
 30
0.0
 10
-1149.1881
 20
-372.3069
 30
0.0
 10
-1173.2477
 20
-380.828
 30
0.0
 10
-1200.046
 20
-386.1868
 30
0.0
 10
-1200.046
 20
-386.1868
 30
0.0
 10
-1200.046
 20
-547.4441
 30
0.0
 10
-1200.046
 20
-547.4441
 30
0.0
  0
SPLINE
  5
AE
330
1F
100
AcDbEntity
  8
Layer 1
 62
   250
370
    20
100
AcDbSpline
210
0.0
220
0.0
230
1.0
 70
    11
 71
     3
 72
    26
 73
    22
 74
     0
 42
0.0000000001
 43
0.0000000001
 40
0.0
 40
0.0
 40
0.0
 40
0.0
 40
0.1428571428571428
 40
0.1428571428571428
 40
0.1428571428571428
 40
0.2857142857142857
 40
0.2857142857142857
 40
0.2857142857142857
 40
0.4285714285714285
 40
0.4285714285714285
 40
0.4285714285714285
 40
0.5714285714285714
 40
0.5714285714285714
 40
0.5714285714285714
 40
0.7142857142857142
 40
0.7142857142857142
 40
0.7142857142857142
 40
0.8571428571428571
 40
0.8571428571428571
 40
0.8571428571428571
 40
1.0
 40
1.0
 40
1.0
 40
1.0
 10
-1200.046
 20
382.1469
 30
0.0
 10
-1200.046
 20
382.1469
 30
0.0
 10
-1198.4216
 20
383.1407
 30
0.0
 10
-1198.4216
 20
383.1407
 30
0.0
 10
-1162.858
 20
383.7618
 30
0.0
 10
-1150.632
 20
371.079
 30
0.0
 10
-1124.9795
 20
365.3475
 30
0.0
 10
-1123.3472
 20
367.3239
 30
0.0
 10
-1121.715
 20
369.3003
 30
0.0
 10
-1120.0906
 20
371.2823
 30
0.0
 10
-1126.0702
 20
385.1115
 30
0.0
 10
-1132.0498
 20
398.9463
 30
0.0
 10
-1138.0372
 20
412.7811
 30
0.0
 10
-1152.6409
 20
457.7639
 30
0.0
 10
-1132.7796
 20
507.1231
 30
0.0
 10
-1167.4094
 20
534.3409
 30
0.0
 10
-1178.7486
 20
543.2573
 30
0.0
 10
-1189.3031
 20
545.0135
 30
0.0
 10
-1200.046
 20
544.8949
 30
0.0
 10
-1200.046
 20
544.8949
 30
0.0
 10
-1200.046
 20
382.1469
 30
0.0
 10
-1200.046
 20
382.1469
 30
0.0
  0
SPLINE
  5
AF
330
1F
100
AcDbEntity
  8
Layer 1
 62
   250
370
    20
100
AcDbSpline
210
0.0
220
0.0
230
1.0
 70
    11
 71
     3
 72
    17
 73
    13
 74
     0
 42
0.0000000001
 43
0.0000000001
 40
0.0
 40
0.0
 40
0.0
 40
0.0
 40
0.25
 40
0.25
 40
0.25
 40
0.5
 40
0.5
 40
0.5
 40
0.75
 40
0.75
 40
0.75
 40
1.0
 40
1.0
 40
1.0
 40
1.0
 10
-1200.046
 20
160.7845
 30
0.0
 10
-1171.898
 20
197.8843
 30
0.0
 10
-1091.0088
 20
198.1497
 30
0.0
 10
-1095.6073
 20
260.0957
 30
0.0
 10
-1097.4279
 20
284.5748
 30
0.0
 10
-1115.2253
 20
306.1515
 30
0.0
 10
-1131.5083
 20
317.9139
 30
0.0
 10
-1150.6713
 20
331.7543
 30
0.0
 10
-1177.7206
 20
340.9813
 30
0.0
 10
-1200.046
 20
351.8684
 30
0.0
 10
-1200.046
 20
351.8684
 30
0.0
 10
-1200.046
 20
160.7845
 30
0.0
 10
-1200.046
 20
160.7845
 30
0.0
  0
SPLINE
  5
B0
330
1F
100
AcDbEntity
  8
Layer 1
 62
   250
370
    20
100
AcDbSpline
210
0.0
220
0.0
230
1.0
 70
    11
 71
     3
 72
    29
 73
    25
 74
     0
 42
0.0000000001
 43
0.0000000001
 40
0.0
 40
0.0
 40
0.0
 40
0.0
 40
0.125
 40
0.125
 40
0.125
 40
0.25
 40
0.25
 40
0.25
 40
0.375
 40
0.375
 40
0.375
 40
0.5
 40
0.5
 40
0.5
 40
0.625
 40
0.625
 40
0.625
 40
0.75
 40
0.75
 40
0.75
 40
0.875
 40
0.875
 40
0.875
 40
1.0
 40
1.0
 40
1.0
 40
1.0
 10
-1200.046
 20
-90.8959
 30
0.0
 10
-1190.3626
 20
-72.5153
 30
0.0
 10
-1178.2935
 20
-57.6924
 30
0.0
 10
-1154.3594
 20
-49.719
 30
0.0
 10
-1114.3778
 20
-36.415
 30
0.0
 10
-1068.0635
 20
-60.6513
 30
0.0
 10
-1022.1729
 20
-54.1687
 30
0.0
 10
-970.9697
 20
-46.9294
 30
0.0
 10
-936.8029
 20
-29.3677
 30
0.0
 10
-907.9408
 20
-2.2854
 30
0.0
 10
-908.4822
 20
0.1823
 30
0.0
 10
-909.0315
 20
2.6556
 30
0.0
 10
-909.573
 20
5.1289
 30
0.0
 10
-922.6151
 20
28.6142
 30
0.0
 10
-975.4583
 20
50.0779
 30
0.0
 10
-1007.4829
 20
55.5271
 30
0.0
 10
-1074.3962
 20
66.9168
 30
0.0
 10
-1154.2653
 20
29.0433
 30
0.0
 10
-1186.9961
 20
71.8352
 30
0.0
 10
-1190.8256
 20
76.844
 30
0.0
 10
-1196.1616
 20
90.1593
 30
0.0
 10
-1200.046
 20
105.2533
 30
0.0
 10
-1200.046
 20
105.2533
 30
0.0
 10
-1200.046
 20
-90.8959
 30
0.0
 10
-1200.046
 20
-90.8959
 30
0.0
  0
ENDSEC
  0
SECTION
  2
OBJECTS
  0
DICTIONARY
  5
C
330
0
100
AcDbDictionary
281
     1
  3
ACAD_DETAILVIEWSTYLE
350
B8
  3
ACAD_GROUP
350
D
  3
ACAD_LAYOUT
350
1A
  3
ACAD_MATERIAL
350
43
  3
ACAD_MLEADERSTYLE
350
5B
  3
ACAD_MLINESTYLE
350
17
  3
ACAD_PLOTSETTINGS
350
19
  3
ACAD_PLOTSTYLENAME
350
E
  3
ACAD_SCALELIST
350
47
  3
ACAD_SECTIONVIEWSTYLE
350
B9
  3
ACAD_TABLESTYLE
350
59
  3
ACAD_VISUALSTYLE
350
2A
  3
ACDB_RECOMPOSE_DATA
350
B5
  3
AcDbVariableDictionary
350
B1
  0
SUN
  5
5D
330
29
100
AcDbSun
 90
        1
290
     0
 63
     7
421
 16777215
 40
1.0
291
     1
 91
  2455826
 92
 54000000
292
     0
 70
     2
 71
   256
280
     1
  0
DICTIONARY
  5
B8
102
{ACAD_REACTORS
330
C
102
}
330
C
100
AcDbDictionary
281
     1
  0
DICTIONARY
  5
D
102
{ACAD_REACTORS
330
C
102
}
330
C
100
AcDbDictionary
281
     1
  0
DICTIONARY
  5
1A
102
{ACAD_REACTORS
330
C
102
}
330
C
100
AcDbDictionary
281
     1
  3
Layout1
350
1E
  3
Layout2
350
26
  3
Model
350
22
  0
DICTIONARY
  5
43
102
{ACAD_REACTORS
330
C
102
}
330
C
100
AcDbDictionary
281
     1
  3
ByBlock
350
45
  3
ByLayer
350
44
  3
Global
350
46
  0
DICTIONARY
  5
5B
102
{ACAD_REACTORS
330
C
102
}
330
C
100
AcDbDictionary
281
     1
  3
Standard
350
5C
  0
DICTIONARY
  5
17
102
{ACAD_REACTORS
330
C
102
}
330
C
100
AcDbDictionary
281
     1
  3
Standard
350
18
  0
DICTIONARY
  5
19
102
{ACAD_REACTORS
330
C
102
}
330
C
100
AcDbDictionary
281
     1
  0
ACDBDICTIONARYWDFLT
  5
E
102
{ACAD_REACTORS
330
C
102
}
330
C
100
AcDbDictionary
281
     1
  3
Normal
350
F
100
AcDbDictionaryWithDefault
340
F
  0
DICTIONARY
  5
47
102
{ACAD_REACTORS
330
C
102
}
330
C
100
AcDbDictionary
281
     1
  3
A0
350
48
  3
A1
350
49
  3
A2
350
4A
  3
A3
350
4B
  3
A4
350
4C
  3
A5
350
4D
  3
A6
350
4E
  3
A7
350
4F
  3
A8
350
50
  3
A9
350
51
  3
B1
350
52
  3
B2
350
53
  3
B3
350
54
  3
B4
350
55
  3
B5
350
56
  3
B6
350
57
  3
B7
350
58
  0
DICTIONARY
  5
B9
102
{ACAD_REACTORS
330
C
102
}
330
C
100
AcDbDictionary
281
     1
  0
DICTIONARY
  5
59
102
{ACAD_REACTORS
330
C
102
}
330
C
100
AcDbDictionary
281
     1
  3
Standard
350
5A
  0
DICTIONARY
  5
2A
102
{ACAD_REACTORS
330
C
102
}
330
C
100
AcDbDictionary
281
     1
  3
2dWireframe
350
2F
  3
Basic
350
32
  3
Brighten
350
36
  3
ColorChange
350
3A
  3
Conceptual
350
34
  3
Dim
350
35
  3
EdgeColorOff
350
3D
  3
Facepattern
350
39
  3
Flat
350
2B
  3
FlatWithEdges
350
2C
  3
Gouraud
350
2D
  3
GouraudWithEdges
350
2E
  3
Hidden
350
31
  3
JitterOff
350
3B
  3
Linepattern
350
38
  3
OverhangOff
350
3C
  3
Realistic
350
33
  3
Shaded
350
42
  3
Shaded with edges
350
41
  3
Shades of Gray
350
3E
  3
Sketchy
350
3F
  3
Thicken
350
37
  3
Wireframe
350
30
  3
X-Ray
350
40
  0
XRECORD
  5
B5
102
{ACAD_REACTORS
330
C
102
}
330
C
100
AcDbXrecord
280
     1
 90
        1
330
5A
  0
DICTIONARY
  5
B1
102
{ACAD_REACTORS
330
C
102
}
330
C
100
AcDbDictionary
281
     1
  3
CANNOSCALE
350
B2
  3
CMLEADERSTYLE
350
B7
  3
CTABLESTYLE
350
B6
  0
LAYOUT
  5
1E
102
{ACAD_REACTORS
330
1A
102
}
330
1A
100
AcDbPlotSettings
  1

  2
none_device
  4

  6

 40
0.0
 41
0.0
 42
0.0
 43
0.0
 44
0.0
 45
0.0
 46
0.0
 47
0.0
 48
0.0
 49
0.0
140
0.0
141
0.0
142
1.0
143
1.0
 70
   688
 72
     0
 73
     0
 74
     5
  7

 75
    16
 76
     0
 77
     2
 78
   300
147
1.0
148
0.0
149
0.0
100
AcDbLayout
  1
Layout1
 70
     1
 71
     1
 10
0.0
 20
0.0
 11
12.0
 21
9.0
 12
0.0
 22
0.0
 32
0.0
 14
1.000000000000000E+20
 24
1.000000000000000E+20
 34
1.000000000000000E+20
 15
-1.000000000000000E+20
 25
-1.000000000000000E+20
 35
-1.000000000000000E+20
146
0.0
 13
0.0
 23
0.0
 33
0.0
 16
1.0
 26
0.0
 36
0.0
 17
0.0
 27
1.0
 37
0.0
 76
     0
330
1B
  0
LAYOUT
  5
26
102
{ACAD_REACTORS
330
1A
102
}
330
1A
100
AcDbPlotSettings
  1

  2
none_device
  4

  6

 40
0.0
 41
0.0
 42
0.0
 43
0.0
 44
0.0
 45
0.0
 46
0.0
 47
0.0
 48
0.0
 49
0.0
140
0.0
141
0.0
142
1.0
143
1.0
 70
   688
 72
     0
 73
     0
 74
     5
  7

 75
    16
 76
     0
 77
     2
 78
   300
147
1.0
148
0.0
149
0.0
100
AcDbLayout
  1
Layout2
 70
     1
 71
     2
 10
0.0
 20
0.0
 11
0.0
 21
0.0
 12
0.0
 22
0.0
 32
0.0
 14
0.0
 24
0.0
 34
0.0
 15
0.0
 25
0.0
 35
0.0
146
0.0
 13
0.0
 23
0.0
 33
0.0
 16
1.0
 26
0.0
 36
0.0
 17
0.0
 27
1.0
 37
0.0
 76
     0
330
23
  0
LAYOUT
  5
22
102
{ACAD_REACTORS
330
1A
102
}
330
1A
100
AcDbPlotSettings
  1

  2
none_device
  4
Letter_(8.50_x_11.00_Inches)
  6

 40
6.35
 41
6.35
 42
6.35000508
 43
6.35000508
 44
215.9
 45
279.4
 46
0.0
 47
0.0
 48
0.0
 49
0.0
140
0.0
141
0.0
142
1.0
143
1.0
 70
  1712
 72
     0
 73
     0
 74
     0
  7

 75
     0
 76
     0
 77
     2
 78
   300
147
1.0
148
0.0
149
0.0
100
AcDbLayout
  1
Model
 70
     1
 71
     0
 10
0.0
 20
0.0
 11
12.0
 21
9.0
 12
0.0
 22
0.0
 32
0.0
 14
-1200.146
 24
-590.1248
 34
0.0
 15
1200.0462
 25
590.0716
 35
0.0
146
0.0
 13
0.0
 23
0.0
 33
0.0
 16
1.0
 26
0.0
 36
0.0
 17
0.0
 27
1.0
 37
0.0
 76
     0
330
1F
331
29
  0
MATERIAL
  5
45
102
{ACAD_REACTORS
330
43
102
}
330
43
100
AcDbMaterial
  1
ByBlock
 72
     1
 94
      127
  0
MATERIAL
  5
44
102
{ACAD_REACTORS
330
43
102
}
330
43
100
AcDbMaterial
  1
ByLayer
 72
     1
 94
      127
  0
MATERIAL
  5
46
102
{ACAD_REACTORS
330
43
102
}
330
43
100
AcDbMaterial
  1
Global
 72
     1
 94
      127
  0
MLEADERSTYLE
  5
5C
102
{ACAD_REACTORS
330
5B
102
}
330
5B
100
AcDbMLeaderStyle
179
     2
170
     2
171
     1
172
     0
 90
        2
 40
0.0
 41
0.0
173
     1
 91
-1056964608
340
14
 92
       -2
290
     1
 42
0.09
291
     1
 43
0.36
  3
Standard
341
0
 44
0.18
300

342
11
174
     1
178
     6
175
     1
176
     0
 93
-1056964608
 45
0.18
292
     0
297
     0
 46
0.18
343
0
 94
-1056964608
 47
1.0
 49
1.0
140
1.0
293
     1
141
0.0
294
     1
177
     0
142
1.0
295
     0
296
     0
143
0.125
271
     0
272
     9
273
     9
298
     0
  0
MLINESTYLE
  5
18
102
{ACAD_REACTORS
330
17
102
}
330
17
100
AcDbMlineStyle
  2
Standard
 70
     0
  3

 62
   256
 51
90.0
 52
90.0
 71
     2
 49
0.5
 62
   256
  6
BYLAYER
 49
-0.5
 62
   256
  6
BYLAYER
  0
ACDBPLACEHOLDER
  5
F
102
{ACAD_REACTORS
330
E
102
}
330
E
  0
SCALE
  5
48
102
{ACAD_REACTORS
330
47
102
}
330
47
100
AcDbScale
 70
     0
300
1:1
140
1.0
141
1.0
290
     1
  0
SCALE
  5
49
102
{ACAD_REACTORS
330
47
102
}
330
47
100
AcDbScale
 70
     0
300
1/128" = 1'-0"
140
0.0078125
141
12.0
290
     0
  0
SCALE
  5
4A
102
{ACAD_REACTORS
330
47
102
}
330
47
100
AcDbScale
 70
     0
300
1/64" = 1'-0"
140
0.015625
141
12.0
290
     0
  0
SCALE
  5
4B
102
{ACAD_REACTORS
330
47
102
}
330
47
100
AcDbScale
 70
     0
300
1/32" = 1'-0"
140
0.03125
141
12.0
290
     0
  0
SCALE
  5
4C
102
{ACAD_REACTORS
330
47
102
}
330
47
100
AcDbScale
 70
     0
300
1/16" = 1'-0"
140
0.0625
141
12.0
290
     0
  0
SCALE
  5
4D
102
{ACAD_REACTORS
330
47
102
}
330
47
100
AcDbScale
 70
     0
300
3/32" = 1'-0"
140
0.09375
141
12.0
290
     0
  0
SCALE
  5
4E
102
{ACAD_REACTORS
330
47
102
}
330
47
100
AcDbScale
 70
     0
300
1/8" = 1'-0"
140
0.125
141
12.0
290
     0
  0
SCALE
  5
4F
102
{ACAD_REACTORS
330
47
102
}
330
47
100
AcDbScale
 70
     0
300
3/16" = 1'-0"
140
0.1875
141
12.0
290
     0
  0
SCALE
  5
50
102
{ACAD_REACTORS
330
47
102
}
330
47
100
AcDbScale
 70
     0
300
1/4" = 1'-0"
140
0.25
141
12.0
290
     0
  0
SCALE
  5
51
102
{ACAD_REACTORS
330
47
102
}
330
47
100
AcDbScale
 70
     0
300
3/8" = 1'-0"
140
0.375
141
12.0
290
     0
  0
SCALE
  5
52
102
{ACAD_REACTORS
330
47
102
}
330
47
100
AcDbScale
 70
     0
300
1/2" = 1'-0"
140
0.5
141
12.0
290
     0
  0
SCALE
  5
53
102
{ACAD_REACTORS
330
47
102
}
330
47
100
AcDbScale
 70
     0
300
3/4" = 1'-0"
140
0.75
141
12.0
290
     0
  0
SCALE
  5
54
102
{ACAD_REACTORS
330
47
102
}
330
47
100
AcDbScale
 70
     0
300
1" = 1'-0"
140
1.0
141
12.0
290
     0
  0
SCALE
  5
55
102
{ACAD_REACTORS
330
47
102
}
330
47
100
AcDbScale
 70
     0
300
1-1/2" = 1'-0"
140
1.5
141
12.0
290
     0
  0
SCALE
  5
56
102
{ACAD_REACTORS
330
47
102
}
330
47
100
AcDbScale
 70
     0
300
3" = 1'-0"
140
3.0
141
12.0
290
     0
  0
SCALE
  5
57
102
{ACAD_REACTORS
330
47
102
}
330
47
100
AcDbScale
 70
     0
300
6" = 1'-0"
140
6.0
141
12.0
290
     0
  0
SCALE
  5
58
102
{ACAD_REACTORS
330
47
102
}
330
47
100
AcDbScale
 70
     0
300
1'-0" = 1'-0"
140
12.0
141
12.0
290
     0
  0
TABLESTYLE
  5
5A
102
{ACAD_REACTORS
330
59
102
}
102
{ACAD_XDICTIONARY
360
B3
102
}
330
59
100
AcDbTableStyle
  3
Standard
 70
     0
 71
     0
 40
0.06
 41
0.06
280
     0
281
     0
  7
Standard
140
0.18
170
     2
 62
     0
 63
   257
283
     0
 90
        4
 91
        0
  1

274
    -2
284
     1
 64
     0
275
    -2
285
     1
 65
     0
276
    -2
286
     1
 66
     0
277
    -2
287
     1
 67
     0
278
    -2
288
     1
 68
     0
279
    -2
289
     1
 69
     0
  7
Standard
140
0.25
170
     5
 62
     0
 63
   257
283
     0
 90
        4
 91
        0
  1

274
    -2
284
     1
 64
     0
275
    -2
285
     1
 65
     0
276
    -2
286
     1
 66
     0
277
    -2
287
     1
 67
     0
278
    -2
288
     1
 68
     0
279
    -2
289
     1
 69
     0
  7
Standard
140
0.18
170
     5
 62
     0
 63
   257
283
     0
 90
        4
 91
        0
  1

274
    -2
284
     1
 64
     0
275
    -2
285
     1
 65
     0
276
    -2
286
     1
 66
     0
277
    -2
287
     1
 67
     0
278
    -2
288
     1
 68
     0
279
    -2
289
     1
 69
     0
  0
VISUALSTYLE
  5
2F
102
{ACAD_REACTORS
330
2A
102
}
330
2A
100
AcDbVisualStyle
  2
2dWireframe
 70
     4
177
     3
291
     0
 70
    58
 90
        0
176
     1
 90
        2
176
     1
 90
        0
176
     1
 90
        0
176
     1
 40
0.6
176
     1
 40
30.0
176
     1
 62
     7
420
 16777215
176
     1
 90
        1
176
     1
 90
        4
176
     1
 62
     7
176
     1
 62
   257
176
     1
 90
        1
176
     1
 90
        1
176
     1
 40
1.0
176
     1
 90
        0
176
     1
 62
   257
176
     1
 40
1.0
176
     1
 90
        1
176
     1
 90
        6
176
     1
 90
        2
176
     1
 62
     7
176
     1
 90
        5
176
     1
 90
        0
176
     1
 90
        0
176
     1
290
     0
176
     1
 90
        1
176
     1
 40
0.0
176
     1
 90
        0
176
     1
290
     1
176
     1
290
     1
176
     1
290
     0
176
     1
290
     0
176
     1
290
     0
176
     1
290
     0
176
     1
290
     0
176
     1
290
     0
176
     1
290
     0
176
     1
 90
       50
176
     1
 40
0.0
176
     1
 40
1.0
176
     1
 90
        0
176
     1
 62
    18
420
        0
176
     1
 90
       50
176
     1
 90
        3
176
     1
 62
     5
420
      255
176
     1
290
     0
176
     1
 90
       50
176
     1
 90
       50
176
     1
 90
       50
176
     1
290
     0
176
     1
 90
       50
176
     1
 62
   256
176
     0
 40
1.0
176
     0
 90
        2
176
     1
  1
strokes_ogs.tif
176
     1
290
     0
176
     1
 40
1.0
176
     1
 40
1.0
176
     1
  0
VISUALSTYLE
  5
32
102
{ACAD_REACTORS
330
2A
102
}
330
2A
100
AcDbVisualStyle
  2
Basic
 70
     7
177
     3
291
     1
 70
    58
 90
        1
176
     1
 90
        0
176
     1
 90
        1
176
     1
 90
        0
176
     1
 40
0.6
176
     1
 40
30.0
176
     1
 62
     7
420
 16777215
176
     1
 90
        0
176
     1
 90
        4
176
     1
 62
     7
176
     1
 62
   257
176
     1
 90
        1
176
     1
 90
        1
176
     1
 40
1.0
176
     1
 90
        8
176
     1
 62
     7
176
     1
 40
1.0
176
     1
 90
        1
176
     1
 90
        6
176
     1
 90
        2
176
     1
 62
     7
176
     1
 90
        5
176
     1
 90
        0
176
     1
 90
        0
176
     1
290
     0
176
     1
 90
        1
176
     1
 40
0.0
176
     1
 90
        0
176
     1
290
     0
176
     1
290
     1
176
     1
290
     1
176
     1
290
     0
176
     1
290
     0
176
     1
290
     0
176
     1
290
     0
176
     1
290
     0
176
     1
290
     0
176
     1
 90
       50
176
     1
 40
0.0
176
     1
 40
1.0
176
     1
 90
        0
176
     1
 62
    18
420
        0
176
     1
 90
       50
176
     1
 90
        3
176
     1
 62
     5
420
      255
176
     1
290
     0
176
     1
 90
       50
176
     1
 90
       50
176
     1
 90
       50
176
     1
290
     0
176
     1
 90
       50
176
     1
 62
   256
176
     0
 40
1.0
176
     0
 90
        2
176
     1
  1
strokes_ogs.tif
176
     1
290
     0
176
     1
 40
1.0
176
     1
 40
1.0
176
     1
  0
VISUALSTYLE
  5
36
102
{ACAD_REACTORS
330
2A
102
}
330
2A
100
AcDbVisualStyle
  2
Brighten
 70
    12
177
     3
291
     1
 70
    58
 90
        2
176
     1
 90
        2
176
     1
 90
        0
176
     1
 90
        0
176
     1
 40
0.6
176
     1
 40
30.0
176
     1
 62
     7
420
 16777215
176
     1
 90
        1
176
     1
 90
        4
176
     1
 62
     7
176
     1
 62
   257
176
     1
 90
        1
176
     1
 90
        1
176
     1
 40
1.0
176
     1
 90
        8
176
     1
 62
     7
176
     1
 40
1.0
176
     1
 90
        1
176
     1
 90
        6
176
     1
 90
        2
176
     1
 62
     7
176
     1
 90
        5
176
     1
 90
        0
176
     1
 90
        0
176
     1
290
     0
176
     1
 90
        1
176
     1
 40
50.0
176
     1
 90
        0
176
     1
290
     0
176
     1
290
     1
176
     1
290
     1
176
     1
290
     0
176
     1
290
     0
176
     1
290
     0
176
     1
290
     0
176
     1
290
     0
176
     1
290
     0
176
     1
 90
       50
176
     1
 40
0.0
176
     1
 40
1.0
176
     1
 90
        0
176
     1
 62
    18
420
        0
176
     1
 90
       50
176
     1
 90
        3
176
     1
 62
     5
420
      255
176
     1
290
     0
176
     1
 90
       50
176
     1
 90
       50
176
     1
 90
       50
176
     1
290
     0
176
     1
 90
       50
176
     1
 62
   256
176
     0
 40
1.0
176
     0
 90
        2
176
     1
  1
strokes_ogs.tif
176
     1
290
     0
176
     1
 40
1.0
176
     1
 40
1.0
176
     1
  0
VISUALSTYLE
  5
3A
102
{ACAD_REACTORS
330
2A
102
}
330
2A
100
AcDbVisualStyle
  2
ColorChange
 70
    16
177
     3
291
     1
 70
    58
 90
        2
176
     1
 90
        2
176
     1
 90
        3
176
     1
 90
        0
176
     1
 40
0.6
176
     1
 40
30.0
176
     1
 62
     8
420
  8421504
176
     1
 90
        1
176
     1
 90
        4
176
     1
 62
     7
176
     1
 62
   257
176
     1
 90
        1
176
     1
 90
        1
176
     1
 40
1.0
176
     1
 90
        8
176
     1
 62
     8
420
  8421504
176
     1
 40
1.0
176
     1
 90
        1
176
     1
 90
        6
176
     1
 90
        2
176
     1
 62
     7
176
     1
 90
        5
176
     1
 90
        0
176
     1
 90
        0
176
     1
290
     0
176
     1
 90
        1
176
     1
 40
0.0
176
     1
 90
        0
176
     1
290
     0
176
     1
290
     1
176
     1
290
     1
176
     1
290
     0
176
     1
290
     0
176
     1
290
     0
176
     1
290
     0
176
     1
290
     0
176
     1
290
     0
176
     1
 90
       50
176
     1
 40
0.0
176
     1
 40
1.0
176
     1
 90
        0
176
     1
 62
    18
420
        0
176
     1
 90
       50
176
     1
 90
        3
176
     1
 62
     5
420
      255
176
     1
290
     0
176
     1
 90
       50
176
     1
 90
       50
176
     1
 90
       50
176
     1
290
     0
176
     1
 90
       50
176
     1
 62
   256
176
     0
 40
1.0
176
     0
 90
        2
176
     1
  1
strokes_ogs.tif
176
     1
290
     0
176
     1
 40
1.0
176
     1
 40
1.0
176
     1
  0
VISUALSTYLE
  5
34
102
{ACAD_REACTORS
330
2A
102
}
330
2A
100
AcDbVisualStyle
  2
Conceptual
 70
     9
177
     3
291
     0
 70
    58
 90
        3
176
     1
 90
        2
176
     1
 90
        0
176
     1
 90
        0
176
     1
 40
0.6
176
     1
 40
30.0
176
     1
 62
     7
420
 16777215
176
     1
 90
        2
176
     1
 90
        2
176
     1
 62
     7
176
     1
 62
   257
176
     1
 90
        1
176
     1
 90
        1
176
     1
 40
179.0
176
     1
 90
        8
176
     1
 62
     7
176
     1
 40
1.0
176
     1
 90
        1
176
     1
 90
        6
176
     1
 90
        2
176
     1
 62
     7
176
     1
 90
        3
176
     1
 90
        0
176
     1
 90
        0
176
     1
290
     0
176
     1
 90
        1
176
     1
 40
0.0
176
     1
 90
        0
176
     1
290
     0
176
     1
290
     1
176
     1
290
     1
176
     1
290
     0
176
     1
290
     0
176
     1
290
     0
176
     1
290
     0
176
     1
290
     0
176
     1
290
     0
176
     1
 90
       50
176
     1
 40
0.0
176
     1
 40
1.0
176
     1
 90
        0
176
     1
 62
    18
420
        0
176
     1
 90
       50
176
     1
 90
        3
176
     1
 62
     5
420
      255
176
     1
290
     0
176
     1
 90
       50
176
     1
 90
       50
176
     1
 90
       50
176
     1
290
     0
176
     1
 90
       50
176
     1
 62
   256
176
     0
 40
1.0
176
     0
 90
        2
176
     1
  1
strokes_ogs.tif
176
     1
290
     0
176
     1
 40
1.0
176
     1
 40
1.0
176
     1
  0
VISUALSTYLE
  5
35
102
{ACAD_REACTORS
330
2A
102
}
330
2A
100
AcDbVisualStyle
  2
Dim
 70
    11
177
     3
291
     1
 70
    58
 90
        2
176
     1
 90
        2
176
     1
 90
        0
176
     1
 90
        0
176
     1
 40
0.6
176
     1
 40
30.0
176
     1
 62
     7
420
 16777215
176
     1
 90
        1
176
     1
 90
        4
176
     1
 62
     7
176
     1
 62
   257
176
     1
 90
        1
176
     1
 90
        1
176
     1
 40
1.0
176
     1
 90
        8
176
     1
 62
     7
176
     1
 40
1.0
176
     1
 90
        1
176
     1
 90
        6
176
     1
 90
        2
176
     1
 62
     7
176
     1
 90
        5
176
     1
 90
        0
176
     1
 90
        0
176
     1
290
     0
176
     1
 90
        1
176
     1
 40
-50.0
176
     1
 90
        0
176
     1
290
     0
176
     1
290
     1
176
     1
290
     1
176
     1
290
     0
176
     1
290
     0
176
     1
290
     0
176
     1
290
     0
176
     1
290
     0
176
     1
290
     0
176
     1
 90
       50
176
     1
 40
0.0
176
     1
 40
1.0
176
     1
 90
        0
176
     1
 62
    18
420
        0
176
     1
 90
       50
176
     1
 90
        3
176
     1
 62
     5
420
      255
176
     1
290
     0
176
     1
 90
       50
176
     1
 90
       50
176
     1
 90
       50
176
     1
290
     0
176
     1
 90
       50
176
     1
 62
   256
176
     0
 40
1.0
176
     0
 90
        2
176
     1
  1
strokes_ogs.tif
176
     1
290
     0
176
     1
 40
1.0
176
     1
 40
1.0
176
     1
  0
VISUALSTYLE
  5
3D
102
{ACAD_REACTORS
330
2A
102
}
330
2A
100
AcDbVisualStyle
  2
EdgeColorOff
 70
    22
177
     3
291
     1
 70
    58
 90
        2
176
     0
 90
        2
176
     0
 90
        0
176
     0
 90
        0
176
     0
 40
0.6
176
     0
 40
30.0
176
     0
 62
     7
420
 16777215
176
     0
 90
        1
176
     0
 90
        4
176
     0
 62
     7
176
     0
 62
   257
176
     0
 90
        1
176
     0
 90
        1
176
     0
 40
1.0
176
     0
 90
        8
176
     2
 62
     7
176
     0
 40
1.0
176
     0
 90
        1
176
     0
 90
        6
176
     0
 90
        2
176
     0
 62
     7
176
     0
 90
        5
176
     0
 90
        0
176
     0
 90
        0
176
     0
290
     0
176
     0
 90
        1
176
     0
 40
0.0
176
     0
 90
        0
176
     0
290
     0
176
     0
290
     1
176
     0
290
     1
176
     0
290
     0
176
     0
290
     0
176
     0
290
     0
176
     0
290
     0
176
     0
290
     0
176
     0
290
     0
176
     0
 90
       50
176
     0
 40
0.0
176
     0
 40
1.0
176
     0
 90
        0
176
     0
 62
    18
420
        0
176
     0
 90
       50
176
     0
 90
        3
176
     0
 62
     5
420
      255
176
     0
290
     0
176
     0
 90
       50
176
     0
 90
       50
176
     0
 90
       50
176
     0
290
     0
176
     0
 90
       50
176
     0
 62
   256
176
     0
 40
1.0
176
     0
 90
        2
176
     0
  1
strokes_ogs.tif
176
     0
290
     0
176
     0
 40
1.0
176
     0
 40
1.0
176
     0
  0
VISUALSTYLE
  5
39
102
{ACAD_REACTORS
330
2A
102
}
330
2A
100
AcDbVisualStyle
  2
Facepattern
 70
    15
177
     3
291
     1
 70
    58
 90
        2
176
     1
 90
        2
176
     1
 90
        0
176
     1
 90
        0
176
     1
 40
0.6
176
     1
 40
30.0
176
     1
 62
     7
420
 16777215
176
     1
 90
        1
176
     1
 90
        4
176
     1
 62
     7
176
     1
 62
   257
176
     1
 90
        1
176
     1
 90
        1
176
     1
 40
1.0
176
     1
 90
        8
176
     1
 62
     7
176
     1
 40
1.0
176
     1
 90
        1
176
     1
 90
        6
176
     1
 90
        2
176
     1
 62
     7
176
     1
 90
        5
176
     1
 90
        0
176
     1
 90
        0
176
     1
290
     0
176
     1
 90
        1
176
     1
 40
0.0
176
     1
 90
        0
176
     1
290
     0
176
     1
290
     1
176
     1
290
     1
176
     1
290
     0
176
     1
290
     0
176
     1
290
     0
176
     1
290
     0
176
     1
290
     0
176
     1
290
     0
176
     1
 90
       50
176
     1
 40
0.0
176
     1
 40
1.0
176
     1
 90
        0
176
     1
 62
    18
420
        0
176
     1
 90
       50
176
     1
 90
        3
176
     1
 62
     5
420
      255
176
     1
290
     0
176
     1
 90
       50
176
     1
 90
       50
176
     1
 90
       50
176
     1
290
     0
176
     1
 90
       50
176
     1
 62
   256
176
     0
 40
1.0
176
     0
 90
        2
176
     1
  1
strokes_ogs.tif
176
     1
290
     0
176
     1
 40
1.0
176
     1
 40
1.0
176
     1
  0
VISUALSTYLE
  5
2B
102
{ACAD_REACTORS
330
2A
102
}
330
2A
100
AcDbVisualStyle
  2
Flat
 70
     0
177
     3
291
     1
 70
    58
 90
        2
176
     1
 90
        1
176
     1
 90
        1
176
     1
 90
        2
176
     1
 40
0.6
176
     1
 40
30.0
176
     1
 62
     7
420
 16777215
176
     1
 90
        0
176
     1
 90
        0
176
     1
 62
     7
176
     1
 62
   257
176
     1
 90
        1
176
     1
 90
        1
176
     1
 40
1.0
176
     1
 90
        8
176
     1
 62
     7
176
     1
 40
1.0
176
     1
 90
        1
176
     1
 90
        6
176
     1
 90
        2
176
     1
 62
     7
176
     1
 90
        5
176
     1
 90
        0
176
     1
 90
        0
176
     1
290
     0
176
     1
 90
       13
176
     1
 40
0.0
176
     1
 90
        0
176
     1
290
     0
176
     1
290
     1
176
     1
290
     1
176
     1
290
     0
176
     1
290
     0
176
     1
290
     0
176
     1
290
     0
176
     1
290
     0
176
     1
290
     0
176
     1
 90
       50
176
     1
 40
0.0
176
     1
 40
1.0
176
     1
 90
        0
176
     1
 62
    18
420
        0
176
     1
 90
       50
176
     1
 90
        3
176
     1
 62
     5
420
      255
176
     1
290
     0
176
     1
 90
       50
176
     1
 90
       50
176
     1
 90
       50
176
     1
290
     0
176
     1
 90
       50
176
     1
 62
   256
176
     0
 40
1.0
176
     0
 90
        2
176
     1
  1
strokes_ogs.tif
176
     1
290
     0
176
     1
 40
1.0
176
     1
 40
1.0
176
     1
  0
VISUALSTYLE
  5
2C
102
{ACAD_REACTORS
330
2A
102
}
330
2A
100
AcDbVisualStyle
  2
FlatWithEdges
 70
     1
177
     3
291
     1
 70
    58
 90
        2
176
     1
 90
        1
176
     1
 90
        1
176
     1
 90
        2
176
     1
 40
0.6
176
     1
 40
30.0
176
     1
 62
     7
420
 16777215
176
     1
 90
        1
176
     1
 90
        0
176
     1
 62
     7
176
     1
 62
   257
176
     1
 90
        1
176
     1
 90
        1
176
     1
 40
1.0
176
     1
 90
        0
176
     1
 62
   257
176
     1
 40
1.0
176
     1
 90
        1
176
     1
 90
        6
176
     1
 90
        2
176
     1
 62
     7
176
     1
 90
        5
176
     1
 90
        0
176
     1
 90
        0
176
     1
290
     0
176
     1
 90
       13
176
     1
 40
0.0
176
     1
 90
        0
176
     1
290
     0
176
     1
290
     1
176
     1
290
     1
176
     1
290
     0
176
     1
290
     0
176
     1
290
     0
176
     1
290
     0
176
     1
290
     0
176
     1
290
     0
176
     1
 90
       50
176
     1
 40
0.0
176
     1
 40
1.0
176
     1
 90
        0
176
     1
 62
    18
420
        0
176
     1
 90
       50
176
     1
 90
        3
176
     1
 62
     5
420
      255
176
     1
290
     0
176
     1
 90
       50
176
     1
 90
       50
176
     1
 90
       50
176
     1
290
     0
176
     1
 90
       50
176
     1
 62
   256
176
     0
 40
1.0
176
     0
 90
        2
176
     1
  1
strokes_ogs.tif
176
     1
290
     0
176
     1
 40
1.0
176
     1
 40
1.0
176
     1
  0
VISUALSTYLE
  5
2D
102
{ACAD_REACTORS
330
2A
102
}
330
2A
100
AcDbVisualStyle
  2
Gouraud
 70
     2
177
     3
291
     1
 70
    58
 90
        2
176
     1
 90
        2
176
     1
 90
        1
176
     1
 90
        2
176
     1
 40
0.6
176
     1
 40
30.0
176
     1
 62
     7
420
 16777215
176
     1
 90
        0
176
     1
 90
        0
176
     1
 62
     7
176
     1
 62
   257
176
     1
 90
        1
176
     1
 90
        1
176
     1
 40
1.0
176
     1
 90
        0
176
     1
 62
     7
176
     1
 40
1.0
176
     1
 90
        1
176
     1
 90
        6
176
     1
 90
        2
176
     1
 62
     7
176
     1
 90
        5
176
     1
 90
        0
176
     1
 90
        0
176
     1
290
     0
176
     1
 90
       13
176
     1
 40
0.0
176
     1
 90
        0
176
     1
290
     0
176
     1
290
     1
176
     1
290
     1
176
     1
290
     0
176
     1
290
     0
176
     1
290
     0
176
     1
290
     0
176
     1
290
     0
176
     1
290
     0
176
     1
 90
       50
176
     1
 40
0.0
176
     1
 40
1.0
176
     1
 90
        0
176
     1
 62
    18
420
        0
176
     1
 90
       50
176
     1
 90
        3
176
     1
 62
     5
420
      255
176
     1
290
     0
176
     1
 90
       50
176
     1
 90
       50
176
     1
 90
       50
176
     1
290
     0
176
     1
 90
       50
176
     1
 62
   256
176
     0
 40
1.0
176
     0
 90
        2
176
     1
  1
strokes_ogs.tif
176
     1
290
     0
176
     1
 40
1.0
176
     1
 40
1.0
176
     1
  0
VISUALSTYLE
  5
2E
102
{ACAD_REACTORS
330
2A
102
}
330
2A
100
AcDbVisualStyle
  2
GouraudWithEdges
 70
     3
177
     3
291
     1
 70
    58
 90
        2
176
     1
 90
        2
176
     1
 90
        1
176
     1
 90
        2
176
     1
 40
0.6
176
     1
 40
30.0
176
     1
 62
     7
420
 16777215
176
     1
 90
        1
176
     1
 90
        0
176
     1
 62
     7
176
     1
 62
   257
176
     1
 90
        1
176
     1
 90
        1
176
     1
 40
1.0
176
     1
 90
        0
176
     1
 62
   257
176
     1
 40
1.0
176
     1
 90
        1
176
     1
 90
        6
176
     1
 90
        2
176
     1
 62
     7
176
     1
 90
        5
176
     1
 90
        0
176
     1
 90
        0
176
     1
290
     0
176
     1
 90
       13
176
     1
 40
0.0
176
     1
 90
        0
176
     1
290
     0
176
     1
290
     1
176
     1
290
     1
176
     1
290
     0
176
     1
290
     0
176
     1
290
     0
176
     1
290
     0
176
     1
290
     0
176
     1
290
     0
176
     1
 90
       50
176
     1
 40
0.0
176
     1
 40
1.0
176
     1
 90
        0
176
     1
 62
    18
420
        0
176
     1
 90
       50
176
     1
 90
        3
176
     1
 62
     5
420
      255
176
     1
290
     0
176
     1
 90
       50
176
     1
 90
       50
176
     1
 90
       50
176
     1
290
     0
176
     1
 90
       50
176
     1
 62
   256
176
     0
 40
1.0
176
     0
 90
        2
176
     1
  1
strokes_ogs.tif
176
     1
290
     0
176
     1
 40
1.0
176
     1
 40
1.0
176
     1
  0
VISUALSTYLE
  5
31
102
{ACAD_REACTORS
330
2A
102
}
330
2A
100
AcDbVisualStyle
  2
Hidden
 70
     6
177
     3
291
     0
 70
    58
 90
        1
176
     1
 90
        2
176
     1
 90
        2
176
     1
 90
        0
176
     1
 40
0.6
176
     1
 40
30.0
176
     1
 62
     7
420
 16777215
176
     1
 90
        2
176
     1
 90
        2
176
     1
 62
     7
176
     1
 62
   257
176
     1
 90
        2
176
     1
 90
        1
176
     1
 40
40.0
176
     1
 90
        0
176
     1
 62
   257
176
     1
 40
1.0
176
     1
 90
        1
176
     1
 90
        6
176
     1
 90
        2
176
     1
 62
     7
176
     1
 90
        3
176
     1
 90
        0
176
     1
 90
        0
176
     1
290
     0
176
     1
 90
        1
176
     1
 40
0.0
176
     1
 90
        0
176
     1
290
     0
176
     1
290
     1
176
     1
290
     1
176
     1
290
     0
176
     1
290
     0
176
     1
290
     0
176
     1
290
     0
176
     1
290
     0
176
     1
290
     0
176
     1
 90
       50
176
     1
 40
0.0
176
     1
 40
1.0
176
     1
 90
        0
176
     1
 62
    18
420
        0
176
     1
 90
       50
176
     1
 90
        3
176
     1
 62
     5
420
      255
176
     1
290
     0
176
     1
 90
       50
176
     1
 90
       50
176
     1
 90
       50
176
     1
290
     0
176
     1
 90
       50
176
     1
 62
   256
176
     0
 40
1.0
176
     0
 90
        2
176
     1
  1
strokes_ogs.tif
176
     1
290
     0
176
     1
 40
1.0
176
     1
 40
1.0
176
     1
  0
VISUALSTYLE
  5
3B
102
{ACAD_REACTORS
330
2A
102
}
330
2A
100
AcDbVisualStyle
  2
JitterOff
 70
    20
177
     3
291
     1
 70
    58
 90
        2
176
     0
 90
        2
176
     0
 90
        0
176
     0
 90
        0
176
     0
 40
0.6
176
     0
 40
30.0
176
     0
 62
     7
420
 16777215
176
     0
 90
        1
176
     0
 90
        4
176
     0
 62
     7
176
     0
 62
   257
176
     0
 90
        1
176
     0
 90
        1
176
     0
 40
1.0
176
     0
 90
       10
176
     2
 62
     7
176
     0
 40
1.0
176
     0
 90
        1
176
     0
 90
        6
176
     0
 90
        2
176
     0
 62
     7
176
     0
 90
        5
176
     0
 90
        0
176
     0
 90
        0
176
     0
290
     0
176
     0
 90
        1
176
     0
 40
0.0
176
     0
 90
        0
176
     0
290
     0
176
     0
290
     1
176
     0
290
     1
176
     0
290
     0
176
     0
290
     0
176
     0
290
     0
176
     0
290
     0
176
     0
290
     0
176
     0
290
     0
176
     0
 90
       50
176
     0
 40
0.0
176
     0
 40
1.0
176
     0
 90
        0
176
     0
 62
    18
420
        0
176
     0
 90
       50
176
     0
 90
        3
176
     0
 62
     5
420
      255
176
     0
290
     0
176
     0
 90
       50
176
     0
 90
       50
176
     0
 90
       50
176
     0
290
     0
176
     0
 90
       50
176
     0
 62
   256
176
     0
 40
1.0
176
     0
 90
        2
176
     0
  1
strokes_ogs.tif
176
     0
290
     0
176
     0
 40
1.0
176
     0
 40
1.0
176
     0
  0
VISUALSTYLE
  5
38
102
{ACAD_REACTORS
330
2A
102
}
330
2A
100
AcDbVisualStyle
  2
Linepattern
 70
    14
177
     3
291
     1
 70
    58
 90
        2
176
     1
 90
        2
176
     1
 90
        0
176
     1
 90
        0
176
     1
 40
0.6
176
     1
 40
30.0
176
     1
 62
     7
420
 16777215
176
     1
 90
        1
176
     1
 90
        4
176
     1
 62
     7
176
     1
 62
   257
176
     1
 90
        7
176
     1
 90
        7
176
     1
 40
1.0
176
     1
 90
        8
176
     1
 62
     7
176
     1
 40
1.0
176
     1
 90
        1
176
     1
 90
        6
176
     1
 90
        2
176
     1
 62
     7
176
     1
 90
        5
176
     1
 90
        0
176
     1
 90
        0
176
     1
290
     0
176
     1
 90
        1
176
     1
 40
0.0
176
     1
 90
        0
176
     1
290
     0
176
     1
290
     1
176
     1
290
     1
176
     1
290
     0
176
     1
290
     0
176
     1
290
     0
176
     1
290
     0
176
     1
290
     0
176
     1
290
     0
176
     1
 90
       50
176
     1
 40
0.0
176
     1
 40
1.0
176
     1
 90
        0
176
     1
 62
    18
420
        0
176
     1
 90
       50
176
     1
 90
        3
176
     1
 62
     5
420
      255
176
     1
290
     0
176
     1
 90
       50
176
     1
 90
       50
176
     1
 90
       50
176
     1
290
     0
176
     1
 90
       50
176
     1
 62
   256
176
     0
 40
1.0
176
     0
 90
        2
176
     1
  1
strokes_ogs.tif
176
     1
290
     0
176
     1
 40
1.0
176
     1
 40
1.0
176
     1
  0
VISUALSTYLE
  5
3C
102
{ACAD_REACTORS
330
2A
102
}
330
2A
100
AcDbVisualStyle
  2
OverhangOff
 70
    21
177
     3
291
     1
 70
    58
 90
        2
176
     0
 90
        2
176
     0
 90
        0
176
     0
 90
        0
176
     0
 40
0.6
176
     0
 40
30.0
176
     0
 62
     7
420
 16777215
176
     0
 90
        1
176
     0
 90
        4
176
     0
 62
     7
176
     0
 62
   257
176
     0
 90
        1
176
     0
 90
        1
176
     0
 40
1.0
176
     0
 90
        9
176
     2
 62
     7
176
     0
 40
1.0
176
     0
 90
        1
176
     0
 90
        6
176
     0
 90
        2
176
     0
 62
     7
176
     0
 90
        5
176
     0
 90
        0
176
     0
 90
        0
176
     0
290
     0
176
     0
 90
        1
176
     0
 40
0.0
176
     0
 90
        0
176
     0
290
     0
176
     0
290
     1
176
     0
290
     1
176
     0
290
     0
176
     0
290
     0
176
     0
290
     0
176
     0
290
     0
176
     0
290
     0
176
     0
290
     0
176
     0
 90
       50
176
     0
 40
0.0
176
     0
 40
1.0
176
     0
 90
        0
176
     0
 62
    18
420
        0
176
     0
 90
       50
176
     0
 90
        3
176
     0
 62
     5
420
      255
176
     0
290
     0
176
     0
 90
       50
176
     0
 90
       50
176
     0
 90
       50
176
     0
290
     0
176
     0
 90
       50
176
     0
 62
   256
176
     0
 40
1.0
176
     0
 90
        2
176
     0
  1
strokes_ogs.tif
176
     0
290
     0
176
     0
 40
1.0
176
     0
 40
1.0
176
     0
  0
VISUALSTYLE
  5
33
102
{ACAD_REACTORS
330
2A
102
}
330
2A
100
AcDbVisualStyle
  2
Realistic
 70
     8
177
     3
291
     0
 70
    58
 90
        2
176
     1
 90
        3
176
     1
 90
        0
176
     1
 90
        2
176
     1
 40
0.6
176
     1
 40
30.0
176
     1
 62
     7
420
 16777215
176
     1
 90
        0
176
     1
 90
        0
176
     1
 62
     7
176
     1
 62
   257
176
     1
 90
        1
176
     1
 90
        1
176
     1
 40
1.0
176
     1
 90
        8
176
     1
 62
   257
176
     1
 40
1.0
176
     1
 90
        1
176
     1
 90
        6
176
     1
 90
        2
176
     1
 62
     7
176
     1
 90
        3
176
     1
 90
        0
176
     1
 90
        0
176
     1
290
     0
176
     1
 90
       13
176
     1
 40
0.0
176
     1
 90
        0
176
     1
290
     0
176
     1
290
     1
176
     1
290
     1
176
     1
290
     0
176
     1
290
     0
176
     1
290
     0
176
     1
290
     0
176
     1
290
     0
176
     1
290
     0
176
     1
 90
       50
176
     1
 40
0.0
176
     1
 40
1.0
176
     1
 90
        0
176
     1
 62
    18
420
        0
176
     1
 90
       50
176
     1
 90
        3
176
     1
 62
     5
420
      255
176
     1
290
     0
176
     1
 90
       50
176
     1
 90
       50
176
     1
 90
       50
176
     1
290
     0
176
     1
 90
       50
176
     1
 62
   256
176
     0
 40
1.0
176
     0
 90
        2
176
     1
  1
strokes_ogs.tif
176
     1
290
     0
176
     1
 40
1.0
176
     1
 40
1.0
176
     1
  0
VISUALSTYLE
  5
42
102
{ACAD_REACTORS
330
2A
102
}
330
2A
100
AcDbVisualStyle
  2
Shaded
 70
    27
177
     3
291
     0
 70
    58
 90
        2
176
     1
 90
        2
176
     1
 90
        1
176
     1
 90
        2
176
     1
 40
0.6
176
     1
 40
30.0
176
     1
 62
     7
420
 16777215
176
     1
 90
        0
176
     1
 90
        4
176
     1
 62
     7
176
     1
 62
   257
176
     1
 90
        1
176
     1
 90
        1
176
     1
 40
1.0
176
     1
 90
        8
176
     1
 62
   257
176
     1
 40
1.0
176
     1
 90
        1
176
     1
 90
        6
176
     1
 90
        2
176
     1
 62
     8
420
  7895160
176
     1
 90
        3
176
     1
 90
        0
176
     1
 90
        0
176
     1
290
     0
176
     1
 90
        5
176
     1
 40
0.0
176
     1
 90
        0
176
     1
290
     0
176
     1
290
     1
176
     1
290
     1
176
     1
290
     0
176
     1
290
     0
176
     1
290
     0
176
     1
290
     0
176
     1
290
     0
176
     1
290
     0
176
     1
 90
       50
176
     1
 40
0.0
176
     1
 40
1.0
176
     1
 90
        0
176
     1
 62
    18
420
        0
176
     1
 90
       50
176
     1
 90
        3
176
     1
 62
     5
420
      255
176
     1
290
     0
176
     1
 90
       50
176
     1
 90
       50
176
     1
 90
       50
176
     1
290
     0
176
     1
 90
       50
176
     1
 62
   256
176
     0
 40
1.0
176
     0
 90
        2
176
     1
  1
strokes_ogs.tif
176
     1
290
     0
176
     1
 40
1.0
176
     1
 40
1.0
176
     1
  0
VISUALSTYLE
  5
41
102
{ACAD_REACTORS
330
2A
102
}
330
2A
100
AcDbVisualStyle
  2
Shaded with edges
 70
    26
177
     3
291
     0
 70
    58
 90
        2
176
     1
 90
        2
176
     1
 90
        1
176
     1
 90
        2
176
     1
 40
0.6
176
     1
 40
30.0
176
     1
 62
     7
420
 16777215
176
     1
 90
        1
176
     1
 90
       10
176
     1
 62
     7
176
     1
 62
   257
176
     1
 90
        2
176
     1
 90
        1
176
     1
 40
1.0
176
     1
 90
        8
176
     1
 62
   257
176
     1
 40
1.0
176
     1
 90
        1
176
     1
 90
        6
176
     1
 90
        2
176
     1
 62
     7
176
     1
 90
        3
176
     1
 90
        0
176
     1
 90
        0
176
     1
290
     0
176
     1
 90
        5
176
     1
 40
0.0
176
     1
 90
        0
176
     1
290
     0
176
     1
290
     1
176
     1
290
     1
176
     1
290
     0
176
     1
290
     0
176
     1
290
     0
176
     1
290
     0
176
     1
290
     0
176
     1
290
     0
176
     1
 90
       50
176
     1
 40
0.0
176
     1
 40
1.0
176
     1
 90
        0
176
     1
 62
    18
420
        0
176
     1
 90
       50
176
     1
 90
        3
176
     1
 62
     5
420
      255
176
     1
290
     0
176
     1
 90
       50
176
     1
 90
       50
176
     1
 90
       50
176
     1
290
     0
176
     1
 90
       50
176
     1
 62
   256
176
     0
 40
1.0
176
     0
 90
        2
176
     1
  1
strokes_ogs.tif
176
     1
290
     0
176
     1
 40
1.0
176
     1
 40
1.0
176
     1
  0
VISUALSTYLE
  5
3E
102
{ACAD_REACTORS
330
2A
102
}
330
2A
100
AcDbVisualStyle
  2
Shades of Gray
 70
    23
177
     3
291
     0
 70
    58
 90
        2
176
     1
 90
        2
176
     1
 90
        3
176
     1
 90
        0
176
     1
 40
0.6
176
     1
 40
30.0
176
     1
 62
     7
420
 16777215
176
     1
 90
        2
176
     1
 90
        2
176
     1
 62
     7
176
     1
 62
     7
176
     1
 90
        1
176
     1
 90
        1
176
     1
 40
40.0
176
     1
 90
        8
176
     1
 62
     7
176
     1
 40
1.0
176
     1
 90
        1
176
     1
 90
        6
176
     1
 90
        2
176
     1
 62
     7
176
     1
 90
        3
176
     1
 90
        0
176
     1
 90
        0
176
     1
290
     0
176
     1
 90
        1
176
     1
 40
0.0
176
     1
 90
        0
176
     1
290
     0
176
     1
290
     1
176
     1
290
     1
176
     1
290
     0
176
     1
290
     0
176
     1
290
     0
176
     1
290
     0
176
     1
290
     0
176
     1
290
     0
176
     1
 90
       50
176
     1
 40
0.0
176
     1
 40
1.0
176
     1
 90
        0
176
     1
 62
    18
420
        0
176
     1
 90
       50
176
     1
 90
        3
176
     1
 62
     5
420
      255
176
     1
290
     0
176
     1
 90
       50
176
     1
 90
       50
176
     1
 90
       50
176
     1
290
     0
176
     1
 90
       50
176
     1
 62
   256
176
     0
 40
1.0
176
     0
 90
        2
176
     1
  1
strokes_ogs.tif
176
     1
290
     0
176
     1
 40
1.0
176
     1
 40
1.0
176
     1
  0
VISUALSTYLE
  5
3F
102
{ACAD_REACTORS
330
2A
102
}
330
2A
100
AcDbVisualStyle
  2
Sketchy
 70
    24
177
     3
291
     0
 70
    58
 90
        1
176
     1
 90
        2
176
     1
 90
        2
176
     1
 90
        0
176
     1
 40
0.6
176
     1
 40
30.0
176
     1
 62
     7
420
 16777215
176
     1
 90
        2
176
     1
 90
        2
176
     1
 62
     7
176
     1
 62
     7
176
     1
 90
        1
176
     1
 90
        1
176
     1
 40
40.0
176
     1
 90
       11
176
     1
 62
     7
176
     1
 40
1.0
176
     1
 90
        1
176
     1
 90
        6
176
     1
 90
        2
176
     1
 62
     7
176
     1
 90
        6
176
     1
 90
        0
176
     1
 90
        0
176
     1
290
     0
176
     1
 90
        1
176
     1
 40
0.0
176
     1
 90
        0
176
     1
290
     0
176
     1
290
     1
176
     1
290
     1
176
     1
290
     0
176
     1
290
     0
176
     1
290
     0
176
     1
290
     0
176
     1
290
     0
176
     1
290
     0
176
     1
 90
       50
176
     1
 40
0.0
176
     1
 40
1.0
176
     1
 90
        0
176
     1
 62
    18
420
        0
176
     1
 90
       50
176
     1
 90
        3
176
     1
 62
     5
420
      255
176
     1
290
     0
176
     1
 90
       50
176
     1
 90
       50
176
     1
 90
       50
176
     1
290
     0
176
     1
 90
       50
176
     1
 62
   256
176
     0
 40
1.0
176
     0
 90
        2
176
     1
  1
strokes_ogs.tif
176
     1
290
     0
176
     1
 40
1.0
176
     1
 40
1.0
176
     1
  0
VISUALSTYLE
  5
37
102
{ACAD_REACTORS
330
2A
102
}
330
2A
100
AcDbVisualStyle
  2
Thicken
 70
    13
177
     3
291
     1
 70
    58
 90
        2
176
     1
 90
        2
176
     1
 90
        0
176
     1
 90
        0
176
     1
 40
0.6
176
     1
 40
30.0
176
     1
 62
     7
420
 16777215
176
     1
 90
        1
176
     1
 90
        4
176
     1
 62
     7
176
     1
 62
   257
176
     1
 90
        1
176
     1
 90
        1
176
     1
 40
1.0
176
     1
 90
       12
176
     1
 62
     7
176
     1
 40
1.0
176
     1
 90
        1
176
     1
 90
        6
176
     1
 90
        2
176
     1
 62
     7
176
     1
 90
        5
176
     1
 90
        0
176
     1
 90
        0
176
     1
290
     0
176
     1
 90
        1
176
     1
 40
0.0
176
     1
 90
        0
176
     1
290
     0
176
     1
290
     1
176
     1
290
     1
176
     1
290
     0
176
     1
290
     0
176
     1
290
     0
176
     1
290
     0
176
     1
290
     0
176
     1
290
     0
176
     1
 90
       50
176
     1
 40
0.0
176
     1
 40
1.0
176
     1
 90
        0
176
     1
 62
    18
420
        0
176
     1
 90
       50
176
     1
 90
        3
176
     1
 62
     5
420
      255
176
     1
290
     0
176
     1
 90
       50
176
     1
 90
       50
176
     1
 90
       50
176
     1
290
     0
176
     1
 90
       50
176
     1
 62
   256
176
     0
 40
1.0
176
     0
 90
        2
176
     1
  1
strokes_ogs.tif
176
     1
290
     0
176
     1
 40
1.0
176
     1
 40
1.0
176
     1
  0
VISUALSTYLE
  5
30
102
{ACAD_REACTORS
330
2A
102
}
330
2A
100
AcDbVisualStyle
  2
Wireframe
 70
     5
177
     3
291
     0
 70
    58
 90
        0
176
     1
 90
        2
176
     1
 90
        0
176
     1
 90
        0
176
     1
 40
0.6
176
     1
 40
30.0
176
     1
 62
     7
420
 16777215
176
     1
 90
        1
176
     1
 90
        4
176
     1
 62
     7
176
     1
 62
   257
176
     1
 90
        1
176
     1
 90
        1
176
     1
 40
1.0
176
     1
 90
        0
176
     1
 62
   257
176
     1
 40
1.0
176
     1
 90
        1
176
     1
 90
        6
176
     1
 90
        2
176
     1
 62
     7
176
     1
 90
        3
176
     1
 90
        0
176
     1
 90
        0
176
     1
290
     0
176
     1
 90
        1
176
     1
 40
0.0
176
     1
 90
        0
176
     1
290
     0
176
     1
290
     1
176
     1
290
     1
176
     1
290
     0
176
     1
290
     0
176
     1
290
     0
176
     1
290
     0
176
     1
290
     0
176
     1
290
     0
176
     1
 90
       50
176
     1
 40
0.0
176
     1
 40
1.0
176
     1
 90
        0
176
     1
 62
    18
420
        0
176
     1
 90
       50
176
     1
 90
        3
176
     1
 62
     5
420
      255
176
     1
290
     0
176
     1
 90
       50
176
     1
 90
       50
176
     1
 90
       50
176
     1
290
     0
176
     1
 90
       50
176
     1
 62
   256
176
     0
 40
1.0
176
     0
 90
        2
176
     1
  1
strokes_ogs.tif
176
     1
290
     0
176
     1
 40
1.0
176
     1
 40
1.0
176
     1
  0
VISUALSTYLE
  5
40
102
{ACAD_REACTORS
330
2A
102
}
330
2A
100
AcDbVisualStyle
  2
X-Ray
 70
    25
177
     3
291
     0
 70
    58
 90
        2
176
     1
 90
        2
176
     1
 90
        1
176
     1
 90
        1
176
     1
 40
0.5
176
     1
 40
30.0
176
     1
 62
     7
420
 16777215
176
     1
 90
        1
176
     1
 90
        0
176
     1
 62
     7
176
     1
 62
   257
176
     1
 90
        1
176
     1
 90
        1
176
     1
 40
1.0
176
     1
 90
        8
176
     1
 62
     7
176
     1
 40
1.0
176
     1
 90
        1
176
     1
 90
        6
176
     1
 90
        2
176
     1
 62
     7
176
     1
 90
        3
176
     1
 90
        0
176
     1
 90
        0
176
     1
290
     0
176
     1
 90
       13
176
     1
 40
0.0
176
     1
 90
        0
176
     1
290
     0
176
     1
290
     1
176
     1
290
     1
176
     1
290
     0
176
     1
290
     0
176
     1
290
     0
176
     1
290
     0
176
     1
290
     0
176
     1
290
     0
176
     1
 90
       50
176
     1
 40
0.0
176
     1
 40
1.0
176
     1
 90
        0
176
     1
 62
    18
420
        0
176
     1
 90
       50
176
     1
 90
        3
176
     1
 62
     5
420
      255
176
     1
290
     0
176
     1
 90
       50
176
     1
 90
       50
176
     1
 90
       50
176
     1
290
     0
176
     1
 90
       50
176
     1
 62
   256
176
     0
 40
1.0
176
     0
 90
        2
176
     1
  1
strokes_ogs.tif
176
     1
290
     0
176
     1
 40
1.0
176
     1
 40
1.0
176
     1
  0
DICTIONARYVAR
  5
B2
102
{ACAD_REACTORS
330
B1
102
}
330
B1
100
DictionaryVariables
280
     0
  1
1:1
  0
DICTIONARYVAR
  5
B7
102
{ACAD_REACTORS
330
B1
102
}
330
B1
100
DictionaryVariables
280
     0
  1
Standard
  0
DICTIONARYVAR
  5
B6
102
{ACAD_REACTORS
330
B1
102
}
330
B1
100
DictionaryVariables
280
     0
  1
Standard
  0
DICTIONARY
  5
B3
330
5A
100
AcDbDictionary
280
     1
281
     1
  3
ACAD_ROUNDTRIP_2008_TABLESTYLE_CELLSTYLEMAP
360
B4
  0
CELLSTYLEMAP
  5
B4
102
{ACAD_REACTORS
330
B3
102
}
330
B3
100
AcDbCellStyleMap
 90
        3
300
CELLSTYLE
  1
TABLEFORMAT_BEGIN
 90
        5
170
     1
 91
        0
 92
    32768
 62
   257
 93
        1
300
CONTENTFORMAT
  1
CONTENTFORMAT_BEGIN
 90
        0
 91
        0
 92
        4
 93
        0
300

 40
0.0
140
1.0
 94
        5
 62
     0
340
11
144
0.25
309
CONTENTFORMAT_END
171
     1
301
MARGIN
  1
CELLMARGIN_BEGIN
 40
0.06
 40
0.06
 40
0.06
 40
0.06
 40
0.06
 40
0.06
309
CELLMARGIN_END
 94
        6
 95
        1
302
GRIDFORMAT
  1
GRIDFORMAT_BEGIN
 90
        0
 91
        1
 62
     0
 92
       -2
340
14
 93
        0
 40
0.045
309
GRIDFORMAT_END
 95
        2
302
GRIDFORMAT
  1
GRIDFORMAT_BEGIN
 90
        0
 91
        1
 62
     0
 92
       -2
340
14
 93
        0
 40
0.045
309
GRIDFORMAT_END
 95
        4
302
GRIDFORMAT
  1
GRIDFORMAT_BEGIN
 90
        0
 91
        1
 62
     0
 92
       -2
340
14
 93
        0
 40
0.045
309
GRIDFORMAT_END
 95
        8
302
GRIDFORMAT
  1
GRIDFORMAT_BEGIN
 90
        0
 91
        1
 62
     0
 92
       -2
340
14
 93
        0
 40
0.045
309
GRIDFORMAT_END
 95
       16
302
GRIDFORMAT
  1
GRIDFORMAT_BEGIN
 90
        0
 91
        1
 62
     0
 92
       -2
340
14
 93
        0
 40
0.045
309
GRIDFORMAT_END
 95
       32
302
GRIDFORMAT
  1
GRIDFORMAT_BEGIN
 90
        0
 91
        1
 62
     0
 92
       -2
340
14
 93
        0
 40
0.045
309
GRIDFORMAT_END
309
TABLEFORMAT_END
  1
CELLSTYLE_BEGIN
 90
        1
 91
        1
300
_TITLE
309
CELLSTYLE_END
300
CELLSTYLE
  1
TABLEFORMAT_BEGIN
 90
        5
170
     1
 91
        0
 92
        0
 62
   257
 93
        1
300
CONTENTFORMAT
  1
CONTENTFORMAT_BEGIN
 90
        0
 91
        0
 92
        4
 93
        0
300

 40
0.0
140
1.0
 94
        5
 62
     0
340
11
144
0.18
309
CONTENTFORMAT_END
171
     1
301
MARGIN
  1
CELLMARGIN_BEGIN
 40
0.06
 40
0.06
 40
0.06
 40
0.06
 40
0.06
 40
0.06
309
CELLMARGIN_END
 94
        6
 95
        1
302
GRIDFORMAT
  1
GRIDFORMAT_BEGIN
 90
        0
 91
        1
 62
     0
 92
       -2
340
14
 93
        0
 40
0.045
309
GRIDFORMAT_END
 95
        2
302
GRIDFORMAT
  1
GRIDFORMAT_BEGIN
 90
        0
 91
        1
 62
     0
 92
       -2
340
14
 93
        0
 40
0.045
309
GRIDFORMAT_END
 95
        4
302
GRIDFORMAT
  1
GRIDFORMAT_BEGIN
 90
        0
 91
        1
 62
     0
 92
       -2
340
14
 93
        0
 40
0.045
309
GRIDFORMAT_END
 95
        8
302
GRIDFORMAT
  1
GRIDFORMAT_BEGIN
 90
        0
 91
        1
 62
     0
 92
       -2
340
14
 93
        0
 40
0.045
309
GRIDFORMAT_END
 95
       16
302
GRIDFORMAT
  1
GRIDFORMAT_BEGIN
 90
        0
 91
        1
 62
     0
 92
       -2
340
14
 93
        0
 40
0.045
309
GRIDFORMAT_END
 95
       32
302
GRIDFORMAT
  1
GRIDFORMAT_BEGIN
 90
        0
 91
        1
 62
     0
 92
       -2
340
14
 93
        0
 40
0.045
309
GRIDFORMAT_END
309
TABLEFORMAT_END
  1
CELLSTYLE_BEGIN
 90
        2
 91
        1
300
_HEADER
309
CELLSTYLE_END
300
CELLSTYLE
  1
TABLEFORMAT_BEGIN
 90
        5
170
     1
 91
        0
 92
        0
 62
   257
 93
        1
300
CONTENTFORMAT
  1
CONTENTFORMAT_BEGIN
 90
        0
 91
        0
 92
        4
 93
        0
300

 40
0.0
140
1.0
 94
        2
 62
     0
340
11
144
0.18
309
CONTENTFORMAT_END
171
     1
301
MARGIN
  1
CELLMARGIN_BEGIN
 40
0.06
 40
0.06
 40
0.06
 40
0.06
 40
0.06
 40
0.06
309
CELLMARGIN_END
 94
        6
 95
        1
302
GRIDFORMAT
  1
GRIDFORMAT_BEGIN
 90
        0
 91
        1
 62
     0
 92
       -2
340
14
 93
        0
 40
0.045
309
GRIDFORMAT_END
 95
        2
302
GRIDFORMAT
  1
GRIDFORMAT_BEGIN
 90
        0
 91
        1
 62
     0
 92
       -2
340
14
 93
        0
 40
0.045
309
GRIDFORMAT_END
 95
        4
302
GRIDFORMAT
  1
GRIDFORMAT_BEGIN
 90
        0
 91
        1
 62
     0
 92
       -2
340
14
 93
        0
 40
0.045
309
GRIDFORMAT_END
 95
        8
302
GRIDFORMAT
  1
GRIDFORMAT_BEGIN
 90
        0
 91
        1
 62
     0
 92
       -2
340
14
 93
        0
 40
0.045
309
GRIDFORMAT_END
 95
       16
302
GRIDFORMAT
  1
GRIDFORMAT_BEGIN
 90
        0
 91
        1
 62
     0
 92
       -2
340
14
 93
        0
 40
0.045
309
GRIDFORMAT_END
 95
       32
302
GRIDFORMAT
  1
GRIDFORMAT_BEGIN
 90
        0
 91
        1
 62
     0
 92
       -2
340
14
 93
        0
 40
0.045
309
GRIDFORMAT_END
309
TABLEFORMAT_END
  1
CELLSTYLE_BEGIN
 90
        3
 91
        2
300
_DATA
309
CELLSTYLE_END
  0
ENDSEC
  0
EOF
