  0
SECTION
  2
HEADER
  9
$ACADVER
  1
AC1032
  9
$ACADMAINTVER
 90
       55
  9
$DWGCODEPAGE
  3
ANSI_1252
  9
$LASTSAVEDBY
  1
LYI-002
  9
$REQUIREDVERSIONS
160
                 0
  9
$INSBASE
 10
0.0
 20
0.0
 30
0.0
  9
$EXTMIN
 10
-1200.1327
 20
-590.2374
 30
0.0
  9
$EXTMAX
 10
1200.0674
 20
590.1841
 30
0.0
  9
$LIMMIN
 10
0.0
 20
0.0
  9
$LIMMAX
 10
12.0
 20
9.0
  9
$ORTHOMODE
 70
     0
  9
$REGENMODE
 70
     1
  9
$FILLMODE
 70
     1
  9
$QTEXTMODE
 70
     0
  9
$MIRRTEXT
 70
     1
  9
$LTSCALE
 40
1.0
  9
$ATTMODE
 70
     1
  9
$TEXTSIZE
 40
0.2
  9
$TRACEWID
 40
0.05
  9
$TEXTSTYLE
  7
Standard
  9
$CLAYER
  8
0
  9
$CELTYPE
  6
ByLayer
  9
$CECOLOR
 62
   256
  9
$CELTSCALE
 40
1.0
  9
$DISPSILH
 70
     0
  9
$DIMSCALE
 40
1.0
  9
$DIMASZ
 40
0.18
  9
$DIMEXO
 40
0.0625
  9
$DIMDLI
 40
0.38
  9
$DIMRND
 40
0.0
  9
$DIMDLE
 40
0.0
  9
$DIMEXE
 40
0.18
  9
$DIMTP
 40
0.0
  9
$DIMTM
 40
0.0
  9
$DIMTXT
 40
0.18
  9
$DIMCEN
 40
0.09
  9
$DIMTSZ
 40
0.0
  9
$DIMTOL
 70
     0
  9
$DIMLIM
 70
     0
  9
$DIMTIH
 70
     1
  9
$DIMTOH
 70
     1
  9
$DIMSE1
 70
     0
  9
$DIMSE2
 70
     0
  9
$DIMTAD
 70
     0
  9
$DIMZIN
 70
     0
  9
$DIMBLK
  1

  9
$DIMASO
 70
     1
  9
$DIMSHO
 70
     1
  9
$DIMPOST
  1

  9
$DIMAPOST
  1

  9
$DIMALT
 70
     0
  9
$DIMALTD
 70
     2
  9
$DIMALTF
 40
25.4
  9
$DIMLFAC
 40
1.0
  9
$DIMTOFL
 70
     0
  9
$DIMTVP
 40
0.0
  9
$DIMTIX
 70
     0
  9
$DIMSOXD
 70
     0
  9
$DIMSAH
 70
     0
  9
$DIMBLK1
  1

  9
$DIMBLK2
  1

  9
$DIMSTYLE
  2
Standard
  9
$DIMCLRD
 70
     0
  9
$DIMCLRE
 70
     0
  9
$DIMCLRT
 70
     0
  9
$DIMTFAC
 40
1.0
  9
$DIMGAP
 40
0.09
  9
$DIMJUST
 70
     0
  9
$DIMSD1
 70
     0
  9
$DIMSD2
 70
     0
  9
$DIMTOLJ
 70
     1
  9
$DIMTZIN
 70
     0
  9
$DIMALTZ
 70
     0
  9
$DIMALTTZ
 70
     0
  9
$DIMUPT
 70
     0
  9
$DIMDEC
 70
     4
  9
$DIMTDEC
 70
     4
  9
$DIMALTU
 70
     2
  9
$DIMALTTD
 70
     2
  9
$DIMTXSTY
  7
Standard
  9
$DIMAUNIT
 70
     0
  9
$DIMADEC
 70
     0
  9
$DIMALTRND
 40
0.0
  9
$DIMAZIN
 70
     0
  9
$DIMDSEP
 70
    46
  9
$DIMATFIT
 70
     3
  9
$DIMFRAC
 70
     0
  9
$DIMLDRBLK
  1

  9
$DIMLUNIT
 70
     2
  9
$DIMLWD
 70
    -2
  9
$DIMLWE
 70
    -2
  9
$DIMTMOVE
 70
     0
  9
$DIMFXL
 40
1.0
  9
$DIMFXLON
 70
     0
  9
$DIMJOGANG
 40
0.7853981633974483
  9
$DIMTFILL
 70
     0
  9
$DIMTFILLCLR
 70
     0
  9
$DIMARCSYM
 70
     0
  9
$DIMLTYPE
  6

  9
$DIMLTEX1
  6

  9
$DIMLTEX2
  6

  9
$DIMTXTDIRECTION
 70
     0
  9
$LUNITS
 70
     2
  9
$LUPREC
 70
     4
  9
$SKETCHINC
 40
0.1
  9
$FILLETRAD
 40
0.0
  9
$AUNITS
 70
     0
  9
$AUPREC
 70
     0
  9
$MENU
  1
.
  9
$ELEVATION
 40
0.0
  9
$PELEVATION
 40
0.0
  9
$THICKNESS
 40
0.0
  9
$LIMCHECK
 70
     0
  9
$CHAMFERA
 40
0.0
  9
$CHAMFERB
 40
0.0
  9
$CHAMFERC
 40
0.0
  9
$CHAMFERD
 40
0.0
  9
$SKPOLY
 70
     0
  9
$TDCREATE
 40
2460652.652973264
  9
$TDUCREATE
 40
2460652.423806597
  9
$TDUPDATE
 40
2460652.652973322
  9
$TDUUPDATE
 40
2460652.423806655
  9
$TDINDWG
 40
0.0000000116
  9
$TDUSRTIMER
 40
0.0000000116
  9
$USRTIMER
 70
     1
  9
$ANGBASE
 50
0.0
  9
$ANGDIR
 70
     0
  9
$PDMODE
 70
     0
  9
$PDSIZE
 40
0.0
  9
$PLINEWID
 40
0.0
  9
$SPLFRAME
 70
     0
  9
$SPLINETYPE
 70
     6
  9
$SPLINESEGS
 70
     8
  9
$HANDSEED
  5
B6
  9
$SURFTAB1
 70
     6
  9
$SURFTAB2
 70
     6
  9
$SURFTYPE
 70
     6
  9
$SURFU
 70
     6
  9
$SURFV
 70
     6
  9
$UCSBASE
  2

  9
$UCSNAME
  2

  9
$UCSORG
 10
0.0
 20
0.0
 30
0.0
  9
$UCSXDIR
 10
1.0
 20
0.0
 30
0.0
  9
$UCSYDIR
 10
0.0
 20
1.0
 30
0.0
  9
$UCSORTHOREF
  2

  9
$UCSORTHOVIEW
 70
     0
  9
$UCSORGTOP
 10
0.0
 20
0.0
 30
0.0
  9
$UCSORGBOTTOM
 10
0.0
 20
0.0
 30
0.0
  9
$UCSORGLEFT
 10
0.0
 20
0.0
 30
0.0
  9
$UCSORGRIGHT
 10
0.0
 20
0.0
 30
0.0
  9
$UCSORGFRONT
 10
0.0
 20
0.0
 30
0.0
  9
$UCSORGBACK
 10
0.0
 20
0.0
 30
0.0
  9
$PUCSBASE
  2

  9
$PUCSNAME
  2

  9
$PUCSORG
 10
0.0
 20
0.0
 30
0.0
  9
$PUCSXDIR
 10
1.0
 20
0.0
 30
0.0
  9
$PUCSYDIR
 10
0.0
 20
1.0
 30
0.0
  9
$PUCSORTHOREF
  2

  9
$PUCSORTHOVIEW
 70
     0
  9
$PUCSORGTOP
 10
0.0
 20
0.0
 30
0.0
  9
$PUCSORGBOTTOM
 10
0.0
 20
0.0
 30
0.0
  9
$PUCSORGLEFT
 10
0.0
 20
0.0
 30
0.0
  9
$PUCSORGRIGHT
 10
0.0
 20
0.0
 30
0.0
  9
$PUCSORGFRONT
 10
0.0
 20
0.0
 30
0.0
  9
$PUCSORGBACK
 10
0.0
 20
0.0
 30
0.0
  9
$USERI1
 70
     0
  9
$USERI2
 70
     0
  9
$USERI3
 70
     0
  9
$USERI4
 70
     0
  9
$USERI5
 70
     0
  9
$USERR1
 40
0.0
  9
$USERR2
 40
0.0
  9
$USERR3
 40
0.0
  9
$USERR4
 40
0.0
  9
$USERR5
 40
0.0
  9
$WORLDVIEW
 70
     1
  9
$SHADEDGE
 70
     3
  9
$SHADEDIF
 70
    70
  9
$TILEMODE
 70
     1
  9
$MAXACTVP
 70
    64
  9
$PINSBASE
 10
0.0
 20
0.0
 30
0.0
  9
$PLIMCHECK
 70
     0
  9
$PEXTMIN
 10
1.000000000000000E+20
 20
1.000000000000000E+20
 30
1.000000000000000E+20
  9
$PEXTMAX
 10
-1.000000000000000E+20
 20
-1.000000000000000E+20
 30
-1.000000000000000E+20
  9
$PLIMMIN
 10
0.0
 20
0.0
  9
$PLIMMAX
 10
12.0
 20
9.0
  9
$UNITMODE
 70
     0
  9
$VISRETAIN
 70
     1
  9
$PLINEGEN
 70
     0
  9
$PSLTSCALE
 70
     1
  9
$TREEDEPTH
 70
  3020
  9
$CMLSTYLE
  2
Standard
  9
$CMLJUST
 70
     0
  9
$CMLSCALE
 40
1.0
  9
$PROXYGRAPHICS
 70
     1
  9
$MEASUREMENT
 70
     0
  9
$CELWEIGHT
370
    -1
  9
$ENDCAPS
280
     0
  9
$JOINSTYLE
280
     0
  9
$LWDISPLAY
290
     0
  9
$INSUNITS
 70
     4
  9
$HYPERLINKBASE
  1

  9
$STYLESHEET
  1

  9
$XEDIT
290
     1
  9
$CEPSNTYPE
380
     0
  9
$PSTYLEMODE
290
     1
  9
$FINGERPRINTGUID
  2
{8c0f4c30-e6b0-45f2-b711-2f61215be547}
  9
$VERSIONGUID
  2
{FAEB1C32-E019-11D5-929B-00C0DF256EC4}
  9
$EXTNAMES
290
     1
  9
$PSVPSCALE
 40
0.0
  9
$OLESTARTUP
290
     0
  9
$SORTENTS
280
   127
  9
$INDEXCTL
280
     0
  9
$HIDETEXT
280
     1
  9
$XCLIPFRAME
280
     2
  9
$HALOGAP
280
     0
  9
$OBSCOLOR
 70
   257
  9
$OBSLTYPE
280
     0
  9
$INTERSECTIONDISPLAY
280
     0
  9
$INTERSECTIONCOLOR
 70
   257
  9
$DIMASSOC
280
     2
  9
$PROJECTNAME
  1

  9
$CAMERADISPLAY
290
     0
  9
$LENSLENGTH
 40
50.0
  9
$CAMERAHEIGHT
 40
0.0
  9
$STEPSPERSEC
 40
2.0
  9
$STEPSIZE
 40
6.0
  9
$3DDWFPREC
 40
2.0
  9
$PSOLWIDTH
 40
0.25
  9
$PSOLHEIGHT
 40
4.0
  9
$LOFTANG1
 40
1.570796326794897
  9
$LOFTANG2
 40
1.570796326794897
  9
$LOFTMAG1
 40
0.0
  9
$LOFTMAG2
 40
0.0
  9
$LOFTPARAM
 70
     7
  9
$LOFTNORMALS
280
     1
  9
$LATITUDE
 40
37.795
  9
$LONGITUDE
 40
-122.394
  9
$NORTHDIRECTION
 40
0.0
  9
$TIMEZONE
 70
 -8000
  9
$LIGHTGLYPHDISPLAY
280
     1
  9
$TILEMODELIGHTSYNCH
280
     1
  9
$CMATERIAL
347
44
  9
$SOLIDHIST
280
     0
  9
$SHOWHIST
280
     1
  9
$DWFFRAME
280
     2
  9
$DGNFRAME
280
     2
  9
$REALWORLDSCALE
290
     1
  9
$INTERFERECOLOR
 62
   256
  9
$CSHADOW
280
     0
  9
$SHADOWPLANELOCATION
 40
0.0
  0
ENDSEC
  0
SECTION
  2
CLASSES
  0
CLASS
  1
ACDBDICTIONARYWDFLT
  2
AcDbDictionaryWithDefault
  3
ObjectDBX Classes
 90
        0
 91
        3
280
     0
281
     0
  0
CLASS
  1
VISUALSTYLE
  2
AcDbVisualStyle
  3
ObjectDBX Classes
 90
     4095
 91
        3
280
     0
281
     0
  0
CLASS
  1
MATERIAL
  2
AcDbMaterial
  3
ObjectDBX Classes
 90
     1153
 91
        3
280
     0
281
     0
  0
CLASS
  1
SCALE
  2
AcDbScale
  3
ObjectDBX Classes
 90
     1153
 91
        3
280
     0
281
     0
  0
CLASS
  1
TABLESTYLE
  2
AcDbTableStyle
  3
ObjectDBX Classes
 90
     4095
 91
        3
280
     0
281
     0
  0
CLASS
  1
MLEADERSTYLE
  2
AcDbMLeaderStyle
  3
ACDB_MLEADERSTYLE_CLASS
 90
     4095
 91
        3
280
     0
281
     0
  0
CLASS
  1
SUN
  2
AcDbSun
  3
SCENEOE
 90
     1153
 91
        3
280
     0
281
     0
  0
CLASS
  1
DICTIONARYVAR
  2
AcDbDictionaryVar
  3
ObjectDBX Classes
 90
        0
 91
        3
280
     0
281
     0
  0
CLASS
  1
CELLSTYLEMAP
  2
AcDbCellStyleMap
  3
ObjectDBX Classes
 90
     1152
 91
        3
280
     0
281
     0
  0
ENDSEC
  0
SECTION
  2
TABLES
  0
TABLE
  2
VPORT
  5
8
330
0
100
AcDbSymbolTable
 70
     1
  0
VPORT
  5
29
330
8
100
AcDbSymbolTableRecord
100
AcDbViewportTableRecord
  2
*Active
 70
     0
 10
0.0
 20
0.0
 11
1.0
 21
1.0
 12
10.42990654205607
 22
4.5
 13
0.0
 23
0.0
 14
0.5
 24
0.5
 15
0.5
 25
0.5
 16
0.0
 26
0.0
 36
1.0
 17
0.0
 27
0.0
 37
0.0
 40
9.0
 41
1.972972972850329
 42
50.0
 43
0.0
 44
0.0
 50
0.0
 51
0.0
 71
     0
 72
   100
 73
     1
 74
     3
 75
     0
 76
     0
 77
     0
 78
     0
281
     0
 65
     1
110
0.0
120
0.0
130
0.0
111
1.0
121
0.0
131
0.0
112
0.0
122
1.0
132
0.0
 79
     0
146
0.0
348
2F
 60
     3
 61
     5
292
     1
282
     1
141
0.0
142
0.0
 63
   250
361
5D
  0
ENDTAB
  0
TABLE
  2
LTYPE
  5
5
330
0
100
AcDbSymbolTable
 70
     1
  0
LTYPE
  5
14
330
5
100
AcDbSymbolTableRecord
100
AcDbLinetypeTableRecord
  2
ByBlock
 70
     0
  3

 72
    65
 73
     0
 40
0.0
  0
LTYPE
  5
15
330
5
100
AcDbSymbolTableRecord
100
AcDbLinetypeTableRecord
  2
ByLayer
 70
     0
  3

 72
    65
 73
     0
 40
0.0
  0
LTYPE
  5
16
330
5
100
AcDbSymbolTableRecord
100
AcDbLinetypeTableRecord
  2
Continuous
 70
     0
  3
Solid line
 72
    65
 73
     0
 40
0.0
  0
ENDTAB
  0
TABLE
  2
LAYER
  5
2
330
0
100
AcDbSymbolTable
 70
     2
  0
LAYER
  5
10
330
2
100
AcDbSymbolTableRecord
100
AcDbLayerTableRecord
  2
0
 70
     0
 62
     7
  6
Continuous
370
    -3
390
F
347
46
348
0
  0
LAYER
  5
5F
330
2
100
AcDbSymbolTableRecord
100
AcDbLayerTableRecord
  2
Layer 1
 70
     0
 62
     7
  6
Continuous
370
    -3
390
F
347
46
348
0
  0
ENDTAB
  0
TABLE
  2
STYLE
  5
3
330
0
100
AcDbSymbolTable
 70
     1
  0
STYLE
  5
11
330
3
100
AcDbSymbolTableRecord
100
AcDbTextStyleTableRecord
  2
Standard
 70
     0
 40
0.0
 41
1.0
 50
0.0
 71
     0
 42
0.2
  3
txt
  4

  0
ENDTAB
  0
TABLE
  2
VIEW
  5
6
330
0
100
AcDbSymbolTable
 70
     0
  0
ENDTAB
  0
TABLE
  2
UCS
  5
7
330
0
100
AcDbSymbolTable
 70
     0
  0
ENDTAB
  0
TABLE
  2
APPID
  5
9
330
0
100
AcDbSymbolTable
 70
     2
  0
APPID
  5
12
330
9
100
AcDbSymbolTableRecord
100
AcDbRegAppTableRecord
  2
ACAD
 70
     0
  0
APPID
  5
5E
330
9
100
AcDbSymbolTableRecord
100
AcDbRegAppTableRecord
  2
ODA
 70
     0
  0
ENDTAB
  0
TABLE
  2
DIMSTYLE
  5
A
330
0
100
AcDbSymbolTable
 70
     1
100
AcDbDimStyleTable
  0
DIMSTYLE
105
27
330
A
100
AcDbSymbolTableRecord
100
AcDbDimStyleTableRecord
  2
Standard
 70
     0
178
     0
340
11
  0
ENDTAB
  0
TABLE
  2
BLOCK_RECORD
  5
1
330
0
100
AcDbSymbolTable
 70
     1
  0
BLOCK_RECORD
  5
1F
330
1
100
AcDbSymbolTableRecord
100
AcDbBlockTableRecord
  2
*Model_Space
340
22
 70
     0
280
     1
281
     0
  0
BLOCK_RECORD
  5
1B
330
1
100
AcDbSymbolTableRecord
100
AcDbBlockTableRecord
  2
*Paper_Space
340
1E
 70
     0
280
     1
281
     0
  0
BLOCK_RECORD
  5
23
330
1
100
AcDbSymbolTableRecord
100
AcDbBlockTableRecord
  2
*Paper_Space0
340
26
 70
     0
280
     1
281
     0
  0
ENDTAB
  0
ENDSEC
  0
SECTION
  2
BLOCKS
  0
BLOCK
  5
20
330
1F
100
AcDbEntity
  8
0
100
AcDbBlockBegin
  2
*Model_Space
 70
     0
 10
0.0
 20
0.0
 30
0.0
  3
*Model_Space
  1

  0
ENDBLK
  5
21
330
1F
100
AcDbEntity
  8
0
100
AcDbBlockEnd
  0
BLOCK
  5
1C
330
1B
100
AcDbEntity
 67
     1
  8
0
100
AcDbBlockBegin
  2
*Paper_Space
 70
     0
 10
0.0
 20
0.0
 30
0.0
  3
*Paper_Space
  1

  0
ENDBLK
  5
1D
330
1B
100
AcDbEntity
 67
     1
  8
0
100
AcDbBlockEnd
  0
BLOCK
  5
24
330
23
100
AcDbEntity
  8
0
100
AcDbBlockBegin
  2
*Paper_Space0
 70
     0
 10
0.0
 20
0.0
 30
0.0
  3
*Paper_Space0
  1

  0
ENDBLK
  5
25
330
23
100
AcDbEntity
  8
0
100
AcDbBlockEnd
  0
ENDSEC
  0
SECTION
  2
ENTITIES
  0
SPLINE
  5
60
330
1F
100
AcDbEntity
  8
Layer 1
 62
   250
370
    20
100
AcDbSpline
210
0.0
220
0.0
230
1.0
 70
     8
 71
     3
 72
    53
 73
    49
 74
     0
 42
0.0000000001
 43
0.0000000001
 40
0.0
 40
0.0
 40
0.0
 40
0.0
 40
0.0625
 40
0.0625
 40
0.0625
 40
0.125
 40
0.125
 40
0.125
 40
0.1875
 40
0.1875
 40
0.1875
 40
0.25
 40
0.25
 40
0.25
 40
0.3125
 40
0.3125
 40
0.3125
 40
0.375
 40
0.375
 40
0.375
 40
0.4375
 40
0.4375
 40
0.4375
 40
0.5
 40
0.5
 40
0.5
 40
0.5625
 40
0.5625
 40
0.5625
 40
0.625
 40
0.625
 40
0.625
 40
0.6875
 40
0.6875
 40
0.6875
 40
0.75
 40
0.75
 40
0.75
 40
0.8125
 40
0.8125
 40
0.8125
 40
0.875
 40
0.875
 40
0.875
 40
0.9375
 40
0.9375
 40
0.9375
 40
1.0
 40
1.0
 40
1.0
 40
1.0
 10
-301.7076
 20
0.1355
 30
0.0
 10
-301.7076
 20
0.1355
 30
0.0
 10
-301.6757
 20
72.799
 30
0.0
 10
-301.6757
 20
72.799
 30
0.0
 10
-301.6757
 20
72.799
 30
0.0
 10
-236.0811
 20
110.3431
 30
0.0
 10
-236.0811
 20
110.3431
 30
0.0
 10
-236.0811
 20
110.3431
 30
0.0
 10
-277.1086
 20
180.9406
 30
0.0
 10
-277.1086
 20
180.9406
 30
0.0
 10
-277.1086
 20
180.9406
 30
0.0
 10
-342.7224
 20
143.274
 30
0.0
 10
-342.7224
 20
143.274
 30
0.0
 10
-342.7224
 20
143.274
 30
0.0
 10
-408.3536
 20
180.8647
 30
0.0
 10
-408.3536
 20
180.8647
 30
0.0
 10
-408.3536
 20
180.8647
 30
0.0
 10
-447.695
 20
113.1749
 30
0.0
 10
-447.695
 20
113.1749
 30
0.0
 10
-447.695
 20
113.1749
 30
0.0
 10
-381.6773
 20
75.379
 30
0.0
 10
-381.6773
 20
75.379
 30
0.0
 10
-381.6773
 20
75.379
 30
0.0
 10
-381.6343
 20
0.1355
 30
0.0
 10
-381.6343
 20
0.1355
 30
0.0
 10
-381.6343
 20
0.1355
 30
0.0
 10
-381.6773
 20
-75.1149
 30
0.0
 10
-381.6773
 20
-75.1149
 30
0.0
 10
-381.6773
 20
-75.1149
 30
0.0
 10
-447.695
 20
-112.9264
 30
0.0
 10
-447.695
 20
-112.9264
 30
0.0
 10
-447.695
 20
-112.9264
 30
0.0
 10
-408.3536
 20
-180.5955
 30
0.0
 10
-408.3536
 20
-180.5955
 30
0.0
 10
-408.3536
 20
-180.5955
 30
0.0
 10
-342.7224
 20
-143.01
 30
0.0
 10
-342.7224
 20
-143.01
 30
0.0
 10
-342.7224
 20
-143.01
 30
0.0
 10
-277.1086
 20
-180.6938
 30
0.0
 10
-277.1086
 20
-180.6938
 30
0.0
 10
-277.1086
 20
-180.6938
 30
0.0
 10
-236.0811
 20
-110.0929
 30
0.0
 10
-236.0811
 20
-110.0929
 30
0.0
 10
-236.0811
 20
-110.0929
 30
0.0
 10
-301.6757
 20
-72.535
 30
0.0
 10
-301.6757
 20
-72.535
 30
0.0
 10
-301.6757
 20
-72.535
 30
0.0
 10
-301.706
 20
0.1355
 30
0.0
 10
-301.706
 20
0.1355
 30
0.0
  0
SPLINE
  5
61
330
1F
100
AcDbEntity
  8
Layer 1
 62
   250
370
    20
100
AcDbSpline
210
0.0
220
0.0
230
1.0
 70
     8
 71
     3
 72
    29
 73
    25
 74
     0
 42
0.0000000001
 43
0.0000000001
 40
0.0
 40
0.0
 40
0.0
 40
0.0
 40
0.125
 40
0.125
 40
0.125
 40
0.25
 40
0.25
 40
0.25
 40
0.375
 40
0.375
 40
0.375
 40
0.5
 40
0.5
 40
0.5
 40
0.625
 40
0.625
 40
0.625
 40
0.75
 40
0.75
 40
0.75
 40
0.875
 40
0.875
 40
0.875
 40
1.0
 40
1.0
 40
1.0
 40
1.0
 10
-262.5211
 20
0.1459
 30
0.0
 10
-262.5211
 20
0.1459
 30
0.0
 10
-262.4987
 20
-50.0378
 30
0.0
 10
-262.4987
 20
-50.0378
 30
0.0
 10
-262.4987
 20
-50.0378
 30
0.0
 10
-169.9006
 20
-103.0773
 30
0.0
 10
-169.9006
 20
-103.0773
 30
0.0
 10
-169.9006
 20
-103.0773
 30
0.0
 10
-77.3551
 20
-49.936
 30
0.0
 10
-77.3551
 20
-49.936
 30
0.0
 10
-77.3551
 20
-49.936
 30
0.0
 10
-77.395
 20
0.1355
 30
0.0
 10
-77.395
 20
0.1355
 30
0.0
 10
-77.395
 20
0.1355
 30
0.0
 10
-77.3551
 20
50.1897
 30
0.0
 10
-77.3551
 20
50.1897
 30
0.0
 10
-77.3551
 20
50.1897
 30
0.0
 10
-169.9006
 20
103.3206
 30
0.0
 10
-169.9006
 20
103.3206
 30
0.0
 10
-169.9006
 20
103.3206
 30
0.0
 10
-262.5003
 20
50.2863
 30
0.0
 10
-262.5003
 20
50.2863
 30
0.0
 10
-262.5003
 20
50.2863
 30
0.0
 10
-262.5211
 20
0.1079
 30
0.0
 10
-262.5211
 20
0.1079
 30
0.0
  0
SPLINE
  5
62
330
1F
100
AcDbEntity
  8
Layer 1
 62
   250
370
    20
100
AcDbSpline
210
0.0
220
0.0
230
1.0
 70
    11
 71
     3
 72
    53
 73
    49
 74
     0
 42
0.0000000001
 43
0.0000000001
 40
0.0
 40
0.0
 40
0.0
 40
0.0
 40
0.0625
 40
0.0625
 40
0.0625
 40
0.125
 40
0.125
 40
0.125
 40
0.1875
 40
0.1875
 40
0.1875
 40
0.25
 40
0.25
 40
0.25
 40
0.3125
 40
0.3125
 40
0.3125
 40
0.375
 40
0.375
 40
0.375
 40
0.4375
 40
0.4375
 40
0.4375
 40
0.5
 40
0.5
 40
0.5
 40
0.5625
 40
0.5625
 40
0.5625
 40
0.625
 40
0.625
 40
0.625
 40
0.6875
 40
0.6875
 40
0.6875
 40
0.75
 40
0.75
 40
0.75
 40
0.8125
 40
0.8125
 40
0.8125
 40
0.875
 40
0.875
 40
0.875
 40
0.9375
 40
0.9375
 40
0.9375
 40
1.0
 40
1.0
 40
1.0
 40
1.0
 10
38.9064
 20
0.1355
 30
0.0
 10
38.9064
 20
0.1355
 30
0.0
 10
38.9383
 20
-75.1149
 30
0.0
 10
38.9383
 20
-75.1149
 30
0.0
 10
38.9383
 20
-75.1149
 30
0.0
 10
104.9528
 20
-112.9264
 30
0.0
 10
104.9528
 20
-112.9264
 30
0.0
 10
104.9528
 20
-112.9264
 30
0.0
 10
65.6146
 20
-180.5955
 30
0.0
 10
65.6146
 20
-180.5955
 30
0.0
 10
65.6146
 20
-180.5955
 30
0.0
 10
-0.0215
 20
-143.01
 30
0.0
 10
-0.0215
 20
-143.01
 30
0.0
 10
-0.0215
 20
-143.01
 30
0.0
 10
-66.582
 20
-181.2508
 30
0.0
 10
-66.582
 20
-181.2508
 30
0.0
 10
-66.582
 20
-181.2508
 30
0.0
 10
-106.923
 20
-111.852
 30
0.0
 10
-106.923
 20
-111.852
 30
0.0
 10
-106.923
 20
-111.852
 30
0.0
 10
-38.1638
 20
-72.3746
 30
0.0
 10
-38.1638
 20
-72.3746
 30
0.0
 10
-38.1638
 20
-72.3746
 30
0.0
 10
-38.2101
 20
0.1355
 30
0.0
 10
-38.2101
 20
0.1355
 30
0.0
 10
-38.2101
 20
0.1355
 30
0.0
 10
-38.1638
 20
72.6282
 30
0.0
 10
-38.1638
 20
72.6282
 30
0.0
 10
-38.1638
 20
72.6282
 30
0.0
 10
-106.923
 20
112.1126
 30
0.0
 10
-106.923
 20
112.1126
 30
0.0
 10
-106.923
 20
112.1126
 30
0.0
 10
-66.582
 20
181.4942
 30
0.0
 10
-66.582
 20
181.4942
 30
0.0
 10
-66.582
 20
181.4942
 30
0.0
 10
-0.0215
 20
143.274
 30
0.0
 10
-0.0215
 20
143.274
 30
0.0
 10
-0.0215
 20
143.274
 30
0.0
 10
65.6146
 20
180.8647
 30
0.0
 10
65.6146
 20
180.8647
 30
0.0
 10
65.6146
 20
180.8647
 30
0.0
 10
104.9528
 20
113.1749
 30
0.0
 10
104.9528
 20
113.1749
 30
0.0
 10
104.9528
 20
113.1749
 30
0.0
 10
38.9383
 20
75.379
 30
0.0
 10
38.9383
 20
75.379
 30
0.0
 10
38.9383
 20
75.379
 30
0.0
 10
38.9064
 20
0.1355
 30
0.0
 10
38.9064
 20
0.1355
 30
0.0
  0
SPLINE
  5
63
330
1F
100
AcDbEntity
  8
Layer 1
 62
   250
370
    20
100
AcDbSpline
210
0.0
220
0.0
230
1.0
 70
     8
 71
     3
 72
    29
 73
    25
 74
     0
 42
0.0000000001
 43
0.0000000001
 40
0.0
 40
0.0
 40
0.0
 40
0.0
 40
0.125
 40
0.125
 40
0.125
 40
0.25
 40
0.25
 40
0.25
 40
0.375
 40
0.375
 40
0.375
 40
0.5
 40
0.5
 40
0.5
 40
0.625
 40
0.625
 40
0.625
 40
0.75
 40
0.75
 40
0.75
 40
0.875
 40
0.875
 40
0.875
 40
1.0
 40
1.0
 40
1.0
 40
1.0
 10
78.0881
 20
0.1459
 30
0.0
 10
78.0881
 20
0.1459
 30
0.0
 10
78.12
 20
-52.6333
 30
0.0
 10
78.12
 20
-52.6333
 30
0.0
 10
78.12
 20
-52.6333
 30
0.0
 10
170.7119
 20
-105.6556
 30
0.0
 10
170.7119
 20
-105.6556
 30
0.0
 10
170.7119
 20
-105.6556
 30
0.0
 10
263.2605
 20
-52.5143
 30
0.0
 10
263.2605
 20
-52.5143
 30
0.0
 10
263.2605
 20
-52.5143
 30
0.0
 10
263.2175
 20
0.1355
 30
0.0
 10
263.2175
 20
0.1355
 30
0.0
 10
263.2175
 20
0.1355
 30
0.0
 10
263.2605
 20
52.7817
 30
0.0
 10
263.2605
 20
52.7817
 30
0.0
 10
263.2605
 20
52.7817
 30
0.0
 10
170.7119
 20
105.9196
 30
0.0
 10
170.7119
 20
105.9196
 30
0.0
 10
170.7119
 20
105.9196
 30
0.0
 10
78.12
 20
52.887
 30
0.0
 10
78.12
 20
52.887
 30
0.0
 10
78.12
 20
52.887
 30
0.0
 10
78.0881
 20
0.1079
 30
0.0
 10
78.0881
 20
0.1079
 30
0.0
  0
SPLINE
  5
64
330
1F
100
AcDbEntity
  8
Layer 1
 62
   250
370
    20
100
AcDbSpline
210
0.0
220
0.0
230
1.0
 70
    11
 71
     3
 72
    53
 73
    49
 74
     0
 42
0.0000000001
 43
0.0000000001
 40
0.0
 40
0.0
 40
0.0
 40
0.0
 40
0.0625
 40
0.0625
 40
0.0625
 40
0.125
 40
0.125
 40
0.125
 40
0.1875
 40
0.1875
 40
0.1875
 40
0.25
 40
0.25
 40
0.25
 40
0.3125
 40
0.3125
 40
0.3125
 40
0.375
 40
0.375
 40
0.375
 40
0.4375
 40
0.4375
 40
0.4375
 40
0.5
 40
0.5
 40
0.5
 40
0.5625
 40
0.5625
 40
0.5625
 40
0.625
 40
0.625
 40
0.625
 40
0.6875
 40
0.6875
 40
0.6875
 40
0.75
 40
0.75
 40
0.75
 40
0.8125
 40
0.8125
 40
0.8125
 40
0.875
 40
0.875
 40
0.875
 40
0.9375
 40
0.9375
 40
0.9375
 40
1.0
 40
1.0
 40
1.0
 40
1.0
 10
381.6281
 20
0.1355
 30
0.0
 10
381.6281
 20
0.1355
 30
0.0
 10
381.6711
 20
-74.7941
 30
0.0
 10
381.6711
 20
-74.7941
 30
0.0
 10
381.6711
 20
-74.7941
 30
0.0
 10
447.7767
 20
-112.6452
 30
0.0
 10
447.7767
 20
-112.6452
 30
0.0
 10
447.7767
 20
-112.6452
 30
0.0
 10
408.274
 20
-180.6058
 30
0.0
 10
408.274
 20
-180.6058
 30
0.0
 10
408.274
 20
-180.6058
 30
0.0
 10
341.5042
 20
-142.3857
 30
0.0
 10
341.5042
 20
-142.3857
 30
0.0
 10
341.5042
 20
-142.3857
 30
0.0
 10
275.5168
 20
-180.2799
 30
0.0
 10
275.5168
 20
-180.2799
 30
0.0
 10
275.5168
 20
-180.2799
 30
0.0
 10
236.3623
 20
-112.9195
 30
0.0
 10
236.3623
 20
-112.9195
 30
0.0
 10
236.3623
 20
-112.9195
 30
0.0
 10
302.4454
 20
-74.9752
 30
0.0
 10
302.4454
 20
-74.9752
 30
0.0
 10
302.4454
 20
-74.9752
 30
0.0
 10
302.4072
 20
0.1355
 30
0.0
 10
302.4072
 20
0.1355
 30
0.0
 10
302.4072
 20
0.1355
 30
0.0
 10
302.4454
 20
75.2237
 30
0.0
 10
302.4454
 20
75.2237
 30
0.0
 10
302.4454
 20
75.2237
 30
0.0
 10
236.3623
 20
113.1646
 30
0.0
 10
236.3623
 20
113.1646
 30
0.0
 10
236.3623
 20
113.1646
 30
0.0
 10
275.5168
 20
180.5336
 30
0.0
 10
275.5168
 20
180.5336
 30
0.0
 10
275.5168
 20
180.5336
 30
0.0
 10
341.5042
 20
142.6411
 30
0.0
 10
341.5042
 20
142.6411
 30
0.0
 10
341.5042
 20
142.6411
 30
0.0
 10
408.274
 20
180.8647
 30
0.0
 10
408.274
 20
180.8647
 30
0.0
 10
408.274
 20
180.8647
 30
0.0
 10
447.7767
 20
112.9058
 30
0.0
 10
447.7767
 20
112.9058
 30
0.0
 10
447.7767
 20
112.9058
 30
0.0
 10
381.6711
 20
75.0495
 30
0.0
 10
381.6711
 20
75.0495
 30
0.0
 10
381.6711
 20
75.0495
 30
0.0
 10
381.6281
 20
0.1355
 30
0.0
 10
381.6281
 20
0.1355
 30
0.0
  0
SPLINE
  5
65
330
1F
100
AcDbEntity
  8
Layer 1
 62
   250
370
    20
100
AcDbSpline
210
0.0
220
0.0
230
1.0
 70
     8
 71
     3
 72
    29
 73
    25
 74
     0
 42
0.0000000001
 43
0.0000000001
 40
0.0
 40
0.0
 40
0.0
 40
0.0
 40
0.125
 40
0.125
 40
0.125
 40
0.25
 40
0.25
 40
0.25
 40
0.375
 40
0.375
 40
0.375
 40
0.5
 40
0.5
 40
0.5
 40
0.625
 40
0.625
 40
0.625
 40
0.75
 40
0.75
 40
0.75
 40
0.875
 40
0.875
 40
0.875
 40
1.0
 40
1.0
 40
1.0
 40
1.0
 10
420.8033
 20
0.1459
 30
0.0
 10
420.8033
 20
0.1459
 30
0.0
 10
420.8481
 20
-52.2832
 30
0.0
 10
420.8481
 20
-52.2832
 30
0.0
 10
420.8481
 20
-52.2832
 30
0.0
 10
513.4366
 20
-105.3261
 30
0.0
 10
513.4366
 20
-105.3261
 30
0.0
 10
513.4366
 20
-105.3261
 30
0.0
 10
605.979
 20
-52.19
 30
0.0
 10
605.979
 20
-52.19
 30
0.0
 10
605.979
 20
-52.19
 30
0.0
 10
605.939
 20
0.1355
 30
0.0
 10
605.939
 20
0.1355
 30
0.0
 10
605.939
 20
0.1355
 30
0.0
 10
605.979
 20
52.4352
 30
0.0
 10
605.979
 20
52.4352
 30
0.0
 10
605.979
 20
52.4352
 30
0.0
 10
513.4366
 20
105.5729
 30
0.0
 10
513.4366
 20
105.5729
 30
0.0
 10
513.4366
 20
105.5729
 30
0.0
 10
420.8481
 20
52.5455
 30
0.0
 10
420.8481
 20
52.5455
 30
0.0
 10
420.8481
 20
52.5455
 30
0.0
 10
420.8033
 20
0.1079
 30
0.0
 10
420.8033
 20
0.1079
 30
0.0
  0
SPLINE
  5
66
330
1F
100
AcDbEntity
  8
Layer 1
 62
   250
370
    20
100
AcDbSpline
210
0.0
220
0.0
230
1.0
 70
    11
 71
     3
 72
    53
 73
    49
 74
     0
 42
0.0000000001
 43
0.0000000001
 40
0.0
 40
0.0
 40
0.0
 40
0.0
 40
0.0625
 40
0.0625
 40
0.0625
 40
0.125
 40
0.125
 40
0.125
 40
0.1875
 40
0.1875
 40
0.1875
 40
0.25
 40
0.25
 40
0.25
 40
0.3125
 40
0.3125
 40
0.3125
 40
0.375
 40
0.375
 40
0.375
 40
0.4375
 40
0.4375
 40
0.4375
 40
0.5
 40
0.5
 40
0.5
 40
0.5625
 40
0.5625
 40
0.5625
 40
0.625
 40
0.625
 40
0.625
 40
0.6875
 40
0.6875
 40
0.6875
 40
0.75
 40
0.75
 40
0.75
 40
0.8125
 40
0.8125
 40
0.8125
 40
0.875
 40
0.875
 40
0.875
 40
0.9375
 40
0.9375
 40
0.9375
 40
1.0
 40
1.0
 40
1.0
 40
1.0
 10
645.14
 20
0.1355
 30
0.0
 10
645.14
 20
0.1355
 30
0.0
 10
645.1766
 20
-74.6286
 30
0.0
 10
645.1766
 20
-74.6286
 30
0.0
 10
645.1766
 20
-74.6286
 30
0.0
 10
578.9083
 20
-112.6953
 30
0.0
 10
578.9083
 20
-112.6953
 30
0.0
 10
578.9083
 20
-112.6953
 30
0.0
 10
618.5802
 20
-180.9525
 30
0.0
 10
618.5802
 20
-180.9525
 30
0.0
 10
618.5802
 20
-180.9525
 30
0.0
 10
684.1429
 20
-143.3066
 30
0.0
 10
684.1429
 20
-143.3066
 30
0.0
 10
684.1429
 20
-143.3066
 30
0.0
 10
751.4954
 20
-181.8786
 30
0.0
 10
751.4954
 20
-181.8786
 30
0.0
 10
751.4954
 20
-181.8786
 30
0.0
 10
792.9444
 20
-110.5706
 30
0.0
 10
792.9444
 20
-110.5706
 30
0.0
 10
792.9444
 20
-110.5706
 30
0.0
 10
726.7655
 20
-72.5677
 30
0.0
 10
726.7655
 20
-72.5677
 30
0.0
 10
726.7655
 20
-72.5677
 30
0.0
 10
726.799
 20
0.1355
 30
0.0
 10
726.799
 20
0.1355
 30
0.0
 10
726.799
 20
0.1355
 30
0.0
 10
726.7655
 20
72.8214
 30
0.0
 10
726.7655
 20
72.8214
 30
0.0
 10
726.7655
 20
72.8214
 30
0.0
 10
792.9444
 20
110.8312
 30
0.0
 10
792.9444
 20
110.8312
 30
0.0
 10
792.9444
 20
110.8312
 30
0.0
 10
751.4954
 20
182.1409
 30
0.0
 10
751.4954
 20
182.1409
 30
0.0
 10
751.4954
 20
182.1409
 30
0.0
 10
684.1429
 20
143.5637
 30
0.0
 10
684.1429
 20
143.5637
 30
0.0
 10
684.1429
 20
143.5637
 30
0.0
 10
618.5802
 20
181.2027
 30
0.0
 10
618.5802
 20
181.2027
 30
0.0
 10
618.5802
 20
181.2027
 30
0.0
 10
578.9083
 20
112.9489
 30
0.0
 10
578.9083
 20
112.9489
 30
0.0
 10
578.9083
 20
112.9489
 30
0.0
 10
645.1766
 20
74.8909
 30
0.0
 10
645.1766
 20
74.8909
 30
0.0
 10
645.1766
 20
74.8909
 30
0.0
 10
645.14
 20
0.1355
 30
0.0
 10
645.14
 20
0.1355
 30
0.0
  0
SPLINE
  5
67
330
1F
100
AcDbEntity
  8
Layer 1
 62
   250
370
    20
100
AcDbSpline
210
0.0
220
0.0
230
1.0
 70
     8
 71
     3
 72
    29
 73
    25
 74
     0
 42
0.0000000001
 43
0.0000000001
 40
0.0
 40
0.0
 40
0.0
 40
0.0
 40
0.125
 40
0.125
 40
0.125
 40
0.25
 40
0.25
 40
0.25
 40
0.375
 40
0.375
 40
0.375
 40
0.5
 40
0.5
 40
0.5
 40
0.625
 40
0.625
 40
0.625
 40
0.75
 40
0.75
 40
0.75
 40
0.875
 40
0.875
 40
0.875
 40
1.0
 40
1.0
 40
1.0
 40
1.0
 10
951.1244
 20
0.1459
 30
0.0
 10
951.1244
 20
0.1459
 30
0.0
 10
951.0909
 20
-50.2309
 30
0.0
 10
951.0909
 20
-50.2309
 30
0.0
 10
951.0909
 20
-50.2309
 30
0.0
 10
858.5039
 20
-103.2635
 30
0.0
 10
858.5039
 20
-103.2635
 30
0.0
 10
858.5039
 20
-103.2635
 30
0.0
 10
765.9504
 20
-50.1258
 30
0.0
 10
765.9504
 20
-50.1258
 30
0.0
 10
765.9504
 20
-50.1258
 30
0.0
 10
765.9936
 20
0.1355
 30
0.0
 10
765.9936
 20
0.1355
 30
0.0
 10
765.9936
 20
0.1355
 30
0.0
 10
765.9504
 20
50.3829
 30
0.0
 10
765.9504
 20
50.3829
 30
0.0
 10
765.9504
 20
50.3829
 30
0.0
 10
858.5039
 20
103.5155
 30
0.0
 10
858.5039
 20
103.5155
 30
0.0
 10
858.5039
 20
103.5155
 30
0.0
 10
951.0909
 20
50.476
 30
0.0
 10
951.0909
 20
50.476
 30
0.0
 10
951.0909
 20
50.476
 30
0.0
 10
951.1244
 20
0.1079
 30
0.0
 10
951.1244
 20
0.1079
 30
0.0
  0
SPLINE
  5
68
330
1F
100
AcDbEntity
  8
Layer 1
 62
   250
370
    20
100
AcDbSpline
210
0.0
220
0.0
230
1.0
 70
    11
 71
     3
 72
    53
 73
    49
 74
     0
 42
0.0000000001
 43
0.0000000001
 40
0.0
 40
0.0
 40
0.0
 40
0.0
 40
0.0625
 40
0.0625
 40
0.0625
 40
0.125
 40
0.125
 40
0.125
 40
0.1875
 40
0.1875
 40
0.1875
 40
0.25
 40
0.25
 40
0.25
 40
0.3125
 40
0.3125
 40
0.3125
 40
0.375
 40
0.375
 40
0.375
 40
0.4375
 40
0.4375
 40
0.4375
 40
0.5
 40
0.5
 40
0.5
 40
0.5625
 40
0.5625
 40
0.5625
 40
0.625
 40
0.625
 40
0.625
 40
0.6875
 40
0.6875
 40
0.6875
 40
0.75
 40
0.75
 40
0.75
 40
0.8125
 40
0.8125
 40
0.8125
 40
0.875
 40
0.875
 40
0.875
 40
0.9375
 40
0.9375
 40
0.9375
 40
1.0
 40
1.0
 40
1.0
 40
1.0
 10
990.3046
 20
0.1355
 30
0.0
 10
990.3046
 20
0.1355
 30
0.0
 10
990.2695
 20
-72.7195
 30
0.0
 10
990.2695
 20
-72.7195
 30
0.0
 10
990.2695
 20
-72.7195
 30
0.0
 10
922.2734
 20
-111.6588
 30
0.0
 10
922.2734
 20
-111.6588
 30
0.0
 10
922.2734
 20
-111.6588
 30
0.0
 10
962.7629
 20
-181.3284
 30
0.0
 10
962.7629
 20
-181.3284
 30
0.0
 10
962.7629
 20
-181.3284
 30
0.0
 10
1029.1734
 20
-143.3066
 30
0.0
 10
1029.1734
 20
-143.3066
 30
0.0
 10
1029.1734
 20
-143.3066
 30
0.0
 10
1094.7152
 20
-180.9525
 30
0.0
 10
1094.7152
 20
-180.9525
 30
0.0
 10
1094.7152
 20
-180.9525
 30
0.0
 10
1134.3888
 20
-112.6918
 30
0.0
 10
1134.3888
 20
-112.6918
 30
0.0
 10
1134.3888
 20
-112.6918
 30
0.0
 10
1068.1236
 20
-74.6286
 30
0.0
 10
1068.1236
 20
-74.6286
 30
0.0
 10
1068.1236
 20
-74.6286
 30
0.0
 10
1068.1763
 20
0.1355
 30
0.0
 10
1068.1763
 20
0.1355
 30
0.0
 10
1068.1763
 20
0.1355
 30
0.0
 10
1068.1236
 20
74.8909
 30
0.0
 10
1068.1236
 20
74.8909
 30
0.0
 10
1068.1236
 20
74.8909
 30
0.0
 10
1134.3888
 20
112.9489
 30
0.0
 10
1134.3888
 20
112.9489
 30
0.0
 10
1134.3888
 20
112.9489
 30
0.0
 10
1094.7152
 20
181.2027
 30
0.0
 10
1094.7152
 20
181.2027
 30
0.0
 10
1094.7152
 20
181.2027
 30
0.0
 10
1029.1734
 20
143.5637
 30
0.0
 10
1029.1734
 20
143.5637
 30
0.0
 10
1029.1734
 20
143.5637
 30
0.0
 10
962.7629
 20
181.589
 30
0.0
 10
962.7629
 20
181.589
 30
0.0
 10
962.7629
 20
181.589
 30
0.0
 10
922.2734
 20
111.9228
 30
0.0
 10
922.2734
 20
111.9228
 30
0.0
 10
922.2734
 20
111.9228
 30
0.0
 10
990.2695
 20
72.9853
 30
0.0
 10
990.2695
 20
72.9853
 30
0.0
 10
990.2695
 20
72.9853
 30
0.0
 10
990.3046
 20
0.1355
 30
0.0
 10
990.3046
 20
0.1355
 30
0.0
  0
SPLINE
  5
69
330
1F
100
AcDbEntity
  8
Layer 1
 62
   250
370
    20
100
AcDbSpline
210
0.0
220
0.0
230
1.0
 70
     8
 71
     3
 72
    29
 73
    25
 74
     0
 42
0.0000000001
 43
0.0000000001
 40
0.0
 40
0.0
 40
0.0
 40
0.0
 40
0.125
 40
0.125
 40
0.125
 40
0.25
 40
0.25
 40
0.25
 40
0.375
 40
0.375
 40
0.375
 40
0.5
 40
0.5
 40
0.5
 40
0.625
 40
0.625
 40
0.625
 40
0.75
 40
0.75
 40
0.75
 40
0.875
 40
0.875
 40
0.875
 40
1.0
 40
1.0
 40
1.0
 40
1.0
 10
-420.832
 20
0.1459
 30
0.0
 10
-420.832
 20
0.1459
 30
0.0
 10
-420.8464
 20
-52.6333
 30
0.0
 10
-420.8464
 20
-52.6333
 30
0.0
 10
-420.8464
 20
-52.6333
 30
0.0
 10
-513.4589
 20
-105.6556
 30
0.0
 10
-513.4589
 20
-105.6556
 30
0.0
 10
-513.4589
 20
-105.6556
 30
0.0
 10
-605.9868
 20
-52.5143
 30
0.0
 10
-605.9868
 20
-52.5143
 30
0.0
 10
-605.9868
 20
-52.5143
 30
0.0
 10
-605.9645
 20
0.1355
 30
0.0
 10
-605.9645
 20
0.1355
 30
0.0
 10
-605.9645
 20
0.1355
 30
0.0
 10
-605.9868
 20
52.7817
 30
0.0
 10
-605.9868
 20
52.7817
 30
0.0
 10
-605.9868
 20
52.7817
 30
0.0
 10
-513.4589
 20
105.9196
 30
0.0
 10
-513.4589
 20
105.9196
 30
0.0
 10
-513.4589
 20
105.9196
 30
0.0
 10
-420.8464
 20
52.887
 30
0.0
 10
-420.8464
 20
52.887
 30
0.0
 10
-420.8464
 20
52.887
 30
0.0
 10
-420.832
 20
0.1079
 30
0.0
 10
-420.832
 20
0.1079
 30
0.0
  0
SPLINE
  5
6A
330
1F
100
AcDbEntity
  8
Layer 1
 62
   250
370
    20
100
AcDbSpline
210
0.0
220
0.0
230
1.0
 70
    11
 71
     3
 72
    53
 73
    49
 74
     0
 42
0.0000000001
 43
0.0000000001
 40
0.0
 40
0.0
 40
0.0
 40
0.0
 40
0.0625
 40
0.0625
 40
0.0625
 40
0.125
 40
0.125
 40
0.125
 40
0.1875
 40
0.1875
 40
0.1875
 40
0.25
 40
0.25
 40
0.25
 40
0.3125
 40
0.3125
 40
0.3125
 40
0.375
 40
0.375
 40
0.375
 40
0.4375
 40
0.4375
 40
0.4375
 40
0.5
 40
0.5
 40
0.5
 40
0.5625
 40
0.5625
 40
0.5625
 40
0.625
 40
0.625
 40
0.625
 40
0.6875
 40
0.6875
 40
0.6875
 40
0.75
 40
0.75
 40
0.75
 40
0.8125
 40
0.8125
 40
0.8125
 40
0.875
 40
0.875
 40
0.875
 40
0.9375
 40
0.9375
 40
0.9375
 40
1.0
 40
1.0
 40
1.0
 40
1.0
 10
-724.3671
 20
0.1355
 30
0.0
 10
-724.3671
 20
0.1355
 30
0.0
 10
-724.4006
 20
75.0495
 30
0.0
 10
-724.4006
 20
75.0495
 30
0.0
 10
-724.4006
 20
75.0495
 30
0.0
 10
-790.5237
 20
112.9058
 30
0.0
 10
-790.5237
 20
112.9058
 30
0.0
 10
-790.5237
 20
112.9058
 30
0.0
 10
-751.0194
 20
180.8647
 30
0.0
 10
-751.0194
 20
180.8647
 30
0.0
 10
-751.0194
 20
180.8647
 30
0.0
 10
-684.2464
 20
142.6411
 30
0.0
 10
-684.2464
 20
142.6411
 30
0.0
 10
-684.2464
 20
142.6411
 30
0.0
 10
-618.2624
 20
180.5336
 30
0.0
 10
-618.2624
 20
180.5336
 30
0.0
 10
-618.2624
 20
180.5336
 30
0.0
 10
-579.1029
 20
113.1646
 30
0.0
 10
-579.1029
 20
113.1646
 30
0.0
 10
-579.1029
 20
113.1646
 30
0.0
 10
-645.1908
 20
75.2237
 30
0.0
 10
-645.1908
 20
75.2237
 30
0.0
 10
-645.1908
 20
75.2237
 30
0.0
 10
-645.1397
 20
0.1355
 30
0.0
 10
-645.1397
 20
0.1355
 30
0.0
 10
-645.1397
 20
0.1355
 30
0.0
 10
-645.1908
 20
-74.9752
 30
0.0
 10
-645.1908
 20
-74.9752
 30
0.0
 10
-645.1908
 20
-74.9752
 30
0.0
 10
-579.1029
 20
-112.9195
 30
0.0
 10
-579.1029
 20
-112.9195
 30
0.0
 10
-579.1029
 20
-112.9195
 30
0.0
 10
-618.2624
 20
-180.2799
 30
0.0
 10
-618.2624
 20
-180.2799
 30
0.0
 10
-618.2624
 20
-180.2799
 30
0.0
 10
-684.2464
 20
-142.3857
 30
0.0
 10
-684.2464
 20
-142.3857
 30
0.0
 10
-684.2464
 20
-142.3857
 30
0.0
 10
-751.0194
 20
-180.6058
 30
0.0
 10
-751.0194
 20
-180.6058
 30
0.0
 10
-751.0194
 20
-180.6058
 30
0.0
 10
-790.5237
 20
-112.6452
 30
0.0
 10
-790.5237
 20
-112.6452
 30
0.0
 10
-790.5237
 20
-112.6452
 30
0.0
 10
-724.4006
 20
-74.7941
 30
0.0
 10
-724.4006
 20
-74.7941
 30
0.0
 10
-724.4006
 20
-74.7941
 30
0.0
 10
-724.3671
 20
0.1355
 30
0.0
 10
-724.3671
 20
0.1355
 30
0.0
  0
SPLINE
  5
6B
330
1F
100
AcDbEntity
  8
Layer 1
 62
   250
370
    20
100
AcDbSpline
210
0.0
220
0.0
230
1.0
 70
     8
 71
     3
 72
    29
 73
    25
 74
     0
 42
0.0000000001
 43
0.0000000001
 40
0.0
 40
0.0
 40
0.0
 40
0.0
 40
0.125
 40
0.125
 40
0.125
 40
0.25
 40
0.25
 40
0.25
 40
0.375
 40
0.375
 40
0.375
 40
0.5
 40
0.5
 40
0.5
 40
0.625
 40
0.625
 40
0.625
 40
0.75
 40
0.75
 40
0.75
 40
0.875
 40
0.875
 40
0.875
 40
1.0
 40
1.0
 40
1.0
 40
1.0
 10
-763.5456
 20
0.1079
 30
0.0
 10
-763.5456
 20
0.1079
 30
0.0
 10
-763.584
 20
52.5455
 30
0.0
 10
-763.584
 20
52.5455
 30
0.0
 10
-763.584
 20
52.5455
 30
0.0
 10
-856.1709
 20
105.5729
 30
0.0
 10
-856.1709
 20
105.5729
 30
0.0
 10
-856.1709
 20
105.5729
 30
0.0
 10
-948.7196
 20
52.4352
 30
0.0
 10
-948.7196
 20
52.4352
 30
0.0
 10
-948.7196
 20
52.4352
 30
0.0
 10
-948.6749
 20
0.1355
 30
0.0
 10
-948.6749
 20
0.1355
 30
0.0
 10
-948.6749
 20
0.1355
 30
0.0
 10
-948.7196
 20
-52.19
 30
0.0
 10
-948.7196
 20
-52.19
 30
0.0
 10
-948.7196
 20
-52.19
 30
0.0
 10
-856.1709
 20
-105.3261
 30
0.0
 10
-856.1709
 20
-105.3261
 30
0.0
 10
-856.1709
 20
-105.3261
 30
0.0
 10
-763.5824
 20
-52.2832
 30
0.0
 10
-763.5824
 20
-52.2832
 30
0.0
 10
-763.5824
 20
-52.2832
 30
0.0
 10
-763.5456
 20
0.1459
 30
0.0
 10
-763.5456
 20
0.1459
 30
0.0
  0
SPLINE
  5
6C
330
1F
100
AcDbEntity
  8
Layer 1
 62
   250
370
    20
100
AcDbSpline
210
0.0
220
0.0
230
1.0
 70
    11
 71
     3
 72
    53
 73
    49
 74
     0
 42
0.0000000001
 43
0.0000000001
 40
0.0
 40
0.0
 40
0.0
 40
0.0
 40
0.0625
 40
0.0625
 40
0.0625
 40
0.125
 40
0.125
 40
0.125
 40
0.1875
 40
0.1875
 40
0.1875
 40
0.25
 40
0.25
 40
0.25
 40
0.3125
 40
0.3125
 40
0.3125
 40
0.375
 40
0.375
 40
0.375
 40
0.4375
 40
0.4375
 40
0.4375
 40
0.5
 40
0.5
 40
0.5
 40
0.5625
 40
0.5625
 40
0.5625
 40
0.625
 40
0.625
 40
0.625
 40
0.6875
 40
0.6875
 40
0.6875
 40
0.75
 40
0.75
 40
0.75
 40
0.8125
 40
0.8125
 40
0.8125
 40
0.875
 40
0.875
 40
0.875
 40
0.9375
 40
0.9375
 40
0.9375
 40
1.0
 40
1.0
 40
1.0
 40
1.0
 10
-1064.9795
 20
0.1355
 30
0.0
 10
-1064.9795
 20
0.1355
 30
0.0
 10
-1065.0146
 20
-73.5179
 30
0.0
 10
-1065.0146
 20
-73.5179
 30
0.0
 10
-1065.0146
 20
-73.5179
 30
0.0
 10
-1134.7335
 20
-113.4472
 30
0.0
 10
-1134.7335
 20
-113.4472
 30
0.0
 10
-1134.7335
 20
-113.4472
 30
0.0
 10
-1093.7841
 20
-183.8998
 30
0.0
 10
-1093.7841
 20
-183.8998
 30
0.0
 10
-1093.7841
 20
-183.8998
 30
0.0
 10
-1025.6908
 20
-144.8932
 30
0.0
 10
-1025.6908
 20
-144.8932
 30
0.0
 10
-1025.6908
 20
-144.8932
 30
0.0
 10
-959.3984
 20
-182.9427
 30
0.0
 10
-959.3984
 20
-182.9427
 30
0.0
 10
-959.3984
 20
-182.9427
 30
0.0
 10
-919.2985
 20
-113.9284
 30
0.0
 10
-919.2985
 20
-113.9284
 30
0.0
 10
-919.2985
 20
-113.9284
 30
0.0
 10
-986.2967
 20
-75.4667
 30
0.0
 10
-986.2967
 20
-75.4667
 30
0.0
 10
-986.2967
 20
-75.4667
 30
0.0
 10
-986.252
 20
0.1355
 30
0.0
 10
-986.252
 20
0.1355
 30
0.0
 10
-986.252
 20
0.1355
 30
0.0
 10
-986.2967
 20
75.7222
 30
0.0
 10
-986.2967
 20
75.7222
 30
0.0
 10
-986.2967
 20
75.7222
 30
0.0
 10
-919.2985
 20
114.1924
 30
0.0
 10
-919.2985
 20
114.1924
 30
0.0
 10
-919.2985
 20
114.1924
 30
0.0
 10
-959.3984
 20
183.1946
 30
0.0
 10
-959.3984
 20
183.1946
 30
0.0
 10
-959.3984
 20
183.1946
 30
0.0
 10
-1025.6908
 20
145.1452
 30
0.0
 10
-1025.6908
 20
145.1452
 30
0.0
 10
-1025.6908
 20
145.1452
 30
0.0
 10
-1093.7873
 20
184.157
 30
0.0
 10
-1093.7873
 20
184.157
 30
0.0
 10
-1093.7873
 20
184.157
 30
0.0
 10
-1134.7335
 20
113.7043
 30
0.0
 10
-1134.7335
 20
113.7043
 30
0.0
 10
-1134.7335
 20
113.7043
 30
0.0
 10
-1065.0146
 20
73.7889
 30
0.0
 10
-1065.0146
 20
73.7889
 30
0.0
 10
-1065.0146
 20
73.7889
 30
0.0
 10
-1064.9795
 20
0.1355
 30
0.0
 10
-1064.9795
 20
0.1355
 30
0.0
  0
SPLINE
  5
6D
330
1F
100
AcDbEntity
  8
Layer 1
 62
   250
370
    20
100
AcDbSpline
210
0.0
220
0.0
230
1.0
 70
    11
 71
     3
 72
    23
 73
    19
 74
     0
 42
0.0000000001
 43
0.0000000001
 40
0.0
 40
0.0
 40
0.0
 40
0.0
 40
0.1666666666666667
 40
0.1666666666666667
 40
0.1666666666666667
 40
0.3333333333333333
 40
0.3333333333333333
 40
0.3333333333333333
 40
0.5
 40
0.5
 40
0.5
 40
0.6666666666666666
 40
0.6666666666666666
 40
0.6666666666666666
 40
0.8333333333333333
 40
0.8333333333333333
 40
0.8333333333333333
 40
1.0
 40
1.0
 40
1.0
 40
1.0
 10
-1200.0326
 20
0.1355
 30
0.0
 10
-1200.0326
 20
0.1355
 30
0.0
 10
-1200.0326
 20
-104.6777
 30
0.0
 10
-1200.0326
 20
-104.6777
 30
0.0
 10
-1200.0326
 20
-104.6777
 30
0.0
 10
-1104.95
 20
-50.2309
 30
0.0
 10
-1104.95
 20
-50.2309
 30
0.0
 10
-1104.95
 20
-50.2309
 30
0.0
 10
-1104.9244
 20
0.1355
 30
0.0
 10
-1104.9244
 20
0.1355
 30
0.0
 10
-1104.9244
 20
0.1355
 30
0.0
 10
-1104.95
 20
50.476
 30
0.0
 10
-1104.95
 20
50.476
 30
0.0
 10
-1104.95
 20
50.476
 30
0.0
 10
-1200.0326
 20
104.9383
 30
0.0
 10
-1200.0326
 20
104.9383
 30
0.0
 10
-1200.0326
 20
104.9383
 30
0.0
 10
-1200.0326
 20
0.1355
 30
0.0
 10
-1200.0326
 20
0.1355
 30
0.0
  0
SPLINE
  5
6E
330
1F
100
AcDbEntity
  8
Layer 1
 62
   250
370
    20
100
AcDbSpline
210
0.0
220
0.0
230
1.0
 70
    24
 71
     3
 72
     8
 73
     4
 74
     0
 42
0.0000000001
 43
0.0000000001
 40
0.0
 40
0.0
 40
0.0
 40
0.0
 40
1.0
 40
1.0
 40
1.0
 40
1.0
 10
1068.1763
 20
0.1355
 30
0.0
 10
1068.1763
 20
0.1355
 30
0.0
 10
1068.1236
 20
-74.6286
 30
0.0
 10
1068.1236
 20
-74.6286
 30
0.0
  0
SPLINE
  5
6F
330
1F
100
AcDbEntity
  8
Layer 1
 62
   250
370
    20
100
AcDbSpline
210
0.0
220
0.0
230
1.0
 70
    11
 71
     3
 72
    26
 73
    22
 74
     0
 42
0.0000000001
 43
0.0000000001
 40
0.0
 40
0.0
 40
0.0
 40
0.0
 40
0.1428571428571428
 40
0.1428571428571428
 40
0.1428571428571428
 40
0.2857142857142857
 40
0.2857142857142857
 40
0.2857142857142857
 40
0.4285714285714285
 40
0.4285714285714285
 40
0.4285714285714285
 40
0.5714285714285714
 40
0.5714285714285714
 40
0.5714285714285714
 40
0.7142857142857142
 40
0.7142857142857142
 40
0.7142857142857142
 40
0.8571428571428571
 40
0.8571428571428571
 40
0.8571428571428571
 40
1.0
 40
1.0
 40
1.0
 40
1.0
 10
473.3529
 20
-294.649
 30
0.0
 10
473.3529
 20
-294.649
 30
0.0
 10
473.3975
 20
-368.975
 30
0.0
 10
473.3975
 20
-368.975
 30
0.0
 10
473.3975
 20
-368.975
 30
0.0
 10
408.0425
 20
-406.5036
 30
0.0
 10
408.0425
 20
-406.5036
 30
0.0
 10
408.0425
 20
-406.5036
 30
0.0
 10
513.9844
 20
-588.7643
 30
0.0
 10
513.9844
 20
-588.7643
 30
0.0
 10
513.9844
 20
-588.7643
 30
0.0
 10
618.9747
 20
-408.1057
 30
0.0
 10
618.9747
 20
-408.1057
 30
0.0
 10
618.9747
 20
-408.1057
 30
0.0
 10
552.5243
 20
-370.0546
 30
0.0
 10
552.5243
 20
-370.0546
 30
0.0
 10
552.5243
 20
-370.0546
 30
0.0
 10
552.47
 20
-294.649
 30
0.0
 10
552.47
 20
-294.649
 30
0.0
 10
552.47
 20
-294.649
 30
0.0
 10
473.3529
 20
-294.649
 30
0.0
 10
473.3529
 20
-294.649
 30
0.0
  0
SPLINE
  5
70
330
1F
100
AcDbEntity
  8
Layer 1
 62
   250
370
    20
100
AcDbSpline
210
0.0
220
0.0
230
1.0
 70
    11
 71
     3
 72
    20
 73
    16
 74
     0
 42
0.0000000001
 43
0.0000000001
 40
0.0
 40
0.0
 40
0.0
 40
0.0
 40
0.2
 40
0.2
 40
0.2
 40
0.4
 40
0.4
 40
0.4
 40
0.6000000000000001
 40
0.6000000000000001
 40
0.6000000000000001
 40
0.8
 40
0.8
 40
0.8
 40
1.0
 40
1.0
 40
1.0
 40
1.0
 10
-1199.7118
 20
-588.7643
 30
0.0
 10
-1199.7118
 20
-588.7643
 30
0.0
 10
-1200.0326
 20
-294.6507
 30
0.0
 10
-1200.0326
 20
-294.6507
 30
0.0
 10
-1200.0326
 20
-294.6507
 30
0.0
 10
-1158.7289
 20
-294.6507
 30
0.0
 10
-1158.7289
 20
-294.6507
 30
0.0
 10
-1158.7289
 20
-294.6507
 30
0.0
 10
-1158.7608
 20
-369.8942
 30
0.0
 10
-1158.7608
 20
-369.8942
 30
0.0
 10
-1158.7608
 20
-369.8942
 30
0.0
 10
-1093.84
 20
-407.1779
 30
0.0
 10
-1093.84
 20
-407.1779
 30
0.0
 10
-1093.84
 20
-407.1779
 30
0.0
 10
-1199.7118
 20
-588.7643
 30
0.0
 10
-1199.7118
 20
-588.7643
 30
0.0
  0
SPLINE
  5
71
330
1F
100
AcDbEntity
  8
Layer 1
 62
   250
370
    20
100
AcDbSpline
210
0.0
220
0.0
230
1.0
 70
     8
 71
     3
 72
    32
 73
    28
 74
     0
 42
0.0000000001
 43
0.0000000001
 40
0.0
 40
0.0
 40
0.0
 40
0.0
 40
0.1111111111111111
 40
0.1111111111111111
 40
0.1111111111111111
 40
0.2222222222222222
 40
0.2222222222222222
 40
0.2222222222222222
 40
0.3333333333333333
 40
0.3333333333333333
 40
0.3333333333333333
 40
0.4444444444444444
 40
0.4444444444444444
 40
0.4444444444444444
 40
0.5555555555555556
 40
0.5555555555555556
 40
0.5555555555555556
 40
0.6666666666666666
 40
0.6666666666666666
 40
0.6666666666666666
 40
0.7777777777777777
 40
0.7777777777777777
 40
0.7777777777777777
 40
0.8888888888888888
 40
0.8888888888888888
 40
0.8888888888888888
 40
1.0
 40
1.0
 40
1.0
 40
1.0
 10
-824.473
 20
-132.1003
 30
0.0
 10
-824.473
 20
-132.1003
 30
0.0
 10
-784.9703
 20
-200.0609
 30
0.0
 10
-784.9703
 20
-200.0609
 30
0.0
 10
-784.9703
 20
-200.0609
 30
0.0
 10
-816.0456
 20
-217.8655
 30
0.0
 10
-816.0456
 20
-217.8655
 30
0.0
 10
-816.0456
 20
-217.8655
 30
0.0
 10
-816.0775
 20
-255.7148
 30
0.0
 10
-816.0775
 20
-255.7148
 30
0.0
 10
-816.0775
 20
-255.7148
 30
0.0
 10
-895.1851
 20
-255.7148
 30
0.0
 10
-895.1851
 20
-255.7148
 30
0.0
 10
-895.1851
 20
-255.7148
 30
0.0
 10
-895.1643
 20
-218.9278
 30
0.0
 10
-895.1643
 20
-218.9278
 30
0.0
 10
-895.1643
 20
-218.9278
 30
0.0
 10
-927.4051
 20
-200.4282
 30
0.0
 10
-927.4051
 20
-200.4282
 30
0.0
 10
-927.4051
 20
-200.4282
 30
0.0
 10
-887.7284
 20
-132.1658
 30
0.0
 10
-887.7284
 20
-132.1658
 30
0.0
 10
-887.7284
 20
-132.1658
 30
0.0
 10
-856.2093
 20
-150.279
 30
0.0
 10
-856.2093
 20
-150.279
 30
0.0
 10
-856.2093
 20
-150.279
 30
0.0
 10
-824.473
 20
-132.1037
 30
0.0
 10
-824.473
 20
-132.1037
 30
0.0
  0
SPLINE
  5
72
330
1F
100
AcDbEntity
  8
Layer 1
 62
   250
370
    20
100
AcDbSpline
210
0.0
220
0.0
230
1.0
 70
    11
 71
     3
 72
    26
 73
    22
 74
     0
 42
0.0000000001
 43
0.0000000001
 40
0.0
 40
0.0
 40
0.0
 40
0.0
 40
0.1428571428571428
 40
0.1428571428571428
 40
0.1428571428571428
 40
0.2857142857142857
 40
0.2857142857142857
 40
0.2857142857142857
 40
0.4285714285714285
 40
0.4285714285714285
 40
0.4285714285714285
 40
0.5714285714285714
 40
0.5714285714285714
 40
0.5714285714285714
 40
0.7142857142857142
 40
0.7142857142857142
 40
0.7142857142857142
 40
0.8571428571428571
 40
0.8571428571428571
 40
0.8571428571428571
 40
1.0
 40
1.0
 40
1.0
 40
1.0
 10
-619.4567
 20
-407.4073
 30
0.0
 10
-619.4567
 20
-407.4073
 30
0.0
 10
-552.6262
 20
-369.1302
 30
0.0
 10
-552.6262
 20
-369.1302
 30
0.0
 10
-552.6262
 20
-369.1302
 30
0.0
 10
-552.5783
 20
-294.6507
 30
0.0
 10
-552.5783
 20
-294.6507
 30
0.0
 10
-552.5783
 20
-294.6507
 30
0.0
 10
-474.5661
 20
-294.6507
 30
0.0
 10
-474.5661
 20
-294.6507
 30
0.0
 10
-474.5661
 20
-294.6507
 30
0.0
 10
-474.6044
 20
-369.6096
 30
0.0
 10
-474.6044
 20
-369.6096
 30
0.0
 10
-474.6044
 20
-369.6096
 30
0.0
 10
-408.665
 20
-407.4814
 30
0.0
 10
-408.665
 20
-407.4814
 30
0.0
 10
-408.665
 20
-407.4814
 30
0.0
 10
-514.0353
 20
-588.7643
 30
0.0
 10
-514.0353
 20
-588.7643
 30
0.0
 10
-514.0353
 20
-588.7643
 30
0.0
 10
-619.4567
 20
-407.4073
 30
0.0
 10
-619.4567
 20
-407.4073
 30
0.0
  0
SPLINE
  5
73
330
1F
100
AcDbEntity
  8
Layer 1
 62
   250
370
    20
100
AcDbSpline
210
0.0
220
0.0
230
1.0
 70
    11
 71
     3
 72
    20
 73
    16
 74
     0
 42
0.0000000001
 43
0.0000000001
 40
0.0
 40
0.0
 40
0.0
 40
0.0
 40
0.2
 40
0.2
 40
0.2
 40
0.4
 40
0.4
 40
0.4
 40
0.6000000000000001
 40
0.6000000000000001
 40
0.6000000000000001
 40
0.8
 40
0.8
 40
0.8
 40
1.0
 40
1.0
 40
1.0
 40
1.0
 10
1199.9674
 20
-589.8662
 30
0.0
 10
1199.9674
 20
-589.8662
 30
0.0
 10
1094.3209
 20
-408.1057
 30
0.0
 10
1094.3209
 20
-408.1057
 30
0.0
 10
1094.3209
 20
-408.1057
 30
0.0
 10
1160.7951
 20
-370.0546
 30
0.0
 10
1160.7951
 20
-370.0546
 30
0.0
 10
1160.7951
 20
-370.0546
 30
0.0
 10
1160.8415
 20
-294.6507
 30
0.0
 10
1160.8415
 20
-294.6507
 30
0.0
 10
1160.8415
 20
-294.6507
 30
0.0
 10
1199.9674
 20
-294.6507
 30
0.0
 10
1199.9674
 20
-294.6507
 30
0.0
 10
1199.9674
 20
-294.6507
 30
0.0
 10
1199.9674
 20
-589.8662
 30
0.0
 10
1199.9674
 20
-589.8662
 30
0.0
  0
SPLINE
  5
74
330
1F
100
AcDbEntity
  8
Layer 1
 62
   250
370
    20
100
AcDbSpline
210
0.0
220
0.0
230
1.0
 70
    11
 71
     3
 72
    23
 73
    19
 74
     0
 42
0.0000000001
 43
0.0000000001
 40
0.0
 40
0.0
 40
0.0
 40
0.0
 40
0.1666666666666667
 40
0.1666666666666667
 40
0.1666666666666667
 40
0.3333333333333333
 40
0.3333333333333333
 40
0.3333333333333333
 40
0.5
 40
0.5
 40
0.5
 40
0.6666666666666666
 40
0.6666666666666666
 40
0.6666666666666666
 40
0.8333333333333333
 40
0.8333333333333333
 40
0.8333333333333333
 40
1.0
 40
1.0
 40
1.0
 40
1.0
 10
1199.9674
 20
-255.7148
 30
0.0
 10
1199.9674
 20
-255.7148
 30
0.0
 10
1199.9674
 20
-150.1929
 30
0.0
 10
1199.9674
 20
-150.1929
 30
0.0
 10
1199.9674
 20
-150.1929
 30
0.0
 10
1168.3285
 20
-132.1658
 30
0.0
 10
1168.3285
 20
-132.1658
 30
0.0
 10
1168.3285
 20
-132.1658
 30
0.0
 10
1128.6534
 20
-200.4282
 30
0.0
 10
1128.6534
 20
-200.4282
 30
0.0
 10
1128.6534
 20
-200.4282
 30
0.0
 10
1160.8751
 20
-218.9278
 30
0.0
 10
1160.8751
 20
-218.9278
 30
0.0
 10
1160.8751
 20
-218.9278
 30
0.0
 10
1160.8543
 20
-255.7148
 30
0.0
 10
1160.8543
 20
-255.7148
 30
0.0
 10
1160.8543
 20
-255.7148
 30
0.0
 10
1199.9674
 20
-255.7148
 30
0.0
 10
1199.9674
 20
-255.7148
 30
0.0
  0
SPLINE
  5
75
330
1F
100
AcDbEntity
  8
Layer 1
 62
   250
370
    20
100
AcDbSpline
210
0.0
220
0.0
230
1.0
 70
    11
 71
     3
 72
    32
 73
    28
 74
     0
 42
0.0000000001
 43
0.0000000001
 40
0.0
 40
0.0
 40
0.0
 40
0.0
 40
0.1111111111111111
 40
0.1111111111111111
 40
0.1111111111111111
 40
0.2222222222222222
 40
0.2222222222222222
 40
0.2222222222222222
 40
0.3333333333333333
 40
0.3333333333333333
 40
0.3333333333333333
 40
0.4444444444444444
 40
0.4444444444444444
 40
0.4444444444444444
 40
0.5555555555555556
 40
0.5555555555555556
 40
0.5555555555555556
 40
0.6666666666666666
 40
0.6666666666666666
 40
0.6666666666666666
 40
0.7777777777777777
 40
0.7777777777777777
 40
0.7777777777777777
 40
0.8888888888888888
 40
0.8888888888888888
 40
0.8888888888888888
 40
1.0
 40
1.0
 40
1.0
 40
1.0
 10
584.666
 20
-200.4282
 30
0.0
 10
584.666
 20
-200.4282
 30
0.0
 10
552.4237
 20
-218.9278
 30
0.0
 10
552.4237
 20
-218.9278
 30
0.0
 10
552.4237
 20
-218.9278
 30
0.0
 10
552.4587
 20
-255.7148
 30
0.0
 10
552.4587
 20
-255.7148
 30
0.0
 10
552.4587
 20
-255.7148
 30
0.0
 10
473.3368
 20
-255.7148
 30
0.0
 10
473.3368
 20
-255.7148
 30
0.0
 10
473.3368
 20
-255.7148
 30
0.0
 10
473.3113
 20
-217.8655
 30
0.0
 10
473.3113
 20
-217.8655
 30
0.0
 10
473.3113
 20
-217.8655
 30
0.0
 10
442.2249
 20
-200.0609
 30
0.0
 10
442.2249
 20
-200.0609
 30
0.0
 10
442.2249
 20
-200.0609
 30
0.0
 10
481.7292
 20
-132.1037
 30
0.0
 10
481.7292
 20
-132.1037
 30
0.0
 10
481.7292
 20
-132.1037
 30
0.0
 10
513.4718
 20
-150.279
 30
0.0
 10
513.4718
 20
-150.279
 30
0.0
 10
513.4718
 20
-150.279
 30
0.0
 10
544.9877
 20
-132.1658
 30
0.0
 10
544.9877
 20
-132.1658
 30
0.0
 10
544.9877
 20
-132.1658
 30
0.0
 10
584.666
 20
-200.4282
 30
0.0
 10
584.666
 20
-200.4282
 30
0.0
  0
SPLINE
  5
76
330
1F
100
AcDbEntity
  8
Layer 1
 62
   250
370
    20
100
AcDbSpline
210
0.0
220
0.0
230
1.0
 70
    11
 71
     3
 72
    20
 73
    16
 74
     0
 42
0.0000000001
 43
0.0000000001
 40
0.0
 40
0.0
 40
0.0
 40
0.0
 40
0.2
 40
0.2
 40
0.2
 40
0.4
 40
0.4
 40
0.4
 40
0.6000000000000001
 40
0.6000000000000001
 40
0.6000000000000001
 40
0.8
 40
0.8
 40
0.8
 40
1.0
 40
1.0
 40
1.0
 40
1.0
 10
811.4009
 20
-588.7643
 30
0.0
 10
811.4009
 20
-588.7643
 30
0.0
 10
717.1884
 20
-426.6536
 30
0.0
 10
717.1884
 20
-426.6536
 30
0.0
 10
717.1884
 20
-426.6536
 30
0.0
 10
684.3169
 20
-445.5292
 30
0.0
 10
684.3169
 20
-445.5292
 30
0.0
 10
684.3169
 20
-445.5292
 30
0.0
 10
652.9223
 20
-427.5625
 30
0.0
 10
652.9223
 20
-427.5625
 30
0.0
 10
652.9223
 20
-427.5625
 30
0.0
 10
559.224
 20
-588.7643
 30
0.0
 10
559.224
 20
-588.7643
 30
0.0
 10
559.224
 20
-588.7643
 30
0.0
 10
811.4009
 20
-588.7643
 30
0.0
 10
811.4009
 20
-588.7643
 30
0.0
  0
SPLINE
  5
77
330
1F
100
AcDbEntity
  8
Layer 1
 62
   250
370
    20
100
AcDbSpline
210
0.0
220
0.0
230
1.0
 70
    11
 71
     3
 72
    32
 73
    28
 74
     0
 42
0.0000000001
 43
0.0000000001
 40
0.0
 40
0.0
 40
0.0
 40
0.0
 40
0.1111111111111111
 40
0.1111111111111111
 40
0.1111111111111111
 40
0.2222222222222222
 40
0.2222222222222222
 40
0.2222222222222222
 40
0.3333333333333333
 40
0.3333333333333333
 40
0.3333333333333333
 40
0.4444444444444444
 40
0.4444444444444444
 40
0.4444444444444444
 40
0.5555555555555556
 40
0.5555555555555556
 40
0.5555555555555556
 40
0.6666666666666666
 40
0.6666666666666666
 40
0.6666666666666666
 40
0.7777777777777777
 40
0.7777777777777777
 40
0.7777777777777777
 40
0.8888888888888888
 40
0.8888888888888888
 40
0.8888888888888888
 40
1.0
 40
1.0
 40
1.0
 40
1.0
 10
99.5639
 20
-200.0539
 30
0.0
 10
99.5639
 20
-200.0539
 30
0.0
 10
131.7712
 20
-218.4914
 30
0.0
 10
131.7712
 20
-218.4914
 30
0.0
 10
131.7712
 20
-218.4914
 30
0.0
 10
131.8031
 20
-255.7148
 30
0.0
 10
131.8031
 20
-255.7148
 30
0.0
 10
131.8031
 20
-255.7148
 30
0.0
 10
209.8202
 20
-255.7148
 30
0.0
 10
209.8202
 20
-255.7148
 30
0.0
 10
209.8202
 20
-255.7148
 30
0.0
 10
209.8089
 20
-218.0068
 30
0.0
 10
209.8089
 20
-218.0068
 30
0.0
 10
209.8089
 20
-218.0068
 30
0.0
 10
241.6011
 20
-199.7556
 30
0.0
 10
241.6011
 20
-199.7556
 30
0.0
 10
241.6011
 20
-199.7556
 30
0.0
 10
202.4514
 20
-132.4072
 30
0.0
 10
202.4514
 20
-132.4072
 30
0.0
 10
202.4514
 20
-132.4072
 30
0.0
 10
170.7518
 20
-150.5964
 30
0.0
 10
170.7518
 20
-150.5964
 30
0.0
 10
170.7518
 20
-150.5964
 30
0.0
 10
138.9037
 20
-132.3572
 30
0.0
 10
138.9037
 20
-132.3572
 30
0.0
 10
138.9037
 20
-132.3572
 30
0.0
 10
99.5639
 20
-200.0539
 30
0.0
 10
99.5639
 20
-200.0539
 30
0.0
  0
SPLINE
  5
78
330
1F
100
AcDbEntity
  8
Layer 1
 62
   250
370
    20
100
AcDbSpline
210
0.0
220
0.0
230
1.0
 70
    11
 71
     3
 72
    20
 73
    16
 74
     0
 42
0.0000000001
 43
0.0000000001
 40
0.0
 40
0.0
 40
0.0
 40
0.0
 40
0.2
 40
0.2
 40
0.2
 40
0.4
 40
0.4
 40
0.4
 40
0.6000000000000001
 40
0.6000000000000001
 40
0.6000000000000001
 40
0.8
 40
0.8
 40
0.8
 40
1.0
 40
1.0
 40
1.0
 40
1.0
 10
-468.7925
 20
-588.7643
 30
0.0
 10
-468.7925
 20
-588.7643
 30
0.0
 10
-374.7524
 20
-426.9537
 30
0.0
 10
-374.7524
 20
-426.9537
 30
0.0
 10
-374.7524
 20
-426.9537
 30
0.0
 10
-342.8996
 20
-445.2532
 30
0.0
 10
-342.8996
 20
-445.2532
 30
0.0
 10
-342.8996
 20
-445.2532
 30
0.0
 10
-310.745
 20
-426.8312
 30
0.0
 10
-310.745
 20
-426.8312
 30
0.0
 10
-310.745
 20
-426.8312
 30
0.0
 10
-216.614
 20
-588.7643
 30
0.0
 10
-216.614
 20
-588.7643
 30
0.0
 10
-216.614
 20
-588.7643
 30
0.0
 10
-468.7925
 20
-588.7643
 30
0.0
 10
-468.7925
 20
-588.7643
 30
0.0
  0
SPLINE
  5
79
330
1F
100
AcDbEntity
  8
Layer 1
 62
   250
370
    20
100
AcDbSpline
210
0.0
220
0.0
230
1.0
 70
    11
 71
     3
 72
    20
 73
    16
 74
     0
 42
0.0000000001
 43
0.0000000001
 40
0.0
 40
0.0
 40
0.0
 40
0.0
 40
0.2
 40
0.2
 40
0.2
 40
0.4
 40
0.4
 40
0.4
 40
0.6000000000000001
 40
0.6000000000000001
 40
0.6000000000000001
 40
0.8
 40
0.8
 40
0.8
 40
1.0
 40
1.0
 40
1.0
 40
1.0
 10
-559.2957
 20
-588.7643
 30
0.0
 10
-559.2957
 20
-588.7643
 30
0.0
 10
-811.4629
 20
-588.7643
 30
0.0
 10
-811.4629
 20
-588.7643
 30
0.0
 10
-811.4629
 20
-588.7643
 30
0.0
 10
-716.8498
 20
-425.981
 30
0.0
 10
-716.8498
 20
-425.981
 30
0.0
 10
-716.8498
 20
-425.981
 30
0.0
 10
-684.4237
 20
-444.6047
 30
0.0
 10
-684.4237
 20
-444.6047
 30
0.0
 10
-684.4237
 20
-444.6047
 30
0.0
 10
-653.4091
 20
-426.8381
 30
0.0
 10
-653.4091
 20
-426.8381
 30
0.0
 10
-653.4091
 20
-426.8381
 30
0.0
 10
-559.2957
 20
-588.7643
 30
0.0
 10
-559.2957
 20
-588.7643
 30
0.0
  0
SPLINE
  5
7A
330
1F
100
AcDbEntity
  8
Layer 1
 62
   250
370
    20
100
AcDbSpline
210
0.0
220
0.0
230
1.0
 70
    11
 71
     3
 72
    26
 73
    22
 74
     0
 42
0.0000000001
 43
0.0000000001
 40
0.0
 40
0.0
 40
0.0
 40
0.0
 40
0.1428571428571428
 40
0.1428571428571428
 40
0.1428571428571428
 40
0.2857142857142857
 40
0.2857142857142857
 40
0.2857142857142857
 40
0.4285714285714285
 40
0.4285714285714285
 40
0.4285714285714285
 40
0.5714285714285714
 40
0.5714285714285714
 40
0.5714285714285714
 40
0.7142857142857142
 40
0.7142857142857142
 40
0.7142857142857142
 40
0.8571428571428571
 40
0.8571428571428571
 40
0.8571428571428571
 40
1.0
 40
1.0
 40
1.0
 40
1.0
 10
-1200.0326
 20
-255.7148
 30
0.0
 10
-1200.0326
 20
-255.7148
 30
0.0
 10
-1200.0326
 20
-146.7971
 30
0.0
 10
-1200.0326
 20
-146.7971
 30
0.0
 10
-1200.0326
 20
-146.7971
 30
0.0
 10
-1197.5721
 20
-148.2044
 30
0.0
 10
-1197.5721
 20
-148.2044
 30
0.0
 10
-1197.5721
 20
-148.2044
 30
0.0
 10
-1168.678
 20
-131.6605
 30
0.0
 10
-1168.678
 20
-131.6605
 30
0.0
 10
-1168.678
 20
-131.6605
 30
0.0
 10
-1128.1901
 20
-201.3284
 30
0.0
 10
-1128.1901
 20
-201.3284
 30
0.0
 10
-1128.1901
 20
-201.3284
 30
0.0
 10
-1158.6841
 20
-218.7881
 30
0.0
 10
-1158.6841
 20
-218.7881
 30
0.0
 10
-1158.6841
 20
-218.7881
 30
0.0
 10
-1158.6922
 20
-255.7148
 30
0.0
 10
-1158.6922
 20
-255.7148
 30
0.0
 10
-1158.6922
 20
-255.7148
 30
0.0
 10
-1200.0326
 20
-255.7148
 30
0.0
 10
-1200.0326
 20
-255.7148
 30
0.0
  0
SPLINE
  5
7B
330
1F
100
AcDbEntity
  8
Layer 1
 62
   250
370
    20
100
AcDbSpline
210
0.0
220
0.0
230
1.0
 70
    11
 71
     3
 72
    32
 73
    28
 74
     0
 42
0.0000000001
 43
0.0000000001
 40
0.0
 40
0.0
 40
0.0
 40
0.0
 40
0.1111111111111111
 40
0.1111111111111111
 40
0.1111111111111111
 40
0.2222222222222222
 40
0.2222222222222222
 40
0.2222222222222222
 40
0.3333333333333333
 40
0.3333333333333333
 40
0.3333333333333333
 40
0.4444444444444444
 40
0.4444444444444444
 40
0.4444444444444444
 40
0.5555555555555556
 40
0.5555555555555556
 40
0.5555555555555556
 40
0.6666666666666666
 40
0.6666666666666666
 40
0.6666666666666666
 40
0.7777777777777777
 40
0.7777777777777777
 40
0.7777777777777777
 40
0.8888888888888888
 40
0.8888888888888888
 40
0.8888888888888888
 40
1.0
 40
1.0
 40
1.0
 40
1.0
 10
-545.1903
 20
-132.4072
 30
0.0
 10
-545.1903
 20
-132.4072
 30
0.0
 10
-513.4748
 20
-150.5964
 30
0.0
 10
-513.4748
 20
-150.5964
 30
0.0
 10
-513.4748
 20
-150.5964
 30
0.0
 10
-481.6396
 20
-132.3572
 30
0.0
 10
-481.6396
 20
-132.3572
 30
0.0
 10
-481.6396
 20
-132.3572
 30
0.0
 10
-442.2982
 20
-200.0539
 30
0.0
 10
-442.2982
 20
-200.0539
 30
0.0
 10
-442.2982
 20
-200.0539
 30
0.0
 10
-474.5182
 20
-218.4914
 30
0.0
 10
-474.5182
 20
-218.4914
 30
0.0
 10
-474.5182
 20
-218.4914
 30
0.0
 10
-474.5311
 20
-255.7148
 30
0.0
 10
-474.5311
 20
-255.7148
 30
0.0
 10
-474.5311
 20
-255.7148
 30
0.0
 10
-552.5704
 20
-255.7148
 30
0.0
 10
-552.5704
 20
-255.7148
 30
0.0
 10
-552.5704
 20
-255.7148
 30
0.0
 10
-552.5385
 20
-218.0068
 30
0.0
 10
-552.5385
 20
-218.0068
 30
0.0
 10
-552.5385
 20
-218.0068
 30
0.0
 10
-584.3258
 20
-199.7556
 30
0.0
 10
-584.3258
 20
-199.7556
 30
0.0
 10
-584.3258
 20
-199.7556
 30
0.0
 10
-545.1903
 20
-132.4072
 30
0.0
 10
-545.1903
 20
-132.4072
 30
0.0
  0
SPLINE
  5
7C
330
1F
100
AcDbEntity
  8
Layer 1
 62
   250
370
    20
100
AcDbSpline
210
0.0
220
0.0
230
1.0
 70
     8
 71
     3
 72
    26
 73
    22
 74
     0
 42
0.0000000001
 43
0.0000000001
 40
0.0
 40
0.0
 40
0.0
 40
0.0
 40
0.1428571428571428
 40
0.1428571428571428
 40
0.1428571428571428
 40
0.2857142857142857
 40
0.2857142857142857
 40
0.2857142857142857
 40
0.4285714285714285
 40
0.4285714285714285
 40
0.4285714285714285
 40
0.5714285714285714
 40
0.5714285714285714
 40
0.5714285714285714
 40
0.7142857142857142
 40
0.7142857142857142
 40
0.7142857142857142
 40
0.8571428571428571
 40
0.8571428571428571
 40
0.8571428571428571
 40
1.0
 40
1.0
 40
1.0
 40
1.0
 10
-131.6944
 20
-294.649
 30
0.0
 10
-131.6944
 20
-294.649
 30
0.0
 10
-131.6417
 20
-369.77
 30
0.0
 10
-131.6417
 20
-369.77
 30
0.0
 10
-131.6417
 20
-369.77
 30
0.0
 10
-65.9434
 20
-407.3917
 30
0.0
 10
-65.9434
 20
-407.3917
 30
0.0
 10
-65.9434
 20
-407.3917
 30
0.0
 10
-171.3728
 20
-588.7643
 30
0.0
 10
-171.3728
 20
-588.7643
 30
0.0
 10
-171.3728
 20
-588.7643
 30
0.0
 10
-276.7972
 20
-407.3917
 30
0.0
 10
-276.7972
 20
-407.3917
 30
0.0
 10
-276.7972
 20
-407.3917
 30
0.0
 10
-211.099
 20
-369.77
 30
0.0
 10
-211.099
 20
-369.77
 30
0.0
 10
-211.099
 20
-369.77
 30
0.0
 10
-211.0527
 20
-294.6507
 30
0.0
 10
-211.0527
 20
-294.6507
 30
0.0
 10
-211.0527
 20
-294.6507
 30
0.0
 10
-131.6944
 20
-294.6507
 30
0.0
 10
-131.6944
 20
-294.6507
 30
0.0
  0
SPLINE
  5
7D
330
1F
100
AcDbEntity
  8
Layer 1
 62
   250
370
    20
100
AcDbSpline
210
0.0
220
0.0
230
1.0
 70
     8
 71
     3
 72
    32
 73
    28
 74
     0
 42
0.0000000001
 43
0.0000000001
 40
0.0
 40
0.0
 40
0.0
 40
0.0
 40
0.1111111111111111
 40
0.1111111111111111
 40
0.1111111111111111
 40
0.2222222222222222
 40
0.2222222222222222
 40
0.2222222222222222
 40
0.3333333333333333
 40
0.3333333333333333
 40
0.3333333333333333
 40
0.4444444444444444
 40
0.4444444444444444
 40
0.4444444444444444
 40
0.5555555555555556
 40
0.5555555555555556
 40
0.5555555555555556
 40
0.6666666666666666
 40
0.6666666666666666
 40
0.6666666666666666
 40
0.7777777777777777
 40
0.7777777777777777
 40
0.7777777777777777
 40
0.8888888888888888
 40
0.8888888888888888
 40
0.8888888888888888
 40
1.0
 40
1.0
 40
1.0
 40
1.0
 10
-201.1705
 20
-130.0859
 30
0.0
 10
-201.1705
 20
-130.0859
 30
0.0
 10
-169.8686
 20
-148.0199
 30
0.0
 10
-169.8686
 20
-148.0199
 30
0.0
 10
-169.8686
 20
-148.0199
 30
0.0
 10
-139.8712
 20
-130.7913
 30
0.0
 10
-139.8712
 20
-130.7913
 30
0.0
 10
-139.8712
 20
-130.7913
 30
0.0
 10
-99.5558
 20
-200.1764
 30
0.0
 10
-99.5558
 20
-200.1764
 30
0.0
 10
-99.5558
 20
-200.1764
 30
0.0
 10
-131.7391
 20
-218.6587
 30
0.0
 10
-131.7391
 20
-218.6587
 30
0.0
 10
-131.7391
 20
-218.6587
 30
0.0
 10
-131.704
 20
-255.7148
 30
0.0
 10
-131.704
 20
-255.7148
 30
0.0
 10
-131.704
 20
-255.7148
 30
0.0
 10
-211.0303
 20
-255.7148
 30
0.0
 10
-211.0303
 20
-255.7148
 30
0.0
 10
-211.0303
 20
-255.7148
 30
0.0
 10
-211.0016
 20
-218.6587
 30
0.0
 10
-211.0016
 20
-218.6587
 30
0.0
 10
-211.0016
 20
-218.6587
 30
0.0
 10
-242.2285
 20
-200.7334
 30
0.0
 10
-242.2285
 20
-200.7334
 30
0.0
 10
-242.2285
 20
-200.7334
 30
0.0
 10
-201.1673
 20
-130.0842
 30
0.0
 10
-201.1673
 20
-130.0842
 30
0.0
  0
SPLINE
  5
7E
330
1F
100
AcDbEntity
  8
Layer 1
 62
   250
370
    20
100
AcDbSpline
210
0.0
220
0.0
230
1.0
 70
    11
 71
     3
 72
    20
 73
    16
 74
     0
 42
0.0000000001
 43
0.0000000001
 40
0.0
 40
0.0
 40
0.0
 40
0.0
 40
0.2
 40
0.2
 40
0.2
 40
0.4
 40
0.4
 40
0.4
 40
0.6000000000000001
 40
0.6000000000000001
 40
0.6000000000000001
 40
0.8
 40
0.8
 40
0.8
 40
1.0
 40
1.0
 40
1.0
 40
1.0
 10
-31.9956
 20
-426.8312
 30
0.0
 10
-31.9956
 20
-426.8312
 30
0.0
 10
0.1542
 20
-445.2532
 30
0.0
 10
0.1542
 20
-445.2532
 30
0.0
 10
0.1542
 20
-445.2532
 30
0.0
 10
32.0054
 20
-426.9554
 30
0.0
 10
32.0054
 20
-426.9554
 30
0.0
 10
32.0054
 20
-426.9554
 30
0.0
 10
126.0469
 20
-588.7643
 30
0.0
 10
126.0469
 20
-588.7643
 30
0.0
 10
126.0469
 20
-588.7643
 30
0.0
 10
-126.1251
 20
-588.7643
 30
0.0
 10
-126.1251
 20
-588.7643
 30
0.0
 10
-126.1251
 20
-588.7643
 30
0.0
 10
-31.9956
 20
-426.8312
 30
0.0
 10
-31.9956
 20
-426.8312
 30
0.0
  0
SPLINE
  5
7F
330
1F
100
AcDbEntity
  8
Layer 1
 62
   250
370
    20
100
AcDbSpline
210
0.0
220
0.0
230
1.0
 70
    11
 71
     3
 72
    26
 73
    22
 74
     0
 42
0.0000000001
 43
0.0000000001
 40
0.0
 40
0.0
 40
0.0
 40
0.0
 40
0.1428571428571428
 40
0.1428571428571428
 40
0.1428571428571428
 40
0.2857142857142857
 40
0.2857142857142857
 40
0.2857142857142857
 40
0.4285714285714285
 40
0.4285714285714285
 40
0.4285714285714285
 40
0.5714285714285714
 40
0.5714285714285714
 40
0.5714285714285714
 40
0.7142857142857142
 40
0.7142857142857142
 40
0.7142857142857142
 40
0.8571428571428571
 40
0.8571428571428571
 40
0.8571428571428571
 40
1.0
 40
1.0
 40
1.0
 40
1.0
 10
131.8239
 20
-294.6507
 30
0.0
 10
131.8239
 20
-294.6507
 30
0.0
 10
209.8473
 20
-294.6507
 30
0.0
 10
209.8473
 20
-294.6507
 30
0.0
 10
209.8473
 20
-294.6507
 30
0.0
 10
209.8856
 20
-369.1302
 30
0.0
 10
209.8856
 20
-369.1302
 30
0.0
 10
209.8856
 20
-369.1302
 30
0.0
 10
276.716
 20
-407.4073
 30
0.0
 10
276.716
 20
-407.4073
 30
0.0
 10
276.716
 20
-407.4073
 30
0.0
 10
171.3091
 20
-588.7643
 30
0.0
 10
171.3091
 20
-588.7643
 30
0.0
 10
171.3091
 20
-588.7643
 30
0.0
 10
65.9387
 20
-407.4814
 30
0.0
 10
65.9387
 20
-407.4814
 30
0.0
 10
65.9387
 20
-407.4814
 30
0.0
 10
131.875
 20
-369.6096
 30
0.0
 10
131.875
 20
-369.6096
 30
0.0
 10
131.875
 20
-369.6096
 30
0.0
 10
131.8239
 20
-294.6507
 30
0.0
 10
131.8239
 20
-294.6507
 30
0.0
  0
SPLINE
  5
80
330
1F
100
AcDbEntity
  8
Layer 1
 62
   250
370
    20
100
AcDbSpline
210
0.0
220
0.0
230
1.0
 70
    11
 71
     3
 72
    20
 73
    16
 74
     0
 42
0.0000000001
 43
0.0000000001
 40
0.0
 40
0.0
 40
0.0
 40
0.0
 40
0.2
 40
0.2
 40
0.2
 40
0.4
 40
0.4
 40
0.4
 40
0.6000000000000001
 40
0.6000000000000001
 40
0.6000000000000001
 40
0.8
 40
0.8
 40
0.8
 40
1.0
 40
1.0
 40
1.0
 40
1.0
 10
216.563
 20
-588.7643
 30
0.0
 10
216.563
 20
-588.7643
 30
0.0
 10
468.7367
 20
-588.7643
 30
0.0
 10
468.7367
 20
-588.7643
 30
0.0
 10
468.7367
 20
-588.7643
 30
0.0
 10
374.1203
 20
-425.981
 30
0.0
 10
374.1203
 20
-425.981
 30
0.0
 10
374.1203
 20
-425.981
 30
0.0
 10
341.6879
 20
-444.6047
 30
0.0
 10
341.6879
 20
-444.6047
 30
0.0
 10
341.6879
 20
-444.6047
 30
0.0
 10
310.6637
 20
-426.8381
 30
0.0
 10
310.6637
 20
-426.8381
 30
0.0
 10
310.6637
 20
-426.8381
 30
0.0
 10
216.563
 20
-588.7643
 30
0.0
 10
216.563
 20
-588.7643
 30
0.0
  0
SPLINE
  5
81
330
1F
100
AcDbEntity
  8
Layer 1
 62
   250
370
    20
100
AcDbSpline
210
0.0
220
0.0
230
1.0
 70
    11
 71
     3
 72
    26
 73
    22
 74
     0
 42
0.0000000001
 43
0.0000000001
 40
0.0
 40
0.0
 40
0.0
 40
0.0
 40
0.1428571428571428
 40
0.1428571428571428
 40
0.1428571428571428
 40
0.2857142857142857
 40
0.2857142857142857
 40
0.2857142857142857
 40
0.4285714285714285
 40
0.4285714285714285
 40
0.4285714285714285
 40
0.5714285714285714
 40
0.5714285714285714
 40
0.5714285714285714
 40
0.7142857142857142
 40
0.7142857142857142
 40
0.7142857142857142
 40
0.8571428571428571
 40
0.8571428571428571
 40
0.8571428571428571
 40
1.0
 40
1.0
 40
1.0
 40
1.0
 10
897.328
 20
-294.6507
 30
0.0
 10
897.328
 20
-294.6507
 30
0.0
 10
815.9898
 20
-294.6507
 30
0.0
 10
815.9898
 20
-294.6507
 30
0.0
 10
815.9898
 20
-294.6507
 30
0.0
 10
816.0362
 20
-369.8942
 30
0.0
 10
816.0362
 20
-369.8942
 30
0.0
 10
816.0362
 20
-369.8942
 30
0.0
 10
751.1011
 20
-407.1779
 30
0.0
 10
751.1011
 20
-407.1779
 30
0.0
 10
751.1011
 20
-407.1779
 30
0.0
 10
856.6469
 20
-588.7643
 30
0.0
 10
856.6469
 20
-588.7643
 30
0.0
 10
856.6469
 20
-588.7643
 30
0.0
 10
962.1913
 20
-407.1779
 30
0.0
 10
962.1913
 20
-407.1779
 30
0.0
 10
962.1913
 20
-407.1779
 30
0.0
 10
897.2769
 20
-369.8942
 30
0.0
 10
897.2769
 20
-369.8942
 30
0.0
 10
897.2769
 20
-369.8942
 30
0.0
 10
897.328
 20
-294.6507
 30
0.0
 10
897.328
 20
-294.6507
 30
0.0
  0
SPLINE
  5
82
330
1F
100
AcDbEntity
  8
Layer 1
 62
   250
370
    20
100
AcDbSpline
210
0.0
220
0.0
230
1.0
 70
    11
 71
     3
 72
    32
 73
    28
 74
     0
 42
0.0000000001
 43
0.0000000001
 40
0.0
 40
0.0
 40
0.0
 40
0.0
 40
0.1111111111111111
 40
0.1111111111111111
 40
0.1111111111111111
 40
0.2222222222222222
 40
0.2222222222222222
 40
0.2222222222222222
 40
0.3333333333333333
 40
0.3333333333333333
 40
0.3333333333333333
 40
0.4444444444444444
 40
0.4444444444444444
 40
0.4444444444444444
 40
0.5555555555555556
 40
0.5555555555555556
 40
0.5555555555555556
 40
0.6666666666666666
 40
0.6666666666666666
 40
0.6666666666666666
 40
0.7777777777777777
 40
0.7777777777777777
 40
0.7777777777777777
 40
0.8888888888888888
 40
0.8888888888888888
 40
0.8888888888888888
 40
1.0
 40
1.0
 40
1.0
 40
1.0
 10
825.9118
 20
-129.5099
 30
0.0
 10
825.9118
 20
-129.5099
 30
0.0
 10
858.4624
 20
-148.2044
 30
0.0
 10
858.4624
 20
-148.2044
 30
0.0
 10
858.4624
 20
-148.2044
 30
0.0
 10
887.3581
 20
-131.6605
 30
0.0
 10
887.3581
 20
-131.6605
 30
0.0
 10
887.3581
 20
-131.6605
 30
0.0
 10
927.8523
 20
-201.3284
 30
0.0
 10
927.8523
 20
-201.3284
 30
0.0
 10
927.8523
 20
-201.3284
 30
0.0
 10
897.3759
 20
-218.7881
 30
0.0
 10
897.3759
 20
-218.7881
 30
0.0
 10
897.3759
 20
-218.7881
 30
0.0
 10
897.3407
 20
-255.7148
 30
0.0
 10
897.3407
 20
-255.7148
 30
0.0
 10
897.3407
 20
-255.7148
 30
0.0
 10
815.9579
 20
-255.7148
 30
0.0
 10
815.9579
 20
-255.7148
 30
0.0
 10
815.9579
 20
-255.7148
 30
0.0
 10
815.9355
 20
-218.7881
 30
0.0
 10
815.9355
 20
-218.7881
 30
0.0
 10
815.9355
 20
-218.7881
 30
0.0
 10
784.4819
 20
-200.7713
 30
0.0
 10
784.4819
 20
-200.7713
 30
0.0
 10
784.4819
 20
-200.7713
 30
0.0
 10
825.9118
 20
-129.5099
 30
0.0
 10
825.9118
 20
-129.5099
 30
0.0
  0
SPLINE
  5
83
330
1F
100
AcDbEntity
  8
Layer 1
 62
   250
370
    20
100
AcDbSpline
210
0.0
220
0.0
230
1.0
 70
    11
 71
     3
 72
    20
 73
    16
 74
     0
 42
0.0000000001
 43
0.0000000001
 40
0.0
 40
0.0
 40
0.0
 40
0.0
 40
0.2
 40
0.2
 40
0.2
 40
0.4
 40
0.4
 40
0.4
 40
0.6000000000000001
 40
0.6000000000000001
 40
0.6000000000000001
 40
0.8
 40
0.8
 40
0.8
 40
1.0
 40
1.0
 40
1.0
 40
1.0
 10
901.9105
 20
-588.7643
 30
0.0
 10
901.9105
 20
-588.7643
 30
0.0
 10
1154.0779
 20
-588.7643
 30
0.0
 10
1154.0779
 20
-588.7643
 30
0.0
 10
1154.0779
 20
-588.7643
 30
0.0
 10
1060.3747
 20
-427.5625
 30
0.0
 10
1060.3747
 20
-427.5625
 30
0.0
 10
1060.3747
 20
-427.5625
 30
0.0
 10
1028.9945
 20
-445.5292
 30
0.0
 10
1028.9945
 20
-445.5292
 30
0.0
 10
1028.9945
 20
-445.5292
 30
0.0
 10
996.131
 20
-426.6536
 30
0.0
 10
996.131
 20
-426.6536
 30
0.0
 10
996.131
 20
-426.6536
 30
0.0
 10
901.9105
 20
-588.7643
 30
0.0
 10
901.9105
 20
-588.7643
 30
0.0
  0
SPLINE
  5
84
330
1F
100
AcDbEntity
  8
Layer 1
 62
   250
370
    20
100
AcDbSpline
210
0.0
220
0.0
230
1.0
 70
    11
 71
     3
 72
    26
 73
    22
 74
     0
 42
0.0000000001
 43
0.0000000001
 40
0.0
 40
0.0
 40
0.0
 40
0.0
 40
0.1428571428571428
 40
0.1428571428571428
 40
0.1428571428571428
 40
0.2857142857142857
 40
0.2857142857142857
 40
0.2857142857142857
 40
0.4285714285714285
 40
0.4285714285714285
 40
0.4285714285714285
 40
0.5714285714285714
 40
0.5714285714285714
 40
0.5714285714285714
 40
0.7142857142857142
 40
0.7142857142857142
 40
0.7142857142857142
 40
0.8571428571428571
 40
0.8571428571428571
 40
0.8571428571428571
 40
1.0
 40
1.0
 40
1.0
 40
1.0
 10
-816.0918
 20
-294.6507
 30
0.0
 10
-816.0918
 20
-294.6507
 30
0.0
 10
-816.1446
 20
-368.975
 30
0.0
 10
-816.1446
 20
-368.975
 30
0.0
 10
-816.1446
 20
-368.975
 30
0.0
 10
-750.7879
 20
-406.5036
 30
0.0
 10
-750.7879
 20
-406.5036
 30
0.0
 10
-750.7879
 20
-406.5036
 30
0.0
 10
-856.7234
 20
-588.7643
 30
0.0
 10
-856.7234
 20
-588.7643
 30
0.0
 10
-856.7234
 20
-588.7643
 30
0.0
 10
-961.7104
 20
-408.1057
 30
0.0
 10
-961.7104
 20
-408.1057
 30
0.0
 10
-961.7104
 20
-408.1057
 30
0.0
 10
-895.2633
 20
-370.0546
 30
0.0
 10
-895.2633
 20
-370.0546
 30
0.0
 10
-895.2633
 20
-370.0546
 30
0.0
 10
-895.2186
 20
-294.649
 30
0.0
 10
-895.2186
 20
-294.649
 30
0.0
 10
-895.2186
 20
-294.649
 30
0.0
 10
-816.0918
 20
-294.6507
 30
0.0
 10
-816.0918
 20
-294.6507
 30
0.0
  0
SPLINE
  5
85
330
1F
100
AcDbEntity
  8
Layer 1
 62
   250
370
    20
100
AcDbSpline
210
0.0
220
0.0
230
1.0
 70
    11
 71
     3
 72
    20
 73
    16
 74
     0
 42
0.0000000001
 43
0.0000000001
 40
0.0
 40
0.0
 40
0.0
 40
0.0
 40
0.2
 40
0.2
 40
0.2
 40
0.4
 40
0.4
 40
0.4
 40
0.6000000000000001
 40
0.6000000000000001
 40
0.6000000000000001
 40
0.8
 40
0.8
 40
0.8
 40
1.0
 40
1.0
 40
1.0
 40
1.0
 10
-1154.1511
 20
-588.7643
 30
0.0
 10
-1154.1511
 20
-588.7643
 30
0.0
 10
-901.9679
 20
-588.7643
 30
0.0
 10
-901.9679
 20
-588.7643
 30
0.0
 10
-901.9679
 20
-588.7643
 30
0.0
 10
-995.6646
 20
-427.5625
 30
0.0
 10
-995.6646
 20
-427.5625
 30
0.0
 10
-995.6646
 20
-427.5625
 30
0.0
 10
-1027.0639
 20
-445.5292
 30
0.0
 10
-1027.0639
 20
-445.5292
 30
0.0
 10
-1027.0639
 20
-445.5292
 30
0.0
 10
-1059.9227
 20
-426.6536
 30
0.0
 10
-1059.9227
 20
-426.6536
 30
0.0
 10
-1059.9227
 20
-426.6536
 30
0.0
 10
-1154.1511
 20
-588.7643
 30
0.0
 10
-1154.1511
 20
-588.7643
 30
0.0
  0
SPLINE
  5
86
330
1F
100
AcDbEntity
  8
Layer 1
 62
   250
370
    20
100
AcDbSpline
210
0.0
220
0.0
230
1.0
 70
    11
 71
     3
 72
    23
 73
    19
 74
     0
 42
0.0000000001
 43
0.0000000001
 40
0.0
 40
0.0
 40
0.0
 40
0.0
 40
0.1666666666666667
 40
0.1666666666666667
 40
0.1666666666666667
 40
0.3333333333333333
 40
0.3333333333333333
 40
0.3333333333333333
 40
0.5
 40
0.5
 40
0.5
 40
0.6666666666666666
 40
0.6666666666666666
 40
0.6666666666666666
 40
0.8333333333333333
 40
0.8333333333333333
 40
0.8333333333333333
 40
1.0
 40
1.0
 40
1.0
 40
1.0
 10
1121.6821
 20
-241.387
 30
0.0
 10
1121.6821
 20
-241.387
 30
0.0
 10
1029.1351
 20
-188.2457
 30
0.0
 10
1029.1351
 20
-188.2457
 30
0.0
 10
1029.1351
 20
-188.2457
 30
0.0
 10
936.5496
 20
-241.2697
 30
0.0
 10
936.5496
 20
-241.2697
 30
0.0
 10
936.5496
 20
-241.2697
 30
0.0
 10
936.4874
 20
-347.4436
 30
0.0
 10
936.4874
 20
-347.4436
 30
0.0
 10
936.4874
 20
-347.4436
 30
0.0
 10
1029.0121
 20
-400.5796
 30
0.0
 10
1029.0121
 20
-400.5796
 30
0.0
 10
1029.0121
 20
-400.5796
 30
0.0
 10
1121.623
 20
-347.5488
 30
0.0
 10
1121.623
 20
-347.5488
 30
0.0
 10
1121.623
 20
-347.5488
 30
0.0
 10
1121.6821
 20
-241.387
 30
0.0
 10
1121.6821
 20
-241.387
 30
0.0
  0
SPLINE
  5
87
330
1F
100
AcDbEntity
  8
Layer 1
 62
   250
370
    20
100
AcDbSpline
210
0.0
220
0.0
230
1.0
 70
    11
 71
     3
 72
    23
 73
    19
 74
     0
 42
0.0000000001
 43
0.0000000001
 40
0.0
 40
0.0
 40
0.0
 40
0.0
 40
0.1666666666666667
 40
0.1666666666666667
 40
0.1666666666666667
 40
0.3333333333333333
 40
0.3333333333333333
 40
0.3333333333333333
 40
0.5
 40
0.5
 40
0.5
 40
0.6666666666666666
 40
0.6666666666666666
 40
0.6666666666666666
 40
0.8333333333333333
 40
0.8333333333333333
 40
0.8333333333333333
 40
1.0
 40
1.0
 40
1.0
 40
1.0
 10
591.6373
 20
-241.387
 30
0.0
 10
591.6373
 20
-241.387
 30
0.0
 10
684.1605
 20
-188.2457
 30
0.0
 10
684.1605
 20
-188.2457
 30
0.0
 10
684.1605
 20
-188.2457
 30
0.0
 10
776.7666
 20
-241.2697
 30
0.0
 10
776.7666
 20
-241.2697
 30
0.0
 10
776.7666
 20
-241.2697
 30
0.0
 10
776.8225
 20
-347.4436
 30
0.0
 10
776.8225
 20
-347.4436
 30
0.0
 10
776.8225
 20
-347.4436
 30
0.0
 10
684.2977
 20
-400.5796
 30
0.0
 10
684.2977
 20
-400.5796
 30
0.0
 10
684.2977
 20
-400.5796
 30
0.0
 10
591.6964
 20
-347.5488
 30
0.0
 10
591.6964
 20
-347.5488
 30
0.0
 10
591.6964
 20
-347.5488
 30
0.0
 10
591.6373
 20
-241.387
 30
0.0
 10
591.6373
 20
-241.387
 30
0.0
  0
SPLINE
  5
88
330
1F
100
AcDbEntity
  8
Layer 1
 62
   250
370
    20
100
AcDbSpline
210
0.0
220
0.0
230
1.0
 70
    11
 71
     3
 72
    23
 73
    19
 74
     0
 42
0.0000000001
 43
0.0000000001
 40
0.0
 40
0.0
 40
0.0
 40
0.0
 40
0.1666666666666667
 40
0.1666666666666667
 40
0.1666666666666667
 40
0.3333333333333333
 40
0.3333333333333333
 40
0.3333333333333333
 40
0.5
 40
0.5
 40
0.5
 40
0.6666666666666666
 40
0.6666666666666666
 40
0.6666666666666666
 40
0.8333333333333333
 40
0.8333333333333333
 40
0.8333333333333333
 40
1.0
 40
1.0
 40
1.0
 40
1.0
 10
248.997
 20
-240.4644
 30
0.0
 10
248.997
 20
-240.4644
 30
0.0
 10
341.5489
 20
-187.3265
 30
0.0
 10
341.5489
 20
-187.3265
 30
0.0
 10
341.5489
 20
-187.3265
 30
0.0
 10
434.1327
 20
-240.3505
 30
0.0
 10
434.1327
 20
-240.3505
 30
0.0
 10
434.1327
 20
-240.3505
 30
0.0
 10
434.1998
 20
-346.5175
 30
0.0
 10
434.1998
 20
-346.5175
 30
0.0
 10
434.1998
 20
-346.5175
 30
0.0
 10
341.6671
 20
-399.6621
 30
0.0
 10
341.6671
 20
-399.6621
 30
0.0
 10
341.6671
 20
-399.6621
 30
0.0
 10
249.0578
 20
-346.6296
 30
0.0
 10
249.0578
 20
-346.6296
 30
0.0
 10
249.0578
 20
-346.6296
 30
0.0
 10
248.997
 20
-240.4644
 30
0.0
 10
248.997
 20
-240.4644
 30
0.0
  0
SPLINE
  5
89
330
1F
100
AcDbEntity
  8
Layer 1
 62
   250
370
    20
100
AcDbSpline
210
0.0
220
0.0
230
1.0
 70
    11
 71
     3
 72
    23
 73
    19
 74
     0
 42
0.0000000001
 43
0.0000000001
 40
0.0
 40
0.0
 40
0.0
 40
0.0
 40
0.1666666666666667
 40
0.1666666666666667
 40
0.1666666666666667
 40
0.3333333333333333
 40
0.3333333333333333
 40
0.3333333333333333
 40
0.5
 40
0.5
 40
0.5
 40
0.6666666666666666
 40
0.6666666666666666
 40
0.6666666666666666
 40
0.8333333333333333
 40
0.8333333333333333
 40
0.8333333333333333
 40
1.0
 40
1.0
 40
1.0
 40
1.0
 10
-92.5302
 20
-241.0938
 30
0.0
 10
-92.5302
 20
-241.0938
 30
0.0
 10
0.0009
 20
-187.956
 30
0.0
 10
0.0009
 20
-187.956
 30
0.0
 10
0.0009
 20
-187.956
 30
0.0
 10
92.599
 20
-241.0007
 30
0.0
 10
92.599
 20
-241.0007
 30
0.0
 10
92.599
 20
-241.0007
 30
0.0
 10
92.6598
 20
-347.1711
 30
0.0
 10
92.6598
 20
-347.1711
 30
0.0
 10
92.6598
 20
-347.1711
 30
0.0
 10
0.1366
 20
-400.3106
 30
0.0
 10
0.1366
 20
-400.3106
 30
0.0
 10
0.1366
 20
-400.3106
 30
0.0
 10
-92.4712
 20
-347.2729
 30
0.0
 10
-92.4712
 20
-347.2729
 30
0.0
 10
-92.4712
 20
-347.2729
 30
0.0
 10
-92.5302
 20
-241.0938
 30
0.0
 10
-92.5302
 20
-241.0938
 30
0.0
  0
SPLINE
  5
8A
330
1F
100
AcDbEntity
  8
Layer 1
 62
   250
370
    20
100
AcDbSpline
210
0.0
220
0.0
230
1.0
 70
    11
 71
     3
 72
    23
 73
    19
 74
     0
 42
0.0000000001
 43
0.0000000001
 40
0.0
 40
0.0
 40
0.0
 40
0.0
 40
0.1666666666666667
 40
0.1666666666666667
 40
0.1666666666666667
 40
0.3333333333333333
 40
0.3333333333333333
 40
0.3333333333333333
 40
0.5
 40
0.5
 40
0.5
 40
0.6666666666666666
 40
0.6666666666666666
 40
0.6666666666666666
 40
0.8333333333333333
 40
0.8333333333333333
 40
0.8333333333333333
 40
1.0
 40
1.0
 40
1.0
 40
1.0
 10
-250.212
 20
-241.0938
 30
0.0
 10
-250.212
 20
-241.0938
 30
0.0
 10
-342.7368
 20
-187.956
 30
0.0
 10
-342.7368
 20
-187.956
 30
0.0
 10
-342.7368
 20
-187.956
 30
0.0
 10
-435.3461
 20
-241.0007
 30
0.0
 10
-435.3461
 20
-241.0007
 30
0.0
 10
-435.3461
 20
-241.0007
 30
0.0
 10
-435.4068
 20
-347.1711
 30
0.0
 10
-435.4068
 20
-347.1711
 30
0.0
 10
-435.4068
 20
-347.1711
 30
0.0
 10
-342.8612
 20
-400.3106
 30
0.0
 10
-342.8612
 20
-400.3106
 30
0.0
 10
-342.8612
 20
-400.3106
 30
0.0
 10
-250.2743
 20
-347.2729
 30
0.0
 10
-250.2743
 20
-347.2729
 30
0.0
 10
-250.2743
 20
-347.2729
 30
0.0
 10
-250.212
 20
-241.0938
 30
0.0
 10
-250.212
 20
-241.0938
 30
0.0
  0
SPLINE
  5
8B
330
1F
100
AcDbEntity
  8
Layer 1
 62
   250
370
    20
100
AcDbSpline
210
0.0
220
0.0
230
1.0
 70
    11
 71
     3
 72
    23
 73
    19
 74
     0
 42
0.0000000001
 43
0.0000000001
 40
0.0
 40
0.0
 40
0.0
 40
0.0
 40
0.1666666666666667
 40
0.1666666666666667
 40
0.1666666666666667
 40
0.3333333333333333
 40
0.3333333333333333
 40
0.3333333333333333
 40
0.5
 40
0.5
 40
0.5
 40
0.6666666666666666
 40
0.6666666666666666
 40
0.6666666666666666
 40
0.8333333333333333
 40
0.8333333333333333
 40
0.8333333333333333
 40
1.0
 40
1.0
 40
1.0
 40
1.0
 10
-591.7377
 20
-240.4644
 30
0.0
 10
-591.7377
 20
-240.4644
 30
0.0
 10
-684.2784
 20
-187.3265
 30
0.0
 10
-684.2784
 20
-187.3265
 30
0.0
 10
-684.2784
 20
-187.3265
 30
0.0
 10
-776.8686
 20
-240.3505
 30
0.0
 10
-776.8686
 20
-240.3505
 30
0.0
 10
-776.8686
 20
-240.3505
 30
0.0
 10
-776.934
 20
-346.5175
 30
0.0
 10
-776.934
 20
-346.5175
 30
0.0
 10
-776.934
 20
-346.5175
 30
0.0
 10
-684.4078
 20
-399.6621
 30
0.0
 10
-684.4078
 20
-399.6621
 30
0.0
 10
-684.4078
 20
-399.6621
 30
0.0
 10
-591.7968
 20
-346.6296
 30
0.0
 10
-591.7968
 20
-346.6296
 30
0.0
 10
-591.7968
 20
-346.6296
 30
0.0
 10
-591.7377
 20
-240.4644
 30
0.0
 10
-591.7377
 20
-240.4644
 30
0.0
  0
SPLINE
  5
8C
330
1F
100
AcDbEntity
  8
Layer 1
 62
   250
370
    20
100
AcDbSpline
210
0.0
220
0.0
230
1.0
 70
    11
 71
     3
 72
    23
 73
    19
 74
     0
 42
0.0000000001
 43
0.0000000001
 40
0.0
 40
0.0
 40
0.0
 40
0.0
 40
0.1666666666666667
 40
0.1666666666666667
 40
0.1666666666666667
 40
0.3333333333333333
 40
0.3333333333333333
 40
0.3333333333333333
 40
0.5
 40
0.5
 40
0.5
 40
0.6666666666666666
 40
0.6666666666666666
 40
0.6666666666666666
 40
0.8333333333333333
 40
0.8333333333333333
 40
0.8333333333333333
 40
1.0
 40
1.0
 40
1.0
 40
1.0
 10
-934.3716
 20
-241.387
 30
0.0
 10
-934.3716
 20
-241.387
 30
0.0
 10
-1026.9011
 20
-188.2457
 30
0.0
 10
-1026.9011
 20
-188.2457
 30
0.0
 10
-1026.9011
 20
-188.2457
 30
0.0
 10
-1119.5089
 20
-241.2697
 30
0.0
 10
-1119.5089
 20
-241.2697
 30
0.0
 10
-1119.5089
 20
-241.2697
 30
0.0
 10
-1119.5727
 20
-347.4436
 30
0.0
 10
-1119.5727
 20
-347.4436
 30
0.0
 10
-1119.5727
 20
-347.4436
 30
0.0
 10
-1027.024
 20
-400.5796
 30
0.0
 10
-1027.024
 20
-400.5796
 30
0.0
 10
-1027.024
 20
-400.5796
 30
0.0
 10
-934.437
 20
-347.5488
 30
0.0
 10
-934.437
 20
-347.5488
 30
0.0
 10
-934.437
 20
-347.5488
 30
0.0
 10
-934.3716
 20
-241.387
 30
0.0
 10
-934.3716
 20
-241.387
 30
0.0
  0
SPLINE
  5
8D
330
1F
100
AcDbEntity
  8
Layer 1
 62
   250
370
    20
100
AcDbSpline
210
0.0
220
0.0
230
1.0
 70
    11
 71
     3
 72
    23
 73
    19
 74
     0
 42
0.0000000001
 43
0.0000000001
 40
0.0
 40
0.0
 40
0.0
 40
0.0
 40
0.1666666666666667
 40
0.1666666666666667
 40
0.1666666666666667
 40
0.3333333333333333
 40
0.3333333333333333
 40
0.3333333333333333
 40
0.5
 40
0.5
 40
0.5
 40
0.6666666666666666
 40
0.6666666666666666
 40
0.6666666666666666
 40
0.8333333333333333
 40
0.8333333333333333
 40
0.8333333333333333
 40
1.0
 40
1.0
 40
1.0
 40
1.0
 10
1107.3245
 20
-63.2981
 30
0.0
 10
1107.3245
 20
-63.2981
 30
0.0
 10
1107.3501
 20
0.1475
 30
0.0
 10
1107.3501
 20
0.1475
 30
0.0
 10
1107.3501
 20
0.1475
 30
0.0
 10
1107.3245
 20
63.5638
 30
0.0
 10
1107.3245
 20
63.5638
 30
0.0
 10
1107.3245
 20
63.5638
 30
0.0
 10
1199.9674
 20
105.6298
 30
0.0
 10
1199.9674
 20
105.6298
 30
0.0
 10
1199.9674
 20
105.6298
 30
0.0
 10
1199.9674
 20
0.1355
 30
0.0
 10
1199.9674
 20
0.1355
 30
0.0
 10
1199.9674
 20
0.1355
 30
0.0
 10
1199.9674
 20
-105.3814
 30
0.0
 10
1199.9674
 20
-105.3814
 30
0.0
 10
1199.9674
 20
-105.3814
 30
0.0
 10
1107.3245
 20
-63.2981
 30
0.0
 10
1107.3245
 20
-63.2981
 30
0.0
  0
SPLINE
  5
8E
330
1F
100
AcDbEntity
  8
Layer 1
 62
   250
370
    20
100
AcDbSpline
210
0.0
220
0.0
230
1.0
 70
    24
 71
     3
 72
     8
 73
     4
 74
     0
 42
0.0000000001
 43
0.0000000001
 40
0.0
 40
0.0
 40
0.0
 40
0.0
 40
1.0
 40
1.0
 40
1.0
 40
1.0
 10
1068.1763
 20
0.1355
 30
0.0
 10
1068.1763
 20
0.1355
 30
0.0
 10
1068.1236
 20
74.8909
 30
0.0
 10
1068.1236
 20
74.8909
 30
0.0
  0
SPLINE
  5
8F
330
1F
100
AcDbEntity
  8
Layer 1
 62
   250
370
    20
100
AcDbSpline
210
0.0
220
0.0
230
1.0
 70
    11
 71
     3
 72
    26
 73
    22
 74
     0
 42
0.0000000001
 43
0.0000000001
 40
0.0
 40
0.0
 40
0.0
 40
0.0
 40
0.1428571428571428
 40
0.1428571428571428
 40
0.1428571428571428
 40
0.2857142857142857
 40
0.2857142857142857
 40
0.2857142857142857
 40
0.4285714285714285
 40
0.4285714285714285
 40
0.4285714285714285
 40
0.5714285714285714
 40
0.5714285714285714
 40
0.5714285714285714
 40
0.7142857142857142
 40
0.7142857142857142
 40
0.7142857142857142
 40
0.8571428571428571
 40
0.8571428571428571
 40
0.8571428571428571
 40
1.0
 40
1.0
 40
1.0
 40
1.0
 10
473.3529
 20
294.9044
 30
0.0
 10
473.3529
 20
294.9044
 30
0.0
 10
473.3975
 20
369.2356
 30
0.0
 10
473.3975
 20
369.2356
 30
0.0
 10
473.3975
 20
369.2356
 30
0.0
 10
408.0425
 20
406.7694
 30
0.0
 10
408.0425
 20
406.7694
 30
0.0
 10
408.0425
 20
406.7694
 30
0.0
 10
513.9844
 20
589.0214
 30
0.0
 10
513.9844
 20
589.0214
 30
0.0
 10
513.9844
 20
589.0214
 30
0.0
 10
618.9747
 20
408.368
 30
0.0
 10
618.9747
 20
408.368
 30
0.0
 10
618.9747
 20
408.368
 30
0.0
 10
552.5243
 20
370.3014
 30
0.0
 10
552.5243
 20
370.3014
 30
0.0
 10
552.5243
 20
370.3014
 30
0.0
 10
552.47
 20
294.9044
 30
0.0
 10
552.47
 20
294.9044
 30
0.0
 10
552.47
 20
294.9044
 30
0.0
 10
473.3529
 20
294.9044
 30
0.0
 10
473.3529
 20
294.9044
 30
0.0
  0
SPLINE
  5
90
330
1F
100
AcDbEntity
  8
Layer 1
 62
   250
370
    20
100
AcDbSpline
210
0.0
220
0.0
230
1.0
 70
    11
 71
     3
 72
    20
 73
    16
 74
     0
 42
0.0000000001
 43
0.0000000001
 40
0.0
 40
0.0
 40
0.0
 40
0.0
 40
0.2
 40
0.2
 40
0.2
 40
0.4
 40
0.4
 40
0.4
 40
0.6000000000000001
 40
0.6000000000000001
 40
0.6000000000000001
 40
0.8
 40
0.8
 40
0.8
 40
1.0
 40
1.0
 40
1.0
 40
1.0
 10
-1199.7118
 20
589.0214
 30
0.0
 10
-1199.7118
 20
589.0214
 30
0.0
 10
-1200.0326
 20
294.9061
 30
0.0
 10
-1200.0326
 20
294.9061
 30
0.0
 10
-1200.0326
 20
294.9061
 30
0.0
 10
-1158.7289
 20
294.9061
 30
0.0
 10
-1158.7289
 20
294.9061
 30
0.0
 10
-1158.7289
 20
294.9061
 30
0.0
 10
-1158.7624
 20
370.1617
 30
0.0
 10
-1158.7624
 20
370.1617
 30
0.0
 10
-1158.7624
 20
370.1617
 30
0.0
 10
-1093.84
 20
407.4419
 30
0.0
 10
-1093.84
 20
407.4419
 30
0.0
 10
-1093.84
 20
407.4419
 30
0.0
 10
-1199.7118
 20
589.0214
 30
0.0
 10
-1199.7118
 20
589.0214
 30
0.0
  0
SPLINE
  5
91
330
1F
100
AcDbEntity
  8
Layer 1
 62
   250
370
    20
100
AcDbSpline
210
0.0
220
0.0
230
1.0
 70
    11
 71
     3
 72
    32
 73
    28
 74
     0
 42
0.0000000001
 43
0.0000000001
 40
0.0
 40
0.0
 40
0.0
 40
0.0
 40
0.1111111111111111
 40
0.1111111111111111
 40
0.1111111111111111
 40
0.2222222222222222
 40
0.2222222222222222
 40
0.2222222222222222
 40
0.3333333333333333
 40
0.3333333333333333
 40
0.3333333333333333
 40
0.4444444444444444
 40
0.4444444444444444
 40
0.4444444444444444
 40
0.5555555555555556
 40
0.5555555555555556
 40
0.5555555555555556
 40
0.6666666666666666
 40
0.6666666666666666
 40
0.6666666666666666
 40
0.7777777777777777
 40
0.7777777777777777
 40
0.7777777777777777
 40
0.8888888888888888
 40
0.8888888888888888
 40
0.8888888888888888
 40
1.0
 40
1.0
 40
1.0
 40
1.0
 10
-824.473
 20
132.3557
 30
0.0
 10
-824.473
 20
132.3557
 30
0.0
 10
-784.9703
 20
200.318
 30
0.0
 10
-784.9703
 20
200.318
 30
0.0
 10
-784.9703
 20
200.318
 30
0.0
 10
-816.0456
 20
218.1122
 30
0.0
 10
-816.0456
 20
218.1122
 30
0.0
 10
-816.0456
 20
218.1122
 30
0.0
 10
-816.0775
 20
255.9806
 30
0.0
 10
-816.0775
 20
255.9806
 30
0.0
 10
-816.0775
 20
255.9806
 30
0.0
 10
-895.1851
 20
255.9806
 30
0.0
 10
-895.1851
 20
255.9806
 30
0.0
 10
-895.1851
 20
255.9806
 30
0.0
 10
-895.1643
 20
219.1901
 30
0.0
 10
-895.1643
 20
219.1901
 30
0.0
 10
-895.1643
 20
219.1901
 30
0.0
 10
-927.4051
 20
200.6888
 30
0.0
 10
-927.4051
 20
200.6888
 30
0.0
 10
-927.4051
 20
200.6888
 30
0.0
 10
-887.7284
 20
132.4298
 30
0.0
 10
-887.7284
 20
132.4298
 30
0.0
 10
-887.7284
 20
132.4298
 30
0.0
 10
-856.2093
 20
150.5207
 30
0.0
 10
-856.2093
 20
150.5207
 30
0.0
 10
-856.2093
 20
150.5207
 30
0.0
 10
-824.473
 20
132.3557
 30
0.0
 10
-824.473
 20
132.3557
 30
0.0
  0
SPLINE
  5
92
330
1F
100
AcDbEntity
  8
Layer 1
 62
   250
370
    20
100
AcDbSpline
210
0.0
220
0.0
230
1.0
 70
    11
 71
     3
 72
    26
 73
    22
 74
     0
 42
0.0000000001
 43
0.0000000001
 40
0.0
 40
0.0
 40
0.0
 40
0.0
 40
0.1428571428571428
 40
0.1428571428571428
 40
0.1428571428571428
 40
0.2857142857142857
 40
0.2857142857142857
 40
0.2857142857142857
 40
0.4285714285714285
 40
0.4285714285714285
 40
0.4285714285714285
 40
0.5714285714285714
 40
0.5714285714285714
 40
0.5714285714285714
 40
0.7142857142857142
 40
0.7142857142857142
 40
0.7142857142857142
 40
0.8571428571428571
 40
0.8571428571428571
 40
0.8571428571428571
 40
1.0
 40
1.0
 40
1.0
 40
1.0
 10
-619.4567
 20
407.6541
 30
0.0
 10
-619.4567
 20
407.6541
 30
0.0
 10
-552.6262
 20
369.3804
 30
0.0
 10
-552.6262
 20
369.3804
 30
0.0
 10
-552.6262
 20
369.3804
 30
0.0
 10
-552.5783
 20
294.9061
 30
0.0
 10
-552.5783
 20
294.9061
 30
0.0
 10
-552.5783
 20
294.9061
 30
0.0
 10
-474.5661
 20
294.9061
 30
0.0
 10
-474.5661
 20
294.9061
 30
0.0
 10
-474.5661
 20
294.9061
 30
0.0
 10
-474.6044
 20
369.8633
 30
0.0
 10
-474.6044
 20
369.8633
 30
0.0
 10
-474.6044
 20
369.8633
 30
0.0
 10
-408.665
 20
407.742
 30
0.0
 10
-408.665
 20
407.742
 30
0.0
 10
-408.665
 20
407.742
 30
0.0
 10
-514.0353
 20
589.0214
 30
0.0
 10
-514.0353
 20
589.0214
 30
0.0
 10
-514.0353
 20
589.0214
 30
0.0
 10
-619.4567
 20
407.6541
 30
0.0
 10
-619.4567
 20
407.6541
 30
0.0
  0
SPLINE
  5
93
330
1F
100
AcDbEntity
  8
Layer 1
 62
   250
370
    20
100
AcDbSpline
210
0.0
220
0.0
230
1.0
 70
     8
 71
     3
 72
    20
 73
    16
 74
     0
 42
0.0000000001
 43
0.0000000001
 40
0.0
 40
0.0
 40
0.0
 40
0.0
 40
0.2
 40
0.2
 40
0.2
 40
0.4
 40
0.4
 40
0.4
 40
0.6000000000000001
 40
0.6000000000000001
 40
0.6000000000000001
 40
0.8
 40
0.8
 40
0.8
 40
1.0
 40
1.0
 40
1.0
 40
1.0
 10
1199.9674
 20
590.1338
 30
0.0
 10
1199.9674
 20
590.1338
 30
0.0
 10
1094.3209
 20
408.368
 30
0.0
 10
1094.3209
 20
408.368
 30
0.0
 10
1094.3209
 20
408.368
 30
0.0
 10
1160.7951
 20
370.3014
 30
0.0
 10
1160.7951
 20
370.3014
 30
0.0
 10
1160.7951
 20
370.3014
 30
0.0
 10
1160.8415
 20
294.9061
 30
0.0
 10
1160.8415
 20
294.9061
 30
0.0
 10
1160.8415
 20
294.9061
 30
0.0
 10
1199.9674
 20
294.9061
 30
0.0
 10
1199.9674
 20
294.9061
 30
0.0
 10
1199.9674
 20
294.9061
 30
0.0
 10
1199.9674
 20
590.1303
 30
0.0
 10
1199.9674
 20
590.1303
 30
0.0
  0
SPLINE
  5
94
330
1F
100
AcDbEntity
  8
Layer 1
 62
   250
370
    20
100
AcDbSpline
210
0.0
220
0.0
230
1.0
 70
    11
 71
     3
 72
    23
 73
    19
 74
     0
 42
0.0000000001
 43
0.0000000001
 40
0.0
 40
0.0
 40
0.0
 40
0.0
 40
0.1666666666666667
 40
0.1666666666666667
 40
0.1666666666666667
 40
0.3333333333333333
 40
0.3333333333333333
 40
0.3333333333333333
 40
0.5
 40
0.5
 40
0.5
 40
0.6666666666666666
 40
0.6666666666666666
 40
0.6666666666666666
 40
0.8333333333333333
 40
0.8333333333333333
 40
0.8333333333333333
 40
1.0
 40
1.0
 40
1.0
 40
1.0
 10
1199.9674
 20
255.9806
 30
0.0
 10
1199.9674
 20
255.9806
 30
0.0
 10
1199.9674
 20
150.4431
 30
0.0
 10
1199.9674
 20
150.4431
 30
0.0
 10
1199.9674
 20
150.4431
 30
0.0
 10
1168.3285
 20
132.4333
 30
0.0
 10
1168.3285
 20
132.4333
 30
0.0
 10
1168.3285
 20
132.4333
 30
0.0
 10
1128.6534
 20
200.6888
 30
0.0
 10
1128.6534
 20
200.6888
 30
0.0
 10
1128.6534
 20
200.6888
 30
0.0
 10
1160.8751
 20
219.1901
 30
0.0
 10
1160.8751
 20
219.1901
 30
0.0
 10
1160.8751
 20
219.1901
 30
0.0
 10
1160.8543
 20
255.9806
 30
0.0
 10
1160.8543
 20
255.9806
 30
0.0
 10
1160.8543
 20
255.9806
 30
0.0
 10
1199.9674
 20
255.9806
 30
0.0
 10
1199.9674
 20
255.9806
 30
0.0
  0
SPLINE
  5
95
330
1F
100
AcDbEntity
  8
Layer 1
 62
   250
370
    20
100
AcDbSpline
210
0.0
220
0.0
230
1.0
 70
    11
 71
     3
 72
    32
 73
    28
 74
     0
 42
0.0000000001
 43
0.0000000001
 40
0.0
 40
0.0
 40
0.0
 40
0.0
 40
0.1111111111111111
 40
0.1111111111111111
 40
0.1111111111111111
 40
0.2222222222222222
 40
0.2222222222222222
 40
0.2222222222222222
 40
0.3333333333333333
 40
0.3333333333333333
 40
0.3333333333333333
 40
0.4444444444444444
 40
0.4444444444444444
 40
0.4444444444444444
 40
0.5555555555555556
 40
0.5555555555555556
 40
0.5555555555555556
 40
0.6666666666666666
 40
0.6666666666666666
 40
0.6666666666666666
 40
0.7777777777777777
 40
0.7777777777777777
 40
0.7777777777777777
 40
0.8888888888888888
 40
0.8888888888888888
 40
0.8888888888888888
 40
1.0
 40
1.0
 40
1.0
 40
1.0
 10
584.666
 20
200.6888
 30
0.0
 10
584.666
 20
200.6888
 30
0.0
 10
552.4237
 20
219.1901
 30
0.0
 10
552.4237
 20
219.1901
 30
0.0
 10
552.4237
 20
219.1901
 30
0.0
 10
552.4587
 20
255.9806
 30
0.0
 10
552.4587
 20
255.9806
 30
0.0
 10
552.4587
 20
255.9806
 30
0.0
 10
473.3368
 20
255.9806
 30
0.0
 10
473.3368
 20
255.9806
 30
0.0
 10
473.3368
 20
255.9806
 30
0.0
 10
473.3113
 20
218.1122
 30
0.0
 10
473.3113
 20
218.1122
 30
0.0
 10
473.3113
 20
218.1122
 30
0.0
 10
442.2249
 20
200.318
 30
0.0
 10
442.2249
 20
200.318
 30
0.0
 10
442.2249
 20
200.318
 30
0.0
 10
481.7292
 20
132.3557
 30
0.0
 10
481.7292
 20
132.3557
 30
0.0
 10
481.7292
 20
132.3557
 30
0.0
 10
513.4718
 20
150.5207
 30
0.0
 10
513.4718
 20
150.5207
 30
0.0
 10
513.4718
 20
150.5207
 30
0.0
 10
544.9877
 20
132.4298
 30
0.0
 10
544.9877
 20
132.4298
 30
0.0
 10
544.9877
 20
132.4298
 30
0.0
 10
584.666
 20
200.6888
 30
0.0
 10
584.666
 20
200.6888
 30
0.0
  0
SPLINE
  5
96
330
1F
100
AcDbEntity
  8
Layer 1
 62
   250
370
    20
100
AcDbSpline
210
0.0
220
0.0
230
1.0
 70
    11
 71
     3
 72
    20
 73
    16
 74
     0
 42
0.0000000001
 43
0.0000000001
 40
0.0
 40
0.0
 40
0.0
 40
0.0
 40
0.2
 40
0.2
 40
0.2
 40
0.4
 40
0.4
 40
0.4
 40
0.6000000000000001
 40
0.6000000000000001
 40
0.6000000000000001
 40
0.8
 40
0.8
 40
0.8
 40
1.0
 40
1.0
 40
1.0
 40
1.0
 10
811.4009
 20
589.0214
 30
0.0
 10
811.4009
 20
589.0214
 30
0.0
 10
717.1884
 20
426.9176
 30
0.0
 10
717.1884
 20
426.9176
 30
0.0
 10
717.1884
 20
426.9176
 30
0.0
 10
684.3169
 20
445.7811
 30
0.0
 10
684.3169
 20
445.7811
 30
0.0
 10
684.3169
 20
445.7811
 30
0.0
 10
652.9223
 20
427.8179
 30
0.0
 10
652.9223
 20
427.8179
 30
0.0
 10
652.9223
 20
427.8179
 30
0.0
 10
559.224
 20
589.0214
 30
0.0
 10
559.224
 20
589.0214
 30
0.0
 10
559.224
 20
589.0214
 30
0.0
 10
811.4009
 20
589.0214
 30
0.0
 10
811.4009
 20
589.0214
 30
0.0
  0
SPLINE
  5
97
330
1F
100
AcDbEntity
  8
Layer 1
 62
   250
370
    20
100
AcDbSpline
210
0.0
220
0.0
230
1.0
 70
    11
 71
     3
 72
    32
 73
    28
 74
     0
 42
0.0000000001
 43
0.0000000001
 40
0.0
 40
0.0
 40
0.0
 40
0.0
 40
0.1111111111111111
 40
0.1111111111111111
 40
0.1111111111111111
 40
0.2222222222222222
 40
0.2222222222222222
 40
0.2222222222222222
 40
0.3333333333333333
 40
0.3333333333333333
 40
0.3333333333333333
 40
0.4444444444444444
 40
0.4444444444444444
 40
0.4444444444444444
 40
0.5555555555555556
 40
0.5555555555555556
 40
0.5555555555555556
 40
0.6666666666666666
 40
0.6666666666666666
 40
0.6666666666666666
 40
0.7777777777777777
 40
0.7777777777777777
 40
0.7777777777777777
 40
0.8888888888888888
 40
0.8888888888888888
 40
0.8888888888888888
 40
1.0
 40
1.0
 40
1.0
 40
1.0
 10
99.5639
 20
200.3059
 30
0.0
 10
99.5639
 20
200.3059
 30
0.0
 10
131.7712
 20
218.759
 30
0.0
 10
131.7712
 20
218.759
 30
0.0
 10
131.7712
 20
218.759
 30
0.0
 10
131.8031
 20
255.9806
 30
0.0
 10
131.8031
 20
255.9806
 30
0.0
 10
131.8031
 20
255.9806
 30
0.0
 10
209.8202
 20
255.9806
 30
0.0
 10
209.8202
 20
255.9806
 30
0.0
 10
209.8202
 20
255.9806
 30
0.0
 10
209.8089
 20
218.2726
 30
0.0
 10
209.8089
 20
218.2726
 30
0.0
 10
209.8089
 20
218.2726
 30
0.0
 10
241.6011
 20
200.0197
 30
0.0
 10
241.6011
 20
200.0197
 30
0.0
 10
241.6011
 20
200.0197
 30
0.0
 10
202.4514
 20
132.6575
 30
0.0
 10
202.4514
 20
132.6575
 30
0.0
 10
202.4514
 20
132.6575
 30
0.0
 10
170.7518
 20
150.8656
 30
0.0
 10
170.7518
 20
150.8656
 30
0.0
 10
170.7518
 20
150.8656
 30
0.0
 10
138.9037
 20
132.6195
 30
0.0
 10
138.9037
 20
132.6195
 30
0.0
 10
138.9037
 20
132.6195
 30
0.0
 10
99.5639
 20
200.3059
 30
0.0
 10
99.5639
 20
200.3059
 30
0.0
  0
SPLINE
  5
98
330
1F
100
AcDbEntity
  8
Layer 1
 62
   250
370
    20
100
AcDbSpline
210
0.0
220
0.0
230
1.0
 70
    11
 71
     3
 72
    20
 73
    16
 74
     0
 42
0.0000000001
 43
0.0000000001
 40
0.0
 40
0.0
 40
0.0
 40
0.0
 40
0.2
 40
0.2
 40
0.2
 40
0.4
 40
0.4
 40
0.4
 40
0.6000000000000001
 40
0.6000000000000001
 40
0.6000000000000001
 40
0.8
 40
0.8
 40
0.8
 40
1.0
 40
1.0
 40
1.0
 40
1.0
 10
-468.7925
 20
589.0214
 30
0.0
 10
-468.7925
 20
589.0214
 30
0.0
 10
-374.7524
 20
427.2212
 30
0.0
 10
-374.7524
 20
427.2212
 30
0.0
 10
-374.7524
 20
427.2212
 30
0.0
 10
-342.8996
 20
445.512
 30
0.0
 10
-342.8996
 20
445.512
 30
0.0
 10
-342.8996
 20
445.512
 30
0.0
 10
-310.745
 20
427.097
 30
0.0
 10
-310.745
 20
427.097
 30
0.0
 10
-310.745
 20
427.097
 30
0.0
 10
-216.614
 20
589.0214
 30
0.0
 10
-216.614
 20
589.0214
 30
0.0
 10
-216.614
 20
589.0214
 30
0.0
 10
-468.7925
 20
589.0214
 30
0.0
 10
-468.7925
 20
589.0214
 30
0.0
  0
SPLINE
  5
99
330
1F
100
AcDbEntity
  8
Layer 1
 62
   250
370
    20
100
AcDbSpline
210
0.0
220
0.0
230
1.0
 70
    11
 71
     3
 72
    20
 73
    16
 74
     0
 42
0.0000000001
 43
0.0000000001
 40
0.0
 40
0.0
 40
0.0
 40
0.0
 40
0.2
 40
0.2
 40
0.2
 40
0.4
 40
0.4
 40
0.4
 40
0.6000000000000001
 40
0.6000000000000001
 40
0.6000000000000001
 40
0.8
 40
0.8
 40
0.8
 40
1.0
 40
1.0
 40
1.0
 40
1.0
 10
-559.2957
 20
589.0214
 30
0.0
 10
-559.2957
 20
589.0214
 30
0.0
 10
-811.4629
 20
589.0214
 30
0.0
 10
-811.4629
 20
589.0214
 30
0.0
 10
-811.4629
 20
589.0214
 30
0.0
 10
-716.8498
 20
426.2433
 30
0.0
 10
-716.8498
 20
426.2433
 30
0.0
 10
-716.8498
 20
426.2433
 30
0.0
 10
-684.4237
 20
444.8585
 30
0.0
 10
-684.4237
 20
444.8585
 30
0.0
 10
-684.4237
 20
444.8585
 30
0.0
 10
-653.4091
 20
427.1004
 30
0.0
 10
-653.4091
 20
427.1004
 30
0.0
 10
-653.4091
 20
427.1004
 30
0.0
 10
-559.2957
 20
589.0214
 30
0.0
 10
-559.2957
 20
589.0214
 30
0.0
  0
SPLINE
  5
9A
330
1F
100
AcDbEntity
  8
Layer 1
 62
   250
370
    20
100
AcDbSpline
210
0.0
220
0.0
230
1.0
 70
    11
 71
     3
 72
    26
 73
    22
 74
     0
 42
0.0000000001
 43
0.0000000001
 40
0.0
 40
0.0
 40
0.0
 40
0.0
 40
0.1428571428571428
 40
0.1428571428571428
 40
0.1428571428571428
 40
0.2857142857142857
 40
0.2857142857142857
 40
0.2857142857142857
 40
0.4285714285714285
 40
0.4285714285714285
 40
0.4285714285714285
 40
0.5714285714285714
 40
0.5714285714285714
 40
0.5714285714285714
 40
0.7142857142857142
 40
0.7142857142857142
 40
0.7142857142857142
 40
0.8571428571428571
 40
0.8571428571428571
 40
0.8571428571428571
 40
1.0
 40
1.0
 40
1.0
 40
1.0
 10
-1200.0326
 20
255.9806
 30
0.0
 10
-1200.0326
 20
255.9806
 30
0.0
 10
-1200.0326
 20
147.0525
 30
0.0
 10
-1200.0326
 20
147.0525
 30
0.0
 10
-1200.0326
 20
147.0525
 30
0.0
 10
-1197.5721
 20
148.465
 30
0.0
 10
-1197.5721
 20
148.465
 30
0.0
 10
-1197.5721
 20
148.465
 30
0.0
 10
-1168.678
 20
131.9056
 30
0.0
 10
-1168.678
 20
131.9056
 30
0.0
 10
-1168.678
 20
131.9056
 30
0.0
 10
-1128.1901
 20
201.5717
 30
0.0
 10
-1128.1901
 20
201.5717
 30
0.0
 10
-1128.1901
 20
201.5717
 30
0.0
 10
-1158.6841
 20
219.04
 30
0.0
 10
-1158.6841
 20
219.04
 30
0.0
 10
-1158.6841
 20
219.04
 30
0.0
 10
-1158.6922
 20
255.9806
 30
0.0
 10
-1158.6922
 20
255.9806
 30
0.0
 10
-1158.6922
 20
255.9806
 30
0.0
 10
-1200.0326
 20
255.9806
 30
0.0
 10
-1200.0326
 20
255.9806
 30
0.0
  0
SPLINE
  5
9B
330
1F
100
AcDbEntity
  8
Layer 1
 62
   250
370
    20
100
AcDbSpline
210
0.0
220
0.0
230
1.0
 70
    11
 71
     3
 72
    32
 73
    28
 74
     0
 42
0.0000000001
 43
0.0000000001
 40
0.0
 40
0.0
 40
0.0
 40
0.0
 40
0.1111111111111111
 40
0.1111111111111111
 40
0.1111111111111111
 40
0.2222222222222222
 40
0.2222222222222222
 40
0.2222222222222222
 40
0.3333333333333333
 40
0.3333333333333333
 40
0.3333333333333333
 40
0.4444444444444444
 40
0.4444444444444444
 40
0.4444444444444444
 40
0.5555555555555556
 40
0.5555555555555556
 40
0.5555555555555556
 40
0.6666666666666666
 40
0.6666666666666666
 40
0.6666666666666666
 40
0.7777777777777777
 40
0.7777777777777777
 40
0.7777777777777777
 40
0.8888888888888888
 40
0.8888888888888888
 40
0.8888888888888888
 40
1.0
 40
1.0
 40
1.0
 40
1.0
 10
-545.1903
 20
132.6575
 30
0.0
 10
-545.1903
 20
132.6575
 30
0.0
 10
-513.4748
 20
150.8656
 30
0.0
 10
-513.4748
 20
150.8656
 30
0.0
 10
-513.4748
 20
150.8656
 30
0.0
 10
-481.6396
 20
132.6195
 30
0.0
 10
-481.6396
 20
132.6195
 30
0.0
 10
-481.6396
 20
132.6195
 30
0.0
 10
-442.2982
 20
200.3025
 30
0.0
 10
-442.2982
 20
200.3025
 30
0.0
 10
-442.2982
 20
200.3025
 30
0.0
 10
-474.5182
 20
218.759
 30
0.0
 10
-474.5182
 20
218.759
 30
0.0
 10
-474.5182
 20
218.759
 30
0.0
 10
-474.5311
 20
255.9806
 30
0.0
 10
-474.5311
 20
255.9806
 30
0.0
 10
-474.5311
 20
255.9806
 30
0.0
 10
-552.5704
 20
255.9806
 30
0.0
 10
-552.5704
 20
255.9806
 30
0.0
 10
-552.5704
 20
255.9806
 30
0.0
 10
-552.5385
 20
218.2726
 30
0.0
 10
-552.5385
 20
218.2726
 30
0.0
 10
-552.5385
 20
218.2726
 30
0.0
 10
-584.3258
 20
200.0197
 30
0.0
 10
-584.3258
 20
200.0197
 30
0.0
 10
-584.3258
 20
200.0197
 30
0.0
 10
-545.1903
 20
132.6575
 30
0.0
 10
-545.1903
 20
132.6575
 30
0.0
  0
SPLINE
  5
9C
330
1F
100
AcDbEntity
  8
Layer 1
 62
   250
370
    20
100
AcDbSpline
210
0.0
220
0.0
230
1.0
 70
     8
 71
     3
 72
    26
 73
    22
 74
     0
 42
0.0000000001
 43
0.0000000001
 40
0.0
 40
0.0
 40
0.0
 40
0.0
 40
0.1428571428571428
 40
0.1428571428571428
 40
0.1428571428571428
 40
0.2857142857142857
 40
0.2857142857142857
 40
0.2857142857142857
 40
0.4285714285714285
 40
0.4285714285714285
 40
0.4285714285714285
 40
0.5714285714285714
 40
0.5714285714285714
 40
0.5714285714285714
 40
0.7142857142857142
 40
0.7142857142857142
 40
0.7142857142857142
 40
0.8571428571428571
 40
0.8571428571428571
 40
0.8571428571428571
 40
1.0
 40
1.0
 40
1.0
 40
1.0
 10
-131.6944
 20
294.9044
 30
0.0
 10
-131.6944
 20
294.9044
 30
0.0
 10
-131.6417
 20
370.034
 30
0.0
 10
-131.6417
 20
370.034
 30
0.0
 10
-131.6417
 20
370.034
 30
0.0
 10
-65.9434
 20
407.642
 30
0.0
 10
-65.9434
 20
407.642
 30
0.0
 10
-65.9434
 20
407.642
 30
0.0
 10
-171.3728
 20
589.0214
 30
0.0
 10
-171.3728
 20
589.0214
 30
0.0
 10
-171.3728
 20
589.0214
 30
0.0
 10
-276.7972
 20
407.642
 30
0.0
 10
-276.7972
 20
407.642
 30
0.0
 10
-276.7972
 20
407.642
 30
0.0
 10
-211.099
 20
370.034
 30
0.0
 10
-211.099
 20
370.034
 30
0.0
 10
-211.099
 20
370.034
 30
0.0
 10
-211.0527
 20
294.9061
 30
0.0
 10
-211.0527
 20
294.9061
 30
0.0
 10
-211.0527
 20
294.9061
 30
0.0
 10
-131.6944
 20
294.9061
 30
0.0
 10
-131.6944
 20
294.9061
 30
0.0
  0
SPLINE
  5
9D
330
1F
100
AcDbEntity
  8
Layer 1
 62
   250
370
    20
100
AcDbSpline
210
0.0
220
0.0
230
1.0
 70
     8
 71
     3
 72
    32
 73
    28
 74
     0
 42
0.0000000001
 43
0.0000000001
 40
0.0
 40
0.0
 40
0.0
 40
0.0
 40
0.1111111111111111
 40
0.1111111111111111
 40
0.1111111111111111
 40
0.2222222222222222
 40
0.2222222222222222
 40
0.2222222222222222
 40
0.3333333333333333
 40
0.3333333333333333
 40
0.3333333333333333
 40
0.4444444444444444
 40
0.4444444444444444
 40
0.4444444444444444
 40
0.5555555555555556
 40
0.5555555555555556
 40
0.5555555555555556
 40
0.6666666666666666
 40
0.6666666666666666
 40
0.6666666666666666
 40
0.7777777777777777
 40
0.7777777777777777
 40
0.7777777777777777
 40
0.8888888888888888
 40
0.8888888888888888
 40
0.8888888888888888
 40
1.0
 40
1.0
 40
1.0
 40
1.0
 10
-201.1705
 20
130.3517
 30
0.0
 10
-201.1705
 20
130.3517
 30
0.0
 10
-169.8686
 20
148.2736
 30
0.0
 10
-169.8686
 20
148.2736
 30
0.0
 10
-169.8686
 20
148.2736
 30
0.0
 10
-139.8712
 20
131.0381
 30
0.0
 10
-139.8712
 20
131.0381
 30
0.0
 10
-139.8712
 20
131.0381
 30
0.0
 10
-99.5558
 20
200.4301
 30
0.0
 10
-99.5558
 20
200.4301
 30
0.0
 10
-99.5558
 20
200.4301
 30
0.0
 10
-131.7391
 20
218.9038
 30
0.0
 10
-131.7391
 20
218.9038
 30
0.0
 10
-131.7391
 20
218.9038
 30
0.0
 10
-131.704
 20
255.9806
 30
0.0
 10
-131.704
 20
255.9806
 30
0.0
 10
-131.704
 20
255.9806
 30
0.0
 10
-211.0303
 20
255.9806
 30
0.0
 10
-211.0303
 20
255.9806
 30
0.0
 10
-211.0303
 20
255.9806
 30
0.0
 10
-211.0016
 20
218.9038
 30
0.0
 10
-211.0016
 20
218.9038
 30
0.0
 10
-211.0016
 20
218.9038
 30
0.0
 10
-242.2285
 20
200.9871
 30
0.0
 10
-242.2285
 20
200.9871
 30
0.0
 10
-242.2285
 20
200.9871
 30
0.0
 10
-201.1673
 20
130.3517
 30
0.0
 10
-201.1673
 20
130.3517
 30
0.0
  0
SPLINE
  5
9E
330
1F
100
AcDbEntity
  8
Layer 1
 62
   250
370
    20
100
AcDbSpline
210
0.0
220
0.0
230
1.0
 70
    11
 71
     3
 72
    20
 73
    16
 74
     0
 42
0.0000000001
 43
0.0000000001
 40
0.0
 40
0.0
 40
0.0
 40
0.0
 40
0.2
 40
0.2
 40
0.2
 40
0.4
 40
0.4
 40
0.4
 40
0.6000000000000001
 40
0.6000000000000001
 40
0.6000000000000001
 40
0.8
 40
0.8
 40
0.8
 40
1.0
 40
1.0
 40
1.0
 40
1.0
 10
-31.9956
 20
427.097
 30
0.0
 10
-31.9956
 20
427.097
 30
0.0
 10
0.1542
 20
445.512
 30
0.0
 10
0.1542
 20
445.512
 30
0.0
 10
0.1542
 20
445.512
 30
0.0
 10
32.0054
 20
427.2212
 30
0.0
 10
32.0054
 20
427.2212
 30
0.0
 10
32.0054
 20
427.2212
 30
0.0
 10
126.0469
 20
589.0214
 30
0.0
 10
126.0469
 20
589.0214
 30
0.0
 10
126.0469
 20
589.0214
 30
0.0
 10
-126.1251
 20
589.0214
 30
0.0
 10
-126.1251
 20
589.0214
 30
0.0
 10
-126.1251
 20
589.0214
 30
0.0
 10
-31.9956
 20
427.097
 30
0.0
 10
-31.9956
 20
427.097
 30
0.0
  0
SPLINE
  5
9F
330
1F
100
AcDbEntity
  8
Layer 1
 62
   250
370
    20
100
AcDbSpline
210
0.0
220
0.0
230
1.0
 70
    11
 71
     3
 72
    26
 73
    22
 74
     0
 42
0.0000000001
 43
0.0000000001
 40
0.0
 40
0.0
 40
0.0
 40
0.0
 40
0.1428571428571428
 40
0.1428571428571428
 40
0.1428571428571428
 40
0.2857142857142857
 40
0.2857142857142857
 40
0.2857142857142857
 40
0.4285714285714285
 40
0.4285714285714285
 40
0.4285714285714285
 40
0.5714285714285714
 40
0.5714285714285714
 40
0.5714285714285714
 40
0.7142857142857142
 40
0.7142857142857142
 40
0.7142857142857142
 40
0.8571428571428571
 40
0.8571428571428571
 40
0.8571428571428571
 40
1.0
 40
1.0
 40
1.0
 40
1.0
 10
131.8239
 20
294.9061
 30
0.0
 10
131.8239
 20
294.9061
 30
0.0
 10
209.8473
 20
294.9061
 30
0.0
 10
209.8473
 20
294.9061
 30
0.0
 10
209.8473
 20
294.9061
 30
0.0
 10
209.8856
 20
369.3804
 30
0.0
 10
209.8856
 20
369.3804
 30
0.0
 10
209.8856
 20
369.3804
 30
0.0
 10
276.716
 20
407.6541
 30
0.0
 10
276.716
 20
407.6541
 30
0.0
 10
276.716
 20
407.6541
 30
0.0
 10
171.3091
 20
589.0214
 30
0.0
 10
171.3091
 20
589.0214
 30
0.0
 10
171.3091
 20
589.0214
 30
0.0
 10
65.9387
 20
407.742
 30
0.0
 10
65.9387
 20
407.742
 30
0.0
 10
65.9387
 20
407.742
 30
0.0
 10
131.875
 20
369.8633
 30
0.0
 10
131.875
 20
369.8633
 30
0.0
 10
131.875
 20
369.8633
 30
0.0
 10
131.8239
 20
294.9061
 30
0.0
 10
131.8239
 20
294.9061
 30
0.0
  0
SPLINE
  5
A0
330
1F
100
AcDbEntity
  8
Layer 1
 62
   250
370
    20
100
AcDbSpline
210
0.0
220
0.0
230
1.0
 70
    11
 71
     3
 72
    20
 73
    16
 74
     0
 42
0.0000000001
 43
0.0000000001
 40
0.0
 40
0.0
 40
0.0
 40
0.0
 40
0.2
 40
0.2
 40
0.2
 40
0.4
 40
0.4
 40
0.4
 40
0.6000000000000001
 40
0.6000000000000001
 40
0.6000000000000001
 40
0.8
 40
0.8
 40
0.8
 40
1.0
 40
1.0
 40
1.0
 40
1.0
 10
216.563
 20
589.0214
 30
0.0
 10
216.563
 20
589.0214
 30
0.0
 10
468.7367
 20
589.0214
 30
0.0
 10
468.7367
 20
589.0214
 30
0.0
 10
468.7367
 20
589.0214
 30
0.0
 10
374.1203
 20
426.2433
 30
0.0
 10
374.1203
 20
426.2433
 30
0.0
 10
374.1203
 20
426.2433
 30
0.0
 10
341.6879
 20
444.8585
 30
0.0
 10
341.6879
 20
444.8585
 30
0.0
 10
341.6879
 20
444.8585
 30
0.0
 10
310.6637
 20
427.1004
 30
0.0
 10
310.6637
 20
427.1004
 30
0.0
 10
310.6637
 20
427.1004
 30
0.0
 10
216.563
 20
589.0214
 30
0.0
 10
216.563
 20
589.0214
 30
0.0
  0
SPLINE
  5
A1
330
1F
100
AcDbEntity
  8
Layer 1
 62
   250
370
    20
100
AcDbSpline
210
0.0
220
0.0
230
1.0
 70
    11
 71
     3
 72
    26
 73
    22
 74
     0
 42
0.0000000001
 43
0.0000000001
 40
0.0
 40
0.0
 40
0.0
 40
0.0
 40
0.1428571428571428
 40
0.1428571428571428
 40
0.1428571428571428
 40
0.2857142857142857
 40
0.2857142857142857
 40
0.2857142857142857
 40
0.4285714285714285
 40
0.4285714285714285
 40
0.4285714285714285
 40
0.5714285714285714
 40
0.5714285714285714
 40
0.5714285714285714
 40
0.7142857142857142
 40
0.7142857142857142
 40
0.7142857142857142
 40
0.8571428571428571
 40
0.8571428571428571
 40
0.8571428571428571
 40
1.0
 40
1.0
 40
1.0
 40
1.0
 10
897.328
 20
294.9061
 30
0.0
 10
897.328
 20
294.9061
 30
0.0
 10
815.9898
 20
294.9061
 30
0.0
 10
815.9898
 20
294.9061
 30
0.0
 10
815.9898
 20
294.9061
 30
0.0
 10
816.0362
 20
370.1617
 30
0.0
 10
816.0362
 20
370.1617
 30
0.0
 10
816.0362
 20
370.1617
 30
0.0
 10
751.1011
 20
407.4419
 30
0.0
 10
751.1011
 20
407.4419
 30
0.0
 10
751.1011
 20
407.4419
 30
0.0
 10
856.6469
 20
589.0214
 30
0.0
 10
856.6469
 20
589.0214
 30
0.0
 10
856.6469
 20
589.0214
 30
0.0
 10
962.1913
 20
407.4419
 30
0.0
 10
962.1913
 20
407.4419
 30
0.0
 10
962.1913
 20
407.4419
 30
0.0
 10
897.2769
 20
370.1617
 30
0.0
 10
897.2769
 20
370.1617
 30
0.0
 10
897.2769
 20
370.1617
 30
0.0
 10
897.328
 20
294.9061
 30
0.0
 10
897.328
 20
294.9061
 30
0.0
  0
SPLINE
  5
A2
330
1F
100
AcDbEntity
  8
Layer 1
 62
   250
370
    20
100
AcDbSpline
210
0.0
220
0.0
230
1.0
 70
    11
 71
     3
 72
    32
 73
    28
 74
     0
 42
0.0000000001
 43
0.0000000001
 40
0.0
 40
0.0
 40
0.0
 40
0.0
 40
0.1111111111111111
 40
0.1111111111111111
 40
0.1111111111111111
 40
0.2222222222222222
 40
0.2222222222222222
 40
0.2222222222222222
 40
0.3333333333333333
 40
0.3333333333333333
 40
0.3333333333333333
 40
0.4444444444444444
 40
0.4444444444444444
 40
0.4444444444444444
 40
0.5555555555555556
 40
0.5555555555555556
 40
0.5555555555555556
 40
0.6666666666666666
 40
0.6666666666666666
 40
0.6666666666666666
 40
0.7777777777777777
 40
0.7777777777777777
 40
0.7777777777777777
 40
0.8888888888888888
 40
0.8888888888888888
 40
0.8888888888888888
 40
1.0
 40
1.0
 40
1.0
 40
1.0
 10
825.9118
 20
129.7567
 30
0.0
 10
825.9118
 20
129.7567
 30
0.0
 10
858.4624
 20
148.465
 30
0.0
 10
858.4624
 20
148.465
 30
0.0
 10
858.4624
 20
148.465
 30
0.0
 10
887.3581
 20
131.9056
 30
0.0
 10
887.3581
 20
131.9056
 30
0.0
 10
887.3581
 20
131.9056
 30
0.0
 10
927.8523
 20
201.5717
 30
0.0
 10
927.8523
 20
201.5717
 30
0.0
 10
927.8523
 20
201.5717
 30
0.0
 10
897.3759
 20
219.04
 30
0.0
 10
897.3759
 20
219.04
 30
0.0
 10
897.3759
 20
219.04
 30
0.0
 10
897.3407
 20
255.9806
 30
0.0
 10
897.3407
 20
255.9806
 30
0.0
 10
897.3407
 20
255.9806
 30
0.0
 10
815.9579
 20
255.9806
 30
0.0
 10
815.9579
 20
255.9806
 30
0.0
 10
815.9579
 20
255.9806
 30
0.0
 10
815.9355
 20
219.04
 30
0.0
 10
815.9355
 20
219.04
 30
0.0
 10
815.9355
 20
219.04
 30
0.0
 10
784.4819
 20
201.0181
 30
0.0
 10
784.4819
 20
201.0181
 30
0.0
 10
784.4819
 20
201.0181
 30
0.0
 10
825.9118
 20
129.7567
 30
0.0
 10
825.9118
 20
129.7567
 30
0.0
  0
SPLINE
  5
A3
330
1F
100
AcDbEntity
  8
Layer 1
 62
   250
370
    20
100
AcDbSpline
210
0.0
220
0.0
230
1.0
 70
    11
 71
     3
 72
    20
 73
    16
 74
     0
 42
0.0000000001
 43
0.0000000001
 40
0.0
 40
0.0
 40
0.0
 40
0.0
 40
0.2
 40
0.2
 40
0.2
 40
0.4
 40
0.4
 40
0.4
 40
0.6000000000000001
 40
0.6000000000000001
 40
0.6000000000000001
 40
0.8
 40
0.8
 40
0.8
 40
1.0
 40
1.0
 40
1.0
 40
1.0
 10
901.9105
 20
589.0214
 30
0.0
 10
901.9105
 20
589.0214
 30
0.0
 10
1154.0779
 20
589.0214
 30
0.0
 10
1154.0779
 20
589.0214
 30
0.0
 10
1154.0779
 20
589.0214
 30
0.0
 10
1060.3747
 20
427.8179
 30
0.0
 10
1060.3747
 20
427.8179
 30
0.0
 10
1060.3747
 20
427.8179
 30
0.0
 10
1028.9945
 20
445.7811
 30
0.0
 10
1028.9945
 20
445.7811
 30
0.0
 10
1028.9945
 20
445.7811
 30
0.0
 10
996.131
 20
426.9176
 30
0.0
 10
996.131
 20
426.9176
 30
0.0
 10
996.131
 20
426.9176
 30
0.0
 10
901.9105
 20
589.0214
 30
0.0
 10
901.9105
 20
589.0214
 30
0.0
  0
SPLINE
  5
A4
330
1F
100
AcDbEntity
  8
Layer 1
 62
   250
370
    20
100
AcDbSpline
210
0.0
220
0.0
230
1.0
 70
    11
 71
     3
 72
    26
 73
    22
 74
     0
 42
0.0000000001
 43
0.0000000001
 40
0.0
 40
0.0
 40
0.0
 40
0.0
 40
0.1428571428571428
 40
0.1428571428571428
 40
0.1428571428571428
 40
0.2857142857142857
 40
0.2857142857142857
 40
0.2857142857142857
 40
0.4285714285714285
 40
0.4285714285714285
 40
0.4285714285714285
 40
0.5714285714285714
 40
0.5714285714285714
 40
0.5714285714285714
 40
0.7142857142857142
 40
0.7142857142857142
 40
0.7142857142857142
 40
0.8571428571428571
 40
0.8571428571428571
 40
0.8571428571428571
 40
1.0
 40
1.0
 40
1.0
 40
1.0
 10
-816.0918
 20
294.9061
 30
0.0
 10
-816.0918
 20
294.9061
 30
0.0
 10
-816.1446
 20
369.2356
 30
0.0
 10
-816.1446
 20
369.2356
 30
0.0
 10
-816.1446
 20
369.2356
 30
0.0
 10
-750.7879
 20
406.7694
 30
0.0
 10
-750.7879
 20
406.7694
 30
0.0
 10
-750.7879
 20
406.7694
 30
0.0
 10
-856.7234
 20
589.0214
 30
0.0
 10
-856.7234
 20
589.0214
 30
0.0
 10
-856.7234
 20
589.0214
 30
0.0
 10
-961.7137
 20
408.368
 30
0.0
 10
-961.7137
 20
408.368
 30
0.0
 10
-961.7137
 20
408.368
 30
0.0
 10
-895.2633
 20
370.3014
 30
0.0
 10
-895.2633
 20
370.3014
 30
0.0
 10
-895.2633
 20
370.3014
 30
0.0
 10
-895.2186
 20
294.9044
 30
0.0
 10
-895.2186
 20
294.9044
 30
0.0
 10
-895.2186
 20
294.9044
 30
0.0
 10
-816.0918
 20
294.9061
 30
0.0
 10
-816.0918
 20
294.9061
 30
0.0
  0
SPLINE
  5
A5
330
1F
100
AcDbEntity
  8
Layer 1
 62
   250
370
    20
100
AcDbSpline
210
0.0
220
0.0
230
1.0
 70
    11
 71
     3
 72
    20
 73
    16
 74
     0
 42
0.0000000001
 43
0.0000000001
 40
0.0
 40
0.0
 40
0.0
 40
0.0
 40
0.2
 40
0.2
 40
0.2
 40
0.4
 40
0.4
 40
0.4
 40
0.6000000000000001
 40
0.6000000000000001
 40
0.6000000000000001
 40
0.8
 40
0.8
 40
0.8
 40
1.0
 40
1.0
 40
1.0
 40
1.0
 10
-1154.1511
 20
589.0214
 30
0.0
 10
-1154.1511
 20
589.0214
 30
0.0
 10
-901.9679
 20
589.0214
 30
0.0
 10
-901.9679
 20
589.0214
 30
0.0
 10
-901.9679
 20
589.0214
 30
0.0
 10
-995.6646
 20
427.8179
 30
0.0
 10
-995.6646
 20
427.8179
 30
0.0
 10
-995.6646
 20
427.8179
 30
0.0
 10
-1027.0639
 20
445.7811
 30
0.0
 10
-1027.0639
 20
445.7811
 30
0.0
 10
-1027.0639
 20
445.7811
 30
0.0
 10
-1059.9258
 20
426.9176
 30
0.0
 10
-1059.9258
 20
426.9176
 30
0.0
 10
-1059.9258
 20
426.9176
 30
0.0
 10
-1154.1511
 20
589.0214
 30
0.0
 10
-1154.1511
 20
589.0214
 30
0.0
  0
SPLINE
  5
A6
330
1F
100
AcDbEntity
  8
Layer 1
 62
   250
370
    20
100
AcDbSpline
210
0.0
220
0.0
230
1.0
 70
    11
 71
     3
 72
    23
 73
    19
 74
     0
 42
0.0000000001
 43
0.0000000001
 40
0.0
 40
0.0
 40
0.0
 40
0.0
 40
0.1666666666666667
 40
0.1666666666666667
 40
0.1666666666666667
 40
0.3333333333333333
 40
0.3333333333333333
 40
0.3333333333333333
 40
0.5
 40
0.5
 40
0.5
 40
0.6666666666666666
 40
0.6666666666666666
 40
0.6666666666666666
 40
0.8333333333333333
 40
0.8333333333333333
 40
0.8333333333333333
 40
1.0
 40
1.0
 40
1.0
 40
1.0
 10
1121.6821
 20
241.6493
 30
0.0
 10
1121.6821
 20
241.6493
 30
0.0
 10
1029.1351
 20
188.5098
 30
0.0
 10
1029.1351
 20
188.5098
 30
0.0
 10
1029.1351
 20
188.5098
 30
0.0
 10
936.5496
 20
241.5338
 30
0.0
 10
936.5496
 20
241.5338
 30
0.0
 10
936.5496
 20
241.5338
 30
0.0
 10
936.4874
 20
347.699
 30
0.0
 10
936.4874
 20
347.699
 30
0.0
 10
936.4874
 20
347.699
 30
0.0
 10
1029.0121
 20
400.8402
 30
0.0
 10
1029.0121
 20
400.8402
 30
0.0
 10
1029.0121
 20
400.8402
 30
0.0
 10
1121.623
 20
347.8163
 30
0.0
 10
1121.623
 20
347.8163
 30
0.0
 10
1121.623
 20
347.8163
 30
0.0
 10
1121.6821
 20
241.6493
 30
0.0
 10
1121.6821
 20
241.6493
 30
0.0
  0
SPLINE
  5
A7
330
1F
100
AcDbEntity
  8
Layer 1
 62
   250
370
    20
100
AcDbSpline
210
0.0
220
0.0
230
1.0
 70
    11
 71
     3
 72
    23
 73
    19
 74
     0
 42
0.0000000001
 43
0.0000000001
 40
0.0
 40
0.0
 40
0.0
 40
0.0
 40
0.1666666666666667
 40
0.1666666666666667
 40
0.1666666666666667
 40
0.3333333333333333
 40
0.3333333333333333
 40
0.3333333333333333
 40
0.5
 40
0.5
 40
0.5
 40
0.6666666666666666
 40
0.6666666666666666
 40
0.6666666666666666
 40
0.8333333333333333
 40
0.8333333333333333
 40
0.8333333333333333
 40
1.0
 40
1.0
 40
1.0
 40
1.0
 10
591.6373
 20
241.6493
 30
0.0
 10
591.6373
 20
241.6493
 30
0.0
 10
684.1605
 20
188.5098
 30
0.0
 10
684.1605
 20
188.5098
 30
0.0
 10
684.1605
 20
188.5098
 30
0.0
 10
776.7666
 20
241.5338
 30
0.0
 10
776.7666
 20
241.5338
 30
0.0
 10
776.7666
 20
241.5338
 30
0.0
 10
776.8225
 20
347.699
 30
0.0
 10
776.8225
 20
347.699
 30
0.0
 10
776.8225
 20
347.699
 30
0.0
 10
684.2977
 20
400.8402
 30
0.0
 10
684.2977
 20
400.8402
 30
0.0
 10
684.2977
 20
400.8402
 30
0.0
 10
591.6964
 20
347.8163
 30
0.0
 10
591.6964
 20
347.8163
 30
0.0
 10
591.6964
 20
347.8163
 30
0.0
 10
591.6373
 20
241.6493
 30
0.0
 10
591.6373
 20
241.6493
 30
0.0
  0
SPLINE
  5
A8
330
1F
100
AcDbEntity
  8
Layer 1
 62
   250
370
    20
100
AcDbSpline
210
0.0
220
0.0
230
1.0
 70
     8
 71
     3
 72
    23
 73
    19
 74
     0
 42
0.0000000001
 43
0.0000000001
 40
0.0
 40
0.0
 40
0.0
 40
0.0
 40
0.1666666666666667
 40
0.1666666666666667
 40
0.1666666666666667
 40
0.3333333333333333
 40
0.3333333333333333
 40
0.3333333333333333
 40
0.5
 40
0.5
 40
0.5
 40
0.6666666666666666
 40
0.6666666666666666
 40
0.6666666666666666
 40
0.8333333333333333
 40
0.8333333333333333
 40
0.8333333333333333
 40
1.0
 40
1.0
 40
1.0
 40
1.0
 10
248.997
 20
240.725
 30
0.0
 10
248.997
 20
240.725
 30
0.0
 10
341.5489
 20
187.5854
 30
0.0
 10
341.5489
 20
187.5854
 30
0.0
 10
341.5489
 20
187.5854
 30
0.0
 10
434.1327
 20
240.6145
 30
0.0
 10
434.1327
 20
240.6145
 30
0.0
 10
434.1327
 20
240.6145
 30
0.0
 10
434.1998
 20
346.7763
 30
0.0
 10
434.1998
 20
346.7763
 30
0.0
 10
434.1998
 20
346.7763
 30
0.0
 10
341.6671
 20
399.9193
 30
0.0
 10
341.6671
 20
399.9193
 30
0.0
 10
341.6671
 20
399.9193
 30
0.0
 10
249.0578
 20
346.8954
 30
0.0
 10
249.0578
 20
346.8954
 30
0.0
 10
249.0578
 20
346.8954
 30
0.0
 10
248.997
 20
240.7266
 30
0.0
 10
248.997
 20
240.7266
 30
0.0
  0
SPLINE
  5
A9
330
1F
100
AcDbEntity
  8
Layer 1
 62
   250
370
    20
100
AcDbSpline
210
0.0
220
0.0
230
1.0
 70
    11
 71
     3
 72
    23
 73
    19
 74
     0
 42
0.0000000001
 43
0.0000000001
 40
0.0
 40
0.0
 40
0.0
 40
0.0
 40
0.1666666666666667
 40
0.1666666666666667
 40
0.1666666666666667
 40
0.3333333333333333
 40
0.3333333333333333
 40
0.3333333333333333
 40
0.5
 40
0.5
 40
0.5
 40
0.6666666666666666
 40
0.6666666666666666
 40
0.6666666666666666
 40
0.8333333333333333
 40
0.8333333333333333
 40
0.8333333333333333
 40
1.0
 40
1.0
 40
1.0
 40
1.0
 10
-92.5302
 20
241.3527
 30
0.0
 10
-92.5302
 20
241.3527
 30
0.0
 10
0.0009
 20
188.2149
 30
0.0
 10
0.0009
 20
188.2149
 30
0.0
 10
0.0009
 20
188.2149
 30
0.0
 10
92.599
 20
241.244
 30
0.0
 10
92.599
 20
241.244
 30
0.0
 10
92.599
 20
241.244
 30
0.0
 10
92.6598
 20
347.4213
 30
0.0
 10
92.6598
 20
347.4213
 30
0.0
 10
92.6598
 20
347.4213
 30
0.0
 10
0.1366
 20
400.5574
 30
0.0
 10
0.1366
 20
400.5574
 30
0.0
 10
0.1366
 20
400.5574
 30
0.0
 10
-92.4712
 20
347.5213
 30
0.0
 10
-92.4712
 20
347.5213
 30
0.0
 10
-92.4712
 20
347.5213
 30
0.0
 10
-92.5302
 20
241.3527
 30
0.0
 10
-92.5302
 20
241.3527
 30
0.0
  0
SPLINE
  5
AA
330
1F
100
AcDbEntity
  8
Layer 1
 62
   250
370
    20
100
AcDbSpline
210
0.0
220
0.0
230
1.0
 70
    11
 71
     3
 72
    23
 73
    19
 74
     0
 42
0.0000000001
 43
0.0000000001
 40
0.0
 40
0.0
 40
0.0
 40
0.0
 40
0.1666666666666667
 40
0.1666666666666667
 40
0.1666666666666667
 40
0.3333333333333333
 40
0.3333333333333333
 40
0.3333333333333333
 40
0.5
 40
0.5
 40
0.5
 40
0.6666666666666666
 40
0.6666666666666666
 40
0.6666666666666666
 40
0.8333333333333333
 40
0.8333333333333333
 40
0.8333333333333333
 40
1.0
 40
1.0
 40
1.0
 40
1.0
 10
-250.212
 20
241.3527
 30
0.0
 10
-250.212
 20
241.3527
 30
0.0
 10
-342.7368
 20
188.2149
 30
0.0
 10
-342.7368
 20
188.2149
 30
0.0
 10
-342.7368
 20
188.2149
 30
0.0
 10
-435.3461
 20
241.244
 30
0.0
 10
-435.3461
 20
241.244
 30
0.0
 10
-435.3461
 20
241.244
 30
0.0
 10
-435.4068
 20
347.4213
 30
0.0
 10
-435.4068
 20
347.4213
 30
0.0
 10
-435.4068
 20
347.4213
 30
0.0
 10
-342.8612
 20
400.5574
 30
0.0
 10
-342.8612
 20
400.5574
 30
0.0
 10
-342.8612
 20
400.5574
 30
0.0
 10
-250.2743
 20
347.5213
 30
0.0
 10
-250.2743
 20
347.5213
 30
0.0
 10
-250.2743
 20
347.5213
 30
0.0
 10
-250.212
 20
241.3527
 30
0.0
 10
-250.212
 20
241.3527
 30
0.0
  0
SPLINE
  5
AB
330
1F
100
AcDbEntity
  8
Layer 1
 62
   250
370
    20
100
AcDbSpline
210
0.0
220
0.0
230
1.0
 70
     8
 71
     3
 72
    23
 73
    19
 74
     0
 42
0.0000000001
 43
0.0000000001
 40
0.0
 40
0.0
 40
0.0
 40
0.0
 40
0.1666666666666667
 40
0.1666666666666667
 40
0.1666666666666667
 40
0.3333333333333333
 40
0.3333333333333333
 40
0.3333333333333333
 40
0.5
 40
0.5
 40
0.5
 40
0.6666666666666666
 40
0.6666666666666666
 40
0.6666666666666666
 40
0.8333333333333333
 40
0.8333333333333333
 40
0.8333333333333333
 40
1.0
 40
1.0
 40
1.0
 40
1.0
 10
-591.7377
 20
240.725
 30
0.0
 10
-591.7377
 20
240.725
 30
0.0
 10
-684.28
 20
187.5854
 30
0.0
 10
-684.28
 20
187.5854
 30
0.0
 10
-684.28
 20
187.5854
 30
0.0
 10
-776.8686
 20
240.6145
 30
0.0
 10
-776.8686
 20
240.6145
 30
0.0
 10
-776.8686
 20
240.6145
 30
0.0
 10
-776.934
 20
346.7763
 30
0.0
 10
-776.934
 20
346.7763
 30
0.0
 10
-776.934
 20
346.7763
 30
0.0
 10
-684.4078
 20
399.9193
 30
0.0
 10
-684.4078
 20
399.9193
 30
0.0
 10
-684.4078
 20
399.9193
 30
0.0
 10
-591.7968
 20
346.8954
 30
0.0
 10
-591.7968
 20
346.8954
 30
0.0
 10
-591.7968
 20
346.8954
 30
0.0
 10
-591.7377
 20
240.7266
 30
0.0
 10
-591.7377
 20
240.7266
 30
0.0
  0
SPLINE
  5
AC
330
1F
100
AcDbEntity
  8
Layer 1
 62
   250
370
    20
100
AcDbSpline
210
0.0
220
0.0
230
1.0
 70
    11
 71
     3
 72
    23
 73
    19
 74
     0
 42
0.0000000001
 43
0.0000000001
 40
0.0
 40
0.0
 40
0.0
 40
0.0
 40
0.1666666666666667
 40
0.1666666666666667
 40
0.1666666666666667
 40
0.3333333333333333
 40
0.3333333333333333
 40
0.3333333333333333
 40
0.5
 40
0.5
 40
0.5
 40
0.6666666666666666
 40
0.6666666666666666
 40
0.6666666666666666
 40
0.8333333333333333
 40
0.8333333333333333
 40
0.8333333333333333
 40
1.0
 40
1.0
 40
1.0
 40
1.0
 10
-934.3748
 20
241.6493
 30
0.0
 10
-934.3748
 20
241.6493
 30
0.0
 10
-1026.9011
 20
188.5098
 30
0.0
 10
-1026.9011
 20
188.5098
 30
0.0
 10
-1026.9011
 20
188.5098
 30
0.0
 10
-1119.5105
 20
241.5338
 30
0.0
 10
-1119.5105
 20
241.5338
 30
0.0
 10
-1119.5105
 20
241.5338
 30
0.0
 10
-1119.5727
 20
347.699
 30
0.0
 10
-1119.5727
 20
347.699
 30
0.0
 10
-1119.5727
 20
347.699
 30
0.0
 10
-1027.024
 20
400.8402
 30
0.0
 10
-1027.024
 20
400.8402
 30
0.0
 10
-1027.024
 20
400.8402
 30
0.0
 10
-934.437
 20
347.8163
 30
0.0
 10
-934.437
 20
347.8163
 30
0.0
 10
-934.437
 20
347.8163
 30
0.0
 10
-934.3748
 20
241.6493
 30
0.0
 10
-934.3748
 20
241.6493
 30
0.0
  0
ENDSEC
  0
SECTION
  2
OBJECTS
  0
DICTIONARY
  5
C
330
0
100
AcDbDictionary
281
     1
  3
ACAD_DETAILVIEWSTYLE
350
B4
  3
ACAD_GROUP
350
D
  3
ACAD_LAYOUT
350
1A
  3
ACAD_MATERIAL
350
43
  3
ACAD_MLEADERSTYLE
350
5B
  3
ACAD_MLINESTYLE
350
17
  3
ACAD_PLOTSETTINGS
350
19
  3
ACAD_PLOTSTYLENAME
350
E
  3
ACAD_SCALELIST
350
47
  3
ACAD_SECTIONVIEWSTYLE
350
B5
  3
ACAD_TABLESTYLE
350
59
  3
ACAD_VISUALSTYLE
350
2A
  3
ACDB_RECOMPOSE_DATA
350
B1
  3
AcDbVariableDictionary
350
AD
  0
SUN
  5
5D
330
29
100
AcDbSun
 90
        1
290
     0
 63
     7
421
 16777215
 40
1.0
291
     1
 91
  2455826
 92
 54000000
292
     0
 70
     2
 71
   256
280
     1
  0
DICTIONARY
  5
B4
102
{ACAD_REACTORS
330
C
102
}
330
C
100
AcDbDictionary
281
     1
  0
DICTIONARY
  5
D
102
{ACAD_REACTORS
330
C
102
}
330
C
100
AcDbDictionary
281
     1
  0
DICTIONARY
  5
1A
102
{ACAD_REACTORS
330
C
102
}
330
C
100
AcDbDictionary
281
     1
  3
Layout1
350
1E
  3
Layout2
350
26
  3
Model
350
22
  0
DICTIONARY
  5
43
102
{ACAD_REACTORS
330
C
102
}
330
C
100
AcDbDictionary
281
     1
  3
ByBlock
350
45
  3
ByLayer
350
44
  3
Global
350
46
  0
DICTIONARY
  5
5B
102
{ACAD_REACTORS
330
C
102
}
330
C
100
AcDbDictionary
281
     1
  3
Standard
350
5C
  0
DICTIONARY
  5
17
102
{ACAD_REACTORS
330
C
102
}
330
C
100
AcDbDictionary
281
     1
  3
Standard
350
18
  0
DICTIONARY
  5
19
102
{ACAD_REACTORS
330
C
102
}
330
C
100
AcDbDictionary
281
     1
  0
ACDBDICTIONARYWDFLT
  5
E
102
{ACAD_REACTORS
330
C
102
}
330
C
100
AcDbDictionary
281
     1
  3
Normal
350
F
100
AcDbDictionaryWithDefault
340
F
  0
DICTIONARY
  5
47
102
{ACAD_REACTORS
330
C
102
}
330
C
100
AcDbDictionary
281
     1
  3
A0
350
48
  3
A1
350
49
  3
A2
350
4A
  3
A3
350
4B
  3
A4
350
4C
  3
A5
350
4D
  3
A6
350
4E
  3
A7
350
4F
  3
A8
350
50
  3
A9
350
51
  3
B1
350
52
  3
B2
350
53
  3
B3
350
54
  3
B4
350
55
  3
B5
350
56
  3
B6
350
57
  3
B7
350
58
  0
DICTIONARY
  5
B5
102
{ACAD_REACTORS
330
C
102
}
330
C
100
AcDbDictionary
281
     1
  0
DICTIONARY
  5
59
102
{ACAD_REACTORS
330
C
102
}
330
C
100
AcDbDictionary
281
     1
  3
Standard
350
5A
  0
DICTIONARY
  5
2A
102
{ACAD_REACTORS
330
C
102
}
330
C
100
AcDbDictionary
281
     1
  3
2dWireframe
350
2F
  3
Basic
350
32
  3
Brighten
350
36
  3
ColorChange
350
3A
  3
Conceptual
350
34
  3
Dim
350
35
  3
EdgeColorOff
350
3D
  3
Facepattern
350
39
  3
Flat
350
2B
  3
FlatWithEdges
350
2C
  3
Gouraud
350
2D
  3
GouraudWithEdges
350
2E
  3
Hidden
350
31
  3
JitterOff
350
3B
  3
Linepattern
350
38
  3
OverhangOff
350
3C
  3
Realistic
350
33
  3
Shaded
350
42
  3
Shaded with edges
350
41
  3
Shades of Gray
350
3E
  3
Sketchy
350
3F
  3
Thicken
350
37
  3
Wireframe
350
30
  3
X-Ray
350
40
  0
XRECORD
  5
B1
102
{ACAD_REACTORS
330
C
102
}
330
C
100
AcDbXrecord
280
     1
 90
        1
330
5A
  0
DICTIONARY
  5
AD
102
{ACAD_REACTORS
330
C
102
}
330
C
100
AcDbDictionary
281
     1
  3
CANNOSCALE
350
AE
  3
CMLEADERSTYLE
350
B3
  3
CTABLESTYLE
350
B2
  0
LAYOUT
  5
1E
102
{ACAD_REACTORS
330
1A
102
}
330
1A
100
AcDbPlotSettings
  1

  2
none_device
  4

  6

 40
0.0
 41
0.0
 42
0.0
 43
0.0
 44
0.0
 45
0.0
 46
0.0
 47
0.0
 48
0.0
 49
0.0
140
0.0
141
0.0
142
1.0
143
1.0
 70
   688
 72
     0
 73
     0
 74
     5
  7

 75
    16
 76
     0
 77
     2
 78
   300
147
1.0
148
0.0
149
0.0
100
AcDbLayout
  1
Layout1
 70
     1
 71
     1
 10
0.0
 20
0.0
 11
12.0
 21
9.0
 12
0.0
 22
0.0
 32
0.0
 14
1.000000000000000E+20
 24
1.000000000000000E+20
 34
1.000000000000000E+20
 15
-1.000000000000000E+20
 25
-1.000000000000000E+20
 35
-1.000000000000000E+20
146
0.0
 13
0.0
 23
0.0
 33
0.0
 16
1.0
 26
0.0
 36
0.0
 17
0.0
 27
1.0
 37
0.0
 76
     0
330
1B
  0
LAYOUT
  5
26
102
{ACAD_REACTORS
330
1A
102
}
330
1A
100
AcDbPlotSettings
  1

  2
none_device
  4

  6

 40
0.0
 41
0.0
 42
0.0
 43
0.0
 44
0.0
 45
0.0
 46
0.0
 47
0.0
 48
0.0
 49
0.0
140
0.0
141
0.0
142
1.0
143
1.0
 70
   688
 72
     0
 73
     0
 74
     5
  7

 75
    16
 76
     0
 77
     2
 78
   300
147
1.0
148
0.0
149
0.0
100
AcDbLayout
  1
Layout2
 70
     1
 71
     2
 10
0.0
 20
0.0
 11
0.0
 21
0.0
 12
0.0
 22
0.0
 32
0.0
 14
0.0
 24
0.0
 34
0.0
 15
0.0
 25
0.0
 35
0.0
146
0.0
 13
0.0
 23
0.0
 33
0.0
 16
1.0
 26
0.0
 36
0.0
 17
0.0
 27
1.0
 37
0.0
 76
     0
330
23
  0
LAYOUT
  5
22
102
{ACAD_REACTORS
330
1A
102
}
330
1A
100
AcDbPlotSettings
  1

  2
none_device
  4
Letter_(8.50_x_11.00_Inches)
  6

 40
6.35
 41
6.35
 42
6.35000508
 43
6.35000508
 44
215.9
 45
279.4
 46
0.0
 47
0.0
 48
0.0
 49
0.0
140
0.0
141
0.0
142
1.0
143
1.0
 70
  1712
 72
     0
 73
     0
 74
     0
  7

 75
     0
 76
     0
 77
     2
 78
   300
147
1.0
148
0.0
149
0.0
100
AcDbLayout
  1
Model
 70
     1
 71
     0
 10
0.0
 20
0.0
 11
12.0
 21
9.0
 12
0.0
 22
0.0
 32
0.0
 14
-1200.1327
 24
-590.2374
 34
0.0
 15
1200.0674
 25
590.1841
 35
0.0
146
0.0
 13
0.0
 23
0.0
 33
0.0
 16
1.0
 26
0.0
 36
0.0
 17
0.0
 27
1.0
 37
0.0
 76
     0
330
1F
331
29
  0
MATERIAL
  5
45
102
{ACAD_REACTORS
330
43
102
}
330
43
100
AcDbMaterial
  1
ByBlock
 72
     1
 94
      127
  0
MATERIAL
  5
44
102
{ACAD_REACTORS
330
43
102
}
330
43
100
AcDbMaterial
  1
ByLayer
 72
     1
 94
      127
  0
MATERIAL
  5
46
102
{ACAD_REACTORS
330
43
102
}
330
43
100
AcDbMaterial
  1
Global
 72
     1
 94
      127
  0
MLEADERSTYLE
  5
5C
102
{ACAD_REACTORS
330
5B
102
}
330
5B
100
AcDbMLeaderStyle
179
     2
170
     2
171
     1
172
     0
 90
        2
 40
0.0
 41
0.0
173
     1
 91
-1056964608
340
14
 92
       -2
290
     1
 42
0.09
291
     1
 43
0.36
  3
Standard
341
0
 44
0.18
300

342
11
174
     1
178
     6
175
     1
176
     0
 93
-1056964608
 45
0.18
292
     0
297
     0
 46
0.18
343
0
 94
-1056964608
 47
1.0
 49
1.0
140
1.0
293
     1
141
0.0
294
     1
177
     0
142
1.0
295
     0
296
     0
143
0.125
271
     0
272
     9
273
     9
298
     0
  0
MLINESTYLE
  5
18
102
{ACAD_REACTORS
330
17
102
}
330
17
100
AcDbMlineStyle
  2
Standard
 70
     0
  3

 62
   256
 51
90.0
 52
90.0
 71
     2
 49
0.5
 62
   256
  6
BYLAYER
 49
-0.5
 62
   256
  6
BYLAYER
  0
ACDBPLACEHOLDER
  5
F
102
{ACAD_REACTORS
330
E
102
}
330
E
  0
SCALE
  5
48
102
{ACAD_REACTORS
330
47
102
}
330
47
100
AcDbScale
 70
     0
300
1:1
140
1.0
141
1.0
290
     1
  0
SCALE
  5
49
102
{ACAD_REACTORS
330
47
102
}
330
47
100
AcDbScale
 70
     0
300
1/128" = 1'-0"
140
0.0078125
141
12.0
290
     0
  0
SCALE
  5
4A
102
{ACAD_REACTORS
330
47
102
}
330
47
100
AcDbScale
 70
     0
300
1/64" = 1'-0"
140
0.015625
141
12.0
290
     0
  0
SCALE
  5
4B
102
{ACAD_REACTORS
330
47
102
}
330
47
100
AcDbScale
 70
     0
300
1/32" = 1'-0"
140
0.03125
141
12.0
290
     0
  0
SCALE
  5
4C
102
{ACAD_REACTORS
330
47
102
}
330
47
100
AcDbScale
 70
     0
300
1/16" = 1'-0"
140
0.0625
141
12.0
290
     0
  0
SCALE
  5
4D
102
{ACAD_REACTORS
330
47
102
}
330
47
100
AcDbScale
 70
     0
300
3/32" = 1'-0"
140
0.09375
141
12.0
290
     0
  0
SCALE
  5
4E
102
{ACAD_REACTORS
330
47
102
}
330
47
100
AcDbScale
 70
     0
300
1/8" = 1'-0"
140
0.125
141
12.0
290
     0
  0
SCALE
  5
4F
102
{ACAD_REACTORS
330
47
102
}
330
47
100
AcDbScale
 70
     0
300
3/16" = 1'-0"
140
0.1875
141
12.0
290
     0
  0
SCALE
  5
50
102
{ACAD_REACTORS
330
47
102
}
330
47
100
AcDbScale
 70
     0
300
1/4" = 1'-0"
140
0.25
141
12.0
290
     0
  0
SCALE
  5
51
102
{ACAD_REACTORS
330
47
102
}
330
47
100
AcDbScale
 70
     0
300
3/8" = 1'-0"
140
0.375
141
12.0
290
     0
  0
SCALE
  5
52
102
{ACAD_REACTORS
330
47
102
}
330
47
100
AcDbScale
 70
     0
300
1/2" = 1'-0"
140
0.5
141
12.0
290
     0
  0
SCALE
  5
53
102
{ACAD_REACTORS
330
47
102
}
330
47
100
AcDbScale
 70
     0
300
3/4" = 1'-0"
140
0.75
141
12.0
290
     0
  0
SCALE
  5
54
102
{ACAD_REACTORS
330
47
102
}
330
47
100
AcDbScale
 70
     0
300
1" = 1'-0"
140
1.0
141
12.0
290
     0
  0
SCALE
  5
55
102
{ACAD_REACTORS
330
47
102
}
330
47
100
AcDbScale
 70
     0
300
1-1/2" = 1'-0"
140
1.5
141
12.0
290
     0
  0
SCALE
  5
56
102
{ACAD_REACTORS
330
47
102
}
330
47
100
AcDbScale
 70
     0
300
3" = 1'-0"
140
3.0
141
12.0
290
     0
  0
SCALE
  5
57
102
{ACAD_REACTORS
330
47
102
}
330
47
100
AcDbScale
 70
     0
300
6" = 1'-0"
140
6.0
141
12.0
290
     0
  0
SCALE
  5
58
102
{ACAD_REACTORS
330
47
102
}
330
47
100
AcDbScale
 70
     0
300
1'-0" = 1'-0"
140
12.0
141
12.0
290
     0
  0
TABLESTYLE
  5
5A
102
{ACAD_REACTORS
330
59
102
}
102
{ACAD_XDICTIONARY
360
AF
102
}
330
59
100
AcDbTableStyle
  3
Standard
 70
     0
 71
     0
 40
0.06
 41
0.06
280
     0
281
     0
  7
Standard
140
0.18
170
     2
 62
     0
 63
   257
283
     0
 90
        4
 91
        0
  1

274
    -2
284
     1
 64
     0
275
    -2
285
     1
 65
     0
276
    -2
286
     1
 66
     0
277
    -2
287
     1
 67
     0
278
    -2
288
     1
 68
     0
279
    -2
289
     1
 69
     0
  7
Standard
140
0.25
170
     5
 62
     0
 63
   257
283
     0
 90
        4
 91
        0
  1

274
    -2
284
     1
 64
     0
275
    -2
285
     1
 65
     0
276
    -2
286
     1
 66
     0
277
    -2
287
     1
 67
     0
278
    -2
288
     1
 68
     0
279
    -2
289
     1
 69
     0
  7
Standard
140
0.18
170
     5
 62
     0
 63
   257
283
     0
 90
        4
 91
        0
  1

274
    -2
284
     1
 64
     0
275
    -2
285
     1
 65
     0
276
    -2
286
     1
 66
     0
277
    -2
287
     1
 67
     0
278
    -2
288
     1
 68
     0
279
    -2
289
     1
 69
     0
  0
VISUALSTYLE
  5
2F
102
{ACAD_REACTORS
330
2A
102
}
330
2A
100
AcDbVisualStyle
  2
2dWireframe
 70
     4
177
     3
291
     0
 70
    58
 90
        0
176
     1
 90
        2
176
     1
 90
        0
176
     1
 90
        0
176
     1
 40
0.6
176
     1
 40
30.0
176
     1
 62
     7
420
 16777215
176
     1
 90
        1
176
     1
 90
        4
176
     1
 62
     7
176
     1
 62
   257
176
     1
 90
        1
176
     1
 90
        1
176
     1
 40
1.0
176
     1
 90
        0
176
     1
 62
   257
176
     1
 40
1.0
176
     1
 90
        1
176
     1
 90
        6
176
     1
 90
        2
176
     1
 62
     7
176
     1
 90
        5
176
     1
 90
        0
176
     1
 90
        0
176
     1
290
     0
176
     1
 90
        1
176
     1
 40
0.0
176
     1
 90
        0
176
     1
290
     1
176
     1
290
     1
176
     1
290
     0
176
     1
290
     0
176
     1
290
     0
176
     1
290
     0
176
     1
290
     0
176
     1
290
     0
176
     1
290
     0
176
     1
 90
       50
176
     1
 40
0.0
176
     1
 40
1.0
176
     1
 90
        0
176
     1
 62
    18
420
        0
176
     1
 90
       50
176
     1
 90
        3
176
     1
 62
     5
420
      255
176
     1
290
     0
176
     1
 90
       50
176
     1
 90
       50
176
     1
 90
       50
176
     1
290
     0
176
     1
 90
       50
176
     1
 62
   256
176
     0
 40
1.0
176
     0
 90
        2
176
     1
  1
strokes_ogs.tif
176
     1
290
     0
176
     1
 40
1.0
176
     1
 40
1.0
176
     1
  0
VISUALSTYLE
  5
32
102
{ACAD_REACTORS
330
2A
102
}
330
2A
100
AcDbVisualStyle
  2
Basic
 70
     7
177
     3
291
     1
 70
    58
 90
        1
176
     1
 90
        0
176
     1
 90
        1
176
     1
 90
        0
176
     1
 40
0.6
176
     1
 40
30.0
176
     1
 62
     7
420
 16777215
176
     1
 90
        0
176
     1
 90
        4
176
     1
 62
     7
176
     1
 62
   257
176
     1
 90
        1
176
     1
 90
        1
176
     1
 40
1.0
176
     1
 90
        8
176
     1
 62
     7
176
     1
 40
1.0
176
     1
 90
        1
176
     1
 90
        6
176
     1
 90
        2
176
     1
 62
     7
176
     1
 90
        5
176
     1
 90
        0
176
     1
 90
        0
176
     1
290
     0
176
     1
 90
        1
176
     1
 40
0.0
176
     1
 90
        0
176
     1
290
     0
176
     1
290
     1
176
     1
290
     1
176
     1
290
     0
176
     1
290
     0
176
     1
290
     0
176
     1
290
     0
176
     1
290
     0
176
     1
290
     0
176
     1
 90
       50
176
     1
 40
0.0
176
     1
 40
1.0
176
     1
 90
        0
176
     1
 62
    18
420
        0
176
     1
 90
       50
176
     1
 90
        3
176
     1
 62
     5
420
      255
176
     1
290
     0
176
     1
 90
       50
176
     1
 90
       50
176
     1
 90
       50
176
     1
290
     0
176
     1
 90
       50
176
     1
 62
   256
176
     0
 40
1.0
176
     0
 90
        2
176
     1
  1
strokes_ogs.tif
176
     1
290
     0
176
     1
 40
1.0
176
     1
 40
1.0
176
     1
  0
VISUALSTYLE
  5
36
102
{ACAD_REACTORS
330
2A
102
}
330
2A
100
AcDbVisualStyle
  2
Brighten
 70
    12
177
     3
291
     1
 70
    58
 90
        2
176
     1
 90
        2
176
     1
 90
        0
176
     1
 90
        0
176
     1
 40
0.6
176
     1
 40
30.0
176
     1
 62
     7
420
 16777215
176
     1
 90
        1
176
     1
 90
        4
176
     1
 62
     7
176
     1
 62
   257
176
     1
 90
        1
176
     1
 90
        1
176
     1
 40
1.0
176
     1
 90
        8
176
     1
 62
     7
176
     1
 40
1.0
176
     1
 90
        1
176
     1
 90
        6
176
     1
 90
        2
176
     1
 62
     7
176
     1
 90
        5
176
     1
 90
        0
176
     1
 90
        0
176
     1
290
     0
176
     1
 90
        1
176
     1
 40
50.0
176
     1
 90
        0
176
     1
290
     0
176
     1
290
     1
176
     1
290
     1
176
     1
290
     0
176
     1
290
     0
176
     1
290
     0
176
     1
290
     0
176
     1
290
     0
176
     1
290
     0
176
     1
 90
       50
176
     1
 40
0.0
176
     1
 40
1.0
176
     1
 90
        0
176
     1
 62
    18
420
        0
176
     1
 90
       50
176
     1
 90
        3
176
     1
 62
     5
420
      255
176
     1
290
     0
176
     1
 90
       50
176
     1
 90
       50
176
     1
 90
       50
176
     1
290
     0
176
     1
 90
       50
176
     1
 62
   256
176
     0
 40
1.0
176
     0
 90
        2
176
     1
  1
strokes_ogs.tif
176
     1
290
     0
176
     1
 40
1.0
176
     1
 40
1.0
176
     1
  0
VISUALSTYLE
  5
3A
102
{ACAD_REACTORS
330
2A
102
}
330
2A
100
AcDbVisualStyle
  2
ColorChange
 70
    16
177
     3
291
     1
 70
    58
 90
        2
176
     1
 90
        2
176
     1
 90
        3
176
     1
 90
        0
176
     1
 40
0.6
176
     1
 40
30.0
176
     1
 62
     8
420
  8421504
176
     1
 90
        1
176
     1
 90
        4
176
     1
 62
     7
176
     1
 62
   257
176
     1
 90
        1
176
     1
 90
        1
176
     1
 40
1.0
176
     1
 90
        8
176
     1
 62
     8
420
  8421504
176
     1
 40
1.0
176
     1
 90
        1
176
     1
 90
        6
176
     1
 90
        2
176
     1
 62
     7
176
     1
 90
        5
176
     1
 90
        0
176
     1
 90
        0
176
     1
290
     0
176
     1
 90
        1
176
     1
 40
0.0
176
     1
 90
        0
176
     1
290
     0
176
     1
290
     1
176
     1
290
     1
176
     1
290
     0
176
     1
290
     0
176
     1
290
     0
176
     1
290
     0
176
     1
290
     0
176
     1
290
     0
176
     1
 90
       50
176
     1
 40
0.0
176
     1
 40
1.0
176
     1
 90
        0
176
     1
 62
    18
420
        0
176
     1
 90
       50
176
     1
 90
        3
176
     1
 62
     5
420
      255
176
     1
290
     0
176
     1
 90
       50
176
     1
 90
       50
176
     1
 90
       50
176
     1
290
     0
176
     1
 90
       50
176
     1
 62
   256
176
     0
 40
1.0
176
     0
 90
        2
176
     1
  1
strokes_ogs.tif
176
     1
290
     0
176
     1
 40
1.0
176
     1
 40
1.0
176
     1
  0
VISUALSTYLE
  5
34
102
{ACAD_REACTORS
330
2A
102
}
330
2A
100
AcDbVisualStyle
  2
Conceptual
 70
     9
177
     3
291
     0
 70
    58
 90
        3
176
     1
 90
        2
176
     1
 90
        0
176
     1
 90
        0
176
     1
 40
0.6
176
     1
 40
30.0
176
     1
 62
     7
420
 16777215
176
     1
 90
        2
176
     1
 90
        2
176
     1
 62
     7
176
     1
 62
   257
176
     1
 90
        1
176
     1
 90
        1
176
     1
 40
179.0
176
     1
 90
        8
176
     1
 62
     7
176
     1
 40
1.0
176
     1
 90
        1
176
     1
 90
        6
176
     1
 90
        2
176
     1
 62
     7
176
     1
 90
        3
176
     1
 90
        0
176
     1
 90
        0
176
     1
290
     0
176
     1
 90
        1
176
     1
 40
0.0
176
     1
 90
        0
176
     1
290
     0
176
     1
290
     1
176
     1
290
     1
176
     1
290
     0
176
     1
290
     0
176
     1
290
     0
176
     1
290
     0
176
     1
290
     0
176
     1
290
     0
176
     1
 90
       50
176
     1
 40
0.0
176
     1
 40
1.0
176
     1
 90
        0
176
     1
 62
    18
420
        0
176
     1
 90
       50
176
     1
 90
        3
176
     1
 62
     5
420
      255
176
     1
290
     0
176
     1
 90
       50
176
     1
 90
       50
176
     1
 90
       50
176
     1
290
     0
176
     1
 90
       50
176
     1
 62
   256
176
     0
 40
1.0
176
     0
 90
        2
176
     1
  1
strokes_ogs.tif
176
     1
290
     0
176
     1
 40
1.0
176
     1
 40
1.0
176
     1
  0
VISUALSTYLE
  5
35
102
{ACAD_REACTORS
330
2A
102
}
330
2A
100
AcDbVisualStyle
  2
Dim
 70
    11
177
     3
291
     1
 70
    58
 90
        2
176
     1
 90
        2
176
     1
 90
        0
176
     1
 90
        0
176
     1
 40
0.6
176
     1
 40
30.0
176
     1
 62
     7
420
 16777215
176
     1
 90
        1
176
     1
 90
        4
176
     1
 62
     7
176
     1
 62
   257
176
     1
 90
        1
176
     1
 90
        1
176
     1
 40
1.0
176
     1
 90
        8
176
     1
 62
     7
176
     1
 40
1.0
176
     1
 90
        1
176
     1
 90
        6
176
     1
 90
        2
176
     1
 62
     7
176
     1
 90
        5
176
     1
 90
        0
176
     1
 90
        0
176
     1
290
     0
176
     1
 90
        1
176
     1
 40
-50.0
176
     1
 90
        0
176
     1
290
     0
176
     1
290
     1
176
     1
290
     1
176
     1
290
     0
176
     1
290
     0
176
     1
290
     0
176
     1
290
     0
176
     1
290
     0
176
     1
290
     0
176
     1
 90
       50
176
     1
 40
0.0
176
     1
 40
1.0
176
     1
 90
        0
176
     1
 62
    18
420
        0
176
     1
 90
       50
176
     1
 90
        3
176
     1
 62
     5
420
      255
176
     1
290
     0
176
     1
 90
       50
176
     1
 90
       50
176
     1
 90
       50
176
     1
290
     0
176
     1
 90
       50
176
     1
 62
   256
176
     0
 40
1.0
176
     0
 90
        2
176
     1
  1
strokes_ogs.tif
176
     1
290
     0
176
     1
 40
1.0
176
     1
 40
1.0
176
     1
  0
VISUALSTYLE
  5
3D
102
{ACAD_REACTORS
330
2A
102
}
330
2A
100
AcDbVisualStyle
  2
EdgeColorOff
 70
    22
177
     3
291
     1
 70
    58
 90
        2
176
     0
 90
        2
176
     0
 90
        0
176
     0
 90
        0
176
     0
 40
0.6
176
     0
 40
30.0
176
     0
 62
     7
420
 16777215
176
     0
 90
        1
176
     0
 90
        4
176
     0
 62
     7
176
     0
 62
   257
176
     0
 90
        1
176
     0
 90
        1
176
     0
 40
1.0
176
     0
 90
        8
176
     2
 62
     7
176
     0
 40
1.0
176
     0
 90
        1
176
     0
 90
        6
176
     0
 90
        2
176
     0
 62
     7
176
     0
 90
        5
176
     0
 90
        0
176
     0
 90
        0
176
     0
290
     0
176
     0
 90
        1
176
     0
 40
0.0
176
     0
 90
        0
176
     0
290
     0
176
     0
290
     1
176
     0
290
     1
176
     0
290
     0
176
     0
290
     0
176
     0
290
     0
176
     0
290
     0
176
     0
290
     0
176
     0
290
     0
176
     0
 90
       50
176
     0
 40
0.0
176
     0
 40
1.0
176
     0
 90
        0
176
     0
 62
    18
420
        0
176
     0
 90
       50
176
     0
 90
        3
176
     0
 62
     5
420
      255
176
     0
290
     0
176
     0
 90
       50
176
     0
 90
       50
176
     0
 90
       50
176
     0
290
     0
176
     0
 90
       50
176
     0
 62
   256
176
     0
 40
1.0
176
     0
 90
        2
176
     0
  1
strokes_ogs.tif
176
     0
290
     0
176
     0
 40
1.0
176
     0
 40
1.0
176
     0
  0
VISUALSTYLE
  5
39
102
{ACAD_REACTORS
330
2A
102
}
330
2A
100
AcDbVisualStyle
  2
Facepattern
 70
    15
177
     3
291
     1
 70
    58
 90
        2
176
     1
 90
        2
176
     1
 90
        0
176
     1
 90
        0
176
     1
 40
0.6
176
     1
 40
30.0
176
     1
 62
     7
420
 16777215
176
     1
 90
        1
176
     1
 90
        4
176
     1
 62
     7
176
     1
 62
   257
176
     1
 90
        1
176
     1
 90
        1
176
     1
 40
1.0
176
     1
 90
        8
176
     1
 62
     7
176
     1
 40
1.0
176
     1
 90
        1
176
     1
 90
        6
176
     1
 90
        2
176
     1
 62
     7
176
     1
 90
        5
176
     1
 90
        0
176
     1
 90
        0
176
     1
290
     0
176
     1
 90
        1
176
     1
 40
0.0
176
     1
 90
        0
176
     1
290
     0
176
     1
290
     1
176
     1
290
     1
176
     1
290
     0
176
     1
290
     0
176
     1
290
     0
176
     1
290
     0
176
     1
290
     0
176
     1
290
     0
176
     1
 90
       50
176
     1
 40
0.0
176
     1
 40
1.0
176
     1
 90
        0
176
     1
 62
    18
420
        0
176
     1
 90
       50
176
     1
 90
        3
176
     1
 62
     5
420
      255
176
     1
290
     0
176
     1
 90
       50
176
     1
 90
       50
176
     1
 90
       50
176
     1
290
     0
176
     1
 90
       50
176
     1
 62
   256
176
     0
 40
1.0
176
     0
 90
        2
176
     1
  1
strokes_ogs.tif
176
     1
290
     0
176
     1
 40
1.0
176
     1
 40
1.0
176
     1
  0
VISUALSTYLE
  5
2B
102
{ACAD_REACTORS
330
2A
102
}
330
2A
100
AcDbVisualStyle
  2
Flat
 70
     0
177
     3
291
     1
 70
    58
 90
        2
176
     1
 90
        1
176
     1
 90
        1
176
     1
 90
        2
176
     1
 40
0.6
176
     1
 40
30.0
176
     1
 62
     7
420
 16777215
176
     1
 90
        0
176
     1
 90
        0
176
     1
 62
     7
176
     1
 62
   257
176
     1
 90
        1
176
     1
 90
        1
176
     1
 40
1.0
176
     1
 90
        8
176
     1
 62
     7
176
     1
 40
1.0
176
     1
 90
        1
176
     1
 90
        6
176
     1
 90
        2
176
     1
 62
     7
176
     1
 90
        5
176
     1
 90
        0
176
     1
 90
        0
176
     1
290
     0
176
     1
 90
       13
176
     1
 40
0.0
176
     1
 90
        0
176
     1
290
     0
176
     1
290
     1
176
     1
290
     1
176
     1
290
     0
176
     1
290
     0
176
     1
290
     0
176
     1
290
     0
176
     1
290
     0
176
     1
290
     0
176
     1
 90
       50
176
     1
 40
0.0
176
     1
 40
1.0
176
     1
 90
        0
176
     1
 62
    18
420
        0
176
     1
 90
       50
176
     1
 90
        3
176
     1
 62
     5
420
      255
176
     1
290
     0
176
     1
 90
       50
176
     1
 90
       50
176
     1
 90
       50
176
     1
290
     0
176
     1
 90
       50
176
     1
 62
   256
176
     0
 40
1.0
176
     0
 90
        2
176
     1
  1
strokes_ogs.tif
176
     1
290
     0
176
     1
 40
1.0
176
     1
 40
1.0
176
     1
  0
VISUALSTYLE
  5
2C
102
{ACAD_REACTORS
330
2A
102
}
330
2A
100
AcDbVisualStyle
  2
FlatWithEdges
 70
     1
177
     3
291
     1
 70
    58
 90
        2
176
     1
 90
        1
176
     1
 90
        1
176
     1
 90
        2
176
     1
 40
0.6
176
     1
 40
30.0
176
     1
 62
     7
420
 16777215
176
     1
 90
        1
176
     1
 90
        0
176
     1
 62
     7
176
     1
 62
   257
176
     1
 90
        1
176
     1
 90
        1
176
     1
 40
1.0
176
     1
 90
        0
176
     1
 62
   257
176
     1
 40
1.0
176
     1
 90
        1
176
     1
 90
        6
176
     1
 90
        2
176
     1
 62
     7
176
     1
 90
        5
176
     1
 90
        0
176
     1
 90
        0
176
     1
290
     0
176
     1
 90
       13
176
     1
 40
0.0
176
     1
 90
        0
176
     1
290
     0
176
     1
290
     1
176
     1
290
     1
176
     1
290
     0
176
     1
290
     0
176
     1
290
     0
176
     1
290
     0
176
     1
290
     0
176
     1
290
     0
176
     1
 90
       50
176
     1
 40
0.0
176
     1
 40
1.0
176
     1
 90
        0
176
     1
 62
    18
420
        0
176
     1
 90
       50
176
     1
 90
        3
176
     1
 62
     5
420
      255
176
     1
290
     0
176
     1
 90
       50
176
     1
 90
       50
176
     1
 90
       50
176
     1
290
     0
176
     1
 90
       50
176
     1
 62
   256
176
     0
 40
1.0
176
     0
 90
        2
176
     1
  1
strokes_ogs.tif
176
     1
290
     0
176
     1
 40
1.0
176
     1
 40
1.0
176
     1
  0
VISUALSTYLE
  5
2D
102
{ACAD_REACTORS
330
2A
102
}
330
2A
100
AcDbVisualStyle
  2
Gouraud
 70
     2
177
     3
291
     1
 70
    58
 90
        2
176
     1
 90
        2
176
     1
 90
        1
176
     1
 90
        2
176
     1
 40
0.6
176
     1
 40
30.0
176
     1
 62
     7
420
 16777215
176
     1
 90
        0
176
     1
 90
        0
176
     1
 62
     7
176
     1
 62
   257
176
     1
 90
        1
176
     1
 90
        1
176
     1
 40
1.0
176
     1
 90
        0
176
     1
 62
     7
176
     1
 40
1.0
176
     1
 90
        1
176
     1
 90
        6
176
     1
 90
        2
176
     1
 62
     7
176
     1
 90
        5
176
     1
 90
        0
176
     1
 90
        0
176
     1
290
     0
176
     1
 90
       13
176
     1
 40
0.0
176
     1
 90
        0
176
     1
290
     0
176
     1
290
     1
176
     1
290
     1
176
     1
290
     0
176
     1
290
     0
176
     1
290
     0
176
     1
290
     0
176
     1
290
     0
176
     1
290
     0
176
     1
 90
       50
176
     1
 40
0.0
176
     1
 40
1.0
176
     1
 90
        0
176
     1
 62
    18
420
        0
176
     1
 90
       50
176
     1
 90
        3
176
     1
 62
     5
420
      255
176
     1
290
     0
176
     1
 90
       50
176
     1
 90
       50
176
     1
 90
       50
176
     1
290
     0
176
     1
 90
       50
176
     1
 62
   256
176
     0
 40
1.0
176
     0
 90
        2
176
     1
  1
strokes_ogs.tif
176
     1
290
     0
176
     1
 40
1.0
176
     1
 40
1.0
176
     1
  0
VISUALSTYLE
  5
2E
102
{ACAD_REACTORS
330
2A
102
}
330
2A
100
AcDbVisualStyle
  2
GouraudWithEdges
 70
     3
177
     3
291
     1
 70
    58
 90
        2
176
     1
 90
        2
176
     1
 90
        1
176
     1
 90
        2
176
     1
 40
0.6
176
     1
 40
30.0
176
     1
 62
     7
420
 16777215
176
     1
 90
        1
176
     1
 90
        0
176
     1
 62
     7
176
     1
 62
   257
176
     1
 90
        1
176
     1
 90
        1
176
     1
 40
1.0
176
     1
 90
        0
176
     1
 62
   257
176
     1
 40
1.0
176
     1
 90
        1
176
     1
 90
        6
176
     1
 90
        2
176
     1
 62
     7
176
     1
 90
        5
176
     1
 90
        0
176
     1
 90
        0
176
     1
290
     0
176
     1
 90
       13
176
     1
 40
0.0
176
     1
 90
        0
176
     1
290
     0
176
     1
290
     1
176
     1
290
     1
176
     1
290
     0
176
     1
290
     0
176
     1
290
     0
176
     1
290
     0
176
     1
290
     0
176
     1
290
     0
176
     1
 90
       50
176
     1
 40
0.0
176
     1
 40
1.0
176
     1
 90
        0
176
     1
 62
    18
420
        0
176
     1
 90
       50
176
     1
 90
        3
176
     1
 62
     5
420
      255
176
     1
290
     0
176
     1
 90
       50
176
     1
 90
       50
176
     1
 90
       50
176
     1
290
     0
176
     1
 90
       50
176
     1
 62
   256
176
     0
 40
1.0
176
     0
 90
        2
176
     1
  1
strokes_ogs.tif
176
     1
290
     0
176
     1
 40
1.0
176
     1
 40
1.0
176
     1
  0
VISUALSTYLE
  5
31
102
{ACAD_REACTORS
330
2A
102
}
330
2A
100
AcDbVisualStyle
  2
Hidden
 70
     6
177
     3
291
     0
 70
    58
 90
        1
176
     1
 90
        2
176
     1
 90
        2
176
     1
 90
        0
176
     1
 40
0.6
176
     1
 40
30.0
176
     1
 62
     7
420
 16777215
176
     1
 90
        2
176
     1
 90
        2
176
     1
 62
     7
176
     1
 62
   257
176
     1
 90
        2
176
     1
 90
        1
176
     1
 40
40.0
176
     1
 90
        0
176
     1
 62
   257
176
     1
 40
1.0
176
     1
 90
        1
176
     1
 90
        6
176
     1
 90
        2
176
     1
 62
     7
176
     1
 90
        3
176
     1
 90
        0
176
     1
 90
        0
176
     1
290
     0
176
     1
 90
        1
176
     1
 40
0.0
176
     1
 90
        0
176
     1
290
     0
176
     1
290
     1
176
     1
290
     1
176
     1
290
     0
176
     1
290
     0
176
     1
290
     0
176
     1
290
     0
176
     1
290
     0
176
     1
290
     0
176
     1
 90
       50
176
     1
 40
0.0
176
     1
 40
1.0
176
     1
 90
        0
176
     1
 62
    18
420
        0
176
     1
 90
       50
176
     1
 90
        3
176
     1
 62
     5
420
      255
176
     1
290
     0
176
     1
 90
       50
176
     1
 90
       50
176
     1
 90
       50
176
     1
290
     0
176
     1
 90
       50
176
     1
 62
   256
176
     0
 40
1.0
176
     0
 90
        2
176
     1
  1
strokes_ogs.tif
176
     1
290
     0
176
     1
 40
1.0
176
     1
 40
1.0
176
     1
  0
VISUALSTYLE
  5
3B
102
{ACAD_REACTORS
330
2A
102
}
330
2A
100
AcDbVisualStyle
  2
JitterOff
 70
    20
177
     3
291
     1
 70
    58
 90
        2
176
     0
 90
        2
176
     0
 90
        0
176
     0
 90
        0
176
     0
 40
0.6
176
     0
 40
30.0
176
     0
 62
     7
420
 16777215
176
     0
 90
        1
176
     0
 90
        4
176
     0
 62
     7
176
     0
 62
   257
176
     0
 90
        1
176
     0
 90
        1
176
     0
 40
1.0
176
     0
 90
       10
176
     2
 62
     7
176
     0
 40
1.0
176
     0
 90
        1
176
     0
 90
        6
176
     0
 90
        2
176
     0
 62
     7
176
     0
 90
        5
176
     0
 90
        0
176
     0
 90
        0
176
     0
290
     0
176
     0
 90
        1
176
     0
 40
0.0
176
     0
 90
        0
176
     0
290
     0
176
     0
290
     1
176
     0
290
     1
176
     0
290
     0
176
     0
290
     0
176
     0
290
     0
176
     0
290
     0
176
     0
290
     0
176
     0
290
     0
176
     0
 90
       50
176
     0
 40
0.0
176
     0
 40
1.0
176
     0
 90
        0
176
     0
 62
    18
420
        0
176
     0
 90
       50
176
     0
 90
        3
176
     0
 62
     5
420
      255
176
     0
290
     0
176
     0
 90
       50
176
     0
 90
       50
176
     0
 90
       50
176
     0
290
     0
176
     0
 90
       50
176
     0
 62
   256
176
     0
 40
1.0
176
     0
 90
        2
176
     0
  1
strokes_ogs.tif
176
     0
290
     0
176
     0
 40
1.0
176
     0
 40
1.0
176
     0
  0
VISUALSTYLE
  5
38
102
{ACAD_REACTORS
330
2A
102
}
330
2A
100
AcDbVisualStyle
  2
Linepattern
 70
    14
177
     3
291
     1
 70
    58
 90
        2
176
     1
 90
        2
176
     1
 90
        0
176
     1
 90
        0
176
     1
 40
0.6
176
     1
 40
30.0
176
     1
 62
     7
420
 16777215
176
     1
 90
        1
176
     1
 90
        4
176
     1
 62
     7
176
     1
 62
   257
176
     1
 90
        7
176
     1
 90
        7
176
     1
 40
1.0
176
     1
 90
        8
176
     1
 62
     7
176
     1
 40
1.0
176
     1
 90
        1
176
     1
 90
        6
176
     1
 90
        2
176
     1
 62
     7
176
     1
 90
        5
176
     1
 90
        0
176
     1
 90
        0
176
     1
290
     0
176
     1
 90
        1
176
     1
 40
0.0
176
     1
 90
        0
176
     1
290
     0
176
     1
290
     1
176
     1
290
     1
176
     1
290
     0
176
     1
290
     0
176
     1
290
     0
176
     1
290
     0
176
     1
290
     0
176
     1
290
     0
176
     1
 90
       50
176
     1
 40
0.0
176
     1
 40
1.0
176
     1
 90
        0
176
     1
 62
    18
420
        0
176
     1
 90
       50
176
     1
 90
        3
176
     1
 62
     5
420
      255
176
     1
290
     0
176
     1
 90
       50
176
     1
 90
       50
176
     1
 90
       50
176
     1
290
     0
176
     1
 90
       50
176
     1
 62
   256
176
     0
 40
1.0
176
     0
 90
        2
176
     1
  1
strokes_ogs.tif
176
     1
290
     0
176
     1
 40
1.0
176
     1
 40
1.0
176
     1
  0
VISUALSTYLE
  5
3C
102
{ACAD_REACTORS
330
2A
102
}
330
2A
100
AcDbVisualStyle
  2
OverhangOff
 70
    21
177
     3
291
     1
 70
    58
 90
        2
176
     0
 90
        2
176
     0
 90
        0
176
     0
 90
        0
176
     0
 40
0.6
176
     0
 40
30.0
176
     0
 62
     7
420
 16777215
176
     0
 90
        1
176
     0
 90
        4
176
     0
 62
     7
176
     0
 62
   257
176
     0
 90
        1
176
     0
 90
        1
176
     0
 40
1.0
176
     0
 90
        9
176
     2
 62
     7
176
     0
 40
1.0
176
     0
 90
        1
176
     0
 90
        6
176
     0
 90
        2
176
     0
 62
     7
176
     0
 90
        5
176
     0
 90
        0
176
     0
 90
        0
176
     0
290
     0
176
     0
 90
        1
176
     0
 40
0.0
176
     0
 90
        0
176
     0
290
     0
176
     0
290
     1
176
     0
290
     1
176
     0
290
     0
176
     0
290
     0
176
     0
290
     0
176
     0
290
     0
176
     0
290
     0
176
     0
290
     0
176
     0
 90
       50
176
     0
 40
0.0
176
     0
 40
1.0
176
     0
 90
        0
176
     0
 62
    18
420
        0
176
     0
 90
       50
176
     0
 90
        3
176
     0
 62
     5
420
      255
176
     0
290
     0
176
     0
 90
       50
176
     0
 90
       50
176
     0
 90
       50
176
     0
290
     0
176
     0
 90
       50
176
     0
 62
   256
176
     0
 40
1.0
176
     0
 90
        2
176
     0
  1
strokes_ogs.tif
176
     0
290
     0
176
     0
 40
1.0
176
     0
 40
1.0
176
     0
  0
VISUALSTYLE
  5
33
102
{ACAD_REACTORS
330
2A
102
}
330
2A
100
AcDbVisualStyle
  2
Realistic
 70
     8
177
     3
291
     0
 70
    58
 90
        2
176
     1
 90
        3
176
     1
 90
        0
176
     1
 90
        2
176
     1
 40
0.6
176
     1
 40
30.0
176
     1
 62
     7
420
 16777215
176
     1
 90
        0
176
     1
 90
        0
176
     1
 62
     7
176
     1
 62
   257
176
     1
 90
        1
176
     1
 90
        1
176
     1
 40
1.0
176
     1
 90
        8
176
     1
 62
   257
176
     1
 40
1.0
176
     1
 90
        1
176
     1
 90
        6
176
     1
 90
        2
176
     1
 62
     7
176
     1
 90
        3
176
     1
 90
        0
176
     1
 90
        0
176
     1
290
     0
176
     1
 90
       13
176
     1
 40
0.0
176
     1
 90
        0
176
     1
290
     0
176
     1
290
     1
176
     1
290
     1
176
     1
290
     0
176
     1
290
     0
176
     1
290
     0
176
     1
290
     0
176
     1
290
     0
176
     1
290
     0
176
     1
 90
       50
176
     1
 40
0.0
176
     1
 40
1.0
176
     1
 90
        0
176
     1
 62
    18
420
        0
176
     1
 90
       50
176
     1
 90
        3
176
     1
 62
     5
420
      255
176
     1
290
     0
176
     1
 90
       50
176
     1
 90
       50
176
     1
 90
       50
176
     1
290
     0
176
     1
 90
       50
176
     1
 62
   256
176
     0
 40
1.0
176
     0
 90
        2
176
     1
  1
strokes_ogs.tif
176
     1
290
     0
176
     1
 40
1.0
176
     1
 40
1.0
176
     1
  0
VISUALSTYLE
  5
42
102
{ACAD_REACTORS
330
2A
102
}
330
2A
100
AcDbVisualStyle
  2
Shaded
 70
    27
177
     3
291
     0
 70
    58
 90
        2
176
     1
 90
        2
176
     1
 90
        1
176
     1
 90
        2
176
     1
 40
0.6
176
     1
 40
30.0
176
     1
 62
     7
420
 16777215
176
     1
 90
        0
176
     1
 90
        4
176
     1
 62
     7
176
     1
 62
   257
176
     1
 90
        1
176
     1
 90
        1
176
     1
 40
1.0
176
     1
 90
        8
176
     1
 62
   257
176
     1
 40
1.0
176
     1
 90
        1
176
     1
 90
        6
176
     1
 90
        2
176
     1
 62
     8
420
  7895160
176
     1
 90
        3
176
     1
 90
        0
176
     1
 90
        0
176
     1
290
     0
176
     1
 90
        5
176
     1
 40
0.0
176
     1
 90
        0
176
     1
290
     0
176
     1
290
     1
176
     1
290
     1
176
     1
290
     0
176
     1
290
     0
176
     1
290
     0
176
     1
290
     0
176
     1
290
     0
176
     1
290
     0
176
     1
 90
       50
176
     1
 40
0.0
176
     1
 40
1.0
176
     1
 90
        0
176
     1
 62
    18
420
        0
176
     1
 90
       50
176
     1
 90
        3
176
     1
 62
     5
420
      255
176
     1
290
     0
176
     1
 90
       50
176
     1
 90
       50
176
     1
 90
       50
176
     1
290
     0
176
     1
 90
       50
176
     1
 62
   256
176
     0
 40
1.0
176
     0
 90
        2
176
     1
  1
strokes_ogs.tif
176
     1
290
     0
176
     1
 40
1.0
176
     1
 40
1.0
176
     1
  0
VISUALSTYLE
  5
41
102
{ACAD_REACTORS
330
2A
102
}
330
2A
100
AcDbVisualStyle
  2
Shaded with edges
 70
    26
177
     3
291
     0
 70
    58
 90
        2
176
     1
 90
        2
176
     1
 90
        1
176
     1
 90
        2
176
     1
 40
0.6
176
     1
 40
30.0
176
     1
 62
     7
420
 16777215
176
     1
 90
        1
176
     1
 90
       10
176
     1
 62
     7
176
     1
 62
   257
176
     1
 90
        2
176
     1
 90
        1
176
     1
 40
1.0
176
     1
 90
        8
176
     1
 62
   257
176
     1
 40
1.0
176
     1
 90
        1
176
     1
 90
        6
176
     1
 90
        2
176
     1
 62
     7
176
     1
 90
        3
176
     1
 90
        0
176
     1
 90
        0
176
     1
290
     0
176
     1
 90
        5
176
     1
 40
0.0
176
     1
 90
        0
176
     1
290
     0
176
     1
290
     1
176
     1
290
     1
176
     1
290
     0
176
     1
290
     0
176
     1
290
     0
176
     1
290
     0
176
     1
290
     0
176
     1
290
     0
176
     1
 90
       50
176
     1
 40
0.0
176
     1
 40
1.0
176
     1
 90
        0
176
     1
 62
    18
420
        0
176
     1
 90
       50
176
     1
 90
        3
176
     1
 62
     5
420
      255
176
     1
290
     0
176
     1
 90
       50
176
     1
 90
       50
176
     1
 90
       50
176
     1
290
     0
176
     1
 90
       50
176
     1
 62
   256
176
     0
 40
1.0
176
     0
 90
        2
176
     1
  1
strokes_ogs.tif
176
     1
290
     0
176
     1
 40
1.0
176
     1
 40
1.0
176
     1
  0
VISUALSTYLE
  5
3E
102
{ACAD_REACTORS
330
2A
102
}
330
2A
100
AcDbVisualStyle
  2
Shades of Gray
 70
    23
177
     3
291
     0
 70
    58
 90
        2
176
     1
 90
        2
176
     1
 90
        3
176
     1
 90
        0
176
     1
 40
0.6
176
     1
 40
30.0
176
     1
 62
     7
420
 16777215
176
     1
 90
        2
176
     1
 90
        2
176
     1
 62
     7
176
     1
 62
     7
176
     1
 90
        1
176
     1
 90
        1
176
     1
 40
40.0
176
     1
 90
        8
176
     1
 62
     7
176
     1
 40
1.0
176
     1
 90
        1
176
     1
 90
        6
176
     1
 90
        2
176
     1
 62
     7
176
     1
 90
        3
176
     1
 90
        0
176
     1
 90
        0
176
     1
290
     0
176
     1
 90
        1
176
     1
 40
0.0
176
     1
 90
        0
176
     1
290
     0
176
     1
290
     1
176
     1
290
     1
176
     1
290
     0
176
     1
290
     0
176
     1
290
     0
176
     1
290
     0
176
     1
290
     0
176
     1
290
     0
176
     1
 90
       50
176
     1
 40
0.0
176
     1
 40
1.0
176
     1
 90
        0
176
     1
 62
    18
420
        0
176
     1
 90
       50
176
     1
 90
        3
176
     1
 62
     5
420
      255
176
     1
290
     0
176
     1
 90
       50
176
     1
 90
       50
176
     1
 90
       50
176
     1
290
     0
176
     1
 90
       50
176
     1
 62
   256
176
     0
 40
1.0
176
     0
 90
        2
176
     1
  1
strokes_ogs.tif
176
     1
290
     0
176
     1
 40
1.0
176
     1
 40
1.0
176
     1
  0
VISUALSTYLE
  5
3F
102
{ACAD_REACTORS
330
2A
102
}
330
2A
100
AcDbVisualStyle
  2
Sketchy
 70
    24
177
     3
291
     0
 70
    58
 90
        1
176
     1
 90
        2
176
     1
 90
        2
176
     1
 90
        0
176
     1
 40
0.6
176
     1
 40
30.0
176
     1
 62
     7
420
 16777215
176
     1
 90
        2
176
     1
 90
        2
176
     1
 62
     7
176
     1
 62
     7
176
     1
 90
        1
176
     1
 90
        1
176
     1
 40
40.0
176
     1
 90
       11
176
     1
 62
     7
176
     1
 40
1.0
176
     1
 90
        1
176
     1
 90
        6
176
     1
 90
        2
176
     1
 62
     7
176
     1
 90
        6
176
     1
 90
        0
176
     1
 90
        0
176
     1
290
     0
176
     1
 90
        1
176
     1
 40
0.0
176
     1
 90
        0
176
     1
290
     0
176
     1
290
     1
176
     1
290
     1
176
     1
290
     0
176
     1
290
     0
176
     1
290
     0
176
     1
290
     0
176
     1
290
     0
176
     1
290
     0
176
     1
 90
       50
176
     1
 40
0.0
176
     1
 40
1.0
176
     1
 90
        0
176
     1
 62
    18
420
        0
176
     1
 90
       50
176
     1
 90
        3
176
     1
 62
     5
420
      255
176
     1
290
     0
176
     1
 90
       50
176
     1
 90
       50
176
     1
 90
       50
176
     1
290
     0
176
     1
 90
       50
176
     1
 62
   256
176
     0
 40
1.0
176
     0
 90
        2
176
     1
  1
strokes_ogs.tif
176
     1
290
     0
176
     1
 40
1.0
176
     1
 40
1.0
176
     1
  0
VISUALSTYLE
  5
37
102
{ACAD_REACTORS
330
2A
102
}
330
2A
100
AcDbVisualStyle
  2
Thicken
 70
    13
177
     3
291
     1
 70
    58
 90
        2
176
     1
 90
        2
176
     1
 90
        0
176
     1
 90
        0
176
     1
 40
0.6
176
     1
 40
30.0
176
     1
 62
     7
420
 16777215
176
     1
 90
        1
176
     1
 90
        4
176
     1
 62
     7
176
     1
 62
   257
176
     1
 90
        1
176
     1
 90
        1
176
     1
 40
1.0
176
     1
 90
       12
176
     1
 62
     7
176
     1
 40
1.0
176
     1
 90
        1
176
     1
 90
        6
176
     1
 90
        2
176
     1
 62
     7
176
     1
 90
        5
176
     1
 90
        0
176
     1
 90
        0
176
     1
290
     0
176
     1
 90
        1
176
     1
 40
0.0
176
     1
 90
        0
176
     1
290
     0
176
     1
290
     1
176
     1
290
     1
176
     1
290
     0
176
     1
290
     0
176
     1
290
     0
176
     1
290
     0
176
     1
290
     0
176
     1
290
     0
176
     1
 90
       50
176
     1
 40
0.0
176
     1
 40
1.0
176
     1
 90
        0
176
     1
 62
    18
420
        0
176
     1
 90
       50
176
     1
 90
        3
176
     1
 62
     5
420
      255
176
     1
290
     0
176
     1
 90
       50
176
     1
 90
       50
176
     1
 90
       50
176
     1
290
     0
176
     1
 90
       50
176
     1
 62
   256
176
     0
 40
1.0
176
     0
 90
        2
176
     1
  1
strokes_ogs.tif
176
     1
290
     0
176
     1
 40
1.0
176
     1
 40
1.0
176
     1
  0
VISUALSTYLE
  5
30
102
{ACAD_REACTORS
330
2A
102
}
330
2A
100
AcDbVisualStyle
  2
Wireframe
 70
     5
177
     3
291
     0
 70
    58
 90
        0
176
     1
 90
        2
176
     1
 90
        0
176
     1
 90
        0
176
     1
 40
0.6
176
     1
 40
30.0
176
     1
 62
     7
420
 16777215
176
     1
 90
        1
176
     1
 90
        4
176
     1
 62
     7
176
     1
 62
   257
176
     1
 90
        1
176
     1
 90
        1
176
     1
 40
1.0
176
     1
 90
        0
176
     1
 62
   257
176
     1
 40
1.0
176
     1
 90
        1
176
     1
 90
        6
176
     1
 90
        2
176
     1
 62
     7
176
     1
 90
        3
176
     1
 90
        0
176
     1
 90
        0
176
     1
290
     0
176
     1
 90
        1
176
     1
 40
0.0
176
     1
 90
        0
176
     1
290
     0
176
     1
290
     1
176
     1
290
     1
176
     1
290
     0
176
     1
290
     0
176
     1
290
     0
176
     1
290
     0
176
     1
290
     0
176
     1
290
     0
176
     1
 90
       50
176
     1
 40
0.0
176
     1
 40
1.0
176
     1
 90
        0
176
     1
 62
    18
420
        0
176
     1
 90
       50
176
     1
 90
        3
176
     1
 62
     5
420
      255
176
     1
290
     0
176
     1
 90
       50
176
     1
 90
       50
176
     1
 90
       50
176
     1
290
     0
176
     1
 90
       50
176
     1
 62
   256
176
     0
 40
1.0
176
     0
 90
        2
176
     1
  1
strokes_ogs.tif
176
     1
290
     0
176
     1
 40
1.0
176
     1
 40
1.0
176
     1
  0
VISUALSTYLE
  5
40
102
{ACAD_REACTORS
330
2A
102
}
330
2A
100
AcDbVisualStyle
  2
X-Ray
 70
    25
177
     3
291
     0
 70
    58
 90
        2
176
     1
 90
        2
176
     1
 90
        1
176
     1
 90
        1
176
     1
 40
0.5
176
     1
 40
30.0
176
     1
 62
     7
420
 16777215
176
     1
 90
        1
176
     1
 90
        0
176
     1
 62
     7
176
     1
 62
   257
176
     1
 90
        1
176
     1
 90
        1
176
     1
 40
1.0
176
     1
 90
        8
176
     1
 62
     7
176
     1
 40
1.0
176
     1
 90
        1
176
     1
 90
        6
176
     1
 90
        2
176
     1
 62
     7
176
     1
 90
        3
176
     1
 90
        0
176
     1
 90
        0
176
     1
290
     0
176
     1
 90
       13
176
     1
 40
0.0
176
     1
 90
        0
176
     1
290
     0
176
     1
290
     1
176
     1
290
     1
176
     1
290
     0
176
     1
290
     0
176
     1
290
     0
176
     1
290
     0
176
     1
290
     0
176
     1
290
     0
176
     1
 90
       50
176
     1
 40
0.0
176
     1
 40
1.0
176
     1
 90
        0
176
     1
 62
    18
420
        0
176
     1
 90
       50
176
     1
 90
        3
176
     1
 62
     5
420
      255
176
     1
290
     0
176
     1
 90
       50
176
     1
 90
       50
176
     1
 90
       50
176
     1
290
     0
176
     1
 90
       50
176
     1
 62
   256
176
     0
 40
1.0
176
     0
 90
        2
176
     1
  1
strokes_ogs.tif
176
     1
290
     0
176
     1
 40
1.0
176
     1
 40
1.0
176
     1
  0
DICTIONARYVAR
  5
AE
102
{ACAD_REACTORS
330
AD
102
}
330
AD
100
DictionaryVariables
280
     0
  1
1:1
  0
DICTIONARYVAR
  5
B3
102
{ACAD_REACTORS
330
AD
102
}
330
AD
100
DictionaryVariables
280
     0
  1
Standard
  0
DICTIONARYVAR
  5
B2
102
{ACAD_REACTORS
330
AD
102
}
330
AD
100
DictionaryVariables
280
     0
  1
Standard
  0
DICTIONARY
  5
AF
330
5A
100
AcDbDictionary
280
     1
281
     1
  3
ACAD_ROUNDTRIP_2008_TABLESTYLE_CELLSTYLEMAP
360
B0
  0
CELLSTYLEMAP
  5
B0
102
{ACAD_REACTORS
330
AF
102
}
330
AF
100
AcDbCellStyleMap
 90
        3
300
CELLSTYLE
  1
TABLEFORMAT_BEGIN
 90
        5
170
     1
 91
        0
 92
    32768
 62
   257
 93
        1
300
CONTENTFORMAT
  1
CONTENTFORMAT_BEGIN
 90
        0
 91
        0
 92
        4
 93
        0
300

 40
0.0
140
1.0
 94
        5
 62
     0
340
11
144
0.25
309
CONTENTFORMAT_END
171
     1
301
MARGIN
  1
CELLMARGIN_BEGIN
 40
0.06
 40
0.06
 40
0.06
 40
0.06
 40
0.06
 40
0.06
309
CELLMARGIN_END
 94
        6
 95
        1
302
GRIDFORMAT
  1
GRIDFORMAT_BEGIN
 90
        0
 91
        1
 62
     0
 92
       -2
340
14
 93
        0
 40
0.045
309
GRIDFORMAT_END
 95
        2
302
GRIDFORMAT
  1
GRIDFORMAT_BEGIN
 90
        0
 91
        1
 62
     0
 92
       -2
340
14
 93
        0
 40
0.045
309
GRIDFORMAT_END
 95
        4
302
GRIDFORMAT
  1
GRIDFORMAT_BEGIN
 90
        0
 91
        1
 62
     0
 92
       -2
340
14
 93
        0
 40
0.045
309
GRIDFORMAT_END
 95
        8
302
GRIDFORMAT
  1
GRIDFORMAT_BEGIN
 90
        0
 91
        1
 62
     0
 92
       -2
340
14
 93
        0
 40
0.045
309
GRIDFORMAT_END
 95
       16
302
GRIDFORMAT
  1
GRIDFORMAT_BEGIN
 90
        0
 91
        1
 62
     0
 92
       -2
340
14
 93
        0
 40
0.045
309
GRIDFORMAT_END
 95
       32
302
GRIDFORMAT
  1
GRIDFORMAT_BEGIN
 90
        0
 91
        1
 62
     0
 92
       -2
340
14
 93
        0
 40
0.045
309
GRIDFORMAT_END
309
TABLEFORMAT_END
  1
CELLSTYLE_BEGIN
 90
        1
 91
        1
300
_TITLE
309
CELLSTYLE_END
300
CELLSTYLE
  1
TABLEFORMAT_BEGIN
 90
        5
170
     1
 91
        0
 92
        0
 62
   257
 93
        1
300
CONTENTFORMAT
  1
CONTENTFORMAT_BEGIN
 90
        0
 91
        0
 92
        4
 93
        0
300

 40
0.0
140
1.0
 94
        5
 62
     0
340
11
144
0.18
309
CONTENTFORMAT_END
171
     1
301
MARGIN
  1
CELLMARGIN_BEGIN
 40
0.06
 40
0.06
 40
0.06
 40
0.06
 40
0.06
 40
0.06
309
CELLMARGIN_END
 94
        6
 95
        1
302
GRIDFORMAT
  1
GRIDFORMAT_BEGIN
 90
        0
 91
        1
 62
     0
 92
       -2
340
14
 93
        0
 40
0.045
309
GRIDFORMAT_END
 95
        2
302
GRIDFORMAT
  1
GRIDFORMAT_BEGIN
 90
        0
 91
        1
 62
     0
 92
       -2
340
14
 93
        0
 40
0.045
309
GRIDFORMAT_END
 95
        4
302
GRIDFORMAT
  1
GRIDFORMAT_BEGIN
 90
        0
 91
        1
 62
     0
 92
       -2
340
14
 93
        0
 40
0.045
309
GRIDFORMAT_END
 95
        8
302
GRIDFORMAT
  1
GRIDFORMAT_BEGIN
 90
        0
 91
        1
 62
     0
 92
       -2
340
14
 93
        0
 40
0.045
309
GRIDFORMAT_END
 95
       16
302
GRIDFORMAT
  1
GRIDFORMAT_BEGIN
 90
        0
 91
        1
 62
     0
 92
       -2
340
14
 93
        0
 40
0.045
309
GRIDFORMAT_END
 95
       32
302
GRIDFORMAT
  1
GRIDFORMAT_BEGIN
 90
        0
 91
        1
 62
     0
 92
       -2
340
14
 93
        0
 40
0.045
309
GRIDFORMAT_END
309
TABLEFORMAT_END
  1
CELLSTYLE_BEGIN
 90
        2
 91
        1
300
_HEADER
309
CELLSTYLE_END
300
CELLSTYLE
  1
TABLEFORMAT_BEGIN
 90
        5
170
     1
 91
        0
 92
        0
 62
   257
 93
        1
300
CONTENTFORMAT
  1
CONTENTFORMAT_BEGIN
 90
        0
 91
        0
 92
        4
 93
        0
300

 40
0.0
140
1.0
 94
        2
 62
     0
340
11
144
0.18
309
CONTENTFORMAT_END
171
     1
301
MARGIN
  1
CELLMARGIN_BEGIN
 40
0.06
 40
0.06
 40
0.06
 40
0.06
 40
0.06
 40
0.06
309
CELLMARGIN_END
 94
        6
 95
        1
302
GRIDFORMAT
  1
GRIDFORMAT_BEGIN
 90
        0
 91
        1
 62
     0
 92
       -2
340
14
 93
        0
 40
0.045
309
GRIDFORMAT_END
 95
        2
302
GRIDFORMAT
  1
GRIDFORMAT_BEGIN
 90
        0
 91
        1
 62
     0
 92
       -2
340
14
 93
        0
 40
0.045
309
GRIDFORMAT_END
 95
        4
302
GRIDFORMAT
  1
GRIDFORMAT_BEGIN
 90
        0
 91
        1
 62
     0
 92
       -2
340
14
 93
        0
 40
0.045
309
GRIDFORMAT_END
 95
        8
302
GRIDFORMAT
  1
GRIDFORMAT_BEGIN
 90
        0
 91
        1
 62
     0
 92
       -2
340
14
 93
        0
 40
0.045
309
GRIDFORMAT_END
 95
       16
302
GRIDFORMAT
  1
GRIDFORMAT_BEGIN
 90
        0
 91
        1
 62
     0
 92
       -2
340
14
 93
        0
 40
0.045
309
GRIDFORMAT_END
 95
       32
302
GRIDFORMAT
  1
GRIDFORMAT_BEGIN
 90
        0
 91
        1
 62
     0
 92
       -2
340
14
 93
        0
 40
0.045
309
GRIDFORMAT_END
309
TABLEFORMAT_END
  1
CELLSTYLE_BEGIN
 90
        3
 91
        2
300
_DATA
309
CELLSTYLE_END
  0
ENDSEC
  0
EOF
