  0
SECTION
  2
HEADER
  9
$ACADVER
  1
AC1032
  9
$ACADMAINTVER
 90
       55
  9
$DWGCODEPAGE
  3
ANSI_1252
  9
$LASTSAVEDBY
  1
LYI-002
  9
$REQUIREDVERSIONS
160
                 0
  9
$INSBASE
 10
0.0
 20
0.0
 30
0.0
  9
$EXTMIN
 10
-1200.15
 20
-590.1266
 30
0.0
  9
$EXTMAX
 10
1200.05
 20
590.0734
 30
0.0
  9
$LIMMIN
 10
0.0
 20
0.0
  9
$LIMMAX
 10
12.0
 20
9.0
  9
$ORTHOMODE
 70
     0
  9
$REGENMODE
 70
     1
  9
$FILLMODE
 70
     1
  9
$QTEXTMODE
 70
     0
  9
$MIRRTEXT
 70
     1
  9
$LTSCALE
 40
1.0
  9
$ATTMODE
 70
     1
  9
$TEXTSIZE
 40
0.2
  9
$TRACEWID
 40
0.05
  9
$TEXTSTYLE
  7
Standard
  9
$CLAYER
  8
0
  9
$CELTYPE
  6
ByLayer
  9
$CECOLOR
 62
   256
  9
$CELTSCALE
 40
1.0
  9
$DISPSILH
 70
     0
  9
$DIMSCALE
 40
1.0
  9
$DIMASZ
 40
0.18
  9
$DIMEXO
 40
0.0625
  9
$DIMDLI
 40
0.38
  9
$DIMRND
 40
0.0
  9
$DIMDLE
 40
0.0
  9
$DIMEXE
 40
0.18
  9
$DIMTP
 40
0.0
  9
$DIMTM
 40
0.0
  9
$DIMTXT
 40
0.18
  9
$DIMCEN
 40
0.09
  9
$DIMTSZ
 40
0.0
  9
$DIMTOL
 70
     0
  9
$DIMLIM
 70
     0
  9
$DIMTIH
 70
     1
  9
$DIMTOH
 70
     1
  9
$DIMSE1
 70
     0
  9
$DIMSE2
 70
     0
  9
$DIMTAD
 70
     0
  9
$DIMZIN
 70
     0
  9
$DIMBLK
  1

  9
$DIMASO
 70
     1
  9
$DIMSHO
 70
     1
  9
$DIMPOST
  1

  9
$DIMAPOST
  1

  9
$DIMALT
 70
     0
  9
$DIMALTD
 70
     2
  9
$DIMALTF
 40
25.4
  9
$DIMLFAC
 40
1.0
  9
$DIMTOFL
 70
     0
  9
$DIMTVP
 40
0.0
  9
$DIMTIX
 70
     0
  9
$DIMSOXD
 70
     0
  9
$DIMSAH
 70
     0
  9
$DIMBLK1
  1

  9
$DIMBLK2
  1

  9
$DIMSTYLE
  2
Standard
  9
$DIMCLRD
 70
     0
  9
$DIMCLRE
 70
     0
  9
$DIMCLRT
 70
     0
  9
$DIMTFAC
 40
1.0
  9
$DIMGAP
 40
0.09
  9
$DIMJUST
 70
     0
  9
$DIMSD1
 70
     0
  9
$DIMSD2
 70
     0
  9
$DIMTOLJ
 70
     1
  9
$DIMTZIN
 70
     0
  9
$DIMALTZ
 70
     0
  9
$DIMALTTZ
 70
     0
  9
$DIMUPT
 70
     0
  9
$DIMDEC
 70
     4
  9
$DIMTDEC
 70
     4
  9
$DIMALTU
 70
     2
  9
$DIMALTTD
 70
     2
  9
$DIMTXSTY
  7
Standard
  9
$DIMAUNIT
 70
     0
  9
$DIMADEC
 70
     0
  9
$DIMALTRND
 40
0.0
  9
$DIMAZIN
 70
     0
  9
$DIMDSEP
 70
    46
  9
$DIMATFIT
 70
     3
  9
$DIMFRAC
 70
     0
  9
$DIMLDRBLK
  1

  9
$DIMLUNIT
 70
     2
  9
$DIMLWD
 70
    -2
  9
$DIMLWE
 70
    -2
  9
$DIMTMOVE
 70
     0
  9
$DIMFXL
 40
1.0
  9
$DIMFXLON
 70
     0
  9
$DIMJOGANG
 40
0.7853981633974483
  9
$DIMTFILL
 70
     0
  9
$DIMTFILLCLR
 70
     0
  9
$DIMARCSYM
 70
     0
  9
$DIMLTYPE
  6

  9
$DIMLTEX1
  6

  9
$DIMLTEX2
  6

  9
$DIMTXTDIRECTION
 70
     0
  9
$LUNITS
 70
     2
  9
$LUPREC
 70
     4
  9
$SKETCHINC
 40
0.1
  9
$FILLETRAD
 40
0.0
  9
$AUNITS
 70
     0
  9
$AUPREC
 70
     0
  9
$MENU
  1
.
  9
$ELEVATION
 40
0.0
  9
$PELEVATION
 40
0.0
  9
$THICKNESS
 40
0.0
  9
$LIMCHECK
 70
     0
  9
$CHAMFERA
 40
0.0
  9
$CHAMFERB
 40
0.0
  9
$CHAMFERC
 40
0.0
  9
$CHAMFERD
 40
0.0
  9
$SKPOLY
 70
     0
  9
$TDCREATE
 40
2460652.654554907
  9
$TDUCREATE
 40
2460652.425388241
  9
$TDUPDATE
 40
2460652.654554954
  9
$TDUUPDATE
 40
2460652.425388287
  9
$TDINDWG
 40
0.0000000116
  9
$TDUSRTIMER
 40
0.0000000116
  9
$USRTIMER
 70
     1
  9
$ANGBASE
 50
0.0
  9
$ANGDIR
 70
     0
  9
$PDMODE
 70
     0
  9
$PDSIZE
 40
0.0
  9
$PLINEWID
 40
0.0
  9
$SPLFRAME
 70
     0
  9
$SPLINETYPE
 70
     6
  9
$SPLINESEGS
 70
     8
  9
$HANDSEED
  5
DC
  9
$SURFTAB1
 70
     6
  9
$SURFTAB2
 70
     6
  9
$SURFTYPE
 70
     6
  9
$SURFU
 70
     6
  9
$SURFV
 70
     6
  9
$UCSBASE
  2

  9
$UCSNAME
  2

  9
$UCSORG
 10
0.0
 20
0.0
 30
0.0
  9
$UCSXDIR
 10
1.0
 20
0.0
 30
0.0
  9
$UCSYDIR
 10
0.0
 20
1.0
 30
0.0
  9
$UCSORTHOREF
  2

  9
$UCSORTHOVIEW
 70
     0
  9
$UCSORGTOP
 10
0.0
 20
0.0
 30
0.0
  9
$UCSORGBOTTOM
 10
0.0
 20
0.0
 30
0.0
  9
$UCSORGLEFT
 10
0.0
 20
0.0
 30
0.0
  9
$UCSORGRIGHT
 10
0.0
 20
0.0
 30
0.0
  9
$UCSORGFRONT
 10
0.0
 20
0.0
 30
0.0
  9
$UCSORGBACK
 10
0.0
 20
0.0
 30
0.0
  9
$PUCSBASE
  2

  9
$PUCSNAME
  2

  9
$PUCSORG
 10
0.0
 20
0.0
 30
0.0
  9
$PUCSXDIR
 10
1.0
 20
0.0
 30
0.0
  9
$PUCSYDIR
 10
0.0
 20
1.0
 30
0.0
  9
$PUCSORTHOREF
  2

  9
$PUCSORTHOVIEW
 70
     0
  9
$PUCSORGTOP
 10
0.0
 20
0.0
 30
0.0
  9
$PUCSORGBOTTOM
 10
0.0
 20
0.0
 30
0.0
  9
$PUCSORGLEFT
 10
0.0
 20
0.0
 30
0.0
  9
$PUCSORGRIGHT
 10
0.0
 20
0.0
 30
0.0
  9
$PUCSORGFRONT
 10
0.0
 20
0.0
 30
0.0
  9
$PUCSORGBACK
 10
0.0
 20
0.0
 30
0.0
  9
$USERI1
 70
     0
  9
$USERI2
 70
     0
  9
$USERI3
 70
     0
  9
$USERI4
 70
     0
  9
$USERI5
 70
     0
  9
$USERR1
 40
0.0
  9
$USERR2
 40
0.0
  9
$USERR3
 40
0.0
  9
$USERR4
 40
0.0
  9
$USERR5
 40
0.0
  9
$WORLDVIEW
 70
     1
  9
$SHADEDGE
 70
     3
  9
$SHADEDIF
 70
    70
  9
$TILEMODE
 70
     1
  9
$MAXACTVP
 70
    64
  9
$PINSBASE
 10
0.0
 20
0.0
 30
0.0
  9
$PLIMCHECK
 70
     0
  9
$PEXTMIN
 10
1.000000000000000E+20
 20
1.000000000000000E+20
 30
1.000000000000000E+20
  9
$PEXTMAX
 10
-1.000000000000000E+20
 20
-1.000000000000000E+20
 30
-1.000000000000000E+20
  9
$PLIMMIN
 10
0.0
 20
0.0
  9
$PLIMMAX
 10
12.0
 20
9.0
  9
$UNITMODE
 70
     0
  9
$VISRETAIN
 70
     1
  9
$PLINEGEN
 70
     0
  9
$PSLTSCALE
 70
     1
  9
$TREEDEPTH
 70
  3020
  9
$CMLSTYLE
  2
Standard
  9
$CMLJUST
 70
     0
  9
$CMLSCALE
 40
1.0
  9
$PROXYGRAPHICS
 70
     1
  9
$MEASUREMENT
 70
     0
  9
$CELWEIGHT
370
    -1
  9
$ENDCAPS
280
     0
  9
$JOINSTYLE
280
     0
  9
$LWDISPLAY
290
     0
  9
$INSUNITS
 70
     4
  9
$HYPERLINKBASE
  1

  9
$STYLESHEET
  1

  9
$XEDIT
290
     1
  9
$CEPSNTYPE
380
     0
  9
$PSTYLEMODE
290
     1
  9
$FINGERPRINTGUID
  2
{da1b106e-1218-44cb-a1b0-a725e97c5abc}
  9
$VERSIONGUID
  2
{FAEB1C32-E019-11D5-929B-00C0DF256EC4}
  9
$EXTNAMES
290
     1
  9
$PSVPSCALE
 40
0.0
  9
$OLESTARTUP
290
     0
  9
$SORTENTS
280
   127
  9
$INDEXCTL
280
     0
  9
$HIDETEXT
280
     1
  9
$XCLIPFRAME
280
     2
  9
$HALOGAP
280
     0
  9
$OBSCOLOR
 70
   257
  9
$OBSLTYPE
280
     0
  9
$INTERSECTIONDISPLAY
280
     0
  9
$INTERSECTIONCOLOR
 70
   257
  9
$DIMASSOC
280
     2
  9
$PROJECTNAME
  1

  9
$CAMERADISPLAY
290
     0
  9
$LENSLENGTH
 40
50.0
  9
$CAMERAHEIGHT
 40
0.0
  9
$STEPSPERSEC
 40
2.0
  9
$STEPSIZE
 40
6.0
  9
$3DDWFPREC
 40
2.0
  9
$PSOLWIDTH
 40
0.25
  9
$PSOLHEIGHT
 40
4.0
  9
$LOFTANG1
 40
1.570796326794897
  9
$LOFTANG2
 40
1.570796326794897
  9
$LOFTMAG1
 40
0.0
  9
$LOFTMAG2
 40
0.0
  9
$LOFTPARAM
 70
     7
  9
$LOFTNORMALS
280
     1
  9
$LATITUDE
 40
37.795
  9
$LONGITUDE
 40
-122.394
  9
$NORTHDIRECTION
 40
0.0
  9
$TIMEZONE
 70
 -8000
  9
$LIGHTGLYPHDISPLAY
280
     1
  9
$TILEMODELIGHTSYNCH
280
     1
  9
$CMATERIAL
347
44
  9
$SOLIDHIST
280
     0
  9
$SHOWHIST
280
     1
  9
$DWFFRAME
280
     2
  9
$DGNFRAME
280
     2
  9
$REALWORLDSCALE
290
     1
  9
$INTERFERECOLOR
 62
   256
  9
$CSHADOW
280
     0
  9
$SHADOWPLANELOCATION
 40
0.0
  0
ENDSEC
  0
SECTION
  2
CLASSES
  0
CLASS
  1
ACDBDICTIONARYWDFLT
  2
AcDbDictionaryWithDefault
  3
ObjectDBX Classes
 90
        0
 91
        3
280
     0
281
     0
  0
CLASS
  1
VISUALSTYLE
  2
AcDbVisualStyle
  3
ObjectDBX Classes
 90
     4095
 91
        3
280
     0
281
     0
  0
CLASS
  1
MATERIAL
  2
AcDbMaterial
  3
ObjectDBX Classes
 90
     1153
 91
        3
280
     0
281
     0
  0
CLASS
  1
SCALE
  2
AcDbScale
  3
ObjectDBX Classes
 90
     1153
 91
        3
280
     0
281
     0
  0
CLASS
  1
TABLESTYLE
  2
AcDbTableStyle
  3
ObjectDBX Classes
 90
     4095
 91
        3
280
     0
281
     0
  0
CLASS
  1
MLEADERSTYLE
  2
AcDbMLeaderStyle
  3
ACDB_MLEADERSTYLE_CLASS
 90
     4095
 91
        3
280
     0
281
     0
  0
CLASS
  1
SUN
  2
AcDbSun
  3
SCENEOE
 90
     1153
 91
        3
280
     0
281
     0
  0
CLASS
  1
DICTIONARYVAR
  2
AcDbDictionaryVar
  3
ObjectDBX Classes
 90
        0
 91
        3
280
     0
281
     0
  0
CLASS
  1
CELLSTYLEMAP
  2
AcDbCellStyleMap
  3
ObjectDBX Classes
 90
     1152
 91
        3
280
     0
281
     0
  0
ENDSEC
  0
SECTION
  2
TABLES
  0
TABLE
  2
VPORT
  5
8
330
0
100
AcDbSymbolTable
 70
     1
  0
VPORT
  5
29
330
8
100
AcDbSymbolTableRecord
100
AcDbViewportTableRecord
  2
*Active
 70
     0
 10
0.0
 20
0.0
 11
1.0
 21
1.0
 12
10.42990654205607
 22
4.5
 13
0.0
 23
0.0
 14
0.5
 24
0.5
 15
0.5
 25
0.5
 16
0.0
 26
0.0
 36
1.0
 17
0.0
 27
0.0
 37
0.0
 40
9.0
 41
1.972972972850329
 42
50.0
 43
0.0
 44
0.0
 50
0.0
 51
0.0
 71
     0
 72
   100
 73
     1
 74
     3
 75
     0
 76
     0
 77
     0
 78
     0
281
     0
 65
     1
110
0.0
120
0.0
130
0.0
111
1.0
121
0.0
131
0.0
112
0.0
122
1.0
132
0.0
 79
     0
146
0.0
348
2F
 60
     3
 61
     5
292
     1
282
     1
141
0.0
142
0.0
 63
   250
361
5D
  0
ENDTAB
  0
TABLE
  2
LTYPE
  5
5
330
0
100
AcDbSymbolTable
 70
     1
  0
LTYPE
  5
14
330
5
100
AcDbSymbolTableRecord
100
AcDbLinetypeTableRecord
  2
ByBlock
 70
     0
  3

 72
    65
 73
     0
 40
0.0
  0
LTYPE
  5
15
330
5
100
AcDbSymbolTableRecord
100
AcDbLinetypeTableRecord
  2
ByLayer
 70
     0
  3

 72
    65
 73
     0
 40
0.0
  0
LTYPE
  5
16
330
5
100
AcDbSymbolTableRecord
100
AcDbLinetypeTableRecord
  2
Continuous
 70
     0
  3
Solid line
 72
    65
 73
     0
 40
0.0
  0
ENDTAB
  0
TABLE
  2
LAYER
  5
2
330
0
100
AcDbSymbolTable
 70
     2
  0
LAYER
  5
10
330
2
100
AcDbSymbolTableRecord
100
AcDbLayerTableRecord
  2
0
 70
     0
 62
     7
  6
Continuous
370
    -3
390
F
347
46
348
0
  0
LAYER
  5
5F
330
2
100
AcDbSymbolTableRecord
100
AcDbLayerTableRecord
  2
Layer 1
 70
     0
 62
     7
  6
Continuous
370
    -3
390
F
347
46
348
0
  0
ENDTAB
  0
TABLE
  2
STYLE
  5
3
330
0
100
AcDbSymbolTable
 70
     1
  0
STYLE
  5
11
330
3
100
AcDbSymbolTableRecord
100
AcDbTextStyleTableRecord
  2
Standard
 70
     0
 40
0.0
 41
1.0
 50
0.0
 71
     0
 42
0.2
  3
txt
  4

  0
ENDTAB
  0
TABLE
  2
VIEW
  5
6
330
0
100
AcDbSymbolTable
 70
     0
  0
ENDTAB
  0
TABLE
  2
UCS
  5
7
330
0
100
AcDbSymbolTable
 70
     0
  0
ENDTAB
  0
TABLE
  2
APPID
  5
9
330
0
100
AcDbSymbolTable
 70
     2
  0
APPID
  5
12
330
9
100
AcDbSymbolTableRecord
100
AcDbRegAppTableRecord
  2
ACAD
 70
     0
  0
APPID
  5
5E
330
9
100
AcDbSymbolTableRecord
100
AcDbRegAppTableRecord
  2
ODA
 70
     0
  0
ENDTAB
  0
TABLE
  2
DIMSTYLE
  5
A
330
0
100
AcDbSymbolTable
 70
     1
100
AcDbDimStyleTable
  0
DIMSTYLE
105
27
330
A
100
AcDbSymbolTableRecord
100
AcDbDimStyleTableRecord
  2
Standard
 70
     0
178
     0
340
11
  0
ENDTAB
  0
TABLE
  2
BLOCK_RECORD
  5
1
330
0
100
AcDbSymbolTable
 70
     1
  0
BLOCK_RECORD
  5
1F
330
1
100
AcDbSymbolTableRecord
100
AcDbBlockTableRecord
  2
*Model_Space
340
22
 70
     0
280
     1
281
     0
  0
BLOCK_RECORD
  5
1B
330
1
100
AcDbSymbolTableRecord
100
AcDbBlockTableRecord
  2
*Paper_Space
340
1E
 70
     0
280
     1
281
     0
  0
BLOCK_RECORD
  5
23
330
1
100
AcDbSymbolTableRecord
100
AcDbBlockTableRecord
  2
*Paper_Space0
340
26
 70
     0
280
     1
281
     0
  0
ENDTAB
  0
ENDSEC
  0
SECTION
  2
BLOCKS
  0
BLOCK
  5
20
330
1F
100
AcDbEntity
  8
0
100
AcDbBlockBegin
  2
*Model_Space
 70
     0
 10
0.0
 20
0.0
 30
0.0
  3
*Model_Space
  1

  0
ENDBLK
  5
21
330
1F
100
AcDbEntity
  8
0
100
AcDbBlockEnd
  0
BLOCK
  5
1C
330
1B
100
AcDbEntity
 67
     1
  8
0
100
AcDbBlockBegin
  2
*Paper_Space
 70
     0
 10
0.0
 20
0.0
 30
0.0
  3
*Paper_Space
  1

  0
ENDBLK
  5
1D
330
1B
100
AcDbEntity
 67
     1
  8
0
100
AcDbBlockEnd
  0
BLOCK
  5
24
330
23
100
AcDbEntity
  8
0
100
AcDbBlockBegin
  2
*Paper_Space0
 70
     0
 10
0.0
 20
0.0
 30
0.0
  3
*Paper_Space0
  1

  0
ENDBLK
  5
25
330
23
100
AcDbEntity
  8
0
100
AcDbBlockEnd
  0
ENDSEC
  0
SECTION
  2
ENTITIES
  0
SPLINE
  5
60
330
1F
100
AcDbEntity
  8
Layer 1
 62
   250
370
    20
100
AcDbSpline
210
0.0
220
0.0
230
1.0
 70
    11
 71
     3
 72
    32
 73
    28
 74
     0
 42
0.0000000001
 43
0.0000000001
 40
0.0
 40
0.0
 40
0.0
 40
0.0
 40
0.1111111111111111
 40
0.1111111111111111
 40
0.1111111111111111
 40
0.2222222222222222
 40
0.2222222222222222
 40
0.2222222222222222
 40
0.3333333333333333
 40
0.3333333333333333
 40
0.3333333333333333
 40
0.4444444444444444
 40
0.4444444444444444
 40
0.4444444444444444
 40
0.5555555555555556
 40
0.5555555555555556
 40
0.5555555555555556
 40
0.6666666666666666
 40
0.6666666666666666
 40
0.6666666666666666
 40
0.7777777777777777
 40
0.7777777777777777
 40
0.7777777777777777
 40
0.8888888888888888
 40
0.8888888888888888
 40
0.8888888888888888
 40
1.0
 40
1.0
 40
1.0
 40
1.0
 10
521.4804
 20
589.9734
 30
0.0
 10
543.6236
 20
575.9174
 30
0.0
 10
561.8907
 20
557.7096
 30
0.0
 10
574.8888
 20
533.8559
 30
0.0
 10
556.0536
 20
524.4368
 30
0.0
 10
537.2161
 20
510.7581
 30
0.0
 10
518.3798
 20
495.1446
 30
0.0
 10
494.18
 20
529.8421
 30
0.0
 10
466.4147
 20
546.3867
 30
0.0
 10
384.8866
 20
543.922
 30
0.0
 10
295.6174
 20
543.9209
 30
0.0
 10
206.3493
 20
543.9209
 30
0.0
 10
117.079
 20
543.922
 30
0.0
 10
105.3246
 20
572.1525
 30
0.0
 10
60.5831
 20
566.3179
 30
0.0
 10
57.2937
 20
543.1474
 30
0.0
 10
53.4615
 20
521.211
 30
0.0
 10
74.4289
 20
510.11
 30
0.0
 10
86.757
 20
524.4098
 30
0.0
 10
93.0712
 20
521.5096
 30
0.0
 10
96.003
 20
512.9263
 30
0.0
 10
88.4153
 20
499.0153
 30
0.0
 10
54.7075
 20
452.8425
 30
0.0
 10
-12.4603
 20
532.3275
 30
0.0
 10
70.1394
 20
589.9734
 30
0.0
 10
70.1394
 20
589.9734
 30
0.0
 10
521.4804
 20
589.9734
 30
0.0
 10
521.4804
 20
589.9734
 30
0.0
  0
SPLINE
  5
61
330
1F
100
AcDbEntity
  8
Layer 1
 62
   250
370
    20
100
AcDbSpline
210
0.0
220
0.0
230
1.0
 70
    11
 71
     3
 72
    23
 73
    19
 74
     0
 42
0.0000000001
 43
0.0000000001
 40
0.0
 40
0.0
 40
0.0
 40
0.0
 40
0.1666666666666667
 40
0.1666666666666667
 40
0.1666666666666667
 40
0.3333333333333333
 40
0.3333333333333333
 40
0.3333333333333333
 40
0.5
 40
0.5
 40
0.5
 40
0.6666666666666666
 40
0.6666666666666666
 40
0.6666666666666666
 40
0.8333333333333333
 40
0.8333333333333333
 40
0.8333333333333333
 40
1.0
 40
1.0
 40
1.0
 40
1.0
 10
848.4744
 20
367.695
 30
0.0
 10
851.7736
 20
355.2192
 30
0.0
 10
858.5923
 20
352.1003
 30
0.0
 10
868.9296
 20
350.8528
 30
0.0
 10
845.9496
 20
334.3569
 30
0.0
 10
788.9864
 20
309.2922
 30
0.0
 10
743.5594
 20
343.9917
 30
0.0
 10
742.2268
 20
422.221
 30
0.0
 10
668.4575
 20
501.2933
 30
0.0
 10
578.5982
 20
495.5759
 30
0.0
 10
625.8285
 20
524.4461
 30
0.0
 10
674.9845
 20
544.9361
 30
0.0
 10
731.022
 20
535.4993
 30
0.0
 10
703.9684
 20
457.1083
 30
0.0
 10
760.4961
 20
392.4395
 30
0.0
 10
811.5234
 20
401.3816
 30
0.0
 10
848.9165
 20
410.4295
 30
0.0
 10
878.1691
 20
381.5252
 30
0.0
 10
848.4744
 20
367.695
 30
0.0
  0
SPLINE
  5
62
330
1F
100
AcDbEntity
  8
Layer 1
 62
   250
370
    20
100
AcDbSpline
210
0.0
220
0.0
230
1.0
 70
    11
 71
     3
 72
    23
 73
    19
 74
     0
 42
0.0000000001
 43
0.0000000001
 40
0.0
 40
0.0
 40
0.0
 40
0.0
 40
0.1666666666666667
 40
0.1666666666666667
 40
0.1666666666666667
 40
0.3333333333333333
 40
0.3333333333333333
 40
0.3333333333333333
 40
0.5
 40
0.5
 40
0.5
 40
0.6666666666666666
 40
0.6666666666666666
 40
0.6666666666666666
 40
0.8333333333333333
 40
0.8333333333333333
 40
0.8333333333333333
 40
1.0
 40
1.0
 40
1.0
 40
1.0
 10
764.4402
 20
511.4964
 30
0.0
 10
781.2157
 20
585.7772
 30
0.0
 10
885.9509
 20
567.1443
 30
0.0
 10
899.3602
 20
503.167
 30
0.0
 10
878.6166
 20
507.4204
 30
0.0
 10
861.3618
 20
502.7357
 30
0.0
 10
854.7546
 20
488.0688
 30
0.0
 10
845.3563
 20
507.2917
 30
0.0
 10
831.7154
 20
508.5101
 30
0.0
 10
822.8916
 20
504.2164
 30
0.0
 10
804.0816
 20
512.7126
 30
0.0
 10
781.7082
 20
489.6138
 30
0.0
 10
797.4833
 20
465.1618
 30
0.0
 10
814.3707
 20
485.1188
 30
0.0
 10
827.0365
 20
469.326
 30
0.0
 10
820.6115
 20
453.7083
 30
0.0
 10
801.332
 20
423.568
 30
0.0
 10
749.0215
 20
451.394
 30
0.0
 10
764.4402
 20
511.4964
 30
0.0
  0
SPLINE
  5
63
330
1F
100
AcDbEntity
  8
Layer 1
 62
   250
370
    20
100
AcDbSpline
210
0.0
220
0.0
230
1.0
 70
    11
 71
     3
 72
    23
 73
    19
 74
     0
 42
0.0000000001
 43
0.0000000001
 40
0.0
 40
0.0
 40
0.0
 40
0.0
 40
0.1666666666666667
 40
0.1666666666666667
 40
0.1666666666666667
 40
0.3333333333333333
 40
0.3333333333333333
 40
0.3333333333333333
 40
0.5
 40
0.5
 40
0.5
 40
0.6666666666666666
 40
0.6666666666666666
 40
0.6666666666666666
 40
0.8333333333333333
 40
0.8333333333333333
 40
0.8333333333333333
 40
1.0
 40
1.0
 40
1.0
 40
1.0
 10
-96.4088
 20
458.28
 30
0.0
 10
-183.6962
 20
458.28
 30
0.0
 10
-270.9835
 20
458.28
 30
0.0
 10
-358.2709
 20
458.28
 30
0.0
 10
-414.906
 20
461.0433
 30
0.0
 10
-438.2689
 20
444.0994
 30
0.0
 10
-456.1071
 20
412.0326
 30
0.0
 10
-466.7713
 20
429.4917
 30
0.0
 10
-479.2407
 20
445.8145
 30
0.0
 10
-493.5155
 20
460.9997
 30
0.0
 10
-475.5478
 20
491.4792
 30
0.0
 10
-445.5506
 20
507.7407
 30
0.0
 10
-406.2282
 20
508.507
 30
0.0
 10
-312.8668
 20
508.3898
 30
0.0
 10
-219.5055
 20
508.2716
 30
0.0
 10
-126.144
 20
508.1534
 30
0.0
 10
-126.2099
 20
492.4994
 30
0.0
 10
-118.2066
 20
472.8245
 30
0.0
 10
-96.4088
 20
458.28
 30
0.0
  0
SPLINE
  5
64
330
1F
100
AcDbEntity
  8
Layer 1
 62
   250
370
    20
100
AcDbSpline
210
0.0
220
0.0
230
1.0
 70
    11
 71
     3
 72
    14
 73
    10
 74
     0
 42
0.0000000001
 43
0.0000000001
 40
0.0
 40
0.0
 40
0.0
 40
0.0
 40
0.3333333333333333
 40
0.3333333333333333
 40
0.3333333333333333
 40
0.6666666666666666
 40
0.6666666666666666
 40
0.6666666666666666
 40
1.0
 40
1.0
 40
1.0
 40
1.0
 10
36.0006
 20
459.5283
 30
0.0
 10
11.9676
 20
459.5283
 30
0.0
 10
-12.0675
 20
459.5283
 30
0.0
 10
-36.1006
 20
459.5283
 30
0.0
 10
-11.8591
 20
472.2562
 30
0.0
 10
-0.062
 20
492.7836
 30
0.0
 10
-0.05
 20
516.0483
 30
0.0
 10
-0.0379
 20
492.7836
 30
0.0
 10
11.7592
 20
472.2562
 30
0.0
 10
36.0006
 20
459.5283
 30
0.0
  0
SPLINE
  5
65
330
1F
100
AcDbEntity
  8
Layer 1
 62
   250
370
    20
100
AcDbSpline
210
0.0
220
0.0
230
1.0
 70
    11
 71
     3
 72
    23
 73
    19
 74
     0
 42
0.0000000001
 43
0.0000000001
 40
0.0
 40
0.0
 40
0.0
 40
0.0
 40
0.1666666666666667
 40
0.1666666666666667
 40
0.1666666666666667
 40
0.3333333333333333
 40
0.3333333333333333
 40
0.3333333333333333
 40
0.5
 40
0.5
 40
0.5
 40
0.6666666666666666
 40
0.6666666666666666
 40
0.6666666666666666
 40
0.8333333333333333
 40
0.8333333333333333
 40
0.8333333333333333
 40
1.0
 40
1.0
 40
1.0
 40
1.0
 10
126.0442
 20
508.1534
 30
0.0
 10
219.4055
 20
508.2716
 30
0.0
 10
312.7669
 20
508.3898
 30
0.0
 10
406.1283
 20
508.507
 30
0.0
 10
445.4506
 20
507.7407
 30
0.0
 10
475.449
 20
491.4792
 30
0.0
 10
493.4156
 20
460.9997
 30
0.0
 10
479.1419
 20
445.8145
 30
0.0
 10
466.6713
 20
429.4917
 30
0.0
 10
456.0072
 20
412.0326
 30
0.0
 10
438.17
 20
444.0994
 30
0.0
 10
414.8061
 20
461.0433
 30
0.0
 10
358.1709
 20
458.28
 30
0.0
 10
270.8837
 20
458.28
 30
0.0
 10
183.5963
 20
458.28
 30
0.0
 10
96.3089
 20
458.28
 30
0.0
 10
118.1077
 20
472.8245
 30
0.0
 10
126.1111
 20
492.4994
 30
0.0
 10
126.0442
 20
508.1534
 30
0.0
  0
SPLINE
  5
66
330
1F
100
AcDbEntity
  8
Layer 1
 62
   250
370
    20
100
AcDbSpline
210
0.0
220
0.0
230
1.0
 70
    11
 71
     3
 72
    14
 73
    10
 74
     0
 42
0.0000000001
 43
0.0000000001
 40
0.0
 40
0.0
 40
0.0
 40
0.0
 40
0.3333333333333333
 40
0.3333333333333333
 40
0.3333333333333333
 40
0.6666666666666666
 40
0.6666666666666666
 40
0.6666666666666666
 40
1.0
 40
1.0
 40
1.0
 40
1.0
 10
23.7998
 20
589.9734
 30
0.0
 10
11.9479
 20
575.3741
 30
0.0
 10
3.7801
 20
557.1798
 30
0.0
 10
-0.05
 20
536.5258
 30
0.0
 10
-3.8789
 20
557.1798
 30
0.0
 10
-12.0478
 20
575.3741
 30
0.0
 10
-23.8986
 20
589.9734
 30
0.0
 10
-23.8986
 20
589.9734
 30
0.0
 10
23.7998
 20
589.9734
 30
0.0
 10
23.7998
 20
589.9734
 30
0.0
  0
SPLINE
  5
67
330
1F
100
AcDbEntity
  8
Layer 1
 62
   250
370
    20
100
AcDbSpline
210
0.0
220
0.0
230
1.0
 70
    11
 71
     3
 72
    32
 73
    28
 74
     0
 42
0.0000000001
 43
0.0000000001
 40
0.0
 40
0.0
 40
0.0
 40
0.0
 40
0.1111111111111111
 40
0.1111111111111111
 40
0.1111111111111111
 40
0.2222222222222222
 40
0.2222222222222222
 40
0.2222222222222222
 40
0.3333333333333333
 40
0.3333333333333333
 40
0.3333333333333333
 40
0.4444444444444444
 40
0.4444444444444444
 40
0.4444444444444444
 40
0.5555555555555556
 40
0.5555555555555556
 40
0.5555555555555556
 40
0.6666666666666666
 40
0.6666666666666666
 40
0.6666666666666666
 40
0.7777777777777777
 40
0.7777777777777777
 40
0.7777777777777777
 40
0.8888888888888888
 40
0.8888888888888888
 40
0.8888888888888888
 40
1.0
 40
1.0
 40
1.0
 40
1.0
 10
-70.2393
 20
589.9734
 30
0.0
 10
12.3614
 20
532.3275
 30
0.0
 10
-54.8075
 20
452.8425
 30
0.0
 10
-88.5153
 20
499.0153
 30
0.0
 10
-96.103
 20
512.9263
 30
0.0
 10
-93.1711
 20
521.5096
 30
0.0
 10
-86.857
 20
524.4098
 30
0.0
 10
-74.5289
 20
510.11
 30
0.0
 10
-53.5604
 20
521.211
 30
0.0
 10
-57.3937
 20
543.1474
 30
0.0
 10
-60.6829
 20
566.3179
 30
0.0
 10
-105.4246
 20
572.1525
 30
0.0
 10
-117.1788
 20
543.922
 30
0.0
 10
-206.4481
 20
543.9209
 30
0.0
 10
-295.7174
 20
543.9209
 30
0.0
 10
-384.9855
 20
543.922
 30
0.0
 10
-466.5146
 20
546.3867
 30
0.0
 10
-494.28
 20
529.8421
 30
0.0
 10
-518.4797
 20
495.1446
 30
0.0
 10
-537.3161
 20
510.7581
 30
0.0
 10
-556.1536
 20
524.4368
 30
0.0
 10
-574.9888
 20
533.8559
 30
0.0
 10
-561.9906
 20
557.7096
 30
0.0
 10
-543.7234
 20
575.9174
 30
0.0
 10
-521.5803
 20
589.9734
 30
0.0
 10
-521.5803
 20
589.9734
 30
0.0
 10
-70.2393
 20
589.9734
 30
0.0
 10
-70.2393
 20
589.9734
 30
0.0
  0
SPLINE
  5
68
330
1F
100
AcDbEntity
  8
Layer 1
 62
   250
370
    20
100
AcDbSpline
210
0.0
220
0.0
230
1.0
 70
    11
 71
     3
 72
    14
 73
    10
 74
     0
 42
0.0000000001
 43
0.0000000001
 40
0.0
 40
0.0
 40
0.0
 40
0.0
 40
0.3333333333333333
 40
0.3333333333333333
 40
0.3333333333333333
 40
0.6666666666666666
 40
0.6666666666666666
 40
0.6666666666666666
 40
1.0
 40
1.0
 40
1.0
 40
1.0
 10
881.3915
 20
317.0772
 30
0.0
 10
853.5141
 20
282.4419
 30
0.0
 10
827.7308
 20
249.0031
 30
0.0
 10
803.3787
 20
212.7005
 30
0.0
 10
804.8132
 20
239.3683
 30
0.0
 10
799.7448
 20
266.8687
 30
0.0
 10
788.8339
 20
292.0766
 30
0.0
 10
825.4714
 20
293.379
 30
0.0
 10
857.0952
 20
300.7751
 30
0.0
 10
881.3915
 20
317.0772
 30
0.0
  0
SPLINE
  5
69
330
1F
100
AcDbEntity
  8
Layer 1
 62
   250
370
    20
100
AcDbSpline
210
0.0
220
0.0
230
1.0
 70
    11
 71
     3
 72
    20
 73
    16
 74
     0
 42
0.0000000001
 43
0.0000000001
 40
0.0
 40
0.0
 40
0.0
 40
0.0
 40
0.2
 40
0.2
 40
0.2
 40
0.4
 40
0.4
 40
0.4
 40
0.6000000000000001
 40
0.6000000000000001
 40
0.6000000000000001
 40
0.8
 40
0.8
 40
0.8
 40
1.0
 40
1.0
 40
1.0
 40
1.0
 10
935.5534
 20
331.4879
 30
0.0
 10
972.635
 20
381.2058
 30
0.0
 10
1020.7534
 20
335.2808
 30
0.0
 10
985.0945
 20
298.3136
 30
0.0
 10
907.3876
 20
224.8851
 30
0.0
 10
829.6808
 20
151.4576
 30
0.0
 10
751.9729
 20
78.0302
 30
0.0
 10
748.2866
 20
81.1045
 30
0.0
 10
745.0653
 20
83.3245
 30
0.0
 10
741.051
 20
85.8836
 30
0.0
 10
767.6494
 20
105.1914
 30
0.0
 10
786.1073
 20
128.4904
 30
0.0
 10
795.7944
 20
157.4156
 30
0.0
 10
841.4374
 20
213.3589
 30
0.0
 10
889.9102
 20
275.5455
 30
0.0
 10
935.5534
 20
331.4879
 30
0.0
  0
SPLINE
  5
6A
330
1F
100
AcDbEntity
  8
Layer 1
 62
   250
370
    20
100
AcDbSpline
210
0.0
220
0.0
230
1.0
 70
    11
 71
     3
 72
    17
 73
    13
 74
     0
 42
0.0000000001
 43
0.0000000001
 40
0.0
 40
0.0
 40
0.0
 40
0.0
 40
0.25
 40
0.25
 40
0.25
 40
0.5
 40
0.5
 40
0.5
 40
0.75
 40
0.75
 40
0.75
 40
1.0
 40
1.0
 40
1.0
 40
1.0
 10
903.766
 20
492.234
 30
0.0
 10
913.7699
 20
456.4851
 30
0.0
 10
909.7316
 20
412.4059
 30
0.0
 10
891.651
 20
378.74
 30
0.0
 10
893.1393
 20
390.8996
 30
0.0
 10
889.6635
 20
402.0141
 30
0.0
 10
876.2321
 20
405.8112
 30
0.0
 10
884.3089
 20
417.9595
 30
0.0
 10
879.3526
 20
427.1577
 30
0.0
 10
869.6239
 20
431.8423
 30
0.0
 10
902.4817
 20
446.7663
 30
0.0
 10
880.2705
 20
487.2009
 30
0.0
 10
903.766
 20
492.234
 30
0.0
  0
SPLINE
  5
6B
330
1F
100
AcDbEntity
  8
Layer 1
 62
   250
370
    20
100
AcDbSpline
210
0.0
220
0.0
230
1.0
 70
    11
 71
     3
 72
    17
 73
    13
 74
     0
 42
0.0000000001
 43
0.0000000001
 40
0.0
 40
0.0
 40
0.0
 40
0.0
 40
0.25
 40
0.25
 40
0.25
 40
0.5
 40
0.5
 40
0.5
 40
0.75
 40
0.75
 40
0.75
 40
1.0
 40
1.0
 40
1.0
 40
1.0
 10
708.0648
 20
190.8916
 30
0.0
 10
727.3137
 20
176.4581
 30
0.0
 10
747.4651
 20
176.8852
 30
0.0
 10
765.8112
 20
189.1849
 30
0.0
 10
725.6225
 20
34.3283
 30
0.0
 10
563.5853
 20
124.8177
 30
0.0
 10
625.9566
 20
223.3059
 30
0.0
 10
659.6041
 20
262.2235
 30
0.0
 10
702.0874
 20
196.4711
 30
0.0
 10
651.6722
 20
198.5687
 30
0.0
 10
639.6413
 20
167.575
 30
0.0
 10
689.5675
 20
141.5584
 30
0.0
 10
708.0648
 20
190.8916
 30
0.0
  0
SPLINE
  5
6C
330
1F
100
AcDbEntity
  8
Layer 1
 62
   250
370
    20
100
AcDbSpline
210
0.0
220
0.0
230
1.0
 70
    11
 71
     3
 72
    17
 73
    13
 74
     0
 42
0.0000000001
 43
0.0000000001
 40
0.0
 40
0.0
 40
0.0
 40
0.0
 40
0.25
 40
0.25
 40
0.25
 40
0.5
 40
0.5
 40
0.5
 40
0.75
 40
0.75
 40
0.75
 40
1.0
 40
1.0
 40
1.0
 40
1.0
 10
718.2772
 20
321.9049
 30
0.0
 10
753.3198
 20
295.9733
 30
0.0
 10
772.2658
 20
255.3582
 30
0.0
 10
769.0829
 20
207.1957
 30
0.0
 10
741.4591
 20
215.9398
 30
0.0
 10
745.14
 20
261.4095
 30
0.0
 10
711.1052
 20
267.6579
 30
0.0
 10
720.7648
 20
279.8611
 30
0.0
 10
720.9337
 20
292.6583
 30
0.0
 10
713.4952
 20
302.1273
 30
0.0
 10
719.6153
 20
307.294
 30
0.0
 10
720.8328
 20
315.3123
 30
0.0
 10
718.2772
 20
321.9049
 30
0.0
  0
SPLINE
  5
6D
330
1F
100
AcDbEntity
  8
Layer 1
 62
   250
370
    20
100
AcDbSpline
210
0.0
220
0.0
230
1.0
 70
    11
 71
     3
 72
    14
 73
    10
 74
     0
 42
0.0000000001
 43
0.0000000001
 40
0.0
 40
0.0
 40
0.0
 40
0.0
 40
0.3333333333333333
 40
0.3333333333333333
 40
0.3333333333333333
 40
0.6666666666666666
 40
0.6666666666666666
 40
0.6666666666666666
 40
1.0
 40
1.0
 40
1.0
 40
1.0
 10
518.7274
 20
434.757
 30
0.0
 10
557.8085
 20
494.0247
 30
0.0
 10
686.4724
 20
468.0848
 30
0.0
 10
705.6564
 20
369.6496
 30
0.0
 10
689.9151
 20
374.7138
 30
0.0
 10
674.174
 20
378.2278
 30
0.0
 10
658.4328
 20
378.3305
 30
0.0
 10
625.7494
 20
420.8098
 30
0.0
 10
578.0893
 20
444.7869
 30
0.0
 10
518.7274
 20
434.757
 30
0.0
  0
SPLINE
  5
6E
330
1F
100
AcDbEntity
  8
Layer 1
 62
   250
370
    20
100
AcDbSpline
210
0.0
220
0.0
230
1.0
 70
    11
 71
     3
 72
    17
 73
    13
 74
     0
 42
0.0000000001
 43
0.0000000001
 40
0.0
 40
0.0
 40
0.0
 40
0.0
 40
0.25
 40
0.25
 40
0.25
 40
0.5
 40
0.5
 40
0.5
 40
0.75
 40
0.75
 40
0.75
 40
1.0
 40
1.0
 40
1.0
 40
1.0
 10
765.0468
 20
65.3428
 30
0.0
 10
848.8485
 20
133.6085
 30
0.0
 10
932.6502
 20
201.8743
 30
0.0
 10
1016.4529
 20
270.1402
 30
0.0
 10
1072.8194
 20
317.1757
 30
0.0
 10
1131.5386
 20
261.845
 30
0.0
 10
1068.1307
 20
210.4298
 30
0.0
 10
970.2132
 20
157.9278
 30
0.0
 10
872.2957
 20
105.4248
 30
0.0
 10
774.3794
 20
52.9239
 30
0.0
 10
771.4159
 20
57.2736
 30
0.0
 10
768.336
 20
61.4565
 30
0.0
 10
765.0468
 20
65.3428
 30
0.0
  0
SPLINE
  5
6F
330
1F
100
AcDbEntity
  8
Layer 1
 62
   250
370
    20
100
AcDbSpline
210
0.0
220
0.0
230
1.0
 70
    11
 71
     3
 72
    17
 73
    13
 74
     0
 42
0.0000000001
 43
0.0000000001
 40
0.0
 40
0.0
 40
0.0
 40
0.0
 40
0.25
 40
0.25
 40
0.25
 40
0.5
 40
0.5
 40
0.5
 40
0.75
 40
0.75
 40
0.75
 40
1.0
 40
1.0
 40
1.0
 40
1.0
 10
783.859
 20
34.0608
 30
0.0
 10
887.539
 20
83.4395
 30
0.0
 10
991.7279
 20
132.8184
 30
0.0
 10
1095.409
 20
182.1972
 30
0.0
 10
1170.6524
 20
216.6687
 30
0.0
 10
1197.1312
 20
112.8936
 30
0.0
 10
1116.552
 20
92.2884
 30
0.0
 10
1006.7188
 20
70.0035
 30
0.0
 10
896.5733
 20
47.5331
 30
0.0
 10
786.7402
 20
25.2482
 30
0.0
 10
785.9396
 20
28.2168
 30
0.0
 10
784.868
 20
31.2891
 30
0.0
 10
783.859
 20
34.0608
 30
0.0
  0
SPLINE
  5
70
330
1F
100
AcDbEntity
  8
Layer 1
 62
   250
370
    20
100
AcDbSpline
210
0.0
220
0.0
230
1.0
 70
    11
 71
     3
 72
    14
 73
    10
 74
     0
 42
0.0000000001
 43
0.0000000001
 40
0.0
 40
0.0
 40
0.0
 40
0.0
 40
0.3333333333333333
 40
0.3333333333333333
 40
0.3333333333333333
 40
0.6666666666666666
 40
0.6666666666666666
 40
0.6666666666666666
 40
1.0
 40
1.0
 40
1.0
 40
1.0
 10
473.4714
 20
369.6496
 30
0.0
 10
495.8274
 20
424.7842
 30
0.0
 10
588.4167
 20
411.8666
 30
0.0
 10
617.1111
 20
376.4703
 30
0.0
 10
600.4958
 20
373.1636
 30
0.0
 10
583.8804
 20
368.2021
 30
0.0
 10
567.2639
 20
361.5888
 30
0.0
 10
538.4599
 20
372.8017
 30
0.0
 10
507.5226
 20
376.6258
 30
0.0
 10
473.4714
 20
369.6496
 30
0.0
  0
SPLINE
  5
71
330
1F
100
AcDbEntity
  8
Layer 1
 62
   250
370
    20
100
AcDbSpline
210
0.0
220
0.0
230
1.0
 70
    11
 71
     3
 72
    14
 73
    10
 74
     0
 42
0.0000000001
 43
0.0000000001
 40
0.0
 40
0.0
 40
0.0
 40
0.0
 40
0.3333333333333333
 40
0.3333333333333333
 40
0.3333333333333333
 40
0.6666666666666666
 40
0.6666666666666666
 40
0.6666666666666666
 40
1.0
 40
1.0
 40
1.0
 40
1.0
 10
-321.06
 20
423.0433
 30
0.0
 10
-366.125
 20
406.2062
 30
0.0
 10
-395.0739
 20
363.7963
 30
0.0
 10
-405.4418
 20
304.8398
 30
0.0
 10
-413.4999
 20
326.9659
 30
0.0
 10
-422.43
 20
349.0932
 30
0.0
 10
-433.7742
 20
371.2205
 30
0.0
 10
-414.5802
 20
418.8003
 30
0.0
 10
-388.0949
 20
423.992
 30
0.0
 10
-321.06
 20
423.0433
 30
0.0
  0
SPLINE
  5
72
330
1F
100
AcDbEntity
  8
Layer 1
 62
   250
370
    20
100
AcDbSpline
210
0.0
220
0.0
230
1.0
 70
    11
 71
     3
 72
    14
 73
    10
 74
     0
 42
0.0000000001
 43
0.0000000001
 40
0.0
 40
0.0
 40
0.0
 40
0.0
 40
0.3333333333333333
 40
0.3333333333333333
 40
0.3333333333333333
 40
0.6666666666666666
 40
0.6666666666666666
 40
0.6666666666666666
 40
1.0
 40
1.0
 40
1.0
 40
1.0
 10
320.96
 20
423.0433
 30
0.0
 10
387.995
 20
423.992
 30
0.0
 10
414.4804
 20
418.8003
 30
0.0
 10
433.6742
 20
371.2205
 30
0.0
 10
422.3301
 20
349.0932
 30
0.0
 10
413.4
 20
326.9659
 30
0.0
 10
405.3419
 20
304.8398
 30
0.0
 10
394.9739
 20
363.7963
 30
0.0
 10
366.0251
 20
406.2062
 30
0.0
 10
320.96
 20
423.0433
 30
0.0
  0
SPLINE
  5
73
330
1F
100
AcDbEntity
  8
Layer 1
 62
   250
370
    20
100
AcDbSpline
210
0.0
220
0.0
230
1.0
 70
    11
 71
     3
 72
    23
 73
    19
 74
     0
 42
0.0000000001
 43
0.0000000001
 40
0.0
 40
0.0
 40
0.0
 40
0.0
 40
0.1666666666666667
 40
0.1666666666666667
 40
0.1666666666666667
 40
0.3333333333333333
 40
0.3333333333333333
 40
0.3333333333333333
 40
0.5
 40
0.5
 40
0.5
 40
0.6666666666666666
 40
0.6666666666666666
 40
0.6666666666666666
 40
0.8333333333333333
 40
0.8333333333333333
 40
0.8333333333333333
 40
1.0
 40
1.0
 40
1.0
 40
1.0
 10
98.4115
 20
421.5429
 30
0.0
 10
136.4899
 20
421.5429
 30
0.0
 10
174.5708
 20
421.5429
 30
0.0
 10
212.6504
 20
421.5429
 30
0.0
 10
170.2056
 20
398.3839
 30
0.0
 10
162.6859
 20
362.156
 30
0.0
 10
135.5216
 20
331.4298
 30
0.0
 10
62.7602
 20
264.7058
 30
0.0
 10
11.8272
 20
337.3919
 30
0.0
 10
37.2938
 20
376.1426
 30
0.0
 10
76.8277
 20
423.148
 30
0.0
 10
104.2343
 20
360.5509
 30
0.0
 10
69.3081
 20
365.8244
 30
0.0
 10
54.5135
 20
346.1049
 30
0.0
 10
84.5886
 20
325.2385
 30
0.0
 10
109.328
 20
348.6266
 30
0.0
 10
124.8037
 20
370.7041
 30
0.0
 10
121.5352
 20
407.0524
 30
0.0
 10
98.4115
 20
421.5429
 30
0.0
  0
SPLINE
  5
74
330
1F
100
AcDbEntity
  8
Layer 1
 62
   250
370
    20
100
AcDbSpline
210
0.0
220
0.0
230
1.0
 70
    11
 71
     3
 72
    23
 73
    19
 74
     0
 42
0.0000000001
 43
0.0000000001
 40
0.0
 40
0.0
 40
0.0
 40
0.0
 40
0.1666666666666667
 40
0.1666666666666667
 40
0.1666666666666667
 40
0.3333333333333333
 40
0.3333333333333333
 40
0.3333333333333333
 40
0.5
 40
0.5
 40
0.5
 40
0.6666666666666666
 40
0.6666666666666666
 40
0.6666666666666666
 40
0.8333333333333333
 40
0.8333333333333333
 40
0.8333333333333333
 40
1.0
 40
1.0
 40
1.0
 40
1.0
 10
-98.5114
 20
421.5429
 30
0.0
 10
-121.6352
 20
407.0524
 30
0.0
 10
-124.9036
 20
370.7041
 30
0.0
 10
-109.4278
 20
348.6266
 30
0.0
 10
-84.6886
 20
325.2385
 30
0.0
 10
-54.6133
 20
346.1049
 30
0.0
 10
-69.408
 20
365.8244
 30
0.0
 10
-104.3343
 20
360.5509
 30
0.0
 10
-76.9275
 20
423.148
 30
0.0
 10
-37.3937
 20
376.1426
 30
0.0
 10
-11.9271
 20
337.3919
 30
0.0
 10
-62.859
 20
264.7058
 30
0.0
 10
-135.6216
 20
331.4298
 30
0.0
 10
-162.7858
 20
362.156
 30
0.0
 10
-170.3055
 20
398.3839
 30
0.0
 10
-212.7503
 20
421.5429
 30
0.0
 10
-174.6707
 20
421.5429
 30
0.0
 10
-136.5899
 20
421.5429
 30
0.0
 10
-98.5114
 20
421.5429
 30
0.0
  0
SPLINE
  5
75
330
1F
100
AcDbEntity
  8
Layer 1
 62
   250
370
    20
100
AcDbSpline
210
0.0
220
0.0
230
1.0
 70
    11
 71
     3
 72
    14
 73
    10
 74
     0
 42
0.0000000001
 43
0.0000000001
 40
0.0
 40
0.0
 40
0.0
 40
0.0
 40
0.3333333333333333
 40
0.3333333333333333
 40
0.3333333333333333
 40
0.6666666666666666
 40
0.6666666666666666
 40
0.6666666666666666
 40
1.0
 40
1.0
 40
1.0
 40
1.0
 10
38.6483
 20
423.5213
 30
0.0
 10
20.0203
 20
416.7483
 30
0.0
 10
-0.0379
 20
387.3939
 30
0.0
 10
-0.05
 20
356.2333
 30
0.0
 10
-0.062
 20
387.3939
 30
0.0
 10
-20.1202
 20
416.7483
 30
0.0
 10
-38.7482
 20
423.5213
 30
0.0
 10
-12.9493
 20
423.5213
 30
0.0
 10
12.8484
 20
423.5213
 30
0.0
 10
38.6483
 20
423.5213
 30
0.0
  0
SPLINE
  5
76
330
1F
100
AcDbEntity
  8
Layer 1
 62
   250
370
    20
100
AcDbSpline
210
0.0
220
0.0
230
1.0
 70
    11
 71
     3
 72
    20
 73
    16
 74
     0
 42
0.0000000001
 43
0.0000000001
 40
0.0
 40
0.0
 40
0.0
 40
0.0
 40
0.2
 40
0.2
 40
0.2
 40
0.4
 40
0.4
 40
0.4
 40
0.6000000000000001
 40
0.6000000000000001
 40
0.6000000000000001
 40
0.8
 40
0.8
 40
0.8
 40
1.0
 40
1.0
 40
1.0
 40
1.0
 10
288.2535
 20
343.887
 30
0.0
 10
278.6325
 20
358.3993
 30
0.0
 10
255.8323
 20
362.1311
 30
0.0
 10
246.2102
 20
345.0732
 30
0.0
 10
222.9471
 20
339.558
 30
0.0
 10
224.0373
 20
302.6581
 30
0.0
 10
246.8386
 20
291.6816
 30
0.0
 10
290.4559
 20
336.9783
 30
0.0
 10
287.7359
 20
244.6284
 30
0.0
 10
244.9554
 20
242.4427
 30
0.0
 10
121.1755
 20
254.3411
 30
0.0
 10
209.5508
 20
471.6123
 30
0.0
 10
334.0623
 20
372.3621
 30
0.0
 10
316.2317
 20
370.5952
 30
0.0
 10
294.378
 20
364.1001
 30
0.0
 10
288.2535
 20
343.887
 30
0.0
  0
SPLINE
  5
77
330
1F
100
AcDbEntity
  8
Layer 1
 62
   250
370
    20
100
AcDbSpline
210
0.0
220
0.0
230
1.0
 70
    11
 71
     3
 72
    20
 73
    16
 74
     0
 42
0.0000000001
 43
0.0000000001
 40
0.0
 40
0.0
 40
0.0
 40
0.0
 40
0.2
 40
0.2
 40
0.2
 40
0.4
 40
0.4
 40
0.4
 40
0.6000000000000001
 40
0.6000000000000001
 40
0.6000000000000001
 40
0.8
 40
0.8
 40
0.8
 40
1.0
 40
1.0
 40
1.0
 40
1.0
 10
288.2535
 20
-344.0044
 30
0.0
 10
294.378
 20
-364.2185
 30
0.0
 10
316.2317
 20
-370.7126
 30
0.0
 10
334.0623
 20
-372.4795
 30
0.0
 10
209.5508
 20
-471.7297
 30
0.0
 10
121.1755
 20
-254.4595
 30
0.0
 10
244.9554
 20
-242.5611
 30
0.0
 10
287.7359
 20
-244.7458
 30
0.0
 10
290.4559
 20
-337.0966
 30
0.0
 10
246.8386
 20
-291.8
 30
0.0
 10
224.0373
 20
-302.7755
 30
0.0
 10
222.9471
 20
-339.6753
 30
0.0
 10
246.2102
 20
-345.1906
 30
0.0
 10
255.8323
 20
-362.2485
 30
0.0
 10
278.6325
 20
-358.5167
 30
0.0
 10
288.2535
 20
-344.0044
 30
0.0
  0
SPLINE
  5
78
330
1F
100
AcDbEntity
  8
Layer 1
 62
   250
370
    20
100
AcDbSpline
210
0.0
220
0.0
230
1.0
 70
    11
 71
     3
 72
    20
 73
    16
 74
     0
 42
0.0000000001
 43
0.0000000001
 40
0.0
 40
0.0
 40
0.0
 40
0.0
 40
0.2
 40
0.2
 40
0.2
 40
0.4
 40
0.4
 40
0.4
 40
0.6000000000000001
 40
0.6000000000000001
 40
0.6000000000000001
 40
0.8
 40
0.8
 40
0.8
 40
1.0
 40
1.0
 40
1.0
 40
1.0
 10
-288.3534
 20
-344.0044
 30
0.0
 10
-278.7324
 20
-358.5167
 30
0.0
 10
-255.9323
 20
-362.2485
 30
0.0
 10
-246.3101
 20
-345.1906
 30
0.0
 10
-223.047
 20
-339.6753
 30
0.0
 10
-224.1372
 20
-302.7755
 30
0.0
 10
-246.9374
 20
-291.8
 30
0.0
 10
-290.5558
 20
-337.0966
 30
0.0
 10
-287.8346
 20
-244.7458
 30
0.0
 10
-245.0553
 20
-242.5611
 30
0.0
 10
-121.2754
 20
-254.4595
 30
0.0
 10
-209.6507
 20
-471.7297
 30
0.0
 10
-334.1622
 20
-372.4795
 30
0.0
 10
-316.3316
 20
-370.7126
 30
0.0
 10
-294.4779
 20
-364.2185
 30
0.0
 10
-288.3534
 20
-344.0044
 30
0.0
  0
SPLINE
  5
79
330
1F
100
AcDbEntity
  8
Layer 1
 62
   250
370
    20
100
AcDbSpline
210
0.0
220
0.0
230
1.0
 70
    11
 71
     3
 72
    20
 73
    16
 74
     0
 42
0.0000000001
 43
0.0000000001
 40
0.0
 40
0.0
 40
0.0
 40
0.0
 40
0.2
 40
0.2
 40
0.2
 40
0.4
 40
0.4
 40
0.4
 40
0.6000000000000001
 40
0.6000000000000001
 40
0.6000000000000001
 40
0.8
 40
0.8
 40
0.8
 40
1.0
 40
1.0
 40
1.0
 40
1.0
 10
-288.3534
 20
343.887
 30
0.0
 10
-294.4779
 20
364.1001
 30
0.0
 10
-316.3316
 20
370.5952
 30
0.0
 10
-334.1622
 20
372.3621
 30
0.0
 10
-209.6507
 20
471.6123
 30
0.0
 10
-121.2754
 20
254.3411
 30
0.0
 10
-245.0553
 20
242.4427
 30
0.0
 10
-287.8346
 20
244.6284
 30
0.0
 10
-290.5558
 20
336.9783
 30
0.0
 10
-246.9374
 20
291.6816
 30
0.0
 10
-224.1372
 20
302.6581
 30
0.0
 10
-223.047
 20
339.558
 30
0.0
 10
-246.3101
 20
345.0732
 30
0.0
 10
-255.9323
 20
362.1311
 30
0.0
 10
-278.7324
 20
358.3993
 30
0.0
 10
-288.3534
 20
343.887
 30
0.0
  0
SPLINE
  5
7A
330
1F
100
AcDbEntity
  8
Layer 1
 62
   250
370
    20
100
AcDbSpline
210
0.0
220
0.0
230
1.0
 70
    11
 71
     3
 72
   149
 73
   145
 74
     0
 42
0.0000000001
 43
0.0000000001
 40
0.0
 40
0.0
 40
0.0
 40
0.0
 40
0.0208333333333333
 40
0.0208333333333333
 40
0.0208333333333333
 40
0.0416666666666667
 40
0.0416666666666667
 40
0.0416666666666667
 40
0.0625
 40
0.0625
 40
0.0625
 40
0.0833333333333333
 40
0.0833333333333333
 40
0.0833333333333333
 40
0.1041666666666667
 40
0.1041666666666667
 40
0.1041666666666667
 40
0.125
 40
0.125
 40
0.125
 40
0.1458333333333333
 40
0.1458333333333333
 40
0.1458333333333333
 40
0.1666666666666667
 40
0.1666666666666667
 40
0.1666666666666667
 40
0.1875
 40
0.1875
 40
0.1875
 40
0.2083333333333333
 40
0.2083333333333333
 40
0.2083333333333333
 40
0.2291666666666667
 40
0.2291666666666667
 40
0.2291666666666667
 40
0.25
 40
0.25
 40
0.25
 40
0.2708333333333333
 40
0.2708333333333333
 40
0.2708333333333333
 40
0.2916666666666666
 40
0.2916666666666666
 40
0.2916666666666666
 40
0.3125
 40
0.3125
 40
0.3125
 40
0.3333333333333333
 40
0.3333333333333333
 40
0.3333333333333333
 40
0.3541666666666666
 40
0.3541666666666666
 40
0.3541666666666666
 40
0.375
 40
0.375
 40
0.375
 40
0.3958333333333333
 40
0.3958333333333333
 40
0.3958333333333333
 40
0.4166666666666666
 40
0.4166666666666666
 40
0.4166666666666666
 40
0.4375
 40
0.4375
 40
0.4375
 40
0.4583333333333333
 40
0.4583333333333333
 40
0.4583333333333333
 40
0.4791666666666666
 40
0.4791666666666666
 40
0.4791666666666666
 40
0.5
 40
0.5
 40
0.5
 40
0.5208333333333333
 40
0.5208333333333333
 40
0.5208333333333333
 40
0.5416666666666666
 40
0.5416666666666666
 40
0.5416666666666666
 40
0.5625
 40
0.5625
 40
0.5625
 40
0.5833333333333333
 40
0.5833333333333333
 40
0.5833333333333333
 40
0.6041666666666666
 40
0.6041666666666666
 40
0.6041666666666666
 40
0.625
 40
0.625
 40
0.625
 40
0.6458333333333333
 40
0.6458333333333333
 40
0.6458333333333333
 40
0.6666666666666666
 40
0.6666666666666666
 40
0.6666666666666666
 40
0.6875
 40
0.6875
 40
0.6875
 40
0.7083333333333333
 40
0.7083333333333333
 40
0.7083333333333333
 40
0.7291666666666666
 40
0.7291666666666666
 40
0.7291666666666666
 40
0.75
 40
0.75
 40
0.75
 40
0.7708333333333333
 40
0.7708333333333333
 40
0.7708333333333333
 40
0.7916666666666666
 40
0.7916666666666666
 40
0.7916666666666666
 40
0.8125
 40
0.8125
 40
0.8125
 40
0.8333333333333333
 40
0.8333333333333333
 40
0.8333333333333333
 40
0.8541666666666666
 40
0.8541666666666666
 40
0.8541666666666666
 40
0.875
 40
0.875
 40
0.875
 40
0.8958333333333333
 40
0.8958333333333333
 40
0.8958333333333333
 40
0.9166666666666666
 40
0.9166666666666666
 40
0.9166666666666666
 40
0.9375
 40
0.9375
 40
0.9375
 40
0.9583333333333333
 40
0.9583333333333333
 40
0.9583333333333333
 40
0.9791666666666666
 40
0.9791666666666666
 40
0.9791666666666666
 40
1.0
 40
1.0
 40
1.0
 40
1.0
 10
348.6771
 20
357.0981
 30
0.0
 10
416.1442
 20
232.7561
 30
0.0
 10
344.0584
 20
151.3715
 30
0.0
 10
309.6487
 20
74.4239
 30
0.0
 10
313.3773
 20
52.6772
 30
0.0
 10
305.7952
 20
29.3595
 30
0.0
 10
284.2252
 20
15.3248
 30
0.0
 10
293.1563
 20
10.9474
 30
0.0
 10
300.6591
 20
5.8196
 30
0.0
 10
306.7334
 20
-0.0582
 30
0.0
 10
300.6592
 20
-5.9369
 30
0.0
 10
293.1566
 20
-11.0649
 30
0.0
 10
284.2255
 20
-15.4423
 30
0.0
 10
305.7953
 20
-29.4772
 30
0.0
 10
313.3773
 20
-52.7947
 30
0.0
 10
309.6487
 20
-74.5413
 30
0.0
 10
344.0584
 20
-151.49
 30
0.0
 10
416.1442
 20
-232.8735
 30
0.0
 10
348.6771
 20
-357.2155
 30
0.0
 10
319.7205
 20
-358.4057
 30
0.0
 10
346.7884
 20
-306.6317
 30
0.0
 10
326.0151
 20
-278.6616
 30
0.0
 10
347.6285
 20
-274.1002
 30
0.0
 10
354.1325
 20
-234.6238
 30
0.0
 10
326.6447
 20
-219.1512
 30
0.0
 10
326.8552
 20
-235.0209
 30
0.0
 10
323.2874
 20
-246.7252
 30
0.0
 10
295.1699
 20
-223.9127
 30
0.0
 10
279.6448
 20
-209.8265
 30
0.0
 10
260.7591
 20
-202.0902
 30
0.0
 10
237.8877
 20
-201.8932
 30
0.0
 10
223.343
 20
-203.5782
 30
0.0
 10
212.6285
 20
-207.0735
 30
0.0
 10
203.6555
 20
-211.3932
 30
0.0
 10
173.0835
 20
-233.2633
 30
0.0
 10
153.361
 20
-263.019
 30
0.0
 10
156.319
 20
-306.022
 30
0.0
 10
137.1712
 20
-282.7137
 30
0.0
 10
105.7775
 20
-269.9724
 30
0.0
 10
76.4394
 20
-270.1289
 30
0.0
 10
61.2916
 20
-270.1798
 30
0.0
 10
45.3024
 20
-273.1609
 30
0.0
 10
33.9802
 20
-279.0742
 30
0.0
 10
15.8646
 20
-290.5786
 30
0.0
 10
-0.0379
 20
-310.8176
 30
0.0
 10
-0.05
 20
-330.6192
 30
0.0
 10
-0.062
 20
-310.8176
 30
0.0
 10
-15.9644
 20
-290.5786
 30
0.0
 10
-34.0802
 20
-279.0742
 30
0.0
 10
-45.4024
 20
-273.1609
 30
0.0
 10
-61.3915
 20
-270.1798
 30
0.0
 10
-76.5394
 20
-270.1289
 30
0.0
 10
-105.8774
 20
-269.9724
 30
0.0
 10
-137.271
 20
-282.7137
 30
0.0
 10
-156.4189
 20
-306.022
 30
0.0
 10
-153.4598
 20
-263.019
 30
0.0
 10
-173.1834
 20
-233.2633
 30
0.0
 10
-203.7554
 20
-211.3932
 30
0.0
 10
-212.7284
 20
-207.0735
 30
0.0
 10
-223.4419
 20
-203.5782
 30
0.0
 10
-237.9865
 20
-201.8932
 30
0.0
 10
-260.8591
 20
-202.0902
 30
0.0
 10
-279.7436
 20
-209.8265
 30
0.0
 10
-295.2699
 20
-223.9127
 30
0.0
 10
-323.3873
 20
-246.7252
 30
0.0
 10
-326.9551
 20
-235.0209
 30
0.0
 10
-326.7446
 20
-219.1512
 30
0.0
 10
-354.2325
 20
-234.6238
 30
0.0
 10
-347.7273
 20
-274.1002
 30
0.0
 10
-326.1151
 20
-278.6616
 30
0.0
 10
-346.8884
 20
-306.6317
 30
0.0
 10
-319.8205
 20
-358.4057
 30
0.0
 10
-348.777
 20
-357.2155
 30
0.0
 10
-416.2441
 20
-232.8735
 30
0.0
 10
-344.1584
 20
-151.49
 30
0.0
 10
-309.7486
 20
-74.5413
 30
0.0
 10
-313.4772
 20
-52.7947
 30
0.0
 10
-305.8953
 20
-29.4772
 30
0.0
 10
-284.3254
 20
-15.4423
 30
0.0
 10
-293.2562
 20
-11.0649
 30
0.0
 10
-300.7586
 20
-5.9369
 30
0.0
 10
-306.8322
 20
-0.0582
 30
0.0
 10
-300.7585
 20
5.8196
 30
0.0
 10
-293.256
 20
10.9474
 30
0.0
 10
-284.3249
 20
15.3247
 30
0.0
 10
-305.8952
 20
29.3595
 30
0.0
 10
-313.4772
 20
52.6772
 30
0.0
 10
-309.7486
 20
74.4239
 30
0.0
 10
-344.1584
 20
151.3715
 30
0.0
 10
-416.2441
 20
232.7561
 30
0.0
 10
-348.777
 20
357.0981
 30
0.0
 10
-319.8205
 20
358.2873
 30
0.0
 10
-346.8884
 20
306.5143
 30
0.0
 10
-326.1151
 20
278.5442
 30
0.0
 10
-347.7273
 20
273.9818
 30
0.0
 10
-354.2325
 20
234.5064
 30
0.0
 10
-326.7446
 20
219.0339
 30
0.0
 10
-326.9551
 20
234.9035
 30
0.0
 10
-323.3873
 20
246.6069
 30
0.0
 10
-295.2699
 20
223.7942
 30
0.0
 10
-279.7436
 20
209.7091
 30
0.0
 10
-260.8591
 20
201.9728
 30
0.0
 10
-237.9865
 20
201.7759
 30
0.0
 10
-223.4419
 20
203.4598
 30
0.0
 10
-212.7284
 20
206.9562
 30
0.0
 10
-203.7554
 20
211.2759
 30
0.0
 10
-173.1834
 20
233.146
 30
0.0
 10
-153.4598
 20
262.9016
 30
0.0
 10
-156.4189
 20
305.9047
 30
0.0
 10
-137.271
 20
282.5963
 30
0.0
 10
-105.8774
 20
269.854
 30
0.0
 10
-76.5394
 20
270.0106
 30
0.0
 10
-61.3915
 20
270.0624
 30
0.0
 10
-45.4024
 20
273.0435
 30
0.0
 10
-34.0802
 20
278.9568
 30
0.0
 10
-15.9644
 20
290.4601
 30
0.0
 10
-0.062
 20
310.6992
 30
0.0
 10
-0.05
 20
330.5018
 30
0.0
 10
-0.0379
 20
310.6992
 30
0.0
 10
15.8646
 20
290.4601
 30
0.0
 10
33.9802
 20
278.9568
 30
0.0
 10
45.3024
 20
273.0435
 30
0.0
 10
61.2916
 20
270.0624
 30
0.0
 10
76.4394
 20
270.0106
 30
0.0
 10
105.7775
 20
269.854
 30
0.0
 10
137.1712
 20
282.5963
 30
0.0
 10
156.319
 20
305.9047
 30
0.0
 10
153.361
 20
262.9016
 30
0.0
 10
173.0835
 20
233.146
 30
0.0
 10
203.6555
 20
211.2759
 30
0.0
 10
212.6285
 20
206.9562
 30
0.0
 10
223.343
 20
203.4598
 30
0.0
 10
237.8877
 20
201.7759
 30
0.0
 10
260.7591
 20
201.9728
 30
0.0
 10
279.6448
 20
209.7091
 30
0.0
 10
295.1699
 20
223.7942
 30
0.0
 10
323.2874
 20
246.6069
 30
0.0
 10
326.8552
 20
234.9035
 30
0.0
 10
326.6447
 20
219.0339
 30
0.0
 10
354.1325
 20
234.5064
 30
0.0
 10
347.6285
 20
273.9818
 30
0.0
 10
326.0151
 20
278.5442
 30
0.0
 10
346.7884
 20
306.5143
 30
0.0
 10
319.7205
 20
358.2873
 30
0.0
 10
348.6771
 20
357.0981
 30
0.0
  0
SPLINE
  5
7B
330
1F
100
AcDbEntity
  8
Layer 1
 62
   250
370
    20
100
AcDbSpline
210
0.0
220
0.0
230
1.0
 70
    11
 71
     3
 72
    23
 73
    19
 74
     0
 42
0.0000000001
 43
0.0000000001
 40
0.0
 40
0.0
 40
0.0
 40
0.0
 40
0.1666666666666667
 40
0.1666666666666667
 40
0.1666666666666667
 40
0.3333333333333333
 40
0.3333333333333333
 40
0.3333333333333333
 40
0.5
 40
0.5
 40
0.5
 40
0.6666666666666666
 40
0.6666666666666666
 40
0.6666666666666666
 40
0.8333333333333333
 40
0.8333333333333333
 40
0.8333333333333333
 40
1.0
 40
1.0
 40
1.0
 40
1.0
 10
790.1875
 20
5.5617
 30
0.0
 10
900.7313
 20
24.1989
 30
0.0
 10
1017.0156
 20
37.2149
 30
0.0
 10
1127.5583
 20
55.853
 30
0.0
 10
1172.5312
 20
63.1693
 30
0.0
 10
1199.3095
 20
43.116
 30
0.0
 10
1199.95
 20
-0.0582
 30
0.0
 10
1199.3095
 20
-43.2333
 30
0.0
 10
1172.5312
 20
-63.2867
 30
0.0
 10
1127.5583
 20
-55.9704
 30
0.0
 10
1017.0156
 20
-37.3334
 30
0.0
 10
900.7313
 20
-24.3172
 30
0.0
 10
790.1875
 20
-5.6802
 30
0.0
 10
790.1875
 20
-5.6802
 30
0.0
 10
790.3958
 20
-0.0582
 30
0.0
 10
790.3958
 20
-0.0582
 30
0.0
 10
790.3958
 20
-0.0582
 30
0.0
 10
790.1875
 20
5.5617
 30
0.0
 10
790.1875
 20
5.5617
 30
0.0
  0
SPLINE
  5
7C
330
1F
100
AcDbEntity
  8
Layer 1
 62
   250
370
    20
100
AcDbSpline
210
0.0
220
0.0
230
1.0
 70
    11
 71
     3
 72
    20
 73
    16
 74
     0
 42
0.0000000001
 43
0.0000000001
 40
0.0
 40
0.0
 40
0.0
 40
0.0
 40
0.2
 40
0.2
 40
0.2
 40
0.4
 40
0.4
 40
0.4
 40
0.6000000000000001
 40
0.6000000000000001
 40
0.6000000000000001
 40
0.8
 40
0.8
 40
0.8
 40
1.0
 40
1.0
 40
1.0
 40
1.0
 10
458.2216
 20
-240.8378
 30
0.0
 10
498.9654
 20
-251.4525
 30
0.0
 10
545.8774
 20
-238.2612
 30
0.0
 10
577.7241
 20
-197.8276
 30
0.0
 10
588.4398
 20
-254.7446
 30
0.0
 10
618.164
 20
-274.3387
 30
0.0
 10
659.0096
 20
-280.4077
 30
0.0
 10
690.9615
 20
-285.6668
 30
0.0
 10
693.9963
 20
-321.0321
 30
0.0
 10
672.3545
 20
-321.1254
 30
0.0
 10
673.2001
 20
-330.0406
 30
0.0
 10
678.7564
 20
-335.6035
 30
0.0
 10
685.7001
 20
-337.1817
 30
0.0
 10
596.227
 20
-350.2216
 30
0.0
 10
520.1565
 20
-305.1541
 30
0.0
 10
458.2216
 20
-240.8378
 30
0.0
  0
SPLINE
  5
7D
330
1F
100
AcDbEntity
  8
Layer 1
 62
   250
370
    20
100
AcDbSpline
210
0.0
220
0.0
230
1.0
 70
    11
 71
     3
 72
    14
 73
    10
 74
     0
 42
0.0000000001
 43
0.0000000001
 40
0.0
 40
0.0
 40
0.0
 40
0.0
 40
0.3333333333333333
 40
0.3333333333333333
 40
0.3333333333333333
 40
0.6666666666666666
 40
0.6666666666666666
 40
0.6666666666666666
 40
1.0
 40
1.0
 40
1.0
 40
1.0
 10
414.6657
 20
-101.7689
 30
0.0
 10
401.3923
 20
-117.9568
 30
0.0
 10
396.6136
 20
-143.1782
 30
0.0
 10
400.7287
 20
-163.8829
 30
0.0
 10
373.9593
 20
-124.4396
 30
0.0
 10
349.4382
 20
-75.2369
 30
0.0
 10
324.6737
 20
-27.9858
 30
0.0
 10
366.6656
 20
-37.0648
 30
0.0
 10
392.8757
 20
-66.5582
 30
0.0
 10
414.6657
 20
-101.7689
 30
0.0
  0
SPLINE
  5
7E
330
1F
100
AcDbEntity
  8
Layer 1
 62
   250
370
    20
100
AcDbSpline
210
0.0
220
0.0
230
1.0
 70
    11
 71
     3
 72
    17
 73
    13
 74
     0
 42
0.0000000001
 43
0.0000000001
 40
0.0
 40
0.0
 40
0.0
 40
0.0
 40
0.25
 40
0.25
 40
0.25
 40
0.5
 40
0.5
 40
0.5
 40
0.75
 40
0.75
 40
0.75
 40
1.0
 40
1.0
 40
1.0
 40
1.0
 10
588.4135
 20
-128.4689
 30
0.0
 10
504.5622
 20
-279.7098
 30
0.0
 10
394.658
 20
-178.6886
 30
0.0
 10
449.7237
 20
-124.7589
 30
0.0
 10
479.4962
 20
-98.7837
 30
0.0
 10
498.6879
 20
-155.8895
 30
0.0
 10
460.8462
 20
-155.6821
 30
0.0
 10
463.0267
 20
-194.2316
 30
0.0
 10
530.6265
 20
-186.8106
 30
0.0
 10
514.4894
 20
-116.7179
 30
0.0
 10
538.2044
 20
-127.3863
 30
0.0
 10
562.9546
 20
-131.2
 30
0.0
 10
588.4135
 20
-128.4689
 30
0.0
  0
SPLINE
  5
7F
330
1F
100
AcDbEntity
  8
Layer 1
 62
   250
370
    20
100
AcDbSpline
210
0.0
220
0.0
230
1.0
 70
    11
 71
     3
 72
    29
 73
    25
 74
     0
 42
0.0000000001
 43
0.0000000001
 40
0.0
 40
0.0
 40
0.0
 40
0.0
 40
0.125
 40
0.125
 40
0.125
 40
0.25
 40
0.25
 40
0.25
 40
0.375
 40
0.375
 40
0.375
 40
0.5
 40
0.5
 40
0.5
 40
0.625
 40
0.625
 40
0.625
 40
0.75
 40
0.75
 40
0.75
 40
0.875
 40
0.875
 40
0.875
 40
1.0
 40
1.0
 40
1.0
 40
1.0
 10
575.3297
 20
-0.0582
 30
0.0
 10
550.1637
 20
-24.5796
 30
0.0
 10
579.0621
 20
-56.1623
 30
0.0
 10
595.6095
 20
-45.5943
 30
0.0
 10
598.4446
 20
-5.0062
 30
0.0
 10
638.5687
 20
-43.3266
 30
0.0
 10
610.0016
 20
-75.8995
 30
0.0
 10
581.2172
 20
-106.8227
 30
0.0
 10
538.0409
 20
-89.5056
 30
0.0
 10
505.9849
 20
-79.6105
 30
0.0
 10
493.1063
 20
-46.5347
 30
0.0
 10
471.5455
 20
-20.3532
 30
0.0
 10
435.9853
 20
-0.0582
 30
0.0
 10
471.5455
 20
20.2348
 30
0.0
 10
493.1063
 20
46.4163
 30
0.0
 10
505.9849
 20
79.4931
 30
0.0
 10
538.0409
 20
89.3882
 30
0.0
 10
581.2172
 20
106.7053
 30
0.0
 10
610.0016
 20
75.7821
 30
0.0
 10
638.5687
 20
43.2083
 30
0.0
 10
598.4446
 20
4.8888
 30
0.0
 10
595.6095
 20
45.4769
 30
0.0
 10
579.0621
 20
56.0439
 30
0.0
 10
550.1637
 20
24.4612
 30
0.0
 10
575.3297
 20
-0.0582
 30
0.0
  0
SPLINE
  5
80
330
1F
100
AcDbEntity
  8
Layer 1
 62
   250
370
    20
100
AcDbSpline
210
0.0
220
0.0
230
1.0
 70
    11
 71
     3
 72
    23
 73
    19
 74
     0
 42
0.0000000001
 43
0.0000000001
 40
0.0
 40
0.0
 40
0.0
 40
0.0
 40
0.1666666666666667
 40
0.1666666666666667
 40
0.1666666666666667
 40
0.3333333333333333
 40
0.3333333333333333
 40
0.3333333333333333
 40
0.5
 40
0.5
 40
0.5
 40
0.6666666666666666
 40
0.6666666666666666
 40
0.6666666666666666
 40
0.8333333333333333
 40
0.8333333333333333
 40
0.8333333333333333
 40
1.0
 40
1.0
 40
1.0
 40
1.0
 10
647.3222
 20
72.5036
 30
0.0
 10
669.6739
 20
63.1455
 30
0.0
 10
692.6638
 20
62.5421
 30
0.0
 10
716.2931
 20
67.9754
 30
0.0
 10
741.957
 20
52.0891
 30
0.0
 10
761.6752
 20
29.1096
 30
0.0
 10
762.7522
 20
-0.0582
 30
0.0
 10
761.6752
 20
-29.227
 30
0.0
 10
741.957
 20
-52.2075
 30
0.0
 10
716.2931
 20
-68.0938
 30
0.0
 10
692.6638
 20
-62.6594
 30
0.0
 10
669.6739
 20
-63.2639
 30
0.0
 10
647.3222
 20
-72.6219
 30
0.0
 10
658.2584
 20
-49.0752
 30
0.0
 10
656.3435
 20
-17.115
 30
0.0
 10
632.4738
 20
-0.0582
 30
0.0
 10
656.3435
 20
16.9966
 30
0.0
 10
658.2584
 20
48.9578
 30
0.0
 10
647.3222
 20
72.5036
 30
0.0
  0
SPLINE
  5
81
330
1F
100
AcDbEntity
  8
Layer 1
 62
   250
370
    20
100
AcDbSpline
210
0.0
220
0.0
230
1.0
 70
    11
 71
     3
 72
    20
 73
    16
 74
     0
 42
0.0000000001
 43
0.0000000001
 40
0.0
 40
0.0
 40
0.0
 40
0.0
 40
0.2
 40
0.2
 40
0.2
 40
0.4
 40
0.4
 40
0.4
 40
0.6000000000000001
 40
0.6000000000000001
 40
0.6000000000000001
 40
0.8
 40
0.8
 40
0.8
 40
1.0
 40
1.0
 40
1.0
 40
1.0
 10
458.2216
 20
240.7204
 30
0.0
 10
520.1565
 20
305.0357
 30
0.0
 10
596.227
 20
350.1042
 30
0.0
 10
685.7001
 20
337.0643
 30
0.0
 10
678.7564
 20
335.4851
 30
0.0
 10
673.2001
 20
329.9232
 30
0.0
 10
672.3545
 20
321.007
 30
0.0
 10
693.9963
 20
320.9147
 30
0.0
 10
690.9615
 20
285.5495
 30
0.0
 10
659.0096
 20
280.2903
 30
0.0
 10
618.164
 20
274.2203
 30
0.0
 10
588.4398
 20
254.6273
 30
0.0
 10
577.7241
 20
197.7092
 30
0.0
 10
545.8774
 20
238.1438
 30
0.0
 10
498.9654
 20
251.3341
 30
0.0
 10
458.2216
 20
240.7204
 30
0.0
  0
SPLINE
  5
82
330
1F
100
AcDbEntity
  8
Layer 1
 62
   250
370
    20
100
AcDbSpline
210
0.0
220
0.0
230
1.0
 70
    11
 71
     3
 72
    14
 73
    10
 74
     0
 42
0.0000000001
 43
0.0000000001
 40
0.0
 40
0.0
 40
0.0
 40
0.0
 40
0.3333333333333333
 40
0.3333333333333333
 40
0.3333333333333333
 40
0.6666666666666666
 40
0.6666666666666666
 40
0.6666666666666666
 40
1.0
 40
1.0
 40
1.0
 40
1.0
 10
414.6657
 20
101.6515
 30
0.0
 10
392.8757
 20
66.4408
 30
0.0
 10
366.6656
 20
36.9464
 30
0.0
 10
324.6737
 20
27.8684
 30
0.0
 10
349.4382
 20
75.1196
 30
0.0
 10
373.9593
 20
124.3222
 30
0.0
 10
400.7287
 20
163.7644
 30
0.0
 10
396.6136
 20
143.0608
 30
0.0
 10
401.3923
 20
117.8384
 30
0.0
 10
414.6657
 20
101.6515
 30
0.0
  0
SPLINE
  5
83
330
1F
100
AcDbEntity
  8
Layer 1
 62
   250
370
    20
100
AcDbSpline
210
0.0
220
0.0
230
1.0
 70
    11
 71
     3
 72
    17
 73
    13
 74
     0
 42
0.0000000001
 43
0.0000000001
 40
0.0
 40
0.0
 40
0.0
 40
0.0
 40
0.25
 40
0.25
 40
0.25
 40
0.5
 40
0.5
 40
0.5
 40
0.75
 40
0.75
 40
0.75
 40
1.0
 40
1.0
 40
1.0
 40
1.0
 10
449.7237
 20
124.6405
 30
0.0
 10
394.658
 20
178.5712
 30
0.0
 10
504.5622
 20
279.5924
 30
0.0
 10
588.4135
 20
128.3515
 30
0.0
 10
562.9546
 20
131.0826
 30
0.0
 10
538.2044
 20
127.2689
 30
0.0
 10
514.4894
 20
116.6005
 30
0.0
 10
530.6265
 20
186.6932
 30
0.0
 10
463.0267
 20
194.1143
 30
0.0
 10
460.8462
 20
155.5637
 30
0.0
 10
498.6879
 20
155.7721
 30
0.0
 10
479.4962
 20
98.6663
 30
0.0
 10
449.7237
 20
124.6405
 30
0.0
  0
SPLINE
  5
84
330
1F
100
AcDbEntity
  8
Layer 1
 62
   250
370
    20
100
AcDbSpline
210
0.0
220
0.0
230
1.0
 70
    11
 71
     3
 72
    29
 73
    25
 74
     0
 42
0.0000000001
 43
0.0000000001
 40
0.0
 40
0.0
 40
0.0
 40
0.0
 40
0.125
 40
0.125
 40
0.125
 40
0.25
 40
0.25
 40
0.25
 40
0.375
 40
0.375
 40
0.375
 40
0.5
 40
0.5
 40
0.5
 40
0.625
 40
0.625
 40
0.625
 40
0.75
 40
0.75
 40
0.75
 40
0.875
 40
0.875
 40
0.875
 40
1.0
 40
1.0
 40
1.0
 40
1.0
 10
-575.4297
 20
-0.0582
 30
0.0
 10
-550.2636
 20
24.4612
 30
0.0
 10
-579.162
 20
56.0439
 30
0.0
 10
-595.7094
 20
45.4769
 30
0.0
 10
-598.5446
 20
4.8888
 30
0.0
 10
-638.6686
 20
43.2083
 30
0.0
 10
-610.1016
 20
75.7821
 30
0.0
 10
-581.3172
 20
106.7053
 30
0.0
 10
-538.1408
 20
89.3882
 30
0.0
 10
-506.0849
 20
79.4931
 30
0.0
 10
-493.2062
 20
46.4163
 30
0.0
 10
-471.6455
 20
20.2348
 30
0.0
 10
-436.0852
 20
-0.0582
 30
0.0
 10
-471.6455
 20
-20.3532
 30
0.0
 10
-493.2062
 20
-46.5347
 30
0.0
 10
-506.0849
 20
-79.6105
 30
0.0
 10
-538.1408
 20
-89.5056
 30
0.0
 10
-581.3172
 20
-106.8227
 30
0.0
 10
-610.1016
 20
-75.8995
 30
0.0
 10
-638.6686
 20
-43.3266
 30
0.0
 10
-598.5446
 20
-5.0062
 30
0.0
 10
-595.7094
 20
-45.5943
 30
0.0
 10
-579.162
 20
-56.1623
 30
0.0
 10
-550.2636
 20
-24.5796
 30
0.0
 10
-575.4297
 20
-0.0582
 30
0.0
  0
SPLINE
  5
85
330
1F
100
AcDbEntity
  8
Layer 1
 62
   250
370
    20
100
AcDbSpline
210
0.0
220
0.0
230
1.0
 70
    11
 71
     3
 72
    11
 73
     7
 74
     0
 42
0.0000000001
 43
0.0000000001
 40
0.0
 40
0.0
 40
0.0
 40
0.0
 40
0.5
 40
0.5
 40
0.5
 40
1.0
 40
1.0
 40
1.0
 40
1.0
 10
-526.0783
 20
343.1923
 30
0.0
 10
-438.7833
 20
345.6881
 30
0.0
 10
-440.6248
 20
310.3425
 30
0.0
 10
-421.0854
 20
256.7684
 30
0.0
 10
-453.4759
 20
295.713
 30
0.0
 10
-489.7985
 20
323.9829
 30
0.0
 10
-526.0783
 20
343.1923
 30
0.0
  0
SPLINE
  5
86
330
1F
100
AcDbEntity
  8
Layer 1
 62
   250
370
    20
100
AcDbSpline
210
0.0
220
0.0
230
1.0
 70
    11
 71
     3
 72
    20
 73
    16
 74
     0
 42
0.0000000001
 43
0.0000000001
 40
0.0
 40
0.0
 40
0.0
 40
0.0
 40
0.2
 40
0.2
 40
0.2
 40
0.4
 40
0.4
 40
0.4
 40
0.6000000000000001
 40
0.6000000000000001
 40
0.6000000000000001
 40
0.8
 40
0.8
 40
0.8
 40
1.0
 40
1.0
 40
1.0
 40
1.0
 10
-458.3215
 20
-240.8378
 30
0.0
 10
-520.2565
 20
-305.1541
 30
0.0
 10
-596.3269
 20
-350.2216
 30
0.0
 10
-685.8001
 20
-337.1817
 30
0.0
 10
-678.8563
 20
-335.6035
 30
0.0
 10
-673.3
 20
-330.0406
 30
0.0
 10
-672.4543
 20
-321.1254
 30
0.0
 10
-694.0962
 20
-321.0321
 30
0.0
 10
-691.0615
 20
-285.6668
 30
0.0
 10
-659.1096
 20
-280.4077
 30
0.0
 10
-618.2639
 20
-274.3387
 30
0.0
 10
-588.5397
 20
-254.7446
 30
0.0
 10
-577.8239
 20
-197.8276
 30
0.0
 10
-545.9764
 20
-238.2612
 30
0.0
 10
-499.0653
 20
-251.4525
 30
0.0
 10
-458.3215
 20
-240.8378
 30
0.0
  0
SPLINE
  5
87
330
1F
100
AcDbEntity
  8
Layer 1
 62
   250
370
    20
100
AcDbSpline
210
0.0
220
0.0
230
1.0
 70
    11
 71
     3
 72
    14
 73
    10
 74
     0
 42
0.0000000001
 43
0.0000000001
 40
0.0
 40
0.0
 40
0.0
 40
0.0
 40
0.3333333333333333
 40
0.3333333333333333
 40
0.3333333333333333
 40
0.6666666666666666
 40
0.6666666666666666
 40
0.6666666666666666
 40
1.0
 40
1.0
 40
1.0
 40
1.0
 10
-414.7656
 20
-101.7689
 30
0.0
 10
-392.9745
 20
-66.5582
 30
0.0
 10
-366.7655
 20
-37.0648
 30
0.0
 10
-324.7736
 20
-27.9858
 30
0.0
 10
-349.5371
 20
-75.2369
 30
0.0
 10
-374.0592
 20
-124.4396
 30
0.0
 10
-400.8286
 20
-163.8829
 30
0.0
 10
-396.7135
 20
-143.1782
 30
0.0
 10
-401.4923
 20
-117.9568
 30
0.0
 10
-414.7656
 20
-101.7689
 30
0.0
  0
SPLINE
  5
88
330
1F
100
AcDbEntity
  8
Layer 1
 62
   250
370
    20
100
AcDbSpline
210
0.0
220
0.0
230
1.0
 70
    11
 71
     3
 72
    17
 73
    13
 74
     0
 42
0.0000000001
 43
0.0000000001
 40
0.0
 40
0.0
 40
0.0
 40
0.0
 40
0.25
 40
0.25
 40
0.25
 40
0.5
 40
0.5
 40
0.5
 40
0.75
 40
0.75
 40
0.75
 40
1.0
 40
1.0
 40
1.0
 40
1.0
 10
-588.5134
 20
-128.4689
 30
0.0
 10
-563.0545
 20
-131.2
 30
0.0
 10
-538.3043
 20
-127.3863
 30
0.0
 10
-514.5893
 20
-116.7179
 30
0.0
 10
-530.7264
 20
-186.8106
 30
0.0
 10
-463.1266
 20
-194.2316
 30
0.0
 10
-460.9451
 20
-155.6821
 30
0.0
 10
-498.7878
 20
-155.8895
 30
0.0
 10
-479.596
 20
-98.7837
 30
0.0
 10
-449.8236
 20
-124.7589
 30
0.0
 10
-394.758
 20
-178.6886
 30
0.0
 10
-504.6622
 20
-279.7098
 30
0.0
 10
-588.5134
 20
-128.4689
 30
0.0
  0
SPLINE
  5
89
330
1F
100
AcDbEntity
  8
Layer 1
 62
   250
370
    20
100
AcDbSpline
210
0.0
220
0.0
230
1.0
 70
    11
 71
     3
 72
    23
 73
    19
 74
     0
 42
0.0000000001
 43
0.0000000001
 40
0.0
 40
0.0
 40
0.0
 40
0.0
 40
0.1666666666666667
 40
0.1666666666666667
 40
0.1666666666666667
 40
0.3333333333333333
 40
0.3333333333333333
 40
0.3333333333333333
 40
0.5
 40
0.5
 40
0.5
 40
0.6666666666666666
 40
0.6666666666666666
 40
0.6666666666666666
 40
0.8333333333333333
 40
0.8333333333333333
 40
0.8333333333333333
 40
1.0
 40
1.0
 40
1.0
 40
1.0
 10
-647.4222
 20
72.5036
 30
0.0
 10
-658.3584
 20
48.9578
 30
0.0
 10
-656.4433
 20
16.9966
 30
0.0
 10
-632.5737
 20
-0.0582
 30
0.0
 10
-656.4433
 20
-17.115
 30
0.0
 10
-658.3584
 20
-49.0752
 30
0.0
 10
-647.4222
 20
-72.6219
 30
0.0
 10
-669.7738
 20
-63.2639
 30
0.0
 10
-692.7637
 20
-62.6594
 30
0.0
 10
-716.392
 20
-68.0938
 30
0.0
 10
-742.057
 20
-52.2075
 30
0.0
 10
-761.774
 20
-29.227
 30
0.0
 10
-762.8511
 20
-0.0582
 30
0.0
 10
-761.774
 20
29.1096
 30
0.0
 10
-742.057
 20
52.0891
 30
0.0
 10
-716.392
 20
67.9754
 30
0.0
 10
-692.7637
 20
62.5421
 30
0.0
 10
-669.7738
 20
63.1455
 30
0.0
 10
-647.4222
 20
72.5036
 30
0.0
  0
SPLINE
  5
8A
330
1F
100
AcDbEntity
  8
Layer 1
 62
   250
370
    20
100
AcDbSpline
210
0.0
220
0.0
230
1.0
 70
    11
 71
     3
 72
    17
 73
    13
 74
     0
 42
0.0000000001
 43
0.0000000001
 40
0.0
 40
0.0
 40
0.0
 40
0.0
 40
0.25
 40
0.25
 40
0.25
 40
0.5
 40
0.5
 40
0.5
 40
0.75
 40
0.75
 40
0.75
 40
1.0
 40
1.0
 40
1.0
 40
1.0
 10
-514.5893
 20
116.6005
 30
0.0
 10
-538.3043
 20
127.2689
 30
0.0
 10
-563.0545
 20
131.0826
 30
0.0
 10
-588.5134
 20
128.3515
 30
0.0
 10
-504.6622
 20
279.5924
 30
0.0
 10
-394.758
 20
178.5712
 30
0.0
 10
-449.8236
 20
124.6405
 30
0.0
 10
-479.596
 20
98.6663
 30
0.0
 10
-498.7878
 20
155.7721
 30
0.0
 10
-460.9451
 20
155.5637
 30
0.0
 10
-463.1266
 20
194.1143
 30
0.0
 10
-530.7264
 20
186.6932
 30
0.0
 10
-514.5893
 20
116.6005
 30
0.0
  0
SPLINE
  5
8B
330
1F
100
AcDbEntity
  8
Layer 1
 62
   250
370
    20
100
AcDbSpline
210
0.0
220
0.0
230
1.0
 70
    11
 71
     3
 72
    14
 73
    10
 74
     0
 42
0.0000000001
 43
0.0000000001
 40
0.0
 40
0.0
 40
0.0
 40
0.0
 40
0.3333333333333333
 40
0.3333333333333333
 40
0.3333333333333333
 40
0.6666666666666666
 40
0.6666666666666666
 40
0.6666666666666666
 40
1.0
 40
1.0
 40
1.0
 40
1.0
 10
-400.8286
 20
163.7644
 30
0.0
 10
-374.0592
 20
124.3222
 30
0.0
 10
-349.5371
 20
75.1196
 30
0.0
 10
-324.7736
 20
27.8684
 30
0.0
 10
-366.7655
 20
36.9464
 30
0.0
 10
-392.9745
 20
66.4408
 30
0.0
 10
-414.7656
 20
101.6515
 30
0.0
 10
-401.4923
 20
117.8384
 30
0.0
 10
-396.7135
 20
143.0608
 30
0.0
 10
-400.8286
 20
163.7644
 30
0.0
  0
SPLINE
  5
8C
330
1F
100
AcDbEntity
  8
Layer 1
 62
   250
370
    20
100
AcDbSpline
210
0.0
220
0.0
230
1.0
 70
    11
 71
     3
 72
    20
 73
    16
 74
     0
 42
0.0000000001
 43
0.0000000001
 40
0.0
 40
0.0
 40
0.0
 40
0.0
 40
0.2
 40
0.2
 40
0.2
 40
0.4
 40
0.4
 40
0.4
 40
0.6000000000000001
 40
0.6000000000000001
 40
0.6000000000000001
 40
0.8
 40
0.8
 40
0.8
 40
1.0
 40
1.0
 40
1.0
 40
1.0
 10
-685.8001
 20
337.0643
 30
0.0
 10
-596.3269
 20
350.1042
 30
0.0
 10
-520.2565
 20
305.0357
 30
0.0
 10
-458.3215
 20
240.7204
 30
0.0
 10
-499.0653
 20
251.3341
 30
0.0
 10
-545.9764
 20
238.1438
 30
0.0
 10
-577.8239
 20
197.7092
 30
0.0
 10
-588.5397
 20
254.6273
 30
0.0
 10
-618.2639
 20
274.2203
 30
0.0
 10
-659.1096
 20
280.2903
 30
0.0
 10
-691.0615
 20
285.5495
 30
0.0
 10
-694.0962
 20
320.9147
 30
0.0
 10
-672.4543
 20
321.007
 30
0.0
 10
-673.3
 20
329.9232
 30
0.0
 10
-678.8563
 20
335.4851
 30
0.0
 10
-685.8001
 20
337.0643
 30
0.0
  0
SPLINE
  5
8D
330
1F
100
AcDbEntity
  8
Layer 1
 62
   250
370
    20
100
AcDbSpline
210
0.0
220
0.0
230
1.0
 70
    11
 71
     3
 72
    11
 73
     7
 74
     0
 42
0.0000000001
 43
0.0000000001
 40
0.0
 40
0.0
 40
0.0
 40
0.0
 40
0.5
 40
0.5
 40
0.5
 40
1.0
 40
1.0
 40
1.0
 40
1.0
 10
420.9856
 20
256.7684
 30
0.0
 10
440.5249
 20
310.3425
 30
0.0
 10
438.6834
 20
345.6881
 30
0.0
 10
525.9783
 20
343.1923
 30
0.0
 10
489.6986
 20
323.9829
 30
0.0
 10
453.376
 20
295.713
 30
0.0
 10
420.9856
 20
256.7684
 30
0.0
  0
SPLINE
  5
8E
330
1F
100
AcDbEntity
  8
Layer 1
 62
   250
370
    20
100
AcDbSpline
210
0.0
220
0.0
230
1.0
 70
    11
 71
     3
 72
    14
 73
    10
 74
     0
 42
0.0000000001
 43
0.0000000001
 40
0.0
 40
0.0
 40
0.0
 40
0.0
 40
0.3333333333333333
 40
0.3333333333333333
 40
0.3333333333333333
 40
0.6666666666666666
 40
0.6666666666666666
 40
0.6666666666666666
 40
1.0
 40
1.0
 40
1.0
 40
1.0
 10
389.1323
 20
-17.4053
 30
0.0
 10
419.5882
 20
-23.6205
 30
0.0
 10
445.5426
 20
-44.8145
 30
0.0
 10
467.2482
 20
-71.0293
 30
0.0
 10
458.4651
 20
-71.3486
 30
0.0
 10
449.6809
 20
-73.5841
 30
0.0
 10
440.8967
 20
-77.7379
 30
0.0
 10
428.3538
 20
-54.89
 30
0.0
 10
409.7838
 20
-33.4087
 30
0.0
 10
389.1323
 20
-17.4053
 30
0.0
  0
SPLINE
  5
8F
330
1F
100
AcDbEntity
  8
Layer 1
 62
   250
370
    20
100
AcDbSpline
210
0.0
220
0.0
230
1.0
 70
    11
 71
     3
 72
    14
 73
    10
 74
     0
 42
0.0000000001
 43
0.0000000001
 40
0.0
 40
0.0
 40
0.0
 40
0.0
 40
0.3333333333333333
 40
0.3333333333333333
 40
0.3333333333333333
 40
0.6666666666666666
 40
0.6666666666666666
 40
0.6666666666666666
 40
1.0
 40
1.0
 40
1.0
 40
1.0
 10
320.96
 20
-423.1617
 30
0.0
 10
366.0251
 20
-406.3236
 30
0.0
 10
394.9739
 20
-363.9137
 30
0.0
 10
405.3419
 20
-304.9571
 30
0.0
 10
413.4
 20
-327.0844
 30
0.0
 10
422.3301
 20
-349.2106
 30
0.0
 10
433.6742
 20
-371.3379
 30
0.0
 10
414.4804
 20
-418.9177
 30
0.0
 10
387.995
 20
-424.1105
 30
0.0
 10
320.96
 20
-423.1617
 30
0.0
  0
SPLINE
  5
90
330
1F
100
AcDbEntity
  8
Layer 1
 62
   250
370
    20
100
AcDbSpline
210
0.0
220
0.0
230
1.0
 70
    11
 71
     3
 72
    14
 73
    10
 74
     0
 42
0.0000000001
 43
0.0000000001
 40
0.0
 40
0.0
 40
0.0
 40
0.0
 40
0.3333333333333333
 40
0.3333333333333333
 40
0.3333333333333333
 40
0.6666666666666666
 40
0.6666666666666666
 40
0.6666666666666666
 40
1.0
 40
1.0
 40
1.0
 40
1.0
 10
-321.06
 20
-423.1617
 30
0.0
 10
-388.0949
 20
-424.1105
 30
0.0
 10
-414.5802
 20
-418.9177
 30
0.0
 10
-433.7742
 20
-371.3379
 30
0.0
 10
-422.43
 20
-349.2106
 30
0.0
 10
-413.4999
 20
-327.0844
 30
0.0
 10
-405.4418
 20
-304.9571
 30
0.0
 10
-395.0739
 20
-363.9137
 30
0.0
 10
-366.125
 20
-406.3236
 30
0.0
 10
-321.06
 20
-423.1617
 30
0.0
  0
SPLINE
  5
91
330
1F
100
AcDbEntity
  8
Layer 1
 62
   250
370
    20
100
AcDbSpline
210
0.0
220
0.0
230
1.0
 70
    11
 71
     3
 72
    23
 73
    19
 74
     0
 42
0.0000000001
 43
0.0000000001
 40
0.0
 40
0.0
 40
0.0
 40
0.0
 40
0.1666666666666667
 40
0.1666666666666667
 40
0.1666666666666667
 40
0.3333333333333333
 40
0.3333333333333333
 40
0.3333333333333333
 40
0.5
 40
0.5
 40
0.5
 40
0.6666666666666666
 40
0.6666666666666666
 40
0.6666666666666666
 40
0.8333333333333333
 40
0.8333333333333333
 40
0.8333333333333333
 40
1.0
 40
1.0
 40
1.0
 40
1.0
 10
-98.5114
 20
-421.6603
 30
0.0
 10
-136.5899
 20
-421.6603
 30
0.0
 10
-174.6707
 20
-421.6603
 30
0.0
 10
-212.7503
 20
-421.6603
 30
0.0
 10
-170.3055
 20
-398.5013
 30
0.0
 10
-162.7858
 20
-362.2734
 30
0.0
 10
-135.6216
 20
-331.5482
 30
0.0
 10
-62.859
 20
-264.8232
 30
0.0
 10
-11.9271
 20
-337.5093
 30
0.0
 10
-37.3937
 20
-376.26
 30
0.0
 10
-76.9275
 20
-423.2654
 30
0.0
 10
-104.3343
 20
-360.6683
 30
0.0
 10
-69.408
 20
-365.9418
 30
0.0
 10
-54.6133
 20
-346.2223
 30
0.0
 10
-84.6886
 20
-325.3569
 30
0.0
 10
-109.4278
 20
-348.744
 30
0.0
 10
-124.9036
 20
-370.8225
 30
0.0
 10
-121.6352
 20
-407.1698
 30
0.0
 10
-98.5114
 20
-421.6603
 30
0.0
  0
SPLINE
  5
92
330
1F
100
AcDbEntity
  8
Layer 1
 62
   250
370
    20
100
AcDbSpline
210
0.0
220
0.0
230
1.0
 70
    11
 71
     3
 72
    14
 73
    10
 74
     0
 42
0.0000000001
 43
0.0000000001
 40
0.0
 40
0.0
 40
0.0
 40
0.0
 40
0.3333333333333333
 40
0.3333333333333333
 40
0.3333333333333333
 40
0.6666666666666666
 40
0.6666666666666666
 40
0.6666666666666666
 40
1.0
 40
1.0
 40
1.0
 40
1.0
 10
38.6483
 20
-423.6397
 30
0.0
 10
12.8484
 20
-423.6397
 30
0.0
 10
-12.9493
 20
-423.6397
 30
0.0
 10
-38.7482
 20
-423.6397
 30
0.0
 10
-20.1202
 20
-416.8657
 30
0.0
 10
-0.062
 20
-387.5113
 30
0.0
 10
-0.05
 20
-356.3506
 30
0.0
 10
-0.0379
 20
-387.5113
 30
0.0
 10
20.0203
 20
-416.8657
 30
0.0
 10
38.6483
 20
-423.6397
 30
0.0
  0
SPLINE
  5
93
330
1F
100
AcDbEntity
  8
Layer 1
 62
   250
370
    20
100
AcDbSpline
210
0.0
220
0.0
230
1.0
 70
    11
 71
     3
 72
    23
 73
    19
 74
     0
 42
0.0000000001
 43
0.0000000001
 40
0.0
 40
0.0
 40
0.0
 40
0.0
 40
0.1666666666666667
 40
0.1666666666666667
 40
0.1666666666666667
 40
0.3333333333333333
 40
0.3333333333333333
 40
0.3333333333333333
 40
0.5
 40
0.5
 40
0.5
 40
0.6666666666666666
 40
0.6666666666666666
 40
0.6666666666666666
 40
0.8333333333333333
 40
0.8333333333333333
 40
0.8333333333333333
 40
1.0
 40
1.0
 40
1.0
 40
1.0
 10
37.2938
 20
-376.26
 30
0.0
 10
11.8272
 20
-337.5093
 30
0.0
 10
62.7602
 20
-264.8232
 30
0.0
 10
135.5216
 20
-331.5482
 30
0.0
 10
162.6859
 20
-362.2734
 30
0.0
 10
170.2056
 20
-398.5013
 30
0.0
 10
212.6504
 20
-421.6603
 30
0.0
 10
174.5708
 20
-421.6603
 30
0.0
 10
136.4899
 20
-421.6603
 30
0.0
 10
98.4115
 20
-421.6603
 30
0.0
 10
121.5352
 20
-407.1698
 30
0.0
 10
124.8037
 20
-370.8225
 30
0.0
 10
109.328
 20
-348.744
 30
0.0
 10
84.5886
 20
-325.3569
 30
0.0
 10
54.5135
 20
-346.2223
 30
0.0
 10
69.3081
 20
-365.9418
 30
0.0
 10
104.2343
 20
-360.6683
 30
0.0
 10
76.8277
 20
-423.2654
 30
0.0
 10
37.2938
 20
-376.26
 30
0.0
  0
SPLINE
  5
94
330
1F
100
AcDbEntity
  8
Layer 1
 62
   250
370
    20
100
AcDbSpline
210
0.0
220
0.0
230
1.0
 70
    11
 71
     3
 72
    17
 73
    13
 74
     0
 42
0.0000000001
 43
0.0000000001
 40
0.0
 40
0.0
 40
0.0
 40
0.0
 40
0.25
 40
0.25
 40
0.25
 40
0.5
 40
0.5
 40
0.5
 40
0.75
 40
0.75
 40
0.75
 40
1.0
 40
1.0
 40
1.0
 40
1.0
 10
711.1052
 20
-267.7752
 30
0.0
 10
745.14
 20
-261.528
 30
0.0
 10
741.4591
 20
-216.0572
 30
0.0
 10
769.0829
 20
-207.3131
 30
0.0
 10
772.2658
 20
-255.4766
 30
0.0
 10
753.3198
 20
-296.0907
 30
0.0
 10
718.2772
 20
-322.0223
 30
0.0
 10
720.8328
 20
-315.4308
 30
0.0
 10
719.6153
 20
-307.4114
 30
0.0
 10
713.4952
 20
-302.2447
 30
0.0
 10
720.9337
 20
-292.7758
 30
0.0
 10
720.7648
 20
-279.9795
 30
0.0
 10
711.1052
 20
-267.7752
 30
0.0
  0
SPLINE
  5
95
330
1F
100
AcDbEntity
  8
Layer 1
 62
   250
370
    20
100
AcDbSpline
210
0.0
220
0.0
230
1.0
 70
    11
 71
     3
 72
    17
 73
    13
 74
     0
 42
0.0000000001
 43
0.0000000001
 40
0.0
 40
0.0
 40
0.0
 40
0.0
 40
0.25
 40
0.25
 40
0.25
 40
0.5
 40
0.5
 40
0.5
 40
0.75
 40
0.75
 40
0.75
 40
1.0
 40
1.0
 40
1.0
 40
1.0
 10
625.9566
 20
-223.4233
 30
0.0
 10
563.5853
 20
-124.9362
 30
0.0
 10
725.6225
 20
-34.4456
 30
0.0
 10
765.8112
 20
-189.3033
 30
0.0
 10
747.4651
 20
-177.0026
 30
0.0
 10
727.3137
 20
-176.5755
 30
0.0
 10
708.0648
 20
-191.009
 30
0.0
 10
689.5675
 20
-141.6758
 30
0.0
 10
639.6413
 20
-167.6934
 30
0.0
 10
651.6722
 20
-198.6861
 30
0.0
 10
702.0874
 20
-196.5895
 30
0.0
 10
659.6041
 20
-262.3419
 30
0.0
 10
625.9566
 20
-223.4233
 30
0.0
  0
SPLINE
  5
96
330
1F
100
AcDbEntity
  8
Layer 1
 62
   250
370
    20
100
AcDbSpline
210
0.0
220
0.0
230
1.0
 70
    11
 71
     3
 72
    14
 73
    10
 74
     0
 42
0.0000000001
 43
0.0000000001
 40
0.0
 40
0.0
 40
0.0
 40
0.0
 40
0.3333333333333333
 40
0.3333333333333333
 40
0.3333333333333333
 40
0.6666666666666666
 40
0.6666666666666666
 40
0.6666666666666666
 40
1.0
 40
1.0
 40
1.0
 40
1.0
 10
473.4714
 20
-369.767
 30
0.0
 10
507.5226
 20
-376.7422
 30
0.0
 10
538.4599
 20
-372.9191
 30
0.0
 10
567.2639
 20
-361.7062
 30
0.0
 10
583.8804
 20
-368.3206
 30
0.0
 10
600.4958
 20
-373.281
 30
0.0
 10
617.1111
 20
-376.5877
 30
0.0
 10
588.4167
 20
-411.984
 30
0.0
 10
495.8274
 20
-424.9027
 30
0.0
 10
473.4714
 20
-369.767
 30
0.0
  0
SPLINE
  5
97
330
1F
100
AcDbEntity
  8
Layer 1
 62
   250
370
    20
100
AcDbSpline
210
0.0
220
0.0
230
1.0
 70
    11
 71
     3
 72
    17
 73
    13
 74
     0
 42
0.0000000001
 43
0.0000000001
 40
0.0
 40
0.0
 40
0.0
 40
0.0
 40
0.25
 40
0.25
 40
0.25
 40
0.5
 40
0.5
 40
0.5
 40
0.75
 40
0.75
 40
0.75
 40
1.0
 40
1.0
 40
1.0
 40
1.0
 10
786.7402
 20
-25.3656
 30
0.0
 10
896.5733
 20
-47.6505
 30
0.0
 10
1006.7188
 20
-70.1209
 30
0.0
 10
1116.552
 20
-92.4058
 30
0.0
 10
1197.1312
 20
-113.012
 30
0.0
 10
1170.6524
 20
-216.7871
 30
0.0
 10
1095.409
 20
-182.3146
 30
0.0
 10
991.7279
 20
-132.9368
 30
0.0
 10
887.539
 20
-83.558
 30
0.0
 10
783.859
 20
-34.1782
 30
0.0
 10
784.868
 20
-31.4075
 30
0.0
 10
785.9396
 20
-28.3341
 30
0.0
 10
786.7402
 20
-25.3656
 30
0.0
  0
SPLINE
  5
98
330
1F
100
AcDbEntity
  8
Layer 1
 62
   250
370
    20
100
AcDbSpline
210
0.0
220
0.0
230
1.0
 70
    11
 71
     3
 72
    20
 73
    16
 74
     0
 42
0.0000000001
 43
0.0000000001
 40
0.0
 40
0.0
 40
0.0
 40
0.0
 40
0.2
 40
0.2
 40
0.2
 40
0.4
 40
0.4
 40
0.4
 40
0.6000000000000001
 40
0.6000000000000001
 40
0.6000000000000001
 40
0.8
 40
0.8
 40
0.8
 40
1.0
 40
1.0
 40
1.0
 40
1.0
 10
751.9729
 20
-78.1486
 30
0.0
 10
829.6808
 20
-151.576
 30
0.0
 10
907.3876
 20
-225.0035
 30
0.0
 10
985.0945
 20
-298.431
 30
0.0
 10
1020.7534
 20
-335.3982
 30
0.0
 10
972.635
 20
-381.3232
 30
0.0
 10
935.5534
 20
-331.6063
 30
0.0
 10
889.9102
 20
-275.6628
 30
0.0
 10
841.4374
 20
-213.4774
 30
0.0
 10
795.7944
 20
-157.5329
 30
0.0
 10
786.1073
 20
-128.6089
 30
0.0
 10
767.6494
 20
-105.3088
 30
0.0
 10
741.051
 20
-86.001
 30
0.0
 10
745.0653
 20
-83.4429
 30
0.0
 10
748.2866
 20
-81.2218
 30
0.0
 10
751.9729
 20
-78.1486
 30
0.0
  0
SPLINE
  5
99
330
1F
100
AcDbEntity
  8
Layer 1
 62
   250
370
    20
100
AcDbSpline
210
0.0
220
0.0
230
1.0
 70
    11
 71
     3
 72
    23
 73
    19
 74
     0
 42
0.0000000001
 43
0.0000000001
 40
0.0
 40
0.0
 40
0.0
 40
0.0
 40
0.1666666666666667
 40
0.1666666666666667
 40
0.1666666666666667
 40
0.3333333333333333
 40
0.3333333333333333
 40
0.3333333333333333
 40
0.5
 40
0.5
 40
0.5
 40
0.6666666666666666
 40
0.6666666666666666
 40
0.6666666666666666
 40
0.8333333333333333
 40
0.8333333333333333
 40
0.8333333333333333
 40
1.0
 40
1.0
 40
1.0
 40
1.0
 10
-96.4088
 20
-458.3974
 30
0.0
 10
-118.2066
 20
-472.9419
 30
0.0
 10
-126.2099
 20
-492.6178
 30
0.0
 10
-126.144
 20
-508.2719
 30
0.0
 10
-219.5055
 20
-508.389
 30
0.0
 10
-312.8668
 20
-508.5072
 30
0.0
 10
-406.2282
 20
-508.6254
 30
0.0
 10
-445.5506
 20
-507.8592
 30
0.0
 10
-475.5478
 20
-491.5966
 30
0.0
 10
-493.5155
 20
-461.1171
 30
0.0
 10
-479.2407
 20
-445.9318
 30
0.0
 10
-466.7713
 20
-429.6102
 30
0.0
 10
-456.1071
 20
-412.15
 30
0.0
 10
-438.2689
 20
-444.2179
 30
0.0
 10
-414.906
 20
-461.1617
 30
0.0
 10
-358.2709
 20
-458.3974
 30
0.0
 10
-270.9835
 20
-458.3974
 30
0.0
 10
-183.6962
 20
-458.3974
 30
0.0
 10
-96.4088
 20
-458.3974
 30
0.0
  0
SPLINE
  5
9A
330
1F
100
AcDbEntity
  8
Layer 1
 62
   250
370
    20
100
AcDbSpline
210
0.0
220
0.0
230
1.0
 70
    11
 71
     3
 72
    17
 73
    13
 74
     0
 42
0.0000000001
 43
0.0000000001
 40
0.0
 40
0.0
 40
0.0
 40
0.0
 40
0.25
 40
0.25
 40
0.25
 40
0.5
 40
0.5
 40
0.5
 40
0.75
 40
0.75
 40
0.75
 40
1.0
 40
1.0
 40
1.0
 40
1.0
 10
774.3794
 20
-53.0413
 30
0.0
 10
872.2957
 20
-105.5431
 30
0.0
 10
970.2132
 20
-158.0452
 30
0.0
 10
1068.1307
 20
-210.5472
 30
0.0
 10
1131.5386
 20
-261.9635
 30
0.0
 10
1072.8194
 20
-317.2941
 30
0.0
 10
1016.4529
 20
-270.2586
 30
0.0
 10
932.6502
 20
-201.9917
 30
0.0
 10
848.8485
 20
-133.727
 30
0.0
 10
765.0468
 20
-65.4601
 30
0.0
 10
768.336
 20
-61.5749
 30
0.0
 10
771.4159
 20
-57.391
 30
0.0
 10
774.3794
 20
-53.0413
 30
0.0
  0
SPLINE
  5
9B
330
1F
100
AcDbEntity
  8
Layer 1
 62
   250
370
    20
100
AcDbSpline
210
0.0
220
0.0
230
1.0
 70
    11
 71
     3
 72
    14
 73
    10
 74
     0
 42
0.0000000001
 43
0.0000000001
 40
0.0
 40
0.0
 40
0.0
 40
0.0
 40
0.3333333333333333
 40
0.3333333333333333
 40
0.3333333333333333
 40
0.6666666666666666
 40
0.6666666666666666
 40
0.6666666666666666
 40
1.0
 40
1.0
 40
1.0
 40
1.0
 10
658.4328
 20
-378.4478
 30
0.0
 10
674.174
 20
-378.3452
 30
0.0
 10
689.9151
 20
-374.8312
 30
0.0
 10
705.6564
 20
-369.767
 30
0.0
 10
686.4724
 20
-468.2022
 30
0.0
 10
557.8085
 20
-494.1421
 30
0.0
 10
518.7274
 20
-434.8744
 30
0.0
 10
578.0893
 20
-444.9053
 30
0.0
 10
625.7494
 20
-420.9282
 30
0.0
 10
658.4328
 20
-378.4478
 30
0.0
  0
SPLINE
  5
9C
330
1F
100
AcDbEntity
  8
Layer 1
 62
   250
370
    20
100
AcDbSpline
210
0.0
220
0.0
230
1.0
 70
    11
 71
     3
 72
    23
 73
    19
 74
     0
 42
0.0000000001
 43
0.0000000001
 40
0.0
 40
0.0
 40
0.0
 40
0.0
 40
0.1666666666666667
 40
0.1666666666666667
 40
0.1666666666666667
 40
0.3333333333333333
 40
0.3333333333333333
 40
0.3333333333333333
 40
0.5
 40
0.5
 40
0.5
 40
0.6666666666666666
 40
0.6666666666666666
 40
0.6666666666666666
 40
0.8333333333333333
 40
0.8333333333333333
 40
0.8333333333333333
 40
1.0
 40
1.0
 40
1.0
 40
1.0
 10
578.5982
 20
-495.6933
 30
0.0
 10
668.4575
 20
-501.4107
 30
0.0
 10
742.2268
 20
-422.3384
 30
0.0
 10
743.5594
 20
-344.1091
 30
0.0
 10
788.9864
 20
-309.4106
 30
0.0
 10
845.9496
 20
-334.4743
 30
0.0
 10
868.9296
 20
-350.9702
 30
0.0
 10
858.5923
 20
-352.2176
 30
0.0
 10
851.7736
 20
-355.3366
 30
0.0
 10
848.4744
 20
-367.8134
 30
0.0
 10
878.1691
 20
-381.6425
 30
0.0
 10
848.9165
 20
-410.5469
 30
0.0
 10
811.5234
 20
-401.499
 30
0.0
 10
760.4961
 20
-392.5579
 30
0.0
 10
703.9684
 20
-457.2256
 30
0.0
 10
731.022
 20
-535.6167
 30
0.0
 10
674.9845
 20
-545.0545
 30
0.0
 10
625.8285
 20
-524.5635
 30
0.0
 10
578.5982
 20
-495.6933
 30
0.0
  0
SPLINE
  5
9D
330
1F
100
AcDbEntity
  8
Layer 1
 62
   250
370
    20
100
AcDbSpline
210
0.0
220
0.0
230
1.0
 70
    11
 71
     3
 72
    32
 73
    28
 74
     0
 42
0.0000000001
 43
0.0000000001
 40
0.0
 40
0.0
 40
0.0
 40
0.0
 40
0.1111111111111111
 40
0.1111111111111111
 40
0.1111111111111111
 40
0.2222222222222222
 40
0.2222222222222222
 40
0.2222222222222222
 40
0.3333333333333333
 40
0.3333333333333333
 40
0.3333333333333333
 40
0.4444444444444444
 40
0.4444444444444444
 40
0.4444444444444444
 40
0.5555555555555556
 40
0.5555555555555556
 40
0.5555555555555556
 40
0.6666666666666666
 40
0.6666666666666666
 40
0.6666666666666666
 40
0.7777777777777777
 40
0.7777777777777777
 40
0.7777777777777777
 40
0.8888888888888888
 40
0.8888888888888888
 40
0.8888888888888888
 40
1.0
 40
1.0
 40
1.0
 40
1.0
 10
518.3798
 20
-495.261
 30
0.0
 10
537.2161
 20
-510.8765
 30
0.0
 10
556.0536
 20
-524.5542
 30
0.0
 10
574.8888
 20
-533.9743
 30
0.0
 10
561.9379
 20
-557.7399
 30
0.0
 10
543.7574
 20
-575.9031
 30
0.0
 10
521.7228
 20
-589.9373
 30
0.0
 10
521.7228
 20
-589.9373
 30
0.0
 10
70.0012
 20
-590.0182
 30
0.0
 10
70.0012
 20
-590.0182
 30
0.0
 10
-12.4196
 20
-532.3785
 30
0.0
 10
54.724
 20
-452.9817
 30
0.0
 10
88.4153
 20
-499.1327
 30
0.0
 10
96.003
 20
-513.0447
 30
0.0
 10
93.0712
 20
-521.628
 30
0.0
 10
86.757
 20
-524.5282
 30
0.0
 10
74.4289
 20
-510.2274
 30
0.0
 10
53.4615
 20
-521.3283
 30
0.0
 10
57.2937
 20
-543.2648
 30
0.0
 10
60.5831
 20
-566.4363
 30
0.0
 10
105.3246
 20
-572.2708
 30
0.0
 10
117.079
 20
-544.0394
 30
0.0
 10
206.3493
 20
-544.0394
 30
0.0
 10
295.6174
 20
-544.0394
 30
0.0
 10
384.8866
 20
-544.0394
 30
0.0
 10
466.4147
 20
-546.5041
 30
0.0
 10
494.18
 20
-529.9595
 30
0.0
 10
518.3798
 20
-495.261
 30
0.0
  0
SPLINE
  5
9E
330
1F
100
AcDbEntity
  8
Layer 1
 62
   250
370
    20
100
AcDbSpline
210
0.0
220
0.0
230
1.0
 70
    11
 71
     3
 72
    23
 73
    19
 74
     0
 42
0.0000000001
 43
0.0000000001
 40
0.0
 40
0.0
 40
0.0
 40
0.0
 40
0.1666666666666667
 40
0.1666666666666667
 40
0.1666666666666667
 40
0.3333333333333333
 40
0.3333333333333333
 40
0.3333333333333333
 40
0.5
 40
0.5
 40
0.5
 40
0.6666666666666666
 40
0.6666666666666666
 40
0.6666666666666666
 40
0.8333333333333333
 40
0.8333333333333333
 40
0.8333333333333333
 40
1.0
 40
1.0
 40
1.0
 40
1.0
 10
96.3089
 20
-458.3974
 30
0.0
 10
183.5963
 20
-458.3974
 30
0.0
 10
270.8837
 20
-458.3974
 30
0.0
 10
358.1709
 20
-458.3974
 30
0.0
 10
414.8061
 20
-461.1617
 30
0.0
 10
438.17
 20
-444.2179
 30
0.0
 10
456.0072
 20
-412.15
 30
0.0
 10
466.6713
 20
-429.6102
 30
0.0
 10
479.1419
 20
-445.9318
 30
0.0
 10
493.4156
 20
-461.1171
 30
0.0
 10
475.449
 20
-491.5966
 30
0.0
 10
445.4506
 20
-507.8592
 30
0.0
 10
406.1283
 20
-508.6254
 30
0.0
 10
312.7669
 20
-508.5072
 30
0.0
 10
219.4055
 20
-508.389
 30
0.0
 10
126.0442
 20
-508.2719
 30
0.0
 10
126.1111
 20
-492.6178
 30
0.0
 10
118.1077
 20
-472.9419
 30
0.0
 10
96.3089
 20
-458.3974
 30
0.0
  0
SPLINE
  5
9F
330
1F
100
AcDbEntity
  8
Layer 1
 62
   250
370
    20
100
AcDbSpline
210
0.0
220
0.0
230
1.0
 70
    11
 71
     3
 72
    32
 73
    28
 74
     0
 42
0.0000000001
 43
0.0000000001
 40
0.0
 40
0.0
 40
0.0
 40
0.0
 40
0.1111111111111111
 40
0.1111111111111111
 40
0.1111111111111111
 40
0.2222222222222222
 40
0.2222222222222222
 40
0.2222222222222222
 40
0.3333333333333333
 40
0.3333333333333333
 40
0.3333333333333333
 40
0.4444444444444444
 40
0.4444444444444444
 40
0.4444444444444444
 40
0.5555555555555556
 40
0.5555555555555556
 40
0.5555555555555556
 40
0.6666666666666666
 40
0.6666666666666666
 40
0.6666666666666666
 40
0.7777777777777777
 40
0.7777777777777777
 40
0.7777777777777777
 40
0.8888888888888888
 40
0.8888888888888888
 40
0.8888888888888888
 40
1.0
 40
1.0
 40
1.0
 40
1.0
 10
-518.4797
 20
-495.261
 30
0.0
 10
-494.28
 20
-529.9595
 30
0.0
 10
-466.5146
 20
-546.5041
 30
0.0
 10
-384.9855
 20
-544.0394
 30
0.0
 10
-295.7174
 20
-544.0394
 30
0.0
 10
-206.4481
 20
-544.0394
 30
0.0
 10
-117.1788
 20
-544.0394
 30
0.0
 10
-105.4246
 20
-572.2708
 30
0.0
 10
-60.6829
 20
-566.4363
 30
0.0
 10
-57.3937
 20
-543.2648
 30
0.0
 10
-53.5604
 20
-521.3283
 30
0.0
 10
-74.5289
 20
-510.2274
 30
0.0
 10
-86.857
 20
-524.5282
 30
0.0
 10
-93.1711
 20
-521.628
 30
0.0
 10
-96.103
 20
-513.0447
 30
0.0
 10
-88.5153
 20
-499.1327
 30
0.0
 10
-54.8227
 20
-452.9817
 30
0.0
 10
12.3197
 20
-532.3785
 30
0.0
 10
-70.1
 20
-590.0182
 30
0.0
 10
-70.1
 20
-590.0182
 30
0.0
 10
-521.8227
 20
-589.9373
 30
0.0
 10
-521.8227
 20
-589.9373
 30
0.0
 10
-543.8574
 20
-575.9031
 30
0.0
 10
-562.0378
 20
-557.7399
 30
0.0
 10
-574.9888
 20
-533.9743
 30
0.0
 10
-556.1536
 20
-524.5542
 30
0.0
 10
-537.3161
 20
-510.8765
 30
0.0
 10
-518.4797
 20
-495.261
 30
0.0
  0
SPLINE
  5
A0
330
1F
100
AcDbEntity
  8
Layer 1
 62
   250
370
    20
100
AcDbSpline
210
0.0
220
0.0
230
1.0
 70
    11
 71
     3
 72
    14
 73
    10
 74
     0
 42
0.0000000001
 43
0.0000000001
 40
0.0
 40
0.0
 40
0.0
 40
0.0
 40
0.3333333333333333
 40
0.3333333333333333
 40
0.3333333333333333
 40
0.6666666666666666
 40
0.6666666666666666
 40
0.6666666666666666
 40
1.0
 40
1.0
 40
1.0
 40
1.0
 10
-440.9966
 20
77.6195
 30
0.0
 10
-428.4537
 20
54.7716
 30
0.0
 10
-409.8838
 20
33.2903
 30
0.0
 10
-389.2323
 20
17.2869
 30
0.0
 10
-419.6882
 20
23.5021
 30
0.0
 10
-445.6425
 20
44.6971
 30
0.0
 10
-467.3482
 20
70.9119
 30
0.0
 10
-458.5651
 20
71.2313
 30
0.0
 10
-449.7808
 20
73.4667
 30
0.0
 10
-440.9966
 20
77.6195
 30
0.0
  0
SPLINE
  5
A1
330
1F
100
AcDbEntity
  8
Layer 1
 62
   250
370
    20
100
AcDbSpline
210
0.0
220
0.0
230
1.0
 70
    11
 71
     3
 72
    14
 73
    10
 74
     0
 42
0.0000000001
 43
0.0000000001
 40
0.0
 40
0.0
 40
0.0
 40
0.0
 40
0.3333333333333333
 40
0.3333333333333333
 40
0.3333333333333333
 40
0.6666666666666666
 40
0.6666666666666666
 40
0.6666666666666666
 40
1.0
 40
1.0
 40
1.0
 40
1.0
 10
440.8967
 20
77.6195
 30
0.0
 10
449.6809
 20
73.4667
 30
0.0
 10
458.4651
 20
71.2313
 30
0.0
 10
467.2482
 20
70.9119
 30
0.0
 10
445.5426
 20
44.6971
 30
0.0
 10
419.5882
 20
23.5021
 30
0.0
 10
389.1323
 20
17.2869
 30
0.0
 10
409.7838
 20
33.2903
 30
0.0
 10
428.3538
 20
54.7716
 30
0.0
 10
440.8967
 20
77.6195
 30
0.0
  0
SPLINE
  5
A2
330
1F
100
AcDbEntity
  8
Layer 1
 62
   250
370
    20
100
AcDbSpline
210
0.0
220
0.0
230
1.0
 70
    11
 71
     3
 72
    14
 73
    10
 74
     0
 42
0.0000000001
 43
0.0000000001
 40
0.0
 40
0.0
 40
0.0
 40
0.0
 40
0.3333333333333333
 40
0.3333333333333333
 40
0.3333333333333333
 40
0.6666666666666666
 40
0.6666666666666666
 40
0.6666666666666666
 40
1.0
 40
1.0
 40
1.0
 40
1.0
 10
-389.2323
 20
-17.4053
 30
0.0
 10
-409.8838
 20
-33.4087
 30
0.0
 10
-428.4537
 20
-54.89
 30
0.0
 10
-440.9966
 20
-77.7379
 30
0.0
 10
-449.7808
 20
-73.5841
 30
0.0
 10
-458.5651
 20
-71.3486
 30
0.0
 10
-467.3482
 20
-71.0293
 30
0.0
 10
-445.6425
 20
-44.8145
 30
0.0
 10
-419.6882
 20
-23.6205
 30
0.0
 10
-389.2323
 20
-17.4053
 30
0.0
  0
SPLINE
  5
A3
330
1F
100
AcDbEntity
  8
Layer 1
 62
   250
370
    20
100
AcDbSpline
210
0.0
220
0.0
230
1.0
 70
    11
 71
     3
 72
    11
 73
     7
 74
     0
 42
0.0000000001
 43
0.0000000001
 40
0.0
 40
0.0
 40
0.0
 40
0.0
 40
0.5
 40
0.5
 40
0.5
 40
1.0
 40
1.0
 40
1.0
 40
1.0
 10
420.9856
 20
-256.8858
 30
0.0
 10
453.376
 20
-295.8315
 30
0.0
 10
489.6986
 20
-324.1002
 30
0.0
 10
525.9783
 20
-343.3097
 30
0.0
 10
438.6834
 20
-345.8054
 30
0.0
 10
440.5249
 20
-310.4609
 30
0.0
 10
420.9856
 20
-256.8858
 30
0.0
  0
SPLINE
  5
A4
330
1F
100
AcDbEntity
  8
Layer 1
 62
   250
370
    20
100
AcDbSpline
210
0.0
220
0.0
230
1.0
 70
    11
 71
     3
 72
    17
 73
    13
 74
     0
 42
0.0000000001
 43
0.0000000001
 40
0.0
 40
0.0
 40
0.0
 40
0.0
 40
0.25
 40
0.25
 40
0.25
 40
0.5
 40
0.5
 40
0.5
 40
0.75
 40
0.75
 40
0.75
 40
1.0
 40
1.0
 40
1.0
 40
1.0
 10
-711.2051
 20
267.6579
 30
0.0
 10
-745.2399
 20
261.4095
 30
0.0
 10
-741.559
 20
215.9398
 30
0.0
 10
-769.1829
 20
207.1957
 30
0.0
 10
-772.3657
 20
255.3582
 30
0.0
 10
-753.4197
 20
295.9733
 30
0.0
 10
-718.3771
 20
321.9049
 30
0.0
 10
-720.9326
 20
315.3123
 30
0.0
 10
-719.7152
 20
307.294
 30
0.0
 10
-713.5951
 20
302.1273
 30
0.0
 10
-721.0336
 20
292.6583
 30
0.0
 10
-720.8647
 20
279.8611
 30
0.0
 10
-711.2051
 20
267.6579
 30
0.0
  0
SPLINE
  5
A5
330
1F
100
AcDbEntity
  8
Layer 1
 62
   250
370
    20
100
AcDbSpline
210
0.0
220
0.0
230
1.0
 70
    11
 71
     3
 72
    20
 73
    16
 74
     0
 42
0.0000000001
 43
0.0000000001
 40
0.0
 40
0.0
 40
0.0
 40
0.0
 40
0.2
 40
0.2
 40
0.2
 40
0.4
 40
0.4
 40
0.4
 40
0.6000000000000001
 40
0.6000000000000001
 40
0.6000000000000001
 40
0.8
 40
0.8
 40
0.8
 40
1.0
 40
1.0
 40
1.0
 40
1.0
 10
-741.1509
 20
85.8836
 30
0.0
 10
-745.1642
 20
83.3245
 30
0.0
 10
-748.3865
 20
81.1045
 30
0.0
 10
-752.0728
 20
78.0302
 30
0.0
 10
-829.7807
 20
151.4576
 30
0.0
 10
-907.4875
 20
224.8851
 30
0.0
 10
-985.1944
 20
298.3136
 30
0.0
 10
-1020.8533
 20
335.2808
 30
0.0
 10
-972.7349
 20
381.2058
 30
0.0
 10
-935.6533
 20
331.4879
 30
0.0
 10
-890.0102
 20
275.5455
 30
0.0
 10
-841.5373
 20
213.3589
 30
0.0
 10
-795.8942
 20
157.4156
 30
0.0
 10
-786.2073
 20
128.4904
 30
0.0
 10
-767.7492
 20
105.1914
 30
0.0
 10
-741.1509
 20
85.8836
 30
0.0
  0
SPLINE
  5
A6
330
1F
100
AcDbEntity
  8
Layer 1
 62
   250
370
    20
100
AcDbSpline
210
0.0
220
0.0
230
1.0
 70
    11
 71
     3
 72
    17
 73
    13
 74
     0
 42
0.0000000001
 43
0.0000000001
 40
0.0
 40
0.0
 40
0.0
 40
0.0
 40
0.25
 40
0.25
 40
0.25
 40
0.5
 40
0.5
 40
0.5
 40
0.75
 40
0.75
 40
0.75
 40
1.0
 40
1.0
 40
1.0
 40
1.0
 10
-765.1456
 20
65.3428
 30
0.0
 10
-768.4359
 20
61.4565
 30
0.0
 10
-771.5157
 20
57.2736
 30
0.0
 10
-774.4781
 20
52.9239
 30
0.0
 10
-872.3956
 20
105.4248
 30
0.0
 10
-970.3132
 20
157.9278
 30
0.0
 10
-1068.2294
 20
210.4298
 30
0.0
 10
-1131.6385
 20
261.845
 30
0.0
 10
-1072.9194
 20
317.1757
 30
0.0
 10
-1016.5528
 20
270.1402
 30
0.0
 10
-932.75
 20
201.8743
 30
0.0
 10
-848.9473
 20
133.6085
 30
0.0
 10
-765.1456
 20
65.3428
 30
0.0
  0
SPLINE
  5
A7
330
1F
100
AcDbEntity
  8
Layer 1
 62
   250
370
    20
100
AcDbSpline
210
0.0
220
0.0
230
1.0
 70
    11
 71
     3
 72
    17
 73
    13
 74
     0
 42
0.0000000001
 43
0.0000000001
 40
0.0
 40
0.0
 40
0.0
 40
0.0
 40
0.25
 40
0.25
 40
0.25
 40
0.5
 40
0.5
 40
0.5
 40
0.75
 40
0.75
 40
0.75
 40
1.0
 40
1.0
 40
1.0
 40
1.0
 10
-626.0566
 20
223.3059
 30
0.0
 10
-563.6852
 20
124.8177
 30
0.0
 10
-725.7224
 20
34.3283
 30
0.0
 10
-765.9112
 20
189.1849
 30
0.0
 10
-747.565
 20
176.8852
 30
0.0
 10
-727.4136
 20
176.4581
 30
0.0
 10
-708.1648
 20
190.8916
 30
0.0
 10
-689.6674
 20
141.5584
 30
0.0
 10
-639.7413
 20
167.575
 30
0.0
 10
-651.7721
 20
198.5687
 30
0.0
 10
-702.1873
 20
196.4711
 30
0.0
 10
-659.7041
 20
262.2235
 30
0.0
 10
-626.0566
 20
223.3059
 30
0.0
  0
SPLINE
  5
A8
330
1F
100
AcDbEntity
  8
Layer 1
 62
   250
370
    20
100
AcDbSpline
210
0.0
220
0.0
230
1.0
 70
    11
 71
     3
 72
    17
 73
    13
 74
     0
 42
0.0000000001
 43
0.0000000001
 40
0.0
 40
0.0
 40
0.0
 40
0.0
 40
0.25
 40
0.25
 40
0.25
 40
0.5
 40
0.5
 40
0.5
 40
0.75
 40
0.75
 40
0.75
 40
1.0
 40
1.0
 40
1.0
 40
1.0
 10
-711.2051
 20
-267.7752
 30
0.0
 10
-720.8647
 20
-279.9795
 30
0.0
 10
-721.0336
 20
-292.7758
 30
0.0
 10
-713.5951
 20
-302.2447
 30
0.0
 10
-719.7152
 20
-307.4114
 30
0.0
 10
-720.9326
 20
-315.4308
 30
0.0
 10
-718.3771
 20
-322.0223
 30
0.0
 10
-753.4197
 20
-296.0907
 30
0.0
 10
-772.3657
 20
-255.4766
 30
0.0
 10
-769.1829
 20
-207.3131
 30
0.0
 10
-741.559
 20
-216.0572
 30
0.0
 10
-745.2399
 20
-261.528
 30
0.0
 10
-711.2051
 20
-267.7752
 30
0.0
  0
SPLINE
  5
A9
330
1F
100
AcDbEntity
  8
Layer 1
 62
   250
370
    20
100
AcDbSpline
210
0.0
220
0.0
230
1.0
 70
    11
 71
     3
 72
    17
 73
    13
 74
     0
 42
0.0000000001
 43
0.0000000001
 40
0.0
 40
0.0
 40
0.0
 40
0.0
 40
0.25
 40
0.25
 40
0.25
 40
0.5
 40
0.5
 40
0.5
 40
0.75
 40
0.75
 40
0.75
 40
1.0
 40
1.0
 40
1.0
 40
1.0
 10
-765.9112
 20
-189.3033
 30
0.0
 10
-725.7224
 20
-34.4456
 30
0.0
 10
-563.6852
 20
-124.9362
 30
0.0
 10
-626.0566
 20
-223.4233
 30
0.0
 10
-659.7041
 20
-262.3419
 30
0.0
 10
-702.1873
 20
-196.5895
 30
0.0
 10
-651.7721
 20
-198.6861
 30
0.0
 10
-639.7413
 20
-167.6934
 30
0.0
 10
-689.6674
 20
-141.6758
 30
0.0
 10
-708.1648
 20
-191.009
 30
0.0
 10
-727.4136
 20
-176.5755
 30
0.0
 10
-747.565
 20
-177.0026
 30
0.0
 10
-765.9112
 20
-189.3033
 30
0.0
  0
SPLINE
  5
AA
330
1F
100
AcDbEntity
  8
Layer 1
 62
   250
370
    20
100
AcDbSpline
210
0.0
220
0.0
230
1.0
 70
    11
 71
     3
 72
    14
 73
    10
 74
     0
 42
0.0000000001
 43
0.0000000001
 40
0.0
 40
0.0
 40
0.0
 40
0.0
 40
0.3333333333333333
 40
0.3333333333333333
 40
0.3333333333333333
 40
0.6666666666666666
 40
0.6666666666666666
 40
0.6666666666666666
 40
1.0
 40
1.0
 40
1.0
 40
1.0
 10
-617.2109
 20
376.4703
 30
0.0
 10
-588.5166
 20
411.8666
 30
0.0
 10
-495.9274
 20
424.7842
 30
0.0
 10
-473.5714
 20
369.6496
 30
0.0
 10
-507.6226
 20
376.6258
 30
0.0
 10
-538.5598
 20
372.8017
 30
0.0
 10
-567.3639
 20
361.5888
 30
0.0
 10
-583.9792
 20
368.2021
 30
0.0
 10
-600.5957
 20
373.1636
 30
0.0
 10
-617.2109
 20
376.4703
 30
0.0
  0
SPLINE
  5
AB
330
1F
100
AcDbEntity
  8
Layer 1
 62
   250
370
    20
100
AcDbSpline
210
0.0
220
0.0
230
1.0
 70
    11
 71
     3
 72
    14
 73
    10
 74
     0
 42
0.0000000001
 43
0.0000000001
 40
0.0
 40
0.0
 40
0.0
 40
0.0
 40
0.3333333333333333
 40
0.3333333333333333
 40
0.3333333333333333
 40
0.6666666666666666
 40
0.6666666666666666
 40
0.6666666666666666
 40
1.0
 40
1.0
 40
1.0
 40
1.0
 10
-518.8273
 20
434.757
 30
0.0
 10
-578.1892
 20
444.7869
 30
0.0
 10
-625.8493
 20
420.8098
 30
0.0
 10
-658.5315
 20
378.3305
 30
0.0
 10
-674.274
 20
378.2278
 30
0.0
 10
-690.0151
 20
374.7138
 30
0.0
 10
-705.7563
 20
369.6496
 30
0.0
 10
-686.5724
 20
468.0848
 30
0.0
 10
-557.9084
 20
494.0247
 30
0.0
 10
-518.8273
 20
434.757
 30
0.0
  0
SPLINE
  5
AC
330
1F
100
AcDbEntity
  8
Layer 1
 62
   250
370
    20
100
AcDbSpline
210
0.0
220
0.0
230
1.0
 70
    11
 71
     3
 72
    23
 73
    19
 74
     0
 42
0.0000000001
 43
0.0000000001
 40
0.0
 40
0.0
 40
0.0
 40
0.0
 40
0.1666666666666667
 40
0.1666666666666667
 40
0.1666666666666667
 40
0.3333333333333333
 40
0.3333333333333333
 40
0.3333333333333333
 40
0.5
 40
0.5
 40
0.5
 40
0.6666666666666666
 40
0.6666666666666666
 40
0.6666666666666666
 40
0.8333333333333333
 40
0.8333333333333333
 40
0.8333333333333333
 40
1.0
 40
1.0
 40
1.0
 40
1.0
 10
-731.1218
 20
535.4993
 30
0.0
 10
-675.0834
 20
544.9361
 30
0.0
 10
-625.9272
 20
524.4461
 30
0.0
 10
-578.6982
 20
495.5759
 30
0.0
 10
-668.5574
 20
501.2933
 30
0.0
 10
-742.3267
 20
422.221
 30
0.0
 10
-743.6594
 20
343.9917
 30
0.0
 10
-789.0863
 20
309.2922
 30
0.0
 10
-846.0496
 20
334.3569
 30
0.0
 10
-869.0295
 20
350.8528
 30
0.0
 10
-858.6923
 20
352.1003
 30
0.0
 10
-851.8734
 20
355.2192
 30
0.0
 10
-848.5744
 20
367.695
 30
0.0
 10
-878.2691
 20
381.5252
 30
0.0
 10
-849.0164
 20
410.4295
 30
0.0
 10
-811.6221
 20
401.3816
 30
0.0
 10
-760.5961
 20
392.4395
 30
0.0
 10
-704.0683
 20
457.1083
 30
0.0
 10
-731.1218
 20
535.4993
 30
0.0
  0
SPLINE
  5
AD
330
1F
100
AcDbEntity
  8
Layer 1
 62
   250
370
    20
100
AcDbSpline
210
0.0
220
0.0
230
1.0
 70
    11
 71
     3
 72
    23
 73
    19
 74
     0
 42
0.0000000001
 43
0.0000000001
 40
0.0
 40
0.0
 40
0.0
 40
0.0
 40
0.1666666666666667
 40
0.1666666666666667
 40
0.1666666666666667
 40
0.3333333333333333
 40
0.3333333333333333
 40
0.3333333333333333
 40
0.5
 40
0.5
 40
0.5
 40
0.6666666666666666
 40
0.6666666666666666
 40
0.6666666666666666
 40
0.8333333333333333
 40
0.8333333333333333
 40
0.8333333333333333
 40
1.0
 40
1.0
 40
1.0
 40
1.0
 10
-743.6594
 20
-344.1091
 30
0.0
 10
-742.3267
 20
-422.3384
 30
0.0
 10
-668.5574
 20
-501.4107
 30
0.0
 10
-578.6982
 20
-495.6933
 30
0.0
 10
-625.9272
 20
-524.5635
 30
0.0
 10
-675.0834
 20
-545.0545
 30
0.0
 10
-731.1218
 20
-535.6167
 30
0.0
 10
-704.0683
 20
-457.2256
 30
0.0
 10
-760.5961
 20
-392.5579
 30
0.0
 10
-811.6221
 20
-401.499
 30
0.0
 10
-849.0164
 20
-410.5469
 30
0.0
 10
-878.2691
 20
-381.6425
 30
0.0
 10
-848.5744
 20
-367.8134
 30
0.0
 10
-851.8734
 20
-355.3366
 30
0.0
 10
-858.6923
 20
-352.2176
 30
0.0
 10
-869.0295
 20
-350.9702
 30
0.0
 10
-846.0496
 20
-334.4743
 30
0.0
 10
-789.0863
 20
-309.4106
 30
0.0
 10
-743.6594
 20
-344.1091
 30
0.0
  0
SPLINE
  5
AE
330
1F
100
AcDbEntity
  8
Layer 1
 62
   250
370
    20
100
AcDbSpline
210
0.0
220
0.0
230
1.0
 70
    11
 71
     3
 72
    11
 73
     7
 74
     0
 42
0.0000000001
 43
0.0000000001
 40
0.0
 40
0.0
 40
0.0
 40
0.0
 40
0.5
 40
0.5
 40
0.5
 40
1.0
 40
1.0
 40
1.0
 40
1.0
 10
-421.0854
 20
-256.8858
 30
0.0
 10
-440.6248
 20
-310.4609
 30
0.0
 10
-438.7833
 20
-345.8054
 30
0.0
 10
-526.0783
 20
-343.3097
 30
0.0
 10
-489.7985
 20
-324.1002
 30
0.0
 10
-453.4759
 20
-295.8315
 30
0.0
 10
-421.0854
 20
-256.8858
 30
0.0
  0
SPLINE
  5
AF
330
1F
100
AcDbEntity
  8
Layer 1
 62
   250
370
    20
100
AcDbSpline
210
0.0
220
0.0
230
1.0
 70
    11
 71
     3
 72
    14
 73
    10
 74
     0
 42
0.0000000001
 43
0.0000000001
 40
0.0
 40
0.0
 40
0.0
 40
0.0
 40
0.3333333333333333
 40
0.3333333333333333
 40
0.3333333333333333
 40
0.6666666666666666
 40
0.6666666666666666
 40
0.6666666666666666
 40
1.0
 40
1.0
 40
1.0
 40
1.0
 10
-921.8282
 20
-365.5292
 30
0.0
 10
-927.0774
 20
-374.4164
 30
0.0
 10
-933.2218
 20
-386.801
 30
0.0
 10
-934.6881
 20
-397.1316
 30
0.0
 10
-946.2933
 20
-394.2895
 30
0.0
 10
-956.8368
 20
-391.1
 30
0.0
 10
-967.9111
 20
-385.9259
 30
0.0
 10
-953.7603
 20
-387.1837
 30
0.0
 10
-937.8348
 20
-381.8893
 30
0.0
 10
-921.8282
 20
-365.5292
 30
0.0
  0
SPLINE
  5
B0
330
1F
100
AcDbEntity
  8
Layer 1
 62
   250
370
    20
100
AcDbSpline
210
0.0
220
0.0
230
1.0
 70
    11
 71
     3
 72
    17
 73
    13
 74
     0
 42
0.0000000001
 43
0.0000000001
 40
0.0
 40
0.0
 40
0.0
 40
0.0
 40
0.25
 40
0.25
 40
0.25
 40
0.5
 40
0.5
 40
0.5
 40
0.75
 40
0.75
 40
0.75
 40
1.0
 40
1.0
 40
1.0
 40
1.0
 10
-765.1456
 20
-65.4601
 30
0.0
 10
-848.9473
 20
-133.727
 30
0.0
 10
-932.75
 20
-201.9917
 30
0.0
 10
-1016.5528
 20
-270.2586
 30
0.0
 10
-1072.9194
 20
-317.2941
 30
0.0
 10
-1131.6385
 20
-261.9635
 30
0.0
 10
-1068.2294
 20
-210.5472
 30
0.0
 10
-970.3132
 20
-158.0452
 30
0.0
 10
-872.3956
 20
-105.5431
 30
0.0
 10
-774.4781
 20
-53.0413
 30
0.0
 10
-771.5157
 20
-57.391
 30
0.0
 10
-768.4359
 20
-61.5749
 30
0.0
 10
-765.1456
 20
-65.4601
 30
0.0
  0
SPLINE
  5
B1
330
1F
100
AcDbEntity
  8
Layer 1
 62
   250
370
    20
100
AcDbSpline
210
0.0
220
0.0
230
1.0
 70
    11
 71
     3
 72
    14
 73
    10
 74
     0
 42
0.0000000001
 43
0.0000000001
 40
0.0
 40
0.0
 40
0.0
 40
0.0
 40
0.3333333333333333
 40
0.3333333333333333
 40
0.3333333333333333
 40
0.6666666666666666
 40
0.6666666666666666
 40
0.6666666666666666
 40
1.0
 40
1.0
 40
1.0
 40
1.0
 10
-567.3639
 20
-361.7062
 30
0.0
 10
-538.5598
 20
-372.9191
 30
0.0
 10
-507.6226
 20
-376.7422
 30
0.0
 10
-473.5714
 20
-369.767
 30
0.0
 10
-495.9274
 20
-424.9027
 30
0.0
 10
-588.5166
 20
-411.984
 30
0.0
 10
-617.2109
 20
-376.5877
 30
0.0
 10
-600.5957
 20
-373.281
 30
0.0
 10
-583.9792
 20
-368.3206
 30
0.0
 10
-567.3639
 20
-361.7062
 30
0.0
  0
SPLINE
  5
B2
330
1F
100
AcDbEntity
  8
Layer 1
 62
   250
370
    20
100
AcDbSpline
210
0.0
220
0.0
230
1.0
 70
    11
 71
     3
 72
    17
 73
    13
 74
     0
 42
0.0000000001
 43
0.0000000001
 40
0.0
 40
0.0
 40
0.0
 40
0.0
 40
0.25
 40
0.25
 40
0.25
 40
0.5
 40
0.5
 40
0.5
 40
0.75
 40
0.75
 40
0.75
 40
1.0
 40
1.0
 40
1.0
 40
1.0
 10
891.651
 20
-378.8574
 30
0.0
 10
909.7316
 20
-412.5243
 30
0.0
 10
913.7699
 20
-456.6025
 30
0.0
 10
903.766
 20
-492.3514
 30
0.0
 10
880.2705
 20
-487.3184
 30
0.0
 10
902.4817
 20
-446.8847
 30
0.0
 10
869.6239
 20
-431.9608
 30
0.0
 10
879.3526
 20
-427.2751
 30
0.0
 10
884.3089
 20
-418.0768
 30
0.0
 10
876.2321
 20
-405.9296
 30
0.0
 10
889.6635
 20
-402.1314
 30
0.0
 10
893.1393
 20
-391.017
 30
0.0
 10
891.651
 20
-378.8574
 30
0.0
  0
SPLINE
  5
B3
330
1F
100
AcDbEntity
  8
Layer 1
 62
   250
370
    20
100
AcDbSpline
210
0.0
220
0.0
230
1.0
 70
    11
 71
     3
 72
    23
 73
    19
 74
     0
 42
0.0000000001
 43
0.0000000001
 40
0.0
 40
0.0
 40
0.0
 40
0.0
 40
0.1666666666666667
 40
0.1666666666666667
 40
0.1666666666666667
 40
0.3333333333333333
 40
0.3333333333333333
 40
0.3333333333333333
 40
0.5
 40
0.5
 40
0.5
 40
0.6666666666666666
 40
0.6666666666666666
 40
0.6666666666666666
 40
0.8333333333333333
 40
0.8333333333333333
 40
0.8333333333333333
 40
1.0
 40
1.0
 40
1.0
 40
1.0
 10
822.8916
 20
-504.3337
 30
0.0
 10
831.7154
 20
-508.6285
 30
0.0
 10
845.3563
 20
-507.4091
 30
0.0
 10
854.7546
 20
-488.1862
 30
0.0
 10
861.3618
 20
-502.8531
 30
0.0
 10
878.6166
 20
-507.5378
 30
0.0
 10
899.3602
 20
-503.2844
 30
0.0
 10
885.9509
 20
-567.2616
 30
0.0
 10
781.2157
 20
-585.8946
 30
0.0
 10
764.4402
 20
-511.6148
 30
0.0
 10
749.0215
 20
-451.5124
 30
0.0
 10
801.332
 20
-423.6853
 30
0.0
 10
820.6115
 20
-453.8257
 30
0.0
 10
827.0365
 20
-469.4444
 30
0.0
 10
814.3707
 20
-485.2373
 30
0.0
 10
797.4833
 20
-465.2793
 30
0.0
 10
781.7082
 20
-489.7312
 30
0.0
 10
804.0816
 20
-512.83
 30
0.0
 10
822.8916
 20
-504.3337
 30
0.0
  0
SPLINE
  5
B4
330
1F
100
AcDbEntity
  8
Layer 1
 62
   250
370
    20
100
AcDbSpline
210
0.0
220
0.0
230
1.0
 70
    11
 71
     3
 72
    14
 73
    10
 74
     0
 42
0.0000000001
 43
0.0000000001
 40
0.0
 40
0.0
 40
0.0
 40
0.0
 40
0.3333333333333333
 40
0.3333333333333333
 40
0.3333333333333333
 40
0.6666666666666666
 40
0.6666666666666666
 40
0.6666666666666666
 40
1.0
 40
1.0
 40
1.0
 40
1.0
 10
803.3787
 20
-212.819
 30
0.0
 10
827.7308
 20
-249.1216
 30
0.0
 10
853.5141
 20
-282.5593
 30
0.0
 10
881.3915
 20
-317.1946
 30
0.0
 10
857.0952
 20
-300.8925
 30
0.0
 10
825.4714
 20
-293.4964
 30
0.0
 10
788.8339
 20
-292.195
 30
0.0
 10
799.7448
 20
-266.9871
 30
0.0
 10
804.8132
 20
-239.4868
 30
0.0
 10
803.3787
 20
-212.819
 30
0.0
  0
SPLINE
  5
B5
330
1F
100
AcDbEntity
  8
Layer 1
 62
   250
370
    20
100
AcDbSpline
210
0.0
220
0.0
230
1.0
 70
    11
 71
     3
 72
    14
 73
    10
 74
     0
 42
0.0000000001
 43
0.0000000001
 40
0.0
 40
0.0
 40
0.0
 40
0.0
 40
0.3333333333333333
 40
0.3333333333333333
 40
0.3333333333333333
 40
0.6666666666666666
 40
0.6666666666666666
 40
0.6666666666666666
 40
1.0
 40
1.0
 40
1.0
 40
1.0
 10
36.0006
 20
-459.6457
 30
0.0
 10
11.7592
 20
-472.3736
 30
0.0
 10
-0.0379
 20
-492.901
 30
0.0
 10
-0.05
 20
-516.1667
 30
0.0
 10
-0.062
 20
-492.901
 30
0.0
 10
-11.8591
 20
-472.3736
 30
0.0
 10
-36.1006
 20
-459.6457
 30
0.0
 10
-12.0675
 20
-459.6457
 30
0.0
 10
11.9676
 20
-459.6457
 30
0.0
 10
36.0006
 20
-459.6457
 30
0.0
  0
SPLINE
  5
B6
330
1F
100
AcDbEntity
  8
Layer 1
 62
   250
370
    20
100
AcDbSpline
210
0.0
220
0.0
230
1.0
 70
    11
 71
     3
 72
    14
 73
    10
 74
     0
 42
0.0000000001
 43
0.0000000001
 40
0.0
 40
0.0
 40
0.0
 40
0.0
 40
0.3333333333333333
 40
0.3333333333333333
 40
0.3333333333333333
 40
0.6666666666666666
 40
0.6666666666666666
 40
0.6666666666666666
 40
1.0
 40
1.0
 40
1.0
 40
1.0
 10
-0.05
 20
-536.6432
 30
0.0
 10
3.7735
 20
-557.266
 30
0.0
 10
11.9238
 20
-575.4386
 30
0.0
 10
23.746
 20
-590.0266
 30
0.0
 10
23.746
 20
-590.0266
 30
0.0
 10
-23.8459
 20
-590.0266
 30
0.0
 10
-23.8459
 20
-590.0266
 30
0.0
 10
-12.0238
 20
-575.4386
 30
0.0
 10
-3.8735
 20
-557.266
 30
0.0
 10
-0.05
 20
-536.6432
 30
0.0
  0
SPLINE
  5
B7
330
1F
100
AcDbEntity
  8
Layer 1
 62
   250
370
    20
100
AcDbSpline
210
0.0
220
0.0
230
1.0
 70
    11
 71
     3
 72
    17
 73
    13
 74
     0
 42
0.0000000001
 43
0.0000000001
 40
0.0
 40
0.0
 40
0.0
 40
0.0
 40
0.25
 40
0.25
 40
0.25
 40
0.5
 40
0.5
 40
0.5
 40
0.75
 40
0.75
 40
0.75
 40
1.0
 40
1.0
 40
1.0
 40
1.0
 10
-783.9589
 20
34.0608
 30
0.0
 10
-784.9679
 20
31.2891
 30
0.0
 10
-786.0396
 20
28.2168
 30
0.0
 10
-786.8402
 20
25.2482
 30
0.0
 10
-896.6721
 20
47.5331
 30
0.0
 10
-1006.8188
 20
70.0035
 30
0.0
 10
-1116.6519
 20
92.2884
 30
0.0
 10
-1197.2312
 20
112.8936
 30
0.0
 10
-1170.7523
 20
216.6687
 30
0.0
 10
-1095.5078
 20
182.1972
 30
0.0
 10
-991.8278
 20
132.8184
 30
0.0
 10
-887.639
 20
83.4395
 30
0.0
 10
-783.9589
 20
34.0608
 30
0.0
  0
SPLINE
  5
B8
330
1F
100
AcDbEntity
  8
Layer 1
 62
   250
370
    20
100
AcDbSpline
210
0.0
220
0.0
230
1.0
 70
    11
 71
     3
 72
    23
 73
    19
 74
     0
 42
0.0000000001
 43
0.0000000001
 40
0.0
 40
0.0
 40
0.0
 40
0.0
 40
0.1666666666666667
 40
0.1666666666666667
 40
0.1666666666666667
 40
0.3333333333333333
 40
0.3333333333333333
 40
0.3333333333333333
 40
0.5
 40
0.5
 40
0.5
 40
0.6666666666666666
 40
0.6666666666666666
 40
0.6666666666666666
 40
0.8333333333333333
 40
0.8333333333333333
 40
0.8333333333333333
 40
1.0
 40
1.0
 40
1.0
 40
1.0
 10
-790.4958
 20
-0.0582
 30
0.0
 10
-790.4958
 20
-0.0582
 30
0.0
 10
-790.2874
 20
-5.6802
 30
0.0
 10
-790.2874
 20
-5.6802
 30
0.0
 10
-900.83
 20
-24.3172
 30
0.0
 10
-1017.1155
 20
-37.3334
 30
0.0
 10
-1127.6582
 20
-55.9704
 30
0.0
 10
-1172.6311
 20
-63.2867
 30
0.0
 10
-1199.4095
 20
-43.2333
 30
0.0
 10
-1200.05
 20
-0.0582
 30
0.0
 10
-1199.4095
 20
43.116
 30
0.0
 10
-1172.6311
 20
63.1693
 30
0.0
 10
-1127.6582
 20
55.853
 30
0.0
 10
-1017.1155
 20
37.2149
 30
0.0
 10
-900.83
 20
24.1989
 30
0.0
 10
-790.2874
 20
5.5617
 30
0.0
 10
-790.2874
 20
5.5617
 30
0.0
 10
-790.4958
 20
-0.0582
 30
0.0
 10
-790.4958
 20
-0.0582
 30
0.0
  0
SPLINE
  5
B9
330
1F
100
AcDbEntity
  8
Layer 1
 62
   250
370
    20
100
AcDbSpline
210
0.0
220
0.0
230
1.0
 70
    11
 71
     3
 72
    14
 73
    10
 74
     0
 42
0.0000000001
 43
0.0000000001
 40
0.0
 40
0.0
 40
0.0
 40
0.0
 40
0.3333333333333333
 40
0.3333333333333333
 40
0.3333333333333333
 40
0.6666666666666666
 40
0.6666666666666666
 40
0.6666666666666666
 40
1.0
 40
1.0
 40
1.0
 40
1.0
 10
-881.4914
 20
317.0772
 30
0.0
 10
-857.1951
 20
300.7751
 30
0.0
 10
-825.5713
 20
293.379
 30
0.0
 10
-788.9339
 20
292.0766
 30
0.0
 10
-799.8448
 20
266.8687
 30
0.0
 10
-804.9131
 20
239.3683
 30
0.0
 10
-803.4785
 20
212.7005
 30
0.0
 10
-827.8306
 20
249.0031
 30
0.0
 10
-853.6141
 20
282.4419
 30
0.0
 10
-881.4914
 20
317.0772
 30
0.0
  0
SPLINE
  5
BA
330
1F
100
AcDbEntity
  8
Layer 1
 62
   250
370
    20
100
AcDbSpline
210
0.0
220
0.0
230
1.0
 70
    11
 71
     3
 72
    23
 73
    19
 74
     0
 42
0.0000000001
 43
0.0000000001
 40
0.0
 40
0.0
 40
0.0
 40
0.0
 40
0.1666666666666667
 40
0.1666666666666667
 40
0.1666666666666667
 40
0.3333333333333333
 40
0.3333333333333333
 40
0.3333333333333333
 40
0.5
 40
0.5
 40
0.5
 40
0.6666666666666666
 40
0.6666666666666666
 40
0.6666666666666666
 40
0.8333333333333333
 40
0.8333333333333333
 40
0.8333333333333333
 40
1.0
 40
1.0
 40
1.0
 40
1.0
 10
-764.5402
 20
511.4964
 30
0.0
 10
-749.1203
 20
451.394
 30
0.0
 10
-801.4319
 20
423.568
 30
0.0
 10
-820.7115
 20
453.7083
 30
0.0
 10
-827.1364
 20
469.326
 30
0.0
 10
-814.4707
 20
485.1188
 30
0.0
 10
-797.5821
 20
465.1618
 30
0.0
 10
-781.8081
 20
489.6138
 30
0.0
 10
-804.1816
 20
512.7126
 30
0.0
 10
-822.9916
 20
504.2164
 30
0.0
 10
-831.8153
 20
508.5101
 30
0.0
 10
-845.455
 20
507.2917
 30
0.0
 10
-854.8546
 20
488.0688
 30
0.0
 10
-861.4617
 20
502.7357
 30
0.0
 10
-878.7166
 20
507.4204
 30
0.0
 10
-899.4601
 20
503.167
 30
0.0
 10
-886.0508
 20
567.1443
 30
0.0
 10
-781.3156
 20
585.7772
 30
0.0
 10
-764.5402
 20
511.4964
 30
0.0
  0
SPLINE
  5
BB
330
1F
100
AcDbEntity
  8
Layer 1
 62
   250
370
    20
100
AcDbSpline
210
0.0
220
0.0
230
1.0
 70
    11
 71
     3
 72
    17
 73
    13
 74
     0
 42
0.0000000001
 43
0.0000000001
 40
0.0
 40
0.0
 40
0.0
 40
0.0
 40
0.25
 40
0.25
 40
0.25
 40
0.5
 40
0.5
 40
0.5
 40
0.75
 40
0.75
 40
0.75
 40
1.0
 40
1.0
 40
1.0
 40
1.0
 10
-786.8402
 20
-25.3656
 30
0.0
 10
-786.0396
 20
-28.3341
 30
0.0
 10
-784.9679
 20
-31.4075
 30
0.0
 10
-783.9589
 20
-34.1782
 30
0.0
 10
-887.639
 20
-83.558
 30
0.0
 10
-991.8278
 20
-132.9368
 30
0.0
 10
-1095.5078
 20
-182.3146
 30
0.0
 10
-1170.7523
 20
-216.7871
 30
0.0
 10
-1197.2312
 20
-113.012
 30
0.0
 10
-1116.6519
 20
-92.4058
 30
0.0
 10
-1006.8188
 20
-70.1209
 30
0.0
 10
-896.6721
 20
-47.6505
 30
0.0
 10
-786.8402
 20
-25.3656
 30
0.0
  0
SPLINE
  5
BC
330
1F
100
AcDbEntity
  8
Layer 1
 62
   250
370
    20
100
AcDbSpline
210
0.0
220
0.0
230
1.0
 70
    11
 71
     3
 72
    20
 73
    16
 74
     0
 42
0.0000000001
 43
0.0000000001
 40
0.0
 40
0.0
 40
0.0
 40
0.0
 40
0.2
 40
0.2
 40
0.2
 40
0.4
 40
0.4
 40
0.4
 40
0.6000000000000001
 40
0.6000000000000001
 40
0.6000000000000001
 40
0.8
 40
0.8
 40
0.8
 40
1.0
 40
1.0
 40
1.0
 40
1.0
 10
-741.1509
 20
-86.001
 30
0.0
 10
-767.7492
 20
-105.3088
 30
0.0
 10
-786.2073
 20
-128.6089
 30
0.0
 10
-795.8942
 20
-157.5329
 30
0.0
 10
-841.5373
 20
-213.4774
 30
0.0
 10
-890.0102
 20
-275.6628
 30
0.0
 10
-935.6533
 20
-331.6063
 30
0.0
 10
-972.7349
 20
-381.3232
 30
0.0
 10
-1020.8533
 20
-335.3982
 30
0.0
 10
-985.1944
 20
-298.431
 30
0.0
 10
-907.4875
 20
-225.0035
 30
0.0
 10
-829.7807
 20
-151.576
 30
0.0
 10
-752.0728
 20
-78.1486
 30
0.0
 10
-748.3865
 20
-81.2218
 30
0.0
 10
-745.1642
 20
-83.4429
 30
0.0
 10
-741.1509
 20
-86.001
 30
0.0
  0
SPLINE
  5
BD
330
1F
100
AcDbEntity
  8
Layer 1
 62
   250
370
    20
100
AcDbSpline
210
0.0
220
0.0
230
1.0
 70
    11
 71
     3
 72
    17
 73
    13
 74
     0
 42
0.0000000001
 43
0.0000000001
 40
0.0
 40
0.0
 40
0.0
 40
0.0
 40
0.25
 40
0.25
 40
0.25
 40
0.5
 40
0.5
 40
0.5
 40
0.75
 40
0.75
 40
0.75
 40
1.0
 40
1.0
 40
1.0
 40
1.0
 10
-876.332
 20
405.8112
 30
0.0
 10
-889.7634
 20
402.0141
 30
0.0
 10
-893.2391
 20
390.8996
 30
0.0
 10
-891.7508
 20
378.74
 30
0.0
 10
-909.8315
 20
412.4059
 30
0.0
 10
-913.8699
 20
456.4851
 30
0.0
 10
-903.8659
 20
492.234
 30
0.0
 10
-880.3704
 20
487.2009
 30
0.0
 10
-902.5805
 20
446.7663
 30
0.0
 10
-869.7239
 20
431.8423
 30
0.0
 10
-879.4525
 20
427.1577
 30
0.0
 10
-884.4089
 20
417.9595
 30
0.0
 10
-876.332
 20
405.8112
 30
0.0
  0
SPLINE
  5
BE
330
1F
100
AcDbEntity
  8
Layer 1
 62
   250
370
    20
100
AcDbSpline
210
0.0
220
0.0
230
1.0
 70
    11
 71
     3
 72
    14
 73
    10
 74
     0
 42
0.0000000001
 43
0.0000000001
 40
0.0
 40
0.0
 40
0.0
 40
0.0
 40
0.3333333333333333
 40
0.3333333333333333
 40
0.3333333333333333
 40
0.6666666666666666
 40
0.6666666666666666
 40
0.6666666666666666
 40
1.0
 40
1.0
 40
1.0
 40
1.0
 10
-658.5315
 20
-378.4478
 30
0.0
 10
-625.8493
 20
-420.9282
 30
0.0
 10
-578.1892
 20
-444.9053
 30
0.0
 10
-518.8273
 20
-434.8744
 30
0.0
 10
-557.9084
 20
-494.1421
 30
0.0
 10
-686.5724
 20
-468.2022
 30
0.0
 10
-705.7563
 20
-369.767
 30
0.0
 10
-690.0151
 20
-374.8312
 30
0.0
 10
-674.274
 20
-378.3452
 30
0.0
 10
-658.5315
 20
-378.4478
 30
0.0
  0
SPLINE
  5
BF
330
1F
100
AcDbEntity
  8
Layer 1
 62
   250
370
    20
100
AcDbSpline
210
0.0
220
0.0
230
1.0
 70
    11
 71
     3
 72
    23
 73
    19
 74
     0
 42
0.0000000001
 43
0.0000000001
 40
0.0
 40
0.0
 40
0.0
 40
0.0
 40
0.1666666666666667
 40
0.1666666666666667
 40
0.1666666666666667
 40
0.3333333333333333
 40
0.3333333333333333
 40
0.3333333333333333
 40
0.5
 40
0.5
 40
0.5
 40
0.6666666666666666
 40
0.6666666666666666
 40
0.6666666666666666
 40
0.8333333333333333
 40
0.8333333333333333
 40
0.8333333333333333
 40
1.0
 40
1.0
 40
1.0
 40
1.0
 10
-820.7115
 20
-453.8257
 30
0.0
 10
-801.4319
 20
-423.6853
 30
0.0
 10
-749.1203
 20
-451.5124
 30
0.0
 10
-764.5402
 20
-511.6148
 30
0.0
 10
-781.3156
 20
-585.8946
 30
0.0
 10
-886.0508
 20
-567.2616
 30
0.0
 10
-899.4601
 20
-503.2844
 30
0.0
 10
-878.7166
 20
-507.5378
 30
0.0
 10
-861.4617
 20
-502.8531
 30
0.0
 10
-854.8546
 20
-488.1862
 30
0.0
 10
-845.455
 20
-507.4091
 30
0.0
 10
-831.8153
 20
-508.6285
 30
0.0
 10
-822.9916
 20
-504.3337
 30
0.0
 10
-804.1816
 20
-512.83
 30
0.0
 10
-781.8081
 20
-489.7312
 30
0.0
 10
-797.5821
 20
-465.2793
 30
0.0
 10
-814.4707
 20
-485.2373
 30
0.0
 10
-827.1364
 20
-469.4444
 30
0.0
 10
-820.7115
 20
-453.8257
 30
0.0
  0
SPLINE
  5
C0
330
1F
100
AcDbEntity
  8
Layer 1
 62
   250
370
    20
100
AcDbSpline
210
0.0
220
0.0
230
1.0
 70
    11
 71
     3
 72
    14
 73
    10
 74
     0
 42
0.0000000001
 43
0.0000000001
 40
0.0
 40
0.0
 40
0.0
 40
0.0
 40
0.3333333333333333
 40
0.3333333333333333
 40
0.3333333333333333
 40
0.6666666666666666
 40
0.6666666666666666
 40
0.6666666666666666
 40
1.0
 40
1.0
 40
1.0
 40
1.0
 10
-803.4785
 20
-212.819
 30
0.0
 10
-804.9131
 20
-239.4868
 30
0.0
 10
-799.8448
 20
-266.9871
 30
0.0
 10
-788.9339
 20
-292.195
 30
0.0
 10
-825.5713
 20
-293.4964
 30
0.0
 10
-857.1951
 20
-300.8925
 30
0.0
 10
-881.4914
 20
-317.1946
 30
0.0
 10
-853.6141
 20
-282.5593
 30
0.0
 10
-827.8306
 20
-249.1216
 30
0.0
 10
-803.4785
 20
-212.819
 30
0.0
  0
SPLINE
  5
C1
330
1F
100
AcDbEntity
  8
Layer 1
 62
   250
370
    20
100
AcDbSpline
210
0.0
220
0.0
230
1.0
 70
    11
 71
     3
 72
    17
 73
    13
 74
     0
 42
0.0000000001
 43
0.0000000001
 40
0.0
 40
0.0
 40
0.0
 40
0.0
 40
0.25
 40
0.25
 40
0.25
 40
0.5
 40
0.5
 40
0.5
 40
0.75
 40
0.75
 40
0.75
 40
1.0
 40
1.0
 40
1.0
 40
1.0
 10
-891.7508
 20
-378.8574
 30
0.0
 10
-893.2391
 20
-391.017
 30
0.0
 10
-889.7634
 20
-402.1314
 30
0.0
 10
-876.332
 20
-405.9296
 30
0.0
 10
-884.4089
 20
-418.0768
 30
0.0
 10
-879.4525
 20
-427.2751
 30
0.0
 10
-869.7239
 20
-431.9608
 30
0.0
 10
-902.5805
 20
-446.8847
 30
0.0
 10
-880.3704
 20
-487.3184
 30
0.0
 10
-903.8659
 20
-492.3514
 30
0.0
 10
-913.8699
 20
-456.6025
 30
0.0
 10
-909.8315
 20
-412.5243
 30
0.0
 10
-891.7508
 20
-378.8574
 30
0.0
  0
SPLINE
  5
C2
330
1F
100
AcDbEntity
  8
Layer 1
 62
   250
370
    20
100
AcDbSpline
210
0.0
220
0.0
230
1.0
 70
    11
 71
     3
 72
    11
 73
     7
 74
     0
 42
0.0000000001
 43
0.0000000001
 40
0.0
 40
0.0
 40
0.0
 40
0.0
 40
0.5
 40
0.5
 40
0.5
 40
1.0
 40
1.0
 40
1.0
 40
1.0
 10
42.4178
 20
90.5746
 30
0.0
 10
-13.7775
 20
208.3572
 30
0.0
 10
60.3691
 20
302.3337
 30
0.0
 10
66.578
 20
223.4273
 30
0.0
 10
49.5667
 20
187.922
 30
0.0
 10
41.3484
 20
143.0164
 30
0.0
 10
42.4178
 20
90.5746
 30
0.0
  0
SPLINE
  5
C3
330
1F
100
AcDbEntity
  8
Layer 1
 62
   250
370
    20
100
AcDbSpline
210
0.0
220
0.0
230
1.0
 70
    11
 71
     3
 72
    11
 73
     7
 74
     0
 42
0.0000000001
 43
0.0000000001
 40
0.0
 40
0.0
 40
0.0
 40
0.0
 40
0.5
 40
0.5
 40
0.5
 40
1.0
 40
1.0
 40
1.0
 40
1.0
 10
138.1877
 20
185.981
 30
0.0
 10
107.6957
 20
156.2036
 30
0.0
 10
82.0768
 20
120.7772
 30
0.0
 10
66.4551
 20
82.8331
 30
0.0
 10
65.1357
 20
246.858
 30
0.0
 10
160.0337
 20
262.6229
 30
0.0
 10
138.1877
 20
185.981
 30
0.0
  0
SPLINE
  5
C4
330
1F
100
AcDbEntity
  8
Layer 1
 62
   250
370
    20
100
AcDbSpline
210
0.0
220
0.0
230
1.0
 70
    11
 71
     3
 72
    29
 73
    25
 74
     0
 42
0.0000000001
 43
0.0000000001
 40
0.0
 40
0.0
 40
0.0
 40
0.0
 40
0.125
 40
0.125
 40
0.125
 40
0.25
 40
0.25
 40
0.25
 40
0.375
 40
0.375
 40
0.375
 40
0.5
 40
0.5
 40
0.5
 40
0.625
 40
0.625
 40
0.625
 40
0.75
 40
0.75
 40
0.75
 40
0.875
 40
0.875
 40
0.875
 40
1.0
 40
1.0
 40
1.0
 40
1.0
 10
-0.0501
 20
136.1926
 30
0.0
 10
4.6288
 20
105.3606
 30
0.0
 10
14.4045
 20
80.4815
 30
0.0
 10
25.9111
 20
59.1588
 30
0.0
 10
50.4321
 20
49.4971
 30
0.0
 10
67.7428
 20
26.585
 30
0.0
 10
67.7428
 20
-0.0259
 30
0.0
 10
67.7428
 20
-26.6388
 30
0.0
 10
50.4321
 20
-49.5499
 30
0.0
 10
25.9111
 20
-59.2116
 30
0.0
 10
14.4045
 20
-80.5343
 30
0.0
 10
4.6288
 20
-105.4134
 30
0.0
 10
-0.0501
 20
-136.2454
 30
0.0
 10
-4.7279
 20
-105.4134
 30
0.0
 10
-14.5048
 20
-80.5343
 30
0.0
 10
-26.0112
 20
-59.2116
 30
0.0
 10
-50.5323
 20
-49.5499
 30
0.0
 10
-67.8429
 20
-26.6388
 30
0.0
 10
-67.8429
 20
-0.0259
 30
0.0
 10
-67.8429
 20
26.585
 30
0.0
 10
-50.5323
 20
49.4971
 30
0.0
 10
-26.0112
 20
59.1588
 30
0.0
 10
-14.5048
 20
80.4815
 30
0.0
 10
-4.7279
 20
105.3606
 30
0.0
 10
-0.0501
 20
136.1926
 30
0.0
  0
SPLINE
  5
C5
330
1F
100
AcDbEntity
  8
Layer 1
 62
   250
370
    20
100
AcDbSpline
210
0.0
220
0.0
230
1.0
 70
    11
 71
     3
 72
    11
 73
     7
 74
     0
 42
0.0000000001
 43
0.0000000001
 40
0.0
 40
0.0
 40
0.0
 40
0.0
 40
0.5
 40
0.5
 40
0.5
 40
1.0
 40
1.0
 40
1.0
 40
1.0
 10
77.3058
 20
49.2109
 30
0.0
 10
155.7804
 20
223.3174
 30
0.0
 10
266.9065
 20
189.5147
 30
0.0
 10
220.7709
 20
125.5738
 30
0.0
 10
167.9756
 20
111.8733
 30
0.0
 10
115.6332
 20
85.7064
 30
0.0
 10
77.3058
 20
49.2109
 30
0.0
  0
SPLINE
  5
C6
330
1F
100
AcDbEntity
  8
Layer 1
 62
   250
370
    20
100
AcDbSpline
210
0.0
220
0.0
230
1.0
 70
    11
 71
     3
 72
    11
 73
     7
 74
     0
 42
0.0000000001
 43
0.0000000001
 40
0.0
 40
0.0
 40
0.0
 40
0.0
 40
0.5
 40
0.5
 40
0.5
 40
1.0
 40
1.0
 40
1.0
 40
1.0
 10
77.4835
 20
15.2185
 30
0.0
 10
266.4469
 20
170.9502
 30
0.0
 10
318.208
 20
51.6776
 30
0.0
 10
257.0672
 20
25.2391
 30
0.0
 10
198.4117
 20
32.7264
 30
0.0
 10
140.3593
 20
17.4188
 30
0.0
 10
77.4835
 20
15.2185
 30
0.0
  0
SPLINE
  5
C7
330
1F
100
AcDbEntity
  8
Layer 1
 62
   250
370
    20
100
AcDbSpline
210
0.0
220
0.0
230
1.0
 70
    11
 71
     3
 72
    11
 73
     7
 74
     0
 42
0.0000000001
 43
0.0000000001
 40
0.0
 40
0.0
 40
0.0
 40
0.0
 40
0.5
 40
0.5
 40
0.5
 40
1.0
 40
1.0
 40
1.0
 40
1.0
 10
-66.6782
 20
223.4273
 30
0.0
 10
-60.4681
 20
302.3337
 30
0.0
 10
13.6774
 20
208.3572
 30
0.0
 10
-42.5168
 20
90.5746
 30
0.0
 10
-41.4486
 20
143.0164
 30
0.0
 10
-49.6669
 20
187.922
 30
0.0
 10
-66.6782
 20
223.4273
 30
0.0
  0
SPLINE
  5
C8
330
1F
100
AcDbEntity
  8
Layer 1
 62
   250
370
    20
100
AcDbSpline
210
0.0
220
0.0
230
1.0
 70
    11
 71
     3
 72
    11
 73
     7
 74
     0
 42
0.0000000001
 43
0.0000000001
 40
0.0
 40
0.0
 40
0.0
 40
0.0
 40
0.5
 40
0.5
 40
0.5
 40
1.0
 40
1.0
 40
1.0
 40
1.0
 10
77.4835
 20
-15.2712
 30
0.0
 10
140.3593
 20
-17.4727
 30
0.0
 10
198.4117
 20
-32.7803
 30
0.0
 10
257.0672
 20
-25.2928
 30
0.0
 10
318.208
 20
-51.7304
 30
0.0
 10
266.4469
 20
-171.0041
 30
0.0
 10
77.4835
 20
-15.2712
 30
0.0
  0
SPLINE
  5
C9
330
1F
100
AcDbEntity
  8
Layer 1
 62
   250
370
    20
100
AcDbSpline
210
0.0
220
0.0
230
1.0
 70
    11
 71
     3
 72
    11
 73
     7
 74
     0
 42
0.0000000001
 43
0.0000000001
 40
0.0
 40
0.0
 40
0.0
 40
0.0
 40
0.5
 40
0.5
 40
0.5
 40
1.0
 40
1.0
 40
1.0
 40
1.0
 10
77.3058
 20
-49.2637
 30
0.0
 10
115.6332
 20
-85.7592
 30
0.0
 10
167.9756
 20
-111.9261
 30
0.0
 10
220.7709
 20
-125.6265
 30
0.0
 10
266.9065
 20
-189.5686
 30
0.0
 10
155.7804
 20
-223.3702
 30
0.0
 10
77.3058
 20
-49.2637
 30
0.0
  0
SPLINE
  5
CA
330
1F
100
AcDbEntity
  8
Layer 1
 62
   250
370
    20
100
AcDbSpline
210
0.0
220
0.0
230
1.0
 70
    11
 71
     3
 72
    11
 73
     7
 74
     0
 42
0.0000000001
 43
0.0000000001
 40
0.0
 40
0.0
 40
0.0
 40
0.0
 40
0.5
 40
0.5
 40
0.5
 40
1.0
 40
1.0
 40
1.0
 40
1.0
 10
66.4551
 20
-82.8859
 30
0.0
 10
82.0768
 20
-120.83
 30
0.0
 10
107.6957
 20
-156.2574
 30
0.0
 10
138.1877
 20
-186.0338
 30
0.0
 10
160.0337
 20
-262.6756
 30
0.0
 10
65.1357
 20
-246.9119
 30
0.0
 10
66.4551
 20
-82.8859
 30
0.0
  0
SPLINE
  5
CB
330
1F
100
AcDbEntity
  8
Layer 1
 62
   250
370
    20
100
AcDbSpline
210
0.0
220
0.0
230
1.0
 70
    11
 71
     3
 72
    11
 73
     7
 74
     0
 42
0.0000000001
 43
0.0000000001
 40
0.0
 40
0.0
 40
0.0
 40
0.0
 40
0.5
 40
0.5
 40
0.5
 40
1.0
 40
1.0
 40
1.0
 40
1.0
 10
-42.5168
 20
-90.6274
 30
0.0
 10
13.6774
 20
-208.41
 30
0.0
 10
-60.4681
 20
-302.3865
 30
0.0
 10
-66.6782
 20
-223.4812
 30
0.0
 10
-49.6669
 20
-187.9759
 30
0.0
 10
-41.4486
 20
-143.0692
 30
0.0
 10
-42.5168
 20
-90.6274
 30
0.0
  0
SPLINE
  5
CC
330
1F
100
AcDbEntity
  8
Layer 1
 62
   250
370
    20
100
AcDbSpline
210
0.0
220
0.0
230
1.0
 70
    11
 71
     3
 72
    11
 73
     7
 74
     0
 42
0.0000000001
 43
0.0000000001
 40
0.0
 40
0.0
 40
0.0
 40
0.0
 40
0.5
 40
0.5
 40
0.5
 40
1.0
 40
1.0
 40
1.0
 40
1.0
 10
42.4178
 20
-90.6274
 30
0.0
 10
41.3484
 20
-143.0692
 30
0.0
 10
49.5667
 20
-187.9759
 30
0.0
 10
66.578
 20
-223.4812
 30
0.0
 10
60.3691
 20
-302.3865
 30
0.0
 10
-13.7775
 20
-208.41
 30
0.0
 10
42.4178
 20
-90.6274
 30
0.0
  0
SPLINE
  5
CD
330
1F
100
AcDbEntity
  8
Layer 1
 62
   250
370
    20
100
AcDbSpline
210
0.0
220
0.0
230
1.0
 70
    11
 71
     3
 72
    11
 73
     7
 74
     0
 42
0.0000000001
 43
0.0000000001
 40
0.0
 40
0.0
 40
0.0
 40
0.0
 40
0.5
 40
0.5
 40
0.5
 40
1.0
 40
1.0
 40
1.0
 40
1.0
 10
-138.2878
 20
185.981
 30
0.0
 10
-160.1338
 20
262.6229
 30
0.0
 10
-65.236
 20
246.858
 30
0.0
 10
-66.5553
 20
82.8331
 30
0.0
 10
-82.177
 20
120.7772
 30
0.0
 10
-107.7959
 20
156.2036
 30
0.0
 10
-138.2878
 20
185.981
 30
0.0
  0
SPLINE
  5
CE
330
1F
100
AcDbEntity
  8
Layer 1
 62
   250
370
    20
100
AcDbSpline
210
0.0
220
0.0
230
1.0
 70
    11
 71
     3
 72
    11
 73
     7
 74
     0
 42
0.0000000001
 43
0.0000000001
 40
0.0
 40
0.0
 40
0.0
 40
0.0
 40
0.5
 40
0.5
 40
0.5
 40
1.0
 40
1.0
 40
1.0
 40
1.0
 10
-220.871
 20
125.5738
 30
0.0
 10
-267.0066
 20
189.5147
 30
0.0
 10
-155.8805
 20
223.3174
 30
0.0
 10
-77.406
 20
49.2109
 30
0.0
 10
-115.7335
 20
85.7064
 30
0.0
 10
-168.0757
 20
111.8733
 30
0.0
 10
-220.871
 20
125.5738
 30
0.0
  0
SPLINE
  5
CF
330
1F
100
AcDbEntity
  8
Layer 1
 62
   250
370
    20
100
AcDbSpline
210
0.0
220
0.0
230
1.0
 70
    11
 71
     3
 72
    11
 73
     7
 74
     0
 42
0.0000000001
 43
0.0000000001
 40
0.0
 40
0.0
 40
0.0
 40
0.0
 40
0.5
 40
0.5
 40
0.5
 40
1.0
 40
1.0
 40
1.0
 40
1.0
 10
-257.1673
 20
25.2391
 30
0.0
 10
-318.3081
 20
51.6776
 30
0.0
 10
-266.5471
 20
170.9502
 30
0.0
 10
-77.5836
 20
15.2185
 30
0.0
 10
-140.4596
 20
17.4188
 30
0.0
 10
-198.5118
 20
32.7264
 30
0.0
 10
-257.1673
 20
25.2391
 30
0.0
  0
SPLINE
  5
D0
330
1F
100
AcDbEntity
  8
Layer 1
 62
   250
370
    20
100
AcDbSpline
210
0.0
220
0.0
230
1.0
 70
    11
 71
     3
 72
    11
 73
     7
 74
     0
 42
0.0000000001
 43
0.0000000001
 40
0.0
 40
0.0
 40
0.0
 40
0.0
 40
0.5
 40
0.5
 40
0.5
 40
1.0
 40
1.0
 40
1.0
 40
1.0
 10
-77.406
 20
-49.2637
 30
0.0
 10
-155.8805
 20
-223.3702
 30
0.0
 10
-267.0066
 20
-189.5686
 30
0.0
 10
-220.871
 20
-125.6265
 30
0.0
 10
-168.0757
 20
-111.9261
 30
0.0
 10
-115.7335
 20
-85.7592
 30
0.0
 10
-77.406
 20
-49.2637
 30
0.0
  0
SPLINE
  5
D1
330
1F
100
AcDbEntity
  8
Layer 1
 62
   250
370
    20
100
AcDbSpline
210
0.0
220
0.0
230
1.0
 70
    11
 71
     3
 72
    11
 73
     7
 74
     0
 42
0.0000000001
 43
0.0000000001
 40
0.0
 40
0.0
 40
0.0
 40
0.0
 40
0.5
 40
0.5
 40
0.5
 40
1.0
 40
1.0
 40
1.0
 40
1.0
 10
-257.1673
 20
-25.2928
 30
0.0
 10
-198.5118
 20
-32.7803
 30
0.0
 10
-140.4596
 20
-17.4727
 30
0.0
 10
-77.5836
 20
-15.2712
 30
0.0
 10
-266.5471
 20
-171.0041
 30
0.0
 10
-318.3081
 20
-51.7304
 30
0.0
 10
-257.1673
 20
-25.2928
 30
0.0
  0
SPLINE
  5
D2
330
1F
100
AcDbEntity
  8
Layer 1
 62
   250
370
    20
100
AcDbSpline
210
0.0
220
0.0
230
1.0
 70
    11
 71
     3
 72
    11
 73
     7
 74
     0
 42
0.0000000001
 43
0.0000000001
 40
0.0
 40
0.0
 40
0.0
 40
0.0
 40
0.5
 40
0.5
 40
0.5
 40
1.0
 40
1.0
 40
1.0
 40
1.0
 10
-66.5553
 20
-82.8859
 30
0.0
 10
-65.236
 20
-246.9119
 30
0.0
 10
-160.1338
 20
-262.6756
 30
0.0
 10
-138.2878
 20
-186.0338
 30
0.0
 10
-107.7959
 20
-156.2574
 30
0.0
 10
-82.177
 20
-120.83
 30
0.0
 10
-66.5553
 20
-82.8859
 30
0.0
  0
ENDSEC
  0
SECTION
  2
OBJECTS
  0
DICTIONARY
  5
C
330
0
100
AcDbDictionary
281
     1
  3
ACAD_DETAILVIEWSTYLE
350
DA
  3
ACAD_GROUP
350
D
  3
ACAD_LAYOUT
350
1A
  3
ACAD_MATERIAL
350
43
  3
ACAD_MLEADERSTYLE
350
5B
  3
ACAD_MLINESTYLE
350
17
  3
ACAD_PLOTSETTINGS
350
19
  3
ACAD_PLOTSTYLENAME
350
E
  3
ACAD_SCALELIST
350
47
  3
ACAD_SECTIONVIEWSTYLE
350
DB
  3
ACAD_TABLESTYLE
350
59
  3
ACAD_VISUALSTYLE
350
2A
  3
ACDB_RECOMPOSE_DATA
350
D7
  3
AcDbVariableDictionary
350
D3
  0
SUN
  5
5D
330
29
100
AcDbSun
 90
        1
290
     0
 63
     7
421
 16777215
 40
1.0
291
     1
 91
  2455826
 92
 54000000
292
     0
 70
     2
 71
   256
280
     1
  0
DICTIONARY
  5
DA
102
{ACAD_REACTORS
330
C
102
}
330
C
100
AcDbDictionary
281
     1
  0
DICTIONARY
  5
D
102
{ACAD_REACTORS
330
C
102
}
330
C
100
AcDbDictionary
281
     1
  0
DICTIONARY
  5
1A
102
{ACAD_REACTORS
330
C
102
}
330
C
100
AcDbDictionary
281
     1
  3
Layout1
350
1E
  3
Layout2
350
26
  3
Model
350
22
  0
DICTIONARY
  5
43
102
{ACAD_REACTORS
330
C
102
}
330
C
100
AcDbDictionary
281
     1
  3
ByBlock
350
45
  3
ByLayer
350
44
  3
Global
350
46
  0
DICTIONARY
  5
5B
102
{ACAD_REACTORS
330
C
102
}
330
C
100
AcDbDictionary
281
     1
  3
Standard
350
5C
  0
DICTIONARY
  5
17
102
{ACAD_REACTORS
330
C
102
}
330
C
100
AcDbDictionary
281
     1
  3
Standard
350
18
  0
DICTIONARY
  5
19
102
{ACAD_REACTORS
330
C
102
}
330
C
100
AcDbDictionary
281
     1
  0
ACDBDICTIONARYWDFLT
  5
E
102
{ACAD_REACTORS
330
C
102
}
330
C
100
AcDbDictionary
281
     1
  3
Normal
350
F
100
AcDbDictionaryWithDefault
340
F
  0
DICTIONARY
  5
47
102
{ACAD_REACTORS
330
C
102
}
330
C
100
AcDbDictionary
281
     1
  3
A0
350
48
  3
A1
350
49
  3
A2
350
4A
  3
A3
350
4B
  3
A4
350
4C
  3
A5
350
4D
  3
A6
350
4E
  3
A7
350
4F
  3
A8
350
50
  3
A9
350
51
  3
B1
350
52
  3
B2
350
53
  3
B3
350
54
  3
B4
350
55
  3
B5
350
56
  3
B6
350
57
  3
B7
350
58
  0
DICTIONARY
  5
DB
102
{ACAD_REACTORS
330
C
102
}
330
C
100
AcDbDictionary
281
     1
  0
DICTIONARY
  5
59
102
{ACAD_REACTORS
330
C
102
}
330
C
100
AcDbDictionary
281
     1
  3
Standard
350
5A
  0
DICTIONARY
  5
2A
102
{ACAD_REACTORS
330
C
102
}
330
C
100
AcDbDictionary
281
     1
  3
2dWireframe
350
2F
  3
Basic
350
32
  3
Brighten
350
36
  3
ColorChange
350
3A
  3
Conceptual
350
34
  3
Dim
350
35
  3
EdgeColorOff
350
3D
  3
Facepattern
350
39
  3
Flat
350
2B
  3
FlatWithEdges
350
2C
  3
Gouraud
350
2D
  3
GouraudWithEdges
350
2E
  3
Hidden
350
31
  3
JitterOff
350
3B
  3
Linepattern
350
38
  3
OverhangOff
350
3C
  3
Realistic
350
33
  3
Shaded
350
42
  3
Shaded with edges
350
41
  3
Shades of Gray
350
3E
  3
Sketchy
350
3F
  3
Thicken
350
37
  3
Wireframe
350
30
  3
X-Ray
350
40
  0
XRECORD
  5
D7
102
{ACAD_REACTORS
330
C
102
}
330
C
100
AcDbXrecord
280
     1
 90
        1
330
5A
  0
DICTIONARY
  5
D3
102
{ACAD_REACTORS
330
C
102
}
330
C
100
AcDbDictionary
281
     1
  3
CANNOSCALE
350
D4
  3
CMLEADERSTYLE
350
D9
  3
CTABLESTYLE
350
D8
  0
LAYOUT
  5
1E
102
{ACAD_REACTORS
330
1A
102
}
330
1A
100
AcDbPlotSettings
  1

  2
none_device
  4

  6

 40
0.0
 41
0.0
 42
0.0
 43
0.0
 44
0.0
 45
0.0
 46
0.0
 47
0.0
 48
0.0
 49
0.0
140
0.0
141
0.0
142
1.0
143
1.0
 70
   688
 72
     0
 73
     0
 74
     5
  7

 75
    16
 76
     0
 77
     2
 78
   300
147
1.0
148
0.0
149
0.0
100
AcDbLayout
  1
Layout1
 70
     1
 71
     1
 10
0.0
 20
0.0
 11
12.0
 21
9.0
 12
0.0
 22
0.0
 32
0.0
 14
1.000000000000000E+20
 24
1.000000000000000E+20
 34
1.000000000000000E+20
 15
-1.000000000000000E+20
 25
-1.000000000000000E+20
 35
-1.000000000000000E+20
146
0.0
 13
0.0
 23
0.0
 33
0.0
 16
1.0
 26
0.0
 36
0.0
 17
0.0
 27
1.0
 37
0.0
 76
     0
330
1B
  0
LAYOUT
  5
26
102
{ACAD_REACTORS
330
1A
102
}
330
1A
100
AcDbPlotSettings
  1

  2
none_device
  4

  6

 40
0.0
 41
0.0
 42
0.0
 43
0.0
 44
0.0
 45
0.0
 46
0.0
 47
0.0
 48
0.0
 49
0.0
140
0.0
141
0.0
142
1.0
143
1.0
 70
   688
 72
     0
 73
     0
 74
     5
  7

 75
    16
 76
     0
 77
     2
 78
   300
147
1.0
148
0.0
149
0.0
100
AcDbLayout
  1
Layout2
 70
     1
 71
     2
 10
0.0
 20
0.0
 11
0.0
 21
0.0
 12
0.0
 22
0.0
 32
0.0
 14
0.0
 24
0.0
 34
0.0
 15
0.0
 25
0.0
 35
0.0
146
0.0
 13
0.0
 23
0.0
 33
0.0
 16
1.0
 26
0.0
 36
0.0
 17
0.0
 27
1.0
 37
0.0
 76
     0
330
23
  0
LAYOUT
  5
22
102
{ACAD_REACTORS
330
1A
102
}
330
1A
100
AcDbPlotSettings
  1

  2
none_device
  4
Letter_(8.50_x_11.00_Inches)
  6

 40
6.35
 41
6.35
 42
6.35000508
 43
6.35000508
 44
215.9
 45
279.4
 46
0.0
 47
0.0
 48
0.0
 49
0.0
140
0.0
141
0.0
142
1.0
143
1.0
 70
  1712
 72
     0
 73
     0
 74
     0
  7

 75
     0
 76
     0
 77
     2
 78
   300
147
1.0
148
0.0
149
0.0
100
AcDbLayout
  1
Model
 70
     1
 71
     0
 10
0.0
 20
0.0
 11
12.0
 21
9.0
 12
0.0
 22
0.0
 32
0.0
 14
-1200.15
 24
-590.1266
 34
0.0
 15
1200.05
 25
590.0734
 35
0.0
146
0.0
 13
0.0
 23
0.0
 33
0.0
 16
1.0
 26
0.0
 36
0.0
 17
0.0
 27
1.0
 37
0.0
 76
     0
330
1F
331
29
  0
MATERIAL
  5
45
102
{ACAD_REACTORS
330
43
102
}
330
43
100
AcDbMaterial
  1
ByBlock
 72
     1
 94
      127
  0
MATERIAL
  5
44
102
{ACAD_REACTORS
330
43
102
}
330
43
100
AcDbMaterial
  1
ByLayer
 72
     1
 94
      127
  0
MATERIAL
  5
46
102
{ACAD_REACTORS
330
43
102
}
330
43
100
AcDbMaterial
  1
Global
 72
     1
 94
      127
  0
MLEADERSTYLE
  5
5C
102
{ACAD_REACTORS
330
5B
102
}
330
5B
100
AcDbMLeaderStyle
179
     2
170
     2
171
     1
172
     0
 90
        2
 40
0.0
 41
0.0
173
     1
 91
-1056964608
340
14
 92
       -2
290
     1
 42
0.09
291
     1
 43
0.36
  3
Standard
341
0
 44
0.18
300

342
11
174
     1
178
     6
175
     1
176
     0
 93
-1056964608
 45
0.18
292
     0
297
     0
 46
0.18
343
0
 94
-1056964608
 47
1.0
 49
1.0
140
1.0
293
     1
141
0.0
294
     1
177
     0
142
1.0
295
     0
296
     0
143
0.125
271
     0
272
     9
273
     9
298
     0
  0
MLINESTYLE
  5
18
102
{ACAD_REACTORS
330
17
102
}
330
17
100
AcDbMlineStyle
  2
Standard
 70
     0
  3

 62
   256
 51
90.0
 52
90.0
 71
     2
 49
0.5
 62
   256
  6
BYLAYER
 49
-0.5
 62
   256
  6
BYLAYER
  0
ACDBPLACEHOLDER
  5
F
102
{ACAD_REACTORS
330
E
102
}
330
E
  0
SCALE
  5
48
102
{ACAD_REACTORS
330
47
102
}
330
47
100
AcDbScale
 70
     0
300
1:1
140
1.0
141
1.0
290
     1
  0
SCALE
  5
49
102
{ACAD_REACTORS
330
47
102
}
330
47
100
AcDbScale
 70
     0
300
1/128" = 1'-0"
140
0.0078125
141
12.0
290
     0
  0
SCALE
  5
4A
102
{ACAD_REACTORS
330
47
102
}
330
47
100
AcDbScale
 70
     0
300
1/64" = 1'-0"
140
0.015625
141
12.0
290
     0
  0
SCALE
  5
4B
102
{ACAD_REACTORS
330
47
102
}
330
47
100
AcDbScale
 70
     0
300
1/32" = 1'-0"
140
0.03125
141
12.0
290
     0
  0
SCALE
  5
4C
102
{ACAD_REACTORS
330
47
102
}
330
47
100
AcDbScale
 70
     0
300
1/16" = 1'-0"
140
0.0625
141
12.0
290
     0
  0
SCALE
  5
4D
102
{ACAD_REACTORS
330
47
102
}
330
47
100
AcDbScale
 70
     0
300
3/32" = 1'-0"
140
0.09375
141
12.0
290
     0
  0
SCALE
  5
4E
102
{ACAD_REACTORS
330
47
102
}
330
47
100
AcDbScale
 70
     0
300
1/8" = 1'-0"
140
0.125
141
12.0
290
     0
  0
SCALE
  5
4F
102
{ACAD_REACTORS
330
47
102
}
330
47
100
AcDbScale
 70
     0
300
3/16" = 1'-0"
140
0.1875
141
12.0
290
     0
  0
SCALE
  5
50
102
{ACAD_REACTORS
330
47
102
}
330
47
100
AcDbScale
 70
     0
300
1/4" = 1'-0"
140
0.25
141
12.0
290
     0
  0
SCALE
  5
51
102
{ACAD_REACTORS
330
47
102
}
330
47
100
AcDbScale
 70
     0
300
3/8" = 1'-0"
140
0.375
141
12.0
290
     0
  0
SCALE
  5
52
102
{ACAD_REACTORS
330
47
102
}
330
47
100
AcDbScale
 70
     0
300
1/2" = 1'-0"
140
0.5
141
12.0
290
     0
  0
SCALE
  5
53
102
{ACAD_REACTORS
330
47
102
}
330
47
100
AcDbScale
 70
     0
300
3/4" = 1'-0"
140
0.75
141
12.0
290
     0
  0
SCALE
  5
54
102
{ACAD_REACTORS
330
47
102
}
330
47
100
AcDbScale
 70
     0
300
1" = 1'-0"
140
1.0
141
12.0
290
     0
  0
SCALE
  5
55
102
{ACAD_REACTORS
330
47
102
}
330
47
100
AcDbScale
 70
     0
300
1-1/2" = 1'-0"
140
1.5
141
12.0
290
     0
  0
SCALE
  5
56
102
{ACAD_REACTORS
330
47
102
}
330
47
100
AcDbScale
 70
     0
300
3" = 1'-0"
140
3.0
141
12.0
290
     0
  0
SCALE
  5
57
102
{ACAD_REACTORS
330
47
102
}
330
47
100
AcDbScale
 70
     0
300
6" = 1'-0"
140
6.0
141
12.0
290
     0
  0
SCALE
  5
58
102
{ACAD_REACTORS
330
47
102
}
330
47
100
AcDbScale
 70
     0
300
1'-0" = 1'-0"
140
12.0
141
12.0
290
     0
  0
TABLESTYLE
  5
5A
102
{ACAD_REACTORS
330
59
102
}
102
{ACAD_XDICTIONARY
360
D5
102
}
330
59
100
AcDbTableStyle
  3
Standard
 70
     0
 71
     0
 40
0.06
 41
0.06
280
     0
281
     0
  7
Standard
140
0.18
170
     2
 62
     0
 63
   257
283
     0
 90
        4
 91
        0
  1

274
    -2
284
     1
 64
     0
275
    -2
285
     1
 65
     0
276
    -2
286
     1
 66
     0
277
    -2
287
     1
 67
     0
278
    -2
288
     1
 68
     0
279
    -2
289
     1
 69
     0
  7
Standard
140
0.25
170
     5
 62
     0
 63
   257
283
     0
 90
        4
 91
        0
  1

274
    -2
284
     1
 64
     0
275
    -2
285
     1
 65
     0
276
    -2
286
     1
 66
     0
277
    -2
287
     1
 67
     0
278
    -2
288
     1
 68
     0
279
    -2
289
     1
 69
     0
  7
Standard
140
0.18
170
     5
 62
     0
 63
   257
283
     0
 90
        4
 91
        0
  1

274
    -2
284
     1
 64
     0
275
    -2
285
     1
 65
     0
276
    -2
286
     1
 66
     0
277
    -2
287
     1
 67
     0
278
    -2
288
     1
 68
     0
279
    -2
289
     1
 69
     0
  0
VISUALSTYLE
  5
2F
102
{ACAD_REACTORS
330
2A
102
}
330
2A
100
AcDbVisualStyle
  2
2dWireframe
 70
     4
177
     3
291
     0
 70
    58
 90
        0
176
     1
 90
        2
176
     1
 90
        0
176
     1
 90
        0
176
     1
 40
0.6
176
     1
 40
30.0
176
     1
 62
     7
420
 16777215
176
     1
 90
        1
176
     1
 90
        4
176
     1
 62
     7
176
     1
 62
   257
176
     1
 90
        1
176
     1
 90
        1
176
     1
 40
1.0
176
     1
 90
        0
176
     1
 62
   257
176
     1
 40
1.0
176
     1
 90
        1
176
     1
 90
        6
176
     1
 90
        2
176
     1
 62
     7
176
     1
 90
        5
176
     1
 90
        0
176
     1
 90
        0
176
     1
290
     0
176
     1
 90
        1
176
     1
 40
0.0
176
     1
 90
        0
176
     1
290
     1
176
     1
290
     1
176
     1
290
     0
176
     1
290
     0
176
     1
290
     0
176
     1
290
     0
176
     1
290
     0
176
     1
290
     0
176
     1
290
     0
176
     1
 90
       50
176
     1
 40
0.0
176
     1
 40
1.0
176
     1
 90
        0
176
     1
 62
    18
420
        0
176
     1
 90
       50
176
     1
 90
        3
176
     1
 62
     5
420
      255
176
     1
290
     0
176
     1
 90
       50
176
     1
 90
       50
176
     1
 90
       50
176
     1
290
     0
176
     1
 90
       50
176
     1
 62
   256
176
     0
 40
1.0
176
     0
 90
        2
176
     1
  1
strokes_ogs.tif
176
     1
290
     0
176
     1
 40
1.0
176
     1
 40
1.0
176
     1
  0
VISUALSTYLE
  5
32
102
{ACAD_REACTORS
330
2A
102
}
330
2A
100
AcDbVisualStyle
  2
Basic
 70
     7
177
     3
291
     1
 70
    58
 90
        1
176
     1
 90
        0
176
     1
 90
        1
176
     1
 90
        0
176
     1
 40
0.6
176
     1
 40
30.0
176
     1
 62
     7
420
 16777215
176
     1
 90
        0
176
     1
 90
        4
176
     1
 62
     7
176
     1
 62
   257
176
     1
 90
        1
176
     1
 90
        1
176
     1
 40
1.0
176
     1
 90
        8
176
     1
 62
     7
176
     1
 40
1.0
176
     1
 90
        1
176
     1
 90
        6
176
     1
 90
        2
176
     1
 62
     7
176
     1
 90
        5
176
     1
 90
        0
176
     1
 90
        0
176
     1
290
     0
176
     1
 90
        1
176
     1
 40
0.0
176
     1
 90
        0
176
     1
290
     0
176
     1
290
     1
176
     1
290
     1
176
     1
290
     0
176
     1
290
     0
176
     1
290
     0
176
     1
290
     0
176
     1
290
     0
176
     1
290
     0
176
     1
 90
       50
176
     1
 40
0.0
176
     1
 40
1.0
176
     1
 90
        0
176
     1
 62
    18
420
        0
176
     1
 90
       50
176
     1
 90
        3
176
     1
 62
     5
420
      255
176
     1
290
     0
176
     1
 90
       50
176
     1
 90
       50
176
     1
 90
       50
176
     1
290
     0
176
     1
 90
       50
176
     1
 62
   256
176
     0
 40
1.0
176
     0
 90
        2
176
     1
  1
strokes_ogs.tif
176
     1
290
     0
176
     1
 40
1.0
176
     1
 40
1.0
176
     1
  0
VISUALSTYLE
  5
36
102
{ACAD_REACTORS
330
2A
102
}
330
2A
100
AcDbVisualStyle
  2
Brighten
 70
    12
177
     3
291
     1
 70
    58
 90
        2
176
     1
 90
        2
176
     1
 90
        0
176
     1
 90
        0
176
     1
 40
0.6
176
     1
 40
30.0
176
     1
 62
     7
420
 16777215
176
     1
 90
        1
176
     1
 90
        4
176
     1
 62
     7
176
     1
 62
   257
176
     1
 90
        1
176
     1
 90
        1
176
     1
 40
1.0
176
     1
 90
        8
176
     1
 62
     7
176
     1
 40
1.0
176
     1
 90
        1
176
     1
 90
        6
176
     1
 90
        2
176
     1
 62
     7
176
     1
 90
        5
176
     1
 90
        0
176
     1
 90
        0
176
     1
290
     0
176
     1
 90
        1
176
     1
 40
50.0
176
     1
 90
        0
176
     1
290
     0
176
     1
290
     1
176
     1
290
     1
176
     1
290
     0
176
     1
290
     0
176
     1
290
     0
176
     1
290
     0
176
     1
290
     0
176
     1
290
     0
176
     1
 90
       50
176
     1
 40
0.0
176
     1
 40
1.0
176
     1
 90
        0
176
     1
 62
    18
420
        0
176
     1
 90
       50
176
     1
 90
        3
176
     1
 62
     5
420
      255
176
     1
290
     0
176
     1
 90
       50
176
     1
 90
       50
176
     1
 90
       50
176
     1
290
     0
176
     1
 90
       50
176
     1
 62
   256
176
     0
 40
1.0
176
     0
 90
        2
176
     1
  1
strokes_ogs.tif
176
     1
290
     0
176
     1
 40
1.0
176
     1
 40
1.0
176
     1
  0
VISUALSTYLE
  5
3A
102
{ACAD_REACTORS
330
2A
102
}
330
2A
100
AcDbVisualStyle
  2
ColorChange
 70
    16
177
     3
291
     1
 70
    58
 90
        2
176
     1
 90
        2
176
     1
 90
        3
176
     1
 90
        0
176
     1
 40
0.6
176
     1
 40
30.0
176
     1
 62
     8
420
  8421504
176
     1
 90
        1
176
     1
 90
        4
176
     1
 62
     7
176
     1
 62
   257
176
     1
 90
        1
176
     1
 90
        1
176
     1
 40
1.0
176
     1
 90
        8
176
     1
 62
     8
420
  8421504
176
     1
 40
1.0
176
     1
 90
        1
176
     1
 90
        6
176
     1
 90
        2
176
     1
 62
     7
176
     1
 90
        5
176
     1
 90
        0
176
     1
 90
        0
176
     1
290
     0
176
     1
 90
        1
176
     1
 40
0.0
176
     1
 90
        0
176
     1
290
     0
176
     1
290
     1
176
     1
290
     1
176
     1
290
     0
176
     1
290
     0
176
     1
290
     0
176
     1
290
     0
176
     1
290
     0
176
     1
290
     0
176
     1
 90
       50
176
     1
 40
0.0
176
     1
 40
1.0
176
     1
 90
        0
176
     1
 62
    18
420
        0
176
     1
 90
       50
176
     1
 90
        3
176
     1
 62
     5
420
      255
176
     1
290
     0
176
     1
 90
       50
176
     1
 90
       50
176
     1
 90
       50
176
     1
290
     0
176
     1
 90
       50
176
     1
 62
   256
176
     0
 40
1.0
176
     0
 90
        2
176
     1
  1
strokes_ogs.tif
176
     1
290
     0
176
     1
 40
1.0
176
     1
 40
1.0
176
     1
  0
VISUALSTYLE
  5
34
102
{ACAD_REACTORS
330
2A
102
}
330
2A
100
AcDbVisualStyle
  2
Conceptual
 70
     9
177
     3
291
     0
 70
    58
 90
        3
176
     1
 90
        2
176
     1
 90
        0
176
     1
 90
        0
176
     1
 40
0.6
176
     1
 40
30.0
176
     1
 62
     7
420
 16777215
176
     1
 90
        2
176
     1
 90
        2
176
     1
 62
     7
176
     1
 62
   257
176
     1
 90
        1
176
     1
 90
        1
176
     1
 40
179.0
176
     1
 90
        8
176
     1
 62
     7
176
     1
 40
1.0
176
     1
 90
        1
176
     1
 90
        6
176
     1
 90
        2
176
     1
 62
     7
176
     1
 90
        3
176
     1
 90
        0
176
     1
 90
        0
176
     1
290
     0
176
     1
 90
        1
176
     1
 40
0.0
176
     1
 90
        0
176
     1
290
     0
176
     1
290
     1
176
     1
290
     1
176
     1
290
     0
176
     1
290
     0
176
     1
290
     0
176
     1
290
     0
176
     1
290
     0
176
     1
290
     0
176
     1
 90
       50
176
     1
 40
0.0
176
     1
 40
1.0
176
     1
 90
        0
176
     1
 62
    18
420
        0
176
     1
 90
       50
176
     1
 90
        3
176
     1
 62
     5
420
      255
176
     1
290
     0
176
     1
 90
       50
176
     1
 90
       50
176
     1
 90
       50
176
     1
290
     0
176
     1
 90
       50
176
     1
 62
   256
176
     0
 40
1.0
176
     0
 90
        2
176
     1
  1
strokes_ogs.tif
176
     1
290
     0
176
     1
 40
1.0
176
     1
 40
1.0
176
     1
  0
VISUALSTYLE
  5
35
102
{ACAD_REACTORS
330
2A
102
}
330
2A
100
AcDbVisualStyle
  2
Dim
 70
    11
177
     3
291
     1
 70
    58
 90
        2
176
     1
 90
        2
176
     1
 90
        0
176
     1
 90
        0
176
     1
 40
0.6
176
     1
 40
30.0
176
     1
 62
     7
420
 16777215
176
     1
 90
        1
176
     1
 90
        4
176
     1
 62
     7
176
     1
 62
   257
176
     1
 90
        1
176
     1
 90
        1
176
     1
 40
1.0
176
     1
 90
        8
176
     1
 62
     7
176
     1
 40
1.0
176
     1
 90
        1
176
     1
 90
        6
176
     1
 90
        2
176
     1
 62
     7
176
     1
 90
        5
176
     1
 90
        0
176
     1
 90
        0
176
     1
290
     0
176
     1
 90
        1
176
     1
 40
-50.0
176
     1
 90
        0
176
     1
290
     0
176
     1
290
     1
176
     1
290
     1
176
     1
290
     0
176
     1
290
     0
176
     1
290
     0
176
     1
290
     0
176
     1
290
     0
176
     1
290
     0
176
     1
 90
       50
176
     1
 40
0.0
176
     1
 40
1.0
176
     1
 90
        0
176
     1
 62
    18
420
        0
176
     1
 90
       50
176
     1
 90
        3
176
     1
 62
     5
420
      255
176
     1
290
     0
176
     1
 90
       50
176
     1
 90
       50
176
     1
 90
       50
176
     1
290
     0
176
     1
 90
       50
176
     1
 62
   256
176
     0
 40
1.0
176
     0
 90
        2
176
     1
  1
strokes_ogs.tif
176
     1
290
     0
176
     1
 40
1.0
176
     1
 40
1.0
176
     1
  0
VISUALSTYLE
  5
3D
102
{ACAD_REACTORS
330
2A
102
}
330
2A
100
AcDbVisualStyle
  2
EdgeColorOff
 70
    22
177
     3
291
     1
 70
    58
 90
        2
176
     0
 90
        2
176
     0
 90
        0
176
     0
 90
        0
176
     0
 40
0.6
176
     0
 40
30.0
176
     0
 62
     7
420
 16777215
176
     0
 90
        1
176
     0
 90
        4
176
     0
 62
     7
176
     0
 62
   257
176
     0
 90
        1
176
     0
 90
        1
176
     0
 40
1.0
176
     0
 90
        8
176
     2
 62
     7
176
     0
 40
1.0
176
     0
 90
        1
176
     0
 90
        6
176
     0
 90
        2
176
     0
 62
     7
176
     0
 90
        5
176
     0
 90
        0
176
     0
 90
        0
176
     0
290
     0
176
     0
 90
        1
176
     0
 40
0.0
176
     0
 90
        0
176
     0
290
     0
176
     0
290
     1
176
     0
290
     1
176
     0
290
     0
176
     0
290
     0
176
     0
290
     0
176
     0
290
     0
176
     0
290
     0
176
     0
290
     0
176
     0
 90
       50
176
     0
 40
0.0
176
     0
 40
1.0
176
     0
 90
        0
176
     0
 62
    18
420
        0
176
     0
 90
       50
176
     0
 90
        3
176
     0
 62
     5
420
      255
176
     0
290
     0
176
     0
 90
       50
176
     0
 90
       50
176
     0
 90
       50
176
     0
290
     0
176
     0
 90
       50
176
     0
 62
   256
176
     0
 40
1.0
176
     0
 90
        2
176
     0
  1
strokes_ogs.tif
176
     0
290
     0
176
     0
 40
1.0
176
     0
 40
1.0
176
     0
  0
VISUALSTYLE
  5
39
102
{ACAD_REACTORS
330
2A
102
}
330
2A
100
AcDbVisualStyle
  2
Facepattern
 70
    15
177
     3
291
     1
 70
    58
 90
        2
176
     1
 90
        2
176
     1
 90
        0
176
     1
 90
        0
176
     1
 40
0.6
176
     1
 40
30.0
176
     1
 62
     7
420
 16777215
176
     1
 90
        1
176
     1
 90
        4
176
     1
 62
     7
176
     1
 62
   257
176
     1
 90
        1
176
     1
 90
        1
176
     1
 40
1.0
176
     1
 90
        8
176
     1
 62
     7
176
     1
 40
1.0
176
     1
 90
        1
176
     1
 90
        6
176
     1
 90
        2
176
     1
 62
     7
176
     1
 90
        5
176
     1
 90
        0
176
     1
 90
        0
176
     1
290
     0
176
     1
 90
        1
176
     1
 40
0.0
176
     1
 90
        0
176
     1
290
     0
176
     1
290
     1
176
     1
290
     1
176
     1
290
     0
176
     1
290
     0
176
     1
290
     0
176
     1
290
     0
176
     1
290
     0
176
     1
290
     0
176
     1
 90
       50
176
     1
 40
0.0
176
     1
 40
1.0
176
     1
 90
        0
176
     1
 62
    18
420
        0
176
     1
 90
       50
176
     1
 90
        3
176
     1
 62
     5
420
      255
176
     1
290
     0
176
     1
 90
       50
176
     1
 90
       50
176
     1
 90
       50
176
     1
290
     0
176
     1
 90
       50
176
     1
 62
   256
176
     0
 40
1.0
176
     0
 90
        2
176
     1
  1
strokes_ogs.tif
176
     1
290
     0
176
     1
 40
1.0
176
     1
 40
1.0
176
     1
  0
VISUALSTYLE
  5
2B
102
{ACAD_REACTORS
330
2A
102
}
330
2A
100
AcDbVisualStyle
  2
Flat
 70
     0
177
     3
291
     1
 70
    58
 90
        2
176
     1
 90
        1
176
     1
 90
        1
176
     1
 90
        2
176
     1
 40
0.6
176
     1
 40
30.0
176
     1
 62
     7
420
 16777215
176
     1
 90
        0
176
     1
 90
        0
176
     1
 62
     7
176
     1
 62
   257
176
     1
 90
        1
176
     1
 90
        1
176
     1
 40
1.0
176
     1
 90
        8
176
     1
 62
     7
176
     1
 40
1.0
176
     1
 90
        1
176
     1
 90
        6
176
     1
 90
        2
176
     1
 62
     7
176
     1
 90
        5
176
     1
 90
        0
176
     1
 90
        0
176
     1
290
     0
176
     1
 90
       13
176
     1
 40
0.0
176
     1
 90
        0
176
     1
290
     0
176
     1
290
     1
176
     1
290
     1
176
     1
290
     0
176
     1
290
     0
176
     1
290
     0
176
     1
290
     0
176
     1
290
     0
176
     1
290
     0
176
     1
 90
       50
176
     1
 40
0.0
176
     1
 40
1.0
176
     1
 90
        0
176
     1
 62
    18
420
        0
176
     1
 90
       50
176
     1
 90
        3
176
     1
 62
     5
420
      255
176
     1
290
     0
176
     1
 90
       50
176
     1
 90
       50
176
     1
 90
       50
176
     1
290
     0
176
     1
 90
       50
176
     1
 62
   256
176
     0
 40
1.0
176
     0
 90
        2
176
     1
  1
strokes_ogs.tif
176
     1
290
     0
176
     1
 40
1.0
176
     1
 40
1.0
176
     1
  0
VISUALSTYLE
  5
2C
102
{ACAD_REACTORS
330
2A
102
}
330
2A
100
AcDbVisualStyle
  2
FlatWithEdges
 70
     1
177
     3
291
     1
 70
    58
 90
        2
176
     1
 90
        1
176
     1
 90
        1
176
     1
 90
        2
176
     1
 40
0.6
176
     1
 40
30.0
176
     1
 62
     7
420
 16777215
176
     1
 90
        1
176
     1
 90
        0
176
     1
 62
     7
176
     1
 62
   257
176
     1
 90
        1
176
     1
 90
        1
176
     1
 40
1.0
176
     1
 90
        0
176
     1
 62
   257
176
     1
 40
1.0
176
     1
 90
        1
176
     1
 90
        6
176
     1
 90
        2
176
     1
 62
     7
176
     1
 90
        5
176
     1
 90
        0
176
     1
 90
        0
176
     1
290
     0
176
     1
 90
       13
176
     1
 40
0.0
176
     1
 90
        0
176
     1
290
     0
176
     1
290
     1
176
     1
290
     1
176
     1
290
     0
176
     1
290
     0
176
     1
290
     0
176
     1
290
     0
176
     1
290
     0
176
     1
290
     0
176
     1
 90
       50
176
     1
 40
0.0
176
     1
 40
1.0
176
     1
 90
        0
176
     1
 62
    18
420
        0
176
     1
 90
       50
176
     1
 90
        3
176
     1
 62
     5
420
      255
176
     1
290
     0
176
     1
 90
       50
176
     1
 90
       50
176
     1
 90
       50
176
     1
290
     0
176
     1
 90
       50
176
     1
 62
   256
176
     0
 40
1.0
176
     0
 90
        2
176
     1
  1
strokes_ogs.tif
176
     1
290
     0
176
     1
 40
1.0
176
     1
 40
1.0
176
     1
  0
VISUALSTYLE
  5
2D
102
{ACAD_REACTORS
330
2A
102
}
330
2A
100
AcDbVisualStyle
  2
Gouraud
 70
     2
177
     3
291
     1
 70
    58
 90
        2
176
     1
 90
        2
176
     1
 90
        1
176
     1
 90
        2
176
     1
 40
0.6
176
     1
 40
30.0
176
     1
 62
     7
420
 16777215
176
     1
 90
        0
176
     1
 90
        0
176
     1
 62
     7
176
     1
 62
   257
176
     1
 90
        1
176
     1
 90
        1
176
     1
 40
1.0
176
     1
 90
        0
176
     1
 62
     7
176
     1
 40
1.0
176
     1
 90
        1
176
     1
 90
        6
176
     1
 90
        2
176
     1
 62
     7
176
     1
 90
        5
176
     1
 90
        0
176
     1
 90
        0
176
     1
290
     0
176
     1
 90
       13
176
     1
 40
0.0
176
     1
 90
        0
176
     1
290
     0
176
     1
290
     1
176
     1
290
     1
176
     1
290
     0
176
     1
290
     0
176
     1
290
     0
176
     1
290
     0
176
     1
290
     0
176
     1
290
     0
176
     1
 90
       50
176
     1
 40
0.0
176
     1
 40
1.0
176
     1
 90
        0
176
     1
 62
    18
420
        0
176
     1
 90
       50
176
     1
 90
        3
176
     1
 62
     5
420
      255
176
     1
290
     0
176
     1
 90
       50
176
     1
 90
       50
176
     1
 90
       50
176
     1
290
     0
176
     1
 90
       50
176
     1
 62
   256
176
     0
 40
1.0
176
     0
 90
        2
176
     1
  1
strokes_ogs.tif
176
     1
290
     0
176
     1
 40
1.0
176
     1
 40
1.0
176
     1
  0
VISUALSTYLE
  5
2E
102
{ACAD_REACTORS
330
2A
102
}
330
2A
100
AcDbVisualStyle
  2
GouraudWithEdges
 70
     3
177
     3
291
     1
 70
    58
 90
        2
176
     1
 90
        2
176
     1
 90
        1
176
     1
 90
        2
176
     1
 40
0.6
176
     1
 40
30.0
176
     1
 62
     7
420
 16777215
176
     1
 90
        1
176
     1
 90
        0
176
     1
 62
     7
176
     1
 62
   257
176
     1
 90
        1
176
     1
 90
        1
176
     1
 40
1.0
176
     1
 90
        0
176
     1
 62
   257
176
     1
 40
1.0
176
     1
 90
        1
176
     1
 90
        6
176
     1
 90
        2
176
     1
 62
     7
176
     1
 90
        5
176
     1
 90
        0
176
     1
 90
        0
176
     1
290
     0
176
     1
 90
       13
176
     1
 40
0.0
176
     1
 90
        0
176
     1
290
     0
176
     1
290
     1
176
     1
290
     1
176
     1
290
     0
176
     1
290
     0
176
     1
290
     0
176
     1
290
     0
176
     1
290
     0
176
     1
290
     0
176
     1
 90
       50
176
     1
 40
0.0
176
     1
 40
1.0
176
     1
 90
        0
176
     1
 62
    18
420
        0
176
     1
 90
       50
176
     1
 90
        3
176
     1
 62
     5
420
      255
176
     1
290
     0
176
     1
 90
       50
176
     1
 90
       50
176
     1
 90
       50
176
     1
290
     0
176
     1
 90
       50
176
     1
 62
   256
176
     0
 40
1.0
176
     0
 90
        2
176
     1
  1
strokes_ogs.tif
176
     1
290
     0
176
     1
 40
1.0
176
     1
 40
1.0
176
     1
  0
VISUALSTYLE
  5
31
102
{ACAD_REACTORS
330
2A
102
}
330
2A
100
AcDbVisualStyle
  2
Hidden
 70
     6
177
     3
291
     0
 70
    58
 90
        1
176
     1
 90
        2
176
     1
 90
        2
176
     1
 90
        0
176
     1
 40
0.6
176
     1
 40
30.0
176
     1
 62
     7
420
 16777215
176
     1
 90
        2
176
     1
 90
        2
176
     1
 62
     7
176
     1
 62
   257
176
     1
 90
        2
176
     1
 90
        1
176
     1
 40
40.0
176
     1
 90
        0
176
     1
 62
   257
176
     1
 40
1.0
176
     1
 90
        1
176
     1
 90
        6
176
     1
 90
        2
176
     1
 62
     7
176
     1
 90
        3
176
     1
 90
        0
176
     1
 90
        0
176
     1
290
     0
176
     1
 90
        1
176
     1
 40
0.0
176
     1
 90
        0
176
     1
290
     0
176
     1
290
     1
176
     1
290
     1
176
     1
290
     0
176
     1
290
     0
176
     1
290
     0
176
     1
290
     0
176
     1
290
     0
176
     1
290
     0
176
     1
 90
       50
176
     1
 40
0.0
176
     1
 40
1.0
176
     1
 90
        0
176
     1
 62
    18
420
        0
176
     1
 90
       50
176
     1
 90
        3
176
     1
 62
     5
420
      255
176
     1
290
     0
176
     1
 90
       50
176
     1
 90
       50
176
     1
 90
       50
176
     1
290
     0
176
     1
 90
       50
176
     1
 62
   256
176
     0
 40
1.0
176
     0
 90
        2
176
     1
  1
strokes_ogs.tif
176
     1
290
     0
176
     1
 40
1.0
176
     1
 40
1.0
176
     1
  0
VISUALSTYLE
  5
3B
102
{ACAD_REACTORS
330
2A
102
}
330
2A
100
AcDbVisualStyle
  2
JitterOff
 70
    20
177
     3
291
     1
 70
    58
 90
        2
176
     0
 90
        2
176
     0
 90
        0
176
     0
 90
        0
176
     0
 40
0.6
176
     0
 40
30.0
176
     0
 62
     7
420
 16777215
176
     0
 90
        1
176
     0
 90
        4
176
     0
 62
     7
176
     0
 62
   257
176
     0
 90
        1
176
     0
 90
        1
176
     0
 40
1.0
176
     0
 90
       10
176
     2
 62
     7
176
     0
 40
1.0
176
     0
 90
        1
176
     0
 90
        6
176
     0
 90
        2
176
     0
 62
     7
176
     0
 90
        5
176
     0
 90
        0
176
     0
 90
        0
176
     0
290
     0
176
     0
 90
        1
176
     0
 40
0.0
176
     0
 90
        0
176
     0
290
     0
176
     0
290
     1
176
     0
290
     1
176
     0
290
     0
176
     0
290
     0
176
     0
290
     0
176
     0
290
     0
176
     0
290
     0
176
     0
290
     0
176
     0
 90
       50
176
     0
 40
0.0
176
     0
 40
1.0
176
     0
 90
        0
176
     0
 62
    18
420
        0
176
     0
 90
       50
176
     0
 90
        3
176
     0
 62
     5
420
      255
176
     0
290
     0
176
     0
 90
       50
176
     0
 90
       50
176
     0
 90
       50
176
     0
290
     0
176
     0
 90
       50
176
     0
 62
   256
176
     0
 40
1.0
176
     0
 90
        2
176
     0
  1
strokes_ogs.tif
176
     0
290
     0
176
     0
 40
1.0
176
     0
 40
1.0
176
     0
  0
VISUALSTYLE
  5
38
102
{ACAD_REACTORS
330
2A
102
}
330
2A
100
AcDbVisualStyle
  2
Linepattern
 70
    14
177
     3
291
     1
 70
    58
 90
        2
176
     1
 90
        2
176
     1
 90
        0
176
     1
 90
        0
176
     1
 40
0.6
176
     1
 40
30.0
176
     1
 62
     7
420
 16777215
176
     1
 90
        1
176
     1
 90
        4
176
     1
 62
     7
176
     1
 62
   257
176
     1
 90
        7
176
     1
 90
        7
176
     1
 40
1.0
176
     1
 90
        8
176
     1
 62
     7
176
     1
 40
1.0
176
     1
 90
        1
176
     1
 90
        6
176
     1
 90
        2
176
     1
 62
     7
176
     1
 90
        5
176
     1
 90
        0
176
     1
 90
        0
176
     1
290
     0
176
     1
 90
        1
176
     1
 40
0.0
176
     1
 90
        0
176
     1
290
     0
176
     1
290
     1
176
     1
290
     1
176
     1
290
     0
176
     1
290
     0
176
     1
290
     0
176
     1
290
     0
176
     1
290
     0
176
     1
290
     0
176
     1
 90
       50
176
     1
 40
0.0
176
     1
 40
1.0
176
     1
 90
        0
176
     1
 62
    18
420
        0
176
     1
 90
       50
176
     1
 90
        3
176
     1
 62
     5
420
      255
176
     1
290
     0
176
     1
 90
       50
176
     1
 90
       50
176
     1
 90
       50
176
     1
290
     0
176
     1
 90
       50
176
     1
 62
   256
176
     0
 40
1.0
176
     0
 90
        2
176
     1
  1
strokes_ogs.tif
176
     1
290
     0
176
     1
 40
1.0
176
     1
 40
1.0
176
     1
  0
VISUALSTYLE
  5
3C
102
{ACAD_REACTORS
330
2A
102
}
330
2A
100
AcDbVisualStyle
  2
OverhangOff
 70
    21
177
     3
291
     1
 70
    58
 90
        2
176
     0
 90
        2
176
     0
 90
        0
176
     0
 90
        0
176
     0
 40
0.6
176
     0
 40
30.0
176
     0
 62
     7
420
 16777215
176
     0
 90
        1
176
     0
 90
        4
176
     0
 62
     7
176
     0
 62
   257
176
     0
 90
        1
176
     0
 90
        1
176
     0
 40
1.0
176
     0
 90
        9
176
     2
 62
     7
176
     0
 40
1.0
176
     0
 90
        1
176
     0
 90
        6
176
     0
 90
        2
176
     0
 62
     7
176
     0
 90
        5
176
     0
 90
        0
176
     0
 90
        0
176
     0
290
     0
176
     0
 90
        1
176
     0
 40
0.0
176
     0
 90
        0
176
     0
290
     0
176
     0
290
     1
176
     0
290
     1
176
     0
290
     0
176
     0
290
     0
176
     0
290
     0
176
     0
290
     0
176
     0
290
     0
176
     0
290
     0
176
     0
 90
       50
176
     0
 40
0.0
176
     0
 40
1.0
176
     0
 90
        0
176
     0
 62
    18
420
        0
176
     0
 90
       50
176
     0
 90
        3
176
     0
 62
     5
420
      255
176
     0
290
     0
176
     0
 90
       50
176
     0
 90
       50
176
     0
 90
       50
176
     0
290
     0
176
     0
 90
       50
176
     0
 62
   256
176
     0
 40
1.0
176
     0
 90
        2
176
     0
  1
strokes_ogs.tif
176
     0
290
     0
176
     0
 40
1.0
176
     0
 40
1.0
176
     0
  0
VISUALSTYLE
  5
33
102
{ACAD_REACTORS
330
2A
102
}
330
2A
100
AcDbVisualStyle
  2
Realistic
 70
     8
177
     3
291
     0
 70
    58
 90
        2
176
     1
 90
        3
176
     1
 90
        0
176
     1
 90
        2
176
     1
 40
0.6
176
     1
 40
30.0
176
     1
 62
     7
420
 16777215
176
     1
 90
        0
176
     1
 90
        0
176
     1
 62
     7
176
     1
 62
   257
176
     1
 90
        1
176
     1
 90
        1
176
     1
 40
1.0
176
     1
 90
        8
176
     1
 62
   257
176
     1
 40
1.0
176
     1
 90
        1
176
     1
 90
        6
176
     1
 90
        2
176
     1
 62
     7
176
     1
 90
        3
176
     1
 90
        0
176
     1
 90
        0
176
     1
290
     0
176
     1
 90
       13
176
     1
 40
0.0
176
     1
 90
        0
176
     1
290
     0
176
     1
290
     1
176
     1
290
     1
176
     1
290
     0
176
     1
290
     0
176
     1
290
     0
176
     1
290
     0
176
     1
290
     0
176
     1
290
     0
176
     1
 90
       50
176
     1
 40
0.0
176
     1
 40
1.0
176
     1
 90
        0
176
     1
 62
    18
420
        0
176
     1
 90
       50
176
     1
 90
        3
176
     1
 62
     5
420
      255
176
     1
290
     0
176
     1
 90
       50
176
     1
 90
       50
176
     1
 90
       50
176
     1
290
     0
176
     1
 90
       50
176
     1
 62
   256
176
     0
 40
1.0
176
     0
 90
        2
176
     1
  1
strokes_ogs.tif
176
     1
290
     0
176
     1
 40
1.0
176
     1
 40
1.0
176
     1
  0
VISUALSTYLE
  5
42
102
{ACAD_REACTORS
330
2A
102
}
330
2A
100
AcDbVisualStyle
  2
Shaded
 70
    27
177
     3
291
     0
 70
    58
 90
        2
176
     1
 90
        2
176
     1
 90
        1
176
     1
 90
        2
176
     1
 40
0.6
176
     1
 40
30.0
176
     1
 62
     7
420
 16777215
176
     1
 90
        0
176
     1
 90
        4
176
     1
 62
     7
176
     1
 62
   257
176
     1
 90
        1
176
     1
 90
        1
176
     1
 40
1.0
176
     1
 90
        8
176
     1
 62
   257
176
     1
 40
1.0
176
     1
 90
        1
176
     1
 90
        6
176
     1
 90
        2
176
     1
 62
     8
420
  7895160
176
     1
 90
        3
176
     1
 90
        0
176
     1
 90
        0
176
     1
290
     0
176
     1
 90
        5
176
     1
 40
0.0
176
     1
 90
        0
176
     1
290
     0
176
     1
290
     1
176
     1
290
     1
176
     1
290
     0
176
     1
290
     0
176
     1
290
     0
176
     1
290
     0
176
     1
290
     0
176
     1
290
     0
176
     1
 90
       50
176
     1
 40
0.0
176
     1
 40
1.0
176
     1
 90
        0
176
     1
 62
    18
420
        0
176
     1
 90
       50
176
     1
 90
        3
176
     1
 62
     5
420
      255
176
     1
290
     0
176
     1
 90
       50
176
     1
 90
       50
176
     1
 90
       50
176
     1
290
     0
176
     1
 90
       50
176
     1
 62
   256
176
     0
 40
1.0
176
     0
 90
        2
176
     1
  1
strokes_ogs.tif
176
     1
290
     0
176
     1
 40
1.0
176
     1
 40
1.0
176
     1
  0
VISUALSTYLE
  5
41
102
{ACAD_REACTORS
330
2A
102
}
330
2A
100
AcDbVisualStyle
  2
Shaded with edges
 70
    26
177
     3
291
     0
 70
    58
 90
        2
176
     1
 90
        2
176
     1
 90
        1
176
     1
 90
        2
176
     1
 40
0.6
176
     1
 40
30.0
176
     1
 62
     7
420
 16777215
176
     1
 90
        1
176
     1
 90
       10
176
     1
 62
     7
176
     1
 62
   257
176
     1
 90
        2
176
     1
 90
        1
176
     1
 40
1.0
176
     1
 90
        8
176
     1
 62
   257
176
     1
 40
1.0
176
     1
 90
        1
176
     1
 90
        6
176
     1
 90
        2
176
     1
 62
     7
176
     1
 90
        3
176
     1
 90
        0
176
     1
 90
        0
176
     1
290
     0
176
     1
 90
        5
176
     1
 40
0.0
176
     1
 90
        0
176
     1
290
     0
176
     1
290
     1
176
     1
290
     1
176
     1
290
     0
176
     1
290
     0
176
     1
290
     0
176
     1
290
     0
176
     1
290
     0
176
     1
290
     0
176
     1
 90
       50
176
     1
 40
0.0
176
     1
 40
1.0
176
     1
 90
        0
176
     1
 62
    18
420
        0
176
     1
 90
       50
176
     1
 90
        3
176
     1
 62
     5
420
      255
176
     1
290
     0
176
     1
 90
       50
176
     1
 90
       50
176
     1
 90
       50
176
     1
290
     0
176
     1
 90
       50
176
     1
 62
   256
176
     0
 40
1.0
176
     0
 90
        2
176
     1
  1
strokes_ogs.tif
176
     1
290
     0
176
     1
 40
1.0
176
     1
 40
1.0
176
     1
  0
VISUALSTYLE
  5
3E
102
{ACAD_REACTORS
330
2A
102
}
330
2A
100
AcDbVisualStyle
  2
Shades of Gray
 70
    23
177
     3
291
     0
 70
    58
 90
        2
176
     1
 90
        2
176
     1
 90
        3
176
     1
 90
        0
176
     1
 40
0.6
176
     1
 40
30.0
176
     1
 62
     7
420
 16777215
176
     1
 90
        2
176
     1
 90
        2
176
     1
 62
     7
176
     1
 62
     7
176
     1
 90
        1
176
     1
 90
        1
176
     1
 40
40.0
176
     1
 90
        8
176
     1
 62
     7
176
     1
 40
1.0
176
     1
 90
        1
176
     1
 90
        6
176
     1
 90
        2
176
     1
 62
     7
176
     1
 90
        3
176
     1
 90
        0
176
     1
 90
        0
176
     1
290
     0
176
     1
 90
        1
176
     1
 40
0.0
176
     1
 90
        0
176
     1
290
     0
176
     1
290
     1
176
     1
290
     1
176
     1
290
     0
176
     1
290
     0
176
     1
290
     0
176
     1
290
     0
176
     1
290
     0
176
     1
290
     0
176
     1
 90
       50
176
     1
 40
0.0
176
     1
 40
1.0
176
     1
 90
        0
176
     1
 62
    18
420
        0
176
     1
 90
       50
176
     1
 90
        3
176
     1
 62
     5
420
      255
176
     1
290
     0
176
     1
 90
       50
176
     1
 90
       50
176
     1
 90
       50
176
     1
290
     0
176
     1
 90
       50
176
     1
 62
   256
176
     0
 40
1.0
176
     0
 90
        2
176
     1
  1
strokes_ogs.tif
176
     1
290
     0
176
     1
 40
1.0
176
     1
 40
1.0
176
     1
  0
VISUALSTYLE
  5
3F
102
{ACAD_REACTORS
330
2A
102
}
330
2A
100
AcDbVisualStyle
  2
Sketchy
 70
    24
177
     3
291
     0
 70
    58
 90
        1
176
     1
 90
        2
176
     1
 90
        2
176
     1
 90
        0
176
     1
 40
0.6
176
     1
 40
30.0
176
     1
 62
     7
420
 16777215
176
     1
 90
        2
176
     1
 90
        2
176
     1
 62
     7
176
     1
 62
     7
176
     1
 90
        1
176
     1
 90
        1
176
     1
 40
40.0
176
     1
 90
       11
176
     1
 62
     7
176
     1
 40
1.0
176
     1
 90
        1
176
     1
 90
        6
176
     1
 90
        2
176
     1
 62
     7
176
     1
 90
        6
176
     1
 90
        0
176
     1
 90
        0
176
     1
290
     0
176
     1
 90
        1
176
     1
 40
0.0
176
     1
 90
        0
176
     1
290
     0
176
     1
290
     1
176
     1
290
     1
176
     1
290
     0
176
     1
290
     0
176
     1
290
     0
176
     1
290
     0
176
     1
290
     0
176
     1
290
     0
176
     1
 90
       50
176
     1
 40
0.0
176
     1
 40
1.0
176
     1
 90
        0
176
     1
 62
    18
420
        0
176
     1
 90
       50
176
     1
 90
        3
176
     1
 62
     5
420
      255
176
     1
290
     0
176
     1
 90
       50
176
     1
 90
       50
176
     1
 90
       50
176
     1
290
     0
176
     1
 90
       50
176
     1
 62
   256
176
     0
 40
1.0
176
     0
 90
        2
176
     1
  1
strokes_ogs.tif
176
     1
290
     0
176
     1
 40
1.0
176
     1
 40
1.0
176
     1
  0
VISUALSTYLE
  5
37
102
{ACAD_REACTORS
330
2A
102
}
330
2A
100
AcDbVisualStyle
  2
Thicken
 70
    13
177
     3
291
     1
 70
    58
 90
        2
176
     1
 90
        2
176
     1
 90
        0
176
     1
 90
        0
176
     1
 40
0.6
176
     1
 40
30.0
176
     1
 62
     7
420
 16777215
176
     1
 90
        1
176
     1
 90
        4
176
     1
 62
     7
176
     1
 62
   257
176
     1
 90
        1
176
     1
 90
        1
176
     1
 40
1.0
176
     1
 90
       12
176
     1
 62
     7
176
     1
 40
1.0
176
     1
 90
        1
176
     1
 90
        6
176
     1
 90
        2
176
     1
 62
     7
176
     1
 90
        5
176
     1
 90
        0
176
     1
 90
        0
176
     1
290
     0
176
     1
 90
        1
176
     1
 40
0.0
176
     1
 90
        0
176
     1
290
     0
176
     1
290
     1
176
     1
290
     1
176
     1
290
     0
176
     1
290
     0
176
     1
290
     0
176
     1
290
     0
176
     1
290
     0
176
     1
290
     0
176
     1
 90
       50
176
     1
 40
0.0
176
     1
 40
1.0
176
     1
 90
        0
176
     1
 62
    18
420
        0
176
     1
 90
       50
176
     1
 90
        3
176
     1
 62
     5
420
      255
176
     1
290
     0
176
     1
 90
       50
176
     1
 90
       50
176
     1
 90
       50
176
     1
290
     0
176
     1
 90
       50
176
     1
 62
   256
176
     0
 40
1.0
176
     0
 90
        2
176
     1
  1
strokes_ogs.tif
176
     1
290
     0
176
     1
 40
1.0
176
     1
 40
1.0
176
     1
  0
VISUALSTYLE
  5
30
102
{ACAD_REACTORS
330
2A
102
}
330
2A
100
AcDbVisualStyle
  2
Wireframe
 70
     5
177
     3
291
     0
 70
    58
 90
        0
176
     1
 90
        2
176
     1
 90
        0
176
     1
 90
        0
176
     1
 40
0.6
176
     1
 40
30.0
176
     1
 62
     7
420
 16777215
176
     1
 90
        1
176
     1
 90
        4
176
     1
 62
     7
176
     1
 62
   257
176
     1
 90
        1
176
     1
 90
        1
176
     1
 40
1.0
176
     1
 90
        0
176
     1
 62
   257
176
     1
 40
1.0
176
     1
 90
        1
176
     1
 90
        6
176
     1
 90
        2
176
     1
 62
     7
176
     1
 90
        3
176
     1
 90
        0
176
     1
 90
        0
176
     1
290
     0
176
     1
 90
        1
176
     1
 40
0.0
176
     1
 90
        0
176
     1
290
     0
176
     1
290
     1
176
     1
290
     1
176
     1
290
     0
176
     1
290
     0
176
     1
290
     0
176
     1
290
     0
176
     1
290
     0
176
     1
290
     0
176
     1
 90
       50
176
     1
 40
0.0
176
     1
 40
1.0
176
     1
 90
        0
176
     1
 62
    18
420
        0
176
     1
 90
       50
176
     1
 90
        3
176
     1
 62
     5
420
      255
176
     1
290
     0
176
     1
 90
       50
176
     1
 90
       50
176
     1
 90
       50
176
     1
290
     0
176
     1
 90
       50
176
     1
 62
   256
176
     0
 40
1.0
176
     0
 90
        2
176
     1
  1
strokes_ogs.tif
176
     1
290
     0
176
     1
 40
1.0
176
     1
 40
1.0
176
     1
  0
VISUALSTYLE
  5
40
102
{ACAD_REACTORS
330
2A
102
}
330
2A
100
AcDbVisualStyle
  2
X-Ray
 70
    25
177
     3
291
     0
 70
    58
 90
        2
176
     1
 90
        2
176
     1
 90
        1
176
     1
 90
        1
176
     1
 40
0.5
176
     1
 40
30.0
176
     1
 62
     7
420
 16777215
176
     1
 90
        1
176
     1
 90
        0
176
     1
 62
     7
176
     1
 62
   257
176
     1
 90
        1
176
     1
 90
        1
176
     1
 40
1.0
176
     1
 90
        8
176
     1
 62
     7
176
     1
 40
1.0
176
     1
 90
        1
176
     1
 90
        6
176
     1
 90
        2
176
     1
 62
     7
176
     1
 90
        3
176
     1
 90
        0
176
     1
 90
        0
176
     1
290
     0
176
     1
 90
       13
176
     1
 40
0.0
176
     1
 90
        0
176
     1
290
     0
176
     1
290
     1
176
     1
290
     1
176
     1
290
     0
176
     1
290
     0
176
     1
290
     0
176
     1
290
     0
176
     1
290
     0
176
     1
290
     0
176
     1
 90
       50
176
     1
 40
0.0
176
     1
 40
1.0
176
     1
 90
        0
176
     1
 62
    18
420
        0
176
     1
 90
       50
176
     1
 90
        3
176
     1
 62
     5
420
      255
176
     1
290
     0
176
     1
 90
       50
176
     1
 90
       50
176
     1
 90
       50
176
     1
290
     0
176
     1
 90
       50
176
     1
 62
   256
176
     0
 40
1.0
176
     0
 90
        2
176
     1
  1
strokes_ogs.tif
176
     1
290
     0
176
     1
 40
1.0
176
     1
 40
1.0
176
     1
  0
DICTIONARYVAR
  5
D4
102
{ACAD_REACTORS
330
D3
102
}
330
D3
100
DictionaryVariables
280
     0
  1
1:1
  0
DICTIONARYVAR
  5
D9
102
{ACAD_REACTORS
330
D3
102
}
330
D3
100
DictionaryVariables
280
     0
  1
Standard
  0
DICTIONARYVAR
  5
D8
102
{ACAD_REACTORS
330
D3
102
}
330
D3
100
DictionaryVariables
280
     0
  1
Standard
  0
DICTIONARY
  5
D5
330
5A
100
AcDbDictionary
280
     1
281
     1
  3
ACAD_ROUNDTRIP_2008_TABLESTYLE_CELLSTYLEMAP
360
D6
  0
CELLSTYLEMAP
  5
D6
102
{ACAD_REACTORS
330
D5
102
}
330
D5
100
AcDbCellStyleMap
 90
        3
300
CELLSTYLE
  1
TABLEFORMAT_BEGIN
 90
        5
170
     1
 91
        0
 92
    32768
 62
   257
 93
        1
300
CONTENTFORMAT
  1
CONTENTFORMAT_BEGIN
 90
        0
 91
        0
 92
        4
 93
        0
300

 40
0.0
140
1.0
 94
        5
 62
     0
340
11
144
0.25
309
CONTENTFORMAT_END
171
     1
301
MARGIN
  1
CELLMARGIN_BEGIN
 40
0.06
 40
0.06
 40
0.06
 40
0.06
 40
0.06
 40
0.06
309
CELLMARGIN_END
 94
        6
 95
        1
302
GRIDFORMAT
  1
GRIDFORMAT_BEGIN
 90
        0
 91
        1
 62
     0
 92
       -2
340
14
 93
        0
 40
0.045
309
GRIDFORMAT_END
 95
        2
302
GRIDFORMAT
  1
GRIDFORMAT_BEGIN
 90
        0
 91
        1
 62
     0
 92
       -2
340
14
 93
        0
 40
0.045
309
GRIDFORMAT_END
 95
        4
302
GRIDFORMAT
  1
GRIDFORMAT_BEGIN
 90
        0
 91
        1
 62
     0
 92
       -2
340
14
 93
        0
 40
0.045
309
GRIDFORMAT_END
 95
        8
302
GRIDFORMAT
  1
GRIDFORMAT_BEGIN
 90
        0
 91
        1
 62
     0
 92
       -2
340
14
 93
        0
 40
0.045
309
GRIDFORMAT_END
 95
       16
302
GRIDFORMAT
  1
GRIDFORMAT_BEGIN
 90
        0
 91
        1
 62
     0
 92
       -2
340
14
 93
        0
 40
0.045
309
GRIDFORMAT_END
 95
       32
302
GRIDFORMAT
  1
GRIDFORMAT_BEGIN
 90
        0
 91
        1
 62
     0
 92
       -2
340
14
 93
        0
 40
0.045
309
GRIDFORMAT_END
309
TABLEFORMAT_END
  1
CELLSTYLE_BEGIN
 90
        1
 91
        1
300
_TITLE
309
CELLSTYLE_END
300
CELLSTYLE
  1
TABLEFORMAT_BEGIN
 90
        5
170
     1
 91
        0
 92
        0
 62
   257
 93
        1
300
CONTENTFORMAT
  1
CONTENTFORMAT_BEGIN
 90
        0
 91
        0
 92
        4
 93
        0
300

 40
0.0
140
1.0
 94
        5
 62
     0
340
11
144
0.18
309
CONTENTFORMAT_END
171
     1
301
MARGIN
  1
CELLMARGIN_BEGIN
 40
0.06
 40
0.06
 40
0.06
 40
0.06
 40
0.06
 40
0.06
309
CELLMARGIN_END
 94
        6
 95
        1
302
GRIDFORMAT
  1
GRIDFORMAT_BEGIN
 90
        0
 91
        1
 62
     0
 92
       -2
340
14
 93
        0
 40
0.045
309
GRIDFORMAT_END
 95
        2
302
GRIDFORMAT
  1
GRIDFORMAT_BEGIN
 90
        0
 91
        1
 62
     0
 92
       -2
340
14
 93
        0
 40
0.045
309
GRIDFORMAT_END
 95
        4
302
GRIDFORMAT
  1
GRIDFORMAT_BEGIN
 90
        0
 91
        1
 62
     0
 92
       -2
340
14
 93
        0
 40
0.045
309
GRIDFORMAT_END
 95
        8
302
GRIDFORMAT
  1
GRIDFORMAT_BEGIN
 90
        0
 91
        1
 62
     0
 92
       -2
340
14
 93
        0
 40
0.045
309
GRIDFORMAT_END
 95
       16
302
GRIDFORMAT
  1
GRIDFORMAT_BEGIN
 90
        0
 91
        1
 62
     0
 92
       -2
340
14
 93
        0
 40
0.045
309
GRIDFORMAT_END
 95
       32
302
GRIDFORMAT
  1
GRIDFORMAT_BEGIN
 90
        0
 91
        1
 62
     0
 92
       -2
340
14
 93
        0
 40
0.045
309
GRIDFORMAT_END
309
TABLEFORMAT_END
  1
CELLSTYLE_BEGIN
 90
        2
 91
        1
300
_HEADER
309
CELLSTYLE_END
300
CELLSTYLE
  1
TABLEFORMAT_BEGIN
 90
        5
170
     1
 91
        0
 92
        0
 62
   257
 93
        1
300
CONTENTFORMAT
  1
CONTENTFORMAT_BEGIN
 90
        0
 91
        0
 92
        4
 93
        0
300

 40
0.0
140
1.0
 94
        2
 62
     0
340
11
144
0.18
309
CONTENTFORMAT_END
171
     1
301
MARGIN
  1
CELLMARGIN_BEGIN
 40
0.06
 40
0.06
 40
0.06
 40
0.06
 40
0.06
 40
0.06
309
CELLMARGIN_END
 94
        6
 95
        1
302
GRIDFORMAT
  1
GRIDFORMAT_BEGIN
 90
        0
 91
        1
 62
     0
 92
       -2
340
14
 93
        0
 40
0.045
309
GRIDFORMAT_END
 95
        2
302
GRIDFORMAT
  1
GRIDFORMAT_BEGIN
 90
        0
 91
        1
 62
     0
 92
       -2
340
14
 93
        0
 40
0.045
309
GRIDFORMAT_END
 95
        4
302
GRIDFORMAT
  1
GRIDFORMAT_BEGIN
 90
        0
 91
        1
 62
     0
 92
       -2
340
14
 93
        0
 40
0.045
309
GRIDFORMAT_END
 95
        8
302
GRIDFORMAT
  1
GRIDFORMAT_BEGIN
 90
        0
 91
        1
 62
     0
 92
       -2
340
14
 93
        0
 40
0.045
309
GRIDFORMAT_END
 95
       16
302
GRIDFORMAT
  1
GRIDFORMAT_BEGIN
 90
        0
 91
        1
 62
     0
 92
       -2
340
14
 93
        0
 40
0.045
309
GRIDFORMAT_END
 95
       32
302
GRIDFORMAT
  1
GRIDFORMAT_BEGIN
 90
        0
 91
        1
 62
     0
 92
       -2
340
14
 93
        0
 40
0.045
309
GRIDFORMAT_END
309
TABLEFORMAT_END
  1
CELLSTYLE_BEGIN
 90
        3
 91
        2
300
_DATA
309
CELLSTYLE_END
  0
ENDSEC
  0
EOF
