  0
SECTION
  2
HEADER
  9
$ACADVER
  1
AC1032
  9
$ACADMAINTVER
 90
       55
  9
$DWGCODEPAGE
  3
ANSI_1252
  9
$LASTSAVEDBY
  1
LYI-002
  9
$REQUIREDVERSIONS
160
                 0
  9
$INSBASE
 10
0.0
 20
0.0
 30
0.0
  9
$EXTMIN
 10
-156.6164
 20
-25.9801
 30
0.0
  9
$EXTMAX
 10
156.5387
 20
25.961
 30
0.0
  9
$LIMMIN
 10
0.0
 20
0.0
  9
$LIMMAX
 10
12.0
 20
9.0
  9
$ORTHOMODE
 70
     0
  9
$REGENMODE
 70
     1
  9
$FILLMODE
 70
     1
  9
$QTEXTMODE
 70
     0
  9
$MIRRTEXT
 70
     1
  9
$LTSCALE
 40
1.0
  9
$ATTMODE
 70
     1
  9
$TEXTSIZE
 40
0.2
  9
$TRACEWID
 40
0.05
  9
$TEXTSTYLE
  7
Standard
  9
$CLAYER
  8
0
  9
$CELTYPE
  6
ByLayer
  9
$CECOLOR
 62
   256
  9
$CELTSCALE
 40
1.0
  9
$DISPSILH
 70
     0
  9
$DIMSCALE
 40
1.0
  9
$DIMASZ
 40
0.18
  9
$DIMEXO
 40
0.0625
  9
$DIMDLI
 40
0.38
  9
$DIMRND
 40
0.0
  9
$DIMDLE
 40
0.0
  9
$DIMEXE
 40
0.18
  9
$DIMTP
 40
0.0
  9
$DIMTM
 40
0.0
  9
$DIMTXT
 40
0.18
  9
$DIMCEN
 40
0.09
  9
$DIMTSZ
 40
0.0
  9
$DIMTOL
 70
     0
  9
$DIMLIM
 70
     0
  9
$DIMTIH
 70
     1
  9
$DIMTOH
 70
     1
  9
$DIMSE1
 70
     0
  9
$DIMSE2
 70
     0
  9
$DIMTAD
 70
     0
  9
$DIMZIN
 70
     0
  9
$DIMBLK
  1

  9
$DIMASO
 70
     1
  9
$DIMSHO
 70
     1
  9
$DIMPOST
  1

  9
$DIMAPOST
  1

  9
$DIMALT
 70
     0
  9
$DIMALTD
 70
     2
  9
$DIMALTF
 40
25.4
  9
$DIMLFAC
 40
1.0
  9
$DIMTOFL
 70
     0
  9
$DIMTVP
 40
0.0
  9
$DIMTIX
 70
     0
  9
$DIMSOXD
 70
     0
  9
$DIMSAH
 70
     0
  9
$DIMBLK1
  1

  9
$DIMBLK2
  1

  9
$DIMSTYLE
  2
Standard
  9
$DIMCLRD
 70
     0
  9
$DIMCLRE
 70
     0
  9
$DIMCLRT
 70
     0
  9
$DIMTFAC
 40
1.0
  9
$DIMGAP
 40
0.09
  9
$DIMJUST
 70
     0
  9
$DIMSD1
 70
     0
  9
$DIMSD2
 70
     0
  9
$DIMTOLJ
 70
     1
  9
$DIMTZIN
 70
     0
  9
$DIMALTZ
 70
     0
  9
$DIMALTTZ
 70
     0
  9
$DIMUPT
 70
     0
  9
$DIMDEC
 70
     4
  9
$DIMTDEC
 70
     4
  9
$DIMALTU
 70
     2
  9
$DIMALTTD
 70
     2
  9
$DIMTXSTY
  7
Standard
  9
$DIMAUNIT
 70
     0
  9
$DIMADEC
 70
     0
  9
$DIMALTRND
 40
0.0
  9
$DIMAZIN
 70
     0
  9
$DIMDSEP
 70
    46
  9
$DIMATFIT
 70
     3
  9
$DIMFRAC
 70
     0
  9
$DIMLDRBLK
  1

  9
$DIMLUNIT
 70
     2
  9
$DIMLWD
 70
    -2
  9
$DIMLWE
 70
    -2
  9
$DIMTMOVE
 70
     0
  9
$DIMFXL
 40
1.0
  9
$DIMFXLON
 70
     0
  9
$DIMJOGANG
 40
0.7853981633974483
  9
$DIMTFILL
 70
     0
  9
$DIMTFILLCLR
 70
     0
  9
$DIMARCSYM
 70
     0
  9
$DIMLTYPE
  6

  9
$DIMLTEX1
  6

  9
$DIMLTEX2
  6

  9
$DIMTXTDIRECTION
 70
     0
  9
$LUNITS
 70
     2
  9
$LUPREC
 70
     4
  9
$SKETCHINC
 40
0.1
  9
$FILLETRAD
 40
0.0
  9
$AUNITS
 70
     0
  9
$AUPREC
 70
     0
  9
$MENU
  1
.
  9
$ELEVATION
 40
0.0
  9
$PELEVATION
 40
0.0
  9
$THICKNESS
 40
0.0
  9
$LIMCHECK
 70
     0
  9
$CHAMFERA
 40
0.0
  9
$CHAMFERB
 40
0.0
  9
$CHAMFERC
 40
0.0
  9
$CHAMFERD
 40
0.0
  9
$SKPOLY
 70
     0
  9
$TDCREATE
 40
2460650.515747928
  9
$TDUCREATE
 40
2460650.286581262
  9
$TDUPDATE
 40
2460650.51574794
  9
$TDUUPDATE
 40
2460650.286581273
  9
$TDINDWG
 40
0.0000000116
  9
$TDUSRTIMER
 40
0.0000000116
  9
$USRTIMER
 70
     1
  9
$ANGBASE
 50
0.0
  9
$ANGDIR
 70
     0
  9
$PDMODE
 70
     0
  9
$PDSIZE
 40
0.0
  9
$PLINEWID
 40
0.0
  9
$SPLFRAME
 70
     0
  9
$SPLINETYPE
 70
     6
  9
$SPLINESEGS
 70
     8
  9
$HANDSEED
  5
71
  9
$SURFTAB1
 70
     6
  9
$SURFTAB2
 70
     6
  9
$SURFTYPE
 70
     6
  9
$SURFU
 70
     6
  9
$SURFV
 70
     6
  9
$UCSBASE
  2

  9
$UCSNAME
  2

  9
$UCSORG
 10
0.0
 20
0.0
 30
0.0
  9
$UCSXDIR
 10
1.0
 20
0.0
 30
0.0
  9
$UCSYDIR
 10
0.0
 20
1.0
 30
0.0
  9
$UCSORTHOREF
  2

  9
$UCSORTHOVIEW
 70
     0
  9
$UCSORGTOP
 10
0.0
 20
0.0
 30
0.0
  9
$UCSORGBOTTOM
 10
0.0
 20
0.0
 30
0.0
  9
$UCSORGLEFT
 10
0.0
 20
0.0
 30
0.0
  9
$UCSORGRIGHT
 10
0.0
 20
0.0
 30
0.0
  9
$UCSORGFRONT
 10
0.0
 20
0.0
 30
0.0
  9
$UCSORGBACK
 10
0.0
 20
0.0
 30
0.0
  9
$PUCSBASE
  2

  9
$PUCSNAME
  2

  9
$PUCSORG
 10
0.0
 20
0.0
 30
0.0
  9
$PUCSXDIR
 10
1.0
 20
0.0
 30
0.0
  9
$PUCSYDIR
 10
0.0
 20
1.0
 30
0.0
  9
$PUCSORTHOREF
  2

  9
$PUCSORTHOVIEW
 70
     0
  9
$PUCSORGTOP
 10
0.0
 20
0.0
 30
0.0
  9
$PUCSORGBOTTOM
 10
0.0
 20
0.0
 30
0.0
  9
$PUCSORGLEFT
 10
0.0
 20
0.0
 30
0.0
  9
$PUCSORGRIGHT
 10
0.0
 20
0.0
 30
0.0
  9
$PUCSORGFRONT
 10
0.0
 20
0.0
 30
0.0
  9
$PUCSORGBACK
 10
0.0
 20
0.0
 30
0.0
  9
$USERI1
 70
     0
  9
$USERI2
 70
     0
  9
$USERI3
 70
     0
  9
$USERI4
 70
     0
  9
$USERI5
 70
     0
  9
$USERR1
 40
0.0
  9
$USERR2
 40
0.0
  9
$USERR3
 40
0.0
  9
$USERR4
 40
0.0
  9
$USERR5
 40
0.0
  9
$WORLDVIEW
 70
     1
  9
$SHADEDGE
 70
     3
  9
$SHADEDIF
 70
    70
  9
$TILEMODE
 70
     1
  9
$MAXACTVP
 70
    64
  9
$PINSBASE
 10
0.0
 20
0.0
 30
0.0
  9
$PLIMCHECK
 70
     0
  9
$PEXTMIN
 10
1.000000000000000E+20
 20
1.000000000000000E+20
 30
1.000000000000000E+20
  9
$PEXTMAX
 10
-1.000000000000000E+20
 20
-1.000000000000000E+20
 30
-1.000000000000000E+20
  9
$PLIMMIN
 10
0.0
 20
0.0
  9
$PLIMMAX
 10
12.0
 20
9.0
  9
$UNITMODE
 70
     0
  9
$VISRETAIN
 70
     1
  9
$PLINEGEN
 70
     0
  9
$PSLTSCALE
 70
     1
  9
$TREEDEPTH
 70
  3020
  9
$CMLSTYLE
  2
Standard
  9
$CMLJUST
 70
     0
  9
$CMLSCALE
 40
1.0
  9
$PROXYGRAPHICS
 70
     1
  9
$MEASUREMENT
 70
     0
  9
$CELWEIGHT
370
    -1
  9
$ENDCAPS
280
     0
  9
$JOINSTYLE
280
     0
  9
$LWDISPLAY
290
     0
  9
$INSUNITS
 70
     4
  9
$HYPERLINKBASE
  1

  9
$STYLESHEET
  1

  9
$XEDIT
290
     1
  9
$CEPSNTYPE
380
     0
  9
$PSTYLEMODE
290
     1
  9
$FINGERPRINTGUID
  2
{346f3ac2-f691-473b-b699-724f9c926d53}
  9
$VERSIONGUID
  2
{FAEB1C32-E019-11D5-929B-00C0DF256EC4}
  9
$EXTNAMES
290
     1
  9
$PSVPSCALE
 40
0.0
  9
$OLESTARTUP
290
     0
  9
$SORTENTS
280
   127
  9
$INDEXCTL
280
     0
  9
$HIDETEXT
280
     1
  9
$XCLIPFRAME
280
     2
  9
$HALOGAP
280
     0
  9
$OBSCOLOR
 70
   257
  9
$OBSLTYPE
280
     0
  9
$INTERSECTIONDISPLAY
280
     0
  9
$INTERSECTIONCOLOR
 70
   257
  9
$DIMASSOC
280
     2
  9
$PROJECTNAME
  1

  9
$CAMERADISPLAY
290
     0
  9
$LENSLENGTH
 40
50.0
  9
$CAMERAHEIGHT
 40
0.0
  9
$STEPSPERSEC
 40
2.0
  9
$STEPSIZE
 40
6.0
  9
$3DDWFPREC
 40
2.0
  9
$PSOLWIDTH
 40
0.25
  9
$PSOLHEIGHT
 40
4.0
  9
$LOFTANG1
 40
1.570796326794897
  9
$LOFTANG2
 40
1.570796326794897
  9
$LOFTMAG1
 40
0.0
  9
$LOFTMAG2
 40
0.0
  9
$LOFTPARAM
 70
     7
  9
$LOFTNORMALS
280
     1
  9
$LATITUDE
 40
37.795
  9
$LONGITUDE
 40
-122.394
  9
$NORTHDIRECTION
 40
0.0
  9
$TIMEZONE
 70
 -8000
  9
$LIGHTGLYPHDISPLAY
280
     1
  9
$TILEMODELIGHTSYNCH
280
     1
  9
$CMATERIAL
347
44
  9
$SOLIDHIST
280
     0
  9
$SHOWHIST
280
     1
  9
$DWFFRAME
280
     2
  9
$DGNFRAME
280
     2
  9
$REALWORLDSCALE
290
     1
  9
$INTERFERECOLOR
 62
   256
  9
$CSHADOW
280
     0
  9
$SHADOWPLANELOCATION
 40
0.0
  0
ENDSEC
  0
SECTION
  2
CLASSES
  0
CLASS
  1
ACDBDICTIONARYWDFLT
  2
AcDbDictionaryWithDefault
  3
ObjectDBX Classes
 90
        0
 91
        3
280
     0
281
     0
  0
CLASS
  1
VISUALSTYLE
  2
AcDbVisualStyle
  3
ObjectDBX Classes
 90
     4095
 91
        3
280
     0
281
     0
  0
CLASS
  1
MATERIAL
  2
AcDbMaterial
  3
ObjectDBX Classes
 90
     1153
 91
        3
280
     0
281
     0
  0
CLASS
  1
SCALE
  2
AcDbScale
  3
ObjectDBX Classes
 90
     1153
 91
        3
280
     0
281
     0
  0
CLASS
  1
TABLESTYLE
  2
AcDbTableStyle
  3
ObjectDBX Classes
 90
     4095
 91
        3
280
     0
281
     0
  0
CLASS
  1
MLEADERSTYLE
  2
AcDbMLeaderStyle
  3
ACDB_MLEADERSTYLE_CLASS
 90
     4095
 91
        3
280
     0
281
     0
  0
CLASS
  1
SUN
  2
AcDbSun
  3
SCENEOE
 90
     1153
 91
        3
280
     0
281
     0
  0
CLASS
  1
DICTIONARYVAR
  2
AcDbDictionaryVar
  3
ObjectDBX Classes
 90
        0
 91
        3
280
     0
281
     0
  0
CLASS
  1
CELLSTYLEMAP
  2
AcDbCellStyleMap
  3
ObjectDBX Classes
 90
     1152
 91
        3
280
     0
281
     0
  0
ENDSEC
  0
SECTION
  2
TABLES
  0
TABLE
  2
VPORT
  5
8
330
0
100
AcDbSymbolTable
 70
     1
  0
VPORT
  5
29
330
8
100
AcDbSymbolTableRecord
100
AcDbViewportTableRecord
  2
*Active
 70
     0
 10
0.0
 20
0.0
 11
1.0
 21
1.0
 12
10.42990654205607
 22
4.5
 13
0.0
 23
0.0
 14
0.5
 24
0.5
 15
0.5
 25
0.5
 16
0.0
 26
0.0
 36
1.0
 17
0.0
 27
0.0
 37
0.0
 40
9.0
 41
1.972972972850329
 42
50.0
 43
0.0
 44
0.0
 50
0.0
 51
0.0
 71
     0
 72
   100
 73
     1
 74
     3
 75
     0
 76
     0
 77
     0
 78
     0
281
     0
 65
     1
110
0.0
120
0.0
130
0.0
111
1.0
121
0.0
131
0.0
112
0.0
122
1.0
132
0.0
 79
     0
146
0.0
348
2F
 60
     3
 61
     5
292
     1
282
     1
141
0.0
142
0.0
 63
   250
361
5D
  0
ENDTAB
  0
TABLE
  2
LTYPE
  5
5
330
0
100
AcDbSymbolTable
 70
     1
  0
LTYPE
  5
14
330
5
100
AcDbSymbolTableRecord
100
AcDbLinetypeTableRecord
  2
ByBlock
 70
     0
  3

 72
    65
 73
     0
 40
0.0
  0
LTYPE
  5
15
330
5
100
AcDbSymbolTableRecord
100
AcDbLinetypeTableRecord
  2
ByLayer
 70
     0
  3

 72
    65
 73
     0
 40
0.0
  0
LTYPE
  5
16
330
5
100
AcDbSymbolTableRecord
100
AcDbLinetypeTableRecord
  2
Continuous
 70
     0
  3
Solid line
 72
    65
 73
     0
 40
0.0
  0
ENDTAB
  0
TABLE
  2
LAYER
  5
2
330
0
100
AcDbSymbolTable
 70
     2
  0
LAYER
  5
10
330
2
100
AcDbSymbolTableRecord
100
AcDbLayerTableRecord
  2
0
 70
     0
 62
     7
  6
Continuous
370
    -3
390
F
347
46
348
0
  0
LAYER
  5
5F
330
2
100
AcDbSymbolTableRecord
100
AcDbLayerTableRecord
  2
Layer 1
 70
     0
 62
     7
  6
Continuous
370
    -3
390
F
347
46
348
0
  0
ENDTAB
  0
TABLE
  2
STYLE
  5
3
330
0
100
AcDbSymbolTable
 70
     1
  0
STYLE
  5
11
330
3
100
AcDbSymbolTableRecord
100
AcDbTextStyleTableRecord
  2
Standard
 70
     0
 40
0.0
 41
1.0
 50
0.0
 71
     0
 42
0.2
  3
txt
  4

  0
ENDTAB
  0
TABLE
  2
VIEW
  5
6
330
0
100
AcDbSymbolTable
 70
     0
  0
ENDTAB
  0
TABLE
  2
UCS
  5
7
330
0
100
AcDbSymbolTable
 70
     0
  0
ENDTAB
  0
TABLE
  2
APPID
  5
9
330
0
100
AcDbSymbolTable
 70
     2
  0
APPID
  5
12
330
9
100
AcDbSymbolTableRecord
100
AcDbRegAppTableRecord
  2
ACAD
 70
     0
  0
APPID
  5
5E
330
9
100
AcDbSymbolTableRecord
100
AcDbRegAppTableRecord
  2
ODA
 70
     0
  0
ENDTAB
  0
TABLE
  2
DIMSTYLE
  5
A
330
0
100
AcDbSymbolTable
 70
     1
100
AcDbDimStyleTable
  0
DIMSTYLE
105
27
330
A
100
AcDbSymbolTableRecord
100
AcDbDimStyleTableRecord
  2
Standard
 70
     0
178
     0
340
11
  0
ENDTAB
  0
TABLE
  2
BLOCK_RECORD
  5
1
330
0
100
AcDbSymbolTable
 70
     1
  0
BLOCK_RECORD
  5
1F
330
1
100
AcDbSymbolTableRecord
100
AcDbBlockTableRecord
  2
*Model_Space
340
22
 70
     0
280
     1
281
     0
  0
BLOCK_RECORD
  5
1B
330
1
100
AcDbSymbolTableRecord
100
AcDbBlockTableRecord
  2
*Paper_Space
340
1E
 70
     0
280
     1
281
     0
  0
BLOCK_RECORD
  5
23
330
1
100
AcDbSymbolTableRecord
100
AcDbBlockTableRecord
  2
*Paper_Space0
340
26
 70
     0
280
     1
281
     0
  0
ENDTAB
  0
ENDSEC
  0
SECTION
  2
BLOCKS
  0
BLOCK
  5
20
330
1F
100
AcDbEntity
  8
0
100
AcDbBlockBegin
  2
*Model_Space
 70
     0
 10
0.0
 20
0.0
 30
0.0
  3
*Model_Space
  1

  0
ENDBLK
  5
21
330
1F
100
AcDbEntity
  8
0
100
AcDbBlockEnd
  0
BLOCK
  5
1C
330
1B
100
AcDbEntity
 67
     1
  8
0
100
AcDbBlockBegin
  2
*Paper_Space
 70
     0
 10
0.0
 20
0.0
 30
0.0
  3
*Paper_Space
  1

  0
ENDBLK
  5
1D
330
1B
100
AcDbEntity
 67
     1
  8
0
100
AcDbBlockEnd
  0
BLOCK
  5
24
330
23
100
AcDbEntity
  8
0
100
AcDbBlockBegin
  2
*Paper_Space0
 70
     0
 10
0.0
 20
0.0
 30
0.0
  3
*Paper_Space0
  1

  0
ENDBLK
  5
25
330
23
100
AcDbEntity
  8
0
100
AcDbBlockEnd
  0
ENDSEC
  0
SECTION
  2
ENTITIES
  0
SPLINE
  5
60
330
1F
100
AcDbEntity
  8
Layer 1
 62
   250
370
     9
100
AcDbSpline
210
0.0
220
0.0
230
1.0
 70
    11
 71
     3
 72
   170
 73
   166
 74
     0
 42
0.0000000001
 43
0.0000000001
 40
0.0
 40
0.0
 40
0.0
 40
0.0
 40
0.0181818181818182
 40
0.0181818181818182
 40
0.0181818181818182
 40
0.0363636363636364
 40
0.0363636363636364
 40
0.0363636363636364
 40
0.0545454545454545
 40
0.0545454545454545
 40
0.0545454545454545
 40
0.0727272727272727
 40
0.0727272727272727
 40
0.0727272727272727
 40
0.0909090909090909
 40
0.0909090909090909
 40
0.0909090909090909
 40
0.1090909090909091
 40
0.1090909090909091
 40
0.1090909090909091
 40
0.1272727272727273
 40
0.1272727272727273
 40
0.1272727272727273
 40
0.1454545454545454
 40
0.1454545454545454
 40
0.1454545454545454
 40
0.1636363636363636
 40
0.1636363636363636
 40
0.1636363636363636
 40
0.1818181818181818
 40
0.1818181818181818
 40
0.1818181818181818
 40
0.2
 40
0.2
 40
0.2
 40
0.2181818181818182
 40
0.2181818181818182
 40
0.2181818181818182
 40
0.2363636363636364
 40
0.2363636363636364
 40
0.2363636363636364
 40
0.2545454545454545
 40
0.2545454545454545
 40
0.2545454545454545
 40
0.2727272727272727
 40
0.2727272727272727
 40
0.2727272727272727
 40
0.2909090909090909
 40
0.2909090909090909
 40
0.2909090909090909
 40
0.3090909090909091
 40
0.3090909090909091
 40
0.3090909090909091
 40
0.3272727272727273
 40
0.3272727272727273
 40
0.3272727272727273
 40
0.3454545454545455
 40
0.3454545454545455
 40
0.3454545454545455
 40
0.3636363636363636
 40
0.3636363636363636
 40
0.3636363636363636
 40
0.3818181818181818
 40
0.3818181818181818
 40
0.3818181818181818
 40
0.4
 40
0.4
 40
0.4
 40
0.4181818181818182
 40
0.4181818181818182
 40
0.4181818181818182
 40
0.4363636363636363
 40
0.4363636363636363
 40
0.4363636363636363
 40
0.4545454545454545
 40
0.4545454545454545
 40
0.4545454545454545
 40
0.4727272727272727
 40
0.4727272727272727
 40
0.4727272727272727
 40
0.4909090909090909
 40
0.4909090909090909
 40
0.4909090909090909
 40
0.509090909090909
 40
0.509090909090909
 40
0.509090909090909
 40
0.5272727272727272
 40
0.5272727272727272
 40
0.5272727272727272
 40
0.5454545454545454
 40
0.5454545454545454
 40
0.5454545454545454
 40
0.5636363636363636
 40
0.5636363636363636
 40
0.5636363636363636
 40
0.5818181818181818
 40
0.5818181818181818
 40
0.5818181818181818
 40
0.6
 40
0.6
 40
0.6
 40
0.6181818181818182
 40
0.6181818181818182
 40
0.6181818181818182
 40
0.6363636363636364
 40
0.6363636363636364
 40
0.6363636363636364
 40
0.6545454545454545
 40
0.6545454545454545
 40
0.6545454545454545
 40
0.6727272727272727
 40
0.6727272727272727
 40
0.6727272727272727
 40
0.6909090909090909
 40
0.6909090909090909
 40
0.6909090909090909
 40
0.7090909090909091
 40
0.7090909090909091
 40
0.7090909090909091
 40
0.7272727272727273
 40
0.7272727272727273
 40
0.7272727272727273
 40
0.7454545454545454
 40
0.7454545454545454
 40
0.7454545454545454
 40
0.7636363636363636
 40
0.7636363636363636
 40
0.7636363636363636
 40
0.7818181818181817
 40
0.7818181818181817
 40
0.7818181818181817
 40
0.7999999999999999
 40
0.7999999999999999
 40
0.7999999999999999
 40
0.8181818181818181
 40
0.8181818181818181
 40
0.8181818181818181
 40
0.8363636363636363
 40
0.8363636363636363
 40
0.8363636363636363
 40
0.8545454545454545
 40
0.8545454545454545
 40
0.8545454545454545
 40
0.8727272727272727
 40
0.8727272727272727
 40
0.8727272727272727
 40
0.8909090909090909
 40
0.8909090909090909
 40
0.8909090909090909
 40
0.9090909090909091
 40
0.9090909090909091
 40
0.9090909090909091
 40
0.9272727272727272
 40
0.9272727272727272
 40
0.9272727272727272
 40
0.9454545454545454
 40
0.9454545454545454
 40
0.9454545454545454
 40
0.9636363636363636
 40
0.9636363636363636
 40
0.9636363636363636
 40
0.9818181818181818
 40
0.9818181818181818
 40
0.9818181818181818
 40
1.0
 40
1.0
 40
1.0
 40
1.0
 10
-118.1677
 20
-6.2654
 30
0.0
 10
-118.1677
 20
-6.2654
 30
0.0
 10
-112.8768
 20
-9.6777
 30
0.0
 10
-112.8768
 20
-9.6777
 30
0.0
 10
-112.8768
 20
-9.6777
 30
0.0
 10
-112.8768
 20
2.9871
 30
0.0
 10
-112.8768
 20
2.9871
 30
0.0
 10
-112.8768
 20
2.9871
 30
0.0
 10
-112.9904
 20
2.9871
 30
0.0
 10
-112.9904
 20
2.9871
 30
0.0
 10
-113.3318
 20
2.9871
 30
0.0
 10
-113.6228
 20
3.1931
 30
0.0
 10
-113.7463
 20
3.5232
 30
0.0
 10
-113.7463
 20
3.5232
 30
0.0
 10
-115.4655
 20
7.4489
 30
0.0
 10
-115.4655
 20
7.4489
 30
0.0
 10
-115.5655
 20
7.7157
 30
0.0
 10
-115.5357
 20
7.9937
 30
0.0
 10
-115.3792
 20
8.2315
 30
0.0
 10
-115.2235
 20
8.4686
 30
0.0
 10
-114.9857
 20
8.5982
 30
0.0
 10
-114.709
 20
8.5982
 30
0.0
 10
-114.709
 20
8.5982
 30
0.0
 10
-98.6368
 20
8.5982
 30
0.0
 10
-98.6368
 20
8.5982
 30
0.0
 10
-100.2982
 20
22.0093
 30
0.0
 10
-108.8909
 20
13.4853
 30
0.0
 10
-108.986
 20
13.4853
 30
0.0
 10
-108.986
 20
13.4853
 30
0.0
 10
-113.2833
 20
13.4853
 30
0.0
 10
-113.2833
 20
13.4853
 30
0.0
 10
-114.2621
 20
13.4853
 30
0.0
 10
-114.4773
 20
15.1971
 30
0.0
 10
-114.4066
 20
15.9423
 30
0.0
 10
-114.1242
 20
18.9337
 30
0.0
 10
-112.6434
 20
21.2878
 30
0.0
 10
-110.1223
 20
22.7823
 30
0.0
 10
-108.5137
 20
23.7356
 30
0.0
 10
-105.2977
 20
24.1188
 30
0.0
 10
-103.5153
 20
23.6901
 30
0.0
 10
-97.1254
 20
22.146
 30
0.0
 10
-92.9576
 20
14.9419
 30
0.0
 10
-93.0647
 20
8.5945
 30
0.0
 10
-93.0647
 20
8.5945
 30
0.0
 10
-90.7019
 20
8.5945
 30
0.0
 10
-90.7019
 20
8.5945
 30
0.0
 10
-90.401
 20
8.5945
 30
0.0
 10
-90.1422
 20
8.4381
 30
0.0
 10
-89.9945
 20
8.1645
 30
0.0
 10
-89.9945
 20
8.1645
 30
0.0
 10
-87.9047
 20
4.296
 30
0.0
 10
-87.9047
 20
4.296
 30
0.0
 10
-87.7589
 20
4.0266
 30
0.0
 10
-87.762
 20
3.7219
 30
0.0
 10
-87.9116
 20
3.4562
 30
0.0
 10
-88.0611
 20
3.1912
 30
0.0
 10
-88.3156
 20
3.0385
 30
0.0
 10
-88.6116
 20
3.0385
 30
0.0
 10
-88.6116
 20
3.0385
 30
0.0
 10
-93.1491
 20
3.0385
 30
0.0
 10
-93.1491
 20
3.0385
 30
0.0
 10
-93.1491
 20
3.0385
 30
0.0
 10
-93.1491
 20
-22.5633
 30
0.0
 10
-93.1491
 20
-22.5633
 30
0.0
 10
-93.1491
 20
-22.86
 30
0.0
 10
-93.2838
 20
-23.1158
 30
0.0
 10
-93.5252
 20
-23.2759
 30
0.0
 10
-93.766
 20
-23.4348
 30
0.0
 10
-94.046
 20
-23.4528
 30
0.0
 10
-94.3048
 20
-23.3268
 30
0.0
 10
-94.3048
 20
-23.3268
 30
0.0
 10
-98.8447
 20
-21.1197
 30
0.0
 10
-98.8447
 20
-21.1197
 30
0.0
 10
-99.1364
 20
-20.9782
 30
0.0
 10
-99.3127
 20
-20.691
 30
0.0
 10
-99.3127
 20
-20.3564
 30
0.0
 10
-99.3127
 20
-20.3564
 30
0.0
 10
-99.3127
 20
3.0447
 30
0.0
 10
-99.3127
 20
3.0447
 30
0.0
 10
-99.3127
 20
3.0447
 30
0.0
 10
-106.2514
 20
3.0447
 30
0.0
 10
-106.2514
 20
3.0447
 30
0.0
 10
-106.2514
 20
3.0447
 30
0.0
 10
-106.2514
 20
-22.6266
 30
0.0
 10
-106.2514
 20
-22.6266
 30
0.0
 10
-106.2514
 20
-22.9364
 30
0.0
 10
-106.3991
 20
-23.202
 30
0.0
 10
-106.6573
 20
-23.3566
 30
0.0
 10
-106.9154
 20
-23.5116
 30
0.0
 10
-107.2109
 20
-23.5116
 30
0.0
 10
-107.4691
 20
-23.3566
 30
0.0
 10
-107.4691
 20
-23.3566
 30
0.0
 10
-112.5862
 20
-20.2875
 30
0.0
 10
-112.5862
 20
-20.2875
 30
0.0
 10
-112.8438
 20
-20.1318
 30
0.0
 10
-112.9915
 20
-19.8661
 30
0.0
 10
-112.9915
 20
-19.557
 30
0.0
 10
-112.9915
 20
-19.557
 30
0.0
 10
-112.9915
 20
-14.2351
 30
0.0
 10
-112.9915
 20
-14.2351
 30
0.0
 10
-112.9915
 20
-14.2351
 30
0.0
 10
-125.7078
 20
-24.0356
 30
0.0
 10
-125.7078
 20
-24.0356
 30
0.0
 10
-126.0082
 20
-24.267
 30
0.0
 10
-126.4066
 20
-24.2596
 30
0.0
 10
-126.6983
 20
-24.0162
 30
0.0
 10
-126.6983
 20
-24.0162
 30
0.0
 10
-130.4581
 20
-20.892
 30
0.0
 10
-130.4581
 20
-20.892
 30
0.0
 10
-130.6648
 20
-20.7194
 30
0.0
 10
-130.7716
 20
-20.4768
 30
0.0
 10
-130.7617
 20
-20.2018
 30
0.0
 10
-130.7517
 20
-19.9251
 30
0.0
 10
-130.6282
 20
-19.6922
 30
0.0
 10
-130.4085
 20
-19.5371
 30
0.0
 10
-130.4085
 20
-19.5371
 30
0.0
 10
-118.038
 20
-10.7476
 30
0.0
 10
-118.038
 20
-10.7476
 30
0.0
 10
-118.038
 20
-10.7476
 30
0.0
 10
-121.1045
 20
-8.7584
 30
0.0
 10
-121.1045
 20
-8.7584
 30
0.0
 10
-121.1045
 20
-8.7584
 30
0.0
 10
-131.0663
 20
-15.0593
 30
0.0
 10
-131.0663
 20
-15.0593
 30
0.0
 10
-131.3841
 20
-15.2596
 30
0.0
 10
-131.7777
 20
-15.215
 30
0.0
 10
-132.047
 20
-14.9487
 30
0.0
 10
-132.047
 20
-14.9487
 30
0.0
 10
-135.3253
 20
-11.7134
 30
0.0
 10
-135.3253
 20
-11.7134
 30
0.0
 10
-135.5251
 20
-11.5167
 30
0.0
 10
-135.6113
 20
-11.2534
 30
0.0
 10
-135.5684
 20
-10.9705
 30
0.0
 10
-135.5251
 20
-10.688
 30
0.0
 10
-135.3649
 20
-10.4641
 30
0.0
 10
-135.1161
 20
-10.3418
 30
0.0
 10
-134.3191
 20
-9.9445
 30
0.0
 10
-133.5265
 20
-9.5107
 30
0.0
 10
-132.7496
 20
-9.0744
 30
0.0
 10
-131.0205
 20
-8.1056
 30
0.0
 10
-129.3143
 20
-7.0629
 30
0.0
 10
-127.6814
 20
-5.9284
 30
0.0
 10
-126.0225
 20
-4.7771
 30
0.0
 10
-124.2592
 20
-3.4261
 30
0.0
 10
-122.9137
 20
-1.8961
 30
0.0
 10
-122.1864
 20
-1.0688
 30
0.0
 10
-121.1082
 20
0.3636
 30
0.0
 10
-121.3602
 20
1.5776
 30
0.0
 10
-121.5099
 20
2.2982
 30
0.0
 10
-121.8362
 20
3.0143
 30
0.0
 10
-122.555
 20
3.2595
 30
0.0
 10
-123.2066
 20
3.4816
 30
0.0
 10
-123.9843
 20
3.2682
 30
0.0
 10
-124.5783
 20
2.961
 30
0.0
 10
-124.63
 20
2.9285
 30
0.0
 10
-126.9696
 20
-4.991
 30
0.0
 10
-132.1605
 20
-0.6322
 30
0.0
 10
-135.6135
 20
4.037
 30
0.0
 10
-130.4555
 20
7.8673
 30
0.0
 10
-126.0057
 20
8.638
 30
0.0
 10
-122.2397
 20
9.2891
 30
0.0
 10
-119.1185
 20
7.1062
 30
0.0
 10
-117.619
 20
3.594
 30
0.0
 10
-116.276
 20
0.4474
 30
0.0
 10
-116.4131
 20
-3.3397
 30
0.0
 10
-118.1677
 20
-6.2654
 30
0.0
  0
SPLINE
  5
61
330
1F
100
AcDbEntity
  8
Layer 1
 62
   250
370
     9
100
AcDbSpline
210
0.0
220
0.0
230
1.0
 70
    11
 71
     3
 72
    35
 73
    31
 74
     0
 42
0.0000000001
 43
0.0000000001
 40
0.0
 40
0.0
 40
0.0
 40
0.0
 40
0.1
 40
0.1
 40
0.1
 40
0.2
 40
0.2
 40
0.2
 40
0.3
 40
0.3
 40
0.3
 40
0.4
 40
0.4
 40
0.4
 40
0.5
 40
0.5
 40
0.5
 40
0.6000000000000001
 40
0.6000000000000001
 40
0.6000000000000001
 40
0.7000000000000001
 40
0.7000000000000001
 40
0.7000000000000001
 40
0.8
 40
0.8
 40
0.8
 40
0.9
 40
0.9
 40
0.9
 40
1.0
 40
1.0
 40
1.0
 40
1.0
 10
-144.6018
 20
9.6074
 30
0.0
 10
-144.6018
 20
9.6074
 30
0.0
 10
-140.2426
 20
6.264
 30
0.0
 10
-140.2426
 20
6.264
 30
0.0
 10
-140.0284
 20
6.1009
 30
0.0
 10
-139.9129
 20
5.8618
 30
0.0
 10
-139.9129
 20
5.5863
 30
0.0
 10
-139.9129
 20
5.5863
 30
0.0
 10
-139.9129
 20
-22.4542
 30
0.0
 10
-139.9129
 20
-22.4542
 30
0.0
 10
-139.9129
 20
-22.7551
 30
0.0
 10
-140.0513
 20
-23.0134
 30
0.0
 10
-140.2977
 20
-23.1716
 30
0.0
 10
-140.5442
 20
-23.3292
 30
0.0
 10
-140.829
 20
-23.3429
 30
0.0
 10
-141.0878
 20
-23.2089
 30
0.0
 10
-141.0878
 20
-23.2089
 30
0.0
 10
-145.4466
 20
-20.9435
 30
0.0
 10
-145.4466
 20
-20.9435
 30
0.0
 10
-145.7283
 20
-20.7971
 30
0.0
 10
-145.8953
 20
-20.5171
 30
0.0
 10
-145.8953
 20
-20.1888
 30
0.0
 10
-145.8953
 20
-20.1888
 30
0.0
 10
-145.8953
 20
8.9297
 30
0.0
 10
-145.8953
 20
8.9297
 30
0.0
 10
-145.8953
 20
9.2562
 30
0.0
 10
-145.7296
 20
9.5354
 30
0.0
 10
-145.4491
 20
9.6819
 30
0.0
 10
-145.1685
 20
9.8284
 30
0.0
 10
-144.8538
 20
9.8017
 30
0.0
 10
-144.6018
 20
9.6074
 30
0.0
  0
SPLINE
  5
62
330
1F
100
AcDbEntity
  8
Layer 1
 62
   250
370
     9
100
AcDbSpline
210
0.0
220
0.0
230
1.0
 70
    11
 71
     3
 72
    35
 73
    31
 74
     0
 42
0.0000000001
 43
0.0000000001
 40
0.0
 40
0.0
 40
0.0
 40
0.0
 40
0.1
 40
0.1
 40
0.1
 40
0.2
 40
0.2
 40
0.2
 40
0.3
 40
0.3
 40
0.3
 40
0.4
 40
0.4
 40
0.4
 40
0.5
 40
0.5
 40
0.5
 40
0.6000000000000001
 40
0.6000000000000001
 40
0.6000000000000001
 40
0.7000000000000001
 40
0.7000000000000001
 40
0.7000000000000001
 40
0.8
 40
0.8
 40
0.8
 40
0.9
 40
0.9
 40
0.9
 40
1.0
 40
1.0
 40
1.0
 40
1.0
 10
-155.1614
 20
9.6391
 30
0.0
 10
-155.1614
 20
9.6391
 30
0.0
 10
-150.5321
 20
6.4576
 30
0.0
 10
-150.5321
 20
6.4576
 30
0.0
 10
-150.2981
 20
6.2969
 30
0.0
 10
-150.1677
 20
6.0461
 30
0.0
 10
-150.1677
 20
5.7551
 30
0.0
 10
-150.1677
 20
5.7551
 30
0.0
 10
-150.1677
 20
-22.4597
 30
0.0
 10
-150.1677
 20
-22.4597
 30
0.0
 10
-150.1677
 20
-22.7731
 30
0.0
 10
-150.3191
 20
-23.0413
 30
0.0
 10
-150.5811
 20
-23.1945
 30
0.0
 10
-150.8437
 20
-23.3479
 30
0.0
 10
-151.1428
 20
-23.3442
 30
0.0
 10
-151.4004
 20
-23.1815
 30
0.0
 10
-151.4004
 20
-23.1815
 30
0.0
 10
-156.1867
 20
-20.1647
 30
0.0
 10
-156.1867
 20
-20.1647
 30
0.0
 10
-156.4387
 20
-20.0063
 30
0.0
 10
-156.5795
 20
-19.7432
 30
0.0
 10
-156.5783
 20
-19.4379
 30
0.0
 10
-156.5783
 20
-19.4379
 30
0.0
 10
-156.4213
 20
8.9396
 30
0.0
 10
-156.4213
 20
8.9396
 30
0.0
 10
-156.4195
 20
9.258
 30
0.0
 10
-156.2618
 20
9.5292
 30
0.0
 10
-155.9919
 20
9.6787
 30
0.0
 10
-155.7219
 20
9.8284
 30
0.0
 10
-155.4171
 20
9.8141
 30
0.0
 10
-155.1614
 20
9.6391
 30
0.0
  0
SPLINE
  5
63
330
1F
100
AcDbEntity
  8
Layer 1
 62
   250
370
     9
100
AcDbSpline
210
0.0
220
0.0
230
1.0
 70
    11
 71
     3
 72
    35
 73
    31
 74
     0
 42
0.0000000001
 43
0.0000000001
 40
0.0
 40
0.0
 40
0.0
 40
0.0
 40
0.1
 40
0.1
 40
0.1
 40
0.2
 40
0.2
 40
0.2
 40
0.3
 40
0.3
 40
0.3
 40
0.4
 40
0.4
 40
0.4
 40
0.5
 40
0.5
 40
0.5
 40
0.6000000000000001
 40
0.6000000000000001
 40
0.6000000000000001
 40
0.7000000000000001
 40
0.7000000000000001
 40
0.7000000000000001
 40
0.8
 40
0.8
 40
0.8
 40
0.9
 40
0.9
 40
0.9
 40
1.0
 40
1.0
 40
1.0
 40
1.0
 10
151.8117
 20
9.6074
 30
0.0
 10
151.8117
 20
9.6074
 30
0.0
 10
156.1711
 20
6.264
 30
0.0
 10
156.1711
 20
6.264
 30
0.0
 10
156.3845
 20
6.1009
 30
0.0
 10
156.5006
 20
5.8618
 30
0.0
 10
156.5006
 20
5.5863
 30
0.0
 10
156.5006
 20
5.5863
 30
0.0
 10
156.5006
 20
-22.4542
 30
0.0
 10
156.5006
 20
-22.4542
 30
0.0
 10
156.5006
 20
-22.7551
 30
0.0
 10
156.3616
 20
-23.0134
 30
0.0
 10
156.1158
 20
-23.1716
 30
0.0
 10
155.8694
 20
-23.3292
 30
0.0
 10
155.5845
 20
-23.3429
 30
0.0
 10
155.3257
 20
-23.2089
 30
0.0
 10
155.3257
 20
-23.2089
 30
0.0
 10
150.967
 20
-20.9435
 30
0.0
 10
150.967
 20
-20.9435
 30
0.0
 10
150.6853
 20
-20.7971
 30
0.0
 10
150.5182
 20
-20.5171
 30
0.0
 10
150.5182
 20
-20.1888
 30
0.0
 10
150.5182
 20
-20.1888
 30
0.0
 10
150.5182
 20
8.9297
 30
0.0
 10
150.5182
 20
8.9297
 30
0.0
 10
150.5182
 20
9.2562
 30
0.0
 10
150.6841
 20
9.5354
 30
0.0
 10
150.9645
 20
9.6819
 30
0.0
 10
151.2445
 20
9.8284
 30
0.0
 10
151.5597
 20
9.8017
 30
0.0
 10
151.8117
 20
9.6074
 30
0.0
  0
SPLINE
  5
64
330
1F
100
AcDbEntity
  8
Layer 1
 62
   250
370
     9
100
AcDbSpline
210
0.0
220
0.0
230
1.0
 70
    11
 71
     3
 72
    35
 73
    31
 74
     0
 42
0.0000000001
 43
0.0000000001
 40
0.0
 40
0.0
 40
0.0
 40
0.0
 40
0.1
 40
0.1
 40
0.1
 40
0.2
 40
0.2
 40
0.2
 40
0.3
 40
0.3
 40
0.3
 40
0.4
 40
0.4
 40
0.4
 40
0.5
 40
0.5
 40
0.5
 40
0.6000000000000001
 40
0.6000000000000001
 40
0.6000000000000001
 40
0.7000000000000001
 40
0.7000000000000001
 40
0.7000000000000001
 40
0.8
 40
0.8
 40
0.8
 40
0.9
 40
0.9
 40
0.9
 40
1.0
 40
1.0
 40
1.0
 40
1.0
 10
141.2515
 20
9.6391
 30
0.0
 10
141.2515
 20
9.6391
 30
0.0
 10
145.8821
 20
6.4576
 30
0.0
 10
145.8821
 20
6.4576
 30
0.0
 10
146.116
 20
6.2969
 30
0.0
 10
146.2458
 20
6.0461
 30
0.0
 10
146.2458
 20
5.7551
 30
0.0
 10
146.2458
 20
5.7551
 30
0.0
 10
146.2458
 20
-22.4597
 30
0.0
 10
146.2458
 20
-22.4597
 30
0.0
 10
146.2458
 20
-22.7731
 30
0.0
 10
146.0943
 20
-23.0413
 30
0.0
 10
145.8318
 20
-23.1945
 30
0.0
 10
145.57
 20
-23.3479
 30
0.0
 10
145.2701
 20
-23.3442
 30
0.0
 10
145.0126
 20
-23.1815
 30
0.0
 10
145.0126
 20
-23.1815
 30
0.0
 10
140.2263
 20
-20.1647
 30
0.0
 10
140.2263
 20
-20.1647
 30
0.0
 10
139.9749
 20
-20.0063
 30
0.0
 10
139.834
 20
-19.7432
 30
0.0
 10
139.8359
 20
-19.4379
 30
0.0
 10
139.8359
 20
-19.4379
 30
0.0
 10
139.9923
 20
8.9396
 30
0.0
 10
139.9923
 20
8.9396
 30
0.0
 10
139.9941
 20
9.258
 30
0.0
 10
140.1518
 20
9.5292
 30
0.0
 10
140.4218
 20
9.6787
 30
0.0
 10
140.6911
 20
9.8284
 30
0.0
 10
140.9964
 20
9.8141
 30
0.0
 10
141.2515
 20
9.6391
 30
0.0
  0
SPLINE
  5
65
330
1F
100
AcDbEntity
  8
Layer 1
 62
   250
370
     9
100
AcDbSpline
210
0.0
220
0.0
230
1.0
 70
    11
 71
     3
 72
   182
 73
   178
 74
     0
 42
0.0000000001
 43
0.0000000001
 40
0.0
 40
0.0
 40
0.0
 40
0.0
 40
0.0169491525423729
 40
0.0169491525423729
 40
0.0169491525423729
 40
0.0338983050847458
 40
0.0338983050847458
 40
0.0338983050847458
 40
0.0508474576271186
 40
0.0508474576271186
 40
0.0508474576271186
 40
0.0677966101694915
 40
0.0677966101694915
 40
0.0677966101694915
 40
0.0847457627118644
 40
0.0847457627118644
 40
0.0847457627118644
 40
0.1016949152542373
 40
0.1016949152542373
 40
0.1016949152542373
 40
0.1186440677966102
 40
0.1186440677966102
 40
0.1186440677966102
 40
0.1355932203389831
 40
0.1355932203389831
 40
0.1355932203389831
 40
0.1525423728813559
 40
0.1525423728813559
 40
0.1525423728813559
 40
0.1694915254237288
 40
0.1694915254237288
 40
0.1694915254237288
 40
0.1864406779661017
 40
0.1864406779661017
 40
0.1864406779661017
 40
0.2033898305084746
 40
0.2033898305084746
 40
0.2033898305084746
 40
0.2203389830508475
 40
0.2203389830508475
 40
0.2203389830508475
 40
0.2372881355932203
 40
0.2372881355932203
 40
0.2372881355932203
 40
0.2542372881355932
 40
0.2542372881355932
 40
0.2542372881355932
 40
0.2711864406779661
 40
0.2711864406779661
 40
0.2711864406779661
 40
0.288135593220339
 40
0.288135593220339
 40
0.288135593220339
 40
0.3050847457627119
 40
0.3050847457627119
 40
0.3050847457627119
 40
0.3220338983050847
 40
0.3220338983050847
 40
0.3220338983050847
 40
0.3389830508474576
 40
0.3389830508474576
 40
0.3389830508474576
 40
0.3559322033898305
 40
0.3559322033898305
 40
0.3559322033898305
 40
0.3728813559322034
 40
0.3728813559322034
 40
0.3728813559322034
 40
0.3898305084745763
 40
0.3898305084745763
 40
0.3898305084745763
 40
0.4067796610169492
 40
0.4067796610169492
 40
0.4067796610169492
 40
0.423728813559322
 40
0.423728813559322
 40
0.423728813559322
 40
0.4406779661016949
 40
0.4406779661016949
 40
0.4406779661016949
 40
0.4576271186440678
 40
0.4576271186440678
 40
0.4576271186440678
 40
0.4745762711864407
 40
0.4745762711864407
 40
0.4745762711864407
 40
0.4915254237288136
 40
0.4915254237288136
 40
0.4915254237288136
 40
0.5084745762711864
 40
0.5084745762711864
 40
0.5084745762711864
 40
0.5254237288135594
 40
0.5254237288135594
 40
0.5254237288135594
 40
0.5423728813559322
 40
0.5423728813559322
 40
0.5423728813559322
 40
0.559322033898305
 40
0.559322033898305
 40
0.559322033898305
 40
0.576271186440678
 40
0.576271186440678
 40
0.576271186440678
 40
0.5932203389830508
 40
0.5932203389830508
 40
0.5932203389830508
 40
0.6101694915254238
 40
0.6101694915254238
 40
0.6101694915254238
 40
0.6271186440677966
 40
0.6271186440677966
 40
0.6271186440677966
 40
0.6440677966101694
 40
0.6440677966101694
 40
0.6440677966101694
 40
0.6610169491525424
 40
0.6610169491525424
 40
0.6610169491525424
 40
0.6779661016949152
 40
0.6779661016949152
 40
0.6779661016949152
 40
0.6949152542372882
 40
0.6949152542372882
 40
0.6949152542372882
 40
0.711864406779661
 40
0.711864406779661
 40
0.711864406779661
 40
0.7288135593220338
 40
0.7288135593220338
 40
0.7288135593220338
 40
0.7457627118644068
 40
0.7457627118644068
 40
0.7457627118644068
 40
0.7627118644067796
 40
0.7627118644067796
 40
0.7627118644067796
 40
0.7796610169491526
 40
0.7796610169491526
 40
0.7796610169491526
 40
0.7966101694915254
 40
0.7966101694915254
 40
0.7966101694915254
 40
0.8135593220338984
 40
0.8135593220338984
 40
0.8135593220338984
 40
0.8305084745762712
 40
0.8305084745762712
 40
0.8305084745762712
 40
0.847457627118644
 40
0.847457627118644
 40
0.847457627118644
 40
0.864406779661017
 40
0.864406779661017
 40
0.864406779661017
 40
0.8813559322033898
 40
0.8813559322033898
 40
0.8813559322033898
 40
0.8983050847457628
 40
0.8983050847457628
 40
0.8983050847457628
 40
0.9152542372881356
 40
0.9152542372881356
 40
0.9152542372881356
 40
0.9322033898305084
 40
0.9322033898305084
 40
0.9322033898305084
 40
0.9491525423728814
 40
0.9491525423728814
 40
0.9491525423728814
 40
0.9661016949152542
 40
0.9661016949152542
 40
0.9661016949152542
 40
0.9830508474576272
 40
0.9830508474576272
 40
0.9830508474576272
 40
1.0
 40
1.0
 40
1.0
 40
1.0
 10
107.6334
 20
-12.6734
 30
0.0
 10
107.5633
 20
-13.0974
 30
0.0
 10
107.7055
 20
-13.6448
 30
0.0
 10
107.8873
 20
-13.9955
 30
0.0
 10
108.2324
 20
-14.6626
 30
0.0
 10
108.8177
 20
-15.027
 30
0.0
 10
109.5288
 20
-15.1405
 30
0.0
 10
110.7279
 20
-15.3341
 30
0.0
 10
113.4451
 20
-13.7776
 30
0.0
 10
114.4518
 20
-13.1544
 30
0.0
 10
116.4801
 20
-11.899
 30
0.0
 10
118.607
 20
-10.2735
 30
0.0
 10
120.3144
 20
-8.5494
 30
0.0
 10
120.3144
 20
-8.5494
 30
0.0
 10
120.3144
 20
3.0056
 30
0.0
 10
120.3144
 20
3.0056
 30
0.0
 10
120.3144
 20
3.0056
 30
0.0
 10
120.0851
 20
3.0056
 30
0.0
 10
120.0851
 20
3.0056
 30
0.0
 10
119.7872
 20
3.0056
 30
0.0
 10
119.5309
 20
3.1596
 30
0.0
 10
119.382
 20
3.429
 30
0.0
 10
119.382
 20
3.429
 30
0.0
 10
116.6573
 20
7.3663
 30
0.0
 10
116.6573
 20
7.3663
 30
0.0
 10
116.5084
 20
7.6338
 30
0.0
 10
116.5084
 20
7.9404
 30
0.0
 10
116.6573
 20
8.2091
 30
0.0
 10
116.807
 20
8.4772
 30
0.0
 10
117.0633
 20
8.6311
 30
0.0
 10
117.3612
 20
8.6311
 30
0.0
 10
117.3612
 20
8.6311
 30
0.0
 10
119.0833
 20
8.6311
 30
0.0
 10
119.0833
 20
8.6311
 30
0.0
 10
117.3062
 20
10.7844
 30
0.0
 10
114.5444
 20
15.124
 30
0.0
 10
114.077
 20
16.8018
 30
0.0
 10
113.6369
 20
18.382
 30
0.0
 10
113.7976
 20
20.4053
 30
0.0
 10
114.4077
 20
21.9116
 30
0.0
 10
115.4056
 20
24.3755
 30
0.0
 10
117.4774
 20
25.61
 30
0.0
 10
119.9761
 20
25.8768
 30
0.0
 10
122.7379
 20
26.171
 30
0.0
 10
126.0877
 20
25.0625
 30
0.0
 10
127.8876
 20
22.9157
 30
0.0
 10
129.0909
 20
21.479
 30
0.0
 10
130.0982
 20
19.4719
 30
0.0
 10
130.5351
 20
17.6155
 30
0.0
 10
130.6078
 20
17.3058
 30
0.0
 10
130.5178
 20
17.0023
 30
0.0
 10
130.2907
 20
16.7894
 30
0.0
 10
130.2907
 20
16.7894
 30
0.0
 10
127.9507
 20
15.5308
 30
0.0
 10
127.9507
 20
15.5308
 30
0.0
 10
127.7589
 20
15.3507
 30
0.0
 10
127.5212
 20
15.2807
 30
0.0
 10
127.2673
 20
15.3266
 30
0.0
 10
127.0129
 20
15.3726
 30
0.0
 10
126.8124
 20
15.5228
 30
0.0
 10
126.6908
 20
15.7592
 30
0.0
 10
126.0037
 20
17.0923
 30
0.0
 10
125.0357
 20
20.0298
 30
0.0
 10
123.3984
 20
20.0298
 30
0.0
 10
122.4806
 20
20.0298
 30
0.0
 10
121.6036
 20
19.7636
 30
0.0
 10
120.8663
 20
19.1888
 30
0.0
 10
120.4777
 20
18.8853
 30
0.0
 10
119.9861
 20
18.3571
 30
0.0
 10
119.8222
 20
17.8687
 30
0.0
 10
119.6212
 20
17.2711
 30
0.0
 10
119.8924
 20
16.5356
 30
0.0
 10
120.1557
 20
16.0093
 30
0.0
 10
121.0679
 20
14.1796
 30
0.0
 10
123.1278
 20
10.2778
 30
0.0
 10
124.6359
 20
8.9968
 30
0.0
 10
124.7544
 20
8.8963
 30
0.0
 10
124.8397
 20
8.77
 30
0.0
 10
124.8885
 20
8.6311
 30
0.0
 10
124.8885
 20
8.6311
 30
0.0
 10
127.8922
 20
8.6311
 30
0.0
 10
127.8922
 20
8.6311
 30
0.0
 10
128.1553
 20
8.6311
 30
0.0
 10
128.3807
 20
8.5145
 30
0.0
 10
128.5389
 20
8.2966
 30
0.0
 10
128.5389
 20
8.2966
 30
0.0
 10
131.3926
 20
4.386
 30
0.0
 10
131.3926
 20
4.386
 30
0.0
 10
131.5838
 20
4.124
 30
0.0
 10
131.6135
 20
3.7952
 30
0.0
 10
131.4733
 20
3.501
 30
0.0
 10
131.3325
 20
3.2074
 30
0.0
 10
131.0618
 20
3.0323
 30
0.0
 10
130.7459
 20
3.0323
 30
0.0
 10
130.7459
 20
3.0323
 30
0.0
 10
126.579
 20
3.0323
 30
0.0
 10
126.579
 20
3.0323
 30
0.0
 10
126.579
 20
3.0323
 30
0.0
 10
126.5518
 20
-22.721
 30
0.0
 10
126.5518
 20
-22.721
 30
0.0
 10
126.5518
 20
-23.0338
 30
0.0
 10
126.3991
 20
-23.3031
 30
0.0
 10
126.1359
 20
-23.4565
 30
0.0
 10
125.8728
 20
-23.6092
 30
0.0
 10
125.5724
 20
-23.603
 30
0.0
 10
125.3154
 20
-23.4384
 30
0.0
 10
125.3154
 20
-23.4384
 30
0.0
 10
120.8562
 20
-20.5941
 30
0.0
 10
120.8562
 20
-20.5941
 30
0.0
 10
120.6091
 20
-20.4364
 30
0.0
 10
120.4695
 20
-20.1776
 30
0.0
 10
120.4695
 20
-19.876
 30
0.0
 10
120.4695
 20
-19.876
 30
0.0
 10
120.4695
 20
-16.3967
 30
0.0
 10
120.4695
 20
-16.3967
 30
0.0
 10
119.9934
 20
-16.8318
 30
0.0
 10
119.5099
 20
-17.2513
 30
0.0
 10
119.001
 20
-17.6442
 30
0.0
 10
117.5723
 20
-18.7458
 30
0.0
 10
115.9829
 20
-19.6128
 30
0.0
 10
114.2346
 20
-20.0045
 30
0.0
 10
111.8973
 20
-20.5296
 30
0.0
 10
109.6319
 20
-20.1199
 30
0.0
 10
107.5137
 20
-18.9935
 30
0.0
 10
104.3527
 20
-17.3103
 30
0.0
 10
101.769
 20
-14.1848
 30
0.0
 10
99.7973
 20
-11.1839
 30
0.0
 10
99.6539
 20
-10.9655
 30
0.0
 10
99.6173
 20
-10.7141
 30
0.0
 10
99.693
 20
-10.4596
 30
0.0
 10
99.7681
 20
-10.2065
 30
0.0
 10
99.9345
 20
-10.0202
 30
0.0
 10
100.1722
 20
-9.9234
 30
0.0
 10
100.9187
 20
-9.6206
 30
0.0
 10
101.6709
 20
-9.26
 30
0.0
 10
102.3915
 20
-8.8981
 30
0.0
 10
103.9903
 20
-8.0988
 30
0.0
 10
105.5692
 20
-7.1907
 30
0.0
 10
107.0363
 20
-6.1537
 30
0.0
 10
108.5073
 20
-5.1141
 30
0.0
 10
110.0793
 20
-3.7953
 30
0.0
 10
111.0873
 20
-2.2617
 30
0.0
 10
111.9768
 20
-0.9097
 30
0.0
 10
112.0582
 20
1.4097
 30
0.0
 10
110.6023
 20
2.3695
 30
0.0
 10
109.5236
 20
3.0789
 30
0.0
 10
108.4446
 20
3.2689
 30
0.0
 10
107.2834
 20
2.9219
 30
0.0
 10
106.2999
 20
2.4335
 30
0.0
 10
105.9546
 20
1.8949
 30
0.0
 10
106.0956
 20
0.8977
 30
0.0
 10
106.9821
 20
-5.3698
 30
0.0
 10
101.6794
 20
-4.2673
 30
0.0
 10
100.5446
 20
-1.7268
 30
0.0
 10
100.2072
 20
-0.9711
 30
0.0
 10
100.0031
 20
-0.1865
 30
0.0
 10
99.9192
 20
0.615
 30
0.0
 10
99.7895
 20
1.8526
 30
0.0
 10
99.9455
 20
3.1307
 30
0.0
 10
100.3366
 20
4.4046
 30
0.0
 10
101.4171
 20
7.9205
 30
0.0
 10
104.9629
 20
9.2921
 30
0.0
 10
108.2615
 20
8.772
 30
0.0
 10
112.2988
 20
8.1341
 30
0.0
 10
115.4643
 20
5.7414
 30
0.0
 10
116.6422
 20
1.7488
 30
0.0
 10
117.8438
 20
-2.3237
 30
0.0
 10
116.2343
 20
-6.3486
 30
0.0
 10
113.2204
 20
-8.9763
 30
0.0
 10
112.094
 20
-9.9594
 30
0.0
 10
110.8502
 20
-10.7669
 30
0.0
 10
109.5717
 20
-11.5147
 30
0.0
 10
109.1118
 20
-11.7835
 30
0.0
 10
108.6463
 20
-12.0423
 30
0.0
 10
108.1902
 20
-12.3154
 30
0.0
 10
108.0605
 20
-12.3924
 30
0.0
 10
107.7861
 20
-12.5499
 30
0.0
 10
107.6334
 20
-12.6734
 30
0.0
  0
SPLINE
  5
66
330
1F
100
AcDbEntity
  8
Layer 1
 62
   250
370
     9
100
AcDbSpline
210
0.0
220
0.0
230
1.0
 70
    11
 71
     3
 72
   239
 73
   235
 74
     0
 42
0.0000000001
 43
0.0000000001
 40
0.0
 40
0.0
 40
0.0
 40
0.0
 40
0.0128205128205128
 40
0.0128205128205128
 40
0.0128205128205128
 40
0.0256410256410256
 40
0.0256410256410256
 40
0.0256410256410256
 40
0.0384615384615385
 40
0.0384615384615385
 40
0.0384615384615385
 40
0.0512820512820513
 40
0.0512820512820513
 40
0.0512820512820513
 40
0.0641025641025641
 40
0.0641025641025641
 40
0.0641025641025641
 40
0.0769230769230769
 40
0.0769230769230769
 40
0.0769230769230769
 40
0.0897435897435897
 40
0.0897435897435897
 40
0.0897435897435897
 40
0.1025641025641026
 40
0.1025641025641026
 40
0.1025641025641026
 40
0.1153846153846154
 40
0.1153846153846154
 40
0.1153846153846154
 40
0.1282051282051282
 40
0.1282051282051282
 40
0.1282051282051282
 40
0.141025641025641
 40
0.141025641025641
 40
0.141025641025641
 40
0.1538461538461539
 40
0.1538461538461539
 40
0.1538461538461539
 40
0.1666666666666667
 40
0.1666666666666667
 40
0.1666666666666667
 40
0.1794871794871795
 40
0.1794871794871795
 40
0.1794871794871795
 40
0.1923076923076923
 40
0.1923076923076923
 40
0.1923076923076923
 40
0.2051282051282051
 40
0.2051282051282051
 40
0.2051282051282051
 40
0.217948717948718
 40
0.217948717948718
 40
0.217948717948718
 40
0.2307692307692308
 40
0.2307692307692308
 40
0.2307692307692308
 40
0.2435897435897436
 40
0.2435897435897436
 40
0.2435897435897436
 40
0.2564102564102564
 40
0.2564102564102564
 40
0.2564102564102564
 40
0.2692307692307692
 40
0.2692307692307692
 40
0.2692307692307692
 40
0.282051282051282
 40
0.282051282051282
 40
0.282051282051282
 40
0.2948717948717949
 40
0.2948717948717949
 40
0.2948717948717949
 40
0.3076923076923077
 40
0.3076923076923077
 40
0.3076923076923077
 40
0.3205128205128205
 40
0.3205128205128205
 40
0.3205128205128205
 40
0.3333333333333333
 40
0.3333333333333333
 40
0.3333333333333333
 40
0.3461538461538461
 40
0.3461538461538461
 40
0.3461538461538461
 40
0.358974358974359
 40
0.358974358974359
 40
0.358974358974359
 40
0.3717948717948718
 40
0.3717948717948718
 40
0.3717948717948718
 40
0.3846153846153846
 40
0.3846153846153846
 40
0.3846153846153846
 40
0.3974358974358974
 40
0.3974358974358974
 40
0.3974358974358974
 40
0.4102564102564102
 40
0.4102564102564102
 40
0.4102564102564102
 40
0.4230769230769231
 40
0.4230769230769231
 40
0.4230769230769231
 40
0.4358974358974359
 40
0.4358974358974359
 40
0.4358974358974359
 40
0.4487179487179487
 40
0.4487179487179487
 40
0.4487179487179487
 40
0.4615384615384615
 40
0.4615384615384615
 40
0.4615384615384615
 40
0.4743589743589743
 40
0.4743589743589743
 40
0.4743589743589743
 40
0.4871794871794872
 40
0.4871794871794872
 40
0.4871794871794872
 40
0.5
 40
0.5
 40
0.5
 40
0.5128205128205128
 40
0.5128205128205128
 40
0.5128205128205128
 40
0.5256410256410257
 40
0.5256410256410257
 40
0.5256410256410257
 40
0.5384615384615384
 40
0.5384615384615384
 40
0.5384615384615384
 40
0.5512820512820512
 40
0.5512820512820512
 40
0.5512820512820512
 40
0.5641025641025641
 40
0.5641025641025641
 40
0.5641025641025641
 40
0.5769230769230769
 40
0.5769230769230769
 40
0.5769230769230769
 40
0.5897435897435898
 40
0.5897435897435898
 40
0.5897435897435898
 40
0.6025641025641025
 40
0.6025641025641025
 40
0.6025641025641025
 40
0.6153846153846154
 40
0.6153846153846154
 40
0.6153846153846154
 40
0.6282051282051282
 40
0.6282051282051282
 40
0.6282051282051282
 40
0.641025641025641
 40
0.641025641025641
 40
0.641025641025641
 40
0.6538461538461539
 40
0.6538461538461539
 40
0.6538461538461539
 40
0.6666666666666666
 40
0.6666666666666666
 40
0.6666666666666666
 40
0.6794871794871795
 40
0.6794871794871795
 40
0.6794871794871795
 40
0.6923076923076923
 40
0.6923076923076923
 40
0.6923076923076923
 40
0.7051282051282051
 40
0.7051282051282051
 40
0.7051282051282051
 40
0.717948717948718
 40
0.717948717948718
 40
0.717948717948718
 40
0.7307692307692307
 40
0.7307692307692307
 40
0.7307692307692307
 40
0.7435897435897436
 40
0.7435897435897436
 40
0.7435897435897436
 40
0.7564102564102564
 40
0.7564102564102564
 40
0.7564102564102564
 40
0.7692307692307692
 40
0.7692307692307692
 40
0.7692307692307692
 40
0.782051282051282
 40
0.782051282051282
 40
0.782051282051282
 40
0.7948717948717948
 40
0.7948717948717948
 40
0.7948717948717948
 40
0.8076923076923077
 40
0.8076923076923077
 40
0.8076923076923077
 40
0.8205128205128205
 40
0.8205128205128205
 40
0.8205128205128205
 40
0.8333333333333333
 40
0.8333333333333333
 40
0.8333333333333333
 40
0.8461538461538461
 40
0.8461538461538461
 40
0.8461538461538461
 40
0.8589743589743589
 40
0.8589743589743589
 40
0.8589743589743589
 40
0.8717948717948718
 40
0.8717948717948718
 40
0.8717948717948718
 40
0.8846153846153846
 40
0.8846153846153846
 40
0.8846153846153846
 40
0.8974358974358974
 40
0.8974358974358974
 40
0.8974358974358974
 40
0.9102564102564102
 40
0.9102564102564102
 40
0.9102564102564102
 40
0.923076923076923
 40
0.923076923076923
 40
0.923076923076923
 40
0.9358974358974359
 40
0.9358974358974359
 40
0.9358974358974359
 40
0.9487179487179487
 40
0.9487179487179487
 40
0.9487179487179487
 40
0.9615384615384615
 40
0.9615384615384615
 40
0.9615384615384615
 40
0.9743589743589743
 40
0.9743589743589743
 40
0.9743589743589743
 40
0.9871794871794871
 40
0.9871794871794871
 40
0.9871794871794871
 40
1.0
 40
1.0
 40
1.0
 40
1.0
 10
48.239
 20
2.9969
 30
0.0
 10
48.239
 20
2.9969
 30
0.0
 10
48.239
 20
-7.0027
 30
0.0
 10
48.239
 20
-7.0027
 30
0.0
 10
48.9279
 20
-7.2858
 30
0.0
 10
49.8732
 20
-7.447
 30
0.0
 10
50.4914
 20
-7.4924
 30
0.0
 10
53.0173
 20
-7.6799
 30
0.0
 10
55.5601
 20
-6.8258
 30
0.0
 10
57.7782
 20
-5.605
 30
0.0
 10
57.7782
 20
-5.605
 30
0.0
 10
57.7782
 20
3.0348
 30
0.0
 10
57.7782
 20
3.0348
 30
0.0
 10
57.7782
 20
3.0348
 30
0.0
 10
56.41
 20
3.0348
 30
0.0
 10
56.41
 20
3.0348
 30
0.0
 10
55.9632
 20
3.0348
 30
0.0
 10
55.5981
 20
3.4134
 30
0.0
 10
55.5981
 20
3.8789
 30
0.0
 10
55.5981
 20
3.8789
 30
0.0
 10
55.5981
 20
7.7927
 30
0.0
 10
55.5981
 20
7.7927
 30
0.0
 10
55.5981
 20
8.2569
 30
0.0
 10
55.9632
 20
8.6355
 30
0.0
 10
56.41
 20
8.6355
 30
0.0
 10
56.41
 20
8.6355
 30
0.0
 10
78.4087
 20
8.6355
 30
0.0
 10
78.4087
 20
8.6355
 30
0.0
 10
78.8556
 20
8.6355
 30
0.0
 10
79.2205
 20
8.2569
 30
0.0
 10
79.2205
 20
7.7927
 30
0.0
 10
79.2205
 20
7.7927
 30
0.0
 10
79.2205
 20
3.8783
 30
0.0
 10
79.2205
 20
3.8783
 30
0.0
 10
79.2205
 20
3.4134
 30
0.0
 10
78.8556
 20
3.0348
 30
0.0
 10
78.4087
 20
3.0348
 30
0.0
 10
78.4087
 20
3.0348
 30
0.0
 10
77.6039
 20
3.0348
 30
0.0
 10
77.6039
 20
3.0348
 30
0.0
 10
77.6039
 20
3.0348
 30
0.0
 10
77.6039
 20
-7.6278
 30
0.0
 10
77.6039
 20
-7.6278
 30
0.0
 10
77.6039
 20
-7.6278
 30
0.0
 10
85.8385
 20
-7.6278
 30
0.0
 10
85.8385
 20
-7.6278
 30
0.0
 10
85.8385
 20
-7.6278
 30
0.0
 10
85.8385
 20
3.0323
 30
0.0
 10
85.8385
 20
3.0323
 30
0.0
 10
85.8385
 20
3.0323
 30
0.0
 10
85.6978
 20
3.0323
 30
0.0
 10
85.6978
 20
3.0323
 30
0.0
 10
85.2504
 20
3.0323
 30
0.0
 10
84.886
 20
3.4109
 30
0.0
 10
84.886
 20
3.8764
 30
0.0
 10
84.886
 20
3.8764
 30
0.0
 10
84.886
 20
7.8275
 30
0.0
 10
84.886
 20
7.8275
 30
0.0
 10
84.886
 20
8.2928
 30
0.0
 10
85.2504
 20
8.6714
 30
0.0
 10
85.6978
 20
8.6714
 30
0.0
 10
85.6978
 20
8.6714
 30
0.0
 10
92.2985
 20
8.6714
 30
0.0
 10
92.2985
 20
8.6714
 30
0.0
 10
92.5548
 20
8.6714
 30
0.0
 10
92.7752
 20
8.5598
 30
0.0
 10
92.9346
 20
8.3518
 30
0.0
 10
92.9346
 20
8.3518
 30
0.0
 10
95.9696
 20
4.3693
 30
0.0
 10
95.9696
 20
4.3693
 30
0.0
 10
96.1676
 20
4.1092
 30
0.0
 10
96.203
 20
3.7765
 30
0.0
 10
96.0645
 20
3.4781
 30
0.0
 10
95.9255
 20
3.1807
 30
0.0
 10
95.6524
 20
3.0019
 30
0.0
 10
95.3335
 20
3.0019
 30
0.0
 10
95.3335
 20
3.0019
 30
0.0
 10
92.6593
 20
3.0019
 30
0.0
 10
92.6593
 20
3.0019
 30
0.0
 10
92.6593
 20
3.0019
 30
0.0
 10
92.6593
 20
-23.3205
 30
0.0
 10
92.6593
 20
-23.3205
 30
0.0
 10
92.6593
 20
-23.6396
 30
0.0
 10
92.5023
 20
-23.9121
 30
0.0
 10
92.2317
 20
-24.0635
 30
0.0
 10
91.9618
 20
-24.2149
 30
0.0
 10
91.6557
 20
-24.2
 30
0.0
 10
91.3994
 20
-24.0237
 30
0.0
 10
91.3994
 20
-24.0237
 30
0.0
 10
86.1874
 20
-20.4389
 30
0.0
 10
86.1874
 20
-20.4389
 30
0.0
 10
85.9527
 20
-20.2782
 30
0.0
 10
85.823
 20
-20.0274
 30
0.0
 10
85.823
 20
-19.7363
 30
0.0
 10
85.823
 20
-19.7363
 30
0.0
 10
85.823
 20
-13.1644
 30
0.0
 10
85.823
 20
-13.1644
 30
0.0
 10
85.823
 20
-13.1644
 30
0.0
 10
77.6634
 20
-13.1644
 30
0.0
 10
77.6634
 20
-13.1644
 30
0.0
 10
77.6634
 20
-13.1644
 30
0.0
 10
77.6634
 20
-16.5842
 30
0.0
 10
77.6634
 20
-16.5842
 30
0.0
 10
77.6634
 20
-17.049
 30
0.0
 10
77.2992
 20
-17.4283
 30
0.0
 10
76.8517
 20
-17.4283
 30
0.0
 10
76.8517
 20
-17.4283
 30
0.0
 10
75.0971
 20
-17.4283
 30
0.0
 10
75.0971
 20
-17.4283
 30
0.0
 10
74.8471
 20
-17.4283
 30
0.0
 10
74.6311
 20
-17.3227
 30
0.0
 10
74.4709
 20
-17.121
 30
0.0
 10
74.4709
 20
-17.121
 30
0.0
 10
68.1242
 20
-9.1272
 30
0.0
 10
68.1242
 20
-9.1272
 30
0.0
 10
67.9195
 20
-8.8697
 30
0.0
 10
67.8784
 20
-8.5332
 30
0.0
 10
68.0163
 20
-8.2303
 30
0.0
 10
68.1534
 20
-7.9287
 30
0.0
 10
68.429
 20
-7.7474
 30
0.0
 10
68.7504
 20
-7.7474
 30
0.0
 10
68.7504
 20
-7.7474
 30
0.0
 10
71.5328
 20
-7.7474
 30
0.0
 10
71.5328
 20
-7.7474
 30
0.0
 10
71.5328
 20
-7.7474
 30
0.0
 10
71.5328
 20
3.0156
 30
0.0
 10
71.5328
 20
3.0156
 30
0.0
 10
71.5328
 20
3.0156
 30
0.0
 10
63.989
 20
3.0156
 30
0.0
 10
63.989
 20
3.0156
 30
0.0
 10
63.989
 20
3.0156
 30
0.0
 10
63.989
 20
-23.4092
 30
0.0
 10
63.989
 20
-23.4092
 30
0.0
 10
63.989
 20
-23.732
 30
0.0
 10
63.8269
 20
-24.0088
 30
0.0
 10
63.5514
 20
-24.1584
 30
0.0
 10
63.2752
 20
-24.3074
 30
0.0
 10
62.9648
 20
-24.2857
 30
0.0
 10
62.7105
 20
-24.0994
 30
0.0
 10
62.7105
 20
-24.0994
 30
0.0
 10
58.1351
 20
-20.7585
 30
0.0
 10
58.1351
 20
-20.7585
 30
0.0
 10
57.9117
 20
-20.5966
 30
0.0
 10
57.79
 20
-20.3527
 30
0.0
 10
57.79
 20
-20.069
 30
0.0
 10
57.79
 20
-20.069
 30
0.0
 10
57.79
 20
-12.3725
 30
0.0
 10
57.79
 20
-12.3725
 30
0.0
 10
56.9162
 20
-12.7908
 30
0.0
 10
55.946
 20
-13.1086
 30
0.0
 10
55.1145
 20
-13.2705
 30
0.0
 10
52.239
 20
-13.8329
 30
0.0
 10
49.5995
 20
-13.0371
 30
0.0
 10
47.4185
 20
-11.1231
 30
0.0
 10
46.7706
 20
-11.6562
 30
0.0
 10
46.0748
 20
-12.1242
 30
0.0
 10
45.4635
 20
-12.6921
 30
0.0
 10
45.2829
 20
-12.8603
 30
0.0
 10
44.9955
 20
-13.1464
 30
0.0
 10
44.9081
 20
-13.3866
 30
0.0
 10
44.8647
 20
-13.5033
 30
0.0
 10
44.8981
 20
-13.5703
 30
0.0
 10
44.9689
 20
-13.6715
 30
0.0
 10
44.9745
 20
-13.6795
 30
0.0
 10
44.9794
 20
-13.6869
 30
0.0
 10
44.9843
 20
-13.6951
 30
0.0
 10
44.9843
 20
-13.6951
 30
0.0
 10
51.0561
 20
-23.0505
 30
0.0
 10
51.0561
 20
-23.0505
 30
0.0
 10
51.1833
 20
-23.2455
 30
0.0
 10
51.2242
 20
-23.4608
 30
0.0
 10
51.1784
 20
-23.6911
 30
0.0
 10
51.1325
 20
-23.922
 30
0.0
 10
51.0133
 20
-24.1031
 30
0.0
 10
50.8222
 20
-24.231
 30
0.0
 10
50.8222
 20
-24.231
 30
0.0
 10
48.7976
 20
-25.5827
 30
0.0
 10
48.7976
 20
-25.5827
 30
0.0
 10
48.4326
 20
-25.828
 30
0.0
 10
47.9479
 20
-25.7299
 30
0.0
 10
47.6965
 20
-25.3605
 30
0.0
 10
47.6965
 20
-25.3605
 30
0.0
 10
36.401
 20
-8.7709
 30
0.0
 10
36.401
 20
-8.7709
 30
0.0
 10
36.3891
 20
-8.7548
 30
0.0
 10
36.3799
 20
-8.7399
 30
0.0
 10
36.3694
 20
-8.7213
 30
0.0
 10
36.1602
 20
-8.3631
 30
0.0
 10
35.997
 20
-7.8828
 30
0.0
 10
35.9262
 20
-7.4751
 30
0.0
 10
35.7599
 20
-6.5075
 30
0.0
 10
36.023
 20
-5.5995
 30
0.0
 10
36.7771
 20
-4.9744
 30
0.0
 10
37.5864
 20
-4.3011
 30
0.0
 10
38.5707
 20
-4.2917
 30
0.0
 10
39.5123
 20
-4.6307
 30
0.0
 10
40.1664
 20
-4.8665
 30
0.0
 10
40.7026
 20
-5.2202
 30
0.0
 10
41.2829
 20
-5.5976
 30
0.0
 10
41.4456
 20
-5.7032
 30
0.0
 10
41.8173
 20
-5.6777
 30
0.0
 10
42.1518
 20
-5.618
 30
0.0
 10
42.1518
 20
-5.618
 30
0.0
 10
42.1518
 20
3.0318
 30
0.0
 10
42.1518
 20
3.0318
 30
0.0
 10
42.1518
 20
3.0318
 30
0.0
 10
34.0941
 20
3.0318
 30
0.0
 10
34.0941
 20
3.0318
 30
0.0
 10
33.7937
 20
3.0318
 30
0.0
 10
33.5361
 20
3.1882
 30
0.0
 10
33.3877
 20
3.4587
 30
0.0
 10
33.3877
 20
3.4587
 30
0.0
 10
31.2311
 20
7.4098
 30
0.0
 10
31.2311
 20
7.4098
 30
0.0
 10
31.0846
 20
7.6778
 30
0.0
 10
31.0864
 20
7.9844
 30
0.0
 10
31.2354
 20
8.2507
 30
0.0
 10
31.3856
 20
8.5175
 30
0.0
 10
31.6401
 20
8.6689
 30
0.0
 10
31.9373
 20
8.6689
 30
0.0
 10
31.9373
 20
8.6689
 30
0.0
 10
49.1624
 20
8.6689
 30
0.0
 10
49.1624
 20
8.6689
 30
0.0
 10
49.6098
 20
8.6689
 30
0.0
 10
49.9742
 20
8.2904
 30
0.0
 10
49.9742
 20
7.8262
 30
0.0
 10
49.9742
 20
7.8262
 30
0.0
 10
49.9742
 20
3.841
 30
0.0
 10
49.9742
 20
3.841
 30
0.0
 10
49.9742
 20
3.3762
 30
0.0
 10
49.6098
 20
2.9969
 30
0.0
 10
49.1624
 20
2.9969
 30
0.0
 10
49.1624
 20
2.9969
 30
0.0
 10
48.239
 20
2.9969
 30
0.0
 10
48.239
 20
2.9969
 30
0.0
  0
SPLINE
  5
67
330
1F
100
AcDbEntity
  8
Layer 1
 62
   250
370
     9
100
AcDbSpline
210
0.0
220
0.0
230
1.0
 70
    11
 71
     3
 72
   410
 73
   406
 74
     0
 42
0.0000000001
 43
0.0000000001
 40
0.0
 40
0.0
 40
0.0
 40
0.0
 40
0.0074074074074074
 40
0.0074074074074074
 40
0.0074074074074074
 40
0.0148148148148148
 40
0.0148148148148148
 40
0.0148148148148148
 40
0.0222222222222222
 40
0.0222222222222222
 40
0.0222222222222222
 40
0.0296296296296296
 40
0.0296296296296296
 40
0.0296296296296296
 40
0.037037037037037
 40
0.037037037037037
 40
0.037037037037037
 40
0.0444444444444444
 40
0.0444444444444444
 40
0.0444444444444444
 40
0.0518518518518519
 40
0.0518518518518519
 40
0.0518518518518519
 40
0.0592592592592593
 40
0.0592592592592593
 40
0.0592592592592593
 40
0.0666666666666667
 40
0.0666666666666667
 40
0.0666666666666667
 40
0.0740740740740741
 40
0.0740740740740741
 40
0.0740740740740741
 40
0.0814814814814815
 40
0.0814814814814815
 40
0.0814814814814815
 40
0.0888888888888889
 40
0.0888888888888889
 40
0.0888888888888889
 40
0.0962962962962963
 40
0.0962962962962963
 40
0.0962962962962963
 40
0.1037037037037037
 40
0.1037037037037037
 40
0.1037037037037037
 40
0.1111111111111111
 40
0.1111111111111111
 40
0.1111111111111111
 40
0.1185185185185185
 40
0.1185185185185185
 40
0.1185185185185185
 40
0.1259259259259259
 40
0.1259259259259259
 40
0.1259259259259259
 40
0.1333333333333333
 40
0.1333333333333333
 40
0.1333333333333333
 40
0.1407407407407407
 40
0.1407407407407407
 40
0.1407407407407407
 40
0.1481481481481481
 40
0.1481481481481481
 40
0.1481481481481481
 40
0.1555555555555556
 40
0.1555555555555556
 40
0.1555555555555556
 40
0.162962962962963
 40
0.162962962962963
 40
0.162962962962963
 40
0.1703703703703704
 40
0.1703703703703704
 40
0.1703703703703704
 40
0.1777777777777778
 40
0.1777777777777778
 40
0.1777777777777778
 40
0.1851851851851852
 40
0.1851851851851852
 40
0.1851851851851852
 40
0.1925925925925926
 40
0.1925925925925926
 40
0.1925925925925926
 40
0.2
 40
0.2
 40
0.2
 40
0.2074074074074074
 40
0.2074074074074074
 40
0.2074074074074074
 40
0.2148148148148148
 40
0.2148148148148148
 40
0.2148148148148148
 40
0.2222222222222222
 40
0.2222222222222222
 40
0.2222222222222222
 40
0.2296296296296296
 40
0.2296296296296296
 40
0.2296296296296296
 40
0.237037037037037
 40
0.237037037037037
 40
0.237037037037037
 40
0.2444444444444445
 40
0.2444444444444445
 40
0.2444444444444445
 40
0.2518518518518519
 40
0.2518518518518519
 40
0.2518518518518519
 40
0.2592592592592592
 40
0.2592592592592592
 40
0.2592592592592592
 40
0.2666666666666667
 40
0.2666666666666667
 40
0.2666666666666667
 40
0.2740740740740741
 40
0.2740740740740741
 40
0.2740740740740741
 40
0.2814814814814815
 40
0.2814814814814815
 40
0.2814814814814815
 40
0.2888888888888889
 40
0.2888888888888889
 40
0.2888888888888889
 40
0.2962962962962963
 40
0.2962962962962963
 40
0.2962962962962963
 40
0.3037037037037037
 40
0.3037037037037037
 40
0.3037037037037037
 40
0.3111111111111111
 40
0.3111111111111111
 40
0.3111111111111111
 40
0.3185185185185185
 40
0.3185185185185185
 40
0.3185185185185185
 40
0.325925925925926
 40
0.325925925925926
 40
0.325925925925926
 40
0.3333333333333334
 40
0.3333333333333334
 40
0.3333333333333334
 40
0.3407407407407407
 40
0.3407407407407407
 40
0.3407407407407407
 40
0.3481481481481482
 40
0.3481481481481482
 40
0.3481481481481482
 40
0.3555555555555556
 40
0.3555555555555556
 40
0.3555555555555556
 40
0.362962962962963
 40
0.362962962962963
 40
0.362962962962963
 40
0.3703703703703704
 40
0.3703703703703704
 40
0.3703703703703704
 40
0.3777777777777778
 40
0.3777777777777778
 40
0.3777777777777778
 40
0.3851851851851852
 40
0.3851851851851852
 40
0.3851851851851852
 40
0.3925925925925926
 40
0.3925925925925926
 40
0.3925925925925926
 40
0.4
 40
0.4
 40
0.4
 40
0.4074074074074074
 40
0.4074074074074074
 40
0.4074074074074074
 40
0.4148148148148149
 40
0.4148148148148149
 40
0.4148148148148149
 40
0.4222222222222222
 40
0.4222222222222222
 40
0.4222222222222222
 40
0.4296296296296296
 40
0.4296296296296296
 40
0.4296296296296296
 40
0.4370370370370371
 40
0.4370370370370371
 40
0.4370370370370371
 40
0.4444444444444445
 40
0.4444444444444445
 40
0.4444444444444445
 40
0.4518518518518519
 40
0.4518518518518519
 40
0.4518518518518519
 40
0.4592592592592593
 40
0.4592592592592593
 40
0.4592592592592593
 40
0.4666666666666667
 40
0.4666666666666667
 40
0.4666666666666667
 40
0.4740740740740741
 40
0.4740740740740741
 40
0.4740740740740741
 40
0.4814814814814815
 40
0.4814814814814815
 40
0.4814814814814815
 40
0.4888888888888889
 40
0.4888888888888889
 40
0.4888888888888889
 40
0.4962962962962963
 40
0.4962962962962963
 40
0.4962962962962963
 40
0.5037037037037038
 40
0.5037037037037038
 40
0.5037037037037038
 40
0.5111111111111112
 40
0.5111111111111112
 40
0.5111111111111112
 40
0.5185185185185185
 40
0.5185185185185185
 40
0.5185185185185185
 40
0.5259259259259259
 40
0.5259259259259259
 40
0.5259259259259259
 40
0.5333333333333333
 40
0.5333333333333333
 40
0.5333333333333333
 40
0.5407407407407407
 40
0.5407407407407407
 40
0.5407407407407407
 40
0.5481481481481482
 40
0.5481481481481482
 40
0.5481481481481482
 40
0.5555555555555556
 40
0.5555555555555556
 40
0.5555555555555556
 40
0.562962962962963
 40
0.562962962962963
 40
0.562962962962963
 40
0.5703703703703704
 40
0.5703703703703704
 40
0.5703703703703704
 40
0.5777777777777778
 40
0.5777777777777778
 40
0.5777777777777778
 40
0.5851851851851853
 40
0.5851851851851853
 40
0.5851851851851853
 40
0.5925925925925926
 40
0.5925925925925926
 40
0.5925925925925926
 40
0.6
 40
0.6
 40
0.6
 40
0.6074074074074074
 40
0.6074074074074074
 40
0.6074074074074074
 40
0.6148148148148148
 40
0.6148148148148148
 40
0.6148148148148148
 40
0.6222222222222222
 40
0.6222222222222222
 40
0.6222222222222222
 40
0.6296296296296297
 40
0.6296296296296297
 40
0.6296296296296297
 40
0.6370370370370371
 40
0.6370370370370371
 40
0.6370370370370371
 40
0.6444444444444445
 40
0.6444444444444445
 40
0.6444444444444445
 40
0.6518518518518519
 40
0.6518518518518519
 40
0.6518518518518519
 40
0.6592592592592593
 40
0.6592592592592593
 40
0.6592592592592593
 40
0.6666666666666667
 40
0.6666666666666667
 40
0.6666666666666667
 40
0.674074074074074
 40
0.674074074074074
 40
0.674074074074074
 40
0.6814814814814815
 40
0.6814814814814815
 40
0.6814814814814815
 40
0.6888888888888889
 40
0.6888888888888889
 40
0.6888888888888889
 40
0.6962962962962963
 40
0.6962962962962963
 40
0.6962962962962963
 40
0.7037037037037037
 40
0.7037037037037037
 40
0.7037037037037037
 40
0.7111111111111111
 40
0.7111111111111111
 40
0.7111111111111111
 40
0.7185185185185186
 40
0.7185185185185186
 40
0.7185185185185186
 40
0.725925925925926
 40
0.725925925925926
 40
0.725925925925926
 40
0.7333333333333334
 40
0.7333333333333334
 40
0.7333333333333334
 40
0.7407407407407408
 40
0.7407407407407408
 40
0.7407407407407408
 40
0.7481481481481482
 40
0.7481481481481482
 40
0.7481481481481482
 40
0.7555555555555555
 40
0.7555555555555555
 40
0.7555555555555555
 40
0.762962962962963
 40
0.762962962962963
 40
0.762962962962963
 40
0.7703703703703704
 40
0.7703703703703704
 40
0.7703703703703704
 40
0.7777777777777778
 40
0.7777777777777778
 40
0.7777777777777778
 40
0.7851851851851852
 40
0.7851851851851852
 40
0.7851851851851852
 40
0.7925925925925926
 40
0.7925925925925926
 40
0.7925925925925926
 40
0.8
 40
0.8
 40
0.8
 40
0.8074074074074075
 40
0.8074074074074075
 40
0.8074074074074075
 40
0.8148148148148149
 40
0.8148148148148149
 40
0.8148148148148149
 40
0.8222222222222223
 40
0.8222222222222223
 40
0.8222222222222223
 40
0.8296296296296297
 40
0.8296296296296297
 40
0.8296296296296297
 40
0.837037037037037
 40
0.837037037037037
 40
0.837037037037037
 40
0.8444444444444444
 40
0.8444444444444444
 40
0.8444444444444444
 40
0.8518518518518519
 40
0.8518518518518519
 40
0.8518518518518519
 40
0.8592592592592593
 40
0.8592592592592593
 40
0.8592592592592593
 40
0.8666666666666667
 40
0.8666666666666667
 40
0.8666666666666667
 40
0.8740740740740741
 40
0.8740740740740741
 40
0.8740740740740741
 40
0.8814814814814815
 40
0.8814814814814815
 40
0.8814814814814815
 40
0.888888888888889
 40
0.888888888888889
 40
0.888888888888889
 40
0.8962962962962964
 40
0.8962962962962964
 40
0.8962962962962964
 40
0.9037037037037038
 40
0.9037037037037038
 40
0.9037037037037038
 40
0.9111111111111111
 40
0.9111111111111111
 40
0.9111111111111111
 40
0.9185185185185185
 40
0.9185185185185185
 40
0.9185185185185185
 40
0.9259259259259259
 40
0.9259259259259259
 40
0.9259259259259259
 40
0.9333333333333333
 40
0.9333333333333333
 40
0.9333333333333333
 40
0.9407407407407408
 40
0.9407407407407408
 40
0.9407407407407408
 40
0.9481481481481482
 40
0.9481481481481482
 40
0.9481481481481482
 40
0.9555555555555556
 40
0.9555555555555556
 40
0.9555555555555556
 40
0.962962962962963
 40
0.962962962962963
 40
0.962962962962963
 40
0.9703703703703704
 40
0.9703703703703704
 40
0.9703703703703704
 40
0.9777777777777779
 40
0.9777777777777779
 40
0.9777777777777779
 40
0.9851851851851853
 40
0.9851851851851853
 40
0.9851851851851853
 40
0.9925925925925926
 40
0.9925925925925926
 40
0.9925925925925926
 40
1.0
 40
1.0
 40
1.0
 40
1.0
 10
-66.9724
 20
3.0355
 30
0.0
 10
-66.9724
 20
3.0355
 30
0.0
 10
-66.9724
 20
-6.9245
 30
0.0
 10
-66.9724
 20
-6.9245
 30
0.0
 10
-66.3382
 20
-7.107
 30
0.0
 10
-65.6443
 20
-7.2385
 30
0.0
 10
-65.0343
 20
-7.3187
 30
0.0
 10
-63.6868
 20
-7.4973
 30
0.0
 10
-62.1545
 20
-7.4824
 30
0.0
 10
-60.8679
 20
-6.9419
 30
0.0
 10
-59.6744
 20
-2.647
 30
0.0
 10
-56.2336
 20
0.2947
 30
0.0
 10
-51.9524
 20
0.8478
 30
0.0
 10
-48.4917
 20
1.2964
 30
0.0
 10
-45.1242
 20
0.0911
 30
0.0
 10
-42.8204
 20
-2.4559
 30
0.0
 10
-42.8204
 20
-2.4559
 30
0.0
 10
-42.8204
 20
3.0335
 30
0.0
 10
-42.8204
 20
3.0335
 30
0.0
 10
-42.8204
 20
3.0335
 30
0.0
 10
-52.1591
 20
3.0335
 30
0.0
 10
-52.1591
 20
3.0335
 30
0.0
 10
-52.6065
 20
3.0335
 30
0.0
 10
-52.9709
 20
3.4121
 30
0.0
 10
-52.9709
 20
3.8764
 30
0.0
 10
-52.9709
 20
3.8764
 30
0.0
 10
-52.9709
 20
7.7827
 30
0.0
 10
-52.9709
 20
7.7827
 30
0.0
 10
-52.9709
 20
8.2482
 30
0.0
 10
-52.6065
 20
8.6268
 30
0.0
 10
-52.1591
 20
8.6268
 30
0.0
 10
-52.1591
 20
8.6268
 30
0.0
 10
-9.0291
 20
8.6268
 30
0.0
 10
-9.0291
 20
8.6268
 30
0.0
 10
-8.5823
 20
8.6268
 30
0.0
 10
-8.2181
 20
8.2482
 30
0.0
 10
-8.2181
 20
7.7827
 30
0.0
 10
-8.2181
 20
7.7827
 30
0.0
 10
-8.2181
 20
3.887
 30
0.0
 10
-8.2181
 20
3.887
 30
0.0
 10
-8.2181
 20
3.4221
 30
0.0
 10
-8.5823
 20
3.0429
 30
0.0
 10
-9.0291
 20
3.0429
 30
0.0
 10
-9.0291
 20
3.0429
 30
0.0
 10
-9.6938
 20
3.0429
 30
0.0
 10
-9.6938
 20
3.0429
 30
0.0
 10
-9.6938
 20
3.0429
 30
0.0
 10
-9.6938
 20
-7.5675
 30
0.0
 10
-9.6938
 20
-7.5675
 30
0.0
 10
-9.6938
 20
-7.5675
 30
0.0
 10
-1.445
 20
-7.5675
 30
0.0
 10
-1.445
 20
-7.5675
 30
0.0
 10
-1.445
 20
-7.5675
 30
0.0
 10
-1.445
 20
3.0982
 30
0.0
 10
-1.445
 20
3.0982
 30
0.0
 10
-1.445
 20
3.0982
 30
0.0
 10
-2.2484
 20
3.0982
 30
0.0
 10
-2.2484
 20
3.0982
 30
0.0
 10
-2.6958
 20
3.0982
 30
0.0
 10
-3.0608
 20
3.4774
 30
0.0
 10
-3.0608
 20
3.9422
 30
0.0
 10
-3.0608
 20
3.9422
 30
0.0
 10
-3.0608
 20
7.7523
 30
0.0
 10
-3.0608
 20
7.7523
 30
0.0
 10
-3.0608
 20
8.2178
 30
0.0
 10
-2.6958
 20
8.5964
 30
0.0
 10
-2.2484
 20
8.5964
 30
0.0
 10
-2.2484
 20
8.5964
 30
0.0
 10
13.6533
 20
8.5964
 30
0.0
 10
13.6533
 20
8.5964
 30
0.0
 10
13.6291
 20
8.7583
 30
0.0
 10
13.6023
 20
8.9192
 30
0.0
 10
13.5756
 20
9.0774
 30
0.0
 10
13.3969
 20
10.1325
 30
0.0
 10
13.1399
 20
11.1906
 30
0.0
 10
12.7887
 20
12.1991
 30
0.0
 10
12.0433
 20
14.3392
 30
0.0
 10
10.7214
 20
16.6708
 30
0.0
 10
8.3828
 20
17.1171
 30
0.0
 10
5.7594
 20
17.6189
 30
0.0
 10
5.0228
 20
13.9774
 30
0.0
 10
5.0004
 20
11.9329
 30
0.0
 10
4.9949
 20
11.4718
 30
0.0
 10
4.6318
 20
11.0994
 30
0.0
 10
4.188
 20
11.0994
 30
0.0
 10
4.188
 20
11.0994
 30
0.0
 10
0.2973
 20
11.0994
 30
0.0
 10
0.2973
 20
11.0994
 30
0.0
 10
-0.0504
 20
11.0994
 30
0.0
 10
-0.3458
 20
11.3141
 30
0.0
 10
-0.4656
 20
11.6524
 30
0.0
 10
-0.8826
 20
12.8353
 30
0.0
 10
-1.08
 20
14.4254
 30
0.0
 10
-1.0452
 20
15.6685
 30
0.0
 10
-0.967
 20
18.5384
 30
0.0
 10
0.2308
 20
20.9198
 30
0.0
 10
2.6284
 20
22.4255
 30
0.0
 10
5.8122
 20
24.4264
 30
0.0
 10
10.4561
 20
23.4498
 30
0.0
 10
13.2005
 20
21.1807
 30
0.0
 10
16.8239
 20
18.1867
 30
0.0
 10
17.9047
 20
13.2958
 30
0.0
 10
18.3498
 20
8.5982
 30
0.0
 10
18.3498
 20
8.5982
 30
0.0
 10
22.5893
 20
8.5982
 30
0.0
 10
22.5893
 20
8.5982
 30
0.0
 10
22.8481
 20
8.5982
 30
0.0
 10
23.0709
 20
8.4846
 30
0.0
 10
23.2305
 20
8.2731
 30
0.0
 10
23.2305
 20
8.2731
 30
0.0
 10
26.0971
 20
4.4381
 30
0.0
 10
26.0971
 20
4.4381
 30
0.0
 10
26.292
 20
4.1768
 30
0.0
 10
26.3243
 20
3.846
 30
0.0
 10
26.1853
 20
3.5493
 30
0.0
 10
26.0456
 20
3.2534
 30
0.0
 10
25.7738
 20
3.0764
 30
0.0
 10
25.4567
 20
3.0764
 30
0.0
 10
25.4567
 20
3.0764
 30
0.0
 10
19.5979
 20
3.0764
 30
0.0
 10
19.5979
 20
3.0764
 30
0.0
 10
19.5979
 20
3.0764
 30
0.0
 10
19.5979
 20
-23.3143
 30
0.0
 10
19.5979
 20
-23.3143
 30
0.0
 10
19.5979
 20
-23.6358
 30
0.0
 10
19.4383
 20
-23.9108
 30
0.0
 10
19.1653
 20
-24.061
 30
0.0
 10
18.8928
 20
-24.21
 30
0.0
 10
18.5837
 20
-24.1919
 30
0.0
 10
18.3286
 20
-24.0113
 30
0.0
 10
18.3286
 20
-24.0113
 30
0.0
 10
13.2307
 20
-20.3973
 30
0.0
 10
13.2307
 20
-20.3973
 30
0.0
 10
13.0029
 20
-20.2354
 30
0.0
 10
12.8775
 20
-19.9877
 30
0.0
 10
12.8775
 20
-19.6997
 30
0.0
 10
12.8775
 20
-19.6997
 30
0.0
 10
12.8775
 20
3.046
 30
0.0
 10
12.8775
 20
3.046
 30
0.0
 10
12.8775
 20
3.046
 30
0.0
 10
4.7155
 20
3.046
 30
0.0
 10
4.7155
 20
3.046
 30
0.0
 10
4.7155
 20
3.046
 30
0.0
 10
4.7155
 20
-22.7446
 30
0.0
 10
4.7155
 20
-22.7446
 30
0.0
 10
4.7155
 20
-23.0592
 30
0.0
 10
4.5623
 20
-23.3305
 30
0.0
 10
4.2966
 20
-23.4832
 30
0.0
 10
4.031
 20
-23.6364
 30
0.0
 10
3.7281
 20
-23.6259
 30
0.0
 10
3.4718
 20
-23.4577
 30
0.0
 10
3.4718
 20
-23.4577
 30
0.0
 10
-1.0955
 20
-20.47
 30
0.0
 10
-1.0955
 20
-20.47
 30
0.0
 10
-1.3381
 20
-20.3117
 30
0.0
 10
-1.4741
 20
-20.0548
 30
0.0
 10
-1.4741
 20
-19.7562
 30
0.0
 10
-1.4741
 20
-19.7562
 30
0.0
 10
-1.4741
 20
-13.3177
 30
0.0
 10
-1.4741
 20
-13.3177
 30
0.0
 10
-1.4741
 20
-13.3177
 30
0.0
 10
-9.7645
 20
-13.3177
 30
0.0
 10
-9.7645
 20
-13.3177
 30
0.0
 10
-9.7645
 20
-13.3177
 30
0.0
 10
-9.7645
 20
-16.488
 30
0.0
 10
-9.7645
 20
-16.488
 30
0.0
 10
-9.7645
 20
-16.9521
 30
0.0
 10
-10.1289
 20
-17.3314
 30
0.0
 10
-10.5757
 20
-17.3314
 30
0.0
 10
-10.5757
 20
-17.3314
 30
0.0
 10
-12.37
 20
-17.3314
 30
0.0
 10
-12.37
 20
-17.3314
 30
0.0
 10
-12.5935
 20
-17.3314
 30
0.0
 10
-12.7858
 20
-17.2488
 30
0.0
 10
-12.9442
 20
-17.0844
 30
0.0
 10
-12.9442
 20
-17.0844
 30
0.0
 10
-18.8972
 20
-10.8978
 30
0.0
 10
-18.8972
 20
-10.8978
 30
0.0
 10
-19.0556
 20
-10.734
 30
0.0
 10
-19.1356
 20
-10.5341
 30
0.0
 10
-19.1356
 20
-10.3014
 30
0.0
 10
-19.1356
 20
-10.3014
 30
0.0
 10
-19.1356
 20
-8.4891
 30
0.0
 10
-19.1356
 20
-8.4891
 30
0.0
 10
-19.1356
 20
-8.0256
 30
0.0
 10
-18.7706
 20
-7.647
 30
0.0
 10
-18.3231
 20
-7.647
 30
0.0
 10
-18.3231
 20
-7.647
 30
0.0
 10
-15.7891
 20
-7.647
 30
0.0
 10
-15.7891
 20
-7.647
 30
0.0
 10
-15.7891
 20
-7.647
 30
0.0
 10
-15.7891
 20
3.0305
 30
0.0
 10
-15.7891
 20
3.0305
 30
0.0
 10
-15.7891
 20
3.0305
 30
0.0
 10
-25.3481
 20
3.0305
 30
0.0
 10
-25.3481
 20
3.0305
 30
0.0
 10
-25.3481
 20
3.0305
 30
0.0
 10
-25.3481
 20
-22.6415
 30
0.0
 10
-25.3481
 20
-22.6415
 30
0.0
 10
-25.3481
 20
-23.1064
 30
0.0
 10
-25.713
 20
-23.4856
 30
0.0
 10
-26.1606
 20
-23.4856
 30
0.0
 10
-26.1606
 20
-23.4856
 30
0.0
 10
-27.3876
 20
-23.4856
 30
0.0
 10
-27.3876
 20
-23.4856
 30
0.0
 10
-27.5948
 20
-23.4856
 30
0.0
 10
-27.7731
 20
-23.4155
 30
0.0
 10
-27.9275
 20
-23.2722
 30
0.0
 10
-27.9275
 20
-23.2722
 30
0.0
 10
-31.1685
 20
-20.2726
 30
0.0
 10
-31.1685
 20
-20.2726
 30
0.0
 10
-31.3472
 20
-20.1062
 30
0.0
 10
-31.4391
 20
-19.8915
 30
0.0
 10
-31.4391
 20
-19.6426
 30
0.0
 10
-31.4391
 20
-19.6426
 30
0.0
 10
-31.4391
 20
3.036
 30
0.0
 10
-31.4391
 20
3.036
 30
0.0
 10
-31.4391
 20
3.036
 30
0.0
 10
-36.4941
 20
3.036
 30
0.0
 10
-36.4941
 20
3.036
 30
0.0
 10
-36.4941
 20
3.036
 30
0.0
 10
-36.4941
 20
-22.541
 30
0.0
 10
-36.4941
 20
-22.541
 30
0.0
 10
-36.4941
 20
-22.8557
 30
0.0
 10
-36.6463
 20
-23.125
 30
0.0
 10
-36.9113
 20
-23.2777
 30
0.0
 10
-37.1756
 20
-23.4304
 30
0.0
 10
-37.4772
 20
-23.4229
 30
0.0
 10
-37.7343
 20
-23.2572
 30
0.0
 10
-37.7343
 20
-23.2572
 30
0.0
 10
-41.998
 20
-20.5022
 30
0.0
 10
-41.998
 20
-20.5022
 30
0.0
 10
-42.2431
 20
-20.3428
 30
0.0
 10
-42.3809
 20
-20.0852
 30
0.0
 10
-42.3809
 20
-19.7854
 30
0.0
 10
-42.3809
 20
-19.7854
 30
0.0
 10
-42.3809
 20
-15.3745
 30
0.0
 10
-42.3809
 20
-15.3745
 30
0.0
 10
-42.3809
 20
-15.3707
 30
0.0
 10
-42.3809
 20
-15.3677
 30
0.0
 10
-42.3809
 20
-15.364
 30
0.0
 10
-42.3809
 20
-15.3304
 30
0.0
 10
-42.3796
 20
-15.2969
 30
0.0
 10
-42.3796
 20
-15.2634
 30
0.0
 10
-42.3871
 20
-15.2708
 30
0.0
 10
-42.3946
 20
-15.277
 30
0.0
 10
-42.402
 20
-15.2827
 30
0.0
 10
-44.7757
 20
-17.3462
 30
0.0
 10
-47.0985
 20
-18.9019
 30
0.0
 10
-50.4031
 20
-18.3792
 30
0.0
 10
-51.1496
 20
-18.2621
 30
0.0
 10
-52.8553
 20
-18.115
 30
0.0
 10
-52.5679
 20
-16.9821
 30
0.0
 10
-52.4116
 20
-16.3607
 30
0.0
 10
-52.156
 20
-14.2631
 30
0.0
 10
-51.6109
 20
-13.9777
 30
0.0
 10
-47.8365
 20
-12.9661
 30
0.0
 10
-46.6468
 20
-11.9091
 30
0.0
 10
-43.6377
 20
-9.6217
 30
0.0
 10
-43.4571
 20
-9.4852
 30
0.0
 10
-43.0158
 20
-9.1464
 30
0.0
 10
-42.8154
 20
-8.9205
 30
0.0
 10
-42.8142
 20
-8.3532
 30
0.0
 10
-42.8147
 20
-8.0503
 30
0.0
 10
-42.8135
 20
-7.5339
 30
0.0
 10
-42.8142
 20
-7.5322
 30
0.0
 10
-42.8154
 20
-7.5315
 30
0.0
 10
-42.816
 20
-7.5309
 30
0.0
 10
-43.1208
 20
-7.3322
 30
0.0
 10
-43.4285
 20
-7.1381
 30
0.0
 10
-43.7401
 20
-6.9506
 30
0.0
 10
-44.696
 20
-6.3765
 30
0.0
 10
-45.6946
 20
-5.8558
 30
0.0
 10
-46.7217
 20
-5.4332
 30
0.0
 10
-48.6711
 20
-4.63
 30
0.0
 10
-51.4585
 20
-3.8902
 30
0.0
 10
-53.2949
 20
-5.3164
 30
0.0
 10
-54.8738
 20
-6.5441
 30
0.0
 10
-55.4689
 20
-8.3116
 30
0.0
 10
-55.4057
 20
-10.3064
 30
0.0
 10
-55.3791
 20
-11.1779
 30
0.0
 10
-55.0703
 20
-12.1853
 30
0.0
 10
-54.8239
 20
-13.0373
 30
0.0
 10
-54.5755
 20
-13.8675
 30
0.0
 10
-54.7948
 20
-14.6363
 30
0.0
 10
-55.5416
 20
-15.1689
 30
0.0
 10
-56.5822
 20
-15.911
 30
0.0
 10
-57.9975
 20
-14.8951
 30
0.0
 10
-58.6888
 20
-14.1168
 30
0.0
 10
-59.0264
 20
-13.7364
 30
0.0
 10
-59.541
 20
-12.5506
 30
0.0
 10
-59.5428
 20
-12.5488
 30
0.0
 10
-61.6157
 20
-13.327
 30
0.0
 10
-63.8644
 20
-13.6516
 30
0.0
 10
-65.7758
 20
-12.2744
 30
0.0
 10
-66.3121
 20
-11.8865
 30
0.0
 10
-66.7186
 20
-11.4409
 30
0.0
 10
-67.1729
 20
-10.9655
 30
0.0
 10
-67.2511
 20
-10.8835
 30
0.0
 10
-67.5975
 20
-10.5249
 30
0.0
 10
-67.7099
 20
-10.5112
 30
0.0
 10
-67.7172
 20
-10.5112
 30
0.0
 10
-67.7321
 20
-10.5161
 30
0.0
 10
-67.739
 20
-10.5193
 30
0.0
 10
-68.4248
 20
-10.7644
 30
0.0
 10
-69.8455
 20
-12.306
 30
0.0
 10
-70.2587
 20
-12.9317
 30
0.0
 10
-70.3562
 20
-13.0787
 30
0.0
 10
-70.3649
 20
-13.4438
 30
0.0
 10
-70.3023
 20
-13.6187
 30
0.0
 10
-70.1706
 20
-13.7658
 30
0.0
 10
-70.0341
 20
-13.9843
 30
0.0
 10
-69.936
 20
-14.1308
 30
0.0
 10
-69.7095
 20
-14.4708
 30
0.0
 10
-69.4879
 20
-14.8135
 30
0.0
 10
-69.2664
 20
-15.1567
 30
0.0
 10
-68.6203
 20
-16.1578
 30
0.0
 10
-67.9834
 20
-17.1657
 30
0.0
 10
-67.348
 20
-18.1748
 30
0.0
 10
-66.7081
 20
-19.1915
 30
0.0
 10
-66.0707
 20
-20.2098
 30
0.0
 10
-65.4401
 20
-21.2333
 30
0.0
 10
-65.2204
 20
-21.5902
 30
0.0
 10
-65.0007
 20
-21.9476
 30
0.0
 10
-64.7854
 20
-22.3077
 30
0.0
 10
-64.6756
 20
-22.4914
 30
0.0
 10
-64.5272
 20
-22.7198
 30
0.0
 10
-64.4434
 20
-22.9165
 30
0.0
 10
-64.1052
 20
-23.7041
 30
0.0
 10
-65.2712
 20
-24.7622
 30
0.0
 10
-65.81
 20
-25.198
 30
0.0
 10
-66.0844
 20
-25.4184
 30
0.0
 10
-66.3891
 20
-25.6367
 30
0.0
 10
-66.6864
 20
-25.8217
 30
0.0
 10
-67.0488
 20
-26.0466
 30
0.0
 10
-67.5124
 20
-25.9485
 30
0.0
 10
-67.76
 20
-25.5951
 30
0.0
 10
-69.6418
 20
-22.9062
 30
0.0
 10
-71.5211
 20
-20.2161
 30
0.0
 10
-73.3979
 20
-17.5233
 30
0.0
 10
-74.7013
 20
-15.6532
 30
0.0
 10
-76.0045
 20
-13.7815
 30
0.0
 10
-77.2999
 20
-11.9058
 30
0.0
 10
-77.7418
 20
-11.2655
 30
0.0
 10
-78.1842
 20
-10.6247
 30
0.0
 10
-78.6218
 20
-9.9811
 30
0.0
 10
-78.7541
 20
-9.7865
 30
0.0
 10
-78.8868
 20
-9.5914
 30
0.0
 10
-79.0166
 20
-9.3949
 30
0.0
 10
-79.0904
 20
-9.2829
 30
0.0
 10
-79.1805
 20
-9.1533
 30
0.0
 10
-79.2381
 20
-9.0329
 30
0.0
 10
-79.3908
 20
-8.7164
 30
0.0
 10
-79.4659
 20
-8.2104
 30
0.0
 10
-79.4944
 20
-7.8605
 30
0.0
 10
-79.5397
 20
-7.3107
 30
0.0
 10
-79.505
 20
-6.7198
 30
0.0
 10
-79.3232
 20
-6.1991
 30
0.0
 10
-79.0761
 20
-5.4904
 30
0.0
 10
-78.5728
 20
-4.9806
 30
0.0
 10
-77.8516
 20
-4.817
 30
0.0
 10
-76.9734
 20
-4.6177
 30
0.0
 10
-75.5242
 20
-4.6033
 30
0.0
 10
-74.7466
 20
-5.0025
 30
0.0
 10
-74.381
 20
-5.1905
 30
0.0
 10
-73.8839
 20
-5.4152
 30
0.0
 10
-73.5779
 20
-5.0217
 30
0.0
 10
-73.1832
 20
-4.5128
 30
0.0
 10
-73.0559
 20
-3.3807
 30
0.0
 10
-73.0113
 20
-2.7501
 30
0.0
 10
-72.9276
 20
-1.5722
 30
0.0
 10
-72.9809
 20
-0.347
 30
0.0
 10
-73.0522
 20
0.8316
 30
0.0
 10
-73.0975
 20
1.5888
 30
0.0
 10
-73.1658
 20
2.3553
 30
0.0
 10
-73.2098
 20
3.1167
 30
0.0
 10
-73.2098
 20
3.1167
 30
0.0
 10
-81.3918
 20
3.0566
 30
0.0
 10
-81.3918
 20
3.0566
 30
0.0
 10
-81.6996
 20
3.0541
 30
0.0
 10
-81.9646
 20
3.2173
 30
0.0
 10
-82.1111
 20
3.4985
 30
0.0
 10
-82.1111
 20
3.4985
 30
0.0
 10
-84.1506
 20
7.4141
 30
0.0
 10
-84.1506
 20
7.4141
 30
0.0
 10
-84.2896
 20
7.6823
 30
0.0
 10
-84.2839
 20
7.9851
 30
0.0
 10
-84.1331
 20
8.2477
 30
0.0
 10
-83.9829
 20
8.5102
 30
0.0
 10
-83.7309
 20
8.6584
 30
0.0
 10
-83.4362
 20
8.6584
 30
0.0
 10
-83.4362
 20
8.6584
 30
0.0
 10
-57.4289
 20
8.6584
 30
0.0
 10
-57.4289
 20
8.6584
 30
0.0
 10
-56.9821
 20
8.6584
 30
0.0
 10
-56.6172
 20
8.2793
 30
0.0
 10
-56.6172
 20
7.8156
 30
0.0
 10
-56.6172
 20
7.8156
 30
0.0
 10
-56.6172
 20
3.8789
 30
0.0
 10
-56.6172
 20
3.8789
 30
0.0
 10
-56.6172
 20
3.4146
 30
0.0
 10
-56.9821
 20
3.0355
 30
0.0
 10
-57.4289
 20
3.0355
 30
0.0
 10
-57.4289
 20
3.0355
 30
0.0
 10
-66.9724
 20
3.0355
 30
0.0
 10
-66.9724
 20
3.0355
 30
0.0
  0
ENDSEC
  0
SECTION
  2
OBJECTS
  0
DICTIONARY
  5
C
330
0
100
AcDbDictionary
281
     1
  3
ACAD_DETAILVIEWSTYLE
350
6F
  3
ACAD_GROUP
350
D
  3
ACAD_LAYOUT
350
1A
  3
ACAD_MATERIAL
350
43
  3
ACAD_MLEADERSTYLE
350
5B
  3
ACAD_MLINESTYLE
350
17
  3
ACAD_PLOTSETTINGS
350
19
  3
ACAD_PLOTSTYLENAME
350
E
  3
ACAD_SCALELIST
350
47
  3
ACAD_SECTIONVIEWSTYLE
350
70
  3
ACAD_TABLESTYLE
350
59
  3
ACAD_VISUALSTYLE
350
2A
  3
ACDB_RECOMPOSE_DATA
350
6C
  3
AcDbVariableDictionary
350
68
  0
SUN
  5
5D
330
29
100
AcDbSun
 90
        1
290
     0
 63
     7
421
 16777215
 40
1.0
291
     1
 91
  2455826
 92
 54000000
292
     0
 70
     2
 71
   256
280
     1
  0
DICTIONARY
  5
6F
102
{ACAD_REACTORS
330
C
102
}
330
C
100
AcDbDictionary
281
     1
  0
DICTIONARY
  5
D
102
{ACAD_REACTORS
330
C
102
}
330
C
100
AcDbDictionary
281
     1
  0
DICTIONARY
  5
1A
102
{ACAD_REACTORS
330
C
102
}
330
C
100
AcDbDictionary
281
     1
  3
Layout1
350
1E
  3
Layout2
350
26
  3
Model
350
22
  0
DICTIONARY
  5
43
102
{ACAD_REACTORS
330
C
102
}
330
C
100
AcDbDictionary
281
     1
  3
ByBlock
350
45
  3
ByLayer
350
44
  3
Global
350
46
  0
DICTIONARY
  5
5B
102
{ACAD_REACTORS
330
C
102
}
330
C
100
AcDbDictionary
281
     1
  3
Standard
350
5C
  0
DICTIONARY
  5
17
102
{ACAD_REACTORS
330
C
102
}
330
C
100
AcDbDictionary
281
     1
  3
Standard
350
18
  0
DICTIONARY
  5
19
102
{ACAD_REACTORS
330
C
102
}
330
C
100
AcDbDictionary
281
     1
  0
ACDBDICTIONARYWDFLT
  5
E
102
{ACAD_REACTORS
330
C
102
}
330
C
100
AcDbDictionary
281
     1
  3
Normal
350
F
100
AcDbDictionaryWithDefault
340
F
  0
DICTIONARY
  5
47
102
{ACAD_REACTORS
330
C
102
}
330
C
100
AcDbDictionary
281
     1
  3
A0
350
48
  3
A1
350
49
  3
A2
350
4A
  3
A3
350
4B
  3
A4
350
4C
  3
A5
350
4D
  3
A6
350
4E
  3
A7
350
4F
  3
A8
350
50
  3
A9
350
51
  3
B1
350
52
  3
B2
350
53
  3
B3
350
54
  3
B4
350
55
  3
B5
350
56
  3
B6
350
57
  3
B7
350
58
  0
DICTIONARY
  5
70
102
{ACAD_REACTORS
330
C
102
}
330
C
100
AcDbDictionary
281
     1
  0
DICTIONARY
  5
59
102
{ACAD_REACTORS
330
C
102
}
330
C
100
AcDbDictionary
281
     1
  3
Standard
350
5A
  0
DICTIONARY
  5
2A
102
{ACAD_REACTORS
330
C
102
}
330
C
100
AcDbDictionary
281
     1
  3
2dWireframe
350
2F
  3
Basic
350
32
  3
Brighten
350
36
  3
ColorChange
350
3A
  3
Conceptual
350
34
  3
Dim
350
35
  3
EdgeColorOff
350
3D
  3
Facepattern
350
39
  3
Flat
350
2B
  3
FlatWithEdges
350
2C
  3
Gouraud
350
2D
  3
GouraudWithEdges
350
2E
  3
Hidden
350
31
  3
JitterOff
350
3B
  3
Linepattern
350
38
  3
OverhangOff
350
3C
  3
Realistic
350
33
  3
Shaded
350
42
  3
Shaded with edges
350
41
  3
Shades of Gray
350
3E
  3
Sketchy
350
3F
  3
Thicken
350
37
  3
Wireframe
350
30
  3
X-Ray
350
40
  0
XRECORD
  5
6C
102
{ACAD_REACTORS
330
C
102
}
330
C
100
AcDbXrecord
280
     1
 90
        1
330
5A
  0
DICTIONARY
  5
68
102
{ACAD_REACTORS
330
C
102
}
330
C
100
AcDbDictionary
281
     1
  3
CANNOSCALE
350
69
  3
CMLEADERSTYLE
350
6E
  3
CTABLESTYLE
350
6D
  0
LAYOUT
  5
1E
102
{ACAD_REACTORS
330
1A
102
}
330
1A
100
AcDbPlotSettings
  1

  2
none_device
  4

  6

 40
0.0
 41
0.0
 42
0.0
 43
0.0
 44
0.0
 45
0.0
 46
0.0
 47
0.0
 48
0.0
 49
0.0
140
0.0
141
0.0
142
1.0
143
1.0
 70
   688
 72
     0
 73
     0
 74
     5
  7

 75
    16
 76
     0
 77
     2
 78
   300
147
1.0
148
0.0
149
0.0
100
AcDbLayout
  1
Layout1
 70
     1
 71
     1
 10
0.0
 20
0.0
 11
12.0
 21
9.0
 12
0.0
 22
0.0
 32
0.0
 14
1.000000000000000E+20
 24
1.000000000000000E+20
 34
1.000000000000000E+20
 15
-1.000000000000000E+20
 25
-1.000000000000000E+20
 35
-1.000000000000000E+20
146
0.0
 13
0.0
 23
0.0
 33
0.0
 16
1.0
 26
0.0
 36
0.0
 17
0.0
 27
1.0
 37
0.0
 76
     0
330
1B
  0
LAYOUT
  5
26
102
{ACAD_REACTORS
330
1A
102
}
330
1A
100
AcDbPlotSettings
  1

  2
none_device
  4

  6

 40
0.0
 41
0.0
 42
0.0
 43
0.0
 44
0.0
 45
0.0
 46
0.0
 47
0.0
 48
0.0
 49
0.0
140
0.0
141
0.0
142
1.0
143
1.0
 70
   688
 72
     0
 73
     0
 74
     5
  7

 75
    16
 76
     0
 77
     2
 78
   300
147
1.0
148
0.0
149
0.0
100
AcDbLayout
  1
Layout2
 70
     1
 71
     2
 10
0.0
 20
0.0
 11
0.0
 21
0.0
 12
0.0
 22
0.0
 32
0.0
 14
0.0
 24
0.0
 34
0.0
 15
0.0
 25
0.0
 35
0.0
146
0.0
 13
0.0
 23
0.0
 33
0.0
 16
1.0
 26
0.0
 36
0.0
 17
0.0
 27
1.0
 37
0.0
 76
     0
330
23
  0
LAYOUT
  5
22
102
{ACAD_REACTORS
330
1A
102
}
330
1A
100
AcDbPlotSettings
  1

  2
none_device
  4
Letter_(8.50_x_11.00_Inches)
  6

 40
6.35
 41
6.35
 42
6.35000508
 43
6.35000508
 44
215.9
 45
279.4
 46
0.0
 47
0.0
 48
0.0
 49
0.0
140
0.0
141
0.0
142
1.0
143
1.0
 70
  1712
 72
     0
 73
     0
 74
     0
  7

 75
     0
 76
     0
 77
     2
 78
   300
147
1.0
148
0.0
149
0.0
100
AcDbLayout
  1
Model
 70
     1
 71
     0
 10
0.0
 20
0.0
 11
12.0
 21
9.0
 12
0.0
 22
0.0
 32
0.0
 14
-156.6164
 24
-25.9801
 34
0.0
 15
156.5387
 25
25.961
 35
0.0
146
0.0
 13
0.0
 23
0.0
 33
0.0
 16
1.0
 26
0.0
 36
0.0
 17
0.0
 27
1.0
 37
0.0
 76
     0
330
1F
331
29
  0
MATERIAL
  5
45
102
{ACAD_REACTORS
330
43
102
}
330
43
100
AcDbMaterial
  1
ByBlock
 72
     1
 94
      127
  0
MATERIAL
  5
44
102
{ACAD_REACTORS
330
43
102
}
330
43
100
AcDbMaterial
  1
ByLayer
 72
     1
 94
      127
  0
MATERIAL
  5
46
102
{ACAD_REACTORS
330
43
102
}
330
43
100
AcDbMaterial
  1
Global
 72
     1
 94
      127
  0
MLEADERSTYLE
  5
5C
102
{ACAD_REACTORS
330
5B
102
}
330
5B
100
AcDbMLeaderStyle
179
     2
170
     2
171
     1
172
     0
 90
        2
 40
0.0
 41
0.0
173
     1
 91
-1056964608
340
14
 92
       -2
290
     1
 42
0.09
291
     1
 43
0.36
  3
Standard
341
0
 44
0.18
300

342
11
174
     1
178
     6
175
     1
176
     0
 93
-1056964608
 45
0.18
292
     0
297
     0
 46
0.18
343
0
 94
-1056964608
 47
1.0
 49
1.0
140
1.0
293
     1
141
0.0
294
     1
177
     0
142
1.0
295
     0
296
     0
143
0.125
271
     0
272
     9
273
     9
298
     0
  0
MLINESTYLE
  5
18
102
{ACAD_REACTORS
330
17
102
}
330
17
100
AcDbMlineStyle
  2
Standard
 70
     0
  3

 62
   256
 51
90.0
 52
90.0
 71
     2
 49
0.5
 62
   256
  6
BYLAYER
 49
-0.5
 62
   256
  6
BYLAYER
  0
ACDBPLACEHOLDER
  5
F
102
{ACAD_REACTORS
330
E
102
}
330
E
  0
SCALE
  5
48
102
{ACAD_REACTORS
330
47
102
}
330
47
100
AcDbScale
 70
     0
300
1:1
140
1.0
141
1.0
290
     1
  0
SCALE
  5
49
102
{ACAD_REACTORS
330
47
102
}
330
47
100
AcDbScale
 70
     0
300
1/128" = 1'-0"
140
0.0078125
141
12.0
290
     0
  0
SCALE
  5
4A
102
{ACAD_REACTORS
330
47
102
}
330
47
100
AcDbScale
 70
     0
300
1/64" = 1'-0"
140
0.015625
141
12.0
290
     0
  0
SCALE
  5
4B
102
{ACAD_REACTORS
330
47
102
}
330
47
100
AcDbScale
 70
     0
300
1/32" = 1'-0"
140
0.03125
141
12.0
290
     0
  0
SCALE
  5
4C
102
{ACAD_REACTORS
330
47
102
}
330
47
100
AcDbScale
 70
     0
300
1/16" = 1'-0"
140
0.0625
141
12.0
290
     0
  0
SCALE
  5
4D
102
{ACAD_REACTORS
330
47
102
}
330
47
100
AcDbScale
 70
     0
300
3/32" = 1'-0"
140
0.09375
141
12.0
290
     0
  0
SCALE
  5
4E
102
{ACAD_REACTORS
330
47
102
}
330
47
100
AcDbScale
 70
     0
300
1/8" = 1'-0"
140
0.125
141
12.0
290
     0
  0
SCALE
  5
4F
102
{ACAD_REACTORS
330
47
102
}
330
47
100
AcDbScale
 70
     0
300
3/16" = 1'-0"
140
0.1875
141
12.0
290
     0
  0
SCALE
  5
50
102
{ACAD_REACTORS
330
47
102
}
330
47
100
AcDbScale
 70
     0
300
1/4" = 1'-0"
140
0.25
141
12.0
290
     0
  0
SCALE
  5
51
102
{ACAD_REACTORS
330
47
102
}
330
47
100
AcDbScale
 70
     0
300
3/8" = 1'-0"
140
0.375
141
12.0
290
     0
  0
SCALE
  5
52
102
{ACAD_REACTORS
330
47
102
}
330
47
100
AcDbScale
 70
     0
300
1/2" = 1'-0"
140
0.5
141
12.0
290
     0
  0
SCALE
  5
53
102
{ACAD_REACTORS
330
47
102
}
330
47
100
AcDbScale
 70
     0
300
3/4" = 1'-0"
140
0.75
141
12.0
290
     0
  0
SCALE
  5
54
102
{ACAD_REACTORS
330
47
102
}
330
47
100
AcDbScale
 70
     0
300
1" = 1'-0"
140
1.0
141
12.0
290
     0
  0
SCALE
  5
55
102
{ACAD_REACTORS
330
47
102
}
330
47
100
AcDbScale
 70
     0
300
1-1/2" = 1'-0"
140
1.5
141
12.0
290
     0
  0
SCALE
  5
56
102
{ACAD_REACTORS
330
47
102
}
330
47
100
AcDbScale
 70
     0
300
3" = 1'-0"
140
3.0
141
12.0
290
     0
  0
SCALE
  5
57
102
{ACAD_REACTORS
330
47
102
}
330
47
100
AcDbScale
 70
     0
300
6" = 1'-0"
140
6.0
141
12.0
290
     0
  0
SCALE
  5
58
102
{ACAD_REACTORS
330
47
102
}
330
47
100
AcDbScale
 70
     0
300
1'-0" = 1'-0"
140
12.0
141
12.0
290
     0
  0
TABLESTYLE
  5
5A
102
{ACAD_REACTORS
330
59
102
}
102
{ACAD_XDICTIONARY
360
6A
102
}
330
59
100
AcDbTableStyle
  3
Standard
 70
     0
 71
     0
 40
0.06
 41
0.06
280
     0
281
     0
  7
Standard
140
0.18
170
     2
 62
     0
 63
   257
283
     0
 90
        4
 91
        0
  1

274
    -2
284
     1
 64
     0
275
    -2
285
     1
 65
     0
276
    -2
286
     1
 66
     0
277
    -2
287
     1
 67
     0
278
    -2
288
     1
 68
     0
279
    -2
289
     1
 69
     0
  7
Standard
140
0.25
170
     5
 62
     0
 63
   257
283
     0
 90
        4
 91
        0
  1

274
    -2
284
     1
 64
     0
275
    -2
285
     1
 65
     0
276
    -2
286
     1
 66
     0
277
    -2
287
     1
 67
     0
278
    -2
288
     1
 68
     0
279
    -2
289
     1
 69
     0
  7
Standard
140
0.18
170
     5
 62
     0
 63
   257
283
     0
 90
        4
 91
        0
  1

274
    -2
284
     1
 64
     0
275
    -2
285
     1
 65
     0
276
    -2
286
     1
 66
     0
277
    -2
287
     1
 67
     0
278
    -2
288
     1
 68
     0
279
    -2
289
     1
 69
     0
  0
VISUALSTYLE
  5
2F
102
{ACAD_REACTORS
330
2A
102
}
330
2A
100
AcDbVisualStyle
  2
2dWireframe
 70
     4
177
     3
291
     0
 70
    58
 90
        0
176
     1
 90
        2
176
     1
 90
        0
176
     1
 90
        0
176
     1
 40
0.6
176
     1
 40
30.0
176
     1
 62
     7
420
 16777215
176
     1
 90
        1
176
     1
 90
        4
176
     1
 62
     7
176
     1
 62
   257
176
     1
 90
        1
176
     1
 90
        1
176
     1
 40
1.0
176
     1
 90
        0
176
     1
 62
   257
176
     1
 40
1.0
176
     1
 90
        1
176
     1
 90
        6
176
     1
 90
        2
176
     1
 62
     7
176
     1
 90
        5
176
     1
 90
        0
176
     1
 90
        0
176
     1
290
     0
176
     1
 90
        1
176
     1
 40
0.0
176
     1
 90
        0
176
     1
290
     1
176
     1
290
     1
176
     1
290
     0
176
     1
290
     0
176
     1
290
     0
176
     1
290
     0
176
     1
290
     0
176
     1
290
     0
176
     1
290
     0
176
     1
 90
       50
176
     1
 40
0.0
176
     1
 40
1.0
176
     1
 90
        0
176
     1
 62
    18
420
        0
176
     1
 90
       50
176
     1
 90
        3
176
     1
 62
     5
420
      255
176
     1
290
     0
176
     1
 90
       50
176
     1
 90
       50
176
     1
 90
       50
176
     1
290
     0
176
     1
 90
       50
176
     1
 62
   256
176
     0
 40
1.0
176
     0
 90
        2
176
     1
  1
strokes_ogs.tif
176
     1
290
     0
176
     1
 40
1.0
176
     1
 40
1.0
176
     1
  0
VISUALSTYLE
  5
32
102
{ACAD_REACTORS
330
2A
102
}
330
2A
100
AcDbVisualStyle
  2
Basic
 70
     7
177
     3
291
     1
 70
    58
 90
        1
176
     1
 90
        0
176
     1
 90
        1
176
     1
 90
        0
176
     1
 40
0.6
176
     1
 40
30.0
176
     1
 62
     7
420
 16777215
176
     1
 90
        0
176
     1
 90
        4
176
     1
 62
     7
176
     1
 62
   257
176
     1
 90
        1
176
     1
 90
        1
176
     1
 40
1.0
176
     1
 90
        8
176
     1
 62
     7
176
     1
 40
1.0
176
     1
 90
        1
176
     1
 90
        6
176
     1
 90
        2
176
     1
 62
     7
176
     1
 90
        5
176
     1
 90
        0
176
     1
 90
        0
176
     1
290
     0
176
     1
 90
        1
176
     1
 40
0.0
176
     1
 90
        0
176
     1
290
     0
176
     1
290
     1
176
     1
290
     1
176
     1
290
     0
176
     1
290
     0
176
     1
290
     0
176
     1
290
     0
176
     1
290
     0
176
     1
290
     0
176
     1
 90
       50
176
     1
 40
0.0
176
     1
 40
1.0
176
     1
 90
        0
176
     1
 62
    18
420
        0
176
     1
 90
       50
176
     1
 90
        3
176
     1
 62
     5
420
      255
176
     1
290
     0
176
     1
 90
       50
176
     1
 90
       50
176
     1
 90
       50
176
     1
290
     0
176
     1
 90
       50
176
     1
 62
   256
176
     0
 40
1.0
176
     0
 90
        2
176
     1
  1
strokes_ogs.tif
176
     1
290
     0
176
     1
 40
1.0
176
     1
 40
1.0
176
     1
  0
VISUALSTYLE
  5
36
102
{ACAD_REACTORS
330
2A
102
}
330
2A
100
AcDbVisualStyle
  2
Brighten
 70
    12
177
     3
291
     1
 70
    58
 90
        2
176
     1
 90
        2
176
     1
 90
        0
176
     1
 90
        0
176
     1
 40
0.6
176
     1
 40
30.0
176
     1
 62
     7
420
 16777215
176
     1
 90
        1
176
     1
 90
        4
176
     1
 62
     7
176
     1
 62
   257
176
     1
 90
        1
176
     1
 90
        1
176
     1
 40
1.0
176
     1
 90
        8
176
     1
 62
     7
176
     1
 40
1.0
176
     1
 90
        1
176
     1
 90
        6
176
     1
 90
        2
176
     1
 62
     7
176
     1
 90
        5
176
     1
 90
        0
176
     1
 90
        0
176
     1
290
     0
176
     1
 90
        1
176
     1
 40
50.0
176
     1
 90
        0
176
     1
290
     0
176
     1
290
     1
176
     1
290
     1
176
     1
290
     0
176
     1
290
     0
176
     1
290
     0
176
     1
290
     0
176
     1
290
     0
176
     1
290
     0
176
     1
 90
       50
176
     1
 40
0.0
176
     1
 40
1.0
176
     1
 90
        0
176
     1
 62
    18
420
        0
176
     1
 90
       50
176
     1
 90
        3
176
     1
 62
     5
420
      255
176
     1
290
     0
176
     1
 90
       50
176
     1
 90
       50
176
     1
 90
       50
176
     1
290
     0
176
     1
 90
       50
176
     1
 62
   256
176
     0
 40
1.0
176
     0
 90
        2
176
     1
  1
strokes_ogs.tif
176
     1
290
     0
176
     1
 40
1.0
176
     1
 40
1.0
176
     1
  0
VISUALSTYLE
  5
3A
102
{ACAD_REACTORS
330
2A
102
}
330
2A
100
AcDbVisualStyle
  2
ColorChange
 70
    16
177
     3
291
     1
 70
    58
 90
        2
176
     1
 90
        2
176
     1
 90
        3
176
     1
 90
        0
176
     1
 40
0.6
176
     1
 40
30.0
176
     1
 62
     8
420
  8421504
176
     1
 90
        1
176
     1
 90
        4
176
     1
 62
     7
176
     1
 62
   257
176
     1
 90
        1
176
     1
 90
        1
176
     1
 40
1.0
176
     1
 90
        8
176
     1
 62
     8
420
  8421504
176
     1
 40
1.0
176
     1
 90
        1
176
     1
 90
        6
176
     1
 90
        2
176
     1
 62
     7
176
     1
 90
        5
176
     1
 90
        0
176
     1
 90
        0
176
     1
290
     0
176
     1
 90
        1
176
     1
 40
0.0
176
     1
 90
        0
176
     1
290
     0
176
     1
290
     1
176
     1
290
     1
176
     1
290
     0
176
     1
290
     0
176
     1
290
     0
176
     1
290
     0
176
     1
290
     0
176
     1
290
     0
176
     1
 90
       50
176
     1
 40
0.0
176
     1
 40
1.0
176
     1
 90
        0
176
     1
 62
    18
420
        0
176
     1
 90
       50
176
     1
 90
        3
176
     1
 62
     5
420
      255
176
     1
290
     0
176
     1
 90
       50
176
     1
 90
       50
176
     1
 90
       50
176
     1
290
     0
176
     1
 90
       50
176
     1
 62
   256
176
     0
 40
1.0
176
     0
 90
        2
176
     1
  1
strokes_ogs.tif
176
     1
290
     0
176
     1
 40
1.0
176
     1
 40
1.0
176
     1
  0
VISUALSTYLE
  5
34
102
{ACAD_REACTORS
330
2A
102
}
330
2A
100
AcDbVisualStyle
  2
Conceptual
 70
     9
177
     3
291
     0
 70
    58
 90
        3
176
     1
 90
        2
176
     1
 90
        0
176
     1
 90
        0
176
     1
 40
0.6
176
     1
 40
30.0
176
     1
 62
     7
420
 16777215
176
     1
 90
        2
176
     1
 90
        2
176
     1
 62
     7
176
     1
 62
   257
176
     1
 90
        1
176
     1
 90
        1
176
     1
 40
179.0
176
     1
 90
        8
176
     1
 62
     7
176
     1
 40
1.0
176
     1
 90
        1
176
     1
 90
        6
176
     1
 90
        2
176
     1
 62
     7
176
     1
 90
        3
176
     1
 90
        0
176
     1
 90
        0
176
     1
290
     0
176
     1
 90
        1
176
     1
 40
0.0
176
     1
 90
        0
176
     1
290
     0
176
     1
290
     1
176
     1
290
     1
176
     1
290
     0
176
     1
290
     0
176
     1
290
     0
176
     1
290
     0
176
     1
290
     0
176
     1
290
     0
176
     1
 90
       50
176
     1
 40
0.0
176
     1
 40
1.0
176
     1
 90
        0
176
     1
 62
    18
420
        0
176
     1
 90
       50
176
     1
 90
        3
176
     1
 62
     5
420
      255
176
     1
290
     0
176
     1
 90
       50
176
     1
 90
       50
176
     1
 90
       50
176
     1
290
     0
176
     1
 90
       50
176
     1
 62
   256
176
     0
 40
1.0
176
     0
 90
        2
176
     1
  1
strokes_ogs.tif
176
     1
290
     0
176
     1
 40
1.0
176
     1
 40
1.0
176
     1
  0
VISUALSTYLE
  5
35
102
{ACAD_REACTORS
330
2A
102
}
330
2A
100
AcDbVisualStyle
  2
Dim
 70
    11
177
     3
291
     1
 70
    58
 90
        2
176
     1
 90
        2
176
     1
 90
        0
176
     1
 90
        0
176
     1
 40
0.6
176
     1
 40
30.0
176
     1
 62
     7
420
 16777215
176
     1
 90
        1
176
     1
 90
        4
176
     1
 62
     7
176
     1
 62
   257
176
     1
 90
        1
176
     1
 90
        1
176
     1
 40
1.0
176
     1
 90
        8
176
     1
 62
     7
176
     1
 40
1.0
176
     1
 90
        1
176
     1
 90
        6
176
     1
 90
        2
176
     1
 62
     7
176
     1
 90
        5
176
     1
 90
        0
176
     1
 90
        0
176
     1
290
     0
176
     1
 90
        1
176
     1
 40
-50.0
176
     1
 90
        0
176
     1
290
     0
176
     1
290
     1
176
     1
290
     1
176
     1
290
     0
176
     1
290
     0
176
     1
290
     0
176
     1
290
     0
176
     1
290
     0
176
     1
290
     0
176
     1
 90
       50
176
     1
 40
0.0
176
     1
 40
1.0
176
     1
 90
        0
176
     1
 62
    18
420
        0
176
     1
 90
       50
176
     1
 90
        3
176
     1
 62
     5
420
      255
176
     1
290
     0
176
     1
 90
       50
176
     1
 90
       50
176
     1
 90
       50
176
     1
290
     0
176
     1
 90
       50
176
     1
 62
   256
176
     0
 40
1.0
176
     0
 90
        2
176
     1
  1
strokes_ogs.tif
176
     1
290
     0
176
     1
 40
1.0
176
     1
 40
1.0
176
     1
  0
VISUALSTYLE
  5
3D
102
{ACAD_REACTORS
330
2A
102
}
330
2A
100
AcDbVisualStyle
  2
EdgeColorOff
 70
    22
177
     3
291
     1
 70
    58
 90
        2
176
     0
 90
        2
176
     0
 90
        0
176
     0
 90
        0
176
     0
 40
0.6
176
     0
 40
30.0
176
     0
 62
     7
420
 16777215
176
     0
 90
        1
176
     0
 90
        4
176
     0
 62
     7
176
     0
 62
   257
176
     0
 90
        1
176
     0
 90
        1
176
     0
 40
1.0
176
     0
 90
        8
176
     2
 62
     7
176
     0
 40
1.0
176
     0
 90
        1
176
     0
 90
        6
176
     0
 90
        2
176
     0
 62
     7
176
     0
 90
        5
176
     0
 90
        0
176
     0
 90
        0
176
     0
290
     0
176
     0
 90
        1
176
     0
 40
0.0
176
     0
 90
        0
176
     0
290
     0
176
     0
290
     1
176
     0
290
     1
176
     0
290
     0
176
     0
290
     0
176
     0
290
     0
176
     0
290
     0
176
     0
290
     0
176
     0
290
     0
176
     0
 90
       50
176
     0
 40
0.0
176
     0
 40
1.0
176
     0
 90
        0
176
     0
 62
    18
420
        0
176
     0
 90
       50
176
     0
 90
        3
176
     0
 62
     5
420
      255
176
     0
290
     0
176
     0
 90
       50
176
     0
 90
       50
176
     0
 90
       50
176
     0
290
     0
176
     0
 90
       50
176
     0
 62
   256
176
     0
 40
1.0
176
     0
 90
        2
176
     0
  1
strokes_ogs.tif
176
     0
290
     0
176
     0
 40
1.0
176
     0
 40
1.0
176
     0
  0
VISUALSTYLE
  5
39
102
{ACAD_REACTORS
330
2A
102
}
330
2A
100
AcDbVisualStyle
  2
Facepattern
 70
    15
177
     3
291
     1
 70
    58
 90
        2
176
     1
 90
        2
176
     1
 90
        0
176
     1
 90
        0
176
     1
 40
0.6
176
     1
 40
30.0
176
     1
 62
     7
420
 16777215
176
     1
 90
        1
176
     1
 90
        4
176
     1
 62
     7
176
     1
 62
   257
176
     1
 90
        1
176
     1
 90
        1
176
     1
 40
1.0
176
     1
 90
        8
176
     1
 62
     7
176
     1
 40
1.0
176
     1
 90
        1
176
     1
 90
        6
176
     1
 90
        2
176
     1
 62
     7
176
     1
 90
        5
176
     1
 90
        0
176
     1
 90
        0
176
     1
290
     0
176
     1
 90
        1
176
     1
 40
0.0
176
     1
 90
        0
176
     1
290
     0
176
     1
290
     1
176
     1
290
     1
176
     1
290
     0
176
     1
290
     0
176
     1
290
     0
176
     1
290
     0
176
     1
290
     0
176
     1
290
     0
176
     1
 90
       50
176
     1
 40
0.0
176
     1
 40
1.0
176
     1
 90
        0
176
     1
 62
    18
420
        0
176
     1
 90
       50
176
     1
 90
        3
176
     1
 62
     5
420
      255
176
     1
290
     0
176
     1
 90
       50
176
     1
 90
       50
176
     1
 90
       50
176
     1
290
     0
176
     1
 90
       50
176
     1
 62
   256
176
     0
 40
1.0
176
     0
 90
        2
176
     1
  1
strokes_ogs.tif
176
     1
290
     0
176
     1
 40
1.0
176
     1
 40
1.0
176
     1
  0
VISUALSTYLE
  5
2B
102
{ACAD_REACTORS
330
2A
102
}
330
2A
100
AcDbVisualStyle
  2
Flat
 70
     0
177
     3
291
     1
 70
    58
 90
        2
176
     1
 90
        1
176
     1
 90
        1
176
     1
 90
        2
176
     1
 40
0.6
176
     1
 40
30.0
176
     1
 62
     7
420
 16777215
176
     1
 90
        0
176
     1
 90
        0
176
     1
 62
     7
176
     1
 62
   257
176
     1
 90
        1
176
     1
 90
        1
176
     1
 40
1.0
176
     1
 90
        8
176
     1
 62
     7
176
     1
 40
1.0
176
     1
 90
        1
176
     1
 90
        6
176
     1
 90
        2
176
     1
 62
     7
176
     1
 90
        5
176
     1
 90
        0
176
     1
 90
        0
176
     1
290
     0
176
     1
 90
       13
176
     1
 40
0.0
176
     1
 90
        0
176
     1
290
     0
176
     1
290
     1
176
     1
290
     1
176
     1
290
     0
176
     1
290
     0
176
     1
290
     0
176
     1
290
     0
176
     1
290
     0
176
     1
290
     0
176
     1
 90
       50
176
     1
 40
0.0
176
     1
 40
1.0
176
     1
 90
        0
176
     1
 62
    18
420
        0
176
     1
 90
       50
176
     1
 90
        3
176
     1
 62
     5
420
      255
176
     1
290
     0
176
     1
 90
       50
176
     1
 90
       50
176
     1
 90
       50
176
     1
290
     0
176
     1
 90
       50
176
     1
 62
   256
176
     0
 40
1.0
176
     0
 90
        2
176
     1
  1
strokes_ogs.tif
176
     1
290
     0
176
     1
 40
1.0
176
     1
 40
1.0
176
     1
  0
VISUALSTYLE
  5
2C
102
{ACAD_REACTORS
330
2A
102
}
330
2A
100
AcDbVisualStyle
  2
FlatWithEdges
 70
     1
177
     3
291
     1
 70
    58
 90
        2
176
     1
 90
        1
176
     1
 90
        1
176
     1
 90
        2
176
     1
 40
0.6
176
     1
 40
30.0
176
     1
 62
     7
420
 16777215
176
     1
 90
        1
176
     1
 90
        0
176
     1
 62
     7
176
     1
 62
   257
176
     1
 90
        1
176
     1
 90
        1
176
     1
 40
1.0
176
     1
 90
        0
176
     1
 62
   257
176
     1
 40
1.0
176
     1
 90
        1
176
     1
 90
        6
176
     1
 90
        2
176
     1
 62
     7
176
     1
 90
        5
176
     1
 90
        0
176
     1
 90
        0
176
     1
290
     0
176
     1
 90
       13
176
     1
 40
0.0
176
     1
 90
        0
176
     1
290
     0
176
     1
290
     1
176
     1
290
     1
176
     1
290
     0
176
     1
290
     0
176
     1
290
     0
176
     1
290
     0
176
     1
290
     0
176
     1
290
     0
176
     1
 90
       50
176
     1
 40
0.0
176
     1
 40
1.0
176
     1
 90
        0
176
     1
 62
    18
420
        0
176
     1
 90
       50
176
     1
 90
        3
176
     1
 62
     5
420
      255
176
     1
290
     0
176
     1
 90
       50
176
     1
 90
       50
176
     1
 90
       50
176
     1
290
     0
176
     1
 90
       50
176
     1
 62
   256
176
     0
 40
1.0
176
     0
 90
        2
176
     1
  1
strokes_ogs.tif
176
     1
290
     0
176
     1
 40
1.0
176
     1
 40
1.0
176
     1
  0
VISUALSTYLE
  5
2D
102
{ACAD_REACTORS
330
2A
102
}
330
2A
100
AcDbVisualStyle
  2
Gouraud
 70
     2
177
     3
291
     1
 70
    58
 90
        2
176
     1
 90
        2
176
     1
 90
        1
176
     1
 90
        2
176
     1
 40
0.6
176
     1
 40
30.0
176
     1
 62
     7
420
 16777215
176
     1
 90
        0
176
     1
 90
        0
176
     1
 62
     7
176
     1
 62
   257
176
     1
 90
        1
176
     1
 90
        1
176
     1
 40
1.0
176
     1
 90
        0
176
     1
 62
     7
176
     1
 40
1.0
176
     1
 90
        1
176
     1
 90
        6
176
     1
 90
        2
176
     1
 62
     7
176
     1
 90
        5
176
     1
 90
        0
176
     1
 90
        0
176
     1
290
     0
176
     1
 90
       13
176
     1
 40
0.0
176
     1
 90
        0
176
     1
290
     0
176
     1
290
     1
176
     1
290
     1
176
     1
290
     0
176
     1
290
     0
176
     1
290
     0
176
     1
290
     0
176
     1
290
     0
176
     1
290
     0
176
     1
 90
       50
176
     1
 40
0.0
176
     1
 40
1.0
176
     1
 90
        0
176
     1
 62
    18
420
        0
176
     1
 90
       50
176
     1
 90
        3
176
     1
 62
     5
420
      255
176
     1
290
     0
176
     1
 90
       50
176
     1
 90
       50
176
     1
 90
       50
176
     1
290
     0
176
     1
 90
       50
176
     1
 62
   256
176
     0
 40
1.0
176
     0
 90
        2
176
     1
  1
strokes_ogs.tif
176
     1
290
     0
176
     1
 40
1.0
176
     1
 40
1.0
176
     1
  0
VISUALSTYLE
  5
2E
102
{ACAD_REACTORS
330
2A
102
}
330
2A
100
AcDbVisualStyle
  2
GouraudWithEdges
 70
     3
177
     3
291
     1
 70
    58
 90
        2
176
     1
 90
        2
176
     1
 90
        1
176
     1
 90
        2
176
     1
 40
0.6
176
     1
 40
30.0
176
     1
 62
     7
420
 16777215
176
     1
 90
        1
176
     1
 90
        0
176
     1
 62
     7
176
     1
 62
   257
176
     1
 90
        1
176
     1
 90
        1
176
     1
 40
1.0
176
     1
 90
        0
176
     1
 62
   257
176
     1
 40
1.0
176
     1
 90
        1
176
     1
 90
        6
176
     1
 90
        2
176
     1
 62
     7
176
     1
 90
        5
176
     1
 90
        0
176
     1
 90
        0
176
     1
290
     0
176
     1
 90
       13
176
     1
 40
0.0
176
     1
 90
        0
176
     1
290
     0
176
     1
290
     1
176
     1
290
     1
176
     1
290
     0
176
     1
290
     0
176
     1
290
     0
176
     1
290
     0
176
     1
290
     0
176
     1
290
     0
176
     1
 90
       50
176
     1
 40
0.0
176
     1
 40
1.0
176
     1
 90
        0
176
     1
 62
    18
420
        0
176
     1
 90
       50
176
     1
 90
        3
176
     1
 62
     5
420
      255
176
     1
290
     0
176
     1
 90
       50
176
     1
 90
       50
176
     1
 90
       50
176
     1
290
     0
176
     1
 90
       50
176
     1
 62
   256
176
     0
 40
1.0
176
     0
 90
        2
176
     1
  1
strokes_ogs.tif
176
     1
290
     0
176
     1
 40
1.0
176
     1
 40
1.0
176
     1
  0
VISUALSTYLE
  5
31
102
{ACAD_REACTORS
330
2A
102
}
330
2A
100
AcDbVisualStyle
  2
Hidden
 70
     6
177
     3
291
     0
 70
    58
 90
        1
176
     1
 90
        2
176
     1
 90
        2
176
     1
 90
        0
176
     1
 40
0.6
176
     1
 40
30.0
176
     1
 62
     7
420
 16777215
176
     1
 90
        2
176
     1
 90
        2
176
     1
 62
     7
176
     1
 62
   257
176
     1
 90
        2
176
     1
 90
        1
176
     1
 40
40.0
176
     1
 90
        0
176
     1
 62
   257
176
     1
 40
1.0
176
     1
 90
        1
176
     1
 90
        6
176
     1
 90
        2
176
     1
 62
     7
176
     1
 90
        3
176
     1
 90
        0
176
     1
 90
        0
176
     1
290
     0
176
     1
 90
        1
176
     1
 40
0.0
176
     1
 90
        0
176
     1
290
     0
176
     1
290
     1
176
     1
290
     1
176
     1
290
     0
176
     1
290
     0
176
     1
290
     0
176
     1
290
     0
176
     1
290
     0
176
     1
290
     0
176
     1
 90
       50
176
     1
 40
0.0
176
     1
 40
1.0
176
     1
 90
        0
176
     1
 62
    18
420
        0
176
     1
 90
       50
176
     1
 90
        3
176
     1
 62
     5
420
      255
176
     1
290
     0
176
     1
 90
       50
176
     1
 90
       50
176
     1
 90
       50
176
     1
290
     0
176
     1
 90
       50
176
     1
 62
   256
176
     0
 40
1.0
176
     0
 90
        2
176
     1
  1
strokes_ogs.tif
176
     1
290
     0
176
     1
 40
1.0
176
     1
 40
1.0
176
     1
  0
VISUALSTYLE
  5
3B
102
{ACAD_REACTORS
330
2A
102
}
330
2A
100
AcDbVisualStyle
  2
JitterOff
 70
    20
177
     3
291
     1
 70
    58
 90
        2
176
     0
 90
        2
176
     0
 90
        0
176
     0
 90
        0
176
     0
 40
0.6
176
     0
 40
30.0
176
     0
 62
     7
420
 16777215
176
     0
 90
        1
176
     0
 90
        4
176
     0
 62
     7
176
     0
 62
   257
176
     0
 90
        1
176
     0
 90
        1
176
     0
 40
1.0
176
     0
 90
       10
176
     2
 62
     7
176
     0
 40
1.0
176
     0
 90
        1
176
     0
 90
        6
176
     0
 90
        2
176
     0
 62
     7
176
     0
 90
        5
176
     0
 90
        0
176
     0
 90
        0
176
     0
290
     0
176
     0
 90
        1
176
     0
 40
0.0
176
     0
 90
        0
176
     0
290
     0
176
     0
290
     1
176
     0
290
     1
176
     0
290
     0
176
     0
290
     0
176
     0
290
     0
176
     0
290
     0
176
     0
290
     0
176
     0
290
     0
176
     0
 90
       50
176
     0
 40
0.0
176
     0
 40
1.0
176
     0
 90
        0
176
     0
 62
    18
420
        0
176
     0
 90
       50
176
     0
 90
        3
176
     0
 62
     5
420
      255
176
     0
290
     0
176
     0
 90
       50
176
     0
 90
       50
176
     0
 90
       50
176
     0
290
     0
176
     0
 90
       50
176
     0
 62
   256
176
     0
 40
1.0
176
     0
 90
        2
176
     0
  1
strokes_ogs.tif
176
     0
290
     0
176
     0
 40
1.0
176
     0
 40
1.0
176
     0
  0
VISUALSTYLE
  5
38
102
{ACAD_REACTORS
330
2A
102
}
330
2A
100
AcDbVisualStyle
  2
Linepattern
 70
    14
177
     3
291
     1
 70
    58
 90
        2
176
     1
 90
        2
176
     1
 90
        0
176
     1
 90
        0
176
     1
 40
0.6
176
     1
 40
30.0
176
     1
 62
     7
420
 16777215
176
     1
 90
        1
176
     1
 90
        4
176
     1
 62
     7
176
     1
 62
   257
176
     1
 90
        7
176
     1
 90
        7
176
     1
 40
1.0
176
     1
 90
        8
176
     1
 62
     7
176
     1
 40
1.0
176
     1
 90
        1
176
     1
 90
        6
176
     1
 90
        2
176
     1
 62
     7
176
     1
 90
        5
176
     1
 90
        0
176
     1
 90
        0
176
     1
290
     0
176
     1
 90
        1
176
     1
 40
0.0
176
     1
 90
        0
176
     1
290
     0
176
     1
290
     1
176
     1
290
     1
176
     1
290
     0
176
     1
290
     0
176
     1
290
     0
176
     1
290
     0
176
     1
290
     0
176
     1
290
     0
176
     1
 90
       50
176
     1
 40
0.0
176
     1
 40
1.0
176
     1
 90
        0
176
     1
 62
    18
420
        0
176
     1
 90
       50
176
     1
 90
        3
176
     1
 62
     5
420
      255
176
     1
290
     0
176
     1
 90
       50
176
     1
 90
       50
176
     1
 90
       50
176
     1
290
     0
176
     1
 90
       50
176
     1
 62
   256
176
     0
 40
1.0
176
     0
 90
        2
176
     1
  1
strokes_ogs.tif
176
     1
290
     0
176
     1
 40
1.0
176
     1
 40
1.0
176
     1
  0
VISUALSTYLE
  5
3C
102
{ACAD_REACTORS
330
2A
102
}
330
2A
100
AcDbVisualStyle
  2
OverhangOff
 70
    21
177
     3
291
     1
 70
    58
 90
        2
176
     0
 90
        2
176
     0
 90
        0
176
     0
 90
        0
176
     0
 40
0.6
176
     0
 40
30.0
176
     0
 62
     7
420
 16777215
176
     0
 90
        1
176
     0
 90
        4
176
     0
 62
     7
176
     0
 62
   257
176
     0
 90
        1
176
     0
 90
        1
176
     0
 40
1.0
176
     0
 90
        9
176
     2
 62
     7
176
     0
 40
1.0
176
     0
 90
        1
176
     0
 90
        6
176
     0
 90
        2
176
     0
 62
     7
176
     0
 90
        5
176
     0
 90
        0
176
     0
 90
        0
176
     0
290
     0
176
     0
 90
        1
176
     0
 40
0.0
176
     0
 90
        0
176
     0
290
     0
176
     0
290
     1
176
     0
290
     1
176
     0
290
     0
176
     0
290
     0
176
     0
290
     0
176
     0
290
     0
176
     0
290
     0
176
     0
290
     0
176
     0
 90
       50
176
     0
 40
0.0
176
     0
 40
1.0
176
     0
 90
        0
176
     0
 62
    18
420
        0
176
     0
 90
       50
176
     0
 90
        3
176
     0
 62
     5
420
      255
176
     0
290
     0
176
     0
 90
       50
176
     0
 90
       50
176
     0
 90
       50
176
     0
290
     0
176
     0
 90
       50
176
     0
 62
   256
176
     0
 40
1.0
176
     0
 90
        2
176
     0
  1
strokes_ogs.tif
176
     0
290
     0
176
     0
 40
1.0
176
     0
 40
1.0
176
     0
  0
VISUALSTYLE
  5
33
102
{ACAD_REACTORS
330
2A
102
}
330
2A
100
AcDbVisualStyle
  2
Realistic
 70
     8
177
     3
291
     0
 70
    58
 90
        2
176
     1
 90
        3
176
     1
 90
        0
176
     1
 90
        2
176
     1
 40
0.6
176
     1
 40
30.0
176
     1
 62
     7
420
 16777215
176
     1
 90
        0
176
     1
 90
        0
176
     1
 62
     7
176
     1
 62
   257
176
     1
 90
        1
176
     1
 90
        1
176
     1
 40
1.0
176
     1
 90
        8
176
     1
 62
   257
176
     1
 40
1.0
176
     1
 90
        1
176
     1
 90
        6
176
     1
 90
        2
176
     1
 62
     7
176
     1
 90
        3
176
     1
 90
        0
176
     1
 90
        0
176
     1
290
     0
176
     1
 90
       13
176
     1
 40
0.0
176
     1
 90
        0
176
     1
290
     0
176
     1
290
     1
176
     1
290
     1
176
     1
290
     0
176
     1
290
     0
176
     1
290
     0
176
     1
290
     0
176
     1
290
     0
176
     1
290
     0
176
     1
 90
       50
176
     1
 40
0.0
176
     1
 40
1.0
176
     1
 90
        0
176
     1
 62
    18
420
        0
176
     1
 90
       50
176
     1
 90
        3
176
     1
 62
     5
420
      255
176
     1
290
     0
176
     1
 90
       50
176
     1
 90
       50
176
     1
 90
       50
176
     1
290
     0
176
     1
 90
       50
176
     1
 62
   256
176
     0
 40
1.0
176
     0
 90
        2
176
     1
  1
strokes_ogs.tif
176
     1
290
     0
176
     1
 40
1.0
176
     1
 40
1.0
176
     1
  0
VISUALSTYLE
  5
42
102
{ACAD_REACTORS
330
2A
102
}
330
2A
100
AcDbVisualStyle
  2
Shaded
 70
    27
177
     3
291
     0
 70
    58
 90
        2
176
     1
 90
        2
176
     1
 90
        1
176
     1
 90
        2
176
     1
 40
0.6
176
     1
 40
30.0
176
     1
 62
     7
420
 16777215
176
     1
 90
        0
176
     1
 90
        4
176
     1
 62
     7
176
     1
 62
   257
176
     1
 90
        1
176
     1
 90
        1
176
     1
 40
1.0
176
     1
 90
        8
176
     1
 62
   257
176
     1
 40
1.0
176
     1
 90
        1
176
     1
 90
        6
176
     1
 90
        2
176
     1
 62
     8
420
  7895160
176
     1
 90
        3
176
     1
 90
        0
176
     1
 90
        0
176
     1
290
     0
176
     1
 90
        5
176
     1
 40
0.0
176
     1
 90
        0
176
     1
290
     0
176
     1
290
     1
176
     1
290
     1
176
     1
290
     0
176
     1
290
     0
176
     1
290
     0
176
     1
290
     0
176
     1
290
     0
176
     1
290
     0
176
     1
 90
       50
176
     1
 40
0.0
176
     1
 40
1.0
176
     1
 90
        0
176
     1
 62
    18
420
        0
176
     1
 90
       50
176
     1
 90
        3
176
     1
 62
     5
420
      255
176
     1
290
     0
176
     1
 90
       50
176
     1
 90
       50
176
     1
 90
       50
176
     1
290
     0
176
     1
 90
       50
176
     1
 62
   256
176
     0
 40
1.0
176
     0
 90
        2
176
     1
  1
strokes_ogs.tif
176
     1
290
     0
176
     1
 40
1.0
176
     1
 40
1.0
176
     1
  0
VISUALSTYLE
  5
41
102
{ACAD_REACTORS
330
2A
102
}
330
2A
100
AcDbVisualStyle
  2
Shaded with edges
 70
    26
177
     3
291
     0
 70
    58
 90
        2
176
     1
 90
        2
176
     1
 90
        1
176
     1
 90
        2
176
     1
 40
0.6
176
     1
 40
30.0
176
     1
 62
     7
420
 16777215
176
     1
 90
        1
176
     1
 90
       10
176
     1
 62
     7
176
     1
 62
   257
176
     1
 90
        2
176
     1
 90
        1
176
     1
 40
1.0
176
     1
 90
        8
176
     1
 62
   257
176
     1
 40
1.0
176
     1
 90
        1
176
     1
 90
        6
176
     1
 90
        2
176
     1
 62
     7
176
     1
 90
        3
176
     1
 90
        0
176
     1
 90
        0
176
     1
290
     0
176
     1
 90
        5
176
     1
 40
0.0
176
     1
 90
        0
176
     1
290
     0
176
     1
290
     1
176
     1
290
     1
176
     1
290
     0
176
     1
290
     0
176
     1
290
     0
176
     1
290
     0
176
     1
290
     0
176
     1
290
     0
176
     1
 90
       50
176
     1
 40
0.0
176
     1
 40
1.0
176
     1
 90
        0
176
     1
 62
    18
420
        0
176
     1
 90
       50
176
     1
 90
        3
176
     1
 62
     5
420
      255
176
     1
290
     0
176
     1
 90
       50
176
     1
 90
       50
176
     1
 90
       50
176
     1
290
     0
176
     1
 90
       50
176
     1
 62
   256
176
     0
 40
1.0
176
     0
 90
        2
176
     1
  1
strokes_ogs.tif
176
     1
290
     0
176
     1
 40
1.0
176
     1
 40
1.0
176
     1
  0
VISUALSTYLE
  5
3E
102
{ACAD_REACTORS
330
2A
102
}
330
2A
100
AcDbVisualStyle
  2
Shades of Gray
 70
    23
177
     3
291
     0
 70
    58
 90
        2
176
     1
 90
        2
176
     1
 90
        3
176
     1
 90
        0
176
     1
 40
0.6
176
     1
 40
30.0
176
     1
 62
     7
420
 16777215
176
     1
 90
        2
176
     1
 90
        2
176
     1
 62
     7
176
     1
 62
     7
176
     1
 90
        1
176
     1
 90
        1
176
     1
 40
40.0
176
     1
 90
        8
176
     1
 62
     7
176
     1
 40
1.0
176
     1
 90
        1
176
     1
 90
        6
176
     1
 90
        2
176
     1
 62
     7
176
     1
 90
        3
176
     1
 90
        0
176
     1
 90
        0
176
     1
290
     0
176
     1
 90
        1
176
     1
 40
0.0
176
     1
 90
        0
176
     1
290
     0
176
     1
290
     1
176
     1
290
     1
176
     1
290
     0
176
     1
290
     0
176
     1
290
     0
176
     1
290
     0
176
     1
290
     0
176
     1
290
     0
176
     1
 90
       50
176
     1
 40
0.0
176
     1
 40
1.0
176
     1
 90
        0
176
     1
 62
    18
420
        0
176
     1
 90
       50
176
     1
 90
        3
176
     1
 62
     5
420
      255
176
     1
290
     0
176
     1
 90
       50
176
     1
 90
       50
176
     1
 90
       50
176
     1
290
     0
176
     1
 90
       50
176
     1
 62
   256
176
     0
 40
1.0
176
     0
 90
        2
176
     1
  1
strokes_ogs.tif
176
     1
290
     0
176
     1
 40
1.0
176
     1
 40
1.0
176
     1
  0
VISUALSTYLE
  5
3F
102
{ACAD_REACTORS
330
2A
102
}
330
2A
100
AcDbVisualStyle
  2
Sketchy
 70
    24
177
     3
291
     0
 70
    58
 90
        1
176
     1
 90
        2
176
     1
 90
        2
176
     1
 90
        0
176
     1
 40
0.6
176
     1
 40
30.0
176
     1
 62
     7
420
 16777215
176
     1
 90
        2
176
     1
 90
        2
176
     1
 62
     7
176
     1
 62
     7
176
     1
 90
        1
176
     1
 90
        1
176
     1
 40
40.0
176
     1
 90
       11
176
     1
 62
     7
176
     1
 40
1.0
176
     1
 90
        1
176
     1
 90
        6
176
     1
 90
        2
176
     1
 62
     7
176
     1
 90
        6
176
     1
 90
        0
176
     1
 90
        0
176
     1
290
     0
176
     1
 90
        1
176
     1
 40
0.0
176
     1
 90
        0
176
     1
290
     0
176
     1
290
     1
176
     1
290
     1
176
     1
290
     0
176
     1
290
     0
176
     1
290
     0
176
     1
290
     0
176
     1
290
     0
176
     1
290
     0
176
     1
 90
       50
176
     1
 40
0.0
176
     1
 40
1.0
176
     1
 90
        0
176
     1
 62
    18
420
        0
176
     1
 90
       50
176
     1
 90
        3
176
     1
 62
     5
420
      255
176
     1
290
     0
176
     1
 90
       50
176
     1
 90
       50
176
     1
 90
       50
176
     1
290
     0
176
     1
 90
       50
176
     1
 62
   256
176
     0
 40
1.0
176
     0
 90
        2
176
     1
  1
strokes_ogs.tif
176
     1
290
     0
176
     1
 40
1.0
176
     1
 40
1.0
176
     1
  0
VISUALSTYLE
  5
37
102
{ACAD_REACTORS
330
2A
102
}
330
2A
100
AcDbVisualStyle
  2
Thicken
 70
    13
177
     3
291
     1
 70
    58
 90
        2
176
     1
 90
        2
176
     1
 90
        0
176
     1
 90
        0
176
     1
 40
0.6
176
     1
 40
30.0
176
     1
 62
     7
420
 16777215
176
     1
 90
        1
176
     1
 90
        4
176
     1
 62
     7
176
     1
 62
   257
176
     1
 90
        1
176
     1
 90
        1
176
     1
 40
1.0
176
     1
 90
       12
176
     1
 62
     7
176
     1
 40
1.0
176
     1
 90
        1
176
     1
 90
        6
176
     1
 90
        2
176
     1
 62
     7
176
     1
 90
        5
176
     1
 90
        0
176
     1
 90
        0
176
     1
290
     0
176
     1
 90
        1
176
     1
 40
0.0
176
     1
 90
        0
176
     1
290
     0
176
     1
290
     1
176
     1
290
     1
176
     1
290
     0
176
     1
290
     0
176
     1
290
     0
176
     1
290
     0
176
     1
290
     0
176
     1
290
     0
176
     1
 90
       50
176
     1
 40
0.0
176
     1
 40
1.0
176
     1
 90
        0
176
     1
 62
    18
420
        0
176
     1
 90
       50
176
     1
 90
        3
176
     1
 62
     5
420
      255
176
     1
290
     0
176
     1
 90
       50
176
     1
 90
       50
176
     1
 90
       50
176
     1
290
     0
176
     1
 90
       50
176
     1
 62
   256
176
     0
 40
1.0
176
     0
 90
        2
176
     1
  1
strokes_ogs.tif
176
     1
290
     0
176
     1
 40
1.0
176
     1
 40
1.0
176
     1
  0
VISUALSTYLE
  5
30
102
{ACAD_REACTORS
330
2A
102
}
330
2A
100
AcDbVisualStyle
  2
Wireframe
 70
     5
177
     3
291
     0
 70
    58
 90
        0
176
     1
 90
        2
176
     1
 90
        0
176
     1
 90
        0
176
     1
 40
0.6
176
     1
 40
30.0
176
     1
 62
     7
420
 16777215
176
     1
 90
        1
176
     1
 90
        4
176
     1
 62
     7
176
     1
 62
   257
176
     1
 90
        1
176
     1
 90
        1
176
     1
 40
1.0
176
     1
 90
        0
176
     1
 62
   257
176
     1
 40
1.0
176
     1
 90
        1
176
     1
 90
        6
176
     1
 90
        2
176
     1
 62
     7
176
     1
 90
        3
176
     1
 90
        0
176
     1
 90
        0
176
     1
290
     0
176
     1
 90
        1
176
     1
 40
0.0
176
     1
 90
        0
176
     1
290
     0
176
     1
290
     1
176
     1
290
     1
176
     1
290
     0
176
     1
290
     0
176
     1
290
     0
176
     1
290
     0
176
     1
290
     0
176
     1
290
     0
176
     1
 90
       50
176
     1
 40
0.0
176
     1
 40
1.0
176
     1
 90
        0
176
     1
 62
    18
420
        0
176
     1
 90
       50
176
     1
 90
        3
176
     1
 62
     5
420
      255
176
     1
290
     0
176
     1
 90
       50
176
     1
 90
       50
176
     1
 90
       50
176
     1
290
     0
176
     1
 90
       50
176
     1
 62
   256
176
     0
 40
1.0
176
     0
 90
        2
176
     1
  1
strokes_ogs.tif
176
     1
290
     0
176
     1
 40
1.0
176
     1
 40
1.0
176
     1
  0
VISUALSTYLE
  5
40
102
{ACAD_REACTORS
330
2A
102
}
330
2A
100
AcDbVisualStyle
  2
X-Ray
 70
    25
177
     3
291
     0
 70
    58
 90
        2
176
     1
 90
        2
176
     1
 90
        1
176
     1
 90
        1
176
     1
 40
0.5
176
     1
 40
30.0
176
     1
 62
     7
420
 16777215
176
     1
 90
        1
176
     1
 90
        0
176
     1
 62
     7
176
     1
 62
   257
176
     1
 90
        1
176
     1
 90
        1
176
     1
 40
1.0
176
     1
 90
        8
176
     1
 62
     7
176
     1
 40
1.0
176
     1
 90
        1
176
     1
 90
        6
176
     1
 90
        2
176
     1
 62
     7
176
     1
 90
        3
176
     1
 90
        0
176
     1
 90
        0
176
     1
290
     0
176
     1
 90
       13
176
     1
 40
0.0
176
     1
 90
        0
176
     1
290
     0
176
     1
290
     1
176
     1
290
     1
176
     1
290
     0
176
     1
290
     0
176
     1
290
     0
176
     1
290
     0
176
     1
290
     0
176
     1
290
     0
176
     1
 90
       50
176
     1
 40
0.0
176
     1
 40
1.0
176
     1
 90
        0
176
     1
 62
    18
420
        0
176
     1
 90
       50
176
     1
 90
        3
176
     1
 62
     5
420
      255
176
     1
290
     0
176
     1
 90
       50
176
     1
 90
       50
176
     1
 90
       50
176
     1
290
     0
176
     1
 90
       50
176
     1
 62
   256
176
     0
 40
1.0
176
     0
 90
        2
176
     1
  1
strokes_ogs.tif
176
     1
290
     0
176
     1
 40
1.0
176
     1
 40
1.0
176
     1
  0
DICTIONARYVAR
  5
69
102
{ACAD_REACTORS
330
68
102
}
330
68
100
DictionaryVariables
280
     0
  1
1:1
  0
DICTIONARYVAR
  5
6E
102
{ACAD_REACTORS
330
68
102
}
330
68
100
DictionaryVariables
280
     0
  1
Standard
  0
DICTIONARYVAR
  5
6D
102
{ACAD_REACTORS
330
68
102
}
330
68
100
DictionaryVariables
280
     0
  1
Standard
  0
DICTIONARY
  5
6A
330
5A
100
AcDbDictionary
280
     1
281
     1
  3
ACAD_ROUNDTRIP_2008_TABLESTYLE_CELLSTYLEMAP
360
6B
  0
CELLSTYLEMAP
  5
6B
102
{ACAD_REACTORS
330
6A
102
}
330
6A
100
AcDbCellStyleMap
 90
        3
300
CELLSTYLE
  1
TABLEFORMAT_BEGIN
 90
        5
170
     1
 91
        0
 92
    32768
 62
   257
 93
        1
300
CONTENTFORMAT
  1
CONTENTFORMAT_BEGIN
 90
        0
 91
        0
 92
        4
 93
        0
300

 40
0.0
140
1.0
 94
        5
 62
     0
340
11
144
0.25
309
CONTENTFORMAT_END
171
     1
301
MARGIN
  1
CELLMARGIN_BEGIN
 40
0.06
 40
0.06
 40
0.06
 40
0.06
 40
0.06
 40
0.06
309
CELLMARGIN_END
 94
        6
 95
        1
302
GRIDFORMAT
  1
GRIDFORMAT_BEGIN
 90
        0
 91
        1
 62
     0
 92
       -2
340
14
 93
        0
 40
0.045
309
GRIDFORMAT_END
 95
        2
302
GRIDFORMAT
  1
GRIDFORMAT_BEGIN
 90
        0
 91
        1
 62
     0
 92
       -2
340
14
 93
        0
 40
0.045
309
GRIDFORMAT_END
 95
        4
302
GRIDFORMAT
  1
GRIDFORMAT_BEGIN
 90
        0
 91
        1
 62
     0
 92
       -2
340
14
 93
        0
 40
0.045
309
GRIDFORMAT_END
 95
        8
302
GRIDFORMAT
  1
GRIDFORMAT_BEGIN
 90
        0
 91
        1
 62
     0
 92
       -2
340
14
 93
        0
 40
0.045
309
GRIDFORMAT_END
 95
       16
302
GRIDFORMAT
  1
GRIDFORMAT_BEGIN
 90
        0
 91
        1
 62
     0
 92
       -2
340
14
 93
        0
 40
0.045
309
GRIDFORMAT_END
 95
       32
302
GRIDFORMAT
  1
GRIDFORMAT_BEGIN
 90
        0
 91
        1
 62
     0
 92
       -2
340
14
 93
        0
 40
0.045
309
GRIDFORMAT_END
309
TABLEFORMAT_END
  1
CELLSTYLE_BEGIN
 90
        1
 91
        1
300
_TITLE
309
CELLSTYLE_END
300
CELLSTYLE
  1
TABLEFORMAT_BEGIN
 90
        5
170
     1
 91
        0
 92
        0
 62
   257
 93
        1
300
CONTENTFORMAT
  1
CONTENTFORMAT_BEGIN
 90
        0
 91
        0
 92
        4
 93
        0
300

 40
0.0
140
1.0
 94
        5
 62
     0
340
11
144
0.18
309
CONTENTFORMAT_END
171
     1
301
MARGIN
  1
CELLMARGIN_BEGIN
 40
0.06
 40
0.06
 40
0.06
 40
0.06
 40
0.06
 40
0.06
309
CELLMARGIN_END
 94
        6
 95
        1
302
GRIDFORMAT
  1
GRIDFORMAT_BEGIN
 90
        0
 91
        1
 62
     0
 92
       -2
340
14
 93
        0
 40
0.045
309
GRIDFORMAT_END
 95
        2
302
GRIDFORMAT
  1
GRIDFORMAT_BEGIN
 90
        0
 91
        1
 62
     0
 92
       -2
340
14
 93
        0
 40
0.045
309
GRIDFORMAT_END
 95
        4
302
GRIDFORMAT
  1
GRIDFORMAT_BEGIN
 90
        0
 91
        1
 62
     0
 92
       -2
340
14
 93
        0
 40
0.045
309
GRIDFORMAT_END
 95
        8
302
GRIDFORMAT
  1
GRIDFORMAT_BEGIN
 90
        0
 91
        1
 62
     0
 92
       -2
340
14
 93
        0
 40
0.045
309
GRIDFORMAT_END
 95
       16
302
GRIDFORMAT
  1
GRIDFORMAT_BEGIN
 90
        0
 91
        1
 62
     0
 92
       -2
340
14
 93
        0
 40
0.045
309
GRIDFORMAT_END
 95
       32
302
GRIDFORMAT
  1
GRIDFORMAT_BEGIN
 90
        0
 91
        1
 62
     0
 92
       -2
340
14
 93
        0
 40
0.045
309
GRIDFORMAT_END
309
TABLEFORMAT_END
  1
CELLSTYLE_BEGIN
 90
        2
 91
        1
300
_HEADER
309
CELLSTYLE_END
300
CELLSTYLE
  1
TABLEFORMAT_BEGIN
 90
        5
170
     1
 91
        0
 92
        0
 62
   257
 93
        1
300
CONTENTFORMAT
  1
CONTENTFORMAT_BEGIN
 90
        0
 91
        0
 92
        4
 93
        0
300

 40
0.0
140
1.0
 94
        2
 62
     0
340
11
144
0.18
309
CONTENTFORMAT_END
171
     1
301
MARGIN
  1
CELLMARGIN_BEGIN
 40
0.06
 40
0.06
 40
0.06
 40
0.06
 40
0.06
 40
0.06
309
CELLMARGIN_END
 94
        6
 95
        1
302
GRIDFORMAT
  1
GRIDFORMAT_BEGIN
 90
        0
 91
        1
 62
     0
 92
       -2
340
14
 93
        0
 40
0.045
309
GRIDFORMAT_END
 95
        2
302
GRIDFORMAT
  1
GRIDFORMAT_BEGIN
 90
        0
 91
        1
 62
     0
 92
       -2
340
14
 93
        0
 40
0.045
309
GRIDFORMAT_END
 95
        4
302
GRIDFORMAT
  1
GRIDFORMAT_BEGIN
 90
        0
 91
        1
 62
     0
 92
       -2
340
14
 93
        0
 40
0.045
309
GRIDFORMAT_END
 95
        8
302
GRIDFORMAT
  1
GRIDFORMAT_BEGIN
 90
        0
 91
        1
 62
     0
 92
       -2
340
14
 93
        0
 40
0.045
309
GRIDFORMAT_END
 95
       16
302
GRIDFORMAT
  1
GRIDFORMAT_BEGIN
 90
        0
 91
        1
 62
     0
 92
       -2
340
14
 93
        0
 40
0.045
309
GRIDFORMAT_END
 95
       32
302
GRIDFORMAT
  1
GRIDFORMAT_BEGIN
 90
        0
 91
        1
 62
     0
 92
       -2
340
14
 93
        0
 40
0.045
309
GRIDFORMAT_END
309
TABLEFORMAT_END
  1
CELLSTYLE_BEGIN
 90
        3
 91
        2
300
_DATA
309
CELLSTYLE_END
  0
ENDSEC
  0
EOF
