  0
SECTION
  2
HEADER
  9
$ACADVER
  1
AC1032
  9
$ACADMAINTVER
 90
       55
  9
$DWGCODEPAGE
  3
ANSI_1252
  9
$LASTSAVEDBY
  1
LYI-002
  9
$REQUIREDVERSIONS
160
                 0
  9
$INSBASE
 10
0.0
 20
0.0
 30
0.0
  9
$EXTMIN
 10
-75.9244
 20
-94.844
 30
0.0
  9
$EXTMAX
 10
75.7818
 20
94.8333
 30
0.0
  9
$LIMMIN
 10
0.0
 20
0.0
  9
$LIMMAX
 10
12.0
 20
9.0
  9
$ORTHOMODE
 70
     0
  9
$REGENMODE
 70
     1
  9
$FILLMODE
 70
     1
  9
$QTEXTMODE
 70
     0
  9
$MIRRTEXT
 70
     1
  9
$LTSCALE
 40
1.0
  9
$ATTMODE
 70
     1
  9
$TEXTSIZE
 40
0.2
  9
$TRACEWID
 40
0.05
  9
$TEXTSTYLE
  7
Standard
  9
$CLAYER
  8
0
  9
$CELTYPE
  6
ByLayer
  9
$CECOLOR
 62
   256
  9
$CELTSCALE
 40
1.0
  9
$DISPSILH
 70
     0
  9
$DIMSCALE
 40
1.0
  9
$DIMASZ
 40
0.18
  9
$DIMEXO
 40
0.0625
  9
$DIMDLI
 40
0.38
  9
$DIMRND
 40
0.0
  9
$DIMDLE
 40
0.0
  9
$DIMEXE
 40
0.18
  9
$DIMTP
 40
0.0
  9
$DIMTM
 40
0.0
  9
$DIMTXT
 40
0.18
  9
$DIMCEN
 40
0.09
  9
$DIMTSZ
 40
0.0
  9
$DIMTOL
 70
     0
  9
$DIMLIM
 70
     0
  9
$DIMTIH
 70
     1
  9
$DIMTOH
 70
     1
  9
$DIMSE1
 70
     0
  9
$DIMSE2
 70
     0
  9
$DIMTAD
 70
     0
  9
$DIMZIN
 70
     0
  9
$DIMBLK
  1

  9
$DIMASO
 70
     1
  9
$DIMSHO
 70
     1
  9
$DIMPOST
  1

  9
$DIMAPOST
  1

  9
$DIMALT
 70
     0
  9
$DIMALTD
 70
     2
  9
$DIMALTF
 40
25.4
  9
$DIMLFAC
 40
1.0
  9
$DIMTOFL
 70
     0
  9
$DIMTVP
 40
0.0
  9
$DIMTIX
 70
     0
  9
$DIMSOXD
 70
     0
  9
$DIMSAH
 70
     0
  9
$DIMBLK1
  1

  9
$DIMBLK2
  1

  9
$DIMSTYLE
  2
Standard
  9
$DIMCLRD
 70
     0
  9
$DIMCLRE
 70
     0
  9
$DIMCLRT
 70
     0
  9
$DIMTFAC
 40
1.0
  9
$DIMGAP
 40
0.09
  9
$DIMJUST
 70
     0
  9
$DIMSD1
 70
     0
  9
$DIMSD2
 70
     0
  9
$DIMTOLJ
 70
     1
  9
$DIMTZIN
 70
     0
  9
$DIMALTZ
 70
     0
  9
$DIMALTTZ
 70
     0
  9
$DIMUPT
 70
     0
  9
$DIMDEC
 70
     4
  9
$DIMTDEC
 70
     4
  9
$DIMALTU
 70
     2
  9
$DIMALTTD
 70
     2
  9
$DIMTXSTY
  7
Standard
  9
$DIMAUNIT
 70
     0
  9
$DIMADEC
 70
     0
  9
$DIMALTRND
 40
0.0
  9
$DIMAZIN
 70
     0
  9
$DIMDSEP
 70
    46
  9
$DIMATFIT
 70
     3
  9
$DIMFRAC
 70
     0
  9
$DIMLDRBLK
  1

  9
$DIMLUNIT
 70
     2
  9
$DIMLWD
 70
    -2
  9
$DIMLWE
 70
    -2
  9
$DIMTMOVE
 70
     0
  9
$DIMFXL
 40
1.0
  9
$DIMFXLON
 70
     0
  9
$DIMJOGANG
 40
0.7853981633974483
  9
$DIMTFILL
 70
     0
  9
$DIMTFILLCLR
 70
     0
  9
$DIMARCSYM
 70
     0
  9
$DIMLTYPE
  6

  9
$DIMLTEX1
  6

  9
$DIMLTEX2
  6

  9
$DIMTXTDIRECTION
 70
     0
  9
$LUNITS
 70
     2
  9
$LUPREC
 70
     4
  9
$SKETCHINC
 40
0.1
  9
$FILLETRAD
 40
0.0
  9
$AUNITS
 70
     0
  9
$AUPREC
 70
     0
  9
$MENU
  1
.
  9
$ELEVATION
 40
0.0
  9
$PELEVATION
 40
0.0
  9
$THICKNESS
 40
0.0
  9
$LIMCHECK
 70
     0
  9
$CHAMFERA
 40
0.0
  9
$CHAMFERB
 40
0.0
  9
$CHAMFERC
 40
0.0
  9
$CHAMFERD
 40
0.0
  9
$SKPOLY
 70
     0
  9
$TDCREATE
 40
2460650.499628056
  9
$TDUCREATE
 40
2460650.270461389
  9
$TDUPDATE
 40
2460650.499628056
  9
$TDUUPDATE
 40
2460650.270461389
  9
$TDINDWG
 40
0.0000000116
  9
$TDUSRTIMER
 40
0.0000000116
  9
$USRTIMER
 70
     1
  9
$ANGBASE
 50
0.0
  9
$ANGDIR
 70
     0
  9
$PDMODE
 70
     0
  9
$PDSIZE
 40
0.0
  9
$PLINEWID
 40
0.0
  9
$SPLFRAME
 70
     0
  9
$SPLINETYPE
 70
     6
  9
$SPLINESEGS
 70
     8
  9
$HANDSEED
  5
7A
  9
$SURFTAB1
 70
     6
  9
$SURFTAB2
 70
     6
  9
$SURFTYPE
 70
     6
  9
$SURFU
 70
     6
  9
$SURFV
 70
     6
  9
$UCSBASE
  2

  9
$UCSNAME
  2

  9
$UCSORG
 10
0.0
 20
0.0
 30
0.0
  9
$UCSXDIR
 10
1.0
 20
0.0
 30
0.0
  9
$UCSYDIR
 10
0.0
 20
1.0
 30
0.0
  9
$UCSORTHOREF
  2

  9
$UCSORTHOVIEW
 70
     0
  9
$UCSORGTOP
 10
0.0
 20
0.0
 30
0.0
  9
$UCSORGBOTTOM
 10
0.0
 20
0.0
 30
0.0
  9
$UCSORGLEFT
 10
0.0
 20
0.0
 30
0.0
  9
$UCSORGRIGHT
 10
0.0
 20
0.0
 30
0.0
  9
$UCSORGFRONT
 10
0.0
 20
0.0
 30
0.0
  9
$UCSORGBACK
 10
0.0
 20
0.0
 30
0.0
  9
$PUCSBASE
  2

  9
$PUCSNAME
  2

  9
$PUCSORG
 10
0.0
 20
0.0
 30
0.0
  9
$PUCSXDIR
 10
1.0
 20
0.0
 30
0.0
  9
$PUCSYDIR
 10
0.0
 20
1.0
 30
0.0
  9
$PUCSORTHOREF
  2

  9
$PUCSORTHOVIEW
 70
     0
  9
$PUCSORGTOP
 10
0.0
 20
0.0
 30
0.0
  9
$PUCSORGBOTTOM
 10
0.0
 20
0.0
 30
0.0
  9
$PUCSORGLEFT
 10
0.0
 20
0.0
 30
0.0
  9
$PUCSORGRIGHT
 10
0.0
 20
0.0
 30
0.0
  9
$PUCSORGFRONT
 10
0.0
 20
0.0
 30
0.0
  9
$PUCSORGBACK
 10
0.0
 20
0.0
 30
0.0
  9
$USERI1
 70
     0
  9
$USERI2
 70
     0
  9
$USERI3
 70
     0
  9
$USERI4
 70
     0
  9
$USERI5
 70
     0
  9
$USERR1
 40
0.0
  9
$USERR2
 40
0.0
  9
$USERR3
 40
0.0
  9
$USERR4
 40
0.0
  9
$USERR5
 40
0.0
  9
$WORLDVIEW
 70
     1
  9
$SHADEDGE
 70
     3
  9
$SHADEDIF
 70
    70
  9
$TILEMODE
 70
     1
  9
$MAXACTVP
 70
    64
  9
$PINSBASE
 10
0.0
 20
0.0
 30
0.0
  9
$PLIMCHECK
 70
     0
  9
$PEXTMIN
 10
1.000000000000000E+20
 20
1.000000000000000E+20
 30
1.000000000000000E+20
  9
$PEXTMAX
 10
-1.000000000000000E+20
 20
-1.000000000000000E+20
 30
-1.000000000000000E+20
  9
$PLIMMIN
 10
0.0
 20
0.0
  9
$PLIMMAX
 10
12.0
 20
9.0
  9
$UNITMODE
 70
     0
  9
$VISRETAIN
 70
     1
  9
$PLINEGEN
 70
     0
  9
$PSLTSCALE
 70
     1
  9
$TREEDEPTH
 70
  3020
  9
$CMLSTYLE
  2
Standard
  9
$CMLJUST
 70
     0
  9
$CMLSCALE
 40
1.0
  9
$PROXYGRAPHICS
 70
     1
  9
$MEASUREMENT
 70
     0
  9
$CELWEIGHT
370
    -1
  9
$ENDCAPS
280
     0
  9
$JOINSTYLE
280
     0
  9
$LWDISPLAY
290
     0
  9
$INSUNITS
 70
     4
  9
$HYPERLINKBASE
  1

  9
$STYLESHEET
  1

  9
$XEDIT
290
     1
  9
$CEPSNTYPE
380
     0
  9
$PSTYLEMODE
290
     1
  9
$FINGERPRINTGUID
  2
{f195059d-73cd-4d3b-8fd1-de97006d7c76}
  9
$VERSIONGUID
  2
{FAEB1C32-E019-11D5-929B-00C0DF256EC4}
  9
$EXTNAMES
290
     1
  9
$PSVPSCALE
 40
0.0
  9
$OLESTARTUP
290
     0
  9
$SORTENTS
280
   127
  9
$INDEXCTL
280
     0
  9
$HIDETEXT
280
     1
  9
$XCLIPFRAME
280
     2
  9
$HALOGAP
280
     0
  9
$OBSCOLOR
 70
   257
  9
$OBSLTYPE
280
     0
  9
$INTERSECTIONDISPLAY
280
     0
  9
$INTERSECTIONCOLOR
 70
   257
  9
$DIMASSOC
280
     2
  9
$PROJECTNAME
  1

  9
$CAMERADISPLAY
290
     0
  9
$LENSLENGTH
 40
50.0
  9
$CAMERAHEIGHT
 40
0.0
  9
$STEPSPERSEC
 40
2.0
  9
$STEPSIZE
 40
6.0
  9
$3DDWFPREC
 40
2.0
  9
$PSOLWIDTH
 40
0.25
  9
$PSOLHEIGHT
 40
4.0
  9
$LOFTANG1
 40
1.570796326794897
  9
$LOFTANG2
 40
1.570796326794897
  9
$LOFTMAG1
 40
0.0
  9
$LOFTMAG2
 40
0.0
  9
$LOFTPARAM
 70
     7
  9
$LOFTNORMALS
280
     1
  9
$LATITUDE
 40
37.795
  9
$LONGITUDE
 40
-122.394
  9
$NORTHDIRECTION
 40
0.0
  9
$TIMEZONE
 70
 -8000
  9
$LIGHTGLYPHDISPLAY
280
     1
  9
$TILEMODELIGHTSYNCH
280
     1
  9
$CMATERIAL
347
44
  9
$SOLIDHIST
280
     0
  9
$SHOWHIST
280
     1
  9
$DWFFRAME
280
     2
  9
$DGNFRAME
280
     2
  9
$REALWORLDSCALE
290
     1
  9
$INTERFERECOLOR
 62
   256
  9
$CSHADOW
280
     0
  9
$SHADOWPLANELOCATION
 40
0.0
  0
ENDSEC
  0
SECTION
  2
CLASSES
  0
CLASS
  1
ACDBDICTIONARYWDFLT
  2
AcDbDictionaryWithDefault
  3
ObjectDBX Classes
 90
        0
 91
        3
280
     0
281
     0
  0
CLASS
  1
VISUALSTYLE
  2
AcDbVisualStyle
  3
ObjectDBX Classes
 90
     4095
 91
        3
280
     0
281
     0
  0
CLASS
  1
MATERIAL
  2
AcDbMaterial
  3
ObjectDBX Classes
 90
     1153
 91
        3
280
     0
281
     0
  0
CLASS
  1
SCALE
  2
AcDbScale
  3
ObjectDBX Classes
 90
     1153
 91
        3
280
     0
281
     0
  0
CLASS
  1
TABLESTYLE
  2
AcDbTableStyle
  3
ObjectDBX Classes
 90
     4095
 91
        3
280
     0
281
     0
  0
CLASS
  1
MLEADERSTYLE
  2
AcDbMLeaderStyle
  3
ACDB_MLEADERSTYLE_CLASS
 90
     4095
 91
        3
280
     0
281
     0
  0
CLASS
  1
SUN
  2
AcDbSun
  3
SCENEOE
 90
     1153
 91
        3
280
     0
281
     0
  0
CLASS
  1
DICTIONARYVAR
  2
AcDbDictionaryVar
  3
ObjectDBX Classes
 90
        0
 91
        3
280
     0
281
     0
  0
CLASS
  1
CELLSTYLEMAP
  2
AcDbCellStyleMap
  3
ObjectDBX Classes
 90
     1152
 91
        3
280
     0
281
     0
  0
ENDSEC
  0
SECTION
  2
TABLES
  0
TABLE
  2
VPORT
  5
8
330
0
100
AcDbSymbolTable
 70
     1
  0
VPORT
  5
29
330
8
100
AcDbSymbolTableRecord
100
AcDbViewportTableRecord
  2
*Active
 70
     0
 10
0.0
 20
0.0
 11
1.0
 21
1.0
 12
10.42990654205607
 22
4.5
 13
0.0
 23
0.0
 14
0.5
 24
0.5
 15
0.5
 25
0.5
 16
0.0
 26
0.0
 36
1.0
 17
0.0
 27
0.0
 37
0.0
 40
9.0
 41
1.972972972850329
 42
50.0
 43
0.0
 44
0.0
 50
0.0
 51
0.0
 71
     0
 72
   100
 73
     1
 74
     3
 75
     0
 76
     0
 77
     0
 78
     0
281
     0
 65
     1
110
0.0
120
0.0
130
0.0
111
1.0
121
0.0
131
0.0
112
0.0
122
1.0
132
0.0
 79
     0
146
0.0
348
2F
 60
     3
 61
     5
292
     1
282
     1
141
0.0
142
0.0
 63
   250
361
5D
  0
ENDTAB
  0
TABLE
  2
LTYPE
  5
5
330
0
100
AcDbSymbolTable
 70
     1
  0
LTYPE
  5
14
330
5
100
AcDbSymbolTableRecord
100
AcDbLinetypeTableRecord
  2
ByBlock
 70
     0
  3

 72
    65
 73
     0
 40
0.0
  0
LTYPE
  5
15
330
5
100
AcDbSymbolTableRecord
100
AcDbLinetypeTableRecord
  2
ByLayer
 70
     0
  3

 72
    65
 73
     0
 40
0.0
  0
LTYPE
  5
16
330
5
100
AcDbSymbolTableRecord
100
AcDbLinetypeTableRecord
  2
Continuous
 70
     0
  3
Solid line
 72
    65
 73
     0
 40
0.0
  0
ENDTAB
  0
TABLE
  2
LAYER
  5
2
330
0
100
AcDbSymbolTable
 70
     2
  0
LAYER
  5
10
330
2
100
AcDbSymbolTableRecord
100
AcDbLayerTableRecord
  2
0
 70
     0
 62
     7
  6
Continuous
370
    -3
390
F
347
46
348
0
  0
LAYER
  5
5F
330
2
100
AcDbSymbolTableRecord
100
AcDbLayerTableRecord
  2
Layer 1
 70
     0
 62
     7
  6
Continuous
370
    -3
390
F
347
46
348
0
  0
ENDTAB
  0
TABLE
  2
STYLE
  5
3
330
0
100
AcDbSymbolTable
 70
     1
  0
STYLE
  5
11
330
3
100
AcDbSymbolTableRecord
100
AcDbTextStyleTableRecord
  2
Standard
 70
     0
 40
0.0
 41
1.0
 50
0.0
 71
     0
 42
0.2
  3
txt
  4

  0
ENDTAB
  0
TABLE
  2
VIEW
  5
6
330
0
100
AcDbSymbolTable
 70
     0
  0
ENDTAB
  0
TABLE
  2
UCS
  5
7
330
0
100
AcDbSymbolTable
 70
     0
  0
ENDTAB
  0
TABLE
  2
APPID
  5
9
330
0
100
AcDbSymbolTable
 70
     2
  0
APPID
  5
12
330
9
100
AcDbSymbolTableRecord
100
AcDbRegAppTableRecord
  2
ACAD
 70
     0
  0
APPID
  5
5E
330
9
100
AcDbSymbolTableRecord
100
AcDbRegAppTableRecord
  2
ODA
 70
     0
  0
ENDTAB
  0
TABLE
  2
DIMSTYLE
  5
A
330
0
100
AcDbSymbolTable
 70
     1
100
AcDbDimStyleTable
  0
DIMSTYLE
105
27
330
A
100
AcDbSymbolTableRecord
100
AcDbDimStyleTableRecord
  2
Standard
 70
     0
178
     0
340
11
  0
ENDTAB
  0
TABLE
  2
BLOCK_RECORD
  5
1
330
0
100
AcDbSymbolTable
 70
     1
  0
BLOCK_RECORD
  5
1F
330
1
100
AcDbSymbolTableRecord
100
AcDbBlockTableRecord
  2
*Model_Space
340
22
 70
     0
280
     1
281
     0
  0
BLOCK_RECORD
  5
1B
330
1
100
AcDbSymbolTableRecord
100
AcDbBlockTableRecord
  2
*Paper_Space
340
1E
 70
     0
280
     1
281
     0
  0
BLOCK_RECORD
  5
23
330
1
100
AcDbSymbolTableRecord
100
AcDbBlockTableRecord
  2
*Paper_Space0
340
26
 70
     0
280
     1
281
     0
  0
ENDTAB
  0
ENDSEC
  0
SECTION
  2
BLOCKS
  0
BLOCK
  5
20
330
1F
100
AcDbEntity
  8
0
100
AcDbBlockBegin
  2
*Model_Space
 70
     0
 10
0.0
 20
0.0
 30
0.0
  3
*Model_Space
  1

  0
ENDBLK
  5
21
330
1F
100
AcDbEntity
  8
0
100
AcDbBlockEnd
  0
BLOCK
  5
1C
330
1B
100
AcDbEntity
 67
     1
  8
0
100
AcDbBlockBegin
  2
*Paper_Space
 70
     0
 10
0.0
 20
0.0
 30
0.0
  3
*Paper_Space
  1

  0
ENDBLK
  5
1D
330
1B
100
AcDbEntity
 67
     1
  8
0
100
AcDbBlockEnd
  0
BLOCK
  5
24
330
23
100
AcDbEntity
  8
0
100
AcDbBlockBegin
  2
*Paper_Space0
 70
     0
 10
0.0
 20
0.0
 30
0.0
  3
*Paper_Space0
  1

  0
ENDBLK
  5
25
330
23
100
AcDbEntity
  8
0
100
AcDbBlockEnd
  0
ENDSEC
  0
SECTION
  2
ENTITIES
  0
SPLINE
  5
60
330
1F
100
AcDbEntity
  8
Layer 1
 62
   250
370
    20
100
AcDbSpline
210
0.0
220
0.0
230
1.0
 70
    11
 71
     3
 72
    35
 73
    31
 74
     0
 42
0.0000000001
 43
0.0000000001
 40
0.0
 40
0.0
 40
0.0
 40
0.0
 40
0.1
 40
0.1
 40
0.1
 40
0.2
 40
0.2
 40
0.2
 40
0.3
 40
0.3
 40
0.3
 40
0.4
 40
0.4
 40
0.4
 40
0.5
 40
0.5
 40
0.5
 40
0.6000000000000001
 40
0.6000000000000001
 40
0.6000000000000001
 40
0.7000000000000001
 40
0.7000000000000001
 40
0.7000000000000001
 40
0.8
 40
0.8
 40
0.8
 40
0.9
 40
0.9
 40
0.9
 40
1.0
 40
1.0
 40
1.0
 40
1.0
 10
-7.3708
 20
56.9666
 30
0.0
 10
0.6031
 20
57.2134
 30
0.0
 10
11.5199
 20
58.6268
 30
0.0
 10
18.4628
 20
62.7921
 30
0.0
 10
19.5742
 20
63.4588
 30
0.0
 10
21.4643
 20
64.3005
 30
0.0
 10
22.6851
 20
63.4434
 30
0.0
 10
23.3248
 20
62.9942
 30
0.0
 10
23.5183
 20
62.2482
 30
0.0
 10
23.3667
 20
61.5043
 30
0.0
 10
23.2178
 20
60.7734
 30
0.0
 10
22.7613
 20
60.0676
 30
0.0
 10
22.2983
 20
59.4958
 30
0.0
 10
19.8903
 20
56.5229
 30
0.0
 10
15.7813
 20
54.226
 30
0.0
 10
12.2257
 20
52.9978
 30
0.0
 10
5.5076
 20
50.6771
 30
0.0
 10
-1.7669
 20
50.9423
 30
0.0
 10
-8.5862
 20
52.6845
 30
0.0
 10
-8.635
 20
52.697
 30
0.0
 10
-8.6757
 20
52.7106
 30
0.0
 10
-8.7222
 20
52.7298
 30
0.0
 10
-9.3999
 20
53.0113
 30
0.0
 10
-10.2603
 20
53.4027
 30
0.0
 10
-10.803
 20
53.9056
 30
0.0
 10
-11.4222
 20
54.4793
 30
0.0
 10
-11.6445
 20
55.3335
 30
0.0
 10
-11.0298
 20
56.0134
 30
0.0
 10
-10.2883
 20
56.8335
 30
0.0
 10
-8.4063
 20
56.9346
 30
0.0
 10
-7.3708
 20
56.9666
 30
0.0
  0
SPLINE
  5
61
330
1F
100
AcDbEntity
  8
Layer 1
 62
   250
370
    20
100
AcDbSpline
210
0.0
220
0.0
230
1.0
 70
    11
 71
     3
 72
    35
 73
    31
 74
     0
 42
0.0000000001
 43
0.0000000001
 40
0.0
 40
0.0
 40
0.0
 40
0.0
 40
0.1
 40
0.1
 40
0.1
 40
0.2
 40
0.2
 40
0.2
 40
0.3
 40
0.3
 40
0.3
 40
0.4
 40
0.4
 40
0.4
 40
0.5
 40
0.5
 40
0.5
 40
0.6000000000000001
 40
0.6000000000000001
 40
0.6000000000000001
 40
0.7000000000000001
 40
0.7000000000000001
 40
0.7000000000000001
 40
0.8
 40
0.8
 40
0.8
 40
0.9
 40
0.9
 40
0.9
 40
1.0
 40
1.0
 40
1.0
 40
1.0
 10
-3.9024
 20
47.4985
 30
0.0
 10
0.2006
 20
47.6905
 30
0.0
 10
4.2694
 20
48.084
 30
0.0
 10
8.3152
 20
48.8129
 30
0.0
 10
13.6431
 20
49.7728
 30
0.0
 10
19.6917
 20
51.4466
 30
0.0
 10
24.2181
 20
54.4855
 30
0.0
 10
25.337
 20
55.2366
 30
0.0
 10
26.8592
 20
55.4698
 30
0.0
 10
27.859
 20
54.384
 30
0.0
 10
28.7806
 20
53.3833
 30
0.0
 10
28.5995
 20
51.9297
 30
0.0
 10
27.8444
 20
50.8942
 30
0.0
 10
26.9332
 20
49.6447
 30
0.0
 10
25.4132
 20
48.4868
 30
0.0
 10
24.1281
 20
47.6497
 30
0.0
 10
22.0756
 20
46.3127
 30
0.0
 10
19.7894
 20
45.253
 30
0.0
 10
17.4769
 20
44.4548
 30
0.0
 10
10.8505
 20
42.1674
 30
0.0
 10
3.6814
 20
41.9228
 30
0.0
 10
-3.1588
 20
43.3466
 30
0.0
 10
-4.1252
 20
43.5477
 30
0.0
 10
-5.424
 20
44.1036
 30
0.0
 10
-6.019
 20
44.9266
 30
0.0
 10
-6.478
 20
45.5615
 30
0.0
 10
-6.4733
 20
46.3671
 30
0.0
 10
-5.8659
 20
46.9069
 30
0.0
 10
-5.3557
 20
47.3603
 30
0.0
 10
-4.5586
 20
47.4678
 30
0.0
 10
-3.9024
 20
47.4985
 30
0.0
  0
SPLINE
  5
62
330
1F
100
AcDbEntity
  8
Layer 1
 62
   250
370
    20
100
AcDbSpline
210
0.0
220
0.0
230
1.0
 70
    11
 71
     3
 72
    77
 73
    73
 74
     0
 42
0.0000000001
 43
0.0000000001
 40
0.0
 40
0.0
 40
0.0
 40
0.0
 40
0.0416666666666667
 40
0.0416666666666667
 40
0.0416666666666667
 40
0.0833333333333333
 40
0.0833333333333333
 40
0.0833333333333333
 40
0.125
 40
0.125
 40
0.125
 40
0.1666666666666667
 40
0.1666666666666667
 40
0.1666666666666667
 40
0.2083333333333333
 40
0.2083333333333333
 40
0.2083333333333333
 40
0.25
 40
0.25
 40
0.25
 40
0.2916666666666666
 40
0.2916666666666666
 40
0.2916666666666666
 40
0.3333333333333333
 40
0.3333333333333333
 40
0.3333333333333333
 40
0.375
 40
0.375
 40
0.375
 40
0.4166666666666666
 40
0.4166666666666666
 40
0.4166666666666666
 40
0.4583333333333333
 40
0.4583333333333333
 40
0.4583333333333333
 40
0.5
 40
0.5
 40
0.5
 40
0.5416666666666666
 40
0.5416666666666666
 40
0.5416666666666666
 40
0.5833333333333333
 40
0.5833333333333333
 40
0.5833333333333333
 40
0.625
 40
0.625
 40
0.625
 40
0.6666666666666666
 40
0.6666666666666666
 40
0.6666666666666666
 40
0.7083333333333333
 40
0.7083333333333333
 40
0.7083333333333333
 40
0.75
 40
0.75
 40
0.75
 40
0.7916666666666666
 40
0.7916666666666666
 40
0.7916666666666666
 40
0.8333333333333333
 40
0.8333333333333333
 40
0.8333333333333333
 40
0.875
 40
0.875
 40
0.875
 40
0.9166666666666666
 40
0.9166666666666666
 40
0.9166666666666666
 40
0.9583333333333333
 40
0.9583333333333333
 40
0.9583333333333333
 40
1.0
 40
1.0
 40
1.0
 40
1.0
 10
16.2152
 20
25.8456
 30
0.0
 10
13.3677
 20
25.964
 30
0.0
 10
10.5445
 20
26.8967
 30
0.0
 10
9.0677
 20
29.5448
 30
0.0
 10
8.4502
 20
30.6519
 30
0.0
 10
8.0567
 20
32.2372
 30
0.0
 10
8.1781
 20
33.5182
 30
0.0
 10
8.1803
 20
33.5419
 30
0.0
 10
8.1829
 20
33.562
 30
0.0
 10
8.1867
 20
33.5854
 30
0.0
 10
8.6993
 20
36.7177
 30
0.0
 10
10.8001
 20
38.5775
 30
0.0
 10
13.8151
 20
39.2349
 30
0.0
 10
14.8615
 20
39.463
 30
0.0
 10
16.1577
 20
39.5587
 30
0.0
 10
17.3302
 20
39.4851
 30
0.0
 10
17.3302
 20
39.4851
 30
0.0
 10
17.5366
 20
40.6249
 30
0.0
 10
17.5366
 20
40.6249
 30
0.0
 10
17.5406
 20
40.6472
 30
0.0
 10
17.5447
 20
40.6661
 30
0.0
 10
17.5502
 20
40.6881
 30
0.0
 10
17.8683
 20
41.967
 30
0.0
 10
18.9108
 20
42.9133
 30
0.0
 10
20.2502
 20
42.9535
 30
0.0
 10
21.5667
 20
42.9931
 30
0.0
 10
22.6593
 20
42.1186
 30
0.0
 10
22.8828
 20
40.8066
 30
0.0
 10
24.8145
 20
29.4672
 30
0.0
 10
24.3755
 20
18.6277
 30
0.0
 10
20.2131
 20
7.8327
 30
0.0
 10
16.7284
 20
-1.2048
 30
0.0
 10
11.1483
 20
-8.9603
 30
0.0
 10
5.4623
 20
-16.7141
 30
0.0
 10
1.3259
 20
-22.3549
 30
0.0
 10
-2.1877
 20
-28.7845
 30
0.0
 10
-3.7597
 20
-35.6489
 30
0.0
 10
-4.1906
 20
-37.5304
 30
0.0
 10
-4.4626
 20
-39.4135
 30
0.0
 10
-4.5914
 20
-41.3383
 30
0.0
 10
-4.6319
 20
-41.9434
 30
0.0
 10
-4.6557
 20
-42.5481
 30
0.0
 10
-4.6885
 20
-43.1534
 30
0.0
 10
-4.7104
 20
-43.5571
 30
0.0
 10
-4.7319
 20
-44.0393
 30
0.0
 10
-4.8468
 20
-44.4266
 30
0.0
 10
-5.1605
 20
-45.4847
 30
0.0
 10
-5.9341
 20
-46.1876
 30
0.0
 10
-7.0228
 20
-46.3645
 30
0.0
 10
-7.4646
 20
-46.4362
 30
0.0
 10
-8.015
 20
-46.4193
 30
0.0
 10
-8.452
 20
-46.3015
 30
0.0
 10
-8.7691
 20
-46.216
 30
0.0
 10
-9.0047
 20
-46.0045
 30
0.0
 10
-9.1237
 20
-45.6983
 30
0.0
 10
-10.1107
 20
-43.1596
 30
0.0
 10
-10.433
 20
-40.4114
 30
0.0
 10
-10.3355
 20
-37.7017
 30
0.0
 10
-10.2194
 20
-34.4757
 30
0.0
 10
-9.5153
 20
-31.2432
 30
0.0
 10
-8.5203
 20
-28.1803
 30
0.0
 10
-5.9173
 20
-20.1672
 30
0.0
 10
-1.0828
 20
-12.4439
 30
0.0
 10
4.0525
 20
-5.8225
 30
0.0
 10
9.1164
 20
0.707
 30
0.0
 10
12.6894
 20
8.3096
 30
0.0
 10
14.6764
 20
16.3197
 30
0.0
 10
15.294
 20
18.8095
 30
0.0
 10
15.7662
 20
21.3585
 30
0.0
 10
16.0427
 20
23.9098
 30
0.0
 10
16.1107
 20
24.5372
 30
0.0
 10
16.1763
 20
25.1952
 30
0.0
 10
16.2152
 20
25.8456
 30
0.0
  0
SPLINE
  5
63
330
1F
100
AcDbEntity
  8
Layer 1
 62
   250
370
    20
100
AcDbSpline
210
0.0
220
0.0
230
1.0
 70
    11
 71
     3
 72
    32
 73
    28
 74
     0
 42
0.0000000001
 43
0.0000000001
 40
0.0
 40
0.0
 40
0.0
 40
0.0
 40
0.1111111111111111
 40
0.1111111111111111
 40
0.1111111111111111
 40
0.2222222222222222
 40
0.2222222222222222
 40
0.2222222222222222
 40
0.3333333333333333
 40
0.3333333333333333
 40
0.3333333333333333
 40
0.4444444444444444
 40
0.4444444444444444
 40
0.4444444444444444
 40
0.5555555555555556
 40
0.5555555555555556
 40
0.5555555555555556
 40
0.6666666666666666
 40
0.6666666666666666
 40
0.6666666666666666
 40
0.7777777777777777
 40
0.7777777777777777
 40
0.7777777777777777
 40
0.8888888888888888
 40
0.8888888888888888
 40
0.8888888888888888
 40
1.0
 40
1.0
 40
1.0
 40
1.0
 10
-1.9756
 20
32.3869
 30
0.0
 10
-1.5143
 20
34.113
 30
0.0
 10
0.2331
 20
34.3253
 30
0.0
 10
1.5961
 20
33.6071
 30
0.0
 10
4.1303
 20
32.3456
 30
0.0
 10
6.1965
 20
29.9765
 30
0.0
 10
7.6246
 20
27.563
 30
0.0
 10
8.3962
 20
26.259
 30
0.0
 10
9.8345
 20
23.3692
 30
0.0
 10
9.5492
 20
21.8094
 30
0.0
 10
9.3243
 20
20.5801
 30
0.0
 10
8.3705
 20
19.9643
 30
0.0
 10
7.1798
 20
20.2669
 30
0.0
 10
6.7533
 20
20.3753
 30
0.0
 10
6.2678
 20
20.6135
 30
0.0
 10
5.9096
 20
20.8748
 30
0.0
 10
5.6924
 20
21.0332
 30
0.0
 10
5.5606
 20
21.2448
 30
0.0
 10
5.514
 20
21.5095
 30
0.0
 10
5.1052
 20
23.8348
 30
0.0
 10
3.2298
 20
26.3439
 30
0.0
 10
1.6852
 20
28.0859
 30
0.0
 10
0.686
 20
29.2128
 30
0.0
 10
-0.4834
 20
30.3939
 30
0.0
 10
-1.6476
 20
31.3588
 30
0.0
 10
-1.9553
 20
31.6138
 30
0.0
 10
-2.0788
 20
32.0007
 30
0.0
 10
-1.9756
 20
32.3869
 30
0.0
  0
SPLINE
  5
64
330
1F
100
AcDbEntity
  8
Layer 1
 62
   250
370
    20
100
AcDbSpline
210
0.0
220
0.0
230
1.0
 70
    11
 71
     3
 72
    62
 73
    58
 74
     0
 42
0.0000000001
 43
0.0000000001
 40
0.0
 40
0.0
 40
0.0
 40
0.0
 40
0.0526315789473684
 40
0.0526315789473684
 40
0.0526315789473684
 40
0.1052631578947368
 40
0.1052631578947368
 40
0.1052631578947368
 40
0.1578947368421053
 40
0.1578947368421053
 40
0.1578947368421053
 40
0.2105263157894737
 40
0.2105263157894737
 40
0.2105263157894737
 40
0.2631578947368421
 40
0.2631578947368421
 40
0.2631578947368421
 40
0.3157894736842105
 40
0.3157894736842105
 40
0.3157894736842105
 40
0.3684210526315789
 40
0.3684210526315789
 40
0.3684210526315789
 40
0.4210526315789473
 40
0.4210526315789473
 40
0.4210526315789473
 40
0.4736842105263158
 40
0.4736842105263158
 40
0.4736842105263158
 40
0.5263157894736842
 40
0.5263157894736842
 40
0.5263157894736842
 40
0.5789473684210527
 40
0.5789473684210527
 40
0.5789473684210527
 40
0.631578947368421
 40
0.631578947368421
 40
0.631578947368421
 40
0.6842105263157894
 40
0.6842105263157894
 40
0.6842105263157894
 40
0.7368421052631579
 40
0.7368421052631579
 40
0.7368421052631579
 40
0.7894736842105263
 40
0.7894736842105263
 40
0.7894736842105263
 40
0.8421052631578947
 40
0.8421052631578947
 40
0.8421052631578947
 40
0.894736842105263
 40
0.894736842105263
 40
0.894736842105263
 40
0.9473684210526315
 40
0.9473684210526315
 40
0.9473684210526315
 40
1.0
 40
1.0
 40
1.0
 40
1.0
 10
-3.8274
 20
21.8767
 30
0.0
 10
-3.9154
 20
22.2501
 30
0.0
 10
-3.9693
 20
22.6129
 30
0.0
 10
-3.9742
 20
22.9457
 30
0.0
 10
-3.98
 20
23.3362
 30
0.0
 10
-3.9901
 20
23.7785
 30
0.0
 10
-3.9189
 20
24.1623
 30
0.0
 10
-3.7988
 20
24.8094
 30
0.0
 10
-3.3605
 20
25.3193
 30
0.0
 10
-2.6663
 20
25.3213
 30
0.0
 10
-2.1911
 20
25.3226
 30
0.0
 10
-1.7693
 20
25.0605
 30
0.0
 10
-1.3974
 20
24.7912
 30
0.0
 10
-0.9425
 20
24.4618
 30
0.0
 10
-0.5033
 20
24.0825
 30
0.0
 10
-0.0751
 20
23.7188
 30
0.0
 10
1.0427
 20
22.7691
 30
0.0
 10
2.5502
 20
21.3198
 30
0.0
 10
2.9357
 20
19.8887
 30
0.0
 10
3.25
 20
18.7219
 30
0.0
 10
3.3749
 20
17.368
 30
0.0
 10
3.4486
 20
16.1594
 30
0.0
 10
3.4906
 20
15.4707
 30
0.0
 10
3.5198
 20
14.768
 30
0.0
 10
3.5198
 20
14.0775
 30
0.0
 10
3.5198
 20
13.7837
 30
0.0
 10
3.4072
 20
13.5308
 30
0.0
 10
3.1888
 20
13.3343
 30
0.0
 10
2.9704
 20
13.1377
 30
0.0
 10
2.7072
 20
13.0522
 30
0.0
 10
2.415
 20
13.083
 30
0.0
 10
-0.1424
 20
13.3526
 30
0.0
 10
-4.6009
 20
14.2826
 30
0.0
 10
-6.4352
 20
16.1529
 30
0.0
 10
-7.2115
 20
16.9445
 30
0.0
 10
-7.9757
 20
17.7719
 30
0.0
 10
-8.7757
 20
18.5374
 30
0.0
 10
-9.2352
 20
18.977
 30
0.0
 10
-9.6963
 20
19.3716
 30
0.0
 10
-10.2588
 20
19.6728
 30
0.0
 10
-11.1007
 20
20.1236
 30
0.0
 10
-11.9469
 20
20.8039
 30
0.0
 10
-12.5381
 20
21.5573
 30
0.0
 10
-13.3146
 20
22.5467
 30
0.0
 10
-13.7095
 20
23.7557
 30
0.0
 10
-13.2507
 20
24.9788
 30
0.0
 10
-12.9427
 20
25.7999
 30
0.0
 10
-12.2267
 20
26.2417
 30
0.0
 10
-11.3753
 20
26.3241
 30
0.0
 10
-10.6575
 20
26.3935
 30
0.0
 10
-9.8861
 20
26.2155
 30
0.0
 10
-9.2138
 20
25.9729
 30
0.0
 10
-7.9328
 20
25.5106
 30
0.0
 10
-6.3727
 20
24.5614
 30
0.0
 10
-5.5712
 20
23.4571
 30
0.0
 10
-5.2035
 20
22.9504
 30
0.0
 10
-4.5486
 20
22.3936
 30
0.0
 10
-3.8274
 20
21.8767
 30
0.0
  0
SPLINE
  5
65
330
1F
100
AcDbEntity
  8
Layer 1
 62
   250
370
    20
100
AcDbSpline
210
0.0
220
0.0
230
1.0
 70
    11
 71
     3
 72
   101
 73
    97
 74
     0
 42
0.0000000001
 43
0.0000000001
 40
0.0
 40
0.0
 40
0.0
 40
0.0
 40
0.03125
 40
0.03125
 40
0.03125
 40
0.0625
 40
0.0625
 40
0.0625
 40
0.09375
 40
0.09375
 40
0.09375
 40
0.125
 40
0.125
 40
0.125
 40
0.15625
 40
0.15625
 40
0.15625
 40
0.1875
 40
0.1875
 40
0.1875
 40
0.21875
 40
0.21875
 40
0.21875
 40
0.25
 40
0.25
 40
0.25
 40
0.28125
 40
0.28125
 40
0.28125
 40
0.3125
 40
0.3125
 40
0.3125
 40
0.34375
 40
0.34375
 40
0.34375
 40
0.375
 40
0.375
 40
0.375
 40
0.40625
 40
0.40625
 40
0.40625
 40
0.4375
 40
0.4375
 40
0.4375
 40
0.46875
 40
0.46875
 40
0.46875
 40
0.5
 40
0.5
 40
0.5
 40
0.53125
 40
0.53125
 40
0.53125
 40
0.5625
 40
0.5625
 40
0.5625
 40
0.59375
 40
0.59375
 40
0.59375
 40
0.625
 40
0.625
 40
0.625
 40
0.65625
 40
0.65625
 40
0.65625
 40
0.6875
 40
0.6875
 40
0.6875
 40
0.71875
 40
0.71875
 40
0.71875
 40
0.75
 40
0.75
 40
0.75
 40
0.78125
 40
0.78125
 40
0.78125
 40
0.8125
 40
0.8125
 40
0.8125
 40
0.84375
 40
0.84375
 40
0.84375
 40
0.875
 40
0.875
 40
0.875
 40
0.90625
 40
0.90625
 40
0.90625
 40
0.9375
 40
0.9375
 40
0.9375
 40
0.96875
 40
0.96875
 40
0.96875
 40
1.0
 40
1.0
 40
1.0
 40
1.0
 10
-34.5192
 20
59.6439
 30
0.0
 10
-34.9312
 20
59.5278
 30
0.0
 10
-35.4074
 20
59.3101
 30
0.0
 10
-35.7753
 20
59.1206
 30
0.0
 10
-36.7895
 20
58.5981
 30
0.0
 10
-37.7095
 20
57.8851
 30
0.0
 10
-38.4502
 20
57.016
 30
0.0
 10
-41.2904
 20
53.6837
 30
0.0
 10
-40.7818
 20
48.9142
 30
0.0
 10
-39.5536
 20
45.0288
 30
0.0
 10
-37.4936
 20
38.512
 30
0.0
 10
-32.5836
 20
33.1574
 30
0.0
 10
-28.9763
 20
27.4662
 30
0.0
 10
-27.1419
 20
24.5721
 30
0.0
 10
-25.5778
 20
21.4986
 30
0.0
 10
-24.9141
 20
18.1116
 30
0.0
 10
-24.1565
 20
14.2459
 30
0.0
 10
-24.6914
 20
10.5347
 30
0.0
 10
-26.1624
 20
6.9028
 30
0.0
 10
-26.362
 20
6.41
 30
0.0
 10
-26.9107
 20
6.1598
 30
0.0
 10
-27.4124
 20
6.3318
 30
0.0
 10
-27.8453
 20
6.4788
 30
0.0
 10
-28.2835
 20
6.6485
 30
0.0
 10
-28.7029
 20
6.8329
 30
0.0
 10
-29.4266
 20
7.151
 30
0.0
 10
-30.4852
 20
7.6416
 30
0.0
 10
-30.4852
 20
8.5697
 30
0.0
 10
-30.4852
 20
8.8198
 30
0.0
 10
-30.377
 20
9.1302
 30
0.0
 10
-30.3126
 20
9.3759
 30
0.0
 10
-30.2117
 20
9.7612
 30
0.0
 10
-30.1312
 20
10.149
 30
0.0
 10
-30.0716
 20
10.5429
 30
0.0
 10
-29.8597
 20
11.9411
 30
0.0
 10
-29.904
 20
13.3793
 30
0.0
 10
-30.1233
 20
14.7735
 30
0.0
 10
-31.0344
 20
20.5681
 30
0.0
 10
-34.9652
 20
26.0187
 30
0.0
 10
-38.8903
 20
30.1784
 30
0.0
 10
-44.2637
 20
35.873
 30
0.0
 10
-48.4896
 20
43.7622
 30
0.0
 10
-48.3405
 20
51.7679
 30
0.0
 10
-48.2109
 20
58.7298
 30
0.0
 10
-44.6425
 20
64.4683
 30
0.0
 10
-37.7817
 20
66.4737
 30
0.0
 10
-34.5193
 20
67.4273
 30
0.0
 10
-31.0845
 20
67.4436
 30
0.0
 10
-27.8182
 20
66.5
 30
0.0
 10
-24.7127
 20
65.6028
 30
0.0
 10
-21.8854
 20
63.8707
 30
0.0
 10
-19.6896
 20
61.4967
 30
0.0
 10
-17.4345
 20
59.0587
 30
0.0
 10
-15.9419
 20
56.0502
 30
0.0
 10
-15.391
 20
52.7731
 30
0.0
 10
-14.7589
 20
49.0135
 30
0.0
 10
-15.4161
 20
45.2386
 30
0.0
 10
-16.9316
 20
41.7661
 30
0.0
 10
-16.9584
 20
41.7046
 30
0.0
 10
-16.9864
 20
41.6543
 30
0.0
 10
-17.0244
 20
41.5991
 30
0.0
 10
-17.7528
 20
40.5409
 30
0.0
 10
-19.0801
 20
39.4788
 30
0.0
 10
-20.1736
 20
38.8505
 30
0.0
 10
-23.0534
 20
37.1956
 30
0.0
 10
-26.2964
 20
37.0387
 30
0.0
 10
-29.4621
 20
37.9091
 30
0.0
 10
-29.5125
 20
37.9229
 30
0.0
 10
-29.5546
 20
37.9379
 30
0.0
 10
-29.6021
 20
37.959
 30
0.0
 10
-30.2743
 20
38.2566
 30
0.0
 10
-31.008
 20
38.7785
 30
0.0
 10
-31.5348
 20
39.2798
 30
0.0
 10
-32.7252
 20
40.4125
 30
0.0
 10
-33.3803
 20
41.8721
 30
0.0
 10
-33.1609
 20
43.5349
 30
0.0
 10
-32.8803
 20
45.6613
 30
0.0
 10
-30.8668
 20
47.1599
 30
0.0
 10
-28.8985
 20
47.6324
 30
0.0
 10
-26.6527
 20
48.1715
 30
0.0
 10
-24.4648
 20
47.491
 30
0.0
 10
-22.995
 20
45.7804
 30
0.0
 10
-22.7362
 20
45.8579
 30
0.0
 10
-22.4904
 20
45.9879
 30
0.0
 10
-22.5047
 20
46.1902
 30
0.0
 10
-22.5106
 20
46.2737
 30
0.0
 10
-22.5071
 20
46.3456
 30
0.0
 10
-22.4931
 20
46.4282
 30
0.0
 10
-22.3661
 20
47.1756
 30
0.0
 10
-22.3267
 20
48.0385
 30
0.0
 10
-22.3227
 20
48.7926
 30
0.0
 10
-22.3139
 20
50.4693
 30
0.0
 10
-22.5237
 20
52.2112
 30
0.0
 10
-23.0721
 20
53.8003
 30
0.0
 10
-24.8678
 20
59.0033
 30
0.0
 10
-29.4646
 20
60.1744
 30
0.0
 10
-34.5192
 20
59.6439
 30
0.0
  0
SPLINE
  5
66
330
1F
100
AcDbEntity
  8
Layer 1
 62
   250
370
    20
100
AcDbSpline
210
0.0
220
0.0
230
1.0
 70
    11
 71
     3
 72
    77
 73
    73
 74
     0
 42
0.0000000001
 43
0.0000000001
 40
0.0
 40
0.0
 40
0.0
 40
0.0
 40
0.0416666666666667
 40
0.0416666666666667
 40
0.0416666666666667
 40
0.0833333333333333
 40
0.0833333333333333
 40
0.0833333333333333
 40
0.125
 40
0.125
 40
0.125
 40
0.1666666666666667
 40
0.1666666666666667
 40
0.1666666666666667
 40
0.2083333333333333
 40
0.2083333333333333
 40
0.2083333333333333
 40
0.25
 40
0.25
 40
0.25
 40
0.2916666666666666
 40
0.2916666666666666
 40
0.2916666666666666
 40
0.3333333333333333
 40
0.3333333333333333
 40
0.3333333333333333
 40
0.375
 40
0.375
 40
0.375
 40
0.4166666666666666
 40
0.4166666666666666
 40
0.4166666666666666
 40
0.4583333333333333
 40
0.4583333333333333
 40
0.4583333333333333
 40
0.5
 40
0.5
 40
0.5
 40
0.5416666666666666
 40
0.5416666666666666
 40
0.5416666666666666
 40
0.5833333333333333
 40
0.5833333333333333
 40
0.5833333333333333
 40
0.625
 40
0.625
 40
0.625
 40
0.6666666666666666
 40
0.6666666666666666
 40
0.6666666666666666
 40
0.7083333333333333
 40
0.7083333333333333
 40
0.7083333333333333
 40
0.75
 40
0.75
 40
0.75
 40
0.7916666666666666
 40
0.7916666666666666
 40
0.7916666666666666
 40
0.8333333333333333
 40
0.8333333333333333
 40
0.8333333333333333
 40
0.875
 40
0.875
 40
0.875
 40
0.9166666666666666
 40
0.9166666666666666
 40
0.9166666666666666
 40
0.9583333333333333
 40
0.9583333333333333
 40
0.9583333333333333
 40
1.0
 40
1.0
 40
1.0
 40
1.0
 10
-49.5079
 20
4.6337
 30
0.0
 10
-49.5562
 20
4.5854
 30
0.0
 10
-49.6014
 20
4.5482
 30
0.0
 10
-49.658
 20
4.5102
 30
0.0
 10
-49.9894
 20
4.2877
 30
0.0
 10
-50.4196
 20
4.0882
 30
0.0
 10
-50.809
 20
4.003
 30
0.0
 10
-51.9939
 20
3.744
 30
0.0
 10
-52.8231
 20
4.509
 30
0.0
 10
-52.8231
 20
5.7129
 30
0.0
 10
-52.8231
 20
6.4424
 30
0.0
 10
-52.5571
 20
7.4087
 30
0.0
 10
-52.3297
 20
8.0966
 30
0.0
 10
-51.9306
 20
9.3045
 30
0.0
 10
-51.3653
 20
10.4807
 30
0.0
 10
-50.6682
 20
11.5446
 30
0.0
 10
-47.6266
 20
16.188
 30
0.0
 10
-38.7806
 20
15.0018
 30
0.0
 10
-37.4619
 20
9.4665
 30
0.0
 10
-37.4384
 20
8.0946
 30
0.0
 10
-37.5707
 20
6.6883
 30
0.0
 10
-37.7958
 20
5.3365
 30
0.0
 10
-37.9377
 20
4.4846
 30
0.0
 10
-38.1498
 20
3.3484
 30
0.0
 10
-38.4841
 20
2.5509
 30
0.0
 10
-38.8426
 20
1.6949
 30
0.0
 10
-39.437
 20
0.7906
 30
0.0
 10
-39.9926
 20
0.0528
 30
0.0
 10
-40.921
 20
-1.18
 30
0.0
 10
-42.0253
 20
-2.297
 30
0.0
 10
-43.2517
 20
-3.2339
 30
0.0
 10
-46.8798
 20
-6.0054
 30
0.0
 10
-51.1798
 20
-6.9224
 30
0.0
 10
-55.6725
 20
-6.2604
 30
0.0
 10
-58.5792
 20
-5.8321
 30
0.0
 10
-60.8938
 20
-4.0379
 30
0.0
 10
-62.5091
 20
-1.6385
 30
0.0
 10
-64.293
 20
1.0113
 30
0.0
 10
-65.1855
 20
4.2978
 30
0.0
 10
-65.4079
 20
7.4598
 30
0.0
 10
-65.9698
 20
15.4487
 30
0.0
 10
-62.535
 20
23.2105
 30
0.0
 10
-56.4078
 20
28.3325
 30
0.0
 10
-54.0943
 20
30.2665
 30
0.0
 10
-51.0386
 20
30.7536
 30
0.0
 10
-48.1588
 20
30.0813
 30
0.0
 10
-45.5535
 20
29.4731
 30
0.0
 10
-42.9639
 20
27.8591
 30
0.0
 10
-41.657
 20
25.4691
 30
0.0
 10
-41.2901
 20
24.798
 30
0.0
 10
-41.0321
 20
24.0755
 30
0.0
 10
-40.9101
 20
23.3199
 30
0.0
 10
-40.5881
 20
21.3248
 30
0.0
 10
-40.7148
 20
18.0657
 30
0.0
 10
-44.4909
 20
19.5734
 30
0.0
 10
-44.9941
 20
19.7742
 30
0.0
 10
-46.1587
 20
20.7924
 30
0.0
 10
-46.822
 20
21.8036
 30
0.0
 10
-47.7281
 20
23.1848
 30
0.0
 10
-49.1244
 20
23.2188
 30
0.0
 10
-50.6125
 20
22.7902
 30
0.0
 10
-54.0277
 20
21.8069
 30
0.0
 10
-56.135
 20
18.2016
 30
0.0
 10
-57.1662
 20
15.033
 30
0.0
 10
-58.2698
 20
11.6418
 30
0.0
 10
-58.6429
 20
7.2029
 30
0.0
 10
-57.4273
 20
3.8158
 30
0.0
 10
-56.4613
 20
1.1245
 30
0.0
 10
-53.8536
 20
-0.0229
 30
0.0
 10
-51.138
 20
0.3769
 30
0.0
 10
-43.0794
 20
1.5638
 30
0.0
 10
-46.654
 20
7.4898
 30
0.0
 10
-49.5079
 20
4.6337
 30
0.0
  0
SPLINE
  5
67
330
1F
100
AcDbEntity
  8
Layer 1
 62
   250
370
    20
100
AcDbSpline
210
0.0
220
0.0
230
1.0
 70
    11
 71
     3
 72
    50
 73
    46
 74
     0
 42
0.0000000001
 43
0.0000000001
 40
0.0
 40
0.0
 40
0.0
 40
0.0
 40
0.0666666666666667
 40
0.0666666666666667
 40
0.0666666666666667
 40
0.1333333333333333
 40
0.1333333333333333
 40
0.1333333333333333
 40
0.2
 40
0.2
 40
0.2
 40
0.2666666666666667
 40
0.2666666666666667
 40
0.2666666666666667
 40
0.3333333333333333
 40
0.3333333333333333
 40
0.3333333333333333
 40
0.4
 40
0.4
 40
0.4
 40
0.4666666666666667
 40
0.4666666666666667
 40
0.4666666666666667
 40
0.5333333333333333
 40
0.5333333333333333
 40
0.5333333333333333
 40
0.6
 40
0.6
 40
0.6
 40
0.6666666666666666
 40
0.6666666666666666
 40
0.6666666666666666
 40
0.7333333333333333
 40
0.7333333333333333
 40
0.7333333333333333
 40
0.8
 40
0.8
 40
0.8
 40
0.8666666666666667
 40
0.8666666666666667
 40
0.8666666666666667
 40
0.9333333333333333
 40
0.9333333333333333
 40
0.9333333333333333
 40
1.0
 40
1.0
 40
1.0
 40
1.0
 10
-10.6199
 20
6.8507
 30
0.0
 10
-10.1016
 20
6.112
 30
0.0
 10
-9.596
 20
5.3564
 30
0.0
 10
-9.1082
 20
4.5975
 30
0.0
 10
-8.6468
 20
3.8798
 30
0.0
 10
-7.4703
 20
2.1129
 30
0.0
 10
-7.4703
 20
1.2765
 30
0.0
 10
-7.4703
 20
1.031
 30
0.0
 10
-7.4317
 20
0.7471
 30
0.0
 10
-7.4046
 20
0.5022
 30
0.0
 10
-7.3592
 20
0.0932
 30
0.0
 10
-7.3089
 20
-0.3153
 30
0.0
 10
-7.2645
 20
-0.7245
 30
0.0
 10
-7.1901
 20
-1.4095
 30
0.0
 10
-6.9925
 20
-2.6477
 30
0.0
 10
-7.444
 20
-3.2189
 30
0.0
 10
-7.8567
 20
-3.7411
 30
0.0
 10
-8.5296
 20
-3.6912
 30
0.0
 10
-9.1095
 20
-3.5924
 30
0.0
 10
-9.6399
 20
-3.502
 30
0.0
 10
-10.179
 20
-3.3524
 30
0.0
 10
-10.6911
 20
-3.1889
 30
0.0
 10
-11.8161
 20
-2.8297
 30
0.0
 10
-13.182
 20
-2.2741
 30
0.0
 10
-14.1113
 20
-1.5537
 30
0.0
 10
-15.0372
 20
-0.836
 30
0.0
 10
-15.9581
 20
0.1421
 30
0.0
 10
-16.7207
 20
1.0375
 30
0.0
 10
-17.0647
 20
1.4415
 30
0.0
 10
-17.4081
 20
1.8656
 30
0.0
 10
-17.7068
 20
2.3045
 30
0.0
 10
-18.0108
 20
2.7513
 30
0.0
 10
-18.331
 20
3.28
 30
0.0
 10
-18.1406
 20
3.8427
 30
0.0
 10
-17.9488
 20
4.4095
 30
0.0
 10
-17.1964
 20
4.7427
 30
0.0
 10
-16.697
 20
4.9947
 30
0.0
 10
-16.0383
 20
5.3271
 30
0.0
 10
-15.3637
 20
5.6367
 30
0.0
 10
-14.6915
 20
5.9408
 30
0.0
 10
-13.7431
 20
6.3697
 30
0.0
 10
-12.7879
 20
6.789
 30
0.0
 10
-11.8301
 20
7.1966
 30
0.0
 10
-11.3908
 20
7.3835
 30
0.0
 10
-10.894
 20
7.2415
 30
0.0
 10
-10.6199
 20
6.8507
 30
0.0
  0
SPLINE
  5
68
330
1F
100
AcDbEntity
  8
Layer 1
 62
   250
370
    20
100
AcDbSpline
210
0.0
220
0.0
230
1.0
 70
    11
 71
     3
 72
    29
 73
    25
 74
     0
 42
0.0000000001
 43
0.0000000001
 40
0.0
 40
0.0
 40
0.0
 40
0.0
 40
0.125
 40
0.125
 40
0.125
 40
0.25
 40
0.25
 40
0.25
 40
0.375
 40
0.375
 40
0.375
 40
0.5
 40
0.5
 40
0.5
 40
0.625
 40
0.625
 40
0.625
 40
0.75
 40
0.75
 40
0.75
 40
0.875
 40
0.875
 40
0.875
 40
1.0
 40
1.0
 40
1.0
 40
1.0
 10
-16.2817
 20
13.2504
 30
0.0
 10
-16.2817
 20
13.2504
 30
0.0
 10
-16.0399
 20
12.7404
 30
0.0
 10
-16.8259
 20
12.1805
 30
0.0
 10
-17.614
 20
11.6193
 30
0.0
 10
-20.8856
 20
11.2105
 30
0.0
 10
-21.7332
 20
11.0572
 30
0.0
 10
-22.5819
 20
10.905
 30
0.0
 10
-21.4309
 20
9.2217
 30
0.0
 10
-21.1275
 20
8.7117
 30
0.0
 10
-20.8241
 20
8.1995
 30
0.0
 10
-20.0369
 20
7.2817
 30
0.0
 10
-19.6138
 20
7.384
 30
0.0
 10
-19.1883
 20
7.4861
 30
0.0
 10
-14.9482
 20
9.2717
 30
0.0
 10
-14.5855
 20
9.3739
 30
0.0
 10
-14.2216
 20
9.4773
 30
0.0
 10
-13.4949
 20
10.955
 30
0.0
 10
-13.6774
 20
11.566
 30
0.0
 10
-13.8578
 20
12.1805
 30
0.0
 10
-14.5239
 20
13.4049
 30
0.0
 10
-14.9482
 20
13.4049
 30
0.0
 10
-15.3726
 20
13.4049
 30
0.0
 10
-16.2817
 20
13.2504
 30
0.0
 10
-16.2817
 20
13.2504
 30
0.0
  0
SPLINE
  5
69
330
1F
100
AcDbEntity
  8
Layer 1
 62
   250
370
    20
100
AcDbSpline
210
0.0
220
0.0
230
1.0
 70
    11
 71
     3
 72
    41
 73
    37
 74
     0
 42
0.0000000001
 43
0.0000000001
 40
0.0
 40
0.0
 40
0.0
 40
0.0
 40
0.0833333333333333
 40
0.0833333333333333
 40
0.0833333333333333
 40
0.1666666666666667
 40
0.1666666666666667
 40
0.1666666666666667
 40
0.25
 40
0.25
 40
0.25
 40
0.3333333333333333
 40
0.3333333333333333
 40
0.3333333333333333
 40
0.4166666666666666
 40
0.4166666666666666
 40
0.4166666666666666
 40
0.5
 40
0.5
 40
0.5
 40
0.5833333333333333
 40
0.5833333333333333
 40
0.5833333333333333
 40
0.6666666666666666
 40
0.6666666666666666
 40
0.6666666666666666
 40
0.75
 40
0.75
 40
0.75
 40
0.8333333333333333
 40
0.8333333333333333
 40
0.8333333333333333
 40
0.9166666666666666
 40
0.9166666666666666
 40
0.9166666666666666
 40
1.0
 40
1.0
 40
1.0
 40
1.0
 10
24.2146
 20
-0.0466
 30
0.0
 10
24.2146
 20
-0.0466
 30
0.0
 10
36.1941
 20
0.7644
 30
0.0
 10
37.2198
 20
-7.2283
 30
0.0
 10
38.1949
 20
-14.8202
 30
0.0
 10
26.09
 20
-18.7092
 30
0.0
 10
18.939
 20
-18.432
 30
0.0
 10
17.395
 20
-18.3719
 30
0.0
 10
16.4168
 20
-19.2079
 30
0.0
 10
17.626
 20
-20.0392
 30
0.0
 10
18.7112
 20
-20.7877
 30
0.0
 10
34.96
 20
-31.7563
 30
0.0
 10
26.1872
 20
-48.4744
 30
0.0
 10
17.4156
 20
-65.1914
 30
0.0
 10
-19.7528
 20
-60.622
 30
0.0
 10
-18.252
 20
-27.8684
 30
0.0
 10
-18.252
 20
-27.8684
 30
0.0
 10
-17.2306
 20
-16.3728
 30
0.0
 10
-14.3272
 20
-10.3723
 30
0.0
 10
-13.7452
 20
-7.4487
 30
0.0
 10
-15.2633
 20
-6.9887
 30
0.0
 10
-17.1334
 20
-9.5852
 30
0.0
 10
-21.1079
 20
-15.0938
 30
0.0
 10
-29.3602
 20
-32.891
 30
0.0
 10
-18.9948
 20
-49.5557
 30
0.0
 10
2.8653
 20
-84.7048
 30
0.0
 10
57.2649
 20
-48.6846
 30
0.0
 10
34.3628
 20
-22.9606
 30
0.0
 10
34.3628
 20
-22.9606
 30
0.0
 10
47.1436
 20
-15.5085
 30
0.0
 10
43.1961
 20
-3.378
 30
0.0
 10
43.1961
 20
-3.378
 30
0.0
 10
39.7431
 20
6.2595
 30
0.0
 10
25.4368
 20
2.1058
 30
0.0
 10
25.4368
 20
2.1058
 30
0.0
 10
21.7766
 20
1.2119
 30
0.0
 10
24.2146
 20
-0.0466
 30
0.0
  0
SPLINE
  5
6A
330
1F
100
AcDbEntity
  8
Layer 1
 62
   250
370
    20
100
AcDbSpline
210
0.0
220
0.0
230
1.0
 70
    11
 71
     3
 72
    89
 73
    85
 74
     0
 42
0.0000000001
 43
0.0000000001
 40
0.0
 40
0.0
 40
0.0
 40
0.0
 40
0.0357142857142857
 40
0.0357142857142857
 40
0.0357142857142857
 40
0.0714285714285714
 40
0.0714285714285714
 40
0.0714285714285714
 40
0.1071428571428571
 40
0.1071428571428571
 40
0.1071428571428571
 40
0.1428571428571428
 40
0.1428571428571428
 40
0.1428571428571428
 40
0.1785714285714285
 40
0.1785714285714285
 40
0.1785714285714285
 40
0.2142857142857143
 40
0.2142857142857143
 40
0.2142857142857143
 40
0.25
 40
0.25
 40
0.25
 40
0.2857142857142857
 40
0.2857142857142857
 40
0.2857142857142857
 40
0.3214285714285714
 40
0.3214285714285714
 40
0.3214285714285714
 40
0.3571428571428571
 40
0.3571428571428571
 40
0.3571428571428571
 40
0.3928571428571428
 40
0.3928571428571428
 40
0.3928571428571428
 40
0.4285714285714285
 40
0.4285714285714285
 40
0.4285714285714285
 40
0.4642857142857142
 40
0.4642857142857142
 40
0.4642857142857142
 40
0.5
 40
0.5
 40
0.5
 40
0.5357142857142857
 40
0.5357142857142857
 40
0.5357142857142857
 40
0.5714285714285714
 40
0.5714285714285714
 40
0.5714285714285714
 40
0.6071428571428571
 40
0.6071428571428571
 40
0.6071428571428571
 40
0.6428571428571428
 40
0.6428571428571428
 40
0.6428571428571428
 40
0.6785714285714285
 40
0.6785714285714285
 40
0.6785714285714285
 40
0.7142857142857142
 40
0.7142857142857142
 40
0.7142857142857142
 40
0.75
 40
0.75
 40
0.75
 40
0.7857142857142857
 40
0.7857142857142857
 40
0.7857142857142857
 40
0.8214285714285714
 40
0.8214285714285714
 40
0.8214285714285714
 40
0.8571428571428571
 40
0.8571428571428571
 40
0.8571428571428571
 40
0.8928571428571428
 40
0.8928571428571428
 40
0.8928571428571428
 40
0.9285714285714285
 40
0.9285714285714285
 40
0.9285714285714285
 40
0.9642857142857142
 40
0.9642857142857142
 40
0.9642857142857142
 40
1.0
 40
1.0
 40
1.0
 40
1.0
 10
-37.374
 20
-35.8213
 30
0.0
 10
-36.3285
 20
-32.3853
 30
0.0
 10
-36.1545
 20
-28.673
 30
0.0
 10
-37.8288
 20
-25.4025
 30
0.0
 10
-39.2119
 20
-22.701
 30
0.0
 10
-41.6241
 20
-20.7837
 30
0.0
 10
-44.4361
 20
-19.7184
 30
0.0
 10
-50.5135
 20
-17.4161
 30
0.0
 10
-57.7742
 20
-19.1629
 30
0.0
 10
-61.7293
 20
-24.4375
 30
0.0
 10
-65.784
 20
-29.845
 30
0.0
 10
-66.6216
 20
-36.5657
 30
0.0
 10
-65.0403
 20
-43.0255
 30
0.0
 10
-63.4557
 20
-49.4992
 30
0.0
 10
-59.4784
 20
-55.5614
 30
0.0
 10
-54.1479
 20
-59.5709
 30
0.0
 10
-45.2047
 20
-66.2977
 30
0.0
 10
-33.2267
 20
-69.5374
 30
0.0
 10
-22.1382
 20
-69.631
 30
0.0
 10
-22.0539
 20
-69.6317
 30
0.0
 10
-21.982
 20
-69.641
 30
0.0
 10
-21.9011
 20
-69.6616
 30
0.0
 10
-21.4001
 20
-69.7879
 30
0.0
 10
-20.8242
 20
-70.0361
 30
0.0
 10
-20.4154
 20
-70.354
 30
0.0
 10
-19.9582
 20
-70.7094
 30
0.0
 10
-19.6436
 20
-71.2005
 30
0.0
 10
-19.6464
 20
-71.7936
 30
0.0
 10
-19.6497
 20
-72.5035
 30
0.0
 10
-20.102
 20
-73.0649
 30
0.0
 10
-20.6314
 20
-73.487
 30
0.0
 10
-21.3974
 20
-74.0978
 30
0.0
 10
-23.8991
 20
-74.2796
 30
0.0
 10
-24.8549
 20
-74.3461
 30
0.0
 10
-27.5493
 20
-74.5337
 30
0.0
 10
-30.3224
 20
-74.4707
 30
0.0
 10
-33.013
 20
-74.2625
 30
0.0
 10
-40.5926
 20
-73.6758
 30
0.0
 10
-48.4147
 20
-71.7947
 30
0.0
 10
-55.1759
 20
-68.2669
 30
0.0
 10
-62.6965
 20
-64.3428
 30
0.0
 10
-68.725
 20
-57.8093
 30
0.0
 10
-72.3074
 20
-50.1453
 30
0.0
 10
-74.0193
 20
-46.4831
 30
0.0
 10
-75.1811
 20
-42.5382
 30
0.0
 10
-75.6248
 20
-38.5164
 30
0.0
 10
-76.0539
 20
-34.6277
 30
0.0
 10
-75.8078
 20
-30.6693
 30
0.0
 10
-74.7274
 20
-26.9012
 30
0.0
 10
-72.8293
 20
-20.2818
 30
0.0
 10
-68.2793
 20
-15.2759
 30
0.0
 10
-61.9068
 20
-12.732
 30
0.0
 10
-55.0719
 20
-10.0036
 30
0.0
 10
-47.3582
 20
-10.545
 30
0.0
 10
-40.5163
 20
-12.9465
 30
0.0
 10
-40.5029
 20
-12.9513
 30
0.0
 10
-40.4916
 20
-12.9555
 30
0.0
 10
-40.4783
 20
-12.9608
 30
0.0
 10
-39.8584
 20
-13.207
 30
0.0
 10
-39.2116
 20
-13.5523
 30
0.0
 10
-38.6361
 20
-13.8842
 30
0.0
 10
-37.2611
 20
-14.6771
 30
0.0
 10
-35.962
 20
-15.6392
 30
0.0
 10
-34.8139
 20
-16.7353
 30
0.0
 10
-31.2293
 20
-20.1574
 30
0.0
 10
-29.4789
 20
-24.5478
 30
0.0
 10
-29.8509
 20
-29.5174
 30
0.0
 10
-29.8518
 20
-29.5301
 30
0.0
 10
-29.8528
 20
-29.5409
 30
0.0
 10
-29.8543
 20
-29.5536
 30
0.0
 10
-29.9577
 20
-30.4819
 30
0.0
 10
-30.1795
 20
-31.4861
 30
0.0
 10
-30.4265
 20
-32.3828
 30
0.0
 10
-30.9085
 20
-34.1328
 30
0.0
 10
-31.6693
 20
-36.0015
 30
0.0
 10
-32.861
 20
-37.395
 30
0.0
 10
-33.567
 20
-38.2208
 30
0.0
 10
-34.7299
 20
-38.9668
 30
0.0
 10
-35.8586
 20
-38.8664
 30
0.0
 10
-36.5302
 20
-38.8067
 30
0.0
 10
-37.0972
 20
-38.4376
 30
0.0
 10
-37.3748
 20
-37.815
 30
0.0
 10
-37.6558
 20
-37.1851
 30
0.0
 10
-37.5689
 20
-36.4619
 30
0.0
 10
-37.374
 20
-35.8213
 30
0.0
  0
SPLINE
  5
6B
330
1F
100
AcDbEntity
  8
Layer 1
 62
   250
370
    20
100
AcDbSpline
210
0.0
220
0.0
230
1.0
 70
    11
 71
     3
 72
    92
 73
    88
 74
     0
 42
0.0000000001
 43
0.0000000001
 40
0.0
 40
0.0
 40
0.0
 40
0.0
 40
0.0344827586206897
 40
0.0344827586206897
 40
0.0344827586206897
 40
0.0689655172413793
 40
0.0689655172413793
 40
0.0689655172413793
 40
0.103448275862069
 40
0.103448275862069
 40
0.103448275862069
 40
0.1379310344827586
 40
0.1379310344827586
 40
0.1379310344827586
 40
0.1724137931034483
 40
0.1724137931034483
 40
0.1724137931034483
 40
0.2068965517241379
 40
0.2068965517241379
 40
0.2068965517241379
 40
0.2413793103448276
 40
0.2413793103448276
 40
0.2413793103448276
 40
0.2758620689655172
 40
0.2758620689655172
 40
0.2758620689655172
 40
0.3103448275862069
 40
0.3103448275862069
 40
0.3103448275862069
 40
0.3448275862068966
 40
0.3448275862068966
 40
0.3448275862068966
 40
0.3793103448275862
 40
0.3793103448275862
 40
0.3793103448275862
 40
0.4137931034482759
 40
0.4137931034482759
 40
0.4137931034482759
 40
0.4482758620689655
 40
0.4482758620689655
 40
0.4482758620689655
 40
0.4827586206896551
 40
0.4827586206896551
 40
0.4827586206896551
 40
0.5172413793103449
 40
0.5172413793103449
 40
0.5172413793103449
 40
0.5517241379310345
 40
0.5517241379310345
 40
0.5517241379310345
 40
0.5862068965517241
 40
0.5862068965517241
 40
0.5862068965517241
 40
0.6206896551724138
 40
0.6206896551724138
 40
0.6206896551724138
 40
0.6551724137931034
 40
0.6551724137931034
 40
0.6551724137931034
 40
0.6896551724137931
 40
0.6896551724137931
 40
0.6896551724137931
 40
0.7241379310344828
 40
0.7241379310344828
 40
0.7241379310344828
 40
0.7586206896551724
 40
0.7586206896551724
 40
0.7586206896551724
 40
0.7931034482758621
 40
0.7931034482758621
 40
0.7931034482758621
 40
0.8275862068965517
 40
0.8275862068965517
 40
0.8275862068965517
 40
0.8620689655172413
 40
0.8620689655172413
 40
0.8620689655172413
 40
0.896551724137931
 40
0.896551724137931
 40
0.896551724137931
 40
0.9310344827586207
 40
0.9310344827586207
 40
0.9310344827586207
 40
0.9655172413793103
 40
0.9655172413793103
 40
0.9655172413793103
 40
1.0
 40
1.0
 40
1.0
 40
1.0
 10
46.6822
 20
-27.7512
 30
0.0
 10
45.5305
 20
-27.5707
 30
0.0
 10
43.4999
 20
-27.218
 30
0.0
 10
42.6072
 20
-26.4067
 30
0.0
 10
42.1271
 20
-25.9704
 30
0.0
 10
41.9133
 20
-25.3581
 30
0.0
 10
42.1296
 20
-24.7337
 30
0.0
 10
42.2929
 20
-24.2623
 30
0.0
 10
42.6634
 20
-23.9083
 30
0.0
 10
43.0666
 20
-23.634
 30
0.0
 10
44.4703
 20
-22.6792
 30
0.0
 10
47.2748
 20
-22.004
 30
0.0
 10
48.9776
 20
-21.7806
 30
0.0
 10
48.9903
 20
-21.7789
 30
0.0
 10
49.0011
 20
-21.7777
 30
0.0
 10
49.0139
 20
-21.7765
 30
0.0
 10
56.3826
 20
-21.0822
 30
0.0
 10
63.1721
 20
-24.1345
 30
0.0
 10
67.9328
 20
-29.6879
 30
0.0
 10
70.2234
 20
-32.3601
 30
0.0
 10
71.9493
 20
-35.5102
 30
0.0
 10
73.0011
 20
-38.8673
 30
0.0
 10
74.078
 20
-42.3047
 30
0.0
 10
74.4432
 20
-45.9586
 30
0.0
 10
74.0142
 20
-49.5376
 30
0.0
 10
72.9832
 20
-58.1383
 30
0.0
 10
67.6935
 20
-64.8385
 30
0.0
 10
60.4145
 20
-69.2396
 30
0.0
 10
49.1301
 20
-76.0625
 30
0.0
 10
33.8541
 20
-77.207
 30
0.0
 10
21.0001
 20
-76.6058
 30
0.0
 10
13.6831
 20
-76.2636
 30
0.0
 10
4.2805
 20
-75.7465
 30
0.0
 10
-2.592
 20
-78.5664
 30
0.0
 10
-5.4129
 20
-79.7239
 30
0.0
 10
-5.9279
 20
-81.9735
 30
0.0
 10
-5.4062
 20
-84.7461
 30
0.0
 10
-5.1556
 20
-86.0783
 30
0.0
 10
-4.6919
 20
-87.3858
 30
0.0
 10
-4.1835
 20
-88.6391
 30
0.0
 10
-3.963
 20
-89.1828
 30
0.0
 10
-3.7301
 20
-89.7206
 30
0.0
 10
-3.5012
 20
-90.2607
 30
0.0
 10
-3.3273
 20
-90.6711
 30
0.0
 10
-3.1417
 20
-91.1004
 30
0.0
 10
-3.011
 20
-91.5264
 30
0.0
 10
-2.5964
 20
-92.8787
 30
0.0
 10
-2.9541
 20
-94.1726
 30
0.0
 10
-4.3872
 20
-94.6049
 30
0.0
 10
-4.9041
 20
-94.7608
 30
0.0
 10
-5.581
 20
-94.7827
 30
0.0
 10
-6.117
 20
-94.6856
 30
0.0
 10
-6.38
 20
-94.6379
 30
0.0
 10
-6.59
 20
-94.5062
 30
0.0
 10
-6.7473
 20
-94.29
 30
0.0
 10
-8.7923
 20
-91.4797
 30
0.0
 10
-10.8804
 20
-88.054
 30
0.0
 10
-11.633
 20
-84.6206
 30
0.0
 10
-12.1824
 20
-82.1148
 30
0.0
 10
-12.0005
 20
-79.6369
 30
0.0
 10
-10.6119
 20
-77.4293
 30
0.0
 10
-7.8407
 20
-73.0235
 30
0.0
 10
-1.1455
 20
-71.262
 30
0.0
 10
3.6401
 20
-70.3566
 30
0.0
 10
7.0323
 20
-69.7147
 30
0.0
 10
10.4937
 20
-69.3256
 30
0.0
 10
13.9315
 20
-69.023
 30
0.0
 10
17.5305
 20
-68.7061
 30
0.0
 10
21.138
 20
-68.4906
 30
0.0
 10
24.7437
 20
-68.2671
 30
0.0
 10
28.1063
 20
-68.0586
 30
0.0
 10
31.4786
 20
-67.8515
 30
0.0
 10
34.8306
 20
-67.5113
 30
0.0
 10
37.4939
 20
-67.241
 30
0.0
 10
40.2967
 20
-66.8917
 30
0.0
 10
42.8869
 20
-66.2046
 30
0.0
 10
48.674
 20
-64.6696
 30
0.0
 10
54.4964
 20
-61.9303
 30
0.0
 10
58.4766
 20
-57.3286
 30
0.0
 10
61.4007
 20
-53.9478
 30
0.0
 10
63.1011
 20
-49.7488
 30
0.0
 10
63.0027
 20
-45.2526
 30
0.0
 10
62.9115
 20
-41.0876
 30
0.0
 10
61.2873
 20
-37.119
 30
0.0
 10
58.5193
 20
-34.0122
 30
0.0
 10
55.4348
 20
-30.5503
 30
0.0
 10
51.2374
 20
-28.4653
 30
0.0
 10
46.6822
 20
-27.7512
 30
0.0
  0
SPLINE
  5
6C
330
1F
100
AcDbEntity
  8
Layer 1
 62
   250
370
    20
100
AcDbSpline
210
0.0
220
0.0
230
1.0
 70
    11
 71
     3
 72
    56
 73
    52
 74
     0
 42
0.0000000001
 43
0.0000000001
 40
0.0
 40
0.0
 40
0.0
 40
0.0
 40
0.0588235294117647
 40
0.0588235294117647
 40
0.0588235294117647
 40
0.1176470588235294
 40
0.1176470588235294
 40
0.1176470588235294
 40
0.1764705882352941
 40
0.1764705882352941
 40
0.1764705882352941
 40
0.2352941176470588
 40
0.2352941176470588
 40
0.2352941176470588
 40
0.2941176470588235
 40
0.2941176470588235
 40
0.2941176470588235
 40
0.3529411764705882
 40
0.3529411764705882
 40
0.3529411764705882
 40
0.4117647058823529
 40
0.4117647058823529
 40
0.4117647058823529
 40
0.4705882352941176
 40
0.4705882352941176
 40
0.4705882352941176
 40
0.5294117647058824
 40
0.5294117647058824
 40
0.5294117647058824
 40
0.5882352941176471
 40
0.5882352941176471
 40
0.5882352941176471
 40
0.6470588235294118
 40
0.6470588235294118
 40
0.6470588235294118
 40
0.7058823529411764
 40
0.7058823529411764
 40
0.7058823529411764
 40
0.7647058823529411
 40
0.7647058823529411
 40
0.7647058823529411
 40
0.8235294117647058
 40
0.8235294117647058
 40
0.8235294117647058
 40
0.8823529411764706
 40
0.8823529411764706
 40
0.8823529411764706
 40
0.9411764705882353
 40
0.9411764705882353
 40
0.9411764705882353
 40
1.0
 40
1.0
 40
1.0
 40
1.0
 10
55.0554
 20
9.6566
 30
0.0
 10
54.6956
 20
8.3551
 30
0.0
 10
54.5414
 20
6.6515
 30
0.0
 10
54.5897
 20
5.3169
 30
0.0
 10
54.6773
 20
2.8977
 30
0.0
 10
55.4168
 20
0.4986
 30
0.0
 10
57.6102
 20
-0.8109
 30
0.0
 10
59.8658
 20
-2.1575
 30
0.0
 10
62.2219
 20
-2.5639
 30
0.0
 10
64.7873
 20
-2.0745
 30
0.0
 10
67.3098
 20
-1.5933
 30
0.0
 10
69.7302
 20
-0.313
 30
0.0
 10
71.879
 20
1.054
 30
0.0
 10
71.9747
 20
1.1149
 30
0.0
 10
72.0648
 20
1.1535
 30
0.0
 10
72.1748
 20
1.1808
 30
0.0
 10
72.7043
 20
1.3124
 30
0.0
 10
73.3707
 20
1.3351
 30
0.0
 10
73.8992
 20
1.218
 30
0.0
 10
75.3181
 20
0.9038
 30
0.0
 10
75.8585
 20
-0.2846
 30
0.0
 10
75.6323
 20
-1.6665
 30
0.0
 10
75.434
 20
-2.8773
 30
0.0
 10
73.9317
 20
-4.0401
 30
0.0
 10
72.9802
 20
-4.683
 30
0.0
 10
71.3438
 20
-5.7887
 30
0.0
 10
69.4202
 20
-6.6501
 30
0.0
 10
67.5384
 20
-7.2358
 30
0.0
 10
62.6689
 20
-8.7512
 30
0.0
 10
57.3303
 20
-8.6402
 30
0.0
 10
52.9617
 20
-5.7694
 30
0.0
 10
52.4764
 20
-5.4506
 30
0.0
 10
51.9422
 20
-4.9485
 30
0.0
 10
51.5421
 20
-4.5355
 30
0.0
 10
50.5643
 20
-3.5258
 30
0.0
 10
49.7529
 20
-2.3441
 30
0.0
 10
49.1806
 20
-1.0596
 30
0.0
 10
47.1387
 20
3.5233
 30
0.0
 10
48.5326
 20
8.2906
 30
0.0
 10
51.1164
 20
12.3393
 30
0.0
 10
51.2839
 20
12.6017
 30
0.0
 10
51.5355
 20
12.759
 30
0.0
 10
51.8448
 20
12.7947
 30
0.0
 10
52.3361
 20
12.8514
 30
0.0
 10
52.9326
 20
12.7677
 30
0.0
 10
53.3894
 20
12.5921
 30
0.0
 10
54.5439
 20
12.1482
 30
0.0
 10
55.0918
 20
11.1311
 30
0.0
 10
55.0918
 20
9.9238
 30
0.0
 10
55.0918
 20
9.8289
 30
0.0
 10
55.0808
 20
9.748
 30
0.0
 10
55.0554
 20
9.6566
 30
0.0
  0
SPLINE
  5
6D
330
1F
100
AcDbEntity
  8
Layer 1
 62
   250
370
    20
100
AcDbSpline
210
0.0
220
0.0
230
1.0
 70
    11
 71
     3
 72
    29
 73
    25
 74
     0
 42
0.0000000001
 43
0.0000000001
 40
0.0
 40
0.0
 40
0.0
 40
0.0
 40
0.125
 40
0.125
 40
0.125
 40
0.25
 40
0.25
 40
0.25
 40
0.375
 40
0.375
 40
0.375
 40
0.5
 40
0.5
 40
0.5
 40
0.625
 40
0.625
 40
0.625
 40
0.75
 40
0.75
 40
0.75
 40
0.875
 40
0.875
 40
0.875
 40
1.0
 40
1.0
 40
1.0
 40
1.0
 10
66.6057
 20
17.7046
 30
0.0
 10
68.5631
 20
17.7046
 30
0.0
 10
70.5226
 20
17.0714
 30
0.0
 10
72.0289
 20
15.8034
 30
0.0
 10
73.4605
 20
14.5983
 30
0.0
 10
74.3647
 20
12.9033
 30
0.0
 10
74.3647
 20
11.0141
 30
0.0
 10
74.3647
 20
9.125
 30
0.0
 10
73.4604
 20
7.4297
 30
0.0
 10
72.029
 20
6.2245
 30
0.0
 10
70.5227
 20
4.9562
 30
0.0
 10
68.5633
 20
4.3226
 30
0.0
 10
66.6057
 20
4.3226
 30
0.0
 10
64.648
 20
4.3226
 30
0.0
 10
62.6886
 20
4.9562
 30
0.0
 10
61.1823
 20
6.2245
 30
0.0
 10
59.7509
 20
7.4297
 30
0.0
 10
58.8466
 20
9.1249
 30
0.0
 10
58.8466
 20
11.0141
 30
0.0
 10
58.8466
 20
12.9033
 30
0.0
 10
59.7508
 20
14.5983
 30
0.0
 10
61.1824
 20
15.8034
 30
0.0
 10
62.6888
 20
17.0714
 30
0.0
 10
64.6482
 20
17.7046
 30
0.0
 10
66.6057
 20
17.7046
 30
0.0
  0
SPLINE
  5
6E
330
1F
100
AcDbEntity
  8
Layer 1
 62
   250
370
    20
100
AcDbSpline
210
0.0
220
0.0
230
1.0
 70
    11
 71
     3
 72
    83
 73
    79
 74
     0
 42
0.0000000001
 43
0.0000000001
 40
0.0
 40
0.0
 40
0.0
 40
0.0
 40
0.0384615384615385
 40
0.0384615384615385
 40
0.0384615384615385
 40
0.0769230769230769
 40
0.0769230769230769
 40
0.0769230769230769
 40
0.1153846153846154
 40
0.1153846153846154
 40
0.1153846153846154
 40
0.1538461538461539
 40
0.1538461538461539
 40
0.1538461538461539
 40
0.1923076923076923
 40
0.1923076923076923
 40
0.1923076923076923
 40
0.2307692307692308
 40
0.2307692307692308
 40
0.2307692307692308
 40
0.2692307692307693
 40
0.2692307692307693
 40
0.2692307692307693
 40
0.3076923076923077
 40
0.3076923076923077
 40
0.3076923076923077
 40
0.3461538461538461
 40
0.3461538461538461
 40
0.3461538461538461
 40
0.3846153846153846
 40
0.3846153846153846
 40
0.3846153846153846
 40
0.4230769230769231
 40
0.4230769230769231
 40
0.4230769230769231
 40
0.4615384615384616
 40
0.4615384615384616
 40
0.4615384615384616
 40
0.5
 40
0.5
 40
0.5
 40
0.5384615384615385
 40
0.5384615384615385
 40
0.5384615384615385
 40
0.576923076923077
 40
0.576923076923077
 40
0.576923076923077
 40
0.6153846153846154
 40
0.6153846153846154
 40
0.6153846153846154
 40
0.6538461538461539
 40
0.6538461538461539
 40
0.6538461538461539
 40
0.6923076923076923
 40
0.6923076923076923
 40
0.6923076923076923
 40
0.7307692307692308
 40
0.7307692307692308
 40
0.7307692307692308
 40
0.7692307692307693
 40
0.7692307692307693
 40
0.7692307692307693
 40
0.8076923076923077
 40
0.8076923076923077
 40
0.8076923076923077
 40
0.8461538461538463
 40
0.8461538461538463
 40
0.8461538461538463
 40
0.8846153846153847
 40
0.8846153846153847
 40
0.8846153846153847
 40
0.9230769230769231
 40
0.9230769230769231
 40
0.9230769230769231
 40
0.9615384615384616
 40
0.9615384615384616
 40
0.9615384615384616
 40
1.0
 40
1.0
 40
1.0
 40
1.0
 10
31.9479
 20
40.2257
 30
0.0
 10
30.7943
 20
40.1426
 30
0.0
 10
29.5771
 20
40.4761
 30
0.0
 10
29.2304
 20
41.7182
 30
0.0
 10
29.0992
 20
42.1882
 30
0.0
 10
29.1342
 20
42.765
 30
0.0
 10
29.3016
 20
43.2254
 30
0.0
 10
29.3464
 20
43.3486
 30
0.0
 10
29.4046
 20
43.4466
 30
0.0
 10
29.4912
 20
43.5449
 30
0.0
 10
31.3926
 20
45.7021
 30
0.0
 10
33.8703
 20
47.2794
 30
0.0
 10
36.5347
 20
48.3242
 30
0.0
 10
37.6982
 20
48.7804
 30
0.0
 10
39.1347
 20
49.2355
 30
0.0
 10
40.3819
 20
49.4182
 30
0.0
 10
40.4232
 20
49.4243
 30
0.0
 10
40.4588
 20
49.4274
 30
0.0
 10
40.5005
 20
49.4285
 30
0.0
 10
46.2149
 20
49.5786
 30
0.0
 10
51.9649
 20
47.6787
 30
0.0
 10
54.935
 20
42.4821
 30
0.0
 10
56.9636
 20
38.9327
 30
0.0
 10
57.3097
 20
33.9985
 30
0.0
 10
54.7587
 20
30.6075
 30
0.0
 10
54.0922
 20
29.7213
 30
0.0
 10
53.2233
 20
28.8963
 30
0.0
 10
52.3944
 20
28.1628
 30
0.0
 10
51.3025
 20
27.1967
 30
0.0
 10
50.1459
 20
26.2898
 30
0.0
 10
48.9787
 20
25.4167
 30
0.0
 10
46.253
 20
23.3779
 30
0.0
 10
43.3958
 20
21.4729
 30
0.0
 10
40.5285
 20
19.6396
 30
0.0
 10
37.9416
 20
17.9857
 30
0.0
 10
35.3176
 20
16.3785
 30
0.0
 10
32.6665
 20
14.8297
 30
0.0
 10
31.7818
 20
14.3128
 30
0.0
 10
30.8927
 20
13.8004
 30
0.0
 10
29.9953
 20
13.3059
 30
0.0
 10
29.6
 20
13.0881
 30
0.0
 10
29.0109
 20
12.7358
 30
0.0
 10
28.5878
 20
12.5933
 30
0.0
 10
26.8568
 20
12.0103
 30
0.0
 10
25.7787
 20
13.2168
 30
0.0
 10
25.7787
 20
14.8766
 30
0.0
 10
25.7787
 20
15.5025
 30
0.0
 10
26.3386
 20
15.9912
 30
0.0
 10
26.7729
 20
16.3716
 30
0.0
 10
27.3507
 20
16.8778
 30
0.0
 10
27.9738
 20
17.3538
 30
0.0
 10
28.5861
 20
17.8175
 30
0.0
 10
30.4394
 20
19.2212
 30
0.0
 10
32.3417
 20
20.5728
 30
0.0
 10
34.2283
 20
21.9318
 30
0.0
 10
36.3736
 20
23.4771
 30
0.0
 10
38.5208
 20
25.0246
 30
0.0
 10
40.6283
 20
26.6211
 30
0.0
 10
41.547
 20
27.3171
 30
0.0
 10
42.4603
 20
28.0234
 30
0.0
 10
43.3522
 20
28.7534
 30
0.0
 10
44.0273
 20
29.3059
 30
0.0
 10
44.709
 20
29.8805
 30
0.0
 10
45.3315
 20
30.4921
 30
0.0
 10
46.9489
 20
32.081
 30
0.0
 10
48.3251
 20
34.3462
 30
0.0
 10
48.1841
 20
36.6926
 30
0.0
 10
48.0349
 20
39.1743
 30
0.0
 10
46.2278
 20
40.7893
 30
0.0
 10
44.0725
 20
41.7378
 30
0.0
 10
41.5274
 20
42.8579
 30
0.0
 10
38.7668
 20
42.7913
 30
0.0
 10
36.1388
 20
42.0176
 30
0.0
 10
34.9606
 20
41.6707
 30
0.0
 10
33.4645
 20
41.0684
 30
0.0
 10
32.4242
 20
40.3867
 30
0.0
 10
32.2752
 20
40.289
 30
0.0
 10
32.1257
 20
40.2385
 30
0.0
 10
31.9479
 20
40.2257
 30
0.0
  0
SPLINE
  5
6F
330
1F
100
AcDbEntity
  8
Layer 1
 62
   250
370
    20
100
AcDbSpline
210
0.0
220
0.0
230
1.0
 70
    11
 71
     3
 72
    29
 73
    25
 74
     0
 42
0.0000000001
 43
0.0000000001
 40
0.0
 40
0.0
 40
0.0
 40
0.0
 40
0.125
 40
0.125
 40
0.125
 40
0.25
 40
0.25
 40
0.25
 40
0.375
 40
0.375
 40
0.375
 40
0.5
 40
0.5
 40
0.5
 40
0.625
 40
0.625
 40
0.625
 40
0.75
 40
0.75
 40
0.75
 40
0.875
 40
0.875
 40
0.875
 40
1.0
 40
1.0
 40
1.0
 40
1.0
 10
-12.2401
 20
88.5378
 30
0.0
 10
-11.0952
 20
87.2529
 30
0.0
 10
-15.8297
 20
84.0201
 30
0.0
 10
-16.5862
 20
81.794
 30
0.0
 10
-17.8032
 20
78.2037
 30
0.0
 10
-16.8887
 20
72.2399
 30
0.0
 10
-10.4744
 20
70.8612
 30
0.0
 10
-0.4871
 20
68.713
 30
0.0
 10
9.3666
 20
75.8259
 30
0.0
 10
4.3173
 20
83.8317
 30
0.0
 10
-0.1066
 20
87.6006
 30
0.0
 10
-8.2651
 20
83.4102
 30
0.0
 10
-4.0926
 20
77.6483
 30
0.0
 10
-14.1374
 20
75.3292
 30
0.0
 10
-9.6819
 20
82.277
 30
0.0
 10
-6.3939
 20
86.0022
 30
0.0
 10
-4.1351
 20
88.5648
 30
0.0
 10
-3.0052
 20
92.9536
 30
0.0
 10
-5.8722
 20
94.3444
 30
0.0
 10
-8.7394
 20
95.733
 30
0.0
 10
-15.3346
 20
93.0653
 30
0.0
 10
-16.089
 20
91.745
 30
0.0
 10
-17.5074
 20
89.2629
 30
0.0
 10
-12.9065
 20
89.2875
 30
0.0
 10
-12.2401
 20
88.5378
 30
0.0
  0
SPLINE
  5
70
330
1F
100
AcDbEntity
  8
Layer 1
 62
   250
370
    20
100
AcDbSpline
210
0.0
220
0.0
230
1.0
 70
    11
 71
     3
 72
    44
 73
    40
 74
     0
 42
0.0000000001
 43
0.0000000001
 40
0.0
 40
0.0
 40
0.0
 40
0.0
 40
0.0769230769230769
 40
0.0769230769230769
 40
0.0769230769230769
 40
0.1538461538461539
 40
0.1538461538461539
 40
0.1538461538461539
 40
0.2307692307692308
 40
0.2307692307692308
 40
0.2307692307692308
 40
0.3076923076923077
 40
0.3076923076923077
 40
0.3076923076923077
 40
0.3846153846153846
 40
0.3846153846153846
 40
0.3846153846153846
 40
0.4615384615384616
 40
0.4615384615384616
 40
0.4615384615384616
 40
0.5384615384615385
 40
0.5384615384615385
 40
0.5384615384615385
 40
0.6153846153846154
 40
0.6153846153846154
 40
0.6153846153846154
 40
0.6923076923076923
 40
0.6923076923076923
 40
0.6923076923076923
 40
0.7692307692307693
 40
0.7692307692307693
 40
0.7692307692307693
 40
0.8461538461538463
 40
0.8461538461538463
 40
0.8461538461538463
 40
0.9230769230769231
 40
0.9230769230769231
 40
0.9230769230769231
 40
1.0
 40
1.0
 40
1.0
 40
1.0
 10
-13.3307
 20
66.5752
 30
0.0
 10
-12.5321
 20
66.4782
 30
0.0
 10
-11.683
 20
66.442
 30
0.0
 10
-10.8804
 20
66.4168
 30
0.0
 10
-8.751
 20
66.35
 30
0.0
 10
-6.604
 20
66.4268
 30
0.0
 10
-4.4831
 20
66.6202
 30
0.0
 10
2.1295
 20
67.2231
 30
0.0
 10
8.6988
 20
69.0004
 30
0.0
 10
14.5741
 20
72.1251
 30
0.0
 10
15.453
 20
72.5925
 30
0.0
 10
16.7343
 20
72.9246
 30
0.0
 10
17.6926
 20
72.5194
 30
0.0
 10
18.3285
 20
72.2505
 30
0.0
 10
18.7249
 20
71.6784
 30
0.0
 10
18.7037
 20
70.9802
 30
0.0
 10
18.6839
 20
70.3259
 30
0.0
 10
18.3031
 20
69.7217
 30
0.0
 10
17.8945
 20
69.2351
 30
0.0
 10
16.8097
 20
67.943
 30
0.0
 10
15.2491
 20
66.7433
 30
0.0
 10
13.8494
 20
65.8165
 30
0.0
 10
11.6833
 20
64.3823
 30
0.0
 10
9.2989
 20
63.2228
 30
0.0
 10
6.8469
 20
62.3683
 30
0.0
 10
0.0225
 20
59.9898
 30
0.0
 10
-7.1985
 20
60.0346
 30
0.0
 10
-14.0523
 20
62.3
 30
0.0
 10
-15.0987
 20
62.6459
 30
0.0
 10
-16.3398
 20
63.4635
 30
0.0
 10
-16.3322
 20
64.702
 30
0.0
 10
-16.3281
 20
65.3765
 30
0.0
 10
-15.9286
 20
65.9182
 30
0.0
 10
-15.3435
 20
66.2272
 30
0.0
 10
-14.7695
 20
66.5305
 30
0.0
 10
-14.0632
 20
66.5998
 30
0.0
 10
-13.4237
 20
66.5821
 30
0.0
 10
-13.391
 20
66.5812
 30
0.0
 10
-13.3632
 20
66.5791
 30
0.0
 10
-13.3307
 20
66.5752
 30
0.0
  0
ENDSEC
  0
SECTION
  2
OBJECTS
  0
DICTIONARY
  5
C
330
0
100
AcDbDictionary
281
     1
  3
ACAD_DETAILVIEWSTYLE
350
78
  3
ACAD_GROUP
350
D
  3
ACAD_LAYOUT
350
1A
  3
ACAD_MATERIAL
350
43
  3
ACAD_MLEADERSTYLE
350
5B
  3
ACAD_MLINESTYLE
350
17
  3
ACAD_PLOTSETTINGS
350
19
  3
ACAD_PLOTSTYLENAME
350
E
  3
ACAD_SCALELIST
350
47
  3
ACAD_SECTIONVIEWSTYLE
350
79
  3
ACAD_TABLESTYLE
350
59
  3
ACAD_VISUALSTYLE
350
2A
  3
ACDB_RECOMPOSE_DATA
350
75
  3
AcDbVariableDictionary
350
71
  0
SUN
  5
5D
330
29
100
AcDbSun
 90
        1
290
     0
 63
     7
421
 16777215
 40
1.0
291
     1
 91
  2455826
 92
 54000000
292
     0
 70
     2
 71
   256
280
     1
  0
DICTIONARY
  5
78
102
{ACAD_REACTORS
330
C
102
}
330
C
100
AcDbDictionary
281
     1
  0
DICTIONARY
  5
D
102
{ACAD_REACTORS
330
C
102
}
330
C
100
AcDbDictionary
281
     1
  0
DICTIONARY
  5
1A
102
{ACAD_REACTORS
330
C
102
}
330
C
100
AcDbDictionary
281
     1
  3
Layout1
350
1E
  3
Layout2
350
26
  3
Model
350
22
  0
DICTIONARY
  5
43
102
{ACAD_REACTORS
330
C
102
}
330
C
100
AcDbDictionary
281
     1
  3
ByBlock
350
45
  3
ByLayer
350
44
  3
Global
350
46
  0
DICTIONARY
  5
5B
102
{ACAD_REACTORS
330
C
102
}
330
C
100
AcDbDictionary
281
     1
  3
Standard
350
5C
  0
DICTIONARY
  5
17
102
{ACAD_REACTORS
330
C
102
}
330
C
100
AcDbDictionary
281
     1
  3
Standard
350
18
  0
DICTIONARY
  5
19
102
{ACAD_REACTORS
330
C
102
}
330
C
100
AcDbDictionary
281
     1
  0
ACDBDICTIONARYWDFLT
  5
E
102
{ACAD_REACTORS
330
C
102
}
330
C
100
AcDbDictionary
281
     1
  3
Normal
350
F
100
AcDbDictionaryWithDefault
340
F
  0
DICTIONARY
  5
47
102
{ACAD_REACTORS
330
C
102
}
330
C
100
AcDbDictionary
281
     1
  3
A0
350
48
  3
A1
350
49
  3
A2
350
4A
  3
A3
350
4B
  3
A4
350
4C
  3
A5
350
4D
  3
A6
350
4E
  3
A7
350
4F
  3
A8
350
50
  3
A9
350
51
  3
B1
350
52
  3
B2
350
53
  3
B3
350
54
  3
B4
350
55
  3
B5
350
56
  3
B6
350
57
  3
B7
350
58
  0
DICTIONARY
  5
79
102
{ACAD_REACTORS
330
C
102
}
330
C
100
AcDbDictionary
281
     1
  0
DICTIONARY
  5
59
102
{ACAD_REACTORS
330
C
102
}
330
C
100
AcDbDictionary
281
     1
  3
Standard
350
5A
  0
DICTIONARY
  5
2A
102
{ACAD_REACTORS
330
C
102
}
330
C
100
AcDbDictionary
281
     1
  3
2dWireframe
350
2F
  3
Basic
350
32
  3
Brighten
350
36
  3
ColorChange
350
3A
  3
Conceptual
350
34
  3
Dim
350
35
  3
EdgeColorOff
350
3D
  3
Facepattern
350
39
  3
Flat
350
2B
  3
FlatWithEdges
350
2C
  3
Gouraud
350
2D
  3
GouraudWithEdges
350
2E
  3
Hidden
350
31
  3
JitterOff
350
3B
  3
Linepattern
350
38
  3
OverhangOff
350
3C
  3
Realistic
350
33
  3
Shaded
350
42
  3
Shaded with edges
350
41
  3
Shades of Gray
350
3E
  3
Sketchy
350
3F
  3
Thicken
350
37
  3
Wireframe
350
30
  3
X-Ray
350
40
  0
XRECORD
  5
75
102
{ACAD_REACTORS
330
C
102
}
330
C
100
AcDbXrecord
280
     1
 90
        1
330
5A
  0
DICTIONARY
  5
71
102
{ACAD_REACTORS
330
C
102
}
330
C
100
AcDbDictionary
281
     1
  3
CANNOSCALE
350
72
  3
CMLEADERSTYLE
350
77
  3
CTABLESTYLE
350
76
  0
LAYOUT
  5
1E
102
{ACAD_REACTORS
330
1A
102
}
330
1A
100
AcDbPlotSettings
  1

  2
none_device
  4

  6

 40
0.0
 41
0.0
 42
0.0
 43
0.0
 44
0.0
 45
0.0
 46
0.0
 47
0.0
 48
0.0
 49
0.0
140
0.0
141
0.0
142
1.0
143
1.0
 70
   688
 72
     0
 73
     0
 74
     5
  7

 75
    16
 76
     0
 77
     2
 78
   300
147
1.0
148
0.0
149
0.0
100
AcDbLayout
  1
Layout1
 70
     1
 71
     1
 10
0.0
 20
0.0
 11
12.0
 21
9.0
 12
0.0
 22
0.0
 32
0.0
 14
1.000000000000000E+20
 24
1.000000000000000E+20
 34
1.000000000000000E+20
 15
-1.000000000000000E+20
 25
-1.000000000000000E+20
 35
-1.000000000000000E+20
146
0.0
 13
0.0
 23
0.0
 33
0.0
 16
1.0
 26
0.0
 36
0.0
 17
0.0
 27
1.0
 37
0.0
 76
     0
330
1B
  0
LAYOUT
  5
26
102
{ACAD_REACTORS
330
1A
102
}
330
1A
100
AcDbPlotSettings
  1

  2
none_device
  4

  6

 40
0.0
 41
0.0
 42
0.0
 43
0.0
 44
0.0
 45
0.0
 46
0.0
 47
0.0
 48
0.0
 49
0.0
140
0.0
141
0.0
142
1.0
143
1.0
 70
   688
 72
     0
 73
     0
 74
     5
  7

 75
    16
 76
     0
 77
     2
 78
   300
147
1.0
148
0.0
149
0.0
100
AcDbLayout
  1
Layout2
 70
     1
 71
     2
 10
0.0
 20
0.0
 11
0.0
 21
0.0
 12
0.0
 22
0.0
 32
0.0
 14
0.0
 24
0.0
 34
0.0
 15
0.0
 25
0.0
 35
0.0
146
0.0
 13
0.0
 23
0.0
 33
0.0
 16
1.0
 26
0.0
 36
0.0
 17
0.0
 27
1.0
 37
0.0
 76
     0
330
23
  0
LAYOUT
  5
22
102
{ACAD_REACTORS
330
1A
102
}
330
1A
100
AcDbPlotSettings
  1

  2
none_device
  4
Letter_(8.50_x_11.00_Inches)
  6

 40
6.35
 41
6.35
 42
6.35000508
 43
6.35000508
 44
215.9
 45
279.4
 46
0.0
 47
0.0
 48
0.0
 49
0.0
140
0.0
141
0.0
142
1.0
143
1.0
 70
  1712
 72
     0
 73
     0
 74
     0
  7

 75
     0
 76
     0
 77
     2
 78
   300
147
1.0
148
0.0
149
0.0
100
AcDbLayout
  1
Model
 70
     1
 71
     0
 10
0.0
 20
0.0
 11
12.0
 21
9.0
 12
0.0
 22
0.0
 32
0.0
 14
-75.9244
 24
-94.844
 34
0.0
 15
75.7818
 25
94.8333
 35
0.0
146
0.0
 13
0.0
 23
0.0
 33
0.0
 16
1.0
 26
0.0
 36
0.0
 17
0.0
 27
1.0
 37
0.0
 76
     0
330
1F
331
29
  0
MATERIAL
  5
45
102
{ACAD_REACTORS
330
43
102
}
330
43
100
AcDbMaterial
  1
ByBlock
 72
     1
 94
      127
  0
MATERIAL
  5
44
102
{ACAD_REACTORS
330
43
102
}
330
43
100
AcDbMaterial
  1
ByLayer
 72
     1
 94
      127
  0
MATERIAL
  5
46
102
{ACAD_REACTORS
330
43
102
}
330
43
100
AcDbMaterial
  1
Global
 72
     1
 94
      127
  0
MLEADERSTYLE
  5
5C
102
{ACAD_REACTORS
330
5B
102
}
330
5B
100
AcDbMLeaderStyle
179
     2
170
     2
171
     1
172
     0
 90
        2
 40
0.0
 41
0.0
173
     1
 91
-1056964608
340
14
 92
       -2
290
     1
 42
0.09
291
     1
 43
0.36
  3
Standard
341
0
 44
0.18
300

342
11
174
     1
178
     6
175
     1
176
     0
 93
-1056964608
 45
0.18
292
     0
297
     0
 46
0.18
343
0
 94
-1056964608
 47
1.0
 49
1.0
140
1.0
293
     1
141
0.0
294
     1
177
     0
142
1.0
295
     0
296
     0
143
0.125
271
     0
272
     9
273
     9
298
     0
  0
MLINESTYLE
  5
18
102
{ACAD_REACTORS
330
17
102
}
330
17
100
AcDbMlineStyle
  2
Standard
 70
     0
  3

 62
   256
 51
90.0
 52
90.0
 71
     2
 49
0.5
 62
   256
  6
BYLAYER
 49
-0.5
 62
   256
  6
BYLAYER
  0
ACDBPLACEHOLDER
  5
F
102
{ACAD_REACTORS
330
E
102
}
330
E
  0
SCALE
  5
48
102
{ACAD_REACTORS
330
47
102
}
330
47
100
AcDbScale
 70
     0
300
1:1
140
1.0
141
1.0
290
     1
  0
SCALE
  5
49
102
{ACAD_REACTORS
330
47
102
}
330
47
100
AcDbScale
 70
     0
300
1/128" = 1'-0"
140
0.0078125
141
12.0
290
     0
  0
SCALE
  5
4A
102
{ACAD_REACTORS
330
47
102
}
330
47
100
AcDbScale
 70
     0
300
1/64" = 1'-0"
140
0.015625
141
12.0
290
     0
  0
SCALE
  5
4B
102
{ACAD_REACTORS
330
47
102
}
330
47
100
AcDbScale
 70
     0
300
1/32" = 1'-0"
140
0.03125
141
12.0
290
     0
  0
SCALE
  5
4C
102
{ACAD_REACTORS
330
47
102
}
330
47
100
AcDbScale
 70
     0
300
1/16" = 1'-0"
140
0.0625
141
12.0
290
     0
  0
SCALE
  5
4D
102
{ACAD_REACTORS
330
47
102
}
330
47
100
AcDbScale
 70
     0
300
3/32" = 1'-0"
140
0.09375
141
12.0
290
     0
  0
SCALE
  5
4E
102
{ACAD_REACTORS
330
47
102
}
330
47
100
AcDbScale
 70
     0
300
1/8" = 1'-0"
140
0.125
141
12.0
290
     0
  0
SCALE
  5
4F
102
{ACAD_REACTORS
330
47
102
}
330
47
100
AcDbScale
 70
     0
300
3/16" = 1'-0"
140
0.1875
141
12.0
290
     0
  0
SCALE
  5
50
102
{ACAD_REACTORS
330
47
102
}
330
47
100
AcDbScale
 70
     0
300
1/4" = 1'-0"
140
0.25
141
12.0
290
     0
  0
SCALE
  5
51
102
{ACAD_REACTORS
330
47
102
}
330
47
100
AcDbScale
 70
     0
300
3/8" = 1'-0"
140
0.375
141
12.0
290
     0
  0
SCALE
  5
52
102
{ACAD_REACTORS
330
47
102
}
330
47
100
AcDbScale
 70
     0
300
1/2" = 1'-0"
140
0.5
141
12.0
290
     0
  0
SCALE
  5
53
102
{ACAD_REACTORS
330
47
102
}
330
47
100
AcDbScale
 70
     0
300
3/4" = 1'-0"
140
0.75
141
12.0
290
     0
  0
SCALE
  5
54
102
{ACAD_REACTORS
330
47
102
}
330
47
100
AcDbScale
 70
     0
300
1" = 1'-0"
140
1.0
141
12.0
290
     0
  0
SCALE
  5
55
102
{ACAD_REACTORS
330
47
102
}
330
47
100
AcDbScale
 70
     0
300
1-1/2" = 1'-0"
140
1.5
141
12.0
290
     0
  0
SCALE
  5
56
102
{ACAD_REACTORS
330
47
102
}
330
47
100
AcDbScale
 70
     0
300
3" = 1'-0"
140
3.0
141
12.0
290
     0
  0
SCALE
  5
57
102
{ACAD_REACTORS
330
47
102
}
330
47
100
AcDbScale
 70
     0
300
6" = 1'-0"
140
6.0
141
12.0
290
     0
  0
SCALE
  5
58
102
{ACAD_REACTORS
330
47
102
}
330
47
100
AcDbScale
 70
     0
300
1'-0" = 1'-0"
140
12.0
141
12.0
290
     0
  0
TABLESTYLE
  5
5A
102
{ACAD_REACTORS
330
59
102
}
102
{ACAD_XDICTIONARY
360
73
102
}
330
59
100
AcDbTableStyle
  3
Standard
 70
     0
 71
     0
 40
0.06
 41
0.06
280
     0
281
     0
  7
Standard
140
0.18
170
     2
 62
     0
 63
   257
283
     0
 90
        4
 91
        0
  1

274
    -2
284
     1
 64
     0
275
    -2
285
     1
 65
     0
276
    -2
286
     1
 66
     0
277
    -2
287
     1
 67
     0
278
    -2
288
     1
 68
     0
279
    -2
289
     1
 69
     0
  7
Standard
140
0.25
170
     5
 62
     0
 63
   257
283
     0
 90
        4
 91
        0
  1

274
    -2
284
     1
 64
     0
275
    -2
285
     1
 65
     0
276
    -2
286
     1
 66
     0
277
    -2
287
     1
 67
     0
278
    -2
288
     1
 68
     0
279
    -2
289
     1
 69
     0
  7
Standard
140
0.18
170
     5
 62
     0
 63
   257
283
     0
 90
        4
 91
        0
  1

274
    -2
284
     1
 64
     0
275
    -2
285
     1
 65
     0
276
    -2
286
     1
 66
     0
277
    -2
287
     1
 67
     0
278
    -2
288
     1
 68
     0
279
    -2
289
     1
 69
     0
  0
VISUALSTYLE
  5
2F
102
{ACAD_REACTORS
330
2A
102
}
330
2A
100
AcDbVisualStyle
  2
2dWireframe
 70
     4
177
     3
291
     0
 70
    58
 90
        0
176
     1
 90
        2
176
     1
 90
        0
176
     1
 90
        0
176
     1
 40
0.6
176
     1
 40
30.0
176
     1
 62
     7
420
 16777215
176
     1
 90
        1
176
     1
 90
        4
176
     1
 62
     7
176
     1
 62
   257
176
     1
 90
        1
176
     1
 90
        1
176
     1
 40
1.0
176
     1
 90
        0
176
     1
 62
   257
176
     1
 40
1.0
176
     1
 90
        1
176
     1
 90
        6
176
     1
 90
        2
176
     1
 62
     7
176
     1
 90
        5
176
     1
 90
        0
176
     1
 90
        0
176
     1
290
     0
176
     1
 90
        1
176
     1
 40
0.0
176
     1
 90
        0
176
     1
290
     1
176
     1
290
     1
176
     1
290
     0
176
     1
290
     0
176
     1
290
     0
176
     1
290
     0
176
     1
290
     0
176
     1
290
     0
176
     1
290
     0
176
     1
 90
       50
176
     1
 40
0.0
176
     1
 40
1.0
176
     1
 90
        0
176
     1
 62
    18
420
        0
176
     1
 90
       50
176
     1
 90
        3
176
     1
 62
     5
420
      255
176
     1
290
     0
176
     1
 90
       50
176
     1
 90
       50
176
     1
 90
       50
176
     1
290
     0
176
     1
 90
       50
176
     1
 62
   256
176
     0
 40
1.0
176
     0
 90
        2
176
     1
  1
strokes_ogs.tif
176
     1
290
     0
176
     1
 40
1.0
176
     1
 40
1.0
176
     1
  0
VISUALSTYLE
  5
32
102
{ACAD_REACTORS
330
2A
102
}
330
2A
100
AcDbVisualStyle
  2
Basic
 70
     7
177
     3
291
     1
 70
    58
 90
        1
176
     1
 90
        0
176
     1
 90
        1
176
     1
 90
        0
176
     1
 40
0.6
176
     1
 40
30.0
176
     1
 62
     7
420
 16777215
176
     1
 90
        0
176
     1
 90
        4
176
     1
 62
     7
176
     1
 62
   257
176
     1
 90
        1
176
     1
 90
        1
176
     1
 40
1.0
176
     1
 90
        8
176
     1
 62
     7
176
     1
 40
1.0
176
     1
 90
        1
176
     1
 90
        6
176
     1
 90
        2
176
     1
 62
     7
176
     1
 90
        5
176
     1
 90
        0
176
     1
 90
        0
176
     1
290
     0
176
     1
 90
        1
176
     1
 40
0.0
176
     1
 90
        0
176
     1
290
     0
176
     1
290
     1
176
     1
290
     1
176
     1
290
     0
176
     1
290
     0
176
     1
290
     0
176
     1
290
     0
176
     1
290
     0
176
     1
290
     0
176
     1
 90
       50
176
     1
 40
0.0
176
     1
 40
1.0
176
     1
 90
        0
176
     1
 62
    18
420
        0
176
     1
 90
       50
176
     1
 90
        3
176
     1
 62
     5
420
      255
176
     1
290
     0
176
     1
 90
       50
176
     1
 90
       50
176
     1
 90
       50
176
     1
290
     0
176
     1
 90
       50
176
     1
 62
   256
176
     0
 40
1.0
176
     0
 90
        2
176
     1
  1
strokes_ogs.tif
176
     1
290
     0
176
     1
 40
1.0
176
     1
 40
1.0
176
     1
  0
VISUALSTYLE
  5
36
102
{ACAD_REACTORS
330
2A
102
}
330
2A
100
AcDbVisualStyle
  2
Brighten
 70
    12
177
     3
291
     1
 70
    58
 90
        2
176
     1
 90
        2
176
     1
 90
        0
176
     1
 90
        0
176
     1
 40
0.6
176
     1
 40
30.0
176
     1
 62
     7
420
 16777215
176
     1
 90
        1
176
     1
 90
        4
176
     1
 62
     7
176
     1
 62
   257
176
     1
 90
        1
176
     1
 90
        1
176
     1
 40
1.0
176
     1
 90
        8
176
     1
 62
     7
176
     1
 40
1.0
176
     1
 90
        1
176
     1
 90
        6
176
     1
 90
        2
176
     1
 62
     7
176
     1
 90
        5
176
     1
 90
        0
176
     1
 90
        0
176
     1
290
     0
176
     1
 90
        1
176
     1
 40
50.0
176
     1
 90
        0
176
     1
290
     0
176
     1
290
     1
176
     1
290
     1
176
     1
290
     0
176
     1
290
     0
176
     1
290
     0
176
     1
290
     0
176
     1
290
     0
176
     1
290
     0
176
     1
 90
       50
176
     1
 40
0.0
176
     1
 40
1.0
176
     1
 90
        0
176
     1
 62
    18
420
        0
176
     1
 90
       50
176
     1
 90
        3
176
     1
 62
     5
420
      255
176
     1
290
     0
176
     1
 90
       50
176
     1
 90
       50
176
     1
 90
       50
176
     1
290
     0
176
     1
 90
       50
176
     1
 62
   256
176
     0
 40
1.0
176
     0
 90
        2
176
     1
  1
strokes_ogs.tif
176
     1
290
     0
176
     1
 40
1.0
176
     1
 40
1.0
176
     1
  0
VISUALSTYLE
  5
3A
102
{ACAD_REACTORS
330
2A
102
}
330
2A
100
AcDbVisualStyle
  2
ColorChange
 70
    16
177
     3
291
     1
 70
    58
 90
        2
176
     1
 90
        2
176
     1
 90
        3
176
     1
 90
        0
176
     1
 40
0.6
176
     1
 40
30.0
176
     1
 62
     8
420
  8421504
176
     1
 90
        1
176
     1
 90
        4
176
     1
 62
     7
176
     1
 62
   257
176
     1
 90
        1
176
     1
 90
        1
176
     1
 40
1.0
176
     1
 90
        8
176
     1
 62
     8
420
  8421504
176
     1
 40
1.0
176
     1
 90
        1
176
     1
 90
        6
176
     1
 90
        2
176
     1
 62
     7
176
     1
 90
        5
176
     1
 90
        0
176
     1
 90
        0
176
     1
290
     0
176
     1
 90
        1
176
     1
 40
0.0
176
     1
 90
        0
176
     1
290
     0
176
     1
290
     1
176
     1
290
     1
176
     1
290
     0
176
     1
290
     0
176
     1
290
     0
176
     1
290
     0
176
     1
290
     0
176
     1
290
     0
176
     1
 90
       50
176
     1
 40
0.0
176
     1
 40
1.0
176
     1
 90
        0
176
     1
 62
    18
420
        0
176
     1
 90
       50
176
     1
 90
        3
176
     1
 62
     5
420
      255
176
     1
290
     0
176
     1
 90
       50
176
     1
 90
       50
176
     1
 90
       50
176
     1
290
     0
176
     1
 90
       50
176
     1
 62
   256
176
     0
 40
1.0
176
     0
 90
        2
176
     1
  1
strokes_ogs.tif
176
     1
290
     0
176
     1
 40
1.0
176
     1
 40
1.0
176
     1
  0
VISUALSTYLE
  5
34
102
{ACAD_REACTORS
330
2A
102
}
330
2A
100
AcDbVisualStyle
  2
Conceptual
 70
     9
177
     3
291
     0
 70
    58
 90
        3
176
     1
 90
        2
176
     1
 90
        0
176
     1
 90
        0
176
     1
 40
0.6
176
     1
 40
30.0
176
     1
 62
     7
420
 16777215
176
     1
 90
        2
176
     1
 90
        2
176
     1
 62
     7
176
     1
 62
   257
176
     1
 90
        1
176
     1
 90
        1
176
     1
 40
179.0
176
     1
 90
        8
176
     1
 62
     7
176
     1
 40
1.0
176
     1
 90
        1
176
     1
 90
        6
176
     1
 90
        2
176
     1
 62
     7
176
     1
 90
        3
176
     1
 90
        0
176
     1
 90
        0
176
     1
290
     0
176
     1
 90
        1
176
     1
 40
0.0
176
     1
 90
        0
176
     1
290
     0
176
     1
290
     1
176
     1
290
     1
176
     1
290
     0
176
     1
290
     0
176
     1
290
     0
176
     1
290
     0
176
     1
290
     0
176
     1
290
     0
176
     1
 90
       50
176
     1
 40
0.0
176
     1
 40
1.0
176
     1
 90
        0
176
     1
 62
    18
420
        0
176
     1
 90
       50
176
     1
 90
        3
176
     1
 62
     5
420
      255
176
     1
290
     0
176
     1
 90
       50
176
     1
 90
       50
176
     1
 90
       50
176
     1
290
     0
176
     1
 90
       50
176
     1
 62
   256
176
     0
 40
1.0
176
     0
 90
        2
176
     1
  1
strokes_ogs.tif
176
     1
290
     0
176
     1
 40
1.0
176
     1
 40
1.0
176
     1
  0
VISUALSTYLE
  5
35
102
{ACAD_REACTORS
330
2A
102
}
330
2A
100
AcDbVisualStyle
  2
Dim
 70
    11
177
     3
291
     1
 70
    58
 90
        2
176
     1
 90
        2
176
     1
 90
        0
176
     1
 90
        0
176
     1
 40
0.6
176
     1
 40
30.0
176
     1
 62
     7
420
 16777215
176
     1
 90
        1
176
     1
 90
        4
176
     1
 62
     7
176
     1
 62
   257
176
     1
 90
        1
176
     1
 90
        1
176
     1
 40
1.0
176
     1
 90
        8
176
     1
 62
     7
176
     1
 40
1.0
176
     1
 90
        1
176
     1
 90
        6
176
     1
 90
        2
176
     1
 62
     7
176
     1
 90
        5
176
     1
 90
        0
176
     1
 90
        0
176
     1
290
     0
176
     1
 90
        1
176
     1
 40
-50.0
176
     1
 90
        0
176
     1
290
     0
176
     1
290
     1
176
     1
290
     1
176
     1
290
     0
176
     1
290
     0
176
     1
290
     0
176
     1
290
     0
176
     1
290
     0
176
     1
290
     0
176
     1
 90
       50
176
     1
 40
0.0
176
     1
 40
1.0
176
     1
 90
        0
176
     1
 62
    18
420
        0
176
     1
 90
       50
176
     1
 90
        3
176
     1
 62
     5
420
      255
176
     1
290
     0
176
     1
 90
       50
176
     1
 90
       50
176
     1
 90
       50
176
     1
290
     0
176
     1
 90
       50
176
     1
 62
   256
176
     0
 40
1.0
176
     0
 90
        2
176
     1
  1
strokes_ogs.tif
176
     1
290
     0
176
     1
 40
1.0
176
     1
 40
1.0
176
     1
  0
VISUALSTYLE
  5
3D
102
{ACAD_REACTORS
330
2A
102
}
330
2A
100
AcDbVisualStyle
  2
EdgeColorOff
 70
    22
177
     3
291
     1
 70
    58
 90
        2
176
     0
 90
        2
176
     0
 90
        0
176
     0
 90
        0
176
     0
 40
0.6
176
     0
 40
30.0
176
     0
 62
     7
420
 16777215
176
     0
 90
        1
176
     0
 90
        4
176
     0
 62
     7
176
     0
 62
   257
176
     0
 90
        1
176
     0
 90
        1
176
     0
 40
1.0
176
     0
 90
        8
176
     2
 62
     7
176
     0
 40
1.0
176
     0
 90
        1
176
     0
 90
        6
176
     0
 90
        2
176
     0
 62
     7
176
     0
 90
        5
176
     0
 90
        0
176
     0
 90
        0
176
     0
290
     0
176
     0
 90
        1
176
     0
 40
0.0
176
     0
 90
        0
176
     0
290
     0
176
     0
290
     1
176
     0
290
     1
176
     0
290
     0
176
     0
290
     0
176
     0
290
     0
176
     0
290
     0
176
     0
290
     0
176
     0
290
     0
176
     0
 90
       50
176
     0
 40
0.0
176
     0
 40
1.0
176
     0
 90
        0
176
     0
 62
    18
420
        0
176
     0
 90
       50
176
     0
 90
        3
176
     0
 62
     5
420
      255
176
     0
290
     0
176
     0
 90
       50
176
     0
 90
       50
176
     0
 90
       50
176
     0
290
     0
176
     0
 90
       50
176
     0
 62
   256
176
     0
 40
1.0
176
     0
 90
        2
176
     0
  1
strokes_ogs.tif
176
     0
290
     0
176
     0
 40
1.0
176
     0
 40
1.0
176
     0
  0
VISUALSTYLE
  5
39
102
{ACAD_REACTORS
330
2A
102
}
330
2A
100
AcDbVisualStyle
  2
Facepattern
 70
    15
177
     3
291
     1
 70
    58
 90
        2
176
     1
 90
        2
176
     1
 90
        0
176
     1
 90
        0
176
     1
 40
0.6
176
     1
 40
30.0
176
     1
 62
     7
420
 16777215
176
     1
 90
        1
176
     1
 90
        4
176
     1
 62
     7
176
     1
 62
   257
176
     1
 90
        1
176
     1
 90
        1
176
     1
 40
1.0
176
     1
 90
        8
176
     1
 62
     7
176
     1
 40
1.0
176
     1
 90
        1
176
     1
 90
        6
176
     1
 90
        2
176
     1
 62
     7
176
     1
 90
        5
176
     1
 90
        0
176
     1
 90
        0
176
     1
290
     0
176
     1
 90
        1
176
     1
 40
0.0
176
     1
 90
        0
176
     1
290
     0
176
     1
290
     1
176
     1
290
     1
176
     1
290
     0
176
     1
290
     0
176
     1
290
     0
176
     1
290
     0
176
     1
290
     0
176
     1
290
     0
176
     1
 90
       50
176
     1
 40
0.0
176
     1
 40
1.0
176
     1
 90
        0
176
     1
 62
    18
420
        0
176
     1
 90
       50
176
     1
 90
        3
176
     1
 62
     5
420
      255
176
     1
290
     0
176
     1
 90
       50
176
     1
 90
       50
176
     1
 90
       50
176
     1
290
     0
176
     1
 90
       50
176
     1
 62
   256
176
     0
 40
1.0
176
     0
 90
        2
176
     1
  1
strokes_ogs.tif
176
     1
290
     0
176
     1
 40
1.0
176
     1
 40
1.0
176
     1
  0
VISUALSTYLE
  5
2B
102
{ACAD_REACTORS
330
2A
102
}
330
2A
100
AcDbVisualStyle
  2
Flat
 70
     0
177
     3
291
     1
 70
    58
 90
        2
176
     1
 90
        1
176
     1
 90
        1
176
     1
 90
        2
176
     1
 40
0.6
176
     1
 40
30.0
176
     1
 62
     7
420
 16777215
176
     1
 90
        0
176
     1
 90
        0
176
     1
 62
     7
176
     1
 62
   257
176
     1
 90
        1
176
     1
 90
        1
176
     1
 40
1.0
176
     1
 90
        8
176
     1
 62
     7
176
     1
 40
1.0
176
     1
 90
        1
176
     1
 90
        6
176
     1
 90
        2
176
     1
 62
     7
176
     1
 90
        5
176
     1
 90
        0
176
     1
 90
        0
176
     1
290
     0
176
     1
 90
       13
176
     1
 40
0.0
176
     1
 90
        0
176
     1
290
     0
176
     1
290
     1
176
     1
290
     1
176
     1
290
     0
176
     1
290
     0
176
     1
290
     0
176
     1
290
     0
176
     1
290
     0
176
     1
290
     0
176
     1
 90
       50
176
     1
 40
0.0
176
     1
 40
1.0
176
     1
 90
        0
176
     1
 62
    18
420
        0
176
     1
 90
       50
176
     1
 90
        3
176
     1
 62
     5
420
      255
176
     1
290
     0
176
     1
 90
       50
176
     1
 90
       50
176
     1
 90
       50
176
     1
290
     0
176
     1
 90
       50
176
     1
 62
   256
176
     0
 40
1.0
176
     0
 90
        2
176
     1
  1
strokes_ogs.tif
176
     1
290
     0
176
     1
 40
1.0
176
     1
 40
1.0
176
     1
  0
VISUALSTYLE
  5
2C
102
{ACAD_REACTORS
330
2A
102
}
330
2A
100
AcDbVisualStyle
  2
FlatWithEdges
 70
     1
177
     3
291
     1
 70
    58
 90
        2
176
     1
 90
        1
176
     1
 90
        1
176
     1
 90
        2
176
     1
 40
0.6
176
     1
 40
30.0
176
     1
 62
     7
420
 16777215
176
     1
 90
        1
176
     1
 90
        0
176
     1
 62
     7
176
     1
 62
   257
176
     1
 90
        1
176
     1
 90
        1
176
     1
 40
1.0
176
     1
 90
        0
176
     1
 62
   257
176
     1
 40
1.0
176
     1
 90
        1
176
     1
 90
        6
176
     1
 90
        2
176
     1
 62
     7
176
     1
 90
        5
176
     1
 90
        0
176
     1
 90
        0
176
     1
290
     0
176
     1
 90
       13
176
     1
 40
0.0
176
     1
 90
        0
176
     1
290
     0
176
     1
290
     1
176
     1
290
     1
176
     1
290
     0
176
     1
290
     0
176
     1
290
     0
176
     1
290
     0
176
     1
290
     0
176
     1
290
     0
176
     1
 90
       50
176
     1
 40
0.0
176
     1
 40
1.0
176
     1
 90
        0
176
     1
 62
    18
420
        0
176
     1
 90
       50
176
     1
 90
        3
176
     1
 62
     5
420
      255
176
     1
290
     0
176
     1
 90
       50
176
     1
 90
       50
176
     1
 90
       50
176
     1
290
     0
176
     1
 90
       50
176
     1
 62
   256
176
     0
 40
1.0
176
     0
 90
        2
176
     1
  1
strokes_ogs.tif
176
     1
290
     0
176
     1
 40
1.0
176
     1
 40
1.0
176
     1
  0
VISUALSTYLE
  5
2D
102
{ACAD_REACTORS
330
2A
102
}
330
2A
100
AcDbVisualStyle
  2
Gouraud
 70
     2
177
     3
291
     1
 70
    58
 90
        2
176
     1
 90
        2
176
     1
 90
        1
176
     1
 90
        2
176
     1
 40
0.6
176
     1
 40
30.0
176
     1
 62
     7
420
 16777215
176
     1
 90
        0
176
     1
 90
        0
176
     1
 62
     7
176
     1
 62
   257
176
     1
 90
        1
176
     1
 90
        1
176
     1
 40
1.0
176
     1
 90
        0
176
     1
 62
     7
176
     1
 40
1.0
176
     1
 90
        1
176
     1
 90
        6
176
     1
 90
        2
176
     1
 62
     7
176
     1
 90
        5
176
     1
 90
        0
176
     1
 90
        0
176
     1
290
     0
176
     1
 90
       13
176
     1
 40
0.0
176
     1
 90
        0
176
     1
290
     0
176
     1
290
     1
176
     1
290
     1
176
     1
290
     0
176
     1
290
     0
176
     1
290
     0
176
     1
290
     0
176
     1
290
     0
176
     1
290
     0
176
     1
 90
       50
176
     1
 40
0.0
176
     1
 40
1.0
176
     1
 90
        0
176
     1
 62
    18
420
        0
176
     1
 90
       50
176
     1
 90
        3
176
     1
 62
     5
420
      255
176
     1
290
     0
176
     1
 90
       50
176
     1
 90
       50
176
     1
 90
       50
176
     1
290
     0
176
     1
 90
       50
176
     1
 62
   256
176
     0
 40
1.0
176
     0
 90
        2
176
     1
  1
strokes_ogs.tif
176
     1
290
     0
176
     1
 40
1.0
176
     1
 40
1.0
176
     1
  0
VISUALSTYLE
  5
2E
102
{ACAD_REACTORS
330
2A
102
}
330
2A
100
AcDbVisualStyle
  2
GouraudWithEdges
 70
     3
177
     3
291
     1
 70
    58
 90
        2
176
     1
 90
        2
176
     1
 90
        1
176
     1
 90
        2
176
     1
 40
0.6
176
     1
 40
30.0
176
     1
 62
     7
420
 16777215
176
     1
 90
        1
176
     1
 90
        0
176
     1
 62
     7
176
     1
 62
   257
176
     1
 90
        1
176
     1
 90
        1
176
     1
 40
1.0
176
     1
 90
        0
176
     1
 62
   257
176
     1
 40
1.0
176
     1
 90
        1
176
     1
 90
        6
176
     1
 90
        2
176
     1
 62
     7
176
     1
 90
        5
176
     1
 90
        0
176
     1
 90
        0
176
     1
290
     0
176
     1
 90
       13
176
     1
 40
0.0
176
     1
 90
        0
176
     1
290
     0
176
     1
290
     1
176
     1
290
     1
176
     1
290
     0
176
     1
290
     0
176
     1
290
     0
176
     1
290
     0
176
     1
290
     0
176
     1
290
     0
176
     1
 90
       50
176
     1
 40
0.0
176
     1
 40
1.0
176
     1
 90
        0
176
     1
 62
    18
420
        0
176
     1
 90
       50
176
     1
 90
        3
176
     1
 62
     5
420
      255
176
     1
290
     0
176
     1
 90
       50
176
     1
 90
       50
176
     1
 90
       50
176
     1
290
     0
176
     1
 90
       50
176
     1
 62
   256
176
     0
 40
1.0
176
     0
 90
        2
176
     1
  1
strokes_ogs.tif
176
     1
290
     0
176
     1
 40
1.0
176
     1
 40
1.0
176
     1
  0
VISUALSTYLE
  5
31
102
{ACAD_REACTORS
330
2A
102
}
330
2A
100
AcDbVisualStyle
  2
Hidden
 70
     6
177
     3
291
     0
 70
    58
 90
        1
176
     1
 90
        2
176
     1
 90
        2
176
     1
 90
        0
176
     1
 40
0.6
176
     1
 40
30.0
176
     1
 62
     7
420
 16777215
176
     1
 90
        2
176
     1
 90
        2
176
     1
 62
     7
176
     1
 62
   257
176
     1
 90
        2
176
     1
 90
        1
176
     1
 40
40.0
176
     1
 90
        0
176
     1
 62
   257
176
     1
 40
1.0
176
     1
 90
        1
176
     1
 90
        6
176
     1
 90
        2
176
     1
 62
     7
176
     1
 90
        3
176
     1
 90
        0
176
     1
 90
        0
176
     1
290
     0
176
     1
 90
        1
176
     1
 40
0.0
176
     1
 90
        0
176
     1
290
     0
176
     1
290
     1
176
     1
290
     1
176
     1
290
     0
176
     1
290
     0
176
     1
290
     0
176
     1
290
     0
176
     1
290
     0
176
     1
290
     0
176
     1
 90
       50
176
     1
 40
0.0
176
     1
 40
1.0
176
     1
 90
        0
176
     1
 62
    18
420
        0
176
     1
 90
       50
176
     1
 90
        3
176
     1
 62
     5
420
      255
176
     1
290
     0
176
     1
 90
       50
176
     1
 90
       50
176
     1
 90
       50
176
     1
290
     0
176
     1
 90
       50
176
     1
 62
   256
176
     0
 40
1.0
176
     0
 90
        2
176
     1
  1
strokes_ogs.tif
176
     1
290
     0
176
     1
 40
1.0
176
     1
 40
1.0
176
     1
  0
VISUALSTYLE
  5
3B
102
{ACAD_REACTORS
330
2A
102
}
330
2A
100
AcDbVisualStyle
  2
JitterOff
 70
    20
177
     3
291
     1
 70
    58
 90
        2
176
     0
 90
        2
176
     0
 90
        0
176
     0
 90
        0
176
     0
 40
0.6
176
     0
 40
30.0
176
     0
 62
     7
420
 16777215
176
     0
 90
        1
176
     0
 90
        4
176
     0
 62
     7
176
     0
 62
   257
176
     0
 90
        1
176
     0
 90
        1
176
     0
 40
1.0
176
     0
 90
       10
176
     2
 62
     7
176
     0
 40
1.0
176
     0
 90
        1
176
     0
 90
        6
176
     0
 90
        2
176
     0
 62
     7
176
     0
 90
        5
176
     0
 90
        0
176
     0
 90
        0
176
     0
290
     0
176
     0
 90
        1
176
     0
 40
0.0
176
     0
 90
        0
176
     0
290
     0
176
     0
290
     1
176
     0
290
     1
176
     0
290
     0
176
     0
290
     0
176
     0
290
     0
176
     0
290
     0
176
     0
290
     0
176
     0
290
     0
176
     0
 90
       50
176
     0
 40
0.0
176
     0
 40
1.0
176
     0
 90
        0
176
     0
 62
    18
420
        0
176
     0
 90
       50
176
     0
 90
        3
176
     0
 62
     5
420
      255
176
     0
290
     0
176
     0
 90
       50
176
     0
 90
       50
176
     0
 90
       50
176
     0
290
     0
176
     0
 90
       50
176
     0
 62
   256
176
     0
 40
1.0
176
     0
 90
        2
176
     0
  1
strokes_ogs.tif
176
     0
290
     0
176
     0
 40
1.0
176
     0
 40
1.0
176
     0
  0
VISUALSTYLE
  5
38
102
{ACAD_REACTORS
330
2A
102
}
330
2A
100
AcDbVisualStyle
  2
Linepattern
 70
    14
177
     3
291
     1
 70
    58
 90
        2
176
     1
 90
        2
176
     1
 90
        0
176
     1
 90
        0
176
     1
 40
0.6
176
     1
 40
30.0
176
     1
 62
     7
420
 16777215
176
     1
 90
        1
176
     1
 90
        4
176
     1
 62
     7
176
     1
 62
   257
176
     1
 90
        7
176
     1
 90
        7
176
     1
 40
1.0
176
     1
 90
        8
176
     1
 62
     7
176
     1
 40
1.0
176
     1
 90
        1
176
     1
 90
        6
176
     1
 90
        2
176
     1
 62
     7
176
     1
 90
        5
176
     1
 90
        0
176
     1
 90
        0
176
     1
290
     0
176
     1
 90
        1
176
     1
 40
0.0
176
     1
 90
        0
176
     1
290
     0
176
     1
290
     1
176
     1
290
     1
176
     1
290
     0
176
     1
290
     0
176
     1
290
     0
176
     1
290
     0
176
     1
290
     0
176
     1
290
     0
176
     1
 90
       50
176
     1
 40
0.0
176
     1
 40
1.0
176
     1
 90
        0
176
     1
 62
    18
420
        0
176
     1
 90
       50
176
     1
 90
        3
176
     1
 62
     5
420
      255
176
     1
290
     0
176
     1
 90
       50
176
     1
 90
       50
176
     1
 90
       50
176
     1
290
     0
176
     1
 90
       50
176
     1
 62
   256
176
     0
 40
1.0
176
     0
 90
        2
176
     1
  1
strokes_ogs.tif
176
     1
290
     0
176
     1
 40
1.0
176
     1
 40
1.0
176
     1
  0
VISUALSTYLE
  5
3C
102
{ACAD_REACTORS
330
2A
102
}
330
2A
100
AcDbVisualStyle
  2
OverhangOff
 70
    21
177
     3
291
     1
 70
    58
 90
        2
176
     0
 90
        2
176
     0
 90
        0
176
     0
 90
        0
176
     0
 40
0.6
176
     0
 40
30.0
176
     0
 62
     7
420
 16777215
176
     0
 90
        1
176
     0
 90
        4
176
     0
 62
     7
176
     0
 62
   257
176
     0
 90
        1
176
     0
 90
        1
176
     0
 40
1.0
176
     0
 90
        9
176
     2
 62
     7
176
     0
 40
1.0
176
     0
 90
        1
176
     0
 90
        6
176
     0
 90
        2
176
     0
 62
     7
176
     0
 90
        5
176
     0
 90
        0
176
     0
 90
        0
176
     0
290
     0
176
     0
 90
        1
176
     0
 40
0.0
176
     0
 90
        0
176
     0
290
     0
176
     0
290
     1
176
     0
290
     1
176
     0
290
     0
176
     0
290
     0
176
     0
290
     0
176
     0
290
     0
176
     0
290
     0
176
     0
290
     0
176
     0
 90
       50
176
     0
 40
0.0
176
     0
 40
1.0
176
     0
 90
        0
176
     0
 62
    18
420
        0
176
     0
 90
       50
176
     0
 90
        3
176
     0
 62
     5
420
      255
176
     0
290
     0
176
     0
 90
       50
176
     0
 90
       50
176
     0
 90
       50
176
     0
290
     0
176
     0
 90
       50
176
     0
 62
   256
176
     0
 40
1.0
176
     0
 90
        2
176
     0
  1
strokes_ogs.tif
176
     0
290
     0
176
     0
 40
1.0
176
     0
 40
1.0
176
     0
  0
VISUALSTYLE
  5
33
102
{ACAD_REACTORS
330
2A
102
}
330
2A
100
AcDbVisualStyle
  2
Realistic
 70
     8
177
     3
291
     0
 70
    58
 90
        2
176
     1
 90
        3
176
     1
 90
        0
176
     1
 90
        2
176
     1
 40
0.6
176
     1
 40
30.0
176
     1
 62
     7
420
 16777215
176
     1
 90
        0
176
     1
 90
        0
176
     1
 62
     7
176
     1
 62
   257
176
     1
 90
        1
176
     1
 90
        1
176
     1
 40
1.0
176
     1
 90
        8
176
     1
 62
   257
176
     1
 40
1.0
176
     1
 90
        1
176
     1
 90
        6
176
     1
 90
        2
176
     1
 62
     7
176
     1
 90
        3
176
     1
 90
        0
176
     1
 90
        0
176
     1
290
     0
176
     1
 90
       13
176
     1
 40
0.0
176
     1
 90
        0
176
     1
290
     0
176
     1
290
     1
176
     1
290
     1
176
     1
290
     0
176
     1
290
     0
176
     1
290
     0
176
     1
290
     0
176
     1
290
     0
176
     1
290
     0
176
     1
 90
       50
176
     1
 40
0.0
176
     1
 40
1.0
176
     1
 90
        0
176
     1
 62
    18
420
        0
176
     1
 90
       50
176
     1
 90
        3
176
     1
 62
     5
420
      255
176
     1
290
     0
176
     1
 90
       50
176
     1
 90
       50
176
     1
 90
       50
176
     1
290
     0
176
     1
 90
       50
176
     1
 62
   256
176
     0
 40
1.0
176
     0
 90
        2
176
     1
  1
strokes_ogs.tif
176
     1
290
     0
176
     1
 40
1.0
176
     1
 40
1.0
176
     1
  0
VISUALSTYLE
  5
42
102
{ACAD_REACTORS
330
2A
102
}
330
2A
100
AcDbVisualStyle
  2
Shaded
 70
    27
177
     3
291
     0
 70
    58
 90
        2
176
     1
 90
        2
176
     1
 90
        1
176
     1
 90
        2
176
     1
 40
0.6
176
     1
 40
30.0
176
     1
 62
     7
420
 16777215
176
     1
 90
        0
176
     1
 90
        4
176
     1
 62
     7
176
     1
 62
   257
176
     1
 90
        1
176
     1
 90
        1
176
     1
 40
1.0
176
     1
 90
        8
176
     1
 62
   257
176
     1
 40
1.0
176
     1
 90
        1
176
     1
 90
        6
176
     1
 90
        2
176
     1
 62
     8
420
  7895160
176
     1
 90
        3
176
     1
 90
        0
176
     1
 90
        0
176
     1
290
     0
176
     1
 90
        5
176
     1
 40
0.0
176
     1
 90
        0
176
     1
290
     0
176
     1
290
     1
176
     1
290
     1
176
     1
290
     0
176
     1
290
     0
176
     1
290
     0
176
     1
290
     0
176
     1
290
     0
176
     1
290
     0
176
     1
 90
       50
176
     1
 40
0.0
176
     1
 40
1.0
176
     1
 90
        0
176
     1
 62
    18
420
        0
176
     1
 90
       50
176
     1
 90
        3
176
     1
 62
     5
420
      255
176
     1
290
     0
176
     1
 90
       50
176
     1
 90
       50
176
     1
 90
       50
176
     1
290
     0
176
     1
 90
       50
176
     1
 62
   256
176
     0
 40
1.0
176
     0
 90
        2
176
     1
  1
strokes_ogs.tif
176
     1
290
     0
176
     1
 40
1.0
176
     1
 40
1.0
176
     1
  0
VISUALSTYLE
  5
41
102
{ACAD_REACTORS
330
2A
102
}
330
2A
100
AcDbVisualStyle
  2
Shaded with edges
 70
    26
177
     3
291
     0
 70
    58
 90
        2
176
     1
 90
        2
176
     1
 90
        1
176
     1
 90
        2
176
     1
 40
0.6
176
     1
 40
30.0
176
     1
 62
     7
420
 16777215
176
     1
 90
        1
176
     1
 90
       10
176
     1
 62
     7
176
     1
 62
   257
176
     1
 90
        2
176
     1
 90
        1
176
     1
 40
1.0
176
     1
 90
        8
176
     1
 62
   257
176
     1
 40
1.0
176
     1
 90
        1
176
     1
 90
        6
176
     1
 90
        2
176
     1
 62
     7
176
     1
 90
        3
176
     1
 90
        0
176
     1
 90
        0
176
     1
290
     0
176
     1
 90
        5
176
     1
 40
0.0
176
     1
 90
        0
176
     1
290
     0
176
     1
290
     1
176
     1
290
     1
176
     1
290
     0
176
     1
290
     0
176
     1
290
     0
176
     1
290
     0
176
     1
290
     0
176
     1
290
     0
176
     1
 90
       50
176
     1
 40
0.0
176
     1
 40
1.0
176
     1
 90
        0
176
     1
 62
    18
420
        0
176
     1
 90
       50
176
     1
 90
        3
176
     1
 62
     5
420
      255
176
     1
290
     0
176
     1
 90
       50
176
     1
 90
       50
176
     1
 90
       50
176
     1
290
     0
176
     1
 90
       50
176
     1
 62
   256
176
     0
 40
1.0
176
     0
 90
        2
176
     1
  1
strokes_ogs.tif
176
     1
290
     0
176
     1
 40
1.0
176
     1
 40
1.0
176
     1
  0
VISUALSTYLE
  5
3E
102
{ACAD_REACTORS
330
2A
102
}
330
2A
100
AcDbVisualStyle
  2
Shades of Gray
 70
    23
177
     3
291
     0
 70
    58
 90
        2
176
     1
 90
        2
176
     1
 90
        3
176
     1
 90
        0
176
     1
 40
0.6
176
     1
 40
30.0
176
     1
 62
     7
420
 16777215
176
     1
 90
        2
176
     1
 90
        2
176
     1
 62
     7
176
     1
 62
     7
176
     1
 90
        1
176
     1
 90
        1
176
     1
 40
40.0
176
     1
 90
        8
176
     1
 62
     7
176
     1
 40
1.0
176
     1
 90
        1
176
     1
 90
        6
176
     1
 90
        2
176
     1
 62
     7
176
     1
 90
        3
176
     1
 90
        0
176
     1
 90
        0
176
     1
290
     0
176
     1
 90
        1
176
     1
 40
0.0
176
     1
 90
        0
176
     1
290
     0
176
     1
290
     1
176
     1
290
     1
176
     1
290
     0
176
     1
290
     0
176
     1
290
     0
176
     1
290
     0
176
     1
290
     0
176
     1
290
     0
176
     1
 90
       50
176
     1
 40
0.0
176
     1
 40
1.0
176
     1
 90
        0
176
     1
 62
    18
420
        0
176
     1
 90
       50
176
     1
 90
        3
176
     1
 62
     5
420
      255
176
     1
290
     0
176
     1
 90
       50
176
     1
 90
       50
176
     1
 90
       50
176
     1
290
     0
176
     1
 90
       50
176
     1
 62
   256
176
     0
 40
1.0
176
     0
 90
        2
176
     1
  1
strokes_ogs.tif
176
     1
290
     0
176
     1
 40
1.0
176
     1
 40
1.0
176
     1
  0
VISUALSTYLE
  5
3F
102
{ACAD_REACTORS
330
2A
102
}
330
2A
100
AcDbVisualStyle
  2
Sketchy
 70
    24
177
     3
291
     0
 70
    58
 90
        1
176
     1
 90
        2
176
     1
 90
        2
176
     1
 90
        0
176
     1
 40
0.6
176
     1
 40
30.0
176
     1
 62
     7
420
 16777215
176
     1
 90
        2
176
     1
 90
        2
176
     1
 62
     7
176
     1
 62
     7
176
     1
 90
        1
176
     1
 90
        1
176
     1
 40
40.0
176
     1
 90
       11
176
     1
 62
     7
176
     1
 40
1.0
176
     1
 90
        1
176
     1
 90
        6
176
     1
 90
        2
176
     1
 62
     7
176
     1
 90
        6
176
     1
 90
        0
176
     1
 90
        0
176
     1
290
     0
176
     1
 90
        1
176
     1
 40
0.0
176
     1
 90
        0
176
     1
290
     0
176
     1
290
     1
176
     1
290
     1
176
     1
290
     0
176
     1
290
     0
176
     1
290
     0
176
     1
290
     0
176
     1
290
     0
176
     1
290
     0
176
     1
 90
       50
176
     1
 40
0.0
176
     1
 40
1.0
176
     1
 90
        0
176
     1
 62
    18
420
        0
176
     1
 90
       50
176
     1
 90
        3
176
     1
 62
     5
420
      255
176
     1
290
     0
176
     1
 90
       50
176
     1
 90
       50
176
     1
 90
       50
176
     1
290
     0
176
     1
 90
       50
176
     1
 62
   256
176
     0
 40
1.0
176
     0
 90
        2
176
     1
  1
strokes_ogs.tif
176
     1
290
     0
176
     1
 40
1.0
176
     1
 40
1.0
176
     1
  0
VISUALSTYLE
  5
37
102
{ACAD_REACTORS
330
2A
102
}
330
2A
100
AcDbVisualStyle
  2
Thicken
 70
    13
177
     3
291
     1
 70
    58
 90
        2
176
     1
 90
        2
176
     1
 90
        0
176
     1
 90
        0
176
     1
 40
0.6
176
     1
 40
30.0
176
     1
 62
     7
420
 16777215
176
     1
 90
        1
176
     1
 90
        4
176
     1
 62
     7
176
     1
 62
   257
176
     1
 90
        1
176
     1
 90
        1
176
     1
 40
1.0
176
     1
 90
       12
176
     1
 62
     7
176
     1
 40
1.0
176
     1
 90
        1
176
     1
 90
        6
176
     1
 90
        2
176
     1
 62
     7
176
     1
 90
        5
176
     1
 90
        0
176
     1
 90
        0
176
     1
290
     0
176
     1
 90
        1
176
     1
 40
0.0
176
     1
 90
        0
176
     1
290
     0
176
     1
290
     1
176
     1
290
     1
176
     1
290
     0
176
     1
290
     0
176
     1
290
     0
176
     1
290
     0
176
     1
290
     0
176
     1
290
     0
176
     1
 90
       50
176
     1
 40
0.0
176
     1
 40
1.0
176
     1
 90
        0
176
     1
 62
    18
420
        0
176
     1
 90
       50
176
     1
 90
        3
176
     1
 62
     5
420
      255
176
     1
290
     0
176
     1
 90
       50
176
     1
 90
       50
176
     1
 90
       50
176
     1
290
     0
176
     1
 90
       50
176
     1
 62
   256
176
     0
 40
1.0
176
     0
 90
        2
176
     1
  1
strokes_ogs.tif
176
     1
290
     0
176
     1
 40
1.0
176
     1
 40
1.0
176
     1
  0
VISUALSTYLE
  5
30
102
{ACAD_REACTORS
330
2A
102
}
330
2A
100
AcDbVisualStyle
  2
Wireframe
 70
     5
177
     3
291
     0
 70
    58
 90
        0
176
     1
 90
        2
176
     1
 90
        0
176
     1
 90
        0
176
     1
 40
0.6
176
     1
 40
30.0
176
     1
 62
     7
420
 16777215
176
     1
 90
        1
176
     1
 90
        4
176
     1
 62
     7
176
     1
 62
   257
176
     1
 90
        1
176
     1
 90
        1
176
     1
 40
1.0
176
     1
 90
        0
176
     1
 62
   257
176
     1
 40
1.0
176
     1
 90
        1
176
     1
 90
        6
176
     1
 90
        2
176
     1
 62
     7
176
     1
 90
        3
176
     1
 90
        0
176
     1
 90
        0
176
     1
290
     0
176
     1
 90
        1
176
     1
 40
0.0
176
     1
 90
        0
176
     1
290
     0
176
     1
290
     1
176
     1
290
     1
176
     1
290
     0
176
     1
290
     0
176
     1
290
     0
176
     1
290
     0
176
     1
290
     0
176
     1
290
     0
176
     1
 90
       50
176
     1
 40
0.0
176
     1
 40
1.0
176
     1
 90
        0
176
     1
 62
    18
420
        0
176
     1
 90
       50
176
     1
 90
        3
176
     1
 62
     5
420
      255
176
     1
290
     0
176
     1
 90
       50
176
     1
 90
       50
176
     1
 90
       50
176
     1
290
     0
176
     1
 90
       50
176
     1
 62
   256
176
     0
 40
1.0
176
     0
 90
        2
176
     1
  1
strokes_ogs.tif
176
     1
290
     0
176
     1
 40
1.0
176
     1
 40
1.0
176
     1
  0
VISUALSTYLE
  5
40
102
{ACAD_REACTORS
330
2A
102
}
330
2A
100
AcDbVisualStyle
  2
X-Ray
 70
    25
177
     3
291
     0
 70
    58
 90
        2
176
     1
 90
        2
176
     1
 90
        1
176
     1
 90
        1
176
     1
 40
0.5
176
     1
 40
30.0
176
     1
 62
     7
420
 16777215
176
     1
 90
        1
176
     1
 90
        0
176
     1
 62
     7
176
     1
 62
   257
176
     1
 90
        1
176
     1
 90
        1
176
     1
 40
1.0
176
     1
 90
        8
176
     1
 62
     7
176
     1
 40
1.0
176
     1
 90
        1
176
     1
 90
        6
176
     1
 90
        2
176
     1
 62
     7
176
     1
 90
        3
176
     1
 90
        0
176
     1
 90
        0
176
     1
290
     0
176
     1
 90
       13
176
     1
 40
0.0
176
     1
 90
        0
176
     1
290
     0
176
     1
290
     1
176
     1
290
     1
176
     1
290
     0
176
     1
290
     0
176
     1
290
     0
176
     1
290
     0
176
     1
290
     0
176
     1
290
     0
176
     1
 90
       50
176
     1
 40
0.0
176
     1
 40
1.0
176
     1
 90
        0
176
     1
 62
    18
420
        0
176
     1
 90
       50
176
     1
 90
        3
176
     1
 62
     5
420
      255
176
     1
290
     0
176
     1
 90
       50
176
     1
 90
       50
176
     1
 90
       50
176
     1
290
     0
176
     1
 90
       50
176
     1
 62
   256
176
     0
 40
1.0
176
     0
 90
        2
176
     1
  1
strokes_ogs.tif
176
     1
290
     0
176
     1
 40
1.0
176
     1
 40
1.0
176
     1
  0
DICTIONARYVAR
  5
72
102
{ACAD_REACTORS
330
71
102
}
330
71
100
DictionaryVariables
280
     0
  1
1:1
  0
DICTIONARYVAR
  5
77
102
{ACAD_REACTORS
330
71
102
}
330
71
100
DictionaryVariables
280
     0
  1
Standard
  0
DICTIONARYVAR
  5
76
102
{ACAD_REACTORS
330
71
102
}
330
71
100
DictionaryVariables
280
     0
  1
Standard
  0
DICTIONARY
  5
73
330
5A
100
AcDbDictionary
280
     1
281
     1
  3
ACAD_ROUNDTRIP_2008_TABLESTYLE_CELLSTYLEMAP
360
74
  0
CELLSTYLEMAP
  5
74
102
{ACAD_REACTORS
330
73
102
}
330
73
100
AcDbCellStyleMap
 90
        3
300
CELLSTYLE
  1
TABLEFORMAT_BEGIN
 90
        5
170
     1
 91
        0
 92
    32768
 62
   257
 93
        1
300
CONTENTFORMAT
  1
CONTENTFORMAT_BEGIN
 90
        0
 91
        0
 92
        4
 93
        0
300

 40
0.0
140
1.0
 94
        5
 62
     0
340
11
144
0.25
309
CONTENTFORMAT_END
171
     1
301
MARGIN
  1
CELLMARGIN_BEGIN
 40
0.06
 40
0.06
 40
0.06
 40
0.06
 40
0.06
 40
0.06
309
CELLMARGIN_END
 94
        6
 95
        1
302
GRIDFORMAT
  1
GRIDFORMAT_BEGIN
 90
        0
 91
        1
 62
     0
 92
       -2
340
14
 93
        0
 40
0.045
309
GRIDFORMAT_END
 95
        2
302
GRIDFORMAT
  1
GRIDFORMAT_BEGIN
 90
        0
 91
        1
 62
     0
 92
       -2
340
14
 93
        0
 40
0.045
309
GRIDFORMAT_END
 95
        4
302
GRIDFORMAT
  1
GRIDFORMAT_BEGIN
 90
        0
 91
        1
 62
     0
 92
       -2
340
14
 93
        0
 40
0.045
309
GRIDFORMAT_END
 95
        8
302
GRIDFORMAT
  1
GRIDFORMAT_BEGIN
 90
        0
 91
        1
 62
     0
 92
       -2
340
14
 93
        0
 40
0.045
309
GRIDFORMAT_END
 95
       16
302
GRIDFORMAT
  1
GRIDFORMAT_BEGIN
 90
        0
 91
        1
 62
     0
 92
       -2
340
14
 93
        0
 40
0.045
309
GRIDFORMAT_END
 95
       32
302
GRIDFORMAT
  1
GRIDFORMAT_BEGIN
 90
        0
 91
        1
 62
     0
 92
       -2
340
14
 93
        0
 40
0.045
309
GRIDFORMAT_END
309
TABLEFORMAT_END
  1
CELLSTYLE_BEGIN
 90
        1
 91
        1
300
_TITLE
309
CELLSTYLE_END
300
CELLSTYLE
  1
TABLEFORMAT_BEGIN
 90
        5
170
     1
 91
        0
 92
        0
 62
   257
 93
        1
300
CONTENTFORMAT
  1
CONTENTFORMAT_BEGIN
 90
        0
 91
        0
 92
        4
 93
        0
300

 40
0.0
140
1.0
 94
        5
 62
     0
340
11
144
0.18
309
CONTENTFORMAT_END
171
     1
301
MARGIN
  1
CELLMARGIN_BEGIN
 40
0.06
 40
0.06
 40
0.06
 40
0.06
 40
0.06
 40
0.06
309
CELLMARGIN_END
 94
        6
 95
        1
302
GRIDFORMAT
  1
GRIDFORMAT_BEGIN
 90
        0
 91
        1
 62
     0
 92
       -2
340
14
 93
        0
 40
0.045
309
GRIDFORMAT_END
 95
        2
302
GRIDFORMAT
  1
GRIDFORMAT_BEGIN
 90
        0
 91
        1
 62
     0
 92
       -2
340
14
 93
        0
 40
0.045
309
GRIDFORMAT_END
 95
        4
302
GRIDFORMAT
  1
GRIDFORMAT_BEGIN
 90
        0
 91
        1
 62
     0
 92
       -2
340
14
 93
        0
 40
0.045
309
GRIDFORMAT_END
 95
        8
302
GRIDFORMAT
  1
GRIDFORMAT_BEGIN
 90
        0
 91
        1
 62
     0
 92
       -2
340
14
 93
        0
 40
0.045
309
GRIDFORMAT_END
 95
       16
302
GRIDFORMAT
  1
GRIDFORMAT_BEGIN
 90
        0
 91
        1
 62
     0
 92
       -2
340
14
 93
        0
 40
0.045
309
GRIDFORMAT_END
 95
       32
302
GRIDFORMAT
  1
GRIDFORMAT_BEGIN
 90
        0
 91
        1
 62
     0
 92
       -2
340
14
 93
        0
 40
0.045
309
GRIDFORMAT_END
309
TABLEFORMAT_END
  1
CELLSTYLE_BEGIN
 90
        2
 91
        1
300
_HEADER
309
CELLSTYLE_END
300
CELLSTYLE
  1
TABLEFORMAT_BEGIN
 90
        5
170
     1
 91
        0
 92
        0
 62
   257
 93
        1
300
CONTENTFORMAT
  1
CONTENTFORMAT_BEGIN
 90
        0
 91
        0
 92
        4
 93
        0
300

 40
0.0
140
1.0
 94
        2
 62
     0
340
11
144
0.18
309
CONTENTFORMAT_END
171
     1
301
MARGIN
  1
CELLMARGIN_BEGIN
 40
0.06
 40
0.06
 40
0.06
 40
0.06
 40
0.06
 40
0.06
309
CELLMARGIN_END
 94
        6
 95
        1
302
GRIDFORMAT
  1
GRIDFORMAT_BEGIN
 90
        0
 91
        1
 62
     0
 92
       -2
340
14
 93
        0
 40
0.045
309
GRIDFORMAT_END
 95
        2
302
GRIDFORMAT
  1
GRIDFORMAT_BEGIN
 90
        0
 91
        1
 62
     0
 92
       -2
340
14
 93
        0
 40
0.045
309
GRIDFORMAT_END
 95
        4
302
GRIDFORMAT
  1
GRIDFORMAT_BEGIN
 90
        0
 91
        1
 62
     0
 92
       -2
340
14
 93
        0
 40
0.045
309
GRIDFORMAT_END
 95
        8
302
GRIDFORMAT
  1
GRIDFORMAT_BEGIN
 90
        0
 91
        1
 62
     0
 92
       -2
340
14
 93
        0
 40
0.045
309
GRIDFORMAT_END
 95
       16
302
GRIDFORMAT
  1
GRIDFORMAT_BEGIN
 90
        0
 91
        1
 62
     0
 92
       -2
340
14
 93
        0
 40
0.045
309
GRIDFORMAT_END
 95
       32
302
GRIDFORMAT
  1
GRIDFORMAT_BEGIN
 90
        0
 91
        1
 62
     0
 92
       -2
340
14
 93
        0
 40
0.045
309
GRIDFORMAT_END
309
TABLEFORMAT_END
  1
CELLSTYLE_BEGIN
 90
        3
 91
        2
300
_DATA
309
CELLSTYLE_END
  0
ENDSEC
  0
EOF
