  0
SECTION
  2
HEADER
  9
$ACADVER
  1
AC1032
  9
$ACADMAINTVER
 90
       55
  9
$DWGCODEPAGE
  3
ANSI_1252
  9
$LASTSAVEDBY
  1
LYI-002
  9
$REQUIREDVERSIONS
160
                 0
  9
$INSBASE
 10
0.0
 20
0.0
 30
0.0
  9
$EXTMIN
 10
-139.1442
 20
-300.8975
 30
0.0
  9
$EXTMAX
 10
139.0199
 20
300.7557
 30
0.0
  9
$LIMMIN
 10
0.0
 20
0.0
  9
$LIMMAX
 10
12.0
 20
9.0
  9
$ORTHOMODE
 70
     0
  9
$REGENMODE
 70
     1
  9
$FILLMODE
 70
     1
  9
$QTEXTMODE
 70
     0
  9
$MIRRTEXT
 70
     1
  9
$LTSCALE
 40
1.0
  9
$ATTMODE
 70
     1
  9
$TEXTSIZE
 40
0.2
  9
$TRACEWID
 40
0.05
  9
$TEXTSTYLE
  7
Standard
  9
$CLAYER
  8
0
  9
$CELTYPE
  6
ByLayer
  9
$CECOLOR
 62
   256
  9
$CELTSCALE
 40
1.0
  9
$DISPSILH
 70
     0
  9
$DIMSCALE
 40
1.0
  9
$DIMASZ
 40
0.18
  9
$DIMEXO
 40
0.0625
  9
$DIMDLI
 40
0.38
  9
$DIMRND
 40
0.0
  9
$DIMDLE
 40
0.0
  9
$DIMEXE
 40
0.18
  9
$DIMTP
 40
0.0
  9
$DIMTM
 40
0.0
  9
$DIMTXT
 40
0.18
  9
$DIMCEN
 40
0.09
  9
$DIMTSZ
 40
0.0
  9
$DIMTOL
 70
     0
  9
$DIMLIM
 70
     0
  9
$DIMTIH
 70
     1
  9
$DIMTOH
 70
     1
  9
$DIMSE1
 70
     0
  9
$DIMSE2
 70
     0
  9
$DIMTAD
 70
     0
  9
$DIMZIN
 70
     0
  9
$DIMBLK
  1

  9
$DIMASO
 70
     1
  9
$DIMSHO
 70
     1
  9
$DIMPOST
  1

  9
$DIMAPOST
  1

  9
$DIMALT
 70
     0
  9
$DIMALTD
 70
     2
  9
$DIMALTF
 40
25.4
  9
$DIMLFAC
 40
1.0
  9
$DIMTOFL
 70
     0
  9
$DIMTVP
 40
0.0
  9
$DIMTIX
 70
     0
  9
$DIMSOXD
 70
     0
  9
$DIMSAH
 70
     0
  9
$DIMBLK1
  1

  9
$DIMBLK2
  1

  9
$DIMSTYLE
  2
Standard
  9
$DIMCLRD
 70
     0
  9
$DIMCLRE
 70
     0
  9
$DIMCLRT
 70
     0
  9
$DIMTFAC
 40
1.0
  9
$DIMGAP
 40
0.09
  9
$DIMJUST
 70
     0
  9
$DIMSD1
 70
     0
  9
$DIMSD2
 70
     0
  9
$DIMTOLJ
 70
     1
  9
$DIMTZIN
 70
     0
  9
$DIMALTZ
 70
     0
  9
$DIMALTTZ
 70
     0
  9
$DIMUPT
 70
     0
  9
$DIMDEC
 70
     4
  9
$DIMTDEC
 70
     4
  9
$DIMALTU
 70
     2
  9
$DIMALTTD
 70
     2
  9
$DIMTXSTY
  7
Standard
  9
$DIMAUNIT
 70
     0
  9
$DIMADEC
 70
     0
  9
$DIMALTRND
 40
0.0
  9
$DIMAZIN
 70
     0
  9
$DIMDSEP
 70
    46
  9
$DIMATFIT
 70
     3
  9
$DIMFRAC
 70
     0
  9
$DIMLDRBLK
  1

  9
$DIMLUNIT
 70
     2
  9
$DIMLWD
 70
    -2
  9
$DIMLWE
 70
    -2
  9
$DIMTMOVE
 70
     0
  9
$DIMFXL
 40
1.0
  9
$DIMFXLON
 70
     0
  9
$DIMJOGANG
 40
0.7853981633974483
  9
$DIMTFILL
 70
     0
  9
$DIMTFILLCLR
 70
     0
  9
$DIMARCSYM
 70
     0
  9
$DIMLTYPE
  6

  9
$DIMLTEX1
  6

  9
$DIMLTEX2
  6

  9
$DIMTXTDIRECTION
 70
     0
  9
$LUNITS
 70
     2
  9
$LUPREC
 70
     4
  9
$SKETCHINC
 40
0.1
  9
$FILLETRAD
 40
0.0
  9
$AUNITS
 70
     0
  9
$AUPREC
 70
     0
  9
$MENU
  1
.
  9
$ELEVATION
 40
0.0
  9
$PELEVATION
 40
0.0
  9
$THICKNESS
 40
0.0
  9
$LIMCHECK
 70
     0
  9
$CHAMFERA
 40
0.0
  9
$CHAMFERB
 40
0.0
  9
$CHAMFERC
 40
0.0
  9
$CHAMFERD
 40
0.0
  9
$SKPOLY
 70
     0
  9
$TDCREATE
 40
2460649.75072904
  9
$TDUCREATE
 40
2460649.521562373
  9
$TDUPDATE
 40
2460649.75072904
  9
$TDUUPDATE
 40
2460649.521562373
  9
$TDINDWG
 40
0.0000000116
  9
$TDUSRTIMER
 40
0.0000000116
  9
$USRTIMER
 70
     1
  9
$ANGBASE
 50
0.0
  9
$ANGDIR
 70
     0
  9
$PDMODE
 70
     0
  9
$PDSIZE
 40
0.0
  9
$PLINEWID
 40
0.0
  9
$SPLFRAME
 70
     0
  9
$SPLINETYPE
 70
     6
  9
$SPLINESEGS
 70
     8
  9
$HANDSEED
  5
82
  9
$SURFTAB1
 70
     6
  9
$SURFTAB2
 70
     6
  9
$SURFTYPE
 70
     6
  9
$SURFU
 70
     6
  9
$SURFV
 70
     6
  9
$UCSBASE
  2

  9
$UCSNAME
  2

  9
$UCSORG
 10
0.0
 20
0.0
 30
0.0
  9
$UCSXDIR
 10
1.0
 20
0.0
 30
0.0
  9
$UCSYDIR
 10
0.0
 20
1.0
 30
0.0
  9
$UCSORTHOREF
  2

  9
$UCSORTHOVIEW
 70
     0
  9
$UCSORGTOP
 10
0.0
 20
0.0
 30
0.0
  9
$UCSORGBOTTOM
 10
0.0
 20
0.0
 30
0.0
  9
$UCSORGLEFT
 10
0.0
 20
0.0
 30
0.0
  9
$UCSORGRIGHT
 10
0.0
 20
0.0
 30
0.0
  9
$UCSORGFRONT
 10
0.0
 20
0.0
 30
0.0
  9
$UCSORGBACK
 10
0.0
 20
0.0
 30
0.0
  9
$PUCSBASE
  2

  9
$PUCSNAME
  2

  9
$PUCSORG
 10
0.0
 20
0.0
 30
0.0
  9
$PUCSXDIR
 10
1.0
 20
0.0
 30
0.0
  9
$PUCSYDIR
 10
0.0
 20
1.0
 30
0.0
  9
$PUCSORTHOREF
  2

  9
$PUCSORTHOVIEW
 70
     0
  9
$PUCSORGTOP
 10
0.0
 20
0.0
 30
0.0
  9
$PUCSORGBOTTOM
 10
0.0
 20
0.0
 30
0.0
  9
$PUCSORGLEFT
 10
0.0
 20
0.0
 30
0.0
  9
$PUCSORGRIGHT
 10
0.0
 20
0.0
 30
0.0
  9
$PUCSORGFRONT
 10
0.0
 20
0.0
 30
0.0
  9
$PUCSORGBACK
 10
0.0
 20
0.0
 30
0.0
  9
$USERI1
 70
     0
  9
$USERI2
 70
     0
  9
$USERI3
 70
     0
  9
$USERI4
 70
     0
  9
$USERI5
 70
     0
  9
$USERR1
 40
0.0
  9
$USERR2
 40
0.0
  9
$USERR3
 40
0.0
  9
$USERR4
 40
0.0
  9
$USERR5
 40
0.0
  9
$WORLDVIEW
 70
     1
  9
$SHADEDGE
 70
     3
  9
$SHADEDIF
 70
    70
  9
$TILEMODE
 70
     1
  9
$MAXACTVP
 70
    64
  9
$PINSBASE
 10
0.0
 20
0.0
 30
0.0
  9
$PLIMCHECK
 70
     0
  9
$PEXTMIN
 10
1.000000000000000E+20
 20
1.000000000000000E+20
 30
1.000000000000000E+20
  9
$PEXTMAX
 10
-1.000000000000000E+20
 20
-1.000000000000000E+20
 30
-1.000000000000000E+20
  9
$PLIMMIN
 10
0.0
 20
0.0
  9
$PLIMMAX
 10
12.0
 20
9.0
  9
$UNITMODE
 70
     0
  9
$VISRETAIN
 70
     1
  9
$PLINEGEN
 70
     0
  9
$PSLTSCALE
 70
     1
  9
$TREEDEPTH
 70
  3020
  9
$CMLSTYLE
  2
Standard
  9
$CMLJUST
 70
     0
  9
$CMLSCALE
 40
1.0
  9
$PROXYGRAPHICS
 70
     1
  9
$MEASUREMENT
 70
     0
  9
$CELWEIGHT
370
    -1
  9
$ENDCAPS
280
     0
  9
$JOINSTYLE
280
     0
  9
$LWDISPLAY
290
     0
  9
$INSUNITS
 70
     4
  9
$HYPERLINKBASE
  1

  9
$STYLESHEET
  1

  9
$XEDIT
290
     1
  9
$CEPSNTYPE
380
     0
  9
$PSTYLEMODE
290
     1
  9
$FINGERPRINTGUID
  2
{e0d63d8f-5082-41b9-bfea-086c0bd0f876}
  9
$VERSIONGUID
  2
{FAEB1C32-E019-11D5-929B-00C0DF256EC4}
  9
$EXTNAMES
290
     1
  9
$PSVPSCALE
 40
0.0
  9
$OLESTARTUP
290
     0
  9
$SORTENTS
280
   127
  9
$INDEXCTL
280
     0
  9
$HIDETEXT
280
     1
  9
$XCLIPFRAME
280
     2
  9
$HALOGAP
280
     0
  9
$OBSCOLOR
 70
   257
  9
$OBSLTYPE
280
     0
  9
$INTERSECTIONDISPLAY
280
     0
  9
$INTERSECTIONCOLOR
 70
   257
  9
$DIMASSOC
280
     2
  9
$PROJECTNAME
  1

  9
$CAMERADISPLAY
290
     0
  9
$LENSLENGTH
 40
50.0
  9
$CAMERAHEIGHT
 40
0.0
  9
$STEPSPERSEC
 40
2.0
  9
$STEPSIZE
 40
6.0
  9
$3DDWFPREC
 40
2.0
  9
$PSOLWIDTH
 40
0.25
  9
$PSOLHEIGHT
 40
4.0
  9
$LOFTANG1
 40
1.570796326794897
  9
$LOFTANG2
 40
1.570796326794897
  9
$LOFTMAG1
 40
0.0
  9
$LOFTMAG2
 40
0.0
  9
$LOFTPARAM
 70
     7
  9
$LOFTNORMALS
280
     1
  9
$LATITUDE
 40
37.795
  9
$LONGITUDE
 40
-122.394
  9
$NORTHDIRECTION
 40
0.0
  9
$TIMEZONE
 70
 -8000
  9
$LIGHTGLYPHDISPLAY
280
     1
  9
$TILEMODELIGHTSYNCH
280
     1
  9
$CMATERIAL
347
44
  9
$SOLIDHIST
280
     0
  9
$SHOWHIST
280
     1
  9
$DWFFRAME
280
     2
  9
$DGNFRAME
280
     2
  9
$REALWORLDSCALE
290
     1
  9
$INTERFERECOLOR
 62
   256
  9
$CSHADOW
280
     0
  9
$SHADOWPLANELOCATION
 40
0.0
  0
ENDSEC
  0
SECTION
  2
CLASSES
  0
CLASS
  1
ACDBDICTIONARYWDFLT
  2
AcDbDictionaryWithDefault
  3
ObjectDBX Classes
 90
        0
 91
        3
280
     0
281
     0
  0
CLASS
  1
VISUALSTYLE
  2
AcDbVisualStyle
  3
ObjectDBX Classes
 90
     4095
 91
        3
280
     0
281
     0
  0
CLASS
  1
MATERIAL
  2
AcDbMaterial
  3
ObjectDBX Classes
 90
     1153
 91
        3
280
     0
281
     0
  0
CLASS
  1
SCALE
  2
AcDbScale
  3
ObjectDBX Classes
 90
     1153
 91
        3
280
     0
281
     0
  0
CLASS
  1
TABLESTYLE
  2
AcDbTableStyle
  3
ObjectDBX Classes
 90
     4095
 91
        3
280
     0
281
     0
  0
CLASS
  1
MLEADERSTYLE
  2
AcDbMLeaderStyle
  3
ACDB_MLEADERSTYLE_CLASS
 90
     4095
 91
        3
280
     0
281
     0
  0
CLASS
  1
SUN
  2
AcDbSun
  3
SCENEOE
 90
     1153
 91
        3
280
     0
281
     0
  0
CLASS
  1
DICTIONARYVAR
  2
AcDbDictionaryVar
  3
ObjectDBX Classes
 90
        0
 91
        3
280
     0
281
     0
  0
CLASS
  1
CELLSTYLEMAP
  2
AcDbCellStyleMap
  3
ObjectDBX Classes
 90
     1152
 91
        3
280
     0
281
     0
  0
ENDSEC
  0
SECTION
  2
TABLES
  0
TABLE
  2
VPORT
  5
8
330
0
100
AcDbSymbolTable
 70
     1
  0
VPORT
  5
29
330
8
100
AcDbSymbolTableRecord
100
AcDbViewportTableRecord
  2
*Active
 70
     0
 10
0.0
 20
0.0
 11
1.0
 21
1.0
 12
10.42990654205607
 22
4.5
 13
0.0
 23
0.0
 14
0.5
 24
0.5
 15
0.5
 25
0.5
 16
0.0
 26
0.0
 36
1.0
 17
0.0
 27
0.0
 37
0.0
 40
9.0
 41
1.972972972850329
 42
50.0
 43
0.0
 44
0.0
 50
0.0
 51
0.0
 71
     0
 72
   100
 73
     1
 74
     3
 75
     0
 76
     0
 77
     0
 78
     0
281
     0
 65
     1
110
0.0
120
0.0
130
0.0
111
1.0
121
0.0
131
0.0
112
0.0
122
1.0
132
0.0
 79
     0
146
0.0
348
2F
 60
     3
 61
     5
292
     1
282
     1
141
0.0
142
0.0
 63
   250
361
5D
  0
ENDTAB
  0
TABLE
  2
LTYPE
  5
5
330
0
100
AcDbSymbolTable
 70
     1
  0
LTYPE
  5
14
330
5
100
AcDbSymbolTableRecord
100
AcDbLinetypeTableRecord
  2
ByBlock
 70
     0
  3

 72
    65
 73
     0
 40
0.0
  0
LTYPE
  5
15
330
5
100
AcDbSymbolTableRecord
100
AcDbLinetypeTableRecord
  2
ByLayer
 70
     0
  3

 72
    65
 73
     0
 40
0.0
  0
LTYPE
  5
16
330
5
100
AcDbSymbolTableRecord
100
AcDbLinetypeTableRecord
  2
Continuous
 70
     0
  3
Solid line
 72
    65
 73
     0
 40
0.0
  0
ENDTAB
  0
TABLE
  2
LAYER
  5
2
330
0
100
AcDbSymbolTable
 70
     2
  0
LAYER
  5
10
330
2
100
AcDbSymbolTableRecord
100
AcDbLayerTableRecord
  2
0
 70
     0
 62
     7
  6
Continuous
370
    -3
390
F
347
46
348
0
  0
LAYER
  5
5F
330
2
100
AcDbSymbolTableRecord
100
AcDbLayerTableRecord
  2
Layer 1
 70
     0
 62
     7
  6
Continuous
370
    -3
390
F
347
46
348
0
  0
ENDTAB
  0
TABLE
  2
STYLE
  5
3
330
0
100
AcDbSymbolTable
 70
     1
  0
STYLE
  5
11
330
3
100
AcDbSymbolTableRecord
100
AcDbTextStyleTableRecord
  2
Standard
 70
     0
 40
0.0
 41
1.0
 50
0.0
 71
     0
 42
0.2
  3
txt
  4

  0
ENDTAB
  0
TABLE
  2
VIEW
  5
6
330
0
100
AcDbSymbolTable
 70
     0
  0
ENDTAB
  0
TABLE
  2
UCS
  5
7
330
0
100
AcDbSymbolTable
 70
     0
  0
ENDTAB
  0
TABLE
  2
APPID
  5
9
330
0
100
AcDbSymbolTable
 70
     2
  0
APPID
  5
12
330
9
100
AcDbSymbolTableRecord
100
AcDbRegAppTableRecord
  2
ACAD
 70
     0
  0
APPID
  5
5E
330
9
100
AcDbSymbolTableRecord
100
AcDbRegAppTableRecord
  2
ODA
 70
     0
  0
ENDTAB
  0
TABLE
  2
DIMSTYLE
  5
A
330
0
100
AcDbSymbolTable
 70
     1
100
AcDbDimStyleTable
  0
DIMSTYLE
105
27
330
A
100
AcDbSymbolTableRecord
100
AcDbDimStyleTableRecord
  2
Standard
 70
     0
178
     0
340
11
  0
ENDTAB
  0
TABLE
  2
BLOCK_RECORD
  5
1
330
0
100
AcDbSymbolTable
 70
     1
  0
BLOCK_RECORD
  5
1F
330
1
100
AcDbSymbolTableRecord
100
AcDbBlockTableRecord
  2
*Model_Space
340
22
 70
     0
280
     1
281
     0
  0
BLOCK_RECORD
  5
1B
330
1
100
AcDbSymbolTableRecord
100
AcDbBlockTableRecord
  2
*Paper_Space
340
1E
 70
     0
280
     1
281
     0
  0
BLOCK_RECORD
  5
23
330
1
100
AcDbSymbolTableRecord
100
AcDbBlockTableRecord
  2
*Paper_Space0
340
26
 70
     0
280
     1
281
     0
  0
ENDTAB
  0
ENDSEC
  0
SECTION
  2
BLOCKS
  0
BLOCK
  5
20
330
1F
100
AcDbEntity
  8
0
100
AcDbBlockBegin
  2
*Model_Space
 70
     0
 10
0.0
 20
0.0
 30
0.0
  3
*Model_Space
  1

  0
ENDBLK
  5
21
330
1F
100
AcDbEntity
  8
0
100
AcDbBlockEnd
  0
BLOCK
  5
1C
330
1B
100
AcDbEntity
 67
     1
  8
0
100
AcDbBlockBegin
  2
*Paper_Space
 70
     0
 10
0.0
 20
0.0
 30
0.0
  3
*Paper_Space
  1

  0
ENDBLK
  5
1D
330
1B
100
AcDbEntity
 67
     1
  8
0
100
AcDbBlockEnd
  0
BLOCK
  5
24
330
23
100
AcDbEntity
  8
0
100
AcDbBlockBegin
  2
*Paper_Space0
 70
     0
 10
0.0
 20
0.0
 30
0.0
  3
*Paper_Space0
  1

  0
ENDBLK
  5
25
330
23
100
AcDbEntity
  8
0
100
AcDbBlockEnd
  0
ENDSEC
  0
SECTION
  2
ENTITIES
  0
SPLINE
  5
60
330
1F
100
AcDbEntity
  8
Layer 1
 62
   250
370
    20
100
AcDbSpline
210
0.0
220
0.0
230
1.0
 70
    11
 71
     3
 72
   137
 73
   133
 74
     0
 42
0.0000000001
 43
0.0000000001
 40
0.0
 40
0.0
 40
0.0
 40
0.0
 40
0.0227272727272727
 40
0.0227272727272727
 40
0.0227272727272727
 40
0.0454545454545455
 40
0.0454545454545455
 40
0.0454545454545455
 40
0.0681818181818182
 40
0.0681818181818182
 40
0.0681818181818182
 40
0.0909090909090909
 40
0.0909090909090909
 40
0.0909090909090909
 40
0.1136363636363636
 40
0.1136363636363636
 40
0.1136363636363636
 40
0.1363636363636364
 40
0.1363636363636364
 40
0.1363636363636364
 40
0.1590909090909091
 40
0.1590909090909091
 40
0.1590909090909091
 40
0.1818181818181818
 40
0.1818181818181818
 40
0.1818181818181818
 40
0.2045454545454546
 40
0.2045454545454546
 40
0.2045454545454546
 40
0.2272727272727273
 40
0.2272727272727273
 40
0.2272727272727273
 40
0.25
 40
0.25
 40
0.25
 40
0.2727272727272727
 40
0.2727272727272727
 40
0.2727272727272727
 40
0.2954545454545455
 40
0.2954545454545455
 40
0.2954545454545455
 40
0.3181818181818182
 40
0.3181818181818182
 40
0.3181818181818182
 40
0.3409090909090909
 40
0.3409090909090909
 40
0.3409090909090909
 40
0.3636363636363636
 40
0.3636363636363636
 40
0.3636363636363636
 40
0.3863636363636364
 40
0.3863636363636364
 40
0.3863636363636364
 40
0.4090909090909091
 40
0.4090909090909091
 40
0.4090909090909091
 40
0.4318181818181818
 40
0.4318181818181818
 40
0.4318181818181818
 40
0.4545454545454546
 40
0.4545454545454546
 40
0.4545454545454546
 40
0.4772727272727273
 40
0.4772727272727273
 40
0.4772727272727273
 40
0.5
 40
0.5
 40
0.5
 40
0.5227272727272727
 40
0.5227272727272727
 40
0.5227272727272727
 40
0.5454545454545454
 40
0.5454545454545454
 40
0.5454545454545454
 40
0.5681818181818182
 40
0.5681818181818182
 40
0.5681818181818182
 40
0.5909090909090909
 40
0.5909090909090909
 40
0.5909090909090909
 40
0.6136363636363636
 40
0.6136363636363636
 40
0.6136363636363636
 40
0.6363636363636364
 40
0.6363636363636364
 40
0.6363636363636364
 40
0.6590909090909091
 40
0.6590909090909091
 40
0.6590909090909091
 40
0.6818181818181819
 40
0.6818181818181819
 40
0.6818181818181819
 40
0.7045454545454546
 40
0.7045454545454546
 40
0.7045454545454546
 40
0.7272727272727273
 40
0.7272727272727273
 40
0.7272727272727273
 40
0.75
 40
0.75
 40
0.75
 40
0.7727272727272727
 40
0.7727272727272727
 40
0.7727272727272727
 40
0.7954545454545455
 40
0.7954545454545455
 40
0.7954545454545455
 40
0.8181818181818182
 40
0.8181818181818182
 40
0.8181818181818182
 40
0.8409090909090909
 40
0.8409090909090909
 40
0.8409090909090909
 40
0.8636363636363636
 40
0.8636363636363636
 40
0.8636363636363636
 40
0.8863636363636364
 40
0.8863636363636364
 40
0.8863636363636364
 40
0.9090909090909092
 40
0.9090909090909092
 40
0.9090909090909092
 40
0.9318181818181819
 40
0.9318181818181819
 40
0.9318181818181819
 40
0.9545454545454546
 40
0.9545454545454546
 40
0.9545454545454546
 40
0.9772727272727273
 40
0.9772727272727273
 40
0.9772727272727273
 40
1.0
 40
1.0
 40
1.0
 40
1.0
 10
5.8368
 20
-295.8357
 30
0.0
 10
5.8368
 20
-295.8357
 30
0.0
 10
85.2824
 20
-295.8357
 30
0.0
 10
85.2824
 20
-295.8357
 30
0.0
 10
85.3308
 20
-286.2371
 30
0.0
 10
83.163
 20
-276.6899
 30
0.0
 10
79.097
 20
-268.1312
 30
0.0
 10
76.467
 20
-262.5917
 30
0.0
 10
71.441
 20
-254.6276
 30
0.0
 10
66.3054
 20
-251.4445
 30
0.0
 10
63.0078
 20
-249.3952
 30
0.0
 10
59.3467
 20
-246.5676
 30
0.0
 10
57.4228
 20
-242.9342
 30
0.0
 10
56.6081
 20
-241.4014
 30
0.0
 10
56.0323
 20
-239.521
 30
0.0
 10
56.135
 20
-237.7196
 30
0.0
 10
55.2916
 20
-225.0386
 30
0.0
 10
52.4759
 20
-213.2041
 30
0.0
 10
46.8159
 20
-202.0085
 30
0.0
 10
45.0846
 20
-198.5825
 30
0.0
 10
43.1489
 20
-195.4102
 30
0.0
 10
41.2102
 20
-192.1304
 30
0.0
 10
39.7297
 20
-189.6307
 30
0.0
 10
37.9678
 20
-186.6511
 30
0.0
 10
37.8256
 20
-183.6231
 30
0.0
 10
37.6557
 20
-179.9788
 30
0.0
 10
36.0519
 20
-174.8274
 30
0.0
 10
34.6682
 20
-171.4093
 30
0.0
 10
32.5616
 20
-167.5665
 30
0.0
 10
29.7005
 20
-161.621
 30
0.0
 10
28.9173
 20
-157.4079
 30
0.0
 10
28.0068
 20
-152.5083
 30
0.0
 10
30.9745
 20
-149.0359
 30
0.0
 10
35.1344
 20
-147.8448
 30
0.0
 10
36.4272
 20
-147.4744
 30
0.0
 10
37.958
 20
-147.268
 30
0.0
 10
39.3594
 20
-147.2562
 30
0.0
 10
65.1292
 20
-140.4456
 30
0.0
 10
88.7361
 20
-118.8475
 30
0.0
 10
104.5597
 20
-96.48
 30
0.0
 10
108.0835
 20
-91.4995
 30
0.0
 10
111.8384
 20
-87.4977
 30
0.0
 10
117.7216
 20
-86.2621
 30
0.0
 10
121.4004
 20
-85.4859
 30
0.0
 10
123.432
 20
-85.7496
 30
0.0
 10
126.9123
 20
-83.5926
 30
0.0
 10
129.9492
 20
-81.7112
 30
0.0
 10
132.2079
 20
-78.8867
 30
0.0
 10
133.4394
 20
-75.3559
 30
0.0
 10
133.9026
 20
-74.0197
 30
0.0
 10
134.5258
 20
-71.2751
 30
0.0
 10
134.3125
 20
-69.5972
 30
0.0
 10
132.839
 20
-68.5503
 30
0.0
 10
128.4895
 20
-67.6644
 30
0.0
 10
127.0377
 20
-67.4886
 30
0.0
 10
127.0377
 20
-67.4886
 30
0.0
 10
122.4305
 20
-66.9425
 30
0.0
 10
122.4305
 20
-66.9425
 30
0.0
 10
122.4305
 20
-66.9425
 30
0.0
 10
122.9935
 20
-61.9836
 30
0.0
 10
122.9935
 20
-61.9836
 30
0.0
 10
123.8961
 20
-54.0205
 30
0.0
 10
123.1446
 20
-45.7325
 30
0.0
 10
119.3936
 20
-38.6651
 30
0.0
 10
119.2188
 20
-38.3382
 30
0.0
 10
119.0154
 20
-37.9777
 30
0.0
 10
118.7931
 20
-37.6014
 30
0.0
 10
117.7729
 20
-41.9548
 30
0.0
 10
117.2939
 20
-46.4929
 30
0.0
 10
117.2011
 20
-50.8997
 30
0.0
 10
117.13
 20
-54.1509
 30
0.0
 10
117.2209
 20
-57.9749
 30
0.0
 10
117.7048
 20
-61.2064
 30
0.0
 10
117.7048
 20
-61.2064
 30
0.0
 10
118.3527
 20
-65.5351
 30
0.0
 10
118.3527
 20
-65.5351
 30
0.0
 10
118.3527
 20
-65.5351
 30
0.0
 10
114.4388
 20
-66.7351
 30
0.0
 10
114.4388
 20
-66.7351
 30
0.0
 10
112.6907
 20
-67.2733
 30
0.0
 10
108.9545
 20
-67.2506
 30
0.0
 10
107.084
 20
-67.3148
 30
0.0
 10
105.087
 20
-67.38
 30
0.0
 10
103.0891
 20
-67.4343
 30
0.0
 10
101.0872
 20
-67.4768
 30
0.0
 10
101.0872
 20
-67.4768
 30
0.0
 10
101.0872
 20
-62.5614
 30
0.0
 10
101.0872
 20
-62.5614
 30
0.0
 10
107.2509
 20
-62.4231
 30
0.0
 10
112.4438
 20
-62.2384
 30
0.0
 10
113.1795
 20
-62.0123
 30
0.0
 10
113.1795
 20
-62.0123
 30
0.0
 10
110.4142
 20
-43.5676
 30
0.0
 10
117.0451
 20
-28.0966
 30
0.0
 10
117.0451
 20
-28.0966
 30
0.0
 10
130.3067
 20
-38.2128
 30
0.0
 10
127.5444
 20
-62.6098
 30
0.0
 10
127.5444
 20
-62.6098
 30
0.0
 10
137.4916
 20
-63.7949
 30
0.0
 10
138.5948
 20
-67.6644
 30
0.0
 10
139.7009
 20
-71.5319
 30
0.0
 10
138.3173
 20
-82.2396
 30
0.0
 10
129.2026
 20
-87.8937
 30
0.0
 10
120.0849
 20
-93.5478
 30
0.0
 10
117.0451
 20
-86.9999
 30
0.0
 10
108.2049
 20
-99.4972
 30
0.0
 10
99.3638
 20
-111.9964
 30
0.0
 10
74.1649
 20
-143.447
 30
0.0
 10
39.8739
 20
-152.2229
 30
0.0
 10
39.8739
 20
-152.2229
 30
0.0
 10
32.5676
 20
-151.9236
 30
0.0
 10
33.411
 20
-156.4657
 30
0.0
 10
34.2534
 20
-161.0018
 30
0.0
 10
38.751
 20
-169.1733
 30
0.0
 10
38.751
 20
-169.1733
 30
0.0
 10
38.751
 20
-169.1733
 30
0.0
 10
42.1247
 20
-177.3438
 30
0.0
 10
42.4042
 20
-183.3999
 30
0.0
 10
42.6866
 20
-189.45
 30
0.0
 10
58.5151
 20
-202.5971
 30
0.0
 10
60.7363
 20
-237.8381
 30
0.0
 10
60.7363
 20
-237.8381
 30
0.0
 10
59.9017
 20
-241.7975
 30
0.0
 10
68.5927
 20
-247.1879
 30
0.0
 10
77.2857
 20
-252.5763
 30
0.0
 10
91.772
 20
-273.8485
 30
0.0
 10
89.6635
 20
-300.7975
 30
0.0
 10
89.6635
 20
-300.7975
 30
0.0
 10
5.8368
 20
-300.7975
 30
0.0
 10
5.8368
 20
-300.7975
 30
0.0
 10
5.8368
 20
-300.7975
 30
0.0
 10
5.8368
 20
-295.8357
 30
0.0
 10
5.8368
 20
-295.8357
 30
0.0
  0
SPLINE
  5
61
330
1F
100
AcDbEntity
  8
Layer 1
 62
   250
370
    20
100
AcDbSpline
210
0.0
220
0.0
230
1.0
 70
    11
 71
     3
 72
   197
 73
   193
 74
     0
 42
0.0000000001
 43
0.0000000001
 40
0.0
 40
0.0
 40
0.0
 40
0.0
 40
0.015625
 40
0.015625
 40
0.015625
 40
0.03125
 40
0.03125
 40
0.03125
 40
0.046875
 40
0.046875
 40
0.046875
 40
0.0625
 40
0.0625
 40
0.0625
 40
0.078125
 40
0.078125
 40
0.078125
 40
0.09375
 40
0.09375
 40
0.09375
 40
0.109375
 40
0.109375
 40
0.109375
 40
0.125
 40
0.125
 40
0.125
 40
0.140625
 40
0.140625
 40
0.140625
 40
0.15625
 40
0.15625
 40
0.15625
 40
0.171875
 40
0.171875
 40
0.171875
 40
0.1875
 40
0.1875
 40
0.1875
 40
0.203125
 40
0.203125
 40
0.203125
 40
0.21875
 40
0.21875
 40
0.21875
 40
0.234375
 40
0.234375
 40
0.234375
 40
0.25
 40
0.25
 40
0.25
 40
0.265625
 40
0.265625
 40
0.265625
 40
0.28125
 40
0.28125
 40
0.28125
 40
0.296875
 40
0.296875
 40
0.296875
 40
0.3125
 40
0.3125
 40
0.3125
 40
0.328125
 40
0.328125
 40
0.328125
 40
0.34375
 40
0.34375
 40
0.34375
 40
0.359375
 40
0.359375
 40
0.359375
 40
0.375
 40
0.375
 40
0.375
 40
0.390625
 40
0.390625
 40
0.390625
 40
0.40625
 40
0.40625
 40
0.40625
 40
0.421875
 40
0.421875
 40
0.421875
 40
0.4375
 40
0.4375
 40
0.4375
 40
0.453125
 40
0.453125
 40
0.453125
 40
0.46875
 40
0.46875
 40
0.46875
 40
0.484375
 40
0.484375
 40
0.484375
 40
0.5
 40
0.5
 40
0.5
 40
0.515625
 40
0.515625
 40
0.515625
 40
0.53125
 40
0.53125
 40
0.53125
 40
0.546875
 40
0.546875
 40
0.546875
 40
0.5625
 40
0.5625
 40
0.5625
 40
0.578125
 40
0.578125
 40
0.578125
 40
0.59375
 40
0.59375
 40
0.59375
 40
0.609375
 40
0.609375
 40
0.609375
 40
0.625
 40
0.625
 40
0.625
 40
0.640625
 40
0.640625
 40
0.640625
 40
0.65625
 40
0.65625
 40
0.65625
 40
0.671875
 40
0.671875
 40
0.671875
 40
0.6875
 40
0.6875
 40
0.6875
 40
0.703125
 40
0.703125
 40
0.703125
 40
0.71875
 40
0.71875
 40
0.71875
 40
0.734375
 40
0.734375
 40
0.734375
 40
0.75
 40
0.75
 40
0.75
 40
0.765625
 40
0.765625
 40
0.765625
 40
0.78125
 40
0.78125
 40
0.78125
 40
0.796875
 40
0.796875
 40
0.796875
 40
0.8125
 40
0.8125
 40
0.8125
 40
0.828125
 40
0.828125
 40
0.828125
 40
0.84375
 40
0.84375
 40
0.84375
 40
0.859375
 40
0.859375
 40
0.859375
 40
0.875
 40
0.875
 40
0.875
 40
0.890625
 40
0.890625
 40
0.890625
 40
0.90625
 40
0.90625
 40
0.90625
 40
0.921875
 40
0.921875
 40
0.921875
 40
0.9375
 40
0.9375
 40
0.9375
 40
0.953125
 40
0.953125
 40
0.953125
 40
0.96875
 40
0.96875
 40
0.96875
 40
0.984375
 40
0.984375
 40
0.984375
 40
1.0
 40
1.0
 40
1.0
 40
1.0
 10
89.2842
 20
-67.692
 30
0.0
 10
85.6597
 20
-67.7464
 30
0.0
 10
82.0312
 20
-67.7859
 30
0.0
 10
78.4057
 20
-67.8155
 30
0.0
 10
78.4057
 20
-67.8155
 30
0.0
 10
73.675
 20
-67.8619
 30
0.0
 10
73.675
 20
-67.8619
 30
0.0
 10
73.675
 20
-67.8619
 30
0.0
 10
73.7846
 20
-62.7648
 30
0.0
 10
73.7846
 20
-62.7648
 30
0.0
 10
73.9772
 20
-53.8684
 30
0.0
 10
72.1521
 20
-44.9364
 30
0.0
 10
67.7029
 20
-37.3664
 30
0.0
 10
67.0787
 20
-36.3057
 30
0.0
 10
66.2412
 20
-35.0238
 30
0.0
 10
65.3129
 20
-33.7754
 30
0.0
 10
63.0562
 20
-38.7935
 30
0.0
 10
61.5461
 20
-44.2125
 30
0.0
 10
60.679
 20
-49.6888
 30
0.0
 10
60.1911
 20
-52.8008
 30
0.0
 10
59.7595
 20
-56.6999
 30
0.0
 10
59.879
 20
-59.885
 30
0.0
 10
59.879
 20
-59.885
 30
0.0
 10
59.9946
 20
-62.9209
 30
0.0
 10
59.9946
 20
-62.9209
 30
0.0
 10
59.9946
 20
-62.9209
 30
0.0
 10
57.5334
 20
-64.3954
 30
0.0
 10
57.5334
 20
-64.3954
 30
0.0
 10
56.2732
 20
-65.1559
 30
0.0
 10
54.5183
 20
-65.5726
 30
0.0
 10
53.104
 20
-65.7929
 30
0.0
 10
50.7752
 20
-66.1524
 30
0.0
 10
48.7595
 20
-64.9583
 30
0.0
 10
47.4608
 20
-62.9377
 30
0.0
 10
46.8899
 20
-62.0459
 30
0.0
 10
46.4791
 20
-61.0701
 30
0.0
 10
46.0327
 20
-60.1131
 30
0.0
 10
45.452
 20
-58.8588
 30
0.0
 10
44.8041
 20
-57.6006
 30
0.0
 10
43.6328
 20
-56.8964
 30
0.0
 10
37.8365
 20
-53.3845
 30
0.0
 10
30.0067
 20
-49.4163
 30
0.0
 10
29.583
 20
-41.1677
 30
0.0
 10
29.3173
 20
-36.045
 30
0.0
 10
32.2051
 20
-30.2506
 30
0.0
 10
35.3151
 20
-26.3308
 30
0.0
 10
37.5491
 20
-19.8096
 30
0.0
 10
34.7472
 20
-15.308
 30
0.0
 10
31.014
 20
-10.2199
 30
0.0
 10
28.2497
 20
-6.4452
 30
0.0
 10
27.5307
 20
-0.9521
 30
0.0
 10
30.6012
 20
2.8344
 30
0.0
 10
39.9559
 20
15.8551
 30
0.0
 10
46.1433
 20
29.8397
 30
0.0
 10
42.7094
 20
46.5245
 30
0.0
 10
41.4028
 20
52.8916
 30
0.0
 10
38.9436
 20
58.9477
 30
0.0
 10
36.3659
 20
64.82
 30
0.0
 10
33.5522
 20
71.2385
 30
0.0
 10
30.5528
 20
77.5513
 30
0.0
 10
28.2606
 20
84.2158
 30
0.0
 10
25.7511
 20
91.5162
 30
0.0
 10
21.8371
 20
103.7498
 30
0.0
 10
23.8914
 20
111.5865
 30
0.0
 10
25.4558
 20
117.5487
 30
0.0
 10
29.5998
 20
119.8271
 30
0.0
 10
34.8568
 20
120.8177
 30
0.0
 10
38.5021
 20
121.4992
 30
0.0
 10
41.8106
 20
122.147
 30
0.0
 10
45.1833
 20
123.8991
 30
0.0
 10
49.833
 20
126.3207
 30
0.0
 10
53.342
 20
130.2178
 30
0.0
 10
56.1577
 20
134.8221
 30
0.0
 10
59.8059
 20
140.7823
 30
0.0
 10
64.03
 20
146.0374
 30
0.0
 10
69.2801
 20
150.4175
 30
0.0
 10
73.1368
 20
153.6302
 30
0.0
 10
77.1721
 20
156.0064
 30
0.0
 10
81.3883
 20
158.5742
 30
0.0
 10
82.5378
 20
159.2754
 30
0.0
 10
83.321
 20
159.9203
 30
0.0
 10
83.0781
 20
161.3889
 30
0.0
 10
82.846
 20
162.7923
 30
0.0
 10
82.0826
 20
164.1651
 30
0.0
 10
81.3833
 20
165.4332
 30
0.0
 10
79.7646
 20
166.0978
 30
0.0
 10
75.7687
 20
166.4632
 30
0.0
 10
74.3624
 20
166.5235
 30
0.0
 10
74.3624
 20
166.5235
 30
0.0
 10
68.815
 20
166.7378
 30
0.0
 10
68.815
 20
166.7378
 30
0.0
 10
68.815
 20
166.7378
 30
0.0
 10
70.0633
 20
172.5647
 30
0.0
 10
70.0633
 20
172.5647
 30
0.0
 10
70.8583
 20
176.2712
 30
0.0
 10
71.1536
 20
180.4627
 30
0.0
 10
70.0524
 20
184.1415
 30
0.0
 10
69.7492
 20
185.1627
 30
0.0
 10
69.1122
 20
186.7399
 30
0.0
 10
68.4061
 20
187.5429
 30
0.0
 10
68.4061
 20
187.5429
 30
0.0
 10
67.0155
 20
188.9601
 30
0.0
 10
67.0155
 20
188.9601
 30
0.0
 10
67.0155
 20
188.9601
 30
0.0
 10
67.0155
 20
191.0854
 30
0.0
 10
67.0155
 20
191.0854
 30
0.0
 10
67.0155
 20
194.9855
 30
0.0
 10
66.1296
 20
198.7582
 30
0.0
 10
64.4467
 20
202.1902
 30
0.0
 10
63.3288
 20
198.2397
 30
0.0
 10
62.9011
 20
192.8888
 30
0.0
 10
62.8922
 20
190.6815
 30
0.0
 10
62.8922
 20
190.6815
 30
0.0
 10
62.8863
 20
187.9004
 30
0.0
 10
62.8863
 20
187.9004
 30
0.0
 10
62.8863
 20
187.9004
 30
0.0
 10
60.9763
 20
186.6599
 30
0.0
 10
60.9763
 20
186.6599
 30
0.0
 10
59.6469
 20
184.1731
 30
0.0
 10
60.038
 20
174.5676
 30
0.0
 10
60.3294
 20
171.6275
 30
0.0
 10
60.3294
 20
171.6275
 30
0.0
 10
60.8805
 20
166.0642
 30
0.0
 10
60.8805
 20
166.0642
 30
0.0
 10
60.8805
 20
166.0642
 30
0.0
 10
49.6632
 20
166.2874
 30
0.0
 10
49.6632
 20
166.2874
 30
0.0
 10
49.6632
 20
166.2874
 30
0.0
 10
49.6632
 20
171.1998
 30
0.0
 10
49.6632
 20
171.1998
 30
0.0
 10
49.6632
 20
171.1998
 30
0.0
 10
55.7706
 20
171.0823
 30
0.0
 10
55.7706
 20
171.0823
 30
0.0
 10
55.7706
 20
171.0823
 30
0.0
 10
54.0778
 20
187.9359
 30
0.0
 10
58.3087
 20
190.6756
 30
0.0
 10
58.3087
 20
190.6756
 30
0.0
 10
58.3542
 20
206.6789
 30
0.0
 10
64.344
 20
210.7113
 30
0.0
 10
64.344
 20
210.7113
 30
0.0
 10
71.6
 20
203.3279
 30
0.0
 10
71.6
 20
191.0578
 30
0.0
 10
71.6
 20
191.0578
 30
0.0
 10
77.4615
 20
185.1005
 30
0.0
 10
74.5322
 20
171.426
 30
0.0
 10
74.5322
 20
171.426
 30
0.0
 10
83.6469
 20
171.0823
 30
0.0
 10
84.9486
 20
168.6281
 30
0.0
 10
86.2503
 20
166.1719
 30
0.0
 10
91.1321
 20
158.8082
 30
0.0
 10
83.6469
 20
154.2544
 30
0.0
 10
76.1588
 20
149.6995
 30
0.0
 10
68.1928
 20
145.4942
 30
0.0
 10
59.9837
 20
132.0795
 30
0.0
 10
51.7766
 20
118.6726
 30
0.0
 10
42.1523
 20
117.1438
 30
0.0
 10
35.641
 20
115.927
 30
0.0
 10
29.1326
 20
114.7083
 30
0.0
 10
23.6109
 20
111.9292
 30
0.0
 10
32.5597
 20
85.9056
 30
0.0
 10
41.5094
 20
59.8849
 30
0.0
 10
62.0923
 20
38.4448
 30
0.0
 10
34.127
 20
-0.3487
 30
0.0
 10
34.127
 20
-0.3487
 30
0.0
 10
31.6935
 20
-3.2048
 30
0.0
 10
34.6139
 20
-7.18
 30
0.0
 10
37.5283
 20
-11.163
 30
0.0
 10
43.3671
 20
-18.4941
 30
0.0
 10
39.2794
 20
-28.9677
 30
0.0
 10
39.2794
 20
-28.9677
 30
0.0
 10
33.8722
 20
-35.3714
 30
0.0
 10
34.1586
 20
-40.9129
 30
0.0
 10
34.444
 20
-46.4574
 30
0.0
 10
41.306
 20
-49.8439
 30
0.0
 10
45.8826
 20
-52.6181
 30
0.0
 10
50.4552
 20
-55.3874
 30
0.0
 10
50.4552
 20
-61.237
 30
0.0
 10
52.4561
 20
-60.9279
 30
0.0
 10
54.457
 20
-60.6227
 30
0.0
 10
55.2975
 20
-60.1111
 30
0.0
 10
55.2975
 20
-60.1111
 30
0.0
 10
55.2975
 20
-60.1111
 30
0.0
 10
54.6101
 20
-41.785
 30
0.0
 10
64.2788
 20
-25.7165
 30
0.0
 10
64.2788
 20
-25.7165
 30
0.0
 10
78.9212
 20
-37.319
 30
0.0
 10
78.3701
 20
-62.9041
 30
0.0
 10
78.3701
 20
-62.9041
 30
0.0
 10
83.2114
 20
-62.8606
 30
0.0
 10
89.2842
 20
-62.7767
 30
0.0
 10
89.2842
 20
-62.7767
 30
0.0
 10
89.2842
 20
-67.692
 30
0.0
 10
89.2842
 20
-67.692
 30
0.0
  0
SPLINE
  5
62
330
1F
100
AcDbEntity
  8
Layer 1
 62
   250
370
    20
100
AcDbSpline
210
0.0
220
0.0
230
1.0
 70
    11
 71
     3
 72
    77
 73
    73
 74
     0
 42
0.0000000001
 43
0.0000000001
 40
0.0
 40
0.0
 40
0.0
 40
0.0
 40
0.0416666666666667
 40
0.0416666666666667
 40
0.0416666666666667
 40
0.0833333333333333
 40
0.0833333333333333
 40
0.0833333333333333
 40
0.125
 40
0.125
 40
0.125
 40
0.1666666666666667
 40
0.1666666666666667
 40
0.1666666666666667
 40
0.2083333333333333
 40
0.2083333333333333
 40
0.2083333333333333
 40
0.25
 40
0.25
 40
0.25
 40
0.2916666666666666
 40
0.2916666666666666
 40
0.2916666666666666
 40
0.3333333333333333
 40
0.3333333333333333
 40
0.3333333333333333
 40
0.375
 40
0.375
 40
0.375
 40
0.4166666666666666
 40
0.4166666666666666
 40
0.4166666666666666
 40
0.4583333333333333
 40
0.4583333333333333
 40
0.4583333333333333
 40
0.5
 40
0.5
 40
0.5
 40
0.5416666666666666
 40
0.5416666666666666
 40
0.5416666666666666
 40
0.5833333333333333
 40
0.5833333333333333
 40
0.5833333333333333
 40
0.625
 40
0.625
 40
0.625
 40
0.6666666666666666
 40
0.6666666666666666
 40
0.6666666666666666
 40
0.7083333333333333
 40
0.7083333333333333
 40
0.7083333333333333
 40
0.75
 40
0.75
 40
0.75
 40
0.7916666666666666
 40
0.7916666666666666
 40
0.7916666666666666
 40
0.8333333333333333
 40
0.8333333333333333
 40
0.8333333333333333
 40
0.875
 40
0.875
 40
0.875
 40
0.9166666666666666
 40
0.9166666666666666
 40
0.9166666666666666
 40
0.9583333333333333
 40
0.9583333333333333
 40
0.9583333333333333
 40
1.0
 40
1.0
 40
1.0
 40
1.0
 10
5.5593
 20
295.174
 30
0.0
 10
6.1459
 20
294.8431
 30
0.0
 10
6.6921
 20
294.4955
 30
0.0
 10
7.1642
 20
294.1607
 30
0.0
 10
11.5472
 20
291.028
 30
0.0
 10
13.5254
 20
286.5689
 30
0.0
 10
13.5254
 20
280.9237
 30
0.0
 10
13.5254
 20
280.9237
 30
0.0
 10
13.5254
 20
278.8793
 30
0.0
 10
13.5254
 20
278.8793
 30
0.0
 10
13.5254
 20
278.8793
 30
0.0
 10
14.8675
 20
277.4305
 30
0.0
 10
14.8675
 20
277.4305
 30
0.0
 10
18.3281
 20
273.7072
 30
0.0
 10
22.8465
 20
265.9446
 30
0.0
 10
20.6747
 20
260.565
 30
0.0
 10
18.6136
 20
255.4571
 30
0.0
 10
16.5287
 20
250.358
 30
0.0
 10
14.5584
 20
245.2126
 30
0.0
 10
13.4039
 20
242.2053
 30
0.0
 10
11.4544
 20
237.4134
 30
0.0
 10
11.0297
 20
234.2303
 30
0.0
 10
10.6307
 20
231.2132
 30
0.0
 10
11.7477
 20
229.2261
 30
0.0
 10
12.6168
 20
226.5477
 30
0.0
 10
13.4691
 20
223.9295
 30
0.0
 10
13.5086
 20
221.4753
 30
0.0
 10
13.1461
 20
218.7366
 30
0.0
 10
12.1645
 20
211.3443
 30
0.0
 10
10.4243
 20
200.8124
 30
0.0
 10
14.1762
 20
194.0828
 30
0.0
 10
15.2093
 20
192.2261
 30
0.0
 10
16.8477
 20
190.4218
 30
0.0
 10
18.2294
 20
188.8505
 30
0.0
 10
19.8935
 20
186.974
 30
0.0
 10
21.5655
 20
185.1114
 30
0.0
 10
23.121
 20
183.1282
 30
0.0
 10
25.3975
 20
180.2217
 30
0.0
 10
28.4986
 20
175.7251
 30
0.0
 10
28.3376
 20
171.7717
 30
0.0
 10
28.3376
 20
171.7717
 30
0.0
 10
28.1342
 20
166.7161
 30
0.0
 10
28.1342
 20
166.7161
 30
0.0
 10
28.1342
 20
166.7161
 30
0.0
 10
37.8631
 20
166.5235
 30
0.0
 10
37.8631
 20
166.5235
 30
0.0
 10
37.8631
 20
166.5235
 30
0.0
 10
37.8631
 20
171.4349
 30
0.0
 10
37.8631
 20
171.4349
 30
0.0
 10
37.8631
 20
171.4349
 30
0.0
 10
32.9192
 20
171.5366
 30
0.0
 10
32.9192
 20
171.5366
 30
0.0
 10
33.3428
 20
182.0162
 30
0.0
 10
20.6481
 20
192.0424
 30
0.0
 10
18.1099
 20
196.5993
 30
0.0
 10
15.5688
 20
201.1522
 30
0.0
 10
16.4151
 20
208.4437
 30
0.0
 10
17.6852
 20
218.0177
 30
0.0
 10
18.9533
 20
227.5857
 30
0.0
 10
15.1441
 20
230.3164
 30
0.0
 10
15.5688
 20
233.5084
 30
0.0
 10
15.9905
 20
236.6974
 30
0.0
 10
20.6481
 20
248.0915
 30
0.0
 10
24.876
 20
258.5701
 30
0.0
 10
29.1129
 20
269.0516
 30
0.0
 10
18.1099
 20
280.9
 30
0.0
 10
18.1099
 20
280.9
 30
0.0
 10
18.1099
 20
292.7998
 30
0.0
 10
10.8973
 20
298.2336
 30
0.0
 10
5.5593
 20
300.6019
 30
0.0
 10
5.5593
 20
300.6019
 30
0.0
 10
5.5593
 20
295.174
 30
0.0
 10
5.5593
 20
295.174
 30
0.0
  0
SPLINE
  5
63
330
1F
100
AcDbEntity
  8
Layer 1
 62
   250
370
    20
100
AcDbSpline
210
0.0
220
0.0
230
1.0
 70
    11
 71
     3
 72
    77
 73
    73
 74
     0
 42
0.0000000001
 43
0.0000000001
 40
0.0
 40
0.0
 40
0.0
 40
0.0
 40
0.0416666666666667
 40
0.0416666666666667
 40
0.0416666666666667
 40
0.0833333333333333
 40
0.0833333333333333
 40
0.0833333333333333
 40
0.125
 40
0.125
 40
0.125
 40
0.1666666666666667
 40
0.1666666666666667
 40
0.1666666666666667
 40
0.2083333333333333
 40
0.2083333333333333
 40
0.2083333333333333
 40
0.25
 40
0.25
 40
0.25
 40
0.2916666666666666
 40
0.2916666666666666
 40
0.2916666666666666
 40
0.3333333333333333
 40
0.3333333333333333
 40
0.3333333333333333
 40
0.375
 40
0.375
 40
0.375
 40
0.4166666666666666
 40
0.4166666666666666
 40
0.4166666666666666
 40
0.4583333333333333
 40
0.4583333333333333
 40
0.4583333333333333
 40
0.5
 40
0.5
 40
0.5
 40
0.5416666666666666
 40
0.5416666666666666
 40
0.5416666666666666
 40
0.5833333333333333
 40
0.5833333333333333
 40
0.5833333333333333
 40
0.625
 40
0.625
 40
0.625
 40
0.6666666666666666
 40
0.6666666666666666
 40
0.6666666666666666
 40
0.7083333333333333
 40
0.7083333333333333
 40
0.7083333333333333
 40
0.75
 40
0.75
 40
0.75
 40
0.7916666666666666
 40
0.7916666666666666
 40
0.7916666666666666
 40
0.8333333333333333
 40
0.8333333333333333
 40
0.8333333333333333
 40
0.875
 40
0.875
 40
0.875
 40
0.9166666666666666
 40
0.9166666666666666
 40
0.9166666666666666
 40
0.9583333333333333
 40
0.9583333333333333
 40
0.9583333333333333
 40
1.0
 40
1.0
 40
1.0
 40
1.0
 10
-6.2447
 20
294.8461
 30
0.0
 10
-6.2447
 20
294.8461
 30
0.0
 10
-6.2447
 20
300.3441
 30
0.0
 10
-6.2447
 20
300.3441
 30
0.0
 10
-11.5096
 20
297.8455
 30
0.0
 10
-18.2313
 20
292.3889
 30
0.0
 10
-18.2313
 20
280.9
 30
0.0
 10
-18.2313
 20
280.9
 30
0.0
 10
-29.2343
 20
269.0516
 30
0.0
 10
-25.0024
 20
258.5701
 30
0.0
 10
-20.7695
 20
248.0915
 30
0.0
 10
-16.1149
 20
236.6974
 30
0.0
 10
-15.6932
 20
233.5084
 30
0.0
 10
-15.2685
 20
230.3164
 30
0.0
 10
-19.0777
 20
227.5857
 30
0.0
 10
-17.8067
 20
218.0177
 30
0.0
 10
-16.5396
 20
208.4437
 30
0.0
 10
-15.6932
 20
201.1522
 30
0.0
 10
-18.2313
 20
196.5993
 30
0.0
 10
-20.7695
 20
192.0424
 30
0.0
 10
-33.4643
 20
182.0162
 30
0.0
 10
-33.0436
 20
171.5366
 30
0.0
 10
-33.0436
 20
171.5366
 30
0.0
 10
-38.7085
 20
171.4211
 30
0.0
 10
-38.7085
 20
171.4211
 30
0.0
 10
-38.7085
 20
171.4211
 30
0.0
 10
-38.7085
 20
166.5087
 30
0.0
 10
-38.7085
 20
166.5087
 30
0.0
 10
-38.7085
 20
166.5087
 30
0.0
 10
-28.2576
 20
166.7161
 30
0.0
 10
-28.2576
 20
166.7161
 30
0.0
 10
-28.2576
 20
166.7161
 30
0.0
 10
-28.461
 20
171.7717
 30
0.0
 10
-28.461
 20
171.7717
 30
0.0
 10
-28.623
 20
175.7251
 30
0.0
 10
-25.5209
 20
180.2217
 30
0.0
 10
-23.2454
 20
183.1282
 30
0.0
 10
-21.689
 20
185.1114
 30
0.0
 10
-20.016
 20
186.974
 30
0.0
 10
-18.3558
 20
188.8505
 30
0.0
 10
-16.9692
 20
190.4218
 30
0.0
 10
-15.3337
 20
192.2261
 30
0.0
 10
-14.2977
 20
194.0828
 30
0.0
 10
-10.5507
 20
200.8124
 30
0.0
 10
-12.2889
 20
211.3443
 30
0.0
 10
-13.2706
 20
218.7366
 30
0.0
 10
-13.633
 20
221.4753
 30
0.0
 10
-13.5905
 20
223.9295
 30
0.0
 10
-12.7412
 20
226.5477
 30
0.0
 10
-11.8701
 20
229.2261
 30
0.0
 10
-10.7551
 20
231.2132
 30
0.0
 10
-11.1541
 20
234.2303
 30
0.0
 10
-11.5748
 20
237.4134
 30
0.0
 10
-13.5283
 20
242.2053
 30
0.0
 10
-14.6799
 20
245.2126
 30
0.0
 10
-16.6521
 20
250.358
 30
0.0
 10
-18.735
 20
255.4571
 30
0.0
 10
-20.7972
 20
260.565
 30
0.0
 10
-22.9709
 20
265.9446
 30
0.0
 10
-18.4516
 20
273.7072
 30
0.0
 10
-14.988
 20
277.4305
 30
0.0
 10
-14.988
 20
277.4305
 30
0.0
 10
-13.6468
 20
278.8793
 30
0.0
 10
-13.6468
 20
278.8793
 30
0.0
 10
-13.6468
 20
278.8793
 30
0.0
 10
-13.6468
 20
280.9237
 30
0.0
 10
-13.6468
 20
280.9237
 30
0.0
 10
-13.6468
 20
286.5689
 30
0.0
 10
-11.6716
 20
291.028
 30
0.0
 10
-7.2876
 20
294.1607
 30
0.0
 10
-6.9716
 20
294.3868
 30
0.0
 10
-6.618
 20
294.6189
 30
0.0
 10
-6.2447
 20
294.8461
 30
0.0
  0
SPLINE
  5
64
330
1F
100
AcDbEntity
  8
Layer 1
 62
   250
370
    20
100
AcDbSpline
210
0.0
220
0.0
230
1.0
 70
    11
 71
     3
 72
   197
 73
   193
 74
     0
 42
0.0000000001
 43
0.0000000001
 40
0.0
 40
0.0
 40
0.0
 40
0.0
 40
0.015625
 40
0.015625
 40
0.015625
 40
0.03125
 40
0.03125
 40
0.03125
 40
0.046875
 40
0.046875
 40
0.046875
 40
0.0625
 40
0.0625
 40
0.0625
 40
0.078125
 40
0.078125
 40
0.078125
 40
0.09375
 40
0.09375
 40
0.09375
 40
0.109375
 40
0.109375
 40
0.109375
 40
0.125
 40
0.125
 40
0.125
 40
0.140625
 40
0.140625
 40
0.140625
 40
0.15625
 40
0.15625
 40
0.15625
 40
0.171875
 40
0.171875
 40
0.171875
 40
0.1875
 40
0.1875
 40
0.1875
 40
0.203125
 40
0.203125
 40
0.203125
 40
0.21875
 40
0.21875
 40
0.21875
 40
0.234375
 40
0.234375
 40
0.234375
 40
0.25
 40
0.25
 40
0.25
 40
0.265625
 40
0.265625
 40
0.265625
 40
0.28125
 40
0.28125
 40
0.28125
 40
0.296875
 40
0.296875
 40
0.296875
 40
0.3125
 40
0.3125
 40
0.3125
 40
0.328125
 40
0.328125
 40
0.328125
 40
0.34375
 40
0.34375
 40
0.34375
 40
0.359375
 40
0.359375
 40
0.359375
 40
0.375
 40
0.375
 40
0.375
 40
0.390625
 40
0.390625
 40
0.390625
 40
0.40625
 40
0.40625
 40
0.40625
 40
0.421875
 40
0.421875
 40
0.421875
 40
0.4375
 40
0.4375
 40
0.4375
 40
0.453125
 40
0.453125
 40
0.453125
 40
0.46875
 40
0.46875
 40
0.46875
 40
0.484375
 40
0.484375
 40
0.484375
 40
0.5
 40
0.5
 40
0.5
 40
0.515625
 40
0.515625
 40
0.515625
 40
0.53125
 40
0.53125
 40
0.53125
 40
0.546875
 40
0.546875
 40
0.546875
 40
0.5625
 40
0.5625
 40
0.5625
 40
0.578125
 40
0.578125
 40
0.578125
 40
0.59375
 40
0.59375
 40
0.59375
 40
0.609375
 40
0.609375
 40
0.609375
 40
0.625
 40
0.625
 40
0.625
 40
0.640625
 40
0.640625
 40
0.640625
 40
0.65625
 40
0.65625
 40
0.65625
 40
0.671875
 40
0.671875
 40
0.671875
 40
0.6875
 40
0.6875
 40
0.6875
 40
0.703125
 40
0.703125
 40
0.703125
 40
0.71875
 40
0.71875
 40
0.71875
 40
0.734375
 40
0.734375
 40
0.734375
 40
0.75
 40
0.75
 40
0.75
 40
0.765625
 40
0.765625
 40
0.765625
 40
0.78125
 40
0.78125
 40
0.78125
 40
0.796875
 40
0.796875
 40
0.796875
 40
0.8125
 40
0.8125
 40
0.8125
 40
0.828125
 40
0.828125
 40
0.828125
 40
0.84375
 40
0.84375
 40
0.84375
 40
0.859375
 40
0.859375
 40
0.859375
 40
0.875
 40
0.875
 40
0.875
 40
0.890625
 40
0.890625
 40
0.890625
 40
0.90625
 40
0.90625
 40
0.90625
 40
0.921875
 40
0.921875
 40
0.921875
 40
0.9375
 40
0.9375
 40
0.9375
 40
0.953125
 40
0.953125
 40
0.953125
 40
0.96875
 40
0.96875
 40
0.96875
 40
0.984375
 40
0.984375
 40
0.984375
 40
1.0
 40
1.0
 40
1.0
 40
1.0
 10
-89.3998
 20
-62.7767
 30
0.0
 10
-83.3299
 20
-62.8606
 30
0.0
 10
-78.4926
 20
-62.9041
 30
0.0
 10
-78.4926
 20
-62.9041
 30
0.0
 10
-79.0456
 20
-37.319
 30
0.0
 10
-64.4033
 20
-25.7165
 30
0.0
 10
-64.4033
 20
-25.7165
 30
0.0
 10
-54.7345
 20
-41.785
 30
0.0
 10
-55.4209
 20
-60.1111
 30
0.0
 10
-55.4209
 20
-60.1111
 30
0.0
 10
-55.4209
 20
-60.1111
 30
0.0
 10
-54.5814
 20
-60.6227
 30
0.0
 10
-52.5795
 20
-60.9279
 30
0.0
 10
-50.5796
 20
-61.237
 30
0.0
 10
-50.5796
 20
-55.3874
 30
0.0
 10
-46.006
 20
-52.6181
 30
0.0
 10
-41.4304
 20
-49.8439
 30
0.0
 10
-34.5684
 20
-46.4574
 30
0.0
 10
-34.283
 20
-40.9129
 30
0.0
 10
-33.9966
 20
-35.3714
 30
0.0
 10
-39.4038
 20
-28.9677
 30
0.0
 10
-39.4038
 20
-28.9677
 30
0.0
 10
-43.4905
 20
-18.4941
 30
0.0
 10
-37.6547
 20
-11.163
 30
0.0
 10
-34.7373
 20
-7.18
 30
0.0
 10
-31.8179
 20
-3.2048
 30
0.0
 10
-34.2514
 20
-0.3487
 30
0.0
 10
-34.2514
 20
-0.3487
 30
0.0
 10
-62.2167
 20
38.4448
 30
0.0
 10
-41.6338
 20
59.8849
 30
0.0
 10
-32.6831
 20
85.9056
 30
0.0
 10
-23.7353
 20
111.9292
 30
0.0
 10
-29.2571
 20
114.7083
 30
0.0
 10
-35.7654
 20
115.927
 30
0.0
 10
-42.2768
 20
117.1438
 30
0.0
 10
-51.8991
 20
118.6726
 30
0.0
 10
-60.1101
 20
132.0795
 30
0.0
 10
-68.3172
 20
145.4942
 30
0.0
 10
-76.2803
 20
149.6995
 30
0.0
 10
-83.7674
 20
154.2544
 30
0.0
 10
-91.2565
 20
158.8082
 30
0.0
 10
-86.3717
 20
166.1719
 30
0.0
 10
-85.0701
 20
168.6281
 30
0.0
 10
-83.7674
 20
171.0823
 30
0.0
 10
-74.6557
 20
171.426
 30
0.0
 10
-74.6557
 20
171.426
 30
0.0
 10
-77.5849
 20
185.1005
 30
0.0
 10
-71.7244
 20
191.0578
 30
0.0
 10
-71.7244
 20
191.0578
 30
0.0
 10
-71.7244
 20
203.3279
 30
0.0
 10
-64.4655
 20
210.7113
 30
0.0
 10
-64.4655
 20
210.7113
 30
0.0
 10
-58.4746
 20
206.6789
 30
0.0
 10
-58.4321
 20
190.6756
 30
0.0
 10
-58.4321
 20
190.6756
 30
0.0
 10
-54.2022
 20
187.9359
 30
0.0
 10
-55.894
 20
171.0823
 30
0.0
 10
-55.894
 20
171.0823
 30
0.0
 10
-55.894
 20
171.0823
 30
0.0
 10
-50.5085
 20
171.183
 30
0.0
 10
-50.5085
 20
171.183
 30
0.0
 10
-50.5085
 20
171.183
 30
0.0
 10
-50.5085
 20
166.2706
 30
0.0
 10
-50.5085
 20
166.2706
 30
0.0
 10
-50.5085
 20
166.2706
 30
0.0
 10
-61.0049
 20
166.0642
 30
0.0
 10
-61.0049
 20
166.0642
 30
0.0
 10
-61.0049
 20
166.0642
 30
0.0
 10
-60.4528
 20
171.6275
 30
0.0
 10
-60.4528
 20
171.6275
 30
0.0
 10
-60.1585
 20
174.5676
 30
0.0
 10
-59.7684
 20
184.1731
 30
0.0
 10
-61.0987
 20
186.6599
 30
0.0
 10
-61.0987
 20
186.6599
 30
0.0
 10
-63.0107
 20
187.9004
 30
0.0
 10
-63.0107
 20
187.9004
 30
0.0
 10
-63.0107
 20
187.9004
 30
0.0
 10
-63.0166
 20
190.6815
 30
0.0
 10
-63.0166
 20
190.6815
 30
0.0
 10
-63.0226
 20
192.8858
 30
0.0
 10
-63.4522
 20
198.2397
 30
0.0
 10
-64.5702
 20
202.1882
 30
0.0
 10
-66.2521
 20
198.7542
 30
0.0
 10
-67.1399
 20
194.9855
 30
0.0
 10
-67.1399
 20
191.0854
 30
0.0
 10
-67.1399
 20
191.0854
 30
0.0
 10
-67.1399
 20
188.9601
 30
0.0
 10
-67.1399
 20
188.9601
 30
0.0
 10
-67.1399
 20
188.9601
 30
0.0
 10
-68.5285
 20
187.5429
 30
0.0
 10
-68.5285
 20
187.5429
 30
0.0
 10
-69.2366
 20
186.7399
 30
0.0
 10
-69.8707
 20
185.1627
 30
0.0
 10
-70.1739
 20
184.1415
 30
0.0
 10
-71.278
 20
180.4627
 30
0.0
 10
-70.9827
 20
176.2712
 30
0.0
 10
-70.1877
 20
172.5647
 30
0.0
 10
-70.1877
 20
172.5647
 30
0.0
 10
-68.9394
 20
166.7378
 30
0.0
 10
-68.9394
 20
166.7378
 30
0.0
 10
-68.9394
 20
166.7378
 30
0.0
 10
-74.4858
 20
166.5235
 30
0.0
 10
-74.4858
 20
166.5235
 30
0.0
 10
-75.8932
 20
166.4632
 30
0.0
 10
-79.889
 20
166.0978
 30
0.0
 10
-81.5077
 20
165.4332
 30
0.0
 10
-82.207
 20
164.1651
 30
0.0
 10
-82.9734
 20
162.7923
 30
0.0
 10
-83.2025
 20
161.3889
 30
0.0
 10
-83.4425
 20
159.9203
 30
0.0
 10
-82.6642
 20
159.2754
 30
0.0
 10
-81.5127
 20
158.5742
 30
0.0
 10
-77.2936
 20
156.0064
 30
0.0
 10
-73.2572
 20
153.6302
 30
0.0
 10
-69.4016
 20
150.4175
 30
0.0
 10
-64.1544
 20
146.0374
 30
0.0
 10
-59.9264
 20
140.7823
 30
0.0
 10
-56.2821
 20
134.8221
 30
0.0
 10
-53.4635
 20
130.2178
 30
0.0
 10
-49.9574
 20
126.3207
 30
0.0
 10
-45.3068
 20
123.8991
 30
0.0
 10
-41.9311
 20
122.147
 30
0.0
 10
-38.6226
 20
121.4992
 30
0.0
 10
-34.9813
 20
120.8177
 30
0.0
 10
-29.7202
 20
119.8271
 30
0.0
 10
-25.5782
 20
117.5487
 30
0.0
 10
-24.0158
 20
111.5865
 30
0.0
 10
-21.9576
 20
103.7498
 30
0.0
 10
-25.8715
 20
91.5162
 30
0.0
 10
-28.384
 20
84.2158
 30
0.0
 10
-30.6772
 20
77.5513
 30
0.0
 10
-33.6796
 20
71.2385
 30
0.0
 10
-36.4903
 20
64.82
 30
0.0
 10
-39.0641
 20
58.9477
 30
0.0
 10
-41.5242
 20
52.8916
 30
0.0
 10
-42.8318
 20
46.5245
 30
0.0
 10
-46.2638
 20
29.8397
 30
0.0
 10
-40.0803
 20
15.8551
 30
0.0
 10
-30.7227
 20
2.8344
 30
0.0
 10
-27.6551
 20
-0.9521
 30
0.0
 10
-28.3731
 20
-6.4452
 30
0.0
 10
-31.1385
 20
-10.2199
 30
0.0
 10
-34.8677
 20
-15.308
 30
0.0
 10
-37.6695
 20
-19.8096
 30
0.0
 10
-35.4365
 20
-26.3308
 30
0.0
 10
-32.3295
 20
-30.2506
 30
0.0
 10
-29.4398
 20
-36.045
 30
0.0
 10
-29.7035
 20
-41.1677
 30
0.0
 10
-30.1311
 20
-49.4163
 30
0.0
 10
-37.9609
 20
-53.3845
 30
0.0
 10
-43.7572
 20
-56.8964
 30
0.0
 10
-44.9275
 20
-57.6006
 30
0.0
 10
-45.5734
 20
-58.8588
 30
0.0
 10
-46.1571
 20
-60.1131
 30
0.0
 10
-46.6035
 20
-61.0701
 30
0.0
 10
-47.0114
 20
-62.0459
 30
0.0
 10
-47.5832
 20
-62.9377
 30
0.0
 10
-48.8878
 20
-64.9583
 30
0.0
 10
-50.8967
 20
-66.1524
 30
0.0
 10
-53.2284
 20
-65.7929
 30
0.0
 10
-54.6427
 20
-65.5726
 30
0.0
 10
-56.3927
 20
-65.1598
 30
0.0
 10
-57.6539
 20
-64.3954
 30
0.0
 10
-57.6539
 20
-64.3954
 30
0.0
 10
-60.119
 20
-62.9209
 30
0.0
 10
-60.119
 20
-62.9209
 30
0.0
 10
-60.119
 20
-62.9209
 30
0.0
 10
-60.0034
 20
-59.8869
 30
0.0
 10
-60.0034
 20
-59.8869
 30
0.0
 10
-59.8879
 20
-56.6268
 30
0.0
 10
-60.3195
 20
-52.7021
 30
0.0
 10
-60.8291
 20
-49.515
 30
0.0
 10
-61.6982
 20
-44.0989
 30
0.0
 10
-63.2073
 20
-38.7421
 30
0.0
 10
-65.4333
 20
-33.7754
 30
0.0
 10
-66.3647
 20
-35.0238
 30
0.0
 10
-67.2022
 20
-36.3057
 30
0.0
 10
-67.8273
 20
-37.3664
 30
0.0
 10
-72.2726
 20
-44.9364
 30
0.0
 10
-74.0987
 20
-53.8684
 30
0.0
 10
-73.909
 20
-62.7648
 30
0.0
 10
-73.909
 20
-62.7648
 30
0.0
 10
-73.7994
 20
-67.8619
 30
0.0
 10
-73.7994
 20
-67.8619
 30
0.0
 10
-73.7994
 20
-67.8619
 30
0.0
 10
-78.5301
 20
-67.8155
 30
0.0
 10
-78.5301
 20
-67.8155
 30
0.0
 10
-82.1526
 20
-67.7859
 30
0.0
 10
-85.7752
 20
-67.7464
 30
0.0
 10
-89.3998
 20
-67.692
 30
0.0
 10
-89.3998
 20
-67.692
 30
0.0
 10
-89.3998
 20
-62.7767
 30
0.0
 10
-89.3998
 20
-62.7767
 30
0.0
  0
SPLINE
  5
65
330
1F
100
AcDbEntity
  8
Layer 1
 62
   250
370
    20
100
AcDbSpline
210
0.0
220
0.0
230
1.0
 70
    11
 71
     3
 72
   137
 73
   133
 74
     0
 42
0.0000000001
 43
0.0000000001
 40
0.0
 40
0.0
 40
0.0
 40
0.0
 40
0.0227272727272727
 40
0.0227272727272727
 40
0.0227272727272727
 40
0.0454545454545455
 40
0.0454545454545455
 40
0.0454545454545455
 40
0.0681818181818182
 40
0.0681818181818182
 40
0.0681818181818182
 40
0.0909090909090909
 40
0.0909090909090909
 40
0.0909090909090909
 40
0.1136363636363636
 40
0.1136363636363636
 40
0.1136363636363636
 40
0.1363636363636364
 40
0.1363636363636364
 40
0.1363636363636364
 40
0.1590909090909091
 40
0.1590909090909091
 40
0.1590909090909091
 40
0.1818181818181818
 40
0.1818181818181818
 40
0.1818181818181818
 40
0.2045454545454546
 40
0.2045454545454546
 40
0.2045454545454546
 40
0.2272727272727273
 40
0.2272727272727273
 40
0.2272727272727273
 40
0.25
 40
0.25
 40
0.25
 40
0.2727272727272727
 40
0.2727272727272727
 40
0.2727272727272727
 40
0.2954545454545455
 40
0.2954545454545455
 40
0.2954545454545455
 40
0.3181818181818182
 40
0.3181818181818182
 40
0.3181818181818182
 40
0.3409090909090909
 40
0.3409090909090909
 40
0.3409090909090909
 40
0.3636363636363636
 40
0.3636363636363636
 40
0.3636363636363636
 40
0.3863636363636364
 40
0.3863636363636364
 40
0.3863636363636364
 40
0.4090909090909091
 40
0.4090909090909091
 40
0.4090909090909091
 40
0.4318181818181818
 40
0.4318181818181818
 40
0.4318181818181818
 40
0.4545454545454546
 40
0.4545454545454546
 40
0.4545454545454546
 40
0.4772727272727273
 40
0.4772727272727273
 40
0.4772727272727273
 40
0.5
 40
0.5
 40
0.5
 40
0.5227272727272727
 40
0.5227272727272727
 40
0.5227272727272727
 40
0.5454545454545454
 40
0.5454545454545454
 40
0.5454545454545454
 40
0.5681818181818182
 40
0.5681818181818182
 40
0.5681818181818182
 40
0.5909090909090909
 40
0.5909090909090909
 40
0.5909090909090909
 40
0.6136363636363636
 40
0.6136363636363636
 40
0.6136363636363636
 40
0.6363636363636364
 40
0.6363636363636364
 40
0.6363636363636364
 40
0.6590909090909091
 40
0.6590909090909091
 40
0.6590909090909091
 40
0.6818181818181819
 40
0.6818181818181819
 40
0.6818181818181819
 40
0.7045454545454546
 40
0.7045454545454546
 40
0.7045454545454546
 40
0.7272727272727273
 40
0.7272727272727273
 40
0.7272727272727273
 40
0.75
 40
0.75
 40
0.75
 40
0.7727272727272727
 40
0.7727272727272727
 40
0.7727272727272727
 40
0.7954545454545455
 40
0.7954545454545455
 40
0.7954545454545455
 40
0.8181818181818182
 40
0.8181818181818182
 40
0.8181818181818182
 40
0.8409090909090909
 40
0.8409090909090909
 40
0.8409090909090909
 40
0.8636363636363636
 40
0.8636363636363636
 40
0.8636363636363636
 40
0.8863636363636364
 40
0.8863636363636364
 40
0.8863636363636364
 40
0.9090909090909092
 40
0.9090909090909092
 40
0.9090909090909092
 40
0.9318181818181819
 40
0.9318181818181819
 40
0.9318181818181819
 40
0.9545454545454546
 40
0.9545454545454546
 40
0.9545454545454546
 40
0.9772727272727273
 40
0.9772727272727273
 40
0.9772727272727273
 40
1.0
 40
1.0
 40
1.0
 40
1.0
 10
-5.9602
 20
-300.7975
 30
0.0
 10
-5.9602
 20
-300.7975
 30
0.0
 10
-89.7879
 20
-300.7975
 30
0.0
 10
-89.7879
 20
-300.7975
 30
0.0
 10
-91.8964
 20
-273.8485
 30
0.0
 10
-77.4091
 20
-252.5763
 30
0.0
 10
-68.7162
 20
-247.1879
 30
0.0
 10
-60.0262
 20
-241.7975
 30
0.0
 10
-60.8597
 20
-237.8381
 30
0.0
 10
-60.8597
 20
-237.8381
 30
0.0
 10
-58.6395
 20
-202.5971
 30
0.0
 10
-42.8111
 20
-189.45
 30
0.0
 10
-42.5286
 20
-183.3999
 30
0.0
 10
-42.2491
 20
-177.3438
 30
0.0
 10
-38.8754
 20
-169.1733
 30
0.0
 10
-38.8754
 20
-169.1733
 30
0.0
 10
-38.8754
 20
-169.1733
 30
0.0
 10
-34.3778
 20
-161.0018
 30
0.0
 10
-33.5354
 20
-156.4657
 30
0.0
 10
-32.6939
 20
-151.9236
 30
0.0
 10
-39.9983
 20
-152.2229
 30
0.0
 10
-39.9983
 20
-152.2229
 30
0.0
 10
-74.2873
 20
-143.447
 30
0.0
 10
-99.4882
 20
-111.9964
 30
0.0
 10
-108.3293
 20
-99.4972
 30
0.0
 10
-117.1695
 20
-86.9999
 30
0.0
 10
-120.2094
 20
-93.5478
 30
0.0
 10
-129.323
 20
-87.8937
 30
0.0
 10
-138.4407
 20
-82.2396
 30
0.0
 10
-139.8253
 20
-71.5319
 30
0.0
 10
-138.7192
 20
-67.6644
 30
0.0
 10
-137.6121
 20
-63.7949
 30
0.0
 10
-127.6648
 20
-62.6098
 30
0.0
 10
-127.6648
 20
-62.6098
 30
0.0
 10
-130.4302
 20
-38.2128
 30
0.0
 10
-117.1695
 20
-28.0966
 30
0.0
 10
-117.1695
 20
-28.0966
 30
0.0
 10
-110.5367
 20
-43.5676
 30
0.0
 10
-113.301
 20
-62.0123
 30
0.0
 10
-113.301
 20
-62.0123
 30
0.0
 10
-112.5682
 20
-62.2384
 30
0.0
 10
-107.3635
 20
-62.4231
 30
0.0
 10
-101.2008
 20
-62.5614
 30
0.0
 10
-101.2008
 20
-62.5614
 30
0.0
 10
-101.2008
 20
-67.4768
 30
0.0
 10
-101.2008
 20
-67.4768
 30
0.0
 10
-103.2036
 20
-67.4343
 30
0.0
 10
-105.2075
 20
-67.38
 30
0.0
 10
-107.2084
 20
-67.3148
 30
0.0
 10
-109.0789
 20
-67.2506
 30
0.0
 10
-112.8111
 20
-67.2733
 30
0.0
 10
-114.5602
 20
-66.7351
 30
0.0
 10
-114.5602
 20
-66.7351
 30
0.0
 10
-118.4731
 20
-65.5351
 30
0.0
 10
-118.4731
 20
-65.5351
 30
0.0
 10
-118.4731
 20
-65.5351
 30
0.0
 10
-117.8282
 20
-61.2064
 30
0.0
 10
-117.8282
 20
-61.2064
 30
0.0
 10
-117.3443
 20
-57.9749
 30
0.0
 10
-117.2544
 20
-54.1509
 30
0.0
 10
-117.3255
 20
-50.8997
 30
0.0
 10
-117.4184
 20
-46.4929
 30
0.0
 10
-117.8934
 20
-41.9548
 30
0.0
 10
-118.9156
 20
-37.6014
 30
0.0
 10
-119.1388
 20
-37.9777
 30
0.0
 10
-119.3422
 20
-38.3382
 30
0.0
 10
-119.516
 20
-38.6651
 30
0.0
 10
-123.271
 20
-45.7325
 30
0.0
 10
-124.0166
 20
-54.0205
 30
0.0
 10
-123.1179
 20
-61.9836
 30
0.0
 10
-123.1179
 20
-61.9836
 30
0.0
 10
-122.5549
 20
-66.9425
 30
0.0
 10
-122.5549
 20
-66.9425
 30
0.0
 10
-122.5549
 20
-66.9425
 30
0.0
 10
-127.1622
 20
-67.4886
 30
0.0
 10
-127.1622
 20
-67.4886
 30
0.0
 10
-128.611
 20
-67.6644
 30
0.0
 10
-132.9624
 20
-68.5503
 30
0.0
 10
-134.4369
 20
-69.5972
 30
0.0
 10
-134.6502
 20
-71.2751
 30
0.0
 10
-134.0271
 20
-74.0197
 30
0.0
 10
-133.5629
 20
-75.3559
 30
0.0
 10
-132.3284
 20
-78.8867
 30
0.0
 10
-130.0726
 20
-81.7112
 30
0.0
 10
-127.0367
 20
-83.5926
 30
0.0
 10
-123.5564
 20
-85.7496
 30
0.0
 10
-121.5249
 20
-85.4859
 30
0.0
 10
-117.843
 20
-86.2621
 30
0.0
 10
-111.9628
 20
-87.4977
 30
0.0
 10
-108.2079
 20
-91.4995
 30
0.0
 10
-104.6811
 20
-96.48
 30
0.0
 10
-88.8585
 20
-118.8475
 30
0.0
 10
-65.2496
 20
-140.4456
 30
0.0
 10
-39.4828
 20
-147.2562
 30
0.0
 10
-38.0824
 20
-147.268
 30
0.0
 10
-36.5516
 20
-147.4744
 30
0.0
 10
-35.2588
 20
-147.8448
 30
0.0
 10
-31.098
 20
-149.0359
 30
0.0
 10
-28.1272
 20
-152.5083
 30
0.0
 10
-29.0378
 20
-157.4079
 30
0.0
 10
-29.823
 20
-161.621
 30
0.0
 10
-32.6831
 20
-167.5665
 30
0.0
 10
-34.7916
 20
-171.4093
 30
0.0
 10
-36.1723
 20
-174.8274
 30
0.0
 10
-37.7802
 20
-179.9788
 30
0.0
 10
-37.95
 20
-183.6231
 30
0.0
 10
-38.0883
 20
-186.6511
 30
0.0
 10
-39.8541
 20
-189.6307
 30
0.0
 10
-41.3316
 20
-192.1304
 30
0.0
 10
-43.2733
 20
-195.4102
 30
0.0
 10
-45.208
 20
-198.5825
 30
0.0
 10
-46.9403
 20
-202.0085
 30
0.0
 10
-52.6003
 20
-213.2041
 30
0.0
 10
-55.415
 20
-225.0386
 30
0.0
 10
-56.2594
 20
-237.7196
 30
0.0
 10
-56.1547
 20
-239.521
 30
0.0
 10
-56.7315
 20
-241.4034
 30
0.0
 10
-57.5443
 20
-242.9372
 30
0.0
 10
-59.4711
 20
-246.5676
 30
0.0
 10
-63.1322
 20
-249.3981
 30
0.0
 10
-66.4269
 20
-251.4445
 30
0.0
 10
-71.5654
 20
-254.6276
 30
0.0
 10
-76.5914
 20
-262.5917
 30
0.0
 10
-79.2204
 20
-268.1312
 30
0.0
 10
-83.2845
 20
-276.6899
 30
0.0
 10
-85.4552
 20
-286.2371
 30
0.0
 10
-85.4068
 20
-295.8357
 30
0.0
 10
-85.4068
 20
-295.8357
 30
0.0
 10
-5.9602
 20
-295.8357
 30
0.0
 10
-5.9602
 20
-295.8357
 30
0.0
 10
-5.9602
 20
-295.8357
 30
0.0
 10
-5.9602
 20
-300.7975
 30
0.0
 10
-5.9602
 20
-300.7975
 30
0.0
  0
SPLINE
  5
66
330
1F
100
AcDbEntity
  8
Layer 1
 62
   250
370
    20
100
AcDbSpline
210
0.0
220
0.0
230
1.0
 70
    11
 71
     3
 72
    23
 73
    19
 74
     0
 42
0.0000000001
 43
0.0000000001
 40
0.0
 40
0.0
 40
0.0
 40
0.0
 40
0.1666666666666667
 40
0.1666666666666667
 40
0.1666666666666667
 40
0.3333333333333333
 40
0.3333333333333333
 40
0.3333333333333333
 40
0.5
 40
0.5
 40
0.5
 40
0.6666666666666666
 40
0.6666666666666666
 40
0.6666666666666666
 40
0.8333333333333333
 40
0.8333333333333333
 40
0.8333333333333333
 40
1.0
 40
1.0
 40
1.0
 40
1.0
 10
-9.7505
 20
264.397
 30
0.0
 10
-9.7505
 20
264.397
 30
0.0
 10
8.9553
 20
264.397
 30
0.0
 10
8.9553
 20
264.397
 30
0.0
 10
10.9476
 20
264.397
 30
0.0
 10
12.5809
 20
262.8177
 30
0.0
 10
12.5809
 20
260.8929
 30
0.0
 10
12.5809
 20
258.9636
 30
0.0
 10
10.9476
 20
257.3865
 30
0.0
 10
8.9553
 20
257.3865
 30
0.0
 10
8.9553
 20
257.3865
 30
0.0
 10
-9.7505
 20
257.3865
 30
0.0
 10
-9.7505
 20
257.3865
 30
0.0
 10
-11.7418
 20
257.3865
 30
0.0
 10
-13.3751
 20
258.9636
 30
0.0
 10
-13.3751
 20
260.8929
 30
0.0
 10
-13.3751
 20
262.8177
 30
0.0
 10
-11.7418
 20
264.397
 30
0.0
 10
-9.7505
 20
264.397
 30
0.0
  0
SPLINE
  5
67
330
1F
100
AcDbEntity
  8
Layer 1
 62
   250
370
    20
100
AcDbSpline
210
0.0
220
0.0
230
1.0
 70
    11
 71
     3
 72
    17
 73
    13
 74
     0
 42
0.0000000001
 43
0.0000000001
 40
0.0
 40
0.0
 40
0.0
 40
0.0
 40
0.25
 40
0.25
 40
0.25
 40
0.5
 40
0.5
 40
0.5
 40
0.75
 40
0.75
 40
0.75
 40
1.0
 40
1.0
 40
1.0
 40
1.0
 10
-0.0611
 20
155.6393
 30
0.0
 10
5.6414
 20
155.6393
 30
0.0
 10
10.2655
 20
148.6041
 30
0.0
 10
10.2655
 20
139.9277
 30
0.0
 10
10.2655
 20
131.2513
 30
0.0
 10
5.6414
 20
124.2161
 30
0.0
 10
-0.0611
 20
124.2161
 30
0.0
 10
-5.7624
 20
124.2161
 30
0.0
 10
-10.3865
 20
131.2513
 30
0.0
 10
-10.3865
 20
139.9277
 30
0.0
 10
-10.3865
 20
148.6041
 30
0.0
 10
-5.7624
 20
155.6393
 30
0.0
 10
-0.0611
 20
155.6393
 30
0.0
  0
SPLINE
  5
68
330
1F
100
AcDbEntity
  8
Layer 1
 62
   250
370
    20
100
AcDbSpline
210
0.0
220
0.0
230
1.0
 70
    11
 71
     3
 72
    14
 73
    10
 74
     0
 42
0.0000000001
 43
0.0000000001
 40
0.0
 40
0.0
 40
0.0
 40
0.0
 40
0.3333333333333333
 40
0.3333333333333333
 40
0.3333333333333333
 40
0.6666666666666666
 40
0.6666666666666666
 40
0.6666666666666666
 40
1.0
 40
1.0
 40
1.0
 40
1.0
 10
10.7157
 20
-40.4428
 30
0.0
 10
10.7157
 20
-40.4428
 30
0.0
 10
-11.5099
 20
-40.4428
 30
0.0
 10
-11.5099
 20
-40.4428
 30
0.0
 10
-11.5099
 20
-40.4428
 30
0.0
 10
-7.8538
 20
-18.494
 30
0.0
 10
0.5873
 20
-17.481
 30
0.0
 10
9.0262
 20
-16.4679
 30
0.0
 10
10.7157
 20
-40.4428
 30
0.0
 10
10.7157
 20
-40.4428
 30
0.0
  0
SPLINE
  5
69
330
1F
100
AcDbEntity
  8
Layer 1
 62
   250
370
    20
100
AcDbSpline
210
0.0
220
0.0
230
1.0
 70
    11
 71
     3
 72
    29
 73
    25
 74
     0
 42
0.0000000001
 43
0.0000000001
 40
0.0
 40
0.0
 40
0.0
 40
0.0
 40
0.125
 40
0.125
 40
0.125
 40
0.25
 40
0.25
 40
0.25
 40
0.375
 40
0.375
 40
0.375
 40
0.5
 40
0.5
 40
0.5
 40
0.625
 40
0.625
 40
0.625
 40
0.75
 40
0.75
 40
0.75
 40
0.875
 40
0.875
 40
0.875
 40
1.0
 40
1.0
 40
1.0
 40
1.0
 10
9.768
 20
84.0546
 30
0.0
 10
17.0373
 20
63.6739
 30
0.0
 10
27.4179
 20
29.8733
 30
0.0
 10
20.3681
 20
8.2758
 30
0.0
 10
17.6035
 20
-0.1991
 30
0.0
 10
10.8002
 20
-8.9205
 30
0.0
 10
1.0398
 20
-9.9966
 30
0.0
 10
1.0398
 20
-9.9966
 30
0.0
 10
-0.9436
 20
-10.2195
 30
0.0
 10
-0.9436
 20
-10.2195
 30
0.0
 10
-0.9436
 20
-10.2195
 30
0.0
 10
-2.874
 20
-9.7163
 30
0.0
 10
-2.874
 20
-9.7163
 30
0.0
 10
-26.984
 20
-3.4758
 30
0.0
 10
-24.8903
 20
26.466
 30
0.0
 10
-21.4144
 20
44.9231
 30
0.0
 10
-18.9807
 20
57.8555
 30
0.0
 10
-14.8463
 20
72.0531
 30
0.0
 10
-9.9543
 20
84.3799
 30
0.0
 10
-9.9543
 20
84.3799
 30
0.0
 10
0.3667
 20
110.4001
 30
0.0
 10
0.3667
 20
110.4001
 30
0.0
 10
0.3667
 20
110.4001
 30
0.0
 10
9.768
 20
84.0546
 30
0.0
 10
9.768
 20
84.0546
 30
0.0
  0
SPLINE
  5
6A
330
1F
100
AcDbEntity
  8
Layer 1
 62
   250
370
    20
100
AcDbSpline
210
0.0
220
0.0
230
1.0
 70
    11
 71
     3
 72
    17
 73
    13
 74
     0
 42
0.0000000001
 43
0.0000000001
 40
0.0
 40
0.0
 40
0.0
 40
0.0
 40
0.25
 40
0.25
 40
0.25
 40
0.5
 40
0.5
 40
0.5
 40
0.75
 40
0.75
 40
0.75
 40
1.0
 40
1.0
 40
1.0
 40
1.0
 10
-26.4122
 20
-56.4516
 30
0.0
 10
-26.4122
 20
-56.4516
 30
0.0
 10
-31.0791
 20
-55.7784
 30
0.0
 10
-32.9442
 20
-56.6778
 30
0.0
 10
-34.8117
 20
-57.5806
 30
0.0
 10
-38.0771
 20
-63.8943
 30
0.0
 10
-38.0771
 20
-63.8943
 30
0.0
 10
-38.0771
 20
-63.8943
 30
0.0
 10
-29.4435
 20
-64.1183
 30
0.0
 10
-29.4435
 20
-64.1183
 30
0.0
 10
-29.4435
 20
-64.1183
 30
0.0
 10
-24.0776
 20
-56.9074
 30
0.0
 10
-26.4122
 20
-56.4516
 30
0.0
  0
SPLINE
  5
6B
330
1F
100
AcDbEntity
  8
Layer 1
 62
   250
370
    20
100
AcDbSpline
210
0.0
220
0.0
230
1.0
 70
    11
 71
     3
 72
    17
 73
    13
 74
     0
 42
0.0000000001
 43
0.0000000001
 40
0.0
 40
0.0
 40
0.0
 40
0.0
 40
0.25
 40
0.25
 40
0.25
 40
0.5
 40
0.5
 40
0.5
 40
0.75
 40
0.75
 40
0.75
 40
1.0
 40
1.0
 40
1.0
 40
1.0
 10
26.2889
 20
-56.4516
 30
0.0
 10
26.2889
 20
-56.4516
 30
0.0
 10
30.9524
 20
-55.7784
 30
0.0
 10
32.8221
 20
-56.6778
 30
0.0
 10
34.6873
 20
-57.5806
 30
0.0
 10
37.9527
 20
-63.8943
 30
0.0
 10
37.9527
 20
-63.8943
 30
0.0
 10
37.9527
 20
-63.8943
 30
0.0
 10
29.3225
 20
-64.1183
 30
0.0
 10
29.3225
 20
-64.1183
 30
0.0
 10
29.3225
 20
-64.1183
 30
0.0
 10
23.9566
 20
-56.9074
 30
0.0
 10
26.2889
 20
-56.4516
 30
0.0
  0
SPLINE
  5
6C
330
1F
100
AcDbEntity
  8
Layer 1
 62
   250
370
    20
100
AcDbSpline
210
0.0
220
0.0
230
1.0
 70
    11
 71
     3
 72
    17
 73
    13
 74
     0
 42
0.0000000001
 43
0.0000000001
 40
0.0
 40
0.0
 40
0.0
 40
0.0
 40
0.25
 40
0.25
 40
0.25
 40
0.5
 40
0.5
 40
0.5
 40
0.75
 40
0.75
 40
0.75
 40
1.0
 40
1.0
 40
1.0
 40
1.0
 10
4.4111
 20
-56.4516
 30
0.0
 10
4.4111
 20
-56.4516
 30
0.0
 10
9.0768
 20
-55.7784
 30
0.0
 10
10.942
 20
-56.6778
 30
0.0
 10
12.8094
 20
-57.5806
 30
0.0
 10
16.0749
 20
-63.8943
 30
0.0
 10
16.0749
 20
-63.8943
 30
0.0
 10
16.0749
 20
-63.8943
 30
0.0
 10
7.4413
 20
-64.1183
 30
0.0
 10
7.4413
 20
-64.1183
 30
0.0
 10
7.4413
 20
-64.1183
 30
0.0
 10
2.0765
 20
-56.9074
 30
0.0
 10
4.4111
 20
-56.4516
 30
0.0
  0
SPLINE
  5
6D
330
1F
100
AcDbEntity
  8
Layer 1
 62
   250
370
    20
100
AcDbSpline
210
0.0
220
0.0
230
1.0
 70
    11
 71
     3
 72
    17
 73
    13
 74
     0
 42
0.0000000001
 43
0.0000000001
 40
0.0
 40
0.0
 40
0.0
 40
0.0
 40
0.25
 40
0.25
 40
0.25
 40
0.5
 40
0.5
 40
0.5
 40
0.75
 40
0.75
 40
0.75
 40
1.0
 40
1.0
 40
1.0
 40
1.0
 10
-4.5321
 20
-56.4516
 30
0.0
 10
-4.5321
 20
-56.4516
 30
0.0
 10
-9.1979
 20
-55.7784
 30
0.0
 10
-11.0664
 20
-56.6778
 30
0.0
 10
-12.9338
 20
-57.5806
 30
0.0
 10
-16.1993
 20
-63.8943
 30
0.0
 10
-16.1993
 20
-63.8943
 30
0.0
 10
-16.1993
 20
-63.8943
 30
0.0
 10
-7.5679
 20
-64.1183
 30
0.0
 10
-7.5679
 20
-64.1183
 30
0.0
 10
-7.5679
 20
-64.1183
 30
0.0
 10
-2.1998
 20
-56.9074
 30
0.0
 10
-4.5321
 20
-56.4516
 30
0.0
  0
SPLINE
  5
6E
330
1F
100
AcDbEntity
  8
Layer 1
 62
   250
370
    20
100
AcDbSpline
210
0.0
220
0.0
230
1.0
 70
    11
 71
     3
 72
    44
 73
    40
 74
     0
 42
0.0000000001
 43
0.0000000001
 40
0.0
 40
0.0
 40
0.0
 40
0.0
 40
0.0769230769230769
 40
0.0769230769230769
 40
0.0769230769230769
 40
0.1538461538461539
 40
0.1538461538461539
 40
0.1538461538461539
 40
0.2307692307692308
 40
0.2307692307692308
 40
0.2307692307692308
 40
0.3076923076923077
 40
0.3076923076923077
 40
0.3076923076923077
 40
0.3846153846153846
 40
0.3846153846153846
 40
0.3846153846153846
 40
0.4615384615384616
 40
0.4615384615384616
 40
0.4615384615384616
 40
0.5384615384615385
 40
0.5384615384615385
 40
0.5384615384615385
 40
0.6153846153846154
 40
0.6153846153846154
 40
0.6153846153846154
 40
0.6923076923076923
 40
0.6923076923076923
 40
0.6923076923076923
 40
0.7692307692307693
 40
0.7692307692307693
 40
0.7692307692307693
 40
0.8461538461538463
 40
0.8461538461538463
 40
0.8461538461538463
 40
0.9230769230769231
 40
0.9230769230769231
 40
0.9230769230769231
 40
1.0
 40
1.0
 40
1.0
 40
1.0
 10
-17.926
 20
-198.0305
 30
0.0
 10
-17.6649
 20
-192.0398
 30
0.0
 10
-16.7711
 20
-185.5764
 30
0.0
 10
-14.3004
 20
-180.3715
 30
0.0
 10
-11.7305
 20
-174.9527
 30
0.0
 10
-6.9376
 20
-170.3849
 30
0.0
 10
-0.3976
 20
-170.3849
 30
0.0
 10
6.1423
 20
-170.3849
 30
0.0
 10
10.933
 20
-174.9527
 30
0.0
 10
13.5062
 20
-180.3715
 30
0.0
 10
15.9736
 20
-185.5764
 30
0.0
 10
16.8673
 20
-192.0398
 30
0.0
 10
17.1285
 20
-198.0305
 30
0.0
 10
19.1625
 20
-200.0926
 30
0.0
 10
21.0502
 20
-202.4024
 30
0.0
 10
22.5675
 20
-204.5186
 30
0.0
 10
28.5188
 20
-212.8044
 30
0.0
 10
32.0758
 20
-222.3926
 30
0.0
 10
33.2554
 20
-232.3995
 30
0.0
 10
34.9585
 20
-246.7918
 30
0.0
 10
43.6586
 20
-258.9115
 30
0.0
 10
53.348
 20
-269.4475
 30
0.0
 10
53.348
 20
-269.4475
 30
0.0
 10
68.4709
 20
-285.8806
 30
0.0
 10
68.4709
 20
-285.8806
 30
0.0
 10
68.4709
 20
-285.8806
 30
0.0
 10
-69.2628
 20
-285.8806
 30
0.0
 10
-69.2628
 20
-285.8806
 30
0.0
 10
-69.2628
 20
-285.8806
 30
0.0
 10
-54.1456
 20
-269.4475
 30
0.0
 10
-54.1456
 20
-269.4475
 30
0.0
 10
-44.4505
 20
-258.9115
 30
0.0
 10
-35.7538
 20
-246.7918
 30
0.0
 10
-34.0507
 20
-232.3995
 30
0.0
 10
-32.8677
 20
-222.3869
 30
0.0
 10
-29.3107
 20
-212.7932
 30
0.0
 10
-23.3538
 20
-204.5051
 30
0.0
 10
-21.8399
 20
-202.3991
 30
0.0
 10
-19.9522
 20
-200.087
 30
0.0
 10
-17.926
 20
-198.0305
 30
0.0
  0
SPLINE
  5
6F
330
1F
100
AcDbEntity
  8
Layer 1
 62
   250
370
    20
100
AcDbSpline
210
0.0
220
0.0
230
1.0
 70
    11
 71
     3
 72
    26
 73
    22
 74
     0
 42
0.0000000001
 43
0.0000000001
 40
0.0
 40
0.0
 40
0.0
 40
0.0
 40
0.1428571428571428
 40
0.1428571428571428
 40
0.1428571428571428
 40
0.2857142857142857
 40
0.2857142857142857
 40
0.2857142857142857
 40
0.4285714285714285
 40
0.4285714285714285
 40
0.4285714285714285
 40
0.5714285714285714
 40
0.5714285714285714
 40
0.5714285714285714
 40
0.7142857142857142
 40
0.7142857142857142
 40
0.7142857142857142
 40
0.8571428571428571
 40
0.8571428571428571
 40
0.8571428571428571
 40
1.0
 40
1.0
 40
1.0
 40
1.0
 10
37.1659
 20
-114.9992
 30
0.0
 10
39.6682
 20
-110.0329
 30
0.0
 10
42.7074
 20
-104.9191
 30
0.0
 10
45.8479
 20
-100.3198
 30
0.0
 10
51.2397
 20
-92.4392
 30
0.0
 10
60.0005
 20
-81.5104
 30
0.0
 10
71.2321
 20
-84.3403
 30
0.0
 10
77.3161
 20
-85.8734
 30
0.0
 10
81.7196
 20
-90.4446
 30
0.0
 10
82.198
 20
-96.5793
 30
0.0
 10
82.5627
 20
-101.2766
 30
0.0
 10
80.4781
 20
-105.7566
 30
0.0
 10
77.6302
 20
-109.452
 30
0.0
 10
71.2895
 20
-117.7018
 30
0.0
 10
60.1108
 20
-124.1371
 30
0.0
 10
50.5767
 20
-128.3109
 30
0.0
 10
50.5767
 20
-128.3109
 30
0.0
 10
24.7862
 20
-139.6022
 30
0.0
 10
24.7862
 20
-139.6022
 30
0.0
 10
24.7862
 20
-139.6022
 30
0.0
 10
37.1659
 20
-114.9992
 30
0.0
 10
37.1659
 20
-114.9992
 30
0.0
  0
SPLINE
  5
70
330
1F
100
AcDbEntity
  8
Layer 1
 62
   250
370
    20
100
AcDbSpline
210
0.0
220
0.0
230
1.0
 70
    11
 71
     3
 72
    23
 73
    19
 74
     0
 42
0.0000000001
 43
0.0000000001
 40
0.0
 40
0.0
 40
0.0
 40
0.0
 40
0.1666666666666667
 40
0.1666666666666667
 40
0.1666666666666667
 40
0.3333333333333333
 40
0.3333333333333333
 40
0.3333333333333333
 40
0.5
 40
0.5
 40
0.5
 40
0.6666666666666666
 40
0.6666666666666666
 40
0.6666666666666666
 40
0.8333333333333333
 40
0.8333333333333333
 40
0.8333333333333333
 40
1.0
 40
1.0
 40
1.0
 40
1.0
 10
-8.4741
 20
-134.4963
 30
0.0
 10
-17.2157
 20
-123.7375
 30
0.0
 10
-28.9595
 20
-103.7046
 30
0.0
 10
-18.4348
 20
-90.9984
 30
0.0
 10
-12.5432
 20
-83.8844
 30
0.0
 10
-3.1059
 20
-80.7686
 30
0.0
 10
6.0657
 20
-82.7723
 30
0.0
 10
15.0911
 20
-84.7421
 30
0.0
 10
22.8985
 20
-92.0284
 30
0.0
 10
21.6727
 20
-101.5141
 30
0.0
 10
20.0349
 20
-114.1583
 30
0.0
 10
15.2093
 20
-122.9507
 30
0.0
 10
8.2112
 20
-133.6678
 30
0.0
 10
8.2112
 20
-133.6678
 30
0.0
 10
0.477
 20
-145.5219
 30
0.0
 10
0.477
 20
-145.5219
 30
0.0
 10
0.477
 20
-145.5219
 30
0.0
 10
-8.4741
 20
-134.4963
 30
0.0
 10
-8.4741
 20
-134.4963
 30
0.0
  0
SPLINE
  5
71
330
1F
100
AcDbEntity
  8
Layer 1
 62
   250
370
    20
100
AcDbSpline
210
0.0
220
0.0
230
1.0
 70
    11
 71
     3
 72
    26
 73
    22
 74
     0
 42
0.0000000001
 43
0.0000000001
 40
0.0
 40
0.0
 40
0.0
 40
0.0
 40
0.1428571428571428
 40
0.1428571428571428
 40
0.1428571428571428
 40
0.2857142857142857
 40
0.2857142857142857
 40
0.2857142857142857
 40
0.4285714285714285
 40
0.4285714285714285
 40
0.4285714285714285
 40
0.5714285714285714
 40
0.5714285714285714
 40
0.5714285714285714
 40
0.7142857142857142
 40
0.7142857142857142
 40
0.7142857142857142
 40
0.8571428571428571
 40
0.8571428571428571
 40
0.8571428571428571
 40
1.0
 40
1.0
 40
1.0
 40
1.0
 10
-50.7011
 20
-128.1263
 30
0.0
 10
-60.2319
 20
-123.9581
 30
0.0
 10
-71.4105
 20
-117.5172
 30
0.0
 10
-77.7546
 20
-109.2686
 30
0.0
 10
-80.5991
 20
-105.5697
 30
0.0
 10
-82.6871
 20
-101.0987
 30
0.0
 10
-82.3191
 20
-96.3958
 30
0.0
 10
-81.8407
 20
-90.2656
 30
0.0
 10
-77.4383
 20
-85.6922
 30
0.0
 10
-71.3565
 20
-84.159
 30
0.0
 10
-60.1216
 20
-81.3292
 30
0.0
 10
-51.363
 20
-92.2524
 30
0.0
 10
-45.9701
 20
-100.1419
 30
0.0
 10
-42.8284
 20
-104.7401
 30
0.0
 10
-39.7926
 20
-109.8483
 30
0.0
 10
-37.2881
 20
-114.8202
 30
0.0
 10
-37.2881
 20
-114.8202
 30
0.0
 10
-24.9095
 20
-139.4176
 30
0.0
 10
-24.9095
 20
-139.4176
 30
0.0
 10
-24.9095
 20
-139.4176
 30
0.0
 10
-50.7011
 20
-128.1263
 30
0.0
 10
-50.7011
 20
-128.1263
 30
0.0
  0
SPLINE
  5
72
330
1F
100
AcDbEntity
  8
Layer 1
 62
   250
370
    20
100
AcDbSpline
210
0.0
220
0.0
230
1.0
 70
    11
 71
     3
 72
    17
 73
    13
 74
     0
 42
0.0000000001
 43
0.0000000001
 40
0.0
 40
0.0
 40
0.0
 40
0.0
 40
0.25
 40
0.25
 40
0.25
 40
0.5
 40
0.5
 40
0.5
 40
0.75
 40
0.75
 40
0.75
 40
1.0
 40
1.0
 40
1.0
 40
1.0
 10
-0.3976
 20
275.4305
 30
0.0
 10
-0.3976
 20
275.4305
 30
0.0
 10
-9.8125
 20
275.4305
 30
0.0
 10
-9.8125
 20
275.4305
 30
0.0
 10
-9.8125
 20
282.0695
 30
0.0
 10
-5.5958
 20
287.4511
 30
0.0
 10
-0.3976
 20
287.4511
 30
0.0
 10
4.8017
 20
287.4511
 30
0.0
 10
9.0172
 20
282.0695
 30
0.0
 10
9.0172
 20
275.4305
 30
0.0
 10
9.0172
 20
275.4305
 30
0.0
 10
-0.3976
 20
275.4305
 30
0.0
 10
-0.3976
 20
275.4305
 30
0.0
  0
SPLINE
  5
73
330
1F
100
AcDbEntity
  8
Layer 1
 62
   250
370
    20
100
AcDbSpline
210
0.0
220
0.0
230
1.0
 70
    11
 71
     3
 72
    11
 73
     7
 74
     0
 42
0.0000000001
 43
0.0000000001
 40
0.0
 40
0.0
 40
0.0
 40
0.0
 40
0.5
 40
0.5
 40
0.5
 40
1.0
 40
1.0
 40
1.0
 40
1.0
 10
22.8129
 20
127.584
 30
0.0
 10
22.8129
 20
127.584
 30
0.0
 10
25.1993
 20
152.079
 30
0.0
 10
40.1094
 20
150.9218
 30
0.0
 10
55.023
 20
149.7703
 30
0.0
 10
46.3747
 20
137.3838
 30
0.0
 10
22.8129
 20
127.584
 30
0.0
  0
SPLINE
  5
74
330
1F
100
AcDbEntity
  8
Layer 1
 62
   250
370
    20
100
AcDbSpline
210
0.0
220
0.0
230
1.0
 70
    11
 71
     3
 72
    11
 73
     7
 74
     0
 42
0.0000000001
 43
0.0000000001
 40
0.0
 40
0.0
 40
0.0
 40
0.0
 40
0.5
 40
0.5
 40
0.5
 40
1.0
 40
1.0
 40
1.0
 40
1.0
 10
-23.6048
 20
127.584
 30
0.0
 10
-23.6048
 20
127.584
 30
0.0
 10
-25.9912
 20
152.079
 30
0.0
 10
-40.907
 20
150.9218
 30
0.0
 10
-55.8205
 20
149.7703
 30
0.0
 10
-47.1666
 20
137.3838
 30
0.0
 10
-23.6048
 20
127.584
 30
0.0
  0
SPLINE
  5
75
330
1F
100
AcDbEntity
  8
Layer 1
 62
   250
370
    20
100
AcDbSpline
210
0.0
220
0.0
230
1.0
 70
    11
 71
     3
 72
    14
 73
    10
 74
     0
 42
0.0000000001
 43
0.0000000001
 40
0.0
 40
0.0
 40
0.0
 40
0.0
 40
0.3333333333333333
 40
0.3333333333333333
 40
0.3333333333333333
 40
0.6666666666666666
 40
0.6666666666666666
 40
0.6666666666666666
 40
1.0
 40
1.0
 40
1.0
 40
1.0
 10
-10.3212
 20
171.1123
 30
0.0
 10
-10.3212
 20
171.1123
 30
0.0
 10
-8.6969
 20
179.747
 30
0.0
 10
-10.3212
 20
184.2597
 30
0.0
 10
-11.9455
 20
188.7769
 30
0.0
 10
-24.341
 20
171.6988
 30
0.0
 10
-22.1055
 20
170.9142
 30
0.0
 10
-19.87
 20
170.1274
 30
0.0
 10
-10.3212
 20
171.1123
 30
0.0
 10
-10.3212
 20
171.1123
 30
0.0
  0
SPLINE
  5
76
330
1F
100
AcDbEntity
  8
Layer 1
 62
   250
370
    20
100
AcDbSpline
210
0.0
220
0.0
230
1.0
 70
    11
 71
     3
 72
    14
 73
    10
 74
     0
 42
0.0000000001
 43
0.0000000001
 40
0.0
 40
0.0
 40
0.0
 40
0.0
 40
0.3333333333333333
 40
0.3333333333333333
 40
0.3333333333333333
 40
0.6666666666666666
 40
0.6666666666666666
 40
0.6666666666666666
 40
1.0
 40
1.0
 40
1.0
 40
1.0
 10
10.2002
 20
171.1123
 30
0.0
 10
10.2002
 20
171.1123
 30
0.0
 10
8.5737
 20
179.747
 30
0.0
 10
10.2002
 20
184.2597
 30
0.0
 10
11.8222
 20
188.7769
 30
0.0
 10
24.2166
 20
171.6988
 30
0.0
 10
21.9845
 20
170.9142
 30
0.0
 10
19.749
 20
170.1274
 30
0.0
 10
10.2002
 20
171.1123
 30
0.0
 10
10.2002
 20
171.1123
 30
0.0
  0
SPLINE
  5
77
330
1F
100
AcDbEntity
  8
Layer 1
 62
   250
370
    20
100
AcDbSpline
210
0.0
220
0.0
230
1.0
 70
    11
 71
     3
 72
    17
 73
    13
 74
     0
 42
0.0000000001
 43
0.0000000001
 40
0.0
 40
0.0
 40
0.0
 40
0.0
 40
0.25
 40
0.25
 40
0.25
 40
0.5
 40
0.5
 40
0.5
 40
0.75
 40
0.75
 40
0.75
 40
1.0
 40
1.0
 40
1.0
 40
1.0
 10
-0.3976
 20
212.655
 30
0.0
 10
2.9365
 20
212.655
 30
0.0
 10
5.6358
 20
208.543
 30
0.0
 10
5.6358
 20
203.4777
 30
0.0
 10
5.6358
 20
198.4067
 30
0.0
 10
2.9365
 20
194.2981
 30
0.0
 10
-0.3976
 20
194.2981
 30
0.0
 10
-3.7284
 20
194.2981
 30
0.0
 10
-6.431
 20
198.4067
 30
0.0
 10
-6.431
 20
203.4777
 30
0.0
 10
-6.431
 20
208.543
 30
0.0
 10
-3.7284
 20
212.655
 30
0.0
 10
-0.3976
 20
212.655
 30
0.0
  0
SPLINE
  5
78
330
1F
100
AcDbEntity
  8
Layer 1
 62
   250
370
    20
100
AcDbSpline
210
0.0
220
0.0
230
1.0
 70
    11
 71
     3
 72
    17
 73
    13
 74
     0
 42
0.0000000001
 43
0.0000000001
 40
0.0
 40
0.0
 40
0.0
 40
0.0
 40
0.25
 40
0.25
 40
0.25
 40
0.5
 40
0.5
 40
0.5
 40
0.75
 40
0.75
 40
0.75
 40
1.0
 40
1.0
 40
1.0
 40
1.0
 10
-0.0611
 20
230.1214
 30
0.0
 10
-3.7397
 20
229.9368
 30
0.0
 10
-10.104
 20
247.1624
 30
0.0
 10
-10.104
 20
247.1624
 30
0.0
 10
-10.104
 20
247.1624
 30
0.0
 10
-0.0611
 20
247.1624
 30
0.0
 10
-0.0611
 20
247.1624
 30
0.0
 10
-0.0611
 20
247.1624
 30
0.0
 10
9.9796
 20
247.1624
 30
0.0
 10
9.9796
 20
247.1624
 30
0.0
 10
9.9796
 20
247.1624
 30
0.0
 10
3.6152
 20
229.9346
 30
0.0
 10
-0.0611
 20
230.1214
 30
0.0
  0
ENDSEC
  0
SECTION
  2
OBJECTS
  0
DICTIONARY
  5
C
330
0
100
AcDbDictionary
281
     1
  3
ACAD_DETAILVIEWSTYLE
350
80
  3
ACAD_GROUP
350
D
  3
ACAD_LAYOUT
350
1A
  3
ACAD_MATERIAL
350
43
  3
ACAD_MLEADERSTYLE
350
5B
  3
ACAD_MLINESTYLE
350
17
  3
ACAD_PLOTSETTINGS
350
19
  3
ACAD_PLOTSTYLENAME
350
E
  3
ACAD_SCALELIST
350
47
  3
ACAD_SECTIONVIEWSTYLE
350
81
  3
ACAD_TABLESTYLE
350
59
  3
ACAD_VISUALSTYLE
350
2A
  3
ACDB_RECOMPOSE_DATA
350
7D
  3
AcDbVariableDictionary
350
79
  0
SUN
  5
5D
330
29
100
AcDbSun
 90
        1
290
     0
 63
     7
421
 16777215
 40
1.0
291
     1
 91
  2455826
 92
 54000000
292
     0
 70
     2
 71
   256
280
     1
  0
DICTIONARY
  5
80
102
{ACAD_REACTORS
330
C
102
}
330
C
100
AcDbDictionary
281
     1
  0
DICTIONARY
  5
D
102
{ACAD_REACTORS
330
C
102
}
330
C
100
AcDbDictionary
281
     1
  0
DICTIONARY
  5
1A
102
{ACAD_REACTORS
330
C
102
}
330
C
100
AcDbDictionary
281
     1
  3
Layout1
350
1E
  3
Layout2
350
26
  3
Model
350
22
  0
DICTIONARY
  5
43
102
{ACAD_REACTORS
330
C
102
}
330
C
100
AcDbDictionary
281
     1
  3
ByBlock
350
45
  3
ByLayer
350
44
  3
Global
350
46
  0
DICTIONARY
  5
5B
102
{ACAD_REACTORS
330
C
102
}
330
C
100
AcDbDictionary
281
     1
  3
Standard
350
5C
  0
DICTIONARY
  5
17
102
{ACAD_REACTORS
330
C
102
}
330
C
100
AcDbDictionary
281
     1
  3
Standard
350
18
  0
DICTIONARY
  5
19
102
{ACAD_REACTORS
330
C
102
}
330
C
100
AcDbDictionary
281
     1
  0
ACDBDICTIONARYWDFLT
  5
E
102
{ACAD_REACTORS
330
C
102
}
330
C
100
AcDbDictionary
281
     1
  3
Normal
350
F
100
AcDbDictionaryWithDefault
340
F
  0
DICTIONARY
  5
47
102
{ACAD_REACTORS
330
C
102
}
330
C
100
AcDbDictionary
281
     1
  3
A0
350
48
  3
A1
350
49
  3
A2
350
4A
  3
A3
350
4B
  3
A4
350
4C
  3
A5
350
4D
  3
A6
350
4E
  3
A7
350
4F
  3
A8
350
50
  3
A9
350
51
  3
B1
350
52
  3
B2
350
53
  3
B3
350
54
  3
B4
350
55
  3
B5
350
56
  3
B6
350
57
  3
B7
350
58
  0
DICTIONARY
  5
81
102
{ACAD_REACTORS
330
C
102
}
330
C
100
AcDbDictionary
281
     1
  0
DICTIONARY
  5
59
102
{ACAD_REACTORS
330
C
102
}
330
C
100
AcDbDictionary
281
     1
  3
Standard
350
5A
  0
DICTIONARY
  5
2A
102
{ACAD_REACTORS
330
C
102
}
330
C
100
AcDbDictionary
281
     1
  3
2dWireframe
350
2F
  3
Basic
350
32
  3
Brighten
350
36
  3
ColorChange
350
3A
  3
Conceptual
350
34
  3
Dim
350
35
  3
EdgeColorOff
350
3D
  3
Facepattern
350
39
  3
Flat
350
2B
  3
FlatWithEdges
350
2C
  3
Gouraud
350
2D
  3
GouraudWithEdges
350
2E
  3
Hidden
350
31
  3
JitterOff
350
3B
  3
Linepattern
350
38
  3
OverhangOff
350
3C
  3
Realistic
350
33
  3
Shaded
350
42
  3
Shaded with edges
350
41
  3
Shades of Gray
350
3E
  3
Sketchy
350
3F
  3
Thicken
350
37
  3
Wireframe
350
30
  3
X-Ray
350
40
  0
XRECORD
  5
7D
102
{ACAD_REACTORS
330
C
102
}
330
C
100
AcDbXrecord
280
     1
 90
        1
330
5A
  0
DICTIONARY
  5
79
102
{ACAD_REACTORS
330
C
102
}
330
C
100
AcDbDictionary
281
     1
  3
CANNOSCALE
350
7A
  3
CMLEADERSTYLE
350
7F
  3
CTABLESTYLE
350
7E
  0
LAYOUT
  5
1E
102
{ACAD_REACTORS
330
1A
102
}
330
1A
100
AcDbPlotSettings
  1

  2
none_device
  4

  6

 40
0.0
 41
0.0
 42
0.0
 43
0.0
 44
0.0
 45
0.0
 46
0.0
 47
0.0
 48
0.0
 49
0.0
140
0.0
141
0.0
142
1.0
143
1.0
 70
   688
 72
     0
 73
     0
 74
     5
  7

 75
    16
 76
     0
 77
     2
 78
   300
147
1.0
148
0.0
149
0.0
100
AcDbLayout
  1
Layout1
 70
     1
 71
     1
 10
0.0
 20
0.0
 11
12.0
 21
9.0
 12
0.0
 22
0.0
 32
0.0
 14
1.000000000000000E+20
 24
1.000000000000000E+20
 34
1.000000000000000E+20
 15
-1.000000000000000E+20
 25
-1.000000000000000E+20
 35
-1.000000000000000E+20
146
0.0
 13
0.0
 23
0.0
 33
0.0
 16
1.0
 26
0.0
 36
0.0
 17
0.0
 27
1.0
 37
0.0
 76
     0
330
1B
  0
LAYOUT
  5
26
102
{ACAD_REACTORS
330
1A
102
}
330
1A
100
AcDbPlotSettings
  1

  2
none_device
  4

  6

 40
0.0
 41
0.0
 42
0.0
 43
0.0
 44
0.0
 45
0.0
 46
0.0
 47
0.0
 48
0.0
 49
0.0
140
0.0
141
0.0
142
1.0
143
1.0
 70
   688
 72
     0
 73
     0
 74
     5
  7

 75
    16
 76
     0
 77
     2
 78
   300
147
1.0
148
0.0
149
0.0
100
AcDbLayout
  1
Layout2
 70
     1
 71
     2
 10
0.0
 20
0.0
 11
0.0
 21
0.0
 12
0.0
 22
0.0
 32
0.0
 14
0.0
 24
0.0
 34
0.0
 15
0.0
 25
0.0
 35
0.0
146
0.0
 13
0.0
 23
0.0
 33
0.0
 16
1.0
 26
0.0
 36
0.0
 17
0.0
 27
1.0
 37
0.0
 76
     0
330
23
  0
LAYOUT
  5
22
102
{ACAD_REACTORS
330
1A
102
}
330
1A
100
AcDbPlotSettings
  1

  2
none_device
  4
Letter_(8.50_x_11.00_Inches)
  6

 40
6.35
 41
6.35
 42
6.35000508
 43
6.35000508
 44
215.9
 45
279.4
 46
0.0
 47
0.0
 48
0.0
 49
0.0
140
0.0
141
0.0
142
1.0
143
1.0
 70
  1712
 72
     0
 73
     0
 74
     0
  7

 75
     0
 76
     0
 77
     2
 78
   300
147
1.0
148
0.0
149
0.0
100
AcDbLayout
  1
Model
 70
     1
 71
     0
 10
0.0
 20
0.0
 11
12.0
 21
9.0
 12
0.0
 22
0.0
 32
0.0
 14
-139.1442
 24
-300.8975
 34
0.0
 15
139.0199
 25
300.7557
 35
0.0
146
0.0
 13
0.0
 23
0.0
 33
0.0
 16
1.0
 26
0.0
 36
0.0
 17
0.0
 27
1.0
 37
0.0
 76
     0
330
1F
331
29
  0
MATERIAL
  5
45
102
{ACAD_REACTORS
330
43
102
}
330
43
100
AcDbMaterial
  1
ByBlock
 72
     1
 94
      127
  0
MATERIAL
  5
44
102
{ACAD_REACTORS
330
43
102
}
330
43
100
AcDbMaterial
  1
ByLayer
 72
     1
 94
      127
  0
MATERIAL
  5
46
102
{ACAD_REACTORS
330
43
102
}
330
43
100
AcDbMaterial
  1
Global
 72
     1
 94
      127
  0
MLEADERSTYLE
  5
5C
102
{ACAD_REACTORS
330
5B
102
}
330
5B
100
AcDbMLeaderStyle
179
     2
170
     2
171
     1
172
     0
 90
        2
 40
0.0
 41
0.0
173
     1
 91
-1056964608
340
14
 92
       -2
290
     1
 42
0.09
291
     1
 43
0.36
  3
Standard
341
0
 44
0.18
300

342
11
174
     1
178
     6
175
     1
176
     0
 93
-1056964608
 45
0.18
292
     0
297
     0
 46
0.18
343
0
 94
-1056964608
 47
1.0
 49
1.0
140
1.0
293
     1
141
0.0
294
     1
177
     0
142
1.0
295
     0
296
     0
143
0.125
271
     0
272
     9
273
     9
298
     0
  0
MLINESTYLE
  5
18
102
{ACAD_REACTORS
330
17
102
}
330
17
100
AcDbMlineStyle
  2
Standard
 70
     0
  3

 62
   256
 51
90.0
 52
90.0
 71
     2
 49
0.5
 62
   256
  6
BYLAYER
 49
-0.5
 62
   256
  6
BYLAYER
  0
ACDBPLACEHOLDER
  5
F
102
{ACAD_REACTORS
330
E
102
}
330
E
  0
SCALE
  5
48
102
{ACAD_REACTORS
330
47
102
}
330
47
100
AcDbScale
 70
     0
300
1:1
140
1.0
141
1.0
290
     1
  0
SCALE
  5
49
102
{ACAD_REACTORS
330
47
102
}
330
47
100
AcDbScale
 70
     0
300
1/128" = 1'-0"
140
0.0078125
141
12.0
290
     0
  0
SCALE
  5
4A
102
{ACAD_REACTORS
330
47
102
}
330
47
100
AcDbScale
 70
     0
300
1/64" = 1'-0"
140
0.015625
141
12.0
290
     0
  0
SCALE
  5
4B
102
{ACAD_REACTORS
330
47
102
}
330
47
100
AcDbScale
 70
     0
300
1/32" = 1'-0"
140
0.03125
141
12.0
290
     0
  0
SCALE
  5
4C
102
{ACAD_REACTORS
330
47
102
}
330
47
100
AcDbScale
 70
     0
300
1/16" = 1'-0"
140
0.0625
141
12.0
290
     0
  0
SCALE
  5
4D
102
{ACAD_REACTORS
330
47
102
}
330
47
100
AcDbScale
 70
     0
300
3/32" = 1'-0"
140
0.09375
141
12.0
290
     0
  0
SCALE
  5
4E
102
{ACAD_REACTORS
330
47
102
}
330
47
100
AcDbScale
 70
     0
300
1/8" = 1'-0"
140
0.125
141
12.0
290
     0
  0
SCALE
  5
4F
102
{ACAD_REACTORS
330
47
102
}
330
47
100
AcDbScale
 70
     0
300
3/16" = 1'-0"
140
0.1875
141
12.0
290
     0
  0
SCALE
  5
50
102
{ACAD_REACTORS
330
47
102
}
330
47
100
AcDbScale
 70
     0
300
1/4" = 1'-0"
140
0.25
141
12.0
290
     0
  0
SCALE
  5
51
102
{ACAD_REACTORS
330
47
102
}
330
47
100
AcDbScale
 70
     0
300
3/8" = 1'-0"
140
0.375
141
12.0
290
     0
  0
SCALE
  5
52
102
{ACAD_REACTORS
330
47
102
}
330
47
100
AcDbScale
 70
     0
300
1/2" = 1'-0"
140
0.5
141
12.0
290
     0
  0
SCALE
  5
53
102
{ACAD_REACTORS
330
47
102
}
330
47
100
AcDbScale
 70
     0
300
3/4" = 1'-0"
140
0.75
141
12.0
290
     0
  0
SCALE
  5
54
102
{ACAD_REACTORS
330
47
102
}
330
47
100
AcDbScale
 70
     0
300
1" = 1'-0"
140
1.0
141
12.0
290
     0
  0
SCALE
  5
55
102
{ACAD_REACTORS
330
47
102
}
330
47
100
AcDbScale
 70
     0
300
1-1/2" = 1'-0"
140
1.5
141
12.0
290
     0
  0
SCALE
  5
56
102
{ACAD_REACTORS
330
47
102
}
330
47
100
AcDbScale
 70
     0
300
3" = 1'-0"
140
3.0
141
12.0
290
     0
  0
SCALE
  5
57
102
{ACAD_REACTORS
330
47
102
}
330
47
100
AcDbScale
 70
     0
300
6" = 1'-0"
140
6.0
141
12.0
290
     0
  0
SCALE
  5
58
102
{ACAD_REACTORS
330
47
102
}
330
47
100
AcDbScale
 70
     0
300
1'-0" = 1'-0"
140
12.0
141
12.0
290
     0
  0
TABLESTYLE
  5
5A
102
{ACAD_REACTORS
330
59
102
}
102
{ACAD_XDICTIONARY
360
7B
102
}
330
59
100
AcDbTableStyle
  3
Standard
 70
     0
 71
     0
 40
0.06
 41
0.06
280
     0
281
     0
  7
Standard
140
0.18
170
     2
 62
     0
 63
   257
283
     0
 90
        4
 91
        0
  1

274
    -2
284
     1
 64
     0
275
    -2
285
     1
 65
     0
276
    -2
286
     1
 66
     0
277
    -2
287
     1
 67
     0
278
    -2
288
     1
 68
     0
279
    -2
289
     1
 69
     0
  7
Standard
140
0.25
170
     5
 62
     0
 63
   257
283
     0
 90
        4
 91
        0
  1

274
    -2
284
     1
 64
     0
275
    -2
285
     1
 65
     0
276
    -2
286
     1
 66
     0
277
    -2
287
     1
 67
     0
278
    -2
288
     1
 68
     0
279
    -2
289
     1
 69
     0
  7
Standard
140
0.18
170
     5
 62
     0
 63
   257
283
     0
 90
        4
 91
        0
  1

274
    -2
284
     1
 64
     0
275
    -2
285
     1
 65
     0
276
    -2
286
     1
 66
     0
277
    -2
287
     1
 67
     0
278
    -2
288
     1
 68
     0
279
    -2
289
     1
 69
     0
  0
VISUALSTYLE
  5
2F
102
{ACAD_REACTORS
330
2A
102
}
330
2A
100
AcDbVisualStyle
  2
2dWireframe
 70
     4
177
     3
291
     0
 70
    58
 90
        0
176
     1
 90
        2
176
     1
 90
        0
176
     1
 90
        0
176
     1
 40
0.6
176
     1
 40
30.0
176
     1
 62
     7
420
 16777215
176
     1
 90
        1
176
     1
 90
        4
176
     1
 62
     7
176
     1
 62
   257
176
     1
 90
        1
176
     1
 90
        1
176
     1
 40
1.0
176
     1
 90
        0
176
     1
 62
   257
176
     1
 40
1.0
176
     1
 90
        1
176
     1
 90
        6
176
     1
 90
        2
176
     1
 62
     7
176
     1
 90
        5
176
     1
 90
        0
176
     1
 90
        0
176
     1
290
     0
176
     1
 90
        1
176
     1
 40
0.0
176
     1
 90
        0
176
     1
290
     1
176
     1
290
     1
176
     1
290
     0
176
     1
290
     0
176
     1
290
     0
176
     1
290
     0
176
     1
290
     0
176
     1
290
     0
176
     1
290
     0
176
     1
 90
       50
176
     1
 40
0.0
176
     1
 40
1.0
176
     1
 90
        0
176
     1
 62
    18
420
        0
176
     1
 90
       50
176
     1
 90
        3
176
     1
 62
     5
420
      255
176
     1
290
     0
176
     1
 90
       50
176
     1
 90
       50
176
     1
 90
       50
176
     1
290
     0
176
     1
 90
       50
176
     1
 62
   256
176
     0
 40
1.0
176
     0
 90
        2
176
     1
  1
strokes_ogs.tif
176
     1
290
     0
176
     1
 40
1.0
176
     1
 40
1.0
176
     1
  0
VISUALSTYLE
  5
32
102
{ACAD_REACTORS
330
2A
102
}
330
2A
100
AcDbVisualStyle
  2
Basic
 70
     7
177
     3
291
     1
 70
    58
 90
        1
176
     1
 90
        0
176
     1
 90
        1
176
     1
 90
        0
176
     1
 40
0.6
176
     1
 40
30.0
176
     1
 62
     7
420
 16777215
176
     1
 90
        0
176
     1
 90
        4
176
     1
 62
     7
176
     1
 62
   257
176
     1
 90
        1
176
     1
 90
        1
176
     1
 40
1.0
176
     1
 90
        8
176
     1
 62
     7
176
     1
 40
1.0
176
     1
 90
        1
176
     1
 90
        6
176
     1
 90
        2
176
     1
 62
     7
176
     1
 90
        5
176
     1
 90
        0
176
     1
 90
        0
176
     1
290
     0
176
     1
 90
        1
176
     1
 40
0.0
176
     1
 90
        0
176
     1
290
     0
176
     1
290
     1
176
     1
290
     1
176
     1
290
     0
176
     1
290
     0
176
     1
290
     0
176
     1
290
     0
176
     1
290
     0
176
     1
290
     0
176
     1
 90
       50
176
     1
 40
0.0
176
     1
 40
1.0
176
     1
 90
        0
176
     1
 62
    18
420
        0
176
     1
 90
       50
176
     1
 90
        3
176
     1
 62
     5
420
      255
176
     1
290
     0
176
     1
 90
       50
176
     1
 90
       50
176
     1
 90
       50
176
     1
290
     0
176
     1
 90
       50
176
     1
 62
   256
176
     0
 40
1.0
176
     0
 90
        2
176
     1
  1
strokes_ogs.tif
176
     1
290
     0
176
     1
 40
1.0
176
     1
 40
1.0
176
     1
  0
VISUALSTYLE
  5
36
102
{ACAD_REACTORS
330
2A
102
}
330
2A
100
AcDbVisualStyle
  2
Brighten
 70
    12
177
     3
291
     1
 70
    58
 90
        2
176
     1
 90
        2
176
     1
 90
        0
176
     1
 90
        0
176
     1
 40
0.6
176
     1
 40
30.0
176
     1
 62
     7
420
 16777215
176
     1
 90
        1
176
     1
 90
        4
176
     1
 62
     7
176
     1
 62
   257
176
     1
 90
        1
176
     1
 90
        1
176
     1
 40
1.0
176
     1
 90
        8
176
     1
 62
     7
176
     1
 40
1.0
176
     1
 90
        1
176
     1
 90
        6
176
     1
 90
        2
176
     1
 62
     7
176
     1
 90
        5
176
     1
 90
        0
176
     1
 90
        0
176
     1
290
     0
176
     1
 90
        1
176
     1
 40
50.0
176
     1
 90
        0
176
     1
290
     0
176
     1
290
     1
176
     1
290
     1
176
     1
290
     0
176
     1
290
     0
176
     1
290
     0
176
     1
290
     0
176
     1
290
     0
176
     1
290
     0
176
     1
 90
       50
176
     1
 40
0.0
176
     1
 40
1.0
176
     1
 90
        0
176
     1
 62
    18
420
        0
176
     1
 90
       50
176
     1
 90
        3
176
     1
 62
     5
420
      255
176
     1
290
     0
176
     1
 90
       50
176
     1
 90
       50
176
     1
 90
       50
176
     1
290
     0
176
     1
 90
       50
176
     1
 62
   256
176
     0
 40
1.0
176
     0
 90
        2
176
     1
  1
strokes_ogs.tif
176
     1
290
     0
176
     1
 40
1.0
176
     1
 40
1.0
176
     1
  0
VISUALSTYLE
  5
3A
102
{ACAD_REACTORS
330
2A
102
}
330
2A
100
AcDbVisualStyle
  2
ColorChange
 70
    16
177
     3
291
     1
 70
    58
 90
        2
176
     1
 90
        2
176
     1
 90
        3
176
     1
 90
        0
176
     1
 40
0.6
176
     1
 40
30.0
176
     1
 62
     8
420
  8421504
176
     1
 90
        1
176
     1
 90
        4
176
     1
 62
     7
176
     1
 62
   257
176
     1
 90
        1
176
     1
 90
        1
176
     1
 40
1.0
176
     1
 90
        8
176
     1
 62
     8
420
  8421504
176
     1
 40
1.0
176
     1
 90
        1
176
     1
 90
        6
176
     1
 90
        2
176
     1
 62
     7
176
     1
 90
        5
176
     1
 90
        0
176
     1
 90
        0
176
     1
290
     0
176
     1
 90
        1
176
     1
 40
0.0
176
     1
 90
        0
176
     1
290
     0
176
     1
290
     1
176
     1
290
     1
176
     1
290
     0
176
     1
290
     0
176
     1
290
     0
176
     1
290
     0
176
     1
290
     0
176
     1
290
     0
176
     1
 90
       50
176
     1
 40
0.0
176
     1
 40
1.0
176
     1
 90
        0
176
     1
 62
    18
420
        0
176
     1
 90
       50
176
     1
 90
        3
176
     1
 62
     5
420
      255
176
     1
290
     0
176
     1
 90
       50
176
     1
 90
       50
176
     1
 90
       50
176
     1
290
     0
176
     1
 90
       50
176
     1
 62
   256
176
     0
 40
1.0
176
     0
 90
        2
176
     1
  1
strokes_ogs.tif
176
     1
290
     0
176
     1
 40
1.0
176
     1
 40
1.0
176
     1
  0
VISUALSTYLE
  5
34
102
{ACAD_REACTORS
330
2A
102
}
330
2A
100
AcDbVisualStyle
  2
Conceptual
 70
     9
177
     3
291
     0
 70
    58
 90
        3
176
     1
 90
        2
176
     1
 90
        0
176
     1
 90
        0
176
     1
 40
0.6
176
     1
 40
30.0
176
     1
 62
     7
420
 16777215
176
     1
 90
        2
176
     1
 90
        2
176
     1
 62
     7
176
     1
 62
   257
176
     1
 90
        1
176
     1
 90
        1
176
     1
 40
179.0
176
     1
 90
        8
176
     1
 62
     7
176
     1
 40
1.0
176
     1
 90
        1
176
     1
 90
        6
176
     1
 90
        2
176
     1
 62
     7
176
     1
 90
        3
176
     1
 90
        0
176
     1
 90
        0
176
     1
290
     0
176
     1
 90
        1
176
     1
 40
0.0
176
     1
 90
        0
176
     1
290
     0
176
     1
290
     1
176
     1
290
     1
176
     1
290
     0
176
     1
290
     0
176
     1
290
     0
176
     1
290
     0
176
     1
290
     0
176
     1
290
     0
176
     1
 90
       50
176
     1
 40
0.0
176
     1
 40
1.0
176
     1
 90
        0
176
     1
 62
    18
420
        0
176
     1
 90
       50
176
     1
 90
        3
176
     1
 62
     5
420
      255
176
     1
290
     0
176
     1
 90
       50
176
     1
 90
       50
176
     1
 90
       50
176
     1
290
     0
176
     1
 90
       50
176
     1
 62
   256
176
     0
 40
1.0
176
     0
 90
        2
176
     1
  1
strokes_ogs.tif
176
     1
290
     0
176
     1
 40
1.0
176
     1
 40
1.0
176
     1
  0
VISUALSTYLE
  5
35
102
{ACAD_REACTORS
330
2A
102
}
330
2A
100
AcDbVisualStyle
  2
Dim
 70
    11
177
     3
291
     1
 70
    58
 90
        2
176
     1
 90
        2
176
     1
 90
        0
176
     1
 90
        0
176
     1
 40
0.6
176
     1
 40
30.0
176
     1
 62
     7
420
 16777215
176
     1
 90
        1
176
     1
 90
        4
176
     1
 62
     7
176
     1
 62
   257
176
     1
 90
        1
176
     1
 90
        1
176
     1
 40
1.0
176
     1
 90
        8
176
     1
 62
     7
176
     1
 40
1.0
176
     1
 90
        1
176
     1
 90
        6
176
     1
 90
        2
176
     1
 62
     7
176
     1
 90
        5
176
     1
 90
        0
176
     1
 90
        0
176
     1
290
     0
176
     1
 90
        1
176
     1
 40
-50.0
176
     1
 90
        0
176
     1
290
     0
176
     1
290
     1
176
     1
290
     1
176
     1
290
     0
176
     1
290
     0
176
     1
290
     0
176
     1
290
     0
176
     1
290
     0
176
     1
290
     0
176
     1
 90
       50
176
     1
 40
0.0
176
     1
 40
1.0
176
     1
 90
        0
176
     1
 62
    18
420
        0
176
     1
 90
       50
176
     1
 90
        3
176
     1
 62
     5
420
      255
176
     1
290
     0
176
     1
 90
       50
176
     1
 90
       50
176
     1
 90
       50
176
     1
290
     0
176
     1
 90
       50
176
     1
 62
   256
176
     0
 40
1.0
176
     0
 90
        2
176
     1
  1
strokes_ogs.tif
176
     1
290
     0
176
     1
 40
1.0
176
     1
 40
1.0
176
     1
  0
VISUALSTYLE
  5
3D
102
{ACAD_REACTORS
330
2A
102
}
330
2A
100
AcDbVisualStyle
  2
EdgeColorOff
 70
    22
177
     3
291
     1
 70
    58
 90
        2
176
     0
 90
        2
176
     0
 90
        0
176
     0
 90
        0
176
     0
 40
0.6
176
     0
 40
30.0
176
     0
 62
     7
420
 16777215
176
     0
 90
        1
176
     0
 90
        4
176
     0
 62
     7
176
     0
 62
   257
176
     0
 90
        1
176
     0
 90
        1
176
     0
 40
1.0
176
     0
 90
        8
176
     2
 62
     7
176
     0
 40
1.0
176
     0
 90
        1
176
     0
 90
        6
176
     0
 90
        2
176
     0
 62
     7
176
     0
 90
        5
176
     0
 90
        0
176
     0
 90
        0
176
     0
290
     0
176
     0
 90
        1
176
     0
 40
0.0
176
     0
 90
        0
176
     0
290
     0
176
     0
290
     1
176
     0
290
     1
176
     0
290
     0
176
     0
290
     0
176
     0
290
     0
176
     0
290
     0
176
     0
290
     0
176
     0
290
     0
176
     0
 90
       50
176
     0
 40
0.0
176
     0
 40
1.0
176
     0
 90
        0
176
     0
 62
    18
420
        0
176
     0
 90
       50
176
     0
 90
        3
176
     0
 62
     5
420
      255
176
     0
290
     0
176
     0
 90
       50
176
     0
 90
       50
176
     0
 90
       50
176
     0
290
     0
176
     0
 90
       50
176
     0
 62
   256
176
     0
 40
1.0
176
     0
 90
        2
176
     0
  1
strokes_ogs.tif
176
     0
290
     0
176
     0
 40
1.0
176
     0
 40
1.0
176
     0
  0
VISUALSTYLE
  5
39
102
{ACAD_REACTORS
330
2A
102
}
330
2A
100
AcDbVisualStyle
  2
Facepattern
 70
    15
177
     3
291
     1
 70
    58
 90
        2
176
     1
 90
        2
176
     1
 90
        0
176
     1
 90
        0
176
     1
 40
0.6
176
     1
 40
30.0
176
     1
 62
     7
420
 16777215
176
     1
 90
        1
176
     1
 90
        4
176
     1
 62
     7
176
     1
 62
   257
176
     1
 90
        1
176
     1
 90
        1
176
     1
 40
1.0
176
     1
 90
        8
176
     1
 62
     7
176
     1
 40
1.0
176
     1
 90
        1
176
     1
 90
        6
176
     1
 90
        2
176
     1
 62
     7
176
     1
 90
        5
176
     1
 90
        0
176
     1
 90
        0
176
     1
290
     0
176
     1
 90
        1
176
     1
 40
0.0
176
     1
 90
        0
176
     1
290
     0
176
     1
290
     1
176
     1
290
     1
176
     1
290
     0
176
     1
290
     0
176
     1
290
     0
176
     1
290
     0
176
     1
290
     0
176
     1
290
     0
176
     1
 90
       50
176
     1
 40
0.0
176
     1
 40
1.0
176
     1
 90
        0
176
     1
 62
    18
420
        0
176
     1
 90
       50
176
     1
 90
        3
176
     1
 62
     5
420
      255
176
     1
290
     0
176
     1
 90
       50
176
     1
 90
       50
176
     1
 90
       50
176
     1
290
     0
176
     1
 90
       50
176
     1
 62
   256
176
     0
 40
1.0
176
     0
 90
        2
176
     1
  1
strokes_ogs.tif
176
     1
290
     0
176
     1
 40
1.0
176
     1
 40
1.0
176
     1
  0
VISUALSTYLE
  5
2B
102
{ACAD_REACTORS
330
2A
102
}
330
2A
100
AcDbVisualStyle
  2
Flat
 70
     0
177
     3
291
     1
 70
    58
 90
        2
176
     1
 90
        1
176
     1
 90
        1
176
     1
 90
        2
176
     1
 40
0.6
176
     1
 40
30.0
176
     1
 62
     7
420
 16777215
176
     1
 90
        0
176
     1
 90
        0
176
     1
 62
     7
176
     1
 62
   257
176
     1
 90
        1
176
     1
 90
        1
176
     1
 40
1.0
176
     1
 90
        8
176
     1
 62
     7
176
     1
 40
1.0
176
     1
 90
        1
176
     1
 90
        6
176
     1
 90
        2
176
     1
 62
     7
176
     1
 90
        5
176
     1
 90
        0
176
     1
 90
        0
176
     1
290
     0
176
     1
 90
       13
176
     1
 40
0.0
176
     1
 90
        0
176
     1
290
     0
176
     1
290
     1
176
     1
290
     1
176
     1
290
     0
176
     1
290
     0
176
     1
290
     0
176
     1
290
     0
176
     1
290
     0
176
     1
290
     0
176
     1
 90
       50
176
     1
 40
0.0
176
     1
 40
1.0
176
     1
 90
        0
176
     1
 62
    18
420
        0
176
     1
 90
       50
176
     1
 90
        3
176
     1
 62
     5
420
      255
176
     1
290
     0
176
     1
 90
       50
176
     1
 90
       50
176
     1
 90
       50
176
     1
290
     0
176
     1
 90
       50
176
     1
 62
   256
176
     0
 40
1.0
176
     0
 90
        2
176
     1
  1
strokes_ogs.tif
176
     1
290
     0
176
     1
 40
1.0
176
     1
 40
1.0
176
     1
  0
VISUALSTYLE
  5
2C
102
{ACAD_REACTORS
330
2A
102
}
330
2A
100
AcDbVisualStyle
  2
FlatWithEdges
 70
     1
177
     3
291
     1
 70
    58
 90
        2
176
     1
 90
        1
176
     1
 90
        1
176
     1
 90
        2
176
     1
 40
0.6
176
     1
 40
30.0
176
     1
 62
     7
420
 16777215
176
     1
 90
        1
176
     1
 90
        0
176
     1
 62
     7
176
     1
 62
   257
176
     1
 90
        1
176
     1
 90
        1
176
     1
 40
1.0
176
     1
 90
        0
176
     1
 62
   257
176
     1
 40
1.0
176
     1
 90
        1
176
     1
 90
        6
176
     1
 90
        2
176
     1
 62
     7
176
     1
 90
        5
176
     1
 90
        0
176
     1
 90
        0
176
     1
290
     0
176
     1
 90
       13
176
     1
 40
0.0
176
     1
 90
        0
176
     1
290
     0
176
     1
290
     1
176
     1
290
     1
176
     1
290
     0
176
     1
290
     0
176
     1
290
     0
176
     1
290
     0
176
     1
290
     0
176
     1
290
     0
176
     1
 90
       50
176
     1
 40
0.0
176
     1
 40
1.0
176
     1
 90
        0
176
     1
 62
    18
420
        0
176
     1
 90
       50
176
     1
 90
        3
176
     1
 62
     5
420
      255
176
     1
290
     0
176
     1
 90
       50
176
     1
 90
       50
176
     1
 90
       50
176
     1
290
     0
176
     1
 90
       50
176
     1
 62
   256
176
     0
 40
1.0
176
     0
 90
        2
176
     1
  1
strokes_ogs.tif
176
     1
290
     0
176
     1
 40
1.0
176
     1
 40
1.0
176
     1
  0
VISUALSTYLE
  5
2D
102
{ACAD_REACTORS
330
2A
102
}
330
2A
100
AcDbVisualStyle
  2
Gouraud
 70
     2
177
     3
291
     1
 70
    58
 90
        2
176
     1
 90
        2
176
     1
 90
        1
176
     1
 90
        2
176
     1
 40
0.6
176
     1
 40
30.0
176
     1
 62
     7
420
 16777215
176
     1
 90
        0
176
     1
 90
        0
176
     1
 62
     7
176
     1
 62
   257
176
     1
 90
        1
176
     1
 90
        1
176
     1
 40
1.0
176
     1
 90
        0
176
     1
 62
     7
176
     1
 40
1.0
176
     1
 90
        1
176
     1
 90
        6
176
     1
 90
        2
176
     1
 62
     7
176
     1
 90
        5
176
     1
 90
        0
176
     1
 90
        0
176
     1
290
     0
176
     1
 90
       13
176
     1
 40
0.0
176
     1
 90
        0
176
     1
290
     0
176
     1
290
     1
176
     1
290
     1
176
     1
290
     0
176
     1
290
     0
176
     1
290
     0
176
     1
290
     0
176
     1
290
     0
176
     1
290
     0
176
     1
 90
       50
176
     1
 40
0.0
176
     1
 40
1.0
176
     1
 90
        0
176
     1
 62
    18
420
        0
176
     1
 90
       50
176
     1
 90
        3
176
     1
 62
     5
420
      255
176
     1
290
     0
176
     1
 90
       50
176
     1
 90
       50
176
     1
 90
       50
176
     1
290
     0
176
     1
 90
       50
176
     1
 62
   256
176
     0
 40
1.0
176
     0
 90
        2
176
     1
  1
strokes_ogs.tif
176
     1
290
     0
176
     1
 40
1.0
176
     1
 40
1.0
176
     1
  0
VISUALSTYLE
  5
2E
102
{ACAD_REACTORS
330
2A
102
}
330
2A
100
AcDbVisualStyle
  2
GouraudWithEdges
 70
     3
177
     3
291
     1
 70
    58
 90
        2
176
     1
 90
        2
176
     1
 90
        1
176
     1
 90
        2
176
     1
 40
0.6
176
     1
 40
30.0
176
     1
 62
     7
420
 16777215
176
     1
 90
        1
176
     1
 90
        0
176
     1
 62
     7
176
     1
 62
   257
176
     1
 90
        1
176
     1
 90
        1
176
     1
 40
1.0
176
     1
 90
        0
176
     1
 62
   257
176
     1
 40
1.0
176
     1
 90
        1
176
     1
 90
        6
176
     1
 90
        2
176
     1
 62
     7
176
     1
 90
        5
176
     1
 90
        0
176
     1
 90
        0
176
     1
290
     0
176
     1
 90
       13
176
     1
 40
0.0
176
     1
 90
        0
176
     1
290
     0
176
     1
290
     1
176
     1
290
     1
176
     1
290
     0
176
     1
290
     0
176
     1
290
     0
176
     1
290
     0
176
     1
290
     0
176
     1
290
     0
176
     1
 90
       50
176
     1
 40
0.0
176
     1
 40
1.0
176
     1
 90
        0
176
     1
 62
    18
420
        0
176
     1
 90
       50
176
     1
 90
        3
176
     1
 62
     5
420
      255
176
     1
290
     0
176
     1
 90
       50
176
     1
 90
       50
176
     1
 90
       50
176
     1
290
     0
176
     1
 90
       50
176
     1
 62
   256
176
     0
 40
1.0
176
     0
 90
        2
176
     1
  1
strokes_ogs.tif
176
     1
290
     0
176
     1
 40
1.0
176
     1
 40
1.0
176
     1
  0
VISUALSTYLE
  5
31
102
{ACAD_REACTORS
330
2A
102
}
330
2A
100
AcDbVisualStyle
  2
Hidden
 70
     6
177
     3
291
     0
 70
    58
 90
        1
176
     1
 90
        2
176
     1
 90
        2
176
     1
 90
        0
176
     1
 40
0.6
176
     1
 40
30.0
176
     1
 62
     7
420
 16777215
176
     1
 90
        2
176
     1
 90
        2
176
     1
 62
     7
176
     1
 62
   257
176
     1
 90
        2
176
     1
 90
        1
176
     1
 40
40.0
176
     1
 90
        0
176
     1
 62
   257
176
     1
 40
1.0
176
     1
 90
        1
176
     1
 90
        6
176
     1
 90
        2
176
     1
 62
     7
176
     1
 90
        3
176
     1
 90
        0
176
     1
 90
        0
176
     1
290
     0
176
     1
 90
        1
176
     1
 40
0.0
176
     1
 90
        0
176
     1
290
     0
176
     1
290
     1
176
     1
290
     1
176
     1
290
     0
176
     1
290
     0
176
     1
290
     0
176
     1
290
     0
176
     1
290
     0
176
     1
290
     0
176
     1
 90
       50
176
     1
 40
0.0
176
     1
 40
1.0
176
     1
 90
        0
176
     1
 62
    18
420
        0
176
     1
 90
       50
176
     1
 90
        3
176
     1
 62
     5
420
      255
176
     1
290
     0
176
     1
 90
       50
176
     1
 90
       50
176
     1
 90
       50
176
     1
290
     0
176
     1
 90
       50
176
     1
 62
   256
176
     0
 40
1.0
176
     0
 90
        2
176
     1
  1
strokes_ogs.tif
176
     1
290
     0
176
     1
 40
1.0
176
     1
 40
1.0
176
     1
  0
VISUALSTYLE
  5
3B
102
{ACAD_REACTORS
330
2A
102
}
330
2A
100
AcDbVisualStyle
  2
JitterOff
 70
    20
177
     3
291
     1
 70
    58
 90
        2
176
     0
 90
        2
176
     0
 90
        0
176
     0
 90
        0
176
     0
 40
0.6
176
     0
 40
30.0
176
     0
 62
     7
420
 16777215
176
     0
 90
        1
176
     0
 90
        4
176
     0
 62
     7
176
     0
 62
   257
176
     0
 90
        1
176
     0
 90
        1
176
     0
 40
1.0
176
     0
 90
       10
176
     2
 62
     7
176
     0
 40
1.0
176
     0
 90
        1
176
     0
 90
        6
176
     0
 90
        2
176
     0
 62
     7
176
     0
 90
        5
176
     0
 90
        0
176
     0
 90
        0
176
     0
290
     0
176
     0
 90
        1
176
     0
 40
0.0
176
     0
 90
        0
176
     0
290
     0
176
     0
290
     1
176
     0
290
     1
176
     0
290
     0
176
     0
290
     0
176
     0
290
     0
176
     0
290
     0
176
     0
290
     0
176
     0
290
     0
176
     0
 90
       50
176
     0
 40
0.0
176
     0
 40
1.0
176
     0
 90
        0
176
     0
 62
    18
420
        0
176
     0
 90
       50
176
     0
 90
        3
176
     0
 62
     5
420
      255
176
     0
290
     0
176
     0
 90
       50
176
     0
 90
       50
176
     0
 90
       50
176
     0
290
     0
176
     0
 90
       50
176
     0
 62
   256
176
     0
 40
1.0
176
     0
 90
        2
176
     0
  1
strokes_ogs.tif
176
     0
290
     0
176
     0
 40
1.0
176
     0
 40
1.0
176
     0
  0
VISUALSTYLE
  5
38
102
{ACAD_REACTORS
330
2A
102
}
330
2A
100
AcDbVisualStyle
  2
Linepattern
 70
    14
177
     3
291
     1
 70
    58
 90
        2
176
     1
 90
        2
176
     1
 90
        0
176
     1
 90
        0
176
     1
 40
0.6
176
     1
 40
30.0
176
     1
 62
     7
420
 16777215
176
     1
 90
        1
176
     1
 90
        4
176
     1
 62
     7
176
     1
 62
   257
176
     1
 90
        7
176
     1
 90
        7
176
     1
 40
1.0
176
     1
 90
        8
176
     1
 62
     7
176
     1
 40
1.0
176
     1
 90
        1
176
     1
 90
        6
176
     1
 90
        2
176
     1
 62
     7
176
     1
 90
        5
176
     1
 90
        0
176
     1
 90
        0
176
     1
290
     0
176
     1
 90
        1
176
     1
 40
0.0
176
     1
 90
        0
176
     1
290
     0
176
     1
290
     1
176
     1
290
     1
176
     1
290
     0
176
     1
290
     0
176
     1
290
     0
176
     1
290
     0
176
     1
290
     0
176
     1
290
     0
176
     1
 90
       50
176
     1
 40
0.0
176
     1
 40
1.0
176
     1
 90
        0
176
     1
 62
    18
420
        0
176
     1
 90
       50
176
     1
 90
        3
176
     1
 62
     5
420
      255
176
     1
290
     0
176
     1
 90
       50
176
     1
 90
       50
176
     1
 90
       50
176
     1
290
     0
176
     1
 90
       50
176
     1
 62
   256
176
     0
 40
1.0
176
     0
 90
        2
176
     1
  1
strokes_ogs.tif
176
     1
290
     0
176
     1
 40
1.0
176
     1
 40
1.0
176
     1
  0
VISUALSTYLE
  5
3C
102
{ACAD_REACTORS
330
2A
102
}
330
2A
100
AcDbVisualStyle
  2
OverhangOff
 70
    21
177
     3
291
     1
 70
    58
 90
        2
176
     0
 90
        2
176
     0
 90
        0
176
     0
 90
        0
176
     0
 40
0.6
176
     0
 40
30.0
176
     0
 62
     7
420
 16777215
176
     0
 90
        1
176
     0
 90
        4
176
     0
 62
     7
176
     0
 62
   257
176
     0
 90
        1
176
     0
 90
        1
176
     0
 40
1.0
176
     0
 90
        9
176
     2
 62
     7
176
     0
 40
1.0
176
     0
 90
        1
176
     0
 90
        6
176
     0
 90
        2
176
     0
 62
     7
176
     0
 90
        5
176
     0
 90
        0
176
     0
 90
        0
176
     0
290
     0
176
     0
 90
        1
176
     0
 40
0.0
176
     0
 90
        0
176
     0
290
     0
176
     0
290
     1
176
     0
290
     1
176
     0
290
     0
176
     0
290
     0
176
     0
290
     0
176
     0
290
     0
176
     0
290
     0
176
     0
290
     0
176
     0
 90
       50
176
     0
 40
0.0
176
     0
 40
1.0
176
     0
 90
        0
176
     0
 62
    18
420
        0
176
     0
 90
       50
176
     0
 90
        3
176
     0
 62
     5
420
      255
176
     0
290
     0
176
     0
 90
       50
176
     0
 90
       50
176
     0
 90
       50
176
     0
290
     0
176
     0
 90
       50
176
     0
 62
   256
176
     0
 40
1.0
176
     0
 90
        2
176
     0
  1
strokes_ogs.tif
176
     0
290
     0
176
     0
 40
1.0
176
     0
 40
1.0
176
     0
  0
VISUALSTYLE
  5
33
102
{ACAD_REACTORS
330
2A
102
}
330
2A
100
AcDbVisualStyle
  2
Realistic
 70
     8
177
     3
291
     0
 70
    58
 90
        2
176
     1
 90
        3
176
     1
 90
        0
176
     1
 90
        2
176
     1
 40
0.6
176
     1
 40
30.0
176
     1
 62
     7
420
 16777215
176
     1
 90
        0
176
     1
 90
        0
176
     1
 62
     7
176
     1
 62
   257
176
     1
 90
        1
176
     1
 90
        1
176
     1
 40
1.0
176
     1
 90
        8
176
     1
 62
   257
176
     1
 40
1.0
176
     1
 90
        1
176
     1
 90
        6
176
     1
 90
        2
176
     1
 62
     7
176
     1
 90
        3
176
     1
 90
        0
176
     1
 90
        0
176
     1
290
     0
176
     1
 90
       13
176
     1
 40
0.0
176
     1
 90
        0
176
     1
290
     0
176
     1
290
     1
176
     1
290
     1
176
     1
290
     0
176
     1
290
     0
176
     1
290
     0
176
     1
290
     0
176
     1
290
     0
176
     1
290
     0
176
     1
 90
       50
176
     1
 40
0.0
176
     1
 40
1.0
176
     1
 90
        0
176
     1
 62
    18
420
        0
176
     1
 90
       50
176
     1
 90
        3
176
     1
 62
     5
420
      255
176
     1
290
     0
176
     1
 90
       50
176
     1
 90
       50
176
     1
 90
       50
176
     1
290
     0
176
     1
 90
       50
176
     1
 62
   256
176
     0
 40
1.0
176
     0
 90
        2
176
     1
  1
strokes_ogs.tif
176
     1
290
     0
176
     1
 40
1.0
176
     1
 40
1.0
176
     1
  0
VISUALSTYLE
  5
42
102
{ACAD_REACTORS
330
2A
102
}
330
2A
100
AcDbVisualStyle
  2
Shaded
 70
    27
177
     3
291
     0
 70
    58
 90
        2
176
     1
 90
        2
176
     1
 90
        1
176
     1
 90
        2
176
     1
 40
0.6
176
     1
 40
30.0
176
     1
 62
     7
420
 16777215
176
     1
 90
        0
176
     1
 90
        4
176
     1
 62
     7
176
     1
 62
   257
176
     1
 90
        1
176
     1
 90
        1
176
     1
 40
1.0
176
     1
 90
        8
176
     1
 62
   257
176
     1
 40
1.0
176
     1
 90
        1
176
     1
 90
        6
176
     1
 90
        2
176
     1
 62
     8
420
  7895160
176
     1
 90
        3
176
     1
 90
        0
176
     1
 90
        0
176
     1
290
     0
176
     1
 90
        5
176
     1
 40
0.0
176
     1
 90
        0
176
     1
290
     0
176
     1
290
     1
176
     1
290
     1
176
     1
290
     0
176
     1
290
     0
176
     1
290
     0
176
     1
290
     0
176
     1
290
     0
176
     1
290
     0
176
     1
 90
       50
176
     1
 40
0.0
176
     1
 40
1.0
176
     1
 90
        0
176
     1
 62
    18
420
        0
176
     1
 90
       50
176
     1
 90
        3
176
     1
 62
     5
420
      255
176
     1
290
     0
176
     1
 90
       50
176
     1
 90
       50
176
     1
 90
       50
176
     1
290
     0
176
     1
 90
       50
176
     1
 62
   256
176
     0
 40
1.0
176
     0
 90
        2
176
     1
  1
strokes_ogs.tif
176
     1
290
     0
176
     1
 40
1.0
176
     1
 40
1.0
176
     1
  0
VISUALSTYLE
  5
41
102
{ACAD_REACTORS
330
2A
102
}
330
2A
100
AcDbVisualStyle
  2
Shaded with edges
 70
    26
177
     3
291
     0
 70
    58
 90
        2
176
     1
 90
        2
176
     1
 90
        1
176
     1
 90
        2
176
     1
 40
0.6
176
     1
 40
30.0
176
     1
 62
     7
420
 16777215
176
     1
 90
        1
176
     1
 90
       10
176
     1
 62
     7
176
     1
 62
   257
176
     1
 90
        2
176
     1
 90
        1
176
     1
 40
1.0
176
     1
 90
        8
176
     1
 62
   257
176
     1
 40
1.0
176
     1
 90
        1
176
     1
 90
        6
176
     1
 90
        2
176
     1
 62
     7
176
     1
 90
        3
176
     1
 90
        0
176
     1
 90
        0
176
     1
290
     0
176
     1
 90
        5
176
     1
 40
0.0
176
     1
 90
        0
176
     1
290
     0
176
     1
290
     1
176
     1
290
     1
176
     1
290
     0
176
     1
290
     0
176
     1
290
     0
176
     1
290
     0
176
     1
290
     0
176
     1
290
     0
176
     1
 90
       50
176
     1
 40
0.0
176
     1
 40
1.0
176
     1
 90
        0
176
     1
 62
    18
420
        0
176
     1
 90
       50
176
     1
 90
        3
176
     1
 62
     5
420
      255
176
     1
290
     0
176
     1
 90
       50
176
     1
 90
       50
176
     1
 90
       50
176
     1
290
     0
176
     1
 90
       50
176
     1
 62
   256
176
     0
 40
1.0
176
     0
 90
        2
176
     1
  1
strokes_ogs.tif
176
     1
290
     0
176
     1
 40
1.0
176
     1
 40
1.0
176
     1
  0
VISUALSTYLE
  5
3E
102
{ACAD_REACTORS
330
2A
102
}
330
2A
100
AcDbVisualStyle
  2
Shades of Gray
 70
    23
177
     3
291
     0
 70
    58
 90
        2
176
     1
 90
        2
176
     1
 90
        3
176
     1
 90
        0
176
     1
 40
0.6
176
     1
 40
30.0
176
     1
 62
     7
420
 16777215
176
     1
 90
        2
176
     1
 90
        2
176
     1
 62
     7
176
     1
 62
     7
176
     1
 90
        1
176
     1
 90
        1
176
     1
 40
40.0
176
     1
 90
        8
176
     1
 62
     7
176
     1
 40
1.0
176
     1
 90
        1
176
     1
 90
        6
176
     1
 90
        2
176
     1
 62
     7
176
     1
 90
        3
176
     1
 90
        0
176
     1
 90
        0
176
     1
290
     0
176
     1
 90
        1
176
     1
 40
0.0
176
     1
 90
        0
176
     1
290
     0
176
     1
290
     1
176
     1
290
     1
176
     1
290
     0
176
     1
290
     0
176
     1
290
     0
176
     1
290
     0
176
     1
290
     0
176
     1
290
     0
176
     1
 90
       50
176
     1
 40
0.0
176
     1
 40
1.0
176
     1
 90
        0
176
     1
 62
    18
420
        0
176
     1
 90
       50
176
     1
 90
        3
176
     1
 62
     5
420
      255
176
     1
290
     0
176
     1
 90
       50
176
     1
 90
       50
176
     1
 90
       50
176
     1
290
     0
176
     1
 90
       50
176
     1
 62
   256
176
     0
 40
1.0
176
     0
 90
        2
176
     1
  1
strokes_ogs.tif
176
     1
290
     0
176
     1
 40
1.0
176
     1
 40
1.0
176
     1
  0
VISUALSTYLE
  5
3F
102
{ACAD_REACTORS
330
2A
102
}
330
2A
100
AcDbVisualStyle
  2
Sketchy
 70
    24
177
     3
291
     0
 70
    58
 90
        1
176
     1
 90
        2
176
     1
 90
        2
176
     1
 90
        0
176
     1
 40
0.6
176
     1
 40
30.0
176
     1
 62
     7
420
 16777215
176
     1
 90
        2
176
     1
 90
        2
176
     1
 62
     7
176
     1
 62
     7
176
     1
 90
        1
176
     1
 90
        1
176
     1
 40
40.0
176
     1
 90
       11
176
     1
 62
     7
176
     1
 40
1.0
176
     1
 90
        1
176
     1
 90
        6
176
     1
 90
        2
176
     1
 62
     7
176
     1
 90
        6
176
     1
 90
        0
176
     1
 90
        0
176
     1
290
     0
176
     1
 90
        1
176
     1
 40
0.0
176
     1
 90
        0
176
     1
290
     0
176
     1
290
     1
176
     1
290
     1
176
     1
290
     0
176
     1
290
     0
176
     1
290
     0
176
     1
290
     0
176
     1
290
     0
176
     1
290
     0
176
     1
 90
       50
176
     1
 40
0.0
176
     1
 40
1.0
176
     1
 90
        0
176
     1
 62
    18
420
        0
176
     1
 90
       50
176
     1
 90
        3
176
     1
 62
     5
420
      255
176
     1
290
     0
176
     1
 90
       50
176
     1
 90
       50
176
     1
 90
       50
176
     1
290
     0
176
     1
 90
       50
176
     1
 62
   256
176
     0
 40
1.0
176
     0
 90
        2
176
     1
  1
strokes_ogs.tif
176
     1
290
     0
176
     1
 40
1.0
176
     1
 40
1.0
176
     1
  0
VISUALSTYLE
  5
37
102
{ACAD_REACTORS
330
2A
102
}
330
2A
100
AcDbVisualStyle
  2
Thicken
 70
    13
177
     3
291
     1
 70
    58
 90
        2
176
     1
 90
        2
176
     1
 90
        0
176
     1
 90
        0
176
     1
 40
0.6
176
     1
 40
30.0
176
     1
 62
     7
420
 16777215
176
     1
 90
        1
176
     1
 90
        4
176
     1
 62
     7
176
     1
 62
   257
176
     1
 90
        1
176
     1
 90
        1
176
     1
 40
1.0
176
     1
 90
       12
176
     1
 62
     7
176
     1
 40
1.0
176
     1
 90
        1
176
     1
 90
        6
176
     1
 90
        2
176
     1
 62
     7
176
     1
 90
        5
176
     1
 90
        0
176
     1
 90
        0
176
     1
290
     0
176
     1
 90
        1
176
     1
 40
0.0
176
     1
 90
        0
176
     1
290
     0
176
     1
290
     1
176
     1
290
     1
176
     1
290
     0
176
     1
290
     0
176
     1
290
     0
176
     1
290
     0
176
     1
290
     0
176
     1
290
     0
176
     1
 90
       50
176
     1
 40
0.0
176
     1
 40
1.0
176
     1
 90
        0
176
     1
 62
    18
420
        0
176
     1
 90
       50
176
     1
 90
        3
176
     1
 62
     5
420
      255
176
     1
290
     0
176
     1
 90
       50
176
     1
 90
       50
176
     1
 90
       50
176
     1
290
     0
176
     1
 90
       50
176
     1
 62
   256
176
     0
 40
1.0
176
     0
 90
        2
176
     1
  1
strokes_ogs.tif
176
     1
290
     0
176
     1
 40
1.0
176
     1
 40
1.0
176
     1
  0
VISUALSTYLE
  5
30
102
{ACAD_REACTORS
330
2A
102
}
330
2A
100
AcDbVisualStyle
  2
Wireframe
 70
     5
177
     3
291
     0
 70
    58
 90
        0
176
     1
 90
        2
176
     1
 90
        0
176
     1
 90
        0
176
     1
 40
0.6
176
     1
 40
30.0
176
     1
 62
     7
420
 16777215
176
     1
 90
        1
176
     1
 90
        4
176
     1
 62
     7
176
     1
 62
   257
176
     1
 90
        1
176
     1
 90
        1
176
     1
 40
1.0
176
     1
 90
        0
176
     1
 62
   257
176
     1
 40
1.0
176
     1
 90
        1
176
     1
 90
        6
176
     1
 90
        2
176
     1
 62
     7
176
     1
 90
        3
176
     1
 90
        0
176
     1
 90
        0
176
     1
290
     0
176
     1
 90
        1
176
     1
 40
0.0
176
     1
 90
        0
176
     1
290
     0
176
     1
290
     1
176
     1
290
     1
176
     1
290
     0
176
     1
290
     0
176
     1
290
     0
176
     1
290
     0
176
     1
290
     0
176
     1
290
     0
176
     1
 90
       50
176
     1
 40
0.0
176
     1
 40
1.0
176
     1
 90
        0
176
     1
 62
    18
420
        0
176
     1
 90
       50
176
     1
 90
        3
176
     1
 62
     5
420
      255
176
     1
290
     0
176
     1
 90
       50
176
     1
 90
       50
176
     1
 90
       50
176
     1
290
     0
176
     1
 90
       50
176
     1
 62
   256
176
     0
 40
1.0
176
     0
 90
        2
176
     1
  1
strokes_ogs.tif
176
     1
290
     0
176
     1
 40
1.0
176
     1
 40
1.0
176
     1
  0
VISUALSTYLE
  5
40
102
{ACAD_REACTORS
330
2A
102
}
330
2A
100
AcDbVisualStyle
  2
X-Ray
 70
    25
177
     3
291
     0
 70
    58
 90
        2
176
     1
 90
        2
176
     1
 90
        1
176
     1
 90
        1
176
     1
 40
0.5
176
     1
 40
30.0
176
     1
 62
     7
420
 16777215
176
     1
 90
        1
176
     1
 90
        0
176
     1
 62
     7
176
     1
 62
   257
176
     1
 90
        1
176
     1
 90
        1
176
     1
 40
1.0
176
     1
 90
        8
176
     1
 62
     7
176
     1
 40
1.0
176
     1
 90
        1
176
     1
 90
        6
176
     1
 90
        2
176
     1
 62
     7
176
     1
 90
        3
176
     1
 90
        0
176
     1
 90
        0
176
     1
290
     0
176
     1
 90
       13
176
     1
 40
0.0
176
     1
 90
        0
176
     1
290
     0
176
     1
290
     1
176
     1
290
     1
176
     1
290
     0
176
     1
290
     0
176
     1
290
     0
176
     1
290
     0
176
     1
290
     0
176
     1
290
     0
176
     1
 90
       50
176
     1
 40
0.0
176
     1
 40
1.0
176
     1
 90
        0
176
     1
 62
    18
420
        0
176
     1
 90
       50
176
     1
 90
        3
176
     1
 62
     5
420
      255
176
     1
290
     0
176
     1
 90
       50
176
     1
 90
       50
176
     1
 90
       50
176
     1
290
     0
176
     1
 90
       50
176
     1
 62
   256
176
     0
 40
1.0
176
     0
 90
        2
176
     1
  1
strokes_ogs.tif
176
     1
290
     0
176
     1
 40
1.0
176
     1
 40
1.0
176
     1
  0
DICTIONARYVAR
  5
7A
102
{ACAD_REACTORS
330
79
102
}
330
79
100
DictionaryVariables
280
     0
  1
1:1
  0
DICTIONARYVAR
  5
7F
102
{ACAD_REACTORS
330
79
102
}
330
79
100
DictionaryVariables
280
     0
  1
Standard
  0
DICTIONARYVAR
  5
7E
102
{ACAD_REACTORS
330
79
102
}
330
79
100
DictionaryVariables
280
     0
  1
Standard
  0
DICTIONARY
  5
7B
330
5A
100
AcDbDictionary
280
     1
281
     1
  3
ACAD_ROUNDTRIP_2008_TABLESTYLE_CELLSTYLEMAP
360
7C
  0
CELLSTYLEMAP
  5
7C
102
{ACAD_REACTORS
330
7B
102
}
330
7B
100
AcDbCellStyleMap
 90
        3
300
CELLSTYLE
  1
TABLEFORMAT_BEGIN
 90
        5
170
     1
 91
        0
 92
    32768
 62
   257
 93
        1
300
CONTENTFORMAT
  1
CONTENTFORMAT_BEGIN
 90
        0
 91
        0
 92
        4
 93
        0
300

 40
0.0
140
1.0
 94
        5
 62
     0
340
11
144
0.25
309
CONTENTFORMAT_END
171
     1
301
MARGIN
  1
CELLMARGIN_BEGIN
 40
0.06
 40
0.06
 40
0.06
 40
0.06
 40
0.06
 40
0.06
309
CELLMARGIN_END
 94
        6
 95
        1
302
GRIDFORMAT
  1
GRIDFORMAT_BEGIN
 90
        0
 91
        1
 62
     0
 92
       -2
340
14
 93
        0
 40
0.045
309
GRIDFORMAT_END
 95
        2
302
GRIDFORMAT
  1
GRIDFORMAT_BEGIN
 90
        0
 91
        1
 62
     0
 92
       -2
340
14
 93
        0
 40
0.045
309
GRIDFORMAT_END
 95
        4
302
GRIDFORMAT
  1
GRIDFORMAT_BEGIN
 90
        0
 91
        1
 62
     0
 92
       -2
340
14
 93
        0
 40
0.045
309
GRIDFORMAT_END
 95
        8
302
GRIDFORMAT
  1
GRIDFORMAT_BEGIN
 90
        0
 91
        1
 62
     0
 92
       -2
340
14
 93
        0
 40
0.045
309
GRIDFORMAT_END
 95
       16
302
GRIDFORMAT
  1
GRIDFORMAT_BEGIN
 90
        0
 91
        1
 62
     0
 92
       -2
340
14
 93
        0
 40
0.045
309
GRIDFORMAT_END
 95
       32
302
GRIDFORMAT
  1
GRIDFORMAT_BEGIN
 90
        0
 91
        1
 62
     0
 92
       -2
340
14
 93
        0
 40
0.045
309
GRIDFORMAT_END
309
TABLEFORMAT_END
  1
CELLSTYLE_BEGIN
 90
        1
 91
        1
300
_TITLE
309
CELLSTYLE_END
300
CELLSTYLE
  1
TABLEFORMAT_BEGIN
 90
        5
170
     1
 91
        0
 92
        0
 62
   257
 93
        1
300
CONTENTFORMAT
  1
CONTENTFORMAT_BEGIN
 90
        0
 91
        0
 92
        4
 93
        0
300

 40
0.0
140
1.0
 94
        5
 62
     0
340
11
144
0.18
309
CONTENTFORMAT_END
171
     1
301
MARGIN
  1
CELLMARGIN_BEGIN
 40
0.06
 40
0.06
 40
0.06
 40
0.06
 40
0.06
 40
0.06
309
CELLMARGIN_END
 94
        6
 95
        1
302
GRIDFORMAT
  1
GRIDFORMAT_BEGIN
 90
        0
 91
        1
 62
     0
 92
       -2
340
14
 93
        0
 40
0.045
309
GRIDFORMAT_END
 95
        2
302
GRIDFORMAT
  1
GRIDFORMAT_BEGIN
 90
        0
 91
        1
 62
     0
 92
       -2
340
14
 93
        0
 40
0.045
309
GRIDFORMAT_END
 95
        4
302
GRIDFORMAT
  1
GRIDFORMAT_BEGIN
 90
        0
 91
        1
 62
     0
 92
       -2
340
14
 93
        0
 40
0.045
309
GRIDFORMAT_END
 95
        8
302
GRIDFORMAT
  1
GRIDFORMAT_BEGIN
 90
        0
 91
        1
 62
     0
 92
       -2
340
14
 93
        0
 40
0.045
309
GRIDFORMAT_END
 95
       16
302
GRIDFORMAT
  1
GRIDFORMAT_BEGIN
 90
        0
 91
        1
 62
     0
 92
       -2
340
14
 93
        0
 40
0.045
309
GRIDFORMAT_END
 95
       32
302
GRIDFORMAT
  1
GRIDFORMAT_BEGIN
 90
        0
 91
        1
 62
     0
 92
       -2
340
14
 93
        0
 40
0.045
309
GRIDFORMAT_END
309
TABLEFORMAT_END
  1
CELLSTYLE_BEGIN
 90
        2
 91
        1
300
_HEADER
309
CELLSTYLE_END
300
CELLSTYLE
  1
TABLEFORMAT_BEGIN
 90
        5
170
     1
 91
        0
 92
        0
 62
   257
 93
        1
300
CONTENTFORMAT
  1
CONTENTFORMAT_BEGIN
 90
        0
 91
        0
 92
        4
 93
        0
300

 40
0.0
140
1.0
 94
        2
 62
     0
340
11
144
0.18
309
CONTENTFORMAT_END
171
     1
301
MARGIN
  1
CELLMARGIN_BEGIN
 40
0.06
 40
0.06
 40
0.06
 40
0.06
 40
0.06
 40
0.06
309
CELLMARGIN_END
 94
        6
 95
        1
302
GRIDFORMAT
  1
GRIDFORMAT_BEGIN
 90
        0
 91
        1
 62
     0
 92
       -2
340
14
 93
        0
 40
0.045
309
GRIDFORMAT_END
 95
        2
302
GRIDFORMAT
  1
GRIDFORMAT_BEGIN
 90
        0
 91
        1
 62
     0
 92
       -2
340
14
 93
        0
 40
0.045
309
GRIDFORMAT_END
 95
        4
302
GRIDFORMAT
  1
GRIDFORMAT_BEGIN
 90
        0
 91
        1
 62
     0
 92
       -2
340
14
 93
        0
 40
0.045
309
GRIDFORMAT_END
 95
        8
302
GRIDFORMAT
  1
GRIDFORMAT_BEGIN
 90
        0
 91
        1
 62
     0
 92
       -2
340
14
 93
        0
 40
0.045
309
GRIDFORMAT_END
 95
       16
302
GRIDFORMAT
  1
GRIDFORMAT_BEGIN
 90
        0
 91
        1
 62
     0
 92
       -2
340
14
 93
        0
 40
0.045
309
GRIDFORMAT_END
 95
       32
302
GRIDFORMAT
  1
GRIDFORMAT_BEGIN
 90
        0
 91
        1
 62
     0
 92
       -2
340
14
 93
        0
 40
0.045
309
GRIDFORMAT_END
309
TABLEFORMAT_END
  1
CELLSTYLE_BEGIN
 90
        3
 91
        2
300
_DATA
309
CELLSTYLE_END
  0
ENDSEC
  0
EOF
