  0
SECTION
  2
HEADER
  9
$ACADVER
  1
AC1032
  9
$ACADMAINTVER
 90
       55
  9
$DWGCODEPAGE
  3
ANSI_1252
  9
$LASTSAVEDBY
  1
LYI-002
  9
$REQUIREDVERSIONS
160
                 0
  9
$INSBASE
 10
0.0
 20
0.0
 30
0.0
  9
$EXTMIN
 10
-200.1821
 20
-200.182
 30
0.0
  9
$EXTMAX
 10
200.0183
 20
200.0182
 30
0.0
  9
$LIMMIN
 10
0.0
 20
0.0
  9
$LIMMAX
 10
12.0
 20
9.0
  9
$ORTHOMODE
 70
     0
  9
$REGENMODE
 70
     1
  9
$FILLMODE
 70
     1
  9
$QTEXTMODE
 70
     0
  9
$MIRRTEXT
 70
     1
  9
$LTSCALE
 40
1.0
  9
$ATTMODE
 70
     1
  9
$TEXTSIZE
 40
0.2
  9
$TRACEWID
 40
0.05
  9
$TEXTSTYLE
  7
Standard
  9
$CLAYER
  8
0
  9
$CELTYPE
  6
ByLayer
  9
$CECOLOR
 62
   256
  9
$CELTSCALE
 40
1.0
  9
$DISPSILH
 70
     0
  9
$DIMSCALE
 40
1.0
  9
$DIMASZ
 40
0.18
  9
$DIMEXO
 40
0.0625
  9
$DIMDLI
 40
0.38
  9
$DIMRND
 40
0.0
  9
$DIMDLE
 40
0.0
  9
$DIMEXE
 40
0.18
  9
$DIMTP
 40
0.0
  9
$DIMTM
 40
0.0
  9
$DIMTXT
 40
0.18
  9
$DIMCEN
 40
0.09
  9
$DIMTSZ
 40
0.0
  9
$DIMTOL
 70
     0
  9
$DIMLIM
 70
     0
  9
$DIMTIH
 70
     1
  9
$DIMTOH
 70
     1
  9
$DIMSE1
 70
     0
  9
$DIMSE2
 70
     0
  9
$DIMTAD
 70
     0
  9
$DIMZIN
 70
     0
  9
$DIMBLK
  1

  9
$DIMASO
 70
     1
  9
$DIMSHO
 70
     1
  9
$DIMPOST
  1

  9
$DIMAPOST
  1

  9
$DIMALT
 70
     0
  9
$DIMALTD
 70
     2
  9
$DIMALTF
 40
25.4
  9
$DIMLFAC
 40
1.0
  9
$DIMTOFL
 70
     0
  9
$DIMTVP
 40
0.0
  9
$DIMTIX
 70
     0
  9
$DIMSOXD
 70
     0
  9
$DIMSAH
 70
     0
  9
$DIMBLK1
  1

  9
$DIMBLK2
  1

  9
$DIMSTYLE
  2
Standard
  9
$DIMCLRD
 70
     0
  9
$DIMCLRE
 70
     0
  9
$DIMCLRT
 70
     0
  9
$DIMTFAC
 40
1.0
  9
$DIMGAP
 40
0.09
  9
$DIMJUST
 70
     0
  9
$DIMSD1
 70
     0
  9
$DIMSD2
 70
     0
  9
$DIMTOLJ
 70
     1
  9
$DIMTZIN
 70
     0
  9
$DIMALTZ
 70
     0
  9
$DIMALTTZ
 70
     0
  9
$DIMUPT
 70
     0
  9
$DIMDEC
 70
     4
  9
$DIMTDEC
 70
     4
  9
$DIMALTU
 70
     2
  9
$DIMALTTD
 70
     2
  9
$DIMTXSTY
  7
Standard
  9
$DIMAUNIT
 70
     0
  9
$DIMADEC
 70
     0
  9
$DIMALTRND
 40
0.0
  9
$DIMAZIN
 70
     0
  9
$DIMDSEP
 70
    46
  9
$DIMATFIT
 70
     3
  9
$DIMFRAC
 70
     0
  9
$DIMLDRBLK
  1

  9
$DIMLUNIT
 70
     2
  9
$DIMLWD
 70
    -2
  9
$DIMLWE
 70
    -2
  9
$DIMTMOVE
 70
     0
  9
$DIMFXL
 40
1.0
  9
$DIMFXLON
 70
     0
  9
$DIMJOGANG
 40
0.7853981633974483
  9
$DIMTFILL
 70
     0
  9
$DIMTFILLCLR
 70
     0
  9
$DIMARCSYM
 70
     0
  9
$DIMLTYPE
  6

  9
$DIMLTEX1
  6

  9
$DIMLTEX2
  6

  9
$DIMTXTDIRECTION
 70
     0
  9
$LUNITS
 70
     2
  9
$LUPREC
 70
     4
  9
$SKETCHINC
 40
0.1
  9
$FILLETRAD
 40
0.0
  9
$AUNITS
 70
     0
  9
$AUPREC
 70
     0
  9
$MENU
  1
.
  9
$ELEVATION
 40
0.0
  9
$PELEVATION
 40
0.0
  9
$THICKNESS
 40
0.0
  9
$LIMCHECK
 70
     0
  9
$CHAMFERA
 40
0.0
  9
$CHAMFERB
 40
0.0
  9
$CHAMFERC
 40
0.0
  9
$CHAMFERD
 40
0.0
  9
$SKPOLY
 70
     0
  9
$TDCREATE
 40
2460650.478876875
  9
$TDUCREATE
 40
2460650.249710209
  9
$TDUPDATE
 40
2460650.47887691
  9
$TDUUPDATE
 40
2460650.249710243
  9
$TDINDWG
 40
0.0000000116
  9
$TDUSRTIMER
 40
0.0000000116
  9
$USRTIMER
 70
     1
  9
$ANGBASE
 50
0.0
  9
$ANGDIR
 70
     0
  9
$PDMODE
 70
     0
  9
$PDSIZE
 40
0.0
  9
$PLINEWID
 40
0.0
  9
$SPLFRAME
 70
     0
  9
$SPLINETYPE
 70
     6
  9
$SPLINESEGS
 70
     8
  9
$HANDSEED
  5
7A
  9
$SURFTAB1
 70
     6
  9
$SURFTAB2
 70
     6
  9
$SURFTYPE
 70
     6
  9
$SURFU
 70
     6
  9
$SURFV
 70
     6
  9
$UCSBASE
  2

  9
$UCSNAME
  2

  9
$UCSORG
 10
0.0
 20
0.0
 30
0.0
  9
$UCSXDIR
 10
1.0
 20
0.0
 30
0.0
  9
$UCSYDIR
 10
0.0
 20
1.0
 30
0.0
  9
$UCSORTHOREF
  2

  9
$UCSORTHOVIEW
 70
     0
  9
$UCSORGTOP
 10
0.0
 20
0.0
 30
0.0
  9
$UCSORGBOTTOM
 10
0.0
 20
0.0
 30
0.0
  9
$UCSORGLEFT
 10
0.0
 20
0.0
 30
0.0
  9
$UCSORGRIGHT
 10
0.0
 20
0.0
 30
0.0
  9
$UCSORGFRONT
 10
0.0
 20
0.0
 30
0.0
  9
$UCSORGBACK
 10
0.0
 20
0.0
 30
0.0
  9
$PUCSBASE
  2

  9
$PUCSNAME
  2

  9
$PUCSORG
 10
0.0
 20
0.0
 30
0.0
  9
$PUCSXDIR
 10
1.0
 20
0.0
 30
0.0
  9
$PUCSYDIR
 10
0.0
 20
1.0
 30
0.0
  9
$PUCSORTHOREF
  2

  9
$PUCSORTHOVIEW
 70
     0
  9
$PUCSORGTOP
 10
0.0
 20
0.0
 30
0.0
  9
$PUCSORGBOTTOM
 10
0.0
 20
0.0
 30
0.0
  9
$PUCSORGLEFT
 10
0.0
 20
0.0
 30
0.0
  9
$PUCSORGRIGHT
 10
0.0
 20
0.0
 30
0.0
  9
$PUCSORGFRONT
 10
0.0
 20
0.0
 30
0.0
  9
$PUCSORGBACK
 10
0.0
 20
0.0
 30
0.0
  9
$USERI1
 70
     0
  9
$USERI2
 70
     0
  9
$USERI3
 70
     0
  9
$USERI4
 70
     0
  9
$USERI5
 70
     0
  9
$USERR1
 40
0.0
  9
$USERR2
 40
0.0
  9
$USERR3
 40
0.0
  9
$USERR4
 40
0.0
  9
$USERR5
 40
0.0
  9
$WORLDVIEW
 70
     1
  9
$SHADEDGE
 70
     3
  9
$SHADEDIF
 70
    70
  9
$TILEMODE
 70
     1
  9
$MAXACTVP
 70
    64
  9
$PINSBASE
 10
0.0
 20
0.0
 30
0.0
  9
$PLIMCHECK
 70
     0
  9
$PEXTMIN
 10
1.000000000000000E+20
 20
1.000000000000000E+20
 30
1.000000000000000E+20
  9
$PEXTMAX
 10
-1.000000000000000E+20
 20
-1.000000000000000E+20
 30
-1.000000000000000E+20
  9
$PLIMMIN
 10
0.0
 20
0.0
  9
$PLIMMAX
 10
12.0
 20
9.0
  9
$UNITMODE
 70
     0
  9
$VISRETAIN
 70
     1
  9
$PLINEGEN
 70
     0
  9
$PSLTSCALE
 70
     1
  9
$TREEDEPTH
 70
  3020
  9
$CMLSTYLE
  2
Standard
  9
$CMLJUST
 70
     0
  9
$CMLSCALE
 40
1.0
  9
$PROXYGRAPHICS
 70
     1
  9
$MEASUREMENT
 70
     0
  9
$CELWEIGHT
370
    -1
  9
$ENDCAPS
280
     0
  9
$JOINSTYLE
280
     0
  9
$LWDISPLAY
290
     0
  9
$INSUNITS
 70
     4
  9
$HYPERLINKBASE
  1

  9
$STYLESHEET
  1

  9
$XEDIT
290
     1
  9
$CEPSNTYPE
380
     0
  9
$PSTYLEMODE
290
     1
  9
$FINGERPRINTGUID
  2
{490bd3bd-c46b-4a60-b006-353d347582c3}
  9
$VERSIONGUID
  2
{FAEB1C32-E019-11D5-929B-00C0DF256EC4}
  9
$EXTNAMES
290
     1
  9
$PSVPSCALE
 40
0.0
  9
$OLESTARTUP
290
     0
  9
$SORTENTS
280
   127
  9
$INDEXCTL
280
     0
  9
$HIDETEXT
280
     1
  9
$XCLIPFRAME
280
     2
  9
$HALOGAP
280
     0
  9
$OBSCOLOR
 70
   257
  9
$OBSLTYPE
280
     0
  9
$INTERSECTIONDISPLAY
280
     0
  9
$INTERSECTIONCOLOR
 70
   257
  9
$DIMASSOC
280
     2
  9
$PROJECTNAME
  1

  9
$CAMERADISPLAY
290
     0
  9
$LENSLENGTH
 40
50.0
  9
$CAMERAHEIGHT
 40
0.0
  9
$STEPSPERSEC
 40
2.0
  9
$STEPSIZE
 40
6.0
  9
$3DDWFPREC
 40
2.0
  9
$PSOLWIDTH
 40
0.25
  9
$PSOLHEIGHT
 40
4.0
  9
$LOFTANG1
 40
1.570796326794897
  9
$LOFTANG2
 40
1.570796326794897
  9
$LOFTMAG1
 40
0.0
  9
$LOFTMAG2
 40
0.0
  9
$LOFTPARAM
 70
     7
  9
$LOFTNORMALS
280
     1
  9
$LATITUDE
 40
37.795
  9
$LONGITUDE
 40
-122.394
  9
$NORTHDIRECTION
 40
0.0
  9
$TIMEZONE
 70
 -8000
  9
$LIGHTGLYPHDISPLAY
280
     1
  9
$TILEMODELIGHTSYNCH
280
     1
  9
$CMATERIAL
347
44
  9
$SOLIDHIST
280
     0
  9
$SHOWHIST
280
     1
  9
$DWFFRAME
280
     2
  9
$DGNFRAME
280
     2
  9
$REALWORLDSCALE
290
     1
  9
$INTERFERECOLOR
 62
   256
  9
$CSHADOW
280
     0
  9
$SHADOWPLANELOCATION
 40
0.0
  0
ENDSEC
  0
SECTION
  2
CLASSES
  0
CLASS
  1
ACDBDICTIONARYWDFLT
  2
AcDbDictionaryWithDefault
  3
ObjectDBX Classes
 90
        0
 91
        3
280
     0
281
     0
  0
CLASS
  1
VISUALSTYLE
  2
AcDbVisualStyle
  3
ObjectDBX Classes
 90
     4095
 91
        3
280
     0
281
     0
  0
CLASS
  1
MATERIAL
  2
AcDbMaterial
  3
ObjectDBX Classes
 90
     1153
 91
        3
280
     0
281
     0
  0
CLASS
  1
SCALE
  2
AcDbScale
  3
ObjectDBX Classes
 90
     1153
 91
        3
280
     0
281
     0
  0
CLASS
  1
TABLESTYLE
  2
AcDbTableStyle
  3
ObjectDBX Classes
 90
     4095
 91
        3
280
     0
281
     0
  0
CLASS
  1
MLEADERSTYLE
  2
AcDbMLeaderStyle
  3
ACDB_MLEADERSTYLE_CLASS
 90
     4095
 91
        3
280
     0
281
     0
  0
CLASS
  1
SUN
  2
AcDbSun
  3
SCENEOE
 90
     1153
 91
        3
280
     0
281
     0
  0
CLASS
  1
DICTIONARYVAR
  2
AcDbDictionaryVar
  3
ObjectDBX Classes
 90
        0
 91
        3
280
     0
281
     0
  0
CLASS
  1
CELLSTYLEMAP
  2
AcDbCellStyleMap
  3
ObjectDBX Classes
 90
     1152
 91
        3
280
     0
281
     0
  0
ENDSEC
  0
SECTION
  2
TABLES
  0
TABLE
  2
VPORT
  5
8
330
0
100
AcDbSymbolTable
 70
     1
  0
VPORT
  5
29
330
8
100
AcDbSymbolTableRecord
100
AcDbViewportTableRecord
  2
*Active
 70
     0
 10
0.0
 20
0.0
 11
1.0
 21
1.0
 12
10.42990654205607
 22
4.5
 13
0.0
 23
0.0
 14
0.5
 24
0.5
 15
0.5
 25
0.5
 16
0.0
 26
0.0
 36
1.0
 17
0.0
 27
0.0
 37
0.0
 40
9.0
 41
1.972972972850329
 42
50.0
 43
0.0
 44
0.0
 50
0.0
 51
0.0
 71
     0
 72
   100
 73
     1
 74
     3
 75
     0
 76
     0
 77
     0
 78
     0
281
     0
 65
     1
110
0.0
120
0.0
130
0.0
111
1.0
121
0.0
131
0.0
112
0.0
122
1.0
132
0.0
 79
     0
146
0.0
348
2F
 60
     3
 61
     5
292
     1
282
     1
141
0.0
142
0.0
 63
   250
361
5D
  0
ENDTAB
  0
TABLE
  2
LTYPE
  5
5
330
0
100
AcDbSymbolTable
 70
     1
  0
LTYPE
  5
14
330
5
100
AcDbSymbolTableRecord
100
AcDbLinetypeTableRecord
  2
ByBlock
 70
     0
  3

 72
    65
 73
     0
 40
0.0
  0
LTYPE
  5
15
330
5
100
AcDbSymbolTableRecord
100
AcDbLinetypeTableRecord
  2
ByLayer
 70
     0
  3

 72
    65
 73
     0
 40
0.0
  0
LTYPE
  5
16
330
5
100
AcDbSymbolTableRecord
100
AcDbLinetypeTableRecord
  2
Continuous
 70
     0
  3
Solid line
 72
    65
 73
     0
 40
0.0
  0
ENDTAB
  0
TABLE
  2
LAYER
  5
2
330
0
100
AcDbSymbolTable
 70
     2
  0
LAYER
  5
10
330
2
100
AcDbSymbolTableRecord
100
AcDbLayerTableRecord
  2
0
 70
     0
 62
     7
  6
Continuous
370
    -3
390
F
347
46
348
0
  0
LAYER
  5
5F
330
2
100
AcDbSymbolTableRecord
100
AcDbLayerTableRecord
  2
Layer 1
 70
     0
 62
     7
  6
Continuous
370
    -3
390
F
347
46
348
0
  0
ENDTAB
  0
TABLE
  2
STYLE
  5
3
330
0
100
AcDbSymbolTable
 70
     1
  0
STYLE
  5
11
330
3
100
AcDbSymbolTableRecord
100
AcDbTextStyleTableRecord
  2
Standard
 70
     0
 40
0.0
 41
1.0
 50
0.0
 71
     0
 42
0.2
  3
txt
  4

  0
ENDTAB
  0
TABLE
  2
VIEW
  5
6
330
0
100
AcDbSymbolTable
 70
     0
  0
ENDTAB
  0
TABLE
  2
UCS
  5
7
330
0
100
AcDbSymbolTable
 70
     0
  0
ENDTAB
  0
TABLE
  2
APPID
  5
9
330
0
100
AcDbSymbolTable
 70
     2
  0
APPID
  5
12
330
9
100
AcDbSymbolTableRecord
100
AcDbRegAppTableRecord
  2
ACAD
 70
     0
  0
APPID
  5
5E
330
9
100
AcDbSymbolTableRecord
100
AcDbRegAppTableRecord
  2
ODA
 70
     0
  0
ENDTAB
  0
TABLE
  2
DIMSTYLE
  5
A
330
0
100
AcDbSymbolTable
 70
     1
100
AcDbDimStyleTable
  0
DIMSTYLE
105
27
330
A
100
AcDbSymbolTableRecord
100
AcDbDimStyleTableRecord
  2
Standard
 70
     0
178
     0
340
11
  0
ENDTAB
  0
TABLE
  2
BLOCK_RECORD
  5
1
330
0
100
AcDbSymbolTable
 70
     1
  0
BLOCK_RECORD
  5
1F
330
1
100
AcDbSymbolTableRecord
100
AcDbBlockTableRecord
  2
*Model_Space
340
22
 70
     0
280
     1
281
     0
  0
BLOCK_RECORD
  5
1B
330
1
100
AcDbSymbolTableRecord
100
AcDbBlockTableRecord
  2
*Paper_Space
340
1E
 70
     0
280
     1
281
     0
  0
BLOCK_RECORD
  5
23
330
1
100
AcDbSymbolTableRecord
100
AcDbBlockTableRecord
  2
*Paper_Space0
340
26
 70
     0
280
     1
281
     0
  0
ENDTAB
  0
ENDSEC
  0
SECTION
  2
BLOCKS
  0
BLOCK
  5
20
330
1F
100
AcDbEntity
  8
0
100
AcDbBlockBegin
  2
*Model_Space
 70
     0
 10
0.0
 20
0.0
 30
0.0
  3
*Model_Space
  1

  0
ENDBLK
  5
21
330
1F
100
AcDbEntity
  8
0
100
AcDbBlockEnd
  0
BLOCK
  5
1C
330
1B
100
AcDbEntity
 67
     1
  8
0
100
AcDbBlockBegin
  2
*Paper_Space
 70
     0
 10
0.0
 20
0.0
 30
0.0
  3
*Paper_Space
  1

  0
ENDBLK
  5
1D
330
1B
100
AcDbEntity
 67
     1
  8
0
100
AcDbBlockEnd
  0
BLOCK
  5
24
330
23
100
AcDbEntity
  8
0
100
AcDbBlockBegin
  2
*Paper_Space0
 70
     0
 10
0.0
 20
0.0
 30
0.0
  3
*Paper_Space0
  1

  0
ENDBLK
  5
25
330
23
100
AcDbEntity
  8
0
100
AcDbBlockEnd
  0
ENDSEC
  0
SECTION
  2
ENTITIES
  0
SPLINE
  5
60
330
1F
100
AcDbEntity
  8
Layer 1
 62
   250
370
    20
100
AcDbSpline
210
0.0
220
0.0
230
1.0
 70
    11
 71
     3
 72
   101
 73
    97
 74
     0
 42
0.0000000001
 43
0.0000000001
 40
0.0
 40
0.0
 40
0.0
 40
0.0
 40
0.03125
 40
0.03125
 40
0.03125
 40
0.0625
 40
0.0625
 40
0.0625
 40
0.09375
 40
0.09375
 40
0.09375
 40
0.125
 40
0.125
 40
0.125
 40
0.15625
 40
0.15625
 40
0.15625
 40
0.1875
 40
0.1875
 40
0.1875
 40
0.21875
 40
0.21875
 40
0.21875
 40
0.25
 40
0.25
 40
0.25
 40
0.28125
 40
0.28125
 40
0.28125
 40
0.3125
 40
0.3125
 40
0.3125
 40
0.34375
 40
0.34375
 40
0.34375
 40
0.375
 40
0.375
 40
0.375
 40
0.40625
 40
0.40625
 40
0.40625
 40
0.4375
 40
0.4375
 40
0.4375
 40
0.46875
 40
0.46875
 40
0.46875
 40
0.5
 40
0.5
 40
0.5
 40
0.53125
 40
0.53125
 40
0.53125
 40
0.5625
 40
0.5625
 40
0.5625
 40
0.59375
 40
0.59375
 40
0.59375
 40
0.625
 40
0.625
 40
0.625
 40
0.65625
 40
0.65625
 40
0.65625
 40
0.6875
 40
0.6875
 40
0.6875
 40
0.71875
 40
0.71875
 40
0.71875
 40
0.75
 40
0.75
 40
0.75
 40
0.78125
 40
0.78125
 40
0.78125
 40
0.8125
 40
0.8125
 40
0.8125
 40
0.84375
 40
0.84375
 40
0.84375
 40
0.875
 40
0.875
 40
0.875
 40
0.90625
 40
0.90625
 40
0.90625
 40
0.9375
 40
0.9375
 40
0.9375
 40
0.96875
 40
0.96875
 40
0.96875
 40
1.0
 40
1.0
 40
1.0
 40
1.0
 10
132.6335
 20
76.5418
 30
0.0
 10
133.647
 20
78.7356
 30
0.0
 10
133.9492
 20
81.1848
 30
0.0
 10
133.1171
 20
83.7032
 30
0.0
 10
131.5383
 20
88.4759
 30
0.0
 10
127.8427
 20
91.6978
 30
0.0
 10
122.751
 20
91.9823
 30
0.0
 10
118.716
 20
92.2074
 30
0.0
 10
114.3363
 20
90.4414
 30
0.0
 10
111.8783
 20
87.1715
 30
0.0
 10
111.1739
 20
86.234
 30
0.0
 10
111.3632
 20
84.8959
 30
0.0
 10
112.3005
 20
84.1915
 30
0.0
 10
113.2378
 20
83.4872
 30
0.0
 10
114.5761
 20
83.6786
 30
0.0
 10
115.2805
 20
84.6148
 30
0.0
 10
116.8783
 20
86.7426
 30
0.0
 10
119.9053
 20
87.878
 30
0.0
 10
122.5135
 20
87.7314
 30
0.0
 10
125.8517
 20
87.5465
 30
0.0
 10
128.0499
 20
85.4738
 30
0.0
 10
129.0758
 20
82.3672
 30
0.0
 10
129.6904
 20
80.5094
 30
0.0
 10
129.1115
 20
78.6303
 30
0.0
 10
128.0444
 20
77.0581
 30
0.0
 10
126.7161
 20
75.1018
 30
0.0
 10
124.612
 20
73.5699
 30
0.0
 10
122.4328
 20
72.6941
 30
0.0
 10
116.9007
 20
70.4679
 30
0.0
 10
111.819
 20
72.367
 30
0.0
 10
108.9666
 20
77.7344
 30
0.0
 10
107.0687
 20
81.3069
 30
0.0
 10
107.1458
 20
85.7805
 30
0.0
 10
108.296
 20
89.5735
 30
0.0
 10
109.6743
 20
94.1178
 30
0.0
 10
112.6341
 20
98.0866
 30
0.0
 10
116.6466
 20
100.6409
 30
0.0
 10
120.7016
 20
103.2243
 30
0.0
 10
125.154
 20
105.1226
 30
0.0
 10
130.0388
 20
105.0273
 30
0.0
 10
134.012
 20
104.9477
 30
0.0
 10
137.6795
 20
103.5771
 30
0.0
 10
141.2787
 20
102.006
 30
0.0
 10
145.5006
 20
100.1639
 30
0.0
 10
149.5071
 20
98.1671
 30
0.0
 10
153.9619
 20
96.8805
 30
0.0
 10
157.7975
 20
95.7718
 30
0.0
 10
161.5579
 20
95.2981
 30
0.0
 10
165.3923
 20
95.456
 30
0.0
 10
163.3396
 20
92.2128
 30
0.0
 10
161.8691
 20
88.7202
 30
0.0
 10
160.9118
 20
84.8443
 30
0.0
 10
159.7976
 20
80.3426
 30
0.0
 10
159.523
 20
75.8733
 30
0.0
 10
159.008
 20
71.2953
 30
0.0
 10
158.5691
 20
67.3939
 30
0.0
 10
157.9228
 20
63.5326
 30
0.0
 10
156.0046
 20
60.0522
 30
0.0
 10
153.6461
 20
55.7732
 30
0.0
 10
149.7748
 20
52.8672
 30
0.0
 10
145.5106
 20
50.6455
 30
0.0
 10
141.292
 20
48.4495
 30
0.0
 10
136.3748
 20
47.8705
 30
0.0
 10
131.75
 20
48.95
 30
0.0
 10
127.8899
 20
49.8516
 30
0.0
 10
123.9771
 20
52.0196
 30
0.0
 10
121.8325
 20
55.4496
 30
0.0
 10
118.6108
 20
60.6031
 30
0.0
 10
119.5054
 20
65.9538
 30
0.0
 10
124.2
 20
69.6324
 30
0.0
 10
126.0489
 20
71.0793
 30
0.0
 10
128.4273
 20
72.1364
 30
0.0
 10
130.7868
 20
72.31
 30
0.0
 10
132.6816
 20
72.4466
 30
0.0
 10
134.5967
 20
72.0109
 30
0.0
 10
135.9
 20
70.5484
 30
0.0
 10
138.0758
 20
68.105
 30
0.0
 10
138.7723
 20
65.1666
 30
0.0
 10
137.264
 20
62.1832
 30
0.0
 10
136.0859
 20
59.8505
 30
0.0
 10
133.5886
 20
57.7978
 30
0.0
 10
130.948
 20
57.4787
 30
0.0
 10
129.7845
 20
57.3365
 30
0.0
 10
128.9503
 20
56.2726
 30
0.0
 10
129.0924
 20
55.1081
 30
0.0
 10
129.2337
 20
53.9446
 30
0.0
 10
130.2974
 20
53.1102
 30
0.0
 10
131.4621
 20
53.2524
 30
0.0
 10
135.5216
 20
53.7464
 30
0.0
 10
139.2417
 20
56.6578
 30
0.0
 10
141.0636
 20
60.2627
 30
0.0
 10
143.3626
 20
64.8149
 30
0.0
 10
142.422
 20
69.6267
 30
0.0
 10
139.0771
 20
73.3806
 30
0.0
 10
137.3133
 20
75.3583
 30
0.0
 10
135.0401
 20
76.3223
 30
0.0
 10
132.6335
 20
76.5418
 30
0.0
  0
SPLINE
  5
61
330
1F
100
AcDbEntity
  8
Layer 1
 62
   250
370
    20
100
AcDbSpline
210
0.0
220
0.0
230
1.0
 70
    11
 71
     3
 72
   101
 73
    97
 74
     0
 42
0.0000000001
 43
0.0000000001
 40
0.0
 40
0.0
 40
0.0
 40
0.0
 40
0.03125
 40
0.03125
 40
0.03125
 40
0.0625
 40
0.0625
 40
0.0625
 40
0.09375
 40
0.09375
 40
0.09375
 40
0.125
 40
0.125
 40
0.125
 40
0.15625
 40
0.15625
 40
0.15625
 40
0.1875
 40
0.1875
 40
0.1875
 40
0.21875
 40
0.21875
 40
0.21875
 40
0.25
 40
0.25
 40
0.25
 40
0.28125
 40
0.28125
 40
0.28125
 40
0.3125
 40
0.3125
 40
0.3125
 40
0.34375
 40
0.34375
 40
0.34375
 40
0.375
 40
0.375
 40
0.375
 40
0.40625
 40
0.40625
 40
0.40625
 40
0.4375
 40
0.4375
 40
0.4375
 40
0.46875
 40
0.46875
 40
0.46875
 40
0.5
 40
0.5
 40
0.5
 40
0.53125
 40
0.53125
 40
0.53125
 40
0.5625
 40
0.5625
 40
0.5625
 40
0.59375
 40
0.59375
 40
0.59375
 40
0.625
 40
0.625
 40
0.625
 40
0.65625
 40
0.65625
 40
0.65625
 40
0.6875
 40
0.6875
 40
0.6875
 40
0.71875
 40
0.71875
 40
0.71875
 40
0.75
 40
0.75
 40
0.75
 40
0.78125
 40
0.78125
 40
0.78125
 40
0.8125
 40
0.8125
 40
0.8125
 40
0.84375
 40
0.84375
 40
0.84375
 40
0.875
 40
0.875
 40
0.875
 40
0.90625
 40
0.90625
 40
0.90625
 40
0.9375
 40
0.9375
 40
0.9375
 40
0.96875
 40
0.96875
 40
0.96875
 40
1.0
 40
1.0
 40
1.0
 40
1.0
 10
-132.7973
 20
76.5418
 30
0.0
 10
-135.2037
 20
76.3223
 30
0.0
 10
-137.4771
 20
75.3583
 30
0.0
 10
-139.2408
 20
73.3806
 30
0.0
 10
-142.5858
 20
69.6267
 30
0.0
 10
-143.5264
 20
64.8149
 30
0.0
 10
-141.2275
 20
60.2627
 30
0.0
 10
-139.4055
 20
56.6578
 30
0.0
 10
-135.6854
 20
53.7464
 30
0.0
 10
-131.626
 20
53.2524
 30
0.0
 10
-130.4613
 20
53.1102
 30
0.0
 10
-129.3975
 20
53.9446
 30
0.0
 10
-129.2563
 20
55.1081
 30
0.0
 10
-129.1141
 20
56.2726
 30
0.0
 10
-129.9483
 20
57.3365
 30
0.0
 10
-131.1118
 20
57.4787
 30
0.0
 10
-133.7525
 20
57.7978
 30
0.0
 10
-136.2498
 20
59.8505
 30
0.0
 10
-137.4278
 20
62.181
 30
0.0
 10
-138.9362
 20
65.1666
 30
0.0
 10
-138.2396
 20
68.105
 30
0.0
 10
-136.0638
 20
70.5484
 30
0.0
 10
-134.7603
 20
72.0109
 30
0.0
 10
-132.8454
 20
72.4466
 30
0.0
 10
-130.9506
 20
72.31
 30
0.0
 10
-128.5912
 20
72.1364
 30
0.0
 10
-126.2125
 20
71.0793
 30
0.0
 10
-124.3636
 20
69.6324
 30
0.0
 10
-119.6693
 20
65.9538
 30
0.0
 10
-118.7746
 20
60.6031
 30
0.0
 10
-121.9963
 20
55.4496
 30
0.0
 10
-124.141
 20
52.0196
 30
0.0
 10
-128.0535
 20
49.8516
 30
0.0
 10
-131.9136
 20
48.95
 30
0.0
 10
-136.5387
 20
47.8705
 30
0.0
 10
-141.4559
 20
48.4495
 30
0.0
 10
-145.6744
 20
50.6455
 30
0.0
 10
-149.9387
 20
52.8672
 30
0.0
 10
-153.81
 20
55.7732
 30
0.0
 10
-156.1685
 20
60.0522
 30
0.0
 10
-158.0866
 20
63.5326
 30
0.0
 10
-158.7327
 20
67.3939
 30
0.0
 10
-159.1718
 20
71.2953
 30
0.0
 10
-159.6869
 20
75.8733
 30
0.0
 10
-159.9612
 20
80.3426
 30
0.0
 10
-161.0754
 20
84.8443
 30
0.0
 10
-162.033
 20
88.7202
 30
0.0
 10
-163.5032
 20
92.2128
 30
0.0
 10
-165.5559
 20
95.456
 30
0.0
 10
-161.7217
 20
95.2981
 30
0.0
 10
-157.9611
 20
95.7718
 30
0.0
 10
-154.1258
 20
96.8805
 30
0.0
 10
-149.671
 20
98.1671
 30
0.0
 10
-145.6642
 20
100.1639
 30
0.0
 10
-141.4425
 20
102.006
 30
0.0
 10
-137.8432
 20
103.5771
 30
0.0
 10
-134.1757
 20
104.9477
 30
0.0
 10
-130.2015
 20
105.0273
 30
0.0
 10
-125.3178
 20
105.1226
 30
0.0
 10
-120.8654
 20
103.2243
 30
0.0
 10
-116.8103
 20
100.6409
 30
0.0
 10
-112.798
 20
98.0866
 30
0.0
 10
-109.8382
 20
94.1178
 30
0.0
 10
-108.4596
 20
89.5735
 30
0.0
 10
-107.3097
 20
85.7805
 30
0.0
 10
-107.2323
 20
81.3069
 30
0.0
 10
-109.1305
 20
77.7344
 30
0.0
 10
-111.9828
 20
72.367
 30
0.0
 10
-117.0646
 20
70.4679
 30
0.0
 10
-122.5967
 20
72.6941
 30
0.0
 10
-124.7758
 20
73.5699
 30
0.0
 10
-126.88
 20
75.1018
 30
0.0
 10
-128.208
 20
77.0581
 30
0.0
 10
-129.2754
 20
78.6303
 30
0.0
 10
-129.8543
 20
80.5094
 30
0.0
 10
-129.2394
 20
82.3672
 30
0.0
 10
-128.2138
 20
85.4738
 30
0.0
 10
-126.0155
 20
87.5465
 30
0.0
 10
-122.6772
 20
87.7314
 30
0.0
 10
-120.0691
 20
87.878
 30
0.0
 10
-117.0422
 20
86.7426
 30
0.0
 10
-115.4441
 20
84.6148
 30
0.0
 10
-114.7397
 20
83.6786
 30
0.0
 10
-113.4016
 20
83.4872
 30
0.0
 10
-112.4643
 20
84.1915
 30
0.0
 10
-111.527
 20
84.8959
 30
0.0
 10
-111.3377
 20
86.234
 30
0.0
 10
-112.0421
 20
87.1715
 30
0.0
 10
-114.5001
 20
90.4414
 30
0.0
 10
-118.8799
 20
92.2074
 30
0.0
 10
-122.9146
 20
91.9823
 30
0.0
 10
-128.0066
 20
91.6978
 30
0.0
 10
-131.7019
 20
88.4759
 30
0.0
 10
-133.281
 20
83.7032
 30
0.0
 10
-134.113
 20
81.1848
 30
0.0
 10
-133.8106
 20
78.7356
 30
0.0
 10
-132.7973
 20
76.5418
 30
0.0
  0
SPLINE
  5
62
330
1F
100
AcDbEntity
  8
Layer 1
 62
   250
370
    20
100
AcDbSpline
210
0.0
220
0.0
230
1.0
 70
    11
 71
     3
 72
    86
 73
    82
 74
     0
 42
0.0000000001
 43
0.0000000001
 40
0.0
 40
0.0
 40
0.0
 40
0.0
 40
0.037037037037037
 40
0.037037037037037
 40
0.037037037037037
 40
0.0740740740740741
 40
0.0740740740740741
 40
0.0740740740740741
 40
0.1111111111111111
 40
0.1111111111111111
 40
0.1111111111111111
 40
0.1481481481481481
 40
0.1481481481481481
 40
0.1481481481481481
 40
0.1851851851851852
 40
0.1851851851851852
 40
0.1851851851851852
 40
0.2222222222222222
 40
0.2222222222222222
 40
0.2222222222222222
 40
0.2592592592592592
 40
0.2592592592592592
 40
0.2592592592592592
 40
0.2962962962962963
 40
0.2962962962962963
 40
0.2962962962962963
 40
0.3333333333333333
 40
0.3333333333333333
 40
0.3333333333333333
 40
0.3703703703703703
 40
0.3703703703703703
 40
0.3703703703703703
 40
0.4074074074074074
 40
0.4074074074074074
 40
0.4074074074074074
 40
0.4444444444444444
 40
0.4444444444444444
 40
0.4444444444444444
 40
0.4814814814814815
 40
0.4814814814814815
 40
0.4814814814814815
 40
0.5185185185185185
 40
0.5185185185185185
 40
0.5185185185185185
 40
0.5555555555555556
 40
0.5555555555555556
 40
0.5555555555555556
 40
0.5925925925925926
 40
0.5925925925925926
 40
0.5925925925925926
 40
0.6296296296296295
 40
0.6296296296296295
 40
0.6296296296296295
 40
0.6666666666666666
 40
0.6666666666666666
 40
0.6666666666666666
 40
0.7037037037037037
 40
0.7037037037037037
 40
0.7037037037037037
 40
0.7407407407407407
 40
0.7407407407407407
 40
0.7407407407407407
 40
0.7777777777777777
 40
0.7777777777777777
 40
0.7777777777777777
 40
0.8148148148148148
 40
0.8148148148148148
 40
0.8148148148148148
 40
0.8518518518518519
 40
0.8518518518518519
 40
0.8518518518518519
 40
0.8888888888888888
 40
0.8888888888888888
 40
0.8888888888888888
 40
0.9259259259259258
 40
0.9259259259259258
 40
0.9259259259259258
 40
0.9629629629629629
 40
0.9629629629629629
 40
0.9629629629629629
 40
1.0
 40
1.0
 40
1.0
 40
1.0
 10
-77.5112
 20
134.0299
 30
0.0
 10
-77.0577
 20
136.2679
 30
0.0
 10
-75.9682
 20
138.2577
 30
0.0
 10
-74.2084
 20
139.826
 30
0.0
 10
-68.3935
 20
145.6638
 30
0.0
 10
-57.8026
 20
144.9346
 30
0.0
 10
-56.4233
 20
133.5829
 30
0.0
 10
-55.9274
 20
129.5014
 30
0.0
 10
-62.1363
 20
128.7464
 30
0.0
 10
-62.6327
 20
132.8276
 30
0.0
 10
-63.1248
 20
136.8747
 30
0.0
 10
-65.0443
 20
137.6955
 30
0.0
 10
-70.0454
 20
135.1551
 30
0.0
 10
-71.2681
 20
134.0647
 30
0.0
 10
-71.5901
 20
132.4308
 30
0.0
 10
-71.4751
 20
130.86
 30
0.0
 10
-71.317
 20
128.7007
 30
0.0
 10
-70.3343
 20
126.5099
 30
0.0
 10
-69.0077
 20
124.817
 30
0.0
 10
-65.5989
 20
120.4669
 30
0.0
 10
-60.7949
 20
119.7731
 30
0.0
 10
-56.1442
 20
122.6797
 30
0.0
 10
-52.9432
 20
124.6802
 30
0.0
 10
-50.9269
 20
128.38
 30
0.0
 10
-50.0877
 20
131.9782
 30
0.0
 10
-49.0643
 20
136.366
 30
0.0
 10
-49.6134
 20
141.0483
 30
0.0
 10
-51.6972
 20
145.0499
 30
0.0
 10
-53.8192
 20
149.125
 30
0.0
 10
-56.6009
 20
152.8703
 30
0.0
 10
-60.6974
 20
155.129
 30
0.0
 10
-64.0448
 20
156.9746
 30
0.0
 10
-67.8208
 20
157.5937
 30
0.0
 10
-71.5706
 20
158.0156
 30
0.0
 10
-76.1648
 20
158.5325
 30
0.0
 10
-80.7397
 20
158.8265
 30
0.0
 10
-85.2469
 20
159.9411
 30
0.0
 10
-88.5427
 20
160.7562
 30
0.0
 10
-91.6582
 20
161.9606
 30
0.0
 10
-94.5916
 20
163.6137
 30
0.0
 10
-94.6266
 20
160.2469
 30
0.0
 10
-95.1413
 20
156.9461
 30
0.0
 10
-96.0833
 20
153.6848
 30
0.0
 10
-97.3715
 20
149.225
 30
0.0
 10
-99.403
 20
145.1155
 30
0.0
 10
-101.2518
 20
140.8787
 30
0.0
 10
-102.7616
 20
137.4188
 30
0.0
 10
-104.1142
 20
133.8415
 30
0.0
 10
-104.19
 20
130.018
 30
0.0
 10
-104.2825
 20
125.3555
 30
0.0
 10
-102.4225
 20
121.0491
 30
0.0
 10
-99.962
 20
117.1849
 30
0.0
 10
-97.5353
 20
113.3738
 30
0.0
 10
-93.7628
 20
110.563
 30
0.0
 10
-89.4447
 20
109.2543
 30
0.0
 10
-87.6218
 20
108.7019
 30
0.0
 10
-85.6765
 20
108.4196
 30
0.0
 10
-83.7701
 20
108.4889
 30
0.0
 10
-81.8979
 20
108.5569
 30
0.0
 10
-80.0276
 20
108.9688
 30
0.0
 10
-78.3662
 20
109.8521
 30
0.0
 10
-73.528
 20
112.4243
 30
0.0
 10
-71.7228
 20
116.9363
 30
0.0
 10
-73.7843
 20
122.0597
 30
0.0
 10
-74.5872
 20
124.055
 30
0.0
 10
-75.9925
 20
126.002
 30
0.0
 10
-77.7836
 20
127.2184
 30
0.0
 10
-79.086
 20
128.1029
 30
0.0
 10
-80.6621
 20
128.641
 30
0.0
 10
-82.2169
 20
128.1265
 30
0.0
 10
-86.3779
 20
126.3854
 30
0.0
 10
-87.9175
 20
122.1913
 30
0.0
 10
-84.1777
 20
120.0799
 30
0.0
 10
-80.888
 20
117.6078
 30
0.0
 10
-84.6513
 20
112.6105
 30
0.0
 10
-87.9357
 20
115.0778
 30
0.0
 10
-95.8179
 20
120.9986
 30
0.0
 10
-93.6148
 20
130.9506
 30
0.0
 10
-84.1806
 20
134.0669
 30
0.0
 10
-81.9435
 20
134.8059
 30
0.0
 10
-79.6753
 20
134.7565
 30
0.0
 10
-77.5112
 20
134.0299
 30
0.0
  0
SPLINE
  5
63
330
1F
100
AcDbEntity
  8
Layer 1
 62
   250
370
    20
100
AcDbSpline
210
0.0
220
0.0
230
1.0
 70
    11
 71
     3
 72
   101
 73
    97
 74
     0
 42
0.0000000001
 43
0.0000000001
 40
0.0
 40
0.0
 40
0.0
 40
0.0
 40
0.03125
 40
0.03125
 40
0.03125
 40
0.0625
 40
0.0625
 40
0.0625
 40
0.09375
 40
0.09375
 40
0.09375
 40
0.125
 40
0.125
 40
0.125
 40
0.15625
 40
0.15625
 40
0.15625
 40
0.1875
 40
0.1875
 40
0.1875
 40
0.21875
 40
0.21875
 40
0.21875
 40
0.25
 40
0.25
 40
0.25
 40
0.28125
 40
0.28125
 40
0.28125
 40
0.3125
 40
0.3125
 40
0.3125
 40
0.34375
 40
0.34375
 40
0.34375
 40
0.375
 40
0.375
 40
0.375
 40
0.40625
 40
0.40625
 40
0.40625
 40
0.4375
 40
0.4375
 40
0.4375
 40
0.46875
 40
0.46875
 40
0.46875
 40
0.5
 40
0.5
 40
0.5
 40
0.53125
 40
0.53125
 40
0.53125
 40
0.5625
 40
0.5625
 40
0.5625
 40
0.59375
 40
0.59375
 40
0.59375
 40
0.625
 40
0.625
 40
0.625
 40
0.65625
 40
0.65625
 40
0.65625
 40
0.6875
 40
0.6875
 40
0.6875
 40
0.71875
 40
0.71875
 40
0.71875
 40
0.75
 40
0.75
 40
0.75
 40
0.78125
 40
0.78125
 40
0.78125
 40
0.8125
 40
0.8125
 40
0.8125
 40
0.84375
 40
0.84375
 40
0.84375
 40
0.875
 40
0.875
 40
0.875
 40
0.90625
 40
0.90625
 40
0.90625
 40
0.9375
 40
0.9375
 40
0.9375
 40
0.96875
 40
0.96875
 40
0.96875
 40
1.0
 40
1.0
 40
1.0
 40
1.0
 10
-0.0825
 20
153.166
 30
0.0
 10
-1.4744
 20
155.139
 30
0.0
 10
-3.4454
 20
156.6262
 30
0.0
 10
-6.0435
 20
157.1661
 30
0.0
 10
-10.965
 20
158.184
 30
0.0
 10
-15.6024
 20
156.5938
 30
0.0
 10
-18.3952
 20
152.3261
 30
0.0
 10
-20.607
 20
148.9464
 30
0.0
 10
-21.2676
 20
144.2677
 30
0.0
 10
-19.6652
 20
140.5062
 30
0.0
 10
-19.2061
 20
139.4266
 30
0.0
 10
-17.9518
 20
138.9227
 30
0.0
 10
-16.8733
 20
139.3829
 30
0.0
 10
-15.795
 20
139.8399
 30
0.0
 10
-15.29
 20
141.0963
 30
0.0
 10
-15.7503
 20
142.1736
 30
0.0
 10
-16.7916
 20
144.6205
 30
0.0
 10
-16.263
 20
147.8097
 30
0.0
 10
-14.833
 20
149.9968
 30
0.0
 10
-13.002
 20
152.7942
 30
0.0
 10
-10.1084
 20
153.6597
 30
0.0
 10
-6.9067
 20
152.997
 30
0.0
 10
-4.9874
 20
152.5993
 30
0.0
 10
-3.6514
 20
151.1603
 30
0.0
 10
-2.8239
 20
149.4493
 30
0.0
 10
-1.7947
 20
147.3205
 30
0.0
 10
-1.5192
 20
144.7336
 30
0.0
 10
-1.8485
 20
142.4055
 30
0.0
 10
-2.6872
 20
136.5039
 30
0.0
 10
-6.8743
 20
133.0513
 30
0.0
 10
-12.9472
 20
133.2642
 30
0.0
 10
-16.9909
 20
133.4063
 30
0.0
 10
-20.8263
 20
135.711
 30
0.0
 10
-23.5353
 20
138.6046
 30
0.0
 10
-26.7827
 20
142.0705
 30
0.0
 10
-28.7404
 20
146.6172
 30
0.0
 10
-28.9464
 20
151.3708
 30
0.0
 10
-29.1557
 20
156.1727
 30
0.0
 10
-28.5747
 20
160.9791
 30
0.0
 10
-26.0483
 20
165.1606
 30
0.0
 10
-23.9933
 20
168.5617
 30
0.0
 10
-20.9721
 20
171.052
 30
0.0
 10
-17.8118
 20
173.3825
 30
0.0
 10
-14.105
 20
176.1184
 30
0.0
 10
-10.3727
 20
178.5898
 30
0.0
 10
-7.031
 20
181.8059
 30
0.0
 10
-4.1541
 20
184.5743
 30
0.0
 10
-1.8642
 20
187.591
 30
0.0
 10
-0.0825
 20
190.991
 30
0.0
 10
1.7004
 20
187.591
 30
0.0
 10
3.9905
 20
184.5743
 30
0.0
 10
6.8674
 20
181.8059
 30
0.0
 10
10.2089
 20
178.5898
 30
0.0
 10
13.9414
 20
176.1184
 30
0.0
 10
17.6479
 20
173.3825
 30
0.0
 10
20.8082
 20
171.052
 30
0.0
 10
23.8296
 20
168.5617
 30
0.0
 10
25.8845
 20
165.1606
 30
0.0
 10
28.4108
 20
160.9791
 30
0.0
 10
28.9921
 20
156.1727
 30
0.0
 10
28.7826
 20
151.3708
 30
0.0
 10
28.5766
 20
146.6172
 30
0.0
 10
26.6191
 20
142.0705
 30
0.0
 10
23.3715
 20
138.6046
 30
0.0
 10
20.6627
 20
135.711
 30
0.0
 10
16.8271
 20
133.4063
 30
0.0
 10
12.7833
 20
133.2642
 30
0.0
 10
6.7105
 20
133.0513
 30
0.0
 10
2.5234
 20
136.5039
 30
0.0
 10
1.6847
 20
142.4055
 30
0.0
 10
1.3553
 20
144.7336
 30
0.0
 10
1.6308
 20
147.3205
 30
0.0
 10
2.6601
 20
149.4493
 30
0.0
 10
3.4876
 20
151.1603
 30
0.0
 10
4.8235
 20
152.5993
 30
0.0
 10
6.7431
 20
152.997
 30
0.0
 10
9.9446
 20
153.6597
 30
0.0
 10
12.8384
 20
152.7942
 30
0.0
 10
14.6691
 20
149.9968
 30
0.0
 10
16.0994
 20
147.8097
 30
0.0
 10
16.6278
 20
144.6205
 30
0.0
 10
15.5864
 20
142.1736
 30
0.0
 10
15.1261
 20
141.0963
 30
0.0
 10
15.6312
 20
139.8399
 30
0.0
 10
16.7097
 20
139.3829
 30
0.0
 10
17.788
 20
138.9227
 30
0.0
 10
19.0422
 20
139.4266
 30
0.0
 10
19.5013
 20
140.5062
 30
0.0
 10
21.104
 20
144.2677
 30
0.0
 10
20.4431
 20
148.9464
 30
0.0
 10
18.2314
 20
152.3261
 30
0.0
 10
15.4385
 20
156.5938
 30
0.0
 10
10.8014
 20
158.184
 30
0.0
 10
5.8796
 20
157.1661
 30
0.0
 10
3.2816
 20
156.6262
 30
0.0
 10
1.3106
 20
155.139
 30
0.0
 10
-0.0825
 20
153.166
 30
0.0
  0
SPLINE
  5
64
330
1F
100
AcDbEntity
  8
Layer 1
 62
   250
370
    20
100
AcDbSpline
210
0.0
220
0.0
230
1.0
 70
    11
 71
     3
 72
   101
 73
    97
 74
     0
 42
0.0000000001
 43
0.0000000001
 40
0.0
 40
0.0
 40
0.0
 40
0.0
 40
0.03125
 40
0.03125
 40
0.03125
 40
0.0625
 40
0.0625
 40
0.0625
 40
0.09375
 40
0.09375
 40
0.09375
 40
0.125
 40
0.125
 40
0.125
 40
0.15625
 40
0.15625
 40
0.15625
 40
0.1875
 40
0.1875
 40
0.1875
 40
0.21875
 40
0.21875
 40
0.21875
 40
0.25
 40
0.25
 40
0.25
 40
0.28125
 40
0.28125
 40
0.28125
 40
0.3125
 40
0.3125
 40
0.3125
 40
0.34375
 40
0.34375
 40
0.34375
 40
0.375
 40
0.375
 40
0.375
 40
0.40625
 40
0.40625
 40
0.40625
 40
0.4375
 40
0.4375
 40
0.4375
 40
0.46875
 40
0.46875
 40
0.46875
 40
0.5
 40
0.5
 40
0.5
 40
0.53125
 40
0.53125
 40
0.53125
 40
0.5625
 40
0.5625
 40
0.5625
 40
0.59375
 40
0.59375
 40
0.59375
 40
0.625
 40
0.625
 40
0.625
 40
0.65625
 40
0.65625
 40
0.65625
 40
0.6875
 40
0.6875
 40
0.6875
 40
0.71875
 40
0.71875
 40
0.71875
 40
0.75
 40
0.75
 40
0.75
 40
0.78125
 40
0.78125
 40
0.78125
 40
0.8125
 40
0.8125
 40
0.8125
 40
0.84375
 40
0.84375
 40
0.84375
 40
0.875
 40
0.875
 40
0.875
 40
0.90625
 40
0.90625
 40
0.90625
 40
0.9375
 40
0.9375
 40
0.9375
 40
0.96875
 40
0.96875
 40
0.96875
 40
1.0
 40
1.0
 40
1.0
 40
1.0
 10
153.1658
 20
-0.0801
 30
0.0
 10
155.139
 20
1.3107
 30
0.0
 10
156.6261
 20
3.2819
 30
0.0
 10
157.1648
 20
5.8798
 30
0.0
 10
158.1838
 20
10.8026
 30
0.0
 10
156.5935
 20
15.4398
 30
0.0
 10
152.3259
 20
18.2317
 30
0.0
 10
148.9451
 20
20.4423
 30
0.0
 10
144.2675
 20
21.1039
 30
0.0
 10
140.5048
 20
19.5015
 30
0.0
 10
139.4265
 20
19.0436
 30
0.0
 10
138.9214
 20
17.7881
 30
0.0
 10
139.3817
 20
16.7097
 30
0.0
 10
139.8408
 20
15.6326
 30
0.0
 10
141.0951
 20
15.1264
 30
0.0
 10
142.1734
 20
15.5854
 30
0.0
 10
144.6202
 20
16.6281
 30
0.0
 10
147.8095
 20
16.0994
 30
0.0
 10
149.9956
 20
14.6705
 30
0.0
 10
152.7941
 20
12.8373
 30
0.0
 10
153.6597
 20
9.9448
 30
0.0
 10
152.9956
 20
6.7421
 30
0.0
 10
152.5991
 20
4.8249
 30
0.0
 10
151.16
 20
3.4889
 30
0.0
 10
149.449
 20
2.6624
 30
0.0
 10
147.3201
 20
1.6311
 30
0.0
 10
144.7323
 20
1.3555
 30
0.0
 10
142.4053
 20
1.6859
 30
0.0
 10
136.5024
 20
2.5236
 30
0.0
 10
133.0512
 20
6.7108
 30
0.0
 10
133.265
 20
12.7825
 30
0.0
 10
133.4072
 20
16.8285
 30
0.0
 10
135.7097
 20
20.6628
 30
0.0
 10
138.6033
 20
23.3728
 30
0.0
 10
142.0705
 20
26.6192
 30
0.0
 10
146.6169
 20
28.5756
 30
0.0
 10
151.3696
 20
28.784
 30
0.0
 10
156.1725
 20
28.9934
 30
0.0
 10
160.979
 20
28.4109
 30
0.0
 10
165.1592
 20
25.8858
 30
0.0
 10
168.5626
 20
23.8309
 30
0.0
 10
171.0518
 20
20.8072
 30
0.0
 10
173.3824
 20
17.6494
 30
0.0
 10
176.1181
 20
13.9416
 30
0.0
 10
178.5906
 20
10.208
 30
0.0
 10
181.8047
 20
6.8687
 30
0.0
 10
184.573
 20
3.9905
 30
0.0
 10
187.5921
 20
1.7005
 30
0.0
 10
190.9907
 20
-0.0801
 30
0.0
 10
187.5921
 20
-1.8628
 30
0.0
 10
184.573
 20
-4.1541
 30
0.0
 10
181.8047
 20
-7.0297
 30
0.0
 10
178.5906
 20
-10.3724
 30
0.0
 10
176.1181
 20
-14.105
 30
0.0
 10
173.3824
 20
-17.8106
 30
0.0
 10
171.0518
 20
-20.9717
 30
0.0
 10
168.5626
 20
-23.9932
 30
0.0
 10
165.1592
 20
-26.047
 30
0.0
 10
160.979
 20
-28.5721
 30
0.0
 10
156.1725
 20
-29.1544
 30
0.0
 10
151.3696
 20
-28.9463
 30
0.0
 10
146.6169
 20
-28.7403
 30
0.0
 10
142.0705
 20
-26.7826
 30
0.0
 10
138.6033
 20
-23.534
 30
0.0
 10
135.7097
 20
-20.824
 30
0.0
 10
133.4072
 20
-16.9908
 30
0.0
 10
133.265
 20
-12.9469
 30
0.0
 10
133.0512
 20
-6.8731
 30
0.0
 10
136.5024
 20
-2.687
 30
0.0
 10
142.4053
 20
-1.8482
 30
0.0
 10
144.7323
 20
-1.5202
 30
0.0
 10
147.3201
 20
-1.7934
 30
0.0
 10
149.449
 20
-2.8236
 30
0.0
 10
151.16
 20
-3.6512
 30
0.0
 10
152.5991
 20
-4.9883
 30
0.0
 10
152.9956
 20
-6.9065
 30
0.0
 10
153.6597
 20
-10.1092
 30
0.0
 10
152.7941
 20
-13.002
 30
0.0
 10
149.9956
 20
-14.8317
 30
0.0
 10
147.8095
 20
-16.263
 30
0.0
 10
144.6202
 20
-16.7915
 30
0.0
 10
142.1734
 20
-15.7501
 30
0.0
 10
141.0951
 20
-15.2898
 30
0.0
 10
139.8408
 20
-15.7936
 30
0.0
 10
139.3817
 20
-16.8744
 30
0.0
 10
138.9214
 20
-17.9515
 30
0.0
 10
139.4265
 20
-19.2046
 30
0.0
 10
140.5048
 20
-19.6649
 30
0.0
 10
144.2675
 20
-21.2662
 30
0.0
 10
148.9451
 20
-20.6067
 30
0.0
 10
152.3259
 20
-18.3939
 30
0.0
 10
156.5935
 20
-15.6021
 30
0.0
 10
158.1838
 20
-10.9639
 30
0.0
 10
157.1648
 20
-6.0408
 30
0.0
 10
156.6261
 20
-3.4452
 30
0.0
 10
155.139
 20
-1.4743
 30
0.0
 10
153.1658
 20
-0.0801
 30
0.0
  0
SPLINE
  5
65
330
1F
100
AcDbEntity
  8
Layer 1
 62
   250
370
    20
100
AcDbSpline
210
0.0
220
0.0
230
1.0
 70
    11
 71
     3
 72
   101
 73
    97
 74
     0
 42
0.0000000001
 43
0.0000000001
 40
0.0
 40
0.0
 40
0.0
 40
0.0
 40
0.03125
 40
0.03125
 40
0.03125
 40
0.0625
 40
0.0625
 40
0.0625
 40
0.09375
 40
0.09375
 40
0.09375
 40
0.125
 40
0.125
 40
0.125
 40
0.15625
 40
0.15625
 40
0.15625
 40
0.1875
 40
0.1875
 40
0.1875
 40
0.21875
 40
0.21875
 40
0.21875
 40
0.25
 40
0.25
 40
0.25
 40
0.28125
 40
0.28125
 40
0.28125
 40
0.3125
 40
0.3125
 40
0.3125
 40
0.34375
 40
0.34375
 40
0.34375
 40
0.375
 40
0.375
 40
0.375
 40
0.40625
 40
0.40625
 40
0.40625
 40
0.4375
 40
0.4375
 40
0.4375
 40
0.46875
 40
0.46875
 40
0.46875
 40
0.5
 40
0.5
 40
0.5
 40
0.53125
 40
0.53125
 40
0.53125
 40
0.5625
 40
0.5625
 40
0.5625
 40
0.59375
 40
0.59375
 40
0.59375
 40
0.625
 40
0.625
 40
0.625
 40
0.65625
 40
0.65625
 40
0.65625
 40
0.6875
 40
0.6875
 40
0.6875
 40
0.71875
 40
0.71875
 40
0.71875
 40
0.75
 40
0.75
 40
0.75
 40
0.78125
 40
0.78125
 40
0.78125
 40
0.8125
 40
0.8125
 40
0.8125
 40
0.84375
 40
0.84375
 40
0.84375
 40
0.875
 40
0.875
 40
0.875
 40
0.90625
 40
0.90625
 40
0.90625
 40
0.9375
 40
0.9375
 40
0.9375
 40
0.96875
 40
0.96875
 40
0.96875
 40
1.0
 40
1.0
 40
1.0
 40
1.0
 10
132.6335
 20
-76.7041
 30
0.0
 10
135.0401
 20
-76.4859
 30
0.0
 10
137.3133
 20
-75.5227
 30
0.0
 10
139.0771
 20
-73.5416
 30
0.0
 10
142.422
 20
-69.789
 30
0.0
 10
143.3626
 20
-64.9793
 30
0.0
 10
141.0636
 20
-60.4272
 30
0.0
 10
139.2417
 20
-56.8191
 30
0.0
 10
135.5216
 20
-53.9076
 30
0.0
 10
131.4621
 20
-53.4147
 30
0.0
 10
130.2974
 20
-53.2749
 30
0.0
 10
129.2337
 20
-54.1079
 30
0.0
 10
129.0924
 20
-55.2725
 30
0.0
 10
128.9503
 20
-56.4338
 30
0.0
 10
129.7845
 20
-57.4977
 30
0.0
 10
130.948
 20
-57.64
 30
0.0
 10
133.5886
 20
-57.9614
 30
0.0
 10
136.0859
 20
-60.0139
 30
0.0
 10
137.264
 20
-62.3444
 30
0.0
 10
138.7723
 20
-65.33
 30
0.0
 10
138.0758
 20
-68.2695
 30
0.0
 10
135.9
 20
-70.7096
 30
0.0
 10
134.5967
 20
-72.1721
 30
0.0
 10
132.6816
 20
-72.6111
 30
0.0
 10
130.7868
 20
-72.4712
 30
0.0
 10
128.4273
 20
-72.2998
 30
0.0
 10
126.0489
 20
-71.2438
 30
0.0
 10
124.2
 20
-69.7947
 30
0.0
 10
119.5054
 20
-66.1172
 30
0.0
 10
118.6108
 20
-60.7665
 30
0.0
 10
121.8325
 20
-55.6129
 30
0.0
 10
123.9771
 20
-52.1808
 30
0.0
 10
127.8899
 20
-50.0128
 30
0.0
 10
131.75
 20
-49.1123
 30
0.0
 10
136.3748
 20
-48.0338
 30
0.0
 10
141.292
 20
-48.6118
 30
0.0
 10
145.5106
 20
-50.81
 30
0.0
 10
149.7748
 20
-53.0306
 30
0.0
 10
153.6461
 20
-55.9366
 30
0.0
 10
156.0058
 20
-60.2145
 30
0.0
 10
157.9228
 20
-63.6949
 30
0.0
 10
158.5691
 20
-67.5584
 30
0.0
 10
159.008
 20
-71.46
 30
0.0
 10
159.523
 20
-76.0367
 30
0.0
 10
159.7976
 20
-80.506
 30
0.0
 10
160.9118
 20
-85.0066
 30
0.0
 10
161.8691
 20
-88.8814
 30
0.0
 10
163.3396
 20
-92.374
 30
0.0
 10
165.3923
 20
-95.6172
 30
0.0
 10
161.5579
 20
-95.4615
 30
0.0
 10
157.7975
 20
-95.9352
 30
0.0
 10
153.9619
 20
-97.0439
 30
0.0
 10
149.5071
 20
-98.3283
 30
0.0
 10
145.5006
 20
-100.3262
 30
0.0
 10
141.2787
 20
-102.1683
 30
0.0
 10
137.6795
 20
-103.7383
 30
0.0
 10
134.012
 20
-105.1113
 30
0.0
 10
130.0376
 20
-105.1885
 30
0.0
 10
125.154
 20
-105.287
 30
0.0
 10
120.7016
 20
-103.3866
 30
0.0
 10
116.6466
 20
-100.8054
 30
0.0
 10
112.6341
 20
-98.25
 30
0.0
 10
109.6743
 20
-94.2812
 30
0.0
 10
108.296
 20
-89.7347
 30
0.0
 10
107.1458
 20
-85.9406
 30
0.0
 10
107.0687
 20
-81.4702
 30
0.0
 10
108.9666
 20
-77.8956
 30
0.0
 10
111.819
 20
-72.5306
 30
0.0
 10
116.9007
 20
-70.6291
 30
0.0
 10
122.4328
 20
-72.8553
 30
0.0
 10
124.612
 20
-73.7343
 30
0.0
 10
126.7161
 20
-75.2652
 30
0.0
 10
128.0444
 20
-77.2226
 30
0.0
 10
129.1115
 20
-78.7937
 30
0.0
 10
129.6904
 20
-80.6707
 30
0.0
 10
129.0758
 20
-82.5306
 30
0.0
 10
128.0499
 20
-85.635
 30
0.0
 10
125.8517
 20
-87.7077
 30
0.0
 10
122.5135
 20
-87.8959
 30
0.0
 10
119.9053
 20
-88.0392
 30
0.0
 10
116.8783
 20
-86.9038
 30
0.0
 10
115.2805
 20
-84.7771
 30
0.0
 10
114.5761
 20
-83.8409
 30
0.0
 10
113.2378
 20
-83.6506
 30
0.0
 10
112.3005
 20
-84.3549
 30
0.0
 10
111.3632
 20
-85.0592
 30
0.0
 10
111.1739
 20
-86.3987
 30
0.0
 10
111.8783
 20
-87.3349
 30
0.0
 10
114.3363
 20
-90.6037
 30
0.0
 10
118.716
 20
-92.3697
 30
0.0
 10
122.751
 20
-92.1435
 30
0.0
 10
127.8427
 20
-91.8601
 30
0.0
 10
131.5383
 20
-88.6406
 30
0.0
 10
133.1171
 20
-83.8666
 30
0.0
 10
133.9492
 20
-81.3482
 30
0.0
 10
133.647
 20
-78.8979
 30
0.0
 10
132.6335
 20
-76.7041
 30
0.0
  0
SPLINE
  5
66
330
1F
100
AcDbEntity
  8
Layer 1
 62
   250
370
    20
100
AcDbSpline
210
0.0
220
0.0
230
1.0
 70
    11
 71
     3
 72
   101
 73
    97
 74
     0
 42
0.0000000001
 43
0.0000000001
 40
0.0
 40
0.0
 40
0.0
 40
0.0
 40
0.03125
 40
0.03125
 40
0.03125
 40
0.0625
 40
0.0625
 40
0.0625
 40
0.09375
 40
0.09375
 40
0.09375
 40
0.125
 40
0.125
 40
0.125
 40
0.15625
 40
0.15625
 40
0.15625
 40
0.1875
 40
0.1875
 40
0.1875
 40
0.21875
 40
0.21875
 40
0.21875
 40
0.25
 40
0.25
 40
0.25
 40
0.28125
 40
0.28125
 40
0.28125
 40
0.3125
 40
0.3125
 40
0.3125
 40
0.34375
 40
0.34375
 40
0.34375
 40
0.375
 40
0.375
 40
0.375
 40
0.40625
 40
0.40625
 40
0.40625
 40
0.4375
 40
0.4375
 40
0.4375
 40
0.46875
 40
0.46875
 40
0.46875
 40
0.5
 40
0.5
 40
0.5
 40
0.53125
 40
0.53125
 40
0.53125
 40
0.5625
 40
0.5625
 40
0.5625
 40
0.59375
 40
0.59375
 40
0.59375
 40
0.625
 40
0.625
 40
0.625
 40
0.65625
 40
0.65625
 40
0.65625
 40
0.6875
 40
0.6875
 40
0.6875
 40
0.71875
 40
0.71875
 40
0.71875
 40
0.75
 40
0.75
 40
0.75
 40
0.78125
 40
0.78125
 40
0.78125
 40
0.8125
 40
0.8125
 40
0.8125
 40
0.84375
 40
0.84375
 40
0.84375
 40
0.875
 40
0.875
 40
0.875
 40
0.90625
 40
0.90625
 40
0.90625
 40
0.9375
 40
0.9375
 40
0.9375
 40
0.96875
 40
0.96875
 40
0.96875
 40
1.0
 40
1.0
 40
1.0
 40
1.0
 10
76.5417
 20
-132.7981
 30
0.0
 10
78.7344
 20
-133.8093
 30
0.0
 10
81.1845
 20
-134.1117
 30
0.0
 10
83.703
 20
-133.2797
 30
0.0
 10
88.4769
 20
-131.7018
 30
0.0
 10
91.6976
 20
-128.0052
 30
0.0
 10
91.981
 20
-122.9145
 30
0.0
 10
92.2073
 20
-118.8798
 30
0.0
 10
90.4413
 20
-114.4988
 30
0.0
 10
87.1712
 20
-112.0409
 30
0.0
 10
86.2339
 20
-111.3364
 30
0.0
 10
84.8956
 20
-111.5256
 30
0.0
 10
84.1912
 20
-112.4653
 30
0.0
 10
83.4868
 20
-113.4014
 30
0.0
 10
83.6773
 20
-114.7407
 30
0.0
 10
84.6146
 20
-115.4428
 30
0.0
 10
86.7411
 20
-117.0409
 30
0.0
 10
87.8768
 20
-120.07
 30
0.0
 10
87.7311
 20
-122.6758
 30
0.0
 10
87.5453
 20
-126.0143
 30
0.0
 10
85.4724
 20
-128.2136
 30
0.0
 10
82.3671
 20
-129.2404
 30
0.0
 10
80.5082
 20
-129.853
 30
0.0
 10
78.6301
 20
-129.2752
 30
0.0
 10
77.0579
 20
-128.2079
 30
0.0
 10
75.1017
 20
-126.8787
 30
0.0
 10
73.5695
 20
-124.7744
 30
0.0
 10
72.6927
 20
-122.5964
 30
0.0
 10
70.4666
 20
-117.0644
 30
0.0
 10
72.3669
 20
-111.9815
 30
0.0
 10
77.7333
 20
-109.1303
 30
0.0
 10
81.3067
 20
-107.2323
 30
0.0
 10
85.7781
 20
-107.3084
 30
0.0
 10
89.5711
 20
-108.4595
 30
0.0
 10
94.1176
 20
-109.8392
 30
0.0
 10
98.0863
 20
-112.7978
 30
0.0
 10
100.6417
 20
-116.809
 30
0.0
 10
103.2231
 20
-120.8652
 30
0.0
 10
105.1234
 20
-125.3165
 30
0.0
 10
105.026
 20
-130.2023
 30
0.0
 10
104.9476
 20
-134.1746
 30
0.0
 10
103.5757
 20
-137.8432
 30
0.0
 10
102.0045
 20
-141.44
 30
0.0
 10
100.1626
 20
-145.6641
 30
0.0
 10
98.1658
 20
-149.671
 30
0.0
 10
96.8801
 20
-154.1246
 30
0.0
 10
95.7716
 20
-157.96
 30
0.0
 10
95.298
 20
-161.7215
 30
0.0
 10
95.4547
 20
-165.5559
 30
0.0
 10
92.2115
 20
-163.5032
 30
0.0
 10
88.7188
 20
-162.0339
 30
0.0
 10
84.843
 20
-161.0742
 30
0.0
 10
80.3425
 20
-159.9623
 30
0.0
 10
75.8732
 20
-159.6867
 30
0.0
 10
71.2951
 20
-159.1705
 30
0.0
 10
67.3947
 20
-158.7316
 30
0.0
 10
63.5312
 20
-158.0864
 30
0.0
 10
60.0509
 20
-156.1692
 30
0.0
 10
55.7731
 20
-153.8088
 30
0.0
 10
52.866
 20
-149.9385
 30
0.0
 10
50.6463
 20
-145.673
 30
0.0
 10
48.4493
 20
-141.4546
 30
0.0
 10
47.8704
 20
-136.5385
 30
0.0
 10
48.9499
 20
-131.9124
 30
0.0
 10
49.849
 20
-128.0524
 30
0.0
 10
52.0182
 20
-124.1406
 30
0.0
 10
55.4507
 20
-121.9961
 30
0.0
 10
60.6029
 20
-118.7745
 30
0.0
 10
65.9535
 20
-119.6691
 30
0.0
 10
69.631
 20
-124.3625
 30
0.0
 10
71.0803
 20
-126.2113
 30
0.0
 10
72.1362
 20
-128.592
 30
0.0
 10
72.3086
 20
-130.9492
 30
0.0
 10
72.4474
 20
-132.8453
 30
0.0
 10
72.0085
 20
-134.7601
 30
0.0
 10
70.5471
 20
-136.0626
 30
0.0
 10
68.1058
 20
-138.2384
 30
0.0
 10
65.1674
 20
-138.9349
 30
0.0
 10
62.1829
 20
-137.4277
 30
0.0
 10
59.8504
 20
-136.2496
 30
0.0
 10
57.7977
 20
-133.7524
 30
0.0
 10
57.4765
 20
-131.1117
 30
0.0
 10
57.3352
 20
-129.9482
 30
0.0
 10
56.2715
 20
-129.1138
 30
0.0
 10
55.108
 20
-129.2561
 30
0.0
 10
53.9445
 20
-129.3973
 30
0.0
 10
53.11
 20
-130.4611
 30
0.0
 10
53.2522
 20
-131.6257
 30
0.0
 10
53.7449
 20
-135.6841
 30
0.0
 10
56.6566
 20
-139.4054
 30
0.0
 10
60.2626
 20
-141.2273
 30
0.0
 10
64.8148
 20
-143.5251
 30
0.0
 10
69.6255
 20
-142.5845
 30
0.0
 10
73.3792
 20
-139.2407
 30
0.0
 10
75.3591
 20
-137.4769
 30
0.0
 10
76.3221
 20
-135.2025
 30
0.0
 10
76.5417
 20
-132.7981
 30
0.0
  0
SPLINE
  5
67
330
1F
100
AcDbEntity
  8
Layer 1
 62
   250
370
    20
100
AcDbSpline
210
0.0
220
0.0
230
1.0
 70
    11
 71
     3
 72
   101
 73
    97
 74
     0
 42
0.0000000001
 43
0.0000000001
 40
0.0
 40
0.0
 40
0.0
 40
0.0
 40
0.03125
 40
0.03125
 40
0.03125
 40
0.0625
 40
0.0625
 40
0.0625
 40
0.09375
 40
0.09375
 40
0.09375
 40
0.125
 40
0.125
 40
0.125
 40
0.15625
 40
0.15625
 40
0.15625
 40
0.1875
 40
0.1875
 40
0.1875
 40
0.21875
 40
0.21875
 40
0.21875
 40
0.25
 40
0.25
 40
0.25
 40
0.28125
 40
0.28125
 40
0.28125
 40
0.3125
 40
0.3125
 40
0.3125
 40
0.34375
 40
0.34375
 40
0.34375
 40
0.375
 40
0.375
 40
0.375
 40
0.40625
 40
0.40625
 40
0.40625
 40
0.4375
 40
0.4375
 40
0.4375
 40
0.46875
 40
0.46875
 40
0.46875
 40
0.5
 40
0.5
 40
0.5
 40
0.53125
 40
0.53125
 40
0.53125
 40
0.5625
 40
0.5625
 40
0.5625
 40
0.59375
 40
0.59375
 40
0.59375
 40
0.625
 40
0.625
 40
0.625
 40
0.65625
 40
0.65625
 40
0.65625
 40
0.6875
 40
0.6875
 40
0.6875
 40
0.71875
 40
0.71875
 40
0.71875
 40
0.75
 40
0.75
 40
0.75
 40
0.78125
 40
0.78125
 40
0.78125
 40
0.8125
 40
0.8125
 40
0.8125
 40
0.84375
 40
0.84375
 40
0.84375
 40
0.875
 40
0.875
 40
0.875
 40
0.90625
 40
0.90625
 40
0.90625
 40
0.9375
 40
0.9375
 40
0.9375
 40
0.96875
 40
0.96875
 40
0.96875
 40
1.0
 40
1.0
 40
1.0
 40
1.0
 10
-0.0825
 20
-153.3294
 30
0.0
 10
1.3106
 20
-155.3026
 30
0.0
 10
3.2816
 20
-156.7885
 30
0.0
 10
5.8796
 20
-157.3273
 30
0.0
 10
10.8014
 20
-158.3485
 30
0.0
 10
15.4385
 20
-156.7572
 30
0.0
 10
18.2314
 20
-152.4895
 30
0.0
 10
20.4431
 20
-149.1076
 30
0.0
 10
21.104
 20
-144.431
 30
0.0
 10
19.5013
 20
-140.6674
 30
0.0
 10
19.0422
 20
-139.5911
 30
0.0
 10
17.788
 20
-139.0839
 30
0.0
 10
16.7097
 20
-139.5441
 30
0.0
 10
15.6312
 20
-140.0044
 30
0.0
 10
15.1261
 20
-141.2575
 30
0.0
 10
15.5864
 20
-142.3348
 30
0.0
 10
16.6278
 20
-144.7838
 30
0.0
 10
16.0994
 20
-147.9733
 30
0.0
 10
14.6691
 20
-150.158
 30
0.0
 10
12.8384
 20
-152.9576
 30
0.0
 10
9.9446
 20
-153.8244
 30
0.0
 10
6.7431
 20
-153.1603
 30
0.0
 10
4.8235
 20
-152.7627
 30
0.0
 10
3.4876
 20
-151.3226
 30
0.0
 10
2.6601
 20
-149.6127
 30
0.0
 10
1.6308
 20
-147.4828
 30
0.0
 10
1.3553
 20
-144.8948
 30
0.0
 10
1.6847
 20
-142.57
 30
0.0
 10
2.5234
 20
-136.6651
 30
0.0
 10
6.7105
 20
-133.216
 30
0.0
 10
12.7833
 20
-133.4276
 30
0.0
 10
16.8271
 20
-133.5699
 30
0.0
 10
20.6627
 20
-135.8733
 30
0.0
 10
23.3715
 20
-138.7659
 30
0.0
 10
26.6191
 20
-142.2328
 30
0.0
 10
28.5766
 20
-146.7817
 30
0.0
 10
28.7826
 20
-151.532
 30
0.0
 10
28.9921
 20
-156.3361
 30
0.0
 10
28.4108
 20
-161.1414
 30
0.0
 10
25.8845
 20
-165.324
 30
0.0
 10
23.8296
 20
-168.7251
 30
0.0
 10
20.8082
 20
-171.2156
 30
0.0
 10
17.6479
 20
-173.5469
 30
0.0
 10
13.9414
 20
-176.2817
 30
0.0
 10
10.2089
 20
-178.7532
 30
0.0
 10
6.8674
 20
-181.9672
 30
0.0
 10
3.9905
 20
-184.7355
 30
0.0
 10
1.7004
 20
-187.7557
 30
0.0
 10
-0.0825
 20
-191.1543
 30
0.0
 10
-1.8642
 20
-187.7557
 30
0.0
 10
-4.1541
 20
-184.7355
 30
0.0
 10
-7.031
 20
-181.9672
 30
0.0
 10
-10.3727
 20
-178.7532
 30
0.0
 10
-14.105
 20
-176.2817
 30
0.0
 10
-17.8118
 20
-173.5469
 30
0.0
 10
-20.9721
 20
-171.2156
 30
0.0
 10
-23.9933
 20
-168.7251
 30
0.0
 10
-26.0483
 20
-165.324
 30
0.0
 10
-28.5747
 20
-161.1414
 30
0.0
 10
-29.1557
 20
-156.3361
 30
0.0
 10
-28.9464
 20
-151.532
 30
0.0
 10
-28.7404
 20
-146.7817
 30
0.0
 10
-26.7827
 20
-142.2328
 30
0.0
 10
-23.5353
 20
-138.7659
 30
0.0
 10
-20.8263
 20
-135.8733
 30
0.0
 10
-16.9909
 20
-133.5699
 30
0.0
 10
-12.9472
 20
-133.4276
 30
0.0
 10
-6.8743
 20
-133.216
 30
0.0
 10
-2.6872
 20
-136.6651
 30
0.0
 10
-1.8485
 20
-142.57
 30
0.0
 10
-1.5192
 20
-144.8948
 30
0.0
 10
-1.7947
 20
-147.4828
 30
0.0
 10
-2.8239
 20
-149.6127
 30
0.0
 10
-3.6514
 20
-151.3226
 30
0.0
 10
-4.9874
 20
-152.7627
 30
0.0
 10
-6.9067
 20
-153.1603
 30
0.0
 10
-10.1084
 20
-153.8244
 30
0.0
 10
-13.002
 20
-152.9576
 30
0.0
 10
-14.833
 20
-150.158
 30
0.0
 10
-16.263
 20
-147.9733
 30
0.0
 10
-16.7916
 20
-144.7838
 30
0.0
 10
-15.7503
 20
-142.3348
 30
0.0
 10
-15.29
 20
-141.2575
 30
0.0
 10
-15.795
 20
-140.0044
 30
0.0
 10
-16.8733
 20
-139.5441
 30
0.0
 10
-17.9518
 20
-139.0839
 30
0.0
 10
-19.2061
 20
-139.5911
 30
0.0
 10
-19.6652
 20
-140.6674
 30
0.0
 10
-21.2676
 20
-144.431
 30
0.0
 10
-20.607
 20
-149.1076
 30
0.0
 10
-18.3952
 20
-152.4895
 30
0.0
 10
-15.6024
 20
-156.7572
 30
0.0
 10
-10.965
 20
-158.3485
 30
0.0
 10
-6.0435
 20
-157.3273
 30
0.0
 10
-3.4454
 20
-156.7885
 30
0.0
 10
-1.4744
 20
-155.3026
 30
0.0
 10
-0.0825
 20
-153.3294
 30
0.0
  0
SPLINE
  5
68
330
1F
100
AcDbEntity
  8
Layer 1
 62
   250
370
    20
100
AcDbSpline
210
0.0
220
0.0
230
1.0
 70
    11
 71
     3
 72
   101
 73
    97
 74
     0
 42
0.0000000001
 43
0.0000000001
 40
0.0
 40
0.0
 40
0.0
 40
0.0
 40
0.03125
 40
0.03125
 40
0.03125
 40
0.0625
 40
0.0625
 40
0.0625
 40
0.09375
 40
0.09375
 40
0.09375
 40
0.125
 40
0.125
 40
0.125
 40
0.15625
 40
0.15625
 40
0.15625
 40
0.1875
 40
0.1875
 40
0.1875
 40
0.21875
 40
0.21875
 40
0.21875
 40
0.25
 40
0.25
 40
0.25
 40
0.28125
 40
0.28125
 40
0.28125
 40
0.3125
 40
0.3125
 40
0.3125
 40
0.34375
 40
0.34375
 40
0.34375
 40
0.375
 40
0.375
 40
0.375
 40
0.40625
 40
0.40625
 40
0.40625
 40
0.4375
 40
0.4375
 40
0.4375
 40
0.46875
 40
0.46875
 40
0.46875
 40
0.5
 40
0.5
 40
0.5
 40
0.53125
 40
0.53125
 40
0.53125
 40
0.5625
 40
0.5625
 40
0.5625
 40
0.59375
 40
0.59375
 40
0.59375
 40
0.625
 40
0.625
 40
0.625
 40
0.65625
 40
0.65625
 40
0.65625
 40
0.6875
 40
0.6875
 40
0.6875
 40
0.71875
 40
0.71875
 40
0.71875
 40
0.75
 40
0.75
 40
0.75
 40
0.78125
 40
0.78125
 40
0.78125
 40
0.8125
 40
0.8125
 40
0.8125
 40
0.84375
 40
0.84375
 40
0.84375
 40
0.875
 40
0.875
 40
0.875
 40
0.90625
 40
0.90625
 40
0.90625
 40
0.9375
 40
0.9375
 40
0.9375
 40
0.96875
 40
0.96875
 40
0.96875
 40
1.0
 40
1.0
 40
1.0
 40
1.0
 10
-76.7055
 20
-132.7981
 30
0.0
 10
-76.4859
 20
-135.2025
 30
0.0
 10
-75.5229
 20
-137.4769
 30
0.0
 10
-73.5431
 20
-139.2407
 30
0.0
 10
-69.7894
 20
-142.5845
 30
0.0
 10
-64.9784
 20
-143.5251
 30
0.0
 10
-60.4262
 20
-141.2273
 30
0.0
 10
-56.8204
 20
-139.4054
 30
0.0
 10
-53.9088
 20
-135.6841
 30
0.0
 10
-53.4161
 20
-131.6257
 30
0.0
 10
-53.2739
 20
-130.4611
 30
0.0
 10
-54.1081
 20
-129.3973
 30
0.0
 10
-55.2716
 20
-129.2561
 30
0.0
 10
-56.4351
 20
-129.1138
 30
0.0
 10
-57.4991
 20
-129.9482
 30
0.0
 10
-57.6401
 20
-131.1117
 30
0.0
 10
-57.9616
 20
-133.7524
 30
0.0
 10
-60.0143
 20
-136.2496
 30
0.0
 10
-62.3456
 20
-137.4277
 30
0.0
 10
-65.3313
 20
-138.9349
 30
0.0
 10
-68.2696
 20
-138.2384
 30
0.0
 10
-70.711
 20
-136.0626
 30
0.0
 10
-72.1724
 20
-134.7601
 30
0.0
 10
-72.6113
 20
-132.8453
 30
0.0
 10
-72.4724
 20
-130.9492
 30
0.0
 10
-72.3
 20
-128.592
 30
0.0
 10
-71.2439
 20
-126.2113
 30
0.0
 10
-69.7949
 20
-124.3625
 30
0.0
 10
-66.1174
 20
-119.6691
 30
0.0
 10
-60.7668
 20
-118.7745
 30
0.0
 10
-55.6143
 20
-121.9961
 30
0.0
 10
-52.1821
 20
-124.1406
 30
0.0
 10
-50.0129
 20
-128.0524
 30
0.0
 10
-49.1137
 20
-131.9124
 30
0.0
 10
-48.034
 20
-136.5385
 30
0.0
 10
-48.6132
 20
-141.4546
 30
0.0
 10
-50.8102
 20
-145.673
 30
0.0
 10
-53.0298
 20
-149.9385
 30
0.0
 10
-55.9369
 20
-153.8088
 30
0.0
 10
-60.2157
 20
-156.1692
 30
0.0
 10
-63.6951
 20
-158.0864
 30
0.0
 10
-67.5586
 20
-158.7316
 30
0.0
 10
-71.459
 20
-159.1705
 30
0.0
 10
-76.0368
 20
-159.6867
 30
0.0
 10
-80.5061
 20
-159.9623
 30
0.0
 10
-85.0068
 20
-161.0742
 30
0.0
 10
-88.8827
 20
-162.0339
 30
0.0
 10
-92.3754
 20
-163.5032
 30
0.0
 10
-95.6185
 20
-165.5559
 30
0.0
 10
-95.4616
 20
-161.7215
 30
0.0
 10
-95.9355
 20
-157.96
 30
0.0
 10
-97.044
 20
-154.1246
 30
0.0
 10
-98.3297
 20
-149.671
 30
0.0
 10
-100.3262
 20
-145.6641
 30
0.0
 10
-102.1684
 20
-141.44
 30
0.0
 10
-103.7396
 20
-137.8432
 30
0.0
 10
-105.1115
 20
-134.1746
 30
0.0
 10
-105.1898
 20
-130.2023
 30
0.0
 10
-105.2872
 20
-125.3165
 30
0.0
 10
-103.3869
 20
-120.8652
 30
0.0
 10
-100.8056
 20
-116.809
 30
0.0
 10
-98.2501
 20
-112.7978
 30
0.0
 10
-94.2814
 20
-109.8392
 30
0.0
 10
-89.7347
 20
-108.4595
 30
0.0
 10
-85.942
 20
-107.3084
 30
0.0
 10
-81.4703
 20
-107.2323
 30
0.0
 10
-77.8969
 20
-109.1303
 30
0.0
 10
-72.5308
 20
-111.9815
 30
0.0
 10
-70.6302
 20
-117.0644
 30
0.0
 10
-72.8566
 20
-122.5964
 30
0.0
 10
-73.7334
 20
-124.7744
 30
0.0
 10
-75.2653
 20
-126.8787
 30
0.0
 10
-77.2218
 20
-128.2079
 30
0.0
 10
-78.7939
 20
-129.2752
 30
0.0
 10
-80.6719
 20
-129.853
 30
0.0
 10
-82.531
 20
-129.2404
 30
0.0
 10
-85.6362
 20
-128.2136
 30
0.0
 10
-87.7089
 20
-126.0143
 30
0.0
 10
-87.8949
 20
-122.6782
 30
0.0
 10
-88.0404
 20
-120.07
 30
0.0
 10
-86.905
 20
-117.0409
 30
0.0
 10
-84.7785
 20
-115.4428
 30
0.0
 10
-83.8412
 20
-114.7407
 30
0.0
 10
-83.6507
 20
-113.4014
 30
0.0
 10
-84.3551
 20
-112.4653
 30
0.0
 10
-85.0595
 20
-111.5256
 30
0.0
 10
-86.3978
 20
-111.3364
 30
0.0
 10
-87.3351
 20
-112.0409
 30
0.0
 10
-90.6049
 20
-114.4988
 30
0.0
 10
-92.3709
 20
-118.8798
 30
0.0
 10
-92.1446
 20
-122.9145
 30
0.0
 10
-91.8615
 20
-128.0052
 30
0.0
 10
-88.6407
 20
-131.7018
 30
0.0
 10
-83.8669
 20
-133.2797
 30
0.0
 10
-81.3484
 20
-134.1117
 30
0.0
 10
-78.898
 20
-133.8093
 30
0.0
 10
-76.7055
 20
-132.7981
 30
0.0
  0
SPLINE
  5
69
330
1F
100
AcDbEntity
  8
Layer 1
 62
   250
370
    20
100
AcDbSpline
210
0.0
220
0.0
230
1.0
 70
    11
 71
     3
 72
   101
 73
    97
 74
     0
 42
0.0000000001
 43
0.0000000001
 40
0.0
 40
0.0
 40
0.0
 40
0.0
 40
0.03125
 40
0.03125
 40
0.03125
 40
0.0625
 40
0.0625
 40
0.0625
 40
0.09375
 40
0.09375
 40
0.09375
 40
0.125
 40
0.125
 40
0.125
 40
0.15625
 40
0.15625
 40
0.15625
 40
0.1875
 40
0.1875
 40
0.1875
 40
0.21875
 40
0.21875
 40
0.21875
 40
0.25
 40
0.25
 40
0.25
 40
0.28125
 40
0.28125
 40
0.28125
 40
0.3125
 40
0.3125
 40
0.3125
 40
0.34375
 40
0.34375
 40
0.34375
 40
0.375
 40
0.375
 40
0.375
 40
0.40625
 40
0.40625
 40
0.40625
 40
0.4375
 40
0.4375
 40
0.4375
 40
0.46875
 40
0.46875
 40
0.46875
 40
0.5
 40
0.5
 40
0.5
 40
0.53125
 40
0.53125
 40
0.53125
 40
0.5625
 40
0.5625
 40
0.5625
 40
0.59375
 40
0.59375
 40
0.59375
 40
0.625
 40
0.625
 40
0.625
 40
0.65625
 40
0.65625
 40
0.65625
 40
0.6875
 40
0.6875
 40
0.6875
 40
0.71875
 40
0.71875
 40
0.71875
 40
0.75
 40
0.75
 40
0.75
 40
0.78125
 40
0.78125
 40
0.78125
 40
0.8125
 40
0.8125
 40
0.8125
 40
0.84375
 40
0.84375
 40
0.84375
 40
0.875
 40
0.875
 40
0.875
 40
0.90625
 40
0.90625
 40
0.90625
 40
0.9375
 40
0.9375
 40
0.9375
 40
0.96875
 40
0.96875
 40
0.96875
 40
1.0
 40
1.0
 40
1.0
 40
1.0
 10
-132.7973
 20
-76.7041
 30
0.0
 10
-133.8106
 20
-78.8979
 30
0.0
 10
-134.113
 20
-81.3482
 30
0.0
 10
-133.281
 20
-83.8666
 30
0.0
 10
-131.7019
 20
-88.6406
 30
0.0
 10
-128.0066
 20
-91.8601
 30
0.0
 10
-122.9146
 20
-92.1435
 30
0.0
 10
-118.8799
 20
-92.3697
 30
0.0
 10
-114.5001
 20
-90.6037
 30
0.0
 10
-112.0421
 20
-87.3349
 30
0.0
 10
-111.3377
 20
-86.3987
 30
0.0
 10
-111.527
 20
-85.0592
 30
0.0
 10
-112.4643
 20
-84.3549
 30
0.0
 10
-113.4016
 20
-83.6506
 30
0.0
 10
-114.7397
 20
-83.8409
 30
0.0
 10
-115.4441
 20
-84.7771
 30
0.0
 10
-117.0422
 20
-86.9038
 30
0.0
 10
-120.0691
 20
-88.0392
 30
0.0
 10
-122.6772
 20
-87.8959
 30
0.0
 10
-126.0155
 20
-87.7077
 30
0.0
 10
-128.2138
 20
-85.635
 30
0.0
 10
-129.2394
 20
-82.5306
 30
0.0
 10
-129.8543
 20
-80.6707
 30
0.0
 10
-129.2754
 20
-78.7937
 30
0.0
 10
-128.208
 20
-77.2226
 30
0.0
 10
-126.88
 20
-75.2652
 30
0.0
 10
-124.7758
 20
-73.7343
 30
0.0
 10
-122.5967
 20
-72.8553
 30
0.0
 10
-117.0646
 20
-70.6291
 30
0.0
 10
-111.9828
 20
-72.5306
 30
0.0
 10
-109.1305
 20
-77.8956
 30
0.0
 10
-107.2323
 20
-81.4702
 30
0.0
 10
-107.3097
 20
-85.9406
 30
0.0
 10
-108.4596
 20
-89.7347
 30
0.0
 10
-109.8382
 20
-94.2812
 30
0.0
 10
-112.798
 20
-98.25
 30
0.0
 10
-116.8103
 20
-100.8054
 30
0.0
 10
-120.8654
 20
-103.3866
 30
0.0
 10
-125.3178
 20
-105.287
 30
0.0
 10
-130.2026
 20
-105.1885
 30
0.0
 10
-134.1757
 20
-105.1113
 30
0.0
 10
-137.8432
 20
-103.7383
 30
0.0
 10
-141.4425
 20
-102.1683
 30
0.0
 10
-145.6642
 20
-100.3262
 30
0.0
 10
-149.671
 20
-98.3283
 30
0.0
 10
-154.1258
 20
-97.0439
 30
0.0
 10
-157.9611
 20
-95.9352
 30
0.0
 10
-161.7217
 20
-95.4615
 30
0.0
 10
-165.5559
 20
-95.6172
 30
0.0
 10
-163.5032
 20
-92.374
 30
0.0
 10
-162.033
 20
-88.8814
 30
0.0
 10
-161.0754
 20
-85.0066
 30
0.0
 10
-159.9612
 20
-80.506
 30
0.0
 10
-159.6869
 20
-76.0367
 30
0.0
 10
-159.1718
 20
-71.46
 30
0.0
 10
-158.7327
 20
-67.5584
 30
0.0
 10
-158.0866
 20
-63.6949
 30
0.0
 10
-156.1685
 20
-60.2145
 30
0.0
 10
-153.81
 20
-55.9366
 30
0.0
 10
-149.9387
 20
-53.0306
 30
0.0
 10
-145.6744
 20
-50.81
 30
0.0
 10
-141.4559
 20
-48.6118
 30
0.0
 10
-136.5387
 20
-48.0338
 30
0.0
 10
-131.9136
 20
-49.1123
 30
0.0
 10
-128.0535
 20
-50.0128
 30
0.0
 10
-124.141
 20
-52.1808
 30
0.0
 10
-121.9963
 20
-55.6129
 30
0.0
 10
-118.7746
 20
-60.7665
 30
0.0
 10
-119.6693
 20
-66.1172
 30
0.0
 10
-124.3636
 20
-69.7947
 30
0.0
 10
-126.2125
 20
-71.2438
 30
0.0
 10
-128.5912
 20
-72.2998
 30
0.0
 10
-130.9506
 20
-72.4712
 30
0.0
 10
-132.8454
 20
-72.6111
 30
0.0
 10
-134.7603
 20
-72.1721
 30
0.0
 10
-136.0638
 20
-70.7096
 30
0.0
 10
-138.2396
 20
-68.2695
 30
0.0
 10
-138.9362
 20
-65.33
 30
0.0
 10
-137.4278
 20
-62.3455
 30
0.0
 10
-136.2498
 20
-60.0139
 30
0.0
 10
-133.7525
 20
-57.9614
 30
0.0
 10
-131.1118
 20
-57.64
 30
0.0
 10
-129.9483
 20
-57.4977
 30
0.0
 10
-129.1141
 20
-56.4338
 30
0.0
 10
-129.2563
 20
-55.2725
 30
0.0
 10
-129.3975
 20
-54.1079
 30
0.0
 10
-130.4613
 20
-53.2749
 30
0.0
 10
-131.626
 20
-53.4147
 30
0.0
 10
-135.6854
 20
-53.9076
 30
0.0
 10
-139.4055
 20
-56.8191
 30
0.0
 10
-141.2275
 20
-60.4272
 30
0.0
 10
-143.5264
 20
-64.9793
 30
0.0
 10
-142.5858
 20
-69.789
 30
0.0
 10
-139.2408
 20
-73.5416
 30
0.0
 10
-137.4771
 20
-75.5227
 30
0.0
 10
-135.2037
 20
-76.4859
 30
0.0
 10
-132.7973
 20
-76.7041
 30
0.0
  0
SPLINE
  5
6A
330
1F
100
AcDbEntity
  8
Layer 1
 62
   250
370
    20
100
AcDbSpline
210
0.0
220
0.0
230
1.0
 70
    11
 71
     3
 72
   101
 73
    97
 74
     0
 42
0.0000000001
 43
0.0000000001
 40
0.0
 40
0.0
 40
0.0
 40
0.0
 40
0.03125
 40
0.03125
 40
0.03125
 40
0.0625
 40
0.0625
 40
0.0625
 40
0.09375
 40
0.09375
 40
0.09375
 40
0.125
 40
0.125
 40
0.125
 40
0.15625
 40
0.15625
 40
0.15625
 40
0.1875
 40
0.1875
 40
0.1875
 40
0.21875
 40
0.21875
 40
0.21875
 40
0.25
 40
0.25
 40
0.25
 40
0.28125
 40
0.28125
 40
0.28125
 40
0.3125
 40
0.3125
 40
0.3125
 40
0.34375
 40
0.34375
 40
0.34375
 40
0.375
 40
0.375
 40
0.375
 40
0.40625
 40
0.40625
 40
0.40625
 40
0.4375
 40
0.4375
 40
0.4375
 40
0.46875
 40
0.46875
 40
0.46875
 40
0.5
 40
0.5
 40
0.5
 40
0.53125
 40
0.53125
 40
0.53125
 40
0.5625
 40
0.5625
 40
0.5625
 40
0.59375
 40
0.59375
 40
0.59375
 40
0.625
 40
0.625
 40
0.625
 40
0.65625
 40
0.65625
 40
0.65625
 40
0.6875
 40
0.6875
 40
0.6875
 40
0.71875
 40
0.71875
 40
0.71875
 40
0.75
 40
0.75
 40
0.75
 40
0.78125
 40
0.78125
 40
0.78125
 40
0.8125
 40
0.8125
 40
0.8125
 40
0.84375
 40
0.84375
 40
0.84375
 40
0.875
 40
0.875
 40
0.875
 40
0.90625
 40
0.90625
 40
0.90625
 40
0.9375
 40
0.9375
 40
0.9375
 40
0.96875
 40
0.96875
 40
0.96875
 40
1.0
 40
1.0
 40
1.0
 40
1.0
 10
-153.3294
 20
-0.0801
 30
0.0
 10
-155.3026
 20
-1.4743
 30
0.0
 10
-156.7898
 20
-3.4452
 30
0.0
 10
-157.3284
 20
-6.0408
 30
0.0
 10
-158.3476
 20
-10.9639
 30
0.0
 10
-156.7574
 20
-15.6021
 30
0.0
 10
-152.4898
 20
-18.3939
 30
0.0
 10
-149.1088
 20
-20.6067
 30
0.0
 10
-144.4313
 20
-21.2662
 30
0.0
 10
-140.6686
 20
-19.6649
 30
0.0
 10
-139.5901
 20
-19.2046
 30
0.0
 10
-139.0853
 20
-17.9515
 30
0.0
 10
-139.5453
 20
-16.8744
 30
0.0
 10
-140.0045
 20
-15.7936
 30
0.0
 10
-141.2587
 20
-15.2898
 30
0.0
 10
-142.3372
 20
-15.7501
 30
0.0
 10
-144.784
 20
-16.7915
 30
0.0
 10
-147.9733
 20
-16.263
 30
0.0
 10
-150.1592
 20
-14.8317
 30
0.0
 10
-152.9577
 20
-13.002
 30
0.0
 10
-153.8233
 20
-10.1092
 30
0.0
 10
-153.1594
 20
-6.9065
 30
0.0
 10
-152.7629
 20
-4.9883
 30
0.0
 10
-151.3239
 20
-3.6512
 30
0.0
 10
-149.6129
 20
-2.8236
 30
0.0
 10
-147.484
 20
-1.7934
 30
0.0
 10
-144.8959
 20
-1.5202
 30
0.0
 10
-142.5689
 20
-1.8482
 30
0.0
 10
-136.6663
 20
-2.687
 30
0.0
 10
-133.215
 20
-6.8731
 30
0.0
 10
-133.4289
 20
-12.9469
 30
0.0
 10
-133.571
 20
-16.9908
 30
0.0
 10
-135.8736
 20
-20.824
 30
0.0
 10
-138.7671
 20
-23.534
 30
0.0
 10
-142.2341
 20
-26.7826
 30
0.0
 10
-146.7808
 20
-28.7403
 30
0.0
 10
-151.5334
 20
-28.9463
 30
0.0
 10
-156.3364
 20
-29.1544
 30
0.0
 10
-161.1426
 20
-28.5721
 30
0.0
 10
-165.323
 20
-26.047
 30
0.0
 10
-168.7262
 20
-23.9932
 30
0.0
 10
-171.2156
 20
-20.9717
 30
0.0
 10
-173.546
 20
-17.8106
 30
0.0
 10
-176.2819
 20
-14.105
 30
0.0
 10
-178.7545
 20
-10.3724
 30
0.0
 10
-181.9683
 20
-7.0297
 30
0.0
 10
-184.7366
 20
-4.1541
 30
0.0
 10
-187.7557
 20
-1.8628
 30
0.0
 10
-191.1545
 20
-0.0801
 30
0.0
 10
-187.7557
 20
1.7005
 30
0.0
 10
-184.7366
 20
3.9905
 30
0.0
 10
-181.9683
 20
6.8687
 30
0.0
 10
-178.7545
 20
10.208
 30
0.0
 10
-176.2819
 20
13.9416
 30
0.0
 10
-173.546
 20
17.6494
 30
0.0
 10
-171.2156
 20
20.8072
 30
0.0
 10
-168.7262
 20
23.8309
 30
0.0
 10
-165.323
 20
25.8858
 30
0.0
 10
-161.1426
 20
28.4109
 30
0.0
 10
-156.3364
 20
28.9934
 30
0.0
 10
-151.5334
 20
28.784
 30
0.0
 10
-146.7808
 20
28.5756
 30
0.0
 10
-142.2341
 20
26.6192
 30
0.0
 10
-138.7671
 20
23.3728
 30
0.0
 10
-135.8736
 20
20.6628
 30
0.0
 10
-133.571
 20
16.8285
 30
0.0
 10
-133.4289
 20
12.7825
 30
0.0
 10
-133.215
 20
6.7108
 30
0.0
 10
-136.6663
 20
2.5236
 30
0.0
 10
-142.5689
 20
1.6859
 30
0.0
 10
-144.8959
 20
1.3555
 30
0.0
 10
-147.484
 20
1.6311
 30
0.0
 10
-149.6129
 20
2.6624
 30
0.0
 10
-151.3239
 20
3.4889
 30
0.0
 10
-152.7629
 20
4.8249
 30
0.0
 10
-153.1594
 20
6.7421
 30
0.0
 10
-153.8233
 20
9.9448
 30
0.0
 10
-152.9577
 20
12.8373
 30
0.0
 10
-150.1592
 20
14.6705
 30
0.0
 10
-147.9733
 20
16.0994
 30
0.0
 10
-144.784
 20
16.6281
 30
0.0
 10
-142.3372
 20
15.5854
 30
0.0
 10
-141.2587
 20
15.1264
 30
0.0
 10
-140.0045
 20
15.6326
 30
0.0
 10
-139.5453
 20
16.7097
 30
0.0
 10
-139.0853
 20
17.7881
 30
0.0
 10
-139.5901
 20
19.0436
 30
0.0
 10
-140.6686
 20
19.5015
 30
0.0
 10
-144.4313
 20
21.1039
 30
0.0
 10
-149.1088
 20
20.4423
 30
0.0
 10
-152.4898
 20
18.2317
 30
0.0
 10
-156.7574
 20
15.4398
 30
0.0
 10
-158.3476
 20
10.8026
 30
0.0
 10
-157.3284
 20
5.8798
 30
0.0
 10
-156.7898
 20
3.2819
 30
0.0
 10
-155.3026
 20
1.3107
 30
0.0
 10
-153.3294
 20
-0.0801
 30
0.0
  0
SPLINE
  5
6B
330
1F
100
AcDbEntity
  8
Layer 1
 62
   250
370
    20
100
AcDbSpline
210
0.0
220
0.0
230
1.0
 70
    11
 71
     3
 72
   101
 73
    97
 74
     0
 42
0.0000000001
 43
0.0000000001
 40
0.0
 40
0.0
 40
0.0
 40
0.0
 40
0.03125
 40
0.03125
 40
0.03125
 40
0.0625
 40
0.0625
 40
0.0625
 40
0.09375
 40
0.09375
 40
0.09375
 40
0.125
 40
0.125
 40
0.125
 40
0.15625
 40
0.15625
 40
0.15625
 40
0.1875
 40
0.1875
 40
0.1875
 40
0.21875
 40
0.21875
 40
0.21875
 40
0.25
 40
0.25
 40
0.25
 40
0.28125
 40
0.28125
 40
0.28125
 40
0.3125
 40
0.3125
 40
0.3125
 40
0.34375
 40
0.34375
 40
0.34375
 40
0.375
 40
0.375
 40
0.375
 40
0.40625
 40
0.40625
 40
0.40625
 40
0.4375
 40
0.4375
 40
0.4375
 40
0.46875
 40
0.46875
 40
0.46875
 40
0.5
 40
0.5
 40
0.5
 40
0.53125
 40
0.53125
 40
0.53125
 40
0.5625
 40
0.5625
 40
0.5625
 40
0.59375
 40
0.59375
 40
0.59375
 40
0.625
 40
0.625
 40
0.625
 40
0.65625
 40
0.65625
 40
0.65625
 40
0.6875
 40
0.6875
 40
0.6875
 40
0.71875
 40
0.71875
 40
0.71875
 40
0.75
 40
0.75
 40
0.75
 40
0.78125
 40
0.78125
 40
0.78125
 40
0.8125
 40
0.8125
 40
0.8125
 40
0.84375
 40
0.84375
 40
0.84375
 40
0.875
 40
0.875
 40
0.875
 40
0.90625
 40
0.90625
 40
0.90625
 40
0.9375
 40
0.9375
 40
0.9375
 40
0.96875
 40
0.96875
 40
0.96875
 40
1.0
 40
1.0
 40
1.0
 40
1.0
 10
76.5417
 20
132.6336
 30
0.0
 10
76.3221
 20
135.0402
 30
0.0
 10
75.3591
 20
137.3135
 30
0.0
 10
73.3792
 20
139.0795
 30
0.0
 10
69.6255
 20
142.4233
 30
0.0
 10
64.8148
 20
143.3641
 30
0.0
 10
60.2626
 20
141.0639
 30
0.0
 10
56.6566
 20
139.2418
 30
0.0
 10
53.7449
 20
135.5229
 30
0.0
 10
53.2522
 20
131.4623
 30
0.0
 10
53.11
 20
130.2978
 30
0.0
 10
53.9445
 20
129.2339
 30
0.0
 10
55.108
 20
129.0927
 30
0.0
 10
56.2715
 20
128.9505
 30
0.0
 10
57.3352
 20
129.7859
 30
0.0
 10
57.4765
 20
130.9483
 30
0.0
 10
57.7977
 20
133.589
 30
0.0
 10
59.8504
 20
136.086
 30
0.0
 10
62.182
 20
137.2643
 30
0.0
 10
65.1674
 20
138.7726
 30
0.0
 10
68.1058
 20
138.0772
 30
0.0
 10
70.5471
 20
135.9014
 30
0.0
 10
72.0085
 20
134.5967
 30
0.0
 10
72.4474
 20
132.6817
 30
0.0
 10
72.3086
 20
130.7869
 30
0.0
 10
72.1362
 20
128.4276
 30
0.0
 10
71.0803
 20
126.049
 30
0.0
 10
69.631
 20
124.2002
 30
0.0
 10
65.9535
 20
119.5068
 30
0.0
 10
60.6029
 20
118.6122
 30
0.0
 10
55.4507
 20
121.8316
 30
0.0
 10
52.0182
 20
123.9772
 30
0.0
 10
49.849
 20
127.8912
 30
0.0
 10
48.9499
 20
131.7512
 30
0.0
 10
47.8704
 20
136.3762
 30
0.0
 10
48.4493
 20
141.2934
 30
0.0
 10
50.6463
 20
145.5118
 30
0.0
 10
52.866
 20
149.7751
 30
0.0
 10
55.7731
 20
153.6465
 30
0.0
 10
60.0519
 20
156.0048
 30
0.0
 10
63.5312
 20
157.9241
 30
0.0
 10
67.3947
 20
158.5703
 30
0.0
 10
71.2951
 20
159.0093
 30
0.0
 10
75.8732
 20
159.5244
 30
0.0
 10
80.3425
 20
159.7978
 30
0.0
 10
84.843
 20
160.9119
 30
0.0
 10
88.7188
 20
161.8694
 30
0.0
 10
92.2115
 20
163.3387
 30
0.0
 10
95.4547
 20
165.3925
 30
0.0
 10
95.298
 20
161.5581
 30
0.0
 10
95.7716
 20
157.7977
 30
0.0
 10
96.8801
 20
153.9623
 30
0.0
 10
98.1658
 20
149.5087
 30
0.0
 10
100.1626
 20
145.5007
 30
0.0
 10
102.0045
 20
141.2788
 30
0.0
 10
103.5757
 20
137.6785
 30
0.0
 10
104.9476
 20
134.0133
 30
0.0
 10
105.026
 20
130.0378
 30
0.0
 10
105.1234
 20
125.1553
 30
0.0
 10
103.2231
 20
120.7016
 30
0.0
 10
100.6417
 20
116.6478
 30
0.0
 10
98.0863
 20
112.6345
 30
0.0
 10
94.1176
 20
109.6747
 30
0.0
 10
89.5711
 20
108.2972
 30
0.0
 10
85.7781
 20
107.1472
 30
0.0
 10
81.3067
 20
107.0676
 30
0.0
 10
77.7333
 20
108.9691
 30
0.0
 10
72.3669
 20
111.8203
 30
0.0
 10
70.4666
 20
116.8999
 30
0.0
 10
72.6927
 20
122.4331
 30
0.0
 10
73.5695
 20
124.6121
 30
0.0
 10
75.1017
 20
126.7153
 30
0.0
 10
77.0579
 20
128.0456
 30
0.0
 10
78.6301
 20
129.1119
 30
0.0
 10
80.5082
 20
129.6918
 30
0.0
 10
82.3671
 20
129.076
 30
0.0
 10
85.4724
 20
128.0491
 30
0.0
 10
87.5453
 20
125.8531
 30
0.0
 10
87.7311
 20
122.5135
 30
0.0
 10
87.8768
 20
119.9066
 30
0.0
 10
86.7411
 20
116.8797
 30
0.0
 10
84.6146
 20
115.2805
 30
0.0
 10
83.6773
 20
114.5773
 30
0.0
 10
83.4868
 20
113.237
 30
0.0
 10
84.1912
 20
112.3019
 30
0.0
 10
84.8956
 20
111.3657
 30
0.0
 10
86.2339
 20
111.1751
 30
0.0
 10
87.1712
 20
111.8773
 30
0.0
 10
90.4413
 20
114.3354
 30
0.0
 10
92.2073
 20
118.7162
 30
0.0
 10
91.981
 20
122.7511
 30
0.0
 10
91.6976
 20
127.8442
 30
0.0
 10
88.4769
 20
131.5395
 30
0.0
 10
83.703
 20
133.1174
 30
0.0
 10
81.1845
 20
133.9483
 30
0.0
 10
78.7344
 20
133.6481
 30
0.0
 10
76.5417
 20
132.6336
 30
0.0
  0
SPLINE
  5
6C
330
1F
100
AcDbEntity
  8
Layer 1
 62
   250
370
    20
100
AcDbSpline
210
0.0
220
0.0
230
1.0
 70
    11
 71
     3
 72
    17
 73
    13
 74
     0
 42
0.0000000001
 43
0.0000000001
 40
0.0
 40
0.0
 40
0.0
 40
0.0
 40
0.25
 40
0.25
 40
0.25
 40
0.5
 40
0.5
 40
0.5
 40
0.75
 40
0.75
 40
0.75
 40
1.0
 40
1.0
 40
1.0
 40
1.0
 10
-0.0825
 20
124.4218
 30
0.0
 10
68.678
 20
124.4218
 30
0.0
 10
124.4205
 20
68.6806
 30
0.0
 10
124.4205
 20
-0.0801
 30
0.0
 10
124.4205
 20
-68.8418
 30
0.0
 10
68.678
 20
-124.583
 30
0.0
 10
-0.0825
 20
-124.583
 30
0.0
 10
-68.8419
 20
-124.583
 30
0.0
 10
-124.5844
 20
-68.8418
 30
0.0
 10
-124.5844
 20
-0.0801
 30
0.0
 10
-124.5844
 20
68.6806
 30
0.0
 10
-68.8419
 20
124.4218
 30
0.0
 10
-0.0825
 20
124.4218
 30
0.0
  0
SPLINE
  5
6D
330
1F
100
AcDbEntity
  8
Layer 1
 62
   250
370
    20
100
AcDbSpline
210
0.0
220
0.0
230
1.0
 70
    11
 71
     3
 72
    17
 73
    13
 74
     0
 42
0.0000000001
 43
0.0000000001
 40
0.0
 40
0.0
 40
0.0
 40
0.0
 40
0.25
 40
0.25
 40
0.25
 40
0.5
 40
0.5
 40
0.5
 40
0.75
 40
0.75
 40
0.75
 40
1.0
 40
1.0
 40
1.0
 40
1.0
 10
9.5145
 20
75.4725
 30
0.0
 10
9.5145
 20
81.2183
 30
0.0
 10
14.1731
 20
85.8768
 30
0.0
 10
19.919
 20
85.8768
 30
0.0
 10
25.6649
 20
85.8768
 30
0.0
 10
30.3223
 20
81.2183
 30
0.0
 10
30.3223
 20
75.4725
 30
0.0
 10
30.3223
 20
69.7253
 30
0.0
 10
25.6649
 20
65.0691
 30
0.0
 10
19.919
 20
65.0691
 30
0.0
 10
14.1731
 20
65.0691
 30
0.0
 10
9.5135
 20
69.7253
 30
0.0
 10
9.5145
 20
75.4725
 30
0.0
  0
SPLINE
  5
6E
330
1F
100
AcDbEntity
  8
Layer 1
 62
   250
370
    20
100
AcDbSpline
210
0.0
220
0.0
230
1.0
 70
    11
 71
     3
 72
    50
 73
    46
 74
     0
 42
0.0000000001
 43
0.0000000001
 40
0.0
 40
0.0
 40
0.0
 40
0.0
 40
0.0666666666666667
 40
0.0666666666666667
 40
0.0666666666666667
 40
0.1333333333333333
 40
0.1333333333333333
 40
0.1333333333333333
 40
0.2
 40
0.2
 40
0.2
 40
0.2666666666666667
 40
0.2666666666666667
 40
0.2666666666666667
 40
0.3333333333333333
 40
0.3333333333333333
 40
0.3333333333333333
 40
0.4
 40
0.4
 40
0.4
 40
0.4666666666666667
 40
0.4666666666666667
 40
0.4666666666666667
 40
0.5333333333333333
 40
0.5333333333333333
 40
0.5333333333333333
 40
0.6
 40
0.6
 40
0.6
 40
0.6666666666666666
 40
0.6666666666666666
 40
0.6666666666666666
 40
0.7333333333333333
 40
0.7333333333333333
 40
0.7333333333333333
 40
0.8
 40
0.8
 40
0.8
 40
0.8666666666666667
 40
0.8666666666666667
 40
0.8666666666666667
 40
0.9333333333333333
 40
0.9333333333333333
 40
0.9333333333333333
 40
1.0
 40
1.0
 40
1.0
 40
1.0
 10
56.632
 20
49.126
 30
0.0
 10
53.4515
 20
46.9064
 30
0.0
 10
50.1191
 20
45.0104
 30
0.0
 10
46.6609
 20
43.2624
 30
0.0
 10
42.691
 20
41.2534
 30
0.0
 10
38.7111
 20
39.8378
 30
0.0
 10
34.318
 20
39.0987
 30
0.0
 10
14.4922
 20
35.7594
 30
0.0
 10
-1.6423
 20
42.0911
 30
0.0
 10
-8.4084
 20
61.5361
 30
0.0
 10
-10.0525
 20
66.2618
 30
0.0
 10
-10.964
 20
71.3144
 30
0.0
 10
-10.964
 20
76.3201
 30
0.0
 10
-10.964
 20
76.6673
 30
0.0
 10
-10.7814
 20
76.9674
 30
0.0
 10
-10.4701
 20
77.1243
 30
0.0
 10
-10.161
 20
77.2809
 30
0.0
 10
-9.8127
 20
77.253
 30
0.0
 10
-9.5317
 20
77.0468
 30
0.0
 10
-8.5015
 20
76.2921
 30
0.0
 10
-7.181
 20
73.666
 30
0.0
 10
-6.5305
 20
72.4982
 30
0.0
 10
-0.8686
 20
62.3211
 30
0.0
 10
9.5907
 20
55.5281
 30
0.0
 10
21.143
 20
54.2704
 30
0.0
 10
32.4546
 20
53.0408
 30
0.0
 10
43.3406
 20
57.3187
 30
0.0
 10
49.7852
 20
66.9426
 30
0.0
 10
50.0619
 20
67.3535
 30
0.0
 10
50.623
 20
67.4666
 30
0.0
 10
51.0349
 20
67.1901
 30
0.0
 10
53.0731
 20
65.825
 30
0.0
 10
54.1314
 20
64.0544
 30
0.0
 10
55.6488
 20
62.1966
 30
0.0
 10
55.6588
 20
62.1842
 30
0.0
 10
55.6666
 20
62.1721
 30
0.0
 10
55.6757
 20
62.1597
 30
0.0
 10
57.7317
 20
59.3692
 30
0.0
 10
59.7933
 20
56.5841
 30
0.0
 10
61.8481
 20
53.7945
 30
0.0
 10
62.0084
 20
53.5761
 30
0.0
 10
62.061
 20
53.3218
 30
0.0
 10
62.0017
 20
53.0575
 30
0.0
 10
61.8998
 20
52.6175
 30
0.0
 10
57.4024
 20
49.6634
 30
0.0
 10
56.632
 20
49.126
 30
0.0
  0
SPLINE
  5
6F
330
1F
100
AcDbEntity
  8
Layer 1
 62
   250
370
    20
100
AcDbSpline
210
0.0
220
0.0
230
1.0
 70
    11
 71
     3
 72
   203
 73
   199
 74
     0
 42
0.0000000001
 43
0.0000000001
 40
0.0
 40
0.0
 40
0.0
 40
0.0
 40
0.0151515151515152
 40
0.0151515151515152
 40
0.0151515151515152
 40
0.0303030303030303
 40
0.0303030303030303
 40
0.0303030303030303
 40
0.0454545454545455
 40
0.0454545454545455
 40
0.0454545454545455
 40
0.0606060606060606
 40
0.0606060606060606
 40
0.0606060606060606
 40
0.0757575757575758
 40
0.0757575757575758
 40
0.0757575757575758
 40
0.0909090909090909
 40
0.0909090909090909
 40
0.0909090909090909
 40
0.1060606060606061
 40
0.1060606060606061
 40
0.1060606060606061
 40
0.1212121212121212
 40
0.1212121212121212
 40
0.1212121212121212
 40
0.1363636363636364
 40
0.1363636363636364
 40
0.1363636363636364
 40
0.1515151515151515
 40
0.1515151515151515
 40
0.1515151515151515
 40
0.1666666666666667
 40
0.1666666666666667
 40
0.1666666666666667
 40
0.1818181818181818
 40
0.1818181818181818
 40
0.1818181818181818
 40
0.196969696969697
 40
0.196969696969697
 40
0.196969696969697
 40
0.2121212121212121
 40
0.2121212121212121
 40
0.2121212121212121
 40
0.2272727272727273
 40
0.2272727272727273
 40
0.2272727272727273
 40
0.2424242424242424
 40
0.2424242424242424
 40
0.2424242424242424
 40
0.2575757575757576
 40
0.2575757575757576
 40
0.2575757575757576
 40
0.2727272727272727
 40
0.2727272727272727
 40
0.2727272727272727
 40
0.2878787878787879
 40
0.2878787878787879
 40
0.2878787878787879
 40
0.303030303030303
 40
0.303030303030303
 40
0.303030303030303
 40
0.3181818181818182
 40
0.3181818181818182
 40
0.3181818181818182
 40
0.3333333333333334
 40
0.3333333333333334
 40
0.3333333333333334
 40
0.3484848484848485
 40
0.3484848484848485
 40
0.3484848484848485
 40
0.3636363636363636
 40
0.3636363636363636
 40
0.3636363636363636
 40
0.3787878787878788
 40
0.3787878787878788
 40
0.3787878787878788
 40
0.3939393939393939
 40
0.3939393939393939
 40
0.3939393939393939
 40
0.4090909090909091
 40
0.4090909090909091
 40
0.4090909090909091
 40
0.4242424242424243
 40
0.4242424242424243
 40
0.4242424242424243
 40
0.4393939393939394
 40
0.4393939393939394
 40
0.4393939393939394
 40
0.4545454545454546
 40
0.4545454545454546
 40
0.4545454545454546
 40
0.4696969696969697
 40
0.4696969696969697
 40
0.4696969696969697
 40
0.4848484848484849
 40
0.4848484848484849
 40
0.4848484848484849
 40
0.5
 40
0.5
 40
0.5
 40
0.5151515151515151
 40
0.5151515151515151
 40
0.5151515151515151
 40
0.5303030303030303
 40
0.5303030303030303
 40
0.5303030303030303
 40
0.5454545454545454
 40
0.5454545454545454
 40
0.5454545454545454
 40
0.5606060606060607
 40
0.5606060606060607
 40
0.5606060606060607
 40
0.5757575757575758
 40
0.5757575757575758
 40
0.5757575757575758
 40
0.5909090909090909
 40
0.5909090909090909
 40
0.5909090909090909
 40
0.6060606060606061
 40
0.6060606060606061
 40
0.6060606060606061
 40
0.6212121212121212
 40
0.6212121212121212
 40
0.6212121212121212
 40
0.6363636363636364
 40
0.6363636363636364
 40
0.6363636363636364
 40
0.6515151515151515
 40
0.6515151515151515
 40
0.6515151515151515
 40
0.6666666666666667
 40
0.6666666666666667
 40
0.6666666666666667
 40
0.6818181818181819
 40
0.6818181818181819
 40
0.6818181818181819
 40
0.696969696969697
 40
0.696969696969697
 40
0.696969696969697
 40
0.7121212121212122
 40
0.7121212121212122
 40
0.7121212121212122
 40
0.7272727272727273
 40
0.7272727272727273
 40
0.7272727272727273
 40
0.7424242424242424
 40
0.7424242424242424
 40
0.7424242424242424
 40
0.7575757575757576
 40
0.7575757575757576
 40
0.7575757575757576
 40
0.7727272727272727
 40
0.7727272727272727
 40
0.7727272727272727
 40
0.7878787878787878
 40
0.7878787878787878
 40
0.7878787878787878
 40
0.8030303030303031
 40
0.8030303030303031
 40
0.8030303030303031
 40
0.8181818181818182
 40
0.8181818181818182
 40
0.8181818181818182
 40
0.8333333333333334
 40
0.8333333333333334
 40
0.8333333333333334
 40
0.8484848484848485
 40
0.8484848484848485
 40
0.8484848484848485
 40
0.8636363636363636
 40
0.8636363636363636
 40
0.8636363636363636
 40
0.8787878787878788
 40
0.8787878787878788
 40
0.8787878787878788
 40
0.8939393939393939
 40
0.8939393939393939
 40
0.8939393939393939
 40
0.9090909090909092
 40
0.9090909090909092
 40
0.9090909090909092
 40
0.9242424242424243
 40
0.9242424242424243
 40
0.9242424242424243
 40
0.9393939393939394
 40
0.9393939393939394
 40
0.9393939393939394
 40
0.9545454545454546
 40
0.9545454545454546
 40
0.9545454545454546
 40
0.9696969696969697
 40
0.9696969696969697
 40
0.9696969696969697
 40
0.9848484848484849
 40
0.9848484848484849
 40
0.9848484848484849
 40
1.0
 40
1.0
 40
1.0
 40
1.0
 10
-31.709
 20
22.5743
 30
0.0
 10
-36.2712
 20
20.3637
 30
0.0
 10
-40.8312
 20
18.1455
 30
0.0
 10
-45.3936
 20
15.9349
 30
0.0
 10
-47.1103
 20
14.8811
 30
0.0
 10
-48.3655
 20
13.797
 30
0.0
 10
-50.5201
 20
13.6169
 30
0.0
 10
-51.4172
 20
13.5418
 30
0.0
 10
-52.2202
 20
14.1263
 30
0.0
 10
-52.424
 20
15.002
 30
0.0
 10
-53.191
 20
18.2943
 30
0.0
 10
-55.2404
 20
21.2967
 30
0.0
 10
-56.6502
 20
24.3438
 30
0.0
 10
-57.3703
 20
25.8969
 30
0.0
 10
-58.0523
 20
27.4839
 30
0.0
 10
-58.7498
 20
29.0482
 30
0.0
 10
-59.4463
 20
30.6083
 30
0.0
 10
-60.144
 20
32.1691
 30
0.0
 10
-60.8373
 20
33.7281
 30
0.0
 10
-61.1071
 20
34.336
 30
0.0
 10
-61.0366
 20
34.9901
 30
0.0
 10
-60.6458
 20
35.5243
 30
0.0
 10
-58.9403
 20
37.8524
 30
0.0
 10
-51.9087
 20
41.4303
 30
0.0
 10
-49.1182
 20
42.7752
 30
0.0
 10
-42.3643
 20
46.0272
 30
0.0
 10
-34.0799
 20
47.912
 30
0.0
 10
-26.5756
 20
48.1819
 30
0.0
 10
-19.543
 20
48.4371
 30
0.0
 10
-11.1812
 20
47.3095
 30
0.0
 10
-5.731
 20
42.4493
 30
0.0
 10
-2.3176
 20
39.4056
 30
0.0
 10
0.118
 20
35.2107
 30
0.0
 10
1.4742
 20
30.8725
 30
0.0
 10
3.1113
 20
25.6304
 30
0.0
 10
3.2402
 20
20.0614
 30
0.0
 10
2.0028
 20
14.7188
 30
0.0
 10
0.6812
 20
9.0242
 30
0.0
 10
-2.3086
 20
4.1036
 30
0.0
 10
-6.3771
 20
-0.0409
 30
0.0
 10
-7.788
 20
-1.4776
 30
0.0
 10
-9.3009
 20
-2.7901
 30
0.0
 10
-10.889
 20
-4.0264
 30
0.0
 10
-10.9235
 20
-4.051
 30
0.0
 10
-10.9574
 20
-4.0778
 30
0.0
 10
-10.9909
 20
-4.1037
 30
0.0
 10
-9.6124
 20
-4.8182
 30
0.0
 10
-8.3179
 20
-5.6758
 30
0.0
 10
-6.8934
 20
-6.4306
 30
0.0
 10
-4.6066
 20
-7.6424
 30
0.0
 10
-2.6591
 20
-8.0846
 30
0.0
 10
-0.1116
 20
-7.3546
 30
0.0
 10
4.3756
 20
-6.0689
 30
0.0
 10
6.64
 20
-1.892
 30
0.0
 10
8.7644
 20
1.9054
 30
0.0
 10
11.2033
 20
6.2662
 30
0.0
 10
12.9515
 20
10.966
 30
0.0
 10
15.3378
 20
15.357
 30
0.0
 10
19.0153
 20
22.1197
 30
0.0
 10
26.0357
 20
27.0549
 30
0.0
 10
33.3862
 20
29.0504
 30
0.0
 10
42.2364
 20
31.457
 30
0.0
 10
51.1659
 20
29.6732
 30
0.0
 10
58.4942
 20
24.1702
 30
0.0
 10
70.3333
 20
15.2808
 30
0.0
 10
75.5551
 20
-1.5
 30
0.0
 10
75.957
 20
-15.7522
 30
0.0
 10
76.0166
 20
-17.6929
 30
0.0
 10
75.9582
 20
-19.7243
 30
0.0
 10
75.9582
 20
-21.6762
 30
0.0
 10
75.9582
 20
-32.5801
 30
0.0
 10
72.0736
 20
-45.1918
 30
0.0
 10
65.3477
 20
-53.8258
 30
0.0
 10
62.4956
 20
-57.4888
 30
0.0
 10
57.6813
 20
-61.4284
 30
0.0
 10
53.3722
 20
-63.1977
 30
0.0
 10
47.708
 20
-65.526
 30
0.0
 10
41.5163
 20
-66.4811
 30
0.0
 10
35.5665
 20
-64.6222
 30
0.0
 10
30.5655
 20
-63.0611
 30
0.0
 10
26.0357
 20
-60.3108
 30
0.0
 10
22.357
 20
-56.5807
 30
0.0
 10
17.6939
 20
-51.8536
 30
0.0
 10
15.5326
 20
-46.1112
 30
0.0
 10
14.8082
 20
-39.606
 30
0.0
 10
14.4922
 20
-36.7594
 30
0.0
 10
14.4598
 20
-33.8925
 30
0.0
 10
14.517
 20
-31.0314
 30
0.0
 10
14.5696
 20
-28.4703
 30
0.0
 10
14.7063
 20
-28.0671
 30
0.0
 10
14.7063
 20
-25.5071
 30
0.0
 10
14.7063
 20
-24.514
 30
0.0
 10
15.5135
 20
-23.7041
 30
0.0
 10
16.5058
 20
-23.7041
 30
0.0
 10
16.8407
 20
-23.7041
 30
0.0
 10
17.1743
 20
-23.7041
 30
0.0
 10
17.5082
 20
-23.7041
 30
0.0
 10
18.5002
 20
-23.7041
 30
0.0
 10
19.3099
 20
-24.514
 30
0.0
 10
19.3099
 20
-25.5071
 30
0.0
 10
21.4062
 20
-41.6172
 30
0.0
 10
38.5925
 20
-41.213
 30
0.0
 10
49.9567
 20
-35.4502
 30
0.0
 10
55.5021
 20
-32.6394
 30
0.0
 10
59.7406
 20
-27.9966
 30
0.0
 10
61.604
 20
-22.0032
 30
0.0
 10
63.5705
 20
-15.6761
 30
0.0
 10
63.5258
 20
-4.0734
 30
0.0
 10
61.8012
 20
2.3187
 30
0.0
 10
60.1471
 20
8.4454
 30
0.0
 10
56.4663
 20
14.2372
 30
0.0
 10
49.1851
 20
12.8877
 30
0.0
 10
42.419
 20
11.6301
 30
0.0
 10
39.2609
 20
7.0242
 30
0.0
 10
36.2576
 20
1.3366
 30
0.0
 10
27.9505
 20
-14.3882
 30
0.0
 10
21.4007
 20
-18.4712
 30
0.0
 10
3.9198
 20
-18.4733
 30
0.0
 10
4.3275
 20
-19.0837
 30
0.0
 10
4.734
 20
-19.6862
 30
0.0
 10
5.0778
 20
-20.3481
 30
0.0
 10
7.7318
 20
-25.4612
 30
0.0
 10
9.6086
 20
-30.8521
 30
0.0
 10
10.2089
 20
-36.6036
 30
0.0
 10
11.2738
 20
-46.7953
 30
0.0
 10
8.9492
 20
-56.8987
 30
0.0
 10
1.7799
 20
-64.4856
 30
0.0
 10
-13.6616
 20
-80.8264
 30
0.0
 10
-40.2904
 20
-76.9237
 30
0.0
 10
-56.0836
 20
-62.9995
 30
0.0
 10
-69.2462
 20
-51.3934
 30
0.0
 10
-77.2273
 20
-31.2049
 30
0.0
 10
-76.029
 20
-13.6167
 30
0.0
 10
-75.9159
 20
-11.9314
 30
0.0
 10
-75.9047
 20
-6.574
 30
0.0
 10
-75.0502
 20
-3.3556
 30
0.0
 10
-73.9351
 20
0.8405
 30
0.0
 10
-70.4264
 20
-0.8057
 30
0.0
 10
-70.4264
 20
-2.6354
 30
0.0
 10
-70.4264
 20
-5.3881
 30
0.0
 10
-69.4982
 20
-9.1004
 30
0.0
 10
-68.8273
 20
-11.7891
 30
0.0
 10
-68.0803
 20
-14.7812
 30
0.0
 10
-67.2249
 20
-17.8778
 30
0.0
 10
-66.2126
 20
-20.7916
 30
0.0
 10
-60.255
 20
-37.9353
 30
0.0
 10
-50.7799
 20
-50.4998
 30
0.0
 10
-31.1123
 20
-50.4796
 30
0.0
 10
-17.8287
 20
-50.4663
 30
0.0
 10
-9.5988
 20
-46.1863
 30
0.0
 10
-7.5092
 20
-32.2375
 30
0.0
 10
-7.2025
 20
-30.1915
 30
0.0
 10
-8.0333
 20
-25.8756
 30
0.0
 10
-9.0983
 20
-24.1298
 30
0.0
 10
-11.4467
 20
-20.2774
 30
0.0
 10
-15.665
 20
-18.6828
 30
0.0
 10
-19.9855
 20
-18.3367
 30
0.0
 10
-23.7101
 20
-18.0355
 30
0.0
 10
-28.4471
 20
-18.6717
 30
0.0
 10
-31.8445
 20
-20.3022
 30
0.0
 10
-32.7382
 20
-20.7311
 30
0.0
 10
-33.8177
 20
-20.3503
 30
0.0
 10
-34.2466
 20
-19.4567
 30
0.0
 10
-35.195
 20
-17.4802
 30
0.0
 10
-35.8894
 20
-15.265
 30
0.0
 10
-36.5176
 20
-13.1688
 30
0.0
 10
-37.157
 20
-11.0322
 30
0.0
 10
-37.735
 20
-8.8731
 30
0.0
 10
-38.4091
 20
-6.7497
 30
0.0
 10
-39.0742
 20
-4.6511
 30
0.0
 10
-39.8996
 20
-2.5628
 30
0.0
 10
-40.6219
 20
-0.4764
 30
0.0
 10
-41.035
 20
0.7206
 30
0.0
 10
-41.4394
 20
1.9313
 30
0.0
 10
-41.7875
 20
3.1496
 30
0.0
 10
-42.0676
 20
4.1306
 30
0.0
 10
-42.3531
 20
5.2236
 30
0.0
 10
-42.4384
 20
6.2392
 30
0.0
 10
-42.4876
 20
6.8306
 30
0.0
 10
-42.2702
 20
7.3624
 30
0.0
 10
-41.8211
 20
7.7498
 30
0.0
 10
-41.371
 20
8.1396
 30
0.0
 10
-40.8133
 20
8.2762
 30
0.0
 10
-40.2344
 20
8.1418
 30
0.0
 10
-31.6419
 20
6.1385
 30
0.0
 10
-26.6663
 20
4.9056
 30
0.0
 10
-17.963
 20
7.8866
 30
0.0
 10
-15.2183
 20
8.8261
 30
0.0
 10
-12.4107
 20
10.5416
 30
0.0
 10
-11.2114
 20
13.3089
 30
0.0
 10
-10.3065
 20
15.395
 30
0.0
 10
-10.5394
 20
17.6561
 30
0.0
 10
-11.7244
 20
19.5811
 30
0.0
 10
-13.2149
 20
22.0034
 30
0.0
 10
-15.8622
 20
23.43
 30
0.0
 10
-18.5733
 20
24.0426
 30
0.0
 10
-22.8947
 20
25.0179
 30
0.0
 10
-27.625
 20
24.0974
 30
0.0
 10
-31.709
 20
22.5743
 30
0.0
  0
SPLINE
  5
70
330
1F
100
AcDbEntity
  8
Layer 1
 62
   250
370
    20
100
AcDbSpline
210
0.0
220
0.0
230
1.0
 70
    11
 71
     3
 72
   617
 73
   613
 74
     0
 42
0.0000000001
 43
0.0000000001
 40
0.0
 40
0.0
 40
0.0
 40
0.0
 40
0.0049019607843137
 40
0.0049019607843137
 40
0.0049019607843137
 40
0.0098039215686275
 40
0.0098039215686275
 40
0.0098039215686275
 40
0.0147058823529412
 40
0.0147058823529412
 40
0.0147058823529412
 40
0.0196078431372549
 40
0.0196078431372549
 40
0.0196078431372549
 40
0.0245098039215686
 40
0.0245098039215686
 40
0.0245098039215686
 40
0.0294117647058824
 40
0.0294117647058824
 40
0.0294117647058824
 40
0.0343137254901961
 40
0.0343137254901961
 40
0.0343137254901961
 40
0.0392156862745098
 40
0.0392156862745098
 40
0.0392156862745098
 40
0.0441176470588235
 40
0.0441176470588235
 40
0.0441176470588235
 40
0.0490196078431373
 40
0.0490196078431373
 40
0.0490196078431373
 40
0.053921568627451
 40
0.053921568627451
 40
0.053921568627451
 40
0.0588235294117647
 40
0.0588235294117647
 40
0.0588235294117647
 40
0.0637254901960784
 40
0.0637254901960784
 40
0.0637254901960784
 40
0.0686274509803922
 40
0.0686274509803922
 40
0.0686274509803922
 40
0.0735294117647059
 40
0.0735294117647059
 40
0.0735294117647059
 40
0.0784313725490196
 40
0.0784313725490196
 40
0.0784313725490196
 40
0.0833333333333333
 40
0.0833333333333333
 40
0.0833333333333333
 40
0.0882352941176471
 40
0.0882352941176471
 40
0.0882352941176471
 40
0.0931372549019608
 40
0.0931372549019608
 40
0.0931372549019608
 40
0.0980392156862745
 40
0.0980392156862745
 40
0.0980392156862745
 40
0.1029411764705882
 40
0.1029411764705882
 40
0.1029411764705882
 40
0.107843137254902
 40
0.107843137254902
 40
0.107843137254902
 40
0.1127450980392157
 40
0.1127450980392157
 40
0.1127450980392157
 40
0.1176470588235294
 40
0.1176470588235294
 40
0.1176470588235294
 40
0.1225490196078431
 40
0.1225490196078431
 40
0.1225490196078431
 40
0.1274509803921569
 40
0.1274509803921569
 40
0.1274509803921569
 40
0.1323529411764706
 40
0.1323529411764706
 40
0.1323529411764706
 40
0.1372549019607843
 40
0.1372549019607843
 40
0.1372549019607843
 40
0.142156862745098
 40
0.142156862745098
 40
0.142156862745098
 40
0.1470588235294118
 40
0.1470588235294118
 40
0.1470588235294118
 40
0.1519607843137255
 40
0.1519607843137255
 40
0.1519607843137255
 40
0.1568627450980392
 40
0.1568627450980392
 40
0.1568627450980392
 40
0.1617647058823529
 40
0.1617647058823529
 40
0.1617647058823529
 40
0.1666666666666667
 40
0.1666666666666667
 40
0.1666666666666667
 40
0.1715686274509804
 40
0.1715686274509804
 40
0.1715686274509804
 40
0.1764705882352941
 40
0.1764705882352941
 40
0.1764705882352941
 40
0.1813725490196078
 40
0.1813725490196078
 40
0.1813725490196078
 40
0.1862745098039216
 40
0.1862745098039216
 40
0.1862745098039216
 40
0.1911764705882353
 40
0.1911764705882353
 40
0.1911764705882353
 40
0.196078431372549
 40
0.196078431372549
 40
0.196078431372549
 40
0.2009803921568628
 40
0.2009803921568628
 40
0.2009803921568628
 40
0.2058823529411765
 40
0.2058823529411765
 40
0.2058823529411765
 40
0.2107843137254902
 40
0.2107843137254902
 40
0.2107843137254902
 40
0.2156862745098039
 40
0.2156862745098039
 40
0.2156862745098039
 40
0.2205882352941176
 40
0.2205882352941176
 40
0.2205882352941176
 40
0.2254901960784314
 40
0.2254901960784314
 40
0.2254901960784314
 40
0.2303921568627451
 40
0.2303921568627451
 40
0.2303921568627451
 40
0.2352941176470588
 40
0.2352941176470588
 40
0.2352941176470588
 40
0.2401960784313726
 40
0.2401960784313726
 40
0.2401960784313726
 40
0.2450980392156863
 40
0.2450980392156863
 40
0.2450980392156863
 40
0.25
 40
0.25
 40
0.25
 40
0.2549019607843137
 40
0.2549019607843137
 40
0.2549019607843137
 40
0.2598039215686275
 40
0.2598039215686275
 40
0.2598039215686275
 40
0.2647058823529412
 40
0.2647058823529412
 40
0.2647058823529412
 40
0.2696078431372549
 40
0.2696078431372549
 40
0.2696078431372549
 40
0.2745098039215687
 40
0.2745098039215687
 40
0.2745098039215687
 40
0.2794117647058824
 40
0.2794117647058824
 40
0.2794117647058824
 40
0.2843137254901961
 40
0.2843137254901961
 40
0.2843137254901961
 40
0.2892156862745098
 40
0.2892156862745098
 40
0.2892156862745098
 40
0.2941176470588235
 40
0.2941176470588235
 40
0.2941176470588235
 40
0.2990196078431372
 40
0.2990196078431372
 40
0.2990196078431372
 40
0.303921568627451
 40
0.303921568627451
 40
0.303921568627451
 40
0.3088235294117647
 40
0.3088235294117647
 40
0.3088235294117647
 40
0.3137254901960784
 40
0.3137254901960784
 40
0.3137254901960784
 40
0.3186274509803921
 40
0.3186274509803921
 40
0.3186274509803921
 40
0.3235294117647059
 40
0.3235294117647059
 40
0.3235294117647059
 40
0.3284313725490196
 40
0.3284313725490196
 40
0.3284313725490196
 40
0.3333333333333333
 40
0.3333333333333333
 40
0.3333333333333333
 40
0.3382352941176471
 40
0.3382352941176471
 40
0.3382352941176471
 40
0.3431372549019608
 40
0.3431372549019608
 40
0.3431372549019608
 40
0.3480392156862745
 40
0.3480392156862745
 40
0.3480392156862745
 40
0.3529411764705882
 40
0.3529411764705882
 40
0.3529411764705882
 40
0.357843137254902
 40
0.357843137254902
 40
0.357843137254902
 40
0.3627450980392157
 40
0.3627450980392157
 40
0.3627450980392157
 40
0.3676470588235294
 40
0.3676470588235294
 40
0.3676470588235294
 40
0.3725490196078431
 40
0.3725490196078431
 40
0.3725490196078431
 40
0.3774509803921569
 40
0.3774509803921569
 40
0.3774509803921569
 40
0.3823529411764706
 40
0.3823529411764706
 40
0.3823529411764706
 40
0.3872549019607843
 40
0.3872549019607843
 40
0.3872549019607843
 40
0.392156862745098
 40
0.392156862745098
 40
0.392156862745098
 40
0.3970588235294117
 40
0.3970588235294117
 40
0.3970588235294117
 40
0.4019607843137255
 40
0.4019607843137255
 40
0.4019607843137255
 40
0.4068627450980392
 40
0.4068627450980392
 40
0.4068627450980392
 40
0.4117647058823529
 40
0.4117647058823529
 40
0.4117647058823529
 40
0.4166666666666667
 40
0.4166666666666667
 40
0.4166666666666667
 40
0.4215686274509804
 40
0.4215686274509804
 40
0.4215686274509804
 40
0.4264705882352941
 40
0.4264705882352941
 40
0.4264705882352941
 40
0.4313725490196079
 40
0.4313725490196079
 40
0.4313725490196079
 40
0.4362745098039216
 40
0.4362745098039216
 40
0.4362745098039216
 40
0.4411764705882353
 40
0.4411764705882353
 40
0.4411764705882353
 40
0.446078431372549
 40
0.446078431372549
 40
0.446078431372549
 40
0.4509803921568628
 40
0.4509803921568628
 40
0.4509803921568628
 40
0.4558823529411765
 40
0.4558823529411765
 40
0.4558823529411765
 40
0.4607843137254902
 40
0.4607843137254902
 40
0.4607843137254902
 40
0.4656862745098039
 40
0.4656862745098039
 40
0.4656862745098039
 40
0.4705882352941176
 40
0.4705882352941176
 40
0.4705882352941176
 40
0.4754901960784313
 40
0.4754901960784313
 40
0.4754901960784313
 40
0.4803921568627451
 40
0.4803921568627451
 40
0.4803921568627451
 40
0.4852941176470588
 40
0.4852941176470588
 40
0.4852941176470588
 40
0.4901960784313725
 40
0.4901960784313725
 40
0.4901960784313725
 40
0.4950980392156863
 40
0.4950980392156863
 40
0.4950980392156863
 40
0.5
 40
0.5
 40
0.5
 40
0.5049019607843137
 40
0.5049019607843137
 40
0.5049019607843137
 40
0.5098039215686274
 40
0.5098039215686274
 40
0.5098039215686274
 40
0.5147058823529411
 40
0.5147058823529411
 40
0.5147058823529411
 40
0.5196078431372549
 40
0.5196078431372549
 40
0.5196078431372549
 40
0.5245098039215687
 40
0.5245098039215687
 40
0.5245098039215687
 40
0.5294117647058824
 40
0.5294117647058824
 40
0.5294117647058824
 40
0.5343137254901961
 40
0.5343137254901961
 40
0.5343137254901961
 40
0.5392156862745098
 40
0.5392156862745098
 40
0.5392156862745098
 40
0.5441176470588235
 40
0.5441176470588235
 40
0.5441176470588235
 40
0.5490196078431373
 40
0.5490196078431373
 40
0.5490196078431373
 40
0.553921568627451
 40
0.553921568627451
 40
0.553921568627451
 40
0.5588235294117647
 40
0.5588235294117647
 40
0.5588235294117647
 40
0.5637254901960784
 40
0.5637254901960784
 40
0.5637254901960784
 40
0.5686274509803921
 40
0.5686274509803921
 40
0.5686274509803921
 40
0.5735294117647058
 40
0.5735294117647058
 40
0.5735294117647058
 40
0.5784313725490196
 40
0.5784313725490196
 40
0.5784313725490196
 40
0.5833333333333334
 40
0.5833333333333334
 40
0.5833333333333334
 40
0.5882352941176471
 40
0.5882352941176471
 40
0.5882352941176471
 40
0.5931372549019608
 40
0.5931372549019608
 40
0.5931372549019608
 40
0.5980392156862745
 40
0.5980392156862745
 40
0.5980392156862745
 40
0.6029411764705882
 40
0.6029411764705882
 40
0.6029411764705882
 40
0.6078431372549019
 40
0.6078431372549019
 40
0.6078431372549019
 40
0.6127450980392157
 40
0.6127450980392157
 40
0.6127450980392157
 40
0.6176470588235294
 40
0.6176470588235294
 40
0.6176470588235294
 40
0.6225490196078431
 40
0.6225490196078431
 40
0.6225490196078431
 40
0.6274509803921569
 40
0.6274509803921569
 40
0.6274509803921569
 40
0.6323529411764706
 40
0.6323529411764706
 40
0.6323529411764706
 40
0.6372549019607843
 40
0.6372549019607843
 40
0.6372549019607843
 40
0.642156862745098
 40
0.642156862745098
 40
0.642156862745098
 40
0.6470588235294118
 40
0.6470588235294118
 40
0.6470588235294118
 40
0.6519607843137255
 40
0.6519607843137255
 40
0.6519607843137255
 40
0.6568627450980392
 40
0.6568627450980392
 40
0.6568627450980392
 40
0.6617647058823529
 40
0.6617647058823529
 40
0.6617647058823529
 40
0.6666666666666666
 40
0.6666666666666666
 40
0.6666666666666666
 40
0.6715686274509803
 40
0.6715686274509803
 40
0.6715686274509803
 40
0.6764705882352942
 40
0.6764705882352942
 40
0.6764705882352942
 40
0.6813725490196079
 40
0.6813725490196079
 40
0.6813725490196079
 40
0.6862745098039216
 40
0.6862745098039216
 40
0.6862745098039216
 40
0.6911764705882353
 40
0.6911764705882353
 40
0.6911764705882353
 40
0.696078431372549
 40
0.696078431372549
 40
0.696078431372549
 40
0.7009803921568627
 40
0.7009803921568627
 40
0.7009803921568627
 40
0.7058823529411764
 40
0.7058823529411764
 40
0.7058823529411764
 40
0.7107843137254902
 40
0.7107843137254902
 40
0.7107843137254902
 40
0.7156862745098039
 40
0.7156862745098039
 40
0.7156862745098039
 40
0.7205882352941176
 40
0.7205882352941176
 40
0.7205882352941176
 40
0.7254901960784313
 40
0.7254901960784313
 40
0.7254901960784313
 40
0.7303921568627451
 40
0.7303921568627451
 40
0.7303921568627451
 40
0.7352941176470588
 40
0.7352941176470588
 40
0.7352941176470588
 40
0.7401960784313726
 40
0.7401960784313726
 40
0.7401960784313726
 40
0.7450980392156863
 40
0.7450980392156863
 40
0.7450980392156863
 40
0.75
 40
0.75
 40
0.75
 40
0.7549019607843137
 40
0.7549019607843137
 40
0.7549019607843137
 40
0.7598039215686274
 40
0.7598039215686274
 40
0.7598039215686274
 40
0.7647058823529411
 40
0.7647058823529411
 40
0.7647058823529411
 40
0.7696078431372549
 40
0.7696078431372549
 40
0.7696078431372549
 40
0.7745098039215687
 40
0.7745098039215687
 40
0.7745098039215687
 40
0.7794117647058824
 40
0.7794117647058824
 40
0.7794117647058824
 40
0.7843137254901961
 40
0.7843137254901961
 40
0.7843137254901961
 40
0.7892156862745098
 40
0.7892156862745098
 40
0.7892156862745098
 40
0.7941176470588235
 40
0.7941176470588235
 40
0.7941176470588235
 40
0.7990196078431372
 40
0.7990196078431372
 40
0.7990196078431372
 40
0.803921568627451
 40
0.803921568627451
 40
0.803921568627451
 40
0.8088235294117647
 40
0.8088235294117647
 40
0.8088235294117647
 40
0.8137254901960784
 40
0.8137254901960784
 40
0.8137254901960784
 40
0.8186274509803921
 40
0.8186274509803921
 40
0.8186274509803921
 40
0.8235294117647058
 40
0.8235294117647058
 40
0.8235294117647058
 40
0.8284313725490196
 40
0.8284313725490196
 40
0.8284313725490196
 40
0.8333333333333334
 40
0.8333333333333334
 40
0.8333333333333334
 40
0.8382352941176471
 40
0.8382352941176471
 40
0.8382352941176471
 40
0.8431372549019608
 40
0.8431372549019608
 40
0.8431372549019608
 40
0.8480392156862745
 40
0.8480392156862745
 40
0.8480392156862745
 40
0.8529411764705882
 40
0.8529411764705882
 40
0.8529411764705882
 40
0.8578431372549019
 40
0.8578431372549019
 40
0.8578431372549019
 40
0.8627450980392157
 40
0.8627450980392157
 40
0.8627450980392157
 40
0.8676470588235294
 40
0.8676470588235294
 40
0.8676470588235294
 40
0.8725490196078431
 40
0.8725490196078431
 40
0.8725490196078431
 40
0.8774509803921569
 40
0.8774509803921569
 40
0.8774509803921569
 40
0.8823529411764706
 40
0.8823529411764706
 40
0.8823529411764706
 40
0.8872549019607843
 40
0.8872549019607843
 40
0.8872549019607843
 40
0.892156862745098
 40
0.892156862745098
 40
0.892156862745098
 40
0.8970588235294118
 40
0.8970588235294118
 40
0.8970588235294118
 40
0.9019607843137255
 40
0.9019607843137255
 40
0.9019607843137255
 40
0.9068627450980392
 40
0.9068627450980392
 40
0.9068627450980392
 40
0.9117647058823529
 40
0.9117647058823529
 40
0.9117647058823529
 40
0.9166666666666666
 40
0.9166666666666666
 40
0.9166666666666666
 40
0.9215686274509803
 40
0.9215686274509803
 40
0.9215686274509803
 40
0.9264705882352942
 40
0.9264705882352942
 40
0.9264705882352942
 40
0.9313725490196079
 40
0.9313725490196079
 40
0.9313725490196079
 40
0.9362745098039216
 40
0.9362745098039216
 40
0.9362745098039216
 40
0.9411764705882353
 40
0.9411764705882353
 40
0.9411764705882353
 40
0.946078431372549
 40
0.946078431372549
 40
0.946078431372549
 40
0.9509803921568627
 40
0.9509803921568627
 40
0.9509803921568627
 40
0.9558823529411764
 40
0.9558823529411764
 40
0.9558823529411764
 40
0.9607843137254902
 40
0.9607843137254902
 40
0.9607843137254902
 40
0.9656862745098039
 40
0.9656862745098039
 40
0.9656862745098039
 40
0.9705882352941176
 40
0.9705882352941176
 40
0.9705882352941176
 40
0.9754901960784313
 40
0.9754901960784313
 40
0.9754901960784313
 40
0.9803921568627451
 40
0.9803921568627451
 40
0.9803921568627451
 40
0.9852941176470588
 40
0.9852941176470588
 40
0.9852941176470588
 40
0.9901960784313726
 40
0.9901960784313726
 40
0.9901960784313726
 40
0.9950980392156863
 40
0.9950980392156863
 40
0.9950980392156863
 40
1.0
 40
1.0
 40
1.0
 40
1.0
 10
85.3559
 20
102.0025
 30
0.0
 10
91.3795
 20
96.9555
 30
0.0
 10
96.9552
 20
91.3808
 30
0.0
 10
102.0024
 20
85.3561
 30
0.0
 10
102.1043
 20
87.3305
 30
0.0
 10
102.4582
 20
89.2947
 30
0.0
 10
103.0283
 20
91.1714
 30
0.0
 10
104.7886
 20
96.9755
 30
0.0
 10
108.568
 20
102.0249
 30
0.0
 10
113.689
 20
105.2848
 30
0.0
 10
118.6791
 20
108.4619
 30
0.0
 10
124.1507
 20
110.649
 30
0.0
 10
130.1474
 20
110.5313
 30
0.0
 10
134.9034
 20
110.4373
 30
0.0
 10
139.1712
 20
108.931
 30
0.0
 10
143.4802
 20
107.0519
 30
0.0
 10
147.4366
 20
105.3251
 30
0.0
 10
151.3282
 20
103.3698
 30
0.0
 10
155.4895
 20
102.1694
 30
0.0
 10
160.222
 20
100.8021
 30
0.0
 10
164.7932
 20
100.5715
 30
0.0
 10
169.6387
 20
101.4651
 30
0.0
 10
170.9803
 20
101.7137
 30
0.0
 10
172.3532
 20
101.1136
 30
0.0
 10
173.09
 20
99.969
 30
0.0
 10
173.09
 20
99.969
 30
0.0
 10
173.1235
 20
99.9196
 30
0.0
 10
173.1235
 20
99.9196
 30
0.0
 10
173.1235
 20
99.9196
 30
0.0
 10
173.1505
 20
99.8648
 30
0.0
 10
173.1505
 20
99.8648
 30
0.0
 10
173.7753
 20
98.6487
 30
0.0
 10
173.6084
 20
97.1704
 30
0.0
 10
172.7194
 20
96.1268
 30
0.0
 10
169.5244
 20
92.3764
 30
0.0
 10
167.4381
 20
88.3024
 30
0.0
 10
166.2555
 20
83.5207
 30
0.0
 10
165.2154
 20
79.3179
 30
0.0
 10
164.9622
 20
74.9706
 30
0.0
 10
164.4784
 20
70.6795
 30
0.0
 10
163.9533
 20
66.0075
 30
0.0
 10
163.1222
 20
61.5606
 30
0.0
 10
160.8254
 20
57.3948
 30
0.0
 10
157.9228
 20
52.1292
 30
0.0
 10
153.3125
 20
48.5032
 30
0.0
 10
148.0536
 20
45.763
 30
0.0
 10
142.6751
 20
42.9633
 30
0.0
 10
136.3984
 20
42.2131
 30
0.0
 10
130.4991
 20
43.5882
 30
0.0
 10
128.6055
 20
44.0294
 30
0.0
 10
126.7421
 20
44.6991
 30
0.0
 10
124.9951
 20
45.5861
 30
0.0
 10
127.6848
 20
38.2141
 30
0.0
 10
129.7118
 20
30.6148
 30
0.0
 10
131.0556
 20
22.8856
 30
0.0
 10
132.1284
 20
24.5363
 30
0.0
 10
133.4141
 20
26.0548
 30
0.0
 10
134.8396
 20
27.3897
 30
0.0
 10
139.2674
 20
31.5353
 30
0.0
 10
145.0638
 20
34.0191
 30
0.0
 10
151.1298
 20
34.2834
 30
0.0
 10
157.0526
 20
34.5411
 30
0.0
 10
162.8602
 20
33.7057
 30
0.0
 10
168.0058
 20
30.5969
 30
0.0
 10
172.0777
 20
28.1366
 30
0.0
 10
175.0217
 20
24.701
 30
0.0
 10
177.8124
 20
20.9171
 30
0.0
 10
180.3757
 20
17.4434
 30
0.0
 10
182.7689
 20
13.8061
 30
0.0
 10
185.771
 20
10.6839
 30
0.0
 10
189.1878
 20
7.1351
 30
0.0
 10
193.0298
 20
4.6502
 30
0.0
 10
197.6727
 20
3.0017
 30
0.0
 10
198.9651
 20
2.5414
 30
0.0
 10
199.8485
 20
1.3434
 30
0.0
 10
199.9147
 20
-0.0196
 30
0.0
 10
199.9147
 20
-0.0196
 30
0.0
 10
199.9181
 20
-0.0801
 30
0.0
 10
199.9181
 20
-0.0801
 30
0.0
 10
199.9181
 20
-0.0801
 30
0.0
 10
199.9147
 20
-0.1427
 30
0.0
 10
199.9147
 20
-0.1427
 30
0.0
 10
199.8485
 20
-1.5078
 30
0.0
 10
198.9651
 20
-2.705
 30
0.0
 10
197.6727
 20
-3.1629
 30
0.0
 10
193.0298
 20
-4.8136
 30
0.0
 10
189.1878
 20
-7.2985
 30
0.0
 10
185.771
 20
-10.8473
 30
0.0
 10
182.7689
 20
-13.9695
 30
0.0
 10
180.3757
 20
-17.6068
 30
0.0
 10
177.8124
 20
-21.0805
 30
0.0
 10
175.0217
 20
-24.8644
 30
0.0
 10
172.0777
 20
-28.3
 30
0.0
 10
168.0058
 20
-30.7592
 30
0.0
 10
162.8602
 20
-33.868
 30
0.0
 10
157.0526
 20
-34.7045
 30
0.0
 10
151.1298
 20
-34.447
 30
0.0
 10
145.0638
 20
-34.1825
 30
0.0
 10
139.2674
 20
-31.7
 30
0.0
 10
134.8396
 20
-27.5531
 30
0.0
 10
133.4141
 20
-26.216
 30
0.0
 10
132.1284
 20
-24.6986
 30
0.0
 10
131.0556
 20
-23.0468
 30
0.0
 10
129.7118
 20
-30.7795
 30
0.0
 10
127.6848
 20
-38.3775
 30
0.0
 10
124.9951
 20
-45.7471
 30
0.0
 10
126.7421
 20
-44.8603
 30
0.0
 10
128.6055
 20
-44.1941
 30
0.0
 10
130.4991
 20
-43.7505
 30
0.0
 10
136.3984
 20
-42.3754
 30
0.0
 10
142.6751
 20
-43.1256
 30
0.0
 10
148.0536
 20
-45.9274
 30
0.0
 10
153.3125
 20
-48.6644
 30
0.0
 10
157.9228
 20
-52.2928
 30
0.0
 10
160.8254
 20
-57.5571
 30
0.0
 10
163.1222
 20
-61.7229
 30
0.0
 10
163.9533
 20
-66.1709
 30
0.0
 10
164.4784
 20
-70.844
 30
0.0
 10
164.9622
 20
-75.1319
 30
0.0
 10
165.2154
 20
-79.4802
 30
0.0
 10
166.2555
 20
-83.6852
 30
0.0
 10
167.4381
 20
-88.466
 30
0.0
 10
169.5244
 20
-92.5387
 30
0.0
 10
172.7194
 20
-96.2891
 30
0.0
 10
173.6084
 20
-97.3327
 30
0.0
 10
173.7753
 20
-98.8121
 30
0.0
 10
173.1505
 20
-100.0271
 30
0.0
 10
173.1505
 20
-100.0271
 30
0.0
 10
173.1235
 20
-100.0808
 30
0.0
 10
173.1235
 20
-100.0808
 30
0.0
 10
173.1235
 20
-100.0808
 30
0.0
 10
173.09
 20
-100.1335
 30
0.0
 10
173.09
 20
-100.1335
 30
0.0
 10
172.3532
 20
-101.278
 30
0.0
 10
170.9803
 20
-101.8749
 30
0.0
 10
169.6387
 20
-101.6274
 30
0.0
 10
164.7932
 20
-100.736
 30
0.0
 10
160.222
 20
-100.9668
 30
0.0
 10
155.4895
 20
-102.3317
 30
0.0
 10
151.3282
 20
-103.5345
 30
0.0
 10
147.4366
 20
-105.4874
 30
0.0
 10
143.4802
 20
-107.2131
 30
0.0
 10
139.1712
 20
-109.0944
 30
0.0
 10
134.9034
 20
-110.5983
 30
0.0
 10
130.1474
 20
-110.6936
 30
0.0
 10
124.1507
 20
-110.8134
 30
0.0
 10
118.6791
 20
-108.6263
 30
0.0
 10
113.689
 20
-105.4493
 30
0.0
 10
108.568
 20
-102.1872
 30
0.0
 10
104.7886
 20
-97.1389
 30
0.0
 10
103.0283
 20
-91.3326
 30
0.0
 10
102.4582
 20
-89.457
 30
0.0
 10
102.1043
 20
-87.4904
 30
0.0
 10
102.0024
 20
-85.5195
 30
0.0
 10
96.9552
 20
-91.5421
 30
0.0
 10
91.3795
 20
-97.1167
 30
0.0
 10
85.3559
 20
-102.1659
 30
0.0
 10
87.3291
 20
-102.2679
 30
0.0
 10
89.2932
 20
-102.6218
 30
0.0
 10
91.1702
 20
-103.1906
 30
0.0
 10
96.9742
 20
-104.951
 30
0.0
 10
102.0236
 20
-108.7305
 30
0.0
 10
105.2846
 20
-113.8515
 30
0.0
 10
108.4627
 20
-118.8415
 30
0.0
 10
110.6497
 20
-124.3131
 30
0.0
 10
110.5311
 20
-130.3121
 30
0.0
 10
110.4359
 20
-135.067
 30
0.0
 10
108.9321
 20
-139.3336
 30
0.0
 10
107.0506
 20
-143.6428
 30
0.0
 10
105.3251
 20
-147.6002
 30
0.0
 10
103.3698
 20
-151.4907
 30
0.0
 10
102.1693
 20
-155.6531
 30
0.0
 10
100.8032
 20
-160.3845
 30
0.0
 10
100.5724
 20
-164.9544
 30
0.0
 10
101.4649
 20
-169.8011
 30
0.0
 10
101.7123
 20
-171.1427
 30
0.0
 10
101.1132
 20
-172.5168
 30
0.0
 10
99.9687
 20
-173.2548
 30
0.0
 10
99.9687
 20
-173.2548
 30
0.0
 10
99.9185
 20
-173.2861
 30
0.0
 10
99.9185
 20
-173.2861
 30
0.0
 10
99.9185
 20
-173.2861
 30
0.0
 10
99.8635
 20
-173.3153
 30
0.0
 10
99.8635
 20
-173.3153
 30
0.0
 10
98.6485
 20
-173.9402
 30
0.0
 10
97.1702
 20
-173.7721
 30
0.0
 10
96.1267
 20
-172.8842
 30
0.0
 10
92.3763
 20
-169.6869
 30
0.0
 10
88.3023
 20
-167.6018
 30
0.0
 10
83.5216
 20
-166.4181
 30
0.0
 10
79.3166
 20
-165.3788
 30
0.0
 10
74.9695
 20
-165.1248
 30
0.0
 10
70.6793
 20
-164.6421
 30
0.0
 10
66.0085
 20
-164.1157
 30
0.0
 10
61.5593
 20
-163.2859
 30
0.0
 10
57.3936
 20
-160.9891
 30
0.0
 10
52.1292
 20
-158.0864
 30
0.0
 10
48.5019
 20
-153.4738
 30
0.0
 10
45.7639
 20
-148.2173
 30
0.0
 10
42.9632
 20
-142.8399
 30
0.0
 10
42.2119
 20
-136.5631
 30
0.0
 10
43.588
 20
-130.6639
 30
0.0
 10
44.0293
 20
-128.7691
 30
0.0
 10
44.6968
 20
-126.9056
 30
0.0
 10
45.5848
 20
-125.1586
 30
0.0
 10
38.215
 20
-127.8486
 30
0.0
 10
30.6148
 20
-129.8743
 30
0.0
 10
22.8845
 20
-131.2203
 30
0.0
 10
24.5362
 20
-132.2909
 30
0.0
 10
26.0536
 20
-133.5764
 30
0.0
 10
27.3895
 20
-135.0044
 30
0.0
 10
31.5364
 20
-139.4299
 30
0.0
 10
34.0189
 20
-145.2263
 30
0.0
 10
34.2832
 20
-151.2934
 30
0.0
 10
34.5409
 20
-157.2174
 30
0.0
 10
33.7043
 20
-163.0227
 30
0.0
 10
30.5967
 20
-168.1706
 30
0.0
 10
28.1375
 20
-172.2401
 30
0.0
 10
24.6998
 20
-175.1853
 30
0.0
 10
20.9168
 20
-177.9771
 30
0.0
 10
17.4431
 20
-180.5394
 30
0.0
 10
13.8047
 20
-182.9325
 30
0.0
 10
10.6849
 20
-185.9346
 30
0.0
 10
7.1339
 20
-189.3503
 30
0.0
 10
4.6499
 20
-193.1935
 30
0.0
 10
2.9994
 20
-197.8353
 30
0.0
 10
2.5412
 20
-199.1276
 30
0.0
 10
1.3432
 20
-200.0122
 30
0.0
 10
-0.022
 20
-200.0772
 30
0.0
 10
-0.022
 20
-200.0772
 30
0.0
 10
-0.0825
 20
-200.0818
 30
0.0
 10
-0.0825
 20
-200.0818
 30
0.0
 10
-0.0825
 20
-200.0818
 30
0.0
 10
-0.143
 20
-200.0772
 30
0.0
 10
-0.143
 20
-200.0772
 30
0.0
 10
-1.5068
 20
-200.0122
 30
0.0
 10
-2.7051
 20
-199.1276
 30
0.0
 10
-3.1633
 20
-197.8353
 30
0.0
 10
-4.8138
 20
-193.1935
 30
0.0
 10
-7.2975
 20
-189.3503
 30
0.0
 10
-10.8485
 20
-185.9346
 30
0.0
 10
-13.9686
 20
-182.9325
 30
0.0
 10
-17.6068
 20
-180.5394
 30
0.0
 10
-21.0806
 20
-177.9771
 30
0.0
 10
-24.8634
 20
-175.1853
 30
0.0
 10
-28.3013
 20
-172.2401
 30
0.0
 10
-30.7605
 20
-168.1706
 30
0.0
 10
-33.8682
 20
-163.0227
 30
0.0
 10
-34.7047
 20
-157.2174
 30
0.0
 10
-34.4471
 20
-151.2934
 30
0.0
 10
-34.1827
 20
-145.2263
 30
0.0
 10
-31.7002
 20
-139.4299
 30
0.0
 10
-27.5533
 20
-135.0044
 30
0.0
 10
-26.2174
 20
-133.5764
 30
0.0
 10
-24.7
 20
-132.2909
 30
0.0
 10
-23.0481
 20
-131.2203
 30
0.0
 10
-30.7784
 20
-129.8743
 30
0.0
 10
-38.3789
 20
-127.8475
 30
0.0
 10
-45.7484
 20
-125.1575
 30
0.0
 10
-44.8616
 20
-126.9045
 30
0.0
 10
-44.1932
 20
-128.7691
 30
0.0
 10
-43.7519
 20
-130.6639
 30
0.0
 10
-42.3755
 20
-136.5631
 30
0.0
 10
-43.127
 20
-142.8399
 30
0.0
 10
-45.9277
 20
-148.2173
 30
0.0
 10
-48.6658
 20
-153.4738
 30
0.0
 10
-52.2928
 20
-158.0864
 30
0.0
 10
-57.5572
 20
-160.9891
 30
0.0
 10
-61.7231
 20
-163.2859
 30
0.0
 10
-66.1722
 20
-164.1157
 30
0.0
 10
-70.8431
 20
-164.6421
 30
0.0
 10
-75.1331
 20
-165.1248
 30
0.0
 10
-79.4805
 20
-165.3788
 30
0.0
 10
-83.6854
 20
-166.4181
 30
0.0
 10
-88.466
 20
-167.6018
 30
0.0
 10
-92.5399
 20
-169.6869
 30
0.0
 10
-96.2903
 20
-172.8842
 30
0.0
 10
-97.334
 20
-173.7721
 30
0.0
 10
-98.8121
 20
-173.9389
 30
0.0
 10
-100.0273
 20
-173.3153
 30
0.0
 10
-100.0273
 20
-173.3153
 30
0.0
 10
-100.0821
 20
-173.2861
 30
0.0
 10
-100.0821
 20
-173.2861
 30
0.0
 10
-100.0821
 20
-173.2861
 30
0.0
 10
-100.1326
 20
-173.2548
 30
0.0
 10
-100.1326
 20
-173.2548
 30
0.0
 10
-101.2771
 20
-172.5157
 30
0.0
 10
-101.8762
 20
-171.1427
 30
0.0
 10
-101.6285
 20
-169.8011
 30
0.0
 10
-100.7363
 20
-164.9544
 30
0.0
 10
-100.9668
 20
-160.3845
 30
0.0
 10
-102.3329
 20
-155.6531
 30
0.0
 10
-103.5336
 20
-151.4907
 30
0.0
 10
-105.4887
 20
-147.6002
 30
0.0
 10
-107.2144
 20
-143.6428
 30
0.0
 10
-109.0957
 20
-139.3336
 30
0.0
 10
-110.5997
 20
-135.067
 30
0.0
 10
-110.695
 20
-130.3121
 30
0.0
 10
-110.8136
 20
-124.3131
 30
0.0
 10
-108.6266
 20
-118.8415
 30
0.0
 10
-105.4484
 20
-113.8515
 30
0.0
 10
-102.1874
 20
-108.7305
 30
0.0
 10
-97.1381
 20
-104.951
 30
0.0
 10
-91.334
 20
-103.1906
 30
0.0
 10
-89.4571
 20
-102.6218
 30
0.0
 10
-87.4929
 20
-102.2679
 30
0.0
 10
-85.5198
 20
-102.1659
 30
0.0
 10
-91.5434
 20
-97.1189
 30
0.0
 10
-97.119
 20
-91.5421
 30
0.0
 10
-102.1662
 20
-85.5195
 30
0.0
 10
-102.2682
 20
-87.4904
 30
0.0
 10
-102.622
 20
-89.457
 30
0.0
 10
-103.1919
 20
-91.3326
 30
0.0
 10
-104.9524
 20
-97.1389
 30
0.0
 10
-108.7318
 20
-102.1872
 30
0.0
 10
-113.8529
 20
-105.4493
 30
0.0
 10
-118.843
 20
-108.6263
 30
0.0
 10
-124.3143
 20
-110.8134
 30
0.0
 10
-130.3112
 20
-110.6936
 30
0.0
 10
-135.0672
 20
-110.5983
 30
0.0
 10
-139.3348
 20
-109.0944
 30
0.0
 10
-143.6441
 20
-107.2131
 30
0.0
 10
-147.6004
 20
-105.4874
 30
0.0
 10
-151.492
 20
-103.5345
 30
0.0
 10
-155.6531
 20
-102.3317
 30
0.0
 10
-160.3856
 20
-100.9668
 30
0.0
 10
-164.9568
 20
-100.736
 30
0.0
 10
-169.8026
 20
-101.6274
 30
0.0
 10
-171.144
 20
-101.8749
 30
0.0
 10
-172.517
 20
-101.278
 30
0.0
 10
-173.2538
 20
-100.1335
 30
0.0
 10
-173.2538
 20
-100.1335
 30
0.0
 10
-173.2874
 20
-100.0808
 30
0.0
 10
-173.2874
 20
-100.0808
 30
0.0
 10
-173.2874
 20
-100.0808
 30
0.0
 10
-173.3143
 20
-100.0271
 30
0.0
 10
-173.3143
 20
-100.0271
 30
0.0
 10
-173.9392
 20
-98.8121
 30
0.0
 10
-173.7722
 20
-97.3327
 30
0.0
 10
-172.883
 20
-96.2891
 30
0.0
 10
-169.6883
 20
-92.5387
 30
0.0
 10
-167.602
 20
-88.466
 30
0.0
 10
-166.4194
 20
-83.6852
 30
0.0
 10
-165.379
 20
-79.4802
 30
0.0
 10
-165.1261
 20
-75.1319
 30
0.0
 10
-164.6422
 20
-70.844
 30
0.0
 10
-164.1171
 20
-66.1709
 30
0.0
 10
-163.286
 20
-61.7229
 30
0.0
 10
-160.9892
 20
-57.5571
 30
0.0
 10
-158.0866
 20
-52.2928
 30
0.0
 10
-153.4764
 20
-48.6644
 30
0.0
 10
-148.2174
 20
-45.9274
 30
0.0
 10
-142.839
 20
-43.1256
 30
0.0
 10
-136.5622
 20
-42.3754
 30
0.0
 10
-130.6627
 20
-43.7505
 30
0.0
 10
-128.7691
 20
-44.1941
 30
0.0
 10
-126.9057
 20
-44.8603
 30
0.0
 10
-125.1587
 20
-45.7471
 30
0.0
 10
-127.8487
 20
-38.3775
 30
0.0
 10
-129.8757
 20
-30.7795
 30
0.0
 10
-131.2195
 20
-23.0468
 30
0.0
 10
-132.2923
 20
-24.6986
 30
0.0
 10
-133.5777
 20
-26.216
 30
0.0
 10
-135.0034
 20
-27.5531
 30
0.0
 10
-139.4313
 20
-31.7
 30
0.0
 10
-145.2274
 20
-34.1825
 30
0.0
 10
-151.2936
 20
-34.447
 30
0.0
 10
-157.2165
 20
-34.7045
 30
0.0
 10
-163.0241
 20
-33.868
 30
0.0
 10
-168.1697
 20
-30.7592
 30
0.0
 10
-172.2415
 20
-28.3
 30
0.0
 10
-175.1856
 20
-24.8644
 30
0.0
 10
-177.9762
 20
-21.0805
 30
0.0
 10
-180.5395
 20
-17.6068
 30
0.0
 10
-182.9325
 20
-13.9695
 30
0.0
 10
-185.9349
 20
-10.8473
 30
0.0
 10
-189.3516
 20
-7.2985
 30
0.0
 10
-193.1937
 20
-4.8136
 30
0.0
 10
-197.8366
 20
-3.1629
 30
0.0
 10
-199.1289
 20
-2.705
 30
0.0
 10
-200.0124
 20
-1.5078
 30
0.0
 10
-200.0786
 20
-0.1416
 30
0.0
 10
-200.0786
 20
-0.1416
 30
0.0
 10
-200.0819
 20
-0.0801
 30
0.0
 10
-200.0819
 20
-0.0801
 30
0.0
 10
-200.0819
 20
-0.0801
 30
0.0
 10
-200.0786
 20
-0.0196
 30
0.0
 10
-200.0786
 20
-0.0196
 30
0.0
 10
-200.0124
 20
1.3434
 30
0.0
 10
-199.1289
 20
2.5414
 30
0.0
 10
-197.8366
 20
3.0017
 30
0.0
 10
-193.1937
 20
4.6502
 30
0.0
 10
-189.3516
 20
7.1351
 30
0.0
 10
-185.9349
 20
10.6839
 30
0.0
 10
-182.9325
 20
13.8061
 30
0.0
 10
-180.5395
 20
17.4434
 30
0.0
 10
-177.9762
 20
20.9171
 30
0.0
 10
-175.1856
 20
24.701
 30
0.0
 10
-172.2415
 20
28.1366
 30
0.0
 10
-168.1697
 20
30.5969
 30
0.0
 10
-163.0241
 20
33.7057
 30
0.0
 10
-157.2165
 20
34.5411
 30
0.0
 10
-151.2936
 20
34.2834
 30
0.0
 10
-145.2274
 20
34.0191
 30
0.0
 10
-139.4313
 20
31.5364
 30
0.0
 10
-135.0034
 20
27.3897
 30
0.0
 10
-133.5777
 20
26.0548
 30
0.0
 10
-132.2923
 20
24.5363
 30
0.0
 10
-131.2195
 20
22.8856
 30
0.0
 10
-129.8757
 20
30.6148
 30
0.0
 10
-127.8475
 20
38.2141
 30
0.0
 10
-125.1578
 20
45.5861
 30
0.0
 10
-126.9057
 20
44.6991
 30
0.0
 10
-128.7691
 20
44.0294
 30
0.0
 10
-130.6627
 20
43.5882
 30
0.0
 10
-136.5622
 20
42.2131
 30
0.0
 10
-142.839
 20
42.9633
 30
0.0
 10
-148.2174
 20
45.763
 30
0.0
 10
-153.4764
 20
48.5032
 30
0.0
 10
-158.0866
 20
52.1292
 30
0.0
 10
-160.9892
 20
57.3948
 30
0.0
 10
-163.286
 20
61.5606
 30
0.0
 10
-164.1171
 20
66.0075
 30
0.0
 10
-164.6422
 20
70.6795
 30
0.0
 10
-165.1261
 20
74.9706
 30
0.0
 10
-165.379
 20
79.3179
 30
0.0
 10
-166.4194
 20
83.5207
 30
0.0
 10
-167.602
 20
88.3024
 30
0.0
 10
-169.6883
 20
92.3764
 30
0.0
 10
-172.883
 20
96.1268
 30
0.0
 10
-173.7722
 20
97.1704
 30
0.0
 10
-173.9392
 20
98.6487
 30
0.0
 10
-173.3143
 20
99.8648
 30
0.0
 10
-173.3143
 20
99.8648
 30
0.0
 10
-173.2874
 20
99.9196
 30
0.0
 10
-173.2874
 20
99.9196
 30
0.0
 10
-173.2874
 20
99.9196
 30
0.0
 10
-173.2538
 20
99.969
 30
0.0
 10
-173.2538
 20
99.969
 30
0.0
 10
-172.517
 20
101.1146
 30
0.0
 10
-171.144
 20
101.7137
 30
0.0
 10
-169.8026
 20
101.4651
 30
0.0
 10
-164.9568
 20
100.5715
 30
0.0
 10
-160.3856
 20
100.8021
 30
0.0
 10
-155.6531
 20
102.1694
 30
0.0
 10
-151.492
 20
103.3698
 30
0.0
 10
-147.6004
 20
105.3251
 30
0.0
 10
-143.6441
 20
107.0519
 30
0.0
 10
-139.3348
 20
108.931
 30
0.0
 10
-135.0672
 20
110.4373
 30
0.0
 10
-130.3112
 20
110.5313
 30
0.0
 10
-124.3143
 20
110.649
 30
0.0
 10
-118.843
 20
108.4619
 30
0.0
 10
-113.8529
 20
105.2848
 30
0.0
 10
-108.7318
 20
102.0228
 30
0.0
 10
-104.9524
 20
96.9755
 30
0.0
 10
-103.1919
 20
91.1714
 30
0.0
 10
-102.622
 20
89.2947
 30
0.0
 10
-102.2682
 20
87.3305
 30
0.0
 10
-102.1662
 20
85.3561
 30
0.0
 10
-97.119
 20
91.3808
 30
0.0
 10
-91.5434
 20
96.9555
 30
0.0
 10
-85.5198
 20
102.0025
 30
0.0
 10
-87.4929
 20
102.1046
 30
0.0
 10
-89.4571
 20
102.4595
 30
0.0
 10
-91.334
 20
103.0294
 30
0.0
 10
-97.1381
 20
104.79
 30
0.0
 10
-102.1874
 20
108.5693
 30
0.0
 10
-105.4484
 20
113.6892
 30
0.0
 10
-108.6266
 20
118.6794
 30
0.0
 10
-110.8136
 20
124.1508
 30
0.0
 10
-110.695
 20
130.1477
 30
0.0
 10
-110.5997
 20
134.9047
 30
0.0
 10
-109.0957
 20
139.1724
 30
0.0
 10
-107.2144
 20
143.4805
 30
0.0
 10
-105.4887
 20
147.4368
 30
0.0
 10
-103.5336
 20
151.3284
 30
0.0
 10
-102.3329
 20
155.4897
 30
0.0
 10
-100.9668
 20
160.2222
 30
0.0
 10
-100.7363
 20
164.7932
 30
0.0
 10
-101.6285
 20
169.6388
 30
0.0
 10
-101.8762
 20
170.9794
 30
0.0
 10
-101.2771
 20
172.3534
 30
0.0
 10
-100.1326
 20
173.0901
 30
0.0
 10
-100.1326
 20
173.0901
 30
0.0
 10
-100.0821
 20
173.1238
 30
0.0
 10
-100.0821
 20
173.1238
 30
0.0
 10
-100.0821
 20
173.1238
 30
0.0
 10
-100.0273
 20
173.1506
 30
0.0
 10
-100.0273
 20
173.1506
 30
0.0
 10
-98.8121
 20
173.7755
 30
0.0
 10
-97.334
 20
173.6098
 30
0.0
 10
-96.2903
 20
172.7219
 30
0.0
 10
-92.5399
 20
169.5257
 30
0.0
 10
-88.466
 20
167.4395
 30
0.0
 10
-83.6854
 20
166.2558
 30
0.0
 10
-79.4805
 20
165.2154
 30
0.0
 10
-75.1331
 20
164.9635
 30
0.0
 10
-70.8431
 20
164.4809
 30
0.0
 10
-66.1722
 20
163.9534
 30
0.0
 10
-61.7231
 20
163.1225
 30
0.0
 10
-57.5572
 20
160.8258
 30
0.0
 10
-52.2928
 20
157.9241
 30
0.0
 10
-48.6658
 20
153.3126
 30
0.0
 10
-45.9277
 20
148.0528
 30
0.0
 10
-43.127
 20
142.6752
 30
0.0
 10
-42.3755
 20
136.3986
 30
0.0
 10
-43.7519
 20
130.5003
 30
0.0
 10
-44.1932
 20
128.6068
 30
0.0
 10
-44.8604
 20
126.7423
 30
0.0
 10
-45.7484
 20
124.9952
 30
0.0
 10
-38.3789
 20
127.6874
 30
0.0
 10
-30.7784
 20
129.7131
 30
0.0
 10
-23.0493
 20
131.0558
 30
0.0
 10
-24.7
 20
132.1297
 30
0.0
 10
-26.2174
 20
133.4154
 30
0.0
 10
-27.5533
 20
134.8397
 30
0.0
 10
-31.7002
 20
139.2676
 30
0.0
 10
-34.1827
 20
145.0651
 30
0.0
 10
-34.4471
 20
151.13
 30
0.0
 10
-34.7047
 20
157.053
 30
0.0
 10
-33.8682
 20
162.8593
 30
0.0
 10
-30.7605
 20
168.0061
 30
0.0
 10
-28.3013
 20
172.0767
 30
0.0
 10
-24.8634
 20
175.0208
 30
0.0
 10
-21.0806
 20
177.8126
 30
0.0
 10
-17.6068
 20
180.3771
 30
0.0
 10
-13.9686
 20
182.7691
 30
0.0
 10
-10.8485
 20
185.7736
 30
0.0
 10
-7.2975
 20
189.188
 30
0.0
 10
-4.8138
 20
193.0302
 30
0.0
 10
-3.1633
 20
197.6741
 30
0.0
 10
-2.7051
 20
198.9664
 30
0.0
 10
-1.5068
 20
199.8488
 30
0.0
 10
-0.143
 20
199.916
 30
0.0
 10
-0.143
 20
199.916
 30
0.0
 10
-0.0825
 20
199.9182
 30
0.0
 10
-0.0825
 20
199.9182
 30
0.0
 10
-0.0825
 20
199.9182
 30
0.0
 10
-0.0208
 20
199.916
 30
0.0
 10
-0.0208
 20
199.916
 30
0.0
 10
1.3432
 20
199.8488
 30
0.0
 10
2.5412
 20
198.9664
 30
0.0
 10
2.9994
 20
197.6741
 30
0.0
 10
4.6499
 20
193.0302
 30
0.0
 10
7.1339
 20
189.188
 30
0.0
 10
10.6849
 20
185.7736
 30
0.0
 10
13.8047
 20
182.7691
 30
0.0
 10
17.4431
 20
180.3771
 30
0.0
 10
20.9168
 20
177.8126
 30
0.0
 10
24.6998
 20
175.0208
 30
0.0
 10
28.1375
 20
172.0767
 30
0.0
 10
30.5967
 20
168.0061
 30
0.0
 10
33.7043
 20
162.8593
 30
0.0
 10
34.5409
 20
157.053
 30
0.0
 10
34.2832
 20
151.13
 30
0.0
 10
34.0189
 20
145.0651
 30
0.0
 10
31.5364
 20
139.2676
 30
0.0
 10
27.3895
 20
134.8397
 30
0.0
 10
26.0536
 20
133.4154
 30
0.0
 10
24.5362
 20
132.1297
 30
0.0
 10
22.8854
 20
131.0558
 30
0.0
 10
30.6148
 20
129.7131
 30
0.0
 10
38.215
 20
127.6863
 30
0.0
 10
45.5848
 20
124.9952
 30
0.0
 10
44.6968
 20
126.7423
 30
0.0
 10
44.0293
 20
128.6068
 30
0.0
 10
43.588
 20
130.5003
 30
0.0
 10
42.2119
 20
136.3986
 30
0.0
 10
42.9632
 20
142.6752
 30
0.0
 10
45.7639
 20
148.0528
 30
0.0
 10
48.5019
 20
153.3126
 30
0.0
 10
52.1292
 20
157.9241
 30
0.0
 10
57.3936
 20
160.8258
 30
0.0
 10
61.5593
 20
163.1225
 30
0.0
 10
66.0085
 20
163.9534
 30
0.0
 10
70.6793
 20
164.4809
 30
0.0
 10
74.9695
 20
164.9635
 30
0.0
 10
79.3166
 20
165.2154
 30
0.0
 10
83.5216
 20
166.2558
 30
0.0
 10
88.3023
 20
167.4395
 30
0.0
 10
92.3763
 20
169.5235
 30
0.0
 10
96.1267
 20
172.7219
 30
0.0
 10
97.1702
 20
173.6098
 30
0.0
 10
98.6485
 20
173.7755
 30
0.0
 10
99.8635
 20
173.1506
 30
0.0
 10
99.8635
 20
173.1506
 30
0.0
 10
99.9185
 20
173.1238
 30
0.0
 10
99.9185
 20
173.1238
 30
0.0
 10
99.9185
 20
173.1238
 30
0.0
 10
99.9687
 20
173.0901
 30
0.0
 10
99.9687
 20
173.0901
 30
0.0
 10
101.1132
 20
172.3523
 30
0.0
 10
101.7123
 20
170.9794
 30
0.0
 10
101.4649
 20
169.6388
 30
0.0
 10
100.5724
 20
164.7932
 30
0.0
 10
100.8032
 20
160.2222
 30
0.0
 10
102.1693
 20
155.4897
 30
0.0
 10
103.3698
 20
151.3284
 30
0.0
 10
105.3251
 20
147.4368
 30
0.0
 10
107.0506
 20
143.4805
 30
0.0
 10
108.9321
 20
139.1724
 30
0.0
 10
110.4359
 20
134.9047
 30
0.0
 10
110.5311
 20
130.1477
 30
0.0
 10
110.6497
 20
124.1508
 30
0.0
 10
108.4627
 20
118.6794
 30
0.0
 10
105.2846
 20
113.6892
 30
0.0
 10
102.0236
 20
108.5693
 30
0.0
 10
96.9742
 20
104.79
 30
0.0
 10
91.1702
 20
103.0294
 30
0.0
 10
89.2932
 20
102.4595
 30
0.0
 10
87.3291
 20
102.1046
 30
0.0
 10
85.3559
 20
102.0025
 30
0.0
  0
ENDSEC
  0
SECTION
  2
OBJECTS
  0
DICTIONARY
  5
C
330
0
100
AcDbDictionary
281
     1
  3
ACAD_DETAILVIEWSTYLE
350
78
  3
ACAD_GROUP
350
D
  3
ACAD_LAYOUT
350
1A
  3
ACAD_MATERIAL
350
43
  3
ACAD_MLEADERSTYLE
350
5B
  3
ACAD_MLINESTYLE
350
17
  3
ACAD_PLOTSETTINGS
350
19
  3
ACAD_PLOTSTYLENAME
350
E
  3
ACAD_SCALELIST
350
47
  3
ACAD_SECTIONVIEWSTYLE
350
79
  3
ACAD_TABLESTYLE
350
59
  3
ACAD_VISUALSTYLE
350
2A
  3
ACDB_RECOMPOSE_DATA
350
75
  3
AcDbVariableDictionary
350
71
  0
SUN
  5
5D
330
29
100
AcDbSun
 90
        1
290
     0
 63
     7
421
 16777215
 40
1.0
291
     1
 91
  2455826
 92
 54000000
292
     0
 70
     2
 71
   256
280
     1
  0
DICTIONARY
  5
78
102
{ACAD_REACTORS
330
C
102
}
330
C
100
AcDbDictionary
281
     1
  0
DICTIONARY
  5
D
102
{ACAD_REACTORS
330
C
102
}
330
C
100
AcDbDictionary
281
     1
  0
DICTIONARY
  5
1A
102
{ACAD_REACTORS
330
C
102
}
330
C
100
AcDbDictionary
281
     1
  3
Layout1
350
1E
  3
Layout2
350
26
  3
Model
350
22
  0
DICTIONARY
  5
43
102
{ACAD_REACTORS
330
C
102
}
330
C
100
AcDbDictionary
281
     1
  3
ByBlock
350
45
  3
ByLayer
350
44
  3
Global
350
46
  0
DICTIONARY
  5
5B
102
{ACAD_REACTORS
330
C
102
}
330
C
100
AcDbDictionary
281
     1
  3
Standard
350
5C
  0
DICTIONARY
  5
17
102
{ACAD_REACTORS
330
C
102
}
330
C
100
AcDbDictionary
281
     1
  3
Standard
350
18
  0
DICTIONARY
  5
19
102
{ACAD_REACTORS
330
C
102
}
330
C
100
AcDbDictionary
281
     1
  0
ACDBDICTIONARYWDFLT
  5
E
102
{ACAD_REACTORS
330
C
102
}
330
C
100
AcDbDictionary
281
     1
  3
Normal
350
F
100
AcDbDictionaryWithDefault
340
F
  0
DICTIONARY
  5
47
102
{ACAD_REACTORS
330
C
102
}
330
C
100
AcDbDictionary
281
     1
  3
A0
350
48
  3
A1
350
49
  3
A2
350
4A
  3
A3
350
4B
  3
A4
350
4C
  3
A5
350
4D
  3
A6
350
4E
  3
A7
350
4F
  3
A8
350
50
  3
A9
350
51
  3
B1
350
52
  3
B2
350
53
  3
B3
350
54
  3
B4
350
55
  3
B5
350
56
  3
B6
350
57
  3
B7
350
58
  0
DICTIONARY
  5
79
102
{ACAD_REACTORS
330
C
102
}
330
C
100
AcDbDictionary
281
     1
  0
DICTIONARY
  5
59
102
{ACAD_REACTORS
330
C
102
}
330
C
100
AcDbDictionary
281
     1
  3
Standard
350
5A
  0
DICTIONARY
  5
2A
102
{ACAD_REACTORS
330
C
102
}
330
C
100
AcDbDictionary
281
     1
  3
2dWireframe
350
2F
  3
Basic
350
32
  3
Brighten
350
36
  3
ColorChange
350
3A
  3
Conceptual
350
34
  3
Dim
350
35
  3
EdgeColorOff
350
3D
  3
Facepattern
350
39
  3
Flat
350
2B
  3
FlatWithEdges
350
2C
  3
Gouraud
350
2D
  3
GouraudWithEdges
350
2E
  3
Hidden
350
31
  3
JitterOff
350
3B
  3
Linepattern
350
38
  3
OverhangOff
350
3C
  3
Realistic
350
33
  3
Shaded
350
42
  3
Shaded with edges
350
41
  3
Shades of Gray
350
3E
  3
Sketchy
350
3F
  3
Thicken
350
37
  3
Wireframe
350
30
  3
X-Ray
350
40
  0
XRECORD
  5
75
102
{ACAD_REACTORS
330
C
102
}
330
C
100
AcDbXrecord
280
     1
 90
        1
330
5A
  0
DICTIONARY
  5
71
102
{ACAD_REACTORS
330
C
102
}
330
C
100
AcDbDictionary
281
     1
  3
CANNOSCALE
350
72
  3
CMLEADERSTYLE
350
77
  3
CTABLESTYLE
350
76
  0
LAYOUT
  5
1E
102
{ACAD_REACTORS
330
1A
102
}
330
1A
100
AcDbPlotSettings
  1

  2
none_device
  4

  6

 40
0.0
 41
0.0
 42
0.0
 43
0.0
 44
0.0
 45
0.0
 46
0.0
 47
0.0
 48
0.0
 49
0.0
140
0.0
141
0.0
142
1.0
143
1.0
 70
   688
 72
     0
 73
     0
 74
     5
  7

 75
    16
 76
     0
 77
     2
 78
   300
147
1.0
148
0.0
149
0.0
100
AcDbLayout
  1
Layout1
 70
     1
 71
     1
 10
0.0
 20
0.0
 11
12.0
 21
9.0
 12
0.0
 22
0.0
 32
0.0
 14
1.000000000000000E+20
 24
1.000000000000000E+20
 34
1.000000000000000E+20
 15
-1.000000000000000E+20
 25
-1.000000000000000E+20
 35
-1.000000000000000E+20
146
0.0
 13
0.0
 23
0.0
 33
0.0
 16
1.0
 26
0.0
 36
0.0
 17
0.0
 27
1.0
 37
0.0
 76
     0
330
1B
  0
LAYOUT
  5
26
102
{ACAD_REACTORS
330
1A
102
}
330
1A
100
AcDbPlotSettings
  1

  2
none_device
  4

  6

 40
0.0
 41
0.0
 42
0.0
 43
0.0
 44
0.0
 45
0.0
 46
0.0
 47
0.0
 48
0.0
 49
0.0
140
0.0
141
0.0
142
1.0
143
1.0
 70
   688
 72
     0
 73
     0
 74
     5
  7

 75
    16
 76
     0
 77
     2
 78
   300
147
1.0
148
0.0
149
0.0
100
AcDbLayout
  1
Layout2
 70
     1
 71
     2
 10
0.0
 20
0.0
 11
0.0
 21
0.0
 12
0.0
 22
0.0
 32
0.0
 14
0.0
 24
0.0
 34
0.0
 15
0.0
 25
0.0
 35
0.0
146
0.0
 13
0.0
 23
0.0
 33
0.0
 16
1.0
 26
0.0
 36
0.0
 17
0.0
 27
1.0
 37
0.0
 76
     0
330
23
  0
LAYOUT
  5
22
102
{ACAD_REACTORS
330
1A
102
}
330
1A
100
AcDbPlotSettings
  1

  2
none_device
  4
Letter_(8.50_x_11.00_Inches)
  6

 40
6.35
 41
6.35
 42
6.35000508
 43
6.35000508
 44
215.9
 45
279.4
 46
0.0
 47
0.0
 48
0.0
 49
0.0
140
0.0
141
0.0
142
1.0
143
1.0
 70
  1712
 72
     0
 73
     0
 74
     0
  7

 75
     0
 76
     0
 77
     2
 78
   300
147
1.0
148
0.0
149
0.0
100
AcDbLayout
  1
Model
 70
     1
 71
     0
 10
0.0
 20
0.0
 11
12.0
 21
9.0
 12
0.0
 22
0.0
 32
0.0
 14
-200.1821
 24
-200.182
 34
0.0
 15
200.0183
 25
200.0182
 35
0.0
146
0.0
 13
0.0
 23
0.0
 33
0.0
 16
1.0
 26
0.0
 36
0.0
 17
0.0
 27
1.0
 37
0.0
 76
     0
330
1F
331
29
  0
MATERIAL
  5
45
102
{ACAD_REACTORS
330
43
102
}
330
43
100
AcDbMaterial
  1
ByBlock
 72
     1
 94
      127
  0
MATERIAL
  5
44
102
{ACAD_REACTORS
330
43
102
}
330
43
100
AcDbMaterial
  1
ByLayer
 72
     1
 94
      127
  0
MATERIAL
  5
46
102
{ACAD_REACTORS
330
43
102
}
330
43
100
AcDbMaterial
  1
Global
 72
     1
 94
      127
  0
MLEADERSTYLE
  5
5C
102
{ACAD_REACTORS
330
5B
102
}
330
5B
100
AcDbMLeaderStyle
179
     2
170
     2
171
     1
172
     0
 90
        2
 40
0.0
 41
0.0
173
     1
 91
-1056964608
340
14
 92
       -2
290
     1
 42
0.09
291
     1
 43
0.36
  3
Standard
341
0
 44
0.18
300

342
11
174
     1
178
     6
175
     1
176
     0
 93
-1056964608
 45
0.18
292
     0
297
     0
 46
0.18
343
0
 94
-1056964608
 47
1.0
 49
1.0
140
1.0
293
     1
141
0.0
294
     1
177
     0
142
1.0
295
     0
296
     0
143
0.125
271
     0
272
     9
273
     9
298
     0
  0
MLINESTYLE
  5
18
102
{ACAD_REACTORS
330
17
102
}
330
17
100
AcDbMlineStyle
  2
Standard
 70
     0
  3

 62
   256
 51
90.0
 52
90.0
 71
     2
 49
0.5
 62
   256
  6
BYLAYER
 49
-0.5
 62
   256
  6
BYLAYER
  0
ACDBPLACEHOLDER
  5
F
102
{ACAD_REACTORS
330
E
102
}
330
E
  0
SCALE
  5
48
102
{ACAD_REACTORS
330
47
102
}
330
47
100
AcDbScale
 70
     0
300
1:1
140
1.0
141
1.0
290
     1
  0
SCALE
  5
49
102
{ACAD_REACTORS
330
47
102
}
330
47
100
AcDbScale
 70
     0
300
1/128" = 1'-0"
140
0.0078125
141
12.0
290
     0
  0
SCALE
  5
4A
102
{ACAD_REACTORS
330
47
102
}
330
47
100
AcDbScale
 70
     0
300
1/64" = 1'-0"
140
0.015625
141
12.0
290
     0
  0
SCALE
  5
4B
102
{ACAD_REACTORS
330
47
102
}
330
47
100
AcDbScale
 70
     0
300
1/32" = 1'-0"
140
0.03125
141
12.0
290
     0
  0
SCALE
  5
4C
102
{ACAD_REACTORS
330
47
102
}
330
47
100
AcDbScale
 70
     0
300
1/16" = 1'-0"
140
0.0625
141
12.0
290
     0
  0
SCALE
  5
4D
102
{ACAD_REACTORS
330
47
102
}
330
47
100
AcDbScale
 70
     0
300
3/32" = 1'-0"
140
0.09375
141
12.0
290
     0
  0
SCALE
  5
4E
102
{ACAD_REACTORS
330
47
102
}
330
47
100
AcDbScale
 70
     0
300
1/8" = 1'-0"
140
0.125
141
12.0
290
     0
  0
SCALE
  5
4F
102
{ACAD_REACTORS
330
47
102
}
330
47
100
AcDbScale
 70
     0
300
3/16" = 1'-0"
140
0.1875
141
12.0
290
     0
  0
SCALE
  5
50
102
{ACAD_REACTORS
330
47
102
}
330
47
100
AcDbScale
 70
     0
300
1/4" = 1'-0"
140
0.25
141
12.0
290
     0
  0
SCALE
  5
51
102
{ACAD_REACTORS
330
47
102
}
330
47
100
AcDbScale
 70
     0
300
3/8" = 1'-0"
140
0.375
141
12.0
290
     0
  0
SCALE
  5
52
102
{ACAD_REACTORS
330
47
102
}
330
47
100
AcDbScale
 70
     0
300
1/2" = 1'-0"
140
0.5
141
12.0
290
     0
  0
SCALE
  5
53
102
{ACAD_REACTORS
330
47
102
}
330
47
100
AcDbScale
 70
     0
300
3/4" = 1'-0"
140
0.75
141
12.0
290
     0
  0
SCALE
  5
54
102
{ACAD_REACTORS
330
47
102
}
330
47
100
AcDbScale
 70
     0
300
1" = 1'-0"
140
1.0
141
12.0
290
     0
  0
SCALE
  5
55
102
{ACAD_REACTORS
330
47
102
}
330
47
100
AcDbScale
 70
     0
300
1-1/2" = 1'-0"
140
1.5
141
12.0
290
     0
  0
SCALE
  5
56
102
{ACAD_REACTORS
330
47
102
}
330
47
100
AcDbScale
 70
     0
300
3" = 1'-0"
140
3.0
141
12.0
290
     0
  0
SCALE
  5
57
102
{ACAD_REACTORS
330
47
102
}
330
47
100
AcDbScale
 70
     0
300
6" = 1'-0"
140
6.0
141
12.0
290
     0
  0
SCALE
  5
58
102
{ACAD_REACTORS
330
47
102
}
330
47
100
AcDbScale
 70
     0
300
1'-0" = 1'-0"
140
12.0
141
12.0
290
     0
  0
TABLESTYLE
  5
5A
102
{ACAD_REACTORS
330
59
102
}
102
{ACAD_XDICTIONARY
360
73
102
}
330
59
100
AcDbTableStyle
  3
Standard
 70
     0
 71
     0
 40
0.06
 41
0.06
280
     0
281
     0
  7
Standard
140
0.18
170
     2
 62
     0
 63
   257
283
     0
 90
        4
 91
        0
  1

274
    -2
284
     1
 64
     0
275
    -2
285
     1
 65
     0
276
    -2
286
     1
 66
     0
277
    -2
287
     1
 67
     0
278
    -2
288
     1
 68
     0
279
    -2
289
     1
 69
     0
  7
Standard
140
0.25
170
     5
 62
     0
 63
   257
283
     0
 90
        4
 91
        0
  1

274
    -2
284
     1
 64
     0
275
    -2
285
     1
 65
     0
276
    -2
286
     1
 66
     0
277
    -2
287
     1
 67
     0
278
    -2
288
     1
 68
     0
279
    -2
289
     1
 69
     0
  7
Standard
140
0.18
170
     5
 62
     0
 63
   257
283
     0
 90
        4
 91
        0
  1

274
    -2
284
     1
 64
     0
275
    -2
285
     1
 65
     0
276
    -2
286
     1
 66
     0
277
    -2
287
     1
 67
     0
278
    -2
288
     1
 68
     0
279
    -2
289
     1
 69
     0
  0
VISUALSTYLE
  5
2F
102
{ACAD_REACTORS
330
2A
102
}
330
2A
100
AcDbVisualStyle
  2
2dWireframe
 70
     4
177
     3
291
     0
 70
    58
 90
        0
176
     1
 90
        2
176
     1
 90
        0
176
     1
 90
        0
176
     1
 40
0.6
176
     1
 40
30.0
176
     1
 62
     7
420
 16777215
176
     1
 90
        1
176
     1
 90
        4
176
     1
 62
     7
176
     1
 62
   257
176
     1
 90
        1
176
     1
 90
        1
176
     1
 40
1.0
176
     1
 90
        0
176
     1
 62
   257
176
     1
 40
1.0
176
     1
 90
        1
176
     1
 90
        6
176
     1
 90
        2
176
     1
 62
     7
176
     1
 90
        5
176
     1
 90
        0
176
     1
 90
        0
176
     1
290
     0
176
     1
 90
        1
176
     1
 40
0.0
176
     1
 90
        0
176
     1
290
     1
176
     1
290
     1
176
     1
290
     0
176
     1
290
     0
176
     1
290
     0
176
     1
290
     0
176
     1
290
     0
176
     1
290
     0
176
     1
290
     0
176
     1
 90
       50
176
     1
 40
0.0
176
     1
 40
1.0
176
     1
 90
        0
176
     1
 62
    18
420
        0
176
     1
 90
       50
176
     1
 90
        3
176
     1
 62
     5
420
      255
176
     1
290
     0
176
     1
 90
       50
176
     1
 90
       50
176
     1
 90
       50
176
     1
290
     0
176
     1
 90
       50
176
     1
 62
   256
176
     0
 40
1.0
176
     0
 90
        2
176
     1
  1
strokes_ogs.tif
176
     1
290
     0
176
     1
 40
1.0
176
     1
 40
1.0
176
     1
  0
VISUALSTYLE
  5
32
102
{ACAD_REACTORS
330
2A
102
}
330
2A
100
AcDbVisualStyle
  2
Basic
 70
     7
177
     3
291
     1
 70
    58
 90
        1
176
     1
 90
        0
176
     1
 90
        1
176
     1
 90
        0
176
     1
 40
0.6
176
     1
 40
30.0
176
     1
 62
     7
420
 16777215
176
     1
 90
        0
176
     1
 90
        4
176
     1
 62
     7
176
     1
 62
   257
176
     1
 90
        1
176
     1
 90
        1
176
     1
 40
1.0
176
     1
 90
        8
176
     1
 62
     7
176
     1
 40
1.0
176
     1
 90
        1
176
     1
 90
        6
176
     1
 90
        2
176
     1
 62
     7
176
     1
 90
        5
176
     1
 90
        0
176
     1
 90
        0
176
     1
290
     0
176
     1
 90
        1
176
     1
 40
0.0
176
     1
 90
        0
176
     1
290
     0
176
     1
290
     1
176
     1
290
     1
176
     1
290
     0
176
     1
290
     0
176
     1
290
     0
176
     1
290
     0
176
     1
290
     0
176
     1
290
     0
176
     1
 90
       50
176
     1
 40
0.0
176
     1
 40
1.0
176
     1
 90
        0
176
     1
 62
    18
420
        0
176
     1
 90
       50
176
     1
 90
        3
176
     1
 62
     5
420
      255
176
     1
290
     0
176
     1
 90
       50
176
     1
 90
       50
176
     1
 90
       50
176
     1
290
     0
176
     1
 90
       50
176
     1
 62
   256
176
     0
 40
1.0
176
     0
 90
        2
176
     1
  1
strokes_ogs.tif
176
     1
290
     0
176
     1
 40
1.0
176
     1
 40
1.0
176
     1
  0
VISUALSTYLE
  5
36
102
{ACAD_REACTORS
330
2A
102
}
330
2A
100
AcDbVisualStyle
  2
Brighten
 70
    12
177
     3
291
     1
 70
    58
 90
        2
176
     1
 90
        2
176
     1
 90
        0
176
     1
 90
        0
176
     1
 40
0.6
176
     1
 40
30.0
176
     1
 62
     7
420
 16777215
176
     1
 90
        1
176
     1
 90
        4
176
     1
 62
     7
176
     1
 62
   257
176
     1
 90
        1
176
     1
 90
        1
176
     1
 40
1.0
176
     1
 90
        8
176
     1
 62
     7
176
     1
 40
1.0
176
     1
 90
        1
176
     1
 90
        6
176
     1
 90
        2
176
     1
 62
     7
176
     1
 90
        5
176
     1
 90
        0
176
     1
 90
        0
176
     1
290
     0
176
     1
 90
        1
176
     1
 40
50.0
176
     1
 90
        0
176
     1
290
     0
176
     1
290
     1
176
     1
290
     1
176
     1
290
     0
176
     1
290
     0
176
     1
290
     0
176
     1
290
     0
176
     1
290
     0
176
     1
290
     0
176
     1
 90
       50
176
     1
 40
0.0
176
     1
 40
1.0
176
     1
 90
        0
176
     1
 62
    18
420
        0
176
     1
 90
       50
176
     1
 90
        3
176
     1
 62
     5
420
      255
176
     1
290
     0
176
     1
 90
       50
176
     1
 90
       50
176
     1
 90
       50
176
     1
290
     0
176
     1
 90
       50
176
     1
 62
   256
176
     0
 40
1.0
176
     0
 90
        2
176
     1
  1
strokes_ogs.tif
176
     1
290
     0
176
     1
 40
1.0
176
     1
 40
1.0
176
     1
  0
VISUALSTYLE
  5
3A
102
{ACAD_REACTORS
330
2A
102
}
330
2A
100
AcDbVisualStyle
  2
ColorChange
 70
    16
177
     3
291
     1
 70
    58
 90
        2
176
     1
 90
        2
176
     1
 90
        3
176
     1
 90
        0
176
     1
 40
0.6
176
     1
 40
30.0
176
     1
 62
     8
420
  8421504
176
     1
 90
        1
176
     1
 90
        4
176
     1
 62
     7
176
     1
 62
   257
176
     1
 90
        1
176
     1
 90
        1
176
     1
 40
1.0
176
     1
 90
        8
176
     1
 62
     8
420
  8421504
176
     1
 40
1.0
176
     1
 90
        1
176
     1
 90
        6
176
     1
 90
        2
176
     1
 62
     7
176
     1
 90
        5
176
     1
 90
        0
176
     1
 90
        0
176
     1
290
     0
176
     1
 90
        1
176
     1
 40
0.0
176
     1
 90
        0
176
     1
290
     0
176
     1
290
     1
176
     1
290
     1
176
     1
290
     0
176
     1
290
     0
176
     1
290
     0
176
     1
290
     0
176
     1
290
     0
176
     1
290
     0
176
     1
 90
       50
176
     1
 40
0.0
176
     1
 40
1.0
176
     1
 90
        0
176
     1
 62
    18
420
        0
176
     1
 90
       50
176
     1
 90
        3
176
     1
 62
     5
420
      255
176
     1
290
     0
176
     1
 90
       50
176
     1
 90
       50
176
     1
 90
       50
176
     1
290
     0
176
     1
 90
       50
176
     1
 62
   256
176
     0
 40
1.0
176
     0
 90
        2
176
     1
  1
strokes_ogs.tif
176
     1
290
     0
176
     1
 40
1.0
176
     1
 40
1.0
176
     1
  0
VISUALSTYLE
  5
34
102
{ACAD_REACTORS
330
2A
102
}
330
2A
100
AcDbVisualStyle
  2
Conceptual
 70
     9
177
     3
291
     0
 70
    58
 90
        3
176
     1
 90
        2
176
     1
 90
        0
176
     1
 90
        0
176
     1
 40
0.6
176
     1
 40
30.0
176
     1
 62
     7
420
 16777215
176
     1
 90
        2
176
     1
 90
        2
176
     1
 62
     7
176
     1
 62
   257
176
     1
 90
        1
176
     1
 90
        1
176
     1
 40
179.0
176
     1
 90
        8
176
     1
 62
     7
176
     1
 40
1.0
176
     1
 90
        1
176
     1
 90
        6
176
     1
 90
        2
176
     1
 62
     7
176
     1
 90
        3
176
     1
 90
        0
176
     1
 90
        0
176
     1
290
     0
176
     1
 90
        1
176
     1
 40
0.0
176
     1
 90
        0
176
     1
290
     0
176
     1
290
     1
176
     1
290
     1
176
     1
290
     0
176
     1
290
     0
176
     1
290
     0
176
     1
290
     0
176
     1
290
     0
176
     1
290
     0
176
     1
 90
       50
176
     1
 40
0.0
176
     1
 40
1.0
176
     1
 90
        0
176
     1
 62
    18
420
        0
176
     1
 90
       50
176
     1
 90
        3
176
     1
 62
     5
420
      255
176
     1
290
     0
176
     1
 90
       50
176
     1
 90
       50
176
     1
 90
       50
176
     1
290
     0
176
     1
 90
       50
176
     1
 62
   256
176
     0
 40
1.0
176
     0
 90
        2
176
     1
  1
strokes_ogs.tif
176
     1
290
     0
176
     1
 40
1.0
176
     1
 40
1.0
176
     1
  0
VISUALSTYLE
  5
35
102
{ACAD_REACTORS
330
2A
102
}
330
2A
100
AcDbVisualStyle
  2
Dim
 70
    11
177
     3
291
     1
 70
    58
 90
        2
176
     1
 90
        2
176
     1
 90
        0
176
     1
 90
        0
176
     1
 40
0.6
176
     1
 40
30.0
176
     1
 62
     7
420
 16777215
176
     1
 90
        1
176
     1
 90
        4
176
     1
 62
     7
176
     1
 62
   257
176
     1
 90
        1
176
     1
 90
        1
176
     1
 40
1.0
176
     1
 90
        8
176
     1
 62
     7
176
     1
 40
1.0
176
     1
 90
        1
176
     1
 90
        6
176
     1
 90
        2
176
     1
 62
     7
176
     1
 90
        5
176
     1
 90
        0
176
     1
 90
        0
176
     1
290
     0
176
     1
 90
        1
176
     1
 40
-50.0
176
     1
 90
        0
176
     1
290
     0
176
     1
290
     1
176
     1
290
     1
176
     1
290
     0
176
     1
290
     0
176
     1
290
     0
176
     1
290
     0
176
     1
290
     0
176
     1
290
     0
176
     1
 90
       50
176
     1
 40
0.0
176
     1
 40
1.0
176
     1
 90
        0
176
     1
 62
    18
420
        0
176
     1
 90
       50
176
     1
 90
        3
176
     1
 62
     5
420
      255
176
     1
290
     0
176
     1
 90
       50
176
     1
 90
       50
176
     1
 90
       50
176
     1
290
     0
176
     1
 90
       50
176
     1
 62
   256
176
     0
 40
1.0
176
     0
 90
        2
176
     1
  1
strokes_ogs.tif
176
     1
290
     0
176
     1
 40
1.0
176
     1
 40
1.0
176
     1
  0
VISUALSTYLE
  5
3D
102
{ACAD_REACTORS
330
2A
102
}
330
2A
100
AcDbVisualStyle
  2
EdgeColorOff
 70
    22
177
     3
291
     1
 70
    58
 90
        2
176
     0
 90
        2
176
     0
 90
        0
176
     0
 90
        0
176
     0
 40
0.6
176
     0
 40
30.0
176
     0
 62
     7
420
 16777215
176
     0
 90
        1
176
     0
 90
        4
176
     0
 62
     7
176
     0
 62
   257
176
     0
 90
        1
176
     0
 90
        1
176
     0
 40
1.0
176
     0
 90
        8
176
     2
 62
     7
176
     0
 40
1.0
176
     0
 90
        1
176
     0
 90
        6
176
     0
 90
        2
176
     0
 62
     7
176
     0
 90
        5
176
     0
 90
        0
176
     0
 90
        0
176
     0
290
     0
176
     0
 90
        1
176
     0
 40
0.0
176
     0
 90
        0
176
     0
290
     0
176
     0
290
     1
176
     0
290
     1
176
     0
290
     0
176
     0
290
     0
176
     0
290
     0
176
     0
290
     0
176
     0
290
     0
176
     0
290
     0
176
     0
 90
       50
176
     0
 40
0.0
176
     0
 40
1.0
176
     0
 90
        0
176
     0
 62
    18
420
        0
176
     0
 90
       50
176
     0
 90
        3
176
     0
 62
     5
420
      255
176
     0
290
     0
176
     0
 90
       50
176
     0
 90
       50
176
     0
 90
       50
176
     0
290
     0
176
     0
 90
       50
176
     0
 62
   256
176
     0
 40
1.0
176
     0
 90
        2
176
     0
  1
strokes_ogs.tif
176
     0
290
     0
176
     0
 40
1.0
176
     0
 40
1.0
176
     0
  0
VISUALSTYLE
  5
39
102
{ACAD_REACTORS
330
2A
102
}
330
2A
100
AcDbVisualStyle
  2
Facepattern
 70
    15
177
     3
291
     1
 70
    58
 90
        2
176
     1
 90
        2
176
     1
 90
        0
176
     1
 90
        0
176
     1
 40
0.6
176
     1
 40
30.0
176
     1
 62
     7
420
 16777215
176
     1
 90
        1
176
     1
 90
        4
176
     1
 62
     7
176
     1
 62
   257
176
     1
 90
        1
176
     1
 90
        1
176
     1
 40
1.0
176
     1
 90
        8
176
     1
 62
     7
176
     1
 40
1.0
176
     1
 90
        1
176
     1
 90
        6
176
     1
 90
        2
176
     1
 62
     7
176
     1
 90
        5
176
     1
 90
        0
176
     1
 90
        0
176
     1
290
     0
176
     1
 90
        1
176
     1
 40
0.0
176
     1
 90
        0
176
     1
290
     0
176
     1
290
     1
176
     1
290
     1
176
     1
290
     0
176
     1
290
     0
176
     1
290
     0
176
     1
290
     0
176
     1
290
     0
176
     1
290
     0
176
     1
 90
       50
176
     1
 40
0.0
176
     1
 40
1.0
176
     1
 90
        0
176
     1
 62
    18
420
        0
176
     1
 90
       50
176
     1
 90
        3
176
     1
 62
     5
420
      255
176
     1
290
     0
176
     1
 90
       50
176
     1
 90
       50
176
     1
 90
       50
176
     1
290
     0
176
     1
 90
       50
176
     1
 62
   256
176
     0
 40
1.0
176
     0
 90
        2
176
     1
  1
strokes_ogs.tif
176
     1
290
     0
176
     1
 40
1.0
176
     1
 40
1.0
176
     1
  0
VISUALSTYLE
  5
2B
102
{ACAD_REACTORS
330
2A
102
}
330
2A
100
AcDbVisualStyle
  2
Flat
 70
     0
177
     3
291
     1
 70
    58
 90
        2
176
     1
 90
        1
176
     1
 90
        1
176
     1
 90
        2
176
     1
 40
0.6
176
     1
 40
30.0
176
     1
 62
     7
420
 16777215
176
     1
 90
        0
176
     1
 90
        0
176
     1
 62
     7
176
     1
 62
   257
176
     1
 90
        1
176
     1
 90
        1
176
     1
 40
1.0
176
     1
 90
        8
176
     1
 62
     7
176
     1
 40
1.0
176
     1
 90
        1
176
     1
 90
        6
176
     1
 90
        2
176
     1
 62
     7
176
     1
 90
        5
176
     1
 90
        0
176
     1
 90
        0
176
     1
290
     0
176
     1
 90
       13
176
     1
 40
0.0
176
     1
 90
        0
176
     1
290
     0
176
     1
290
     1
176
     1
290
     1
176
     1
290
     0
176
     1
290
     0
176
     1
290
     0
176
     1
290
     0
176
     1
290
     0
176
     1
290
     0
176
     1
 90
       50
176
     1
 40
0.0
176
     1
 40
1.0
176
     1
 90
        0
176
     1
 62
    18
420
        0
176
     1
 90
       50
176
     1
 90
        3
176
     1
 62
     5
420
      255
176
     1
290
     0
176
     1
 90
       50
176
     1
 90
       50
176
     1
 90
       50
176
     1
290
     0
176
     1
 90
       50
176
     1
 62
   256
176
     0
 40
1.0
176
     0
 90
        2
176
     1
  1
strokes_ogs.tif
176
     1
290
     0
176
     1
 40
1.0
176
     1
 40
1.0
176
     1
  0
VISUALSTYLE
  5
2C
102
{ACAD_REACTORS
330
2A
102
}
330
2A
100
AcDbVisualStyle
  2
FlatWithEdges
 70
     1
177
     3
291
     1
 70
    58
 90
        2
176
     1
 90
        1
176
     1
 90
        1
176
     1
 90
        2
176
     1
 40
0.6
176
     1
 40
30.0
176
     1
 62
     7
420
 16777215
176
     1
 90
        1
176
     1
 90
        0
176
     1
 62
     7
176
     1
 62
   257
176
     1
 90
        1
176
     1
 90
        1
176
     1
 40
1.0
176
     1
 90
        0
176
     1
 62
   257
176
     1
 40
1.0
176
     1
 90
        1
176
     1
 90
        6
176
     1
 90
        2
176
     1
 62
     7
176
     1
 90
        5
176
     1
 90
        0
176
     1
 90
        0
176
     1
290
     0
176
     1
 90
       13
176
     1
 40
0.0
176
     1
 90
        0
176
     1
290
     0
176
     1
290
     1
176
     1
290
     1
176
     1
290
     0
176
     1
290
     0
176
     1
290
     0
176
     1
290
     0
176
     1
290
     0
176
     1
290
     0
176
     1
 90
       50
176
     1
 40
0.0
176
     1
 40
1.0
176
     1
 90
        0
176
     1
 62
    18
420
        0
176
     1
 90
       50
176
     1
 90
        3
176
     1
 62
     5
420
      255
176
     1
290
     0
176
     1
 90
       50
176
     1
 90
       50
176
     1
 90
       50
176
     1
290
     0
176
     1
 90
       50
176
     1
 62
   256
176
     0
 40
1.0
176
     0
 90
        2
176
     1
  1
strokes_ogs.tif
176
     1
290
     0
176
     1
 40
1.0
176
     1
 40
1.0
176
     1
  0
VISUALSTYLE
  5
2D
102
{ACAD_REACTORS
330
2A
102
}
330
2A
100
AcDbVisualStyle
  2
Gouraud
 70
     2
177
     3
291
     1
 70
    58
 90
        2
176
     1
 90
        2
176
     1
 90
        1
176
     1
 90
        2
176
     1
 40
0.6
176
     1
 40
30.0
176
     1
 62
     7
420
 16777215
176
     1
 90
        0
176
     1
 90
        0
176
     1
 62
     7
176
     1
 62
   257
176
     1
 90
        1
176
     1
 90
        1
176
     1
 40
1.0
176
     1
 90
        0
176
     1
 62
     7
176
     1
 40
1.0
176
     1
 90
        1
176
     1
 90
        6
176
     1
 90
        2
176
     1
 62
     7
176
     1
 90
        5
176
     1
 90
        0
176
     1
 90
        0
176
     1
290
     0
176
     1
 90
       13
176
     1
 40
0.0
176
     1
 90
        0
176
     1
290
     0
176
     1
290
     1
176
     1
290
     1
176
     1
290
     0
176
     1
290
     0
176
     1
290
     0
176
     1
290
     0
176
     1
290
     0
176
     1
290
     0
176
     1
 90
       50
176
     1
 40
0.0
176
     1
 40
1.0
176
     1
 90
        0
176
     1
 62
    18
420
        0
176
     1
 90
       50
176
     1
 90
        3
176
     1
 62
     5
420
      255
176
     1
290
     0
176
     1
 90
       50
176
     1
 90
       50
176
     1
 90
       50
176
     1
290
     0
176
     1
 90
       50
176
     1
 62
   256
176
     0
 40
1.0
176
     0
 90
        2
176
     1
  1
strokes_ogs.tif
176
     1
290
     0
176
     1
 40
1.0
176
     1
 40
1.0
176
     1
  0
VISUALSTYLE
  5
2E
102
{ACAD_REACTORS
330
2A
102
}
330
2A
100
AcDbVisualStyle
  2
GouraudWithEdges
 70
     3
177
     3
291
     1
 70
    58
 90
        2
176
     1
 90
        2
176
     1
 90
        1
176
     1
 90
        2
176
     1
 40
0.6
176
     1
 40
30.0
176
     1
 62
     7
420
 16777215
176
     1
 90
        1
176
     1
 90
        0
176
     1
 62
     7
176
     1
 62
   257
176
     1
 90
        1
176
     1
 90
        1
176
     1
 40
1.0
176
     1
 90
        0
176
     1
 62
   257
176
     1
 40
1.0
176
     1
 90
        1
176
     1
 90
        6
176
     1
 90
        2
176
     1
 62
     7
176
     1
 90
        5
176
     1
 90
        0
176
     1
 90
        0
176
     1
290
     0
176
     1
 90
       13
176
     1
 40
0.0
176
     1
 90
        0
176
     1
290
     0
176
     1
290
     1
176
     1
290
     1
176
     1
290
     0
176
     1
290
     0
176
     1
290
     0
176
     1
290
     0
176
     1
290
     0
176
     1
290
     0
176
     1
 90
       50
176
     1
 40
0.0
176
     1
 40
1.0
176
     1
 90
        0
176
     1
 62
    18
420
        0
176
     1
 90
       50
176
     1
 90
        3
176
     1
 62
     5
420
      255
176
     1
290
     0
176
     1
 90
       50
176
     1
 90
       50
176
     1
 90
       50
176
     1
290
     0
176
     1
 90
       50
176
     1
 62
   256
176
     0
 40
1.0
176
     0
 90
        2
176
     1
  1
strokes_ogs.tif
176
     1
290
     0
176
     1
 40
1.0
176
     1
 40
1.0
176
     1
  0
VISUALSTYLE
  5
31
102
{ACAD_REACTORS
330
2A
102
}
330
2A
100
AcDbVisualStyle
  2
Hidden
 70
     6
177
     3
291
     0
 70
    58
 90
        1
176
     1
 90
        2
176
     1
 90
        2
176
     1
 90
        0
176
     1
 40
0.6
176
     1
 40
30.0
176
     1
 62
     7
420
 16777215
176
     1
 90
        2
176
     1
 90
        2
176
     1
 62
     7
176
     1
 62
   257
176
     1
 90
        2
176
     1
 90
        1
176
     1
 40
40.0
176
     1
 90
        0
176
     1
 62
   257
176
     1
 40
1.0
176
     1
 90
        1
176
     1
 90
        6
176
     1
 90
        2
176
     1
 62
     7
176
     1
 90
        3
176
     1
 90
        0
176
     1
 90
        0
176
     1
290
     0
176
     1
 90
        1
176
     1
 40
0.0
176
     1
 90
        0
176
     1
290
     0
176
     1
290
     1
176
     1
290
     1
176
     1
290
     0
176
     1
290
     0
176
     1
290
     0
176
     1
290
     0
176
     1
290
     0
176
     1
290
     0
176
     1
 90
       50
176
     1
 40
0.0
176
     1
 40
1.0
176
     1
 90
        0
176
     1
 62
    18
420
        0
176
     1
 90
       50
176
     1
 90
        3
176
     1
 62
     5
420
      255
176
     1
290
     0
176
     1
 90
       50
176
     1
 90
       50
176
     1
 90
       50
176
     1
290
     0
176
     1
 90
       50
176
     1
 62
   256
176
     0
 40
1.0
176
     0
 90
        2
176
     1
  1
strokes_ogs.tif
176
     1
290
     0
176
     1
 40
1.0
176
     1
 40
1.0
176
     1
  0
VISUALSTYLE
  5
3B
102
{ACAD_REACTORS
330
2A
102
}
330
2A
100
AcDbVisualStyle
  2
JitterOff
 70
    20
177
     3
291
     1
 70
    58
 90
        2
176
     0
 90
        2
176
     0
 90
        0
176
     0
 90
        0
176
     0
 40
0.6
176
     0
 40
30.0
176
     0
 62
     7
420
 16777215
176
     0
 90
        1
176
     0
 90
        4
176
     0
 62
     7
176
     0
 62
   257
176
     0
 90
        1
176
     0
 90
        1
176
     0
 40
1.0
176
     0
 90
       10
176
     2
 62
     7
176
     0
 40
1.0
176
     0
 90
        1
176
     0
 90
        6
176
     0
 90
        2
176
     0
 62
     7
176
     0
 90
        5
176
     0
 90
        0
176
     0
 90
        0
176
     0
290
     0
176
     0
 90
        1
176
     0
 40
0.0
176
     0
 90
        0
176
     0
290
     0
176
     0
290
     1
176
     0
290
     1
176
     0
290
     0
176
     0
290
     0
176
     0
290
     0
176
     0
290
     0
176
     0
290
     0
176
     0
290
     0
176
     0
 90
       50
176
     0
 40
0.0
176
     0
 40
1.0
176
     0
 90
        0
176
     0
 62
    18
420
        0
176
     0
 90
       50
176
     0
 90
        3
176
     0
 62
     5
420
      255
176
     0
290
     0
176
     0
 90
       50
176
     0
 90
       50
176
     0
 90
       50
176
     0
290
     0
176
     0
 90
       50
176
     0
 62
   256
176
     0
 40
1.0
176
     0
 90
        2
176
     0
  1
strokes_ogs.tif
176
     0
290
     0
176
     0
 40
1.0
176
     0
 40
1.0
176
     0
  0
VISUALSTYLE
  5
38
102
{ACAD_REACTORS
330
2A
102
}
330
2A
100
AcDbVisualStyle
  2
Linepattern
 70
    14
177
     3
291
     1
 70
    58
 90
        2
176
     1
 90
        2
176
     1
 90
        0
176
     1
 90
        0
176
     1
 40
0.6
176
     1
 40
30.0
176
     1
 62
     7
420
 16777215
176
     1
 90
        1
176
     1
 90
        4
176
     1
 62
     7
176
     1
 62
   257
176
     1
 90
        7
176
     1
 90
        7
176
     1
 40
1.0
176
     1
 90
        8
176
     1
 62
     7
176
     1
 40
1.0
176
     1
 90
        1
176
     1
 90
        6
176
     1
 90
        2
176
     1
 62
     7
176
     1
 90
        5
176
     1
 90
        0
176
     1
 90
        0
176
     1
290
     0
176
     1
 90
        1
176
     1
 40
0.0
176
     1
 90
        0
176
     1
290
     0
176
     1
290
     1
176
     1
290
     1
176
     1
290
     0
176
     1
290
     0
176
     1
290
     0
176
     1
290
     0
176
     1
290
     0
176
     1
290
     0
176
     1
 90
       50
176
     1
 40
0.0
176
     1
 40
1.0
176
     1
 90
        0
176
     1
 62
    18
420
        0
176
     1
 90
       50
176
     1
 90
        3
176
     1
 62
     5
420
      255
176
     1
290
     0
176
     1
 90
       50
176
     1
 90
       50
176
     1
 90
       50
176
     1
290
     0
176
     1
 90
       50
176
     1
 62
   256
176
     0
 40
1.0
176
     0
 90
        2
176
     1
  1
strokes_ogs.tif
176
     1
290
     0
176
     1
 40
1.0
176
     1
 40
1.0
176
     1
  0
VISUALSTYLE
  5
3C
102
{ACAD_REACTORS
330
2A
102
}
330
2A
100
AcDbVisualStyle
  2
OverhangOff
 70
    21
177
     3
291
     1
 70
    58
 90
        2
176
     0
 90
        2
176
     0
 90
        0
176
     0
 90
        0
176
     0
 40
0.6
176
     0
 40
30.0
176
     0
 62
     7
420
 16777215
176
     0
 90
        1
176
     0
 90
        4
176
     0
 62
     7
176
     0
 62
   257
176
     0
 90
        1
176
     0
 90
        1
176
     0
 40
1.0
176
     0
 90
        9
176
     2
 62
     7
176
     0
 40
1.0
176
     0
 90
        1
176
     0
 90
        6
176
     0
 90
        2
176
     0
 62
     7
176
     0
 90
        5
176
     0
 90
        0
176
     0
 90
        0
176
     0
290
     0
176
     0
 90
        1
176
     0
 40
0.0
176
     0
 90
        0
176
     0
290
     0
176
     0
290
     1
176
     0
290
     1
176
     0
290
     0
176
     0
290
     0
176
     0
290
     0
176
     0
290
     0
176
     0
290
     0
176
     0
290
     0
176
     0
 90
       50
176
     0
 40
0.0
176
     0
 40
1.0
176
     0
 90
        0
176
     0
 62
    18
420
        0
176
     0
 90
       50
176
     0
 90
        3
176
     0
 62
     5
420
      255
176
     0
290
     0
176
     0
 90
       50
176
     0
 90
       50
176
     0
 90
       50
176
     0
290
     0
176
     0
 90
       50
176
     0
 62
   256
176
     0
 40
1.0
176
     0
 90
        2
176
     0
  1
strokes_ogs.tif
176
     0
290
     0
176
     0
 40
1.0
176
     0
 40
1.0
176
     0
  0
VISUALSTYLE
  5
33
102
{ACAD_REACTORS
330
2A
102
}
330
2A
100
AcDbVisualStyle
  2
Realistic
 70
     8
177
     3
291
     0
 70
    58
 90
        2
176
     1
 90
        3
176
     1
 90
        0
176
     1
 90
        2
176
     1
 40
0.6
176
     1
 40
30.0
176
     1
 62
     7
420
 16777215
176
     1
 90
        0
176
     1
 90
        0
176
     1
 62
     7
176
     1
 62
   257
176
     1
 90
        1
176
     1
 90
        1
176
     1
 40
1.0
176
     1
 90
        8
176
     1
 62
   257
176
     1
 40
1.0
176
     1
 90
        1
176
     1
 90
        6
176
     1
 90
        2
176
     1
 62
     7
176
     1
 90
        3
176
     1
 90
        0
176
     1
 90
        0
176
     1
290
     0
176
     1
 90
       13
176
     1
 40
0.0
176
     1
 90
        0
176
     1
290
     0
176
     1
290
     1
176
     1
290
     1
176
     1
290
     0
176
     1
290
     0
176
     1
290
     0
176
     1
290
     0
176
     1
290
     0
176
     1
290
     0
176
     1
 90
       50
176
     1
 40
0.0
176
     1
 40
1.0
176
     1
 90
        0
176
     1
 62
    18
420
        0
176
     1
 90
       50
176
     1
 90
        3
176
     1
 62
     5
420
      255
176
     1
290
     0
176
     1
 90
       50
176
     1
 90
       50
176
     1
 90
       50
176
     1
290
     0
176
     1
 90
       50
176
     1
 62
   256
176
     0
 40
1.0
176
     0
 90
        2
176
     1
  1
strokes_ogs.tif
176
     1
290
     0
176
     1
 40
1.0
176
     1
 40
1.0
176
     1
  0
VISUALSTYLE
  5
42
102
{ACAD_REACTORS
330
2A
102
}
330
2A
100
AcDbVisualStyle
  2
Shaded
 70
    27
177
     3
291
     0
 70
    58
 90
        2
176
     1
 90
        2
176
     1
 90
        1
176
     1
 90
        2
176
     1
 40
0.6
176
     1
 40
30.0
176
     1
 62
     7
420
 16777215
176
     1
 90
        0
176
     1
 90
        4
176
     1
 62
     7
176
     1
 62
   257
176
     1
 90
        1
176
     1
 90
        1
176
     1
 40
1.0
176
     1
 90
        8
176
     1
 62
   257
176
     1
 40
1.0
176
     1
 90
        1
176
     1
 90
        6
176
     1
 90
        2
176
     1
 62
     8
420
  7895160
176
     1
 90
        3
176
     1
 90
        0
176
     1
 90
        0
176
     1
290
     0
176
     1
 90
        5
176
     1
 40
0.0
176
     1
 90
        0
176
     1
290
     0
176
     1
290
     1
176
     1
290
     1
176
     1
290
     0
176
     1
290
     0
176
     1
290
     0
176
     1
290
     0
176
     1
290
     0
176
     1
290
     0
176
     1
 90
       50
176
     1
 40
0.0
176
     1
 40
1.0
176
     1
 90
        0
176
     1
 62
    18
420
        0
176
     1
 90
       50
176
     1
 90
        3
176
     1
 62
     5
420
      255
176
     1
290
     0
176
     1
 90
       50
176
     1
 90
       50
176
     1
 90
       50
176
     1
290
     0
176
     1
 90
       50
176
     1
 62
   256
176
     0
 40
1.0
176
     0
 90
        2
176
     1
  1
strokes_ogs.tif
176
     1
290
     0
176
     1
 40
1.0
176
     1
 40
1.0
176
     1
  0
VISUALSTYLE
  5
41
102
{ACAD_REACTORS
330
2A
102
}
330
2A
100
AcDbVisualStyle
  2
Shaded with edges
 70
    26
177
     3
291
     0
 70
    58
 90
        2
176
     1
 90
        2
176
     1
 90
        1
176
     1
 90
        2
176
     1
 40
0.6
176
     1
 40
30.0
176
     1
 62
     7
420
 16777215
176
     1
 90
        1
176
     1
 90
       10
176
     1
 62
     7
176
     1
 62
   257
176
     1
 90
        2
176
     1
 90
        1
176
     1
 40
1.0
176
     1
 90
        8
176
     1
 62
   257
176
     1
 40
1.0
176
     1
 90
        1
176
     1
 90
        6
176
     1
 90
        2
176
     1
 62
     7
176
     1
 90
        3
176
     1
 90
        0
176
     1
 90
        0
176
     1
290
     0
176
     1
 90
        5
176
     1
 40
0.0
176
     1
 90
        0
176
     1
290
     0
176
     1
290
     1
176
     1
290
     1
176
     1
290
     0
176
     1
290
     0
176
     1
290
     0
176
     1
290
     0
176
     1
290
     0
176
     1
290
     0
176
     1
 90
       50
176
     1
 40
0.0
176
     1
 40
1.0
176
     1
 90
        0
176
     1
 62
    18
420
        0
176
     1
 90
       50
176
     1
 90
        3
176
     1
 62
     5
420
      255
176
     1
290
     0
176
     1
 90
       50
176
     1
 90
       50
176
     1
 90
       50
176
     1
290
     0
176
     1
 90
       50
176
     1
 62
   256
176
     0
 40
1.0
176
     0
 90
        2
176
     1
  1
strokes_ogs.tif
176
     1
290
     0
176
     1
 40
1.0
176
     1
 40
1.0
176
     1
  0
VISUALSTYLE
  5
3E
102
{ACAD_REACTORS
330
2A
102
}
330
2A
100
AcDbVisualStyle
  2
Shades of Gray
 70
    23
177
     3
291
     0
 70
    58
 90
        2
176
     1
 90
        2
176
     1
 90
        3
176
     1
 90
        0
176
     1
 40
0.6
176
     1
 40
30.0
176
     1
 62
     7
420
 16777215
176
     1
 90
        2
176
     1
 90
        2
176
     1
 62
     7
176
     1
 62
     7
176
     1
 90
        1
176
     1
 90
        1
176
     1
 40
40.0
176
     1
 90
        8
176
     1
 62
     7
176
     1
 40
1.0
176
     1
 90
        1
176
     1
 90
        6
176
     1
 90
        2
176
     1
 62
     7
176
     1
 90
        3
176
     1
 90
        0
176
     1
 90
        0
176
     1
290
     0
176
     1
 90
        1
176
     1
 40
0.0
176
     1
 90
        0
176
     1
290
     0
176
     1
290
     1
176
     1
290
     1
176
     1
290
     0
176
     1
290
     0
176
     1
290
     0
176
     1
290
     0
176
     1
290
     0
176
     1
290
     0
176
     1
 90
       50
176
     1
 40
0.0
176
     1
 40
1.0
176
     1
 90
        0
176
     1
 62
    18
420
        0
176
     1
 90
       50
176
     1
 90
        3
176
     1
 62
     5
420
      255
176
     1
290
     0
176
     1
 90
       50
176
     1
 90
       50
176
     1
 90
       50
176
     1
290
     0
176
     1
 90
       50
176
     1
 62
   256
176
     0
 40
1.0
176
     0
 90
        2
176
     1
  1
strokes_ogs.tif
176
     1
290
     0
176
     1
 40
1.0
176
     1
 40
1.0
176
     1
  0
VISUALSTYLE
  5
3F
102
{ACAD_REACTORS
330
2A
102
}
330
2A
100
AcDbVisualStyle
  2
Sketchy
 70
    24
177
     3
291
     0
 70
    58
 90
        1
176
     1
 90
        2
176
     1
 90
        2
176
     1
 90
        0
176
     1
 40
0.6
176
     1
 40
30.0
176
     1
 62
     7
420
 16777215
176
     1
 90
        2
176
     1
 90
        2
176
     1
 62
     7
176
     1
 62
     7
176
     1
 90
        1
176
     1
 90
        1
176
     1
 40
40.0
176
     1
 90
       11
176
     1
 62
     7
176
     1
 40
1.0
176
     1
 90
        1
176
     1
 90
        6
176
     1
 90
        2
176
     1
 62
     7
176
     1
 90
        6
176
     1
 90
        0
176
     1
 90
        0
176
     1
290
     0
176
     1
 90
        1
176
     1
 40
0.0
176
     1
 90
        0
176
     1
290
     0
176
     1
290
     1
176
     1
290
     1
176
     1
290
     0
176
     1
290
     0
176
     1
290
     0
176
     1
290
     0
176
     1
290
     0
176
     1
290
     0
176
     1
 90
       50
176
     1
 40
0.0
176
     1
 40
1.0
176
     1
 90
        0
176
     1
 62
    18
420
        0
176
     1
 90
       50
176
     1
 90
        3
176
     1
 62
     5
420
      255
176
     1
290
     0
176
     1
 90
       50
176
     1
 90
       50
176
     1
 90
       50
176
     1
290
     0
176
     1
 90
       50
176
     1
 62
   256
176
     0
 40
1.0
176
     0
 90
        2
176
     1
  1
strokes_ogs.tif
176
     1
290
     0
176
     1
 40
1.0
176
     1
 40
1.0
176
     1
  0
VISUALSTYLE
  5
37
102
{ACAD_REACTORS
330
2A
102
}
330
2A
100
AcDbVisualStyle
  2
Thicken
 70
    13
177
     3
291
     1
 70
    58
 90
        2
176
     1
 90
        2
176
     1
 90
        0
176
     1
 90
        0
176
     1
 40
0.6
176
     1
 40
30.0
176
     1
 62
     7
420
 16777215
176
     1
 90
        1
176
     1
 90
        4
176
     1
 62
     7
176
     1
 62
   257
176
     1
 90
        1
176
     1
 90
        1
176
     1
 40
1.0
176
     1
 90
       12
176
     1
 62
     7
176
     1
 40
1.0
176
     1
 90
        1
176
     1
 90
        6
176
     1
 90
        2
176
     1
 62
     7
176
     1
 90
        5
176
     1
 90
        0
176
     1
 90
        0
176
     1
290
     0
176
     1
 90
        1
176
     1
 40
0.0
176
     1
 90
        0
176
     1
290
     0
176
     1
290
     1
176
     1
290
     1
176
     1
290
     0
176
     1
290
     0
176
     1
290
     0
176
     1
290
     0
176
     1
290
     0
176
     1
290
     0
176
     1
 90
       50
176
     1
 40
0.0
176
     1
 40
1.0
176
     1
 90
        0
176
     1
 62
    18
420
        0
176
     1
 90
       50
176
     1
 90
        3
176
     1
 62
     5
420
      255
176
     1
290
     0
176
     1
 90
       50
176
     1
 90
       50
176
     1
 90
       50
176
     1
290
     0
176
     1
 90
       50
176
     1
 62
   256
176
     0
 40
1.0
176
     0
 90
        2
176
     1
  1
strokes_ogs.tif
176
     1
290
     0
176
     1
 40
1.0
176
     1
 40
1.0
176
     1
  0
VISUALSTYLE
  5
30
102
{ACAD_REACTORS
330
2A
102
}
330
2A
100
AcDbVisualStyle
  2
Wireframe
 70
     5
177
     3
291
     0
 70
    58
 90
        0
176
     1
 90
        2
176
     1
 90
        0
176
     1
 90
        0
176
     1
 40
0.6
176
     1
 40
30.0
176
     1
 62
     7
420
 16777215
176
     1
 90
        1
176
     1
 90
        4
176
     1
 62
     7
176
     1
 62
   257
176
     1
 90
        1
176
     1
 90
        1
176
     1
 40
1.0
176
     1
 90
        0
176
     1
 62
   257
176
     1
 40
1.0
176
     1
 90
        1
176
     1
 90
        6
176
     1
 90
        2
176
     1
 62
     7
176
     1
 90
        3
176
     1
 90
        0
176
     1
 90
        0
176
     1
290
     0
176
     1
 90
        1
176
     1
 40
0.0
176
     1
 90
        0
176
     1
290
     0
176
     1
290
     1
176
     1
290
     1
176
     1
290
     0
176
     1
290
     0
176
     1
290
     0
176
     1
290
     0
176
     1
290
     0
176
     1
290
     0
176
     1
 90
       50
176
     1
 40
0.0
176
     1
 40
1.0
176
     1
 90
        0
176
     1
 62
    18
420
        0
176
     1
 90
       50
176
     1
 90
        3
176
     1
 62
     5
420
      255
176
     1
290
     0
176
     1
 90
       50
176
     1
 90
       50
176
     1
 90
       50
176
     1
290
     0
176
     1
 90
       50
176
     1
 62
   256
176
     0
 40
1.0
176
     0
 90
        2
176
     1
  1
strokes_ogs.tif
176
     1
290
     0
176
     1
 40
1.0
176
     1
 40
1.0
176
     1
  0
VISUALSTYLE
  5
40
102
{ACAD_REACTORS
330
2A
102
}
330
2A
100
AcDbVisualStyle
  2
X-Ray
 70
    25
177
     3
291
     0
 70
    58
 90
        2
176
     1
 90
        2
176
     1
 90
        1
176
     1
 90
        1
176
     1
 40
0.5
176
     1
 40
30.0
176
     1
 62
     7
420
 16777215
176
     1
 90
        1
176
     1
 90
        0
176
     1
 62
     7
176
     1
 62
   257
176
     1
 90
        1
176
     1
 90
        1
176
     1
 40
1.0
176
     1
 90
        8
176
     1
 62
     7
176
     1
 40
1.0
176
     1
 90
        1
176
     1
 90
        6
176
     1
 90
        2
176
     1
 62
     7
176
     1
 90
        3
176
     1
 90
        0
176
     1
 90
        0
176
     1
290
     0
176
     1
 90
       13
176
     1
 40
0.0
176
     1
 90
        0
176
     1
290
     0
176
     1
290
     1
176
     1
290
     1
176
     1
290
     0
176
     1
290
     0
176
     1
290
     0
176
     1
290
     0
176
     1
290
     0
176
     1
290
     0
176
     1
 90
       50
176
     1
 40
0.0
176
     1
 40
1.0
176
     1
 90
        0
176
     1
 62
    18
420
        0
176
     1
 90
       50
176
     1
 90
        3
176
     1
 62
     5
420
      255
176
     1
290
     0
176
     1
 90
       50
176
     1
 90
       50
176
     1
 90
       50
176
     1
290
     0
176
     1
 90
       50
176
     1
 62
   256
176
     0
 40
1.0
176
     0
 90
        2
176
     1
  1
strokes_ogs.tif
176
     1
290
     0
176
     1
 40
1.0
176
     1
 40
1.0
176
     1
  0
DICTIONARYVAR
  5
72
102
{ACAD_REACTORS
330
71
102
}
330
71
100
DictionaryVariables
280
     0
  1
1:1
  0
DICTIONARYVAR
  5
77
102
{ACAD_REACTORS
330
71
102
}
330
71
100
DictionaryVariables
280
     0
  1
Standard
  0
DICTIONARYVAR
  5
76
102
{ACAD_REACTORS
330
71
102
}
330
71
100
DictionaryVariables
280
     0
  1
Standard
  0
DICTIONARY
  5
73
330
5A
100
AcDbDictionary
280
     1
281
     1
  3
ACAD_ROUNDTRIP_2008_TABLESTYLE_CELLSTYLEMAP
360
74
  0
CELLSTYLEMAP
  5
74
102
{ACAD_REACTORS
330
73
102
}
330
73
100
AcDbCellStyleMap
 90
        3
300
CELLSTYLE
  1
TABLEFORMAT_BEGIN
 90
        5
170
     1
 91
        0
 92
    32768
 62
   257
 93
        1
300
CONTENTFORMAT
  1
CONTENTFORMAT_BEGIN
 90
        0
 91
        0
 92
        4
 93
        0
300

 40
0.0
140
1.0
 94
        5
 62
     0
340
11
144
0.25
309
CONTENTFORMAT_END
171
     1
301
MARGIN
  1
CELLMARGIN_BEGIN
 40
0.06
 40
0.06
 40
0.06
 40
0.06
 40
0.06
 40
0.06
309
CELLMARGIN_END
 94
        6
 95
        1
302
GRIDFORMAT
  1
GRIDFORMAT_BEGIN
 90
        0
 91
        1
 62
     0
 92
       -2
340
14
 93
        0
 40
0.045
309
GRIDFORMAT_END
 95
        2
302
GRIDFORMAT
  1
GRIDFORMAT_BEGIN
 90
        0
 91
        1
 62
     0
 92
       -2
340
14
 93
        0
 40
0.045
309
GRIDFORMAT_END
 95
        4
302
GRIDFORMAT
  1
GRIDFORMAT_BEGIN
 90
        0
 91
        1
 62
     0
 92
       -2
340
14
 93
        0
 40
0.045
309
GRIDFORMAT_END
 95
        8
302
GRIDFORMAT
  1
GRIDFORMAT_BEGIN
 90
        0
 91
        1
 62
     0
 92
       -2
340
14
 93
        0
 40
0.045
309
GRIDFORMAT_END
 95
       16
302
GRIDFORMAT
  1
GRIDFORMAT_BEGIN
 90
        0
 91
        1
 62
     0
 92
       -2
340
14
 93
        0
 40
0.045
309
GRIDFORMAT_END
 95
       32
302
GRIDFORMAT
  1
GRIDFORMAT_BEGIN
 90
        0
 91
        1
 62
     0
 92
       -2
340
14
 93
        0
 40
0.045
309
GRIDFORMAT_END
309
TABLEFORMAT_END
  1
CELLSTYLE_BEGIN
 90
        1
 91
        1
300
_TITLE
309
CELLSTYLE_END
300
CELLSTYLE
  1
TABLEFORMAT_BEGIN
 90
        5
170
     1
 91
        0
 92
        0
 62
   257
 93
        1
300
CONTENTFORMAT
  1
CONTENTFORMAT_BEGIN
 90
        0
 91
        0
 92
        4
 93
        0
300

 40
0.0
140
1.0
 94
        5
 62
     0
340
11
144
0.18
309
CONTENTFORMAT_END
171
     1
301
MARGIN
  1
CELLMARGIN_BEGIN
 40
0.06
 40
0.06
 40
0.06
 40
0.06
 40
0.06
 40
0.06
309
CELLMARGIN_END
 94
        6
 95
        1
302
GRIDFORMAT
  1
GRIDFORMAT_BEGIN
 90
        0
 91
        1
 62
     0
 92
       -2
340
14
 93
        0
 40
0.045
309
GRIDFORMAT_END
 95
        2
302
GRIDFORMAT
  1
GRIDFORMAT_BEGIN
 90
        0
 91
        1
 62
     0
 92
       -2
340
14
 93
        0
 40
0.045
309
GRIDFORMAT_END
 95
        4
302
GRIDFORMAT
  1
GRIDFORMAT_BEGIN
 90
        0
 91
        1
 62
     0
 92
       -2
340
14
 93
        0
 40
0.045
309
GRIDFORMAT_END
 95
        8
302
GRIDFORMAT
  1
GRIDFORMAT_BEGIN
 90
        0
 91
        1
 62
     0
 92
       -2
340
14
 93
        0
 40
0.045
309
GRIDFORMAT_END
 95
       16
302
GRIDFORMAT
  1
GRIDFORMAT_BEGIN
 90
        0
 91
        1
 62
     0
 92
       -2
340
14
 93
        0
 40
0.045
309
GRIDFORMAT_END
 95
       32
302
GRIDFORMAT
  1
GRIDFORMAT_BEGIN
 90
        0
 91
        1
 62
     0
 92
       -2
340
14
 93
        0
 40
0.045
309
GRIDFORMAT_END
309
TABLEFORMAT_END
  1
CELLSTYLE_BEGIN
 90
        2
 91
        1
300
_HEADER
309
CELLSTYLE_END
300
CELLSTYLE
  1
TABLEFORMAT_BEGIN
 90
        5
170
     1
 91
        0
 92
        0
 62
   257
 93
        1
300
CONTENTFORMAT
  1
CONTENTFORMAT_BEGIN
 90
        0
 91
        0
 92
        4
 93
        0
300

 40
0.0
140
1.0
 94
        2
 62
     0
340
11
144
0.18
309
CONTENTFORMAT_END
171
     1
301
MARGIN
  1
CELLMARGIN_BEGIN
 40
0.06
 40
0.06
 40
0.06
 40
0.06
 40
0.06
 40
0.06
309
CELLMARGIN_END
 94
        6
 95
        1
302
GRIDFORMAT
  1
GRIDFORMAT_BEGIN
 90
        0
 91
        1
 62
     0
 92
       -2
340
14
 93
        0
 40
0.045
309
GRIDFORMAT_END
 95
        2
302
GRIDFORMAT
  1
GRIDFORMAT_BEGIN
 90
        0
 91
        1
 62
     0
 92
       -2
340
14
 93
        0
 40
0.045
309
GRIDFORMAT_END
 95
        4
302
GRIDFORMAT
  1
GRIDFORMAT_BEGIN
 90
        0
 91
        1
 62
     0
 92
       -2
340
14
 93
        0
 40
0.045
309
GRIDFORMAT_END
 95
        8
302
GRIDFORMAT
  1
GRIDFORMAT_BEGIN
 90
        0
 91
        1
 62
     0
 92
       -2
340
14
 93
        0
 40
0.045
309
GRIDFORMAT_END
 95
       16
302
GRIDFORMAT
  1
GRIDFORMAT_BEGIN
 90
        0
 91
        1
 62
     0
 92
       -2
340
14
 93
        0
 40
0.045
309
GRIDFORMAT_END
 95
       32
302
GRIDFORMAT
  1
GRIDFORMAT_BEGIN
 90
        0
 91
        1
 62
     0
 92
       -2
340
14
 93
        0
 40
0.045
309
GRIDFORMAT_END
309
TABLEFORMAT_END
  1
CELLSTYLE_BEGIN
 90
        3
 91
        2
300
_DATA
309
CELLSTYLE_END
  0
ENDSEC
  0
EOF
