  0
SECTION
  2
HEADER
  9
$ACADVER
  1
AC1032
  9
$ACADMAINTVER
 90
       55
  9
$DWGCODEPAGE
  3
ANSI_1252
  9
$LASTSAVEDBY
  1
LYI-002
  9
$REQUIREDVERSIONS
160
                 0
  9
$INSBASE
 10
0.0
 20
0.0
 30
0.0
  9
$EXTMIN
 10
-87.8298
 20
-112.9516
 30
0.0
  9
$EXTMAX
 10
87.8134
 20
112.8063
 30
0.0
  9
$LIMMIN
 10
0.0
 20
0.0
  9
$LIMMAX
 10
12.0
 20
9.0
  9
$ORTHOMODE
 70
     0
  9
$REGENMODE
 70
     1
  9
$FILLMODE
 70
     1
  9
$QTEXTMODE
 70
     0
  9
$MIRRTEXT
 70
     1
  9
$LTSCALE
 40
1.0
  9
$ATTMODE
 70
     1
  9
$TEXTSIZE
 40
0.2
  9
$TRACEWID
 40
0.05
  9
$TEXTSTYLE
  7
Standard
  9
$CLAYER
  8
0
  9
$CELTYPE
  6
ByLayer
  9
$CECOLOR
 62
   256
  9
$CELTSCALE
 40
1.0
  9
$DISPSILH
 70
     0
  9
$DIMSCALE
 40
1.0
  9
$DIMASZ
 40
0.18
  9
$DIMEXO
 40
0.0625
  9
$DIMDLI
 40
0.38
  9
$DIMRND
 40
0.0
  9
$DIMDLE
 40
0.0
  9
$DIMEXE
 40
0.18
  9
$DIMTP
 40
0.0
  9
$DIMTM
 40
0.0
  9
$DIMTXT
 40
0.18
  9
$DIMCEN
 40
0.09
  9
$DIMTSZ
 40
0.0
  9
$DIMTOL
 70
     0
  9
$DIMLIM
 70
     0
  9
$DIMTIH
 70
     1
  9
$DIMTOH
 70
     1
  9
$DIMSE1
 70
     0
  9
$DIMSE2
 70
     0
  9
$DIMTAD
 70
     0
  9
$DIMZIN
 70
     0
  9
$DIMBLK
  1

  9
$DIMASO
 70
     1
  9
$DIMSHO
 70
     1
  9
$DIMPOST
  1

  9
$DIMAPOST
  1

  9
$DIMALT
 70
     0
  9
$DIMALTD
 70
     2
  9
$DIMALTF
 40
25.4
  9
$DIMLFAC
 40
1.0
  9
$DIMTOFL
 70
     0
  9
$DIMTVP
 40
0.0
  9
$DIMTIX
 70
     0
  9
$DIMSOXD
 70
     0
  9
$DIMSAH
 70
     0
  9
$DIMBLK1
  1

  9
$DIMBLK2
  1

  9
$DIMSTYLE
  2
Standard
  9
$DIMCLRD
 70
     0
  9
$DIMCLRE
 70
     0
  9
$DIMCLRT
 70
     0
  9
$DIMTFAC
 40
1.0
  9
$DIMGAP
 40
0.09
  9
$DIMJUST
 70
     0
  9
$DIMSD1
 70
     0
  9
$DIMSD2
 70
     0
  9
$DIMTOLJ
 70
     1
  9
$DIMTZIN
 70
     0
  9
$DIMALTZ
 70
     0
  9
$DIMALTTZ
 70
     0
  9
$DIMUPT
 70
     0
  9
$DIMDEC
 70
     4
  9
$DIMTDEC
 70
     4
  9
$DIMALTU
 70
     2
  9
$DIMALTTD
 70
     2
  9
$DIMTXSTY
  7
Standard
  9
$DIMAUNIT
 70
     0
  9
$DIMADEC
 70
     0
  9
$DIMALTRND
 40
0.0
  9
$DIMAZIN
 70
     0
  9
$DIMDSEP
 70
    46
  9
$DIMATFIT
 70
     3
  9
$DIMFRAC
 70
     0
  9
$DIMLDRBLK
  1

  9
$DIMLUNIT
 70
     2
  9
$DIMLWD
 70
    -2
  9
$DIMLWE
 70
    -2
  9
$DIMTMOVE
 70
     0
  9
$DIMFXL
 40
1.0
  9
$DIMFXLON
 70
     0
  9
$DIMJOGANG
 40
0.7853981633974483
  9
$DIMTFILL
 70
     0
  9
$DIMTFILLCLR
 70
     0
  9
$DIMARCSYM
 70
     0
  9
$DIMLTYPE
  6

  9
$DIMLTEX1
  6

  9
$DIMLTEX2
  6

  9
$DIMTXTDIRECTION
 70
     0
  9
$LUNITS
 70
     2
  9
$LUPREC
 70
     4
  9
$SKETCHINC
 40
0.1
  9
$FILLETRAD
 40
0.0
  9
$AUNITS
 70
     0
  9
$AUPREC
 70
     0
  9
$MENU
  1
.
  9
$ELEVATION
 40
0.0
  9
$PELEVATION
 40
0.0
  9
$THICKNESS
 40
0.0
  9
$LIMCHECK
 70
     0
  9
$CHAMFERA
 40
0.0
  9
$CHAMFERB
 40
0.0
  9
$CHAMFERC
 40
0.0
  9
$CHAMFERD
 40
0.0
  9
$SKPOLY
 70
     0
  9
$TDCREATE
 40
2460650.50198169
  9
$TDUCREATE
 40
2460650.272815023
  9
$TDUPDATE
 40
2460650.50198169
  9
$TDUUPDATE
 40
2460650.272815023
  9
$TDINDWG
 40
0.0000000116
  9
$TDUSRTIMER
 40
0.0000000116
  9
$USRTIMER
 70
     1
  9
$ANGBASE
 50
0.0
  9
$ANGDIR
 70
     0
  9
$PDMODE
 70
     0
  9
$PDSIZE
 40
0.0
  9
$PLINEWID
 40
0.0
  9
$SPLFRAME
 70
     0
  9
$SPLINETYPE
 70
     6
  9
$SPLINESEGS
 70
     8
  9
$HANDSEED
  5
8E
  9
$SURFTAB1
 70
     6
  9
$SURFTAB2
 70
     6
  9
$SURFTYPE
 70
     6
  9
$SURFU
 70
     6
  9
$SURFV
 70
     6
  9
$UCSBASE
  2

  9
$UCSNAME
  2

  9
$UCSORG
 10
0.0
 20
0.0
 30
0.0
  9
$UCSXDIR
 10
1.0
 20
0.0
 30
0.0
  9
$UCSYDIR
 10
0.0
 20
1.0
 30
0.0
  9
$UCSORTHOREF
  2

  9
$UCSORTHOVIEW
 70
     0
  9
$UCSORGTOP
 10
0.0
 20
0.0
 30
0.0
  9
$UCSORGBOTTOM
 10
0.0
 20
0.0
 30
0.0
  9
$UCSORGLEFT
 10
0.0
 20
0.0
 30
0.0
  9
$UCSORGRIGHT
 10
0.0
 20
0.0
 30
0.0
  9
$UCSORGFRONT
 10
0.0
 20
0.0
 30
0.0
  9
$UCSORGBACK
 10
0.0
 20
0.0
 30
0.0
  9
$PUCSBASE
  2

  9
$PUCSNAME
  2

  9
$PUCSORG
 10
0.0
 20
0.0
 30
0.0
  9
$PUCSXDIR
 10
1.0
 20
0.0
 30
0.0
  9
$PUCSYDIR
 10
0.0
 20
1.0
 30
0.0
  9
$PUCSORTHOREF
  2

  9
$PUCSORTHOVIEW
 70
     0
  9
$PUCSORGTOP
 10
0.0
 20
0.0
 30
0.0
  9
$PUCSORGBOTTOM
 10
0.0
 20
0.0
 30
0.0
  9
$PUCSORGLEFT
 10
0.0
 20
0.0
 30
0.0
  9
$PUCSORGRIGHT
 10
0.0
 20
0.0
 30
0.0
  9
$PUCSORGFRONT
 10
0.0
 20
0.0
 30
0.0
  9
$PUCSORGBACK
 10
0.0
 20
0.0
 30
0.0
  9
$USERI1
 70
     0
  9
$USERI2
 70
     0
  9
$USERI3
 70
     0
  9
$USERI4
 70
     0
  9
$USERI5
 70
     0
  9
$USERR1
 40
0.0
  9
$USERR2
 40
0.0
  9
$USERR3
 40
0.0
  9
$USERR4
 40
0.0
  9
$USERR5
 40
0.0
  9
$WORLDVIEW
 70
     1
  9
$SHADEDGE
 70
     3
  9
$SHADEDIF
 70
    70
  9
$TILEMODE
 70
     1
  9
$MAXACTVP
 70
    64
  9
$PINSBASE
 10
0.0
 20
0.0
 30
0.0
  9
$PLIMCHECK
 70
     0
  9
$PEXTMIN
 10
1.000000000000000E+20
 20
1.000000000000000E+20
 30
1.000000000000000E+20
  9
$PEXTMAX
 10
-1.000000000000000E+20
 20
-1.000000000000000E+20
 30
-1.000000000000000E+20
  9
$PLIMMIN
 10
0.0
 20
0.0
  9
$PLIMMAX
 10
12.0
 20
9.0
  9
$UNITMODE
 70
     0
  9
$VISRETAIN
 70
     1
  9
$PLINEGEN
 70
     0
  9
$PSLTSCALE
 70
     1
  9
$TREEDEPTH
 70
  3020
  9
$CMLSTYLE
  2
Standard
  9
$CMLJUST
 70
     0
  9
$CMLSCALE
 40
1.0
  9
$PROXYGRAPHICS
 70
     1
  9
$MEASUREMENT
 70
     0
  9
$CELWEIGHT
370
    -1
  9
$ENDCAPS
280
     0
  9
$JOINSTYLE
280
     0
  9
$LWDISPLAY
290
     0
  9
$INSUNITS
 70
     4
  9
$HYPERLINKBASE
  1

  9
$STYLESHEET
  1

  9
$XEDIT
290
     1
  9
$CEPSNTYPE
380
     0
  9
$PSTYLEMODE
290
     1
  9
$FINGERPRINTGUID
  2
{c6919924-4397-4be3-bd7c-8af9462f6b07}
  9
$VERSIONGUID
  2
{FAEB1C32-E019-11D5-929B-00C0DF256EC4}
  9
$EXTNAMES
290
     1
  9
$PSVPSCALE
 40
0.0
  9
$OLESTARTUP
290
     0
  9
$SORTENTS
280
   127
  9
$INDEXCTL
280
     0
  9
$HIDETEXT
280
     1
  9
$XCLIPFRAME
280
     2
  9
$HALOGAP
280
     0
  9
$OBSCOLOR
 70
   257
  9
$OBSLTYPE
280
     0
  9
$INTERSECTIONDISPLAY
280
     0
  9
$INTERSECTIONCOLOR
 70
   257
  9
$DIMASSOC
280
     2
  9
$PROJECTNAME
  1

  9
$CAMERADISPLAY
290
     0
  9
$LENSLENGTH
 40
50.0
  9
$CAMERAHEIGHT
 40
0.0
  9
$STEPSPERSEC
 40
2.0
  9
$STEPSIZE
 40
6.0
  9
$3DDWFPREC
 40
2.0
  9
$PSOLWIDTH
 40
0.25
  9
$PSOLHEIGHT
 40
4.0
  9
$LOFTANG1
 40
1.570796326794897
  9
$LOFTANG2
 40
1.570796326794897
  9
$LOFTMAG1
 40
0.0
  9
$LOFTMAG2
 40
0.0
  9
$LOFTPARAM
 70
     7
  9
$LOFTNORMALS
280
     1
  9
$LATITUDE
 40
37.795
  9
$LONGITUDE
 40
-122.394
  9
$NORTHDIRECTION
 40
0.0
  9
$TIMEZONE
 70
 -8000
  9
$LIGHTGLYPHDISPLAY
280
     1
  9
$TILEMODELIGHTSYNCH
280
     1
  9
$CMATERIAL
347
44
  9
$SOLIDHIST
280
     0
  9
$SHOWHIST
280
     1
  9
$DWFFRAME
280
     2
  9
$DGNFRAME
280
     2
  9
$REALWORLDSCALE
290
     1
  9
$INTERFERECOLOR
 62
   256
  9
$CSHADOW
280
     0
  9
$SHADOWPLANELOCATION
 40
0.0
  0
ENDSEC
  0
SECTION
  2
CLASSES
  0
CLASS
  1
ACDBDICTIONARYWDFLT
  2
AcDbDictionaryWithDefault
  3
ObjectDBX Classes
 90
        0
 91
        3
280
     0
281
     0
  0
CLASS
  1
VISUALSTYLE
  2
AcDbVisualStyle
  3
ObjectDBX Classes
 90
     4095
 91
        3
280
     0
281
     0
  0
CLASS
  1
MATERIAL
  2
AcDbMaterial
  3
ObjectDBX Classes
 90
     1153
 91
        3
280
     0
281
     0
  0
CLASS
  1
SCALE
  2
AcDbScale
  3
ObjectDBX Classes
 90
     1153
 91
        3
280
     0
281
     0
  0
CLASS
  1
TABLESTYLE
  2
AcDbTableStyle
  3
ObjectDBX Classes
 90
     4095
 91
        3
280
     0
281
     0
  0
CLASS
  1
MLEADERSTYLE
  2
AcDbMLeaderStyle
  3
ACDB_MLEADERSTYLE_CLASS
 90
     4095
 91
        3
280
     0
281
     0
  0
CLASS
  1
SUN
  2
AcDbSun
  3
SCENEOE
 90
     1153
 91
        3
280
     0
281
     0
  0
CLASS
  1
DICTIONARYVAR
  2
AcDbDictionaryVar
  3
ObjectDBX Classes
 90
        0
 91
        3
280
     0
281
     0
  0
CLASS
  1
CELLSTYLEMAP
  2
AcDbCellStyleMap
  3
ObjectDBX Classes
 90
     1152
 91
        3
280
     0
281
     0
  0
ENDSEC
  0
SECTION
  2
TABLES
  0
TABLE
  2
VPORT
  5
8
330
0
100
AcDbSymbolTable
 70
     1
  0
VPORT
  5
29
330
8
100
AcDbSymbolTableRecord
100
AcDbViewportTableRecord
  2
*Active
 70
     0
 10
0.0
 20
0.0
 11
1.0
 21
1.0
 12
10.42990654205607
 22
4.5
 13
0.0
 23
0.0
 14
0.5
 24
0.5
 15
0.5
 25
0.5
 16
0.0
 26
0.0
 36
1.0
 17
0.0
 27
0.0
 37
0.0
 40
9.0
 41
1.972972972850329
 42
50.0
 43
0.0
 44
0.0
 50
0.0
 51
0.0
 71
     0
 72
   100
 73
     1
 74
     3
 75
     0
 76
     0
 77
     0
 78
     0
281
     0
 65
     1
110
0.0
120
0.0
130
0.0
111
1.0
121
0.0
131
0.0
112
0.0
122
1.0
132
0.0
 79
     0
146
0.0
348
2F
 60
     3
 61
     5
292
     1
282
     1
141
0.0
142
0.0
 63
   250
361
5D
  0
ENDTAB
  0
TABLE
  2
LTYPE
  5
5
330
0
100
AcDbSymbolTable
 70
     1
  0
LTYPE
  5
14
330
5
100
AcDbSymbolTableRecord
100
AcDbLinetypeTableRecord
  2
ByBlock
 70
     0
  3

 72
    65
 73
     0
 40
0.0
  0
LTYPE
  5
15
330
5
100
AcDbSymbolTableRecord
100
AcDbLinetypeTableRecord
  2
ByLayer
 70
     0
  3

 72
    65
 73
     0
 40
0.0
  0
LTYPE
  5
16
330
5
100
AcDbSymbolTableRecord
100
AcDbLinetypeTableRecord
  2
Continuous
 70
     0
  3
Solid line
 72
    65
 73
     0
 40
0.0
  0
ENDTAB
  0
TABLE
  2
LAYER
  5
2
330
0
100
AcDbSymbolTable
 70
     2
  0
LAYER
  5
10
330
2
100
AcDbSymbolTableRecord
100
AcDbLayerTableRecord
  2
0
 70
     0
 62
     7
  6
Continuous
370
    -3
390
F
347
46
348
0
  0
LAYER
  5
5F
330
2
100
AcDbSymbolTableRecord
100
AcDbLayerTableRecord
  2
Layer 1
 70
     0
 62
     7
  6
Continuous
370
    -3
390
F
347
46
348
0
  0
ENDTAB
  0
TABLE
  2
STYLE
  5
3
330
0
100
AcDbSymbolTable
 70
     1
  0
STYLE
  5
11
330
3
100
AcDbSymbolTableRecord
100
AcDbTextStyleTableRecord
  2
Standard
 70
     0
 40
0.0
 41
1.0
 50
0.0
 71
     0
 42
0.2
  3
txt
  4

  0
ENDTAB
  0
TABLE
  2
VIEW
  5
6
330
0
100
AcDbSymbolTable
 70
     0
  0
ENDTAB
  0
TABLE
  2
UCS
  5
7
330
0
100
AcDbSymbolTable
 70
     0
  0
ENDTAB
  0
TABLE
  2
APPID
  5
9
330
0
100
AcDbSymbolTable
 70
     2
  0
APPID
  5
12
330
9
100
AcDbSymbolTableRecord
100
AcDbRegAppTableRecord
  2
ACAD
 70
     0
  0
APPID
  5
5E
330
9
100
AcDbSymbolTableRecord
100
AcDbRegAppTableRecord
  2
ODA
 70
     0
  0
ENDTAB
  0
TABLE
  2
DIMSTYLE
  5
A
330
0
100
AcDbSymbolTable
 70
     1
100
AcDbDimStyleTable
  0
DIMSTYLE
105
27
330
A
100
AcDbSymbolTableRecord
100
AcDbDimStyleTableRecord
  2
Standard
 70
     0
178
     0
340
11
  0
ENDTAB
  0
TABLE
  2
BLOCK_RECORD
  5
1
330
0
100
AcDbSymbolTable
 70
     1
  0
BLOCK_RECORD
  5
1F
330
1
100
AcDbSymbolTableRecord
100
AcDbBlockTableRecord
  2
*Model_Space
340
22
 70
     0
280
     1
281
     0
  0
BLOCK_RECORD
  5
1B
330
1
100
AcDbSymbolTableRecord
100
AcDbBlockTableRecord
  2
*Paper_Space
340
1E
 70
     0
280
     1
281
     0
  0
BLOCK_RECORD
  5
23
330
1
100
AcDbSymbolTableRecord
100
AcDbBlockTableRecord
  2
*Paper_Space0
340
26
 70
     0
280
     1
281
     0
  0
ENDTAB
  0
ENDSEC
  0
SECTION
  2
BLOCKS
  0
BLOCK
  5
20
330
1F
100
AcDbEntity
  8
0
100
AcDbBlockBegin
  2
*Model_Space
 70
     0
 10
0.0
 20
0.0
 30
0.0
  3
*Model_Space
  1

  0
ENDBLK
  5
21
330
1F
100
AcDbEntity
  8
0
100
AcDbBlockEnd
  0
BLOCK
  5
1C
330
1B
100
AcDbEntity
 67
     1
  8
0
100
AcDbBlockBegin
  2
*Paper_Space
 70
     0
 10
0.0
 20
0.0
 30
0.0
  3
*Paper_Space
  1

  0
ENDBLK
  5
1D
330
1B
100
AcDbEntity
 67
     1
  8
0
100
AcDbBlockEnd
  0
BLOCK
  5
24
330
23
100
AcDbEntity
  8
0
100
AcDbBlockBegin
  2
*Paper_Space0
 70
     0
 10
0.0
 20
0.0
 30
0.0
  3
*Paper_Space0
  1

  0
ENDBLK
  5
25
330
23
100
AcDbEntity
  8
0
100
AcDbBlockEnd
  0
ENDSEC
  0
SECTION
  2
ENTITIES
  0
SPLINE
  5
60
330
1F
100
AcDbEntity
  8
Layer 1
 62
   250
370
    20
100
AcDbSpline
210
0.0
220
0.0
230
1.0
 70
    11
 71
     3
 72
    26
 73
    22
 74
     0
 42
0.0000000001
 43
0.0000000001
 40
0.0
 40
0.0
 40
0.0
 40
0.0
 40
0.1428571428571428
 40
0.1428571428571428
 40
0.1428571428571428
 40
0.2857142857142857
 40
0.2857142857142857
 40
0.2857142857142857
 40
0.4285714285714285
 40
0.4285714285714285
 40
0.4285714285714285
 40
0.5714285714285714
 40
0.5714285714285714
 40
0.5714285714285714
 40
0.7142857142857142
 40
0.7142857142857142
 40
0.7142857142857142
 40
0.8571428571428571
 40
0.8571428571428571
 40
0.8571428571428571
 40
1.0
 40
1.0
 40
1.0
 40
1.0
 10
59.1286
 20
69.7774
 30
0.0
 10
59.1286
 20
69.7774
 30
0.0
 10
47.1905
 20
87.4017
 30
0.0
 10
23.9991
 20
97.579
 30
0.0
 10
23.9991
 20
97.579
 30
0.0
 10
12.8435
 20
103.0402
 30
0.0
 10
7.5594
 20
103.9505
 30
0.0
 10
2.2758
 20
104.8607
 30
0.0
 10
0.0254
 20
102.9574
 30
0.0
 10
-0.4641
 20
101.0542
 30
0.0
 10
-0.9534
 20
99.1509
 30
0.0
 10
0.808
 20
93.3598
 30
0.0
 10
11.0826
 20
89.719
 30
0.0
 10
21.3576
 20
86.0784
 30
0.0
 10
35.3503
 20
80.2032
 30
0.0
 10
44.4506
 20
73.0874
 30
0.0
 10
53.5509
 20
65.9711
 30
0.0
 10
56.6821
 20
62.745
 30
0.0
 10
58.4438
 20
62.9926
 30
0.0
 10
60.2054
 20
63.2409
 30
0.0
 10
61.9662
 20
65.5576
 30
0.0
 10
59.1286
 20
69.7774
 30
0.0
  0
SPLINE
  5
61
330
1F
100
AcDbEntity
  8
Layer 1
 62
   250
370
    20
100
AcDbSpline
210
0.0
220
0.0
230
1.0
 70
    11
 71
     3
 72
    38
 73
    34
 74
     0
 42
0.0000000001
 43
0.0000000001
 40
0.0
 40
0.0
 40
0.0
 40
0.0
 40
0.0909090909090909
 40
0.0909090909090909
 40
0.0909090909090909
 40
0.1818181818181818
 40
0.1818181818181818
 40
0.1818181818181818
 40
0.2727272727272727
 40
0.2727272727272727
 40
0.2727272727272727
 40
0.3636363636363636
 40
0.3636363636363636
 40
0.3636363636363636
 40
0.4545454545454546
 40
0.4545454545454546
 40
0.4545454545454546
 40
0.5454545454545454
 40
0.5454545454545454
 40
0.5454545454545454
 40
0.6363636363636364
 40
0.6363636363636364
 40
0.6363636363636364
 40
0.7272727272727273
 40
0.7272727272727273
 40
0.7272727272727273
 40
0.8181818181818182
 40
0.8181818181818182
 40
0.8181818181818182
 40
0.9090909090909092
 40
0.9090909090909092
 40
0.9090909090909092
 40
1.0
 40
1.0
 40
1.0
 40
1.0
 10
52.5492
 20
86.6326
 30
0.0
 10
46.8123
 20
93.9807
 30
0.0
 10
39.1081
 20
99.2641
 30
0.0
 10
30.4056
 20
102.4893
 30
0.0
 10
27.602
 20
103.5282
 30
0.0
 10
24.6889
 20
104.3585
 30
0.0
 10
21.752
 20
104.924
 30
0.0
 10
20.6306
 20
105.14
 30
0.0
 10
19.4068
 20
105.3539
 30
0.0
 10
18.2648
 20
105.4409
 30
0.0
 10
17.7683
 20
105.4788
 30
0.0
 10
17.3662
 20
105.7956
 30
0.0
 10
17.2132
 20
106.2694
 30
0.0
 10
17.0602
 20
106.7433
 30
0.0
 10
17.201
 20
107.2355
 30
0.0
 10
17.5816
 20
107.5565
 30
0.0
 10
22.858
 20
112.007
 30
0.0
 10
29.8172
 20
113.4614
 30
0.0
 10
36.5423
 20
112.3496
 30
0.0
 10
42.3164
 20
111.3951
 30
0.0
 10
48.4889
 20
108.3634
 30
0.0
 10
51.7973
 20
103.3736
 30
0.0
 10
54.0739
 20
99.9398
 30
0.0
 10
55.5272
 20
95.9978
 30
0.0
 10
55.4817
 20
91.8448
 30
0.0
 10
55.4652
 20
90.3433
 30
0.0
 10
55.2085
 20
88.2944
 30
0.0
 10
54.5967
 20
86.8916
 30
0.0
 10
54.4227
 20
86.4925
 30
0.0
 10
54.0785
 20
86.2348
 30
0.0
 10
53.6466
 20
86.1802
 30
0.0
 10
53.2147
 20
86.1255
 30
0.0
 10
52.8171
 20
86.2894
 30
0.0
 10
52.5492
 20
86.6326
 30
0.0
  0
SPLINE
  5
62
330
1F
100
AcDbEntity
  8
Layer 1
 62
   250
370
    20
100
AcDbSpline
210
0.0
220
0.0
230
1.0
 70
    11
 71
     3
 72
    17
 73
    13
 74
     0
 42
0.0000000001
 43
0.0000000001
 40
0.0
 40
0.0
 40
0.0
 40
0.0
 40
0.25
 40
0.25
 40
0.25
 40
0.5
 40
0.5
 40
0.5
 40
0.75
 40
0.75
 40
0.75
 40
1.0
 40
1.0
 40
1.0
 40
1.0
 10
37.1101
 20
-19.9356
 30
0.0
 10
38.8908
 20
-19.9356
 30
0.0
 10
40.3344
 20
-21.1561
 30
0.0
 10
40.3344
 20
-22.6621
 30
0.0
 10
40.3344
 20
-24.1673
 30
0.0
 10
38.8908
 20
-25.3881
 30
0.0
 10
37.1101
 20
-25.3881
 30
0.0
 10
35.3293
 20
-25.3881
 30
0.0
 10
33.8859
 20
-24.1673
 30
0.0
 10
33.8859
 20
-22.6621
 30
0.0
 10
33.8859
 20
-21.1561
 30
0.0
 10
35.3293
 20
-19.9356
 30
0.0
 10
37.1101
 20
-19.9356
 30
0.0
  0
SPLINE
  5
63
330
1F
100
AcDbEntity
  8
Layer 1
 62
   250
370
    20
100
AcDbSpline
210
0.0
220
0.0
230
1.0
 70
    11
 71
     3
 72
    17
 73
    13
 74
     0
 42
0.0000000001
 43
0.0000000001
 40
0.0
 40
0.0
 40
0.0
 40
0.0
 40
0.25
 40
0.25
 40
0.25
 40
0.5
 40
0.5
 40
0.5
 40
0.75
 40
0.75
 40
0.75
 40
1.0
 40
1.0
 40
1.0
 40
1.0
 10
34.4313
 20
-29.719
 30
0.0
 10
36.212
 20
-29.719
 30
0.0
 10
37.6555
 20
-30.9403
 30
0.0
 10
37.6555
 20
-32.4455
 30
0.0
 10
37.6555
 20
-33.9516
 30
0.0
 10
36.212
 20
-35.1721
 30
0.0
 10
34.4313
 20
-35.1721
 30
0.0
 10
32.6506
 20
-35.1721
 30
0.0
 10
31.2067
 20
-33.9516
 30
0.0
 10
31.2067
 20
-32.4455
 30
0.0
 10
31.2067
 20
-30.9403
 30
0.0
 10
32.6506
 20
-29.719
 30
0.0
 10
34.4313
 20
-29.719
 30
0.0
  0
SPLINE
  5
64
330
1F
100
AcDbEntity
  8
Layer 1
 62
   250
370
    20
100
AcDbSpline
210
0.0
220
0.0
230
1.0
 70
    11
 71
     3
 72
    17
 73
    13
 74
     0
 42
0.0000000001
 43
0.0000000001
 40
0.0
 40
0.0
 40
0.0
 40
0.0
 40
0.25
 40
0.25
 40
0.25
 40
0.5
 40
0.5
 40
0.5
 40
0.75
 40
0.75
 40
0.75
 40
1.0
 40
1.0
 40
1.0
 40
1.0
 10
30.7598
 20
-38.6843
 30
0.0
 10
32.5405
 20
-38.6843
 30
0.0
 10
33.9838
 20
-39.9045
 30
0.0
 10
33.9838
 20
-41.4109
 30
0.0
 10
33.9838
 20
-42.9161
 30
0.0
 10
32.5405
 20
-44.1369
 30
0.0
 10
30.7598
 20
-44.1369
 30
0.0
 10
28.9785
 20
-44.1369
 30
0.0
 10
27.535
 20
-42.9161
 30
0.0
 10
27.535
 20
-41.4109
 30
0.0
 10
27.535
 20
-39.9045
 30
0.0
 10
28.9785
 20
-38.6843
 30
0.0
 10
30.7598
 20
-38.6843
 30
0.0
  0
SPLINE
  5
65
330
1F
100
AcDbEntity
  8
Layer 1
 62
   250
370
    20
100
AcDbSpline
210
0.0
220
0.0
230
1.0
 70
    11
 71
     3
 72
    17
 73
    13
 74
     0
 42
0.0000000001
 43
0.0000000001
 40
0.0
 40
0.0
 40
0.0
 40
0.0
 40
0.25
 40
0.25
 40
0.25
 40
0.5
 40
0.5
 40
0.5
 40
0.75
 40
0.75
 40
0.75
 40
1.0
 40
1.0
 40
1.0
 40
1.0
 10
25.5581
 20
-47.1968
 30
0.0
 10
27.3389
 20
-47.1968
 30
0.0
 10
28.7823
 20
-48.4168
 30
0.0
 10
28.7823
 20
-49.9225
 30
0.0
 10
28.7823
 20
-51.4285
 30
0.0
 10
27.3389
 20
-52.6488
 30
0.0
 10
25.5581
 20
-52.6488
 30
0.0
 10
23.7774
 20
-52.6488
 30
0.0
 10
22.3335
 20
-51.4285
 30
0.0
 10
22.3335
 20
-49.9225
 30
0.0
 10
22.3335
 20
-48.4168
 30
0.0
 10
23.7774
 20
-47.1968
 30
0.0
 10
25.5581
 20
-47.1968
 30
0.0
  0
SPLINE
  5
66
330
1F
100
AcDbEntity
  8
Layer 1
 62
   250
370
    20
100
AcDbSpline
210
0.0
220
0.0
230
1.0
 70
    11
 71
     3
 72
    17
 73
    13
 74
     0
 42
0.0000000001
 43
0.0000000001
 40
0.0
 40
0.0
 40
0.0
 40
0.0
 40
0.25
 40
0.25
 40
0.25
 40
0.5
 40
0.5
 40
0.5
 40
0.75
 40
0.75
 40
0.75
 40
1.0
 40
1.0
 40
1.0
 40
1.0
 10
17.2299
 20
-54.4691
 30
0.0
 10
19.0106
 20
-54.4691
 30
0.0
 10
20.4545
 20
-55.6905
 30
0.0
 10
20.4545
 20
-57.1957
 30
0.0
 10
20.4545
 20
-58.7017
 30
0.0
 10
19.0106
 20
-59.9223
 30
0.0
 10
17.2299
 20
-59.9223
 30
0.0
 10
15.4492
 20
-59.9223
 30
0.0
 10
14.0052
 20
-58.7017
 30
0.0
 10
14.0052
 20
-57.1957
 30
0.0
 10
14.0052
 20
-55.6905
 30
0.0
 10
15.4492
 20
-54.4691
 30
0.0
 10
17.2299
 20
-54.4691
 30
0.0
  0
SPLINE
  5
67
330
1F
100
AcDbEntity
  8
Layer 1
 62
   250
370
    20
100
AcDbSpline
210
0.0
220
0.0
230
1.0
 70
    11
 71
     3
 72
    17
 73
    13
 74
     0
 42
0.0000000001
 43
0.0000000001
 40
0.0
 40
0.0
 40
0.0
 40
0.0
 40
0.25
 40
0.25
 40
0.25
 40
0.5
 40
0.5
 40
0.5
 40
0.75
 40
0.75
 40
0.75
 40
1.0
 40
1.0
 40
1.0
 40
1.0
 10
6.3686
 20
-57.9997
 30
0.0
 10
8.1493
 20
-57.9997
 30
0.0
 10
9.5926
 20
-59.2203
 30
0.0
 10
9.5926
 20
-60.7257
 30
0.0
 10
9.5926
 20
-62.2321
 30
0.0
 10
8.1493
 20
-63.4524
 30
0.0
 10
6.3686
 20
-63.4524
 30
0.0
 10
4.5879
 20
-63.4524
 30
0.0
 10
3.1444
 20
-62.2321
 30
0.0
 10
3.1444
 20
-60.7257
 30
0.0
 10
3.1444
 20
-59.2203
 30
0.0
 10
4.5879
 20
-57.9997
 30
0.0
 10
6.3686
 20
-57.9997
 30
0.0
  0
SPLINE
  5
68
330
1F
100
AcDbEntity
  8
Layer 1
 62
   250
370
    20
100
AcDbSpline
210
0.0
220
0.0
230
1.0
 70
    11
 71
     3
 72
    17
 73
    13
 74
     0
 42
0.0000000001
 43
0.0000000001
 40
0.0
 40
0.0
 40
0.0
 40
0.0
 40
0.25
 40
0.25
 40
0.25
 40
0.5
 40
0.5
 40
0.5
 40
0.75
 40
0.75
 40
0.75
 40
1.0
 40
1.0
 40
1.0
 40
1.0
 10
-5.6487
 20
-58.2212
 30
0.0
 10
-3.8679
 20
-58.2212
 30
0.0
 10
-2.4246
 20
-59.4412
 30
0.0
 10
-2.4246
 20
-60.947
 30
0.0
 10
-2.4246
 20
-62.453
 30
0.0
 10
-3.8679
 20
-63.6736
 30
0.0
 10
-5.6487
 20
-63.6736
 30
0.0
 10
-7.4294
 20
-63.6736
 30
0.0
 10
-8.8728
 20
-62.453
 30
0.0
 10
-8.8728
 20
-60.947
 30
0.0
 10
-8.8728
 20
-59.4412
 30
0.0
 10
-7.4294
 20
-58.2212
 30
0.0
 10
-5.6487
 20
-58.2212
 30
0.0
  0
SPLINE
  5
69
330
1F
100
AcDbEntity
  8
Layer 1
 62
   250
370
    20
100
AcDbSpline
210
0.0
220
0.0
230
1.0
 70
    11
 71
     3
 72
    17
 73
    13
 74
     0
 42
0.0000000001
 43
0.0000000001
 40
0.0
 40
0.0
 40
0.0
 40
0.0
 40
0.25
 40
0.25
 40
0.25
 40
0.5
 40
0.5
 40
0.5
 40
0.75
 40
0.75
 40
0.75
 40
1.0
 40
1.0
 40
1.0
 40
1.0
 10
-17.2558
 20
-55.5402
 30
0.0
 10
-15.4754
 20
-55.5402
 30
0.0
 10
-14.0313
 20
-56.761
 30
0.0
 10
-14.0313
 20
-58.2667
 30
0.0
 10
-14.0313
 20
-59.7719
 30
0.0
 10
-15.4754
 20
-60.9931
 30
0.0
 10
-17.2558
 20
-60.9931
 30
0.0
 10
-19.0365
 20
-60.9931
 30
0.0
 10
-20.4799
 20
-59.7719
 30
0.0
 10
-20.4799
 20
-58.2667
 30
0.0
 10
-20.4799
 20
-56.761
 30
0.0
 10
-19.0365
 20
-55.5402
 30
0.0
 10
-17.2558
 20
-55.5402
 30
0.0
  0
SPLINE
  5
6A
330
1F
100
AcDbEntity
  8
Layer 1
 62
   250
370
    20
100
AcDbSpline
210
0.0
220
0.0
230
1.0
 70
    11
 71
     3
 72
    17
 73
    13
 74
     0
 42
0.0000000001
 43
0.0000000001
 40
0.0
 40
0.0
 40
0.0
 40
0.0
 40
0.25
 40
0.25
 40
0.25
 40
0.5
 40
0.5
 40
0.5
 40
0.75
 40
0.75
 40
0.75
 40
1.0
 40
1.0
 40
1.0
 40
1.0
 10
-26.6307
 20
-50.1639
 30
0.0
 10
-24.85
 20
-50.1639
 30
0.0
 10
-23.4066
 20
-51.3842
 30
0.0
 10
-23.4066
 20
-52.8907
 30
0.0
 10
-23.4066
 20
-54.3959
 30
0.0
 10
-24.85
 20
-55.6165
 30
0.0
 10
-26.6307
 20
-55.6165
 30
0.0
 10
-28.4114
 20
-55.6165
 30
0.0
 10
-29.8555
 20
-54.3959
 30
0.0
 10
-29.8555
 20
-52.8907
 30
0.0
 10
-29.8555
 20
-51.3842
 30
0.0
 10
-28.4114
 20
-50.1639
 30
0.0
 10
-26.6307
 20
-50.1639
 30
0.0
  0
SPLINE
  5
6B
330
1F
100
AcDbEntity
  8
Layer 1
 62
   250
370
    20
100
AcDbSpline
210
0.0
220
0.0
230
1.0
 70
    11
 71
     3
 72
    17
 73
    13
 74
     0
 42
0.0000000001
 43
0.0000000001
 40
0.0
 40
0.0
 40
0.0
 40
0.0
 40
0.25
 40
0.25
 40
0.25
 40
0.5
 40
0.5
 40
0.5
 40
0.75
 40
0.75
 40
0.75
 40
1.0
 40
1.0
 40
1.0
 40
1.0
 10
-34.7829
 20
-42.8651
 30
0.0
 10
-33.0022
 20
-42.8651
 30
0.0
 10
-31.5587
 20
-44.0856
 30
0.0
 10
-31.5587
 20
-45.5917
 30
0.0
 10
-31.5587
 20
-47.0975
 30
0.0
 10
-33.0022
 20
-48.3183
 30
0.0
 10
-34.7829
 20
-48.3183
 30
0.0
 10
-36.5641
 20
-48.3183
 30
0.0
 10
-38.0076
 20
-47.0975
 30
0.0
 10
-38.0076
 20
-45.5917
 30
0.0
 10
-38.0076
 20
-44.0856
 30
0.0
 10
-36.5641
 20
-42.8651
 30
0.0
 10
-34.7829
 20
-42.8651
 30
0.0
  0
SPLINE
  5
6C
330
1F
100
AcDbEntity
  8
Layer 1
 62
   250
370
    20
100
AcDbSpline
210
0.0
220
0.0
230
1.0
 70
    11
 71
     3
 72
    17
 73
    13
 74
     0
 42
0.0000000001
 43
0.0000000001
 40
0.0
 40
0.0
 40
0.0
 40
0.0
 40
0.25
 40
0.25
 40
0.25
 40
0.5
 40
0.5
 40
0.5
 40
0.75
 40
0.75
 40
0.75
 40
1.0
 40
1.0
 40
1.0
 40
1.0
 10
-39.6408
 20
-34.6666
 30
0.0
 10
-37.7516
 20
-34.6666
 30
0.0
 10
-36.2203
 20
-35.9623
 30
0.0
 10
-36.2203
 20
-37.5599
 30
0.0
 10
-36.2203
 20
-39.1574
 30
0.0
 10
-37.7516
 20
-40.4522
 30
0.0
 10
-39.6408
 20
-40.4522
 30
0.0
 10
-41.5306
 20
-40.4522
 30
0.0
 10
-43.0622
 20
-39.1574
 30
0.0
 10
-43.0622
 20
-37.5599
 30
0.0
 10
-43.0622
 20
-35.9623
 30
0.0
 10
-41.5306
 20
-34.6666
 30
0.0
 10
-39.6408
 20
-34.6666
 30
0.0
  0
SPLINE
  5
6D
330
1F
100
AcDbEntity
  8
Layer 1
 62
   250
370
    20
100
AcDbSpline
210
0.0
220
0.0
230
1.0
 70
    11
 71
     3
 72
    17
 73
    13
 74
     0
 42
0.0000000001
 43
0.0000000001
 40
0.0
 40
0.0
 40
0.0
 40
0.0
 40
0.25
 40
0.25
 40
0.25
 40
0.5
 40
0.5
 40
0.5
 40
0.75
 40
0.75
 40
0.75
 40
1.0
 40
1.0
 40
1.0
 40
1.0
 10
43.5646
 20
67.0599
 30
0.0
 10
45.2749
 20
67.0599
 30
0.0
 10
46.6609
 20
65.8877
 30
0.0
 10
46.6609
 20
64.4417
 30
0.0
 10
46.6609
 20
62.996
 30
0.0
 10
45.2749
 20
61.8242
 30
0.0
 10
43.5646
 20
61.8242
 30
0.0
 10
41.8545
 20
61.8242
 30
0.0
 10
40.4686
 20
62.996
 30
0.0
 10
40.4686
 20
64.4417
 30
0.0
 10
40.4686
 20
65.8877
 30
0.0
 10
41.8545
 20
67.0599
 30
0.0
 10
43.5646
 20
67.0599
 30
0.0
  0
SPLINE
  5
6E
330
1F
100
AcDbEntity
  8
Layer 1
 62
   250
370
    20
100
AcDbSpline
210
0.0
220
0.0
230
1.0
 70
    11
 71
     3
 72
    17
 73
    13
 74
     0
 42
0.0000000001
 43
0.0000000001
 40
0.0
 40
0.0
 40
0.0
 40
0.0
 40
0.25
 40
0.25
 40
0.25
 40
0.5
 40
0.5
 40
0.5
 40
0.75
 40
0.75
 40
0.75
 40
1.0
 40
1.0
 40
1.0
 40
1.0
 10
34.965
 20
73.3797
 30
0.0
 10
36.7568
 20
73.3797
 30
0.0
 10
38.209
 20
72.1515
 30
0.0
 10
38.209
 20
70.6363
 30
0.0
 10
38.209
 20
69.1215
 30
0.0
 10
36.7568
 20
67.8927
 30
0.0
 10
34.965
 20
67.8927
 30
0.0
 10
33.1735
 20
67.8927
 30
0.0
 10
31.7213
 20
69.1215
 30
0.0
 10
31.7213
 20
70.6363
 30
0.0
 10
31.7213
 20
72.1515
 30
0.0
 10
33.1735
 20
73.3797
 30
0.0
 10
34.965
 20
73.3797
 30
0.0
  0
SPLINE
  5
6F
330
1F
100
AcDbEntity
  8
Layer 1
 62
   250
370
    20
100
AcDbSpline
210
0.0
220
0.0
230
1.0
 70
    11
 71
     3
 72
    17
 73
    13
 74
     0
 42
0.0000000001
 43
0.0000000001
 40
0.0
 40
0.0
 40
0.0
 40
0.0
 40
0.25
 40
0.25
 40
0.25
 40
0.5
 40
0.5
 40
0.5
 40
0.75
 40
0.75
 40
0.75
 40
1.0
 40
1.0
 40
1.0
 40
1.0
 10
25.6635
 20
78.9089
 30
0.0
 10
27.4872
 20
78.9089
 30
0.0
 10
28.9668
 20
77.6582
 30
0.0
 10
28.9668
 20
76.1154
 30
0.0
 10
28.9668
 20
74.5732
 30
0.0
 10
27.4872
 20
73.322
 30
0.0
 10
25.6635
 20
73.322
 30
0.0
 10
23.8387
 20
73.322
 30
0.0
 10
22.3603
 20
74.5732
 30
0.0
 10
22.3603
 20
76.1154
 30
0.0
 10
22.3603
 20
77.6582
 30
0.0
 10
23.8387
 20
78.9089
 30
0.0
 10
25.6635
 20
78.9089
 30
0.0
  0
SPLINE
  5
70
330
1F
100
AcDbEntity
  8
Layer 1
 62
   250
370
    20
100
AcDbSpline
210
0.0
220
0.0
230
1.0
 70
    11
 71
     3
 72
    17
 73
    13
 74
     0
 42
0.0000000001
 43
0.0000000001
 40
0.0
 40
0.0
 40
0.0
 40
0.0
 40
0.25
 40
0.25
 40
0.25
 40
0.5
 40
0.5
 40
0.5
 40
0.75
 40
0.75
 40
0.75
 40
1.0
 40
1.0
 40
1.0
 40
1.0
 10
15.7319
 20
83.5061
 30
0.0
 10
17.6215
 20
83.5061
 30
0.0
 10
19.1527
 20
82.2108
 30
0.0
 10
19.1527
 20
80.6131
 30
0.0
 10
19.1527
 20
79.0159
 30
0.0
 10
17.6215
 20
77.7205
 30
0.0
 10
15.7319
 20
77.7205
 30
0.0
 10
13.8424
 20
77.7205
 30
0.0
 10
12.3113
 20
79.0159
 30
0.0
 10
12.3113
 20
80.6131
 30
0.0
 10
12.3113
 20
82.2108
 30
0.0
 10
13.8424
 20
83.5061
 30
0.0
 10
15.7319
 20
83.5061
 30
0.0
  0
SPLINE
  5
71
330
1F
100
AcDbEntity
  8
Layer 1
 62
   250
370
    20
100
AcDbSpline
210
0.0
220
0.0
230
1.0
 70
    11
 71
     3
 72
    17
 73
    13
 74
     0
 42
0.0000000001
 43
0.0000000001
 40
0.0
 40
0.0
 40
0.0
 40
0.0
 40
0.25
 40
0.25
 40
0.25
 40
0.5
 40
0.5
 40
0.5
 40
0.75
 40
0.75
 40
0.75
 40
1.0
 40
1.0
 40
1.0
 40
1.0
 10
5.4349
 20
87.0442
 30
0.0
 10
7.3247
 20
87.0442
 30
0.0
 10
8.8557
 20
85.7494
 30
0.0
 10
8.8557
 20
84.1523
 30
0.0
 10
8.8557
 20
82.554
 30
0.0
 10
7.3247
 20
81.2586
 30
0.0
 10
5.4349
 20
81.2586
 30
0.0
 10
3.5458
 20
81.2586
 30
0.0
 10
2.0141
 20
82.554
 30
0.0
 10
2.0141
 20
84.1523
 30
0.0
 10
2.0141
 20
85.7494
 30
0.0
 10
3.5458
 20
87.0442
 30
0.0
 10
5.4349
 20
87.0442
 30
0.0
  0
SPLINE
  5
72
330
1F
100
AcDbEntity
  8
Layer 1
 62
   250
370
    20
100
AcDbSpline
210
0.0
220
0.0
230
1.0
 70
    11
 71
     3
 72
    41
 73
    37
 74
     0
 42
0.0000000001
 43
0.0000000001
 40
0.0
 40
0.0
 40
0.0
 40
0.0
 40
0.0833333333333333
 40
0.0833333333333333
 40
0.0833333333333333
 40
0.1666666666666667
 40
0.1666666666666667
 40
0.1666666666666667
 40
0.25
 40
0.25
 40
0.25
 40
0.3333333333333333
 40
0.3333333333333333
 40
0.3333333333333333
 40
0.4166666666666666
 40
0.4166666666666666
 40
0.4166666666666666
 40
0.5
 40
0.5
 40
0.5
 40
0.5833333333333333
 40
0.5833333333333333
 40
0.5833333333333333
 40
0.6666666666666666
 40
0.6666666666666666
 40
0.6666666666666666
 40
0.75
 40
0.75
 40
0.75
 40
0.8333333333333333
 40
0.8333333333333333
 40
0.8333333333333333
 40
0.9166666666666666
 40
0.9166666666666666
 40
0.9166666666666666
 40
1.0
 40
1.0
 40
1.0
 40
1.0
 10
2.0582
 20
-85.4665
 30
0.0
 10
4.7446
 20
-90.8969
 30
0.0
 10
4.1351
 20
-96.5237
 30
0.0
 10
1.2629
 20
-101.7176
 30
0.0
 10
0.1084
 20
-103.8052
 30
0.0
 10
-1.3676
 20
-105.7471
 30
0.0
 10
-3.0176
 20
-107.4677
 30
0.0
 10
-4.2186
 20
-108.72
 30
0.0
 10
-5.6329
 20
-109.9945
 30
0.0
 10
-7.0918
 20
-110.942
 30
0.0
 10
-9.1702
 20
-112.292
 30
0.0
 10
-11.9652
 20
-112.9566
 30
0.0
 10
-14.3945
 20
-112.2967
 30
0.0
 10
-16.9535
 20
-111.6017
 30
0.0
 10
-18.4354
 20
-109.5642
 30
0.0
 10
-17.9986
 20
-106.8854
 30
0.0
 10
-17.5752
 20
-104.2903
 30
0.0
 10
-16.0018
 20
-102.406
 30
0.0
 10
-14.0751
 20
-100.7191
 30
0.0
 10
-13.048
 20
-99.8198
 30
0.0
 10
-11.9485
 20
-98.9933
 30
0.0
 10
-10.8589
 20
-98.1715
 30
0.0
 10
-9.6385
 20
-97.2509
 30
0.0
 10
-8.4208
 20
-96.332
 30
0.0
 10
-7.2427
 20
-95.3571
 30
0.0
 10
-5.1033
 20
-93.5866
 30
0.0
 10
-3.3072
 20
-91.3367
 30
0.0
 10
-1.8784
 20
-88.9626
 30
0.0
 10
-1.2529
 20
-87.9233
 30
0.0
 10
-0.5816
 20
-86.6966
 30
0.0
 10
-0.1363
 20
-85.5608
 30
0.0
 10
0.041
 20
-85.1082
 30
0.0
 10
0.4446
 20
-84.82
 30
0.0
 10
0.9303
 20
-84.7991
 30
0.0
 10
1.4159
 20
-84.7784
 30
0.0
 10
1.8428
 20
-85.0308
 30
0.0
 10
2.0582
 20
-85.4665
 30
0.0
  0
SPLINE
  5
73
330
1F
100
AcDbEntity
  8
Layer 1
 62
   250
370
    20
100
AcDbSpline
210
0.0
220
0.0
230
1.0
 70
    11
 71
     3
 72
    44
 73
    40
 74
     0
 42
0.0000000001
 43
0.0000000001
 40
0.0
 40
0.0
 40
0.0
 40
0.0
 40
0.0769230769230769
 40
0.0769230769230769
 40
0.0769230769230769
 40
0.1538461538461539
 40
0.1538461538461539
 40
0.1538461538461539
 40
0.2307692307692308
 40
0.2307692307692308
 40
0.2307692307692308
 40
0.3076923076923077
 40
0.3076923076923077
 40
0.3076923076923077
 40
0.3846153846153846
 40
0.3846153846153846
 40
0.3846153846153846
 40
0.4615384615384616
 40
0.4615384615384616
 40
0.4615384615384616
 40
0.5384615384615385
 40
0.5384615384615385
 40
0.5384615384615385
 40
0.6153846153846154
 40
0.6153846153846154
 40
0.6153846153846154
 40
0.6923076923076923
 40
0.6923076923076923
 40
0.6923076923076923
 40
0.7692307692307693
 40
0.7692307692307693
 40
0.7692307692307693
 40
0.8461538461538463
 40
0.8461538461538463
 40
0.8461538461538463
 40
0.9230769230769231
 40
0.9230769230769231
 40
0.9230769230769231
 40
1.0
 40
1.0
 40
1.0
 40
1.0
 10
-16.4416
 20
-86.1017
 30
0.0
 10
-14.8189
 20
-85.0557
 30
0.0
 10
-12.7888
 20
-84.4434
 30
0.0
 10
-10.9318
 20
-85.2503
 30
0.0
 10
-9.6818
 20
-85.7934
 30
0.0
 10
-8.556
 20
-87.0792
 30
0.0
 10
-8.7016
 20
-88.5168
 30
0.0
 10
-8.847
 20
-89.953
 30
0.0
 10
-10.3095
 20
-92.1643
 30
0.0
 10
-11.1469
 20
-93.2963
 30
0.0
 10
-13.0232
 20
-95.8323
 30
0.0
 10
-15.3961
 20
-98.0939
 30
0.0
 10
-17.9354
 20
-99.956
 30
0.0
 10
-19.9806
 20
-101.4557
 30
0.0
 10
-22.6706
 20
-103.1855
 30
0.0
 10
-25.1861
 20
-103.7247
 30
0.0
 10
-26.7513
 20
-104.0603
 30
0.0
 10
-28.4341
 20
-103.945
 30
0.0
 10
-29.6243
 20
-102.7585
 30
0.0
 10
-30.6199
 20
-101.766
 30
0.0
 10
-30.9343
 20
-100.1581
 30
0.0
 10
-30.8069
 20
-98.8017
 30
0.0
 10
-30.664
 20
-97.281
 30
0.0
 10
-29.9523
 20
-95.7742
 30
0.0
 10
-28.5731
 20
-95.0148
 30
0.0
 10
-28.2367
 20
-94.8296
 30
0.0
 10
-27.8963
 20
-94.5939
 30
0.0
 10
-27.5788
 20
-94.3778
 30
0.0
 10
-27.0335
 20
-94.0065
 30
0.0
 10
-26.4953
 20
-93.6234
 30
0.0
 10
-25.9602
 20
-93.2381
 30
0.0
 10
-24.5915
 20
-92.2527
 30
0.0
 10
-23.2374
 20
-91.2451
 30
0.0
 10
-21.8883
 20
-90.2333
 30
0.0
 10
-20.0926
 20
-88.8864
 30
0.0
 10
-18.3021
 20
-87.5291
 30
0.0
 10
-16.5235
 20
-86.1596
 30
0.0
 10
-16.4957
 20
-86.1381
 30
0.0
 10
-16.4712
 20
-86.1208
 30
0.0
 10
-16.4416
 20
-86.1017
 30
0.0
  0
SPLINE
  5
74
330
1F
100
AcDbEntity
  8
Layer 1
 62
   250
370
    20
100
AcDbSpline
210
0.0
220
0.0
230
1.0
 70
    11
 71
     3
 72
    38
 73
    34
 74
     0
 42
0.0000000001
 43
0.0000000001
 40
0.0
 40
0.0
 40
0.0
 40
0.0
 40
0.0909090909090909
 40
0.0909090909090909
 40
0.0909090909090909
 40
0.1818181818181818
 40
0.1818181818181818
 40
0.1818181818181818
 40
0.2727272727272727
 40
0.2727272727272727
 40
0.2727272727272727
 40
0.3636363636363636
 40
0.3636363636363636
 40
0.3636363636363636
 40
0.4545454545454546
 40
0.4545454545454546
 40
0.4545454545454546
 40
0.5454545454545454
 40
0.5454545454545454
 40
0.5454545454545454
 40
0.6363636363636364
 40
0.6363636363636364
 40
0.6363636363636364
 40
0.7272727272727273
 40
0.7272727272727273
 40
0.7272727272727273
 40
0.8181818181818182
 40
0.8181818181818182
 40
0.8181818181818182
 40
0.9090909090909092
 40
0.9090909090909092
 40
0.9090909090909092
 40
1.0
 40
1.0
 40
1.0
 40
1.0
 10
44.9018
 20
-95.6238
 30
0.0
 10
39.1924
 20
-98.0681
 30
0.0
 10
32.7679
 20
-97.9858
 30
0.0
 10
26.8764
 20
-96.2595
 30
0.0
 10
24.6336
 20
-95.6024
 30
0.0
 10
22.3537
 20
-94.6762
 30
0.0
 10
20.3431
 20
-93.4775
 30
0.0
 10
19.2025
 20
-92.7975
 30
0.0
 10
17.4439
 20
-91.6044
 30
0.0
 10
16.895
 20
-90.3474
 30
0.0
 10
15.4134
 20
-86.9543
 30
0.0
 10
16.9195
 20
-83.7361
 30
0.0
 10
20.8279
 20
-83.681
 30
0.0
 10
22.7698
 20
-83.6536
 30
0.0
 10
24.515
 20
-84.388
 30
0.0
 10
26.2021
 20
-85.2791
 30
0.0
 10
27.3362
 20
-85.878
 30
0.0
 10
28.4425
 20
-86.5471
 30
0.0
 10
29.5356
 20
-87.2172
 30
0.0
 10
30.9967
 20
-88.1129
 30
0.0
 10
32.448
 20
-89.0253
 30
0.0
 10
33.9065
 20
-89.9254
 30
0.0
 10
36.2042
 20
-91.3436
 30
0.0
 10
38.8139
 20
-92.5591
 30
0.0
 10
41.476
 20
-93.0928
 30
0.0
 10
42.2529
 20
-93.2486
 30
0.0
 10
43.4706
 20
-93.4272
 30
0.0
 10
44.2733
 20
-93.3289
 30
0.0
 10
44.872
 20
-93.2497
 30
0.0
 10
45.4272
 20
-93.6192
 30
0.0
 10
45.5872
 20
-94.2017
 30
0.0
 10
45.7472
 20
-94.7841
 30
0.0
 10
45.457
 20
-95.3861
 30
0.0
 10
44.9018
 20
-95.6238
 30
0.0
  0
SPLINE
  5
75
330
1F
100
AcDbEntity
  8
Layer 1
 62
   250
370
    20
100
AcDbSpline
210
0.0
220
0.0
230
1.0
 70
    11
 71
     3
 72
    38
 73
    34
 74
     0
 42
0.0000000001
 43
0.0000000001
 40
0.0
 40
0.0
 40
0.0
 40
0.0
 40
0.0909090909090909
 40
0.0909090909090909
 40
0.0909090909090909
 40
0.1818181818181818
 40
0.1818181818181818
 40
0.1818181818181818
 40
0.2727272727272727
 40
0.2727272727272727
 40
0.2727272727272727
 40
0.3636363636363636
 40
0.3636363636363636
 40
0.3636363636363636
 40
0.4545454545454546
 40
0.4545454545454546
 40
0.4545454545454546
 40
0.5454545454545454
 40
0.5454545454545454
 40
0.5454545454545454
 40
0.6363636363636364
 40
0.6363636363636364
 40
0.6363636363636364
 40
0.7272727272727273
 40
0.7272727272727273
 40
0.7272727272727273
 40
0.8181818181818182
 40
0.8181818181818182
 40
0.8181818181818182
 40
0.9090909090909092
 40
0.9090909090909092
 40
0.9090909090909092
 40
1.0
 40
1.0
 40
1.0
 40
1.0
 10
36.7025
 20
-104.1624
 30
0.0
 10
35.7475
 20
-105.9305
 30
0.0
 10
33.8984
 20
-107.8412
 30
0.0
 10
32.3381
 20
-109.0521
 30
0.0
 10
28.3042
 20
-112.1821
 30
0.0
 10
23.4197
 20
-113.2875
 30
0.0
 10
18.3805
 20
-112.7024
 30
0.0
 10
12.7801
 20
-112.0522
 30
0.0
 10
8.0077
 20
-108.7715
 30
0.0
 10
6.0853
 20
-103.3725
 30
0.0
 10
4.5293
 20
-99.0028
 30
0.0
 10
5.2201
 20
-93.7321
 30
0.0
 10
8.9435
 20
-90.6721
 30
0.0
 10
9.2507
 20
-90.4197
 30
0.0
 10
9.626
 20
-90.3374
 30
0.0
 10
10.0108
 20
-90.4383
 30
0.0
 10
10.3955
 20
-90.5393
 30
0.0
 10
10.6821
 20
-90.7951
 30
0.0
 10
10.8258
 20
-91.166
 30
0.0
 10
11.0896
 20
-91.8463
 30
0.0
 10
11.5425
 20
-92.6182
 30
0.0
 10
11.9317
 20
-93.2282
 30
0.0
 10
12.9919
 20
-94.8894
 30
0.0
 10
14.3307
 20
-96.3934
 30
0.0
 10
15.8408
 20
-97.6574
 30
0.0
 10
21.3447
 20
-102.2646
 30
0.0
 10
28.5581
 20
-103.2553
 30
0.0
 10
35.4989
 20
-102.3995
 30
0.0
 10
35.9563
 20
-102.3432
 30
0.0
 10
36.3779
 20
-102.5337
 30
0.0
 10
36.6377
 20
-102.9143
 30
0.0
 10
36.8976
 20
-103.2949
 30
0.0
 10
36.9216
 20
-103.7568
 30
0.0
 10
36.7025
 20
-104.1624
 30
0.0
  0
SPLINE
  5
76
330
1F
100
AcDbEntity
  8
Layer 1
 62
   250
370
    20
100
AcDbSpline
210
0.0
220
0.0
230
1.0
 70
    11
 71
     3
 72
    71
 73
    67
 74
     0
 42
0.0000000001
 43
0.0000000001
 40
0.0
 40
0.0
 40
0.0
 40
0.0
 40
0.0454545454545455
 40
0.0454545454545455
 40
0.0454545454545455
 40
0.0909090909090909
 40
0.0909090909090909
 40
0.0909090909090909
 40
0.1363636363636364
 40
0.1363636363636364
 40
0.1363636363636364
 40
0.1818181818181818
 40
0.1818181818181818
 40
0.1818181818181818
 40
0.2272727272727273
 40
0.2272727272727273
 40
0.2272727272727273
 40
0.2727272727272727
 40
0.2727272727272727
 40
0.2727272727272727
 40
0.3181818181818182
 40
0.3181818181818182
 40
0.3181818181818182
 40
0.3636363636363636
 40
0.3636363636363636
 40
0.3636363636363636
 40
0.4090909090909091
 40
0.4090909090909091
 40
0.4090909090909091
 40
0.4545454545454546
 40
0.4545454545454546
 40
0.4545454545454546
 40
0.5
 40
0.5
 40
0.5
 40
0.5454545454545454
 40
0.5454545454545454
 40
0.5454545454545454
 40
0.5909090909090909
 40
0.5909090909090909
 40
0.5909090909090909
 40
0.6363636363636364
 40
0.6363636363636364
 40
0.6363636363636364
 40
0.6818181818181819
 40
0.6818181818181819
 40
0.6818181818181819
 40
0.7272727272727273
 40
0.7272727272727273
 40
0.7272727272727273
 40
0.7727272727272727
 40
0.7727272727272727
 40
0.7727272727272727
 40
0.8181818181818182
 40
0.8181818181818182
 40
0.8181818181818182
 40
0.8636363636363636
 40
0.8636363636363636
 40
0.8636363636363636
 40
0.9090909090909092
 40
0.9090909090909092
 40
0.9090909090909092
 40
0.9545454545454546
 40
0.9545454545454546
 40
0.9545454545454546
 40
1.0
 40
1.0
 40
1.0
 40
1.0
 10
-33.9375
 20
-89.6921
 30
0.0
 10
-35.7026
 20
-90.3815
 30
0.0
 10
-37.6631
 20
-90.943
 30
0.0
 10
-39.4925
 20
-91.4158
 30
0.0
 10
-43.7406
 20
-92.5136
 30
0.0
 10
-48.1584
 20
-93.2269
 30
0.0
 10
-52.544
 20
-93.4021
 30
0.0
 10
-64.5308
 20
-93.8809
 30
0.0
 10
-75.6253
 20
-90.2297
 30
0.0
 10
-82.3447
 20
-79.6944
 30
0.0
 10
-82.3506
 20
-79.6853
 30
0.0
 10
-82.3555
 20
-79.6774
 30
0.0
 10
-82.3612
 20
-79.668
 30
0.0
 10
-82.8207
 20
-78.9044
 30
0.0
 10
-83.2328
 20
-78.0327
 30
0.0
 10
-83.5903
 20
-77.2194
 30
0.0
 10
-84.4442
 20
-75.2765
 30
0.0
 10
-85.1108
 20
-73.2245
 30
0.0
 10
-85.541
 20
-71.1461
 30
0.0
 10
-86.8182
 20
-64.9763
 30
0.0
 10
-85.9288
 20
-58.904
 30
0.0
 10
-82.0966
 20
-53.7734
 30
0.0
 10
-82.0661
 20
-53.7326
 30
0.0
 10
-82.038
 20
-53.6995
 30
0.0
 10
-82.0028
 20
-53.6626
 30
0.0
 10
-77.4662
 20
-48.9129
 30
0.0
 10
-71.1728
 20
-47.4709
 30
0.0
 10
-64.9162
 20
-49.0235
 30
0.0
 10
-59.3173
 20
-50.4129
 30
0.0
 10
-53.9332
 20
-54.1992
 30
0.0
 10
-51.1517
 20
-59.3103
 30
0.0
 10
-50.8796
 20
-59.8102
 30
0.0
 10
-50.988
 20
-60.415
 30
0.0
 10
-51.417
 20
-60.7893
 30
0.0
 10
-51.846
 20
-61.1635
 30
0.0
 10
-52.4599
 20
-61.1891
 30
0.0
 10
-52.9184
 20
-60.8516
 30
0.0
 10
-53.5195
 20
-60.4093
 30
0.0
 10
-54.4275
 20
-59.9973
 30
0.0
 10
-55.1252
 20
-59.7627
 30
0.0
 10
-56.6952
 20
-59.2345
 30
0.0
 10
-58.3431
 20
-59.1632
 30
0.0
 10
-59.8852
 20
-59.8357
 30
0.0
 10
-60.7933
 20
-60.2315
 30
0.0
 10
-61.5116
 20
-61.0386
 30
0.0
 10
-61.9909
 20
-61.8871
 30
0.0
 10
-62.6653
 20
-63.081
 30
0.0
 10
-62.9581
 20
-64.4779
 30
0.0
 10
-62.9635
 20
-65.8408
 30
0.0
 10
-62.9815
 20
-70.3194
 30
0.0
 10
-60.0818
 20
-74.4191
 30
0.0
 10
-56.9493
 20
-77.3621
 30
0.0
 10
-52.8303
 20
-81.2318
 30
0.0
 10
-47.5641
 20
-83.8888
 30
0.0
 10
-42.2073
 20
-85.5841
 30
0.0
 10
-40.3465
 20
-86.173
 30
0.0
 10
-38.4404
 20
-86.6589
 30
0.0
 10
-36.5223
 20
-87.0217
 30
0.0
 10
-35.7807
 20
-87.162
 30
0.0
 10
-35.0014
 20
-87.3002
 30
0.0
 10
-34.2494
 20
-87.3789
 30
0.0
 10
-33.6913
 20
-87.4374
 30
0.0
 10
-33.2592
 20
-87.8567
 30
0.0
 10
-33.1843
 20
-88.4129
 30
0.0
 10
-33.1092
 20
-88.969
 30
0.0
 10
-33.4149
 20
-89.4879
 30
0.0
 10
-33.9375
 20
-89.6921
 30
0.0
  0
SPLINE
  5
77
330
1F
100
AcDbEntity
  8
Layer 1
 62
   250
370
    20
100
AcDbSpline
210
0.0
220
0.0
230
1.0
 70
    11
 71
     3
 72
    20
 73
    16
 74
     0
 42
0.0000000001
 43
0.0000000001
 40
0.0
 40
0.0
 40
0.0
 40
0.0
 40
0.2
 40
0.2
 40
0.2
 40
0.4
 40
0.4
 40
0.4
 40
0.6000000000000001
 40
0.6000000000000001
 40
0.6000000000000001
 40
0.8
 40
0.8
 40
0.8
 40
1.0
 40
1.0
 40
1.0
 40
1.0
 10
-66.6871
 20
-7.4128
 30
0.0
 10
-66.6871
 20
-7.4128
 30
0.0
 10
-62.2592
 20
-9.4923
 30
0.0
 10
-59.4721
 20
-14.6761
 30
0.0
 10
-56.6846
 20
-19.8612
 30
0.0
 10
-59.026
 20
-22.3598
 30
0.0
 10
-61.5898
 20
-23.4431
 30
0.0
 10
-64.1538
 20
-24.5276
 30
0.0
 10
-74.41
 20
-24.5752
 30
0.0
 10
-76.4167
 20
-23.9621
 30
0.0
 10
-78.4237
 20
-23.349
 30
0.0
 10
-80.2628
 20
-21.3225
 30
0.0
 10
-78.9807
 20
-16.9385
 30
0.0
 10
-77.699
 20
-12.5556
 30
0.0
 10
-72.348
 20
-6.0044
 30
0.0
 10
-66.6871
 20
-7.4128
 30
0.0
  0
SPLINE
  5
78
330
1F
100
AcDbEntity
  8
Layer 1
 62
   250
370
    20
100
AcDbSpline
210
0.0
220
0.0
230
1.0
 70
    11
 71
     3
 72
    44
 73
    40
 74
     0
 42
0.0000000001
 43
0.0000000001
 40
0.0
 40
0.0
 40
0.0
 40
0.0
 40
0.0769230769230769
 40
0.0769230769230769
 40
0.0769230769230769
 40
0.1538461538461539
 40
0.1538461538461539
 40
0.1538461538461539
 40
0.2307692307692308
 40
0.2307692307692308
 40
0.2307692307692308
 40
0.3076923076923077
 40
0.3076923076923077
 40
0.3076923076923077
 40
0.3846153846153846
 40
0.3846153846153846
 40
0.3846153846153846
 40
0.4615384615384616
 40
0.4615384615384616
 40
0.4615384615384616
 40
0.5384615384615385
 40
0.5384615384615385
 40
0.5384615384615385
 40
0.6153846153846154
 40
0.6153846153846154
 40
0.6153846153846154
 40
0.6923076923076923
 40
0.6923076923076923
 40
0.6923076923076923
 40
0.7692307692307693
 40
0.7692307692307693
 40
0.7692307692307693
 40
0.8461538461538463
 40
0.8461538461538463
 40
0.8461538461538463
 40
0.9230769230769231
 40
0.9230769230769231
 40
0.9230769230769231
 40
1.0
 40
1.0
 40
1.0
 40
1.0
 10
-69.825
 20
-44.097
 30
0.0
 10
-70.6255
 20
-44.141
 30
0.0
 10
-71.5209
 20
-44.0788
 30
0.0
 10
-72.3111
 20
-43.9909
 30
0.0
 10
-74.1997
 20
-43.7811
 30
0.0
 10
-76.0821
 20
-43.3069
 30
0.0
 10
-77.8293
 20
-42.5576
 30
0.0
 10
-83.6323
 20
-40.0692
 30
0.0
 10
-86.7563
 20
-35.1244
 30
0.0
 10
-87.7146
 20
-28.9894
 30
0.0
 10
-87.7936
 20
-28.4839
 30
0.0
 10
-87.5615
 20
-28.0065
 30
0.0
 10
-87.115
 20
-27.7564
 30
0.0
 10
-86.6688
 20
-27.5063
 30
0.0
 10
-86.1403
 20
-27.5576
 30
0.0
 10
-85.7505
 20
-27.8888
 30
0.0
 10
-84.91
 20
-28.6028
 30
0.0
 10
-83.8523
 20
-29.2911
 30
0.0
 10
-82.9139
 20
-29.8589
 30
0.0
 10
-80.5861
 20
-31.2675
 30
0.0
 10
-78.044
 20
-32.3952
 30
0.0
 10
-75.4228
 20
-33.1272
 30
0.0
 10
-67.0403
 20
-35.4678
 30
0.0
 10
-59.2938
 20
-33.3812
 30
0.0
 10
-52.6276
 20
-27.8779
 30
0.0
 10
-52.2309
 20
-27.5504
 30
0.0
 10
-51.6978
 20
-27.5081
 30
0.0
 10
-51.2543
 20
-27.7688
 30
0.0
 10
-50.8109
 20
-28.0296
 30
0.0
 10
-50.5887
 20
-28.5161
 30
0.0
 10
-50.682
 20
-29.022
 30
0.0
 10
-50.8294
 20
-29.8211
 30
0.0
 10
-51.1093
 20
-30.6917
 30
0.0
 10
-51.3875
 20
-31.4506
 30
0.0
 10
-52.0531
 20
-33.2669
 30
0.0
 10
-52.9753
 20
-35.0115
 30
0.0
 10
-54.1201
 20
-36.5713
 30
0.0
 10
-57.9165
 20
-41.7436
 30
0.0
 10
-63.4889
 20
-44.0607
 30
0.0
 10
-69.825
 20
-44.097
 30
0.0
  0
SPLINE
  5
79
330
1F
100
AcDbEntity
  8
Layer 1
 62
   250
370
    20
100
AcDbSpline
210
0.0
220
0.0
230
1.0
 70
    11
 71
     3
 72
    65
 73
    61
 74
     0
 42
0.0000000001
 43
0.0000000001
 40
0.0
 40
0.0
 40
0.0
 40
0.0
 40
0.05
 40
0.05
 40
0.05
 40
0.1
 40
0.1
 40
0.1
 40
0.15
 40
0.15
 40
0.15
 40
0.2
 40
0.2
 40
0.2
 40
0.25
 40
0.25
 40
0.25
 40
0.3
 40
0.3
 40
0.3
 40
0.35
 40
0.35
 40
0.35
 40
0.4
 40
0.4
 40
0.4
 40
0.45
 40
0.45
 40
0.45
 40
0.5
 40
0.5
 40
0.5
 40
0.55
 40
0.55
 40
0.55
 40
0.6000000000000001
 40
0.6000000000000001
 40
0.6000000000000001
 40
0.65
 40
0.65
 40
0.65
 40
0.7000000000000001
 40
0.7000000000000001
 40
0.7000000000000001
 40
0.75
 40
0.75
 40
0.75
 40
0.8
 40
0.8
 40
0.8
 40
0.8500000000000001
 40
0.8500000000000001
 40
0.8500000000000001
 40
0.9
 40
0.9
 40
0.9
 40
0.9500000000000001
 40
0.9500000000000001
 40
0.9500000000000001
 40
1.0
 40
1.0
 40
1.0
 40
1.0
 10
21.0721
 20
-75.5695
 30
0.0
 10
13.8001
 20
-79.6492
 30
0.0
 10
5.6032
 20
-81.5957
 30
0.0
 10
-2.7053
 20
-81.6882
 30
0.0
 10
-5.3723
 20
-81.7179
 30
0.0
 10
-8.0651
 20
-81.5591
 30
0.0
 10
-10.7071
 20
-81.1878
 30
0.0
 10
-11.7362
 20
-81.043
 30
0.0
 10
-12.8845
 20
-80.8683
 30
0.0
 10
-13.8932
 20
-80.6046
 30
0.0
 10
-26.7772
 20
-77.2354
 30
0.0
 10
-37.0748
 20
-69.7047
 30
0.0
 10
-43.2739
 20
-57.85
 30
0.0
 10
-45.1655
 20
-54.2328
 30
0.0
 10
-46.6068
 20
-50.3298
 30
0.0
 10
-47.528
 20
-46.3525
 30
0.0
 10
-47.9004
 20
-44.744
 30
0.0
 10
-48.2603
 20
-42.9073
 30
0.0
 10
-48.3724
 20
-41.2517
 30
0.0
 10
-48.4103
 20
-40.692
 30
0.0
 10
-48.071
 20
-40.1947
 30
0.0
 10
-47.5362
 20
-40.0254
 30
0.0
 10
-47.0013
 20
-39.8563
 30
0.0
 10
-46.4379
 20
-40.0683
 30
0.0
 10
-46.1471
 20
-40.548
 30
0.0
 10
-39.0308
 20
-52.2876
 30
0.0
 10
-29.1168
 20
-62.9778
 30
0.0
 10
-16.0981
 20
-68.0651
 30
0.0
 10
-12.6528
 20
-69.4114
 30
0.0
 10
-8.9766
 20
-70.3614
 30
0.0
 10
-5.2887
 20
-70.7111
 30
0.0
 10
-4.2478
 20
-70.8099
 30
0.0
 10
-3.1935
 20
-70.863
 30
0.0
 10
-2.1475
 20
-70.8451
 30
0.0
 10
-1.772
 20
-70.8386
 30
0.0
 10
-1.365
 20
-70.8288
 30
0.0
 10
-0.9922
 20
-70.7858
 30
0.0
 10
10.1612
 20
-69.4437
 30
0.0
 10
20.2298
 20
-64.8762
 30
0.0
 10
28.1115
 20
-56.8201
 30
0.0
 10
30.4673
 20
-54.412
 30
0.0
 10
32.5975
 20
-51.7196
 30
0.0
 10
34.3612
 20
-48.8471
 30
0.0
 10
35.0245
 20
-47.7667
 30
0.0
 10
35.7561
 20
-46.504
 30
0.0
 10
36.2495
 20
-45.3289
 30
0.0
 10
36.4814
 20
-44.7765
 30
0.0
 10
37.0728
 20
-44.482
 30
0.0
 10
37.6535
 20
-44.6301
 30
0.0
 10
38.2341
 20
-44.778
 30
0.0
 10
38.6124
 20
-45.3197
 30
0.0
 10
38.5516
 20
-45.9157
 30
0.0
 10
37.688
 20
-54.3763
 30
0.0
 10
34.6754
 20
-62.3715
 30
0.0
 10
29.0745
 20
-68.8328
 30
0.0
 10
27.4445
 20
-70.7132
 30
0.0
 10
25.6007
 20
-72.455
 30
0.0
 10
23.5968
 20
-73.9336
 30
0.0
 10
22.823
 20
-74.5046
 30
0.0
 10
21.9306
 20
-75.1225
 30
0.0
 10
21.0721
 20
-75.5695
 30
0.0
  0
SPLINE
  5
7A
330
1F
100
AcDbEntity
  8
Layer 1
 62
   250
370
    20
100
AcDbSpline
210
0.0
220
0.0
230
1.0
 70
    11
 71
     3
 72
    83
 73
    79
 74
     0
 42
0.0000000001
 43
0.0000000001
 40
0.0
 40
0.0
 40
0.0
 40
0.0
 40
0.0384615384615385
 40
0.0384615384615385
 40
0.0384615384615385
 40
0.0769230769230769
 40
0.0769230769230769
 40
0.0769230769230769
 40
0.1153846153846154
 40
0.1153846153846154
 40
0.1153846153846154
 40
0.1538461538461539
 40
0.1538461538461539
 40
0.1538461538461539
 40
0.1923076923076923
 40
0.1923076923076923
 40
0.1923076923076923
 40
0.2307692307692308
 40
0.2307692307692308
 40
0.2307692307692308
 40
0.2692307692307693
 40
0.2692307692307693
 40
0.2692307692307693
 40
0.3076923076923077
 40
0.3076923076923077
 40
0.3076923076923077
 40
0.3461538461538461
 40
0.3461538461538461
 40
0.3461538461538461
 40
0.3846153846153846
 40
0.3846153846153846
 40
0.3846153846153846
 40
0.4230769230769231
 40
0.4230769230769231
 40
0.4230769230769231
 40
0.4615384615384616
 40
0.4615384615384616
 40
0.4615384615384616
 40
0.5
 40
0.5
 40
0.5
 40
0.5384615384615385
 40
0.5384615384615385
 40
0.5384615384615385
 40
0.576923076923077
 40
0.576923076923077
 40
0.576923076923077
 40
0.6153846153846154
 40
0.6153846153846154
 40
0.6153846153846154
 40
0.6538461538461539
 40
0.6538461538461539
 40
0.6538461538461539
 40
0.6923076923076923
 40
0.6923076923076923
 40
0.6923076923076923
 40
0.7307692307692308
 40
0.7307692307692308
 40
0.7307692307692308
 40
0.7692307692307693
 40
0.7692307692307693
 40
0.7692307692307693
 40
0.8076923076923077
 40
0.8076923076923077
 40
0.8076923076923077
 40
0.8461538461538463
 40
0.8461538461538463
 40
0.8461538461538463
 40
0.8846153846153847
 40
0.8846153846153847
 40
0.8846153846153847
 40
0.9230769230769231
 40
0.9230769230769231
 40
0.9230769230769231
 40
0.9615384615384616
 40
0.9615384615384616
 40
0.9615384615384616
 40
1.0
 40
1.0
 40
1.0
 40
1.0
 10
71.946
 20
-49.0343
 30
0.0
 10
72.6003
 20
-47.7167
 30
0.0
 10
73.1226
 20
-45.9517
 30
0.0
 10
73.4462
 20
-44.5378
 30
0.0
 10
74.2328
 20
-41.1024
 30
0.0
 10
74.3217
 20
-37.4821
 30
0.0
 10
73.4559
 20
-34.052
 30
0.0
 10
72.7476
 20
-31.2461
 30
0.0
 10
70.9962
 20
-29.2103
 30
0.0
 10
68.1962
 20
-28.418
 30
0.0
 10
65.4978
 20
-27.6545
 30
0.0
 10
62.4454
 20
-28.2244
 30
0.0
 10
59.9848
 20
-29.4809
 30
0.0
 10
57.297
 20
-30.8534
 30
0.0
 10
55.0837
 20
-33.1321
 30
0.0
 10
54.1063
 20
-36.0205
 30
0.0
 10
52.8644
 20
-39.6909
 30
0.0
 10
53.8865
 20
-43.5082
 30
0.0
 10
55.7568
 20
-46.7685
 30
0.0
 10
55.9631
 20
-47.1281
 30
0.0
 10
55.9747
 20
-47.5322
 30
0.0
 10
55.7894
 20
-47.9031
 30
0.0
 10
55.6041
 20
-48.2739
 30
0.0
 10
55.2738
 20
-48.5072
 30
0.0
 10
54.8625
 20
-48.558
 30
0.0
 10
54.8625
 20
-48.558
 30
0.0
 10
46.048
 20
-49.6479
 30
0.0
 10
46.048
 20
-49.6479
 30
0.0
 10
45.4582
 20
-49.7209
 30
0.0
 10
44.913
 20
-49.3616
 30
0.0
 10
44.7474
 20
-48.7909
 30
0.0
 10
44.4256
 20
-47.6829
 30
0.0
 10
44.1838
 20
-46.4856
 30
0.0
 10
43.9792
 20
-45.3527
 30
0.0
 10
43.4857
 20
-42.6216
 30
0.0
 10
43.21
 20
-39.8255
 30
0.0
 10
43.1768
 20
-37.0506
 30
0.0
 10
43.0849
 20
-29.348
 30
0.0
 10
44.8992
 20
-21.5523
 30
0.0
 10
50.0488
 20
-15.608
 30
0.0
 10
50.0631
 20
-15.5915
 30
0.0
 10
50.0757
 20
-15.5777
 30
0.0
 10
50.0908
 20
-15.562
 30
0.0
 10
51.4417
 20
-14.1569
 30
0.0
 10
53.348
 20
-12.75
 30
0.0
 10
55.0001
 20
-11.7512
 30
0.0
 10
58.4755
 20
-9.6503
 30
0.0
 10
62.5647
 20
-8.3322
 30
0.0
 10
66.654
 20
-8.9427
 30
0.0
 10
71.2558
 20
-9.6296
 30
0.0
 10
75.5417
 20
-11.0669
 30
0.0
 10
79.1074
 20
-14.1634
 30
0.0
 10
83.8516
 20
-18.2838
 30
0.0
 10
86.1156
 20
-24.3351
 30
0.0
 10
87.2168
 20
-30.3709
 30
0.0
 10
88.0604
 20
-34.9957
 30
0.0
 10
87.7635
 20
-40.1009
 30
0.0
 10
86.8207
 20
-44.6863
 30
0.0
 10
85.6535
 20
-50.3631
 30
0.0
 10
83.3858
 20
-55.8435
 30
0.0
 10
80.0861
 20
-60.6151
 30
0.0
 10
70.9089
 20
-73.8864
 30
0.0
 10
56.1063
 20
-78.7793
 30
0.0
 10
40.4745
 20
-78.5633
 30
0.0
 10
39.8879
 20
-78.5553
 30
0.0
 10
39.402
 20
-78.1374
 30
0.0
 10
39.3061
 20
-77.5587
 30
0.0
 10
39.2103
 20
-76.9801
 30
0.0
 10
39.5357
 20
-76.4277
 30
0.0
 10
40.0882
 20
-76.231
 30
0.0
 10
41.2161
 20
-75.8295
 30
0.0
 10
42.3796
 20
-75.2968
 30
0.0
 10
43.4586
 20
-74.7844
 30
0.0
 10
46.3073
 20
-73.4319
 30
0.0
 10
49.0726
 20
-71.8487
 30
0.0
 10
51.7021
 20
-70.1098
 30
0.0
 10
59.9148
 20
-64.6783
 30
0.0
 10
66.9804
 20
-57.5687
 30
0.0
 10
71.946
 20
-49.0343
 30
0.0
  0
SPLINE
  5
7B
330
1F
100
AcDbEntity
  8
Layer 1
 62
   250
370
    20
100
AcDbSpline
210
0.0
220
0.0
230
1.0
 70
    11
 71
     3
 72
    47
 73
    43
 74
     0
 42
0.0000000001
 43
0.0000000001
 40
0.0
 40
0.0
 40
0.0
 40
0.0
 40
0.0714285714285714
 40
0.0714285714285714
 40
0.0714285714285714
 40
0.1428571428571428
 40
0.1428571428571428
 40
0.1428571428571428
 40
0.2142857142857143
 40
0.2142857142857143
 40
0.2142857142857143
 40
0.2857142857142857
 40
0.2857142857142857
 40
0.2857142857142857
 40
0.3571428571428571
 40
0.3571428571428571
 40
0.3571428571428571
 40
0.4285714285714285
 40
0.4285714285714285
 40
0.4285714285714285
 40
0.5
 40
0.5
 40
0.5
 40
0.5714285714285714
 40
0.5714285714285714
 40
0.5714285714285714
 40
0.6428571428571428
 40
0.6428571428571428
 40
0.6428571428571428
 40
0.7142857142857142
 40
0.7142857142857142
 40
0.7142857142857142
 40
0.7857142857142857
 40
0.7857142857142857
 40
0.7857142857142857
 40
0.8571428571428571
 40
0.8571428571428571
 40
0.8571428571428571
 40
0.9285714285714285
 40
0.9285714285714285
 40
0.9285714285714285
 40
1.0
 40
1.0
 40
1.0
 40
1.0
 10
30.9556
 20
-8.4389
 30
0.0
 10
31.2309
 20
-16.9146
 30
0.0
 10
29.6972
 20
-26.2814
 30
0.0
 10
26.4082
 20
-34.1145
 30
0.0
 10
22.7129
 20
-42.9152
 30
0.0
 10
16.5789
 20
-50.3238
 30
0.0
 10
7.24
 20
-53.3172
 30
0.0
 10
-3.6743
 20
-56.8154
 30
0.0
 10
-16.7128
 20
-53.6614
 30
0.0
 10
-25.3659
 20
-46.3442
 30
0.0
 10
-26.7089
 20
-45.2086
 30
0.0
 10
-27.9893
 20
-43.7719
 30
0.0
 10
-28.6981
 20
-42.144
 30
0.0
 10
-29.1294
 20
-41.1534
 30
0.0
 10
-29.4674
 20
-39.7539
 30
0.0
 10
-28.9068
 20
-38.7471
 30
0.0
 10
-28.3158
 20
-37.6854
 30
0.0
 10
-27.3818
 20
-36.9761
 30
0.0
 10
-26.1537
 20
-36.824
 30
0.0
 10
-23.9154
 20
-36.5467
 30
0.0
 10
-21.4936
 20
-38.2497
 30
0.0
 10
-19.8782
 20
-39.6007
 30
0.0
 10
-16.4476
 20
-42.4697
 30
0.0
 10
-11.3553
 20
-44.451
 30
0.0
 10
-6.972
 20
-45.0892
 30
0.0
 10
-0.0018
 20
-46.1041
 30
0.0
 10
6.4292
 20
-44.2277
 30
0.0
 10
11.9624
 20
-39.8941
 30
0.0
 10
18.1819
 20
-35.0228
 30
0.0
 10
22.4221
 20
-27.5859
 30
0.0
 10
25.1917
 20
-20.2976
 30
0.0
 10
26.2418
 20
-17.5345
 30
0.0
 10
27.1244
 20
-14.6884
 30
0.0
 10
27.8243
 20
-11.8161
 30
0.0
 10
28.1049
 20
-10.6649
 30
0.0
 10
28.3822
 20
-9.4602
 30
0.0
 10
28.5693
 20
-8.2885
 30
0.0
 10
28.6673
 20
-7.6749
 30
0.0
 10
29.2107
 20
-7.2402
 30
0.0
 10
29.8308
 20
-7.2793
 30
0.0
 10
30.4509
 20
-7.3184
 30
0.0
 10
30.9355
 20
-7.818
 30
0.0
 10
30.9556
 20
-8.4389
 30
0.0
  0
SPLINE
  5
7C
330
1F
100
AcDbEntity
  8
Layer 1
 62
   250
370
    20
100
AcDbSpline
210
0.0
220
0.0
230
1.0
 70
    11
 71
     3
 72
    47
 73
    43
 74
     0
 42
0.0000000001
 43
0.0000000001
 40
0.0
 40
0.0
 40
0.0
 40
0.0
 40
0.0714285714285714
 40
0.0714285714285714
 40
0.0714285714285714
 40
0.1428571428571428
 40
0.1428571428571428
 40
0.1428571428571428
 40
0.2142857142857143
 40
0.2142857142857143
 40
0.2142857142857143
 40
0.2857142857142857
 40
0.2857142857142857
 40
0.2857142857142857
 40
0.3571428571428571
 40
0.3571428571428571
 40
0.3571428571428571
 40
0.4285714285714285
 40
0.4285714285714285
 40
0.4285714285714285
 40
0.5
 40
0.5
 40
0.5
 40
0.5714285714285714
 40
0.5714285714285714
 40
0.5714285714285714
 40
0.6428571428571428
 40
0.6428571428571428
 40
0.6428571428571428
 40
0.7142857142857142
 40
0.7142857142857142
 40
0.7142857142857142
 40
0.7857142857142857
 40
0.7857142857142857
 40
0.7857142857142857
 40
0.8571428571428571
 40
0.8571428571428571
 40
0.8571428571428571
 40
0.9285714285714285
 40
0.9285714285714285
 40
0.9285714285714285
 40
1.0
 40
1.0
 40
1.0
 40
1.0
 10
1.896
 20
1.1737
 30
0.0
 10
1.896
 20
1.1737
 30
0.0
 10
2.8928
 20
-5.7818
 30
0.0
 10
-1.5975
 20
-9.2282
 30
0.0
 10
-6.0876
 20
-12.6757
 30
0.0
 10
-17.7864
 20
-10.5273
 30
0.0
 10
-18.436
 20
-1.2346
 30
0.0
 10
-19.0861
 20
8.0575
 30
0.0
 10
-11.8852
 20
17.0806
 30
0.0
 10
2.0431
 20
17.31
 30
0.0
 10
2.0431
 20
17.31
 30
0.0
 10
13.8006
 20
16.951
 30
0.0
 10
20.4019
 20
3.9538
 30
0.0
 10
27.0025
 20
-9.0424
 30
0.0
 10
17.143
 20
-32.5531
 30
0.0
 10
-7.7476
 20
-33.782
 30
0.0
 10
-28.7145
 20
-34.816
 30
0.0
 10
-57.9723
 20
-13.631
 30
0.0
 10
-46.0524
 20
20.2016
 30
0.0
 10
-45.644
 20
21.3624
 30
0.0
 10
-44.4419
 20
22.0216
 30
0.0
 10
-43.2433
 20
21.7442
 30
0.0
 10
-42.0392
 20
21.4652
 30
0.0
 10
-41.2493
 20
20.3329
 30
0.0
 10
-41.4024
 20
19.1063
 30
0.0
 10
-42.6367
 20
9.2361
 30
0.0
 10
-41.4517
 20
-2.5628
 30
0.0
 10
-33.0953
 20
-12.8993
 30
0.0
 10
-33.0953
 20
-12.8993
 30
0.0
 10
-23.3901
 20
-26.4541
 30
0.0
 10
-4.4808
 20
-22.6345
 30
0.0
 10
-4.4808
 20
-22.6345
 30
0.0
 10
8.81
 20
-19.4098
 30
0.0
 10
10.3413
 20
-7.8133
 30
0.0
 10
10.3413
 20
-7.8133
 30
0.0
 10
10.7976
 20
-0.0701
 30
0.0
 10
9.0032
 20
1.8918
 30
0.0
 10
7.2082
 20
3.853
 30
0.0
 10
4.4942
 20
3.6679
 30
0.0
 10
3.5748
 20
3.0386
 30
0.0
 10
2.6563
 20
2.4099
 30
0.0
 10
2.3933
 20
2.3732
 30
0.0
 10
1.896
 20
1.1737
 30
0.0
  0
SPLINE
  5
7D
330
1F
100
AcDbEntity
  8
Layer 1
 62
   250
370
    20
100
AcDbSpline
210
0.0
220
0.0
230
1.0
 70
    11
 71
     3
 72
    38
 73
    34
 74
     0
 42
0.0000000001
 43
0.0000000001
 40
0.0
 40
0.0
 40
0.0
 40
0.0
 40
0.0909090909090909
 40
0.0909090909090909
 40
0.0909090909090909
 40
0.1818181818181818
 40
0.1818181818181818
 40
0.1818181818181818
 40
0.2727272727272727
 40
0.2727272727272727
 40
0.2727272727272727
 40
0.3636363636363636
 40
0.3636363636363636
 40
0.3636363636363636
 40
0.4545454545454546
 40
0.4545454545454546
 40
0.4545454545454546
 40
0.5454545454545454
 40
0.5454545454545454
 40
0.5454545454545454
 40
0.6363636363636364
 40
0.6363636363636364
 40
0.6363636363636364
 40
0.7272727272727273
 40
0.7272727272727273
 40
0.7272727272727273
 40
0.8181818181818182
 40
0.8181818181818182
 40
0.8181818181818182
 40
0.9090909090909092
 40
0.9090909090909092
 40
0.9090909090909092
 40
1.0
 40
1.0
 40
1.0
 40
1.0
 10
37.8229
 20
21.7498
 30
0.0
 10
37.5293
 20
20.9992
 30
0.0
 10
37.3097
 20
20.0764
 30
0.0
 10
37.1475
 20
19.2919
 30
0.0
 10
36.716
 20
17.2059
 30
0.0
 10
36.5614
 20
15.038
 30
0.0
 10
36.6777
 20
12.9119
 30
0.0
 10
37.0729
 20
5.6857
 30
0.0
 10
40.5148
 20
-0.3951
 30
0.0
 10
45.8451
 20
-5.1904
 30
0.0
 10
46.2646
 20
-5.5678
 30
0.0
 10
46.3662
 20
-6.1661
 30
0.0
 10
46.0947
 20
-6.6609
 30
0.0
 10
45.8234
 20
-7.1556
 30
0.0
 10
45.2641
 20
-7.3914
 30
0.0
 10
44.7205
 20
-7.2404
 30
0.0
 10
43.2913
 20
-6.8436
 30
0.0
 10
41.7723
 20
-6.2369
 30
0.0
 10
40.4265
 20
-5.6278
 30
0.0
 10
37.6162
 20
-4.3561
 30
0.0
 10
34.8165
 20
-2.662
 30
0.0
 10
32.6231
 20
-0.4767
 30
0.0
 10
30.0087
 20
2.1279
 30
0.0
 10
28.3662
 20
5.4019
 30
0.0
 10
28.521
 20
9.1702
 30
0.0
 10
28.7378
 20
14.4472
 30
0.0
 10
32.3297
 20
19.3455
 30
0.0
 10
35.8359
 20
23.0168
 30
0.0
 10
36.236
 20
23.4359
 30
0.0
 10
36.8615
 20
23.5116
 30
0.0
 10
37.3501
 20
23.2
 30
0.0
 10
37.8386
 20
22.8885
 30
0.0
 10
38.0339
 20
22.2896
 30
0.0
 10
37.8229
 20
21.7498
 30
0.0
  0
SPLINE
  5
7E
330
1F
100
AcDbEntity
  8
Layer 1
 62
   250
370
    20
100
AcDbSpline
210
0.0
220
0.0
230
1.0
 70
    11
 71
     3
 72
    98
 73
    94
 74
     0
 42
0.0000000001
 43
0.0000000001
 40
0.0
 40
0.0
 40
0.0
 40
0.0
 40
0.032258064516129
 40
0.032258064516129
 40
0.032258064516129
 40
0.0645161290322581
 40
0.0645161290322581
 40
0.0645161290322581
 40
0.0967741935483871
 40
0.0967741935483871
 40
0.0967741935483871
 40
0.1290322580645161
 40
0.1290322580645161
 40
0.1290322580645161
 40
0.1612903225806452
 40
0.1612903225806452
 40
0.1612903225806452
 40
0.1935483870967742
 40
0.1935483870967742
 40
0.1935483870967742
 40
0.2258064516129032
 40
0.2258064516129032
 40
0.2258064516129032
 40
0.2580645161290323
 40
0.2580645161290323
 40
0.2580645161290323
 40
0.2903225806451613
 40
0.2903225806451613
 40
0.2903225806451613
 40
0.3225806451612903
 40
0.3225806451612903
 40
0.3225806451612903
 40
0.3548387096774194
 40
0.3548387096774194
 40
0.3548387096774194
 40
0.3870967741935484
 40
0.3870967741935484
 40
0.3870967741935484
 40
0.4193548387096774
 40
0.4193548387096774
 40
0.4193548387096774
 40
0.4516129032258064
 40
0.4516129032258064
 40
0.4516129032258064
 40
0.4838709677419355
 40
0.4838709677419355
 40
0.4838709677419355
 40
0.5161290322580645
 40
0.5161290322580645
 40
0.5161290322580645
 40
0.5483870967741935
 40
0.5483870967741935
 40
0.5483870967741935
 40
0.5806451612903225
 40
0.5806451612903225
 40
0.5806451612903225
 40
0.6129032258064516
 40
0.6129032258064516
 40
0.6129032258064516
 40
0.6451612903225806
 40
0.6451612903225806
 40
0.6451612903225806
 40
0.6774193548387096
 40
0.6774193548387096
 40
0.6774193548387096
 40
0.7096774193548387
 40
0.7096774193548387
 40
0.7096774193548387
 40
0.7419354838709677
 40
0.7419354838709677
 40
0.7419354838709677
 40
0.7741935483870968
 40
0.7741935483870968
 40
0.7741935483870968
 40
0.8064516129032258
 40
0.8064516129032258
 40
0.8064516129032258
 40
0.8387096774193548
 40
0.8387096774193548
 40
0.8387096774193548
 40
0.8709677419354839
 40
0.8709677419354839
 40
0.8709677419354839
 40
0.9032258064516129
 40
0.9032258064516129
 40
0.9032258064516129
 40
0.9354838709677419
 40
0.9354838709677419
 40
0.9354838709677419
 40
0.967741935483871
 40
0.967741935483871
 40
0.967741935483871
 40
1.0
 40
1.0
 40
1.0
 40
1.0
 10
59.9382
 20
24.592
 30
0.0
 10
58.7495
 20
27.6003
 30
0.0
 10
59.2474
 20
30.8397
 30
0.0
 10
61.2822
 20
33.3944
 30
0.0
 10
63.5539
 20
36.2464
 30
0.0
 10
67.1533
 20
37.5751
 30
0.0
 10
70.7338
 20
37.51
 30
0.0
 10
75.6512
 20
37.4206
 30
0.0
 10
80.5906
 20
36.0619
 30
0.0
 10
82.0099
 20
30.7945
 30
0.0
 10
82.4339
 20
29.2207
 30
0.0
 10
82.2365
 20
27.4028
 30
0.0
 10
81.9369
 20
25.8148
 30
0.0
 10
81.8037
 20
25.1085
 30
0.0
 10
81.6404
 20
24.4105
 30
0.0
 10
81.4755
 20
23.7112
 30
0.0
 10
81.3759
 20
23.2889
 30
0.0
 10
81.2472
 20
22.8089
 30
0.0
 10
81.1965
 20
22.3796
 30
0.0
 10
81.1416
 20
21.9027
 30
0.0
 10
81.8406
 20
20.3952
 30
0.0
 10
82.0628
 20
19.9402
 30
0.0
 10
82.5137
 20
19.0163
 30
0.0
 10
83.0321
 20
18.1509
 30
0.0
 10
83.5012
 20
17.2443
 30
0.0
 10
83.7653
 20
16.734
 30
0.0
 10
83.9065
 20
15.837
 30
0.0
 10
84.0006
 20
15.2665
 30
0.0
 10
84.1608
 20
14.295
 30
0.0
 10
84.2824
 20
13.3116
 30
0.0
 10
84.3902
 20
12.3329
 30
0.0
 10
84.5074
 20
11.2682
 30
0.0
 10
84.6062
 20
10.1995
 30
0.0
 10
84.6808
 20
9.131
 30
0.0
 10
84.7401
 20
8.2818
 30
0.0
 10
84.7944
 20
7.4053
 30
0.0
 10
84.7812
 20
6.5541
 30
0.0
 10
84.7315
 20
3.37
 30
0.0
 10
82.357
 20
1.2494
 30
0.0
 10
79.1853
 20
1.5251
 30
0.0
 10
77.8128
 20
1.6444
 30
0.0
 10
76.5015
 20
2.2086
 30
0.0
 10
75.6397
 20
3.3127
 30
0.0
 10
74.941
 20
4.2082
 30
0.0
 10
74.6098
 20
5.4176
 30
0.0
 10
74.9466
 20
6.5249
 30
0.0
 10
75.2774
 20
7.6125
 30
0.0
 10
76.5562
 20
10.0547
 30
0.0
 10
76.0441
 20
11.1614
 30
0.0
 10
75.2479
 20
12.8821
 30
0.0
 10
71.583
 20
18.4967
 30
0.0
 10
70.1452
 20
19.5571
 30
0.0
 10
69.4176
 20
20.0936
 30
0.0
 10
68.0779
 20
19.962
 30
0.0
 10
67.17
 20
19.6817
 30
0.0
 10
65.7701
 20
17.961
 30
0.0
 10
63.6322
 20
16.4669
 30
0.0
 10
61.8496
 20
15.2205
 30
0.0
 10
59.5925
 20
13.6423
 30
0.0
 10
57.2804
 20
12.1041
 30
0.0
 10
55.2201
 20
10.268
 30
0.0
 10
53.9557
 20
9.1411
 30
0.0
 10
53.1882
 20
7.7464
 30
0.0
 10
53.4449
 20
6.0253
 30
0.0
 10
53.5464
 20
5.3453
 30
0.0
 10
53.866
 20
4.4523
 30
0.0
 10
54.2777
 20
3.8874
 30
0.0
 10
54.5215
 20
3.5596
 30
0.0
 10
54.5812
 20
3.1691
 30
0.0
 10
54.4487
 20
2.7827
 30
0.0
 10
54.3161
 20
2.3963
 30
0.0
 10
54.0271
 20
2.1242
 30
0.0
 10
53.6335
 20
2.015
 30
0.0
 10
51.8963
 20
1.5335
 30
0.0
 10
49.6006
 20
1.7295
 30
0.0
 10
47.9522
 20
2.4988
 30
0.0
 10
47.9261
 20
2.5109
 30
0.0
 10
47.9044
 20
2.5221
 30
0.0
 10
47.8792
 20
2.5359
 30
0.0
 10
45.5108
 20
3.8446
 30
0.0
 10
44.0412
 20
5.9321
 30
0.0
 10
43.7176
 20
8.6201
 30
0.0
 10
43.5847
 20
9.7254
 30
0.0
 10
43.6511
 20
11.1596
 30
0.0
 10
43.9797
 20
12.2397
 30
0.0
 10
43.9834
 20
12.252
 30
0.0
 10
43.9868
 20
12.2625
 30
0.0
 10
43.9908
 20
12.2746
 30
0.0
 10
45.5524
 20
16.8962
 30
0.0
 10
48.6684
 20
20.3687
 30
0.0
 10
53.0211
 20
22.521
 30
0.0
 10
55.1553
 20
23.5763
 30
0.0
 10
57.5636
 20
24.2991
 30
0.0
 10
59.9382
 20
24.592
 30
0.0
  0
SPLINE
  5
7F
330
1F
100
AcDbEntity
  8
Layer 1
 62
   250
370
    20
100
AcDbSpline
210
0.0
220
0.0
230
1.0
 70
    11
 71
     3
 72
    23
 73
    19
 74
     0
 42
0.0000000001
 43
0.0000000001
 40
0.0
 40
0.0
 40
0.0
 40
0.0
 40
0.1666666666666667
 40
0.1666666666666667
 40
0.1666666666666667
 40
0.3333333333333333
 40
0.3333333333333333
 40
0.3333333333333333
 40
0.5
 40
0.5
 40
0.5
 40
0.6666666666666666
 40
0.6666666666666666
 40
0.6666666666666666
 40
0.8333333333333333
 40
0.8333333333333333
 40
0.8333333333333333
 40
1.0
 40
1.0
 40
1.0
 40
1.0
 10
3.3665
 20
33.9472
 30
0.0
 10
4.6448
 20
32.6499
 30
0.0
 10
4.4347
 20
30.7055
 30
0.0
 10
2.9007
 20
29.6247
 30
0.0
 10
2.9007
 20
29.6247
 30
0.0
 10
-2.8302
 20
25.5882
 30
0.0
 10
-2.8302
 20
25.5882
 30
0.0
 10
-4.3644
 20
24.5077
 30
0.0
 10
-6.6643
 20
24.6851
 30
0.0
 10
-7.9418
 20
25.9825
 30
0.0
 10
-9.2198
 20
27.2798
 30
0.0
 10
-9.01
 20
29.2242
 30
0.0
 10
-7.4764
 20
30.305
 30
0.0
 10
-7.4764
 20
30.305
 30
0.0
 10
-1.7454
 20
34.3415
 30
0.0
 10
-1.7454
 20
34.3415
 30
0.0
 10
-0.2109
 20
35.4214
 30
0.0
 10
2.089
 20
35.2447
 30
0.0
 10
3.3665
 20
33.9472
 30
0.0
  0
SPLINE
  5
80
330
1F
100
AcDbEntity
  8
Layer 1
 62
   250
370
    20
100
AcDbSpline
210
0.0
220
0.0
230
1.0
 70
    11
 71
     3
 72
    38
 73
    34
 74
     0
 42
0.0000000001
 43
0.0000000001
 40
0.0
 40
0.0
 40
0.0
 40
0.0
 40
0.0909090909090909
 40
0.0909090909090909
 40
0.0909090909090909
 40
0.1818181818181818
 40
0.1818181818181818
 40
0.1818181818181818
 40
0.2727272727272727
 40
0.2727272727272727
 40
0.2727272727272727
 40
0.3636363636363636
 40
0.3636363636363636
 40
0.3636363636363636
 40
0.4545454545454546
 40
0.4545454545454546
 40
0.4545454545454546
 40
0.5454545454545454
 40
0.5454545454545454
 40
0.5454545454545454
 40
0.6363636363636364
 40
0.6363636363636364
 40
0.6363636363636364
 40
0.7272727272727273
 40
0.7272727272727273
 40
0.7272727272727273
 40
0.8181818181818182
 40
0.8181818181818182
 40
0.8181818181818182
 40
0.9090909090909092
 40
0.9090909090909092
 40
0.9090909090909092
 40
1.0
 40
1.0
 40
1.0
 40
1.0
 10
4.3976
 20
41.083
 30
0.0
 10
3.7155
 20
41.0613
 30
0.0
 10
3.0191
 20
40.9591
 30
0.0
 10
2.3457
 20
40.8498
 30
0.0
 10
0.5916
 20
40.5652
 30
0.0
 10
-1.1418
 20
40.1032
 30
0.0
 10
-2.8065
 20
39.4813
 30
0.0
 10
-7.8264
 20
37.6061
 30
0.0
 10
-11.9501
 20
34.3604
 30
0.0
 10
-14.5981
 20
29.6628
 30
0.0
 10
-15.1061
 20
28.7615
 30
0.0
 10
-16.1257
 20
28.2888
 30
0.0
 10
-17.1419
 20
28.4832
 30
0.0
 10
-18.1641
 20
28.6788
 30
0.0
 10
-18.9303
 20
29.4877
 30
0.0
 10
-19.0706
 20
30.5189
 30
0.0
 10
-19.2269
 20
31.6688
 30
0.0
 10
-19.2239
 20
32.8918
 30
0.0
 10
-19.1482
 20
34.0491
 30
0.0
 10
-18.9877
 20
36.4986
 30
0.0
 10
-18.3941
 20
38.9687
 30
0.0
 10
-17.1809
 20
41.1176
 30
0.0
 10
-15.5032
 20
44.0898
 30
0.0
 10
-12.8831
 20
46.0252
 30
0.0
 10
-9.6024
 20
46.9133
 30
0.0
 10
-4.9237
 20
48.1797
 30
0.0
 10
0.4772
 20
47.1746
 30
0.0
 10
5.0254
 20
45.7804
 30
0.0
 10
6.1528
 20
45.4347
 30
0.0
 10
6.8583
 20
44.3345
 30
0.0
 10
6.7022
 20
43.1657
 30
0.0
 10
6.5461
 20
41.9968
 30
0.0
 10
5.5763
 20
41.1205
 30
0.0
 10
4.3976
 20
41.083
 30
0.0
  0
SPLINE
  5
81
330
1F
100
AcDbEntity
  8
Layer 1
 62
   250
370
    20
100
AcDbSpline
210
0.0
220
0.0
230
1.0
 70
    11
 71
     3
 72
    59
 73
    55
 74
     0
 42
0.0000000001
 43
0.0000000001
 40
0.0
 40
0.0
 40
0.0
 40
0.0
 40
0.0555555555555556
 40
0.0555555555555556
 40
0.0555555555555556
 40
0.1111111111111111
 40
0.1111111111111111
 40
0.1111111111111111
 40
0.1666666666666667
 40
0.1666666666666667
 40
0.1666666666666667
 40
0.2222222222222222
 40
0.2222222222222222
 40
0.2222222222222222
 40
0.2777777777777778
 40
0.2777777777777778
 40
0.2777777777777778
 40
0.3333333333333333
 40
0.3333333333333333
 40
0.3333333333333333
 40
0.3888888888888888
 40
0.3888888888888888
 40
0.3888888888888888
 40
0.4444444444444444
 40
0.4444444444444444
 40
0.4444444444444444
 40
0.5
 40
0.5
 40
0.5
 40
0.5555555555555556
 40
0.5555555555555556
 40
0.5555555555555556
 40
0.611111111111111
 40
0.611111111111111
 40
0.611111111111111
 40
0.6666666666666666
 40
0.6666666666666666
 40
0.6666666666666666
 40
0.7222222222222222
 40
0.7222222222222222
 40
0.7222222222222222
 40
0.7777777777777777
 40
0.7777777777777777
 40
0.7777777777777777
 40
0.8333333333333333
 40
0.8333333333333333
 40
0.8333333333333333
 40
0.8888888888888888
 40
0.8888888888888888
 40
0.8888888888888888
 40
0.9444444444444444
 40
0.9444444444444444
 40
0.9444444444444444
 40
1.0
 40
1.0
 40
1.0
 40
1.0
 10
35.0184
 20
31.8245
 30
0.0
 10
34.4201
 20
38.9946
 30
0.0
 10
36.854
 20
46.5988
 30
0.0
 10
43.0624
 20
50.7095
 30
0.0
 10
46.1369
 20
52.745
 30
0.0
 10
49.7037
 20
53.5904
 30
0.0
 10
53.369
 20
53.4208
 30
0.0
 10
57.9625
 20
53.2085
 30
0.0
 10
62.4105
 20
51.4441
 30
0.0
 10
66.3223
 20
49.1095
 30
0.0
 10
67.7922
 20
48.2323
 30
0.0
 10
70.0321
 20
48.2704
 30
0.0
 10
71.6959
 20
48.4377
 30
0.0
 10
72.5994
 20
48.5286
 30
0.0
 10
73.4924
 20
48.6751
 30
0.0
 10
74.3853
 20
48.8369
 30
0.0
 10
74.9416
 20
48.9376
 30
0.0
 10
75.689
 20
49.1119
 30
0.0
 10
76.2462
 20
49.1119
 30
0.0
 10
77.4218
 20
49.1119
 30
0.0
 10
78.8751
 20
48.1598
 30
0.0
 10
79.5035
 20
47.181
 30
0.0
 10
79.9901
 20
46.4231
 30
0.0
 10
80.114
 20
45.5332
 30
0.0
 10
79.7738
 20
44.6859
 30
0.0
 10
79.3749
 20
43.693
 30
0.0
 10
78.4447
 20
42.9927
 30
0.0
 10
77.5339
 20
42.4965
 30
0.0
 10
76.2765
 20
41.8113
 30
0.0
 10
74.8529
 20
41.5638
 30
0.0
 10
73.4382
 20
41.48
 30
0.0
 10
71.6922
 20
41.3764
 30
0.0
 10
69.8769
 20
41.4974
 30
0.0
 10
68.1329
 20
41.6166
 30
0.0
 10
65.774
 20
41.7781
 30
0.0
 10
63.4217
 20
41.9654
 30
0.0
 10
61.0592
 20
42.0829
 30
0.0
 10
57.9482
 20
42.2376
 30
0.0
 10
54.8405
 20
42.2842
 30
0.0
 10
51.7263
 20
42.2038
 30
0.0
 10
47.0719
 20
42.0838
 30
0.0
 10
42.4405
 20
40.7255
 30
0.0
 10
39.566
 20
36.8429
 30
0.0
 10
38.7836
 20
35.7861
 30
0.0
 10
38.1725
 20
34.5894
 30
0.0
 10
37.7727
 20
33.3365
 30
0.0
 10
37.6246
 20
32.8725
 30
0.0
 10
37.4619
 20
32.2841
 30
0.0
 10
37.4092
 20
31.7957
 30
0.0
 10
37.3426
 20
31.1779
 30
0.0
 10
36.822
 20
30.7158
 30
0.0
 10
36.2006
 20
30.7234
 30
0.0
 10
35.5793
 20
30.7309
 30
0.0
 10
35.07
 20
31.2052
 30
0.0
 10
35.0184
 20
31.8245
 30
0.0
  0
SPLINE
  5
82
330
1F
100
AcDbEntity
  8
Layer 1
 62
   250
370
    20
100
AcDbSpline
210
0.0
220
0.0
230
1.0
 70
    11
 71
     3
 72
    17
 73
    13
 74
     0
 42
0.0000000001
 43
0.0000000001
 40
0.0
 40
0.0
 40
0.0
 40
0.0
 40
0.25
 40
0.25
 40
0.25
 40
0.5
 40
0.5
 40
0.5
 40
0.75
 40
0.75
 40
0.75
 40
1.0
 40
1.0
 40
1.0
 40
1.0
 10
9.9347
 20
60.7434
 30
0.0
 10
13.7926
 20
59.4694
 30
0.0
 10
18.3532
 20
57.7066
 30
0.0
 10
21.2209
 20
55.7323
 30
0.0
 10
26.9838
 20
51.7661
 30
0.0
 10
23.3654
 20
50.0662
 30
0.0
 10
22.0253
 20
50.0662
 30
0.0
 10
20.6852
 20
50.0662
 30
0.0
 10
7.8864
 20
56.2994
 30
0.0
 10
2.7932
 20
57.5452
 30
0.0
 10
-3.1585
 20
59.0023
 30
0.0
 10
-5.0734
 20
65.697
 30
0.0
 10
9.9347
 20
60.7434
 30
0.0
  0
SPLINE
  5
83
330
1F
100
AcDbEntity
  8
Layer 1
 62
   250
370
    20
100
AcDbSpline
210
0.0
220
0.0
230
1.0
 70
    11
 71
     3
 72
    23
 73
    19
 74
     0
 42
0.0000000001
 43
0.0000000001
 40
0.0
 40
0.0
 40
0.0
 40
0.0
 40
0.1666666666666667
 40
0.1666666666666667
 40
0.1666666666666667
 40
0.3333333333333333
 40
0.3333333333333333
 40
0.3333333333333333
 40
0.5
 40
0.5
 40
0.5
 40
0.6666666666666666
 40
0.6666666666666666
 40
0.6666666666666666
 40
0.8333333333333333
 40
0.8333333333333333
 40
0.8333333333333333
 40
1.0
 40
1.0
 40
1.0
 40
1.0
 10
6.7688
 20
75.886
 30
0.0
 10
6.7688
 20
75.886
 30
0.0
 10
22.4278
 20
69.7195
 30
0.0
 10
31.0076
 20
62.8272
 30
0.0
 10
31.0076
 20
62.8272
 30
0.0
 10
34.0904
 20
60.7277
 30
0.0
 10
35.0632
 20
58.8989
 30
0.0
 10
36.0364
 20
57.0704
 30
0.0
 10
33.8737
 20
55.2877
 30
0.0
 10
30.3598
 20
56.5671
 30
0.0
 10
26.8456
 20
57.8472
 30
0.0
 10
11.5994
 20
65.1616
 30
0.0
 10
4.3006
 20
67.4025
 30
0.0
 10
-2.9982
 20
69.6418
 30
0.0
 10
-1.268
 20
73.848
 30
0.0
 10
0.0296
 20
75.0828
 30
0.0
 10
1.3267
 20
76.3169
 30
0.0
 10
3.4894
 20
76.4086
 30
0.0
 10
6.7688
 20
75.886
 30
0.0
  0
SPLINE
  5
84
330
1F
100
AcDbEntity
  8
Layer 1
 62
   250
370
    20
100
AcDbSpline
210
0.0
220
0.0
230
1.0
 70
    11
 71
     3
 72
    17
 73
    13
 74
     0
 42
0.0000000001
 43
0.0000000001
 40
0.0
 40
0.0
 40
0.0
 40
0.0
 40
0.25
 40
0.25
 40
0.25
 40
0.5
 40
0.5
 40
0.5
 40
0.75
 40
0.75
 40
0.75
 40
1.0
 40
1.0
 40
1.0
 40
1.0
 10
-16.8664
 20
83.9231
 30
0.0
 10
-23.613
 20
81.938
 30
0.0
 10
-24.7587
 20
74.035
 30
0.0
 10
-24.394
 20
68.8519
 30
0.0
 10
-24.0083
 20
63.3566
 30
0.0
 10
-18.2173
 20
61.8882
 30
0.0
 10
-15.7719
 20
61.8882
 30
0.0
 10
-13.3274
 20
61.8882
 30
0.0
 10
-8.8876
 20
64.6085
 30
0.0
 10
-8.502
 20
69.7773
 30
0.0
 10
-8.1488
 20
74.5006
 30
0.0
 10
-9.2229
 20
83.9231
 30
0.0
 10
-16.8664
 20
83.9231
 30
0.0
  0
ENDSEC
  0
SECTION
  2
OBJECTS
  0
DICTIONARY
  5
C
330
0
100
AcDbDictionary
281
     1
  3
ACAD_DETAILVIEWSTYLE
350
8C
  3
ACAD_GROUP
350
D
  3
ACAD_LAYOUT
350
1A
  3
ACAD_MATERIAL
350
43
  3
ACAD_MLEADERSTYLE
350
5B
  3
ACAD_MLINESTYLE
350
17
  3
ACAD_PLOTSETTINGS
350
19
  3
ACAD_PLOTSTYLENAME
350
E
  3
ACAD_SCALELIST
350
47
  3
ACAD_SECTIONVIEWSTYLE
350
8D
  3
ACAD_TABLESTYLE
350
59
  3
ACAD_VISUALSTYLE
350
2A
  3
ACDB_RECOMPOSE_DATA
350
89
  3
AcDbVariableDictionary
350
85
  0
SUN
  5
5D
330
29
100
AcDbSun
 90
        1
290
     0
 63
     7
421
 16777215
 40
1.0
291
     1
 91
  2455826
 92
 54000000
292
     0
 70
     2
 71
   256
280
     1
  0
DICTIONARY
  5
8C
102
{ACAD_REACTORS
330
C
102
}
330
C
100
AcDbDictionary
281
     1
  0
DICTIONARY
  5
D
102
{ACAD_REACTORS
330
C
102
}
330
C
100
AcDbDictionary
281
     1
  0
DICTIONARY
  5
1A
102
{ACAD_REACTORS
330
C
102
}
330
C
100
AcDbDictionary
281
     1
  3
Layout1
350
1E
  3
Layout2
350
26
  3
Model
350
22
  0
DICTIONARY
  5
43
102
{ACAD_REACTORS
330
C
102
}
330
C
100
AcDbDictionary
281
     1
  3
ByBlock
350
45
  3
ByLayer
350
44
  3
Global
350
46
  0
DICTIONARY
  5
5B
102
{ACAD_REACTORS
330
C
102
}
330
C
100
AcDbDictionary
281
     1
  3
Standard
350
5C
  0
DICTIONARY
  5
17
102
{ACAD_REACTORS
330
C
102
}
330
C
100
AcDbDictionary
281
     1
  3
Standard
350
18
  0
DICTIONARY
  5
19
102
{ACAD_REACTORS
330
C
102
}
330
C
100
AcDbDictionary
281
     1
  0
ACDBDICTIONARYWDFLT
  5
E
102
{ACAD_REACTORS
330
C
102
}
330
C
100
AcDbDictionary
281
     1
  3
Normal
350
F
100
AcDbDictionaryWithDefault
340
F
  0
DICTIONARY
  5
47
102
{ACAD_REACTORS
330
C
102
}
330
C
100
AcDbDictionary
281
     1
  3
A0
350
48
  3
A1
350
49
  3
A2
350
4A
  3
A3
350
4B
  3
A4
350
4C
  3
A5
350
4D
  3
A6
350
4E
  3
A7
350
4F
  3
A8
350
50
  3
A9
350
51
  3
B1
350
52
  3
B2
350
53
  3
B3
350
54
  3
B4
350
55
  3
B5
350
56
  3
B6
350
57
  3
B7
350
58
  0
DICTIONARY
  5
8D
102
{ACAD_REACTORS
330
C
102
}
330
C
100
AcDbDictionary
281
     1
  0
DICTIONARY
  5
59
102
{ACAD_REACTORS
330
C
102
}
330
C
100
AcDbDictionary
281
     1
  3
Standard
350
5A
  0
DICTIONARY
  5
2A
102
{ACAD_REACTORS
330
C
102
}
330
C
100
AcDbDictionary
281
     1
  3
2dWireframe
350
2F
  3
Basic
350
32
  3
Brighten
350
36
  3
ColorChange
350
3A
  3
Conceptual
350
34
  3
Dim
350
35
  3
EdgeColorOff
350
3D
  3
Facepattern
350
39
  3
Flat
350
2B
  3
FlatWithEdges
350
2C
  3
Gouraud
350
2D
  3
GouraudWithEdges
350
2E
  3
Hidden
350
31
  3
JitterOff
350
3B
  3
Linepattern
350
38
  3
OverhangOff
350
3C
  3
Realistic
350
33
  3
Shaded
350
42
  3
Shaded with edges
350
41
  3
Shades of Gray
350
3E
  3
Sketchy
350
3F
  3
Thicken
350
37
  3
Wireframe
350
30
  3
X-Ray
350
40
  0
XRECORD
  5
89
102
{ACAD_REACTORS
330
C
102
}
330
C
100
AcDbXrecord
280
     1
 90
        1
330
5A
  0
DICTIONARY
  5
85
102
{ACAD_REACTORS
330
C
102
}
330
C
100
AcDbDictionary
281
     1
  3
CANNOSCALE
350
86
  3
CMLEADERSTYLE
350
8B
  3
CTABLESTYLE
350
8A
  0
LAYOUT
  5
1E
102
{ACAD_REACTORS
330
1A
102
}
330
1A
100
AcDbPlotSettings
  1

  2
none_device
  4

  6

 40
0.0
 41
0.0
 42
0.0
 43
0.0
 44
0.0
 45
0.0
 46
0.0
 47
0.0
 48
0.0
 49
0.0
140
0.0
141
0.0
142
1.0
143
1.0
 70
   688
 72
     0
 73
     0
 74
     5
  7

 75
    16
 76
     0
 77
     2
 78
   300
147
1.0
148
0.0
149
0.0
100
AcDbLayout
  1
Layout1
 70
     1
 71
     1
 10
0.0
 20
0.0
 11
12.0
 21
9.0
 12
0.0
 22
0.0
 32
0.0
 14
1.000000000000000E+20
 24
1.000000000000000E+20
 34
1.000000000000000E+20
 15
-1.000000000000000E+20
 25
-1.000000000000000E+20
 35
-1.000000000000000E+20
146
0.0
 13
0.0
 23
0.0
 33
0.0
 16
1.0
 26
0.0
 36
0.0
 17
0.0
 27
1.0
 37
0.0
 76
     0
330
1B
  0
LAYOUT
  5
26
102
{ACAD_REACTORS
330
1A
102
}
330
1A
100
AcDbPlotSettings
  1

  2
none_device
  4

  6

 40
0.0
 41
0.0
 42
0.0
 43
0.0
 44
0.0
 45
0.0
 46
0.0
 47
0.0
 48
0.0
 49
0.0
140
0.0
141
0.0
142
1.0
143
1.0
 70
   688
 72
     0
 73
     0
 74
     5
  7

 75
    16
 76
     0
 77
     2
 78
   300
147
1.0
148
0.0
149
0.0
100
AcDbLayout
  1
Layout2
 70
     1
 71
     2
 10
0.0
 20
0.0
 11
0.0
 21
0.0
 12
0.0
 22
0.0
 32
0.0
 14
0.0
 24
0.0
 34
0.0
 15
0.0
 25
0.0
 35
0.0
146
0.0
 13
0.0
 23
0.0
 33
0.0
 16
1.0
 26
0.0
 36
0.0
 17
0.0
 27
1.0
 37
0.0
 76
     0
330
23
  0
LAYOUT
  5
22
102
{ACAD_REACTORS
330
1A
102
}
330
1A
100
AcDbPlotSettings
  1

  2
none_device
  4
Letter_(8.50_x_11.00_Inches)
  6

 40
6.35
 41
6.35
 42
6.35000508
 43
6.35000508
 44
215.9
 45
279.4
 46
0.0
 47
0.0
 48
0.0
 49
0.0
140
0.0
141
0.0
142
1.0
143
1.0
 70
  1712
 72
     0
 73
     0
 74
     0
  7

 75
     0
 76
     0
 77
     2
 78
   300
147
1.0
148
0.0
149
0.0
100
AcDbLayout
  1
Model
 70
     1
 71
     0
 10
0.0
 20
0.0
 11
12.0
 21
9.0
 12
0.0
 22
0.0
 32
0.0
 14
-87.8298
 24
-112.9516
 34
0.0
 15
87.8134
 25
112.8063
 35
0.0
146
0.0
 13
0.0
 23
0.0
 33
0.0
 16
1.0
 26
0.0
 36
0.0
 17
0.0
 27
1.0
 37
0.0
 76
     0
330
1F
331
29
  0
MATERIAL
  5
45
102
{ACAD_REACTORS
330
43
102
}
330
43
100
AcDbMaterial
  1
ByBlock
 72
     1
 94
      127
  0
MATERIAL
  5
44
102
{ACAD_REACTORS
330
43
102
}
330
43
100
AcDbMaterial
  1
ByLayer
 72
     1
 94
      127
  0
MATERIAL
  5
46
102
{ACAD_REACTORS
330
43
102
}
330
43
100
AcDbMaterial
  1
Global
 72
     1
 94
      127
  0
MLEADERSTYLE
  5
5C
102
{ACAD_REACTORS
330
5B
102
}
330
5B
100
AcDbMLeaderStyle
179
     2
170
     2
171
     1
172
     0
 90
        2
 40
0.0
 41
0.0
173
     1
 91
-1056964608
340
14
 92
       -2
290
     1
 42
0.09
291
     1
 43
0.36
  3
Standard
341
0
 44
0.18
300

342
11
174
     1
178
     6
175
     1
176
     0
 93
-1056964608
 45
0.18
292
     0
297
     0
 46
0.18
343
0
 94
-1056964608
 47
1.0
 49
1.0
140
1.0
293
     1
141
0.0
294
     1
177
     0
142
1.0
295
     0
296
     0
143
0.125
271
     0
272
     9
273
     9
298
     0
  0
MLINESTYLE
  5
18
102
{ACAD_REACTORS
330
17
102
}
330
17
100
AcDbMlineStyle
  2
Standard
 70
     0
  3

 62
   256
 51
90.0
 52
90.0
 71
     2
 49
0.5
 62
   256
  6
BYLAYER
 49
-0.5
 62
   256
  6
BYLAYER
  0
ACDBPLACEHOLDER
  5
F
102
{ACAD_REACTORS
330
E
102
}
330
E
  0
SCALE
  5
48
102
{ACAD_REACTORS
330
47
102
}
330
47
100
AcDbScale
 70
     0
300
1:1
140
1.0
141
1.0
290
     1
  0
SCALE
  5
49
102
{ACAD_REACTORS
330
47
102
}
330
47
100
AcDbScale
 70
     0
300
1/128" = 1'-0"
140
0.0078125
141
12.0
290
     0
  0
SCALE
  5
4A
102
{ACAD_REACTORS
330
47
102
}
330
47
100
AcDbScale
 70
     0
300
1/64" = 1'-0"
140
0.015625
141
12.0
290
     0
  0
SCALE
  5
4B
102
{ACAD_REACTORS
330
47
102
}
330
47
100
AcDbScale
 70
     0
300
1/32" = 1'-0"
140
0.03125
141
12.0
290
     0
  0
SCALE
  5
4C
102
{ACAD_REACTORS
330
47
102
}
330
47
100
AcDbScale
 70
     0
300
1/16" = 1'-0"
140
0.0625
141
12.0
290
     0
  0
SCALE
  5
4D
102
{ACAD_REACTORS
330
47
102
}
330
47
100
AcDbScale
 70
     0
300
3/32" = 1'-0"
140
0.09375
141
12.0
290
     0
  0
SCALE
  5
4E
102
{ACAD_REACTORS
330
47
102
}
330
47
100
AcDbScale
 70
     0
300
1/8" = 1'-0"
140
0.125
141
12.0
290
     0
  0
SCALE
  5
4F
102
{ACAD_REACTORS
330
47
102
}
330
47
100
AcDbScale
 70
     0
300
3/16" = 1'-0"
140
0.1875
141
12.0
290
     0
  0
SCALE
  5
50
102
{ACAD_REACTORS
330
47
102
}
330
47
100
AcDbScale
 70
     0
300
1/4" = 1'-0"
140
0.25
141
12.0
290
     0
  0
SCALE
  5
51
102
{ACAD_REACTORS
330
47
102
}
330
47
100
AcDbScale
 70
     0
300
3/8" = 1'-0"
140
0.375
141
12.0
290
     0
  0
SCALE
  5
52
102
{ACAD_REACTORS
330
47
102
}
330
47
100
AcDbScale
 70
     0
300
1/2" = 1'-0"
140
0.5
141
12.0
290
     0
  0
SCALE
  5
53
102
{ACAD_REACTORS
330
47
102
}
330
47
100
AcDbScale
 70
     0
300
3/4" = 1'-0"
140
0.75
141
12.0
290
     0
  0
SCALE
  5
54
102
{ACAD_REACTORS
330
47
102
}
330
47
100
AcDbScale
 70
     0
300
1" = 1'-0"
140
1.0
141
12.0
290
     0
  0
SCALE
  5
55
102
{ACAD_REACTORS
330
47
102
}
330
47
100
AcDbScale
 70
     0
300
1-1/2" = 1'-0"
140
1.5
141
12.0
290
     0
  0
SCALE
  5
56
102
{ACAD_REACTORS
330
47
102
}
330
47
100
AcDbScale
 70
     0
300
3" = 1'-0"
140
3.0
141
12.0
290
     0
  0
SCALE
  5
57
102
{ACAD_REACTORS
330
47
102
}
330
47
100
AcDbScale
 70
     0
300
6" = 1'-0"
140
6.0
141
12.0
290
     0
  0
SCALE
  5
58
102
{ACAD_REACTORS
330
47
102
}
330
47
100
AcDbScale
 70
     0
300
1'-0" = 1'-0"
140
12.0
141
12.0
290
     0
  0
TABLESTYLE
  5
5A
102
{ACAD_REACTORS
330
59
102
}
102
{ACAD_XDICTIONARY
360
87
102
}
330
59
100
AcDbTableStyle
  3
Standard
 70
     0
 71
     0
 40
0.06
 41
0.06
280
     0
281
     0
  7
Standard
140
0.18
170
     2
 62
     0
 63
   257
283
     0
 90
        4
 91
        0
  1

274
    -2
284
     1
 64
     0
275
    -2
285
     1
 65
     0
276
    -2
286
     1
 66
     0
277
    -2
287
     1
 67
     0
278
    -2
288
     1
 68
     0
279
    -2
289
     1
 69
     0
  7
Standard
140
0.25
170
     5
 62
     0
 63
   257
283
     0
 90
        4
 91
        0
  1

274
    -2
284
     1
 64
     0
275
    -2
285
     1
 65
     0
276
    -2
286
     1
 66
     0
277
    -2
287
     1
 67
     0
278
    -2
288
     1
 68
     0
279
    -2
289
     1
 69
     0
  7
Standard
140
0.18
170
     5
 62
     0
 63
   257
283
     0
 90
        4
 91
        0
  1

274
    -2
284
     1
 64
     0
275
    -2
285
     1
 65
     0
276
    -2
286
     1
 66
     0
277
    -2
287
     1
 67
     0
278
    -2
288
     1
 68
     0
279
    -2
289
     1
 69
     0
  0
VISUALSTYLE
  5
2F
102
{ACAD_REACTORS
330
2A
102
}
330
2A
100
AcDbVisualStyle
  2
2dWireframe
 70
     4
177
     3
291
     0
 70
    58
 90
        0
176
     1
 90
        2
176
     1
 90
        0
176
     1
 90
        0
176
     1
 40
0.6
176
     1
 40
30.0
176
     1
 62
     7
420
 16777215
176
     1
 90
        1
176
     1
 90
        4
176
     1
 62
     7
176
     1
 62
   257
176
     1
 90
        1
176
     1
 90
        1
176
     1
 40
1.0
176
     1
 90
        0
176
     1
 62
   257
176
     1
 40
1.0
176
     1
 90
        1
176
     1
 90
        6
176
     1
 90
        2
176
     1
 62
     7
176
     1
 90
        5
176
     1
 90
        0
176
     1
 90
        0
176
     1
290
     0
176
     1
 90
        1
176
     1
 40
0.0
176
     1
 90
        0
176
     1
290
     1
176
     1
290
     1
176
     1
290
     0
176
     1
290
     0
176
     1
290
     0
176
     1
290
     0
176
     1
290
     0
176
     1
290
     0
176
     1
290
     0
176
     1
 90
       50
176
     1
 40
0.0
176
     1
 40
1.0
176
     1
 90
        0
176
     1
 62
    18
420
        0
176
     1
 90
       50
176
     1
 90
        3
176
     1
 62
     5
420
      255
176
     1
290
     0
176
     1
 90
       50
176
     1
 90
       50
176
     1
 90
       50
176
     1
290
     0
176
     1
 90
       50
176
     1
 62
   256
176
     0
 40
1.0
176
     0
 90
        2
176
     1
  1
strokes_ogs.tif
176
     1
290
     0
176
     1
 40
1.0
176
     1
 40
1.0
176
     1
  0
VISUALSTYLE
  5
32
102
{ACAD_REACTORS
330
2A
102
}
330
2A
100
AcDbVisualStyle
  2
Basic
 70
     7
177
     3
291
     1
 70
    58
 90
        1
176
     1
 90
        0
176
     1
 90
        1
176
     1
 90
        0
176
     1
 40
0.6
176
     1
 40
30.0
176
     1
 62
     7
420
 16777215
176
     1
 90
        0
176
     1
 90
        4
176
     1
 62
     7
176
     1
 62
   257
176
     1
 90
        1
176
     1
 90
        1
176
     1
 40
1.0
176
     1
 90
        8
176
     1
 62
     7
176
     1
 40
1.0
176
     1
 90
        1
176
     1
 90
        6
176
     1
 90
        2
176
     1
 62
     7
176
     1
 90
        5
176
     1
 90
        0
176
     1
 90
        0
176
     1
290
     0
176
     1
 90
        1
176
     1
 40
0.0
176
     1
 90
        0
176
     1
290
     0
176
     1
290
     1
176
     1
290
     1
176
     1
290
     0
176
     1
290
     0
176
     1
290
     0
176
     1
290
     0
176
     1
290
     0
176
     1
290
     0
176
     1
 90
       50
176
     1
 40
0.0
176
     1
 40
1.0
176
     1
 90
        0
176
     1
 62
    18
420
        0
176
     1
 90
       50
176
     1
 90
        3
176
     1
 62
     5
420
      255
176
     1
290
     0
176
     1
 90
       50
176
     1
 90
       50
176
     1
 90
       50
176
     1
290
     0
176
     1
 90
       50
176
     1
 62
   256
176
     0
 40
1.0
176
     0
 90
        2
176
     1
  1
strokes_ogs.tif
176
     1
290
     0
176
     1
 40
1.0
176
     1
 40
1.0
176
     1
  0
VISUALSTYLE
  5
36
102
{ACAD_REACTORS
330
2A
102
}
330
2A
100
AcDbVisualStyle
  2
Brighten
 70
    12
177
     3
291
     1
 70
    58
 90
        2
176
     1
 90
        2
176
     1
 90
        0
176
     1
 90
        0
176
     1
 40
0.6
176
     1
 40
30.0
176
     1
 62
     7
420
 16777215
176
     1
 90
        1
176
     1
 90
        4
176
     1
 62
     7
176
     1
 62
   257
176
     1
 90
        1
176
     1
 90
        1
176
     1
 40
1.0
176
     1
 90
        8
176
     1
 62
     7
176
     1
 40
1.0
176
     1
 90
        1
176
     1
 90
        6
176
     1
 90
        2
176
     1
 62
     7
176
     1
 90
        5
176
     1
 90
        0
176
     1
 90
        0
176
     1
290
     0
176
     1
 90
        1
176
     1
 40
50.0
176
     1
 90
        0
176
     1
290
     0
176
     1
290
     1
176
     1
290
     1
176
     1
290
     0
176
     1
290
     0
176
     1
290
     0
176
     1
290
     0
176
     1
290
     0
176
     1
290
     0
176
     1
 90
       50
176
     1
 40
0.0
176
     1
 40
1.0
176
     1
 90
        0
176
     1
 62
    18
420
        0
176
     1
 90
       50
176
     1
 90
        3
176
     1
 62
     5
420
      255
176
     1
290
     0
176
     1
 90
       50
176
     1
 90
       50
176
     1
 90
       50
176
     1
290
     0
176
     1
 90
       50
176
     1
 62
   256
176
     0
 40
1.0
176
     0
 90
        2
176
     1
  1
strokes_ogs.tif
176
     1
290
     0
176
     1
 40
1.0
176
     1
 40
1.0
176
     1
  0
VISUALSTYLE
  5
3A
102
{ACAD_REACTORS
330
2A
102
}
330
2A
100
AcDbVisualStyle
  2
ColorChange
 70
    16
177
     3
291
     1
 70
    58
 90
        2
176
     1
 90
        2
176
     1
 90
        3
176
     1
 90
        0
176
     1
 40
0.6
176
     1
 40
30.0
176
     1
 62
     8
420
  8421504
176
     1
 90
        1
176
     1
 90
        4
176
     1
 62
     7
176
     1
 62
   257
176
     1
 90
        1
176
     1
 90
        1
176
     1
 40
1.0
176
     1
 90
        8
176
     1
 62
     8
420
  8421504
176
     1
 40
1.0
176
     1
 90
        1
176
     1
 90
        6
176
     1
 90
        2
176
     1
 62
     7
176
     1
 90
        5
176
     1
 90
        0
176
     1
 90
        0
176
     1
290
     0
176
     1
 90
        1
176
     1
 40
0.0
176
     1
 90
        0
176
     1
290
     0
176
     1
290
     1
176
     1
290
     1
176
     1
290
     0
176
     1
290
     0
176
     1
290
     0
176
     1
290
     0
176
     1
290
     0
176
     1
290
     0
176
     1
 90
       50
176
     1
 40
0.0
176
     1
 40
1.0
176
     1
 90
        0
176
     1
 62
    18
420
        0
176
     1
 90
       50
176
     1
 90
        3
176
     1
 62
     5
420
      255
176
     1
290
     0
176
     1
 90
       50
176
     1
 90
       50
176
     1
 90
       50
176
     1
290
     0
176
     1
 90
       50
176
     1
 62
   256
176
     0
 40
1.0
176
     0
 90
        2
176
     1
  1
strokes_ogs.tif
176
     1
290
     0
176
     1
 40
1.0
176
     1
 40
1.0
176
     1
  0
VISUALSTYLE
  5
34
102
{ACAD_REACTORS
330
2A
102
}
330
2A
100
AcDbVisualStyle
  2
Conceptual
 70
     9
177
     3
291
     0
 70
    58
 90
        3
176
     1
 90
        2
176
     1
 90
        0
176
     1
 90
        0
176
     1
 40
0.6
176
     1
 40
30.0
176
     1
 62
     7
420
 16777215
176
     1
 90
        2
176
     1
 90
        2
176
     1
 62
     7
176
     1
 62
   257
176
     1
 90
        1
176
     1
 90
        1
176
     1
 40
179.0
176
     1
 90
        8
176
     1
 62
     7
176
     1
 40
1.0
176
     1
 90
        1
176
     1
 90
        6
176
     1
 90
        2
176
     1
 62
     7
176
     1
 90
        3
176
     1
 90
        0
176
     1
 90
        0
176
     1
290
     0
176
     1
 90
        1
176
     1
 40
0.0
176
     1
 90
        0
176
     1
290
     0
176
     1
290
     1
176
     1
290
     1
176
     1
290
     0
176
     1
290
     0
176
     1
290
     0
176
     1
290
     0
176
     1
290
     0
176
     1
290
     0
176
     1
 90
       50
176
     1
 40
0.0
176
     1
 40
1.0
176
     1
 90
        0
176
     1
 62
    18
420
        0
176
     1
 90
       50
176
     1
 90
        3
176
     1
 62
     5
420
      255
176
     1
290
     0
176
     1
 90
       50
176
     1
 90
       50
176
     1
 90
       50
176
     1
290
     0
176
     1
 90
       50
176
     1
 62
   256
176
     0
 40
1.0
176
     0
 90
        2
176
     1
  1
strokes_ogs.tif
176
     1
290
     0
176
     1
 40
1.0
176
     1
 40
1.0
176
     1
  0
VISUALSTYLE
  5
35
102
{ACAD_REACTORS
330
2A
102
}
330
2A
100
AcDbVisualStyle
  2
Dim
 70
    11
177
     3
291
     1
 70
    58
 90
        2
176
     1
 90
        2
176
     1
 90
        0
176
     1
 90
        0
176
     1
 40
0.6
176
     1
 40
30.0
176
     1
 62
     7
420
 16777215
176
     1
 90
        1
176
     1
 90
        4
176
     1
 62
     7
176
     1
 62
   257
176
     1
 90
        1
176
     1
 90
        1
176
     1
 40
1.0
176
     1
 90
        8
176
     1
 62
     7
176
     1
 40
1.0
176
     1
 90
        1
176
     1
 90
        6
176
     1
 90
        2
176
     1
 62
     7
176
     1
 90
        5
176
     1
 90
        0
176
     1
 90
        0
176
     1
290
     0
176
     1
 90
        1
176
     1
 40
-50.0
176
     1
 90
        0
176
     1
290
     0
176
     1
290
     1
176
     1
290
     1
176
     1
290
     0
176
     1
290
     0
176
     1
290
     0
176
     1
290
     0
176
     1
290
     0
176
     1
290
     0
176
     1
 90
       50
176
     1
 40
0.0
176
     1
 40
1.0
176
     1
 90
        0
176
     1
 62
    18
420
        0
176
     1
 90
       50
176
     1
 90
        3
176
     1
 62
     5
420
      255
176
     1
290
     0
176
     1
 90
       50
176
     1
 90
       50
176
     1
 90
       50
176
     1
290
     0
176
     1
 90
       50
176
     1
 62
   256
176
     0
 40
1.0
176
     0
 90
        2
176
     1
  1
strokes_ogs.tif
176
     1
290
     0
176
     1
 40
1.0
176
     1
 40
1.0
176
     1
  0
VISUALSTYLE
  5
3D
102
{ACAD_REACTORS
330
2A
102
}
330
2A
100
AcDbVisualStyle
  2
EdgeColorOff
 70
    22
177
     3
291
     1
 70
    58
 90
        2
176
     0
 90
        2
176
     0
 90
        0
176
     0
 90
        0
176
     0
 40
0.6
176
     0
 40
30.0
176
     0
 62
     7
420
 16777215
176
     0
 90
        1
176
     0
 90
        4
176
     0
 62
     7
176
     0
 62
   257
176
     0
 90
        1
176
     0
 90
        1
176
     0
 40
1.0
176
     0
 90
        8
176
     2
 62
     7
176
     0
 40
1.0
176
     0
 90
        1
176
     0
 90
        6
176
     0
 90
        2
176
     0
 62
     7
176
     0
 90
        5
176
     0
 90
        0
176
     0
 90
        0
176
     0
290
     0
176
     0
 90
        1
176
     0
 40
0.0
176
     0
 90
        0
176
     0
290
     0
176
     0
290
     1
176
     0
290
     1
176
     0
290
     0
176
     0
290
     0
176
     0
290
     0
176
     0
290
     0
176
     0
290
     0
176
     0
290
     0
176
     0
 90
       50
176
     0
 40
0.0
176
     0
 40
1.0
176
     0
 90
        0
176
     0
 62
    18
420
        0
176
     0
 90
       50
176
     0
 90
        3
176
     0
 62
     5
420
      255
176
     0
290
     0
176
     0
 90
       50
176
     0
 90
       50
176
     0
 90
       50
176
     0
290
     0
176
     0
 90
       50
176
     0
 62
   256
176
     0
 40
1.0
176
     0
 90
        2
176
     0
  1
strokes_ogs.tif
176
     0
290
     0
176
     0
 40
1.0
176
     0
 40
1.0
176
     0
  0
VISUALSTYLE
  5
39
102
{ACAD_REACTORS
330
2A
102
}
330
2A
100
AcDbVisualStyle
  2
Facepattern
 70
    15
177
     3
291
     1
 70
    58
 90
        2
176
     1
 90
        2
176
     1
 90
        0
176
     1
 90
        0
176
     1
 40
0.6
176
     1
 40
30.0
176
     1
 62
     7
420
 16777215
176
     1
 90
        1
176
     1
 90
        4
176
     1
 62
     7
176
     1
 62
   257
176
     1
 90
        1
176
     1
 90
        1
176
     1
 40
1.0
176
     1
 90
        8
176
     1
 62
     7
176
     1
 40
1.0
176
     1
 90
        1
176
     1
 90
        6
176
     1
 90
        2
176
     1
 62
     7
176
     1
 90
        5
176
     1
 90
        0
176
     1
 90
        0
176
     1
290
     0
176
     1
 90
        1
176
     1
 40
0.0
176
     1
 90
        0
176
     1
290
     0
176
     1
290
     1
176
     1
290
     1
176
     1
290
     0
176
     1
290
     0
176
     1
290
     0
176
     1
290
     0
176
     1
290
     0
176
     1
290
     0
176
     1
 90
       50
176
     1
 40
0.0
176
     1
 40
1.0
176
     1
 90
        0
176
     1
 62
    18
420
        0
176
     1
 90
       50
176
     1
 90
        3
176
     1
 62
     5
420
      255
176
     1
290
     0
176
     1
 90
       50
176
     1
 90
       50
176
     1
 90
       50
176
     1
290
     0
176
     1
 90
       50
176
     1
 62
   256
176
     0
 40
1.0
176
     0
 90
        2
176
     1
  1
strokes_ogs.tif
176
     1
290
     0
176
     1
 40
1.0
176
     1
 40
1.0
176
     1
  0
VISUALSTYLE
  5
2B
102
{ACAD_REACTORS
330
2A
102
}
330
2A
100
AcDbVisualStyle
  2
Flat
 70
     0
177
     3
291
     1
 70
    58
 90
        2
176
     1
 90
        1
176
     1
 90
        1
176
     1
 90
        2
176
     1
 40
0.6
176
     1
 40
30.0
176
     1
 62
     7
420
 16777215
176
     1
 90
        0
176
     1
 90
        0
176
     1
 62
     7
176
     1
 62
   257
176
     1
 90
        1
176
     1
 90
        1
176
     1
 40
1.0
176
     1
 90
        8
176
     1
 62
     7
176
     1
 40
1.0
176
     1
 90
        1
176
     1
 90
        6
176
     1
 90
        2
176
     1
 62
     7
176
     1
 90
        5
176
     1
 90
        0
176
     1
 90
        0
176
     1
290
     0
176
     1
 90
       13
176
     1
 40
0.0
176
     1
 90
        0
176
     1
290
     0
176
     1
290
     1
176
     1
290
     1
176
     1
290
     0
176
     1
290
     0
176
     1
290
     0
176
     1
290
     0
176
     1
290
     0
176
     1
290
     0
176
     1
 90
       50
176
     1
 40
0.0
176
     1
 40
1.0
176
     1
 90
        0
176
     1
 62
    18
420
        0
176
     1
 90
       50
176
     1
 90
        3
176
     1
 62
     5
420
      255
176
     1
290
     0
176
     1
 90
       50
176
     1
 90
       50
176
     1
 90
       50
176
     1
290
     0
176
     1
 90
       50
176
     1
 62
   256
176
     0
 40
1.0
176
     0
 90
        2
176
     1
  1
strokes_ogs.tif
176
     1
290
     0
176
     1
 40
1.0
176
     1
 40
1.0
176
     1
  0
VISUALSTYLE
  5
2C
102
{ACAD_REACTORS
330
2A
102
}
330
2A
100
AcDbVisualStyle
  2
FlatWithEdges
 70
     1
177
     3
291
     1
 70
    58
 90
        2
176
     1
 90
        1
176
     1
 90
        1
176
     1
 90
        2
176
     1
 40
0.6
176
     1
 40
30.0
176
     1
 62
     7
420
 16777215
176
     1
 90
        1
176
     1
 90
        0
176
     1
 62
     7
176
     1
 62
   257
176
     1
 90
        1
176
     1
 90
        1
176
     1
 40
1.0
176
     1
 90
        0
176
     1
 62
   257
176
     1
 40
1.0
176
     1
 90
        1
176
     1
 90
        6
176
     1
 90
        2
176
     1
 62
     7
176
     1
 90
        5
176
     1
 90
        0
176
     1
 90
        0
176
     1
290
     0
176
     1
 90
       13
176
     1
 40
0.0
176
     1
 90
        0
176
     1
290
     0
176
     1
290
     1
176
     1
290
     1
176
     1
290
     0
176
     1
290
     0
176
     1
290
     0
176
     1
290
     0
176
     1
290
     0
176
     1
290
     0
176
     1
 90
       50
176
     1
 40
0.0
176
     1
 40
1.0
176
     1
 90
        0
176
     1
 62
    18
420
        0
176
     1
 90
       50
176
     1
 90
        3
176
     1
 62
     5
420
      255
176
     1
290
     0
176
     1
 90
       50
176
     1
 90
       50
176
     1
 90
       50
176
     1
290
     0
176
     1
 90
       50
176
     1
 62
   256
176
     0
 40
1.0
176
     0
 90
        2
176
     1
  1
strokes_ogs.tif
176
     1
290
     0
176
     1
 40
1.0
176
     1
 40
1.0
176
     1
  0
VISUALSTYLE
  5
2D
102
{ACAD_REACTORS
330
2A
102
}
330
2A
100
AcDbVisualStyle
  2
Gouraud
 70
     2
177
     3
291
     1
 70
    58
 90
        2
176
     1
 90
        2
176
     1
 90
        1
176
     1
 90
        2
176
     1
 40
0.6
176
     1
 40
30.0
176
     1
 62
     7
420
 16777215
176
     1
 90
        0
176
     1
 90
        0
176
     1
 62
     7
176
     1
 62
   257
176
     1
 90
        1
176
     1
 90
        1
176
     1
 40
1.0
176
     1
 90
        0
176
     1
 62
     7
176
     1
 40
1.0
176
     1
 90
        1
176
     1
 90
        6
176
     1
 90
        2
176
     1
 62
     7
176
     1
 90
        5
176
     1
 90
        0
176
     1
 90
        0
176
     1
290
     0
176
     1
 90
       13
176
     1
 40
0.0
176
     1
 90
        0
176
     1
290
     0
176
     1
290
     1
176
     1
290
     1
176
     1
290
     0
176
     1
290
     0
176
     1
290
     0
176
     1
290
     0
176
     1
290
     0
176
     1
290
     0
176
     1
 90
       50
176
     1
 40
0.0
176
     1
 40
1.0
176
     1
 90
        0
176
     1
 62
    18
420
        0
176
     1
 90
       50
176
     1
 90
        3
176
     1
 62
     5
420
      255
176
     1
290
     0
176
     1
 90
       50
176
     1
 90
       50
176
     1
 90
       50
176
     1
290
     0
176
     1
 90
       50
176
     1
 62
   256
176
     0
 40
1.0
176
     0
 90
        2
176
     1
  1
strokes_ogs.tif
176
     1
290
     0
176
     1
 40
1.0
176
     1
 40
1.0
176
     1
  0
VISUALSTYLE
  5
2E
102
{ACAD_REACTORS
330
2A
102
}
330
2A
100
AcDbVisualStyle
  2
GouraudWithEdges
 70
     3
177
     3
291
     1
 70
    58
 90
        2
176
     1
 90
        2
176
     1
 90
        1
176
     1
 90
        2
176
     1
 40
0.6
176
     1
 40
30.0
176
     1
 62
     7
420
 16777215
176
     1
 90
        1
176
     1
 90
        0
176
     1
 62
     7
176
     1
 62
   257
176
     1
 90
        1
176
     1
 90
        1
176
     1
 40
1.0
176
     1
 90
        0
176
     1
 62
   257
176
     1
 40
1.0
176
     1
 90
        1
176
     1
 90
        6
176
     1
 90
        2
176
     1
 62
     7
176
     1
 90
        5
176
     1
 90
        0
176
     1
 90
        0
176
     1
290
     0
176
     1
 90
       13
176
     1
 40
0.0
176
     1
 90
        0
176
     1
290
     0
176
     1
290
     1
176
     1
290
     1
176
     1
290
     0
176
     1
290
     0
176
     1
290
     0
176
     1
290
     0
176
     1
290
     0
176
     1
290
     0
176
     1
 90
       50
176
     1
 40
0.0
176
     1
 40
1.0
176
     1
 90
        0
176
     1
 62
    18
420
        0
176
     1
 90
       50
176
     1
 90
        3
176
     1
 62
     5
420
      255
176
     1
290
     0
176
     1
 90
       50
176
     1
 90
       50
176
     1
 90
       50
176
     1
290
     0
176
     1
 90
       50
176
     1
 62
   256
176
     0
 40
1.0
176
     0
 90
        2
176
     1
  1
strokes_ogs.tif
176
     1
290
     0
176
     1
 40
1.0
176
     1
 40
1.0
176
     1
  0
VISUALSTYLE
  5
31
102
{ACAD_REACTORS
330
2A
102
}
330
2A
100
AcDbVisualStyle
  2
Hidden
 70
     6
177
     3
291
     0
 70
    58
 90
        1
176
     1
 90
        2
176
     1
 90
        2
176
     1
 90
        0
176
     1
 40
0.6
176
     1
 40
30.0
176
     1
 62
     7
420
 16777215
176
     1
 90
        2
176
     1
 90
        2
176
     1
 62
     7
176
     1
 62
   257
176
     1
 90
        2
176
     1
 90
        1
176
     1
 40
40.0
176
     1
 90
        0
176
     1
 62
   257
176
     1
 40
1.0
176
     1
 90
        1
176
     1
 90
        6
176
     1
 90
        2
176
     1
 62
     7
176
     1
 90
        3
176
     1
 90
        0
176
     1
 90
        0
176
     1
290
     0
176
     1
 90
        1
176
     1
 40
0.0
176
     1
 90
        0
176
     1
290
     0
176
     1
290
     1
176
     1
290
     1
176
     1
290
     0
176
     1
290
     0
176
     1
290
     0
176
     1
290
     0
176
     1
290
     0
176
     1
290
     0
176
     1
 90
       50
176
     1
 40
0.0
176
     1
 40
1.0
176
     1
 90
        0
176
     1
 62
    18
420
        0
176
     1
 90
       50
176
     1
 90
        3
176
     1
 62
     5
420
      255
176
     1
290
     0
176
     1
 90
       50
176
     1
 90
       50
176
     1
 90
       50
176
     1
290
     0
176
     1
 90
       50
176
     1
 62
   256
176
     0
 40
1.0
176
     0
 90
        2
176
     1
  1
strokes_ogs.tif
176
     1
290
     0
176
     1
 40
1.0
176
     1
 40
1.0
176
     1
  0
VISUALSTYLE
  5
3B
102
{ACAD_REACTORS
330
2A
102
}
330
2A
100
AcDbVisualStyle
  2
JitterOff
 70
    20
177
     3
291
     1
 70
    58
 90
        2
176
     0
 90
        2
176
     0
 90
        0
176
     0
 90
        0
176
     0
 40
0.6
176
     0
 40
30.0
176
     0
 62
     7
420
 16777215
176
     0
 90
        1
176
     0
 90
        4
176
     0
 62
     7
176
     0
 62
   257
176
     0
 90
        1
176
     0
 90
        1
176
     0
 40
1.0
176
     0
 90
       10
176
     2
 62
     7
176
     0
 40
1.0
176
     0
 90
        1
176
     0
 90
        6
176
     0
 90
        2
176
     0
 62
     7
176
     0
 90
        5
176
     0
 90
        0
176
     0
 90
        0
176
     0
290
     0
176
     0
 90
        1
176
     0
 40
0.0
176
     0
 90
        0
176
     0
290
     0
176
     0
290
     1
176
     0
290
     1
176
     0
290
     0
176
     0
290
     0
176
     0
290
     0
176
     0
290
     0
176
     0
290
     0
176
     0
290
     0
176
     0
 90
       50
176
     0
 40
0.0
176
     0
 40
1.0
176
     0
 90
        0
176
     0
 62
    18
420
        0
176
     0
 90
       50
176
     0
 90
        3
176
     0
 62
     5
420
      255
176
     0
290
     0
176
     0
 90
       50
176
     0
 90
       50
176
     0
 90
       50
176
     0
290
     0
176
     0
 90
       50
176
     0
 62
   256
176
     0
 40
1.0
176
     0
 90
        2
176
     0
  1
strokes_ogs.tif
176
     0
290
     0
176
     0
 40
1.0
176
     0
 40
1.0
176
     0
  0
VISUALSTYLE
  5
38
102
{ACAD_REACTORS
330
2A
102
}
330
2A
100
AcDbVisualStyle
  2
Linepattern
 70
    14
177
     3
291
     1
 70
    58
 90
        2
176
     1
 90
        2
176
     1
 90
        0
176
     1
 90
        0
176
     1
 40
0.6
176
     1
 40
30.0
176
     1
 62
     7
420
 16777215
176
     1
 90
        1
176
     1
 90
        4
176
     1
 62
     7
176
     1
 62
   257
176
     1
 90
        7
176
     1
 90
        7
176
     1
 40
1.0
176
     1
 90
        8
176
     1
 62
     7
176
     1
 40
1.0
176
     1
 90
        1
176
     1
 90
        6
176
     1
 90
        2
176
     1
 62
     7
176
     1
 90
        5
176
     1
 90
        0
176
     1
 90
        0
176
     1
290
     0
176
     1
 90
        1
176
     1
 40
0.0
176
     1
 90
        0
176
     1
290
     0
176
     1
290
     1
176
     1
290
     1
176
     1
290
     0
176
     1
290
     0
176
     1
290
     0
176
     1
290
     0
176
     1
290
     0
176
     1
290
     0
176
     1
 90
       50
176
     1
 40
0.0
176
     1
 40
1.0
176
     1
 90
        0
176
     1
 62
    18
420
        0
176
     1
 90
       50
176
     1
 90
        3
176
     1
 62
     5
420
      255
176
     1
290
     0
176
     1
 90
       50
176
     1
 90
       50
176
     1
 90
       50
176
     1
290
     0
176
     1
 90
       50
176
     1
 62
   256
176
     0
 40
1.0
176
     0
 90
        2
176
     1
  1
strokes_ogs.tif
176
     1
290
     0
176
     1
 40
1.0
176
     1
 40
1.0
176
     1
  0
VISUALSTYLE
  5
3C
102
{ACAD_REACTORS
330
2A
102
}
330
2A
100
AcDbVisualStyle
  2
OverhangOff
 70
    21
177
     3
291
     1
 70
    58
 90
        2
176
     0
 90
        2
176
     0
 90
        0
176
     0
 90
        0
176
     0
 40
0.6
176
     0
 40
30.0
176
     0
 62
     7
420
 16777215
176
     0
 90
        1
176
     0
 90
        4
176
     0
 62
     7
176
     0
 62
   257
176
     0
 90
        1
176
     0
 90
        1
176
     0
 40
1.0
176
     0
 90
        9
176
     2
 62
     7
176
     0
 40
1.0
176
     0
 90
        1
176
     0
 90
        6
176
     0
 90
        2
176
     0
 62
     7
176
     0
 90
        5
176
     0
 90
        0
176
     0
 90
        0
176
     0
290
     0
176
     0
 90
        1
176
     0
 40
0.0
176
     0
 90
        0
176
     0
290
     0
176
     0
290
     1
176
     0
290
     1
176
     0
290
     0
176
     0
290
     0
176
     0
290
     0
176
     0
290
     0
176
     0
290
     0
176
     0
290
     0
176
     0
 90
       50
176
     0
 40
0.0
176
     0
 40
1.0
176
     0
 90
        0
176
     0
 62
    18
420
        0
176
     0
 90
       50
176
     0
 90
        3
176
     0
 62
     5
420
      255
176
     0
290
     0
176
     0
 90
       50
176
     0
 90
       50
176
     0
 90
       50
176
     0
290
     0
176
     0
 90
       50
176
     0
 62
   256
176
     0
 40
1.0
176
     0
 90
        2
176
     0
  1
strokes_ogs.tif
176
     0
290
     0
176
     0
 40
1.0
176
     0
 40
1.0
176
     0
  0
VISUALSTYLE
  5
33
102
{ACAD_REACTORS
330
2A
102
}
330
2A
100
AcDbVisualStyle
  2
Realistic
 70
     8
177
     3
291
     0
 70
    58
 90
        2
176
     1
 90
        3
176
     1
 90
        0
176
     1
 90
        2
176
     1
 40
0.6
176
     1
 40
30.0
176
     1
 62
     7
420
 16777215
176
     1
 90
        0
176
     1
 90
        0
176
     1
 62
     7
176
     1
 62
   257
176
     1
 90
        1
176
     1
 90
        1
176
     1
 40
1.0
176
     1
 90
        8
176
     1
 62
   257
176
     1
 40
1.0
176
     1
 90
        1
176
     1
 90
        6
176
     1
 90
        2
176
     1
 62
     7
176
     1
 90
        3
176
     1
 90
        0
176
     1
 90
        0
176
     1
290
     0
176
     1
 90
       13
176
     1
 40
0.0
176
     1
 90
        0
176
     1
290
     0
176
     1
290
     1
176
     1
290
     1
176
     1
290
     0
176
     1
290
     0
176
     1
290
     0
176
     1
290
     0
176
     1
290
     0
176
     1
290
     0
176
     1
 90
       50
176
     1
 40
0.0
176
     1
 40
1.0
176
     1
 90
        0
176
     1
 62
    18
420
        0
176
     1
 90
       50
176
     1
 90
        3
176
     1
 62
     5
420
      255
176
     1
290
     0
176
     1
 90
       50
176
     1
 90
       50
176
     1
 90
       50
176
     1
290
     0
176
     1
 90
       50
176
     1
 62
   256
176
     0
 40
1.0
176
     0
 90
        2
176
     1
  1
strokes_ogs.tif
176
     1
290
     0
176
     1
 40
1.0
176
     1
 40
1.0
176
     1
  0
VISUALSTYLE
  5
42
102
{ACAD_REACTORS
330
2A
102
}
330
2A
100
AcDbVisualStyle
  2
Shaded
 70
    27
177
     3
291
     0
 70
    58
 90
        2
176
     1
 90
        2
176
     1
 90
        1
176
     1
 90
        2
176
     1
 40
0.6
176
     1
 40
30.0
176
     1
 62
     7
420
 16777215
176
     1
 90
        0
176
     1
 90
        4
176
     1
 62
     7
176
     1
 62
   257
176
     1
 90
        1
176
     1
 90
        1
176
     1
 40
1.0
176
     1
 90
        8
176
     1
 62
   257
176
     1
 40
1.0
176
     1
 90
        1
176
     1
 90
        6
176
     1
 90
        2
176
     1
 62
     8
420
  7895160
176
     1
 90
        3
176
     1
 90
        0
176
     1
 90
        0
176
     1
290
     0
176
     1
 90
        5
176
     1
 40
0.0
176
     1
 90
        0
176
     1
290
     0
176
     1
290
     1
176
     1
290
     1
176
     1
290
     0
176
     1
290
     0
176
     1
290
     0
176
     1
290
     0
176
     1
290
     0
176
     1
290
     0
176
     1
 90
       50
176
     1
 40
0.0
176
     1
 40
1.0
176
     1
 90
        0
176
     1
 62
    18
420
        0
176
     1
 90
       50
176
     1
 90
        3
176
     1
 62
     5
420
      255
176
     1
290
     0
176
     1
 90
       50
176
     1
 90
       50
176
     1
 90
       50
176
     1
290
     0
176
     1
 90
       50
176
     1
 62
   256
176
     0
 40
1.0
176
     0
 90
        2
176
     1
  1
strokes_ogs.tif
176
     1
290
     0
176
     1
 40
1.0
176
     1
 40
1.0
176
     1
  0
VISUALSTYLE
  5
41
102
{ACAD_REACTORS
330
2A
102
}
330
2A
100
AcDbVisualStyle
  2
Shaded with edges
 70
    26
177
     3
291
     0
 70
    58
 90
        2
176
     1
 90
        2
176
     1
 90
        1
176
     1
 90
        2
176
     1
 40
0.6
176
     1
 40
30.0
176
     1
 62
     7
420
 16777215
176
     1
 90
        1
176
     1
 90
       10
176
     1
 62
     7
176
     1
 62
   257
176
     1
 90
        2
176
     1
 90
        1
176
     1
 40
1.0
176
     1
 90
        8
176
     1
 62
   257
176
     1
 40
1.0
176
     1
 90
        1
176
     1
 90
        6
176
     1
 90
        2
176
     1
 62
     7
176
     1
 90
        3
176
     1
 90
        0
176
     1
 90
        0
176
     1
290
     0
176
     1
 90
        5
176
     1
 40
0.0
176
     1
 90
        0
176
     1
290
     0
176
     1
290
     1
176
     1
290
     1
176
     1
290
     0
176
     1
290
     0
176
     1
290
     0
176
     1
290
     0
176
     1
290
     0
176
     1
290
     0
176
     1
 90
       50
176
     1
 40
0.0
176
     1
 40
1.0
176
     1
 90
        0
176
     1
 62
    18
420
        0
176
     1
 90
       50
176
     1
 90
        3
176
     1
 62
     5
420
      255
176
     1
290
     0
176
     1
 90
       50
176
     1
 90
       50
176
     1
 90
       50
176
     1
290
     0
176
     1
 90
       50
176
     1
 62
   256
176
     0
 40
1.0
176
     0
 90
        2
176
     1
  1
strokes_ogs.tif
176
     1
290
     0
176
     1
 40
1.0
176
     1
 40
1.0
176
     1
  0
VISUALSTYLE
  5
3E
102
{ACAD_REACTORS
330
2A
102
}
330
2A
100
AcDbVisualStyle
  2
Shades of Gray
 70
    23
177
     3
291
     0
 70
    58
 90
        2
176
     1
 90
        2
176
     1
 90
        3
176
     1
 90
        0
176
     1
 40
0.6
176
     1
 40
30.0
176
     1
 62
     7
420
 16777215
176
     1
 90
        2
176
     1
 90
        2
176
     1
 62
     7
176
     1
 62
     7
176
     1
 90
        1
176
     1
 90
        1
176
     1
 40
40.0
176
     1
 90
        8
176
     1
 62
     7
176
     1
 40
1.0
176
     1
 90
        1
176
     1
 90
        6
176
     1
 90
        2
176
     1
 62
     7
176
     1
 90
        3
176
     1
 90
        0
176
     1
 90
        0
176
     1
290
     0
176
     1
 90
        1
176
     1
 40
0.0
176
     1
 90
        0
176
     1
290
     0
176
     1
290
     1
176
     1
290
     1
176
     1
290
     0
176
     1
290
     0
176
     1
290
     0
176
     1
290
     0
176
     1
290
     0
176
     1
290
     0
176
     1
 90
       50
176
     1
 40
0.0
176
     1
 40
1.0
176
     1
 90
        0
176
     1
 62
    18
420
        0
176
     1
 90
       50
176
     1
 90
        3
176
     1
 62
     5
420
      255
176
     1
290
     0
176
     1
 90
       50
176
     1
 90
       50
176
     1
 90
       50
176
     1
290
     0
176
     1
 90
       50
176
     1
 62
   256
176
     0
 40
1.0
176
     0
 90
        2
176
     1
  1
strokes_ogs.tif
176
     1
290
     0
176
     1
 40
1.0
176
     1
 40
1.0
176
     1
  0
VISUALSTYLE
  5
3F
102
{ACAD_REACTORS
330
2A
102
}
330
2A
100
AcDbVisualStyle
  2
Sketchy
 70
    24
177
     3
291
     0
 70
    58
 90
        1
176
     1
 90
        2
176
     1
 90
        2
176
     1
 90
        0
176
     1
 40
0.6
176
     1
 40
30.0
176
     1
 62
     7
420
 16777215
176
     1
 90
        2
176
     1
 90
        2
176
     1
 62
     7
176
     1
 62
     7
176
     1
 90
        1
176
     1
 90
        1
176
     1
 40
40.0
176
     1
 90
       11
176
     1
 62
     7
176
     1
 40
1.0
176
     1
 90
        1
176
     1
 90
        6
176
     1
 90
        2
176
     1
 62
     7
176
     1
 90
        6
176
     1
 90
        0
176
     1
 90
        0
176
     1
290
     0
176
     1
 90
        1
176
     1
 40
0.0
176
     1
 90
        0
176
     1
290
     0
176
     1
290
     1
176
     1
290
     1
176
     1
290
     0
176
     1
290
     0
176
     1
290
     0
176
     1
290
     0
176
     1
290
     0
176
     1
290
     0
176
     1
 90
       50
176
     1
 40
0.0
176
     1
 40
1.0
176
     1
 90
        0
176
     1
 62
    18
420
        0
176
     1
 90
       50
176
     1
 90
        3
176
     1
 62
     5
420
      255
176
     1
290
     0
176
     1
 90
       50
176
     1
 90
       50
176
     1
 90
       50
176
     1
290
     0
176
     1
 90
       50
176
     1
 62
   256
176
     0
 40
1.0
176
     0
 90
        2
176
     1
  1
strokes_ogs.tif
176
     1
290
     0
176
     1
 40
1.0
176
     1
 40
1.0
176
     1
  0
VISUALSTYLE
  5
37
102
{ACAD_REACTORS
330
2A
102
}
330
2A
100
AcDbVisualStyle
  2
Thicken
 70
    13
177
     3
291
     1
 70
    58
 90
        2
176
     1
 90
        2
176
     1
 90
        0
176
     1
 90
        0
176
     1
 40
0.6
176
     1
 40
30.0
176
     1
 62
     7
420
 16777215
176
     1
 90
        1
176
     1
 90
        4
176
     1
 62
     7
176
     1
 62
   257
176
     1
 90
        1
176
     1
 90
        1
176
     1
 40
1.0
176
     1
 90
       12
176
     1
 62
     7
176
     1
 40
1.0
176
     1
 90
        1
176
     1
 90
        6
176
     1
 90
        2
176
     1
 62
     7
176
     1
 90
        5
176
     1
 90
        0
176
     1
 90
        0
176
     1
290
     0
176
     1
 90
        1
176
     1
 40
0.0
176
     1
 90
        0
176
     1
290
     0
176
     1
290
     1
176
     1
290
     1
176
     1
290
     0
176
     1
290
     0
176
     1
290
     0
176
     1
290
     0
176
     1
290
     0
176
     1
290
     0
176
     1
 90
       50
176
     1
 40
0.0
176
     1
 40
1.0
176
     1
 90
        0
176
     1
 62
    18
420
        0
176
     1
 90
       50
176
     1
 90
        3
176
     1
 62
     5
420
      255
176
     1
290
     0
176
     1
 90
       50
176
     1
 90
       50
176
     1
 90
       50
176
     1
290
     0
176
     1
 90
       50
176
     1
 62
   256
176
     0
 40
1.0
176
     0
 90
        2
176
     1
  1
strokes_ogs.tif
176
     1
290
     0
176
     1
 40
1.0
176
     1
 40
1.0
176
     1
  0
VISUALSTYLE
  5
30
102
{ACAD_REACTORS
330
2A
102
}
330
2A
100
AcDbVisualStyle
  2
Wireframe
 70
     5
177
     3
291
     0
 70
    58
 90
        0
176
     1
 90
        2
176
     1
 90
        0
176
     1
 90
        0
176
     1
 40
0.6
176
     1
 40
30.0
176
     1
 62
     7
420
 16777215
176
     1
 90
        1
176
     1
 90
        4
176
     1
 62
     7
176
     1
 62
   257
176
     1
 90
        1
176
     1
 90
        1
176
     1
 40
1.0
176
     1
 90
        0
176
     1
 62
   257
176
     1
 40
1.0
176
     1
 90
        1
176
     1
 90
        6
176
     1
 90
        2
176
     1
 62
     7
176
     1
 90
        3
176
     1
 90
        0
176
     1
 90
        0
176
     1
290
     0
176
     1
 90
        1
176
     1
 40
0.0
176
     1
 90
        0
176
     1
290
     0
176
     1
290
     1
176
     1
290
     1
176
     1
290
     0
176
     1
290
     0
176
     1
290
     0
176
     1
290
     0
176
     1
290
     0
176
     1
290
     0
176
     1
 90
       50
176
     1
 40
0.0
176
     1
 40
1.0
176
     1
 90
        0
176
     1
 62
    18
420
        0
176
     1
 90
       50
176
     1
 90
        3
176
     1
 62
     5
420
      255
176
     1
290
     0
176
     1
 90
       50
176
     1
 90
       50
176
     1
 90
       50
176
     1
290
     0
176
     1
 90
       50
176
     1
 62
   256
176
     0
 40
1.0
176
     0
 90
        2
176
     1
  1
strokes_ogs.tif
176
     1
290
     0
176
     1
 40
1.0
176
     1
 40
1.0
176
     1
  0
VISUALSTYLE
  5
40
102
{ACAD_REACTORS
330
2A
102
}
330
2A
100
AcDbVisualStyle
  2
X-Ray
 70
    25
177
     3
291
     0
 70
    58
 90
        2
176
     1
 90
        2
176
     1
 90
        1
176
     1
 90
        1
176
     1
 40
0.5
176
     1
 40
30.0
176
     1
 62
     7
420
 16777215
176
     1
 90
        1
176
     1
 90
        0
176
     1
 62
     7
176
     1
 62
   257
176
     1
 90
        1
176
     1
 90
        1
176
     1
 40
1.0
176
     1
 90
        8
176
     1
 62
     7
176
     1
 40
1.0
176
     1
 90
        1
176
     1
 90
        6
176
     1
 90
        2
176
     1
 62
     7
176
     1
 90
        3
176
     1
 90
        0
176
     1
 90
        0
176
     1
290
     0
176
     1
 90
       13
176
     1
 40
0.0
176
     1
 90
        0
176
     1
290
     0
176
     1
290
     1
176
     1
290
     1
176
     1
290
     0
176
     1
290
     0
176
     1
290
     0
176
     1
290
     0
176
     1
290
     0
176
     1
290
     0
176
     1
 90
       50
176
     1
 40
0.0
176
     1
 40
1.0
176
     1
 90
        0
176
     1
 62
    18
420
        0
176
     1
 90
       50
176
     1
 90
        3
176
     1
 62
     5
420
      255
176
     1
290
     0
176
     1
 90
       50
176
     1
 90
       50
176
     1
 90
       50
176
     1
290
     0
176
     1
 90
       50
176
     1
 62
   256
176
     0
 40
1.0
176
     0
 90
        2
176
     1
  1
strokes_ogs.tif
176
     1
290
     0
176
     1
 40
1.0
176
     1
 40
1.0
176
     1
  0
DICTIONARYVAR
  5
86
102
{ACAD_REACTORS
330
85
102
}
330
85
100
DictionaryVariables
280
     0
  1
1:1
  0
DICTIONARYVAR
  5
8B
102
{ACAD_REACTORS
330
85
102
}
330
85
100
DictionaryVariables
280
     0
  1
Standard
  0
DICTIONARYVAR
  5
8A
102
{ACAD_REACTORS
330
85
102
}
330
85
100
DictionaryVariables
280
     0
  1
Standard
  0
DICTIONARY
  5
87
330
5A
100
AcDbDictionary
280
     1
281
     1
  3
ACAD_ROUNDTRIP_2008_TABLESTYLE_CELLSTYLEMAP
360
88
  0
CELLSTYLEMAP
  5
88
102
{ACAD_REACTORS
330
87
102
}
330
87
100
AcDbCellStyleMap
 90
        3
300
CELLSTYLE
  1
TABLEFORMAT_BEGIN
 90
        5
170
     1
 91
        0
 92
    32768
 62
   257
 93
        1
300
CONTENTFORMAT
  1
CONTENTFORMAT_BEGIN
 90
        0
 91
        0
 92
        4
 93
        0
300

 40
0.0
140
1.0
 94
        5
 62
     0
340
11
144
0.25
309
CONTENTFORMAT_END
171
     1
301
MARGIN
  1
CELLMARGIN_BEGIN
 40
0.06
 40
0.06
 40
0.06
 40
0.06
 40
0.06
 40
0.06
309
CELLMARGIN_END
 94
        6
 95
        1
302
GRIDFORMAT
  1
GRIDFORMAT_BEGIN
 90
        0
 91
        1
 62
     0
 92
       -2
340
14
 93
        0
 40
0.045
309
GRIDFORMAT_END
 95
        2
302
GRIDFORMAT
  1
GRIDFORMAT_BEGIN
 90
        0
 91
        1
 62
     0
 92
       -2
340
14
 93
        0
 40
0.045
309
GRIDFORMAT_END
 95
        4
302
GRIDFORMAT
  1
GRIDFORMAT_BEGIN
 90
        0
 91
        1
 62
     0
 92
       -2
340
14
 93
        0
 40
0.045
309
GRIDFORMAT_END
 95
        8
302
GRIDFORMAT
  1
GRIDFORMAT_BEGIN
 90
        0
 91
        1
 62
     0
 92
       -2
340
14
 93
        0
 40
0.045
309
GRIDFORMAT_END
 95
       16
302
GRIDFORMAT
  1
GRIDFORMAT_BEGIN
 90
        0
 91
        1
 62
     0
 92
       -2
340
14
 93
        0
 40
0.045
309
GRIDFORMAT_END
 95
       32
302
GRIDFORMAT
  1
GRIDFORMAT_BEGIN
 90
        0
 91
        1
 62
     0
 92
       -2
340
14
 93
        0
 40
0.045
309
GRIDFORMAT_END
309
TABLEFORMAT_END
  1
CELLSTYLE_BEGIN
 90
        1
 91
        1
300
_TITLE
309
CELLSTYLE_END
300
CELLSTYLE
  1
TABLEFORMAT_BEGIN
 90
        5
170
     1
 91
        0
 92
        0
 62
   257
 93
        1
300
CONTENTFORMAT
  1
CONTENTFORMAT_BEGIN
 90
        0
 91
        0
 92
        4
 93
        0
300

 40
0.0
140
1.0
 94
        5
 62
     0
340
11
144
0.18
309
CONTENTFORMAT_END
171
     1
301
MARGIN
  1
CELLMARGIN_BEGIN
 40
0.06
 40
0.06
 40
0.06
 40
0.06
 40
0.06
 40
0.06
309
CELLMARGIN_END
 94
        6
 95
        1
302
GRIDFORMAT
  1
GRIDFORMAT_BEGIN
 90
        0
 91
        1
 62
     0
 92
       -2
340
14
 93
        0
 40
0.045
309
GRIDFORMAT_END
 95
        2
302
GRIDFORMAT
  1
GRIDFORMAT_BEGIN
 90
        0
 91
        1
 62
     0
 92
       -2
340
14
 93
        0
 40
0.045
309
GRIDFORMAT_END
 95
        4
302
GRIDFORMAT
  1
GRIDFORMAT_BEGIN
 90
        0
 91
        1
 62
     0
 92
       -2
340
14
 93
        0
 40
0.045
309
GRIDFORMAT_END
 95
        8
302
GRIDFORMAT
  1
GRIDFORMAT_BEGIN
 90
        0
 91
        1
 62
     0
 92
       -2
340
14
 93
        0
 40
0.045
309
GRIDFORMAT_END
 95
       16
302
GRIDFORMAT
  1
GRIDFORMAT_BEGIN
 90
        0
 91
        1
 62
     0
 92
       -2
340
14
 93
        0
 40
0.045
309
GRIDFORMAT_END
 95
       32
302
GRIDFORMAT
  1
GRIDFORMAT_BEGIN
 90
        0
 91
        1
 62
     0
 92
       -2
340
14
 93
        0
 40
0.045
309
GRIDFORMAT_END
309
TABLEFORMAT_END
  1
CELLSTYLE_BEGIN
 90
        2
 91
        1
300
_HEADER
309
CELLSTYLE_END
300
CELLSTYLE
  1
TABLEFORMAT_BEGIN
 90
        5
170
     1
 91
        0
 92
        0
 62
   257
 93
        1
300
CONTENTFORMAT
  1
CONTENTFORMAT_BEGIN
 90
        0
 91
        0
 92
        4
 93
        0
300

 40
0.0
140
1.0
 94
        2
 62
     0
340
11
144
0.18
309
CONTENTFORMAT_END
171
     1
301
MARGIN
  1
CELLMARGIN_BEGIN
 40
0.06
 40
0.06
 40
0.06
 40
0.06
 40
0.06
 40
0.06
309
CELLMARGIN_END
 94
        6
 95
        1
302
GRIDFORMAT
  1
GRIDFORMAT_BEGIN
 90
        0
 91
        1
 62
     0
 92
       -2
340
14
 93
        0
 40
0.045
309
GRIDFORMAT_END
 95
        2
302
GRIDFORMAT
  1
GRIDFORMAT_BEGIN
 90
        0
 91
        1
 62
     0
 92
       -2
340
14
 93
        0
 40
0.045
309
GRIDFORMAT_END
 95
        4
302
GRIDFORMAT
  1
GRIDFORMAT_BEGIN
 90
        0
 91
        1
 62
     0
 92
       -2
340
14
 93
        0
 40
0.045
309
GRIDFORMAT_END
 95
        8
302
GRIDFORMAT
  1
GRIDFORMAT_BEGIN
 90
        0
 91
        1
 62
     0
 92
       -2
340
14
 93
        0
 40
0.045
309
GRIDFORMAT_END
 95
       16
302
GRIDFORMAT
  1
GRIDFORMAT_BEGIN
 90
        0
 91
        1
 62
     0
 92
       -2
340
14
 93
        0
 40
0.045
309
GRIDFORMAT_END
 95
       32
302
GRIDFORMAT
  1
GRIDFORMAT_BEGIN
 90
        0
 91
        1
 62
     0
 92
       -2
340
14
 93
        0
 40
0.045
309
GRIDFORMAT_END
309
TABLEFORMAT_END
  1
CELLSTYLE_BEGIN
 90
        3
 91
        2
300
_DATA
309
CELLSTYLE_END
  0
ENDSEC
  0
EOF
