  0
SECTION
  2
HEADER
  9
$ACADVER
  1
AC1032
  9
$ACADMAINTVER
 90
       55
  9
$DWGCODEPAGE
  3
ANSI_1252
  9
$LASTSAVEDBY
  1
LYI-002
  9
$REQUIREDVERSIONS
160
                 0
  9
$INSBASE
 10
0.0
 20
0.0
 30
0.0
  9
$EXTMIN
 10
-1200.1272
 20
-590.1039
 30
0.0
  9
$EXTMAX
 10
1200.0728
 20
590.0961
 30
0.0
  9
$LIMMIN
 10
0.0
 20
0.0
  9
$LIMMAX
 10
12.0
 20
9.0
  9
$ORTHOMODE
 70
     0
  9
$REGENMODE
 70
     1
  9
$FILLMODE
 70
     1
  9
$QTEXTMODE
 70
     0
  9
$MIRRTEXT
 70
     1
  9
$LTSCALE
 40
1.0
  9
$ATTMODE
 70
     1
  9
$TEXTSIZE
 40
0.2
  9
$TRACEWID
 40
0.05
  9
$TEXTSTYLE
  7
Standard
  9
$CLAYER
  8
0
  9
$CELTYPE
  6
ByLayer
  9
$CECOLOR
 62
   256
  9
$CELTSCALE
 40
1.0
  9
$DISPSILH
 70
     0
  9
$DIMSCALE
 40
1.0
  9
$DIMASZ
 40
0.18
  9
$DIMEXO
 40
0.0625
  9
$DIMDLI
 40
0.38
  9
$DIMRND
 40
0.0
  9
$DIMDLE
 40
0.0
  9
$DIMEXE
 40
0.18
  9
$DIMTP
 40
0.0
  9
$DIMTM
 40
0.0
  9
$DIMTXT
 40
0.18
  9
$DIMCEN
 40
0.09
  9
$DIMTSZ
 40
0.0
  9
$DIMTOL
 70
     0
  9
$DIMLIM
 70
     0
  9
$DIMTIH
 70
     1
  9
$DIMTOH
 70
     1
  9
$DIMSE1
 70
     0
  9
$DIMSE2
 70
     0
  9
$DIMTAD
 70
     0
  9
$DIMZIN
 70
     0
  9
$DIMBLK
  1

  9
$DIMASO
 70
     1
  9
$DIMSHO
 70
     1
  9
$DIMPOST
  1

  9
$DIMAPOST
  1

  9
$DIMALT
 70
     0
  9
$DIMALTD
 70
     2
  9
$DIMALTF
 40
25.4
  9
$DIMLFAC
 40
1.0
  9
$DIMTOFL
 70
     0
  9
$DIMTVP
 40
0.0
  9
$DIMTIX
 70
     0
  9
$DIMSOXD
 70
     0
  9
$DIMSAH
 70
     0
  9
$DIMBLK1
  1

  9
$DIMBLK2
  1

  9
$DIMSTYLE
  2
Standard
  9
$DIMCLRD
 70
     0
  9
$DIMCLRE
 70
     0
  9
$DIMCLRT
 70
     0
  9
$DIMTFAC
 40
1.0
  9
$DIMGAP
 40
0.09
  9
$DIMJUST
 70
     0
  9
$DIMSD1
 70
     0
  9
$DIMSD2
 70
     0
  9
$DIMTOLJ
 70
     1
  9
$DIMTZIN
 70
     0
  9
$DIMALTZ
 70
     0
  9
$DIMALTTZ
 70
     0
  9
$DIMUPT
 70
     0
  9
$DIMDEC
 70
     4
  9
$DIMTDEC
 70
     4
  9
$DIMALTU
 70
     2
  9
$DIMALTTD
 70
     2
  9
$DIMTXSTY
  7
Standard
  9
$DIMAUNIT
 70
     0
  9
$DIMADEC
 70
     0
  9
$DIMALTRND
 40
0.0
  9
$DIMAZIN
 70
     0
  9
$DIMDSEP
 70
    46
  9
$DIMATFIT
 70
     3
  9
$DIMFRAC
 70
     0
  9
$DIMLDRBLK
  1

  9
$DIMLUNIT
 70
     2
  9
$DIMLWD
 70
    -2
  9
$DIMLWE
 70
    -2
  9
$DIMTMOVE
 70
     0
  9
$DIMFXL
 40
1.0
  9
$DIMFXLON
 70
     0
  9
$DIMJOGANG
 40
0.7853981633974483
  9
$DIMTFILL
 70
     0
  9
$DIMTFILLCLR
 70
     0
  9
$DIMARCSYM
 70
     0
  9
$DIMLTYPE
  6

  9
$DIMLTEX1
  6

  9
$DIMLTEX2
  6

  9
$DIMTXTDIRECTION
 70
     0
  9
$LUNITS
 70
     2
  9
$LUPREC
 70
     4
  9
$SKETCHINC
 40
0.1
  9
$FILLETRAD
 40
0.0
  9
$AUNITS
 70
     0
  9
$AUPREC
 70
     0
  9
$MENU
  1
.
  9
$ELEVATION
 40
0.0
  9
$PELEVATION
 40
0.0
  9
$THICKNESS
 40
0.0
  9
$LIMCHECK
 70
     0
  9
$CHAMFERA
 40
0.0
  9
$CHAMFERB
 40
0.0
  9
$CHAMFERC
 40
0.0
  9
$CHAMFERD
 40
0.0
  9
$SKPOLY
 70
     0
  9
$TDCREATE
 40
2460652.687932732
  9
$TDUCREATE
 40
2460652.458766065
  9
$TDUPDATE
 40
2460652.687932778
  9
$TDUUPDATE
 40
2460652.458766111
  9
$TDINDWG
 40
0.0000000116
  9
$TDUSRTIMER
 40
0.0000000116
  9
$USRTIMER
 70
     1
  9
$ANGBASE
 50
0.0
  9
$ANGDIR
 70
     0
  9
$PDMODE
 70
     0
  9
$PDSIZE
 40
0.0
  9
$PLINEWID
 40
0.0
  9
$SPLFRAME
 70
     0
  9
$SPLINETYPE
 70
     6
  9
$SPLINESEGS
 70
     8
  9
$HANDSEED
  5
A6
  9
$SURFTAB1
 70
     6
  9
$SURFTAB2
 70
     6
  9
$SURFTYPE
 70
     6
  9
$SURFU
 70
     6
  9
$SURFV
 70
     6
  9
$UCSBASE
  2

  9
$UCSNAME
  2

  9
$UCSORG
 10
0.0
 20
0.0
 30
0.0
  9
$UCSXDIR
 10
1.0
 20
0.0
 30
0.0
  9
$UCSYDIR
 10
0.0
 20
1.0
 30
0.0
  9
$UCSORTHOREF
  2

  9
$UCSORTHOVIEW
 70
     0
  9
$UCSORGTOP
 10
0.0
 20
0.0
 30
0.0
  9
$UCSORGBOTTOM
 10
0.0
 20
0.0
 30
0.0
  9
$UCSORGLEFT
 10
0.0
 20
0.0
 30
0.0
  9
$UCSORGRIGHT
 10
0.0
 20
0.0
 30
0.0
  9
$UCSORGFRONT
 10
0.0
 20
0.0
 30
0.0
  9
$UCSORGBACK
 10
0.0
 20
0.0
 30
0.0
  9
$PUCSBASE
  2

  9
$PUCSNAME
  2

  9
$PUCSORG
 10
0.0
 20
0.0
 30
0.0
  9
$PUCSXDIR
 10
1.0
 20
0.0
 30
0.0
  9
$PUCSYDIR
 10
0.0
 20
1.0
 30
0.0
  9
$PUCSORTHOREF
  2

  9
$PUCSORTHOVIEW
 70
     0
  9
$PUCSORGTOP
 10
0.0
 20
0.0
 30
0.0
  9
$PUCSORGBOTTOM
 10
0.0
 20
0.0
 30
0.0
  9
$PUCSORGLEFT
 10
0.0
 20
0.0
 30
0.0
  9
$PUCSORGRIGHT
 10
0.0
 20
0.0
 30
0.0
  9
$PUCSORGFRONT
 10
0.0
 20
0.0
 30
0.0
  9
$PUCSORGBACK
 10
0.0
 20
0.0
 30
0.0
  9
$USERI1
 70
     0
  9
$USERI2
 70
     0
  9
$USERI3
 70
     0
  9
$USERI4
 70
     0
  9
$USERI5
 70
     0
  9
$USERR1
 40
0.0
  9
$USERR2
 40
0.0
  9
$USERR3
 40
0.0
  9
$USERR4
 40
0.0
  9
$USERR5
 40
0.0
  9
$WORLDVIEW
 70
     1
  9
$SHADEDGE
 70
     3
  9
$SHADEDIF
 70
    70
  9
$TILEMODE
 70
     1
  9
$MAXACTVP
 70
    64
  9
$PINSBASE
 10
0.0
 20
0.0
 30
0.0
  9
$PLIMCHECK
 70
     0
  9
$PEXTMIN
 10
1.000000000000000E+20
 20
1.000000000000000E+20
 30
1.000000000000000E+20
  9
$PEXTMAX
 10
-1.000000000000000E+20
 20
-1.000000000000000E+20
 30
-1.000000000000000E+20
  9
$PLIMMIN
 10
0.0
 20
0.0
  9
$PLIMMAX
 10
12.0
 20
9.0
  9
$UNITMODE
 70
     0
  9
$VISRETAIN
 70
     1
  9
$PLINEGEN
 70
     0
  9
$PSLTSCALE
 70
     1
  9
$TREEDEPTH
 70
  3020
  9
$CMLSTYLE
  2
Standard
  9
$CMLJUST
 70
     0
  9
$CMLSCALE
 40
1.0
  9
$PROXYGRAPHICS
 70
     1
  9
$MEASUREMENT
 70
     0
  9
$CELWEIGHT
370
    -1
  9
$ENDCAPS
280
     0
  9
$JOINSTYLE
280
     0
  9
$LWDISPLAY
290
     0
  9
$INSUNITS
 70
     4
  9
$HYPERLINKBASE
  1

  9
$STYLESHEET
  1

  9
$XEDIT
290
     1
  9
$CEPSNTYPE
380
     0
  9
$PSTYLEMODE
290
     1
  9
$FINGERPRINTGUID
  2
{bf828dd2-35b4-427c-937e-d7b393d601eb}
  9
$VERSIONGUID
  2
{FAEB1C32-E019-11D5-929B-00C0DF256EC4}
  9
$EXTNAMES
290
     1
  9
$PSVPSCALE
 40
0.0
  9
$OLESTARTUP
290
     0
  9
$SORTENTS
280
   127
  9
$INDEXCTL
280
     0
  9
$HIDETEXT
280
     1
  9
$XCLIPFRAME
280
     2
  9
$HALOGAP
280
     0
  9
$OBSCOLOR
 70
   257
  9
$OBSLTYPE
280
     0
  9
$INTERSECTIONDISPLAY
280
     0
  9
$INTERSECTIONCOLOR
 70
   257
  9
$DIMASSOC
280
     2
  9
$PROJECTNAME
  1

  9
$CAMERADISPLAY
290
     0
  9
$LENSLENGTH
 40
50.0
  9
$CAMERAHEIGHT
 40
0.0
  9
$STEPSPERSEC
 40
2.0
  9
$STEPSIZE
 40
6.0
  9
$3DDWFPREC
 40
2.0
  9
$PSOLWIDTH
 40
0.25
  9
$PSOLHEIGHT
 40
4.0
  9
$LOFTANG1
 40
1.570796326794897
  9
$LOFTANG2
 40
1.570796326794897
  9
$LOFTMAG1
 40
0.0
  9
$LOFTMAG2
 40
0.0
  9
$LOFTPARAM
 70
     7
  9
$LOFTNORMALS
280
     1
  9
$LATITUDE
 40
37.795
  9
$LONGITUDE
 40
-122.394
  9
$NORTHDIRECTION
 40
0.0
  9
$TIMEZONE
 70
 -8000
  9
$LIGHTGLYPHDISPLAY
280
     1
  9
$TILEMODELIGHTSYNCH
280
     1
  9
$CMATERIAL
347
44
  9
$SOLIDHIST
280
     0
  9
$SHOWHIST
280
     1
  9
$DWFFRAME
280
     2
  9
$DGNFRAME
280
     2
  9
$REALWORLDSCALE
290
     1
  9
$INTERFERECOLOR
 62
   256
  9
$CSHADOW
280
     0
  9
$SHADOWPLANELOCATION
 40
0.0
  0
ENDSEC
  0
SECTION
  2
CLASSES
  0
CLASS
  1
ACDBDICTIONARYWDFLT
  2
AcDbDictionaryWithDefault
  3
ObjectDBX Classes
 90
        0
 91
        3
280
     0
281
     0
  0
CLASS
  1
VISUALSTYLE
  2
AcDbVisualStyle
  3
ObjectDBX Classes
 90
     4095
 91
        3
280
     0
281
     0
  0
CLASS
  1
MATERIAL
  2
AcDbMaterial
  3
ObjectDBX Classes
 90
     1153
 91
        3
280
     0
281
     0
  0
CLASS
  1
SCALE
  2
AcDbScale
  3
ObjectDBX Classes
 90
     1153
 91
        3
280
     0
281
     0
  0
CLASS
  1
TABLESTYLE
  2
AcDbTableStyle
  3
ObjectDBX Classes
 90
     4095
 91
        3
280
     0
281
     0
  0
CLASS
  1
MLEADERSTYLE
  2
AcDbMLeaderStyle
  3
ACDB_MLEADERSTYLE_CLASS
 90
     4095
 91
        3
280
     0
281
     0
  0
CLASS
  1
SUN
  2
AcDbSun
  3
SCENEOE
 90
     1153
 91
        3
280
     0
281
     0
  0
CLASS
  1
DICTIONARYVAR
  2
AcDbDictionaryVar
  3
ObjectDBX Classes
 90
        0
 91
        3
280
     0
281
     0
  0
CLASS
  1
CELLSTYLEMAP
  2
AcDbCellStyleMap
  3
ObjectDBX Classes
 90
     1152
 91
        3
280
     0
281
     0
  0
ENDSEC
  0
SECTION
  2
TABLES
  0
TABLE
  2
VPORT
  5
8
330
0
100
AcDbSymbolTable
 70
     1
  0
VPORT
  5
29
330
8
100
AcDbSymbolTableRecord
100
AcDbViewportTableRecord
  2
*Active
 70
     0
 10
0.0
 20
0.0
 11
1.0
 21
1.0
 12
10.42990654205607
 22
4.5
 13
0.0
 23
0.0
 14
0.5
 24
0.5
 15
0.5
 25
0.5
 16
0.0
 26
0.0
 36
1.0
 17
0.0
 27
0.0
 37
0.0
 40
9.0
 41
1.972972972850329
 42
50.0
 43
0.0
 44
0.0
 50
0.0
 51
0.0
 71
     0
 72
   100
 73
     1
 74
     3
 75
     0
 76
     0
 77
     0
 78
     0
281
     0
 65
     1
110
0.0
120
0.0
130
0.0
111
1.0
121
0.0
131
0.0
112
0.0
122
1.0
132
0.0
 79
     0
146
0.0
348
2F
 60
     3
 61
     5
292
     1
282
     1
141
0.0
142
0.0
 63
   250
361
5D
  0
ENDTAB
  0
TABLE
  2
LTYPE
  5
5
330
0
100
AcDbSymbolTable
 70
     1
  0
LTYPE
  5
14
330
5
100
AcDbSymbolTableRecord
100
AcDbLinetypeTableRecord
  2
ByBlock
 70
     0
  3

 72
    65
 73
     0
 40
0.0
  0
LTYPE
  5
15
330
5
100
AcDbSymbolTableRecord
100
AcDbLinetypeTableRecord
  2
ByLayer
 70
     0
  3

 72
    65
 73
     0
 40
0.0
  0
LTYPE
  5
16
330
5
100
AcDbSymbolTableRecord
100
AcDbLinetypeTableRecord
  2
Continuous
 70
     0
  3
Solid line
 72
    65
 73
     0
 40
0.0
  0
ENDTAB
  0
TABLE
  2
LAYER
  5
2
330
0
100
AcDbSymbolTable
 70
     2
  0
LAYER
  5
10
330
2
100
AcDbSymbolTableRecord
100
AcDbLayerTableRecord
  2
0
 70
     0
 62
     7
  6
Continuous
370
    -3
390
F
347
46
348
0
  0
LAYER
  5
5F
330
2
100
AcDbSymbolTableRecord
100
AcDbLayerTableRecord
  2
Layer 1
 70
     0
 62
     7
  6
Continuous
370
    -3
390
F
347
46
348
0
  0
ENDTAB
  0
TABLE
  2
STYLE
  5
3
330
0
100
AcDbSymbolTable
 70
     1
  0
STYLE
  5
11
330
3
100
AcDbSymbolTableRecord
100
AcDbTextStyleTableRecord
  2
Standard
 70
     0
 40
0.0
 41
1.0
 50
0.0
 71
     0
 42
0.2
  3
txt
  4

  0
ENDTAB
  0
TABLE
  2
VIEW
  5
6
330
0
100
AcDbSymbolTable
 70
     0
  0
ENDTAB
  0
TABLE
  2
UCS
  5
7
330
0
100
AcDbSymbolTable
 70
     0
  0
ENDTAB
  0
TABLE
  2
APPID
  5
9
330
0
100
AcDbSymbolTable
 70
     2
  0
APPID
  5
12
330
9
100
AcDbSymbolTableRecord
100
AcDbRegAppTableRecord
  2
ACAD
 70
     0
  0
APPID
  5
5E
330
9
100
AcDbSymbolTableRecord
100
AcDbRegAppTableRecord
  2
ODA
 70
     0
  0
ENDTAB
  0
TABLE
  2
DIMSTYLE
  5
A
330
0
100
AcDbSymbolTable
 70
     1
100
AcDbDimStyleTable
  0
DIMSTYLE
105
27
330
A
100
AcDbSymbolTableRecord
100
AcDbDimStyleTableRecord
  2
Standard
 70
     0
178
     0
340
11
  0
ENDTAB
  0
TABLE
  2
BLOCK_RECORD
  5
1
330
0
100
AcDbSymbolTable
 70
     1
  0
BLOCK_RECORD
  5
1F
330
1
100
AcDbSymbolTableRecord
100
AcDbBlockTableRecord
  2
*Model_Space
340
22
 70
     0
280
     1
281
     0
  0
BLOCK_RECORD
  5
1B
330
1
100
AcDbSymbolTableRecord
100
AcDbBlockTableRecord
  2
*Paper_Space
340
1E
 70
     0
280
     1
281
     0
  0
BLOCK_RECORD
  5
23
330
1
100
AcDbSymbolTableRecord
100
AcDbBlockTableRecord
  2
*Paper_Space0
340
26
 70
     0
280
     1
281
     0
  0
ENDTAB
  0
ENDSEC
  0
SECTION
  2
BLOCKS
  0
BLOCK
  5
20
330
1F
100
AcDbEntity
  8
0
100
AcDbBlockBegin
  2
*Model_Space
 70
     0
 10
0.0
 20
0.0
 30
0.0
  3
*Model_Space
  1

  0
ENDBLK
  5
21
330
1F
100
AcDbEntity
  8
0
100
AcDbBlockEnd
  0
BLOCK
  5
1C
330
1B
100
AcDbEntity
 67
     1
  8
0
100
AcDbBlockBegin
  2
*Paper_Space
 70
     0
 10
0.0
 20
0.0
 30
0.0
  3
*Paper_Space
  1

  0
ENDBLK
  5
1D
330
1B
100
AcDbEntity
 67
     1
  8
0
100
AcDbBlockEnd
  0
BLOCK
  5
24
330
23
100
AcDbEntity
  8
0
100
AcDbBlockBegin
  2
*Paper_Space0
 70
     0
 10
0.0
 20
0.0
 30
0.0
  3
*Paper_Space0
  1

  0
ENDBLK
  5
25
330
23
100
AcDbEntity
  8
0
100
AcDbBlockEnd
  0
ENDSEC
  0
SECTION
  2
ENTITIES
  0
SPLINE
  5
60
330
1F
100
AcDbEntity
  8
Layer 1
 62
   250
370
    20
100
AcDbSpline
210
0.0
220
0.0
230
1.0
 70
    11
 71
     3
 72
    17
 73
    13
 74
     0
 42
0.0000000001
 43
0.0000000001
 40
0.0
 40
0.0
 40
0.0
 40
0.0
 40
0.25
 40
0.25
 40
0.25
 40
0.5
 40
0.5
 40
0.5
 40
0.75
 40
0.75
 40
0.75
 40
1.0
 40
1.0
 40
1.0
 40
1.0
 10
184.2885
 20
459.7224
 30
0.0
 10
184.2885
 20
459.7224
 30
0.0
 10
179.6229
 20
362.5875
 30
0.0
 10
179.6229
 20
362.5875
 30
0.0
 10
179.6229
 20
362.5875
 30
0.0
 10
-2.2911
 20
346.0954
 30
0.0
 10
-2.2911
 20
346.0954
 30
0.0
 10
-2.2911
 20
346.0954
 30
0.0
 10
64.3456
 20
496.0202
 30
0.0
 10
64.3456
 20
496.0202
 30
0.0
 10
64.3456
 20
496.0202
 30
0.0
 10
184.2885
 20
459.7224
 30
0.0
 10
184.2885
 20
459.7224
 30
0.0
  0
SPLINE
  5
61
330
1F
100
AcDbEntity
  8
Layer 1
 62
   250
370
    20
100
AcDbSpline
210
0.0
220
0.0
230
1.0
 70
    11
 71
     3
 72
    17
 73
    13
 74
     0
 42
0.0000000001
 43
0.0000000001
 40
0.0
 40
0.0
 40
0.0
 40
0.0
 40
0.25
 40
0.25
 40
0.25
 40
0.5
 40
0.5
 40
0.5
 40
0.75
 40
0.75
 40
0.75
 40
1.0
 40
1.0
 40
1.0
 40
1.0
 10
340.1086
 20
269.6025
 30
0.0
 10
340.1086
 20
269.6025
 30
0.0
 10
473.5964
 20
385.129
 30
0.0
 10
473.5964
 20
385.129
 30
0.0
 10
473.5964
 20
385.129
 30
0.0
 10
779.9045
 20
191.9948
 30
0.0
 10
779.9045
 20
191.9948
 30
0.0
 10
779.9045
 20
191.9948
 30
0.0
 10
718.8911
 20
129.7227
 30
0.0
 10
718.8911
 20
129.7227
 30
0.0
 10
718.8911
 20
129.7227
 30
0.0
 10
340.1086
 20
269.6025
 30
0.0
 10
340.1086
 20
269.6025
 30
0.0
  0
SPLINE
  5
62
330
1F
100
AcDbEntity
  8
Layer 1
 62
   250
370
    20
100
AcDbSpline
210
0.0
220
0.0
230
1.0
 70
    11
 71
     3
 72
    17
 73
    13
 74
     0
 42
0.0000000001
 43
0.0000000001
 40
0.0
 40
0.0
 40
0.0
 40
0.0
 40
0.25
 40
0.25
 40
0.25
 40
0.5
 40
0.5
 40
0.5
 40
0.75
 40
0.75
 40
0.75
 40
1.0
 40
1.0
 40
1.0
 40
1.0
 10
880.595
 20
380.0292
 30
0.0
 10
880.595
 20
380.0292
 30
0.0
 10
759.0278
 20
387.3073
 30
0.0
 10
759.0278
 20
387.3073
 30
0.0
 10
759.0278
 20
387.3073
 30
0.0
 10
781.7891
 20
494.2549
 30
0.0
 10
781.7891
 20
494.2549
 30
0.0
 10
781.7891
 20
494.2549
 30
0.0
 10
910.5041
 20
421.3856
 30
0.0
 10
910.5041
 20
421.3856
 30
0.0
 10
910.5041
 20
421.3856
 30
0.0
 10
880.595
 20
380.0292
 30
0.0
 10
880.595
 20
380.0292
 30
0.0
  0
SPLINE
  5
63
330
1F
100
AcDbEntity
  8
Layer 1
 62
   250
370
    20
100
AcDbSpline
210
0.0
220
0.0
230
1.0
 70
    11
 71
     3
 72
    17
 73
    13
 74
     0
 42
0.0000000001
 43
0.0000000001
 40
0.0
 40
0.0
 40
0.0
 40
0.0
 40
0.25
 40
0.25
 40
0.25
 40
0.5
 40
0.5
 40
0.5
 40
0.75
 40
0.75
 40
0.75
 40
1.0
 40
1.0
 40
1.0
 40
1.0
 10
752.5542
 20
356.9042
 30
0.0
 10
752.5542
 20
356.9042
 30
0.0
 10
931.0206
 20
346.2142
 30
0.0
 10
931.0206
 20
346.2142
 30
0.0
 10
931.0206
 20
346.2142
 30
0.0
 10
804.3818
 20
216.9727
 30
0.0
 10
804.3818
 20
216.9727
 30
0.0
 10
804.3818
 20
216.9727
 30
0.0
 10
732.2751
 20
261.5966
 30
0.0
 10
732.2751
 20
261.5966
 30
0.0
 10
732.2751
 20
261.5966
 30
0.0
 10
752.5542
 20
356.9042
 30
0.0
 10
752.5542
 20
356.9042
 30
0.0
  0
SPLINE
  5
64
330
1F
100
AcDbEntity
  8
Layer 1
 62
   250
370
    20
100
AcDbSpline
210
0.0
220
0.0
230
1.0
 70
    11
 71
     3
 72
    17
 73
    13
 74
     0
 42
0.0000000001
 43
0.0000000001
 40
0.0
 40
0.0
 40
0.0
 40
0.0
 40
0.25
 40
0.25
 40
0.25
 40
0.5
 40
0.5
 40
0.5
 40
0.75
 40
0.75
 40
0.75
 40
1.0
 40
1.0
 40
1.0
 40
1.0
 10
1013.4852
 20
147.309
 30
0.0
 10
1013.4852
 20
147.309
 30
0.0
 10
862.3154
 20
77.6245
 30
0.0
 10
862.3154
 20
77.6245
 30
0.0
 10
862.3154
 20
77.6245
 30
0.0
 10
757.013
 20
115.8787
 30
0.0
 10
757.013
 20
115.8787
 30
0.0
 10
757.013
 20
115.8787
 30
0.0
 10
879.5223
 20
240.8823
 30
0.0
 10
879.5223
 20
240.8823
 30
0.0
 10
879.5223
 20
240.8823
 30
0.0
 10
1013.4852
 20
147.309
 30
0.0
 10
1013.4852
 20
147.309
 30
0.0
  0
SPLINE
  5
65
330
1F
100
AcDbEntity
  8
Layer 1
 62
   250
370
    20
100
AcDbSpline
210
0.0
220
0.0
230
1.0
 70
    11
 71
     3
 72
    20
 73
    16
 74
     0
 42
0.0000000001
 43
0.0000000001
 40
0.0
 40
0.0
 40
0.0
 40
0.0
 40
0.2
 40
0.2
 40
0.2
 40
0.4
 40
0.4
 40
0.4
 40
0.6000000000000001
 40
0.6000000000000001
 40
0.6000000000000001
 40
0.8
 40
0.8
 40
0.8
 40
1.0
 40
1.0
 40
1.0
 40
1.0
 10
-9.5079
 20
429.6239
 30
0.0
 10
-9.5079
 20
429.6239
 30
0.0
 10
-48.4954
 20
341.9093
 30
0.0
 10
-48.4954
 20
341.9093
 30
0.0
 10
-48.4954
 20
341.9093
 30
0.0
 10
-173.1653
 20
330.61
 30
0.0
 10
-173.1653
 20
330.61
 30
0.0
 10
-173.1653
 20
330.61
 30
0.0
 10
-210.4292
 20
393.9248
 30
0.0
 10
-210.4292
 20
393.9248
 30
0.0
 10
-210.4292
 20
393.9248
 30
0.0
 10
-125.6814
 20
468.2497
 30
0.0
 10
-125.6814
 20
468.2497
 30
0.0
 10
-125.6814
 20
468.2497
 30
0.0
 10
-9.5079
 20
429.6239
 30
0.0
 10
-9.5079
 20
429.6239
 30
0.0
  0
SPLINE
  5
66
330
1F
100
AcDbEntity
  8
Layer 1
 62
   250
370
    20
100
AcDbSpline
210
0.0
220
0.0
230
1.0
 70
    11
 71
     3
 72
    17
 73
    13
 74
     0
 42
0.0000000001
 43
0.0000000001
 40
0.0
 40
0.0
 40
0.0
 40
0.0
 40
0.25
 40
0.25
 40
0.25
 40
0.5
 40
0.5
 40
0.5
 40
0.75
 40
0.75
 40
0.75
 40
1.0
 40
1.0
 40
1.0
 40
1.0
 10
-363.223
 20
259.919
 30
0.0
 10
-363.223
 20
259.919
 30
0.0
 10
-240.6753
 20
367.3982
 30
0.0
 10
-240.6753
 20
367.3982
 30
0.0
 10
-240.6753
 20
367.3982
 30
0.0
 10
-152.4036
 20
217.427
 30
0.0
 10
-152.4036
 20
217.427
 30
0.0
 10
-152.4036
 20
217.427
 30
0.0
 10
-254.6952
 20
194.4312
 30
0.0
 10
-254.6952
 20
194.4312
 30
0.0
 10
-254.6952
 20
194.4312
 30
0.0
 10
-363.223
 20
259.919
 30
0.0
 10
-363.223
 20
259.919
 30
0.0
  0
SPLINE
  5
67
330
1F
100
AcDbEntity
  8
Layer 1
 62
   250
370
    20
100
AcDbSpline
210
0.0
220
0.0
230
1.0
 70
    11
 71
     3
 72
    14
 73
    10
 74
     0
 42
0.0000000001
 43
0.0000000001
 40
0.0
 40
0.0
 40
0.0
 40
0.0
 40
0.3333333333333333
 40
0.3333333333333333
 40
0.3333333333333333
 40
0.6666666666666666
 40
0.6666666666666666
 40
0.6666666666666666
 40
1.0
 40
1.0
 40
1.0
 40
1.0
 10
-465.101
 20
281.547
 30
0.0
 10
-465.101
 20
281.547
 30
0.0
 10
-302.8226
 20
183.612
 30
0.0
 10
-302.8226
 20
183.612
 30
0.0
 10
-302.8226
 20
183.612
 30
0.0
 10
-560.965
 20
125.5778
 30
0.0
 10
-560.965
 20
125.5778
 30
0.0
 10
-560.965
 20
125.5778
 30
0.0
 10
-465.101
 20
281.547
 30
0.0
 10
-465.101
 20
281.547
 30
0.0
  0
SPLINE
  5
68
330
1F
100
AcDbEntity
  8
Layer 1
 62
   250
370
    20
100
AcDbSpline
210
0.0
220
0.0
230
1.0
 70
    11
 71
     3
 72
    17
 73
    13
 74
     0
 42
0.0000000001
 43
0.0000000001
 40
0.0
 40
0.0
 40
0.0
 40
0.0
 40
0.25
 40
0.25
 40
0.25
 40
0.5
 40
0.5
 40
0.5
 40
0.75
 40
0.75
 40
0.75
 40
1.0
 40
1.0
 40
1.0
 40
1.0
 10
-564.6116
 20
341.5943
 30
0.0
 10
-564.6116
 20
341.5943
 30
0.0
 10
-498.8024
 20
301.8742
 30
0.0
 10
-498.8024
 20
301.8742
 30
0.0
 10
-498.8024
 20
301.8742
 30
0.0
 10
-577.6739
 20
173.5465
 30
0.0
 10
-577.6739
 20
173.5465
 30
0.0
 10
-577.6739
 20
173.5465
 30
0.0
 10
-697.4023
 20
196.9295
 30
0.0
 10
-697.4023
 20
196.9295
 30
0.0
 10
-697.4023
 20
196.9295
 30
0.0
 10
-564.6116
 20
341.5943
 30
0.0
 10
-564.6116
 20
341.5943
 30
0.0
  0
SPLINE
  5
69
330
1F
100
AcDbEntity
  8
Layer 1
 62
   250
370
    20
100
AcDbSpline
210
0.0
220
0.0
230
1.0
 70
    11
 71
     3
 72
    14
 73
    10
 74
     0
 42
0.0000000001
 43
0.0000000001
 40
0.0
 40
0.0
 40
0.0
 40
0.0
 40
0.3333333333333333
 40
0.3333333333333333
 40
0.3333333333333333
 40
0.6666666666666666
 40
0.6666666666666666
 40
0.6666666666666666
 40
1.0
 40
1.0
 40
1.0
 40
1.0
 10
-1007.8856
 20
381.6345
 30
0.0
 10
-1007.8856
 20
381.6345
 30
0.0
 10
-870.0692
 20
535.9726
 30
0.0
 10
-870.0692
 20
535.9726
 30
0.0
 10
-870.0692
 20
535.9726
 30
0.0
 10
-778.2274
 20
439.359
 30
0.0
 10
-778.2274
 20
439.359
 30
0.0
 10
-778.2274
 20
439.359
 30
0.0
 10
-1007.8856
 20
381.6345
 30
0.0
 10
-1007.8856
 20
381.6345
 30
0.0
  0
SPLINE
  5
6A
330
1F
100
AcDbEntity
  8
Layer 1
 62
   250
370
    20
100
AcDbSpline
210
0.0
220
0.0
230
1.0
 70
    11
 71
     3
 72
    20
 73
    16
 74
     0
 42
0.0000000001
 43
0.0000000001
 40
0.0
 40
0.0
 40
0.0
 40
0.0
 40
0.2
 40
0.2
 40
0.2
 40
0.4
 40
0.4
 40
0.4
 40
0.6000000000000001
 40
0.6000000000000001
 40
0.6000000000000001
 40
0.8
 40
0.8
 40
0.8
 40
1.0
 40
1.0
 40
1.0
 40
1.0
 10
-916.2276
 20
372.2349
 30
0.0
 10
-916.2276
 20
372.2349
 30
0.0
 10
-753.344
 20
413.1731
 30
0.0
 10
-753.344
 20
413.1731
 30
0.0
 10
-753.344
 20
413.1731
 30
0.0
 10
-649.6809
 20
304.1247
 30
0.0
 10
-649.6809
 20
304.1247
 30
0.0
 10
-649.6809
 20
304.1247
 30
0.0
 10
-740.3736
 20
205.3277
 30
0.0
 10
-740.3736
 20
205.3277
 30
0.0
 10
-740.3736
 20
205.3277
 30
0.0
 10
-911.7228
 20
238.7918
 30
0.0
 10
-911.7228
 20
238.7918
 30
0.0
 10
-911.7228
 20
238.7918
 30
0.0
 10
-916.2276
 20
372.2349
 30
0.0
 10
-916.2276
 20
372.2349
 30
0.0
  0
SPLINE
  5
6B
330
1F
100
AcDbEntity
  8
Layer 1
 62
   250
370
    20
100
AcDbSpline
210
0.0
220
0.0
230
1.0
 70
    11
 71
     3
 72
    14
 73
    10
 74
     0
 42
0.0000000001
 43
0.0000000001
 40
0.0
 40
0.0
 40
0.0
 40
0.0
 40
0.3333333333333333
 40
0.3333333333333333
 40
0.3333333333333333
 40
0.6666666666666666
 40
0.6666666666666666
 40
0.6666666666666666
 40
1.0
 40
1.0
 40
1.0
 40
1.0
 10
-1115.9614
 20
322.0362
 30
0.0
 10
-1115.9614
 20
322.0362
 30
0.0
 10
-958.0345
 20
361.7254
 30
0.0
 10
-958.0345
 20
361.7254
 30
0.0
 10
-958.0345
 20
361.7254
 30
0.0
 10
-952.2197
 20
189.3364
 30
0.0
 10
-952.2197
 20
189.3364
 30
0.0
 10
-952.2197
 20
189.3364
 30
0.0
 10
-1115.9614
 20
322.0362
 30
0.0
 10
-1115.9614
 20
322.0362
 30
0.0
  0
SPLINE
  5
6C
330
1F
100
AcDbEntity
  8
Layer 1
 62
   250
370
    20
100
AcDbSpline
210
0.0
220
0.0
230
1.0
 70
    11
 71
     3
 72
    23
 73
    19
 74
     0
 42
0.0000000001
 43
0.0000000001
 40
0.0
 40
0.0
 40
0.0
 40
0.0
 40
0.1666666666666667
 40
0.1666666666666667
 40
0.1666666666666667
 40
0.3333333333333333
 40
0.3333333333333333
 40
0.3333333333333333
 40
0.5
 40
0.5
 40
0.5
 40
0.6666666666666666
 40
0.6666666666666666
 40
0.6666666666666666
 40
0.8333333333333333
 40
0.8333333333333333
 40
0.8333333333333333
 40
1.0
 40
1.0
 40
1.0
 40
1.0
 10
-1169.2984
 20
235.4418
 30
0.0
 10
-1169.2984
 20
235.4418
 30
0.0
 10
-1073.2275
 20
241.4862
 30
0.0
 10
-1073.2275
 20
241.4862
 30
0.0
 10
-1073.2275
 20
241.4862
 30
0.0
 10
-951.5379
 20
142.8646
 30
0.0
 10
-951.5379
 20
142.8646
 30
0.0
 10
-951.5379
 20
142.8646
 30
0.0
 10
-950.6799
 20
143.4737
 30
0.0
 10
-950.6799
 20
143.4737
 30
0.0
 10
-950.6799
 20
143.4737
 30
0.0
 10
-949.1629
 20
98.726
 30
0.0
 10
-949.1629
 20
98.726
 30
0.0
 10
-949.1629
 20
98.726
 30
0.0
 10
-1164.6326
 20
159.8677
 30
0.0
 10
-1164.6326
 20
159.8677
 30
0.0
 10
-1164.6326
 20
159.8677
 30
0.0
 10
-1169.2984
 20
235.4418
 30
0.0
 10
-1169.2984
 20
235.4418
 30
0.0
  0
SPLINE
  5
6D
330
1F
100
AcDbEntity
  8
Layer 1
 62
   250
370
    20
100
AcDbSpline
210
0.0
220
0.0
230
1.0
 70
    11
 71
     3
 72
    17
 73
    13
 74
     0
 42
0.0000000001
 43
0.0000000001
 40
0.0
 40
0.0
 40
0.0
 40
0.0
 40
0.25
 40
0.25
 40
0.25
 40
0.5
 40
0.5
 40
0.5
 40
0.75
 40
0.75
 40
0.75
 40
1.0
 40
1.0
 40
1.0
 40
1.0
 10
-508.6163
 20
457.8125
 30
0.0
 10
-508.6163
 20
457.8125
 30
0.0
 10
-624.4989
 20
331.5598
 30
0.0
 10
-624.4989
 20
331.5598
 30
0.0
 10
-624.4989
 20
331.5598
 30
0.0
 10
-677.4527
 20
387.266
 30
0.0
 10
-677.4527
 20
387.266
 30
0.0
 10
-677.4527
 20
387.266
 30
0.0
 10
-613.8881
 20
530.274
 30
0.0
 10
-613.8881
 20
530.274
 30
0.0
 10
-613.8881
 20
530.274
 30
0.0
 10
-508.6163
 20
457.8125
 30
0.0
 10
-508.6163
 20
457.8125
 30
0.0
  0
SPLINE
  5
6E
330
1F
100
AcDbEntity
  8
Layer 1
 62
   250
370
    20
100
AcDbSpline
210
0.0
220
0.0
230
1.0
 70
    11
 71
     3
 72
    17
 73
    13
 74
     0
 42
0.0000000001
 43
0.0000000001
 40
0.0
 40
0.0
 40
0.0
 40
0.0
 40
0.25
 40
0.25
 40
0.25
 40
0.5
 40
0.5
 40
0.5
 40
0.75
 40
0.75
 40
0.75
 40
1.0
 40
1.0
 40
1.0
 40
1.0
 10
-331.4217
 20
335.8389
 30
0.0
 10
-331.4217
 20
335.8389
 30
0.0
 10
-395.668
 20
279.5081
 30
0.0
 10
-395.668
 20
279.5081
 30
0.0
 10
-395.668
 20
279.5081
 30
0.0
 10
-541.0536
 20
367.2537
 30
0.0
 10
-541.0536
 20
367.2537
 30
0.0
 10
-541.0536
 20
367.2537
 30
0.0
 10
-477.5579
 20
436.4271
 30
0.0
 10
-477.5579
 20
436.4271
 30
0.0
 10
-477.5579
 20
436.4271
 30
0.0
 10
-331.4217
 20
335.8389
 30
0.0
 10
-331.4217
 20
335.8389
 30
0.0
  0
SPLINE
  5
6F
330
1F
100
AcDbEntity
  8
Layer 1
 62
   250
370
    20
100
AcDbSpline
210
0.0
220
0.0
230
1.0
 70
    11
 71
     3
 72
    17
 73
    13
 74
     0
 42
0.0000000001
 43
0.0000000001
 40
0.0
 40
0.0
 40
0.0
 40
0.0
 40
0.25
 40
0.25
 40
0.25
 40
0.5
 40
0.5
 40
0.5
 40
0.75
 40
0.75
 40
0.75
 40
1.0
 40
1.0
 40
1.0
 40
1.0
 10
-379.863
 20
411.4078
 30
0.0
 10
-379.863
 20
411.4078
 30
0.0
 10
-325.1318
 20
534.5479
 30
0.0
 10
-325.1318
 20
534.5479
 30
0.0
 10
-325.1318
 20
534.5479
 30
0.0
 10
-165.3968
 20
481.4536
 30
0.0
 10
-165.3968
 20
481.4536
 30
0.0
 10
-165.3968
 20
481.4536
 30
0.0
 10
-304.462
 20
359.5006
 30
0.0
 10
-304.462
 20
359.5006
 30
0.0
 10
-304.462
 20
359.5006
 30
0.0
 10
-379.863
 20
411.4078
 30
0.0
 10
-379.863
 20
411.4078
 30
0.0
  0
SPLINE
  5
70
330
1F
100
AcDbEntity
  8
Layer 1
 62
   250
370
    20
100
AcDbSpline
210
0.0
220
0.0
230
1.0
 70
    11
 71
     3
 72
    17
 73
    13
 74
     0
 42
0.0000000001
 43
0.0000000001
 40
0.0
 40
0.0
 40
0.0
 40
0.0
 40
0.25
 40
0.25
 40
0.25
 40
0.5
 40
0.5
 40
0.5
 40
0.75
 40
0.75
 40
0.75
 40
1.0
 40
1.0
 40
1.0
 40
1.0
 10
-1036.4081
 20
-16.15
 30
0.0
 10
-1036.4081
 20
-16.15
 30
0.0
 10
-801.6322
 20
-16.15
 30
0.0
 10
-801.6322
 20
-16.15
 30
0.0
 10
-801.6322
 20
-16.15
 30
0.0
 10
-788.1716
 20
-81.9683
 30
0.0
 10
-788.1716
 20
-81.9683
 30
0.0
 10
-788.1716
 20
-81.9683
 30
0.0
 10
-930.485
 20
-162.5596
 30
0.0
 10
-930.485
 20
-162.5596
 30
0.0
 10
-930.485
 20
-162.5596
 30
0.0
 10
-1036.4081
 20
-16.15
 30
0.0
 10
-1036.4081
 20
-16.15
 30
0.0
  0
SPLINE
  5
71
330
1F
100
AcDbEntity
  8
Layer 1
 62
   250
370
    20
100
AcDbSpline
210
0.0
220
0.0
230
1.0
 70
    11
 71
     3
 72
    17
 73
    13
 74
     0
 42
0.0000000001
 43
0.0000000001
 40
0.0
 40
0.0
 40
0.0
 40
0.0
 40
0.25
 40
0.25
 40
0.25
 40
0.5
 40
0.5
 40
0.5
 40
0.75
 40
0.75
 40
0.75
 40
1.0
 40
1.0
 40
1.0
 40
1.0
 10
-217.102
 20
-348.328
 30
0.0
 10
-217.102
 20
-348.328
 30
0.0
 10
-353.5777
 20
-390.6135
 30
0.0
 10
-353.5777
 20
-390.6135
 30
0.0
 10
-353.5777
 20
-390.6135
 30
0.0
 10
-303.0754
 20
-456.344
 30
0.0
 10
-303.0754
 20
-456.344
 30
0.0
 10
-303.0754
 20
-456.344
 30
0.0
 10
-211.9383
 20
-456.06
 30
0.0
 10
-211.9383
 20
-456.06
 30
0.0
 10
-211.9383
 20
-456.06
 30
0.0
 10
-217.102
 20
-348.328
 30
0.0
 10
-217.102
 20
-348.328
 30
0.0
  0
SPLINE
  5
72
330
1F
100
AcDbEntity
  8
Layer 1
 62
   250
370
    20
100
AcDbSpline
210
0.0
220
0.0
230
1.0
 70
    11
 71
     3
 72
    17
 73
    13
 74
     0
 42
0.0000000001
 43
0.0000000001
 40
0.0
 40
0.0
 40
0.0
 40
0.0
 40
0.25
 40
0.25
 40
0.25
 40
0.5
 40
0.5
 40
0.5
 40
0.75
 40
0.75
 40
0.75
 40
1.0
 40
1.0
 40
1.0
 40
1.0
 10
-178.1909
 20
-279.9805
 30
0.0
 10
-178.1909
 20
-279.9805
 30
0.0
 10
-169.7561
 20
-455.9414
 30
0.0
 10
-169.7561
 20
-455.9414
 30
0.0
 10
-169.7561
 20
-455.9414
 30
0.0
 10
-76.5966
 20
-455.6678
 30
0.0
 10
-76.5966
 20
-455.6678
 30
0.0
 10
-76.5966
 20
-455.6678
 30
0.0
 10
-53.4676
 20
-291.2848
 30
0.0
 10
-53.4676
 20
-291.2848
 30
0.0
 10
-53.4676
 20
-291.2848
 30
0.0
 10
-178.1909
 20
-279.9805
 30
0.0
 10
-178.1909
 20
-279.9805
 30
0.0
  0
SPLINE
  5
73
330
1F
100
AcDbEntity
  8
Layer 1
 62
   250
370
    20
100
AcDbSpline
210
0.0
220
0.0
230
1.0
 70
    11
 71
     3
 72
    17
 73
    13
 74
     0
 42
0.0000000001
 43
0.0000000001
 40
0.0
 40
0.0
 40
0.0
 40
0.0
 40
0.25
 40
0.25
 40
0.25
 40
0.5
 40
0.5
 40
0.5
 40
0.75
 40
0.75
 40
0.75
 40
1.0
 40
1.0
 40
1.0
 40
1.0
 10
81.3534
 20
-436.7601
 30
0.0
 10
81.3534
 20
-436.7601
 30
0.0
 10
155.812
 20
-310.2596
 30
0.0
 10
155.812
 20
-310.2596
 30
0.0
 10
155.812
 20
-310.2596
 30
0.0
 10
-11.6223
 20
-295.0787
 30
0.0
 10
-11.6223
 20
-295.0787
 30
0.0
 10
-11.6223
 20
-295.0787
 30
0.0
 10
-23.5508
 20
-379.8924
 30
0.0
 10
-23.5508
 20
-379.8924
 30
0.0
 10
-23.5508
 20
-379.8924
 30
0.0
 10
81.3534
 20
-436.7601
 30
0.0
 10
81.3534
 20
-436.7601
 30
0.0
  0
SPLINE
  5
74
330
1F
100
AcDbEntity
  8
Layer 1
 62
   250
370
    20
100
AcDbSpline
210
0.0
220
0.0
230
1.0
 70
    11
 71
     3
 72
    17
 73
    13
 74
     0
 42
0.0000000001
 43
0.0000000001
 40
0.0
 40
0.0
 40
0.0
 40
0.0
 40
0.25
 40
0.25
 40
0.25
 40
0.5
 40
0.5
 40
0.5
 40
0.75
 40
0.75
 40
0.75
 40
1.0
 40
1.0
 40
1.0
 40
1.0
 10
-184.3352
 20
-151.7714
 30
0.0
 10
-184.3352
 20
-151.7714
 30
0.0
 10
-179.6849
 20
-248.9115
 30
0.0
 10
-179.6849
 20
-248.9115
 30
0.0
 10
-179.6849
 20
-248.9115
 30
0.0
 10
2.229
 20
-265.4035
 30
0.0
 10
2.229
 20
-265.4035
 30
0.0
 10
2.229
 20
-265.4035
 30
0.0
 10
-64.3923
 20
-115.4787
 30
0.0
 10
-64.3923
 20
-115.4787
 30
0.0
 10
-64.3923
 20
-115.4787
 30
0.0
 10
-184.3352
 20
-151.7714
 30
0.0
 10
-184.3352
 20
-151.7714
 30
0.0
  0
SPLINE
  5
75
330
1F
100
AcDbEntity
  8
Layer 1
 62
   250
370
    20
100
AcDbSpline
210
0.0
220
0.0
230
1.0
 70
    11
 71
     3
 72
    20
 73
    16
 74
     0
 42
0.0000000001
 43
0.0000000001
 40
0.0
 40
0.0
 40
0.0
 40
0.0
 40
0.2
 40
0.2
 40
0.2
 40
0.4
 40
0.4
 40
0.4
 40
0.6000000000000001
 40
0.6000000000000001
 40
0.6000000000000001
 40
0.8
 40
0.8
 40
0.8
 40
1.0
 40
1.0
 40
1.0
 40
1.0
 10
-335.3825
 20
-197.4947
 30
0.0
 10
-335.3825
 20
-197.4947
 30
0.0
 10
-353.6389
 20
-281.0128
 30
0.0
 10
-353.6389
 20
-281.0128
 30
0.0
 10
-353.6389
 20
-281.0128
 30
0.0
 10
-287.8067
 20
-336.8584
 30
0.0
 10
-287.8067
 20
-336.8584
 30
0.0
 10
-287.8067
 20
-336.8584
 30
0.0
 10
-218.6801
 20
-315.4473
 30
0.0
 10
-218.6801
 20
-315.4473
 30
0.0
 10
-218.6801
 20
-315.4473
 30
0.0
 10
-225.9199
 20
-164.3662
 30
0.0
 10
-225.9199
 20
-164.3662
 30
0.0
 10
-225.9199
 20
-164.3662
 30
0.0
 10
-335.3825
 20
-197.4947
 30
0.0
 10
-335.3825
 20
-197.4947
 30
0.0
  0
SPLINE
  5
76
330
1F
100
AcDbEntity
  8
Layer 1
 62
   250
370
    20
100
AcDbSpline
210
0.0
220
0.0
230
1.0
 70
    11
 71
     3
 72
    17
 73
    13
 74
     0
 42
0.0000000001
 43
0.0000000001
 40
0.0
 40
0.0
 40
0.0
 40
0.0
 40
0.25
 40
0.25
 40
0.25
 40
0.5
 40
0.5
 40
0.5
 40
0.75
 40
0.75
 40
0.75
 40
1.0
 40
1.0
 40
1.0
 40
1.0
 10
-880.6492
 20
-231.4646
 30
0.0
 10
-880.6492
 20
-231.4646
 30
0.0
 10
-759.0898
 20
-224.1865
 30
0.0
 10
-759.0898
 20
-224.1865
 30
0.0
 10
-759.0898
 20
-224.1865
 30
0.0
 10
-781.851
 20
-117.2441
 30
0.0
 10
-781.851
 20
-117.2441
 30
0.0
 10
-781.851
 20
-117.2441
 30
0.0
 10
-910.566
 20
-190.1186
 30
0.0
 10
-910.566
 20
-190.1186
 30
0.0
 10
-910.566
 20
-190.1186
 30
0.0
 10
-880.6492
 20
-231.4646
 30
0.0
 10
-880.6492
 20
-231.4646
 30
0.0
  0
SPLINE
  5
77
330
1F
100
AcDbEntity
  8
Layer 1
 62
   250
370
    20
100
AcDbSpline
210
0.0
220
0.0
230
1.0
 70
    11
 71
     3
 72
    17
 73
    13
 74
     0
 42
0.0000000001
 43
0.0000000001
 40
0.0
 40
0.0
 40
0.0
 40
0.0
 40
0.25
 40
0.25
 40
0.25
 40
0.5
 40
0.5
 40
0.5
 40
0.75
 40
0.75
 40
0.75
 40
1.0
 40
1.0
 40
1.0
 40
1.0
 10
-752.6162
 20
-254.5946
 30
0.0
 10
-752.6162
 20
-254.5946
 30
0.0
 10
-931.0825
 20
-265.2796
 30
0.0
 10
-931.0825
 20
-265.2796
 30
0.0
 10
-931.0825
 20
-265.2796
 30
0.0
 10
-804.4438
 20
-394.5314
 30
0.0
 10
-804.4438
 20
-394.5314
 30
0.0
 10
-804.4438
 20
-394.5314
 30
0.0
 10
-732.3295
 20
-349.9075
 30
0.0
 10
-732.3295
 20
-349.9075
 30
0.0
 10
-732.3295
 20
-349.9075
 30
0.0
 10
-752.6162
 20
-254.5946
 30
0.0
 10
-752.6162
 20
-254.5946
 30
0.0
  0
SPLINE
  5
78
330
1F
100
AcDbEntity
  8
Layer 1
 62
   250
370
    20
100
AcDbSpline
210
0.0
220
0.0
230
1.0
 70
    11
 71
     3
 72
    17
 73
    13
 74
     0
 42
0.0000000001
 43
0.0000000001
 40
0.0
 40
0.0
 40
0.0
 40
0.0
 40
0.25
 40
0.25
 40
0.25
 40
0.5
 40
0.5
 40
0.5
 40
0.75
 40
0.75
 40
0.75
 40
1.0
 40
1.0
 40
1.0
 40
1.0
 10
-1013.5471
 20
-464.1951
 30
0.0
 10
-1013.5471
 20
-464.1951
 30
0.0
 10
-862.3775
 20
-533.8692
 30
0.0
 10
-862.3775
 20
-533.8692
 30
0.0
 10
-862.3775
 20
-533.8692
 30
0.0
 10
-757.0673
 20
-495.6202
 30
0.0
 10
-757.0673
 20
-495.6202
 30
0.0
 10
-757.0673
 20
-495.6202
 30
0.0
 10
-879.569
 20
-370.6115
 30
0.0
 10
-879.569
 20
-370.6115
 30
0.0
 10
-879.569
 20
-370.6115
 30
0.0
 10
-1013.5471
 20
-464.1951
 30
0.0
 10
-1013.5471
 20
-464.1951
 30
0.0
  0
SPLINE
  5
79
330
1F
100
AcDbEntity
  8
Layer 1
 62
   250
370
    20
100
AcDbSpline
210
0.0
220
0.0
230
1.0
 70
    11
 71
     3
 72
    17
 73
    13
 74
     0
 42
0.0000000001
 43
0.0000000001
 40
0.0
 40
0.0
 40
0.0
 40
0.0
 40
0.25
 40
0.25
 40
0.25
 40
0.5
 40
0.5
 40
0.5
 40
0.75
 40
0.75
 40
0.75
 40
1.0
 40
1.0
 40
1.0
 40
1.0
 10
135.6555
 20
-422.4412
 30
0.0
 10
135.6555
 20
-422.4412
 30
0.0
 10
116.135
 20
-455.6007
 30
0.0
 10
116.135
 20
-455.6007
 30
0.0
 10
116.135
 20
-455.6007
 30
0.0
 10
257.8815
 20
-532.4291
 30
0.0
 10
257.8815
 20
-532.4291
 30
0.0
 10
257.8815
 20
-532.4291
 30
0.0
 10
333.972
 20
-467.0341
 30
0.0
 10
333.972
 20
-467.0341
 30
0.0
 10
333.972
 20
-467.0341
 30
0.0
 10
135.6555
 20
-422.4412
 30
0.0
 10
135.6555
 20
-422.4412
 30
0.0
  0
SPLINE
  5
7A
330
1F
100
AcDbEntity
  8
Layer 1
 62
   250
370
    20
100
AcDbSpline
210
0.0
220
0.0
230
1.0
 70
    11
 71
     3
 72
    17
 73
    13
 74
     0
 42
0.0000000001
 43
0.0000000001
 40
0.0
 40
0.0
 40
0.0
 40
0.0
 40
0.25
 40
0.25
 40
0.25
 40
0.5
 40
0.5
 40
0.5
 40
0.75
 40
0.75
 40
0.75
 40
1.0
 40
1.0
 40
1.0
 40
1.0
 10
363.1611
 20
-351.5748
 30
0.0
 10
363.1611
 20
-351.5748
 30
0.0
 10
240.6133
 20
-244.0956
 30
0.0
 10
240.6133
 20
-244.0956
 30
0.0
 10
240.6133
 20
-244.0956
 30
0.0
 10
152.3415
 20
-394.0771
 30
0.0
 10
152.3415
 20
-394.0771
 30
0.0
 10
152.3415
 20
-394.0771
 30
0.0
 10
254.6332
 20
-417.0678
 30
0.0
 10
254.6332
 20
-417.0678
 30
0.0
 10
254.6332
 20
-417.0678
 30
0.0
 10
363.1611
 20
-351.5748
 30
0.0
 10
363.1611
 20
-351.5748
 30
0.0
  0
SPLINE
  5
7B
330
1F
100
AcDbEntity
  8
Layer 1
 62
   250
370
    20
100
AcDbSpline
210
0.0
220
0.0
230
1.0
 70
    11
 71
     3
 72
    14
 73
    10
 74
     0
 42
0.0000000001
 43
0.0000000001
 40
0.0
 40
0.0
 40
0.0
 40
0.0
 40
0.3333333333333333
 40
0.3333333333333333
 40
0.3333333333333333
 40
0.6666666666666666
 40
0.6666666666666666
 40
0.6666666666666666
 40
1.0
 40
1.0
 40
1.0
 40
1.0
 10
465.0389
 20
-329.9571
 30
0.0
 10
465.0389
 20
-329.9571
 30
0.0
 10
302.7605
 20
-427.8972
 30
0.0
 10
302.7605
 20
-427.8972
 30
0.0
 10
302.7605
 20
-427.8972
 30
0.0
 10
560.9029
 20
-485.9263
 30
0.0
 10
560.9029
 20
-485.9263
 30
0.0
 10
560.9029
 20
-485.9263
 30
0.0
 10
465.0389
 20
-329.9571
 30
0.0
 10
465.0389
 20
-329.9571
 30
0.0
  0
SPLINE
  5
7C
330
1F
100
AcDbEntity
  8
Layer 1
 62
   250
370
    20
100
AcDbSpline
210
0.0
220
0.0
230
1.0
 70
    11
 71
     3
 72
    17
 73
    13
 74
     0
 42
0.0000000001
 43
0.0000000001
 40
0.0
 40
0.0
 40
0.0
 40
0.0
 40
0.25
 40
0.25
 40
0.25
 40
0.5
 40
0.5
 40
0.5
 40
0.75
 40
0.75
 40
0.75
 40
1.0
 40
1.0
 40
1.0
 40
1.0
 10
564.5496
 20
-269.8995
 30
0.0
 10
564.5496
 20
-269.8995
 30
0.0
 10
498.7404
 20
-309.6144
 30
0.0
 10
498.7404
 20
-309.6144
 30
0.0
 10
498.7404
 20
-309.6144
 30
0.0
 10
577.6118
 20
-437.9576
 30
0.0
 10
577.6118
 20
-437.9576
 30
0.0
 10
577.6118
 20
-437.9576
 30
0.0
 10
697.3402
 20
-414.5695
 30
0.0
 10
697.3402
 20
-414.5695
 30
0.0
 10
697.3402
 20
-414.5695
 30
0.0
 10
564.5496
 20
-269.8995
 30
0.0
 10
564.5496
 20
-269.8995
 30
0.0
  0
SPLINE
  5
7D
330
1F
100
AcDbEntity
  8
Layer 1
 62
   250
370
    20
100
AcDbSpline
210
0.0
220
0.0
230
1.0
 70
    11
 71
     3
 72
    14
 73
    10
 74
     0
 42
0.0000000001
 43
0.0000000001
 40
0.0
 40
0.0
 40
0.0
 40
0.0
 40
0.3333333333333333
 40
0.3333333333333333
 40
0.3333333333333333
 40
0.6666666666666666
 40
0.6666666666666666
 40
0.6666666666666666
 40
1.0
 40
1.0
 40
1.0
 40
1.0
 10
1007.8236
 20
-229.8644
 30
0.0
 10
1007.8236
 20
-229.8644
 30
0.0
 10
870.0225
 20
-75.5212
 30
0.0
 10
870.0225
 20
-75.5212
 30
0.0
 10
870.0225
 20
-75.5212
 30
0.0
 10
778.1807
 20
-172.1399
 30
0.0
 10
778.1807
 20
-172.1399
 30
0.0
 10
778.1807
 20
-172.1399
 30
0.0
 10
1007.8236
 20
-229.8644
 30
0.0
 10
1007.8236
 20
-229.8644
 30
0.0
  0
SPLINE
  5
7E
330
1F
100
AcDbEntity
  8
Layer 1
 62
   250
370
    20
100
AcDbSpline
210
0.0
220
0.0
230
1.0
 70
    11
 71
     3
 72
    20
 73
    16
 74
     0
 42
0.0000000001
 43
0.0000000001
 40
0.0
 40
0.0
 40
0.0
 40
0.0
 40
0.2
 40
0.2
 40
0.2
 40
0.4
 40
0.4
 40
0.4
 40
0.6000000000000001
 40
0.6000000000000001
 40
0.6000000000000001
 40
0.8
 40
0.8
 40
0.8
 40
1.0
 40
1.0
 40
1.0
 40
1.0
 10
916.1734
 20
-239.2589
 30
0.0
 10
916.1734
 20
-239.2589
 30
0.0
 10
753.282
 20
-198.331
 30
0.0
 10
753.282
 20
-198.331
 30
0.0
 10
753.282
 20
-198.331
 30
0.0
 10
649.619
 20
-307.3794
 30
0.0
 10
649.619
 20
-307.3794
 30
0.0
 10
649.619
 20
-307.3794
 30
0.0
 10
740.3116
 20
-406.1764
 30
0.0
 10
740.3116
 20
-406.1764
 30
0.0
 10
740.3116
 20
-406.1764
 30
0.0
 10
911.6609
 20
-372.702
 30
0.0
 10
911.6609
 20
-372.702
 30
0.0
 10
911.6609
 20
-372.702
 30
0.0
 10
916.1734
 20
-239.2589
 30
0.0
 10
916.1734
 20
-239.2589
 30
0.0
  0
SPLINE
  5
7F
330
1F
100
AcDbEntity
  8
Layer 1
 62
   250
370
    20
100
AcDbSpline
210
0.0
220
0.0
230
1.0
 70
    11
 71
     3
 72
    14
 73
    10
 74
     0
 42
0.0000000001
 43
0.0000000001
 40
0.0
 40
0.0
 40
0.0
 40
0.0
 40
0.3333333333333333
 40
0.3333333333333333
 40
0.3333333333333333
 40
0.6666666666666666
 40
0.6666666666666666
 40
0.6666666666666666
 40
1.0
 40
1.0
 40
1.0
 40
1.0
 10
1115.8994
 20
-289.4627
 30
0.0
 10
1115.8994
 20
-289.4627
 30
0.0
 10
957.9878
 20
-249.7735
 30
0.0
 10
957.9878
 20
-249.7735
 30
0.0
 10
957.9878
 20
-249.7735
 30
0.0
 10
952.173
 20
-422.1625
 30
0.0
 10
952.173
 20
-422.1625
 30
0.0
 10
952.173
 20
-422.1625
 30
0.0
 10
1115.8994
 20
-289.4627
 30
0.0
 10
1115.8994
 20
-289.4627
 30
0.0
  0
SPLINE
  5
80
330
1F
100
AcDbEntity
  8
Layer 1
 62
   250
370
    20
100
AcDbSpline
210
0.0
220
0.0
230
1.0
 70
    11
 71
     3
 72
    23
 73
    19
 74
     0
 42
0.0000000001
 43
0.0000000001
 40
0.0
 40
0.0
 40
0.0
 40
0.0
 40
0.1666666666666667
 40
0.1666666666666667
 40
0.1666666666666667
 40
0.3333333333333333
 40
0.3333333333333333
 40
0.3333333333333333
 40
0.5
 40
0.5
 40
0.5
 40
0.6666666666666666
 40
0.6666666666666666
 40
0.6666666666666666
 40
0.8333333333333333
 40
0.8333333333333333
 40
0.8333333333333333
 40
1.0
 40
1.0
 40
1.0
 40
1.0
 10
1169.244
 20
-376.052
 30
0.0
 10
1169.244
 20
-376.052
 30
0.0
 10
1073.1655
 20
-370.0179
 30
0.0
 10
1073.1655
 20
-370.0179
 30
0.0
 10
1073.1655
 20
-370.0179
 30
0.0
 10
951.4758
 20
-468.6291
 30
0.0
 10
951.4758
 20
-468.6291
 30
0.0
 10
951.4758
 20
-468.6291
 30
0.0
 10
950.6178
 20
-468.0252
 30
0.0
 10
950.6178
 20
-468.0252
 30
0.0
 10
950.6178
 20
-468.0252
 30
0.0
 10
949.1085
 20
-512.7729
 30
0.0
 10
949.1085
 20
-512.7729
 30
0.0
 10
949.1085
 20
-512.7729
 30
0.0
 10
1164.5784
 20
-451.6313
 30
0.0
 10
1164.5784
 20
-451.6313
 30
0.0
 10
1164.5784
 20
-451.6313
 30
0.0
 10
1169.244
 20
-376.052
 30
0.0
 10
1169.244
 20
-376.052
 30
0.0
  0
SPLINE
  5
81
330
1F
100
AcDbEntity
  8
Layer 1
 62
   250
370
    20
100
AcDbSpline
210
0.0
220
0.0
230
1.0
 70
    11
 71
     3
 72
    17
 73
    13
 74
     0
 42
0.0000000001
 43
0.0000000001
 40
0.0
 40
0.0
 40
0.0
 40
0.0
 40
0.25
 40
0.25
 40
0.25
 40
0.5
 40
0.5
 40
0.5
 40
0.75
 40
0.75
 40
0.75
 40
1.0
 40
1.0
 40
1.0
 40
1.0
 10
508.5543
 20
-153.6916
 30
0.0
 10
508.5543
 20
-153.6916
 30
0.0
 10
624.4522
 20
-279.934
 30
0.0
 10
624.4522
 20
-279.934
 30
0.0
 10
624.4522
 20
-279.934
 30
0.0
 10
677.3907
 20
-224.2278
 30
0.0
 10
677.3907
 20
-224.2278
 30
0.0
 10
677.3907
 20
-224.2278
 30
0.0
 10
613.8414
 20
-81.2301
 30
0.0
 10
613.8414
 20
-81.2301
 30
0.0
 10
613.8414
 20
-81.2301
 30
0.0
 10
508.5543
 20
-153.6916
 30
0.0
 10
508.5543
 20
-153.6916
 30
0.0
  0
SPLINE
  5
82
330
1F
100
AcDbEntity
  8
Layer 1
 62
   250
370
    20
100
AcDbSpline
210
0.0
220
0.0
230
1.0
 70
    11
 71
     3
 72
    17
 73
    13
 74
     0
 42
0.0000000001
 43
0.0000000001
 40
0.0
 40
0.0
 40
0.0
 40
0.0
 40
0.25
 40
0.25
 40
0.25
 40
0.5
 40
0.5
 40
0.5
 40
0.75
 40
0.75
 40
0.75
 40
1.0
 40
1.0
 40
1.0
 40
1.0
 10
331.375
 20
-275.6549
 30
0.0
 10
331.375
 20
-275.6549
 30
0.0
 10
395.6059
 20
-331.9857
 30
0.0
 10
395.6059
 20
-331.9857
 30
0.0
 10
395.6059
 20
-331.9857
 30
0.0
 10
541.0069
 20
-244.2401
 30
0.0
 10
541.0069
 20
-244.2401
 30
0.0
 10
541.0069
 20
-244.2401
 30
0.0
 10
477.496
 20
-175.0667
 30
0.0
 10
477.496
 20
-175.0667
 30
0.0
 10
477.496
 20
-175.0667
 30
0.0
 10
331.375
 20
-275.6549
 30
0.0
 10
331.375
 20
-275.6549
 30
0.0
  0
SPLINE
  5
83
330
1F
100
AcDbEntity
  8
Layer 1
 62
   250
370
    20
100
AcDbSpline
210
0.0
220
0.0
230
1.0
 70
    11
 71
     3
 72
    17
 73
    13
 74
     0
 42
0.0000000001
 43
0.0000000001
 40
0.0
 40
0.0
 40
0.0
 40
0.0
 40
0.25
 40
0.25
 40
0.25
 40
0.5
 40
0.5
 40
0.5
 40
0.75
 40
0.75
 40
0.75
 40
1.0
 40
1.0
 40
1.0
 40
1.0
 10
379.801
 20
-200.0963
 30
0.0
 10
379.801
 20
-200.0963
 30
0.0
 10
325.0852
 20
-76.951
 30
0.0
 10
325.0852
 20
-76.951
 30
0.0
 10
325.0852
 20
-76.951
 30
0.0
 10
165.3501
 20
-130.0505
 30
0.0
 10
165.3501
 20
-130.0505
 30
0.0
 10
165.3501
 20
-130.0505
 30
0.0
 10
304.4
 20
-251.9983
 30
0.0
 10
304.4
 20
-251.9983
 30
0.0
 10
304.4
 20
-251.9983
 30
0.0
 10
379.801
 20
-200.0963
 30
0.0
 10
379.801
 20
-200.0963
 30
0.0
  0
SPLINE
  5
84
330
1F
100
AcDbEntity
  8
Layer 1
 62
   250
370
    20
100
AcDbSpline
210
0.0
220
0.0
230
1.0
 70
    11
 71
     3
 72
    17
 73
    13
 74
     0
 42
0.0000000001
 43
0.0000000001
 40
0.0
 40
0.0
 40
0.0
 40
0.0
 40
0.25
 40
0.25
 40
0.25
 40
0.5
 40
0.5
 40
0.5
 40
0.75
 40
0.75
 40
0.75
 40
1.0
 40
1.0
 40
1.0
 40
1.0
 10
-810.3123
 20
26.4091
 30
0.0
 10
-810.3123
 20
26.4091
 30
0.0
 10
-1162.5718
 20
126.3675
 30
0.0
 10
-1162.5718
 20
126.3675
 30
0.0
 10
-1162.5718
 20
126.3675
 30
0.0
 10
-1155.7765
 20
16.1422
 30
0.0
 10
-1155.7765
 20
16.1422
 30
0.0
 10
-1155.7765
 20
16.1422
 30
0.0
 10
-808.2208
 20
16.1422
 30
0.0
 10
-808.2208
 20
16.1422
 30
0.0
 10
-808.2208
 20
16.1422
 30
0.0
 10
-810.3123
 20
26.4091
 30
0.0
 10
-810.3123
 20
26.4091
 30
0.0
  0
SPLINE
  5
85
330
1F
100
AcDbEntity
  8
Layer 1
 62
   250
370
    20
100
AcDbSpline
210
0.0
220
0.0
230
1.0
 70
    11
 71
     3
 72
    17
 73
    13
 74
     0
 42
0.0000000001
 43
0.0000000001
 40
0.0
 40
0.0
 40
0.0
 40
0.0
 40
0.25
 40
0.25
 40
0.25
 40
0.5
 40
0.5
 40
0.5
 40
0.75
 40
0.75
 40
0.75
 40
1.0
 40
1.0
 40
1.0
 40
1.0
 10
-910.6503
 20
206.835
 30
0.0
 10
-910.6503
 20
206.835
 30
0.0
 10
-844.5883
 20
193.9304
 30
0.0
 10
-844.5883
 20
193.9304
 30
0.0
 10
-844.5883
 20
193.9304
 30
0.0
 10
-817.4678
 20
61.3442
 30
0.0
 10
-817.4678
 20
61.3442
 30
0.0
 10
-817.4678
 20
61.3442
 30
0.0
 10
-906.5822
 20
86.637
 30
0.0
 10
-906.5822
 20
86.637
 30
0.0
 10
-906.5822
 20
86.637
 30
0.0
 10
-910.6503
 20
206.835
 30
0.0
 10
-910.6503
 20
206.835
 30
0.0
  0
SPLINE
  5
86
330
1F
100
AcDbEntity
  8
Layer 1
 62
   250
370
    20
100
AcDbSpline
210
0.0
220
0.0
230
1.0
 70
    11
 71
     3
 72
    14
 73
    10
 74
     0
 42
0.0000000001
 43
0.0000000001
 40
0.0
 40
0.0
 40
0.0
 40
0.0
 40
0.3333333333333333
 40
0.3333333333333333
 40
0.3333333333333333
 40
0.6666666666666666
 40
0.6666666666666666
 40
0.6666666666666666
 40
1.0
 40
1.0
 40
1.0
 40
1.0
 10
-389.6616
 20
-250.4652
 30
0.0
 10
-389.6616
 20
-250.4652
 30
0.0
 10
-334.0954
 20
-0.2724
 30
0.0
 10
-334.0954
 20
-0.2724
 30
0.0
 10
-334.0954
 20
-0.2724
 30
0.0
 10
-548.1478
 20
-115.3652
 30
0.0
 10
-548.1478
 20
-115.3652
 30
0.0
 10
-548.1478
 20
-115.3652
 30
0.0
 10
-389.6616
 20
-250.4652
 30
0.0
 10
-389.6616
 20
-250.4652
 30
0.0
  0
SPLINE
  5
87
330
1F
100
AcDbEntity
  8
Layer 1
 62
   250
370
    20
100
AcDbSpline
210
0.0
220
0.0
230
1.0
 70
    11
 71
     3
 72
    17
 73
    13
 74
     0
 42
0.0000000001
 43
0.0000000001
 40
0.0
 40
0.0
 40
0.0
 40
0.0
 40
0.25
 40
0.25
 40
0.25
 40
0.5
 40
0.5
 40
0.5
 40
0.75
 40
0.75
 40
0.75
 40
1.0
 40
1.0
 40
1.0
 40
1.0
 10
-477.7112
 20
112.1726
 30
0.0
 10
-477.7112
 20
112.1726
 30
0.0
 10
-377.7792
 20
14.3356
 30
0.0
 10
-377.7792
 20
14.3356
 30
0.0
 10
-377.7792
 20
14.3356
 30
0.0
 10
-116.197
 20
155.8931
 30
0.0
 10
-116.197
 20
155.8931
 30
0.0
 10
-116.197
 20
155.8931
 30
0.0
 10
-135.7099
 20
189.0525
 30
0.0
 10
-135.7099
 20
189.0525
 30
0.0
 10
-135.7099
 20
189.0525
 30
0.0
 10
-477.7112
 20
112.1726
 30
0.0
 10
-477.7112
 20
112.1726
 30
0.0
  0
SPLINE
  5
88
330
1F
100
AcDbEntity
  8
Layer 1
 62
   250
370
    20
100
AcDbSpline
210
0.0
220
0.0
230
1.0
 70
    11
 71
     3
 72
    20
 73
    16
 74
     0
 42
0.0000000001
 43
0.0000000001
 40
0.0
 40
0.0
 40
0.0
 40
0.0
 40
0.2
 40
0.2
 40
0.2
 40
0.4
 40
0.4
 40
0.4
 40
0.6000000000000001
 40
0.6000000000000001
 40
0.6000000000000001
 40
0.8
 40
0.8
 40
0.8
 40
1.0
 40
1.0
 40
1.0
 40
1.0
 10
-520.3608
 20
102.5819
 30
0.0
 10
-520.3608
 20
102.5819
 30
0.0
 10
-583.8717
 20
88.2992
 30
0.0
 10
-583.8717
 20
88.2992
 30
0.0
 10
-583.8717
 20
88.2992
 30
0.0
 10
-653.4962
 20
-25.5651
 30
0.0
 10
-653.4962
 20
-25.5651
 30
0.0
 10
-653.4962
 20
-25.5651
 30
0.0
 10
-575.5594
 20
-92.008
 30
0.0
 10
-575.5594
 20
-92.008
 30
0.0
 10
-575.5594
 20
-92.008
 30
0.0
 10
-411.6492
 20
-3.8752
 30
0.0
 10
-411.6492
 20
-3.8752
 30
0.0
 10
-411.6492
 20
-3.8752
 30
0.0
 10
-520.3608
 20
102.5819
 30
0.0
 10
-520.3608
 20
102.5819
 30
0.0
  0
SPLINE
  5
89
330
1F
100
AcDbEntity
  8
Layer 1
 62
   250
370
    20
100
AcDbSpline
210
0.0
220
0.0
230
1.0
 70
    11
 71
     3
 72
    14
 73
    10
 74
     0
 42
0.0000000001
 43
0.0000000001
 40
0.0
 40
0.0
 40
0.0
 40
0.0
 40
0.3333333333333333
 40
0.3333333333333333
 40
0.3333333333333333
 40
0.6666666666666666
 40
0.6666666666666666
 40
0.6666666666666666
 40
1.0
 40
1.0
 40
1.0
 40
1.0
 10
-745.5679
 20
-99.6372
 30
0.0
 10
-745.5679
 20
-99.6372
 30
0.0
 10
-803.3482
 20
185.878
 30
0.0
 10
-803.3482
 20
185.878
 30
0.0
 10
-803.3482
 20
185.878
 30
0.0
 10
-595.0953
 20
145.2029
 30
0.0
 10
-595.0953
 20
145.2029
 30
0.0
 10
-595.0953
 20
145.2029
 30
0.0
 10
-745.5679
 20
-99.6372
 30
0.0
 10
-745.5679
 20
-99.6372
 30
0.0
  0
SPLINE
  5
8A
330
1F
100
AcDbEntity
  8
Layer 1
 62
   250
370
    20
100
AcDbSpline
210
0.0
220
0.0
230
1.0
 70
    11
 71
     3
 72
    17
 73
    13
 74
     0
 42
0.0000000001
 43
0.0000000001
 40
0.0
 40
0.0
 40
0.0
 40
0.0
 40
0.25
 40
0.25
 40
0.25
 40
0.5
 40
0.5
 40
0.5
 40
0.75
 40
0.75
 40
0.75
 40
1.0
 40
1.0
 40
1.0
 40
1.0
 10
-672.5419
 20
-56.727
 30
0.0
 10
-672.5419
 20
-56.727
 30
0.0
 10
-567.5535
 20
-146.3671
 30
0.0
 10
-567.5535
 20
-146.3671
 30
0.0
 10
-567.5535
 20
-146.3671
 30
0.0
 10
-729.0505
 20
-173.2859
 30
0.0
 10
-729.0505
 20
-173.2859
 30
0.0
 10
-729.0505
 20
-173.2859
 30
0.0
 10
-733.0113
 20
-155.6118
 30
0.0
 10
-733.0113
 20
-155.6118
 30
0.0
 10
-733.0113
 20
-155.6118
 30
0.0
 10
-672.5419
 20
-56.727
 30
0.0
 10
-672.5419
 20
-56.727
 30
0.0
  0
SPLINE
  5
8B
330
1F
100
AcDbEntity
  8
Layer 1
 62
   250
370
    20
100
AcDbSpline
210
0.0
220
0.0
230
1.0
 70
    11
 71
     3
 72
    17
 73
    13
 74
     0
 42
0.0000000001
 43
0.0000000001
 40
0.0
 40
0.0
 40
0.0
 40
0.0
 40
0.25
 40
0.25
 40
0.25
 40
0.5
 40
0.5
 40
0.5
 40
0.75
 40
0.75
 40
0.75
 40
1.0
 40
1.0
 40
1.0
 40
1.0
 10
-536.273
 20
-173.0587
 30
0.0
 10
-536.273
 20
-173.0587
 30
0.0
 10
-500.9934
 20
-203.183
 30
0.0
 10
-500.9934
 20
-203.183
 30
0.0
 10
-500.9934
 20
-203.183
 30
0.0
 10
-694.6673
 20
-326.5967
 30
0.0
 10
-694.6673
 20
-326.5967
 30
0.0
 10
-694.6673
 20
-326.5967
 30
0.0
 10
-722.2397
 20
-203.6321
 30
0.0
 10
-722.2397
 20
-203.6321
 30
0.0
 10
-722.2397
 20
-203.6321
 30
0.0
 10
-536.273
 20
-173.0587
 30
0.0
 10
-536.273
 20
-173.0587
 30
0.0
  0
SPLINE
  5
8C
330
1F
100
AcDbEntity
  8
Layer 1
 62
   250
370
    20
100
AcDbSpline
210
0.0
220
0.0
230
1.0
 70
    11
 71
     3
 72
    17
 73
    13
 74
     0
 42
0.0000000001
 43
0.0000000001
 40
0.0
 40
0.0
 40
0.0
 40
0.0
 40
0.25
 40
0.25
 40
0.25
 40
0.5
 40
0.5
 40
0.5
 40
0.75
 40
0.75
 40
0.75
 40
1.0
 40
1.0
 40
1.0
 40
1.0
 10
-340.1553
 20
-341.8861
 30
0.0
 10
-340.1553
 20
-341.8861
 30
0.0
 10
-473.6584
 20
-226.3751
 30
0.0
 10
-473.6584
 20
-226.3751
 30
0.0
 10
-473.6584
 20
-226.3751
 30
0.0
 10
-513.0061
 20
-251.1827
 30
0.0
 10
-513.0061
 20
-251.1827
 30
0.0
 10
-513.0061
 20
-251.1827
 30
0.0
 10
-566.5653
 20
-425.4971
 30
0.0
 10
-566.5653
 20
-425.4971
 30
0.0
 10
-566.5653
 20
-425.4971
 30
0.0
 10
-340.1553
 20
-341.8861
 30
0.0
 10
-340.1553
 20
-341.8861
 30
0.0
  0
SPLINE
  5
8D
330
1F
100
AcDbEntity
  8
Layer 1
 62
   250
370
    20
100
AcDbSpline
210
0.0
220
0.0
230
1.0
 70
    11
 71
     3
 72
    17
 73
    13
 74
     0
 42
0.0000000001
 43
0.0000000001
 40
0.0
 40
0.0
 40
0.0
 40
0.0
 40
0.25
 40
0.25
 40
0.25
 40
0.5
 40
0.5
 40
0.5
 40
0.75
 40
0.75
 40
0.75
 40
1.0
 40
1.0
 40
1.0
 40
1.0
 10
-566.1285
 20
-284.6829
 30
0.0
 10
-566.1285
 20
-284.6829
 30
0.0
 10
-779.9512
 20
-419.499
 30
0.0
 10
-779.9512
 20
-419.499
 30
0.0
 10
-779.9512
 20
-419.499
 30
0.0
 10
-718.9378
 20
-481.7762
 30
0.0
 10
-718.9378
 20
-481.7762
 30
0.0
 10
-718.9378
 20
-481.7762
 30
0.0
 10
-615.1675
 20
-443.4498
 30
0.0
 10
-615.1675
 20
-443.4498
 30
0.0
 10
-615.1675
 20
-443.4498
 30
0.0
 10
-566.1285
 20
-284.6829
 30
0.0
 10
-566.1285
 20
-284.6829
 30
0.0
  0
SPLINE
  5
8E
330
1F
100
AcDbEntity
  8
Layer 1
 62
   250
370
    20
100
AcDbSpline
210
0.0
220
0.0
230
1.0
 70
    11
 71
     3
 72
    17
 73
    13
 74
     0
 42
0.0000000001
 43
0.0000000001
 40
0.0
 40
0.0
 40
0.0
 40
0.0
 40
0.25
 40
0.25
 40
0.25
 40
0.5
 40
0.5
 40
0.5
 40
0.75
 40
0.75
 40
0.75
 40
1.0
 40
1.0
 40
1.0
 40
1.0
 10
-77.4239
 20
-86.1597
 30
0.0
 10
-77.4239
 20
-86.1597
 30
0.0
 10
-327.6064
 20
-161.8834
 30
0.0
 10
-327.6064
 20
-161.8834
 30
0.0
 10
-327.6064
 20
-161.8834
 30
0.0
 10
-286.7188
 20
25.2012
 30
0.0
 10
-286.7188
 20
25.2012
 30
0.0
 10
-286.7188
 20
25.2012
 30
0.0
 10
-157.9426
 20
94.9889
 30
0.0
 10
-157.9426
 20
94.9889
 30
0.0
 10
-157.9426
 20
94.9889
 30
0.0
 10
-77.4239
 20
-86.1597
 30
0.0
 10
-77.4239
 20
-86.1597
 30
0.0
  0
SPLINE
  5
8F
330
1F
100
AcDbEntity
  8
Layer 1
 62
   250
370
    20
100
AcDbSpline
210
0.0
220
0.0
230
1.0
 70
    11
 71
     3
 72
    17
 73
    13
 74
     0
 42
0.0000000001
 43
0.0000000001
 40
0.0
 40
0.0
 40
0.0
 40
0.0
 40
0.25
 40
0.25
 40
0.25
 40
0.5
 40
0.5
 40
0.5
 40
0.75
 40
0.75
 40
0.75
 40
1.0
 40
1.0
 40
1.0
 40
1.0
 10
216.1819
 20
210.5515
 30
0.0
 10
216.1819
 20
210.5515
 30
0.0
 10
353.577
 20
330.4809
 30
0.0
 10
353.577
 20
330.4809
 30
0.0
 10
353.577
 20
330.4809
 30
0.0
 10
335.3203
 20
414.0094
 30
0.0
 10
335.3203
 20
414.0094
 30
0.0
 10
335.3203
 20
414.0094
 30
0.0
 10
225.8732
 20
447.1379
 30
0.0
 10
225.8732
 20
447.1379
 30
0.0
 10
225.8732
 20
447.1379
 30
0.0
 10
216.1819
 20
210.5515
 30
0.0
 10
216.1819
 20
210.5515
 30
0.0
  0
SPLINE
  5
90
330
1F
100
AcDbEntity
  8
Layer 1
 62
   250
370
    20
100
AcDbSpline
210
0.0
220
0.0
230
1.0
 70
    11
 71
     3
 72
    17
 73
    13
 74
     0
 42
0.0000000001
 43
0.0000000001
 40
0.0
 40
0.0
 40
0.0
 40
0.0
 40
0.25
 40
0.25
 40
0.25
 40
0.5
 40
0.5
 40
0.5
 40
0.75
 40
0.75
 40
0.75
 40
1.0
 40
1.0
 40
1.0
 40
1.0
 10
178.1367
 20
331.5185
 30
0.0
 10
178.1367
 20
331.5185
 30
0.0
 10
177.7537
 20
318.7637
 30
0.0
 10
177.7537
 20
318.7637
 30
0.0
 10
177.7537
 20
318.7637
 30
0.0
 10
-81.4154
 20
174.744
 30
0.0
 10
-81.4154
 20
174.744
 30
0.0
 10
-81.4154
 20
174.744
 30
0.0
 10
-155.8664
 20
301.2445
 30
0.0
 10
-155.8664
 20
301.2445
 30
0.0
 10
-155.8664
 20
301.2445
 30
0.0
 10
178.1367
 20
331.5185
 30
0.0
 10
178.1367
 20
331.5185
 30
0.0
  0
SPLINE
  5
91
330
1F
100
AcDbEntity
  8
Layer 1
 62
   250
370
    20
100
AcDbSpline
210
0.0
220
0.0
230
1.0
 70
    11
 71
     3
 72
    17
 73
    13
 74
     0
 42
0.0000000001
 43
0.0000000001
 40
0.0
 40
0.0
 40
0.0
 40
0.0
 40
0.25
 40
0.25
 40
0.25
 40
0.5
 40
0.5
 40
0.5
 40
0.75
 40
0.75
 40
0.75
 40
1.0
 40
1.0
 40
1.0
 40
1.0
 10
210.3671
 20
-217.569
 30
0.0
 10
210.3671
 20
-217.569
 30
0.0
 10
173.1032
 20
-280.8941
 30
0.0
 10
173.1032
 20
-280.8941
 30
0.0
 10
173.1032
 20
-280.8941
 30
0.0
 10
48.4334
 20
-269.5948
 30
0.0
 10
48.4334
 20
-269.5948
 30
0.0
 10
48.4334
 20
-269.5948
 30
0.0
 10
-92.9148
 20
48.3983
 30
0.0
 10
-92.9148
 20
48.3983
 30
0.0
 10
-92.9148
 20
48.3983
 30
0.0
 10
210.3671
 20
-217.569
 30
0.0
 10
210.3671
 20
-217.569
 30
0.0
  0
SPLINE
  5
92
330
1F
100
AcDbEntity
  8
Layer 1
 62
   250
370
    20
100
AcDbSpline
210
0.0
220
0.0
230
1.0
 70
    11
 71
     3
 72
    26
 73
    22
 74
     0
 42
0.0000000001
 43
0.0000000001
 40
0.0
 40
0.0
 40
0.0
 40
0.0
 40
0.1428571428571428
 40
0.1428571428571428
 40
0.1428571428571428
 40
0.2857142857142857
 40
0.2857142857142857
 40
0.2857142857142857
 40
0.4285714285714285
 40
0.4285714285714285
 40
0.4285714285714285
 40
0.5714285714285714
 40
0.5714285714285714
 40
0.5714285714285714
 40
0.7142857142857142
 40
0.7142857142857142
 40
0.7142857142857142
 40
0.8571428571428571
 40
0.8571428571428571
 40
0.8571428571428571
 40
1.0
 40
1.0
 40
1.0
 40
1.0
 10
175.9149
 20
278.9971
 30
0.0
 10
175.9149
 20
278.9971
 30
0.0
 10
-116.7103
 20
117.3963
 30
0.0
 10
-116.7103
 20
117.3963
 30
0.0
 10
-116.7103
 20
117.3963
 30
0.0
 10
-116.7715
 20
117.3705
 30
0.0
 10
-116.7715
 20
117.3705
 30
0.0
 10
-116.7715
 20
117.3705
 30
0.0
 10
-116.7715
 20
117.3654
 30
0.0
 10
-116.7715
 20
117.3654
 30
0.0
 10
-116.7715
 20
117.3654
 30
0.0
 10
-3.9459
 20
18.4135
 30
0.0
 10
-3.9459
 20
18.4135
 30
0.0
 10
-3.9459
 20
18.4135
 30
0.0
 10
-3.8846
 20
18.4547
 30
0.0
 10
-3.8846
 20
18.4547
 30
0.0
 10
-3.8846
 20
18.4547
 30
0.0
 10
170.9274
 20
171.0481
 30
0.0
 10
170.9274
 20
171.0481
 30
0.0
 10
170.9274
 20
171.0481
 30
0.0
 10
175.9149
 20
278.9971
 30
0.0
 10
175.9149
 20
278.9971
 30
0.0
  0
SPLINE
  5
93
330
1F
100
AcDbEntity
  8
Layer 1
 62
   250
370
    20
100
AcDbSpline
210
0.0
220
0.0
230
1.0
 70
    11
 71
     3
 72
    17
 73
    13
 74
     0
 42
0.0000000001
 43
0.0000000001
 40
0.0
 40
0.0
 40
0.0
 40
0.0
 40
0.25
 40
0.25
 40
0.25
 40
0.5
 40
0.5
 40
0.5
 40
0.75
 40
0.75
 40
0.75
 40
1.0
 40
1.0
 40
1.0
 40
1.0
 10
137.4483
 20
-105.5887
 30
0.0
 10
137.4483
 20
-105.5887
 30
0.0
 10
158.6773
 20
-98.5273
 30
0.0
 10
158.6773
 20
-98.5273
 30
0.0
 10
158.6773
 20
-98.5273
 30
0.0
 10
168.6981
 20
122.1039
 30
0.0
 10
168.6981
 20
122.1039
 30
0.0
 10
168.6981
 20
122.1039
 30
0.0
 10
22.0637
 20
-4.3863
 30
0.0
 10
22.0637
 20
-4.3863
 30
0.0
 10
22.0637
 20
-4.3863
 30
0.0
 10
137.4483
 20
-105.5887
 30
0.0
 10
137.4483
 20
-105.5887
 30
0.0
  0
SPLINE
  5
94
330
1F
100
AcDbEntity
  8
Layer 1
 62
   250
370
    20
100
AcDbSpline
210
0.0
220
0.0
230
1.0
 70
    11
 71
     3
 72
    20
 73
    16
 74
     0
 42
0.0000000001
 43
0.0000000001
 40
0.0
 40
0.0
 40
0.0
 40
0.0
 40
0.2
 40
0.2
 40
0.2
 40
0.4
 40
0.4
 40
0.4
 40
0.6000000000000001
 40
0.6000000000000001
 40
0.6000000000000001
 40
0.8
 40
0.8
 40
0.8
 40
1.0
 40
1.0
 40
1.0
 40
1.0
 10
204.1462
 20
-83.4188
 30
0.0
 10
204.1462
 20
-83.4188
 30
0.0
 10
312.0075
 20
-47.5597
 30
0.0
 10
312.0075
 20
-47.5597
 30
0.0
 10
312.0075
 20
-47.5597
 30
0.0
 10
218.0436
 20
163.8423
 30
0.0
 10
218.0436
 20
163.8423
 30
0.0
 10
218.0436
 20
163.8423
 30
0.0
 10
217.8214
 20
164.4772
 30
0.0
 10
217.8214
 20
164.4772
 30
0.0
 10
217.8214
 20
164.4772
 30
0.0
 10
214.1746
 20
161.3337
 30
0.0
 10
214.1746
 20
161.3337
 30
0.0
 10
214.1746
 20
161.3337
 30
0.0
 10
204.1462
 20
-83.4188
 30
0.0
 10
204.1462
 20
-83.4188
 30
0.0
  0
SPLINE
  5
95
330
1F
100
AcDbEntity
  8
Layer 1
 62
   250
370
    20
100
AcDbSpline
210
0.0
220
0.0
230
1.0
 70
    11
 71
     3
 72
    14
 73
    10
 74
     0
 42
0.0000000001
 43
0.0000000001
 40
0.0
 40
0.0
 40
0.0
 40
0.0
 40
0.3333333333333333
 40
0.3333333333333333
 40
0.3333333333333333
 40
0.6666666666666666
 40
0.6666666666666666
 40
0.6666666666666666
 40
1.0
 40
1.0
 40
1.0
 40
1.0
 10
371.1899
 20
-80.9462
 30
0.0
 10
371.1899
 20
-80.9462
 30
0.0
 10
283.4161
 20
116.5085
 30
0.0
 10
283.4161
 20
116.5085
 30
0.0
 10
283.4161
 20
116.5085
 30
0.0
 10
447.4337
 20
76.7006
 30
0.0
 10
447.4337
 20
76.7006
 30
0.0
 10
447.4337
 20
76.7006
 30
0.0
 10
371.1899
 20
-80.9462
 30
0.0
 10
371.1899
 20
-80.9462
 30
0.0
  0
SPLINE
  5
96
330
1F
100
AcDbEntity
  8
Layer 1
 62
   250
370
    20
100
AcDbSpline
210
0.0
220
0.0
230
1.0
 70
    11
 71
     3
 72
    20
 73
    16
 74
     0
 42
0.0000000001
 43
0.0000000001
 40
0.0
 40
0.0
 40
0.0
 40
0.0
 40
0.2
 40
0.2
 40
0.2
 40
0.4
 40
0.4
 40
0.4
 40
0.6000000000000001
 40
0.6000000000000001
 40
0.6000000000000001
 40
0.8
 40
0.8
 40
0.8
 40
1.0
 40
1.0
 40
1.0
 40
1.0
 10
501.2685
 20
172.0289
 30
0.0
 10
501.2685
 20
172.0289
 30
0.0
 10
307.158
 20
243.0502
 30
0.0
 10
307.158
 20
243.0502
 30
0.0
 10
307.158
 20
243.0502
 30
0.0
 10
249.822
 20
192.0826
 30
0.0
 10
249.822
 20
192.0826
 30
0.0
 10
249.822
 20
192.0826
 30
0.0
 10
267.3124
 20
152.7185
 30
0.0
 10
267.3124
 20
152.7185
 30
0.0
 10
267.3124
 20
152.7185
 30
0.0
 10
539.1911
 20
86.7248
 30
0.0
 10
539.1911
 20
86.7248
 30
0.0
 10
539.1911
 20
86.7248
 30
0.0
 10
501.2685
 20
172.0289
 30
0.0
 10
501.2685
 20
172.0289
 30
0.0
  0
SPLINE
  5
97
330
1F
100
AcDbEntity
  8
Layer 1
 62
   250
370
    20
100
AcDbSpline
210
0.0
220
0.0
230
1.0
 70
    11
 71
     3
 72
    20
 73
    16
 74
     0
 42
0.0000000001
 43
0.0000000001
 40
0.0
 40
0.0
 40
0.0
 40
0.0
 40
0.2
 40
0.2
 40
0.2
 40
0.4
 40
0.4
 40
0.4
 40
0.6000000000000001
 40
0.6000000000000001
 40
0.6000000000000001
 40
0.8
 40
0.8
 40
0.8
 40
1.0
 40
1.0
 40
1.0
 40
1.0
 10
599.4615
 20
-48.8914
 30
0.0
 10
599.4615
 20
-48.8914
 30
0.0
 10
413.7553
 20
-176.7287
 30
0.0
 10
413.7553
 20
-176.7287
 30
0.0
 10
413.7553
 20
-176.7287
 30
0.0
 10
393.0931
 20
-130.2518
 30
0.0
 10
393.0931
 20
-130.2518
 30
0.0
 10
393.0931
 20
-130.2518
 30
0.0
 10
486.9421
 20
67.1048
 30
0.0
 10
486.9421
 20
67.1048
 30
0.0
 10
486.9421
 20
67.1048
 30
0.0
 10
555.2796
 20
50.5199
 30
0.0
 10
555.2796
 20
50.5199
 30
0.0
 10
555.2796
 20
50.5199
 30
0.0
 10
599.4615
 20
-48.8914
 30
0.0
 10
599.4615
 20
-48.8914
 30
0.0
  0
SPLINE
  5
98
330
1F
100
AcDbEntity
  8
Layer 1
 62
   250
370
    20
100
AcDbSpline
210
0.0
220
0.0
230
1.0
 70
    11
 71
     3
 72
    17
 73
    13
 74
     0
 42
0.0000000001
 43
0.0000000001
 40
0.0
 40
0.0
 40
0.0
 40
0.0
 40
0.25
 40
0.25
 40
0.25
 40
0.5
 40
0.5
 40
0.5
 40
0.75
 40
0.75
 40
0.75
 40
1.0
 40
1.0
 40
1.0
 40
1.0
 10
793.6792
 20
9.9687
 30
0.0
 10
793.6792
 20
9.9687
 30
0.0
 10
845.1852
 20
-47.7145
 30
0.0
 10
845.1852
 20
-47.7145
 30
0.0
 10
845.1852
 20
-47.7145
 30
0.0
 10
707.5986
 20
-192.4465
 30
0.0
 10
707.5986
 20
-192.4465
 30
0.0
 10
707.5986
 20
-192.4465
 30
0.0
 10
647.5045
 20
-57.2587
 30
0.0
 10
647.5045
 20
-57.2587
 30
0.0
 10
647.5045
 20
-57.2587
 30
0.0
 10
793.6792
 20
9.9687
 30
0.0
 10
793.6792
 20
9.9687
 30
0.0
  0
SPLINE
  5
99
330
1F
100
AcDbEntity
  8
Layer 1
 62
   250
370
    20
100
AcDbSpline
210
0.0
220
0.0
230
1.0
 70
    11
 71
     3
 72
    14
 73
    10
 74
     0
 42
0.0000000001
 43
0.0000000001
 40
0.0
 40
0.0
 40
0.0
 40
0.0
 40
0.3333333333333333
 40
0.3333333333333333
 40
0.3333333333333333
 40
0.6666666666666666
 40
0.6666666666666666
 40
0.6666666666666666
 40
1.0
 40
1.0
 40
1.0
 40
1.0
 10
634.1435
 20
-27.186
 30
0.0
 10
634.1435
 20
-27.186
 30
0.0
 10
552.828
 20
155.764
 30
0.0
 10
552.828
 20
155.764
 30
0.0
 10
552.828
 20
155.764
 30
0.0
 10
820.746
 20
58.4587
 30
0.0
 10
820.746
 20
58.4587
 30
0.0
 10
820.746
 20
58.4587
 30
0.0
 10
634.1435
 20
-27.186
 30
0.0
 10
634.1435
 20
-27.186
 30
0.0
  0
SPLINE
  5
9A
330
1F
100
AcDbEntity
  8
Layer 1
 62
   250
370
    20
100
AcDbSpline
210
0.0
220
0.0
230
1.0
 70
    11
 71
     3
 72
    20
 73
    16
 74
     0
 42
0.0000000001
 43
0.0000000001
 40
0.0
 40
0.0
 40
0.0
 40
0.0
 40
0.2
 40
0.2
 40
0.2
 40
0.4
 40
0.4
 40
0.4
 40
0.6000000000000001
 40
0.6000000000000001
 40
0.6000000000000001
 40
0.8
 40
0.8
 40
0.8
 40
1.0
 40
1.0
 40
1.0
 40
1.0
 10
939.3866
 20
-96.953
 30
0.0
 10
939.3866
 20
-96.953
 30
0.0
 10
829.2883
 20
26.3471
 30
0.0
 10
829.2883
 20
26.3471
 30
0.0
 10
829.2883
 20
26.3471
 30
0.0
 10
829.2958
 20
26.3523
 30
0.0
 10
829.2958
 20
26.3523
 30
0.0
 10
829.2958
 20
26.3523
 30
0.0
 10
1044.781
 20
125.4591
 30
0.0
 10
1044.781
 20
125.4591
 30
0.0
 10
1044.781
 20
125.4591
 30
0.0
 10
1128.8468
 20
66.7177
 30
0.0
 10
1128.8468
 20
66.7177
 30
0.0
 10
1128.8468
 20
66.7177
 30
0.0
 10
939.3866
 20
-96.953
 30
0.0
 10
939.3866
 20
-96.953
 30
0.0
  0
SPLINE
  5
9B
330
1F
100
AcDbEntity
  8
Layer 1
 62
   250
370
    20
100
AcDbSpline
210
0.0
220
0.0
230
1.0
 70
    11
 71
     3
 72
    17
 73
    13
 74
     0
 42
0.0000000001
 43
0.0000000001
 40
0.0
 40
0.0
 40
0.0
 40
0.0
 40
0.25
 40
0.25
 40
0.25
 40
0.5
 40
0.5
 40
0.5
 40
0.75
 40
0.75
 40
0.75
 40
1.0
 40
1.0
 40
1.0
 40
1.0
 10
500.9392
 20
408.3108
 30
0.0
 10
500.9392
 20
408.3108
 30
0.0
 10
694.6129
 20
284.897
 30
0.0
 10
694.6129
 20
284.897
 30
0.0
 10
694.6129
 20
284.897
 30
0.0
 10
743.7592
 20
515.7899
 30
0.0
 10
743.7592
 20
515.7899
 30
0.0
 10
743.7592
 20
515.7899
 30
0.0
 10
674.1347
 20
555.2209
 30
0.0
 10
674.1347
 20
555.2209
 30
0.0
 10
616.2701
 20
506.1321
 30
0.0
 10
558.865
 20
457.4511
 30
0.0
 10
500.9392
 20
408.3108
 30
0.0
  0
SPLINE
  5
9C
330
1F
100
AcDbEntity
  8
Layer 1
 62
   250
370
    20
100
AcDbSpline
210
0.0
220
0.0
230
1.0
 70
    11
 71
     3
 72
   404
 73
   400
 74
     0
 42
0.0000000001
 43
0.0000000001
 40
0.0
 40
0.0
 40
0.0
 40
0.0
 40
0.0075187969924812
 40
0.0075187969924812
 40
0.0075187969924812
 40
0.0150375939849624
 40
0.0150375939849624
 40
0.0150375939849624
 40
0.0225563909774436
 40
0.0225563909774436
 40
0.0225563909774436
 40
0.0300751879699248
 40
0.0300751879699248
 40
0.0300751879699248
 40
0.037593984962406
 40
0.037593984962406
 40
0.037593984962406
 40
0.0451127819548872
 40
0.0451127819548872
 40
0.0451127819548872
 40
0.0526315789473684
 40
0.0526315789473684
 40
0.0526315789473684
 40
0.0601503759398496
 40
0.0601503759398496
 40
0.0601503759398496
 40
0.0676691729323308
 40
0.0676691729323308
 40
0.0676691729323308
 40
0.075187969924812
 40
0.075187969924812
 40
0.075187969924812
 40
0.0827067669172932
 40
0.0827067669172932
 40
0.0827067669172932
 40
0.0902255639097744
 40
0.0902255639097744
 40
0.0902255639097744
 40
0.0977443609022556
 40
0.0977443609022556
 40
0.0977443609022556
 40
0.1052631578947368
 40
0.1052631578947368
 40
0.1052631578947368
 40
0.112781954887218
 40
0.112781954887218
 40
0.112781954887218
 40
0.1203007518796992
 40
0.1203007518796992
 40
0.1203007518796992
 40
0.1278195488721804
 40
0.1278195488721804
 40
0.1278195488721804
 40
0.1353383458646616
 40
0.1353383458646616
 40
0.1353383458646616
 40
0.1428571428571428
 40
0.1428571428571428
 40
0.1428571428571428
 40
0.1503759398496241
 40
0.1503759398496241
 40
0.1503759398496241
 40
0.1578947368421053
 40
0.1578947368421053
 40
0.1578947368421053
 40
0.1654135338345865
 40
0.1654135338345865
 40
0.1654135338345865
 40
0.1729323308270677
 40
0.1729323308270677
 40
0.1729323308270677
 40
0.1804511278195489
 40
0.1804511278195489
 40
0.1804511278195489
 40
0.1879699248120301
 40
0.1879699248120301
 40
0.1879699248120301
 40
0.1954887218045113
 40
0.1954887218045113
 40
0.1954887218045113
 40
0.2030075187969925
 40
0.2030075187969925
 40
0.2030075187969925
 40
0.2105263157894737
 40
0.2105263157894737
 40
0.2105263157894737
 40
0.2180451127819549
 40
0.2180451127819549
 40
0.2180451127819549
 40
0.2255639097744361
 40
0.2255639097744361
 40
0.2255639097744361
 40
0.2330827067669173
 40
0.2330827067669173
 40
0.2330827067669173
 40
0.2406015037593985
 40
0.2406015037593985
 40
0.2406015037593985
 40
0.2481203007518797
 40
0.2481203007518797
 40
0.2481203007518797
 40
0.2556390977443609
 40
0.2556390977443609
 40
0.2556390977443609
 40
0.2631578947368421
 40
0.2631578947368421
 40
0.2631578947368421
 40
0.2706766917293233
 40
0.2706766917293233
 40
0.2706766917293233
 40
0.2781954887218045
 40
0.2781954887218045
 40
0.2781954887218045
 40
0.2857142857142857
 40
0.2857142857142857
 40
0.2857142857142857
 40
0.2932330827067669
 40
0.2932330827067669
 40
0.2932330827067669
 40
0.3007518796992481
 40
0.3007518796992481
 40
0.3007518796992481
 40
0.3082706766917293
 40
0.3082706766917293
 40
0.3082706766917293
 40
0.3157894736842105
 40
0.3157894736842105
 40
0.3157894736842105
 40
0.3233082706766917
 40
0.3233082706766917
 40
0.3233082706766917
 40
0.3308270676691729
 40
0.3308270676691729
 40
0.3308270676691729
 40
0.3383458646616541
 40
0.3383458646616541
 40
0.3383458646616541
 40
0.3458646616541353
 40
0.3458646616541353
 40
0.3458646616541353
 40
0.3533834586466165
 40
0.3533834586466165
 40
0.3533834586466165
 40
0.3609022556390977
 40
0.3609022556390977
 40
0.3609022556390977
 40
0.3684210526315789
 40
0.3684210526315789
 40
0.3684210526315789
 40
0.3759398496240601
 40
0.3759398496240601
 40
0.3759398496240601
 40
0.3834586466165413
 40
0.3834586466165413
 40
0.3834586466165413
 40
0.3909774436090225
 40
0.3909774436090225
 40
0.3909774436090225
 40
0.3984962406015037
 40
0.3984962406015037
 40
0.3984962406015037
 40
0.4060150375939849
 40
0.4060150375939849
 40
0.4060150375939849
 40
0.4135338345864661
 40
0.4135338345864661
 40
0.4135338345864661
 40
0.4210526315789473
 40
0.4210526315789473
 40
0.4210526315789473
 40
0.4285714285714285
 40
0.4285714285714285
 40
0.4285714285714285
 40
0.4360902255639098
 40
0.4360902255639098
 40
0.4360902255639098
 40
0.443609022556391
 40
0.443609022556391
 40
0.443609022556391
 40
0.4511278195488722
 40
0.4511278195488722
 40
0.4511278195488722
 40
0.4586466165413534
 40
0.4586466165413534
 40
0.4586466165413534
 40
0.4661654135338346
 40
0.4661654135338346
 40
0.4661654135338346
 40
0.4736842105263158
 40
0.4736842105263158
 40
0.4736842105263158
 40
0.481203007518797
 40
0.481203007518797
 40
0.481203007518797
 40
0.4887218045112782
 40
0.4887218045112782
 40
0.4887218045112782
 40
0.4962406015037594
 40
0.4962406015037594
 40
0.4962406015037594
 40
0.5037593984962405
 40
0.5037593984962405
 40
0.5037593984962405
 40
0.5112781954887218
 40
0.5112781954887218
 40
0.5112781954887218
 40
0.518796992481203
 40
0.518796992481203
 40
0.518796992481203
 40
0.5263157894736842
 40
0.5263157894736842
 40
0.5263157894736842
 40
0.5338345864661653
 40
0.5338345864661653
 40
0.5338345864661653
 40
0.5413533834586466
 40
0.5413533834586466
 40
0.5413533834586466
 40
0.5488721804511278
 40
0.5488721804511278
 40
0.5488721804511278
 40
0.556390977443609
 40
0.556390977443609
 40
0.556390977443609
 40
0.5639097744360901
 40
0.5639097744360901
 40
0.5639097744360901
 40
0.5714285714285714
 40
0.5714285714285714
 40
0.5714285714285714
 40
0.5789473684210527
 40
0.5789473684210527
 40
0.5789473684210527
 40
0.5864661654135338
 40
0.5864661654135338
 40
0.5864661654135338
 40
0.593984962406015
 40
0.593984962406015
 40
0.593984962406015
 40
0.6015037593984962
 40
0.6015037593984962
 40
0.6015037593984962
 40
0.6090225563909775
 40
0.6090225563909775
 40
0.6090225563909775
 40
0.6165413533834586
 40
0.6165413533834586
 40
0.6165413533834586
 40
0.6240601503759398
 40
0.6240601503759398
 40
0.6240601503759398
 40
0.631578947368421
 40
0.631578947368421
 40
0.631578947368421
 40
0.6390977443609023
 40
0.6390977443609023
 40
0.6390977443609023
 40
0.6466165413533834
 40
0.6466165413533834
 40
0.6466165413533834
 40
0.6541353383458646
 40
0.6541353383458646
 40
0.6541353383458646
 40
0.6616541353383458
 40
0.6616541353383458
 40
0.6616541353383458
 40
0.6691729323308271
 40
0.6691729323308271
 40
0.6691729323308271
 40
0.6766917293233082
 40
0.6766917293233082
 40
0.6766917293233082
 40
0.6842105263157894
 40
0.6842105263157894
 40
0.6842105263157894
 40
0.6917293233082706
 40
0.6917293233082706
 40
0.6917293233082706
 40
0.6992481203007519
 40
0.6992481203007519
 40
0.6992481203007519
 40
0.706766917293233
 40
0.706766917293233
 40
0.706766917293233
 40
0.7142857142857142
 40
0.7142857142857142
 40
0.7142857142857142
 40
0.7218045112781954
 40
0.7218045112781954
 40
0.7218045112781954
 40
0.7293233082706767
 40
0.7293233082706767
 40
0.7293233082706767
 40
0.7368421052631579
 40
0.7368421052631579
 40
0.7368421052631579
 40
0.744360902255639
 40
0.744360902255639
 40
0.744360902255639
 40
0.7518796992481203
 40
0.7518796992481203
 40
0.7518796992481203
 40
0.7593984962406015
 40
0.7593984962406015
 40
0.7593984962406015
 40
0.7669172932330827
 40
0.7669172932330827
 40
0.7669172932330827
 40
0.7744360902255638
 40
0.7744360902255638
 40
0.7744360902255638
 40
0.7819548872180451
 40
0.7819548872180451
 40
0.7819548872180451
 40
0.7894736842105263
 40
0.7894736842105263
 40
0.7894736842105263
 40
0.7969924812030075
 40
0.7969924812030075
 40
0.7969924812030075
 40
0.8045112781954886
 40
0.8045112781954886
 40
0.8045112781954886
 40
0.8120300751879699
 40
0.8120300751879699
 40
0.8120300751879699
 40
0.8195488721804511
 40
0.8195488721804511
 40
0.8195488721804511
 40
0.8270676691729323
 40
0.8270676691729323
 40
0.8270676691729323
 40
0.8345864661654134
 40
0.8345864661654134
 40
0.8345864661654134
 40
0.8421052631578947
 40
0.8421052631578947
 40
0.8421052631578947
 40
0.849624060150376
 40
0.849624060150376
 40
0.849624060150376
 40
0.8571428571428571
 40
0.8571428571428571
 40
0.8571428571428571
 40
0.8646616541353382
 40
0.8646616541353382
 40
0.8646616541353382
 40
0.8721804511278195
 40
0.8721804511278195
 40
0.8721804511278195
 40
0.8796992481203008
 40
0.8796992481203008
 40
0.8796992481203008
 40
0.8872180451127819
 40
0.8872180451127819
 40
0.8872180451127819
 40
0.894736842105263
 40
0.894736842105263
 40
0.894736842105263
 40
0.9022556390977443
 40
0.9022556390977443
 40
0.9022556390977443
 40
0.9097744360902256
 40
0.9097744360902256
 40
0.9097744360902256
 40
0.9172932330827067
 40
0.9172932330827067
 40
0.9172932330827067
 40
0.9248120300751879
 40
0.9248120300751879
 40
0.9248120300751879
 40
0.9323308270676691
 40
0.9323308270676691
 40
0.9323308270676691
 40
0.9398496240601504
 40
0.9398496240601504
 40
0.9398496240601504
 40
0.9473684210526315
 40
0.9473684210526315
 40
0.9473684210526315
 40
0.9548872180451127
 40
0.9548872180451127
 40
0.9548872180451127
 40
0.9624060150375939
 40
0.9624060150375939
 40
0.9624060150375939
 40
0.9699248120300752
 40
0.9699248120300752
 40
0.9699248120300752
 40
0.9774436090225563
 40
0.9774436090225563
 40
0.9774436090225563
 40
0.9849624060150375
 40
0.9849624060150375
 40
0.9849624060150375
 40
0.9924812030075187
 40
0.9924812030075187
 40
0.9924812030075187
 40
1.0
 40
1.0
 40
1.0
 40
1.0
 10
-1200.0272
 20
-530.9115
 30
0.0
 10
-1200.0272
 20
-530.9115
 30
0.0
 10
-1200.0272
 20
-483.3299
 30
0.0
 10
-1200.0272
 20
-483.3299
 30
0.0
 10
-1200.0272
 20
-483.3299
 30
0.0
 10
-1156.1135
 20
-521.2693
 30
0.0
 10
-1156.1135
 20
-521.2693
 30
0.0
 10
-1156.1135
 20
-521.2693
 30
0.0
 10
-904.3069
 20
-345.3754
 30
0.0
 10
-904.3069
 20
-345.3754
 30
0.0
 10
-904.3069
 20
-345.3754
 30
0.0
 10
-953.9817
 20
-294.6709
 30
0.0
 10
-953.9817
 20
-294.6709
 30
0.0
 10
-953.9817
 20
-294.6709
 30
0.0
 10
-1200.0272
 20
-411.1213
 30
0.0
 10
-1200.0272
 20
-411.1213
 30
0.0
 10
-1200.0272
 20
-411.1213
 30
0.0
 10
-1200.0272
 20
-363.194
 30
0.0
 10
-1200.0272
 20
-363.194
 30
0.0
 10
-1200.0272
 20
-363.194
 30
0.0
 10
-1178.936
 20
-364.5206
 30
0.0
 10
-1178.936
 20
-364.5206
 30
0.0
 10
-1178.936
 20
-364.5206
 30
0.0
 10
-974.7817
 20
-267.9018
 30
0.0
 10
-974.7817
 20
-267.9018
 30
0.0
 10
-974.7817
 20
-267.9018
 30
0.0
 10
-1200.0272
 20
-281.3845
 30
0.0
 10
-1200.0272
 20
-281.3845
 30
0.0
 10
-1200.0272
 20
-281.3845
 30
0.0
 10
-1200.0272
 20
-250.5891
 30
0.0
 10
-1200.0272
 20
-250.5891
 30
0.0
 10
-1200.0272
 20
-250.5891
 30
0.0
 10
-926.2637
 20
-234.2004
 30
0.0
 10
-926.2637
 20
-234.2004
 30
0.0
 10
-926.2637
 20
-234.2004
 30
0.0
 10
-1002.1244
 20
-129.3485
 30
0.0
 10
-1002.1244
 20
-129.3485
 30
0.0
 10
-1002.1244
 20
-129.3485
 30
0.0
 10
-1200.0272
 20
-176.2332
 30
0.0
 10
-1200.0272
 20
-176.2332
 30
0.0
 10
-1200.0272
 20
-176.2332
 30
0.0
 10
-1200.0272
 20
-144.003
 30
0.0
 10
-1200.0272
 20
-144.003
 30
0.0
 10
-1200.0272
 20
-144.003
 30
0.0
 10
-1022.0127
 20
-101.8309
 30
0.0
 10
-1022.0127
 20
-101.8309
 30
0.0
 10
-1022.0127
 20
-101.8309
 30
0.0
 10
-1084.0221
 20
-16.15
 30
0.0
 10
-1084.0221
 20
-16.15
 30
0.0
 10
-1084.0221
 20
-16.15
 30
0.0
 10
-1188.3286
 20
-16.15
 30
0.0
 10
-1188.3286
 20
-16.15
 30
0.0
 10
-1188.3286
 20
-16.15
 30
0.0
 10
-1200.0272
 20
-25.6013
 30
0.0
 10
-1200.0272
 20
-25.6013
 30
0.0
 10
-1200.0272
 20
-25.6013
 30
0.0
 10
-1200.0272
 20
15.9409
 30
0.0
 10
-1200.0272
 20
15.9409
 30
0.0
 10
-1200.0272
 20
15.9409
 30
0.0
 10
-1197.9357
 20
16.1422
 30
0.0
 10
-1197.9357
 20
16.1422
 30
0.0
 10
-1197.9357
 20
16.1422
 30
0.0
 10
-1200.0272
 20
50.1638
 30
0.0
 10
-1200.0272
 20
50.1638
 30
0.0
 10
-1200.0272
 20
50.1638
 30
0.0
 10
-1200.0272
 20
264.2807
 30
0.0
 10
-1200.0272
 20
264.2807
 30
0.0
 10
-1200.0272
 20
264.2807
 30
0.0
 10
-1108.4611
 20
270.0362
 30
0.0
 10
-1108.4611
 20
270.0362
 30
0.0
 10
-1108.4611
 20
270.0362
 30
0.0
 10
-1200.0272
 20
344.2424
 30
0.0
 10
-1200.0272
 20
344.2424
 30
0.0
 10
-1200.0272
 20
344.2424
 30
0.0
 10
-1200.0272
 20
390.1463
 30
0.0
 10
-1200.0272
 20
390.1463
 30
0.0
 10
-1200.0272
 20
390.1463
 30
0.0
 10
-1146.5294
 20
346.7975
 30
0.0
 10
-1146.5294
 20
346.7975
 30
0.0
 10
-1146.5294
 20
346.7975
 30
0.0
 10
-1072.6529
 20
365.349
 30
0.0
 10
-1072.6529
 20
365.349
 30
0.0
 10
-1072.6529
 20
365.349
 30
0.0
 10
-1001.6187
 20
444.8976
 30
0.0
 10
-1001.6187
 20
444.8976
 30
0.0
 10
-1001.6187
 20
444.8976
 30
0.0
 10
-1093.3764
 20
508.997
 30
0.0
 10
-1093.3764
 20
508.997
 30
0.0
 10
-1093.3764
 20
508.997
 30
0.0
 10
-1200.0272
 20
452.8675
 30
0.0
 10
-1200.0272
 20
452.8675
 30
0.0
 10
-1200.0272
 20
452.8675
 30
0.0
 10
-1200.0272
 20
490.6932
 30
0.0
 10
-1200.0272
 20
490.6932
 30
0.0
 10
-1200.0272
 20
490.6932
 30
0.0
 10
-1124.2662
 20
530.5733
 30
0.0
 10
-1124.2662
 20
530.5733
 30
0.0
 10
-1124.2662
 20
530.5733
 30
0.0
 10
-1200.0272
 20
583.4922
 30
0.0
 10
-1200.0272
 20
583.4922
 30
0.0
 10
-1200.0272
 20
583.4922
 30
0.0
 10
-1200.0272
 20
589.9961
 30
0.0
 10
-1200.0272
 20
589.9961
 30
0.0
 10
-1200.0272
 20
589.9961
 30
0.0
 10
-1148.4982
 20
589.9961
 30
0.0
 10
-1148.4982
 20
589.9961
 30
0.0
 10
-1148.4982
 20
589.9961
 30
0.0
 10
-978.2522
 20
471.0783
 30
0.0
 10
-978.2522
 20
471.0783
 30
0.0
 10
-978.2522
 20
471.0783
 30
0.0
 10
-872.0764
 20
589.9961
 30
0.0
 10
-872.0764
 20
589.9961
 30
0.0
 10
-872.0764
 20
589.9961
 30
0.0
 10
-821.8424
 20
589.9961
 30
0.0
 10
-821.8424
 20
589.9961
 30
0.0
 10
-821.8424
 20
589.9961
 30
0.0
 10
-845.2471
 20
563.7844
 30
0.0
 10
-845.2471
 20
563.7844
 30
0.0
 10
-845.2471
 20
563.7844
 30
0.0
 10
-707.6605
 20
419.0473
 30
0.0
 10
-707.6605
 20
419.0473
 30
0.0
 10
-707.6605
 20
419.0473
 30
0.0
 10
-631.6773
 20
589.9961
 30
0.0
 10
-631.6773
 20
589.9961
 30
0.0
 10
-631.6773
 20
589.9961
 30
0.0
 10
-587.3498
 20
589.9961
 30
0.0
 10
-587.3498
 20
589.9961
 30
0.0
 10
-587.3498
 20
589.9961
 30
0.0
 10
-599.5234
 20
562.6075
 30
0.0
 10
-599.5234
 20
562.6075
 30
0.0
 10
-599.5234
 20
562.6075
 30
0.0
 10
-413.8173
 20
434.7753
 30
0.0
 10
-413.8173
 20
434.7753
 30
0.0
 10
-413.8173
 20
434.7753
 30
0.0
 10
-344.8286
 20
589.9961
 30
0.0
 10
-344.8286
 20
589.9961
 30
0.0
 10
-344.8286
 20
589.9961
 30
0.0
 10
-300.4936
 20
589.9961
 30
0.0
 10
-300.4936
 20
589.9961
 30
0.0
 10
-300.4936
 20
589.9961
 30
0.0
 10
-312.0695
 20
563.9444
 30
0.0
 10
-312.0695
 20
563.9444
 30
0.0
 10
-312.0695
 20
563.9444
 30
0.0
 10
3.5544
 20
459.0203
 30
0.0
 10
3.5544
 20
459.0203
 30
0.0
 10
3.5544
 20
459.0203
 30
0.0
 10
61.7791
 20
589.9961
 30
0.0
 10
61.7791
 20
589.9961
 30
0.0
 10
61.7791
 20
589.9961
 30
0.0
 10
106.1065
 20
589.9961
 30
0.0
 10
106.1065
 20
589.9961
 30
0.0
 10
106.1065
 20
589.9961
 30
0.0
 10
77.3696
 20
525.3238
 30
0.0
 10
77.3696
 20
525.3238
 30
0.0
 10
77.3696
 20
525.3238
 30
0.0
 10
327.5444
 20
449.6155
 30
0.0
 10
327.5444
 20
449.6155
 30
0.0
 10
327.5444
 20
449.6155
 30
0.0
 10
296.8691
 20
589.9961
 30
0.0
 10
296.8691
 20
589.9961
 30
0.0
 10
296.8691
 20
589.9961
 30
0.0
 10
339.5801
 20
589.9961
 30
0.0
 10
339.5801
 20
589.9961
 30
0.0
 10
339.5801
 20
589.9961
 30
0.0
 10
389.6149
 20
361.0388
 30
0.0
 10
389.6149
 20
361.0388
 30
0.0
 10
389.6149
 20
361.0388
 30
0.0
 10
529.7757
 20
479.9153
 30
0.0
 10
529.7757
 20
479.9153
 30
0.0
 10
529.7757
 20
479.9153
 30
0.0
 10
428.8324
 20
589.9961
 30
0.0
 10
428.8324
 20
589.9961
 30
0.0
 10
428.8324
 20
589.9961
 30
0.0
 10
479.465
 20
589.9961
 30
0.0
 10
479.465
 20
589.9961
 30
0.0
 10
479.465
 20
589.9961
 30
0.0
 10
558.2598
 20
504.0726
 30
0.0
 10
558.2598
 20
504.0726
 30
0.0
 10
558.2598
 20
504.0726
 30
0.0
 10
640.8011
 20
574.0823
 30
0.0
 10
640.8011
 20
574.0823
 30
0.0
 10
640.8011
 20
574.0823
 30
0.0
 10
612.7076
 20
589.9961
 30
0.0
 10
612.7076
 20
589.9961
 30
0.0
 10
612.7076
 20
589.9961
 30
0.0
 10
681.3131
 20
589.9961
 30
0.0
 10
681.3131
 20
589.9961
 30
0.0
 10
681.3131
 20
589.9961
 30
0.0
 10
930.4383
 20
448.9394
 30
0.0
 10
930.4383
 20
448.9394
 30
0.0
 10
930.4383
 20
448.9394
 30
0.0
 10
1032.4925
 20
589.9961
 30
0.0
 10
1032.4925
 20
589.9961
 30
0.0
 10
1032.4925
 20
589.9961
 30
0.0
 10
1080.0836
 20
589.9961
 30
0.0
 10
1080.0836
 20
589.9961
 30
0.0
 10
1080.0836
 20
589.9961
 30
0.0
 10
1021.966
 20
509.6731
 30
0.0
 10
1021.966
 20
509.6731
 30
0.0
 10
1021.966
 20
509.6731
 30
0.0
 10
1199.9728
 20
467.496
 30
0.0
 10
1199.9728
 20
467.496
 30
0.0
 10
1199.9728
 20
467.496
 30
0.0
 10
1199.9728
 20
435.2657
 30
0.0
 10
1199.9728
 20
435.2657
 30
0.0
 10
1199.9728
 20
435.2657
 30
0.0
 10
1002.0625
 20
482.1452
 30
0.0
 10
1002.0625
 20
482.1452
 30
0.0
 10
1002.0625
 20
482.1452
 30
0.0
 10
926.2017
 20
377.3037
 30
0.0
 10
926.2017
 20
377.3037
 30
0.0
 10
926.2017
 20
377.3037
 30
0.0
 10
1199.9728
 20
360.9098
 30
0.0
 10
1199.9728
 20
360.9098
 30
0.0
 10
1199.9728
 20
360.9098
 30
0.0
 10
1199.9728
 20
330.1144
 30
0.0
 10
1199.9728
 20
330.1144
 30
0.0
 10
1199.9728
 20
330.1144
 30
0.0
 10
974.7198
 20
343.5971
 30
0.0
 10
974.7198
 20
343.5971
 30
0.0
 10
974.7198
 20
343.5971
 30
0.0
 10
1178.8741
 20
246.9732
 30
0.0
 10
1178.8741
 20
246.9732
 30
0.0
 10
1178.8741
 20
246.9732
 30
0.0
 10
1199.9728
 20
248.2997
 30
0.0
 10
1199.9728
 20
248.2997
 30
0.0
 10
1199.9728
 20
248.2997
 30
0.0
 10
1199.9728
 20
200.3775
 30
0.0
 10
1199.9728
 20
200.3775
 30
0.0
 10
1199.9728
 20
200.3775
 30
0.0
 10
953.9275
 20
316.828
 30
0.0
 10
953.9275
 20
316.828
 30
0.0
 10
953.9275
 20
316.828
 30
0.0
 10
904.2448
 20
266.1184
 30
0.0
 10
904.2448
 20
266.1184
 30
0.0
 10
904.2448
 20
266.1184
 30
0.0
 10
1156.0515
 20
90.2245
 30
0.0
 10
1156.0515
 20
90.2245
 30
0.0
 10
1156.0515
 20
90.2245
 30
0.0
 10
1199.9728
 20
128.1638
 30
0.0
 10
1199.9728
 20
128.1638
 30
0.0
 10
1199.9728
 20
128.1638
 30
0.0
 10
1199.9728
 20
80.5823
 30
0.0
 10
1199.9728
 20
80.5823
 30
0.0
 10
1199.9728
 20
80.5823
 30
0.0
 10
1186.5122
 20
68.9527
 30
0.0
 10
1186.5122
 20
68.9527
 30
0.0
 10
1186.5122
 20
68.9527
 30
0.0
 10
1199.9728
 20
59.5479
 30
0.0
 10
1199.9728
 20
59.5479
 30
0.0
 10
1199.9728
 20
59.5479
 30
0.0
 10
1199.9728
 20
17.0456
 30
0.0
 10
1199.9728
 20
17.0456
 30
0.0
 10
1199.9728
 20
17.0456
 30
0.0
 10
1159.3074
 20
45.451
 30
0.0
 10
1159.3074
 20
45.451
 30
0.0
 10
1159.3074
 20
45.451
 30
0.0
 10
1055.1388
 20
-44.5451
 30
0.0
 10
1055.1388
 20
-44.5451
 30
0.0
 10
1055.1388
 20
-44.5451
 30
0.0
 10
1055.1158
 20
-44.5606
 30
0.0
 10
1055.1158
 20
-44.5606
 30
0.0
 10
1055.1158
 20
-44.5606
 30
0.0
 10
1199.9728
 20
-120.8057
 30
0.0
 10
1199.9728
 20
-120.8057
 30
0.0
 10
1199.9728
 20
-120.8057
 30
0.0
 10
1199.9728
 20
-158.6263
 30
0.0
 10
1199.9728
 20
-158.6263
 30
0.0
 10
1199.9728
 20
-158.6263
 30
0.0
 10
1027.9111
 20
-68.0675
 30
0.0
 10
1027.9111
 20
-68.0675
 30
0.0
 10
1027.9111
 20
-68.0675
 30
0.0
 10
963.3736
 20
-123.8202
 30
0.0
 10
963.3736
 20
-123.8202
 30
0.0
 10
963.3736
 20
-123.8202
 30
0.0
 10
1072.591
 20
-246.1344
 30
0.0
 10
1072.591
 20
-246.1344
 30
0.0
 10
1072.591
 20
-246.1344
 30
0.0
 10
1146.4674
 20
-264.7066
 30
0.0
 10
1146.4674
 20
-264.7066
 30
0.0
 10
1146.4674
 20
-264.7066
 30
0.0
 10
1199.9728
 20
-221.3423
 30
0.0
 10
1199.9728
 20
-221.3423
 30
0.0
 10
1199.9728
 20
-221.3423
 30
0.0
 10
1199.9728
 20
-267.2514
 30
0.0
 10
1199.9728
 20
-267.2514
 30
0.0
 10
1199.9728
 20
-267.2514
 30
0.0
 10
1108.4144
 20
-341.4576
 30
0.0
 10
1108.4144
 20
-341.4576
 30
0.0
 10
1108.4144
 20
-341.4576
 30
0.0
 10
1199.9728
 20
-347.2182
 30
0.0
 10
1199.9728
 20
-347.2182
 30
0.0
 10
1199.9728
 20
-347.2182
 30
0.0
 10
1199.9728
 20
-561.2475
 30
0.0
 10
1199.9728
 20
-561.2475
 30
0.0
 10
1199.9728
 20
-561.2475
 30
0.0
 10
1198.2185
 20
-590.0039
 30
0.0
 10
1198.2185
 20
-590.0039
 30
0.0
 10
1198.2185
 20
-590.0039
 30
0.0
 10
1156.0438
 20
-590.0039
 30
0.0
 10
1156.0438
 20
-590.0039
 30
0.0
 10
1156.0438
 20
-590.0039
 30
0.0
 10
1162.5099
 20
-485.1262
 30
0.0
 10
1162.5099
 20
-485.1262
 30
0.0
 10
1162.5099
 20
-485.1262
 30
0.0
 10
792.9514
 20
-590.0039
 30
0.0
 10
792.9514
 20
-590.0039
 30
0.0
 10
792.9514
 20
-590.0039
 30
0.0
 10
676.9617
 20
-590.0039
 30
0.0
 10
676.9617
 20
-590.0039
 30
0.0
 10
676.9617
 20
-590.0039
 30
0.0
 10
906.5356
 20
-524.8566
 30
0.0
 10
906.5356
 20
-524.8566
 30
0.0
 10
906.5356
 20
-524.8566
 30
0.0
 10
910.5883
 20
-404.6588
 30
0.0
 10
910.5883
 20
-404.6588
 30
0.0
 10
910.5883
 20
-404.6588
 30
0.0
 10
595.0334
 20
-466.3012
 30
0.0
 10
595.0334
 20
-466.3012
 30
0.0
 10
595.0334
 20
-466.3012
 30
0.0
 10
671.0702
 20
-590.0039
 30
0.0
 10
671.0702
 20
-590.0039
 30
0.0
 10
671.0702
 20
-590.0039
 30
0.0
 10
624.8735
 20
-590.0039
 30
0.0
 10
624.8735
 20
-590.0039
 30
0.0
 10
624.8735
 20
-590.0039
 30
0.0
 10
583.8098
 20
-523.1998
 30
0.0
 10
583.8098
 20
-523.1998
 30
0.0
 10
583.8098
 20
-523.1998
 30
0.0
 10
377.7785
 20
-476.8829
 30
0.0
 10
377.7785
 20
-476.8829
 30
0.0
 10
377.7785
 20
-476.8829
 30
0.0
 10
246.1676
 20
-590.0039
 30
0.0
 10
246.1676
 20
-590.0039
 30
0.0
 10
246.1676
 20
-590.0039
 30
0.0
 10
190.9078
 20
-590.0039
 30
0.0
 10
190.9078
 20
-590.0039
 30
0.0
 10
190.9078
 20
-590.0039
 30
0.0
 10
230.5848
 20
-555.8998
 30
0.0
 10
230.5848
 20
-555.8998
 30
0.0
 10
230.5848
 20
-555.8998
 30
0.0
 10
-28.5611
 20
-415.4624
 30
0.0
 10
-28.5611
 20
-415.4624
 30
0.0
 10
-28.5611
 20
-415.4624
 30
0.0
 10
-53.0998
 20
-590.0039
 30
0.0
 10
-53.0998
 20
-590.0039
 30
0.0
 10
-53.0998
 20
-590.0039
 30
0.0
 10
-95.4888
 20
-590.0039
 30
0.0
 10
-95.4888
 20
-590.0039
 30
0.0
 10
-95.4888
 20
-590.0039
 30
0.0
 10
-80.9021
 20
-486.3599
 30
0.0
 10
-80.9021
 20
-486.3599
 30
0.0
 10
-80.9021
 20
-486.3599
 30
0.0
 10
-279.5404
 20
-486.9484
 30
0.0
 10
-279.5404
 20
-486.9484
 30
0.0
 10
-279.5404
 20
-486.9484
 30
0.0
 10
-200.3317
 20
-590.0039
 30
0.0
 10
-200.3317
 20
-590.0039
 30
0.0
 10
-200.3317
 20
-590.0039
 30
0.0
 10
-248.6506
 20
-590.0039
 30
0.0
 10
-248.6506
 20
-590.0039
 30
0.0
 10
-248.6506
 20
-590.0039
 30
0.0
 10
-392.6188
 20
-402.6921
 30
0.0
 10
-392.6188
 20
-402.6921
 30
0.0
 10
-392.6188
 20
-402.6921
 30
0.0
 10
-494.7726
 20
-434.3392
 30
0.0
 10
-494.7726
 20
-434.3392
 30
0.0
 10
-494.7726
 20
-434.3392
 30
0.0
 10
-420.7353
 20
-590.0039
 30
0.0
 10
-420.7353
 20
-590.0039
 30
0.0
 10
-420.7353
 20
-590.0039
 30
0.0
 10
-465.3155
 20
-590.0039
 30
0.0
 10
-465.3155
 20
-590.0039
 30
0.0
 10
-465.3155
 20
-590.0039
 30
0.0
 10
-532.657
 20
-448.3896
 30
0.0
 10
-532.657
 20
-448.3896
 30
0.0
 10
-532.657
 20
-448.3896
 30
0.0
 10
-820.8081
 20
-553.0453
 30
0.0
 10
-820.8081
 20
-553.0453
 30
0.0
 10
-820.8081
 20
-553.0453
 30
0.0
 10
-740.0826
 20
-590.0039
 30
0.0
 10
-740.0826
 20
-590.0039
 30
0.0
 10
-740.0826
 20
-590.0039
 30
0.0
 10
-818.7931
 20
-590.0039
 30
0.0
 10
-818.7931
 20
-590.0039
 30
0.0
 10
-818.7931
 20
-590.0039
 30
0.0
 10
-1044.8276
 20
-486.045
 30
0.0
 10
-1044.8276
 20
-486.045
 30
0.0
 10
-1044.8276
 20
-486.045
 30
0.0
 10
-1128.9087
 20
-544.7761
 30
0.0
 10
-1128.9087
 20
-544.7761
 30
0.0
 10
-1128.9087
 20
-544.7761
 30
0.0
 10
-1076.5602
 20
-590.0039
 30
0.0
 10
-1076.5602
 20
-590.0039
 30
0.0
 10
-1076.5602
 20
-590.0039
 30
0.0
 10
-1131.6361
 20
-590.0039
 30
0.0
 10
-1131.6361
 20
-590.0039
 30
0.0
 10
-1131.6361
 20
-590.0039
 30
0.0
 10
-1200.0272
 20
-530.9115
 30
0.0
 10
-1200.0272
 20
-530.9115
 30
0.0
  0
ENDSEC
  0
SECTION
  2
OBJECTS
  0
DICTIONARY
  5
C
330
0
100
AcDbDictionary
281
     1
  3
ACAD_DETAILVIEWSTYLE
350
A4
  3
ACAD_GROUP
350
D
  3
ACAD_LAYOUT
350
1A
  3
ACAD_MATERIAL
350
43
  3
ACAD_MLEADERSTYLE
350
5B
  3
ACAD_MLINESTYLE
350
17
  3
ACAD_PLOTSETTINGS
350
19
  3
ACAD_PLOTSTYLENAME
350
E
  3
ACAD_SCALELIST
350
47
  3
ACAD_SECTIONVIEWSTYLE
350
A5
  3
ACAD_TABLESTYLE
350
59
  3
ACAD_VISUALSTYLE
350
2A
  3
ACDB_RECOMPOSE_DATA
350
A1
  3
AcDbVariableDictionary
350
9D
  0
SUN
  5
5D
330
29
100
AcDbSun
 90
        1
290
     0
 63
     7
421
 16777215
 40
1.0
291
     1
 91
  2455826
 92
 54000000
292
     0
 70
     2
 71
   256
280
     1
  0
DICTIONARY
  5
A4
102
{ACAD_REACTORS
330
C
102
}
330
C
100
AcDbDictionary
281
     1
  0
DICTIONARY
  5
D
102
{ACAD_REACTORS
330
C
102
}
330
C
100
AcDbDictionary
281
     1
  0
DICTIONARY
  5
1A
102
{ACAD_REACTORS
330
C
102
}
330
C
100
AcDbDictionary
281
     1
  3
Layout1
350
1E
  3
Layout2
350
26
  3
Model
350
22
  0
DICTIONARY
  5
43
102
{ACAD_REACTORS
330
C
102
}
330
C
100
AcDbDictionary
281
     1
  3
ByBlock
350
45
  3
ByLayer
350
44
  3
Global
350
46
  0
DICTIONARY
  5
5B
102
{ACAD_REACTORS
330
C
102
}
330
C
100
AcDbDictionary
281
     1
  3
Standard
350
5C
  0
DICTIONARY
  5
17
102
{ACAD_REACTORS
330
C
102
}
330
C
100
AcDbDictionary
281
     1
  3
Standard
350
18
  0
DICTIONARY
  5
19
102
{ACAD_REACTORS
330
C
102
}
330
C
100
AcDbDictionary
281
     1
  0
ACDBDICTIONARYWDFLT
  5
E
102
{ACAD_REACTORS
330
C
102
}
330
C
100
AcDbDictionary
281
     1
  3
Normal
350
F
100
AcDbDictionaryWithDefault
340
F
  0
DICTIONARY
  5
47
102
{ACAD_REACTORS
330
C
102
}
330
C
100
AcDbDictionary
281
     1
  3
A0
350
48
  3
A1
350
49
  3
A2
350
4A
  3
A3
350
4B
  3
A4
350
4C
  3
A5
350
4D
  3
A6
350
4E
  3
A7
350
4F
  3
A8
350
50
  3
A9
350
51
  3
B1
350
52
  3
B2
350
53
  3
B3
350
54
  3
B4
350
55
  3
B5
350
56
  3
B6
350
57
  3
B7
350
58
  0
DICTIONARY
  5
A5
102
{ACAD_REACTORS
330
C
102
}
330
C
100
AcDbDictionary
281
     1
  0
DICTIONARY
  5
59
102
{ACAD_REACTORS
330
C
102
}
330
C
100
AcDbDictionary
281
     1
  3
Standard
350
5A
  0
DICTIONARY
  5
2A
102
{ACAD_REACTORS
330
C
102
}
330
C
100
AcDbDictionary
281
     1
  3
2dWireframe
350
2F
  3
Basic
350
32
  3
Brighten
350
36
  3
ColorChange
350
3A
  3
Conceptual
350
34
  3
Dim
350
35
  3
EdgeColorOff
350
3D
  3
Facepattern
350
39
  3
Flat
350
2B
  3
FlatWithEdges
350
2C
  3
Gouraud
350
2D
  3
GouraudWithEdges
350
2E
  3
Hidden
350
31
  3
JitterOff
350
3B
  3
Linepattern
350
38
  3
OverhangOff
350
3C
  3
Realistic
350
33
  3
Shaded
350
42
  3
Shaded with edges
350
41
  3
Shades of Gray
350
3E
  3
Sketchy
350
3F
  3
Thicken
350
37
  3
Wireframe
350
30
  3
X-Ray
350
40
  0
XRECORD
  5
A1
102
{ACAD_REACTORS
330
C
102
}
330
C
100
AcDbXrecord
280
     1
 90
        1
330
5A
  0
DICTIONARY
  5
9D
102
{ACAD_REACTORS
330
C
102
}
330
C
100
AcDbDictionary
281
     1
  3
CANNOSCALE
350
9E
  3
CMLEADERSTYLE
350
A3
  3
CTABLESTYLE
350
A2
  0
LAYOUT
  5
1E
102
{ACAD_REACTORS
330
1A
102
}
330
1A
100
AcDbPlotSettings
  1

  2
none_device
  4

  6

 40
0.0
 41
0.0
 42
0.0
 43
0.0
 44
0.0
 45
0.0
 46
0.0
 47
0.0
 48
0.0
 49
0.0
140
0.0
141
0.0
142
1.0
143
1.0
 70
   688
 72
     0
 73
     0
 74
     5
  7

 75
    16
 76
     0
 77
     2
 78
   300
147
1.0
148
0.0
149
0.0
100
AcDbLayout
  1
Layout1
 70
     1
 71
     1
 10
0.0
 20
0.0
 11
12.0
 21
9.0
 12
0.0
 22
0.0
 32
0.0
 14
1.000000000000000E+20
 24
1.000000000000000E+20
 34
1.000000000000000E+20
 15
-1.000000000000000E+20
 25
-1.000000000000000E+20
 35
-1.000000000000000E+20
146
0.0
 13
0.0
 23
0.0
 33
0.0
 16
1.0
 26
0.0
 36
0.0
 17
0.0
 27
1.0
 37
0.0
 76
     0
330
1B
  0
LAYOUT
  5
26
102
{ACAD_REACTORS
330
1A
102
}
330
1A
100
AcDbPlotSettings
  1

  2
none_device
  4

  6

 40
0.0
 41
0.0
 42
0.0
 43
0.0
 44
0.0
 45
0.0
 46
0.0
 47
0.0
 48
0.0
 49
0.0
140
0.0
141
0.0
142
1.0
143
1.0
 70
   688
 72
     0
 73
     0
 74
     5
  7

 75
    16
 76
     0
 77
     2
 78
   300
147
1.0
148
0.0
149
0.0
100
AcDbLayout
  1
Layout2
 70
     1
 71
     2
 10
0.0
 20
0.0
 11
0.0
 21
0.0
 12
0.0
 22
0.0
 32
0.0
 14
0.0
 24
0.0
 34
0.0
 15
0.0
 25
0.0
 35
0.0
146
0.0
 13
0.0
 23
0.0
 33
0.0
 16
1.0
 26
0.0
 36
0.0
 17
0.0
 27
1.0
 37
0.0
 76
     0
330
23
  0
LAYOUT
  5
22
102
{ACAD_REACTORS
330
1A
102
}
330
1A
100
AcDbPlotSettings
  1

  2
none_device
  4
Letter_(8.50_x_11.00_Inches)
  6

 40
6.35
 41
6.35
 42
6.35000508
 43
6.35000508
 44
215.9
 45
279.4
 46
0.0
 47
0.0
 48
0.0
 49
0.0
140
0.0
141
0.0
142
1.0
143
1.0
 70
  1712
 72
     0
 73
     0
 74
     0
  7

 75
     0
 76
     0
 77
     2
 78
   300
147
1.0
148
0.0
149
0.0
100
AcDbLayout
  1
Model
 70
     1
 71
     0
 10
0.0
 20
0.0
 11
12.0
 21
9.0
 12
0.0
 22
0.0
 32
0.0
 14
-1200.1272
 24
-590.1039
 34
0.0
 15
1200.0728
 25
590.0961
 35
0.0
146
0.0
 13
0.0
 23
0.0
 33
0.0
 16
1.0
 26
0.0
 36
0.0
 17
0.0
 27
1.0
 37
0.0
 76
     0
330
1F
331
29
  0
MATERIAL
  5
45
102
{ACAD_REACTORS
330
43
102
}
330
43
100
AcDbMaterial
  1
ByBlock
 72
     1
 94
      127
  0
MATERIAL
  5
44
102
{ACAD_REACTORS
330
43
102
}
330
43
100
AcDbMaterial
  1
ByLayer
 72
     1
 94
      127
  0
MATERIAL
  5
46
102
{ACAD_REACTORS
330
43
102
}
330
43
100
AcDbMaterial
  1
Global
 72
     1
 94
      127
  0
MLEADERSTYLE
  5
5C
102
{ACAD_REACTORS
330
5B
102
}
330
5B
100
AcDbMLeaderStyle
179
     2
170
     2
171
     1
172
     0
 90
        2
 40
0.0
 41
0.0
173
     1
 91
-1056964608
340
14
 92
       -2
290
     1
 42
0.09
291
     1
 43
0.36
  3
Standard
341
0
 44
0.18
300

342
11
174
     1
178
     6
175
     1
176
     0
 93
-1056964608
 45
0.18
292
     0
297
     0
 46
0.18
343
0
 94
-1056964608
 47
1.0
 49
1.0
140
1.0
293
     1
141
0.0
294
     1
177
     0
142
1.0
295
     0
296
     0
143
0.125
271
     0
272
     9
273
     9
298
     0
  0
MLINESTYLE
  5
18
102
{ACAD_REACTORS
330
17
102
}
330
17
100
AcDbMlineStyle
  2
Standard
 70
     0
  3

 62
   256
 51
90.0
 52
90.0
 71
     2
 49
0.5
 62
   256
  6
BYLAYER
 49
-0.5
 62
   256
  6
BYLAYER
  0
ACDBPLACEHOLDER
  5
F
102
{ACAD_REACTORS
330
E
102
}
330
E
  0
SCALE
  5
48
102
{ACAD_REACTORS
330
47
102
}
330
47
100
AcDbScale
 70
     0
300
1:1
140
1.0
141
1.0
290
     1
  0
SCALE
  5
49
102
{ACAD_REACTORS
330
47
102
}
330
47
100
AcDbScale
 70
     0
300
1/128" = 1'-0"
140
0.0078125
141
12.0
290
     0
  0
SCALE
  5
4A
102
{ACAD_REACTORS
330
47
102
}
330
47
100
AcDbScale
 70
     0
300
1/64" = 1'-0"
140
0.015625
141
12.0
290
     0
  0
SCALE
  5
4B
102
{ACAD_REACTORS
330
47
102
}
330
47
100
AcDbScale
 70
     0
300
1/32" = 1'-0"
140
0.03125
141
12.0
290
     0
  0
SCALE
  5
4C
102
{ACAD_REACTORS
330
47
102
}
330
47
100
AcDbScale
 70
     0
300
1/16" = 1'-0"
140
0.0625
141
12.0
290
     0
  0
SCALE
  5
4D
102
{ACAD_REACTORS
330
47
102
}
330
47
100
AcDbScale
 70
     0
300
3/32" = 1'-0"
140
0.09375
141
12.0
290
     0
  0
SCALE
  5
4E
102
{ACAD_REACTORS
330
47
102
}
330
47
100
AcDbScale
 70
     0
300
1/8" = 1'-0"
140
0.125
141
12.0
290
     0
  0
SCALE
  5
4F
102
{ACAD_REACTORS
330
47
102
}
330
47
100
AcDbScale
 70
     0
300
3/16" = 1'-0"
140
0.1875
141
12.0
290
     0
  0
SCALE
  5
50
102
{ACAD_REACTORS
330
47
102
}
330
47
100
AcDbScale
 70
     0
300
1/4" = 1'-0"
140
0.25
141
12.0
290
     0
  0
SCALE
  5
51
102
{ACAD_REACTORS
330
47
102
}
330
47
100
AcDbScale
 70
     0
300
3/8" = 1'-0"
140
0.375
141
12.0
290
     0
  0
SCALE
  5
52
102
{ACAD_REACTORS
330
47
102
}
330
47
100
AcDbScale
 70
     0
300
1/2" = 1'-0"
140
0.5
141
12.0
290
     0
  0
SCALE
  5
53
102
{ACAD_REACTORS
330
47
102
}
330
47
100
AcDbScale
 70
     0
300
3/4" = 1'-0"
140
0.75
141
12.0
290
     0
  0
SCALE
  5
54
102
{ACAD_REACTORS
330
47
102
}
330
47
100
AcDbScale
 70
     0
300
1" = 1'-0"
140
1.0
141
12.0
290
     0
  0
SCALE
  5
55
102
{ACAD_REACTORS
330
47
102
}
330
47
100
AcDbScale
 70
     0
300
1-1/2" = 1'-0"
140
1.5
141
12.0
290
     0
  0
SCALE
  5
56
102
{ACAD_REACTORS
330
47
102
}
330
47
100
AcDbScale
 70
     0
300
3" = 1'-0"
140
3.0
141
12.0
290
     0
  0
SCALE
  5
57
102
{ACAD_REACTORS
330
47
102
}
330
47
100
AcDbScale
 70
     0
300
6" = 1'-0"
140
6.0
141
12.0
290
     0
  0
SCALE
  5
58
102
{ACAD_REACTORS
330
47
102
}
330
47
100
AcDbScale
 70
     0
300
1'-0" = 1'-0"
140
12.0
141
12.0
290
     0
  0
TABLESTYLE
  5
5A
102
{ACAD_REACTORS
330
59
102
}
102
{ACAD_XDICTIONARY
360
9F
102
}
330
59
100
AcDbTableStyle
  3
Standard
 70
     0
 71
     0
 40
0.06
 41
0.06
280
     0
281
     0
  7
Standard
140
0.18
170
     2
 62
     0
 63
   257
283
     0
 90
        4
 91
        0
  1

274
    -2
284
     1
 64
     0
275
    -2
285
     1
 65
     0
276
    -2
286
     1
 66
     0
277
    -2
287
     1
 67
     0
278
    -2
288
     1
 68
     0
279
    -2
289
     1
 69
     0
  7
Standard
140
0.25
170
     5
 62
     0
 63
   257
283
     0
 90
        4
 91
        0
  1

274
    -2
284
     1
 64
     0
275
    -2
285
     1
 65
     0
276
    -2
286
     1
 66
     0
277
    -2
287
     1
 67
     0
278
    -2
288
     1
 68
     0
279
    -2
289
     1
 69
     0
  7
Standard
140
0.18
170
     5
 62
     0
 63
   257
283
     0
 90
        4
 91
        0
  1

274
    -2
284
     1
 64
     0
275
    -2
285
     1
 65
     0
276
    -2
286
     1
 66
     0
277
    -2
287
     1
 67
     0
278
    -2
288
     1
 68
     0
279
    -2
289
     1
 69
     0
  0
VISUALSTYLE
  5
2F
102
{ACAD_REACTORS
330
2A
102
}
330
2A
100
AcDbVisualStyle
  2
2dWireframe
 70
     4
177
     3
291
     0
 70
    58
 90
        0
176
     1
 90
        2
176
     1
 90
        0
176
     1
 90
        0
176
     1
 40
0.6
176
     1
 40
30.0
176
     1
 62
     7
420
 16777215
176
     1
 90
        1
176
     1
 90
        4
176
     1
 62
     7
176
     1
 62
   257
176
     1
 90
        1
176
     1
 90
        1
176
     1
 40
1.0
176
     1
 90
        0
176
     1
 62
   257
176
     1
 40
1.0
176
     1
 90
        1
176
     1
 90
        6
176
     1
 90
        2
176
     1
 62
     7
176
     1
 90
        5
176
     1
 90
        0
176
     1
 90
        0
176
     1
290
     0
176
     1
 90
        1
176
     1
 40
0.0
176
     1
 90
        0
176
     1
290
     1
176
     1
290
     1
176
     1
290
     0
176
     1
290
     0
176
     1
290
     0
176
     1
290
     0
176
     1
290
     0
176
     1
290
     0
176
     1
290
     0
176
     1
 90
       50
176
     1
 40
0.0
176
     1
 40
1.0
176
     1
 90
        0
176
     1
 62
    18
420
        0
176
     1
 90
       50
176
     1
 90
        3
176
     1
 62
     5
420
      255
176
     1
290
     0
176
     1
 90
       50
176
     1
 90
       50
176
     1
 90
       50
176
     1
290
     0
176
     1
 90
       50
176
     1
 62
   256
176
     0
 40
1.0
176
     0
 90
        2
176
     1
  1
strokes_ogs.tif
176
     1
290
     0
176
     1
 40
1.0
176
     1
 40
1.0
176
     1
  0
VISUALSTYLE
  5
32
102
{ACAD_REACTORS
330
2A
102
}
330
2A
100
AcDbVisualStyle
  2
Basic
 70
     7
177
     3
291
     1
 70
    58
 90
        1
176
     1
 90
        0
176
     1
 90
        1
176
     1
 90
        0
176
     1
 40
0.6
176
     1
 40
30.0
176
     1
 62
     7
420
 16777215
176
     1
 90
        0
176
     1
 90
        4
176
     1
 62
     7
176
     1
 62
   257
176
     1
 90
        1
176
     1
 90
        1
176
     1
 40
1.0
176
     1
 90
        8
176
     1
 62
     7
176
     1
 40
1.0
176
     1
 90
        1
176
     1
 90
        6
176
     1
 90
        2
176
     1
 62
     7
176
     1
 90
        5
176
     1
 90
        0
176
     1
 90
        0
176
     1
290
     0
176
     1
 90
        1
176
     1
 40
0.0
176
     1
 90
        0
176
     1
290
     0
176
     1
290
     1
176
     1
290
     1
176
     1
290
     0
176
     1
290
     0
176
     1
290
     0
176
     1
290
     0
176
     1
290
     0
176
     1
290
     0
176
     1
 90
       50
176
     1
 40
0.0
176
     1
 40
1.0
176
     1
 90
        0
176
     1
 62
    18
420
        0
176
     1
 90
       50
176
     1
 90
        3
176
     1
 62
     5
420
      255
176
     1
290
     0
176
     1
 90
       50
176
     1
 90
       50
176
     1
 90
       50
176
     1
290
     0
176
     1
 90
       50
176
     1
 62
   256
176
     0
 40
1.0
176
     0
 90
        2
176
     1
  1
strokes_ogs.tif
176
     1
290
     0
176
     1
 40
1.0
176
     1
 40
1.0
176
     1
  0
VISUALSTYLE
  5
36
102
{ACAD_REACTORS
330
2A
102
}
330
2A
100
AcDbVisualStyle
  2
Brighten
 70
    12
177
     3
291
     1
 70
    58
 90
        2
176
     1
 90
        2
176
     1
 90
        0
176
     1
 90
        0
176
     1
 40
0.6
176
     1
 40
30.0
176
     1
 62
     7
420
 16777215
176
     1
 90
        1
176
     1
 90
        4
176
     1
 62
     7
176
     1
 62
   257
176
     1
 90
        1
176
     1
 90
        1
176
     1
 40
1.0
176
     1
 90
        8
176
     1
 62
     7
176
     1
 40
1.0
176
     1
 90
        1
176
     1
 90
        6
176
     1
 90
        2
176
     1
 62
     7
176
     1
 90
        5
176
     1
 90
        0
176
     1
 90
        0
176
     1
290
     0
176
     1
 90
        1
176
     1
 40
50.0
176
     1
 90
        0
176
     1
290
     0
176
     1
290
     1
176
     1
290
     1
176
     1
290
     0
176
     1
290
     0
176
     1
290
     0
176
     1
290
     0
176
     1
290
     0
176
     1
290
     0
176
     1
 90
       50
176
     1
 40
0.0
176
     1
 40
1.0
176
     1
 90
        0
176
     1
 62
    18
420
        0
176
     1
 90
       50
176
     1
 90
        3
176
     1
 62
     5
420
      255
176
     1
290
     0
176
     1
 90
       50
176
     1
 90
       50
176
     1
 90
       50
176
     1
290
     0
176
     1
 90
       50
176
     1
 62
   256
176
     0
 40
1.0
176
     0
 90
        2
176
     1
  1
strokes_ogs.tif
176
     1
290
     0
176
     1
 40
1.0
176
     1
 40
1.0
176
     1
  0
VISUALSTYLE
  5
3A
102
{ACAD_REACTORS
330
2A
102
}
330
2A
100
AcDbVisualStyle
  2
ColorChange
 70
    16
177
     3
291
     1
 70
    58
 90
        2
176
     1
 90
        2
176
     1
 90
        3
176
     1
 90
        0
176
     1
 40
0.6
176
     1
 40
30.0
176
     1
 62
     8
420
  8421504
176
     1
 90
        1
176
     1
 90
        4
176
     1
 62
     7
176
     1
 62
   257
176
     1
 90
        1
176
     1
 90
        1
176
     1
 40
1.0
176
     1
 90
        8
176
     1
 62
     8
420
  8421504
176
     1
 40
1.0
176
     1
 90
        1
176
     1
 90
        6
176
     1
 90
        2
176
     1
 62
     7
176
     1
 90
        5
176
     1
 90
        0
176
     1
 90
        0
176
     1
290
     0
176
     1
 90
        1
176
     1
 40
0.0
176
     1
 90
        0
176
     1
290
     0
176
     1
290
     1
176
     1
290
     1
176
     1
290
     0
176
     1
290
     0
176
     1
290
     0
176
     1
290
     0
176
     1
290
     0
176
     1
290
     0
176
     1
 90
       50
176
     1
 40
0.0
176
     1
 40
1.0
176
     1
 90
        0
176
     1
 62
    18
420
        0
176
     1
 90
       50
176
     1
 90
        3
176
     1
 62
     5
420
      255
176
     1
290
     0
176
     1
 90
       50
176
     1
 90
       50
176
     1
 90
       50
176
     1
290
     0
176
     1
 90
       50
176
     1
 62
   256
176
     0
 40
1.0
176
     0
 90
        2
176
     1
  1
strokes_ogs.tif
176
     1
290
     0
176
     1
 40
1.0
176
     1
 40
1.0
176
     1
  0
VISUALSTYLE
  5
34
102
{ACAD_REACTORS
330
2A
102
}
330
2A
100
AcDbVisualStyle
  2
Conceptual
 70
     9
177
     3
291
     0
 70
    58
 90
        3
176
     1
 90
        2
176
     1
 90
        0
176
     1
 90
        0
176
     1
 40
0.6
176
     1
 40
30.0
176
     1
 62
     7
420
 16777215
176
     1
 90
        2
176
     1
 90
        2
176
     1
 62
     7
176
     1
 62
   257
176
     1
 90
        1
176
     1
 90
        1
176
     1
 40
179.0
176
     1
 90
        8
176
     1
 62
     7
176
     1
 40
1.0
176
     1
 90
        1
176
     1
 90
        6
176
     1
 90
        2
176
     1
 62
     7
176
     1
 90
        3
176
     1
 90
        0
176
     1
 90
        0
176
     1
290
     0
176
     1
 90
        1
176
     1
 40
0.0
176
     1
 90
        0
176
     1
290
     0
176
     1
290
     1
176
     1
290
     1
176
     1
290
     0
176
     1
290
     0
176
     1
290
     0
176
     1
290
     0
176
     1
290
     0
176
     1
290
     0
176
     1
 90
       50
176
     1
 40
0.0
176
     1
 40
1.0
176
     1
 90
        0
176
     1
 62
    18
420
        0
176
     1
 90
       50
176
     1
 90
        3
176
     1
 62
     5
420
      255
176
     1
290
     0
176
     1
 90
       50
176
     1
 90
       50
176
     1
 90
       50
176
     1
290
     0
176
     1
 90
       50
176
     1
 62
   256
176
     0
 40
1.0
176
     0
 90
        2
176
     1
  1
strokes_ogs.tif
176
     1
290
     0
176
     1
 40
1.0
176
     1
 40
1.0
176
     1
  0
VISUALSTYLE
  5
35
102
{ACAD_REACTORS
330
2A
102
}
330
2A
100
AcDbVisualStyle
  2
Dim
 70
    11
177
     3
291
     1
 70
    58
 90
        2
176
     1
 90
        2
176
     1
 90
        0
176
     1
 90
        0
176
     1
 40
0.6
176
     1
 40
30.0
176
     1
 62
     7
420
 16777215
176
     1
 90
        1
176
     1
 90
        4
176
     1
 62
     7
176
     1
 62
   257
176
     1
 90
        1
176
     1
 90
        1
176
     1
 40
1.0
176
     1
 90
        8
176
     1
 62
     7
176
     1
 40
1.0
176
     1
 90
        1
176
     1
 90
        6
176
     1
 90
        2
176
     1
 62
     7
176
     1
 90
        5
176
     1
 90
        0
176
     1
 90
        0
176
     1
290
     0
176
     1
 90
        1
176
     1
 40
-50.0
176
     1
 90
        0
176
     1
290
     0
176
     1
290
     1
176
     1
290
     1
176
     1
290
     0
176
     1
290
     0
176
     1
290
     0
176
     1
290
     0
176
     1
290
     0
176
     1
290
     0
176
     1
 90
       50
176
     1
 40
0.0
176
     1
 40
1.0
176
     1
 90
        0
176
     1
 62
    18
420
        0
176
     1
 90
       50
176
     1
 90
        3
176
     1
 62
     5
420
      255
176
     1
290
     0
176
     1
 90
       50
176
     1
 90
       50
176
     1
 90
       50
176
     1
290
     0
176
     1
 90
       50
176
     1
 62
   256
176
     0
 40
1.0
176
     0
 90
        2
176
     1
  1
strokes_ogs.tif
176
     1
290
     0
176
     1
 40
1.0
176
     1
 40
1.0
176
     1
  0
VISUALSTYLE
  5
3D
102
{ACAD_REACTORS
330
2A
102
}
330
2A
100
AcDbVisualStyle
  2
EdgeColorOff
 70
    22
177
     3
291
     1
 70
    58
 90
        2
176
     0
 90
        2
176
     0
 90
        0
176
     0
 90
        0
176
     0
 40
0.6
176
     0
 40
30.0
176
     0
 62
     7
420
 16777215
176
     0
 90
        1
176
     0
 90
        4
176
     0
 62
     7
176
     0
 62
   257
176
     0
 90
        1
176
     0
 90
        1
176
     0
 40
1.0
176
     0
 90
        8
176
     2
 62
     7
176
     0
 40
1.0
176
     0
 90
        1
176
     0
 90
        6
176
     0
 90
        2
176
     0
 62
     7
176
     0
 90
        5
176
     0
 90
        0
176
     0
 90
        0
176
     0
290
     0
176
     0
 90
        1
176
     0
 40
0.0
176
     0
 90
        0
176
     0
290
     0
176
     0
290
     1
176
     0
290
     1
176
     0
290
     0
176
     0
290
     0
176
     0
290
     0
176
     0
290
     0
176
     0
290
     0
176
     0
290
     0
176
     0
 90
       50
176
     0
 40
0.0
176
     0
 40
1.0
176
     0
 90
        0
176
     0
 62
    18
420
        0
176
     0
 90
       50
176
     0
 90
        3
176
     0
 62
     5
420
      255
176
     0
290
     0
176
     0
 90
       50
176
     0
 90
       50
176
     0
 90
       50
176
     0
290
     0
176
     0
 90
       50
176
     0
 62
   256
176
     0
 40
1.0
176
     0
 90
        2
176
     0
  1
strokes_ogs.tif
176
     0
290
     0
176
     0
 40
1.0
176
     0
 40
1.0
176
     0
  0
VISUALSTYLE
  5
39
102
{ACAD_REACTORS
330
2A
102
}
330
2A
100
AcDbVisualStyle
  2
Facepattern
 70
    15
177
     3
291
     1
 70
    58
 90
        2
176
     1
 90
        2
176
     1
 90
        0
176
     1
 90
        0
176
     1
 40
0.6
176
     1
 40
30.0
176
     1
 62
     7
420
 16777215
176
     1
 90
        1
176
     1
 90
        4
176
     1
 62
     7
176
     1
 62
   257
176
     1
 90
        1
176
     1
 90
        1
176
     1
 40
1.0
176
     1
 90
        8
176
     1
 62
     7
176
     1
 40
1.0
176
     1
 90
        1
176
     1
 90
        6
176
     1
 90
        2
176
     1
 62
     7
176
     1
 90
        5
176
     1
 90
        0
176
     1
 90
        0
176
     1
290
     0
176
     1
 90
        1
176
     1
 40
0.0
176
     1
 90
        0
176
     1
290
     0
176
     1
290
     1
176
     1
290
     1
176
     1
290
     0
176
     1
290
     0
176
     1
290
     0
176
     1
290
     0
176
     1
290
     0
176
     1
290
     0
176
     1
 90
       50
176
     1
 40
0.0
176
     1
 40
1.0
176
     1
 90
        0
176
     1
 62
    18
420
        0
176
     1
 90
       50
176
     1
 90
        3
176
     1
 62
     5
420
      255
176
     1
290
     0
176
     1
 90
       50
176
     1
 90
       50
176
     1
 90
       50
176
     1
290
     0
176
     1
 90
       50
176
     1
 62
   256
176
     0
 40
1.0
176
     0
 90
        2
176
     1
  1
strokes_ogs.tif
176
     1
290
     0
176
     1
 40
1.0
176
     1
 40
1.0
176
     1
  0
VISUALSTYLE
  5
2B
102
{ACAD_REACTORS
330
2A
102
}
330
2A
100
AcDbVisualStyle
  2
Flat
 70
     0
177
     3
291
     1
 70
    58
 90
        2
176
     1
 90
        1
176
     1
 90
        1
176
     1
 90
        2
176
     1
 40
0.6
176
     1
 40
30.0
176
     1
 62
     7
420
 16777215
176
     1
 90
        0
176
     1
 90
        0
176
     1
 62
     7
176
     1
 62
   257
176
     1
 90
        1
176
     1
 90
        1
176
     1
 40
1.0
176
     1
 90
        8
176
     1
 62
     7
176
     1
 40
1.0
176
     1
 90
        1
176
     1
 90
        6
176
     1
 90
        2
176
     1
 62
     7
176
     1
 90
        5
176
     1
 90
        0
176
     1
 90
        0
176
     1
290
     0
176
     1
 90
       13
176
     1
 40
0.0
176
     1
 90
        0
176
     1
290
     0
176
     1
290
     1
176
     1
290
     1
176
     1
290
     0
176
     1
290
     0
176
     1
290
     0
176
     1
290
     0
176
     1
290
     0
176
     1
290
     0
176
     1
 90
       50
176
     1
 40
0.0
176
     1
 40
1.0
176
     1
 90
        0
176
     1
 62
    18
420
        0
176
     1
 90
       50
176
     1
 90
        3
176
     1
 62
     5
420
      255
176
     1
290
     0
176
     1
 90
       50
176
     1
 90
       50
176
     1
 90
       50
176
     1
290
     0
176
     1
 90
       50
176
     1
 62
   256
176
     0
 40
1.0
176
     0
 90
        2
176
     1
  1
strokes_ogs.tif
176
     1
290
     0
176
     1
 40
1.0
176
     1
 40
1.0
176
     1
  0
VISUALSTYLE
  5
2C
102
{ACAD_REACTORS
330
2A
102
}
330
2A
100
AcDbVisualStyle
  2
FlatWithEdges
 70
     1
177
     3
291
     1
 70
    58
 90
        2
176
     1
 90
        1
176
     1
 90
        1
176
     1
 90
        2
176
     1
 40
0.6
176
     1
 40
30.0
176
     1
 62
     7
420
 16777215
176
     1
 90
        1
176
     1
 90
        0
176
     1
 62
     7
176
     1
 62
   257
176
     1
 90
        1
176
     1
 90
        1
176
     1
 40
1.0
176
     1
 90
        0
176
     1
 62
   257
176
     1
 40
1.0
176
     1
 90
        1
176
     1
 90
        6
176
     1
 90
        2
176
     1
 62
     7
176
     1
 90
        5
176
     1
 90
        0
176
     1
 90
        0
176
     1
290
     0
176
     1
 90
       13
176
     1
 40
0.0
176
     1
 90
        0
176
     1
290
     0
176
     1
290
     1
176
     1
290
     1
176
     1
290
     0
176
     1
290
     0
176
     1
290
     0
176
     1
290
     0
176
     1
290
     0
176
     1
290
     0
176
     1
 90
       50
176
     1
 40
0.0
176
     1
 40
1.0
176
     1
 90
        0
176
     1
 62
    18
420
        0
176
     1
 90
       50
176
     1
 90
        3
176
     1
 62
     5
420
      255
176
     1
290
     0
176
     1
 90
       50
176
     1
 90
       50
176
     1
 90
       50
176
     1
290
     0
176
     1
 90
       50
176
     1
 62
   256
176
     0
 40
1.0
176
     0
 90
        2
176
     1
  1
strokes_ogs.tif
176
     1
290
     0
176
     1
 40
1.0
176
     1
 40
1.0
176
     1
  0
VISUALSTYLE
  5
2D
102
{ACAD_REACTORS
330
2A
102
}
330
2A
100
AcDbVisualStyle
  2
Gouraud
 70
     2
177
     3
291
     1
 70
    58
 90
        2
176
     1
 90
        2
176
     1
 90
        1
176
     1
 90
        2
176
     1
 40
0.6
176
     1
 40
30.0
176
     1
 62
     7
420
 16777215
176
     1
 90
        0
176
     1
 90
        0
176
     1
 62
     7
176
     1
 62
   257
176
     1
 90
        1
176
     1
 90
        1
176
     1
 40
1.0
176
     1
 90
        0
176
     1
 62
     7
176
     1
 40
1.0
176
     1
 90
        1
176
     1
 90
        6
176
     1
 90
        2
176
     1
 62
     7
176
     1
 90
        5
176
     1
 90
        0
176
     1
 90
        0
176
     1
290
     0
176
     1
 90
       13
176
     1
 40
0.0
176
     1
 90
        0
176
     1
290
     0
176
     1
290
     1
176
     1
290
     1
176
     1
290
     0
176
     1
290
     0
176
     1
290
     0
176
     1
290
     0
176
     1
290
     0
176
     1
290
     0
176
     1
 90
       50
176
     1
 40
0.0
176
     1
 40
1.0
176
     1
 90
        0
176
     1
 62
    18
420
        0
176
     1
 90
       50
176
     1
 90
        3
176
     1
 62
     5
420
      255
176
     1
290
     0
176
     1
 90
       50
176
     1
 90
       50
176
     1
 90
       50
176
     1
290
     0
176
     1
 90
       50
176
     1
 62
   256
176
     0
 40
1.0
176
     0
 90
        2
176
     1
  1
strokes_ogs.tif
176
     1
290
     0
176
     1
 40
1.0
176
     1
 40
1.0
176
     1
  0
VISUALSTYLE
  5
2E
102
{ACAD_REACTORS
330
2A
102
}
330
2A
100
AcDbVisualStyle
  2
GouraudWithEdges
 70
     3
177
     3
291
     1
 70
    58
 90
        2
176
     1
 90
        2
176
     1
 90
        1
176
     1
 90
        2
176
     1
 40
0.6
176
     1
 40
30.0
176
     1
 62
     7
420
 16777215
176
     1
 90
        1
176
     1
 90
        0
176
     1
 62
     7
176
     1
 62
   257
176
     1
 90
        1
176
     1
 90
        1
176
     1
 40
1.0
176
     1
 90
        0
176
     1
 62
   257
176
     1
 40
1.0
176
     1
 90
        1
176
     1
 90
        6
176
     1
 90
        2
176
     1
 62
     7
176
     1
 90
        5
176
     1
 90
        0
176
     1
 90
        0
176
     1
290
     0
176
     1
 90
       13
176
     1
 40
0.0
176
     1
 90
        0
176
     1
290
     0
176
     1
290
     1
176
     1
290
     1
176
     1
290
     0
176
     1
290
     0
176
     1
290
     0
176
     1
290
     0
176
     1
290
     0
176
     1
290
     0
176
     1
 90
       50
176
     1
 40
0.0
176
     1
 40
1.0
176
     1
 90
        0
176
     1
 62
    18
420
        0
176
     1
 90
       50
176
     1
 90
        3
176
     1
 62
     5
420
      255
176
     1
290
     0
176
     1
 90
       50
176
     1
 90
       50
176
     1
 90
       50
176
     1
290
     0
176
     1
 90
       50
176
     1
 62
   256
176
     0
 40
1.0
176
     0
 90
        2
176
     1
  1
strokes_ogs.tif
176
     1
290
     0
176
     1
 40
1.0
176
     1
 40
1.0
176
     1
  0
VISUALSTYLE
  5
31
102
{ACAD_REACTORS
330
2A
102
}
330
2A
100
AcDbVisualStyle
  2
Hidden
 70
     6
177
     3
291
     0
 70
    58
 90
        1
176
     1
 90
        2
176
     1
 90
        2
176
     1
 90
        0
176
     1
 40
0.6
176
     1
 40
30.0
176
     1
 62
     7
420
 16777215
176
     1
 90
        2
176
     1
 90
        2
176
     1
 62
     7
176
     1
 62
   257
176
     1
 90
        2
176
     1
 90
        1
176
     1
 40
40.0
176
     1
 90
        0
176
     1
 62
   257
176
     1
 40
1.0
176
     1
 90
        1
176
     1
 90
        6
176
     1
 90
        2
176
     1
 62
     7
176
     1
 90
        3
176
     1
 90
        0
176
     1
 90
        0
176
     1
290
     0
176
     1
 90
        1
176
     1
 40
0.0
176
     1
 90
        0
176
     1
290
     0
176
     1
290
     1
176
     1
290
     1
176
     1
290
     0
176
     1
290
     0
176
     1
290
     0
176
     1
290
     0
176
     1
290
     0
176
     1
290
     0
176
     1
 90
       50
176
     1
 40
0.0
176
     1
 40
1.0
176
     1
 90
        0
176
     1
 62
    18
420
        0
176
     1
 90
       50
176
     1
 90
        3
176
     1
 62
     5
420
      255
176
     1
290
     0
176
     1
 90
       50
176
     1
 90
       50
176
     1
 90
       50
176
     1
290
     0
176
     1
 90
       50
176
     1
 62
   256
176
     0
 40
1.0
176
     0
 90
        2
176
     1
  1
strokes_ogs.tif
176
     1
290
     0
176
     1
 40
1.0
176
     1
 40
1.0
176
     1
  0
VISUALSTYLE
  5
3B
102
{ACAD_REACTORS
330
2A
102
}
330
2A
100
AcDbVisualStyle
  2
JitterOff
 70
    20
177
     3
291
     1
 70
    58
 90
        2
176
     0
 90
        2
176
     0
 90
        0
176
     0
 90
        0
176
     0
 40
0.6
176
     0
 40
30.0
176
     0
 62
     7
420
 16777215
176
     0
 90
        1
176
     0
 90
        4
176
     0
 62
     7
176
     0
 62
   257
176
     0
 90
        1
176
     0
 90
        1
176
     0
 40
1.0
176
     0
 90
       10
176
     2
 62
     7
176
     0
 40
1.0
176
     0
 90
        1
176
     0
 90
        6
176
     0
 90
        2
176
     0
 62
     7
176
     0
 90
        5
176
     0
 90
        0
176
     0
 90
        0
176
     0
290
     0
176
     0
 90
        1
176
     0
 40
0.0
176
     0
 90
        0
176
     0
290
     0
176
     0
290
     1
176
     0
290
     1
176
     0
290
     0
176
     0
290
     0
176
     0
290
     0
176
     0
290
     0
176
     0
290
     0
176
     0
290
     0
176
     0
 90
       50
176
     0
 40
0.0
176
     0
 40
1.0
176
     0
 90
        0
176
     0
 62
    18
420
        0
176
     0
 90
       50
176
     0
 90
        3
176
     0
 62
     5
420
      255
176
     0
290
     0
176
     0
 90
       50
176
     0
 90
       50
176
     0
 90
       50
176
     0
290
     0
176
     0
 90
       50
176
     0
 62
   256
176
     0
 40
1.0
176
     0
 90
        2
176
     0
  1
strokes_ogs.tif
176
     0
290
     0
176
     0
 40
1.0
176
     0
 40
1.0
176
     0
  0
VISUALSTYLE
  5
38
102
{ACAD_REACTORS
330
2A
102
}
330
2A
100
AcDbVisualStyle
  2
Linepattern
 70
    14
177
     3
291
     1
 70
    58
 90
        2
176
     1
 90
        2
176
     1
 90
        0
176
     1
 90
        0
176
     1
 40
0.6
176
     1
 40
30.0
176
     1
 62
     7
420
 16777215
176
     1
 90
        1
176
     1
 90
        4
176
     1
 62
     7
176
     1
 62
   257
176
     1
 90
        7
176
     1
 90
        7
176
     1
 40
1.0
176
     1
 90
        8
176
     1
 62
     7
176
     1
 40
1.0
176
     1
 90
        1
176
     1
 90
        6
176
     1
 90
        2
176
     1
 62
     7
176
     1
 90
        5
176
     1
 90
        0
176
     1
 90
        0
176
     1
290
     0
176
     1
 90
        1
176
     1
 40
0.0
176
     1
 90
        0
176
     1
290
     0
176
     1
290
     1
176
     1
290
     1
176
     1
290
     0
176
     1
290
     0
176
     1
290
     0
176
     1
290
     0
176
     1
290
     0
176
     1
290
     0
176
     1
 90
       50
176
     1
 40
0.0
176
     1
 40
1.0
176
     1
 90
        0
176
     1
 62
    18
420
        0
176
     1
 90
       50
176
     1
 90
        3
176
     1
 62
     5
420
      255
176
     1
290
     0
176
     1
 90
       50
176
     1
 90
       50
176
     1
 90
       50
176
     1
290
     0
176
     1
 90
       50
176
     1
 62
   256
176
     0
 40
1.0
176
     0
 90
        2
176
     1
  1
strokes_ogs.tif
176
     1
290
     0
176
     1
 40
1.0
176
     1
 40
1.0
176
     1
  0
VISUALSTYLE
  5
3C
102
{ACAD_REACTORS
330
2A
102
}
330
2A
100
AcDbVisualStyle
  2
OverhangOff
 70
    21
177
     3
291
     1
 70
    58
 90
        2
176
     0
 90
        2
176
     0
 90
        0
176
     0
 90
        0
176
     0
 40
0.6
176
     0
 40
30.0
176
     0
 62
     7
420
 16777215
176
     0
 90
        1
176
     0
 90
        4
176
     0
 62
     7
176
     0
 62
   257
176
     0
 90
        1
176
     0
 90
        1
176
     0
 40
1.0
176
     0
 90
        9
176
     2
 62
     7
176
     0
 40
1.0
176
     0
 90
        1
176
     0
 90
        6
176
     0
 90
        2
176
     0
 62
     7
176
     0
 90
        5
176
     0
 90
        0
176
     0
 90
        0
176
     0
290
     0
176
     0
 90
        1
176
     0
 40
0.0
176
     0
 90
        0
176
     0
290
     0
176
     0
290
     1
176
     0
290
     1
176
     0
290
     0
176
     0
290
     0
176
     0
290
     0
176
     0
290
     0
176
     0
290
     0
176
     0
290
     0
176
     0
 90
       50
176
     0
 40
0.0
176
     0
 40
1.0
176
     0
 90
        0
176
     0
 62
    18
420
        0
176
     0
 90
       50
176
     0
 90
        3
176
     0
 62
     5
420
      255
176
     0
290
     0
176
     0
 90
       50
176
     0
 90
       50
176
     0
 90
       50
176
     0
290
     0
176
     0
 90
       50
176
     0
 62
   256
176
     0
 40
1.0
176
     0
 90
        2
176
     0
  1
strokes_ogs.tif
176
     0
290
     0
176
     0
 40
1.0
176
     0
 40
1.0
176
     0
  0
VISUALSTYLE
  5
33
102
{ACAD_REACTORS
330
2A
102
}
330
2A
100
AcDbVisualStyle
  2
Realistic
 70
     8
177
     3
291
     0
 70
    58
 90
        2
176
     1
 90
        3
176
     1
 90
        0
176
     1
 90
        2
176
     1
 40
0.6
176
     1
 40
30.0
176
     1
 62
     7
420
 16777215
176
     1
 90
        0
176
     1
 90
        0
176
     1
 62
     7
176
     1
 62
   257
176
     1
 90
        1
176
     1
 90
        1
176
     1
 40
1.0
176
     1
 90
        8
176
     1
 62
   257
176
     1
 40
1.0
176
     1
 90
        1
176
     1
 90
        6
176
     1
 90
        2
176
     1
 62
     7
176
     1
 90
        3
176
     1
 90
        0
176
     1
 90
        0
176
     1
290
     0
176
     1
 90
       13
176
     1
 40
0.0
176
     1
 90
        0
176
     1
290
     0
176
     1
290
     1
176
     1
290
     1
176
     1
290
     0
176
     1
290
     0
176
     1
290
     0
176
     1
290
     0
176
     1
290
     0
176
     1
290
     0
176
     1
 90
       50
176
     1
 40
0.0
176
     1
 40
1.0
176
     1
 90
        0
176
     1
 62
    18
420
        0
176
     1
 90
       50
176
     1
 90
        3
176
     1
 62
     5
420
      255
176
     1
290
     0
176
     1
 90
       50
176
     1
 90
       50
176
     1
 90
       50
176
     1
290
     0
176
     1
 90
       50
176
     1
 62
   256
176
     0
 40
1.0
176
     0
 90
        2
176
     1
  1
strokes_ogs.tif
176
     1
290
     0
176
     1
 40
1.0
176
     1
 40
1.0
176
     1
  0
VISUALSTYLE
  5
42
102
{ACAD_REACTORS
330
2A
102
}
330
2A
100
AcDbVisualStyle
  2
Shaded
 70
    27
177
     3
291
     0
 70
    58
 90
        2
176
     1
 90
        2
176
     1
 90
        1
176
     1
 90
        2
176
     1
 40
0.6
176
     1
 40
30.0
176
     1
 62
     7
420
 16777215
176
     1
 90
        0
176
     1
 90
        4
176
     1
 62
     7
176
     1
 62
   257
176
     1
 90
        1
176
     1
 90
        1
176
     1
 40
1.0
176
     1
 90
        8
176
     1
 62
   257
176
     1
 40
1.0
176
     1
 90
        1
176
     1
 90
        6
176
     1
 90
        2
176
     1
 62
     8
420
  7895160
176
     1
 90
        3
176
     1
 90
        0
176
     1
 90
        0
176
     1
290
     0
176
     1
 90
        5
176
     1
 40
0.0
176
     1
 90
        0
176
     1
290
     0
176
     1
290
     1
176
     1
290
     1
176
     1
290
     0
176
     1
290
     0
176
     1
290
     0
176
     1
290
     0
176
     1
290
     0
176
     1
290
     0
176
     1
 90
       50
176
     1
 40
0.0
176
     1
 40
1.0
176
     1
 90
        0
176
     1
 62
    18
420
        0
176
     1
 90
       50
176
     1
 90
        3
176
     1
 62
     5
420
      255
176
     1
290
     0
176
     1
 90
       50
176
     1
 90
       50
176
     1
 90
       50
176
     1
290
     0
176
     1
 90
       50
176
     1
 62
   256
176
     0
 40
1.0
176
     0
 90
        2
176
     1
  1
strokes_ogs.tif
176
     1
290
     0
176
     1
 40
1.0
176
     1
 40
1.0
176
     1
  0
VISUALSTYLE
  5
41
102
{ACAD_REACTORS
330
2A
102
}
330
2A
100
AcDbVisualStyle
  2
Shaded with edges
 70
    26
177
     3
291
     0
 70
    58
 90
        2
176
     1
 90
        2
176
     1
 90
        1
176
     1
 90
        2
176
     1
 40
0.6
176
     1
 40
30.0
176
     1
 62
     7
420
 16777215
176
     1
 90
        1
176
     1
 90
       10
176
     1
 62
     7
176
     1
 62
   257
176
     1
 90
        2
176
     1
 90
        1
176
     1
 40
1.0
176
     1
 90
        8
176
     1
 62
   257
176
     1
 40
1.0
176
     1
 90
        1
176
     1
 90
        6
176
     1
 90
        2
176
     1
 62
     7
176
     1
 90
        3
176
     1
 90
        0
176
     1
 90
        0
176
     1
290
     0
176
     1
 90
        5
176
     1
 40
0.0
176
     1
 90
        0
176
     1
290
     0
176
     1
290
     1
176
     1
290
     1
176
     1
290
     0
176
     1
290
     0
176
     1
290
     0
176
     1
290
     0
176
     1
290
     0
176
     1
290
     0
176
     1
 90
       50
176
     1
 40
0.0
176
     1
 40
1.0
176
     1
 90
        0
176
     1
 62
    18
420
        0
176
     1
 90
       50
176
     1
 90
        3
176
     1
 62
     5
420
      255
176
     1
290
     0
176
     1
 90
       50
176
     1
 90
       50
176
     1
 90
       50
176
     1
290
     0
176
     1
 90
       50
176
     1
 62
   256
176
     0
 40
1.0
176
     0
 90
        2
176
     1
  1
strokes_ogs.tif
176
     1
290
     0
176
     1
 40
1.0
176
     1
 40
1.0
176
     1
  0
VISUALSTYLE
  5
3E
102
{ACAD_REACTORS
330
2A
102
}
330
2A
100
AcDbVisualStyle
  2
Shades of Gray
 70
    23
177
     3
291
     0
 70
    58
 90
        2
176
     1
 90
        2
176
     1
 90
        3
176
     1
 90
        0
176
     1
 40
0.6
176
     1
 40
30.0
176
     1
 62
     7
420
 16777215
176
     1
 90
        2
176
     1
 90
        2
176
     1
 62
     7
176
     1
 62
     7
176
     1
 90
        1
176
     1
 90
        1
176
     1
 40
40.0
176
     1
 90
        8
176
     1
 62
     7
176
     1
 40
1.0
176
     1
 90
        1
176
     1
 90
        6
176
     1
 90
        2
176
     1
 62
     7
176
     1
 90
        3
176
     1
 90
        0
176
     1
 90
        0
176
     1
290
     0
176
     1
 90
        1
176
     1
 40
0.0
176
     1
 90
        0
176
     1
290
     0
176
     1
290
     1
176
     1
290
     1
176
     1
290
     0
176
     1
290
     0
176
     1
290
     0
176
     1
290
     0
176
     1
290
     0
176
     1
290
     0
176
     1
 90
       50
176
     1
 40
0.0
176
     1
 40
1.0
176
     1
 90
        0
176
     1
 62
    18
420
        0
176
     1
 90
       50
176
     1
 90
        3
176
     1
 62
     5
420
      255
176
     1
290
     0
176
     1
 90
       50
176
     1
 90
       50
176
     1
 90
       50
176
     1
290
     0
176
     1
 90
       50
176
     1
 62
   256
176
     0
 40
1.0
176
     0
 90
        2
176
     1
  1
strokes_ogs.tif
176
     1
290
     0
176
     1
 40
1.0
176
     1
 40
1.0
176
     1
  0
VISUALSTYLE
  5
3F
102
{ACAD_REACTORS
330
2A
102
}
330
2A
100
AcDbVisualStyle
  2
Sketchy
 70
    24
177
     3
291
     0
 70
    58
 90
        1
176
     1
 90
        2
176
     1
 90
        2
176
     1
 90
        0
176
     1
 40
0.6
176
     1
 40
30.0
176
     1
 62
     7
420
 16777215
176
     1
 90
        2
176
     1
 90
        2
176
     1
 62
     7
176
     1
 62
     7
176
     1
 90
        1
176
     1
 90
        1
176
     1
 40
40.0
176
     1
 90
       11
176
     1
 62
     7
176
     1
 40
1.0
176
     1
 90
        1
176
     1
 90
        6
176
     1
 90
        2
176
     1
 62
     7
176
     1
 90
        6
176
     1
 90
        0
176
     1
 90
        0
176
     1
290
     0
176
     1
 90
        1
176
     1
 40
0.0
176
     1
 90
        0
176
     1
290
     0
176
     1
290
     1
176
     1
290
     1
176
     1
290
     0
176
     1
290
     0
176
     1
290
     0
176
     1
290
     0
176
     1
290
     0
176
     1
290
     0
176
     1
 90
       50
176
     1
 40
0.0
176
     1
 40
1.0
176
     1
 90
        0
176
     1
 62
    18
420
        0
176
     1
 90
       50
176
     1
 90
        3
176
     1
 62
     5
420
      255
176
     1
290
     0
176
     1
 90
       50
176
     1
 90
       50
176
     1
 90
       50
176
     1
290
     0
176
     1
 90
       50
176
     1
 62
   256
176
     0
 40
1.0
176
     0
 90
        2
176
     1
  1
strokes_ogs.tif
176
     1
290
     0
176
     1
 40
1.0
176
     1
 40
1.0
176
     1
  0
VISUALSTYLE
  5
37
102
{ACAD_REACTORS
330
2A
102
}
330
2A
100
AcDbVisualStyle
  2
Thicken
 70
    13
177
     3
291
     1
 70
    58
 90
        2
176
     1
 90
        2
176
     1
 90
        0
176
     1
 90
        0
176
     1
 40
0.6
176
     1
 40
30.0
176
     1
 62
     7
420
 16777215
176
     1
 90
        1
176
     1
 90
        4
176
     1
 62
     7
176
     1
 62
   257
176
     1
 90
        1
176
     1
 90
        1
176
     1
 40
1.0
176
     1
 90
       12
176
     1
 62
     7
176
     1
 40
1.0
176
     1
 90
        1
176
     1
 90
        6
176
     1
 90
        2
176
     1
 62
     7
176
     1
 90
        5
176
     1
 90
        0
176
     1
 90
        0
176
     1
290
     0
176
     1
 90
        1
176
     1
 40
0.0
176
     1
 90
        0
176
     1
290
     0
176
     1
290
     1
176
     1
290
     1
176
     1
290
     0
176
     1
290
     0
176
     1
290
     0
176
     1
290
     0
176
     1
290
     0
176
     1
290
     0
176
     1
 90
       50
176
     1
 40
0.0
176
     1
 40
1.0
176
     1
 90
        0
176
     1
 62
    18
420
        0
176
     1
 90
       50
176
     1
 90
        3
176
     1
 62
     5
420
      255
176
     1
290
     0
176
     1
 90
       50
176
     1
 90
       50
176
     1
 90
       50
176
     1
290
     0
176
     1
 90
       50
176
     1
 62
   256
176
     0
 40
1.0
176
     0
 90
        2
176
     1
  1
strokes_ogs.tif
176
     1
290
     0
176
     1
 40
1.0
176
     1
 40
1.0
176
     1
  0
VISUALSTYLE
  5
30
102
{ACAD_REACTORS
330
2A
102
}
330
2A
100
AcDbVisualStyle
  2
Wireframe
 70
     5
177
     3
291
     0
 70
    58
 90
        0
176
     1
 90
        2
176
     1
 90
        0
176
     1
 90
        0
176
     1
 40
0.6
176
     1
 40
30.0
176
     1
 62
     7
420
 16777215
176
     1
 90
        1
176
     1
 90
        4
176
     1
 62
     7
176
     1
 62
   257
176
     1
 90
        1
176
     1
 90
        1
176
     1
 40
1.0
176
     1
 90
        0
176
     1
 62
   257
176
     1
 40
1.0
176
     1
 90
        1
176
     1
 90
        6
176
     1
 90
        2
176
     1
 62
     7
176
     1
 90
        3
176
     1
 90
        0
176
     1
 90
        0
176
     1
290
     0
176
     1
 90
        1
176
     1
 40
0.0
176
     1
 90
        0
176
     1
290
     0
176
     1
290
     1
176
     1
290
     1
176
     1
290
     0
176
     1
290
     0
176
     1
290
     0
176
     1
290
     0
176
     1
290
     0
176
     1
290
     0
176
     1
 90
       50
176
     1
 40
0.0
176
     1
 40
1.0
176
     1
 90
        0
176
     1
 62
    18
420
        0
176
     1
 90
       50
176
     1
 90
        3
176
     1
 62
     5
420
      255
176
     1
290
     0
176
     1
 90
       50
176
     1
 90
       50
176
     1
 90
       50
176
     1
290
     0
176
     1
 90
       50
176
     1
 62
   256
176
     0
 40
1.0
176
     0
 90
        2
176
     1
  1
strokes_ogs.tif
176
     1
290
     0
176
     1
 40
1.0
176
     1
 40
1.0
176
     1
  0
VISUALSTYLE
  5
40
102
{ACAD_REACTORS
330
2A
102
}
330
2A
100
AcDbVisualStyle
  2
X-Ray
 70
    25
177
     3
291
     0
 70
    58
 90
        2
176
     1
 90
        2
176
     1
 90
        1
176
     1
 90
        1
176
     1
 40
0.5
176
     1
 40
30.0
176
     1
 62
     7
420
 16777215
176
     1
 90
        1
176
     1
 90
        0
176
     1
 62
     7
176
     1
 62
   257
176
     1
 90
        1
176
     1
 90
        1
176
     1
 40
1.0
176
     1
 90
        8
176
     1
 62
     7
176
     1
 40
1.0
176
     1
 90
        1
176
     1
 90
        6
176
     1
 90
        2
176
     1
 62
     7
176
     1
 90
        3
176
     1
 90
        0
176
     1
 90
        0
176
     1
290
     0
176
     1
 90
       13
176
     1
 40
0.0
176
     1
 90
        0
176
     1
290
     0
176
     1
290
     1
176
     1
290
     1
176
     1
290
     0
176
     1
290
     0
176
     1
290
     0
176
     1
290
     0
176
     1
290
     0
176
     1
290
     0
176
     1
 90
       50
176
     1
 40
0.0
176
     1
 40
1.0
176
     1
 90
        0
176
     1
 62
    18
420
        0
176
     1
 90
       50
176
     1
 90
        3
176
     1
 62
     5
420
      255
176
     1
290
     0
176
     1
 90
       50
176
     1
 90
       50
176
     1
 90
       50
176
     1
290
     0
176
     1
 90
       50
176
     1
 62
   256
176
     0
 40
1.0
176
     0
 90
        2
176
     1
  1
strokes_ogs.tif
176
     1
290
     0
176
     1
 40
1.0
176
     1
 40
1.0
176
     1
  0
DICTIONARYVAR
  5
9E
102
{ACAD_REACTORS
330
9D
102
}
330
9D
100
DictionaryVariables
280
     0
  1
1:1
  0
DICTIONARYVAR
  5
A3
102
{ACAD_REACTORS
330
9D
102
}
330
9D
100
DictionaryVariables
280
     0
  1
Standard
  0
DICTIONARYVAR
  5
A2
102
{ACAD_REACTORS
330
9D
102
}
330
9D
100
DictionaryVariables
280
     0
  1
Standard
  0
DICTIONARY
  5
9F
330
5A
100
AcDbDictionary
280
     1
281
     1
  3
ACAD_ROUNDTRIP_2008_TABLESTYLE_CELLSTYLEMAP
360
A0
  0
CELLSTYLEMAP
  5
A0
102
{ACAD_REACTORS
330
9F
102
}
330
9F
100
AcDbCellStyleMap
 90
        3
300
CELLSTYLE
  1
TABLEFORMAT_BEGIN
 90
        5
170
     1
 91
        0
 92
    32768
 62
   257
 93
        1
300
CONTENTFORMAT
  1
CONTENTFORMAT_BEGIN
 90
        0
 91
        0
 92
        4
 93
        0
300

 40
0.0
140
1.0
 94
        5
 62
     0
340
11
144
0.25
309
CONTENTFORMAT_END
171
     1
301
MARGIN
  1
CELLMARGIN_BEGIN
 40
0.06
 40
0.06
 40
0.06
 40
0.06
 40
0.06
 40
0.06
309
CELLMARGIN_END
 94
        6
 95
        1
302
GRIDFORMAT
  1
GRIDFORMAT_BEGIN
 90
        0
 91
        1
 62
     0
 92
       -2
340
14
 93
        0
 40
0.045
309
GRIDFORMAT_END
 95
        2
302
GRIDFORMAT
  1
GRIDFORMAT_BEGIN
 90
        0
 91
        1
 62
     0
 92
       -2
340
14
 93
        0
 40
0.045
309
GRIDFORMAT_END
 95
        4
302
GRIDFORMAT
  1
GRIDFORMAT_BEGIN
 90
        0
 91
        1
 62
     0
 92
       -2
340
14
 93
        0
 40
0.045
309
GRIDFORMAT_END
 95
        8
302
GRIDFORMAT
  1
GRIDFORMAT_BEGIN
 90
        0
 91
        1
 62
     0
 92
       -2
340
14
 93
        0
 40
0.045
309
GRIDFORMAT_END
 95
       16
302
GRIDFORMAT
  1
GRIDFORMAT_BEGIN
 90
        0
 91
        1
 62
     0
 92
       -2
340
14
 93
        0
 40
0.045
309
GRIDFORMAT_END
 95
       32
302
GRIDFORMAT
  1
GRIDFORMAT_BEGIN
 90
        0
 91
        1
 62
     0
 92
       -2
340
14
 93
        0
 40
0.045
309
GRIDFORMAT_END
309
TABLEFORMAT_END
  1
CELLSTYLE_BEGIN
 90
        1
 91
        1
300
_TITLE
309
CELLSTYLE_END
300
CELLSTYLE
  1
TABLEFORMAT_BEGIN
 90
        5
170
     1
 91
        0
 92
        0
 62
   257
 93
        1
300
CONTENTFORMAT
  1
CONTENTFORMAT_BEGIN
 90
        0
 91
        0
 92
        4
 93
        0
300

 40
0.0
140
1.0
 94
        5
 62
     0
340
11
144
0.18
309
CONTENTFORMAT_END
171
     1
301
MARGIN
  1
CELLMARGIN_BEGIN
 40
0.06
 40
0.06
 40
0.06
 40
0.06
 40
0.06
 40
0.06
309
CELLMARGIN_END
 94
        6
 95
        1
302
GRIDFORMAT
  1
GRIDFORMAT_BEGIN
 90
        0
 91
        1
 62
     0
 92
       -2
340
14
 93
        0
 40
0.045
309
GRIDFORMAT_END
 95
        2
302
GRIDFORMAT
  1
GRIDFORMAT_BEGIN
 90
        0
 91
        1
 62
     0
 92
       -2
340
14
 93
        0
 40
0.045
309
GRIDFORMAT_END
 95
        4
302
GRIDFORMAT
  1
GRIDFORMAT_BEGIN
 90
        0
 91
        1
 62
     0
 92
       -2
340
14
 93
        0
 40
0.045
309
GRIDFORMAT_END
 95
        8
302
GRIDFORMAT
  1
GRIDFORMAT_BEGIN
 90
        0
 91
        1
 62
     0
 92
       -2
340
14
 93
        0
 40
0.045
309
GRIDFORMAT_END
 95
       16
302
GRIDFORMAT
  1
GRIDFORMAT_BEGIN
 90
        0
 91
        1
 62
     0
 92
       -2
340
14
 93
        0
 40
0.045
309
GRIDFORMAT_END
 95
       32
302
GRIDFORMAT
  1
GRIDFORMAT_BEGIN
 90
        0
 91
        1
 62
     0
 92
       -2
340
14
 93
        0
 40
0.045
309
GRIDFORMAT_END
309
TABLEFORMAT_END
  1
CELLSTYLE_BEGIN
 90
        2
 91
        1
300
_HEADER
309
CELLSTYLE_END
300
CELLSTYLE
  1
TABLEFORMAT_BEGIN
 90
        5
170
     1
 91
        0
 92
        0
 62
   257
 93
        1
300
CONTENTFORMAT
  1
CONTENTFORMAT_BEGIN
 90
        0
 91
        0
 92
        4
 93
        0
300

 40
0.0
140
1.0
 94
        2
 62
     0
340
11
144
0.18
309
CONTENTFORMAT_END
171
     1
301
MARGIN
  1
CELLMARGIN_BEGIN
 40
0.06
 40
0.06
 40
0.06
 40
0.06
 40
0.06
 40
0.06
309
CELLMARGIN_END
 94
        6
 95
        1
302
GRIDFORMAT
  1
GRIDFORMAT_BEGIN
 90
        0
 91
        1
 62
     0
 92
       -2
340
14
 93
        0
 40
0.045
309
GRIDFORMAT_END
 95
        2
302
GRIDFORMAT
  1
GRIDFORMAT_BEGIN
 90
        0
 91
        1
 62
     0
 92
       -2
340
14
 93
        0
 40
0.045
309
GRIDFORMAT_END
 95
        4
302
GRIDFORMAT
  1
GRIDFORMAT_BEGIN
 90
        0
 91
        1
 62
     0
 92
       -2
340
14
 93
        0
 40
0.045
309
GRIDFORMAT_END
 95
        8
302
GRIDFORMAT
  1
GRIDFORMAT_BEGIN
 90
        0
 91
        1
 62
     0
 92
       -2
340
14
 93
        0
 40
0.045
309
GRIDFORMAT_END
 95
       16
302
GRIDFORMAT
  1
GRIDFORMAT_BEGIN
 90
        0
 91
        1
 62
     0
 92
       -2
340
14
 93
        0
 40
0.045
309
GRIDFORMAT_END
 95
       32
302
GRIDFORMAT
  1
GRIDFORMAT_BEGIN
 90
        0
 91
        1
 62
     0
 92
       -2
340
14
 93
        0
 40
0.045
309
GRIDFORMAT_END
309
TABLEFORMAT_END
  1
CELLSTYLE_BEGIN
 90
        3
 91
        2
300
_DATA
309
CELLSTYLE_END
  0
ENDSEC
  0
EOF
