  0
SECTION
  2
HEADER
  9
$ACADVER
  1
AC1032
  9
$ACADMAINTVER
 90
       55
  9
$DWGCODEPAGE
  3
ANSI_1252
  9
$LASTSAVEDBY
  1
LYI-002
  9
$REQUIREDVERSIONS
160
                 0
  9
$INSBASE
 10
0.0
 20
0.0
 30
0.0
  9
$EXTMIN
 10
-1200.15
 20
-590.1266
 30
0.0
  9
$EXTMAX
 10
1200.05
 20
590.0734
 30
0.0
  9
$LIMMIN
 10
0.0
 20
0.0
  9
$LIMMAX
 10
12.0
 20
9.0
  9
$ORTHOMODE
 70
     0
  9
$REGENMODE
 70
     1
  9
$FILLMODE
 70
     1
  9
$QTEXTMODE
 70
     0
  9
$MIRRTEXT
 70
     1
  9
$LTSCALE
 40
1.0
  9
$ATTMODE
 70
     1
  9
$TEXTSIZE
 40
0.2
  9
$TRACEWID
 40
0.05
  9
$TEXTSTYLE
  7
Standard
  9
$CLAYER
  8
0
  9
$CELTYPE
  6
ByLayer
  9
$CECOLOR
 62
   256
  9
$CELTSCALE
 40
1.0
  9
$DISPSILH
 70
     0
  9
$DIMSCALE
 40
1.0
  9
$DIMASZ
 40
0.18
  9
$DIMEXO
 40
0.0625
  9
$DIMDLI
 40
0.38
  9
$DIMRND
 40
0.0
  9
$DIMDLE
 40
0.0
  9
$DIMEXE
 40
0.18
  9
$DIMTP
 40
0.0
  9
$DIMTM
 40
0.0
  9
$DIMTXT
 40
0.18
  9
$DIMCEN
 40
0.09
  9
$DIMTSZ
 40
0.0
  9
$DIMTOL
 70
     0
  9
$DIMLIM
 70
     0
  9
$DIMTIH
 70
     1
  9
$DIMTOH
 70
     1
  9
$DIMSE1
 70
     0
  9
$DIMSE2
 70
     0
  9
$DIMTAD
 70
     0
  9
$DIMZIN
 70
     0
  9
$DIMBLK
  1

  9
$DIMASO
 70
     1
  9
$DIMSHO
 70
     1
  9
$DIMPOST
  1

  9
$DIMAPOST
  1

  9
$DIMALT
 70
     0
  9
$DIMALTD
 70
     2
  9
$DIMALTF
 40
25.4
  9
$DIMLFAC
 40
1.0
  9
$DIMTOFL
 70
     0
  9
$DIMTVP
 40
0.0
  9
$DIMTIX
 70
     0
  9
$DIMSOXD
 70
     0
  9
$DIMSAH
 70
     0
  9
$DIMBLK1
  1

  9
$DIMBLK2
  1

  9
$DIMSTYLE
  2
Standard
  9
$DIMCLRD
 70
     0
  9
$DIMCLRE
 70
     0
  9
$DIMCLRT
 70
     0
  9
$DIMTFAC
 40
1.0
  9
$DIMGAP
 40
0.09
  9
$DIMJUST
 70
     0
  9
$DIMSD1
 70
     0
  9
$DIMSD2
 70
     0
  9
$DIMTOLJ
 70
     1
  9
$DIMTZIN
 70
     0
  9
$DIMALTZ
 70
     0
  9
$DIMALTTZ
 70
     0
  9
$DIMUPT
 70
     0
  9
$DIMDEC
 70
     4
  9
$DIMTDEC
 70
     4
  9
$DIMALTU
 70
     2
  9
$DIMALTTD
 70
     2
  9
$DIMTXSTY
  7
Standard
  9
$DIMAUNIT
 70
     0
  9
$DIMADEC
 70
     0
  9
$DIMALTRND
 40
0.0
  9
$DIMAZIN
 70
     0
  9
$DIMDSEP
 70
    46
  9
$DIMATFIT
 70
     3
  9
$DIMFRAC
 70
     0
  9
$DIMLDRBLK
  1

  9
$DIMLUNIT
 70
     2
  9
$DIMLWD
 70
    -2
  9
$DIMLWE
 70
    -2
  9
$DIMTMOVE
 70
     0
  9
$DIMFXL
 40
1.0
  9
$DIMFXLON
 70
     0
  9
$DIMJOGANG
 40
0.7853981633974483
  9
$DIMTFILL
 70
     0
  9
$DIMTFILLCLR
 70
     0
  9
$DIMARCSYM
 70
     0
  9
$DIMLTYPE
  6

  9
$DIMLTEX1
  6

  9
$DIMLTEX2
  6

  9
$DIMTXTDIRECTION
 70
     0
  9
$LUNITS
 70
     2
  9
$LUPREC
 70
     4
  9
$SKETCHINC
 40
0.1
  9
$FILLETRAD
 40
0.0
  9
$AUNITS
 70
     0
  9
$AUPREC
 70
     0
  9
$MENU
  1
.
  9
$ELEVATION
 40
0.0
  9
$PELEVATION
 40
0.0
  9
$THICKNESS
 40
0.0
  9
$LIMCHECK
 70
     0
  9
$CHAMFERA
 40
0.0
  9
$CHAMFERB
 40
0.0
  9
$CHAMFERC
 40
0.0
  9
$CHAMFERD
 40
0.0
  9
$SKPOLY
 70
     0
  9
$TDCREATE
 40
2460652.710050255
  9
$TDUCREATE
 40
2460652.480883588
  9
$TDUPDATE
 40
2460652.710050382
  9
$TDUUPDATE
 40
2460652.480883715
  9
$TDINDWG
 40
0.0000000116
  9
$TDUSRTIMER
 40
0.0000000116
  9
$USRTIMER
 70
     1
  9
$ANGBASE
 50
0.0
  9
$ANGDIR
 70
     0
  9
$PDMODE
 70
     0
  9
$PDSIZE
 40
0.0
  9
$PLINEWID
 40
0.0
  9
$SPLFRAME
 70
     0
  9
$SPLINETYPE
 70
     6
  9
$SPLINESEGS
 70
     8
  9
$HANDSEED
  5
DE
  9
$SURFTAB1
 70
     6
  9
$SURFTAB2
 70
     6
  9
$SURFTYPE
 70
     6
  9
$SURFU
 70
     6
  9
$SURFV
 70
     6
  9
$UCSBASE
  2

  9
$UCSNAME
  2

  9
$UCSORG
 10
0.0
 20
0.0
 30
0.0
  9
$UCSXDIR
 10
1.0
 20
0.0
 30
0.0
  9
$UCSYDIR
 10
0.0
 20
1.0
 30
0.0
  9
$UCSORTHOREF
  2

  9
$UCSORTHOVIEW
 70
     0
  9
$UCSORGTOP
 10
0.0
 20
0.0
 30
0.0
  9
$UCSORGBOTTOM
 10
0.0
 20
0.0
 30
0.0
  9
$UCSORGLEFT
 10
0.0
 20
0.0
 30
0.0
  9
$UCSORGRIGHT
 10
0.0
 20
0.0
 30
0.0
  9
$UCSORGFRONT
 10
0.0
 20
0.0
 30
0.0
  9
$UCSORGBACK
 10
0.0
 20
0.0
 30
0.0
  9
$PUCSBASE
  2

  9
$PUCSNAME
  2

  9
$PUCSORG
 10
0.0
 20
0.0
 30
0.0
  9
$PUCSXDIR
 10
1.0
 20
0.0
 30
0.0
  9
$PUCSYDIR
 10
0.0
 20
1.0
 30
0.0
  9
$PUCSORTHOREF
  2

  9
$PUCSORTHOVIEW
 70
     0
  9
$PUCSORGTOP
 10
0.0
 20
0.0
 30
0.0
  9
$PUCSORGBOTTOM
 10
0.0
 20
0.0
 30
0.0
  9
$PUCSORGLEFT
 10
0.0
 20
0.0
 30
0.0
  9
$PUCSORGRIGHT
 10
0.0
 20
0.0
 30
0.0
  9
$PUCSORGFRONT
 10
0.0
 20
0.0
 30
0.0
  9
$PUCSORGBACK
 10
0.0
 20
0.0
 30
0.0
  9
$USERI1
 70
     0
  9
$USERI2
 70
     0
  9
$USERI3
 70
     0
  9
$USERI4
 70
     0
  9
$USERI5
 70
     0
  9
$USERR1
 40
0.0
  9
$USERR2
 40
0.0
  9
$USERR3
 40
0.0
  9
$USERR4
 40
0.0
  9
$USERR5
 40
0.0
  9
$WORLDVIEW
 70
     1
  9
$SHADEDGE
 70
     3
  9
$SHADEDIF
 70
    70
  9
$TILEMODE
 70
     1
  9
$MAXACTVP
 70
    64
  9
$PINSBASE
 10
0.0
 20
0.0
 30
0.0
  9
$PLIMCHECK
 70
     0
  9
$PEXTMIN
 10
1.000000000000000E+20
 20
1.000000000000000E+20
 30
1.000000000000000E+20
  9
$PEXTMAX
 10
-1.000000000000000E+20
 20
-1.000000000000000E+20
 30
-1.000000000000000E+20
  9
$PLIMMIN
 10
0.0
 20
0.0
  9
$PLIMMAX
 10
12.0
 20
9.0
  9
$UNITMODE
 70
     0
  9
$VISRETAIN
 70
     1
  9
$PLINEGEN
 70
     0
  9
$PSLTSCALE
 70
     1
  9
$TREEDEPTH
 70
  3020
  9
$CMLSTYLE
  2
Standard
  9
$CMLJUST
 70
     0
  9
$CMLSCALE
 40
1.0
  9
$PROXYGRAPHICS
 70
     1
  9
$MEASUREMENT
 70
     0
  9
$CELWEIGHT
370
    -1
  9
$ENDCAPS
280
     0
  9
$JOINSTYLE
280
     0
  9
$LWDISPLAY
290
     0
  9
$INSUNITS
 70
     4
  9
$HYPERLINKBASE
  1

  9
$STYLESHEET
  1

  9
$XEDIT
290
     1
  9
$CEPSNTYPE
380
     0
  9
$PSTYLEMODE
290
     1
  9
$FINGERPRINTGUID
  2
{3d012235-64f3-4458-8020-76c26a67e3cc}
  9
$VERSIONGUID
  2
{FAEB1C32-E019-11D5-929B-00C0DF256EC4}
  9
$EXTNAMES
290
     1
  9
$PSVPSCALE
 40
0.0
  9
$OLESTARTUP
290
     0
  9
$SORTENTS
280
   127
  9
$INDEXCTL
280
     0
  9
$HIDETEXT
280
     1
  9
$XCLIPFRAME
280
     2
  9
$HALOGAP
280
     0
  9
$OBSCOLOR
 70
   257
  9
$OBSLTYPE
280
     0
  9
$INTERSECTIONDISPLAY
280
     0
  9
$INTERSECTIONCOLOR
 70
   257
  9
$DIMASSOC
280
     2
  9
$PROJECTNAME
  1

  9
$CAMERADISPLAY
290
     0
  9
$LENSLENGTH
 40
50.0
  9
$CAMERAHEIGHT
 40
0.0
  9
$STEPSPERSEC
 40
2.0
  9
$STEPSIZE
 40
6.0
  9
$3DDWFPREC
 40
2.0
  9
$PSOLWIDTH
 40
0.25
  9
$PSOLHEIGHT
 40
4.0
  9
$LOFTANG1
 40
1.570796326794897
  9
$LOFTANG2
 40
1.570796326794897
  9
$LOFTMAG1
 40
0.0
  9
$LOFTMAG2
 40
0.0
  9
$LOFTPARAM
 70
     7
  9
$LOFTNORMALS
280
     1
  9
$LATITUDE
 40
37.795
  9
$LONGITUDE
 40
-122.394
  9
$NORTHDIRECTION
 40
0.0
  9
$TIMEZONE
 70
 -8000
  9
$LIGHTGLYPHDISPLAY
280
     1
  9
$TILEMODELIGHTSYNCH
280
     1
  9
$CMATERIAL
347
44
  9
$SOLIDHIST
280
     0
  9
$SHOWHIST
280
     1
  9
$DWFFRAME
280
     2
  9
$DGNFRAME
280
     2
  9
$REALWORLDSCALE
290
     1
  9
$INTERFERECOLOR
 62
   256
  9
$CSHADOW
280
     0
  9
$SHADOWPLANELOCATION
 40
0.0
  0
ENDSEC
  0
SECTION
  2
CLASSES
  0
CLASS
  1
ACDBDICTIONARYWDFLT
  2
AcDbDictionaryWithDefault
  3
ObjectDBX Classes
 90
        0
 91
        3
280
     0
281
     0
  0
CLASS
  1
VISUALSTYLE
  2
AcDbVisualStyle
  3
ObjectDBX Classes
 90
     4095
 91
        3
280
     0
281
     0
  0
CLASS
  1
MATERIAL
  2
AcDbMaterial
  3
ObjectDBX Classes
 90
     1153
 91
        3
280
     0
281
     0
  0
CLASS
  1
SCALE
  2
AcDbScale
  3
ObjectDBX Classes
 90
     1153
 91
        3
280
     0
281
     0
  0
CLASS
  1
TABLESTYLE
  2
AcDbTableStyle
  3
ObjectDBX Classes
 90
     4095
 91
        3
280
     0
281
     0
  0
CLASS
  1
MLEADERSTYLE
  2
AcDbMLeaderStyle
  3
ACDB_MLEADERSTYLE_CLASS
 90
     4095
 91
        3
280
     0
281
     0
  0
CLASS
  1
SUN
  2
AcDbSun
  3
SCENEOE
 90
     1153
 91
        3
280
     0
281
     0
  0
CLASS
  1
DICTIONARYVAR
  2
AcDbDictionaryVar
  3
ObjectDBX Classes
 90
        0
 91
        3
280
     0
281
     0
  0
CLASS
  1
CELLSTYLEMAP
  2
AcDbCellStyleMap
  3
ObjectDBX Classes
 90
     1152
 91
        3
280
     0
281
     0
  0
ENDSEC
  0
SECTION
  2
TABLES
  0
TABLE
  2
VPORT
  5
8
330
0
100
AcDbSymbolTable
 70
     1
  0
VPORT
  5
29
330
8
100
AcDbSymbolTableRecord
100
AcDbViewportTableRecord
  2
*Active
 70
     0
 10
0.0
 20
0.0
 11
1.0
 21
1.0
 12
10.42990654205607
 22
4.5
 13
0.0
 23
0.0
 14
0.5
 24
0.5
 15
0.5
 25
0.5
 16
0.0
 26
0.0
 36
1.0
 17
0.0
 27
0.0
 37
0.0
 40
9.0
 41
1.972972972850329
 42
50.0
 43
0.0
 44
0.0
 50
0.0
 51
0.0
 71
     0
 72
   100
 73
     1
 74
     3
 75
     0
 76
     0
 77
     0
 78
     0
281
     0
 65
     1
110
0.0
120
0.0
130
0.0
111
1.0
121
0.0
131
0.0
112
0.0
122
1.0
132
0.0
 79
     0
146
0.0
348
2F
 60
     3
 61
     5
292
     1
282
     1
141
0.0
142
0.0
 63
   250
361
5D
  0
ENDTAB
  0
TABLE
  2
LTYPE
  5
5
330
0
100
AcDbSymbolTable
 70
     1
  0
LTYPE
  5
14
330
5
100
AcDbSymbolTableRecord
100
AcDbLinetypeTableRecord
  2
ByBlock
 70
     0
  3

 72
    65
 73
     0
 40
0.0
  0
LTYPE
  5
15
330
5
100
AcDbSymbolTableRecord
100
AcDbLinetypeTableRecord
  2
ByLayer
 70
     0
  3

 72
    65
 73
     0
 40
0.0
  0
LTYPE
  5
16
330
5
100
AcDbSymbolTableRecord
100
AcDbLinetypeTableRecord
  2
Continuous
 70
     0
  3
Solid line
 72
    65
 73
     0
 40
0.0
  0
ENDTAB
  0
TABLE
  2
LAYER
  5
2
330
0
100
AcDbSymbolTable
 70
     2
  0
LAYER
  5
10
330
2
100
AcDbSymbolTableRecord
100
AcDbLayerTableRecord
  2
0
 70
     0
 62
     7
  6
Continuous
370
    -3
390
F
347
46
348
0
  0
LAYER
  5
5F
330
2
100
AcDbSymbolTableRecord
100
AcDbLayerTableRecord
  2
Layer 1
 70
     0
 62
     7
  6
Continuous
370
    -3
390
F
347
46
348
0
  0
ENDTAB
  0
TABLE
  2
STYLE
  5
3
330
0
100
AcDbSymbolTable
 70
     1
  0
STYLE
  5
11
330
3
100
AcDbSymbolTableRecord
100
AcDbTextStyleTableRecord
  2
Standard
 70
     0
 40
0.0
 41
1.0
 50
0.0
 71
     0
 42
0.2
  3
txt
  4

  0
ENDTAB
  0
TABLE
  2
VIEW
  5
6
330
0
100
AcDbSymbolTable
 70
     0
  0
ENDTAB
  0
TABLE
  2
UCS
  5
7
330
0
100
AcDbSymbolTable
 70
     0
  0
ENDTAB
  0
TABLE
  2
APPID
  5
9
330
0
100
AcDbSymbolTable
 70
     2
  0
APPID
  5
12
330
9
100
AcDbSymbolTableRecord
100
AcDbRegAppTableRecord
  2
ACAD
 70
     0
  0
APPID
  5
5E
330
9
100
AcDbSymbolTableRecord
100
AcDbRegAppTableRecord
  2
ODA
 70
     0
  0
ENDTAB
  0
TABLE
  2
DIMSTYLE
  5
A
330
0
100
AcDbSymbolTable
 70
     1
100
AcDbDimStyleTable
  0
DIMSTYLE
105
27
330
A
100
AcDbSymbolTableRecord
100
AcDbDimStyleTableRecord
  2
Standard
 70
     0
178
     0
340
11
  0
ENDTAB
  0
TABLE
  2
BLOCK_RECORD
  5
1
330
0
100
AcDbSymbolTable
 70
     1
  0
BLOCK_RECORD
  5
1F
330
1
100
AcDbSymbolTableRecord
100
AcDbBlockTableRecord
  2
*Model_Space
340
22
 70
     0
280
     1
281
     0
  0
BLOCK_RECORD
  5
1B
330
1
100
AcDbSymbolTableRecord
100
AcDbBlockTableRecord
  2
*Paper_Space
340
1E
 70
     0
280
     1
281
     0
  0
BLOCK_RECORD
  5
23
330
1
100
AcDbSymbolTableRecord
100
AcDbBlockTableRecord
  2
*Paper_Space0
340
26
 70
     0
280
     1
281
     0
  0
ENDTAB
  0
ENDSEC
  0
SECTION
  2
BLOCKS
  0
BLOCK
  5
20
330
1F
100
AcDbEntity
  8
0
100
AcDbBlockBegin
  2
*Model_Space
 70
     0
 10
0.0
 20
0.0
 30
0.0
  3
*Model_Space
  1

  0
ENDBLK
  5
21
330
1F
100
AcDbEntity
  8
0
100
AcDbBlockEnd
  0
BLOCK
  5
1C
330
1B
100
AcDbEntity
 67
     1
  8
0
100
AcDbBlockBegin
  2
*Paper_Space
 70
     0
 10
0.0
 20
0.0
 30
0.0
  3
*Paper_Space
  1

  0
ENDBLK
  5
1D
330
1B
100
AcDbEntity
 67
     1
  8
0
100
AcDbBlockEnd
  0
BLOCK
  5
24
330
23
100
AcDbEntity
  8
0
100
AcDbBlockBegin
  2
*Paper_Space0
 70
     0
 10
0.0
 20
0.0
 30
0.0
  3
*Paper_Space0
  1

  0
ENDBLK
  5
25
330
23
100
AcDbEntity
  8
0
100
AcDbBlockEnd
  0
ENDSEC
  0
SECTION
  2
ENTITIES
  0
SPLINE
  5
60
330
1F
100
AcDbEntity
  8
Layer 1
 62
   250
370
    20
100
AcDbSpline
210
0.0
220
0.0
230
1.0
 70
    11
 71
     3
 72
    17
 73
    13
 74
     0
 42
0.0000000001
 43
0.0000000001
 40
0.0
 40
0.0
 40
0.0
 40
0.0
 40
0.25
 40
0.25
 40
0.25
 40
0.5
 40
0.5
 40
0.5
 40
0.75
 40
0.75
 40
0.75
 40
1.0
 40
1.0
 40
1.0
 40
1.0
 10
-404.422
 20
244.4562
 30
0.0
 10
-404.422
 20
279.7193
 30
0.0
 10
-361.1695
 20
308.4804
 30
0.0
 10
-308.1302
 20
308.4804
 30
0.0
 10
-255.0988
 20
308.4804
 30
0.0
 10
-211.8384
 20
279.7193
 30
0.0
 10
-211.8384
 20
244.4508
 30
0.0
 10
-211.8384
 20
209.1878
 30
0.0
 10
-255.0988
 20
180.4321
 30
0.0
 10
-308.1302
 20
180.4321
 30
0.0
 10
-361.1695
 20
180.4321
 30
0.0
 10
-404.422
 20
209.1878
 30
0.0
 10
-404.422
 20
244.4562
 30
0.0
  0
SPLINE
  5
61
330
1F
100
AcDbEntity
  8
Layer 1
 62
   250
370
    20
100
AcDbSpline
210
0.0
220
0.0
230
1.0
 70
    11
 71
     3
 72
    29
 73
    25
 74
     0
 42
0.0000000001
 43
0.0000000001
 40
0.0
 40
0.0
 40
0.0
 40
0.0
 40
0.125
 40
0.125
 40
0.125
 40
0.25
 40
0.25
 40
0.25
 40
0.375
 40
0.375
 40
0.375
 40
0.5
 40
0.5
 40
0.5
 40
0.625
 40
0.625
 40
0.625
 40
0.75
 40
0.75
 40
0.75
 40
0.875
 40
0.875
 40
0.875
 40
1.0
 40
1.0
 40
1.0
 40
1.0
 10
-1200.05
 20
117.1328
 30
0.0
 10
-1200.05
 20
117.1328
 30
0.0
 10
-1200.05
 20
119.6427
 30
0.0
 10
-1200.05
 20
119.6427
 30
0.0
 10
-1200.05
 20
119.6427
 30
0.0
 10
-1113.7157
 20
177.0513
 30
0.0
 10
-1113.7157
 20
177.0513
 30
0.0
 10
-1064.8053
 20
156.2743
 30
0.0
 10
-1017.3152
 20
153.8293
 30
0.0
 10
-959.3632
 20
178.1764
 30
0.0
 10
-959.3632
 20
178.1764
 30
0.0
 10
-867.7746
 20
113.8873
 30
0.0
 10
-867.7746
 20
113.8873
 30
0.0
 10
-867.7746
 20
113.8873
 30
0.0
 10
-954.2719
 20
57.4956
 30
0.0
 10
-954.2719
 20
57.4956
 30
0.0
 10
-954.2719
 20
57.4956
 30
0.0
 10
-1027.2184
 20
102.6089
 30
0.0
 10
-1027.2184
 20
102.6089
 30
0.0
 10
-1027.2184
 20
102.6089
 30
0.0
 10
-1103.5332
 20
51.8537
 30
0.0
 10
-1103.5332
 20
51.8537
 30
0.0
 10
-1103.5332
 20
51.8537
 30
0.0
 10
-1200.05
 20
117.1328
 30
0.0
 10
-1200.05
 20
117.1328
 30
0.0
  0
SPLINE
  5
62
330
1F
100
AcDbEntity
  8
Layer 1
 62
   250
370
    20
100
AcDbSpline
210
0.0
220
0.0
230
1.0
 70
    11
 71
     3
 72
    17
 73
    13
 74
     0
 42
0.0000000001
 43
0.0000000001
 40
0.0
 40
0.0
 40
0.0
 40
0.0
 40
0.25
 40
0.25
 40
0.25
 40
0.5
 40
0.5
 40
0.5
 40
0.75
 40
0.75
 40
0.75
 40
1.0
 40
1.0
 40
1.0
 40
1.0
 10
-1200.05
 20
141.3934
 30
0.0
 10
-1200.05
 20
141.3934
 30
0.0
 10
-1200.05
 20
339.7405
 30
0.0
 10
-1200.05
 20
339.7405
 30
0.0
 10
-1200.05
 20
339.7405
 30
0.0
 10
-1135.7728
 20
298.8518
 30
0.0
 10
-1135.7728
 20
298.8518
 30
0.0
 10
-1172.6534
 20
266.2448
 30
0.0
 10
-1178.6061
 20
226.9626
 30
0.0
 10
-1134.0653
 20
188.3296
 30
0.0
 10
-1134.0653
 20
188.3296
 30
0.0
 10
-1200.05
 20
141.3934
 30
0.0
 10
-1200.05
 20
141.3934
 30
0.0
  0
SPLINE
  5
63
330
1F
100
AcDbEntity
  8
Layer 1
 62
   250
370
    20
100
AcDbSpline
210
0.0
220
0.0
230
1.0
 70
    11
 71
     3
 72
    20
 73
    16
 74
     0
 42
0.0000000001
 43
0.0000000001
 40
0.0
 40
0.0
 40
0.0
 40
0.0
 40
0.2
 40
0.2
 40
0.2
 40
0.4
 40
0.4
 40
0.4
 40
0.6000000000000001
 40
0.6000000000000001
 40
0.6000000000000001
 40
0.8
 40
0.8
 40
0.8
 40
1.0
 40
1.0
 40
1.0
 40
1.0
 10
-1200.05
 20
389.1542
 30
0.0
 10
-1200.05
 20
389.1542
 30
0.0
 10
-1200.0422
 20
565.4748
 30
0.0
 10
-1200.0422
 20
565.4748
 30
0.0
 10
-1200.0422
 20
565.4748
 30
0.0
 10
-1128.9818
 20
525.5544
 30
0.0
 10
-1128.9818
 20
525.5544
 30
0.0
 10
-1128.9818
 20
525.5544
 30
0.0
 10
-1195.1217
 20
484.9524
 30
0.0
 10
-1195.1217
 20
484.9524
 30
0.0
 10
-1195.1217
 20
484.9524
 30
0.0
 10
-1123.8905
 20
443.2199
 30
0.0
 10
-1123.8905
 20
443.2199
 30
0.0
 10
-1123.8905
 20
443.2199
 30
0.0
 10
-1200.05
 20
389.1542
 30
0.0
 10
-1200.05
 20
389.1542
 30
0.0
  0
SPLINE
  5
64
330
1F
100
AcDbEntity
  8
Layer 1
 62
   250
370
    20
100
AcDbSpline
210
0.0
220
0.0
230
1.0
 70
    11
 71
     3
 72
    14
 73
    10
 74
     0
 42
0.0000000001
 43
0.0000000001
 40
0.0
 40
0.0
 40
0.0
 40
0.0
 40
0.3333333333333333
 40
0.3333333333333333
 40
0.3333333333333333
 40
0.6666666666666666
 40
0.6666666666666666
 40
0.6666666666666666
 40
1.0
 40
1.0
 40
1.0
 40
1.0
 10
-1169.4404
 20
589.9734
 30
0.0
 10
-1169.4404
 20
589.9734
 30
0.0
 10
-1038.5729
 20
589.9734
 30
0.0
 10
-1038.5729
 20
589.9734
 30
0.0
 10
-1038.5729
 20
589.9734
 30
0.0
 10
-1101.8412
 20
545.8554
 30
0.0
 10
-1101.8412
 20
545.8554
 30
0.0
 10
-1101.8412
 20
545.8554
 30
0.0
 10
-1169.4404
 20
589.9734
 30
0.0
 10
-1169.4404
 20
589.9734
 30
0.0
  0
SPLINE
  5
65
330
1F
100
AcDbEntity
  8
Layer 1
 62
   250
370
    20
100
AcDbSpline
210
0.0
220
0.0
230
1.0
 70
    11
 71
     3
 72
    14
 73
    10
 74
     0
 42
0.0000000001
 43
0.0000000001
 40
0.0
 40
0.0
 40
0.0
 40
0.0
 40
0.3333333333333333
 40
0.3333333333333333
 40
0.3333333333333333
 40
0.6666666666666666
 40
0.6666666666666666
 40
0.6666666666666666
 40
1.0
 40
1.0
 40
1.0
 40
1.0
 10
-1025.5264
 20
589.9734
 30
0.0
 10
-1025.5264
 20
589.9734
 30
0.0
 10
-916.4211
 20
589.9734
 30
0.0
 10
-916.4211
 20
589.9734
 30
0.0
 10
-916.4211
 20
589.9734
 30
0.0
 10
-971.2376
 20
554.878
 30
0.0
 10
-971.2376
 20
554.878
 30
0.0
 10
-971.2376
 20
554.878
 30
0.0
 10
-1025.5264
 20
589.9734
 30
0.0
 10
-1025.5264
 20
589.9734
 30
0.0
  0
SPLINE
  5
66
330
1F
100
AcDbEntity
  8
Layer 1
 62
   250
370
    20
100
AcDbSpline
210
0.0
220
0.0
230
1.0
 70
    11
 71
     3
 72
    29
 73
    25
 74
     0
 42
0.0000000001
 43
0.0000000001
 40
0.0
 40
0.0
 40
0.0
 40
0.0
 40
0.125
 40
0.125
 40
0.125
 40
0.25
 40
0.25
 40
0.25
 40
0.375
 40
0.375
 40
0.375
 40
0.5
 40
0.5
 40
0.5
 40
0.625
 40
0.625
 40
0.625
 40
0.75
 40
0.75
 40
0.75
 40
0.875
 40
0.875
 40
0.875
 40
1.0
 40
1.0
 40
1.0
 40
1.0
 10
-869.3423
 20
589.9734
 30
0.0
 10
-869.3423
 20
589.9734
 30
0.0
 10
-848.7134
 20
589.9734
 30
0.0
 10
-848.7134
 20
589.9734
 30
0.0
 10
-848.7134
 20
589.9734
 30
0.0
 10
-769.8296
 20
541.7227
 30
0.0
 10
-769.8296
 20
541.7227
 30
0.0
 10
-809.9699
 20
510.3922
 30
0.0
 10
-805.5074
 20
464.9435
 30
0.0
 10
-772.1424
 20
438.4976
 30
0.0
 10
-772.1424
 20
438.4976
 30
0.0
 10
-860.0445
 20
381.0078
 30
0.0
 10
-860.0445
 20
381.0078
 30
0.0
 10
-860.0445
 20
381.0078
 30
0.0
 10
-947.8147
 20
438.4218
 30
0.0
 10
-947.8147
 20
438.4218
 30
0.0
 10
-947.8147
 20
438.4218
 30
0.0
 10
-875.7064
 20
486.4562
 30
0.0
 10
-875.7064
 20
486.4562
 30
0.0
 10
-875.7064
 20
486.4562
 30
0.0
 10
-946.1227
 20
536.9193
 30
0.0
 10
-946.1227
 20
536.9193
 30
0.0
 10
-946.1227
 20
536.9193
 30
0.0
 10
-869.3423
 20
589.9734
 30
0.0
 10
-869.3423
 20
589.9734
 30
0.0
  0
SPLINE
  5
67
330
1F
100
AcDbEntity
  8
Layer 1
 62
   250
370
    20
100
AcDbSpline
210
0.0
220
0.0
230
1.0
 70
    11
 71
     3
 72
    17
 73
    13
 74
     0
 42
0.0000000001
 43
0.0000000001
 40
0.0
 40
0.0
 40
0.0
 40
0.0
 40
0.25
 40
0.25
 40
0.25
 40
0.5
 40
0.5
 40
0.5
 40
0.75
 40
0.75
 40
0.75
 40
1.0
 40
1.0
 40
1.0
 40
1.0
 10
-807.8823
 20
589.9734
 30
0.0
 10
-807.8823
 20
589.9734
 30
0.0
 10
-552.7443
 20
589.9734
 30
0.0
 10
-552.7443
 20
589.9734
 30
0.0
 10
-552.7443
 20
589.9734
 30
0.0
 10
-604.2469
 20
556.4197
 30
0.0
 10
-604.2469
 20
556.4197
 30
0.0
 10
-662.1911
 20
580.7668
 30
0.0
 10
-703.6663
 20
572.9883
 30
0.0
 10
-752.5845
 20
552.2113
 30
0.0
 10
-752.5845
 20
552.2113
 30
0.0
 10
-807.8823
 20
589.9734
 30
0.0
 10
-807.8823
 20
589.9734
 30
0.0
  0
SPLINE
  5
68
330
1F
100
AcDbEntity
  8
Layer 1
 62
   250
370
    20
100
AcDbSpline
210
0.0
220
0.0
230
1.0
 70
    11
 71
     3
 72
    14
 73
    10
 74
     0
 42
0.0000000001
 43
0.0000000001
 40
0.0
 40
0.0
 40
0.0
 40
0.0
 40
0.3333333333333333
 40
0.3333333333333333
 40
0.3333333333333333
 40
0.6666666666666666
 40
0.6666666666666666
 40
0.6666666666666666
 40
1.0
 40
1.0
 40
1.0
 40
1.0
 10
-447.3177
 20
589.9734
 30
0.0
 10
-447.3177
 20
589.9734
 30
0.0
 10
-308.1225
 20
589.9734
 30
0.0
 10
-308.1225
 20
589.9734
 30
0.0
 10
-308.1225
 20
589.9734
 30
0.0
 10
-389.451
 20
551.4972
 30
0.0
 10
-389.451
 20
551.4972
 30
0.0
 10
-389.451
 20
551.4972
 30
0.0
 10
-447.3177
 20
589.9734
 30
0.0
 10
-447.3177
 20
589.9734
 30
0.0
  0
SPLINE
  5
69
330
1F
100
AcDbEntity
  8
Layer 1
 62
   250
370
    20
100
AcDbSpline
210
0.0
220
0.0
230
1.0
 70
    11
 71
     3
 72
    14
 73
    10
 74
     0
 42
0.0000000001
 43
0.0000000001
 40
0.0
 40
0.0
 40
0.0
 40
0.0
 40
0.3333333333333333
 40
0.3333333333333333
 40
0.3333333333333333
 40
0.6666666666666666
 40
0.6666666666666666
 40
0.6666666666666666
 40
1.0
 40
1.0
 40
1.0
 40
1.0
 10
-296.5041
 20
589.9734
 30
0.0
 10
-296.5041
 20
589.9734
 30
0.0
 10
-189.0984
 20
589.9734
 30
0.0
 10
-189.0984
 20
589.9734
 30
0.0
 10
-189.0984
 20
589.9734
 30
0.0
 10
-243.5813
 20
553.7529
 30
0.0
 10
-243.5813
 20
553.7529
 30
0.0
 10
-243.5813
 20
553.7529
 30
0.0
 10
-296.5041
 20
589.9734
 30
0.0
 10
-296.5041
 20
589.9734
 30
0.0
  0
SPLINE
  5
6A
330
1F
100
AcDbEntity
  8
Layer 1
 62
   250
370
    20
100
AcDbSpline
210
0.0
220
0.0
230
1.0
 70
    11
 71
     3
 72
    29
 73
    25
 74
     0
 42
0.0000000001
 43
0.0000000001
 40
0.0
 40
0.0
 40
0.0
 40
0.0
 40
0.125
 40
0.125
 40
0.125
 40
0.25
 40
0.25
 40
0.25
 40
0.375
 40
0.375
 40
0.375
 40
0.5
 40
0.5
 40
0.5
 40
0.625
 40
0.625
 40
0.625
 40
0.75
 40
0.75
 40
0.75
 40
0.875
 40
0.875
 40
0.875
 40
1.0
 40
1.0
 40
1.0
 40
1.0
 10
-141.0108
 20
589.9734
 30
0.0
 10
-141.0108
 20
589.9734
 30
0.0
 10
-111.2314
 20
589.9734
 30
0.0
 10
-111.2314
 20
589.9734
 30
0.0
 10
-111.2314
 20
589.9734
 30
0.0
 10
-45.1225
 20
541.3441
 30
0.0
 10
-45.1225
 20
541.3441
 30
0.0
 10
-81.7393
 20
502.8084
 30
0.0
 10
-74.6767
 20
470.0985
 30
0.0
 10
-43.4384
 20
437.578
 30
0.0
 10
-43.4384
 20
437.578
 30
0.0
 10
-126.5519
 20
380.0612
 30
0.0
 10
-126.5519
 20
380.0612
 30
0.0
 10
-126.5519
 20
380.0612
 30
0.0
 10
-219.8401
 20
440.9642
 30
0.0
 10
-219.8401
 20
440.9642
 30
0.0
 10
-219.8401
 20
440.9642
 30
0.0
 10
-146.9014
 20
486.0775
 30
0.0
 10
-146.9014
 20
486.0775
 30
0.0
 10
-146.9014
 20
486.0775
 30
0.0
 10
-224.9315
 20
537.9633
 30
0.0
 10
-224.9315
 20
537.9633
 30
0.0
 10
-224.9315
 20
537.9633
 30
0.0
 10
-141.0108
 20
589.9734
 30
0.0
 10
-141.0108
 20
589.9734
 30
0.0
  0
SPLINE
  5
6B
330
1F
100
AcDbEntity
  8
Layer 1
 62
   250
370
    20
100
AcDbSpline
210
0.0
220
0.0
230
1.0
 70
    11
 71
     3
 72
    17
 73
    13
 74
     0
 42
0.0000000001
 43
0.0000000001
 40
0.0
 40
0.0
 40
0.0
 40
0.0
 40
0.25
 40
0.25
 40
0.25
 40
0.5
 40
0.5
 40
0.5
 40
0.75
 40
0.75
 40
0.75
 40
1.0
 40
1.0
 40
1.0
 40
1.0
 10
-83.7494
 20
589.9734
 30
0.0
 10
-83.7494
 20
589.9734
 30
0.0
 10
176.8446
 20
589.9734
 30
0.0
 10
176.8446
 20
589.9734
 30
0.0
 10
176.8446
 20
589.9734
 30
0.0
 10
133.9258
 20
556.4197
 30
0.0
 10
133.9258
 20
556.4197
 30
0.0
 10
75.9737
 20
580.7668
 30
0.0
 10
20.4586
 20
572.9883
 30
0.0
 10
-28.4439
 20
552.2113
 30
0.0
 10
-28.4439
 20
552.2113
 30
0.0
 10
-83.7494
 20
589.9734
 30
0.0
 10
-83.7494
 20
589.9734
 30
0.0
  0
SPLINE
  5
6C
330
1F
100
AcDbEntity
  8
Layer 1
 62
   250
370
    20
100
AcDbSpline
210
0.0
220
0.0
230
1.0
 70
    11
 71
     3
 72
    20
 73
    16
 74
     0
 42
0.0000000001
 43
0.0000000001
 40
0.0
 40
0.0
 40
0.0
 40
0.0
 40
0.2
 40
0.2
 40
0.2
 40
0.4
 40
0.4
 40
0.4
 40
0.6000000000000001
 40
0.6000000000000001
 40
0.6000000000000001
 40
0.8
 40
0.8
 40
0.8
 40
1.0
 40
1.0
 40
1.0
 40
1.0
 10
267.37
 20
589.9734
 30
0.0
 10
267.37
 20
589.9734
 30
0.0
 10
529.7258
 20
589.9734
 30
0.0
 10
529.7258
 20
589.9734
 30
0.0
 10
529.7258
 20
589.9734
 30
0.0
 10
480.5438
 20
551.0861
 30
0.0
 10
480.5438
 20
551.0861
 30
0.0
 10
480.5438
 20
551.0861
 30
0.0
 10
416.8563
 20
589.2215
 30
0.0
 10
416.8563
 20
589.2215
 30
0.0
 10
416.8563
 20
589.2215
 30
0.0
 10
342.7068
 20
540.8247
 30
0.0
 10
342.7068
 20
540.8247
 30
0.0
 10
342.7068
 20
540.8247
 30
0.0
 10
267.37
 20
589.9734
 30
0.0
 10
267.37
 20
589.9734
 30
0.0
  0
SPLINE
  5
6D
330
1F
100
AcDbEntity
  8
Layer 1
 62
   250
370
    20
100
AcDbSpline
210
0.0
220
0.0
230
1.0
 70
    11
 71
     3
 72
    29
 73
    25
 74
     0
 42
0.0000000001
 43
0.0000000001
 40
0.0
 40
0.0
 40
0.0
 40
0.0
 40
0.125
 40
0.125
 40
0.125
 40
0.25
 40
0.25
 40
0.25
 40
0.375
 40
0.375
 40
0.375
 40
0.5
 40
0.5
 40
0.5
 40
0.625
 40
0.625
 40
0.625
 40
0.75
 40
0.75
 40
0.75
 40
0.875
 40
0.875
 40
0.875
 40
1.0
 40
1.0
 40
1.0
 40
1.0
 10
580.6929
 20
589.9734
 30
0.0
 10
580.6929
 20
589.9734
 30
0.0
 10
610.899
 20
589.9734
 30
0.0
 10
610.899
 20
589.9734
 30
0.0
 10
610.899
 20
589.9734
 30
0.0
 10
676.9924
 20
541.3441
 30
0.0
 10
676.9924
 20
541.3441
 30
0.0
 10
640.3834
 20
502.8084
 30
0.0
 10
647.4537
 20
470.0985
 30
0.0
 10
678.6921
 20
437.578
 30
0.0
 10
678.6921
 20
437.578
 30
0.0
 10
595.5864
 20
380.0612
 30
0.0
 10
595.5864
 20
380.0612
 30
0.0
 10
595.5864
 20
380.0612
 30
0.0
 10
502.2903
 20
440.9642
 30
0.0
 10
502.2903
 20
440.9642
 30
0.0
 10
502.2903
 20
440.9642
 30
0.0
 10
575.2213
 20
488.7497
 30
0.0
 10
575.2213
 20
488.7497
 30
0.0
 10
575.2213
 20
488.7497
 30
0.0
 10
501.2115
 20
541.9607
 30
0.0
 10
501.2115
 20
541.9607
 30
0.0
 10
501.2115
 20
541.9607
 30
0.0
 10
580.6929
 20
589.9734
 30
0.0
 10
580.6929
 20
589.9734
 30
0.0
  0
SPLINE
  5
6E
330
1F
100
AcDbEntity
  8
Layer 1
 62
   250
370
    20
100
AcDbSpline
210
0.0
220
0.0
230
1.0
 70
    11
 71
     3
 72
    17
 73
    13
 74
     0
 42
0.0000000001
 43
0.0000000001
 40
0.0
 40
0.0
 40
0.0
 40
0.0
 40
0.25
 40
0.25
 40
0.25
 40
0.5
 40
0.5
 40
0.5
 40
0.75
 40
0.75
 40
0.75
 40
1.0
 40
1.0
 40
1.0
 40
1.0
 10
648.191
 20
589.9734
 30
0.0
 10
648.191
 20
589.9734
 30
0.0
 10
898.9751
 20
589.9734
 30
0.0
 10
898.9751
 20
589.9734
 30
0.0
 10
898.9751
 20
589.9734
 30
0.0
 10
856.064
 20
556.4197
 30
0.0
 10
856.064
 20
556.4197
 30
0.0
 10
798.1042
 20
580.7668
 30
0.0
 10
744.5992
 20
574.3136
 30
0.0
 10
695.6811
 20
553.542
 30
0.0
 10
695.6811
 20
553.542
 30
0.0
 10
648.191
 20
589.9734
 30
0.0
 10
648.191
 20
589.9734
 30
0.0
  0
SPLINE
  5
6F
330
1F
100
AcDbEntity
  8
Layer 1
 62
   250
370
    20
100
AcDbSpline
210
0.0
220
0.0
230
1.0
 70
    11
 71
     3
 72
    20
 73
    16
 74
     0
 42
0.0000000001
 43
0.0000000001
 40
0.0
 40
0.0
 40
0.0
 40
0.0
 40
0.2
 40
0.2
 40
0.2
 40
0.4
 40
0.4
 40
0.4
 40
0.6000000000000001
 40
0.6000000000000001
 40
0.6000000000000001
 40
0.8
 40
0.8
 40
0.8
 40
1.0
 40
1.0
 40
1.0
 40
1.0
 10
999.6907
 20
589.9734
 30
0.0
 10
999.6907
 20
589.9734
 30
0.0
 10
1196.5507
 20
589.9734
 30
0.0
 10
1196.5507
 20
589.9734
 30
0.0
 10
1196.5507
 20
589.9734
 30
0.0
 10
1196.5507
 20
560.8607
 30
0.0
 10
1196.5507
 20
560.8607
 30
0.0
 10
1196.5507
 20
560.8607
 30
0.0
 10
1149.1925
 20
589.2215
 30
0.0
 10
1149.1925
 20
589.2215
 30
0.0
 10
1149.1925
 20
589.2215
 30
0.0
 10
1075.0354
 20
540.8247
 30
0.0
 10
1075.0354
 20
540.8247
 30
0.0
 10
1075.0354
 20
540.8247
 30
0.0
 10
999.6907
 20
589.9734
 30
0.0
 10
999.6907
 20
589.9734
 30
0.0
  0
SPLINE
  5
70
330
1F
100
AcDbEntity
  8
Layer 1
 62
   250
370
    20
100
AcDbSpline
210
0.0
220
0.0
230
1.0
 70
    11
 71
     3
 72
    20
 73
    16
 74
     0
 42
0.0000000001
 43
0.0000000001
 40
0.0
 40
0.0
 40
0.0
 40
0.0
 40
0.2
 40
0.2
 40
0.2
 40
0.4
 40
0.4
 40
0.4
 40
0.6000000000000001
 40
0.6000000000000001
 40
0.6000000000000001
 40
0.8
 40
0.8
 40
0.8
 40
1.0
 40
1.0
 40
1.0
 40
1.0
 10
1196.5507
 20
525.3326
 30
0.0
 10
1196.5507
 20
525.3326
 30
0.0
 10
1196.5507
 20
448.7752
 30
0.0
 10
1196.5507
 20
448.7752
 30
0.0
 10
1196.5507
 20
448.7752
 30
0.0
 10
1140.5234
 20
413.7123
 30
0.0
 10
1140.5234
 20
413.7123
 30
0.0
 10
1140.5234
 20
413.7123
 30
0.0
 10
1021.802
 20
490.4104
 30
0.0
 10
1021.802
 20
490.4104
 30
0.0
 10
1021.802
 20
490.4104
 30
0.0
 10
1138.8392
 20
563.7222
 30
0.0
 10
1138.8392
 20
563.7222
 30
0.0
 10
1138.8392
 20
563.7222
 30
0.0
 10
1196.5507
 20
525.3326
 30
0.0
 10
1196.5507
 20
525.3326
 30
0.0
  0
SPLINE
  5
71
330
1F
100
AcDbEntity
  8
Layer 1
 62
   250
370
    20
100
AcDbSpline
210
0.0
220
0.0
230
1.0
 70
    11
 71
     3
 72
    26
 73
    22
 74
     0
 42
0.0000000001
 43
0.0000000001
 40
0.0
 40
0.0
 40
0.0
 40
0.0
 40
0.1428571428571428
 40
0.1428571428571428
 40
0.1428571428571428
 40
0.2857142857142857
 40
0.2857142857142857
 40
0.2857142857142857
 40
0.4285714285714285
 40
0.4285714285714285
 40
0.4285714285714285
 40
0.5714285714285714
 40
0.5714285714285714
 40
0.5714285714285714
 40
0.7142857142857142
 40
0.7142857142857142
 40
0.7142857142857142
 40
0.8571428571428571
 40
0.8571428571428571
 40
0.8571428571428571
 40
1.0
 40
1.0
 40
1.0
 40
1.0
 10
1196.5429
 20
423.3787
 30
0.0
 10
1196.5429
 20
423.3787
 30
0.0
 10
1196.5507
 20
317.4381
 30
0.0
 10
1196.5507
 20
317.4381
 30
0.0
 10
1145.7854
 20
335.0128
 30
0.0
 10
1103.9143
 20
330.35
 30
0.0
 10
1059.4743
 20
311.4663
 30
0.0
 10
1059.4743
 20
311.4663
 30
0.0
 10
972.9692
 20
370.119
 30
0.0
 10
972.9692
 20
370.119
 30
0.0
 10
972.9692
 20
370.119
 30
0.0
 10
1067.9495
 20
432.1471
 30
0.0
 10
1067.9495
 20
432.1471
 30
0.0
 10
1067.9495
 20
432.1471
 30
0.0
 10
1137.4889
 20
384.7781
 30
0.0
 10
1137.4889
 20
384.7781
 30
0.0
 10
1137.4889
 20
384.7781
 30
0.0
 10
1195.1615
 20
424.255
 30
0.0
 10
1195.1615
 20
424.255
 30
0.0
 10
1195.1615
 20
424.255
 30
0.0
 10
1196.5429
 20
423.3787
 30
0.0
 10
1196.5429
 20
423.3787
 30
0.0
  0
SPLINE
  5
72
330
1F
100
AcDbEntity
  8
Layer 1
 62
   250
370
    20
100
AcDbSpline
210
0.0
220
0.0
230
1.0
 70
    11
 71
     3
 72
    20
 73
    16
 74
     0
 42
0.0000000001
 43
0.0000000001
 40
0.0
 40
0.0
 40
0.0
 40
0.0
 40
0.2
 40
0.2
 40
0.2
 40
0.4
 40
0.4
 40
0.4
 40
0.6000000000000001
 40
0.6000000000000001
 40
0.6000000000000001
 40
0.8
 40
0.8
 40
0.8
 40
1.0
 40
1.0
 40
1.0
 40
1.0
 10
1196.5507
 20
296.8396
 30
0.0
 10
1196.5507
 20
296.8396
 30
0.0
 10
1196.5507
 20
197.4064
 30
0.0
 10
1196.5507
 20
197.4064
 30
0.0
 10
1179.9885
 20
188.4649
 30
0.0
 10
1158.925
 20
183.0988
 30
0.0
 10
1136.0065
 20
183.0988
 30
0.0
 10
1082.9827
 20
183.0988
 30
0.0
 10
1039.7224
 20
211.86
 30
0.0
 10
1039.7224
 20
247.123
 30
0.0
 10
1039.7146
 20
282.3914
 30
0.0
 10
1082.9827
 20
311.1525
 30
0.0
 10
1136.0065
 20
311.1525
 30
0.0
 10
1158.925
 20
311.1471
 30
0.0
 10
1179.9885
 20
305.7865
 30
0.0
 10
1196.5507
 20
296.8396
 30
0.0
  0
SPLINE
  5
73
330
1F
100
AcDbEntity
  8
Layer 1
 62
   250
370
    20
100
AcDbSpline
210
0.0
220
0.0
230
1.0
 70
    11
 71
     3
 72
    23
 73
    19
 74
     0
 42
0.0000000001
 43
0.0000000001
 40
0.0
 40
0.0
 40
0.0
 40
0.0
 40
0.1666666666666667
 40
0.1666666666666667
 40
0.1666666666666667
 40
0.3333333333333333
 40
0.3333333333333333
 40
0.3333333333333333
 40
0.5
 40
0.5
 40
0.5
 40
0.6666666666666666
 40
0.6666666666666666
 40
0.6666666666666666
 40
0.8333333333333333
 40
0.8333333333333333
 40
0.8333333333333333
 40
1.0
 40
1.0
 40
1.0
 40
1.0
 10
1196.5507
 20
176.0722
 30
0.0
 10
1196.5507
 20
176.0722
 30
0.0
 10
1196.5507
 20
69.9369
 30
0.0
 10
1196.5507
 20
69.9369
 30
0.0
 10
1196.5507
 20
69.9369
 30
0.0
 10
1144.8541
 20
105.9897
 30
0.0
 10
1144.8541
 20
105.9897
 30
0.0
 10
1144.8541
 20
105.9897
 30
0.0
 10
1068.5237
 20
55.2399
 30
0.0
 10
1068.5237
 20
55.2399
 30
0.0
 10
1068.5237
 20
55.2399
 30
0.0
 10
968.4523
 20
121.7848
 30
0.0
 10
968.4523
 20
121.7848
 30
0.0
 10
968.4523
 20
121.7848
 30
0.0
 10
1054.9574
 20
180.4375
 30
0.0
 10
1054.9574
 20
180.4375
 30
0.0
 10
1100.7091
 20
160.9965
 30
0.0
 10
1143.7365
 20
156.6259
 30
0.0
 10
1196.5507
 20
176.0722
 30
0.0
  0
SPLINE
  5
74
330
1F
100
AcDbEntity
  8
Layer 1
 62
   250
370
    20
100
AcDbSpline
210
0.0
220
0.0
230
1.0
 70
    11
 71
     3
 72
    20
 73
    16
 74
     0
 42
0.0000000001
 43
0.0000000001
 40
0.0
 40
0.0
 40
0.0
 40
0.0
 40
0.2
 40
0.2
 40
0.2
 40
0.4
 40
0.4
 40
0.4
 40
0.6000000000000001
 40
0.6000000000000001
 40
0.6000000000000001
 40
0.8
 40
0.8
 40
0.8
 40
1.0
 40
1.0
 40
1.0
 40
1.0
 10
1196.5507
 20
43.2151
 30
0.0
 10
1196.5507
 20
43.2151
 30
0.0
 10
1196.5507
 20
-45.578
 30
0.0
 10
1196.5507
 20
-45.578
 30
0.0
 10
1196.5507
 20
-45.578
 30
0.0
 10
1149.9919
 20
-75.7943
 30
0.0
 10
1149.9919
 20
-75.7943
 30
0.0
 10
1149.9919
 20
-75.7943
 30
0.0
 10
1031.255
 20
0.8984
 30
0.0
 10
1031.255
 20
0.8984
 30
0.0
 10
1031.255
 20
0.8984
 30
0.0
 10
1148.2922
 20
74.2102
 30
0.0
 10
1148.2922
 20
74.2102
 30
0.0
 10
1148.2922
 20
74.2102
 30
0.0
 10
1196.5507
 20
43.2151
 30
0.0
 10
1196.5507
 20
43.2151
 30
0.0
  0
SPLINE
  5
75
330
1F
100
AcDbEntity
  8
Layer 1
 62
   250
370
    20
100
AcDbSpline
210
0.0
220
0.0
230
1.0
 70
    11
 71
     3
 72
    29
 73
    25
 74
     0
 42
0.0000000001
 43
0.0000000001
 40
0.0
 40
0.0
 40
0.0
 40
0.0
 40
0.125
 40
0.125
 40
0.125
 40
0.25
 40
0.25
 40
0.25
 40
0.375
 40
0.375
 40
0.375
 40
0.5
 40
0.5
 40
0.5
 40
0.625
 40
0.625
 40
0.625
 40
0.75
 40
0.75
 40
0.75
 40
0.875
 40
0.875
 40
0.875
 40
1.0
 40
1.0
 40
1.0
 40
1.0
 10
614.1276
 20
-102.7919
 30
0.0
 10
614.1276
 20
-102.7919
 30
0.0
 10
579.4201
 20
-102.7919
 30
0.0
 10
579.4201
 20
-102.7919
 30
0.0
 10
579.4201
 20
-102.7919
 30
0.0
 10
505.1542
 20
-48.8398
 30
0.0
 10
505.1542
 20
-48.8398
 30
0.0
 10
505.1542
 20
-48.8398
 30
0.0
 10
583.6498
 20
-0.0266
 30
0.0
 10
583.6498
 20
-0.0266
 30
0.0
 10
583.6498
 20
-0.0266
 30
0.0
 10
512.8687
 20
48.5811
 30
0.0
 10
512.8687
 20
48.5811
 30
0.0
 10
512.8687
 20
48.5811
 30
0.0
 10
602.9051
 20
103.5339
 30
0.0
 10
602.9051
 20
103.5339
 30
0.0
 10
602.9051
 20
103.5339
 30
0.0
 10
678.9249
 20
51.6482
 30
0.0
 10
678.9249
 20
51.6482
 30
0.0
 10
642.3159
 20
13.1125
 30
0.0
 10
647.3838
 20
-23.5948
 30
0.0
 10
678.6223
 20
-56.1153
 30
0.0
 10
678.6223
 20
-56.1153
 30
0.0
 10
614.1276
 20
-102.7919
 30
0.0
 10
614.1276
 20
-102.7919
 30
0.0
  0
SPLINE
  5
76
330
1F
100
AcDbEntity
  8
Layer 1
 62
   250
370
    20
100
AcDbSpline
210
0.0
220
0.0
230
1.0
 70
    11
 71
     3
 72
    29
 73
    25
 74
     0
 42
0.0000000001
 43
0.0000000001
 40
0.0
 40
0.0
 40
0.0
 40
0.0
 40
0.125
 40
0.125
 40
0.125
 40
0.25
 40
0.25
 40
0.25
 40
0.375
 40
0.375
 40
0.375
 40
0.5
 40
0.5
 40
0.5
 40
0.625
 40
0.625
 40
0.625
 40
0.75
 40
0.75
 40
0.75
 40
0.875
 40
0.875
 40
0.875
 40
1.0
 40
1.0
 40
1.0
 40
1.0
 10
-106.1479
 20
-102.7919
 30
0.0
 10
-106.1479
 20
-102.7919
 30
0.0
 10
-144.542
 20
-102.7919
 30
0.0
 10
-144.542
 20
-102.7919
 30
0.0
 10
-144.542
 20
-102.7919
 30
0.0
 10
-216.9763
 20
-50.1706
 30
0.0
 10
-216.9763
 20
-50.1706
 30
0.0
 10
-216.9763
 20
-50.1706
 30
0.0
 10
-138.4729
 20
-1.3573
 30
0.0
 10
-138.4729
 20
-1.3573
 30
0.0
 10
-138.4729
 20
-1.3573
 30
0.0
 10
-209.254
 20
47.2505
 30
0.0
 10
-209.254
 20
47.2505
 30
0.0
 10
-209.254
 20
47.2505
 30
0.0
 10
-119.2098
 20
102.1978
 30
0.0
 10
-119.2098
 20
102.1978
 30
0.0
 10
-119.2098
 20
102.1978
 30
0.0
 10
-43.19
 20
50.3175
 30
0.0
 10
-43.19
 20
50.3175
 30
0.0
 10
-79.8068
 20
11.7818
 30
0.0
 10
-74.7466
 20
-24.9254
 30
0.0
 10
-43.5082
 20
-57.446
 30
0.0
 10
-43.5082
 20
-57.446
 30
0.0
 10
-106.1479
 20
-102.7919
 30
0.0
 10
-106.1479
 20
-102.7919
 30
0.0
  0
SPLINE
  5
77
330
1F
100
AcDbEntity
  8
Layer 1
 62
   250
370
    20
100
AcDbSpline
210
0.0
220
0.0
230
1.0
 70
    11
 71
     3
 72
    29
 73
    25
 74
     0
 42
0.0000000001
 43
0.0000000001
 40
0.0
 40
0.0
 40
0.0
 40
0.0
 40
0.125
 40
0.125
 40
0.125
 40
0.25
 40
0.25
 40
0.25
 40
0.375
 40
0.375
 40
0.375
 40
0.5
 40
0.5
 40
0.5
 40
0.625
 40
0.625
 40
0.625
 40
0.75
 40
0.75
 40
0.75
 40
0.875
 40
0.875
 40
0.875
 40
1.0
 40
1.0
 40
1.0
 40
1.0
 10
-481.6527
 20
-102.7919
 30
0.0
 10
-481.6527
 20
-102.7919
 30
0.0
 10
-491.4238
 20
-102.7919
 30
0.0
 10
-491.4238
 20
-102.7919
 30
0.0
 10
-491.4238
 20
-102.7919
 30
0.0
 10
-576.0353
 20
-50.7818
 30
0.0
 10
-576.0353
 20
-50.7818
 30
0.0
 10
-544.7813
 20
-18.2613
 30
0.0
 10
-537.7265
 20
14.4486
 30
0.0
 10
-574.3356
 20
52.9843
 30
0.0
 10
-574.3356
 20
52.9843
 30
0.0
 10
-496.3134
 20
104.8646
 30
0.0
 10
-496.3134
 20
104.8646
 30
0.0
 10
-496.3134
 20
104.8646
 30
0.0
 10
-396.2419
 20
40.5754
 30
0.0
 10
-396.2419
 20
40.5754
 30
0.0
 10
-396.2419
 20
40.5754
 30
0.0
 10
-458.9981
 20
-0.0266
 30
0.0
 10
-458.9981
 20
-0.0266
 30
0.0
 10
-458.9981
 20
-0.0266
 30
0.0
 10
-394.5345
 20
-39.4981
 30
0.0
 10
-394.5345
 20
-39.4981
 30
0.0
 10
-394.5345
 20
-39.4981
 30
0.0
 10
-481.6527
 20
-102.7919
 30
0.0
 10
-481.6527
 20
-102.7919
 30
0.0
  0
SPLINE
  5
78
330
1F
100
AcDbEntity
  8
Layer 1
 62
   250
370
    20
100
AcDbSpline
210
0.0
220
0.0
230
1.0
 70
    11
 71
     3
 72
    29
 73
    25
 74
     0
 42
0.0000000001
 43
0.0000000001
 40
0.0
 40
0.0
 40
0.0
 40
0.0
 40
0.125
 40
0.125
 40
0.125
 40
0.25
 40
0.25
 40
0.25
 40
0.375
 40
0.375
 40
0.375
 40
0.5
 40
0.5
 40
0.5
 40
0.625
 40
0.625
 40
0.625
 40
0.75
 40
0.75
 40
0.75
 40
0.875
 40
0.875
 40
0.875
 40
1.0
 40
1.0
 40
1.0
 40
1.0
 10
-828.7207
 20
-102.7919
 30
0.0
 10
-828.7207
 20
-102.7919
 30
0.0
 10
-864.8254
 20
-102.7919
 30
0.0
 10
-864.8254
 20
-102.7919
 30
0.0
 10
-864.8254
 20
-102.7919
 30
0.0
 10
-945.789
 20
-50.7818
 30
0.0
 10
-945.789
 20
-50.7818
 30
0.0
 10
-945.789
 20
-50.7818
 30
0.0
 10
-867.7746
 20
-2.2823
 30
0.0
 10
-867.7746
 20
-2.2823
 30
0.0
 10
-867.7746
 20
-2.2823
 30
0.0
 10
-939.0059
 20
43.9616
 30
0.0
 10
-939.0059
 20
43.9616
 30
0.0
 10
-939.0059
 20
43.9616
 30
0.0
 10
-845.7253
 20
102.6089
 30
0.0
 10
-845.7253
 20
102.6089
 30
0.0
 10
-845.7253
 20
102.6089
 30
0.0
 10
-771.0869
 20
49.6035
 30
0.0
 10
-771.0869
 20
49.6035
 30
0.0
 10
-807.9754
 20
16.9909
 30
0.0
 10
-810.5288
 20
-18.9104
 30
0.0
 10
-766.0112
 20
-57.5488
 30
0.0
 10
-766.0112
 20
-57.5488
 30
0.0
 10
-828.7207
 20
-102.7919
 30
0.0
 10
-828.7207
 20
-102.7919
 30
0.0
  0
SPLINE
  5
79
330
1F
100
AcDbEntity
  8
Layer 1
 62
   250
370
    20
100
AcDbSpline
210
0.0
220
0.0
230
1.0
 70
    11
 71
     3
 72
    26
 73
    22
 74
     0
 42
0.0000000001
 43
0.0000000001
 40
0.0
 40
0.0
 40
0.0
 40
0.0
 40
0.1428571428571428
 40
0.1428571428571428
 40
0.1428571428571428
 40
0.2857142857142857
 40
0.2857142857142857
 40
0.2857142857142857
 40
0.4285714285714285
 40
0.4285714285714285
 40
0.4285714285714285
 40
0.5714285714285714
 40
0.5714285714285714
 40
0.5714285714285714
 40
0.7142857142857142
 40
0.7142857142857142
 40
0.7142857142857142
 40
0.8571428571428571
 40
0.8571428571428571
 40
0.8571428571428571
 40
1.0
 40
1.0
 40
1.0
 40
1.0
 10
-574.6615
 20
195.9242
 30
0.0
 10
-574.6615
 20
195.9242
 30
0.0
 10
-502.5377
 20
243.964
 30
0.0
 10
-502.5377
 20
243.964
 30
0.0
 10
-502.5377
 20
243.964
 30
0.0
 10
-578.0532
 20
294.4379
 30
0.0
 10
-578.0532
 20
294.4379
 30
0.0
 10
-578.0532
 20
294.4379
 30
0.0
 10
-486.4956
 20
354.1833
 30
0.0
 10
-486.4956
 20
354.1833
 30
0.0
 10
-486.4956
 20
354.1833
 30
0.0
 10
-404.0806
 20
295.6496
 30
0.0
 10
-404.0806
 20
295.6496
 30
0.0
 10
-444.2132
 20
264.3136
 30
0.0
 10
-440.8293
 20
221.3262
 30
0.0
 10
-407.4645
 20
194.8803
 30
0.0
 10
-407.4645
 20
194.8803
 30
0.0
 10
-493.6668
 20
136.26
 30
0.0
 10
-493.6668
 20
136.26
 30
0.0
 10
-493.6668
 20
136.26
 30
0.0
 10
-574.6615
 20
195.9242
 30
0.0
 10
-574.6615
 20
195.9242
 30
0.0
  0
SPLINE
  5
7A
330
1F
100
AcDbEntity
  8
Layer 1
 62
   250
370
    20
100
AcDbSpline
210
0.0
220
0.0
230
1.0
 70
    11
 71
     3
 72
    26
 73
    22
 74
     0
 42
0.0000000001
 43
0.0000000001
 40
0.0
 40
0.0
 40
0.0
 40
0.0
 40
0.1428571428571428
 40
0.1428571428571428
 40
0.1428571428571428
 40
0.2857142857142857
 40
0.2857142857142857
 40
0.2857142857142857
 40
0.4285714285714285
 40
0.4285714285714285
 40
0.4285714285714285
 40
0.5714285714285714
 40
0.5714285714285714
 40
0.5714285714285714
 40
0.7142857142857142
 40
0.7142857142857142
 40
0.7142857142857142
 40
0.8571428571428571
 40
0.8571428571428571
 40
0.8571428571428571
 40
1.0
 40
1.0
 40
1.0
 40
1.0
 10
-211.3495
 20
193.9661
 30
0.0
 10
-211.3495
 20
193.9661
 30
0.0
 10
-121.4606
 20
131.9326
 30
0.0
 10
-121.4606
 20
131.9326
 30
0.0
 10
-121.4606
 20
131.9326
 30
0.0
 10
-21.3814
 20
197.3469
 30
0.0
 10
-21.3814
 20
197.3469
 30
0.0
 10
-21.3814
 20
197.3469
 30
0.0
 10
-94.3278
 20
244.7159
 30
0.0
 10
-94.3278
 20
244.7159
 30
0.0
 10
-94.3278
 20
244.7159
 30
0.0
 10
-33.2636
 20
283.0676
 30
0.0
 10
-33.2636
 20
283.0676
 30
0.0
 10
-33.2636
 20
283.0676
 30
0.0
 10
-133.3428
 20
348.4819
 30
0.0
 10
-133.3428
 20
348.4819
 30
0.0
 10
-133.3428
 20
348.4819
 30
0.0
 10
-209.6575
 20
297.7321
 30
0.0
 10
-209.6575
 20
297.7321
 30
0.0
 10
-173.0486
 20
259.1911
 30
0.0
 10
-180.1111
 20
226.4866
 30
0.0
 10
-211.3495
 20
193.9661
 30
0.0
  0
SPLINE
  5
7B
330
1F
100
AcDbEntity
  8
Layer 1
 62
   250
370
    20
100
AcDbSpline
210
0.0
220
0.0
230
1.0
 70
    11
 71
     3
 72
    26
 73
    22
 74
     0
 42
0.0000000001
 43
0.0000000001
 40
0.0
 40
0.0
 40
0.0
 40
0.0
 40
0.1428571428571428
 40
0.1428571428571428
 40
0.1428571428571428
 40
0.2857142857142857
 40
0.2857142857142857
 40
0.2857142857142857
 40
0.4285714285714285
 40
0.4285714285714285
 40
0.4285714285714285
 40
0.5714285714285714
 40
0.5714285714285714
 40
0.5714285714285714
 40
0.7142857142857142
 40
0.7142857142857142
 40
0.7142857142857142
 40
0.8571428571428571
 40
0.8571428571428571
 40
0.8571428571428571
 40
1.0
 40
1.0
 40
1.0
 40
1.0
 10
-382.6678
 20
310.1356
 30
0.0
 10
-382.6678
 20
310.1356
 30
0.0
 10
-469.1729
 20
368.7829
 30
0.0
 10
-469.1729
 20
368.7829
 30
0.0
 10
-469.1729
 20
368.7829
 30
0.0
 10
-374.1849
 20
430.8164
 30
0.0
 10
-374.1849
 20
430.8164
 30
0.0
 10
-374.1849
 20
430.8164
 30
0.0
 10
-304.6456
 20
383.442
 30
0.0
 10
-304.6456
 20
383.442
 30
0.0
 10
-304.6456
 20
383.442
 30
0.0
 10
-246.9806
 20
422.9189
 30
0.0
 10
-246.9806
 20
422.9189
 30
0.0
 10
-246.9806
 20
422.9189
 30
0.0
 10
-148.6011
 20
360.8853
 30
0.0
 10
-148.6011
 20
360.8853
 30
0.0
 10
-148.6011
 20
360.8853
 30
0.0
 10
-230.015
 20
310.1356
 30
0.0
 10
-230.015
 20
310.1356
 30
0.0
 10
-287.9669
 20
334.4827
 30
0.0
 10
-333.7652
 20
330.9072
 30
0.0
 10
-382.6678
 20
310.1356
 30
0.0
  0
SPLINE
  5
7C
330
1F
100
AcDbEntity
  8
Layer 1
 62
   250
370
    20
100
AcDbSpline
210
0.0
220
0.0
230
1.0
 70
    11
 71
     3
 72
    26
 73
    22
 74
     0
 42
0.0000000001
 43
0.0000000001
 40
0.0
 40
0.0
 40
0.0
 40
0.0
 40
0.1428571428571428
 40
0.1428571428571428
 40
0.1428571428571428
 40
0.2857142857142857
 40
0.2857142857142857
 40
0.2857142857142857
 40
0.4285714285714285
 40
0.4285714285714285
 40
0.4285714285714285
 40
0.5714285714285714
 40
0.5714285714285714
 40
0.5714285714285714
 40
0.7142857142857142
 40
0.7142857142857142
 40
0.7142857142857142
 40
0.8571428571428571
 40
0.8571428571428571
 40
0.8571428571428571
 40
1.0
 40
1.0
 40
1.0
 40
1.0
 10
-387.7513
 20
180.4321
 30
0.0
 10
-387.7513
 20
180.4321
 30
0.0
 10
-474.2642
 20
121.7902
 30
0.0
 10
-474.2642
 20
121.7902
 30
0.0
 10
-474.2642
 20
121.7902
 30
0.0
 10
-374.1849
 20
55.2399
 30
0.0
 10
-374.1849
 20
55.2399
 30
0.0
 10
-374.1849
 20
55.2399
 30
0.0
 10
-297.8624
 20
105.9897
 30
0.0
 10
-297.8624
 20
105.9897
 30
0.0
 10
-297.8624
 20
105.9897
 30
0.0
 10
-228.3075
 20
57.4956
 30
0.0
 10
-228.3075
 20
57.4956
 30
0.0
 10
-228.3075
 20
57.4956
 30
0.0
 10
-140.1182
 20
116.1429
 30
0.0
 10
-140.1182
 20
116.1429
 30
0.0
 10
-140.1182
 20
116.1429
 30
0.0
 10
-235.0985
 20
180.4321
 30
0.0
 10
-235.0985
 20
180.4321
 30
0.0
 10
-293.0504
 20
156.0903
 30
0.0
 10
-338.8487
 20
159.6605
 30
0.0
 10
-387.7513
 20
180.4321
 30
0.0
  0
SPLINE
  5
7D
330
1F
100
AcDbEntity
  8
Layer 1
 62
   250
370
    20
100
AcDbSpline
210
0.0
220
0.0
230
1.0
 70
    11
 71
     3
 72
    17
 73
    13
 74
     0
 42
0.0000000001
 43
0.0000000001
 40
0.0
 40
0.0
 40
0.0
 40
0.0
 40
0.25
 40
0.25
 40
0.25
 40
0.5
 40
0.5
 40
0.5
 40
0.75
 40
0.75
 40
0.75
 40
1.0
 40
1.0
 40
1.0
 40
1.0
 10
-414.8996
 20
490.5943
 30
0.0
 10
-414.8996
 20
490.5943
 30
0.0
 10
-299.5543
 20
412.7711
 30
0.0
 10
-299.5543
 20
412.7711
 30
0.0
 10
-299.5543
 20
412.7711
 30
0.0
 10
-185.9087
 20
488.3332
 30
0.0
 10
-185.9087
 20
488.3332
 30
0.0
 10
-185.9087
 20
488.3332
 30
0.0
 10
-302.9459
 20
562.7756
 30
0.0
 10
-302.9459
 20
562.7756
 30
0.0
 10
-302.9459
 20
562.7756
 30
0.0
 10
-414.8996
 20
490.5943
 30
0.0
 10
-414.8996
 20
490.5943
 30
0.0
  0
SPLINE
  5
7E
330
1F
100
AcDbEntity
  8
Layer 1
 62
   250
370
    20
100
AcDbSpline
210
0.0
220
0.0
230
1.0
 70
    11
 71
     3
 72
    26
 73
    22
 74
     0
 42
0.0000000001
 43
0.0000000001
 40
0.0
 40
0.0
 40
0.0
 40
0.0
 40
0.1428571428571428
 40
0.1428571428571428
 40
0.1428571428571428
 40
0.2857142857142857
 40
0.2857142857142857
 40
0.2857142857142857
 40
0.4285714285714285
 40
0.4285714285714285
 40
0.4285714285714285
 40
0.5714285714285714
 40
0.5714285714285714
 40
0.5714285714285714
 40
0.7142857142857142
 40
0.7142857142857142
 40
0.7142857142857142
 40
0.8571428571428571
 40
0.8571428571428571
 40
0.8571428571428571
 40
1.0
 40
1.0
 40
1.0
 40
1.0
 10
-576.0275
 20
435.3277
 30
0.0
 10
-576.0275
 20
435.3277
 30
0.0
 10
-486.1386
 20
380.0612
 30
0.0
 10
-486.1386
 20
380.0612
 30
0.0
 10
-486.1386
 20
380.0612
 30
0.0
 10
-394.5345
 20
446.606
 30
0.0
 10
-394.5345
 20
446.606
 30
0.0
 10
-394.5345
 20
446.606
 30
0.0
 10
-458.9981
 20
486.0775
 30
0.0
 10
-458.9981
 20
486.0775
 30
0.0
 10
-458.9981
 20
486.0775
 30
0.0
 10
-397.9338
 20
524.4292
 30
0.0
 10
-397.9338
 20
524.4292
 30
0.0
 10
-397.9338
 20
524.4292
 30
0.0
 10
-498.0053
 20
589.8436
 30
0.0
 10
-498.0053
 20
589.8436
 30
0.0
 10
-498.0053
 20
589.8436
 30
0.0
 10
-574.3356
 20
539.0884
 30
0.0
 10
-574.3356
 20
539.0884
 30
0.0
 10
-537.7265
 20
500.5528
 30
0.0
 10
-544.7891
 20
467.8483
 30
0.0
 10
-576.0275
 20
435.3277
 30
0.0
  0
SPLINE
  5
7F
330
1F
100
AcDbEntity
  8
Layer 1
 62
   250
370
    20
100
AcDbSpline
210
0.0
220
0.0
230
1.0
 70
    11
 71
     3
 72
    26
 73
    22
 74
     0
 42
0.0000000001
 43
0.0000000001
 40
0.0
 40
0.0
 40
0.0
 40
0.0
 40
0.1428571428571428
 40
0.1428571428571428
 40
0.1428571428571428
 40
0.2857142857142857
 40
0.2857142857142857
 40
0.2857142857142857
 40
0.4285714285714285
 40
0.4285714285714285
 40
0.4285714285714285
 40
0.5714285714285714
 40
0.5714285714285714
 40
0.5714285714285714
 40
0.7142857142857142
 40
0.7142857142857142
 40
0.7142857142857142
 40
0.8571428571428571
 40
0.8571428571428571
 40
0.8571428571428571
 40
1.0
 40
1.0
 40
1.0
 40
1.0
 10
-747.3381
 20
63.1321
 30
0.0
 10
-747.3381
 20
63.1321
 30
0.0
 10
-828.7596
 20
117.2734
 30
0.0
 10
-828.7596
 20
117.2734
 30
0.0
 10
-828.7596
 20
117.2734
 30
0.0
 10
-726.9884
 20
182.6877
 30
0.0
 10
-726.9884
 20
182.6877
 30
0.0
 10
-726.9884
 20
182.6877
 30
0.0
 10
-662.5326
 20
138.6995
 30
0.0
 10
-662.5326
 20
138.6995
 30
0.0
 10
-662.5326
 20
138.6995
 30
0.0
 10
-599.7764
 20
181.5572
 30
0.0
 10
-599.7764
 20
181.5572
 30
0.0
 10
-599.7764
 20
181.5572
 30
0.0
 10
-506.4882
 20
122.9099
 30
0.0
 10
-506.4882
 20
122.9099
 30
0.0
 10
-506.4882
 20
122.9099
 30
0.0
 10
-594.6852
 20
63.1321
 30
0.0
 10
-594.6852
 20
63.1321
 30
0.0
 10
-652.6372
 20
87.4792
 30
0.0
 10
-698.4354
 20
83.9091
 30
0.0
 10
-747.3381
 20
63.1321
 30
0.0
  0
SPLINE
  5
80
330
1F
100
AcDbEntity
  8
Layer 1
 62
   250
370
    20
100
AcDbSpline
210
0.0
220
0.0
230
1.0
 70
    11
 71
     3
 72
    26
 73
    22
 74
     0
 42
0.0000000001
 43
0.0000000001
 40
0.0
 40
0.0
 40
0.0
 40
0.0
 40
0.1428571428571428
 40
0.1428571428571428
 40
0.1428571428571428
 40
0.2857142857142857
 40
0.2857142857142857
 40
0.2857142857142857
 40
0.4285714285714285
 40
0.4285714285714285
 40
0.4285714285714285
 40
0.5714285714285714
 40
0.5714285714285714
 40
0.5714285714285714
 40
0.7142857142857142
 40
0.7142857142857142
 40
0.7142857142857142
 40
0.8571428571428571
 40
0.8571428571428571
 40
0.8571428571428571
 40
1.0
 40
1.0
 40
1.0
 40
1.0
 10
-749.0454
 20
421.7938
 30
0.0
 10
-749.0454
 20
421.7938
 30
0.0
 10
-830.4515
 20
362.0159
 30
0.0
 10
-830.4515
 20
362.0159
 30
0.0
 10
-830.4515
 20
362.0159
 30
0.0
 10
-737.1632
 20
298.8518
 30
0.0
 10
-737.1632
 20
298.8518
 30
0.0
 10
-737.1632
 20
298.8518
 30
0.0
 10
-662.5326
 20
349.607
 30
0.0
 10
-662.5326
 20
349.607
 30
0.0
 10
-662.5326
 20
349.607
 30
0.0
 10
-599.7764
 20
306.7494
 30
0.0
 10
-599.7764
 20
306.7494
 30
0.0
 10
-599.7764
 20
306.7494
 30
0.0
 10
-506.4882
 20
365.3967
 30
0.0
 10
-506.4882
 20
365.3967
 30
0.0
 10
-506.4882
 20
365.3967
 30
0.0
 10
-594.6852
 20
422.9189
 30
0.0
 10
-594.6852
 20
422.9189
 30
0.0
 10
-652.6372
 20
398.5772
 30
0.0
 10
-700.1351
 20
401.0222
 30
0.0
 10
-749.0454
 20
421.7938
 30
0.0
  0
SPLINE
  5
81
330
1F
100
AcDbEntity
  8
Layer 1
 62
   250
370
    20
100
AcDbSpline
210
0.0
220
0.0
230
1.0
 70
    11
 71
     3
 72
    17
 73
    13
 74
     0
 42
0.0000000001
 43
0.0000000001
 40
0.0
 40
0.0
 40
0.0
 40
0.0
 40
0.25
 40
0.25
 40
0.25
 40
0.5
 40
0.5
 40
0.5
 40
0.75
 40
0.75
 40
0.75
 40
1.0
 40
1.0
 40
1.0
 40
1.0
 10
-660.8407
 20
168.0232
 30
0.0
 10
-660.8407
 20
168.0232
 30
0.0
 10
-545.5031
 20
241.3351
 30
0.0
 10
-545.5031
 20
241.3351
 30
0.0
 10
-545.5031
 20
241.3351
 30
0.0
 10
-664.2323
 20
320.2834
 30
0.0
 10
-664.2323
 20
320.2834
 30
0.0
 10
-664.2323
 20
320.2834
 30
0.0
 10
-779.5698
 20
244.7159
 30
0.0
 10
-779.5698
 20
244.7159
 30
0.0
 10
-779.5698
 20
244.7159
 30
0.0
 10
-660.8407
 20
168.0232
 30
0.0
 10
-660.8407
 20
168.0232
 30
0.0
  0
SPLINE
  5
82
330
1F
100
AcDbEntity
  8
Layer 1
 62
   250
370
    20
100
AcDbSpline
210
0.0
220
0.0
230
1.0
 70
    11
 71
     3
 72
    26
 73
    22
 74
     0
 42
0.0000000001
 43
0.0000000001
 40
0.0
 40
0.0
 40
0.0
 40
0.0
 40
0.1428571428571428
 40
0.1428571428571428
 40
0.1428571428571428
 40
0.2857142857142857
 40
0.2857142857142857
 40
0.2857142857142857
 40
0.4285714285714285
 40
0.4285714285714285
 40
0.4285714285714285
 40
0.5714285714285714
 40
0.5714285714285714
 40
0.5714285714285714
 40
0.7142857142857142
 40
0.7142857142857142
 40
0.7142857142857142
 40
0.8571428571428571
 40
0.8571428571428571
 40
0.8571428571428571
 40
1.0
 40
1.0
 40
1.0
 40
1.0
 10
-939.0059
 20
193.9661
 30
0.0
 10
-939.0059
 20
193.9661
 30
0.0
 10
-849.1169
 20
131.9326
 30
0.0
 10
-849.1169
 20
131.9326
 30
0.0
 10
-849.1169
 20
131.9326
 30
0.0
 10
-749.0454
 20
197.3469
 30
0.0
 10
-749.0454
 20
197.3469
 30
0.0
 10
-749.0454
 20
197.3469
 30
0.0
 10
-821.9841
 20
242.4656
 30
0.0
 10
-821.9841
 20
242.4656
 30
0.0
 10
-821.9841
 20
242.4656
 30
0.0
 10
-760.9122
 20
283.0676
 30
0.0
 10
-760.9122
 20
283.0676
 30
0.0
 10
-760.9122
 20
283.0676
 30
0.0
 10
-860.9836
 20
348.4819
 30
0.0
 10
-860.9836
 20
348.4819
 30
0.0
 10
-860.9836
 20
348.4819
 30
0.0
 10
-937.3139
 20
294.3459
 30
0.0
 10
-937.3139
 20
294.3459
 30
0.0
 10
-900.7049
 20
255.8103
 30
0.0
 10
-907.7674
 20
226.4866
 30
0.0
 10
-939.0059
 20
193.9661
 30
0.0
  0
SPLINE
  5
83
330
1F
100
AcDbEntity
  8
Layer 1
 62
   250
370
    20
100
AcDbSpline
210
0.0
220
0.0
230
1.0
 70
    11
 71
     3
 72
    26
 73
    22
 74
     0
 42
0.0000000001
 43
0.0000000001
 40
0.0
 40
0.0
 40
0.0
 40
0.0
 40
0.1428571428571428
 40
0.1428571428571428
 40
0.1428571428571428
 40
0.2857142857142857
 40
0.2857142857142857
 40
0.2857142857142857
 40
0.4285714285714285
 40
0.4285714285714285
 40
0.4285714285714285
 40
0.5714285714285714
 40
0.5714285714285714
 40
0.5714285714285714
 40
0.7142857142857142
 40
0.7142857142857142
 40
0.7142857142857142
 40
0.8571428571428571
 40
0.8571428571428571
 40
0.8571428571428571
 40
1.0
 40
1.0
 40
1.0
 40
1.0
 10
-1113.7157
 20
310.1356
 30
0.0
 10
-1113.7157
 20
310.1356
 30
0.0
 10
-1195.1217
 20
369.9134
 30
0.0
 10
-1195.1217
 20
369.9134
 30
0.0
 10
-1195.1217
 20
369.9134
 30
0.0
 10
-1103.5332
 20
429.6859
 30
0.0
 10
-1103.5332
 20
429.6859
 30
0.0
 10
-1103.5332
 20
429.6859
 30
0.0
 10
-1033.9938
 20
381.1864
 30
0.0
 10
-1033.9938
 20
381.1864
 30
0.0
 10
-1033.9938
 20
381.1864
 30
0.0
 10
-972.9373
 20
420.6632
 30
0.0
 10
-972.9373
 20
420.6632
 30
0.0
 10
-972.9373
 20
420.6632
 30
0.0
 10
-881.3332
 20
362.0159
 30
0.0
 10
-881.3332
 20
362.0159
 30
0.0
 10
-881.3332
 20
362.0159
 30
0.0
 10
-959.3632
 20
309.0105
 30
0.0
 10
-959.3632
 20
309.0105
 30
0.0
 10
-1017.3152
 20
333.3521
 30
0.0
 10
-1064.8053
 20
330.9072
 30
0.0
 10
-1113.7157
 20
310.1356
 30
0.0
  0
SPLINE
  5
84
330
1F
100
AcDbEntity
  8
Layer 1
 62
   250
370
    20
100
AcDbSpline
210
0.0
220
0.0
230
1.0
 70
    11
 71
     3
 72
    17
 73
    13
 74
     0
 42
0.0000000001
 43
0.0000000001
 40
0.0
 40
0.0
 40
0.0
 40
0.0
 40
0.25
 40
0.25
 40
0.25
 40
0.5
 40
0.5
 40
0.5
 40
0.75
 40
0.75
 40
0.75
 40
1.0
 40
1.0
 40
1.0
 40
1.0
 10
-1027.2029
 20
410.5154
 30
0.0
 10
-1027.2029
 20
410.5154
 30
0.0
 10
-911.8809
 20
483.8273
 30
0.0
 10
-911.8809
 20
483.8273
 30
0.0
 10
-911.8809
 20
483.8273
 30
0.0
 10
-1030.6022
 20
562.7756
 30
0.0
 10
-1030.6022
 20
562.7756
 30
0.0
 10
-1030.6022
 20
562.7756
 30
0.0
 10
-1145.9398
 20
487.2081
 30
0.0
 10
-1145.9398
 20
487.2081
 30
0.0
 10
-1145.9398
 20
487.2081
 30
0.0
 10
-1027.2029
 20
410.5154
 30
0.0
 10
-1027.2029
 20
410.5154
 30
0.0
  0
SPLINE
  5
85
330
1F
100
AcDbEntity
  8
Layer 1
 62
   250
370
    20
100
AcDbSpline
210
0.0
220
0.0
230
1.0
 70
    11
 71
     3
 72
    17
 73
    13
 74
     0
 42
0.0000000001
 43
0.0000000001
 40
0.0
 40
0.0
 40
0.0
 40
0.0
 40
0.25
 40
0.25
 40
0.25
 40
0.5
 40
0.5
 40
0.5
 40
0.75
 40
0.75
 40
0.75
 40
1.0
 40
1.0
 40
1.0
 40
1.0
 10
-1134.6474
 20
244.1641
 30
0.0
 10
-1134.6474
 20
279.1729
 30
0.0
 10
-1091.7053
 20
307.7285
 30
0.0
 10
-1039.0463
 20
307.7285
 30
0.0
 10
-986.395
 20
307.7285
 30
0.0
 10
-943.4452
 20
279.1729
 30
0.0
 10
-943.4452
 20
244.1641
 30
0.0
 10
-943.4452
 20
209.1553
 30
0.0
 10
-986.395
 20
180.5998
 30
0.0
 10
-1039.0463
 20
180.5998
 30
0.0
 10
-1091.7053
 20
180.5998
 30
0.0
 10
-1134.6474
 20
209.1553
 30
0.0
 10
-1134.6474
 20
244.1641
 30
0.0
  0
SPLINE
  5
86
330
1F
100
AcDbEntity
  8
Layer 1
 62
   250
370
    20
100
AcDbSpline
210
0.0
220
0.0
230
1.0
 70
    11
 71
     3
 72
    17
 73
    13
 74
     0
 42
0.0000000001
 43
0.0000000001
 40
0.0
 40
0.0
 40
0.0
 40
0.0
 40
0.25
 40
0.25
 40
0.25
 40
0.5
 40
0.5
 40
0.5
 40
0.75
 40
0.75
 40
0.75
 40
1.0
 40
1.0
 40
1.0
 40
1.0
 10
-767.5556
 20
486.916
 30
0.0
 10
-767.5556
 20
521.9302
 30
0.0
 10
-724.6213
 20
550.4803
 30
0.0
 10
-671.9624
 20
550.4803
 30
0.0
 10
-619.3189
 20
550.4803
 30
0.0
 10
-576.3768
 20
521.9302
 30
0.0
 10
-576.3768
 20
486.916
 30
0.0
 10
-576.3768
 20
451.9072
 30
0.0
 10
-619.3189
 20
423.357
 30
0.0
 10
-671.9624
 20
423.3516
 30
0.0
 10
-724.6213
 20
423.3516
 30
0.0
 10
-767.5556
 20
451.9072
 30
0.0
 10
-767.5556
 20
486.916
 30
0.0
  0
SPLINE
  5
87
330
1F
100
AcDbEntity
  8
Layer 1
 62
   250
370
    20
100
AcDbSpline
210
0.0
220
0.0
230
1.0
 70
    11
 71
     3
 72
    26
 73
    22
 74
     0
 42
0.0000000001
 43
0.0000000001
 40
0.0
 40
0.0
 40
0.0
 40
0.0
 40
0.1428571428571428
 40
0.1428571428571428
 40
0.1428571428571428
 40
0.2857142857142857
 40
0.2857142857142857
 40
0.2857142857142857
 40
0.4285714285714285
 40
0.4285714285714285
 40
0.4285714285714285
 40
0.5714285714285714
 40
0.5714285714285714
 40
0.5714285714285714
 40
0.7142857142857142
 40
0.7142857142857142
 40
0.7142857142857142
 40
0.8571428571428571
 40
0.8571428571428571
 40
0.8571428571428571
 40
1.0
 40
1.0
 40
1.0
 40
1.0
 10
-19.1927
 20
63.1321
 30
0.0
 10
-19.1927
 20
63.1321
 30
0.0
 10
-100.6142
 20
117.2734
 30
0.0
 10
-100.6142
 20
117.2734
 30
0.0
 10
-100.6142
 20
117.2734
 30
0.0
 10
1.1568
 20
182.6877
 30
0.0
 10
1.1568
 20
182.6877
 30
0.0
 10
1.1568
 20
182.6877
 30
0.0
 10
65.6049
 20
138.6995
 30
0.0
 10
65.6049
 20
138.6995
 30
0.0
 10
65.6049
 20
138.6995
 30
0.0
 10
128.3611
 20
181.5518
 30
0.0
 10
128.3611
 20
181.5518
 30
0.0
 10
128.3611
 20
181.5518
 30
0.0
 10
221.6571
 20
122.9099
 30
0.0
 10
221.6571
 20
122.9099
 30
0.0
 10
221.6571
 20
122.9099
 30
0.0
 10
133.4524
 20
63.1375
 30
0.0
 10
133.4524
 20
63.1375
 30
0.0
 10
75.5081
 20
87.4792
 30
0.0
 10
29.7022
 20
83.9091
 30
0.0
 10
-19.1927
 20
63.1321
 30
0.0
  0
SPLINE
  5
88
330
1F
100
AcDbEntity
  8
Layer 1
 62
   250
370
    20
100
AcDbSpline
210
0.0
220
0.0
230
1.0
 70
    11
 71
     3
 72
    17
 73
    13
 74
     0
 42
0.0000000001
 43
0.0000000001
 40
0.0
 40
0.0
 40
0.0
 40
0.0
 40
0.25
 40
0.25
 40
0.25
 40
0.5
 40
0.5
 40
0.5
 40
0.75
 40
0.75
 40
0.75
 40
1.0
 40
1.0
 40
1.0
 40
1.0
 10
68.9189
 20
169.6244
 30
0.0
 10
68.9189
 20
169.6244
 30
0.0
 10
184.2487
 20
241.8057
 30
0.0
 10
184.2487
 20
241.8057
 30
0.0
 10
184.2487
 20
241.8057
 30
0.0
 10
67.2115
 20
319.6288
 30
0.0
 10
67.2115
 20
319.6288
 30
0.0
 10
67.2115
 20
319.6288
 30
0.0
 10
-49.818
 20
246.3224
 30
0.0
 10
-49.818
 20
246.3224
 30
0.0
 10
-49.818
 20
246.3224
 30
0.0
 10
68.9189
 20
169.6244
 30
0.0
 10
68.9189
 20
169.6244
 30
0.0
  0
SPLINE
  5
89
330
1F
100
AcDbEntity
  8
Layer 1
 62
   250
370
    20
100
AcDbSpline
210
0.0
220
0.0
230
1.0
 70
    11
 71
     3
 72
    26
 73
    22
 74
     0
 42
0.0000000001
 43
0.0000000001
 40
0.0
 40
0.0
 40
0.0
 40
0.0
 40
0.1428571428571428
 40
0.1428571428571428
 40
0.1428571428571428
 40
0.2857142857142857
 40
0.2857142857142857
 40
0.2857142857142857
 40
0.4285714285714285
 40
0.4285714285714285
 40
0.4285714285714285
 40
0.5714285714285714
 40
0.5714285714285714
 40
0.5714285714285714
 40
0.7142857142857142
 40
0.7142857142857142
 40
0.7142857142857142
 40
0.8571428571428571
 40
0.8571428571428571
 40
0.8571428571428571
 40
1.0
 40
1.0
 40
1.0
 40
1.0
 10
-20.6751
 20
424.52
 30
0.0
 10
-20.6751
 20
424.52
 30
0.0
 10
-107.1801
 20
365.8727
 30
0.0
 10
-107.1801
 20
365.8727
 30
0.0
 10
-107.1801
 20
365.8727
 30
0.0
 10
-7.1165
 20
299.3279
 30
0.0
 10
-7.1165
 20
299.3279
 30
0.0
 10
-7.1165
 20
299.3279
 30
0.0
 10
69.2215
 20
350.0831
 30
0.0
 10
69.2215
 20
350.0831
 30
0.0
 10
69.2215
 20
350.0831
 30
0.0
 10
130.7437
 20
306.917
 30
0.0
 10
130.7437
 20
306.917
 30
0.0
 10
130.7437
 20
306.917
 30
0.0
 10
218.9408
 20
366.9005
 30
0.0
 10
218.9408
 20
366.9005
 30
0.0
 10
218.9408
 20
366.9005
 30
0.0
 10
131.9778
 20
424.52
 30
0.0
 10
131.9778
 20
424.52
 30
0.0
 10
74.0257
 20
400.1783
 30
0.0
 10
28.2353
 20
403.7484
 30
0.0
 10
-20.6751
 20
424.52
 30
0.0
  0
SPLINE
  5
8A
330
1F
100
AcDbEntity
  8
Layer 1
 62
   250
370
    20
100
AcDbSpline
210
0.0
220
0.0
230
1.0
 70
    11
 71
     3
 72
    17
 73
    13
 74
     0
 42
0.0000000001
 43
0.0000000001
 40
0.0
 40
0.0
 40
0.0
 40
0.0
 40
0.25
 40
0.25
 40
0.25
 40
0.5
 40
0.5
 40
0.5
 40
0.75
 40
0.75
 40
0.75
 40
1.0
 40
1.0
 40
1.0
 40
1.0
 10
-41.3429
 20
491.2109
 30
0.0
 10
-41.3429
 20
526.4793
 30
0.0
 10
1.9019
 20
555.2459
 30
0.0
 10
54.9257
 20
555.2404
 30
0.0
 10
107.9728
 20
555.2404
 30
0.0
 10
151.2175
 20
526.4793
 30
0.0
 10
151.2175
 20
491.2109
 30
0.0
 10
151.2175
 20
455.9479
 30
0.0
 10
107.9728
 20
427.1868
 30
0.0
 10
54.9257
 20
427.1868
 30
0.0
 10
1.9019
 20
427.1868
 30
0.0
 10
-41.3429
 20
455.9479
 30
0.0
 10
-41.3429
 20
491.2109
 30
0.0
  0
SPLINE
  5
8B
330
1F
100
AcDbEntity
  8
Layer 1
 62
   250
370
    20
100
AcDbSpline
210
0.0
220
0.0
230
1.0
 70
    11
 71
     3
 72
    26
 73
    22
 74
     0
 42
0.0000000001
 43
0.0000000001
 40
0.0
 40
0.0
 40
0.0
 40
0.0
 40
0.1428571428571428
 40
0.1428571428571428
 40
0.1428571428571428
 40
0.2857142857142857
 40
0.2857142857142857
 40
0.2857142857142857
 40
0.4285714285714285
 40
0.4285714285714285
 40
0.4285714285714285
 40
0.5714285714285714
 40
0.5714285714285714
 40
0.5714285714285714
 40
0.7142857142857142
 40
0.7142857142857142
 40
0.7142857142857142
 40
0.8571428571428571
 40
0.8571428571428571
 40
0.8571428571428571
 40
1.0
 40
1.0
 40
1.0
 40
1.0
 10
153.7165
 20
438.054
 30
0.0
 10
153.7165
 20
438.054
 30
0.0
 10
231.5758
 20
380.0234
 30
0.0
 10
231.5758
 20
380.0234
 30
0.0
 10
231.5758
 20
380.0234
 30
0.0
 10
327.6426
 20
446.7683
 30
0.0
 10
327.6426
 20
446.7683
 30
0.0
 10
327.6426
 20
446.7683
 30
0.0
 10
260.7342
 20
487.4731
 30
0.0
 10
260.7342
 20
487.4731
 30
0.0
 10
260.7342
 20
487.4731
 30
0.0
 10
319.7806
 20
527.1555
 30
0.0
 10
319.7806
 20
527.1555
 30
0.0
 10
319.7806
 20
527.1555
 30
0.0
 10
225.724
 20
589.9031
 30
0.0
 10
225.724
 20
589.9031
 30
0.0
 10
225.724
 20
589.9031
 30
0.0
 10
155.4162
 20
541.82
 30
0.0
 10
155.4162
 20
541.82
 30
0.0
 10
192.0253
 20
503.279
 30
0.0
 10
184.9627
 20
470.5746
 30
0.0
 10
153.7165
 20
438.054
 30
0.0
  0
SPLINE
  5
8C
330
1F
100
AcDbEntity
  8
Layer 1
 62
   250
370
    20
100
AcDbSpline
210
0.0
220
0.0
230
1.0
 70
    11
 71
     3
 72
    26
 73
    22
 74
     0
 42
0.0000000001
 43
0.0000000001
 40
0.0
 40
0.0
 40
0.0
 40
0.0
 40
0.1428571428571428
 40
0.1428571428571428
 40
0.1428571428571428
 40
0.2857142857142857
 40
0.2857142857142857
 40
0.2857142857142857
 40
0.4285714285714285
 40
0.4285714285714285
 40
0.4285714285714285
 40
0.5714285714285714
 40
0.5714285714285714
 40
0.5714285714285714
 40
0.7142857142857142
 40
0.7142857142857142
 40
0.7142857142857142
 40
0.8571428571428571
 40
0.8571428571428571
 40
0.8571428571428571
 40
1.0
 40
1.0
 40
1.0
 40
1.0
 10
313.5484
 20
193.3116
 30
0.0
 10
313.5484
 20
193.3116
 30
0.0
 10
233.6791
 20
138.0504
 30
0.0
 10
233.6791
 20
138.0504
 30
0.0
 10
233.6791
 20
138.0504
 30
0.0
 10
146.1029
 20
199.2564
 30
0.0
 10
146.1029
 20
199.2564
 30
0.0
 10
146.1029
 20
199.2564
 30
0.0
 10
226.601
 20
246.7335
 30
0.0
 10
226.601
 20
246.7335
 30
0.0
 10
226.601
 20
246.7335
 30
0.0
 10
153.8175
 20
295.3358
 30
0.0
 10
153.8175
 20
295.3358
 30
0.0
 10
153.8175
 20
295.3358
 30
0.0
 10
237.8467
 20
354.2914
 30
0.0
 10
237.8467
 20
354.2914
 30
0.0
 10
237.8467
 20
354.2914
 30
0.0
 10
315.8689
 20
298.4083
 30
0.0
 10
315.8689
 20
298.4083
 30
0.0
 10
279.26
 20
259.8726
 30
0.0
 10
282.3023
 20
225.8267
 30
0.0
 10
313.5484
 20
193.3116
 30
0.0
  0
SPLINE
  5
8D
330
1F
100
AcDbEntity
  8
Layer 1
 62
   250
370
    20
100
AcDbSpline
210
0.0
220
0.0
230
1.0
 70
    11
 71
     3
 72
    26
 73
    22
 74
     0
 42
0.0000000001
 43
0.0000000001
 40
0.0
 40
0.0
 40
0.0
 40
0.0
 40
0.1428571428571428
 40
0.1428571428571428
 40
0.1428571428571428
 40
0.2857142857142857
 40
0.2857142857142857
 40
0.2857142857142857
 40
0.4285714285714285
 40
0.4285714285714285
 40
0.4285714285714285
 40
0.5714285714285714
 40
0.5714285714285714
 40
0.5714285714285714
 40
0.7142857142857142
 40
0.7142857142857142
 40
0.7142857142857142
 40
0.8571428571428571
 40
0.8571428571428571
 40
0.8571428571428571
 40
1.0
 40
1.0
 40
1.0
 40
1.0
 10
336.3816
 20
180.4375
 30
0.0
 10
336.3816
 20
180.4375
 30
0.0
 10
249.8842
 20
121.7848
 30
0.0
 10
249.8842
 20
121.7848
 30
0.0
 10
249.8842
 20
121.7848
 30
0.0
 10
349.9479
 20
55.2399
 30
0.0
 10
349.9479
 20
55.2399
 30
0.0
 10
349.9479
 20
55.2399
 30
0.0
 10
426.2782
 20
105.9951
 30
0.0
 10
426.2782
 20
105.9951
 30
0.0
 10
426.2782
 20
105.9951
 30
0.0
 10
495.8176
 20
57.4956
 30
0.0
 10
495.8176
 20
57.4956
 30
0.0
 10
495.8176
 20
57.4956
 30
0.0
 10
584.0068
 20
116.1429
 30
0.0
 10
584.0068
 20
116.1429
 30
0.0
 10
584.0068
 20
116.1429
 30
0.0
 10
489.0421
 20
180.4321
 30
0.0
 10
489.0421
 20
180.4321
 30
0.0
 10
431.0823
 20
156.0903
 30
0.0
 10
385.2919
 20
159.6605
 30
0.0
 10
336.3816
 20
180.4375
 30
0.0
  0
SPLINE
  5
8E
330
1F
100
AcDbEntity
  8
Layer 1
 62
   250
370
    20
100
AcDbSpline
210
0.0
220
0.0
230
1.0
 70
    11
 71
     3
 72
    17
 73
    13
 74
     0
 42
0.0000000001
 43
0.0000000001
 40
0.0
 40
0.0
 40
0.0
 40
0.0
 40
0.25
 40
0.25
 40
0.25
 40
0.5
 40
0.5
 40
0.5
 40
0.75
 40
0.75
 40
0.75
 40
1.0
 40
1.0
 40
1.0
 40
1.0
 10
317.7083
 20
247.123
 30
0.0
 10
317.7083
 20
282.3914
 30
0.0
 10
360.9609
 20
311.1525
 30
0.0
 10
413.9924
 20
311.1525
 30
0.0
 10
467.0395
 20
311.1525
 30
0.0
 10
510.2842
 20
282.3914
 30
0.0
 10
510.2842
 20
247.123
 30
0.0
 10
510.2842
 20
211.86
 30
0.0
 10
467.0395
 20
183.0934
 30
0.0
 10
413.9924
 20
183.0988
 30
0.0
 10
360.9609
 20
183.0988
 30
0.0
 10
317.7083
 20
211.86
 30
0.0
 10
317.7083
 20
247.123
 30
0.0
  0
SPLINE
  5
8F
330
1F
100
AcDbEntity
  8
Layer 1
 62
   250
370
    20
100
AcDbSpline
210
0.0
220
0.0
230
1.0
 70
    11
 71
     3
 72
    26
 73
    22
 74
     0
 42
0.0000000001
 43
0.0000000001
 40
0.0
 40
0.0
 40
0.0
 40
0.0
 40
0.1428571428571428
 40
0.1428571428571428
 40
0.1428571428571428
 40
0.2857142857142857
 40
0.2857142857142857
 40
0.2857142857142857
 40
0.4285714285714285
 40
0.4285714285714285
 40
0.4285714285714285
 40
0.5714285714285714
 40
0.5714285714285714
 40
0.5714285714285714
 40
0.7142857142857142
 40
0.7142857142857142
 40
0.7142857142857142
 40
0.8571428571428571
 40
0.8571428571428571
 40
0.8571428571428571
 40
1.0
 40
1.0
 40
1.0
 40
1.0
 10
337.4603
 20
311.4663
 30
0.0
 10
337.4603
 20
311.4663
 30
0.0
 10
250.9475
 20
370.119
 30
0.0
 10
250.9475
 20
370.119
 30
0.0
 10
250.9475
 20
370.119
 30
0.0
 10
345.9354
 20
432.1471
 30
0.0
 10
345.9354
 20
432.1471
 30
0.0
 10
345.9354
 20
432.1471
 30
0.0
 10
415.4748
 20
384.7781
 30
0.0
 10
415.4748
 20
384.7781
 30
0.0
 10
415.4748
 20
384.7781
 30
0.0
 10
473.1552
 20
424.255
 30
0.0
 10
473.1552
 20
424.255
 30
0.0
 10
473.1552
 20
424.255
 30
0.0
 10
571.5192
 20
362.2215
 30
0.0
 10
571.5192
 20
362.2215
 30
0.0
 10
571.5192
 20
362.2215
 30
0.0
 10
490.1131
 20
311.4663
 30
0.0
 10
490.1131
 20
311.4663
 30
0.0
 10
432.1612
 20
335.8134
 30
0.0
 10
386.3707
 20
332.2379
 30
0.0
 10
337.4603
 20
311.4663
 30
0.0
  0
SPLINE
  5
90
330
1F
100
AcDbEntity
  8
Layer 1
 62
   250
370
    20
100
AcDbSpline
210
0.0
220
0.0
230
1.0
 70
    11
 71
     3
 72
    17
 73
    13
 74
     0
 42
0.0000000001
 43
0.0000000001
 40
0.0
 40
0.0
 40
0.0
 40
0.0
 40
0.25
 40
0.25
 40
0.25
 40
0.5
 40
0.5
 40
0.5
 40
0.75
 40
0.75
 40
0.75
 40
1.0
 40
1.0
 40
1.0
 40
1.0
 10
421.9553
 20
413.7123
 30
0.0
 10
421.9553
 20
413.7123
 30
0.0
 10
537.2928
 20
485.899
 30
0.0
 10
537.2928
 20
485.899
 30
0.0
 10
537.2928
 20
485.899
 30
0.0
 10
420.2556
 20
563.7222
 30
0.0
 10
420.2556
 20
563.7222
 30
0.0
 10
420.2556
 20
563.7222
 30
0.0
 10
303.2184
 20
490.4157
 30
0.0
 10
303.2184
 20
490.4157
 30
0.0
 10
303.2184
 20
490.4157
 30
0.0
 10
421.9553
 20
413.7123
 30
0.0
 10
421.9553
 20
413.7123
 30
0.0
  0
SPLINE
  5
91
330
1F
100
AcDbEntity
  8
Layer 1
 62
   250
370
    20
100
AcDbSpline
210
0.0
220
0.0
230
1.0
 70
    11
 71
     3
 72
    26
 73
    22
 74
     0
 42
0.0000000001
 43
0.0000000001
 40
0.0
 40
0.0
 40
0.0
 40
0.0
 40
0.1428571428571428
 40
0.1428571428571428
 40
0.1428571428571428
 40
0.2857142857142857
 40
0.2857142857142857
 40
0.2857142857142857
 40
0.4285714285714285
 40
0.4285714285714285
 40
0.4285714285714285
 40
0.5714285714285714
 40
0.5714285714285714
 40
0.5714285714285714
 40
0.7142857142857142
 40
0.7142857142857142
 40
0.7142857142857142
 40
0.8571428571428571
 40
0.8571428571428571
 40
0.8571428571428571
 40
1.0
 40
1.0
 40
1.0
 40
1.0
 10
702.93
 20
63.1321
 30
0.0
 10
702.93
 20
63.1321
 30
0.0
 10
621.5161
 20
117.2734
 30
0.0
 10
621.5161
 20
117.2734
 30
0.0
 10
621.5161
 20
117.2734
 30
0.0
 10
723.295
 20
182.6877
 30
0.0
 10
723.295
 20
182.6877
 30
0.0
 10
723.295
 20
182.6877
 30
0.0
 10
787.7354
 20
138.6995
 30
0.0
 10
787.7354
 20
138.6995
 30
0.0
 10
787.7354
 20
138.6995
 30
0.0
 10
850.4993
 20
181.5572
 30
0.0
 10
850.4993
 20
181.5572
 30
0.0
 10
850.4993
 20
181.5572
 30
0.0
 10
943.7876
 20
122.9099
 30
0.0
 10
943.7876
 20
122.9099
 30
0.0
 10
943.7876
 20
122.9099
 30
0.0
 10
855.5905
 20
63.1375
 30
0.0
 10
855.5905
 20
63.1375
 30
0.0
 10
797.623
 20
87.4792
 30
0.0
 10
751.8403
 20
83.9091
 30
0.0
 10
702.93
 20
63.1321
 30
0.0
  0
SPLINE
  5
92
330
1F
100
AcDbEntity
  8
Layer 1
 62
   250
370
    20
100
AcDbSpline
210
0.0
220
0.0
230
1.0
 70
    11
 71
     3
 72
    17
 73
    13
 74
     0
 42
0.0000000001
 43
0.0000000001
 40
0.0
 40
0.0
 40
0.0
 40
0.0
 40
0.25
 40
0.25
 40
0.25
 40
0.5
 40
0.5
 40
0.5
 40
0.75
 40
0.75
 40
0.75
 40
1.0
 40
1.0
 40
1.0
 40
1.0
 10
791.0416
 20
169.6244
 30
0.0
 10
791.0416
 20
169.6244
 30
0.0
 10
906.3791
 20
241.8057
 30
0.0
 10
906.3791
 20
241.8057
 30
0.0
 10
906.3791
 20
241.8057
 30
0.0
 10
789.3497
 20
319.6288
 30
0.0
 10
789.3497
 20
319.6288
 30
0.0
 10
789.3497
 20
319.6288
 30
0.0
 10
672.3125
 20
246.3224
 30
0.0
 10
672.3125
 20
246.3224
 30
0.0
 10
672.3125
 20
246.3224
 30
0.0
 10
791.0416
 20
169.6244
 30
0.0
 10
791.0416
 20
169.6244
 30
0.0
  0
SPLINE
  5
93
330
1F
100
AcDbEntity
  8
Layer 1
 62
   250
370
    20
100
AcDbSpline
210
0.0
220
0.0
230
1.0
 70
    11
 71
     3
 72
    26
 73
    22
 74
     0
 42
0.0000000001
 43
0.0000000001
 40
0.0
 40
0.0
 40
0.0
 40
0.0
 40
0.1428571428571428
 40
0.1428571428571428
 40
0.1428571428571428
 40
0.2857142857142857
 40
0.2857142857142857
 40
0.2857142857142857
 40
0.4285714285714285
 40
0.4285714285714285
 40
0.4285714285714285
 40
0.5714285714285714
 40
0.5714285714285714
 40
0.5714285714285714
 40
0.7142857142857142
 40
0.7142857142857142
 40
0.7142857142857142
 40
0.8571428571428571
 40
0.8571428571428571
 40
0.8571428571428571
 40
1.0
 40
1.0
 40
1.0
 40
1.0
 10
510.7732
 20
193.9661
 30
0.0
 10
510.7732
 20
193.9661
 30
0.0
 10
600.6777
 20
131.9326
 30
0.0
 10
600.6777
 20
131.9326
 30
0.0
 10
600.6777
 20
131.9326
 30
0.0
 10
700.7413
 20
197.3469
 30
0.0
 10
700.7413
 20
197.3469
 30
0.0
 10
700.7413
 20
197.3469
 30
0.0
 10
627.8182
 20
244.7159
 30
0.0
 10
627.8182
 20
244.7159
 30
0.0
 10
627.8182
 20
244.7159
 30
0.0
 10
688.8746
 20
283.0676
 30
0.0
 10
688.8746
 20
283.0676
 30
0.0
 10
688.8746
 20
283.0676
 30
0.0
 10
588.7954
 20
348.4819
 30
0.0
 10
588.7954
 20
348.4819
 30
0.0
 10
588.7954
 20
348.4819
 30
0.0
 10
512.4728
 20
297.7321
 30
0.0
 10
512.4728
 20
297.7321
 30
0.0
 10
549.0819
 20
259.1911
 30
0.0
 10
542.0116
 20
226.4866
 30
0.0
 10
510.7732
 20
193.9661
 30
0.0
  0
SPLINE
  5
94
330
1F
100
AcDbEntity
  8
Layer 1
 62
   250
370
    20
100
AcDbSpline
210
0.0
220
0.0
230
1.0
 70
    11
 71
     3
 72
    26
 73
    22
 74
     0
 42
0.0000000001
 43
0.0000000001
 40
0.0
 40
0.0
 40
0.0
 40
0.0
 40
0.1428571428571428
 40
0.1428571428571428
 40
0.1428571428571428
 40
0.2857142857142857
 40
0.2857142857142857
 40
0.2857142857142857
 40
0.4285714285714285
 40
0.4285714285714285
 40
0.4285714285714285
 40
0.5714285714285714
 40
0.5714285714285714
 40
0.5714285714285714
 40
0.7142857142857142
 40
0.7142857142857142
 40
0.7142857142857142
 40
0.8571428571428571
 40
0.8571428571428571
 40
0.8571428571428571
 40
1.0
 40
1.0
 40
1.0
 40
1.0
 10
703.4577
 20
423.1839
 30
0.0
 10
703.4577
 20
423.1839
 30
0.0
 10
616.9526
 20
364.5366
 30
0.0
 10
616.9526
 20
364.5366
 30
0.0
 10
616.9526
 20
364.5366
 30
0.0
 10
717.0319
 20
297.9918
 30
0.0
 10
717.0319
 20
297.9918
 30
0.0
 10
717.0319
 20
297.9918
 30
0.0
 10
793.3466
 20
348.7523
 30
0.0
 10
793.3466
 20
348.7523
 30
0.0
 10
793.3466
 20
348.7523
 30
0.0
 10
854.8688
 20
305.5864
 30
0.0
 10
854.8688
 20
305.5864
 30
0.0
 10
854.8688
 20
305.5864
 30
0.0
 10
943.0736
 20
365.5698
 30
0.0
 10
943.0736
 20
365.5698
 30
0.0
 10
943.0736
 20
365.5698
 30
0.0
 10
856.1183
 20
423.1839
 30
0.0
 10
856.1183
 20
423.1839
 30
0.0
 10
798.1663
 20
398.8422
 30
0.0
 10
752.3603
 20
402.4123
 30
0.0
 10
703.4577
 20
423.1839
 30
0.0
  0
SPLINE
  5
95
330
1F
100
AcDbEntity
  8
Layer 1
 62
   250
370
    20
100
AcDbSpline
210
0.0
220
0.0
230
1.0
 70
    11
 71
     3
 72
    17
 73
    13
 74
     0
 42
0.0000000001
 43
0.0000000001
 40
0.0
 40
0.0
 40
0.0
 40
0.0
 40
0.25
 40
0.25
 40
0.25
 40
0.5
 40
0.5
 40
0.5
 40
0.75
 40
0.75
 40
0.75
 40
1.0
 40
1.0
 40
1.0
 40
1.0
 10
680.7721
 20
491.2109
 30
0.0
 10
680.7721
 20
526.4793
 30
0.0
 10
724.0246
 20
555.2404
 30
0.0
 10
777.0639
 20
555.2404
 30
0.0
 10
830.0954
 20
555.2404
 30
0.0
 10
873.348
 20
526.4793
 30
0.0
 10
873.348
 20
491.2109
 30
0.0
 10
873.348
 20
455.9479
 30
0.0
 10
830.0954
 20
427.1868
 30
0.0
 10
777.0639
 20
427.1868
 30
0.0
 10
724.0246
 20
427.1868
 30
0.0
 10
680.7721
 20
455.9479
 30
0.0
 10
680.7721
 20
491.2109
 30
0.0
  0
SPLINE
  5
96
330
1F
100
AcDbEntity
  8
Layer 1
 62
   250
370
    20
100
AcDbSpline
210
0.0
220
0.0
230
1.0
 70
    11
 71
     3
 72
    26
 73
    22
 74
     0
 42
0.0000000001
 43
0.0000000001
 40
0.0
 40
0.0
 40
0.0
 40
0.0
 40
0.1428571428571428
 40
0.1428571428571428
 40
0.1428571428571428
 40
0.2857142857142857
 40
0.2857142857142857
 40
0.2857142857142857
 40
0.4285714285714285
 40
0.4285714285714285
 40
0.4285714285714285
 40
0.5714285714285714
 40
0.5714285714285714
 40
0.5714285714285714
 40
0.7142857142857142
 40
0.7142857142857142
 40
0.7142857142857142
 40
0.8571428571428571
 40
0.8571428571428571
 40
0.8571428571428571
 40
1.0
 40
1.0
 40
1.0
 40
1.0
 10
1037.7356
 20
193.3116
 30
0.0
 10
1037.7356
 20
193.3116
 30
0.0
 10
957.8661
 20
138.0504
 30
0.0
 10
957.8661
 20
138.0504
 30
0.0
 10
957.8661
 20
138.0504
 30
0.0
 10
870.2901
 20
199.2564
 30
0.0
 10
870.2901
 20
199.2564
 30
0.0
 10
870.2901
 20
199.2564
 30
0.0
 10
950.788
 20
246.7335
 30
0.0
 10
950.788
 20
246.7335
 30
0.0
 10
950.788
 20
246.7335
 30
0.0
 10
877.9968
 20
295.3358
 30
0.0
 10
877.9968
 20
295.3358
 30
0.0
 10
877.9968
 20
295.3358
 30
0.0
 10
962.0262
 20
354.2914
 30
0.0
 10
962.0262
 20
354.2914
 30
0.0
 10
962.0262
 20
354.2914
 30
0.0
 10
1040.0484
 20
298.4083
 30
0.0
 10
1040.0484
 20
298.4083
 30
0.0
 10
1003.4393
 20
259.8726
 30
0.0
 10
1006.4971
 20
225.8267
 30
0.0
 10
1037.7356
 20
193.3116
 30
0.0
  0
SPLINE
  5
97
330
1F
100
AcDbEntity
  8
Layer 1
 62
   250
370
    20
100
AcDbSpline
210
0.0
220
0.0
230
1.0
 70
    11
 71
     3
 72
    26
 73
    22
 74
     0
 42
0.0000000001
 43
0.0000000001
 40
0.0
 40
0.0
 40
0.0
 40
0.0
 40
0.1428571428571428
 40
0.1428571428571428
 40
0.1428571428571428
 40
0.2857142857142857
 40
0.2857142857142857
 40
0.2857142857142857
 40
0.4285714285714285
 40
0.4285714285714285
 40
0.4285714285714285
 40
0.5714285714285714
 40
0.5714285714285714
 40
0.5714285714285714
 40
0.7142857142857142
 40
0.7142857142857142
 40
0.7142857142857142
 40
0.8571428571428571
 40
0.8571428571428571
 40
0.8571428571428571
 40
1.0
 40
1.0
 40
1.0
 40
1.0
 10
875.7462
 20
438.054
 30
0.0
 10
875.7462
 20
438.054
 30
0.0
 10
953.5976
 20
380.0234
 30
0.0
 10
953.5976
 20
380.0234
 30
0.0
 10
953.5976
 20
380.0234
 30
0.0
 10
1049.6643
 20
446.7683
 30
0.0
 10
1049.6643
 20
446.7683
 30
0.0
 10
1049.6643
 20
446.7683
 30
0.0
 10
982.7405
 20
487.4731
 30
0.0
 10
982.7405
 20
487.4731
 30
0.0
 10
982.7405
 20
487.4731
 30
0.0
 10
1041.7946
 20
527.1555
 30
0.0
 10
1041.7946
 20
527.1555
 30
0.0
 10
1041.7946
 20
527.1555
 30
0.0
 10
947.738
 20
589.9031
 30
0.0
 10
947.738
 20
589.9031
 30
0.0
 10
947.738
 20
589.9031
 30
0.0
 10
877.4302
 20
541.82
 30
0.0
 10
877.4302
 20
541.82
 30
0.0
 10
914.0471
 20
503.279
 30
0.0
 10
906.9845
 20
470.5746
 30
0.0
 10
875.7462
 20
438.054
 30
0.0
  0
SPLINE
  5
98
330
1F
100
AcDbEntity
  8
Layer 1
 62
   250
370
    20
100
AcDbSpline
210
0.0
220
0.0
230
1.0
 70
    11
 71
     3
 72
    17
 73
    13
 74
     0
 42
0.0000000001
 43
0.0000000001
 40
0.0
 40
0.0
 40
0.0
 40
0.0
 40
0.25
 40
0.25
 40
0.25
 40
0.5
 40
0.5
 40
0.5
 40
0.75
 40
0.75
 40
0.75
 40
1.0
 40
1.0
 40
1.0
 40
1.0
 10
-401.0383
 20
-242.7784
 30
0.0
 10
-401.0383
 20
-207.5154
 30
0.0
 10
-357.778
 20
-178.7543
 30
0.0
 10
-304.7387
 20
-178.7543
 30
0.0
 10
-251.7149
 20
-178.7543
 30
0.0
 10
-208.4546
 20
-207.5154
 30
0.0
 10
-208.4546
 20
-242.7784
 30
0.0
 10
-208.4546
 20
-278.0469
 30
0.0
 10
-251.7149
 20
-306.8026
 30
0.0
 10
-304.7387
 20
-306.8026
 30
0.0
 10
-357.778
 20
-306.8026
 30
0.0
 10
-401.0383
 20
-278.0469
 30
0.0
 10
-401.0383
 20
-242.7784
 30
0.0
  0
SPLINE
  5
99
330
1F
100
AcDbEntity
  8
Layer 1
 62
   250
370
    20
100
AcDbSpline
210
0.0
220
0.0
230
1.0
 70
    11
 71
     3
 72
    20
 73
    16
 74
     0
 42
0.0000000001
 43
0.0000000001
 40
0.0
 40
0.0
 40
0.0
 40
0.0
 40
0.2
 40
0.2
 40
0.2
 40
0.4
 40
0.4
 40
0.4
 40
0.6000000000000001
 40
0.6000000000000001
 40
0.6000000000000001
 40
0.8
 40
0.8
 40
0.8
 40
1.0
 40
1.0
 40
1.0
 40
1.0
 10
-1196.6584
 20
-586.5971
 30
0.0
 10
-1196.6584
 20
-586.5971
 30
0.0
 10
-1196.6584
 20
-397.7811
 30
0.0
 10
-1196.6584
 20
-397.7811
 30
0.0
 10
-1196.6584
 20
-397.7811
 30
0.0
 10
-1117.1073
 20
-447.7898
 30
0.0
 10
-1117.1073
 20
-447.7898
 30
0.0
 10
-1117.1073
 20
-447.7898
 30
0.0
 10
-1188.3464
 20
-488.3864
 30
0.0
 10
-1188.3464
 20
-488.3864
 30
0.0
 10
-1188.3464
 20
-488.3864
 30
0.0
 10
-1117.1073
 20
-530.1189
 30
0.0
 10
-1117.1073
 20
-530.1189
 30
0.0
 10
-1117.1073
 20
-530.1189
 30
0.0
 10
-1196.6584
 20
-586.5971
 30
0.0
 10
-1196.6584
 20
-586.5971
 30
0.0
  0
SPLINE
  5
9A
330
1F
100
AcDbEntity
  8
Layer 1
 62
   250
370
    20
100
AcDbSpline
210
0.0
220
0.0
230
1.0
 70
    11
 71
     3
 72
    29
 73
    25
 74
     0
 42
0.0000000001
 43
0.0000000001
 40
0.0
 40
0.0
 40
0.0
 40
0.0
 40
0.125
 40
0.125
 40
0.125
 40
0.25
 40
0.25
 40
0.25
 40
0.375
 40
0.375
 40
0.375
 40
0.5
 40
0.5
 40
0.5
 40
0.625
 40
0.625
 40
0.625
 40
0.75
 40
0.75
 40
0.75
 40
0.875
 40
0.875
 40
0.875
 40
1.0
 40
1.0
 40
1.0
 40
1.0
 10
-1196.6584
 20
-370.1019
 30
0.0
 10
-1196.6584
 20
-370.1019
 30
0.0
 10
-1196.6584
 20
-367.592
 30
0.0
 10
-1196.6584
 20
-367.592
 30
0.0
 10
-1196.6584
 20
-367.592
 30
0.0
 10
-1110.3241
 20
-310.1888
 30
0.0
 10
-1110.3241
 20
-310.1888
 30
0.0
 10
-1061.4215
 20
-330.9604
 30
0.0
 10
-1013.9236
 20
-333.4053
 30
0.0
 10
-955.9715
 20
-309.0582
 30
0.0
 10
-955.9715
 20
-309.0582
 30
0.0
 10
-864.383
 20
-373.3474
 30
0.0
 10
-864.383
 20
-373.3474
 30
0.0
 10
-864.383
 20
-373.3474
 30
0.0
 10
-950.8803
 20
-429.7391
 30
0.0
 10
-950.8803
 20
-429.7391
 30
0.0
 10
-950.8803
 20
-429.7391
 30
0.0
 10
-1023.8191
 20
-384.6257
 30
0.0
 10
-1023.8191
 20
-384.6257
 30
0.0
 10
-1023.8191
 20
-384.6257
 30
0.0
 10
-1100.1493
 20
-435.3809
 30
0.0
 10
-1100.1493
 20
-435.3809
 30
0.0
 10
-1100.1493
 20
-435.3809
 30
0.0
 10
-1196.6584
 20
-370.1019
 30
0.0
 10
-1196.6584
 20
-370.1019
 30
0.0
  0
SPLINE
  5
9B
330
1F
100
AcDbEntity
  8
Layer 1
 62
   250
370
    20
100
AcDbSpline
210
0.0
220
0.0
230
1.0
 70
    11
 71
     3
 72
    17
 73
    13
 74
     0
 42
0.0000000001
 43
0.0000000001
 40
0.0
 40
0.0
 40
0.0
 40
0.0
 40
0.25
 40
0.25
 40
0.25
 40
0.5
 40
0.5
 40
0.5
 40
0.75
 40
0.75
 40
0.75
 40
1.0
 40
1.0
 40
1.0
 40
1.0
 10
-1196.6584
 20
-345.8413
 30
0.0
 10
-1196.6584
 20
-345.8413
 30
0.0
 10
-1196.6584
 20
-147.4941
 30
0.0
 10
-1196.6584
 20
-147.4941
 30
0.0
 10
-1196.6584
 20
-147.4941
 30
0.0
 10
-1132.3733
 20
-188.3828
 30
0.0
 10
-1132.3733
 20
-188.3828
 30
0.0
 10
-1169.2619
 20
-220.9899
 30
0.0
 10
-1175.2068
 20
-260.272
 30
0.0
 10
-1130.6815
 20
-298.905
 30
0.0
 10
-1130.6815
 20
-298.905
 30
0.0
 10
-1196.6584
 20
-345.8413
 30
0.0
 10
-1196.6584
 20
-345.8413
 30
0.0
  0
SPLINE
  5
9C
330
1F
100
AcDbEntity
  8
Layer 1
 62
   250
370
    20
100
AcDbSpline
210
0.0
220
0.0
230
1.0
 70
    11
 71
     3
 72
    20
 73
    16
 74
     0
 42
0.0000000001
 43
0.0000000001
 40
0.0
 40
0.0
 40
0.0
 40
0.0
 40
0.2
 40
0.2
 40
0.2
 40
0.4
 40
0.4
 40
0.4
 40
0.6000000000000001
 40
0.6000000000000001
 40
0.6000000000000001
 40
0.8
 40
0.8
 40
0.8
 40
1.0
 40
1.0
 40
1.0
 40
1.0
 10
-1196.6584
 20
-98.0804
 30
0.0
 10
-1196.6584
 20
-98.0804
 30
0.0
 10
-1196.6584
 20
78.2401
 30
0.0
 10
-1196.6584
 20
78.2401
 30
0.0
 10
-1196.6584
 20
78.2401
 30
0.0
 10
-1125.5901
 20
38.3197
 30
0.0
 10
-1125.5901
 20
38.3197
 30
0.0
 10
-1125.5901
 20
38.3197
 30
0.0
 10
-1191.7379
 20
-2.2823
 30
0.0
 10
-1191.7379
 20
-2.2823
 30
0.0
 10
-1191.7379
 20
-2.2823
 30
0.0
 10
-1120.4988
 20
-44.0148
 30
0.0
 10
-1120.4988
 20
-44.0148
 30
0.0
 10
-1120.4988
 20
-44.0148
 30
0.0
 10
-1196.6584
 20
-98.0804
 30
0.0
 10
-1196.6584
 20
-98.0804
 30
0.0
  0
SPLINE
  5
9D
330
1F
100
AcDbEntity
  8
Layer 1
 62
   250
370
    20
100
AcDbSpline
210
0.0
220
0.0
230
1.0
 70
    11
 71
     3
 72
    26
 73
    22
 74
     0
 42
0.0000000001
 43
0.0000000001
 40
0.0
 40
0.0
 40
0.0
 40
0.0
 40
0.1428571428571428
 40
0.1428571428571428
 40
0.1428571428571428
 40
0.2857142857142857
 40
0.2857142857142857
 40
0.2857142857142857
 40
0.4285714285714285
 40
0.4285714285714285
 40
0.4285714285714285
 40
0.5714285714285714
 40
0.5714285714285714
 40
0.5714285714285714
 40
0.7142857142857142
 40
0.7142857142857142
 40
0.7142857142857142
 40
0.8571428571428571
 40
0.8571428571428571
 40
0.8571428571428571
 40
1.0
 40
1.0
 40
1.0
 40
1.0
 10
1199.95
 20
-63.856
 30
0.0
 10
1199.95
 20
-63.856
 30
0.0
 10
1199.95
 20
-169.7966
 30
0.0
 10
1199.95
 20
-169.7966
 30
0.0
 10
1149.177
 20
-152.2218
 30
0.0
 10
1107.3059
 20
-156.8901
 30
0.0
 10
1062.8582
 20
-175.7684
 30
0.0
 10
1062.8582
 20
-175.7684
 30
0.0
 10
976.3609
 20
-117.1211
 30
0.0
 10
976.3609
 20
-117.1211
 30
0.0
 10
976.3609
 20
-117.1211
 30
0.0
 10
1071.3488
 20
-55.0875
 30
0.0
 10
1071.3488
 20
-55.0875
 30
0.0
 10
1071.3488
 20
-55.0875
 30
0.0
 10
1140.8804
 20
-102.4565
 30
0.0
 10
1140.8804
 20
-102.4565
 30
0.0
 10
1140.8804
 20
-102.4565
 30
0.0
 10
1198.553
 20
-62.9851
 30
0.0
 10
1198.553
 20
-62.9851
 30
0.0
 10
1198.553
 20
-62.9851
 30
0.0
 10
1199.95
 20
-63.856
 30
0.0
 10
1199.95
 20
-63.856
 30
0.0
  0
SPLINE
  5
9E
330
1F
100
AcDbEntity
  8
Layer 1
 62
   250
370
    20
100
AcDbSpline
210
0.0
220
0.0
230
1.0
 70
    11
 71
     3
 72
    20
 73
    16
 74
     0
 42
0.0000000001
 43
0.0000000001
 40
0.0
 40
0.0
 40
0.0
 40
0.0
 40
0.2
 40
0.2
 40
0.2
 40
0.4
 40
0.4
 40
0.4
 40
0.6000000000000001
 40
0.6000000000000001
 40
0.6000000000000001
 40
0.8
 40
0.8
 40
0.8
 40
1.0
 40
1.0
 40
1.0
 40
1.0
 10
1199.95
 20
-190.3951
 30
0.0
 10
1199.95
 20
-190.3951
 30
0.0
 10
1199.95
 20
-289.8283
 30
0.0
 10
1199.95
 20
-289.8283
 30
0.0
 10
1183.3878
 20
-298.7698
 30
0.0
 10
1162.3165
 20
-304.1412
 30
0.0
 10
1139.4058
 20
-304.1412
 30
0.0
 10
1086.3742
 20
-304.1412
 30
0.0
 10
1043.114
 20
-275.3747
 30
0.0
 10
1043.114
 20
-240.1117
 30
0.0
 10
1043.114
 20
-204.8487
 30
0.0
 10
1086.3742
 20
-176.0821
 30
0.0
 10
1139.4058
 20
-176.0821
 30
0.0
 10
1162.3165
 20
-176.0821
 30
0.0
 10
1183.3878
 20
-181.4536
 30
0.0
 10
1199.95
 20
-190.3951
 30
0.0
  0
SPLINE
  5
9F
330
1F
100
AcDbEntity
  8
Layer 1
 62
   250
370
    20
100
AcDbSpline
210
0.0
220
0.0
230
1.0
 70
    11
 71
     3
 72
    23
 73
    19
 74
     0
 42
0.0000000001
 43
0.0000000001
 40
0.0
 40
0.0
 40
0.0
 40
0.0
 40
0.1666666666666667
 40
0.1666666666666667
 40
0.1666666666666667
 40
0.3333333333333333
 40
0.3333333333333333
 40
0.3333333333333333
 40
0.5
 40
0.5
 40
0.5
 40
0.6666666666666666
 40
0.6666666666666666
 40
0.6666666666666666
 40
0.8333333333333333
 40
0.8333333333333333
 40
0.8333333333333333
 40
1.0
 40
1.0
 40
1.0
 40
1.0
 10
1199.95
 20
-311.1625
 30
0.0
 10
1199.95
 20
-311.1625
 30
0.0
 10
1199.95
 20
-417.2977
 30
0.0
 10
1199.95
 20
-417.2977
 30
0.0
 10
1199.95
 20
-417.2977
 30
0.0
 10
1148.2457
 20
-381.2449
 30
0.0
 10
1148.2457
 20
-381.2449
 30
0.0
 10
1148.2457
 20
-381.2449
 30
0.0
 10
1071.9154
 20
-431.9947
 30
0.0
 10
1071.9154
 20
-431.9947
 30
0.0
 10
1071.9154
 20
-431.9947
 30
0.0
 10
971.8439
 20
-365.4499
 30
0.0
 10
971.8439
 20
-365.4499
 30
0.0
 10
971.8439
 20
-365.4499
 30
0.0
 10
1058.3412
 20
-306.8026
 30
0.0
 10
1058.3412
 20
-306.8026
 30
0.0
 10
1104.0928
 20
-326.2381
 30
0.0
 10
1147.1359
 20
-330.6142
 30
0.0
 10
1199.95
 20
-311.1625
 30
0.0
  0
SPLINE
  5
A0
330
1F
100
AcDbEntity
  8
Layer 1
 62
   250
370
    20
100
AcDbSpline
210
0.0
220
0.0
230
1.0
 70
    11
 71
     3
 72
    20
 73
    16
 74
     0
 42
0.0000000001
 43
0.0000000001
 40
0.0
 40
0.0
 40
0.0
 40
0.0
 40
0.2
 40
0.2
 40
0.2
 40
0.4
 40
0.4
 40
0.4
 40
0.6000000000000001
 40
0.6000000000000001
 40
0.6000000000000001
 40
0.8
 40
0.8
 40
0.8
 40
1.0
 40
1.0
 40
1.0
 40
1.0
 10
1199.95
 20
-444.0195
 30
0.0
 10
1199.95
 20
-444.0195
 30
0.0
 10
1199.95
 20
-532.8127
 30
0.0
 10
1199.95
 20
-532.8127
 30
0.0
 10
1199.95
 20
-532.8127
 30
0.0
 10
1153.3835
 20
-563.0343
 30
0.0
 10
1153.3835
 20
-563.0343
 30
0.0
 10
1153.3835
 20
-563.0343
 30
0.0
 10
1034.6389
 20
-486.3363
 30
0.0
 10
1034.6389
 20
-486.3363
 30
0.0
 10
1034.6389
 20
-486.3363
 30
0.0
 10
1151.6839
 20
-413.0244
 30
0.0
 10
1151.6839
 20
-413.0244
 30
0.0
 10
1151.6839
 20
-413.0244
 30
0.0
 10
1199.95
 20
-444.0195
 30
0.0
 10
1199.95
 20
-444.0195
 30
0.0
  0
SPLINE
  5
A1
330
1F
100
AcDbEntity
  8
Layer 1
 62
   250
370
    20
100
AcDbSpline
210
0.0
220
0.0
230
1.0
 70
    11
 71
     3
 72
    14
 73
    10
 74
     0
 42
0.0000000001
 43
0.0000000001
 40
0.0
 40
0.0
 40
0.0
 40
0.0
 40
0.3333333333333333
 40
0.3333333333333333
 40
0.3333333333333333
 40
0.6666666666666666
 40
0.6666666666666666
 40
0.6666666666666666
 40
1.0
 40
1.0
 40
1.0
 40
1.0
 10
1199.95
 20
-559.7509
 30
0.0
 10
1199.95
 20
-559.7509
 30
0.0
 10
1199.95
 20
-590.0266
 30
0.0
 10
1199.95
 20
-590.0266
 30
0.0
 10
1199.95
 20
-590.0266
 30
0.0
 10
1152.8169
 20
-590.0266
 30
0.0
 10
1152.8169
 20
-590.0266
 30
0.0
 10
1152.8169
 20
-590.0266
 30
0.0
 10
1199.95
 20
-559.7509
 30
0.0
 10
1199.95
 20
-559.7509
 30
0.0
  0
SPLINE
  5
A2
330
1F
100
AcDbEntity
  8
Layer 1
 62
   250
370
    20
100
AcDbSpline
210
0.0
220
0.0
230
1.0
 70
    11
 71
     3
 72
    14
 73
    10
 74
     0
 42
0.0000000001
 43
0.0000000001
 40
0.0
 40
0.0
 40
0.0
 40
0.0
 40
0.3333333333333333
 40
0.3333333333333333
 40
0.3333333333333333
 40
0.6666666666666666
 40
0.6666666666666666
 40
0.6666666666666666
 40
1.0
 40
1.0
 40
1.0
 40
1.0
 10
1145.1645
 20
-590.0266
 30
0.0
 10
1145.1645
 20
-590.0266
 30
0.0
 10
1001.2196
 20
-590.0266
 30
0.0
 10
1001.2196
 20
-590.0266
 30
0.0
 10
1001.2196
 20
-590.0266
 30
0.0
 10
1078.0
 20
-541.7651
 30
0.0
 10
1078.0
 20
-541.7651
 30
0.0
 10
1078.0
 20
-541.7651
 30
0.0
 10
1145.1645
 20
-590.0266
 30
0.0
 10
1145.1645
 20
-590.0266
 30
0.0
  0
SPLINE
  5
A3
330
1F
100
AcDbEntity
  8
Layer 1
 62
   250
370
    20
100
AcDbSpline
210
0.0
220
0.0
230
1.0
 70
    11
 71
     3
 72
    29
 73
    25
 74
     0
 42
0.0000000001
 43
0.0000000001
 40
0.0
 40
0.0
 40
0.0
 40
0.0
 40
0.125
 40
0.125
 40
0.125
 40
0.25
 40
0.25
 40
0.25
 40
0.375
 40
0.375
 40
0.375
 40
0.5
 40
0.5
 40
0.5
 40
0.625
 40
0.625
 40
0.625
 40
0.75
 40
0.75
 40
0.75
 40
0.875
 40
0.875
 40
0.875
 40
1.0
 40
1.0
 40
1.0
 40
1.0
 10
963.2602
 20
-590.0266
 30
0.0
 10
963.2602
 20
-590.0266
 30
0.0
 10
951.5952
 20
-590.0266
 30
0.0
 10
951.5952
 20
-590.0266
 30
0.0
 10
951.5952
 20
-590.0266
 30
0.0
 10
883.251
 20
-540.0287
 30
0.0
 10
883.251
 20
-540.0287
 30
0.0
 10
914.4817
 20
-507.5082
 30
0.0
 10
917.5473
 20
-473.4676
 30
0.0
 10
880.9305
 20
-434.9266
 30
0.0
 10
880.9305
 20
-434.9266
 30
0.0
 10
961.2733
 20
-381.51
 30
0.0
 10
961.2733
 20
-381.51
 30
0.0
 10
961.2733
 20
-381.51
 30
0.0
 10
1059.3424
 20
-446.9243
 30
0.0
 10
1059.3424
 20
-446.9243
 30
0.0
 10
1059.3424
 20
-446.9243
 30
0.0
 10
992.2633
 20
-489.2735
 30
0.0
 10
992.2633
 20
-489.2735
 30
0.0
 10
992.2633
 20
-489.2735
 30
0.0
 10
1059.1872
 20
-527.3061
 30
0.0
 10
1059.1872
 20
-527.3061
 30
0.0
 10
1059.1872
 20
-527.3061
 30
0.0
 10
963.2602
 20
-590.0266
 30
0.0
 10
963.2602
 20
-590.0266
 30
0.0
  0
SPLINE
  5
A4
330
1F
100
AcDbEntity
  8
Layer 1
 62
   250
370
    20
100
AcDbSpline
210
0.0
220
0.0
230
1.0
 70
    11
 71
     3
 72
    17
 73
    13
 74
     0
 42
0.0000000001
 43
0.0000000001
 40
0.0
 40
0.0
 40
0.0
 40
0.0
 40
0.25
 40
0.25
 40
0.25
 40
0.5
 40
0.5
 40
0.5
 40
0.75
 40
0.75
 40
0.75
 40
1.0
 40
1.0
 40
1.0
 40
1.0
 10
910.6788
 20
-590.0266
 30
0.0
 10
910.6788
 20
-590.0266
 30
0.0
 10
647.7486
 20
-590.0266
 30
0.0
 10
647.7486
 20
-590.0266
 30
0.0
 10
647.7486
 20
-590.0266
 30
0.0
 10
702.8369
 20
-552.6756
 30
0.0
 10
702.8369
 20
-552.6756
 30
0.0
 10
751.7472
 20
-573.4472
 30
0.0
 10
797.5376
 20
-577.0227
 30
0.0
 10
855.4897
 20
-552.6756
 30
0.0
 10
855.4897
 20
-552.6756
 30
0.0
 10
910.6788
 20
-590.0266
 30
0.0
 10
910.6788
 20
-590.0266
 30
0.0
  0
SPLINE
  5
A5
330
1F
100
AcDbEntity
  8
Layer 1
 62
   250
370
    20
100
AcDbSpline
210
0.0
220
0.0
230
1.0
 70
    11
 71
     3
 72
    29
 73
    25
 74
     0
 42
0.0000000001
 43
0.0000000001
 40
0.0
 40
0.0
 40
0.0
 40
0.0
 40
0.125
 40
0.125
 40
0.125
 40
0.25
 40
0.25
 40
0.25
 40
0.375
 40
0.375
 40
0.375
 40
0.5
 40
0.5
 40
0.5
 40
0.625
 40
0.625
 40
0.625
 40
0.75
 40
0.75
 40
0.75
 40
0.875
 40
0.875
 40
0.875
 40
1.0
 40
1.0
 40
1.0
 40
1.0
 10
617.5192
 20
-590.0266
 30
0.0
 10
617.5192
 20
-590.0266
 30
0.0
 10
582.8194
 20
-590.0266
 30
0.0
 10
582.8194
 20
-590.0266
 30
0.0
 10
582.8194
 20
-590.0266
 30
0.0
 10
508.5458
 20
-536.0745
 30
0.0
 10
508.5458
 20
-536.0745
 30
0.0
 10
508.5458
 20
-536.0745
 30
0.0
 10
587.0492
 20
-487.2613
 30
0.0
 10
587.0492
 20
-487.2613
 30
0.0
 10
587.0492
 20
-487.2613
 30
0.0
 10
516.2603
 20
-438.6536
 30
0.0
 10
516.2603
 20
-438.6536
 30
0.0
 10
516.2603
 20
-438.6536
 30
0.0
 10
606.3044
 20
-383.7008
 30
0.0
 10
606.3044
 20
-383.7008
 30
0.0
 10
606.3044
 20
-383.7008
 30
0.0
 10
682.3243
 20
-435.5865
 30
0.0
 10
682.3243
 20
-435.5865
 30
0.0
 10
645.7074
 20
-474.1221
 30
0.0
 10
650.7677
 20
-510.8295
 30
0.0
 10
682.0061
 20
-543.35
 30
0.0
 10
682.0061
 20
-543.35
 30
0.0
 10
617.5192
 20
-590.0266
 30
0.0
 10
617.5192
 20
-590.0266
 30
0.0
  0
SPLINE
  5
A6
330
1F
100
AcDbEntity
  8
Layer 1
 62
   250
370
    20
100
AcDbSpline
210
0.0
220
0.0
230
1.0
 70
    11
 71
     3
 72
    14
 73
    10
 74
     0
 42
0.0000000001
 43
0.0000000001
 40
0.0
 40
0.0
 40
0.0
 40
0.0
 40
0.3333333333333333
 40
0.3333333333333333
 40
0.3333333333333333
 40
0.6666666666666666
 40
0.6666666666666666
 40
0.6666666666666666
 40
1.0
 40
1.0
 40
1.0
 40
1.0
 10
553.0478
 20
-590.0266
 30
0.0
 10
553.0478
 20
-590.0266
 30
0.0
 10
423.9266
 20
-590.0266
 30
0.0
 10
423.9266
 20
-590.0266
 30
0.0
 10
423.9266
 20
-590.0266
 30
0.0
 10
488.3514
 20
-548.6403
 30
0.0
 10
488.3514
 20
-548.6403
 30
0.0
 10
488.3514
 20
-548.6403
 30
0.0
 10
553.0478
 20
-590.0266
 30
0.0
 10
553.0478
 20
-590.0266
 30
0.0
  0
SPLINE
  5
A7
330
1F
100
AcDbEntity
  8
Layer 1
 62
   250
370
    20
100
AcDbSpline
210
0.0
220
0.0
230
1.0
 70
    11
 71
     3
 72
    14
 73
    10
 74
     0
 42
0.0000000001
 43
0.0000000001
 40
0.0
 40
0.0
 40
0.0
 40
0.0
 40
0.3333333333333333
 40
0.3333333333333333
 40
0.3333333333333333
 40
0.6666666666666666
 40
0.6666666666666666
 40
0.6666666666666666
 40
1.0
 40
1.0
 40
1.0
 40
1.0
 10
416.2742
 20
-590.0266
 30
0.0
 10
416.2742
 20
-590.0266
 30
0.0
 10
272.3293
 20
-590.0266
 30
0.0
 10
272.3293
 20
-590.0266
 30
0.0
 10
272.3293
 20
-590.0266
 30
0.0
 10
349.1175
 20
-541.7651
 30
0.0
 10
349.1175
 20
-541.7651
 30
0.0
 10
349.1175
 20
-541.7651
 30
0.0
 10
416.2742
 20
-590.0266
 30
0.0
 10
416.2742
 20
-590.0266
 30
0.0
  0
SPLINE
  5
A8
330
1F
100
AcDbEntity
  8
Layer 1
 62
   250
370
    20
100
AcDbSpline
210
0.0
220
0.0
230
1.0
 70
    11
 71
     3
 72
    29
 73
    25
 74
     0
 42
0.0000000001
 43
0.0000000001
 40
0.0
 40
0.0
 40
0.0
 40
0.0
 40
0.125
 40
0.125
 40
0.125
 40
0.25
 40
0.25
 40
0.25
 40
0.375
 40
0.375
 40
0.375
 40
0.5
 40
0.5
 40
0.5
 40
0.625
 40
0.625
 40
0.625
 40
0.75
 40
0.75
 40
0.75
 40
0.875
 40
0.875
 40
0.875
 40
1.0
 40
1.0
 40
1.0
 40
1.0
 10
239.1351
 20
-590.0266
 30
0.0
 10
239.1351
 20
-590.0266
 30
0.0
 10
227.4702
 20
-590.0266
 30
0.0
 10
227.4702
 20
-590.0266
 30
0.0
 10
227.4702
 20
-590.0266
 30
0.0
 10
159.1261
 20
-540.0287
 30
0.0
 10
159.1261
 20
-540.0287
 30
0.0
 10
190.3567
 20
-507.5082
 30
0.0
 10
193.4145
 20
-473.4676
 30
0.0
 10
156.7977
 20
-434.9266
 30
0.0
 10
156.7977
 20
-434.9266
 30
0.0
 10
237.1483
 20
-381.51
 30
0.0
 10
237.1483
 20
-381.51
 30
0.0
 10
237.1483
 20
-381.51
 30
0.0
 10
335.2096
 20
-446.9243
 30
0.0
 10
335.2096
 20
-446.9243
 30
0.0
 10
335.2096
 20
-446.9243
 30
0.0
 10
268.1306
 20
-489.2735
 30
0.0
 10
268.1306
 20
-489.2735
 30
0.0
 10
268.1306
 20
-489.2735
 30
0.0
 10
335.0466
 20
-527.3061
 30
0.0
 10
335.0466
 20
-527.3061
 30
0.0
 10
335.0466
 20
-527.3061
 30
0.0
 10
239.1351
 20
-590.0266
 30
0.0
 10
239.1351
 20
-590.0266
 30
0.0
  0
SPLINE
  5
A9
330
1F
100
AcDbEntity
  8
Layer 1
 62
   250
370
    20
100
AcDbSpline
210
0.0
220
0.0
230
1.0
 70
    11
 71
     3
 72
    17
 73
    13
 74
     0
 42
0.0000000001
 43
0.0000000001
 40
0.0
 40
0.0
 40
0.0
 40
0.0
 40
0.25
 40
0.25
 40
0.25
 40
0.5
 40
0.5
 40
0.5
 40
0.75
 40
0.75
 40
0.75
 40
1.0
 40
1.0
 40
1.0
 40
1.0
 10
186.5537
 20
-590.0266
 30
0.0
 10
186.5537
 20
-590.0266
 30
0.0
 10
-76.392
 20
-590.0266
 30
0.0
 10
-76.392
 20
-590.0266
 30
0.0
 10
-76.392
 20
-590.0266
 30
0.0
 10
-21.3037
 20
-552.6756
 30
0.0
 10
-21.3037
 20
-552.6756
 30
0.0
 10
27.6144
 20
-573.4472
 30
0.0
 10
73.4048
 20
-577.0227
 30
0.0
 10
131.3569
 20
-552.6756
 30
0.0
 10
131.3569
 20
-552.6756
 30
0.0
 10
186.5537
 20
-590.0266
 30
0.0
 10
186.5537
 20
-590.0266
 30
0.0
  0
SPLINE
  5
AA
330
1F
100
AcDbEntity
  8
Layer 1
 62
   250
370
    20
100
AcDbSpline
210
0.0
220
0.0
230
1.0
 70
    11
 71
     3
 72
    29
 73
    25
 74
     0
 42
0.0000000001
 43
0.0000000001
 40
0.0
 40
0.0
 40
0.0
 40
0.0
 40
0.125
 40
0.125
 40
0.125
 40
0.25
 40
0.25
 40
0.25
 40
0.375
 40
0.375
 40
0.375
 40
0.5
 40
0.5
 40
0.5
 40
0.625
 40
0.625
 40
0.625
 40
0.75
 40
0.75
 40
0.75
 40
0.875
 40
0.875
 40
0.875
 40
1.0
 40
1.0
 40
1.0
 40
1.0
 10
-102.7564
 20
-590.0266
 30
0.0
 10
-102.7564
 20
-590.0266
 30
0.0
 10
-141.1505
 20
-590.0266
 30
0.0
 10
-141.1505
 20
-590.0266
 30
0.0
 10
-141.1505
 20
-590.0266
 30
0.0
 10
-213.5925
 20
-537.4052
 30
0.0
 10
-213.5925
 20
-537.4052
 30
0.0
 10
-213.5925
 20
-537.4052
 30
0.0
 10
-135.089
 20
-488.5919
 30
0.0
 10
-135.089
 20
-488.5919
 30
0.0
 10
-135.089
 20
-488.5919
 30
0.0
 10
-205.8701
 20
-439.9842
 30
0.0
 10
-205.8701
 20
-439.9842
 30
0.0
 10
-205.8701
 20
-439.9842
 30
0.0
 10
-115.826
 20
-385.0368
 30
0.0
 10
-115.826
 20
-385.0368
 30
0.0
 10
-115.826
 20
-385.0368
 30
0.0
 10
-39.8062
 20
-436.9172
 30
0.0
 10
-39.8062
 20
-436.9172
 30
0.0
 10
-76.4152
 20
-475.4528
 30
0.0
 10
-71.355
 20
-512.1655
 30
0.0
 10
-40.1089
 20
-544.6806
 30
0.0
 10
-40.1089
 20
-544.6806
 30
0.0
 10
-102.7564
 20
-590.0266
 30
0.0
 10
-102.7564
 20
-590.0266
 30
0.0
  0
SPLINE
  5
AB
330
1F
100
AcDbEntity
  8
Layer 1
 62
   250
370
    20
100
AcDbSpline
210
0.0
220
0.0
230
1.0
 70
    11
 71
     3
 72
    17
 73
    13
 74
     0
 42
0.0000000001
 43
0.0000000001
 40
0.0
 40
0.0
 40
0.0
 40
0.0
 40
0.25
 40
0.25
 40
0.25
 40
0.5
 40
0.5
 40
0.5
 40
0.75
 40
0.75
 40
0.75
 40
1.0
 40
1.0
 40
1.0
 40
1.0
 10
-176.5177
 20
-590.0266
 30
0.0
 10
-176.5177
 20
-590.0266
 30
0.0
 10
-439.4479
 20
-590.0266
 30
0.0
 10
-439.4479
 20
-590.0266
 30
0.0
 10
-439.4479
 20
-590.0266
 30
0.0
 10
-384.3597
 20
-552.6756
 30
0.0
 10
-384.3597
 20
-552.6756
 30
0.0
 10
-335.457
 20
-573.4472
 30
0.0
 10
-289.6667
 20
-577.0227
 30
0.0
 10
-231.7146
 20
-552.6756
 30
0.0
 10
-231.7146
 20
-552.6756
 30
0.0
 10
-176.5177
 20
-590.0266
 30
0.0
 10
-176.5177
 20
-590.0266
 30
0.0
  0
SPLINE
  5
AC
330
1F
100
AcDbEntity
  8
Layer 1
 62
   250
370
    20
100
AcDbSpline
210
0.0
220
0.0
230
1.0
 70
    11
 71
     3
 72
    29
 73
    25
 74
     0
 42
0.0000000001
 43
0.0000000001
 40
0.0
 40
0.0
 40
0.0
 40
0.0
 40
0.125
 40
0.125
 40
0.125
 40
0.25
 40
0.25
 40
0.25
 40
0.375
 40
0.375
 40
0.375
 40
0.5
 40
0.5
 40
0.5
 40
0.625
 40
0.625
 40
0.625
 40
0.75
 40
0.75
 40
0.75
 40
0.875
 40
0.875
 40
0.875
 40
1.0
 40
1.0
 40
1.0
 40
1.0
 10
-478.2611
 20
-590.0266
 30
0.0
 10
-478.2611
 20
-590.0266
 30
0.0
 10
-488.0401
 20
-590.0266
 30
0.0
 10
-488.0401
 20
-590.0266
 30
0.0
 10
-488.0401
 20
-590.0266
 30
0.0
 10
-572.6359
 20
-538.0165
 30
0.0
 10
-572.6359
 20
-538.0165
 30
0.0
 10
-541.3898
 20
-505.4959
 30
0.0
 10
-534.335
 20
-472.7861
 30
0.0
 10
-570.9518
 20
-434.2504
 30
0.0
 10
-570.9518
 20
-434.2504
 30
0.0
 10
-492.9218
 20
-382.3701
 30
0.0
 10
-492.9218
 20
-382.3701
 30
0.0
 10
-492.9218
 20
-382.3701
 30
0.0
 10
-392.8503
 20
-446.6592
 30
0.0
 10
-392.8503
 20
-446.6592
 30
0.0
 10
-392.8503
 20
-446.6592
 30
0.0
 10
-455.6064
 20
-487.2613
 30
0.0
 10
-455.6064
 20
-487.2613
 30
0.0
 10
-455.6064
 20
-487.2613
 30
0.0
 10
-391.1506
 20
-526.7381
 30
0.0
 10
-391.1506
 20
-526.7381
 30
0.0
 10
-391.1506
 20
-526.7381
 30
0.0
 10
-478.2611
 20
-590.0266
 30
0.0
 10
-478.2611
 20
-590.0266
 30
0.0
  0
SPLINE
  5
AD
330
1F
100
AcDbEntity
  8
Layer 1
 62
   250
370
    20
100
AcDbSpline
210
0.0
220
0.0
230
1.0
 70
    11
 71
     3
 72
    17
 73
    13
 74
     0
 42
0.0000000001
 43
0.0000000001
 40
0.0
 40
0.0
 40
0.0
 40
0.0
 40
0.25
 40
0.25
 40
0.25
 40
0.5
 40
0.5
 40
0.5
 40
0.75
 40
0.75
 40
0.75
 40
1.0
 40
1.0
 40
1.0
 40
1.0
 10
-542.9419
 20
-590.0266
 30
0.0
 10
-542.9419
 20
-590.0266
 30
0.0
 10
-803.5128
 20
-590.0266
 30
0.0
 10
-803.5128
 20
-590.0266
 30
0.0
 10
-803.5128
 20
-590.0266
 30
0.0
 10
-749.0454
 20
-553.8061
 30
0.0
 10
-749.0454
 20
-553.8061
 30
0.0
 10
-700.1351
 20
-574.5777
 30
0.0
 10
-654.3368
 20
-578.1478
 30
0.0
 10
-596.3849
 20
-553.8061
 30
0.0
 10
-596.3849
 20
-553.8061
 30
0.0
 10
-542.9419
 20
-590.0266
 30
0.0
 10
-542.9419
 20
-590.0266
 30
0.0
  0
SPLINE
  5
AE
330
1F
100
AcDbEntity
  8
Layer 1
 62
   250
370
    20
100
AcDbSpline
210
0.0
220
0.0
230
1.0
 70
    11
 71
     3
 72
    29
 73
    25
 74
     0
 42
0.0000000001
 43
0.0000000001
 40
0.0
 40
0.0
 40
0.0
 40
0.0
 40
0.125
 40
0.125
 40
0.125
 40
0.25
 40
0.25
 40
0.25
 40
0.375
 40
0.375
 40
0.375
 40
0.5
 40
0.5
 40
0.5
 40
0.625
 40
0.625
 40
0.625
 40
0.75
 40
0.75
 40
0.75
 40
0.875
 40
0.875
 40
0.875
 40
1.0
 40
1.0
 40
1.0
 40
1.0
 10
-825.3214
 20
-590.0266
 30
0.0
 10
-825.3214
 20
-590.0266
 30
0.0
 10
-861.4416
 20
-590.0266
 30
0.0
 10
-861.4416
 20
-590.0266
 30
0.0
 10
-861.4416
 20
-590.0266
 30
0.0
 10
-942.4052
 20
-538.0165
 30
0.0
 10
-942.4052
 20
-538.0165
 30
0.0
 10
-942.4052
 20
-538.0165
 30
0.0
 10
-864.383
 20
-489.5169
 30
0.0
 10
-864.383
 20
-489.5169
 30
0.0
 10
-864.383
 20
-489.5169
 30
0.0
 10
-935.622
 20
-443.2731
 30
0.0
 10
-935.622
 20
-443.2731
 30
0.0
 10
-935.622
 20
-443.2731
 30
0.0
 10
-842.3338
 20
-384.6257
 30
0.0
 10
-842.3338
 20
-384.6257
 30
0.0
 10
-842.3338
 20
-384.6257
 30
0.0
 10
-767.6954
 20
-437.6312
 30
0.0
 10
-767.6954
 20
-437.6312
 30
0.0
 10
-804.5916
 20
-470.2437
 30
0.0
 10
-807.145
 20
-506.1451
 30
0.0
 10
-762.6119
 20
-544.7834
 30
0.0
 10
-762.6119
 20
-544.7834
 30
0.0
 10
-825.3214
 20
-590.0266
 30
0.0
 10
-825.3214
 20
-590.0266
 30
0.0
  0
SPLINE
  5
AF
330
1F
100
AcDbEntity
  8
Layer 1
 62
   250
370
    20
100
AcDbSpline
210
0.0
220
0.0
230
1.0
 70
    11
 71
     3
 72
    14
 73
    10
 74
     0
 42
0.0000000001
 43
0.0000000001
 40
0.0
 40
0.0
 40
0.0
 40
0.0
 40
0.3333333333333333
 40
0.3333333333333333
 40
0.3333333333333333
 40
0.6666666666666666
 40
0.6666666666666666
 40
0.6666666666666666
 40
1.0
 40
1.0
 40
1.0
 40
1.0
 10
-910.8331
 20
-590.0266
 30
0.0
 10
-910.8331
 20
-590.0266
 30
0.0
 10
-1018.9295
 20
-590.0266
 30
0.0
 10
-1018.9295
 20
-590.0266
 30
0.0
 10
-1018.9295
 20
-590.0266
 30
0.0
 10
-961.0551
 20
-551.5504
 30
0.0
 10
-961.0551
 20
-551.5504
 30
0.0
 10
-961.0551
 20
-551.5504
 30
0.0
 10
-910.8331
 20
-590.0266
 30
0.0
 10
-910.8331
 20
-590.0266
 30
0.0
  0
SPLINE
  5
B0
330
1F
100
AcDbEntity
  8
Layer 1
 62
   250
370
    20
100
AcDbSpline
210
0.0
220
0.0
230
1.0
 70
    11
 71
     3
 72
    14
 73
    10
 74
     0
 42
0.0000000001
 43
0.0000000001
 40
0.0
 40
0.0
 40
0.0
 40
0.0
 40
0.3333333333333333
 40
0.3333333333333333
 40
0.3333333333333333
 40
0.6666666666666666
 40
0.6666666666666666
 40
0.6666666666666666
 40
1.0
 40
1.0
 40
1.0
 40
1.0
 10
-1028.7008
 20
-590.0266
 30
0.0
 10
-1028.7008
 20
-590.0266
 30
0.0
 10
-1163.7748
 20
-590.0266
 30
0.0
 10
-1163.7748
 20
-590.0266
 30
0.0
 10
-1163.7748
 20
-590.0266
 30
0.0
 10
-1100.1493
 20
-542.5278
 30
0.0
 10
-1100.1493
 20
-542.5278
 30
0.0
 10
-1100.1493
 20
-542.5278
 30
0.0
 10
-1028.7008
 20
-590.0266
 30
0.0
 10
-1028.7008
 20
-590.0266
 30
0.0
  0
SPLINE
  5
B1
330
1F
100
AcDbEntity
  8
Layer 1
 62
   250
370
    20
100
AcDbSpline
210
0.0
220
0.0
230
1.0
 70
    11
 71
     3
 72
    26
 73
    22
 74
     0
 42
0.0000000001
 43
0.0000000001
 40
0.0
 40
0.0
 40
0.0
 40
0.0
 40
0.1428571428571428
 40
0.1428571428571428
 40
0.1428571428571428
 40
0.2857142857142857
 40
0.2857142857142857
 40
0.2857142857142857
 40
0.4285714285714285
 40
0.4285714285714285
 40
0.4285714285714285
 40
0.5714285714285714
 40
0.5714285714285714
 40
0.5714285714285714
 40
0.7142857142857142
 40
0.7142857142857142
 40
0.7142857142857142
 40
0.8571428571428571
 40
0.8571428571428571
 40
0.8571428571428571
 40
1.0
 40
1.0
 40
1.0
 40
1.0
 10
-571.2622
 20
-291.3104
 30
0.0
 10
-571.2622
 20
-291.3104
 30
0.0
 10
-499.1462
 20
-243.2707
 30
0.0
 10
-499.1462
 20
-243.2707
 30
0.0
 10
-499.1462
 20
-243.2707
 30
0.0
 10
-574.6615
 20
-192.8022
 30
0.0
 10
-574.6615
 20
-192.8022
 30
0.0
 10
-574.6615
 20
-192.8022
 30
0.0
 10
-483.1118
 20
-133.0514
 30
0.0
 10
-483.1118
 20
-133.0514
 30
0.0
 10
-483.1118
 20
-133.0514
 30
0.0
 10
-400.6812
 20
-191.5851
 30
0.0
 10
-400.6812
 20
-191.5851
 30
0.0
 10
-440.8293
 20
-222.921
 30
0.0
 10
-437.43
 20
-265.9085
 30
0.0
 10
-404.0806
 20
-292.3544
 30
0.0
 10
-404.0806
 20
-292.3544
 30
0.0
 10
-490.283
 20
-350.9747
 30
0.0
 10
-490.283
 20
-350.9747
 30
0.0
 10
-490.283
 20
-350.9747
 30
0.0
 10
-571.2622
 20
-291.3104
 30
0.0
 10
-571.2622
 20
-291.3104
 30
0.0
  0
SPLINE
  5
B2
330
1F
100
AcDbEntity
  8
Layer 1
 62
   250
370
    20
100
AcDbSpline
210
0.0
220
0.0
230
1.0
 70
    11
 71
     3
 72
    26
 73
    22
 74
     0
 42
0.0000000001
 43
0.0000000001
 40
0.0
 40
0.0
 40
0.0
 40
0.0
 40
0.1428571428571428
 40
0.1428571428571428
 40
0.1428571428571428
 40
0.2857142857142857
 40
0.2857142857142857
 40
0.2857142857142857
 40
0.4285714285714285
 40
0.4285714285714285
 40
0.4285714285714285
 40
0.5714285714285714
 40
0.5714285714285714
 40
0.5714285714285714
 40
0.7142857142857142
 40
0.7142857142857142
 40
0.7142857142857142
 40
0.8571428571428571
 40
0.8571428571428571
 40
0.8571428571428571
 40
1.0
 40
1.0
 40
1.0
 40
1.0
 10
-207.9657
 20
-293.2686
 30
0.0
 10
-207.9657
 20
-293.2686
 30
0.0
 10
-118.0613
 20
-355.3021
 30
0.0
 10
-118.0613
 20
-355.3021
 30
0.0
 10
-118.0613
 20
-355.3021
 30
0.0
 10
-17.9975
 20
-289.8878
 30
0.0
 10
-17.9975
 20
-289.8878
 30
0.0
 10
-17.9975
 20
-289.8878
 30
0.0
 10
-90.9363
 20
-242.5188
 30
0.0
 10
-90.9363
 20
-242.5188
 30
0.0
 10
-90.9363
 20
-242.5188
 30
0.0
 10
-29.872
 20
-204.1671
 30
0.0
 10
-29.872
 20
-204.1671
 30
0.0
 10
-29.872
 20
-204.1671
 30
0.0
 10
-129.9434
 20
-138.7527
 30
0.0
 10
-129.9434
 20
-138.7527
 30
0.0
 10
-129.9434
 20
-138.7527
 30
0.0
 10
-206.2737
 20
-189.5079
 30
0.0
 10
-206.2737
 20
-189.5079
 30
0.0
 10
-169.6492
 20
-228.0436
 30
0.0
 10
-176.7195
 20
-260.748
 30
0.0
 10
-207.9657
 20
-293.2686
 30
0.0
  0
SPLINE
  5
B3
330
1F
100
AcDbEntity
  8
Layer 1
 62
   250
370
    20
100
AcDbSpline
210
0.0
220
0.0
230
1.0
 70
    11
 71
     3
 72
    26
 73
    22
 74
     0
 42
0.0000000001
 43
0.0000000001
 40
0.0
 40
0.0
 40
0.0
 40
0.0
 40
0.1428571428571428
 40
0.1428571428571428
 40
0.1428571428571428
 40
0.2857142857142857
 40
0.2857142857142857
 40
0.2857142857142857
 40
0.4285714285714285
 40
0.4285714285714285
 40
0.4285714285714285
 40
0.5714285714285714
 40
0.5714285714285714
 40
0.5714285714285714
 40
0.7142857142857142
 40
0.7142857142857142
 40
0.7142857142857142
 40
0.8571428571428571
 40
0.8571428571428571
 40
0.8571428571428571
 40
1.0
 40
1.0
 40
1.0
 40
1.0
 10
-379.2762
 20
-177.1045
 30
0.0
 10
-379.2762
 20
-177.1045
 30
0.0
 10
-465.7812
 20
-118.4518
 30
0.0
 10
-465.7812
 20
-118.4518
 30
0.0
 10
-465.7812
 20
-118.4518
 30
0.0
 10
-370.7933
 20
-56.4237
 30
0.0
 10
-370.7933
 20
-56.4237
 30
0.0
 10
-370.7933
 20
-56.4237
 30
0.0
 10
-301.2462
 20
-103.7926
 30
0.0
 10
-301.2462
 20
-103.7926
 30
0.0
 10
-301.2462
 20
-103.7926
 30
0.0
 10
-243.5813
 20
-64.3158
 30
0.0
 10
-243.5813
 20
-64.3158
 30
0.0
 10
-243.5813
 20
-64.3158
 30
0.0
 10
-145.2096
 20
-126.3493
 30
0.0
 10
-145.2096
 20
-126.3493
 30
0.0
 10
-145.2096
 20
-126.3493
 30
0.0
 10
-226.6233
 20
-177.1045
 30
0.0
 10
-226.6233
 20
-177.1045
 30
0.0
 10
-284.5676
 20
-152.752
 30
0.0
 10
-330.3735
 20
-156.3275
 30
0.0
 10
-379.2762
 20
-177.1045
 30
0.0
  0
SPLINE
  5
B4
330
1F
100
AcDbEntity
  8
Layer 1
 62
   250
370
    20
100
AcDbSpline
210
0.0
220
0.0
230
1.0
 70
    11
 71
     3
 72
    26
 73
    22
 74
     0
 42
0.0000000001
 43
0.0000000001
 40
0.0
 40
0.0
 40
0.0
 40
0.0
 40
0.1428571428571428
 40
0.1428571428571428
 40
0.1428571428571428
 40
0.2857142857142857
 40
0.2857142857142857
 40
0.2857142857142857
 40
0.4285714285714285
 40
0.4285714285714285
 40
0.4285714285714285
 40
0.5714285714285714
 40
0.5714285714285714
 40
0.5714285714285714
 40
0.7142857142857142
 40
0.7142857142857142
 40
0.7142857142857142
 40
0.8571428571428571
 40
0.8571428571428571
 40
0.8571428571428571
 40
1.0
 40
1.0
 40
1.0
 40
1.0
 10
-384.3597
 20
-306.8026
 30
0.0
 10
-384.3597
 20
-306.8026
 30
0.0
 10
-470.8725
 20
-365.4499
 30
0.0
 10
-470.8725
 20
-365.4499
 30
0.0
 10
-470.8725
 20
-365.4499
 30
0.0
 10
-370.7933
 20
-431.9947
 30
0.0
 10
-370.7933
 20
-431.9947
 30
0.0
 10
-370.7933
 20
-431.9947
 30
0.0
 10
-294.4707
 20
-381.2449
 30
0.0
 10
-294.4707
 20
-381.2449
 30
0.0
 10
-294.4707
 20
-381.2449
 30
0.0
 10
-224.9237
 20
-429.7391
 30
0.0
 10
-224.9237
 20
-429.7391
 30
0.0
 10
-224.9237
 20
-429.7391
 30
0.0
 10
-136.7266
 20
-371.0918
 30
0.0
 10
-136.7266
 20
-371.0918
 30
0.0
 10
-136.7266
 20
-371.0918
 30
0.0
 10
-231.7146
 20
-306.8026
 30
0.0
 10
-231.7146
 20
-306.8026
 30
0.0
 10
-289.6667
 20
-331.1443
 30
0.0
 10
-335.457
 20
-327.5742
 30
0.0
 10
-384.3597
 20
-306.8026
 30
0.0
  0
SPLINE
  5
B5
330
1F
100
AcDbEntity
  8
Layer 1
 62
   250
370
    20
100
AcDbSpline
210
0.0
220
0.0
230
1.0
 70
    11
 71
     3
 72
    17
 73
    13
 74
     0
 42
0.0000000001
 43
0.0000000001
 40
0.0
 40
0.0
 40
0.0
 40
0.0
 40
0.25
 40
0.25
 40
0.25
 40
0.5
 40
0.5
 40
0.5
 40
0.75
 40
0.75
 40
0.75
 40
1.0
 40
1.0
 40
1.0
 40
1.0
 10
-292.7711
 20
-561.7037
 30
0.0
 10
-292.7711
 20
-561.7037
 30
0.0
 10
-177.4335
 20
-489.5169
 30
0.0
 10
-177.4335
 20
-489.5169
 30
0.0
 10
-177.4335
 20
-489.5169
 30
0.0
 10
-294.4707
 20
-411.6992
 30
0.0
 10
-294.4707
 20
-411.6992
 30
0.0
 10
-294.4707
 20
-411.6992
 30
0.0
 10
-411.508
 20
-485.0056
 30
0.0
 10
-411.508
 20
-485.0056
 30
0.0
 10
-411.508
 20
-485.0056
 30
0.0
 10
-292.7711
 20
-561.7037
 30
0.0
 10
-292.7711
 20
-561.7037
 30
0.0
  0
SPLINE
  5
B6
330
1F
100
AcDbEntity
  8
Layer 1
 62
   250
370
    20
100
AcDbSpline
210
0.0
220
0.0
230
1.0
 70
    11
 71
     3
 72
    17
 73
    13
 74
     0
 42
0.0000000001
 43
0.0000000001
 40
0.0
 40
0.0
 40
0.0
 40
0.0
 40
0.25
 40
0.25
 40
0.25
 40
0.5
 40
0.5
 40
0.5
 40
0.75
 40
0.75
 40
0.75
 40
1.0
 40
1.0
 40
1.0
 40
1.0
 10
-411.508
 20
3.3542
 30
0.0
 10
-411.508
 20
3.3542
 30
0.0
 10
-296.1549
 20
-74.469
 30
0.0
 10
-296.1549
 20
-74.469
 30
0.0
 10
-296.1549
 20
-74.469
 30
0.0
 10
-182.5171
 20
1.0985
 30
0.0
 10
-182.5171
 20
1.0985
 30
0.0
 10
-182.5171
 20
1.0985
 30
0.0
 10
-299.5621
 20
75.5409
 30
0.0
 10
-299.5621
 20
75.5409
 30
0.0
 10
-299.5621
 20
75.5409
 30
0.0
 10
-411.508
 20
3.3542
 30
0.0
 10
-411.508
 20
3.3542
 30
0.0
  0
SPLINE
  5
B7
330
1F
100
AcDbEntity
  8
Layer 1
 62
   250
370
    20
100
AcDbSpline
210
0.0
220
0.0
230
1.0
 70
    11
 71
     3
 72
    26
 73
    22
 74
     0
 42
0.0000000001
 43
0.0000000001
 40
0.0
 40
0.0
 40
0.0
 40
0.0
 40
0.1428571428571428
 40
0.1428571428571428
 40
0.1428571428571428
 40
0.2857142857142857
 40
0.2857142857142857
 40
0.2857142857142857
 40
0.4285714285714285
 40
0.4285714285714285
 40
0.4285714285714285
 40
0.5714285714285714
 40
0.5714285714285714
 40
0.5714285714285714
 40
0.7142857142857142
 40
0.7142857142857142
 40
0.7142857142857142
 40
0.8571428571428571
 40
0.8571428571428571
 40
0.8571428571428571
 40
1.0
 40
1.0
 40
1.0
 40
1.0
 10
-743.9542
 20
-424.1026
 30
0.0
 10
-743.9542
 20
-424.1026
 30
0.0
 10
-825.368
 20
-369.9666
 30
0.0
 10
-825.368
 20
-369.9666
 30
0.0
 10
-825.368
 20
-369.9666
 30
0.0
 10
-723.6046
 20
-304.5469
 30
0.0
 10
-723.6046
 20
-304.5469
 30
0.0
 10
-723.6046
 20
-304.5469
 30
0.0
 10
-659.141
 20
-348.5351
 30
0.0
 10
-659.141
 20
-348.5351
 30
0.0
 10
-659.141
 20
-348.5351
 30
0.0
 10
-596.3849
 20
-305.6775
 30
0.0
 10
-596.3849
 20
-305.6775
 30
0.0
 10
-596.3849
 20
-305.6775
 30
0.0
 10
-503.1043
 20
-364.3247
 30
0.0
 10
-503.1043
 20
-364.3247
 30
0.0
 10
-503.1043
 20
-364.3247
 30
0.0
 10
-591.2936
 20
-424.1026
 30
0.0
 10
-591.2936
 20
-424.1026
 30
0.0
 10
-649.2456
 20
-399.7555
 30
0.0
 10
-695.0438
 20
-403.3256
 30
0.0
 10
-743.9542
 20
-424.1026
 30
0.0
  0
SPLINE
  5
B8
330
1F
100
AcDbEntity
  8
Layer 1
 62
   250
370
    20
100
AcDbSpline
210
0.0
220
0.0
230
1.0
 70
    11
 71
     3
 72
    26
 73
    22
 74
     0
 42
0.0000000001
 43
0.0000000001
 40
0.0
 40
0.0
 40
0.0
 40
0.0
 40
0.1428571428571428
 40
0.1428571428571428
 40
0.1428571428571428
 40
0.2857142857142857
 40
0.2857142857142857
 40
0.2857142857142857
 40
0.4285714285714285
 40
0.4285714285714285
 40
0.4285714285714285
 40
0.5714285714285714
 40
0.5714285714285714
 40
0.5714285714285714
 40
0.7142857142857142
 40
0.7142857142857142
 40
0.7142857142857142
 40
0.8571428571428571
 40
0.8571428571428571
 40
0.8571428571428571
 40
1.0
 40
1.0
 40
1.0
 40
1.0
 10
-745.6461
 20
-65.4409
 30
0.0
 10
-745.6461
 20
-65.4409
 30
0.0
 10
-827.0677
 20
-125.2188
 30
0.0
 10
-827.0677
 20
-125.2188
 30
0.0
 10
-827.0677
 20
-125.2188
 30
0.0
 10
-733.7639
 20
-188.3828
 30
0.0
 10
-733.7639
 20
-188.3828
 30
0.0
 10
-733.7639
 20
-188.3828
 30
0.0
 10
-659.141
 20
-137.6277
 30
0.0
 10
-659.141
 20
-137.6277
 30
0.0
 10
-659.141
 20
-137.6277
 30
0.0
 10
-596.3849
 20
-180.4853
 30
0.0
 10
-596.3849
 20
-180.4853
 30
0.0
 10
-596.3849
 20
-180.4853
 30
0.0
 10
-503.1043
 20
-121.838
 30
0.0
 10
-503.1043
 20
-121.838
 30
0.0
 10
-503.1043
 20
-121.838
 30
0.0
 10
-591.2936
 20
-64.3158
 30
0.0
 10
-591.2936
 20
-64.3158
 30
0.0
 10
-649.2456
 20
-88.6629
 30
0.0
 10
-696.7512
 20
-86.2125
 30
0.0
 10
-745.6461
 20
-65.4409
 30
0.0
  0
SPLINE
  5
B9
330
1F
100
AcDbEntity
  8
Layer 1
 62
   250
370
    20
100
AcDbSpline
210
0.0
220
0.0
230
1.0
 70
    11
 71
     3
 72
    17
 73
    13
 74
     0
 42
0.0000000001
 43
0.0000000001
 40
0.0
 40
0.0
 40
0.0
 40
0.0
 40
0.25
 40
0.25
 40
0.25
 40
0.5
 40
0.5
 40
0.5
 40
0.75
 40
0.75
 40
0.75
 40
1.0
 40
1.0
 40
1.0
 40
1.0
 10
-657.4491
 20
-319.2114
 30
0.0
 10
-657.4491
 20
-319.2114
 30
0.0
 10
-542.1116
 20
-245.8996
 30
0.0
 10
-542.1116
 20
-245.8996
 30
0.0
 10
-542.1116
 20
-245.8996
 30
0.0
 10
-660.8407
 20
-166.9513
 30
0.0
 10
-660.8407
 20
-166.9513
 30
0.0
 10
-660.8407
 20
-166.9513
 30
0.0
 10
-776.186
 20
-242.5188
 30
0.0
 10
-776.186
 20
-242.5188
 30
0.0
 10
-776.186
 20
-242.5188
 30
0.0
 10
-657.4491
 20
-319.2114
 30
0.0
 10
-657.4491
 20
-319.2114
 30
0.0
  0
SPLINE
  5
BA
330
1F
100
AcDbEntity
  8
Layer 1
 62
   250
370
    20
100
AcDbSpline
210
0.0
220
0.0
230
1.0
 70
    11
 71
     3
 72
    17
 73
    13
 74
     0
 42
0.0000000001
 43
0.0000000001
 40
0.0
 40
0.0
 40
0.0
 40
0.0
 40
0.25
 40
0.25
 40
0.25
 40
0.5
 40
0.5
 40
0.5
 40
0.75
 40
0.75
 40
0.75
 40
1.0
 40
1.0
 40
1.0
 40
1.0
 10
-766.9192
 20
-487.667
 30
0.0
 10
-766.9192
 20
-452.6582
 30
0.0
 10
-723.9849
 20
-424.1026
 30
0.0
 10
-671.3337
 20
-424.1026
 30
0.0
 10
-618.6824
 20
-424.1026
 30
0.0
 10
-575.7403
 20
-452.6582
 30
0.0
 10
-575.7403
 20
-487.667
 30
0.0
 10
-575.7403
 20
-522.6812
 30
0.0
 10
-618.6824
 20
-551.2313
 30
0.0
 10
-671.3337
 20
-551.2313
 30
0.0
 10
-723.9849
 20
-551.2313
 30
0.0
 10
-766.9192
 20
-522.6812
 30
0.0
 10
-766.9192
 20
-487.667
 30
0.0
  0
SPLINE
  5
BB
330
1F
100
AcDbEntity
  8
Layer 1
 62
   250
370
    20
100
AcDbSpline
210
0.0
220
0.0
230
1.0
 70
    11
 71
     3
 72
    26
 73
    22
 74
     0
 42
0.0000000001
 43
0.0000000001
 40
0.0
 40
0.0
 40
0.0
 40
0.0
 40
0.1428571428571428
 40
0.1428571428571428
 40
0.1428571428571428
 40
0.2857142857142857
 40
0.2857142857142857
 40
0.2857142857142857
 40
0.4285714285714285
 40
0.4285714285714285
 40
0.4285714285714285
 40
0.5714285714285714
 40
0.5714285714285714
 40
0.5714285714285714
 40
0.7142857142857142
 40
0.7142857142857142
 40
0.7142857142857142
 40
0.8571428571428571
 40
0.8571428571428571
 40
0.8571428571428571
 40
1.0
 40
1.0
 40
1.0
 40
1.0
 10
-935.622
 20
-293.2686
 30
0.0
 10
-935.622
 20
-293.2686
 30
0.0
 10
-845.7253
 20
-355.3021
 30
0.0
 10
-845.7253
 20
-355.3021
 30
0.0
 10
-845.7253
 20
-355.3021
 30
0.0
 10
-745.6461
 20
-289.8878
 30
0.0
 10
-745.6461
 20
-289.8878
 30
0.0
 10
-745.6461
 20
-289.8878
 30
0.0
 10
-818.577
 20
-244.7691
 30
0.0
 10
-818.577
 20
-244.7691
 30
0.0
 10
-818.577
 20
-244.7691
 30
0.0
 10
-757.5206
 20
-204.1671
 30
0.0
 10
-757.5206
 20
-204.1671
 30
0.0
 10
-757.5206
 20
-204.1671
 30
0.0
 10
-857.5921
 20
-138.7527
 30
0.0
 10
-857.5921
 20
-138.7527
 30
0.0
 10
-857.5921
 20
-138.7527
 30
0.0
 10
-933.9223
 20
-192.8887
 30
0.0
 10
-933.9223
 20
-192.8887
 30
0.0
 10
-897.3056
 20
-231.4244
 30
0.0
 10
-904.3759
 20
-260.748
 30
0.0
 10
-935.622
 20
-293.2686
 30
0.0
  0
SPLINE
  5
BC
330
1F
100
AcDbEntity
  8
Layer 1
 62
   250
370
    20
100
AcDbSpline
210
0.0
220
0.0
230
1.0
 70
    11
 71
     3
 72
    26
 73
    22
 74
     0
 42
0.0000000001
 43
0.0000000001
 40
0.0
 40
0.0
 40
0.0
 40
0.0
 40
0.1428571428571428
 40
0.1428571428571428
 40
0.1428571428571428
 40
0.2857142857142857
 40
0.2857142857142857
 40
0.2857142857142857
 40
0.4285714285714285
 40
0.4285714285714285
 40
0.4285714285714285
 40
0.5714285714285714
 40
0.5714285714285714
 40
0.5714285714285714
 40
0.7142857142857142
 40
0.7142857142857142
 40
0.7142857142857142
 40
0.8571428571428571
 40
0.8571428571428571
 40
0.8571428571428571
 40
1.0
 40
1.0
 40
1.0
 40
1.0
 10
-1110.3241
 20
-177.1045
 30
0.0
 10
-1110.3241
 20
-177.1045
 30
0.0
 10
-1191.7379
 20
-117.3266
 30
0.0
 10
-1191.7379
 20
-117.3266
 30
0.0
 10
-1191.7379
 20
-117.3266
 30
0.0
 10
-1100.1493
 20
-57.5488
 30
0.0
 10
-1100.1493
 20
-57.5488
 30
0.0
 10
-1100.1493
 20
-57.5488
 30
0.0
 10
-1030.6022
 20
-106.0429
 30
0.0
 10
-1030.6022
 20
-106.0429
 30
0.0
 10
-1030.6022
 20
-106.0429
 30
0.0
 10
-969.5535
 20
-66.5715
 30
0.0
 10
-969.5535
 20
-66.5715
 30
0.0
 10
-969.5535
 20
-66.5715
 30
0.0
 10
-877.9494
 20
-125.2188
 30
0.0
 10
-877.9494
 20
-125.2188
 30
0.0
 10
-877.9494
 20
-125.2188
 30
0.0
 10
-955.9715
 20
-178.2242
 30
0.0
 10
-955.9715
 20
-178.2242
 30
0.0
 10
-1013.9236
 20
-153.8825
 30
0.0
 10
-1061.4215
 20
-156.3275
 30
0.0
 10
-1110.3241
 20
-177.1045
 30
0.0
  0
SPLINE
  5
BD
330
1F
100
AcDbEntity
  8
Layer 1
 62
   250
370
    20
100
AcDbSpline
210
0.0
220
0.0
230
1.0
 70
    11
 71
     3
 72
    17
 73
    13
 74
     0
 42
0.0000000001
 43
0.0000000001
 40
0.0
 40
0.0
 40
0.0
 40
0.0
 40
0.25
 40
0.25
 40
0.25
 40
0.5
 40
0.5
 40
0.5
 40
0.75
 40
0.75
 40
0.75
 40
1.0
 40
1.0
 40
1.0
 40
1.0
 10
-1023.8191
 20
-76.7192
 30
0.0
 10
-1023.8191
 20
-76.7192
 30
0.0
 10
-908.4815
 20
-3.4074
 30
0.0
 10
-908.4815
 20
-3.4074
 30
0.0
 10
-908.4815
 20
-3.4074
 30
0.0
 10
-1027.2184
 20
75.5409
 30
0.0
 10
-1027.2184
 20
75.5409
 30
0.0
 10
-1027.2184
 20
75.5409
 30
0.0
 10
-1142.5481
 20
-0.0266
 30
0.0
 10
-1142.5481
 20
-0.0266
 30
0.0
 10
-1142.5481
 20
-0.0266
 30
0.0
 10
-1023.8191
 20
-76.7192
 30
0.0
 10
-1023.8191
 20
-76.7192
 30
0.0
  0
SPLINE
  5
BE
330
1F
100
AcDbEntity
  8
Layer 1
 62
   250
370
    20
100
AcDbSpline
210
0.0
220
0.0
230
1.0
 70
    11
 71
     3
 72
    17
 73
    13
 74
     0
 42
0.0000000001
 43
0.0000000001
 40
0.0
 40
0.0
 40
0.0
 40
0.0
 40
0.25
 40
0.25
 40
0.25
 40
0.5
 40
0.5
 40
0.5
 40
0.75
 40
0.75
 40
0.75
 40
1.0
 40
1.0
 40
1.0
 40
1.0
 10
-1020.4274
 20
-563.9539
 30
0.0
 10
-1020.4274
 20
-563.9539
 30
0.0
 10
-905.0899
 20
-490.6475
 30
0.0
 10
-905.0899
 20
-490.6475
 30
0.0
 10
-905.0899
 20
-490.6475
 30
0.0
 10
-1023.8191
 20
-411.6992
 30
0.0
 10
-1023.8191
 20
-411.6992
 30
0.0
 10
-1023.8191
 20
-411.6992
 30
0.0
 10
-1139.1566
 20
-487.2613
 30
0.0
 10
-1139.1566
 20
-487.2613
 30
0.0
 10
-1139.1566
 20
-487.2613
 30
0.0
 10
-1020.4274
 20
-563.9539
 30
0.0
 10
-1020.4274
 20
-563.9539
 30
0.0
  0
SPLINE
  5
BF
330
1F
100
AcDbEntity
  8
Layer 1
 62
   250
370
    20
100
AcDbSpline
210
0.0
220
0.0
230
1.0
 70
    11
 71
     3
 72
    17
 73
    13
 74
     0
 42
0.0000000001
 43
0.0000000001
 40
0.0
 40
0.0
 40
0.0
 40
0.0
 40
0.25
 40
0.25
 40
0.25
 40
0.5
 40
0.5
 40
0.5
 40
0.75
 40
0.75
 40
0.75
 40
1.0
 40
1.0
 40
1.0
 40
1.0
 10
-1131.2557
 20
-243.0705
 30
0.0
 10
-1131.2557
 20
-208.0617
 30
0.0
 10
-1088.3059
 20
-179.5062
 30
0.0
 10
-1035.647
 20
-179.5062
 30
0.0
 10
-983.0035
 20
-179.5062
 30
0.0
 10
-940.0614
 20
-208.0617
 30
0.0
 10
-940.0614
 20
-243.0705
 30
0.0
 10
-940.0614
 20
-278.0793
 30
0.0
 10
-983.0035
 20
-306.6403
 30
0.0
 10
-1035.647
 20
-306.6403
 30
0.0
 10
-1088.3059
 20
-306.6403
 30
0.0
 10
-1131.2557
 20
-278.0793
 30
0.0
 10
-1131.2557
 20
-243.0705
 30
0.0
  0
SPLINE
  5
C0
330
1F
100
AcDbEntity
  8
Layer 1
 62
   250
370
    20
100
AcDbSpline
210
0.0
220
0.0
230
1.0
 70
    11
 71
     3
 72
    17
 73
    13
 74
     0
 42
0.0000000001
 43
0.0000000001
 40
0.0
 40
0.0
 40
0.0
 40
0.0
 40
0.25
 40
0.25
 40
0.25
 40
0.5
 40
0.5
 40
0.5
 40
0.75
 40
0.75
 40
0.75
 40
1.0
 40
1.0
 40
1.0
 40
1.0
 10
-764.164
 20
-0.3187
 30
0.0
 10
-764.164
 20
34.6955
 30
0.0
 10
-721.2375
 20
63.2456
 30
0.0
 10
-668.5785
 20
63.2456
 30
0.0
 10
-615.935
 20
63.2456
 30
0.0
 10
-572.9774
 20
34.6955
 30
0.0
 10
-572.9774
 20
-0.3187
 30
0.0
 10
-572.9774
 20
-35.3275
 30
0.0
 10
-615.935
 20
-63.8831
 30
0.0
 10
-668.5785
 20
-63.8831
 30
0.0
 10
-721.2375
 20
-63.8831
 30
0.0
 10
-764.164
 20
-35.3275
 30
0.0
 10
-764.164
 20
-0.3187
 30
0.0
  0
SPLINE
  5
C1
330
1F
100
AcDbEntity
  8
Layer 1
 62
   250
370
    20
100
AcDbSpline
210
0.0
220
0.0
230
1.0
 70
    11
 71
     3
 72
    26
 73
    22
 74
     0
 42
0.0000000001
 43
0.0000000001
 40
0.0
 40
0.0
 40
0.0
 40
0.0
 40
0.1428571428571428
 40
0.1428571428571428
 40
0.1428571428571428
 40
0.2857142857142857
 40
0.2857142857142857
 40
0.2857142857142857
 40
0.4285714285714285
 40
0.4285714285714285
 40
0.4285714285714285
 40
0.5714285714285714
 40
0.5714285714285714
 40
0.5714285714285714
 40
0.7142857142857142
 40
0.7142857142857142
 40
0.7142857142857142
 40
0.8571428571428571
 40
0.8571428571428571
 40
0.8571428571428571
 40
1.0
 40
1.0
 40
1.0
 40
1.0
 10
-15.8011
 20
-424.1026
 30
0.0
 10
-15.8011
 20
-424.1026
 30
0.0
 10
-97.2149
 20
-369.9666
 30
0.0
 10
-97.2149
 20
-369.9666
 30
0.0
 10
-97.2149
 20
-369.9666
 30
0.0
 10
4.5407
 20
-304.5469
 30
0.0
 10
4.5407
 20
-304.5469
 30
0.0
 10
4.5407
 20
-304.5469
 30
0.0
 10
69.0043
 20
-348.5351
 30
0.0
 10
69.0043
 20
-348.5351
 30
0.0
 10
69.0043
 20
-348.5351
 30
0.0
 10
131.7605
 20
-305.6775
 30
0.0
 10
131.7605
 20
-305.6775
 30
0.0
 10
131.7605
 20
-305.6775
 30
0.0
 10
225.0487
 20
-364.3247
 30
0.0
 10
225.0487
 20
-364.3247
 30
0.0
 10
225.0487
 20
-364.3247
 30
0.0
 10
136.844
 20
-424.1026
 30
0.0
 10
136.844
 20
-424.1026
 30
0.0
 10
78.8919
 20
-399.7555
 30
0.0
 10
33.0937
 20
-403.3256
 30
0.0
 10
-15.8011
 20
-424.1026
 30
0.0
  0
SPLINE
  5
C2
330
1F
100
AcDbEntity
  8
Layer 1
 62
   250
370
    20
100
AcDbSpline
210
0.0
220
0.0
230
1.0
 70
    11
 71
     3
 72
    17
 73
    13
 74
     0
 42
0.0000000001
 43
0.0000000001
 40
0.0
 40
0.0
 40
0.0
 40
0.0
 40
0.25
 40
0.25
 40
0.25
 40
0.5
 40
0.5
 40
0.5
 40
0.75
 40
0.75
 40
0.75
 40
1.0
 40
1.0
 40
1.0
 40
1.0
 10
-37.9591
 20
-488.2025
 30
0.0
 10
-37.9591
 20
-452.9394
 30
0.0
 10
5.2858
 20
-424.1783
 30
0.0
 10
58.325
 20
-424.1783
 30
0.0
 10
111.3565
 20
-424.1783
 30
0.0
 10
154.609
 20
-452.9394
 30
0.0
 10
154.609
 20
-488.2025
 30
0.0
 10
154.609
 20
-523.4655
 30
0.0
 10
111.3565
 20
-552.2266
 30
0.0
 10
58.325
 20
-552.2266
 30
0.0
 10
5.2858
 20
-552.2266
 30
0.0
 10
-37.9591
 20
-523.4655
 30
0.0
 10
-37.9591
 20
-488.2025
 30
0.0
  0
SPLINE
  5
C3
330
1F
100
AcDbEntity
  8
Layer 1
 62
   250
370
    20
100
AcDbSpline
210
0.0
220
0.0
230
1.0
 70
    11
 71
     3
 72
    17
 73
    13
 74
     0
 42
0.0000000001
 43
0.0000000001
 40
0.0
 40
0.0
 40
0.0
 40
0.0
 40
0.25
 40
0.25
 40
0.25
 40
0.5
 40
0.5
 40
0.5
 40
0.75
 40
0.75
 40
0.75
 40
1.0
 40
1.0
 40
1.0
 40
1.0
 10
72.3028
 20
-317.6103
 30
0.0
 10
72.3028
 20
-317.6103
 30
0.0
 10
187.6403
 20
-245.429
 30
0.0
 10
187.6403
 20
-245.429
 30
0.0
 10
187.6403
 20
-245.429
 30
0.0
 10
70.6031
 20
-167.6058
 30
0.0
 10
70.6031
 20
-167.6058
 30
0.0
 10
70.6031
 20
-167.6058
 30
0.0
 10
-46.4264
 20
-240.9122
 30
0.0
 10
-46.4264
 20
-240.9122
 30
0.0
 10
-46.4264
 20
-240.9122
 30
0.0
 10
72.3028
 20
-317.6103
 30
0.0
 10
72.3028
 20
-317.6103
 30
0.0
  0
SPLINE
  5
C4
330
1F
100
AcDbEntity
  8
Layer 1
 62
   250
370
    20
100
AcDbSpline
210
0.0
220
0.0
230
1.0
 70
    11
 71
     3
 72
    26
 73
    22
 74
     0
 42
0.0000000001
 43
0.0000000001
 40
0.0
 40
0.0
 40
0.0
 40
0.0
 40
0.1428571428571428
 40
0.1428571428571428
 40
0.1428571428571428
 40
0.2857142857142857
 40
0.2857142857142857
 40
0.2857142857142857
 40
0.4285714285714285
 40
0.4285714285714285
 40
0.4285714285714285
 40
0.5714285714285714
 40
0.5714285714285714
 40
0.5714285714285714
 40
0.7142857142857142
 40
0.7142857142857142
 40
0.7142857142857142
 40
0.8571428571428571
 40
0.8571428571428571
 40
0.8571428571428571
 40
1.0
 40
1.0
 40
1.0
 40
1.0
 10
-17.2835
 20
-62.7146
 30
0.0
 10
-17.2835
 20
-62.7146
 30
0.0
 10
-103.7886
 20
-121.3619
 30
0.0
 10
-103.7886
 20
-121.3619
 30
0.0
 10
-103.7886
 20
-121.3619
 30
0.0
 10
-3.7171
 20
-187.9068
 30
0.0
 10
-3.7171
 20
-187.9068
 30
0.0
 10
-3.7171
 20
-187.9068
 30
0.0
 10
72.6132
 20
-137.157
 30
0.0
 10
72.6132
 20
-137.157
 30
0.0
 10
72.6132
 20
-137.157
 30
0.0
 10
134.1276
 20
-180.3176
 30
0.0
 10
134.1276
 20
-180.3176
 30
0.0
 10
134.1276
 20
-180.3176
 30
0.0
 10
222.3323
 20
-120.3342
 30
0.0
 10
222.3323
 20
-120.3342
 30
0.0
 10
222.3323
 20
-120.3342
 30
0.0
 10
135.3693
 20
-62.7146
 30
0.0
 10
135.3693
 20
-62.7146
 30
0.0
 10
77.4173
 20
-87.0564
 30
0.0
 10
31.6191
 20
-83.4862
 30
0.0
 10
-17.2835
 20
-62.7146
 30
0.0
  0
SPLINE
  5
C5
330
1F
100
AcDbEntity
  8
Layer 1
 62
   250
370
    20
100
AcDbSpline
210
0.0
220
0.0
230
1.0
 70
    11
 71
     3
 72
    17
 73
    13
 74
     0
 42
0.0000000001
 43
0.0000000001
 40
0.0
 40
0.0
 40
0.0
 40
0.0
 40
0.25
 40
0.25
 40
0.25
 40
0.5
 40
0.5
 40
0.5
 40
0.75
 40
0.75
 40
0.75
 40
1.0
 40
1.0
 40
1.0
 40
1.0
 10
-37.9591
 20
3.9762
 30
0.0
 10
-37.9591
 20
39.2447
 30
0.0
 10
5.2858
 20
68.0058
 30
0.0
 10
58.325
 20
68.0058
 30
0.0
 10
111.3565
 20
68.0058
 30
0.0
 10
154.609
 20
39.2447
 30
0.0
 10
154.609
 20
3.9762
 30
0.0
 10
154.609
 20
-31.2868
 30
0.0
 10
111.3565
 20
-60.0479
 30
0.0
 10
58.325
 20
-60.0479
 30
0.0
 10
5.2858
 20
-60.0479
 30
0.0
 10
-37.9591
 20
-31.2868
 30
0.0
 10
-37.9591
 20
3.9762
 30
0.0
  0
SPLINE
  5
C6
330
1F
100
AcDbEntity
  8
Layer 1
 62
   250
370
    20
100
AcDbSpline
210
0.0
220
0.0
230
1.0
 70
    11
 71
     3
 72
    26
 73
    22
 74
     0
 42
0.0000000001
 43
0.0000000001
 40
0.0
 40
0.0
 40
0.0
 40
0.0
 40
0.1428571428571428
 40
0.1428571428571428
 40
0.1428571428571428
 40
0.2857142857142857
 40
0.2857142857142857
 40
0.2857142857142857
 40
0.4285714285714285
 40
0.4285714285714285
 40
0.4285714285714285
 40
0.5714285714285714
 40
0.5714285714285714
 40
0.5714285714285714
 40
0.7142857142857142
 40
0.7142857142857142
 40
0.7142857142857142
 40
0.8571428571428571
 40
0.8571428571428571
 40
0.8571428571428571
 40
1.0
 40
1.0
 40
1.0
 40
1.0
 10
157.116
 20
-49.1806
 30
0.0
 10
157.116
 20
-49.1806
 30
0.0
 10
234.9674
 20
-107.2113
 30
0.0
 10
234.9674
 20
-107.2113
 30
0.0
 10
234.9674
 20
-107.2113
 30
0.0
 10
331.0341
 20
-40.4663
 30
0.0
 10
331.0341
 20
-40.4663
 30
0.0
 10
331.0341
 20
-40.4663
 30
0.0
 10
264.1103
 20
0.2385
 30
0.0
 10
264.1103
 20
0.2385
 30
0.0
 10
264.1103
 20
0.2385
 30
0.0
 10
323.1721
 20
39.9208
 30
0.0
 10
323.1721
 20
39.9208
 30
0.0
 10
323.1721
 20
39.9208
 30
0.0
 10
229.1155
 20
102.6684
 30
0.0
 10
229.1155
 20
102.6684
 30
0.0
 10
229.1155
 20
102.6684
 30
0.0
 10
158.8
 20
54.5854
 30
0.0
 10
158.8
 20
54.5854
 30
0.0
 10
195.4169
 20
16.0444
 30
0.0
 10
188.3621
 20
-16.6601
 30
0.0
 10
157.116
 20
-49.1806
 30
0.0
  0
SPLINE
  5
C7
330
1F
100
AcDbEntity
  8
Layer 1
 62
   250
370
    20
100
AcDbSpline
210
0.0
220
0.0
230
1.0
 70
    11
 71
     3
 72
    26
 73
    22
 74
     0
 42
0.0000000001
 43
0.0000000001
 40
0.0
 40
0.0
 40
0.0
 40
0.0
 40
0.1428571428571428
 40
0.1428571428571428
 40
0.1428571428571428
 40
0.2857142857142857
 40
0.2857142857142857
 40
0.2857142857142857
 40
0.4285714285714285
 40
0.4285714285714285
 40
0.4285714285714285
 40
0.5714285714285714
 40
0.5714285714285714
 40
0.5714285714285714
 40
0.7142857142857142
 40
0.7142857142857142
 40
0.7142857142857142
 40
0.8571428571428571
 40
0.8571428571428571
 40
0.8571428571428571
 40
1.0
 40
1.0
 40
1.0
 40
1.0
 10
316.9245
 20
-293.9285
 30
0.0
 10
316.9245
 20
-293.9285
 30
0.0
 10
237.0784
 20
-349.1896
 30
0.0
 10
237.0784
 20
-349.1896
 30
0.0
 10
237.0784
 20
-349.1896
 30
0.0
 10
149.4867
 20
-287.9837
 30
0.0
 10
149.4867
 20
-287.9837
 30
0.0
 10
149.4867
 20
-287.9837
 30
0.0
 10
229.9847
 20
-240.5066
 30
0.0
 10
229.9847
 20
-240.5066
 30
0.0
 10
229.9847
 20
-240.5066
 30
0.0
 10
157.2013
 20
-191.8989
 30
0.0
 10
157.2013
 20
-191.8989
 30
0.0
 10
157.2013
 20
-191.8989
 30
0.0
 10
241.2305
 20
-132.9432
 30
0.0
 10
241.2305
 20
-132.9432
 30
0.0
 10
241.2305
 20
-132.9432
 30
0.0
 10
319.2606
 20
-188.8264
 30
0.0
 10
319.2606
 20
-188.8264
 30
0.0
 10
282.6438
 20
-227.362
 30
0.0
 10
285.6938
 20
-261.408
 30
0.0
 10
316.9245
 20
-293.9285
 30
0.0
  0
SPLINE
  5
C8
330
1F
100
AcDbEntity
  8
Layer 1
 62
   250
370
    20
100
AcDbSpline
210
0.0
220
0.0
230
1.0
 70
    11
 71
     3
 72
    17
 73
    13
 74
     0
 42
0.0000000001
 43
0.0000000001
 40
0.0
 40
0.0
 40
0.0
 40
0.0
 40
0.25
 40
0.25
 40
0.25
 40
0.5
 40
0.5
 40
0.5
 40
0.75
 40
0.75
 40
0.75
 40
1.0
 40
1.0
 40
1.0
 40
1.0
 10
431.3695
 20
-563.0343
 30
0.0
 10
431.3695
 20
-563.0343
 30
0.0
 10
546.707
 20
-488.1809
 30
0.0
 10
546.707
 20
-488.1809
 30
0.0
 10
546.707
 20
-488.1809
 30
0.0
 10
429.662
 20
-413.0244
 30
0.0
 10
429.662
 20
-413.0244
 30
0.0
 10
429.662
 20
-413.0244
 30
0.0
 10
312.6248
 20
-486.3363
 30
0.0
 10
312.6248
 20
-486.3363
 30
0.0
 10
312.6248
 20
-486.3363
 30
0.0
 10
431.3695
 20
-563.0343
 30
0.0
 10
431.3695
 20
-563.0343
 30
0.0
  0
SPLINE
  5
C9
330
1F
100
AcDbEntity
  8
Layer 1
 62
   250
370
    20
100
AcDbSpline
210
0.0
220
0.0
230
1.0
 70
    11
 71
     3
 72
    26
 73
    22
 74
     0
 42
0.0000000001
 43
0.0000000001
 40
0.0
 40
0.0
 40
0.0
 40
0.0
 40
0.1428571428571428
 40
0.1428571428571428
 40
0.1428571428571428
 40
0.2857142857142857
 40
0.2857142857142857
 40
0.2857142857142857
 40
0.4285714285714285
 40
0.4285714285714285
 40
0.4285714285714285
 40
0.5714285714285714
 40
0.5714285714285714
 40
0.5714285714285714
 40
0.7142857142857142
 40
0.7142857142857142
 40
0.7142857142857142
 40
0.8571428571428571
 40
0.8571428571428571
 40
0.8571428571428571
 40
1.0
 40
1.0
 40
1.0
 40
1.0
 10
339.7654
 20
-306.8026
 30
0.0
 10
339.7654
 20
-306.8026
 30
0.0
 10
253.2602
 20
-365.4499
 30
0.0
 10
253.2602
 20
-365.4499
 30
0.0
 10
253.2602
 20
-365.4499
 30
0.0
 10
353.3473
 20
-431.9947
 30
0.0
 10
353.3473
 20
-431.9947
 30
0.0
 10
353.3473
 20
-431.9947
 30
0.0
 10
429.662
 20
-381.2449
 30
0.0
 10
429.662
 20
-381.2449
 30
0.0
 10
429.662
 20
-381.2449
 30
0.0
 10
499.2091
 20
-429.7391
 30
0.0
 10
499.2091
 20
-429.7391
 30
0.0
 10
499.2091
 20
-429.7391
 30
0.0
 10
587.4062
 20
-371.0918
 30
0.0
 10
587.4062
 20
-371.0918
 30
0.0
 10
587.4062
 20
-371.0918
 30
0.0
 10
492.4259
 20
-306.8026
 30
0.0
 10
492.4259
 20
-306.8026
 30
0.0
 10
434.4662
 20
-331.1443
 30
0.0
 10
388.6757
 20
-327.5742
 30
0.0
 10
339.7654
 20
-306.8026
 30
0.0
  0
SPLINE
  5
CA
330
1F
100
AcDbEntity
  8
Layer 1
 62
   250
370
    20
100
AcDbSpline
210
0.0
220
0.0
230
1.0
 70
    11
 71
     3
 72
    17
 73
    13
 74
     0
 42
0.0000000001
 43
0.0000000001
 40
0.0
 40
0.0
 40
0.0
 40
0.0
 40
0.25
 40
0.25
 40
0.25
 40
0.5
 40
0.5
 40
0.5
 40
0.75
 40
0.75
 40
0.75
 40
1.0
 40
1.0
 40
1.0
 40
1.0
 10
321.1077
 20
-240.1117
 30
0.0
 10
321.1077
 20
-204.8487
 30
0.0
 10
364.3525
 20
-176.0821
 30
0.0
 10
417.384
 20
-176.0821
 30
0.0
 10
470.4232
 20
-176.0821
 30
0.0
 10
513.6759
 20
-204.8487
 30
0.0
 10
513.6759
 20
-240.1117
 30
0.0
 10
513.6759
 20
-275.3747
 30
0.0
 10
470.4232
 20
-304.1412
 30
0.0
 10
417.384
 20
-304.1412
 30
0.0
 10
364.3525
 20
-304.1412
 30
0.0
 10
321.1077
 20
-275.3747
 30
0.0
 10
321.1077
 20
-240.1117
 30
0.0
  0
SPLINE
  5
CB
330
1F
100
AcDbEntity
  8
Layer 1
 62
   250
370
    20
100
AcDbSpline
210
0.0
220
0.0
230
1.0
 70
    11
 71
     3
 72
    26
 73
    22
 74
     0
 42
0.0000000001
 43
0.0000000001
 40
0.0
 40
0.0
 40
0.0
 40
0.0
 40
0.1428571428571428
 40
0.1428571428571428
 40
0.1428571428571428
 40
0.2857142857142857
 40
0.2857142857142857
 40
0.2857142857142857
 40
0.4285714285714285
 40
0.4285714285714285
 40
0.4285714285714285
 40
0.5714285714285714
 40
0.5714285714285714
 40
0.5714285714285714
 40
0.7142857142857142
 40
0.7142857142857142
 40
0.7142857142857142
 40
0.8571428571428571
 40
0.8571428571428571
 40
0.8571428571428571
 40
1.0
 40
1.0
 40
1.0
 40
1.0
 10
340.8441
 20
-175.7684
 30
0.0
 10
340.8441
 20
-175.7684
 30
0.0
 10
254.339
 20
-117.1211
 30
0.0
 10
254.339
 20
-117.1211
 30
0.0
 10
254.339
 20
-117.1211
 30
0.0
 10
349.3271
 20
-55.0875
 30
0.0
 10
349.3271
 20
-55.0875
 30
0.0
 10
349.3271
 20
-55.0875
 30
0.0
 10
418.8587
 20
-102.4565
 30
0.0
 10
418.8587
 20
-102.4565
 30
0.0
 10
418.8587
 20
-102.4565
 30
0.0
 10
476.5391
 20
-62.9851
 30
0.0
 10
476.5391
 20
-62.9851
 30
0.0
 10
476.5391
 20
-62.9851
 30
0.0
 10
574.9108
 20
-125.0132
 30
0.0
 10
574.9108
 20
-125.0132
 30
0.0
 10
574.9108
 20
-125.0132
 30
0.0
 10
493.497
 20
-175.7684
 30
0.0
 10
493.497
 20
-175.7684
 30
0.0
 10
435.545
 20
-151.4267
 30
0.0
 10
389.7468
 20
-154.9968
 30
0.0
 10
340.8441
 20
-175.7684
 30
0.0
  0
SPLINE
  5
CC
330
1F
100
AcDbEntity
  8
Layer 1
 62
   250
370
    20
100
AcDbSpline
210
0.0
220
0.0
230
1.0
 70
    11
 71
     3
 72
    17
 73
    13
 74
     0
 42
0.0000000001
 43
0.0000000001
 40
0.0
 40
0.0
 40
0.0
 40
0.0
 40
0.25
 40
0.25
 40
0.25
 40
0.5
 40
0.5
 40
0.5
 40
0.75
 40
0.75
 40
0.75
 40
1.0
 40
1.0
 40
1.0
 40
1.0
 10
425.3547
 20
-73.5223
 30
0.0
 10
425.3547
 20
-73.5223
 30
0.0
 10
540.6844
 20
-1.341
 30
0.0
 10
540.6844
 20
-1.341
 30
0.0
 10
540.6844
 20
-1.341
 30
0.0
 10
423.6472
 20
76.4821
 30
0.0
 10
423.6472
 20
76.4821
 30
0.0
 10
423.6472
 20
76.4821
 30
0.0
 10
306.61
 20
3.1757
 30
0.0
 10
306.61
 20
3.1757
 30
0.0
 10
306.61
 20
3.1757
 30
0.0
 10
425.3547
 20
-73.5223
 30
0.0
 10
425.3547
 20
-73.5223
 30
0.0
  0
SPLINE
  5
CD
330
1F
100
AcDbEntity
  8
Layer 1
 62
   250
370
    20
100
AcDbSpline
210
0.0
220
0.0
230
1.0
 70
    11
 71
     3
 72
    26
 73
    22
 74
     0
 42
0.0000000001
 43
0.0000000001
 40
0.0
 40
0.0
 40
0.0
 40
0.0
 40
0.1428571428571428
 40
0.1428571428571428
 40
0.1428571428571428
 40
0.2857142857142857
 40
0.2857142857142857
 40
0.2857142857142857
 40
0.4285714285714285
 40
0.4285714285714285
 40
0.4285714285714285
 40
0.5714285714285714
 40
0.5714285714285714
 40
0.5714285714285714
 40
0.7142857142857142
 40
0.7142857142857142
 40
0.7142857142857142
 40
0.8571428571428571
 40
0.8571428571428571
 40
0.8571428571428571
 40
1.0
 40
1.0
 40
1.0
 40
1.0
 10
706.3215
 20
-424.1026
 30
0.0
 10
706.3215
 20
-424.1026
 30
0.0
 10
624.9078
 20
-369.9666
 30
0.0
 10
624.9078
 20
-369.9666
 30
0.0
 10
624.9078
 20
-369.9666
 30
0.0
 10
726.6789
 20
-304.5469
 30
0.0
 10
726.6789
 20
-304.5469
 30
0.0
 10
726.6789
 20
-304.5469
 30
0.0
 10
791.1269
 20
-348.5351
 30
0.0
 10
791.1269
 20
-348.5351
 30
0.0
 10
791.1269
 20
-348.5351
 30
0.0
 10
853.8832
 20
-305.6775
 30
0.0
 10
853.8832
 20
-305.6775
 30
0.0
 10
853.8832
 20
-305.6775
 30
0.0
 10
947.1792
 20
-364.3247
 30
0.0
 10
947.1792
 20
-364.3247
 30
0.0
 10
947.1792
 20
-364.3247
 30
0.0
 10
858.9822
 20
-424.1026
 30
0.0
 10
858.9822
 20
-424.1026
 30
0.0
 10
801.0146
 20
-399.7555
 30
0.0
 10
755.232
 20
-403.3256
 30
0.0
 10
706.3215
 20
-424.1026
 30
0.0
  0
SPLINE
  5
CE
330
1F
100
AcDbEntity
  8
Layer 1
 62
   250
370
    20
100
AcDbSpline
210
0.0
220
0.0
230
1.0
 70
    11
 71
     3
 72
    17
 73
    13
 74
     0
 42
0.0000000001
 43
0.0000000001
 40
0.0
 40
0.0
 40
0.0
 40
0.0
 40
0.25
 40
0.25
 40
0.25
 40
0.5
 40
0.5
 40
0.5
 40
0.75
 40
0.75
 40
0.75
 40
1.0
 40
1.0
 40
1.0
 40
1.0
 10
688.1761
 20
-488.2025
 30
0.0
 10
688.1761
 20
-452.9394
 30
0.0
 10
731.4286
 20
-424.1783
 30
0.0
 10
784.4602
 20
-424.1783
 30
0.0
 10
837.4995
 20
-424.1783
 30
0.0
 10
880.7442
 20
-452.9394
 30
0.0
 10
880.7442
 20
-488.2025
 30
0.0
 10
880.7442
 20
-523.4655
 30
0.0
 10
837.4995
 20
-552.2266
 30
0.0
 10
784.4602
 20
-552.2266
 30
0.0
 10
731.4286
 20
-552.2266
 30
0.0
 10
688.1761
 20
-523.4655
 30
0.0
 10
688.1761
 20
-488.2025
 30
0.0
  0
SPLINE
  5
CF
330
1F
100
AcDbEntity
  8
Layer 1
 62
   250
370
    20
100
AcDbSpline
210
0.0
220
0.0
230
1.0
 70
    11
 71
     3
 72
    17
 73
    13
 74
     0
 42
0.0000000001
 43
0.0000000001
 40
0.0
 40
0.0
 40
0.0
 40
0.0
 40
0.25
 40
0.25
 40
0.25
 40
0.5
 40
0.5
 40
0.5
 40
0.75
 40
0.75
 40
0.75
 40
1.0
 40
1.0
 40
1.0
 40
1.0
 10
794.4332
 20
-317.6103
 30
0.0
 10
794.4332
 20
-317.6103
 30
0.0
 10
909.763
 20
-245.429
 30
0.0
 10
909.763
 20
-245.429
 30
0.0
 10
909.763
 20
-245.429
 30
0.0
 10
792.7336
 20
-167.6058
 30
0.0
 10
792.7336
 20
-167.6058
 30
0.0
 10
792.7336
 20
-167.6058
 30
0.0
 10
675.7041
 20
-240.9122
 30
0.0
 10
675.7041
 20
-240.9122
 30
0.0
 10
675.7041
 20
-240.9122
 30
0.0
 10
794.4332
 20
-317.6103
 30
0.0
 10
794.4332
 20
-317.6103
 30
0.0
  0
SPLINE
  5
D0
330
1F
100
AcDbEntity
  8
Layer 1
 62
   250
370
    20
100
AcDbSpline
210
0.0
220
0.0
230
1.0
 70
    11
 71
     3
 72
    26
 73
    22
 74
     0
 42
0.0000000001
 43
0.0000000001
 40
0.0
 40
0.0
 40
0.0
 40
0.0
 40
0.1428571428571428
 40
0.1428571428571428
 40
0.1428571428571428
 40
0.2857142857142857
 40
0.2857142857142857
 40
0.2857142857142857
 40
0.4285714285714285
 40
0.4285714285714285
 40
0.4285714285714285
 40
0.5714285714285714
 40
0.5714285714285714
 40
0.5714285714285714
 40
0.7142857142857142
 40
0.7142857142857142
 40
0.7142857142857142
 40
0.8571428571428571
 40
0.8571428571428571
 40
0.8571428571428571
 40
1.0
 40
1.0
 40
1.0
 40
1.0
 10
514.157
 20
-293.2686
 30
0.0
 10
514.157
 20
-293.2686
 30
0.0
 10
604.0614
 20
-355.3021
 30
0.0
 10
604.0614
 20
-355.3021
 30
0.0
 10
604.0614
 20
-355.3021
 30
0.0
 10
704.1329
 20
-289.8878
 30
0.0
 10
704.1329
 20
-289.8878
 30
0.0
 10
704.1329
 20
-289.8878
 30
0.0
 10
631.202
 20
-242.5188
 30
0.0
 10
631.202
 20
-242.5188
 30
0.0
 10
631.202
 20
-242.5188
 30
0.0
 10
692.274
 20
-204.1671
 30
0.0
 10
692.274
 20
-204.1671
 30
0.0
 10
692.274
 20
-204.1671
 30
0.0
 10
592.187
 20
-138.7527
 30
0.0
 10
592.187
 20
-138.7527
 30
0.0
 10
592.187
 20
-138.7527
 30
0.0
 10
515.8645
 20
-189.5079
 30
0.0
 10
515.8645
 20
-189.5079
 30
0.0
 10
552.4658
 20
-228.0436
 30
0.0
 10
545.3953
 20
-260.748
 30
0.0
 10
514.157
 20
-293.2686
 30
0.0
  0
SPLINE
  5
D1
330
1F
100
AcDbEntity
  8
Layer 1
 62
   250
370
    20
100
AcDbSpline
210
0.0
220
0.0
230
1.0
 70
    11
 71
     3
 72
    26
 73
    22
 74
     0
 42
0.0000000001
 43
0.0000000001
 40
0.0
 40
0.0
 40
0.0
 40
0.0
 40
0.1428571428571428
 40
0.1428571428571428
 40
0.1428571428571428
 40
0.2857142857142857
 40
0.2857142857142857
 40
0.2857142857142857
 40
0.4285714285714285
 40
0.4285714285714285
 40
0.4285714285714285
 40
0.5714285714285714
 40
0.5714285714285714
 40
0.5714285714285714
 40
0.7142857142857142
 40
0.7142857142857142
 40
0.7142857142857142
 40
0.8571428571428571
 40
0.8571428571428571
 40
0.8571428571428571
 40
1.0
 40
1.0
 40
1.0
 40
1.0
 10
706.8493
 20
-64.0507
 30
0.0
 10
706.8493
 20
-64.0507
 30
0.0
 10
620.352
 20
-122.6981
 30
0.0
 10
620.352
 20
-122.6981
 30
0.0
 10
620.352
 20
-122.6981
 30
0.0
 10
720.4157
 20
-189.2429
 30
0.0
 10
720.4157
 20
-189.2429
 30
0.0
 10
720.4157
 20
-189.2429
 30
0.0
 10
796.746
 20
-138.4823
 30
0.0
 10
796.746
 20
-138.4823
 30
0.0
 10
796.746
 20
-138.4823
 30
0.0
 10
858.2682
 20
-181.6483
 30
0.0
 10
858.2682
 20
-181.6483
 30
0.0
 10
858.2682
 20
-181.6483
 30
0.0
 10
946.4651
 20
-121.6649
 30
0.0
 10
946.4651
 20
-121.6649
 30
0.0
 10
946.4651
 20
-121.6649
 30
0.0
 10
859.5099
 20
-64.0507
 30
0.0
 10
859.5099
 20
-64.0507
 30
0.0
 10
801.5579
 20
-88.3924
 30
0.0
 10
755.7597
 20
-84.8223
 30
0.0
 10
706.8493
 20
-64.0507
 30
0.0
  0
SPLINE
  5
D2
330
1F
100
AcDbEntity
  8
Layer 1
 62
   250
370
    20
100
AcDbSpline
210
0.0
220
0.0
230
1.0
 70
    11
 71
     3
 72
    17
 73
    13
 74
     0
 42
0.0000000001
 43
0.0000000001
 40
0.0
 40
0.0
 40
0.0
 40
0.0
 40
0.25
 40
0.25
 40
0.25
 40
0.5
 40
0.5
 40
0.5
 40
0.75
 40
0.75
 40
0.75
 40
1.0
 40
1.0
 40
1.0
 40
1.0
 10
684.1636
 20
3.9762
 30
0.0
 10
684.1636
 20
39.2447
 30
0.0
 10
727.4161
 20
68.0058
 30
0.0
 10
780.4477
 20
68.0058
 30
0.0
 10
833.487
 20
68.0058
 30
0.0
 10
876.7318
 20
39.2447
 30
0.0
 10
876.7318
 20
3.9762
 30
0.0
 10
876.7318
 20
-31.2868
 30
0.0
 10
833.487
 20
-60.0479
 30
0.0
 10
780.4477
 20
-60.0479
 30
0.0
 10
727.4161
 20
-60.0479
 30
0.0
 10
684.1636
 20
-31.2868
 30
0.0
 10
684.1636
 20
3.9762
 30
0.0
  0
SPLINE
  5
D3
330
1F
100
AcDbEntity
  8
Layer 1
 62
   250
370
    20
100
AcDbSpline
210
0.0
220
0.0
230
1.0
 70
    11
 71
     3
 72
    26
 73
    22
 74
     0
 42
0.0000000001
 43
0.0000000001
 40
0.0
 40
0.0
 40
0.0
 40
0.0
 40
0.1428571428571428
 40
0.1428571428571428
 40
0.1428571428571428
 40
0.2857142857142857
 40
0.2857142857142857
 40
0.2857142857142857
 40
0.4285714285714285
 40
0.4285714285714285
 40
0.4285714285714285
 40
0.5714285714285714
 40
0.5714285714285714
 40
0.5714285714285714
 40
0.7142857142857142
 40
0.7142857142857142
 40
0.7142857142857142
 40
0.8571428571428571
 40
0.8571428571428571
 40
0.8571428571428571
 40
1.0
 40
1.0
 40
1.0
 40
1.0
 10
1041.1271
 20
-293.9285
 30
0.0
 10
1041.1271
 20
-293.9285
 30
0.0
 10
961.25
 20
-349.1896
 30
0.0
 10
961.25
 20
-349.1896
 30
0.0
 10
961.25
 20
-349.1896
 30
0.0
 10
873.6894
 20
-287.9837
 30
0.0
 10
873.6894
 20
-287.9837
 30
0.0
 10
873.6894
 20
-287.9837
 30
0.0
 10
954.1797
 20
-240.5066
 30
0.0
 10
954.1797
 20
-240.5066
 30
0.0
 10
954.1797
 20
-240.5066
 30
0.0
 10
881.3885
 20
-191.8989
 30
0.0
 10
881.3885
 20
-191.8989
 30
0.0
 10
881.3885
 20
-191.8989
 30
0.0
 10
965.4177
 20
-132.9432
 30
0.0
 10
965.4177
 20
-132.9432
 30
0.0
 10
965.4177
 20
-132.9432
 30
0.0
 10
1043.4321
 20
-188.8264
 30
0.0
 10
1043.4321
 20
-188.8264
 30
0.0
 10
1006.8308
 20
-227.362
 30
0.0
 10
1009.881
 20
-261.408
 30
0.0
 10
1041.1271
 20
-293.9285
 30
0.0
  0
SPLINE
  5
D4
330
1F
100
AcDbEntity
  8
Layer 1
 62
   250
370
    20
100
AcDbSpline
210
0.0
220
0.0
230
1.0
 70
    11
 71
     3
 72
    26
 73
    22
 74
     0
 42
0.0000000001
 43
0.0000000001
 40
0.0
 40
0.0
 40
0.0
 40
0.0
 40
0.1428571428571428
 40
0.1428571428571428
 40
0.1428571428571428
 40
0.2857142857142857
 40
0.2857142857142857
 40
0.2857142857142857
 40
0.4285714285714285
 40
0.4285714285714285
 40
0.4285714285714285
 40
0.5714285714285714
 40
0.5714285714285714
 40
0.5714285714285714
 40
0.7142857142857142
 40
0.7142857142857142
 40
0.7142857142857142
 40
0.8571428571428571
 40
0.8571428571428571
 40
0.8571428571428571
 40
1.0
 40
1.0
 40
1.0
 40
1.0
 10
879.1377
 20
-49.1806
 30
0.0
 10
879.1377
 20
-49.1806
 30
0.0
 10
956.9892
 20
-107.2113
 30
0.0
 10
956.9892
 20
-107.2113
 30
0.0
 10
956.9892
 20
-107.2113
 30
0.0
 10
1053.0482
 20
-40.4663
 30
0.0
 10
1053.0482
 20
-40.4663
 30
0.0
 10
1053.0482
 20
-40.4663
 30
0.0
 10
986.1321
 20
0.2385
 30
0.0
 10
986.1321
 20
0.2385
 30
0.0
 10
986.1321
 20
0.2385
 30
0.0
 10
1045.194
 20
39.9208
 30
0.0
 10
1045.194
 20
39.9208
 30
0.0
 10
1045.194
 20
39.9208
 30
0.0
 10
951.1373
 20
102.6684
 30
0.0
 10
951.1373
 20
102.6684
 30
0.0
 10
951.1373
 20
102.6684
 30
0.0
 10
880.8219
 20
54.5854
 30
0.0
 10
880.8219
 20
54.5854
 30
0.0
 10
917.431
 20
16.0444
 30
0.0
 10
910.3683
 20
-16.6601
 30
0.0
 10
879.1377
 20
-49.1806
 30
0.0
  0
ENDSEC
  0
SECTION
  2
OBJECTS
  0
DICTIONARY
  5
C
330
0
100
AcDbDictionary
281
     1
  3
ACAD_DETAILVIEWSTYLE
350
DC
  3
ACAD_GROUP
350
D
  3
ACAD_LAYOUT
350
1A
  3
ACAD_MATERIAL
350
43
  3
ACAD_MLEADERSTYLE
350
5B
  3
ACAD_MLINESTYLE
350
17
  3
ACAD_PLOTSETTINGS
350
19
  3
ACAD_PLOTSTYLENAME
350
E
  3
ACAD_SCALELIST
350
47
  3
ACAD_SECTIONVIEWSTYLE
350
DD
  3
ACAD_TABLESTYLE
350
59
  3
ACAD_VISUALSTYLE
350
2A
  3
ACDB_RECOMPOSE_DATA
350
D9
  3
AcDbVariableDictionary
350
D5
  0
SUN
  5
5D
330
29
100
AcDbSun
 90
        1
290
     0
 63
     7
421
 16777215
 40
1.0
291
     1
 91
  2455826
 92
 54000000
292
     0
 70
     2
 71
   256
280
     1
  0
DICTIONARY
  5
DC
102
{ACAD_REACTORS
330
C
102
}
330
C
100
AcDbDictionary
281
     1
  0
DICTIONARY
  5
D
102
{ACAD_REACTORS
330
C
102
}
330
C
100
AcDbDictionary
281
     1
  0
DICTIONARY
  5
1A
102
{ACAD_REACTORS
330
C
102
}
330
C
100
AcDbDictionary
281
     1
  3
Layout1
350
1E
  3
Layout2
350
26
  3
Model
350
22
  0
DICTIONARY
  5
43
102
{ACAD_REACTORS
330
C
102
}
330
C
100
AcDbDictionary
281
     1
  3
ByBlock
350
45
  3
ByLayer
350
44
  3
Global
350
46
  0
DICTIONARY
  5
5B
102
{ACAD_REACTORS
330
C
102
}
330
C
100
AcDbDictionary
281
     1
  3
Standard
350
5C
  0
DICTIONARY
  5
17
102
{ACAD_REACTORS
330
C
102
}
330
C
100
AcDbDictionary
281
     1
  3
Standard
350
18
  0
DICTIONARY
  5
19
102
{ACAD_REACTORS
330
C
102
}
330
C
100
AcDbDictionary
281
     1
  0
ACDBDICTIONARYWDFLT
  5
E
102
{ACAD_REACTORS
330
C
102
}
330
C
100
AcDbDictionary
281
     1
  3
Normal
350
F
100
AcDbDictionaryWithDefault
340
F
  0
DICTIONARY
  5
47
102
{ACAD_REACTORS
330
C
102
}
330
C
100
AcDbDictionary
281
     1
  3
A0
350
48
  3
A1
350
49
  3
A2
350
4A
  3
A3
350
4B
  3
A4
350
4C
  3
A5
350
4D
  3
A6
350
4E
  3
A7
350
4F
  3
A8
350
50
  3
A9
350
51
  3
B1
350
52
  3
B2
350
53
  3
B3
350
54
  3
B4
350
55
  3
B5
350
56
  3
B6
350
57
  3
B7
350
58
  0
DICTIONARY
  5
DD
102
{ACAD_REACTORS
330
C
102
}
330
C
100
AcDbDictionary
281
     1
  0
DICTIONARY
  5
59
102
{ACAD_REACTORS
330
C
102
}
330
C
100
AcDbDictionary
281
     1
  3
Standard
350
5A
  0
DICTIONARY
  5
2A
102
{ACAD_REACTORS
330
C
102
}
330
C
100
AcDbDictionary
281
     1
  3
2dWireframe
350
2F
  3
Basic
350
32
  3
Brighten
350
36
  3
ColorChange
350
3A
  3
Conceptual
350
34
  3
Dim
350
35
  3
EdgeColorOff
350
3D
  3
Facepattern
350
39
  3
Flat
350
2B
  3
FlatWithEdges
350
2C
  3
Gouraud
350
2D
  3
GouraudWithEdges
350
2E
  3
Hidden
350
31
  3
JitterOff
350
3B
  3
Linepattern
350
38
  3
OverhangOff
350
3C
  3
Realistic
350
33
  3
Shaded
350
42
  3
Shaded with edges
350
41
  3
Shades of Gray
350
3E
  3
Sketchy
350
3F
  3
Thicken
350
37
  3
Wireframe
350
30
  3
X-Ray
350
40
  0
XRECORD
  5
D9
102
{ACAD_REACTORS
330
C
102
}
330
C
100
AcDbXrecord
280
     1
 90
        1
330
5A
  0
DICTIONARY
  5
D5
102
{ACAD_REACTORS
330
C
102
}
330
C
100
AcDbDictionary
281
     1
  3
CANNOSCALE
350
D6
  3
CMLEADERSTYLE
350
DB
  3
CTABLESTYLE
350
DA
  0
LAYOUT
  5
1E
102
{ACAD_REACTORS
330
1A
102
}
330
1A
100
AcDbPlotSettings
  1

  2
none_device
  4

  6

 40
0.0
 41
0.0
 42
0.0
 43
0.0
 44
0.0
 45
0.0
 46
0.0
 47
0.0
 48
0.0
 49
0.0
140
0.0
141
0.0
142
1.0
143
1.0
 70
   688
 72
     0
 73
     0
 74
     5
  7

 75
    16
 76
     0
 77
     2
 78
   300
147
1.0
148
0.0
149
0.0
100
AcDbLayout
  1
Layout1
 70
     1
 71
     1
 10
0.0
 20
0.0
 11
12.0
 21
9.0
 12
0.0
 22
0.0
 32
0.0
 14
1.000000000000000E+20
 24
1.000000000000000E+20
 34
1.000000000000000E+20
 15
-1.000000000000000E+20
 25
-1.000000000000000E+20
 35
-1.000000000000000E+20
146
0.0
 13
0.0
 23
0.0
 33
0.0
 16
1.0
 26
0.0
 36
0.0
 17
0.0
 27
1.0
 37
0.0
 76
     0
330
1B
  0
LAYOUT
  5
26
102
{ACAD_REACTORS
330
1A
102
}
330
1A
100
AcDbPlotSettings
  1

  2
none_device
  4

  6

 40
0.0
 41
0.0
 42
0.0
 43
0.0
 44
0.0
 45
0.0
 46
0.0
 47
0.0
 48
0.0
 49
0.0
140
0.0
141
0.0
142
1.0
143
1.0
 70
   688
 72
     0
 73
     0
 74
     5
  7

 75
    16
 76
     0
 77
     2
 78
   300
147
1.0
148
0.0
149
0.0
100
AcDbLayout
  1
Layout2
 70
     1
 71
     2
 10
0.0
 20
0.0
 11
0.0
 21
0.0
 12
0.0
 22
0.0
 32
0.0
 14
0.0
 24
0.0
 34
0.0
 15
0.0
 25
0.0
 35
0.0
146
0.0
 13
0.0
 23
0.0
 33
0.0
 16
1.0
 26
0.0
 36
0.0
 17
0.0
 27
1.0
 37
0.0
 76
     0
330
23
  0
LAYOUT
  5
22
102
{ACAD_REACTORS
330
1A
102
}
330
1A
100
AcDbPlotSettings
  1

  2
none_device
  4
Letter_(8.50_x_11.00_Inches)
  6

 40
6.35
 41
6.35
 42
6.35000508
 43
6.35000508
 44
215.9
 45
279.4
 46
0.0
 47
0.0
 48
0.0
 49
0.0
140
0.0
141
0.0
142
1.0
143
1.0
 70
  1712
 72
     0
 73
     0
 74
     0
  7

 75
     0
 76
     0
 77
     2
 78
   300
147
1.0
148
0.0
149
0.0
100
AcDbLayout
  1
Model
 70
     1
 71
     0
 10
0.0
 20
0.0
 11
12.0
 21
9.0
 12
0.0
 22
0.0
 32
0.0
 14
-1200.15
 24
-590.1266
 34
0.0
 15
1200.05
 25
590.0734
 35
0.0
146
0.0
 13
0.0
 23
0.0
 33
0.0
 16
1.0
 26
0.0
 36
0.0
 17
0.0
 27
1.0
 37
0.0
 76
     0
330
1F
331
29
  0
MATERIAL
  5
45
102
{ACAD_REACTORS
330
43
102
}
330
43
100
AcDbMaterial
  1
ByBlock
 72
     1
 94
      127
  0
MATERIAL
  5
44
102
{ACAD_REACTORS
330
43
102
}
330
43
100
AcDbMaterial
  1
ByLayer
 72
     1
 94
      127
  0
MATERIAL
  5
46
102
{ACAD_REACTORS
330
43
102
}
330
43
100
AcDbMaterial
  1
Global
 72
     1
 94
      127
  0
MLEADERSTYLE
  5
5C
102
{ACAD_REACTORS
330
5B
102
}
330
5B
100
AcDbMLeaderStyle
179
     2
170
     2
171
     1
172
     0
 90
        2
 40
0.0
 41
0.0
173
     1
 91
-1056964608
340
14
 92
       -2
290
     1
 42
0.09
291
     1
 43
0.36
  3
Standard
341
0
 44
0.18
300

342
11
174
     1
178
     6
175
     1
176
     0
 93
-1056964608
 45
0.18
292
     0
297
     0
 46
0.18
343
0
 94
-1056964608
 47
1.0
 49
1.0
140
1.0
293
     1
141
0.0
294
     1
177
     0
142
1.0
295
     0
296
     0
143
0.125
271
     0
272
     9
273
     9
298
     0
  0
MLINESTYLE
  5
18
102
{ACAD_REACTORS
330
17
102
}
330
17
100
AcDbMlineStyle
  2
Standard
 70
     0
  3

 62
   256
 51
90.0
 52
90.0
 71
     2
 49
0.5
 62
   256
  6
BYLAYER
 49
-0.5
 62
   256
  6
BYLAYER
  0
ACDBPLACEHOLDER
  5
F
102
{ACAD_REACTORS
330
E
102
}
330
E
  0
SCALE
  5
48
102
{ACAD_REACTORS
330
47
102
}
330
47
100
AcDbScale
 70
     0
300
1:1
140
1.0
141
1.0
290
     1
  0
SCALE
  5
49
102
{ACAD_REACTORS
330
47
102
}
330
47
100
AcDbScale
 70
     0
300
1/128" = 1'-0"
140
0.0078125
141
12.0
290
     0
  0
SCALE
  5
4A
102
{ACAD_REACTORS
330
47
102
}
330
47
100
AcDbScale
 70
     0
300
1/64" = 1'-0"
140
0.015625
141
12.0
290
     0
  0
SCALE
  5
4B
102
{ACAD_REACTORS
330
47
102
}
330
47
100
AcDbScale
 70
     0
300
1/32" = 1'-0"
140
0.03125
141
12.0
290
     0
  0
SCALE
  5
4C
102
{ACAD_REACTORS
330
47
102
}
330
47
100
AcDbScale
 70
     0
300
1/16" = 1'-0"
140
0.0625
141
12.0
290
     0
  0
SCALE
  5
4D
102
{ACAD_REACTORS
330
47
102
}
330
47
100
AcDbScale
 70
     0
300
3/32" = 1'-0"
140
0.09375
141
12.0
290
     0
  0
SCALE
  5
4E
102
{ACAD_REACTORS
330
47
102
}
330
47
100
AcDbScale
 70
     0
300
1/8" = 1'-0"
140
0.125
141
12.0
290
     0
  0
SCALE
  5
4F
102
{ACAD_REACTORS
330
47
102
}
330
47
100
AcDbScale
 70
     0
300
3/16" = 1'-0"
140
0.1875
141
12.0
290
     0
  0
SCALE
  5
50
102
{ACAD_REACTORS
330
47
102
}
330
47
100
AcDbScale
 70
     0
300
1/4" = 1'-0"
140
0.25
141
12.0
290
     0
  0
SCALE
  5
51
102
{ACAD_REACTORS
330
47
102
}
330
47
100
AcDbScale
 70
     0
300
3/8" = 1'-0"
140
0.375
141
12.0
290
     0
  0
SCALE
  5
52
102
{ACAD_REACTORS
330
47
102
}
330
47
100
AcDbScale
 70
     0
300
1/2" = 1'-0"
140
0.5
141
12.0
290
     0
  0
SCALE
  5
53
102
{ACAD_REACTORS
330
47
102
}
330
47
100
AcDbScale
 70
     0
300
3/4" = 1'-0"
140
0.75
141
12.0
290
     0
  0
SCALE
  5
54
102
{ACAD_REACTORS
330
47
102
}
330
47
100
AcDbScale
 70
     0
300
1" = 1'-0"
140
1.0
141
12.0
290
     0
  0
SCALE
  5
55
102
{ACAD_REACTORS
330
47
102
}
330
47
100
AcDbScale
 70
     0
300
1-1/2" = 1'-0"
140
1.5
141
12.0
290
     0
  0
SCALE
  5
56
102
{ACAD_REACTORS
330
47
102
}
330
47
100
AcDbScale
 70
     0
300
3" = 1'-0"
140
3.0
141
12.0
290
     0
  0
SCALE
  5
57
102
{ACAD_REACTORS
330
47
102
}
330
47
100
AcDbScale
 70
     0
300
6" = 1'-0"
140
6.0
141
12.0
290
     0
  0
SCALE
  5
58
102
{ACAD_REACTORS
330
47
102
}
330
47
100
AcDbScale
 70
     0
300
1'-0" = 1'-0"
140
12.0
141
12.0
290
     0
  0
TABLESTYLE
  5
5A
102
{ACAD_REACTORS
330
59
102
}
102
{ACAD_XDICTIONARY
360
D7
102
}
330
59
100
AcDbTableStyle
  3
Standard
 70
     0
 71
     0
 40
0.06
 41
0.06
280
     0
281
     0
  7
Standard
140
0.18
170
     2
 62
     0
 63
   257
283
     0
 90
        4
 91
        0
  1

274
    -2
284
     1
 64
     0
275
    -2
285
     1
 65
     0
276
    -2
286
     1
 66
     0
277
    -2
287
     1
 67
     0
278
    -2
288
     1
 68
     0
279
    -2
289
     1
 69
     0
  7
Standard
140
0.25
170
     5
 62
     0
 63
   257
283
     0
 90
        4
 91
        0
  1

274
    -2
284
     1
 64
     0
275
    -2
285
     1
 65
     0
276
    -2
286
     1
 66
     0
277
    -2
287
     1
 67
     0
278
    -2
288
     1
 68
     0
279
    -2
289
     1
 69
     0
  7
Standard
140
0.18
170
     5
 62
     0
 63
   257
283
     0
 90
        4
 91
        0
  1

274
    -2
284
     1
 64
     0
275
    -2
285
     1
 65
     0
276
    -2
286
     1
 66
     0
277
    -2
287
     1
 67
     0
278
    -2
288
     1
 68
     0
279
    -2
289
     1
 69
     0
  0
VISUALSTYLE
  5
2F
102
{ACAD_REACTORS
330
2A
102
}
330
2A
100
AcDbVisualStyle
  2
2dWireframe
 70
     4
177
     3
291
     0
 70
    58
 90
        0
176
     1
 90
        2
176
     1
 90
        0
176
     1
 90
        0
176
     1
 40
0.6
176
     1
 40
30.0
176
     1
 62
     7
420
 16777215
176
     1
 90
        1
176
     1
 90
        4
176
     1
 62
     7
176
     1
 62
   257
176
     1
 90
        1
176
     1
 90
        1
176
     1
 40
1.0
176
     1
 90
        0
176
     1
 62
   257
176
     1
 40
1.0
176
     1
 90
        1
176
     1
 90
        6
176
     1
 90
        2
176
     1
 62
     7
176
     1
 90
        5
176
     1
 90
        0
176
     1
 90
        0
176
     1
290
     0
176
     1
 90
        1
176
     1
 40
0.0
176
     1
 90
        0
176
     1
290
     1
176
     1
290
     1
176
     1
290
     0
176
     1
290
     0
176
     1
290
     0
176
     1
290
     0
176
     1
290
     0
176
     1
290
     0
176
     1
290
     0
176
     1
 90
       50
176
     1
 40
0.0
176
     1
 40
1.0
176
     1
 90
        0
176
     1
 62
    18
420
        0
176
     1
 90
       50
176
     1
 90
        3
176
     1
 62
     5
420
      255
176
     1
290
     0
176
     1
 90
       50
176
     1
 90
       50
176
     1
 90
       50
176
     1
290
     0
176
     1
 90
       50
176
     1
 62
   256
176
     0
 40
1.0
176
     0
 90
        2
176
     1
  1
strokes_ogs.tif
176
     1
290
     0
176
     1
 40
1.0
176
     1
 40
1.0
176
     1
  0
VISUALSTYLE
  5
32
102
{ACAD_REACTORS
330
2A
102
}
330
2A
100
AcDbVisualStyle
  2
Basic
 70
     7
177
     3
291
     1
 70
    58
 90
        1
176
     1
 90
        0
176
     1
 90
        1
176
     1
 90
        0
176
     1
 40
0.6
176
     1
 40
30.0
176
     1
 62
     7
420
 16777215
176
     1
 90
        0
176
     1
 90
        4
176
     1
 62
     7
176
     1
 62
   257
176
     1
 90
        1
176
     1
 90
        1
176
     1
 40
1.0
176
     1
 90
        8
176
     1
 62
     7
176
     1
 40
1.0
176
     1
 90
        1
176
     1
 90
        6
176
     1
 90
        2
176
     1
 62
     7
176
     1
 90
        5
176
     1
 90
        0
176
     1
 90
        0
176
     1
290
     0
176
     1
 90
        1
176
     1
 40
0.0
176
     1
 90
        0
176
     1
290
     0
176
     1
290
     1
176
     1
290
     1
176
     1
290
     0
176
     1
290
     0
176
     1
290
     0
176
     1
290
     0
176
     1
290
     0
176
     1
290
     0
176
     1
 90
       50
176
     1
 40
0.0
176
     1
 40
1.0
176
     1
 90
        0
176
     1
 62
    18
420
        0
176
     1
 90
       50
176
     1
 90
        3
176
     1
 62
     5
420
      255
176
     1
290
     0
176
     1
 90
       50
176
     1
 90
       50
176
     1
 90
       50
176
     1
290
     0
176
     1
 90
       50
176
     1
 62
   256
176
     0
 40
1.0
176
     0
 90
        2
176
     1
  1
strokes_ogs.tif
176
     1
290
     0
176
     1
 40
1.0
176
     1
 40
1.0
176
     1
  0
VISUALSTYLE
  5
36
102
{ACAD_REACTORS
330
2A
102
}
330
2A
100
AcDbVisualStyle
  2
Brighten
 70
    12
177
     3
291
     1
 70
    58
 90
        2
176
     1
 90
        2
176
     1
 90
        0
176
     1
 90
        0
176
     1
 40
0.6
176
     1
 40
30.0
176
     1
 62
     7
420
 16777215
176
     1
 90
        1
176
     1
 90
        4
176
     1
 62
     7
176
     1
 62
   257
176
     1
 90
        1
176
     1
 90
        1
176
     1
 40
1.0
176
     1
 90
        8
176
     1
 62
     7
176
     1
 40
1.0
176
     1
 90
        1
176
     1
 90
        6
176
     1
 90
        2
176
     1
 62
     7
176
     1
 90
        5
176
     1
 90
        0
176
     1
 90
        0
176
     1
290
     0
176
     1
 90
        1
176
     1
 40
50.0
176
     1
 90
        0
176
     1
290
     0
176
     1
290
     1
176
     1
290
     1
176
     1
290
     0
176
     1
290
     0
176
     1
290
     0
176
     1
290
     0
176
     1
290
     0
176
     1
290
     0
176
     1
 90
       50
176
     1
 40
0.0
176
     1
 40
1.0
176
     1
 90
        0
176
     1
 62
    18
420
        0
176
     1
 90
       50
176
     1
 90
        3
176
     1
 62
     5
420
      255
176
     1
290
     0
176
     1
 90
       50
176
     1
 90
       50
176
     1
 90
       50
176
     1
290
     0
176
     1
 90
       50
176
     1
 62
   256
176
     0
 40
1.0
176
     0
 90
        2
176
     1
  1
strokes_ogs.tif
176
     1
290
     0
176
     1
 40
1.0
176
     1
 40
1.0
176
     1
  0
VISUALSTYLE
  5
3A
102
{ACAD_REACTORS
330
2A
102
}
330
2A
100
AcDbVisualStyle
  2
ColorChange
 70
    16
177
     3
291
     1
 70
    58
 90
        2
176
     1
 90
        2
176
     1
 90
        3
176
     1
 90
        0
176
     1
 40
0.6
176
     1
 40
30.0
176
     1
 62
     8
420
  8421504
176
     1
 90
        1
176
     1
 90
        4
176
     1
 62
     7
176
     1
 62
   257
176
     1
 90
        1
176
     1
 90
        1
176
     1
 40
1.0
176
     1
 90
        8
176
     1
 62
     8
420
  8421504
176
     1
 40
1.0
176
     1
 90
        1
176
     1
 90
        6
176
     1
 90
        2
176
     1
 62
     7
176
     1
 90
        5
176
     1
 90
        0
176
     1
 90
        0
176
     1
290
     0
176
     1
 90
        1
176
     1
 40
0.0
176
     1
 90
        0
176
     1
290
     0
176
     1
290
     1
176
     1
290
     1
176
     1
290
     0
176
     1
290
     0
176
     1
290
     0
176
     1
290
     0
176
     1
290
     0
176
     1
290
     0
176
     1
 90
       50
176
     1
 40
0.0
176
     1
 40
1.0
176
     1
 90
        0
176
     1
 62
    18
420
        0
176
     1
 90
       50
176
     1
 90
        3
176
     1
 62
     5
420
      255
176
     1
290
     0
176
     1
 90
       50
176
     1
 90
       50
176
     1
 90
       50
176
     1
290
     0
176
     1
 90
       50
176
     1
 62
   256
176
     0
 40
1.0
176
     0
 90
        2
176
     1
  1
strokes_ogs.tif
176
     1
290
     0
176
     1
 40
1.0
176
     1
 40
1.0
176
     1
  0
VISUALSTYLE
  5
34
102
{ACAD_REACTORS
330
2A
102
}
330
2A
100
AcDbVisualStyle
  2
Conceptual
 70
     9
177
     3
291
     0
 70
    58
 90
        3
176
     1
 90
        2
176
     1
 90
        0
176
     1
 90
        0
176
     1
 40
0.6
176
     1
 40
30.0
176
     1
 62
     7
420
 16777215
176
     1
 90
        2
176
     1
 90
        2
176
     1
 62
     7
176
     1
 62
   257
176
     1
 90
        1
176
     1
 90
        1
176
     1
 40
179.0
176
     1
 90
        8
176
     1
 62
     7
176
     1
 40
1.0
176
     1
 90
        1
176
     1
 90
        6
176
     1
 90
        2
176
     1
 62
     7
176
     1
 90
        3
176
     1
 90
        0
176
     1
 90
        0
176
     1
290
     0
176
     1
 90
        1
176
     1
 40
0.0
176
     1
 90
        0
176
     1
290
     0
176
     1
290
     1
176
     1
290
     1
176
     1
290
     0
176
     1
290
     0
176
     1
290
     0
176
     1
290
     0
176
     1
290
     0
176
     1
290
     0
176
     1
 90
       50
176
     1
 40
0.0
176
     1
 40
1.0
176
     1
 90
        0
176
     1
 62
    18
420
        0
176
     1
 90
       50
176
     1
 90
        3
176
     1
 62
     5
420
      255
176
     1
290
     0
176
     1
 90
       50
176
     1
 90
       50
176
     1
 90
       50
176
     1
290
     0
176
     1
 90
       50
176
     1
 62
   256
176
     0
 40
1.0
176
     0
 90
        2
176
     1
  1
strokes_ogs.tif
176
     1
290
     0
176
     1
 40
1.0
176
     1
 40
1.0
176
     1
  0
VISUALSTYLE
  5
35
102
{ACAD_REACTORS
330
2A
102
}
330
2A
100
AcDbVisualStyle
  2
Dim
 70
    11
177
     3
291
     1
 70
    58
 90
        2
176
     1
 90
        2
176
     1
 90
        0
176
     1
 90
        0
176
     1
 40
0.6
176
     1
 40
30.0
176
     1
 62
     7
420
 16777215
176
     1
 90
        1
176
     1
 90
        4
176
     1
 62
     7
176
     1
 62
   257
176
     1
 90
        1
176
     1
 90
        1
176
     1
 40
1.0
176
     1
 90
        8
176
     1
 62
     7
176
     1
 40
1.0
176
     1
 90
        1
176
     1
 90
        6
176
     1
 90
        2
176
     1
 62
     7
176
     1
 90
        5
176
     1
 90
        0
176
     1
 90
        0
176
     1
290
     0
176
     1
 90
        1
176
     1
 40
-50.0
176
     1
 90
        0
176
     1
290
     0
176
     1
290
     1
176
     1
290
     1
176
     1
290
     0
176
     1
290
     0
176
     1
290
     0
176
     1
290
     0
176
     1
290
     0
176
     1
290
     0
176
     1
 90
       50
176
     1
 40
0.0
176
     1
 40
1.0
176
     1
 90
        0
176
     1
 62
    18
420
        0
176
     1
 90
       50
176
     1
 90
        3
176
     1
 62
     5
420
      255
176
     1
290
     0
176
     1
 90
       50
176
     1
 90
       50
176
     1
 90
       50
176
     1
290
     0
176
     1
 90
       50
176
     1
 62
   256
176
     0
 40
1.0
176
     0
 90
        2
176
     1
  1
strokes_ogs.tif
176
     1
290
     0
176
     1
 40
1.0
176
     1
 40
1.0
176
     1
  0
VISUALSTYLE
  5
3D
102
{ACAD_REACTORS
330
2A
102
}
330
2A
100
AcDbVisualStyle
  2
EdgeColorOff
 70
    22
177
     3
291
     1
 70
    58
 90
        2
176
     0
 90
        2
176
     0
 90
        0
176
     0
 90
        0
176
     0
 40
0.6
176
     0
 40
30.0
176
     0
 62
     7
420
 16777215
176
     0
 90
        1
176
     0
 90
        4
176
     0
 62
     7
176
     0
 62
   257
176
     0
 90
        1
176
     0
 90
        1
176
     0
 40
1.0
176
     0
 90
        8
176
     2
 62
     7
176
     0
 40
1.0
176
     0
 90
        1
176
     0
 90
        6
176
     0
 90
        2
176
     0
 62
     7
176
     0
 90
        5
176
     0
 90
        0
176
     0
 90
        0
176
     0
290
     0
176
     0
 90
        1
176
     0
 40
0.0
176
     0
 90
        0
176
     0
290
     0
176
     0
290
     1
176
     0
290
     1
176
     0
290
     0
176
     0
290
     0
176
     0
290
     0
176
     0
290
     0
176
     0
290
     0
176
     0
290
     0
176
     0
 90
       50
176
     0
 40
0.0
176
     0
 40
1.0
176
     0
 90
        0
176
     0
 62
    18
420
        0
176
     0
 90
       50
176
     0
 90
        3
176
     0
 62
     5
420
      255
176
     0
290
     0
176
     0
 90
       50
176
     0
 90
       50
176
     0
 90
       50
176
     0
290
     0
176
     0
 90
       50
176
     0
 62
   256
176
     0
 40
1.0
176
     0
 90
        2
176
     0
  1
strokes_ogs.tif
176
     0
290
     0
176
     0
 40
1.0
176
     0
 40
1.0
176
     0
  0
VISUALSTYLE
  5
39
102
{ACAD_REACTORS
330
2A
102
}
330
2A
100
AcDbVisualStyle
  2
Facepattern
 70
    15
177
     3
291
     1
 70
    58
 90
        2
176
     1
 90
        2
176
     1
 90
        0
176
     1
 90
        0
176
     1
 40
0.6
176
     1
 40
30.0
176
     1
 62
     7
420
 16777215
176
     1
 90
        1
176
     1
 90
        4
176
     1
 62
     7
176
     1
 62
   257
176
     1
 90
        1
176
     1
 90
        1
176
     1
 40
1.0
176
     1
 90
        8
176
     1
 62
     7
176
     1
 40
1.0
176
     1
 90
        1
176
     1
 90
        6
176
     1
 90
        2
176
     1
 62
     7
176
     1
 90
        5
176
     1
 90
        0
176
     1
 90
        0
176
     1
290
     0
176
     1
 90
        1
176
     1
 40
0.0
176
     1
 90
        0
176
     1
290
     0
176
     1
290
     1
176
     1
290
     1
176
     1
290
     0
176
     1
290
     0
176
     1
290
     0
176
     1
290
     0
176
     1
290
     0
176
     1
290
     0
176
     1
 90
       50
176
     1
 40
0.0
176
     1
 40
1.0
176
     1
 90
        0
176
     1
 62
    18
420
        0
176
     1
 90
       50
176
     1
 90
        3
176
     1
 62
     5
420
      255
176
     1
290
     0
176
     1
 90
       50
176
     1
 90
       50
176
     1
 90
       50
176
     1
290
     0
176
     1
 90
       50
176
     1
 62
   256
176
     0
 40
1.0
176
     0
 90
        2
176
     1
  1
strokes_ogs.tif
176
     1
290
     0
176
     1
 40
1.0
176
     1
 40
1.0
176
     1
  0
VISUALSTYLE
  5
2B
102
{ACAD_REACTORS
330
2A
102
}
330
2A
100
AcDbVisualStyle
  2
Flat
 70
     0
177
     3
291
     1
 70
    58
 90
        2
176
     1
 90
        1
176
     1
 90
        1
176
     1
 90
        2
176
     1
 40
0.6
176
     1
 40
30.0
176
     1
 62
     7
420
 16777215
176
     1
 90
        0
176
     1
 90
        0
176
     1
 62
     7
176
     1
 62
   257
176
     1
 90
        1
176
     1
 90
        1
176
     1
 40
1.0
176
     1
 90
        8
176
     1
 62
     7
176
     1
 40
1.0
176
     1
 90
        1
176
     1
 90
        6
176
     1
 90
        2
176
     1
 62
     7
176
     1
 90
        5
176
     1
 90
        0
176
     1
 90
        0
176
     1
290
     0
176
     1
 90
       13
176
     1
 40
0.0
176
     1
 90
        0
176
     1
290
     0
176
     1
290
     1
176
     1
290
     1
176
     1
290
     0
176
     1
290
     0
176
     1
290
     0
176
     1
290
     0
176
     1
290
     0
176
     1
290
     0
176
     1
 90
       50
176
     1
 40
0.0
176
     1
 40
1.0
176
     1
 90
        0
176
     1
 62
    18
420
        0
176
     1
 90
       50
176
     1
 90
        3
176
     1
 62
     5
420
      255
176
     1
290
     0
176
     1
 90
       50
176
     1
 90
       50
176
     1
 90
       50
176
     1
290
     0
176
     1
 90
       50
176
     1
 62
   256
176
     0
 40
1.0
176
     0
 90
        2
176
     1
  1
strokes_ogs.tif
176
     1
290
     0
176
     1
 40
1.0
176
     1
 40
1.0
176
     1
  0
VISUALSTYLE
  5
2C
102
{ACAD_REACTORS
330
2A
102
}
330
2A
100
AcDbVisualStyle
  2
FlatWithEdges
 70
     1
177
     3
291
     1
 70
    58
 90
        2
176
     1
 90
        1
176
     1
 90
        1
176
     1
 90
        2
176
     1
 40
0.6
176
     1
 40
30.0
176
     1
 62
     7
420
 16777215
176
     1
 90
        1
176
     1
 90
        0
176
     1
 62
     7
176
     1
 62
   257
176
     1
 90
        1
176
     1
 90
        1
176
     1
 40
1.0
176
     1
 90
        0
176
     1
 62
   257
176
     1
 40
1.0
176
     1
 90
        1
176
     1
 90
        6
176
     1
 90
        2
176
     1
 62
     7
176
     1
 90
        5
176
     1
 90
        0
176
     1
 90
        0
176
     1
290
     0
176
     1
 90
       13
176
     1
 40
0.0
176
     1
 90
        0
176
     1
290
     0
176
     1
290
     1
176
     1
290
     1
176
     1
290
     0
176
     1
290
     0
176
     1
290
     0
176
     1
290
     0
176
     1
290
     0
176
     1
290
     0
176
     1
 90
       50
176
     1
 40
0.0
176
     1
 40
1.0
176
     1
 90
        0
176
     1
 62
    18
420
        0
176
     1
 90
       50
176
     1
 90
        3
176
     1
 62
     5
420
      255
176
     1
290
     0
176
     1
 90
       50
176
     1
 90
       50
176
     1
 90
       50
176
     1
290
     0
176
     1
 90
       50
176
     1
 62
   256
176
     0
 40
1.0
176
     0
 90
        2
176
     1
  1
strokes_ogs.tif
176
     1
290
     0
176
     1
 40
1.0
176
     1
 40
1.0
176
     1
  0
VISUALSTYLE
  5
2D
102
{ACAD_REACTORS
330
2A
102
}
330
2A
100
AcDbVisualStyle
  2
Gouraud
 70
     2
177
     3
291
     1
 70
    58
 90
        2
176
     1
 90
        2
176
     1
 90
        1
176
     1
 90
        2
176
     1
 40
0.6
176
     1
 40
30.0
176
     1
 62
     7
420
 16777215
176
     1
 90
        0
176
     1
 90
        0
176
     1
 62
     7
176
     1
 62
   257
176
     1
 90
        1
176
     1
 90
        1
176
     1
 40
1.0
176
     1
 90
        0
176
     1
 62
     7
176
     1
 40
1.0
176
     1
 90
        1
176
     1
 90
        6
176
     1
 90
        2
176
     1
 62
     7
176
     1
 90
        5
176
     1
 90
        0
176
     1
 90
        0
176
     1
290
     0
176
     1
 90
       13
176
     1
 40
0.0
176
     1
 90
        0
176
     1
290
     0
176
     1
290
     1
176
     1
290
     1
176
     1
290
     0
176
     1
290
     0
176
     1
290
     0
176
     1
290
     0
176
     1
290
     0
176
     1
290
     0
176
     1
 90
       50
176
     1
 40
0.0
176
     1
 40
1.0
176
     1
 90
        0
176
     1
 62
    18
420
        0
176
     1
 90
       50
176
     1
 90
        3
176
     1
 62
     5
420
      255
176
     1
290
     0
176
     1
 90
       50
176
     1
 90
       50
176
     1
 90
       50
176
     1
290
     0
176
     1
 90
       50
176
     1
 62
   256
176
     0
 40
1.0
176
     0
 90
        2
176
     1
  1
strokes_ogs.tif
176
     1
290
     0
176
     1
 40
1.0
176
     1
 40
1.0
176
     1
  0
VISUALSTYLE
  5
2E
102
{ACAD_REACTORS
330
2A
102
}
330
2A
100
AcDbVisualStyle
  2
GouraudWithEdges
 70
     3
177
     3
291
     1
 70
    58
 90
        2
176
     1
 90
        2
176
     1
 90
        1
176
     1
 90
        2
176
     1
 40
0.6
176
     1
 40
30.0
176
     1
 62
     7
420
 16777215
176
     1
 90
        1
176
     1
 90
        0
176
     1
 62
     7
176
     1
 62
   257
176
     1
 90
        1
176
     1
 90
        1
176
     1
 40
1.0
176
     1
 90
        0
176
     1
 62
   257
176
     1
 40
1.0
176
     1
 90
        1
176
     1
 90
        6
176
     1
 90
        2
176
     1
 62
     7
176
     1
 90
        5
176
     1
 90
        0
176
     1
 90
        0
176
     1
290
     0
176
     1
 90
       13
176
     1
 40
0.0
176
     1
 90
        0
176
     1
290
     0
176
     1
290
     1
176
     1
290
     1
176
     1
290
     0
176
     1
290
     0
176
     1
290
     0
176
     1
290
     0
176
     1
290
     0
176
     1
290
     0
176
     1
 90
       50
176
     1
 40
0.0
176
     1
 40
1.0
176
     1
 90
        0
176
     1
 62
    18
420
        0
176
     1
 90
       50
176
     1
 90
        3
176
     1
 62
     5
420
      255
176
     1
290
     0
176
     1
 90
       50
176
     1
 90
       50
176
     1
 90
       50
176
     1
290
     0
176
     1
 90
       50
176
     1
 62
   256
176
     0
 40
1.0
176
     0
 90
        2
176
     1
  1
strokes_ogs.tif
176
     1
290
     0
176
     1
 40
1.0
176
     1
 40
1.0
176
     1
  0
VISUALSTYLE
  5
31
102
{ACAD_REACTORS
330
2A
102
}
330
2A
100
AcDbVisualStyle
  2
Hidden
 70
     6
177
     3
291
     0
 70
    58
 90
        1
176
     1
 90
        2
176
     1
 90
        2
176
     1
 90
        0
176
     1
 40
0.6
176
     1
 40
30.0
176
     1
 62
     7
420
 16777215
176
     1
 90
        2
176
     1
 90
        2
176
     1
 62
     7
176
     1
 62
   257
176
     1
 90
        2
176
     1
 90
        1
176
     1
 40
40.0
176
     1
 90
        0
176
     1
 62
   257
176
     1
 40
1.0
176
     1
 90
        1
176
     1
 90
        6
176
     1
 90
        2
176
     1
 62
     7
176
     1
 90
        3
176
     1
 90
        0
176
     1
 90
        0
176
     1
290
     0
176
     1
 90
        1
176
     1
 40
0.0
176
     1
 90
        0
176
     1
290
     0
176
     1
290
     1
176
     1
290
     1
176
     1
290
     0
176
     1
290
     0
176
     1
290
     0
176
     1
290
     0
176
     1
290
     0
176
     1
290
     0
176
     1
 90
       50
176
     1
 40
0.0
176
     1
 40
1.0
176
     1
 90
        0
176
     1
 62
    18
420
        0
176
     1
 90
       50
176
     1
 90
        3
176
     1
 62
     5
420
      255
176
     1
290
     0
176
     1
 90
       50
176
     1
 90
       50
176
     1
 90
       50
176
     1
290
     0
176
     1
 90
       50
176
     1
 62
   256
176
     0
 40
1.0
176
     0
 90
        2
176
     1
  1
strokes_ogs.tif
176
     1
290
     0
176
     1
 40
1.0
176
     1
 40
1.0
176
     1
  0
VISUALSTYLE
  5
3B
102
{ACAD_REACTORS
330
2A
102
}
330
2A
100
AcDbVisualStyle
  2
JitterOff
 70
    20
177
     3
291
     1
 70
    58
 90
        2
176
     0
 90
        2
176
     0
 90
        0
176
     0
 90
        0
176
     0
 40
0.6
176
     0
 40
30.0
176
     0
 62
     7
420
 16777215
176
     0
 90
        1
176
     0
 90
        4
176
     0
 62
     7
176
     0
 62
   257
176
     0
 90
        1
176
     0
 90
        1
176
     0
 40
1.0
176
     0
 90
       10
176
     2
 62
     7
176
     0
 40
1.0
176
     0
 90
        1
176
     0
 90
        6
176
     0
 90
        2
176
     0
 62
     7
176
     0
 90
        5
176
     0
 90
        0
176
     0
 90
        0
176
     0
290
     0
176
     0
 90
        1
176
     0
 40
0.0
176
     0
 90
        0
176
     0
290
     0
176
     0
290
     1
176
     0
290
     1
176
     0
290
     0
176
     0
290
     0
176
     0
290
     0
176
     0
290
     0
176
     0
290
     0
176
     0
290
     0
176
     0
 90
       50
176
     0
 40
0.0
176
     0
 40
1.0
176
     0
 90
        0
176
     0
 62
    18
420
        0
176
     0
 90
       50
176
     0
 90
        3
176
     0
 62
     5
420
      255
176
     0
290
     0
176
     0
 90
       50
176
     0
 90
       50
176
     0
 90
       50
176
     0
290
     0
176
     0
 90
       50
176
     0
 62
   256
176
     0
 40
1.0
176
     0
 90
        2
176
     0
  1
strokes_ogs.tif
176
     0
290
     0
176
     0
 40
1.0
176
     0
 40
1.0
176
     0
  0
VISUALSTYLE
  5
38
102
{ACAD_REACTORS
330
2A
102
}
330
2A
100
AcDbVisualStyle
  2
Linepattern
 70
    14
177
     3
291
     1
 70
    58
 90
        2
176
     1
 90
        2
176
     1
 90
        0
176
     1
 90
        0
176
     1
 40
0.6
176
     1
 40
30.0
176
     1
 62
     7
420
 16777215
176
     1
 90
        1
176
     1
 90
        4
176
     1
 62
     7
176
     1
 62
   257
176
     1
 90
        7
176
     1
 90
        7
176
     1
 40
1.0
176
     1
 90
        8
176
     1
 62
     7
176
     1
 40
1.0
176
     1
 90
        1
176
     1
 90
        6
176
     1
 90
        2
176
     1
 62
     7
176
     1
 90
        5
176
     1
 90
        0
176
     1
 90
        0
176
     1
290
     0
176
     1
 90
        1
176
     1
 40
0.0
176
     1
 90
        0
176
     1
290
     0
176
     1
290
     1
176
     1
290
     1
176
     1
290
     0
176
     1
290
     0
176
     1
290
     0
176
     1
290
     0
176
     1
290
     0
176
     1
290
     0
176
     1
 90
       50
176
     1
 40
0.0
176
     1
 40
1.0
176
     1
 90
        0
176
     1
 62
    18
420
        0
176
     1
 90
       50
176
     1
 90
        3
176
     1
 62
     5
420
      255
176
     1
290
     0
176
     1
 90
       50
176
     1
 90
       50
176
     1
 90
       50
176
     1
290
     0
176
     1
 90
       50
176
     1
 62
   256
176
     0
 40
1.0
176
     0
 90
        2
176
     1
  1
strokes_ogs.tif
176
     1
290
     0
176
     1
 40
1.0
176
     1
 40
1.0
176
     1
  0
VISUALSTYLE
  5
3C
102
{ACAD_REACTORS
330
2A
102
}
330
2A
100
AcDbVisualStyle
  2
OverhangOff
 70
    21
177
     3
291
     1
 70
    58
 90
        2
176
     0
 90
        2
176
     0
 90
        0
176
     0
 90
        0
176
     0
 40
0.6
176
     0
 40
30.0
176
     0
 62
     7
420
 16777215
176
     0
 90
        1
176
     0
 90
        4
176
     0
 62
     7
176
     0
 62
   257
176
     0
 90
        1
176
     0
 90
        1
176
     0
 40
1.0
176
     0
 90
        9
176
     2
 62
     7
176
     0
 40
1.0
176
     0
 90
        1
176
     0
 90
        6
176
     0
 90
        2
176
     0
 62
     7
176
     0
 90
        5
176
     0
 90
        0
176
     0
 90
        0
176
     0
290
     0
176
     0
 90
        1
176
     0
 40
0.0
176
     0
 90
        0
176
     0
290
     0
176
     0
290
     1
176
     0
290
     1
176
     0
290
     0
176
     0
290
     0
176
     0
290
     0
176
     0
290
     0
176
     0
290
     0
176
     0
290
     0
176
     0
 90
       50
176
     0
 40
0.0
176
     0
 40
1.0
176
     0
 90
        0
176
     0
 62
    18
420
        0
176
     0
 90
       50
176
     0
 90
        3
176
     0
 62
     5
420
      255
176
     0
290
     0
176
     0
 90
       50
176
     0
 90
       50
176
     0
 90
       50
176
     0
290
     0
176
     0
 90
       50
176
     0
 62
   256
176
     0
 40
1.0
176
     0
 90
        2
176
     0
  1
strokes_ogs.tif
176
     0
290
     0
176
     0
 40
1.0
176
     0
 40
1.0
176
     0
  0
VISUALSTYLE
  5
33
102
{ACAD_REACTORS
330
2A
102
}
330
2A
100
AcDbVisualStyle
  2
Realistic
 70
     8
177
     3
291
     0
 70
    58
 90
        2
176
     1
 90
        3
176
     1
 90
        0
176
     1
 90
        2
176
     1
 40
0.6
176
     1
 40
30.0
176
     1
 62
     7
420
 16777215
176
     1
 90
        0
176
     1
 90
        0
176
     1
 62
     7
176
     1
 62
   257
176
     1
 90
        1
176
     1
 90
        1
176
     1
 40
1.0
176
     1
 90
        8
176
     1
 62
   257
176
     1
 40
1.0
176
     1
 90
        1
176
     1
 90
        6
176
     1
 90
        2
176
     1
 62
     7
176
     1
 90
        3
176
     1
 90
        0
176
     1
 90
        0
176
     1
290
     0
176
     1
 90
       13
176
     1
 40
0.0
176
     1
 90
        0
176
     1
290
     0
176
     1
290
     1
176
     1
290
     1
176
     1
290
     0
176
     1
290
     0
176
     1
290
     0
176
     1
290
     0
176
     1
290
     0
176
     1
290
     0
176
     1
 90
       50
176
     1
 40
0.0
176
     1
 40
1.0
176
     1
 90
        0
176
     1
 62
    18
420
        0
176
     1
 90
       50
176
     1
 90
        3
176
     1
 62
     5
420
      255
176
     1
290
     0
176
     1
 90
       50
176
     1
 90
       50
176
     1
 90
       50
176
     1
290
     0
176
     1
 90
       50
176
     1
 62
   256
176
     0
 40
1.0
176
     0
 90
        2
176
     1
  1
strokes_ogs.tif
176
     1
290
     0
176
     1
 40
1.0
176
     1
 40
1.0
176
     1
  0
VISUALSTYLE
  5
42
102
{ACAD_REACTORS
330
2A
102
}
330
2A
100
AcDbVisualStyle
  2
Shaded
 70
    27
177
     3
291
     0
 70
    58
 90
        2
176
     1
 90
        2
176
     1
 90
        1
176
     1
 90
        2
176
     1
 40
0.6
176
     1
 40
30.0
176
     1
 62
     7
420
 16777215
176
     1
 90
        0
176
     1
 90
        4
176
     1
 62
     7
176
     1
 62
   257
176
     1
 90
        1
176
     1
 90
        1
176
     1
 40
1.0
176
     1
 90
        8
176
     1
 62
   257
176
     1
 40
1.0
176
     1
 90
        1
176
     1
 90
        6
176
     1
 90
        2
176
     1
 62
     8
420
  7895160
176
     1
 90
        3
176
     1
 90
        0
176
     1
 90
        0
176
     1
290
     0
176
     1
 90
        5
176
     1
 40
0.0
176
     1
 90
        0
176
     1
290
     0
176
     1
290
     1
176
     1
290
     1
176
     1
290
     0
176
     1
290
     0
176
     1
290
     0
176
     1
290
     0
176
     1
290
     0
176
     1
290
     0
176
     1
 90
       50
176
     1
 40
0.0
176
     1
 40
1.0
176
     1
 90
        0
176
     1
 62
    18
420
        0
176
     1
 90
       50
176
     1
 90
        3
176
     1
 62
     5
420
      255
176
     1
290
     0
176
     1
 90
       50
176
     1
 90
       50
176
     1
 90
       50
176
     1
290
     0
176
     1
 90
       50
176
     1
 62
   256
176
     0
 40
1.0
176
     0
 90
        2
176
     1
  1
strokes_ogs.tif
176
     1
290
     0
176
     1
 40
1.0
176
     1
 40
1.0
176
     1
  0
VISUALSTYLE
  5
41
102
{ACAD_REACTORS
330
2A
102
}
330
2A
100
AcDbVisualStyle
  2
Shaded with edges
 70
    26
177
     3
291
     0
 70
    58
 90
        2
176
     1
 90
        2
176
     1
 90
        1
176
     1
 90
        2
176
     1
 40
0.6
176
     1
 40
30.0
176
     1
 62
     7
420
 16777215
176
     1
 90
        1
176
     1
 90
       10
176
     1
 62
     7
176
     1
 62
   257
176
     1
 90
        2
176
     1
 90
        1
176
     1
 40
1.0
176
     1
 90
        8
176
     1
 62
   257
176
     1
 40
1.0
176
     1
 90
        1
176
     1
 90
        6
176
     1
 90
        2
176
     1
 62
     7
176
     1
 90
        3
176
     1
 90
        0
176
     1
 90
        0
176
     1
290
     0
176
     1
 90
        5
176
     1
 40
0.0
176
     1
 90
        0
176
     1
290
     0
176
     1
290
     1
176
     1
290
     1
176
     1
290
     0
176
     1
290
     0
176
     1
290
     0
176
     1
290
     0
176
     1
290
     0
176
     1
290
     0
176
     1
 90
       50
176
     1
 40
0.0
176
     1
 40
1.0
176
     1
 90
        0
176
     1
 62
    18
420
        0
176
     1
 90
       50
176
     1
 90
        3
176
     1
 62
     5
420
      255
176
     1
290
     0
176
     1
 90
       50
176
     1
 90
       50
176
     1
 90
       50
176
     1
290
     0
176
     1
 90
       50
176
     1
 62
   256
176
     0
 40
1.0
176
     0
 90
        2
176
     1
  1
strokes_ogs.tif
176
     1
290
     0
176
     1
 40
1.0
176
     1
 40
1.0
176
     1
  0
VISUALSTYLE
  5
3E
102
{ACAD_REACTORS
330
2A
102
}
330
2A
100
AcDbVisualStyle
  2
Shades of Gray
 70
    23
177
     3
291
     0
 70
    58
 90
        2
176
     1
 90
        2
176
     1
 90
        3
176
     1
 90
        0
176
     1
 40
0.6
176
     1
 40
30.0
176
     1
 62
     7
420
 16777215
176
     1
 90
        2
176
     1
 90
        2
176
     1
 62
     7
176
     1
 62
     7
176
     1
 90
        1
176
     1
 90
        1
176
     1
 40
40.0
176
     1
 90
        8
176
     1
 62
     7
176
     1
 40
1.0
176
     1
 90
        1
176
     1
 90
        6
176
     1
 90
        2
176
     1
 62
     7
176
     1
 90
        3
176
     1
 90
        0
176
     1
 90
        0
176
     1
290
     0
176
     1
 90
        1
176
     1
 40
0.0
176
     1
 90
        0
176
     1
290
     0
176
     1
290
     1
176
     1
290
     1
176
     1
290
     0
176
     1
290
     0
176
     1
290
     0
176
     1
290
     0
176
     1
290
     0
176
     1
290
     0
176
     1
 90
       50
176
     1
 40
0.0
176
     1
 40
1.0
176
     1
 90
        0
176
     1
 62
    18
420
        0
176
     1
 90
       50
176
     1
 90
        3
176
     1
 62
     5
420
      255
176
     1
290
     0
176
     1
 90
       50
176
     1
 90
       50
176
     1
 90
       50
176
     1
290
     0
176
     1
 90
       50
176
     1
 62
   256
176
     0
 40
1.0
176
     0
 90
        2
176
     1
  1
strokes_ogs.tif
176
     1
290
     0
176
     1
 40
1.0
176
     1
 40
1.0
176
     1
  0
VISUALSTYLE
  5
3F
102
{ACAD_REACTORS
330
2A
102
}
330
2A
100
AcDbVisualStyle
  2
Sketchy
 70
    24
177
     3
291
     0
 70
    58
 90
        1
176
     1
 90
        2
176
     1
 90
        2
176
     1
 90
        0
176
     1
 40
0.6
176
     1
 40
30.0
176
     1
 62
     7
420
 16777215
176
     1
 90
        2
176
     1
 90
        2
176
     1
 62
     7
176
     1
 62
     7
176
     1
 90
        1
176
     1
 90
        1
176
     1
 40
40.0
176
     1
 90
       11
176
     1
 62
     7
176
     1
 40
1.0
176
     1
 90
        1
176
     1
 90
        6
176
     1
 90
        2
176
     1
 62
     7
176
     1
 90
        6
176
     1
 90
        0
176
     1
 90
        0
176
     1
290
     0
176
     1
 90
        1
176
     1
 40
0.0
176
     1
 90
        0
176
     1
290
     0
176
     1
290
     1
176
     1
290
     1
176
     1
290
     0
176
     1
290
     0
176
     1
290
     0
176
     1
290
     0
176
     1
290
     0
176
     1
290
     0
176
     1
 90
       50
176
     1
 40
0.0
176
     1
 40
1.0
176
     1
 90
        0
176
     1
 62
    18
420
        0
176
     1
 90
       50
176
     1
 90
        3
176
     1
 62
     5
420
      255
176
     1
290
     0
176
     1
 90
       50
176
     1
 90
       50
176
     1
 90
       50
176
     1
290
     0
176
     1
 90
       50
176
     1
 62
   256
176
     0
 40
1.0
176
     0
 90
        2
176
     1
  1
strokes_ogs.tif
176
     1
290
     0
176
     1
 40
1.0
176
     1
 40
1.0
176
     1
  0
VISUALSTYLE
  5
37
102
{ACAD_REACTORS
330
2A
102
}
330
2A
100
AcDbVisualStyle
  2
Thicken
 70
    13
177
     3
291
     1
 70
    58
 90
        2
176
     1
 90
        2
176
     1
 90
        0
176
     1
 90
        0
176
     1
 40
0.6
176
     1
 40
30.0
176
     1
 62
     7
420
 16777215
176
     1
 90
        1
176
     1
 90
        4
176
     1
 62
     7
176
     1
 62
   257
176
     1
 90
        1
176
     1
 90
        1
176
     1
 40
1.0
176
     1
 90
       12
176
     1
 62
     7
176
     1
 40
1.0
176
     1
 90
        1
176
     1
 90
        6
176
     1
 90
        2
176
     1
 62
     7
176
     1
 90
        5
176
     1
 90
        0
176
     1
 90
        0
176
     1
290
     0
176
     1
 90
        1
176
     1
 40
0.0
176
     1
 90
        0
176
     1
290
     0
176
     1
290
     1
176
     1
290
     1
176
     1
290
     0
176
     1
290
     0
176
     1
290
     0
176
     1
290
     0
176
     1
290
     0
176
     1
290
     0
176
     1
 90
       50
176
     1
 40
0.0
176
     1
 40
1.0
176
     1
 90
        0
176
     1
 62
    18
420
        0
176
     1
 90
       50
176
     1
 90
        3
176
     1
 62
     5
420
      255
176
     1
290
     0
176
     1
 90
       50
176
     1
 90
       50
176
     1
 90
       50
176
     1
290
     0
176
     1
 90
       50
176
     1
 62
   256
176
     0
 40
1.0
176
     0
 90
        2
176
     1
  1
strokes_ogs.tif
176
     1
290
     0
176
     1
 40
1.0
176
     1
 40
1.0
176
     1
  0
VISUALSTYLE
  5
30
102
{ACAD_REACTORS
330
2A
102
}
330
2A
100
AcDbVisualStyle
  2
Wireframe
 70
     5
177
     3
291
     0
 70
    58
 90
        0
176
     1
 90
        2
176
     1
 90
        0
176
     1
 90
        0
176
     1
 40
0.6
176
     1
 40
30.0
176
     1
 62
     7
420
 16777215
176
     1
 90
        1
176
     1
 90
        4
176
     1
 62
     7
176
     1
 62
   257
176
     1
 90
        1
176
     1
 90
        1
176
     1
 40
1.0
176
     1
 90
        0
176
     1
 62
   257
176
     1
 40
1.0
176
     1
 90
        1
176
     1
 90
        6
176
     1
 90
        2
176
     1
 62
     7
176
     1
 90
        3
176
     1
 90
        0
176
     1
 90
        0
176
     1
290
     0
176
     1
 90
        1
176
     1
 40
0.0
176
     1
 90
        0
176
     1
290
     0
176
     1
290
     1
176
     1
290
     1
176
     1
290
     0
176
     1
290
     0
176
     1
290
     0
176
     1
290
     0
176
     1
290
     0
176
     1
290
     0
176
     1
 90
       50
176
     1
 40
0.0
176
     1
 40
1.0
176
     1
 90
        0
176
     1
 62
    18
420
        0
176
     1
 90
       50
176
     1
 90
        3
176
     1
 62
     5
420
      255
176
     1
290
     0
176
     1
 90
       50
176
     1
 90
       50
176
     1
 90
       50
176
     1
290
     0
176
     1
 90
       50
176
     1
 62
   256
176
     0
 40
1.0
176
     0
 90
        2
176
     1
  1
strokes_ogs.tif
176
     1
290
     0
176
     1
 40
1.0
176
     1
 40
1.0
176
     1
  0
VISUALSTYLE
  5
40
102
{ACAD_REACTORS
330
2A
102
}
330
2A
100
AcDbVisualStyle
  2
X-Ray
 70
    25
177
     3
291
     0
 70
    58
 90
        2
176
     1
 90
        2
176
     1
 90
        1
176
     1
 90
        1
176
     1
 40
0.5
176
     1
 40
30.0
176
     1
 62
     7
420
 16777215
176
     1
 90
        1
176
     1
 90
        0
176
     1
 62
     7
176
     1
 62
   257
176
     1
 90
        1
176
     1
 90
        1
176
     1
 40
1.0
176
     1
 90
        8
176
     1
 62
     7
176
     1
 40
1.0
176
     1
 90
        1
176
     1
 90
        6
176
     1
 90
        2
176
     1
 62
     7
176
     1
 90
        3
176
     1
 90
        0
176
     1
 90
        0
176
     1
290
     0
176
     1
 90
       13
176
     1
 40
0.0
176
     1
 90
        0
176
     1
290
     0
176
     1
290
     1
176
     1
290
     1
176
     1
290
     0
176
     1
290
     0
176
     1
290
     0
176
     1
290
     0
176
     1
290
     0
176
     1
290
     0
176
     1
 90
       50
176
     1
 40
0.0
176
     1
 40
1.0
176
     1
 90
        0
176
     1
 62
    18
420
        0
176
     1
 90
       50
176
     1
 90
        3
176
     1
 62
     5
420
      255
176
     1
290
     0
176
     1
 90
       50
176
     1
 90
       50
176
     1
 90
       50
176
     1
290
     0
176
     1
 90
       50
176
     1
 62
   256
176
     0
 40
1.0
176
     0
 90
        2
176
     1
  1
strokes_ogs.tif
176
     1
290
     0
176
     1
 40
1.0
176
     1
 40
1.0
176
     1
  0
DICTIONARYVAR
  5
D6
102
{ACAD_REACTORS
330
D5
102
}
330
D5
100
DictionaryVariables
280
     0
  1
1:1
  0
DICTIONARYVAR
  5
DB
102
{ACAD_REACTORS
330
D5
102
}
330
D5
100
DictionaryVariables
280
     0
  1
Standard
  0
DICTIONARYVAR
  5
DA
102
{ACAD_REACTORS
330
D5
102
}
330
D5
100
DictionaryVariables
280
     0
  1
Standard
  0
DICTIONARY
  5
D7
330
5A
100
AcDbDictionary
280
     1
281
     1
  3
ACAD_ROUNDTRIP_2008_TABLESTYLE_CELLSTYLEMAP
360
D8
  0
CELLSTYLEMAP
  5
D8
102
{ACAD_REACTORS
330
D7
102
}
330
D7
100
AcDbCellStyleMap
 90
        3
300
CELLSTYLE
  1
TABLEFORMAT_BEGIN
 90
        5
170
     1
 91
        0
 92
    32768
 62
   257
 93
        1
300
CONTENTFORMAT
  1
CONTENTFORMAT_BEGIN
 90
        0
 91
        0
 92
        4
 93
        0
300

 40
0.0
140
1.0
 94
        5
 62
     0
340
11
144
0.25
309
CONTENTFORMAT_END
171
     1
301
MARGIN
  1
CELLMARGIN_BEGIN
 40
0.06
 40
0.06
 40
0.06
 40
0.06
 40
0.06
 40
0.06
309
CELLMARGIN_END
 94
        6
 95
        1
302
GRIDFORMAT
  1
GRIDFORMAT_BEGIN
 90
        0
 91
        1
 62
     0
 92
       -2
340
14
 93
        0
 40
0.045
309
GRIDFORMAT_END
 95
        2
302
GRIDFORMAT
  1
GRIDFORMAT_BEGIN
 90
        0
 91
        1
 62
     0
 92
       -2
340
14
 93
        0
 40
0.045
309
GRIDFORMAT_END
 95
        4
302
GRIDFORMAT
  1
GRIDFORMAT_BEGIN
 90
        0
 91
        1
 62
     0
 92
       -2
340
14
 93
        0
 40
0.045
309
GRIDFORMAT_END
 95
        8
302
GRIDFORMAT
  1
GRIDFORMAT_BEGIN
 90
        0
 91
        1
 62
     0
 92
       -2
340
14
 93
        0
 40
0.045
309
GRIDFORMAT_END
 95
       16
302
GRIDFORMAT
  1
GRIDFORMAT_BEGIN
 90
        0
 91
        1
 62
     0
 92
       -2
340
14
 93
        0
 40
0.045
309
GRIDFORMAT_END
 95
       32
302
GRIDFORMAT
  1
GRIDFORMAT_BEGIN
 90
        0
 91
        1
 62
     0
 92
       -2
340
14
 93
        0
 40
0.045
309
GRIDFORMAT_END
309
TABLEFORMAT_END
  1
CELLSTYLE_BEGIN
 90
        1
 91
        1
300
_TITLE
309
CELLSTYLE_END
300
CELLSTYLE
  1
TABLEFORMAT_BEGIN
 90
        5
170
     1
 91
        0
 92
        0
 62
   257
 93
        1
300
CONTENTFORMAT
  1
CONTENTFORMAT_BEGIN
 90
        0
 91
        0
 92
        4
 93
        0
300

 40
0.0
140
1.0
 94
        5
 62
     0
340
11
144
0.18
309
CONTENTFORMAT_END
171
     1
301
MARGIN
  1
CELLMARGIN_BEGIN
 40
0.06
 40
0.06
 40
0.06
 40
0.06
 40
0.06
 40
0.06
309
CELLMARGIN_END
 94
        6
 95
        1
302
GRIDFORMAT
  1
GRIDFORMAT_BEGIN
 90
        0
 91
        1
 62
     0
 92
       -2
340
14
 93
        0
 40
0.045
309
GRIDFORMAT_END
 95
        2
302
GRIDFORMAT
  1
GRIDFORMAT_BEGIN
 90
        0
 91
        1
 62
     0
 92
       -2
340
14
 93
        0
 40
0.045
309
GRIDFORMAT_END
 95
        4
302
GRIDFORMAT
  1
GRIDFORMAT_BEGIN
 90
        0
 91
        1
 62
     0
 92
       -2
340
14
 93
        0
 40
0.045
309
GRIDFORMAT_END
 95
        8
302
GRIDFORMAT
  1
GRIDFORMAT_BEGIN
 90
        0
 91
        1
 62
     0
 92
       -2
340
14
 93
        0
 40
0.045
309
GRIDFORMAT_END
 95
       16
302
GRIDFORMAT
  1
GRIDFORMAT_BEGIN
 90
        0
 91
        1
 62
     0
 92
       -2
340
14
 93
        0
 40
0.045
309
GRIDFORMAT_END
 95
       32
302
GRIDFORMAT
  1
GRIDFORMAT_BEGIN
 90
        0
 91
        1
 62
     0
 92
       -2
340
14
 93
        0
 40
0.045
309
GRIDFORMAT_END
309
TABLEFORMAT_END
  1
CELLSTYLE_BEGIN
 90
        2
 91
        1
300
_HEADER
309
CELLSTYLE_END
300
CELLSTYLE
  1
TABLEFORMAT_BEGIN
 90
        5
170
     1
 91
        0
 92
        0
 62
   257
 93
        1
300
CONTENTFORMAT
  1
CONTENTFORMAT_BEGIN
 90
        0
 91
        0
 92
        4
 93
        0
300

 40
0.0
140
1.0
 94
        2
 62
     0
340
11
144
0.18
309
CONTENTFORMAT_END
171
     1
301
MARGIN
  1
CELLMARGIN_BEGIN
 40
0.06
 40
0.06
 40
0.06
 40
0.06
 40
0.06
 40
0.06
309
CELLMARGIN_END
 94
        6
 95
        1
302
GRIDFORMAT
  1
GRIDFORMAT_BEGIN
 90
        0
 91
        1
 62
     0
 92
       -2
340
14
 93
        0
 40
0.045
309
GRIDFORMAT_END
 95
        2
302
GRIDFORMAT
  1
GRIDFORMAT_BEGIN
 90
        0
 91
        1
 62
     0
 92
       -2
340
14
 93
        0
 40
0.045
309
GRIDFORMAT_END
 95
        4
302
GRIDFORMAT
  1
GRIDFORMAT_BEGIN
 90
        0
 91
        1
 62
     0
 92
       -2
340
14
 93
        0
 40
0.045
309
GRIDFORMAT_END
 95
        8
302
GRIDFORMAT
  1
GRIDFORMAT_BEGIN
 90
        0
 91
        1
 62
     0
 92
       -2
340
14
 93
        0
 40
0.045
309
GRIDFORMAT_END
 95
       16
302
GRIDFORMAT
  1
GRIDFORMAT_BEGIN
 90
        0
 91
        1
 62
     0
 92
       -2
340
14
 93
        0
 40
0.045
309
GRIDFORMAT_END
 95
       32
302
GRIDFORMAT
  1
GRIDFORMAT_BEGIN
 90
        0
 91
        1
 62
     0
 92
       -2
340
14
 93
        0
 40
0.045
309
GRIDFORMAT_END
309
TABLEFORMAT_END
  1
CELLSTYLE_BEGIN
 90
        3
 91
        2
300
_DATA
309
CELLSTYLE_END
  0
ENDSEC
  0
EOF
