  0
SECTION
  2
HEADER
  9
$ACADVER
  1
AC1032
  9
$ACADMAINTVER
 90
       55
  9
$DWGCODEPAGE
  3
ANSI_1252
  9
$LASTSAVEDBY
  1
LYI-002
  9
$REQUIREDVERSIONS
160
                 0
  9
$INSBASE
 10
0.0
 20
0.0
 30
0.0
  9
$EXTMIN
 10
-1200.1511
 20
-590.1266
 30
0.0
  9
$EXTMAX
 10
1200.0511
 20
590.0734
 30
0.0
  9
$LIMMIN
 10
0.0
 20
0.0
  9
$LIMMAX
 10
12.0
 20
9.0
  9
$ORTHOMODE
 70
     0
  9
$REGENMODE
 70
     1
  9
$FILLMODE
 70
     1
  9
$QTEXTMODE
 70
     0
  9
$MIRRTEXT
 70
     1
  9
$LTSCALE
 40
1.0
  9
$ATTMODE
 70
     1
  9
$TEXTSIZE
 40
0.2
  9
$TRACEWID
 40
0.05
  9
$TEXTSTYLE
  7
Standard
  9
$CLAYER
  8
0
  9
$CELTYPE
  6
ByLayer
  9
$CECOLOR
 62
   256
  9
$CELTSCALE
 40
1.0
  9
$DISPSILH
 70
     0
  9
$DIMSCALE
 40
1.0
  9
$DIMASZ
 40
0.18
  9
$DIMEXO
 40
0.0625
  9
$DIMDLI
 40
0.38
  9
$DIMRND
 40
0.0
  9
$DIMDLE
 40
0.0
  9
$DIMEXE
 40
0.18
  9
$DIMTP
 40
0.0
  9
$DIMTM
 40
0.0
  9
$DIMTXT
 40
0.18
  9
$DIMCEN
 40
0.09
  9
$DIMTSZ
 40
0.0
  9
$DIMTOL
 70
     0
  9
$DIMLIM
 70
     0
  9
$DIMTIH
 70
     1
  9
$DIMTOH
 70
     1
  9
$DIMSE1
 70
     0
  9
$DIMSE2
 70
     0
  9
$DIMTAD
 70
     0
  9
$DIMZIN
 70
     0
  9
$DIMBLK
  1

  9
$DIMASO
 70
     1
  9
$DIMSHO
 70
     1
  9
$DIMPOST
  1

  9
$DIMAPOST
  1

  9
$DIMALT
 70
     0
  9
$DIMALTD
 70
     2
  9
$DIMALTF
 40
25.4
  9
$DIMLFAC
 40
1.0
  9
$DIMTOFL
 70
     0
  9
$DIMTVP
 40
0.0
  9
$DIMTIX
 70
     0
  9
$DIMSOXD
 70
     0
  9
$DIMSAH
 70
     0
  9
$DIMBLK1
  1

  9
$DIMBLK2
  1

  9
$DIMSTYLE
  2
Standard
  9
$DIMCLRD
 70
     0
  9
$DIMCLRE
 70
     0
  9
$DIMCLRT
 70
     0
  9
$DIMTFAC
 40
1.0
  9
$DIMGAP
 40
0.09
  9
$DIMJUST
 70
     0
  9
$DIMSD1
 70
     0
  9
$DIMSD2
 70
     0
  9
$DIMTOLJ
 70
     1
  9
$DIMTZIN
 70
     0
  9
$DIMALTZ
 70
     0
  9
$DIMALTTZ
 70
     0
  9
$DIMUPT
 70
     0
  9
$DIMDEC
 70
     4
  9
$DIMTDEC
 70
     4
  9
$DIMALTU
 70
     2
  9
$DIMALTTD
 70
     2
  9
$DIMTXSTY
  7
Standard
  9
$DIMAUNIT
 70
     0
  9
$DIMADEC
 70
     0
  9
$DIMALTRND
 40
0.0
  9
$DIMAZIN
 70
     0
  9
$DIMDSEP
 70
    46
  9
$DIMATFIT
 70
     3
  9
$DIMFRAC
 70
     0
  9
$DIMLDRBLK
  1

  9
$DIMLUNIT
 70
     2
  9
$DIMLWD
 70
    -2
  9
$DIMLWE
 70
    -2
  9
$DIMTMOVE
 70
     0
  9
$DIMFXL
 40
1.0
  9
$DIMFXLON
 70
     0
  9
$DIMJOGANG
 40
0.7853981633974483
  9
$DIMTFILL
 70
     0
  9
$DIMTFILLCLR
 70
     0
  9
$DIMARCSYM
 70
     0
  9
$DIMLTYPE
  6

  9
$DIMLTEX1
  6

  9
$DIMLTEX2
  6

  9
$DIMTXTDIRECTION
 70
     0
  9
$LUNITS
 70
     2
  9
$LUPREC
 70
     4
  9
$SKETCHINC
 40
0.1
  9
$FILLETRAD
 40
0.0
  9
$AUNITS
 70
     0
  9
$AUPREC
 70
     0
  9
$MENU
  1
.
  9
$ELEVATION
 40
0.0
  9
$PELEVATION
 40
0.0
  9
$THICKNESS
 40
0.0
  9
$LIMCHECK
 70
     0
  9
$CHAMFERA
 40
0.0
  9
$CHAMFERB
 40
0.0
  9
$CHAMFERC
 40
0.0
  9
$CHAMFERD
 40
0.0
  9
$SKPOLY
 70
     0
  9
$TDCREATE
 40
2460652.716608021
  9
$TDUCREATE
 40
2460652.487441354
  9
$TDUPDATE
 40
2460652.716608195
  9
$TDUUPDATE
 40
2460652.487441528
  9
$TDINDWG
 40
0.0000000116
  9
$TDUSRTIMER
 40
0.0000000116
  9
$USRTIMER
 70
     1
  9
$ANGBASE
 50
0.0
  9
$ANGDIR
 70
     0
  9
$PDMODE
 70
     0
  9
$PDSIZE
 40
0.0
  9
$PLINEWID
 40
0.0
  9
$SPLFRAME
 70
     0
  9
$SPLINETYPE
 70
     6
  9
$SPLINESEGS
 70
     8
  9
$HANDSEED
  5
BA
  9
$SURFTAB1
 70
     6
  9
$SURFTAB2
 70
     6
  9
$SURFTYPE
 70
     6
  9
$SURFU
 70
     6
  9
$SURFV
 70
     6
  9
$UCSBASE
  2

  9
$UCSNAME
  2

  9
$UCSORG
 10
0.0
 20
0.0
 30
0.0
  9
$UCSXDIR
 10
1.0
 20
0.0
 30
0.0
  9
$UCSYDIR
 10
0.0
 20
1.0
 30
0.0
  9
$UCSORTHOREF
  2

  9
$UCSORTHOVIEW
 70
     0
  9
$UCSORGTOP
 10
0.0
 20
0.0
 30
0.0
  9
$UCSORGBOTTOM
 10
0.0
 20
0.0
 30
0.0
  9
$UCSORGLEFT
 10
0.0
 20
0.0
 30
0.0
  9
$UCSORGRIGHT
 10
0.0
 20
0.0
 30
0.0
  9
$UCSORGFRONT
 10
0.0
 20
0.0
 30
0.0
  9
$UCSORGBACK
 10
0.0
 20
0.0
 30
0.0
  9
$PUCSBASE
  2

  9
$PUCSNAME
  2

  9
$PUCSORG
 10
0.0
 20
0.0
 30
0.0
  9
$PUCSXDIR
 10
1.0
 20
0.0
 30
0.0
  9
$PUCSYDIR
 10
0.0
 20
1.0
 30
0.0
  9
$PUCSORTHOREF
  2

  9
$PUCSORTHOVIEW
 70
     0
  9
$PUCSORGTOP
 10
0.0
 20
0.0
 30
0.0
  9
$PUCSORGBOTTOM
 10
0.0
 20
0.0
 30
0.0
  9
$PUCSORGLEFT
 10
0.0
 20
0.0
 30
0.0
  9
$PUCSORGRIGHT
 10
0.0
 20
0.0
 30
0.0
  9
$PUCSORGFRONT
 10
0.0
 20
0.0
 30
0.0
  9
$PUCSORGBACK
 10
0.0
 20
0.0
 30
0.0
  9
$USERI1
 70
     0
  9
$USERI2
 70
     0
  9
$USERI3
 70
     0
  9
$USERI4
 70
     0
  9
$USERI5
 70
     0
  9
$USERR1
 40
0.0
  9
$USERR2
 40
0.0
  9
$USERR3
 40
0.0
  9
$USERR4
 40
0.0
  9
$USERR5
 40
0.0
  9
$WORLDVIEW
 70
     1
  9
$SHADEDGE
 70
     3
  9
$SHADEDIF
 70
    70
  9
$TILEMODE
 70
     1
  9
$MAXACTVP
 70
    64
  9
$PINSBASE
 10
0.0
 20
0.0
 30
0.0
  9
$PLIMCHECK
 70
     0
  9
$PEXTMIN
 10
1.000000000000000E+20
 20
1.000000000000000E+20
 30
1.000000000000000E+20
  9
$PEXTMAX
 10
-1.000000000000000E+20
 20
-1.000000000000000E+20
 30
-1.000000000000000E+20
  9
$PLIMMIN
 10
0.0
 20
0.0
  9
$PLIMMAX
 10
12.0
 20
9.0
  9
$UNITMODE
 70
     0
  9
$VISRETAIN
 70
     1
  9
$PLINEGEN
 70
     0
  9
$PSLTSCALE
 70
     1
  9
$TREEDEPTH
 70
  3020
  9
$CMLSTYLE
  2
Standard
  9
$CMLJUST
 70
     0
  9
$CMLSCALE
 40
1.0
  9
$PROXYGRAPHICS
 70
     1
  9
$MEASUREMENT
 70
     0
  9
$CELWEIGHT
370
    -1
  9
$ENDCAPS
280
     0
  9
$JOINSTYLE
280
     0
  9
$LWDISPLAY
290
     0
  9
$INSUNITS
 70
     4
  9
$HYPERLINKBASE
  1

  9
$STYLESHEET
  1

  9
$XEDIT
290
     1
  9
$CEPSNTYPE
380
     0
  9
$PSTYLEMODE
290
     1
  9
$FINGERPRINTGUID
  2
{7398b8bf-3a4f-48f7-9952-b3066a8709b2}
  9
$VERSIONGUID
  2
{FAEB1C32-E019-11D5-929B-00C0DF256EC4}
  9
$EXTNAMES
290
     1
  9
$PSVPSCALE
 40
0.0
  9
$OLESTARTUP
290
     0
  9
$SORTENTS
280
   127
  9
$INDEXCTL
280
     0
  9
$HIDETEXT
280
     1
  9
$XCLIPFRAME
280
     2
  9
$HALOGAP
280
     0
  9
$OBSCOLOR
 70
   257
  9
$OBSLTYPE
280
     0
  9
$INTERSECTIONDISPLAY
280
     0
  9
$INTERSECTIONCOLOR
 70
   257
  9
$DIMASSOC
280
     2
  9
$PROJECTNAME
  1

  9
$CAMERADISPLAY
290
     0
  9
$LENSLENGTH
 40
50.0
  9
$CAMERAHEIGHT
 40
0.0
  9
$STEPSPERSEC
 40
2.0
  9
$STEPSIZE
 40
6.0
  9
$3DDWFPREC
 40
2.0
  9
$PSOLWIDTH
 40
0.25
  9
$PSOLHEIGHT
 40
4.0
  9
$LOFTANG1
 40
1.570796326794897
  9
$LOFTANG2
 40
1.570796326794897
  9
$LOFTMAG1
 40
0.0
  9
$LOFTMAG2
 40
0.0
  9
$LOFTPARAM
 70
     7
  9
$LOFTNORMALS
280
     1
  9
$LATITUDE
 40
37.795
  9
$LONGITUDE
 40
-122.394
  9
$NORTHDIRECTION
 40
0.0
  9
$TIMEZONE
 70
 -8000
  9
$LIGHTGLYPHDISPLAY
280
     1
  9
$TILEMODELIGHTSYNCH
280
     1
  9
$CMATERIAL
347
44
  9
$SOLIDHIST
280
     0
  9
$SHOWHIST
280
     1
  9
$DWFFRAME
280
     2
  9
$DGNFRAME
280
     2
  9
$REALWORLDSCALE
290
     1
  9
$INTERFERECOLOR
 62
   256
  9
$CSHADOW
280
     0
  9
$SHADOWPLANELOCATION
 40
0.0
  0
ENDSEC
  0
SECTION
  2
CLASSES
  0
CLASS
  1
ACDBDICTIONARYWDFLT
  2
AcDbDictionaryWithDefault
  3
ObjectDBX Classes
 90
        0
 91
        3
280
     0
281
     0
  0
CLASS
  1
VISUALSTYLE
  2
AcDbVisualStyle
  3
ObjectDBX Classes
 90
     4095
 91
        3
280
     0
281
     0
  0
CLASS
  1
MATERIAL
  2
AcDbMaterial
  3
ObjectDBX Classes
 90
     1153
 91
        3
280
     0
281
     0
  0
CLASS
  1
SCALE
  2
AcDbScale
  3
ObjectDBX Classes
 90
     1153
 91
        3
280
     0
281
     0
  0
CLASS
  1
TABLESTYLE
  2
AcDbTableStyle
  3
ObjectDBX Classes
 90
     4095
 91
        3
280
     0
281
     0
  0
CLASS
  1
MLEADERSTYLE
  2
AcDbMLeaderStyle
  3
ACDB_MLEADERSTYLE_CLASS
 90
     4095
 91
        3
280
     0
281
     0
  0
CLASS
  1
SUN
  2
AcDbSun
  3
SCENEOE
 90
     1153
 91
        3
280
     0
281
     0
  0
CLASS
  1
DICTIONARYVAR
  2
AcDbDictionaryVar
  3
ObjectDBX Classes
 90
        0
 91
        3
280
     0
281
     0
  0
CLASS
  1
CELLSTYLEMAP
  2
AcDbCellStyleMap
  3
ObjectDBX Classes
 90
     1152
 91
        3
280
     0
281
     0
  0
ENDSEC
  0
SECTION
  2
TABLES
  0
TABLE
  2
VPORT
  5
8
330
0
100
AcDbSymbolTable
 70
     1
  0
VPORT
  5
29
330
8
100
AcDbSymbolTableRecord
100
AcDbViewportTableRecord
  2
*Active
 70
     0
 10
0.0
 20
0.0
 11
1.0
 21
1.0
 12
10.42990654205607
 22
4.5
 13
0.0
 23
0.0
 14
0.5
 24
0.5
 15
0.5
 25
0.5
 16
0.0
 26
0.0
 36
1.0
 17
0.0
 27
0.0
 37
0.0
 40
9.0
 41
1.972972972850329
 42
50.0
 43
0.0
 44
0.0
 50
0.0
 51
0.0
 71
     0
 72
   100
 73
     1
 74
     3
 75
     0
 76
     0
 77
     0
 78
     0
281
     0
 65
     1
110
0.0
120
0.0
130
0.0
111
1.0
121
0.0
131
0.0
112
0.0
122
1.0
132
0.0
 79
     0
146
0.0
348
2F
 60
     3
 61
     5
292
     1
282
     1
141
0.0
142
0.0
 63
   250
361
5D
  0
ENDTAB
  0
TABLE
  2
LTYPE
  5
5
330
0
100
AcDbSymbolTable
 70
     1
  0
LTYPE
  5
14
330
5
100
AcDbSymbolTableRecord
100
AcDbLinetypeTableRecord
  2
ByBlock
 70
     0
  3

 72
    65
 73
     0
 40
0.0
  0
LTYPE
  5
15
330
5
100
AcDbSymbolTableRecord
100
AcDbLinetypeTableRecord
  2
ByLayer
 70
     0
  3

 72
    65
 73
     0
 40
0.0
  0
LTYPE
  5
16
330
5
100
AcDbSymbolTableRecord
100
AcDbLinetypeTableRecord
  2
Continuous
 70
     0
  3
Solid line
 72
    65
 73
     0
 40
0.0
  0
ENDTAB
  0
TABLE
  2
LAYER
  5
2
330
0
100
AcDbSymbolTable
 70
     2
  0
LAYER
  5
10
330
2
100
AcDbSymbolTableRecord
100
AcDbLayerTableRecord
  2
0
 70
     0
 62
     7
  6
Continuous
370
    -3
390
F
347
46
348
0
  0
LAYER
  5
5F
330
2
100
AcDbSymbolTableRecord
100
AcDbLayerTableRecord
  2
Layer 1
 70
     0
 62
     7
  6
Continuous
370
    -3
390
F
347
46
348
0
  0
ENDTAB
  0
TABLE
  2
STYLE
  5
3
330
0
100
AcDbSymbolTable
 70
     1
  0
STYLE
  5
11
330
3
100
AcDbSymbolTableRecord
100
AcDbTextStyleTableRecord
  2
Standard
 70
     0
 40
0.0
 41
1.0
 50
0.0
 71
     0
 42
0.2
  3
txt
  4

  0
ENDTAB
  0
TABLE
  2
VIEW
  5
6
330
0
100
AcDbSymbolTable
 70
     0
  0
ENDTAB
  0
TABLE
  2
UCS
  5
7
330
0
100
AcDbSymbolTable
 70
     0
  0
ENDTAB
  0
TABLE
  2
APPID
  5
9
330
0
100
AcDbSymbolTable
 70
     2
  0
APPID
  5
12
330
9
100
AcDbSymbolTableRecord
100
AcDbRegAppTableRecord
  2
ACAD
 70
     0
  0
APPID
  5
5E
330
9
100
AcDbSymbolTableRecord
100
AcDbRegAppTableRecord
  2
ODA
 70
     0
  0
ENDTAB
  0
TABLE
  2
DIMSTYLE
  5
A
330
0
100
AcDbSymbolTable
 70
     1
100
AcDbDimStyleTable
  0
DIMSTYLE
105
27
330
A
100
AcDbSymbolTableRecord
100
AcDbDimStyleTableRecord
  2
Standard
 70
     0
178
     0
340
11
  0
ENDTAB
  0
TABLE
  2
BLOCK_RECORD
  5
1
330
0
100
AcDbSymbolTable
 70
     1
  0
BLOCK_RECORD
  5
1F
330
1
100
AcDbSymbolTableRecord
100
AcDbBlockTableRecord
  2
*Model_Space
340
22
 70
     0
280
     1
281
     0
  0
BLOCK_RECORD
  5
1B
330
1
100
AcDbSymbolTableRecord
100
AcDbBlockTableRecord
  2
*Paper_Space
340
1E
 70
     0
280
     1
281
     0
  0
BLOCK_RECORD
  5
23
330
1
100
AcDbSymbolTableRecord
100
AcDbBlockTableRecord
  2
*Paper_Space0
340
26
 70
     0
280
     1
281
     0
  0
ENDTAB
  0
ENDSEC
  0
SECTION
  2
BLOCKS
  0
BLOCK
  5
20
330
1F
100
AcDbEntity
  8
0
100
AcDbBlockBegin
  2
*Model_Space
 70
     0
 10
0.0
 20
0.0
 30
0.0
  3
*Model_Space
  1

  0
ENDBLK
  5
21
330
1F
100
AcDbEntity
  8
0
100
AcDbBlockEnd
  0
BLOCK
  5
1C
330
1B
100
AcDbEntity
 67
     1
  8
0
100
AcDbBlockBegin
  2
*Paper_Space
 70
     0
 10
0.0
 20
0.0
 30
0.0
  3
*Paper_Space
  1

  0
ENDBLK
  5
1D
330
1B
100
AcDbEntity
 67
     1
  8
0
100
AcDbBlockEnd
  0
BLOCK
  5
24
330
23
100
AcDbEntity
  8
0
100
AcDbBlockBegin
  2
*Paper_Space0
 70
     0
 10
0.0
 20
0.0
 30
0.0
  3
*Paper_Space0
  1

  0
ENDBLK
  5
25
330
23
100
AcDbEntity
  8
0
100
AcDbBlockEnd
  0
ENDSEC
  0
SECTION
  2
ENTITIES
  0
SPLINE
  5
60
330
1F
100
AcDbEntity
  8
Layer 1
 62
   250
370
    20
100
AcDbSpline
210
0.0
220
0.0
230
1.0
 70
    11
 71
     3
 72
    17
 73
    13
 74
     0
 42
0.0000000001
 43
0.0000000001
 40
0.0
 40
0.0
 40
0.0
 40
0.0
 40
0.25
 40
0.25
 40
0.25
 40
0.5
 40
0.5
 40
0.5
 40
0.75
 40
0.75
 40
0.75
 40
1.0
 40
1.0
 40
1.0
 40
1.0
 10
-1200.0511
 20
-587.2483
 30
0.0
 10
-1200.0511
 20
-587.2483
 30
0.0
 10
-1200.0511
 20
-486.1033
 30
0.0
 10
-1200.0511
 20
-486.1033
 30
0.0
 10
-1200.0511
 20
-486.1033
 30
0.0
 10
-1102.7998
 20
-519.5173
 30
0.0
 10
-1102.7998
 20
-519.5173
 30
0.0
 10
-1102.7998
 20
-519.5173
 30
0.0
 10
-1077.5144
 20
-587.2483
 30
0.0
 10
-1077.5144
 20
-587.2483
 30
0.0
 10
-1077.5144
 20
-587.2483
 30
0.0
 10
-1200.0511
 20
-587.2483
 30
0.0
 10
-1200.0511
 20
-587.2483
 30
0.0
  0
SPLINE
  5
61
330
1F
100
AcDbEntity
  8
Layer 1
 62
   250
370
    20
100
AcDbSpline
210
0.0
220
0.0
230
1.0
 70
    11
 71
     3
 72
    14
 73
    10
 74
     0
 42
0.0000000001
 43
0.0000000001
 40
0.0
 40
0.0
 40
0.0
 40
0.0
 40
0.3333333333333333
 40
0.3333333333333333
 40
0.3333333333333333
 40
0.6666666666666666
 40
0.6666666666666666
 40
0.6666666666666666
 40
1.0
 40
1.0
 40
1.0
 40
1.0
 10
-1200.0511
 20
-440.9492
 30
0.0
 10
-1200.0511
 20
-440.9492
 30
0.0
 10
-1200.0511
 20
-275.6854
 30
0.0
 10
-1200.0511
 20
-275.6854
 30
0.0
 10
-1200.0511
 20
-275.6854
 30
0.0
 10
-1123.2226
 20
-471.654
 30
0.0
 10
-1123.2226
 20
-471.654
 30
0.0
 10
-1123.2226
 20
-471.654
 30
0.0
 10
-1200.0511
 20
-440.9492
 30
0.0
 10
-1200.0511
 20
-440.9492
 30
0.0
  0
SPLINE
  5
62
330
1F
100
AcDbEntity
  8
Layer 1
 62
   250
370
    20
100
AcDbSpline
210
0.0
220
0.0
230
1.0
 70
    11
 71
     3
 72
    17
 73
    13
 74
     0
 42
0.0000000001
 43
0.0000000001
 40
0.0
 40
0.0
 40
0.0
 40
0.0
 40
0.25
 40
0.25
 40
0.25
 40
0.5
 40
0.5
 40
0.5
 40
0.75
 40
0.75
 40
0.75
 40
1.0
 40
1.0
 40
1.0
 40
1.0
 10
-1199.0785
 20
-205.2451
 30
0.0
 10
-1199.0785
 20
-205.2451
 30
0.0
 10
-1199.0785
 20
-66.1706
 30
0.0
 10
-1199.0785
 20
-66.1706
 30
0.0
 10
-1199.0785
 20
-66.1706
 30
0.0
 10
-1192.271
 20
-58.0428
 30
0.0
 10
-1192.271
 20
-58.0428
 30
0.0
 10
-1192.271
 20
-58.0428
 30
0.0
 10
-1138.7828
 20
-150.1571
 30
0.0
 10
-1138.7828
 20
-150.1571
 30
0.0
 10
-1138.7828
 20
-150.1571
 30
0.0
 10
-1199.0785
 20
-205.2451
 30
0.0
 10
-1199.0785
 20
-205.2451
 30
0.0
  0
SPLINE
  5
63
330
1F
100
AcDbEntity
  8
Layer 1
 62
   250
370
    20
100
AcDbSpline
210
0.0
220
0.0
230
1.0
 70
    11
 71
     3
 72
    20
 73
    16
 74
     0
 42
0.0000000001
 43
0.0000000001
 40
0.0
 40
0.0
 40
0.0
 40
0.0
 40
0.2
 40
0.2
 40
0.2
 40
0.4
 40
0.4
 40
0.4
 40
0.6000000000000001
 40
0.6000000000000001
 40
0.6000000000000001
 40
0.8
 40
0.8
 40
0.8
 40
1.0
 40
1.0
 40
1.0
 40
1.0
 10
-1200.0511
 20
-8.3734
 30
0.0
 10
-1200.0511
 20
-8.3734
 30
0.0
 10
-1200.0511
 20
205.6569
 30
0.0
 10
-1200.0511
 20
205.6569
 30
0.0
 10
-1200.0511
 20
205.6569
 30
0.0
 10
-1182.5458
 20
259.8417
 30
0.0
 10
-1182.5458
 20
259.8417
 30
0.0
 10
-1182.5458
 20
259.8417
 30
0.0
 10
-1127.1126
 20
241.7801
 30
0.0
 10
-1127.1126
 20
241.7801
 30
0.0
 10
-1127.1126
 20
241.7801
 30
0.0
 10
-1089.1846
 20
109.0272
 30
0.0
 10
-1089.1846
 20
109.0272
 30
0.0
 10
-1089.1846
 20
109.0272
 30
0.0
 10
-1200.0511
 20
-8.3734
 30
0.0
 10
-1200.0511
 20
-8.3734
 30
0.0
  0
SPLINE
  5
64
330
1F
100
AcDbEntity
  8
Layer 1
 62
   250
370
    20
100
AcDbSpline
210
0.0
220
0.0
230
1.0
 70
    11
 71
     3
 72
    17
 73
    13
 74
     0
 42
0.0000000001
 43
0.0000000001
 40
0.0
 40
0.0
 40
0.0
 40
0.0
 40
0.25
 40
0.25
 40
0.25
 40
0.5
 40
0.5
 40
0.5
 40
0.75
 40
0.75
 40
0.75
 40
1.0
 40
1.0
 40
1.0
 40
1.0
 10
-1200.0511
 20
315.8328
 30
0.0
 10
-1200.0511
 20
315.8328
 30
0.0
 10
-1200.0511
 20
416.0748
 30
0.0
 10
-1200.0511
 20
416.0748
 30
0.0
 10
-1200.0511
 20
416.0748
 30
0.0
 10
-1175.7382
 20
406.1409
 30
0.0
 10
-1175.7382
 20
406.1409
 30
0.0
 10
-1175.7382
 20
406.1409
 30
0.0
 10
-1140.7278
 20
289.6434
 30
0.0
 10
-1140.7278
 20
289.6434
 30
0.0
 10
-1140.7278
 20
289.6434
 30
0.0
 10
-1200.0511
 20
315.8328
 30
0.0
 10
-1200.0511
 20
315.8328
 30
0.0
  0
SPLINE
  5
65
330
1F
100
AcDbEntity
  8
Layer 1
 62
   250
370
    20
100
AcDbSpline
210
0.0
220
0.0
230
1.0
 70
    11
 71
     3
 72
    20
 73
    16
 74
     0
 42
0.0000000001
 43
0.0000000001
 40
0.0
 40
0.0
 40
0.0
 40
0.0
 40
0.2
 40
0.2
 40
0.2
 40
0.4
 40
0.4
 40
0.4
 40
0.6000000000000001
 40
0.6000000000000001
 40
0.6000000000000001
 40
0.8
 40
0.8
 40
0.8
 40
1.0
 40
1.0
 40
1.0
 40
1.0
 10
-1200.0511
 20
471.1627
 30
0.0
 10
-1200.0511
 20
471.1627
 30
0.0
 10
-1200.0511
 20
588.5633
 30
0.0
 10
-1200.0511
 20
588.5633
 30
0.0
 10
-1200.0511
 20
588.5633
 30
0.0
 10
-1100.8547
 20
588.5633
 30
0.0
 10
-1100.8547
 20
588.5633
 30
0.0
 10
-1100.8547
 20
588.5633
 30
0.0
 10
-933.5825
 20
429.621
 30
0.0
 10
-933.5825
 20
429.621
 30
0.0
 10
-933.5825
 20
429.621
 30
0.0
 10
-984.1532
 20
349.2468
 30
0.0
 10
-984.1532
 20
349.2468
 30
0.0
 10
-984.1532
 20
349.2468
 30
0.0
 10
-1200.0511
 20
471.1627
 30
0.0
 10
-1200.0511
 20
471.1627
 30
0.0
  0
SPLINE
  5
66
330
1F
100
AcDbEntity
  8
Layer 1
 62
   250
370
    20
100
AcDbSpline
210
0.0
220
0.0
230
1.0
 70
    11
 71
     3
 72
    32
 73
    28
 74
     0
 42
0.0000000001
 43
0.0000000001
 40
0.0
 40
0.0
 40
0.0
 40
0.0
 40
0.1111111111111111
 40
0.1111111111111111
 40
0.1111111111111111
 40
0.2222222222222222
 40
0.2222222222222222
 40
0.2222222222222222
 40
0.3333333333333333
 40
0.3333333333333333
 40
0.3333333333333333
 40
0.4444444444444444
 40
0.4444444444444444
 40
0.4444444444444444
 40
0.5555555555555556
 40
0.5555555555555556
 40
0.5555555555555556
 40
0.6666666666666666
 40
0.6666666666666666
 40
0.6666666666666666
 40
0.7777777777777777
 40
0.7777777777777777
 40
0.7777777777777777
 40
0.8888888888888888
 40
0.8888888888888888
 40
0.8888888888888888
 40
1.0
 40
1.0
 40
1.0
 40
1.0
 10
-1055.1466
 20
138.8289
 30
0.0
 10
-1055.1466
 20
138.8289
 30
0.0
 10
-1124.195
 20
376.3392
 30
0.0
 10
-1124.195
 20
376.3392
 30
0.0
 10
-1124.195
 20
376.3392
 30
0.0
 10
-862.4081
 20
228.2579
 30
0.0
 10
-862.4081
 20
228.2579
 30
0.0
 10
-862.4081
 20
228.2579
 30
0.0
 10
-704.0695
 20
341.1191
 30
0.0
 10
-704.0695
 20
341.1191
 30
0.0
 10
-704.0695
 20
341.1191
 30
0.0
 10
-634.0486
 20
261.6479
 30
0.0
 10
-634.0486
 20
261.6479
 30
0.0
 10
-634.0486
 20
261.6479
 30
0.0
 10
-683.6274
 20
218.474
 30
0.0
 10
-683.6274
 20
218.474
 30
0.0
 10
-683.6274
 20
218.474
 30
0.0
 10
-961.7854
 20
220.1062
 30
0.0
 10
-961.7854
 20
220.1062
 30
0.0
 10
-961.7854
 20
220.1062
 30
0.0
 10
-985.1257
 20
196.6261
 30
0.0
 10
-985.1257
 20
196.6261
 30
0.0
 10
-985.1257
 20
196.6261
 30
0.0
 10
-985.1257
 20
190.3045
 30
0.0
 10
-985.1257
 20
190.3045
 30
0.0
 10
-985.1257
 20
190.3045
 30
0.0
 10
-1055.1466
 20
138.8289
 30
0.0
 10
-1055.1466
 20
138.8289
 30
0.0
  0
SPLINE
  5
67
330
1F
100
AcDbEntity
  8
Layer 1
 62
   250
370
    20
100
AcDbSpline
210
0.0
220
0.0
230
1.0
 70
    11
 71
     3
 72
    14
 73
    10
 74
     0
 42
0.0000000001
 43
0.0000000001
 40
0.0
 40
0.0
 40
0.0
 40
0.0
 40
0.3333333333333333
 40
0.3333333333333333
 40
0.3333333333333333
 40
0.6666666666666666
 40
0.6666666666666666
 40
0.6666666666666666
 40
1.0
 40
1.0
 40
1.0
 40
1.0
 10
-1042.9046
 20
98.0402
 30
0.0
 10
-1042.9046
 20
98.0402
 30
0.0
 10
-985.5845
 20
144.0853
 30
0.0
 10
-985.5845
 20
144.0853
 30
0.0
 10
-985.5845
 20
144.0853
 30
0.0
 10
-983.6395
 20
-102.1048
 30
0.0
 10
-983.6395
 20
-102.1048
 30
0.0
 10
-983.6395
 20
-102.1048
 30
0.0
 10
-1042.9046
 20
98.0402
 30
0.0
 10
-1042.9046
 20
98.0402
 30
0.0
  0
SPLINE
  5
68
330
1F
100
AcDbEntity
  8
Layer 1
 62
   250
370
    20
100
AcDbSpline
210
0.0
220
0.0
230
1.0
 70
    11
 71
     3
 72
    17
 73
    13
 74
     0
 42
0.0000000001
 43
0.0000000001
 40
0.0
 40
0.0
 40
0.0
 40
0.0
 40
0.25
 40
0.25
 40
0.25
 40
0.5
 40
0.5
 40
0.5
 40
0.75
 40
0.75
 40
0.75
 40
1.0
 40
1.0
 40
1.0
 40
1.0
 10
-1065.8443
 20
-191.6988
 30
0.0
 10
-1065.8443
 20
-191.6988
 30
0.0
 10
-1162.1231
 20
-27.3381
 30
0.0
 10
-1162.1231
 20
-27.3381
 30
0.0
 10
-1162.1231
 20
-27.3381
 30
0.0
 10
-1074.5969
 20
64.7762
 30
0.0
 10
-1074.5969
 20
64.7762
 30
0.0
 10
-1074.5969
 20
64.7762
 30
0.0
 10
-1022.0812
 20
-125.7739
 30
0.0
 10
-1022.0812
 20
-125.7739
 30
0.0
 10
-1022.0812
 20
-125.7739
 30
0.0
 10
-1065.8443
 20
-191.6988
 30
0.0
 10
-1065.8443
 20
-191.6988
 30
0.0
  0
SPLINE
  5
69
330
1F
100
AcDbEntity
  8
Layer 1
 62
   250
370
    20
100
AcDbSpline
210
0.0
220
0.0
230
1.0
 70
    11
 71
     3
 72
    17
 73
    13
 74
     0
 42
0.0000000001
 43
0.0000000001
 40
0.0
 40
0.0
 40
0.0
 40
0.0
 40
0.25
 40
0.25
 40
0.25
 40
0.5
 40
0.5
 40
0.5
 40
0.75
 40
0.75
 40
0.75
 40
1.0
 40
1.0
 40
1.0
 40
1.0
 10
-1100.8547
 20
-403.0198
 30
0.0
 10
-1100.8547
 20
-403.0198
 30
0.0
 10
-1168.9306
 20
-231.4344
 30
0.0
 10
-1168.9306
 20
-231.4344
 30
0.0
 10
-1168.9306
 20
-231.4344
 30
0.0
 10
-1119.3325
 20
-187.1834
 30
0.0
 10
-1119.3325
 20
-187.1834
 30
0.0
 10
-1119.3325
 20
-187.1834
 30
0.0
 10
-1004.576
 20
-376.8305
 30
0.0
 10
-1004.576
 20
-376.8305
 30
0.0
 10
-1004.576
 20
-376.8305
 30
0.0
 10
-1100.8547
 20
-403.0198
 30
0.0
 10
-1100.8547
 20
-403.0198
 30
0.0
  0
SPLINE
  5
6A
330
1F
100
AcDbEntity
  8
Layer 1
 62
   250
370
    20
100
AcDbSpline
210
0.0
220
0.0
230
1.0
 70
    11
 71
     3
 72
    26
 73
    22
 74
     0
 42
0.0000000001
 43
0.0000000001
 40
0.0
 40
0.0
 40
0.0
 40
0.0
 40
0.1428571428571428
 40
0.1428571428571428
 40
0.1428571428571428
 40
0.2857142857142857
 40
0.2857142857142857
 40
0.2857142857142857
 40
0.4285714285714285
 40
0.4285714285714285
 40
0.4285714285714285
 40
0.5714285714285714
 40
0.5714285714285714
 40
0.5714285714285714
 40
0.7142857142857142
 40
0.7142857142857142
 40
0.7142857142857142
 40
0.8571428571428571
 40
0.8571428571428571
 40
0.8571428571428571
 40
1.0
 40
1.0
 40
1.0
 40
1.0
 10
-962.7579
 20
-362.3812
 30
0.0
 10
-962.7579
 20
-362.3812
 30
0.0
 10
-1040.559
 20
-231.4344
 30
0.0
 10
-1040.559
 20
-231.4344
 30
0.0
 10
-1040.559
 20
-231.4344
 30
0.0
 10
-986.0982
 20
-137.5139
 30
0.0
 10
-986.0982
 20
-137.5139
 30
0.0
 10
-986.0982
 20
-137.5139
 30
0.0
 10
-986.0982
 20
-199.8266
 30
0.0
 10
-986.0982
 20
-199.8266
 30
0.0
 10
-986.0982
 20
-199.8266
 30
0.0
 10
-965.6755
 20
-216.082
 30
0.0
 10
-965.6755
 20
-216.082
 30
0.0
 10
-965.6755
 20
-216.082
 30
0.0
 10
-815.9667
 20
-216.169
 30
0.0
 10
-815.9667
 20
-216.169
 30
0.0
 10
-815.9667
 20
-216.169
 30
0.0
 10
-819.7985
 20
-321.7425
 30
0.0
 10
-819.7985
 20
-321.7425
 30
0.0
 10
-819.7985
 20
-321.7425
 30
0.0
 10
-962.7579
 20
-362.3812
 30
0.0
 10
-962.7579
 20
-362.3812
 30
0.0
  0
SPLINE
  5
6B
330
1F
100
AcDbEntity
  8
Layer 1
 62
   250
370
    20
100
AcDbSpline
210
0.0
220
0.0
230
1.0
 70
    11
 71
     3
 72
    20
 73
    16
 74
     0
 42
0.0000000001
 43
0.0000000001
 40
0.0
 40
0.0
 40
0.0
 40
0.0
 40
0.2
 40
0.2
 40
0.2
 40
0.4
 40
0.4
 40
0.4
 40
0.6000000000000001
 40
0.6000000000000001
 40
0.6000000000000001
 40
0.8
 40
0.8
 40
0.8
 40
1.0
 40
1.0
 40
1.0
 40
1.0
 10
-1028.8888
 20
-586.3453
 30
0.0
 10
-1028.8888
 20
-586.3453
 30
0.0
 10
-970.538
 20
-586.3453
 30
0.0
 10
-970.538
 20
-586.3453
 30
0.0
 10
-970.538
 20
-586.3453
 30
0.0
 10
-823.6886
 20
-522.2265
 30
0.0
 10
-823.6886
 20
-522.2265
 30
0.0
 10
-823.6886
 20
-522.2265
 30
0.0
 10
-819.7985
 20
-365.9935
 30
0.0
 10
-819.7985
 20
-365.9935
 30
0.0
 10
-819.7985
 20
-365.9935
 30
0.0
 10
-1088.212
 20
-444.5616
 30
0.0
 10
-1088.212
 20
-444.5616
 30
0.0
 10
-1088.212
 20
-444.5616
 30
0.0
 10
-1028.8888
 20
-586.3453
 30
0.0
 10
-1028.8888
 20
-586.3453
 30
0.0
  0
SPLINE
  5
6C
330
1F
100
AcDbEntity
  8
Layer 1
 62
   250
370
    20
100
AcDbSpline
210
0.0
220
0.0
230
1.0
 70
    11
 71
     3
 72
    35
 73
    31
 74
     0
 42
0.0000000001
 43
0.0000000001
 40
0.0
 40
0.0
 40
0.0
 40
0.0
 40
0.1
 40
0.1
 40
0.1
 40
0.2
 40
0.2
 40
0.2
 40
0.3
 40
0.3
 40
0.3
 40
0.4
 40
0.4
 40
0.4
 40
0.5
 40
0.5
 40
0.5
 40
0.6000000000000001
 40
0.6000000000000001
 40
0.6000000000000001
 40
0.7000000000000001
 40
0.7000000000000001
 40
0.7000000000000001
 40
0.8
 40
0.8
 40
0.8
 40
0.9
 40
0.9
 40
0.9
 40
1.0
 40
1.0
 40
1.0
 40
1.0
 10
-782.8431
 20
-382.249
 30
0.0
 10
-782.8431
 20
-382.249
 30
0.0
 10
-677.8117
 20
-255.8176
 30
0.0
 10
-677.8117
 20
-255.8176
 30
0.0
 10
-677.8117
 20
-255.8176
 30
0.0
 10
-637.9387
 20
-255.8176
 30
0.0
 10
-637.9387
 20
-255.8176
 30
0.0
 10
-637.9387
 20
-255.8176
 30
0.0
 10
-612.6533
 20
-226.919
 30
0.0
 10
-612.6533
 20
-226.919
 30
0.0
 10
-612.6533
 20
-226.919
 30
0.0
 10
-614.5984
 20
-176.3464
 30
0.0
 10
-614.5984
 20
-176.3464
 30
0.0
 10
-614.5984
 20
-176.3464
 30
0.0
 10
-529.9898
 20
-69.7829
 30
0.0
 10
-529.9898
 20
-69.7829
 30
0.0
 10
-529.9898
 20
-69.7829
 30
0.0
 10
-644.7462
 20
18.7191
 30
0.0
 10
-644.7462
 20
18.7191
 30
0.0
 10
-644.7462
 20
18.7191
 30
0.0
 10
-645.7188
 20
-192.6019
 30
0.0
 10
-645.7188
 20
-192.6019
 30
0.0
 10
-645.7188
 20
-192.6019
 30
0.0
 10
-671.0041
 20
-216.9851
 30
0.0
 10
-671.0041
 20
-216.9851
 30
0.0
 10
-671.0041
 20
-216.9851
 30
0.0
 10
-782.8431
 20
-216.9851
 30
0.0
 10
-782.8431
 20
-216.9851
 30
0.0
 10
-782.8431
 20
-216.9851
 30
0.0
 10
-782.8431
 20
-382.249
 30
0.0
 10
-782.8431
 20
-382.249
 30
0.0
  0
SPLINE
  5
6D
330
1F
100
AcDbEntity
  8
Layer 1
 62
   250
370
    20
100
AcDbSpline
210
0.0
220
0.0
230
1.0
 70
    11
 71
     3
 72
    20
 73
    16
 74
     0
 42
0.0000000001
 43
0.0000000001
 40
0.0
 40
0.0
 40
0.0
 40
0.0
 40
0.2
 40
0.2
 40
0.2
 40
0.4
 40
0.4
 40
0.4
 40
0.6000000000000001
 40
0.6000000000000001
 40
0.6000000000000001
 40
0.8
 40
0.8
 40
0.8
 40
1.0
 40
1.0
 40
1.0
 40
1.0
 10
-505.6769
 20
-35.4658
 30
0.0
 10
-505.6769
 20
-35.4658
 30
0.0
 10
-645.7188
 20
78.3224
 30
0.0
 10
-645.7188
 20
78.3224
 30
0.0
 10
-645.7188
 20
78.3224
 30
0.0
 10
-644.7462
 20
196.6261
 30
0.0
 10
-644.7462
 20
196.6261
 30
0.0
 10
-644.7462
 20
196.6261
 30
0.0
 10
-606.8182
 20
230.9431
 30
0.0
 10
-606.8182
 20
230.9431
 30
0.0
 10
-606.8182
 20
230.9431
 30
0.0
 10
-434.6835
 20
51.23
 30
0.0
 10
-434.6835
 20
51.23
 30
0.0
 10
-434.6835
 20
51.23
 30
0.0
 10
-505.6769
 20
-35.4658
 30
0.0
 10
-505.6769
 20
-35.4658
 30
0.0
  0
SPLINE
  5
6E
330
1F
100
AcDbEntity
  8
Layer 1
 62
   250
370
    20
100
AcDbSpline
210
0.0
220
0.0
230
1.0
 70
    11
 71
     3
 72
    17
 73
    13
 74
     0
 42
0.0000000001
 43
0.0000000001
 40
0.0
 40
0.0
 40
0.0
 40
0.0
 40
0.25
 40
0.25
 40
0.25
 40
0.5
 40
0.5
 40
0.5
 40
0.75
 40
0.75
 40
0.75
 40
1.0
 40
1.0
 40
1.0
 40
1.0
 10
-858.699
 20
278.8064
 30
0.0
 10
-858.699
 20
278.8064
 30
0.0
 10
-948.1702
 20
330.2821
 30
0.0
 10
-948.1702
 20
330.2821
 30
0.0
 10
-948.1702
 20
330.2821
 30
0.0
 10
-846.0564
 20
491.0305
 30
0.0
 10
-846.0564
 20
491.0305
 30
0.0
 10
-846.0564
 20
491.0305
 30
0.0
 10
-732.2724
 20
367.3084
 30
0.0
 10
-732.2724
 20
367.3084
 30
0.0
 10
-732.2724
 20
367.3084
 30
0.0
 10
-858.699
 20
278.8064
 30
0.0
 10
-858.699
 20
278.8064
 30
0.0
  0
SPLINE
  5
6F
330
1F
100
AcDbEntity
  8
Layer 1
 62
   250
370
    20
100
AcDbSpline
210
0.0
220
0.0
230
1.0
 70
    11
 71
     3
 72
    14
 73
    10
 74
     0
 42
0.0000000001
 43
0.0000000001
 40
0.0
 40
0.0
 40
0.0
 40
0.0
 40
0.3333333333333333
 40
0.3333333333333333
 40
0.3333333333333333
 40
0.6666666666666666
 40
0.6666666666666666
 40
0.6666666666666666
 40
1.0
 40
1.0
 40
1.0
 40
1.0
 10
-1037.6414
 20
588.5633
 30
0.0
 10
-1037.6414
 20
588.5633
 30
0.0
 10
-999.7134
 20
588.5633
 30
0.0
 10
-999.7134
 20
588.5633
 30
0.0
 10
-999.7134
 20
588.5633
 30
0.0
 10
-1007.4935
 20
549.7308
 30
0.0
 10
-1007.4935
 20
549.7308
 30
0.0
 10
-1007.4935
 20
549.7308
 30
0.0
 10
-1037.6414
 20
588.5633
 30
0.0
 10
-1037.6414
 20
588.5633
 30
0.0
  0
SPLINE
  5
70
330
1F
100
AcDbEntity
  8
Layer 1
 62
   250
370
    20
100
AcDbSpline
210
0.0
220
0.0
230
1.0
 70
    11
 71
     3
 72
    17
 73
    13
 74
     0
 42
0.0000000001
 43
0.0000000001
 40
0.0
 40
0.0
 40
0.0
 40
0.0
 40
0.25
 40
0.25
 40
0.25
 40
0.5
 40
0.5
 40
0.5
 40
0.75
 40
0.75
 40
0.75
 40
1.0
 40
1.0
 40
1.0
 40
1.0
 10
-970.538
 20
522.6383
 30
0.0
 10
-970.538
 20
522.6383
 30
0.0
 10
-962.7579
 20
589.4663
 30
0.0
 10
-962.7579
 20
589.4663
 30
0.0
 10
-962.7579
 20
589.4663
 30
0.0
 10
-832.4412
 20
588.5633
 30
0.0
 10
-832.4412
 20
588.5633
 30
0.0
 10
-832.4412
 20
588.5633
 30
0.0
 10
-909.2697
 20
464.8411
 30
0.0
 10
-909.2697
 20
464.8411
 30
0.0
 10
-909.2697
 20
464.8411
 30
0.0
 10
-970.538
 20
522.6383
 30
0.0
 10
-970.538
 20
522.6383
 30
0.0
  0
SPLINE
  5
71
330
1F
100
AcDbEntity
  8
Layer 1
 62
   250
370
    20
100
AcDbSpline
210
0.0
220
0.0
230
1.0
 70
    11
 71
     3
 72
    20
 73
    16
 74
     0
 42
0.0000000001
 43
0.0000000001
 40
0.0
 40
0.0
 40
0.0
 40
0.0
 40
0.2
 40
0.2
 40
0.2
 40
0.4
 40
0.4
 40
0.4
 40
0.6000000000000001
 40
0.6000000000000001
 40
0.6000000000000001
 40
0.8
 40
0.8
 40
0.8
 40
1.0
 40
1.0
 40
1.0
 40
1.0
 10
-822.7161
 20
528.9599
 30
0.0
 10
-822.7161
 20
528.9599
 30
0.0
 10
-782.8431
 20
589.4663
 30
0.0
 10
-782.8431
 20
589.4663
 30
0.0
 10
-782.8431
 20
589.4663
 30
0.0
 10
-770.2004
 20
588.5633
 30
0.0
 10
-770.2004
 20
588.5633
 30
0.0
 10
-770.2004
 20
588.5633
 30
0.0
 10
-526.0997
 20
406.1409
 30
0.0
 10
-526.0997
 20
406.1409
 30
0.0
 10
-526.0997
 20
406.1409
 30
0.0
 10
-606.8182
 20
295.965
 30
0.0
 10
-606.8182
 20
295.965
 30
0.0
 10
-606.8182
 20
295.965
 30
0.0
 10
-822.7161
 20
528.9599
 30
0.0
 10
-822.7161
 20
528.9599
 30
0.0
  0
SPLINE
  5
72
330
1F
100
AcDbEntity
  8
Layer 1
 62
   250
370
    20
100
AcDbSpline
210
0.0
220
0.0
230
1.0
 70
    11
 71
     3
 72
    17
 73
    13
 74
     0
 42
0.0000000001
 43
0.0000000001
 40
0.0
 40
0.0
 40
0.0
 40
0.0
 40
0.25
 40
0.25
 40
0.25
 40
0.5
 40
0.5
 40
0.5
 40
0.75
 40
0.75
 40
0.75
 40
1.0
 40
1.0
 40
1.0
 40
1.0
 10
-587.368
 20
502.7705
 30
0.0
 10
-587.368
 20
502.7705
 30
0.0
 10
-701.152
 20
588.5633
 30
0.0
 10
-701.152
 20
588.5633
 30
0.0
 10
-701.152
 20
588.5633
 30
0.0
 10
-509.567
 20
587.6602
 30
0.0
 10
-509.567
 20
587.6602
 30
0.0
 10
-509.567
 20
587.6602
 30
0.0
 10
-510.5395
 20
509.0921
 30
0.0
 10
-510.5395
 20
509.0921
 30
0.0
 10
-510.5395
 20
509.0921
 30
0.0
 10
-587.368
 20
502.7705
 30
0.0
 10
-587.368
 20
502.7705
 30
0.0
  0
SPLINE
  5
73
330
1F
100
AcDbEntity
  8
Layer 1
 62
   250
370
    20
100
AcDbSpline
210
0.0
220
0.0
230
1.0
 70
    11
 71
     3
 72
    17
 73
    13
 74
     0
 42
0.0000000001
 43
0.0000000001
 40
0.0
 40
0.0
 40
0.0
 40
0.0
 40
0.25
 40
0.25
 40
0.25
 40
0.5
 40
0.5
 40
0.5
 40
0.75
 40
0.75
 40
0.75
 40
1.0
 40
1.0
 40
1.0
 40
1.0
 10
-473.584
 20
513.6075
 30
0.0
 10
-473.584
 20
513.6075
 30
0.0
 10
-472.6115
 20
588.5633
 30
0.0
 10
-472.6115
 20
588.5633
 30
0.0
 10
-472.6115
 20
588.5633
 30
0.0
 10
-430.7934
 20
588.5633
 30
0.0
 10
-430.7934
 20
588.5633
 30
0.0
 10
-430.7934
 20
588.5633
 30
0.0
 10
-429.8209
 20
517.2199
 30
0.0
 10
-429.8209
 20
517.2199
 30
0.0
 10
-429.8209
 20
517.2199
 30
0.0
 10
-473.584
 20
513.6075
 30
0.0
 10
-473.584
 20
513.6075
 30
0.0
  0
SPLINE
  5
74
330
1F
100
AcDbEntity
  8
Layer 1
 62
   250
370
    20
100
AcDbSpline
210
0.0
220
0.0
230
1.0
 70
    11
 71
     3
 72
    14
 73
    10
 74
     0
 42
0.0000000001
 43
0.0000000001
 40
0.0
 40
0.0
 40
0.0
 40
0.0
 40
0.3333333333333333
 40
0.3333333333333333
 40
0.3333333333333333
 40
0.6666666666666666
 40
0.6666666666666666
 40
0.6666666666666666
 40
1.0
 40
1.0
 40
1.0
 40
1.0
 10
-535.8248
 20
462.1319
 30
0.0
 10
-535.8248
 20
462.1319
 30
0.0
 10
-431.766
 20
474.775
 30
0.0
 10
-431.766
 20
474.775
 30
0.0
 10
-431.766
 20
474.775
 30
0.0
 10
-430.7934
 20
384.4669
 30
0.0
 10
-430.7934
 20
384.4669
 30
0.0
 10
-430.7934
 20
384.4669
 30
0.0
 10
-535.8248
 20
462.1319
 30
0.0
 10
-535.8248
 20
462.1319
 30
0.0
  0
SPLINE
  5
75
330
1F
100
AcDbEntity
  8
Layer 1
 62
   250
370
    20
100
AcDbSpline
210
0.0
220
0.0
230
1.0
 70
    11
 71
     3
 72
    17
 73
    13
 74
     0
 42
0.0000000001
 43
0.0000000001
 40
0.0
 40
0.0
 40
0.0
 40
0.0
 40
0.25
 40
0.25
 40
0.25
 40
0.5
 40
0.5
 40
0.5
 40
0.75
 40
0.75
 40
0.75
 40
1.0
 40
1.0
 40
1.0
 40
1.0
 10
-493.0342
 20
380.8546
 30
0.0
 10
-493.0342
 20
380.8546
 30
0.0
 10
-428.8484
 20
335.7006
 30
0.0
 10
-428.8484
 20
335.7006
 30
0.0
 10
-428.8484
 20
335.7006
 30
0.0
 10
-427.8759
 20
98.1902
 30
0.0
 10
-427.8759
 20
98.1902
 30
0.0
 10
-427.8759
 20
98.1902
 30
0.0
 10
-581.5329
 20
268.8725
 30
0.0
 10
-581.5329
 20
268.8725
 30
0.0
 10
-581.5329
 20
268.8725
 30
0.0
 10
-493.0342
 20
380.8546
 30
0.0
 10
-493.0342
 20
380.8546
 30
0.0
  0
SPLINE
  5
76
330
1F
100
AcDbEntity
  8
Layer 1
 62
   250
370
    20
100
AcDbSpline
210
0.0
220
0.0
230
1.0
 70
    11
 71
     3
 72
    14
 73
    10
 74
     0
 42
0.0000000001
 43
0.0000000001
 40
0.0
 40
0.0
 40
0.0
 40
0.0
 40
0.3333333333333333
 40
0.3333333333333333
 40
0.3333333333333333
 40
0.6666666666666666
 40
0.6666666666666666
 40
0.6666666666666666
 40
1.0
 40
1.0
 40
1.0
 40
1.0
 10
-646.6913
 20
-278.3946
 30
0.0
 10
-646.6913
 20
-278.3946
 30
0.0
 10
-430.7934
 20
-9.2765
 30
0.0
 10
-430.7934
 20
-9.2765
 30
0.0
 10
-430.7934
 20
-9.2765
 30
0.0
 10
-430.7934
 20
-300.9716
 30
0.0
 10
-430.7934
 20
-300.9716
 30
0.0
 10
-430.7934
 20
-300.9716
 30
0.0
 10
-646.6913
 20
-278.3946
 30
0.0
 10
-646.6913
 20
-278.3946
 30
0.0
  0
SPLINE
  5
77
330
1F
100
AcDbEntity
  8
Layer 1
 62
   250
370
    20
100
AcDbSpline
210
0.0
220
0.0
230
1.0
 70
    11
 71
     3
 72
    20
 73
    16
 74
     0
 42
0.0000000001
 43
0.0000000001
 40
0.0
 40
0.0
 40
0.0
 40
0.0
 40
0.2
 40
0.2
 40
0.2
 40
0.4
 40
0.4
 40
0.4
 40
0.6000000000000001
 40
0.6000000000000001
 40
0.6000000000000001
 40
0.8
 40
0.8
 40
0.8
 40
1.0
 40
1.0
 40
1.0
 40
1.0
 10
-783.8155
 20
-503.2618
 30
0.0
 10
-783.8155
 20
-503.2618
 30
0.0
 10
-782.8431
 20
-448.1738
 30
0.0
 10
-782.8431
 20
-448.1738
 30
0.0
 10
-782.8431
 20
-448.1738
 30
0.0
 10
-681.7017
 20
-319.0333
 30
0.0
 10
-681.7017
 20
-319.0333
 30
0.0
 10
-681.7017
 20
-319.0333
 30
0.0
 10
-599.0381
 20
-326.2579
 30
0.0
 10
-599.0381
 20
-326.2579
 30
0.0
 10
-599.0381
 20
-326.2579
 30
0.0
 10
-600.6052
 20
-424.6667
 30
0.0
 10
-600.6052
 20
-424.6667
 30
0.0
 10
-600.6052
 20
-424.6667
 30
0.0
 10
-783.8155
 20
-503.2618
 30
0.0
 10
-783.8155
 20
-503.2618
 30
0.0
  0
SPLINE
  5
78
330
1F
100
AcDbEntity
  8
Layer 1
 62
   250
370
    20
100
AcDbSpline
210
0.0
220
0.0
230
1.0
 70
    11
 71
     3
 72
    14
 73
    10
 74
     0
 42
0.0000000001
 43
0.0000000001
 40
0.0
 40
0.0
 40
0.0
 40
0.0
 40
0.3333333333333333
 40
0.3333333333333333
 40
0.3333333333333333
 40
0.6666666666666666
 40
0.6666666666666666
 40
0.6666666666666666
 40
1.0
 40
1.0
 40
1.0
 40
1.0
 10
-863.5616
 20
-588.1514
 30
0.0
 10
-863.5616
 20
-588.1514
 30
0.0
 10
-608.7632
 20
-588.1514
 30
0.0
 10
-608.7632
 20
-588.1514
 30
0.0
 10
-608.7632
 20
-588.1514
 30
0.0
 10
-603.9007
 20
-471.654
 30
0.0
 10
-603.9007
 20
-471.654
 30
0.0
 10
-603.9007
 20
-471.654
 30
0.0
 10
-863.5616
 20
-588.1514
 30
0.0
 10
-863.5616
 20
-588.1514
 30
0.0
  0
SPLINE
  5
79
330
1F
100
AcDbEntity
  8
Layer 1
 62
   250
370
    20
100
AcDbSpline
210
0.0
220
0.0
230
1.0
 70
    11
 71
     3
 72
    17
 73
    13
 74
     0
 42
0.0000000001
 43
0.0000000001
 40
0.0
 40
0.0
 40
0.0
 40
0.0
 40
0.25
 40
0.25
 40
0.25
 40
0.5
 40
0.5
 40
0.5
 40
0.75
 40
0.75
 40
0.75
 40
1.0
 40
1.0
 40
1.0
 40
1.0
 10
-568.8903
 20
-587.2483
 30
0.0
 10
-568.8903
 20
-587.2483
 30
0.0
 10
-429.8209
 20
-587.2483
 30
0.0
 10
-429.8209
 20
-587.2483
 30
0.0
 10
-429.8209
 20
-587.2483
 30
0.0
 10
-429.8209
 20
-453.5923
 30
0.0
 10
-429.8209
 20
-453.5923
 30
0.0
 10
-429.8209
 20
-453.5923
 30
0.0
 10
-568.8903
 20
-561.059
 30
0.0
 10
-568.8903
 20
-561.059
 30
0.0
 10
-568.8903
 20
-561.059
 30
0.0
 10
-568.8903
 20
-587.2483
 30
0.0
 10
-568.8903
 20
-587.2483
 30
0.0
  0
SPLINE
  5
7A
330
1F
100
AcDbEntity
  8
Layer 1
 62
   250
370
    20
100
AcDbSpline
210
0.0
220
0.0
230
1.0
 70
    11
 71
     3
 72
    17
 73
    13
 74
     0
 42
0.0000000001
 43
0.0000000001
 40
0.0
 40
0.0
 40
0.0
 40
0.0
 40
0.25
 40
0.25
 40
0.25
 40
0.5
 40
0.5
 40
0.5
 40
0.75
 40
0.75
 40
0.75
 40
1.0
 40
1.0
 40
1.0
 40
1.0
 10
-563.0552
 20
-509.5834
 30
0.0
 10
-563.0552
 20
-509.5834
 30
0.0
 10
-563.0552
 20
-331.6764
 30
0.0
 10
-563.0552
 20
-331.6764
 30
0.0
 10
-563.0552
 20
-331.6764
 30
0.0
 10
-429.8209
 20
-341.6103
 30
0.0
 10
-429.8209
 20
-341.6103
 30
0.0
 10
-429.8209
 20
-341.6103
 30
0.0
 10
-429.8209
 20
-405.7291
 30
0.0
 10
-429.8209
 20
-405.7291
 30
0.0
 10
-429.8209
 20
-405.7291
 30
0.0
 10
-563.0552
 20
-509.5834
 30
0.0
 10
-563.0552
 20
-509.5834
 30
0.0
  0
SPLINE
  5
7B
330
1F
100
AcDbEntity
  8
Layer 1
 62
   250
370
    20
100
AcDbSpline
210
0.0
220
0.0
230
1.0
 70
    11
 71
     3
 72
    17
 73
    13
 74
     0
 42
0.0000000001
 43
0.0000000001
 40
0.0
 40
0.0
 40
0.0
 40
0.0
 40
0.25
 40
0.25
 40
0.25
 40
0.5
 40
0.5
 40
0.5
 40
0.75
 40
0.75
 40
0.75
 40
1.0
 40
1.0
 40
1.0
 40
1.0
 10
-389.0336
 20
-586.7413
 30
0.0
 10
-389.0336
 20
-586.7413
 30
0.0
 10
-389.0336
 20
-485.5962
 30
0.0
 10
-389.0336
 20
-485.5962
 30
0.0
 10
-389.0336
 20
-485.5962
 30
0.0
 10
-291.7822
 20
-519.0102
 30
0.0
 10
-291.7822
 20
-519.0102
 30
0.0
 10
-291.7822
 20
-519.0102
 30
0.0
 10
-266.4969
 20
-586.7413
 30
0.0
 10
-266.4969
 20
-586.7413
 30
0.0
 10
-266.4969
 20
-586.7413
 30
0.0
 10
-389.0336
 20
-586.7413
 30
0.0
 10
-389.0336
 20
-586.7413
 30
0.0
  0
SPLINE
  5
7C
330
1F
100
AcDbEntity
  8
Layer 1
 62
   250
370
    20
100
AcDbSpline
210
0.0
220
0.0
230
1.0
 70
    11
 71
     3
 72
    14
 73
    10
 74
     0
 42
0.0000000001
 43
0.0000000001
 40
0.0
 40
0.0
 40
0.0
 40
0.0
 40
0.3333333333333333
 40
0.3333333333333333
 40
0.3333333333333333
 40
0.6666666666666666
 40
0.6666666666666666
 40
0.6666666666666666
 40
1.0
 40
1.0
 40
1.0
 40
1.0
 10
-389.0336
 20
-440.4422
 30
0.0
 10
-389.0336
 20
-440.4422
 30
0.0
 10
-389.0336
 20
-275.1783
 30
0.0
 10
-389.0336
 20
-275.1783
 30
0.0
 10
-389.0336
 20
-275.1783
 30
0.0
 10
-312.205
 20
-471.1469
 30
0.0
 10
-312.205
 20
-471.1469
 30
0.0
 10
-312.205
 20
-471.1469
 30
0.0
 10
-389.0336
 20
-440.4422
 30
0.0
 10
-389.0336
 20
-440.4422
 30
0.0
  0
SPLINE
  5
7D
330
1F
100
AcDbEntity
  8
Layer 1
 62
   250
370
    20
100
AcDbSpline
210
0.0
220
0.0
230
1.0
 70
    11
 71
     3
 72
    17
 73
    13
 74
     0
 42
0.0000000001
 43
0.0000000001
 40
0.0
 40
0.0
 40
0.0
 40
0.0
 40
0.25
 40
0.25
 40
0.25
 40
0.5
 40
0.5
 40
0.5
 40
0.75
 40
0.75
 40
0.75
 40
1.0
 40
1.0
 40
1.0
 40
1.0
 10
-389.0336
 20
-208.9834
 30
0.0
 10
-389.0336
 20
-208.9834
 30
0.0
 10
-389.0336
 20
-69.9089
 30
0.0
 10
-389.0336
 20
-69.9089
 30
0.0
 10
-389.0336
 20
-69.9089
 30
0.0
 10
-382.2259
 20
-61.7811
 30
0.0
 10
-382.2259
 20
-61.7811
 30
0.0
 10
-382.2259
 20
-61.7811
 30
0.0
 10
-328.7378
 20
-153.8954
 30
0.0
 10
-328.7378
 20
-153.8954
 30
0.0
 10
-328.7378
 20
-153.8954
 30
0.0
 10
-389.0336
 20
-208.9834
 30
0.0
 10
-389.0336
 20
-208.9834
 30
0.0
  0
SPLINE
  5
7E
330
1F
100
AcDbEntity
  8
Layer 1
 62
   250
370
    20
100
AcDbSpline
210
0.0
220
0.0
230
1.0
 70
    11
 71
     3
 72
    17
 73
    13
 74
     0
 42
0.0000000001
 43
0.0000000001
 40
0.0
 40
0.0
 40
0.0
 40
0.0
 40
0.25
 40
0.25
 40
0.25
 40
0.5
 40
0.5
 40
0.5
 40
0.75
 40
0.75
 40
0.75
 40
1.0
 40
1.0
 40
1.0
 40
1.0
 10
-391.4471
 20
-16.7831
 30
0.0
 10
-391.4471
 20
-16.7831
 30
0.0
 10
-389.3793
 20
268.7495
 30
0.0
 10
-389.3793
 20
268.7495
 30
0.0
 10
-389.3793
 20
268.7495
 30
0.0
 10
-314.9739
 20
238.2938
 30
0.0
 10
-314.9739
 20
238.2938
 30
0.0
 10
-314.9739
 20
238.2938
 30
0.0
 10
-276.4515
 20
105.0848
 30
0.0
 10
-276.4515
 20
105.0848
 30
0.0
 10
-276.4515
 20
105.0848
 30
0.0
 10
-391.4471
 20
-16.7831
 30
0.0
 10
-391.4471
 20
-16.7831
 30
0.0
  0
SPLINE
  5
7F
330
1F
100
AcDbEntity
  8
Layer 1
 62
   250
370
    20
100
AcDbSpline
210
0.0
220
0.0
230
1.0
 70
    11
 71
     3
 72
    17
 73
    13
 74
     0
 42
0.0000000001
 43
0.0000000001
 40
0.0
 40
0.0
 40
0.0
 40
0.0
 40
0.25
 40
0.25
 40
0.25
 40
0.5
 40
0.5
 40
0.5
 40
0.75
 40
0.75
 40
0.75
 40
1.0
 40
1.0
 40
1.0
 40
1.0
 10
-389.0336
 20
316.3398
 30
0.0
 10
-389.0336
 20
316.3398
 30
0.0
 10
-389.0336
 20
416.5818
 30
0.0
 10
-389.0336
 20
416.5818
 30
0.0
 10
-389.0336
 20
416.5818
 30
0.0
 10
-364.7207
 20
406.6479
 30
0.0
 10
-364.7207
 20
406.6479
 30
0.0
 10
-364.7207
 20
406.6479
 30
0.0
 10
-329.7103
 20
290.1504
 30
0.0
 10
-329.7103
 20
290.1504
 30
0.0
 10
-329.7103
 20
290.1504
 30
0.0
 10
-389.0336
 20
316.3398
 30
0.0
 10
-389.0336
 20
316.3398
 30
0.0
  0
SPLINE
  5
80
330
1F
100
AcDbEntity
  8
Layer 1
 62
   250
370
    20
100
AcDbSpline
210
0.0
220
0.0
230
1.0
 70
    11
 71
     3
 72
    20
 73
    16
 74
     0
 42
0.0000000001
 43
0.0000000001
 40
0.0
 40
0.0
 40
0.0
 40
0.0
 40
0.2
 40
0.2
 40
0.2
 40
0.4
 40
0.4
 40
0.4
 40
0.6000000000000001
 40
0.6000000000000001
 40
0.6000000000000001
 40
0.8
 40
0.8
 40
0.8
 40
1.0
 40
1.0
 40
1.0
 40
1.0
 10
-389.0336
 20
471.6698
 30
0.0
 10
-389.0336
 20
471.6698
 30
0.0
 10
-389.0336
 20
589.0703
 30
0.0
 10
-389.0336
 20
589.0703
 30
0.0
 10
-389.0336
 20
589.0703
 30
0.0
 10
-289.8372
 20
589.0703
 30
0.0
 10
-289.8372
 20
589.0703
 30
0.0
 10
-289.8372
 20
589.0703
 30
0.0
 10
-117.2211
 20
428.3009
 30
0.0
 10
-117.2211
 20
428.3009
 30
0.0
 10
-117.2211
 20
428.3009
 30
0.0
 10
-167.7917
 20
347.9266
 30
0.0
 10
-167.7917
 20
347.9266
 30
0.0
 10
-167.7917
 20
347.9266
 30
0.0
 10
-389.0336
 20
471.6698
 30
0.0
 10
-389.0336
 20
471.6698
 30
0.0
  0
SPLINE
  5
81
330
1F
100
AcDbEntity
  8
Layer 1
 62
   250
370
    20
100
AcDbSpline
210
0.0
220
0.0
230
1.0
 70
    11
 71
     3
 72
    32
 73
    28
 74
     0
 42
0.0000000001
 43
0.0000000001
 40
0.0
 40
0.0
 40
0.0
 40
0.0
 40
0.1111111111111111
 40
0.1111111111111111
 40
0.1111111111111111
 40
0.2222222222222222
 40
0.2222222222222222
 40
0.2222222222222222
 40
0.3333333333333333
 40
0.3333333333333333
 40
0.3333333333333333
 40
0.4444444444444444
 40
0.4444444444444444
 40
0.4444444444444444
 40
0.5555555555555556
 40
0.5555555555555556
 40
0.5555555555555556
 40
0.6666666666666666
 40
0.6666666666666666
 40
0.6666666666666666
 40
0.7777777777777777
 40
0.7777777777777777
 40
0.7777777777777777
 40
0.8888888888888888
 40
0.8888888888888888
 40
0.8888888888888888
 40
1.0
 40
1.0
 40
1.0
 40
1.0
 10
-244.1292
 20
139.3359
 30
0.0
 10
-244.1292
 20
139.3359
 30
0.0
 10
-313.1775
 20
376.8463
 30
0.0
 10
-313.1775
 20
376.8463
 30
0.0
 10
-313.1775
 20
376.8463
 30
0.0
 10
-51.3907
 20
228.7649
 30
0.0
 10
-51.3907
 20
228.7649
 30
0.0
 10
-51.3907
 20
228.7649
 30
0.0
 10
106.948
 20
341.6261
 30
0.0
 10
106.948
 20
341.6261
 30
0.0
 10
106.948
 20
341.6261
 30
0.0
 10
176.9689
 20
262.155
 30
0.0
 10
176.9689
 20
262.155
 30
0.0
 10
176.9689
 20
262.155
 30
0.0
 10
132.6598
 20
217.5649
 30
0.0
 10
132.6598
 20
217.5649
 30
0.0
 10
132.6598
 20
217.5649
 30
0.0
 10
-150.7679
 20
220.6132
 30
0.0
 10
-150.7679
 20
220.6132
 30
0.0
 10
-150.7679
 20
220.6132
 30
0.0
 10
-174.1082
 20
197.1331
 30
0.0
 10
-174.1082
 20
197.1331
 30
0.0
 10
-174.1082
 20
197.1331
 30
0.0
 10
-174.1082
 20
190.8115
 30
0.0
 10
-174.1082
 20
190.8115
 30
0.0
 10
-174.1082
 20
190.8115
 30
0.0
 10
-244.1292
 20
139.3359
 30
0.0
 10
-244.1292
 20
139.3359
 30
0.0
  0
SPLINE
  5
82
330
1F
100
AcDbEntity
  8
Layer 1
 62
   250
370
    20
100
AcDbSpline
210
0.0
220
0.0
230
1.0
 70
    11
 71
     3
 72
    14
 73
    10
 74
     0
 42
0.0000000001
 43
0.0000000001
 40
0.0
 40
0.0
 40
0.0
 40
0.0
 40
0.3333333333333333
 40
0.3333333333333333
 40
0.3333333333333333
 40
0.6666666666666666
 40
0.6666666666666666
 40
0.6666666666666666
 40
1.0
 40
1.0
 40
1.0
 40
1.0
 10
-231.8871
 20
98.5472
 30
0.0
 10
-231.8871
 20
98.5472
 30
0.0
 10
-174.567
 20
144.5924
 30
0.0
 10
-174.567
 20
144.5924
 30
0.0
 10
-174.567
 20
144.5924
 30
0.0
 10
-172.622
 20
-101.5977
 30
0.0
 10
-172.622
 20
-101.5977
 30
0.0
 10
-172.622
 20
-101.5977
 30
0.0
 10
-231.8871
 20
98.5472
 30
0.0
 10
-231.8871
 20
98.5472
 30
0.0
  0
SPLINE
  5
83
330
1F
100
AcDbEntity
  8
Layer 1
 62
   250
370
    20
100
AcDbSpline
210
0.0
220
0.0
230
1.0
 70
    11
 71
     3
 72
    17
 73
    13
 74
     0
 42
0.0000000001
 43
0.0000000001
 40
0.0
 40
0.0
 40
0.0
 40
0.0
 40
0.25
 40
0.25
 40
0.25
 40
0.5
 40
0.5
 40
0.5
 40
0.75
 40
0.75
 40
0.75
 40
1.0
 40
1.0
 40
1.0
 40
1.0
 10
-251.822
 20
-193.733
 30
0.0
 10
-251.822
 20
-193.733
 30
0.0
 10
-350.9634
 20
-28.2112
 30
0.0
 10
-350.9634
 20
-28.2112
 30
0.0
 10
-350.9634
 20
-28.2112
 30
0.0
 10
-263.4372
 20
63.9032
 30
0.0
 10
-263.4372
 20
63.9032
 30
0.0
 10
-263.4372
 20
63.9032
 30
0.0
 10
-209.1542
 20
-123.3647
 30
0.0
 10
-209.1542
 20
-123.3647
 30
0.0
 10
-209.1542
 20
-123.3647
 30
0.0
 10
-251.822
 20
-193.733
 30
0.0
 10
-251.822
 20
-193.733
 30
0.0
  0
SPLINE
  5
84
330
1F
100
AcDbEntity
  8
Layer 1
 62
   250
370
    20
100
AcDbSpline
210
0.0
220
0.0
230
1.0
 70
    11
 71
     3
 72
    17
 73
    13
 74
     0
 42
0.0000000001
 43
0.0000000001
 40
0.0
 40
0.0
 40
0.0
 40
0.0
 40
0.25
 40
0.25
 40
0.25
 40
0.5
 40
0.5
 40
0.5
 40
0.75
 40
0.75
 40
0.75
 40
1.0
 40
1.0
 40
1.0
 40
1.0
 10
-289.8372
 20
-402.5128
 30
0.0
 10
-289.8372
 20
-402.5128
 30
0.0
 10
-357.9132
 20
-230.9273
 30
0.0
 10
-357.9132
 20
-230.9273
 30
0.0
 10
-357.9132
 20
-230.9273
 30
0.0
 10
-308.315
 20
-186.6764
 30
0.0
 10
-308.315
 20
-186.6764
 30
0.0
 10
-308.315
 20
-186.6764
 30
0.0
 10
-193.5585
 20
-376.3234
 30
0.0
 10
-193.5585
 20
-376.3234
 30
0.0
 10
-193.5585
 20
-376.3234
 30
0.0
 10
-289.8372
 20
-402.5128
 30
0.0
 10
-289.8372
 20
-402.5128
 30
0.0
  0
SPLINE
  5
85
330
1F
100
AcDbEntity
  8
Layer 1
 62
   250
370
    20
100
AcDbSpline
210
0.0
220
0.0
230
1.0
 70
    11
 71
     3
 72
    26
 73
    22
 74
     0
 42
0.0000000001
 43
0.0000000001
 40
0.0
 40
0.0
 40
0.0
 40
0.0
 40
0.1428571428571428
 40
0.1428571428571428
 40
0.1428571428571428
 40
0.2857142857142857
 40
0.2857142857142857
 40
0.2857142857142857
 40
0.4285714285714285
 40
0.4285714285714285
 40
0.4285714285714285
 40
0.5714285714285714
 40
0.5714285714285714
 40
0.5714285714285714
 40
0.7142857142857142
 40
0.7142857142857142
 40
0.7142857142857142
 40
0.8571428571428571
 40
0.8571428571428571
 40
0.8571428571428571
 40
1.0
 40
1.0
 40
1.0
 40
1.0
 10
-151.7404
 20
-361.8741
 30
0.0
 10
-151.7404
 20
-361.8741
 30
0.0
 10
-229.5414
 20
-230.9273
 30
0.0
 10
-229.5414
 20
-230.9273
 30
0.0
 10
-229.5414
 20
-230.9273
 30
0.0
 10
-175.0807
 20
-137.0069
 30
0.0
 10
-175.0807
 20
-137.0069
 30
0.0
 10
-175.0807
 20
-137.0069
 30
0.0
 10
-175.0807
 20
-199.3195
 30
0.0
 10
-175.0807
 20
-199.3195
 30
0.0
 10
-175.0807
 20
-199.3195
 30
0.0
 10
-154.658
 20
-215.575
 30
0.0
 10
-154.658
 20
-215.575
 30
0.0
 10
-154.658
 20
-215.575
 30
0.0
 10
-4.9492
 20
-215.662
 30
0.0
 10
-4.9492
 20
-215.662
 30
0.0
 10
-4.9492
 20
-215.662
 30
0.0
 10
-8.781
 20
-321.2355
 30
0.0
 10
-8.781
 20
-321.2355
 30
0.0
 10
-8.781
 20
-321.2355
 30
0.0
 10
-151.7404
 20
-361.8741
 30
0.0
 10
-151.7404
 20
-361.8741
 30
0.0
  0
SPLINE
  5
86
330
1F
100
AcDbEntity
  8
Layer 1
 62
   250
370
    20
100
AcDbSpline
210
0.0
220
0.0
230
1.0
 70
    11
 71
     3
 72
    20
 73
    16
 74
     0
 42
0.0000000001
 43
0.0000000001
 40
0.0
 40
0.0
 40
0.0
 40
0.0
 40
0.2
 40
0.2
 40
0.2
 40
0.4
 40
0.4
 40
0.4
 40
0.6000000000000001
 40
0.6000000000000001
 40
0.6000000000000001
 40
0.8
 40
0.8
 40
0.8
 40
1.0
 40
1.0
 40
1.0
 40
1.0
 10
-217.8713
 20
-587.4794
 30
0.0
 10
-217.8713
 20
-587.4794
 30
0.0
 10
-159.5205
 20
-587.4794
 30
0.0
 10
-159.5205
 20
-587.4794
 30
0.0
 10
-159.5205
 20
-587.4794
 30
0.0
 10
-12.6711
 20
-523.3606
 30
0.0
 10
-12.6711
 20
-523.3606
 30
0.0
 10
-12.6711
 20
-523.3606
 30
0.0
 10
-8.781
 20
-367.1276
 30
0.0
 10
-8.781
 20
-367.1276
 30
0.0
 10
-8.781
 20
-367.1276
 30
0.0
 10
-277.1946
 20
-445.6957
 30
0.0
 10
-277.1946
 20
-445.6957
 30
0.0
 10
-277.1946
 20
-445.6957
 30
0.0
 10
-217.8713
 20
-587.4794
 30
0.0
 10
-217.8713
 20
-587.4794
 30
0.0
  0
SPLINE
  5
87
330
1F
100
AcDbEntity
  8
Layer 1
 62
   250
370
    20
100
AcDbSpline
210
0.0
220
0.0
230
1.0
 70
    11
 71
     3
 72
    35
 73
    31
 74
     0
 42
0.0000000001
 43
0.0000000001
 40
0.0
 40
0.0
 40
0.0
 40
0.0
 40
0.1
 40
0.1
 40
0.1
 40
0.2
 40
0.2
 40
0.2
 40
0.3
 40
0.3
 40
0.3
 40
0.4
 40
0.4
 40
0.4
 40
0.5
 40
0.5
 40
0.5
 40
0.6000000000000001
 40
0.6000000000000001
 40
0.6000000000000001
 40
0.7000000000000001
 40
0.7000000000000001
 40
0.7000000000000001
 40
0.8
 40
0.8
 40
0.8
 40
0.9
 40
0.9
 40
0.9
 40
1.0
 40
1.0
 40
1.0
 40
1.0
 10
36.6459
 20
-378.8436
 30
0.0
 10
36.6459
 20
-378.8436
 30
0.0
 10
134.6081
 20
-255.6946
 30
0.0
 10
134.6081
 20
-255.6946
 30
0.0
 10
134.6081
 20
-255.6946
 30
0.0
 10
174.481
 20
-255.6946
 30
0.0
 10
174.481
 20
-255.6946
 30
0.0
 10
174.481
 20
-255.6946
 30
0.0
 10
199.7664
 20
-226.796
 30
0.0
 10
199.7664
 20
-226.796
 30
0.0
 10
199.7664
 20
-226.796
 30
0.0
 10
197.8214
 20
-176.2235
 30
0.0
 10
197.8214
 20
-176.2235
 30
0.0
 10
197.8214
 20
-176.2235
 30
0.0
 10
282.43
 20
-69.6599
 30
0.0
 10
282.43
 20
-69.6599
 30
0.0
 10
282.43
 20
-69.6599
 30
0.0
 10
167.6735
 20
18.8421
 30
0.0
 10
167.6735
 20
18.8421
 30
0.0
 10
167.6735
 20
18.8421
 30
0.0
 10
166.7009
 20
-192.4789
 30
0.0
 10
166.7009
 20
-192.4789
 30
0.0
 10
166.7009
 20
-192.4789
 30
0.0
 10
141.4156
 20
-216.8621
 30
0.0
 10
141.4156
 20
-216.8621
 30
0.0
 10
141.4156
 20
-216.8621
 30
0.0
 10
38.0191
 20
-218.4732
 30
0.0
 10
38.0191
 20
-218.4732
 30
0.0
 10
38.0191
 20
-218.4732
 30
0.0
 10
36.6459
 20
-378.8436
 30
0.0
 10
36.6459
 20
-378.8436
 30
0.0
  0
SPLINE
  5
88
330
1F
100
AcDbEntity
  8
Layer 1
 62
   250
370
    20
100
AcDbSpline
210
0.0
220
0.0
230
1.0
 70
    11
 71
     3
 72
    20
 73
    16
 74
     0
 42
0.0000000001
 43
0.0000000001
 40
0.0
 40
0.0
 40
0.0
 40
0.0
 40
0.2
 40
0.2
 40
0.2
 40
0.4
 40
0.4
 40
0.4
 40
0.6000000000000001
 40
0.6000000000000001
 40
0.6000000000000001
 40
0.8
 40
0.8
 40
0.8
 40
1.0
 40
1.0
 40
1.0
 40
1.0
 10
309.4633
 20
-39.1411
 30
0.0
 10
309.4633
 20
-39.1411
 30
0.0
 10
169.4214
 20
74.6471
 30
0.0
 10
169.4214
 20
74.6471
 30
0.0
 10
169.4214
 20
74.6471
 30
0.0
 10
170.394
 20
192.9507
 30
0.0
 10
170.394
 20
192.9507
 30
0.0
 10
170.394
 20
192.9507
 30
0.0
 10
208.3219
 20
227.2678
 30
0.0
 10
208.3219
 20
227.2678
 30
0.0
 10
208.3219
 20
227.2678
 30
0.0
 10
380.4567
 20
47.5547
 30
0.0
 10
380.4567
 20
47.5547
 30
0.0
 10
380.4567
 20
47.5547
 30
0.0
 10
309.4633
 20
-39.1411
 30
0.0
 10
309.4633
 20
-39.1411
 30
0.0
  0
SPLINE
  5
89
330
1F
100
AcDbEntity
  8
Layer 1
 62
   250
370
    20
100
AcDbSpline
210
0.0
220
0.0
230
1.0
 70
    11
 71
     3
 72
    17
 73
    13
 74
     0
 42
0.0000000001
 43
0.0000000001
 40
0.0
 40
0.0
 40
0.0
 40
0.0
 40
0.25
 40
0.25
 40
0.25
 40
0.5
 40
0.5
 40
0.5
 40
0.75
 40
0.75
 40
0.75
 40
1.0
 40
1.0
 40
1.0
 40
1.0
 10
-45.9142
 20
279.3135
 30
0.0
 10
-45.9142
 20
279.3135
 30
0.0
 10
-137.1527
 20
330.7891
 30
0.0
 10
-137.1527
 20
330.7891
 30
0.0
 10
-137.1527
 20
330.7891
 30
0.0
 10
-35.0389
 20
491.5375
 30
0.0
 10
-35.0389
 20
491.5375
 30
0.0
 10
-35.0389
 20
491.5375
 30
0.0
 10
80.59
 20
369.4536
 30
0.0
 10
80.59
 20
369.4536
 30
0.0
 10
80.59
 20
369.4536
 30
0.0
 10
-45.9142
 20
279.3135
 30
0.0
 10
-45.9142
 20
279.3135
 30
0.0
  0
SPLINE
  5
8A
330
1F
100
AcDbEntity
  8
Layer 1
 62
   250
370
    20
100
AcDbSpline
210
0.0
220
0.0
230
1.0
 70
    11
 71
     3
 72
    14
 73
    10
 74
     0
 42
0.0000000001
 43
0.0000000001
 40
0.0
 40
0.0
 40
0.0
 40
0.0
 40
0.3333333333333333
 40
0.3333333333333333
 40
0.3333333333333333
 40
0.6666666666666666
 40
0.6666666666666666
 40
0.6666666666666666
 40
1.0
 40
1.0
 40
1.0
 40
1.0
 10
-226.6239
 20
589.0703
 30
0.0
 10
-226.6239
 20
589.0703
 30
0.0
 10
-188.6959
 20
589.0703
 30
0.0
 10
-188.6959
 20
589.0703
 30
0.0
 10
-188.6959
 20
589.0703
 30
0.0
 10
-196.476
 20
550.2378
 30
0.0
 10
-196.476
 20
550.2378
 30
0.0
 10
-196.476
 20
550.2378
 30
0.0
 10
-226.6239
 20
589.0703
 30
0.0
 10
-226.6239
 20
589.0703
 30
0.0
  0
SPLINE
  5
8B
330
1F
100
AcDbEntity
  8
Layer 1
 62
   250
370
    20
100
AcDbSpline
210
0.0
220
0.0
230
1.0
 70
    11
 71
     3
 72
    17
 73
    13
 74
     0
 42
0.0000000001
 43
0.0000000001
 40
0.0
 40
0.0
 40
0.0
 40
0.0
 40
0.25
 40
0.25
 40
0.25
 40
0.5
 40
0.5
 40
0.5
 40
0.75
 40
0.75
 40
0.75
 40
1.0
 40
1.0
 40
1.0
 40
1.0
 10
-159.5205
 20
523.1454
 30
0.0
 10
-159.5205
 20
523.1454
 30
0.0
 10
-151.7404
 20
589.9734
 30
0.0
 10
-151.7404
 20
589.9734
 30
0.0
 10
-151.7404
 20
589.9734
 30
0.0
 10
-17.776
 20
589.9734
 30
0.0
 10
-17.776
 20
589.9734
 30
0.0
 10
-17.776
 20
589.9734
 30
0.0
 10
-92.9503
 20
468.6305
 30
0.0
 10
-92.9503
 20
468.6305
 30
0.0
 10
-92.9503
 20
468.6305
 30
0.0
 10
-159.5205
 20
523.1454
 30
0.0
 10
-159.5205
 20
523.1454
 30
0.0
  0
SPLINE
  5
8C
330
1F
100
AcDbEntity
  8
Layer 1
 62
   250
370
    20
100
AcDbSpline
210
0.0
220
0.0
230
1.0
 70
    11
 71
     3
 72
    20
 73
    16
 74
     0
 42
0.0000000001
 43
0.0000000001
 40
0.0
 40
0.0
 40
0.0
 40
0.0
 40
0.2
 40
0.2
 40
0.2
 40
0.4
 40
0.4
 40
0.4
 40
0.6000000000000001
 40
0.6000000000000001
 40
0.6000000000000001
 40
0.8
 40
0.8
 40
0.8
 40
1.0
 40
1.0
 40
1.0
 40
1.0
 10
-8.1639
 20
524.5435
 30
0.0
 10
-8.1639
 20
524.5435
 30
0.0
 10
31.7091
 20
585.0499
 30
0.0
 10
31.7091
 20
585.0499
 30
0.0
 10
31.7091
 20
585.0499
 30
0.0
 10
44.3518
 20
584.1469
 30
0.0
 10
44.3518
 20
584.1469
 30
0.0
 10
44.3518
 20
584.1469
 30
0.0
 10
288.4525
 20
401.7245
 30
0.0
 10
288.4525
 20
401.7245
 30
0.0
 10
288.4525
 20
401.7245
 30
0.0
 10
207.7339
 20
291.5486
 30
0.0
 10
207.7339
 20
291.5486
 30
0.0
 10
207.7339
 20
291.5486
 30
0.0
 10
-8.1639
 20
524.5435
 30
0.0
 10
-8.1639
 20
524.5435
 30
0.0
  0
SPLINE
  5
8D
330
1F
100
AcDbEntity
  8
Layer 1
 62
   250
370
    20
100
AcDbSpline
210
0.0
220
0.0
230
1.0
 70
    11
 71
     3
 72
    17
 73
    13
 74
     0
 42
0.0000000001
 43
0.0000000001
 40
0.0
 40
0.0
 40
0.0
 40
0.0
 40
0.25
 40
0.25
 40
0.25
 40
0.5
 40
0.5
 40
0.5
 40
0.75
 40
0.75
 40
0.75
 40
1.0
 40
1.0
 40
1.0
 40
1.0
 10
223.6495
 20
503.2776
 30
0.0
 10
223.6495
 20
503.2776
 30
0.0
 10
109.8655
 20
589.0703
 30
0.0
 10
109.8655
 20
589.0703
 30
0.0
 10
109.8655
 20
589.0703
 30
0.0
 10
301.4505
 20
588.1672
 30
0.0
 10
301.4505
 20
588.1672
 30
0.0
 10
301.4505
 20
588.1672
 30
0.0
 10
300.478
 20
509.5992
 30
0.0
 10
300.478
 20
509.5992
 30
0.0
 10
300.478
 20
509.5992
 30
0.0
 10
223.6495
 20
503.2776
 30
0.0
 10
223.6495
 20
503.2776
 30
0.0
  0
SPLINE
  5
8E
330
1F
100
AcDbEntity
  8
Layer 1
 62
   250
370
    20
100
AcDbSpline
210
0.0
220
0.0
230
1.0
 70
    11
 71
     3
 72
    17
 73
    13
 74
     0
 42
0.0000000001
 43
0.0000000001
 40
0.0
 40
0.0
 40
0.0
 40
0.0
 40
0.25
 40
0.25
 40
0.25
 40
0.5
 40
0.5
 40
0.5
 40
0.75
 40
0.75
 40
0.75
 40
1.0
 40
1.0
 40
1.0
 40
1.0
 10
338.4319
 20
509.8122
 30
0.0
 10
338.4319
 20
509.8122
 30
0.0
 10
339.4044
 20
584.7679
 30
0.0
 10
339.4044
 20
584.7679
 30
0.0
 10
339.4044
 20
584.7679
 30
0.0
 10
381.2224
 20
584.7679
 30
0.0
 10
381.2224
 20
584.7679
 30
0.0
 10
381.2224
 20
584.7679
 30
0.0
 10
382.1949
 20
513.4245
 30
0.0
 10
382.1949
 20
513.4245
 30
0.0
 10
382.1949
 20
513.4245
 30
0.0
 10
338.4319
 20
509.8122
 30
0.0
 10
338.4319
 20
509.8122
 30
0.0
  0
SPLINE
  5
8F
330
1F
100
AcDbEntity
  8
Layer 1
 62
   250
370
    20
100
AcDbSpline
210
0.0
220
0.0
230
1.0
 70
    11
 71
     3
 72
    14
 73
    10
 74
     0
 42
0.0000000001
 43
0.0000000001
 40
0.0
 40
0.0
 40
0.0
 40
0.0
 40
0.3333333333333333
 40
0.3333333333333333
 40
0.3333333333333333
 40
0.6666666666666666
 40
0.6666666666666666
 40
0.6666666666666666
 40
1.0
 40
1.0
 40
1.0
 40
1.0
 10
276.96
 20
460.9978
 30
0.0
 10
276.96
 20
460.9978
 30
0.0
 10
381.0188
 20
473.6409
 30
0.0
 10
381.0188
 20
473.6409
 30
0.0
 10
381.0188
 20
473.6409
 30
0.0
 10
381.9914
 20
383.3328
 30
0.0
 10
381.9914
 20
383.3328
 30
0.0
 10
381.9914
 20
383.3328
 30
0.0
 10
276.96
 20
460.9978
 30
0.0
 10
276.96
 20
460.9978
 30
0.0
  0
SPLINE
  5
90
330
1F
100
AcDbEntity
  8
Layer 1
 62
   250
370
    20
100
AcDbSpline
210
0.0
220
0.0
230
1.0
 70
    11
 71
     3
 72
    17
 73
    13
 74
     0
 42
0.0000000001
 43
0.0000000001
 40
0.0
 40
0.0
 40
0.0
 40
0.0
 40
0.25
 40
0.25
 40
0.25
 40
0.5
 40
0.5
 40
0.5
 40
0.75
 40
0.75
 40
0.75
 40
1.0
 40
1.0
 40
1.0
 40
1.0
 10
317.9832
 20
381.3617
 30
0.0
 10
317.9832
 20
381.3617
 30
0.0
 10
382.1691
 20
336.2076
 30
0.0
 10
382.1691
 20
336.2076
 30
0.0
 10
382.1691
 20
336.2076
 30
0.0
 10
383.1416
 20
98.6973
 30
0.0
 10
383.1416
 20
98.6973
 30
0.0
 10
383.1416
 20
98.6973
 30
0.0
 10
229.4846
 20
269.3796
 30
0.0
 10
229.4846
 20
269.3796
 30
0.0
 10
229.4846
 20
269.3796
 30
0.0
 10
317.9832
 20
381.3617
 30
0.0
 10
317.9832
 20
381.3617
 30
0.0
  0
SPLINE
  5
91
330
1F
100
AcDbEntity
  8
Layer 1
 62
   250
370
    20
100
AcDbSpline
210
0.0
220
0.0
230
1.0
 70
    11
 71
     3
 72
    14
 73
    10
 74
     0
 42
0.0000000001
 43
0.0000000001
 40
0.0
 40
0.0
 40
0.0
 40
0.0
 40
0.3333333333333333
 40
0.3333333333333333
 40
0.3333333333333333
 40
0.6666666666666666
 40
0.6666666666666666
 40
0.6666666666666666
 40
1.0
 40
1.0
 40
1.0
 40
1.0
 10
168.1613
 20
-279.8017
 30
0.0
 10
168.1613
 20
-279.8017
 30
0.0
 10
385.5261
 20
-7.1283
 30
0.0
 10
385.5261
 20
-7.1283
 30
0.0
 10
385.5261
 20
-7.1283
 30
0.0
 10
385.5261
 20
-298.8235
 30
0.0
 10
385.5261
 20
-298.8235
 30
0.0
 10
385.5261
 20
-298.8235
 30
0.0
 10
168.1613
 20
-279.8017
 30
0.0
 10
168.1613
 20
-279.8017
 30
0.0
  0
SPLINE
  5
92
330
1F
100
AcDbEntity
  8
Layer 1
 62
   250
370
    20
100
AcDbSpline
210
0.0
220
0.0
230
1.0
 70
    11
 71
     3
 72
    20
 73
    16
 74
     0
 42
0.0000000001
 43
0.0000000001
 40
0.0
 40
0.0
 40
0.0
 40
0.0
 40
0.2
 40
0.2
 40
0.2
 40
0.4
 40
0.4
 40
0.4
 40
0.6000000000000001
 40
0.6000000000000001
 40
0.6000000000000001
 40
0.8
 40
0.8
 40
0.8
 40
1.0
 40
1.0
 40
1.0
 40
1.0
 10
31.1017
 20
-506.5351
 30
0.0
 10
31.1017
 20
-506.5351
 30
0.0
 10
32.0742
 20
-451.4472
 30
0.0
 10
32.0742
 20
-451.4472
 30
0.0
 10
32.0742
 20
-451.4472
 30
0.0
 10
133.2155
 20
-322.3065
 30
0.0
 10
133.2155
 20
-322.3065
 30
0.0
 10
133.2155
 20
-322.3065
 30
0.0
 10
215.8791
 20
-329.5312
 30
0.0
 10
215.8791
 20
-329.5312
 30
0.0
 10
215.8791
 20
-329.5312
 30
0.0
 10
214.3121
 20
-427.94
 30
0.0
 10
214.3121
 20
-427.94
 30
0.0
 10
214.3121
 20
-427.94
 30
0.0
 10
31.1017
 20
-506.5351
 30
0.0
 10
31.1017
 20
-506.5351
 30
0.0
  0
SPLINE
  5
93
330
1F
100
AcDbEntity
  8
Layer 1
 62
   250
370
    20
100
AcDbSpline
210
0.0
220
0.0
230
1.0
 70
    11
 71
     3
 72
    14
 73
    10
 74
     0
 42
0.0000000001
 43
0.0000000001
 40
0.0
 40
0.0
 40
0.0
 40
0.0
 40
0.3333333333333333
 40
0.3333333333333333
 40
0.3333333333333333
 40
0.6666666666666666
 40
0.6666666666666666
 40
0.6666666666666666
 40
1.0
 40
1.0
 40
1.0
 40
1.0
 10
-52.5441
 20
-587.6444
 30
0.0
 10
-52.5441
 20
-587.6444
 30
0.0
 10
202.2542
 20
-587.6444
 30
0.0
 10
202.2542
 20
-587.6444
 30
0.0
 10
202.2542
 20
-587.6444
 30
0.0
 10
207.1168
 20
-471.1469
 30
0.0
 10
207.1168
 20
-471.1469
 30
0.0
 10
207.1168
 20
-471.1469
 30
0.0
 10
-52.5441
 20
-587.6444
 30
0.0
 10
-52.5441
 20
-587.6444
 30
0.0
  0
SPLINE
  5
94
330
1F
100
AcDbEntity
  8
Layer 1
 62
   250
370
    20
100
AcDbSpline
210
0.0
220
0.0
230
1.0
 70
    11
 71
     3
 72
    17
 73
    13
 74
     0
 42
0.0000000001
 43
0.0000000001
 40
0.0
 40
0.0
 40
0.0
 40
0.0
 40
0.25
 40
0.25
 40
0.25
 40
0.5
 40
0.5
 40
0.5
 40
0.75
 40
0.75
 40
0.75
 40
1.0
 40
1.0
 40
1.0
 40
1.0
 10
243.8946
 20
-586.7413
 30
0.0
 10
243.8946
 20
-586.7413
 30
0.0
 10
382.9639
 20
-586.7413
 30
0.0
 10
382.9639
 20
-586.7413
 30
0.0
 10
382.9639
 20
-586.7413
 30
0.0
 10
382.9639
 20
-453.0853
 30
0.0
 10
382.9639
 20
-453.0853
 30
0.0
 10
382.9639
 20
-453.0853
 30
0.0
 10
243.8946
 20
-560.552
 30
0.0
 10
243.8946
 20
-560.552
 30
0.0
 10
243.8946
 20
-560.552
 30
0.0
 10
243.8946
 20
-586.7413
 30
0.0
 10
243.8946
 20
-586.7413
 30
0.0
  0
SPLINE
  5
95
330
1F
100
AcDbEntity
  8
Layer 1
 62
   250
370
    20
100
AcDbSpline
210
0.0
220
0.0
230
1.0
 70
    11
 71
     3
 72
    17
 73
    13
 74
     0
 42
0.0000000001
 43
0.0000000001
 40
0.0
 40
0.0
 40
0.0
 40
0.0
 40
0.25
 40
0.25
 40
0.25
 40
0.5
 40
0.5
 40
0.5
 40
0.75
 40
0.75
 40
0.75
 40
1.0
 40
1.0
 40
1.0
 40
1.0
 10
249.4066
 20
-509.7244
 30
0.0
 10
249.4066
 20
-509.7244
 30
0.0
 10
249.4066
 20
-331.8174
 30
0.0
 10
249.4066
 20
-331.8174
 30
0.0
 10
249.4066
 20
-331.8174
 30
0.0
 10
382.6408
 20
-341.7513
 30
0.0
 10
382.6408
 20
-341.7513
 30
0.0
 10
382.6408
 20
-341.7513
 30
0.0
 10
382.6408
 20
-405.8701
 30
0.0
 10
382.6408
 20
-405.8701
 30
0.0
 10
382.6408
 20
-405.8701
 30
0.0
 10
249.4066
 20
-509.7244
 30
0.0
 10
249.4066
 20
-509.7244
 30
0.0
  0
SPLINE
  5
96
330
1F
100
AcDbEntity
  8
Layer 1
 62
   250
370
    20
100
AcDbSpline
210
0.0
220
0.0
230
1.0
 70
    11
 71
     3
 72
    17
 73
    13
 74
     0
 42
0.0000000001
 43
0.0000000001
 40
0.0
 40
0.0
 40
0.0
 40
0.0
 40
0.25
 40
0.25
 40
0.25
 40
0.5
 40
0.5
 40
0.5
 40
0.75
 40
0.75
 40
0.75
 40
1.0
 40
1.0
 40
1.0
 40
1.0
 10
420.4008
 20
-586.7443
 30
0.0
 10
420.4008
 20
-586.7443
 30
0.0
 10
420.4008
 20
-486.0253
 30
0.0
 10
420.4008
 20
-486.0253
 30
0.0
 10
420.4008
 20
-486.0253
 30
0.0
 10
517.6133
 20
-519.2982
 30
0.0
 10
517.6133
 20
-519.2982
 30
0.0
 10
517.6133
 20
-519.2982
 30
0.0
 10
542.8889
 20
-586.7443
 30
0.0
 10
542.8889
 20
-586.7443
 30
0.0
 10
542.8889
 20
-586.7443
 30
0.0
 10
420.4008
 20
-586.7443
 30
0.0
 10
420.4008
 20
-586.7443
 30
0.0
  0
SPLINE
  5
97
330
1F
100
AcDbEntity
  8
Layer 1
 62
   250
370
    20
100
AcDbSpline
210
0.0
220
0.0
230
1.0
 70
    11
 71
     3
 72
    14
 73
    10
 74
     0
 42
0.0000000001
 43
0.0000000001
 40
0.0
 40
0.0
 40
0.0
 40
0.0
 40
0.3333333333333333
 40
0.3333333333333333
 40
0.3333333333333333
 40
0.6666666666666666
 40
0.6666666666666666
 40
0.6666666666666666
 40
1.0
 40
1.0
 40
1.0
 40
1.0
 10
420.4008
 20
-441.0602
 30
0.0
 10
420.4008
 20
-441.0602
 30
0.0
 10
420.4008
 20
-276.4865
 30
0.0
 10
420.4008
 20
-276.4865
 30
0.0
 10
420.4008
 20
-276.4865
 30
0.0
 10
497.1937
 20
-471.636
 30
0.0
 10
497.1937
 20
-471.636
 30
0.0
 10
497.1937
 20
-471.636
 30
0.0
 10
420.4008
 20
-441.0602
 30
0.0
 10
420.4008
 20
-441.0602
 30
0.0
  0
SPLINE
  5
98
330
1F
100
AcDbEntity
  8
Layer 1
 62
   250
370
    20
100
AcDbSpline
210
0.0
220
0.0
230
1.0
 70
    11
 71
     3
 72
    17
 73
    13
 74
     0
 42
0.0000000001
 43
0.0000000001
 40
0.0
 40
0.0
 40
0.0
 40
0.0
 40
0.25
 40
0.25
 40
0.25
 40
0.5
 40
0.5
 40
0.5
 40
0.75
 40
0.75
 40
0.75
 40
1.0
 40
1.0
 40
1.0
 40
1.0
 10
423.7545
 20
-213.6428
 30
0.0
 10
423.7545
 20
-213.6428
 30
0.0
 10
423.7545
 20
-75.1503
 30
0.0
 10
423.7545
 20
-75.1503
 30
0.0
 10
423.7545
 20
-75.1503
 30
0.0
 10
430.5621
 20
-67.0586
 30
0.0
 10
430.5621
 20
-67.0586
 30
0.0
 10
430.5621
 20
-67.0586
 30
0.0
 10
484.0244
 20
-158.7859
 30
0.0
 10
484.0244
 20
-158.7859
 30
0.0
 10
484.0244
 20
-158.7859
 30
0.0
 10
423.7545
 20
-213.6428
 30
0.0
 10
423.7545
 20
-213.6428
 30
0.0
  0
SPLINE
  5
99
330
1F
100
AcDbEntity
  8
Layer 1
 62
   250
370
    20
100
AcDbSpline
210
0.0
220
0.0
230
1.0
 70
    11
 71
     3
 72
    17
 73
    13
 74
     0
 42
0.0000000001
 43
0.0000000001
 40
0.0
 40
0.0
 40
0.0
 40
0.0
 40
0.25
 40
0.25
 40
0.25
 40
0.5
 40
0.5
 40
0.5
 40
0.75
 40
0.75
 40
0.75
 40
1.0
 40
1.0
 40
1.0
 40
1.0
 10
423.9354
 20
-10.6986
 30
0.0
 10
423.9354
 20
-10.6986
 30
0.0
 10
422.1649
 20
263.16
 30
0.0
 10
422.1649
 20
263.16
 30
0.0
 10
422.1649
 20
263.16
 30
0.0
 10
496.8448
 20
238.4078
 30
0.0
 10
496.8448
 20
238.4078
 30
0.0
 10
496.8448
 20
238.4078
 30
0.0
 10
534.7567
 20
106.2099
 30
0.0
 10
534.7567
 20
106.2099
 30
0.0
 10
534.7567
 20
106.2099
 30
0.0
 10
423.9354
 20
-10.6986
 30
0.0
 10
423.9354
 20
-10.6986
 30
0.0
  0
SPLINE
  5
9A
330
1F
100
AcDbEntity
  8
Layer 1
 62
   250
370
    20
100
AcDbSpline
210
0.0
220
0.0
230
1.0
 70
    11
 71
     3
 72
    17
 73
    13
 74
     0
 42
0.0000000001
 43
0.0000000001
 40
0.0
 40
0.0
 40
0.0
 40
0.0
 40
0.25
 40
0.25
 40
0.25
 40
0.5
 40
0.5
 40
0.5
 40
0.75
 40
0.75
 40
0.75
 40
1.0
 40
1.0
 40
1.0
 40
1.0
 10
424.3328
 20
311.8394
 30
0.0
 10
424.3328
 20
311.8394
 30
0.0
 10
424.3328
 20
411.6614
 30
0.0
 10
424.3328
 20
411.6614
 30
0.0
 10
424.3328
 20
411.6614
 30
0.0
 10
448.6327
 20
401.7695
 30
0.0
 10
448.6327
 20
401.7695
 30
0.0
 10
448.6327
 20
401.7695
 30
0.0
 10
483.6303
 20
285.7611
 30
0.0
 10
483.6303
 20
285.7611
 30
0.0
 10
483.6303
 20
285.7611
 30
0.0
 10
424.3328
 20
311.8394
 30
0.0
 10
424.3328
 20
311.8394
 30
0.0
  0
SPLINE
  5
9B
330
1F
100
AcDbEntity
  8
Layer 1
 62
   250
370
    20
100
AcDbSpline
210
0.0
220
0.0
230
1.0
 70
    11
 71
     3
 72
    20
 73
    16
 74
     0
 42
0.0000000001
 43
0.0000000001
 40
0.0
 40
0.0
 40
0.0
 40
0.0
 40
0.2
 40
0.2
 40
0.2
 40
0.4
 40
0.4
 40
0.4
 40
0.6000000000000001
 40
0.6000000000000001
 40
0.6000000000000001
 40
0.8
 40
0.8
 40
0.8
 40
1.0
 40
1.0
 40
1.0
 40
1.0
 10
420.4008
 20
467.2293
 30
0.0
 10
420.4008
 20
467.2293
 30
0.0
 10
420.4008
 20
584.1379
 30
0.0
 10
420.4008
 20
584.1379
 30
0.0
 10
420.4008
 20
584.1379
 30
0.0
 10
519.5551
 20
584.1379
 30
0.0
 10
519.5551
 20
584.1379
 30
0.0
 10
519.5551
 20
584.1379
 30
0.0
 10
686.7594
 20
425.8616
 30
0.0
 10
686.7594
 20
425.8616
 30
0.0
 10
686.7594
 20
425.8616
 30
0.0
 10
636.2081
 20
345.8265
 30
0.0
 10
636.2081
 20
345.8265
 30
0.0
 10
636.2081
 20
345.8265
 30
0.0
 10
420.4008
 20
467.2293
 30
0.0
 10
420.4008
 20
467.2293
 30
0.0
  0
SPLINE
  5
9C
330
1F
100
AcDbEntity
  8
Layer 1
 62
   250
370
    20
100
AcDbSpline
210
0.0
220
0.0
230
1.0
 70
    11
 71
     3
 72
    32
 73
    28
 74
     0
 42
0.0000000001
 43
0.0000000001
 40
0.0
 40
0.0
 40
0.0
 40
0.0
 40
0.1111111111111111
 40
0.1111111111111111
 40
0.1111111111111111
 40
0.2222222222222222
 40
0.2222222222222222
 40
0.2222222222222222
 40
0.3333333333333333
 40
0.3333333333333333
 40
0.3333333333333333
 40
0.4444444444444444
 40
0.4444444444444444
 40
0.4444444444444444
 40
0.5555555555555556
 40
0.5555555555555556
 40
0.5555555555555556
 40
0.6666666666666666
 40
0.6666666666666666
 40
0.6666666666666666
 40
0.7777777777777777
 40
0.7777777777777777
 40
0.7777777777777777
 40
0.8888888888888888
 40
0.8888888888888888
 40
0.8888888888888888
 40
1.0
 40
1.0
 40
1.0
 40
1.0
 10
568.7817
 20
137.9288
 30
0.0
 10
568.7817
 20
137.9288
 30
0.0
 10
499.7624
 20
374.446
 30
0.0
 10
499.7624
 20
374.446
 30
0.0
 10
499.7624
 20
374.446
 30
0.0
 10
760.7544
 20
227.3698
 30
0.0
 10
760.7544
 20
227.3698
 30
0.0
 10
760.7544
 20
227.3698
 30
0.0
 10
916.182
 20
337.7317
 30
0.0
 10
916.182
 20
337.7317
 30
0.0
 10
916.182
 20
337.7317
 30
0.0
 10
986.1771
 20
258.5936
 30
0.0
 10
986.1771
 20
258.5936
 30
0.0
 10
986.1771
 20
258.5936
 30
0.0
 10
936.6144
 20
215.5998
 30
0.0
 10
936.6144
 20
215.5998
 30
0.0
 10
844.5714
 20
216.5088
 30
0.0
 10
753.9016
 20
218.8671
 30
0.0
 10
662.1041
 20
218.8671
 30
0.0
 10
662.1041
 20
218.8671
 30
0.0
 10
638.7736
 20
195.486
 30
0.0
 10
638.7736
 20
195.486
 30
0.0
 10
638.7736
 20
195.486
 30
0.0
 10
638.7736
 20
189.1914
 30
0.0
 10
638.7736
 20
189.1914
 30
0.0
 10
638.7736
 20
189.1914
 30
0.0
 10
568.7817
 20
137.9288
 30
0.0
 10
568.7817
 20
137.9288
 30
0.0
  0
SPLINE
  5
9D
330
1F
100
AcDbEntity
  8
Layer 1
 62
   250
370
    20
100
AcDbSpline
210
0.0
220
0.0
230
1.0
 70
    11
 71
     3
 72
    14
 73
    10
 74
     0
 42
0.0000000001
 43
0.0000000001
 40
0.0
 40
0.0
 40
0.0
 40
0.0
 40
0.3333333333333333
 40
0.3333333333333333
 40
0.3333333333333333
 40
0.6666666666666666
 40
0.6666666666666666
 40
0.6666666666666666
 40
1.0
 40
1.0
 40
1.0
 40
1.0
 10
577.4826
 20
95.67
 30
0.0
 10
577.4826
 20
95.67
 30
0.0
 10
634.7801
 20
141.5231
 30
0.0
 10
634.7801
 20
141.5231
 30
0.0
 10
634.7801
 20
141.5231
 30
0.0
 10
636.7251
 20
-103.6349
 30
0.0
 10
636.7251
 20
-103.6349
 30
0.0
 10
636.7251
 20
-103.6349
 30
0.0
 10
577.4826
 20
95.67
 30
0.0
 10
577.4826
 20
95.67
 30
0.0
  0
SPLINE
  5
9E
330
1F
100
AcDbEntity
  8
Layer 1
 62
   250
370
    20
100
AcDbSpline
210
0.0
220
0.0
230
1.0
 70
    11
 71
     3
 72
    17
 73
    13
 74
     0
 42
0.0000000001
 43
0.0000000001
 40
0.0
 40
0.0
 40
0.0
 40
0.0
 40
0.25
 40
0.25
 40
0.25
 40
0.5
 40
0.5
 40
0.5
 40
0.75
 40
0.75
 40
0.75
 40
1.0
 40
1.0
 40
1.0
 40
1.0
 10
556.5946
 20
-191.6148
 30
0.0
 10
556.5946
 20
-191.6148
 30
0.0
 10
460.3546
 20
-27.9411
 30
0.0
 10
460.3546
 20
-27.9411
 30
0.0
 10
460.3546
 20
-27.9411
 30
0.0
 10
547.8452
 20
63.7861
 30
0.0
 10
547.8452
 20
63.7861
 30
0.0
 10
547.8452
 20
63.7861
 30
0.0
 10
600.3415
 20
-125.9659
 30
0.0
 10
600.3415
 20
-125.9659
 30
0.0
 10
600.3415
 20
-125.9659
 30
0.0
 10
556.5946
 20
-191.6148
 30
0.0
 10
556.5946
 20
-191.6148
 30
0.0
  0
SPLINE
  5
9F
330
1F
100
AcDbEntity
  8
Layer 1
 62
   250
370
    20
100
AcDbSpline
210
0.0
220
0.0
230
1.0
 70
    11
 71
     3
 72
    17
 73
    13
 74
     0
 42
0.0000000001
 43
0.0000000001
 40
0.0
 40
0.0
 40
0.0
 40
0.0
 40
0.25
 40
0.25
 40
0.25
 40
0.5
 40
0.5
 40
0.5
 40
0.75
 40
0.75
 40
0.75
 40
1.0
 40
1.0
 40
1.0
 40
1.0
 10
519.5551
 20
-403.2898
 30
0.0
 10
519.5551
 20
-403.2898
 30
0.0
 10
451.5083
 20
-232.4215
 30
0.0
 10
451.5083
 20
-232.4215
 30
0.0
 10
451.5083
 20
-232.4215
 30
0.0
 10
501.0871
 20
-188.3565
 30
0.0
 10
501.0871
 20
-188.3565
 30
0.0
 10
501.0871
 20
-188.3565
 30
0.0
 10
615.7984
 20
-377.2085
 30
0.0
 10
615.7984
 20
-377.2085
 30
0.0
 10
615.7984
 20
-377.2085
 30
0.0
 10
519.5551
 20
-403.2898
 30
0.0
 10
519.5551
 20
-403.2898
 30
0.0
  0
SPLINE
  5
A0
330
1F
100
AcDbEntity
  8
Layer 1
 62
   250
370
    20
100
AcDbSpline
210
0.0
220
0.0
230
1.0
 70
    11
 71
     3
 72
    26
 73
    22
 74
     0
 42
0.0000000001
 43
0.0000000001
 40
0.0
 40
0.0
 40
0.0
 40
0.0
 40
0.1428571428571428
 40
0.1428571428571428
 40
0.1428571428571428
 40
0.2857142857142857
 40
0.2857142857142857
 40
0.2857142857142857
 40
0.4285714285714285
 40
0.4285714285714285
 40
0.4285714285714285
 40
0.5714285714285714
 40
0.5714285714285714
 40
0.5714285714285714
 40
0.7142857142857142
 40
0.7142857142857142
 40
0.7142857142857142
 40
0.8571428571428571
 40
0.8571428571428571
 40
0.8571428571428571
 40
1.0
 40
1.0
 40
1.0
 40
1.0
 10
657.597
 20
-362.8192
 30
0.0
 10
657.597
 20
-362.8192
 30
0.0
 10
579.8283
 20
-232.4215
 30
0.0
 10
579.8283
 20
-232.4215
 30
0.0
 10
579.8283
 20
-232.4215
 30
0.0
 10
634.2664
 20
-138.8941
 30
0.0
 10
634.2664
 20
-138.8941
 30
0.0
 10
634.2664
 20
-138.8941
 30
0.0
 10
634.2664
 20
-200.9457
 30
0.0
 10
634.2664
 20
-200.9457
 30
0.0
 10
634.2664
 20
-200.9457
 30
0.0
 10
654.6891
 20
-217.1351
 30
0.0
 10
654.6891
 20
-217.1351
 30
0.0
 10
654.6891
 20
-217.1351
 30
0.0
 10
804.3269
 20
-217.2221
 30
0.0
 10
804.3269
 20
-217.2221
 30
0.0
 10
804.3269
 20
-217.2221
 30
0.0
 10
800.4982
 20
-322.3515
 30
0.0
 10
800.4982
 20
-322.3515
 30
0.0
 10
800.4982
 20
-322.3515
 30
0.0
 10
657.597
 20
-362.8192
 30
0.0
 10
657.597
 20
-362.8192
 30
0.0
  0
SPLINE
  5
A1
330
1F
100
AcDbEntity
  8
Layer 1
 62
   250
370
    20
100
AcDbSpline
210
0.0
220
0.0
230
1.0
 70
    11
 71
     3
 72
    20
 73
    16
 74
     0
 42
0.0000000001
 43
0.0000000001
 40
0.0
 40
0.0
 40
0.0
 40
0.0
 40
0.2
 40
0.2
 40
0.2
 40
0.4
 40
0.4
 40
0.4
 40
0.6000000000000001
 40
0.6000000000000001
 40
0.6000000000000001
 40
0.8
 40
0.8
 40
0.8
 40
1.0
 40
1.0
 40
1.0
 40
1.0
 10
592.9297
 20
-589.8766
 30
0.0
 10
592.9297
 20
-589.8766
 30
0.0
 10
651.2547
 20
-589.8766
 30
0.0
 10
651.2547
 20
-589.8766
 30
0.0
 10
651.2547
 20
-589.8766
 30
0.0
 10
798.0459
 20
-526.0249
 30
0.0
 10
798.0459
 20
-526.0249
 30
0.0
 10
798.0459
 20
-526.0249
 30
0.0
 10
801.9327
 20
-370.4459
 30
0.0
 10
801.9327
 20
-370.4459
 30
0.0
 10
801.9327
 20
-370.4459
 30
0.0
 10
533.6291
 20
-448.6869
 30
0.0
 10
533.6291
 20
-448.6869
 30
0.0
 10
533.6291
 20
-448.6869
 30
0.0
 10
592.9297
 20
-589.8766
 30
0.0
 10
592.9297
 20
-589.8766
 30
0.0
  0
SPLINE
  5
A2
330
1F
100
AcDbEntity
  8
Layer 1
 62
   250
370
    20
100
AcDbSpline
210
0.0
220
0.0
230
1.0
 70
    11
 71
     3
 72
    35
 73
    31
 74
     0
 42
0.0000000001
 43
0.0000000001
 40
0.0
 40
0.0
 40
0.0
 40
0.0
 40
0.1
 40
0.1
 40
0.1
 40
0.2
 40
0.2
 40
0.2
 40
0.3
 40
0.3
 40
0.3
 40
0.4
 40
0.4
 40
0.4
 40
0.5
 40
0.5
 40
0.5
 40
0.6000000000000001
 40
0.6000000000000001
 40
0.6000000000000001
 40
0.7000000000000001
 40
0.7000000000000001
 40
0.7000000000000001
 40
0.8
 40
0.8
 40
0.8
 40
0.9
 40
0.9
 40
0.9
 40
1.0
 40
1.0
 40
1.0
 40
1.0
 10
843.0206
 20
-383.6291
 30
0.0
 10
843.0206
 20
-383.6291
 30
0.0
 10
948.01
 20
-257.7257
 30
0.0
 10
948.01
 20
-257.7257
 30
0.0
 10
948.01
 20
-257.7257
 30
0.0
 10
987.8669
 20
-257.7257
 30
0.0
 10
987.8669
 20
-257.7257
 30
0.0
 10
987.8669
 20
-257.7257
 30
0.0
 10
1013.1425
 20
-228.9502
 30
0.0
 10
1013.1425
 20
-228.9502
 30
0.0
 10
1013.1425
 20
-228.9502
 30
0.0
 10
1011.1975
 20
-178.5877
 30
0.0
 10
1011.1975
 20
-178.5877
 30
0.0
 10
1011.1975
 20
-178.5877
 30
0.0
 10
1095.7738
 20
-72.4711
 30
0.0
 10
1095.7738
 20
-72.4711
 30
0.0
 10
1095.7738
 20
-72.4711
 30
0.0
 10
981.0593
 20
15.6588
 30
0.0
 10
981.0593
 20
15.6588
 30
0.0
 10
981.0593
 20
15.6588
 30
0.0
 10
980.09
 20
-194.7771
 30
0.0
 10
980.09
 20
-194.7771
 30
0.0
 10
980.09
 20
-194.7771
 30
0.0
 10
954.8175
 20
-219.0553
 30
0.0
 10
954.8175
 20
-219.0553
 30
0.0
 10
954.8175
 20
-219.0553
 30
0.0
 10
843.0206
 20
-219.0553
 30
0.0
 10
843.0206
 20
-219.0553
 30
0.0
 10
843.0206
 20
-219.0553
 30
0.0
 10
843.0206
 20
-383.6291
 30
0.0
 10
843.0206
 20
-383.6291
 30
0.0
  0
SPLINE
  5
A3
330
1F
100
AcDbEntity
  8
Layer 1
 62
   250
370
    20
100
AcDbSpline
210
0.0
220
0.0
230
1.0
 70
    11
 71
     3
 72
    20
 73
    16
 74
     0
 42
0.0000000001
 43
0.0000000001
 40
0.0
 40
0.0
 40
0.0
 40
0.0
 40
0.2
 40
0.2
 40
0.2
 40
0.4
 40
0.4
 40
0.4
 40
0.6000000000000001
 40
0.6000000000000001
 40
0.6000000000000001
 40
0.8
 40
0.8
 40
0.8
 40
1.0
 40
1.0
 40
1.0
 40
1.0
 10
1118.4905
 20
-39.5461
 30
0.0
 10
1118.4905
 20
-39.5461
 30
0.0
 10
978.5036
 20
73.765
 30
0.0
 10
978.5036
 20
73.765
 30
0.0
 10
978.5036
 20
73.765
 30
0.0
 10
979.4729
 20
191.5736
 30
0.0
 10
979.4729
 20
191.5736
 30
0.0
 10
979.4729
 20
191.5736
 30
0.0
 10
1017.3912
 20
225.7467
 30
0.0
 10
1017.3912
 20
225.7467
 30
0.0
 10
1017.3912
 20
225.7467
 30
0.0
 10
1189.4549
 20
46.7866
 30
0.0
 10
1189.4549
 20
46.7866
 30
0.0
 10
1189.4549
 20
46.7866
 30
0.0
 10
1118.4905
 20
-39.5461
 30
0.0
 10
1118.4905
 20
-39.5461
 30
0.0
  0
SPLINE
  5
A4
330
1F
100
AcDbEntity
  8
Layer 1
 62
   250
370
    20
100
AcDbSpline
210
0.0
220
0.0
230
1.0
 70
    11
 71
     3
 72
    17
 73
    13
 74
     0
 42
0.0000000001
 43
0.0000000001
 40
0.0
 40
0.0
 40
0.0
 40
0.0
 40
0.25
 40
0.25
 40
0.25
 40
0.5
 40
0.5
 40
0.5
 40
0.75
 40
0.75
 40
0.75
 40
1.0
 40
1.0
 40
1.0
 40
1.0
 10
761.6139
 20
275.6802
 30
0.0
 10
761.6139
 20
275.6802
 30
0.0
 10
672.1782
 20
326.9398
 30
0.0
 10
672.1782
 20
326.9398
 30
0.0
 10
672.1782
 20
326.9398
 30
0.0
 10
774.2565
 20
487.0161
 30
0.0
 10
774.2565
 20
487.0161
 30
0.0
 10
774.2565
 20
487.0161
 30
0.0
 10
887.992
 20
363.8101
 30
0.0
 10
887.992
 20
363.8101
 30
0.0
 10
887.992
 20
363.8101
 30
0.0
 10
761.6139
 20
275.6802
 30
0.0
 10
761.6139
 20
275.6802
 30
0.0
  0
SPLINE
  5
A5
330
1F
100
AcDbEntity
  8
Layer 1
 62
   250
370
    20
100
AcDbSpline
210
0.0
220
0.0
230
1.0
 70
    11
 71
     3
 72
    14
 73
    10
 74
     0
 42
0.0000000001
 43
0.0000000001
 40
0.0
 40
0.0
 40
0.0
 40
0.0
 40
0.3333333333333333
 40
0.3333333333333333
 40
0.3333333333333333
 40
0.6666666666666666
 40
0.6666666666666666
 40
0.6666666666666666
 40
1.0
 40
1.0
 40
1.0
 40
1.0
 10
582.7458
 20
584.1379
 30
0.0
 10
582.7458
 20
584.1379
 30
0.0
 10
620.6544
 20
584.1379
 30
0.0
 10
620.6544
 20
584.1379
 30
0.0
 10
620.6544
 20
584.1379
 30
0.0
 10
612.8808
 20
545.4704
 30
0.0
 10
612.8808
 20
545.4704
 30
0.0
 10
612.8808
 20
545.4704
 30
0.0
 10
582.7458
 20
584.1379
 30
0.0
 10
582.7458
 20
584.1379
 30
0.0
  0
SPLINE
  5
A6
330
1F
100
AcDbEntity
  8
Layer 1
 62
   250
370
    20
100
AcDbSpline
210
0.0
220
0.0
230
1.0
 70
    11
 71
     3
 72
    17
 73
    13
 74
     0
 42
0.0000000001
 43
0.0000000001
 40
0.0
 40
0.0
 40
0.0
 40
0.0
 40
0.25
 40
0.25
 40
0.25
 40
0.5
 40
0.5
 40
0.5
 40
0.75
 40
0.75
 40
0.75
 40
1.0
 40
1.0
 40
1.0
 40
1.0
 10
649.8201
 20
518.489
 30
0.0
 10
649.8201
 20
518.489
 30
0.0
 10
657.597
 20
585.038
 30
0.0
 10
657.597
 20
585.038
 30
0.0
 10
657.597
 20
585.038
 30
0.0
 10
787.862
 20
584.1379
 30
0.0
 10
787.862
 20
584.1379
 30
0.0
 10
787.862
 20
584.1379
 30
0.0
 10
711.0658
 20
460.9348
 30
0.0
 10
711.0658
 20
460.9348
 30
0.0
 10
711.0658
 20
460.9348
 30
0.0
 10
649.8201
 20
518.489
 30
0.0
 10
649.8201
 20
518.489
 30
0.0
  0
SPLINE
  5
A7
330
1F
100
AcDbEntity
  8
Layer 1
 62
   250
370
    20
100
AcDbSpline
210
0.0
220
0.0
230
1.0
 70
    11
 71
     3
 72
    20
 73
    16
 74
     0
 42
0.0000000001
 43
0.0000000001
 40
0.0
 40
0.0
 40
0.0
 40
0.0
 40
0.2
 40
0.2
 40
0.2
 40
0.4
 40
0.4
 40
0.4
 40
0.6000000000000001
 40
0.6000000000000001
 40
0.6000000000000001
 40
0.8
 40
0.8
 40
0.8
 40
1.0
 40
1.0
 40
1.0
 40
1.0
 10
798.4498
 20
522.6804
 30
0.0
 10
798.4498
 20
522.6804
 30
0.0
 10
838.3066
 20
582.9318
 30
0.0
 10
838.3066
 20
582.9318
 30
0.0
 10
838.3066
 20
582.9318
 30
0.0
 10
850.9461
 20
582.0317
 30
0.0
 10
850.9461
 20
582.0317
 30
0.0
 10
850.9461
 20
582.0317
 30
0.0
 10
1094.9466
 20
400.3743
 30
0.0
 10
1094.9466
 20
400.3743
 30
0.0
 10
1094.9466
 20
400.3743
 30
0.0
 10
1014.2636
 20
290.6605
 30
0.0
 10
1014.2636
 20
290.6605
 30
0.0
 10
1014.2636
 20
290.6605
 30
0.0
 10
798.4498
 20
522.6804
 30
0.0
 10
798.4498
 20
522.6804
 30
0.0
  0
SPLINE
  5
A8
330
1F
100
AcDbEntity
  8
Layer 1
 62
   250
370
    20
100
AcDbSpline
210
0.0
220
0.0
230
1.0
 70
    11
 71
     3
 72
    17
 73
    13
 74
     0
 42
0.0000000001
 43
0.0000000001
 40
0.0
 40
0.0
 40
0.0
 40
0.0
 40
0.25
 40
0.25
 40
0.25
 40
0.5
 40
0.5
 40
0.5
 40
0.75
 40
0.75
 40
0.75
 40
1.0
 40
1.0
 40
1.0
 40
1.0
 10
1032.8351
 20
498.7052
 30
0.0
 10
1032.8351
 20
498.7052
 30
0.0
 10
919.0996
 20
584.1379
 30
0.0
 10
919.0996
 20
584.1379
 30
0.0
 10
919.0996
 20
584.1379
 30
0.0
 10
1110.6038
 20
583.2408
 30
0.0
 10
1110.6038
 20
583.2408
 30
0.0
 10
1110.6038
 20
583.2408
 30
0.0
 10
1109.6313
 20
504.9998
 30
0.0
 10
1109.6313
 20
504.9998
 30
0.0
 10
1109.6313
 20
504.9998
 30
0.0
 10
1032.8351
 20
498.7052
 30
0.0
 10
1032.8351
 20
498.7052
 30
0.0
  0
SPLINE
  5
A9
330
1F
100
AcDbEntity
  8
Layer 1
 62
   250
370
    20
100
AcDbSpline
210
0.0
220
0.0
230
1.0
 70
    11
 71
     3
 72
    17
 73
    13
 74
     0
 42
0.0000000001
 43
0.0000000001
 40
0.0
 40
0.0
 40
0.0
 40
0.0
 40
0.25
 40
0.25
 40
0.25
 40
0.5
 40
0.5
 40
0.5
 40
0.75
 40
0.75
 40
0.75
 40
1.0
 40
1.0
 40
1.0
 40
1.0
 10
1152.4444
 20
511.4413
 30
0.0
 10
1152.4444
 20
511.4413
 30
0.0
 10
1152.3799
 20
581.3296
 30
0.0
 10
1152.3799
 20
581.3296
 30
0.0
 10
1152.3799
 20
581.3296
 30
0.0
 10
1194.1785
 20
581.3296
 30
0.0
 10
1194.1785
 20
581.3296
 30
0.0
 10
1194.1785
 20
581.3296
 30
0.0
 10
1196.2528
 20
514.2676
 30
0.0
 10
1196.2528
 20
514.2676
 30
0.0
 10
1196.2528
 20
514.2676
 30
0.0
 10
1152.4444
 20
511.4413
 30
0.0
 10
1152.4444
 20
511.4413
 30
0.0
  0
SPLINE
  5
AA
330
1F
100
AcDbEntity
  8
Layer 1
 62
   250
370
    20
100
AcDbSpline
210
0.0
220
0.0
230
1.0
 70
    11
 71
     3
 72
    14
 73
    10
 74
     0
 42
0.0000000001
 43
0.0000000001
 40
0.0
 40
0.0
 40
0.0
 40
0.0
 40
0.3333333333333333
 40
0.3333333333333333
 40
0.3333333333333333
 40
0.6666666666666666
 40
0.6666666666666666
 40
0.6666666666666666
 40
1.0
 40
1.0
 40
1.0
 40
1.0
 10
1094.9628
 20
458.2375
 30
0.0
 10
1094.9628
 20
458.2375
 30
0.0
 10
1198.9797
 20
470.8267
 30
0.0
 10
1198.9797
 20
470.8267
 30
0.0
 10
1198.9797
 20
470.8267
 30
0.0
 10
1199.9489
 20
380.8966
 30
0.0
 10
1199.9489
 20
380.8966
 30
0.0
 10
1199.9489
 20
380.8966
 30
0.0
 10
1094.9628
 20
458.2375
 30
0.0
 10
1094.9628
 20
458.2375
 30
0.0
  0
SPLINE
  5
AB
330
1F
100
AcDbEntity
  8
Layer 1
 62
   250
370
    20
100
AcDbSpline
210
0.0
220
0.0
230
1.0
 70
    11
 71
     3
 72
    17
 73
    13
 74
     0
 42
0.0000000001
 43
0.0000000001
 40
0.0
 40
0.0
 40
0.0
 40
0.0
 40
0.25
 40
0.25
 40
0.25
 40
0.5
 40
0.5
 40
0.5
 40
0.75
 40
0.75
 40
0.75
 40
1.0
 40
1.0
 40
1.0
 40
1.0
 10
1131.4854
 20
378.8804
 30
0.0
 10
1131.4854
 20
378.8804
 30
0.0
 10
1195.6453
 20
333.9154
 30
0.0
 10
1195.6453
 20
333.9154
 30
0.0
 10
1195.6453
 20
333.9154
 30
0.0
 10
1196.6179
 20
97.4012
 30
0.0
 10
1196.6179
 20
97.4012
 30
0.0
 10
1196.6179
 20
97.4012
 30
0.0
 10
1043.0222
 20
267.3694
 30
0.0
 10
1043.0222
 20
267.3694
 30
0.0
 10
1043.0222
 20
267.3694
 30
0.0
 10
1131.4854
 20
378.8804
 30
0.0
 10
1131.4854
 20
378.8804
 30
0.0
  0
SPLINE
  5
AC
330
1F
100
AcDbEntity
  8
Layer 1
 62
   250
370
    20
100
AcDbSpline
210
0.0
220
0.0
230
1.0
 70
    11
 71
     3
 72
    14
 73
    10
 74
     0
 42
0.0000000001
 43
0.0000000001
 40
0.0
 40
0.0
 40
0.0
 40
0.0
 40
0.3333333333333333
 40
0.3333333333333333
 40
0.3333333333333333
 40
0.6666666666666666
 40
0.6666666666666666
 40
0.6666666666666666
 40
1.0
 40
1.0
 40
1.0
 40
1.0
 10
982.5326
 20
-280.8278
 30
0.0
 10
982.5326
 20
-280.8278
 30
0.0
 10
1198.3399
 20
-12.8377
 30
0.0
 10
1198.3399
 20
-12.8377
 30
0.0
 10
1198.3399
 20
-12.8377
 30
0.0
 10
1198.3399
 20
-303.3089
 30
0.0
 10
1198.3399
 20
-303.3089
 30
0.0
 10
1198.3399
 20
-303.3089
 30
0.0
 10
982.5326
 20
-280.8278
 30
0.0
 10
982.5326
 20
-280.8278
 30
0.0
  0
SPLINE
  5
AD
330
1F
100
AcDbEntity
  8
Layer 1
 62
   250
370
    20
100
AcDbSpline
210
0.0
220
0.0
230
1.0
 70
    11
 71
     3
 72
    20
 73
    16
 74
     0
 42
0.0000000001
 43
0.0000000001
 40
0.0
 40
0.0
 40
0.0
 40
0.0
 40
0.2
 40
0.2
 40
0.2
 40
0.4
 40
0.4
 40
0.4
 40
0.6000000000000001
 40
0.6000000000000001
 40
0.6000000000000001
 40
0.8
 40
0.8
 40
0.8
 40
1.0
 40
1.0
 40
1.0
 40
1.0
 10
841.893
 20
-506.9852
 30
0.0
 10
841.893
 20
-506.9852
 30
0.0
 10
842.8623
 20
-452.1282
 30
0.0
 10
842.8623
 20
-452.1282
 30
0.0
 10
842.8623
 20
-452.1282
 30
0.0
 10
943.9649
 20
-323.5277
 30
0.0
 10
943.9649
 20
-323.5277
 30
0.0
 10
943.9649
 20
-323.5277
 30
0.0
 10
1026.5929
 20
-330.7223
 30
0.0
 10
1026.5929
 20
-330.7223
 30
0.0
 10
1026.5929
 20
-330.7223
 30
0.0
 10
1025.0259
 20
-428.7171
 30
0.0
 10
1025.0259
 20
-428.7171
 30
0.0
 10
1025.0259
 20
-428.7171
 30
0.0
 10
841.893
 20
-506.9852
 30
0.0
 10
841.893
 20
-506.9852
 30
0.0
  0
SPLINE
  5
AE
330
1F
100
AcDbEntity
  8
Layer 1
 62
   250
370
    20
100
AcDbSpline
210
0.0
220
0.0
230
1.0
 70
    11
 71
     3
 72
    14
 73
    10
 74
     0
 42
0.0000000001
 43
0.0000000001
 40
0.0
 40
0.0
 40
0.0
 40
0.0
 40
0.3333333333333333
 40
0.3333333333333333
 40
0.3333333333333333
 40
0.6666666666666666
 40
0.6666666666666666
 40
0.6666666666666666
 40
1.0
 40
1.0
 40
1.0
 40
1.0
 10
762.0597
 20
-589.2855
 30
0.0
 10
762.0597
 20
-589.2855
 30
0.0
 10
1016.7514
 20
-589.2855
 30
0.0
 10
1016.7514
 20
-589.2855
 30
0.0
 10
1016.7514
 20
-589.2855
 30
0.0
 10
1021.614
 20
-473.2771
 30
0.0
 10
1021.614
 20
-473.2771
 30
0.0
 10
1021.614
 20
-473.2771
 30
0.0
 10
762.0597
 20
-589.2855
 30
0.0
 10
762.0597
 20
-589.2855
 30
0.0
  0
SPLINE
  5
AF
330
1F
100
AcDbEntity
  8
Layer 1
 62
   250
370
    20
100
AcDbSpline
210
0.0
220
0.0
230
1.0
 70
    11
 71
     3
 72
    17
 73
    13
 74
     0
 42
0.0000000001
 43
0.0000000001
 40
0.0
 40
0.0
 40
0.0
 40
0.0
 40
0.25
 40
0.25
 40
0.25
 40
0.5
 40
0.5
 40
0.5
 40
0.75
 40
0.75
 40
0.75
 40
1.0
 40
1.0
 40
1.0
 40
1.0
 10
1058.3756
 20
-590.0266
 30
0.0
 10
1058.3756
 20
-590.0266
 30
0.0
 10
1197.39
 20
-590.0266
 30
0.0
 10
1197.39
 20
-590.0266
 30
0.0
 10
1197.39
 20
-590.0266
 30
0.0
 10
1197.39
 20
-456.9317
 30
0.0
 10
1197.39
 20
-456.9317
 30
0.0
 10
1197.39
 20
-456.9317
 30
0.0
 10
1058.3756
 20
-563.9482
 30
0.0
 10
1058.3756
 20
-563.9482
 30
0.0
 10
1058.3756
 20
-563.9482
 30
0.0
 10
1058.3756
 20
-590.0266
 30
0.0
 10
1058.3756
 20
-590.0266
 30
0.0
  0
SPLINE
  5
B0
330
1F
100
AcDbEntity
  8
Layer 1
 62
   250
370
    20
100
AcDbSpline
210
0.0
220
0.0
230
1.0
 70
    11
 71
     3
 72
    17
 73
    13
 74
     0
 42
0.0000000001
 43
0.0000000001
 40
0.0
 40
0.0
 40
0.0
 40
0.0
 40
0.25
 40
0.25
 40
0.25
 40
0.5
 40
0.5
 40
0.5
 40
0.75
 40
0.75
 40
0.75
 40
1.0
 40
1.0
 40
1.0
 40
1.0
 10
1065.1445
 20
-510.9785
 30
0.0
 10
1065.1445
 20
-510.9785
 30
0.0
 10
1065.1445
 20
-333.8156
 30
0.0
 10
1065.1445
 20
-333.8156
 30
0.0
 10
1065.1445
 20
-333.8156
 30
0.0
 10
1198.327
 20
-343.7075
 30
0.0
 10
1198.327
 20
-343.7075
 30
0.0
 10
1198.327
 20
-343.7075
 30
0.0
 10
1198.327
 20
-407.5592
 30
0.0
 10
1198.327
 20
-407.5592
 30
0.0
 10
1198.327
 20
-407.5592
 30
0.0
 10
1065.1445
 20
-510.9785
 30
0.0
 10
1065.1445
 20
-510.9785
 30
0.0
  0
ENDSEC
  0
SECTION
  2
OBJECTS
  0
DICTIONARY
  5
C
330
0
100
AcDbDictionary
281
     1
  3
ACAD_DETAILVIEWSTYLE
350
B8
  3
ACAD_GROUP
350
D
  3
ACAD_LAYOUT
350
1A
  3
ACAD_MATERIAL
350
43
  3
ACAD_MLEADERSTYLE
350
5B
  3
ACAD_MLINESTYLE
350
17
  3
ACAD_PLOTSETTINGS
350
19
  3
ACAD_PLOTSTYLENAME
350
E
  3
ACAD_SCALELIST
350
47
  3
ACAD_SECTIONVIEWSTYLE
350
B9
  3
ACAD_TABLESTYLE
350
59
  3
ACAD_VISUALSTYLE
350
2A
  3
ACDB_RECOMPOSE_DATA
350
B5
  3
AcDbVariableDictionary
350
B1
  0
SUN
  5
5D
330
29
100
AcDbSun
 90
        1
290
     0
 63
     7
421
 16777215
 40
1.0
291
     1
 91
  2455826
 92
 54000000
292
     0
 70
     2
 71
   256
280
     1
  0
DICTIONARY
  5
B8
102
{ACAD_REACTORS
330
C
102
}
330
C
100
AcDbDictionary
281
     1
  0
DICTIONARY
  5
D
102
{ACAD_REACTORS
330
C
102
}
330
C
100
AcDbDictionary
281
     1
  0
DICTIONARY
  5
1A
102
{ACAD_REACTORS
330
C
102
}
330
C
100
AcDbDictionary
281
     1
  3
Layout1
350
1E
  3
Layout2
350
26
  3
Model
350
22
  0
DICTIONARY
  5
43
102
{ACAD_REACTORS
330
C
102
}
330
C
100
AcDbDictionary
281
     1
  3
ByBlock
350
45
  3
ByLayer
350
44
  3
Global
350
46
  0
DICTIONARY
  5
5B
102
{ACAD_REACTORS
330
C
102
}
330
C
100
AcDbDictionary
281
     1
  3
Standard
350
5C
  0
DICTIONARY
  5
17
102
{ACAD_REACTORS
330
C
102
}
330
C
100
AcDbDictionary
281
     1
  3
Standard
350
18
  0
DICTIONARY
  5
19
102
{ACAD_REACTORS
330
C
102
}
330
C
100
AcDbDictionary
281
     1
  0
ACDBDICTIONARYWDFLT
  5
E
102
{ACAD_REACTORS
330
C
102
}
330
C
100
AcDbDictionary
281
     1
  3
Normal
350
F
100
AcDbDictionaryWithDefault
340
F
  0
DICTIONARY
  5
47
102
{ACAD_REACTORS
330
C
102
}
330
C
100
AcDbDictionary
281
     1
  3
A0
350
48
  3
A1
350
49
  3
A2
350
4A
  3
A3
350
4B
  3
A4
350
4C
  3
A5
350
4D
  3
A6
350
4E
  3
A7
350
4F
  3
A8
350
50
  3
A9
350
51
  3
B1
350
52
  3
B2
350
53
  3
B3
350
54
  3
B4
350
55
  3
B5
350
56
  3
B6
350
57
  3
B7
350
58
  0
DICTIONARY
  5
B9
102
{ACAD_REACTORS
330
C
102
}
330
C
100
AcDbDictionary
281
     1
  0
DICTIONARY
  5
59
102
{ACAD_REACTORS
330
C
102
}
330
C
100
AcDbDictionary
281
     1
  3
Standard
350
5A
  0
DICTIONARY
  5
2A
102
{ACAD_REACTORS
330
C
102
}
330
C
100
AcDbDictionary
281
     1
  3
2dWireframe
350
2F
  3
Basic
350
32
  3
Brighten
350
36
  3
ColorChange
350
3A
  3
Conceptual
350
34
  3
Dim
350
35
  3
EdgeColorOff
350
3D
  3
Facepattern
350
39
  3
Flat
350
2B
  3
FlatWithEdges
350
2C
  3
Gouraud
350
2D
  3
GouraudWithEdges
350
2E
  3
Hidden
350
31
  3
JitterOff
350
3B
  3
Linepattern
350
38
  3
OverhangOff
350
3C
  3
Realistic
350
33
  3
Shaded
350
42
  3
Shaded with edges
350
41
  3
Shades of Gray
350
3E
  3
Sketchy
350
3F
  3
Thicken
350
37
  3
Wireframe
350
30
  3
X-Ray
350
40
  0
XRECORD
  5
B5
102
{ACAD_REACTORS
330
C
102
}
330
C
100
AcDbXrecord
280
     1
 90
        1
330
5A
  0
DICTIONARY
  5
B1
102
{ACAD_REACTORS
330
C
102
}
330
C
100
AcDbDictionary
281
     1
  3
CANNOSCALE
350
B2
  3
CMLEADERSTYLE
350
B7
  3
CTABLESTYLE
350
B6
  0
LAYOUT
  5
1E
102
{ACAD_REACTORS
330
1A
102
}
330
1A
100
AcDbPlotSettings
  1

  2
none_device
  4

  6

 40
0.0
 41
0.0
 42
0.0
 43
0.0
 44
0.0
 45
0.0
 46
0.0
 47
0.0
 48
0.0
 49
0.0
140
0.0
141
0.0
142
1.0
143
1.0
 70
   688
 72
     0
 73
     0
 74
     5
  7

 75
    16
 76
     0
 77
     2
 78
   300
147
1.0
148
0.0
149
0.0
100
AcDbLayout
  1
Layout1
 70
     1
 71
     1
 10
0.0
 20
0.0
 11
12.0
 21
9.0
 12
0.0
 22
0.0
 32
0.0
 14
1.000000000000000E+20
 24
1.000000000000000E+20
 34
1.000000000000000E+20
 15
-1.000000000000000E+20
 25
-1.000000000000000E+20
 35
-1.000000000000000E+20
146
0.0
 13
0.0
 23
0.0
 33
0.0
 16
1.0
 26
0.0
 36
0.0
 17
0.0
 27
1.0
 37
0.0
 76
     0
330
1B
  0
LAYOUT
  5
26
102
{ACAD_REACTORS
330
1A
102
}
330
1A
100
AcDbPlotSettings
  1

  2
none_device
  4

  6

 40
0.0
 41
0.0
 42
0.0
 43
0.0
 44
0.0
 45
0.0
 46
0.0
 47
0.0
 48
0.0
 49
0.0
140
0.0
141
0.0
142
1.0
143
1.0
 70
   688
 72
     0
 73
     0
 74
     5
  7

 75
    16
 76
     0
 77
     2
 78
   300
147
1.0
148
0.0
149
0.0
100
AcDbLayout
  1
Layout2
 70
     1
 71
     2
 10
0.0
 20
0.0
 11
0.0
 21
0.0
 12
0.0
 22
0.0
 32
0.0
 14
0.0
 24
0.0
 34
0.0
 15
0.0
 25
0.0
 35
0.0
146
0.0
 13
0.0
 23
0.0
 33
0.0
 16
1.0
 26
0.0
 36
0.0
 17
0.0
 27
1.0
 37
0.0
 76
     0
330
23
  0
LAYOUT
  5
22
102
{ACAD_REACTORS
330
1A
102
}
330
1A
100
AcDbPlotSettings
  1

  2
none_device
  4
Letter_(8.50_x_11.00_Inches)
  6

 40
6.35
 41
6.35
 42
6.35000508
 43
6.35000508
 44
215.9
 45
279.4
 46
0.0
 47
0.0
 48
0.0
 49
0.0
140
0.0
141
0.0
142
1.0
143
1.0
 70
  1712
 72
     0
 73
     0
 74
     0
  7

 75
     0
 76
     0
 77
     2
 78
   300
147
1.0
148
0.0
149
0.0
100
AcDbLayout
  1
Model
 70
     1
 71
     0
 10
0.0
 20
0.0
 11
12.0
 21
9.0
 12
0.0
 22
0.0
 32
0.0
 14
-1200.1511
 24
-590.1266
 34
0.0
 15
1200.0511
 25
590.0734
 35
0.0
146
0.0
 13
0.0
 23
0.0
 33
0.0
 16
1.0
 26
0.0
 36
0.0
 17
0.0
 27
1.0
 37
0.0
 76
     0
330
1F
331
29
  0
MATERIAL
  5
45
102
{ACAD_REACTORS
330
43
102
}
330
43
100
AcDbMaterial
  1
ByBlock
 72
     1
 94
      127
  0
MATERIAL
  5
44
102
{ACAD_REACTORS
330
43
102
}
330
43
100
AcDbMaterial
  1
ByLayer
 72
     1
 94
      127
  0
MATERIAL
  5
46
102
{ACAD_REACTORS
330
43
102
}
330
43
100
AcDbMaterial
  1
Global
 72
     1
 94
      127
  0
MLEADERSTYLE
  5
5C
102
{ACAD_REACTORS
330
5B
102
}
330
5B
100
AcDbMLeaderStyle
179
     2
170
     2
171
     1
172
     0
 90
        2
 40
0.0
 41
0.0
173
     1
 91
-1056964608
340
14
 92
       -2
290
     1
 42
0.09
291
     1
 43
0.36
  3
Standard
341
0
 44
0.18
300

342
11
174
     1
178
     6
175
     1
176
     0
 93
-1056964608
 45
0.18
292
     0
297
     0
 46
0.18
343
0
 94
-1056964608
 47
1.0
 49
1.0
140
1.0
293
     1
141
0.0
294
     1
177
     0
142
1.0
295
     0
296
     0
143
0.125
271
     0
272
     9
273
     9
298
     0
  0
MLINESTYLE
  5
18
102
{ACAD_REACTORS
330
17
102
}
330
17
100
AcDbMlineStyle
  2
Standard
 70
     0
  3

 62
   256
 51
90.0
 52
90.0
 71
     2
 49
0.5
 62
   256
  6
BYLAYER
 49
-0.5
 62
   256
  6
BYLAYER
  0
ACDBPLACEHOLDER
  5
F
102
{ACAD_REACTORS
330
E
102
}
330
E
  0
SCALE
  5
48
102
{ACAD_REACTORS
330
47
102
}
330
47
100
AcDbScale
 70
     0
300
1:1
140
1.0
141
1.0
290
     1
  0
SCALE
  5
49
102
{ACAD_REACTORS
330
47
102
}
330
47
100
AcDbScale
 70
     0
300
1/128" = 1'-0"
140
0.0078125
141
12.0
290
     0
  0
SCALE
  5
4A
102
{ACAD_REACTORS
330
47
102
}
330
47
100
AcDbScale
 70
     0
300
1/64" = 1'-0"
140
0.015625
141
12.0
290
     0
  0
SCALE
  5
4B
102
{ACAD_REACTORS
330
47
102
}
330
47
100
AcDbScale
 70
     0
300
1/32" = 1'-0"
140
0.03125
141
12.0
290
     0
  0
SCALE
  5
4C
102
{ACAD_REACTORS
330
47
102
}
330
47
100
AcDbScale
 70
     0
300
1/16" = 1'-0"
140
0.0625
141
12.0
290
     0
  0
SCALE
  5
4D
102
{ACAD_REACTORS
330
47
102
}
330
47
100
AcDbScale
 70
     0
300
3/32" = 1'-0"
140
0.09375
141
12.0
290
     0
  0
SCALE
  5
4E
102
{ACAD_REACTORS
330
47
102
}
330
47
100
AcDbScale
 70
     0
300
1/8" = 1'-0"
140
0.125
141
12.0
290
     0
  0
SCALE
  5
4F
102
{ACAD_REACTORS
330
47
102
}
330
47
100
AcDbScale
 70
     0
300
3/16" = 1'-0"
140
0.1875
141
12.0
290
     0
  0
SCALE
  5
50
102
{ACAD_REACTORS
330
47
102
}
330
47
100
AcDbScale
 70
     0
300
1/4" = 1'-0"
140
0.25
141
12.0
290
     0
  0
SCALE
  5
51
102
{ACAD_REACTORS
330
47
102
}
330
47
100
AcDbScale
 70
     0
300
3/8" = 1'-0"
140
0.375
141
12.0
290
     0
  0
SCALE
  5
52
102
{ACAD_REACTORS
330
47
102
}
330
47
100
AcDbScale
 70
     0
300
1/2" = 1'-0"
140
0.5
141
12.0
290
     0
  0
SCALE
  5
53
102
{ACAD_REACTORS
330
47
102
}
330
47
100
AcDbScale
 70
     0
300
3/4" = 1'-0"
140
0.75
141
12.0
290
     0
  0
SCALE
  5
54
102
{ACAD_REACTORS
330
47
102
}
330
47
100
AcDbScale
 70
     0
300
1" = 1'-0"
140
1.0
141
12.0
290
     0
  0
SCALE
  5
55
102
{ACAD_REACTORS
330
47
102
}
330
47
100
AcDbScale
 70
     0
300
1-1/2" = 1'-0"
140
1.5
141
12.0
290
     0
  0
SCALE
  5
56
102
{ACAD_REACTORS
330
47
102
}
330
47
100
AcDbScale
 70
     0
300
3" = 1'-0"
140
3.0
141
12.0
290
     0
  0
SCALE
  5
57
102
{ACAD_REACTORS
330
47
102
}
330
47
100
AcDbScale
 70
     0
300
6" = 1'-0"
140
6.0
141
12.0
290
     0
  0
SCALE
  5
58
102
{ACAD_REACTORS
330
47
102
}
330
47
100
AcDbScale
 70
     0
300
1'-0" = 1'-0"
140
12.0
141
12.0
290
     0
  0
TABLESTYLE
  5
5A
102
{ACAD_REACTORS
330
59
102
}
102
{ACAD_XDICTIONARY
360
B3
102
}
330
59
100
AcDbTableStyle
  3
Standard
 70
     0
 71
     0
 40
0.06
 41
0.06
280
     0
281
     0
  7
Standard
140
0.18
170
     2
 62
     0
 63
   257
283
     0
 90
        4
 91
        0
  1

274
    -2
284
     1
 64
     0
275
    -2
285
     1
 65
     0
276
    -2
286
     1
 66
     0
277
    -2
287
     1
 67
     0
278
    -2
288
     1
 68
     0
279
    -2
289
     1
 69
     0
  7
Standard
140
0.25
170
     5
 62
     0
 63
   257
283
     0
 90
        4
 91
        0
  1

274
    -2
284
     1
 64
     0
275
    -2
285
     1
 65
     0
276
    -2
286
     1
 66
     0
277
    -2
287
     1
 67
     0
278
    -2
288
     1
 68
     0
279
    -2
289
     1
 69
     0
  7
Standard
140
0.18
170
     5
 62
     0
 63
   257
283
     0
 90
        4
 91
        0
  1

274
    -2
284
     1
 64
     0
275
    -2
285
     1
 65
     0
276
    -2
286
     1
 66
     0
277
    -2
287
     1
 67
     0
278
    -2
288
     1
 68
     0
279
    -2
289
     1
 69
     0
  0
VISUALSTYLE
  5
2F
102
{ACAD_REACTORS
330
2A
102
}
330
2A
100
AcDbVisualStyle
  2
2dWireframe
 70
     4
177
     3
291
     0
 70
    58
 90
        0
176
     1
 90
        2
176
     1
 90
        0
176
     1
 90
        0
176
     1
 40
0.6
176
     1
 40
30.0
176
     1
 62
     7
420
 16777215
176
     1
 90
        1
176
     1
 90
        4
176
     1
 62
     7
176
     1
 62
   257
176
     1
 90
        1
176
     1
 90
        1
176
     1
 40
1.0
176
     1
 90
        0
176
     1
 62
   257
176
     1
 40
1.0
176
     1
 90
        1
176
     1
 90
        6
176
     1
 90
        2
176
     1
 62
     7
176
     1
 90
        5
176
     1
 90
        0
176
     1
 90
        0
176
     1
290
     0
176
     1
 90
        1
176
     1
 40
0.0
176
     1
 90
        0
176
     1
290
     1
176
     1
290
     1
176
     1
290
     0
176
     1
290
     0
176
     1
290
     0
176
     1
290
     0
176
     1
290
     0
176
     1
290
     0
176
     1
290
     0
176
     1
 90
       50
176
     1
 40
0.0
176
     1
 40
1.0
176
     1
 90
        0
176
     1
 62
    18
420
        0
176
     1
 90
       50
176
     1
 90
        3
176
     1
 62
     5
420
      255
176
     1
290
     0
176
     1
 90
       50
176
     1
 90
       50
176
     1
 90
       50
176
     1
290
     0
176
     1
 90
       50
176
     1
 62
   256
176
     0
 40
1.0
176
     0
 90
        2
176
     1
  1
strokes_ogs.tif
176
     1
290
     0
176
     1
 40
1.0
176
     1
 40
1.0
176
     1
  0
VISUALSTYLE
  5
32
102
{ACAD_REACTORS
330
2A
102
}
330
2A
100
AcDbVisualStyle
  2
Basic
 70
     7
177
     3
291
     1
 70
    58
 90
        1
176
     1
 90
        0
176
     1
 90
        1
176
     1
 90
        0
176
     1
 40
0.6
176
     1
 40
30.0
176
     1
 62
     7
420
 16777215
176
     1
 90
        0
176
     1
 90
        4
176
     1
 62
     7
176
     1
 62
   257
176
     1
 90
        1
176
     1
 90
        1
176
     1
 40
1.0
176
     1
 90
        8
176
     1
 62
     7
176
     1
 40
1.0
176
     1
 90
        1
176
     1
 90
        6
176
     1
 90
        2
176
     1
 62
     7
176
     1
 90
        5
176
     1
 90
        0
176
     1
 90
        0
176
     1
290
     0
176
     1
 90
        1
176
     1
 40
0.0
176
     1
 90
        0
176
     1
290
     0
176
     1
290
     1
176
     1
290
     1
176
     1
290
     0
176
     1
290
     0
176
     1
290
     0
176
     1
290
     0
176
     1
290
     0
176
     1
290
     0
176
     1
 90
       50
176
     1
 40
0.0
176
     1
 40
1.0
176
     1
 90
        0
176
     1
 62
    18
420
        0
176
     1
 90
       50
176
     1
 90
        3
176
     1
 62
     5
420
      255
176
     1
290
     0
176
     1
 90
       50
176
     1
 90
       50
176
     1
 90
       50
176
     1
290
     0
176
     1
 90
       50
176
     1
 62
   256
176
     0
 40
1.0
176
     0
 90
        2
176
     1
  1
strokes_ogs.tif
176
     1
290
     0
176
     1
 40
1.0
176
     1
 40
1.0
176
     1
  0
VISUALSTYLE
  5
36
102
{ACAD_REACTORS
330
2A
102
}
330
2A
100
AcDbVisualStyle
  2
Brighten
 70
    12
177
     3
291
     1
 70
    58
 90
        2
176
     1
 90
        2
176
     1
 90
        0
176
     1
 90
        0
176
     1
 40
0.6
176
     1
 40
30.0
176
     1
 62
     7
420
 16777215
176
     1
 90
        1
176
     1
 90
        4
176
     1
 62
     7
176
     1
 62
   257
176
     1
 90
        1
176
     1
 90
        1
176
     1
 40
1.0
176
     1
 90
        8
176
     1
 62
     7
176
     1
 40
1.0
176
     1
 90
        1
176
     1
 90
        6
176
     1
 90
        2
176
     1
 62
     7
176
     1
 90
        5
176
     1
 90
        0
176
     1
 90
        0
176
     1
290
     0
176
     1
 90
        1
176
     1
 40
50.0
176
     1
 90
        0
176
     1
290
     0
176
     1
290
     1
176
     1
290
     1
176
     1
290
     0
176
     1
290
     0
176
     1
290
     0
176
     1
290
     0
176
     1
290
     0
176
     1
290
     0
176
     1
 90
       50
176
     1
 40
0.0
176
     1
 40
1.0
176
     1
 90
        0
176
     1
 62
    18
420
        0
176
     1
 90
       50
176
     1
 90
        3
176
     1
 62
     5
420
      255
176
     1
290
     0
176
     1
 90
       50
176
     1
 90
       50
176
     1
 90
       50
176
     1
290
     0
176
     1
 90
       50
176
     1
 62
   256
176
     0
 40
1.0
176
     0
 90
        2
176
     1
  1
strokes_ogs.tif
176
     1
290
     0
176
     1
 40
1.0
176
     1
 40
1.0
176
     1
  0
VISUALSTYLE
  5
3A
102
{ACAD_REACTORS
330
2A
102
}
330
2A
100
AcDbVisualStyle
  2
ColorChange
 70
    16
177
     3
291
     1
 70
    58
 90
        2
176
     1
 90
        2
176
     1
 90
        3
176
     1
 90
        0
176
     1
 40
0.6
176
     1
 40
30.0
176
     1
 62
     8
420
  8421504
176
     1
 90
        1
176
     1
 90
        4
176
     1
 62
     7
176
     1
 62
   257
176
     1
 90
        1
176
     1
 90
        1
176
     1
 40
1.0
176
     1
 90
        8
176
     1
 62
     8
420
  8421504
176
     1
 40
1.0
176
     1
 90
        1
176
     1
 90
        6
176
     1
 90
        2
176
     1
 62
     7
176
     1
 90
        5
176
     1
 90
        0
176
     1
 90
        0
176
     1
290
     0
176
     1
 90
        1
176
     1
 40
0.0
176
     1
 90
        0
176
     1
290
     0
176
     1
290
     1
176
     1
290
     1
176
     1
290
     0
176
     1
290
     0
176
     1
290
     0
176
     1
290
     0
176
     1
290
     0
176
     1
290
     0
176
     1
 90
       50
176
     1
 40
0.0
176
     1
 40
1.0
176
     1
 90
        0
176
     1
 62
    18
420
        0
176
     1
 90
       50
176
     1
 90
        3
176
     1
 62
     5
420
      255
176
     1
290
     0
176
     1
 90
       50
176
     1
 90
       50
176
     1
 90
       50
176
     1
290
     0
176
     1
 90
       50
176
     1
 62
   256
176
     0
 40
1.0
176
     0
 90
        2
176
     1
  1
strokes_ogs.tif
176
     1
290
     0
176
     1
 40
1.0
176
     1
 40
1.0
176
     1
  0
VISUALSTYLE
  5
34
102
{ACAD_REACTORS
330
2A
102
}
330
2A
100
AcDbVisualStyle
  2
Conceptual
 70
     9
177
     3
291
     0
 70
    58
 90
        3
176
     1
 90
        2
176
     1
 90
        0
176
     1
 90
        0
176
     1
 40
0.6
176
     1
 40
30.0
176
     1
 62
     7
420
 16777215
176
     1
 90
        2
176
     1
 90
        2
176
     1
 62
     7
176
     1
 62
   257
176
     1
 90
        1
176
     1
 90
        1
176
     1
 40
179.0
176
     1
 90
        8
176
     1
 62
     7
176
     1
 40
1.0
176
     1
 90
        1
176
     1
 90
        6
176
     1
 90
        2
176
     1
 62
     7
176
     1
 90
        3
176
     1
 90
        0
176
     1
 90
        0
176
     1
290
     0
176
     1
 90
        1
176
     1
 40
0.0
176
     1
 90
        0
176
     1
290
     0
176
     1
290
     1
176
     1
290
     1
176
     1
290
     0
176
     1
290
     0
176
     1
290
     0
176
     1
290
     0
176
     1
290
     0
176
     1
290
     0
176
     1
 90
       50
176
     1
 40
0.0
176
     1
 40
1.0
176
     1
 90
        0
176
     1
 62
    18
420
        0
176
     1
 90
       50
176
     1
 90
        3
176
     1
 62
     5
420
      255
176
     1
290
     0
176
     1
 90
       50
176
     1
 90
       50
176
     1
 90
       50
176
     1
290
     0
176
     1
 90
       50
176
     1
 62
   256
176
     0
 40
1.0
176
     0
 90
        2
176
     1
  1
strokes_ogs.tif
176
     1
290
     0
176
     1
 40
1.0
176
     1
 40
1.0
176
     1
  0
VISUALSTYLE
  5
35
102
{ACAD_REACTORS
330
2A
102
}
330
2A
100
AcDbVisualStyle
  2
Dim
 70
    11
177
     3
291
     1
 70
    58
 90
        2
176
     1
 90
        2
176
     1
 90
        0
176
     1
 90
        0
176
     1
 40
0.6
176
     1
 40
30.0
176
     1
 62
     7
420
 16777215
176
     1
 90
        1
176
     1
 90
        4
176
     1
 62
     7
176
     1
 62
   257
176
     1
 90
        1
176
     1
 90
        1
176
     1
 40
1.0
176
     1
 90
        8
176
     1
 62
     7
176
     1
 40
1.0
176
     1
 90
        1
176
     1
 90
        6
176
     1
 90
        2
176
     1
 62
     7
176
     1
 90
        5
176
     1
 90
        0
176
     1
 90
        0
176
     1
290
     0
176
     1
 90
        1
176
     1
 40
-50.0
176
     1
 90
        0
176
     1
290
     0
176
     1
290
     1
176
     1
290
     1
176
     1
290
     0
176
     1
290
     0
176
     1
290
     0
176
     1
290
     0
176
     1
290
     0
176
     1
290
     0
176
     1
 90
       50
176
     1
 40
0.0
176
     1
 40
1.0
176
     1
 90
        0
176
     1
 62
    18
420
        0
176
     1
 90
       50
176
     1
 90
        3
176
     1
 62
     5
420
      255
176
     1
290
     0
176
     1
 90
       50
176
     1
 90
       50
176
     1
 90
       50
176
     1
290
     0
176
     1
 90
       50
176
     1
 62
   256
176
     0
 40
1.0
176
     0
 90
        2
176
     1
  1
strokes_ogs.tif
176
     1
290
     0
176
     1
 40
1.0
176
     1
 40
1.0
176
     1
  0
VISUALSTYLE
  5
3D
102
{ACAD_REACTORS
330
2A
102
}
330
2A
100
AcDbVisualStyle
  2
EdgeColorOff
 70
    22
177
     3
291
     1
 70
    58
 90
        2
176
     0
 90
        2
176
     0
 90
        0
176
     0
 90
        0
176
     0
 40
0.6
176
     0
 40
30.0
176
     0
 62
     7
420
 16777215
176
     0
 90
        1
176
     0
 90
        4
176
     0
 62
     7
176
     0
 62
   257
176
     0
 90
        1
176
     0
 90
        1
176
     0
 40
1.0
176
     0
 90
        8
176
     2
 62
     7
176
     0
 40
1.0
176
     0
 90
        1
176
     0
 90
        6
176
     0
 90
        2
176
     0
 62
     7
176
     0
 90
        5
176
     0
 90
        0
176
     0
 90
        0
176
     0
290
     0
176
     0
 90
        1
176
     0
 40
0.0
176
     0
 90
        0
176
     0
290
     0
176
     0
290
     1
176
     0
290
     1
176
     0
290
     0
176
     0
290
     0
176
     0
290
     0
176
     0
290
     0
176
     0
290
     0
176
     0
290
     0
176
     0
 90
       50
176
     0
 40
0.0
176
     0
 40
1.0
176
     0
 90
        0
176
     0
 62
    18
420
        0
176
     0
 90
       50
176
     0
 90
        3
176
     0
 62
     5
420
      255
176
     0
290
     0
176
     0
 90
       50
176
     0
 90
       50
176
     0
 90
       50
176
     0
290
     0
176
     0
 90
       50
176
     0
 62
   256
176
     0
 40
1.0
176
     0
 90
        2
176
     0
  1
strokes_ogs.tif
176
     0
290
     0
176
     0
 40
1.0
176
     0
 40
1.0
176
     0
  0
VISUALSTYLE
  5
39
102
{ACAD_REACTORS
330
2A
102
}
330
2A
100
AcDbVisualStyle
  2
Facepattern
 70
    15
177
     3
291
     1
 70
    58
 90
        2
176
     1
 90
        2
176
     1
 90
        0
176
     1
 90
        0
176
     1
 40
0.6
176
     1
 40
30.0
176
     1
 62
     7
420
 16777215
176
     1
 90
        1
176
     1
 90
        4
176
     1
 62
     7
176
     1
 62
   257
176
     1
 90
        1
176
     1
 90
        1
176
     1
 40
1.0
176
     1
 90
        8
176
     1
 62
     7
176
     1
 40
1.0
176
     1
 90
        1
176
     1
 90
        6
176
     1
 90
        2
176
     1
 62
     7
176
     1
 90
        5
176
     1
 90
        0
176
     1
 90
        0
176
     1
290
     0
176
     1
 90
        1
176
     1
 40
0.0
176
     1
 90
        0
176
     1
290
     0
176
     1
290
     1
176
     1
290
     1
176
     1
290
     0
176
     1
290
     0
176
     1
290
     0
176
     1
290
     0
176
     1
290
     0
176
     1
290
     0
176
     1
 90
       50
176
     1
 40
0.0
176
     1
 40
1.0
176
     1
 90
        0
176
     1
 62
    18
420
        0
176
     1
 90
       50
176
     1
 90
        3
176
     1
 62
     5
420
      255
176
     1
290
     0
176
     1
 90
       50
176
     1
 90
       50
176
     1
 90
       50
176
     1
290
     0
176
     1
 90
       50
176
     1
 62
   256
176
     0
 40
1.0
176
     0
 90
        2
176
     1
  1
strokes_ogs.tif
176
     1
290
     0
176
     1
 40
1.0
176
     1
 40
1.0
176
     1
  0
VISUALSTYLE
  5
2B
102
{ACAD_REACTORS
330
2A
102
}
330
2A
100
AcDbVisualStyle
  2
Flat
 70
     0
177
     3
291
     1
 70
    58
 90
        2
176
     1
 90
        1
176
     1
 90
        1
176
     1
 90
        2
176
     1
 40
0.6
176
     1
 40
30.0
176
     1
 62
     7
420
 16777215
176
     1
 90
        0
176
     1
 90
        0
176
     1
 62
     7
176
     1
 62
   257
176
     1
 90
        1
176
     1
 90
        1
176
     1
 40
1.0
176
     1
 90
        8
176
     1
 62
     7
176
     1
 40
1.0
176
     1
 90
        1
176
     1
 90
        6
176
     1
 90
        2
176
     1
 62
     7
176
     1
 90
        5
176
     1
 90
        0
176
     1
 90
        0
176
     1
290
     0
176
     1
 90
       13
176
     1
 40
0.0
176
     1
 90
        0
176
     1
290
     0
176
     1
290
     1
176
     1
290
     1
176
     1
290
     0
176
     1
290
     0
176
     1
290
     0
176
     1
290
     0
176
     1
290
     0
176
     1
290
     0
176
     1
 90
       50
176
     1
 40
0.0
176
     1
 40
1.0
176
     1
 90
        0
176
     1
 62
    18
420
        0
176
     1
 90
       50
176
     1
 90
        3
176
     1
 62
     5
420
      255
176
     1
290
     0
176
     1
 90
       50
176
     1
 90
       50
176
     1
 90
       50
176
     1
290
     0
176
     1
 90
       50
176
     1
 62
   256
176
     0
 40
1.0
176
     0
 90
        2
176
     1
  1
strokes_ogs.tif
176
     1
290
     0
176
     1
 40
1.0
176
     1
 40
1.0
176
     1
  0
VISUALSTYLE
  5
2C
102
{ACAD_REACTORS
330
2A
102
}
330
2A
100
AcDbVisualStyle
  2
FlatWithEdges
 70
     1
177
     3
291
     1
 70
    58
 90
        2
176
     1
 90
        1
176
     1
 90
        1
176
     1
 90
        2
176
     1
 40
0.6
176
     1
 40
30.0
176
     1
 62
     7
420
 16777215
176
     1
 90
        1
176
     1
 90
        0
176
     1
 62
     7
176
     1
 62
   257
176
     1
 90
        1
176
     1
 90
        1
176
     1
 40
1.0
176
     1
 90
        0
176
     1
 62
   257
176
     1
 40
1.0
176
     1
 90
        1
176
     1
 90
        6
176
     1
 90
        2
176
     1
 62
     7
176
     1
 90
        5
176
     1
 90
        0
176
     1
 90
        0
176
     1
290
     0
176
     1
 90
       13
176
     1
 40
0.0
176
     1
 90
        0
176
     1
290
     0
176
     1
290
     1
176
     1
290
     1
176
     1
290
     0
176
     1
290
     0
176
     1
290
     0
176
     1
290
     0
176
     1
290
     0
176
     1
290
     0
176
     1
 90
       50
176
     1
 40
0.0
176
     1
 40
1.0
176
     1
 90
        0
176
     1
 62
    18
420
        0
176
     1
 90
       50
176
     1
 90
        3
176
     1
 62
     5
420
      255
176
     1
290
     0
176
     1
 90
       50
176
     1
 90
       50
176
     1
 90
       50
176
     1
290
     0
176
     1
 90
       50
176
     1
 62
   256
176
     0
 40
1.0
176
     0
 90
        2
176
     1
  1
strokes_ogs.tif
176
     1
290
     0
176
     1
 40
1.0
176
     1
 40
1.0
176
     1
  0
VISUALSTYLE
  5
2D
102
{ACAD_REACTORS
330
2A
102
}
330
2A
100
AcDbVisualStyle
  2
Gouraud
 70
     2
177
     3
291
     1
 70
    58
 90
        2
176
     1
 90
        2
176
     1
 90
        1
176
     1
 90
        2
176
     1
 40
0.6
176
     1
 40
30.0
176
     1
 62
     7
420
 16777215
176
     1
 90
        0
176
     1
 90
        0
176
     1
 62
     7
176
     1
 62
   257
176
     1
 90
        1
176
     1
 90
        1
176
     1
 40
1.0
176
     1
 90
        0
176
     1
 62
     7
176
     1
 40
1.0
176
     1
 90
        1
176
     1
 90
        6
176
     1
 90
        2
176
     1
 62
     7
176
     1
 90
        5
176
     1
 90
        0
176
     1
 90
        0
176
     1
290
     0
176
     1
 90
       13
176
     1
 40
0.0
176
     1
 90
        0
176
     1
290
     0
176
     1
290
     1
176
     1
290
     1
176
     1
290
     0
176
     1
290
     0
176
     1
290
     0
176
     1
290
     0
176
     1
290
     0
176
     1
290
     0
176
     1
 90
       50
176
     1
 40
0.0
176
     1
 40
1.0
176
     1
 90
        0
176
     1
 62
    18
420
        0
176
     1
 90
       50
176
     1
 90
        3
176
     1
 62
     5
420
      255
176
     1
290
     0
176
     1
 90
       50
176
     1
 90
       50
176
     1
 90
       50
176
     1
290
     0
176
     1
 90
       50
176
     1
 62
   256
176
     0
 40
1.0
176
     0
 90
        2
176
     1
  1
strokes_ogs.tif
176
     1
290
     0
176
     1
 40
1.0
176
     1
 40
1.0
176
     1
  0
VISUALSTYLE
  5
2E
102
{ACAD_REACTORS
330
2A
102
}
330
2A
100
AcDbVisualStyle
  2
GouraudWithEdges
 70
     3
177
     3
291
     1
 70
    58
 90
        2
176
     1
 90
        2
176
     1
 90
        1
176
     1
 90
        2
176
     1
 40
0.6
176
     1
 40
30.0
176
     1
 62
     7
420
 16777215
176
     1
 90
        1
176
     1
 90
        0
176
     1
 62
     7
176
     1
 62
   257
176
     1
 90
        1
176
     1
 90
        1
176
     1
 40
1.0
176
     1
 90
        0
176
     1
 62
   257
176
     1
 40
1.0
176
     1
 90
        1
176
     1
 90
        6
176
     1
 90
        2
176
     1
 62
     7
176
     1
 90
        5
176
     1
 90
        0
176
     1
 90
        0
176
     1
290
     0
176
     1
 90
       13
176
     1
 40
0.0
176
     1
 90
        0
176
     1
290
     0
176
     1
290
     1
176
     1
290
     1
176
     1
290
     0
176
     1
290
     0
176
     1
290
     0
176
     1
290
     0
176
     1
290
     0
176
     1
290
     0
176
     1
 90
       50
176
     1
 40
0.0
176
     1
 40
1.0
176
     1
 90
        0
176
     1
 62
    18
420
        0
176
     1
 90
       50
176
     1
 90
        3
176
     1
 62
     5
420
      255
176
     1
290
     0
176
     1
 90
       50
176
     1
 90
       50
176
     1
 90
       50
176
     1
290
     0
176
     1
 90
       50
176
     1
 62
   256
176
     0
 40
1.0
176
     0
 90
        2
176
     1
  1
strokes_ogs.tif
176
     1
290
     0
176
     1
 40
1.0
176
     1
 40
1.0
176
     1
  0
VISUALSTYLE
  5
31
102
{ACAD_REACTORS
330
2A
102
}
330
2A
100
AcDbVisualStyle
  2
Hidden
 70
     6
177
     3
291
     0
 70
    58
 90
        1
176
     1
 90
        2
176
     1
 90
        2
176
     1
 90
        0
176
     1
 40
0.6
176
     1
 40
30.0
176
     1
 62
     7
420
 16777215
176
     1
 90
        2
176
     1
 90
        2
176
     1
 62
     7
176
     1
 62
   257
176
     1
 90
        2
176
     1
 90
        1
176
     1
 40
40.0
176
     1
 90
        0
176
     1
 62
   257
176
     1
 40
1.0
176
     1
 90
        1
176
     1
 90
        6
176
     1
 90
        2
176
     1
 62
     7
176
     1
 90
        3
176
     1
 90
        0
176
     1
 90
        0
176
     1
290
     0
176
     1
 90
        1
176
     1
 40
0.0
176
     1
 90
        0
176
     1
290
     0
176
     1
290
     1
176
     1
290
     1
176
     1
290
     0
176
     1
290
     0
176
     1
290
     0
176
     1
290
     0
176
     1
290
     0
176
     1
290
     0
176
     1
 90
       50
176
     1
 40
0.0
176
     1
 40
1.0
176
     1
 90
        0
176
     1
 62
    18
420
        0
176
     1
 90
       50
176
     1
 90
        3
176
     1
 62
     5
420
      255
176
     1
290
     0
176
     1
 90
       50
176
     1
 90
       50
176
     1
 90
       50
176
     1
290
     0
176
     1
 90
       50
176
     1
 62
   256
176
     0
 40
1.0
176
     0
 90
        2
176
     1
  1
strokes_ogs.tif
176
     1
290
     0
176
     1
 40
1.0
176
     1
 40
1.0
176
     1
  0
VISUALSTYLE
  5
3B
102
{ACAD_REACTORS
330
2A
102
}
330
2A
100
AcDbVisualStyle
  2
JitterOff
 70
    20
177
     3
291
     1
 70
    58
 90
        2
176
     0
 90
        2
176
     0
 90
        0
176
     0
 90
        0
176
     0
 40
0.6
176
     0
 40
30.0
176
     0
 62
     7
420
 16777215
176
     0
 90
        1
176
     0
 90
        4
176
     0
 62
     7
176
     0
 62
   257
176
     0
 90
        1
176
     0
 90
        1
176
     0
 40
1.0
176
     0
 90
       10
176
     2
 62
     7
176
     0
 40
1.0
176
     0
 90
        1
176
     0
 90
        6
176
     0
 90
        2
176
     0
 62
     7
176
     0
 90
        5
176
     0
 90
        0
176
     0
 90
        0
176
     0
290
     0
176
     0
 90
        1
176
     0
 40
0.0
176
     0
 90
        0
176
     0
290
     0
176
     0
290
     1
176
     0
290
     1
176
     0
290
     0
176
     0
290
     0
176
     0
290
     0
176
     0
290
     0
176
     0
290
     0
176
     0
290
     0
176
     0
 90
       50
176
     0
 40
0.0
176
     0
 40
1.0
176
     0
 90
        0
176
     0
 62
    18
420
        0
176
     0
 90
       50
176
     0
 90
        3
176
     0
 62
     5
420
      255
176
     0
290
     0
176
     0
 90
       50
176
     0
 90
       50
176
     0
 90
       50
176
     0
290
     0
176
     0
 90
       50
176
     0
 62
   256
176
     0
 40
1.0
176
     0
 90
        2
176
     0
  1
strokes_ogs.tif
176
     0
290
     0
176
     0
 40
1.0
176
     0
 40
1.0
176
     0
  0
VISUALSTYLE
  5
38
102
{ACAD_REACTORS
330
2A
102
}
330
2A
100
AcDbVisualStyle
  2
Linepattern
 70
    14
177
     3
291
     1
 70
    58
 90
        2
176
     1
 90
        2
176
     1
 90
        0
176
     1
 90
        0
176
     1
 40
0.6
176
     1
 40
30.0
176
     1
 62
     7
420
 16777215
176
     1
 90
        1
176
     1
 90
        4
176
     1
 62
     7
176
     1
 62
   257
176
     1
 90
        7
176
     1
 90
        7
176
     1
 40
1.0
176
     1
 90
        8
176
     1
 62
     7
176
     1
 40
1.0
176
     1
 90
        1
176
     1
 90
        6
176
     1
 90
        2
176
     1
 62
     7
176
     1
 90
        5
176
     1
 90
        0
176
     1
 90
        0
176
     1
290
     0
176
     1
 90
        1
176
     1
 40
0.0
176
     1
 90
        0
176
     1
290
     0
176
     1
290
     1
176
     1
290
     1
176
     1
290
     0
176
     1
290
     0
176
     1
290
     0
176
     1
290
     0
176
     1
290
     0
176
     1
290
     0
176
     1
 90
       50
176
     1
 40
0.0
176
     1
 40
1.0
176
     1
 90
        0
176
     1
 62
    18
420
        0
176
     1
 90
       50
176
     1
 90
        3
176
     1
 62
     5
420
      255
176
     1
290
     0
176
     1
 90
       50
176
     1
 90
       50
176
     1
 90
       50
176
     1
290
     0
176
     1
 90
       50
176
     1
 62
   256
176
     0
 40
1.0
176
     0
 90
        2
176
     1
  1
strokes_ogs.tif
176
     1
290
     0
176
     1
 40
1.0
176
     1
 40
1.0
176
     1
  0
VISUALSTYLE
  5
3C
102
{ACAD_REACTORS
330
2A
102
}
330
2A
100
AcDbVisualStyle
  2
OverhangOff
 70
    21
177
     3
291
     1
 70
    58
 90
        2
176
     0
 90
        2
176
     0
 90
        0
176
     0
 90
        0
176
     0
 40
0.6
176
     0
 40
30.0
176
     0
 62
     7
420
 16777215
176
     0
 90
        1
176
     0
 90
        4
176
     0
 62
     7
176
     0
 62
   257
176
     0
 90
        1
176
     0
 90
        1
176
     0
 40
1.0
176
     0
 90
        9
176
     2
 62
     7
176
     0
 40
1.0
176
     0
 90
        1
176
     0
 90
        6
176
     0
 90
        2
176
     0
 62
     7
176
     0
 90
        5
176
     0
 90
        0
176
     0
 90
        0
176
     0
290
     0
176
     0
 90
        1
176
     0
 40
0.0
176
     0
 90
        0
176
     0
290
     0
176
     0
290
     1
176
     0
290
     1
176
     0
290
     0
176
     0
290
     0
176
     0
290
     0
176
     0
290
     0
176
     0
290
     0
176
     0
290
     0
176
     0
 90
       50
176
     0
 40
0.0
176
     0
 40
1.0
176
     0
 90
        0
176
     0
 62
    18
420
        0
176
     0
 90
       50
176
     0
 90
        3
176
     0
 62
     5
420
      255
176
     0
290
     0
176
     0
 90
       50
176
     0
 90
       50
176
     0
 90
       50
176
     0
290
     0
176
     0
 90
       50
176
     0
 62
   256
176
     0
 40
1.0
176
     0
 90
        2
176
     0
  1
strokes_ogs.tif
176
     0
290
     0
176
     0
 40
1.0
176
     0
 40
1.0
176
     0
  0
VISUALSTYLE
  5
33
102
{ACAD_REACTORS
330
2A
102
}
330
2A
100
AcDbVisualStyle
  2
Realistic
 70
     8
177
     3
291
     0
 70
    58
 90
        2
176
     1
 90
        3
176
     1
 90
        0
176
     1
 90
        2
176
     1
 40
0.6
176
     1
 40
30.0
176
     1
 62
     7
420
 16777215
176
     1
 90
        0
176
     1
 90
        0
176
     1
 62
     7
176
     1
 62
   257
176
     1
 90
        1
176
     1
 90
        1
176
     1
 40
1.0
176
     1
 90
        8
176
     1
 62
   257
176
     1
 40
1.0
176
     1
 90
        1
176
     1
 90
        6
176
     1
 90
        2
176
     1
 62
     7
176
     1
 90
        3
176
     1
 90
        0
176
     1
 90
        0
176
     1
290
     0
176
     1
 90
       13
176
     1
 40
0.0
176
     1
 90
        0
176
     1
290
     0
176
     1
290
     1
176
     1
290
     1
176
     1
290
     0
176
     1
290
     0
176
     1
290
     0
176
     1
290
     0
176
     1
290
     0
176
     1
290
     0
176
     1
 90
       50
176
     1
 40
0.0
176
     1
 40
1.0
176
     1
 90
        0
176
     1
 62
    18
420
        0
176
     1
 90
       50
176
     1
 90
        3
176
     1
 62
     5
420
      255
176
     1
290
     0
176
     1
 90
       50
176
     1
 90
       50
176
     1
 90
       50
176
     1
290
     0
176
     1
 90
       50
176
     1
 62
   256
176
     0
 40
1.0
176
     0
 90
        2
176
     1
  1
strokes_ogs.tif
176
     1
290
     0
176
     1
 40
1.0
176
     1
 40
1.0
176
     1
  0
VISUALSTYLE
  5
42
102
{ACAD_REACTORS
330
2A
102
}
330
2A
100
AcDbVisualStyle
  2
Shaded
 70
    27
177
     3
291
     0
 70
    58
 90
        2
176
     1
 90
        2
176
     1
 90
        1
176
     1
 90
        2
176
     1
 40
0.6
176
     1
 40
30.0
176
     1
 62
     7
420
 16777215
176
     1
 90
        0
176
     1
 90
        4
176
     1
 62
     7
176
     1
 62
   257
176
     1
 90
        1
176
     1
 90
        1
176
     1
 40
1.0
176
     1
 90
        8
176
     1
 62
   257
176
     1
 40
1.0
176
     1
 90
        1
176
     1
 90
        6
176
     1
 90
        2
176
     1
 62
     8
420
  7895160
176
     1
 90
        3
176
     1
 90
        0
176
     1
 90
        0
176
     1
290
     0
176
     1
 90
        5
176
     1
 40
0.0
176
     1
 90
        0
176
     1
290
     0
176
     1
290
     1
176
     1
290
     1
176
     1
290
     0
176
     1
290
     0
176
     1
290
     0
176
     1
290
     0
176
     1
290
     0
176
     1
290
     0
176
     1
 90
       50
176
     1
 40
0.0
176
     1
 40
1.0
176
     1
 90
        0
176
     1
 62
    18
420
        0
176
     1
 90
       50
176
     1
 90
        3
176
     1
 62
     5
420
      255
176
     1
290
     0
176
     1
 90
       50
176
     1
 90
       50
176
     1
 90
       50
176
     1
290
     0
176
     1
 90
       50
176
     1
 62
   256
176
     0
 40
1.0
176
     0
 90
        2
176
     1
  1
strokes_ogs.tif
176
     1
290
     0
176
     1
 40
1.0
176
     1
 40
1.0
176
     1
  0
VISUALSTYLE
  5
41
102
{ACAD_REACTORS
330
2A
102
}
330
2A
100
AcDbVisualStyle
  2
Shaded with edges
 70
    26
177
     3
291
     0
 70
    58
 90
        2
176
     1
 90
        2
176
     1
 90
        1
176
     1
 90
        2
176
     1
 40
0.6
176
     1
 40
30.0
176
     1
 62
     7
420
 16777215
176
     1
 90
        1
176
     1
 90
       10
176
     1
 62
     7
176
     1
 62
   257
176
     1
 90
        2
176
     1
 90
        1
176
     1
 40
1.0
176
     1
 90
        8
176
     1
 62
   257
176
     1
 40
1.0
176
     1
 90
        1
176
     1
 90
        6
176
     1
 90
        2
176
     1
 62
     7
176
     1
 90
        3
176
     1
 90
        0
176
     1
 90
        0
176
     1
290
     0
176
     1
 90
        5
176
     1
 40
0.0
176
     1
 90
        0
176
     1
290
     0
176
     1
290
     1
176
     1
290
     1
176
     1
290
     0
176
     1
290
     0
176
     1
290
     0
176
     1
290
     0
176
     1
290
     0
176
     1
290
     0
176
     1
 90
       50
176
     1
 40
0.0
176
     1
 40
1.0
176
     1
 90
        0
176
     1
 62
    18
420
        0
176
     1
 90
       50
176
     1
 90
        3
176
     1
 62
     5
420
      255
176
     1
290
     0
176
     1
 90
       50
176
     1
 90
       50
176
     1
 90
       50
176
     1
290
     0
176
     1
 90
       50
176
     1
 62
   256
176
     0
 40
1.0
176
     0
 90
        2
176
     1
  1
strokes_ogs.tif
176
     1
290
     0
176
     1
 40
1.0
176
     1
 40
1.0
176
     1
  0
VISUALSTYLE
  5
3E
102
{ACAD_REACTORS
330
2A
102
}
330
2A
100
AcDbVisualStyle
  2
Shades of Gray
 70
    23
177
     3
291
     0
 70
    58
 90
        2
176
     1
 90
        2
176
     1
 90
        3
176
     1
 90
        0
176
     1
 40
0.6
176
     1
 40
30.0
176
     1
 62
     7
420
 16777215
176
     1
 90
        2
176
     1
 90
        2
176
     1
 62
     7
176
     1
 62
     7
176
     1
 90
        1
176
     1
 90
        1
176
     1
 40
40.0
176
     1
 90
        8
176
     1
 62
     7
176
     1
 40
1.0
176
     1
 90
        1
176
     1
 90
        6
176
     1
 90
        2
176
     1
 62
     7
176
     1
 90
        3
176
     1
 90
        0
176
     1
 90
        0
176
     1
290
     0
176
     1
 90
        1
176
     1
 40
0.0
176
     1
 90
        0
176
     1
290
     0
176
     1
290
     1
176
     1
290
     1
176
     1
290
     0
176
     1
290
     0
176
     1
290
     0
176
     1
290
     0
176
     1
290
     0
176
     1
290
     0
176
     1
 90
       50
176
     1
 40
0.0
176
     1
 40
1.0
176
     1
 90
        0
176
     1
 62
    18
420
        0
176
     1
 90
       50
176
     1
 90
        3
176
     1
 62
     5
420
      255
176
     1
290
     0
176
     1
 90
       50
176
     1
 90
       50
176
     1
 90
       50
176
     1
290
     0
176
     1
 90
       50
176
     1
 62
   256
176
     0
 40
1.0
176
     0
 90
        2
176
     1
  1
strokes_ogs.tif
176
     1
290
     0
176
     1
 40
1.0
176
     1
 40
1.0
176
     1
  0
VISUALSTYLE
  5
3F
102
{ACAD_REACTORS
330
2A
102
}
330
2A
100
AcDbVisualStyle
  2
Sketchy
 70
    24
177
     3
291
     0
 70
    58
 90
        1
176
     1
 90
        2
176
     1
 90
        2
176
     1
 90
        0
176
     1
 40
0.6
176
     1
 40
30.0
176
     1
 62
     7
420
 16777215
176
     1
 90
        2
176
     1
 90
        2
176
     1
 62
     7
176
     1
 62
     7
176
     1
 90
        1
176
     1
 90
        1
176
     1
 40
40.0
176
     1
 90
       11
176
     1
 62
     7
176
     1
 40
1.0
176
     1
 90
        1
176
     1
 90
        6
176
     1
 90
        2
176
     1
 62
     7
176
     1
 90
        6
176
     1
 90
        0
176
     1
 90
        0
176
     1
290
     0
176
     1
 90
        1
176
     1
 40
0.0
176
     1
 90
        0
176
     1
290
     0
176
     1
290
     1
176
     1
290
     1
176
     1
290
     0
176
     1
290
     0
176
     1
290
     0
176
     1
290
     0
176
     1
290
     0
176
     1
290
     0
176
     1
 90
       50
176
     1
 40
0.0
176
     1
 40
1.0
176
     1
 90
        0
176
     1
 62
    18
420
        0
176
     1
 90
       50
176
     1
 90
        3
176
     1
 62
     5
420
      255
176
     1
290
     0
176
     1
 90
       50
176
     1
 90
       50
176
     1
 90
       50
176
     1
290
     0
176
     1
 90
       50
176
     1
 62
   256
176
     0
 40
1.0
176
     0
 90
        2
176
     1
  1
strokes_ogs.tif
176
     1
290
     0
176
     1
 40
1.0
176
     1
 40
1.0
176
     1
  0
VISUALSTYLE
  5
37
102
{ACAD_REACTORS
330
2A
102
}
330
2A
100
AcDbVisualStyle
  2
Thicken
 70
    13
177
     3
291
     1
 70
    58
 90
        2
176
     1
 90
        2
176
     1
 90
        0
176
     1
 90
        0
176
     1
 40
0.6
176
     1
 40
30.0
176
     1
 62
     7
420
 16777215
176
     1
 90
        1
176
     1
 90
        4
176
     1
 62
     7
176
     1
 62
   257
176
     1
 90
        1
176
     1
 90
        1
176
     1
 40
1.0
176
     1
 90
       12
176
     1
 62
     7
176
     1
 40
1.0
176
     1
 90
        1
176
     1
 90
        6
176
     1
 90
        2
176
     1
 62
     7
176
     1
 90
        5
176
     1
 90
        0
176
     1
 90
        0
176
     1
290
     0
176
     1
 90
        1
176
     1
 40
0.0
176
     1
 90
        0
176
     1
290
     0
176
     1
290
     1
176
     1
290
     1
176
     1
290
     0
176
     1
290
     0
176
     1
290
     0
176
     1
290
     0
176
     1
290
     0
176
     1
290
     0
176
     1
 90
       50
176
     1
 40
0.0
176
     1
 40
1.0
176
     1
 90
        0
176
     1
 62
    18
420
        0
176
     1
 90
       50
176
     1
 90
        3
176
     1
 62
     5
420
      255
176
     1
290
     0
176
     1
 90
       50
176
     1
 90
       50
176
     1
 90
       50
176
     1
290
     0
176
     1
 90
       50
176
     1
 62
   256
176
     0
 40
1.0
176
     0
 90
        2
176
     1
  1
strokes_ogs.tif
176
     1
290
     0
176
     1
 40
1.0
176
     1
 40
1.0
176
     1
  0
VISUALSTYLE
  5
30
102
{ACAD_REACTORS
330
2A
102
}
330
2A
100
AcDbVisualStyle
  2
Wireframe
 70
     5
177
     3
291
     0
 70
    58
 90
        0
176
     1
 90
        2
176
     1
 90
        0
176
     1
 90
        0
176
     1
 40
0.6
176
     1
 40
30.0
176
     1
 62
     7
420
 16777215
176
     1
 90
        1
176
     1
 90
        4
176
     1
 62
     7
176
     1
 62
   257
176
     1
 90
        1
176
     1
 90
        1
176
     1
 40
1.0
176
     1
 90
        0
176
     1
 62
   257
176
     1
 40
1.0
176
     1
 90
        1
176
     1
 90
        6
176
     1
 90
        2
176
     1
 62
     7
176
     1
 90
        3
176
     1
 90
        0
176
     1
 90
        0
176
     1
290
     0
176
     1
 90
        1
176
     1
 40
0.0
176
     1
 90
        0
176
     1
290
     0
176
     1
290
     1
176
     1
290
     1
176
     1
290
     0
176
     1
290
     0
176
     1
290
     0
176
     1
290
     0
176
     1
290
     0
176
     1
290
     0
176
     1
 90
       50
176
     1
 40
0.0
176
     1
 40
1.0
176
     1
 90
        0
176
     1
 62
    18
420
        0
176
     1
 90
       50
176
     1
 90
        3
176
     1
 62
     5
420
      255
176
     1
290
     0
176
     1
 90
       50
176
     1
 90
       50
176
     1
 90
       50
176
     1
290
     0
176
     1
 90
       50
176
     1
 62
   256
176
     0
 40
1.0
176
     0
 90
        2
176
     1
  1
strokes_ogs.tif
176
     1
290
     0
176
     1
 40
1.0
176
     1
 40
1.0
176
     1
  0
VISUALSTYLE
  5
40
102
{ACAD_REACTORS
330
2A
102
}
330
2A
100
AcDbVisualStyle
  2
X-Ray
 70
    25
177
     3
291
     0
 70
    58
 90
        2
176
     1
 90
        2
176
     1
 90
        1
176
     1
 90
        1
176
     1
 40
0.5
176
     1
 40
30.0
176
     1
 62
     7
420
 16777215
176
     1
 90
        1
176
     1
 90
        0
176
     1
 62
     7
176
     1
 62
   257
176
     1
 90
        1
176
     1
 90
        1
176
     1
 40
1.0
176
     1
 90
        8
176
     1
 62
     7
176
     1
 40
1.0
176
     1
 90
        1
176
     1
 90
        6
176
     1
 90
        2
176
     1
 62
     7
176
     1
 90
        3
176
     1
 90
        0
176
     1
 90
        0
176
     1
290
     0
176
     1
 90
       13
176
     1
 40
0.0
176
     1
 90
        0
176
     1
290
     0
176
     1
290
     1
176
     1
290
     1
176
     1
290
     0
176
     1
290
     0
176
     1
290
     0
176
     1
290
     0
176
     1
290
     0
176
     1
290
     0
176
     1
 90
       50
176
     1
 40
0.0
176
     1
 40
1.0
176
     1
 90
        0
176
     1
 62
    18
420
        0
176
     1
 90
       50
176
     1
 90
        3
176
     1
 62
     5
420
      255
176
     1
290
     0
176
     1
 90
       50
176
     1
 90
       50
176
     1
 90
       50
176
     1
290
     0
176
     1
 90
       50
176
     1
 62
   256
176
     0
 40
1.0
176
     0
 90
        2
176
     1
  1
strokes_ogs.tif
176
     1
290
     0
176
     1
 40
1.0
176
     1
 40
1.0
176
     1
  0
DICTIONARYVAR
  5
B2
102
{ACAD_REACTORS
330
B1
102
}
330
B1
100
DictionaryVariables
280
     0
  1
1:1
  0
DICTIONARYVAR
  5
B7
102
{ACAD_REACTORS
330
B1
102
}
330
B1
100
DictionaryVariables
280
     0
  1
Standard
  0
DICTIONARYVAR
  5
B6
102
{ACAD_REACTORS
330
B1
102
}
330
B1
100
DictionaryVariables
280
     0
  1
Standard
  0
DICTIONARY
  5
B3
330
5A
100
AcDbDictionary
280
     1
281
     1
  3
ACAD_ROUNDTRIP_2008_TABLESTYLE_CELLSTYLEMAP
360
B4
  0
CELLSTYLEMAP
  5
B4
102
{ACAD_REACTORS
330
B3
102
}
330
B3
100
AcDbCellStyleMap
 90
        3
300
CELLSTYLE
  1
TABLEFORMAT_BEGIN
 90
        5
170
     1
 91
        0
 92
    32768
 62
   257
 93
        1
300
CONTENTFORMAT
  1
CONTENTFORMAT_BEGIN
 90
        0
 91
        0
 92
        4
 93
        0
300

 40
0.0
140
1.0
 94
        5
 62
     0
340
11
144
0.25
309
CONTENTFORMAT_END
171
     1
301
MARGIN
  1
CELLMARGIN_BEGIN
 40
0.06
 40
0.06
 40
0.06
 40
0.06
 40
0.06
 40
0.06
309
CELLMARGIN_END
 94
        6
 95
        1
302
GRIDFORMAT
  1
GRIDFORMAT_BEGIN
 90
        0
 91
        1
 62
     0
 92
       -2
340
14
 93
        0
 40
0.045
309
GRIDFORMAT_END
 95
        2
302
GRIDFORMAT
  1
GRIDFORMAT_BEGIN
 90
        0
 91
        1
 62
     0
 92
       -2
340
14
 93
        0
 40
0.045
309
GRIDFORMAT_END
 95
        4
302
GRIDFORMAT
  1
GRIDFORMAT_BEGIN
 90
        0
 91
        1
 62
     0
 92
       -2
340
14
 93
        0
 40
0.045
309
GRIDFORMAT_END
 95
        8
302
GRIDFORMAT
  1
GRIDFORMAT_BEGIN
 90
        0
 91
        1
 62
     0
 92
       -2
340
14
 93
        0
 40
0.045
309
GRIDFORMAT_END
 95
       16
302
GRIDFORMAT
  1
GRIDFORMAT_BEGIN
 90
        0
 91
        1
 62
     0
 92
       -2
340
14
 93
        0
 40
0.045
309
GRIDFORMAT_END
 95
       32
302
GRIDFORMAT
  1
GRIDFORMAT_BEGIN
 90
        0
 91
        1
 62
     0
 92
       -2
340
14
 93
        0
 40
0.045
309
GRIDFORMAT_END
309
TABLEFORMAT_END
  1
CELLSTYLE_BEGIN
 90
        1
 91
        1
300
_TITLE
309
CELLSTYLE_END
300
CELLSTYLE
  1
TABLEFORMAT_BEGIN
 90
        5
170
     1
 91
        0
 92
        0
 62
   257
 93
        1
300
CONTENTFORMAT
  1
CONTENTFORMAT_BEGIN
 90
        0
 91
        0
 92
        4
 93
        0
300

 40
0.0
140
1.0
 94
        5
 62
     0
340
11
144
0.18
309
CONTENTFORMAT_END
171
     1
301
MARGIN
  1
CELLMARGIN_BEGIN
 40
0.06
 40
0.06
 40
0.06
 40
0.06
 40
0.06
 40
0.06
309
CELLMARGIN_END
 94
        6
 95
        1
302
GRIDFORMAT
  1
GRIDFORMAT_BEGIN
 90
        0
 91
        1
 62
     0
 92
       -2
340
14
 93
        0
 40
0.045
309
GRIDFORMAT_END
 95
        2
302
GRIDFORMAT
  1
GRIDFORMAT_BEGIN
 90
        0
 91
        1
 62
     0
 92
       -2
340
14
 93
        0
 40
0.045
309
GRIDFORMAT_END
 95
        4
302
GRIDFORMAT
  1
GRIDFORMAT_BEGIN
 90
        0
 91
        1
 62
     0
 92
       -2
340
14
 93
        0
 40
0.045
309
GRIDFORMAT_END
 95
        8
302
GRIDFORMAT
  1
GRIDFORMAT_BEGIN
 90
        0
 91
        1
 62
     0
 92
       -2
340
14
 93
        0
 40
0.045
309
GRIDFORMAT_END
 95
       16
302
GRIDFORMAT
  1
GRIDFORMAT_BEGIN
 90
        0
 91
        1
 62
     0
 92
       -2
340
14
 93
        0
 40
0.045
309
GRIDFORMAT_END
 95
       32
302
GRIDFORMAT
  1
GRIDFORMAT_BEGIN
 90
        0
 91
        1
 62
     0
 92
       -2
340
14
 93
        0
 40
0.045
309
GRIDFORMAT_END
309
TABLEFORMAT_END
  1
CELLSTYLE_BEGIN
 90
        2
 91
        1
300
_HEADER
309
CELLSTYLE_END
300
CELLSTYLE
  1
TABLEFORMAT_BEGIN
 90
        5
170
     1
 91
        0
 92
        0
 62
   257
 93
        1
300
CONTENTFORMAT
  1
CONTENTFORMAT_BEGIN
 90
        0
 91
        0
 92
        4
 93
        0
300

 40
0.0
140
1.0
 94
        2
 62
     0
340
11
144
0.18
309
CONTENTFORMAT_END
171
     1
301
MARGIN
  1
CELLMARGIN_BEGIN
 40
0.06
 40
0.06
 40
0.06
 40
0.06
 40
0.06
 40
0.06
309
CELLMARGIN_END
 94
        6
 95
        1
302
GRIDFORMAT
  1
GRIDFORMAT_BEGIN
 90
        0
 91
        1
 62
     0
 92
       -2
340
14
 93
        0
 40
0.045
309
GRIDFORMAT_END
 95
        2
302
GRIDFORMAT
  1
GRIDFORMAT_BEGIN
 90
        0
 91
        1
 62
     0
 92
       -2
340
14
 93
        0
 40
0.045
309
GRIDFORMAT_END
 95
        4
302
GRIDFORMAT
  1
GRIDFORMAT_BEGIN
 90
        0
 91
        1
 62
     0
 92
       -2
340
14
 93
        0
 40
0.045
309
GRIDFORMAT_END
 95
        8
302
GRIDFORMAT
  1
GRIDFORMAT_BEGIN
 90
        0
 91
        1
 62
     0
 92
       -2
340
14
 93
        0
 40
0.045
309
GRIDFORMAT_END
 95
       16
302
GRIDFORMAT
  1
GRIDFORMAT_BEGIN
 90
        0
 91
        1
 62
     0
 92
       -2
340
14
 93
        0
 40
0.045
309
GRIDFORMAT_END
 95
       32
302
GRIDFORMAT
  1
GRIDFORMAT_BEGIN
 90
        0
 91
        1
 62
     0
 92
       -2
340
14
 93
        0
 40
0.045
309
GRIDFORMAT_END
309
TABLEFORMAT_END
  1
CELLSTYLE_BEGIN
 90
        3
 91
        2
300
_DATA
309
CELLSTYLE_END
  0
ENDSEC
  0
EOF
