  0
SECTION
  2
HEADER
  9
$ACADVER
  1
AC1032
  9
$ACADMAINTVER
 90
       55
  9
$DWGCODEPAGE
  3
ANSI_1252
  9
$LASTSAVEDBY
  1
LYI-002
  9
$REQUIREDVERSIONS
160
                 0
  9
$INSBASE
 10
0.0
 20
0.0
 30
0.0
  9
$EXTMIN
 10
-1200.15
 20
-590.1266
 30
0.0
  9
$EXTMAX
 10
1200.05
 20
590.0734
 30
0.0
  9
$LIMMIN
 10
0.0
 20
0.0
  9
$LIMMAX
 10
12.0
 20
9.0
  9
$ORTHOMODE
 70
     0
  9
$REGENMODE
 70
     1
  9
$FILLMODE
 70
     1
  9
$QTEXTMODE
 70
     0
  9
$MIRRTEXT
 70
     1
  9
$LTSCALE
 40
1.0
  9
$ATTMODE
 70
     1
  9
$TEXTSIZE
 40
0.2
  9
$TRACEWID
 40
0.05
  9
$TEXTSTYLE
  7
Standard
  9
$CLAYER
  8
0
  9
$CELTYPE
  6
ByLayer
  9
$CECOLOR
 62
   256
  9
$CELTSCALE
 40
1.0
  9
$DISPSILH
 70
     0
  9
$DIMSCALE
 40
1.0
  9
$DIMASZ
 40
0.18
  9
$DIMEXO
 40
0.0625
  9
$DIMDLI
 40
0.38
  9
$DIMRND
 40
0.0
  9
$DIMDLE
 40
0.0
  9
$DIMEXE
 40
0.18
  9
$DIMTP
 40
0.0
  9
$DIMTM
 40
0.0
  9
$DIMTXT
 40
0.18
  9
$DIMCEN
 40
0.09
  9
$DIMTSZ
 40
0.0
  9
$DIMTOL
 70
     0
  9
$DIMLIM
 70
     0
  9
$DIMTIH
 70
     1
  9
$DIMTOH
 70
     1
  9
$DIMSE1
 70
     0
  9
$DIMSE2
 70
     0
  9
$DIMTAD
 70
     0
  9
$DIMZIN
 70
     0
  9
$DIMBLK
  1

  9
$DIMASO
 70
     1
  9
$DIMSHO
 70
     1
  9
$DIMPOST
  1

  9
$DIMAPOST
  1

  9
$DIMALT
 70
     0
  9
$DIMALTD
 70
     2
  9
$DIMALTF
 40
25.4
  9
$DIMLFAC
 40
1.0
  9
$DIMTOFL
 70
     0
  9
$DIMTVP
 40
0.0
  9
$DIMTIX
 70
     0
  9
$DIMSOXD
 70
     0
  9
$DIMSAH
 70
     0
  9
$DIMBLK1
  1

  9
$DIMBLK2
  1

  9
$DIMSTYLE
  2
Standard
  9
$DIMCLRD
 70
     0
  9
$DIMCLRE
 70
     0
  9
$DIMCLRT
 70
     0
  9
$DIMTFAC
 40
1.0
  9
$DIMGAP
 40
0.09
  9
$DIMJUST
 70
     0
  9
$DIMSD1
 70
     0
  9
$DIMSD2
 70
     0
  9
$DIMTOLJ
 70
     1
  9
$DIMTZIN
 70
     0
  9
$DIMALTZ
 70
     0
  9
$DIMALTTZ
 70
     0
  9
$DIMUPT
 70
     0
  9
$DIMDEC
 70
     4
  9
$DIMTDEC
 70
     4
  9
$DIMALTU
 70
     2
  9
$DIMALTTD
 70
     2
  9
$DIMTXSTY
  7
Standard
  9
$DIMAUNIT
 70
     0
  9
$DIMADEC
 70
     0
  9
$DIMALTRND
 40
0.0
  9
$DIMAZIN
 70
     0
  9
$DIMDSEP
 70
    46
  9
$DIMATFIT
 70
     3
  9
$DIMFRAC
 70
     0
  9
$DIMLDRBLK
  1

  9
$DIMLUNIT
 70
     2
  9
$DIMLWD
 70
    -2
  9
$DIMLWE
 70
    -2
  9
$DIMTMOVE
 70
     0
  9
$DIMFXL
 40
1.0
  9
$DIMFXLON
 70
     0
  9
$DIMJOGANG
 40
0.7853981633974483
  9
$DIMTFILL
 70
     0
  9
$DIMTFILLCLR
 70
     0
  9
$DIMARCSYM
 70
     0
  9
$DIMLTYPE
  6

  9
$DIMLTEX1
  6

  9
$DIMLTEX2
  6

  9
$DIMTXTDIRECTION
 70
     0
  9
$LUNITS
 70
     2
  9
$LUPREC
 70
     4
  9
$SKETCHINC
 40
0.1
  9
$FILLETRAD
 40
0.0
  9
$AUNITS
 70
     0
  9
$AUPREC
 70
     0
  9
$MENU
  1
.
  9
$ELEVATION
 40
0.0
  9
$PELEVATION
 40
0.0
  9
$THICKNESS
 40
0.0
  9
$LIMCHECK
 70
     0
  9
$CHAMFERA
 40
0.0
  9
$CHAMFERB
 40
0.0
  9
$CHAMFERC
 40
0.0
  9
$CHAMFERD
 40
0.0
  9
$SKPOLY
 70
     0
  9
$TDCREATE
 40
2460652.613253866
  9
$TDUCREATE
 40
2460652.384087199
  9
$TDUPDATE
 40
2460652.613253912
  9
$TDUUPDATE
 40
2460652.384087246
  9
$TDINDWG
 40
0.0000000116
  9
$TDUSRTIMER
 40
0.0000000116
  9
$USRTIMER
 70
     1
  9
$ANGBASE
 50
0.0
  9
$ANGDIR
 70
     0
  9
$PDMODE
 70
     0
  9
$PDSIZE
 40
0.0
  9
$PLINEWID
 40
0.0
  9
$SPLFRAME
 70
     0
  9
$SPLINETYPE
 70
     6
  9
$SPLINESEGS
 70
     8
  9
$HANDSEED
  5
9F
  9
$SURFTAB1
 70
     6
  9
$SURFTAB2
 70
     6
  9
$SURFTYPE
 70
     6
  9
$SURFU
 70
     6
  9
$SURFV
 70
     6
  9
$UCSBASE
  2

  9
$UCSNAME
  2

  9
$UCSORG
 10
0.0
 20
0.0
 30
0.0
  9
$UCSXDIR
 10
1.0
 20
0.0
 30
0.0
  9
$UCSYDIR
 10
0.0
 20
1.0
 30
0.0
  9
$UCSORTHOREF
  2

  9
$UCSORTHOVIEW
 70
     0
  9
$UCSORGTOP
 10
0.0
 20
0.0
 30
0.0
  9
$UCSORGBOTTOM
 10
0.0
 20
0.0
 30
0.0
  9
$UCSORGLEFT
 10
0.0
 20
0.0
 30
0.0
  9
$UCSORGRIGHT
 10
0.0
 20
0.0
 30
0.0
  9
$UCSORGFRONT
 10
0.0
 20
0.0
 30
0.0
  9
$UCSORGBACK
 10
0.0
 20
0.0
 30
0.0
  9
$PUCSBASE
  2

  9
$PUCSNAME
  2

  9
$PUCSORG
 10
0.0
 20
0.0
 30
0.0
  9
$PUCSXDIR
 10
1.0
 20
0.0
 30
0.0
  9
$PUCSYDIR
 10
0.0
 20
1.0
 30
0.0
  9
$PUCSORTHOREF
  2

  9
$PUCSORTHOVIEW
 70
     0
  9
$PUCSORGTOP
 10
0.0
 20
0.0
 30
0.0
  9
$PUCSORGBOTTOM
 10
0.0
 20
0.0
 30
0.0
  9
$PUCSORGLEFT
 10
0.0
 20
0.0
 30
0.0
  9
$PUCSORGRIGHT
 10
0.0
 20
0.0
 30
0.0
  9
$PUCSORGFRONT
 10
0.0
 20
0.0
 30
0.0
  9
$PUCSORGBACK
 10
0.0
 20
0.0
 30
0.0
  9
$USERI1
 70
     0
  9
$USERI2
 70
     0
  9
$USERI3
 70
     0
  9
$USERI4
 70
     0
  9
$USERI5
 70
     0
  9
$USERR1
 40
0.0
  9
$USERR2
 40
0.0
  9
$USERR3
 40
0.0
  9
$USERR4
 40
0.0
  9
$USERR5
 40
0.0
  9
$WORLDVIEW
 70
     1
  9
$SHADEDGE
 70
     3
  9
$SHADEDIF
 70
    70
  9
$TILEMODE
 70
     1
  9
$MAXACTVP
 70
    64
  9
$PINSBASE
 10
0.0
 20
0.0
 30
0.0
  9
$PLIMCHECK
 70
     0
  9
$PEXTMIN
 10
1.000000000000000E+20
 20
1.000000000000000E+20
 30
1.000000000000000E+20
  9
$PEXTMAX
 10
-1.000000000000000E+20
 20
-1.000000000000000E+20
 30
-1.000000000000000E+20
  9
$PLIMMIN
 10
0.0
 20
0.0
  9
$PLIMMAX
 10
12.0
 20
9.0
  9
$UNITMODE
 70
     0
  9
$VISRETAIN
 70
     1
  9
$PLINEGEN
 70
     0
  9
$PSLTSCALE
 70
     1
  9
$TREEDEPTH
 70
  3020
  9
$CMLSTYLE
  2
Standard
  9
$CMLJUST
 70
     0
  9
$CMLSCALE
 40
1.0
  9
$PROXYGRAPHICS
 70
     1
  9
$MEASUREMENT
 70
     0
  9
$CELWEIGHT
370
    -1
  9
$ENDCAPS
280
     0
  9
$JOINSTYLE
280
     0
  9
$LWDISPLAY
290
     0
  9
$INSUNITS
 70
     4
  9
$HYPERLINKBASE
  1

  9
$STYLESHEET
  1

  9
$XEDIT
290
     1
  9
$CEPSNTYPE
380
     0
  9
$PSTYLEMODE
290
     1
  9
$FINGERPRINTGUID
  2
{2755f181-66d9-4c0b-b17f-958a1177d50e}
  9
$VERSIONGUID
  2
{FAEB1C32-E019-11D5-929B-00C0DF256EC4}
  9
$EXTNAMES
290
     1
  9
$PSVPSCALE
 40
0.0
  9
$OLESTARTUP
290
     0
  9
$SORTENTS
280
   127
  9
$INDEXCTL
280
     0
  9
$HIDETEXT
280
     1
  9
$XCLIPFRAME
280
     2
  9
$HALOGAP
280
     0
  9
$OBSCOLOR
 70
   257
  9
$OBSLTYPE
280
     0
  9
$INTERSECTIONDISPLAY
280
     0
  9
$INTERSECTIONCOLOR
 70
   257
  9
$DIMASSOC
280
     2
  9
$PROJECTNAME
  1

  9
$CAMERADISPLAY
290
     0
  9
$LENSLENGTH
 40
50.0
  9
$CAMERAHEIGHT
 40
0.0
  9
$STEPSPERSEC
 40
2.0
  9
$STEPSIZE
 40
6.0
  9
$3DDWFPREC
 40
2.0
  9
$PSOLWIDTH
 40
0.25
  9
$PSOLHEIGHT
 40
4.0
  9
$LOFTANG1
 40
1.570796326794897
  9
$LOFTANG2
 40
1.570796326794897
  9
$LOFTMAG1
 40
0.0
  9
$LOFTMAG2
 40
0.0
  9
$LOFTPARAM
 70
     7
  9
$LOFTNORMALS
280
     1
  9
$LATITUDE
 40
37.795
  9
$LONGITUDE
 40
-122.394
  9
$NORTHDIRECTION
 40
0.0
  9
$TIMEZONE
 70
 -8000
  9
$LIGHTGLYPHDISPLAY
280
     1
  9
$TILEMODELIGHTSYNCH
280
     1
  9
$CMATERIAL
347
44
  9
$SOLIDHIST
280
     0
  9
$SHOWHIST
280
     1
  9
$DWFFRAME
280
     2
  9
$DGNFRAME
280
     2
  9
$REALWORLDSCALE
290
     1
  9
$INTERFERECOLOR
 62
   256
  9
$CSHADOW
280
     0
  9
$SHADOWPLANELOCATION
 40
0.0
  0
ENDSEC
  0
SECTION
  2
CLASSES
  0
CLASS
  1
ACDBDICTIONARYWDFLT
  2
AcDbDictionaryWithDefault
  3
ObjectDBX Classes
 90
        0
 91
        3
280
     0
281
     0
  0
CLASS
  1
VISUALSTYLE
  2
AcDbVisualStyle
  3
ObjectDBX Classes
 90
     4095
 91
        3
280
     0
281
     0
  0
CLASS
  1
MATERIAL
  2
AcDbMaterial
  3
ObjectDBX Classes
 90
     1153
 91
        3
280
     0
281
     0
  0
CLASS
  1
SCALE
  2
AcDbScale
  3
ObjectDBX Classes
 90
     1153
 91
        3
280
     0
281
     0
  0
CLASS
  1
TABLESTYLE
  2
AcDbTableStyle
  3
ObjectDBX Classes
 90
     4095
 91
        3
280
     0
281
     0
  0
CLASS
  1
MLEADERSTYLE
  2
AcDbMLeaderStyle
  3
ACDB_MLEADERSTYLE_CLASS
 90
     4095
 91
        3
280
     0
281
     0
  0
CLASS
  1
SUN
  2
AcDbSun
  3
SCENEOE
 90
     1153
 91
        3
280
     0
281
     0
  0
CLASS
  1
DICTIONARYVAR
  2
AcDbDictionaryVar
  3
ObjectDBX Classes
 90
        0
 91
        3
280
     0
281
     0
  0
CLASS
  1
CELLSTYLEMAP
  2
AcDbCellStyleMap
  3
ObjectDBX Classes
 90
     1152
 91
        3
280
     0
281
     0
  0
ENDSEC
  0
SECTION
  2
TABLES
  0
TABLE
  2
VPORT
  5
8
330
0
100
AcDbSymbolTable
 70
     1
  0
VPORT
  5
29
330
8
100
AcDbSymbolTableRecord
100
AcDbViewportTableRecord
  2
*Active
 70
     0
 10
0.0
 20
0.0
 11
1.0
 21
1.0
 12
10.42990654205607
 22
4.5
 13
0.0
 23
0.0
 14
0.5
 24
0.5
 15
0.5
 25
0.5
 16
0.0
 26
0.0
 36
1.0
 17
0.0
 27
0.0
 37
0.0
 40
9.0
 41
1.972972972850329
 42
50.0
 43
0.0
 44
0.0
 50
0.0
 51
0.0
 71
     0
 72
   100
 73
     1
 74
     3
 75
     0
 76
     0
 77
     0
 78
     0
281
     0
 65
     1
110
0.0
120
0.0
130
0.0
111
1.0
121
0.0
131
0.0
112
0.0
122
1.0
132
0.0
 79
     0
146
0.0
348
2F
 60
     3
 61
     5
292
     1
282
     1
141
0.0
142
0.0
 63
   250
361
5D
  0
ENDTAB
  0
TABLE
  2
LTYPE
  5
5
330
0
100
AcDbSymbolTable
 70
     1
  0
LTYPE
  5
14
330
5
100
AcDbSymbolTableRecord
100
AcDbLinetypeTableRecord
  2
ByBlock
 70
     0
  3

 72
    65
 73
     0
 40
0.0
  0
LTYPE
  5
15
330
5
100
AcDbSymbolTableRecord
100
AcDbLinetypeTableRecord
  2
ByLayer
 70
     0
  3

 72
    65
 73
     0
 40
0.0
  0
LTYPE
  5
16
330
5
100
AcDbSymbolTableRecord
100
AcDbLinetypeTableRecord
  2
Continuous
 70
     0
  3
Solid line
 72
    65
 73
     0
 40
0.0
  0
ENDTAB
  0
TABLE
  2
LAYER
  5
2
330
0
100
AcDbSymbolTable
 70
     2
  0
LAYER
  5
10
330
2
100
AcDbSymbolTableRecord
100
AcDbLayerTableRecord
  2
0
 70
     0
 62
     7
  6
Continuous
370
    -3
390
F
347
46
348
0
  0
LAYER
  5
5F
330
2
100
AcDbSymbolTableRecord
100
AcDbLayerTableRecord
  2
Layer 1
 70
     0
 62
     7
  6
Continuous
370
    -3
390
F
347
46
348
0
  0
ENDTAB
  0
TABLE
  2
STYLE
  5
3
330
0
100
AcDbSymbolTable
 70
     1
  0
STYLE
  5
11
330
3
100
AcDbSymbolTableRecord
100
AcDbTextStyleTableRecord
  2
Standard
 70
     0
 40
0.0
 41
1.0
 50
0.0
 71
     0
 42
0.2
  3
txt
  4

  0
ENDTAB
  0
TABLE
  2
VIEW
  5
6
330
0
100
AcDbSymbolTable
 70
     0
  0
ENDTAB
  0
TABLE
  2
UCS
  5
7
330
0
100
AcDbSymbolTable
 70
     0
  0
ENDTAB
  0
TABLE
  2
APPID
  5
9
330
0
100
AcDbSymbolTable
 70
     2
  0
APPID
  5
12
330
9
100
AcDbSymbolTableRecord
100
AcDbRegAppTableRecord
  2
ACAD
 70
     0
  0
APPID
  5
5E
330
9
100
AcDbSymbolTableRecord
100
AcDbRegAppTableRecord
  2
ODA
 70
     0
  0
ENDTAB
  0
TABLE
  2
DIMSTYLE
  5
A
330
0
100
AcDbSymbolTable
 70
     1
100
AcDbDimStyleTable
  0
DIMSTYLE
105
27
330
A
100
AcDbSymbolTableRecord
100
AcDbDimStyleTableRecord
  2
Standard
 70
     0
178
     0
340
11
  0
ENDTAB
  0
TABLE
  2
BLOCK_RECORD
  5
1
330
0
100
AcDbSymbolTable
 70
     1
  0
BLOCK_RECORD
  5
1F
330
1
100
AcDbSymbolTableRecord
100
AcDbBlockTableRecord
  2
*Model_Space
340
22
 70
     0
280
     1
281
     0
  0
BLOCK_RECORD
  5
1B
330
1
100
AcDbSymbolTableRecord
100
AcDbBlockTableRecord
  2
*Paper_Space
340
1E
 70
     0
280
     1
281
     0
  0
BLOCK_RECORD
  5
23
330
1
100
AcDbSymbolTableRecord
100
AcDbBlockTableRecord
  2
*Paper_Space0
340
26
 70
     0
280
     1
281
     0
  0
ENDTAB
  0
ENDSEC
  0
SECTION
  2
BLOCKS
  0
BLOCK
  5
20
330
1F
100
AcDbEntity
  8
0
100
AcDbBlockBegin
  2
*Model_Space
 70
     0
 10
0.0
 20
0.0
 30
0.0
  3
*Model_Space
  1

  0
ENDBLK
  5
21
330
1F
100
AcDbEntity
  8
0
100
AcDbBlockEnd
  0
BLOCK
  5
1C
330
1B
100
AcDbEntity
 67
     1
  8
0
100
AcDbBlockBegin
  2
*Paper_Space
 70
     0
 10
0.0
 20
0.0
 30
0.0
  3
*Paper_Space
  1

  0
ENDBLK
  5
1D
330
1B
100
AcDbEntity
 67
     1
  8
0
100
AcDbBlockEnd
  0
BLOCK
  5
24
330
23
100
AcDbEntity
  8
0
100
AcDbBlockBegin
  2
*Paper_Space0
 70
     0
 10
0.0
 20
0.0
 30
0.0
  3
*Paper_Space0
  1

  0
ENDBLK
  5
25
330
23
100
AcDbEntity
  8
0
100
AcDbBlockEnd
  0
ENDSEC
  0
SECTION
  2
ENTITIES
  0
SPLINE
  5
60
330
1F
100
AcDbEntity
  8
Layer 1
 62
   250
370
    20
100
AcDbSpline
210
0.0
220
0.0
230
1.0
 70
    11
 71
     3
 72
    29
 73
    25
 74
     0
 42
0.0000000001
 43
0.0000000001
 40
0.0
 40
0.0
 40
0.0
 40
0.0
 40
0.125
 40
0.125
 40
0.125
 40
0.25
 40
0.25
 40
0.25
 40
0.375
 40
0.375
 40
0.375
 40
0.5
 40
0.5
 40
0.5
 40
0.625
 40
0.625
 40
0.625
 40
0.75
 40
0.75
 40
0.75
 40
0.875
 40
0.875
 40
0.875
 40
1.0
 40
1.0
 40
1.0
 40
1.0
 10
1130.6863
 20
-133.7127
 30
0.0
 10
1141.8396
 20
-113.5105
 30
0.0
 10
1165.2939
 20
-106.4883
 30
0.0
 10
1168.5975
 20
-77.8797
 30
0.0
 10
1167.0618
 20
-66.8367
 30
0.0
 10
1162.7453
 20
-58.77
 30
0.0
 10
1161.4897
 20
-47.4258
 30
0.0
 10
1174.09
 20
-42.3095
 30
0.0
 10
1185.2244
 20
-35.6259
 30
0.0
 10
1187.5536
 20
-19.5097
 30
0.0
 10
1190.5863
 20
-17.3509
 30
0.0
 10
1195.0303
 20
-15.7804
 30
0.0
 10
1199.95
 20
-14.9228
 30
0.0
 10
1199.95
 20
-14.9228
 30
0.0
 10
1199.95
 20
-217.7241
 30
0.0
 10
1199.95
 20
-217.7241
 30
0.0
 10
1193.0484
 20
-208.5952
 30
0.0
 10
1187.4374
 20
-197.8252
 30
0.0
 10
1180.4448
 20
-189.5447
 30
0.0
 10
1165.0531
 20
-171.3193
 30
0.0
 10
1146.2886
 20
-157.4006
 30
0.0
 10
1130.6863
 20
-138.7878
 30
0.0
 10
1130.6863
 20
-137.0957
 30
0.0
 10
1130.6863
 20
-135.4047
 30
0.0
 10
1130.6863
 20
-133.7127
 30
0.0
  0
SPLINE
  5
61
330
1F
100
AcDbEntity
  8
Layer 1
 62
   250
370
    20
100
AcDbSpline
210
0.0
220
0.0
230
1.0
 70
    11
 71
     3
 72
    26
 73
    22
 74
     0
 42
0.0000000001
 43
0.0000000001
 40
0.0
 40
0.0
 40
0.0
 40
0.0
 40
0.1428571428571428
 40
0.1428571428571428
 40
0.1428571428571428
 40
0.2857142857142857
 40
0.2857142857142857
 40
0.2857142857142857
 40
0.4285714285714285
 40
0.4285714285714285
 40
0.4285714285714285
 40
0.5714285714285714
 40
0.5714285714285714
 40
0.5714285714285714
 40
0.7142857142857142
 40
0.7142857142857142
 40
0.7142857142857142
 40
0.8571428571428571
 40
0.8571428571428571
 40
0.8571428571428571
 40
1.0
 40
1.0
 40
1.0
 40
1.0
 10
1154.3809
 20
155.5984
 30
0.0
 10
1159.1352
 20
170.9079
 30
0.0
 10
1173.0342
 20
176.0203
 30
0.0
 10
1182.8144
 20
188.5904
 30
0.0
 10
1188.8707
 20
196.3743
 30
0.0
 10
1192.1895
 20
210.7878
 30
0.0
 10
1199.95
 20
219.5116
 30
0.0
 10
1199.95
 20
219.5116
 30
0.0
 10
1199.95
 20
13.5251
 30
0.0
 10
1199.95
 20
13.5251
 30
0.0
 10
1182.5277
 20
16.04
 30
0.0
 10
1166.9268
 20
26.4086
 30
0.0
 10
1161.4897
 20
41.3964
 30
0.0
 10
1156.4602
 20
55.2556
 30
0.0
 10
1164.0931
 20
72.1938
 30
0.0
 10
1159.12
 20
87.0774
 30
0.0
 10
1153.1073
 20
105.0697
 30
0.0
 10
1128.178
 20
109.2862
 30
0.0
 10
1128.3168
 20
127.6824
 30
0.0
 10
1128.4403
 20
143.8513
 30
0.0
 10
1146.1067
 20
151.7991
 30
0.0
 10
1154.3809
 20
155.5984
 30
0.0
  0
SPLINE
  5
62
330
1F
100
AcDbEntity
  8
Layer 1
 62
   250
370
    20
100
AcDbSpline
210
0.0
220
0.0
230
1.0
 70
    11
 71
     3
 72
    23
 73
    19
 74
     0
 42
0.0000000001
 43
0.0000000001
 40
0.0
 40
0.0
 40
0.0
 40
0.0
 40
0.1666666666666667
 40
0.1666666666666667
 40
0.1666666666666667
 40
0.3333333333333333
 40
0.3333333333333333
 40
0.3333333333333333
 40
0.5
 40
0.5
 40
0.5
 40
0.6666666666666666
 40
0.6666666666666666
 40
0.6666666666666666
 40
0.8333333333333333
 40
0.8333333333333333
 40
0.8333333333333333
 40
1.0
 40
1.0
 40
1.0
 40
1.0
 10
1097.1662
 20
-590.0266
 30
0.0
 10
1094.0502
 20
-580.9327
 30
0.0
 10
1094.7382
 20
-570.4589
 30
0.0
 10
1102.2526
 20
-557.5308
 30
0.0
 10
1108.6603
 20
-546.505
 30
0.0
 10
1139.9053
 20
-535.4667
 30
0.0
 10
1154.3809
 20
-524.5388
 30
0.0
 10
1168.1964
 20
-514.1087
 30
0.0
 10
1186.6716
 20
-497.839
 30
0.0
 10
1197.0313
 20
-483.9337
 30
0.0
 10
1198.1128
 20
-482.4823
 30
0.0
 10
1199.0743
 20
-480.9906
 30
0.0
 10
1199.95
 20
-479.4813
 30
0.0
 10
1199.95
 20
-479.4813
 30
0.0
 10
1199.95
 20
-590.0266
 30
0.0
 10
1199.95
 20
-590.0266
 30
0.0
 10
1199.95
 20
-590.0266
 30
0.0
 10
1097.1662
 20
-590.0266
 30
0.0
 10
1097.1662
 20
-590.0266
 30
0.0
  0
SPLINE
  5
63
330
1F
100
AcDbEntity
  8
Layer 1
 62
   250
370
    20
100
AcDbSpline
210
0.0
220
0.0
230
1.0
 70
    11
 71
     3
 72
    20
 73
    16
 74
     0
 42
0.0000000001
 43
0.0000000001
 40
0.0
 40
0.0
 40
0.0
 40
0.0
 40
0.2
 40
0.2
 40
0.2
 40
0.4
 40
0.4
 40
0.4
 40
0.6000000000000001
 40
0.6000000000000001
 40
0.6000000000000001
 40
0.8
 40
0.8
 40
0.8
 40
1.0
 40
1.0
 40
1.0
 40
1.0
 10
1199.95
 20
460.3088
 30
0.0
 10
1194.647
 20
469.8374
 30
0.0
 10
1190.0725
 20
480.0927
 30
0.0
 10
1182.8144
 20
488.0554
 30
0.0
 10
1158.5836
 20
514.6391
 30
0.0
 10
1127.3021
 20
530.4214
 30
0.0
 10
1097.5135
 20
551.5004
 30
0.0
 10
1096.8017
 20
566.2689
 30
0.0
 10
1093.5826
 20
578.3818
 30
0.0
 10
1094.5638
 20
589.9734
 30
0.0
 10
1094.5638
 20
589.9734
 30
0.0
 10
1199.95
 20
589.9734
 30
0.0
 10
1199.95
 20
589.9734
 30
0.0
 10
1199.95
 20
589.9734
 30
0.0
 10
1199.95
 20
460.3088
 30
0.0
 10
1199.95
 20
460.3088
 30
0.0
  0
SPLINE
  5
64
330
1F
100
AcDbEntity
  8
Layer 1
 62
   250
370
    20
100
AcDbSpline
210
0.0
220
0.0
230
1.0
 70
    11
 71
     3
 72
    17
 73
    13
 74
     0
 42
0.0000000001
 43
0.0000000001
 40
0.0
 40
0.0
 40
0.0
 40
0.0
 40
0.25
 40
0.25
 40
0.25
 40
0.5
 40
0.5
 40
0.5
 40
0.75
 40
0.75
 40
0.75
 40
1.0
 40
1.0
 40
1.0
 40
1.0
 10
1040.6462
 20
-88.0317
 30
0.0
 10
1041.745
 20
-70.5967
 30
0.0
 10
1048.9488
 20
-59.7023
 30
0.0
 10
1050.1246
 20
-42.3507
 30
0.0
 10
1076.1421
 20
-32.5805
 30
0.0
 10
1089.7607
 20
-57.1778
 30
0.0
 10
1114.1
 20
-57.5777
 30
0.0
 10
1128.1933
 20
-85.6923
 30
0.0
 10
1118.1226
 20
-114.697
 30
0.0
 10
1095.1439
 20
-115.9477
 30
0.0
 10
1072.8751
 20
-117.1601
 30
0.0
 10
1062.7125
 20
-86.5479
 30
0.0
 10
1040.6462
 20
-88.0317
 30
0.0
  0
SPLINE
  5
65
330
1F
100
AcDbEntity
  8
Layer 1
 62
   250
370
    20
100
AcDbSpline
210
0.0
220
0.0
230
1.0
 70
    11
 71
     3
 72
    17
 73
    13
 74
     0
 42
0.0000000001
 43
0.0000000001
 40
0.0
 40
0.0
 40
0.0
 40
0.0
 40
0.25
 40
0.25
 40
0.25
 40
0.5
 40
0.5
 40
0.5
 40
0.75
 40
0.75
 40
0.75
 40
1.0
 40
1.0
 40
1.0
 40
1.0
 10
1118.8391
 20
64.2364
 30
0.0
 10
1100.6818
 20
49.8621
 30
0.0
 10
1076.6517
 20
31.0516
 30
0.0
 10
1050.1246
 20
33.7824
 30
0.0
 10
1032.4581
 20
64.2699
 30
0.0
 10
1028.5178
 20
73.9251
 30
0.0
 10
1061.972
 20
92.1533
 30
0.0
 10
1070.5978
 20
96.8524
 30
0.0
 10
1078.0084
 20
106.6859
 30
0.0
 10
1083.2968
 20
107.3803
 30
0.0
 10
1102.7839
 20
109.9404
 30
0.0
 10
1121.1032
 20
93.2535
 30
0.0
 10
1118.8391
 20
64.2364
 30
0.0
  0
SPLINE
  5
66
330
1F
100
AcDbEntity
  8
Layer 1
 62
   250
370
    20
100
AcDbSpline
210
0.0
220
0.0
230
1.0
 70
    11
 71
     3
 72
    14
 73
    10
 74
     0
 42
0.0000000001
 43
0.0000000001
 40
0.0
 40
0.0
 40
0.0
 40
0.0
 40
0.3333333333333333
 40
0.3333333333333333
 40
0.3333333333333333
 40
0.6666666666666666
 40
0.6666666666666666
 40
0.6666666666666666
 40
1.0
 40
1.0
 40
1.0
 40
1.0
 10
938.74
 20
-590.0266
 30
0.0
 10
957.5212
 20
-568.5424
 30
0.0
 10
1006.881
 20
-569.1128
 30
0.0
 10
1038.2765
 20
-570.2198
 30
0.0
 10
1045.2339
 20
-576.4354
 30
0.0
 10
1052.0757
 20
-582.8664
 30
0.0
 10
1057.8127
 20
-590.0266
 30
0.0
 10
1057.8127
 20
-590.0266
 30
0.0
 10
938.74
 20
-590.0266
 30
0.0
 10
938.74
 20
-590.0266
 30
0.0
  0
SPLINE
  5
67
330
1F
100
AcDbEntity
  8
Layer 1
 62
   250
370
    20
100
AcDbSpline
210
0.0
220
0.0
230
1.0
 70
    11
 71
     3
 72
    23
 73
    19
 74
     0
 42
0.0000000001
 43
0.0000000001
 40
0.0
 40
0.0
 40
0.0
 40
0.0
 40
0.1666666666666667
 40
0.1666666666666667
 40
0.1666666666666667
 40
0.3333333333333333
 40
0.3333333333333333
 40
0.3333333333333333
 40
0.5
 40
0.5
 40
0.5
 40
0.6666666666666666
 40
0.6666666666666666
 40
0.6666666666666666
 40
0.8333333333333333
 40
0.8333333333333333
 40
0.8333333333333333
 40
1.0
 40
1.0
 40
1.0
 40
1.0
 10
1066.662
 20
589.9734
 30
0.0
 10
1066.678
 20
589.8384
 30
0.0
 10
1066.6931
 20
589.7037
 30
0.0
 10
1066.7102
 20
589.5684
 30
0.0
 10
1059.1732
 20
589.1819
 30
0.0
 10
1056.2851
 20
583.8152
 30
0.0
 10
1047.7549
 20
584.4925
 30
0.0
 10
1042.3746
 20
576.7202
 30
0.0
 10
1043.6364
 20
561.8337
 30
0.0
 10
1035.9079
 20
556.5765
 30
0.0
 10
990.4212
 20
551.8477
 30
0.0
 10
965.3968
 20
569.0343
 30
0.0
 10
934.0204
 20
579.4174
 30
0.0
 10
933.5198
 20
583.4205
 30
0.0
 10
933.5139
 20
586.8938
 30
0.0
 10
933.8755
 20
589.9734
 30
0.0
 10
933.8755
 20
589.9734
 30
0.0
 10
1066.662
 20
589.9734
 30
0.0
 10
1066.662
 20
589.9734
 30
0.0
  0
SPLINE
  5
68
330
1F
100
AcDbEntity
  8
Layer 1
 62
   250
370
    20
100
AcDbSpline
210
0.0
220
0.0
230
1.0
 70
    11
 71
     3
 72
    20
 73
    16
 74
     0
 42
0.0000000001
 43
0.0000000001
 40
0.0
 40
0.0
 40
0.0
 40
0.0
 40
0.2
 40
0.2
 40
0.2
 40
0.4
 40
0.4
 40
0.4
 40
0.6000000000000001
 40
0.6000000000000001
 40
0.6000000000000001
 40
0.8
 40
0.8
 40
0.8
 40
1.0
 40
1.0
 40
1.0
 40
1.0
 10
851.089
 20
26.1693
 30
0.0
 10
866.058
 20
44.5866
 30
0.0
 10
917.4249
 20
45.7664
 30
0.0
 10
950.6068
 20
51.5474
 30
0.0
 10
973.3877
 20
55.5165
 30
0.0
 10
1000.5471
 20
63.8566
 30
0.0
 10
1000.3652
 20
23.6314
 30
0.0
 10
997.4494
 20
22.5245
 30
0.0
 10
995.4997
 20
20.3826
 30
0.0
 10
995.6261
 20
16.0193
 30
0.0
 10
951.7576
 20
12.2238
 30
0.0
 10
893.9302
 20
11.1466
 30
0.0
 10
855.8273
 20
16.0193
 30
0.0
 10
852.6473
 20
17.6863
 30
0.0
 10
851.4159
 20
21.4425
 30
0.0
 10
851.089
 20
26.1693
 30
0.0
  0
SPLINE
  5
69
330
1F
100
AcDbEntity
  8
Layer 1
 62
   250
370
    20
100
AcDbSpline
210
0.0
220
0.0
230
1.0
 70
    11
 71
     3
 72
    20
 73
    16
 74
     0
 42
0.0000000001
 43
0.0000000001
 40
0.0
 40
0.0
 40
0.0
 40
0.0
 40
0.2
 40
0.2
 40
0.2
 40
0.4
 40
0.4
 40
0.4
 40
0.6000000000000001
 40
0.6000000000000001
 40
0.6000000000000001
 40
0.8
 40
0.8
 40
0.8
 40
1.0
 40
1.0
 40
1.0
 40
1.0
 10
851.089
 20
-22.0478
 30
0.0
 10
860.5326
 20
-9.8383
 30
0.0
 10
895.63
 20
-14.4337
 30
0.0
 10
929.2811
 20
-14.4337
 30
0.0
 10
981.8571
 20
-14.4337
 30
0.0
 10
1028.6942
 20
-15.2884
 30
0.0
 10
993.2574
 20
-65.1907
 30
0.0
 10
971.1668
 20
-74.4469
 30
0.0
 10
949.6442
 20
-58.0582
 30
0.0
 10
926.9115
 20
-52.5017
 30
0.0
 10
899.3609
 20
-45.7654
 30
0.0
 10
868.7949
 20
-53.2537
 30
0.0
 10
851.089
 20
-29.6608
 30
0.0
 10
851.089
 20
-27.1237
 30
0.0
 10
851.089
 20
-24.5857
 30
0.0
 10
851.089
 20
-22.0478
 30
0.0
  0
SPLINE
  5
6A
330
1F
100
AcDbEntity
  8
Layer 1
 62
   250
370
    20
100
AcDbSpline
210
0.0
220
0.0
230
1.0
 70
    11
 71
     3
 72
    17
 73
    13
 74
     0
 42
0.0000000001
 43
0.0000000001
 40
0.0
 40
0.0
 40
0.0
 40
0.0
 40
0.25
 40
0.25
 40
0.25
 40
0.5
 40
0.5
 40
0.5
 40
0.75
 40
0.75
 40
0.75
 40
1.0
 40
1.0
 40
1.0
 40
1.0
 10
931.6508
 20
-346.8907
 30
0.0
 10
904.6178
 20
-372.6006
 30
0.0
 10
833.4414
 20
-364.0131
 30
0.0
 10
846.3497
 20
-318.9738
 30
0.0
 10
850.5767
 20
-304.2245
 30
0.0
 10
862.1186
 20
-303.5559
 30
0.0
 10
872.4138
 20
-291.0578
 30
0.0
 10
882.2683
 20
-296.2988
 30
0.0
 10
894.7237
 20
-292.1004
 30
0.0
 10
905.5867
 20
-291.0578
 30
0.0
 10
924.0422
 20
-302.097
 30
0.0
 10
943.7389
 20
-316.5259
 30
0.0
 10
931.6508
 20
-346.8907
 30
0.0
  0
SPLINE
  5
6B
330
1F
100
AcDbEntity
  8
Layer 1
 62
   250
370
    20
100
AcDbSpline
210
0.0
220
0.0
230
1.0
 70
    11
 71
     3
 72
    11
 73
     7
 74
     0
 42
0.0000000001
 43
0.0000000001
 40
0.0
 40
0.0
 40
0.0
 40
0.0
 40
0.5
 40
0.5
 40
0.5
 40
1.0
 40
1.0
 40
1.0
 40
1.0
 10
841.6104
 20
338.3224
 30
0.0
 10
863.0777
 20
364.7191
 30
0.0
 10
926.4951
 20
359.435
 30
0.0
 10
931.6508
 20
325.6334
 30
0.0
 10
940.9716
 20
264.5374
 30
0.0
 10
814.0716
 20
270.8028
 30
0.0
 10
841.6104
 20
338.3224
 30
0.0
  0
SPLINE
  5
6C
330
1F
100
AcDbEntity
  8
Layer 1
 62
   250
370
    20
100
AcDbSpline
210
0.0
220
0.0
230
1.0
 70
    11
 71
     3
 72
    47
 73
    43
 74
     0
 42
0.0000000001
 43
0.0000000001
 40
0.0
 40
0.0
 40
0.0
 40
0.0
 40
0.0714285714285714
 40
0.0714285714285714
 40
0.0714285714285714
 40
0.1428571428571428
 40
0.1428571428571428
 40
0.1428571428571428
 40
0.2142857142857143
 40
0.2142857142857143
 40
0.2142857142857143
 40
0.2857142857142857
 40
0.2857142857142857
 40
0.2857142857142857
 40
0.3571428571428571
 40
0.3571428571428571
 40
0.3571428571428571
 40
0.4285714285714285
 40
0.4285714285714285
 40
0.4285714285714285
 40
0.5
 40
0.5
 40
0.5
 40
0.5714285714285714
 40
0.5714285714285714
 40
0.5714285714285714
 40
0.6428571428571428
 40
0.6428571428571428
 40
0.6428571428571428
 40
0.7142857142857142
 40
0.7142857142857142
 40
0.7142857142857142
 40
0.7857142857142857
 40
0.7857142857142857
 40
0.7857142857142857
 40
0.8571428571428571
 40
0.8571428571428571
 40
0.8571428571428571
 40
0.9285714285714285
 40
0.9285714285714285
 40
0.9285714285714285
 40
1.0
 40
1.0
 40
1.0
 40
1.0
 10
706.5521
 20
-121.0228
 30
0.0
 10
744.2743
 20
-116.0878
 30
0.0
 10
788.5198
 20
-114.2816
 30
0.0
 10
825.0241
 20
-121.0228
 30
0.0
 10
837.5625
 20
-123.3382
 30
0.0
 10
848.1328
 20
-131.2121
 30
0.0
 10
860.5665
 20
-133.7127
 30
0.0
 10
899.4532
 20
-141.532
 30
0.0
 10
929.3179
 20
-146.7221
 30
0.0
 10
962.4541
 20
-161.6287
 30
0.0
 10
1019.3366
 20
-187.2187
 30
0.0
 10
1083.6978
 20
-233.7208
 30
0.0
 10
1104.6223
 20
-285.9827
 30
0.0
 10
1108.9443
 20
-296.7764
 30
0.0
 10
1105.8842
 20
-310.9924
 30
0.0
 10
1116.4695
 20
-318.9738
 30
0.0
 10
1120.2334
 20
-404.2181
 30
0.0
 10
1069.5893
 20
-431.1826
 30
0.0
 10
1021.691
 20
-461.0928
 30
0.0
 10
995.453
 20
-465.5079
 30
0.0
 10
984.9726
 20
-453.0452
 30
0.0
 10
974.3012
 20
-440.7898
 30
0.0
 10
983.7055
 20
-420.4081
 30
0.0
 10
1001.2358
 20
-408.7301
 30
0.0
 10
1009.8429
 20
-387.4958
 30
0.0
 10
1026.8834
 20
-301.5531
 30
0.0
 10
984.9609
 20
-265.9435
 30
0.0
 10
943.498
 20
-235.2258
 30
0.0
 10
924.7425
 20
-238.3949
 30
0.0
 10
919.6549
 20
-226.923
 30
0.0
 10
907.9564
 20
-222.5367
 30
0.0
 10
821.1276
 20
-202.8198
 30
0.0
 10
767.4449
 20
-249.7237
 30
0.0
 10
739.7231
 20
-308.8228
 30
0.0
 10
704.3766
 20
-290.0334
 30
0.0
 10
688.247
 20
-255.2794
 30
0.0
 10
678.1183
 20
-219.9988
 30
0.0
 10
670.5097
 20
-193.4985
 30
0.0
 10
726.2514
 20
-189.1726
 30
0.0
 10
727.8768
 20
-166.7038
 30
0.0
 10
729.4073
 20
-145.549
 30
0.0
 10
702.7603
 20
-141.8763
 30
0.0
 10
706.5521
 20
-121.0228
 30
0.0
  0
SPLINE
  5
6D
330
1F
100
AcDbEntity
  8
Layer 1
 62
   250
370
    20
100
AcDbSpline
210
0.0
220
0.0
230
1.0
 70
    11
 71
     3
 72
    38
 73
    34
 74
     0
 42
0.0000000001
 43
0.0000000001
 40
0.0
 40
0.0
 40
0.0
 40
0.0
 40
0.0909090909090909
 40
0.0909090909090909
 40
0.0909090909090909
 40
0.1818181818181818
 40
0.1818181818181818
 40
0.1818181818181818
 40
0.2727272727272727
 40
0.2727272727272727
 40
0.2727272727272727
 40
0.3636363636363636
 40
0.3636363636363636
 40
0.3636363636363636
 40
0.4545454545454546
 40
0.4545454545454546
 40
0.4545454545454546
 40
0.5454545454545454
 40
0.5454545454545454
 40
0.5454545454545454
 40
0.6363636363636364
 40
0.6363636363636364
 40
0.6363636363636364
 40
0.7272727272727273
 40
0.7272727272727273
 40
0.7272727272727273
 40
0.8181818181818182
 40
0.8181818181818182
 40
0.8181818181818182
 40
0.9090909090909092
 40
0.9090909090909092
 40
0.9090909090909092
 40
1.0
 40
1.0
 40
1.0
 40
1.0
 10
777.6352
 20
236.8094
 30
0.0
 10
873.5583
 20
163.0407
 30
0.0
 10
1062.7895
 20
257.449
 30
0.0
 10
997.9957
 20
391.6174
 30
0.0
 10
992.4917
 20
403.0172
 30
0.0
 10
970.7441
 20
419.3387
 30
0.0
 10
971.9316
 20
432.2225
 30
0.0
 10
973.4863
 20
449.0753
 30
0.0
 10
998.7336
 20
455.3406
 30
0.0
 10
1021.691
 20
449.9875
 30
0.0
 10
1053.9406
 20
442.4665
 30
0.0
 10
1090.7816
 20
396.7691
 30
0.0
 10
1106.992
 20
366.2394
 30
0.0
 10
1115.103
 20
307.1615
 30
0.0
 10
1096.2767
 20
261.5467
 30
0.0
 10
1066.7102
 20
229.1964
 30
0.0
 10
1023.0236
 20
181.3898
 30
0.0
 10
953.8612
 20
152.1588
 30
0.0
 10
886.6306
 20
132.7584
 30
0.0
 10
838.8925
 20
118.9817
 30
0.0
 10
759.5925
 20
100.9193
 30
0.0
 10
701.8128
 20
112.4554
 30
0.0
 10
697.8822
 20
133.7329
 30
0.0
 10
726.4583
 20
138.4588
 30
0.0
 10
725.5071
 20
158.1364
 30
0.0
 10
724.4747
 20
179.5693
 30
0.0
 10
697.3763
 20
180.1573
 30
0.0
 10
678.1183
 20
191.1284
 30
0.0
 10
666.9158
 20
226.6747
 30
0.0
 10
708.1559
 20
302.684
 30
0.0
 10
732.6161
 20
300.2554
 30
0.0
 10
751.3885
 20
298.3917
 30
0.0
 10
760.4004
 20
245.6991
 30
0.0
 10
777.6352
 20
236.8094
 30
0.0
  0
SPLINE
  5
6E
330
1F
100
AcDbEntity
  8
Layer 1
 62
   250
370
    20
100
AcDbSpline
210
0.0
220
0.0
230
1.0
 70
    11
 71
     3
 72
    23
 73
    19
 74
     0
 42
0.0000000001
 43
0.0000000001
 40
0.0
 40
0.0
 40
0.0
 40
0.0
 40
0.1666666666666667
 40
0.1666666666666667
 40
0.1666666666666667
 40
0.3333333333333333
 40
0.3333333333333333
 40
0.3333333333333333
 40
0.5
 40
0.5
 40
0.5
 40
0.6666666666666666
 40
0.6666666666666666
 40
0.6666666666666666
 40
0.8333333333333333
 40
0.8333333333333333
 40
0.8333333333333333
 40
1.0
 40
1.0
 40
1.0
 40
1.0
 10
889.0003
 20
-542.3038
 30
0.0
 10
879.4344
 20
-558.1965
 30
0.0
 10
877.4456
 20
-573.8749
 30
0.0
 10
877.9516
 20
-590.0266
 30
0.0
 10
877.9516
 20
-590.0266
 30
0.0
 10
684.2963
 20
-590.0266
 30
0.0
 10
684.2963
 20
-590.0266
 30
0.0
 10
676.4946
 20
-575.2916
 30
0.0
 10
657.5667
 20
-570.1375
 30
0.0
 10
642.5758
 20
-560.0688
 30
0.0
 10
633.5953
 20
-518.5611
 30
0.0
 10
715.9283
 20
-485.7792
 30
0.0
 10
777.6352
 20
-494.0848
 30
0.0
 10
787.1039
 20
-495.3586
 30
0.0
 10
796.2206
 20
-502.1179
 30
0.0
 10
806.0689
 20
-504.2358
 30
0.0
 10
840.3148
 20
-511.6023
 30
0.0
 10
879.5898
 20
-514.6467
 30
0.0
 10
889.0003
 20
-542.3038
 30
0.0
  0
SPLINE
  5
6F
330
1F
100
AcDbEntity
  8
Layer 1
 62
   250
370
    20
100
AcDbSpline
210
0.0
220
0.0
230
1.0
 70
    11
 71
     3
 72
    26
 73
    22
 74
     0
 42
0.0000000001
 43
0.0000000001
 40
0.0
 40
0.0
 40
0.0
 40
0.0
 40
0.1428571428571428
 40
0.1428571428571428
 40
0.1428571428571428
 40
0.2857142857142857
 40
0.2857142857142857
 40
0.2857142857142857
 40
0.4285714285714285
 40
0.4285714285714285
 40
0.4285714285714285
 40
0.5714285714285714
 40
0.5714285714285714
 40
0.5714285714285714
 40
0.7142857142857142
 40
0.7142857142857142
 40
0.7142857142857142
 40
0.8571428571428571
 40
0.8571428571428571
 40
0.8571428571428571
 40
1.0
 40
1.0
 40
1.0
 40
1.0
 10
673.379
 20
571.8034
 30
0.0
 10
676.939
 20
577.2779
 30
0.0
 10
678.1837
 20
583.4168
 30
0.0
 10
678.5303
 20
589.9734
 30
0.0
 10
678.5303
 20
589.9734
 30
0.0
 10
870.9135
 20
589.9734
 30
0.0
 10
870.9135
 20
589.9734
 30
0.0
 10
869.7693
 20
580.5591
 30
0.0
 10
869.8273
 20
570.5496
 30
0.0
 10
872.4138
 20
559.1144
 30
0.0
 10
877.6618
 20
549.5082
 30
0.0
 10
888.3706
 20
545.7511
 30
0.0
 10
884.2611
 20
526.1224
 30
0.0
 10
861.1406
 20
506.0218
 30
0.0
 10
810.3909
 20
489.592
 30
0.0
 10
749.2015
 20
490.5924
 30
0.0
 10
731.0425
 20
490.8898
 30
0.0
 10
708.7049
 20
487.9394
 30
0.0
 10
697.0735
 20
490.5924
 30
0.0
 10
656.5643
 20
499.8351
 30
0.0
 10
605.8369
 20
556.8805
 30
0.0
 10
673.379
 20
571.8034
 30
0.0
  0
SPLINE
  5
70
330
1F
100
AcDbEntity
  8
Layer 1
 62
   250
370
    20
100
AcDbSpline
210
0.0
220
0.0
230
1.0
 70
    11
 71
     3
 72
    23
 73
    19
 74
     0
 42
0.0000000001
 43
0.0000000001
 40
0.0
 40
0.0
 40
0.0
 40
0.0
 40
0.1666666666666667
 40
0.1666666666666667
 40
0.1666666666666667
 40
0.3333333333333333
 40
0.3333333333333333
 40
0.3333333333333333
 40
0.5
 40
0.5
 40
0.5
 40
0.6666666666666666
 40
0.6666666666666666
 40
0.6666666666666666
 40
0.8333333333333333
 40
0.8333333333333333
 40
0.8333333333333333
 40
1.0
 40
1.0
 40
1.0
 40
1.0
 10
647.3151
 20
-136.2498
 30
0.0
 10
651.199
 20
-153.0978
 30
0.0
 10
639.5713
 20
-153.3337
 30
0.0
 10
637.8375
 20
-164.1667
 30
0.0
 10
622.1456
 20
-244.3773
 30
0.0
 10
680.111
 20
-267.7017
 30
0.0
 10
697.0735
 20
-311.3607
 30
0.0
 10
667.7058
 20
-329.2955
 30
0.0
 10
652.8003
 20
-290.0237
 30
0.0
 10
630.7285
 20
-283.4447
 30
0.0
 10
613.0342
 20
-260.1002
 30
0.0
 10
594.9398
 20
-237.1815
 30
0.0
 10
578.6005
 20
-212.3847
 30
0.0
 10
577.8071
 20
-184.9321
 30
0.0
 10
563.3932
 20
-165.5374
 30
0.0
 10
578.6005
 20
-146.4017
 30
0.0
 10
591.8394
 20
-129.7417
 30
0.0
 10
620.0108
 20
-132.4974
 30
0.0
 10
647.3151
 20
-136.2498
 30
0.0
  0
SPLINE
  5
71
330
1F
100
AcDbEntity
  8
Layer 1
 62
   250
370
    20
100
AcDbSpline
210
0.0
220
0.0
230
1.0
 70
    11
 71
     3
 72
    32
 73
    28
 74
     0
 42
0.0000000001
 43
0.0000000001
 40
0.0
 40
0.0
 40
0.0
 40
0.0
 40
0.1111111111111111
 40
0.1111111111111111
 40
0.1111111111111111
 40
0.2222222222222222
 40
0.2222222222222222
 40
0.2222222222222222
 40
0.3333333333333333
 40
0.3333333333333333
 40
0.3333333333333333
 40
0.4444444444444444
 40
0.4444444444444444
 40
0.4444444444444444
 40
0.5555555555555556
 40
0.5555555555555556
 40
0.5555555555555556
 40
0.6666666666666666
 40
0.6666666666666666
 40
0.6666666666666666
 40
0.7777777777777777
 40
0.7777777777777777
 40
0.7777777777777777
 40
0.8888888888888888
 40
0.8888888888888888
 40
0.8888888888888888
 40
1.0
 40
1.0
 40
1.0
 40
1.0
 10
694.7048
 20
312.9444
 30
0.0
 10
696.1117
 20
285.4744
 30
0.0
 10
666.0113
 20
271.3514
 30
0.0
 10
652.0543
 20
252.0364
 30
0.0
 10
650.0921
 20
238.911
 30
0.0
 10
641.6507
 20
232.7252
 30
0.0
 10
635.4679
 20
224.1204
 30
0.0
 10
630.0032
 20
191.115
 30
0.0
 10
632.123
 20
162.4095
 30
0.0
 10
642.5758
 20
125.1444
 30
0.0
 10
634.249
 20
118.8368
 30
0.0
 10
618.9799
 20
119.9639
 30
0.0
 10
604.6645
 20
120.0694
 30
0.0
 10
584.0615
 20
135.2167
 30
0.0
 10
554.9947
 20
144.1026
 30
0.0
 10
566.7533
 20
186.0524
 30
0.0
 10
568.2651
 20
191.4526
 30
0.0
 10
576.0892
 20
195.9329
 30
0.0
 10
578.6005
 20
201.2794
 30
0.0
 10
582.6878
 20
209.9801
 30
0.0
 10
579.9204
 20
218.9322
 30
0.0
 10
585.7084
 20
226.6584
 30
0.0
 10
603.5164
 20
250.4269
 30
0.0
 10
615.3332
 20
260.1156
 30
0.0
 10
637.8375
 20
279.9524
 30
0.0
 10
651.0208
 20
291.5748
 30
0.0
 10
673.1077
 20
317.3298
 30
0.0
 10
694.7048
 20
312.9444
 30
0.0
  0
SPLINE
  5
72
330
1F
100
AcDbEntity
  8
Layer 1
 62
   250
370
    20
100
AcDbSpline
210
0.0
220
0.0
230
1.0
 70
    11
 71
     3
 72
    17
 73
    13
 74
     0
 42
0.0000000001
 43
0.0000000001
 40
0.0
 40
0.0
 40
0.0
 40
0.0
 40
0.25
 40
0.25
 40
0.25
 40
0.5
 40
0.5
 40
0.5
 40
0.75
 40
0.75
 40
0.75
 40
1.0
 40
1.0
 40
1.0
 40
1.0
 10
640.2063
 20
-471.2438
 30
0.0
 10
646.7222
 20
-478.968
 30
0.0
 10
633.9803
 20
-481.4553
 30
0.0
 10
637.8375
 20
-494.0848
 30
0.0
 10
602.6934
 20
-508.0466
 30
0.0
 10
579.4333
 20
-534.7368
 30
0.0
 10
562.014
 20
-567.6818
 30
0.0
 10
528.3968
 20
-571.9626
 30
0.0
 10
512.9095
 20
-558.8919
 30
0.0
 10
516.994
 20
-534.6898
 30
0.0
 10
522.6707
 20
-501.0686
 30
0.0
 10
605.3988
 20
-478.759
 30
0.0
 10
640.2063
 20
-471.2438
 30
0.0
  0
SPLINE
  5
73
330
1F
100
AcDbEntity
  8
Layer 1
 62
   250
370
    20
100
AcDbSpline
210
0.0
220
0.0
230
1.0
 70
    11
 71
     3
 72
    17
 73
    13
 74
     0
 42
0.0000000001
 43
0.0000000001
 40
0.0
 40
0.0
 40
0.0
 40
0.0
 40
0.25
 40
0.25
 40
0.25
 40
0.5
 40
0.5
 40
0.5
 40
0.75
 40
0.75
 40
0.75
 40
1.0
 40
1.0
 40
1.0
 40
1.0
 10
554.9052
 20
564.1904
 30
0.0
 10
572.8153
 20
524.1532
 30
0.0
 10
606.1297
 20
500.6217
 30
0.0
 10
637.8375
 20
475.3655
 30
0.0
 10
626.4684
 20
451.1701
 30
0.0
 10
578.613
 20
482.1564
 30
0.0
 10
562.014
 20
490.5924
 30
0.0
 10
539.1185
 20
502.2311
 30
0.0
 10
507.7474
 20
508.0467
 30
0.0
 10
512.2547
 20
541.3494
 30
0.0
 10
518.9157
 20
557.056
 30
0.0
 10
535.5854
 20
562.0418
 30
0.0
 10
554.9052
 20
564.1904
 30
0.0
  0
SPLINE
  5
74
330
1F
100
AcDbEntity
  8
Layer 1
 62
   250
370
    20
100
AcDbSpline
210
0.0
220
0.0
230
1.0
 70
    11
 71
     3
 72
    20
 73
    16
 74
     0
 42
0.0000000001
 43
0.0000000001
 40
0.0
 40
0.0
 40
0.0
 40
0.0
 40
0.2
 40
0.2
 40
0.2
 40
0.4
 40
0.4
 40
0.4
 40
0.6000000000000001
 40
0.6000000000000001
 40
0.6000000000000001
 40
0.8
 40
0.8
 40
0.8
 40
1.0
 40
1.0
 40
1.0
 40
1.0
 10
623.6206
 20
-435.7148
 30
0.0
 10
627.458
 20
-448.1803
 30
0.0
 10
608.1849
 20
-455.8624
 30
0.0
 10
599.9253
 20
-463.6308
 30
0.0
 10
532.5837
 20
-474.4072
 30
0.0
 10
488.5514
 20
-510.1481
 30
0.0
 10
455.3874
 20
-557.5308
 30
0.0
 10
426.4639
 20
-552.1364
 30
0.0
 10
416.8287
 20
-526.0783
 30
0.0
 10
384.3033
 20
-524.5388
 30
0.0
 10
382.0698
 20
-491.0614
 30
0.0
 10
416.6862
 20
-475.7922
 30
0.0
 10
441.1706
 20
-463.6308
 30
0.0
 10
489.6089
 20
-439.5697
 30
0.0
 10
573.7503
 20
-430.3184
 30
0.0
 10
623.6206
 20
-435.7148
 30
0.0
  0
SPLINE
  5
75
330
1F
100
AcDbEntity
  8
Layer 1
 62
   250
370
    20
100
AcDbSpline
210
0.0
220
0.0
230
1.0
 70
    11
 71
     3
 72
    32
 73
    28
 74
     0
 42
0.0000000001
 43
0.0000000001
 40
0.0
 40
0.0
 40
0.0
 40
0.0
 40
0.1111111111111111
 40
0.1111111111111111
 40
0.1111111111111111
 40
0.2222222222222222
 40
0.2222222222222222
 40
0.2222222222222222
 40
0.3333333333333333
 40
0.3333333333333333
 40
0.3333333333333333
 40
0.4444444444444444
 40
0.4444444444444444
 40
0.4444444444444444
 40
0.5555555555555556
 40
0.5555555555555556
 40
0.5555555555555556
 40
0.6666666666666666
 40
0.6666666666666666
 40
0.6666666666666666
 40
0.7777777777777777
 40
0.7777777777777777
 40
0.7777777777777777
 40
0.8888888888888888
 40
0.8888888888888888
 40
0.8888888888888888
 40
1.0
 40
1.0
 40
1.0
 40
1.0
 10
379.5648
 20
518.5094
 30
0.0
 10
398.1135
 20
530.7888
 30
0.0
 10
428.3983
 20
530.4972
 30
0.0
 10
438.8019
 20
551.5004
 30
0.0
 10
467.7755
 20
538.5438
 30
0.0
 10
479.0173
 20
506.5963
 30
0.0
 10
505.1467
 20
490.5924
 30
0.0
 10
524.5067
 20
485.95
 30
0.0
 10
537.3686
 20
474.3477
 30
0.0
 10
552.5364
 20
465.2144
 30
0.0
 10
562.0106
 20
466.0566
 30
0.0
 10
565.6885
 20
460.6909
 30
0.0
 10
576.2309
 20
462.6764
 30
0.0
 10
582.2347
 20
445.4208
 30
0.0
 10
610.7578
 20
452.2837
 30
0.0
 10
618.8814
 20
437.2984
 30
0.0
 10
612.5624
 20
422.8541
 30
0.0
 10
589.5835
 20
424.1461
 30
0.0
 10
576.2309
 20
424.6094
 30
0.0
 10
537.2977
 20
425.9609
 30
0.0
 10
487.8698
 20
435.2429
 30
0.0
 10
457.7571
 20
449.9875
 30
0.0
 10
450.6491
 20
449.9875
 30
0.0
 10
443.5401
 20
449.9875
 30
0.0
 10
436.4323
 20
449.9875
 30
0.0
 10
416.2457
 20
471.5095
 30
0.0
 10
378.124
 20
473.8221
 30
0.0
 10
379.5648
 20
518.5094
 30
0.0
  0
SPLINE
  5
76
330
1F
100
AcDbEntity
  8
Layer 1
 62
   250
370
    20
100
AcDbSpline
210
0.0
220
0.0
230
1.0
 70
    11
 71
     3
 72
    26
 73
    22
 74
     0
 42
0.0000000001
 43
0.0000000001
 40
0.0
 40
0.0
 40
0.0
 40
0.0
 40
0.1428571428571428
 40
0.1428571428571428
 40
0.1428571428571428
 40
0.2857142857142857
 40
0.2857142857142857
 40
0.2857142857142857
 40
0.4285714285714285
 40
0.4285714285714285
 40
0.4285714285714285
 40
0.5714285714285714
 40
0.5714285714285714
 40
0.5714285714285714
 40
0.7142857142857142
 40
0.7142857142857142
 40
0.7142857142857142
 40
0.8571428571428571
 40
0.8571428571428571
 40
0.8571428571428571
 40
1.0
 40
1.0
 40
1.0
 40
1.0
 10
358.2392
 20
-29.6608
 30
0.0
 10
370.3893
 20
-38.9734
 30
0.0
 10
377.5042
 20
-66.1048
 30
0.0
 10
400.8897
 20
-55.0397
 30
0.0
 10
408.3871
 20
-41.921
 30
0.0
 10
410.7907
 20
-23.3483
 30
0.0
 10
424.585
 20
-16.9717
 30
0.0
 10
443.9387
 20
-21.6209
 30
0.0
 10
474.9202
 20
-13.816
 30
0.0
 10
486.1906
 20
-27.1237
 30
0.0
 10
488.5012
 20
-50.7483
 30
0.0
 10
472.5881
 20
-54.8526
 30
0.0
 10
474.3433
 20
-77.8797
 30
0.0
 10
435.2841
 20
-107.1051
 30
0.0
 10
387.4564
 20
-126.9371
 30
0.0
 10
336.9144
 20
-143.8637
 30
0.0
 10
330.6267
 20
-125.1655
 30
0.0
 10
312.8681
 20
-101.7835
 30
0.0
 10
327.436
 20
-82.9557
 30
0.0
 10
299.9865
 20
-63.444
 30
0.0
 10
312.7508
 20
-19.2057
 30
0.0
 10
358.2392
 20
-29.6608
 30
0.0
  0
SPLINE
  5
77
330
1F
100
AcDbEntity
  8
Layer 1
 62
   250
370
    20
100
AcDbSpline
210
0.0
220
0.0
230
1.0
 70
    11
 71
     3
 72
    29
 73
    25
 74
     0
 42
0.0000000001
 43
0.0000000001
 40
0.0
 40
0.0
 40
0.0
 40
0.0
 40
0.125
 40
0.125
 40
0.125
 40
0.25
 40
0.25
 40
0.25
 40
0.375
 40
0.375
 40
0.375
 40
0.5
 40
0.5
 40
0.5
 40
0.625
 40
0.625
 40
0.625
 40
0.75
 40
0.75
 40
0.75
 40
0.875
 40
0.875
 40
0.875
 40
1.0
 40
1.0
 40
1.0
 40
1.0
 10
320.328
 20
69.3124
 30
0.0
 10
312.3522
 20
91.4723
 30
0.0
 10
318.3873
 20
128.208
 30
0.0
 10
339.2839
 20
132.7584
 30
0.0
 10
356.6415
 20
136.5385
 30
0.0
 10
384.8532
 20
116.107
 30
0.0
 10
403.2593
 20
107.3803
 30
0.0
 10
421.7335
 20
98.6192
 30
0.0
 10
441.1678
 20
91.8685
 30
0.0
 10
460.1267
 20
82.0014
 30
0.0
 10
463.4096
 20
56.7558
 30
0.0
 10
481.9304
 20
47.8315
 30
0.0
 10
481.4523
 20
18.5554
 30
0.0
 10
461.9813
 20
13.772
 30
0.0
 10
426.3869
 20
8.7919
 30
0.0
 10
407.9984
 20
18.5554
 30
0.0
 10
405.6253
 20
32.4559
 30
0.0
 10
402.2723
 20
53.1502
 30
0.0
 10
386.6728
 20
54.0853
 30
0.0
 10
369.5159
 20
55.1127
 30
0.0
 10
362.0248
 20
21.1222
 30
0.0
 10
344.0222
 20
18.5554
 30
0.0
 10
316.0364
 20
14.5662
 30
0.0
 10
289.5891
 20
48.5308
 30
0.0
 10
320.328
 20
69.3124
 30
0.0
  0
SPLINE
  5
78
330
1F
100
AcDbEntity
  8
Layer 1
 62
   250
370
    20
100
AcDbSpline
210
0.0
220
0.0
230
1.0
 70
    11
 71
     3
 72
    29
 73
    25
 74
     0
 42
0.0000000001
 43
0.0000000001
 40
0.0
 40
0.0
 40
0.0
 40
0.0
 40
0.125
 40
0.125
 40
0.125
 40
0.25
 40
0.25
 40
0.25
 40
0.375
 40
0.375
 40
0.375
 40
0.5
 40
0.5
 40
0.5
 40
0.625
 40
0.625
 40
0.625
 40
0.75
 40
0.75
 40
0.75
 40
0.875
 40
0.875
 40
0.875
 40
1.0
 40
1.0
 40
1.0
 40
1.0
 10
481.4523
 20
-176.8557
 30
0.0
 10
520.7732
 20
-285.3199
 30
0.0
 10
623.8087
 20
-325.5403
 30
0.0
 10
727.8768
 20
-364.6548
 30
0.0
 10
733.1311
 20
-372.3167
 30
0.0
 10
741.4604
 20
-382.3651
 30
0.0
 10
734.9847
 20
-395.1088
 30
0.0
 10
717.1007
 20
-402.5654
 30
0.0
 10
698.2519
 20
-393.27
 30
0.0
 10
689.9656
 20
-382.4198
 30
0.0
 10
647.8147
 20
-373.4236
 30
0.0
 10
609.9769
 20
-359.809
 30
0.0
 10
576.2309
 20
-341.8148
 30
0.0
 10
501.2441
 20
-333.7548
 30
0.0
 10
414.9059
 20
-292.5349
 30
0.0
 10
320.328
 20
-308.8228
 30
0.0
 10
307.715
 20
-310.9953
 30
0.0
 10
295.6116
 20
-320.3435
 30
0.0
 10
282.4167
 20
-313.8987
 30
0.0
 10
284.1343
 20
-306.1361
 30
0.0
 10
278.3286
 20
-306.4335
 30
0.0
 10
280.0471
 20
-298.6718
 30
0.0
 10
333.0636
 20
-242.9462
 30
0.0
 10
396.944
 20
-198.8517
 30
0.0
 10
481.4523
 20
-176.8557
 30
0.0
  0
SPLINE
  5
79
330
1F
100
AcDbEntity
  8
Layer 1
 62
   250
370
    20
100
AcDbSpline
210
0.0
220
0.0
230
1.0
 70
    11
 71
     3
 72
    14
 73
    10
 74
     0
 42
0.0000000001
 43
0.0000000001
 40
0.0
 40
0.0
 40
0.0
 40
0.0
 40
0.3333333333333333
 40
0.3333333333333333
 40
0.3333333333333333
 40
0.6666666666666666
 40
0.6666666666666666
 40
0.6666666666666666
 40
1.0
 40
1.0
 40
1.0
 40
1.0
 10
324.4903
 20
589.9734
 30
0.0
 10
321.5273
 20
588.176
 30
0.0
 10
318.5143
 20
587.1131
 30
0.0
 10
315.5887
 20
587.0304
 30
0.0
 10
314.4698
 20
586.9986
 30
0.0
 10
311.8285
 20
588.0793
 30
0.0
 10
308.4128
 20
589.9734
 30
0.0
 10
308.4128
 20
589.9734
 30
0.0
 10
324.4903
 20
589.9734
 30
0.0
 10
324.4903
 20
589.9734
 30
0.0
  0
SPLINE
  5
7A
330
1F
100
AcDbEntity
  8
Layer 1
 62
   250
370
    20
100
AcDbSpline
210
0.0
220
0.0
230
1.0
 70
    11
 71
     3
 72
    41
 73
    37
 74
     0
 42
0.0000000001
 43
0.0000000001
 40
0.0
 40
0.0
 40
0.0
 40
0.0
 40
0.0833333333333333
 40
0.0833333333333333
 40
0.0833333333333333
 40
0.1666666666666667
 40
0.1666666666666667
 40
0.1666666666666667
 40
0.25
 40
0.25
 40
0.25
 40
0.3333333333333333
 40
0.3333333333333333
 40
0.3333333333333333
 40
0.4166666666666666
 40
0.4166666666666666
 40
0.4166666666666666
 40
0.5
 40
0.5
 40
0.5
 40
0.5833333333333333
 40
0.5833333333333333
 40
0.5833333333333333
 40
0.6666666666666666
 40
0.6666666666666666
 40
0.6666666666666666
 40
0.75
 40
0.75
 40
0.75
 40
0.8333333333333333
 40
0.8333333333333333
 40
0.8333333333333333
 40
0.9166666666666666
 40
0.9166666666666666
 40
0.9166666666666666
 40
1.0
 40
1.0
 40
1.0
 40
1.0
 10
277.6774
 20
295.1794
 30
0.0
 10
299.666
 20
311.8011
 30
0.0
 10
327.4922
 20
300.0434
 30
0.0
 10
351.1313
 20
300.2554
 30
0.0
 10
379.2219
 20
300.5067
 30
0.0
 10
410.8957
 20
298.3917
 30
0.0
 10
438.8019
 20
302.7934
 30
0.0
 10
449.5939
 20
304.4949
 30
0.0
 10
458.3713
 20
312.6499
 30
0.0
 10
469.6042
 20
315.4824
 30
0.0
 10
479.9344
 20
318.0866
 30
0.0
 10
492.0009
 20
315.9189
 30
0.0
 10
502.7771
 20
318.0204
 30
0.0
 10
534.3452
 20
324.1793
 30
0.0
 10
564.4178
 20
341.4618
 30
0.0
 10
595.187
 20
343.3984
 30
0.0
 10
636.7262
 20
359.0254
 30
0.0
 10
679.3587
 20
386.8321
 30
0.0
 10
727.8768
 20
386.5414
 30
0.0
 10
730.5767
 20
380.9733
 30
0.0
 10
733.9916
 20
376.1717
 30
0.0
 10
732.6161
 20
366.2394
 30
0.0
 10
715.9373
 20
358.7242
 30
0.0
 10
704.9193
 20
345.147
 30
0.0
 10
680.488
 20
345.9364
 30
0.0
 10
615.5929
 20
309.6995
 30
0.0
 10
543.324
 20
281.3604
 30
0.0
 10
500.4074
 20
221.5824
 30
0.0
 10
493.4169
 20
200.3087
 30
0.0
 10
482.7355
 20
182.9869
 30
0.0
 10
467.2355
 20
170.8254
 30
0.0
 10
388.885
 20
195.1896
 30
0.0
 10
326.4034
 20
236.5485
 30
0.0
 10
275.3079
 20
290.1044
 30
0.0
 10
275.7582
 20
292.1589
 30
0.0
 10
277.6837
 20
292.6347
 30
0.0
 10
277.6774
 20
295.1794
 30
0.0
  0
SPLINE
  5
7B
330
1F
100
AcDbEntity
  8
Layer 1
 62
   250
370
    20
100
AcDbSpline
210
0.0
220
0.0
230
1.0
 70
    11
 71
     3
 72
    41
 73
    37
 74
     0
 42
0.0000000001
 43
0.0000000001
 40
0.0
 40
0.0
 40
0.0
 40
0.0
 40
0.0833333333333333
 40
0.0833333333333333
 40
0.0833333333333333
 40
0.1666666666666667
 40
0.1666666666666667
 40
0.1666666666666667
 40
0.25
 40
0.25
 40
0.25
 40
0.3333333333333333
 40
0.3333333333333333
 40
0.3333333333333333
 40
0.4166666666666666
 40
0.4166666666666666
 40
0.4166666666666666
 40
0.5
 40
0.5
 40
0.5
 40
0.5833333333333333
 40
0.5833333333333333
 40
0.5833333333333333
 40
0.6666666666666666
 40
0.6666666666666666
 40
0.6666666666666666
 40
0.75
 40
0.75
 40
0.75
 40
0.8333333333333333
 40
0.8333333333333333
 40
0.8333333333333333
 40
0.9166666666666666
 40
0.9166666666666666
 40
0.9166666666666666
 40
1.0
 40
1.0
 40
1.0
 40
1.0
 10
564.3837
 20
-397.6468
 30
0.0
 10
531.0075
 20
-415.4329
 30
0.0
 10
496.82
 20
-403.0537
 30
0.0
 10
464.8658
 20
-410.3358
 30
0.0
 10
457.9148
 20
-411.9213
 30
0.0
 10
450.7664
 20
-418.4533
 30
0.0
 10
443.5401
 20
-420.4877
 30
0.0
 10
414.6928
 20
-428.6034
 30
0.0
 10
396.4038
 20
-428.6859
 30
0.0
 10
370.0863
 20
-445.8658
 30
0.0
 10
363.9752
 20
-449.856
 30
0.0
 10
351.9919
 20
-458.4991
 30
0.0
 10
344.0222
 20
-466.1687
 30
0.0
 10
326.8717
 20
-482.6724
 30
0.0
 10
311.128
 20
-522.7001
 30
0.0
 10
296.6335
 20
-524.5388
 30
0.0
 10
283.6042
 20
-526.1924
 30
0.0
 10
271.3987
 20
-508.3535
 30
0.0
 10
253.9831
 20
-504.2358
 30
0.0
 10
237.6402
 20
-500.3732
 30
0.0
 10
226.4592
 20
-509.0163
 30
0.0
 10
216.0708
 20
-496.6228
 30
0.0
 10
205.8527
 20
-447.3333
 30
0.0
 10
260.1005
 20
-403.1486
 30
0.0
 10
310.8504
 20
-387.4958
 30
0.0
 10
322.2409
 20
-383.9813
 30
0.0
 10
336.223
 20
-386.2431
 30
0.0
 10
348.7616
 20
-382.4198
 30
0.0
 10
355.2006
 20
-380.4554
 30
0.0
 10
361.8768
 20
-373.7622
 30
0.0
 10
367.7178
 20
-372.2688
 30
0.0
 10
422.9496
 20
-358.1343
 30
0.0
 10
488.8845
 20
-372.3858
 30
0.0
 10
543.0579
 20
-374.8067
 30
0.0
 10
548.8055
 20
-383.8758
 30
0.0
 10
558.5341
 20
-388.687
 30
0.0
 10
564.3837
 20
-397.6468
 30
0.0
  0
SPLINE
  5
7C
330
1F
100
AcDbEntity
  8
Layer 1
 62
   250
370
    20
100
AcDbSpline
210
0.0
220
0.0
230
1.0
 70
    11
 71
     3
 72
    29
 73
    25
 74
     0
 42
0.0000000001
 43
0.0000000001
 40
0.0
 40
0.0
 40
0.0
 40
0.0
 40
0.125
 40
0.125
 40
0.125
 40
0.25
 40
0.25
 40
0.25
 40
0.375
 40
0.375
 40
0.375
 40
0.5
 40
0.5
 40
0.5
 40
0.625
 40
0.625
 40
0.625
 40
0.75
 40
0.75
 40
0.75
 40
0.875
 40
0.875
 40
0.875
 40
1.0
 40
1.0
 40
1.0
 40
1.0
 10
211.3325
 20
488.0554
 30
0.0
 10
232.1451
 20
505.5221
 30
0.0
 10
272.133
 20
502.4527
 30
0.0
 10
294.264
 20
518.5094
 30
0.0
 10
313.2996
 20
497.4467
 30
0.0
 10
326.3103
 20
469.9297
 30
0.0
 10
346.392
 20
449.9875
 30
0.0
 10
362.8333
 20
443.911
 30
0.0
 10
375.011
 20
433.267
 30
0.0
 10
389.0425
 20
424.6094
 30
0.0
 10
403.9381
 20
427.0812
 30
0.0
 10
414.9248
 20
413.529
 30
0.0
 10
429.3234
 20
409.3824
 30
0.0
 10
473.2948
 20
396.7193
 30
0.0
 10
527.6966
 20
405.4795
 30
0.0
 10
566.7533
 20
386.5414
 30
0.0
 10
552.875
 20
368.0964
 30
0.0
 10
521.5945
 20
364.9234
 30
0.0
 10
495.6691
 20
361.1634
 30
0.0
 10
423.9491
 20
350.7543
 30
0.0
 10
343.8067
 20
371.0699
 30
0.0
 10
287.155
 20
386.5414
 30
0.0
 10
254.6027
 20
411.0542
 30
0.0
 10
201.0247
 20
426.0405
 30
0.0
 10
211.3325
 20
488.0554
 30
0.0
  0
SPLINE
  5
7D
330
1F
100
AcDbEntity
  8
Layer 1
 62
   250
370
    20
100
AcDbSpline
210
0.0
220
0.0
230
1.0
 70
    11
 71
     3
 72
    38
 73
    34
 74
     0
 42
0.0000000001
 43
0.0000000001
 40
0.0
 40
0.0
 40
0.0
 40
0.0
 40
0.0909090909090909
 40
0.0909090909090909
 40
0.0909090909090909
 40
0.1818181818181818
 40
0.1818181818181818
 40
0.1818181818181818
 40
0.2727272727272727
 40
0.2727272727272727
 40
0.2727272727272727
 40
0.3636363636363636
 40
0.3636363636363636
 40
0.3636363636363636
 40
0.4545454545454546
 40
0.4545454545454546
 40
0.4545454545454546
 40
0.5454545454545454
 40
0.5454545454545454
 40
0.5454545454545454
 40
0.6363636363636364
 40
0.6363636363636364
 40
0.6363636363636364
 40
0.7272727272727273
 40
0.7272727272727273
 40
0.7272727272727273
 40
0.8181818181818182
 40
0.8181818181818182
 40
0.8181818181818182
 40
0.9090909090909092
 40
0.9090909090909092
 40
0.9090909090909092
 40
1.0
 40
1.0
 40
1.0
 40
1.0
 10
-11.3975
 20
-151.4767
 30
0.0
 10
17.4302
 20
-130.8956
 30
0.0
 10
73.1377
 20
-144.7807
 30
0.0
 10
59.6858
 20
-90.5687
 30
0.0
 10
56.6408
 20
-78.298
 30
0.0
 10
45.2227
 20
-75.8261
 30
0.0
 10
45.469
 20
-62.6527
 30
0.0
 10
45.9875
 20
-34.9563
 30
0.0
 10
97.6042
 20
-14.7857
 30
0.0
 10
126.0315
 20
-37.2747
 30
0.0
 10
117.2105
 20
-96.7881
 30
0.0
 10
138.2522
 20
-141.2941
 30
0.0
 10
175.79
 20
-159.0907
 30
0.0
 10
204.6893
 20
-149.4385
 30
0.0
 10
205.9333
 20
-110.1648
 30
0.0
 10
218.4405
 20
-82.9557
 30
0.0
 10
256.6455
 20
-73.432
 30
0.0
 10
308.7924
 20
-115.7856
 30
0.0
 10
268.1999
 20
-146.4017
 30
0.0
 10
266.4902
 20
-160.9228
 30
0.0
 10
281.7558
 20
-157.2587
 30
0.0
 10
280.0471
 20
-171.7797
 30
0.0
 10
274.8422
 20
-186.508
 30
0.0
 10
259.1781
 20
-190.0339
 30
0.0
 10
246.8741
 20
-197.1577
 30
0.0
 10
208.8886
 20
-224.9932
 30
0.0
 10
170.2242
 20
-252.1064
 30
0.0
 10
126.0315
 20
-273.2928
 30
0.0
 10
123.7022
 20
-208.1107
 30
0.0
 10
61.0371
 20
-207.5544
 30
0.0
 10
-1.9191
 20
-207.3097
 30
0.0
 10
-15.6174
 20
-195.0054
 30
0.0
 10
-12.6128
 20
-175.815
 30
0.0
 10
-11.3975
 20
-151.4767
 30
0.0
  0
SPLINE
  5
7E
330
1F
100
AcDbEntity
  8
Layer 1
 62
   250
370
    20
100
AcDbSpline
210
0.0
220
0.0
230
1.0
 70
    11
 71
     3
 72
    38
 73
    34
 74
     0
 42
0.0000000001
 43
0.0000000001
 40
0.0
 40
0.0
 40
0.0
 40
0.0
 40
0.0909090909090909
 40
0.0909090909090909
 40
0.0909090909090909
 40
0.1818181818181818
 40
0.1818181818181818
 40
0.1818181818181818
 40
0.2727272727272727
 40
0.2727272727272727
 40
0.2727272727272727
 40
0.3636363636363636
 40
0.3636363636363636
 40
0.3636363636363636
 40
0.4545454545454546
 40
0.4545454545454546
 40
0.4545454545454546
 40
0.5454545454545454
 40
0.5454545454545454
 40
0.5454545454545454
 40
0.6363636363636364
 40
0.6363636363636364
 40
0.6363636363636364
 40
0.7272727272727273
 40
0.7272727272727273
 40
0.7272727272727273
 40
0.8181818181818182
 40
0.8181818181818182
 40
0.8181818181818182
 40
0.9090909090909092
 40
0.9090909090909092
 40
0.9090909090909092
 40
1.0
 40
1.0
 40
1.0
 40
1.0
 10
-11.3975
 20
196.2044
 30
0.0
 10
44.7658
 20
191.0363
 30
0.0
 10
84.4145
 20
203.5565
 30
0.0
 10
111.8148
 20
229.1964
 30
0.0
 10
114.9063
 20
241.9583
 30
0.0
 10
116.5441
 20
256.276
 30
0.0
 10
126.0315
 20
262.1874
 30
0.0
 10
181.3621
 20
237.7014
 30
0.0
 10
225.7187
 20
201.4616
 30
0.0
 10
272.9381
 20
168.2884
 30
0.0
 10
275.5666
 20
152.7832
 30
0.0
 10
267.0088
 20
149.2611
 30
0.0
 10
263.4606
 20
140.3714
 30
0.0
 10
300.838
 20
110.2378
 30
0.0
 10
258.7983
 20
70.7962
 30
0.0
 10
216.0708
 20
74.3884
 30
0.0
 10
200.6137
 20
96.9406
 30
0.0
 10
201.0337
 20
147.407
 30
0.0
 10
173.4203
 20
150.5234
 30
0.0
 10
144.0124
 20
153.844
 30
0.0
 10
108.7627
 20
90.3089
 30
0.0
 10
118.9228
 20
33.7824
 30
0.0
 10
90.9432
 20
3.6669
 30
0.0
 10
58.9639
 20
25.7531
 30
0.0
 10
38.3609
 20
49.0094
 30
0.0
 10
39.1195
 20
75.2669
 30
0.0
 10
64.8289
 20
74.8008
 30
0.0
 10
57.3162
 20
109.9174
 30
0.0
 10
41.3844
 20
128.3826
 30
0.0
 10
13.6152
 20
134.1693
 30
0.0
 10
-13.7672
 20
140.3714
 30
0.0
 10
-15.7042
 20
154.502
 30
0.0
 10
-19.2058
 20
180.3395
 30
0.0
 10
-11.3975
 20
196.2044
 30
0.0
  0
SPLINE
  5
7F
330
1F
100
AcDbEntity
  8
Layer 1
 62
   250
370
    20
100
AcDbSpline
210
0.0
220
0.0
230
1.0
 70
    11
 71
     3
 72
    23
 73
    19
 74
     0
 42
0.0000000001
 43
0.0000000001
 40
0.0
 40
0.0
 40
0.0
 40
0.0
 40
0.1666666666666667
 40
0.1666666666666667
 40
0.1666666666666667
 40
0.3333333333333333
 40
0.3333333333333333
 40
0.3333333333333333
 40
0.5
 40
0.5
 40
0.5
 40
0.6666666666666666
 40
0.6666666666666666
 40
0.6666666666666666
 40
0.8333333333333333
 40
0.8333333333333333
 40
0.8333333333333333
 40
1.0
 40
1.0
 40
1.0
 40
1.0
 10
-1.9191
 20
-240.3017
 30
0.0
 10
35.4827
 20
-234.9246
 30
0.0
 10
38.2284
 20
-266.6696
 30
0.0
 10
57.3162
 20
-280.9068
 30
0.0
 10
70.8237
 20
-281.6684
 30
0.0
 10
74.6521
 20
-282.2419
 30
0.0
 10
85.7498
 20
-288.5198
 30
0.0
 10
84.9447
 20
-296.3879
 30
0.0
 10
91.2359
 20
-300.6438
 30
0.0
 10
85.7498
 20
-306.2848
 30
0.0
 10
56.872
 20
-327.8088
 30
0.0
 10
26.5253
 20
-361.2784
 30
0.0
 10
-13.7672
 20
-362.1178
 30
0.0
 10
-16.5219
 20
-362.5302
 30
0.0
 10
-17.9843
 20
-361.5576
 30
0.0
 10
-18.5055
 20
-359.5797
 30
0.0
 10
-20.1319
 20
-322.1765
 30
0.0
 10
-16.8183
 20
-268.4345
 30
0.0
 10
-1.9191
 20
-240.3017
 30
0.0
  0
SPLINE
  5
80
330
1F
100
AcDbEntity
  8
Layer 1
 62
   250
370
    20
100
AcDbSpline
210
0.0
220
0.0
230
1.0
 70
    11
 71
     3
 72
    17
 73
    13
 74
     0
 42
0.0000000001
 43
0.0000000001
 40
0.0
 40
0.0
 40
0.0
 40
0.0
 40
0.25
 40
0.25
 40
0.25
 40
0.5
 40
0.5
 40
0.5
 40
0.75
 40
0.75
 40
0.75
 40
1.0
 40
1.0
 40
1.0
 40
1.0
 10
-25.6144
 20
356.0874
 30
0.0
 10
-0.5864
 20
365.8193
 30
0.0
 10
8.3297
 20
339.0264
 30
0.0
 10
31.2521
 20
338.3224
 30
0.0
 10
45.1457
 20
317.6731
 30
0.0
 10
77.0961
 20
316.3649
 30
0.0
 10
83.381
 20
287.5663
 30
0.0
 10
54.7809
 20
273.3638
 30
0.0
 10
30.5176
 20
254.5149
 30
0.0
 10
12.2979
 20
229.1964
 30
0.0
 10
-29.3621
 20
240.4082
 30
0.0
 10
-20.4435
 20
305.7966
 30
0.0
 10
-25.6144
 20
356.0874
 30
0.0
  0
SPLINE
  5
81
330
1F
100
AcDbEntity
  8
Layer 1
 62
   250
370
    20
100
AcDbSpline
210
0.0
220
0.0
230
1.0
 70
    11
 71
     3
 72
    17
 73
    13
 74
     0
 42
0.0000000001
 43
0.0000000001
 40
0.0
 40
0.0
 40
0.0
 40
0.0
 40
0.25
 40
0.25
 40
0.25
 40
0.5
 40
0.5
 40
0.5
 40
0.75
 40
0.75
 40
0.75
 40
1.0
 40
1.0
 40
1.0
 40
1.0
 10
-110.9152
 20
-217.4608
 30
0.0
 10
-92.185
 20
-216.8315
 30
0.0
 10
-65.2745
 20
-224.9021
 30
0.0
 10
-44.5694
 20
-230.1497
 30
0.0
 10
-43.3239
 20
-256.9695
 30
0.0
 10
-40.7778
 20
-292.7248
 30
0.0
 10
-61.156
 20
-296.1337
 30
0.0
 10
-81.9139
 20
-299.605
 30
0.0
 10
-85.5113
 20
-266.0989
 30
0.0
 10
-113.2849
 20
-275.8307
 30
0.0
 10
-127.9549
 20
-264.2668
 30
0.0
 10
-120.1305
 20
-231.7037
 30
0.0
 10
-110.9152
 20
-217.4608
 30
0.0
  0
SPLINE
  5
82
330
1F
100
AcDbEntity
  8
Layer 1
 62
   250
370
    20
100
AcDbSpline
210
0.0
220
0.0
230
1.0
 70
    11
 71
     3
 72
    17
 73
    13
 74
     0
 42
0.0000000001
 43
0.0000000001
 40
0.0
 40
0.0
 40
0.0
 40
0.0
 40
0.25
 40
0.25
 40
0.25
 40
0.5
 40
0.5
 40
0.5
 40
0.75
 40
0.75
 40
0.75
 40
1.0
 40
1.0
 40
1.0
 40
1.0
 10
-125.1323
 20
259.6504
 30
0.0
 10
-102.0754
 20
266.2524
 30
0.0
 10
-86.1902
 20
280.5403
 30
0.0
 10
-65.8952
 20
290.1044
 30
0.0
 10
-46.5756
 20
278.3535
 30
0.0
 10
-46.6275
 20
230.3589
 30
0.0
 10
-61.156
 20
216.5064
 30
0.0
 10
-85.471
 20
218.8631
 30
0.0
 10
-98.83
 20
209.4852
 30
0.0
 10
-120.3929
 20
208.8934
 30
0.0
 10
-127.541
 20
219.8472
 30
0.0
 10
-124.5483
 20
241.6638
 30
0.0
 10
-125.1323
 20
259.6504
 30
0.0
  0
SPLINE
  5
83
330
1F
100
AcDbEntity
  8
Layer 1
 62
   250
370
    20
100
AcDbSpline
210
0.0
220
0.0
230
1.0
 70
    11
 71
     3
 72
    26
 73
    22
 74
     0
 42
0.0000000001
 43
0.0000000001
 40
0.0
 40
0.0
 40
0.0
 40
0.0
 40
0.1428571428571428
 40
0.1428571428571428
 40
0.1428571428571428
 40
0.2857142857142857
 40
0.2857142857142857
 40
0.2857142857142857
 40
0.4285714285714285
 40
0.4285714285714285
 40
0.4285714285714285
 40
0.5714285714285714
 40
0.5714285714285714
 40
0.5714285714285714
 40
0.7142857142857142
 40
0.7142857142857142
 40
0.7142857142857142
 40
0.8571428571428571
 40
0.8571428571428571
 40
0.8571428571428571
 40
1.0
 40
1.0
 40
1.0
 40
1.0
 10
137.4636
 20
589.9734
 30
0.0
 10
134.1363
 20
586.788
 30
0.0
 10
131.0389
 20
583.3394
 30
0.0
 10
128.4003
 20
579.4174
 30
0.0
 10
111.5612
 20
554.3857
 30
0.0
 10
100.3248
 20
507.3762
 30
0.0
 10
111.8148
 20
465.2144
 30
0.0
 10
116.6024
 20
447.6412
 30
0.0
 10
134.7809
 20
433.0589
 30
0.0
 10
126.0315
 20
414.4575
 30
0.0
 10
102.7097
 20
417.3925
 30
0.0
 10
92.1333
 20
433.9835
 30
0.0
 10
73.9025
 20
442.3744
 30
0.0
 10
26.0876
 20
474.9098
 30
0.0
 10
-30.1556
 20
498.4174
 30
0.0
 10
-77.7425
 20
531.1984
 30
0.0
 10
-127.974
 20
547.9157
 30
0.0
 10
-172.9992
 20
570.2093
 30
0.0
 10
-220.3861
 20
589.9734
 30
0.0
 10
-220.3861
 20
589.9734
 30
0.0
 10
137.4636
 20
589.9734
 30
0.0
 10
137.4636
 20
589.9734
 30
0.0
  0
SPLINE
  5
84
330
1F
100
AcDbEntity
  8
Layer 1
 62
   250
370
    20
100
AcDbSpline
210
0.0
220
0.0
230
1.0
 70
    11
 71
     3
 72
    29
 73
    25
 74
     0
 42
0.0000000001
 43
0.0000000001
 40
0.0
 40
0.0
 40
0.0
 40
0.0
 40
0.125
 40
0.125
 40
0.125
 40
0.25
 40
0.25
 40
0.25
 40
0.375
 40
0.375
 40
0.375
 40
0.5
 40
0.5
 40
0.5
 40
0.625
 40
0.625
 40
0.625
 40
0.75
 40
0.75
 40
0.75
 40
0.875
 40
0.875
 40
0.875
 40
1.0
 40
1.0
 40
1.0
 40
1.0
 10
-200.4531
 20
-590.0266
 30
0.0
 10
-181.6022
 20
-583.4911
 30
0.0
 10
-162.7026
 20
-577.0077
 30
0.0
 10
-144.0873
 20
-570.2198
 30
0.0
 10
-118.8321
 20
-553.2807
 30
0.0
 10
-87.8192
 20
-542.5081
 30
0.0
 10
-58.7864
 20
-529.6147
 30
0.0
 10
-52.909
 20
-528.2959
 30
0.0
 10
-50.3457
 20
-523.4271
 30
0.0
 10
-46.9391
 20
-519.4628
 30
0.0
 10
0.7336
 20
-499.3238
 30
0.0
 10
42.4214
 20
-473.6715
 30
0.0
 10
85.7498
 20
-445.8658
 30
0.0
 10
98.5697
 20
-437.6389
 30
0.0
 10
112.4003
 20
-420.2211
 30
0.0
 10
130.77
 20
-428.1008
 30
0.0
 10
125.8372
 20
-464.0681
 30
0.0
 10
108.5012
 20
-485.8349
 30
0.0
 10
111.8148
 20
-522.0008
 30
0.0
 10
114.4172
 20
-550.401
 30
0.0
 10
125.8194
 20
-571.7207
 30
0.0
 10
139.8446
 20
-590.0266
 30
0.0
 10
139.8446
 20
-590.0266
 30
0.0
 10
-200.4531
 20
-590.0266
 30
0.0
 10
-200.4531
 20
-590.0266
 30
0.0
  0
SPLINE
  5
85
330
1F
100
AcDbEntity
  8
Layer 1
 62
   250
370
    20
100
AcDbSpline
210
0.0
220
0.0
230
1.0
 70
    11
 71
     3
 72
    32
 73
    28
 74
     0
 42
0.0000000001
 43
0.0000000001
 40
0.0
 40
0.0
 40
0.0
 40
0.0
 40
0.1111111111111111
 40
0.1111111111111111
 40
0.1111111111111111
 40
0.2222222222222222
 40
0.2222222222222222
 40
0.2222222222222222
 40
0.3333333333333333
 40
0.3333333333333333
 40
0.3333333333333333
 40
0.4444444444444444
 40
0.4444444444444444
 40
0.4444444444444444
 40
0.5555555555555556
 40
0.5555555555555556
 40
0.5555555555555556
 40
0.6666666666666666
 40
0.6666666666666666
 40
0.6666666666666666
 40
0.7777777777777777
 40
0.7777777777777777
 40
0.7777777777777777
 40
0.8888888888888888
 40
0.8888888888888888
 40
0.8888888888888888
 40
1.0
 40
1.0
 40
1.0
 40
1.0
 10
-397.6216
 20
-232.6877
 30
0.0
 10
-385.8818
 20
-225.915
 30
0.0
 10
-364.8069
 20
-231.3219
 30
0.0
 10
-350.2318
 20
-222.5367
 30
0.0
 10
-331.1898
 20
-237.4319
 30
0.0
 10
-327.7123
 20
-261.5735
 30
0.0
 10
-302.8421
 20
-265.6797
 30
0.0
 10
-288.3907
 20
-268.0652
 30
0.0
 10
-267.2477
 20
-262.2037
 30
0.0
 10
-255.4533
 20
-255.5288
 30
0.0
 10
-248.8656
 20
-251.8004
 30
0.0
 10
-245.0864
 20
-241.8
 30
0.0
 10
-236.4971
 20
-240.3017
 30
0.0
 10
-212.5028
 20
-236.1159
 30
0.0
 10
-200.5785
 20
-253.9288
 30
0.0
 10
-184.369
 20
-273.2928
 30
0.0
 10
-195.5651
 20
-294.4993
 30
0.0
 10
-185.3623
 20
-325.8147
 30
0.0
 10
-193.8466
 20
-351.9658
 30
0.0
 10
-212.4231
 20
-365.5181
 30
0.0
 10
-224.2953
 20
-350.2258
 30
0.0
 10
-243.6051
 20
-344.3528
 30
0.0
 10
-253.1974
 20
-341.4349
 30
0.0
 10
-263.2096
 20
-343.8569
 30
0.0
 10
-269.6701
 20
-341.8148
 30
0.0
 10
-322.6095
 20
-325.0741
 30
0.0
 10
-382.957
 20
-279.4804
 30
0.0
 10
-397.6216
 20
-232.6877
 30
0.0
  0
SPLINE
  5
86
330
1F
100
AcDbEntity
  8
Layer 1
 62
   250
370
    20
100
AcDbSpline
210
0.0
220
0.0
230
1.0
 70
    11
 71
     3
 72
    23
 73
    19
 74
     0
 42
0.0000000001
 43
0.0000000001
 40
0.0
 40
0.0
 40
0.0
 40
0.0
 40
0.1666666666666667
 40
0.1666666666666667
 40
0.1666666666666667
 40
0.3333333333333333
 40
0.3333333333333333
 40
0.3333333333333333
 40
0.5
 40
0.5
 40
0.5
 40
0.6666666666666666
 40
0.6666666666666666
 40
0.6666666666666666
 40
0.8333333333333333
 40
0.8333333333333333
 40
0.8333333333333333
 40
1.0
 40
1.0
 40
1.0
 40
1.0
 10
-208.0636
 20
345.9364
 30
0.0
 10
-185.4054
 20
320.7205
 30
0.0
 10
-201.4051
 20
292.2117
 30
0.0
 10
-191.4771
 20
262.1874
 30
0.0
 10
-200.4119
 20
244.6871
 30
0.0
 10
-218.6704
 20
237.1729
 30
0.0
 10
-241.2363
 20
234.2714
 30
0.0
 10
-271.4128
 20
248.7617
 30
0.0
 10
-290.8311
 20
267.1349
 30
0.0
 10
-321.7982
 20
252.0364
 30
0.0
 10
-337.4802
 20
244.3898
 30
0.0
 10
-344.7556
 20
219.3821
 30
0.0
 10
-359.7093
 20
216.5064
 30
0.0
 10
-370.8106
 20
214.3722
 30
0.0
 10
-390.0532
 20
225.4585
 30
0.0
 10
-399.9903
 20
234.2714
 30
0.0
 10
-362.5447
 20
299.9081
 30
0.0
 10
-296.8877
 20
335.3288
 30
0.0
 10
-208.0636
 20
345.9364
 30
0.0
  0
SPLINE
  5
87
330
1F
100
AcDbEntity
  8
Layer 1
 62
   250
370
    20
100
AcDbSpline
210
0.0
220
0.0
230
1.0
 70
    11
 71
     3
 72
    17
 73
    13
 74
     0
 42
0.0000000001
 43
0.0000000001
 40
0.0
 40
0.0
 40
0.0
 40
0.0
 40
0.25
 40
0.25
 40
0.25
 40
0.5
 40
0.5
 40
0.5
 40
0.75
 40
0.75
 40
0.75
 40
1.0
 40
1.0
 40
1.0
 40
1.0
 10
-556.3754
 20
-19.5097
 30
0.0
 10
-539.9743
 20
-16.4404
 30
0.0
 10
-526.0476
 20
-29.9945
 30
0.0
 10
-508.9865
 20
-32.1987
 30
0.0
 10
-495.6796
 20
-33.9176
 30
0.0
 10
-481.9715
 20
-26.1933
 30
0.0
 10
-471.0744
 20
-37.2747
 30
0.0
 10
-477.5966
 20
-63.2791
 30
0.0
 10
-488.8368
 20
-84.2362
 30
0.0
 10
-501.8777
 20
-103.2587
 30
0.0
 10
-536.6858
 20
-94.7661
 30
0.0
 10
-569.1424
 20
-70.5305
 30
0.0
 10
-556.3754
 20
-19.5097
 30
0.0
  0
SPLINE
  5
88
330
1F
100
AcDbEntity
  8
Layer 1
 62
   250
370
    20
100
AcDbSpline
210
0.0
220
0.0
230
1.0
 70
    11
 71
     3
 72
    38
 73
    34
 74
     0
 42
0.0000000001
 43
0.0000000001
 40
0.0
 40
0.0
 40
0.0
 40
0.0
 40
0.0909090909090909
 40
0.0909090909090909
 40
0.0909090909090909
 40
0.1818181818181818
 40
0.1818181818181818
 40
0.1818181818181818
 40
0.2727272727272727
 40
0.2727272727272727
 40
0.2727272727272727
 40
0.3636363636363636
 40
0.3636363636363636
 40
0.3636363636363636
 40
0.4545454545454546
 40
0.4545454545454546
 40
0.4545454545454546
 40
0.5454545454545454
 40
0.5454545454545454
 40
0.5454545454545454
 40
0.6363636363636364
 40
0.6363636363636364
 40
0.6363636363636364
 40
0.7272727272727273
 40
0.7272727272727273
 40
0.7272727272727273
 40
0.8181818181818182
 40
0.8181818181818182
 40
0.8181818181818182
 40
0.9090909090909092
 40
0.9090909090909092
 40
0.9090909090909092
 40
1.0
 40
1.0
 40
1.0
 40
1.0
 10
-549.2675
 20
-326.5878
 30
0.0
 10
-503.2138
 20
-343.9739
 30
0.0
 10
-463.0466
 20
-317.4074
 30
0.0
 10
-452.1193
 20
-280.9068
 30
0.0
 10
-431.7653
 20
-268.8968
 30
0.0
 10
-425.0675
 20
-296.5711
 30
0.0
 10
-411.8384
 20
-311.3607
 30
0.0
 10
-387.6193
 20
-338.4346
 30
0.0
 10
-346.5413
 20
-363.2889
 30
0.0
 10
-309.9509
 20
-372.2688
 30
0.0
 10
-309.9662
 20
-380.745
 30
0.0
 10
-300.433
 20
-378.9936
 30
0.0
 10
-298.1037
 20
-384.9577
 30
0.0
 10
-287.7557
 20
-383.1804
 30
0.0
 10
-284.7565
 20
-389.2731
 30
0.0
 10
-274.4085
 20
-387.4958
 30
0.0
 10
-266.6306
 20
-388.4703
 30
0.0
 10
-263.9619
 20
-394.9179
 30
0.0
 10
-257.822
 20
-397.6468
 30
0.0
 10
-234.0291
 20
-411.4561
 30
0.0
 10
-141.2117
 20
-400.9186
 30
0.0
 10
-153.5659
 20
-438.2527
 30
0.0
 10
-246.4467
 20
-486.5456
 30
0.0
 10
-369.882
 20
-527.2322
 30
0.0
 10
-504.2473
 20
-514.3878
 30
0.0
 10
-505.5153
 20
-489.4299
 30
0.0
 10
-536.0751
 20
-482.4662
 30
0.0
 10
-537.4202
 20
-463.6308
 30
0.0
 10
-538.8548
 20
-443.5378
 30
0.0
 10
-513.4535
 20
-436.3488
 30
0.0
 10
-508.9865
 20
-412.8738
 30
0.0
 10
-516.7984
 20
-380.6856
 30
0.0
 10
-586.053
 20
-366.7304
 30
0.0
 10
-549.2675
 20
-326.5878
 30
0.0
  0
SPLINE
  5
89
330
1F
100
AcDbEntity
  8
Layer 1
 62
   250
370
    20
100
AcDbSpline
210
0.0
220
0.0
230
1.0
 70
    11
 71
     3
 72
    17
 73
    13
 74
     0
 42
0.0000000001
 43
0.0000000001
 40
0.0
 40
0.0
 40
0.0
 40
0.0
 40
0.25
 40
0.25
 40
0.25
 40
0.5
 40
0.5
 40
0.5
 40
0.75
 40
0.75
 40
0.75
 40
1.0
 40
1.0
 40
1.0
 40
1.0
 10
-490.0306
 20
59.1614
 30
0.0
 10
-485.6558
 20
49.4659
 30
0.0
 10
-471.8338
 20
49.887
 30
0.0
 10
-475.8137
 20
31.2454
 30
0.0
 10
-489.1233
 20
24.0409
 30
0.0
 10
-501.0019
 20
31.278
 30
0.0
 10
-518.4642
 20
26.1693
 30
0.0
 10
-530.4565
 20
22.6597
 30
0.0
 10
-536.4576
 20
10.2115
 30
0.0
 10
-549.2675
 20
13.4813
 30
0.0
 10
-603.5243
 20
27.3271
 30
0.0
 10
-496.6881
 20
156.7187
 30
0.0
 10
-490.0306
 20
59.1614
 30
0.0
  0
SPLINE
  5
8A
330
1F
100
AcDbEntity
  8
Layer 1
 62
   250
370
    20
100
AcDbSpline
210
0.0
220
0.0
230
1.0
 70
    11
 71
     3
 72
    53
 73
    49
 74
     0
 42
0.0000000001
 43
0.0000000001
 40
0.0
 40
0.0
 40
0.0
 40
0.0
 40
0.0625
 40
0.0625
 40
0.0625
 40
0.125
 40
0.125
 40
0.125
 40
0.1875
 40
0.1875
 40
0.1875
 40
0.25
 40
0.25
 40
0.25
 40
0.3125
 40
0.3125
 40
0.3125
 40
0.375
 40
0.375
 40
0.375
 40
0.4375
 40
0.4375
 40
0.4375
 40
0.5
 40
0.5
 40
0.5
 40
0.5625
 40
0.5625
 40
0.5625
 40
0.625
 40
0.625
 40
0.625
 40
0.6875
 40
0.6875
 40
0.6875
 40
0.75
 40
0.75
 40
0.75
 40
0.8125
 40
0.8125
 40
0.8125
 40
0.875
 40
0.875
 40
0.875
 40
0.9375
 40
0.9375
 40
0.9375
 40
1.0
 40
1.0
 40
1.0
 40
1.0
 10
-546.8979
 20
449.9875
 30
0.0
 10
-524.9247
 20
473.1085
 30
0.0
 10
-518.7176
 20
512.4819
 30
0.0
 10
-478.1833
 20
513.4334
 30
0.0
 10
-447.7435
 20
514.1499
 30
0.0
 10
-375.8768
 20
510.2806
 30
0.0
 10
-345.4925
 20
500.7444
 30
0.0
 10
-337.5606
 20
498.2525
 30
0.0
 10
-331.6062
 20
489.7896
 30
0.0
 10
-324.1678
 20
488.0554
 30
0.0
 10
-315.2231
 20
485.9702
 30
0.0
 10
-306.736
 20
489.4692
 30
0.0
 10
-298.1037
 20
488.0554
 30
0.0
 10
-288.8751
 20
486.5447
 30
0.0
 10
-281.5387
 20
478.7533
 30
0.0
 10
-272.0388
 20
475.3655
 30
0.0
 10
-245.4562
 20
465.8916
 30
0.0
 10
-220.3827
 20
465.413
 30
0.0
 10
-205.6939
 20
449.9875
 30
0.0
 10
-183.1405
 20
445.3814
 30
0.0
 10
-159.3879
 20
442.0598
 30
0.0
 10
-153.5659
 20
419.5334
 30
0.0
 10
-189.5301
 20
399.5777
 30
0.0
 10
-230.6385
 20
401.3253
 30
0.0
 10
-276.7782
 20
386.5414
 30
0.0
 10
-283.2081
 20
384.4792
 30
0.0
 10
-287.873
 20
377.3419
 30
0.0
 10
-295.7341
 20
373.8524
 30
0.0
 10
-303.8907
 20
370.2305
 30
0.0
 10
-313.9182
 20
371.9791
 30
0.0
 10
-321.7982
 20
368.7765
 30
0.0
 10
-359.0835
 20
353.6223
 30
0.0
 10
-400.37
 20
323.3861
 30
0.0
 10
-426.0552
 20
292.6414
 30
0.0
 10
-435.659
 20
281.1456
 30
0.0
 10
-439.9604
 20
267.389
 30
0.0
 10
-447.38
 20
267.2634
 30
0.0
 10
-468.4057
 20
266.9037
 30
0.0
 10
-473.3483
 20
322.0749
 30
0.0
 10
-494.7698
 20
320.5584
 30
0.0
 10
-519.4511
 20
324.0143
 30
0.0
 10
-539.8883
 20
319.1436
 30
0.0
 10
-561.1148
 20
323.0954
 30
0.0
 10
-586.3208
 20
367.4249
 30
0.0
 10
-513.398
 20
373.7104
 30
0.0
 10
-518.4642
 20
411.9204
 30
0.0
 10
-521.0066
 20
431.1059
 30
0.0
 10
-535.8369
 20
435.2755
 30
0.0
 10
-546.8979
 20
449.9875
 30
0.0
  0
SPLINE
  5
8B
330
1F
100
AcDbEntity
  8
Layer 1
 62
   250
370
    20
100
AcDbSpline
210
0.0
220
0.0
230
1.0
 70
    11
 71
     3
 72
    26
 73
    22
 74
     0
 42
0.0000000001
 43
0.0000000001
 40
0.0
 40
0.0
 40
0.0
 40
0.0
 40
0.1428571428571428
 40
0.1428571428571428
 40
0.1428571428571428
 40
0.2857142857142857
 40
0.2857142857142857
 40
0.2857142857142857
 40
0.4285714285714285
 40
0.4285714285714285
 40
0.4285714285714285
 40
0.5714285714285714
 40
0.5714285714285714
 40
0.5714285714285714
 40
0.7142857142857142
 40
0.7142857142857142
 40
0.7142857142857142
 40
0.8571428571428571
 40
0.8571428571428571
 40
0.8571428571428571
 40
1.0
 40
1.0
 40
1.0
 40
1.0
 10
-890.4706
 20
467.7524
 30
0.0
 10
-823.6814
 20
495.8804
 30
0.0
 10
-720.7103
 20
516.5853
 30
0.0
 10
-627.4596
 20
505.8194
 30
0.0
 10
-621.7218
 20
486.9053
 30
0.0
 10
-639.2995
 20
474.8503
 30
0.0
 10
-648.7844
 20
462.6764
 30
0.0
 10
-677.0238
 20
426.4299
 30
0.0
 10
-696.2297
 20
374.7416
 30
0.0
 10
-729.3461
 20
340.8604
 30
0.0
 10
-741.9957
 20
342.539
 30
0.0
 10
-752.3564
 20
346.6702
 30
0.0
 10
-762.519
 20
351.0124
 30
0.0
 10
-776.4797
 20
414.7289
 30
0.0
 10
-832.9709
 20
432.8996
 30
0.0
 10
-888.1009
 20
452.5254
 30
0.0
 10
-887.0978
 20
457.8287
 30
0.0
 10
-889.7236
 20
459.2464
 30
0.0
 10
-890.4706
 20
462.6764
 30
0.0
 10
-890.4706
 20
464.3685
 30
0.0
 10
-890.4706
 20
466.0604
 30
0.0
 10
-890.4706
 20
467.7524
 30
0.0
  0
SPLINE
  5
8C
330
1F
100
AcDbEntity
  8
Layer 1
 62
   250
370
    20
100
AcDbSpline
210
0.0
220
0.0
230
1.0
 70
    11
 71
     3
 72
    32
 73
    28
 74
     0
 42
0.0000000001
 43
0.0000000001
 40
0.0
 40
0.0
 40
0.0
 40
0.0
 40
0.1111111111111111
 40
0.1111111111111111
 40
0.1111111111111111
 40
0.2222222222222222
 40
0.2222222222222222
 40
0.2222222222222222
 40
0.3333333333333333
 40
0.3333333333333333
 40
0.3333333333333333
 40
0.4444444444444444
 40
0.4444444444444444
 40
0.4444444444444444
 40
0.5555555555555556
 40
0.5555555555555556
 40
0.5555555555555556
 40
0.6666666666666666
 40
0.6666666666666666
 40
0.6666666666666666
 40
0.7777777777777777
 40
0.7777777777777777
 40
0.7777777777777777
 40
0.8888888888888888
 40
0.8888888888888888
 40
0.8888888888888888
 40
1.0
 40
1.0
 40
1.0
 40
1.0
 10
-888.1009
 20
-453.4798
 30
0.0
 10
-813.7803
 20
-450.1782
 30
0.0
 10
-773.7186
 20
-410.1843
 30
0.0
 10
-750.6719
 20
-351.9658
 30
0.0
 10
-742.0915
 20
-347.6207
 30
0.0
 10
-731.3083
 20
-345.6342
 30
0.0
 10
-717.4989
 20
-346.8907
 30
0.0
 10
-687.4237
 20
-401.8106
 30
0.0
 10
-656.4448
 20
-455.7607
 30
0.0
 10
-620.3515
 20
-504.2358
 30
0.0
 10
-626.5434
 20
-524.1522
 30
0.0
 10
-642.8943
 20
-514.453
 30
0.0
 10
-655.8922
 20
-514.3878
 30
0.0
 10
-693.1345
 20
-514.1988
 30
0.0
 10
-733.6197
 20
-511.3625
 30
0.0
 10
-774.3663
 20
-504.2358
 30
0.0
 10
-787.9014
 20
-501.8685
 30
0.0
 10
-802.43
 20
-504.9053
 30
0.0
 10
-814.647
 20
-501.6978
 30
0.0
 10
-820.7064
 20
-500.1075
 30
0.0
 10
-826.5221
 20
-492.6738
 30
0.0
 10
-835.9729
 20
-489.0088
 30
0.0
 10
-858.4949
 20
-480.2736
 30
0.0
 10
-880.2398
 20
-486.6051
 30
0.0
 10
-890.4706
 20
-466.1687
 30
0.0
 10
-892.429
 20
-458.996
 30
0.0
 10
-887.1318
 20
-459.5945
 30
0.0
 10
-888.1009
 20
-453.4798
 30
0.0
  0
SPLINE
  5
8D
330
1F
100
AcDbEntity
  8
Layer 1
 62
   250
370
    20
100
AcDbSpline
210
0.0
220
0.0
230
1.0
 70
    11
 71
     3
 72
    32
 73
    28
 74
     0
 42
0.0000000001
 43
0.0000000001
 40
0.0
 40
0.0
 40
0.0
 40
0.0
 40
0.1111111111111111
 40
0.1111111111111111
 40
0.1111111111111111
 40
0.2222222222222222
 40
0.2222222222222222
 40
0.2222222222222222
 40
0.3333333333333333
 40
0.3333333333333333
 40
0.3333333333333333
 40
0.4444444444444444
 40
0.4444444444444444
 40
0.4444444444444444
 40
0.5555555555555556
 40
0.5555555555555556
 40
0.5555555555555556
 40
0.6666666666666666
 40
0.6666666666666666
 40
0.6666666666666666
 40
0.7777777777777777
 40
0.7777777777777777
 40
0.7777777777777777
 40
0.8888888888888888
 40
0.8888888888888888
 40
0.8888888888888888
 40
1.0
 40
1.0
 40
1.0
 40
1.0
 10
-1023.1612
 20
-326.5878
 30
0.0
 10
-1025.3849
 20
-310.5838
 30
0.0
 10
-1020.1682
 20
-279.889
 30
0.0
 10
-1013.6827
 20
-263.1418
 30
0.0
 10
-997.2664
 20
-220.7402
 30
0.0
 10
-934.4695
 20
-163.5471
 30
0.0
 10
-880.993
 20
-148.9397
 30
0.0
 10
-850.6894
 20
-140.662
 30
0.0
 10
-817.8433
 20
-146.4631
 30
0.0
 10
-809.9087
 20
-166.7038
 30
0.0
 10
-801.5442
 20
-188.0426
 30
0.0
 10
-809.5469
 20
-236.1839
 30
0.0
 10
-807.5391
 20
-263.1418
 30
0.0
 10
-805.5367
 20
-290.0171
 30
0.0
 10
-798.7242
 20
-315.4421
 30
0.0
 10
-800.4302
 20
-331.6637
 30
0.0
 10
-805.2286
 20
-377.2373
 30
0.0
 10
-837.2409
 20
-417.6735
 30
0.0
 10
-892.8401
 20
-397.6468
 30
0.0
 10
-907.8834
 20
-392.2274
 30
0.0
 10
-918.1331
 20
-378.0363
 30
0.0
 10
-933.121
 20
-379.8818
 30
0.0
 10
-960.7307
 20
-383.2811
 30
0.0
 10
-947.156
 20
-406.9508
 30
0.0
 10
-968.6627
 20
-407.7988
 30
0.0
 10
-990.0992
 20
-408.6448
 30
0.0
 10
-1019.1752
 20
-355.274
 30
0.0
 10
-1023.1612
 20
-326.5878
 30
0.0
  0
SPLINE
  5
8E
330
1F
100
AcDbEntity
  8
Layer 1
 62
   250
370
    20
100
AcDbSpline
210
0.0
220
0.0
230
1.0
 70
    11
 71
     3
 72
    29
 73
    25
 74
     0
 42
0.0000000001
 43
0.0000000001
 40
0.0
 40
0.0
 40
0.0
 40
0.0
 40
0.125
 40
0.125
 40
0.125
 40
0.25
 40
0.25
 40
0.25
 40
0.375
 40
0.375
 40
0.375
 40
0.5
 40
0.5
 40
0.5
 40
0.625
 40
0.625
 40
0.625
 40
0.75
 40
0.75
 40
0.75
 40
0.875
 40
0.875
 40
0.875
 40
1.0
 40
1.0
 40
1.0
 40
1.0
 10
-819.3863
 20
150.5234
 30
0.0
 10
-857.921
 20
118.572
 30
0.0
 10
-926.2225
 20
154.5443
 30
0.0
 10
-959.1852
 20
180.9774
 30
0.0
 10
-1007.0871
 20
219.3887
 30
0.0
 10
-1060.0667
 20
305.6316
 30
0.0
 10
-1004.205
 20
373.8524
 30
0.0
 10
-995.949
 20
383.9344
 30
0.0
 10
-985.0485
 20
399.4625
 30
0.0
 10
-973.4019
 20
399.2304
 30
0.0
 10
-957.1423
 20
398.9101
 30
0.0
 10
-952.2829
 20
375.9338
 30
0.0
 10
-940.2289
 20
373.8524
 30
0.0
 10
-917.1059
 20
369.8603
 30
0.0
 10
-898.3074
 20
394.492
 30
0.0
 10
-876.2537
 20
396.6934
 30
0.0
 10
-822.3075
 20
402.0763
 30
0.0
 10
-803.4321
 20
350.6153
 30
0.0
 10
-807.5391
 20
285.0284
 30
0.0
 10
-808.8125
 20
264.6496
 30
0.0
 10
-816.5975
 20
239.1124
 30
0.0
 10
-817.0168
 20
216.5064
 30
0.0
 10
-817.5102
 20
189.9227
 30
0.0
 10
-810.3681
 20
173.6147
 30
0.0
 10
-819.3863
 20
150.5234
 30
0.0
  0
SPLINE
  5
8F
330
1F
100
AcDbEntity
  8
Layer 1
 62
   250
370
    20
100
AcDbSpline
210
0.0
220
0.0
230
1.0
 70
    11
 71
     3
 72
    32
 73
    28
 74
     0
 42
0.0000000001
 43
0.0000000001
 40
0.0
 40
0.0
 40
0.0
 40
0.0
 40
0.1111111111111111
 40
0.1111111111111111
 40
0.1111111111111111
 40
0.2222222222222222
 40
0.2222222222222222
 40
0.2222222222222222
 40
0.3333333333333333
 40
0.3333333333333333
 40
0.3333333333333333
 40
0.4444444444444444
 40
0.4444444444444444
 40
0.4444444444444444
 40
0.5555555555555556
 40
0.5555555555555556
 40
0.5555555555555556
 40
0.6666666666666666
 40
0.6666666666666666
 40
0.6666666666666666
 40
0.7777777777777777
 40
0.7777777777777777
 40
0.7777777777777777
 40
0.8888888888888888
 40
0.8888888888888888
 40
0.8888888888888888
 40
1.0
 40
1.0
 40
1.0
 40
1.0
 10
-1044.486
 20
46.4723
 30
0.0
 10
-1048.2866
 20
23.24
 30
0.0
 10
-1030.2692
 20
13.3691
 30
0.0
 10
-1030.2692
 20
-4.2837
 30
0.0
 10
-1030.2692
 20
-23.0971
 30
0.0
 10
-1050.0545
 20
-37.3044
 30
0.0
 10
-1044.486
 20
-60.1147
 30
0.0
 10
-1064.7021
 20
-66.1125
 30
0.0
 10
-1117.6308
 20
-98.2604
 30
0.0
 10
-1155.8511
 20
-90.5687
 30
0.0
 10
-1166.4383
 20
-88.4394
 30
0.0
 10
-1183.5439
 20
-78.0946
 30
0.0
 10
-1184.2847
 20
-67.7287
 30
0.0
 10
-1185.8258
 20
-46.1721
 30
0.0
 10
-1159.006
 20
-49.0535
 30
0.0
 10
-1151.1128
 20
-32.1987
 30
0.0
 10
-1154.8489
 20
-10.2968
 30
0.0
 10
-1161.5235
 20
2.2742
 30
0.0
 10
-1148.7431
 20
18.5554
 30
0.0
 10
-1153.673
 20
42.1081
 30
0.0
 10
-1186.3828
 20
30.3245
 30
0.0
 10
-1186.6544
 20
54.0853
 30
0.0
 10
-1186.7294
 20
60.6548
 30
0.0
 10
-1174.2034
 20
74.2829
 30
0.0
 10
-1167.6983
 20
76.9264
 30
0.0
 10
-1133.5653
 20
90.798
 30
0.0
 10
-1061.0894
 20
63.6551
 30
0.0
 10
-1044.486
 20
46.4723
 30
0.0
  0
SPLINE
  5
90
330
1F
100
AcDbEntity
  8
Layer 1
 62
   250
370
    20
100
AcDbSpline
210
0.0
220
0.0
230
1.0
 70
    11
 71
     3
 72
    23
 73
    19
 74
     0
 42
0.0000000001
 43
0.0000000001
 40
0.0
 40
0.0
 40
0.0
 40
0.0
 40
0.1666666666666667
 40
0.1666666666666667
 40
0.1666666666666667
 40
0.3333333333333333
 40
0.3333333333333333
 40
0.3333333333333333
 40
0.5
 40
0.5
 40
0.5
 40
0.6666666666666666
 40
0.6666666666666666
 40
0.6666666666666666
 40
0.8333333333333333
 40
0.8333333333333333
 40
0.8333333333333333
 40
1.0
 40
1.0
 40
1.0
 40
1.0
 10
-1111.6029
 20
-590.0266
 30
0.0
 10
-1109.7211
 20
-588.5085
 30
0.0
 10
-1107.8836
 20
-586.9788
 30
0.0
 10
-1106.0926
 20
-585.4468
 30
0.0
 10
-1093.022
 20
-584.1231
 30
0.0
 10
-1084.287
 20
-592.3069
 30
0.0
 10
-1075.2892
 20
-587.9848
 30
0.0
 10
-1058.6222
 20
-582.9951
 30
0.0
 10
-1070.6754
 20
-547.2455
 30
0.0
 10
-1058.7028
 20
-537.2278
 30
0.0
 10
-1035.0407
 20
-545.7223
 30
0.0
 10
-1012.9367
 20
-555.8848
 30
0.0
 10
-994.7275
 20
-570.2198
 30
0.0
 10
-976.9633
 20
-577.6925
 30
0.0
 10
-957.6284
 20
-583.4819
 30
0.0
 10
-938.9987
 20
-590.0266
 30
0.0
 10
-938.9987
 20
-590.0266
 30
0.0
 10
-1111.6029
 20
-590.0266
 30
0.0
 10
-1111.6029
 20
-590.0266
 30
0.0
  0
SPLINE
  5
91
330
1F
100
AcDbEntity
  8
Layer 1
 62
   250
370
    20
100
AcDbSpline
210
0.0
220
0.0
230
1.0
 70
    11
 71
     3
 72
    20
 73
    16
 74
     0
 42
0.0000000001
 43
0.0000000001
 40
0.0
 40
0.0
 40
0.0
 40
0.0
 40
0.2
 40
0.2
 40
0.2
 40
0.4
 40
0.4
 40
0.4
 40
0.6000000000000001
 40
0.6000000000000001
 40
0.6000000000000001
 40
0.8
 40
0.8
 40
0.8
 40
1.0
 40
1.0
 40
1.0
 40
1.0
 10
-927.4482
 20
589.9734
 30
0.0
 10
-956.7498
 20
580.2833
 30
0.0
 10
-980.9647
 20
565.1449
 30
0.0
 10
-1011.3132
 20
556.5765
 30
0.0
 10
-1025.4968
 20
546.389
 30
0.0
 10
-1037.9655
 20
534.3666
 30
0.0
 10
-1058.7028
 20
531.1984
 30
0.0
 10
-1069.5971
 20
544.063
 30
0.0
 10
-1067.4398
 20
570.9047
 30
0.0
 10
-1080.0285
 20
581.9544
 30
0.0
 10
-1101.4305
 20
575.9686
 30
0.0
 10
-1117.3157
 20
581.1356
 30
0.0
 10
-1130.4181
 20
589.9734
 30
0.0
 10
-1130.4181
 20
589.9734
 30
0.0
 10
-927.4482
 20
589.9734
 30
0.0
 10
-927.4482
 20
589.9734
 30
0.0
  0
SPLINE
  5
92
330
1F
100
AcDbEntity
  8
Layer 1
 62
   250
370
    20
100
AcDbSpline
210
0.0
220
0.0
230
1.0
 70
    11
 71
     3
 72
    29
 73
    25
 74
     0
 42
0.0000000001
 43
0.0000000001
 40
0.0
 40
0.0
 40
0.0
 40
0.0
 40
0.125
 40
0.125
 40
0.125
 40
0.25
 40
0.25
 40
0.25
 40
0.375
 40
0.375
 40
0.375
 40
0.5
 40
0.5
 40
0.5
 40
0.625
 40
0.625
 40
0.625
 40
0.75
 40
0.75
 40
0.75
 40
0.875
 40
0.875
 40
0.875
 40
1.0
 40
1.0
 40
1.0
 40
1.0
 10
-1200.05
 20
-105.8662
 30
0.0
 10
-1192.8537
 20
-114.8733
 30
0.0
 10
-1188.3544
 20
-128.434
 30
0.0
 10
-1189.0239
 20
-143.8637
 30
0.0
 10
-1171.043
 20
-152.9673
 30
0.0
 10
-1143.4566
 20
-136.0915
 30
0.0
 10
-1132.1566
 20
-151.4767
 30
0.0
 10
-1141.2008
 20
-187.425
 30
0.0
 10
-1161.4527
 20
-196.8892
 30
0.0
 10
-1167.6983
 20
-227.6118
 30
0.0
 10
-1173.0527
 20
-253.9509
 30
0.0
 10
-1175.5146
 20
-303.6796
 30
0.0
 10
-1167.6983
 20
-334.2008
 30
0.0
 10
-1161.5083
 20
-358.3769
 30
0.0
 10
-1145.6256
 20
-378.0363
 30
0.0
 10
-1141.6342
 20
-400.1848
 30
0.0
 10
-1134.8442
 20
-437.871
 30
0.0
 10
-1136.2214
 20
-482.5487
 30
0.0
 10
-1162.9599
 20
-499.1608
 30
0.0
 10
-1175.1759
 20
-504.819
 30
0.0
 10
-1188.9092
 20
-501.464
 30
0.0
 10
-1200.05
 20
-503.4783
 30
0.0
 10
-1200.05
 20
-503.4783
 30
0.0
 10
-1200.05
 20
-105.8662
 30
0.0
 10
-1200.05
 20
-105.8662
 30
0.0
  0
SPLINE
  5
93
330
1F
100
AcDbEntity
  8
Layer 1
 62
   250
370
    20
100
AcDbSpline
210
0.0
220
0.0
230
1.0
 70
    11
 71
     3
 72
    17
 73
    13
 74
     0
 42
0.0000000001
 43
0.0000000001
 40
0.0
 40
0.0
 40
0.0
 40
0.0
 40
0.25
 40
0.25
 40
0.25
 40
0.5
 40
0.5
 40
0.5
 40
0.75
 40
0.75
 40
0.75
 40
1.0
 40
1.0
 40
1.0
 40
1.0
 10
-1200.05
 20
-515.6202
 30
0.0
 10
-1192.9472
 20
-533.5328
 30
0.0
 10
-1178.294
 20
-543.3585
 30
0.0
 10
-1167.6983
 20
-557.5308
 30
0.0
 10
-1172.2561
 20
-571.4974
 30
0.0
 10
-1181.8878
 20
-583.8928
 30
0.0
 10
-1194.7669
 20
-590.0266
 30
0.0
 10
-1194.7669
 20
-590.0266
 30
0.0
 10
-1200.05
 20
-590.0266
 30
0.0
 10
-1200.05
 20
-590.0266
 30
0.0
 10
-1200.05
 20
-590.0266
 30
0.0
 10
-1200.05
 20
-515.6202
 30
0.0
 10
-1200.05
 20
-515.6202
 30
0.0
  0
SPLINE
  5
94
330
1F
100
AcDbEntity
  8
Layer 1
 62
   250
370
    20
100
AcDbSpline
210
0.0
220
0.0
230
1.0
 70
    11
 71
     3
 72
    14
 73
    10
 74
     0
 42
0.0000000001
 43
0.0000000001
 40
0.0
 40
0.0
 40
0.0
 40
0.0
 40
0.3333333333333333
 40
0.3333333333333333
 40
0.3333333333333333
 40
0.6666666666666666
 40
0.6666666666666666
 40
0.6666666666666666
 40
1.0
 40
1.0
 40
1.0
 40
1.0
 10
-1172.4375
 20
559.1144
 30
0.0
 10
-1171.2007
 20
541.987
 30
0.0
 10
-1190.0172
 20
532.3422
 30
0.0
 10
-1200.05
 20
520.8504
 30
0.0
 10
-1200.05
 20
520.8504
 30
0.0
 10
-1200.05
 20
584.8585
 30
0.0
 10
-1200.05
 20
584.8585
 30
0.0
 10
-1189.1933
 20
577.3698
 30
0.0
 10
-1180.7138
 20
563.5723
 30
0.0
 10
-1172.4375
 20
559.1144
 30
0.0
  0
SPLINE
  5
95
330
1F
100
AcDbEntity
  8
Layer 1
 62
   250
370
    20
100
AcDbSpline
210
0.0
220
0.0
230
1.0
 70
    11
 71
     3
 72
    29
 73
    25
 74
     0
 42
0.0000000001
 43
0.0000000001
 40
0.0
 40
0.0
 40
0.0
 40
0.0
 40
0.125
 40
0.125
 40
0.125
 40
0.25
 40
0.25
 40
0.25
 40
0.375
 40
0.375
 40
0.375
 40
0.5
 40
0.5
 40
0.5
 40
0.625
 40
0.625
 40
0.625
 40
0.75
 40
0.75
 40
0.75
 40
0.875
 40
0.875
 40
0.875
 40
1.0
 40
1.0
 40
1.0
 40
1.0
 10
-1200.05
 20
495.0187
 30
0.0
 10
-1191.7679
 20
489.2362
 30
0.0
 10
-1176.3284
 20
490.6788
 30
0.0
 10
-1160.5903
 20
488.0554
 30
0.0
 10
-1106.543
 20
434.8889
 30
0.0
 10
-1183.5092
 20
344.5514
 30
0.0
 10
-1179.5464
 20
269.8014
 30
0.0
 10
-1178.3168
 20
246.6074
 30
0.0
 10
-1166.9022
 20
233.1847
 30
0.0
 10
-1167.6983
 20
203.8174
 30
0.0
 10
-1160.0431
 20
182.6953
 30
0.0
 10
-1136.389
 20
167.0587
 30
0.0
 10
-1144.0038
 20
137.8344
 30
0.0
 10
-1162.6913
 20
131.9191
 30
0.0
 10
-1179.1058
 20
138.994
 30
0.0
 10
-1198.5015
 20
135.2963
 30
0.0
 10
-1202.579
 20
126.6512
 30
0.0
 10
-1188.988
 20
118.2613
 30
0.0
 10
-1196.1319
 20
104.8424
 30
0.0
 10
-1197.4166
 20
103.7073
 30
0.0
 10
-1198.7217
 20
102.594
 30
0.0
 10
-1200.05
 20
101.5055
 30
0.0
 10
-1200.05
 20
101.5055
 30
0.0
 10
-1200.05
 20
495.0187
 30
0.0
 10
-1200.05
 20
495.0187
 30
0.0
  0
ENDSEC
  0
SECTION
  2
OBJECTS
  0
DICTIONARY
  5
C
330
0
100
AcDbDictionary
281
     1
  3
ACAD_DETAILVIEWSTYLE
350
9D
  3
ACAD_GROUP
350
D
  3
ACAD_LAYOUT
350
1A
  3
ACAD_MATERIAL
350
43
  3
ACAD_MLEADERSTYLE
350
5B
  3
ACAD_MLINESTYLE
350
17
  3
ACAD_PLOTSETTINGS
350
19
  3
ACAD_PLOTSTYLENAME
350
E
  3
ACAD_SCALELIST
350
47
  3
ACAD_SECTIONVIEWSTYLE
350
9E
  3
ACAD_TABLESTYLE
350
59
  3
ACAD_VISUALSTYLE
350
2A
  3
ACDB_RECOMPOSE_DATA
350
9A
  3
AcDbVariableDictionary
350
96
  0
SUN
  5
5D
330
29
100
AcDbSun
 90
        1
290
     0
 63
     7
421
 16777215
 40
1.0
291
     1
 91
  2455826
 92
 54000000
292
     0
 70
     2
 71
   256
280
     1
  0
DICTIONARY
  5
9D
102
{ACAD_REACTORS
330
C
102
}
330
C
100
AcDbDictionary
281
     1
  0
DICTIONARY
  5
D
102
{ACAD_REACTORS
330
C
102
}
330
C
100
AcDbDictionary
281
     1
  0
DICTIONARY
  5
1A
102
{ACAD_REACTORS
330
C
102
}
330
C
100
AcDbDictionary
281
     1
  3
Layout1
350
1E
  3
Layout2
350
26
  3
Model
350
22
  0
DICTIONARY
  5
43
102
{ACAD_REACTORS
330
C
102
}
330
C
100
AcDbDictionary
281
     1
  3
ByBlock
350
45
  3
ByLayer
350
44
  3
Global
350
46
  0
DICTIONARY
  5
5B
102
{ACAD_REACTORS
330
C
102
}
330
C
100
AcDbDictionary
281
     1
  3
Standard
350
5C
  0
DICTIONARY
  5
17
102
{ACAD_REACTORS
330
C
102
}
330
C
100
AcDbDictionary
281
     1
  3
Standard
350
18
  0
DICTIONARY
  5
19
102
{ACAD_REACTORS
330
C
102
}
330
C
100
AcDbDictionary
281
     1
  0
ACDBDICTIONARYWDFLT
  5
E
102
{ACAD_REACTORS
330
C
102
}
330
C
100
AcDbDictionary
281
     1
  3
Normal
350
F
100
AcDbDictionaryWithDefault
340
F
  0
DICTIONARY
  5
47
102
{ACAD_REACTORS
330
C
102
}
330
C
100
AcDbDictionary
281
     1
  3
A0
350
48
  3
A1
350
49
  3
A2
350
4A
  3
A3
350
4B
  3
A4
350
4C
  3
A5
350
4D
  3
A6
350
4E
  3
A7
350
4F
  3
A8
350
50
  3
A9
350
51
  3
B1
350
52
  3
B2
350
53
  3
B3
350
54
  3
B4
350
55
  3
B5
350
56
  3
B6
350
57
  3
B7
350
58
  0
DICTIONARY
  5
9E
102
{ACAD_REACTORS
330
C
102
}
330
C
100
AcDbDictionary
281
     1
  0
DICTIONARY
  5
59
102
{ACAD_REACTORS
330
C
102
}
330
C
100
AcDbDictionary
281
     1
  3
Standard
350
5A
  0
DICTIONARY
  5
2A
102
{ACAD_REACTORS
330
C
102
}
330
C
100
AcDbDictionary
281
     1
  3
2dWireframe
350
2F
  3
Basic
350
32
  3
Brighten
350
36
  3
ColorChange
350
3A
  3
Conceptual
350
34
  3
Dim
350
35
  3
EdgeColorOff
350
3D
  3
Facepattern
350
39
  3
Flat
350
2B
  3
FlatWithEdges
350
2C
  3
Gouraud
350
2D
  3
GouraudWithEdges
350
2E
  3
Hidden
350
31
  3
JitterOff
350
3B
  3
Linepattern
350
38
  3
OverhangOff
350
3C
  3
Realistic
350
33
  3
Shaded
350
42
  3
Shaded with edges
350
41
  3
Shades of Gray
350
3E
  3
Sketchy
350
3F
  3
Thicken
350
37
  3
Wireframe
350
30
  3
X-Ray
350
40
  0
XRECORD
  5
9A
102
{ACAD_REACTORS
330
C
102
}
330
C
100
AcDbXrecord
280
     1
 90
        1
330
5A
  0
DICTIONARY
  5
96
102
{ACAD_REACTORS
330
C
102
}
330
C
100
AcDbDictionary
281
     1
  3
CANNOSCALE
350
97
  3
CMLEADERSTYLE
350
9C
  3
CTABLESTYLE
350
9B
  0
LAYOUT
  5
1E
102
{ACAD_REACTORS
330
1A
102
}
330
1A
100
AcDbPlotSettings
  1

  2
none_device
  4

  6

 40
0.0
 41
0.0
 42
0.0
 43
0.0
 44
0.0
 45
0.0
 46
0.0
 47
0.0
 48
0.0
 49
0.0
140
0.0
141
0.0
142
1.0
143
1.0
 70
   688
 72
     0
 73
     0
 74
     5
  7

 75
    16
 76
     0
 77
     2
 78
   300
147
1.0
148
0.0
149
0.0
100
AcDbLayout
  1
Layout1
 70
     1
 71
     1
 10
0.0
 20
0.0
 11
12.0
 21
9.0
 12
0.0
 22
0.0
 32
0.0
 14
1.000000000000000E+20
 24
1.000000000000000E+20
 34
1.000000000000000E+20
 15
-1.000000000000000E+20
 25
-1.000000000000000E+20
 35
-1.000000000000000E+20
146
0.0
 13
0.0
 23
0.0
 33
0.0
 16
1.0
 26
0.0
 36
0.0
 17
0.0
 27
1.0
 37
0.0
 76
     0
330
1B
  0
LAYOUT
  5
26
102
{ACAD_REACTORS
330
1A
102
}
330
1A
100
AcDbPlotSettings
  1

  2
none_device
  4

  6

 40
0.0
 41
0.0
 42
0.0
 43
0.0
 44
0.0
 45
0.0
 46
0.0
 47
0.0
 48
0.0
 49
0.0
140
0.0
141
0.0
142
1.0
143
1.0
 70
   688
 72
     0
 73
     0
 74
     5
  7

 75
    16
 76
     0
 77
     2
 78
   300
147
1.0
148
0.0
149
0.0
100
AcDbLayout
  1
Layout2
 70
     1
 71
     2
 10
0.0
 20
0.0
 11
0.0
 21
0.0
 12
0.0
 22
0.0
 32
0.0
 14
0.0
 24
0.0
 34
0.0
 15
0.0
 25
0.0
 35
0.0
146
0.0
 13
0.0
 23
0.0
 33
0.0
 16
1.0
 26
0.0
 36
0.0
 17
0.0
 27
1.0
 37
0.0
 76
     0
330
23
  0
LAYOUT
  5
22
102
{ACAD_REACTORS
330
1A
102
}
330
1A
100
AcDbPlotSettings
  1

  2
none_device
  4
Letter_(8.50_x_11.00_Inches)
  6

 40
6.35
 41
6.35
 42
6.35000508
 43
6.35000508
 44
215.9
 45
279.4
 46
0.0
 47
0.0
 48
0.0
 49
0.0
140
0.0
141
0.0
142
1.0
143
1.0
 70
  1712
 72
     0
 73
     0
 74
     0
  7

 75
     0
 76
     0
 77
     2
 78
   300
147
1.0
148
0.0
149
0.0
100
AcDbLayout
  1
Model
 70
     1
 71
     0
 10
0.0
 20
0.0
 11
12.0
 21
9.0
 12
0.0
 22
0.0
 32
0.0
 14
-1200.15
 24
-590.1266
 34
0.0
 15
1200.05
 25
590.0734
 35
0.0
146
0.0
 13
0.0
 23
0.0
 33
0.0
 16
1.0
 26
0.0
 36
0.0
 17
0.0
 27
1.0
 37
0.0
 76
     0
330
1F
331
29
  0
MATERIAL
  5
45
102
{ACAD_REACTORS
330
43
102
}
330
43
100
AcDbMaterial
  1
ByBlock
 72
     1
 94
      127
  0
MATERIAL
  5
44
102
{ACAD_REACTORS
330
43
102
}
330
43
100
AcDbMaterial
  1
ByLayer
 72
     1
 94
      127
  0
MATERIAL
  5
46
102
{ACAD_REACTORS
330
43
102
}
330
43
100
AcDbMaterial
  1
Global
 72
     1
 94
      127
  0
MLEADERSTYLE
  5
5C
102
{ACAD_REACTORS
330
5B
102
}
330
5B
100
AcDbMLeaderStyle
179
     2
170
     2
171
     1
172
     0
 90
        2
 40
0.0
 41
0.0
173
     1
 91
-1056964608
340
14
 92
       -2
290
     1
 42
0.09
291
     1
 43
0.36
  3
Standard
341
0
 44
0.18
300

342
11
174
     1
178
     6
175
     1
176
     0
 93
-1056964608
 45
0.18
292
     0
297
     0
 46
0.18
343
0
 94
-1056964608
 47
1.0
 49
1.0
140
1.0
293
     1
141
0.0
294
     1
177
     0
142
1.0
295
     0
296
     0
143
0.125
271
     0
272
     9
273
     9
298
     0
  0
MLINESTYLE
  5
18
102
{ACAD_REACTORS
330
17
102
}
330
17
100
AcDbMlineStyle
  2
Standard
 70
     0
  3

 62
   256
 51
90.0
 52
90.0
 71
     2
 49
0.5
 62
   256
  6
BYLAYER
 49
-0.5
 62
   256
  6
BYLAYER
  0
ACDBPLACEHOLDER
  5
F
102
{ACAD_REACTORS
330
E
102
}
330
E
  0
SCALE
  5
48
102
{ACAD_REACTORS
330
47
102
}
330
47
100
AcDbScale
 70
     0
300
1:1
140
1.0
141
1.0
290
     1
  0
SCALE
  5
49
102
{ACAD_REACTORS
330
47
102
}
330
47
100
AcDbScale
 70
     0
300
1/128" = 1'-0"
140
0.0078125
141
12.0
290
     0
  0
SCALE
  5
4A
102
{ACAD_REACTORS
330
47
102
}
330
47
100
AcDbScale
 70
     0
300
1/64" = 1'-0"
140
0.015625
141
12.0
290
     0
  0
SCALE
  5
4B
102
{ACAD_REACTORS
330
47
102
}
330
47
100
AcDbScale
 70
     0
300
1/32" = 1'-0"
140
0.03125
141
12.0
290
     0
  0
SCALE
  5
4C
102
{ACAD_REACTORS
330
47
102
}
330
47
100
AcDbScale
 70
     0
300
1/16" = 1'-0"
140
0.0625
141
12.0
290
     0
  0
SCALE
  5
4D
102
{ACAD_REACTORS
330
47
102
}
330
47
100
AcDbScale
 70
     0
300
3/32" = 1'-0"
140
0.09375
141
12.0
290
     0
  0
SCALE
  5
4E
102
{ACAD_REACTORS
330
47
102
}
330
47
100
AcDbScale
 70
     0
300
1/8" = 1'-0"
140
0.125
141
12.0
290
     0
  0
SCALE
  5
4F
102
{ACAD_REACTORS
330
47
102
}
330
47
100
AcDbScale
 70
     0
300
3/16" = 1'-0"
140
0.1875
141
12.0
290
     0
  0
SCALE
  5
50
102
{ACAD_REACTORS
330
47
102
}
330
47
100
AcDbScale
 70
     0
300
1/4" = 1'-0"
140
0.25
141
12.0
290
     0
  0
SCALE
  5
51
102
{ACAD_REACTORS
330
47
102
}
330
47
100
AcDbScale
 70
     0
300
3/8" = 1'-0"
140
0.375
141
12.0
290
     0
  0
SCALE
  5
52
102
{ACAD_REACTORS
330
47
102
}
330
47
100
AcDbScale
 70
     0
300
1/2" = 1'-0"
140
0.5
141
12.0
290
     0
  0
SCALE
  5
53
102
{ACAD_REACTORS
330
47
102
}
330
47
100
AcDbScale
 70
     0
300
3/4" = 1'-0"
140
0.75
141
12.0
290
     0
  0
SCALE
  5
54
102
{ACAD_REACTORS
330
47
102
}
330
47
100
AcDbScale
 70
     0
300
1" = 1'-0"
140
1.0
141
12.0
290
     0
  0
SCALE
  5
55
102
{ACAD_REACTORS
330
47
102
}
330
47
100
AcDbScale
 70
     0
300
1-1/2" = 1'-0"
140
1.5
141
12.0
290
     0
  0
SCALE
  5
56
102
{ACAD_REACTORS
330
47
102
}
330
47
100
AcDbScale
 70
     0
300
3" = 1'-0"
140
3.0
141
12.0
290
     0
  0
SCALE
  5
57
102
{ACAD_REACTORS
330
47
102
}
330
47
100
AcDbScale
 70
     0
300
6" = 1'-0"
140
6.0
141
12.0
290
     0
  0
SCALE
  5
58
102
{ACAD_REACTORS
330
47
102
}
330
47
100
AcDbScale
 70
     0
300
1'-0" = 1'-0"
140
12.0
141
12.0
290
     0
  0
TABLESTYLE
  5
5A
102
{ACAD_REACTORS
330
59
102
}
102
{ACAD_XDICTIONARY
360
98
102
}
330
59
100
AcDbTableStyle
  3
Standard
 70
     0
 71
     0
 40
0.06
 41
0.06
280
     0
281
     0
  7
Standard
140
0.18
170
     2
 62
     0
 63
   257
283
     0
 90
        4
 91
        0
  1

274
    -2
284
     1
 64
     0
275
    -2
285
     1
 65
     0
276
    -2
286
     1
 66
     0
277
    -2
287
     1
 67
     0
278
    -2
288
     1
 68
     0
279
    -2
289
     1
 69
     0
  7
Standard
140
0.25
170
     5
 62
     0
 63
   257
283
     0
 90
        4
 91
        0
  1

274
    -2
284
     1
 64
     0
275
    -2
285
     1
 65
     0
276
    -2
286
     1
 66
     0
277
    -2
287
     1
 67
     0
278
    -2
288
     1
 68
     0
279
    -2
289
     1
 69
     0
  7
Standard
140
0.18
170
     5
 62
     0
 63
   257
283
     0
 90
        4
 91
        0
  1

274
    -2
284
     1
 64
     0
275
    -2
285
     1
 65
     0
276
    -2
286
     1
 66
     0
277
    -2
287
     1
 67
     0
278
    -2
288
     1
 68
     0
279
    -2
289
     1
 69
     0
  0
VISUALSTYLE
  5
2F
102
{ACAD_REACTORS
330
2A
102
}
330
2A
100
AcDbVisualStyle
  2
2dWireframe
 70
     4
177
     3
291
     0
 70
    58
 90
        0
176
     1
 90
        2
176
     1
 90
        0
176
     1
 90
        0
176
     1
 40
0.6
176
     1
 40
30.0
176
     1
 62
     7
420
 16777215
176
     1
 90
        1
176
     1
 90
        4
176
     1
 62
     7
176
     1
 62
   257
176
     1
 90
        1
176
     1
 90
        1
176
     1
 40
1.0
176
     1
 90
        0
176
     1
 62
   257
176
     1
 40
1.0
176
     1
 90
        1
176
     1
 90
        6
176
     1
 90
        2
176
     1
 62
     7
176
     1
 90
        5
176
     1
 90
        0
176
     1
 90
        0
176
     1
290
     0
176
     1
 90
        1
176
     1
 40
0.0
176
     1
 90
        0
176
     1
290
     1
176
     1
290
     1
176
     1
290
     0
176
     1
290
     0
176
     1
290
     0
176
     1
290
     0
176
     1
290
     0
176
     1
290
     0
176
     1
290
     0
176
     1
 90
       50
176
     1
 40
0.0
176
     1
 40
1.0
176
     1
 90
        0
176
     1
 62
    18
420
        0
176
     1
 90
       50
176
     1
 90
        3
176
     1
 62
     5
420
      255
176
     1
290
     0
176
     1
 90
       50
176
     1
 90
       50
176
     1
 90
       50
176
     1
290
     0
176
     1
 90
       50
176
     1
 62
   256
176
     0
 40
1.0
176
     0
 90
        2
176
     1
  1
strokes_ogs.tif
176
     1
290
     0
176
     1
 40
1.0
176
     1
 40
1.0
176
     1
  0
VISUALSTYLE
  5
32
102
{ACAD_REACTORS
330
2A
102
}
330
2A
100
AcDbVisualStyle
  2
Basic
 70
     7
177
     3
291
     1
 70
    58
 90
        1
176
     1
 90
        0
176
     1
 90
        1
176
     1
 90
        0
176
     1
 40
0.6
176
     1
 40
30.0
176
     1
 62
     7
420
 16777215
176
     1
 90
        0
176
     1
 90
        4
176
     1
 62
     7
176
     1
 62
   257
176
     1
 90
        1
176
     1
 90
        1
176
     1
 40
1.0
176
     1
 90
        8
176
     1
 62
     7
176
     1
 40
1.0
176
     1
 90
        1
176
     1
 90
        6
176
     1
 90
        2
176
     1
 62
     7
176
     1
 90
        5
176
     1
 90
        0
176
     1
 90
        0
176
     1
290
     0
176
     1
 90
        1
176
     1
 40
0.0
176
     1
 90
        0
176
     1
290
     0
176
     1
290
     1
176
     1
290
     1
176
     1
290
     0
176
     1
290
     0
176
     1
290
     0
176
     1
290
     0
176
     1
290
     0
176
     1
290
     0
176
     1
 90
       50
176
     1
 40
0.0
176
     1
 40
1.0
176
     1
 90
        0
176
     1
 62
    18
420
        0
176
     1
 90
       50
176
     1
 90
        3
176
     1
 62
     5
420
      255
176
     1
290
     0
176
     1
 90
       50
176
     1
 90
       50
176
     1
 90
       50
176
     1
290
     0
176
     1
 90
       50
176
     1
 62
   256
176
     0
 40
1.0
176
     0
 90
        2
176
     1
  1
strokes_ogs.tif
176
     1
290
     0
176
     1
 40
1.0
176
     1
 40
1.0
176
     1
  0
VISUALSTYLE
  5
36
102
{ACAD_REACTORS
330
2A
102
}
330
2A
100
AcDbVisualStyle
  2
Brighten
 70
    12
177
     3
291
     1
 70
    58
 90
        2
176
     1
 90
        2
176
     1
 90
        0
176
     1
 90
        0
176
     1
 40
0.6
176
     1
 40
30.0
176
     1
 62
     7
420
 16777215
176
     1
 90
        1
176
     1
 90
        4
176
     1
 62
     7
176
     1
 62
   257
176
     1
 90
        1
176
     1
 90
        1
176
     1
 40
1.0
176
     1
 90
        8
176
     1
 62
     7
176
     1
 40
1.0
176
     1
 90
        1
176
     1
 90
        6
176
     1
 90
        2
176
     1
 62
     7
176
     1
 90
        5
176
     1
 90
        0
176
     1
 90
        0
176
     1
290
     0
176
     1
 90
        1
176
     1
 40
50.0
176
     1
 90
        0
176
     1
290
     0
176
     1
290
     1
176
     1
290
     1
176
     1
290
     0
176
     1
290
     0
176
     1
290
     0
176
     1
290
     0
176
     1
290
     0
176
     1
290
     0
176
     1
 90
       50
176
     1
 40
0.0
176
     1
 40
1.0
176
     1
 90
        0
176
     1
 62
    18
420
        0
176
     1
 90
       50
176
     1
 90
        3
176
     1
 62
     5
420
      255
176
     1
290
     0
176
     1
 90
       50
176
     1
 90
       50
176
     1
 90
       50
176
     1
290
     0
176
     1
 90
       50
176
     1
 62
   256
176
     0
 40
1.0
176
     0
 90
        2
176
     1
  1
strokes_ogs.tif
176
     1
290
     0
176
     1
 40
1.0
176
     1
 40
1.0
176
     1
  0
VISUALSTYLE
  5
3A
102
{ACAD_REACTORS
330
2A
102
}
330
2A
100
AcDbVisualStyle
  2
ColorChange
 70
    16
177
     3
291
     1
 70
    58
 90
        2
176
     1
 90
        2
176
     1
 90
        3
176
     1
 90
        0
176
     1
 40
0.6
176
     1
 40
30.0
176
     1
 62
     8
420
  8421504
176
     1
 90
        1
176
     1
 90
        4
176
     1
 62
     7
176
     1
 62
   257
176
     1
 90
        1
176
     1
 90
        1
176
     1
 40
1.0
176
     1
 90
        8
176
     1
 62
     8
420
  8421504
176
     1
 40
1.0
176
     1
 90
        1
176
     1
 90
        6
176
     1
 90
        2
176
     1
 62
     7
176
     1
 90
        5
176
     1
 90
        0
176
     1
 90
        0
176
     1
290
     0
176
     1
 90
        1
176
     1
 40
0.0
176
     1
 90
        0
176
     1
290
     0
176
     1
290
     1
176
     1
290
     1
176
     1
290
     0
176
     1
290
     0
176
     1
290
     0
176
     1
290
     0
176
     1
290
     0
176
     1
290
     0
176
     1
 90
       50
176
     1
 40
0.0
176
     1
 40
1.0
176
     1
 90
        0
176
     1
 62
    18
420
        0
176
     1
 90
       50
176
     1
 90
        3
176
     1
 62
     5
420
      255
176
     1
290
     0
176
     1
 90
       50
176
     1
 90
       50
176
     1
 90
       50
176
     1
290
     0
176
     1
 90
       50
176
     1
 62
   256
176
     0
 40
1.0
176
     0
 90
        2
176
     1
  1
strokes_ogs.tif
176
     1
290
     0
176
     1
 40
1.0
176
     1
 40
1.0
176
     1
  0
VISUALSTYLE
  5
34
102
{ACAD_REACTORS
330
2A
102
}
330
2A
100
AcDbVisualStyle
  2
Conceptual
 70
     9
177
     3
291
     0
 70
    58
 90
        3
176
     1
 90
        2
176
     1
 90
        0
176
     1
 90
        0
176
     1
 40
0.6
176
     1
 40
30.0
176
     1
 62
     7
420
 16777215
176
     1
 90
        2
176
     1
 90
        2
176
     1
 62
     7
176
     1
 62
   257
176
     1
 90
        1
176
     1
 90
        1
176
     1
 40
179.0
176
     1
 90
        8
176
     1
 62
     7
176
     1
 40
1.0
176
     1
 90
        1
176
     1
 90
        6
176
     1
 90
        2
176
     1
 62
     7
176
     1
 90
        3
176
     1
 90
        0
176
     1
 90
        0
176
     1
290
     0
176
     1
 90
        1
176
     1
 40
0.0
176
     1
 90
        0
176
     1
290
     0
176
     1
290
     1
176
     1
290
     1
176
     1
290
     0
176
     1
290
     0
176
     1
290
     0
176
     1
290
     0
176
     1
290
     0
176
     1
290
     0
176
     1
 90
       50
176
     1
 40
0.0
176
     1
 40
1.0
176
     1
 90
        0
176
     1
 62
    18
420
        0
176
     1
 90
       50
176
     1
 90
        3
176
     1
 62
     5
420
      255
176
     1
290
     0
176
     1
 90
       50
176
     1
 90
       50
176
     1
 90
       50
176
     1
290
     0
176
     1
 90
       50
176
     1
 62
   256
176
     0
 40
1.0
176
     0
 90
        2
176
     1
  1
strokes_ogs.tif
176
     1
290
     0
176
     1
 40
1.0
176
     1
 40
1.0
176
     1
  0
VISUALSTYLE
  5
35
102
{ACAD_REACTORS
330
2A
102
}
330
2A
100
AcDbVisualStyle
  2
Dim
 70
    11
177
     3
291
     1
 70
    58
 90
        2
176
     1
 90
        2
176
     1
 90
        0
176
     1
 90
        0
176
     1
 40
0.6
176
     1
 40
30.0
176
     1
 62
     7
420
 16777215
176
     1
 90
        1
176
     1
 90
        4
176
     1
 62
     7
176
     1
 62
   257
176
     1
 90
        1
176
     1
 90
        1
176
     1
 40
1.0
176
     1
 90
        8
176
     1
 62
     7
176
     1
 40
1.0
176
     1
 90
        1
176
     1
 90
        6
176
     1
 90
        2
176
     1
 62
     7
176
     1
 90
        5
176
     1
 90
        0
176
     1
 90
        0
176
     1
290
     0
176
     1
 90
        1
176
     1
 40
-50.0
176
     1
 90
        0
176
     1
290
     0
176
     1
290
     1
176
     1
290
     1
176
     1
290
     0
176
     1
290
     0
176
     1
290
     0
176
     1
290
     0
176
     1
290
     0
176
     1
290
     0
176
     1
 90
       50
176
     1
 40
0.0
176
     1
 40
1.0
176
     1
 90
        0
176
     1
 62
    18
420
        0
176
     1
 90
       50
176
     1
 90
        3
176
     1
 62
     5
420
      255
176
     1
290
     0
176
     1
 90
       50
176
     1
 90
       50
176
     1
 90
       50
176
     1
290
     0
176
     1
 90
       50
176
     1
 62
   256
176
     0
 40
1.0
176
     0
 90
        2
176
     1
  1
strokes_ogs.tif
176
     1
290
     0
176
     1
 40
1.0
176
     1
 40
1.0
176
     1
  0
VISUALSTYLE
  5
3D
102
{ACAD_REACTORS
330
2A
102
}
330
2A
100
AcDbVisualStyle
  2
EdgeColorOff
 70
    22
177
     3
291
     1
 70
    58
 90
        2
176
     0
 90
        2
176
     0
 90
        0
176
     0
 90
        0
176
     0
 40
0.6
176
     0
 40
30.0
176
     0
 62
     7
420
 16777215
176
     0
 90
        1
176
     0
 90
        4
176
     0
 62
     7
176
     0
 62
   257
176
     0
 90
        1
176
     0
 90
        1
176
     0
 40
1.0
176
     0
 90
        8
176
     2
 62
     7
176
     0
 40
1.0
176
     0
 90
        1
176
     0
 90
        6
176
     0
 90
        2
176
     0
 62
     7
176
     0
 90
        5
176
     0
 90
        0
176
     0
 90
        0
176
     0
290
     0
176
     0
 90
        1
176
     0
 40
0.0
176
     0
 90
        0
176
     0
290
     0
176
     0
290
     1
176
     0
290
     1
176
     0
290
     0
176
     0
290
     0
176
     0
290
     0
176
     0
290
     0
176
     0
290
     0
176
     0
290
     0
176
     0
 90
       50
176
     0
 40
0.0
176
     0
 40
1.0
176
     0
 90
        0
176
     0
 62
    18
420
        0
176
     0
 90
       50
176
     0
 90
        3
176
     0
 62
     5
420
      255
176
     0
290
     0
176
     0
 90
       50
176
     0
 90
       50
176
     0
 90
       50
176
     0
290
     0
176
     0
 90
       50
176
     0
 62
   256
176
     0
 40
1.0
176
     0
 90
        2
176
     0
  1
strokes_ogs.tif
176
     0
290
     0
176
     0
 40
1.0
176
     0
 40
1.0
176
     0
  0
VISUALSTYLE
  5
39
102
{ACAD_REACTORS
330
2A
102
}
330
2A
100
AcDbVisualStyle
  2
Facepattern
 70
    15
177
     3
291
     1
 70
    58
 90
        2
176
     1
 90
        2
176
     1
 90
        0
176
     1
 90
        0
176
     1
 40
0.6
176
     1
 40
30.0
176
     1
 62
     7
420
 16777215
176
     1
 90
        1
176
     1
 90
        4
176
     1
 62
     7
176
     1
 62
   257
176
     1
 90
        1
176
     1
 90
        1
176
     1
 40
1.0
176
     1
 90
        8
176
     1
 62
     7
176
     1
 40
1.0
176
     1
 90
        1
176
     1
 90
        6
176
     1
 90
        2
176
     1
 62
     7
176
     1
 90
        5
176
     1
 90
        0
176
     1
 90
        0
176
     1
290
     0
176
     1
 90
        1
176
     1
 40
0.0
176
     1
 90
        0
176
     1
290
     0
176
     1
290
     1
176
     1
290
     1
176
     1
290
     0
176
     1
290
     0
176
     1
290
     0
176
     1
290
     0
176
     1
290
     0
176
     1
290
     0
176
     1
 90
       50
176
     1
 40
0.0
176
     1
 40
1.0
176
     1
 90
        0
176
     1
 62
    18
420
        0
176
     1
 90
       50
176
     1
 90
        3
176
     1
 62
     5
420
      255
176
     1
290
     0
176
     1
 90
       50
176
     1
 90
       50
176
     1
 90
       50
176
     1
290
     0
176
     1
 90
       50
176
     1
 62
   256
176
     0
 40
1.0
176
     0
 90
        2
176
     1
  1
strokes_ogs.tif
176
     1
290
     0
176
     1
 40
1.0
176
     1
 40
1.0
176
     1
  0
VISUALSTYLE
  5
2B
102
{ACAD_REACTORS
330
2A
102
}
330
2A
100
AcDbVisualStyle
  2
Flat
 70
     0
177
     3
291
     1
 70
    58
 90
        2
176
     1
 90
        1
176
     1
 90
        1
176
     1
 90
        2
176
     1
 40
0.6
176
     1
 40
30.0
176
     1
 62
     7
420
 16777215
176
     1
 90
        0
176
     1
 90
        0
176
     1
 62
     7
176
     1
 62
   257
176
     1
 90
        1
176
     1
 90
        1
176
     1
 40
1.0
176
     1
 90
        8
176
     1
 62
     7
176
     1
 40
1.0
176
     1
 90
        1
176
     1
 90
        6
176
     1
 90
        2
176
     1
 62
     7
176
     1
 90
        5
176
     1
 90
        0
176
     1
 90
        0
176
     1
290
     0
176
     1
 90
       13
176
     1
 40
0.0
176
     1
 90
        0
176
     1
290
     0
176
     1
290
     1
176
     1
290
     1
176
     1
290
     0
176
     1
290
     0
176
     1
290
     0
176
     1
290
     0
176
     1
290
     0
176
     1
290
     0
176
     1
 90
       50
176
     1
 40
0.0
176
     1
 40
1.0
176
     1
 90
        0
176
     1
 62
    18
420
        0
176
     1
 90
       50
176
     1
 90
        3
176
     1
 62
     5
420
      255
176
     1
290
     0
176
     1
 90
       50
176
     1
 90
       50
176
     1
 90
       50
176
     1
290
     0
176
     1
 90
       50
176
     1
 62
   256
176
     0
 40
1.0
176
     0
 90
        2
176
     1
  1
strokes_ogs.tif
176
     1
290
     0
176
     1
 40
1.0
176
     1
 40
1.0
176
     1
  0
VISUALSTYLE
  5
2C
102
{ACAD_REACTORS
330
2A
102
}
330
2A
100
AcDbVisualStyle
  2
FlatWithEdges
 70
     1
177
     3
291
     1
 70
    58
 90
        2
176
     1
 90
        1
176
     1
 90
        1
176
     1
 90
        2
176
     1
 40
0.6
176
     1
 40
30.0
176
     1
 62
     7
420
 16777215
176
     1
 90
        1
176
     1
 90
        0
176
     1
 62
     7
176
     1
 62
   257
176
     1
 90
        1
176
     1
 90
        1
176
     1
 40
1.0
176
     1
 90
        0
176
     1
 62
   257
176
     1
 40
1.0
176
     1
 90
        1
176
     1
 90
        6
176
     1
 90
        2
176
     1
 62
     7
176
     1
 90
        5
176
     1
 90
        0
176
     1
 90
        0
176
     1
290
     0
176
     1
 90
       13
176
     1
 40
0.0
176
     1
 90
        0
176
     1
290
     0
176
     1
290
     1
176
     1
290
     1
176
     1
290
     0
176
     1
290
     0
176
     1
290
     0
176
     1
290
     0
176
     1
290
     0
176
     1
290
     0
176
     1
 90
       50
176
     1
 40
0.0
176
     1
 40
1.0
176
     1
 90
        0
176
     1
 62
    18
420
        0
176
     1
 90
       50
176
     1
 90
        3
176
     1
 62
     5
420
      255
176
     1
290
     0
176
     1
 90
       50
176
     1
 90
       50
176
     1
 90
       50
176
     1
290
     0
176
     1
 90
       50
176
     1
 62
   256
176
     0
 40
1.0
176
     0
 90
        2
176
     1
  1
strokes_ogs.tif
176
     1
290
     0
176
     1
 40
1.0
176
     1
 40
1.0
176
     1
  0
VISUALSTYLE
  5
2D
102
{ACAD_REACTORS
330
2A
102
}
330
2A
100
AcDbVisualStyle
  2
Gouraud
 70
     2
177
     3
291
     1
 70
    58
 90
        2
176
     1
 90
        2
176
     1
 90
        1
176
     1
 90
        2
176
     1
 40
0.6
176
     1
 40
30.0
176
     1
 62
     7
420
 16777215
176
     1
 90
        0
176
     1
 90
        0
176
     1
 62
     7
176
     1
 62
   257
176
     1
 90
        1
176
     1
 90
        1
176
     1
 40
1.0
176
     1
 90
        0
176
     1
 62
     7
176
     1
 40
1.0
176
     1
 90
        1
176
     1
 90
        6
176
     1
 90
        2
176
     1
 62
     7
176
     1
 90
        5
176
     1
 90
        0
176
     1
 90
        0
176
     1
290
     0
176
     1
 90
       13
176
     1
 40
0.0
176
     1
 90
        0
176
     1
290
     0
176
     1
290
     1
176
     1
290
     1
176
     1
290
     0
176
     1
290
     0
176
     1
290
     0
176
     1
290
     0
176
     1
290
     0
176
     1
290
     0
176
     1
 90
       50
176
     1
 40
0.0
176
     1
 40
1.0
176
     1
 90
        0
176
     1
 62
    18
420
        0
176
     1
 90
       50
176
     1
 90
        3
176
     1
 62
     5
420
      255
176
     1
290
     0
176
     1
 90
       50
176
     1
 90
       50
176
     1
 90
       50
176
     1
290
     0
176
     1
 90
       50
176
     1
 62
   256
176
     0
 40
1.0
176
     0
 90
        2
176
     1
  1
strokes_ogs.tif
176
     1
290
     0
176
     1
 40
1.0
176
     1
 40
1.0
176
     1
  0
VISUALSTYLE
  5
2E
102
{ACAD_REACTORS
330
2A
102
}
330
2A
100
AcDbVisualStyle
  2
GouraudWithEdges
 70
     3
177
     3
291
     1
 70
    58
 90
        2
176
     1
 90
        2
176
     1
 90
        1
176
     1
 90
        2
176
     1
 40
0.6
176
     1
 40
30.0
176
     1
 62
     7
420
 16777215
176
     1
 90
        1
176
     1
 90
        0
176
     1
 62
     7
176
     1
 62
   257
176
     1
 90
        1
176
     1
 90
        1
176
     1
 40
1.0
176
     1
 90
        0
176
     1
 62
   257
176
     1
 40
1.0
176
     1
 90
        1
176
     1
 90
        6
176
     1
 90
        2
176
     1
 62
     7
176
     1
 90
        5
176
     1
 90
        0
176
     1
 90
        0
176
     1
290
     0
176
     1
 90
       13
176
     1
 40
0.0
176
     1
 90
        0
176
     1
290
     0
176
     1
290
     1
176
     1
290
     1
176
     1
290
     0
176
     1
290
     0
176
     1
290
     0
176
     1
290
     0
176
     1
290
     0
176
     1
290
     0
176
     1
 90
       50
176
     1
 40
0.0
176
     1
 40
1.0
176
     1
 90
        0
176
     1
 62
    18
420
        0
176
     1
 90
       50
176
     1
 90
        3
176
     1
 62
     5
420
      255
176
     1
290
     0
176
     1
 90
       50
176
     1
 90
       50
176
     1
 90
       50
176
     1
290
     0
176
     1
 90
       50
176
     1
 62
   256
176
     0
 40
1.0
176
     0
 90
        2
176
     1
  1
strokes_ogs.tif
176
     1
290
     0
176
     1
 40
1.0
176
     1
 40
1.0
176
     1
  0
VISUALSTYLE
  5
31
102
{ACAD_REACTORS
330
2A
102
}
330
2A
100
AcDbVisualStyle
  2
Hidden
 70
     6
177
     3
291
     0
 70
    58
 90
        1
176
     1
 90
        2
176
     1
 90
        2
176
     1
 90
        0
176
     1
 40
0.6
176
     1
 40
30.0
176
     1
 62
     7
420
 16777215
176
     1
 90
        2
176
     1
 90
        2
176
     1
 62
     7
176
     1
 62
   257
176
     1
 90
        2
176
     1
 90
        1
176
     1
 40
40.0
176
     1
 90
        0
176
     1
 62
   257
176
     1
 40
1.0
176
     1
 90
        1
176
     1
 90
        6
176
     1
 90
        2
176
     1
 62
     7
176
     1
 90
        3
176
     1
 90
        0
176
     1
 90
        0
176
     1
290
     0
176
     1
 90
        1
176
     1
 40
0.0
176
     1
 90
        0
176
     1
290
     0
176
     1
290
     1
176
     1
290
     1
176
     1
290
     0
176
     1
290
     0
176
     1
290
     0
176
     1
290
     0
176
     1
290
     0
176
     1
290
     0
176
     1
 90
       50
176
     1
 40
0.0
176
     1
 40
1.0
176
     1
 90
        0
176
     1
 62
    18
420
        0
176
     1
 90
       50
176
     1
 90
        3
176
     1
 62
     5
420
      255
176
     1
290
     0
176
     1
 90
       50
176
     1
 90
       50
176
     1
 90
       50
176
     1
290
     0
176
     1
 90
       50
176
     1
 62
   256
176
     0
 40
1.0
176
     0
 90
        2
176
     1
  1
strokes_ogs.tif
176
     1
290
     0
176
     1
 40
1.0
176
     1
 40
1.0
176
     1
  0
VISUALSTYLE
  5
3B
102
{ACAD_REACTORS
330
2A
102
}
330
2A
100
AcDbVisualStyle
  2
JitterOff
 70
    20
177
     3
291
     1
 70
    58
 90
        2
176
     0
 90
        2
176
     0
 90
        0
176
     0
 90
        0
176
     0
 40
0.6
176
     0
 40
30.0
176
     0
 62
     7
420
 16777215
176
     0
 90
        1
176
     0
 90
        4
176
     0
 62
     7
176
     0
 62
   257
176
     0
 90
        1
176
     0
 90
        1
176
     0
 40
1.0
176
     0
 90
       10
176
     2
 62
     7
176
     0
 40
1.0
176
     0
 90
        1
176
     0
 90
        6
176
     0
 90
        2
176
     0
 62
     7
176
     0
 90
        5
176
     0
 90
        0
176
     0
 90
        0
176
     0
290
     0
176
     0
 90
        1
176
     0
 40
0.0
176
     0
 90
        0
176
     0
290
     0
176
     0
290
     1
176
     0
290
     1
176
     0
290
     0
176
     0
290
     0
176
     0
290
     0
176
     0
290
     0
176
     0
290
     0
176
     0
290
     0
176
     0
 90
       50
176
     0
 40
0.0
176
     0
 40
1.0
176
     0
 90
        0
176
     0
 62
    18
420
        0
176
     0
 90
       50
176
     0
 90
        3
176
     0
 62
     5
420
      255
176
     0
290
     0
176
     0
 90
       50
176
     0
 90
       50
176
     0
 90
       50
176
     0
290
     0
176
     0
 90
       50
176
     0
 62
   256
176
     0
 40
1.0
176
     0
 90
        2
176
     0
  1
strokes_ogs.tif
176
     0
290
     0
176
     0
 40
1.0
176
     0
 40
1.0
176
     0
  0
VISUALSTYLE
  5
38
102
{ACAD_REACTORS
330
2A
102
}
330
2A
100
AcDbVisualStyle
  2
Linepattern
 70
    14
177
     3
291
     1
 70
    58
 90
        2
176
     1
 90
        2
176
     1
 90
        0
176
     1
 90
        0
176
     1
 40
0.6
176
     1
 40
30.0
176
     1
 62
     7
420
 16777215
176
     1
 90
        1
176
     1
 90
        4
176
     1
 62
     7
176
     1
 62
   257
176
     1
 90
        7
176
     1
 90
        7
176
     1
 40
1.0
176
     1
 90
        8
176
     1
 62
     7
176
     1
 40
1.0
176
     1
 90
        1
176
     1
 90
        6
176
     1
 90
        2
176
     1
 62
     7
176
     1
 90
        5
176
     1
 90
        0
176
     1
 90
        0
176
     1
290
     0
176
     1
 90
        1
176
     1
 40
0.0
176
     1
 90
        0
176
     1
290
     0
176
     1
290
     1
176
     1
290
     1
176
     1
290
     0
176
     1
290
     0
176
     1
290
     0
176
     1
290
     0
176
     1
290
     0
176
     1
290
     0
176
     1
 90
       50
176
     1
 40
0.0
176
     1
 40
1.0
176
     1
 90
        0
176
     1
 62
    18
420
        0
176
     1
 90
       50
176
     1
 90
        3
176
     1
 62
     5
420
      255
176
     1
290
     0
176
     1
 90
       50
176
     1
 90
       50
176
     1
 90
       50
176
     1
290
     0
176
     1
 90
       50
176
     1
 62
   256
176
     0
 40
1.0
176
     0
 90
        2
176
     1
  1
strokes_ogs.tif
176
     1
290
     0
176
     1
 40
1.0
176
     1
 40
1.0
176
     1
  0
VISUALSTYLE
  5
3C
102
{ACAD_REACTORS
330
2A
102
}
330
2A
100
AcDbVisualStyle
  2
OverhangOff
 70
    21
177
     3
291
     1
 70
    58
 90
        2
176
     0
 90
        2
176
     0
 90
        0
176
     0
 90
        0
176
     0
 40
0.6
176
     0
 40
30.0
176
     0
 62
     7
420
 16777215
176
     0
 90
        1
176
     0
 90
        4
176
     0
 62
     7
176
     0
 62
   257
176
     0
 90
        1
176
     0
 90
        1
176
     0
 40
1.0
176
     0
 90
        9
176
     2
 62
     7
176
     0
 40
1.0
176
     0
 90
        1
176
     0
 90
        6
176
     0
 90
        2
176
     0
 62
     7
176
     0
 90
        5
176
     0
 90
        0
176
     0
 90
        0
176
     0
290
     0
176
     0
 90
        1
176
     0
 40
0.0
176
     0
 90
        0
176
     0
290
     0
176
     0
290
     1
176
     0
290
     1
176
     0
290
     0
176
     0
290
     0
176
     0
290
     0
176
     0
290
     0
176
     0
290
     0
176
     0
290
     0
176
     0
 90
       50
176
     0
 40
0.0
176
     0
 40
1.0
176
     0
 90
        0
176
     0
 62
    18
420
        0
176
     0
 90
       50
176
     0
 90
        3
176
     0
 62
     5
420
      255
176
     0
290
     0
176
     0
 90
       50
176
     0
 90
       50
176
     0
 90
       50
176
     0
290
     0
176
     0
 90
       50
176
     0
 62
   256
176
     0
 40
1.0
176
     0
 90
        2
176
     0
  1
strokes_ogs.tif
176
     0
290
     0
176
     0
 40
1.0
176
     0
 40
1.0
176
     0
  0
VISUALSTYLE
  5
33
102
{ACAD_REACTORS
330
2A
102
}
330
2A
100
AcDbVisualStyle
  2
Realistic
 70
     8
177
     3
291
     0
 70
    58
 90
        2
176
     1
 90
        3
176
     1
 90
        0
176
     1
 90
        2
176
     1
 40
0.6
176
     1
 40
30.0
176
     1
 62
     7
420
 16777215
176
     1
 90
        0
176
     1
 90
        0
176
     1
 62
     7
176
     1
 62
   257
176
     1
 90
        1
176
     1
 90
        1
176
     1
 40
1.0
176
     1
 90
        8
176
     1
 62
   257
176
     1
 40
1.0
176
     1
 90
        1
176
     1
 90
        6
176
     1
 90
        2
176
     1
 62
     7
176
     1
 90
        3
176
     1
 90
        0
176
     1
 90
        0
176
     1
290
     0
176
     1
 90
       13
176
     1
 40
0.0
176
     1
 90
        0
176
     1
290
     0
176
     1
290
     1
176
     1
290
     1
176
     1
290
     0
176
     1
290
     0
176
     1
290
     0
176
     1
290
     0
176
     1
290
     0
176
     1
290
     0
176
     1
 90
       50
176
     1
 40
0.0
176
     1
 40
1.0
176
     1
 90
        0
176
     1
 62
    18
420
        0
176
     1
 90
       50
176
     1
 90
        3
176
     1
 62
     5
420
      255
176
     1
290
     0
176
     1
 90
       50
176
     1
 90
       50
176
     1
 90
       50
176
     1
290
     0
176
     1
 90
       50
176
     1
 62
   256
176
     0
 40
1.0
176
     0
 90
        2
176
     1
  1
strokes_ogs.tif
176
     1
290
     0
176
     1
 40
1.0
176
     1
 40
1.0
176
     1
  0
VISUALSTYLE
  5
42
102
{ACAD_REACTORS
330
2A
102
}
330
2A
100
AcDbVisualStyle
  2
Shaded
 70
    27
177
     3
291
     0
 70
    58
 90
        2
176
     1
 90
        2
176
     1
 90
        1
176
     1
 90
        2
176
     1
 40
0.6
176
     1
 40
30.0
176
     1
 62
     7
420
 16777215
176
     1
 90
        0
176
     1
 90
        4
176
     1
 62
     7
176
     1
 62
   257
176
     1
 90
        1
176
     1
 90
        1
176
     1
 40
1.0
176
     1
 90
        8
176
     1
 62
   257
176
     1
 40
1.0
176
     1
 90
        1
176
     1
 90
        6
176
     1
 90
        2
176
     1
 62
     8
420
  7895160
176
     1
 90
        3
176
     1
 90
        0
176
     1
 90
        0
176
     1
290
     0
176
     1
 90
        5
176
     1
 40
0.0
176
     1
 90
        0
176
     1
290
     0
176
     1
290
     1
176
     1
290
     1
176
     1
290
     0
176
     1
290
     0
176
     1
290
     0
176
     1
290
     0
176
     1
290
     0
176
     1
290
     0
176
     1
 90
       50
176
     1
 40
0.0
176
     1
 40
1.0
176
     1
 90
        0
176
     1
 62
    18
420
        0
176
     1
 90
       50
176
     1
 90
        3
176
     1
 62
     5
420
      255
176
     1
290
     0
176
     1
 90
       50
176
     1
 90
       50
176
     1
 90
       50
176
     1
290
     0
176
     1
 90
       50
176
     1
 62
   256
176
     0
 40
1.0
176
     0
 90
        2
176
     1
  1
strokes_ogs.tif
176
     1
290
     0
176
     1
 40
1.0
176
     1
 40
1.0
176
     1
  0
VISUALSTYLE
  5
41
102
{ACAD_REACTORS
330
2A
102
}
330
2A
100
AcDbVisualStyle
  2
Shaded with edges
 70
    26
177
     3
291
     0
 70
    58
 90
        2
176
     1
 90
        2
176
     1
 90
        1
176
     1
 90
        2
176
     1
 40
0.6
176
     1
 40
30.0
176
     1
 62
     7
420
 16777215
176
     1
 90
        1
176
     1
 90
       10
176
     1
 62
     7
176
     1
 62
   257
176
     1
 90
        2
176
     1
 90
        1
176
     1
 40
1.0
176
     1
 90
        8
176
     1
 62
   257
176
     1
 40
1.0
176
     1
 90
        1
176
     1
 90
        6
176
     1
 90
        2
176
     1
 62
     7
176
     1
 90
        3
176
     1
 90
        0
176
     1
 90
        0
176
     1
290
     0
176
     1
 90
        5
176
     1
 40
0.0
176
     1
 90
        0
176
     1
290
     0
176
     1
290
     1
176
     1
290
     1
176
     1
290
     0
176
     1
290
     0
176
     1
290
     0
176
     1
290
     0
176
     1
290
     0
176
     1
290
     0
176
     1
 90
       50
176
     1
 40
0.0
176
     1
 40
1.0
176
     1
 90
        0
176
     1
 62
    18
420
        0
176
     1
 90
       50
176
     1
 90
        3
176
     1
 62
     5
420
      255
176
     1
290
     0
176
     1
 90
       50
176
     1
 90
       50
176
     1
 90
       50
176
     1
290
     0
176
     1
 90
       50
176
     1
 62
   256
176
     0
 40
1.0
176
     0
 90
        2
176
     1
  1
strokes_ogs.tif
176
     1
290
     0
176
     1
 40
1.0
176
     1
 40
1.0
176
     1
  0
VISUALSTYLE
  5
3E
102
{ACAD_REACTORS
330
2A
102
}
330
2A
100
AcDbVisualStyle
  2
Shades of Gray
 70
    23
177
     3
291
     0
 70
    58
 90
        2
176
     1
 90
        2
176
     1
 90
        3
176
     1
 90
        0
176
     1
 40
0.6
176
     1
 40
30.0
176
     1
 62
     7
420
 16777215
176
     1
 90
        2
176
     1
 90
        2
176
     1
 62
     7
176
     1
 62
     7
176
     1
 90
        1
176
     1
 90
        1
176
     1
 40
40.0
176
     1
 90
        8
176
     1
 62
     7
176
     1
 40
1.0
176
     1
 90
        1
176
     1
 90
        6
176
     1
 90
        2
176
     1
 62
     7
176
     1
 90
        3
176
     1
 90
        0
176
     1
 90
        0
176
     1
290
     0
176
     1
 90
        1
176
     1
 40
0.0
176
     1
 90
        0
176
     1
290
     0
176
     1
290
     1
176
     1
290
     1
176
     1
290
     0
176
     1
290
     0
176
     1
290
     0
176
     1
290
     0
176
     1
290
     0
176
     1
290
     0
176
     1
 90
       50
176
     1
 40
0.0
176
     1
 40
1.0
176
     1
 90
        0
176
     1
 62
    18
420
        0
176
     1
 90
       50
176
     1
 90
        3
176
     1
 62
     5
420
      255
176
     1
290
     0
176
     1
 90
       50
176
     1
 90
       50
176
     1
 90
       50
176
     1
290
     0
176
     1
 90
       50
176
     1
 62
   256
176
     0
 40
1.0
176
     0
 90
        2
176
     1
  1
strokes_ogs.tif
176
     1
290
     0
176
     1
 40
1.0
176
     1
 40
1.0
176
     1
  0
VISUALSTYLE
  5
3F
102
{ACAD_REACTORS
330
2A
102
}
330
2A
100
AcDbVisualStyle
  2
Sketchy
 70
    24
177
     3
291
     0
 70
    58
 90
        1
176
     1
 90
        2
176
     1
 90
        2
176
     1
 90
        0
176
     1
 40
0.6
176
     1
 40
30.0
176
     1
 62
     7
420
 16777215
176
     1
 90
        2
176
     1
 90
        2
176
     1
 62
     7
176
     1
 62
     7
176
     1
 90
        1
176
     1
 90
        1
176
     1
 40
40.0
176
     1
 90
       11
176
     1
 62
     7
176
     1
 40
1.0
176
     1
 90
        1
176
     1
 90
        6
176
     1
 90
        2
176
     1
 62
     7
176
     1
 90
        6
176
     1
 90
        0
176
     1
 90
        0
176
     1
290
     0
176
     1
 90
        1
176
     1
 40
0.0
176
     1
 90
        0
176
     1
290
     0
176
     1
290
     1
176
     1
290
     1
176
     1
290
     0
176
     1
290
     0
176
     1
290
     0
176
     1
290
     0
176
     1
290
     0
176
     1
290
     0
176
     1
 90
       50
176
     1
 40
0.0
176
     1
 40
1.0
176
     1
 90
        0
176
     1
 62
    18
420
        0
176
     1
 90
       50
176
     1
 90
        3
176
     1
 62
     5
420
      255
176
     1
290
     0
176
     1
 90
       50
176
     1
 90
       50
176
     1
 90
       50
176
     1
290
     0
176
     1
 90
       50
176
     1
 62
   256
176
     0
 40
1.0
176
     0
 90
        2
176
     1
  1
strokes_ogs.tif
176
     1
290
     0
176
     1
 40
1.0
176
     1
 40
1.0
176
     1
  0
VISUALSTYLE
  5
37
102
{ACAD_REACTORS
330
2A
102
}
330
2A
100
AcDbVisualStyle
  2
Thicken
 70
    13
177
     3
291
     1
 70
    58
 90
        2
176
     1
 90
        2
176
     1
 90
        0
176
     1
 90
        0
176
     1
 40
0.6
176
     1
 40
30.0
176
     1
 62
     7
420
 16777215
176
     1
 90
        1
176
     1
 90
        4
176
     1
 62
     7
176
     1
 62
   257
176
     1
 90
        1
176
     1
 90
        1
176
     1
 40
1.0
176
     1
 90
       12
176
     1
 62
     7
176
     1
 40
1.0
176
     1
 90
        1
176
     1
 90
        6
176
     1
 90
        2
176
     1
 62
     7
176
     1
 90
        5
176
     1
 90
        0
176
     1
 90
        0
176
     1
290
     0
176
     1
 90
        1
176
     1
 40
0.0
176
     1
 90
        0
176
     1
290
     0
176
     1
290
     1
176
     1
290
     1
176
     1
290
     0
176
     1
290
     0
176
     1
290
     0
176
     1
290
     0
176
     1
290
     0
176
     1
290
     0
176
     1
 90
       50
176
     1
 40
0.0
176
     1
 40
1.0
176
     1
 90
        0
176
     1
 62
    18
420
        0
176
     1
 90
       50
176
     1
 90
        3
176
     1
 62
     5
420
      255
176
     1
290
     0
176
     1
 90
       50
176
     1
 90
       50
176
     1
 90
       50
176
     1
290
     0
176
     1
 90
       50
176
     1
 62
   256
176
     0
 40
1.0
176
     0
 90
        2
176
     1
  1
strokes_ogs.tif
176
     1
290
     0
176
     1
 40
1.0
176
     1
 40
1.0
176
     1
  0
VISUALSTYLE
  5
30
102
{ACAD_REACTORS
330
2A
102
}
330
2A
100
AcDbVisualStyle
  2
Wireframe
 70
     5
177
     3
291
     0
 70
    58
 90
        0
176
     1
 90
        2
176
     1
 90
        0
176
     1
 90
        0
176
     1
 40
0.6
176
     1
 40
30.0
176
     1
 62
     7
420
 16777215
176
     1
 90
        1
176
     1
 90
        4
176
     1
 62
     7
176
     1
 62
   257
176
     1
 90
        1
176
     1
 90
        1
176
     1
 40
1.0
176
     1
 90
        0
176
     1
 62
   257
176
     1
 40
1.0
176
     1
 90
        1
176
     1
 90
        6
176
     1
 90
        2
176
     1
 62
     7
176
     1
 90
        3
176
     1
 90
        0
176
     1
 90
        0
176
     1
290
     0
176
     1
 90
        1
176
     1
 40
0.0
176
     1
 90
        0
176
     1
290
     0
176
     1
290
     1
176
     1
290
     1
176
     1
290
     0
176
     1
290
     0
176
     1
290
     0
176
     1
290
     0
176
     1
290
     0
176
     1
290
     0
176
     1
 90
       50
176
     1
 40
0.0
176
     1
 40
1.0
176
     1
 90
        0
176
     1
 62
    18
420
        0
176
     1
 90
       50
176
     1
 90
        3
176
     1
 62
     5
420
      255
176
     1
290
     0
176
     1
 90
       50
176
     1
 90
       50
176
     1
 90
       50
176
     1
290
     0
176
     1
 90
       50
176
     1
 62
   256
176
     0
 40
1.0
176
     0
 90
        2
176
     1
  1
strokes_ogs.tif
176
     1
290
     0
176
     1
 40
1.0
176
     1
 40
1.0
176
     1
  0
VISUALSTYLE
  5
40
102
{ACAD_REACTORS
330
2A
102
}
330
2A
100
AcDbVisualStyle
  2
X-Ray
 70
    25
177
     3
291
     0
 70
    58
 90
        2
176
     1
 90
        2
176
     1
 90
        1
176
     1
 90
        1
176
     1
 40
0.5
176
     1
 40
30.0
176
     1
 62
     7
420
 16777215
176
     1
 90
        1
176
     1
 90
        0
176
     1
 62
     7
176
     1
 62
   257
176
     1
 90
        1
176
     1
 90
        1
176
     1
 40
1.0
176
     1
 90
        8
176
     1
 62
     7
176
     1
 40
1.0
176
     1
 90
        1
176
     1
 90
        6
176
     1
 90
        2
176
     1
 62
     7
176
     1
 90
        3
176
     1
 90
        0
176
     1
 90
        0
176
     1
290
     0
176
     1
 90
       13
176
     1
 40
0.0
176
     1
 90
        0
176
     1
290
     0
176
     1
290
     1
176
     1
290
     1
176
     1
290
     0
176
     1
290
     0
176
     1
290
     0
176
     1
290
     0
176
     1
290
     0
176
     1
290
     0
176
     1
 90
       50
176
     1
 40
0.0
176
     1
 40
1.0
176
     1
 90
        0
176
     1
 62
    18
420
        0
176
     1
 90
       50
176
     1
 90
        3
176
     1
 62
     5
420
      255
176
     1
290
     0
176
     1
 90
       50
176
     1
 90
       50
176
     1
 90
       50
176
     1
290
     0
176
     1
 90
       50
176
     1
 62
   256
176
     0
 40
1.0
176
     0
 90
        2
176
     1
  1
strokes_ogs.tif
176
     1
290
     0
176
     1
 40
1.0
176
     1
 40
1.0
176
     1
  0
DICTIONARYVAR
  5
97
102
{ACAD_REACTORS
330
96
102
}
330
96
100
DictionaryVariables
280
     0
  1
1:1
  0
DICTIONARYVAR
  5
9C
102
{ACAD_REACTORS
330
96
102
}
330
96
100
DictionaryVariables
280
     0
  1
Standard
  0
DICTIONARYVAR
  5
9B
102
{ACAD_REACTORS
330
96
102
}
330
96
100
DictionaryVariables
280
     0
  1
Standard
  0
DICTIONARY
  5
98
330
5A
100
AcDbDictionary
280
     1
281
     1
  3
ACAD_ROUNDTRIP_2008_TABLESTYLE_CELLSTYLEMAP
360
99
  0
CELLSTYLEMAP
  5
99
102
{ACAD_REACTORS
330
98
102
}
330
98
100
AcDbCellStyleMap
 90
        3
300
CELLSTYLE
  1
TABLEFORMAT_BEGIN
 90
        5
170
     1
 91
        0
 92
    32768
 62
   257
 93
        1
300
CONTENTFORMAT
  1
CONTENTFORMAT_BEGIN
 90
        0
 91
        0
 92
        4
 93
        0
300

 40
0.0
140
1.0
 94
        5
 62
     0
340
11
144
0.25
309
CONTENTFORMAT_END
171
     1
301
MARGIN
  1
CELLMARGIN_BEGIN
 40
0.06
 40
0.06
 40
0.06
 40
0.06
 40
0.06
 40
0.06
309
CELLMARGIN_END
 94
        6
 95
        1
302
GRIDFORMAT
  1
GRIDFORMAT_BEGIN
 90
        0
 91
        1
 62
     0
 92
       -2
340
14
 93
        0
 40
0.045
309
GRIDFORMAT_END
 95
        2
302
GRIDFORMAT
  1
GRIDFORMAT_BEGIN
 90
        0
 91
        1
 62
     0
 92
       -2
340
14
 93
        0
 40
0.045
309
GRIDFORMAT_END
 95
        4
302
GRIDFORMAT
  1
GRIDFORMAT_BEGIN
 90
        0
 91
        1
 62
     0
 92
       -2
340
14
 93
        0
 40
0.045
309
GRIDFORMAT_END
 95
        8
302
GRIDFORMAT
  1
GRIDFORMAT_BEGIN
 90
        0
 91
        1
 62
     0
 92
       -2
340
14
 93
        0
 40
0.045
309
GRIDFORMAT_END
 95
       16
302
GRIDFORMAT
  1
GRIDFORMAT_BEGIN
 90
        0
 91
        1
 62
     0
 92
       -2
340
14
 93
        0
 40
0.045
309
GRIDFORMAT_END
 95
       32
302
GRIDFORMAT
  1
GRIDFORMAT_BEGIN
 90
        0
 91
        1
 62
     0
 92
       -2
340
14
 93
        0
 40
0.045
309
GRIDFORMAT_END
309
TABLEFORMAT_END
  1
CELLSTYLE_BEGIN
 90
        1
 91
        1
300
_TITLE
309
CELLSTYLE_END
300
CELLSTYLE
  1
TABLEFORMAT_BEGIN
 90
        5
170
     1
 91
        0
 92
        0
 62
   257
 93
        1
300
CONTENTFORMAT
  1
CONTENTFORMAT_BEGIN
 90
        0
 91
        0
 92
        4
 93
        0
300

 40
0.0
140
1.0
 94
        5
 62
     0
340
11
144
0.18
309
CONTENTFORMAT_END
171
     1
301
MARGIN
  1
CELLMARGIN_BEGIN
 40
0.06
 40
0.06
 40
0.06
 40
0.06
 40
0.06
 40
0.06
309
CELLMARGIN_END
 94
        6
 95
        1
302
GRIDFORMAT
  1
GRIDFORMAT_BEGIN
 90
        0
 91
        1
 62
     0
 92
       -2
340
14
 93
        0
 40
0.045
309
GRIDFORMAT_END
 95
        2
302
GRIDFORMAT
  1
GRIDFORMAT_BEGIN
 90
        0
 91
        1
 62
     0
 92
       -2
340
14
 93
        0
 40
0.045
309
GRIDFORMAT_END
 95
        4
302
GRIDFORMAT
  1
GRIDFORMAT_BEGIN
 90
        0
 91
        1
 62
     0
 92
       -2
340
14
 93
        0
 40
0.045
309
GRIDFORMAT_END
 95
        8
302
GRIDFORMAT
  1
GRIDFORMAT_BEGIN
 90
        0
 91
        1
 62
     0
 92
       -2
340
14
 93
        0
 40
0.045
309
GRIDFORMAT_END
 95
       16
302
GRIDFORMAT
  1
GRIDFORMAT_BEGIN
 90
        0
 91
        1
 62
     0
 92
       -2
340
14
 93
        0
 40
0.045
309
GRIDFORMAT_END
 95
       32
302
GRIDFORMAT
  1
GRIDFORMAT_BEGIN
 90
        0
 91
        1
 62
     0
 92
       -2
340
14
 93
        0
 40
0.045
309
GRIDFORMAT_END
309
TABLEFORMAT_END
  1
CELLSTYLE_BEGIN
 90
        2
 91
        1
300
_HEADER
309
CELLSTYLE_END
300
CELLSTYLE
  1
TABLEFORMAT_BEGIN
 90
        5
170
     1
 91
        0
 92
        0
 62
   257
 93
        1
300
CONTENTFORMAT
  1
CONTENTFORMAT_BEGIN
 90
        0
 91
        0
 92
        4
 93
        0
300

 40
0.0
140
1.0
 94
        2
 62
     0
340
11
144
0.18
309
CONTENTFORMAT_END
171
     1
301
MARGIN
  1
CELLMARGIN_BEGIN
 40
0.06
 40
0.06
 40
0.06
 40
0.06
 40
0.06
 40
0.06
309
CELLMARGIN_END
 94
        6
 95
        1
302
GRIDFORMAT
  1
GRIDFORMAT_BEGIN
 90
        0
 91
        1
 62
     0
 92
       -2
340
14
 93
        0
 40
0.045
309
GRIDFORMAT_END
 95
        2
302
GRIDFORMAT
  1
GRIDFORMAT_BEGIN
 90
        0
 91
        1
 62
     0
 92
       -2
340
14
 93
        0
 40
0.045
309
GRIDFORMAT_END
 95
        4
302
GRIDFORMAT
  1
GRIDFORMAT_BEGIN
 90
        0
 91
        1
 62
     0
 92
       -2
340
14
 93
        0
 40
0.045
309
GRIDFORMAT_END
 95
        8
302
GRIDFORMAT
  1
GRIDFORMAT_BEGIN
 90
        0
 91
        1
 62
     0
 92
       -2
340
14
 93
        0
 40
0.045
309
GRIDFORMAT_END
 95
       16
302
GRIDFORMAT
  1
GRIDFORMAT_BEGIN
 90
        0
 91
        1
 62
     0
 92
       -2
340
14
 93
        0
 40
0.045
309
GRIDFORMAT_END
 95
       32
302
GRIDFORMAT
  1
GRIDFORMAT_BEGIN
 90
        0
 91
        1
 62
     0
 92
       -2
340
14
 93
        0
 40
0.045
309
GRIDFORMAT_END
309
TABLEFORMAT_END
  1
CELLSTYLE_BEGIN
 90
        3
 91
        2
300
_DATA
309
CELLSTYLE_END
  0
ENDSEC
  0
EOF
