  0
SECTION
  2
HEADER
  9
$ACADVER
  1
AC1032
  9
$ACADMAINTVER
 90
       55
  9
$DWGCODEPAGE
  3
ANSI_1252
  9
$LASTSAVEDBY
  1
LYI-002
  9
$REQUIREDVERSIONS
160
                 0
  9
$INSBASE
 10
0.0
 20
0.0
 30
0.0
  9
$EXTMIN
 10
-1200.1501
 20
-590.1266
 30
0.0
  9
$EXTMAX
 10
1200.05
 20
590.0686
 30
0.0
  9
$LIMMIN
 10
0.0
 20
0.0
  9
$LIMMAX
 10
12.0
 20
9.0
  9
$ORTHOMODE
 70
     0
  9
$REGENMODE
 70
     1
  9
$FILLMODE
 70
     1
  9
$QTEXTMODE
 70
     0
  9
$MIRRTEXT
 70
     1
  9
$LTSCALE
 40
1.0
  9
$ATTMODE
 70
     1
  9
$TEXTSIZE
 40
0.2
  9
$TRACEWID
 40
0.05
  9
$TEXTSTYLE
  7
Standard
  9
$CLAYER
  8
0
  9
$CELTYPE
  6
ByLayer
  9
$CECOLOR
 62
   256
  9
$CELTSCALE
 40
1.0
  9
$DISPSILH
 70
     0
  9
$DIMSCALE
 40
1.0
  9
$DIMASZ
 40
0.18
  9
$DIMEXO
 40
0.0625
  9
$DIMDLI
 40
0.38
  9
$DIMRND
 40
0.0
  9
$DIMDLE
 40
0.0
  9
$DIMEXE
 40
0.18
  9
$DIMTP
 40
0.0
  9
$DIMTM
 40
0.0
  9
$DIMTXT
 40
0.18
  9
$DIMCEN
 40
0.09
  9
$DIMTSZ
 40
0.0
  9
$DIMTOL
 70
     0
  9
$DIMLIM
 70
     0
  9
$DIMTIH
 70
     1
  9
$DIMTOH
 70
     1
  9
$DIMSE1
 70
     0
  9
$DIMSE2
 70
     0
  9
$DIMTAD
 70
     0
  9
$DIMZIN
 70
     0
  9
$DIMBLK
  1

  9
$DIMASO
 70
     1
  9
$DIMSHO
 70
     1
  9
$DIMPOST
  1

  9
$DIMAPOST
  1

  9
$DIMALT
 70
     0
  9
$DIMALTD
 70
     2
  9
$DIMALTF
 40
25.4
  9
$DIMLFAC
 40
1.0
  9
$DIMTOFL
 70
     0
  9
$DIMTVP
 40
0.0
  9
$DIMTIX
 70
     0
  9
$DIMSOXD
 70
     0
  9
$DIMSAH
 70
     0
  9
$DIMBLK1
  1

  9
$DIMBLK2
  1

  9
$DIMSTYLE
  2
Standard
  9
$DIMCLRD
 70
     0
  9
$DIMCLRE
 70
     0
  9
$DIMCLRT
 70
     0
  9
$DIMTFAC
 40
1.0
  9
$DIMGAP
 40
0.09
  9
$DIMJUST
 70
     0
  9
$DIMSD1
 70
     0
  9
$DIMSD2
 70
     0
  9
$DIMTOLJ
 70
     1
  9
$DIMTZIN
 70
     0
  9
$DIMALTZ
 70
     0
  9
$DIMALTTZ
 70
     0
  9
$DIMUPT
 70
     0
  9
$DIMDEC
 70
     4
  9
$DIMTDEC
 70
     4
  9
$DIMALTU
 70
     2
  9
$DIMALTTD
 70
     2
  9
$DIMTXSTY
  7
Standard
  9
$DIMAUNIT
 70
     0
  9
$DIMADEC
 70
     0
  9
$DIMALTRND
 40
0.0
  9
$DIMAZIN
 70
     0
  9
$DIMDSEP
 70
    46
  9
$DIMATFIT
 70
     3
  9
$DIMFRAC
 70
     0
  9
$DIMLDRBLK
  1

  9
$DIMLUNIT
 70
     2
  9
$DIMLWD
 70
    -2
  9
$DIMLWE
 70
    -2
  9
$DIMTMOVE
 70
     0
  9
$DIMFXL
 40
1.0
  9
$DIMFXLON
 70
     0
  9
$DIMJOGANG
 40
0.7853981633974483
  9
$DIMTFILL
 70
     0
  9
$DIMTFILLCLR
 70
     0
  9
$DIMARCSYM
 70
     0
  9
$DIMLTYPE
  6

  9
$DIMLTEX1
  6

  9
$DIMLTEX2
  6

  9
$DIMTXTDIRECTION
 70
     0
  9
$LUNITS
 70
     2
  9
$LUPREC
 70
     4
  9
$SKETCHINC
 40
0.1
  9
$FILLETRAD
 40
0.0
  9
$AUNITS
 70
     0
  9
$AUPREC
 70
     0
  9
$MENU
  1
.
  9
$ELEVATION
 40
0.0
  9
$PELEVATION
 40
0.0
  9
$THICKNESS
 40
0.0
  9
$LIMCHECK
 70
     0
  9
$CHAMFERA
 40
0.0
  9
$CHAMFERB
 40
0.0
  9
$CHAMFERC
 40
0.0
  9
$CHAMFERD
 40
0.0
  9
$SKPOLY
 70
     0
  9
$TDCREATE
 40
2460652.62711331
  9
$TDUCREATE
 40
2460652.397946644
  9
$TDUPDATE
 40
2460652.627113345
  9
$TDUUPDATE
 40
2460652.397946678
  9
$TDINDWG
 40
0.0000000116
  9
$TDUSRTIMER
 40
0.0000000116
  9
$USRTIMER
 70
     1
  9
$ANGBASE
 50
0.0
  9
$ANGDIR
 70
     0
  9
$PDMODE
 70
     0
  9
$PDSIZE
 40
0.0
  9
$PLINEWID
 40
0.0
  9
$SPLFRAME
 70
     0
  9
$SPLINETYPE
 70
     6
  9
$SPLINESEGS
 70
     8
  9
$HANDSEED
  5
82
  9
$SURFTAB1
 70
     6
  9
$SURFTAB2
 70
     6
  9
$SURFTYPE
 70
     6
  9
$SURFU
 70
     6
  9
$SURFV
 70
     6
  9
$UCSBASE
  2

  9
$UCSNAME
  2

  9
$UCSORG
 10
0.0
 20
0.0
 30
0.0
  9
$UCSXDIR
 10
1.0
 20
0.0
 30
0.0
  9
$UCSYDIR
 10
0.0
 20
1.0
 30
0.0
  9
$UCSORTHOREF
  2

  9
$UCSORTHOVIEW
 70
     0
  9
$UCSORGTOP
 10
0.0
 20
0.0
 30
0.0
  9
$UCSORGBOTTOM
 10
0.0
 20
0.0
 30
0.0
  9
$UCSORGLEFT
 10
0.0
 20
0.0
 30
0.0
  9
$UCSORGRIGHT
 10
0.0
 20
0.0
 30
0.0
  9
$UCSORGFRONT
 10
0.0
 20
0.0
 30
0.0
  9
$UCSORGBACK
 10
0.0
 20
0.0
 30
0.0
  9
$PUCSBASE
  2

  9
$PUCSNAME
  2

  9
$PUCSORG
 10
0.0
 20
0.0
 30
0.0
  9
$PUCSXDIR
 10
1.0
 20
0.0
 30
0.0
  9
$PUCSYDIR
 10
0.0
 20
1.0
 30
0.0
  9
$PUCSORTHOREF
  2

  9
$PUCSORTHOVIEW
 70
     0
  9
$PUCSORGTOP
 10
0.0
 20
0.0
 30
0.0
  9
$PUCSORGBOTTOM
 10
0.0
 20
0.0
 30
0.0
  9
$PUCSORGLEFT
 10
0.0
 20
0.0
 30
0.0
  9
$PUCSORGRIGHT
 10
0.0
 20
0.0
 30
0.0
  9
$PUCSORGFRONT
 10
0.0
 20
0.0
 30
0.0
  9
$PUCSORGBACK
 10
0.0
 20
0.0
 30
0.0
  9
$USERI1
 70
     0
  9
$USERI2
 70
     0
  9
$USERI3
 70
     0
  9
$USERI4
 70
     0
  9
$USERI5
 70
     0
  9
$USERR1
 40
0.0
  9
$USERR2
 40
0.0
  9
$USERR3
 40
0.0
  9
$USERR4
 40
0.0
  9
$USERR5
 40
0.0
  9
$WORLDVIEW
 70
     1
  9
$SHADEDGE
 70
     3
  9
$SHADEDIF
 70
    70
  9
$TILEMODE
 70
     1
  9
$MAXACTVP
 70
    64
  9
$PINSBASE
 10
0.0
 20
0.0
 30
0.0
  9
$PLIMCHECK
 70
     0
  9
$PEXTMIN
 10
1.000000000000000E+20
 20
1.000000000000000E+20
 30
1.000000000000000E+20
  9
$PEXTMAX
 10
-1.000000000000000E+20
 20
-1.000000000000000E+20
 30
-1.000000000000000E+20
  9
$PLIMMIN
 10
0.0
 20
0.0
  9
$PLIMMAX
 10
12.0
 20
9.0
  9
$UNITMODE
 70
     0
  9
$VISRETAIN
 70
     1
  9
$PLINEGEN
 70
     0
  9
$PSLTSCALE
 70
     1
  9
$TREEDEPTH
 70
  3020
  9
$CMLSTYLE
  2
Standard
  9
$CMLJUST
 70
     0
  9
$CMLSCALE
 40
1.0
  9
$PROXYGRAPHICS
 70
     1
  9
$MEASUREMENT
 70
     0
  9
$CELWEIGHT
370
    -1
  9
$ENDCAPS
280
     0
  9
$JOINSTYLE
280
     0
  9
$LWDISPLAY
290
     0
  9
$INSUNITS
 70
     4
  9
$HYPERLINKBASE
  1

  9
$STYLESHEET
  1

  9
$XEDIT
290
     1
  9
$CEPSNTYPE
380
     0
  9
$PSTYLEMODE
290
     1
  9
$FINGERPRINTGUID
  2
{ab27fb15-98b7-4e4d-beac-5a9d90469624}
  9
$VERSIONGUID
  2
{FAEB1C32-E019-11D5-929B-00C0DF256EC4}
  9
$EXTNAMES
290
     1
  9
$PSVPSCALE
 40
0.0
  9
$OLESTARTUP
290
     0
  9
$SORTENTS
280
   127
  9
$INDEXCTL
280
     0
  9
$HIDETEXT
280
     1
  9
$XCLIPFRAME
280
     2
  9
$HALOGAP
280
     0
  9
$OBSCOLOR
 70
   257
  9
$OBSLTYPE
280
     0
  9
$INTERSECTIONDISPLAY
280
     0
  9
$INTERSECTIONCOLOR
 70
   257
  9
$DIMASSOC
280
     2
  9
$PROJECTNAME
  1

  9
$CAMERADISPLAY
290
     0
  9
$LENSLENGTH
 40
50.0
  9
$CAMERAHEIGHT
 40
0.0
  9
$STEPSPERSEC
 40
2.0
  9
$STEPSIZE
 40
6.0
  9
$3DDWFPREC
 40
2.0
  9
$PSOLWIDTH
 40
0.25
  9
$PSOLHEIGHT
 40
4.0
  9
$LOFTANG1
 40
1.570796326794897
  9
$LOFTANG2
 40
1.570796326794897
  9
$LOFTMAG1
 40
0.0
  9
$LOFTMAG2
 40
0.0
  9
$LOFTPARAM
 70
     7
  9
$LOFTNORMALS
280
     1
  9
$LATITUDE
 40
37.795
  9
$LONGITUDE
 40
-122.394
  9
$NORTHDIRECTION
 40
0.0
  9
$TIMEZONE
 70
 -8000
  9
$LIGHTGLYPHDISPLAY
280
     1
  9
$TILEMODELIGHTSYNCH
280
     1
  9
$CMATERIAL
347
44
  9
$SOLIDHIST
280
     0
  9
$SHOWHIST
280
     1
  9
$DWFFRAME
280
     2
  9
$DGNFRAME
280
     2
  9
$REALWORLDSCALE
290
     1
  9
$INTERFERECOLOR
 62
   256
  9
$CSHADOW
280
     0
  9
$SHADOWPLANELOCATION
 40
0.0
  0
ENDSEC
  0
SECTION
  2
CLASSES
  0
CLASS
  1
ACDBDICTIONARYWDFLT
  2
AcDbDictionaryWithDefault
  3
ObjectDBX Classes
 90
        0
 91
        3
280
     0
281
     0
  0
CLASS
  1
VISUALSTYLE
  2
AcDbVisualStyle
  3
ObjectDBX Classes
 90
     4095
 91
        3
280
     0
281
     0
  0
CLASS
  1
MATERIAL
  2
AcDbMaterial
  3
ObjectDBX Classes
 90
     1153
 91
        3
280
     0
281
     0
  0
CLASS
  1
SCALE
  2
AcDbScale
  3
ObjectDBX Classes
 90
     1153
 91
        3
280
     0
281
     0
  0
CLASS
  1
TABLESTYLE
  2
AcDbTableStyle
  3
ObjectDBX Classes
 90
     4095
 91
        3
280
     0
281
     0
  0
CLASS
  1
MLEADERSTYLE
  2
AcDbMLeaderStyle
  3
ACDB_MLEADERSTYLE_CLASS
 90
     4095
 91
        3
280
     0
281
     0
  0
CLASS
  1
SUN
  2
AcDbSun
  3
SCENEOE
 90
     1153
 91
        3
280
     0
281
     0
  0
CLASS
  1
DICTIONARYVAR
  2
AcDbDictionaryVar
  3
ObjectDBX Classes
 90
        0
 91
        3
280
     0
281
     0
  0
CLASS
  1
CELLSTYLEMAP
  2
AcDbCellStyleMap
  3
ObjectDBX Classes
 90
     1152
 91
        3
280
     0
281
     0
  0
ENDSEC
  0
SECTION
  2
TABLES
  0
TABLE
  2
VPORT
  5
8
330
0
100
AcDbSymbolTable
 70
     1
  0
VPORT
  5
29
330
8
100
AcDbSymbolTableRecord
100
AcDbViewportTableRecord
  2
*Active
 70
     0
 10
0.0
 20
0.0
 11
1.0
 21
1.0
 12
10.42990654205607
 22
4.5
 13
0.0
 23
0.0
 14
0.5
 24
0.5
 15
0.5
 25
0.5
 16
0.0
 26
0.0
 36
1.0
 17
0.0
 27
0.0
 37
0.0
 40
9.0
 41
1.972972972850329
 42
50.0
 43
0.0
 44
0.0
 50
0.0
 51
0.0
 71
     0
 72
   100
 73
     1
 74
     3
 75
     0
 76
     0
 77
     0
 78
     0
281
     0
 65
     1
110
0.0
120
0.0
130
0.0
111
1.0
121
0.0
131
0.0
112
0.0
122
1.0
132
0.0
 79
     0
146
0.0
348
2F
 60
     3
 61
     5
292
     1
282
     1
141
0.0
142
0.0
 63
   250
361
5D
  0
ENDTAB
  0
TABLE
  2
LTYPE
  5
5
330
0
100
AcDbSymbolTable
 70
     1
  0
LTYPE
  5
14
330
5
100
AcDbSymbolTableRecord
100
AcDbLinetypeTableRecord
  2
ByBlock
 70
     0
  3

 72
    65
 73
     0
 40
0.0
  0
LTYPE
  5
15
330
5
100
AcDbSymbolTableRecord
100
AcDbLinetypeTableRecord
  2
ByLayer
 70
     0
  3

 72
    65
 73
     0
 40
0.0
  0
LTYPE
  5
16
330
5
100
AcDbSymbolTableRecord
100
AcDbLinetypeTableRecord
  2
Continuous
 70
     0
  3
Solid line
 72
    65
 73
     0
 40
0.0
  0
ENDTAB
  0
TABLE
  2
LAYER
  5
2
330
0
100
AcDbSymbolTable
 70
     2
  0
LAYER
  5
10
330
2
100
AcDbSymbolTableRecord
100
AcDbLayerTableRecord
  2
0
 70
     0
 62
     7
  6
Continuous
370
    -3
390
F
347
46
348
0
  0
LAYER
  5
5F
330
2
100
AcDbSymbolTableRecord
100
AcDbLayerTableRecord
  2
Layer 1
 70
     0
 62
     7
  6
Continuous
370
    -3
390
F
347
46
348
0
  0
ENDTAB
  0
TABLE
  2
STYLE
  5
3
330
0
100
AcDbSymbolTable
 70
     1
  0
STYLE
  5
11
330
3
100
AcDbSymbolTableRecord
100
AcDbTextStyleTableRecord
  2
Standard
 70
     0
 40
0.0
 41
1.0
 50
0.0
 71
     0
 42
0.2
  3
txt
  4

  0
ENDTAB
  0
TABLE
  2
VIEW
  5
6
330
0
100
AcDbSymbolTable
 70
     0
  0
ENDTAB
  0
TABLE
  2
UCS
  5
7
330
0
100
AcDbSymbolTable
 70
     0
  0
ENDTAB
  0
TABLE
  2
APPID
  5
9
330
0
100
AcDbSymbolTable
 70
     2
  0
APPID
  5
12
330
9
100
AcDbSymbolTableRecord
100
AcDbRegAppTableRecord
  2
ACAD
 70
     0
  0
APPID
  5
5E
330
9
100
AcDbSymbolTableRecord
100
AcDbRegAppTableRecord
  2
ODA
 70
     0
  0
ENDTAB
  0
TABLE
  2
DIMSTYLE
  5
A
330
0
100
AcDbSymbolTable
 70
     1
100
AcDbDimStyleTable
  0
DIMSTYLE
105
27
330
A
100
AcDbSymbolTableRecord
100
AcDbDimStyleTableRecord
  2
Standard
 70
     0
178
     0
340
11
  0
ENDTAB
  0
TABLE
  2
BLOCK_RECORD
  5
1
330
0
100
AcDbSymbolTable
 70
     1
  0
BLOCK_RECORD
  5
1F
330
1
100
AcDbSymbolTableRecord
100
AcDbBlockTableRecord
  2
*Model_Space
340
22
 70
     0
280
     1
281
     0
  0
BLOCK_RECORD
  5
1B
330
1
100
AcDbSymbolTableRecord
100
AcDbBlockTableRecord
  2
*Paper_Space
340
1E
 70
     0
280
     1
281
     0
  0
BLOCK_RECORD
  5
23
330
1
100
AcDbSymbolTableRecord
100
AcDbBlockTableRecord
  2
*Paper_Space0
340
26
 70
     0
280
     1
281
     0
  0
ENDTAB
  0
ENDSEC
  0
SECTION
  2
BLOCKS
  0
BLOCK
  5
20
330
1F
100
AcDbEntity
  8
0
100
AcDbBlockBegin
  2
*Model_Space
 70
     0
 10
0.0
 20
0.0
 30
0.0
  3
*Model_Space
  1

  0
ENDBLK
  5
21
330
1F
100
AcDbEntity
  8
0
100
AcDbBlockEnd
  0
BLOCK
  5
1C
330
1B
100
AcDbEntity
 67
     1
  8
0
100
AcDbBlockBegin
  2
*Paper_Space
 70
     0
 10
0.0
 20
0.0
 30
0.0
  3
*Paper_Space
  1

  0
ENDBLK
  5
1D
330
1B
100
AcDbEntity
 67
     1
  8
0
100
AcDbBlockEnd
  0
BLOCK
  5
24
330
23
100
AcDbEntity
  8
0
100
AcDbBlockBegin
  2
*Paper_Space0
 70
     0
 10
0.0
 20
0.0
 30
0.0
  3
*Paper_Space0
  1

  0
ENDBLK
  5
25
330
23
100
AcDbEntity
  8
0
100
AcDbBlockEnd
  0
ENDSEC
  0
SECTION
  2
ENTITIES
  0
SPLINE
  5
60
330
1F
100
AcDbEntity
  8
Layer 1
 62
   250
370
    20
100
AcDbSpline
210
0.0
220
0.0
230
1.0
 70
    11
 71
     3
 72
    41
 73
    37
 74
     0
 42
0.0000000001
 43
0.0000000001
 40
0.0
 40
0.0
 40
0.0
 40
0.0
 40
0.0833333333333333
 40
0.0833333333333333
 40
0.0833333333333333
 40
0.1666666666666667
 40
0.1666666666666667
 40
0.1666666666666667
 40
0.25
 40
0.25
 40
0.25
 40
0.3333333333333333
 40
0.3333333333333333
 40
0.3333333333333333
 40
0.4166666666666666
 40
0.4166666666666666
 40
0.4166666666666666
 40
0.5
 40
0.5
 40
0.5
 40
0.5833333333333333
 40
0.5833333333333333
 40
0.5833333333333333
 40
0.6666666666666666
 40
0.6666666666666666
 40
0.6666666666666666
 40
0.75
 40
0.75
 40
0.75
 40
0.8333333333333333
 40
0.8333333333333333
 40
0.8333333333333333
 40
0.9166666666666666
 40
0.9166666666666666
 40
0.9166666666666666
 40
1.0
 40
1.0
 40
1.0
 40
1.0
 10
429.6302
 20
-590.0266
 30
0.0
 10
429.6302
 20
-590.0266
 30
0.0
 10
699.0499
 20
-590.0266
 30
0.0
 10
699.0499
 20
-590.0266
 30
0.0
 10
708.1206
 20
-579.557
 30
0.0
 10
713.6949
 20
-562.5823
 30
0.0
 10
714.0972
 20
-544.1805
 30
0.0
 10
714.4899
 20
-526.282
 30
0.0
 10
711.3586
 20
-508.6686
 30
0.0
 10
705.1913
 20
-494.0433
 30
0.0
 10
698.7296
 20
-478.7204
 30
0.0
 10
688.6952
 20
-468.6729
 30
0.0
 10
677.5694
 20
-466.3458
 30
0.0
 10
661.9427
 20
-463.0869
 30
0.0
 10
646.2759
 20
-460.6738
 30
0.0
 10
630.5604
 20
-459.081
 30
0.0
 10
625.7458
 20
-458.584
 30
0.0
 10
620.9312
 20
-458.0647
 30
0.0
 10
616.1128
 20
-457.4659
 30
0.0
 10
588.4499
 20
-454.0747
 30
0.0
 10
561.297
 20
-442.976
 30
0.0
 10
535.8083
 20
-424.6681
 30
0.0
 10
523.2546
 20
-415.6384
 30
0.0
 10
510.6171
 20
-406.9305
 30
0.0
 10
497.8966
 20
-398.5554
 30
0.0
 10
485.1713
 20
-390.1851
 30
0.0
 10
472.4928
 20
-381.7002
 30
0.0
 10
459.8371
 20
-373.0783
 30
0.0
 10
472.4328
 20
-414.7273
 30
0.0
 10
478.0757
 20
-461.3157
 30
0.0
 10
476.196
 20
-507.8945
 30
0.0
 10
475.0664
 20
-535.8309
 30
0.0
 10
465.6488
 20
-560.9847
 30
0.0
 10
451.1192
 20
-574.9362
 30
0.0
 10
444.3495
 20
-581.4254
 30
0.0
 10
437.1385
 20
-586.4969
 30
0.0
 10
429.6302
 20
-590.0266
 30
0.0
  0
SPLINE
  5
61
330
1F
100
AcDbEntity
  8
Layer 1
 62
   250
370
    20
100
AcDbSpline
210
0.0
220
0.0
230
1.0
 70
     8
 71
     3
 72
    92
 73
    88
 74
     0
 42
0.0000000001
 43
0.0000000001
 40
0.0
 40
0.0
 40
0.0
 40
0.0
 40
0.0344827586206897
 40
0.0344827586206897
 40
0.0344827586206897
 40
0.0689655172413793
 40
0.0689655172413793
 40
0.0689655172413793
 40
0.103448275862069
 40
0.103448275862069
 40
0.103448275862069
 40
0.1379310344827586
 40
0.1379310344827586
 40
0.1379310344827586
 40
0.1724137931034483
 40
0.1724137931034483
 40
0.1724137931034483
 40
0.2068965517241379
 40
0.2068965517241379
 40
0.2068965517241379
 40
0.2413793103448276
 40
0.2413793103448276
 40
0.2413793103448276
 40
0.2758620689655172
 40
0.2758620689655172
 40
0.2758620689655172
 40
0.3103448275862069
 40
0.3103448275862069
 40
0.3103448275862069
 40
0.3448275862068966
 40
0.3448275862068966
 40
0.3448275862068966
 40
0.3793103448275862
 40
0.3793103448275862
 40
0.3793103448275862
 40
0.4137931034482759
 40
0.4137931034482759
 40
0.4137931034482759
 40
0.4482758620689655
 40
0.4482758620689655
 40
0.4482758620689655
 40
0.4827586206896551
 40
0.4827586206896551
 40
0.4827586206896551
 40
0.5172413793103449
 40
0.5172413793103449
 40
0.5172413793103449
 40
0.5517241379310345
 40
0.5517241379310345
 40
0.5517241379310345
 40
0.5862068965517241
 40
0.5862068965517241
 40
0.5862068965517241
 40
0.6206896551724138
 40
0.6206896551724138
 40
0.6206896551724138
 40
0.6551724137931034
 40
0.6551724137931034
 40
0.6551724137931034
 40
0.6896551724137931
 40
0.6896551724137931
 40
0.6896551724137931
 40
0.7241379310344828
 40
0.7241379310344828
 40
0.7241379310344828
 40
0.7586206896551724
 40
0.7586206896551724
 40
0.7586206896551724
 40
0.7931034482758621
 40
0.7931034482758621
 40
0.7931034482758621
 40
0.8275862068965517
 40
0.8275862068965517
 40
0.8275862068965517
 40
0.8620689655172413
 40
0.8620689655172413
 40
0.8620689655172413
 40
0.896551724137931
 40
0.896551724137931
 40
0.896551724137931
 40
0.9310344827586207
 40
0.9310344827586207
 40
0.9310344827586207
 40
0.9655172413793103
 40
0.9655172413793103
 40
0.9655172413793103
 40
1.0
 40
1.0
 40
1.0
 40
1.0
 10
-1023.1844
 20
-590.0266
 30
0.0
 10
-995.0487
 20
-565.4844
 30
0.0
 10
-969.7374
 20
-532.7791
 30
0.0
 10
-948.4495
 20
-493.4285
 30
0.0
 10
-923.7902
 20
-447.2623
 30
0.0
 10
-904.8376
 20
-393.4202
 30
0.0
 10
-892.6777
 20
-334.9765
 30
0.0
 10
-880.0554
 20
-271.9645
 30
0.0
 10
-874.3828
 20
-205.6667
 30
0.0
 10
-875.9423
 20
-139.2652
 30
0.0
 10
-866.5809
 20
-162.369
 30
0.0
 10
-854.7831
 20
-182.4242
 30
0.0
 10
-841.1075
 20
-198.4385
 30
0.0
 10
-827.4185
 20
-214.4909
 30
0.0
 10
-811.9328
 20
-225.7537
 30
0.0
 10
-795.5626
 20
-231.5484
 30
0.0
 10
-783.4788
 20
-235.8378
 30
0.0
 10
-771.173
 20
-238.0184
 30
0.0
 10
-758.8262
 20
-238.0455
 30
0.0
 10
-776.2011
 20
-260.9343
 30
0.0
 10
-788.8759
 20
-292.2587
 30
0.0
 10
-795.0945
 20
-327.7037
 30
0.0
 10
-801.2694
 20
-362.9082
 30
0.0
 10
-801.9147
 20
-400.161
 30
0.0
 10
-796.9562
 20
-435.9102
 30
0.0
 10
-793.8944
 20
-457.9979
 30
0.0
 10
-787.1554
 20
-478.1868
 30
0.0
 10
-777.5223
 20
-494.1405
 30
0.0
 10
-775.3356
 20
-497.7514
 30
0.0
 10
-772.7896
 20
-500.6631
 30
0.0
 10
-769.9776
 20
-502.7353
 30
0.0
 10
-772.6324
 20
-509.0174
 30
0.0
 10
-775.5548
 20
-514.9475
 30
0.0
 10
-778.7547
 20
-520.465
 30
0.0
 10
-791.114
 20
-541.7451
 30
0.0
 10
-804.678
 20
-560.9528
 30
0.0
 10
-819.2448
 20
-577.8495
 30
0.0
 10
-825.2224
 20
-584.7926
 30
0.0
 10
-832.177
 20
-588.9785
 30
0.0
 10
-839.4251
 20
-590.0266
 30
0.0
 10
-839.4251
 20
-590.0266
 30
0.0
 10
-844.7097
 20
-590.0266
 30
0.0
 10
-844.7097
 20
-590.0266
 30
0.0
 10
-850.4098
 20
-589.1649
 30
0.0
 10
-855.9021
 20
-585.9506
 30
0.0
 10
-860.6739
 20
-580.6767
 30
0.0
 10
-875.4285
 20
-564.4491
 30
0.0
 10
-884.135
 20
-536.6066
 30
0.0
 10
-883.6985
 20
-507.1013
 30
0.0
 10
-883.547
 20
-496.9757
 30
0.0
 10
-880.7454
 20
-487.4698
 30
0.0
 10
-876.0433
 20
-481.1129
 30
0.0
 10
-871.4546
 20
-474.9088
 30
0.0
 10
-865.8612
 20
-471.137
 30
0.0
 10
-859.9743
 20
-470.2689
 30
0.0
 10
-862.5088
 20
-484.9595
 30
0.0
 10
-863.1475
 20
-500.3859
 30
0.0
 10
-861.8406
 20
-515.5241
 30
0.0
 10
-861.2096
 20
-522.7937
 30
0.0
 10
-857.698
 20
-528.4243
 30
0.0
 10
-853.3085
 20
-529.1012
 30
0.0
 10
-845.6581
 20
-530.3277
 30
0.0
 10
-837.9648
 20
-528.05
 30
0.0
 10
-831.0274
 20
-522.5341
 30
0.0
 10
-816.4596
 20
-510.9511
 30
0.0
 10
-809.8378
 20
-482.4492
 30
0.0
 10
-815.9487
 20
-457.4897
 30
0.0
 10
-819.5585
 20
-442.702
 30
0.0
 10
-825.8925
 20
-430.1809
 30
0.0
 10
-834.0271
 20
-421.7549
 30
0.0
 10
-842.1655
 20
-413.3065
 30
0.0
 10
-851.729
 20
-409.5268
 30
0.0
 10
-861.2629
 20
-410.9364
 30
0.0
 10
-869.8141
 20
-412.2075
 30
0.0
 10
-878.045
 20
-416.884
 30
0.0
 10
-885.2989
 20
-424.555
 30
0.0
 10
-892.4756
 20
-432.1464
 30
0.0
 10
-899.0117
 20
-441.3019
 30
0.0
 10
-904.7443
 20
-451.7571
 30
0.0
 10
-911.5054
 20
-464.1095
 30
0.0
 10
-915.1999
 20
-480.2718
 30
0.0
 10
-915.0694
 20
-497.0171
 30
0.0
 10
-914.8224
 20
-529.654
 30
0.0
 10
-909.6446
 20
-561.6378
 30
0.0
 10
-899.9935
 20
-590.0266
 30
0.0
 10
-899.9935
 20
-590.0266
 30
0.0
 10
-1023.1758
 20
-590.0266
 30
0.0
 10
-1023.1758
 20
-590.0266
 30
0.0
  0
SPLINE
  5
62
330
1F
100
AcDbEntity
  8
Layer 1
 62
   250
370
    20
100
AcDbSpline
210
0.0
220
0.0
230
1.0
 70
     8
 71
     3
 72
   170
 73
   166
 74
     0
 42
0.0000000001
 43
0.0000000001
 40
0.0
 40
0.0
 40
0.0
 40
0.0
 40
0.0181818181818182
 40
0.0181818181818182
 40
0.0181818181818182
 40
0.0363636363636364
 40
0.0363636363636364
 40
0.0363636363636364
 40
0.0545454545454545
 40
0.0545454545454545
 40
0.0545454545454545
 40
0.0727272727272727
 40
0.0727272727272727
 40
0.0727272727272727
 40
0.0909090909090909
 40
0.0909090909090909
 40
0.0909090909090909
 40
0.1090909090909091
 40
0.1090909090909091
 40
0.1090909090909091
 40
0.1272727272727273
 40
0.1272727272727273
 40
0.1272727272727273
 40
0.1454545454545454
 40
0.1454545454545454
 40
0.1454545454545454
 40
0.1636363636363636
 40
0.1636363636363636
 40
0.1636363636363636
 40
0.1818181818181818
 40
0.1818181818181818
 40
0.1818181818181818
 40
0.2
 40
0.2
 40
0.2
 40
0.2181818181818182
 40
0.2181818181818182
 40
0.2181818181818182
 40
0.2363636363636364
 40
0.2363636363636364
 40
0.2363636363636364
 40
0.2545454545454545
 40
0.2545454545454545
 40
0.2545454545454545
 40
0.2727272727272727
 40
0.2727272727272727
 40
0.2727272727272727
 40
0.2909090909090909
 40
0.2909090909090909
 40
0.2909090909090909
 40
0.3090909090909091
 40
0.3090909090909091
 40
0.3090909090909091
 40
0.3272727272727273
 40
0.3272727272727273
 40
0.3272727272727273
 40
0.3454545454545455
 40
0.3454545454545455
 40
0.3454545454545455
 40
0.3636363636363636
 40
0.3636363636363636
 40
0.3636363636363636
 40
0.3818181818181818
 40
0.3818181818181818
 40
0.3818181818181818
 40
0.4
 40
0.4
 40
0.4
 40
0.4181818181818182
 40
0.4181818181818182
 40
0.4181818181818182
 40
0.4363636363636363
 40
0.4363636363636363
 40
0.4363636363636363
 40
0.4545454545454545
 40
0.4545454545454545
 40
0.4545454545454545
 40
0.4727272727272727
 40
0.4727272727272727
 40
0.4727272727272727
 40
0.4909090909090909
 40
0.4909090909090909
 40
0.4909090909090909
 40
0.509090909090909
 40
0.509090909090909
 40
0.509090909090909
 40
0.5272727272727272
 40
0.5272727272727272
 40
0.5272727272727272
 40
0.5454545454545454
 40
0.5454545454545454
 40
0.5454545454545454
 40
0.5636363636363636
 40
0.5636363636363636
 40
0.5636363636363636
 40
0.5818181818181818
 40
0.5818181818181818
 40
0.5818181818181818
 40
0.6
 40
0.6
 40
0.6
 40
0.6181818181818182
 40
0.6181818181818182
 40
0.6181818181818182
 40
0.6363636363636364
 40
0.6363636363636364
 40
0.6363636363636364
 40
0.6545454545454545
 40
0.6545454545454545
 40
0.6545454545454545
 40
0.6727272727272727
 40
0.6727272727272727
 40
0.6727272727272727
 40
0.6909090909090909
 40
0.6909090909090909
 40
0.6909090909090909
 40
0.7090909090909091
 40
0.7090909090909091
 40
0.7090909090909091
 40
0.7272727272727273
 40
0.7272727272727273
 40
0.7272727272727273
 40
0.7454545454545454
 40
0.7454545454545454
 40
0.7454545454545454
 40
0.7636363636363636
 40
0.7636363636363636
 40
0.7636363636363636
 40
0.7818181818181817
 40
0.7818181818181817
 40
0.7818181818181817
 40
0.7999999999999999
 40
0.7999999999999999
 40
0.7999999999999999
 40
0.8181818181818181
 40
0.8181818181818181
 40
0.8181818181818181
 40
0.8363636363636363
 40
0.8363636363636363
 40
0.8363636363636363
 40
0.8545454545454545
 40
0.8545454545454545
 40
0.8545454545454545
 40
0.8727272727272727
 40
0.8727272727272727
 40
0.8727272727272727
 40
0.8909090909090909
 40
0.8909090909090909
 40
0.8909090909090909
 40
0.9090909090909091
 40
0.9090909090909091
 40
0.9090909090909091
 40
0.9272727272727272
 40
0.9272727272727272
 40
0.9272727272727272
 40
0.9454545454545454
 40
0.9454545454545454
 40
0.9454545454545454
 40
0.9636363636363636
 40
0.9636363636363636
 40
0.9636363636363636
 40
0.9818181818181818
 40
0.9818181818181818
 40
0.9818181818181818
 40
1.0
 40
1.0
 40
1.0
 40
1.0
 10
391.6269
 20
589.9686
 30
0.0
 10
391.6269
 20
589.9686
 30
0.0
 10
239.9487
 20
589.9686
 30
0.0
 10
239.9487
 20
589.9686
 30
0.0
 10
245.3648
 20
579.9259
 30
0.0
 10
250.0411
 20
568.8669
 30
0.0
 10
253.8959
 20
556.9893
 30
0.0
 10
266.685
 20
517.5368
 30
0.0
 10
275.5011
 20
474.8365
 30
0.0
 10
280.0203
 20
430.6119
 30
0.0
 10
285.9263
 20
372.7798
 30
0.0
 10
274.954
 20
313.6464
 30
0.0
 10
250.514
 20
271.4797
 30
0.0
 10
231.9474
 20
239.4497
 30
0.0
 10
206.2043
 20
221.7711
 30
0.0
 10
179.5252
 20
222.663
 30
0.0
 10
163.519
 20
223.1982
 30
0.0
 10
148.875
 20
237.8776
 30
0.0
 10
141.0548
 20
261.2092
 30
0.0
 10
133.5999
 20
283.4657
 30
0.0
 10
130.1254
 20
308.8505
 30
0.0
 10
131.0453
 20
334.2878
 30
0.0
 10
131.4552
 20
345.7545
 30
0.0
 10
133.1252
 20
356.9822
 30
0.0
 10
135.9476
 20
367.4487
 30
0.0
 10
138.8473
 20
378.1524
 30
0.0
 10
143.9097
 20
386.7998
 30
0.0
 10
150.2675
 20
391.8267
 30
0.0
 10
156.2012
 20
396.5383
 30
0.0
 10
162.7993
 20
398.3637
 30
0.0
 10
169.3278
 20
397.134
 30
0.0
 10
174.2692
 20
396.1767
 30
0.0
 10
178.1449
 20
389.5872
 30
0.0
 10
178.6349
 20
381.3205
 30
0.0
 10
179.4384
 20
367.5745
 30
0.0
 10
174.8955
 20
354.507
 30
0.0
 10
167.3757
 20
348.8397
 30
0.0
 10
165.8076
 20
347.6818
 30
0.0
 10
164.6257
 20
345.4263
 30
0.0
 10
164.1205
 20
342.6787
 30
0.0
 10
163.6257
 20
339.9518
 30
0.0
 10
163.8478
 20
337.0019
 30
0.0
 10
164.7524
 20
334.5681
 30
0.0
 10
168.8369
 20
323.5601
 30
0.0
 10
176.1556
 20
317.1458
 30
0.0
 10
183.8823
 20
317.7638
 30
0.0
 10
191.1618
 20
318.3548
 30
0.0
 10
198.2756
 20
321.5547
 30
0.0
 10
204.7383
 20
327.1519
 30
0.0
 10
215.3941
 20
336.3887
 30
0.0
 10
222.8749
 20
353.3633
 30
0.0
 10
224.9586
 20
373.1064
 30
0.0
 10
227.0261
 20
392.5403
 30
0.0
 10
224.5372
 20
412.5175
 30
0.0
 10
218.005
 20
428.9474
 30
0.0
 10
208.2184
 20
453.6106
 30
0.0
 10
193.093
 20
470.8895
 30
0.0
 10
175.7895
 20
477.1334
 30
0.0
 10
168.8369
 20
479.6531
 30
0.0
 10
161.6851
 20
480.2107
 30
0.0
 10
154.6352
 20
478.7516
 30
0.0
 10
147.5995
 20
477.3197
 30
0.0
 10
140.6983
 20
474.4144
 30
0.0
 10
134.0812
 20
470.1743
 30
0.0
 10
114.0907
 20
457.1275
 30
0.0
 10
97.0503
 20
433.9632
 30
0.0
 10
85.3297
 20
403.9194
 30
0.0
 10
71.3243
 20
367.729
 30
0.0
 10
65.7452
 20
324.2705
 30
0.0
 10
69.6238
 20
281.669
 30
0.0
 10
75.3801
 20
218.7208
 30
0.0
 10
97.6737
 20
163.4341
 30
0.0
 10
130.4457
 20
130.9485
 30
0.0
 10
149.8129
 20
111.7614
 30
0.0
 10
173.0854
 20
107.104
 30
0.0
 10
194.6096
 20
118.1311
 30
0.0
 10
226.519
 20
134.4766
 30
0.0
 10
255.1437
 20
165.054
 30
0.0
 10
277.4152
 20
206.5851
 30
0.0
 10
285.6366
 20
221.9287
 30
0.0
 10
291.7047
 20
240.1649
 30
0.0
 10
295.1629
 20
259.9382
 30
0.0
 10
296.0894
 20
265.2709
 30
0.0
 10
296.5212
 20
270.798
 30
0.0
 10
296.464
 20
276.3267
 30
0.0
 10
298.2941
 20
267.657
 30
0.0
 10
300.6466
 20
259.3361
 30
0.0
 10
303.492
 20
251.4628
 30
0.0
 10
313.1851
 20
224.568
 30
0.0
 10
324.7188
 20
199.6786
 30
0.0
 10
337.8587
 20
177.2294
 30
0.0
 10
353.0394
 20
151.3047
 30
0.0
 10
371.7955
 20
132.0236
 30
0.0
 10
392.4734
 20
121.0635
 30
0.0
 10
413.6126
 20
109.8564
 30
0.0
 10
436.4884
 20
112.5626
 30
0.0
 10
456.4637
 20
128.6389
 30
0.0
 10
491.6321
 20
156.9242
 30
0.0
 10
516.7433
 20
211.2361
 30
0.0
 10
524.2345
 20
275.2531
 30
0.0
 10
531.9897
 20
341.4761
 30
0.0
 10
515.1067
 20
408.9145
 30
0.0
 10
481.4195
 20
446.153
 30
0.0
 10
466.6782
 20
462.4364
 30
0.0
 10
449.7608
 20
472.4218
 30
0.0
 10
432.1619
 20
475.1869
 30
0.0
 10
417.6074
 20
477.4806
 30
0.0
 10
403.0415
 20
471.0153
 30
0.0
 10
391.0922
 20
456.9428
 30
0.0
 10
379.467
 20
443.2095
 30
0.0
 10
371.5868
 20
422.3579
 30
0.0
 10
369.18
 20
398.9387
 30
0.0
 10
366.7246
 20
375.1706
 30
0.0
 10
371.0158
 20
350.8658
 30
0.0
 10
380.7843
 20
333.1314
 30
0.0
 10
385.6676
 20
324.3836
 30
0.0
 10
391.9844
 20
318.2305
 30
0.0
 10
398.9542
 20
315.4813
 30
0.0
 10
405.945
 20
312.7465
 30
0.0
 10
413.2618
 20
313.6336
 30
0.0
 10
419.9303
 20
318.0346
 30
0.0
 10
424.1025
 20
320.7759
 30
0.0
 10
426.9993
 20
327.2602
 30
0.0
 10
427.3873
 20
334.7433
 30
0.0
 10
427.7809
 20
342.255
 30
0.0
 10
425.5485
 20
349.4562
 30
0.0
 10
421.6528
 20
353.2741
 30
0.0
 10
419.9571
 20
354.9148
 30
0.0
 10
418.3004
 20
356.6494
 30
0.0
 10
416.68
 20
358.4715
 30
0.0
 10
414.9728
 20
360.3749
 30
0.0
 10
413.8556
 20
363.4427
 30
0.0
 10
413.6449
 20
366.8529
 30
0.0
 10
413.0998
 20
375.3124
 30
0.0
 10
414.4619
 20
383.8371
 30
0.0
 10
417.4635
 20
390.7245
 30
0.0
 10
420.7949
 20
398.4083
 30
0.0
 10
427.1337
 20
400.4773
 30
0.0
 10
431.9732
 20
395.4934
 30
0.0
 10
438.3796
 20
388.8291
 30
0.0
 10
444.5192
 20
381.467
 30
0.0
 10
450.3241
 20
373.4376
 30
0.0
 10
461.6463
 20
357.7786
 30
0.0
 10
467.2292
 20
333.3352
 30
0.0
 10
465.0674
 20
309.0495
 30
0.0
 10
463.8282
 20
295.157
 30
0.0
 10
461.0267
 20
281.7837
 30
0.0
 10
456.8012
 20
269.6352
 30
0.0
 10
446.5199
 20
240.0629
 30
0.0
 10
428.2328
 20
220.7755
 30
0.0
 10
407.8428
 20
217.9498
 30
0.0
 10
395.4359
 20
216.486
 30
0.0
 10
383.0605
 20
221.3107
 30
0.0
 10
372.3036
 20
231.7644
 30
0.0
 10
346.0858
 20
257.2925
 30
0.0
 10
326.6729
 20
298.6357
 30
0.0
 10
318.0617
 20
347.2613
 30
0.0
 10
314.9047
 20
365.0993
 30
0.0
 10
314.2498
 20
383.9518
 30
0.0
 10
316.161
 20
402.282
 30
0.0
 10
318.1694
 20
429.9493
 30
0.0
 10
322.3072
 20
457.0654
 30
0.0
 10
328.4639
 20
482.9822
 30
0.0
 10
339.9872
 20
531.458
 30
0.0
 10
362.7964
 20
570.0504
 30
0.0
 10
391.6393
 20
589.9734
 30
0.0
  0
SPLINE
  5
63
330
1F
100
AcDbEntity
  8
Layer 1
 62
   250
370
    20
100
AcDbSpline
210
0.0
220
0.0
230
1.0
 70
    11
 71
     3
 72
    71
 73
    67
 74
     0
 42
0.0000000001
 43
0.0000000001
 40
0.0
 40
0.0
 40
0.0
 40
0.0
 40
0.0454545454545455
 40
0.0454545454545455
 40
0.0454545454545455
 40
0.0909090909090909
 40
0.0909090909090909
 40
0.0909090909090909
 40
0.1363636363636364
 40
0.1363636363636364
 40
0.1363636363636364
 40
0.1818181818181818
 40
0.1818181818181818
 40
0.1818181818181818
 40
0.2272727272727273
 40
0.2272727272727273
 40
0.2272727272727273
 40
0.2727272727272727
 40
0.2727272727272727
 40
0.2727272727272727
 40
0.3181818181818182
 40
0.3181818181818182
 40
0.3181818181818182
 40
0.3636363636363636
 40
0.3636363636363636
 40
0.3636363636363636
 40
0.4090909090909091
 40
0.4090909090909091
 40
0.4090909090909091
 40
0.4545454545454546
 40
0.4545454545454546
 40
0.4545454545454546
 40
0.5
 40
0.5
 40
0.5
 40
0.5454545454545454
 40
0.5454545454545454
 40
0.5454545454545454
 40
0.5909090909090909
 40
0.5909090909090909
 40
0.5909090909090909
 40
0.6363636363636364
 40
0.6363636363636364
 40
0.6363636363636364
 40
0.6818181818181819
 40
0.6818181818181819
 40
0.6818181818181819
 40
0.7272727272727273
 40
0.7272727272727273
 40
0.7272727272727273
 40
0.7727272727272727
 40
0.7727272727272727
 40
0.7727272727272727
 40
0.8181818181818182
 40
0.8181818181818182
 40
0.8181818181818182
 40
0.8636363636363636
 40
0.8636363636363636
 40
0.8636363636363636
 40
0.9090909090909092
 40
0.9090909090909092
 40
0.9090909090909092
 40
0.9545454545454546
 40
0.9545454545454546
 40
0.9545454545454546
 40
1.0
 40
1.0
 40
1.0
 40
1.0
 10
661.5252
 20
589.9686
 30
0.0
 10
661.5252
 20
589.9686
 30
0.0
 10
514.1325
 20
589.9686
 30
0.0
 10
514.1325
 20
589.9686
 30
0.0
 10
536.8692
 20
578.1881
 30
0.0
 10
558.6299
 20
561.6037
 30
0.0
 10
578.8597
 20
540.6215
 30
0.0
 10
599.1343
 20
519.5915
 30
0.0
 10
617.2852
 20
493.3036
 30
0.0
 10
632.6289
 20
462.7852
 30
0.0
 10
644.7241
 20
441.091
 30
0.0
 10
655.0767
 20
416.8738
 30
0.0
 10
663.4287
 20
390.7245
 30
0.0
 10
684.6861
 20
324.2084
 30
0.0
 10
694.6614
 20
249.1914
 30
0.0
 10
692.2975
 20
173.8781
 30
0.0
 10
691.5625
 20
150.6246
 30
0.0
 10
689.2138
 20
127.5622
 30
0.0
 10
685.2914
 20
105.1958
 30
0.0
 10
687.9565
 20
110.957
 30
0.0
 10
690.9762
 20
116.2388
 30
0.0
 10
694.302
 20
120.952
 30
0.0
 10
704.3001
 20
135.0898
 30
0.0
 10
715.3821
 20
146.9802
 30
0.0
 10
727.259
 20
156.2377
 30
0.0
 10
736.4945
 20
163.4659
 30
0.0
 10
746.3002
 20
168.5263
 30
0.0
 10
756.3669
 20
171.2723
 30
0.0
 10
775.8847
 20
176.6226
 30
0.0
 10
795.9276
 20
172.8428
 30
0.0
 10
814.2434
 20
160.3631
 30
0.0
 10
821.8462
 20
155.0956
 30
0.0
 10
829.1506
 20
148.7037
 30
0.0
 10
836.0794
 20
141.2954
 30
0.0
 10
842.9987
 20
133.9
 30
0.0
 10
849.7892
 20
126.1701
 30
0.0
 10
856.4512
 20
118.112
 30
0.0
 10
861.4089
 20
112.115
 30
0.0
 10
866.0881
 20
105.4857
 30
0.0
 10
870.4462
 20
98.3005
 30
0.0
 10
874.8185
 20
91.0994
 30
0.0
 10
878.6284
 20
83.0031
 30
0.0
 10
881.7559
 20
74.1725
 30
0.0
 10
881.1763
 20
101.7299
 30
0.0
 10
881.5052
 20
129.3223
 30
0.0
 10
882.7663
 20
156.8414
 30
0.0
 10
884.035
 20
184.4274
 30
0.0
 10
887.6696
 20
211.6216
 30
0.0
 10
893.5718
 20
237.5049
 30
0.0
 10
897.2025
 20
253.4458
 30
0.0
 10
901.389
 20
269.022
 30
0.0
 10
906.0825
 20
284.1458
 30
0.0
 10
898.0699
 20
279.3483
 30
0.0
 10
889.7303
 20
276.2311
 30
0.0
 10
881.2631
 20
274.8692
 30
0.0
 10
857.4969
 20
270.9987
 30
0.0
 10
833.5114
 20
273.4851
 30
0.0
 10
810.2143
 20
282.2599
 30
0.0
 10
774.1966
 20
295.81
 30
0.0
 10
741.8267
 20
328.8101
 30
0.0
 10
718.1206
 20
376.1184
 30
0.0
 10
694.7882
 20
422.6717
 30
0.0
 10
677.5047
 20
476.8291
 30
0.0
 10
667.3626
 20
535.1517
 30
0.0
 10
664.2504
 20
553.0264
 30
0.0
 10
662.302
 20
571.3932
 30
0.0
 10
661.5252
 20
589.9686
 30
0.0
  0
SPLINE
  5
64
330
1F
100
AcDbEntity
  8
Layer 1
 62
   250
370
    20
100
AcDbSpline
210
0.0
220
0.0
230
1.0
 70
     8
 71
     3
 72
    26
 73
    22
 74
     0
 42
0.0000000001
 43
0.0000000001
 40
0.0
 40
0.0
 40
0.0
 40
0.0
 40
0.1428571428571428
 40
0.1428571428571428
 40
0.1428571428571428
 40
0.2857142857142857
 40
0.2857142857142857
 40
0.2857142857142857
 40
0.4285714285714285
 40
0.4285714285714285
 40
0.4285714285714285
 40
0.5714285714285714
 40
0.5714285714285714
 40
0.5714285714285714
 40
0.7142857142857142
 40
0.7142857142857142
 40
0.7142857142857142
 40
0.8571428571428571
 40
0.8571428571428571
 40
0.8571428571428571
 40
1.0
 40
1.0
 40
1.0
 40
1.0
 10
-53.9246
 20
589.9686
 30
0.0
 10
-53.9246
 20
589.9686
 30
0.0
 10
-346.2002
 20
589.9686
 30
0.0
 10
-346.2002
 20
589.9686
 30
0.0
 10
-337.7043
 20
573.2409
 30
0.0
 10
-331.4933
 20
553.6094
 30
0.0
 10
-328.0102
 20
532.4599
 30
0.0
 10
-326.0733
 20
520.0678
 30
0.0
 10
-325.1706
 20
507.2758
 30
0.0
 10
-325.306
 20
494.46
 30
0.0
 10
-325.4432
 20
481.6697
 30
0.0
 10
-326.3583
 20
468.9319
 30
0.0
 10
-328.0102
 20
456.4474
 30
0.0
 10
-286.5421
 20
488.5268
 30
0.0
 10
-243.1638
 20
513.2091
 30
0.0
 10
-198.6082
 20
530.1328
 30
0.0
 10
-177.2623
 20
538.245
 30
0.0
 10
-155.9439
 20
546.6233
 30
0.0
 10
-134.6665
 20
555.2722
 30
0.0
 10
-107.7318
 20
566.7915
 30
0.0
 10
-80.8144
 20
578.3427
 30
0.0
 10
-53.9188
 20
589.9686
 30
0.0
  0
SPLINE
  5
65
330
1F
100
AcDbEntity
  8
Layer 1
 62
   250
370
    20
100
AcDbSpline
210
0.0
220
0.0
230
1.0
 70
    11
 71
     3
 72
    68
 73
    64
 74
     0
 42
0.0000000001
 43
0.0000000001
 40
0.0
 40
0.0
 40
0.0
 40
0.0
 40
0.0476190476190476
 40
0.0476190476190476
 40
0.0476190476190476
 40
0.0952380952380952
 40
0.0952380952380952
 40
0.0952380952380952
 40
0.1428571428571428
 40
0.1428571428571428
 40
0.1428571428571428
 40
0.1904761904761905
 40
0.1904761904761905
 40
0.1904761904761905
 40
0.2380952380952381
 40
0.2380952380952381
 40
0.2380952380952381
 40
0.2857142857142857
 40
0.2857142857142857
 40
0.2857142857142857
 40
0.3333333333333333
 40
0.3333333333333333
 40
0.3333333333333333
 40
0.3809523809523809
 40
0.3809523809523809
 40
0.3809523809523809
 40
0.4285714285714285
 40
0.4285714285714285
 40
0.4285714285714285
 40
0.4761904761904762
 40
0.4761904761904762
 40
0.4761904761904762
 40
0.5238095238095237
 40
0.5238095238095237
 40
0.5238095238095237
 40
0.5714285714285714
 40
0.5714285714285714
 40
0.5714285714285714
 40
0.6190476190476191
 40
0.6190476190476191
 40
0.6190476190476191
 40
0.6666666666666666
 40
0.6666666666666666
 40
0.6666666666666666
 40
0.7142857142857142
 40
0.7142857142857142
 40
0.7142857142857142
 40
0.7619047619047619
 40
0.7619047619047619
 40
0.7619047619047619
 40
0.8095238095238095
 40
0.8095238095238095
 40
0.8095238095238095
 40
0.8571428571428571
 40
0.8571428571428571
 40
0.8571428571428571
 40
0.9047619047619047
 40
0.9047619047619047
 40
0.9047619047619047
 40
0.9523809523809523
 40
0.9523809523809523
 40
0.9523809523809523
 40
1.0
 40
1.0
 40
1.0
 40
1.0
 10
-544.104
 20
-590.0266
 30
0.0
 10
-544.104
 20
-590.0266
 30
0.0
 10
-762.6161
 20
-590.0266
 30
0.0
 10
-762.6161
 20
-590.0266
 30
0.0
 10
-762.516
 20
-582.3492
 30
0.0
 10
-761.6448
 20
-574.7435
 30
0.0
 10
-760.0673
 20
-567.536
 30
0.0
 10
-758.4888
 20
-560.3906
 30
0.0
 10
-756.6271
 20
-553.387
 30
0.0
 10
-754.4919
 20
-546.6494
 30
0.0
 10
-752.3139
 20
-539.7779
 30
0.0
 10
-749.0205
 20
-534.1011
 30
0.0
 10
-744.9885
 20
-530.2544
 30
0.0
 10
-740.5847
 20
-526.1036
 30
0.0
 10
-735.4727
 20
-524.5028
 30
0.0
 10
-730.4655
 20
-525.7054
 30
0.0
 10
-722.1307
 20
-527.6821
 30
0.0
 10
-713.7016
 20
-528.2698
 30
0.0
 10
-705.2981
 20
-527.4622
 30
0.0
 10
-686.9776
 20
-525.7149
 30
0.0
 10
-669.859
 20
-511.7316
 30
0.0
 10
-657.7772
 20
-488.6564
 30
0.0
 10
-645.7507
 20
-465.6275
 30
0.0
 10
-639.4938
 20
-435.7621
 30
0.0
 10
-640.3336
 20
-405.2309
 30
0.0
 10
-641.1067
 20
-377.2404
 30
0.0
 10
-649.2947
 20
-351.2806
 30
0.0
 10
-662.69
 20
-334.4126
 30
0.0
 10
-669.9658
 20
-325.2523
 30
0.0
 10
-679.3062
 20
-322.0571
 30
0.0
 10
-688.151
 20
-325.7285
 30
0.0
 10
-687.0157
 20
-333.9523
 30
0.0
 10
-685.3486
 20
-341.9419
 30
0.0
 10
-683.1771
 20
-349.538
 30
0.0
 10
-681.0125
 20
-357.1326
 30
0.0
 10
-678.9021
 20
-364.7622
 30
0.0
 10
-676.8727
 20
-372.4364
 30
0.0
 10
-673.0437
 20
-386.8753
 30
0.0
 10
-672.181
 20
-403.0233
 30
0.0
 10
-674.4077
 20
-418.3351
 30
0.0
 10
-676.6792
 20
-433.8969
 30
0.0
 10
-682.6567
 20
-447.2097
 30
0.0
 10
-690.9667
 20
-455.1817
 30
0.0
 10
-700.3406
 20
-464.1955
 30
0.0
 10
-711.2795
 20
-467.5882
 30
0.0
 10
-721.9668
 20
-464.8103
 30
0.0
 10
-732.7628
 20
-462.0117
 30
0.0
 10
-742.453
 20
-452.0853
 30
0.0
 10
-748.8347
 20
-437.2418
 30
0.0
 10
-758.746
 20
-414.3291
 30
0.0
 10
-761.517
 20
-384.8795
 30
0.0
 10
-756.3307
 20
-357.9672
 30
0.0
 10
-746.3287
 20
-306.027
 30
0.0
 10
-717.3924
 20
-270.7556
 30
0.0
 10
-684.7328
 20
-270.6202
 30
0.0
 10
-666.3951
 20
-270.5757
 30
0.0
 10
-648.2175
 20
-276.5885
 30
0.0
 10
-631.2925
 20
-288.3754
 30
0.0
 10
-590.81
 20
-316.4711
 30
0.0
 10
-559.5116
 20
-372.3806
 30
0.0
 10
-545.407
 20
-441.7256
 30
0.0
 10
-536.3621
 20
-489.8861
 30
0.0
 10
-535.9084
 20
-541.4376
 30
0.0
 10
-544.104
 20
-590.0266
 30
0.0
  0
SPLINE
  5
66
330
1F
100
AcDbEntity
  8
Layer 1
 62
   250
370
    20
100
AcDbSpline
210
0.0
220
0.0
230
1.0
 70
    11
 71
     3
 72
    53
 73
    49
 74
     0
 42
0.0000000001
 43
0.0000000001
 40
0.0
 40
0.0
 40
0.0
 40
0.0
 40
0.0625
 40
0.0625
 40
0.0625
 40
0.125
 40
0.125
 40
0.125
 40
0.1875
 40
0.1875
 40
0.1875
 40
0.25
 40
0.25
 40
0.25
 40
0.3125
 40
0.3125
 40
0.3125
 40
0.375
 40
0.375
 40
0.375
 40
0.4375
 40
0.4375
 40
0.4375
 40
0.5
 40
0.5
 40
0.5
 40
0.5625
 40
0.5625
 40
0.5625
 40
0.625
 40
0.625
 40
0.625
 40
0.6875
 40
0.6875
 40
0.6875
 40
0.75
 40
0.75
 40
0.75
 40
0.8125
 40
0.8125
 40
0.8125
 40
0.875
 40
0.875
 40
0.875
 40
0.9375
 40
0.9375
 40
0.9375
 40
1.0
 40
1.0
 40
1.0
 40
1.0
 10
813.9088
 20
-299.3276
 30
0.0
 10
815.8362
 20
-276.1298
 30
0.0
 10
815.3739
 20
-252.5656
 30
0.0
 10
812.5573
 20
-229.6402
 30
0.0
 10
809.7605
 20
-206.7689
 30
0.0
 10
805.1966
 20
-184.6192
 30
0.0
 10
798.9712
 20
-163.7118
 30
0.0
 10
792.1568
 20
-140.7848
 30
0.0
 10
782.3512
 20
-120.7153
 30
0.0
 10
770.2684
 20
-104.9798
 30
0.0
 10
765.2307
 20
-98.4254
 30
0.0
 10
759.6268
 20
-93.2376
 30
0.0
 10
753.6274
 20
-89.5741
 30
0.0
 10
761.6266
 20
-81.7884
 30
0.0
 10
768.4631
 20
-71.1037
 30
0.0
 10
773.6885
 20
-58.3373
 30
0.0
 10
778.9645
 20
-45.4402
 30
0.0
 10
781.7574
 20
-30.1571
 30
0.0
 10
781.6858
 20
-14.5316
 30
0.0
 10
781.6382
 20
-3.4567
 30
0.0
 10
780.7918
 20
7.5465
 30
0.0
 10
779.1627
 20
18.2741
 30
0.0
 10
777.5137
 20
15.7494
 30
0.0
 10
775.714
 20
13.4988
 30
0.0
 10
773.8029
 20
11.5556
 30
0.0
 10
766.5947
 20
4.3083
 30
0.0
 10
759.1226
 20
-2.1363
 30
0.0
 10
751.4121
 20
-7.8003
 30
0.0
 10
740.6057
 20
-15.6992
 30
0.0
 10
728.0177
 20
-12.1599
 30
0.0
 10
719.3512
 20
1.1927
 30
0.0
 10
710.3968
 20
14.9992
 30
0.0
 10
708.4322
 20
37.4182
 30
0.0
 10
714.6414
 20
54.9503
 30
0.0
 10
724.6501
 20
83.2404
 30
0.0
 10
742.9201
 20
100.5002
 30
0.0
 10
762.5971
 20
100.2899
 30
0.0
 10
794.2033
 20
99.9315
 30
0.0
 10
823.6792
 20
73.4923
 30
0.0
 10
841.3477
 20
29.7073
 30
0.0
 10
867.1671
 20
-34.3224
 30
0.0
 10
874.3876
 20
-114.422
 30
0.0
 10
861.0476
 20
-188.3543
 30
0.0
 10
859.979
 20
-194.2876
 30
0.0
 10
858.7303
 20
-200.1157
 30
0.0
 10
857.31
 20
-205.8451
 30
0.0
 10
848.0078
 20
-242.8287
 30
0.0
 10
833.0272
 20
-275.0705
 30
0.0
 10
813.9088
 20
-299.3276
 30
0.0
  0
SPLINE
  5
67
330
1F
100
AcDbEntity
  8
Layer 1
 62
   250
370
    20
100
AcDbSpline
210
0.0
220
0.0
230
1.0
 70
    11
 71
     3
 72
    68
 73
    64
 74
     0
 42
0.0000000001
 43
0.0000000001
 40
0.0
 40
0.0
 40
0.0
 40
0.0
 40
0.0476190476190476
 40
0.0476190476190476
 40
0.0476190476190476
 40
0.0952380952380952
 40
0.0952380952380952
 40
0.0952380952380952
 40
0.1428571428571428
 40
0.1428571428571428
 40
0.1428571428571428
 40
0.1904761904761905
 40
0.1904761904761905
 40
0.1904761904761905
 40
0.2380952380952381
 40
0.2380952380952381
 40
0.2380952380952381
 40
0.2857142857142857
 40
0.2857142857142857
 40
0.2857142857142857
 40
0.3333333333333333
 40
0.3333333333333333
 40
0.3333333333333333
 40
0.3809523809523809
 40
0.3809523809523809
 40
0.3809523809523809
 40
0.4285714285714285
 40
0.4285714285714285
 40
0.4285714285714285
 40
0.4761904761904762
 40
0.4761904761904762
 40
0.4761904761904762
 40
0.5238095238095237
 40
0.5238095238095237
 40
0.5238095238095237
 40
0.5714285714285714
 40
0.5714285714285714
 40
0.5714285714285714
 40
0.6190476190476191
 40
0.6190476190476191
 40
0.6190476190476191
 40
0.6666666666666666
 40
0.6666666666666666
 40
0.6666666666666666
 40
0.7142857142857142
 40
0.7142857142857142
 40
0.7142857142857142
 40
0.7619047619047619
 40
0.7619047619047619
 40
0.7619047619047619
 40
0.8095238095238095
 40
0.8095238095238095
 40
0.8095238095238095
 40
0.8571428571428571
 40
0.8571428571428571
 40
0.8571428571428571
 40
0.9047619047619047
 40
0.9047619047619047
 40
0.9047619047619047
 40
0.9523809523809523
 40
0.9523809523809523
 40
0.9523809523809523
 40
1.0
 40
1.0
 40
1.0
 40
1.0
 10
718.3942
 20
589.9686
 30
0.0
 10
718.3942
 20
589.9686
 30
0.0
 10
888.5265
 20
589.9686
 30
0.0
 10
888.5265
 20
589.9686
 30
0.0
 10
874.4143
 20
588.4172
 30
0.0
 10
861.0075
 20
579.1152
 30
0.0
 10
850.3955
 20
563.4785
 30
0.0
 10
839.9103
 20
548.0074
 30
0.0
 10
831.9149
 20
528.4205
 30
0.0
 10
827.1441
 20
506.4587
 30
0.0
 10
825.9869
 20
498.5392
 30
0.0
 10
825.5188
 20
490.3904
 30
0.0
 10
825.7486
 20
482.2511
 30
0.0
 10
826.2785
 20
463.6247
 30
0.0
 10
828.164
 20
445.1926
 30
0.0
 10
831.382
 20
427.3593
 30
0.0
 10
832.8395
 20
419.2885
 30
0.0
 10
835.4007
 20
411.917
 30
0.0
 10
838.8713
 20
405.826
 30
0.0
 10
847.1098
 20
391.3521
 30
0.0
 10
859.3328
 20
385.3742
 30
0.0
 10
870.9323
 20
390.1336
 30
0.0
 10
875.072
 20
391.9557
 30
0.0
 10
878.902
 20
395.2625
 30
0.0
 10
882.2077
 20
399.8211
 30
0.0
 10
885.4677
 20
404.3431
 30
0.0
 10
888.3235
 20
409.6281
 30
0.0
 10
890.6902
 20
415.504
 30
0.0
 10
885.2598
 20
417.2147
 30
0.0
 10
880.449
 20
422.5299
 30
0.0
 10
877.3892
 20
430.2216
 30
0.0
 10
874.3686
 20
437.7955
 30
0.0
 10
872.8282
 20
446.7471
 30
0.0
 10
872.9626
 20
455.8453
 30
0.0
 10
873.1504
 20
463.9862
 30
0.0
 10
874.9052
 20
471.8293
 30
0.0
 10
877.9488
 20
478.2133
 30
0.0
 10
885.2741
 20
493.533
 30
0.0
 10
896.5811
 20
501.9717
 30
0.0
 10
908.2882
 20
500.8664
 30
0.0
 10
914.1333
 20
500.3327
 30
0.0
 10
919.5065
 20
495.4348
 30
0.0
 10
922.9542
 20
487.5567
 30
0.0
 10
927.481
 20
477.1923
 30
0.0
 10
931.2662
 20
465.9709
 30
0.0
 10
934.2125
 20
454.1457
 30
0.0
 10
936.2733
 20
445.8583
 30
0.0
 10
937.4991
 20
437.0644
 30
0.0
 10
937.8442
 20
428.1271
 30
0.0
 10
938.867
 20
391.188
 30
0.0
 10
925.8997
 20
357.1224
 30
0.0
 10
905.4582
 20
342.9814
 30
0.0
 10
881.1353
 20
326.1931
 30
0.0
 10
853.8022
 20
326.1453
 30
0.0
 10
829.4651
 20
342.8906
 30
0.0
 10
812.4704
 20
354.558
 30
0.0
 10
796.6273
 20
370.4798
 30
0.0
 10
782.4837
 20
390.0651
 30
0.0
 10
763.1842
 20
416.8197
 30
0.0
 10
747.382
 20
449.9344
 30
0.0
 10
736.0732
 20
487.321
 30
0.0
 10
726.5269
 20
519.4577
 30
0.0
 10
720.5303
 20
554.2529
 30
0.0
 10
718.3942
 20
589.9686
 30
0.0
  0
SPLINE
  5
68
330
1F
100
AcDbEntity
  8
Layer 1
 62
   250
370
    20
100
AcDbSpline
210
0.0
220
0.0
230
1.0
 70
    11
 71
     3
 72
    35
 73
    31
 74
     0
 42
0.0000000001
 43
0.0000000001
 40
0.0
 40
0.0
 40
0.0
 40
0.0
 40
0.1
 40
0.1
 40
0.1
 40
0.2
 40
0.2
 40
0.2
 40
0.3
 40
0.3
 40
0.3
 40
0.4
 40
0.4
 40
0.4
 40
0.5
 40
0.5
 40
0.5
 40
0.6000000000000001
 40
0.6000000000000001
 40
0.6000000000000001
 40
0.7000000000000001
 40
0.7000000000000001
 40
0.7000000000000001
 40
0.8
 40
0.8
 40
0.8
 40
0.9
 40
0.9
 40
0.9
 40
1.0
 40
1.0
 40
1.0
 40
1.0
 10
912.9895
 20
589.9686
 30
0.0
 10
912.9895
 20
589.9686
 30
0.0
 10
1199.95
 20
589.9686
 30
0.0
 10
1199.95
 20
589.9686
 30
0.0
 10
1199.95
 20
589.9686
 30
0.0
 10
1199.95
 20
430.5243
 30
0.0
 10
1199.95
 20
430.5243
 30
0.0
 10
1192.1672
 20
454.3337
 30
0.0
 10
1180.8507
 20
474.4112
 30
0.0
 10
1167.075
 20
488.788
 30
0.0
 10
1155.0084
 20
501.118
 30
0.0
 10
1141.4568
 20
508.7906
 30
0.0
 10
1127.3752
 20
511.2897
 30
0.0
 10
1104.2485
 20
515.3658
 30
0.0
 10
1080.8465
 20
511.054
 30
0.0
 10
1058.8065
 20
498.6603
 30
0.0
 10
1039.3526
 20
487.7096
 30
0.0
 10
1020.5736
 20
473.7104
 30
0.0
 10
1002.7143
 20
456.8042
 30
0.0
 10
996.6215
 20
451.0461
 30
0.0
 10
990.7803
 20
444.5745
 30
0.0
 10
985.225
 20
437.4308
 30
0.0
 10
986.0133
 20
464.48
 30
0.0
 10
980.8155
 20
491.0641
 30
0.0
 10
970.601
 20
512.0973
 30
0.0
 10
958.502
 20
537.0504
 30
0.0
 10
944.1754
 20
558.7127
 30
0.0
 10
928.1168
 20
576.3198
 30
0.0
 10
923.3117
 20
581.5809
 30
0.0
 10
918.2655
 20
586.1363
 30
0.0
 10
912.9895
 20
589.9686
 30
0.0
  0
SPLINE
  5
69
330
1F
100
AcDbEntity
  8
Layer 1
 62
   250
370
    20
100
AcDbSpline
210
0.0
220
0.0
230
1.0
 70
    11
 71
     3
 72
    92
 73
    88
 74
     0
 42
0.0000000001
 43
0.0000000001
 40
0.0
 40
0.0
 40
0.0
 40
0.0
 40
0.0344827586206897
 40
0.0344827586206897
 40
0.0344827586206897
 40
0.0689655172413793
 40
0.0689655172413793
 40
0.0689655172413793
 40
0.103448275862069
 40
0.103448275862069
 40
0.103448275862069
 40
0.1379310344827586
 40
0.1379310344827586
 40
0.1379310344827586
 40
0.1724137931034483
 40
0.1724137931034483
 40
0.1724137931034483
 40
0.2068965517241379
 40
0.2068965517241379
 40
0.2068965517241379
 40
0.2413793103448276
 40
0.2413793103448276
 40
0.2413793103448276
 40
0.2758620689655172
 40
0.2758620689655172
 40
0.2758620689655172
 40
0.3103448275862069
 40
0.3103448275862069
 40
0.3103448275862069
 40
0.3448275862068966
 40
0.3448275862068966
 40
0.3448275862068966
 40
0.3793103448275862
 40
0.3793103448275862
 40
0.3793103448275862
 40
0.4137931034482759
 40
0.4137931034482759
 40
0.4137931034482759
 40
0.4482758620689655
 40
0.4482758620689655
 40
0.4482758620689655
 40
0.4827586206896551
 40
0.4827586206896551
 40
0.4827586206896551
 40
0.5172413793103449
 40
0.5172413793103449
 40
0.5172413793103449
 40
0.5517241379310345
 40
0.5517241379310345
 40
0.5517241379310345
 40
0.5862068965517241
 40
0.5862068965517241
 40
0.5862068965517241
 40
0.6206896551724138
 40
0.6206896551724138
 40
0.6206896551724138
 40
0.6551724137931034
 40
0.6551724137931034
 40
0.6551724137931034
 40
0.6896551724137931
 40
0.6896551724137931
 40
0.6896551724137931
 40
0.7241379310344828
 40
0.7241379310344828
 40
0.7241379310344828
 40
0.7586206896551724
 40
0.7586206896551724
 40
0.7586206896551724
 40
0.7931034482758621
 40
0.7931034482758621
 40
0.7931034482758621
 40
0.8275862068965517
 40
0.8275862068965517
 40
0.8275862068965517
 40
0.8620689655172413
 40
0.8620689655172413
 40
0.8620689655172413
 40
0.896551724137931
 40
0.896551724137931
 40
0.896551724137931
 40
0.9310344827586207
 40
0.9310344827586207
 40
0.9310344827586207
 40
0.9655172413793103
 40
0.9655172413793103
 40
0.9655172413793103
 40
1.0
 40
1.0
 40
1.0
 40
1.0
 10
1199.95
 20
-82.3029
 30
0.0
 10
1186.5471
 20
-62.2604
 30
0.0
 10
1171.7591
 20
-44.9895
 30
0.0
 10
1155.9026
 20
-30.7959
 30
0.0
 10
1148.5247
 20
-24.1889
 30
0.0
 10
1140.3968
 20
-20.269
 30
0.0
 10
1132.0601
 20
-19.2702
 30
0.0
 10
1134.9388
 20
1.3377
 30
0.0
 10
1135.7242
 20
22.5875
 30
0.0
 10
1134.3887
 20
43.6254
 30
0.0
 10
1133.0572
 20
64.5885
 30
0.0
 10
1130.128
 20
85.1789
 30
0.0
 10
1125.6746
 20
104.9298
 30
0.0
 10
1118.2806
 20
137.7339
 30
0.0
 10
1102.0486
 20
162.7619
 30
0.0
 10
1081.873
 20
172.4064
 30
0.0
 10
1054.5886
 20
185.4739
 30
0.0
 10
1025.5569
 20
183.9639
 30
0.0
 10
998.8148
 20
168.0278
 30
0.0
 10
984.2671
 20
158.885
 30
0.0
 10
970.703
 20
145.9067
 30
0.0
 10
958.6192
 20
129.5818
 30
0.0
 10
946.5746
 20
113.3144
 30
0.0
 10
935.71
 20
94.7628
 30
0.0
 10
926.2113
 20
74.3015
 30
0.0
 10
924.6214
 20
80.2109
 30
0.0
 10
923.5834
 20
86.5009
 30
0.0
 10
923.1315
 20
92.9422
 30
0.0
 10
920.3987
 20
131.6287
 30
0.0
 10
921.8657
 20
170.8422
 30
0.0
 10
927.4438
 20
208.6653
 30
0.0
 10
935.6604
 20
264.3646
 30
0.0
 10
955.0495
 20
313.7356
 30
0.0
 10
982.3445
 20
348.5084
 30
0.0
 10
1009.1857
 20
382.7031
 30
0.0
 10
1040.1638
 20
406.7626
 30
0.0
 10
1073.0978
 20
419.0225
 30
0.0
 10
1099.5931
 20
428.8805
 30
0.0
 10
1127.2054
 20
426.856
 30
0.0
 10
1153.0906
 20
413.11
 30
0.0
 10
1166.9092
 20
405.7846
 30
0.0
 10
1177.5307
 20
387.0785
 30
0.0
 10
1181.1882
 20
363.6147
 30
0.0
 10
1183.4139
 20
349.3734
 30
0.0
 10
1183.9515
 20
334.5363
 30
0.0
 10
1182.8077
 20
319.9237
 30
0.0
 10
1181.5971
 20
304.6517
 30
0.0
 10
1176.1028
 20
291.2259
 30
0.0
 10
1168.0397
 20
283.7731
 30
0.0
 10
1150.436
 20
267.52
 30
0.0
 10
1128.906
 20
268.7178
 30
0.0
 10
1111.9819
 20
286.8696
 30
0.0
 10
1104.1189
 20
295.3115
 30
0.0
 10
1098.3292
 20
308.2149
 30
0.0
 10
1095.6926
 20
323.2018
 30
0.0
 10
1093.4297
 20
336.5925
 30
0.0
 10
1093.9931
 20
350.8785
 30
0.0
 10
1097.231
 20
363.6848
 30
0.0
 10
1099.2242
 20
371.5565
 30
0.0
 10
1102.2726
 20
378.5554
 30
0.0
 10
1106.1245
 20
384.1924
 30
0.0
 10
1102.7215
 20
386.0002
 30
0.0
 10
1099.1518
 20
386.6915
 30
0.0
 10
1095.6011
 20
386.2678
 30
0.0
 10
1086.1825
 20
385.1146
 30
0.0
 10
1077.1214
 20
379.8934
 30
0.0
 10
1069.3003
 20
371.1026
 30
0.0
 10
1055.7916
 20
355.8832
 30
0.0
 10
1048.4509
 20
329.4313
 30
0.0
 10
1050.2525
 20
302.3741
 30
0.0
 10
1053.2322
 20
257.9217
 30
0.0
 10
1071.3154
 20
220.3614
 30
0.0
 10
1096.6868
 20
206.0356
 30
0.0
 10
1102.6872
 20
202.662
 30
0.0
 10
1108.9088
 20
200.6057
 30
0.0
 10
1115.2351
 20
199.9446
 30
0.0
 10
1121.5415
 20
199.282
 30
0.0
 10
1127.8708
 20
199.5592
 30
0.0
 10
1134.1562
 20
200.7601
 30
0.0
 10
1146.2857
 20
203.1908
 30
0.0
 10
1158.1578
 20
208.4487
 30
0.0
 10
1169.418
 20
216.3889
 30
0.0
 10
1180.7211
 20
224.3387
 30
0.0
 10
1191.0738
 20
235.6461
 30
0.0
 10
1199.95
 20
249.7967
 30
0.0
 10
1199.95
 20
249.7967
 30
0.0
 10
1199.95
 20
-82.3029
 30
0.0
 10
1199.95
 20
-82.3029
 30
0.0
  0
SPLINE
  5
6A
330
1F
100
AcDbEntity
  8
Layer 1
 62
   250
370
    20
100
AcDbSpline
210
0.0
220
0.0
230
1.0
 70
     8
 71
     3
 72
    38
 73
    34
 74
     0
 42
0.0000000001
 43
0.0000000001
 40
0.0
 40
0.0
 40
0.0
 40
0.0
 40
0.0909090909090909
 40
0.0909090909090909
 40
0.0909090909090909
 40
0.1818181818181818
 40
0.1818181818181818
 40
0.1818181818181818
 40
0.2727272727272727
 40
0.2727272727272727
 40
0.2727272727272727
 40
0.3636363636363636
 40
0.3636363636363636
 40
0.3636363636363636
 40
0.4545454545454546
 40
0.4545454545454546
 40
0.4545454545454546
 40
0.5454545454545454
 40
0.5454545454545454
 40
0.5454545454545454
 40
0.6363636363636364
 40
0.6363636363636364
 40
0.6363636363636364
 40
0.7272727272727273
 40
0.7272727272727273
 40
0.7272727272727273
 40
0.8181818181818182
 40
0.8181818181818182
 40
0.8181818181818182
 40
0.9090909090909092
 40
0.9090909090909092
 40
0.9090909090909092
 40
1.0
 40
1.0
 40
1.0
 40
1.0
 10
916.7432
 20
-107.6924
 30
0.0
 10
916.7432
 20
-107.6924
 30
0.0
 10
917.2713
 20
-92.293
 30
0.0
 10
917.2713
 20
-92.293
 30
0.0
 10
917.8794
 20
-74.3244
 30
0.0
 10
920.1318
 20
-56.5995
 30
0.0
 10
923.9494
 20
-39.7523
 30
0.0
 10
934.712
 20
7.7997
 30
0.0
 10
953.1803
 20
49.4838
 30
0.0
 10
977.2563
 20
80.5899
 30
0.0
 10
999.7108
 20
109.6318
 30
0.0
 10
1028.8254
 20
120.2065
 30
0.0
 10
1056.4874
 20
109.4072
 30
0.0
 10
1074.5611
 20
102.3256
 30
0.0
 10
1088.6284
 20
78.5926
 30
0.0
 10
1092.6986
 20
48.3465
 30
0.0
 10
1093.79
 20
39.9826
 30
0.0
 10
1094.0426
 20
31.3607
 30
0.0
 10
1093.4755
 20
22.863
 30
0.0
 10
1092.9102
 20
14.3844
 30
0.0
 10
1091.7453
 20
6.0524
 30
0.0
 10
1090.0363
 20
-1.9897
 30
0.0
 10
1060.2029
 20
6.3056
 30
0.0
 10
1029.6014
 20
0.3676
 30
0.0
 10
1001.7088
 20
-19.1508
 30
0.0
 10
987.2429
 20
-29.2524
 30
0.0
 10
973.1232
 20
-40.7319
 30
0.0
 10
959.4295
 20
-53.476
 30
0.0
 10
951.5837
 20
-60.7934
 30
0.0
 10
943.9971
 20
-68.8037
 30
0.0
 10
936.6937
 20
-77.5339
 30
0.0
 10
929.3798
 20
-86.2849
 30
0.0
 10
922.6931
 20
-96.42
 30
0.0
 10
916.7432
 20
-107.7067
 30
0.0
  0
SPLINE
  5
6B
330
1F
100
AcDbEntity
  8
Layer 1
 62
   250
370
    20
100
AcDbSpline
210
0.0
220
0.0
230
1.0
 70
    11
 71
     3
 72
    98
 73
    94
 74
     0
 42
0.0000000001
 43
0.0000000001
 40
0.0
 40
0.0
 40
0.0
 40
0.0
 40
0.032258064516129
 40
0.032258064516129
 40
0.032258064516129
 40
0.0645161290322581
 40
0.0645161290322581
 40
0.0645161290322581
 40
0.0967741935483871
 40
0.0967741935483871
 40
0.0967741935483871
 40
0.1290322580645161
 40
0.1290322580645161
 40
0.1290322580645161
 40
0.1612903225806452
 40
0.1612903225806452
 40
0.1612903225806452
 40
0.1935483870967742
 40
0.1935483870967742
 40
0.1935483870967742
 40
0.2258064516129032
 40
0.2258064516129032
 40
0.2258064516129032
 40
0.2580645161290323
 40
0.2580645161290323
 40
0.2580645161290323
 40
0.2903225806451613
 40
0.2903225806451613
 40
0.2903225806451613
 40
0.3225806451612903
 40
0.3225806451612903
 40
0.3225806451612903
 40
0.3548387096774194
 40
0.3548387096774194
 40
0.3548387096774194
 40
0.3870967741935484
 40
0.3870967741935484
 40
0.3870967741935484
 40
0.4193548387096774
 40
0.4193548387096774
 40
0.4193548387096774
 40
0.4516129032258064
 40
0.4516129032258064
 40
0.4516129032258064
 40
0.4838709677419355
 40
0.4838709677419355
 40
0.4838709677419355
 40
0.5161290322580645
 40
0.5161290322580645
 40
0.5161290322580645
 40
0.5483870967741935
 40
0.5483870967741935
 40
0.5483870967741935
 40
0.5806451612903225
 40
0.5806451612903225
 40
0.5806451612903225
 40
0.6129032258064516
 40
0.6129032258064516
 40
0.6129032258064516
 40
0.6451612903225806
 40
0.6451612903225806
 40
0.6451612903225806
 40
0.6774193548387096
 40
0.6774193548387096
 40
0.6774193548387096
 40
0.7096774193548387
 40
0.7096774193548387
 40
0.7096774193548387
 40
0.7419354838709677
 40
0.7419354838709677
 40
0.7419354838709677
 40
0.7741935483870968
 40
0.7741935483870968
 40
0.7741935483870968
 40
0.8064516129032258
 40
0.8064516129032258
 40
0.8064516129032258
 40
0.8387096774193548
 40
0.8387096774193548
 40
0.8387096774193548
 40
0.8709677419354839
 40
0.8709677419354839
 40
0.8709677419354839
 40
0.9032258064516129
 40
0.9032258064516129
 40
0.9032258064516129
 40
0.9354838709677419
 40
0.9354838709677419
 40
0.9354838709677419
 40
0.967741935483871
 40
0.967741935483871
 40
0.967741935483871
 40
1.0
 40
1.0
 40
1.0
 40
1.0
 10
1199.95
 20
-476.027
 30
0.0
 10
1199.95
 20
-476.027
 30
0.0
 10
1199.95
 20
-590.0266
 30
0.0
 10
1199.95
 20
-590.0266
 30
0.0
 10
1199.95
 20
-590.0266
 30
0.0
 10
1000.4305
 20
-590.0266
 30
0.0
 10
1000.4305
 20
-590.0266
 30
0.0
 10
1008.1982
 20
-581.0367
 30
0.0
 10
1015.2824
 20
-570.5353
 30
0.0
 10
1021.5468
 20
-558.75
 30
0.0
 10
1046.6836
 20
-511.4178
 30
0.0
 10
1053.377
 20
-444.2773
 30
0.0
 10
1038.7293
 20
-385.91
 30
0.0
 10
1032.3494
 20
-360.6081
 30
0.0
 10
1022.4171
 20
-338.2243
 30
0.0
 10
1009.7605
 20
-320.7096
 30
0.0
 10
987.9083
 20
-290.4397
 30
0.0
 10
962.3062
 20
-268.6801
 30
0.0
 10
934.8169
 20
-256.9857
 30
0.0
 10
922.1888
 20
-251.6067
 30
0.0
 10
909.2348
 20
-248.762
 30
0.0
 10
896.216
 20
-248.4912
 30
0.0
 10
908.3178
 20
-219.2678
 30
0.0
 10
921.5101
 20
-191.3584
 30
0.0
 10
935.7185
 20
-164.9271
 30
0.0
 10
953.2899
 20
-132.2154
 30
0.0
 10
975.7807
 20
-107.9281
 30
0.0
 10
1000.847
 20
-94.566
 30
0.0
 10
1040.8577
 20
-73.2286
 30
0.0
 10
1084.0025
 20
-74.6239
 30
0.0
 10
1123.5042
 20
-98.4222
 30
0.0
 10
1150.7095
 20
-114.8282
 30
0.0
 10
1176.4336
 20
-137.4064
 30
0.0
 10
1199.95
 20
-165.5276
 30
0.0
 10
1199.95
 20
-165.5276
 30
0.0
 10
1199.95
 20
-373.373
 30
0.0
 10
1199.95
 20
-373.373
 30
0.0
 10
1189.4324
 20
-388.0922
 30
0.0
 10
1176.7224
 20
-397.8148
 30
0.0
 10
1163.185
 20
-401.5324
 30
0.0
 10
1155.2963
 20
-403.5935
 30
0.0
 10
1147.2599
 20
-403.49
 30
0.0
 10
1139.3998
 20
-401.2505
 30
0.0
 10
1126.9195
 20
-397.7144
 30
0.0
 10
1116.3837
 20
-383.7247
 30
0.0
 10
1111.4862
 20
-364.2158
 30
0.0
 10
1107.7849
 20
-349.4345
 30
0.0
 10
1106.3427
 20
-333.3183
 30
0.0
 10
1107.3083
 20
-317.3822
 30
0.0
 10
1108.2901
 20
-301.0033
 30
0.0
 10
1113.2468
 20
-286.0132
 30
0.0
 10
1121.0163
 20
-275.9148
 30
0.0
 10
1126.7012
 20
-268.4907
 30
0.0
 10
1134.6776
 20
-268.454
 30
0.0
 10
1140.4045
 20
-275.7841
 30
0.0
 10
1147.4772
 20
-284.825
 30
0.0
 10
1153.9581
 20
-295.1719
 30
0.0
 10
1159.6896
 20
-306.5717
 30
0.0
 10
1161.9297
 20
-310.9998
 30
0.0
 10
1163.8703
 20
-315.8101
 30
0.0
 10
1165.5061
 20
-320.9151
 30
0.0
 10
1169.0405
 20
-319.2331
 30
0.0
 10
1172.4282
 20
-316.7865
 30
0.0
 10
1175.5967
 20
-313.6996
 30
0.0
 10
1184.8094
 20
-304.7671
 30
0.0
 10
1189.9385
 20
-287.5344
 30
0.0
 10
1188.6488
 20
-269.8812
 30
0.0
 10
1187.2962
 20
-251.4618
 30
0.0
 10
1181.1205
 20
-235.0032
 30
0.0
 10
1171.7925
 20
-224.978
 30
0.0
 10
1162.8409
 20
-215.3669
 30
0.0
 10
1153.0429
 20
-208.1881
 30
0.0
 10
1142.7426
 20
-203.7027
 30
0.0
 10
1131.2842
 20
-198.7268
 30
0.0
 10
1119.2243
 20
-199.4387
 30
0.0
 10
1108.0156
 20
-205.7623
 30
0.0
 10
1096.9136
 20
-212.0523
 30
0.0
 10
1086.7372
 20
-222.1858
 30
0.0
 10
1078.1508
 20
-235.5113
 30
0.0
 10
1052.4534
 20
-276.0406
 30
0.0
 10
1042.9719
 20
-337.5919
 30
0.0
 10
1053.8298
 20
-393.7897
 30
0.0
 10
1057.7742
 20
-414.2097
 30
0.0
 10
1064.5152
 20
-432.8011
 30
0.0
 10
1073.5297
 20
-448.0873
 30
0.0
 10
1087.3463
 20
-471.5129
 30
0.0
 10
1105.1188
 20
-487.3009
 30
0.0
 10
1124.4726
 20
-493.3059
 30
0.0
 10
1143.6367
 20
-499.263
 30
0.0
 10
1163.3585
 20
-497.6288
 30
0.0
 10
1182.0841
 20
-488.5258
 30
0.0
 10
1188.3019
 20
-485.4994
 30
0.0
 10
1194.2995
 20
-481.3087
 30
0.0
 10
1199.95
 20
-476.027
 30
0.0
  0
SPLINE
  5
6C
330
1F
100
AcDbEntity
  8
Layer 1
 62
   250
370
    20
100
AcDbSpline
210
0.0
220
0.0
230
1.0
 70
    11
 71
     3
 72
   101
 73
    97
 74
     0
 42
0.0000000001
 43
0.0000000001
 40
0.0
 40
0.0
 40
0.0
 40
0.0
 40
0.03125
 40
0.03125
 40
0.03125
 40
0.0625
 40
0.0625
 40
0.0625
 40
0.09375
 40
0.09375
 40
0.09375
 40
0.125
 40
0.125
 40
0.125
 40
0.15625
 40
0.15625
 40
0.15625
 40
0.1875
 40
0.1875
 40
0.1875
 40
0.21875
 40
0.21875
 40
0.21875
 40
0.25
 40
0.25
 40
0.25
 40
0.28125
 40
0.28125
 40
0.28125
 40
0.3125
 40
0.3125
 40
0.3125
 40
0.34375
 40
0.34375
 40
0.34375
 40
0.375
 40
0.375
 40
0.375
 40
0.40625
 40
0.40625
 40
0.40625
 40
0.4375
 40
0.4375
 40
0.4375
 40
0.46875
 40
0.46875
 40
0.46875
 40
0.5
 40
0.5
 40
0.5
 40
0.53125
 40
0.53125
 40
0.53125
 40
0.5625
 40
0.5625
 40
0.5625
 40
0.59375
 40
0.59375
 40
0.59375
 40
0.625
 40
0.625
 40
0.625
 40
0.65625
 40
0.65625
 40
0.65625
 40
0.6875
 40
0.6875
 40
0.6875
 40
0.71875
 40
0.71875
 40
0.71875
 40
0.75
 40
0.75
 40
0.75
 40
0.78125
 40
0.78125
 40
0.78125
 40
0.8125
 40
0.8125
 40
0.8125
 40
0.84375
 40
0.84375
 40
0.84375
 40
0.875
 40
0.875
 40
0.875
 40
0.90625
 40
0.90625
 40
0.90625
 40
0.9375
 40
0.9375
 40
0.9375
 40
0.96875
 40
0.96875
 40
0.96875
 40
1.0
 40
1.0
 40
1.0
 40
1.0
 10
893.0151
 20
-590.0266
 30
0.0
 10
893.0151
 20
-590.0266
 30
0.0
 10
745.3612
 20
-590.0266
 30
0.0
 10
745.3612
 20
-590.0266
 30
0.0
 10
750.5066
 20
-572.0883
 30
0.0
 10
752.9287
 20
-552.3341
 30
0.0
 10
752.4045
 20
-532.4525
 30
0.0
 10
751.5522
 20
-503.3279
 30
0.0
 10
744.3699
 20
-475.7594
 30
0.0
 10
732.167
 20
-454.9046
 30
0.0
 10
729.844
 20
-450.9177
 30
0.0
 10
727.1855
 20
-447.5537
 30
0.0
 10
724.2535
 20
-444.9096
 30
0.0
 10
729.377
 20
-443.9858
 30
0.0
 10
734.4309
 20
-442.3723
 30
0.0
 10
739.3971
 20
-440.085
 30
0.0
 10
758.6823
 20
-431.17
 30
0.0
 10
777.4346
 20
-419.3322
 30
0.0
 10
795.4463
 20
-404.777
 30
0.0
 10
815.6761
 20
-388.4267
 30
0.0
 10
833.8499
 20
-365.7641
 30
0.0
 10
848.9962
 20
-338.049
 30
0.0
 10
858.2547
 20
-321.0871
 30
0.0
 10
871.5728
 20
-311.9427
 30
0.0
 10
885.276
 20
-313.0529
 30
0.0
 10
902.448
 20
-314.4737
 30
0.0
 10
919.4388
 20
-319.5452
 30
0.0
 10
935.8301
 20
-328.1481
 30
0.0
 10
952.4826
 20
-336.8815
 30
0.0
 10
967.3115
 20
-353.407
 30
0.0
 10
978.5373
 20
-375.767
 30
0.0
 10
985.5911
 20
-389.7933
 30
0.0
 10
990.7756
 20
-406.1946
 30
0.0
 10
993.7457
 20
-423.851
 30
0.0
 10
996.7426
 20
-441.6412
 30
0.0
 10
996.6826
 20
-460.4842
 30
0.0
 10
993.5951
 20
-478.2394
 30
0.0
 10
988.851
 20
-504.2676
 30
0.0
 10
977.9016
 20
-525.8965
 30
0.0
 10
963.3271
 20
-538.0625
 30
0.0
 10
954.7359
 20
-545.2286
 30
0.0
 10
945.2077
 20
-548.7901
 30
0.0
 10
935.6061
 20
-548.419
 30
0.0
 10
925.8824
 20
-548.0685
 30
0.0
 10
916.502
 20
-542.3934
 30
0.0
 10
908.8783
 20
-532.314
 30
0.0
 10
901.8456
 20
-523.0246
 30
0.0
 10
895.6278
 20
-512.1361
 30
0.0
 10
890.4215
 20
-499.9638
 30
0.0
 10
885.3704
 20
-488.2279
 30
0.0
 10
884.3734
 20
-472.9273
 30
0.0
 10
887.7897
 20
-459.6528
 30
0.0
 10
891.2203
 20
-446.3687
 30
0.0
 10
898.6438
 20
-437.0602
 30
0.0
 10
907.2264
 20
-435.1409
 30
0.0
 10
913.4051
 20
-433.787
 30
0.0
 10
919.2682
 20
-440.085
 30
0.0
 10
921.1012
 20
-450.056
 30
0.0
 10
922.1745
 20
-455.9065
 30
0.0
 10
923.9494
 20
-461.3523
 30
0.0
 10
926.3086
 20
-466.0416
 30
0.0
 10
927.7707
 20
-468.9628
 30
0.0
 10
929.8935
 20
-470.699
 30
0.0
 10
932.1679
 20
-470.8535
 30
0.0
 10
934.3774
 20
-470.9682
 30
0.0
 10
936.5736
 20
-470.3326
 30
0.0
 10
938.6115
 20
-468.9628
 30
0.0
 10
947.8681
 20
-462.7508
 30
0.0
 10
953.939
 20
-447.807
 30
0.0
 10
953.9696
 20
-431.154
 30
0.0
 10
953.9839
 20
-415.0252
 30
0.0
 10
949.4208
 20
-399.8759
 30
0.0
 10
941.6446
 20
-390.3349
 30
0.0
 10
937.9462
 20
-385.8113
 30
0.0
 10
933.916
 20
-382.0761
 30
0.0
 10
929.6647
 20
-379.2282
 30
0.0
 10
915.7547
 20
-369.9165
 30
0.0
 10
900.3128
 20
-369.4196
 30
0.0
 10
886.193
 20
-377.7994
 30
0.0
 10
876.6953
 20
-383.7645
 30
0.0
 10
868.2004
 20
-393.4712
 30
0.0
 10
861.4327
 20
-406.1261
 30
0.0
 10
854.7164
 20
-418.6759
 30
0.0
 10
849.3709
 20
-433.118
 30
0.0
 10
845.6438
 20
-448.7643
 30
0.0
 10
841.5403
 20
-466.0001
 30
0.0
 10
840.3659
 20
-484.7986
 30
0.0
 10
842.2838
 20
-503.0666
 30
0.0
 10
844.173
 20
-521.2359
 30
0.0
 10
848.491
 20
-538.4416
 30
0.0
 10
854.9147
 20
-553.4173
 30
0.0
 10
859.3413
 20
-563.7148
 30
0.0
 10
864.9672
 20
-572.453
 30
0.0
 10
871.447
 20
-579.052
 30
0.0
 10
877.9688
 20
-585.6973
 30
0.0
 10
885.3828
 20
-589.4739
 30
0.0
 10
893.0151
 20
-590.0266
 30
0.0
  0
SPLINE
  5
6D
330
1F
100
AcDbEntity
  8
Layer 1
 62
   250
370
    20
100
AcDbSpline
210
0.0
220
0.0
230
1.0
 70
    11
 71
     3
 72
    98
 73
    94
 74
     0
 42
0.0000000001
 43
0.0000000001
 40
0.0
 40
0.0
 40
0.0
 40
0.0
 40
0.032258064516129
 40
0.032258064516129
 40
0.032258064516129
 40
0.0645161290322581
 40
0.0645161290322581
 40
0.0645161290322581
 40
0.0967741935483871
 40
0.0967741935483871
 40
0.0967741935483871
 40
0.1290322580645161
 40
0.1290322580645161
 40
0.1290322580645161
 40
0.1612903225806452
 40
0.1612903225806452
 40
0.1612903225806452
 40
0.1935483870967742
 40
0.1935483870967742
 40
0.1935483870967742
 40
0.2258064516129032
 40
0.2258064516129032
 40
0.2258064516129032
 40
0.2580645161290323
 40
0.2580645161290323
 40
0.2580645161290323
 40
0.2903225806451613
 40
0.2903225806451613
 40
0.2903225806451613
 40
0.3225806451612903
 40
0.3225806451612903
 40
0.3225806451612903
 40
0.3548387096774194
 40
0.3548387096774194
 40
0.3548387096774194
 40
0.3870967741935484
 40
0.3870967741935484
 40
0.3870967741935484
 40
0.4193548387096774
 40
0.4193548387096774
 40
0.4193548387096774
 40
0.4516129032258064
 40
0.4516129032258064
 40
0.4516129032258064
 40
0.4838709677419355
 40
0.4838709677419355
 40
0.4838709677419355
 40
0.5161290322580645
 40
0.5161290322580645
 40
0.5161290322580645
 40
0.5483870967741935
 40
0.5483870967741935
 40
0.5483870967741935
 40
0.5806451612903225
 40
0.5806451612903225
 40
0.5806451612903225
 40
0.6129032258064516
 40
0.6129032258064516
 40
0.6129032258064516
 40
0.6451612903225806
 40
0.6451612903225806
 40
0.6451612903225806
 40
0.6774193548387096
 40
0.6774193548387096
 40
0.6774193548387096
 40
0.7096774193548387
 40
0.7096774193548387
 40
0.7096774193548387
 40
0.7419354838709677
 40
0.7419354838709677
 40
0.7419354838709677
 40
0.7741935483870968
 40
0.7741935483870968
 40
0.7741935483870968
 40
0.8064516129032258
 40
0.8064516129032258
 40
0.8064516129032258
 40
0.8387096774193548
 40
0.8387096774193548
 40
0.8387096774193548
 40
0.8709677419354839
 40
0.8709677419354839
 40
0.8709677419354839
 40
0.9032258064516129
 40
0.9032258064516129
 40
0.9032258064516129
 40
0.9354838709677419
 40
0.9354838709677419
 40
0.9354838709677419
 40
0.967741935483871
 40
0.967741935483871
 40
0.967741935483871
 40
1.0
 40
1.0
 40
1.0
 40
1.0
 10
353.5932
 20
-55.9799
 30
0.0
 10
363.1739
 20
-72.1406
 30
0.0
 10
374.0995
 20
-85.9504
 30
0.0
 10
386.0145
 20
-96.9616
 30
0.0
 10
413.6364
 20
-122.5279
 30
0.0
 10
444.0273
 20
-138.5198
 30
0.0
 10
475.4191
 20
-144.031
 30
0.0
 10
516.1265
 20
-151.1652
 30
0.0
 10
557.0561
 20
-134.8595
 30
0.0
 10
591.4639
 20
-97.7866
 30
0.0
 10
625.3206
 20
-61.3047
 30
0.0
 10
653.7442
 20
-12.394
 30
0.0
 10
674.544
 20
45.266
 30
0.0
 10
675.2761
 20
17.7612
 30
0.0
 10
679.4196
 20
-9.1766
 30
0.0
 10
686.6878
 20
-33.878
 30
0.0
 10
687.295
 20
-35.9327
 30
0.0
 10
687.8745
 20
-38.0416
 30
0.0
 10
688.4226
 20
-40.1568
 30
0.0
 10
689.9725
 20
-46.1968
 30
0.0
 10
691.4519
 20
-52.2814
 30
0.0
 10
692.8712
 20
-58.409
 30
0.0
 10
694.2934
 20
-64.5525
 30
0.0
 10
695.7366
 20
-70.6689
 30
0.0
 10
697.195
 20
-76.7662
 30
0.0
 10
688.7992
 20
-78.9325
 30
0.0
 10
680.5854
 20
-82.76
 30
0.0
 10
672.7463
 20
-88.217
 30
0.0
 10
664.9386
 20
-93.6357
 30
0.0
 10
657.2968
 20
-99.7474
 30
0.0
 10
649.8733
 20
-106.536
 30
0.0
 10
632.2094
 20
-122.6936
 30
0.0
 10
619.9818
 20
-151.4854
 30
0.0
 10
616.6885
 20
-184.6797
 30
0.0
 10
613.4038
 20
-217.7498
 30
0.0
 10
619.0705
 20
-251.5351
 30
0.0
 10
632.1837
 20
-276.9342
 30
0.0
 10
640.1706
 20
-292.0771
 30
0.0
 10
650.3613
 20
-303.4896
 30
0.0
 10
661.7844
 20
-310.0871
 30
0.0
 10
673.1905
 20
-316.6574
 30
0.0
 10
685.4096
 20
-318.2885
 30
0.0
 10
697.3065
 20
-314.7732
 30
0.0
 10
709.0938
 20
-311.3024
 30
0.0
 10
719.9145
 20
-301.6611
 30
0.0
 10
728.2198
 20
-287.2556
 30
0.0
 10
733.3242
 20
-278.39
 30
0.0
 10
734.4747
 20
-265.0788
 30
0.0
 10
731.0556
 20
-254.1951
 30
0.0
 10
728.257
 20
-245.2721
 30
0.0
 10
721.8143
 20
-241.4445
 30
0.0
 10
716.28
 20
-245.4346
 30
0.0
 10
707.6859
 20
-251.6179
 30
0.0
 10
698.2997
 20
-254.0565
 30
0.0
 10
688.9946
 20
-252.5895
 30
0.0
 10
685.3361
 20
-252.0034
 30
0.0
 10
681.7388
 20
-250.6574
 30
0.0
 10
678.2786
 20
-248.5454
 30
0.0
 10
670.9933
 20
-244.1412
 30
0.0
 10
665.7669
 20
-233.2654
 30
0.0
 10
664.7556
 20
-220.4241
 30
0.0
 10
663.546
 20
-205.2733
 30
0.0
 10
665.665
 20
-189.893
 30
0.0
 10
670.7188
 20
-177.1616
 30
0.0
 10
675.8375
 20
-164.2502
 30
0.0
 10
684.0274
 20
-155.6394
 30
0.0
 10
693.2087
 20
-153.5225
 30
0.0
 10
707.0949
 20
-150.3401
 30
0.0
 10
721.2176
 20
-155.7015
 30
0.0
 10
732.9277
 20
-168.5715
 30
0.0
 10
744.6854
 20
-181.4877
 30
0.0
 10
753.0049
 20
-201.5237
 30
0.0
 10
756.1553
 20
-224.4428
 30
0.0
 10
759.9976
 20
-252.4398
 30
0.0
 10
757.8872
 20
-281.813
 30
0.0
 10
750.1816
 20
-307.4972
 30
0.0
 10
742.4559
 20
-333.2833
 30
0.0
 10
729.1987
 20
-353.3098
 30
0.0
 10
713.0829
 20
-363.6297
 30
0.0
 10
698.8802
 20
-372.7183
 30
0.0
 10
683.9616
 20
-378.2836
 30
0.0
 10
668.8057
 20
-380.1313
 30
0.0
 10
642.8824
 20
-383.3201
 30
0.0
 10
616.8267
 20
-378.0813
 30
0.0
 10
592.0882
 20
-364.7144
 30
0.0
 10
543.1489
 20
-338.2481
 30
0.0
 10
496.4554
 20
-301.3298
 30
0.0
 10
453.1762
 20
-254.8689
 30
0.0
 10
420.4108
 20
-219.6819
 30
0.0
 10
392.4143
 20
-173.3499
 30
0.0
 10
371.0473
 20
-118.9265
 30
0.0
 10
363.4169
 20
-99.4926
 30
0.0
 10
357.5271
 20
-78.2698
 30
0.0
 10
353.5932
 20
-55.9799
 30
0.0
  0
SPLINE
  5
6E
330
1F
100
AcDbEntity
  8
Layer 1
 62
   250
370
    20
100
AcDbSpline
210
0.0
220
0.0
230
1.0
 70
    11
 71
     3
 72
    86
 73
    82
 74
     0
 42
0.0000000001
 43
0.0000000001
 40
0.0
 40
0.0
 40
0.0
 40
0.0
 40
0.037037037037037
 40
0.037037037037037
 40
0.037037037037037
 40
0.0740740740740741
 40
0.0740740740740741
 40
0.0740740740740741
 40
0.1111111111111111
 40
0.1111111111111111
 40
0.1111111111111111
 40
0.1481481481481481
 40
0.1481481481481481
 40
0.1481481481481481
 40
0.1851851851851852
 40
0.1851851851851852
 40
0.1851851851851852
 40
0.2222222222222222
 40
0.2222222222222222
 40
0.2222222222222222
 40
0.2592592592592592
 40
0.2592592592592592
 40
0.2592592592592592
 40
0.2962962962962963
 40
0.2962962962962963
 40
0.2962962962962963
 40
0.3333333333333333
 40
0.3333333333333333
 40
0.3333333333333333
 40
0.3703703703703703
 40
0.3703703703703703
 40
0.3703703703703703
 40
0.4074074074074074
 40
0.4074074074074074
 40
0.4074074074074074
 40
0.4444444444444444
 40
0.4444444444444444
 40
0.4444444444444444
 40
0.4814814814814815
 40
0.4814814814814815
 40
0.4814814814814815
 40
0.5185185185185185
 40
0.5185185185185185
 40
0.5185185185185185
 40
0.5555555555555556
 40
0.5555555555555556
 40
0.5555555555555556
 40
0.5925925925925926
 40
0.5925925925925926
 40
0.5925925925925926
 40
0.6296296296296295
 40
0.6296296296296295
 40
0.6296296296296295
 40
0.6666666666666666
 40
0.6666666666666666
 40
0.6666666666666666
 40
0.7037037037037037
 40
0.7037037037037037
 40
0.7037037037037037
 40
0.7407407407407407
 40
0.7407407407407407
 40
0.7407407407407407
 40
0.7777777777777777
 40
0.7777777777777777
 40
0.7777777777777777
 40
0.8148148148148148
 40
0.8148148148148148
 40
0.8148148148148148
 40
0.8518518518518519
 40
0.8518518518518519
 40
0.8518518518518519
 40
0.8888888888888888
 40
0.8888888888888888
 40
0.8888888888888888
 40
0.9259259259259258
 40
0.9259259259259258
 40
0.9259259259259258
 40
0.9629629629629629
 40
0.9629629629629629
 40
0.9629629629629629
 40
1.0
 40
1.0
 40
1.0
 40
1.0
 10
348.8844
 20
-590.0266
 30
0.0
 10
348.8844
 20
-590.0266
 30
0.0
 10
165.3348
 20
-590.0266
 30
0.0
 10
165.3348
 20
-590.0266
 30
0.0
 10
193.0587
 20
-557.4853
 30
0.0
 10
216.8773
 20
-516.5578
 30
0.0
 10
235.5601
 20
-469.3324
 30
0.0
 10
251.2003
 20
-429.7747
 30
0.0
 10
263.5785
 20
-386.8801
 30
0.0
 10
272.3594
 20
-341.8112
 30
0.0
 10
284.7101
 20
-278.4489
 30
0.0
 10
294.3975
 20
-213.7359
 30
0.0
 10
301.3511
 20
-148.1309
 30
0.0
 10
302.799
 20
-134.5393
 30
0.0
 10
303.7627
 20
-120.8363
 30
0.0
 10
304.2555
 20
-107.0791
 30
0.0
 10
310.1711
 20
-116.9291
 30
0.0
 10
315.8893
 20
-127.104
 30
0.0
 10
321.3759
 20
-137.623
 30
0.0
 10
340.7441
 20
-174.6019
 30
0.0
 10
359.2057
 20
-212.855
 30
0.0
 10
376.7398
 20
-252.3188
 30
0.0
 10
394.152
 20
-291.518
 30
0.0
 10
407.9563
 20
-334.8475
 30
0.0
 10
417.7085
 20
-380.8544
 30
0.0
 10
423.4019
 20
-407.6871
 30
0.0
 10
424.2217
 20
-436.7242
 30
0.0
 10
420.0896
 20
-464.35
 30
0.0
 10
417.392
 20
-482.2947
 30
0.0
 10
412.3028
 20
-499.0145
 30
0.0
 10
405.2091
 20
-513.2399
 30
0.0
 10
397.6865
 20
-528.3048
 30
0.0
 10
385.8591
 20
-535.385
 30
0.0
 10
374.3149
 20
-531.7501
 30
0.0
 10
364.5989
 20
-528.6887
 30
0.0
 10
355.9019
 20
-519.7196
 30
0.0
 10
349.9148
 20
-506.5677
 30
0.0
 10
343.8801
 20
-493.3361
 30
0.0
 10
341.3484
 20
-476.5367
 30
0.0
 10
342.904
 20
-460.1083
 30
0.0
 10
343.7362
 20
-451.4052
 30
0.0
 10
347.0047
 20
-443.8791
 30
0.0
 10
351.7192
 20
-439.9066
 30
0.0
 10
356.429
 20
-435.9246
 30
0.0
 10
362.031
 20
-436.0121
 30
0.0
 10
366.7112
 20
-440.085
 30
0.0
 10
370.7089
 20
-443.5765
 30
0.0
 10
374.4016
 20
-447.9806
 30
0.0
 10
377.6673
 20
-453.1955
 30
0.0
 10
380.178
 20
-457.1536
 30
0.0
 10
383.1568
 20
-460.1943
 30
0.0
 10
386.4253
 20
-462.0516
 30
0.0
 10
389.9664
 20
-464.0792
 30
0.0
 10
393.8851
 20
-462.2873
 30
0.0
 10
396.3043
 20
-457.5136
 30
0.0
 10
403.4933
 20
-443.2993
 30
0.0
 10
405.8316
 20
-423.937
 30
0.0
 10
402.4944
 20
-406.1675
 30
0.0
 10
396.7266
 20
-375.4564
 30
0.0
 10
381.5811
 20
-352.2777
 30
0.0
 10
362.7658
 20
-345.3712
 30
0.0
 10
350.4763
 20
-340.8603
 30
0.0
 10
337.6909
 20
-342.3305
 30
0.0
 10
325.8941
 20
-349.6129
 30
0.0
 10
313.9372
 20
-356.9749
 30
0.0
 10
304.0372
 20
-371.4488
 30
0.0
 10
298.092
 20
-390.2807
 30
0.0
 10
294.3431
 20
-402.1408
 30
0.0
 10
291.6722
 20
-414.8548
 30
0.0
 10
290.1776
 20
-428.0242
 30
0.0
 10
287.807
 20
-450.1723
 30
0.0
 10
288.5982
 20
-472.9273
 30
0.0
 10
292.4892
 20
-494.4654
 30
0.0
 10
297.7718
 20
-523.7144
 30
0.0
 10
308.2475
 20
-549.5579
 30
0.0
 10
322.5369
 20
-568.6271
 30
0.0
 10
326.4318
 20
-573.6731
 30
0.0
 10
330.6163
 20
-578.0661
 30
0.0
 10
335.0144
 20
-581.736
 30
0.0
 10
339.4172
 20
-585.4361
 30
0.0
 10
344.0879
 20
-588.2028
 30
0.0
 10
348.8844
 20
-590.0266
 30
0.0
  0
SPLINE
  5
6F
330
1F
100
AcDbEntity
  8
Layer 1
 62
   250
370
    20
100
AcDbSpline
210
0.0
220
0.0
230
1.0
 70
    11
 71
     3
 72
    23
 73
    19
 74
     0
 42
0.0000000001
 43
0.0000000001
 40
0.0
 40
0.0
 40
0.0
 40
0.0
 40
0.1666666666666667
 40
0.1666666666666667
 40
0.1666666666666667
 40
0.3333333333333333
 40
0.3333333333333333
 40
0.3333333333333333
 40
0.5
 40
0.5
 40
0.5
 40
0.6666666666666666
 40
0.6666666666666666
 40
0.6666666666666666
 40
0.8333333333333333
 40
0.8333333333333333
 40
0.8333333333333333
 40
1.0
 40
1.0
 40
1.0
 40
1.0
 10
-0.0496
 20
589.9686
 30
0.0
 10
5.113
 20
581.1205
 30
0.0
 10
9.7332
 20
571.4409
 30
0.0
 10
13.7843
 20
561.1322
 30
0.0
 10
17.8335
 20
550.7821
 30
0.0
 10
21.0744
 20
539.6101
 30
0.0
 10
23.4088
 20
527.8789
 30
0.0
 10
27.2158
 20
508.0006
 30
0.0
 10
28.496
 20
487.0232
 30
0.0
 10
27.171
 20
466.2751
 30
0.0
 10
33.3106
 20
479.3999
 30
0.0
 10
39.8343
 20
491.98
 30
0.0
 10
46.7298
 20
503.993
 30
0.0
 10
64.9074
 20
534.6962
 30
0.0
 10
84.2545
 20
563.4211
 30
0.0
 10
104.6425
 20
589.9686
 30
0.0
 10
104.6425
 20
589.9686
 30
0.0
 10
-0.0496
 20
589.9686
 30
0.0
 10
-0.0496
 20
589.9686
 30
0.0
  0
SPLINE
  5
70
330
1F
100
AcDbEntity
  8
Layer 1
 62
   250
370
    20
100
AcDbSpline
210
0.0
220
0.0
230
1.0
 70
    11
 71
     3
 72
    98
 73
    94
 74
     0
 42
0.0000000001
 43
0.0000000001
 40
0.0
 40
0.0
 40
0.0
 40
0.0
 40
0.032258064516129
 40
0.032258064516129
 40
0.032258064516129
 40
0.0645161290322581
 40
0.0645161290322581
 40
0.0645161290322581
 40
0.0967741935483871
 40
0.0967741935483871
 40
0.0967741935483871
 40
0.1290322580645161
 40
0.1290322580645161
 40
0.1290322580645161
 40
0.1612903225806452
 40
0.1612903225806452
 40
0.1612903225806452
 40
0.1935483870967742
 40
0.1935483870967742
 40
0.1935483870967742
 40
0.2258064516129032
 40
0.2258064516129032
 40
0.2258064516129032
 40
0.2580645161290323
 40
0.2580645161290323
 40
0.2580645161290323
 40
0.2903225806451613
 40
0.2903225806451613
 40
0.2903225806451613
 40
0.3225806451612903
 40
0.3225806451612903
 40
0.3225806451612903
 40
0.3548387096774194
 40
0.3548387096774194
 40
0.3548387096774194
 40
0.3870967741935484
 40
0.3870967741935484
 40
0.3870967741935484
 40
0.4193548387096774
 40
0.4193548387096774
 40
0.4193548387096774
 40
0.4516129032258064
 40
0.4516129032258064
 40
0.4516129032258064
 40
0.4838709677419355
 40
0.4838709677419355
 40
0.4838709677419355
 40
0.5161290322580645
 40
0.5161290322580645
 40
0.5161290322580645
 40
0.5483870967741935
 40
0.5483870967741935
 40
0.5483870967741935
 40
0.5806451612903225
 40
0.5806451612903225
 40
0.5806451612903225
 40
0.6129032258064516
 40
0.6129032258064516
 40
0.6129032258064516
 40
0.6451612903225806
 40
0.6451612903225806
 40
0.6451612903225806
 40
0.6774193548387096
 40
0.6774193548387096
 40
0.6774193548387096
 40
0.7096774193548387
 40
0.7096774193548387
 40
0.7096774193548387
 40
0.7419354838709677
 40
0.7419354838709677
 40
0.7419354838709677
 40
0.7741935483870968
 40
0.7741935483870968
 40
0.7741935483870968
 40
0.8064516129032258
 40
0.8064516129032258
 40
0.8064516129032258
 40
0.8387096774193548
 40
0.8387096774193548
 40
0.8387096774193548
 40
0.8709677419354839
 40
0.8709677419354839
 40
0.8709677419354839
 40
0.9032258064516129
 40
0.9032258064516129
 40
0.9032258064516129
 40
0.9354838709677419
 40
0.9354838709677419
 40
0.9354838709677419
 40
0.967741935483871
 40
0.967741935483871
 40
0.967741935483871
 40
1.0
 40
1.0
 40
1.0
 40
1.0
 10
192.6297
 20
-235.9717
 30
0.0
 10
190.0581
 20
-256.2291
 30
0.0
 10
186.0488
 20
-275.8797
 30
0.0
 10
180.7129
 20
-294.5619
 30
0.0
 10
166.962
 20
-342.6379
 30
0.0
 10
148.0542
 20
-386.1012
 30
0.0
 10
124.94
 20
-422.7918
 30
0.0
 10
92.6198
 20
-474.0949
 30
0.0
 10
48.2759
 20
-498.7581
 30
0.0
 10
3.9929
 20
-490.1154
 30
0.0
 10
-8.1194
 20
-487.7453
 30
0.0
 10
-20.063
 20
-483.3858
 30
0.0
 10
-31.6702
 20
-477.091
 30
0.0
 10
-55.4249
 20
-464.1859
 30
0.0
 10
-76.4992
 20
-440.2251
 30
0.0
 10
-92.4015
 20
-408.0184
 30
0.0
 10
-105.3612
 20
-381.748
 30
0.0
 10
-116.8988
 20
-353.5885
 30
0.0
 10
-126.8645
 20
-323.8713
 30
0.0
 10
-137.6967
 20
-291.5754
 30
0.0
 10
-148.5727
 20
-259.3272
 30
0.0
 10
-159.4945
 20
-227.0964
 30
0.0
 10
-165.0736
 20
-210.6442
 30
0.0
 10
-170.1199
 20
-193.6966
 30
0.0
 10
-174.5933
 20
-176.3301
 30
0.0
 10
-184.0538
 20
-178.7193
 30
0.0
 10
-193.2799
 20
-183.0725
 30
0.0
 10
-202.0903
 20
-189.2606
 30
0.0
 10
-213.8519
 20
-197.6723
 30
0.0
 10
-224.9853
 20
-208.3554
 30
0.0
 10
-235.2503
 20
-221.109
 30
0.0
 10
-258.4951
 20
-249.9741
 30
0.0
 10
-286.2399
 20
-266.9631
 30
0.0
 10
-315.1325
 20
-270.0564
 30
0.0
 10
-356.9809
 20
-274.537
 30
0.0
 10
-398.7254
 20
-258.5849
 30
0.0
 10
-435.2455
 20
-224.1482
 30
0.0
 10
-472.3403
 20
-189.2097
 30
0.0
 10
-499.965
 20
-131.6308
 30
0.0
 10
-512.3176
 20
-63.5267
 30
0.0
 10
-524.4003
 20
3.0053
 30
0.0
 10
-516.831
 20
75.2428
 30
0.0
 10
-491.9334
 20
130.9581
 30
0.0
 10
-474.6375
 20
169.7034
 30
0.0
 10
-454.1017
 20
204.0668
 30
0.0
 10
-430.9551
 20
233.0737
 30
0.0
 10
-415.5771
 20
252.3292
 30
0.0
 10
-399.5776
 20
270.1784
 30
0.0
 10
-383.0376
 20
286.5526
 30
0.0
 10
-334.472
 20
334.5856
 30
0.0
 10
-282.2879
 20
371.6298
 30
0.0
 10
-227.8925
 20
396.7007
 30
0.0
 10
-173.6972
 20
421.6746
 30
0.0
 10
-118.81
 20
442.2793
 30
0.0
 10
-63.4194
 20
458.4193
 30
0.0
 10
-53.9027
 20
461.1924
 30
0.0
 10
-44.2991
 20
463.1357
 30
0.0
 10
-34.6555
 20
464.241
 30
0.0
 10
-30.5606
 20
457.9988
 30
0.0
 10
-27.6429
 20
449.885
 30
0.0
 10
-26.2645
 20
440.8951
 30
0.0
 10
-24.8996
 20
432.055
 30
0.0
 10
-24.423
 20
422.8867
 30
0.0
 10
-24.8318
 20
413.7742
 30
0.0
 10
-25.542
 20
398.0244
 30
0.0
 10
-26.7106
 20
382.3367
 30
0.0
 10
-28.3253
 20
366.7653
 30
0.0
 10
-29.9916
 20
350.7989
 30
0.0
 10
-34.7767
 20
336.1848
 30
0.0
 10
-41.9151
 20
325.1912
 30
0.0
 10
-48.7915
 20
314.6387
 30
0.0
 10
-55.4249
 20
303.6722
 30
0.0
 10
-61.8285
 20
292.3441
 30
0.0
 10
-72.8742
 20
272.746
 30
0.0
 10
-81.7371
 20
250.0404
 30
0.0
 10
-88.0044
 20
225.2768
 30
0.0
 10
-102.2652
 20
168.9229
 30
0.0
 10
-111.8821
 20
109.6063
 30
0.0
 10
-116.5947
 20
48.9263
 30
0.0
 10
-120.8908
 20
-6.5086
 30
0.0
 10
-114.3185
 20
-62.7892
 30
0.0
 10
-97.8262
 20
-111.4355
 30
0.0
 10
-81.6094
 20
-159.2949
 30
0.0
 10
-59.9565
 20
-201.3676
 30
0.0
 10
-34.0475
 20
-235.3043
 30
0.0
 10
-5.2255
 20
-273.062
 30
0.0
 10
31.4347
 20
-289.8455
 30
0.0
 10
67.7365
 20
-281.8958
 30
0.0
 10
101.0003
 20
-274.6134
 30
0.0
 10
133.9888
 20
-264.0435
 30
0.0
 10
166.5082
 20
-250.1923
 30
0.0
 10
175.3825
 20
-246.4173
 30
0.0
 10
184.1129
 20
-241.6659
 30
0.0
 10
192.6297
 20
-235.9717
 30
0.0
  0
SPLINE
  5
71
330
1F
100
AcDbEntity
  8
Layer 1
 62
   250
370
    20
100
AcDbSpline
210
0.0
220
0.0
230
1.0
 70
     8
 71
     3
 72
    29
 73
    25
 74
     0
 42
0.0000000001
 43
0.0000000001
 40
0.0
 40
0.0
 40
0.0
 40
0.0
 40
0.125
 40
0.125
 40
0.125
 40
0.25
 40
0.25
 40
0.25
 40
0.375
 40
0.375
 40
0.375
 40
0.5
 40
0.5
 40
0.5
 40
0.625
 40
0.625
 40
0.625
 40
0.75
 40
0.75
 40
0.75
 40
0.875
 40
0.875
 40
0.875
 40
1.0
 40
1.0
 40
1.0
 40
1.0
 10
-422.8309
 20
378.686
 30
0.0
 10
-444.3981
 20
392.5817
 30
0.0
 10
-459.9038
 20
424.6961
 30
0.0
 10
-463.4898
 20
462.876
 30
0.0
 10
-466.3923
 20
493.6429
 30
0.0
 10
-457.1453
 20
524.1056
 30
0.0
 10
-440.5844
 20
538.4378
 30
0.0
 10
-427.1843
 20
550.008
 30
0.0
 10
-411.5679
 20
552.1965
 30
0.0
 10
-397.2012
 20
544.5112
 30
0.0
 10
-382.3846
 20
536.5901
 30
0.0
 10
-371.2446
 20
516.0124
 30
0.0
 10
-367.9713
 20
490.591
 30
0.0
 10
-366.6416
 20
480.2553
 30
0.0
 10
-365.7399
 20
469.757
 30
0.0
 10
-365.3024
 20
459.1839
 30
0.0
 10
-364.8581
 20
448.6155
 30
0.0
 10
-365.0517
 20
437.9882
 30
0.0
 10
-365.8552
 20
427.482
 30
0.0
 10
-372.2503
 20
421.8848
 30
0.0
 10
-378.6662
 20
416.3466
 30
0.0
 10
-385.0813
 20
410.8052
 30
0.0
 10
-397.6407
 20
400.0186
 30
0.0
 10
-410.2182
 20
389.3101
 30
0.0
 10
-422.8233
 20
378.6892
 30
0.0
  0
SPLINE
  5
72
330
1F
100
AcDbEntity
  8
Layer 1
 62
   250
370
    20
100
AcDbSpline
210
0.0
220
0.0
230
1.0
 70
    11
 71
     3
 72
    32
 73
    28
 74
     0
 42
0.0000000001
 43
0.0000000001
 40
0.0
 40
0.0
 40
0.0
 40
0.0
 40
0.1111111111111111
 40
0.1111111111111111
 40
0.1111111111111111
 40
0.2222222222222222
 40
0.2222222222222222
 40
0.2222222222222222
 40
0.3333333333333333
 40
0.3333333333333333
 40
0.3333333333333333
 40
0.4444444444444444
 40
0.4444444444444444
 40
0.4444444444444444
 40
0.5555555555555556
 40
0.5555555555555556
 40
0.5555555555555556
 40
0.6666666666666666
 40
0.6666666666666666
 40
0.6666666666666666
 40
0.7777777777777777
 40
0.7777777777777777
 40
0.7777777777777777
 40
0.8888888888888888
 40
0.8888888888888888
 40
0.8888888888888888
 40
1.0
 40
1.0
 40
1.0
 40
1.0
 10
-694.6499
 20
589.9686
 30
0.0
 10
-694.6499
 20
589.9686
 30
0.0
 10
-470.6884
 20
589.9686
 30
0.0
 10
-470.6884
 20
589.9686
 30
0.0
 10
-493.8445
 20
567.0655
 30
0.0
 10
-506.8081
 20
523.6835
 30
0.0
 10
-503.8179
 20
479.0177
 30
0.0
 10
-502.3423
 20
456.9061
 30
0.0
 10
-499.3074
 20
435.1833
 30
0.0
 10
-494.7768
 20
414.2791
 30
0.0
 10
-508.8517
 20
429.1465
 30
0.0
 10
-524.0887
 20
440.7374
 30
0.0
 10
-540.0558
 20
448.6681
 30
0.0
 10
-555.9743
 20
456.586
 30
0.0
 10
-572.2635
 20
462.2325
 30
0.0
 10
-588.7615
 20
465.5026
 30
0.0
 10
-610.3382
 20
469.7729
 30
0.0
 10
-632.0226
 20
472.5285
 30
0.0
 10
-653.7366
 20
473.6897
 30
0.0
 10
-668.1909
 20
474.4797
 30
0.0
 10
-681.3995
 20
487.5727
 30
0.0
 10
-688.7391
 20
508.3828
 30
0.0
 10
-693.0533
 20
520.5759
 30
0.0
 10
-695.9482
 20
534.0384
 30
0.0
 10
-697.2988
 20
548.0281
 30
0.0
 10
-698.6533
 20
562.1532
 30
0.0
 10
-697.7411
 20
576.6192
 30
0.0
 10
-694.6499
 20
589.9686
 30
0.0
  0
SPLINE
  5
73
330
1F
100
AcDbEntity
  8
Layer 1
 62
   250
370
    20
100
AcDbSpline
210
0.0
220
0.0
230
1.0
 70
    11
 71
     3
 72
   194
 73
   190
 74
     0
 42
0.0000000001
 43
0.0000000001
 40
0.0
 40
0.0
 40
0.0
 40
0.0
 40
0.0158730158730159
 40
0.0158730158730159
 40
0.0158730158730159
 40
0.0317460317460317
 40
0.0317460317460317
 40
0.0317460317460317
 40
0.0476190476190476
 40
0.0476190476190476
 40
0.0476190476190476
 40
0.0634920634920635
 40
0.0634920634920635
 40
0.0634920634920635
 40
0.0793650793650794
 40
0.0793650793650794
 40
0.0793650793650794
 40
0.0952380952380952
 40
0.0952380952380952
 40
0.0952380952380952
 40
0.1111111111111111
 40
0.1111111111111111
 40
0.1111111111111111
 40
0.126984126984127
 40
0.126984126984127
 40
0.126984126984127
 40
0.1428571428571428
 40
0.1428571428571428
 40
0.1428571428571428
 40
0.1587301587301587
 40
0.1587301587301587
 40
0.1587301587301587
 40
0.1746031746031746
 40
0.1746031746031746
 40
0.1746031746031746
 40
0.1904761904761905
 40
0.1904761904761905
 40
0.1904761904761905
 40
0.2063492063492063
 40
0.2063492063492063
 40
0.2063492063492063
 40
0.2222222222222222
 40
0.2222222222222222
 40
0.2222222222222222
 40
0.2380952380952381
 40
0.2380952380952381
 40
0.2380952380952381
 40
0.253968253968254
 40
0.253968253968254
 40
0.253968253968254
 40
0.2698412698412698
 40
0.2698412698412698
 40
0.2698412698412698
 40
0.2857142857142857
 40
0.2857142857142857
 40
0.2857142857142857
 40
0.3015873015873016
 40
0.3015873015873016
 40
0.3015873015873016
 40
0.3174603174603174
 40
0.3174603174603174
 40
0.3174603174603174
 40
0.3333333333333333
 40
0.3333333333333333
 40
0.3333333333333333
 40
0.3492063492063492
 40
0.3492063492063492
 40
0.3492063492063492
 40
0.3650793650793651
 40
0.3650793650793651
 40
0.3650793650793651
 40
0.3809523809523809
 40
0.3809523809523809
 40
0.3809523809523809
 40
0.3968253968253968
 40
0.3968253968253968
 40
0.3968253968253968
 40
0.4126984126984127
 40
0.4126984126984127
 40
0.4126984126984127
 40
0.4285714285714285
 40
0.4285714285714285
 40
0.4285714285714285
 40
0.4444444444444444
 40
0.4444444444444444
 40
0.4444444444444444
 40
0.4603174603174603
 40
0.4603174603174603
 40
0.4603174603174603
 40
0.4761904761904762
 40
0.4761904761904762
 40
0.4761904761904762
 40
0.492063492063492
 40
0.492063492063492
 40
0.492063492063492
 40
0.5079365079365079
 40
0.5079365079365079
 40
0.5079365079365079
 40
0.5238095238095237
 40
0.5238095238095237
 40
0.5238095238095237
 40
0.5396825396825397
 40
0.5396825396825397
 40
0.5396825396825397
 40
0.5555555555555556
 40
0.5555555555555556
 40
0.5555555555555556
 40
0.5714285714285714
 40
0.5714285714285714
 40
0.5714285714285714
 40
0.5873015873015872
 40
0.5873015873015872
 40
0.5873015873015872
 40
0.6031746031746031
 40
0.6031746031746031
 40
0.6031746031746031
 40
0.6190476190476191
 40
0.6190476190476191
 40
0.6190476190476191
 40
0.6349206349206349
 40
0.6349206349206349
 40
0.6349206349206349
 40
0.6507936507936507
 40
0.6507936507936507
 40
0.6507936507936507
 40
0.6666666666666666
 40
0.6666666666666666
 40
0.6666666666666666
 40
0.6825396825396826
 40
0.6825396825396826
 40
0.6825396825396826
 40
0.6984126984126984
 40
0.6984126984126984
 40
0.6984126984126984
 40
0.7142857142857142
 40
0.7142857142857142
 40
0.7142857142857142
 40
0.7301587301587301
 40
0.7301587301587301
 40
0.7301587301587301
 40
0.746031746031746
 40
0.746031746031746
 40
0.746031746031746
 40
0.7619047619047619
 40
0.7619047619047619
 40
0.7619047619047619
 40
0.7777777777777777
 40
0.7777777777777777
 40
0.7777777777777777
 40
0.7936507936507936
 40
0.7936507936507936
 40
0.7936507936507936
 40
0.8095238095238095
 40
0.8095238095238095
 40
0.8095238095238095
 40
0.8253968253968254
 40
0.8253968253968254
 40
0.8253968253968254
 40
0.8412698412698412
 40
0.8412698412698412
 40
0.8412698412698412
 40
0.8571428571428571
 40
0.8571428571428571
 40
0.8571428571428571
 40
0.873015873015873
 40
0.873015873015873
 40
0.873015873015873
 40
0.8888888888888888
 40
0.8888888888888888
 40
0.8888888888888888
 40
0.9047619047619047
 40
0.9047619047619047
 40
0.9047619047619047
 40
0.9206349206349206
 40
0.9206349206349206
 40
0.9206349206349206
 40
0.9365079365079365
 40
0.9365079365079365
 40
0.9365079365079365
 40
0.9523809523809523
 40
0.9523809523809523
 40
0.9523809523809523
 40
0.9682539682539681
 40
0.9682539682539681
 40
0.9682539682539681
 40
0.9841269841269841
 40
0.9841269841269841
 40
0.9841269841269841
 40
1.0
 40
1.0
 40
1.0
 40
1.0
 10
-111.0891
 20
-590.0266
 30
0.0
 10
-111.0891
 20
-590.0266
 30
0.0
 10
-469.127
 20
-590.0266
 30
0.0
 10
-469.127
 20
-590.0266
 30
0.0
 10
-471.3746
 20
-559.1976
 30
0.0
 10
-475.3553
 20
-528.7747
 30
0.0
 10
-481.0125
 20
-499.1945
 30
0.0
 10
-486.6927
 20
-469.6509
 30
0.0
 10
-493.4909
 20
-440.7444
 30
0.0
 10
-501.3948
 20
-412.6535
 30
0.0
 10
-510.7238
 20
-379.4368
 30
0.0
 10
-523.0268
 20
-348.7846
 30
0.0
 10
-537.8719
 20
-321.7433
 30
0.0
 10
-552.6542
 20
-294.8104
 30
0.0
 10
-568.6938
 20
-269.8604
 30
0.0
 10
-585.8304
 20
-247.1452
 30
0.0
 10
-599.506
 20
-229.0318
 30
0.0
 10
-616.2385
 20
-218.5462
 30
0.0
 10
-633.6745
 20
-217.1843
 30
0.0
 10
-642.749
 20
-216.4819
 30
0.0
 10
-651.8244
 20
-215.7269
 30
0.0
 10
-660.8941
 20
-214.913
 30
0.0
 10
-666.2768
 20
-214.4288
 30
0.0
 10
-671.6443
 20
-213.2947
 30
0.0
 10
-676.9479
 20
-211.5044
 30
0.0
 10
-682.6862
 20
-209.5404
 30
0.0
 10
-688.3197
 20
-206.6988
 30
0.0
 10
-693.7482
 20
-203.0162
 30
0.0
 10
-683.6118
 20
-192.2838
 30
0.0
 10
-674.7375
 20
-178.5282
 30
0.0
 10
-667.5513
 20
-162.4184
 30
0.0
 10
-649.7093
 20
-122.3686
 30
0.0
 10
-650.1735
 20
-67.3415
 30
0.0
 10
-668.7209
 20
-28.1837
 30
0.0
 10
-674.3086
 20
-16.3904
 30
0.0
 10
-681.4338
 20
-6.9195
 30
0.0
 10
-689.5636
 20
-0.4941
 30
0.0
 10
-706.9844
 20
13.2424
 30
0.0
 10
-727.1284
 20
13.3204
 30
0.0
 10
-744.5672
 20
-0.3332
 30
0.0
 10
-755.407
 20
-8.8134
 30
0.0
 10
-763.7113
 20
-24.2606
 30
0.0
 10
-767.6137
 20
-43.1577
 30
0.0
 10
-769.5782
 20
-52.7178
 30
0.0
 10
-770.643
 20
-62.7255
 30
0.0
 10
-770.766
 20
-72.824
 30
0.0
 10
-770.1311
 20
-76.7869
 30
0.0
 10
-768.8033
 20
-80.3261
 30
0.0
 10
-766.9379
 20
-82.9702
 30
0.0
 10
-764.8284
 20
-85.9663
 30
0.0
 10
-761.6972
 20
-85.7306
 30
0.0
 10
-759.7689
 20
-82.3873
 30
0.0
 10
-756.0733
 20
-75.9937
 30
0.0
 10
-752.0955
 20
-70.0812
 30
0.0
 10
-747.8758
 20
-64.6943
 30
0.0
 10
-740.3845
 20
-55.1485
 30
0.0
 10
-730.395
 20
-52.9934
 30
0.0
 10
-721.6951
 20
-59.0477
 30
0.0
 10
-714.5842
 20
-64.1814
 30
0.0
 10
-708.6992
 20
-73.1442
 30
0.0
 10
-705.0188
 20
-84.536
 30
0.0
 10
-701.2422
 20
-96.1222
 30
0.0
 10
-700.6847
 20
-109.8841
 30
0.0
 10
-703.4651
 20
-122.2029
 30
0.0
 10
-707.4638
 20
-139.8212
 30
0.0
 10
-715.0341
 20
-154.5452
 30
0.0
 10
-724.875
 20
-163.7405
 30
0.0
 10
-745.3231
 20
-182.8368
 30
0.0
 10
-770.094
 20
-183.9597
 30
0.0
 10
-791.1502
 20
-166.8194
 30
0.0
 10
-820.0417
 20
-143.2776
 30
0.0
 10
-844.2369
 20
-106.1952
 30
0.0
 10
-860.7844
 20
-60.1419
 30
0.0
 10
-871.1296
 20
-31.3677
 30
0.0
 10
-876.0557
 20
1.9572
 30
0.0
 10
-874.9424
 20
35.4638
 30
0.0
 10
-873.9939
 20
63.8909
 30
0.0
 10
-870.7311
 20
91.9483
 30
0.0
 10
-865.2616
 20
118.8845
 30
0.0
 10
-859.816
 20
145.6996
 30
0.0
 10
-854.032
 20
172.3522
 30
0.0
 10
-847.9315
 20
198.7707
 30
0.0
 10
-843.0987
 20
219.6526
 30
0.0
 10
-837.6922
 20
240.1362
 30
0.0
 10
-831.6861
 20
260.1548
 30
0.0
 10
-825.4683
 20
280.9299
 30
0.0
 10
-814.577
 20
296.7657
 30
0.0
 10
-801.4048
 20
304.2217
 30
0.0
 10
-799.4221
 20
305.3287
 30
0.0
 10
-797.3365
 20
305.926
 30
0.0
 10
-795.2337
 20
305.9483
 30
0.0
 10
-796.3632
 20
300.5853
 30
0.0
 10
-797.0696
 20
294.9818
 30
0.0
 10
-797.3365
 20
289.3034
 30
0.0
 10
-798.3983
 20
266.4321
 30
0.0
 10
-797.4022
 20
243.4047
 30
0.0
 10
-794.3863
 20
221.0128
 30
0.0
 10
-789.1771
 20
182.2469
 30
0.0
 10
-774.532
 20
148.9107
 30
0.0
 10
-753.9743
 20
128.9734
 30
0.0
 10
-733.7179
 20
109.3164
 30
0.0
 10
-710.0994
 20
101.647
 30
0.0
 10
-686.9185
 20
107.1662
 30
0.0
 10
-660.5157
 20
113.461
 30
0.0
 10
-637.4034
 20
139.9129
 30
0.0
 10
-624.3608
 20
178.7793
 30
0.0
 10
-619.1058
 20
194.4223
 30
0.0
 10
-616.0059
 20
211.7904
 30
0.0
 10
-615.251
 20
229.681
 30
0.0
 10
-614.4027
 20
254.65
 30
0.0
 10
-618.47
 20
279.3928
 30
0.0
 10
-626.8363
 20
300.1425
 30
0.0
 10
-633.6726
 20
317.1028
 30
0.0
 10
-642.8396
 20
331.04
 30
0.0
 10
-653.5726
 20
340.8358
 30
0.0
 10
-669.6188
 20
355.4356
 30
0.0
 10
-689.0717
 20
354.73
 30
0.0
 10
-704.6986
 20
338.9117
 30
0.0
 10
-715.8806
 20
327.6059
 30
0.0
 10
-721.6045
 20
305.8368
 30
0.0
 10
-719.0185
 20
284.4389
 30
0.0
 10
-717.5897
 20
272.6186
 30
0.0
 10
-715.2314
 20
261.1853
 30
0.0
 10
-712.0173
 20
250.4004
 30
0.0
 10
-710.5341
 20
252.4981
 30
0.0
 10
-708.9117
 20
254.3203
 30
0.0
 10
-707.1854
 20
255.8287
 30
0.0
 10
-698.1377
 20
263.7514
 30
0.0
 10
-688.5742
 20
269.9315
 30
0.0
 10
-678.6866
 20
274.2067
 30
0.0
 10
-671.957
 20
277.1502
 30
0.0
 10
-664.9329
 20
271.2901
 30
0.0
 10
-662.2782
 20
260.51
 30
0.0
 10
-657.74
 20
242.1161
 30
0.0
 10
-659.8151
 20
220.9874
 30
0.0
 10
-667.6523
 20
205.9798
 30
0.0
 10
-677.2025
 20
187.6544
 30
0.0
 10
-690.9887
 20
177.0271
 30
0.0
 10
-705.5364
 20
176.7595
 30
0.0
 10
-720.1661
 20
176.5031
 30
0.0
 10
-734.0839
 20
187.3661
 30
0.0
 10
-743.3366
 20
206.2888
 30
0.0
 10
-753.9429
 20
227.9862
 30
0.0
 10
-759.297
 20
255.5945
 30
0.0
 10
-758.3286
 20
283.574
 30
0.0
 10
-757.2781
 20
313.5715
 30
0.0
 10
-748.8966
 20
341.5478
 30
0.0
 10
-735.1734
 20
360.9547
 30
0.0
 10
-724.9712
 20
375.0639
 30
0.0
 10
-712.4939
 20
383.7926
 30
0.0
 10
-699.3225
 20
386.0783
 30
0.0
 10
-682.9398
 20
388.9151
 30
0.0
 10
-666.4522
 20
389.7449
 30
0.0
 10
-649.9895
 20
388.5965
 30
0.0
 10
-628.0401
 20
387.0722
 30
0.0
 10
-606.147
 20
383.8754
 30
0.0
 10
-584.3663
 20
379.0571
 30
0.0
 10
-547.7862
 20
370.9847
 30
0.0
 10
-512.37
 20
351.8183
 30
0.0
 10
-479.8982
 20
322.5248
 30
0.0
 10
-537.0666
 20
266.3636
 30
0.0
 10
-579.707
 20
176.7882
 30
0.0
 10
-599.5699
 20
71.0633
 30
0.0
 10
-605.6923
 20
38.4471
 30
0.0
 10
-608.978
 20
4.5583
 30
0.0
 10
-609.3192
 20
-29.6156
 30
0.0
 10
-609.7511
 20
-72.7348
 30
0.0
 10
-602.8155
 20
-115.1372
 30
0.0
 10
-589.2972
 20
-151.874
 30
0.0
 10
-567.5499
 20
-210.9978
 30
0.0
 10
-538.7136
 20
-261.9091
 30
0.0
 10
-504.6004
 20
-301.4572
 30
0.0
 10
-464.7213
 20
-347.692
 30
0.0
 10
-417.0727
 20
-371.4043
 30
0.0
 10
-368.5528
 20
-369.1329
 30
0.0
 10
-314.2507
 20
-366.5844
 30
0.0
 10
-261.0678
 20
-343.1636
 30
0.0
 10
-213.0712
 20
-300.656
 30
0.0
 10
-212.6232
 20
-358.8799
 30
0.0
 10
-200.751
 20
-415.202
 30
0.0
 10
-179.2688
 20
-461.0162
 30
0.0
 10
-164.8306
 20
-491.7815
 30
0.0
 10
-149.7518
 20
-521.6532
 30
0.0
 10
-134.0421
 20
-550.6027
 30
0.0
 10
-130.3532
 20
-557.3818
 30
0.0
 10
-126.6281
 20
-564.1369
 30
0.0
 10
-122.8782
 20
-570.822
 30
0.0
 10
-119.1303
 20
-577.5245
 30
0.0
 10
-115.1954
 20
-583.9261
 30
0.0
 10
-111.0891
 20
-590.0266
 30
0.0
  0
SPLINE
  5
74
330
1F
100
AcDbEntity
  8
Layer 1
 62
   250
370
    20
100
AcDbSpline
210
0.0
220
0.0
230
1.0
 70
     8
 71
     3
 72
    80
 73
    76
 74
     0
 42
0.0000000001
 43
0.0000000001
 40
0.0
 40
0.0
 40
0.0
 40
0.0
 40
0.04
 40
0.04
 40
0.04
 40
0.08
 40
0.08
 40
0.08
 40
0.12
 40
0.12
 40
0.12
 40
0.16
 40
0.16
 40
0.16
 40
0.2
 40
0.2
 40
0.2
 40
0.24
 40
0.24
 40
0.24
 40
0.28
 40
0.28
 40
0.28
 40
0.32
 40
0.32
 40
0.32
 40
0.36
 40
0.36
 40
0.36
 40
0.4
 40
0.4
 40
0.4
 40
0.44
 40
0.44
 40
0.44
 40
0.48
 40
0.48
 40
0.48
 40
0.52
 40
0.52
 40
0.52
 40
0.56
 40
0.56
 40
0.56
 40
0.6
 40
0.6
 40
0.6
 40
0.64
 40
0.64
 40
0.64
 40
0.68
 40
0.68
 40
0.68
 40
0.72
 40
0.72
 40
0.72
 40
0.76
 40
0.76
 40
0.76
 40
0.8
 40
0.8
 40
0.8
 40
0.84
 40
0.84
 40
0.84
 40
0.88
 40
0.88
 40
0.88
 40
0.92
 40
0.92
 40
0.92
 40
0.96
 40
0.96
 40
0.96
 40
1.0
 40
1.0
 40
1.0
 40
1.0
 10
-881.9303
 20
589.9686
 30
0.0
 10
-881.9303
 20
589.9686
 30
0.0
 10
-738.2904
 20
589.9686
 30
0.0
 10
-738.2904
 20
589.9686
 30
0.0
 10
-739.724
 20
566.1321
 30
0.0
 10
-738.788
 20
542.0885
 30
0.0
 10
-735.527
 20
518.8015
 30
0.0
 10
-732.2451
 20
495.3679
 30
0.0
 10
-725.974
 20
473.4205
 30
0.0
 10
-717.1255
 20
454.4277
 30
0.0
 10
-737.0264
 20
453.0961
 30
0.0
 10
-756.1362
 20
441.1898
 30
0.0
 10
-771.6963
 20
420.4146
 30
0.0
 10
-779.5707
 20
409.8973
 30
0.0
 10
-787.4794
 20
399.5073
 30
0.0
 10
-795.452
 20
389.2018
 30
0.0
 10
-809.363
 20
371.2045
 30
0.0
 10
-825.7619
 20
359.3253
 30
0.0
 10
-843.1464
 20
354.7268
 30
0.0
 10
-866.864
 20
348.4001
 30
0.0
 10
-891.0401
 20
348.0895
 30
0.0
 10
-914.8224
 20
353.8046
 30
0.0
 10
-942.5463
 20
360.4673
 30
0.0
 10
-965.6805
 20
392.6709
 30
0.0
 10
-974.654
 20
437.0261
 30
0.0
 10
-979.5001
 20
461.0379
 30
0.0
 10
-978.3362
 20
487.3274
 30
0.0
 10
-971.4264
 20
509.9215
 30
0.0
 10
-965.1057
 20
530.5326
 30
0.0
 10
-953.4386
 20
545.1706
 30
0.0
 10
-939.8201
 20
549.4999
 30
0.0
 10
-934.1639
 20
551.3077
 30
0.0
 10
-928.315
 20
550.4444
 30
0.0
 10
-922.9189
 20
547.0422
 30
0.0
 10
-914.9111
 20
541.8432
 30
0.0
 10
-908.9107
 20
530.4402
 30
0.0
 10
-906.8241
 20
516.5126
 30
0.0
 10
-906.2961
 20
512.9526
 30
0.0
 10
-905.9748
 20
509.3258
 30
0.0
 10
-905.8452
 20
505.6703
 30
0.0
 10
-905.7508
 20
502.3062
 30
0.0
 10
-906.4791
 20
498.9932
 30
0.0
 10
-907.8746
 20
496.5243
 30
0.0
 10
-909.2662
 20
494.0746
 30
0.0
 10
-911.2164
 20
492.6649
 30
0.0
 10
-913.2344
 20
492.6585
 30
0.0
 10
-915.9167
 20
492.6506
 30
0.0
 10
-918.5505
 20
493.9233
 30
0.0
 10
-920.8124
 20
496.3348
 30
0.0
 10
-923.0581
 20
498.7128
 30
0.0
 10
-924.9655
 20
501.8666
 30
0.0
 10
-926.4086
 20
505.6034
 30
0.0
 10
-930.9554
 20
501.5257
 30
0.0
 10
-934.3002
 20
494.4839
 30
0.0
 10
-935.6195
 20
486.1598
 30
0.0
 10
-936.9491
 20
477.8039
 30
0.0
 10
-936.1685
 20
468.9574
 30
0.0
 10
-933.4252
 20
461.64
 30
0.0
 10
-930.1451
 20
452.8524
 30
0.0
 10
-925.6336
 20
445.4904
 30
0.0
 10
-920.3138
 20
440.1991
 30
0.0
 10
-916.0798
 20
435.9876
 30
0.0
 10
-911.3519
 20
433.3738
 30
0.0
 10
-906.4476
 20
432.5185
 30
0.0
 10
-896.359
 20
430.7553
 30
0.0
 10
-886.2102
 20
434.441
 30
0.0
 10
-877.4674
 20
443.055
 30
0.0
 10
-868.6541
 20
451.7215
 30
0.0
 10
-862.0808
 20
465.5488
 30
0.0
 10
-859.0068
 20
481.8624
 30
0.0
 10
-855.682
 20
499.5761
 30
0.0
 10
-854.2236
 20
518.1325
 30
0.0
 10
-854.7078
 20
536.6809
 30
0.0
 10
-855.4075
 20
562.7888
 30
0.0
 10
-866.6171
 20
584.7394
 30
0.0
 10
-881.9341
 20
589.9686
 30
0.0
  0
SPLINE
  5
75
330
1F
100
AcDbEntity
  8
Layer 1
 62
   250
370
    20
100
AcDbSpline
210
0.0
220
0.0
230
1.0
 70
    11
 71
     3
 72
   101
 73
    97
 74
     0
 42
0.0000000001
 43
0.0000000001
 40
0.0
 40
0.0
 40
0.0
 40
0.0
 40
0.03125
 40
0.03125
 40
0.03125
 40
0.0625
 40
0.0625
 40
0.0625
 40
0.09375
 40
0.09375
 40
0.09375
 40
0.125
 40
0.125
 40
0.125
 40
0.15625
 40
0.15625
 40
0.15625
 40
0.1875
 40
0.1875
 40
0.1875
 40
0.21875
 40
0.21875
 40
0.21875
 40
0.25
 40
0.25
 40
0.25
 40
0.28125
 40
0.28125
 40
0.28125
 40
0.3125
 40
0.3125
 40
0.3125
 40
0.34375
 40
0.34375
 40
0.34375
 40
0.375
 40
0.375
 40
0.375
 40
0.40625
 40
0.40625
 40
0.40625
 40
0.4375
 40
0.4375
 40
0.4375
 40
0.46875
 40
0.46875
 40
0.46875
 40
0.5
 40
0.5
 40
0.5
 40
0.53125
 40
0.53125
 40
0.53125
 40
0.5625
 40
0.5625
 40
0.5625
 40
0.59375
 40
0.59375
 40
0.59375
 40
0.625
 40
0.625
 40
0.625
 40
0.65625
 40
0.65625
 40
0.65625
 40
0.6875
 40
0.6875
 40
0.6875
 40
0.71875
 40
0.71875
 40
0.71875
 40
0.75
 40
0.75
 40
0.75
 40
0.78125
 40
0.78125
 40
0.78125
 40
0.8125
 40
0.8125
 40
0.8125
 40
0.84375
 40
0.84375
 40
0.84375
 40
0.875
 40
0.875
 40
0.875
 40
0.90625
 40
0.90625
 40
0.90625
 40
0.9375
 40
0.9375
 40
0.9375
 40
0.96875
 40
0.96875
 40
0.96875
 40
1.0
 40
1.0
 40
1.0
 40
1.0
 10
-984.694
 20
589.9686
 30
0.0
 10
-994.7218
 20
572.2341
 30
0.0
 10
-1002.8297
 20
551.7601
 30
0.0
 10
-1008.6834
 20
529.4256
 30
0.0
 10
-1014.5636
 20
506.9652
 30
0.0
 10
-1017.3117
 20
482.5919
 30
0.0
 10
-1016.735
 20
458.1023
 30
0.0
 10
-1015.4987
 20
406.2816
 30
0.0
 10
-1003.3616
 20
356.8978
 30
0.0
 10
-982.4445
 20
318.589
 30
0.0
 10
-965.9494
 20
288.3684
 30
0.0
 10
-942.0183
 20
272.6186
 30
0.0
 10
-917.6077
 20
275.9874
 30
0.0
 10
-910.7399
 20
276.9319
 30
0.0
 10
-903.8568
 20
277.5945
 30
0.0
 10
-896.9737
 20
277.929
 30
0.0
 10
-890.1002
 20
278.3097
 30
0.0
 10
-883.2172
 20
278.8576
 30
0.0
 10
-876.3369
 20
279.6206
 30
0.0
 10
-878.6055
 20
263.9298
 30
0.0
 10
-881.9579
 20
248.7167
 30
0.0
 10
-886.3026
 20
234.3177
 30
0.0
 10
-897.1272
 20
198.406
 30
0.0
 10
-911.0754
 20
165.339
 30
0.0
 10
-927.6841
 20
136.251
 30
0.0
 10
-948.7507
 20
99.3151
 30
0.0
 10
-975.388
 20
72.4953
 30
0.0
 10
-1004.7638
 20
58.617
 30
0.0
 10
-1033.7544
 20
44.9012
 30
0.0
 10
-1063.6888
 20
37.5042
 30
0.0
 10
-1093.8033
 20
36.5947
 30
0.0
 10
-1127.8145
 20
35.561
 30
0.0
 10
-1159.6858
 20
64.3719
 30
0.0
 10
-1177.8081
 20
112.4495
 30
0.0
 10
-1195.7683
 20
160.1592
 30
0.0
 10
-1198.6431
 20
219.5698
 30
0.0
 10
-1185.5481
 20
271.4797
 30
0.0
 10
-1181.9974
 20
284.9789
 30
0.0
 10
-1176.9711
 20
297.2627
 30
0.0
 10
-1170.7258
 20
307.6383
 30
0.0
 10
-1164.4108
 20
318.1302
 30
0.0
 10
-1156.5335
 20
325.634
 30
0.0
 10
-1147.9166
 20
329.315
 30
0.0
 10
-1134.7776
 20
334.9456
 30
0.0
 10
-1120.981
 20
334.627
 30
0.0
 10
-1107.9469
 20
328.4214
 30
0.0
 10
-1094.7527
 20
322.1266
 30
0.0
 10
-1083.2495
 20
308.4522
 30
0.0
 10
-1075.3846
 20
289.6697
 30
0.0
 10
-1068.5216
 20
273.278
 30
0.0
 10
-1067.1232
 20
252.1604
 30
0.0
 10
-1071.6833
 20
233.671
 30
0.0
 10
-1076.619
 20
213.5553
 30
0.0
 10
-1090.1363
 20
203.4154
 30
0.0
 10
-1102.4212
 20
210.5337
 30
0.0
 10
-1106.56
 20
213.044
 30
0.0
 10
-1110.2871
 20
217.206
 30
0.0
 10
-1113.2353
 20
222.663
 30
0.0
 10
-1116.2303
 20
228.1519
 30
0.0
 10
-1118.0909
 20
235.1141
 30
0.0
 10
-1118.5675
 20
242.5095
 30
0.0
 10
-1123.8483
 20
241.4774
 30
0.0
 10
-1128.7801
 20
237.6355
 30
0.0
 10
-1132.633
 20
231.5382
 30
0.0
 10
-1136.5449
 20
225.3278
 30
0.0
 10
-1138.762
 20
216.7202
 30
0.0
 10
-1138.7516
 20
207.7033
 30
0.0
 10
-1138.7067
 20
181.4982
 30
0.0
 10
-1131.2146
 20
156.9035
 30
0.0
 10
-1118.5513
 20
141.4276
 30
0.0
 10
-1105.9233
 20
125.9598
 30
0.0
 10
-1089.7313
 20
121.398
 30
0.0
 10
-1074.7679
 20
129.2187
 30
0.0
 10
-1045.6561
 20
144.4285
 30
0.0
 10
-1023.639
 20
184.4609
 30
0.0
 10
-1017.0553
 20
234.2396
 30
0.0
 10
-1015.2452
 20
247.8662
 30
0.0
 10
-1014.2748
 20
261.762
 30
0.0
 10
-1014.1671
 20
275.7214
 30
0.0
 10
-1013.8888
 20
310.2505
 30
0.0
 10
-1022.6563
 20
343.2378
 30
0.0
 10
-1038.162
 20
366.0374
 30
0.0
 10
-1070.8912
 20
414.1342
 30
0.0
 10
-1115.2285
 20
433.6303
 30
0.0
 10
-1157.8843
 20
418.6705
 30
0.0
 10
-1171.5017
 20
413.8793
 30
0.0
 10
-1183.9429
 20
402.3935
 30
0.0
 10
-1193.6008
 20
385.653
 30
0.0
 10
-1196.08
 20
381.354
 30
0.0
 10
-1198.24
 20
376.5723
 30
0.0
 10
-1200.0501
 20
371.4227
 30
0.0
 10
-1200.0501
 20
371.4227
 30
0.0
 10
-1200.0501
 20
589.9686
 30
0.0
 10
-1200.0501
 20
589.9686
 30
0.0
 10
-1200.0501
 20
589.9686
 30
0.0
 10
-984.694
 20
589.9686
 30
0.0
 10
-984.694
 20
589.9686
 30
0.0
  0
SPLINE
  5
76
330
1F
100
AcDbEntity
  8
Layer 1
 62
   250
370
    20
100
AcDbSpline
210
0.0
220
0.0
230
1.0
 70
    11
 71
     3
 72
    29
 73
    25
 74
     0
 42
0.0000000001
 43
0.0000000001
 40
0.0
 40
0.0
 40
0.0
 40
0.0
 40
0.125
 40
0.125
 40
0.125
 40
0.25
 40
0.25
 40
0.25
 40
0.375
 40
0.375
 40
0.375
 40
0.5
 40
0.5
 40
0.5
 40
0.625
 40
0.625
 40
0.625
 40
0.75
 40
0.75
 40
0.75
 40
0.875
 40
0.875
 40
0.875
 40
1.0
 40
1.0
 40
1.0
 40
1.0
 10
-1095.4781
 20
-119.6799
 30
0.0
 10
-1069.8427
 20
-110.3333
 30
0.0
 10
-1044.6534
 20
-97.8615
 30
0.0
 10
-1020.1056
 20
-82.3522
 30
0.0
 10
-995.3766
 20
-66.7363
 30
0.0
 10
-972.6142
 20
-43.5416
 30
0.0
 10
-952.9782
 20
-13.963
 30
0.0
 10
-942.7989
 20
1.4093
 30
0.0
 10
-933.2069
 20
17.8536
 30
0.0
 10
-924.2954
 20
35.2886
 30
0.0
 10
-920.6265
 20
10.842
 30
0.0
 10
-920.2062
 20
-14.667
 30
0.0
 10
-923.0744
 20
-39.4226
 30
0.0
 10
-925.9291
 20
-64.0826
 30
0.0
 10
-931.3825
 20
-87.7025
 30
0.0
 10
-939.1825
 20
-109.1482
 30
0.0
 10
-957.8586
 20
-159.5976
 30
0.0
 10
-989.6402
 20
-192.5291
 30
0.0
 10
-1024.9821
 20
-198.1215
 30
0.0
 10
-1047.084
 20
-201.605
 30
0.0
 10
-1068.7493
 20
-185.981
 30
0.0
 10
-1082.4039
 20
-156.7464
 30
0.0
 10
-1087.7047
 20
-145.388
 30
0.0
 10
-1092.1066
 20
-132.9258
 30
0.0
 10
-1095.4781
 20
-119.6799
 30
0.0
  0
SPLINE
  5
77
330
1F
100
AcDbEntity
  8
Layer 1
 62
   250
370
    20
100
AcDbSpline
210
0.0
220
0.0
230
1.0
 70
    11
 71
     3
 72
    26
 73
    22
 74
     0
 42
0.0000000001
 43
0.0000000001
 40
0.0
 40
0.0
 40
0.0
 40
0.0
 40
0.1428571428571428
 40
0.1428571428571428
 40
0.1428571428571428
 40
0.2857142857142857
 40
0.2857142857142857
 40
0.2857142857142857
 40
0.4285714285714285
 40
0.4285714285714285
 40
0.4285714285714285
 40
0.5714285714285714
 40
0.5714285714285714
 40
0.5714285714285714
 40
0.7142857142857142
 40
0.7142857142857142
 40
0.7142857142857142
 40
0.8571428571428571
 40
0.8571428571428571
 40
0.8571428571428571
 40
1.0
 40
1.0
 40
1.0
 40
1.0
 10
-1200.0501
 20
-41.6653
 30
0.0
 10
-1200.0501
 20
-41.6653
 30
0.0
 10
-1200.0501
 20
59.4341
 30
0.0
 10
-1200.0501
 20
59.4341
 30
0.0
 10
-1187.0722
 20
32.5553
 30
0.0
 10
-1170.926
 20
10.4088
 30
0.0
 10
-1152.6102
 20
-5.5911
 30
0.0
 10
-1134.3802
 20
-21.5273
 30
0.0
 10
-1114.8186
 20
-32.7391
 30
0.0
 10
-1094.5763
 20
-38.8492
 30
0.0
 10
-1099.0593
 20
-42.9077
 30
0.0
 10
-1103.7719
 20
-46.2207
 30
0.0
 10
-1108.639
 20
-48.7788
 30
0.0
 10
-1122.5929
 20
-56.0643
 30
0.0
 10
-1137.0443
 20
-60.4398
 30
0.0
 10
-1151.6417
 20
-61.8176
 30
0.0
 10
-1164.4108
 20
-63.0154
 30
0.0
 10
-1177.1799
 20
-59.6657
 30
0.0
 10
-1189.1064
 20
-51.9899
 30
0.0
 10
-1193.045
 20
-49.4748
 30
0.0
 10
-1196.7358
 20
-46.0057
 30
0.0
 10
-1200.0501
 20
-41.6653
 30
0.0
  0
SPLINE
  5
78
330
1F
100
AcDbEntity
  8
Layer 1
 62
   250
370
    20
100
AcDbSpline
210
0.0
220
0.0
230
1.0
 70
     8
 71
     3
 72
    86
 73
    82
 74
     0
 42
0.0000000001
 43
0.0000000001
 40
0.0
 40
0.0
 40
0.0
 40
0.0
 40
0.037037037037037
 40
0.037037037037037
 40
0.037037037037037
 40
0.0740740740740741
 40
0.0740740740740741
 40
0.0740740740740741
 40
0.1111111111111111
 40
0.1111111111111111
 40
0.1111111111111111
 40
0.1481481481481481
 40
0.1481481481481481
 40
0.1481481481481481
 40
0.1851851851851852
 40
0.1851851851851852
 40
0.1851851851851852
 40
0.2222222222222222
 40
0.2222222222222222
 40
0.2222222222222222
 40
0.2592592592592592
 40
0.2592592592592592
 40
0.2592592592592592
 40
0.2962962962962963
 40
0.2962962962962963
 40
0.2962962962962963
 40
0.3333333333333333
 40
0.3333333333333333
 40
0.3333333333333333
 40
0.3703703703703703
 40
0.3703703703703703
 40
0.3703703703703703
 40
0.4074074074074074
 40
0.4074074074074074
 40
0.4074074074074074
 40
0.4444444444444444
 40
0.4444444444444444
 40
0.4444444444444444
 40
0.4814814814814815
 40
0.4814814814814815
 40
0.4814814814814815
 40
0.5185185185185185
 40
0.5185185185185185
 40
0.5185185185185185
 40
0.5555555555555556
 40
0.5555555555555556
 40
0.5555555555555556
 40
0.5925925925925926
 40
0.5925925925925926
 40
0.5925925925925926
 40
0.6296296296296295
 40
0.6296296296296295
 40
0.6296296296296295
 40
0.6666666666666666
 40
0.6666666666666666
 40
0.6666666666666666
 40
0.7037037037037037
 40
0.7037037037037037
 40
0.7037037037037037
 40
0.7407407407407407
 40
0.7407407407407407
 40
0.7407407407407407
 40
0.7777777777777777
 40
0.7777777777777777
 40
0.7777777777777777
 40
0.8148148148148148
 40
0.8148148148148148
 40
0.8148148148148148
 40
0.8518518518518519
 40
0.8518518518518519
 40
0.8518518518518519
 40
0.8888888888888888
 40
0.8888888888888888
 40
0.8888888888888888
 40
0.9259259259259258
 40
0.9259259259259258
 40
0.9259259259259258
 40
0.9629629629629629
 40
0.9629629629629629
 40
0.9629629629629629
 40
1.0
 40
1.0
 40
1.0
 40
1.0
 10
-1200.0501
 20
-317.567
 30
0.0
 10
-1187.8586
 20
-312.3139
 30
0.0
 10
-1175.4365
 20
-308.6679
 30
0.0
 10
-1162.8991
 20
-306.6275
 30
0.0
 10
-1135.7928
 20
-302.2504
 30
0.0
 10
-1109.3519
 20
-322.5095
 30
0.0
 10
-1093.626
 20
-359.6365
 30
0.0
 10
-1084.0759
 20
-382.1812
 30
0.0
 10
-1078.6493
 20
-408.8706
 30
0.0
 10
-1078.0088
 20
-436.4613
 30
0.0
 10
-1077.6122
 20
-453.4679
 30
0.0
 10
-1081.5327
 20
-469.936
 30
0.0
 10
-1088.8066
 20
-481.8121
 30
0.0
 10
-1096.0986
 20
-493.6786
 30
0.0
 10
-1106.1044
 20
-499.83
 30
0.0
 10
-1116.2579
 20
-498.7262
 30
0.0
 10
-1118.4931
 20
-498.4522
 30
0.0
 10
-1120.7208
 20
-497.745
 30
0.0
 10
-1122.8751
 20
-496.6014
 30
0.0
 10
-1125.0141
 20
-495.4721
 30
0.0
 10
-1127.052
 20
-493.8092
 30
0.0
 10
-1128.9098
 20
-491.678
 30
0.0
 10
-1125.6384
 20
-478.6647
 30
0.0
 10
-1123.5918
 20
-464.9027
 30
0.0
 10
-1122.8645
 20
-450.8317
 30
0.0
 10
-1121.7283
 20
-428.8779
 30
0.0
 10
-1126.5182
 20
-407.2458
 30
0.0
 10
-1135.933
 20
-391.8258
 30
0.0
 10
-1140.6818
 20
-384.0704
 30
0.0
 10
-1146.6575
 20
-378.7885
 30
0.0
 10
-1153.1601
 20
-376.6287
 30
0.0
 10
-1161.6447
 20
-373.8062
 30
0.0
 10
-1170.4418
 20
-375.9358
 30
0.0
 10
-1178.0969
 20
-382.6782
 30
0.0
 10
-1186.1391
 20
-389.7758
 30
0.0
 10
-1191.0442
 20
-403.9487
 30
0.0
 10
-1190.6706
 20
-419.157
 30
0.0
 10
-1190.1463
 20
-442.3372
 30
0.0
 10
-1188.176
 20
-465.3838
 30
0.0
 10
-1184.7979
 20
-487.9078
 30
0.0
 10
-1182.0546
 20
-506.2475
 30
0.0
 10
-1174.7063
 20
-521.6947
 30
0.0
 10
-1164.6396
 20
-530.3006
 30
0.0
 10
-1143.6815
 20
-548.2119
 30
0.0
 10
-1119.2805
 20
-551.1714
 30
0.0
 10
-1096.9937
 20
-538.4814
 30
0.0
 10
-1051.0513
 20
-512.2763
 30
0.0
 10
-1010.0531
 20
-466.4095
 30
0.0
 10
-978.0845
 20
-405.3584
 30
0.0
 10
-955.9188
 20
-363.0643
 30
0.0
 10
-938.8994
 20
-313.9895
 30
0.0
 10
-927.9423
 20
-260.8435
 30
0.0
 10
-925.4211
 20
-247.9815
 30
0.0
 10
-923.3641
 20
-234.8726
 30
0.0
 10
-921.7865
 20
-221.5853
 30
0.0
 10
-920.2062
 20
-208.2901
 30
0.0
 10
-919.332
 20
-194.802
 30
0.0
 10
-919.1662
 20
-181.2471
 30
0.0
 10
-923.1344
 20
-193.1646
 30
0.0
 10
-928.2921
 20
-203.8604
 30
0.0
 10
-934.427
 20
-212.8184
 30
0.0
 10
-951.5503
 20
-237.8639
 30
0.0
 10
-972.5064
 20
-254.4404
 30
0.0
 10
-994.9496
 20
-260.7001
 30
0.0
 10
-1025.4425
 20
-269.1915
 30
0.0
 10
-1056.7219
 20
-265.0565
 30
0.0
 10
-1086.0347
 20
-248.652
 30
0.0
 10
-1107.4322
 20
-236.6789
 30
0.0
 10
-1124.5479
 20
-209.4177
 30
0.0
 10
-1132.7445
 20
-174.2802
 30
0.0
 10
-1135.8243
 20
-161.0885
 30
0.0
 10
-1137.7574
 20
-147.1895
 30
0.0
 10
-1138.5161
 20
-133.0804
 30
0.0
 10
-1148.7745
 20
-136.9891
 30
0.0
 10
-1159.3236
 20
-138.3621
 30
0.0
 10
-1169.8288
 20
-137.1802
 30
0.0
 10
-1180.3922
 20
-136.0063
 30
0.0
 10
-1190.683
 20
-131.1482
 30
0.0
 10
-1200.0501
 20
-122.9213
 30
0.0
 10
-1200.0501
 20
-122.9213
 30
0.0
 10
-1200.0501
 20
-317.5622
 30
0.0
 10
-1200.0501
 20
-317.5622
 30
0.0
  0
ENDSEC
  0
SECTION
  2
OBJECTS
  0
DICTIONARY
  5
C
330
0
100
AcDbDictionary
281
     1
  3
ACAD_DETAILVIEWSTYLE
350
80
  3
ACAD_GROUP
350
D
  3
ACAD_LAYOUT
350
1A
  3
ACAD_MATERIAL
350
43
  3
ACAD_MLEADERSTYLE
350
5B
  3
ACAD_MLINESTYLE
350
17
  3
ACAD_PLOTSETTINGS
350
19
  3
ACAD_PLOTSTYLENAME
350
E
  3
ACAD_SCALELIST
350
47
  3
ACAD_SECTIONVIEWSTYLE
350
81
  3
ACAD_TABLESTYLE
350
59
  3
ACAD_VISUALSTYLE
350
2A
  3
ACDB_RECOMPOSE_DATA
350
7D
  3
AcDbVariableDictionary
350
79
  0
SUN
  5
5D
330
29
100
AcDbSun
 90
        1
290
     0
 63
     7
421
 16777215
 40
1.0
291
     1
 91
  2455826
 92
 54000000
292
     0
 70
     2
 71
   256
280
     1
  0
DICTIONARY
  5
80
102
{ACAD_REACTORS
330
C
102
}
330
C
100
AcDbDictionary
281
     1
  0
DICTIONARY
  5
D
102
{ACAD_REACTORS
330
C
102
}
330
C
100
AcDbDictionary
281
     1
  0
DICTIONARY
  5
1A
102
{ACAD_REACTORS
330
C
102
}
330
C
100
AcDbDictionary
281
     1
  3
Layout1
350
1E
  3
Layout2
350
26
  3
Model
350
22
  0
DICTIONARY
  5
43
102
{ACAD_REACTORS
330
C
102
}
330
C
100
AcDbDictionary
281
     1
  3
ByBlock
350
45
  3
ByLayer
350
44
  3
Global
350
46
  0
DICTIONARY
  5
5B
102
{ACAD_REACTORS
330
C
102
}
330
C
100
AcDbDictionary
281
     1
  3
Standard
350
5C
  0
DICTIONARY
  5
17
102
{ACAD_REACTORS
330
C
102
}
330
C
100
AcDbDictionary
281
     1
  3
Standard
350
18
  0
DICTIONARY
  5
19
102
{ACAD_REACTORS
330
C
102
}
330
C
100
AcDbDictionary
281
     1
  0
ACDBDICTIONARYWDFLT
  5
E
102
{ACAD_REACTORS
330
C
102
}
330
C
100
AcDbDictionary
281
     1
  3
Normal
350
F
100
AcDbDictionaryWithDefault
340
F
  0
DICTIONARY
  5
47
102
{ACAD_REACTORS
330
C
102
}
330
C
100
AcDbDictionary
281
     1
  3
A0
350
48
  3
A1
350
49
  3
A2
350
4A
  3
A3
350
4B
  3
A4
350
4C
  3
A5
350
4D
  3
A6
350
4E
  3
A7
350
4F
  3
A8
350
50
  3
A9
350
51
  3
B1
350
52
  3
B2
350
53
  3
B3
350
54
  3
B4
350
55
  3
B5
350
56
  3
B6
350
57
  3
B7
350
58
  0
DICTIONARY
  5
81
102
{ACAD_REACTORS
330
C
102
}
330
C
100
AcDbDictionary
281
     1
  0
DICTIONARY
  5
59
102
{ACAD_REACTORS
330
C
102
}
330
C
100
AcDbDictionary
281
     1
  3
Standard
350
5A
  0
DICTIONARY
  5
2A
102
{ACAD_REACTORS
330
C
102
}
330
C
100
AcDbDictionary
281
     1
  3
2dWireframe
350
2F
  3
Basic
350
32
  3
Brighten
350
36
  3
ColorChange
350
3A
  3
Conceptual
350
34
  3
Dim
350
35
  3
EdgeColorOff
350
3D
  3
Facepattern
350
39
  3
Flat
350
2B
  3
FlatWithEdges
350
2C
  3
Gouraud
350
2D
  3
GouraudWithEdges
350
2E
  3
Hidden
350
31
  3
JitterOff
350
3B
  3
Linepattern
350
38
  3
OverhangOff
350
3C
  3
Realistic
350
33
  3
Shaded
350
42
  3
Shaded with edges
350
41
  3
Shades of Gray
350
3E
  3
Sketchy
350
3F
  3
Thicken
350
37
  3
Wireframe
350
30
  3
X-Ray
350
40
  0
XRECORD
  5
7D
102
{ACAD_REACTORS
330
C
102
}
330
C
100
AcDbXrecord
280
     1
 90
        1
330
5A
  0
DICTIONARY
  5
79
102
{ACAD_REACTORS
330
C
102
}
330
C
100
AcDbDictionary
281
     1
  3
CANNOSCALE
350
7A
  3
CMLEADERSTYLE
350
7F
  3
CTABLESTYLE
350
7E
  0
LAYOUT
  5
1E
102
{ACAD_REACTORS
330
1A
102
}
330
1A
100
AcDbPlotSettings
  1

  2
none_device
  4

  6

 40
0.0
 41
0.0
 42
0.0
 43
0.0
 44
0.0
 45
0.0
 46
0.0
 47
0.0
 48
0.0
 49
0.0
140
0.0
141
0.0
142
1.0
143
1.0
 70
   688
 72
     0
 73
     0
 74
     5
  7

 75
    16
 76
     0
 77
     2
 78
   300
147
1.0
148
0.0
149
0.0
100
AcDbLayout
  1
Layout1
 70
     1
 71
     1
 10
0.0
 20
0.0
 11
12.0
 21
9.0
 12
0.0
 22
0.0
 32
0.0
 14
1.000000000000000E+20
 24
1.000000000000000E+20
 34
1.000000000000000E+20
 15
-1.000000000000000E+20
 25
-1.000000000000000E+20
 35
-1.000000000000000E+20
146
0.0
 13
0.0
 23
0.0
 33
0.0
 16
1.0
 26
0.0
 36
0.0
 17
0.0
 27
1.0
 37
0.0
 76
     0
330
1B
  0
LAYOUT
  5
26
102
{ACAD_REACTORS
330
1A
102
}
330
1A
100
AcDbPlotSettings
  1

  2
none_device
  4

  6

 40
0.0
 41
0.0
 42
0.0
 43
0.0
 44
0.0
 45
0.0
 46
0.0
 47
0.0
 48
0.0
 49
0.0
140
0.0
141
0.0
142
1.0
143
1.0
 70
   688
 72
     0
 73
     0
 74
     5
  7

 75
    16
 76
     0
 77
     2
 78
   300
147
1.0
148
0.0
149
0.0
100
AcDbLayout
  1
Layout2
 70
     1
 71
     2
 10
0.0
 20
0.0
 11
0.0
 21
0.0
 12
0.0
 22
0.0
 32
0.0
 14
0.0
 24
0.0
 34
0.0
 15
0.0
 25
0.0
 35
0.0
146
0.0
 13
0.0
 23
0.0
 33
0.0
 16
1.0
 26
0.0
 36
0.0
 17
0.0
 27
1.0
 37
0.0
 76
     0
330
23
  0
LAYOUT
  5
22
102
{ACAD_REACTORS
330
1A
102
}
330
1A
100
AcDbPlotSettings
  1

  2
none_device
  4
Letter_(8.50_x_11.00_Inches)
  6

 40
6.35
 41
6.35
 42
6.35000508
 43
6.35000508
 44
215.9
 45
279.4
 46
0.0
 47
0.0
 48
0.0
 49
0.0
140
0.0
141
0.0
142
1.0
143
1.0
 70
  1712
 72
     0
 73
     0
 74
     0
  7

 75
     0
 76
     0
 77
     2
 78
   300
147
1.0
148
0.0
149
0.0
100
AcDbLayout
  1
Model
 70
     1
 71
     0
 10
0.0
 20
0.0
 11
12.0
 21
9.0
 12
0.0
 22
0.0
 32
0.0
 14
-1200.1501
 24
-590.1266
 34
0.0
 15
1200.05
 25
590.0686
 35
0.0
146
0.0
 13
0.0
 23
0.0
 33
0.0
 16
1.0
 26
0.0
 36
0.0
 17
0.0
 27
1.0
 37
0.0
 76
     0
330
1F
331
29
  0
MATERIAL
  5
45
102
{ACAD_REACTORS
330
43
102
}
330
43
100
AcDbMaterial
  1
ByBlock
 72
     1
 94
      127
  0
MATERIAL
  5
44
102
{ACAD_REACTORS
330
43
102
}
330
43
100
AcDbMaterial
  1
ByLayer
 72
     1
 94
      127
  0
MATERIAL
  5
46
102
{ACAD_REACTORS
330
43
102
}
330
43
100
AcDbMaterial
  1
Global
 72
     1
 94
      127
  0
MLEADERSTYLE
  5
5C
102
{ACAD_REACTORS
330
5B
102
}
330
5B
100
AcDbMLeaderStyle
179
     2
170
     2
171
     1
172
     0
 90
        2
 40
0.0
 41
0.0
173
     1
 91
-1056964608
340
14
 92
       -2
290
     1
 42
0.09
291
     1
 43
0.36
  3
Standard
341
0
 44
0.18
300

342
11
174
     1
178
     6
175
     1
176
     0
 93
-1056964608
 45
0.18
292
     0
297
     0
 46
0.18
343
0
 94
-1056964608
 47
1.0
 49
1.0
140
1.0
293
     1
141
0.0
294
     1
177
     0
142
1.0
295
     0
296
     0
143
0.125
271
     0
272
     9
273
     9
298
     0
  0
MLINESTYLE
  5
18
102
{ACAD_REACTORS
330
17
102
}
330
17
100
AcDbMlineStyle
  2
Standard
 70
     0
  3

 62
   256
 51
90.0
 52
90.0
 71
     2
 49
0.5
 62
   256
  6
BYLAYER
 49
-0.5
 62
   256
  6
BYLAYER
  0
ACDBPLACEHOLDER
  5
F
102
{ACAD_REACTORS
330
E
102
}
330
E
  0
SCALE
  5
48
102
{ACAD_REACTORS
330
47
102
}
330
47
100
AcDbScale
 70
     0
300
1:1
140
1.0
141
1.0
290
     1
  0
SCALE
  5
49
102
{ACAD_REACTORS
330
47
102
}
330
47
100
AcDbScale
 70
     0
300
1/128" = 1'-0"
140
0.0078125
141
12.0
290
     0
  0
SCALE
  5
4A
102
{ACAD_REACTORS
330
47
102
}
330
47
100
AcDbScale
 70
     0
300
1/64" = 1'-0"
140
0.015625
141
12.0
290
     0
  0
SCALE
  5
4B
102
{ACAD_REACTORS
330
47
102
}
330
47
100
AcDbScale
 70
     0
300
1/32" = 1'-0"
140
0.03125
141
12.0
290
     0
  0
SCALE
  5
4C
102
{ACAD_REACTORS
330
47
102
}
330
47
100
AcDbScale
 70
     0
300
1/16" = 1'-0"
140
0.0625
141
12.0
290
     0
  0
SCALE
  5
4D
102
{ACAD_REACTORS
330
47
102
}
330
47
100
AcDbScale
 70
     0
300
3/32" = 1'-0"
140
0.09375
141
12.0
290
     0
  0
SCALE
  5
4E
102
{ACAD_REACTORS
330
47
102
}
330
47
100
AcDbScale
 70
     0
300
1/8" = 1'-0"
140
0.125
141
12.0
290
     0
  0
SCALE
  5
4F
102
{ACAD_REACTORS
330
47
102
}
330
47
100
AcDbScale
 70
     0
300
3/16" = 1'-0"
140
0.1875
141
12.0
290
     0
  0
SCALE
  5
50
102
{ACAD_REACTORS
330
47
102
}
330
47
100
AcDbScale
 70
     0
300
1/4" = 1'-0"
140
0.25
141
12.0
290
     0
  0
SCALE
  5
51
102
{ACAD_REACTORS
330
47
102
}
330
47
100
AcDbScale
 70
     0
300
3/8" = 1'-0"
140
0.375
141
12.0
290
     0
  0
SCALE
  5
52
102
{ACAD_REACTORS
330
47
102
}
330
47
100
AcDbScale
 70
     0
300
1/2" = 1'-0"
140
0.5
141
12.0
290
     0
  0
SCALE
  5
53
102
{ACAD_REACTORS
330
47
102
}
330
47
100
AcDbScale
 70
     0
300
3/4" = 1'-0"
140
0.75
141
12.0
290
     0
  0
SCALE
  5
54
102
{ACAD_REACTORS
330
47
102
}
330
47
100
AcDbScale
 70
     0
300
1" = 1'-0"
140
1.0
141
12.0
290
     0
  0
SCALE
  5
55
102
{ACAD_REACTORS
330
47
102
}
330
47
100
AcDbScale
 70
     0
300
1-1/2" = 1'-0"
140
1.5
141
12.0
290
     0
  0
SCALE
  5
56
102
{ACAD_REACTORS
330
47
102
}
330
47
100
AcDbScale
 70
     0
300
3" = 1'-0"
140
3.0
141
12.0
290
     0
  0
SCALE
  5
57
102
{ACAD_REACTORS
330
47
102
}
330
47
100
AcDbScale
 70
     0
300
6" = 1'-0"
140
6.0
141
12.0
290
     0
  0
SCALE
  5
58
102
{ACAD_REACTORS
330
47
102
}
330
47
100
AcDbScale
 70
     0
300
1'-0" = 1'-0"
140
12.0
141
12.0
290
     0
  0
TABLESTYLE
  5
5A
102
{ACAD_REACTORS
330
59
102
}
102
{ACAD_XDICTIONARY
360
7B
102
}
330
59
100
AcDbTableStyle
  3
Standard
 70
     0
 71
     0
 40
0.06
 41
0.06
280
     0
281
     0
  7
Standard
140
0.18
170
     2
 62
     0
 63
   257
283
     0
 90
        4
 91
        0
  1

274
    -2
284
     1
 64
     0
275
    -2
285
     1
 65
     0
276
    -2
286
     1
 66
     0
277
    -2
287
     1
 67
     0
278
    -2
288
     1
 68
     0
279
    -2
289
     1
 69
     0
  7
Standard
140
0.25
170
     5
 62
     0
 63
   257
283
     0
 90
        4
 91
        0
  1

274
    -2
284
     1
 64
     0
275
    -2
285
     1
 65
     0
276
    -2
286
     1
 66
     0
277
    -2
287
     1
 67
     0
278
    -2
288
     1
 68
     0
279
    -2
289
     1
 69
     0
  7
Standard
140
0.18
170
     5
 62
     0
 63
   257
283
     0
 90
        4
 91
        0
  1

274
    -2
284
     1
 64
     0
275
    -2
285
     1
 65
     0
276
    -2
286
     1
 66
     0
277
    -2
287
     1
 67
     0
278
    -2
288
     1
 68
     0
279
    -2
289
     1
 69
     0
  0
VISUALSTYLE
  5
2F
102
{ACAD_REACTORS
330
2A
102
}
330
2A
100
AcDbVisualStyle
  2
2dWireframe
 70
     4
177
     3
291
     0
 70
    58
 90
        0
176
     1
 90
        2
176
     1
 90
        0
176
     1
 90
        0
176
     1
 40
0.6
176
     1
 40
30.0
176
     1
 62
     7
420
 16777215
176
     1
 90
        1
176
     1
 90
        4
176
     1
 62
     7
176
     1
 62
   257
176
     1
 90
        1
176
     1
 90
        1
176
     1
 40
1.0
176
     1
 90
        0
176
     1
 62
   257
176
     1
 40
1.0
176
     1
 90
        1
176
     1
 90
        6
176
     1
 90
        2
176
     1
 62
     7
176
     1
 90
        5
176
     1
 90
        0
176
     1
 90
        0
176
     1
290
     0
176
     1
 90
        1
176
     1
 40
0.0
176
     1
 90
        0
176
     1
290
     1
176
     1
290
     1
176
     1
290
     0
176
     1
290
     0
176
     1
290
     0
176
     1
290
     0
176
     1
290
     0
176
     1
290
     0
176
     1
290
     0
176
     1
 90
       50
176
     1
 40
0.0
176
     1
 40
1.0
176
     1
 90
        0
176
     1
 62
    18
420
        0
176
     1
 90
       50
176
     1
 90
        3
176
     1
 62
     5
420
      255
176
     1
290
     0
176
     1
 90
       50
176
     1
 90
       50
176
     1
 90
       50
176
     1
290
     0
176
     1
 90
       50
176
     1
 62
   256
176
     0
 40
1.0
176
     0
 90
        2
176
     1
  1
strokes_ogs.tif
176
     1
290
     0
176
     1
 40
1.0
176
     1
 40
1.0
176
     1
  0
VISUALSTYLE
  5
32
102
{ACAD_REACTORS
330
2A
102
}
330
2A
100
AcDbVisualStyle
  2
Basic
 70
     7
177
     3
291
     1
 70
    58
 90
        1
176
     1
 90
        0
176
     1
 90
        1
176
     1
 90
        0
176
     1
 40
0.6
176
     1
 40
30.0
176
     1
 62
     7
420
 16777215
176
     1
 90
        0
176
     1
 90
        4
176
     1
 62
     7
176
     1
 62
   257
176
     1
 90
        1
176
     1
 90
        1
176
     1
 40
1.0
176
     1
 90
        8
176
     1
 62
     7
176
     1
 40
1.0
176
     1
 90
        1
176
     1
 90
        6
176
     1
 90
        2
176
     1
 62
     7
176
     1
 90
        5
176
     1
 90
        0
176
     1
 90
        0
176
     1
290
     0
176
     1
 90
        1
176
     1
 40
0.0
176
     1
 90
        0
176
     1
290
     0
176
     1
290
     1
176
     1
290
     1
176
     1
290
     0
176
     1
290
     0
176
     1
290
     0
176
     1
290
     0
176
     1
290
     0
176
     1
290
     0
176
     1
 90
       50
176
     1
 40
0.0
176
     1
 40
1.0
176
     1
 90
        0
176
     1
 62
    18
420
        0
176
     1
 90
       50
176
     1
 90
        3
176
     1
 62
     5
420
      255
176
     1
290
     0
176
     1
 90
       50
176
     1
 90
       50
176
     1
 90
       50
176
     1
290
     0
176
     1
 90
       50
176
     1
 62
   256
176
     0
 40
1.0
176
     0
 90
        2
176
     1
  1
strokes_ogs.tif
176
     1
290
     0
176
     1
 40
1.0
176
     1
 40
1.0
176
     1
  0
VISUALSTYLE
  5
36
102
{ACAD_REACTORS
330
2A
102
}
330
2A
100
AcDbVisualStyle
  2
Brighten
 70
    12
177
     3
291
     1
 70
    58
 90
        2
176
     1
 90
        2
176
     1
 90
        0
176
     1
 90
        0
176
     1
 40
0.6
176
     1
 40
30.0
176
     1
 62
     7
420
 16777215
176
     1
 90
        1
176
     1
 90
        4
176
     1
 62
     7
176
     1
 62
   257
176
     1
 90
        1
176
     1
 90
        1
176
     1
 40
1.0
176
     1
 90
        8
176
     1
 62
     7
176
     1
 40
1.0
176
     1
 90
        1
176
     1
 90
        6
176
     1
 90
        2
176
     1
 62
     7
176
     1
 90
        5
176
     1
 90
        0
176
     1
 90
        0
176
     1
290
     0
176
     1
 90
        1
176
     1
 40
50.0
176
     1
 90
        0
176
     1
290
     0
176
     1
290
     1
176
     1
290
     1
176
     1
290
     0
176
     1
290
     0
176
     1
290
     0
176
     1
290
     0
176
     1
290
     0
176
     1
290
     0
176
     1
 90
       50
176
     1
 40
0.0
176
     1
 40
1.0
176
     1
 90
        0
176
     1
 62
    18
420
        0
176
     1
 90
       50
176
     1
 90
        3
176
     1
 62
     5
420
      255
176
     1
290
     0
176
     1
 90
       50
176
     1
 90
       50
176
     1
 90
       50
176
     1
290
     0
176
     1
 90
       50
176
     1
 62
   256
176
     0
 40
1.0
176
     0
 90
        2
176
     1
  1
strokes_ogs.tif
176
     1
290
     0
176
     1
 40
1.0
176
     1
 40
1.0
176
     1
  0
VISUALSTYLE
  5
3A
102
{ACAD_REACTORS
330
2A
102
}
330
2A
100
AcDbVisualStyle
  2
ColorChange
 70
    16
177
     3
291
     1
 70
    58
 90
        2
176
     1
 90
        2
176
     1
 90
        3
176
     1
 90
        0
176
     1
 40
0.6
176
     1
 40
30.0
176
     1
 62
     8
420
  8421504
176
     1
 90
        1
176
     1
 90
        4
176
     1
 62
     7
176
     1
 62
   257
176
     1
 90
        1
176
     1
 90
        1
176
     1
 40
1.0
176
     1
 90
        8
176
     1
 62
     8
420
  8421504
176
     1
 40
1.0
176
     1
 90
        1
176
     1
 90
        6
176
     1
 90
        2
176
     1
 62
     7
176
     1
 90
        5
176
     1
 90
        0
176
     1
 90
        0
176
     1
290
     0
176
     1
 90
        1
176
     1
 40
0.0
176
     1
 90
        0
176
     1
290
     0
176
     1
290
     1
176
     1
290
     1
176
     1
290
     0
176
     1
290
     0
176
     1
290
     0
176
     1
290
     0
176
     1
290
     0
176
     1
290
     0
176
     1
 90
       50
176
     1
 40
0.0
176
     1
 40
1.0
176
     1
 90
        0
176
     1
 62
    18
420
        0
176
     1
 90
       50
176
     1
 90
        3
176
     1
 62
     5
420
      255
176
     1
290
     0
176
     1
 90
       50
176
     1
 90
       50
176
     1
 90
       50
176
     1
290
     0
176
     1
 90
       50
176
     1
 62
   256
176
     0
 40
1.0
176
     0
 90
        2
176
     1
  1
strokes_ogs.tif
176
     1
290
     0
176
     1
 40
1.0
176
     1
 40
1.0
176
     1
  0
VISUALSTYLE
  5
34
102
{ACAD_REACTORS
330
2A
102
}
330
2A
100
AcDbVisualStyle
  2
Conceptual
 70
     9
177
     3
291
     0
 70
    58
 90
        3
176
     1
 90
        2
176
     1
 90
        0
176
     1
 90
        0
176
     1
 40
0.6
176
     1
 40
30.0
176
     1
 62
     7
420
 16777215
176
     1
 90
        2
176
     1
 90
        2
176
     1
 62
     7
176
     1
 62
   257
176
     1
 90
        1
176
     1
 90
        1
176
     1
 40
179.0
176
     1
 90
        8
176
     1
 62
     7
176
     1
 40
1.0
176
     1
 90
        1
176
     1
 90
        6
176
     1
 90
        2
176
     1
 62
     7
176
     1
 90
        3
176
     1
 90
        0
176
     1
 90
        0
176
     1
290
     0
176
     1
 90
        1
176
     1
 40
0.0
176
     1
 90
        0
176
     1
290
     0
176
     1
290
     1
176
     1
290
     1
176
     1
290
     0
176
     1
290
     0
176
     1
290
     0
176
     1
290
     0
176
     1
290
     0
176
     1
290
     0
176
     1
 90
       50
176
     1
 40
0.0
176
     1
 40
1.0
176
     1
 90
        0
176
     1
 62
    18
420
        0
176
     1
 90
       50
176
     1
 90
        3
176
     1
 62
     5
420
      255
176
     1
290
     0
176
     1
 90
       50
176
     1
 90
       50
176
     1
 90
       50
176
     1
290
     0
176
     1
 90
       50
176
     1
 62
   256
176
     0
 40
1.0
176
     0
 90
        2
176
     1
  1
strokes_ogs.tif
176
     1
290
     0
176
     1
 40
1.0
176
     1
 40
1.0
176
     1
  0
VISUALSTYLE
  5
35
102
{ACAD_REACTORS
330
2A
102
}
330
2A
100
AcDbVisualStyle
  2
Dim
 70
    11
177
     3
291
     1
 70
    58
 90
        2
176
     1
 90
        2
176
     1
 90
        0
176
     1
 90
        0
176
     1
 40
0.6
176
     1
 40
30.0
176
     1
 62
     7
420
 16777215
176
     1
 90
        1
176
     1
 90
        4
176
     1
 62
     7
176
     1
 62
   257
176
     1
 90
        1
176
     1
 90
        1
176
     1
 40
1.0
176
     1
 90
        8
176
     1
 62
     7
176
     1
 40
1.0
176
     1
 90
        1
176
     1
 90
        6
176
     1
 90
        2
176
     1
 62
     7
176
     1
 90
        5
176
     1
 90
        0
176
     1
 90
        0
176
     1
290
     0
176
     1
 90
        1
176
     1
 40
-50.0
176
     1
 90
        0
176
     1
290
     0
176
     1
290
     1
176
     1
290
     1
176
     1
290
     0
176
     1
290
     0
176
     1
290
     0
176
     1
290
     0
176
     1
290
     0
176
     1
290
     0
176
     1
 90
       50
176
     1
 40
0.0
176
     1
 40
1.0
176
     1
 90
        0
176
     1
 62
    18
420
        0
176
     1
 90
       50
176
     1
 90
        3
176
     1
 62
     5
420
      255
176
     1
290
     0
176
     1
 90
       50
176
     1
 90
       50
176
     1
 90
       50
176
     1
290
     0
176
     1
 90
       50
176
     1
 62
   256
176
     0
 40
1.0
176
     0
 90
        2
176
     1
  1
strokes_ogs.tif
176
     1
290
     0
176
     1
 40
1.0
176
     1
 40
1.0
176
     1
  0
VISUALSTYLE
  5
3D
102
{ACAD_REACTORS
330
2A
102
}
330
2A
100
AcDbVisualStyle
  2
EdgeColorOff
 70
    22
177
     3
291
     1
 70
    58
 90
        2
176
     0
 90
        2
176
     0
 90
        0
176
     0
 90
        0
176
     0
 40
0.6
176
     0
 40
30.0
176
     0
 62
     7
420
 16777215
176
     0
 90
        1
176
     0
 90
        4
176
     0
 62
     7
176
     0
 62
   257
176
     0
 90
        1
176
     0
 90
        1
176
     0
 40
1.0
176
     0
 90
        8
176
     2
 62
     7
176
     0
 40
1.0
176
     0
 90
        1
176
     0
 90
        6
176
     0
 90
        2
176
     0
 62
     7
176
     0
 90
        5
176
     0
 90
        0
176
     0
 90
        0
176
     0
290
     0
176
     0
 90
        1
176
     0
 40
0.0
176
     0
 90
        0
176
     0
290
     0
176
     0
290
     1
176
     0
290
     1
176
     0
290
     0
176
     0
290
     0
176
     0
290
     0
176
     0
290
     0
176
     0
290
     0
176
     0
290
     0
176
     0
 90
       50
176
     0
 40
0.0
176
     0
 40
1.0
176
     0
 90
        0
176
     0
 62
    18
420
        0
176
     0
 90
       50
176
     0
 90
        3
176
     0
 62
     5
420
      255
176
     0
290
     0
176
     0
 90
       50
176
     0
 90
       50
176
     0
 90
       50
176
     0
290
     0
176
     0
 90
       50
176
     0
 62
   256
176
     0
 40
1.0
176
     0
 90
        2
176
     0
  1
strokes_ogs.tif
176
     0
290
     0
176
     0
 40
1.0
176
     0
 40
1.0
176
     0
  0
VISUALSTYLE
  5
39
102
{ACAD_REACTORS
330
2A
102
}
330
2A
100
AcDbVisualStyle
  2
Facepattern
 70
    15
177
     3
291
     1
 70
    58
 90
        2
176
     1
 90
        2
176
     1
 90
        0
176
     1
 90
        0
176
     1
 40
0.6
176
     1
 40
30.0
176
     1
 62
     7
420
 16777215
176
     1
 90
        1
176
     1
 90
        4
176
     1
 62
     7
176
     1
 62
   257
176
     1
 90
        1
176
     1
 90
        1
176
     1
 40
1.0
176
     1
 90
        8
176
     1
 62
     7
176
     1
 40
1.0
176
     1
 90
        1
176
     1
 90
        6
176
     1
 90
        2
176
     1
 62
     7
176
     1
 90
        5
176
     1
 90
        0
176
     1
 90
        0
176
     1
290
     0
176
     1
 90
        1
176
     1
 40
0.0
176
     1
 90
        0
176
     1
290
     0
176
     1
290
     1
176
     1
290
     1
176
     1
290
     0
176
     1
290
     0
176
     1
290
     0
176
     1
290
     0
176
     1
290
     0
176
     1
290
     0
176
     1
 90
       50
176
     1
 40
0.0
176
     1
 40
1.0
176
     1
 90
        0
176
     1
 62
    18
420
        0
176
     1
 90
       50
176
     1
 90
        3
176
     1
 62
     5
420
      255
176
     1
290
     0
176
     1
 90
       50
176
     1
 90
       50
176
     1
 90
       50
176
     1
290
     0
176
     1
 90
       50
176
     1
 62
   256
176
     0
 40
1.0
176
     0
 90
        2
176
     1
  1
strokes_ogs.tif
176
     1
290
     0
176
     1
 40
1.0
176
     1
 40
1.0
176
     1
  0
VISUALSTYLE
  5
2B
102
{ACAD_REACTORS
330
2A
102
}
330
2A
100
AcDbVisualStyle
  2
Flat
 70
     0
177
     3
291
     1
 70
    58
 90
        2
176
     1
 90
        1
176
     1
 90
        1
176
     1
 90
        2
176
     1
 40
0.6
176
     1
 40
30.0
176
     1
 62
     7
420
 16777215
176
     1
 90
        0
176
     1
 90
        0
176
     1
 62
     7
176
     1
 62
   257
176
     1
 90
        1
176
     1
 90
        1
176
     1
 40
1.0
176
     1
 90
        8
176
     1
 62
     7
176
     1
 40
1.0
176
     1
 90
        1
176
     1
 90
        6
176
     1
 90
        2
176
     1
 62
     7
176
     1
 90
        5
176
     1
 90
        0
176
     1
 90
        0
176
     1
290
     0
176
     1
 90
       13
176
     1
 40
0.0
176
     1
 90
        0
176
     1
290
     0
176
     1
290
     1
176
     1
290
     1
176
     1
290
     0
176
     1
290
     0
176
     1
290
     0
176
     1
290
     0
176
     1
290
     0
176
     1
290
     0
176
     1
 90
       50
176
     1
 40
0.0
176
     1
 40
1.0
176
     1
 90
        0
176
     1
 62
    18
420
        0
176
     1
 90
       50
176
     1
 90
        3
176
     1
 62
     5
420
      255
176
     1
290
     0
176
     1
 90
       50
176
     1
 90
       50
176
     1
 90
       50
176
     1
290
     0
176
     1
 90
       50
176
     1
 62
   256
176
     0
 40
1.0
176
     0
 90
        2
176
     1
  1
strokes_ogs.tif
176
     1
290
     0
176
     1
 40
1.0
176
     1
 40
1.0
176
     1
  0
VISUALSTYLE
  5
2C
102
{ACAD_REACTORS
330
2A
102
}
330
2A
100
AcDbVisualStyle
  2
FlatWithEdges
 70
     1
177
     3
291
     1
 70
    58
 90
        2
176
     1
 90
        1
176
     1
 90
        1
176
     1
 90
        2
176
     1
 40
0.6
176
     1
 40
30.0
176
     1
 62
     7
420
 16777215
176
     1
 90
        1
176
     1
 90
        0
176
     1
 62
     7
176
     1
 62
   257
176
     1
 90
        1
176
     1
 90
        1
176
     1
 40
1.0
176
     1
 90
        0
176
     1
 62
   257
176
     1
 40
1.0
176
     1
 90
        1
176
     1
 90
        6
176
     1
 90
        2
176
     1
 62
     7
176
     1
 90
        5
176
     1
 90
        0
176
     1
 90
        0
176
     1
290
     0
176
     1
 90
       13
176
     1
 40
0.0
176
     1
 90
        0
176
     1
290
     0
176
     1
290
     1
176
     1
290
     1
176
     1
290
     0
176
     1
290
     0
176
     1
290
     0
176
     1
290
     0
176
     1
290
     0
176
     1
290
     0
176
     1
 90
       50
176
     1
 40
0.0
176
     1
 40
1.0
176
     1
 90
        0
176
     1
 62
    18
420
        0
176
     1
 90
       50
176
     1
 90
        3
176
     1
 62
     5
420
      255
176
     1
290
     0
176
     1
 90
       50
176
     1
 90
       50
176
     1
 90
       50
176
     1
290
     0
176
     1
 90
       50
176
     1
 62
   256
176
     0
 40
1.0
176
     0
 90
        2
176
     1
  1
strokes_ogs.tif
176
     1
290
     0
176
     1
 40
1.0
176
     1
 40
1.0
176
     1
  0
VISUALSTYLE
  5
2D
102
{ACAD_REACTORS
330
2A
102
}
330
2A
100
AcDbVisualStyle
  2
Gouraud
 70
     2
177
     3
291
     1
 70
    58
 90
        2
176
     1
 90
        2
176
     1
 90
        1
176
     1
 90
        2
176
     1
 40
0.6
176
     1
 40
30.0
176
     1
 62
     7
420
 16777215
176
     1
 90
        0
176
     1
 90
        0
176
     1
 62
     7
176
     1
 62
   257
176
     1
 90
        1
176
     1
 90
        1
176
     1
 40
1.0
176
     1
 90
        0
176
     1
 62
     7
176
     1
 40
1.0
176
     1
 90
        1
176
     1
 90
        6
176
     1
 90
        2
176
     1
 62
     7
176
     1
 90
        5
176
     1
 90
        0
176
     1
 90
        0
176
     1
290
     0
176
     1
 90
       13
176
     1
 40
0.0
176
     1
 90
        0
176
     1
290
     0
176
     1
290
     1
176
     1
290
     1
176
     1
290
     0
176
     1
290
     0
176
     1
290
     0
176
     1
290
     0
176
     1
290
     0
176
     1
290
     0
176
     1
 90
       50
176
     1
 40
0.0
176
     1
 40
1.0
176
     1
 90
        0
176
     1
 62
    18
420
        0
176
     1
 90
       50
176
     1
 90
        3
176
     1
 62
     5
420
      255
176
     1
290
     0
176
     1
 90
       50
176
     1
 90
       50
176
     1
 90
       50
176
     1
290
     0
176
     1
 90
       50
176
     1
 62
   256
176
     0
 40
1.0
176
     0
 90
        2
176
     1
  1
strokes_ogs.tif
176
     1
290
     0
176
     1
 40
1.0
176
     1
 40
1.0
176
     1
  0
VISUALSTYLE
  5
2E
102
{ACAD_REACTORS
330
2A
102
}
330
2A
100
AcDbVisualStyle
  2
GouraudWithEdges
 70
     3
177
     3
291
     1
 70
    58
 90
        2
176
     1
 90
        2
176
     1
 90
        1
176
     1
 90
        2
176
     1
 40
0.6
176
     1
 40
30.0
176
     1
 62
     7
420
 16777215
176
     1
 90
        1
176
     1
 90
        0
176
     1
 62
     7
176
     1
 62
   257
176
     1
 90
        1
176
     1
 90
        1
176
     1
 40
1.0
176
     1
 90
        0
176
     1
 62
   257
176
     1
 40
1.0
176
     1
 90
        1
176
     1
 90
        6
176
     1
 90
        2
176
     1
 62
     7
176
     1
 90
        5
176
     1
 90
        0
176
     1
 90
        0
176
     1
290
     0
176
     1
 90
       13
176
     1
 40
0.0
176
     1
 90
        0
176
     1
290
     0
176
     1
290
     1
176
     1
290
     1
176
     1
290
     0
176
     1
290
     0
176
     1
290
     0
176
     1
290
     0
176
     1
290
     0
176
     1
290
     0
176
     1
 90
       50
176
     1
 40
0.0
176
     1
 40
1.0
176
     1
 90
        0
176
     1
 62
    18
420
        0
176
     1
 90
       50
176
     1
 90
        3
176
     1
 62
     5
420
      255
176
     1
290
     0
176
     1
 90
       50
176
     1
 90
       50
176
     1
 90
       50
176
     1
290
     0
176
     1
 90
       50
176
     1
 62
   256
176
     0
 40
1.0
176
     0
 90
        2
176
     1
  1
strokes_ogs.tif
176
     1
290
     0
176
     1
 40
1.0
176
     1
 40
1.0
176
     1
  0
VISUALSTYLE
  5
31
102
{ACAD_REACTORS
330
2A
102
}
330
2A
100
AcDbVisualStyle
  2
Hidden
 70
     6
177
     3
291
     0
 70
    58
 90
        1
176
     1
 90
        2
176
     1
 90
        2
176
     1
 90
        0
176
     1
 40
0.6
176
     1
 40
30.0
176
     1
 62
     7
420
 16777215
176
     1
 90
        2
176
     1
 90
        2
176
     1
 62
     7
176
     1
 62
   257
176
     1
 90
        2
176
     1
 90
        1
176
     1
 40
40.0
176
     1
 90
        0
176
     1
 62
   257
176
     1
 40
1.0
176
     1
 90
        1
176
     1
 90
        6
176
     1
 90
        2
176
     1
 62
     7
176
     1
 90
        3
176
     1
 90
        0
176
     1
 90
        0
176
     1
290
     0
176
     1
 90
        1
176
     1
 40
0.0
176
     1
 90
        0
176
     1
290
     0
176
     1
290
     1
176
     1
290
     1
176
     1
290
     0
176
     1
290
     0
176
     1
290
     0
176
     1
290
     0
176
     1
290
     0
176
     1
290
     0
176
     1
 90
       50
176
     1
 40
0.0
176
     1
 40
1.0
176
     1
 90
        0
176
     1
 62
    18
420
        0
176
     1
 90
       50
176
     1
 90
        3
176
     1
 62
     5
420
      255
176
     1
290
     0
176
     1
 90
       50
176
     1
 90
       50
176
     1
 90
       50
176
     1
290
     0
176
     1
 90
       50
176
     1
 62
   256
176
     0
 40
1.0
176
     0
 90
        2
176
     1
  1
strokes_ogs.tif
176
     1
290
     0
176
     1
 40
1.0
176
     1
 40
1.0
176
     1
  0
VISUALSTYLE
  5
3B
102
{ACAD_REACTORS
330
2A
102
}
330
2A
100
AcDbVisualStyle
  2
JitterOff
 70
    20
177
     3
291
     1
 70
    58
 90
        2
176
     0
 90
        2
176
     0
 90
        0
176
     0
 90
        0
176
     0
 40
0.6
176
     0
 40
30.0
176
     0
 62
     7
420
 16777215
176
     0
 90
        1
176
     0
 90
        4
176
     0
 62
     7
176
     0
 62
   257
176
     0
 90
        1
176
     0
 90
        1
176
     0
 40
1.0
176
     0
 90
       10
176
     2
 62
     7
176
     0
 40
1.0
176
     0
 90
        1
176
     0
 90
        6
176
     0
 90
        2
176
     0
 62
     7
176
     0
 90
        5
176
     0
 90
        0
176
     0
 90
        0
176
     0
290
     0
176
     0
 90
        1
176
     0
 40
0.0
176
     0
 90
        0
176
     0
290
     0
176
     0
290
     1
176
     0
290
     1
176
     0
290
     0
176
     0
290
     0
176
     0
290
     0
176
     0
290
     0
176
     0
290
     0
176
     0
290
     0
176
     0
 90
       50
176
     0
 40
0.0
176
     0
 40
1.0
176
     0
 90
        0
176
     0
 62
    18
420
        0
176
     0
 90
       50
176
     0
 90
        3
176
     0
 62
     5
420
      255
176
     0
290
     0
176
     0
 90
       50
176
     0
 90
       50
176
     0
 90
       50
176
     0
290
     0
176
     0
 90
       50
176
     0
 62
   256
176
     0
 40
1.0
176
     0
 90
        2
176
     0
  1
strokes_ogs.tif
176
     0
290
     0
176
     0
 40
1.0
176
     0
 40
1.0
176
     0
  0
VISUALSTYLE
  5
38
102
{ACAD_REACTORS
330
2A
102
}
330
2A
100
AcDbVisualStyle
  2
Linepattern
 70
    14
177
     3
291
     1
 70
    58
 90
        2
176
     1
 90
        2
176
     1
 90
        0
176
     1
 90
        0
176
     1
 40
0.6
176
     1
 40
30.0
176
     1
 62
     7
420
 16777215
176
     1
 90
        1
176
     1
 90
        4
176
     1
 62
     7
176
     1
 62
   257
176
     1
 90
        7
176
     1
 90
        7
176
     1
 40
1.0
176
     1
 90
        8
176
     1
 62
     7
176
     1
 40
1.0
176
     1
 90
        1
176
     1
 90
        6
176
     1
 90
        2
176
     1
 62
     7
176
     1
 90
        5
176
     1
 90
        0
176
     1
 90
        0
176
     1
290
     0
176
     1
 90
        1
176
     1
 40
0.0
176
     1
 90
        0
176
     1
290
     0
176
     1
290
     1
176
     1
290
     1
176
     1
290
     0
176
     1
290
     0
176
     1
290
     0
176
     1
290
     0
176
     1
290
     0
176
     1
290
     0
176
     1
 90
       50
176
     1
 40
0.0
176
     1
 40
1.0
176
     1
 90
        0
176
     1
 62
    18
420
        0
176
     1
 90
       50
176
     1
 90
        3
176
     1
 62
     5
420
      255
176
     1
290
     0
176
     1
 90
       50
176
     1
 90
       50
176
     1
 90
       50
176
     1
290
     0
176
     1
 90
       50
176
     1
 62
   256
176
     0
 40
1.0
176
     0
 90
        2
176
     1
  1
strokes_ogs.tif
176
     1
290
     0
176
     1
 40
1.0
176
     1
 40
1.0
176
     1
  0
VISUALSTYLE
  5
3C
102
{ACAD_REACTORS
330
2A
102
}
330
2A
100
AcDbVisualStyle
  2
OverhangOff
 70
    21
177
     3
291
     1
 70
    58
 90
        2
176
     0
 90
        2
176
     0
 90
        0
176
     0
 90
        0
176
     0
 40
0.6
176
     0
 40
30.0
176
     0
 62
     7
420
 16777215
176
     0
 90
        1
176
     0
 90
        4
176
     0
 62
     7
176
     0
 62
   257
176
     0
 90
        1
176
     0
 90
        1
176
     0
 40
1.0
176
     0
 90
        9
176
     2
 62
     7
176
     0
 40
1.0
176
     0
 90
        1
176
     0
 90
        6
176
     0
 90
        2
176
     0
 62
     7
176
     0
 90
        5
176
     0
 90
        0
176
     0
 90
        0
176
     0
290
     0
176
     0
 90
        1
176
     0
 40
0.0
176
     0
 90
        0
176
     0
290
     0
176
     0
290
     1
176
     0
290
     1
176
     0
290
     0
176
     0
290
     0
176
     0
290
     0
176
     0
290
     0
176
     0
290
     0
176
     0
290
     0
176
     0
 90
       50
176
     0
 40
0.0
176
     0
 40
1.0
176
     0
 90
        0
176
     0
 62
    18
420
        0
176
     0
 90
       50
176
     0
 90
        3
176
     0
 62
     5
420
      255
176
     0
290
     0
176
     0
 90
       50
176
     0
 90
       50
176
     0
 90
       50
176
     0
290
     0
176
     0
 90
       50
176
     0
 62
   256
176
     0
 40
1.0
176
     0
 90
        2
176
     0
  1
strokes_ogs.tif
176
     0
290
     0
176
     0
 40
1.0
176
     0
 40
1.0
176
     0
  0
VISUALSTYLE
  5
33
102
{ACAD_REACTORS
330
2A
102
}
330
2A
100
AcDbVisualStyle
  2
Realistic
 70
     8
177
     3
291
     0
 70
    58
 90
        2
176
     1
 90
        3
176
     1
 90
        0
176
     1
 90
        2
176
     1
 40
0.6
176
     1
 40
30.0
176
     1
 62
     7
420
 16777215
176
     1
 90
        0
176
     1
 90
        0
176
     1
 62
     7
176
     1
 62
   257
176
     1
 90
        1
176
     1
 90
        1
176
     1
 40
1.0
176
     1
 90
        8
176
     1
 62
   257
176
     1
 40
1.0
176
     1
 90
        1
176
     1
 90
        6
176
     1
 90
        2
176
     1
 62
     7
176
     1
 90
        3
176
     1
 90
        0
176
     1
 90
        0
176
     1
290
     0
176
     1
 90
       13
176
     1
 40
0.0
176
     1
 90
        0
176
     1
290
     0
176
     1
290
     1
176
     1
290
     1
176
     1
290
     0
176
     1
290
     0
176
     1
290
     0
176
     1
290
     0
176
     1
290
     0
176
     1
290
     0
176
     1
 90
       50
176
     1
 40
0.0
176
     1
 40
1.0
176
     1
 90
        0
176
     1
 62
    18
420
        0
176
     1
 90
       50
176
     1
 90
        3
176
     1
 62
     5
420
      255
176
     1
290
     0
176
     1
 90
       50
176
     1
 90
       50
176
     1
 90
       50
176
     1
290
     0
176
     1
 90
       50
176
     1
 62
   256
176
     0
 40
1.0
176
     0
 90
        2
176
     1
  1
strokes_ogs.tif
176
     1
290
     0
176
     1
 40
1.0
176
     1
 40
1.0
176
     1
  0
VISUALSTYLE
  5
42
102
{ACAD_REACTORS
330
2A
102
}
330
2A
100
AcDbVisualStyle
  2
Shaded
 70
    27
177
     3
291
     0
 70
    58
 90
        2
176
     1
 90
        2
176
     1
 90
        1
176
     1
 90
        2
176
     1
 40
0.6
176
     1
 40
30.0
176
     1
 62
     7
420
 16777215
176
     1
 90
        0
176
     1
 90
        4
176
     1
 62
     7
176
     1
 62
   257
176
     1
 90
        1
176
     1
 90
        1
176
     1
 40
1.0
176
     1
 90
        8
176
     1
 62
   257
176
     1
 40
1.0
176
     1
 90
        1
176
     1
 90
        6
176
     1
 90
        2
176
     1
 62
     8
420
  7895160
176
     1
 90
        3
176
     1
 90
        0
176
     1
 90
        0
176
     1
290
     0
176
     1
 90
        5
176
     1
 40
0.0
176
     1
 90
        0
176
     1
290
     0
176
     1
290
     1
176
     1
290
     1
176
     1
290
     0
176
     1
290
     0
176
     1
290
     0
176
     1
290
     0
176
     1
290
     0
176
     1
290
     0
176
     1
 90
       50
176
     1
 40
0.0
176
     1
 40
1.0
176
     1
 90
        0
176
     1
 62
    18
420
        0
176
     1
 90
       50
176
     1
 90
        3
176
     1
 62
     5
420
      255
176
     1
290
     0
176
     1
 90
       50
176
     1
 90
       50
176
     1
 90
       50
176
     1
290
     0
176
     1
 90
       50
176
     1
 62
   256
176
     0
 40
1.0
176
     0
 90
        2
176
     1
  1
strokes_ogs.tif
176
     1
290
     0
176
     1
 40
1.0
176
     1
 40
1.0
176
     1
  0
VISUALSTYLE
  5
41
102
{ACAD_REACTORS
330
2A
102
}
330
2A
100
AcDbVisualStyle
  2
Shaded with edges
 70
    26
177
     3
291
     0
 70
    58
 90
        2
176
     1
 90
        2
176
     1
 90
        1
176
     1
 90
        2
176
     1
 40
0.6
176
     1
 40
30.0
176
     1
 62
     7
420
 16777215
176
     1
 90
        1
176
     1
 90
       10
176
     1
 62
     7
176
     1
 62
   257
176
     1
 90
        2
176
     1
 90
        1
176
     1
 40
1.0
176
     1
 90
        8
176
     1
 62
   257
176
     1
 40
1.0
176
     1
 90
        1
176
     1
 90
        6
176
     1
 90
        2
176
     1
 62
     7
176
     1
 90
        3
176
     1
 90
        0
176
     1
 90
        0
176
     1
290
     0
176
     1
 90
        5
176
     1
 40
0.0
176
     1
 90
        0
176
     1
290
     0
176
     1
290
     1
176
     1
290
     1
176
     1
290
     0
176
     1
290
     0
176
     1
290
     0
176
     1
290
     0
176
     1
290
     0
176
     1
290
     0
176
     1
 90
       50
176
     1
 40
0.0
176
     1
 40
1.0
176
     1
 90
        0
176
     1
 62
    18
420
        0
176
     1
 90
       50
176
     1
 90
        3
176
     1
 62
     5
420
      255
176
     1
290
     0
176
     1
 90
       50
176
     1
 90
       50
176
     1
 90
       50
176
     1
290
     0
176
     1
 90
       50
176
     1
 62
   256
176
     0
 40
1.0
176
     0
 90
        2
176
     1
  1
strokes_ogs.tif
176
     1
290
     0
176
     1
 40
1.0
176
     1
 40
1.0
176
     1
  0
VISUALSTYLE
  5
3E
102
{ACAD_REACTORS
330
2A
102
}
330
2A
100
AcDbVisualStyle
  2
Shades of Gray
 70
    23
177
     3
291
     0
 70
    58
 90
        2
176
     1
 90
        2
176
     1
 90
        3
176
     1
 90
        0
176
     1
 40
0.6
176
     1
 40
30.0
176
     1
 62
     7
420
 16777215
176
     1
 90
        2
176
     1
 90
        2
176
     1
 62
     7
176
     1
 62
     7
176
     1
 90
        1
176
     1
 90
        1
176
     1
 40
40.0
176
     1
 90
        8
176
     1
 62
     7
176
     1
 40
1.0
176
     1
 90
        1
176
     1
 90
        6
176
     1
 90
        2
176
     1
 62
     7
176
     1
 90
        3
176
     1
 90
        0
176
     1
 90
        0
176
     1
290
     0
176
     1
 90
        1
176
     1
 40
0.0
176
     1
 90
        0
176
     1
290
     0
176
     1
290
     1
176
     1
290
     1
176
     1
290
     0
176
     1
290
     0
176
     1
290
     0
176
     1
290
     0
176
     1
290
     0
176
     1
290
     0
176
     1
 90
       50
176
     1
 40
0.0
176
     1
 40
1.0
176
     1
 90
        0
176
     1
 62
    18
420
        0
176
     1
 90
       50
176
     1
 90
        3
176
     1
 62
     5
420
      255
176
     1
290
     0
176
     1
 90
       50
176
     1
 90
       50
176
     1
 90
       50
176
     1
290
     0
176
     1
 90
       50
176
     1
 62
   256
176
     0
 40
1.0
176
     0
 90
        2
176
     1
  1
strokes_ogs.tif
176
     1
290
     0
176
     1
 40
1.0
176
     1
 40
1.0
176
     1
  0
VISUALSTYLE
  5
3F
102
{ACAD_REACTORS
330
2A
102
}
330
2A
100
AcDbVisualStyle
  2
Sketchy
 70
    24
177
     3
291
     0
 70
    58
 90
        1
176
     1
 90
        2
176
     1
 90
        2
176
     1
 90
        0
176
     1
 40
0.6
176
     1
 40
30.0
176
     1
 62
     7
420
 16777215
176
     1
 90
        2
176
     1
 90
        2
176
     1
 62
     7
176
     1
 62
     7
176
     1
 90
        1
176
     1
 90
        1
176
     1
 40
40.0
176
     1
 90
       11
176
     1
 62
     7
176
     1
 40
1.0
176
     1
 90
        1
176
     1
 90
        6
176
     1
 90
        2
176
     1
 62
     7
176
     1
 90
        6
176
     1
 90
        0
176
     1
 90
        0
176
     1
290
     0
176
     1
 90
        1
176
     1
 40
0.0
176
     1
 90
        0
176
     1
290
     0
176
     1
290
     1
176
     1
290
     1
176
     1
290
     0
176
     1
290
     0
176
     1
290
     0
176
     1
290
     0
176
     1
290
     0
176
     1
290
     0
176
     1
 90
       50
176
     1
 40
0.0
176
     1
 40
1.0
176
     1
 90
        0
176
     1
 62
    18
420
        0
176
     1
 90
       50
176
     1
 90
        3
176
     1
 62
     5
420
      255
176
     1
290
     0
176
     1
 90
       50
176
     1
 90
       50
176
     1
 90
       50
176
     1
290
     0
176
     1
 90
       50
176
     1
 62
   256
176
     0
 40
1.0
176
     0
 90
        2
176
     1
  1
strokes_ogs.tif
176
     1
290
     0
176
     1
 40
1.0
176
     1
 40
1.0
176
     1
  0
VISUALSTYLE
  5
37
102
{ACAD_REACTORS
330
2A
102
}
330
2A
100
AcDbVisualStyle
  2
Thicken
 70
    13
177
     3
291
     1
 70
    58
 90
        2
176
     1
 90
        2
176
     1
 90
        0
176
     1
 90
        0
176
     1
 40
0.6
176
     1
 40
30.0
176
     1
 62
     7
420
 16777215
176
     1
 90
        1
176
     1
 90
        4
176
     1
 62
     7
176
     1
 62
   257
176
     1
 90
        1
176
     1
 90
        1
176
     1
 40
1.0
176
     1
 90
       12
176
     1
 62
     7
176
     1
 40
1.0
176
     1
 90
        1
176
     1
 90
        6
176
     1
 90
        2
176
     1
 62
     7
176
     1
 90
        5
176
     1
 90
        0
176
     1
 90
        0
176
     1
290
     0
176
     1
 90
        1
176
     1
 40
0.0
176
     1
 90
        0
176
     1
290
     0
176
     1
290
     1
176
     1
290
     1
176
     1
290
     0
176
     1
290
     0
176
     1
290
     0
176
     1
290
     0
176
     1
290
     0
176
     1
290
     0
176
     1
 90
       50
176
     1
 40
0.0
176
     1
 40
1.0
176
     1
 90
        0
176
     1
 62
    18
420
        0
176
     1
 90
       50
176
     1
 90
        3
176
     1
 62
     5
420
      255
176
     1
290
     0
176
     1
 90
       50
176
     1
 90
       50
176
     1
 90
       50
176
     1
290
     0
176
     1
 90
       50
176
     1
 62
   256
176
     0
 40
1.0
176
     0
 90
        2
176
     1
  1
strokes_ogs.tif
176
     1
290
     0
176
     1
 40
1.0
176
     1
 40
1.0
176
     1
  0
VISUALSTYLE
  5
30
102
{ACAD_REACTORS
330
2A
102
}
330
2A
100
AcDbVisualStyle
  2
Wireframe
 70
     5
177
     3
291
     0
 70
    58
 90
        0
176
     1
 90
        2
176
     1
 90
        0
176
     1
 90
        0
176
     1
 40
0.6
176
     1
 40
30.0
176
     1
 62
     7
420
 16777215
176
     1
 90
        1
176
     1
 90
        4
176
     1
 62
     7
176
     1
 62
   257
176
     1
 90
        1
176
     1
 90
        1
176
     1
 40
1.0
176
     1
 90
        0
176
     1
 62
   257
176
     1
 40
1.0
176
     1
 90
        1
176
     1
 90
        6
176
     1
 90
        2
176
     1
 62
     7
176
     1
 90
        3
176
     1
 90
        0
176
     1
 90
        0
176
     1
290
     0
176
     1
 90
        1
176
     1
 40
0.0
176
     1
 90
        0
176
     1
290
     0
176
     1
290
     1
176
     1
290
     1
176
     1
290
     0
176
     1
290
     0
176
     1
290
     0
176
     1
290
     0
176
     1
290
     0
176
     1
290
     0
176
     1
 90
       50
176
     1
 40
0.0
176
     1
 40
1.0
176
     1
 90
        0
176
     1
 62
    18
420
        0
176
     1
 90
       50
176
     1
 90
        3
176
     1
 62
     5
420
      255
176
     1
290
     0
176
     1
 90
       50
176
     1
 90
       50
176
     1
 90
       50
176
     1
290
     0
176
     1
 90
       50
176
     1
 62
   256
176
     0
 40
1.0
176
     0
 90
        2
176
     1
  1
strokes_ogs.tif
176
     1
290
     0
176
     1
 40
1.0
176
     1
 40
1.0
176
     1
  0
VISUALSTYLE
  5
40
102
{ACAD_REACTORS
330
2A
102
}
330
2A
100
AcDbVisualStyle
  2
X-Ray
 70
    25
177
     3
291
     0
 70
    58
 90
        2
176
     1
 90
        2
176
     1
 90
        1
176
     1
 90
        1
176
     1
 40
0.5
176
     1
 40
30.0
176
     1
 62
     7
420
 16777215
176
     1
 90
        1
176
     1
 90
        0
176
     1
 62
     7
176
     1
 62
   257
176
     1
 90
        1
176
     1
 90
        1
176
     1
 40
1.0
176
     1
 90
        8
176
     1
 62
     7
176
     1
 40
1.0
176
     1
 90
        1
176
     1
 90
        6
176
     1
 90
        2
176
     1
 62
     7
176
     1
 90
        3
176
     1
 90
        0
176
     1
 90
        0
176
     1
290
     0
176
     1
 90
       13
176
     1
 40
0.0
176
     1
 90
        0
176
     1
290
     0
176
     1
290
     1
176
     1
290
     1
176
     1
290
     0
176
     1
290
     0
176
     1
290
     0
176
     1
290
     0
176
     1
290
     0
176
     1
290
     0
176
     1
 90
       50
176
     1
 40
0.0
176
     1
 40
1.0
176
     1
 90
        0
176
     1
 62
    18
420
        0
176
     1
 90
       50
176
     1
 90
        3
176
     1
 62
     5
420
      255
176
     1
290
     0
176
     1
 90
       50
176
     1
 90
       50
176
     1
 90
       50
176
     1
290
     0
176
     1
 90
       50
176
     1
 62
   256
176
     0
 40
1.0
176
     0
 90
        2
176
     1
  1
strokes_ogs.tif
176
     1
290
     0
176
     1
 40
1.0
176
     1
 40
1.0
176
     1
  0
DICTIONARYVAR
  5
7A
102
{ACAD_REACTORS
330
79
102
}
330
79
100
DictionaryVariables
280
     0
  1
1:1
  0
DICTIONARYVAR
  5
7F
102
{ACAD_REACTORS
330
79
102
}
330
79
100
DictionaryVariables
280
     0
  1
Standard
  0
DICTIONARYVAR
  5
7E
102
{ACAD_REACTORS
330
79
102
}
330
79
100
DictionaryVariables
280
     0
  1
Standard
  0
DICTIONARY
  5
7B
330
5A
100
AcDbDictionary
280
     1
281
     1
  3
ACAD_ROUNDTRIP_2008_TABLESTYLE_CELLSTYLEMAP
360
7C
  0
CELLSTYLEMAP
  5
7C
102
{ACAD_REACTORS
330
7B
102
}
330
7B
100
AcDbCellStyleMap
 90
        3
300
CELLSTYLE
  1
TABLEFORMAT_BEGIN
 90
        5
170
     1
 91
        0
 92
    32768
 62
   257
 93
        1
300
CONTENTFORMAT
  1
CONTENTFORMAT_BEGIN
 90
        0
 91
        0
 92
        4
 93
        0
300

 40
0.0
140
1.0
 94
        5
 62
     0
340
11
144
0.25
309
CONTENTFORMAT_END
171
     1
301
MARGIN
  1
CELLMARGIN_BEGIN
 40
0.06
 40
0.06
 40
0.06
 40
0.06
 40
0.06
 40
0.06
309
CELLMARGIN_END
 94
        6
 95
        1
302
GRIDFORMAT
  1
GRIDFORMAT_BEGIN
 90
        0
 91
        1
 62
     0
 92
       -2
340
14
 93
        0
 40
0.045
309
GRIDFORMAT_END
 95
        2
302
GRIDFORMAT
  1
GRIDFORMAT_BEGIN
 90
        0
 91
        1
 62
     0
 92
       -2
340
14
 93
        0
 40
0.045
309
GRIDFORMAT_END
 95
        4
302
GRIDFORMAT
  1
GRIDFORMAT_BEGIN
 90
        0
 91
        1
 62
     0
 92
       -2
340
14
 93
        0
 40
0.045
309
GRIDFORMAT_END
 95
        8
302
GRIDFORMAT
  1
GRIDFORMAT_BEGIN
 90
        0
 91
        1
 62
     0
 92
       -2
340
14
 93
        0
 40
0.045
309
GRIDFORMAT_END
 95
       16
302
GRIDFORMAT
  1
GRIDFORMAT_BEGIN
 90
        0
 91
        1
 62
     0
 92
       -2
340
14
 93
        0
 40
0.045
309
GRIDFORMAT_END
 95
       32
302
GRIDFORMAT
  1
GRIDFORMAT_BEGIN
 90
        0
 91
        1
 62
     0
 92
       -2
340
14
 93
        0
 40
0.045
309
GRIDFORMAT_END
309
TABLEFORMAT_END
  1
CELLSTYLE_BEGIN
 90
        1
 91
        1
300
_TITLE
309
CELLSTYLE_END
300
CELLSTYLE
  1
TABLEFORMAT_BEGIN
 90
        5
170
     1
 91
        0
 92
        0
 62
   257
 93
        1
300
CONTENTFORMAT
  1
CONTENTFORMAT_BEGIN
 90
        0
 91
        0
 92
        4
 93
        0
300

 40
0.0
140
1.0
 94
        5
 62
     0
340
11
144
0.18
309
CONTENTFORMAT_END
171
     1
301
MARGIN
  1
CELLMARGIN_BEGIN
 40
0.06
 40
0.06
 40
0.06
 40
0.06
 40
0.06
 40
0.06
309
CELLMARGIN_END
 94
        6
 95
        1
302
GRIDFORMAT
  1
GRIDFORMAT_BEGIN
 90
        0
 91
        1
 62
     0
 92
       -2
340
14
 93
        0
 40
0.045
309
GRIDFORMAT_END
 95
        2
302
GRIDFORMAT
  1
GRIDFORMAT_BEGIN
 90
        0
 91
        1
 62
     0
 92
       -2
340
14
 93
        0
 40
0.045
309
GRIDFORMAT_END
 95
        4
302
GRIDFORMAT
  1
GRIDFORMAT_BEGIN
 90
        0
 91
        1
 62
     0
 92
       -2
340
14
 93
        0
 40
0.045
309
GRIDFORMAT_END
 95
        8
302
GRIDFORMAT
  1
GRIDFORMAT_BEGIN
 90
        0
 91
        1
 62
     0
 92
       -2
340
14
 93
        0
 40
0.045
309
GRIDFORMAT_END
 95
       16
302
GRIDFORMAT
  1
GRIDFORMAT_BEGIN
 90
        0
 91
        1
 62
     0
 92
       -2
340
14
 93
        0
 40
0.045
309
GRIDFORMAT_END
 95
       32
302
GRIDFORMAT
  1
GRIDFORMAT_BEGIN
 90
        0
 91
        1
 62
     0
 92
       -2
340
14
 93
        0
 40
0.045
309
GRIDFORMAT_END
309
TABLEFORMAT_END
  1
CELLSTYLE_BEGIN
 90
        2
 91
        1
300
_HEADER
309
CELLSTYLE_END
300
CELLSTYLE
  1
TABLEFORMAT_BEGIN
 90
        5
170
     1
 91
        0
 92
        0
 62
   257
 93
        1
300
CONTENTFORMAT
  1
CONTENTFORMAT_BEGIN
 90
        0
 91
        0
 92
        4
 93
        0
300

 40
0.0
140
1.0
 94
        2
 62
     0
340
11
144
0.18
309
CONTENTFORMAT_END
171
     1
301
MARGIN
  1
CELLMARGIN_BEGIN
 40
0.06
 40
0.06
 40
0.06
 40
0.06
 40
0.06
 40
0.06
309
CELLMARGIN_END
 94
        6
 95
        1
302
GRIDFORMAT
  1
GRIDFORMAT_BEGIN
 90
        0
 91
        1
 62
     0
 92
       -2
340
14
 93
        0
 40
0.045
309
GRIDFORMAT_END
 95
        2
302
GRIDFORMAT
  1
GRIDFORMAT_BEGIN
 90
        0
 91
        1
 62
     0
 92
       -2
340
14
 93
        0
 40
0.045
309
GRIDFORMAT_END
 95
        4
302
GRIDFORMAT
  1
GRIDFORMAT_BEGIN
 90
        0
 91
        1
 62
     0
 92
       -2
340
14
 93
        0
 40
0.045
309
GRIDFORMAT_END
 95
        8
302
GRIDFORMAT
  1
GRIDFORMAT_BEGIN
 90
        0
 91
        1
 62
     0
 92
       -2
340
14
 93
        0
 40
0.045
309
GRIDFORMAT_END
 95
       16
302
GRIDFORMAT
  1
GRIDFORMAT_BEGIN
 90
        0
 91
        1
 62
     0
 92
       -2
340
14
 93
        0
 40
0.045
309
GRIDFORMAT_END
 95
       32
302
GRIDFORMAT
  1
GRIDFORMAT_BEGIN
 90
        0
 91
        1
 62
     0
 92
       -2
340
14
 93
        0
 40
0.045
309
GRIDFORMAT_END
309
TABLEFORMAT_END
  1
CELLSTYLE_BEGIN
 90
        3
 91
        2
300
_DATA
309
CELLSTYLE_END
  0
ENDSEC
  0
EOF
