  0
SECTION
  2
HEADER
  9
$ACADVER
  1
AC1032
  9
$ACADMAINTVER
 90
       55
  9
$DWGCODEPAGE
  3
ANSI_1252
  9
$LASTSAVEDBY
  1
LYI-002
  9
$REQUIREDVERSIONS
160
                 0
  9
$INSBASE
 10
0.0
 20
0.0
 30
0.0
  9
$EXTMIN
 10
-1200.15
 20
-590.1266
 30
0.0
  9
$EXTMAX
 10
1200.05
 20
590.0734
 30
0.0
  9
$LIMMIN
 10
0.0
 20
0.0
  9
$LIMMAX
 10
12.0
 20
9.0
  9
$ORTHOMODE
 70
     0
  9
$REGENMODE
 70
     1
  9
$FILLMODE
 70
     1
  9
$QTEXTMODE
 70
     0
  9
$MIRRTEXT
 70
     1
  9
$LTSCALE
 40
1.0
  9
$ATTMODE
 70
     1
  9
$TEXTSIZE
 40
0.2
  9
$TRACEWID
 40
0.05
  9
$TEXTSTYLE
  7
Standard
  9
$CLAYER
  8
0
  9
$CELTYPE
  6
ByLayer
  9
$CECOLOR
 62
   256
  9
$CELTSCALE
 40
1.0
  9
$DISPSILH
 70
     0
  9
$DIMSCALE
 40
1.0
  9
$DIMASZ
 40
0.18
  9
$DIMEXO
 40
0.0625
  9
$DIMDLI
 40
0.38
  9
$DIMRND
 40
0.0
  9
$DIMDLE
 40
0.0
  9
$DIMEXE
 40
0.18
  9
$DIMTP
 40
0.0
  9
$DIMTM
 40
0.0
  9
$DIMTXT
 40
0.18
  9
$DIMCEN
 40
0.09
  9
$DIMTSZ
 40
0.0
  9
$DIMTOL
 70
     0
  9
$DIMLIM
 70
     0
  9
$DIMTIH
 70
     1
  9
$DIMTOH
 70
     1
  9
$DIMSE1
 70
     0
  9
$DIMSE2
 70
     0
  9
$DIMTAD
 70
     0
  9
$DIMZIN
 70
     0
  9
$DIMBLK
  1

  9
$DIMASO
 70
     1
  9
$DIMSHO
 70
     1
  9
$DIMPOST
  1

  9
$DIMAPOST
  1

  9
$DIMALT
 70
     0
  9
$DIMALTD
 70
     2
  9
$DIMALTF
 40
25.4
  9
$DIMLFAC
 40
1.0
  9
$DIMTOFL
 70
     0
  9
$DIMTVP
 40
0.0
  9
$DIMTIX
 70
     0
  9
$DIMSOXD
 70
     0
  9
$DIMSAH
 70
     0
  9
$DIMBLK1
  1

  9
$DIMBLK2
  1

  9
$DIMSTYLE
  2
Standard
  9
$DIMCLRD
 70
     0
  9
$DIMCLRE
 70
     0
  9
$DIMCLRT
 70
     0
  9
$DIMTFAC
 40
1.0
  9
$DIMGAP
 40
0.09
  9
$DIMJUST
 70
     0
  9
$DIMSD1
 70
     0
  9
$DIMSD2
 70
     0
  9
$DIMTOLJ
 70
     1
  9
$DIMTZIN
 70
     0
  9
$DIMALTZ
 70
     0
  9
$DIMALTTZ
 70
     0
  9
$DIMUPT
 70
     0
  9
$DIMDEC
 70
     4
  9
$DIMTDEC
 70
     4
  9
$DIMALTU
 70
     2
  9
$DIMALTTD
 70
     2
  9
$DIMTXSTY
  7
Standard
  9
$DIMAUNIT
 70
     0
  9
$DIMADEC
 70
     0
  9
$DIMALTRND
 40
0.0
  9
$DIMAZIN
 70
     0
  9
$DIMDSEP
 70
    46
  9
$DIMATFIT
 70
     3
  9
$DIMFRAC
 70
     0
  9
$DIMLDRBLK
  1

  9
$DIMLUNIT
 70
     2
  9
$DIMLWD
 70
    -2
  9
$DIMLWE
 70
    -2
  9
$DIMTMOVE
 70
     0
  9
$DIMFXL
 40
1.0
  9
$DIMFXLON
 70
     0
  9
$DIMJOGANG
 40
0.7853981633974483
  9
$DIMTFILL
 70
     0
  9
$DIMTFILLCLR
 70
     0
  9
$DIMARCSYM
 70
     0
  9
$DIMLTYPE
  6

  9
$DIMLTEX1
  6

  9
$DIMLTEX2
  6

  9
$DIMTXTDIRECTION
 70
     0
  9
$LUNITS
 70
     2
  9
$LUPREC
 70
     4
  9
$SKETCHINC
 40
0.1
  9
$FILLETRAD
 40
0.0
  9
$AUNITS
 70
     0
  9
$AUPREC
 70
     0
  9
$MENU
  1
.
  9
$ELEVATION
 40
0.0
  9
$PELEVATION
 40
0.0
  9
$THICKNESS
 40
0.0
  9
$LIMCHECK
 70
     0
  9
$CHAMFERA
 40
0.0
  9
$CHAMFERB
 40
0.0
  9
$CHAMFERC
 40
0.0
  9
$CHAMFERD
 40
0.0
  9
$SKPOLY
 70
     0
  9
$TDCREATE
 40
2460652.597472338
  9
$TDUCREATE
 40
2460652.368305672
  9
$TDUPDATE
 40
2460652.597472362
  9
$TDUUPDATE
 40
2460652.368305695
  9
$TDINDWG
 40
0.0000000116
  9
$TDUSRTIMER
 40
0.0000000116
  9
$USRTIMER
 70
     1
  9
$ANGBASE
 50
0.0
  9
$ANGDIR
 70
     0
  9
$PDMODE
 70
     0
  9
$PDSIZE
 40
0.0
  9
$PLINEWID
 40
0.0
  9
$SPLFRAME
 70
     0
  9
$SPLINETYPE
 70
     6
  9
$SPLINESEGS
 70
     8
  9
$HANDSEED
  5
84
  9
$SURFTAB1
 70
     6
  9
$SURFTAB2
 70
     6
  9
$SURFTYPE
 70
     6
  9
$SURFU
 70
     6
  9
$SURFV
 70
     6
  9
$UCSBASE
  2

  9
$UCSNAME
  2

  9
$UCSORG
 10
0.0
 20
0.0
 30
0.0
  9
$UCSXDIR
 10
1.0
 20
0.0
 30
0.0
  9
$UCSYDIR
 10
0.0
 20
1.0
 30
0.0
  9
$UCSORTHOREF
  2

  9
$UCSORTHOVIEW
 70
     0
  9
$UCSORGTOP
 10
0.0
 20
0.0
 30
0.0
  9
$UCSORGBOTTOM
 10
0.0
 20
0.0
 30
0.0
  9
$UCSORGLEFT
 10
0.0
 20
0.0
 30
0.0
  9
$UCSORGRIGHT
 10
0.0
 20
0.0
 30
0.0
  9
$UCSORGFRONT
 10
0.0
 20
0.0
 30
0.0
  9
$UCSORGBACK
 10
0.0
 20
0.0
 30
0.0
  9
$PUCSBASE
  2

  9
$PUCSNAME
  2

  9
$PUCSORG
 10
0.0
 20
0.0
 30
0.0
  9
$PUCSXDIR
 10
1.0
 20
0.0
 30
0.0
  9
$PUCSYDIR
 10
0.0
 20
1.0
 30
0.0
  9
$PUCSORTHOREF
  2

  9
$PUCSORTHOVIEW
 70
     0
  9
$PUCSORGTOP
 10
0.0
 20
0.0
 30
0.0
  9
$PUCSORGBOTTOM
 10
0.0
 20
0.0
 30
0.0
  9
$PUCSORGLEFT
 10
0.0
 20
0.0
 30
0.0
  9
$PUCSORGRIGHT
 10
0.0
 20
0.0
 30
0.0
  9
$PUCSORGFRONT
 10
0.0
 20
0.0
 30
0.0
  9
$PUCSORGBACK
 10
0.0
 20
0.0
 30
0.0
  9
$USERI1
 70
     0
  9
$USERI2
 70
     0
  9
$USERI3
 70
     0
  9
$USERI4
 70
     0
  9
$USERI5
 70
     0
  9
$USERR1
 40
0.0
  9
$USERR2
 40
0.0
  9
$USERR3
 40
0.0
  9
$USERR4
 40
0.0
  9
$USERR5
 40
0.0
  9
$WORLDVIEW
 70
     1
  9
$SHADEDGE
 70
     3
  9
$SHADEDIF
 70
    70
  9
$TILEMODE
 70
     1
  9
$MAXACTVP
 70
    64
  9
$PINSBASE
 10
0.0
 20
0.0
 30
0.0
  9
$PLIMCHECK
 70
     0
  9
$PEXTMIN
 10
1.000000000000000E+20
 20
1.000000000000000E+20
 30
1.000000000000000E+20
  9
$PEXTMAX
 10
-1.000000000000000E+20
 20
-1.000000000000000E+20
 30
-1.000000000000000E+20
  9
$PLIMMIN
 10
0.0
 20
0.0
  9
$PLIMMAX
 10
12.0
 20
9.0
  9
$UNITMODE
 70
     0
  9
$VISRETAIN
 70
     1
  9
$PLINEGEN
 70
     0
  9
$PSLTSCALE
 70
     1
  9
$TREEDEPTH
 70
  3020
  9
$CMLSTYLE
  2
Standard
  9
$CMLJUST
 70
     0
  9
$CMLSCALE
 40
1.0
  9
$PROXYGRAPHICS
 70
     1
  9
$MEASUREMENT
 70
     0
  9
$CELWEIGHT
370
    -1
  9
$ENDCAPS
280
     0
  9
$JOINSTYLE
280
     0
  9
$LWDISPLAY
290
     0
  9
$INSUNITS
 70
     4
  9
$HYPERLINKBASE
  1

  9
$STYLESHEET
  1

  9
$XEDIT
290
     1
  9
$CEPSNTYPE
380
     0
  9
$PSTYLEMODE
290
     1
  9
$FINGERPRINTGUID
  2
{ec6d69a1-5a5a-4989-92f1-43d763da2df0}
  9
$VERSIONGUID
  2
{FAEB1C32-E019-11D5-929B-00C0DF256EC4}
  9
$EXTNAMES
290
     1
  9
$PSVPSCALE
 40
0.0
  9
$OLESTARTUP
290
     0
  9
$SORTENTS
280
   127
  9
$INDEXCTL
280
     0
  9
$HIDETEXT
280
     1
  9
$XCLIPFRAME
280
     2
  9
$HALOGAP
280
     0
  9
$OBSCOLOR
 70
   257
  9
$OBSLTYPE
280
     0
  9
$INTERSECTIONDISPLAY
280
     0
  9
$INTERSECTIONCOLOR
 70
   257
  9
$DIMASSOC
280
     2
  9
$PROJECTNAME
  1

  9
$CAMERADISPLAY
290
     0
  9
$LENSLENGTH
 40
50.0
  9
$CAMERAHEIGHT
 40
0.0
  9
$STEPSPERSEC
 40
2.0
  9
$STEPSIZE
 40
6.0
  9
$3DDWFPREC
 40
2.0
  9
$PSOLWIDTH
 40
0.25
  9
$PSOLHEIGHT
 40
4.0
  9
$LOFTANG1
 40
1.570796326794897
  9
$LOFTANG2
 40
1.570796326794897
  9
$LOFTMAG1
 40
0.0
  9
$LOFTMAG2
 40
0.0
  9
$LOFTPARAM
 70
     7
  9
$LOFTNORMALS
280
     1
  9
$LATITUDE
 40
37.795
  9
$LONGITUDE
 40
-122.394
  9
$NORTHDIRECTION
 40
0.0
  9
$TIMEZONE
 70
 -8000
  9
$LIGHTGLYPHDISPLAY
280
     1
  9
$TILEMODELIGHTSYNCH
280
     1
  9
$CMATERIAL
347
44
  9
$SOLIDHIST
280
     0
  9
$SHOWHIST
280
     1
  9
$DWFFRAME
280
     2
  9
$DGNFRAME
280
     2
  9
$REALWORLDSCALE
290
     1
  9
$INTERFERECOLOR
 62
   256
  9
$CSHADOW
280
     0
  9
$SHADOWPLANELOCATION
 40
0.0
  0
ENDSEC
  0
SECTION
  2
CLASSES
  0
CLASS
  1
ACDBDICTIONARYWDFLT
  2
AcDbDictionaryWithDefault
  3
ObjectDBX Classes
 90
        0
 91
        3
280
     0
281
     0
  0
CLASS
  1
VISUALSTYLE
  2
AcDbVisualStyle
  3
ObjectDBX Classes
 90
     4095
 91
        3
280
     0
281
     0
  0
CLASS
  1
MATERIAL
  2
AcDbMaterial
  3
ObjectDBX Classes
 90
     1153
 91
        3
280
     0
281
     0
  0
CLASS
  1
SCALE
  2
AcDbScale
  3
ObjectDBX Classes
 90
     1153
 91
        3
280
     0
281
     0
  0
CLASS
  1
TABLESTYLE
  2
AcDbTableStyle
  3
ObjectDBX Classes
 90
     4095
 91
        3
280
     0
281
     0
  0
CLASS
  1
MLEADERSTYLE
  2
AcDbMLeaderStyle
  3
ACDB_MLEADERSTYLE_CLASS
 90
     4095
 91
        3
280
     0
281
     0
  0
CLASS
  1
SUN
  2
AcDbSun
  3
SCENEOE
 90
     1153
 91
        3
280
     0
281
     0
  0
CLASS
  1
DICTIONARYVAR
  2
AcDbDictionaryVar
  3
ObjectDBX Classes
 90
        0
 91
        3
280
     0
281
     0
  0
CLASS
  1
CELLSTYLEMAP
  2
AcDbCellStyleMap
  3
ObjectDBX Classes
 90
     1152
 91
        3
280
     0
281
     0
  0
ENDSEC
  0
SECTION
  2
TABLES
  0
TABLE
  2
VPORT
  5
8
330
0
100
AcDbSymbolTable
 70
     1
  0
VPORT
  5
29
330
8
100
AcDbSymbolTableRecord
100
AcDbViewportTableRecord
  2
*Active
 70
     0
 10
0.0
 20
0.0
 11
1.0
 21
1.0
 12
10.42990654205607
 22
4.5
 13
0.0
 23
0.0
 14
0.5
 24
0.5
 15
0.5
 25
0.5
 16
0.0
 26
0.0
 36
1.0
 17
0.0
 27
0.0
 37
0.0
 40
9.0
 41
1.972972972850329
 42
50.0
 43
0.0
 44
0.0
 50
0.0
 51
0.0
 71
     0
 72
   100
 73
     1
 74
     3
 75
     0
 76
     0
 77
     0
 78
     0
281
     0
 65
     1
110
0.0
120
0.0
130
0.0
111
1.0
121
0.0
131
0.0
112
0.0
122
1.0
132
0.0
 79
     0
146
0.0
348
2F
 60
     3
 61
     5
292
     1
282
     1
141
0.0
142
0.0
 63
   250
361
5D
  0
ENDTAB
  0
TABLE
  2
LTYPE
  5
5
330
0
100
AcDbSymbolTable
 70
     1
  0
LTYPE
  5
14
330
5
100
AcDbSymbolTableRecord
100
AcDbLinetypeTableRecord
  2
ByBlock
 70
     0
  3

 72
    65
 73
     0
 40
0.0
  0
LTYPE
  5
15
330
5
100
AcDbSymbolTableRecord
100
AcDbLinetypeTableRecord
  2
ByLayer
 70
     0
  3

 72
    65
 73
     0
 40
0.0
  0
LTYPE
  5
16
330
5
100
AcDbSymbolTableRecord
100
AcDbLinetypeTableRecord
  2
Continuous
 70
     0
  3
Solid line
 72
    65
 73
     0
 40
0.0
  0
ENDTAB
  0
TABLE
  2
LAYER
  5
2
330
0
100
AcDbSymbolTable
 70
     2
  0
LAYER
  5
10
330
2
100
AcDbSymbolTableRecord
100
AcDbLayerTableRecord
  2
0
 70
     0
 62
     7
  6
Continuous
370
    -3
390
F
347
46
348
0
  0
LAYER
  5
5F
330
2
100
AcDbSymbolTableRecord
100
AcDbLayerTableRecord
  2
Layer 1
 70
     0
 62
     7
  6
Continuous
370
    -3
390
F
347
46
348
0
  0
ENDTAB
  0
TABLE
  2
STYLE
  5
3
330
0
100
AcDbSymbolTable
 70
     1
  0
STYLE
  5
11
330
3
100
AcDbSymbolTableRecord
100
AcDbTextStyleTableRecord
  2
Standard
 70
     0
 40
0.0
 41
1.0
 50
0.0
 71
     0
 42
0.2
  3
txt
  4

  0
ENDTAB
  0
TABLE
  2
VIEW
  5
6
330
0
100
AcDbSymbolTable
 70
     0
  0
ENDTAB
  0
TABLE
  2
UCS
  5
7
330
0
100
AcDbSymbolTable
 70
     0
  0
ENDTAB
  0
TABLE
  2
APPID
  5
9
330
0
100
AcDbSymbolTable
 70
     2
  0
APPID
  5
12
330
9
100
AcDbSymbolTableRecord
100
AcDbRegAppTableRecord
  2
ACAD
 70
     0
  0
APPID
  5
5E
330
9
100
AcDbSymbolTableRecord
100
AcDbRegAppTableRecord
  2
ODA
 70
     0
  0
ENDTAB
  0
TABLE
  2
DIMSTYLE
  5
A
330
0
100
AcDbSymbolTable
 70
     1
100
AcDbDimStyleTable
  0
DIMSTYLE
105
27
330
A
100
AcDbSymbolTableRecord
100
AcDbDimStyleTableRecord
  2
Standard
 70
     0
178
     0
340
11
  0
ENDTAB
  0
TABLE
  2
BLOCK_RECORD
  5
1
330
0
100
AcDbSymbolTable
 70
     1
  0
BLOCK_RECORD
  5
1F
330
1
100
AcDbSymbolTableRecord
100
AcDbBlockTableRecord
  2
*Model_Space
340
22
 70
     0
280
     1
281
     0
  0
BLOCK_RECORD
  5
1B
330
1
100
AcDbSymbolTableRecord
100
AcDbBlockTableRecord
  2
*Paper_Space
340
1E
 70
     0
280
     1
281
     0
  0
BLOCK_RECORD
  5
23
330
1
100
AcDbSymbolTableRecord
100
AcDbBlockTableRecord
  2
*Paper_Space0
340
26
 70
     0
280
     1
281
     0
  0
ENDTAB
  0
ENDSEC
  0
SECTION
  2
BLOCKS
  0
BLOCK
  5
20
330
1F
100
AcDbEntity
  8
0
100
AcDbBlockBegin
  2
*Model_Space
 70
     0
 10
0.0
 20
0.0
 30
0.0
  3
*Model_Space
  1

  0
ENDBLK
  5
21
330
1F
100
AcDbEntity
  8
0
100
AcDbBlockEnd
  0
BLOCK
  5
1C
330
1B
100
AcDbEntity
 67
     1
  8
0
100
AcDbBlockBegin
  2
*Paper_Space
 70
     0
 10
0.0
 20
0.0
 30
0.0
  3
*Paper_Space
  1

  0
ENDBLK
  5
1D
330
1B
100
AcDbEntity
 67
     1
  8
0
100
AcDbBlockEnd
  0
BLOCK
  5
24
330
23
100
AcDbEntity
  8
0
100
AcDbBlockBegin
  2
*Paper_Space0
 70
     0
 10
0.0
 20
0.0
 30
0.0
  3
*Paper_Space0
  1

  0
ENDBLK
  5
25
330
23
100
AcDbEntity
  8
0
100
AcDbBlockEnd
  0
ENDSEC
  0
SECTION
  2
ENTITIES
  0
SPLINE
  5
60
330
1F
100
AcDbEntity
  8
Layer 1
 62
   250
370
    20
100
AcDbSpline
210
0.0
220
0.0
230
1.0
 70
    11
 71
     3
 72
    14
 73
    10
 74
     0
 42
0.0000000001
 43
0.0000000001
 40
0.0
 40
0.0
 40
0.0
 40
0.0
 40
0.3333333333333333
 40
0.3333333333333333
 40
0.3333333333333333
 40
0.6666666666666666
 40
0.6666666666666666
 40
0.6666666666666666
 40
1.0
 40
1.0
 40
1.0
 40
1.0
 10
1190.5312
 20
-55.761
 30
0.0
 10
1193.718
 20
-56.2738
 30
0.0
 10
1196.8526
 20
-56.8249
 30
0.0
 10
1199.95
 20
-57.4032
 30
0.0
 10
1199.95
 20
-57.4032
 30
0.0
 10
1199.95
 20
-58.92
 30
0.0
 10
1199.95
 20
-58.92
 30
0.0
 10
1196.905
 20
-57.8342
 30
0.0
 10
1193.7703
 20
-56.7812
 30
0.0
 10
1190.5312
 20
-55.761
 30
0.0
  0
SPLINE
  5
61
330
1F
100
AcDbEntity
  8
Layer 1
 62
   250
370
    20
100
AcDbSpline
210
0.0
220
0.0
230
1.0
 70
    11
 71
     3
 72
    38
 73
    34
 74
     0
 42
0.0000000001
 43
0.0000000001
 40
0.0
 40
0.0
 40
0.0
 40
0.0
 40
0.0909090909090909
 40
0.0909090909090909
 40
0.0909090909090909
 40
0.1818181818181818
 40
0.1818181818181818
 40
0.1818181818181818
 40
0.2727272727272727
 40
0.2727272727272727
 40
0.2727272727272727
 40
0.3636363636363636
 40
0.3636363636363636
 40
0.3636363636363636
 40
0.4545454545454546
 40
0.4545454545454546
 40
0.4545454545454546
 40
0.5454545454545454
 40
0.5454545454545454
 40
0.5454545454545454
 40
0.6363636363636364
 40
0.6363636363636364
 40
0.6363636363636364
 40
0.7272727272727273
 40
0.7272727272727273
 40
0.7272727272727273
 40
0.8181818181818182
 40
0.8181818181818182
 40
0.8181818181818182
 40
0.9090909090909092
 40
0.9090909090909092
 40
0.9090909090909092
 40
1.0
 40
1.0
 40
1.0
 40
1.0
 10
1156.6398
 20
137.955
 30
0.0
 10
1095.3205
 20
90.6744
 30
0.0
 10
1148.3182
 20
70.4987
 30
0.0
 10
1199.95
 20
68.3055
 30
0.0
 10
1199.95
 20
68.3055
 30
0.0
 10
1199.95
 20
59.6415
 30
0.0
 10
1199.95
 20
59.6415
 30
0.0
 10
1128.5849
 20
48.4133
 30
0.0
 10
1077.177
 20
72.7247
 30
0.0
 10
1048.0697
 20
106.7583
 30
0.0
 10
1014.3574
 20
146.1715
 30
0.0
 10
1006.0134
 20
191.4171
 30
0.0
 10
1075.1917
 20
218.4017
 30
0.0
 10
1129.1521
 20
224.0813
 30
0.0
 10
1094.2308
 20
174.8639
 30
0.0
 10
1094.2308
 20
174.8639
 30
0.0
 10
1120.6662
 20
159.2384
 30
0.0
 10
1208.1224
 20
163.0247
 30
0.0
 10
1173.5743
 20
230.7047
 30
0.0
 10
1135.4811
 20
295.0621
 30
0.0
 10
1036.0537
 20
231.654
 30
0.0
 10
1036.0537
 20
231.654
 30
0.0
 10
1041.8751
 20
270.5434
 30
0.0
 10
1081.4833
 20
291.4994
 30
0.0
 10
1131.2568
 20
278.0234
 30
0.0
 10
1157.3638
 20
270.8326
 30
0.0
 10
1180.157
 20
266.7352
 30
0.0
 10
1199.95
 20
264.9948
 30
0.0
 10
1199.95
 20
264.9948
 30
0.0
 10
1199.95
 20
99.2893
 30
0.0
 10
1199.95
 20
99.2893
 30
0.0
 10
1192.1358
 20
100.0422
 30
0.0
 10
1165.6258
 20
105.0234
 30
0.0
 10
1156.6398
 20
137.955
 30
0.0
  0
SPLINE
  5
62
330
1F
100
AcDbEntity
  8
Layer 1
 62
   250
370
    20
100
AcDbSpline
210
0.0
220
0.0
230
1.0
 70
    11
 71
     3
 72
    17
 73
    13
 74
     0
 42
0.0000000001
 43
0.0000000001
 40
0.0
 40
0.0
 40
0.0
 40
0.0
 40
0.25
 40
0.25
 40
0.25
 40
0.5
 40
0.5
 40
0.5
 40
0.75
 40
0.75
 40
0.75
 40
1.0
 40
1.0
 40
1.0
 40
1.0
 10
1175.2984
 20
7.1506
 30
0.0
 10
1183.6052
 20
7.7398
 30
0.0
 10
1191.8298
 20
8.6182
 30
0.0
 10
1199.95
 20
9.7694
 30
0.0
 10
1199.95
 20
9.7694
 30
0.0
 10
1199.95
 20
-7.9785
 30
0.0
 10
1199.95
 20
-7.9785
 30
0.0
 10
1191.8298
 20
-6.8328
 30
0.0
 10
1183.6052
 20
-5.9598
 30
0.0
 10
1175.2984
 20
-5.376
 30
0.0
 10
1175.2984
 20
-5.376
 30
0.0
 10
1175.2984
 20
7.1506
 30
0.0
 10
1175.2984
 20
7.1506
 30
0.0
  0
SPLINE
  5
63
330
1F
100
AcDbEntity
  8
Layer 1
 62
   250
370
    20
100
AcDbSpline
210
0.0
220
0.0
230
1.0
 70
    11
 71
     3
 72
    50
 73
    46
 74
     0
 42
0.0000000001
 43
0.0000000001
 40
0.0
 40
0.0
 40
0.0
 40
0.0
 40
0.0666666666666667
 40
0.0666666666666667
 40
0.0666666666666667
 40
0.1333333333333333
 40
0.1333333333333333
 40
0.1333333333333333
 40
0.2
 40
0.2
 40
0.2
 40
0.2666666666666667
 40
0.2666666666666667
 40
0.2666666666666667
 40
0.3333333333333333
 40
0.3333333333333333
 40
0.3333333333333333
 40
0.4
 40
0.4
 40
0.4
 40
0.4666666666666667
 40
0.4666666666666667
 40
0.4666666666666667
 40
0.5333333333333333
 40
0.5333333333333333
 40
0.5333333333333333
 40
0.6
 40
0.6
 40
0.6
 40
0.6666666666666666
 40
0.6666666666666666
 40
0.6666666666666666
 40
0.7333333333333333
 40
0.7333333333333333
 40
0.7333333333333333
 40
0.8
 40
0.8
 40
0.8
 40
0.8666666666666667
 40
0.8666666666666667
 40
0.8666666666666667
 40
0.9333333333333333
 40
0.9333333333333333
 40
0.9333333333333333
 40
1.0
 40
1.0
 40
1.0
 40
1.0
 10
1149.8855
 20
527.7984
 30
0.0
 10
1166.9915
 20
527.7984
 30
0.0
 10
1183.7245
 20
526.3307
 30
0.0
 10
1199.95
 20
523.5428
 30
0.0
 10
1199.95
 20
523.5428
 30
0.0
 10
1199.95
 20
456.6485
 30
0.0
 10
1199.95
 20
456.6485
 30
0.0
 10
1193.427
 20
453.0695
 30
0.0
 10
1187.0532
 20
448.4701
 30
0.0
 10
1180.9855
 20
442.6923
 30
0.0
 10
1245.5141
 20
384.0146
 30
0.0
 10
1109.0458
 20
333.8587
 30
0.0
 10
1109.0458
 20
333.8587
 30
0.0
 10
1040.2705
 20
300.7308
 30
0.0
 10
987.3773
 20
229.7554
 30
0.0
 10
987.3773
 20
229.7554
 30
0.0
 10
1001.08
 20
262.0105
 30
0.0
 10
1023.627
 20
303.0495
 30
0.0
 10
1059.7648
 20
335.6919
 30
0.0
 10
1082.9611
 20
364.799
 30
0.0
 10
1020.8879
 20
412.9907
 30
0.0
 10
988.9893
 20
370.6422
 30
0.0
 10
984.8472
 20
365.1537
 30
0.0
 10
984.6084
 20
366.0811
 30
0.0
 10
988.6609
 20
360.9199
 30
0.0
 10
1033.337
 20
304.3043
 30
0.0
 10
977.3614
 20
299.0285
 30
0.0
 10
956.7026
 20
227.8622
 30
0.0
 10
939.8951
 20
169.9755
 30
0.0
 10
1015.895
 20
99.5566
 30
0.0
 10
1047.8457
 20
73.0466
 30
0.0
 10
952.3515
 20
108.848
 30
0.0
 10
884.9868
 20
193.2502
 30
0.0
 10
884.9868
 20
291.2593
 30
0.0
 10
879.8222
 20
370.484
 30
0.0
 10
946.0375
 20
464.5703
 30
0.0
 10
1022.2089
 20
464.7068
 30
0.0
 10
1049.7564
 20
464.7558
 30
0.0
 10
1080.6774
 20
457.0522
 30
0.0
 10
1107.9188
 20
424.7754
 30
0.0
 10
1125.7264
 20
437.3292
 30
0.0
 10
1158.5729
 20
526.8327
 30
0.0
 10
1035.2252
 20
504.4201
 30
0.0
 10
1069.9524
 20
519.4019
 30
0.0
 10
1108.8517
 20
527.7984
 30
0.0
 10
1149.8855
 20
527.7984
 30
0.0
  0
SPLINE
  5
64
330
1F
100
AcDbEntity
  8
Layer 1
 62
   250
370
    20
100
AcDbSpline
210
0.0
220
0.0
230
1.0
 70
    11
 71
     3
 72
    17
 73
    13
 74
     0
 42
0.0000000001
 43
0.0000000001
 40
0.0
 40
0.0
 40
0.0
 40
0.0
 40
0.25
 40
0.25
 40
0.25
 40
0.5
 40
0.5
 40
0.5
 40
0.75
 40
0.75
 40
0.75
 40
1.0
 40
1.0
 40
1.0
 40
1.0
 10
1173.7758
 20
589.9734
 30
0.0
 10
1173.7758
 20
589.9734
 30
0.0
 10
1199.95
 20
589.9734
 30
0.0
 10
1199.95
 20
589.9734
 30
0.0
 10
1199.95
 20
589.9734
 30
0.0
 10
1199.95
 20
574.7952
 30
0.0
 10
1199.95
 20
574.7952
 30
0.0
 10
1191.2178
 20
576.2738
 30
0.0
 10
1182.4931
 20
577.4031
 30
0.0
 10
1173.7758
 20
578.1833
 30
0.0
 10
1173.7758
 20
578.1833
 30
0.0
 10
1173.7758
 20
589.9734
 30
0.0
 10
1173.7758
 20
589.9734
 30
0.0
  0
SPLINE
  5
65
330
1F
100
AcDbEntity
  8
Layer 1
 62
   250
370
    20
100
AcDbSpline
210
0.0
220
0.0
230
1.0
 70
    11
 71
     3
 72
   173
 73
   169
 74
     0
 42
0.0000000001
 43
0.0000000001
 40
0.0
 40
0.0
 40
0.0
 40
0.0
 40
0.0178571428571429
 40
0.0178571428571429
 40
0.0178571428571429
 40
0.0357142857142857
 40
0.0357142857142857
 40
0.0357142857142857
 40
0.0535714285714286
 40
0.0535714285714286
 40
0.0535714285714286
 40
0.0714285714285714
 40
0.0714285714285714
 40
0.0714285714285714
 40
0.0892857142857143
 40
0.0892857142857143
 40
0.0892857142857143
 40
0.1071428571428571
 40
0.1071428571428571
 40
0.1071428571428571
 40
0.125
 40
0.125
 40
0.125
 40
0.1428571428571428
 40
0.1428571428571428
 40
0.1428571428571428
 40
0.1607142857142857
 40
0.1607142857142857
 40
0.1607142857142857
 40
0.1785714285714285
 40
0.1785714285714285
 40
0.1785714285714285
 40
0.1964285714285714
 40
0.1964285714285714
 40
0.1964285714285714
 40
0.2142857142857143
 40
0.2142857142857143
 40
0.2142857142857143
 40
0.2321428571428571
 40
0.2321428571428571
 40
0.2321428571428571
 40
0.25
 40
0.25
 40
0.25
 40
0.2678571428571428
 40
0.2678571428571428
 40
0.2678571428571428
 40
0.2857142857142857
 40
0.2857142857142857
 40
0.2857142857142857
 40
0.3035714285714285
 40
0.3035714285714285
 40
0.3035714285714285
 40
0.3214285714285714
 40
0.3214285714285714
 40
0.3214285714285714
 40
0.3392857142857142
 40
0.3392857142857142
 40
0.3392857142857142
 40
0.3571428571428571
 40
0.3571428571428571
 40
0.3571428571428571
 40
0.375
 40
0.375
 40
0.375
 40
0.3928571428571428
 40
0.3928571428571428
 40
0.3928571428571428
 40
0.4107142857142857
 40
0.4107142857142857
 40
0.4107142857142857
 40
0.4285714285714285
 40
0.4285714285714285
 40
0.4285714285714285
 40
0.4464285714285714
 40
0.4464285714285714
 40
0.4464285714285714
 40
0.4642857142857142
 40
0.4642857142857142
 40
0.4642857142857142
 40
0.4821428571428571
 40
0.4821428571428571
 40
0.4821428571428571
 40
0.5
 40
0.5
 40
0.5
 40
0.5178571428571428
 40
0.5178571428571428
 40
0.5178571428571428
 40
0.5357142857142857
 40
0.5357142857142857
 40
0.5357142857142857
 40
0.5535714285714285
 40
0.5535714285714285
 40
0.5535714285714285
 40
0.5714285714285714
 40
0.5714285714285714
 40
0.5714285714285714
 40
0.5892857142857143
 40
0.5892857142857143
 40
0.5892857142857143
 40
0.6071428571428571
 40
0.6071428571428571
 40
0.6071428571428571
 40
0.625
 40
0.625
 40
0.625
 40
0.6428571428571428
 40
0.6428571428571428
 40
0.6428571428571428
 40
0.6607142857142857
 40
0.6607142857142857
 40
0.6607142857142857
 40
0.6785714285714285
 40
0.6785714285714285
 40
0.6785714285714285
 40
0.6964285714285714
 40
0.6964285714285714
 40
0.6964285714285714
 40
0.7142857142857142
 40
0.7142857142857142
 40
0.7142857142857142
 40
0.7321428571428571
 40
0.7321428571428571
 40
0.7321428571428571
 40
0.75
 40
0.75
 40
0.75
 40
0.7678571428571428
 40
0.7678571428571428
 40
0.7678571428571428
 40
0.7857142857142857
 40
0.7857142857142857
 40
0.7857142857142857
 40
0.8035714285714285
 40
0.8035714285714285
 40
0.8035714285714285
 40
0.8214285714285714
 40
0.8214285714285714
 40
0.8214285714285714
 40
0.8392857142857142
 40
0.8392857142857142
 40
0.8392857142857142
 40
0.8571428571428571
 40
0.8571428571428571
 40
0.8571428571428571
 40
0.875
 40
0.875
 40
0.875
 40
0.8928571428571428
 40
0.8928571428571428
 40
0.8928571428571428
 40
0.9107142857142857
 40
0.9107142857142857
 40
0.9107142857142857
 40
0.9285714285714285
 40
0.9285714285714285
 40
0.9285714285714285
 40
0.9464285714285714
 40
0.9464285714285714
 40
0.9464285714285714
 40
0.9642857142857142
 40
0.9642857142857142
 40
0.9642857142857142
 40
0.9821428571428571
 40
0.9821428571428571
 40
0.9821428571428571
 40
1.0
 40
1.0
 40
1.0
 40
1.0
 10
1004.7969
 20
37.5289
 30
0.0
 10
1042.3303
 20
20.3156
 30
0.0
 10
1084.1403
 20
9.5458
 30
0.0
 10
1128.376
 20
6.8942
 30
0.0
 10
1128.376
 20
6.8942
 30
0.0
 10
1128.376
 20
-5.1578
 30
0.0
 10
1128.376
 20
-5.1578
 30
0.0
 10
1053.4881
 20
-9.6917
 30
0.0
 10
985.5487
 20
-37.4729
 30
0.0
 10
933.5661
 20
-80.4433
 30
0.0
 10
933.5661
 20
-80.4433
 30
0.0
 10
933.6258
 20
-80.356
 30
0.0
 10
933.6258
 20
-80.356
 30
0.0
 10
933.6258
 20
-80.356
 30
0.0
 10
928.7299
 20
-67.6493
 30
0.0
 10
928.7299
 20
-67.6493
 30
0.0
 10
948.478
 20
18.6079
 30
0.0
 10
804.9641
 20
-0.5039
 30
0.0
 10
834.7954
 20
-72.4014
 30
0.0
 10
909.5265
 20
-63.5301
 30
0.0
 10
871.8661
 20
-147.6923
 30
0.0
 10
866.5223
 20
-158.9477
 30
0.0
 10
843.7739
 20
-198.1044
 30
0.0
 10
830.922
 20
-242.4989
 30
0.0
 10
830.9144
 20
-289.5121
 30
0.0
 10
830.9144
 20
-361.6277
 30
0.0
 10
861.1935
 20
-427.6219
 30
0.0
 10
910.9595
 20
-477.914
 30
0.0
 10
910.9595
 20
-477.914
 30
0.0
 10
910.84
 20
-477.8485
 30
0.0
 10
910.84
 20
-477.8485
 30
0.0
 10
910.84
 20
-477.8485
 30
0.0
 10
896.5402
 20
-482.0441
 30
0.0
 10
896.5402
 20
-482.0441
 30
0.0
 10
800.21
 20
-463.2759
 30
0.0
 10
819.7118
 20
-591.6688
 30
0.0
 10
900.6151
 20
-565.9771
 30
0.0
 10
891.5696
 20
-498.3899
 30
0.0
 10
987.5339
 20
-535.7079
 30
0.0
 10
998.326
 20
-540.1109
 30
0.0
 10
1041.7631
 20
-561.1923
 30
0.0
 10
1085.2823
 20
-574.1336
 30
0.0
 10
1128.3833
 20
-578.1492
 30
0.0
 10
1128.3833
 20
-578.1492
 30
0.0
 10
1128.3833
 20
-590.0266
 30
0.0
 10
1128.3833
 20
-590.0266
 30
0.0
 10
1128.3833
 20
-590.0266
 30
0.0
 10
493.5163
 20
-590.0266
 30
0.0
 10
493.5163
 20
-590.0266
 30
0.0
 10
493.5163
 20
-590.0266
 30
0.0
 10
493.5163
 20
-579.0875
 30
0.0
 10
493.5163
 20
-579.0875
 30
0.0
 10
556.2387
 20
-574.5592
 30
0.0
 10
617.6774
 20
-550.3788
 30
0.0
 10
676.2652
 20
-504.1513
 30
0.0
 10
676.2652
 20
-504.1513
 30
0.0
 10
676.1905
 20
-504.2604
 30
0.0
 10
676.1905
 20
-504.2604
 30
0.0
 10
676.1905
 20
-504.2604
 30
0.0
 10
680.8925
 20
-517.0217
 30
0.0
 10
680.8925
 20
-517.0217
 30
0.0
 10
659.8681
 20
-603.0388
 30
0.0
 10
803.6655
 20
-585.6237
 30
0.0
 10
774.8941
 20
-513.3826
 30
0.0
 10
699.2003
 20
-521.4627
 30
0.0
 10
740.9953
 20
-435.7784
 30
0.0
 10
745.9212
 20
-426.1324
 30
0.0
 10
770.4758
 20
-385.7863
 30
0.0
 10
784.4623
 20
-339.6024
 30
0.0
 10
784.4623
 20
-290.6032
 30
0.0
 10
784.4623
 20
-216.0106
 30
0.0
 10
752.0561
 20
-147.9596
 30
0.0
 10
699.2003
 20
-97.0728
 30
0.0
 10
699.2003
 20
-97.0728
 30
0.0
 10
699.4615
 20
-97.2092
 30
0.0
 10
699.4615
 20
-97.2092
 30
0.0
 10
699.4615
 20
-97.2092
 30
0.0
 10
713.7091
 20
-92.8445
 30
0.0
 10
713.7091
 20
-92.8445
 30
0.0
 10
810.3005
 20
-110.4723
 30
0.0
 10
788.888
 20
17.675
 30
0.0
 10
708.3728
 20
-8.9605
 30
0.0
 10
718.6946
 20
-78.2446
 30
0.0
 10
616.6848
 20
-39.3497
 30
0.0
 10
610.3708
 20
-36.8782
 30
0.0
 10
573.1956
 20
-19.8341
 30
0.0
 10
531.8483
 20
-9.1079
 30
0.0
 10
488.0978
 20
-6.3199
 30
0.0
 10
488.0978
 20
-6.3199
 30
0.0
 10
488.0978
 20
6.4469
 30
0.0
 10
488.0978
 20
6.4469
 30
0.0
 10
562.3363
 20
11.2862
 30
0.0
 10
629.6637
 20
38.9747
 30
0.0
 10
681.2731
 20
81.6342
 30
0.0
 10
681.2731
 20
81.6342
 30
0.0
 10
681.2134
 20
81.5468
 30
0.0
 10
681.2134
 20
81.5468
 30
0.0
 10
681.2134
 20
81.5468
 30
0.0
 10
686.1019
 20
68.8401
 30
0.0
 10
686.1019
 20
68.8401
 30
0.0
 10
666.3538
 20
-17.4171
 30
0.0
 10
809.8751
 20
1.6947
 30
0.0
 10
780.0364
 20
73.5921
 30
0.0
 10
705.3053
 20
64.7209
 30
0.0
 10
742.9731
 20
148.8831
 30
0.0
 10
748.317
 20
160.1385
 30
0.0
 10
771.0579
 20
199.2953
 30
0.0
 10
783.9174
 20
243.6896
 30
0.0
 10
783.9174
 20
290.6974
 30
0.0
 10
783.9174
 20
362.8184
 30
0.0
 10
753.6458
 20
428.8126
 30
0.0
 10
703.8798
 20
479.0994
 30
0.0
 10
703.8798
 20
479.0994
 30
0.0
 10
703.9993
 20
479.0394
 30
0.0
 10
703.9993
 20
479.0394
 30
0.0
 10
703.9993
 20
479.0394
 30
0.0
 10
718.2916
 20
483.235
 30
0.0
 10
718.2916
 20
483.235
 30
0.0
 10
814.6218
 20
464.4612
 30
0.0
 10
795.1274
 20
592.8541
 30
0.0
 10
714.2167
 20
567.1733
 30
0.0
 10
723.2698
 20
499.5806
 30
0.0
 10
627.3052
 20
536.8988
 30
0.0
 10
616.5058
 20
541.3016
 30
0.0
 10
576.1959
 20
560.8664
 30
0.0
 10
534.8188
 20
573.0058
 30
0.0
 10
493.5163
 20
577.3158
 30
0.0
 10
493.5163
 20
577.3158
 30
0.0
 10
493.5163
 20
589.9734
 30
0.0
 10
493.5163
 20
589.9734
 30
0.0
 10
493.5163
 20
589.9734
 30
0.0
 10
1128.3833
 20
589.9734
 30
0.0
 10
1128.3833
 20
589.9734
 30
0.0
 10
1128.3833
 20
589.9734
 30
0.0
 10
1128.3833
 20
579.0453
 30
0.0
 10
1128.3833
 20
579.0453
 30
0.0
 10
1062.5636
 20
575.6027
 30
0.0
 10
998.0724
 20
551.4933
 30
0.0
 10
938.8951
 20
504.8074
 30
0.0
 10
938.8951
 20
504.8074
 30
0.0
 10
938.9697
 20
504.9166
 30
0.0
 10
938.9697
 20
504.9166
 30
0.0
 10
938.9697
 20
504.9166
 30
0.0
 10
934.2677
 20
517.6777
 30
0.0
 10
934.2677
 20
517.6777
 30
0.0
 10
955.2847
 20
603.695
 30
0.0
 10
811.5021
 20
586.2798
 30
0.0
 10
840.266
 20
514.0333
 30
0.0
 10
915.9599
 20
522.1189
 30
0.0
 10
874.1724
 20
436.4291
 30
0.0
 10
869.2391
 20
426.7885
 30
0.0
 10
844.677
 20
386.4424
 30
0.0
 10
830.698
 20
340.2531
 30
0.0
 10
830.698
 20
291.2593
 30
0.0
 10
830.698
 20
216.6668
 30
0.0
 10
863.1041
 20
148.6158
 30
0.0
 10
915.9599
 20
97.7234
 30
0.0
 10
915.9599
 20
97.7234
 30
0.0
 10
915.6988
 20
97.8599
 30
0.0
 10
915.6988
 20
97.8599
 30
0.0
 10
915.6988
 20
97.8599
 30
0.0
 10
901.4511
 20
93.5007
 30
0.0
 10
901.4511
 20
93.5007
 30
0.0
 10
804.8597
 20
111.1285
 30
0.0
 10
826.2722
 20
-17.0243
 30
0.0
 10
906.7874
 20
9.6112
 30
0.0
 10
896.4656
 20
78.8953
 30
0.0
 10
998.4754
 20
40.0058
 30
0.0
 10
1004.7969
 20
37.5289
 30
0.0
  0
SPLINE
  5
66
330
1F
100
AcDbEntity
  8
Layer 1
 62
   250
370
    20
100
AcDbSpline
210
0.0
220
0.0
230
1.0
 70
    11
 71
     3
 72
    68
 73
    64
 74
     0
 42
0.0000000001
 43
0.0000000001
 40
0.0
 40
0.0
 40
0.0
 40
0.0
 40
0.0476190476190476
 40
0.0476190476190476
 40
0.0476190476190476
 40
0.0952380952380952
 40
0.0952380952380952
 40
0.0952380952380952
 40
0.1428571428571428
 40
0.1428571428571428
 40
0.1428571428571428
 40
0.1904761904761905
 40
0.1904761904761905
 40
0.1904761904761905
 40
0.2380952380952381
 40
0.2380952380952381
 40
0.2380952380952381
 40
0.2857142857142857
 40
0.2857142857142857
 40
0.2857142857142857
 40
0.3333333333333333
 40
0.3333333333333333
 40
0.3333333333333333
 40
0.3809523809523809
 40
0.3809523809523809
 40
0.3809523809523809
 40
0.4285714285714285
 40
0.4285714285714285
 40
0.4285714285714285
 40
0.4761904761904762
 40
0.4761904761904762
 40
0.4761904761904762
 40
0.5238095238095237
 40
0.5238095238095237
 40
0.5238095238095237
 40
0.5714285714285714
 40
0.5714285714285714
 40
0.5714285714285714
 40
0.6190476190476191
 40
0.6190476190476191
 40
0.6190476190476191
 40
0.6666666666666666
 40
0.6666666666666666
 40
0.6666666666666666
 40
0.7142857142857142
 40
0.7142857142857142
 40
0.7142857142857142
 40
0.7619047619047619
 40
0.7619047619047619
 40
0.7619047619047619
 40
0.8095238095238095
 40
0.8095238095238095
 40
0.8095238095238095
 40
0.8571428571428571
 40
0.8571428571428571
 40
0.8571428571428571
 40
0.9047619047619047
 40
0.9047619047619047
 40
0.9047619047619047
 40
0.9523809523809523
 40
0.9523809523809523
 40
0.9523809523809523
 40
1.0
 40
1.0
 40
1.0
 40
1.0
 10
1199.95
 20
-280.5044
 30
0.0
 10
1175.4626
 20
-304.4502
 30
0.0
 10
1187.1129
 20
-340.3225
 30
0.0
 10
1199.95
 20
-364.683
 30
0.0
 10
1199.95
 20
-364.683
 30
0.0
 10
1199.95
 20
-387.3084
 30
0.0
 10
1199.95
 20
-387.3084
 30
0.0
 10
1167.5364
 20
-375.9712
 30
0.0
 10
1151.9379
 20
-344.4199
 30
0.0
 10
1164.9317
 20
-306.147
 30
0.0
 10
1235.4235
 20
-101.9612
 30
0.0
 10
1043.211
 20
-122.7154
 30
0.0
 10
1093.9174
 20
-219.235
 30
0.0
 10
1015.3352
 20
-88.0215
 30
0.0
 10
901.5407
 20
-195.6385
 30
0.0
 10
980.5184
 20
-261.7471
 30
0.0
 10
1046.2262
 20
-204.1223
 30
0.0
 10
1102.4032
 20
-325.9846
 30
0.0
 10
1102.4032
 20
-325.9846
 30
0.0
 10
1128.0849
 20
-368.4912
 30
0.0
 10
1174.0669
 20
-404.1999
 30
0.0
 10
1199.95
 20
-422.1605
 30
0.0
 10
1199.95
 20
-422.1605
 30
0.0
 10
1199.95
 20
-427.731
 30
0.0
 10
1199.95
 20
-427.731
 30
0.0
 10
1167.6186
 20
-415.2425
 30
0.0
 10
1130.7343
 20
-396.8072
 30
0.0
 10
1100.3434
 20
-369.9806
 30
0.0
 10
1067.7506
 20
-349.2701
 30
0.0
 10
1013.7828
 20
-404.7017
 30
0.0
 10
1061.2053
 20
-433.1814
 30
0.0
 10
1067.3551
 20
-436.875
 30
0.0
 10
1066.3177
 20
-437.0932
 30
0.0
 10
1072.0944
 20
-433.4759
 30
0.0
 10
1129.3686
 20
-397.44
 30
0.0
 10
1139.7352
 20
-434.7418
 30
0.0
 10
1199.95
 20
-455.8887
 30
0.0
 10
1199.95
 20
-455.8887
 30
0.0
 10
1199.95
 20
-521.8283
 30
0.0
 10
1199.95
 20
-521.8283
 30
0.0
 10
1183.7992
 20
-524.5944
 30
0.0
 10
1167.1334
 20
-526.0457
 30
0.0
 10
1150.102
 20
-526.0457
 30
0.0
 10
1061.3845
 20
-530.6613
 30
0.0
 10
956.016
 20
-471.5306
 30
0.0
 10
955.8592
 20
-403.5124
 30
0.0
 10
955.807
 20
-378.9173
 30
0.0
 10
964.4348
 20
-351.3106
 30
0.0
 10
1000.58
 20
-326.9829
 30
0.0
 10
986.519
 20
-311.0846
 30
0.0
 10
886.2854
 20
-281.7538
 30
0.0
 10
911.3923
 20
-391.8914
 30
0.0
 10
894.6072
 20
-360.8857
 30
0.0
 10
885.2107
 20
-326.1537
 30
0.0
 10
885.2107
 20
-289.5121
 30
0.0
 10
885.2107
 20
-193.4289
 30
0.0
 10
949.9408
 20
-110.4178
 30
0.0
 10
1042.4498
 20
-73.4598
 30
0.0
 10
1088.6706
 20
-55.0081
 30
0.0
 10
1153.0499
 20
-66.4271
 30
0.0
 10
1199.95
 20
-94.885
 30
0.0
 10
1199.95
 20
-94.885
 30
0.0
 10
1199.95
 20
-280.5044
 30
0.0
 10
1199.95
 20
-280.5044
 30
0.0
  0
SPLINE
  5
67
330
1F
100
AcDbEntity
  8
Layer 1
 62
   250
370
    20
100
AcDbSpline
210
0.0
220
0.0
230
1.0
 70
    11
 71
     3
 72
    17
 73
    13
 74
     0
 42
0.0000000001
 43
0.0000000001
 40
0.0
 40
0.0
 40
0.0
 40
0.0
 40
0.25
 40
0.25
 40
0.25
 40
0.5
 40
0.5
 40
0.5
 40
0.75
 40
0.75
 40
0.75
 40
1.0
 40
1.0
 40
1.0
 40
1.0
 10
1173.7758
 20
-579.033
 30
0.0
 10
1182.5229
 20
-578.5474
 30
0.0
 10
1191.2477
 20
-577.6745
 30
0.0
 10
1199.95
 20
-576.4087
 30
0.0
 10
1199.95
 20
-576.4087
 30
0.0
 10
1199.95
 20
-590.0266
 30
0.0
 10
1199.95
 20
-590.0266
 30
0.0
 10
1199.95
 20
-590.0266
 30
0.0
 10
1173.7758
 20
-590.0266
 30
0.0
 10
1173.7758
 20
-590.0266
 30
0.0
 10
1173.7758
 20
-590.0266
 30
0.0
 10
1173.7758
 20
-579.033
 30
0.0
 10
1173.7758
 20
-579.033
 30
0.0
  0
SPLINE
  5
68
330
1F
100
AcDbEntity
  8
Layer 1
 62
   250
370
    20
100
AcDbSpline
210
0.0
220
0.0
230
1.0
 70
    11
 71
     3
 72
    11
 73
     7
 74
     0
 42
0.0000000001
 43
0.0000000001
 40
0.0
 40
0.0
 40
0.0
 40
0.0
 40
0.5
 40
0.5
 40
0.5
 40
1.0
 40
1.0
 40
1.0
 40
1.0
 10
364.4436
 20
-72.1115
 30
0.0
 10
361.5924
 20
-73.1212
 30
0.0
 10
358.7167
 20
-74.1831
 30
0.0
 10
355.8164
 20
-75.2984
 30
0.0
 10
358.23
 20
-74.1098
 30
0.0
 10
361.1386
 20
-73.0449
 30
0.0
 10
364.4436
 20
-72.1115
 30
0.0
  0
SPLINE
  5
69
330
1F
100
AcDbEntity
  8
Layer 1
 62
   250
370
    20
100
AcDbSpline
210
0.0
220
0.0
230
1.0
 70
    11
 71
     3
 72
    89
 73
    85
 74
     0
 42
0.0000000001
 43
0.0000000001
 40
0.0
 40
0.0
 40
0.0
 40
0.0
 40
0.0357142857142857
 40
0.0357142857142857
 40
0.0357142857142857
 40
0.0714285714285714
 40
0.0714285714285714
 40
0.0714285714285714
 40
0.1071428571428571
 40
0.1071428571428571
 40
0.1071428571428571
 40
0.1428571428571428
 40
0.1428571428571428
 40
0.1428571428571428
 40
0.1785714285714285
 40
0.1785714285714285
 40
0.1785714285714285
 40
0.2142857142857143
 40
0.2142857142857143
 40
0.2142857142857143
 40
0.25
 40
0.25
 40
0.25
 40
0.2857142857142857
 40
0.2857142857142857
 40
0.2857142857142857
 40
0.3214285714285714
 40
0.3214285714285714
 40
0.3214285714285714
 40
0.3571428571428571
 40
0.3571428571428571
 40
0.3571428571428571
 40
0.3928571428571428
 40
0.3928571428571428
 40
0.3928571428571428
 40
0.4285714285714285
 40
0.4285714285714285
 40
0.4285714285714285
 40
0.4642857142857142
 40
0.4642857142857142
 40
0.4642857142857142
 40
0.5
 40
0.5
 40
0.5
 40
0.5357142857142857
 40
0.5357142857142857
 40
0.5357142857142857
 40
0.5714285714285714
 40
0.5714285714285714
 40
0.5714285714285714
 40
0.6071428571428571
 40
0.6071428571428571
 40
0.6071428571428571
 40
0.6428571428571428
 40
0.6428571428571428
 40
0.6428571428571428
 40
0.6785714285714285
 40
0.6785714285714285
 40
0.6785714285714285
 40
0.7142857142857142
 40
0.7142857142857142
 40
0.7142857142857142
 40
0.75
 40
0.75
 40
0.75
 40
0.7857142857142857
 40
0.7857142857142857
 40
0.7857142857142857
 40
0.8214285714285714
 40
0.8214285714285714
 40
0.8214285714285714
 40
0.8571428571428571
 40
0.8571428571428571
 40
0.8571428571428571
 40
0.8928571428571428
 40
0.8928571428571428
 40
0.8928571428571428
 40
0.9285714285714285
 40
0.9285714285714285
 40
0.9285714285714285
 40
0.9642857142857142
 40
0.9642857142857142
 40
0.9642857142857142
 40
1.0
 40
1.0
 40
1.0
 40
1.0
 10
567.3069
 20
-72.3904
 30
0.0
 10
662.8087
 20
-108.1973
 30
0.0
 10
730.1659
 20
-192.5941
 30
0.0
 10
730.1659
 20
-290.6032
 30
0.0
 10
735.3381
 20
-369.8279
 30
0.0
 10
669.1227
 20
-463.9143
 30
0.0
 10
592.9513
 20
-464.0506
 30
0.0
 10
565.4038
 20
-464.0998
 30
0.0
 10
534.4829
 20
-456.4015
 30
0.0
 10
507.2414
 20
-424.1192
 30
0.0
 10
489.4337
 20
-436.6786
 30
0.0
 10
456.5873
 20
-526.1765
 30
0.0
 10
579.935
 20
-503.7694
 30
0.0
 10
545.2078
 20
-518.7457
 30
0.0
 10
506.3085
 20
-527.1422
 30
0.0
 10
465.2747
 20
-527.1422
 30
0.0
 10
357.6674
 20
-527.1422
 30
0.0
 10
264.7031
 20
-469.3374
 30
0.0
 10
223.3111
 20
-386.7356
 30
0.0
 10
190.5692
 20
-321.3362
 30
0.0
 10
241.8128
 20
-215.1759
 30
0.0
 10
319.9249
 20
-195.0328
 30
0.0
 10
319.9249
 20
-195.0328
 30
0.0
 10
295.5868
 20
-235.2643
 30
0.0
 10
338.964
 20
-232.8911
 30
0.0
 10
382.3413
 20
-230.5232
 30
0.0
 10
399.6192
 20
-144.7188
 30
0.0
 10
295.5868
 20
-163.8035
 30
0.0
 10
275.7192
 20
-170.0231
 30
0.0
 10
229.5505
 20
-188.393
 30
0.0
 10
203.4957
 20
-254.5126
 30
0.0
 10
224.5426
 20
-150.3602
 30
0.0
 10
293.191
 20
-100.319
 30
0.0
 10
413.0234
 20
-98.4968
 30
0.0
 10
413.0234
 20
-98.4968
 30
0.0
 10
447.9298
 20
-98.5076
 30
0.0
 10
458.5129
 20
-137.2989
 30
0.0
 10
542.4673
 20
-72.5695
 30
0.0
 10
412.155
 20
-58.6368
 30
0.0
 10
364.4436
 20
-72.1115
 30
0.0
 10
462.5138
 20
-37.3823
 30
0.0
 10
531.4808
 20
-64.4676
 30
0.0
 10
567.098
 20
-106.1022
 30
0.0
 10
600.8028
 20
-145.5208
 30
0.0
 10
609.1468
 20
-190.7664
 30
0.0
 10
539.9685
 20
-217.7457
 30
0.0
 10
486.0081
 20
-223.4251
 30
0.0
 10
520.9294
 20
-174.2078
 30
0.0
 10
520.9294
 20
-174.2078
 30
0.0
 10
494.4939
 20
-158.5877
 30
0.0
 10
407.0378
 20
-162.3686
 30
0.0
 10
441.5859
 20
-230.054
 30
0.0
 10
479.6716
 20
-294.4059
 30
0.0
 10
579.1141
 20
-230.9979
 30
0.0
 10
579.1141
 20
-230.9979
 30
0.0
 10
573.2851
 20
-269.8873
 30
0.0
 10
533.6768
 20
-290.8433
 30
0.0
 10
483.9034
 20
-277.3672
 30
0.0
 10
255.2321
 20
-214.4285
 30
0.0
 10
278.4731
 20
-386.059
 30
0.0
 10
386.5731
 20
-340.7754
 30
0.0
 10
239.6186
 20
-410.9487
 30
0.0
 10
360.1378
 20
-512.5587
 30
0.0
 10
434.1822
 20
-442.0363
 30
0.0
 10
369.6461
 20
-383.3584
 30
0.0
 10
506.122
 20
-333.2026
 30
0.0
 10
506.122
 20
-333.2026
 30
0.0
 10
574.8898
 20
-300.0801
 30
0.0
 10
627.7904
 20
-229.1047
 30
0.0
 10
627.7904
 20
-229.1047
 30
0.0
 10
614.0802
 20
-261.3543
 30
0.0
 10
591.5332
 20
-302.3933
 30
0.0
 10
555.3879
 20
-335.0413
 30
0.0
 10
532.1991
 20
-364.1428
 30
0.0
 10
594.2722
 20
-412.3345
 30
0.0
 10
626.1709
 20
-369.9915
 30
0.0
 10
630.3055
 20
-364.4975
 30
0.0
 10
630.5518
 20
-365.4304
 30
0.0
 10
626.4992
 20
-360.2637
 30
0.0
 10
581.8233
 20
-303.6536
 30
0.0
 10
637.7988
 20
-298.3724
 30
0.0
 10
658.4575
 20
-227.206
 30
0.0
 10
675.2651
 20
-169.3193
 30
0.0
 10
599.2728
 20
-98.9059
 30
0.0
 10
567.3069
 20
-72.3904
 30
0.0
  0
SPLINE
  5
6A
330
1F
100
AcDbEntity
  8
Layer 1
 62
   250
370
    20
100
AcDbSpline
210
0.0
220
0.0
230
1.0
 70
    11
 71
     3
 72
    11
 73
     7
 74
     0
 42
0.0000000001
 43
0.0000000001
 40
0.0
 40
0.0
 40
0.0
 40
0.0
 40
0.5
 40
0.5
 40
0.5
 40
1.0
 40
1.0
 40
1.0
 40
1.0
 10
220.0293
 20
200.6732
 30
0.0
 10
221.1612
 20
198.1244
 30
0.0
 10
222.3518
 20
195.5536
 30
0.0
 10
223.6022
 20
192.961
 30
0.0
 10
222.2694
 20
195.1183
 30
0.0
 10
221.0756
 20
197.7185
 30
0.0
 10
220.0293
 20
200.6732
 30
0.0
  0
SPLINE
  5
6B
330
1F
100
AcDbEntity
  8
Layer 1
 62
   250
370
    20
100
AcDbSpline
210
0.0
220
0.0
230
1.0
 70
    11
 71
     3
 72
    89
 73
    85
 74
     0
 42
0.0000000001
 43
0.0000000001
 40
0.0
 40
0.0
 40
0.0
 40
0.0
 40
0.0357142857142857
 40
0.0357142857142857
 40
0.0357142857142857
 40
0.0714285714285714
 40
0.0714285714285714
 40
0.0714285714285714
 40
0.1071428571428571
 40
0.1071428571428571
 40
0.1071428571428571
 40
0.1428571428571428
 40
0.1428571428571428
 40
0.1428571428571428
 40
0.1785714285714285
 40
0.1785714285714285
 40
0.1785714285714285
 40
0.2142857142857143
 40
0.2142857142857143
 40
0.2142857142857143
 40
0.25
 40
0.25
 40
0.25
 40
0.2857142857142857
 40
0.2857142857142857
 40
0.2857142857142857
 40
0.3214285714285714
 40
0.3214285714285714
 40
0.3214285714285714
 40
0.3571428571428571
 40
0.3571428571428571
 40
0.3571428571428571
 40
0.3928571428571428
 40
0.3928571428571428
 40
0.3928571428571428
 40
0.4285714285714285
 40
0.4285714285714285
 40
0.4285714285714285
 40
0.4642857142857142
 40
0.4642857142857142
 40
0.4642857142857142
 40
0.5
 40
0.5
 40
0.5
 40
0.5357142857142857
 40
0.5357142857142857
 40
0.5357142857142857
 40
0.5714285714285714
 40
0.5714285714285714
 40
0.5714285714285714
 40
0.6071428571428571
 40
0.6071428571428571
 40
0.6071428571428571
 40
0.6428571428571428
 40
0.6428571428571428
 40
0.6428571428571428
 40
0.6785714285714285
 40
0.6785714285714285
 40
0.6785714285714285
 40
0.7142857142857142
 40
0.7142857142857142
 40
0.7142857142857142
 40
0.75
 40
0.75
 40
0.75
 40
0.7857142857142857
 40
0.7857142857142857
 40
0.7857142857142857
 40
0.8214285714285714
 40
0.8214285714285714
 40
0.8214285714285714
 40
0.8571428571428571
 40
0.8571428571428571
 40
0.8571428571428571
 40
0.8928571428571428
 40
0.8928571428571428
 40
0.8928571428571428
 40
0.9285714285714285
 40
0.9285714285714285
 40
0.9285714285714285
 40
0.9642857142857142
 40
0.9642857142857142
 40
0.9642857142857142
 40
1.0
 40
1.0
 40
1.0
 40
1.0
 10
464.73
 20
527.2364
 30
0.0
 10
553.4549
 20
531.8522
 30
0.0
 10
658.8232
 20
472.7215
 30
0.0
 10
658.9726
 20
404.7032
 30
0.0
 10
659.0321
 20
380.1136
 30
0.0
 10
650.4045
 20
352.5015
 30
0.0
 10
614.2518
 20
328.1738
 30
0.0
 10
628.3128
 20
312.2753
 30
0.0
 10
728.5464
 20
282.9447
 30
0.0
 10
703.4544
 20
393.0821
 30
0.0
 10
720.2246
 20
362.0765
 30
0.0
 10
729.6286
 20
327.3444
 30
0.0
 10
729.6286
 20
290.6974
 30
0.0
 10
729.6286
 20
194.6196
 30
0.0
 10
664.891
 20
111.6086
 30
0.0
 10
572.382
 20
74.6506
 30
0.0
 10
499.1436
 20
45.4126
 30
0.0
 10
380.2516
 20
91.1709
 30
0.0
 10
357.6971
 20
160.9132
 30
0.0
 10
357.6971
 20
160.9132
 30
0.0
 10
402.7538
 20
139.1881
 30
0.0
 10
400.0968
 20
177.9193
 30
0.0
 10
397.4398
 20
216.6504
 30
0.0
 10
301.3485
 20
232.0742
 30
0.0
 10
322.7161
 20
139.1826
 30
0.0
 10
329.6871
 20
121.451
 30
0.0
 10
350.2562
 20
80.221
 30
0.0
 10
424.308
 20
56.9517
 30
0.0
 10
307.6625
 20
75.7472
 30
0.0
 10
251.6273
 20
137.0494
 30
0.0
 10
249.5823
 20
244.0443
 30
0.0
 10
249.5823
 20
244.0443
 30
0.0
 10
249.5897
 20
275.2191
 30
0.0
 10
293.0417
 20
284.6687
 30
0.0
 10
220.5601
 20
359.6286
 30
0.0
 10
204.9408
 20
243.285
 30
0.0
 10
220.0293
 20
200.6732
 30
0.0
 10
181.1409
 20
288.2404
 30
0.0
 10
211.4729
 20
349.8207
 30
0.0
 10
258.098
 20
381.6194
 30
0.0
 10
302.2441
 20
411.7194
 30
0.0
 10
352.9132
 20
419.1667
 30
0.0
 10
383.1325
 20
357.4008
 30
0.0
 10
389.4913
 20
309.2201
 30
0.0
 10
334.374
 20
340.4003
 30
0.0
 10
334.374
 20
340.4003
 30
0.0
 10
316.8798
 20
316.7928
 30
0.0
 10
321.119
 20
238.7031
 30
0.0
 10
396.91
 20
269.5504
 30
0.0
 10
468.9841
 20
303.5624
 30
0.0
 10
397.9772
 20
392.3511
 30
0.0
 10
397.9772
 20
392.3511
 30
0.0
 10
441.5261
 20
387.1516
 30
0.0
 10
464.9985
 20
351.7813
 30
0.0
 10
449.9001
 20
307.3378
 30
0.0
 10
379.4156
 20
103.152
 30
0.0
 10
571.6283
 20
123.9062
 30
0.0
 10
520.9219
 20
220.4258
 30
0.0
 10
599.5041
 20
89.2122
 30
0.0
 10
713.2987
 20
196.8238
 30
0.0
 10
634.3209
 20
262.9379
 30
0.0
 10
568.6056
 20
205.3131
 30
0.0
 10
512.4359
 20
327.1753
 30
0.0
 10
512.4359
 20
327.1753
 30
0.0
 10
475.3429
 20
388.5757
 30
0.0
 10
395.8501
 20
435.818
 30
0.0
 10
395.8501
 20
435.818
 30
0.0
 10
431.973
 20
423.575
 30
0.0
 10
477.9326
 20
403.4429
 30
0.0
 10
514.4884
 20
371.1715
 30
0.0
 10
547.0885
 20
350.461
 30
0.0
 10
601.049
 20
405.8926
 30
0.0
 10
553.634
 20
434.3722
 30
0.0
 10
547.4767
 20
438.0713
 30
0.0
 10
548.5141
 20
438.2841
 30
0.0
 10
542.7374
 20
434.6668
 30
0.0
 10
479.3433
 20
394.7735
 30
0.0
 10
473.4247
 20
444.7547
 30
0.0
 10
393.7305
 20
463.2064
 30
0.0
 10
328.9034
 20
478.2155
 30
0.0
 10
250.0451
 20
410.35
 30
0.0
 10
220.3481
 20
381.8158
 30
0.0
 10
260.4415
 20
467.0856
 30
0.0
 10
354.9655
 20
527.2364
 30
0.0
 10
464.73
 20
527.2364
 30
0.0
  0
SPLINE
  5
6C
330
1F
100
AcDbEntity
  8
Layer 1
 62
   250
370
    20
100
AcDbSpline
210
0.0
220
0.0
230
1.0
 70
    11
 71
     3
 72
   101
 73
    97
 74
     0
 42
0.0000000001
 43
0.0000000001
 40
0.0
 40
0.0
 40
0.0
 40
0.0
 40
0.03125
 40
0.03125
 40
0.03125
 40
0.0625
 40
0.0625
 40
0.0625
 40
0.09375
 40
0.09375
 40
0.09375
 40
0.125
 40
0.125
 40
0.125
 40
0.15625
 40
0.15625
 40
0.15625
 40
0.1875
 40
0.1875
 40
0.1875
 40
0.21875
 40
0.21875
 40
0.21875
 40
0.25
 40
0.25
 40
0.25
 40
0.28125
 40
0.28125
 40
0.28125
 40
0.3125
 40
0.3125
 40
0.3125
 40
0.34375
 40
0.34375
 40
0.34375
 40
0.375
 40
0.375
 40
0.375
 40
0.40625
 40
0.40625
 40
0.40625
 40
0.4375
 40
0.4375
 40
0.4375
 40
0.46875
 40
0.46875
 40
0.46875
 40
0.5
 40
0.5
 40
0.5
 40
0.53125
 40
0.53125
 40
0.53125
 40
0.5625
 40
0.5625
 40
0.5625
 40
0.59375
 40
0.59375
 40
0.59375
 40
0.625
 40
0.625
 40
0.625
 40
0.65625
 40
0.65625
 40
0.65625
 40
0.6875
 40
0.6875
 40
0.6875
 40
0.71875
 40
0.71875
 40
0.71875
 40
0.75
 40
0.75
 40
0.75
 40
0.78125
 40
0.78125
 40
0.78125
 40
0.8125
 40
0.8125
 40
0.8125
 40
0.84375
 40
0.84375
 40
0.84375
 40
0.875
 40
0.875
 40
0.875
 40
0.90625
 40
0.90625
 40
0.90625
 40
0.9375
 40
0.9375
 40
0.9375
 40
0.96875
 40
0.96875
 40
0.96875
 40
1.0
 40
1.0
 40
1.0
 40
1.0
 10
441.1754
 20
6.4577
 30
0.0
 10
441.1754
 20
6.4577
 30
0.0
 10
441.1754
 20
-6.4072
 30
0.0
 10
441.1754
 20
-6.4072
 30
0.0
 10
369.7356
 20
-11.2084
 30
0.0
 10
304.7443
 20
-37.1837
 30
0.0
 10
254.038
 20
-77.2735
 30
0.0
 10
254.038
 20
-77.2735
 30
0.0
 10
254.3141
 20
-76.8642
 30
0.0
 10
254.3141
 20
-76.8642
 30
0.0
 10
254.3141
 20
-76.8642
 30
0.0
 10
249.6121
 20
-64.103
 30
0.0
 10
249.6121
 20
-64.103
 30
0.0
 10
270.6366
 20
21.9196
 30
0.0
 10
126.8466
 20
4.5045
 30
0.0
 10
155.6255
 20
-67.7421
 30
0.0
 10
235.8048
 20
-59.1763
 30
0.0
 10
184.1058
 20
-155.8871
 30
0.0
 10
184.1058
 20
-155.8871
 30
0.0
 10
184.1058
 20
-155.8871
 30
0.0
 10
184.1879
 20
-155.8434
 30
0.0
 10
184.1879
 20
-155.8434
 30
0.0
 10
161.1857
 20
-193.8598
 30
0.0
 10
147.3933
 20
-232.831
 30
0.0
 10
143.3929
 20
-271.6441
 30
0.0
 10
143.3929
 20
-271.6441
 30
0.0
 10
129.5334
 20
-271.6441
 30
0.0
 10
129.5334
 20
-271.6441
 30
0.0
 10
126.0033
 20
-212.7207
 30
0.0
 10
98.926
 20
-154.965
 30
0.0
 10
45.7268
 20
-101.3066
 30
0.0
 10
45.7268
 20
-101.3066
 30
0.0
 10
46.1821
 20
-101.5466
 30
0.0
 10
46.1821
 20
-101.5466
 30
0.0
 10
46.1821
 20
-101.5466
 30
0.0
 10
60.4745
 20
-97.351
 30
0.0
 10
60.4745
 20
-97.351
 30
0.0
 10
156.8046
 20
-116.1192
 30
0.0
 10
137.3028
 20
12.2737
 30
0.0
 10
56.3995
 20
-13.4234
 30
0.0
 10
65.9899
 20
-85.0208
 30
0.0
 10
-42.319
 20
-38.8587
 30
0.0
 10
-42.319
 20
-38.8587
 30
0.0
 10
-42.319
 20
-38.8587
 30
0.0
 10
-42.2741
 20
-38.9296
 30
0.0
 10
-42.2741
 20
-38.9296
 30
0.0
 10
-80.2554
 20
-20.6088
 30
0.0
 10
-122.8341
 20
-8.966
 30
0.0
 10
-168.0027
 20
-5.7853
 30
0.0
 10
-168.0027
 20
-5.7853
 30
0.0
 10
-168.0027
 20
6.7414
 30
0.0
 10
-168.0027
 20
6.7414
 30
0.0
 10
-97.078
 20
11.7718
 30
0.0
 10
-32.5717
 20
37.6762
 30
0.0
 10
17.8212
 20
77.5149
 30
0.0
 10
17.8212
 20
77.5149
 30
0.0
 10
17.545
 20
77.1057
 30
0.0
 10
17.545
 20
77.1057
 30
0.0
 10
17.545
 20
77.1057
 30
0.0
 10
22.2469
 20
64.3444
 30
0.0
 10
22.2469
 20
64.3444
 30
0.0
 10
1.23
 20
-21.6727
 30
0.0
 10
145.0126
 20
-4.2575
 30
0.0
 10
116.2411
 20
67.9835
 30
0.0
 10
36.0542
 20
59.4233
 30
0.0
 10
87.7533
 20
156.1285
 30
0.0
 10
87.7533
 20
156.1285
 30
0.0
 10
87.7533
 20
156.1285
 30
0.0
 10
87.6786
 20
156.0903
 30
0.0
 10
87.6786
 20
156.0903
 30
0.0
 10
110.5838
 20
193.954
 30
0.0
 10
124.3613
 20
232.7725
 30
0.0
 10
128.4213
 20
271.4437
 30
0.0
 10
128.4213
 20
271.4437
 30
0.0
 10
142.072
 20
271.4437
 30
0.0
 10
142.072
 20
271.4437
 30
0.0
 10
145.8484
 20
212.8585
 30
0.0
 10
172.9033
 20
155.4465
 30
0.0
 10
225.8113
 20
102.0827
 30
0.0
 10
225.8113
 20
102.0827
 30
0.0
 10
225.3561
 20
102.3337
 30
0.0
 10
225.3561
 20
102.3337
 30
0.0
 10
225.3561
 20
102.3337
 30
0.0
 10
211.0636
 20
98.1327
 30
0.0
 10
211.0636
 20
98.1327
 30
0.0
 10
114.726
 20
116.9008
 30
0.0
 10
134.2354
 20
-11.4866
 30
0.0
 10
215.1387
 20
14.2051
 30
0.0
 10
205.5482
 20
85.8079
 30
0.0
 10
313.8571
 20
39.6403
 30
0.0
 10
313.8571
 20
39.6403
 30
0.0
 10
313.8571
 20
39.6403
 30
0.0
 10
313.8049
 20
39.7166
 30
0.0
 10
313.8049
 20
39.7166
 30
0.0
 10
352.2563
 20
21.1667
 30
0.0
 10
395.3949
 20
9.4693
 30
0.0
 10
441.1754
 20
6.4577
 30
0.0
  0
SPLINE
  5
6D
330
1F
100
AcDbEntity
  8
Layer 1
 62
   250
370
    20
100
AcDbSpline
210
0.0
220
0.0
230
1.0
 70
    11
 71
     3
 72
    53
 73
    49
 74
     0
 42
0.0000000001
 43
0.0000000001
 40
0.0
 40
0.0
 40
0.0
 40
0.0
 40
0.0625
 40
0.0625
 40
0.0625
 40
0.125
 40
0.125
 40
0.125
 40
0.1875
 40
0.1875
 40
0.1875
 40
0.25
 40
0.25
 40
0.25
 40
0.3125
 40
0.3125
 40
0.3125
 40
0.375
 40
0.375
 40
0.375
 40
0.4375
 40
0.4375
 40
0.4375
 40
0.5
 40
0.5
 40
0.5
 40
0.5625
 40
0.5625
 40
0.5625
 40
0.625
 40
0.625
 40
0.625
 40
0.6875
 40
0.6875
 40
0.6875
 40
0.75
 40
0.75
 40
0.75
 40
0.8125
 40
0.8125
 40
0.8125
 40
0.875
 40
0.875
 40
0.875
 40
0.9375
 40
0.9375
 40
0.9375
 40
1.0
 40
1.0
 40
1.0
 40
1.0
 10
-170.1969
 20
589.9734
 30
0.0
 10
-170.1969
 20
589.9734
 30
0.0
 10
448.1312
 20
589.9734
 30
0.0
 10
448.1312
 20
589.9734
 30
0.0
 10
448.1312
 20
589.9734
 30
0.0
 10
448.1312
 20
578.8598
 30
0.0
 10
448.1312
 20
578.8598
 30
0.0
 10
378.1394
 20
576.3011
 30
0.0
 10
309.5657
 20
550.5821
 30
0.0
 10
247.9926
 20
499.5806
 30
0.0
 10
247.9926
 20
499.5806
 30
0.0
 10
248.1418
 20
499.8153
 30
0.0
 10
248.1418
 20
499.8153
 30
0.0
 10
248.1418
 20
499.8153
 30
0.0
 10
243.2533
 20
512.5329
 30
0.0
 10
243.2533
 20
512.5329
 30
0.0
 10
262.9941
 20
598.7901
 30
0.0
 10
119.4802
 20
579.6673
 30
0.0
 10
149.3115
 20
507.7754
 30
0.0
 10
226.901
 20
516.9903
 30
0.0
 10
183.3446
 20
425.9047
 30
0.0
 10
180.5756
 20
420.2633
 30
0.0
 10
160.2155
 20
384.8547
 30
0.0
 10
147.5874
 20
348.9934
 30
0.0
 10
143.2736
 20
313.3119
 30
0.0
 10
143.2736
 20
313.3119
 30
0.0
 10
128.9885
 20
313.3119
 30
0.0
 10
128.9885
 20
313.3119
 30
0.0
 10
124.2494
 20
372.9664
 30
0.0
 10
95.5675
 20
431.3059
 30
0.0
 10
40.7264
 20
484.206
 30
0.0
 10
40.7264
 20
484.206
 30
0.0
 10
40.8234
 20
484.1569
 30
0.0
 10
40.8234
 20
484.1569
 30
0.0
 10
40.8234
 20
484.1569
 30
0.0
 10
55.0561
 20
488.5271
 30
0.0
 10
55.0561
 20
488.5271
 30
0.0
 10
151.655
 20
470.8882
 30
0.0
 10
130.2498
 20
599.0466
 30
0.0
 10
49.7273
 20
572.4001
 30
0.0
 10
59.6684
 20
505.6694
 30
0.0
 10
-34.5869
 20
539.3048
 30
0.0
 10
-47.1926
 20
544.0733
 30
0.0
 10
-87.7189
 20
562.8414
 30
0.0
 10
-129.0363
 20
574.2388
 30
0.0
 10
-170.1969
 20
577.8342
 30
0.0
 10
-170.1969
 20
577.8342
 30
0.0
 10
-170.1969
 20
589.9734
 30
0.0
 10
-170.1969
 20
589.9734
 30
0.0
  0
SPLINE
  5
6E
330
1F
100
AcDbEntity
  8
Layer 1
 62
   250
370
    20
100
AcDbSpline
210
0.0
220
0.0
230
1.0
 70
    11
 71
     3
 72
    53
 73
    49
 74
     0
 42
0.0000000001
 43
0.0000000001
 40
0.0
 40
0.0
 40
0.0
 40
0.0
 40
0.0625
 40
0.0625
 40
0.0625
 40
0.125
 40
0.125
 40
0.125
 40
0.1875
 40
0.1875
 40
0.1875
 40
0.25
 40
0.25
 40
0.25
 40
0.3125
 40
0.3125
 40
0.3125
 40
0.375
 40
0.375
 40
0.375
 40
0.4375
 40
0.4375
 40
0.4375
 40
0.5
 40
0.5
 40
0.5
 40
0.5625
 40
0.5625
 40
0.5625
 40
0.625
 40
0.625
 40
0.625
 40
0.6875
 40
0.6875
 40
0.6875
 40
0.75
 40
0.75
 40
0.75
 40
0.8125
 40
0.8125
 40
0.8125
 40
0.875
 40
0.875
 40
0.875
 40
0.9375
 40
0.9375
 40
0.9375
 40
1.0
 40
1.0
 40
1.0
 40
1.0
 10
142.9079
 20
-313.5179
 30
0.0
 10
147.7515
 20
-373.0195
 30
0.0
 10
176.426
 20
-431.1954
 30
0.0
 10
231.1402
 20
-483.9592
 30
0.0
 10
231.1402
 20
-483.9592
 30
0.0
 10
231.0358
 20
-483.91
 30
0.0
 10
231.0358
 20
-483.91
 30
0.0
 10
231.0358
 20
-483.91
 30
0.0
 10
216.8031
 20
-488.2801
 30
0.0
 10
216.8031
 20
-488.2801
 30
0.0
 10
120.2041
 20
-470.6468
 30
0.0
 10
141.6166
 20
-598.7942
 30
0.0
 10
222.1319
 20
-572.1587
 30
0.0
 10
212.1981
 20
-505.428
 30
0.0
 10
306.446
 20
-539.0579
 30
0.0
 10
319.0516
 20
-543.8263
 30
0.0
 10
362.1752
 20
-563.8003
 30
0.0
 10
405.3584
 20
-575.7541
 30
0.0
 10
448.1312
 20
-578.984
 30
0.0
 10
448.1312
 20
-578.984
 30
0.0
 10
448.1312
 20
-590.0266
 30
0.0
 10
448.1312
 20
-590.0266
 30
0.0
 10
448.1312
 20
-590.0266
 30
0.0
 10
-170.1969
 20
-590.0266
 30
0.0
 10
-170.1969
 20
-590.0266
 30
0.0
 10
-170.1969
 20
-590.0266
 30
0.0
 10
-170.1969
 20
-579.4749
 30
0.0
 10
-170.1969
 20
-579.4749
 30
0.0
 10
-103.5412
 20
-575.9286
 30
0.0
 10
-38.326
 20
-550.0405
 30
0.0
 10
23.5531
 20
-498.7991
 30
0.0
 10
23.5531
 20
-498.7991
 30
0.0
 10
23.3963
 20
-499.0336
 30
0.0
 10
23.3963
 20
-499.0336
 30
0.0
 10
23.3963
 20
-499.0336
 30
0.0
 10
28.2849
 20
-511.7513
 30
0.0
 10
28.2849
 20
-511.7513
 30
0.0
 10
8.5441
 20
-598.0031
 30
0.0
 10
152.058
 20
-578.8858
 30
0.0
 10
122.2267
 20
-506.9938
 30
0.0
 10
44.6372
 20
-516.2087
 30
0.0
 10
88.1936
 20
-425.1175
 30
0.0
 10
90.9625
 20
-419.4816
 30
0.0
 10
111.1361
 20
-384.395
 30
0.0
 10
123.7045
 20
-348.8718
 30
0.0
 10
128.1302
 20
-313.5179
 30
0.0
 10
128.1302
 20
-313.5179
 30
0.0
 10
142.9079
 20
-313.5179
 30
0.0
 10
142.9079
 20
-313.5179
 30
0.0
  0
SPLINE
  5
6F
330
1F
100
AcDbEntity
  8
Layer 1
 62
   250
370
    20
100
AcDbSpline
210
0.0
220
0.0
230
1.0
 70
    11
 71
     3
 72
    11
 73
     7
 74
     0
 42
0.0000000001
 43
0.0000000001
 40
0.0
 40
0.0
 40
0.0
 40
0.0
 40
0.5
 40
0.5
 40
0.5
 40
1.0
 40
1.0
 40
1.0
 40
1.0
 10
51.5093
 20
-199.8924
 30
0.0
 10
50.3772
 20
-197.3434
 30
0.0
 10
49.1865
 20
-194.7724
 30
0.0
 10
47.936
 20
-192.1794
 30
0.0
 10
49.2689
 20
-194.3369
 30
0.0
 10
50.4629
 20
-196.9374
 30
0.0
 10
51.5093
 20
-199.8924
 30
0.0
  0
SPLINE
  5
70
330
1F
100
AcDbEntity
  8
Layer 1
 62
   250
370
    20
100
AcDbSpline
210
0.0
220
0.0
230
1.0
 70
    11
 71
     3
 72
    89
 73
    85
 74
     0
 42
0.0000000001
 43
0.0000000001
 40
0.0
 40
0.0
 40
0.0
 40
0.0
 40
0.0357142857142857
 40
0.0357142857142857
 40
0.0357142857142857
 40
0.0714285714285714
 40
0.0714285714285714
 40
0.0714285714285714
 40
0.1071428571428571
 40
0.1071428571428571
 40
0.1071428571428571
 40
0.1428571428571428
 40
0.1428571428571428
 40
0.1428571428571428
 40
0.1785714285714285
 40
0.1785714285714285
 40
0.1785714285714285
 40
0.2142857142857143
 40
0.2142857142857143
 40
0.2142857142857143
 40
0.25
 40
0.25
 40
0.25
 40
0.2857142857142857
 40
0.2857142857142857
 40
0.2857142857142857
 40
0.3214285714285714
 40
0.3214285714285714
 40
0.3214285714285714
 40
0.3571428571428571
 40
0.3571428571428571
 40
0.3571428571428571
 40
0.3928571428571428
 40
0.3928571428571428
 40
0.3928571428571428
 40
0.4285714285714285
 40
0.4285714285714285
 40
0.4285714285714285
 40
0.4642857142857142
 40
0.4642857142857142
 40
0.4642857142857142
 40
0.5
 40
0.5
 40
0.5
 40
0.5357142857142857
 40
0.5357142857142857
 40
0.5357142857142857
 40
0.5714285714285714
 40
0.5714285714285714
 40
0.5714285714285714
 40
0.6071428571428571
 40
0.6071428571428571
 40
0.6071428571428571
 40
0.6428571428571428
 40
0.6428571428571428
 40
0.6428571428571428
 40
0.6785714285714285
 40
0.6785714285714285
 40
0.6785714285714285
 40
0.7142857142857142
 40
0.7142857142857142
 40
0.7142857142857142
 40
0.75
 40
0.75
 40
0.75
 40
0.7857142857142857
 40
0.7857142857142857
 40
0.7857142857142857
 40
0.8214285714285714
 40
0.8214285714285714
 40
0.8214285714285714
 40
0.8571428571428571
 40
0.8571428571428571
 40
0.8571428571428571
 40
0.8928571428571428
 40
0.8928571428571428
 40
0.8928571428571428
 40
0.9285714285714285
 40
0.9285714285714285
 40
0.9285714285714285
 40
0.9642857142857142
 40
0.9642857142857142
 40
0.9642857142857142
 40
1.0
 40
1.0
 40
1.0
 40
1.0
 10
-152.7699
 20
-56.1702
 30
0.0
 10
-36.1318
 20
-74.9657
 30
0.0
 10
19.9109
 20
-136.2677
 30
0.0
 10
21.9485
 20
-243.2627
 30
0.0
 10
21.9485
 20
-243.2627
 30
0.0
 10
21.9485
 20
-274.4375
 30
0.0
 10
-21.5036
 20
-283.887
 30
0.0
 10
50.9847
 20
-358.8517
 30
0.0
 10
66.5982
 20
-242.5054
 30
0.0
 10
51.5093
 20
-199.8924
 30
0.0
 10
90.3972
 20
-287.4592
 30
0.0
 10
60.0649
 20
-349.0392
 30
0.0
 10
13.4326
 20
-380.8378
 30
0.0
 10
-30.7059
 20
-410.9378
 30
0.0
 10
-81.375
 20
-418.3851
 30
0.0
 10
-111.5943
 20
-356.6192
 30
0.0
 10
-117.9531
 20
-308.4384
 30
0.0
 10
-62.8359
 20
-339.6133
 30
0.0
 10
-62.8359
 20
-339.6133
 30
0.0
 10
-45.3417
 20
-316.0112
 30
0.0
 10
-49.5809
 20
-237.9214
 30
0.0
 10
-125.3792
 20
-268.7689
 30
0.0
 10
-197.4459
 20
-302.7807
 30
0.0
 10
-126.4391
 20
-391.5694
 30
0.0
 10
-126.4391
 20
-391.5694
 30
0.0
 10
-169.9955
 20
-386.3701
 30
0.0
 10
-193.4604
 20
-350.9943
 30
0.0
 10
-178.3694
 20
-306.5561
 30
0.0
 10
-107.8775
 20
-102.3704
 30
0.0
 10
-300.0901
 20
-123.119
 30
0.0
 10
-249.3762
 20
-219.6442
 30
0.0
 10
-327.9658
 20
-88.4307
 30
0.0
 10
-441.7605
 20
-196.0422
 30
0.0
 10
-362.7827
 20
-262.1564
 30
0.0
 10
-297.0674
 20
-204.5315
 30
0.0
 10
-240.8978
 20
-326.3938
 30
0.0
 10
-240.8978
 20
-326.3938
 30
0.0
 10
-203.8047
 20
-387.7995
 30
0.0
 10
-124.3119
 20
-435.0363
 30
0.0
 10
-124.3119
 20
-435.0363
 30
0.0
 10
-160.4348
 20
-422.7934
 30
0.0
 10
-206.3944
 20
-402.6612
 30
0.0
 10
-242.9503
 20
-370.3953
 30
0.0
 10
-275.5504
 20
-349.6739
 30
0.0
 10
-329.5183
 20
-405.1109
 30
0.0
 10
-282.0959
 20
-433.5905
 30
0.0
 10
-275.946
 20
-437.2841
 30
0.0
 10
-276.9833
 20
-437.5024
 30
0.0
 10
-271.2067
 20
-433.8851
 30
0.0
 10
-207.805
 20
-393.9918
 30
0.0
 10
-201.8865
 20
-443.9731
 30
0.0
 10
-122.1923
 20
-462.4194
 30
0.0
 10
-57.3653
 20
-477.4285
 30
0.0
 10
21.4932
 20
-409.5683
 30
0.0
 10
51.19
 20
-381.0288
 30
0.0
 10
11.0967
 20
-466.3039
 30
0.0
 10
-83.4349
 20
-526.4549
 30
0.0
 10
-193.1917
 20
-526.4549
 30
0.0
 10
-281.9092
 20
-531.0705
 30
0.0
 10
-387.285
 20
-471.9398
 30
0.0
 10
-387.4418
 20
-403.927
 30
0.0
 10
-387.494
 20
-379.3265
 30
0.0
 10
-378.8663
 20
-351.7198
 30
0.0
 10
-342.721
 20
-327.3921
 30
0.0
 10
-356.7821
 20
-311.4883
 30
0.0
 10
-457.0156
 20
-282.163
 30
0.0
 10
-431.9087
 20
-392.3006
 30
0.0
 10
-448.6865
 20
-361.2949
 30
0.0
 10
-458.0904
 20
-326.5629
 30
0.0
 10
-458.0904
 20
-289.9157
 30
0.0
 10
-458.0904
 20
-193.8325
 30
0.0
 10
-393.3528
 20
-110.827
 30
0.0
 10
-300.8439
 20
-73.869
 30
0.0
 10
-227.6055
 20
-44.631
 30
0.0
 10
-108.7135
 20
-90.3893
 30
0.0
 10
-86.159
 20
-160.1317
 30
0.0
 10
-86.159
 20
-160.1317
 30
0.0
 10
-131.2156
 20
-138.4064
 30
0.0
 10
-128.5511
 20
-177.1376
 30
0.0
 10
-125.9017
 20
-215.8688
 30
0.0
 10
-29.8103
 20
-231.2925
 30
0.0
 10
-51.1855
 20
-138.4009
 30
0.0
 10
-58.1563
 20
-120.6694
 30
0.0
 10
-78.718
 20
-79.4395
 30
0.0
 10
-152.7699
 20
-56.1702
 30
0.0
  0
SPLINE
  5
71
330
1F
100
AcDbEntity
  8
Layer 1
 62
   250
370
    20
100
AcDbSpline
210
0.0
220
0.0
230
1.0
 70
    11
 71
     3
 72
    11
 73
     7
 74
     0
 42
0.0000000001
 43
0.0000000001
 40
0.0
 40
0.0
 40
0.0
 40
0.0
 40
0.5
 40
0.5
 40
0.5
 40
1.0
 40
1.0
 40
1.0
 40
1.0
 10
-92.5805
 20
72.3569
 30
0.0
 10
-89.7283
 20
73.3671
 30
0.0
 10
-86.8513
 20
74.4294
 30
0.0
 10
-83.9499
 20
75.5453
 30
0.0
 10
-86.3645
 20
74.356
 30
0.0
 10
-89.2743
 20
73.2907
 30
0.0
 10
-92.5805
 20
72.3569
 30
0.0
  0
SPLINE
  5
72
330
1F
100
AcDbEntity
  8
Layer 1
 62
   250
370
    20
100
AcDbSpline
210
0.0
220
0.0
230
1.0
 70
    11
 71
     3
 72
    89
 73
    85
 74
     0
 42
0.0000000001
 43
0.0000000001
 40
0.0
 40
0.0
 40
0.0
 40
0.0
 40
0.0357142857142857
 40
0.0357142857142857
 40
0.0357142857142857
 40
0.0714285714285714
 40
0.0714285714285714
 40
0.0714285714285714
 40
0.1071428571428571
 40
0.1071428571428571
 40
0.1071428571428571
 40
0.1428571428571428
 40
0.1428571428571428
 40
0.1428571428571428
 40
0.1785714285714285
 40
0.1785714285714285
 40
0.1785714285714285
 40
0.2142857142857143
 40
0.2142857142857143
 40
0.2142857142857143
 40
0.25
 40
0.25
 40
0.25
 40
0.2857142857142857
 40
0.2857142857142857
 40
0.2857142857142857
 40
0.3214285714285714
 40
0.3214285714285714
 40
0.3214285714285714
 40
0.3571428571428571
 40
0.3571428571428571
 40
0.3571428571428571
 40
0.3928571428571428
 40
0.3928571428571428
 40
0.3928571428571428
 40
0.4285714285714285
 40
0.4285714285714285
 40
0.4285714285714285
 40
0.4642857142857142
 40
0.4642857142857142
 40
0.4642857142857142
 40
0.5
 40
0.5
 40
0.5
 40
0.5357142857142857
 40
0.5357142857142857
 40
0.5357142857142857
 40
0.5714285714285714
 40
0.5714285714285714
 40
0.5714285714285714
 40
0.6071428571428571
 40
0.6071428571428571
 40
0.6071428571428571
 40
0.6428571428571428
 40
0.6428571428571428
 40
0.6428571428571428
 40
0.6785714285714285
 40
0.6785714285714285
 40
0.6785714285714285
 40
0.7142857142857142
 40
0.7142857142857142
 40
0.7142857142857142
 40
0.75
 40
0.75
 40
0.75
 40
0.7857142857142857
 40
0.7857142857142857
 40
0.7857142857142857
 40
0.8214285714285714
 40
0.8214285714285714
 40
0.8214285714285714
 40
0.8571428571428571
 40
0.8571428571428571
 40
0.8571428571428571
 40
0.8928571428571428
 40
0.8928571428571428
 40
0.8928571428571428
 40
0.9285714285714285
 40
0.9285714285714285
 40
0.9285714285714285
 40
0.9642857142857142
 40
0.9642857142857142
 40
0.9642857142857142
 40
1.0
 40
1.0
 40
1.0
 40
1.0
 10
-193.4081
 20
527.3838
 30
0.0
 10
-85.8008
 20
527.3838
 30
0.0
 10
7.1559
 20
469.5789
 30
0.0
 10
48.548
 20
386.9771
 30
0.0
 10
81.2899
 20
321.583
 30
0.0
 10
30.0462
 20
215.4228
 30
0.0
 10
-48.0584
 20
195.2798
 30
0.0
 10
-48.0584
 20
195.2798
 30
0.0
 10
-23.7276
 20
235.5113
 30
0.0
 10
-67.105
 20
233.138
 30
0.0
 10
-110.4823
 20
230.7702
 30
0.0
 10
-127.7526
 20
144.9658
 30
0.0
 10
-23.7276
 20
164.0449
 30
0.0
 10
-3.8675
 20
170.2755
 30
0.0
 10
42.3086
 20
188.6345
 30
0.0
 10
68.3709
 20
254.7597
 30
0.0
 10
47.324
 20
150.6071
 30
0.0
 10
-21.3393
 20
100.566
 30
0.0
 10
-141.1568
 20
98.7436
 30
0.0
 10
-141.1568
 20
98.7436
 30
0.0
 10
-176.0707
 20
98.7491
 30
0.0
 10
-186.6538
 20
137.5458
 30
0.0
 10
-270.6069
 20
72.8225
 30
0.0
 10
-140.3
 20
58.88
 30
0.0
 10
-92.5805
 20
72.3569
 30
0.0
 10
-190.6557
 20
37.6244
 30
0.0
 10
-259.6146
 20
64.7096
 30
0.0
 10
-295.2314
 20
106.3437
 30
0.0
 10
-328.9436
 20
145.7623
 30
0.0
 10
-337.2876
 20
191.0078
 30
0.0
 10
-268.1094
 20
217.9871
 30
0.0
 10
-214.1489
 20
223.6666
 30
0.0
 10
-249.0702
 20
174.4547
 30
0.0
 10
-249.0702
 20
174.4547
 30
0.0
 10
-222.6348
 20
158.8292
 30
0.0
 10
-135.1786
 20
162.6155
 30
0.0
 10
-169.7193
 20
230.2955
 30
0.0
 10
-207.8125
 20
294.6474
 30
0.0
 10
-307.2475
 20
231.2448
 30
0.0
 10
-307.2475
 20
231.2448
 30
0.0
 10
-301.4261
 20
270.1397
 30
0.0
 10
-261.8102
 20
291.0902
 30
0.0
 10
-212.0443
 20
277.6143
 30
0.0
 10
16.627
 20
214.6754
 30
0.0
 10
-6.614
 20
386.306
 30
0.0
 10
-114.7066
 20
341.0224
 30
0.0
 10
32.2405
 20
411.1956
 30
0.0
 10
-88.2861
 20
512.8056
 30
0.0
 10
-162.3156
 20
442.2831
 30
0.0
 10
-97.7871
 20
383.6054
 30
0.0
 10
-234.2554
 20
333.4495
 30
0.0
 10
-234.2554
 20
333.4495
 30
0.0
 10
-303.0232
 20
300.327
 30
0.0
 10
-355.9238
 20
229.3462
 30
0.0
 10
-355.9238
 20
229.3462
 30
0.0
 10
-342.221
 20
261.6067
 30
0.0
 10
-319.674
 20
302.6403
 30
0.0
 10
-283.5362
 20
335.2828
 30
0.0
 10
-260.3399
 20
364.3897
 30
0.0
 10
-322.4131
 20
412.5815
 30
0.0
 10
-354.3117
 20
370.233
 30
0.0
 10
-358.4538
 20
364.7444
 30
0.0
 10
-358.6927
 20
365.6719
 30
0.0
 10
-354.6401
 20
360.5106
 30
0.0
 10
-309.9642
 20
303.9006
 30
0.0
 10
-365.9398
 20
298.6194
 30
0.0
 10
-386.5984
 20
227.453
 30
0.0
 10
-403.406
 20
169.5662
 30
0.0
 10
-327.4136
 20
99.1529
 30
0.0
 10
-295.4553
 20
72.6374
 30
0.0
 10
-390.9495
 20
108.4442
 30
0.0
 10
-458.3143
 20
192.841
 30
0.0
 10
-458.3143
 20
290.8501
 30
0.0
 10
-463.479
 20
370.0693
 30
0.0
 10
-397.2636
 20
464.1612
 30
0.0
 10
-321.0847
 20
464.2976
 30
0.0
 10
-293.5446
 20
464.3467
 30
0.0
 10
-262.6238
 20
456.643
 30
0.0
 10
-235.3749
 20
424.3716
 30
0.0
 10
-217.5747
 20
436.9256
 30
0.0
 10
-184.7282
 20
526.4235
 30
0.0
 10
-308.0685
 20
504.0108
 30
0.0
 10
-273.3486
 20
518.9927
 30
0.0
 10
-234.4495
 20
527.3838
 30
0.0
 10
-193.4081
 20
527.3838
 30
0.0
  0
SPLINE
  5
73
330
1F
100
AcDbEntity
  8
Layer 1
 62
   250
370
    20
100
AcDbSpline
210
0.0
220
0.0
230
1.0
 70
    11
 71
     3
 72
   173
 73
   169
 74
     0
 42
0.0000000001
 43
0.0000000001
 40
0.0
 40
0.0
 40
0.0
 40
0.0
 40
0.0178571428571429
 40
0.0178571428571429
 40
0.0178571428571429
 40
0.0357142857142857
 40
0.0357142857142857
 40
0.0357142857142857
 40
0.0535714285714286
 40
0.0535714285714286
 40
0.0535714285714286
 40
0.0714285714285714
 40
0.0714285714285714
 40
0.0714285714285714
 40
0.0892857142857143
 40
0.0892857142857143
 40
0.0892857142857143
 40
0.1071428571428571
 40
0.1071428571428571
 40
0.1071428571428571
 40
0.125
 40
0.125
 40
0.125
 40
0.1428571428571428
 40
0.1428571428571428
 40
0.1428571428571428
 40
0.1607142857142857
 40
0.1607142857142857
 40
0.1607142857142857
 40
0.1785714285714285
 40
0.1785714285714285
 40
0.1785714285714285
 40
0.1964285714285714
 40
0.1964285714285714
 40
0.1964285714285714
 40
0.2142857142857143
 40
0.2142857142857143
 40
0.2142857142857143
 40
0.2321428571428571
 40
0.2321428571428571
 40
0.2321428571428571
 40
0.25
 40
0.25
 40
0.25
 40
0.2678571428571428
 40
0.2678571428571428
 40
0.2678571428571428
 40
0.2857142857142857
 40
0.2857142857142857
 40
0.2857142857142857
 40
0.3035714285714285
 40
0.3035714285714285
 40
0.3035714285714285
 40
0.3214285714285714
 40
0.3214285714285714
 40
0.3214285714285714
 40
0.3392857142857142
 40
0.3392857142857142
 40
0.3392857142857142
 40
0.3571428571428571
 40
0.3571428571428571
 40
0.3571428571428571
 40
0.375
 40
0.375
 40
0.375
 40
0.3928571428571428
 40
0.3928571428571428
 40
0.3928571428571428
 40
0.4107142857142857
 40
0.4107142857142857
 40
0.4107142857142857
 40
0.4285714285714285
 40
0.4285714285714285
 40
0.4285714285714285
 40
0.4464285714285714
 40
0.4464285714285714
 40
0.4464285714285714
 40
0.4642857142857142
 40
0.4642857142857142
 40
0.4642857142857142
 40
0.4821428571428571
 40
0.4821428571428571
 40
0.4821428571428571
 40
0.5
 40
0.5
 40
0.5
 40
0.5178571428571428
 40
0.5178571428571428
 40
0.5178571428571428
 40
0.5357142857142857
 40
0.5357142857142857
 40
0.5357142857142857
 40
0.5535714285714285
 40
0.5535714285714285
 40
0.5535714285714285
 40
0.5714285714285714
 40
0.5714285714285714
 40
0.5714285714285714
 40
0.5892857142857143
 40
0.5892857142857143
 40
0.5892857142857143
 40
0.6071428571428571
 40
0.6071428571428571
 40
0.6071428571428571
 40
0.625
 40
0.625
 40
0.625
 40
0.6428571428571428
 40
0.6428571428571428
 40
0.6428571428571428
 40
0.6607142857142857
 40
0.6607142857142857
 40
0.6607142857142857
 40
0.6785714285714285
 40
0.6785714285714285
 40
0.6785714285714285
 40
0.6964285714285714
 40
0.6964285714285714
 40
0.6964285714285714
 40
0.7142857142857142
 40
0.7142857142857142
 40
0.7142857142857142
 40
0.7321428571428571
 40
0.7321428571428571
 40
0.7321428571428571
 40
0.75
 40
0.75
 40
0.75
 40
0.7678571428571428
 40
0.7678571428571428
 40
0.7678571428571428
 40
0.7857142857142857
 40
0.7857142857142857
 40
0.7857142857142857
 40
0.8035714285714285
 40
0.8035714285714285
 40
0.8035714285714285
 40
0.8214285714285714
 40
0.8214285714285714
 40
0.8214285714285714
 40
0.8392857142857142
 40
0.8392857142857142
 40
0.8392857142857142
 40
0.8571428571428571
 40
0.8571428571428571
 40
0.8571428571428571
 40
0.875
 40
0.875
 40
0.875
 40
0.8928571428571428
 40
0.8928571428571428
 40
0.8928571428571428
 40
0.9107142857142857
 40
0.9107142857142857
 40
0.9107142857142857
 40
0.9285714285714285
 40
0.9285714285714285
 40
0.9285714285714285
 40
0.9464285714285714
 40
0.9464285714285714
 40
0.9464285714285714
 40
0.9642857142857142
 40
0.9642857142857142
 40
0.9642857142857142
 40
0.9821428571428571
 40
0.9821428571428571
 40
0.9821428571428571
 40
1.0
 40
1.0
 40
1.0
 40
1.0
 10
-512.3867
 20
-289.9157
 30
0.0
 10
-512.3867
 20
-362.0369
 30
0.0
 10
-482.1077
 20
-428.0311
 30
0.0
 10
-432.3417
 20
-478.3178
 30
0.0
 10
-432.3417
 20
-478.3178
 30
0.0
 10
-432.461
 20
-478.2577
 30
0.0
 10
-432.461
 20
-478.2577
 30
0.0
 10
-432.461
 20
-478.2577
 30
0.0
 10
-446.7609
 20
-482.4533
 30
0.0
 10
-446.7609
 20
-482.4533
 30
0.0
 10
-543.0911
 20
-463.6797
 30
0.0
 10
-523.5892
 20
-592.0725
 30
0.0
 10
-442.6859
 20
-566.3863
 30
0.0
 10
-451.7316
 20
-498.7991
 30
0.0
 10
-355.7671
 20
-536.1172
 30
0.0
 10
-344.9675
 20
-540.5201
 30
0.0
 10
-301.7545
 20
-561.4869
 30
0.0
 10
-258.4666
 20
-574.4118
 30
0.0
 10
-215.5819
 20
-578.4929
 30
0.0
 10
-215.5819
 20
-578.4929
 30
0.0
 10
-215.5819
 20
-590.0266
 30
0.0
 10
-215.5819
 20
-590.0266
 30
0.0
 10
-215.5819
 20
-590.0266
 30
0.0
 10
-858.8528
 20
-590.0266
 30
0.0
 10
-858.8528
 20
-590.0266
 30
0.0
 10
-858.8528
 20
-590.0266
 30
0.0
 10
-858.8528
 20
-579.6223
 30
0.0
 10
-858.8528
 20
-579.6223
 30
0.0
 10
-792.951
 20
-576.8779
 30
0.0
 10
-728.3776
 20
-552.6212
 30
0.0
 10
-666.9388
 20
-504.1513
 30
0.0
 10
-666.9388
 20
-504.1513
 30
0.0
 10
-667.0134
 20
-504.2604
 30
0.0
 10
-667.0134
 20
-504.2604
 30
0.0
 10
-667.0134
 20
-504.2604
 30
0.0
 10
-662.3116
 20
-517.0217
 30
0.0
 10
-662.3116
 20
-517.0217
 30
0.0
 10
-683.3285
 20
-603.0388
 30
0.0
 10
-539.546
 20
-585.6237
 30
0.0
 10
-568.3099
 20
-513.3826
 30
0.0
 10
-644.0038
 20
-521.4627
 30
0.0
 10
-602.2162
 20
-435.7784
 30
0.0
 10
-597.283
 20
-426.1324
 30
0.0
 10
-572.7208
 20
-385.7863
 30
0.0
 10
-558.7419
 20
-339.6024
 30
0.0
 10
-558.7419
 20
-290.6032
 30
0.0
 10
-558.7419
 20
-216.0106
 30
0.0
 10
-591.148
 20
-147.9596
 30
0.0
 10
-644.0038
 20
-97.0728
 30
0.0
 10
-644.0038
 20
-97.0728
 30
0.0
 10
-643.7427
 20
-97.2092
 30
0.0
 10
-643.7427
 20
-97.2092
 30
0.0
 10
-643.7427
 20
-97.2092
 30
0.0
 10
-629.4949
 20
-92.8445
 30
0.0
 10
-629.4949
 20
-92.8445
 30
0.0
 10
-532.9036
 20
-110.4723
 30
0.0
 10
-554.3161
 20
17.675
 30
0.0
 10
-634.8313
 20
-8.9605
 30
0.0
 10
-624.5094
 20
-78.2446
 30
0.0
 10
-726.5192
 20
-39.3497
 30
0.0
 10
-732.8408
 20
-36.8782
 30
0.0
 10
-770.0085
 20
-19.8341
 30
0.0
 10
-811.3558
 20
-9.1079
 30
0.0
 10
-855.1062
 20
-6.3199
 30
0.0
 10
-855.1062
 20
-6.3199
 30
0.0
 10
-855.1062
 20
6.4469
 30
0.0
 10
-855.1062
 20
6.4469
 30
0.0
 10
-780.8677
 20
11.2862
 30
0.0
 10
-713.5404
 20
38.9747
 30
0.0
 10
-661.9384
 20
81.6342
 30
0.0
 10
-661.9384
 20
81.6342
 30
0.0
 10
-661.9981
 20
81.5468
 30
0.0
 10
-661.9981
 20
81.5468
 30
0.0
 10
-661.9981
 20
81.5468
 30
0.0
 10
-657.1021
 20
68.8401
 30
0.0
 10
-657.1021
 20
68.8401
 30
0.0
 10
-676.8502
 20
-17.4171
 30
0.0
 10
-533.3289
 20
1.6947
 30
0.0
 10
-563.1602
 20
73.5921
 30
0.0
 10
-637.8987
 20
64.7209
 30
0.0
 10
-600.2309
 20
148.8831
 30
0.0
 10
-594.8871
 20
160.1385
 30
0.0
 10
-572.1461
 20
199.2953
 30
0.0
 10
-559.2868
 20
243.6896
 30
0.0
 10
-559.2868
 20
290.6974
 30
0.0
 10
-559.2868
 20
362.8184
 30
0.0
 10
-589.5583
 20
428.8126
 30
0.0
 10
-639.3243
 20
479.0994
 30
0.0
 10
-639.3243
 20
479.0994
 30
0.0
 10
-639.2048
 20
479.0394
 30
0.0
 10
-639.2048
 20
479.0394
 30
0.0
 10
-639.2048
 20
479.0394
 30
0.0
 10
-624.905
 20
483.235
 30
0.0
 10
-624.905
 20
483.235
 30
0.0
 10
-528.5823
 20
464.4612
 30
0.0
 10
-548.0841
 20
592.8541
 30
0.0
 10
-628.9875
 20
567.1733
 30
0.0
 10
-619.9344
 20
499.5806
 30
0.0
 10
-715.8988
 20
536.8988
 30
0.0
 10
-726.6983
 20
541.3016
 30
0.0
 10
-769.9936
 20
562.3122
 30
0.0
 10
-814.5127
 20
574.7571
 30
0.0
 10
-858.8528
 20
578.1342
 30
0.0
 10
-858.8528
 20
578.1342
 30
0.0
 10
-858.8528
 20
589.9734
 30
0.0
 10
-858.8528
 20
589.9734
 30
0.0
 10
-858.8528
 20
589.9734
 30
0.0
 10
-215.5819
 20
589.9734
 30
0.0
 10
-215.5819
 20
589.9734
 30
0.0
 10
-215.5819
 20
589.9734
 30
0.0
 10
-215.5819
 20
578.598
 30
0.0
 10
-215.5819
 20
578.598
 30
0.0
 10
-281.1703
 20
575.0244
 30
0.0
 10
-345.4302
 20
550.9259
 30
0.0
 10
-404.4061
 20
504.3982
 30
0.0
 10
-404.4061
 20
504.3982
 30
0.0
 10
-404.3315
 20
504.5019
 30
0.0
 10
-404.3315
 20
504.5019
 30
0.0
 10
-404.3315
 20
504.5019
 30
0.0
 10
-409.0334
 20
517.2686
 30
0.0
 10
-409.0334
 20
517.2686
 30
0.0
 10
-388.0165
 20
603.2857
 30
0.0
 10
-531.7989
 20
585.8706
 30
0.0
 10
-503.035
 20
513.6241
 30
0.0
 10
-427.3411
 20
521.7097
 30
0.0
 10
-469.1288
 20
436.0253
 30
0.0
 10
-474.0621
 20
426.3793
 30
0.0
 10
-498.6166
 20
386.0332
 30
0.0
 10
-512.6031
 20
339.8439
 30
0.0
 10
-512.6031
 20
290.8501
 30
0.0
 10
-512.6031
 20
216.2575
 30
0.0
 10
-480.197
 20
148.2066
 30
0.0
 10
-427.3411
 20
97.3197
 30
0.0
 10
-427.3411
 20
97.3197
 30
0.0
 10
-427.6024
 20
97.4561
 30
0.0
 10
-427.6024
 20
97.4561
 30
0.0
 10
-427.6024
 20
97.4561
 30
0.0
 10
-441.85
 20
93.086
 30
0.0
 10
-441.85
 20
93.086
 30
0.0
 10
-538.4414
 20
110.7193
 30
0.0
 10
-517.0289
 20
-17.4335
 30
0.0
 10
-436.5136
 20
9.2075
 30
0.0
 10
-446.8356
 20
78.4915
 30
0.0
 10
-344.8257
 20
39.5967
 30
0.0
 10
-338.5043
 20
37.1197
 30
0.0
 10
-300.9633
 20
19.9119
 30
0.0
 10
-259.1607
 20
9.1366
 30
0.0
 10
-214.9252
 20
6.4795
 30
0.0
 10
-214.9252
 20
6.4795
 30
0.0
 10
-214.9252
 20
-5.567
 30
0.0
 10
-214.9252
 20
-5.567
 30
0.0
 10
-289.813
 20
-10.1008
 30
0.0
 10
-357.7523
 20
-37.8821
 30
0.0
 10
-409.735
 20
-80.8525
 30
0.0
 10
-409.735
 20
-80.8525
 30
0.0
 10
-409.6752
 20
-80.7597
 30
0.0
 10
-409.6752
 20
-80.7597
 30
0.0
 10
-409.6752
 20
-80.7597
 30
0.0
 10
-414.5713
 20
-68.0584
 30
0.0
 10
-414.5713
 20
-68.0584
 30
0.0
 10
-394.8231
 20
18.2042
 30
0.0
 10
-538.3369
 20
-0.9132
 30
0.0
 10
-508.5057
 20
-72.8106
 30
0.0
 10
-433.7746
 20
-63.9393
 30
0.0
 10
-471.4349
 20
-148.1015
 30
0.0
 10
-476.7788
 20
-159.3569
 30
0.0
 10
-499.5197
 20
-198.5082
 30
0.0
 10
-512.3792
 20
-242.9081
 30
0.0
 10
-512.3867
 20
-289.9157
 30
0.0
  0
SPLINE
  5
74
330
1F
100
AcDbEntity
  8
Layer 1
 62
   250
370
    20
100
AcDbSpline
210
0.0
220
0.0
230
1.0
 70
    11
 71
     3
 72
    11
 73
     7
 74
     0
 42
0.0000000001
 43
0.0000000001
 40
0.0
 40
0.0
 40
0.0
 40
0.0
 40
0.5
 40
0.5
 40
0.5
 40
1.0
 40
1.0
 40
1.0
 40
1.0
 10
-978.7736
 20
-72.1135
 30
0.0
 10
-981.6229
 20
-73.1226
 30
0.0
 10
-984.4967
 20
-74.1839
 30
0.0
 10
-987.3951
 20
-75.2984
 30
0.0
 10
-984.9827
 20
-74.1106
 30
0.0
 10
-982.0762
 20
-73.0465
 30
0.0
 10
-978.7736
 20
-72.1135
 30
0.0
  0
SPLINE
  5
75
330
1F
100
AcDbEntity
  8
Layer 1
 62
   250
370
    20
100
AcDbSpline
210
0.0
220
0.0
230
1.0
 70
    11
 71
     3
 72
    89
 73
    85
 74
     0
 42
0.0000000001
 43
0.0000000001
 40
0.0
 40
0.0
 40
0.0
 40
0.0
 40
0.0357142857142857
 40
0.0357142857142857
 40
0.0357142857142857
 40
0.0714285714285714
 40
0.0714285714285714
 40
0.0714285714285714
 40
0.1071428571428571
 40
0.1071428571428571
 40
0.1071428571428571
 40
0.1428571428571428
 40
0.1428571428571428
 40
0.1428571428571428
 40
0.1785714285714285
 40
0.1785714285714285
 40
0.1785714285714285
 40
0.2142857142857143
 40
0.2142857142857143
 40
0.2142857142857143
 40
0.25
 40
0.25
 40
0.25
 40
0.2857142857142857
 40
0.2857142857142857
 40
0.2857142857142857
 40
0.3214285714285714
 40
0.3214285714285714
 40
0.3214285714285714
 40
0.3571428571428571
 40
0.3571428571428571
 40
0.3571428571428571
 40
0.3928571428571428
 40
0.3928571428571428
 40
0.3928571428571428
 40
0.4285714285714285
 40
0.4285714285714285
 40
0.4285714285714285
 40
0.4642857142857142
 40
0.4642857142857142
 40
0.4642857142857142
 40
0.5
 40
0.5
 40
0.5
 40
0.5357142857142857
 40
0.5357142857142857
 40
0.5357142857142857
 40
0.5714285714285714
 40
0.5714285714285714
 40
0.5714285714285714
 40
0.6071428571428571
 40
0.6071428571428571
 40
0.6071428571428571
 40
0.6428571428571428
 40
0.6428571428571428
 40
0.6428571428571428
 40
0.6785714285714285
 40
0.6785714285714285
 40
0.6785714285714285
 40
0.7142857142857142
 40
0.7142857142857142
 40
0.7142857142857142
 40
0.75
 40
0.75
 40
0.75
 40
0.7857142857142857
 40
0.7857142857142857
 40
0.7857142857142857
 40
0.8214285714285714
 40
0.8214285714285714
 40
0.8214285714285714
 40
0.8571428571428571
 40
0.8571428571428571
 40
0.8571428571428571
 40
0.8928571428571428
 40
0.8928571428571428
 40
0.8928571428571428
 40
0.9285714285714285
 40
0.9285714285714285
 40
0.9285714285714285
 40
0.9642857142857142
 40
0.9642857142857142
 40
0.9642857142857142
 40
1.0
 40
1.0
 40
1.0
 40
1.0
 10
-775.8972
 20
-72.3904
 30
0.0
 10
-680.3954
 20
-108.1973
 30
0.0
 10
-613.0307
 20
-192.5941
 30
0.0
 10
-613.0307
 20
-290.6032
 30
0.0
 10
-607.8661
 20
-369.8279
 30
0.0
 10
-674.0813
 20
-463.9143
 30
0.0
 10
-750.2604
 20
-464.0506
 30
0.0
 10
-777.8003
 20
-464.0998
 30
0.0
 10
-808.7211
 20
-456.4015
 30
0.0
 10
-835.9701
 20
-424.1192
 30
0.0
 10
-853.7703
 20
-436.6786
 30
0.0
 10
-886.6168
 20
-526.1765
 30
0.0
 10
-763.2765
 20
-503.7694
 30
0.0
 10
-797.9963
 20
-518.7457
 30
0.0
 10
-836.8956
 20
-527.1422
 30
0.0
 10
-877.9368
 20
-527.1422
 30
0.0
 10
-985.5368
 20
-527.1422
 30
0.0
 10
-1078.5009
 20
-469.3374
 30
0.0
 10
-1119.893
 20
-386.7356
 30
0.0
 10
-1152.635
 20
-321.3362
 30
0.0
 10
-1101.3912
 20
-215.1759
 30
0.0
 10
-1023.2867
 20
-195.0328
 30
0.0
 10
-1023.2867
 20
-195.0328
 30
0.0
 10
-1047.6173
 20
-235.2643
 30
0.0
 10
-1004.2401
 20
-232.8911
 30
0.0
 10
-960.8627
 20
-230.5232
 30
0.0
 10
-943.5923
 20
-144.7188
 30
0.0
 10
-1047.6173
 20
-163.8035
 30
0.0
 10
-1067.4774
 20
-170.0231
 30
0.0
 10
-1113.6535
 20
-188.393
 30
0.0
 10
-1139.7158
 20
-254.5126
 30
0.0
 10
-1118.669
 20
-150.3602
 30
0.0
 10
-1050.0056
 20
-100.319
 30
0.0
 10
-930.1881
 20
-98.4968
 30
0.0
 10
-930.1881
 20
-98.4968
 30
0.0
 10
-895.2743
 20
-98.5076
 30
0.0
 10
-884.6912
 20
-137.2989
 30
0.0
 10
-800.7256
 20
-72.5663
 30
0.0
 10
-931.0612
 20
-58.6355
 30
0.0
 10
-978.7736
 20
-72.1135
 30
0.0
 10
-880.7004
 20
-37.3813
 30
0.0
 10
-811.7317
 20
-64.4669
 30
0.0
 10
-776.1135
 20
-106.1022
 30
0.0
 10
-742.4013
 20
-145.5208
 30
0.0
 10
-734.0647
 20
-190.7664
 30
0.0
 10
-803.243
 20
-217.7457
 30
0.0
 10
-857.196
 20
-223.4251
 30
0.0
 10
-822.2747
 20
-174.2078
 30
0.0
 10
-822.2747
 20
-174.2078
 30
0.0
 10
-848.7101
 20
-158.5877
 30
0.0
 10
-936.1663
 20
-162.3686
 30
0.0
 10
-901.6256
 20
-230.054
 30
0.0
 10
-863.5324
 20
-294.4059
 30
0.0
 10
-764.0974
 20
-230.9979
 30
0.0
 10
-764.0974
 20
-230.9979
 30
0.0
 10
-769.919
 20
-269.8873
 30
0.0
 10
-809.5347
 20
-290.8433
 30
0.0
 10
-859.3007
 20
-277.3672
 30
0.0
 10
-1087.972
 20
-214.4285
 30
0.0
 10
-1064.7309
 20
-386.059
 30
0.0
 10
-956.6384
 20
-340.7754
 30
0.0
 10
-1103.5854
 20
-410.9487
 30
0.0
 10
-983.0663
 20
-512.5587
 30
0.0
 10
-909.0219
 20
-442.0363
 30
0.0
 10
-973.558
 20
-383.3584
 30
0.0
 10
-837.0895
 20
-333.2026
 30
0.0
 10
-837.0895
 20
-333.2026
 30
0.0
 10
-768.3217
 20
-300.0801
 30
0.0
 10
-715.4211
 20
-229.1047
 30
0.0
 10
-715.4211
 20
-229.1047
 30
0.0
 10
-729.1239
 20
-261.3543
 30
0.0
 10
-751.6709
 20
-302.3933
 30
0.0
 10
-787.8087
 20
-335.0413
 30
0.0
 10
-811.005
 20
-364.1428
 30
0.0
 10
-748.9318
 20
-412.3345
 30
0.0
 10
-717.0332
 20
-369.9915
 30
0.0
 10
-712.8985
 20
-364.4975
 30
0.0
 10
-712.6522
 20
-365.4304
 30
0.0
 10
-716.7048
 20
-360.2637
 30
0.0
 10
-761.3809
 20
-303.6536
 30
0.0
 10
-705.4053
 20
-298.3724
 30
0.0
 10
-684.7465
 20
-227.206
 30
0.0
 10
-667.939
 20
-169.3193
 30
0.0
 10
-743.9389
 20
-98.9059
 30
0.0
 10
-775.8972
 20
-72.3904
 30
0.0
  0
SPLINE
  5
76
330
1F
100
AcDbEntity
  8
Layer 1
 62
   250
370
    20
100
AcDbSpline
210
0.0
220
0.0
230
1.0
 70
    11
 71
     3
 72
    11
 73
     7
 74
     0
 42
0.0000000001
 43
0.0000000001
 40
0.0
 40
0.0
 40
0.0
 40
0.0
 40
0.5
 40
0.5
 40
0.5
 40
1.0
 40
1.0
 40
1.0
 40
1.0
 10
-1123.1784
 20
200.6661
 30
0.0
 10
-1122.0477
 20
198.1197
 30
0.0
 10
-1120.8584
 20
195.5513
 30
0.0
 10
-1119.6093
 20
192.961
 30
0.0
 10
-1120.9406
 20
195.1166
 30
0.0
 10
-1122.1332
 20
197.7143
 30
0.0
 10
-1123.1784
 20
200.6661
 30
0.0
  0
SPLINE
  5
77
330
1F
100
AcDbEntity
  8
Layer 1
 62
   250
370
    20
100
AcDbSpline
210
0.0
220
0.0
230
1.0
 70
    11
 71
     3
 72
    89
 73
    85
 74
     0
 42
0.0000000001
 43
0.0000000001
 40
0.0
 40
0.0
 40
0.0
 40
0.0
 40
0.0357142857142857
 40
0.0357142857142857
 40
0.0357142857142857
 40
0.0714285714285714
 40
0.0714285714285714
 40
0.0714285714285714
 40
0.1071428571428571
 40
0.1071428571428571
 40
0.1071428571428571
 40
0.1428571428571428
 40
0.1428571428571428
 40
0.1428571428571428
 40
0.1785714285714285
 40
0.1785714285714285
 40
0.1785714285714285
 40
0.2142857142857143
 40
0.2142857142857143
 40
0.2142857142857143
 40
0.25
 40
0.25
 40
0.25
 40
0.2857142857142857
 40
0.2857142857142857
 40
0.2857142857142857
 40
0.3214285714285714
 40
0.3214285714285714
 40
0.3214285714285714
 40
0.3571428571428571
 40
0.3571428571428571
 40
0.3571428571428571
 40
0.3928571428571428
 40
0.3928571428571428
 40
0.3928571428571428
 40
0.4285714285714285
 40
0.4285714285714285
 40
0.4285714285714285
 40
0.4642857142857142
 40
0.4642857142857142
 40
0.4642857142857142
 40
0.5
 40
0.5
 40
0.5
 40
0.5357142857142857
 40
0.5357142857142857
 40
0.5357142857142857
 40
0.5714285714285714
 40
0.5714285714285714
 40
0.5714285714285714
 40
0.6071428571428571
 40
0.6071428571428571
 40
0.6071428571428571
 40
0.6428571428571428
 40
0.6428571428571428
 40
0.6428571428571428
 40
0.6785714285714285
 40
0.6785714285714285
 40
0.6785714285714285
 40
0.7142857142857142
 40
0.7142857142857142
 40
0.7142857142857142
 40
0.75
 40
0.75
 40
0.75
 40
0.7857142857142857
 40
0.7857142857142857
 40
0.7857142857142857
 40
0.8214285714285714
 40
0.8214285714285714
 40
0.8214285714285714
 40
0.8571428571428571
 40
0.8571428571428571
 40
0.8571428571428571
 40
0.8928571428571428
 40
0.8928571428571428
 40
0.8928571428571428
 40
0.9285714285714285
 40
0.9285714285714285
 40
0.9285714285714285
 40
0.9642857142857142
 40
0.9642857142857142
 40
0.9642857142857142
 40
1.0
 40
1.0
 40
1.0
 40
1.0
 10
-878.4742
 20
527.2364
 30
0.0
 10
-789.7566
 20
531.8522
 30
0.0
 10
-684.3808
 20
472.7215
 30
0.0
 10
-684.2316
 20
404.7032
 30
0.0
 10
-684.1794
 20
380.1136
 30
0.0
 10
-692.7996
 20
352.5015
 30
0.0
 10
-728.9523
 20
328.1738
 30
0.0
 10
-714.8838
 20
312.2753
 30
0.0
 10
-614.6577
 20
282.9447
 30
0.0
 10
-639.7571
 20
393.0821
 30
0.0
 10
-622.9793
 20
362.0765
 30
0.0
 10
-613.5755
 20
327.3444
 30
0.0
 10
-613.5755
 20
290.6974
 30
0.0
 10
-613.5755
 20
194.6196
 30
0.0
 10
-678.3131
 20
111.6086
 30
0.0
 10
-770.822
 20
74.6506
 30
0.0
 10
-844.0605
 20
45.4126
 30
0.0
 10
-962.9525
 20
91.1709
 30
0.0
 10
-985.5068
 20
160.9132
 30
0.0
 10
-985.5068
 20
160.9132
 30
0.0
 10
-940.4577
 20
139.1881
 30
0.0
 10
-943.1147
 20
177.9193
 30
0.0
 10
-945.7643
 20
216.6504
 30
0.0
 10
-1041.8556
 20
232.0742
 30
0.0
 10
-1020.4805
 20
139.1826
 30
0.0
 10
-1013.517
 20
121.451
 30
0.0
 10
-992.9479
 20
80.221
 30
0.0
 10
-918.896
 20
56.9517
 30
0.0
 10
-1035.5415
 20
75.7472
 30
0.0
 10
-1091.5842
 20
137.0494
 30
0.0
 10
-1093.6143
 20
244.0443
 30
0.0
 10
-1093.6143
 20
244.0443
 30
0.0
 10
-1093.6143
 20
275.2191
 30
0.0
 10
-1050.1624
 20
284.6687
 30
0.0
 10
-1122.6549
 20
359.6328
 30
0.0
 10
-1138.2661
 20
243.2721
 30
0.0
 10
-1123.1784
 20
200.6661
 30
0.0
 10
-1162.0648
 20
288.2371
 30
0.0
 10
-1131.7325
 20
349.8198
 30
0.0
 10
-1085.1061
 20
381.6194
 30
0.0
 10
-1040.9674
 20
411.7194
 30
0.0
 10
-990.2909
 20
419.1667
 30
0.0
 10
-960.0716
 20
357.4008
 30
0.0
 10
-953.7128
 20
309.2201
 30
0.0
 10
-1008.83
 20
340.4003
 30
0.0
 10
-1008.83
 20
340.4003
 30
0.0
 10
-1026.3243
 20
316.7928
 30
0.0
 10
-1022.0851
 20
238.7031
 30
0.0
 10
-946.2941
 20
269.5504
 30
0.0
 10
-874.2201
 20
303.5624
 30
0.0
 10
-945.2269
 20
392.3511
 30
0.0
 10
-945.2269
 20
392.3511
 30
0.0
 10
-901.6778
 20
387.1516
 30
0.0
 10
-878.213
 20
351.7813
 30
0.0
 10
-893.304
 20
307.3378
 30
0.0
 10
-963.7883
 20
103.152
 30
0.0
 10
-771.5758
 20
123.9062
 30
0.0
 10
-822.2896
 20
220.4258
 30
0.0
 10
-743.7075
 20
89.2122
 30
0.0
 10
-629.9055
 20
196.8238
 30
0.0
 10
-708.8832
 20
262.9379
 30
0.0
 10
-774.5985
 20
205.3131
 30
0.0
 10
-830.7755
 20
327.1753
 30
0.0
 10
-830.7755
 20
327.1753
 30
0.0
 10
-867.8686
 20
388.5757
 30
0.0
 10
-947.3539
 20
435.818
 30
0.0
 10
-947.3539
 20
435.818
 30
0.0
 10
-911.231
 20
423.575
 30
0.0
 10
-865.2714
 20
403.4429
 30
0.0
 10
-828.7157
 20
371.1715
 30
0.0
 10
-796.1154
 20
350.461
 30
0.0
 10
-742.1551
 20
405.8926
 30
0.0
 10
-789.5776
 20
434.3722
 30
0.0
 10
-795.7199
 20
438.0713
 30
0.0
 10
-794.6825
 20
438.2841
 30
0.0
 10
-800.4667
 20
434.6668
 30
0.0
 10
-863.8683
 20
394.7735
 30
0.0
 10
-869.7793
 20
444.7547
 30
0.0
 10
-949.4736
 20
463.2064
 30
0.0
 10
-1014.3082
 20
478.2155
 30
0.0
 10
-1093.159
 20
410.35
 30
0.0
 10
-1122.856
 20
381.8158
 30
0.0
 10
-1082.7625
 20
467.0856
 30
0.0
 10
-988.2384
 20
527.2364
 30
0.0
 10
-878.4742
 20
527.2364
 30
0.0
  0
SPLINE
  5
78
330
1F
100
AcDbEntity
  8
Layer 1
 62
   250
370
    20
100
AcDbSpline
210
0.0
220
0.0
230
1.0
 70
    11
 71
     3
 72
    56
 73
    52
 74
     0
 42
0.0000000001
 43
0.0000000001
 40
0.0
 40
0.0
 40
0.0
 40
0.0
 40
0.0588235294117647
 40
0.0588235294117647
 40
0.0588235294117647
 40
0.1176470588235294
 40
0.1176470588235294
 40
0.1176470588235294
 40
0.1764705882352941
 40
0.1764705882352941
 40
0.1764705882352941
 40
0.2352941176470588
 40
0.2352941176470588
 40
0.2352941176470588
 40
0.2941176470588235
 40
0.2941176470588235
 40
0.2941176470588235
 40
0.3529411764705882
 40
0.3529411764705882
 40
0.3529411764705882
 40
0.4117647058823529
 40
0.4117647058823529
 40
0.4117647058823529
 40
0.4705882352941176
 40
0.4705882352941176
 40
0.4705882352941176
 40
0.5294117647058824
 40
0.5294117647058824
 40
0.5294117647058824
 40
0.5882352941176471
 40
0.5882352941176471
 40
0.5882352941176471
 40
0.6470588235294118
 40
0.6470588235294118
 40
0.6470588235294118
 40
0.7058823529411764
 40
0.7058823529411764
 40
0.7058823529411764
 40
0.7647058823529411
 40
0.7647058823529411
 40
0.7647058823529411
 40
0.8235294117647058
 40
0.8235294117647058
 40
0.8235294117647058
 40
0.8823529411764706
 40
0.8823529411764706
 40
0.8823529411764706
 40
0.9411764705882353
 40
0.9411764705882353
 40
0.9411764705882353
 40
1.0
 40
1.0
 40
1.0
 40
1.0
 10
-902.0287
 20
6.4577
 30
0.0
 10
-902.0287
 20
6.4577
 30
0.0
 10
-902.0287
 20
-6.4072
 30
0.0
 10
-902.0287
 20
-6.4072
 30
0.0
 10
-973.4683
 20
-11.2084
 30
0.0
 10
-1038.4597
 20
-37.1837
 30
0.0
 10
-1089.1661
 20
-77.2735
 30
0.0
 10
-1089.1661
 20
-77.2735
 30
0.0
 10
-1088.89
 20
-76.8642
 30
0.0
 10
-1088.89
 20
-76.8642
 30
0.0
 10
-1088.89
 20
-76.8642
 30
0.0
 10
-1093.5919
 20
-64.103
 30
0.0
 10
-1093.5919
 20
-64.103
 30
0.0
 10
-1072.575
 20
21.9196
 30
0.0
 10
-1216.3575
 20
4.5045
 30
0.0
 10
-1187.586
 20
-67.7421
 30
0.0
 10
-1107.3993
 20
-59.1763
 30
0.0
 10
-1159.0982
 20
-155.8871
 30
0.0
 10
-1159.0982
 20
-155.8871
 30
0.0
 10
-1159.0982
 20
-155.8871
 30
0.0
 10
-1159.0162
 20
-155.8434
 30
0.0
 10
-1159.0162
 20
-155.8434
 30
0.0
 10
-1182.0184
 20
-193.8598
 30
0.0
 10
-1195.8108
 20
-232.831
 30
0.0
 10
-1199.8186
 20
-271.6441
 30
0.0
 10
-1199.8186
 20
-271.6441
 30
0.0
 10
-1200.05
 20
-271.6441
 30
0.0
 10
-1200.05
 20
-271.6441
 30
0.0
 10
-1200.05
 20
-271.6441
 30
0.0
 10
-1200.05
 20
259.6317
 30
0.0
 10
-1200.05
 20
259.6317
 30
0.0
 10
-1193.5941
 20
205.1495
 30
0.0
 10
-1166.7407
 20
151.8565
 30
0.0
 10
-1117.3928
 20
102.0827
 30
0.0
 10
-1117.3928
 20
102.0827
 30
0.0
 10
-1117.848
 20
102.3337
 30
0.0
 10
-1117.848
 20
102.3337
 30
0.0
 10
-1117.848
 20
102.3337
 30
0.0
 10
-1132.1479
 20
98.1327
 30
0.0
 10
-1132.1479
 20
98.1327
 30
0.0
 10
-1228.4781
 20
116.9008
 30
0.0
 10
-1208.9687
 20
-11.4866
 30
0.0
 10
-1128.0654
 20
14.2051
 30
0.0
 10
-1137.6559
 20
85.8079
 30
0.0
 10
-1029.3469
 20
39.6403
 30
0.0
 10
-1029.3469
 20
39.6403
 30
0.0
 10
-1029.3469
 20
39.6403
 30
0.0
 10
-1029.3992
 20
39.7166
 30
0.0
 10
-1029.3992
 20
39.7166
 30
0.0
 10
-990.9551
 20
21.1667
 30
0.0
 10
-947.8093
 20
9.4693
 30
0.0
 10
-902.0287
 20
6.4577
 30
0.0
  0
SPLINE
  5
79
330
1F
100
AcDbEntity
  8
Layer 1
 62
   250
370
    20
100
AcDbSpline
210
0.0
220
0.0
230
1.0
 70
    11
 71
     3
 72
    35
 73
    31
 74
     0
 42
0.0000000001
 43
0.0000000001
 40
0.0
 40
0.0
 40
0.0
 40
0.0
 40
0.1
 40
0.1
 40
0.1
 40
0.2
 40
0.2
 40
0.2
 40
0.3
 40
0.3
 40
0.3
 40
0.4
 40
0.4
 40
0.4
 40
0.5
 40
0.5
 40
0.5
 40
0.6000000000000001
 40
0.6000000000000001
 40
0.6000000000000001
 40
0.7000000000000001
 40
0.7000000000000001
 40
0.7000000000000001
 40
0.8
 40
0.8
 40
0.8
 40
0.9
 40
0.9
 40
0.9
 40
1.0
 40
1.0
 40
1.0
 40
1.0
 10
-1200.05
 20
589.9734
 30
0.0
 10
-1200.05
 20
589.9734
 30
0.0
 10
-904.2453
 20
589.9734
 30
0.0
 10
-904.2453
 20
589.9734
 30
0.0
 10
-904.2453
 20
589.9734
 30
0.0
 10
-904.2453
 20
578.4016
 30
0.0
 10
-904.2453
 20
578.4016
 30
0.0
 10
-971.0427
 20
574.015
 30
0.0
 10
-1036.3327
 20
548.3507
 30
0.0
 10
-1095.2189
 20
499.5806
 30
0.0
 10
-1095.2189
 20
499.5806
 30
0.0
 10
-1095.0622
 20
499.8153
 30
0.0
 10
-1095.0622
 20
499.8153
 30
0.0
 10
-1095.0622
 20
499.8153
 30
0.0
 10
-1099.9508
 20
512.5329
 30
0.0
 10
-1099.9508
 20
512.5329
 30
0.0
 10
-1080.21
 20
598.7901
 30
0.0
 10
-1223.7313
 20
579.6673
 30
0.0
 10
-1193.8926
 20
507.7754
 30
0.0
 10
-1116.3031
 20
516.9903
 30
0.0
 10
-1159.8596
 20
425.9047
 30
0.0
 10
-1162.6359
 20
420.2633
 30
0.0
 10
-1182.9886
 20
384.8547
 30
0.0
 10
-1195.6092
 20
348.9934
 30
0.0
 10
-1199.923
 20
313.3119
 30
0.0
 10
-1199.923
 20
313.3119
 30
0.0
 10
-1200.05
 20
313.3119
 30
0.0
 10
-1200.05
 20
313.3119
 30
0.0
 10
-1200.05
 20
313.3119
 30
0.0
 10
-1200.05
 20
589.9734
 30
0.0
 10
-1200.05
 20
589.9734
 30
0.0
  0
SPLINE
  5
7A
330
1F
100
AcDbEntity
  8
Layer 1
 62
   250
370
    20
100
AcDbSpline
210
0.0
220
0.0
230
1.0
 70
    11
 71
     3
 72
    32
 73
    28
 74
     0
 42
0.0000000001
 43
0.0000000001
 40
0.0
 40
0.0
 40
0.0
 40
0.0
 40
0.1111111111111111
 40
0.1111111111111111
 40
0.1111111111111111
 40
0.2222222222222222
 40
0.2222222222222222
 40
0.2222222222222222
 40
0.3333333333333333
 40
0.3333333333333333
 40
0.3333333333333333
 40
0.4444444444444444
 40
0.4444444444444444
 40
0.4444444444444444
 40
0.5555555555555556
 40
0.5555555555555556
 40
0.5555555555555556
 40
0.6666666666666666
 40
0.6666666666666666
 40
0.6666666666666666
 40
0.7777777777777777
 40
0.7777777777777777
 40
0.7777777777777777
 40
0.8888888888888888
 40
0.8888888888888888
 40
0.8888888888888888
 40
1.0
 40
1.0
 40
1.0
 40
1.0
 10
-1024.1599
 20
-543.8263
 30
0.0
 10
-984.1112
 20
-562.3762
 30
0.0
 10
-944.0104
 20
-574.0137
 30
0.0
 10
-904.2453
 20
-578.171
 30
0.0
 10
-904.2453
 20
-578.171
 30
0.0
 10
-904.2453
 20
-590.0266
 30
0.0
 10
-904.2453
 20
-590.0266
 30
0.0
 10
-904.2453
 20
-590.0266
 30
0.0
 10
-1200.05
 20
-590.0266
 30
0.0
 10
-1200.05
 20
-590.0266
 30
0.0
 10
-1200.05
 20
-590.0266
 30
0.0
 10
-1200.05
 20
-316.3331
 30
0.0
 10
-1200.05
 20
-316.3331
 30
0.0
 10
-1194.5419
 20
-374.8527
 30
0.0
 10
-1165.9124
 20
-432.0247
 30
0.0
 10
-1112.0638
 20
-483.9592
 30
0.0
 10
-1112.0638
 20
-483.9592
 30
0.0
 10
-1112.1683
 20
-483.91
 30
0.0
 10
-1112.1683
 20
-483.91
 30
0.0
 10
-1112.1683
 20
-483.91
 30
0.0
 10
-1126.4011
 20
-488.2801
 30
0.0
 10
-1126.4011
 20
-488.2801
 30
0.0
 10
-1222.9999
 20
-470.6468
 30
0.0
 10
-1201.5949
 20
-598.7942
 30
0.0
 10
-1121.0797
 20
-572.1587
 30
0.0
 10
-1131.0134
 20
-505.428
 30
0.0
 10
-1036.758
 20
-539.0579
 30
0.0
 10
-1024.1599
 20
-543.8263
 30
0.0
  0
ENDSEC
  0
SECTION
  2
OBJECTS
  0
DICTIONARY
  5
C
330
0
100
AcDbDictionary
281
     1
  3
ACAD_DETAILVIEWSTYLE
350
82
  3
ACAD_GROUP
350
D
  3
ACAD_LAYOUT
350
1A
  3
ACAD_MATERIAL
350
43
  3
ACAD_MLEADERSTYLE
350
5B
  3
ACAD_MLINESTYLE
350
17
  3
ACAD_PLOTSETTINGS
350
19
  3
ACAD_PLOTSTYLENAME
350
E
  3
ACAD_SCALELIST
350
47
  3
ACAD_SECTIONVIEWSTYLE
350
83
  3
ACAD_TABLESTYLE
350
59
  3
ACAD_VISUALSTYLE
350
2A
  3
ACDB_RECOMPOSE_DATA
350
7F
  3
AcDbVariableDictionary
350
7B
  0
SUN
  5
5D
330
29
100
AcDbSun
 90
        1
290
     0
 63
     7
421
 16777215
 40
1.0
291
     1
 91
  2455826
 92
 54000000
292
     0
 70
     2
 71
   256
280
     1
  0
DICTIONARY
  5
82
102
{ACAD_REACTORS
330
C
102
}
330
C
100
AcDbDictionary
281
     1
  0
DICTIONARY
  5
D
102
{ACAD_REACTORS
330
C
102
}
330
C
100
AcDbDictionary
281
     1
  0
DICTIONARY
  5
1A
102
{ACAD_REACTORS
330
C
102
}
330
C
100
AcDbDictionary
281
     1
  3
Layout1
350
1E
  3
Layout2
350
26
  3
Model
350
22
  0
DICTIONARY
  5
43
102
{ACAD_REACTORS
330
C
102
}
330
C
100
AcDbDictionary
281
     1
  3
ByBlock
350
45
  3
ByLayer
350
44
  3
Global
350
46
  0
DICTIONARY
  5
5B
102
{ACAD_REACTORS
330
C
102
}
330
C
100
AcDbDictionary
281
     1
  3
Standard
350
5C
  0
DICTIONARY
  5
17
102
{ACAD_REACTORS
330
C
102
}
330
C
100
AcDbDictionary
281
     1
  3
Standard
350
18
  0
DICTIONARY
  5
19
102
{ACAD_REACTORS
330
C
102
}
330
C
100
AcDbDictionary
281
     1
  0
ACDBDICTIONARYWDFLT
  5
E
102
{ACAD_REACTORS
330
C
102
}
330
C
100
AcDbDictionary
281
     1
  3
Normal
350
F
100
AcDbDictionaryWithDefault
340
F
  0
DICTIONARY
  5
47
102
{ACAD_REACTORS
330
C
102
}
330
C
100
AcDbDictionary
281
     1
  3
A0
350
48
  3
A1
350
49
  3
A2
350
4A
  3
A3
350
4B
  3
A4
350
4C
  3
A5
350
4D
  3
A6
350
4E
  3
A7
350
4F
  3
A8
350
50
  3
A9
350
51
  3
B1
350
52
  3
B2
350
53
  3
B3
350
54
  3
B4
350
55
  3
B5
350
56
  3
B6
350
57
  3
B7
350
58
  0
DICTIONARY
  5
83
102
{ACAD_REACTORS
330
C
102
}
330
C
100
AcDbDictionary
281
     1
  0
DICTIONARY
  5
59
102
{ACAD_REACTORS
330
C
102
}
330
C
100
AcDbDictionary
281
     1
  3
Standard
350
5A
  0
DICTIONARY
  5
2A
102
{ACAD_REACTORS
330
C
102
}
330
C
100
AcDbDictionary
281
     1
  3
2dWireframe
350
2F
  3
Basic
350
32
  3
Brighten
350
36
  3
ColorChange
350
3A
  3
Conceptual
350
34
  3
Dim
350
35
  3
EdgeColorOff
350
3D
  3
Facepattern
350
39
  3
Flat
350
2B
  3
FlatWithEdges
350
2C
  3
Gouraud
350
2D
  3
GouraudWithEdges
350
2E
  3
Hidden
350
31
  3
JitterOff
350
3B
  3
Linepattern
350
38
  3
OverhangOff
350
3C
  3
Realistic
350
33
  3
Shaded
350
42
  3
Shaded with edges
350
41
  3
Shades of Gray
350
3E
  3
Sketchy
350
3F
  3
Thicken
350
37
  3
Wireframe
350
30
  3
X-Ray
350
40
  0
XRECORD
  5
7F
102
{ACAD_REACTORS
330
C
102
}
330
C
100
AcDbXrecord
280
     1
 90
        1
330
5A
  0
DICTIONARY
  5
7B
102
{ACAD_REACTORS
330
C
102
}
330
C
100
AcDbDictionary
281
     1
  3
CANNOSCALE
350
7C
  3
CMLEADERSTYLE
350
81
  3
CTABLESTYLE
350
80
  0
LAYOUT
  5
1E
102
{ACAD_REACTORS
330
1A
102
}
330
1A
100
AcDbPlotSettings
  1

  2
none_device
  4

  6

 40
0.0
 41
0.0
 42
0.0
 43
0.0
 44
0.0
 45
0.0
 46
0.0
 47
0.0
 48
0.0
 49
0.0
140
0.0
141
0.0
142
1.0
143
1.0
 70
   688
 72
     0
 73
     0
 74
     5
  7

 75
    16
 76
     0
 77
     2
 78
   300
147
1.0
148
0.0
149
0.0
100
AcDbLayout
  1
Layout1
 70
     1
 71
     1
 10
0.0
 20
0.0
 11
12.0
 21
9.0
 12
0.0
 22
0.0
 32
0.0
 14
1.000000000000000E+20
 24
1.000000000000000E+20
 34
1.000000000000000E+20
 15
-1.000000000000000E+20
 25
-1.000000000000000E+20
 35
-1.000000000000000E+20
146
0.0
 13
0.0
 23
0.0
 33
0.0
 16
1.0
 26
0.0
 36
0.0
 17
0.0
 27
1.0
 37
0.0
 76
     0
330
1B
  0
LAYOUT
  5
26
102
{ACAD_REACTORS
330
1A
102
}
330
1A
100
AcDbPlotSettings
  1

  2
none_device
  4

  6

 40
0.0
 41
0.0
 42
0.0
 43
0.0
 44
0.0
 45
0.0
 46
0.0
 47
0.0
 48
0.0
 49
0.0
140
0.0
141
0.0
142
1.0
143
1.0
 70
   688
 72
     0
 73
     0
 74
     5
  7

 75
    16
 76
     0
 77
     2
 78
   300
147
1.0
148
0.0
149
0.0
100
AcDbLayout
  1
Layout2
 70
     1
 71
     2
 10
0.0
 20
0.0
 11
0.0
 21
0.0
 12
0.0
 22
0.0
 32
0.0
 14
0.0
 24
0.0
 34
0.0
 15
0.0
 25
0.0
 35
0.0
146
0.0
 13
0.0
 23
0.0
 33
0.0
 16
1.0
 26
0.0
 36
0.0
 17
0.0
 27
1.0
 37
0.0
 76
     0
330
23
  0
LAYOUT
  5
22
102
{ACAD_REACTORS
330
1A
102
}
330
1A
100
AcDbPlotSettings
  1

  2
none_device
  4
Letter_(8.50_x_11.00_Inches)
  6

 40
6.35
 41
6.35
 42
6.35000508
 43
6.35000508
 44
215.9
 45
279.4
 46
0.0
 47
0.0
 48
0.0
 49
0.0
140
0.0
141
0.0
142
1.0
143
1.0
 70
  1712
 72
     0
 73
     0
 74
     0
  7

 75
     0
 76
     0
 77
     2
 78
   300
147
1.0
148
0.0
149
0.0
100
AcDbLayout
  1
Model
 70
     1
 71
     0
 10
0.0
 20
0.0
 11
12.0
 21
9.0
 12
0.0
 22
0.0
 32
0.0
 14
-1200.15
 24
-590.1266
 34
0.0
 15
1200.05
 25
590.0734
 35
0.0
146
0.0
 13
0.0
 23
0.0
 33
0.0
 16
1.0
 26
0.0
 36
0.0
 17
0.0
 27
1.0
 37
0.0
 76
     0
330
1F
331
29
  0
MATERIAL
  5
45
102
{ACAD_REACTORS
330
43
102
}
330
43
100
AcDbMaterial
  1
ByBlock
 72
     1
 94
      127
  0
MATERIAL
  5
44
102
{ACAD_REACTORS
330
43
102
}
330
43
100
AcDbMaterial
  1
ByLayer
 72
     1
 94
      127
  0
MATERIAL
  5
46
102
{ACAD_REACTORS
330
43
102
}
330
43
100
AcDbMaterial
  1
Global
 72
     1
 94
      127
  0
MLEADERSTYLE
  5
5C
102
{ACAD_REACTORS
330
5B
102
}
330
5B
100
AcDbMLeaderStyle
179
     2
170
     2
171
     1
172
     0
 90
        2
 40
0.0
 41
0.0
173
     1
 91
-1056964608
340
14
 92
       -2
290
     1
 42
0.09
291
     1
 43
0.36
  3
Standard
341
0
 44
0.18
300

342
11
174
     1
178
     6
175
     1
176
     0
 93
-1056964608
 45
0.18
292
     0
297
     0
 46
0.18
343
0
 94
-1056964608
 47
1.0
 49
1.0
140
1.0
293
     1
141
0.0
294
     1
177
     0
142
1.0
295
     0
296
     0
143
0.125
271
     0
272
     9
273
     9
298
     0
  0
MLINESTYLE
  5
18
102
{ACAD_REACTORS
330
17
102
}
330
17
100
AcDbMlineStyle
  2
Standard
 70
     0
  3

 62
   256
 51
90.0
 52
90.0
 71
     2
 49
0.5
 62
   256
  6
BYLAYER
 49
-0.5
 62
   256
  6
BYLAYER
  0
ACDBPLACEHOLDER
  5
F
102
{ACAD_REACTORS
330
E
102
}
330
E
  0
SCALE
  5
48
102
{ACAD_REACTORS
330
47
102
}
330
47
100
AcDbScale
 70
     0
300
1:1
140
1.0
141
1.0
290
     1
  0
SCALE
  5
49
102
{ACAD_REACTORS
330
47
102
}
330
47
100
AcDbScale
 70
     0
300
1/128" = 1'-0"
140
0.0078125
141
12.0
290
     0
  0
SCALE
  5
4A
102
{ACAD_REACTORS
330
47
102
}
330
47
100
AcDbScale
 70
     0
300
1/64" = 1'-0"
140
0.015625
141
12.0
290
     0
  0
SCALE
  5
4B
102
{ACAD_REACTORS
330
47
102
}
330
47
100
AcDbScale
 70
     0
300
1/32" = 1'-0"
140
0.03125
141
12.0
290
     0
  0
SCALE
  5
4C
102
{ACAD_REACTORS
330
47
102
}
330
47
100
AcDbScale
 70
     0
300
1/16" = 1'-0"
140
0.0625
141
12.0
290
     0
  0
SCALE
  5
4D
102
{ACAD_REACTORS
330
47
102
}
330
47
100
AcDbScale
 70
     0
300
3/32" = 1'-0"
140
0.09375
141
12.0
290
     0
  0
SCALE
  5
4E
102
{ACAD_REACTORS
330
47
102
}
330
47
100
AcDbScale
 70
     0
300
1/8" = 1'-0"
140
0.125
141
12.0
290
     0
  0
SCALE
  5
4F
102
{ACAD_REACTORS
330
47
102
}
330
47
100
AcDbScale
 70
     0
300
3/16" = 1'-0"
140
0.1875
141
12.0
290
     0
  0
SCALE
  5
50
102
{ACAD_REACTORS
330
47
102
}
330
47
100
AcDbScale
 70
     0
300
1/4" = 1'-0"
140
0.25
141
12.0
290
     0
  0
SCALE
  5
51
102
{ACAD_REACTORS
330
47
102
}
330
47
100
AcDbScale
 70
     0
300
3/8" = 1'-0"
140
0.375
141
12.0
290
     0
  0
SCALE
  5
52
102
{ACAD_REACTORS
330
47
102
}
330
47
100
AcDbScale
 70
     0
300
1/2" = 1'-0"
140
0.5
141
12.0
290
     0
  0
SCALE
  5
53
102
{ACAD_REACTORS
330
47
102
}
330
47
100
AcDbScale
 70
     0
300
3/4" = 1'-0"
140
0.75
141
12.0
290
     0
  0
SCALE
  5
54
102
{ACAD_REACTORS
330
47
102
}
330
47
100
AcDbScale
 70
     0
300
1" = 1'-0"
140
1.0
141
12.0
290
     0
  0
SCALE
  5
55
102
{ACAD_REACTORS
330
47
102
}
330
47
100
AcDbScale
 70
     0
300
1-1/2" = 1'-0"
140
1.5
141
12.0
290
     0
  0
SCALE
  5
56
102
{ACAD_REACTORS
330
47
102
}
330
47
100
AcDbScale
 70
     0
300
3" = 1'-0"
140
3.0
141
12.0
290
     0
  0
SCALE
  5
57
102
{ACAD_REACTORS
330
47
102
}
330
47
100
AcDbScale
 70
     0
300
6" = 1'-0"
140
6.0
141
12.0
290
     0
  0
SCALE
  5
58
102
{ACAD_REACTORS
330
47
102
}
330
47
100
AcDbScale
 70
     0
300
1'-0" = 1'-0"
140
12.0
141
12.0
290
     0
  0
TABLESTYLE
  5
5A
102
{ACAD_REACTORS
330
59
102
}
102
{ACAD_XDICTIONARY
360
7D
102
}
330
59
100
AcDbTableStyle
  3
Standard
 70
     0
 71
     0
 40
0.06
 41
0.06
280
     0
281
     0
  7
Standard
140
0.18
170
     2
 62
     0
 63
   257
283
     0
 90
        4
 91
        0
  1

274
    -2
284
     1
 64
     0
275
    -2
285
     1
 65
     0
276
    -2
286
     1
 66
     0
277
    -2
287
     1
 67
     0
278
    -2
288
     1
 68
     0
279
    -2
289
     1
 69
     0
  7
Standard
140
0.25
170
     5
 62
     0
 63
   257
283
     0
 90
        4
 91
        0
  1

274
    -2
284
     1
 64
     0
275
    -2
285
     1
 65
     0
276
    -2
286
     1
 66
     0
277
    -2
287
     1
 67
     0
278
    -2
288
     1
 68
     0
279
    -2
289
     1
 69
     0
  7
Standard
140
0.18
170
     5
 62
     0
 63
   257
283
     0
 90
        4
 91
        0
  1

274
    -2
284
     1
 64
     0
275
    -2
285
     1
 65
     0
276
    -2
286
     1
 66
     0
277
    -2
287
     1
 67
     0
278
    -2
288
     1
 68
     0
279
    -2
289
     1
 69
     0
  0
VISUALSTYLE
  5
2F
102
{ACAD_REACTORS
330
2A
102
}
330
2A
100
AcDbVisualStyle
  2
2dWireframe
 70
     4
177
     3
291
     0
 70
    58
 90
        0
176
     1
 90
        2
176
     1
 90
        0
176
     1
 90
        0
176
     1
 40
0.6
176
     1
 40
30.0
176
     1
 62
     7
420
 16777215
176
     1
 90
        1
176
     1
 90
        4
176
     1
 62
     7
176
     1
 62
   257
176
     1
 90
        1
176
     1
 90
        1
176
     1
 40
1.0
176
     1
 90
        0
176
     1
 62
   257
176
     1
 40
1.0
176
     1
 90
        1
176
     1
 90
        6
176
     1
 90
        2
176
     1
 62
     7
176
     1
 90
        5
176
     1
 90
        0
176
     1
 90
        0
176
     1
290
     0
176
     1
 90
        1
176
     1
 40
0.0
176
     1
 90
        0
176
     1
290
     1
176
     1
290
     1
176
     1
290
     0
176
     1
290
     0
176
     1
290
     0
176
     1
290
     0
176
     1
290
     0
176
     1
290
     0
176
     1
290
     0
176
     1
 90
       50
176
     1
 40
0.0
176
     1
 40
1.0
176
     1
 90
        0
176
     1
 62
    18
420
        0
176
     1
 90
       50
176
     1
 90
        3
176
     1
 62
     5
420
      255
176
     1
290
     0
176
     1
 90
       50
176
     1
 90
       50
176
     1
 90
       50
176
     1
290
     0
176
     1
 90
       50
176
     1
 62
   256
176
     0
 40
1.0
176
     0
 90
        2
176
     1
  1
strokes_ogs.tif
176
     1
290
     0
176
     1
 40
1.0
176
     1
 40
1.0
176
     1
  0
VISUALSTYLE
  5
32
102
{ACAD_REACTORS
330
2A
102
}
330
2A
100
AcDbVisualStyle
  2
Basic
 70
     7
177
     3
291
     1
 70
    58
 90
        1
176
     1
 90
        0
176
     1
 90
        1
176
     1
 90
        0
176
     1
 40
0.6
176
     1
 40
30.0
176
     1
 62
     7
420
 16777215
176
     1
 90
        0
176
     1
 90
        4
176
     1
 62
     7
176
     1
 62
   257
176
     1
 90
        1
176
     1
 90
        1
176
     1
 40
1.0
176
     1
 90
        8
176
     1
 62
     7
176
     1
 40
1.0
176
     1
 90
        1
176
     1
 90
        6
176
     1
 90
        2
176
     1
 62
     7
176
     1
 90
        5
176
     1
 90
        0
176
     1
 90
        0
176
     1
290
     0
176
     1
 90
        1
176
     1
 40
0.0
176
     1
 90
        0
176
     1
290
     0
176
     1
290
     1
176
     1
290
     1
176
     1
290
     0
176
     1
290
     0
176
     1
290
     0
176
     1
290
     0
176
     1
290
     0
176
     1
290
     0
176
     1
 90
       50
176
     1
 40
0.0
176
     1
 40
1.0
176
     1
 90
        0
176
     1
 62
    18
420
        0
176
     1
 90
       50
176
     1
 90
        3
176
     1
 62
     5
420
      255
176
     1
290
     0
176
     1
 90
       50
176
     1
 90
       50
176
     1
 90
       50
176
     1
290
     0
176
     1
 90
       50
176
     1
 62
   256
176
     0
 40
1.0
176
     0
 90
        2
176
     1
  1
strokes_ogs.tif
176
     1
290
     0
176
     1
 40
1.0
176
     1
 40
1.0
176
     1
  0
VISUALSTYLE
  5
36
102
{ACAD_REACTORS
330
2A
102
}
330
2A
100
AcDbVisualStyle
  2
Brighten
 70
    12
177
     3
291
     1
 70
    58
 90
        2
176
     1
 90
        2
176
     1
 90
        0
176
     1
 90
        0
176
     1
 40
0.6
176
     1
 40
30.0
176
     1
 62
     7
420
 16777215
176
     1
 90
        1
176
     1
 90
        4
176
     1
 62
     7
176
     1
 62
   257
176
     1
 90
        1
176
     1
 90
        1
176
     1
 40
1.0
176
     1
 90
        8
176
     1
 62
     7
176
     1
 40
1.0
176
     1
 90
        1
176
     1
 90
        6
176
     1
 90
        2
176
     1
 62
     7
176
     1
 90
        5
176
     1
 90
        0
176
     1
 90
        0
176
     1
290
     0
176
     1
 90
        1
176
     1
 40
50.0
176
     1
 90
        0
176
     1
290
     0
176
     1
290
     1
176
     1
290
     1
176
     1
290
     0
176
     1
290
     0
176
     1
290
     0
176
     1
290
     0
176
     1
290
     0
176
     1
290
     0
176
     1
 90
       50
176
     1
 40
0.0
176
     1
 40
1.0
176
     1
 90
        0
176
     1
 62
    18
420
        0
176
     1
 90
       50
176
     1
 90
        3
176
     1
 62
     5
420
      255
176
     1
290
     0
176
     1
 90
       50
176
     1
 90
       50
176
     1
 90
       50
176
     1
290
     0
176
     1
 90
       50
176
     1
 62
   256
176
     0
 40
1.0
176
     0
 90
        2
176
     1
  1
strokes_ogs.tif
176
     1
290
     0
176
     1
 40
1.0
176
     1
 40
1.0
176
     1
  0
VISUALSTYLE
  5
3A
102
{ACAD_REACTORS
330
2A
102
}
330
2A
100
AcDbVisualStyle
  2
ColorChange
 70
    16
177
     3
291
     1
 70
    58
 90
        2
176
     1
 90
        2
176
     1
 90
        3
176
     1
 90
        0
176
     1
 40
0.6
176
     1
 40
30.0
176
     1
 62
     8
420
  8421504
176
     1
 90
        1
176
     1
 90
        4
176
     1
 62
     7
176
     1
 62
   257
176
     1
 90
        1
176
     1
 90
        1
176
     1
 40
1.0
176
     1
 90
        8
176
     1
 62
     8
420
  8421504
176
     1
 40
1.0
176
     1
 90
        1
176
     1
 90
        6
176
     1
 90
        2
176
     1
 62
     7
176
     1
 90
        5
176
     1
 90
        0
176
     1
 90
        0
176
     1
290
     0
176
     1
 90
        1
176
     1
 40
0.0
176
     1
 90
        0
176
     1
290
     0
176
     1
290
     1
176
     1
290
     1
176
     1
290
     0
176
     1
290
     0
176
     1
290
     0
176
     1
290
     0
176
     1
290
     0
176
     1
290
     0
176
     1
 90
       50
176
     1
 40
0.0
176
     1
 40
1.0
176
     1
 90
        0
176
     1
 62
    18
420
        0
176
     1
 90
       50
176
     1
 90
        3
176
     1
 62
     5
420
      255
176
     1
290
     0
176
     1
 90
       50
176
     1
 90
       50
176
     1
 90
       50
176
     1
290
     0
176
     1
 90
       50
176
     1
 62
   256
176
     0
 40
1.0
176
     0
 90
        2
176
     1
  1
strokes_ogs.tif
176
     1
290
     0
176
     1
 40
1.0
176
     1
 40
1.0
176
     1
  0
VISUALSTYLE
  5
34
102
{ACAD_REACTORS
330
2A
102
}
330
2A
100
AcDbVisualStyle
  2
Conceptual
 70
     9
177
     3
291
     0
 70
    58
 90
        3
176
     1
 90
        2
176
     1
 90
        0
176
     1
 90
        0
176
     1
 40
0.6
176
     1
 40
30.0
176
     1
 62
     7
420
 16777215
176
     1
 90
        2
176
     1
 90
        2
176
     1
 62
     7
176
     1
 62
   257
176
     1
 90
        1
176
     1
 90
        1
176
     1
 40
179.0
176
     1
 90
        8
176
     1
 62
     7
176
     1
 40
1.0
176
     1
 90
        1
176
     1
 90
        6
176
     1
 90
        2
176
     1
 62
     7
176
     1
 90
        3
176
     1
 90
        0
176
     1
 90
        0
176
     1
290
     0
176
     1
 90
        1
176
     1
 40
0.0
176
     1
 90
        0
176
     1
290
     0
176
     1
290
     1
176
     1
290
     1
176
     1
290
     0
176
     1
290
     0
176
     1
290
     0
176
     1
290
     0
176
     1
290
     0
176
     1
290
     0
176
     1
 90
       50
176
     1
 40
0.0
176
     1
 40
1.0
176
     1
 90
        0
176
     1
 62
    18
420
        0
176
     1
 90
       50
176
     1
 90
        3
176
     1
 62
     5
420
      255
176
     1
290
     0
176
     1
 90
       50
176
     1
 90
       50
176
     1
 90
       50
176
     1
290
     0
176
     1
 90
       50
176
     1
 62
   256
176
     0
 40
1.0
176
     0
 90
        2
176
     1
  1
strokes_ogs.tif
176
     1
290
     0
176
     1
 40
1.0
176
     1
 40
1.0
176
     1
  0
VISUALSTYLE
  5
35
102
{ACAD_REACTORS
330
2A
102
}
330
2A
100
AcDbVisualStyle
  2
Dim
 70
    11
177
     3
291
     1
 70
    58
 90
        2
176
     1
 90
        2
176
     1
 90
        0
176
     1
 90
        0
176
     1
 40
0.6
176
     1
 40
30.0
176
     1
 62
     7
420
 16777215
176
     1
 90
        1
176
     1
 90
        4
176
     1
 62
     7
176
     1
 62
   257
176
     1
 90
        1
176
     1
 90
        1
176
     1
 40
1.0
176
     1
 90
        8
176
     1
 62
     7
176
     1
 40
1.0
176
     1
 90
        1
176
     1
 90
        6
176
     1
 90
        2
176
     1
 62
     7
176
     1
 90
        5
176
     1
 90
        0
176
     1
 90
        0
176
     1
290
     0
176
     1
 90
        1
176
     1
 40
-50.0
176
     1
 90
        0
176
     1
290
     0
176
     1
290
     1
176
     1
290
     1
176
     1
290
     0
176
     1
290
     0
176
     1
290
     0
176
     1
290
     0
176
     1
290
     0
176
     1
290
     0
176
     1
 90
       50
176
     1
 40
0.0
176
     1
 40
1.0
176
     1
 90
        0
176
     1
 62
    18
420
        0
176
     1
 90
       50
176
     1
 90
        3
176
     1
 62
     5
420
      255
176
     1
290
     0
176
     1
 90
       50
176
     1
 90
       50
176
     1
 90
       50
176
     1
290
     0
176
     1
 90
       50
176
     1
 62
   256
176
     0
 40
1.0
176
     0
 90
        2
176
     1
  1
strokes_ogs.tif
176
     1
290
     0
176
     1
 40
1.0
176
     1
 40
1.0
176
     1
  0
VISUALSTYLE
  5
3D
102
{ACAD_REACTORS
330
2A
102
}
330
2A
100
AcDbVisualStyle
  2
EdgeColorOff
 70
    22
177
     3
291
     1
 70
    58
 90
        2
176
     0
 90
        2
176
     0
 90
        0
176
     0
 90
        0
176
     0
 40
0.6
176
     0
 40
30.0
176
     0
 62
     7
420
 16777215
176
     0
 90
        1
176
     0
 90
        4
176
     0
 62
     7
176
     0
 62
   257
176
     0
 90
        1
176
     0
 90
        1
176
     0
 40
1.0
176
     0
 90
        8
176
     2
 62
     7
176
     0
 40
1.0
176
     0
 90
        1
176
     0
 90
        6
176
     0
 90
        2
176
     0
 62
     7
176
     0
 90
        5
176
     0
 90
        0
176
     0
 90
        0
176
     0
290
     0
176
     0
 90
        1
176
     0
 40
0.0
176
     0
 90
        0
176
     0
290
     0
176
     0
290
     1
176
     0
290
     1
176
     0
290
     0
176
     0
290
     0
176
     0
290
     0
176
     0
290
     0
176
     0
290
     0
176
     0
290
     0
176
     0
 90
       50
176
     0
 40
0.0
176
     0
 40
1.0
176
     0
 90
        0
176
     0
 62
    18
420
        0
176
     0
 90
       50
176
     0
 90
        3
176
     0
 62
     5
420
      255
176
     0
290
     0
176
     0
 90
       50
176
     0
 90
       50
176
     0
 90
       50
176
     0
290
     0
176
     0
 90
       50
176
     0
 62
   256
176
     0
 40
1.0
176
     0
 90
        2
176
     0
  1
strokes_ogs.tif
176
     0
290
     0
176
     0
 40
1.0
176
     0
 40
1.0
176
     0
  0
VISUALSTYLE
  5
39
102
{ACAD_REACTORS
330
2A
102
}
330
2A
100
AcDbVisualStyle
  2
Facepattern
 70
    15
177
     3
291
     1
 70
    58
 90
        2
176
     1
 90
        2
176
     1
 90
        0
176
     1
 90
        0
176
     1
 40
0.6
176
     1
 40
30.0
176
     1
 62
     7
420
 16777215
176
     1
 90
        1
176
     1
 90
        4
176
     1
 62
     7
176
     1
 62
   257
176
     1
 90
        1
176
     1
 90
        1
176
     1
 40
1.0
176
     1
 90
        8
176
     1
 62
     7
176
     1
 40
1.0
176
     1
 90
        1
176
     1
 90
        6
176
     1
 90
        2
176
     1
 62
     7
176
     1
 90
        5
176
     1
 90
        0
176
     1
 90
        0
176
     1
290
     0
176
     1
 90
        1
176
     1
 40
0.0
176
     1
 90
        0
176
     1
290
     0
176
     1
290
     1
176
     1
290
     1
176
     1
290
     0
176
     1
290
     0
176
     1
290
     0
176
     1
290
     0
176
     1
290
     0
176
     1
290
     0
176
     1
 90
       50
176
     1
 40
0.0
176
     1
 40
1.0
176
     1
 90
        0
176
     1
 62
    18
420
        0
176
     1
 90
       50
176
     1
 90
        3
176
     1
 62
     5
420
      255
176
     1
290
     0
176
     1
 90
       50
176
     1
 90
       50
176
     1
 90
       50
176
     1
290
     0
176
     1
 90
       50
176
     1
 62
   256
176
     0
 40
1.0
176
     0
 90
        2
176
     1
  1
strokes_ogs.tif
176
     1
290
     0
176
     1
 40
1.0
176
     1
 40
1.0
176
     1
  0
VISUALSTYLE
  5
2B
102
{ACAD_REACTORS
330
2A
102
}
330
2A
100
AcDbVisualStyle
  2
Flat
 70
     0
177
     3
291
     1
 70
    58
 90
        2
176
     1
 90
        1
176
     1
 90
        1
176
     1
 90
        2
176
     1
 40
0.6
176
     1
 40
30.0
176
     1
 62
     7
420
 16777215
176
     1
 90
        0
176
     1
 90
        0
176
     1
 62
     7
176
     1
 62
   257
176
     1
 90
        1
176
     1
 90
        1
176
     1
 40
1.0
176
     1
 90
        8
176
     1
 62
     7
176
     1
 40
1.0
176
     1
 90
        1
176
     1
 90
        6
176
     1
 90
        2
176
     1
 62
     7
176
     1
 90
        5
176
     1
 90
        0
176
     1
 90
        0
176
     1
290
     0
176
     1
 90
       13
176
     1
 40
0.0
176
     1
 90
        0
176
     1
290
     0
176
     1
290
     1
176
     1
290
     1
176
     1
290
     0
176
     1
290
     0
176
     1
290
     0
176
     1
290
     0
176
     1
290
     0
176
     1
290
     0
176
     1
 90
       50
176
     1
 40
0.0
176
     1
 40
1.0
176
     1
 90
        0
176
     1
 62
    18
420
        0
176
     1
 90
       50
176
     1
 90
        3
176
     1
 62
     5
420
      255
176
     1
290
     0
176
     1
 90
       50
176
     1
 90
       50
176
     1
 90
       50
176
     1
290
     0
176
     1
 90
       50
176
     1
 62
   256
176
     0
 40
1.0
176
     0
 90
        2
176
     1
  1
strokes_ogs.tif
176
     1
290
     0
176
     1
 40
1.0
176
     1
 40
1.0
176
     1
  0
VISUALSTYLE
  5
2C
102
{ACAD_REACTORS
330
2A
102
}
330
2A
100
AcDbVisualStyle
  2
FlatWithEdges
 70
     1
177
     3
291
     1
 70
    58
 90
        2
176
     1
 90
        1
176
     1
 90
        1
176
     1
 90
        2
176
     1
 40
0.6
176
     1
 40
30.0
176
     1
 62
     7
420
 16777215
176
     1
 90
        1
176
     1
 90
        0
176
     1
 62
     7
176
     1
 62
   257
176
     1
 90
        1
176
     1
 90
        1
176
     1
 40
1.0
176
     1
 90
        0
176
     1
 62
   257
176
     1
 40
1.0
176
     1
 90
        1
176
     1
 90
        6
176
     1
 90
        2
176
     1
 62
     7
176
     1
 90
        5
176
     1
 90
        0
176
     1
 90
        0
176
     1
290
     0
176
     1
 90
       13
176
     1
 40
0.0
176
     1
 90
        0
176
     1
290
     0
176
     1
290
     1
176
     1
290
     1
176
     1
290
     0
176
     1
290
     0
176
     1
290
     0
176
     1
290
     0
176
     1
290
     0
176
     1
290
     0
176
     1
 90
       50
176
     1
 40
0.0
176
     1
 40
1.0
176
     1
 90
        0
176
     1
 62
    18
420
        0
176
     1
 90
       50
176
     1
 90
        3
176
     1
 62
     5
420
      255
176
     1
290
     0
176
     1
 90
       50
176
     1
 90
       50
176
     1
 90
       50
176
     1
290
     0
176
     1
 90
       50
176
     1
 62
   256
176
     0
 40
1.0
176
     0
 90
        2
176
     1
  1
strokes_ogs.tif
176
     1
290
     0
176
     1
 40
1.0
176
     1
 40
1.0
176
     1
  0
VISUALSTYLE
  5
2D
102
{ACAD_REACTORS
330
2A
102
}
330
2A
100
AcDbVisualStyle
  2
Gouraud
 70
     2
177
     3
291
     1
 70
    58
 90
        2
176
     1
 90
        2
176
     1
 90
        1
176
     1
 90
        2
176
     1
 40
0.6
176
     1
 40
30.0
176
     1
 62
     7
420
 16777215
176
     1
 90
        0
176
     1
 90
        0
176
     1
 62
     7
176
     1
 62
   257
176
     1
 90
        1
176
     1
 90
        1
176
     1
 40
1.0
176
     1
 90
        0
176
     1
 62
     7
176
     1
 40
1.0
176
     1
 90
        1
176
     1
 90
        6
176
     1
 90
        2
176
     1
 62
     7
176
     1
 90
        5
176
     1
 90
        0
176
     1
 90
        0
176
     1
290
     0
176
     1
 90
       13
176
     1
 40
0.0
176
     1
 90
        0
176
     1
290
     0
176
     1
290
     1
176
     1
290
     1
176
     1
290
     0
176
     1
290
     0
176
     1
290
     0
176
     1
290
     0
176
     1
290
     0
176
     1
290
     0
176
     1
 90
       50
176
     1
 40
0.0
176
     1
 40
1.0
176
     1
 90
        0
176
     1
 62
    18
420
        0
176
     1
 90
       50
176
     1
 90
        3
176
     1
 62
     5
420
      255
176
     1
290
     0
176
     1
 90
       50
176
     1
 90
       50
176
     1
 90
       50
176
     1
290
     0
176
     1
 90
       50
176
     1
 62
   256
176
     0
 40
1.0
176
     0
 90
        2
176
     1
  1
strokes_ogs.tif
176
     1
290
     0
176
     1
 40
1.0
176
     1
 40
1.0
176
     1
  0
VISUALSTYLE
  5
2E
102
{ACAD_REACTORS
330
2A
102
}
330
2A
100
AcDbVisualStyle
  2
GouraudWithEdges
 70
     3
177
     3
291
     1
 70
    58
 90
        2
176
     1
 90
        2
176
     1
 90
        1
176
     1
 90
        2
176
     1
 40
0.6
176
     1
 40
30.0
176
     1
 62
     7
420
 16777215
176
     1
 90
        1
176
     1
 90
        0
176
     1
 62
     7
176
     1
 62
   257
176
     1
 90
        1
176
     1
 90
        1
176
     1
 40
1.0
176
     1
 90
        0
176
     1
 62
   257
176
     1
 40
1.0
176
     1
 90
        1
176
     1
 90
        6
176
     1
 90
        2
176
     1
 62
     7
176
     1
 90
        5
176
     1
 90
        0
176
     1
 90
        0
176
     1
290
     0
176
     1
 90
       13
176
     1
 40
0.0
176
     1
 90
        0
176
     1
290
     0
176
     1
290
     1
176
     1
290
     1
176
     1
290
     0
176
     1
290
     0
176
     1
290
     0
176
     1
290
     0
176
     1
290
     0
176
     1
290
     0
176
     1
 90
       50
176
     1
 40
0.0
176
     1
 40
1.0
176
     1
 90
        0
176
     1
 62
    18
420
        0
176
     1
 90
       50
176
     1
 90
        3
176
     1
 62
     5
420
      255
176
     1
290
     0
176
     1
 90
       50
176
     1
 90
       50
176
     1
 90
       50
176
     1
290
     0
176
     1
 90
       50
176
     1
 62
   256
176
     0
 40
1.0
176
     0
 90
        2
176
     1
  1
strokes_ogs.tif
176
     1
290
     0
176
     1
 40
1.0
176
     1
 40
1.0
176
     1
  0
VISUALSTYLE
  5
31
102
{ACAD_REACTORS
330
2A
102
}
330
2A
100
AcDbVisualStyle
  2
Hidden
 70
     6
177
     3
291
     0
 70
    58
 90
        1
176
     1
 90
        2
176
     1
 90
        2
176
     1
 90
        0
176
     1
 40
0.6
176
     1
 40
30.0
176
     1
 62
     7
420
 16777215
176
     1
 90
        2
176
     1
 90
        2
176
     1
 62
     7
176
     1
 62
   257
176
     1
 90
        2
176
     1
 90
        1
176
     1
 40
40.0
176
     1
 90
        0
176
     1
 62
   257
176
     1
 40
1.0
176
     1
 90
        1
176
     1
 90
        6
176
     1
 90
        2
176
     1
 62
     7
176
     1
 90
        3
176
     1
 90
        0
176
     1
 90
        0
176
     1
290
     0
176
     1
 90
        1
176
     1
 40
0.0
176
     1
 90
        0
176
     1
290
     0
176
     1
290
     1
176
     1
290
     1
176
     1
290
     0
176
     1
290
     0
176
     1
290
     0
176
     1
290
     0
176
     1
290
     0
176
     1
290
     0
176
     1
 90
       50
176
     1
 40
0.0
176
     1
 40
1.0
176
     1
 90
        0
176
     1
 62
    18
420
        0
176
     1
 90
       50
176
     1
 90
        3
176
     1
 62
     5
420
      255
176
     1
290
     0
176
     1
 90
       50
176
     1
 90
       50
176
     1
 90
       50
176
     1
290
     0
176
     1
 90
       50
176
     1
 62
   256
176
     0
 40
1.0
176
     0
 90
        2
176
     1
  1
strokes_ogs.tif
176
     1
290
     0
176
     1
 40
1.0
176
     1
 40
1.0
176
     1
  0
VISUALSTYLE
  5
3B
102
{ACAD_REACTORS
330
2A
102
}
330
2A
100
AcDbVisualStyle
  2
JitterOff
 70
    20
177
     3
291
     1
 70
    58
 90
        2
176
     0
 90
        2
176
     0
 90
        0
176
     0
 90
        0
176
     0
 40
0.6
176
     0
 40
30.0
176
     0
 62
     7
420
 16777215
176
     0
 90
        1
176
     0
 90
        4
176
     0
 62
     7
176
     0
 62
   257
176
     0
 90
        1
176
     0
 90
        1
176
     0
 40
1.0
176
     0
 90
       10
176
     2
 62
     7
176
     0
 40
1.0
176
     0
 90
        1
176
     0
 90
        6
176
     0
 90
        2
176
     0
 62
     7
176
     0
 90
        5
176
     0
 90
        0
176
     0
 90
        0
176
     0
290
     0
176
     0
 90
        1
176
     0
 40
0.0
176
     0
 90
        0
176
     0
290
     0
176
     0
290
     1
176
     0
290
     1
176
     0
290
     0
176
     0
290
     0
176
     0
290
     0
176
     0
290
     0
176
     0
290
     0
176
     0
290
     0
176
     0
 90
       50
176
     0
 40
0.0
176
     0
 40
1.0
176
     0
 90
        0
176
     0
 62
    18
420
        0
176
     0
 90
       50
176
     0
 90
        3
176
     0
 62
     5
420
      255
176
     0
290
     0
176
     0
 90
       50
176
     0
 90
       50
176
     0
 90
       50
176
     0
290
     0
176
     0
 90
       50
176
     0
 62
   256
176
     0
 40
1.0
176
     0
 90
        2
176
     0
  1
strokes_ogs.tif
176
     0
290
     0
176
     0
 40
1.0
176
     0
 40
1.0
176
     0
  0
VISUALSTYLE
  5
38
102
{ACAD_REACTORS
330
2A
102
}
330
2A
100
AcDbVisualStyle
  2
Linepattern
 70
    14
177
     3
291
     1
 70
    58
 90
        2
176
     1
 90
        2
176
     1
 90
        0
176
     1
 90
        0
176
     1
 40
0.6
176
     1
 40
30.0
176
     1
 62
     7
420
 16777215
176
     1
 90
        1
176
     1
 90
        4
176
     1
 62
     7
176
     1
 62
   257
176
     1
 90
        7
176
     1
 90
        7
176
     1
 40
1.0
176
     1
 90
        8
176
     1
 62
     7
176
     1
 40
1.0
176
     1
 90
        1
176
     1
 90
        6
176
     1
 90
        2
176
     1
 62
     7
176
     1
 90
        5
176
     1
 90
        0
176
     1
 90
        0
176
     1
290
     0
176
     1
 90
        1
176
     1
 40
0.0
176
     1
 90
        0
176
     1
290
     0
176
     1
290
     1
176
     1
290
     1
176
     1
290
     0
176
     1
290
     0
176
     1
290
     0
176
     1
290
     0
176
     1
290
     0
176
     1
290
     0
176
     1
 90
       50
176
     1
 40
0.0
176
     1
 40
1.0
176
     1
 90
        0
176
     1
 62
    18
420
        0
176
     1
 90
       50
176
     1
 90
        3
176
     1
 62
     5
420
      255
176
     1
290
     0
176
     1
 90
       50
176
     1
 90
       50
176
     1
 90
       50
176
     1
290
     0
176
     1
 90
       50
176
     1
 62
   256
176
     0
 40
1.0
176
     0
 90
        2
176
     1
  1
strokes_ogs.tif
176
     1
290
     0
176
     1
 40
1.0
176
     1
 40
1.0
176
     1
  0
VISUALSTYLE
  5
3C
102
{ACAD_REACTORS
330
2A
102
}
330
2A
100
AcDbVisualStyle
  2
OverhangOff
 70
    21
177
     3
291
     1
 70
    58
 90
        2
176
     0
 90
        2
176
     0
 90
        0
176
     0
 90
        0
176
     0
 40
0.6
176
     0
 40
30.0
176
     0
 62
     7
420
 16777215
176
     0
 90
        1
176
     0
 90
        4
176
     0
 62
     7
176
     0
 62
   257
176
     0
 90
        1
176
     0
 90
        1
176
     0
 40
1.0
176
     0
 90
        9
176
     2
 62
     7
176
     0
 40
1.0
176
     0
 90
        1
176
     0
 90
        6
176
     0
 90
        2
176
     0
 62
     7
176
     0
 90
        5
176
     0
 90
        0
176
     0
 90
        0
176
     0
290
     0
176
     0
 90
        1
176
     0
 40
0.0
176
     0
 90
        0
176
     0
290
     0
176
     0
290
     1
176
     0
290
     1
176
     0
290
     0
176
     0
290
     0
176
     0
290
     0
176
     0
290
     0
176
     0
290
     0
176
     0
290
     0
176
     0
 90
       50
176
     0
 40
0.0
176
     0
 40
1.0
176
     0
 90
        0
176
     0
 62
    18
420
        0
176
     0
 90
       50
176
     0
 90
        3
176
     0
 62
     5
420
      255
176
     0
290
     0
176
     0
 90
       50
176
     0
 90
       50
176
     0
 90
       50
176
     0
290
     0
176
     0
 90
       50
176
     0
 62
   256
176
     0
 40
1.0
176
     0
 90
        2
176
     0
  1
strokes_ogs.tif
176
     0
290
     0
176
     0
 40
1.0
176
     0
 40
1.0
176
     0
  0
VISUALSTYLE
  5
33
102
{ACAD_REACTORS
330
2A
102
}
330
2A
100
AcDbVisualStyle
  2
Realistic
 70
     8
177
     3
291
     0
 70
    58
 90
        2
176
     1
 90
        3
176
     1
 90
        0
176
     1
 90
        2
176
     1
 40
0.6
176
     1
 40
30.0
176
     1
 62
     7
420
 16777215
176
     1
 90
        0
176
     1
 90
        0
176
     1
 62
     7
176
     1
 62
   257
176
     1
 90
        1
176
     1
 90
        1
176
     1
 40
1.0
176
     1
 90
        8
176
     1
 62
   257
176
     1
 40
1.0
176
     1
 90
        1
176
     1
 90
        6
176
     1
 90
        2
176
     1
 62
     7
176
     1
 90
        3
176
     1
 90
        0
176
     1
 90
        0
176
     1
290
     0
176
     1
 90
       13
176
     1
 40
0.0
176
     1
 90
        0
176
     1
290
     0
176
     1
290
     1
176
     1
290
     1
176
     1
290
     0
176
     1
290
     0
176
     1
290
     0
176
     1
290
     0
176
     1
290
     0
176
     1
290
     0
176
     1
 90
       50
176
     1
 40
0.0
176
     1
 40
1.0
176
     1
 90
        0
176
     1
 62
    18
420
        0
176
     1
 90
       50
176
     1
 90
        3
176
     1
 62
     5
420
      255
176
     1
290
     0
176
     1
 90
       50
176
     1
 90
       50
176
     1
 90
       50
176
     1
290
     0
176
     1
 90
       50
176
     1
 62
   256
176
     0
 40
1.0
176
     0
 90
        2
176
     1
  1
strokes_ogs.tif
176
     1
290
     0
176
     1
 40
1.0
176
     1
 40
1.0
176
     1
  0
VISUALSTYLE
  5
42
102
{ACAD_REACTORS
330
2A
102
}
330
2A
100
AcDbVisualStyle
  2
Shaded
 70
    27
177
     3
291
     0
 70
    58
 90
        2
176
     1
 90
        2
176
     1
 90
        1
176
     1
 90
        2
176
     1
 40
0.6
176
     1
 40
30.0
176
     1
 62
     7
420
 16777215
176
     1
 90
        0
176
     1
 90
        4
176
     1
 62
     7
176
     1
 62
   257
176
     1
 90
        1
176
     1
 90
        1
176
     1
 40
1.0
176
     1
 90
        8
176
     1
 62
   257
176
     1
 40
1.0
176
     1
 90
        1
176
     1
 90
        6
176
     1
 90
        2
176
     1
 62
     8
420
  7895160
176
     1
 90
        3
176
     1
 90
        0
176
     1
 90
        0
176
     1
290
     0
176
     1
 90
        5
176
     1
 40
0.0
176
     1
 90
        0
176
     1
290
     0
176
     1
290
     1
176
     1
290
     1
176
     1
290
     0
176
     1
290
     0
176
     1
290
     0
176
     1
290
     0
176
     1
290
     0
176
     1
290
     0
176
     1
 90
       50
176
     1
 40
0.0
176
     1
 40
1.0
176
     1
 90
        0
176
     1
 62
    18
420
        0
176
     1
 90
       50
176
     1
 90
        3
176
     1
 62
     5
420
      255
176
     1
290
     0
176
     1
 90
       50
176
     1
 90
       50
176
     1
 90
       50
176
     1
290
     0
176
     1
 90
       50
176
     1
 62
   256
176
     0
 40
1.0
176
     0
 90
        2
176
     1
  1
strokes_ogs.tif
176
     1
290
     0
176
     1
 40
1.0
176
     1
 40
1.0
176
     1
  0
VISUALSTYLE
  5
41
102
{ACAD_REACTORS
330
2A
102
}
330
2A
100
AcDbVisualStyle
  2
Shaded with edges
 70
    26
177
     3
291
     0
 70
    58
 90
        2
176
     1
 90
        2
176
     1
 90
        1
176
     1
 90
        2
176
     1
 40
0.6
176
     1
 40
30.0
176
     1
 62
     7
420
 16777215
176
     1
 90
        1
176
     1
 90
       10
176
     1
 62
     7
176
     1
 62
   257
176
     1
 90
        2
176
     1
 90
        1
176
     1
 40
1.0
176
     1
 90
        8
176
     1
 62
   257
176
     1
 40
1.0
176
     1
 90
        1
176
     1
 90
        6
176
     1
 90
        2
176
     1
 62
     7
176
     1
 90
        3
176
     1
 90
        0
176
     1
 90
        0
176
     1
290
     0
176
     1
 90
        5
176
     1
 40
0.0
176
     1
 90
        0
176
     1
290
     0
176
     1
290
     1
176
     1
290
     1
176
     1
290
     0
176
     1
290
     0
176
     1
290
     0
176
     1
290
     0
176
     1
290
     0
176
     1
290
     0
176
     1
 90
       50
176
     1
 40
0.0
176
     1
 40
1.0
176
     1
 90
        0
176
     1
 62
    18
420
        0
176
     1
 90
       50
176
     1
 90
        3
176
     1
 62
     5
420
      255
176
     1
290
     0
176
     1
 90
       50
176
     1
 90
       50
176
     1
 90
       50
176
     1
290
     0
176
     1
 90
       50
176
     1
 62
   256
176
     0
 40
1.0
176
     0
 90
        2
176
     1
  1
strokes_ogs.tif
176
     1
290
     0
176
     1
 40
1.0
176
     1
 40
1.0
176
     1
  0
VISUALSTYLE
  5
3E
102
{ACAD_REACTORS
330
2A
102
}
330
2A
100
AcDbVisualStyle
  2
Shades of Gray
 70
    23
177
     3
291
     0
 70
    58
 90
        2
176
     1
 90
        2
176
     1
 90
        3
176
     1
 90
        0
176
     1
 40
0.6
176
     1
 40
30.0
176
     1
 62
     7
420
 16777215
176
     1
 90
        2
176
     1
 90
        2
176
     1
 62
     7
176
     1
 62
     7
176
     1
 90
        1
176
     1
 90
        1
176
     1
 40
40.0
176
     1
 90
        8
176
     1
 62
     7
176
     1
 40
1.0
176
     1
 90
        1
176
     1
 90
        6
176
     1
 90
        2
176
     1
 62
     7
176
     1
 90
        3
176
     1
 90
        0
176
     1
 90
        0
176
     1
290
     0
176
     1
 90
        1
176
     1
 40
0.0
176
     1
 90
        0
176
     1
290
     0
176
     1
290
     1
176
     1
290
     1
176
     1
290
     0
176
     1
290
     0
176
     1
290
     0
176
     1
290
     0
176
     1
290
     0
176
     1
290
     0
176
     1
 90
       50
176
     1
 40
0.0
176
     1
 40
1.0
176
     1
 90
        0
176
     1
 62
    18
420
        0
176
     1
 90
       50
176
     1
 90
        3
176
     1
 62
     5
420
      255
176
     1
290
     0
176
     1
 90
       50
176
     1
 90
       50
176
     1
 90
       50
176
     1
290
     0
176
     1
 90
       50
176
     1
 62
   256
176
     0
 40
1.0
176
     0
 90
        2
176
     1
  1
strokes_ogs.tif
176
     1
290
     0
176
     1
 40
1.0
176
     1
 40
1.0
176
     1
  0
VISUALSTYLE
  5
3F
102
{ACAD_REACTORS
330
2A
102
}
330
2A
100
AcDbVisualStyle
  2
Sketchy
 70
    24
177
     3
291
     0
 70
    58
 90
        1
176
     1
 90
        2
176
     1
 90
        2
176
     1
 90
        0
176
     1
 40
0.6
176
     1
 40
30.0
176
     1
 62
     7
420
 16777215
176
     1
 90
        2
176
     1
 90
        2
176
     1
 62
     7
176
     1
 62
     7
176
     1
 90
        1
176
     1
 90
        1
176
     1
 40
40.0
176
     1
 90
       11
176
     1
 62
     7
176
     1
 40
1.0
176
     1
 90
        1
176
     1
 90
        6
176
     1
 90
        2
176
     1
 62
     7
176
     1
 90
        6
176
     1
 90
        0
176
     1
 90
        0
176
     1
290
     0
176
     1
 90
        1
176
     1
 40
0.0
176
     1
 90
        0
176
     1
290
     0
176
     1
290
     1
176
     1
290
     1
176
     1
290
     0
176
     1
290
     0
176
     1
290
     0
176
     1
290
     0
176
     1
290
     0
176
     1
290
     0
176
     1
 90
       50
176
     1
 40
0.0
176
     1
 40
1.0
176
     1
 90
        0
176
     1
 62
    18
420
        0
176
     1
 90
       50
176
     1
 90
        3
176
     1
 62
     5
420
      255
176
     1
290
     0
176
     1
 90
       50
176
     1
 90
       50
176
     1
 90
       50
176
     1
290
     0
176
     1
 90
       50
176
     1
 62
   256
176
     0
 40
1.0
176
     0
 90
        2
176
     1
  1
strokes_ogs.tif
176
     1
290
     0
176
     1
 40
1.0
176
     1
 40
1.0
176
     1
  0
VISUALSTYLE
  5
37
102
{ACAD_REACTORS
330
2A
102
}
330
2A
100
AcDbVisualStyle
  2
Thicken
 70
    13
177
     3
291
     1
 70
    58
 90
        2
176
     1
 90
        2
176
     1
 90
        0
176
     1
 90
        0
176
     1
 40
0.6
176
     1
 40
30.0
176
     1
 62
     7
420
 16777215
176
     1
 90
        1
176
     1
 90
        4
176
     1
 62
     7
176
     1
 62
   257
176
     1
 90
        1
176
     1
 90
        1
176
     1
 40
1.0
176
     1
 90
       12
176
     1
 62
     7
176
     1
 40
1.0
176
     1
 90
        1
176
     1
 90
        6
176
     1
 90
        2
176
     1
 62
     7
176
     1
 90
        5
176
     1
 90
        0
176
     1
 90
        0
176
     1
290
     0
176
     1
 90
        1
176
     1
 40
0.0
176
     1
 90
        0
176
     1
290
     0
176
     1
290
     1
176
     1
290
     1
176
     1
290
     0
176
     1
290
     0
176
     1
290
     0
176
     1
290
     0
176
     1
290
     0
176
     1
290
     0
176
     1
 90
       50
176
     1
 40
0.0
176
     1
 40
1.0
176
     1
 90
        0
176
     1
 62
    18
420
        0
176
     1
 90
       50
176
     1
 90
        3
176
     1
 62
     5
420
      255
176
     1
290
     0
176
     1
 90
       50
176
     1
 90
       50
176
     1
 90
       50
176
     1
290
     0
176
     1
 90
       50
176
     1
 62
   256
176
     0
 40
1.0
176
     0
 90
        2
176
     1
  1
strokes_ogs.tif
176
     1
290
     0
176
     1
 40
1.0
176
     1
 40
1.0
176
     1
  0
VISUALSTYLE
  5
30
102
{ACAD_REACTORS
330
2A
102
}
330
2A
100
AcDbVisualStyle
  2
Wireframe
 70
     5
177
     3
291
     0
 70
    58
 90
        0
176
     1
 90
        2
176
     1
 90
        0
176
     1
 90
        0
176
     1
 40
0.6
176
     1
 40
30.0
176
     1
 62
     7
420
 16777215
176
     1
 90
        1
176
     1
 90
        4
176
     1
 62
     7
176
     1
 62
   257
176
     1
 90
        1
176
     1
 90
        1
176
     1
 40
1.0
176
     1
 90
        0
176
     1
 62
   257
176
     1
 40
1.0
176
     1
 90
        1
176
     1
 90
        6
176
     1
 90
        2
176
     1
 62
     7
176
     1
 90
        3
176
     1
 90
        0
176
     1
 90
        0
176
     1
290
     0
176
     1
 90
        1
176
     1
 40
0.0
176
     1
 90
        0
176
     1
290
     0
176
     1
290
     1
176
     1
290
     1
176
     1
290
     0
176
     1
290
     0
176
     1
290
     0
176
     1
290
     0
176
     1
290
     0
176
     1
290
     0
176
     1
 90
       50
176
     1
 40
0.0
176
     1
 40
1.0
176
     1
 90
        0
176
     1
 62
    18
420
        0
176
     1
 90
       50
176
     1
 90
        3
176
     1
 62
     5
420
      255
176
     1
290
     0
176
     1
 90
       50
176
     1
 90
       50
176
     1
 90
       50
176
     1
290
     0
176
     1
 90
       50
176
     1
 62
   256
176
     0
 40
1.0
176
     0
 90
        2
176
     1
  1
strokes_ogs.tif
176
     1
290
     0
176
     1
 40
1.0
176
     1
 40
1.0
176
     1
  0
VISUALSTYLE
  5
40
102
{ACAD_REACTORS
330
2A
102
}
330
2A
100
AcDbVisualStyle
  2
X-Ray
 70
    25
177
     3
291
     0
 70
    58
 90
        2
176
     1
 90
        2
176
     1
 90
        1
176
     1
 90
        1
176
     1
 40
0.5
176
     1
 40
30.0
176
     1
 62
     7
420
 16777215
176
     1
 90
        1
176
     1
 90
        0
176
     1
 62
     7
176
     1
 62
   257
176
     1
 90
        1
176
     1
 90
        1
176
     1
 40
1.0
176
     1
 90
        8
176
     1
 62
     7
176
     1
 40
1.0
176
     1
 90
        1
176
     1
 90
        6
176
     1
 90
        2
176
     1
 62
     7
176
     1
 90
        3
176
     1
 90
        0
176
     1
 90
        0
176
     1
290
     0
176
     1
 90
       13
176
     1
 40
0.0
176
     1
 90
        0
176
     1
290
     0
176
     1
290
     1
176
     1
290
     1
176
     1
290
     0
176
     1
290
     0
176
     1
290
     0
176
     1
290
     0
176
     1
290
     0
176
     1
290
     0
176
     1
 90
       50
176
     1
 40
0.0
176
     1
 40
1.0
176
     1
 90
        0
176
     1
 62
    18
420
        0
176
     1
 90
       50
176
     1
 90
        3
176
     1
 62
     5
420
      255
176
     1
290
     0
176
     1
 90
       50
176
     1
 90
       50
176
     1
 90
       50
176
     1
290
     0
176
     1
 90
       50
176
     1
 62
   256
176
     0
 40
1.0
176
     0
 90
        2
176
     1
  1
strokes_ogs.tif
176
     1
290
     0
176
     1
 40
1.0
176
     1
 40
1.0
176
     1
  0
DICTIONARYVAR
  5
7C
102
{ACAD_REACTORS
330
7B
102
}
330
7B
100
DictionaryVariables
280
     0
  1
1:1
  0
DICTIONARYVAR
  5
81
102
{ACAD_REACTORS
330
7B
102
}
330
7B
100
DictionaryVariables
280
     0
  1
Standard
  0
DICTIONARYVAR
  5
80
102
{ACAD_REACTORS
330
7B
102
}
330
7B
100
DictionaryVariables
280
     0
  1
Standard
  0
DICTIONARY
  5
7D
330
5A
100
AcDbDictionary
280
     1
281
     1
  3
ACAD_ROUNDTRIP_2008_TABLESTYLE_CELLSTYLEMAP
360
7E
  0
CELLSTYLEMAP
  5
7E
102
{ACAD_REACTORS
330
7D
102
}
330
7D
100
AcDbCellStyleMap
 90
        3
300
CELLSTYLE
  1
TABLEFORMAT_BEGIN
 90
        5
170
     1
 91
        0
 92
    32768
 62
   257
 93
        1
300
CONTENTFORMAT
  1
CONTENTFORMAT_BEGIN
 90
        0
 91
        0
 92
        4
 93
        0
300

 40
0.0
140
1.0
 94
        5
 62
     0
340
11
144
0.25
309
CONTENTFORMAT_END
171
     1
301
MARGIN
  1
CELLMARGIN_BEGIN
 40
0.06
 40
0.06
 40
0.06
 40
0.06
 40
0.06
 40
0.06
309
CELLMARGIN_END
 94
        6
 95
        1
302
GRIDFORMAT
  1
GRIDFORMAT_BEGIN
 90
        0
 91
        1
 62
     0
 92
       -2
340
14
 93
        0
 40
0.045
309
GRIDFORMAT_END
 95
        2
302
GRIDFORMAT
  1
GRIDFORMAT_BEGIN
 90
        0
 91
        1
 62
     0
 92
       -2
340
14
 93
        0
 40
0.045
309
GRIDFORMAT_END
 95
        4
302
GRIDFORMAT
  1
GRIDFORMAT_BEGIN
 90
        0
 91
        1
 62
     0
 92
       -2
340
14
 93
        0
 40
0.045
309
GRIDFORMAT_END
 95
        8
302
GRIDFORMAT
  1
GRIDFORMAT_BEGIN
 90
        0
 91
        1
 62
     0
 92
       -2
340
14
 93
        0
 40
0.045
309
GRIDFORMAT_END
 95
       16
302
GRIDFORMAT
  1
GRIDFORMAT_BEGIN
 90
        0
 91
        1
 62
     0
 92
       -2
340
14
 93
        0
 40
0.045
309
GRIDFORMAT_END
 95
       32
302
GRIDFORMAT
  1
GRIDFORMAT_BEGIN
 90
        0
 91
        1
 62
     0
 92
       -2
340
14
 93
        0
 40
0.045
309
GRIDFORMAT_END
309
TABLEFORMAT_END
  1
CELLSTYLE_BEGIN
 90
        1
 91
        1
300
_TITLE
309
CELLSTYLE_END
300
CELLSTYLE
  1
TABLEFORMAT_BEGIN
 90
        5
170
     1
 91
        0
 92
        0
 62
   257
 93
        1
300
CONTENTFORMAT
  1
CONTENTFORMAT_BEGIN
 90
        0
 91
        0
 92
        4
 93
        0
300

 40
0.0
140
1.0
 94
        5
 62
     0
340
11
144
0.18
309
CONTENTFORMAT_END
171
     1
301
MARGIN
  1
CELLMARGIN_BEGIN
 40
0.06
 40
0.06
 40
0.06
 40
0.06
 40
0.06
 40
0.06
309
CELLMARGIN_END
 94
        6
 95
        1
302
GRIDFORMAT
  1
GRIDFORMAT_BEGIN
 90
        0
 91
        1
 62
     0
 92
       -2
340
14
 93
        0
 40
0.045
309
GRIDFORMAT_END
 95
        2
302
GRIDFORMAT
  1
GRIDFORMAT_BEGIN
 90
        0
 91
        1
 62
     0
 92
       -2
340
14
 93
        0
 40
0.045
309
GRIDFORMAT_END
 95
        4
302
GRIDFORMAT
  1
GRIDFORMAT_BEGIN
 90
        0
 91
        1
 62
     0
 92
       -2
340
14
 93
        0
 40
0.045
309
GRIDFORMAT_END
 95
        8
302
GRIDFORMAT
  1
GRIDFORMAT_BEGIN
 90
        0
 91
        1
 62
     0
 92
       -2
340
14
 93
        0
 40
0.045
309
GRIDFORMAT_END
 95
       16
302
GRIDFORMAT
  1
GRIDFORMAT_BEGIN
 90
        0
 91
        1
 62
     0
 92
       -2
340
14
 93
        0
 40
0.045
309
GRIDFORMAT_END
 95
       32
302
GRIDFORMAT
  1
GRIDFORMAT_BEGIN
 90
        0
 91
        1
 62
     0
 92
       -2
340
14
 93
        0
 40
0.045
309
GRIDFORMAT_END
309
TABLEFORMAT_END
  1
CELLSTYLE_BEGIN
 90
        2
 91
        1
300
_HEADER
309
CELLSTYLE_END
300
CELLSTYLE
  1
TABLEFORMAT_BEGIN
 90
        5
170
     1
 91
        0
 92
        0
 62
   257
 93
        1
300
CONTENTFORMAT
  1
CONTENTFORMAT_BEGIN
 90
        0
 91
        0
 92
        4
 93
        0
300

 40
0.0
140
1.0
 94
        2
 62
     0
340
11
144
0.18
309
CONTENTFORMAT_END
171
     1
301
MARGIN
  1
CELLMARGIN_BEGIN
 40
0.06
 40
0.06
 40
0.06
 40
0.06
 40
0.06
 40
0.06
309
CELLMARGIN_END
 94
        6
 95
        1
302
GRIDFORMAT
  1
GRIDFORMAT_BEGIN
 90
        0
 91
        1
 62
     0
 92
       -2
340
14
 93
        0
 40
0.045
309
GRIDFORMAT_END
 95
        2
302
GRIDFORMAT
  1
GRIDFORMAT_BEGIN
 90
        0
 91
        1
 62
     0
 92
       -2
340
14
 93
        0
 40
0.045
309
GRIDFORMAT_END
 95
        4
302
GRIDFORMAT
  1
GRIDFORMAT_BEGIN
 90
        0
 91
        1
 62
     0
 92
       -2
340
14
 93
        0
 40
0.045
309
GRIDFORMAT_END
 95
        8
302
GRIDFORMAT
  1
GRIDFORMAT_BEGIN
 90
        0
 91
        1
 62
     0
 92
       -2
340
14
 93
        0
 40
0.045
309
GRIDFORMAT_END
 95
       16
302
GRIDFORMAT
  1
GRIDFORMAT_BEGIN
 90
        0
 91
        1
 62
     0
 92
       -2
340
14
 93
        0
 40
0.045
309
GRIDFORMAT_END
 95
       32
302
GRIDFORMAT
  1
GRIDFORMAT_BEGIN
 90
        0
 91
        1
 62
     0
 92
       -2
340
14
 93
        0
 40
0.045
309
GRIDFORMAT_END
309
TABLEFORMAT_END
  1
CELLSTYLE_BEGIN
 90
        3
 91
        2
300
_DATA
309
CELLSTYLE_END
  0
ENDSEC
  0
EOF
