  0
SECTION
  2
HEADER
  9
$ACADVER
  1
AC1032
  9
$ACADMAINTVER
 90
       55
  9
$DWGCODEPAGE
  3
ANSI_1252
  9
$LASTSAVEDBY
  1
LYI-002
  9
$REQUIREDVERSIONS
160
                 0
  9
$INSBASE
 10
0.0
 20
0.0
 30
0.0
  9
$EXTMIN
 10
-1200.055
 20
-590.0316
 30
0.0
  9
$EXTMAX
 10
1199.955
 20
589.9784
 30
0.0
  9
$LIMMIN
 10
0.0
 20
0.0
  9
$LIMMAX
 10
12.0
 20
9.0
  9
$ORTHOMODE
 70
     0
  9
$REGENMODE
 70
     1
  9
$FILLMODE
 70
     1
  9
$QTEXTMODE
 70
     0
  9
$MIRRTEXT
 70
     1
  9
$LTSCALE
 40
1.0
  9
$ATTMODE
 70
     1
  9
$TEXTSIZE
 40
0.2
  9
$TRACEWID
 40
0.05
  9
$TEXTSTYLE
  7
Standard
  9
$CLAYER
  8
0
  9
$CELTYPE
  6
ByLayer
  9
$CECOLOR
 62
   256
  9
$CELTSCALE
 40
1.0
  9
$DISPSILH
 70
     0
  9
$DIMSCALE
 40
1.0
  9
$DIMASZ
 40
0.18
  9
$DIMEXO
 40
0.0625
  9
$DIMDLI
 40
0.38
  9
$DIMRND
 40
0.0
  9
$DIMDLE
 40
0.0
  9
$DIMEXE
 40
0.18
  9
$DIMTP
 40
0.0
  9
$DIMTM
 40
0.0
  9
$DIMTXT
 40
0.18
  9
$DIMCEN
 40
0.09
  9
$DIMTSZ
 40
0.0
  9
$DIMTOL
 70
     0
  9
$DIMLIM
 70
     0
  9
$DIMTIH
 70
     1
  9
$DIMTOH
 70
     1
  9
$DIMSE1
 70
     0
  9
$DIMSE2
 70
     0
  9
$DIMTAD
 70
     0
  9
$DIMZIN
 70
     0
  9
$DIMBLK
  1

  9
$DIMASO
 70
     1
  9
$DIMSHO
 70
     1
  9
$DIMPOST
  1

  9
$DIMAPOST
  1

  9
$DIMALT
 70
     0
  9
$DIMALTD
 70
     2
  9
$DIMALTF
 40
25.4
  9
$DIMLFAC
 40
1.0
  9
$DIMTOFL
 70
     0
  9
$DIMTVP
 40
0.0
  9
$DIMTIX
 70
     0
  9
$DIMSOXD
 70
     0
  9
$DIMSAH
 70
     0
  9
$DIMBLK1
  1

  9
$DIMBLK2
  1

  9
$DIMSTYLE
  2
Standard
  9
$DIMCLRD
 70
     0
  9
$DIMCLRE
 70
     0
  9
$DIMCLRT
 70
     0
  9
$DIMTFAC
 40
1.0
  9
$DIMGAP
 40
0.09
  9
$DIMJUST
 70
     0
  9
$DIMSD1
 70
     0
  9
$DIMSD2
 70
     0
  9
$DIMTOLJ
 70
     1
  9
$DIMTZIN
 70
     0
  9
$DIMALTZ
 70
     0
  9
$DIMALTTZ
 70
     0
  9
$DIMUPT
 70
     0
  9
$DIMDEC
 70
     4
  9
$DIMTDEC
 70
     4
  9
$DIMALTU
 70
     2
  9
$DIMALTTD
 70
     2
  9
$DIMTXSTY
  7
Standard
  9
$DIMAUNIT
 70
     0
  9
$DIMADEC
 70
     0
  9
$DIMALTRND
 40
0.0
  9
$DIMAZIN
 70
     0
  9
$DIMDSEP
 70
    46
  9
$DIMATFIT
 70
     3
  9
$DIMFRAC
 70
     0
  9
$DIMLDRBLK
  1

  9
$DIMLUNIT
 70
     2
  9
$DIMLWD
 70
    -2
  9
$DIMLWE
 70
    -2
  9
$DIMTMOVE
 70
     0
  9
$DIMFXL
 40
1.0
  9
$DIMFXLON
 70
     0
  9
$DIMJOGANG
 40
0.7853981633974483
  9
$DIMTFILL
 70
     0
  9
$DIMTFILLCLR
 70
     0
  9
$DIMARCSYM
 70
     0
  9
$DIMLTYPE
  6

  9
$DIMLTEX1
  6

  9
$DIMLTEX2
  6

  9
$DIMTXTDIRECTION
 70
     0
  9
$LUNITS
 70
     2
  9
$LUPREC
 70
     4
  9
$SKETCHINC
 40
0.1
  9
$FILLETRAD
 40
0.0
  9
$AUNITS
 70
     0
  9
$AUPREC
 70
     0
  9
$MENU
  1
.
  9
$ELEVATION
 40
0.0
  9
$PELEVATION
 40
0.0
  9
$THICKNESS
 40
0.0
  9
$LIMCHECK
 70
     0
  9
$CHAMFERA
 40
0.0
  9
$CHAMFERB
 40
0.0
  9
$CHAMFERC
 40
0.0
  9
$CHAMFERD
 40
0.0
  9
$SKPOLY
 70
     0
  9
$TDCREATE
 40
2460652.633296239
  9
$TDUCREATE
 40
2460652.404129572
  9
$TDUPDATE
 40
2460652.633296389
  9
$TDUUPDATE
 40
2460652.404129722
  9
$TDINDWG
 40
0.0000000116
  9
$TDUSRTIMER
 40
0.0000000116
  9
$USRTIMER
 70
     1
  9
$ANGBASE
 50
0.0
  9
$ANGDIR
 70
     0
  9
$PDMODE
 70
     0
  9
$PDSIZE
 40
0.0
  9
$PLINEWID
 40
0.0
  9
$SPLFRAME
 70
     0
  9
$SPLINETYPE
 70
     6
  9
$SPLINESEGS
 70
     8
  9
$HANDSEED
  5
91
  9
$SURFTAB1
 70
     6
  9
$SURFTAB2
 70
     6
  9
$SURFTYPE
 70
     6
  9
$SURFU
 70
     6
  9
$SURFV
 70
     6
  9
$UCSBASE
  2

  9
$UCSNAME
  2

  9
$UCSORG
 10
0.0
 20
0.0
 30
0.0
  9
$UCSXDIR
 10
1.0
 20
0.0
 30
0.0
  9
$UCSYDIR
 10
0.0
 20
1.0
 30
0.0
  9
$UCSORTHOREF
  2

  9
$UCSORTHOVIEW
 70
     0
  9
$UCSORGTOP
 10
0.0
 20
0.0
 30
0.0
  9
$UCSORGBOTTOM
 10
0.0
 20
0.0
 30
0.0
  9
$UCSORGLEFT
 10
0.0
 20
0.0
 30
0.0
  9
$UCSORGRIGHT
 10
0.0
 20
0.0
 30
0.0
  9
$UCSORGFRONT
 10
0.0
 20
0.0
 30
0.0
  9
$UCSORGBACK
 10
0.0
 20
0.0
 30
0.0
  9
$PUCSBASE
  2

  9
$PUCSNAME
  2

  9
$PUCSORG
 10
0.0
 20
0.0
 30
0.0
  9
$PUCSXDIR
 10
1.0
 20
0.0
 30
0.0
  9
$PUCSYDIR
 10
0.0
 20
1.0
 30
0.0
  9
$PUCSORTHOREF
  2

  9
$PUCSORTHOVIEW
 70
     0
  9
$PUCSORGTOP
 10
0.0
 20
0.0
 30
0.0
  9
$PUCSORGBOTTOM
 10
0.0
 20
0.0
 30
0.0
  9
$PUCSORGLEFT
 10
0.0
 20
0.0
 30
0.0
  9
$PUCSORGRIGHT
 10
0.0
 20
0.0
 30
0.0
  9
$PUCSORGFRONT
 10
0.0
 20
0.0
 30
0.0
  9
$PUCSORGBACK
 10
0.0
 20
0.0
 30
0.0
  9
$USERI1
 70
     0
  9
$USERI2
 70
     0
  9
$USERI3
 70
     0
  9
$USERI4
 70
     0
  9
$USERI5
 70
     0
  9
$USERR1
 40
0.0
  9
$USERR2
 40
0.0
  9
$USERR3
 40
0.0
  9
$USERR4
 40
0.0
  9
$USERR5
 40
0.0
  9
$WORLDVIEW
 70
     1
  9
$SHADEDGE
 70
     3
  9
$SHADEDIF
 70
    70
  9
$TILEMODE
 70
     1
  9
$MAXACTVP
 70
    64
  9
$PINSBASE
 10
0.0
 20
0.0
 30
0.0
  9
$PLIMCHECK
 70
     0
  9
$PEXTMIN
 10
1.000000000000000E+20
 20
1.000000000000000E+20
 30
1.000000000000000E+20
  9
$PEXTMAX
 10
-1.000000000000000E+20
 20
-1.000000000000000E+20
 30
-1.000000000000000E+20
  9
$PLIMMIN
 10
0.0
 20
0.0
  9
$PLIMMAX
 10
12.0
 20
9.0
  9
$UNITMODE
 70
     0
  9
$VISRETAIN
 70
     1
  9
$PLINEGEN
 70
     0
  9
$PSLTSCALE
 70
     1
  9
$TREEDEPTH
 70
  3020
  9
$CMLSTYLE
  2
Standard
  9
$CMLJUST
 70
     0
  9
$CMLSCALE
 40
1.0
  9
$PROXYGRAPHICS
 70
     1
  9
$MEASUREMENT
 70
     0
  9
$CELWEIGHT
370
    -1
  9
$ENDCAPS
280
     0
  9
$JOINSTYLE
280
     0
  9
$LWDISPLAY
290
     0
  9
$INSUNITS
 70
     4
  9
$HYPERLINKBASE
  1

  9
$STYLESHEET
  1

  9
$XEDIT
290
     1
  9
$CEPSNTYPE
380
     0
  9
$PSTYLEMODE
290
     1
  9
$FINGERPRINTGUID
  2
{713e1784-b437-4569-96d7-7ac92510a62e}
  9
$VERSIONGUID
  2
{FAEB1C32-E019-11D5-929B-00C0DF256EC4}
  9
$EXTNAMES
290
     1
  9
$PSVPSCALE
 40
0.0
  9
$OLESTARTUP
290
     0
  9
$SORTENTS
280
   127
  9
$INDEXCTL
280
     0
  9
$HIDETEXT
280
     1
  9
$XCLIPFRAME
280
     2
  9
$HALOGAP
280
     0
  9
$OBSCOLOR
 70
   257
  9
$OBSLTYPE
280
     0
  9
$INTERSECTIONDISPLAY
280
     0
  9
$INTERSECTIONCOLOR
 70
   257
  9
$DIMASSOC
280
     2
  9
$PROJECTNAME
  1

  9
$CAMERADISPLAY
290
     0
  9
$LENSLENGTH
 40
50.0
  9
$CAMERAHEIGHT
 40
0.0
  9
$STEPSPERSEC
 40
2.0
  9
$STEPSIZE
 40
6.0
  9
$3DDWFPREC
 40
2.0
  9
$PSOLWIDTH
 40
0.25
  9
$PSOLHEIGHT
 40
4.0
  9
$LOFTANG1
 40
1.570796326794897
  9
$LOFTANG2
 40
1.570796326794897
  9
$LOFTMAG1
 40
0.0
  9
$LOFTMAG2
 40
0.0
  9
$LOFTPARAM
 70
     7
  9
$LOFTNORMALS
280
     1
  9
$LATITUDE
 40
37.795
  9
$LONGITUDE
 40
-122.394
  9
$NORTHDIRECTION
 40
0.0
  9
$TIMEZONE
 70
 -8000
  9
$LIGHTGLYPHDISPLAY
280
     1
  9
$TILEMODELIGHTSYNCH
280
     1
  9
$CMATERIAL
347
44
  9
$SOLIDHIST
280
     0
  9
$SHOWHIST
280
     1
  9
$DWFFRAME
280
     2
  9
$DGNFRAME
280
     2
  9
$REALWORLDSCALE
290
     1
  9
$INTERFERECOLOR
 62
   256
  9
$CSHADOW
280
     0
  9
$SHADOWPLANELOCATION
 40
0.0
  0
ENDSEC
  0
SECTION
  2
CLASSES
  0
CLASS
  1
ACDBDICTIONARYWDFLT
  2
AcDbDictionaryWithDefault
  3
ObjectDBX Classes
 90
        0
 91
        3
280
     0
281
     0
  0
CLASS
  1
VISUALSTYLE
  2
AcDbVisualStyle
  3
ObjectDBX Classes
 90
     4095
 91
        3
280
     0
281
     0
  0
CLASS
  1
MATERIAL
  2
AcDbMaterial
  3
ObjectDBX Classes
 90
     1153
 91
        3
280
     0
281
     0
  0
CLASS
  1
SCALE
  2
AcDbScale
  3
ObjectDBX Classes
 90
     1153
 91
        3
280
     0
281
     0
  0
CLASS
  1
TABLESTYLE
  2
AcDbTableStyle
  3
ObjectDBX Classes
 90
     4095
 91
        3
280
     0
281
     0
  0
CLASS
  1
MLEADERSTYLE
  2
AcDbMLeaderStyle
  3
ACDB_MLEADERSTYLE_CLASS
 90
     4095
 91
        3
280
     0
281
     0
  0
CLASS
  1
SUN
  2
AcDbSun
  3
SCENEOE
 90
     1153
 91
        3
280
     0
281
     0
  0
CLASS
  1
DICTIONARYVAR
  2
AcDbDictionaryVar
  3
ObjectDBX Classes
 90
        0
 91
        3
280
     0
281
     0
  0
CLASS
  1
CELLSTYLEMAP
  2
AcDbCellStyleMap
  3
ObjectDBX Classes
 90
     1152
 91
        3
280
     0
281
     0
  0
ENDSEC
  0
SECTION
  2
TABLES
  0
TABLE
  2
VPORT
  5
8
330
0
100
AcDbSymbolTable
 70
     1
  0
VPORT
  5
29
330
8
100
AcDbSymbolTableRecord
100
AcDbViewportTableRecord
  2
*Active
 70
     0
 10
0.0
 20
0.0
 11
1.0
 21
1.0
 12
10.42990654205607
 22
4.5
 13
0.0
 23
0.0
 14
0.5
 24
0.5
 15
0.5
 25
0.5
 16
0.0
 26
0.0
 36
1.0
 17
0.0
 27
0.0
 37
0.0
 40
9.0
 41
1.972972972850329
 42
50.0
 43
0.0
 44
0.0
 50
0.0
 51
0.0
 71
     0
 72
   100
 73
     1
 74
     3
 75
     0
 76
     0
 77
     0
 78
     0
281
     0
 65
     1
110
0.0
120
0.0
130
0.0
111
1.0
121
0.0
131
0.0
112
0.0
122
1.0
132
0.0
 79
     0
146
0.0
348
2F
 60
     3
 61
     5
292
     1
282
     1
141
0.0
142
0.0
 63
   250
361
5D
  0
ENDTAB
  0
TABLE
  2
LTYPE
  5
5
330
0
100
AcDbSymbolTable
 70
     1
  0
LTYPE
  5
14
330
5
100
AcDbSymbolTableRecord
100
AcDbLinetypeTableRecord
  2
ByBlock
 70
     0
  3

 72
    65
 73
     0
 40
0.0
  0
LTYPE
  5
15
330
5
100
AcDbSymbolTableRecord
100
AcDbLinetypeTableRecord
  2
ByLayer
 70
     0
  3

 72
    65
 73
     0
 40
0.0
  0
LTYPE
  5
16
330
5
100
AcDbSymbolTableRecord
100
AcDbLinetypeTableRecord
  2
Continuous
 70
     0
  3
Solid line
 72
    65
 73
     0
 40
0.0
  0
ENDTAB
  0
TABLE
  2
LAYER
  5
2
330
0
100
AcDbSymbolTable
 70
     2
  0
LAYER
  5
10
330
2
100
AcDbSymbolTableRecord
100
AcDbLayerTableRecord
  2
0
 70
     0
 62
     7
  6
Continuous
370
    -3
390
F
347
46
348
0
  0
LAYER
  5
5F
330
2
100
AcDbSymbolTableRecord
100
AcDbLayerTableRecord
  2
Layer 1
 70
     0
 62
     7
  6
Continuous
370
    -3
390
F
347
46
348
0
  0
ENDTAB
  0
TABLE
  2
STYLE
  5
3
330
0
100
AcDbSymbolTable
 70
     1
  0
STYLE
  5
11
330
3
100
AcDbSymbolTableRecord
100
AcDbTextStyleTableRecord
  2
Standard
 70
     0
 40
0.0
 41
1.0
 50
0.0
 71
     0
 42
0.2
  3
txt
  4

  0
ENDTAB
  0
TABLE
  2
VIEW
  5
6
330
0
100
AcDbSymbolTable
 70
     0
  0
ENDTAB
  0
TABLE
  2
UCS
  5
7
330
0
100
AcDbSymbolTable
 70
     0
  0
ENDTAB
  0
TABLE
  2
APPID
  5
9
330
0
100
AcDbSymbolTable
 70
     2
  0
APPID
  5
12
330
9
100
AcDbSymbolTableRecord
100
AcDbRegAppTableRecord
  2
ACAD
 70
     0
  0
APPID
  5
5E
330
9
100
AcDbSymbolTableRecord
100
AcDbRegAppTableRecord
  2
ODA
 70
     0
  0
ENDTAB
  0
TABLE
  2
DIMSTYLE
  5
A
330
0
100
AcDbSymbolTable
 70
     1
100
AcDbDimStyleTable
  0
DIMSTYLE
105
27
330
A
100
AcDbSymbolTableRecord
100
AcDbDimStyleTableRecord
  2
Standard
 70
     0
178
     0
340
11
  0
ENDTAB
  0
TABLE
  2
BLOCK_RECORD
  5
1
330
0
100
AcDbSymbolTable
 70
     1
  0
BLOCK_RECORD
  5
1F
330
1
100
AcDbSymbolTableRecord
100
AcDbBlockTableRecord
  2
*Model_Space
340
22
 70
     0
280
     1
281
     0
  0
BLOCK_RECORD
  5
1B
330
1
100
AcDbSymbolTableRecord
100
AcDbBlockTableRecord
  2
*Paper_Space
340
1E
 70
     0
280
     1
281
     0
  0
BLOCK_RECORD
  5
23
330
1
100
AcDbSymbolTableRecord
100
AcDbBlockTableRecord
  2
*Paper_Space0
340
26
 70
     0
280
     1
281
     0
  0
ENDTAB
  0
ENDSEC
  0
SECTION
  2
BLOCKS
  0
BLOCK
  5
20
330
1F
100
AcDbEntity
  8
0
100
AcDbBlockBegin
  2
*Model_Space
 70
     0
 10
0.0
 20
0.0
 30
0.0
  3
*Model_Space
  1

  0
ENDBLK
  5
21
330
1F
100
AcDbEntity
  8
0
100
AcDbBlockEnd
  0
BLOCK
  5
1C
330
1B
100
AcDbEntity
 67
     1
  8
0
100
AcDbBlockBegin
  2
*Paper_Space
 70
     0
 10
0.0
 20
0.0
 30
0.0
  3
*Paper_Space
  1

  0
ENDBLK
  5
1D
330
1B
100
AcDbEntity
 67
     1
  8
0
100
AcDbBlockEnd
  0
BLOCK
  5
24
330
23
100
AcDbEntity
  8
0
100
AcDbBlockBegin
  2
*Paper_Space0
 70
     0
 10
0.0
 20
0.0
 30
0.0
  3
*Paper_Space0
  1

  0
ENDBLK
  5
25
330
23
100
AcDbEntity
  8
0
100
AcDbBlockEnd
  0
ENDSEC
  0
SECTION
  2
ENTITIES
  0
SPLINE
  5
60
330
1F
100
AcDbEntity
  8
Layer 1
 62
   250
370
     0
100
AcDbSpline
210
0.0
220
0.0
230
1.0
 70
    11
 71
     3
 72
    29
 73
    25
 74
     0
 42
0.0000000001
 43
0.0000000001
 40
0.0
 40
0.0
 40
0.0
 40
0.0
 40
0.125
 40
0.125
 40
0.125
 40
0.25
 40
0.25
 40
0.25
 40
0.375
 40
0.375
 40
0.375
 40
0.5
 40
0.5
 40
0.5
 40
0.625
 40
0.625
 40
0.625
 40
0.75
 40
0.75
 40
0.75
 40
0.875
 40
0.875
 40
0.875
 40
1.0
 40
1.0
 40
1.0
 40
1.0
 10
723.2573
 20
460.2502
 30
0.0
 10
723.6337
 20
460.9733
 30
0.0
 10
724.0007
 20
461.6798
 30
0.0
 10
724.3879
 20
462.4011
 30
0.0
 10
724.775
 20
461.6798
 30
0.0
 10
725.144
 20
460.9733
 30
0.0
 10
725.5201
 20
460.2502
 30
0.0
 10
751.3382
 20
522.2825
 30
0.0
 10
791.6548
 20
568.0054
 30
0.0
 10
853.0686
 20
589.9734
 30
0.0
 10
853.0686
 20
589.9734
 30
0.0
 10
732.6754
 20
589.9734
 30
0.0
 10
732.6754
 20
589.9734
 30
0.0
 10
732.6754
 20
589.9734
 30
0.0
 10
724.3879
 20
589.9734
 30
0.0
 10
724.3879
 20
589.9734
 30
0.0
 10
724.3879
 20
589.9734
 30
0.0
 10
716.1021
 20
589.9734
 30
0.0
 10
716.1021
 20
589.9734
 30
0.0
 10
716.1021
 20
589.9734
 30
0.0
 10
595.709
 20
589.9734
 30
0.0
 10
595.709
 20
589.9734
 30
0.0
 10
657.1227
 20
568.0054
 30
0.0
 10
697.4376
 20
522.2825
 30
0.0
 10
723.2573
 20
460.2502
 30
0.0
  0
SPLINE
  5
61
330
1F
100
AcDbEntity
  8
Layer 1
 62
   250
370
     0
100
AcDbSpline
210
0.0
220
0.0
230
1.0
 70
    11
 71
     3
 72
    32
 73
    28
 74
     0
 42
0.0000000001
 43
0.0000000001
 40
0.0
 40
0.0
 40
0.0
 40
0.0
 40
0.1111111111111111
 40
0.1111111111111111
 40
0.1111111111111111
 40
0.2222222222222222
 40
0.2222222222222222
 40
0.2222222222222222
 40
0.3333333333333333
 40
0.3333333333333333
 40
0.3333333333333333
 40
0.4444444444444444
 40
0.4444444444444444
 40
0.4444444444444444
 40
0.5555555555555556
 40
0.5555555555555556
 40
0.5555555555555556
 40
0.6666666666666666
 40
0.6666666666666666
 40
0.6666666666666666
 40
0.7777777777777777
 40
0.7777777777777777
 40
0.7777777777777777
 40
0.8888888888888888
 40
0.8888888888888888
 40
0.8888888888888888
 40
1.0
 40
1.0
 40
1.0
 40
1.0
 10
1109.6631
 20
488.1752
 30
0.0
 10
1109.9589
 20
488.7416
 30
0.0
 10
1110.2474
 20
489.2967
 30
0.0
 10
1110.5506
 20
489.8632
 30
0.0
 10
1110.8538
 20
489.2967
 30
0.0
 10
1111.1423
 20
488.7416
 30
0.0
 10
1111.4381
 20
488.1752
 30
0.0
 10
1130.0295
 20
532.8424
 30
0.0
 10
1158.1979
 20
566.7274
 30
0.0
 10
1199.95
 20
585.3292
 30
0.0
 10
1199.95
 20
585.3292
 30
0.0
 10
1199.95
 20
589.9734
 30
0.0
 10
1199.95
 20
589.9734
 30
0.0
 10
1199.95
 20
589.9734
 30
0.0
 10
1117.054
 20
589.9734
 30
0.0
 10
1117.054
 20
589.9734
 30
0.0
 10
1117.054
 20
589.9734
 30
0.0
 10
1110.5506
 20
589.9734
 30
0.0
 10
1110.5506
 20
589.9734
 30
0.0
 10
1110.5506
 20
589.9734
 30
0.0
 10
1104.0472
 20
589.9734
 30
0.0
 10
1104.0472
 20
589.9734
 30
0.0
 10
1104.0472
 20
589.9734
 30
0.0
 10
1009.5688
 20
589.9734
 30
0.0
 10
1009.5688
 20
589.9734
 30
0.0
 10
1057.7641
 20
572.7336
 30
0.0
 10
1089.4024
 20
536.8526
 30
0.0
 10
1109.6631
 20
488.1752
 30
0.0
  0
SPLINE
  5
62
330
1F
100
AcDbEntity
  8
Layer 1
 62
   250
370
     0
100
AcDbSpline
210
0.0
220
0.0
230
1.0
 70
    11
 71
     3
 72
    53
 73
    49
 74
     0
 42
0.0000000001
 43
0.0000000001
 40
0.0
 40
0.0
 40
0.0
 40
0.0
 40
0.0625
 40
0.0625
 40
0.0625
 40
0.125
 40
0.125
 40
0.125
 40
0.1875
 40
0.1875
 40
0.1875
 40
0.25
 40
0.25
 40
0.25
 40
0.3125
 40
0.3125
 40
0.3125
 40
0.375
 40
0.375
 40
0.375
 40
0.4375
 40
0.4375
 40
0.4375
 40
0.5
 40
0.5
 40
0.5
 40
0.5625
 40
0.5625
 40
0.5625
 40
0.625
 40
0.625
 40
0.625
 40
0.6875
 40
0.6875
 40
0.6875
 40
0.75
 40
0.75
 40
0.75
 40
0.8125
 40
0.8125
 40
0.8125
 40
0.875
 40
0.875
 40
0.875
 40
0.9375
 40
0.9375
 40
0.9375
 40
1.0
 40
1.0
 40
1.0
 40
1.0
 10
1110.7131
 20
96.4728
 30
0.0
 10
1188.0847
 20
152.3422
 30
0.0
 10
1180.4054
 20
224.9789
 30
0.0
 10
1175.5146
 20
220.9752
 30
0.0
 10
1184.308
 20
218.6729
 30
0.0
 10
1192.4349
 20
217.3999
 30
0.0
 10
1199.95
 20
216.9733
 30
0.0
 10
1199.95
 20
216.9733
 30
0.0
 10
1199.95
 20
107.2106
 30
0.0
 10
1199.95
 20
107.2106
 30
0.0
 10
1172.8683
 20
82.5565
 30
0.0
 10
1143.1421
 20
56.8944
 30
0.0
 10
1110.7131
 20
30.6955
 30
0.0
 10
1110.6565
 20
30.7384
 30
0.0
 10
1110.6072
 20
30.7911
 30
0.0
 10
1110.5487
 20
30.8356
 30
0.0
 10
1110.4904
 20
30.7911
 30
0.0
 10
1110.4427
 20
30.7384
 30
0.0
 10
1110.3862
 20
30.6955
 30
0.0
 10
893.1077
 20
206.2272
 30
0.0
 10
795.9228
 20
357.9085
 30
0.0
 10
818.3786
 20
341.0443
 30
0.0
 10
903.4151
 20
426.6123
 30
0.0
 10
808.745
 20
450.5632
 30
0.0
 10
806.7928
 20
444.9472
 30
0.0
 10
887.9138
 20
589.1351
 30
0.0
 10
1011.7988
 20
516.4903
 30
0.0
 10
1036.9318
 20
491.3684
 30
0.0
 10
1035.9548
 20
491.94
 30
0.0
 10
1084.2669
 20
447.7074
 30
0.0
 10
1036.9318
 20
415.5418
 30
0.0
 10
1036.9318
 20
415.5418
 30
0.0
 10
979.8098
 20
493.7828
 30
0.0
 10
929.5345
 20
438.5918
 30
0.0
 10
878.2839
 20
366.4411
 30
0.0
 10
1019.4673
 20
350.7676
 30
0.0
 10
932.4748
 20
288.4274
 30
0.0
 10
933.4518
 20
288.4109
 30
0.0
 10
951.7272
 20
196.4084
 30
0.0
 10
1045.5846
 20
220.9752
 30
0.0
 10
1040.6922
 20
224.9789
 30
0.0
 10
1033.0145
 20
152.3422
 30
0.0
 10
1110.3862
 20
96.4728
 30
0.0
 10
1110.4427
 20
96.5156
 30
0.0
 10
1110.5012
 20
96.5519
 30
0.0
 10
1110.5487
 20
96.5947
 30
0.0
 10
1110.598
 20
96.5519
 30
0.0
 10
1110.6565
 20
96.5156
 30
0.0
 10
1110.7131
 20
96.4728
 30
0.0
  0
SPLINE
  5
63
330
1F
100
AcDbEntity
  8
Layer 1
 62
   250
370
     0
100
AcDbSpline
210
0.0
220
0.0
230
1.0
 70
    11
 71
     3
 72
    17
 73
    13
 74
     0
 42
0.0000000001
 43
0.0000000001
 40
0.0
 40
0.0
 40
0.0
 40
0.0
 40
0.25
 40
0.25
 40
0.25
 40
0.5
 40
0.5
 40
0.5
 40
0.75
 40
0.75
 40
0.75
 40
1.0
 40
1.0
 40
1.0
 40
1.0
 10
1199.95
 20
432.9579
 30
0.0
 10
1190.1521
 20
423.7434
 30
0.0
 10
1184.1692
 20
415.5418
 30
0.0
 10
1184.1692
 20
415.5418
 30
0.0
 10
1136.8323
 20
447.7074
 30
0.0
 10
1185.1444
 20
491.94
 30
0.0
 10
1184.1692
 20
491.3684
 30
0.0
 10
1187.6556
 20
494.8533
 30
0.0
 10
1193.0431
 20
499.2472
 30
0.0
 10
1199.95
 20
503.8553
 30
0.0
 10
1199.95
 20
503.8553
 30
0.0
 10
1199.95
 20
432.9579
 30
0.0
 10
1199.95
 20
432.9579
 30
0.0
  0
SPLINE
  5
64
330
1F
100
AcDbEntity
  8
Layer 1
 62
   250
370
     0
100
AcDbSpline
210
0.0
220
0.0
230
1.0
 70
    11
 71
     3
 72
    20
 73
    16
 74
     0
 42
0.0000000001
 43
0.0000000001
 40
0.0
 40
0.0
 40
0.0
 40
0.0
 40
0.2
 40
0.2
 40
0.2
 40
0.4
 40
0.4
 40
0.4
 40
0.6000000000000001
 40
0.6000000000000001
 40
0.6000000000000001
 40
0.8
 40
0.8
 40
0.8
 40
1.0
 40
1.0
 40
1.0
 40
1.0
 10
1199.95
 20
17.349
 30
0.0
 10
1194.3233
 20
11.6013
 30
0.0
 10
1190.5228
 20
5.8504
 30
0.0
 10
1188.5414
 20
0.1011
 30
0.0
 10
1188.5268
 20
0.0582
 30
0.0
 10
1188.5103
 20
0.0154
 30
0.0
 10
1188.4956
 20
-0.0274
 30
0.0
 10
1188.5103
 20
-0.0702
 30
0.0
 10
1188.5268
 20
-0.113
 30
0.0
 10
1188.5414
 20
-0.1559
 30
0.0
 10
1190.5228
 20
-5.9036
 30
0.0
 10
1194.3233
 20
-11.6495
 30
0.0
 10
1199.95
 20
-17.3972
 30
0.0
 10
1199.95
 20
-17.3972
 30
0.0
 10
1199.95
 20
17.349
 30
0.0
 10
1199.95
 20
17.349
 30
0.0
  0
SPLINE
  5
65
330
1F
100
AcDbEntity
  8
Layer 1
 62
   250
370
     0
100
AcDbSpline
210
0.0
220
0.0
230
1.0
 70
    11
 71
     3
 72
    29
 73
    25
 74
     0
 42
0.0000000001
 43
0.0000000001
 40
0.0
 40
0.0
 40
0.0
 40
0.0
 40
0.125
 40
0.125
 40
0.125
 40
0.25
 40
0.25
 40
0.25
 40
0.375
 40
0.375
 40
0.375
 40
0.5
 40
0.5
 40
0.5
 40
0.625
 40
0.625
 40
0.625
 40
0.75
 40
0.75
 40
0.75
 40
0.875
 40
0.875
 40
0.875
 40
1.0
 40
1.0
 40
1.0
 40
1.0
 10
724.3898
 20
122.4675
 30
0.0
 10
647.6773
 20
122.4675
 30
0.0
 10
584.3405
 20
68.4854
 30
0.0
 10
577.7366
 20
0.0714
 30
0.0
 10
577.733
 20
0.0385
 30
0.0
 10
577.7294
 20
0.0056
 30
0.0
 10
577.7275
 20
-0.0274
 30
0.0
 10
577.7294
 20
-0.0603
 30
0.0
 10
577.733
 20
-0.0932
 30
0.0
 10
577.7366
 20
-0.1263
 30
0.0
 10
584.3405
 20
-68.5401
 30
0.0
 10
647.6773
 20
-122.5223
 30
0.0
 10
724.3898
 20
-122.5223
 30
0.0
 10
801.0966
 20
-122.5223
 30
0.0
 10
864.4317
 20
-68.5467
 30
0.0
 10
871.0409
 20
-0.1411
 30
0.0
 10
871.0445
 20
-0.1031
 30
0.0
 10
871.0483
 20
-0.0653
 30
0.0
 10
871.0519
 20
-0.0274
 30
0.0
 10
871.0483
 20
0.0105
 30
0.0
 10
871.0445
 20
0.0483
 30
0.0
 10
871.0409
 20
0.0863
 30
0.0
 10
864.4317
 20
68.4936
 30
0.0
 10
801.0966
 20
122.4675
 30
0.0
 10
724.3898
 20
122.4675
 30
0.0
  0
SPLINE
  5
66
330
1F
100
AcDbEntity
  8
Layer 1
 62
   250
370
     0
100
AcDbSpline
210
0.0
220
0.0
230
1.0
 70
    11
 71
     3
 72
    35
 73
    31
 74
     0
 42
0.0000000001
 43
0.0000000001
 40
0.0
 40
0.0
 40
0.0
 40
0.0
 40
0.1
 40
0.1
 40
0.1
 40
0.2
 40
0.2
 40
0.2
 40
0.3
 40
0.3
 40
0.3
 40
0.4
 40
0.4
 40
0.4
 40
0.5
 40
0.5
 40
0.5
 40
0.6000000000000001
 40
0.6000000000000001
 40
0.6000000000000001
 40
0.7000000000000001
 40
0.7000000000000001
 40
0.7000000000000001
 40
0.8
 40
0.8
 40
0.8
 40
0.9
 40
0.9
 40
0.9
 40
1.0
 40
1.0
 40
1.0
 40
1.0
 10
492.1413
 20
-0.0274
 30
0.0
 10
492.1432
 20
0.0039
 30
0.0
 10
492.1449
 20
0.0368
 30
0.0
 10
492.1449
 20
0.0681
 30
0.0
 10
494.5429
 20
39.5015
 30
0.0
 10
508.8553
 20
76.1221
 30
0.0
 10
531.8463
 20
106.9735
 30
0.0
 10
501.7
 20
78.7834
 30
0.0
 10
470.279
 20
51.9522
 30
0.0
 10
437.2529
 20
26.0233
 30
0.0
 10
426.0138
 20
17.3704
 30
0.0
 10
418.9152
 20
8.7177
 30
0.0
 10
415.942
 20
0.0632
 30
0.0
 10
415.9329
 20
0.0335
 30
0.0
 10
415.9202
 20
0.0039
 30
0.0
 10
415.911
 20
-0.0274
 30
0.0
 10
415.9202
 20
-0.057
 30
0.0
 10
415.9329
 20
-0.0883
 30
0.0
 10
415.942
 20
-0.1179
 30
0.0
 10
418.9152
 20
-8.7708
 30
0.0
 10
426.0138
 20
-17.4237
 30
0.0
 10
437.2529
 20
-26.0764
 30
0.0
 10
470.279
 20
-52.0069
 30
0.0
 10
501.7
 20
-78.8382
 30
0.0
 10
531.8463
 20
-107.0266
 30
0.0
 10
508.8553
 20
-76.1769
 30
0.0
 10
494.5429
 20
-39.5546
 30
0.0
 10
492.1449
 20
-0.123
 30
0.0
 10
492.1449
 20
-0.09
 30
0.0
 10
492.1432
 20
-0.0587
 30
0.0
 10
492.1413
 20
-0.0274
 30
0.0
  0
SPLINE
  5
67
330
1F
100
AcDbEntity
  8
Layer 1
 62
   250
370
     0
100
AcDbSpline
210
0.0
220
0.0
230
1.0
 70
    11
 71
     3
 72
    35
 73
    31
 74
     0
 42
0.0000000001
 43
0.0000000001
 40
0.0
 40
0.0
 40
0.0
 40
0.0
 40
0.1
 40
0.1
 40
0.1
 40
0.2
 40
0.2
 40
0.2
 40
0.3
 40
0.3
 40
0.3
 40
0.4
 40
0.4
 40
0.4
 40
0.5
 40
0.5
 40
0.5
 40
0.6000000000000001
 40
0.6000000000000001
 40
0.6000000000000001
 40
0.7000000000000001
 40
0.7000000000000001
 40
0.7000000000000001
 40
0.8
 40
0.8
 40
0.8
 40
0.9
 40
0.9
 40
0.9
 40
1.0
 40
1.0
 40
1.0
 40
1.0
 10
1032.5049
 20
-0.0274
 30
0.0
 10
1032.4886
 20
0.0138
 30
0.0
 10
1032.4703
 20
0.0533
 30
0.0
 10
1032.4557
 20
0.0945
 30
0.0
 10
1026.6499
 20
14.9792
 30
0.0
 10
1010.0437
 20
24.3764
 30
0.0
 10
1008.4749
 20
27.2041
 30
0.0
 10
978.2465
 20
50.9377
 30
0.0
 10
949.2838
 20
75.3151
 30
0.0
 10
921.3784
 20
100.7564
 30
0.0
 10
941.7522
 20
71.2521
 30
0.0
 10
954.3899
 20
36.8995
 30
0.0
 10
956.6326
 20
0.0896
 30
0.0
 10
956.6345
 20
0.0516
 30
0.0
 10
956.6381
 20
0.0122
 30
0.0
 10
956.64
 20
-0.0274
 30
0.0
 10
956.6381
 20
-0.0669
 30
0.0
 10
956.6345
 20
-0.1048
 30
0.0
 10
956.6326
 20
-0.1443
 30
0.0
 10
954.3899
 20
-36.9542
 30
0.0
 10
941.7522
 20
-71.3052
 30
0.0
 10
921.3784
 20
-100.8095
 30
0.0
 10
949.2838
 20
-75.3699
 30
0.0
 10
978.2465
 20
-50.9908
 30
0.0
 10
1008.4749
 20
-27.2589
 30
0.0
 10
1010.0437
 20
-24.4312
 30
0.0
 10
1026.6499
 20
-15.034
 30
0.0
 10
1032.4557
 20
-0.1476
 30
0.0
 10
1032.4703
 20
-0.1081
 30
0.0
 10
1032.4886
 20
-0.0686
 30
0.0
 10
1032.5049
 20
-0.0274
 30
0.0
  0
SPLINE
  5
68
330
1F
100
AcDbEntity
  8
Layer 1
 62
   250
370
     0
100
AcDbSpline
210
0.0
220
0.0
230
1.0
 70
    11
 71
     3
 72
    20
 73
    16
 74
     0
 42
0.0000000001
 43
0.0000000001
 40
0.0
 40
0.0
 40
0.0
 40
0.0
 40
0.2
 40
0.2
 40
0.2
 40
0.4
 40
0.4
 40
0.4
 40
0.6000000000000001
 40
0.6000000000000001
 40
0.6000000000000001
 40
0.8
 40
0.8
 40
0.8
 40
1.0
 40
1.0
 40
1.0
 40
1.0
 10
859.8459
 20
160.4351
 30
0.0
 10
819.542
 20
202.0688
 30
0.0
 10
781.3528
 20
246.9156
 30
0.0
 10
744.5608
 20
296.4692
 30
0.0
 10
729.8082
 20
317.6962
 30
0.0
 10
715.0556
 20
319.0647
 30
0.0
 10
700.303
 20
296.4692
 30
0.0
 10
661.8456
 20
244.6708
 30
0.0
 10
622.062
 20
197.7358
 30
0.0
 10
579.9409
 20
154.2296
 30
0.0
 10
619.6697
 20
183.0389
 30
0.0
 10
669.892
 20
200.2919
 30
0.0
 10
724.3898
 20
200.2919
 30
0.0
 10
774.8549
 20
200.2919
 30
0.0
 10
821.655
 20
185.4993
 30
0.0
 10
859.8459
 20
160.4351
 30
0.0
  0
SPLINE
  5
69
330
1F
100
AcDbEntity
  8
Layer 1
 62
   250
370
     0
100
AcDbSpline
210
0.0
220
0.0
230
1.0
 70
    11
 71
     3
 72
    29
 73
    25
 74
     0
 42
0.0000000001
 43
0.0000000001
 40
0.0
 40
0.0
 40
0.0
 40
0.0
 40
0.125
 40
0.125
 40
0.125
 40
0.25
 40
0.25
 40
0.25
 40
0.375
 40
0.375
 40
0.375
 40
0.5
 40
0.5
 40
0.5
 40
0.625
 40
0.625
 40
0.625
 40
0.75
 40
0.75
 40
0.75
 40
0.875
 40
0.875
 40
0.875
 40
1.0
 40
1.0
 40
1.0
 40
1.0
 10
-819.0319
 20
460.2502
 30
0.0
 10
-818.6539
 20
460.9733
 30
0.0
 10
-818.2868
 20
461.6798
 30
0.0
 10
-817.9015
 20
462.4011
 30
0.0
 10
-817.5144
 20
461.6798
 30
0.0
 10
-817.1454
 20
460.9733
 30
0.0
 10
-816.7674
 20
460.2502
 30
0.0
 10
-790.9495
 20
522.2825
 30
0.0
 10
-750.6346
 20
568.0054
 30
0.0
 10
-689.2189
 20
589.9734
 30
0.0
 10
-689.2189
 20
589.9734
 30
0.0
 10
-809.6138
 20
589.9734
 30
0.0
 10
-809.6138
 20
589.9734
 30
0.0
 10
-809.6138
 20
589.9734
 30
0.0
 10
-817.9015
 20
589.9734
 30
0.0
 10
-817.9015
 20
589.9734
 30
0.0
 10
-817.9015
 20
589.9734
 30
0.0
 10
-826.1874
 20
589.9734
 30
0.0
 10
-826.1874
 20
589.9734
 30
0.0
 10
-826.1874
 20
589.9734
 30
0.0
 10
-946.5804
 20
589.9734
 30
0.0
 10
-946.5804
 20
589.9734
 30
0.0
 10
-885.1649
 20
568.0054
 30
0.0
 10
-844.8517
 20
522.2825
 30
0.0
 10
-819.0319
 20
460.2502
 30
0.0
  0
SPLINE
  5
6A
330
1F
100
AcDbEntity
  8
Layer 1
 62
   250
370
     0
100
AcDbSpline
210
0.0
220
0.0
230
1.0
 70
    11
 71
     3
 72
    29
 73
    25
 74
     0
 42
0.0000000001
 43
0.0000000001
 40
0.0
 40
0.0
 40
0.0
 40
0.0
 40
0.125
 40
0.125
 40
0.125
 40
0.25
 40
0.25
 40
0.25
 40
0.375
 40
0.375
 40
0.375
 40
0.5
 40
0.5
 40
0.5
 40
0.625
 40
0.625
 40
0.625
 40
0.75
 40
0.75
 40
0.75
 40
0.875
 40
0.875
 40
0.875
 40
1.0
 40
1.0
 40
1.0
 40
1.0
 10
-432.6264
 20
488.1752
 30
0.0
 10
-432.3305
 20
488.7416
 30
0.0
 10
-432.0419
 20
489.2967
 30
0.0
 10
-431.7389
 20
489.8632
 30
0.0
 10
-431.4339
 20
489.2967
 30
0.0
 10
-431.1472
 20
488.7416
 30
0.0
 10
-430.8512
 20
488.1752
 30
0.0
 10
-410.5907
 20
536.8526
 30
0.0
 10
-378.9541
 20
572.7336
 30
0.0
 10
-330.759
 20
589.9734
 30
0.0
 10
-330.759
 20
589.9734
 30
0.0
 10
-425.2355
 20
589.9734
 30
0.0
 10
-425.2355
 20
589.9734
 30
0.0
 10
-425.2355
 20
589.9734
 30
0.0
 10
-431.7389
 20
589.9734
 30
0.0
 10
-431.7389
 20
589.9734
 30
0.0
 10
-431.7389
 20
589.9734
 30
0.0
 10
-438.2421
 20
589.9734
 30
0.0
 10
-438.2421
 20
589.9734
 30
0.0
 10
-438.2421
 20
589.9734
 30
0.0
 10
-532.7187
 20
589.9734
 30
0.0
 10
-532.7187
 20
589.9734
 30
0.0
 10
-484.5253
 20
572.7336
 30
0.0
 10
-452.887
 20
536.8526
 30
0.0
 10
-432.6264
 20
488.1752
 30
0.0
  0
SPLINE
  5
6B
330
1F
100
AcDbEntity
  8
Layer 1
 62
   250
370
     0
100
AcDbSpline
210
0.0
220
0.0
230
1.0
 70
    11
 71
     3
 72
    29
 73
    25
 74
     0
 42
0.0000000001
 43
0.0000000001
 40
0.0
 40
0.0
 40
0.0
 40
0.0
 40
0.125
 40
0.125
 40
0.125
 40
0.25
 40
0.25
 40
0.25
 40
0.375
 40
0.375
 40
0.375
 40
0.5
 40
0.5
 40
0.5
 40
0.625
 40
0.625
 40
0.625
 40
0.75
 40
0.75
 40
0.75
 40
0.875
 40
0.875
 40
0.875
 40
1.0
 40
1.0
 40
1.0
 40
1.0
 10
-46.4473
 20
460.2502
 30
0.0
 10
-46.0693
 20
460.9733
 30
0.0
 10
-45.7022
 20
461.6798
 30
0.0
 10
-45.3151
 20
462.4011
 30
0.0
 10
-44.9277
 20
461.6798
 30
0.0
 10
-44.5607
 20
460.9733
 30
0.0
 10
-44.1845
 20
460.2502
 30
0.0
 10
-18.3647
 20
522.2825
 30
0.0
 10
21.9501
 20
568.0054
 30
0.0
 10
83.364
 20
589.9734
 30
0.0
 10
83.364
 20
589.9734
 30
0.0
 10
-37.0274
 20
589.9734
 30
0.0
 10
-37.0274
 20
589.9734
 30
0.0
 10
-37.0274
 20
589.9734
 30
0.0
 10
-45.3151
 20
589.9734
 30
0.0
 10
-45.3151
 20
589.9734
 30
0.0
 10
-45.3151
 20
589.9734
 30
0.0
 10
-53.6026
 20
589.9734
 30
0.0
 10
-53.6026
 20
589.9734
 30
0.0
 10
-53.6026
 20
589.9734
 30
0.0
 10
-173.9957
 20
589.9734
 30
0.0
 10
-173.9957
 20
589.9734
 30
0.0
 10
-112.5801
 20
568.0054
 30
0.0
 10
-72.2652
 20
522.2825
 30
0.0
 10
-46.4473
 20
460.2502
 30
0.0
  0
SPLINE
  5
6C
330
1F
100
AcDbEntity
  8
Layer 1
 62
   250
370
     0
100
AcDbSpline
210
0.0
220
0.0
230
1.0
 70
    11
 71
     3
 72
    65
 73
    61
 74
     0
 42
0.0000000001
 43
0.0000000001
 40
0.0
 40
0.0
 40
0.0
 40
0.0
 40
0.05
 40
0.05
 40
0.05
 40
0.1
 40
0.1
 40
0.1
 40
0.15
 40
0.15
 40
0.15
 40
0.2
 40
0.2
 40
0.2
 40
0.25
 40
0.25
 40
0.25
 40
0.3
 40
0.3
 40
0.3
 40
0.35
 40
0.35
 40
0.35
 40
0.4
 40
0.4
 40
0.4
 40
0.45
 40
0.45
 40
0.45
 40
0.5
 40
0.5
 40
0.5
 40
0.55
 40
0.55
 40
0.55
 40
0.6000000000000001
 40
0.6000000000000001
 40
0.6000000000000001
 40
0.65
 40
0.65
 40
0.65
 40
0.7000000000000001
 40
0.7000000000000001
 40
0.7000000000000001
 40
0.75
 40
0.75
 40
0.75
 40
0.8
 40
0.8
 40
0.8
 40
0.8500000000000001
 40
0.8500000000000001
 40
0.8500000000000001
 40
0.9
 40
0.9
 40
0.9
 40
0.9500000000000001
 40
0.9500000000000001
 40
0.9500000000000001
 40
1.0
 40
1.0
 40
1.0
 40
1.0
 10
-431.5744
 20
96.4728
 30
0.0
 10
-354.2045
 20
152.3422
 30
0.0
 10
-361.8822
 20
224.9789
 30
0.0
 10
-366.7748
 20
220.9752
 30
0.0
 10
-272.9174
 20
196.4084
 30
0.0
 10
-254.64
 20
288.4109
 30
0.0
 10
-253.6648
 20
288.4274
 30
0.0
 10
-340.6556
 20
350.7676
 30
0.0
 10
-199.474
 20
366.4411
 30
0.0
 10
-250.7245
 20
438.5918
 30
0.0
 10
-301.0
 20
493.7828
 30
0.0
 10
-358.1201
 20
415.5418
 30
0.0
 10
-358.1201
 20
415.5418
 30
0.0
 10
-405.4569
 20
447.7074
 30
0.0
 10
-357.1431
 20
491.94
 30
0.0
 10
-358.1201
 20
491.3684
 30
0.0
 10
-332.9888
 20
516.4903
 30
0.0
 10
-209.1038
 20
589.1351
 30
0.0
 10
-127.9828
 20
444.9472
 30
0.0
 10
-129.9352
 20
450.5632
 30
0.0
 10
-224.6053
 20
426.6123
 30
0.0
 10
-139.5669
 20
341.0443
 30
0.0
 10
-117.1129
 20
357.9085
 30
0.0
 10
-214.2978
 20
206.2272
 30
0.0
 10
-431.5744
 20
30.6955
 30
0.0
 10
-431.6329
 20
30.7384
 30
0.0
 10
-431.6804
 20
30.7911
 30
0.0
 10
-431.7389
 20
30.8356
 30
0.0
 10
-431.7973
 20
30.7911
 30
0.0
 10
-431.8448
 20
30.7384
 30
0.0
 10
-431.9031
 20
30.6955
 30
0.0
 10
-649.1816
 20
206.2272
 30
0.0
 10
-746.3648
 20
357.9085
 30
0.0
 10
-723.9108
 20
341.0443
 30
0.0
 10
-638.8724
 20
426.6123
 30
0.0
 10
-733.5425
 20
450.5632
 30
0.0
 10
-735.4966
 20
444.9472
 30
0.0
 10
-654.3756
 20
589.1351
 30
0.0
 10
-530.4906
 20
516.4903
 30
0.0
 10
-505.3575
 20
491.3684
 30
0.0
 10
-506.3346
 20
491.94
 30
0.0
 10
-458.0225
 20
447.7074
 30
0.0
 10
-505.3575
 20
415.5418
 30
0.0
 10
-505.3575
 20
415.5418
 30
0.0
 10
-562.4796
 20
493.7828
 30
0.0
 10
-612.753
 20
438.5918
 30
0.0
 10
-664.0056
 20
366.4411
 30
0.0
 10
-522.8204
 20
350.7676
 30
0.0
 10
-609.8146
 20
288.4274
 30
0.0
 10
-608.8377
 20
288.4109
 30
0.0
 10
-590.5621
 20
196.4084
 30
0.0
 10
-496.7029
 20
220.9752
 30
0.0
 10
-501.5973
 20
224.9789
 30
0.0
 10
-509.2749
 20
152.3422
 30
0.0
 10
-431.9031
 20
96.4728
 30
0.0
 10
-431.8448
 20
96.5156
 30
0.0
 10
-431.7882
 20
96.5519
 30
0.0
 10
-431.7389
 20
96.5947
 30
0.0
 10
-431.6914
 20
96.5519
 30
0.0
 10
-431.6329
 20
96.5156
 30
0.0
 10
-431.5744
 20
96.4728
 30
0.0
  0
SPLINE
  5
6D
330
1F
100
AcDbEntity
  8
Layer 1
 62
   250
370
     0
100
AcDbSpline
210
0.0
220
0.0
230
1.0
 70
    11
 71
     3
 72
    29
 73
    25
 74
     0
 42
0.0000000001
 43
0.0000000001
 40
0.0
 40
0.0
 40
0.0
 40
0.0
 40
0.125
 40
0.125
 40
0.125
 40
0.25
 40
0.25
 40
0.25
 40
0.375
 40
0.375
 40
0.375
 40
0.5
 40
0.5
 40
0.5
 40
0.625
 40
0.625
 40
0.625
 40
0.75
 40
0.75
 40
0.75
 40
0.875
 40
0.875
 40
0.875
 40
1.0
 40
1.0
 40
1.0
 40
1.0
 10
336.8244
 20
488.1752
 30
0.0
 10
337.1185
 20
488.7416
 30
0.0
 10
337.407
 20
489.2967
 30
0.0
 10
337.7102
 20
489.8632
 30
0.0
 10
338.0133
 20
489.2967
 30
0.0
 10
338.3019
 20
488.7416
 30
0.0
 10
338.5996
 20
488.1752
 30
0.0
 10
358.8603
 20
536.8526
 30
0.0
 10
390.4967
 20
572.7336
 30
0.0
 10
438.6901
 20
589.9734
 30
0.0
 10
438.6901
 20
589.9734
 30
0.0
 10
344.2153
 20
589.9734
 30
0.0
 10
344.2153
 20
589.9734
 30
0.0
 10
344.2153
 20
589.9734
 30
0.0
 10
337.7102
 20
589.9734
 30
0.0
 10
337.7102
 20
589.9734
 30
0.0
 10
337.7102
 20
589.9734
 30
0.0
 10
331.2068
 20
589.9734
 30
0.0
 10
331.2068
 20
589.9734
 30
0.0
 10
331.2068
 20
589.9734
 30
0.0
 10
236.7304
 20
589.9734
 30
0.0
 10
236.7304
 20
589.9734
 30
0.0
 10
284.9255
 20
572.7336
 30
0.0
 10
316.5621
 20
536.8526
 30
0.0
 10
336.8244
 20
488.1752
 30
0.0
  0
SPLINE
  5
6E
330
1F
100
AcDbEntity
  8
Layer 1
 62
   250
370
     0
100
AcDbSpline
210
0.0
220
0.0
230
1.0
 70
    11
 71
     3
 72
    65
 73
    61
 74
     0
 42
0.0000000001
 43
0.0000000001
 40
0.0
 40
0.0
 40
0.0
 40
0.0
 40
0.05
 40
0.05
 40
0.05
 40
0.1
 40
0.1
 40
0.1
 40
0.15
 40
0.15
 40
0.15
 40
0.2
 40
0.2
 40
0.2
 40
0.25
 40
0.25
 40
0.25
 40
0.3
 40
0.3
 40
0.3
 40
0.35
 40
0.35
 40
0.35
 40
0.4
 40
0.4
 40
0.4
 40
0.45
 40
0.45
 40
0.45
 40
0.5
 40
0.5
 40
0.5
 40
0.55
 40
0.55
 40
0.55
 40
0.6000000000000001
 40
0.6000000000000001
 40
0.6000000000000001
 40
0.65
 40
0.65
 40
0.65
 40
0.7000000000000001
 40
0.7000000000000001
 40
0.7000000000000001
 40
0.75
 40
0.75
 40
0.75
 40
0.8
 40
0.8
 40
0.8
 40
0.8500000000000001
 40
0.8500000000000001
 40
0.8500000000000001
 40
0.9
 40
0.9
 40
0.9
 40
0.9500000000000001
 40
0.9500000000000001
 40
0.9500000000000001
 40
1.0
 40
1.0
 40
1.0
 40
1.0
 10
337.8764
 20
96.4728
 30
0.0
 10
415.2463
 20
152.3422
 30
0.0
 10
407.5667
 20
224.9789
 30
0.0
 10
402.6743
 20
220.9752
 30
0.0
 10
496.5317
 20
196.4084
 30
0.0
 10
514.8089
 20
288.4109
 30
0.0
 10
515.786
 20
288.4274
 30
0.0
 10
428.7935
 20
350.7676
 30
0.0
 10
569.9768
 20
366.4411
 30
0.0
 10
518.7263
 20
438.5918
 30
0.0
 10
468.451
 20
493.7828
 30
0.0
 10
411.3289
 20
415.5418
 30
0.0
 10
411.3289
 20
415.5418
 30
0.0
 10
363.992
 20
447.7074
 30
0.0
 10
412.306
 20
491.94
 30
0.0
 10
411.3289
 20
491.3684
 30
0.0
 10
436.462
 20
516.4903
 30
0.0
 10
560.3451
 20
589.1351
 30
0.0
 10
641.468
 20
444.9472
 30
0.0
 10
639.5139
 20
450.5632
 30
0.0
 10
544.8438
 20
426.6123
 30
0.0
 10
629.8839
 20
341.0443
 30
0.0
 10
652.3361
 20
357.9085
 30
0.0
 10
555.1513
 20
206.2272
 30
0.0
 10
337.8764
 20
30.6955
 30
0.0
 10
337.8179
 20
30.7384
 30
0.0
 10
337.7687
 20
30.7911
 30
0.0
 10
337.7102
 20
30.8356
 30
0.0
 10
337.6517
 20
30.7911
 30
0.0
 10
337.6043
 20
30.7384
 30
0.0
 10
337.5458
 20
30.6955
 30
0.0
 10
120.2692
 20
206.2272
 30
0.0
 10
23.0843
 20
357.9085
 30
0.0
 10
45.5364
 20
341.0443
 30
0.0
 10
130.5767
 20
426.6123
 30
0.0
 10
35.9065
 20
450.5632
 30
0.0
 10
33.9542
 20
444.9472
 30
0.0
 10
115.0752
 20
589.1351
 30
0.0
 10
238.9584
 20
516.4903
 30
0.0
 10
264.0914
 20
491.3684
 30
0.0
 10
263.1162
 20
491.94
 30
0.0
 10
311.4266
 20
447.7074
 30
0.0
 10
264.0914
 20
415.5418
 30
0.0
 10
264.0914
 20
415.5418
 30
0.0
 10
206.9713
 20
493.7828
 30
0.0
 10
156.6959
 20
438.5918
 30
0.0
 10
105.4435
 20
366.4411
 30
0.0
 10
246.6287
 20
350.7676
 30
0.0
 10
159.6343
 20
288.4274
 30
0.0
 10
160.6114
 20
288.4109
 30
0.0
 10
178.8887
 20
196.4084
 30
0.0
 10
272.7462
 20
220.9752
 30
0.0
 10
267.8535
 20
224.9789
 30
0.0
 10
260.1759
 20
152.3422
 30
0.0
 10
337.5458
 20
96.4728
 30
0.0
 10
337.6043
 20
96.5156
 30
0.0
 10
337.6609
 20
96.5519
 30
0.0
 10
337.7102
 20
96.5947
 30
0.0
 10
337.7594
 20
96.5519
 30
0.0
 10
337.8179
 20
96.5156
 30
0.0
 10
337.8764
 20
96.4728
 30
0.0
  0
SPLINE
  5
6F
330
1F
100
AcDbEntity
  8
Layer 1
 62
   250
370
     0
100
AcDbSpline
210
0.0
220
0.0
230
1.0
 70
    11
 71
     3
 72
    29
 73
    25
 74
     0
 42
0.0000000001
 43
0.0000000001
 40
0.0
 40
0.0
 40
0.0
 40
0.0
 40
0.125
 40
0.125
 40
0.125
 40
0.25
 40
0.25
 40
0.25
 40
0.375
 40
0.375
 40
0.375
 40
0.5
 40
0.5
 40
0.5
 40
0.625
 40
0.625
 40
0.625
 40
0.75
 40
0.75
 40
0.75
 40
0.875
 40
0.875
 40
0.875
 40
1.0
 40
1.0
 40
1.0
 40
1.0
 10
-45.3151
 20
122.4675
 30
0.0
 10
-122.042
 20
122.4675
 30
0.0
 10
-185.3879
 20
68.4673
 30
0.0
 10
-191.9717
 20
0.0352
 30
0.0
 10
-191.9735
 20
0.0138
 30
0.0
 10
-191.9753
 20
-0.0059
 30
0.0
 10
-191.9772
 20
-0.0274
 30
0.0
 10
-191.9753
 20
-0.0472
 30
0.0
 10
-191.9735
 20
-0.0686
 30
0.0
 10
-191.9717
 20
-0.0883
 30
0.0
 10
-185.3879
 20
-68.5204
 30
0.0
 10
-122.042
 20
-122.5223
 30
0.0
 10
-45.3151
 20
-122.5223
 30
0.0
 10
31.4066
 20
-122.5223
 30
0.0
 10
94.7489
 20
-68.5286
 30
0.0
 10
101.3398
 20
-0.1031
 30
0.0
 10
101.3436
 20
-0.0784
 30
0.0
 10
101.3453
 20
-0.0521
 30
0.0
 10
101.3472
 20
-0.0274
 30
0.0
 10
101.3453
 20
-0.001
 30
0.0
 10
101.3436
 20
0.0237
 30
0.0
 10
101.3398
 20
0.0483
 30
0.0
 10
94.7489
 20
68.4738
 30
0.0
 10
31.4066
 20
122.4675
 30
0.0
 10
-45.3151
 20
122.4675
 30
0.0
  0
SPLINE
  5
70
330
1F
100
AcDbEntity
  8
Layer 1
 62
   250
370
     0
100
AcDbSpline
210
0.0
220
0.0
230
1.0
 70
    11
 71
     3
 72
    35
 73
    31
 74
     0
 42
0.0000000001
 43
0.0000000001
 40
0.0
 40
0.0
 40
0.0
 40
0.0
 40
0.1
 40
0.1
 40
0.1
 40
0.2
 40
0.2
 40
0.2
 40
0.3
 40
0.3
 40
0.3
 40
0.4
 40
0.4
 40
0.4
 40
0.5
 40
0.5
 40
0.5
 40
0.6000000000000001
 40
0.6000000000000001
 40
0.6000000000000001
 40
0.7000000000000001
 40
0.7000000000000001
 40
0.7000000000000001
 40
0.8
 40
0.8
 40
0.8
 40
0.9
 40
0.9
 40
0.9
 40
1.0
 40
1.0
 40
1.0
 40
1.0
 10
-277.5634
 20
-0.0274
 30
0.0
 10
-277.5634
 20
-0.0076
 30
0.0
 10
-277.5615
 20
0.0105
 30
0.0
 10
-277.5615
 20
0.0302
 30
0.0
 10
-275.1709
 20
39.4785
 30
0.0
 10
-260.8567
 20
76.1121
 30
0.0
 10
-237.8584
 20
106.9735
 30
0.0
 10
-268.0048
 20
78.7834
 30
0.0
 10
-299.4257
 20
51.9522
 30
0.0
 10
-332.452
 20
26.0233
 30
0.0
 10
-343.7054
 20
17.3573
 30
0.0
 10
-350.8114
 20
8.693
 30
0.0
 10
-353.7754
 20
0.027
 30
0.0
 10
-353.7809
 20
0.0089
 30
0.0
 10
-353.7881
 20
-0.0092
 30
0.0
 10
-353.7936
 20
-0.0274
 30
0.0
 10
-353.7881
 20
-0.0455
 30
0.0
 10
-353.7809
 20
-0.0636
 30
0.0
 10
-353.7754
 20
-0.0817
 30
0.0
 10
-350.8114
 20
-8.7461
 30
0.0
 10
-343.7054
 20
-17.412
 30
0.0
 10
-332.452
 20
-26.0764
 30
0.0
 10
-299.4257
 20
-52.0069
 30
0.0
 10
-268.0048
 20
-78.8382
 30
0.0
 10
-237.8584
 20
-107.0266
 30
0.0
 10
-260.8567
 20
-76.167
 30
0.0
 10
-275.1709
 20
-39.5316
 30
0.0
 10
-277.5615
 20
-0.085
 30
0.0
 10
-277.5615
 20
-0.0653
 30
0.0
 10
-277.5634
 20
-0.0472
 30
0.0
 10
-277.5634
 20
-0.0274
 30
0.0
  0
SPLINE
  5
71
330
1F
100
AcDbEntity
  8
Layer 1
 62
   250
370
     0
100
AcDbSpline
210
0.0
220
0.0
230
1.0
 70
    11
 71
     3
 72
    35
 73
    31
 74
     0
 42
0.0000000001
 43
0.0000000001
 40
0.0
 40
0.0
 40
0.0
 40
0.0
 40
0.1
 40
0.1
 40
0.1
 40
0.2
 40
0.2
 40
0.2
 40
0.3
 40
0.3
 40
0.3
 40
0.4
 40
0.4
 40
0.4
 40
0.5
 40
0.5
 40
0.5
 40
0.6000000000000001
 40
0.6000000000000001
 40
0.6000000000000001
 40
0.7000000000000001
 40
0.7000000000000001
 40
0.7000000000000001
 40
0.8
 40
0.8
 40
0.8
 40
0.9
 40
0.9
 40
0.9
 40
1.0
 40
1.0
 40
1.0
 40
1.0
 10
262.8002
 20
-0.0274
 30
0.0
 10
262.7894
 20
0.0006
 30
0.0
 10
262.7765
 20
0.0286
 30
0.0
 10
262.7657
 20
0.0566
 30
0.0
 10
256.9745
 20
14.9644
 30
0.0
 10
240.3391
 20
24.3748
 30
0.0
 10
238.7722
 20
27.2041
 30
0.0
 10
208.5418
 20
50.9377
 30
0.0
 10
179.579
 20
75.3151
 30
0.0
 10
151.6737
 20
100.7564
 30
0.0
 10
172.0548
 20
71.2422
 30
0.0
 10
184.6944
 20
36.8763
 30
0.0
 10
186.9298
 20
0.0533
 30
0.0
 10
186.9315
 20
0.027
 30
0.0
 10
186.9334
 20
-0.001
 30
0.0
 10
186.9353
 20
-0.0274
 30
0.0
 10
186.9334
 20
-0.0538
 30
0.0
 10
186.9315
 20
-0.0801
 30
0.0
 10
186.9298
 20
-0.1081
 30
0.0
 10
184.6944
 20
-36.9312
 30
0.0
 10
172.0548
 20
-71.2954
 30
0.0
 10
151.6737
 20
-100.8095
 30
0.0
 10
179.579
 20
-75.3699
 30
0.0
 10
208.5418
 20
-50.9908
 30
0.0
 10
238.7722
 20
-27.2589
 30
0.0
 10
240.3391
 20
-24.4295
 30
0.0
 10
256.9745
 20
-15.0192
 30
0.0
 10
262.7657
 20
-0.1113
 30
0.0
 10
262.7765
 20
-0.0834
 30
0.0
 10
262.7894
 20
-0.0554
 30
0.0
 10
262.8002
 20
-0.0274
 30
0.0
  0
SPLINE
  5
72
330
1F
100
AcDbEntity
  8
Layer 1
 62
   250
370
     0
100
AcDbSpline
210
0.0
220
0.0
230
1.0
 70
    11
 71
     3
 72
    20
 73
    16
 74
     0
 42
0.0000000001
 43
0.0000000001
 40
0.0
 40
0.0
 40
0.0
 40
0.0
 40
0.2
 40
0.2
 40
0.2
 40
0.4
 40
0.4
 40
0.4
 40
0.6000000000000001
 40
0.6000000000000001
 40
0.6000000000000001
 40
0.8
 40
0.8
 40
0.8
 40
1.0
 40
1.0
 40
1.0
 40
1.0
 10
90.1412
 20
160.4351
 30
0.0
 10
49.8373
 20
202.0688
 30
0.0
 10
11.6482
 20
246.9156
 30
0.0
 10
-25.1439
 20
296.4692
 30
0.0
 10
-39.8964
 20
317.6962
 30
0.0
 10
-54.649
 20
319.0647
 30
0.0
 10
-69.4016
 20
296.4692
 30
0.0
 10
-107.8593
 20
244.6708
 30
0.0
 10
-147.6427
 20
197.7358
 30
0.0
 10
-189.7637
 20
154.2296
 30
0.0
 10
-150.035
 20
183.0389
 30
0.0
 10
-99.8127
 20
200.2919
 30
0.0
 10
-45.3151
 20
200.2919
 30
0.0
 10
5.1503
 20
200.2919
 30
0.0
 10
51.9503
 20
185.4993
 30
0.0
 10
90.1412
 20
160.4351
 30
0.0
  0
SPLINE
  5
73
330
1F
100
AcDbEntity
  8
Layer 1
 62
   250
370
     0
100
AcDbSpline
210
0.0
220
0.0
230
1.0
 70
    11
 71
     3
 72
    29
 73
    25
 74
     0
 42
0.0000000001
 43
0.0000000001
 40
0.0
 40
0.0
 40
0.0
 40
0.0
 40
0.125
 40
0.125
 40
0.125
 40
0.25
 40
0.25
 40
0.25
 40
0.375
 40
0.375
 40
0.375
 40
0.5
 40
0.5
 40
0.5
 40
0.625
 40
0.625
 40
0.625
 40
0.75
 40
0.75
 40
0.75
 40
0.875
 40
0.875
 40
0.875
 40
1.0
 40
1.0
 40
1.0
 40
1.0
 10
-817.8997
 20
122.4675
 30
0.0
 10
-894.6395
 20
122.4675
 30
0.0
 10
-957.9945
 20
68.4475
 30
0.0
 10
-964.56
 20
-0.0027
 30
0.0
 10
-964.56
 20
-0.0109
 30
0.0
 10
-964.5619
 20
-0.0191
 30
0.0
 10
-964.5619
 20
-0.0274
 30
0.0
 10
-964.5619
 20
-0.0357
 30
0.0
 10
-964.56
 20
-0.0439
 30
0.0
 10
-964.56
 20
-0.0521
 30
0.0
 10
-957.9945
 20
-68.5006
 30
0.0
 10
-894.6395
 20
-122.5223
 30
0.0
 10
-817.8997
 20
-122.5223
 30
0.0
 10
-741.1636
 20
-122.5223
 30
0.0
 10
-677.8122
 20
-68.5089
 30
0.0
 10
-671.2412
 20
-0.0669
 30
0.0
 10
-671.2393
 20
-0.0538
 30
0.0
 10
-671.2376
 20
-0.0406
 30
0.0
 10
-671.2357
 20
-0.0274
 30
0.0
 10
-671.2376
 20
-0.0142
 30
0.0
 10
-671.2393
 20
-0.001
 30
0.0
 10
-671.2412
 20
0.0122
 30
0.0
 10
-677.8122
 20
68.4541
 30
0.0
 10
-741.1636
 20
122.4675
 30
0.0
 10
-817.8997
 20
122.4675
 30
0.0
  0
SPLINE
  5
74
330
1F
100
AcDbEntity
  8
Layer 1
 62
   250
370
     0
100
AcDbSpline
210
0.0
220
0.0
230
1.0
 70
    11
 71
     3
 72
    35
 73
    31
 74
     0
 42
0.0000000001
 43
0.0000000001
 40
0.0
 40
0.0
 40
0.0
 40
0.0
 40
0.1
 40
0.1
 40
0.1
 40
0.2
 40
0.2
 40
0.2
 40
0.3
 40
0.3
 40
0.3
 40
0.4
 40
0.4
 40
0.4
 40
0.5
 40
0.5
 40
0.5
 40
0.6000000000000001
 40
0.6000000000000001
 40
0.6000000000000001
 40
0.7000000000000001
 40
0.7000000000000001
 40
0.7000000000000001
 40
0.8
 40
0.8
 40
0.8
 40
0.9
 40
0.9
 40
0.9
 40
1.0
 40
1.0
 40
1.0
 40
1.0
 10
-1050.1481
 20
-0.0274
 30
0.0
 10
-1050.1481
 20
-0.0209
 30
0.0
 10
-1050.1481
 20
-0.0142
 30
0.0
 10
-1050.1481
 20
-0.0059
 30
0.0
 10
-1047.7648
 20
39.4554
 30
0.0
 10
-1033.4487
 20
76.1022
 30
0.0
 10
-1010.4432
 20
106.9735
 30
0.0
 10
-1040.5894
 20
78.7834
 30
0.0
 10
-1072.0085
 20
51.9522
 30
0.0
 10
-1105.0366
 20
26.0233
 30
0.0
 10
-1116.3065
 20
17.3441
 30
0.0
 10
-1123.4162
 20
8.6682
 30
0.0
 10
-1126.3729
 20
-0.0092
 30
0.0
 10
-1126.3748
 20
-0.0158
 30
0.0
 10
-1126.3765
 20
-0.0209
 30
0.0
 10
-1126.3784
 20
-0.0274
 30
0.0
 10
-1126.3765
 20
-0.0324
 30
0.0
 10
-1126.3748
 20
-0.039
 30
0.0
 10
-1126.3729
 20
-0.0439
 30
0.0
 10
-1123.4162
 20
-8.7214
 30
0.0
 10
-1116.3065
 20
-17.3989
 30
0.0
 10
-1105.0366
 20
-26.0764
 30
0.0
 10
-1072.0085
 20
-52.0069
 30
0.0
 10
-1040.5894
 20
-78.8382
 30
0.0
 10
-1010.4432
 20
-107.0266
 30
0.0
 10
-1033.4487
 20
-76.157
 30
0.0
 10
-1047.7648
 20
-39.5086
 30
0.0
 10
-1050.1481
 20
-0.0472
 30
0.0
 10
-1050.1481
 20
-0.0406
 30
0.0
 10
-1050.1481
 20
-0.034
 30
0.0
 10
-1050.1481
 20
-0.0274
 30
0.0
  0
SPLINE
  5
75
330
1F
100
AcDbEntity
  8
Layer 1
 62
   250
370
     0
100
AcDbSpline
210
0.0
220
0.0
230
1.0
 70
    11
 71
     3
 72
    35
 73
    31
 74
     0
 42
0.0000000001
 43
0.0000000001
 40
0.0
 40
0.0
 40
0.0
 40
0.0
 40
0.1
 40
0.1
 40
0.1
 40
0.2
 40
0.2
 40
0.2
 40
0.3
 40
0.3
 40
0.3
 40
0.4
 40
0.4
 40
0.4
 40
0.5
 40
0.5
 40
0.5
 40
0.6000000000000001
 40
0.6000000000000001
 40
0.6000000000000001
 40
0.7000000000000001
 40
0.7000000000000001
 40
0.7000000000000001
 40
0.8
 40
0.8
 40
0.8
 40
0.9
 40
0.9
 40
0.9
 40
1.0
 40
1.0
 40
1.0
 40
1.0
 10
-509.7844
 20
-0.0274
 30
0.0
 10
-509.7899
 20
-0.0109
 30
0.0
 10
-509.7973
 20
0.0039
 30
0.0
 10
-509.8028
 20
0.0187
 30
0.0
 10
-515.581
 20
14.9496
 30
0.0
 10
-532.2438
 20
24.3715
 30
0.0
 10
-533.8126
 20
27.2041
 30
0.0
 10
-564.041
 20
50.9377
 30
0.0
 10
-593.0056
 20
75.3151
 30
0.0
 10
-620.911
 20
100.7564
 30
0.0
 10
-600.5226
 20
71.2324
 30
0.0
 10
-587.883
 20
36.8533
 30
0.0
 10
-585.6513
 20
0.0154
 30
0.0
 10
-585.6513
 20
0.0006
 30
0.0
 10
-585.6494
 20
-0.0125
 30
0.0
 10
-585.6476
 20
-0.0274
 30
0.0
 10
-585.6494
 20
-0.0422
 30
0.0
 10
-585.6513
 20
-0.0554
 30
0.0
 10
-585.6513
 20
-0.0702
 30
0.0
 10
-587.883
 20
-36.9081
 30
0.0
 10
-600.5226
 20
-71.2855
 30
0.0
 10
-620.911
 20
-100.8095
 30
0.0
 10
-593.0056
 20
-75.3699
 30
0.0
 10
-564.041
 20
-50.9908
 30
0.0
 10
-533.8126
 20
-27.2589
 30
0.0
 10
-532.2438
 20
-24.4262
 30
0.0
 10
-515.581
 20
-15.0027
 30
0.0
 10
-509.8028
 20
-0.0735
 30
0.0
 10
-509.7973
 20
-0.0587
 30
0.0
 10
-509.7899
 20
-0.0439
 30
0.0
 10
-509.7844
 20
-0.0274
 30
0.0
  0
SPLINE
  5
76
330
1F
100
AcDbEntity
  8
Layer 1
 62
   250
370
     0
100
AcDbSpline
210
0.0
220
0.0
230
1.0
 70
    11
 71
     3
 72
    20
 73
    16
 74
     0
 42
0.0000000001
 43
0.0000000001
 40
0.0
 40
0.0
 40
0.0
 40
0.0
 40
0.2
 40
0.2
 40
0.2
 40
0.4
 40
0.4
 40
0.4
 40
0.6000000000000001
 40
0.6000000000000001
 40
0.6000000000000001
 40
0.8
 40
0.8
 40
0.8
 40
1.0
 40
1.0
 40
1.0
 40
1.0
 10
-682.4436
 20
160.4351
 30
0.0
 10
-722.7474
 20
202.0688
 30
0.0
 10
-760.9366
 20
246.9156
 30
0.0
 10
-797.7267
 20
296.4692
 30
0.0
 10
-812.4812
 20
317.6962
 30
0.0
 10
-827.2338
 20
319.0647
 30
0.0
 10
-841.9864
 20
296.4692
 30
0.0
 10
-880.4439
 20
244.6708
 30
0.0
 10
-920.2273
 20
197.7358
 30
0.0
 10
-962.3485
 20
154.2296
 30
0.0
 10
-922.6198
 20
183.0389
 30
0.0
 10
-872.3973
 20
200.2919
 30
0.0
 10
-817.8997
 20
200.2919
 30
0.0
 10
-767.4343
 20
200.2919
 30
0.0
 10
-720.6344
 20
185.4993
 30
0.0
 10
-682.4436
 20
160.4351
 30
0.0
  0
SPLINE
  5
77
330
1F
100
AcDbEntity
  8
Layer 1
 62
   250
370
     0
100
AcDbSpline
210
0.0
220
0.0
230
1.0
 70
    11
 71
     3
 72
    32
 73
    28
 74
     0
 42
0.0000000001
 43
0.0000000001
 40
0.0
 40
0.0
 40
0.0
 40
0.0
 40
0.1111111111111111
 40
0.1111111111111111
 40
0.1111111111111111
 40
0.2222222222222222
 40
0.2222222222222222
 40
0.2222222222222222
 40
0.3333333333333333
 40
0.3333333333333333
 40
0.3333333333333333
 40
0.4444444444444444
 40
0.4444444444444444
 40
0.4444444444444444
 40
0.5555555555555556
 40
0.5555555555555556
 40
0.5555555555555556
 40
0.6666666666666666
 40
0.6666666666666666
 40
0.6666666666666666
 40
0.7777777777777777
 40
0.7777777777777777
 40
0.7777777777777777
 40
0.8888888888888888
 40
0.8888888888888888
 40
0.8888888888888888
 40
1.0
 40
1.0
 40
1.0
 40
1.0
 10
-1200.05
 20
98.561
 30
0.0
 10
-1125.71
 20
154.1341
 30
0.0
 10
-1133.247
 20
224.9294
 30
0.0
 10
-1138.0811
 20
220.9752
 30
0.0
 10
-1044.2218
 20
196.4084
 30
0.0
 10
-1025.9464
 20
288.4109
 30
0.0
 10
-1024.9694
 20
288.4274
 30
0.0
 10
-1111.9619
 20
350.7676
 30
0.0
 10
-970.7784
 20
366.4411
 30
0.0
 10
-1022.0291
 20
438.5918
 30
0.0
 10
-1072.3044
 20
493.7828
 30
0.0
 10
-1129.4264
 20
415.5418
 30
0.0
 10
-1129.4264
 20
415.5418
 30
0.0
 10
-1176.7615
 20
447.7074
 30
0.0
 10
-1128.4494
 20
491.94
 30
0.0
 10
-1129.4264
 20
491.3684
 30
0.0
 10
-1104.2934
 20
516.4903
 30
0.0
 10
-980.4084
 20
589.1351
 30
0.0
 10
-899.2874
 20
444.9472
 30
0.0
 10
-901.2415
 20
450.5632
 30
0.0
 10
-995.9116
 20
426.6123
 30
0.0
 10
-910.8713
 20
341.0443
 30
0.0
 10
-888.5161
 20
357.8344
 30
0.0
 10
-984.7713
 20
207.5497
 30
0.0
 10
-1200.05
 20
32.9963
 30
0.0
 10
-1200.05
 20
32.9963
 30
0.0
 10
-1200.05
 20
98.561
 30
0.0
 10
-1200.05
 20
98.561
 30
0.0
  0
SPLINE
  5
78
330
1F
100
AcDbEntity
  8
Layer 1
 62
   250
370
     0
100
AcDbSpline
210
0.0
220
0.0
230
1.0
 70
    11
 71
     3
 72
    26
 73
    22
 74
     0
 42
0.0000000001
 43
0.0000000001
 40
0.0
 40
0.0
 40
0.0
 40
0.0
 40
0.1428571428571428
 40
0.1428571428571428
 40
0.1428571428571428
 40
0.2857142857142857
 40
0.2857142857142857
 40
0.2857142857142857
 40
0.4285714285714285
 40
0.4285714285714285
 40
0.4285714285714285
 40
0.5714285714285714
 40
0.5714285714285714
 40
0.5714285714285714
 40
0.7142857142857142
 40
0.7142857142857142
 40
0.7142857142857142
 40
0.8571428571428571
 40
0.8571428571428571
 40
0.8571428571428571
 40
1.0
 40
1.0
 40
1.0
 40
1.0
 10
-1200.05
 20
488.2839
 30
0.0
 10
-1199.7743
 20
488.8141
 30
0.0
 10
-1199.5041
 20
489.3329
 30
0.0
 10
-1199.221
 20
489.8632
 30
0.0
 10
-1198.916
 20
489.2967
 30
0.0
 10
-1198.6293
 20
488.7416
 30
0.0
 10
-1198.3316
 20
488.1752
 30
0.0
 10
-1178.0709
 20
536.8526
 30
0.0
 10
-1146.4345
 20
572.7336
 30
0.0
 10
-1098.2411
 20
589.9734
 30
0.0
 10
-1098.2411
 20
589.9734
 30
0.0
 10
-1192.7158
 20
589.9734
 30
0.0
 10
-1192.7158
 20
589.9734
 30
0.0
 10
-1192.7158
 20
589.9734
 30
0.0
 10
-1199.221
 20
589.9734
 30
0.0
 10
-1199.221
 20
589.9734
 30
0.0
 10
-1199.221
 20
589.9734
 30
0.0
 10
-1200.05
 20
589.9734
 30
0.0
 10
-1200.05
 20
589.9734
 30
0.0
 10
-1200.05
 20
589.9734
 30
0.0
 10
-1200.05
 20
488.2839
 30
0.0
 10
-1200.05
 20
488.2839
 30
0.0
  0
SPLINE
  5
79
330
1F
100
AcDbEntity
  8
Layer 1
 62
   250
370
     0
100
AcDbSpline
210
0.0
220
0.0
230
1.0
 70
    11
 71
     3
 72
    29
 73
    25
 74
     0
 42
0.0000000001
 43
0.0000000001
 40
0.0
 40
0.0
 40
0.0
 40
0.0
 40
0.125
 40
0.125
 40
0.125
 40
0.25
 40
0.25
 40
0.25
 40
0.375
 40
0.375
 40
0.375
 40
0.5
 40
0.5
 40
0.5
 40
0.625
 40
0.625
 40
0.625
 40
0.75
 40
0.75
 40
0.75
 40
0.875
 40
0.875
 40
0.875
 40
1.0
 40
1.0
 40
1.0
 40
1.0
 10
723.2573
 20
-460.3051
 30
0.0
 10
723.6337
 20
-461.0281
 30
0.0
 10
724.0007
 20
-461.7329
 30
0.0
 10
724.3879
 20
-462.4559
 30
0.0
 10
724.775
 20
-461.7329
 30
0.0
 10
725.144
 20
-461.0281
 30
0.0
 10
725.5201
 20
-460.3051
 30
0.0
 10
751.3382
 20
-522.3372
 30
0.0
 10
791.6548
 20
-568.0601
 30
0.0
 10
853.0686
 20
-590.0266
 30
0.0
 10
853.0686
 20
-590.0266
 30
0.0
 10
732.6754
 20
-590.0266
 30
0.0
 10
732.6754
 20
-590.0266
 30
0.0
 10
732.6754
 20
-590.0266
 30
0.0
 10
724.3879
 20
-590.0266
 30
0.0
 10
724.3879
 20
-590.0266
 30
0.0
 10
724.3879
 20
-590.0266
 30
0.0
 10
716.1021
 20
-590.0266
 30
0.0
 10
716.1021
 20
-590.0266
 30
0.0
 10
716.1021
 20
-590.0266
 30
0.0
 10
595.709
 20
-590.0266
 30
0.0
 10
595.709
 20
-590.0266
 30
0.0
 10
657.1227
 20
-568.0601
 30
0.0
 10
697.4376
 20
-522.3372
 30
0.0
 10
723.2573
 20
-460.3051
 30
0.0
  0
SPLINE
  5
7A
330
1F
100
AcDbEntity
  8
Layer 1
 62
   250
370
     0
100
AcDbSpline
210
0.0
220
0.0
230
1.0
 70
    11
 71
     3
 72
    32
 73
    28
 74
     0
 42
0.0000000001
 43
0.0000000001
 40
0.0
 40
0.0
 40
0.0
 40
0.0
 40
0.1111111111111111
 40
0.1111111111111111
 40
0.1111111111111111
 40
0.2222222222222222
 40
0.2222222222222222
 40
0.2222222222222222
 40
0.3333333333333333
 40
0.3333333333333333
 40
0.3333333333333333
 40
0.4444444444444444
 40
0.4444444444444444
 40
0.4444444444444444
 40
0.5555555555555556
 40
0.5555555555555556
 40
0.5555555555555556
 40
0.6666666666666666
 40
0.6666666666666666
 40
0.6666666666666666
 40
0.7777777777777777
 40
0.7777777777777777
 40
0.7777777777777777
 40
0.8888888888888888
 40
0.8888888888888888
 40
0.8888888888888888
 40
1.0
 40
1.0
 40
1.0
 40
1.0
 10
1109.6631
 20
-488.2283
 30
0.0
 10
1109.9589
 20
-488.7964
 30
0.0
 10
1110.2474
 20
-489.3498
 30
0.0
 10
1110.5506
 20
-489.9179
 30
0.0
 10
1110.8538
 20
-489.3498
 30
0.0
 10
1111.1423
 20
-488.7964
 30
0.0
 10
1111.4381
 20
-488.2283
 30
0.0
 10
1130.0295
 20
-532.8972
 30
0.0
 10
1158.1979
 20
-566.7822
 30
0.0
 10
1199.95
 20
-585.3823
 30
0.0
 10
1199.95
 20
-585.3823
 30
0.0
 10
1199.95
 20
-590.0266
 30
0.0
 10
1199.95
 20
-590.0266
 30
0.0
 10
1199.95
 20
-590.0266
 30
0.0
 10
1117.054
 20
-590.0266
 30
0.0
 10
1117.054
 20
-590.0266
 30
0.0
 10
1117.054
 20
-590.0266
 30
0.0
 10
1110.5506
 20
-590.0266
 30
0.0
 10
1110.5506
 20
-590.0266
 30
0.0
 10
1110.5506
 20
-590.0266
 30
0.0
 10
1104.0472
 20
-590.0266
 30
0.0
 10
1104.0472
 20
-590.0266
 30
0.0
 10
1104.0472
 20
-590.0266
 30
0.0
 10
1009.5688
 20
-590.0266
 30
0.0
 10
1009.5688
 20
-590.0266
 30
0.0
 10
1057.7641
 20
-572.7884
 30
0.0
 10
1089.4024
 20
-536.9074
 30
0.0
 10
1109.6631
 20
-488.2283
 30
0.0
  0
SPLINE
  5
7B
330
1F
100
AcDbEntity
  8
Layer 1
 62
   250
370
     0
100
AcDbSpline
210
0.0
220
0.0
230
1.0
 70
    11
 71
     3
 72
    53
 73
    49
 74
     0
 42
0.0000000001
 43
0.0000000001
 40
0.0
 40
0.0
 40
0.0
 40
0.0
 40
0.0625
 40
0.0625
 40
0.0625
 40
0.125
 40
0.125
 40
0.125
 40
0.1875
 40
0.1875
 40
0.1875
 40
0.25
 40
0.25
 40
0.25
 40
0.3125
 40
0.3125
 40
0.3125
 40
0.375
 40
0.375
 40
0.375
 40
0.4375
 40
0.4375
 40
0.4375
 40
0.5
 40
0.5
 40
0.5
 40
0.5625
 40
0.5625
 40
0.5625
 40
0.625
 40
0.625
 40
0.625
 40
0.6875
 40
0.6875
 40
0.6875
 40
0.75
 40
0.75
 40
0.75
 40
0.8125
 40
0.8125
 40
0.8125
 40
0.875
 40
0.875
 40
0.875
 40
0.9375
 40
0.9375
 40
0.9375
 40
1.0
 40
1.0
 40
1.0
 40
1.0
 10
1110.7131
 20
-96.5276
 30
0.0
 10
1188.0847
 20
-152.397
 30
0.0
 10
1180.4054
 20
-225.032
 30
0.0
 10
1175.5146
 20
-221.03
 30
0.0
 10
1184.308
 20
-218.7276
 30
0.0
 10
1192.4349
 20
-217.4464
 30
0.0
 10
1199.95
 20
-217.0199
 30
0.0
 10
1199.95
 20
-217.0199
 30
0.0
 10
1199.95
 20
-107.2571
 30
0.0
 10
1199.95
 20
-107.2571
 30
0.0
 10
1172.8683
 20
-82.6014
 30
0.0
 10
1143.1421
 20
-56.9475
 30
0.0
 10
1110.7131
 20
-30.7487
 30
0.0
 10
1110.6565
 20
-30.7932
 30
0.0
 10
1110.6072
 20
-30.8458
 30
0.0
 10
1110.5487
 20
-30.8903
 30
0.0
 10
1110.4904
 20
-30.8458
 30
0.0
 10
1110.4427
 20
-30.7932
 30
0.0
 10
1110.3862
 20
-30.7487
 30
0.0
 10
893.1077
 20
-206.282
 30
0.0
 10
795.9228
 20
-357.9633
 30
0.0
 10
818.3786
 20
-341.0991
 30
0.0
 10
903.4151
 20
-426.6671
 30
0.0
 10
808.745
 20
-450.6164
 30
0.0
 10
806.7928
 20
-445.002
 30
0.0
 10
887.9138
 20
-589.1899
 30
0.0
 10
1011.7988
 20
-516.5451
 30
0.0
 10
1036.9318
 20
-491.4232
 30
0.0
 10
1035.9548
 20
-491.9947
 30
0.0
 10
1084.2669
 20
-447.7623
 30
0.0
 10
1036.9318
 20
-415.5966
 30
0.0
 10
1036.9318
 20
-415.5966
 30
0.0
 10
979.8098
 20
-493.8376
 30
0.0
 10
929.5345
 20
-438.6466
 30
0.0
 10
878.2839
 20
-366.4959
 30
0.0
 10
1019.4673
 20
-350.8224
 30
0.0
 10
932.4748
 20
-288.4821
 30
0.0
 10
933.4518
 20
-288.4657
 30
0.0
 10
951.7272
 20
-196.4632
 30
0.0
 10
1045.5846
 20
-221.03
 30
0.0
 10
1040.6922
 20
-225.032
 30
0.0
 10
1033.0145
 20
-152.397
 30
0.0
 10
1110.3862
 20
-96.5276
 30
0.0
 10
1110.4427
 20
-96.5704
 30
0.0
 10
1110.5012
 20
-96.6067
 30
0.0
 10
1110.5487
 20
-96.6494
 30
0.0
 10
1110.598
 20
-96.6067
 30
0.0
 10
1110.6565
 20
-96.5704
 30
0.0
 10
1110.7131
 20
-96.5276
 30
0.0
  0
SPLINE
  5
7C
330
1F
100
AcDbEntity
  8
Layer 1
 62
   250
370
     0
100
AcDbSpline
210
0.0
220
0.0
230
1.0
 70
    11
 71
     3
 72
    17
 73
    13
 74
     0
 42
0.0000000001
 43
0.0000000001
 40
0.0
 40
0.0
 40
0.0
 40
0.0
 40
0.25
 40
0.25
 40
0.25
 40
0.5
 40
0.5
 40
0.5
 40
0.75
 40
0.75
 40
0.75
 40
1.0
 40
1.0
 40
1.0
 40
1.0
 10
1199.95
 20
-433.0044
 30
0.0
 10
1190.1521
 20
-423.7899
 30
0.0
 10
1184.1692
 20
-415.5966
 30
0.0
 10
1184.1692
 20
-415.5966
 30
0.0
 10
1136.8323
 20
-447.7623
 30
0.0
 10
1185.1444
 20
-491.9947
 30
0.0
 10
1184.1692
 20
-491.4232
 30
0.0
 10
1187.6556
 20
-494.9081
 30
0.0
 10
1193.0431
 20
-499.302
 30
0.0
 10
1199.95
 20
-503.9101
 30
0.0
 10
1199.95
 20
-503.9101
 30
0.0
 10
1199.95
 20
-433.0044
 30
0.0
 10
1199.95
 20
-433.0044
 30
0.0
  0
SPLINE
  5
7D
330
1F
100
AcDbEntity
  8
Layer 1
 62
   250
370
     0
100
AcDbSpline
210
0.0
220
0.0
230
1.0
 70
    11
 71
     3
 72
    20
 73
    16
 74
     0
 42
0.0000000001
 43
0.0000000001
 40
0.0
 40
0.0
 40
0.0
 40
0.0
 40
0.2
 40
0.2
 40
0.2
 40
0.4
 40
0.4
 40
0.4
 40
0.6000000000000001
 40
0.6000000000000001
 40
0.6000000000000001
 40
0.8
 40
0.8
 40
0.8
 40
1.0
 40
1.0
 40
1.0
 40
1.0
 10
859.8459
 20
-160.4882
 30
0.0
 10
819.542
 20
-202.1219
 30
0.0
 10
781.3528
 20
-246.9704
 30
0.0
 10
744.5608
 20
-296.524
 30
0.0
 10
729.8082
 20
-317.7509
 30
0.0
 10
715.0556
 20
-319.1195
 30
0.0
 10
700.303
 20
-296.524
 30
0.0
 10
661.8456
 20
-244.7257
 30
0.0
 10
622.062
 20
-197.7906
 30
0.0
 10
579.9409
 20
-154.2844
 30
0.0
 10
619.6697
 20
-183.092
 30
0.0
 10
669.892
 20
-200.3466
 30
0.0
 10
724.3898
 20
-200.3466
 30
0.0
 10
774.8549
 20
-200.3466
 30
0.0
 10
821.655
 20
-185.5541
 30
0.0
 10
859.8459
 20
-160.4882
 30
0.0
  0
SPLINE
  5
7E
330
1F
100
AcDbEntity
  8
Layer 1
 62
   250
370
     0
100
AcDbSpline
210
0.0
220
0.0
230
1.0
 70
    11
 71
     3
 72
    29
 73
    25
 74
     0
 42
0.0000000001
 43
0.0000000001
 40
0.0
 40
0.0
 40
0.0
 40
0.0
 40
0.125
 40
0.125
 40
0.125
 40
0.25
 40
0.25
 40
0.25
 40
0.375
 40
0.375
 40
0.375
 40
0.5
 40
0.5
 40
0.5
 40
0.625
 40
0.625
 40
0.625
 40
0.75
 40
0.75
 40
0.75
 40
0.875
 40
0.875
 40
0.875
 40
1.0
 40
1.0
 40
1.0
 40
1.0
 10
-819.0319
 20
-460.3051
 30
0.0
 10
-818.6539
 20
-461.0281
 30
0.0
 10
-818.2868
 20
-461.7329
 30
0.0
 10
-817.9015
 20
-462.4559
 30
0.0
 10
-817.5144
 20
-461.7329
 30
0.0
 10
-817.1454
 20
-461.0281
 30
0.0
 10
-816.7674
 20
-460.3051
 30
0.0
 10
-790.9495
 20
-522.3372
 30
0.0
 10
-750.6346
 20
-568.0601
 30
0.0
 10
-689.2189
 20
-590.0266
 30
0.0
 10
-689.2189
 20
-590.0266
 30
0.0
 10
-809.6138
 20
-590.0266
 30
0.0
 10
-809.6138
 20
-590.0266
 30
0.0
 10
-809.6138
 20
-590.0266
 30
0.0
 10
-817.9015
 20
-590.0266
 30
0.0
 10
-817.9015
 20
-590.0266
 30
0.0
 10
-817.9015
 20
-590.0266
 30
0.0
 10
-826.1874
 20
-590.0266
 30
0.0
 10
-826.1874
 20
-590.0266
 30
0.0
 10
-826.1874
 20
-590.0266
 30
0.0
 10
-946.5804
 20
-590.0266
 30
0.0
 10
-946.5804
 20
-590.0266
 30
0.0
 10
-885.1649
 20
-568.0601
 30
0.0
 10
-844.8517
 20
-522.3372
 30
0.0
 10
-819.0319
 20
-460.3051
 30
0.0
  0
SPLINE
  5
7F
330
1F
100
AcDbEntity
  8
Layer 1
 62
   250
370
     0
100
AcDbSpline
210
0.0
220
0.0
230
1.0
 70
    11
 71
     3
 72
    29
 73
    25
 74
     0
 42
0.0000000001
 43
0.0000000001
 40
0.0
 40
0.0
 40
0.0
 40
0.0
 40
0.125
 40
0.125
 40
0.125
 40
0.25
 40
0.25
 40
0.25
 40
0.375
 40
0.375
 40
0.375
 40
0.5
 40
0.5
 40
0.5
 40
0.625
 40
0.625
 40
0.625
 40
0.75
 40
0.75
 40
0.75
 40
0.875
 40
0.875
 40
0.875
 40
1.0
 40
1.0
 40
1.0
 40
1.0
 10
-432.6264
 20
-488.2283
 30
0.0
 10
-432.3305
 20
-488.7964
 30
0.0
 10
-432.0419
 20
-489.3498
 30
0.0
 10
-431.7389
 20
-489.9179
 30
0.0
 10
-431.4339
 20
-489.3498
 30
0.0
 10
-431.1472
 20
-488.7964
 30
0.0
 10
-430.8512
 20
-488.2283
 30
0.0
 10
-410.5907
 20
-536.9074
 30
0.0
 10
-378.9541
 20
-572.7884
 30
0.0
 10
-330.759
 20
-590.0266
 30
0.0
 10
-330.759
 20
-590.0266
 30
0.0
 10
-425.2355
 20
-590.0266
 30
0.0
 10
-425.2355
 20
-590.0266
 30
0.0
 10
-425.2355
 20
-590.0266
 30
0.0
 10
-431.7389
 20
-590.0266
 30
0.0
 10
-431.7389
 20
-590.0266
 30
0.0
 10
-431.7389
 20
-590.0266
 30
0.0
 10
-438.2421
 20
-590.0266
 30
0.0
 10
-438.2421
 20
-590.0266
 30
0.0
 10
-438.2421
 20
-590.0266
 30
0.0
 10
-532.7187
 20
-590.0266
 30
0.0
 10
-532.7187
 20
-590.0266
 30
0.0
 10
-484.5253
 20
-572.7884
 30
0.0
 10
-452.887
 20
-536.9074
 30
0.0
 10
-432.6264
 20
-488.2283
 30
0.0
  0
SPLINE
  5
80
330
1F
100
AcDbEntity
  8
Layer 1
 62
   250
370
     0
100
AcDbSpline
210
0.0
220
0.0
230
1.0
 70
    11
 71
     3
 72
    29
 73
    25
 74
     0
 42
0.0000000001
 43
0.0000000001
 40
0.0
 40
0.0
 40
0.0
 40
0.0
 40
0.125
 40
0.125
 40
0.125
 40
0.25
 40
0.25
 40
0.25
 40
0.375
 40
0.375
 40
0.375
 40
0.5
 40
0.5
 40
0.5
 40
0.625
 40
0.625
 40
0.625
 40
0.75
 40
0.75
 40
0.75
 40
0.875
 40
0.875
 40
0.875
 40
1.0
 40
1.0
 40
1.0
 40
1.0
 10
-46.4473
 20
-460.3051
 30
0.0
 10
-46.0693
 20
-461.0281
 30
0.0
 10
-45.7022
 20
-461.7329
 30
0.0
 10
-45.3151
 20
-462.4559
 30
0.0
 10
-44.9277
 20
-461.7329
 30
0.0
 10
-44.5607
 20
-461.0281
 30
0.0
 10
-44.1845
 20
-460.3051
 30
0.0
 10
-18.3647
 20
-522.3372
 30
0.0
 10
21.9501
 20
-568.0601
 30
0.0
 10
83.364
 20
-590.0266
 30
0.0
 10
83.364
 20
-590.0266
 30
0.0
 10
-37.0274
 20
-590.0266
 30
0.0
 10
-37.0274
 20
-590.0266
 30
0.0
 10
-37.0274
 20
-590.0266
 30
0.0
 10
-45.3151
 20
-590.0266
 30
0.0
 10
-45.3151
 20
-590.0266
 30
0.0
 10
-45.3151
 20
-590.0266
 30
0.0
 10
-53.6026
 20
-590.0266
 30
0.0
 10
-53.6026
 20
-590.0266
 30
0.0
 10
-53.6026
 20
-590.0266
 30
0.0
 10
-173.9957
 20
-590.0266
 30
0.0
 10
-173.9957
 20
-590.0266
 30
0.0
 10
-112.5801
 20
-568.0601
 30
0.0
 10
-72.2652
 20
-522.3372
 30
0.0
 10
-46.4473
 20
-460.3051
 30
0.0
  0
SPLINE
  5
81
330
1F
100
AcDbEntity
  8
Layer 1
 62
   250
370
     0
100
AcDbSpline
210
0.0
220
0.0
230
1.0
 70
    11
 71
     3
 72
    65
 73
    61
 74
     0
 42
0.0000000001
 43
0.0000000001
 40
0.0
 40
0.0
 40
0.0
 40
0.0
 40
0.05
 40
0.05
 40
0.05
 40
0.1
 40
0.1
 40
0.1
 40
0.15
 40
0.15
 40
0.15
 40
0.2
 40
0.2
 40
0.2
 40
0.25
 40
0.25
 40
0.25
 40
0.3
 40
0.3
 40
0.3
 40
0.35
 40
0.35
 40
0.35
 40
0.4
 40
0.4
 40
0.4
 40
0.45
 40
0.45
 40
0.45
 40
0.5
 40
0.5
 40
0.5
 40
0.55
 40
0.55
 40
0.55
 40
0.6000000000000001
 40
0.6000000000000001
 40
0.6000000000000001
 40
0.65
 40
0.65
 40
0.65
 40
0.7000000000000001
 40
0.7000000000000001
 40
0.7000000000000001
 40
0.75
 40
0.75
 40
0.75
 40
0.8
 40
0.8
 40
0.8
 40
0.8500000000000001
 40
0.8500000000000001
 40
0.8500000000000001
 40
0.9
 40
0.9
 40
0.9
 40
0.9500000000000001
 40
0.9500000000000001
 40
0.9500000000000001
 40
1.0
 40
1.0
 40
1.0
 40
1.0
 10
-431.5744
 20
-96.5276
 30
0.0
 10
-354.2045
 20
-152.397
 30
0.0
 10
-361.8822
 20
-225.032
 30
0.0
 10
-366.7748
 20
-221.03
 30
0.0
 10
-272.9174
 20
-196.4632
 30
0.0
 10
-254.64
 20
-288.4657
 30
0.0
 10
-253.6648
 20
-288.4821
 30
0.0
 10
-340.6556
 20
-350.8224
 30
0.0
 10
-199.474
 20
-366.4959
 30
0.0
 10
-250.7245
 20
-438.6466
 30
0.0
 10
-301.0
 20
-493.8376
 30
0.0
 10
-358.1201
 20
-415.5966
 30
0.0
 10
-358.1201
 20
-415.5966
 30
0.0
 10
-405.4569
 20
-447.7623
 30
0.0
 10
-357.1431
 20
-491.9947
 30
0.0
 10
-358.1201
 20
-491.4232
 30
0.0
 10
-332.9888
 20
-516.5451
 30
0.0
 10
-209.1038
 20
-589.1899
 30
0.0
 10
-127.9828
 20
-445.002
 30
0.0
 10
-129.9352
 20
-450.6164
 30
0.0
 10
-224.6053
 20
-426.6671
 30
0.0
 10
-139.5669
 20
-341.0991
 30
0.0
 10
-117.1129
 20
-357.9633
 30
0.0
 10
-214.2978
 20
-206.282
 30
0.0
 10
-431.5744
 20
-30.7487
 30
0.0
 10
-431.6329
 20
-30.7932
 30
0.0
 10
-431.6804
 20
-30.8458
 30
0.0
 10
-431.7389
 20
-30.8903
 30
0.0
 10
-431.7973
 20
-30.8458
 30
0.0
 10
-431.8448
 20
-30.7932
 30
0.0
 10
-431.9031
 20
-30.7487
 30
0.0
 10
-649.1816
 20
-206.282
 30
0.0
 10
-746.3648
 20
-357.9633
 30
0.0
 10
-723.9108
 20
-341.0991
 30
0.0
 10
-638.8724
 20
-426.6671
 30
0.0
 10
-733.5425
 20
-450.6164
 30
0.0
 10
-735.4966
 20
-445.002
 30
0.0
 10
-654.3756
 20
-589.1899
 30
0.0
 10
-530.4906
 20
-516.5451
 30
0.0
 10
-505.3575
 20
-491.4232
 30
0.0
 10
-506.3346
 20
-491.9947
 30
0.0
 10
-458.0225
 20
-447.7623
 30
0.0
 10
-505.3575
 20
-415.5966
 30
0.0
 10
-505.3575
 20
-415.5966
 30
0.0
 10
-562.4796
 20
-493.8376
 30
0.0
 10
-612.753
 20
-438.6466
 30
0.0
 10
-664.0056
 20
-366.4959
 30
0.0
 10
-522.8204
 20
-350.8224
 30
0.0
 10
-609.8146
 20
-288.4821
 30
0.0
 10
-608.8377
 20
-288.4657
 30
0.0
 10
-590.5621
 20
-196.4632
 30
0.0
 10
-496.7029
 20
-221.03
 30
0.0
 10
-501.5973
 20
-225.032
 30
0.0
 10
-509.2749
 20
-152.397
 30
0.0
 10
-431.9031
 20
-96.5276
 30
0.0
 10
-431.8448
 20
-96.5704
 30
0.0
 10
-431.7882
 20
-96.6067
 30
0.0
 10
-431.7389
 20
-96.6494
 30
0.0
 10
-431.6914
 20
-96.6067
 30
0.0
 10
-431.6329
 20
-96.5704
 30
0.0
 10
-431.5744
 20
-96.5276
 30
0.0
  0
SPLINE
  5
82
330
1F
100
AcDbEntity
  8
Layer 1
 62
   250
370
     0
100
AcDbSpline
210
0.0
220
0.0
230
1.0
 70
    11
 71
     3
 72
    29
 73
    25
 74
     0
 42
0.0000000001
 43
0.0000000001
 40
0.0
 40
0.0
 40
0.0
 40
0.0
 40
0.125
 40
0.125
 40
0.125
 40
0.25
 40
0.25
 40
0.25
 40
0.375
 40
0.375
 40
0.375
 40
0.5
 40
0.5
 40
0.5
 40
0.625
 40
0.625
 40
0.625
 40
0.75
 40
0.75
 40
0.75
 40
0.875
 40
0.875
 40
0.875
 40
1.0
 40
1.0
 40
1.0
 40
1.0
 10
336.8244
 20
-488.2283
 30
0.0
 10
337.1185
 20
-488.7964
 30
0.0
 10
337.407
 20
-489.3498
 30
0.0
 10
337.7102
 20
-489.9179
 30
0.0
 10
338.0133
 20
-489.3498
 30
0.0
 10
338.3019
 20
-488.7964
 30
0.0
 10
338.5996
 20
-488.2283
 30
0.0
 10
358.8603
 20
-536.9074
 30
0.0
 10
390.4967
 20
-572.7884
 30
0.0
 10
438.6901
 20
-590.0266
 30
0.0
 10
438.6901
 20
-590.0266
 30
0.0
 10
344.2153
 20
-590.0266
 30
0.0
 10
344.2153
 20
-590.0266
 30
0.0
 10
344.2153
 20
-590.0266
 30
0.0
 10
337.7102
 20
-590.0266
 30
0.0
 10
337.7102
 20
-590.0266
 30
0.0
 10
337.7102
 20
-590.0266
 30
0.0
 10
331.2068
 20
-590.0266
 30
0.0
 10
331.2068
 20
-590.0266
 30
0.0
 10
331.2068
 20
-590.0266
 30
0.0
 10
236.7304
 20
-590.0266
 30
0.0
 10
236.7304
 20
-590.0266
 30
0.0
 10
284.9255
 20
-572.7884
 30
0.0
 10
316.5621
 20
-536.9074
 30
0.0
 10
336.8244
 20
-488.2283
 30
0.0
  0
SPLINE
  5
83
330
1F
100
AcDbEntity
  8
Layer 1
 62
   250
370
     0
100
AcDbSpline
210
0.0
220
0.0
230
1.0
 70
    11
 71
     3
 72
    65
 73
    61
 74
     0
 42
0.0000000001
 43
0.0000000001
 40
0.0
 40
0.0
 40
0.0
 40
0.0
 40
0.05
 40
0.05
 40
0.05
 40
0.1
 40
0.1
 40
0.1
 40
0.15
 40
0.15
 40
0.15
 40
0.2
 40
0.2
 40
0.2
 40
0.25
 40
0.25
 40
0.25
 40
0.3
 40
0.3
 40
0.3
 40
0.35
 40
0.35
 40
0.35
 40
0.4
 40
0.4
 40
0.4
 40
0.45
 40
0.45
 40
0.45
 40
0.5
 40
0.5
 40
0.5
 40
0.55
 40
0.55
 40
0.55
 40
0.6000000000000001
 40
0.6000000000000001
 40
0.6000000000000001
 40
0.65
 40
0.65
 40
0.65
 40
0.7000000000000001
 40
0.7000000000000001
 40
0.7000000000000001
 40
0.75
 40
0.75
 40
0.75
 40
0.8
 40
0.8
 40
0.8
 40
0.8500000000000001
 40
0.8500000000000001
 40
0.8500000000000001
 40
0.9
 40
0.9
 40
0.9
 40
0.9500000000000001
 40
0.9500000000000001
 40
0.9500000000000001
 40
1.0
 40
1.0
 40
1.0
 40
1.0
 10
337.8764
 20
-96.5276
 30
0.0
 10
415.2463
 20
-152.397
 30
0.0
 10
407.5667
 20
-225.032
 30
0.0
 10
402.6743
 20
-221.03
 30
0.0
 10
496.5317
 20
-196.4632
 30
0.0
 10
514.8089
 20
-288.4657
 30
0.0
 10
515.786
 20
-288.4821
 30
0.0
 10
428.7935
 20
-350.8224
 30
0.0
 10
569.9768
 20
-366.4959
 30
0.0
 10
518.7263
 20
-438.6466
 30
0.0
 10
468.451
 20
-493.8376
 30
0.0
 10
411.3289
 20
-415.5966
 30
0.0
 10
411.3289
 20
-415.5966
 30
0.0
 10
363.992
 20
-447.7623
 30
0.0
 10
412.306
 20
-491.9947
 30
0.0
 10
411.3289
 20
-491.4232
 30
0.0
 10
436.462
 20
-516.5451
 30
0.0
 10
560.3451
 20
-589.1899
 30
0.0
 10
641.468
 20
-445.002
 30
0.0
 10
639.5139
 20
-450.6164
 30
0.0
 10
544.8438
 20
-426.6671
 30
0.0
 10
629.8839
 20
-341.0991
 30
0.0
 10
652.3361
 20
-357.9633
 30
0.0
 10
555.1513
 20
-206.282
 30
0.0
 10
337.8764
 20
-30.7487
 30
0.0
 10
337.8179
 20
-30.7932
 30
0.0
 10
337.7687
 20
-30.8458
 30
0.0
 10
337.7102
 20
-30.8903
 30
0.0
 10
337.6517
 20
-30.8458
 30
0.0
 10
337.6043
 20
-30.7932
 30
0.0
 10
337.5458
 20
-30.7487
 30
0.0
 10
120.2692
 20
-206.282
 30
0.0
 10
23.0843
 20
-357.9633
 30
0.0
 10
45.5364
 20
-341.0991
 30
0.0
 10
130.5767
 20
-426.6671
 30
0.0
 10
35.9065
 20
-450.6164
 30
0.0
 10
33.9542
 20
-445.002
 30
0.0
 10
115.0752
 20
-589.1899
 30
0.0
 10
238.9584
 20
-516.5451
 30
0.0
 10
264.0914
 20
-491.4232
 30
0.0
 10
263.1162
 20
-491.9947
 30
0.0
 10
311.4266
 20
-447.7623
 30
0.0
 10
264.0914
 20
-415.5966
 30
0.0
 10
264.0914
 20
-415.5966
 30
0.0
 10
206.9713
 20
-493.8376
 30
0.0
 10
156.6959
 20
-438.6466
 30
0.0
 10
105.4435
 20
-366.4959
 30
0.0
 10
246.6287
 20
-350.8224
 30
0.0
 10
159.6343
 20
-288.4821
 30
0.0
 10
160.6114
 20
-288.4657
 30
0.0
 10
178.8887
 20
-196.4632
 30
0.0
 10
272.7462
 20
-221.03
 30
0.0
 10
267.8535
 20
-225.032
 30
0.0
 10
260.1759
 20
-152.397
 30
0.0
 10
337.5458
 20
-96.5276
 30
0.0
 10
337.6043
 20
-96.5704
 30
0.0
 10
337.6609
 20
-96.6067
 30
0.0
 10
337.7102
 20
-96.6494
 30
0.0
 10
337.7594
 20
-96.6067
 30
0.0
 10
337.8179
 20
-96.5704
 30
0.0
 10
337.8764
 20
-96.5276
 30
0.0
  0
SPLINE
  5
84
330
1F
100
AcDbEntity
  8
Layer 1
 62
   250
370
     0
100
AcDbSpline
210
0.0
220
0.0
230
1.0
 70
    11
 71
     3
 72
    20
 73
    16
 74
     0
 42
0.0000000001
 43
0.0000000001
 40
0.0
 40
0.0
 40
0.0
 40
0.0
 40
0.2
 40
0.2
 40
0.2
 40
0.4
 40
0.4
 40
0.4
 40
0.6000000000000001
 40
0.6000000000000001
 40
0.6000000000000001
 40
0.8
 40
0.8
 40
0.8
 40
1.0
 40
1.0
 40
1.0
 40
1.0
 10
90.1412
 20
-160.4882
 30
0.0
 10
49.8373
 20
-202.1219
 30
0.0
 10
11.6482
 20
-246.9704
 30
0.0
 10
-25.1439
 20
-296.524
 30
0.0
 10
-39.8964
 20
-317.7509
 30
0.0
 10
-54.649
 20
-319.1195
 30
0.0
 10
-69.4016
 20
-296.524
 30
0.0
 10
-107.8593
 20
-244.7257
 30
0.0
 10
-147.6427
 20
-197.7906
 30
0.0
 10
-189.7637
 20
-154.2844
 30
0.0
 10
-150.035
 20
-183.092
 30
0.0
 10
-99.8127
 20
-200.3466
 30
0.0
 10
-45.3151
 20
-200.3466
 30
0.0
 10
5.1503
 20
-200.3466
 30
0.0
 10
51.9503
 20
-185.5541
 30
0.0
 10
90.1412
 20
-160.4882
 30
0.0
  0
SPLINE
  5
85
330
1F
100
AcDbEntity
  8
Layer 1
 62
   250
370
     0
100
AcDbSpline
210
0.0
220
0.0
230
1.0
 70
    11
 71
     3
 72
    20
 73
    16
 74
     0
 42
0.0000000001
 43
0.0000000001
 40
0.0
 40
0.0
 40
0.0
 40
0.0
 40
0.2
 40
0.2
 40
0.2
 40
0.4
 40
0.4
 40
0.4
 40
0.6000000000000001
 40
0.6000000000000001
 40
0.6000000000000001
 40
0.8
 40
0.8
 40
0.8
 40
1.0
 40
1.0
 40
1.0
 40
1.0
 10
-682.4436
 20
-160.4882
 30
0.0
 10
-722.7474
 20
-202.1219
 30
0.0
 10
-760.9366
 20
-246.9704
 30
0.0
 10
-797.7267
 20
-296.524
 30
0.0
 10
-812.4812
 20
-317.7509
 30
0.0
 10
-827.2338
 20
-319.1195
 30
0.0
 10
-841.9864
 20
-296.524
 30
0.0
 10
-880.4439
 20
-244.7257
 30
0.0
 10
-920.2273
 20
-197.7906
 30
0.0
 10
-962.3485
 20
-154.2844
 30
0.0
 10
-922.6198
 20
-183.092
 30
0.0
 10
-872.3973
 20
-200.3466
 30
0.0
 10
-817.8997
 20
-200.3466
 30
0.0
 10
-767.4343
 20
-200.3466
 30
0.0
 10
-720.6344
 20
-185.5541
 30
0.0
 10
-682.4436
 20
-160.4882
 30
0.0
  0
SPLINE
  5
86
330
1F
100
AcDbEntity
  8
Layer 1
 62
   250
370
     0
100
AcDbSpline
210
0.0
220
0.0
230
1.0
 70
    11
 71
     3
 72
    32
 73
    28
 74
     0
 42
0.0000000001
 43
0.0000000001
 40
0.0
 40
0.0
 40
0.0
 40
0.0
 40
0.1111111111111111
 40
0.1111111111111111
 40
0.1111111111111111
 40
0.2222222222222222
 40
0.2222222222222222
 40
0.2222222222222222
 40
0.3333333333333333
 40
0.3333333333333333
 40
0.3333333333333333
 40
0.4444444444444444
 40
0.4444444444444444
 40
0.4444444444444444
 40
0.5555555555555556
 40
0.5555555555555556
 40
0.5555555555555556
 40
0.6666666666666666
 40
0.6666666666666666
 40
0.6666666666666666
 40
0.7777777777777777
 40
0.7777777777777777
 40
0.7777777777777777
 40
0.8888888888888888
 40
0.8888888888888888
 40
0.8888888888888888
 40
1.0
 40
1.0
 40
1.0
 40
1.0
 10
-1200.05
 20
-98.6142
 30
0.0
 10
-1125.71
 20
-154.1872
 30
0.0
 10
-1133.247
 20
-224.9826
 30
0.0
 10
-1138.0811
 20
-221.03
 30
0.0
 10
-1044.2218
 20
-196.4632
 30
0.0
 10
-1025.9464
 20
-288.4657
 30
0.0
 10
-1024.9694
 20
-288.4821
 30
0.0
 10
-1111.9619
 20
-350.8224
 30
0.0
 10
-970.7784
 20
-366.4959
 30
0.0
 10
-1022.0291
 20
-438.6466
 30
0.0
 10
-1072.3044
 20
-493.8376
 30
0.0
 10
-1129.4264
 20
-415.5966
 30
0.0
 10
-1129.4264
 20
-415.5966
 30
0.0
 10
-1176.7615
 20
-447.7623
 30
0.0
 10
-1128.4494
 20
-491.9947
 30
0.0
 10
-1129.4264
 20
-491.4232
 30
0.0
 10
-1104.2934
 20
-516.5451
 30
0.0
 10
-980.4084
 20
-589.1899
 30
0.0
 10
-899.2874
 20
-445.002
 30
0.0
 10
-901.2415
 20
-450.6164
 30
0.0
 10
-995.9116
 20
-426.6671
 30
0.0
 10
-910.8713
 20
-341.0991
 30
0.0
 10
-888.5161
 20
-357.8892
 30
0.0
 10
-984.7713
 20
-207.6028
 30
0.0
 10
-1200.05
 20
-33.0494
 30
0.0
 10
-1200.05
 20
-33.0494
 30
0.0
 10
-1200.05
 20
-98.6142
 30
0.0
 10
-1200.05
 20
-98.6142
 30
0.0
  0
SPLINE
  5
87
330
1F
100
AcDbEntity
  8
Layer 1
 62
   250
370
     0
100
AcDbSpline
210
0.0
220
0.0
230
1.0
 70
    11
 71
     3
 72
    26
 73
    22
 74
     0
 42
0.0000000001
 43
0.0000000001
 40
0.0
 40
0.0
 40
0.0
 40
0.0
 40
0.1428571428571428
 40
0.1428571428571428
 40
0.1428571428571428
 40
0.2857142857142857
 40
0.2857142857142857
 40
0.2857142857142857
 40
0.4285714285714285
 40
0.4285714285714285
 40
0.4285714285714285
 40
0.5714285714285714
 40
0.5714285714285714
 40
0.5714285714285714
 40
0.7142857142857142
 40
0.7142857142857142
 40
0.7142857142857142
 40
0.8571428571428571
 40
0.8571428571428571
 40
0.8571428571428571
 40
1.0
 40
1.0
 40
1.0
 40
1.0
 10
-1200.05
 20
-488.3386
 30
0.0
 10
-1199.7743
 20
-488.8689
 30
0.0
 10
-1199.5041
 20
-489.3877
 30
0.0
 10
-1199.221
 20
-489.9179
 30
0.0
 10
-1198.916
 20
-489.3498
 30
0.0
 10
-1198.6293
 20
-488.7964
 30
0.0
 10
-1198.3316
 20
-488.2283
 30
0.0
 10
-1178.0709
 20
-536.9074
 30
0.0
 10
-1146.4345
 20
-572.7884
 30
0.0
 10
-1098.2411
 20
-590.0266
 30
0.0
 10
-1098.2411
 20
-590.0266
 30
0.0
 10
-1192.7158
 20
-590.0266
 30
0.0
 10
-1192.7158
 20
-590.0266
 30
0.0
 10
-1192.7158
 20
-590.0266
 30
0.0
 10
-1199.221
 20
-590.0266
 30
0.0
 10
-1199.221
 20
-590.0266
 30
0.0
 10
-1199.221
 20
-590.0266
 30
0.0
 10
-1200.05
 20
-590.0266
 30
0.0
 10
-1200.05
 20
-590.0266
 30
0.0
 10
-1200.05
 20
-590.0266
 30
0.0
 10
-1200.05
 20
-488.3386
 30
0.0
 10
-1200.05
 20
-488.3386
 30
0.0
  0
ENDSEC
  0
SECTION
  2
OBJECTS
  0
DICTIONARY
  5
C
330
0
100
AcDbDictionary
281
     1
  3
ACAD_DETAILVIEWSTYLE
350
8F
  3
ACAD_GROUP
350
D
  3
ACAD_LAYOUT
350
1A
  3
ACAD_MATERIAL
350
43
  3
ACAD_MLEADERSTYLE
350
5B
  3
ACAD_MLINESTYLE
350
17
  3
ACAD_PLOTSETTINGS
350
19
  3
ACAD_PLOTSTYLENAME
350
E
  3
ACAD_SCALELIST
350
47
  3
ACAD_SECTIONVIEWSTYLE
350
90
  3
ACAD_TABLESTYLE
350
59
  3
ACAD_VISUALSTYLE
350
2A
  3
ACDB_RECOMPOSE_DATA
350
8C
  3
AcDbVariableDictionary
350
88
  0
SUN
  5
5D
330
29
100
AcDbSun
 90
        1
290
     0
 63
     7
421
 16777215
 40
1.0
291
     1
 91
  2455826
 92
 54000000
292
     0
 70
     2
 71
   256
280
     1
  0
DICTIONARY
  5
8F
102
{ACAD_REACTORS
330
C
102
}
330
C
100
AcDbDictionary
281
     1
  0
DICTIONARY
  5
D
102
{ACAD_REACTORS
330
C
102
}
330
C
100
AcDbDictionary
281
     1
  0
DICTIONARY
  5
1A
102
{ACAD_REACTORS
330
C
102
}
330
C
100
AcDbDictionary
281
     1
  3
Layout1
350
1E
  3
Layout2
350
26
  3
Model
350
22
  0
DICTIONARY
  5
43
102
{ACAD_REACTORS
330
C
102
}
330
C
100
AcDbDictionary
281
     1
  3
ByBlock
350
45
  3
ByLayer
350
44
  3
Global
350
46
  0
DICTIONARY
  5
5B
102
{ACAD_REACTORS
330
C
102
}
330
C
100
AcDbDictionary
281
     1
  3
Standard
350
5C
  0
DICTIONARY
  5
17
102
{ACAD_REACTORS
330
C
102
}
330
C
100
AcDbDictionary
281
     1
  3
Standard
350
18
  0
DICTIONARY
  5
19
102
{ACAD_REACTORS
330
C
102
}
330
C
100
AcDbDictionary
281
     1
  0
ACDBDICTIONARYWDFLT
  5
E
102
{ACAD_REACTORS
330
C
102
}
330
C
100
AcDbDictionary
281
     1
  3
Normal
350
F
100
AcDbDictionaryWithDefault
340
F
  0
DICTIONARY
  5
47
102
{ACAD_REACTORS
330
C
102
}
330
C
100
AcDbDictionary
281
     1
  3
A0
350
48
  3
A1
350
49
  3
A2
350
4A
  3
A3
350
4B
  3
A4
350
4C
  3
A5
350
4D
  3
A6
350
4E
  3
A7
350
4F
  3
A8
350
50
  3
A9
350
51
  3
B1
350
52
  3
B2
350
53
  3
B3
350
54
  3
B4
350
55
  3
B5
350
56
  3
B6
350
57
  3
B7
350
58
  0
DICTIONARY
  5
90
102
{ACAD_REACTORS
330
C
102
}
330
C
100
AcDbDictionary
281
     1
  0
DICTIONARY
  5
59
102
{ACAD_REACTORS
330
C
102
}
330
C
100
AcDbDictionary
281
     1
  3
Standard
350
5A
  0
DICTIONARY
  5
2A
102
{ACAD_REACTORS
330
C
102
}
330
C
100
AcDbDictionary
281
     1
  3
2dWireframe
350
2F
  3
Basic
350
32
  3
Brighten
350
36
  3
ColorChange
350
3A
  3
Conceptual
350
34
  3
Dim
350
35
  3
EdgeColorOff
350
3D
  3
Facepattern
350
39
  3
Flat
350
2B
  3
FlatWithEdges
350
2C
  3
Gouraud
350
2D
  3
GouraudWithEdges
350
2E
  3
Hidden
350
31
  3
JitterOff
350
3B
  3
Linepattern
350
38
  3
OverhangOff
350
3C
  3
Realistic
350
33
  3
Shaded
350
42
  3
Shaded with edges
350
41
  3
Shades of Gray
350
3E
  3
Sketchy
350
3F
  3
Thicken
350
37
  3
Wireframe
350
30
  3
X-Ray
350
40
  0
XRECORD
  5
8C
102
{ACAD_REACTORS
330
C
102
}
330
C
100
AcDbXrecord
280
     1
 90
        1
330
5A
  0
DICTIONARY
  5
88
102
{ACAD_REACTORS
330
C
102
}
330
C
100
AcDbDictionary
281
     1
  3
CANNOSCALE
350
89
  3
CMLEADERSTYLE
350
8E
  3
CTABLESTYLE
350
8D
  0
LAYOUT
  5
1E
102
{ACAD_REACTORS
330
1A
102
}
330
1A
100
AcDbPlotSettings
  1

  2
none_device
  4

  6

 40
0.0
 41
0.0
 42
0.0
 43
0.0
 44
0.0
 45
0.0
 46
0.0
 47
0.0
 48
0.0
 49
0.0
140
0.0
141
0.0
142
1.0
143
1.0
 70
   688
 72
     0
 73
     0
 74
     5
  7

 75
    16
 76
     0
 77
     2
 78
   300
147
1.0
148
0.0
149
0.0
100
AcDbLayout
  1
Layout1
 70
     1
 71
     1
 10
0.0
 20
0.0
 11
12.0
 21
9.0
 12
0.0
 22
0.0
 32
0.0
 14
1.000000000000000E+20
 24
1.000000000000000E+20
 34
1.000000000000000E+20
 15
-1.000000000000000E+20
 25
-1.000000000000000E+20
 35
-1.000000000000000E+20
146
0.0
 13
0.0
 23
0.0
 33
0.0
 16
1.0
 26
0.0
 36
0.0
 17
0.0
 27
1.0
 37
0.0
 76
     0
330
1B
  0
LAYOUT
  5
26
102
{ACAD_REACTORS
330
1A
102
}
330
1A
100
AcDbPlotSettings
  1

  2
none_device
  4

  6

 40
0.0
 41
0.0
 42
0.0
 43
0.0
 44
0.0
 45
0.0
 46
0.0
 47
0.0
 48
0.0
 49
0.0
140
0.0
141
0.0
142
1.0
143
1.0
 70
   688
 72
     0
 73
     0
 74
     5
  7

 75
    16
 76
     0
 77
     2
 78
   300
147
1.0
148
0.0
149
0.0
100
AcDbLayout
  1
Layout2
 70
     1
 71
     2
 10
0.0
 20
0.0
 11
0.0
 21
0.0
 12
0.0
 22
0.0
 32
0.0
 14
0.0
 24
0.0
 34
0.0
 15
0.0
 25
0.0
 35
0.0
146
0.0
 13
0.0
 23
0.0
 33
0.0
 16
1.0
 26
0.0
 36
0.0
 17
0.0
 27
1.0
 37
0.0
 76
     0
330
23
  0
LAYOUT
  5
22
102
{ACAD_REACTORS
330
1A
102
}
330
1A
100
AcDbPlotSettings
  1

  2
none_device
  4
Letter_(8.50_x_11.00_Inches)
  6

 40
6.35
 41
6.35
 42
6.35000508
 43
6.35000508
 44
215.9
 45
279.4
 46
0.0
 47
0.0
 48
0.0
 49
0.0
140
0.0
141
0.0
142
1.0
143
1.0
 70
  1712
 72
     0
 73
     0
 74
     0
  7

 75
     0
 76
     0
 77
     2
 78
   300
147
1.0
148
0.0
149
0.0
100
AcDbLayout
  1
Model
 70
     1
 71
     0
 10
0.0
 20
0.0
 11
12.0
 21
9.0
 12
0.0
 22
0.0
 32
0.0
 14
-1200.055
 24
-590.0316
 34
0.0
 15
1199.955
 25
589.9784
 35
0.0
146
0.0
 13
0.0
 23
0.0
 33
0.0
 16
1.0
 26
0.0
 36
0.0
 17
0.0
 27
1.0
 37
0.0
 76
     0
330
1F
331
29
  0
MATERIAL
  5
45
102
{ACAD_REACTORS
330
43
102
}
330
43
100
AcDbMaterial
  1
ByBlock
 72
     1
 94
      127
  0
MATERIAL
  5
44
102
{ACAD_REACTORS
330
43
102
}
330
43
100
AcDbMaterial
  1
ByLayer
 72
     1
 94
      127
  0
MATERIAL
  5
46
102
{ACAD_REACTORS
330
43
102
}
330
43
100
AcDbMaterial
  1
Global
 72
     1
 94
      127
  0
MLEADERSTYLE
  5
5C
102
{ACAD_REACTORS
330
5B
102
}
330
5B
100
AcDbMLeaderStyle
179
     2
170
     2
171
     1
172
     0
 90
        2
 40
0.0
 41
0.0
173
     1
 91
-1056964608
340
14
 92
       -2
290
     1
 42
0.09
291
     1
 43
0.36
  3
Standard
341
0
 44
0.18
300

342
11
174
     1
178
     6
175
     1
176
     0
 93
-1056964608
 45
0.18
292
     0
297
     0
 46
0.18
343
0
 94
-1056964608
 47
1.0
 49
1.0
140
1.0
293
     1
141
0.0
294
     1
177
     0
142
1.0
295
     0
296
     0
143
0.125
271
     0
272
     9
273
     9
298
     0
  0
MLINESTYLE
  5
18
102
{ACAD_REACTORS
330
17
102
}
330
17
100
AcDbMlineStyle
  2
Standard
 70
     0
  3

 62
   256
 51
90.0
 52
90.0
 71
     2
 49
0.5
 62
   256
  6
BYLAYER
 49
-0.5
 62
   256
  6
BYLAYER
  0
ACDBPLACEHOLDER
  5
F
102
{ACAD_REACTORS
330
E
102
}
330
E
  0
SCALE
  5
48
102
{ACAD_REACTORS
330
47
102
}
330
47
100
AcDbScale
 70
     0
300
1:1
140
1.0
141
1.0
290
     1
  0
SCALE
  5
49
102
{ACAD_REACTORS
330
47
102
}
330
47
100
AcDbScale
 70
     0
300
1/128" = 1'-0"
140
0.0078125
141
12.0
290
     0
  0
SCALE
  5
4A
102
{ACAD_REACTORS
330
47
102
}
330
47
100
AcDbScale
 70
     0
300
1/64" = 1'-0"
140
0.015625
141
12.0
290
     0
  0
SCALE
  5
4B
102
{ACAD_REACTORS
330
47
102
}
330
47
100
AcDbScale
 70
     0
300
1/32" = 1'-0"
140
0.03125
141
12.0
290
     0
  0
SCALE
  5
4C
102
{ACAD_REACTORS
330
47
102
}
330
47
100
AcDbScale
 70
     0
300
1/16" = 1'-0"
140
0.0625
141
12.0
290
     0
  0
SCALE
  5
4D
102
{ACAD_REACTORS
330
47
102
}
330
47
100
AcDbScale
 70
     0
300
3/32" = 1'-0"
140
0.09375
141
12.0
290
     0
  0
SCALE
  5
4E
102
{ACAD_REACTORS
330
47
102
}
330
47
100
AcDbScale
 70
     0
300
1/8" = 1'-0"
140
0.125
141
12.0
290
     0
  0
SCALE
  5
4F
102
{ACAD_REACTORS
330
47
102
}
330
47
100
AcDbScale
 70
     0
300
3/16" = 1'-0"
140
0.1875
141
12.0
290
     0
  0
SCALE
  5
50
102
{ACAD_REACTORS
330
47
102
}
330
47
100
AcDbScale
 70
     0
300
1/4" = 1'-0"
140
0.25
141
12.0
290
     0
  0
SCALE
  5
51
102
{ACAD_REACTORS
330
47
102
}
330
47
100
AcDbScale
 70
     0
300
3/8" = 1'-0"
140
0.375
141
12.0
290
     0
  0
SCALE
  5
52
102
{ACAD_REACTORS
330
47
102
}
330
47
100
AcDbScale
 70
     0
300
1/2" = 1'-0"
140
0.5
141
12.0
290
     0
  0
SCALE
  5
53
102
{ACAD_REACTORS
330
47
102
}
330
47
100
AcDbScale
 70
     0
300
3/4" = 1'-0"
140
0.75
141
12.0
290
     0
  0
SCALE
  5
54
102
{ACAD_REACTORS
330
47
102
}
330
47
100
AcDbScale
 70
     0
300
1" = 1'-0"
140
1.0
141
12.0
290
     0
  0
SCALE
  5
55
102
{ACAD_REACTORS
330
47
102
}
330
47
100
AcDbScale
 70
     0
300
1-1/2" = 1'-0"
140
1.5
141
12.0
290
     0
  0
SCALE
  5
56
102
{ACAD_REACTORS
330
47
102
}
330
47
100
AcDbScale
 70
     0
300
3" = 1'-0"
140
3.0
141
12.0
290
     0
  0
SCALE
  5
57
102
{ACAD_REACTORS
330
47
102
}
330
47
100
AcDbScale
 70
     0
300
6" = 1'-0"
140
6.0
141
12.0
290
     0
  0
SCALE
  5
58
102
{ACAD_REACTORS
330
47
102
}
330
47
100
AcDbScale
 70
     0
300
1'-0" = 1'-0"
140
12.0
141
12.0
290
     0
  0
TABLESTYLE
  5
5A
102
{ACAD_REACTORS
330
59
102
}
102
{ACAD_XDICTIONARY
360
8A
102
}
330
59
100
AcDbTableStyle
  3
Standard
 70
     0
 71
     0
 40
0.06
 41
0.06
280
     0
281
     0
  7
Standard
140
0.18
170
     2
 62
     0
 63
   257
283
     0
 90
        4
 91
        0
  1

274
    -2
284
     1
 64
     0
275
    -2
285
     1
 65
     0
276
    -2
286
     1
 66
     0
277
    -2
287
     1
 67
     0
278
    -2
288
     1
 68
     0
279
    -2
289
     1
 69
     0
  7
Standard
140
0.25
170
     5
 62
     0
 63
   257
283
     0
 90
        4
 91
        0
  1

274
    -2
284
     1
 64
     0
275
    -2
285
     1
 65
     0
276
    -2
286
     1
 66
     0
277
    -2
287
     1
 67
     0
278
    -2
288
     1
 68
     0
279
    -2
289
     1
 69
     0
  7
Standard
140
0.18
170
     5
 62
     0
 63
   257
283
     0
 90
        4
 91
        0
  1

274
    -2
284
     1
 64
     0
275
    -2
285
     1
 65
     0
276
    -2
286
     1
 66
     0
277
    -2
287
     1
 67
     0
278
    -2
288
     1
 68
     0
279
    -2
289
     1
 69
     0
  0
VISUALSTYLE
  5
2F
102
{ACAD_REACTORS
330
2A
102
}
330
2A
100
AcDbVisualStyle
  2
2dWireframe
 70
     4
177
     3
291
     0
 70
    58
 90
        0
176
     1
 90
        2
176
     1
 90
        0
176
     1
 90
        0
176
     1
 40
0.6
176
     1
 40
30.0
176
     1
 62
     7
420
 16777215
176
     1
 90
        1
176
     1
 90
        4
176
     1
 62
     7
176
     1
 62
   257
176
     1
 90
        1
176
     1
 90
        1
176
     1
 40
1.0
176
     1
 90
        0
176
     1
 62
   257
176
     1
 40
1.0
176
     1
 90
        1
176
     1
 90
        6
176
     1
 90
        2
176
     1
 62
     7
176
     1
 90
        5
176
     1
 90
        0
176
     1
 90
        0
176
     1
290
     0
176
     1
 90
        1
176
     1
 40
0.0
176
     1
 90
        0
176
     1
290
     1
176
     1
290
     1
176
     1
290
     0
176
     1
290
     0
176
     1
290
     0
176
     1
290
     0
176
     1
290
     0
176
     1
290
     0
176
     1
290
     0
176
     1
 90
       50
176
     1
 40
0.0
176
     1
 40
1.0
176
     1
 90
        0
176
     1
 62
    18
420
        0
176
     1
 90
       50
176
     1
 90
        3
176
     1
 62
     5
420
      255
176
     1
290
     0
176
     1
 90
       50
176
     1
 90
       50
176
     1
 90
       50
176
     1
290
     0
176
     1
 90
       50
176
     1
 62
   256
176
     0
 40
1.0
176
     0
 90
        2
176
     1
  1
strokes_ogs.tif
176
     1
290
     0
176
     1
 40
1.0
176
     1
 40
1.0
176
     1
  0
VISUALSTYLE
  5
32
102
{ACAD_REACTORS
330
2A
102
}
330
2A
100
AcDbVisualStyle
  2
Basic
 70
     7
177
     3
291
     1
 70
    58
 90
        1
176
     1
 90
        0
176
     1
 90
        1
176
     1
 90
        0
176
     1
 40
0.6
176
     1
 40
30.0
176
     1
 62
     7
420
 16777215
176
     1
 90
        0
176
     1
 90
        4
176
     1
 62
     7
176
     1
 62
   257
176
     1
 90
        1
176
     1
 90
        1
176
     1
 40
1.0
176
     1
 90
        8
176
     1
 62
     7
176
     1
 40
1.0
176
     1
 90
        1
176
     1
 90
        6
176
     1
 90
        2
176
     1
 62
     7
176
     1
 90
        5
176
     1
 90
        0
176
     1
 90
        0
176
     1
290
     0
176
     1
 90
        1
176
     1
 40
0.0
176
     1
 90
        0
176
     1
290
     0
176
     1
290
     1
176
     1
290
     1
176
     1
290
     0
176
     1
290
     0
176
     1
290
     0
176
     1
290
     0
176
     1
290
     0
176
     1
290
     0
176
     1
 90
       50
176
     1
 40
0.0
176
     1
 40
1.0
176
     1
 90
        0
176
     1
 62
    18
420
        0
176
     1
 90
       50
176
     1
 90
        3
176
     1
 62
     5
420
      255
176
     1
290
     0
176
     1
 90
       50
176
     1
 90
       50
176
     1
 90
       50
176
     1
290
     0
176
     1
 90
       50
176
     1
 62
   256
176
     0
 40
1.0
176
     0
 90
        2
176
     1
  1
strokes_ogs.tif
176
     1
290
     0
176
     1
 40
1.0
176
     1
 40
1.0
176
     1
  0
VISUALSTYLE
  5
36
102
{ACAD_REACTORS
330
2A
102
}
330
2A
100
AcDbVisualStyle
  2
Brighten
 70
    12
177
     3
291
     1
 70
    58
 90
        2
176
     1
 90
        2
176
     1
 90
        0
176
     1
 90
        0
176
     1
 40
0.6
176
     1
 40
30.0
176
     1
 62
     7
420
 16777215
176
     1
 90
        1
176
     1
 90
        4
176
     1
 62
     7
176
     1
 62
   257
176
     1
 90
        1
176
     1
 90
        1
176
     1
 40
1.0
176
     1
 90
        8
176
     1
 62
     7
176
     1
 40
1.0
176
     1
 90
        1
176
     1
 90
        6
176
     1
 90
        2
176
     1
 62
     7
176
     1
 90
        5
176
     1
 90
        0
176
     1
 90
        0
176
     1
290
     0
176
     1
 90
        1
176
     1
 40
50.0
176
     1
 90
        0
176
     1
290
     0
176
     1
290
     1
176
     1
290
     1
176
     1
290
     0
176
     1
290
     0
176
     1
290
     0
176
     1
290
     0
176
     1
290
     0
176
     1
290
     0
176
     1
 90
       50
176
     1
 40
0.0
176
     1
 40
1.0
176
     1
 90
        0
176
     1
 62
    18
420
        0
176
     1
 90
       50
176
     1
 90
        3
176
     1
 62
     5
420
      255
176
     1
290
     0
176
     1
 90
       50
176
     1
 90
       50
176
     1
 90
       50
176
     1
290
     0
176
     1
 90
       50
176
     1
 62
   256
176
     0
 40
1.0
176
     0
 90
        2
176
     1
  1
strokes_ogs.tif
176
     1
290
     0
176
     1
 40
1.0
176
     1
 40
1.0
176
     1
  0
VISUALSTYLE
  5
3A
102
{ACAD_REACTORS
330
2A
102
}
330
2A
100
AcDbVisualStyle
  2
ColorChange
 70
    16
177
     3
291
     1
 70
    58
 90
        2
176
     1
 90
        2
176
     1
 90
        3
176
     1
 90
        0
176
     1
 40
0.6
176
     1
 40
30.0
176
     1
 62
     8
420
  8421504
176
     1
 90
        1
176
     1
 90
        4
176
     1
 62
     7
176
     1
 62
   257
176
     1
 90
        1
176
     1
 90
        1
176
     1
 40
1.0
176
     1
 90
        8
176
     1
 62
     8
420
  8421504
176
     1
 40
1.0
176
     1
 90
        1
176
     1
 90
        6
176
     1
 90
        2
176
     1
 62
     7
176
     1
 90
        5
176
     1
 90
        0
176
     1
 90
        0
176
     1
290
     0
176
     1
 90
        1
176
     1
 40
0.0
176
     1
 90
        0
176
     1
290
     0
176
     1
290
     1
176
     1
290
     1
176
     1
290
     0
176
     1
290
     0
176
     1
290
     0
176
     1
290
     0
176
     1
290
     0
176
     1
290
     0
176
     1
 90
       50
176
     1
 40
0.0
176
     1
 40
1.0
176
     1
 90
        0
176
     1
 62
    18
420
        0
176
     1
 90
       50
176
     1
 90
        3
176
     1
 62
     5
420
      255
176
     1
290
     0
176
     1
 90
       50
176
     1
 90
       50
176
     1
 90
       50
176
     1
290
     0
176
     1
 90
       50
176
     1
 62
   256
176
     0
 40
1.0
176
     0
 90
        2
176
     1
  1
strokes_ogs.tif
176
     1
290
     0
176
     1
 40
1.0
176
     1
 40
1.0
176
     1
  0
VISUALSTYLE
  5
34
102
{ACAD_REACTORS
330
2A
102
}
330
2A
100
AcDbVisualStyle
  2
Conceptual
 70
     9
177
     3
291
     0
 70
    58
 90
        3
176
     1
 90
        2
176
     1
 90
        0
176
     1
 90
        0
176
     1
 40
0.6
176
     1
 40
30.0
176
     1
 62
     7
420
 16777215
176
     1
 90
        2
176
     1
 90
        2
176
     1
 62
     7
176
     1
 62
   257
176
     1
 90
        1
176
     1
 90
        1
176
     1
 40
179.0
176
     1
 90
        8
176
     1
 62
     7
176
     1
 40
1.0
176
     1
 90
        1
176
     1
 90
        6
176
     1
 90
        2
176
     1
 62
     7
176
     1
 90
        3
176
     1
 90
        0
176
     1
 90
        0
176
     1
290
     0
176
     1
 90
        1
176
     1
 40
0.0
176
     1
 90
        0
176
     1
290
     0
176
     1
290
     1
176
     1
290
     1
176
     1
290
     0
176
     1
290
     0
176
     1
290
     0
176
     1
290
     0
176
     1
290
     0
176
     1
290
     0
176
     1
 90
       50
176
     1
 40
0.0
176
     1
 40
1.0
176
     1
 90
        0
176
     1
 62
    18
420
        0
176
     1
 90
       50
176
     1
 90
        3
176
     1
 62
     5
420
      255
176
     1
290
     0
176
     1
 90
       50
176
     1
 90
       50
176
     1
 90
       50
176
     1
290
     0
176
     1
 90
       50
176
     1
 62
   256
176
     0
 40
1.0
176
     0
 90
        2
176
     1
  1
strokes_ogs.tif
176
     1
290
     0
176
     1
 40
1.0
176
     1
 40
1.0
176
     1
  0
VISUALSTYLE
  5
35
102
{ACAD_REACTORS
330
2A
102
}
330
2A
100
AcDbVisualStyle
  2
Dim
 70
    11
177
     3
291
     1
 70
    58
 90
        2
176
     1
 90
        2
176
     1
 90
        0
176
     1
 90
        0
176
     1
 40
0.6
176
     1
 40
30.0
176
     1
 62
     7
420
 16777215
176
     1
 90
        1
176
     1
 90
        4
176
     1
 62
     7
176
     1
 62
   257
176
     1
 90
        1
176
     1
 90
        1
176
     1
 40
1.0
176
     1
 90
        8
176
     1
 62
     7
176
     1
 40
1.0
176
     1
 90
        1
176
     1
 90
        6
176
     1
 90
        2
176
     1
 62
     7
176
     1
 90
        5
176
     1
 90
        0
176
     1
 90
        0
176
     1
290
     0
176
     1
 90
        1
176
     1
 40
-50.0
176
     1
 90
        0
176
     1
290
     0
176
     1
290
     1
176
     1
290
     1
176
     1
290
     0
176
     1
290
     0
176
     1
290
     0
176
     1
290
     0
176
     1
290
     0
176
     1
290
     0
176
     1
 90
       50
176
     1
 40
0.0
176
     1
 40
1.0
176
     1
 90
        0
176
     1
 62
    18
420
        0
176
     1
 90
       50
176
     1
 90
        3
176
     1
 62
     5
420
      255
176
     1
290
     0
176
     1
 90
       50
176
     1
 90
       50
176
     1
 90
       50
176
     1
290
     0
176
     1
 90
       50
176
     1
 62
   256
176
     0
 40
1.0
176
     0
 90
        2
176
     1
  1
strokes_ogs.tif
176
     1
290
     0
176
     1
 40
1.0
176
     1
 40
1.0
176
     1
  0
VISUALSTYLE
  5
3D
102
{ACAD_REACTORS
330
2A
102
}
330
2A
100
AcDbVisualStyle
  2
EdgeColorOff
 70
    22
177
     3
291
     1
 70
    58
 90
        2
176
     0
 90
        2
176
     0
 90
        0
176
     0
 90
        0
176
     0
 40
0.6
176
     0
 40
30.0
176
     0
 62
     7
420
 16777215
176
     0
 90
        1
176
     0
 90
        4
176
     0
 62
     7
176
     0
 62
   257
176
     0
 90
        1
176
     0
 90
        1
176
     0
 40
1.0
176
     0
 90
        8
176
     2
 62
     7
176
     0
 40
1.0
176
     0
 90
        1
176
     0
 90
        6
176
     0
 90
        2
176
     0
 62
     7
176
     0
 90
        5
176
     0
 90
        0
176
     0
 90
        0
176
     0
290
     0
176
     0
 90
        1
176
     0
 40
0.0
176
     0
 90
        0
176
     0
290
     0
176
     0
290
     1
176
     0
290
     1
176
     0
290
     0
176
     0
290
     0
176
     0
290
     0
176
     0
290
     0
176
     0
290
     0
176
     0
290
     0
176
     0
 90
       50
176
     0
 40
0.0
176
     0
 40
1.0
176
     0
 90
        0
176
     0
 62
    18
420
        0
176
     0
 90
       50
176
     0
 90
        3
176
     0
 62
     5
420
      255
176
     0
290
     0
176
     0
 90
       50
176
     0
 90
       50
176
     0
 90
       50
176
     0
290
     0
176
     0
 90
       50
176
     0
 62
   256
176
     0
 40
1.0
176
     0
 90
        2
176
     0
  1
strokes_ogs.tif
176
     0
290
     0
176
     0
 40
1.0
176
     0
 40
1.0
176
     0
  0
VISUALSTYLE
  5
39
102
{ACAD_REACTORS
330
2A
102
}
330
2A
100
AcDbVisualStyle
  2
Facepattern
 70
    15
177
     3
291
     1
 70
    58
 90
        2
176
     1
 90
        2
176
     1
 90
        0
176
     1
 90
        0
176
     1
 40
0.6
176
     1
 40
30.0
176
     1
 62
     7
420
 16777215
176
     1
 90
        1
176
     1
 90
        4
176
     1
 62
     7
176
     1
 62
   257
176
     1
 90
        1
176
     1
 90
        1
176
     1
 40
1.0
176
     1
 90
        8
176
     1
 62
     7
176
     1
 40
1.0
176
     1
 90
        1
176
     1
 90
        6
176
     1
 90
        2
176
     1
 62
     7
176
     1
 90
        5
176
     1
 90
        0
176
     1
 90
        0
176
     1
290
     0
176
     1
 90
        1
176
     1
 40
0.0
176
     1
 90
        0
176
     1
290
     0
176
     1
290
     1
176
     1
290
     1
176
     1
290
     0
176
     1
290
     0
176
     1
290
     0
176
     1
290
     0
176
     1
290
     0
176
     1
290
     0
176
     1
 90
       50
176
     1
 40
0.0
176
     1
 40
1.0
176
     1
 90
        0
176
     1
 62
    18
420
        0
176
     1
 90
       50
176
     1
 90
        3
176
     1
 62
     5
420
      255
176
     1
290
     0
176
     1
 90
       50
176
     1
 90
       50
176
     1
 90
       50
176
     1
290
     0
176
     1
 90
       50
176
     1
 62
   256
176
     0
 40
1.0
176
     0
 90
        2
176
     1
  1
strokes_ogs.tif
176
     1
290
     0
176
     1
 40
1.0
176
     1
 40
1.0
176
     1
  0
VISUALSTYLE
  5
2B
102
{ACAD_REACTORS
330
2A
102
}
330
2A
100
AcDbVisualStyle
  2
Flat
 70
     0
177
     3
291
     1
 70
    58
 90
        2
176
     1
 90
        1
176
     1
 90
        1
176
     1
 90
        2
176
     1
 40
0.6
176
     1
 40
30.0
176
     1
 62
     7
420
 16777215
176
     1
 90
        0
176
     1
 90
        0
176
     1
 62
     7
176
     1
 62
   257
176
     1
 90
        1
176
     1
 90
        1
176
     1
 40
1.0
176
     1
 90
        8
176
     1
 62
     7
176
     1
 40
1.0
176
     1
 90
        1
176
     1
 90
        6
176
     1
 90
        2
176
     1
 62
     7
176
     1
 90
        5
176
     1
 90
        0
176
     1
 90
        0
176
     1
290
     0
176
     1
 90
       13
176
     1
 40
0.0
176
     1
 90
        0
176
     1
290
     0
176
     1
290
     1
176
     1
290
     1
176
     1
290
     0
176
     1
290
     0
176
     1
290
     0
176
     1
290
     0
176
     1
290
     0
176
     1
290
     0
176
     1
 90
       50
176
     1
 40
0.0
176
     1
 40
1.0
176
     1
 90
        0
176
     1
 62
    18
420
        0
176
     1
 90
       50
176
     1
 90
        3
176
     1
 62
     5
420
      255
176
     1
290
     0
176
     1
 90
       50
176
     1
 90
       50
176
     1
 90
       50
176
     1
290
     0
176
     1
 90
       50
176
     1
 62
   256
176
     0
 40
1.0
176
     0
 90
        2
176
     1
  1
strokes_ogs.tif
176
     1
290
     0
176
     1
 40
1.0
176
     1
 40
1.0
176
     1
  0
VISUALSTYLE
  5
2C
102
{ACAD_REACTORS
330
2A
102
}
330
2A
100
AcDbVisualStyle
  2
FlatWithEdges
 70
     1
177
     3
291
     1
 70
    58
 90
        2
176
     1
 90
        1
176
     1
 90
        1
176
     1
 90
        2
176
     1
 40
0.6
176
     1
 40
30.0
176
     1
 62
     7
420
 16777215
176
     1
 90
        1
176
     1
 90
        0
176
     1
 62
     7
176
     1
 62
   257
176
     1
 90
        1
176
     1
 90
        1
176
     1
 40
1.0
176
     1
 90
        0
176
     1
 62
   257
176
     1
 40
1.0
176
     1
 90
        1
176
     1
 90
        6
176
     1
 90
        2
176
     1
 62
     7
176
     1
 90
        5
176
     1
 90
        0
176
     1
 90
        0
176
     1
290
     0
176
     1
 90
       13
176
     1
 40
0.0
176
     1
 90
        0
176
     1
290
     0
176
     1
290
     1
176
     1
290
     1
176
     1
290
     0
176
     1
290
     0
176
     1
290
     0
176
     1
290
     0
176
     1
290
     0
176
     1
290
     0
176
     1
 90
       50
176
     1
 40
0.0
176
     1
 40
1.0
176
     1
 90
        0
176
     1
 62
    18
420
        0
176
     1
 90
       50
176
     1
 90
        3
176
     1
 62
     5
420
      255
176
     1
290
     0
176
     1
 90
       50
176
     1
 90
       50
176
     1
 90
       50
176
     1
290
     0
176
     1
 90
       50
176
     1
 62
   256
176
     0
 40
1.0
176
     0
 90
        2
176
     1
  1
strokes_ogs.tif
176
     1
290
     0
176
     1
 40
1.0
176
     1
 40
1.0
176
     1
  0
VISUALSTYLE
  5
2D
102
{ACAD_REACTORS
330
2A
102
}
330
2A
100
AcDbVisualStyle
  2
Gouraud
 70
     2
177
     3
291
     1
 70
    58
 90
        2
176
     1
 90
        2
176
     1
 90
        1
176
     1
 90
        2
176
     1
 40
0.6
176
     1
 40
30.0
176
     1
 62
     7
420
 16777215
176
     1
 90
        0
176
     1
 90
        0
176
     1
 62
     7
176
     1
 62
   257
176
     1
 90
        1
176
     1
 90
        1
176
     1
 40
1.0
176
     1
 90
        0
176
     1
 62
     7
176
     1
 40
1.0
176
     1
 90
        1
176
     1
 90
        6
176
     1
 90
        2
176
     1
 62
     7
176
     1
 90
        5
176
     1
 90
        0
176
     1
 90
        0
176
     1
290
     0
176
     1
 90
       13
176
     1
 40
0.0
176
     1
 90
        0
176
     1
290
     0
176
     1
290
     1
176
     1
290
     1
176
     1
290
     0
176
     1
290
     0
176
     1
290
     0
176
     1
290
     0
176
     1
290
     0
176
     1
290
     0
176
     1
 90
       50
176
     1
 40
0.0
176
     1
 40
1.0
176
     1
 90
        0
176
     1
 62
    18
420
        0
176
     1
 90
       50
176
     1
 90
        3
176
     1
 62
     5
420
      255
176
     1
290
     0
176
     1
 90
       50
176
     1
 90
       50
176
     1
 90
       50
176
     1
290
     0
176
     1
 90
       50
176
     1
 62
   256
176
     0
 40
1.0
176
     0
 90
        2
176
     1
  1
strokes_ogs.tif
176
     1
290
     0
176
     1
 40
1.0
176
     1
 40
1.0
176
     1
  0
VISUALSTYLE
  5
2E
102
{ACAD_REACTORS
330
2A
102
}
330
2A
100
AcDbVisualStyle
  2
GouraudWithEdges
 70
     3
177
     3
291
     1
 70
    58
 90
        2
176
     1
 90
        2
176
     1
 90
        1
176
     1
 90
        2
176
     1
 40
0.6
176
     1
 40
30.0
176
     1
 62
     7
420
 16777215
176
     1
 90
        1
176
     1
 90
        0
176
     1
 62
     7
176
     1
 62
   257
176
     1
 90
        1
176
     1
 90
        1
176
     1
 40
1.0
176
     1
 90
        0
176
     1
 62
   257
176
     1
 40
1.0
176
     1
 90
        1
176
     1
 90
        6
176
     1
 90
        2
176
     1
 62
     7
176
     1
 90
        5
176
     1
 90
        0
176
     1
 90
        0
176
     1
290
     0
176
     1
 90
       13
176
     1
 40
0.0
176
     1
 90
        0
176
     1
290
     0
176
     1
290
     1
176
     1
290
     1
176
     1
290
     0
176
     1
290
     0
176
     1
290
     0
176
     1
290
     0
176
     1
290
     0
176
     1
290
     0
176
     1
 90
       50
176
     1
 40
0.0
176
     1
 40
1.0
176
     1
 90
        0
176
     1
 62
    18
420
        0
176
     1
 90
       50
176
     1
 90
        3
176
     1
 62
     5
420
      255
176
     1
290
     0
176
     1
 90
       50
176
     1
 90
       50
176
     1
 90
       50
176
     1
290
     0
176
     1
 90
       50
176
     1
 62
   256
176
     0
 40
1.0
176
     0
 90
        2
176
     1
  1
strokes_ogs.tif
176
     1
290
     0
176
     1
 40
1.0
176
     1
 40
1.0
176
     1
  0
VISUALSTYLE
  5
31
102
{ACAD_REACTORS
330
2A
102
}
330
2A
100
AcDbVisualStyle
  2
Hidden
 70
     6
177
     3
291
     0
 70
    58
 90
        1
176
     1
 90
        2
176
     1
 90
        2
176
     1
 90
        0
176
     1
 40
0.6
176
     1
 40
30.0
176
     1
 62
     7
420
 16777215
176
     1
 90
        2
176
     1
 90
        2
176
     1
 62
     7
176
     1
 62
   257
176
     1
 90
        2
176
     1
 90
        1
176
     1
 40
40.0
176
     1
 90
        0
176
     1
 62
   257
176
     1
 40
1.0
176
     1
 90
        1
176
     1
 90
        6
176
     1
 90
        2
176
     1
 62
     7
176
     1
 90
        3
176
     1
 90
        0
176
     1
 90
        0
176
     1
290
     0
176
     1
 90
        1
176
     1
 40
0.0
176
     1
 90
        0
176
     1
290
     0
176
     1
290
     1
176
     1
290
     1
176
     1
290
     0
176
     1
290
     0
176
     1
290
     0
176
     1
290
     0
176
     1
290
     0
176
     1
290
     0
176
     1
 90
       50
176
     1
 40
0.0
176
     1
 40
1.0
176
     1
 90
        0
176
     1
 62
    18
420
        0
176
     1
 90
       50
176
     1
 90
        3
176
     1
 62
     5
420
      255
176
     1
290
     0
176
     1
 90
       50
176
     1
 90
       50
176
     1
 90
       50
176
     1
290
     0
176
     1
 90
       50
176
     1
 62
   256
176
     0
 40
1.0
176
     0
 90
        2
176
     1
  1
strokes_ogs.tif
176
     1
290
     0
176
     1
 40
1.0
176
     1
 40
1.0
176
     1
  0
VISUALSTYLE
  5
3B
102
{ACAD_REACTORS
330
2A
102
}
330
2A
100
AcDbVisualStyle
  2
JitterOff
 70
    20
177
     3
291
     1
 70
    58
 90
        2
176
     0
 90
        2
176
     0
 90
        0
176
     0
 90
        0
176
     0
 40
0.6
176
     0
 40
30.0
176
     0
 62
     7
420
 16777215
176
     0
 90
        1
176
     0
 90
        4
176
     0
 62
     7
176
     0
 62
   257
176
     0
 90
        1
176
     0
 90
        1
176
     0
 40
1.0
176
     0
 90
       10
176
     2
 62
     7
176
     0
 40
1.0
176
     0
 90
        1
176
     0
 90
        6
176
     0
 90
        2
176
     0
 62
     7
176
     0
 90
        5
176
     0
 90
        0
176
     0
 90
        0
176
     0
290
     0
176
     0
 90
        1
176
     0
 40
0.0
176
     0
 90
        0
176
     0
290
     0
176
     0
290
     1
176
     0
290
     1
176
     0
290
     0
176
     0
290
     0
176
     0
290
     0
176
     0
290
     0
176
     0
290
     0
176
     0
290
     0
176
     0
 90
       50
176
     0
 40
0.0
176
     0
 40
1.0
176
     0
 90
        0
176
     0
 62
    18
420
        0
176
     0
 90
       50
176
     0
 90
        3
176
     0
 62
     5
420
      255
176
     0
290
     0
176
     0
 90
       50
176
     0
 90
       50
176
     0
 90
       50
176
     0
290
     0
176
     0
 90
       50
176
     0
 62
   256
176
     0
 40
1.0
176
     0
 90
        2
176
     0
  1
strokes_ogs.tif
176
     0
290
     0
176
     0
 40
1.0
176
     0
 40
1.0
176
     0
  0
VISUALSTYLE
  5
38
102
{ACAD_REACTORS
330
2A
102
}
330
2A
100
AcDbVisualStyle
  2
Linepattern
 70
    14
177
     3
291
     1
 70
    58
 90
        2
176
     1
 90
        2
176
     1
 90
        0
176
     1
 90
        0
176
     1
 40
0.6
176
     1
 40
30.0
176
     1
 62
     7
420
 16777215
176
     1
 90
        1
176
     1
 90
        4
176
     1
 62
     7
176
     1
 62
   257
176
     1
 90
        7
176
     1
 90
        7
176
     1
 40
1.0
176
     1
 90
        8
176
     1
 62
     7
176
     1
 40
1.0
176
     1
 90
        1
176
     1
 90
        6
176
     1
 90
        2
176
     1
 62
     7
176
     1
 90
        5
176
     1
 90
        0
176
     1
 90
        0
176
     1
290
     0
176
     1
 90
        1
176
     1
 40
0.0
176
     1
 90
        0
176
     1
290
     0
176
     1
290
     1
176
     1
290
     1
176
     1
290
     0
176
     1
290
     0
176
     1
290
     0
176
     1
290
     0
176
     1
290
     0
176
     1
290
     0
176
     1
 90
       50
176
     1
 40
0.0
176
     1
 40
1.0
176
     1
 90
        0
176
     1
 62
    18
420
        0
176
     1
 90
       50
176
     1
 90
        3
176
     1
 62
     5
420
      255
176
     1
290
     0
176
     1
 90
       50
176
     1
 90
       50
176
     1
 90
       50
176
     1
290
     0
176
     1
 90
       50
176
     1
 62
   256
176
     0
 40
1.0
176
     0
 90
        2
176
     1
  1
strokes_ogs.tif
176
     1
290
     0
176
     1
 40
1.0
176
     1
 40
1.0
176
     1
  0
VISUALSTYLE
  5
3C
102
{ACAD_REACTORS
330
2A
102
}
330
2A
100
AcDbVisualStyle
  2
OverhangOff
 70
    21
177
     3
291
     1
 70
    58
 90
        2
176
     0
 90
        2
176
     0
 90
        0
176
     0
 90
        0
176
     0
 40
0.6
176
     0
 40
30.0
176
     0
 62
     7
420
 16777215
176
     0
 90
        1
176
     0
 90
        4
176
     0
 62
     7
176
     0
 62
   257
176
     0
 90
        1
176
     0
 90
        1
176
     0
 40
1.0
176
     0
 90
        9
176
     2
 62
     7
176
     0
 40
1.0
176
     0
 90
        1
176
     0
 90
        6
176
     0
 90
        2
176
     0
 62
     7
176
     0
 90
        5
176
     0
 90
        0
176
     0
 90
        0
176
     0
290
     0
176
     0
 90
        1
176
     0
 40
0.0
176
     0
 90
        0
176
     0
290
     0
176
     0
290
     1
176
     0
290
     1
176
     0
290
     0
176
     0
290
     0
176
     0
290
     0
176
     0
290
     0
176
     0
290
     0
176
     0
290
     0
176
     0
 90
       50
176
     0
 40
0.0
176
     0
 40
1.0
176
     0
 90
        0
176
     0
 62
    18
420
        0
176
     0
 90
       50
176
     0
 90
        3
176
     0
 62
     5
420
      255
176
     0
290
     0
176
     0
 90
       50
176
     0
 90
       50
176
     0
 90
       50
176
     0
290
     0
176
     0
 90
       50
176
     0
 62
   256
176
     0
 40
1.0
176
     0
 90
        2
176
     0
  1
strokes_ogs.tif
176
     0
290
     0
176
     0
 40
1.0
176
     0
 40
1.0
176
     0
  0
VISUALSTYLE
  5
33
102
{ACAD_REACTORS
330
2A
102
}
330
2A
100
AcDbVisualStyle
  2
Realistic
 70
     8
177
     3
291
     0
 70
    58
 90
        2
176
     1
 90
        3
176
     1
 90
        0
176
     1
 90
        2
176
     1
 40
0.6
176
     1
 40
30.0
176
     1
 62
     7
420
 16777215
176
     1
 90
        0
176
     1
 90
        0
176
     1
 62
     7
176
     1
 62
   257
176
     1
 90
        1
176
     1
 90
        1
176
     1
 40
1.0
176
     1
 90
        8
176
     1
 62
   257
176
     1
 40
1.0
176
     1
 90
        1
176
     1
 90
        6
176
     1
 90
        2
176
     1
 62
     7
176
     1
 90
        3
176
     1
 90
        0
176
     1
 90
        0
176
     1
290
     0
176
     1
 90
       13
176
     1
 40
0.0
176
     1
 90
        0
176
     1
290
     0
176
     1
290
     1
176
     1
290
     1
176
     1
290
     0
176
     1
290
     0
176
     1
290
     0
176
     1
290
     0
176
     1
290
     0
176
     1
290
     0
176
     1
 90
       50
176
     1
 40
0.0
176
     1
 40
1.0
176
     1
 90
        0
176
     1
 62
    18
420
        0
176
     1
 90
       50
176
     1
 90
        3
176
     1
 62
     5
420
      255
176
     1
290
     0
176
     1
 90
       50
176
     1
 90
       50
176
     1
 90
       50
176
     1
290
     0
176
     1
 90
       50
176
     1
 62
   256
176
     0
 40
1.0
176
     0
 90
        2
176
     1
  1
strokes_ogs.tif
176
     1
290
     0
176
     1
 40
1.0
176
     1
 40
1.0
176
     1
  0
VISUALSTYLE
  5
42
102
{ACAD_REACTORS
330
2A
102
}
330
2A
100
AcDbVisualStyle
  2
Shaded
 70
    27
177
     3
291
     0
 70
    58
 90
        2
176
     1
 90
        2
176
     1
 90
        1
176
     1
 90
        2
176
     1
 40
0.6
176
     1
 40
30.0
176
     1
 62
     7
420
 16777215
176
     1
 90
        0
176
     1
 90
        4
176
     1
 62
     7
176
     1
 62
   257
176
     1
 90
        1
176
     1
 90
        1
176
     1
 40
1.0
176
     1
 90
        8
176
     1
 62
   257
176
     1
 40
1.0
176
     1
 90
        1
176
     1
 90
        6
176
     1
 90
        2
176
     1
 62
     8
420
  7895160
176
     1
 90
        3
176
     1
 90
        0
176
     1
 90
        0
176
     1
290
     0
176
     1
 90
        5
176
     1
 40
0.0
176
     1
 90
        0
176
     1
290
     0
176
     1
290
     1
176
     1
290
     1
176
     1
290
     0
176
     1
290
     0
176
     1
290
     0
176
     1
290
     0
176
     1
290
     0
176
     1
290
     0
176
     1
 90
       50
176
     1
 40
0.0
176
     1
 40
1.0
176
     1
 90
        0
176
     1
 62
    18
420
        0
176
     1
 90
       50
176
     1
 90
        3
176
     1
 62
     5
420
      255
176
     1
290
     0
176
     1
 90
       50
176
     1
 90
       50
176
     1
 90
       50
176
     1
290
     0
176
     1
 90
       50
176
     1
 62
   256
176
     0
 40
1.0
176
     0
 90
        2
176
     1
  1
strokes_ogs.tif
176
     1
290
     0
176
     1
 40
1.0
176
     1
 40
1.0
176
     1
  0
VISUALSTYLE
  5
41
102
{ACAD_REACTORS
330
2A
102
}
330
2A
100
AcDbVisualStyle
  2
Shaded with edges
 70
    26
177
     3
291
     0
 70
    58
 90
        2
176
     1
 90
        2
176
     1
 90
        1
176
     1
 90
        2
176
     1
 40
0.6
176
     1
 40
30.0
176
     1
 62
     7
420
 16777215
176
     1
 90
        1
176
     1
 90
       10
176
     1
 62
     7
176
     1
 62
   257
176
     1
 90
        2
176
     1
 90
        1
176
     1
 40
1.0
176
     1
 90
        8
176
     1
 62
   257
176
     1
 40
1.0
176
     1
 90
        1
176
     1
 90
        6
176
     1
 90
        2
176
     1
 62
     7
176
     1
 90
        3
176
     1
 90
        0
176
     1
 90
        0
176
     1
290
     0
176
     1
 90
        5
176
     1
 40
0.0
176
     1
 90
        0
176
     1
290
     0
176
     1
290
     1
176
     1
290
     1
176
     1
290
     0
176
     1
290
     0
176
     1
290
     0
176
     1
290
     0
176
     1
290
     0
176
     1
290
     0
176
     1
 90
       50
176
     1
 40
0.0
176
     1
 40
1.0
176
     1
 90
        0
176
     1
 62
    18
420
        0
176
     1
 90
       50
176
     1
 90
        3
176
     1
 62
     5
420
      255
176
     1
290
     0
176
     1
 90
       50
176
     1
 90
       50
176
     1
 90
       50
176
     1
290
     0
176
     1
 90
       50
176
     1
 62
   256
176
     0
 40
1.0
176
     0
 90
        2
176
     1
  1
strokes_ogs.tif
176
     1
290
     0
176
     1
 40
1.0
176
     1
 40
1.0
176
     1
  0
VISUALSTYLE
  5
3E
102
{ACAD_REACTORS
330
2A
102
}
330
2A
100
AcDbVisualStyle
  2
Shades of Gray
 70
    23
177
     3
291
     0
 70
    58
 90
        2
176
     1
 90
        2
176
     1
 90
        3
176
     1
 90
        0
176
     1
 40
0.6
176
     1
 40
30.0
176
     1
 62
     7
420
 16777215
176
     1
 90
        2
176
     1
 90
        2
176
     1
 62
     7
176
     1
 62
     7
176
     1
 90
        1
176
     1
 90
        1
176
     1
 40
40.0
176
     1
 90
        8
176
     1
 62
     7
176
     1
 40
1.0
176
     1
 90
        1
176
     1
 90
        6
176
     1
 90
        2
176
     1
 62
     7
176
     1
 90
        3
176
     1
 90
        0
176
     1
 90
        0
176
     1
290
     0
176
     1
 90
        1
176
     1
 40
0.0
176
     1
 90
        0
176
     1
290
     0
176
     1
290
     1
176
     1
290
     1
176
     1
290
     0
176
     1
290
     0
176
     1
290
     0
176
     1
290
     0
176
     1
290
     0
176
     1
290
     0
176
     1
 90
       50
176
     1
 40
0.0
176
     1
 40
1.0
176
     1
 90
        0
176
     1
 62
    18
420
        0
176
     1
 90
       50
176
     1
 90
        3
176
     1
 62
     5
420
      255
176
     1
290
     0
176
     1
 90
       50
176
     1
 90
       50
176
     1
 90
       50
176
     1
290
     0
176
     1
 90
       50
176
     1
 62
   256
176
     0
 40
1.0
176
     0
 90
        2
176
     1
  1
strokes_ogs.tif
176
     1
290
     0
176
     1
 40
1.0
176
     1
 40
1.0
176
     1
  0
VISUALSTYLE
  5
3F
102
{ACAD_REACTORS
330
2A
102
}
330
2A
100
AcDbVisualStyle
  2
Sketchy
 70
    24
177
     3
291
     0
 70
    58
 90
        1
176
     1
 90
        2
176
     1
 90
        2
176
     1
 90
        0
176
     1
 40
0.6
176
     1
 40
30.0
176
     1
 62
     7
420
 16777215
176
     1
 90
        2
176
     1
 90
        2
176
     1
 62
     7
176
     1
 62
     7
176
     1
 90
        1
176
     1
 90
        1
176
     1
 40
40.0
176
     1
 90
       11
176
     1
 62
     7
176
     1
 40
1.0
176
     1
 90
        1
176
     1
 90
        6
176
     1
 90
        2
176
     1
 62
     7
176
     1
 90
        6
176
     1
 90
        0
176
     1
 90
        0
176
     1
290
     0
176
     1
 90
        1
176
     1
 40
0.0
176
     1
 90
        0
176
     1
290
     0
176
     1
290
     1
176
     1
290
     1
176
     1
290
     0
176
     1
290
     0
176
     1
290
     0
176
     1
290
     0
176
     1
290
     0
176
     1
290
     0
176
     1
 90
       50
176
     1
 40
0.0
176
     1
 40
1.0
176
     1
 90
        0
176
     1
 62
    18
420
        0
176
     1
 90
       50
176
     1
 90
        3
176
     1
 62
     5
420
      255
176
     1
290
     0
176
     1
 90
       50
176
     1
 90
       50
176
     1
 90
       50
176
     1
290
     0
176
     1
 90
       50
176
     1
 62
   256
176
     0
 40
1.0
176
     0
 90
        2
176
     1
  1
strokes_ogs.tif
176
     1
290
     0
176
     1
 40
1.0
176
     1
 40
1.0
176
     1
  0
VISUALSTYLE
  5
37
102
{ACAD_REACTORS
330
2A
102
}
330
2A
100
AcDbVisualStyle
  2
Thicken
 70
    13
177
     3
291
     1
 70
    58
 90
        2
176
     1
 90
        2
176
     1
 90
        0
176
     1
 90
        0
176
     1
 40
0.6
176
     1
 40
30.0
176
     1
 62
     7
420
 16777215
176
     1
 90
        1
176
     1
 90
        4
176
     1
 62
     7
176
     1
 62
   257
176
     1
 90
        1
176
     1
 90
        1
176
     1
 40
1.0
176
     1
 90
       12
176
     1
 62
     7
176
     1
 40
1.0
176
     1
 90
        1
176
     1
 90
        6
176
     1
 90
        2
176
     1
 62
     7
176
     1
 90
        5
176
     1
 90
        0
176
     1
 90
        0
176
     1
290
     0
176
     1
 90
        1
176
     1
 40
0.0
176
     1
 90
        0
176
     1
290
     0
176
     1
290
     1
176
     1
290
     1
176
     1
290
     0
176
     1
290
     0
176
     1
290
     0
176
     1
290
     0
176
     1
290
     0
176
     1
290
     0
176
     1
 90
       50
176
     1
 40
0.0
176
     1
 40
1.0
176
     1
 90
        0
176
     1
 62
    18
420
        0
176
     1
 90
       50
176
     1
 90
        3
176
     1
 62
     5
420
      255
176
     1
290
     0
176
     1
 90
       50
176
     1
 90
       50
176
     1
 90
       50
176
     1
290
     0
176
     1
 90
       50
176
     1
 62
   256
176
     0
 40
1.0
176
     0
 90
        2
176
     1
  1
strokes_ogs.tif
176
     1
290
     0
176
     1
 40
1.0
176
     1
 40
1.0
176
     1
  0
VISUALSTYLE
  5
30
102
{ACAD_REACTORS
330
2A
102
}
330
2A
100
AcDbVisualStyle
  2
Wireframe
 70
     5
177
     3
291
     0
 70
    58
 90
        0
176
     1
 90
        2
176
     1
 90
        0
176
     1
 90
        0
176
     1
 40
0.6
176
     1
 40
30.0
176
     1
 62
     7
420
 16777215
176
     1
 90
        1
176
     1
 90
        4
176
     1
 62
     7
176
     1
 62
   257
176
     1
 90
        1
176
     1
 90
        1
176
     1
 40
1.0
176
     1
 90
        0
176
     1
 62
   257
176
     1
 40
1.0
176
     1
 90
        1
176
     1
 90
        6
176
     1
 90
        2
176
     1
 62
     7
176
     1
 90
        3
176
     1
 90
        0
176
     1
 90
        0
176
     1
290
     0
176
     1
 90
        1
176
     1
 40
0.0
176
     1
 90
        0
176
     1
290
     0
176
     1
290
     1
176
     1
290
     1
176
     1
290
     0
176
     1
290
     0
176
     1
290
     0
176
     1
290
     0
176
     1
290
     0
176
     1
290
     0
176
     1
 90
       50
176
     1
 40
0.0
176
     1
 40
1.0
176
     1
 90
        0
176
     1
 62
    18
420
        0
176
     1
 90
       50
176
     1
 90
        3
176
     1
 62
     5
420
      255
176
     1
290
     0
176
     1
 90
       50
176
     1
 90
       50
176
     1
 90
       50
176
     1
290
     0
176
     1
 90
       50
176
     1
 62
   256
176
     0
 40
1.0
176
     0
 90
        2
176
     1
  1
strokes_ogs.tif
176
     1
290
     0
176
     1
 40
1.0
176
     1
 40
1.0
176
     1
  0
VISUALSTYLE
  5
40
102
{ACAD_REACTORS
330
2A
102
}
330
2A
100
AcDbVisualStyle
  2
X-Ray
 70
    25
177
     3
291
     0
 70
    58
 90
        2
176
     1
 90
        2
176
     1
 90
        1
176
     1
 90
        1
176
     1
 40
0.5
176
     1
 40
30.0
176
     1
 62
     7
420
 16777215
176
     1
 90
        1
176
     1
 90
        0
176
     1
 62
     7
176
     1
 62
   257
176
     1
 90
        1
176
     1
 90
        1
176
     1
 40
1.0
176
     1
 90
        8
176
     1
 62
     7
176
     1
 40
1.0
176
     1
 90
        1
176
     1
 90
        6
176
     1
 90
        2
176
     1
 62
     7
176
     1
 90
        3
176
     1
 90
        0
176
     1
 90
        0
176
     1
290
     0
176
     1
 90
       13
176
     1
 40
0.0
176
     1
 90
        0
176
     1
290
     0
176
     1
290
     1
176
     1
290
     1
176
     1
290
     0
176
     1
290
     0
176
     1
290
     0
176
     1
290
     0
176
     1
290
     0
176
     1
290
     0
176
     1
 90
       50
176
     1
 40
0.0
176
     1
 40
1.0
176
     1
 90
        0
176
     1
 62
    18
420
        0
176
     1
 90
       50
176
     1
 90
        3
176
     1
 62
     5
420
      255
176
     1
290
     0
176
     1
 90
       50
176
     1
 90
       50
176
     1
 90
       50
176
     1
290
     0
176
     1
 90
       50
176
     1
 62
   256
176
     0
 40
1.0
176
     0
 90
        2
176
     1
  1
strokes_ogs.tif
176
     1
290
     0
176
     1
 40
1.0
176
     1
 40
1.0
176
     1
  0
DICTIONARYVAR
  5
89
102
{ACAD_REACTORS
330
88
102
}
330
88
100
DictionaryVariables
280
     0
  1
1:1
  0
DICTIONARYVAR
  5
8E
102
{ACAD_REACTORS
330
88
102
}
330
88
100
DictionaryVariables
280
     0
  1
Standard
  0
DICTIONARYVAR
  5
8D
102
{ACAD_REACTORS
330
88
102
}
330
88
100
DictionaryVariables
280
     0
  1
Standard
  0
DICTIONARY
  5
8A
330
5A
100
AcDbDictionary
280
     1
281
     1
  3
ACAD_ROUNDTRIP_2008_TABLESTYLE_CELLSTYLEMAP
360
8B
  0
CELLSTYLEMAP
  5
8B
102
{ACAD_REACTORS
330
8A
102
}
330
8A
100
AcDbCellStyleMap
 90
        3
300
CELLSTYLE
  1
TABLEFORMAT_BEGIN
 90
        5
170
     1
 91
        0
 92
    32768
 62
   257
 93
        1
300
CONTENTFORMAT
  1
CONTENTFORMAT_BEGIN
 90
        0
 91
        0
 92
        4
 93
        0
300

 40
0.0
140
1.0
 94
        5
 62
     0
340
11
144
0.25
309
CONTENTFORMAT_END
171
     1
301
MARGIN
  1
CELLMARGIN_BEGIN
 40
0.06
 40
0.06
 40
0.06
 40
0.06
 40
0.06
 40
0.06
309
CELLMARGIN_END
 94
        6
 95
        1
302
GRIDFORMAT
  1
GRIDFORMAT_BEGIN
 90
        0
 91
        1
 62
     0
 92
       -2
340
14
 93
        0
 40
0.045
309
GRIDFORMAT_END
 95
        2
302
GRIDFORMAT
  1
GRIDFORMAT_BEGIN
 90
        0
 91
        1
 62
     0
 92
       -2
340
14
 93
        0
 40
0.045
309
GRIDFORMAT_END
 95
        4
302
GRIDFORMAT
  1
GRIDFORMAT_BEGIN
 90
        0
 91
        1
 62
     0
 92
       -2
340
14
 93
        0
 40
0.045
309
GRIDFORMAT_END
 95
        8
302
GRIDFORMAT
  1
GRIDFORMAT_BEGIN
 90
        0
 91
        1
 62
     0
 92
       -2
340
14
 93
        0
 40
0.045
309
GRIDFORMAT_END
 95
       16
302
GRIDFORMAT
  1
GRIDFORMAT_BEGIN
 90
        0
 91
        1
 62
     0
 92
       -2
340
14
 93
        0
 40
0.045
309
GRIDFORMAT_END
 95
       32
302
GRIDFORMAT
  1
GRIDFORMAT_BEGIN
 90
        0
 91
        1
 62
     0
 92
       -2
340
14
 93
        0
 40
0.045
309
GRIDFORMAT_END
309
TABLEFORMAT_END
  1
CELLSTYLE_BEGIN
 90
        1
 91
        1
300
_TITLE
309
CELLSTYLE_END
300
CELLSTYLE
  1
TABLEFORMAT_BEGIN
 90
        5
170
     1
 91
        0
 92
        0
 62
   257
 93
        1
300
CONTENTFORMAT
  1
CONTENTFORMAT_BEGIN
 90
        0
 91
        0
 92
        4
 93
        0
300

 40
0.0
140
1.0
 94
        5
 62
     0
340
11
144
0.18
309
CONTENTFORMAT_END
171
     1
301
MARGIN
  1
CELLMARGIN_BEGIN
 40
0.06
 40
0.06
 40
0.06
 40
0.06
 40
0.06
 40
0.06
309
CELLMARGIN_END
 94
        6
 95
        1
302
GRIDFORMAT
  1
GRIDFORMAT_BEGIN
 90
        0
 91
        1
 62
     0
 92
       -2
340
14
 93
        0
 40
0.045
309
GRIDFORMAT_END
 95
        2
302
GRIDFORMAT
  1
GRIDFORMAT_BEGIN
 90
        0
 91
        1
 62
     0
 92
       -2
340
14
 93
        0
 40
0.045
309
GRIDFORMAT_END
 95
        4
302
GRIDFORMAT
  1
GRIDFORMAT_BEGIN
 90
        0
 91
        1
 62
     0
 92
       -2
340
14
 93
        0
 40
0.045
309
GRIDFORMAT_END
 95
        8
302
GRIDFORMAT
  1
GRIDFORMAT_BEGIN
 90
        0
 91
        1
 62
     0
 92
       -2
340
14
 93
        0
 40
0.045
309
GRIDFORMAT_END
 95
       16
302
GRIDFORMAT
  1
GRIDFORMAT_BEGIN
 90
        0
 91
        1
 62
     0
 92
       -2
340
14
 93
        0
 40
0.045
309
GRIDFORMAT_END
 95
       32
302
GRIDFORMAT
  1
GRIDFORMAT_BEGIN
 90
        0
 91
        1
 62
     0
 92
       -2
340
14
 93
        0
 40
0.045
309
GRIDFORMAT_END
309
TABLEFORMAT_END
  1
CELLSTYLE_BEGIN
 90
        2
 91
        1
300
_HEADER
309
CELLSTYLE_END
300
CELLSTYLE
  1
TABLEFORMAT_BEGIN
 90
        5
170
     1
 91
        0
 92
        0
 62
   257
 93
        1
300
CONTENTFORMAT
  1
CONTENTFORMAT_BEGIN
 90
        0
 91
        0
 92
        4
 93
        0
300

 40
0.0
140
1.0
 94
        2
 62
     0
340
11
144
0.18
309
CONTENTFORMAT_END
171
     1
301
MARGIN
  1
CELLMARGIN_BEGIN
 40
0.06
 40
0.06
 40
0.06
 40
0.06
 40
0.06
 40
0.06
309
CELLMARGIN_END
 94
        6
 95
        1
302
GRIDFORMAT
  1
GRIDFORMAT_BEGIN
 90
        0
 91
        1
 62
     0
 92
       -2
340
14
 93
        0
 40
0.045
309
GRIDFORMAT_END
 95
        2
302
GRIDFORMAT
  1
GRIDFORMAT_BEGIN
 90
        0
 91
        1
 62
     0
 92
       -2
340
14
 93
        0
 40
0.045
309
GRIDFORMAT_END
 95
        4
302
GRIDFORMAT
  1
GRIDFORMAT_BEGIN
 90
        0
 91
        1
 62
     0
 92
       -2
340
14
 93
        0
 40
0.045
309
GRIDFORMAT_END
 95
        8
302
GRIDFORMAT
  1
GRIDFORMAT_BEGIN
 90
        0
 91
        1
 62
     0
 92
       -2
340
14
 93
        0
 40
0.045
309
GRIDFORMAT_END
 95
       16
302
GRIDFORMAT
  1
GRIDFORMAT_BEGIN
 90
        0
 91
        1
 62
     0
 92
       -2
340
14
 93
        0
 40
0.045
309
GRIDFORMAT_END
 95
       32
302
GRIDFORMAT
  1
GRIDFORMAT_BEGIN
 90
        0
 91
        1
 62
     0
 92
       -2
340
14
 93
        0
 40
0.045
309
GRIDFORMAT_END
309
TABLEFORMAT_END
  1
CELLSTYLE_BEGIN
 90
        3
 91
        2
300
_DATA
309
CELLSTYLE_END
  0
ENDSEC
  0
EOF
