  0
SECTION
  2
HEADER
  9
$ACADVER
  1
AC1032
  9
$ACADMAINTVER
 90
       55
  9
$DWGCODEPAGE
  3
ANSI_1252
  9
$LASTSAVEDBY
  1
LYI-002
  9
$REQUIREDVERSIONS
160
                 0
  9
$INSBASE
 10
0.0
 20
0.0
 30
0.0
  9
$EXTMIN
 10
-1200.15
 20
-590.1266
 30
0.0
  9
$EXTMAX
 10
1200.05
 20
590.0734
 30
0.0
  9
$LIMMIN
 10
0.0
 20
0.0
  9
$LIMMAX
 10
12.0
 20
9.0
  9
$ORTHOMODE
 70
     0
  9
$REGENMODE
 70
     1
  9
$FILLMODE
 70
     1
  9
$QTEXTMODE
 70
     0
  9
$MIRRTEXT
 70
     1
  9
$LTSCALE
 40
1.0
  9
$ATTMODE
 70
     1
  9
$TEXTSIZE
 40
0.2
  9
$TRACEWID
 40
0.05
  9
$TEXTSTYLE
  7
Standard
  9
$CLAYER
  8
0
  9
$CELTYPE
  6
ByLayer
  9
$CECOLOR
 62
   256
  9
$CELTSCALE
 40
1.0
  9
$DISPSILH
 70
     0
  9
$DIMSCALE
 40
1.0
  9
$DIMASZ
 40
0.18
  9
$DIMEXO
 40
0.0625
  9
$DIMDLI
 40
0.38
  9
$DIMRND
 40
0.0
  9
$DIMDLE
 40
0.0
  9
$DIMEXE
 40
0.18
  9
$DIMTP
 40
0.0
  9
$DIMTM
 40
0.0
  9
$DIMTXT
 40
0.18
  9
$DIMCEN
 40
0.09
  9
$DIMTSZ
 40
0.0
  9
$DIMTOL
 70
     0
  9
$DIMLIM
 70
     0
  9
$DIMTIH
 70
     1
  9
$DIMTOH
 70
     1
  9
$DIMSE1
 70
     0
  9
$DIMSE2
 70
     0
  9
$DIMTAD
 70
     0
  9
$DIMZIN
 70
     0
  9
$DIMBLK
  1

  9
$DIMASO
 70
     1
  9
$DIMSHO
 70
     1
  9
$DIMPOST
  1

  9
$DIMAPOST
  1

  9
$DIMALT
 70
     0
  9
$DIMALTD
 70
     2
  9
$DIMALTF
 40
25.4
  9
$DIMLFAC
 40
1.0
  9
$DIMTOFL
 70
     0
  9
$DIMTVP
 40
0.0
  9
$DIMTIX
 70
     0
  9
$DIMSOXD
 70
     0
  9
$DIMSAH
 70
     0
  9
$DIMBLK1
  1

  9
$DIMBLK2
  1

  9
$DIMSTYLE
  2
Standard
  9
$DIMCLRD
 70
     0
  9
$DIMCLRE
 70
     0
  9
$DIMCLRT
 70
     0
  9
$DIMTFAC
 40
1.0
  9
$DIMGAP
 40
0.09
  9
$DIMJUST
 70
     0
  9
$DIMSD1
 70
     0
  9
$DIMSD2
 70
     0
  9
$DIMTOLJ
 70
     1
  9
$DIMTZIN
 70
     0
  9
$DIMALTZ
 70
     0
  9
$DIMALTTZ
 70
     0
  9
$DIMUPT
 70
     0
  9
$DIMDEC
 70
     4
  9
$DIMTDEC
 70
     4
  9
$DIMALTU
 70
     2
  9
$DIMALTTD
 70
     2
  9
$DIMTXSTY
  7
Standard
  9
$DIMAUNIT
 70
     0
  9
$DIMADEC
 70
     0
  9
$DIMALTRND
 40
0.0
  9
$DIMAZIN
 70
     0
  9
$DIMDSEP
 70
    46
  9
$DIMATFIT
 70
     3
  9
$DIMFRAC
 70
     0
  9
$DIMLDRBLK
  1

  9
$DIMLUNIT
 70
     2
  9
$DIMLWD
 70
    -2
  9
$DIMLWE
 70
    -2
  9
$DIMTMOVE
 70
     0
  9
$DIMFXL
 40
1.0
  9
$DIMFXLON
 70
     0
  9
$DIMJOGANG
 40
0.7853981633974483
  9
$DIMTFILL
 70
     0
  9
$DIMTFILLCLR
 70
     0
  9
$DIMARCSYM
 70
     0
  9
$DIMLTYPE
  6

  9
$DIMLTEX1
  6

  9
$DIMLTEX2
  6

  9
$DIMTXTDIRECTION
 70
     0
  9
$LUNITS
 70
     2
  9
$LUPREC
 70
     4
  9
$SKETCHINC
 40
0.1
  9
$FILLETRAD
 40
0.0
  9
$AUNITS
 70
     0
  9
$AUPREC
 70
     0
  9
$MENU
  1
.
  9
$ELEVATION
 40
0.0
  9
$PELEVATION
 40
0.0
  9
$THICKNESS
 40
0.0
  9
$LIMCHECK
 70
     0
  9
$CHAMFERA
 40
0.0
  9
$CHAMFERB
 40
0.0
  9
$CHAMFERC
 40
0.0
  9
$CHAMFERD
 40
0.0
  9
$SKPOLY
 70
     0
  9
$TDCREATE
 40
2460652.655314815
  9
$TDUCREATE
 40
2460652.426148149
  9
$TDUPDATE
 40
2460652.655314873
  9
$TDUUPDATE
 40
2460652.426148206
  9
$TDINDWG
 40
0.0000000116
  9
$TDUSRTIMER
 40
0.0000000116
  9
$USRTIMER
 70
     1
  9
$ANGBASE
 50
0.0
  9
$ANGDIR
 70
     0
  9
$PDMODE
 70
     0
  9
$PDSIZE
 40
0.0
  9
$PLINEWID
 40
0.0
  9
$SPLFRAME
 70
     0
  9
$SPLINETYPE
 70
     6
  9
$SPLINESEGS
 70
     8
  9
$HANDSEED
  5
A8
  9
$SURFTAB1
 70
     6
  9
$SURFTAB2
 70
     6
  9
$SURFTYPE
 70
     6
  9
$SURFU
 70
     6
  9
$SURFV
 70
     6
  9
$UCSBASE
  2

  9
$UCSNAME
  2

  9
$UCSORG
 10
0.0
 20
0.0
 30
0.0
  9
$UCSXDIR
 10
1.0
 20
0.0
 30
0.0
  9
$UCSYDIR
 10
0.0
 20
1.0
 30
0.0
  9
$UCSORTHOREF
  2

  9
$UCSORTHOVIEW
 70
     0
  9
$UCSORGTOP
 10
0.0
 20
0.0
 30
0.0
  9
$UCSORGBOTTOM
 10
0.0
 20
0.0
 30
0.0
  9
$UCSORGLEFT
 10
0.0
 20
0.0
 30
0.0
  9
$UCSORGRIGHT
 10
0.0
 20
0.0
 30
0.0
  9
$UCSORGFRONT
 10
0.0
 20
0.0
 30
0.0
  9
$UCSORGBACK
 10
0.0
 20
0.0
 30
0.0
  9
$PUCSBASE
  2

  9
$PUCSNAME
  2

  9
$PUCSORG
 10
0.0
 20
0.0
 30
0.0
  9
$PUCSXDIR
 10
1.0
 20
0.0
 30
0.0
  9
$PUCSYDIR
 10
0.0
 20
1.0
 30
0.0
  9
$PUCSORTHOREF
  2

  9
$PUCSORTHOVIEW
 70
     0
  9
$PUCSORGTOP
 10
0.0
 20
0.0
 30
0.0
  9
$PUCSORGBOTTOM
 10
0.0
 20
0.0
 30
0.0
  9
$PUCSORGLEFT
 10
0.0
 20
0.0
 30
0.0
  9
$PUCSORGRIGHT
 10
0.0
 20
0.0
 30
0.0
  9
$PUCSORGFRONT
 10
0.0
 20
0.0
 30
0.0
  9
$PUCSORGBACK
 10
0.0
 20
0.0
 30
0.0
  9
$USERI1
 70
     0
  9
$USERI2
 70
     0
  9
$USERI3
 70
     0
  9
$USERI4
 70
     0
  9
$USERI5
 70
     0
  9
$USERR1
 40
0.0
  9
$USERR2
 40
0.0
  9
$USERR3
 40
0.0
  9
$USERR4
 40
0.0
  9
$USERR5
 40
0.0
  9
$WORLDVIEW
 70
     1
  9
$SHADEDGE
 70
     3
  9
$SHADEDIF
 70
    70
  9
$TILEMODE
 70
     1
  9
$MAXACTVP
 70
    64
  9
$PINSBASE
 10
0.0
 20
0.0
 30
0.0
  9
$PLIMCHECK
 70
     0
  9
$PEXTMIN
 10
1.000000000000000E+20
 20
1.000000000000000E+20
 30
1.000000000000000E+20
  9
$PEXTMAX
 10
-1.000000000000000E+20
 20
-1.000000000000000E+20
 30
-1.000000000000000E+20
  9
$PLIMMIN
 10
0.0
 20
0.0
  9
$PLIMMAX
 10
12.0
 20
9.0
  9
$UNITMODE
 70
     0
  9
$VISRETAIN
 70
     1
  9
$PLINEGEN
 70
     0
  9
$PSLTSCALE
 70
     1
  9
$TREEDEPTH
 70
  3020
  9
$CMLSTYLE
  2
Standard
  9
$CMLJUST
 70
     0
  9
$CMLSCALE
 40
1.0
  9
$PROXYGRAPHICS
 70
     1
  9
$MEASUREMENT
 70
     0
  9
$CELWEIGHT
370
    -1
  9
$ENDCAPS
280
     0
  9
$JOINSTYLE
280
     0
  9
$LWDISPLAY
290
     0
  9
$INSUNITS
 70
     4
  9
$HYPERLINKBASE
  1

  9
$STYLESHEET
  1

  9
$XEDIT
290
     1
  9
$CEPSNTYPE
380
     0
  9
$PSTYLEMODE
290
     1
  9
$FINGERPRINTGUID
  2
{560f93b6-d206-485e-9c6a-0b38576b6861}
  9
$VERSIONGUID
  2
{FAEB1C32-E019-11D5-929B-00C0DF256EC4}
  9
$EXTNAMES
290
     1
  9
$PSVPSCALE
 40
0.0
  9
$OLESTARTUP
290
     0
  9
$SORTENTS
280
   127
  9
$INDEXCTL
280
     0
  9
$HIDETEXT
280
     1
  9
$XCLIPFRAME
280
     2
  9
$HALOGAP
280
     0
  9
$OBSCOLOR
 70
   257
  9
$OBSLTYPE
280
     0
  9
$INTERSECTIONDISPLAY
280
     0
  9
$INTERSECTIONCOLOR
 70
   257
  9
$DIMASSOC
280
     2
  9
$PROJECTNAME
  1

  9
$CAMERADISPLAY
290
     0
  9
$LENSLENGTH
 40
50.0
  9
$CAMERAHEIGHT
 40
0.0
  9
$STEPSPERSEC
 40
2.0
  9
$STEPSIZE
 40
6.0
  9
$3DDWFPREC
 40
2.0
  9
$PSOLWIDTH
 40
0.25
  9
$PSOLHEIGHT
 40
4.0
  9
$LOFTANG1
 40
1.570796326794897
  9
$LOFTANG2
 40
1.570796326794897
  9
$LOFTMAG1
 40
0.0
  9
$LOFTMAG2
 40
0.0
  9
$LOFTPARAM
 70
     7
  9
$LOFTNORMALS
280
     1
  9
$LATITUDE
 40
37.795
  9
$LONGITUDE
 40
-122.394
  9
$NORTHDIRECTION
 40
0.0
  9
$TIMEZONE
 70
 -8000
  9
$LIGHTGLYPHDISPLAY
280
     1
  9
$TILEMODELIGHTSYNCH
280
     1
  9
$CMATERIAL
347
44
  9
$SOLIDHIST
280
     0
  9
$SHOWHIST
280
     1
  9
$DWFFRAME
280
     2
  9
$DGNFRAME
280
     2
  9
$REALWORLDSCALE
290
     1
  9
$INTERFERECOLOR
 62
   256
  9
$CSHADOW
280
     0
  9
$SHADOWPLANELOCATION
 40
0.0
  0
ENDSEC
  0
SECTION
  2
CLASSES
  0
CLASS
  1
ACDBDICTIONARYWDFLT
  2
AcDbDictionaryWithDefault
  3
ObjectDBX Classes
 90
        0
 91
        3
280
     0
281
     0
  0
CLASS
  1
VISUALSTYLE
  2
AcDbVisualStyle
  3
ObjectDBX Classes
 90
     4095
 91
        3
280
     0
281
     0
  0
CLASS
  1
MATERIAL
  2
AcDbMaterial
  3
ObjectDBX Classes
 90
     1153
 91
        3
280
     0
281
     0
  0
CLASS
  1
SCALE
  2
AcDbScale
  3
ObjectDBX Classes
 90
     1153
 91
        3
280
     0
281
     0
  0
CLASS
  1
TABLESTYLE
  2
AcDbTableStyle
  3
ObjectDBX Classes
 90
     4095
 91
        3
280
     0
281
     0
  0
CLASS
  1
MLEADERSTYLE
  2
AcDbMLeaderStyle
  3
ACDB_MLEADERSTYLE_CLASS
 90
     4095
 91
        3
280
     0
281
     0
  0
CLASS
  1
SUN
  2
AcDbSun
  3
SCENEOE
 90
     1153
 91
        3
280
     0
281
     0
  0
CLASS
  1
DICTIONARYVAR
  2
AcDbDictionaryVar
  3
ObjectDBX Classes
 90
        0
 91
        3
280
     0
281
     0
  0
CLASS
  1
CELLSTYLEMAP
  2
AcDbCellStyleMap
  3
ObjectDBX Classes
 90
     1152
 91
        3
280
     0
281
     0
  0
ENDSEC
  0
SECTION
  2
TABLES
  0
TABLE
  2
VPORT
  5
8
330
0
100
AcDbSymbolTable
 70
     1
  0
VPORT
  5
29
330
8
100
AcDbSymbolTableRecord
100
AcDbViewportTableRecord
  2
*Active
 70
     0
 10
0.0
 20
0.0
 11
1.0
 21
1.0
 12
10.42990654205607
 22
4.5
 13
0.0
 23
0.0
 14
0.5
 24
0.5
 15
0.5
 25
0.5
 16
0.0
 26
0.0
 36
1.0
 17
0.0
 27
0.0
 37
0.0
 40
9.0
 41
1.972972972850329
 42
50.0
 43
0.0
 44
0.0
 50
0.0
 51
0.0
 71
     0
 72
   100
 73
     1
 74
     3
 75
     0
 76
     0
 77
     0
 78
     0
281
     0
 65
     1
110
0.0
120
0.0
130
0.0
111
1.0
121
0.0
131
0.0
112
0.0
122
1.0
132
0.0
 79
     0
146
0.0
348
2F
 60
     3
 61
     5
292
     1
282
     1
141
0.0
142
0.0
 63
   250
361
5D
  0
ENDTAB
  0
TABLE
  2
LTYPE
  5
5
330
0
100
AcDbSymbolTable
 70
     1
  0
LTYPE
  5
14
330
5
100
AcDbSymbolTableRecord
100
AcDbLinetypeTableRecord
  2
ByBlock
 70
     0
  3

 72
    65
 73
     0
 40
0.0
  0
LTYPE
  5
15
330
5
100
AcDbSymbolTableRecord
100
AcDbLinetypeTableRecord
  2
ByLayer
 70
     0
  3

 72
    65
 73
     0
 40
0.0
  0
LTYPE
  5
16
330
5
100
AcDbSymbolTableRecord
100
AcDbLinetypeTableRecord
  2
Continuous
 70
     0
  3
Solid line
 72
    65
 73
     0
 40
0.0
  0
ENDTAB
  0
TABLE
  2
LAYER
  5
2
330
0
100
AcDbSymbolTable
 70
     2
  0
LAYER
  5
10
330
2
100
AcDbSymbolTableRecord
100
AcDbLayerTableRecord
  2
0
 70
     0
 62
     7
  6
Continuous
370
    -3
390
F
347
46
348
0
  0
LAYER
  5
5F
330
2
100
AcDbSymbolTableRecord
100
AcDbLayerTableRecord
  2
Layer 1
 70
     0
 62
     7
  6
Continuous
370
    -3
390
F
347
46
348
0
  0
ENDTAB
  0
TABLE
  2
STYLE
  5
3
330
0
100
AcDbSymbolTable
 70
     1
  0
STYLE
  5
11
330
3
100
AcDbSymbolTableRecord
100
AcDbTextStyleTableRecord
  2
Standard
 70
     0
 40
0.0
 41
1.0
 50
0.0
 71
     0
 42
0.2
  3
txt
  4

  0
ENDTAB
  0
TABLE
  2
VIEW
  5
6
330
0
100
AcDbSymbolTable
 70
     0
  0
ENDTAB
  0
TABLE
  2
UCS
  5
7
330
0
100
AcDbSymbolTable
 70
     0
  0
ENDTAB
  0
TABLE
  2
APPID
  5
9
330
0
100
AcDbSymbolTable
 70
     2
  0
APPID
  5
12
330
9
100
AcDbSymbolTableRecord
100
AcDbRegAppTableRecord
  2
ACAD
 70
     0
  0
APPID
  5
5E
330
9
100
AcDbSymbolTableRecord
100
AcDbRegAppTableRecord
  2
ODA
 70
     0
  0
ENDTAB
  0
TABLE
  2
DIMSTYLE
  5
A
330
0
100
AcDbSymbolTable
 70
     1
100
AcDbDimStyleTable
  0
DIMSTYLE
105
27
330
A
100
AcDbSymbolTableRecord
100
AcDbDimStyleTableRecord
  2
Standard
 70
     0
178
     0
340
11
  0
ENDTAB
  0
TABLE
  2
BLOCK_RECORD
  5
1
330
0
100
AcDbSymbolTable
 70
     1
  0
BLOCK_RECORD
  5
1F
330
1
100
AcDbSymbolTableRecord
100
AcDbBlockTableRecord
  2
*Model_Space
340
22
 70
     0
280
     1
281
     0
  0
BLOCK_RECORD
  5
1B
330
1
100
AcDbSymbolTableRecord
100
AcDbBlockTableRecord
  2
*Paper_Space
340
1E
 70
     0
280
     1
281
     0
  0
BLOCK_RECORD
  5
23
330
1
100
AcDbSymbolTableRecord
100
AcDbBlockTableRecord
  2
*Paper_Space0
340
26
 70
     0
280
     1
281
     0
  0
ENDTAB
  0
ENDSEC
  0
SECTION
  2
BLOCKS
  0
BLOCK
  5
20
330
1F
100
AcDbEntity
  8
0
100
AcDbBlockBegin
  2
*Model_Space
 70
     0
 10
0.0
 20
0.0
 30
0.0
  3
*Model_Space
  1

  0
ENDBLK
  5
21
330
1F
100
AcDbEntity
  8
0
100
AcDbBlockEnd
  0
BLOCK
  5
1C
330
1B
100
AcDbEntity
 67
     1
  8
0
100
AcDbBlockBegin
  2
*Paper_Space
 70
     0
 10
0.0
 20
0.0
 30
0.0
  3
*Paper_Space
  1

  0
ENDBLK
  5
1D
330
1B
100
AcDbEntity
 67
     1
  8
0
100
AcDbBlockEnd
  0
BLOCK
  5
24
330
23
100
AcDbEntity
  8
0
100
AcDbBlockBegin
  2
*Paper_Space0
 70
     0
 10
0.0
 20
0.0
 30
0.0
  3
*Paper_Space0
  1

  0
ENDBLK
  5
25
330
23
100
AcDbEntity
  8
0
100
AcDbBlockEnd
  0
ENDSEC
  0
SECTION
  2
ENTITIES
  0
SPLINE
  5
60
330
1F
100
AcDbEntity
  8
Layer 1
 62
   250
370
    20
100
AcDbSpline
210
0.0
220
0.0
230
1.0
 70
    11
 71
     3
 72
    35
 73
    31
 74
     0
 42
0.0000000001
 43
0.0000000001
 40
0.0
 40
0.0
 40
0.0
 40
0.0
 40
0.1
 40
0.1
 40
0.1
 40
0.2
 40
0.2
 40
0.2
 40
0.3
 40
0.3
 40
0.3
 40
0.4
 40
0.4
 40
0.4
 40
0.5
 40
0.5
 40
0.5
 40
0.6000000000000001
 40
0.6000000000000001
 40
0.6000000000000001
 40
0.7000000000000001
 40
0.7000000000000001
 40
0.7000000000000001
 40
0.8
 40
0.8
 40
0.8
 40
0.9
 40
0.9
 40
0.9
 40
1.0
 40
1.0
 40
1.0
 40
1.0
 10
96.3041
 20
-590.0266
 30
0.0
 10
96.3041
 20
-590.0266
 30
0.0
 10
126.5566
 20
-590.0266
 30
0.0
 10
126.5566
 20
-590.0266
 30
0.0
 10
128.6036
 20
-585.8592
 30
0.0
 10
129.9102
 20
-580.1001
 30
0.0
 10
129.9938
 20
-572.2628
 30
0.0
 10
129.3999
 20
-538.4119
 30
0.0
 10
171.3267
 20
-572.838
 30
0.0
 10
178.3326
 20
-581.7725
 30
0.0
 10
178.3405
 20
-581.7684
 30
0.0
 10
178.3536
 20
-581.7616
 30
0.0
 10
178.3561
 20
-581.7479
 30
0.0
 10
178.36
 20
-581.7616
 30
0.0
 10
178.3718
 20
-581.7684
 30
0.0
 10
178.3784
 20
-581.7725
 30
0.0
 10
185.3857
 20
-572.838
 30
0.0
 10
227.3125
 20
-538.4119
 30
0.0
 10
226.7172
 20
-572.2628
 30
0.0
 10
226.8009
 20
-580.1001
 30
0.0
 10
228.1114
 20
-585.8592
 30
0.0
 10
230.1596
 20
-590.0266
 30
0.0
 10
230.1596
 20
-590.0266
 30
0.0
 10
260.4108
 20
-590.0266
 30
0.0
 10
260.4108
 20
-590.0266
 30
0.0
 10
271.2783
 20
-541.7853
 30
0.0
 10
192.2573
 20
-491.2077
 30
0.0
 10
178.3549
 20
-466.8118
 30
0.0
 10
164.4563
 20
-491.2132
 30
0.0
 10
85.4366
 20
-541.7853
 30
0.0
 10
96.3041
 20
-590.0266
 30
0.0
  0
SPLINE
  5
61
330
1F
100
AcDbEntity
  8
Layer 1
 62
   250
370
    20
100
AcDbSpline
210
0.0
220
0.0
230
1.0
 70
    11
 71
     3
 72
    44
 73
    40
 74
     0
 42
0.0000000001
 43
0.0000000001
 40
0.0
 40
0.0
 40
0.0
 40
0.0
 40
0.0769230769230769
 40
0.0769230769230769
 40
0.0769230769230769
 40
0.1538461538461539
 40
0.1538461538461539
 40
0.1538461538461539
 40
0.2307692307692308
 40
0.2307692307692308
 40
0.2307692307692308
 40
0.3076923076923077
 40
0.3076923076923077
 40
0.3076923076923077
 40
0.3846153846153846
 40
0.3846153846153846
 40
0.3846153846153846
 40
0.4615384615384616
 40
0.4615384615384616
 40
0.4615384615384616
 40
0.5384615384615385
 40
0.5384615384615385
 40
0.5384615384615385
 40
0.6153846153846154
 40
0.6153846153846154
 40
0.6153846153846154
 40
0.6923076923076923
 40
0.6923076923076923
 40
0.6923076923076923
 40
0.7692307692307693
 40
0.7692307692307693
 40
0.7692307692307693
 40
0.8461538461538463
 40
0.8461538461538463
 40
0.8461538461538463
 40
0.9230769230769231
 40
0.9230769230769231
 40
0.9230769230769231
 40
1.0
 40
1.0
 40
1.0
 40
1.0
 10
562.6939
 20
-590.0266
 30
0.0
 10
562.6939
 20
-590.0266
 30
0.0
 10
689.7785
 20
-590.0266
 30
0.0
 10
689.7785
 20
-590.0266
 30
0.0
 10
702.0791
 20
-584.5476
 30
0.0
 10
713.9153
 20
-580.0741
 30
0.0
 10
722.3337
 20
-577.9549
 30
0.0
 10
722.3611
 20
-577.9482
 30
0.0
 10
722.3793
 20
-577.9413
 30
0.0
 10
722.4056
 20
-577.9317
 30
0.0
 10
722.8127
 20
-577.8006
 30
0.0
 10
723.0361
 20
-577.7268
 30
0.0
 10
723.0334
 20
-577.7241
 30
0.0
 10
731.4062
 20
-522.3943
 30
0.0
 10
760.7137
 20
-490.7924
 30
0.0
 10
760.7137
 20
-490.7924
 30
0.0
 10
818.6317
 20
-446.6283
 30
0.0
 10
833.3212
 20
-410.2004
 30
0.0
 10
836.4791
 20
-399.9898
 30
0.0
 10
836.4791
 20
-399.9898
 30
0.0
 10
712.162
 20
-399.9898
 30
0.0
 10
712.162
 20
-399.9898
 30
0.0
 10
681.4617
 20
-455.1747
 30
0.0
 10
637.9475
 20
-465.0396
 30
0.0
 10
627.5971
 20
-466.6369
 30
0.0
 10
627.5971
 20
-466.6369
 30
0.0
 10
627.3112
 20
-466.947
 30
0.0
 10
627.3112
 20
-466.947
 30
0.0
 10
627.3112
 20
-466.947
 30
0.0
 10
626.9587
 20
-467.3269
 30
0.0
 10
626.9587
 20
-467.3269
 30
0.0
 10
626.9587
 20
-467.3269
 30
0.0
 10
626.3008
 20
-468.0347
 30
0.0
 10
626.3008
 20
-468.0347
 30
0.0
 10
624.3688
 20
-479.2058
 30
0.0
 10
613.4792
 20
-525.791
 30
0.0
 10
562.6939
 20
-556.8123
 30
0.0
 10
562.6939
 20
-556.8123
 30
0.0
 10
562.6939
 20
-590.0266
 30
0.0
 10
562.6939
 20
-590.0266
 30
0.0
  0
SPLINE
  5
62
330
1F
100
AcDbEntity
  8
Layer 1
 62
   250
370
    20
100
AcDbSpline
210
0.0
220
0.0
230
1.0
 70
    11
 71
     3
 72
    35
 73
    31
 74
     0
 42
0.0000000001
 43
0.0000000001
 40
0.0
 40
0.0
 40
0.0
 40
0.0
 40
0.1
 40
0.1
 40
0.1
 40
0.2
 40
0.2
 40
0.2
 40
0.3
 40
0.3
 40
0.3
 40
0.4
 40
0.4
 40
0.4
 40
0.5
 40
0.5
 40
0.5
 40
0.6000000000000001
 40
0.6000000000000001
 40
0.6000000000000001
 40
0.7000000000000001
 40
0.7000000000000001
 40
0.7000000000000001
 40
0.8
 40
0.8
 40
0.8
 40
0.9
 40
0.9
 40
0.9
 40
1.0
 40
1.0
 40
1.0
 40
1.0
 10
799.2712
 20
-590.0266
 30
0.0
 10
799.2712
 20
-590.0266
 30
0.0
 10
829.5225
 20
-590.0266
 30
0.0
 10
829.5225
 20
-590.0266
 30
0.0
 10
831.572
 20
-585.8592
 30
0.0
 10
832.8761
 20
-580.1001
 30
0.0
 10
832.9609
 20
-572.2628
 30
0.0
 10
832.367
 20
-538.4119
 30
0.0
 10
874.2938
 20
-572.838
 30
0.0
 10
881.3011
 20
-581.7725
 30
0.0
 10
881.3076
 20
-581.7684
 30
0.0
 10
881.3207
 20
-581.7616
 30
0.0
 10
881.3221
 20
-581.7479
 30
0.0
 10
881.3273
 20
-581.7616
 30
0.0
 10
881.3403
 20
-581.7684
 30
0.0
 10
881.3455
 20
-581.7725
 30
0.0
 10
888.3516
 20
-572.838
 30
0.0
 10
930.2809
 20
-538.4119
 30
0.0
 10
929.6844
 20
-572.2628
 30
0.0
 10
929.7693
 20
-580.1001
 30
0.0
 10
931.0785
 20
-585.8592
 30
0.0
 10
933.1254
 20
-590.0266
 30
0.0
 10
933.1254
 20
-590.0266
 30
0.0
 10
963.378
 20
-590.0266
 30
0.0
 10
963.378
 20
-590.0266
 30
0.0
 10
974.2455
 20
-541.7853
 30
0.0
 10
895.2232
 20
-491.2077
 30
0.0
 10
881.3221
 20
-466.8118
 30
0.0
 10
867.4234
 20
-491.2132
 30
0.0
 10
788.4024
 20
-541.7853
 30
0.0
 10
799.2712
 20
-590.0266
 30
0.0
  0
SPLINE
  5
63
330
1F
100
AcDbEntity
  8
Layer 1
 62
   250
370
    20
100
AcDbSpline
210
0.0
220
0.0
230
1.0
 70
    11
 71
     3
 72
    44
 73
    40
 74
     0
 42
0.0000000001
 43
0.0000000001
 40
0.0
 40
0.0
 40
0.0
 40
0.0
 40
0.0769230769230769
 40
0.0769230769230769
 40
0.0769230769230769
 40
0.1538461538461539
 40
0.1538461538461539
 40
0.1538461538461539
 40
0.2307692307692308
 40
0.2307692307692308
 40
0.2307692307692308
 40
0.3076923076923077
 40
0.3076923076923077
 40
0.3076923076923077
 40
0.3846153846153846
 40
0.3846153846153846
 40
0.3846153846153846
 40
0.4615384615384616
 40
0.4615384615384616
 40
0.4615384615384616
 40
0.5384615384615385
 40
0.5384615384615385
 40
0.5384615384615385
 40
0.6153846153846154
 40
0.6153846153846154
 40
0.6153846153846154
 40
0.6923076923076923
 40
0.6923076923076923
 40
0.6923076923076923
 40
0.7692307692307693
 40
0.7692307692307693
 40
0.7692307692307693
 40
0.8461538461538463
 40
0.8461538461538463
 40
0.8461538461538463
 40
0.9230769230769231
 40
0.9230769230769231
 40
0.9230769230769231
 40
1.0
 40
1.0
 40
1.0
 40
1.0
 10
1072.8709
 20
-590.0266
 30
0.0
 10
1072.8709
 20
-590.0266
 30
0.0
 10
1199.95
 20
-590.0266
 30
0.0
 10
1199.95
 20
-590.0266
 30
0.0
 10
1199.95
 20
-590.0266
 30
0.0
 10
1199.95
 20
-556.8123
 30
0.0
 10
1199.95
 20
-556.8123
 30
0.0
 10
1149.1648
 20
-525.791
 30
0.0
 10
1138.274
 20
-479.2058
 30
0.0
 10
1136.3445
 20
-468.0347
 30
0.0
 10
1136.3445
 20
-468.0347
 30
0.0
 10
1135.6853
 20
-467.3269
 30
0.0
 10
1135.6853
 20
-467.3269
 30
0.0
 10
1135.6853
 20
-467.3269
 30
0.0
 10
1135.3342
 20
-466.947
 30
0.0
 10
1135.3342
 20
-466.947
 30
0.0
 10
1135.3342
 20
-466.947
 30
0.0
 10
1135.0469
 20
-466.6369
 30
0.0
 10
1135.0469
 20
-466.6369
 30
0.0
 10
1124.6991
 20
-465.0396
 30
0.0
 10
1081.181
 20
-455.1747
 30
0.0
 10
1050.482
 20
-399.9898
 30
0.0
 10
1050.482
 20
-399.9898
 30
0.0
 10
926.1664
 20
-399.9898
 30
0.0
 10
926.1664
 20
-399.9898
 30
0.0
 10
929.3241
 20
-410.2004
 30
0.0
 10
944.0138
 20
-446.6283
 30
0.0
 10
1001.9316
 20
-490.7924
 30
0.0
 10
1001.9316
 20
-490.7924
 30
0.0
 10
1031.2378
 20
-522.3943
 30
0.0
 10
1039.612
 20
-577.7241
 30
0.0
 10
1039.6094
 20
-577.7268
 30
0.0
 10
1039.8326
 20
-577.8006
 30
0.0
 10
1040.2399
 20
-577.9317
 30
0.0
 10
1040.2659
 20
-577.9413
 30
0.0
 10
1040.2843
 20
-577.9482
 30
0.0
 10
1040.3117
 20
-577.9549
 30
0.0
 10
1048.7289
 20
-580.0741
 30
0.0
 10
1060.5714
 20
-584.5476
 30
0.0
 10
1072.8709
 20
-590.0266
 30
0.0
  0
SPLINE
  5
64
330
1F
100
AcDbEntity
  8
Layer 1
 62
   250
370
    20
100
AcDbSpline
210
0.0
220
0.0
230
1.0
 70
    11
 71
     3
 72
    44
 73
    40
 74
     0
 42
0.0000000001
 43
0.0000000001
 40
0.0
 40
0.0
 40
0.0
 40
0.0
 40
0.0769230769230769
 40
0.0769230769230769
 40
0.0769230769230769
 40
0.1538461538461539
 40
0.1538461538461539
 40
0.1538461538461539
 40
0.2307692307692308
 40
0.2307692307692308
 40
0.2307692307692308
 40
0.3076923076923077
 40
0.3076923076923077
 40
0.3076923076923077
 40
0.3846153846153846
 40
0.3846153846153846
 40
0.3846153846153846
 40
0.4615384615384616
 40
0.4615384615384616
 40
0.4615384615384616
 40
0.5384615384615385
 40
0.5384615384615385
 40
0.5384615384615385
 40
0.6153846153846154
 40
0.6153846153846154
 40
0.6153846153846154
 40
0.6923076923076923
 40
0.6923076923076923
 40
0.6923076923076923
 40
0.7692307692307693
 40
0.7692307692307693
 40
0.7692307692307693
 40
0.8461538461538463
 40
0.8461538461538463
 40
0.8461538461538463
 40
0.9230769230769231
 40
0.9230769230769231
 40
0.9230769230769231
 40
1.0
 40
1.0
 40
1.0
 40
1.0
 10
369.9038
 20
-590.0266
 30
0.0
 10
369.9038
 20
-590.0266
 30
0.0
 10
496.9829
 20
-590.0266
 30
0.0
 10
496.9829
 20
-590.0266
 30
0.0
 10
496.9829
 20
-590.0266
 30
0.0
 10
496.9829
 20
-556.8123
 30
0.0
 10
496.9829
 20
-556.8123
 30
0.0
 10
446.199
 20
-525.791
 30
0.0
 10
435.308
 20
-479.2058
 30
0.0
 10
433.3787
 20
-468.0347
 30
0.0
 10
433.3787
 20
-468.0347
 30
0.0
 10
432.7195
 20
-467.3269
 30
0.0
 10
432.7195
 20
-467.3269
 30
0.0
 10
432.7195
 20
-467.3269
 30
0.0
 10
432.3684
 20
-466.947
 30
0.0
 10
432.3684
 20
-466.947
 30
0.0
 10
432.3684
 20
-466.947
 30
0.0
 10
432.0798
 20
-466.6369
 30
0.0
 10
432.0798
 20
-466.6369
 30
0.0
 10
421.7319
 20
-465.0396
 30
0.0
 10
378.2152
 20
-455.1747
 30
0.0
 10
347.5135
 20
-399.9898
 30
0.0
 10
347.5135
 20
-399.9898
 30
0.0
 10
223.2005
 20
-399.9898
 30
0.0
 10
223.2005
 20
-399.9898
 30
0.0
 10
226.357
 20
-410.2004
 30
0.0
 10
241.0466
 20
-446.6283
 30
0.0
 10
298.9658
 20
-490.7924
 30
0.0
 10
298.9658
 20
-490.7924
 30
0.0
 10
328.272
 20
-522.3943
 30
0.0
 10
336.6447
 20
-577.7241
 30
0.0
 10
336.6422
 20
-577.7268
 30
0.0
 10
336.8641
 20
-577.8006
 30
0.0
 10
337.2727
 20
-577.9317
 30
0.0
 10
337.2988
 20
-577.9413
 30
0.0
 10
337.317
 20
-577.9482
 30
0.0
 10
337.3444
 20
-577.9549
 30
0.0
 10
345.7617
 20
-580.0741
 30
0.0
 10
357.6029
 20
-584.5476
 30
0.0
 10
369.9038
 20
-590.0266
 30
0.0
  0
SPLINE
  5
65
330
1F
100
AcDbEntity
  8
Layer 1
 62
   250
370
    20
100
AcDbSpline
210
0.0
220
0.0
230
1.0
 70
    11
 71
     3
 72
    44
 73
    40
 74
     0
 42
0.0000000001
 43
0.0000000001
 40
0.0
 40
0.0
 40
0.0
 40
0.0
 40
0.0769230769230769
 40
0.0769230769230769
 40
0.0769230769230769
 40
0.1538461538461539
 40
0.1538461538461539
 40
0.1538461538461539
 40
0.2307692307692308
 40
0.2307692307692308
 40
0.2307692307692308
 40
0.3076923076923077
 40
0.3076923076923077
 40
0.3076923076923077
 40
0.3846153846153846
 40
0.3846153846153846
 40
0.3846153846153846
 40
0.4615384615384616
 40
0.4615384615384616
 40
0.4615384615384616
 40
0.5384615384615385
 40
0.5384615384615385
 40
0.5384615384615385
 40
0.6153846153846154
 40
0.6153846153846154
 40
0.6153846153846154
 40
0.6923076923076923
 40
0.6923076923076923
 40
0.6923076923076923
 40
0.7692307692307693
 40
0.7692307692307693
 40
0.7692307692307693
 40
0.8461538461538463
 40
0.8461538461538463
 40
0.8461538461538463
 40
0.9230769230769231
 40
0.9230769230769231
 40
0.9230769230769231
 40
1.0
 40
1.0
 40
1.0
 40
1.0
 10
562.6939
 20
589.9734
 30
0.0
 10
562.6939
 20
589.9734
 30
0.0
 10
562.6939
 20
559.3279
 30
0.0
 10
562.6939
 20
559.3279
 30
0.0
 10
613.4792
 20
528.3053
 30
0.0
 10
624.3688
 20
481.7201
 30
0.0
 10
626.3008
 20
470.5489
 30
0.0
 10
626.3008
 20
470.5489
 30
0.0
 10
626.9587
 20
469.8412
 30
0.0
 10
626.9587
 20
469.8412
 30
0.0
 10
626.9587
 20
469.8412
 30
0.0
 10
627.3112
 20
469.4613
 30
0.0
 10
627.3112
 20
469.4613
 30
0.0
 10
627.3112
 20
469.4613
 30
0.0
 10
627.5971
 20
469.1526
 30
0.0
 10
627.5971
 20
469.1526
 30
0.0
 10
637.9475
 20
467.5539
 30
0.0
 10
681.4617
 20
457.6876
 30
0.0
 10
712.162
 20
402.5027
 30
0.0
 10
712.162
 20
402.5027
 30
0.0
 10
836.4791
 20
402.5027
 30
0.0
 10
836.4791
 20
402.5027
 30
0.0
 10
833.3212
 20
412.7146
 30
0.0
 10
818.6317
 20
449.144
 30
0.0
 10
760.7137
 20
493.308
 30
0.0
 10
760.7137
 20
493.308
 30
0.0
 10
731.4062
 20
524.9072
 30
0.0
 10
723.0334
 20
580.2397
 30
0.0
 10
723.0361
 20
580.2424
 30
0.0
 10
722.8127
 20
580.3148
 30
0.0
 10
722.4056
 20
580.4474
 30
0.0
 10
722.3793
 20
580.4556
 30
0.0
 10
722.3611
 20
580.4624
 30
0.0
 10
722.3337
 20
580.4706
 30
0.0
 10
715.2728
 20
582.2468
 30
0.0
 10
705.8008
 20
585.6791
 30
0.0
 10
695.6723
 20
589.9734
 30
0.0
 10
695.6723
 20
589.9734
 30
0.0
 10
562.6939
 20
589.9734
 30
0.0
 10
562.6939
 20
589.9734
 30
0.0
  0
SPLINE
  5
66
330
1F
100
AcDbEntity
  8
Layer 1
 62
   250
370
    20
100
AcDbSpline
210
0.0
220
0.0
230
1.0
 70
    11
 71
     3
 72
    44
 73
    40
 74
     0
 42
0.0000000001
 43
0.0000000001
 40
0.0
 40
0.0
 40
0.0
 40
0.0
 40
0.0769230769230769
 40
0.0769230769230769
 40
0.0769230769230769
 40
0.1538461538461539
 40
0.1538461538461539
 40
0.1538461538461539
 40
0.2307692307692308
 40
0.2307692307692308
 40
0.2307692307692308
 40
0.3076923076923077
 40
0.3076923076923077
 40
0.3076923076923077
 40
0.3846153846153846
 40
0.3846153846153846
 40
0.3846153846153846
 40
0.4615384615384616
 40
0.4615384615384616
 40
0.4615384615384616
 40
0.5384615384615385
 40
0.5384615384615385
 40
0.5384615384615385
 40
0.6153846153846154
 40
0.6153846153846154
 40
0.6153846153846154
 40
0.6923076923076923
 40
0.6923076923076923
 40
0.6923076923076923
 40
0.7692307692307693
 40
0.7692307692307693
 40
0.7692307692307693
 40
0.8461538461538463
 40
0.8461538461538463
 40
0.8461538461538463
 40
0.9230769230769231
 40
0.9230769230769231
 40
0.9230769230769231
 40
1.0
 40
1.0
 40
1.0
 40
1.0
 10
1135.3342
 20
469.4613
 30
0.0
 10
1135.3342
 20
469.4613
 30
0.0
 10
1135.0469
 20
469.1526
 30
0.0
 10
1135.0469
 20
469.1526
 30
0.0
 10
1124.6991
 20
467.5539
 30
0.0
 10
1081.181
 20
457.6876
 30
0.0
 10
1050.482
 20
402.5027
 30
0.0
 10
1050.482
 20
402.5027
 30
0.0
 10
926.1664
 20
402.5027
 30
0.0
 10
926.1664
 20
402.5027
 30
0.0
 10
929.3241
 20
412.7146
 30
0.0
 10
944.0138
 20
449.144
 30
0.0
 10
1001.9316
 20
493.308
 30
0.0
 10
1001.9316
 20
493.308
 30
0.0
 10
1031.2378
 20
524.9072
 30
0.0
 10
1039.612
 20
580.2397
 30
0.0
 10
1039.6094
 20
580.2424
 30
0.0
 10
1039.8326
 20
580.3148
 30
0.0
 10
1040.2399
 20
580.4474
 30
0.0
 10
1040.2659
 20
580.4556
 30
0.0
 10
1040.2843
 20
580.4624
 30
0.0
 10
1040.3117
 20
580.4706
 30
0.0
 10
1047.3713
 20
582.2468
 30
0.0
 10
1056.8419
 20
585.6791
 30
0.0
 10
1066.9731
 20
589.9734
 30
0.0
 10
1066.9731
 20
589.9734
 30
0.0
 10
1199.95
 20
589.9734
 30
0.0
 10
1199.95
 20
589.9734
 30
0.0
 10
1199.95
 20
589.9734
 30
0.0
 10
1199.95
 20
559.3265
 30
0.0
 10
1199.95
 20
559.3265
 30
0.0
 10
1149.1648
 20
528.3053
 30
0.0
 10
1138.274
 20
481.7201
 30
0.0
 10
1136.3445
 20
470.5489
 30
0.0
 10
1136.3445
 20
470.5489
 30
0.0
 10
1135.6853
 20
469.8412
 30
0.0
 10
1135.6853
 20
469.8412
 30
0.0
 10
1135.6853
 20
469.8412
 30
0.0
 10
1135.3342
 20
469.4613
 30
0.0
 10
1135.3342
 20
469.4613
 30
0.0
  0
SPLINE
  5
67
330
1F
100
AcDbEntity
  8
Layer 1
 62
   250
370
    20
100
AcDbSpline
210
0.0
220
0.0
230
1.0
 70
    11
 71
     3
 72
    35
 73
    31
 74
     0
 42
0.0000000001
 43
0.0000000001
 40
0.0
 40
0.0
 40
0.0
 40
0.0
 40
0.1
 40
0.1
 40
0.1
 40
0.2
 40
0.2
 40
0.2
 40
0.3
 40
0.3
 40
0.3
 40
0.4
 40
0.4
 40
0.4
 40
0.5
 40
0.5
 40
0.5
 40
0.6000000000000001
 40
0.6000000000000001
 40
0.6000000000000001
 40
0.7000000000000001
 40
0.7000000000000001
 40
0.7000000000000001
 40
0.8
 40
0.8
 40
0.8
 40
0.9
 40
0.9
 40
0.9
 40
1.0
 40
1.0
 40
1.0
 40
1.0
 10
932.0355
 20
589.9734
 30
0.0
 10
930.6217
 20
586.0958
 30
0.0
 10
929.7523
 20
581.1168
 30
0.0
 10
929.6844
 20
574.7771
 30
0.0
 10
930.2809
 20
540.9261
 30
0.0
 10
888.3516
 20
575.3523
 30
0.0
 10
881.3455
 20
584.2868
 30
0.0
 10
881.3403
 20
584.2827
 30
0.0
 10
881.3273
 20
584.2744
 30
0.0
 10
881.3221
 20
584.2622
 30
0.0
 10
881.3207
 20
584.2744
 30
0.0
 10
881.3076
 20
584.2827
 30
0.0
 10
881.3011
 20
584.2868
 30
0.0
 10
874.2938
 20
575.3523
 30
0.0
 10
832.367
 20
540.9261
 30
0.0
 10
832.9609
 20
574.7771
 30
0.0
 10
832.893
 20
581.1168
 30
0.0
 10
832.0249
 20
586.0958
 30
0.0
 10
830.61
 20
589.9734
 30
0.0
 10
830.61
 20
589.9734
 30
0.0
 10
798.7857
 20
589.9734
 30
0.0
 10
798.7857
 20
589.9734
 30
0.0
 10
791.1896
 20
542.5138
 30
0.0
 10
867.6702
 20
493.297
 30
0.0
 10
881.3221
 20
469.326
 30
0.0
 10
894.9765
 20
493.2916
 30
0.0
 10
971.4559
 20
542.5138
 30
0.0
 10
963.8611
 20
589.9734
 30
0.0
 10
963.8611
 20
589.9734
 30
0.0
 10
932.0355
 20
589.9734
 30
0.0
 10
932.0355
 20
589.9734
 30
0.0
  0
SPLINE
  5
68
330
1F
100
AcDbEntity
  8
Layer 1
 62
   250
370
    20
100
AcDbSpline
210
0.0
220
0.0
230
1.0
 70
    11
 71
     3
 72
    20
 73
    16
 74
     0
 42
0.0000000001
 43
0.0000000001
 40
0.0
 40
0.0
 40
0.0
 40
0.0
 40
0.2
 40
0.2
 40
0.2
 40
0.4
 40
0.4
 40
0.4
 40
0.6000000000000001
 40
0.6000000000000001
 40
0.6000000000000001
 40
0.8
 40
0.8
 40
0.8
 40
1.0
 40
1.0
 40
1.0
 40
1.0
 10
-1200.05
 20
-561.8581
 30
0.0
 10
-1188.1173
 20
-555.547
 30
0.0
 10
-1176.6898
 20
-554.4759
 30
0.0
 10
-1177.0031
 20
-572.2628
 30
0.0
 10
-1176.9195
 20
-580.1015
 30
0.0
 10
-1175.6077
 20
-585.8592
 30
0.0
 10
-1173.5608
 20
-590.0266
 30
0.0
 10
-1173.5608
 20
-590.0266
 30
0.0
 10
-1143.3108
 20
-590.0266
 30
0.0
 10
-1143.3108
 20
-590.0266
 30
0.0
 10
-1135.6468
 20
-556.0103
 30
0.0
 10
-1172.6718
 20
-520.838
 30
0.0
 10
-1200.05
 20
-494.4979
 30
0.0
 10
-1200.05
 20
-494.4979
 30
0.0
 10
-1200.05
 20
-561.8581
 30
0.0
 10
-1200.05
 20
-561.8581
 30
0.0
  0
SPLINE
  5
69
330
1F
100
AcDbEntity
  8
Layer 1
 62
   250
370
    20
100
AcDbSpline
210
0.0
220
0.0
230
1.0
 70
    11
 71
     3
 72
    44
 73
    40
 74
     0
 42
0.0000000001
 43
0.0000000001
 40
0.0
 40
0.0
 40
0.0
 40
0.0
 40
0.0769230769230769
 40
0.0769230769230769
 40
0.0769230769230769
 40
0.1538461538461539
 40
0.1538461538461539
 40
0.1538461538461539
 40
0.2307692307692308
 40
0.2307692307692308
 40
0.2307692307692308
 40
0.3076923076923077
 40
0.3076923076923077
 40
0.3076923076923077
 40
0.3846153846153846
 40
0.3846153846153846
 40
0.3846153846153846
 40
0.4615384615384616
 40
0.4615384615384616
 40
0.4615384615384616
 40
0.5384615384615385
 40
0.5384615384615385
 40
0.5384615384615385
 40
0.6153846153846154
 40
0.6153846153846154
 40
0.6153846153846154
 40
0.6923076923076923
 40
0.6923076923076923
 40
0.6923076923076923
 40
0.7692307692307693
 40
0.7692307692307693
 40
0.7692307692307693
 40
0.8461538461538463
 40
0.8461538461538463
 40
0.8461538461538463
 40
0.9230769230769231
 40
0.9230769230769231
 40
0.9230769230769231
 40
1.0
 40
1.0
 40
1.0
 40
1.0
 10
-971.3559
 20
-466.947
 30
0.0
 10
-971.3559
 20
-466.947
 30
0.0
 10
-971.6419
 20
-466.6369
 30
0.0
 10
-971.6419
 20
-466.6369
 30
0.0
 10
-981.9911
 20
-465.0396
 30
0.0
 10
-1025.5052
 20
-455.1747
 30
0.0
 10
-1056.2055
 20
-399.9898
 30
0.0
 10
-1056.2055
 20
-399.9898
 30
0.0
 10
-1180.5225
 20
-399.9898
 30
0.0
 10
-1180.5225
 20
-399.9898
 30
0.0
 10
-1177.3647
 20
-410.2004
 30
0.0
 10
-1162.6751
 20
-446.6283
 30
0.0
 10
-1104.7559
 20
-490.7924
 30
0.0
 10
-1104.7559
 20
-490.7924
 30
0.0
 10
-1075.4484
 20
-522.3943
 30
0.0
 10
-1067.0768
 20
-577.7241
 30
0.0
 10
-1067.0795
 20
-577.7268
 30
0.0
 10
-1066.855
 20
-577.8006
 30
0.0
 10
-1066.4476
 20
-577.9317
 30
0.0
 10
-1066.4216
 20
-577.9413
 30
0.0
 10
-1066.4034
 20
-577.9482
 30
0.0
 10
-1066.3771
 20
-577.9549
 30
0.0
 10
-1057.96
 20
-580.0741
 30
0.0
 10
-1046.1148
 20
-584.5461
 30
0.0
 10
-1033.8128
 20
-590.0266
 30
0.0
 10
-1033.8128
 20
-590.0266
 30
0.0
 10
-906.7388
 20
-590.0266
 30
0.0
 10
-906.7388
 20
-590.0266
 30
0.0
 10
-906.7388
 20
-590.0266
 30
0.0
 10
-906.7388
 20
-556.8123
 30
0.0
 10
-906.7388
 20
-556.8123
 30
0.0
 10
-957.5227
 20
-525.791
 30
0.0
 10
-968.4124
 20
-479.2058
 30
0.0
 10
-970.3444
 20
-468.0347
 30
0.0
 10
-970.3444
 20
-468.0347
 30
0.0
 10
-971.0022
 20
-467.3269
 30
0.0
 10
-971.0022
 20
-467.3269
 30
0.0
 10
-971.0022
 20
-467.3269
 30
0.0
 10
-971.3559
 20
-466.947
 30
0.0
 10
-971.3559
 20
-466.947
 30
0.0
  0
SPLINE
  5
6A
330
1F
100
AcDbEntity
  8
Layer 1
 62
   250
370
    20
100
AcDbSpline
210
0.0
220
0.0
230
1.0
 70
    11
 71
     3
 72
    44
 73
    40
 74
     0
 42
0.0000000001
 43
0.0000000001
 40
0.0
 40
0.0
 40
0.0
 40
0.0
 40
0.0769230769230769
 40
0.0769230769230769
 40
0.0769230769230769
 40
0.1538461538461539
 40
0.1538461538461539
 40
0.1538461538461539
 40
0.2307692307692308
 40
0.2307692307692308
 40
0.2307692307692308
 40
0.3076923076923077
 40
0.3076923076923077
 40
0.3076923076923077
 40
0.3846153846153846
 40
0.3846153846153846
 40
0.3846153846153846
 40
0.4615384615384616
 40
0.4615384615384616
 40
0.4615384615384616
 40
0.5384615384615385
 40
0.5384615384615385
 40
0.5384615384615385
 40
0.6153846153846154
 40
0.6153846153846154
 40
0.6153846153846154
 40
0.6923076923076923
 40
0.6923076923076923
 40
0.6923076923076923
 40
0.7692307692307693
 40
0.7692307692307693
 40
0.7692307692307693
 40
0.8461538461538463
 40
0.8461538461538463
 40
0.8461538461538463
 40
0.9230769230769231
 40
0.9230769230769231
 40
0.9230769230769231
 40
1.0
 40
1.0
 40
1.0
 40
1.0
 10
-971.3559
 20
-268.3625
 30
0.0
 10
-971.3559
 20
-268.3625
 30
0.0
 10
-971.6419
 20
-268.6713
 30
0.0
 10
-971.6419
 20
-268.6713
 30
0.0
 10
-981.9911
 20
-270.2699
 30
0.0
 10
-1025.5052
 20
-280.1349
 30
0.0
 10
-1056.2055
 20
-335.3198
 30
0.0
 10
-1056.2055
 20
-335.3198
 30
0.0
 10
-1180.5225
 20
-335.3198
 30
0.0
 10
-1180.5225
 20
-335.3198
 30
0.0
 10
-1177.3647
 20
-325.1078
 30
0.0
 10
-1162.6751
 20
-288.6799
 30
0.0
 10
-1104.7559
 20
-244.5159
 30
0.0
 10
-1104.7559
 20
-244.5159
 30
0.0
 10
-1075.4484
 20
-212.9152
 30
0.0
 10
-1067.0768
 20
-157.5827
 30
0.0
 10
-1067.0795
 20
-157.58
 30
0.0
 10
-1066.855
 20
-157.5077
 30
0.0
 10
-1066.4476
 20
-157.3764
 30
0.0
 10
-1066.4216
 20
-157.3682
 30
0.0
 10
-1066.4034
 20
-157.3615
 30
0.0
 10
-1066.3771
 20
-157.3532
 30
0.0
 10
-1041.0472
 20
-150.9766
 30
0.0
 10
-984.7207
 20
-123.2877
 30
0.0
 10
-978.0984
 20
-110.9498
 30
0.0
 10
-957.5306
 20
-73.1282
 30
0.0
 10
-924.9009
 20
-52.1317
 30
0.0
 10
-906.7388
 20
-44.3054
 30
0.0
 10
-906.7388
 20
-44.3054
 30
0.0
 10
-906.7388
 20
-178.4973
 30
0.0
 10
-906.7388
 20
-178.4973
 30
0.0
 10
-957.5227
 20
-209.5172
 30
0.0
 10
-968.4124
 20
-256.1023
 30
0.0
 10
-970.3444
 20
-267.2736
 30
0.0
 10
-970.3444
 20
-267.2736
 30
0.0
 10
-971.0022
 20
-267.9826
 30
0.0
 10
-971.0022
 20
-267.9826
 30
0.0
 10
-971.0022
 20
-267.9826
 30
0.0
 10
-971.3559
 20
-268.3625
 30
0.0
 10
-971.3559
 20
-268.3625
 30
0.0
  0
SPLINE
  5
6B
330
1F
100
AcDbEntity
  8
Layer 1
 62
   250
370
    20
100
AcDbSpline
210
0.0
220
0.0
230
1.0
 70
    11
 71
     3
 72
    44
 73
    40
 74
     0
 42
0.0000000001
 43
0.0000000001
 40
0.0
 40
0.0
 40
0.0
 40
0.0
 40
0.0769230769230769
 40
0.0769230769230769
 40
0.0769230769230769
 40
0.1538461538461539
 40
0.1538461538461539
 40
0.1538461538461539
 40
0.2307692307692308
 40
0.2307692307692308
 40
0.2307692307692308
 40
0.3076923076923077
 40
0.3076923076923077
 40
0.3076923076923077
 40
0.3846153846153846
 40
0.3846153846153846
 40
0.3846153846153846
 40
0.4615384615384616
 40
0.4615384615384616
 40
0.4615384615384616
 40
0.5384615384615385
 40
0.5384615384615385
 40
0.5384615384615385
 40
0.6153846153846154
 40
0.6153846153846154
 40
0.6153846153846154
 40
0.6923076923076923
 40
0.6923076923076923
 40
0.6923076923076923
 40
0.7692307692307693
 40
0.7692307692307693
 40
0.7692307692307693
 40
0.8461538461538463
 40
0.8461538461538463
 40
0.8461538461538463
 40
0.9230769230769231
 40
0.9230769230769231
 40
0.9230769230769231
 40
1.0
 40
1.0
 40
1.0
 40
1.0
 10
-776.4105
 20
-466.947
 30
0.0
 10
-776.4105
 20
-466.947
 30
0.0
 10
-776.1246
 20
-466.6369
 30
0.0
 10
-776.1246
 20
-466.6369
 30
0.0
 10
-765.7755
 20
-465.0396
 30
0.0
 10
-722.2587
 20
-455.1747
 30
0.0
 10
-691.5584
 20
-399.9898
 30
0.0
 10
-691.5584
 20
-399.9898
 30
0.0
 10
-567.2426
 20
-399.9898
 30
0.0
 10
-567.2426
 20
-399.9898
 30
0.0
 10
-570.4005
 20
-410.2004
 30
0.0
 10
-585.09
 20
-446.6283
 30
0.0
 10
-643.0093
 20
-490.7924
 30
0.0
 10
-643.0093
 20
-490.7924
 30
0.0
 10
-672.3155
 20
-522.3943
 30
0.0
 10
-680.6883
 20
-577.7241
 30
0.0
 10
-680.6856
 20
-577.7268
 30
0.0
 10
-680.909
 20
-577.8006
 30
0.0
 10
-681.3161
 20
-577.9317
 30
0.0
 10
-681.341
 20
-577.9413
 30
0.0
 10
-681.3619
 20
-577.9482
 30
0.0
 10
-681.388
 20
-577.9549
 30
0.0
 10
-689.8051
 20
-580.0741
 30
0.0
 10
-701.6439
 20
-584.5461
 30
0.0
 10
-713.9459
 20
-590.0266
 30
0.0
 10
-713.9459
 20
-590.0266
 30
0.0
 10
-841.0291
 20
-590.0266
 30
0.0
 10
-841.0291
 20
-590.0266
 30
0.0
 10
-841.0291
 20
-590.0266
 30
0.0
 10
-841.0291
 20
-556.8123
 30
0.0
 10
-841.0291
 20
-556.8123
 30
0.0
 10
-790.2412
 20
-525.791
 30
0.0
 10
-779.3503
 20
-479.2058
 30
0.0
 10
-777.4209
 20
-468.0347
 30
0.0
 10
-777.4209
 20
-468.0347
 30
0.0
 10
-776.763
 20
-467.3269
 30
0.0
 10
-776.763
 20
-467.3269
 30
0.0
 10
-776.763
 20
-467.3269
 30
0.0
 10
-776.4105
 20
-466.947
 30
0.0
 10
-776.4105
 20
-466.947
 30
0.0
  0
SPLINE
  5
6C
330
1F
100
AcDbEntity
  8
Layer 1
 62
   250
370
    20
100
AcDbSpline
210
0.0
220
0.0
230
1.0
 70
    11
 71
     3
 72
    44
 73
    40
 74
     0
 42
0.0000000001
 43
0.0000000001
 40
0.0
 40
0.0
 40
0.0
 40
0.0
 40
0.0769230769230769
 40
0.0769230769230769
 40
0.0769230769230769
 40
0.1538461538461539
 40
0.1538461538461539
 40
0.1538461538461539
 40
0.2307692307692308
 40
0.2307692307692308
 40
0.2307692307692308
 40
0.3076923076923077
 40
0.3076923076923077
 40
0.3076923076923077
 40
0.3846153846153846
 40
0.3846153846153846
 40
0.3846153846153846
 40
0.4615384615384616
 40
0.4615384615384616
 40
0.4615384615384616
 40
0.5384615384615385
 40
0.5384615384615385
 40
0.5384615384615385
 40
0.6153846153846154
 40
0.6153846153846154
 40
0.6153846153846154
 40
0.6923076923076923
 40
0.6923076923076923
 40
0.6923076923076923
 40
0.7692307692307693
 40
0.7692307692307693
 40
0.7692307692307693
 40
0.8461538461538463
 40
0.8461538461538463
 40
0.8461538461538463
 40
0.9230769230769231
 40
0.9230769230769231
 40
0.9230769230769231
 40
1.0
 40
1.0
 40
1.0
 40
1.0
 10
-776.4105
 20
-268.3625
 30
0.0
 10
-776.4105
 20
-268.3625
 30
0.0
 10
-776.1246
 20
-268.6713
 30
0.0
 10
-776.1246
 20
-268.6713
 30
0.0
 10
-765.7755
 20
-270.2699
 30
0.0
 10
-722.2587
 20
-280.1349
 30
0.0
 10
-691.5584
 20
-335.3198
 30
0.0
 10
-691.5584
 20
-335.3198
 30
0.0
 10
-567.2426
 20
-335.3198
 30
0.0
 10
-567.2426
 20
-335.3198
 30
0.0
 10
-570.4005
 20
-325.1078
 30
0.0
 10
-585.09
 20
-288.6799
 30
0.0
 10
-643.0093
 20
-244.5159
 30
0.0
 10
-643.0093
 20
-244.5159
 30
0.0
 10
-672.3155
 20
-212.9152
 30
0.0
 10
-680.6883
 20
-157.5827
 30
0.0
 10
-680.6856
 20
-157.58
 30
0.0
 10
-680.909
 20
-157.5077
 30
0.0
 10
-681.3161
 20
-157.3764
 30
0.0
 10
-681.341
 20
-157.3682
 30
0.0
 10
-681.3619
 20
-157.3615
 30
0.0
 10
-681.388
 20
-157.3532
 30
0.0
 10
-706.7165
 20
-150.9766
 30
0.0
 10
-763.0446
 20
-123.2877
 30
0.0
 10
-769.6655
 20
-110.9498
 30
0.0
 10
-790.2346
 20
-73.1268
 30
0.0
 10
-822.8644
 20
-52.1303
 30
0.0
 10
-841.0291
 20
-44.3054
 30
0.0
 10
-841.0291
 20
-44.3054
 30
0.0
 10
-841.0291
 20
-178.4959
 30
0.0
 10
-841.0291
 20
-178.4959
 30
0.0
 10
-790.2412
 20
-209.5172
 30
0.0
 10
-779.3503
 20
-256.1023
 30
0.0
 10
-777.4209
 20
-267.2736
 30
0.0
 10
-777.4209
 20
-267.2736
 30
0.0
 10
-776.763
 20
-267.9826
 30
0.0
 10
-776.763
 20
-267.9826
 30
0.0
 10
-776.763
 20
-267.9826
 30
0.0
 10
-776.4105
 20
-268.3625
 30
0.0
 10
-776.4105
 20
-268.3625
 30
0.0
  0
SPLINE
  5
6D
330
1F
100
AcDbEntity
  8
Layer 1
 62
   250
370
    20
100
AcDbSpline
210
0.0
220
0.0
230
1.0
 70
    11
 71
     3
 72
    20
 73
    16
 74
     0
 42
0.0000000001
 43
0.0000000001
 40
0.0
 40
0.0
 40
0.0
 40
0.0
 40
0.2
 40
0.2
 40
0.2
 40
0.4
 40
0.4
 40
0.4
 40
0.6000000000000001
 40
0.6000000000000001
 40
0.6000000000000001
 40
0.8
 40
0.8
 40
0.8
 40
1.0
 40
1.0
 40
1.0
 40
1.0
 10
-1200.05
 20
564.3656
 30
0.0
 10
-1188.1173
 20
558.0545
 30
0.0
 10
-1176.6898
 20
556.9901
 30
0.0
 10
-1177.0031
 20
574.7771
 30
0.0
 10
-1176.9353
 20
581.1168
 30
0.0
 10
-1176.0632
 20
586.0958
 30
0.0
 10
-1174.6496
 20
589.9734
 30
0.0
 10
-1174.6496
 20
589.9734
 30
0.0
 10
-1142.8238
 20
589.9734
 30
0.0
 10
-1142.8238
 20
589.9734
 30
0.0
 10
-1137.5096
 20
556.7619
 30
0.0
 10
-1173.361
 20
522.6856
 30
0.0
 10
-1200.05
 20
497.0067
 30
0.0
 10
-1200.05
 20
497.0067
 30
0.0
 10
-1200.05
 20
564.3656
 30
0.0
 10
-1200.05
 20
564.3656
 30
0.0
  0
SPLINE
  5
6E
330
1F
100
AcDbEntity
  8
Layer 1
 62
   250
370
    20
100
AcDbSpline
210
0.0
220
0.0
230
1.0
 70
    11
 71
     3
 72
    44
 73
    40
 74
     0
 42
0.0000000001
 43
0.0000000001
 40
0.0
 40
0.0
 40
0.0
 40
0.0
 40
0.0769230769230769
 40
0.0769230769230769
 40
0.0769230769230769
 40
0.1538461538461539
 40
0.1538461538461539
 40
0.1538461538461539
 40
0.2307692307692308
 40
0.2307692307692308
 40
0.2307692307692308
 40
0.3076923076923077
 40
0.3076923076923077
 40
0.3076923076923077
 40
0.3846153846153846
 40
0.3846153846153846
 40
0.3846153846153846
 40
0.4615384615384616
 40
0.4615384615384616
 40
0.4615384615384616
 40
0.5384615384615385
 40
0.5384615384615385
 40
0.5384615384615385
 40
0.6153846153846154
 40
0.6153846153846154
 40
0.6153846153846154
 40
0.6923076923076923
 40
0.6923076923076923
 40
0.6923076923076923
 40
0.7692307692307693
 40
0.7692307692307693
 40
0.7692307692307693
 40
0.8461538461538463
 40
0.8461538461538463
 40
0.8461538461538463
 40
0.9230769230769231
 40
0.9230769230769231
 40
0.9230769230769231
 40
1.0
 40
1.0
 40
1.0
 40
1.0
 10
-971.3559
 20
469.4613
 30
0.0
 10
-971.3559
 20
469.4613
 30
0.0
 10
-971.6419
 20
469.1526
 30
0.0
 10
-971.6419
 20
469.1526
 30
0.0
 10
-981.9911
 20
467.5539
 30
0.0
 10
-1025.5052
 20
457.6876
 30
0.0
 10
-1056.2055
 20
402.5027
 30
0.0
 10
-1056.2055
 20
402.5027
 30
0.0
 10
-1180.5225
 20
402.5027
 30
0.0
 10
-1180.5225
 20
402.5027
 30
0.0
 10
-1177.3647
 20
412.7146
 30
0.0
 10
-1162.6751
 20
449.144
 30
0.0
 10
-1104.7559
 20
493.308
 30
0.0
 10
-1104.7559
 20
493.308
 30
0.0
 10
-1075.4484
 20
524.9072
 30
0.0
 10
-1067.0768
 20
580.2397
 30
0.0
 10
-1067.0795
 20
580.2424
 30
0.0
 10
-1066.855
 20
580.3148
 30
0.0
 10
-1066.4476
 20
580.4474
 30
0.0
 10
-1066.4216
 20
580.4556
 30
0.0
 10
-1066.4034
 20
580.4624
 30
0.0
 10
-1066.3771
 20
580.4706
 30
0.0
 10
-1059.3164
 20
582.2468
 30
0.0
 10
-1049.8417
 20
585.6791
 30
0.0
 10
-1039.7105
 20
589.9734
 30
0.0
 10
-1039.7105
 20
589.9734
 30
0.0
 10
-906.7388
 20
589.9734
 30
0.0
 10
-906.7388
 20
589.9734
 30
0.0
 10
-906.7388
 20
589.9734
 30
0.0
 10
-906.7388
 20
559.3265
 30
0.0
 10
-906.7388
 20
559.3265
 30
0.0
 10
-957.5227
 20
528.3053
 30
0.0
 10
-968.4124
 20
481.7201
 30
0.0
 10
-970.3444
 20
470.5489
 30
0.0
 10
-970.3444
 20
470.5489
 30
0.0
 10
-971.0022
 20
469.8412
 30
0.0
 10
-971.0022
 20
469.8412
 30
0.0
 10
-971.0022
 20
469.8412
 30
0.0
 10
-971.3559
 20
469.4613
 30
0.0
 10
-971.3559
 20
469.4613
 30
0.0
  0
SPLINE
  5
6F
330
1F
100
AcDbEntity
  8
Layer 1
 62
   250
370
    20
100
AcDbSpline
210
0.0
220
0.0
230
1.0
 70
    11
 71
     3
 72
    44
 73
    40
 74
     0
 42
0.0000000001
 43
0.0000000001
 40
0.0
 40
0.0
 40
0.0
 40
0.0
 40
0.0769230769230769
 40
0.0769230769230769
 40
0.0769230769230769
 40
0.1538461538461539
 40
0.1538461538461539
 40
0.1538461538461539
 40
0.2307692307692308
 40
0.2307692307692308
 40
0.2307692307692308
 40
0.3076923076923077
 40
0.3076923076923077
 40
0.3076923076923077
 40
0.3846153846153846
 40
0.3846153846153846
 40
0.3846153846153846
 40
0.4615384615384616
 40
0.4615384615384616
 40
0.4615384615384616
 40
0.5384615384615385
 40
0.5384615384615385
 40
0.5384615384615385
 40
0.6153846153846154
 40
0.6153846153846154
 40
0.6153846153846154
 40
0.6923076923076923
 40
0.6923076923076923
 40
0.6923076923076923
 40
0.7692307692307693
 40
0.7692307692307693
 40
0.7692307692307693
 40
0.8461538461538463
 40
0.8461538461538463
 40
0.8461538461538463
 40
0.9230769230769231
 40
0.9230769230769231
 40
0.9230769230769231
 40
1.0
 40
1.0
 40
1.0
 40
1.0
 10
-971.3559
 20
267.9009
 30
0.0
 10
-971.3559
 20
267.9009
 30
0.0
 10
-971.6419
 20
268.2083
 30
0.0
 10
-971.6419
 20
268.2083
 30
0.0
 10
-981.9911
 20
269.8069
 30
0.0
 10
-1025.5052
 20
279.6732
 30
0.0
 10
-1056.2055
 20
334.8595
 30
0.0
 10
-1056.2055
 20
334.8595
 30
0.0
 10
-1180.5238
 20
334.8595
 30
0.0
 10
-1180.5238
 20
334.8595
 30
0.0
 10
-1177.366
 20
324.6475
 30
0.0
 10
-1162.6777
 20
288.2196
 30
0.0
 10
-1104.7559
 20
244.0542
 30
0.0
 10
-1104.7559
 20
244.0542
 30
0.0
 10
-1075.4484
 20
212.4537
 30
0.0
 10
-1067.0768
 20
157.1198
 30
0.0
 10
-1067.0795
 20
157.1184
 30
0.0
 10
-1066.855
 20
157.046
 30
0.0
 10
-1066.4476
 20
156.9135
 30
0.0
 10
-1066.4216
 20
156.9067
 30
0.0
 10
-1066.4034
 20
156.8998
 30
0.0
 10
-1066.3771
 20
156.8916
 30
0.0
 10
-1041.0472
 20
150.5149
 30
0.0
 10
-984.7207
 20
122.8261
 30
0.0
 10
-978.0984
 20
110.4881
 30
0.0
 10
-957.5306
 20
72.6666
 30
0.0
 10
-924.9009
 20
51.6701
 30
0.0
 10
-906.7388
 20
43.8423
 30
0.0
 10
-906.7388
 20
43.8423
 30
0.0
 10
-906.7388
 20
178.0356
 30
0.0
 10
-906.7388
 20
178.0356
 30
0.0
 10
-957.5227
 20
209.0555
 30
0.0
 10
-968.4124
 20
255.6408
 30
0.0
 10
-970.3444
 20
266.8105
 30
0.0
 10
-970.3444
 20
266.8105
 30
0.0
 10
-971.0022
 20
267.5211
 30
0.0
 10
-971.0022
 20
267.5211
 30
0.0
 10
-971.0022
 20
267.5211
 30
0.0
 10
-971.3559
 20
267.9009
 30
0.0
 10
-971.3559
 20
267.9009
 30
0.0
  0
SPLINE
  5
70
330
1F
100
AcDbEntity
  8
Layer 1
 62
   250
370
    20
100
AcDbSpline
210
0.0
220
0.0
230
1.0
 70
    11
 71
     3
 72
    44
 73
    40
 74
     0
 42
0.0000000001
 43
0.0000000001
 40
0.0
 40
0.0
 40
0.0
 40
0.0
 40
0.0769230769230769
 40
0.0769230769230769
 40
0.0769230769230769
 40
0.1538461538461539
 40
0.1538461538461539
 40
0.1538461538461539
 40
0.2307692307692308
 40
0.2307692307692308
 40
0.2307692307692308
 40
0.3076923076923077
 40
0.3076923076923077
 40
0.3076923076923077
 40
0.3846153846153846
 40
0.3846153846153846
 40
0.3846153846153846
 40
0.4615384615384616
 40
0.4615384615384616
 40
0.4615384615384616
 40
0.5384615384615385
 40
0.5384615384615385
 40
0.5384615384615385
 40
0.6153846153846154
 40
0.6153846153846154
 40
0.6153846153846154
 40
0.6923076923076923
 40
0.6923076923076923
 40
0.6923076923076923
 40
0.7692307692307693
 40
0.7692307692307693
 40
0.7692307692307693
 40
0.8461538461538463
 40
0.8461538461538463
 40
0.8461538461538463
 40
0.9230769230769231
 40
0.9230769230769231
 40
0.9230769230769231
 40
1.0
 40
1.0
 40
1.0
 40
1.0
 10
-776.4105
 20
469.4613
 30
0.0
 10
-776.4105
 20
469.4613
 30
0.0
 10
-776.1246
 20
469.1526
 30
0.0
 10
-776.1246
 20
469.1526
 30
0.0
 10
-765.7755
 20
467.5539
 30
0.0
 10
-722.2587
 20
457.6876
 30
0.0
 10
-691.5584
 20
402.5027
 30
0.0
 10
-691.5584
 20
402.5027
 30
0.0
 10
-567.2426
 20
402.5027
 30
0.0
 10
-567.2426
 20
402.5027
 30
0.0
 10
-570.4005
 20
412.7146
 30
0.0
 10
-585.09
 20
449.144
 30
0.0
 10
-643.0093
 20
493.308
 30
0.0
 10
-643.0093
 20
493.308
 30
0.0
 10
-672.3155
 20
524.9072
 30
0.0
 10
-680.6883
 20
580.2397
 30
0.0
 10
-680.6856
 20
580.2424
 30
0.0
 10
-680.909
 20
580.3148
 30
0.0
 10
-681.3161
 20
580.4474
 30
0.0
 10
-681.341
 20
580.4556
 30
0.0
 10
-681.3619
 20
580.4624
 30
0.0
 10
-681.388
 20
580.4706
 30
0.0
 10
-688.4475
 20
582.2468
 30
0.0
 10
-697.9143
 20
585.6791
 30
0.0
 10
-708.0443
 20
589.9734
 30
0.0
 10
-708.0443
 20
589.9734
 30
0.0
 10
-841.0291
 20
589.9734
 30
0.0
 10
-841.0291
 20
589.9734
 30
0.0
 10
-841.0291
 20
589.9734
 30
0.0
 10
-841.0291
 20
559.3279
 30
0.0
 10
-841.0291
 20
559.3279
 30
0.0
 10
-790.2412
 20
528.3053
 30
0.0
 10
-779.3503
 20
481.7201
 30
0.0
 10
-777.4209
 20
470.5489
 30
0.0
 10
-777.4209
 20
470.5489
 30
0.0
 10
-776.763
 20
469.8412
 30
0.0
 10
-776.763
 20
469.8412
 30
0.0
 10
-776.763
 20
469.8412
 30
0.0
 10
-776.4105
 20
469.4613
 30
0.0
 10
-776.4105
 20
469.4613
 30
0.0
  0
SPLINE
  5
71
330
1F
100
AcDbEntity
  8
Layer 1
 62
   250
370
    20
100
AcDbSpline
210
0.0
220
0.0
230
1.0
 70
    11
 71
     3
 72
    44
 73
    40
 74
     0
 42
0.0000000001
 43
0.0000000001
 40
0.0
 40
0.0
 40
0.0
 40
0.0
 40
0.0769230769230769
 40
0.0769230769230769
 40
0.0769230769230769
 40
0.1538461538461539
 40
0.1538461538461539
 40
0.1538461538461539
 40
0.2307692307692308
 40
0.2307692307692308
 40
0.2307692307692308
 40
0.3076923076923077
 40
0.3076923076923077
 40
0.3076923076923077
 40
0.3846153846153846
 40
0.3846153846153846
 40
0.3846153846153846
 40
0.4615384615384616
 40
0.4615384615384616
 40
0.4615384615384616
 40
0.5384615384615385
 40
0.5384615384615385
 40
0.5384615384615385
 40
0.6153846153846154
 40
0.6153846153846154
 40
0.6153846153846154
 40
0.6923076923076923
 40
0.6923076923076923
 40
0.6923076923076923
 40
0.7692307692307693
 40
0.7692307692307693
 40
0.7692307692307693
 40
0.8461538461538463
 40
0.8461538461538463
 40
0.8461538461538463
 40
0.9230769230769231
 40
0.9230769230769231
 40
0.9230769230769231
 40
1.0
 40
1.0
 40
1.0
 40
1.0
 10
-776.4105
 20
267.9009
 30
0.0
 10
-776.4105
 20
267.9009
 30
0.0
 10
-776.1246
 20
268.2083
 30
0.0
 10
-776.1246
 20
268.2083
 30
0.0
 10
-765.7755
 20
269.8069
 30
0.0
 10
-722.2574
 20
279.6732
 30
0.0
 10
-691.5584
 20
334.8595
 30
0.0
 10
-691.5584
 20
334.8595
 30
0.0
 10
-567.2426
 20
334.8595
 30
0.0
 10
-567.2426
 20
334.8595
 30
0.0
 10
-570.3992
 20
324.6475
 30
0.0
 10
-585.0887
 20
288.2196
 30
0.0
 10
-643.0093
 20
244.0542
 30
0.0
 10
-643.0093
 20
244.0542
 30
0.0
 10
-672.3155
 20
212.4537
 30
0.0
 10
-680.6883
 20
157.1198
 30
0.0
 10
-680.6856
 20
157.1184
 30
0.0
 10
-680.909
 20
157.046
 30
0.0
 10
-681.3161
 20
156.9135
 30
0.0
 10
-681.341
 20
156.9067
 30
0.0
 10
-681.3619
 20
156.8998
 30
0.0
 10
-681.388
 20
156.8916
 30
0.0
 10
-706.7165
 20
150.5149
 30
0.0
 10
-763.0446
 20
122.8261
 30
0.0
 10
-769.6655
 20
110.4881
 30
0.0
 10
-790.2346
 20
72.6653
 30
0.0
 10
-822.8644
 20
51.6688
 30
0.0
 10
-841.0291
 20
43.8423
 30
0.0
 10
-841.0291
 20
43.8423
 30
0.0
 10
-841.0291
 20
178.0343
 30
0.0
 10
-841.0291
 20
178.0343
 30
0.0
 10
-790.2412
 20
209.0555
 30
0.0
 10
-779.3503
 20
255.6408
 30
0.0
 10
-777.4209
 20
266.8105
 30
0.0
 10
-777.4209
 20
266.8105
 30
0.0
 10
-776.763
 20
267.5211
 30
0.0
 10
-776.763
 20
267.5211
 30
0.0
 10
-776.763
 20
267.5211
 30
0.0
 10
-776.4105
 20
267.9009
 30
0.0
 10
-776.4105
 20
267.9009
 30
0.0
  0
SPLINE
  5
72
330
1F
100
AcDbEntity
  8
Layer 1
 62
   250
370
    20
100
AcDbSpline
210
0.0
220
0.0
230
1.0
 70
    11
 71
     3
 72
    35
 73
    31
 74
     0
 42
0.0000000001
 43
0.0000000001
 40
0.0
 40
0.0
 40
0.0
 40
0.0
 40
0.1
 40
0.1
 40
0.1
 40
0.2
 40
0.2
 40
0.2
 40
0.3
 40
0.3
 40
0.3
 40
0.4
 40
0.4
 40
0.4
 40
0.5
 40
0.5
 40
0.5
 40
0.6000000000000001
 40
0.6000000000000001
 40
0.6000000000000001
 40
0.7000000000000001
 40
0.7000000000000001
 40
0.7000000000000001
 40
0.8
 40
0.8
 40
0.8
 40
0.9
 40
0.9
 40
0.9
 40
1.0
 40
1.0
 40
1.0
 40
1.0
 10
-967.7974
 20
-0.2315
 30
0.0
 10
-991.5858
 20
-14.9305
 30
0.0
 10
-1041.2743
 20
-99.5531
 30
0.0
 10
-1088.2295
 20
-85.1068
 30
0.0
 10
-1089.0611
 20
-84.8514
 30
0.0
 10
-1089.8783
 20
-84.6793
 30
0.0
 10
-1090.5597
 20
-84.0712
 30
0.0
 10
-1095.9314
 20
-79.2754
 30
0.0
 10
-1104.2273
 20
-51.0031
 30
0.0
 10
-1069.0428
 20
-50.6015
 30
0.0
 10
-1036.5424
 20
-51.2204
 30
0.0
 10
-1069.595
 20
-7.5496
 30
0.0
 10
-1078.1767
 20
-0.2534
 30
0.0
 10
-1078.1688
 20
-0.2465
 30
0.0
 10
-1078.1611
 20
-0.2397
 30
0.0
 10
-1078.1519
 20
-0.2315
 30
0.0
 10
-1078.1611
 20
-0.2247
 30
0.0
 10
-1078.1688
 20
-0.2165
 30
0.0
 10
-1078.1767
 20
-0.2083
 30
0.0
 10
-1069.595
 20
7.088
 30
0.0
 10
-1036.5424
 20
50.7588
 30
0.0
 10
-1069.0428
 20
50.1398
 30
0.0
 10
-1104.2273
 20
50.5401
 30
0.0
 10
-1095.9314
 20
78.8123
 30
0.0
 10
-1090.5597
 20
83.6082
 30
0.0
 10
-1089.8783
 20
84.2162
 30
0.0
 10
-1089.0611
 20
84.3883
 30
0.0
 10
-1088.2295
 20
84.6439
 30
0.0
 10
-1041.2743
 20
99.0902
 30
0.0
 10
-991.5858
 20
14.4676
 30
0.0
 10
-967.7974
 20
-0.2315
 30
0.0
  0
SPLINE
  5
73
330
1F
100
AcDbEntity
  8
Layer 1
 62
   250
370
    20
100
AcDbSpline
210
0.0
220
0.0
230
1.0
 70
    11
 71
     3
 72
    20
 73
    16
 74
     0
 42
0.0000000001
 43
0.0000000001
 40
0.0
 40
0.0
 40
0.0
 40
0.0
 40
0.2
 40
0.2
 40
0.2
 40
0.4
 40
0.4
 40
0.4
 40
0.6000000000000001
 40
0.6000000000000001
 40
0.6000000000000001
 40
0.8
 40
0.8
 40
0.8
 40
1.0
 40
1.0
 40
1.0
 40
1.0
 10
-1200.05
 20
172.9884
 30
0.0
 10
-1188.116
 20
179.3009
 30
0.0
 10
-1176.6911
 20
180.3707
 30
0.0
 10
-1177.0031
 20
162.5851
 30
0.0
 10
-1176.6181
 20
125.94
 30
0.0
 10
-1149.475
 20
134.5794
 30
0.0
 10
-1144.8682
 20
140.1745
 30
0.0
 10
-1144.2873
 20
140.8836
 30
0.0
 10
-1144.1202
 20
141.7348
 30
0.0
 10
-1143.8748
 20
142.6011
 30
0.0
 10
-1134.0333
 20
177.3047
 30
0.0
 10
-1172.0766
 20
213.4347
 30
0.0
 10
-1200.05
 20
240.3487
 30
0.0
 10
-1200.05
 20
240.3487
 30
0.0
 10
-1200.05
 20
172.9884
 30
0.0
 10
-1200.05
 20
172.9884
 30
0.0
  0
SPLINE
  5
74
330
1F
100
AcDbEntity
  8
Layer 1
 62
   250
370
    20
100
AcDbSpline
210
0.0
220
0.0
230
1.0
 70
    11
 71
     3
 72
    20
 73
    16
 74
     0
 42
0.0000000001
 43
0.0000000001
 40
0.0
 40
0.0
 40
0.0
 40
0.0
 40
0.2
 40
0.2
 40
0.2
 40
0.4
 40
0.4
 40
0.4
 40
0.6000000000000001
 40
0.6000000000000001
 40
0.6000000000000001
 40
0.8
 40
0.8
 40
0.8
 40
1.0
 40
1.0
 40
1.0
 40
1.0
 10
-1200.05
 20
-173.4569
 30
0.0
 10
-1188.116
 20
-179.7693
 30
0.0
 10
-1176.6911
 20
-180.8324
 30
0.0
 10
-1177.0031
 20
-163.0467
 30
0.0
 10
-1176.6181
 20
-126.4016
 30
0.0
 10
-1149.475
 20
-135.0423
 30
0.0
 10
-1144.8682
 20
-140.6375
 30
0.0
 10
-1144.2873
 20
-141.3452
 30
0.0
 10
-1144.1202
 20
-142.1978
 30
0.0
 10
-1143.8748
 20
-143.0641
 30
0.0
 10
-1134.0333
 20
-177.7663
 30
0.0
 10
-1172.0766
 20
-213.9031
 30
0.0
 10
-1200.05
 20
-240.8171
 30
0.0
 10
-1200.05
 20
-240.8171
 30
0.0
 10
-1200.05
 20
-173.4569
 30
0.0
 10
-1200.05
 20
-173.4569
 30
0.0
  0
SPLINE
  5
75
330
1F
100
AcDbEntity
  8
Layer 1
 62
   250
370
    20
100
AcDbSpline
210
0.0
220
0.0
230
1.0
 70
    11
 71
     3
 72
    32
 73
    28
 74
     0
 42
0.0000000001
 43
0.0000000001
 40
0.0
 40
0.0
 40
0.0
 40
0.0
 40
0.1111111111111111
 40
0.1111111111111111
 40
0.1111111111111111
 40
0.2222222222222222
 40
0.2222222222222222
 40
0.2222222222222222
 40
0.3333333333333333
 40
0.3333333333333333
 40
0.3333333333333333
 40
0.4444444444444444
 40
0.4444444444444444
 40
0.4444444444444444
 40
0.5555555555555556
 40
0.5555555555555556
 40
0.5555555555555556
 40
0.6666666666666666
 40
0.6666666666666666
 40
0.6666666666666666
 40
0.7777777777777777
 40
0.7777777777777777
 40
0.7777777777777777
 40
0.8888888888888888
 40
0.8888888888888888
 40
0.8888888888888888
 40
1.0
 40
1.0
 40
1.0
 40
1.0
 10
-1200.05
 20
74.0056
 30
0.0
 10
-1191.9108
 20
69.6361
 30
0.0
 10
-1182.6934
 20
67.1685
 30
0.0
 10
-1172.9368
 20
67.1685
 30
0.0
 10
-1168.1355
 20
67.1685
 30
0.0
 10
-1163.4687
 20
67.7723
 30
0.0
 10
-1158.9939
 20
68.8983
 30
0.0
 10
-1160.0747
 20
64.2377
 30
0.0
 10
-1160.6517
 20
59.3749
 30
0.0
 10
-1160.6517
 20
54.3769
 30
0.0
 10
-1160.6517
 20
30.8021
 30
0.0
 10
-1147.9006
 20
10.236
 30
0.0
 10
-1129.2125
 20
-0.2301
 30
0.0
 10
-1147.9006
 20
-10.6949
 30
0.0
 10
-1160.6517
 20
-31.2651
 30
0.0
 10
-1160.6517
 20
-54.8384
 30
0.0
 10
-1160.6517
 20
-59.8365
 30
0.0
 10
-1160.076
 20
-64.7034
 30
0.0
 10
-1158.9939
 20
-69.3626
 30
0.0
 10
-1163.47
 20
-68.2354
 30
0.0
 10
-1168.1355
 20
-67.6328
 30
0.0
 10
-1172.9368
 20
-67.6328
 30
0.0
 10
-1182.6947
 20
-67.6328
 30
0.0
 10
-1191.9108
 20
-70.1072
 30
0.0
 10
-1200.05
 20
-74.4768
 30
0.0
 10
-1200.05
 20
-74.4768
 30
0.0
 10
-1200.05
 20
74.0056
 30
0.0
 10
-1200.05
 20
74.0056
 30
0.0
  0
SPLINE
  5
76
330
1F
100
AcDbEntity
  8
Layer 1
 62
   250
370
    20
100
AcDbSpline
210
0.0
220
0.0
230
1.0
 70
    11
 71
     3
 72
    44
 73
    40
 74
     0
 42
0.0000000001
 43
0.0000000001
 40
0.0
 40
0.0
 40
0.0
 40
0.0
 40
0.0769230769230769
 40
0.0769230769230769
 40
0.0769230769230769
 40
0.1538461538461539
 40
0.1538461538461539
 40
0.1538461538461539
 40
0.2307692307692308
 40
0.2307692307692308
 40
0.2307692307692308
 40
0.3076923076923077
 40
0.3076923076923077
 40
0.3076923076923077
 40
0.3846153846153846
 40
0.3846153846153846
 40
0.3846153846153846
 40
0.4615384615384616
 40
0.4615384615384616
 40
0.4615384615384616
 40
0.5384615384615385
 40
0.5384615384615385
 40
0.5384615384615385
 40
0.6153846153846154
 40
0.6153846153846154
 40
0.6153846153846154
 40
0.6923076923076923
 40
0.6923076923076923
 40
0.6923076923076923
 40
0.7692307692307693
 40
0.7692307692307693
 40
0.7692307692307693
 40
0.8461538461538463
 40
0.8461538461538463
 40
0.8461538461538463
 40
0.9230769230769231
 40
0.9230769230769231
 40
0.9230769230769231
 40
1.0
 40
1.0
 40
1.0
 40
1.0
 10
-268.3875
 20
267.9009
 30
0.0
 10
-268.3875
 20
267.9009
 30
0.0
 10
-268.6746
 20
268.2083
 30
0.0
 10
-268.6746
 20
268.2083
 30
0.0
 10
-279.0239
 20
269.8069
 30
0.0
 10
-322.5394
 20
279.6732
 30
0.0
 10
-353.2397
 20
334.8595
 30
0.0
 10
-353.2397
 20
334.8595
 30
0.0
 10
-477.5566
 20
334.8595
 30
0.0
 10
-477.5566
 20
334.8595
 30
0.0
 10
-474.3989
 20
324.6475
 30
0.0
 10
-459.7092
 20
288.2196
 30
0.0
 10
-401.7901
 20
244.0542
 30
0.0
 10
-401.7901
 20
244.0542
 30
0.0
 10
-372.4813
 20
212.4537
 30
0.0
 10
-364.1097
 20
157.1198
 30
0.0
 10
-364.1123
 20
157.1184
 30
0.0
 10
-363.8891
 20
157.046
 30
0.0
 10
-363.4818
 20
156.9135
 30
0.0
 10
-363.4557
 20
156.9067
 30
0.0
 10
-363.4374
 20
156.8998
 30
0.0
 10
-363.41
 20
156.8916
 30
0.0
 10
-338.0801
 20
150.5149
 30
0.0
 10
-281.7535
 20
122.8261
 30
0.0
 10
-275.1313
 20
110.4881
 30
0.0
 10
-254.5646
 20
72.6666
 30
0.0
 10
-221.9323
 20
51.6701
 30
0.0
 10
-203.7717
 20
43.8423
 30
0.0
 10
-203.7717
 20
43.8423
 30
0.0
 10
-203.7717
 20
178.0356
 30
0.0
 10
-203.7717
 20
178.0356
 30
0.0
 10
-254.5556
 20
209.0555
 30
0.0
 10
-265.4464
 20
255.6408
 30
0.0
 10
-267.3771
 20
266.8105
 30
0.0
 10
-267.3771
 20
266.8105
 30
0.0
 10
-268.0351
 20
267.5211
 30
0.0
 10
-268.0351
 20
267.5211
 30
0.0
 10
-268.0351
 20
267.5211
 30
0.0
 10
-268.3875
 20
267.9009
 30
0.0
 10
-268.3875
 20
267.9009
 30
0.0
  0
SPLINE
  5
77
330
1F
100
AcDbEntity
  8
Layer 1
 62
   250
370
    20
100
AcDbSpline
210
0.0
220
0.0
230
1.0
 70
    11
 71
     3
 72
    35
 73
    31
 74
     0
 42
0.0000000001
 43
0.0000000001
 40
0.0
 40
0.0
 40
0.0
 40
0.0
 40
0.1
 40
0.1
 40
0.1
 40
0.2
 40
0.2
 40
0.2
 40
0.3
 40
0.3
 40
0.3
 40
0.4
 40
0.4
 40
0.4
 40
0.5
 40
0.5
 40
0.5
 40
0.6000000000000001
 40
0.6000000000000001
 40
0.6000000000000001
 40
0.7000000000000001
 40
0.7000000000000001
 40
0.7000000000000001
 40
0.8
 40
0.8
 40
0.8
 40
0.9
 40
0.9
 40
0.9
 40
1.0
 40
1.0
 40
1.0
 40
1.0
 10
-522.3996
 20
-466.8118
 30
0.0
 10
-536.2983
 20
-491.2132
 30
0.0
 10
-615.3191
 20
-541.7853
 30
0.0
 10
-604.4491
 20
-590.0266
 30
0.0
 10
-604.4491
 20
-590.0266
 30
0.0
 10
-574.1991
 20
-590.0266
 30
0.0
 10
-574.1991
 20
-590.0266
 30
0.0
 10
-572.1497
 20
-585.8592
 30
0.0
 10
-570.8416
 20
-580.1015
 30
0.0
 10
-570.7608
 20
-572.2628
 30
0.0
 10
-571.3547
 20
-538.4119
 30
0.0
 10
-529.4279
 20
-572.838
 30
0.0
 10
-522.4206
 20
-581.7725
 30
0.0
 10
-522.4141
 20
-581.7684
 30
0.0
 10
-522.4009
 20
-581.7616
 30
0.0
 10
-522.3983
 20
-581.7479
 30
0.0
 10
-522.3931
 20
-581.7616
 30
0.0
 10
-522.3814
 20
-581.7684
 30
0.0
 10
-522.3762
 20
-581.7725
 30
0.0
 10
-515.37
 20
-572.838
 30
0.0
 10
-473.4421
 20
-538.4119
 30
0.0
 10
-474.0373
 20
-572.2628
 30
0.0
 10
-473.9537
 20
-580.1015
 30
0.0
 10
-472.6432
 20
-585.8592
 30
0.0
 10
-470.5936
 20
-590.0266
 30
0.0
 10
-470.5936
 20
-590.0266
 30
0.0
 10
-440.3437
 20
-590.0266
 30
0.0
 10
-440.3437
 20
-590.0266
 30
0.0
 10
-429.4749
 20
-541.7853
 30
0.0
 10
-508.4985
 20
-491.2077
 30
0.0
 10
-522.3996
 20
-466.8118
 30
0.0
  0
SPLINE
  5
78
330
1F
100
AcDbEntity
  8
Layer 1
 62
   250
370
    20
100
AcDbSpline
210
0.0
220
0.0
230
1.0
 70
    11
 71
     3
 72
    44
 73
    40
 74
     0
 42
0.0000000001
 43
0.0000000001
 40
0.0
 40
0.0
 40
0.0
 40
0.0
 40
0.0769230769230769
 40
0.0769230769230769
 40
0.0769230769230769
 40
0.1538461538461539
 40
0.1538461538461539
 40
0.1538461538461539
 40
0.2307692307692308
 40
0.2307692307692308
 40
0.2307692307692308
 40
0.3076923076923077
 40
0.3076923076923077
 40
0.3076923076923077
 40
0.3846153846153846
 40
0.3846153846153846
 40
0.3846153846153846
 40
0.4615384615384616
 40
0.4615384615384616
 40
0.4615384615384616
 40
0.5384615384615385
 40
0.5384615384615385
 40
0.5384615384615385
 40
0.6153846153846154
 40
0.6153846153846154
 40
0.6153846153846154
 40
0.6923076923076923
 40
0.6923076923076923
 40
0.6923076923076923
 40
0.7692307692307693
 40
0.7692307692307693
 40
0.7692307692307693
 40
0.8461538461538463
 40
0.8461538461538463
 40
0.8461538461538463
 40
0.9230769230769231
 40
0.9230769230769231
 40
0.9230769230769231
 40
1.0
 40
1.0
 40
1.0
 40
1.0
 10
-268.3875
 20
-466.947
 30
0.0
 10
-268.3875
 20
-466.947
 30
0.0
 10
-268.6746
 20
-466.6369
 30
0.0
 10
-268.6746
 20
-466.6369
 30
0.0
 10
-279.0239
 20
-465.0396
 30
0.0
 10
-322.5394
 20
-455.1747
 30
0.0
 10
-353.2397
 20
-399.9898
 30
0.0
 10
-353.2397
 20
-399.9898
 30
0.0
 10
-477.5566
 20
-399.9898
 30
0.0
 10
-477.5566
 20
-399.9898
 30
0.0
 10
-474.3976
 20
-410.2004
 30
0.0
 10
-459.7079
 20
-446.6283
 30
0.0
 10
-401.7901
 20
-490.7924
 30
0.0
 10
-401.7901
 20
-490.7924
 30
0.0
 10
-372.4813
 20
-522.3943
 30
0.0
 10
-364.1097
 20
-577.7241
 30
0.0
 10
-364.1123
 20
-577.7268
 30
0.0
 10
-363.8891
 20
-577.8006
 30
0.0
 10
-363.4818
 20
-577.9317
 30
0.0
 10
-363.4557
 20
-577.9413
 30
0.0
 10
-363.4374
 20
-577.9482
 30
0.0
 10
-363.41
 20
-577.9549
 30
0.0
 10
-354.9928
 20
-580.0741
 30
0.0
 10
-343.1477
 20
-584.5461
 30
0.0
 10
-330.8455
 20
-590.0266
 30
0.0
 10
-330.8455
 20
-590.0266
 30
0.0
 10
-203.7717
 20
-590.0266
 30
0.0
 10
-203.7717
 20
-590.0266
 30
0.0
 10
-203.7717
 20
-590.0266
 30
0.0
 10
-203.7717
 20
-556.8123
 30
0.0
 10
-203.7717
 20
-556.8123
 30
0.0
 10
-254.5556
 20
-525.791
 30
0.0
 10
-265.4464
 20
-479.2058
 30
0.0
 10
-267.3771
 20
-468.0347
 30
0.0
 10
-267.3771
 20
-468.0347
 30
0.0
 10
-268.0351
 20
-467.3269
 30
0.0
 10
-268.0351
 20
-467.3269
 30
0.0
 10
-268.0351
 20
-467.3269
 30
0.0
 10
-268.3875
 20
-466.947
 30
0.0
 10
-268.3875
 20
-466.947
 30
0.0
  0
SPLINE
  5
79
330
1F
100
AcDbEntity
  8
Layer 1
 62
   250
370
    20
100
AcDbSpline
210
0.0
220
0.0
230
1.0
 70
    11
 71
     3
 72
    35
 73
    31
 74
     0
 42
0.0000000001
 43
0.0000000001
 40
0.0
 40
0.0
 40
0.0
 40
0.0
 40
0.1
 40
0.1
 40
0.1
 40
0.2
 40
0.2
 40
0.2
 40
0.3
 40
0.3
 40
0.3
 40
0.4
 40
0.4
 40
0.4
 40
0.5
 40
0.5
 40
0.5
 40
0.6000000000000001
 40
0.6000000000000001
 40
0.6000000000000001
 40
0.7000000000000001
 40
0.7000000000000001
 40
0.7000000000000001
 40
0.8
 40
0.8
 40
0.8
 40
0.9
 40
0.9
 40
0.9
 40
1.0
 40
1.0
 40
1.0
 40
1.0
 10
-522.3996
 20
469.326
 30
0.0
 10
-536.0528
 20
493.297
 30
0.0
 10
-612.5295
 20
542.5138
 30
0.0
 10
-604.9334
 20
589.9734
 30
0.0
 10
-604.9334
 20
589.9734
 30
0.0
 10
-573.1091
 20
589.9734
 30
0.0
 10
-573.1091
 20
589.9734
 30
0.0
 10
-571.6954
 20
586.0958
 30
0.0
 10
-570.8273
 20
581.1168
 30
0.0
 10
-570.7608
 20
574.7771
 30
0.0
 10
-571.3547
 20
540.9261
 30
0.0
 10
-529.4279
 20
575.3523
 30
0.0
 10
-522.4206
 20
584.2868
 30
0.0
 10
-522.4141
 20
584.2827
 30
0.0
 10
-522.4009
 20
584.2744
 30
0.0
 10
-522.3983
 20
584.2622
 30
0.0
 10
-522.3931
 20
584.2744
 30
0.0
 10
-522.3814
 20
584.2827
 30
0.0
 10
-522.3762
 20
584.2868
 30
0.0
 10
-515.37
 20
575.3523
 30
0.0
 10
-473.4421
 20
540.9261
 30
0.0
 10
-474.0373
 20
574.7771
 30
0.0
 10
-473.9694
 20
581.1168
 30
0.0
 10
-473.0974
 20
586.0958
 30
0.0
 10
-471.6823
 20
589.9734
 30
0.0
 10
-471.6823
 20
589.9734
 30
0.0
 10
-439.8567
 20
589.9734
 30
0.0
 10
-439.8567
 20
589.9734
 30
0.0
 10
-432.2619
 20
542.5138
 30
0.0
 10
-508.7452
 20
493.2916
 30
0.0
 10
-522.3996
 20
469.326
 30
0.0
  0
SPLINE
  5
7A
330
1F
100
AcDbEntity
  8
Layer 1
 62
   250
370
    20
100
AcDbSpline
210
0.0
220
0.0
230
1.0
 70
    11
 71
     3
 72
    44
 73
    40
 74
     0
 42
0.0000000001
 43
0.0000000001
 40
0.0
 40
0.0
 40
0.0
 40
0.0
 40
0.0769230769230769
 40
0.0769230769230769
 40
0.0769230769230769
 40
0.1538461538461539
 40
0.1538461538461539
 40
0.1538461538461539
 40
0.2307692307692308
 40
0.2307692307692308
 40
0.2307692307692308
 40
0.3076923076923077
 40
0.3076923076923077
 40
0.3076923076923077
 40
0.3846153846153846
 40
0.3846153846153846
 40
0.3846153846153846
 40
0.4615384615384616
 40
0.4615384615384616
 40
0.4615384615384616
 40
0.5384615384615385
 40
0.5384615384615385
 40
0.5384615384615385
 40
0.6153846153846154
 40
0.6153846153846154
 40
0.6153846153846154
 40
0.6923076923076923
 40
0.6923076923076923
 40
0.6923076923076923
 40
0.7692307692307693
 40
0.7692307692307693
 40
0.7692307692307693
 40
0.8461538461538463
 40
0.8461538461538463
 40
0.8461538461538463
 40
0.9230769230769231
 40
0.9230769230769231
 40
0.9230769230769231
 40
1.0
 40
1.0
 40
1.0
 40
1.0
 10
-268.3875
 20
469.4613
 30
0.0
 10
-268.3875
 20
469.4613
 30
0.0
 10
-268.6746
 20
469.1526
 30
0.0
 10
-268.6746
 20
469.1526
 30
0.0
 10
-279.0239
 20
467.5539
 30
0.0
 10
-322.5394
 20
457.6876
 30
0.0
 10
-353.2397
 20
402.5027
 30
0.0
 10
-353.2397
 20
402.5027
 30
0.0
 10
-477.5566
 20
402.5027
 30
0.0
 10
-477.5566
 20
402.5027
 30
0.0
 10
-474.3976
 20
412.7146
 30
0.0
 10
-459.7079
 20
449.144
 30
0.0
 10
-401.7901
 20
493.308
 30
0.0
 10
-401.7901
 20
493.308
 30
0.0
 10
-372.4813
 20
524.9072
 30
0.0
 10
-364.1097
 20
580.2397
 30
0.0
 10
-364.1123
 20
580.2424
 30
0.0
 10
-363.8891
 20
580.3148
 30
0.0
 10
-363.4818
 20
580.4474
 30
0.0
 10
-363.4557
 20
580.4556
 30
0.0
 10
-363.4374
 20
580.4624
 30
0.0
 10
-363.41
 20
580.4706
 30
0.0
 10
-356.3504
 20
582.2468
 30
0.0
 10
-346.8746
 20
585.6791
 30
0.0
 10
-336.7447
 20
589.9734
 30
0.0
 10
-336.7447
 20
589.9734
 30
0.0
 10
-203.7717
 20
589.9734
 30
0.0
 10
-203.7717
 20
589.9734
 30
0.0
 10
-203.7717
 20
589.9734
 30
0.0
 10
-203.7717
 20
559.3265
 30
0.0
 10
-203.7717
 20
559.3265
 30
0.0
 10
-254.5556
 20
528.3053
 30
0.0
 10
-265.4464
 20
481.7201
 30
0.0
 10
-267.3771
 20
470.5489
 30
0.0
 10
-267.3771
 20
470.5489
 30
0.0
 10
-268.0351
 20
469.8412
 30
0.0
 10
-268.0351
 20
469.8412
 30
0.0
 10
-268.0351
 20
469.8412
 30
0.0
 10
-268.3875
 20
469.4613
 30
0.0
 10
-268.3875
 20
469.4613
 30
0.0
  0
SPLINE
  5
7B
330
1F
100
AcDbEntity
  8
Layer 1
 62
   250
370
    20
100
AcDbSpline
210
0.0
220
0.0
230
1.0
 70
    11
 71
     3
 72
    44
 73
    40
 74
     0
 42
0.0000000001
 43
0.0000000001
 40
0.0
 40
0.0
 40
0.0
 40
0.0
 40
0.0769230769230769
 40
0.0769230769230769
 40
0.0769230769230769
 40
0.1538461538461539
 40
0.1538461538461539
 40
0.1538461538461539
 40
0.2307692307692308
 40
0.2307692307692308
 40
0.2307692307692308
 40
0.3076923076923077
 40
0.3076923076923077
 40
0.3076923076923077
 40
0.3846153846153846
 40
0.3846153846153846
 40
0.3846153846153846
 40
0.4615384615384616
 40
0.4615384615384616
 40
0.4615384615384616
 40
0.5384615384615385
 40
0.5384615384615385
 40
0.5384615384615385
 40
0.6153846153846154
 40
0.6153846153846154
 40
0.6153846153846154
 40
0.6923076923076923
 40
0.6923076923076923
 40
0.6923076923076923
 40
0.7692307692307693
 40
0.7692307692307693
 40
0.7692307692307693
 40
0.8461538461538463
 40
0.8461538461538463
 40
0.8461538461538463
 40
0.9230769230769231
 40
0.9230769230769231
 40
0.9230769230769231
 40
1.0
 40
1.0
 40
1.0
 40
1.0
 10
-268.3875
 20
-268.3625
 30
0.0
 10
-268.3875
 20
-268.3625
 30
0.0
 10
-268.6746
 20
-268.6713
 30
0.0
 10
-268.6746
 20
-268.6713
 30
0.0
 10
-279.0239
 20
-270.2699
 30
0.0
 10
-322.5394
 20
-280.1349
 30
0.0
 10
-353.2397
 20
-335.3198
 30
0.0
 10
-353.2397
 20
-335.3198
 30
0.0
 10
-477.5566
 20
-335.3198
 30
0.0
 10
-477.5566
 20
-335.3198
 30
0.0
 10
-474.3976
 20
-325.1078
 30
0.0
 10
-459.7079
 20
-288.6799
 30
0.0
 10
-401.7901
 20
-244.5159
 30
0.0
 10
-401.7901
 20
-244.5159
 30
0.0
 10
-372.4813
 20
-212.9152
 30
0.0
 10
-364.1097
 20
-157.5827
 30
0.0
 10
-364.1123
 20
-157.58
 30
0.0
 10
-363.8891
 20
-157.5077
 30
0.0
 10
-363.4818
 20
-157.3764
 30
0.0
 10
-363.4557
 20
-157.3682
 30
0.0
 10
-363.4374
 20
-157.3615
 30
0.0
 10
-363.41
 20
-157.3532
 30
0.0
 10
-338.0801
 20
-150.9766
 30
0.0
 10
-281.7535
 20
-123.2877
 30
0.0
 10
-275.1313
 20
-110.9498
 30
0.0
 10
-254.5646
 20
-73.1282
 30
0.0
 10
-221.9323
 20
-52.1317
 30
0.0
 10
-203.7717
 20
-44.3054
 30
0.0
 10
-203.7717
 20
-44.3054
 30
0.0
 10
-203.7717
 20
-178.4973
 30
0.0
 10
-203.7717
 20
-178.4973
 30
0.0
 10
-254.5556
 20
-209.5172
 30
0.0
 10
-265.4464
 20
-256.1023
 30
0.0
 10
-267.3771
 20
-267.2736
 30
0.0
 10
-267.3771
 20
-267.2736
 30
0.0
 10
-268.0351
 20
-267.9826
 30
0.0
 10
-268.0351
 20
-267.9826
 30
0.0
 10
-268.0351
 20
-267.9826
 30
0.0
 10
-268.3875
 20
-268.3625
 30
0.0
 10
-268.3875
 20
-268.3625
 30
0.0
  0
SPLINE
  5
7C
330
1F
100
AcDbEntity
  8
Layer 1
 62
   250
370
    20
100
AcDbSpline
210
0.0
220
0.0
230
1.0
 70
    11
 71
     3
 72
    35
 73
    31
 74
     0
 42
0.0000000001
 43
0.0000000001
 40
0.0
 40
0.0
 40
0.0
 40
0.0
 40
0.1
 40
0.1
 40
0.1
 40
0.2
 40
0.2
 40
0.2
 40
0.3
 40
0.3
 40
0.3
 40
0.4
 40
0.4
 40
0.4
 40
0.5
 40
0.5
 40
0.5
 40
0.6000000000000001
 40
0.6000000000000001
 40
0.6000000000000001
 40
0.7000000000000001
 40
0.7000000000000001
 40
0.7000000000000001
 40
0.8
 40
0.8
 40
0.8
 40
0.9
 40
0.9
 40
0.9
 40
1.0
 40
1.0
 40
1.0
 40
1.0
 10
-779.9639
 20
-0.2315
 30
0.0
 10
-756.1781
 20
-14.9305
 30
0.0
 10
-706.4894
 20
-99.5531
 30
0.0
 10
-659.5342
 20
-85.1068
 30
0.0
 10
-658.7015
 20
-84.8514
 30
0.0
 10
-657.8843
 20
-84.6793
 30
0.0
 10
-657.2041
 20
-84.0712
 30
0.0
 10
-651.8325
 20
-79.2754
 30
0.0
 10
-643.5367
 20
-51.0031
 30
0.0
 10
-678.7197
 20
-50.6015
 30
0.0
 10
-711.2189
 20
-51.2204
 30
0.0
 10
-678.1676
 20
-7.5496
 30
0.0
 10
-669.5859
 20
-0.2534
 30
0.0
 10
-669.5937
 20
-0.2465
 30
0.0
 10
-669.6028
 20
-0.2397
 30
0.0
 10
-669.6094
 20
-0.2315
 30
0.0
 10
-669.6028
 20
-0.2247
 30
0.0
 10
-669.5937
 20
-0.2165
 30
0.0
 10
-669.5859
 20
-0.2083
 30
0.0
 10
-678.1676
 20
7.088
 30
0.0
 10
-711.2189
 20
50.7588
 30
0.0
 10
-678.7197
 20
50.1398
 30
0.0
 10
-643.5367
 20
50.5401
 30
0.0
 10
-651.8325
 20
78.8123
 30
0.0
 10
-657.2041
 20
83.6082
 30
0.0
 10
-657.8843
 20
84.2162
 30
0.0
 10
-658.7015
 20
84.3883
 30
0.0
 10
-659.5342
 20
84.6439
 30
0.0
 10
-706.4894
 20
99.0902
 30
0.0
 10
-756.1781
 20
14.4676
 30
0.0
 10
-779.9639
 20
-0.2315
 30
0.0
  0
SPLINE
  5
7D
330
1F
100
AcDbEntity
  8
Layer 1
 62
   250
370
    20
100
AcDbSpline
210
0.0
220
0.0
230
1.0
 70
    11
 71
     3
 72
    35
 73
    31
 74
     0
 42
0.0000000001
 43
0.0000000001
 40
0.0
 40
0.0
 40
0.0
 40
0.0
 40
0.1
 40
0.1
 40
0.1
 40
0.2
 40
0.2
 40
0.2
 40
0.3
 40
0.3
 40
0.3
 40
0.4
 40
0.4
 40
0.4
 40
0.5
 40
0.5
 40
0.5
 40
0.6000000000000001
 40
0.6000000000000001
 40
0.6000000000000001
 40
0.7000000000000001
 40
0.7000000000000001
 40
0.7000000000000001
 40
0.8
 40
0.8
 40
0.8
 40
0.9
 40
0.9
 40
0.9
 40
1.0
 40
1.0
 40
1.0
 40
1.0
 10
-264.8316
 20
-0.2315
 30
0.0
 10
-288.6198
 20
-14.9305
 30
0.0
 10
-338.3072
 20
-99.5531
 30
0.0
 10
-385.2637
 20
-85.1068
 30
0.0
 10
-386.0953
 20
-84.8514
 30
0.0
 10
-386.9124
 20
-84.6793
 30
0.0
 10
-387.5925
 20
-84.0712
 30
0.0
 10
-392.9656
 20
-79.2754
 30
0.0
 10
-401.26
 20
-51.0031
 30
0.0
 10
-366.0756
 20
-50.6015
 30
0.0
 10
-333.5764
 20
-51.2204
 30
0.0
 10
-366.6279
 20
-7.5496
 30
0.0
 10
-375.2096
 20
-0.2534
 30
0.0
 10
-375.2017
 20
-0.2465
 30
0.0
 10
-375.1938
 20
-0.2397
 30
0.0
 10
-375.1861
 20
-0.2315
 30
0.0
 10
-375.1938
 20
-0.2247
 30
0.0
 10
-375.2017
 20
-0.2165
 30
0.0
 10
-375.2096
 20
-0.2083
 30
0.0
 10
-366.6279
 20
7.088
 30
0.0
 10
-333.5764
 20
50.7588
 30
0.0
 10
-366.0756
 20
50.1398
 30
0.0
 10
-401.26
 20
50.5401
 30
0.0
 10
-392.9656
 20
78.8123
 30
0.0
 10
-387.5925
 20
83.6082
 30
0.0
 10
-386.9124
 20
84.2162
 30
0.0
 10
-386.0953
 20
84.3883
 30
0.0
 10
-385.2637
 20
84.6439
 30
0.0
 10
-338.3072
 20
99.0902
 30
0.0
 10
-288.6198
 20
14.4676
 30
0.0
 10
-264.8316
 20
-0.2315
 30
0.0
  0
SPLINE
  5
7E
330
1F
100
AcDbEntity
  8
Layer 1
 62
   250
370
    20
100
AcDbSpline
210
0.0
220
0.0
230
1.0
 70
    11
 71
     3
 72
    35
 73
    31
 74
     0
 42
0.0000000001
 43
0.0000000001
 40
0.0
 40
0.0
 40
0.0
 40
0.0
 40
0.1
 40
0.1
 40
0.1
 40
0.2
 40
0.2
 40
0.2
 40
0.3
 40
0.3
 40
0.3
 40
0.4
 40
0.4
 40
0.4
 40
0.5
 40
0.5
 40
0.5
 40
0.6000000000000001
 40
0.6000000000000001
 40
0.6000000000000001
 40
0.7000000000000001
 40
0.7000000000000001
 40
0.7000000000000001
 40
0.8
 40
0.8
 40
0.8
 40
0.9
 40
0.9
 40
0.9
 40
1.0
 40
1.0
 40
1.0
 40
1.0
 10
-522.3983
 20
268.0348
 30
0.0
 10
-536.511
 20
243.2604
 30
0.0
 10
-617.7589
 20
191.5077
 30
0.0
 10
-603.8892
 20
142.6011
 30
0.0
 10
-603.6437
 20
141.7348
 30
0.0
 10
-603.4779
 20
140.8836
 30
0.0
 10
-602.8945
 20
140.1745
 30
0.0
 10
-598.289
 20
134.5794
 30
0.0
 10
-571.1432
 20
125.94
 30
0.0
 10
-570.7595
 20
162.5851
 30
0.0
 10
-571.3547
 20
196.4347
 30
0.0
 10
-529.4253
 20
162.0099
 30
0.0
 10
-522.4193
 20
153.0714
 30
0.0
 10
-522.4114
 20
153.0809
 30
0.0
 10
-522.4049
 20
153.089
 30
0.0
 10
-522.3983
 20
153.0959
 30
0.0
 10
-522.3905
 20
153.089
 30
0.0
 10
-522.384
 20
153.0809
 30
0.0
 10
-522.3775
 20
153.0714
 30
0.0
 10
-515.3714
 20
162.0099
 30
0.0
 10
-473.4421
 20
196.4347
 30
0.0
 10
-474.0373
 20
162.5851
 30
0.0
 10
-473.6522
 20
125.94
 30
0.0
 10
-446.5077
 20
134.5794
 30
0.0
 10
-441.9023
 20
140.1745
 30
0.0
 10
-441.3201
 20
140.8836
 30
0.0
 10
-441.153
 20
141.7348
 30
0.0
 10
-440.9076
 20
142.6011
 30
0.0
 10
-427.039
 20
191.5077
 30
0.0
 10
-508.2857
 20
243.2604
 30
0.0
 10
-522.3983
 20
268.0348
 30
0.0
  0
SPLINE
  5
7F
330
1F
100
AcDbEntity
  8
Layer 1
 62
   250
370
    20
100
AcDbSpline
210
0.0
220
0.0
230
1.0
 70
    11
 71
     3
 72
    35
 73
    31
 74
     0
 42
0.0000000001
 43
0.0000000001
 40
0.0
 40
0.0
 40
0.0
 40
0.0
 40
0.1
 40
0.1
 40
0.1
 40
0.2
 40
0.2
 40
0.2
 40
0.3
 40
0.3
 40
0.3
 40
0.4
 40
0.4
 40
0.4
 40
0.5
 40
0.5
 40
0.5
 40
0.6000000000000001
 40
0.6000000000000001
 40
0.6000000000000001
 40
0.7000000000000001
 40
0.7000000000000001
 40
0.7000000000000001
 40
0.8
 40
0.8
 40
0.8
 40
0.9
 40
0.9
 40
0.9
 40
1.0
 40
1.0
 40
1.0
 40
1.0
 10
-522.3983
 20
-268.4978
 30
0.0
 10
-536.511
 20
-243.7234
 30
0.0
 10
-617.7589
 20
-191.9693
 30
0.0
 10
-603.8892
 20
-143.0641
 30
0.0
 10
-603.6437
 20
-142.1978
 30
0.0
 10
-603.4779
 20
-141.3452
 30
0.0
 10
-602.8945
 20
-140.6375
 30
0.0
 10
-598.289
 20
-135.0423
 30
0.0
 10
-571.1432
 20
-126.4016
 30
0.0
 10
-570.7595
 20
-163.0467
 30
0.0
 10
-571.3547
 20
-196.8963
 30
0.0
 10
-529.4253
 20
-162.4728
 30
0.0
 10
-522.4193
 20
-153.5343
 30
0.0
 10
-522.4114
 20
-153.5425
 30
0.0
 10
-522.4049
 20
-153.5507
 30
0.0
 10
-522.3983
 20
-153.5589
 30
0.0
 10
-522.3905
 20
-153.5507
 30
0.0
 10
-522.384
 20
-153.5425
 30
0.0
 10
-522.3775
 20
-153.5343
 30
0.0
 10
-515.3714
 20
-162.4728
 30
0.0
 10
-473.4421
 20
-196.8963
 30
0.0
 10
-474.0373
 20
-163.0467
 30
0.0
 10
-473.6522
 20
-126.4016
 30
0.0
 10
-446.5077
 20
-135.0423
 30
0.0
 10
-441.9023
 20
-140.6375
 30
0.0
 10
-441.3201
 20
-141.3452
 30
0.0
 10
-441.153
 20
-142.1978
 30
0.0
 10
-440.9076
 20
-143.0641
 30
0.0
 10
-427.039
 20
-191.9693
 30
0.0
 10
-508.2857
 20
-243.7234
 30
0.0
 10
-522.3983
 20
-268.4978
 30
0.0
  0
SPLINE
  5
80
330
1F
100
AcDbEntity
  8
Layer 1
 62
   250
370
    20
100
AcDbSpline
210
0.0
220
0.0
230
1.0
 70
    11
 71
     3
 72
    53
 73
    49
 74
     0
 42
0.0000000001
 43
0.0000000001
 40
0.0
 40
0.0
 40
0.0
 40
0.0
 40
0.0625
 40
0.0625
 40
0.0625
 40
0.125
 40
0.125
 40
0.125
 40
0.1875
 40
0.1875
 40
0.1875
 40
0.25
 40
0.25
 40
0.25
 40
0.3125
 40
0.3125
 40
0.3125
 40
0.375
 40
0.375
 40
0.375
 40
0.4375
 40
0.4375
 40
0.4375
 40
0.5
 40
0.5
 40
0.5
 40
0.5625
 40
0.5625
 40
0.5625
 40
0.625
 40
0.625
 40
0.625
 40
0.6875
 40
0.6875
 40
0.6875
 40
0.75
 40
0.75
 40
0.75
 40
0.8125
 40
0.8125
 40
0.8125
 40
0.875
 40
0.875
 40
0.875
 40
0.9375
 40
0.9375
 40
0.9375
 40
1.0
 40
1.0
 40
1.0
 40
1.0
 10
-522.3983
 20
99.9196
 30
0.0
 10
-512.352
 20
80.4547
 30
0.0
 10
-492.6026
 20
67.1685
 30
0.0
 10
-469.9684
 20
67.1685
 30
0.0
 10
-465.171
 20
67.1685
 30
0.0
 10
-460.5016
 20
67.7723
 30
0.0
 10
-456.0281
 20
68.8983
 30
0.0
 10
-457.1089
 20
64.2377
 30
0.0
 10
-457.6859
 20
59.3749
 30
0.0
 10
-457.6859
 20
54.3769
 30
0.0
 10
-457.6859
 20
30.8021
 30
0.0
 10
-444.9335
 20
10.236
 30
0.0
 10
-426.2467
 20
-0.2301
 30
0.0
 10
-444.9335
 20
-10.6949
 30
0.0
 10
-457.6859
 20
-31.2651
 30
0.0
 10
-457.6859
 20
-54.8384
 30
0.0
 10
-457.6859
 20
-59.8365
 30
0.0
 10
-457.1089
 20
-64.7034
 30
0.0
 10
-456.0281
 20
-69.3626
 30
0.0
 10
-460.5016
 20
-68.2354
 30
0.0
 10
-465.171
 20
-67.6328
 30
0.0
 10
-469.9684
 20
-67.6328
 30
0.0
 10
-492.6026
 20
-67.6328
 30
0.0
 10
-512.3507
 20
-80.9177
 30
0.0
 10
-522.3983
 20
-100.3811
 30
0.0
 10
-532.4472
 20
-80.9177
 30
0.0
 10
-552.194
 20
-67.6328
 30
0.0
 10
-574.8271
 20
-67.6328
 30
0.0
 10
-579.6256
 20
-67.6328
 30
0.0
 10
-584.2938
 20
-68.2327
 30
0.0
 10
-588.7674
 20
-69.3585
 30
0.0
 10
-587.6865
 20
-64.6979
 30
0.0
 10
-587.1096
 20
-59.8365
 30
0.0
 10
-587.1096
 20
-54.8371
 30
0.0
 10
-587.1096
 20
-31.2651
 30
0.0
 10
-599.8633
 20
-10.6949
 30
0.0
 10
-618.55
 20
-0.2301
 30
0.0
 10
-599.8633
 20
10.236
 30
0.0
 10
-587.1096
 20
30.8021
 30
0.0
 10
-587.1096
 20
54.3769
 30
0.0
 10
-587.1096
 20
59.3749
 30
0.0
 10
-587.6865
 20
64.2377
 30
0.0
 10
-588.7674
 20
68.8983
 30
0.0
 10
-584.2924
 20
67.7738
 30
0.0
 10
-579.6243
 20
67.1699
 30
0.0
 10
-574.8271
 20
67.1699
 30
0.0
 10
-552.194
 20
67.1699
 30
0.0
 10
-532.4472
 20
80.4547
 30
0.0
 10
-522.3983
 20
99.9196
 30
0.0
  0
SPLINE
  5
81
330
1F
100
AcDbEntity
  8
Layer 1
 62
   250
370
    20
100
AcDbSpline
210
0.0
220
0.0
230
1.0
 70
    11
 71
     3
 72
    53
 73
    49
 74
     0
 42
0.0000000001
 43
0.0000000001
 40
0.0
 40
0.0
 40
0.0
 40
0.0
 40
0.0625
 40
0.0625
 40
0.0625
 40
0.125
 40
0.125
 40
0.125
 40
0.1875
 40
0.1875
 40
0.1875
 40
0.25
 40
0.25
 40
0.25
 40
0.3125
 40
0.3125
 40
0.3125
 40
0.375
 40
0.375
 40
0.375
 40
0.4375
 40
0.4375
 40
0.4375
 40
0.5
 40
0.5
 40
0.5
 40
0.5625
 40
0.5625
 40
0.5625
 40
0.625
 40
0.625
 40
0.625
 40
0.6875
 40
0.6875
 40
0.6875
 40
0.75
 40
0.75
 40
0.75
 40
0.8125
 40
0.8125
 40
0.8125
 40
0.875
 40
0.875
 40
0.875
 40
0.9375
 40
0.9375
 40
0.9375
 40
1.0
 40
1.0
 40
1.0
 40
1.0
 10
-873.8833
 20
500.8529
 30
0.0
 10
-906.218
 20
500.8529
 30
0.0
 10
-932.5947
 20
473.3813
 30
0.0
 10
-932.5947
 20
439.6998
 30
0.0
 10
-932.5947
 20
436.0039
 30
0.0
 10
-932.2763
 20
432.3845
 30
0.0
 10
-931.6679
 20
428.8661
 30
0.0
 10
-935.0464
 20
429.4988
 30
0.0
 10
-938.5226
 20
429.8294
 30
0.0
 10
-942.0707
 20
429.8294
 30
0.0
 10
-974.4094
 20
429.8294
 30
0.0
 10
-1000.7835
 20
402.3593
 30
0.0
 10
-1000.7848
 20
368.6804
 30
0.0
 10
-1000.7835
 20
334.9976
 30
0.0
 10
-974.4094
 20
307.5274
 30
0.0
 10
-942.072
 20
307.5274
 30
0.0
 10
-938.5226
 20
307.5274
 30
0.0
 10
-935.0451
 20
307.8593
 30
0.0
 10
-931.6666
 20
308.4933
 30
0.0
 10
-932.2763
 20
304.9751
 30
0.0
 10
-932.5934
 20
301.3515
 30
0.0
 10
-932.5934
 20
297.6569
 30
0.0
 10
-932.5947
 20
263.9754
 30
0.0
 10
-906.2193
 20
236.5052
 30
0.0
 10
-873.8833
 20
236.5039
 30
0.0
 10
-841.5446
 20
236.5052
 30
0.0
 10
-815.1703
 20
263.9754
 30
0.0
 10
-815.1703
 20
297.6556
 30
0.0
 10
-815.1703
 20
301.3515
 30
0.0
 10
-815.4889
 20
304.9751
 30
0.0
 10
-816.0971
 20
308.4933
 30
0.0
 10
-812.7189
 20
307.8593
 30
0.0
 10
-809.2412
 20
307.5274
 30
0.0
 10
-805.6945
 20
307.5274
 30
0.0
 10
-773.3559
 20
307.5274
 30
0.0
 10
-746.9803
 20
334.9976
 30
0.0
 10
-746.9803
 20
368.6804
 30
0.0
 10
-746.9803
 20
402.3593
 30
0.0
 10
-773.3559
 20
429.8308
 30
0.0
 10
-805.6932
 20
429.8308
 30
0.0
 10
-809.2412
 20
429.8308
 30
0.0
 10
-812.7189
 20
429.4988
 30
0.0
 10
-816.0971
 20
428.8661
 30
0.0
 10
-815.4889
 20
432.3845
 30
0.0
 10
-815.1703
 20
436.0039
 30
0.0
 10
-815.1703
 20
439.6985
 30
0.0
 10
-815.1717
 20
473.3813
 30
0.0
 10
-841.5446
 20
500.8529
 30
0.0
 10
-873.8833
 20
500.8529
 30
0.0
  0
SPLINE
  5
82
330
1F
100
AcDbEntity
  8
Layer 1
 62
   250
370
    20
100
AcDbSpline
210
0.0
220
0.0
230
1.0
 70
    11
 71
     3
 72
    53
 73
    49
 74
     0
 42
0.0000000001
 43
0.0000000001
 40
0.0
 40
0.0
 40
0.0
 40
0.0
 40
0.0625
 40
0.0625
 40
0.0625
 40
0.125
 40
0.125
 40
0.125
 40
0.1875
 40
0.1875
 40
0.1875
 40
0.25
 40
0.25
 40
0.25
 40
0.3125
 40
0.3125
 40
0.3125
 40
0.375
 40
0.375
 40
0.375
 40
0.4375
 40
0.4375
 40
0.4375
 40
0.5
 40
0.5
 40
0.5
 40
0.5625
 40
0.5625
 40
0.5625
 40
0.625
 40
0.625
 40
0.625
 40
0.6875
 40
0.6875
 40
0.6875
 40
0.75
 40
0.75
 40
0.75
 40
0.8125
 40
0.8125
 40
0.8125
 40
0.875
 40
0.875
 40
0.875
 40
0.9375
 40
0.9375
 40
0.9375
 40
1.0
 40
1.0
 40
1.0
 40
1.0
 10
-873.8833
 20
-235.4817
 30
0.0
 10
-906.218
 20
-235.4817
 30
0.0
 10
-932.5947
 20
-262.9518
 30
0.0
 10
-932.5947
 20
-296.632
 30
0.0
 10
-932.5947
 20
-300.3279
 30
0.0
 10
-932.2763
 20
-303.9487
 30
0.0
 10
-931.6679
 20
-307.4671
 30
0.0
 10
-935.0464
 20
-306.8331
 30
0.0
 10
-938.5226
 20
-306.5037
 30
0.0
 10
-942.0707
 20
-306.5037
 30
0.0
 10
-974.4094
 20
-306.5024
 30
0.0
 10
-1000.7835
 20
-333.9739
 30
0.0
 10
-1000.7848
 20
-367.6541
 30
0.0
 10
-1000.7835
 20
-401.3342
 30
0.0
 10
-974.4094
 20
-428.8044
 30
0.0
 10
-942.072
 20
-428.8044
 30
0.0
 10
-938.5226
 20
-428.8044
 30
0.0
 10
-935.0451
 20
-428.4738
 30
0.0
 10
-931.6666
 20
-427.8412
 30
0.0
 10
-932.2763
 20
-431.3581
 30
0.0
 10
-932.5934
 20
-434.9789
 30
0.0
 10
-932.5934
 20
-438.6763
 30
0.0
 10
-932.5947
 20
-472.3578
 30
0.0
 10
-906.2193
 20
-499.828
 30
0.0
 10
-873.8833
 20
-499.828
 30
0.0
 10
-841.5446
 20
-499.828
 30
0.0
 10
-815.1703
 20
-472.3578
 30
0.0
 10
-815.1703
 20
-438.6776
 30
0.0
 10
-815.1703
 20
-434.9789
 30
0.0
 10
-815.4889
 20
-431.3581
 30
0.0
 10
-816.0971
 20
-427.8412
 30
0.0
 10
-812.7189
 20
-428.4738
 30
0.0
 10
-809.2412
 20
-428.8044
 30
0.0
 10
-805.6945
 20
-428.8044
 30
0.0
 10
-773.3559
 20
-428.8044
 30
0.0
 10
-746.9803
 20
-401.3342
 30
0.0
 10
-746.9803
 20
-367.6541
 30
0.0
 10
-746.9803
 20
-333.9739
 30
0.0
 10
-773.3559
 20
-306.5024
 30
0.0
 10
-805.6932
 20
-306.5024
 30
0.0
 10
-809.2412
 20
-306.5024
 30
0.0
 10
-812.7189
 20
-306.8331
 30
0.0
 10
-816.0971
 20
-307.4671
 30
0.0
 10
-815.4889
 20
-303.9487
 30
0.0
 10
-815.1703
 20
-300.3293
 30
0.0
 10
-815.1703
 20
-296.6334
 30
0.0
 10
-815.1717
 20
-262.9518
 30
0.0
 10
-841.5446
 20
-235.4817
 30
0.0
 10
-873.8833
 20
-235.4817
 30
0.0
  0
SPLINE
  5
83
330
1F
100
AcDbEntity
  8
Layer 1
 62
   250
370
    20
100
AcDbSpline
210
0.0
220
0.0
230
1.0
 70
    11
 71
     3
 72
    44
 73
    40
 74
     0
 42
0.0000000001
 43
0.0000000001
 40
0.0
 40
0.0
 40
0.0
 40
0.0
 40
0.0769230769230769
 40
0.0769230769230769
 40
0.0769230769230769
 40
0.1538461538461539
 40
0.1538461538461539
 40
0.1538461538461539
 40
0.2307692307692308
 40
0.2307692307692308
 40
0.2307692307692308
 40
0.3076923076923077
 40
0.3076923076923077
 40
0.3076923076923077
 40
0.3846153846153846
 40
0.3846153846153846
 40
0.3846153846153846
 40
0.4615384615384616
 40
0.4615384615384616
 40
0.4615384615384616
 40
0.5384615384615385
 40
0.5384615384615385
 40
0.5384615384615385
 40
0.6153846153846154
 40
0.6153846153846154
 40
0.6153846153846154
 40
0.6923076923076923
 40
0.6923076923076923
 40
0.6923076923076923
 40
0.7692307692307693
 40
0.7692307692307693
 40
0.7692307692307693
 40
0.8461538461538463
 40
0.8461538461538463
 40
0.8461538461538463
 40
0.9230769230769231
 40
0.9230769230769231
 40
0.9230769230769231
 40
1.0
 40
1.0
 40
1.0
 40
1.0
 10
-75.6547
 20
-466.947
 30
0.0
 10
-75.6547
 20
-466.947
 30
0.0
 10
-75.3688
 20
-466.6369
 30
0.0
 10
-75.3688
 20
-466.6369
 30
0.0
 10
-65.0196
 20
-465.0396
 30
0.0
 10
-21.5055
 20
-455.1747
 30
0.0
 10
9.1962
 20
-399.9898
 30
0.0
 10
9.1962
 20
-399.9898
 30
0.0
 10
133.5131
 20
-399.9898
 30
0.0
 10
133.5131
 20
-399.9898
 30
0.0
 10
130.3527
 20
-410.2004
 30
0.0
 10
115.6657
 20
-446.6283
 30
0.0
 10
57.7453
 20
-490.7924
 30
0.0
 10
57.7453
 20
-490.7924
 30
0.0
 10
28.439
 20
-522.3943
 30
0.0
 10
20.0663
 20
-577.7241
 30
0.0
 10
20.0688
 20
-577.7268
 30
0.0
 10
19.8456
 20
-577.8006
 30
0.0
 10
19.4383
 20
-577.9317
 30
0.0
 10
19.4109
 20
-577.9413
 30
0.0
 10
19.3927
 20
-577.9482
 30
0.0
 10
19.3653
 20
-577.9549
 30
0.0
 10
10.948
 20
-580.0741
 30
0.0
 10
-0.8893
 20
-584.5461
 30
0.0
 10
-13.1914
 20
-590.0266
 30
0.0
 10
-13.1914
 20
-590.0266
 30
0.0
 10
-140.2732
 20
-590.0266
 30
0.0
 10
-140.2732
 20
-590.0266
 30
0.0
 10
-140.2732
 20
-590.0266
 30
0.0
 10
-140.2732
 20
-556.8123
 30
0.0
 10
-140.2732
 20
-556.8123
 30
0.0
 10
-89.4866
 20
-525.791
 30
0.0
 10
-78.5983
 20
-479.2058
 30
0.0
 10
-76.665
 20
-468.0347
 30
0.0
 10
-76.665
 20
-468.0347
 30
0.0
 10
-76.0084
 20
-467.3269
 30
0.0
 10
-76.0084
 20
-467.3269
 30
0.0
 10
-76.0084
 20
-467.3269
 30
0.0
 10
-75.6547
 20
-466.947
 30
0.0
 10
-75.6547
 20
-466.947
 30
0.0
  0
SPLINE
  5
84
330
1F
100
AcDbEntity
  8
Layer 1
 62
   250
370
    20
100
AcDbSpline
210
0.0
220
0.0
230
1.0
 70
    11
 71
     3
 72
    44
 73
    40
 74
     0
 42
0.0000000001
 43
0.0000000001
 40
0.0
 40
0.0
 40
0.0
 40
0.0
 40
0.0769230769230769
 40
0.0769230769230769
 40
0.0769230769230769
 40
0.1538461538461539
 40
0.1538461538461539
 40
0.1538461538461539
 40
0.2307692307692308
 40
0.2307692307692308
 40
0.2307692307692308
 40
0.3076923076923077
 40
0.3076923076923077
 40
0.3076923076923077
 40
0.3846153846153846
 40
0.3846153846153846
 40
0.3846153846153846
 40
0.4615384615384616
 40
0.4615384615384616
 40
0.4615384615384616
 40
0.5384615384615385
 40
0.5384615384615385
 40
0.5384615384615385
 40
0.6153846153846154
 40
0.6153846153846154
 40
0.6153846153846154
 40
0.6923076923076923
 40
0.6923076923076923
 40
0.6923076923076923
 40
0.7692307692307693
 40
0.7692307692307693
 40
0.7692307692307693
 40
0.8461538461538463
 40
0.8461538461538463
 40
0.8461538461538463
 40
0.9230769230769231
 40
0.9230769230769231
 40
0.9230769230769231
 40
1.0
 40
1.0
 40
1.0
 40
1.0
 10
-75.6547
 20
-268.3625
 30
0.0
 10
-75.6547
 20
-268.3625
 30
0.0
 10
-75.3688
 20
-268.6713
 30
0.0
 10
-75.3688
 20
-268.6713
 30
0.0
 10
-65.0196
 20
-270.2699
 30
0.0
 10
-21.5055
 20
-280.1349
 30
0.0
 10
9.1962
 20
-335.3198
 30
0.0
 10
9.1962
 20
-335.3198
 30
0.0
 10
133.5131
 20
-335.3198
 30
0.0
 10
133.5131
 20
-335.3198
 30
0.0
 10
130.3527
 20
-325.1078
 30
0.0
 10
115.6657
 20
-288.6799
 30
0.0
 10
57.7453
 20
-244.5159
 30
0.0
 10
57.7453
 20
-244.5159
 30
0.0
 10
28.439
 20
-212.9152
 30
0.0
 10
20.0663
 20
-157.5827
 30
0.0
 10
20.0688
 20
-157.58
 30
0.0
 10
19.8456
 20
-157.5077
 30
0.0
 10
19.4383
 20
-157.3764
 30
0.0
 10
19.4109
 20
-157.3682
 30
0.0
 10
19.3927
 20
-157.3615
 30
0.0
 10
19.3653
 20
-157.3532
 30
0.0
 10
-5.9634
 20
-150.9766
 30
0.0
 10
-62.2887
 20
-123.2877
 30
0.0
 10
-68.9136
 20
-110.9498
 30
0.0
 10
-89.4814
 20
-73.1268
 30
0.0
 10
-122.1098
 20
-52.1303
 30
0.0
 10
-140.2732
 20
-44.3054
 30
0.0
 10
-140.2732
 20
-44.3054
 30
0.0
 10
-140.2732
 20
-178.4959
 30
0.0
 10
-140.2732
 20
-178.4959
 30
0.0
 10
-89.4866
 20
-209.5172
 30
0.0
 10
-78.5983
 20
-256.1023
 30
0.0
 10
-76.665
 20
-267.2736
 30
0.0
 10
-76.665
 20
-267.2736
 30
0.0
 10
-76.0084
 20
-267.9826
 30
0.0
 10
-76.0084
 20
-267.9826
 30
0.0
 10
-76.0084
 20
-267.9826
 30
0.0
 10
-75.6547
 20
-268.3625
 30
0.0
 10
-75.6547
 20
-268.3625
 30
0.0
  0
SPLINE
  5
85
330
1F
100
AcDbEntity
  8
Layer 1
 62
   250
370
    20
100
AcDbSpline
210
0.0
220
0.0
230
1.0
 70
    11
 71
     3
 72
    53
 73
    49
 74
     0
 42
0.0000000001
 43
0.0000000001
 40
0.0
 40
0.0
 40
0.0
 40
0.0
 40
0.0625
 40
0.0625
 40
0.0625
 40
0.125
 40
0.125
 40
0.125
 40
0.1875
 40
0.1875
 40
0.1875
 40
0.25
 40
0.25
 40
0.25
 40
0.3125
 40
0.3125
 40
0.3125
 40
0.375
 40
0.375
 40
0.375
 40
0.4375
 40
0.4375
 40
0.4375
 40
0.5
 40
0.5
 40
0.5
 40
0.5625
 40
0.5625
 40
0.5625
 40
0.625
 40
0.625
 40
0.625
 40
0.6875
 40
0.6875
 40
0.6875
 40
0.75
 40
0.75
 40
0.75
 40
0.8125
 40
0.8125
 40
0.8125
 40
0.875
 40
0.875
 40
0.875
 40
0.9375
 40
0.9375
 40
0.9375
 40
1.0
 40
1.0
 40
1.0
 40
1.0
 10
-172.4851
 20
-235.4817
 30
0.0
 10
-204.8224
 20
-235.4817
 30
0.0
 10
-231.198
 20
-262.9518
 30
0.0
 10
-231.198
 20
-296.632
 30
0.0
 10
-231.198
 20
-300.3279
 30
0.0
 10
-230.8783
 20
-303.9487
 30
0.0
 10
-230.2712
 20
-307.4671
 30
0.0
 10
-233.6482
 20
-306.8331
 30
0.0
 10
-237.1258
 20
-306.5037
 30
0.0
 10
-240.6725
 20
-306.5037
 30
0.0
 10
-273.0125
 20
-306.5024
 30
0.0
 10
-299.3868
 20
-333.9739
 30
0.0
 10
-299.3881
 20
-367.6541
 30
0.0
 10
-299.3881
 20
-401.3342
 30
0.0
 10
-273.0125
 20
-428.8044
 30
0.0
 10
-240.6739
 20
-428.8044
 30
0.0
 10
-237.1258
 20
-428.8044
 30
0.0
 10
-233.6482
 20
-428.4738
 30
0.0
 10
-230.2699
 20
-427.8412
 30
0.0
 10
-230.8783
 20
-431.3581
 30
0.0
 10
-231.1967
 20
-434.9789
 30
0.0
 10
-231.1967
 20
-438.6763
 30
0.0
 10
-231.1967
 20
-472.3578
 30
0.0
 10
-204.8238
 20
-499.828
 30
0.0
 10
-172.4851
 20
-499.828
 30
0.0
 10
-140.1479
 20
-499.828
 30
0.0
 10
-113.7723
 20
-472.3578
 30
0.0
 10
-113.7723
 20
-438.6776
 30
0.0
 10
-113.7723
 20
-434.9789
 30
0.0
 10
-114.0908
 20
-431.3581
 30
0.0
 10
-114.7004
 20
-427.8412
 30
0.0
 10
-111.3233
 20
-428.4738
 30
0.0
 10
-107.8458
 20
-428.8044
 30
0.0
 10
-104.2977
 20
-428.8044
 30
0.0
 10
-71.9578
 20
-428.8044
 30
0.0
 10
-45.5836
 20
-401.3342
 30
0.0
 10
-45.5836
 20
-367.6541
 30
0.0
 10
-45.5836
 20
-333.9739
 30
0.0
 10
-71.9591
 20
-306.5024
 30
0.0
 10
-104.2963
 20
-306.5024
 30
0.0
 10
-107.8445
 20
-306.5024
 30
0.0
 10
-111.3233
 20
-306.8331
 30
0.0
 10
-114.7004
 20
-307.4671
 30
0.0
 10
-114.0908
 20
-303.9487
 30
0.0
 10
-113.7723
 20
-300.3293
 30
0.0
 10
-113.7723
 20
-296.6334
 30
0.0
 10
-113.7736
 20
-262.9518
 30
0.0
 10
-140.1479
 20
-235.4817
 30
0.0
 10
-172.4851
 20
-235.4817
 30
0.0
  0
SPLINE
  5
86
330
1F
100
AcDbEntity
  8
Layer 1
 62
   250
370
    20
100
AcDbSpline
210
0.0
220
0.0
230
1.0
 70
    11
 71
     3
 72
    53
 73
    49
 74
     0
 42
0.0000000001
 43
0.0000000001
 40
0.0
 40
0.0
 40
0.0
 40
0.0
 40
0.0625
 40
0.0625
 40
0.0625
 40
0.125
 40
0.125
 40
0.125
 40
0.1875
 40
0.1875
 40
0.1875
 40
0.25
 40
0.25
 40
0.25
 40
0.3125
 40
0.3125
 40
0.3125
 40
0.375
 40
0.375
 40
0.375
 40
0.4375
 40
0.4375
 40
0.4375
 40
0.5
 40
0.5
 40
0.5
 40
0.5625
 40
0.5625
 40
0.5625
 40
0.625
 40
0.625
 40
0.625
 40
0.6875
 40
0.6875
 40
0.6875
 40
0.75
 40
0.75
 40
0.75
 40
0.8125
 40
0.8125
 40
0.8125
 40
0.875
 40
0.875
 40
0.875
 40
0.9375
 40
0.9375
 40
0.9375
 40
1.0
 40
1.0
 40
1.0
 40
1.0
 10
-172.4851
 20
500.8529
 30
0.0
 10
-204.8224
 20
500.8529
 30
0.0
 10
-231.198
 20
473.3813
 30
0.0
 10
-231.198
 20
439.6998
 30
0.0
 10
-231.198
 20
436.0039
 30
0.0
 10
-230.8783
 20
432.3845
 30
0.0
 10
-230.2712
 20
428.8661
 30
0.0
 10
-233.6482
 20
429.4988
 30
0.0
 10
-237.1258
 20
429.8294
 30
0.0
 10
-240.6725
 20
429.8294
 30
0.0
 10
-273.0125
 20
429.8294
 30
0.0
 10
-299.3868
 20
402.3593
 30
0.0
 10
-299.3881
 20
368.6804
 30
0.0
 10
-299.3881
 20
334.9976
 30
0.0
 10
-273.0125
 20
307.5274
 30
0.0
 10
-240.6739
 20
307.5274
 30
0.0
 10
-237.1258
 20
307.5274
 30
0.0
 10
-233.6482
 20
307.8593
 30
0.0
 10
-230.2699
 20
308.4933
 30
0.0
 10
-230.8783
 20
304.9751
 30
0.0
 10
-231.1967
 20
301.3515
 30
0.0
 10
-231.1967
 20
297.6569
 30
0.0
 10
-231.1967
 20
263.9754
 30
0.0
 10
-204.8238
 20
236.5052
 30
0.0
 10
-172.4851
 20
236.5039
 30
0.0
 10
-140.1479
 20
236.5052
 30
0.0
 10
-113.7723
 20
263.9754
 30
0.0
 10
-113.7723
 20
297.6556
 30
0.0
 10
-113.7723
 20
301.3515
 30
0.0
 10
-114.0908
 20
304.9751
 30
0.0
 10
-114.7004
 20
308.4933
 30
0.0
 10
-111.3233
 20
307.8593
 30
0.0
 10
-107.8458
 20
307.5274
 30
0.0
 10
-104.2977
 20
307.5274
 30
0.0
 10
-71.9578
 20
307.5274
 30
0.0
 10
-45.5836
 20
334.9976
 30
0.0
 10
-45.5836
 20
368.6804
 30
0.0
 10
-45.5836
 20
402.3593
 30
0.0
 10
-71.9591
 20
429.8308
 30
0.0
 10
-104.2963
 20
429.8308
 30
0.0
 10
-107.8445
 20
429.8308
 30
0.0
 10
-111.3233
 20
429.4988
 30
0.0
 10
-114.7004
 20
428.8661
 30
0.0
 10
-114.0908
 20
432.3845
 30
0.0
 10
-113.7723
 20
436.0039
 30
0.0
 10
-113.7723
 20
439.6985
 30
0.0
 10
-113.7736
 20
473.3813
 30
0.0
 10
-140.1479
 20
500.8529
 30
0.0
 10
-172.4851
 20
500.8529
 30
0.0
  0
SPLINE
  5
87
330
1F
100
AcDbEntity
  8
Layer 1
 62
   250
370
    20
100
AcDbSpline
210
0.0
220
0.0
230
1.0
 70
    11
 71
     3
 72
    44
 73
    40
 74
     0
 42
0.0000000001
 43
0.0000000001
 40
0.0
 40
0.0
 40
0.0
 40
0.0
 40
0.0769230769230769
 40
0.0769230769230769
 40
0.0769230769230769
 40
0.1538461538461539
 40
0.1538461538461539
 40
0.1538461538461539
 40
0.2307692307692308
 40
0.2307692307692308
 40
0.2307692307692308
 40
0.3076923076923077
 40
0.3076923076923077
 40
0.3076923076923077
 40
0.3846153846153846
 40
0.3846153846153846
 40
0.3846153846153846
 40
0.4615384615384616
 40
0.4615384615384616
 40
0.4615384615384616
 40
0.5384615384615385
 40
0.5384615384615385
 40
0.5384615384615385
 40
0.6153846153846154
 40
0.6153846153846154
 40
0.6153846153846154
 40
0.6923076923076923
 40
0.6923076923076923
 40
0.6923076923076923
 40
0.7692307692307693
 40
0.7692307692307693
 40
0.7692307692307693
 40
0.8461538461538463
 40
0.8461538461538463
 40
0.8461538461538463
 40
0.9230769230769231
 40
0.9230769230769231
 40
0.9230769230769231
 40
1.0
 40
1.0
 40
1.0
 40
1.0
 10
432.3684
 20
-268.3625
 30
0.0
 10
432.3684
 20
-268.3625
 30
0.0
 10
432.0798
 20
-268.6713
 30
0.0
 10
432.0798
 20
-268.6713
 30
0.0
 10
421.7319
 20
-270.2699
 30
0.0
 10
378.2152
 20
-280.1349
 30
0.0
 10
347.5135
 20
-335.3198
 30
0.0
 10
347.5135
 20
-335.3198
 30
0.0
 10
223.2005
 20
-335.3198
 30
0.0
 10
223.2005
 20
-335.3198
 30
0.0
 10
226.357
 20
-325.1078
 30
0.0
 10
241.0466
 20
-288.6799
 30
0.0
 10
298.9658
 20
-244.5159
 30
0.0
 10
298.9658
 20
-244.5159
 30
0.0
 10
328.272
 20
-212.9152
 30
0.0
 10
336.6447
 20
-157.5827
 30
0.0
 10
336.6422
 20
-157.58
 30
0.0
 10
336.8641
 20
-157.5077
 30
0.0
 10
337.2727
 20
-157.3764
 30
0.0
 10
337.2988
 20
-157.3682
 30
0.0
 10
337.317
 20
-157.3615
 30
0.0
 10
337.3444
 20
-157.3532
 30
0.0
 10
362.6745
 20
-150.9766
 30
0.0
 10
419.001
 20
-123.2877
 30
0.0
 10
425.6233
 20
-110.9498
 30
0.0
 10
446.1911
 20
-73.1282
 30
0.0
 10
478.8221
 20
-52.1317
 30
0.0
 10
496.9829
 20
-44.3054
 30
0.0
 10
496.9829
 20
-44.3054
 30
0.0
 10
496.9829
 20
-178.4973
 30
0.0
 10
496.9829
 20
-178.4973
 30
0.0
 10
446.199
 20
-209.5172
 30
0.0
 10
435.308
 20
-256.1023
 30
0.0
 10
433.3787
 20
-267.2736
 30
0.0
 10
433.3787
 20
-267.2736
 30
0.0
 10
432.7195
 20
-267.9826
 30
0.0
 10
432.7195
 20
-267.9826
 30
0.0
 10
432.7195
 20
-267.9826
 30
0.0
 10
432.3684
 20
-268.3625
 30
0.0
 10
432.3684
 20
-268.3625
 30
0.0
  0
SPLINE
  5
88
330
1F
100
AcDbEntity
  8
Layer 1
 62
   250
370
    20
100
AcDbSpline
210
0.0
220
0.0
230
1.0
 70
    11
 71
     3
 72
    44
 73
    40
 74
     0
 42
0.0000000001
 43
0.0000000001
 40
0.0
 40
0.0
 40
0.0
 40
0.0
 40
0.0769230769230769
 40
0.0769230769230769
 40
0.0769230769230769
 40
0.1538461538461539
 40
0.1538461538461539
 40
0.1538461538461539
 40
0.2307692307692308
 40
0.2307692307692308
 40
0.2307692307692308
 40
0.3076923076923077
 40
0.3076923076923077
 40
0.3076923076923077
 40
0.3846153846153846
 40
0.3846153846153846
 40
0.3846153846153846
 40
0.4615384615384616
 40
0.4615384615384616
 40
0.4615384615384616
 40
0.5384615384615385
 40
0.5384615384615385
 40
0.5384615384615385
 40
0.6153846153846154
 40
0.6153846153846154
 40
0.6153846153846154
 40
0.6923076923076923
 40
0.6923076923076923
 40
0.6923076923076923
 40
0.7692307692307693
 40
0.7692307692307693
 40
0.7692307692307693
 40
0.8461538461538463
 40
0.8461538461538463
 40
0.8461538461538463
 40
0.9230769230769231
 40
0.9230769230769231
 40
0.9230769230769231
 40
1.0
 40
1.0
 40
1.0
 40
1.0
 10
627.3112
 20
-268.3625
 30
0.0
 10
627.3112
 20
-268.3625
 30
0.0
 10
627.5971
 20
-268.6713
 30
0.0
 10
627.5971
 20
-268.6713
 30
0.0
 10
637.9475
 20
-270.2699
 30
0.0
 10
681.4617
 20
-280.1349
 30
0.0
 10
712.162
 20
-335.3198
 30
0.0
 10
712.162
 20
-335.3198
 30
0.0
 10
836.4791
 20
-335.3198
 30
0.0
 10
836.4791
 20
-335.3198
 30
0.0
 10
833.3212
 20
-325.1078
 30
0.0
 10
818.6317
 20
-288.6799
 30
0.0
 10
760.7137
 20
-244.5159
 30
0.0
 10
760.7137
 20
-244.5159
 30
0.0
 10
731.4062
 20
-212.9152
 30
0.0
 10
723.0334
 20
-157.5827
 30
0.0
 10
723.0361
 20
-157.58
 30
0.0
 10
722.8127
 20
-157.5077
 30
0.0
 10
722.4056
 20
-157.3764
 30
0.0
 10
722.3793
 20
-157.3682
 30
0.0
 10
722.3611
 20
-157.3615
 30
0.0
 10
722.3337
 20
-157.3532
 30
0.0
 10
697.0038
 20
-150.9766
 30
0.0
 10
640.6771
 20
-123.2877
 30
0.0
 10
634.0549
 20
-110.9498
 30
0.0
 10
613.4857
 20
-73.1268
 30
0.0
 10
580.856
 20
-52.1303
 30
0.0
 10
562.6939
 20
-44.3054
 30
0.0
 10
562.6939
 20
-44.3054
 30
0.0
 10
562.6939
 20
-178.4959
 30
0.0
 10
562.6939
 20
-178.4959
 30
0.0
 10
613.4792
 20
-209.5172
 30
0.0
 10
624.3688
 20
-256.1023
 30
0.0
 10
626.3008
 20
-267.2736
 30
0.0
 10
626.3008
 20
-267.2736
 30
0.0
 10
626.9587
 20
-267.9826
 30
0.0
 10
626.9587
 20
-267.9826
 30
0.0
 10
626.9587
 20
-267.9826
 30
0.0
 10
627.3112
 20
-268.3625
 30
0.0
 10
627.3112
 20
-268.3625
 30
0.0
  0
SPLINE
  5
89
330
1F
100
AcDbEntity
  8
Layer 1
 62
   250
370
    20
100
AcDbSpline
210
0.0
220
0.0
230
1.0
 70
    11
 71
     3
 72
    44
 73
    40
 74
     0
 42
0.0000000001
 43
0.0000000001
 40
0.0
 40
0.0
 40
0.0
 40
0.0
 40
0.0769230769230769
 40
0.0769230769230769
 40
0.0769230769230769
 40
0.1538461538461539
 40
0.1538461538461539
 40
0.1538461538461539
 40
0.2307692307692308
 40
0.2307692307692308
 40
0.2307692307692308
 40
0.3076923076923077
 40
0.3076923076923077
 40
0.3076923076923077
 40
0.3846153846153846
 40
0.3846153846153846
 40
0.3846153846153846
 40
0.4615384615384616
 40
0.4615384615384616
 40
0.4615384615384616
 40
0.5384615384615385
 40
0.5384615384615385
 40
0.5384615384615385
 40
0.6153846153846154
 40
0.6153846153846154
 40
0.6153846153846154
 40
0.6923076923076923
 40
0.6923076923076923
 40
0.6923076923076923
 40
0.7692307692307693
 40
0.7692307692307693
 40
0.7692307692307693
 40
0.8461538461538463
 40
0.8461538461538463
 40
0.8461538461538463
 40
0.9230769230769231
 40
0.9230769230769231
 40
0.9230769230769231
 40
1.0
 40
1.0
 40
1.0
 40
1.0
 10
-75.6547
 20
469.4613
 30
0.0
 10
-75.6547
 20
469.4613
 30
0.0
 10
-75.3688
 20
469.1526
 30
0.0
 10
-75.3688
 20
469.1526
 30
0.0
 10
-65.0196
 20
467.5539
 30
0.0
 10
-21.5055
 20
457.6876
 30
0.0
 10
9.1962
 20
402.5027
 30
0.0
 10
9.1962
 20
402.5027
 30
0.0
 10
133.5131
 20
402.5027
 30
0.0
 10
133.5131
 20
402.5027
 30
0.0
 10
130.3527
 20
412.7146
 30
0.0
 10
115.6657
 20
449.144
 30
0.0
 10
57.7453
 20
493.308
 30
0.0
 10
57.7453
 20
493.308
 30
0.0
 10
28.439
 20
524.9072
 30
0.0
 10
20.0663
 20
580.2397
 30
0.0
 10
20.0688
 20
580.2424
 30
0.0
 10
19.8456
 20
580.3148
 30
0.0
 10
19.4383
 20
580.4474
 30
0.0
 10
19.4109
 20
580.4556
 30
0.0
 10
19.3927
 20
580.4624
 30
0.0
 10
19.3653
 20
580.4706
 30
0.0
 10
12.3057
 20
582.2468
 30
0.0
 10
2.8389
 20
585.6791
 30
0.0
 10
-7.291
 20
589.9734
 30
0.0
 10
-7.291
 20
589.9734
 30
0.0
 10
-140.2732
 20
589.9734
 30
0.0
 10
-140.2732
 20
589.9734
 30
0.0
 10
-140.2732
 20
589.9734
 30
0.0
 10
-140.2732
 20
559.3279
 30
0.0
 10
-140.2732
 20
559.3279
 30
0.0
 10
-89.4866
 20
528.3053
 30
0.0
 10
-78.5983
 20
481.7201
 30
0.0
 10
-76.665
 20
470.5489
 30
0.0
 10
-76.665
 20
470.5489
 30
0.0
 10
-76.0084
 20
469.8412
 30
0.0
 10
-76.0084
 20
469.8412
 30
0.0
 10
-76.0084
 20
469.8412
 30
0.0
 10
-75.6547
 20
469.4613
 30
0.0
 10
-75.6547
 20
469.4613
 30
0.0
  0
SPLINE
  5
8A
330
1F
100
AcDbEntity
  8
Layer 1
 62
   250
370
    20
100
AcDbSpline
210
0.0
220
0.0
230
1.0
 70
    11
 71
     3
 72
    35
 73
    31
 74
     0
 42
0.0000000001
 43
0.0000000001
 40
0.0
 40
0.0
 40
0.0
 40
0.0
 40
0.1
 40
0.1
 40
0.1
 40
0.2
 40
0.2
 40
0.2
 40
0.3
 40
0.3
 40
0.3
 40
0.4
 40
0.4
 40
0.4
 40
0.5
 40
0.5
 40
0.5
 40
0.6000000000000001
 40
0.6000000000000001
 40
0.6000000000000001
 40
0.7000000000000001
 40
0.7000000000000001
 40
0.7000000000000001
 40
0.8
 40
0.8
 40
0.8
 40
0.9
 40
0.9
 40
0.9
 40
1.0
 40
1.0
 40
1.0
 40
1.0
 10
178.3549
 20
469.326
 30
0.0
 10
164.7031
 20
493.297
 30
0.0
 10
88.2249
 20
542.5138
 30
0.0
 10
95.8197
 20
589.9734
 30
0.0
 10
95.8197
 20
589.9734
 30
0.0
 10
127.6466
 20
589.9734
 30
0.0
 10
127.6466
 20
589.9734
 30
0.0
 10
129.0617
 20
586.0958
 30
0.0
 10
129.9259
 20
581.1168
 30
0.0
 10
129.9938
 20
574.7771
 30
0.0
 10
129.3999
 20
540.9261
 30
0.0
 10
171.3267
 20
575.3523
 30
0.0
 10
178.3326
 20
584.2868
 30
0.0
 10
178.3405
 20
584.2827
 30
0.0
 10
178.3536
 20
584.2744
 30
0.0
 10
178.3561
 20
584.2622
 30
0.0
 10
178.36
 20
584.2744
 30
0.0
 10
178.3718
 20
584.2827
 30
0.0
 10
178.3784
 20
584.2868
 30
0.0
 10
185.3857
 20
575.3523
 30
0.0
 10
227.3125
 20
540.9261
 30
0.0
 10
226.7172
 20
574.7771
 30
0.0
 10
226.7851
 20
581.1168
 30
0.0
 10
227.6572
 20
586.0958
 30
0.0
 10
229.0708
 20
589.9734
 30
0.0
 10
229.0708
 20
589.9734
 30
0.0
 10
260.8964
 20
589.9734
 30
0.0
 10
260.8964
 20
589.9734
 30
0.0
 10
268.4912
 20
542.5138
 30
0.0
 10
192.0106
 20
493.2916
 30
0.0
 10
178.3549
 20
469.326
 30
0.0
  0
SPLINE
  5
8B
330
1F
100
AcDbEntity
  8
Layer 1
 62
   250
370
    20
100
AcDbSpline
210
0.0
220
0.0
230
1.0
 70
    11
 71
     3
 72
    44
 73
    40
 74
     0
 42
0.0000000001
 43
0.0000000001
 40
0.0
 40
0.0
 40
0.0
 40
0.0
 40
0.0769230769230769
 40
0.0769230769230769
 40
0.0769230769230769
 40
0.1538461538461539
 40
0.1538461538461539
 40
0.1538461538461539
 40
0.2307692307692308
 40
0.2307692307692308
 40
0.2307692307692308
 40
0.3076923076923077
 40
0.3076923076923077
 40
0.3076923076923077
 40
0.3846153846153846
 40
0.3846153846153846
 40
0.3846153846153846
 40
0.4615384615384616
 40
0.4615384615384616
 40
0.4615384615384616
 40
0.5384615384615385
 40
0.5384615384615385
 40
0.5384615384615385
 40
0.6153846153846154
 40
0.6153846153846154
 40
0.6153846153846154
 40
0.6923076923076923
 40
0.6923076923076923
 40
0.6923076923076923
 40
0.7692307692307693
 40
0.7692307692307693
 40
0.7692307692307693
 40
0.8461538461538463
 40
0.8461538461538463
 40
0.8461538461538463
 40
0.9230769230769231
 40
0.9230769230769231
 40
0.9230769230769231
 40
1.0
 40
1.0
 40
1.0
 40
1.0
 10
432.3684
 20
469.4613
 30
0.0
 10
432.3684
 20
469.4613
 30
0.0
 10
432.0798
 20
469.1526
 30
0.0
 10
432.0798
 20
469.1526
 30
0.0
 10
421.7319
 20
467.5539
 30
0.0
 10
378.2152
 20
457.6876
 30
0.0
 10
347.5135
 20
402.5027
 30
0.0
 10
347.5135
 20
402.5027
 30
0.0
 10
223.2005
 20
402.5027
 30
0.0
 10
223.2005
 20
402.5027
 30
0.0
 10
226.357
 20
412.7146
 30
0.0
 10
241.0466
 20
449.144
 30
0.0
 10
298.9658
 20
493.308
 30
0.0
 10
298.9658
 20
493.308
 30
0.0
 10
328.272
 20
524.9072
 30
0.0
 10
336.6447
 20
580.2397
 30
0.0
 10
336.6422
 20
580.2424
 30
0.0
 10
336.8641
 20
580.3148
 30
0.0
 10
337.2727
 20
580.4474
 30
0.0
 10
337.2988
 20
580.4556
 30
0.0
 10
337.317
 20
580.4624
 30
0.0
 10
337.3444
 20
580.4706
 30
0.0
 10
344.4053
 20
582.2468
 30
0.0
 10
353.8787
 20
585.6791
 30
0.0
 10
364.0099
 20
589.9734
 30
0.0
 10
364.0099
 20
589.9734
 30
0.0
 10
496.9829
 20
589.9734
 30
0.0
 10
496.9829
 20
589.9734
 30
0.0
 10
496.9829
 20
589.9734
 30
0.0
 10
496.9829
 20
559.3265
 30
0.0
 10
496.9829
 20
559.3265
 30
0.0
 10
446.199
 20
528.3053
 30
0.0
 10
435.308
 20
481.7201
 30
0.0
 10
433.3787
 20
470.5489
 30
0.0
 10
433.3787
 20
470.5489
 30
0.0
 10
432.7195
 20
469.8412
 30
0.0
 10
432.7195
 20
469.8412
 30
0.0
 10
432.7195
 20
469.8412
 30
0.0
 10
432.3684
 20
469.4613
 30
0.0
 10
432.3684
 20
469.4613
 30
0.0
  0
SPLINE
  5
8C
330
1F
100
AcDbEntity
  8
Layer 1
 62
   250
370
    20
100
AcDbSpline
210
0.0
220
0.0
230
1.0
 70
    11
 71
     3
 72
    44
 73
    40
 74
     0
 42
0.0000000001
 43
0.0000000001
 40
0.0
 40
0.0
 40
0.0
 40
0.0
 40
0.0769230769230769
 40
0.0769230769230769
 40
0.0769230769230769
 40
0.1538461538461539
 40
0.1538461538461539
 40
0.1538461538461539
 40
0.2307692307692308
 40
0.2307692307692308
 40
0.2307692307692308
 40
0.3076923076923077
 40
0.3076923076923077
 40
0.3076923076923077
 40
0.3846153846153846
 40
0.3846153846153846
 40
0.3846153846153846
 40
0.4615384615384616
 40
0.4615384615384616
 40
0.4615384615384616
 40
0.5384615384615385
 40
0.5384615384615385
 40
0.5384615384615385
 40
0.6153846153846154
 40
0.6153846153846154
 40
0.6153846153846154
 40
0.6923076923076923
 40
0.6923076923076923
 40
0.6923076923076923
 40
0.7692307692307693
 40
0.7692307692307693
 40
0.7692307692307693
 40
0.8461538461538463
 40
0.8461538461538463
 40
0.8461538461538463
 40
0.9230769230769231
 40
0.9230769230769231
 40
0.9230769230769231
 40
1.0
 40
1.0
 40
1.0
 40
1.0
 10
432.3684
 20
267.9009
 30
0.0
 10
432.3684
 20
267.9009
 30
0.0
 10
432.0798
 20
268.2083
 30
0.0
 10
432.0798
 20
268.2083
 30
0.0
 10
421.7319
 20
269.8069
 30
0.0
 10
378.2152
 20
279.6732
 30
0.0
 10
347.5135
 20
334.8595
 30
0.0
 10
347.5135
 20
334.8595
 30
0.0
 10
223.1992
 20
334.8595
 30
0.0
 10
223.1992
 20
334.8595
 30
0.0
 10
226.3557
 20
324.6475
 30
0.0
 10
241.0453
 20
288.2196
 30
0.0
 10
298.9658
 20
244.0542
 30
0.0
 10
298.9658
 20
244.0542
 30
0.0
 10
328.272
 20
212.4537
 30
0.0
 10
336.6447
 20
157.1198
 30
0.0
 10
336.6422
 20
157.1184
 30
0.0
 10
336.8641
 20
157.046
 30
0.0
 10
337.2727
 20
156.9135
 30
0.0
 10
337.2988
 20
156.9067
 30
0.0
 10
337.317
 20
156.8998
 30
0.0
 10
337.3444
 20
156.8916
 30
0.0
 10
362.6745
 20
150.5149
 30
0.0
 10
419.001
 20
122.8261
 30
0.0
 10
425.6233
 20
110.4881
 30
0.0
 10
446.1911
 20
72.6666
 30
0.0
 10
478.8221
 20
51.6701
 30
0.0
 10
496.9829
 20
43.8423
 30
0.0
 10
496.9829
 20
43.8423
 30
0.0
 10
496.9829
 20
178.0356
 30
0.0
 10
496.9829
 20
178.0356
 30
0.0
 10
446.199
 20
209.0555
 30
0.0
 10
435.308
 20
255.6408
 30
0.0
 10
433.3787
 20
266.8105
 30
0.0
 10
433.3787
 20
266.8105
 30
0.0
 10
432.7195
 20
267.5211
 30
0.0
 10
432.7195
 20
267.5211
 30
0.0
 10
432.7195
 20
267.5211
 30
0.0
 10
432.3684
 20
267.9009
 30
0.0
 10
432.3684
 20
267.9009
 30
0.0
  0
SPLINE
  5
8D
330
1F
100
AcDbEntity
  8
Layer 1
 62
   250
370
    20
100
AcDbSpline
210
0.0
220
0.0
230
1.0
 70
    11
 71
     3
 72
    44
 73
    40
 74
     0
 42
0.0000000001
 43
0.0000000001
 40
0.0
 40
0.0
 40
0.0
 40
0.0
 40
0.0769230769230769
 40
0.0769230769230769
 40
0.0769230769230769
 40
0.1538461538461539
 40
0.1538461538461539
 40
0.1538461538461539
 40
0.2307692307692308
 40
0.2307692307692308
 40
0.2307692307692308
 40
0.3076923076923077
 40
0.3076923076923077
 40
0.3076923076923077
 40
0.3846153846153846
 40
0.3846153846153846
 40
0.3846153846153846
 40
0.4615384615384616
 40
0.4615384615384616
 40
0.4615384615384616
 40
0.5384615384615385
 40
0.5384615384615385
 40
0.5384615384615385
 40
0.6153846153846154
 40
0.6153846153846154
 40
0.6153846153846154
 40
0.6923076923076923
 40
0.6923076923076923
 40
0.6923076923076923
 40
0.7692307692307693
 40
0.7692307692307693
 40
0.7692307692307693
 40
0.8461538461538463
 40
0.8461538461538463
 40
0.8461538461538463
 40
0.9230769230769231
 40
0.9230769230769231
 40
0.9230769230769231
 40
1.0
 40
1.0
 40
1.0
 40
1.0
 10
627.3112
 20
267.9009
 30
0.0
 10
627.3112
 20
267.9009
 30
0.0
 10
627.5971
 20
268.2083
 30
0.0
 10
627.5971
 20
268.2083
 30
0.0
 10
637.9475
 20
269.8069
 30
0.0
 10
681.463
 20
279.6732
 30
0.0
 10
712.162
 20
334.8595
 30
0.0
 10
712.162
 20
334.8595
 30
0.0
 10
836.4804
 20
334.8595
 30
0.0
 10
836.4804
 20
334.8595
 30
0.0
 10
833.3238
 20
324.6475
 30
0.0
 10
818.633
 20
288.2196
 30
0.0
 10
760.7137
 20
244.0542
 30
0.0
 10
760.7137
 20
244.0542
 30
0.0
 10
731.4062
 20
212.4537
 30
0.0
 10
723.0334
 20
157.1198
 30
0.0
 10
723.0361
 20
157.1184
 30
0.0
 10
722.8127
 20
157.046
 30
0.0
 10
722.4056
 20
156.9135
 30
0.0
 10
722.3793
 20
156.9067
 30
0.0
 10
722.3611
 20
156.8998
 30
0.0
 10
722.3337
 20
156.8916
 30
0.0
 10
697.0038
 20
150.5149
 30
0.0
 10
640.6771
 20
122.8261
 30
0.0
 10
634.0549
 20
110.4881
 30
0.0
 10
613.4857
 20
72.6653
 30
0.0
 10
580.856
 20
51.6688
 30
0.0
 10
562.6939
 20
43.8423
 30
0.0
 10
562.6939
 20
43.8423
 30
0.0
 10
562.6939
 20
178.0343
 30
0.0
 10
562.6939
 20
178.0343
 30
0.0
 10
613.4792
 20
209.0555
 30
0.0
 10
624.3688
 20
255.6408
 30
0.0
 10
626.3008
 20
266.8105
 30
0.0
 10
626.3008
 20
266.8105
 30
0.0
 10
626.9587
 20
267.5211
 30
0.0
 10
626.9587
 20
267.5211
 30
0.0
 10
626.9587
 20
267.5211
 30
0.0
 10
627.3112
 20
267.9009
 30
0.0
 10
627.3112
 20
267.9009
 30
0.0
  0
SPLINE
  5
8E
330
1F
100
AcDbEntity
  8
Layer 1
 62
   250
370
    20
100
AcDbSpline
210
0.0
220
0.0
230
1.0
 70
    11
 71
     3
 72
    44
 73
    40
 74
     0
 42
0.0000000001
 43
0.0000000001
 40
0.0
 40
0.0
 40
0.0
 40
0.0
 40
0.0769230769230769
 40
0.0769230769230769
 40
0.0769230769230769
 40
0.1538461538461539
 40
0.1538461538461539
 40
0.1538461538461539
 40
0.2307692307692308
 40
0.2307692307692308
 40
0.2307692307692308
 40
0.3076923076923077
 40
0.3076923076923077
 40
0.3076923076923077
 40
0.3846153846153846
 40
0.3846153846153846
 40
0.3846153846153846
 40
0.4615384615384616
 40
0.4615384615384616
 40
0.4615384615384616
 40
0.5384615384615385
 40
0.5384615384615385
 40
0.5384615384615385
 40
0.6153846153846154
 40
0.6153846153846154
 40
0.6153846153846154
 40
0.6923076923076923
 40
0.6923076923076923
 40
0.6923076923076923
 40
0.7692307692307693
 40
0.7692307692307693
 40
0.7692307692307693
 40
0.8461538461538463
 40
0.8461538461538463
 40
0.8461538461538463
 40
0.9230769230769231
 40
0.9230769230769231
 40
0.9230769230769231
 40
1.0
 40
1.0
 40
1.0
 40
1.0
 10
-75.6547
 20
267.9009
 30
0.0
 10
-75.6547
 20
267.9009
 30
0.0
 10
-75.3688
 20
268.2083
 30
0.0
 10
-75.3688
 20
268.2083
 30
0.0
 10
-65.0196
 20
269.8069
 30
0.0
 10
-21.5042
 20
279.6732
 30
0.0
 10
9.1962
 20
334.8595
 30
0.0
 10
9.1962
 20
334.8595
 30
0.0
 10
133.5144
 20
334.8595
 30
0.0
 10
133.5144
 20
334.8595
 30
0.0
 10
130.3554
 20
324.6475
 30
0.0
 10
115.667
 20
288.2196
 30
0.0
 10
57.7453
 20
244.0542
 30
0.0
 10
57.7453
 20
244.0542
 30
0.0
 10
28.439
 20
212.4537
 30
0.0
 10
20.0663
 20
157.1198
 30
0.0
 10
20.0688
 20
157.1184
 30
0.0
 10
19.8456
 20
157.046
 30
0.0
 10
19.4383
 20
156.9135
 30
0.0
 10
19.4109
 20
156.9067
 30
0.0
 10
19.3927
 20
156.8998
 30
0.0
 10
19.3653
 20
156.8916
 30
0.0
 10
-5.9634
 20
150.5149
 30
0.0
 10
-62.2887
 20
122.8261
 30
0.0
 10
-68.9136
 20
110.4881
 30
0.0
 10
-89.4814
 20
72.6653
 30
0.0
 10
-122.1098
 20
51.6688
 30
0.0
 10
-140.2732
 20
43.8423
 30
0.0
 10
-140.2732
 20
43.8423
 30
0.0
 10
-140.2732
 20
178.0343
 30
0.0
 10
-140.2732
 20
178.0343
 30
0.0
 10
-89.4866
 20
209.0555
 30
0.0
 10
-78.5983
 20
255.6408
 30
0.0
 10
-76.665
 20
266.8105
 30
0.0
 10
-76.665
 20
266.8105
 30
0.0
 10
-76.0084
 20
267.5211
 30
0.0
 10
-76.0084
 20
267.5211
 30
0.0
 10
-76.0084
 20
267.5211
 30
0.0
 10
-75.6547
 20
267.9009
 30
0.0
 10
-75.6547
 20
267.9009
 30
0.0
  0
SPLINE
  5
8F
330
1F
100
AcDbEntity
  8
Layer 1
 62
   250
370
    20
100
AcDbSpline
210
0.0
220
0.0
230
1.0
 70
    11
 71
     3
 72
    35
 73
    31
 74
     0
 42
0.0000000001
 43
0.0000000001
 40
0.0
 40
0.0
 40
0.0
 40
0.0
 40
0.1
 40
0.1
 40
0.1
 40
0.2
 40
0.2
 40
0.2
 40
0.3
 40
0.3
 40
0.3
 40
0.4
 40
0.4
 40
0.4
 40
0.5
 40
0.5
 40
0.5
 40
0.6000000000000001
 40
0.6000000000000001
 40
0.6000000000000001
 40
0.7000000000000001
 40
0.7000000000000001
 40
0.7000000000000001
 40
0.8
 40
0.8
 40
0.8
 40
0.9
 40
0.9
 40
0.9
 40
1.0
 40
1.0
 40
1.0
 40
1.0
 10
-79.2106
 20
-0.2315
 30
0.0
 10
-55.4223
 20
-14.9305
 30
0.0
 10
-5.735
 20
-99.5531
 30
0.0
 10
41.2215
 20
-85.1068
 30
0.0
 10
42.053
 20
-84.8514
 30
0.0
 10
42.869
 20
-84.6793
 30
0.0
 10
43.5503
 20
-84.0712
 30
0.0
 10
48.9234
 20
-79.2754
 30
0.0
 10
57.2192
 20
-51.0031
 30
0.0
 10
22.0347
 20
-50.6015
 30
0.0
 10
-10.4656
 20
-51.2204
 30
0.0
 10
22.5857
 20
-7.5496
 30
0.0
 10
31.1686
 20
-0.2534
 30
0.0
 10
31.1595
 20
-0.2465
 30
0.0
 10
31.1517
 20
-0.2397
 30
0.0
 10
31.1439
 20
-0.2315
 30
0.0
 10
31.1517
 20
-0.2247
 30
0.0
 10
31.1595
 20
-0.2165
 30
0.0
 10
31.1686
 20
-0.2083
 30
0.0
 10
22.5857
 20
7.088
 30
0.0
 10
-10.4656
 20
50.7588
 30
0.0
 10
22.0347
 20
50.1398
 30
0.0
 10
57.2192
 20
50.5401
 30
0.0
 10
48.9234
 20
78.8123
 30
0.0
 10
43.5503
 20
83.6082
 30
0.0
 10
42.869
 20
84.2162
 30
0.0
 10
42.053
 20
84.3883
 30
0.0
 10
41.2215
 20
84.6439
 30
0.0
 10
-5.735
 20
99.0902
 30
0.0
 10
-55.4223
 20
14.4676
 30
0.0
 10
-79.2106
 20
-0.2315
 30
0.0
  0
SPLINE
  5
90
330
1F
100
AcDbEntity
  8
Layer 1
 62
   250
370
    20
100
AcDbSpline
210
0.0
220
0.0
230
1.0
 70
    11
 71
     3
 72
    35
 73
    31
 74
     0
 42
0.0000000001
 43
0.0000000001
 40
0.0
 40
0.0
 40
0.0
 40
0.0
 40
0.1
 40
0.1
 40
0.1
 40
0.2
 40
0.2
 40
0.2
 40
0.3
 40
0.3
 40
0.3
 40
0.4
 40
0.4
 40
0.4
 40
0.5
 40
0.5
 40
0.5
 40
0.6000000000000001
 40
0.6000000000000001
 40
0.6000000000000001
 40
0.7000000000000001
 40
0.7000000000000001
 40
0.7000000000000001
 40
0.8
 40
0.8
 40
0.8
 40
0.9
 40
0.9
 40
0.9
 40
1.0
 40
1.0
 40
1.0
 40
1.0
 10
435.9216
 20
-0.2315
 30
0.0
 10
412.1359
 20
-14.9305
 30
0.0
 10
362.4473
 20
-99.5531
 30
0.0
 10
315.4922
 20
-85.1068
 30
0.0
 10
314.6606
 20
-84.8514
 30
0.0
 10
313.842
 20
-84.6793
 30
0.0
 10
313.162
 20
-84.0712
 30
0.0
 10
307.7903
 20
-79.2754
 30
0.0
 10
299.4931
 20
-51.0031
 30
0.0
 10
334.6789
 20
-50.6015
 30
0.0
 10
367.1767
 20
-51.2204
 30
0.0
 10
334.1253
 20
-7.5496
 30
0.0
 10
325.5437
 20
-0.2534
 30
0.0
 10
325.5516
 20
-0.2465
 30
0.0
 10
325.5593
 20
-0.2397
 30
0.0
 10
325.5672
 20
-0.2315
 30
0.0
 10
325.5593
 20
-0.2247
 30
0.0
 10
325.5516
 20
-0.2165
 30
0.0
 10
325.5437
 20
-0.2083
 30
0.0
 10
334.1253
 20
7.088
 30
0.0
 10
367.1767
 20
50.7588
 30
0.0
 10
334.6789
 20
50.1398
 30
0.0
 10
299.4931
 20
50.5401
 30
0.0
 10
307.7903
 20
78.8123
 30
0.0
 10
313.162
 20
83.6082
 30
0.0
 10
313.842
 20
84.2162
 30
0.0
 10
314.6606
 20
84.3883
 30
0.0
 10
315.4922
 20
84.6439
 30
0.0
 10
362.4473
 20
99.0902
 30
0.0
 10
412.1359
 20
14.4676
 30
0.0
 10
435.9216
 20
-0.2315
 30
0.0
  0
SPLINE
  5
91
330
1F
100
AcDbEntity
  8
Layer 1
 62
   250
370
    20
100
AcDbSpline
210
0.0
220
0.0
230
1.0
 70
    11
 71
     3
 72
    35
 73
    31
 74
     0
 42
0.0000000001
 43
0.0000000001
 40
0.0
 40
0.0
 40
0.0
 40
0.0
 40
0.1
 40
0.1
 40
0.1
 40
0.2
 40
0.2
 40
0.2
 40
0.3
 40
0.3
 40
0.3
 40
0.4
 40
0.4
 40
0.4
 40
0.5
 40
0.5
 40
0.5
 40
0.6000000000000001
 40
0.6000000000000001
 40
0.6000000000000001
 40
0.7000000000000001
 40
0.7000000000000001
 40
0.7000000000000001
 40
0.8
 40
0.8
 40
0.8
 40
0.9
 40
0.9
 40
0.9
 40
1.0
 40
1.0
 40
1.0
 40
1.0
 10
178.3561
 20
268.0348
 30
0.0
 10
164.2435
 20
243.2604
 30
0.0
 10
82.9968
 20
191.5077
 30
0.0
 10
96.8654
 20
142.6011
 30
0.0
 10
97.1109
 20
141.7348
 30
0.0
 10
97.278
 20
140.8836
 30
0.0
 10
97.8601
 20
140.1745
 30
0.0
 10
102.4656
 20
134.5794
 30
0.0
 10
129.6088
 20
125.94
 30
0.0
 10
129.9938
 20
162.5851
 30
0.0
 10
129.3999
 20
196.4347
 30
0.0
 10
171.328
 20
162.0099
 30
0.0
 10
178.3353
 20
153.0714
 30
0.0
 10
178.3418
 20
153.0809
 30
0.0
 10
178.3484
 20
153.089
 30
0.0
 10
178.3561
 20
153.0959
 30
0.0
 10
178.3626
 20
153.089
 30
0.0
 10
178.3692
 20
153.0809
 30
0.0
 10
178.3771
 20
153.0714
 30
0.0
 10
185.3844
 20
162.0099
 30
0.0
 10
227.3125
 20
196.4347
 30
0.0
 10
226.7172
 20
162.5851
 30
0.0
 10
227.1023
 20
125.94
 30
0.0
 10
254.2481
 20
134.5794
 30
0.0
 10
258.8522
 20
140.1745
 30
0.0
 10
259.4357
 20
140.8836
 30
0.0
 10
259.6001
 20
141.7348
 30
0.0
 10
259.8469
 20
142.6011
 30
0.0
 10
273.7167
 20
191.5077
 30
0.0
 10
192.4689
 20
243.2604
 30
0.0
 10
178.3561
 20
268.0348
 30
0.0
  0
SPLINE
  5
92
330
1F
100
AcDbEntity
  8
Layer 1
 62
   250
370
    20
100
AcDbSpline
210
0.0
220
0.0
230
1.0
 70
    11
 71
     3
 72
    35
 73
    31
 74
     0
 42
0.0000000001
 43
0.0000000001
 40
0.0
 40
0.0
 40
0.0
 40
0.0
 40
0.1
 40
0.1
 40
0.1
 40
0.2
 40
0.2
 40
0.2
 40
0.3
 40
0.3
 40
0.3
 40
0.4
 40
0.4
 40
0.4
 40
0.5
 40
0.5
 40
0.5
 40
0.6000000000000001
 40
0.6000000000000001
 40
0.6000000000000001
 40
0.7000000000000001
 40
0.7000000000000001
 40
0.7000000000000001
 40
0.8
 40
0.8
 40
0.8
 40
0.9
 40
0.9
 40
0.9
 40
1.0
 40
1.0
 40
1.0
 40
1.0
 10
178.3561
 20
-268.4978
 30
0.0
 10
164.2435
 20
-243.7234
 30
0.0
 10
82.9968
 20
-191.9693
 30
0.0
 10
96.8654
 20
-143.0641
 30
0.0
 10
97.1109
 20
-142.1978
 30
0.0
 10
97.278
 20
-141.3452
 30
0.0
 10
97.8601
 20
-140.6375
 30
0.0
 10
102.4656
 20
-135.0423
 30
0.0
 10
129.6088
 20
-126.4016
 30
0.0
 10
129.9938
 20
-163.0467
 30
0.0
 10
129.3999
 20
-196.8963
 30
0.0
 10
171.328
 20
-162.4728
 30
0.0
 10
178.3353
 20
-153.5343
 30
0.0
 10
178.3418
 20
-153.5425
 30
0.0
 10
178.3484
 20
-153.5507
 30
0.0
 10
178.3561
 20
-153.5589
 30
0.0
 10
178.3626
 20
-153.5507
 30
0.0
 10
178.3692
 20
-153.5425
 30
0.0
 10
178.3771
 20
-153.5343
 30
0.0
 10
185.3844
 20
-162.4728
 30
0.0
 10
227.3125
 20
-196.8963
 30
0.0
 10
226.7172
 20
-163.0467
 30
0.0
 10
227.1023
 20
-126.4016
 30
0.0
 10
254.2481
 20
-135.0423
 30
0.0
 10
258.8522
 20
-140.6375
 30
0.0
 10
259.4357
 20
-141.3452
 30
0.0
 10
259.6001
 20
-142.1978
 30
0.0
 10
259.8469
 20
-143.0641
 30
0.0
 10
273.7167
 20
-191.9693
 30
0.0
 10
192.4689
 20
-243.7234
 30
0.0
 10
178.3561
 20
-268.4978
 30
0.0
  0
SPLINE
  5
93
330
1F
100
AcDbEntity
  8
Layer 1
 62
   250
370
    20
100
AcDbSpline
210
0.0
220
0.0
230
1.0
 70
    11
 71
     3
 72
    53
 73
    49
 74
     0
 42
0.0000000001
 43
0.0000000001
 40
0.0
 40
0.0
 40
0.0
 40
0.0
 40
0.0625
 40
0.0625
 40
0.0625
 40
0.125
 40
0.125
 40
0.125
 40
0.1875
 40
0.1875
 40
0.1875
 40
0.25
 40
0.25
 40
0.25
 40
0.3125
 40
0.3125
 40
0.3125
 40
0.375
 40
0.375
 40
0.375
 40
0.4375
 40
0.4375
 40
0.4375
 40
0.5
 40
0.5
 40
0.5
 40
0.5625
 40
0.5625
 40
0.5625
 40
0.625
 40
0.625
 40
0.625
 40
0.6875
 40
0.6875
 40
0.6875
 40
0.75
 40
0.75
 40
0.75
 40
0.8125
 40
0.8125
 40
0.8125
 40
0.875
 40
0.875
 40
0.875
 40
0.9375
 40
0.9375
 40
0.9375
 40
1.0
 40
1.0
 40
1.0
 40
1.0
 10
178.3549
 20
99.9196
 30
0.0
 10
188.4025
 20
80.4547
 30
0.0
 10
208.1532
 20
67.1685
 30
0.0
 10
230.7862
 20
67.1685
 30
0.0
 10
235.5862
 20
67.1685
 30
0.0
 10
240.2517
 20
67.7723
 30
0.0
 10
244.7265
 20
68.8983
 30
0.0
 10
243.6457
 20
64.2377
 30
0.0
 10
243.0687
 20
59.3749
 30
0.0
 10
243.0687
 20
54.3769
 30
0.0
 10
243.0687
 20
30.8021
 30
0.0
 10
255.8237
 20
10.236
 30
0.0
 10
274.5092
 20
-0.2301
 30
0.0
 10
255.8237
 20
-10.6949
 30
0.0
 10
243.0687
 20
-31.2651
 30
0.0
 10
243.0687
 20
-54.8384
 30
0.0
 10
243.0687
 20
-59.8365
 30
0.0
 10
243.6457
 20
-64.7034
 30
0.0
 10
244.7265
 20
-69.3626
 30
0.0
 10
240.2517
 20
-68.2354
 30
0.0
 10
235.5862
 20
-67.6328
 30
0.0
 10
230.7862
 20
-67.6328
 30
0.0
 10
208.1532
 20
-67.6328
 30
0.0
 10
188.4039
 20
-80.9177
 30
0.0
 10
178.3549
 20
-100.3811
 30
0.0
 10
168.3072
 20
-80.9177
 30
0.0
 10
148.5604
 20
-67.6328
 30
0.0
 10
125.9275
 20
-67.6328
 30
0.0
 10
121.1275
 20
-67.6328
 30
0.0
 10
116.4607
 20
-68.2327
 30
0.0
 10
111.9858
 20
-69.3585
 30
0.0
 10
113.0679
 20
-64.6979
 30
0.0
 10
113.6437
 20
-59.8365
 30
0.0
 10
113.6437
 20
-54.8371
 30
0.0
 10
113.6437
 20
-31.2651
 30
0.0
 10
100.8912
 20
-10.6949
 30
0.0
 10
82.2057
 20
-0.2301
 30
0.0
 10
100.8926
 20
10.236
 30
0.0
 10
113.6437
 20
30.8021
 30
0.0
 10
113.645
 20
54.3769
 30
0.0
 10
113.645
 20
59.3749
 30
0.0
 10
113.0693
 20
64.2377
 30
0.0
 10
111.9872
 20
68.8983
 30
0.0
 10
116.462
 20
67.7738
 30
0.0
 10
121.1288
 20
67.1699
 30
0.0
 10
125.9275
 20
67.1699
 30
0.0
 10
148.5617
 20
67.1699
 30
0.0
 10
168.3072
 20
80.4547
 30
0.0
 10
178.3549
 20
99.9196
 30
0.0
  0
SPLINE
  5
94
330
1F
100
AcDbEntity
  8
Layer 1
 62
   250
370
    20
100
AcDbSpline
210
0.0
220
0.0
230
1.0
 70
    11
 71
     3
 72
    44
 73
    40
 74
     0
 42
0.0000000001
 43
0.0000000001
 40
0.0
 40
0.0
 40
0.0
 40
0.0
 40
0.0769230769230769
 40
0.0769230769230769
 40
0.0769230769230769
 40
0.1538461538461539
 40
0.1538461538461539
 40
0.1538461538461539
 40
0.2307692307692308
 40
0.2307692307692308
 40
0.2307692307692308
 40
0.3076923076923077
 40
0.3076923076923077
 40
0.3076923076923077
 40
0.3846153846153846
 40
0.3846153846153846
 40
0.3846153846153846
 40
0.4615384615384616
 40
0.4615384615384616
 40
0.4615384615384616
 40
0.5384615384615385
 40
0.5384615384615385
 40
0.5384615384615385
 40
0.6153846153846154
 40
0.6153846153846154
 40
0.6153846153846154
 40
0.6923076923076923
 40
0.6923076923076923
 40
0.6923076923076923
 40
0.7692307692307693
 40
0.7692307692307693
 40
0.7692307692307693
 40
0.8461538461538463
 40
0.8461538461538463
 40
0.8461538461538463
 40
0.9230769230769231
 40
0.9230769230769231
 40
0.9230769230769231
 40
1.0
 40
1.0
 40
1.0
 40
1.0
 10
1135.3342
 20
267.9009
 30
0.0
 10
1135.3342
 20
267.9009
 30
0.0
 10
1135.0469
 20
268.2083
 30
0.0
 10
1135.0469
 20
268.2083
 30
0.0
 10
1124.6991
 20
269.8069
 30
0.0
 10
1081.181
 20
279.6732
 30
0.0
 10
1050.482
 20
334.8595
 30
0.0
 10
1050.482
 20
334.8595
 30
0.0
 10
926.1651
 20
334.8595
 30
0.0
 10
926.1651
 20
334.8595
 30
0.0
 10
929.3215
 20
324.6475
 30
0.0
 10
944.0125
 20
288.2196
 30
0.0
 10
1001.9316
 20
244.0542
 30
0.0
 10
1001.9316
 20
244.0542
 30
0.0
 10
1031.2378
 20
212.4537
 30
0.0
 10
1039.612
 20
157.1198
 30
0.0
 10
1039.6094
 20
157.1184
 30
0.0
 10
1039.8326
 20
157.046
 30
0.0
 10
1040.2399
 20
156.9135
 30
0.0
 10
1040.2659
 20
156.9067
 30
0.0
 10
1040.2843
 20
156.8998
 30
0.0
 10
1040.3117
 20
156.8916
 30
0.0
 10
1065.6403
 20
150.5149
 30
0.0
 10
1121.9682
 20
122.8261
 30
0.0
 10
1128.5891
 20
110.4881
 30
0.0
 10
1149.1584
 20
72.6666
 30
0.0
 10
1181.7881
 20
51.6701
 30
0.0
 10
1199.95
 20
43.8423
 30
0.0
 10
1199.95
 20
43.8423
 30
0.0
 10
1199.95
 20
178.0356
 30
0.0
 10
1199.95
 20
178.0356
 30
0.0
 10
1149.1648
 20
209.0555
 30
0.0
 10
1138.274
 20
255.6408
 30
0.0
 10
1136.3445
 20
266.8105
 30
0.0
 10
1136.3445
 20
266.8105
 30
0.0
 10
1135.6853
 20
267.5211
 30
0.0
 10
1135.6853
 20
267.5211
 30
0.0
 10
1135.6853
 20
267.5211
 30
0.0
 10
1135.3342
 20
267.9009
 30
0.0
 10
1135.3342
 20
267.9009
 30
0.0
  0
SPLINE
  5
95
330
1F
100
AcDbEntity
  8
Layer 1
 62
   250
370
    20
100
AcDbSpline
210
0.0
220
0.0
230
1.0
 70
    11
 71
     3
 72
    44
 73
    40
 74
     0
 42
0.0000000001
 43
0.0000000001
 40
0.0
 40
0.0
 40
0.0
 40
0.0
 40
0.0769230769230769
 40
0.0769230769230769
 40
0.0769230769230769
 40
0.1538461538461539
 40
0.1538461538461539
 40
0.1538461538461539
 40
0.2307692307692308
 40
0.2307692307692308
 40
0.2307692307692308
 40
0.3076923076923077
 40
0.3076923076923077
 40
0.3076923076923077
 40
0.3846153846153846
 40
0.3846153846153846
 40
0.3846153846153846
 40
0.4615384615384616
 40
0.4615384615384616
 40
0.4615384615384616
 40
0.5384615384615385
 40
0.5384615384615385
 40
0.5384615384615385
 40
0.6153846153846154
 40
0.6153846153846154
 40
0.6153846153846154
 40
0.6923076923076923
 40
0.6923076923076923
 40
0.6923076923076923
 40
0.7692307692307693
 40
0.7692307692307693
 40
0.7692307692307693
 40
0.8461538461538463
 40
0.8461538461538463
 40
0.8461538461538463
 40
0.9230769230769231
 40
0.9230769230769231
 40
0.9230769230769231
 40
1.0
 40
1.0
 40
1.0
 40
1.0
 10
1135.3342
 20
-268.3625
 30
0.0
 10
1135.3342
 20
-268.3625
 30
0.0
 10
1135.0469
 20
-268.6713
 30
0.0
 10
1135.0469
 20
-268.6713
 30
0.0
 10
1124.6991
 20
-270.2699
 30
0.0
 10
1081.181
 20
-280.1349
 30
0.0
 10
1050.482
 20
-335.3198
 30
0.0
 10
1050.482
 20
-335.3198
 30
0.0
 10
926.1664
 20
-335.3198
 30
0.0
 10
926.1664
 20
-335.3198
 30
0.0
 10
929.3241
 20
-325.1078
 30
0.0
 10
944.0138
 20
-288.6799
 30
0.0
 10
1001.9316
 20
-244.5159
 30
0.0
 10
1001.9316
 20
-244.5159
 30
0.0
 10
1031.2378
 20
-212.9152
 30
0.0
 10
1039.612
 20
-157.5827
 30
0.0
 10
1039.6094
 20
-157.58
 30
0.0
 10
1039.8326
 20
-157.5077
 30
0.0
 10
1040.2399
 20
-157.3764
 30
0.0
 10
1040.2659
 20
-157.3682
 30
0.0
 10
1040.2843
 20
-157.3615
 30
0.0
 10
1040.3117
 20
-157.3532
 30
0.0
 10
1065.6403
 20
-150.9766
 30
0.0
 10
1121.9682
 20
-123.2877
 30
0.0
 10
1128.5891
 20
-110.9498
 30
0.0
 10
1149.1584
 20
-73.1282
 30
0.0
 10
1181.7881
 20
-52.1317
 30
0.0
 10
1199.95
 20
-44.3054
 30
0.0
 10
1199.95
 20
-44.3054
 30
0.0
 10
1199.95
 20
-178.4973
 30
0.0
 10
1199.95
 20
-178.4973
 30
0.0
 10
1149.1648
 20
-209.5172
 30
0.0
 10
1138.274
 20
-256.1023
 30
0.0
 10
1136.3445
 20
-267.2736
 30
0.0
 10
1136.3445
 20
-267.2736
 30
0.0
 10
1135.6853
 20
-267.9826
 30
0.0
 10
1135.6853
 20
-267.9826
 30
0.0
 10
1135.6853
 20
-267.9826
 30
0.0
 10
1135.3342
 20
-268.3625
 30
0.0
 10
1135.3342
 20
-268.3625
 30
0.0
  0
SPLINE
  5
96
330
1F
100
AcDbEntity
  8
Layer 1
 62
   250
370
    20
100
AcDbSpline
210
0.0
220
0.0
230
1.0
 70
    11
 71
     3
 72
    35
 73
    31
 74
     0
 42
0.0000000001
 43
0.0000000001
 40
0.0
 40
0.0
 40
0.0
 40
0.0
 40
0.1
 40
0.1
 40
0.1
 40
0.2
 40
0.2
 40
0.2
 40
0.3
 40
0.3
 40
0.3
 40
0.4
 40
0.4
 40
0.4
 40
0.5
 40
0.5
 40
0.5
 40
0.6000000000000001
 40
0.6000000000000001
 40
0.6000000000000001
 40
0.7000000000000001
 40
0.7000000000000001
 40
0.7000000000000001
 40
0.8
 40
0.8
 40
0.8
 40
0.9
 40
0.9
 40
0.9
 40
1.0
 40
1.0
 40
1.0
 40
1.0
 10
623.7565
 20
-0.2315
 30
0.0
 10
647.5449
 20
-14.9305
 30
0.0
 10
697.2323
 20
-99.5531
 30
0.0
 10
744.1873
 20
-85.1068
 30
0.0
 10
745.0188
 20
-84.8514
 30
0.0
 10
745.8361
 20
-84.6793
 30
0.0
 10
746.5174
 20
-84.0712
 30
0.0
 10
751.8905
 20
-79.2754
 30
0.0
 10
760.185
 20
-51.0031
 30
0.0
 10
725.002
 20
-50.6015
 30
0.0
 10
692.5015
 20
-51.2204
 30
0.0
 10
725.5528
 20
-7.5496
 30
0.0
 10
734.1345
 20
-0.2534
 30
0.0
 10
734.1254
 20
-0.2465
 30
0.0
 10
734.1176
 20
-0.2397
 30
0.0
 10
734.111
 20
-0.2315
 30
0.0
 10
734.1176
 20
-0.2247
 30
0.0
 10
734.1254
 20
-0.2165
 30
0.0
 10
734.1345
 20
-0.2083
 30
0.0
 10
725.5528
 20
7.088
 30
0.0
 10
692.5015
 20
50.7588
 30
0.0
 10
725.002
 20
50.1398
 30
0.0
 10
760.185
 20
50.5401
 30
0.0
 10
751.8905
 20
78.8123
 30
0.0
 10
746.5174
 20
83.6082
 30
0.0
 10
745.8361
 20
84.2162
 30
0.0
 10
745.0188
 20
84.3883
 30
0.0
 10
744.1873
 20
84.6439
 30
0.0
 10
697.2323
 20
99.0902
 30
0.0
 10
647.5449
 20
14.4676
 30
0.0
 10
623.7565
 20
-0.2315
 30
0.0
  0
SPLINE
  5
97
330
1F
100
AcDbEntity
  8
Layer 1
 62
   250
370
    20
100
AcDbSpline
210
0.0
220
0.0
230
1.0
 70
    11
 71
     3
 72
    35
 73
    31
 74
     0
 42
0.0000000001
 43
0.0000000001
 40
0.0
 40
0.0
 40
0.0
 40
0.0
 40
0.1
 40
0.1
 40
0.1
 40
0.2
 40
0.2
 40
0.2
 40
0.3
 40
0.3
 40
0.3
 40
0.4
 40
0.4
 40
0.4
 40
0.5
 40
0.5
 40
0.5
 40
0.6000000000000001
 40
0.6000000000000001
 40
0.6000000000000001
 40
0.7000000000000001
 40
0.7000000000000001
 40
0.7000000000000001
 40
0.8
 40
0.8
 40
0.8
 40
0.9
 40
0.9
 40
0.9
 40
1.0
 40
1.0
 40
1.0
 40
1.0
 10
1138.8888
 20
-0.2315
 30
0.0
 10
1115.103
 20
-14.9305
 30
0.0
 10
1065.4158
 20
-99.5531
 30
0.0
 10
1018.4593
 20
-85.1068
 30
0.0
 10
1017.6264
 20
-84.8514
 30
0.0
 10
1016.8093
 20
-84.6793
 30
0.0
 10
1016.1278
 20
-84.0712
 30
0.0
 10
1010.7574
 20
-79.2754
 30
0.0
 10
1002.4604
 20
-51.0031
 30
0.0
 10
1037.6461
 20
-50.6015
 30
0.0
 10
1070.1439
 20
-51.2204
 30
0.0
 10
1037.0925
 20
-7.5496
 30
0.0
 10
1028.5108
 20
-0.2534
 30
0.0
 10
1028.52
 20
-0.2465
 30
0.0
 10
1028.5279
 20
-0.2397
 30
0.0
 10
1028.5343
 20
-0.2315
 30
0.0
 10
1028.5279
 20
-0.2247
 30
0.0
 10
1028.52
 20
-0.2165
 30
0.0
 10
1028.5108
 20
-0.2083
 30
0.0
 10
1037.0925
 20
7.088
 30
0.0
 10
1070.1439
 20
50.7588
 30
0.0
 10
1037.6461
 20
50.1398
 30
0.0
 10
1002.4604
 20
50.5401
 30
0.0
 10
1010.7574
 20
78.8123
 30
0.0
 10
1016.1278
 20
83.6082
 30
0.0
 10
1016.8093
 20
84.2162
 30
0.0
 10
1017.6264
 20
84.3883
 30
0.0
 10
1018.4593
 20
84.6439
 30
0.0
 10
1065.4158
 20
99.0902
 30
0.0
 10
1115.103
 20
14.4676
 30
0.0
 10
1138.8888
 20
-0.2315
 30
0.0
  0
SPLINE
  5
98
330
1F
100
AcDbEntity
  8
Layer 1
 62
   250
370
    20
100
AcDbSpline
210
0.0
220
0.0
230
1.0
 70
    11
 71
     3
 72
    35
 73
    31
 74
     0
 42
0.0000000001
 43
0.0000000001
 40
0.0
 40
0.0
 40
0.0
 40
0.0
 40
0.1
 40
0.1
 40
0.1
 40
0.2
 40
0.2
 40
0.2
 40
0.3
 40
0.3
 40
0.3
 40
0.4
 40
0.4
 40
0.4
 40
0.5
 40
0.5
 40
0.5
 40
0.6000000000000001
 40
0.6000000000000001
 40
0.6000000000000001
 40
0.7000000000000001
 40
0.7000000000000001
 40
0.7000000000000001
 40
0.8
 40
0.8
 40
0.8
 40
0.9
 40
0.9
 40
0.9
 40
1.0
 40
1.0
 40
1.0
 40
1.0
 10
881.3234
 20
268.0348
 30
0.0
 10
867.2107
 20
243.2604
 30
0.0
 10
785.9627
 20
191.5077
 30
0.0
 10
799.8325
 20
142.6011
 30
0.0
 10
800.0767
 20
141.7348
 30
0.0
 10
800.2451
 20
140.8836
 30
0.0
 10
800.8259
 20
140.1745
 30
0.0
 10
805.4327
 20
134.5794
 30
0.0
 10
832.5759
 20
125.94
 30
0.0
 10
832.9609
 20
162.5851
 30
0.0
 10
832.367
 20
196.4347
 30
0.0
 10
874.2951
 20
162.0099
 30
0.0
 10
881.3011
 20
153.0714
 30
0.0
 10
881.3089
 20
153.0809
 30
0.0
 10
881.3168
 20
153.089
 30
0.0
 10
881.3234
 20
153.0959
 30
0.0
 10
881.3299
 20
153.089
 30
0.0
 10
881.3376
 20
153.0809
 30
0.0
 10
881.3442
 20
153.0714
 30
0.0
 10
888.3503
 20
162.0099
 30
0.0
 10
930.2809
 20
196.4347
 30
0.0
 10
929.6844
 20
162.5851
 30
0.0
 10
930.0695
 20
125.94
 30
0.0
 10
957.2139
 20
134.5794
 30
0.0
 10
961.8181
 20
140.1745
 30
0.0
 10
962.4016
 20
140.8836
 30
0.0
 10
962.5674
 20
141.7348
 30
0.0
 10
962.8127
 20
142.6011
 30
0.0
 10
976.684
 20
191.5077
 30
0.0
 10
895.436
 20
243.2604
 30
0.0
 10
881.3234
 20
268.0348
 30
0.0
  0
SPLINE
  5
99
330
1F
100
AcDbEntity
  8
Layer 1
 62
   250
370
    20
100
AcDbSpline
210
0.0
220
0.0
230
1.0
 70
    11
 71
     3
 72
    35
 73
    31
 74
     0
 42
0.0000000001
 43
0.0000000001
 40
0.0
 40
0.0
 40
0.0
 40
0.0
 40
0.1
 40
0.1
 40
0.1
 40
0.2
 40
0.2
 40
0.2
 40
0.3
 40
0.3
 40
0.3
 40
0.4
 40
0.4
 40
0.4
 40
0.5
 40
0.5
 40
0.5
 40
0.6000000000000001
 40
0.6000000000000001
 40
0.6000000000000001
 40
0.7000000000000001
 40
0.7000000000000001
 40
0.7000000000000001
 40
0.8
 40
0.8
 40
0.8
 40
0.9
 40
0.9
 40
0.9
 40
1.0
 40
1.0
 40
1.0
 40
1.0
 10
881.3234
 20
-268.4978
 30
0.0
 10
867.2107
 20
-243.7234
 30
0.0
 10
785.9627
 20
-191.9693
 30
0.0
 10
799.8325
 20
-143.0641
 30
0.0
 10
800.0767
 20
-142.1978
 30
0.0
 10
800.2451
 20
-141.3452
 30
0.0
 10
800.8259
 20
-140.6375
 30
0.0
 10
805.4327
 20
-135.0423
 30
0.0
 10
832.5759
 20
-126.4016
 30
0.0
 10
832.9609
 20
-163.0467
 30
0.0
 10
832.367
 20
-196.8963
 30
0.0
 10
874.2951
 20
-162.4728
 30
0.0
 10
881.3011
 20
-153.5343
 30
0.0
 10
881.3089
 20
-153.5425
 30
0.0
 10
881.3168
 20
-153.5507
 30
0.0
 10
881.3234
 20
-153.5589
 30
0.0
 10
881.3299
 20
-153.5507
 30
0.0
 10
881.3376
 20
-153.5425
 30
0.0
 10
881.3442
 20
-153.5343
 30
0.0
 10
888.3503
 20
-162.4728
 30
0.0
 10
930.2809
 20
-196.8963
 30
0.0
 10
929.6844
 20
-163.0467
 30
0.0
 10
930.0695
 20
-126.4016
 30
0.0
 10
957.2139
 20
-135.0423
 30
0.0
 10
961.8181
 20
-140.6375
 30
0.0
 10
962.4016
 20
-141.3452
 30
0.0
 10
962.5674
 20
-142.1978
 30
0.0
 10
962.8127
 20
-143.0641
 30
0.0
 10
976.684
 20
-191.9693
 30
0.0
 10
895.436
 20
-243.7234
 30
0.0
 10
881.3234
 20
-268.4978
 30
0.0
  0
SPLINE
  5
9A
330
1F
100
AcDbEntity
  8
Layer 1
 62
   250
370
    20
100
AcDbSpline
210
0.0
220
0.0
230
1.0
 70
    11
 71
     3
 72
    53
 73
    49
 74
     0
 42
0.0000000001
 43
0.0000000001
 40
0.0
 40
0.0
 40
0.0
 40
0.0
 40
0.0625
 40
0.0625
 40
0.0625
 40
0.125
 40
0.125
 40
0.125
 40
0.1875
 40
0.1875
 40
0.1875
 40
0.25
 40
0.25
 40
0.25
 40
0.3125
 40
0.3125
 40
0.3125
 40
0.375
 40
0.375
 40
0.375
 40
0.4375
 40
0.4375
 40
0.4375
 40
0.5
 40
0.5
 40
0.5
 40
0.5625
 40
0.5625
 40
0.5625
 40
0.625
 40
0.625
 40
0.625
 40
0.6875
 40
0.6875
 40
0.6875
 40
0.75
 40
0.75
 40
0.75
 40
0.8125
 40
0.8125
 40
0.8125
 40
0.875
 40
0.875
 40
0.875
 40
0.9375
 40
0.9375
 40
0.9375
 40
1.0
 40
1.0
 40
1.0
 40
1.0
 10
881.3221
 20
99.9196
 30
0.0
 10
891.3697
 20
80.4547
 30
0.0
 10
911.1191
 20
67.1685
 30
0.0
 10
933.7533
 20
67.1685
 30
0.0
 10
938.5533
 20
67.1685
 30
0.0
 10
943.2188
 20
67.7723
 30
0.0
 10
947.6936
 20
68.8983
 30
0.0
 10
946.6115
 20
64.2377
 30
0.0
 10
946.0358
 20
59.3749
 30
0.0
 10
946.0358
 20
54.3769
 30
0.0
 10
946.0358
 20
30.8021
 30
0.0
 10
958.7895
 20
10.236
 30
0.0
 10
977.4763
 20
-0.2301
 30
0.0
 10
958.7895
 20
-10.6949
 30
0.0
 10
946.0358
 20
-31.2651
 30
0.0
 10
946.0358
 20
-54.8384
 30
0.0
 10
946.0358
 20
-59.8365
 30
0.0
 10
946.6115
 20
-64.7034
 30
0.0
 10
947.6936
 20
-69.3626
 30
0.0
 10
943.2188
 20
-68.2354
 30
0.0
 10
938.5533
 20
-67.6328
 30
0.0
 10
933.7533
 20
-67.6328
 30
0.0
 10
911.1191
 20
-67.6328
 30
0.0
 10
891.371
 20
-80.9177
 30
0.0
 10
881.3221
 20
-100.3811
 30
0.0
 10
871.2744
 20
-80.9177
 30
0.0
 10
851.5277
 20
-67.6328
 30
0.0
 10
828.8946
 20
-67.6328
 30
0.0
 10
824.0948
 20
-67.6328
 30
0.0
 10
819.4266
 20
-68.2327
 30
0.0
 10
814.9517
 20
-69.3585
 30
0.0
 10
816.0352
 20
-64.6979
 30
0.0
 10
816.6108
 20
-59.8365
 30
0.0
 10
816.6108
 20
-54.8371
 30
0.0
 10
816.6108
 20
-31.2651
 30
0.0
 10
803.8571
 20
-10.6949
 30
0.0
 10
785.1704
 20
-0.2301
 30
0.0
 10
803.8584
 20
10.236
 30
0.0
 10
816.6108
 20
30.8021
 30
0.0
 10
816.6121
 20
54.3769
 30
0.0
 10
816.6121
 20
59.3749
 30
0.0
 10
816.0352
 20
64.2377
 30
0.0
 10
814.953
 20
68.8983
 30
0.0
 10
819.4279
 20
67.7738
 30
0.0
 10
824.0948
 20
67.1699
 30
0.0
 10
828.8946
 20
67.1699
 30
0.0
 10
851.529
 20
67.1699
 30
0.0
 10
871.2744
 20
80.4547
 30
0.0
 10
881.3221
 20
99.9196
 30
0.0
  0
SPLINE
  5
9B
330
1F
100
AcDbEntity
  8
Layer 1
 62
   250
370
    20
100
AcDbSpline
210
0.0
220
0.0
230
1.0
 70
    11
 71
     3
 72
    53
 73
    49
 74
     0
 42
0.0000000001
 43
0.0000000001
 40
0.0
 40
0.0
 40
0.0
 40
0.0
 40
0.0625
 40
0.0625
 40
0.0625
 40
0.125
 40
0.125
 40
0.125
 40
0.1875
 40
0.1875
 40
0.1875
 40
0.25
 40
0.25
 40
0.25
 40
0.3125
 40
0.3125
 40
0.3125
 40
0.375
 40
0.375
 40
0.375
 40
0.4375
 40
0.4375
 40
0.4375
 40
0.5
 40
0.5
 40
0.5
 40
0.5625
 40
0.5625
 40
0.5625
 40
0.625
 40
0.625
 40
0.625
 40
0.6875
 40
0.6875
 40
0.6875
 40
0.75
 40
0.75
 40
0.75
 40
0.8125
 40
0.8125
 40
0.8125
 40
0.875
 40
0.875
 40
0.875
 40
0.9375
 40
0.9375
 40
0.9375
 40
1.0
 40
1.0
 40
1.0
 40
1.0
 10
529.8384
 20
500.8529
 30
0.0
 10
497.5024
 20
500.8529
 30
0.0
 10
471.1268
 20
473.3813
 30
0.0
 10
471.1268
 20
439.6998
 30
0.0
 10
471.1268
 20
436.0039
 30
0.0
 10
471.4454
 20
432.3845
 30
0.0
 10
472.0551
 20
428.8661
 30
0.0
 10
468.6753
 20
429.4988
 30
0.0
 10
465.1978
 20
429.8294
 30
0.0
 10
461.651
 20
429.8294
 30
0.0
 10
429.3123
 20
429.8294
 30
0.0
 10
402.938
 20
402.3593
 30
0.0
 10
402.9367
 20
368.6804
 30
0.0
 10
402.938
 20
334.9976
 30
0.0
 10
429.3123
 20
307.5274
 30
0.0
 10
461.6497
 20
307.5274
 30
0.0
 10
465.1965
 20
307.5274
 30
0.0
 10
468.6753
 20
307.8593
 30
0.0
 10
472.0551
 20
308.4933
 30
0.0
 10
471.4467
 20
304.9751
 30
0.0
 10
471.1281
 20
301.3515
 30
0.0
 10
471.1281
 20
297.6569
 30
0.0
 10
471.1268
 20
263.9754
 30
0.0
 10
497.5024
 20
236.5052
 30
0.0
 10
529.8384
 20
236.5039
 30
0.0
 10
562.1758
 20
236.5052
 30
0.0
 10
588.5514
 20
263.9754
 30
0.0
 10
588.5514
 20
297.6556
 30
0.0
 10
588.5514
 20
301.3515
 30
0.0
 10
588.2328
 20
304.9751
 30
0.0
 10
587.6245
 20
308.4933
 30
0.0
 10
591.0028
 20
307.8593
 30
0.0
 10
594.4779
 20
307.5274
 30
0.0
 10
598.0285
 20
307.5274
 30
0.0
 10
630.3671
 20
307.5274
 30
0.0
 10
656.7414
 20
334.9976
 30
0.0
 10
656.7414
 20
368.6804
 30
0.0
 10
656.7414
 20
402.3593
 30
0.0
 10
630.3658
 20
429.8308
 30
0.0
 10
598.0298
 20
429.8308
 30
0.0
 10
594.4779
 20
429.8308
 30
0.0
 10
591.0028
 20
429.4988
 30
0.0
 10
587.6245
 20
428.8661
 30
0.0
 10
588.2328
 20
432.3845
 30
0.0
 10
588.5514
 20
436.0039
 30
0.0
 10
588.5514
 20
439.6985
 30
0.0
 10
588.5514
 20
473.3813
 30
0.0
 10
562.1758
 20
500.8529
 30
0.0
 10
529.8384
 20
500.8529
 30
0.0
  0
SPLINE
  5
9C
330
1F
100
AcDbEntity
  8
Layer 1
 62
   250
370
    20
100
AcDbSpline
210
0.0
220
0.0
230
1.0
 70
    11
 71
     3
 72
    53
 73
    49
 74
     0
 42
0.0000000001
 43
0.0000000001
 40
0.0
 40
0.0
 40
0.0
 40
0.0
 40
0.0625
 40
0.0625
 40
0.0625
 40
0.125
 40
0.125
 40
0.125
 40
0.1875
 40
0.1875
 40
0.1875
 40
0.25
 40
0.25
 40
0.25
 40
0.3125
 40
0.3125
 40
0.3125
 40
0.375
 40
0.375
 40
0.375
 40
0.4375
 40
0.4375
 40
0.4375
 40
0.5
 40
0.5
 40
0.5
 40
0.5625
 40
0.5625
 40
0.5625
 40
0.625
 40
0.625
 40
0.625
 40
0.6875
 40
0.6875
 40
0.6875
 40
0.75
 40
0.75
 40
0.75
 40
0.8125
 40
0.8125
 40
0.8125
 40
0.875
 40
0.875
 40
0.875
 40
0.9375
 40
0.9375
 40
0.9375
 40
1.0
 40
1.0
 40
1.0
 40
1.0
 10
529.8384
 20
-235.4817
 30
0.0
 10
497.5024
 20
-235.4817
 30
0.0
 10
471.1268
 20
-262.9518
 30
0.0
 10
471.1268
 20
-296.632
 30
0.0
 10
471.1268
 20
-300.3279
 30
0.0
 10
471.4454
 20
-303.9487
 30
0.0
 10
472.0551
 20
-307.4671
 30
0.0
 10
468.6753
 20
-306.8331
 30
0.0
 10
465.1978
 20
-306.5037
 30
0.0
 10
461.651
 20
-306.5037
 30
0.0
 10
429.3123
 20
-306.5024
 30
0.0
 10
402.938
 20
-333.9739
 30
0.0
 10
402.9367
 20
-367.6541
 30
0.0
 10
402.938
 20
-401.3342
 30
0.0
 10
429.3123
 20
-428.8044
 30
0.0
 10
461.6497
 20
-428.8044
 30
0.0
 10
465.1965
 20
-428.8044
 30
0.0
 10
468.6753
 20
-428.4738
 30
0.0
 10
472.0551
 20
-427.8412
 30
0.0
 10
471.4467
 20
-431.3581
 30
0.0
 10
471.1281
 20
-434.9789
 30
0.0
 10
471.1281
 20
-438.6763
 30
0.0
 10
471.1268
 20
-472.3578
 30
0.0
 10
497.5024
 20
-499.828
 30
0.0
 10
529.8384
 20
-499.828
 30
0.0
 10
562.1758
 20
-499.828
 30
0.0
 10
588.5514
 20
-472.3578
 30
0.0
 10
588.5514
 20
-438.6776
 30
0.0
 10
588.5514
 20
-434.9789
 30
0.0
 10
588.2328
 20
-431.3581
 30
0.0
 10
587.6245
 20
-427.8412
 30
0.0
 10
591.0028
 20
-428.4738
 30
0.0
 10
594.4779
 20
-428.8044
 30
0.0
 10
598.0285
 20
-428.8044
 30
0.0
 10
630.3671
 20
-428.8044
 30
0.0
 10
656.7414
 20
-401.3342
 30
0.0
 10
656.7414
 20
-367.6541
 30
0.0
 10
656.7414
 20
-333.9739
 30
0.0
 10
630.3658
 20
-306.5024
 30
0.0
 10
598.0298
 20
-306.5024
 30
0.0
 10
594.4779
 20
-306.5024
 30
0.0
 10
591.0028
 20
-306.8331
 30
0.0
 10
587.6245
 20
-307.4671
 30
0.0
 10
588.2328
 20
-303.9487
 30
0.0
 10
588.5514
 20
-300.3293
 30
0.0
 10
588.5514
 20
-296.6334
 30
0.0
 10
588.5514
 20
-262.9518
 30
0.0
 10
562.1758
 20
-235.4817
 30
0.0
 10
529.8384
 20
-235.4817
 30
0.0
  0
SPLINE
  5
9D
330
1F
100
AcDbEntity
  8
Layer 1
 62
   250
370
    20
100
AcDbSpline
210
0.0
220
0.0
230
1.0
 70
    11
 71
     3
 72
    32
 73
    28
 74
     0
 42
0.0000000001
 43
0.0000000001
 40
0.0
 40
0.0
 40
0.0
 40
0.0
 40
0.1111111111111111
 40
0.1111111111111111
 40
0.1111111111111111
 40
0.2222222222222222
 40
0.2222222222222222
 40
0.2222222222222222
 40
0.3333333333333333
 40
0.3333333333333333
 40
0.3333333333333333
 40
0.4444444444444444
 40
0.4444444444444444
 40
0.4444444444444444
 40
0.5555555555555556
 40
0.5555555555555556
 40
0.5555555555555556
 40
0.6666666666666666
 40
0.6666666666666666
 40
0.6666666666666666
 40
0.7777777777777777
 40
0.7777777777777777
 40
0.7777777777777777
 40
0.8888888888888888
 40
0.8888888888888888
 40
0.8888888888888888
 40
1.0
 40
1.0
 40
1.0
 40
1.0
 10
1198.8104
 20
246.6817
 30
0.0
 10
1198.8104
 20
246.6817
 30
0.0
 10
1198.8104
 20
490.6723
 30
0.0
 10
1198.8104
 20
490.6723
 30
0.0
 10
1182.9538
 20
479.7033
 30
0.0
 10
1172.465
 20
460.9382
 30
0.0
 10
1172.465
 20
439.6998
 30
0.0
 10
1172.465
 20
436.0039
 30
0.0
 10
1172.7834
 20
432.3845
 30
0.0
 10
1173.3918
 20
428.8661
 30
0.0
 10
1170.0133
 20
429.4988
 30
0.0
 10
1166.5384
 20
429.8294
 30
0.0
 10
1162.9877
 20
429.8294
 30
0.0
 10
1130.6503
 20
429.8294
 30
0.0
 10
1104.2762
 20
402.3593
 30
0.0
 10
1104.2762
 20
368.6804
 30
0.0
 10
1104.2762
 20
334.9976
 30
0.0
 10
1130.6503
 20
307.5274
 30
0.0
 10
1162.9877
 20
307.5274
 30
0.0
 10
1166.5371
 20
307.5274
 30
0.0
 10
1170.0146
 20
307.8593
 30
0.0
 10
1173.3931
 20
308.4933
 30
0.0
 10
1172.7847
 20
304.9751
 30
0.0
 10
1172.4676
 20
301.3515
 30
0.0
 10
1172.4676
 20
297.6569
 30
0.0
 10
1172.4663
 20
276.4187
 30
0.0
 10
1182.9551
 20
257.6521
 30
0.0
 10
1198.8104
 20
246.6817
 30
0.0
  0
SPLINE
  5
9E
330
1F
100
AcDbEntity
  8
Layer 1
 62
   250
370
    20
100
AcDbSpline
210
0.0
220
0.0
230
1.0
 70
    11
 71
     3
 72
    32
 73
    28
 74
     0
 42
0.0000000001
 43
0.0000000001
 40
0.0
 40
0.0
 40
0.0
 40
0.0
 40
0.1111111111111111
 40
0.1111111111111111
 40
0.1111111111111111
 40
0.2222222222222222
 40
0.2222222222222222
 40
0.2222222222222222
 40
0.3333333333333333
 40
0.3333333333333333
 40
0.3333333333333333
 40
0.4444444444444444
 40
0.4444444444444444
 40
0.4444444444444444
 40
0.5555555555555556
 40
0.5555555555555556
 40
0.5555555555555556
 40
0.6666666666666666
 40
0.6666666666666666
 40
0.6666666666666666
 40
0.7777777777777777
 40
0.7777777777777777
 40
0.7777777777777777
 40
0.8888888888888888
 40
0.8888888888888888
 40
0.8888888888888888
 40
1.0
 40
1.0
 40
1.0
 40
1.0
 10
1198.8104
 20
-489.6501
 30
0.0
 10
1198.8104
 20
-489.6501
 30
0.0
 10
1198.8104
 20
-245.6622
 30
0.0
 10
1198.8104
 20
-245.6622
 30
0.0
 10
1182.9538
 20
-256.6326
 30
0.0
 10
1172.465
 20
-275.395
 30
0.0
 10
1172.465
 20
-296.632
 30
0.0
 10
1172.465
 20
-300.3279
 30
0.0
 10
1172.7834
 20
-303.9487
 30
0.0
 10
1173.3918
 20
-307.4671
 30
0.0
 10
1170.0133
 20
-306.8331
 30
0.0
 10
1166.5384
 20
-306.5037
 30
0.0
 10
1162.9877
 20
-306.5037
 30
0.0
 10
1130.6503
 20
-306.5024
 30
0.0
 10
1104.2762
 20
-333.9739
 30
0.0
 10
1104.2762
 20
-367.6541
 30
0.0
 10
1104.2762
 20
-401.3342
 30
0.0
 10
1130.6503
 20
-428.8044
 30
0.0
 10
1162.9877
 20
-428.8044
 30
0.0
 10
1166.5371
 20
-428.8044
 30
0.0
 10
1170.0146
 20
-428.4738
 30
0.0
 10
1173.3931
 20
-427.8412
 30
0.0
 10
1172.7847
 20
-431.3581
 30
0.0
 10
1172.4676
 20
-434.9789
 30
0.0
 10
1172.4676
 20
-438.6763
 30
0.0
 10
1172.4663
 20
-459.9145
 30
0.0
 10
1182.9551
 20
-478.6811
 30
0.0
 10
1198.8104
 20
-489.6501
 30
0.0
  0
ENDSEC
  0
SECTION
  2
OBJECTS
  0
DICTIONARY
  5
C
330
0
100
AcDbDictionary
281
     1
  3
ACAD_DETAILVIEWSTYLE
350
A6
  3
ACAD_GROUP
350
D
  3
ACAD_LAYOUT
350
1A
  3
ACAD_MATERIAL
350
43
  3
ACAD_MLEADERSTYLE
350
5B
  3
ACAD_MLINESTYLE
350
17
  3
ACAD_PLOTSETTINGS
350
19
  3
ACAD_PLOTSTYLENAME
350
E
  3
ACAD_SCALELIST
350
47
  3
ACAD_SECTIONVIEWSTYLE
350
A7
  3
ACAD_TABLESTYLE
350
59
  3
ACAD_VISUALSTYLE
350
2A
  3
ACDB_RECOMPOSE_DATA
350
A3
  3
AcDbVariableDictionary
350
9F
  0
SUN
  5
5D
330
29
100
AcDbSun
 90
        1
290
     0
 63
     7
421
 16777215
 40
1.0
291
     1
 91
  2455826
 92
 54000000
292
     0
 70
     2
 71
   256
280
     1
  0
DICTIONARY
  5
A6
102
{ACAD_REACTORS
330
C
102
}
330
C
100
AcDbDictionary
281
     1
  0
DICTIONARY
  5
D
102
{ACAD_REACTORS
330
C
102
}
330
C
100
AcDbDictionary
281
     1
  0
DICTIONARY
  5
1A
102
{ACAD_REACTORS
330
C
102
}
330
C
100
AcDbDictionary
281
     1
  3
Layout1
350
1E
  3
Layout2
350
26
  3
Model
350
22
  0
DICTIONARY
  5
43
102
{ACAD_REACTORS
330
C
102
}
330
C
100
AcDbDictionary
281
     1
  3
ByBlock
350
45
  3
ByLayer
350
44
  3
Global
350
46
  0
DICTIONARY
  5
5B
102
{ACAD_REACTORS
330
C
102
}
330
C
100
AcDbDictionary
281
     1
  3
Standard
350
5C
  0
DICTIONARY
  5
17
102
{ACAD_REACTORS
330
C
102
}
330
C
100
AcDbDictionary
281
     1
  3
Standard
350
18
  0
DICTIONARY
  5
19
102
{ACAD_REACTORS
330
C
102
}
330
C
100
AcDbDictionary
281
     1
  0
ACDBDICTIONARYWDFLT
  5
E
102
{ACAD_REACTORS
330
C
102
}
330
C
100
AcDbDictionary
281
     1
  3
Normal
350
F
100
AcDbDictionaryWithDefault
340
F
  0
DICTIONARY
  5
47
102
{ACAD_REACTORS
330
C
102
}
330
C
100
AcDbDictionary
281
     1
  3
A0
350
48
  3
A1
350
49
  3
A2
350
4A
  3
A3
350
4B
  3
A4
350
4C
  3
A5
350
4D
  3
A6
350
4E
  3
A7
350
4F
  3
A8
350
50
  3
A9
350
51
  3
B1
350
52
  3
B2
350
53
  3
B3
350
54
  3
B4
350
55
  3
B5
350
56
  3
B6
350
57
  3
B7
350
58
  0
DICTIONARY
  5
A7
102
{ACAD_REACTORS
330
C
102
}
330
C
100
AcDbDictionary
281
     1
  0
DICTIONARY
  5
59
102
{ACAD_REACTORS
330
C
102
}
330
C
100
AcDbDictionary
281
     1
  3
Standard
350
5A
  0
DICTIONARY
  5
2A
102
{ACAD_REACTORS
330
C
102
}
330
C
100
AcDbDictionary
281
     1
  3
2dWireframe
350
2F
  3
Basic
350
32
  3
Brighten
350
36
  3
ColorChange
350
3A
  3
Conceptual
350
34
  3
Dim
350
35
  3
EdgeColorOff
350
3D
  3
Facepattern
350
39
  3
Flat
350
2B
  3
FlatWithEdges
350
2C
  3
Gouraud
350
2D
  3
GouraudWithEdges
350
2E
  3
Hidden
350
31
  3
JitterOff
350
3B
  3
Linepattern
350
38
  3
OverhangOff
350
3C
  3
Realistic
350
33
  3
Shaded
350
42
  3
Shaded with edges
350
41
  3
Shades of Gray
350
3E
  3
Sketchy
350
3F
  3
Thicken
350
37
  3
Wireframe
350
30
  3
X-Ray
350
40
  0
XRECORD
  5
A3
102
{ACAD_REACTORS
330
C
102
}
330
C
100
AcDbXrecord
280
     1
 90
        1
330
5A
  0
DICTIONARY
  5
9F
102
{ACAD_REACTORS
330
C
102
}
330
C
100
AcDbDictionary
281
     1
  3
CANNOSCALE
350
A0
  3
CMLEADERSTYLE
350
A5
  3
CTABLESTYLE
350
A4
  0
LAYOUT
  5
1E
102
{ACAD_REACTORS
330
1A
102
}
330
1A
100
AcDbPlotSettings
  1

  2
none_device
  4

  6

 40
0.0
 41
0.0
 42
0.0
 43
0.0
 44
0.0
 45
0.0
 46
0.0
 47
0.0
 48
0.0
 49
0.0
140
0.0
141
0.0
142
1.0
143
1.0
 70
   688
 72
     0
 73
     0
 74
     5
  7

 75
    16
 76
     0
 77
     2
 78
   300
147
1.0
148
0.0
149
0.0
100
AcDbLayout
  1
Layout1
 70
     1
 71
     1
 10
0.0
 20
0.0
 11
12.0
 21
9.0
 12
0.0
 22
0.0
 32
0.0
 14
1.000000000000000E+20
 24
1.000000000000000E+20
 34
1.000000000000000E+20
 15
-1.000000000000000E+20
 25
-1.000000000000000E+20
 35
-1.000000000000000E+20
146
0.0
 13
0.0
 23
0.0
 33
0.0
 16
1.0
 26
0.0
 36
0.0
 17
0.0
 27
1.0
 37
0.0
 76
     0
330
1B
  0
LAYOUT
  5
26
102
{ACAD_REACTORS
330
1A
102
}
330
1A
100
AcDbPlotSettings
  1

  2
none_device
  4

  6

 40
0.0
 41
0.0
 42
0.0
 43
0.0
 44
0.0
 45
0.0
 46
0.0
 47
0.0
 48
0.0
 49
0.0
140
0.0
141
0.0
142
1.0
143
1.0
 70
   688
 72
     0
 73
     0
 74
     5
  7

 75
    16
 76
     0
 77
     2
 78
   300
147
1.0
148
0.0
149
0.0
100
AcDbLayout
  1
Layout2
 70
     1
 71
     2
 10
0.0
 20
0.0
 11
0.0
 21
0.0
 12
0.0
 22
0.0
 32
0.0
 14
0.0
 24
0.0
 34
0.0
 15
0.0
 25
0.0
 35
0.0
146
0.0
 13
0.0
 23
0.0
 33
0.0
 16
1.0
 26
0.0
 36
0.0
 17
0.0
 27
1.0
 37
0.0
 76
     0
330
23
  0
LAYOUT
  5
22
102
{ACAD_REACTORS
330
1A
102
}
330
1A
100
AcDbPlotSettings
  1

  2
none_device
  4
Letter_(8.50_x_11.00_Inches)
  6

 40
6.35
 41
6.35
 42
6.35000508
 43
6.35000508
 44
215.9
 45
279.4
 46
0.0
 47
0.0
 48
0.0
 49
0.0
140
0.0
141
0.0
142
1.0
143
1.0
 70
  1712
 72
     0
 73
     0
 74
     0
  7

 75
     0
 76
     0
 77
     2
 78
   300
147
1.0
148
0.0
149
0.0
100
AcDbLayout
  1
Model
 70
     1
 71
     0
 10
0.0
 20
0.0
 11
12.0
 21
9.0
 12
0.0
 22
0.0
 32
0.0
 14
-1200.15
 24
-590.1266
 34
0.0
 15
1200.05
 25
590.0734
 35
0.0
146
0.0
 13
0.0
 23
0.0
 33
0.0
 16
1.0
 26
0.0
 36
0.0
 17
0.0
 27
1.0
 37
0.0
 76
     0
330
1F
331
29
  0
MATERIAL
  5
45
102
{ACAD_REACTORS
330
43
102
}
330
43
100
AcDbMaterial
  1
ByBlock
 72
     1
 94
      127
  0
MATERIAL
  5
44
102
{ACAD_REACTORS
330
43
102
}
330
43
100
AcDbMaterial
  1
ByLayer
 72
     1
 94
      127
  0
MATERIAL
  5
46
102
{ACAD_REACTORS
330
43
102
}
330
43
100
AcDbMaterial
  1
Global
 72
     1
 94
      127
  0
MLEADERSTYLE
  5
5C
102
{ACAD_REACTORS
330
5B
102
}
330
5B
100
AcDbMLeaderStyle
179
     2
170
     2
171
     1
172
     0
 90
        2
 40
0.0
 41
0.0
173
     1
 91
-1056964608
340
14
 92
       -2
290
     1
 42
0.09
291
     1
 43
0.36
  3
Standard
341
0
 44
0.18
300

342
11
174
     1
178
     6
175
     1
176
     0
 93
-1056964608
 45
0.18
292
     0
297
     0
 46
0.18
343
0
 94
-1056964608
 47
1.0
 49
1.0
140
1.0
293
     1
141
0.0
294
     1
177
     0
142
1.0
295
     0
296
     0
143
0.125
271
     0
272
     9
273
     9
298
     0
  0
MLINESTYLE
  5
18
102
{ACAD_REACTORS
330
17
102
}
330
17
100
AcDbMlineStyle
  2
Standard
 70
     0
  3

 62
   256
 51
90.0
 52
90.0
 71
     2
 49
0.5
 62
   256
  6
BYLAYER
 49
-0.5
 62
   256
  6
BYLAYER
  0
ACDBPLACEHOLDER
  5
F
102
{ACAD_REACTORS
330
E
102
}
330
E
  0
SCALE
  5
48
102
{ACAD_REACTORS
330
47
102
}
330
47
100
AcDbScale
 70
     0
300
1:1
140
1.0
141
1.0
290
     1
  0
SCALE
  5
49
102
{ACAD_REACTORS
330
47
102
}
330
47
100
AcDbScale
 70
     0
300
1/128" = 1'-0"
140
0.0078125
141
12.0
290
     0
  0
SCALE
  5
4A
102
{ACAD_REACTORS
330
47
102
}
330
47
100
AcDbScale
 70
     0
300
1/64" = 1'-0"
140
0.015625
141
12.0
290
     0
  0
SCALE
  5
4B
102
{ACAD_REACTORS
330
47
102
}
330
47
100
AcDbScale
 70
     0
300
1/32" = 1'-0"
140
0.03125
141
12.0
290
     0
  0
SCALE
  5
4C
102
{ACAD_REACTORS
330
47
102
}
330
47
100
AcDbScale
 70
     0
300
1/16" = 1'-0"
140
0.0625
141
12.0
290
     0
  0
SCALE
  5
4D
102
{ACAD_REACTORS
330
47
102
}
330
47
100
AcDbScale
 70
     0
300
3/32" = 1'-0"
140
0.09375
141
12.0
290
     0
  0
SCALE
  5
4E
102
{ACAD_REACTORS
330
47
102
}
330
47
100
AcDbScale
 70
     0
300
1/8" = 1'-0"
140
0.125
141
12.0
290
     0
  0
SCALE
  5
4F
102
{ACAD_REACTORS
330
47
102
}
330
47
100
AcDbScale
 70
     0
300
3/16" = 1'-0"
140
0.1875
141
12.0
290
     0
  0
SCALE
  5
50
102
{ACAD_REACTORS
330
47
102
}
330
47
100
AcDbScale
 70
     0
300
1/4" = 1'-0"
140
0.25
141
12.0
290
     0
  0
SCALE
  5
51
102
{ACAD_REACTORS
330
47
102
}
330
47
100
AcDbScale
 70
     0
300
3/8" = 1'-0"
140
0.375
141
12.0
290
     0
  0
SCALE
  5
52
102
{ACAD_REACTORS
330
47
102
}
330
47
100
AcDbScale
 70
     0
300
1/2" = 1'-0"
140
0.5
141
12.0
290
     0
  0
SCALE
  5
53
102
{ACAD_REACTORS
330
47
102
}
330
47
100
AcDbScale
 70
     0
300
3/4" = 1'-0"
140
0.75
141
12.0
290
     0
  0
SCALE
  5
54
102
{ACAD_REACTORS
330
47
102
}
330
47
100
AcDbScale
 70
     0
300
1" = 1'-0"
140
1.0
141
12.0
290
     0
  0
SCALE
  5
55
102
{ACAD_REACTORS
330
47
102
}
330
47
100
AcDbScale
 70
     0
300
1-1/2" = 1'-0"
140
1.5
141
12.0
290
     0
  0
SCALE
  5
56
102
{ACAD_REACTORS
330
47
102
}
330
47
100
AcDbScale
 70
     0
300
3" = 1'-0"
140
3.0
141
12.0
290
     0
  0
SCALE
  5
57
102
{ACAD_REACTORS
330
47
102
}
330
47
100
AcDbScale
 70
     0
300
6" = 1'-0"
140
6.0
141
12.0
290
     0
  0
SCALE
  5
58
102
{ACAD_REACTORS
330
47
102
}
330
47
100
AcDbScale
 70
     0
300
1'-0" = 1'-0"
140
12.0
141
12.0
290
     0
  0
TABLESTYLE
  5
5A
102
{ACAD_REACTORS
330
59
102
}
102
{ACAD_XDICTIONARY
360
A1
102
}
330
59
100
AcDbTableStyle
  3
Standard
 70
     0
 71
     0
 40
0.06
 41
0.06
280
     0
281
     0
  7
Standard
140
0.18
170
     2
 62
     0
 63
   257
283
     0
 90
        4
 91
        0
  1

274
    -2
284
     1
 64
     0
275
    -2
285
     1
 65
     0
276
    -2
286
     1
 66
     0
277
    -2
287
     1
 67
     0
278
    -2
288
     1
 68
     0
279
    -2
289
     1
 69
     0
  7
Standard
140
0.25
170
     5
 62
     0
 63
   257
283
     0
 90
        4
 91
        0
  1

274
    -2
284
     1
 64
     0
275
    -2
285
     1
 65
     0
276
    -2
286
     1
 66
     0
277
    -2
287
     1
 67
     0
278
    -2
288
     1
 68
     0
279
    -2
289
     1
 69
     0
  7
Standard
140
0.18
170
     5
 62
     0
 63
   257
283
     0
 90
        4
 91
        0
  1

274
    -2
284
     1
 64
     0
275
    -2
285
     1
 65
     0
276
    -2
286
     1
 66
     0
277
    -2
287
     1
 67
     0
278
    -2
288
     1
 68
     0
279
    -2
289
     1
 69
     0
  0
VISUALSTYLE
  5
2F
102
{ACAD_REACTORS
330
2A
102
}
330
2A
100
AcDbVisualStyle
  2
2dWireframe
 70
     4
177
     3
291
     0
 70
    58
 90
        0
176
     1
 90
        2
176
     1
 90
        0
176
     1
 90
        0
176
     1
 40
0.6
176
     1
 40
30.0
176
     1
 62
     7
420
 16777215
176
     1
 90
        1
176
     1
 90
        4
176
     1
 62
     7
176
     1
 62
   257
176
     1
 90
        1
176
     1
 90
        1
176
     1
 40
1.0
176
     1
 90
        0
176
     1
 62
   257
176
     1
 40
1.0
176
     1
 90
        1
176
     1
 90
        6
176
     1
 90
        2
176
     1
 62
     7
176
     1
 90
        5
176
     1
 90
        0
176
     1
 90
        0
176
     1
290
     0
176
     1
 90
        1
176
     1
 40
0.0
176
     1
 90
        0
176
     1
290
     1
176
     1
290
     1
176
     1
290
     0
176
     1
290
     0
176
     1
290
     0
176
     1
290
     0
176
     1
290
     0
176
     1
290
     0
176
     1
290
     0
176
     1
 90
       50
176
     1
 40
0.0
176
     1
 40
1.0
176
     1
 90
        0
176
     1
 62
    18
420
        0
176
     1
 90
       50
176
     1
 90
        3
176
     1
 62
     5
420
      255
176
     1
290
     0
176
     1
 90
       50
176
     1
 90
       50
176
     1
 90
       50
176
     1
290
     0
176
     1
 90
       50
176
     1
 62
   256
176
     0
 40
1.0
176
     0
 90
        2
176
     1
  1
strokes_ogs.tif
176
     1
290
     0
176
     1
 40
1.0
176
     1
 40
1.0
176
     1
  0
VISUALSTYLE
  5
32
102
{ACAD_REACTORS
330
2A
102
}
330
2A
100
AcDbVisualStyle
  2
Basic
 70
     7
177
     3
291
     1
 70
    58
 90
        1
176
     1
 90
        0
176
     1
 90
        1
176
     1
 90
        0
176
     1
 40
0.6
176
     1
 40
30.0
176
     1
 62
     7
420
 16777215
176
     1
 90
        0
176
     1
 90
        4
176
     1
 62
     7
176
     1
 62
   257
176
     1
 90
        1
176
     1
 90
        1
176
     1
 40
1.0
176
     1
 90
        8
176
     1
 62
     7
176
     1
 40
1.0
176
     1
 90
        1
176
     1
 90
        6
176
     1
 90
        2
176
     1
 62
     7
176
     1
 90
        5
176
     1
 90
        0
176
     1
 90
        0
176
     1
290
     0
176
     1
 90
        1
176
     1
 40
0.0
176
     1
 90
        0
176
     1
290
     0
176
     1
290
     1
176
     1
290
     1
176
     1
290
     0
176
     1
290
     0
176
     1
290
     0
176
     1
290
     0
176
     1
290
     0
176
     1
290
     0
176
     1
 90
       50
176
     1
 40
0.0
176
     1
 40
1.0
176
     1
 90
        0
176
     1
 62
    18
420
        0
176
     1
 90
       50
176
     1
 90
        3
176
     1
 62
     5
420
      255
176
     1
290
     0
176
     1
 90
       50
176
     1
 90
       50
176
     1
 90
       50
176
     1
290
     0
176
     1
 90
       50
176
     1
 62
   256
176
     0
 40
1.0
176
     0
 90
        2
176
     1
  1
strokes_ogs.tif
176
     1
290
     0
176
     1
 40
1.0
176
     1
 40
1.0
176
     1
  0
VISUALSTYLE
  5
36
102
{ACAD_REACTORS
330
2A
102
}
330
2A
100
AcDbVisualStyle
  2
Brighten
 70
    12
177
     3
291
     1
 70
    58
 90
        2
176
     1
 90
        2
176
     1
 90
        0
176
     1
 90
        0
176
     1
 40
0.6
176
     1
 40
30.0
176
     1
 62
     7
420
 16777215
176
     1
 90
        1
176
     1
 90
        4
176
     1
 62
     7
176
     1
 62
   257
176
     1
 90
        1
176
     1
 90
        1
176
     1
 40
1.0
176
     1
 90
        8
176
     1
 62
     7
176
     1
 40
1.0
176
     1
 90
        1
176
     1
 90
        6
176
     1
 90
        2
176
     1
 62
     7
176
     1
 90
        5
176
     1
 90
        0
176
     1
 90
        0
176
     1
290
     0
176
     1
 90
        1
176
     1
 40
50.0
176
     1
 90
        0
176
     1
290
     0
176
     1
290
     1
176
     1
290
     1
176
     1
290
     0
176
     1
290
     0
176
     1
290
     0
176
     1
290
     0
176
     1
290
     0
176
     1
290
     0
176
     1
 90
       50
176
     1
 40
0.0
176
     1
 40
1.0
176
     1
 90
        0
176
     1
 62
    18
420
        0
176
     1
 90
       50
176
     1
 90
        3
176
     1
 62
     5
420
      255
176
     1
290
     0
176
     1
 90
       50
176
     1
 90
       50
176
     1
 90
       50
176
     1
290
     0
176
     1
 90
       50
176
     1
 62
   256
176
     0
 40
1.0
176
     0
 90
        2
176
     1
  1
strokes_ogs.tif
176
     1
290
     0
176
     1
 40
1.0
176
     1
 40
1.0
176
     1
  0
VISUALSTYLE
  5
3A
102
{ACAD_REACTORS
330
2A
102
}
330
2A
100
AcDbVisualStyle
  2
ColorChange
 70
    16
177
     3
291
     1
 70
    58
 90
        2
176
     1
 90
        2
176
     1
 90
        3
176
     1
 90
        0
176
     1
 40
0.6
176
     1
 40
30.0
176
     1
 62
     8
420
  8421504
176
     1
 90
        1
176
     1
 90
        4
176
     1
 62
     7
176
     1
 62
   257
176
     1
 90
        1
176
     1
 90
        1
176
     1
 40
1.0
176
     1
 90
        8
176
     1
 62
     8
420
  8421504
176
     1
 40
1.0
176
     1
 90
        1
176
     1
 90
        6
176
     1
 90
        2
176
     1
 62
     7
176
     1
 90
        5
176
     1
 90
        0
176
     1
 90
        0
176
     1
290
     0
176
     1
 90
        1
176
     1
 40
0.0
176
     1
 90
        0
176
     1
290
     0
176
     1
290
     1
176
     1
290
     1
176
     1
290
     0
176
     1
290
     0
176
     1
290
     0
176
     1
290
     0
176
     1
290
     0
176
     1
290
     0
176
     1
 90
       50
176
     1
 40
0.0
176
     1
 40
1.0
176
     1
 90
        0
176
     1
 62
    18
420
        0
176
     1
 90
       50
176
     1
 90
        3
176
     1
 62
     5
420
      255
176
     1
290
     0
176
     1
 90
       50
176
     1
 90
       50
176
     1
 90
       50
176
     1
290
     0
176
     1
 90
       50
176
     1
 62
   256
176
     0
 40
1.0
176
     0
 90
        2
176
     1
  1
strokes_ogs.tif
176
     1
290
     0
176
     1
 40
1.0
176
     1
 40
1.0
176
     1
  0
VISUALSTYLE
  5
34
102
{ACAD_REACTORS
330
2A
102
}
330
2A
100
AcDbVisualStyle
  2
Conceptual
 70
     9
177
     3
291
     0
 70
    58
 90
        3
176
     1
 90
        2
176
     1
 90
        0
176
     1
 90
        0
176
     1
 40
0.6
176
     1
 40
30.0
176
     1
 62
     7
420
 16777215
176
     1
 90
        2
176
     1
 90
        2
176
     1
 62
     7
176
     1
 62
   257
176
     1
 90
        1
176
     1
 90
        1
176
     1
 40
179.0
176
     1
 90
        8
176
     1
 62
     7
176
     1
 40
1.0
176
     1
 90
        1
176
     1
 90
        6
176
     1
 90
        2
176
     1
 62
     7
176
     1
 90
        3
176
     1
 90
        0
176
     1
 90
        0
176
     1
290
     0
176
     1
 90
        1
176
     1
 40
0.0
176
     1
 90
        0
176
     1
290
     0
176
     1
290
     1
176
     1
290
     1
176
     1
290
     0
176
     1
290
     0
176
     1
290
     0
176
     1
290
     0
176
     1
290
     0
176
     1
290
     0
176
     1
 90
       50
176
     1
 40
0.0
176
     1
 40
1.0
176
     1
 90
        0
176
     1
 62
    18
420
        0
176
     1
 90
       50
176
     1
 90
        3
176
     1
 62
     5
420
      255
176
     1
290
     0
176
     1
 90
       50
176
     1
 90
       50
176
     1
 90
       50
176
     1
290
     0
176
     1
 90
       50
176
     1
 62
   256
176
     0
 40
1.0
176
     0
 90
        2
176
     1
  1
strokes_ogs.tif
176
     1
290
     0
176
     1
 40
1.0
176
     1
 40
1.0
176
     1
  0
VISUALSTYLE
  5
35
102
{ACAD_REACTORS
330
2A
102
}
330
2A
100
AcDbVisualStyle
  2
Dim
 70
    11
177
     3
291
     1
 70
    58
 90
        2
176
     1
 90
        2
176
     1
 90
        0
176
     1
 90
        0
176
     1
 40
0.6
176
     1
 40
30.0
176
     1
 62
     7
420
 16777215
176
     1
 90
        1
176
     1
 90
        4
176
     1
 62
     7
176
     1
 62
   257
176
     1
 90
        1
176
     1
 90
        1
176
     1
 40
1.0
176
     1
 90
        8
176
     1
 62
     7
176
     1
 40
1.0
176
     1
 90
        1
176
     1
 90
        6
176
     1
 90
        2
176
     1
 62
     7
176
     1
 90
        5
176
     1
 90
        0
176
     1
 90
        0
176
     1
290
     0
176
     1
 90
        1
176
     1
 40
-50.0
176
     1
 90
        0
176
     1
290
     0
176
     1
290
     1
176
     1
290
     1
176
     1
290
     0
176
     1
290
     0
176
     1
290
     0
176
     1
290
     0
176
     1
290
     0
176
     1
290
     0
176
     1
 90
       50
176
     1
 40
0.0
176
     1
 40
1.0
176
     1
 90
        0
176
     1
 62
    18
420
        0
176
     1
 90
       50
176
     1
 90
        3
176
     1
 62
     5
420
      255
176
     1
290
     0
176
     1
 90
       50
176
     1
 90
       50
176
     1
 90
       50
176
     1
290
     0
176
     1
 90
       50
176
     1
 62
   256
176
     0
 40
1.0
176
     0
 90
        2
176
     1
  1
strokes_ogs.tif
176
     1
290
     0
176
     1
 40
1.0
176
     1
 40
1.0
176
     1
  0
VISUALSTYLE
  5
3D
102
{ACAD_REACTORS
330
2A
102
}
330
2A
100
AcDbVisualStyle
  2
EdgeColorOff
 70
    22
177
     3
291
     1
 70
    58
 90
        2
176
     0
 90
        2
176
     0
 90
        0
176
     0
 90
        0
176
     0
 40
0.6
176
     0
 40
30.0
176
     0
 62
     7
420
 16777215
176
     0
 90
        1
176
     0
 90
        4
176
     0
 62
     7
176
     0
 62
   257
176
     0
 90
        1
176
     0
 90
        1
176
     0
 40
1.0
176
     0
 90
        8
176
     2
 62
     7
176
     0
 40
1.0
176
     0
 90
        1
176
     0
 90
        6
176
     0
 90
        2
176
     0
 62
     7
176
     0
 90
        5
176
     0
 90
        0
176
     0
 90
        0
176
     0
290
     0
176
     0
 90
        1
176
     0
 40
0.0
176
     0
 90
        0
176
     0
290
     0
176
     0
290
     1
176
     0
290
     1
176
     0
290
     0
176
     0
290
     0
176
     0
290
     0
176
     0
290
     0
176
     0
290
     0
176
     0
290
     0
176
     0
 90
       50
176
     0
 40
0.0
176
     0
 40
1.0
176
     0
 90
        0
176
     0
 62
    18
420
        0
176
     0
 90
       50
176
     0
 90
        3
176
     0
 62
     5
420
      255
176
     0
290
     0
176
     0
 90
       50
176
     0
 90
       50
176
     0
 90
       50
176
     0
290
     0
176
     0
 90
       50
176
     0
 62
   256
176
     0
 40
1.0
176
     0
 90
        2
176
     0
  1
strokes_ogs.tif
176
     0
290
     0
176
     0
 40
1.0
176
     0
 40
1.0
176
     0
  0
VISUALSTYLE
  5
39
102
{ACAD_REACTORS
330
2A
102
}
330
2A
100
AcDbVisualStyle
  2
Facepattern
 70
    15
177
     3
291
     1
 70
    58
 90
        2
176
     1
 90
        2
176
     1
 90
        0
176
     1
 90
        0
176
     1
 40
0.6
176
     1
 40
30.0
176
     1
 62
     7
420
 16777215
176
     1
 90
        1
176
     1
 90
        4
176
     1
 62
     7
176
     1
 62
   257
176
     1
 90
        1
176
     1
 90
        1
176
     1
 40
1.0
176
     1
 90
        8
176
     1
 62
     7
176
     1
 40
1.0
176
     1
 90
        1
176
     1
 90
        6
176
     1
 90
        2
176
     1
 62
     7
176
     1
 90
        5
176
     1
 90
        0
176
     1
 90
        0
176
     1
290
     0
176
     1
 90
        1
176
     1
 40
0.0
176
     1
 90
        0
176
     1
290
     0
176
     1
290
     1
176
     1
290
     1
176
     1
290
     0
176
     1
290
     0
176
     1
290
     0
176
     1
290
     0
176
     1
290
     0
176
     1
290
     0
176
     1
 90
       50
176
     1
 40
0.0
176
     1
 40
1.0
176
     1
 90
        0
176
     1
 62
    18
420
        0
176
     1
 90
       50
176
     1
 90
        3
176
     1
 62
     5
420
      255
176
     1
290
     0
176
     1
 90
       50
176
     1
 90
       50
176
     1
 90
       50
176
     1
290
     0
176
     1
 90
       50
176
     1
 62
   256
176
     0
 40
1.0
176
     0
 90
        2
176
     1
  1
strokes_ogs.tif
176
     1
290
     0
176
     1
 40
1.0
176
     1
 40
1.0
176
     1
  0
VISUALSTYLE
  5
2B
102
{ACAD_REACTORS
330
2A
102
}
330
2A
100
AcDbVisualStyle
  2
Flat
 70
     0
177
     3
291
     1
 70
    58
 90
        2
176
     1
 90
        1
176
     1
 90
        1
176
     1
 90
        2
176
     1
 40
0.6
176
     1
 40
30.0
176
     1
 62
     7
420
 16777215
176
     1
 90
        0
176
     1
 90
        0
176
     1
 62
     7
176
     1
 62
   257
176
     1
 90
        1
176
     1
 90
        1
176
     1
 40
1.0
176
     1
 90
        8
176
     1
 62
     7
176
     1
 40
1.0
176
     1
 90
        1
176
     1
 90
        6
176
     1
 90
        2
176
     1
 62
     7
176
     1
 90
        5
176
     1
 90
        0
176
     1
 90
        0
176
     1
290
     0
176
     1
 90
       13
176
     1
 40
0.0
176
     1
 90
        0
176
     1
290
     0
176
     1
290
     1
176
     1
290
     1
176
     1
290
     0
176
     1
290
     0
176
     1
290
     0
176
     1
290
     0
176
     1
290
     0
176
     1
290
     0
176
     1
 90
       50
176
     1
 40
0.0
176
     1
 40
1.0
176
     1
 90
        0
176
     1
 62
    18
420
        0
176
     1
 90
       50
176
     1
 90
        3
176
     1
 62
     5
420
      255
176
     1
290
     0
176
     1
 90
       50
176
     1
 90
       50
176
     1
 90
       50
176
     1
290
     0
176
     1
 90
       50
176
     1
 62
   256
176
     0
 40
1.0
176
     0
 90
        2
176
     1
  1
strokes_ogs.tif
176
     1
290
     0
176
     1
 40
1.0
176
     1
 40
1.0
176
     1
  0
VISUALSTYLE
  5
2C
102
{ACAD_REACTORS
330
2A
102
}
330
2A
100
AcDbVisualStyle
  2
FlatWithEdges
 70
     1
177
     3
291
     1
 70
    58
 90
        2
176
     1
 90
        1
176
     1
 90
        1
176
     1
 90
        2
176
     1
 40
0.6
176
     1
 40
30.0
176
     1
 62
     7
420
 16777215
176
     1
 90
        1
176
     1
 90
        0
176
     1
 62
     7
176
     1
 62
   257
176
     1
 90
        1
176
     1
 90
        1
176
     1
 40
1.0
176
     1
 90
        0
176
     1
 62
   257
176
     1
 40
1.0
176
     1
 90
        1
176
     1
 90
        6
176
     1
 90
        2
176
     1
 62
     7
176
     1
 90
        5
176
     1
 90
        0
176
     1
 90
        0
176
     1
290
     0
176
     1
 90
       13
176
     1
 40
0.0
176
     1
 90
        0
176
     1
290
     0
176
     1
290
     1
176
     1
290
     1
176
     1
290
     0
176
     1
290
     0
176
     1
290
     0
176
     1
290
     0
176
     1
290
     0
176
     1
290
     0
176
     1
 90
       50
176
     1
 40
0.0
176
     1
 40
1.0
176
     1
 90
        0
176
     1
 62
    18
420
        0
176
     1
 90
       50
176
     1
 90
        3
176
     1
 62
     5
420
      255
176
     1
290
     0
176
     1
 90
       50
176
     1
 90
       50
176
     1
 90
       50
176
     1
290
     0
176
     1
 90
       50
176
     1
 62
   256
176
     0
 40
1.0
176
     0
 90
        2
176
     1
  1
strokes_ogs.tif
176
     1
290
     0
176
     1
 40
1.0
176
     1
 40
1.0
176
     1
  0
VISUALSTYLE
  5
2D
102
{ACAD_REACTORS
330
2A
102
}
330
2A
100
AcDbVisualStyle
  2
Gouraud
 70
     2
177
     3
291
     1
 70
    58
 90
        2
176
     1
 90
        2
176
     1
 90
        1
176
     1
 90
        2
176
     1
 40
0.6
176
     1
 40
30.0
176
     1
 62
     7
420
 16777215
176
     1
 90
        0
176
     1
 90
        0
176
     1
 62
     7
176
     1
 62
   257
176
     1
 90
        1
176
     1
 90
        1
176
     1
 40
1.0
176
     1
 90
        0
176
     1
 62
     7
176
     1
 40
1.0
176
     1
 90
        1
176
     1
 90
        6
176
     1
 90
        2
176
     1
 62
     7
176
     1
 90
        5
176
     1
 90
        0
176
     1
 90
        0
176
     1
290
     0
176
     1
 90
       13
176
     1
 40
0.0
176
     1
 90
        0
176
     1
290
     0
176
     1
290
     1
176
     1
290
     1
176
     1
290
     0
176
     1
290
     0
176
     1
290
     0
176
     1
290
     0
176
     1
290
     0
176
     1
290
     0
176
     1
 90
       50
176
     1
 40
0.0
176
     1
 40
1.0
176
     1
 90
        0
176
     1
 62
    18
420
        0
176
     1
 90
       50
176
     1
 90
        3
176
     1
 62
     5
420
      255
176
     1
290
     0
176
     1
 90
       50
176
     1
 90
       50
176
     1
 90
       50
176
     1
290
     0
176
     1
 90
       50
176
     1
 62
   256
176
     0
 40
1.0
176
     0
 90
        2
176
     1
  1
strokes_ogs.tif
176
     1
290
     0
176
     1
 40
1.0
176
     1
 40
1.0
176
     1
  0
VISUALSTYLE
  5
2E
102
{ACAD_REACTORS
330
2A
102
}
330
2A
100
AcDbVisualStyle
  2
GouraudWithEdges
 70
     3
177
     3
291
     1
 70
    58
 90
        2
176
     1
 90
        2
176
     1
 90
        1
176
     1
 90
        2
176
     1
 40
0.6
176
     1
 40
30.0
176
     1
 62
     7
420
 16777215
176
     1
 90
        1
176
     1
 90
        0
176
     1
 62
     7
176
     1
 62
   257
176
     1
 90
        1
176
     1
 90
        1
176
     1
 40
1.0
176
     1
 90
        0
176
     1
 62
   257
176
     1
 40
1.0
176
     1
 90
        1
176
     1
 90
        6
176
     1
 90
        2
176
     1
 62
     7
176
     1
 90
        5
176
     1
 90
        0
176
     1
 90
        0
176
     1
290
     0
176
     1
 90
       13
176
     1
 40
0.0
176
     1
 90
        0
176
     1
290
     0
176
     1
290
     1
176
     1
290
     1
176
     1
290
     0
176
     1
290
     0
176
     1
290
     0
176
     1
290
     0
176
     1
290
     0
176
     1
290
     0
176
     1
 90
       50
176
     1
 40
0.0
176
     1
 40
1.0
176
     1
 90
        0
176
     1
 62
    18
420
        0
176
     1
 90
       50
176
     1
 90
        3
176
     1
 62
     5
420
      255
176
     1
290
     0
176
     1
 90
       50
176
     1
 90
       50
176
     1
 90
       50
176
     1
290
     0
176
     1
 90
       50
176
     1
 62
   256
176
     0
 40
1.0
176
     0
 90
        2
176
     1
  1
strokes_ogs.tif
176
     1
290
     0
176
     1
 40
1.0
176
     1
 40
1.0
176
     1
  0
VISUALSTYLE
  5
31
102
{ACAD_REACTORS
330
2A
102
}
330
2A
100
AcDbVisualStyle
  2
Hidden
 70
     6
177
     3
291
     0
 70
    58
 90
        1
176
     1
 90
        2
176
     1
 90
        2
176
     1
 90
        0
176
     1
 40
0.6
176
     1
 40
30.0
176
     1
 62
     7
420
 16777215
176
     1
 90
        2
176
     1
 90
        2
176
     1
 62
     7
176
     1
 62
   257
176
     1
 90
        2
176
     1
 90
        1
176
     1
 40
40.0
176
     1
 90
        0
176
     1
 62
   257
176
     1
 40
1.0
176
     1
 90
        1
176
     1
 90
        6
176
     1
 90
        2
176
     1
 62
     7
176
     1
 90
        3
176
     1
 90
        0
176
     1
 90
        0
176
     1
290
     0
176
     1
 90
        1
176
     1
 40
0.0
176
     1
 90
        0
176
     1
290
     0
176
     1
290
     1
176
     1
290
     1
176
     1
290
     0
176
     1
290
     0
176
     1
290
     0
176
     1
290
     0
176
     1
290
     0
176
     1
290
     0
176
     1
 90
       50
176
     1
 40
0.0
176
     1
 40
1.0
176
     1
 90
        0
176
     1
 62
    18
420
        0
176
     1
 90
       50
176
     1
 90
        3
176
     1
 62
     5
420
      255
176
     1
290
     0
176
     1
 90
       50
176
     1
 90
       50
176
     1
 90
       50
176
     1
290
     0
176
     1
 90
       50
176
     1
 62
   256
176
     0
 40
1.0
176
     0
 90
        2
176
     1
  1
strokes_ogs.tif
176
     1
290
     0
176
     1
 40
1.0
176
     1
 40
1.0
176
     1
  0
VISUALSTYLE
  5
3B
102
{ACAD_REACTORS
330
2A
102
}
330
2A
100
AcDbVisualStyle
  2
JitterOff
 70
    20
177
     3
291
     1
 70
    58
 90
        2
176
     0
 90
        2
176
     0
 90
        0
176
     0
 90
        0
176
     0
 40
0.6
176
     0
 40
30.0
176
     0
 62
     7
420
 16777215
176
     0
 90
        1
176
     0
 90
        4
176
     0
 62
     7
176
     0
 62
   257
176
     0
 90
        1
176
     0
 90
        1
176
     0
 40
1.0
176
     0
 90
       10
176
     2
 62
     7
176
     0
 40
1.0
176
     0
 90
        1
176
     0
 90
        6
176
     0
 90
        2
176
     0
 62
     7
176
     0
 90
        5
176
     0
 90
        0
176
     0
 90
        0
176
     0
290
     0
176
     0
 90
        1
176
     0
 40
0.0
176
     0
 90
        0
176
     0
290
     0
176
     0
290
     1
176
     0
290
     1
176
     0
290
     0
176
     0
290
     0
176
     0
290
     0
176
     0
290
     0
176
     0
290
     0
176
     0
290
     0
176
     0
 90
       50
176
     0
 40
0.0
176
     0
 40
1.0
176
     0
 90
        0
176
     0
 62
    18
420
        0
176
     0
 90
       50
176
     0
 90
        3
176
     0
 62
     5
420
      255
176
     0
290
     0
176
     0
 90
       50
176
     0
 90
       50
176
     0
 90
       50
176
     0
290
     0
176
     0
 90
       50
176
     0
 62
   256
176
     0
 40
1.0
176
     0
 90
        2
176
     0
  1
strokes_ogs.tif
176
     0
290
     0
176
     0
 40
1.0
176
     0
 40
1.0
176
     0
  0
VISUALSTYLE
  5
38
102
{ACAD_REACTORS
330
2A
102
}
330
2A
100
AcDbVisualStyle
  2
Linepattern
 70
    14
177
     3
291
     1
 70
    58
 90
        2
176
     1
 90
        2
176
     1
 90
        0
176
     1
 90
        0
176
     1
 40
0.6
176
     1
 40
30.0
176
     1
 62
     7
420
 16777215
176
     1
 90
        1
176
     1
 90
        4
176
     1
 62
     7
176
     1
 62
   257
176
     1
 90
        7
176
     1
 90
        7
176
     1
 40
1.0
176
     1
 90
        8
176
     1
 62
     7
176
     1
 40
1.0
176
     1
 90
        1
176
     1
 90
        6
176
     1
 90
        2
176
     1
 62
     7
176
     1
 90
        5
176
     1
 90
        0
176
     1
 90
        0
176
     1
290
     0
176
     1
 90
        1
176
     1
 40
0.0
176
     1
 90
        0
176
     1
290
     0
176
     1
290
     1
176
     1
290
     1
176
     1
290
     0
176
     1
290
     0
176
     1
290
     0
176
     1
290
     0
176
     1
290
     0
176
     1
290
     0
176
     1
 90
       50
176
     1
 40
0.0
176
     1
 40
1.0
176
     1
 90
        0
176
     1
 62
    18
420
        0
176
     1
 90
       50
176
     1
 90
        3
176
     1
 62
     5
420
      255
176
     1
290
     0
176
     1
 90
       50
176
     1
 90
       50
176
     1
 90
       50
176
     1
290
     0
176
     1
 90
       50
176
     1
 62
   256
176
     0
 40
1.0
176
     0
 90
        2
176
     1
  1
strokes_ogs.tif
176
     1
290
     0
176
     1
 40
1.0
176
     1
 40
1.0
176
     1
  0
VISUALSTYLE
  5
3C
102
{ACAD_REACTORS
330
2A
102
}
330
2A
100
AcDbVisualStyle
  2
OverhangOff
 70
    21
177
     3
291
     1
 70
    58
 90
        2
176
     0
 90
        2
176
     0
 90
        0
176
     0
 90
        0
176
     0
 40
0.6
176
     0
 40
30.0
176
     0
 62
     7
420
 16777215
176
     0
 90
        1
176
     0
 90
        4
176
     0
 62
     7
176
     0
 62
   257
176
     0
 90
        1
176
     0
 90
        1
176
     0
 40
1.0
176
     0
 90
        9
176
     2
 62
     7
176
     0
 40
1.0
176
     0
 90
        1
176
     0
 90
        6
176
     0
 90
        2
176
     0
 62
     7
176
     0
 90
        5
176
     0
 90
        0
176
     0
 90
        0
176
     0
290
     0
176
     0
 90
        1
176
     0
 40
0.0
176
     0
 90
        0
176
     0
290
     0
176
     0
290
     1
176
     0
290
     1
176
     0
290
     0
176
     0
290
     0
176
     0
290
     0
176
     0
290
     0
176
     0
290
     0
176
     0
290
     0
176
     0
 90
       50
176
     0
 40
0.0
176
     0
 40
1.0
176
     0
 90
        0
176
     0
 62
    18
420
        0
176
     0
 90
       50
176
     0
 90
        3
176
     0
 62
     5
420
      255
176
     0
290
     0
176
     0
 90
       50
176
     0
 90
       50
176
     0
 90
       50
176
     0
290
     0
176
     0
 90
       50
176
     0
 62
   256
176
     0
 40
1.0
176
     0
 90
        2
176
     0
  1
strokes_ogs.tif
176
     0
290
     0
176
     0
 40
1.0
176
     0
 40
1.0
176
     0
  0
VISUALSTYLE
  5
33
102
{ACAD_REACTORS
330
2A
102
}
330
2A
100
AcDbVisualStyle
  2
Realistic
 70
     8
177
     3
291
     0
 70
    58
 90
        2
176
     1
 90
        3
176
     1
 90
        0
176
     1
 90
        2
176
     1
 40
0.6
176
     1
 40
30.0
176
     1
 62
     7
420
 16777215
176
     1
 90
        0
176
     1
 90
        0
176
     1
 62
     7
176
     1
 62
   257
176
     1
 90
        1
176
     1
 90
        1
176
     1
 40
1.0
176
     1
 90
        8
176
     1
 62
   257
176
     1
 40
1.0
176
     1
 90
        1
176
     1
 90
        6
176
     1
 90
        2
176
     1
 62
     7
176
     1
 90
        3
176
     1
 90
        0
176
     1
 90
        0
176
     1
290
     0
176
     1
 90
       13
176
     1
 40
0.0
176
     1
 90
        0
176
     1
290
     0
176
     1
290
     1
176
     1
290
     1
176
     1
290
     0
176
     1
290
     0
176
     1
290
     0
176
     1
290
     0
176
     1
290
     0
176
     1
290
     0
176
     1
 90
       50
176
     1
 40
0.0
176
     1
 40
1.0
176
     1
 90
        0
176
     1
 62
    18
420
        0
176
     1
 90
       50
176
     1
 90
        3
176
     1
 62
     5
420
      255
176
     1
290
     0
176
     1
 90
       50
176
     1
 90
       50
176
     1
 90
       50
176
     1
290
     0
176
     1
 90
       50
176
     1
 62
   256
176
     0
 40
1.0
176
     0
 90
        2
176
     1
  1
strokes_ogs.tif
176
     1
290
     0
176
     1
 40
1.0
176
     1
 40
1.0
176
     1
  0
VISUALSTYLE
  5
42
102
{ACAD_REACTORS
330
2A
102
}
330
2A
100
AcDbVisualStyle
  2
Shaded
 70
    27
177
     3
291
     0
 70
    58
 90
        2
176
     1
 90
        2
176
     1
 90
        1
176
     1
 90
        2
176
     1
 40
0.6
176
     1
 40
30.0
176
     1
 62
     7
420
 16777215
176
     1
 90
        0
176
     1
 90
        4
176
     1
 62
     7
176
     1
 62
   257
176
     1
 90
        1
176
     1
 90
        1
176
     1
 40
1.0
176
     1
 90
        8
176
     1
 62
   257
176
     1
 40
1.0
176
     1
 90
        1
176
     1
 90
        6
176
     1
 90
        2
176
     1
 62
     8
420
  7895160
176
     1
 90
        3
176
     1
 90
        0
176
     1
 90
        0
176
     1
290
     0
176
     1
 90
        5
176
     1
 40
0.0
176
     1
 90
        0
176
     1
290
     0
176
     1
290
     1
176
     1
290
     1
176
     1
290
     0
176
     1
290
     0
176
     1
290
     0
176
     1
290
     0
176
     1
290
     0
176
     1
290
     0
176
     1
 90
       50
176
     1
 40
0.0
176
     1
 40
1.0
176
     1
 90
        0
176
     1
 62
    18
420
        0
176
     1
 90
       50
176
     1
 90
        3
176
     1
 62
     5
420
      255
176
     1
290
     0
176
     1
 90
       50
176
     1
 90
       50
176
     1
 90
       50
176
     1
290
     0
176
     1
 90
       50
176
     1
 62
   256
176
     0
 40
1.0
176
     0
 90
        2
176
     1
  1
strokes_ogs.tif
176
     1
290
     0
176
     1
 40
1.0
176
     1
 40
1.0
176
     1
  0
VISUALSTYLE
  5
41
102
{ACAD_REACTORS
330
2A
102
}
330
2A
100
AcDbVisualStyle
  2
Shaded with edges
 70
    26
177
     3
291
     0
 70
    58
 90
        2
176
     1
 90
        2
176
     1
 90
        1
176
     1
 90
        2
176
     1
 40
0.6
176
     1
 40
30.0
176
     1
 62
     7
420
 16777215
176
     1
 90
        1
176
     1
 90
       10
176
     1
 62
     7
176
     1
 62
   257
176
     1
 90
        2
176
     1
 90
        1
176
     1
 40
1.0
176
     1
 90
        8
176
     1
 62
   257
176
     1
 40
1.0
176
     1
 90
        1
176
     1
 90
        6
176
     1
 90
        2
176
     1
 62
     7
176
     1
 90
        3
176
     1
 90
        0
176
     1
 90
        0
176
     1
290
     0
176
     1
 90
        5
176
     1
 40
0.0
176
     1
 90
        0
176
     1
290
     0
176
     1
290
     1
176
     1
290
     1
176
     1
290
     0
176
     1
290
     0
176
     1
290
     0
176
     1
290
     0
176
     1
290
     0
176
     1
290
     0
176
     1
 90
       50
176
     1
 40
0.0
176
     1
 40
1.0
176
     1
 90
        0
176
     1
 62
    18
420
        0
176
     1
 90
       50
176
     1
 90
        3
176
     1
 62
     5
420
      255
176
     1
290
     0
176
     1
 90
       50
176
     1
 90
       50
176
     1
 90
       50
176
     1
290
     0
176
     1
 90
       50
176
     1
 62
   256
176
     0
 40
1.0
176
     0
 90
        2
176
     1
  1
strokes_ogs.tif
176
     1
290
     0
176
     1
 40
1.0
176
     1
 40
1.0
176
     1
  0
VISUALSTYLE
  5
3E
102
{ACAD_REACTORS
330
2A
102
}
330
2A
100
AcDbVisualStyle
  2
Shades of Gray
 70
    23
177
     3
291
     0
 70
    58
 90
        2
176
     1
 90
        2
176
     1
 90
        3
176
     1
 90
        0
176
     1
 40
0.6
176
     1
 40
30.0
176
     1
 62
     7
420
 16777215
176
     1
 90
        2
176
     1
 90
        2
176
     1
 62
     7
176
     1
 62
     7
176
     1
 90
        1
176
     1
 90
        1
176
     1
 40
40.0
176
     1
 90
        8
176
     1
 62
     7
176
     1
 40
1.0
176
     1
 90
        1
176
     1
 90
        6
176
     1
 90
        2
176
     1
 62
     7
176
     1
 90
        3
176
     1
 90
        0
176
     1
 90
        0
176
     1
290
     0
176
     1
 90
        1
176
     1
 40
0.0
176
     1
 90
        0
176
     1
290
     0
176
     1
290
     1
176
     1
290
     1
176
     1
290
     0
176
     1
290
     0
176
     1
290
     0
176
     1
290
     0
176
     1
290
     0
176
     1
290
     0
176
     1
 90
       50
176
     1
 40
0.0
176
     1
 40
1.0
176
     1
 90
        0
176
     1
 62
    18
420
        0
176
     1
 90
       50
176
     1
 90
        3
176
     1
 62
     5
420
      255
176
     1
290
     0
176
     1
 90
       50
176
     1
 90
       50
176
     1
 90
       50
176
     1
290
     0
176
     1
 90
       50
176
     1
 62
   256
176
     0
 40
1.0
176
     0
 90
        2
176
     1
  1
strokes_ogs.tif
176
     1
290
     0
176
     1
 40
1.0
176
     1
 40
1.0
176
     1
  0
VISUALSTYLE
  5
3F
102
{ACAD_REACTORS
330
2A
102
}
330
2A
100
AcDbVisualStyle
  2
Sketchy
 70
    24
177
     3
291
     0
 70
    58
 90
        1
176
     1
 90
        2
176
     1
 90
        2
176
     1
 90
        0
176
     1
 40
0.6
176
     1
 40
30.0
176
     1
 62
     7
420
 16777215
176
     1
 90
        2
176
     1
 90
        2
176
     1
 62
     7
176
     1
 62
     7
176
     1
 90
        1
176
     1
 90
        1
176
     1
 40
40.0
176
     1
 90
       11
176
     1
 62
     7
176
     1
 40
1.0
176
     1
 90
        1
176
     1
 90
        6
176
     1
 90
        2
176
     1
 62
     7
176
     1
 90
        6
176
     1
 90
        0
176
     1
 90
        0
176
     1
290
     0
176
     1
 90
        1
176
     1
 40
0.0
176
     1
 90
        0
176
     1
290
     0
176
     1
290
     1
176
     1
290
     1
176
     1
290
     0
176
     1
290
     0
176
     1
290
     0
176
     1
290
     0
176
     1
290
     0
176
     1
290
     0
176
     1
 90
       50
176
     1
 40
0.0
176
     1
 40
1.0
176
     1
 90
        0
176
     1
 62
    18
420
        0
176
     1
 90
       50
176
     1
 90
        3
176
     1
 62
     5
420
      255
176
     1
290
     0
176
     1
 90
       50
176
     1
 90
       50
176
     1
 90
       50
176
     1
290
     0
176
     1
 90
       50
176
     1
 62
   256
176
     0
 40
1.0
176
     0
 90
        2
176
     1
  1
strokes_ogs.tif
176
     1
290
     0
176
     1
 40
1.0
176
     1
 40
1.0
176
     1
  0
VISUALSTYLE
  5
37
102
{ACAD_REACTORS
330
2A
102
}
330
2A
100
AcDbVisualStyle
  2
Thicken
 70
    13
177
     3
291
     1
 70
    58
 90
        2
176
     1
 90
        2
176
     1
 90
        0
176
     1
 90
        0
176
     1
 40
0.6
176
     1
 40
30.0
176
     1
 62
     7
420
 16777215
176
     1
 90
        1
176
     1
 90
        4
176
     1
 62
     7
176
     1
 62
   257
176
     1
 90
        1
176
     1
 90
        1
176
     1
 40
1.0
176
     1
 90
       12
176
     1
 62
     7
176
     1
 40
1.0
176
     1
 90
        1
176
     1
 90
        6
176
     1
 90
        2
176
     1
 62
     7
176
     1
 90
        5
176
     1
 90
        0
176
     1
 90
        0
176
     1
290
     0
176
     1
 90
        1
176
     1
 40
0.0
176
     1
 90
        0
176
     1
290
     0
176
     1
290
     1
176
     1
290
     1
176
     1
290
     0
176
     1
290
     0
176
     1
290
     0
176
     1
290
     0
176
     1
290
     0
176
     1
290
     0
176
     1
 90
       50
176
     1
 40
0.0
176
     1
 40
1.0
176
     1
 90
        0
176
     1
 62
    18
420
        0
176
     1
 90
       50
176
     1
 90
        3
176
     1
 62
     5
420
      255
176
     1
290
     0
176
     1
 90
       50
176
     1
 90
       50
176
     1
 90
       50
176
     1
290
     0
176
     1
 90
       50
176
     1
 62
   256
176
     0
 40
1.0
176
     0
 90
        2
176
     1
  1
strokes_ogs.tif
176
     1
290
     0
176
     1
 40
1.0
176
     1
 40
1.0
176
     1
  0
VISUALSTYLE
  5
30
102
{ACAD_REACTORS
330
2A
102
}
330
2A
100
AcDbVisualStyle
  2
Wireframe
 70
     5
177
     3
291
     0
 70
    58
 90
        0
176
     1
 90
        2
176
     1
 90
        0
176
     1
 90
        0
176
     1
 40
0.6
176
     1
 40
30.0
176
     1
 62
     7
420
 16777215
176
     1
 90
        1
176
     1
 90
        4
176
     1
 62
     7
176
     1
 62
   257
176
     1
 90
        1
176
     1
 90
        1
176
     1
 40
1.0
176
     1
 90
        0
176
     1
 62
   257
176
     1
 40
1.0
176
     1
 90
        1
176
     1
 90
        6
176
     1
 90
        2
176
     1
 62
     7
176
     1
 90
        3
176
     1
 90
        0
176
     1
 90
        0
176
     1
290
     0
176
     1
 90
        1
176
     1
 40
0.0
176
     1
 90
        0
176
     1
290
     0
176
     1
290
     1
176
     1
290
     1
176
     1
290
     0
176
     1
290
     0
176
     1
290
     0
176
     1
290
     0
176
     1
290
     0
176
     1
290
     0
176
     1
 90
       50
176
     1
 40
0.0
176
     1
 40
1.0
176
     1
 90
        0
176
     1
 62
    18
420
        0
176
     1
 90
       50
176
     1
 90
        3
176
     1
 62
     5
420
      255
176
     1
290
     0
176
     1
 90
       50
176
     1
 90
       50
176
     1
 90
       50
176
     1
290
     0
176
     1
 90
       50
176
     1
 62
   256
176
     0
 40
1.0
176
     0
 90
        2
176
     1
  1
strokes_ogs.tif
176
     1
290
     0
176
     1
 40
1.0
176
     1
 40
1.0
176
     1
  0
VISUALSTYLE
  5
40
102
{ACAD_REACTORS
330
2A
102
}
330
2A
100
AcDbVisualStyle
  2
X-Ray
 70
    25
177
     3
291
     0
 70
    58
 90
        2
176
     1
 90
        2
176
     1
 90
        1
176
     1
 90
        1
176
     1
 40
0.5
176
     1
 40
30.0
176
     1
 62
     7
420
 16777215
176
     1
 90
        1
176
     1
 90
        0
176
     1
 62
     7
176
     1
 62
   257
176
     1
 90
        1
176
     1
 90
        1
176
     1
 40
1.0
176
     1
 90
        8
176
     1
 62
     7
176
     1
 40
1.0
176
     1
 90
        1
176
     1
 90
        6
176
     1
 90
        2
176
     1
 62
     7
176
     1
 90
        3
176
     1
 90
        0
176
     1
 90
        0
176
     1
290
     0
176
     1
 90
       13
176
     1
 40
0.0
176
     1
 90
        0
176
     1
290
     0
176
     1
290
     1
176
     1
290
     1
176
     1
290
     0
176
     1
290
     0
176
     1
290
     0
176
     1
290
     0
176
     1
290
     0
176
     1
290
     0
176
     1
 90
       50
176
     1
 40
0.0
176
     1
 40
1.0
176
     1
 90
        0
176
     1
 62
    18
420
        0
176
     1
 90
       50
176
     1
 90
        3
176
     1
 62
     5
420
      255
176
     1
290
     0
176
     1
 90
       50
176
     1
 90
       50
176
     1
 90
       50
176
     1
290
     0
176
     1
 90
       50
176
     1
 62
   256
176
     0
 40
1.0
176
     0
 90
        2
176
     1
  1
strokes_ogs.tif
176
     1
290
     0
176
     1
 40
1.0
176
     1
 40
1.0
176
     1
  0
DICTIONARYVAR
  5
A0
102
{ACAD_REACTORS
330
9F
102
}
330
9F
100
DictionaryVariables
280
     0
  1
1:1
  0
DICTIONARYVAR
  5
A5
102
{ACAD_REACTORS
330
9F
102
}
330
9F
100
DictionaryVariables
280
     0
  1
Standard
  0
DICTIONARYVAR
  5
A4
102
{ACAD_REACTORS
330
9F
102
}
330
9F
100
DictionaryVariables
280
     0
  1
Standard
  0
DICTIONARY
  5
A1
330
5A
100
AcDbDictionary
280
     1
281
     1
  3
ACAD_ROUNDTRIP_2008_TABLESTYLE_CELLSTYLEMAP
360
A2
  0
CELLSTYLEMAP
  5
A2
102
{ACAD_REACTORS
330
A1
102
}
330
A1
100
AcDbCellStyleMap
 90
        3
300
CELLSTYLE
  1
TABLEFORMAT_BEGIN
 90
        5
170
     1
 91
        0
 92
    32768
 62
   257
 93
        1
300
CONTENTFORMAT
  1
CONTENTFORMAT_BEGIN
 90
        0
 91
        0
 92
        4
 93
        0
300

 40
0.0
140
1.0
 94
        5
 62
     0
340
11
144
0.25
309
CONTENTFORMAT_END
171
     1
301
MARGIN
  1
CELLMARGIN_BEGIN
 40
0.06
 40
0.06
 40
0.06
 40
0.06
 40
0.06
 40
0.06
309
CELLMARGIN_END
 94
        6
 95
        1
302
GRIDFORMAT
  1
GRIDFORMAT_BEGIN
 90
        0
 91
        1
 62
     0
 92
       -2
340
14
 93
        0
 40
0.045
309
GRIDFORMAT_END
 95
        2
302
GRIDFORMAT
  1
GRIDFORMAT_BEGIN
 90
        0
 91
        1
 62
     0
 92
       -2
340
14
 93
        0
 40
0.045
309
GRIDFORMAT_END
 95
        4
302
GRIDFORMAT
  1
GRIDFORMAT_BEGIN
 90
        0
 91
        1
 62
     0
 92
       -2
340
14
 93
        0
 40
0.045
309
GRIDFORMAT_END
 95
        8
302
GRIDFORMAT
  1
GRIDFORMAT_BEGIN
 90
        0
 91
        1
 62
     0
 92
       -2
340
14
 93
        0
 40
0.045
309
GRIDFORMAT_END
 95
       16
302
GRIDFORMAT
  1
GRIDFORMAT_BEGIN
 90
        0
 91
        1
 62
     0
 92
       -2
340
14
 93
        0
 40
0.045
309
GRIDFORMAT_END
 95
       32
302
GRIDFORMAT
  1
GRIDFORMAT_BEGIN
 90
        0
 91
        1
 62
     0
 92
       -2
340
14
 93
        0
 40
0.045
309
GRIDFORMAT_END
309
TABLEFORMAT_END
  1
CELLSTYLE_BEGIN
 90
        1
 91
        1
300
_TITLE
309
CELLSTYLE_END
300
CELLSTYLE
  1
TABLEFORMAT_BEGIN
 90
        5
170
     1
 91
        0
 92
        0
 62
   257
 93
        1
300
CONTENTFORMAT
  1
CONTENTFORMAT_BEGIN
 90
        0
 91
        0
 92
        4
 93
        0
300

 40
0.0
140
1.0
 94
        5
 62
     0
340
11
144
0.18
309
CONTENTFORMAT_END
171
     1
301
MARGIN
  1
CELLMARGIN_BEGIN
 40
0.06
 40
0.06
 40
0.06
 40
0.06
 40
0.06
 40
0.06
309
CELLMARGIN_END
 94
        6
 95
        1
302
GRIDFORMAT
  1
GRIDFORMAT_BEGIN
 90
        0
 91
        1
 62
     0
 92
       -2
340
14
 93
        0
 40
0.045
309
GRIDFORMAT_END
 95
        2
302
GRIDFORMAT
  1
GRIDFORMAT_BEGIN
 90
        0
 91
        1
 62
     0
 92
       -2
340
14
 93
        0
 40
0.045
309
GRIDFORMAT_END
 95
        4
302
GRIDFORMAT
  1
GRIDFORMAT_BEGIN
 90
        0
 91
        1
 62
     0
 92
       -2
340
14
 93
        0
 40
0.045
309
GRIDFORMAT_END
 95
        8
302
GRIDFORMAT
  1
GRIDFORMAT_BEGIN
 90
        0
 91
        1
 62
     0
 92
       -2
340
14
 93
        0
 40
0.045
309
GRIDFORMAT_END
 95
       16
302
GRIDFORMAT
  1
GRIDFORMAT_BEGIN
 90
        0
 91
        1
 62
     0
 92
       -2
340
14
 93
        0
 40
0.045
309
GRIDFORMAT_END
 95
       32
302
GRIDFORMAT
  1
GRIDFORMAT_BEGIN
 90
        0
 91
        1
 62
     0
 92
       -2
340
14
 93
        0
 40
0.045
309
GRIDFORMAT_END
309
TABLEFORMAT_END
  1
CELLSTYLE_BEGIN
 90
        2
 91
        1
300
_HEADER
309
CELLSTYLE_END
300
CELLSTYLE
  1
TABLEFORMAT_BEGIN
 90
        5
170
     1
 91
        0
 92
        0
 62
   257
 93
        1
300
CONTENTFORMAT
  1
CONTENTFORMAT_BEGIN
 90
        0
 91
        0
 92
        4
 93
        0
300

 40
0.0
140
1.0
 94
        2
 62
     0
340
11
144
0.18
309
CONTENTFORMAT_END
171
     1
301
MARGIN
  1
CELLMARGIN_BEGIN
 40
0.06
 40
0.06
 40
0.06
 40
0.06
 40
0.06
 40
0.06
309
CELLMARGIN_END
 94
        6
 95
        1
302
GRIDFORMAT
  1
GRIDFORMAT_BEGIN
 90
        0
 91
        1
 62
     0
 92
       -2
340
14
 93
        0
 40
0.045
309
GRIDFORMAT_END
 95
        2
302
GRIDFORMAT
  1
GRIDFORMAT_BEGIN
 90
        0
 91
        1
 62
     0
 92
       -2
340
14
 93
        0
 40
0.045
309
GRIDFORMAT_END
 95
        4
302
GRIDFORMAT
  1
GRIDFORMAT_BEGIN
 90
        0
 91
        1
 62
     0
 92
       -2
340
14
 93
        0
 40
0.045
309
GRIDFORMAT_END
 95
        8
302
GRIDFORMAT
  1
GRIDFORMAT_BEGIN
 90
        0
 91
        1
 62
     0
 92
       -2
340
14
 93
        0
 40
0.045
309
GRIDFORMAT_END
 95
       16
302
GRIDFORMAT
  1
GRIDFORMAT_BEGIN
 90
        0
 91
        1
 62
     0
 92
       -2
340
14
 93
        0
 40
0.045
309
GRIDFORMAT_END
 95
       32
302
GRIDFORMAT
  1
GRIDFORMAT_BEGIN
 90
        0
 91
        1
 62
     0
 92
       -2
340
14
 93
        0
 40
0.045
309
GRIDFORMAT_END
309
TABLEFORMAT_END
  1
CELLSTYLE_BEGIN
 90
        3
 91
        2
300
_DATA
309
CELLSTYLE_END
  0
ENDSEC
  0
EOF
